<svg t="1694848429270" class="icon" viewBox="0 0 1024 1024" version="1.1" xmlns="http://www.w3.org/2000/svg" p-id="4006" width="200" height="200">
<path d="M512 512m-450.56 0a450.56 450.56 0 1 0 901.12 0 450.56 450.56 0 1 0-901.12 0Z" fill="#131415" p-id="4007"></path>
<path d="M626.0736 254.89408c11.0592 11.4688 11.69408 29.61408 1.9456 41.84064l-1.9456 2.23232L420.70016 512 626.0736 725.03296c11.0592 11.4688 11.69408 29.61408 1.9456 41.86112l-1.9456 2.21184c-11.03872 11.4688-28.54912 12.14464-40.3456 2.02752l-2.1504-2.02752L356.9664 534.03648a32.03072 32.03072 0 0 1-1.9456-41.86112l1.9456-2.21184 226.6112-235.06944a29.2864 29.2864 0 0 1 42.496 0z" 
fill="#FFFFFF" p-id="4008"></path>
</svg>