<svg version="1.1" viewBox="0 0 1024 1024" xmlns="http://www.w3.org/2000/svg">
  
  <g transform="scale(1, -1) translate(0, -900)">
    <style type="text/css">
        .stroke1 {fill: #808080;}
        .stroke2 {fill: #808079;}
        .stroke3 {fill: #808078;}
        .stroke4 {fill: #808077;}
        .stroke5 {fill: #808076;}
        .stroke6 {fill: #808075;}
        .stroke7 {fill: #808074;}
        .stroke8 {fill: #808073;}
        .stroke9 {fill: #808072;}
        .stroke10 {fill: #808071;}
        .stroke11 {fill: #808070;}
        .stroke12 {fill: #808069;}
        .stroke13 {fill: #808068;}
        .stroke14 {fill: #808067;}
        .stroke15 {fill: #808066;}
        .stroke16 {fill: #808065;}
        .stroke17 {fill: #808064;}
        .stroke18 {fill: #808063;}
        .stroke19 {fill: #808062;}
        .stroke20 {fill: #808061;}
        text {
            font-family: Helvetica;
            font-size: 50px;
            fill: #808060;
            paint-order: stroke;
            stroke: #000000;
            stroke-width: 4px;
            stroke-linecap: butt;
            stroke-linejoin: miter;
            font-weight: 800;
        }
    </style>

    <path d="M 444 562 Q 574 584 711 605 Q 807 623 821 634 Q 831 643 827 654 Q 820 669 785 679 Q 751 688 713 676 Q 568 633 465 615 L 409 606 Q 310 594 203 587 Q 158 583 189 560 Q 234 530 337 547 Q 361 551 389 554 L 444 562 Z" class="stroke1"/>
    <path d="M 560 320 Q 645 332 704 335 Q 752 338 754 351 Q 755 367 721 388 Q 691 406 560 374 L 505 363 Q 445 354 375 343 Q 354 340 353 345 L 444 562 L 465 615 Q 520 747 544 764 Q 566 782 553 795 Q 492 849 462 850 Q 450 849 457 824 Q 470 775 409 606 L 389 554 Q 334 403 275 353 Q 248 331 267 278 Q 274 259 293 267 Q 369 294 506 313 L 560 320 Z" class="stroke2"/>
    <path d="M 560 374 Q 561 408 572 433 Q 582 452 564 466 Q 537 488 506 499 Q 487 506 478 498 Q 472 491 483 475 Q 504 439 505 363 L 506 313 Q 507 88 489 74 Q 480 67 467 71 Q 422 84 379 99 Q 366 102 367 94 Q 368 87 378 78 Q 463 5 494 -39 Q 509 -57 525 -43 Q 565 -1 564 67 Q 561 103 560 320 L 560 374 Z" class="stroke3"/>
    <path d="M 300 217 Q 258 157 206 106 Q 176 78 187 36 Q 191 15 216 23 Q 244 36 266 65 Q 300 108 313 149 Q 326 183 325 211 Q 322 221 316 224 Q 306 224 300 217 Z" class="stroke4"/>
    <path d="M 667 213 Q 728 156 803 73 Q 822 51 839 45 Q 849 44 857 55 Q 872 70 857 119 Q 848 180 668 249 Q 658 255 656 240 Q 655 225 667 213 Z" class="stroke5"/>
    
    
    
    
    </g>
</svg>