<svg version="1.1" viewBox="0 0 1024 1024" xmlns="http://www.w3.org/2000/svg">
  
  <g transform="scale(1, -1) translate(0, -900)">
    <style type="text/css">
        .stroke1 {fill: #808080;}
        .stroke2 {fill: #808079;}
        .stroke3 {fill: #808078;}
        .stroke4 {fill: #808077;}
        .stroke5 {fill: #808076;}
        .stroke6 {fill: #808075;}
        .stroke7 {fill: #808074;}
        .stroke8 {fill: #808073;}
        .stroke9 {fill: #808072;}
        .stroke10 {fill: #808071;}
        .stroke11 {fill: #808070;}
        .stroke12 {fill: #808069;}
        .stroke13 {fill: #808068;}
        .stroke14 {fill: #808067;}
        .stroke15 {fill: #808066;}
        .stroke16 {fill: #808065;}
        .stroke17 {fill: #808064;}
        .stroke18 {fill: #808063;}
        .stroke19 {fill: #808062;}
        .stroke20 {fill: #808061;}
        text {
            font-family: Helvetica;
            font-size: 50px;
            fill: #808060;
            paint-order: stroke;
            stroke: #000000;
            stroke-width: 4px;
            stroke-linecap: butt;
            stroke-linejoin: miter;
            font-weight: 800;
        }
    </style>

    <path d="M 288 717 Q 288 711 298 700 Q 335 655 355 628 Q 364 616 373 613 Q 389 608 398 623 Q 406 636 400 666 Q 400 669 398 672 Q 388 695 341 718 Q 304 737 293 733 Q 288 730 288 717 Z" class="stroke1"/>
    <path d="M 439 780 Q 440 775 443 770 L 497 688 Q 502 680 506 676 Q 522 664 535 679 Q 542 692 541 717 L 541 719 Q 536 743 492 772 Q 457 795 445 794 Q 442 791 439 780 Z" class="stroke2"/>
    <path d="M 671 772 Q 643 723 588 653 Q 582 645 589 637 Q 596 636 606 641 Q 702 723 752 755 Q 762 759 765 765 Q 770 778 737 809 Q 714 827 690 828 Q 674 827 676 805 Q 680 790 671 772 Z" class="stroke3"/>
    
    
    </g>
</svg>