<svg version="1.1" viewBox="0 0 1024 1024" xmlns="http://www.w3.org/2000/svg">
  
  <g transform="scale(1, -1) translate(0, -900)">
    <style type="text/css">
        .stroke1 {fill: #808080;}
        .stroke2 {fill: #808079;}
        .stroke3 {fill: #808078;}
        .stroke4 {fill: #808077;}
        .stroke5 {fill: #808076;}
        .stroke6 {fill: #808075;}
        .stroke7 {fill: #808074;}
        .stroke8 {fill: #808073;}
        .stroke9 {fill: #808072;}
        .stroke10 {fill: #808071;}
        .stroke11 {fill: #808070;}
        .stroke12 {fill: #808069;}
        .stroke13 {fill: #808068;}
        .stroke14 {fill: #808067;}
        .stroke15 {fill: #808066;}
        .stroke16 {fill: #808065;}
        .stroke17 {fill: #808064;}
        .stroke18 {fill: #808063;}
        .stroke19 {fill: #808062;}
        .stroke20 {fill: #808061;}
        text {
            font-family: Helvetica;
            font-size: 50px;
            fill: #808060;
            paint-order: stroke;
            stroke: #000000;
            stroke-width: 4px;
            stroke-linecap: butt;
            stroke-linejoin: miter;
            font-weight: 800;
        }
    </style>

    <path d="M 531 651 Q 736 675 868 663 Q 893 662 899 670 Q 906 683 894 696 Q 863 724 817 744 Q 801 750 775 740 Q 712 725 483 694 Q 185 660 168 657 Q 162 658 156 657 Q 141 657 141 645 Q 140 632 160 618 Q 178 605 211 594 Q 221 590 240 599 Q 348 629 470 644 L 531 651 Z" class="stroke1"/>
    <path d="M 435 100 Q 407 107 373 116 Q 360 120 361 112 Q 361 103 373 94 Q 445 39 491 -5 Q 503 -15 518 2 Q 560 60 553 141 Q 541 447 548 561 Q 548 579 550 596 Q 556 624 549 635 Q 545 642 531 651 C 509 671 457 671 470 644 Q 485 629 485 573 Q 488 443 488 148 Q 487 112 477 99 Q 464 92 435 100 Z" class="stroke2"/>
    
    </g>
</svg>