<svg version="1.1" viewBox="0 0 1024 1024" xmlns="http://www.w3.org/2000/svg">
  
  <g transform="scale(1, -1) translate(0, -900)">
    <style type="text/css">
        .stroke1 {fill: #808080;}
        .stroke2 {fill: #808079;}
        .stroke3 {fill: #808078;}
        .stroke4 {fill: #808077;}
        .stroke5 {fill: #808076;}
        .stroke6 {fill: #808075;}
        .stroke7 {fill: #808074;}
        .stroke8 {fill: #808073;}
        .stroke9 {fill: #808072;}
        .stroke10 {fill: #808071;}
        .stroke11 {fill: #808070;}
        .stroke12 {fill: #808069;}
        .stroke13 {fill: #808068;}
        .stroke14 {fill: #808067;}
        .stroke15 {fill: #808066;}
        .stroke16 {fill: #808065;}
        .stroke17 {fill: #808064;}
        .stroke18 {fill: #808063;}
        .stroke19 {fill: #808062;}
        .stroke20 {fill: #808061;}
        text {
            font-family: Helvetica;
            font-size: 50px;
            fill: #808060;
            paint-order: stroke;
            stroke: #000000;
            stroke-width: 4px;
            stroke-linecap: butt;
            stroke-linejoin: miter;
            font-weight: 800;
        }
    </style>

    <path d="M 520 133 Q 523 296 525 442 L 525 479 Q 525 654 543 722 Q 556 746 540 761 Q 498 792 465 802 Q 449 805 432 791 Q 425 782 432 770 Q 462 727 462 629 Q 462 394 466 128 C 466 98 519 103 520 133 Z" class="stroke1"/>
    <path d="M 525 442 Q 573 436 682 459 Q 769 477 776 484 Q 786 493 780 503 Q 771 516 738 523 Q 704 529 670 514 Q 637 502 601 493 Q 564 484 525 479 C 495 475 495 445 525 442 Z" class="stroke2"/>
    <path d="M 528 82 Q 582 83 633 88 Q 781 100 911 81 Q 938 78 945 88 Q 954 103 940 116 Q 907 147 859 171 Q 843 178 813 169 Q 707 150 520 133 L 466 128 Q 363 121 309 114 Q 239 104 137 106 Q 121 106 120 93 Q 119 80 139 63 Q 184 30 234 41 Q 289 56 416 71 Q 468 78 528 82 Z" class="stroke3"/>
    
    
    </g>
</svg>