<svg version="1.1" viewBox="0 0 1024 1024" xmlns="http://www.w3.org/2000/svg">
  
  <g transform="scale(1, -1) translate(0, -900)">
    <style type="text/css">
        .stroke1 {fill: #808080;}
        .stroke2 {fill: #808079;}
        .stroke3 {fill: #808078;}
        .stroke4 {fill: #808077;}
        .stroke5 {fill: #808076;}
        .stroke6 {fill: #808075;}
        .stroke7 {fill: #808074;}
        .stroke8 {fill: #808073;}
        .stroke9 {fill: #808072;}
        .stroke10 {fill: #808071;}
        .stroke11 {fill: #808070;}
        .stroke12 {fill: #808069;}
        .stroke13 {fill: #808068;}
        .stroke14 {fill: #808067;}
        .stroke15 {fill: #808066;}
        .stroke16 {fill: #808065;}
        .stroke17 {fill: #808064;}
        .stroke18 {fill: #808063;}
        .stroke19 {fill: #808062;}
        .stroke20 {fill: #808061;}
        text {
            font-family: Helvetica;
            font-size: 50px;
            fill: #808060;
            paint-order: stroke;
            stroke: #000000;
            stroke-width: 4px;
            stroke-linecap: butt;
            stroke-linejoin: miter;
            font-weight: 800;
        }
    </style>

    <path d="M 515 667 Q 609 679 864 678 Q 886 678 891 688 Q 898 701 879 716 Q 813 765 752 745 Q 556 709 166 664 Q 142 663 160 643 Q 193 610 237 620 Q 343 648 465 662 Q 466 663 468 662 L 515 667 Z" class="stroke1"/>
    <path d="M 480 484 Q 525 466 640 466 Q 664 469 673 456 Q 683 437 668 400 Q 634 252 605 192 Q 583 143 564 130 Q 540 105 502 124 Q 469 134 427 152 Q 409 156 411 149 Q 412 139 431 125 Q 476 79 500 44 Q 512 20 530 20 Q 546 19 576 36 Q 613 64 640 120 Q 671 184 721 356 Q 734 398 756 420 Q 775 433 774 448 Q 773 464 704 511 Q 682 526 660 515 Q 579 500 494 515 C 464 519 451 493 480 484 Z" class="stroke2"/>
    <path d="M 494 515 Q 530 587 537 596 Q 550 608 548 624 Q 538 646 515 667 C 494 689 467 692 468 662 Q 474 632 450 571 Q 446 564 443 554 Q 374 386 301 295 Q 229 207 120 121 Q 113 117 108 110 Q 102 100 114 99 Q 132 95 183 129 Q 349 219 480 484 L 494 515 Z" class="stroke3"/>
    
    
    </g>
</svg>