<svg version="1.1" viewBox="0 0 1024 1024" xmlns="http://www.w3.org/2000/svg">
  
  <g transform="scale(1, -1) translate(0, -900)">
    <style type="text/css">
        .stroke1 {fill: #808080;}
        .stroke2 {fill: #808079;}
        .stroke3 {fill: #808078;}
        .stroke4 {fill: #808077;}
        .stroke5 {fill: #808076;}
        .stroke6 {fill: #808075;}
        .stroke7 {fill: #808074;}
        .stroke8 {fill: #808073;}
        .stroke9 {fill: #808072;}
        .stroke10 {fill: #808071;}
        .stroke11 {fill: #808070;}
        .stroke12 {fill: #808069;}
        .stroke13 {fill: #808068;}
        .stroke14 {fill: #808067;}
        .stroke15 {fill: #808066;}
        .stroke16 {fill: #808065;}
        .stroke17 {fill: #808064;}
        .stroke18 {fill: #808063;}
        .stroke19 {fill: #808062;}
        .stroke20 {fill: #808061;}
        text {
            font-family: Helvetica;
            font-size: 50px;
            fill: #808060;
            paint-order: stroke;
            stroke: #000000;
            stroke-width: 4px;
            stroke-linecap: butt;
            stroke-linejoin: miter;
            font-weight: 800;
        }
    </style>

    <path d="M 244 729 Q 295 678 355 604 Q 370 583 385 579 Q 392 578 401 586 Q 414 599 404 643 Q 391 703 246 759 Q 237 765 235 753 Q 234 740 244 729 Z" class="stroke1"/>
    <path d="M 536 529 Q 608 583 651 621 Q 744 708 783 726 Q 810 739 795 760 Q 779 781 746 798 Q 715 814 700 810 Q 684 807 690 791 Q 699 740 597 637 Q 557 594 514 544 C 494 521 512 511 536 529 Z" class="stroke2"/>
    <path d="M 456 92 Q 447 49 472 -7 Q 479 -23 486 -27 Q 493 -34 500 -26 Q 527 -4 525 54 Q 524 87 527 390 Q 527 453 539 495 Q 546 510 544 523 Q 543 526 536 529 L 514 544 Q 502 554 483 565 Q 459 581 439 566 Q 435 560 441 546 Q 462 516 467 431 Q 467 152 466 143 Q 462 119 456 92 Z" class="stroke3"/>
    
    
    </g>
</svg>