<svg version="1.1" viewBox="0 0 1024 1024" xmlns="http://www.w3.org/2000/svg">
  
  <g transform="scale(1, -1) translate(0, -900)">
    <style type="text/css">
        .stroke1 {fill: #808080;}
        .stroke2 {fill: #808079;}
        .stroke3 {fill: #808078;}
        .stroke4 {fill: #808077;}
        .stroke5 {fill: #808076;}
        .stroke6 {fill: #808075;}
        .stroke7 {fill: #808074;}
        .stroke8 {fill: #808073;}
        .stroke9 {fill: #808072;}
        .stroke10 {fill: #808071;}
        .stroke11 {fill: #808070;}
        .stroke12 {fill: #808069;}
        .stroke13 {fill: #808068;}
        .stroke14 {fill: #808067;}
        .stroke15 {fill: #808066;}
        .stroke16 {fill: #808065;}
        .stroke17 {fill: #808064;}
        .stroke18 {fill: #808063;}
        .stroke19 {fill: #808062;}
        .stroke20 {fill: #808061;}
        text {
            font-family: Helvetica;
            font-size: 50px;
            fill: #808060;
            paint-order: stroke;
            stroke: #000000;
            stroke-width: 4px;
            stroke-linecap: butt;
            stroke-linejoin: miter;
            font-weight: 800;
        }
    </style>

    <path d="M 373 605 Q 400 574 427 536 Q 440 520 457 517 Q 469 516 477 529 Q 484 545 480 578 Q 476 614 376 658 Q 360 665 352 663 Q 346 660 346 646 Q 347 633 373 605 Z" class="stroke1"/>
    <path d="M 547 446 Q 346 272 292 251 Q 279 244 282 233 Q 286 218 299 214 Q 330 207 371 202 Q 384 203 392 218 Q 414 258 443 290 Q 489 339 533 390 Q 540 399 547 407 C 566 430 570 466 547 446 Z" class="stroke2"/>
    <path d="M 595 64 Q 594 113 599 562 Q 599 655 616 717 Q 626 733 622 747 Q 615 757 557 793 Q 532 811 511 794 Q 505 788 512 773 Q 543 727 545 679 Q 546 610 549 532 Q 548 490 547 446 L 547 407 Q 544 206 533 151 Q 509 66 532 15 Q 533 8 538 -1 Q 545 -20 553 -23 Q 560 -30 568 -21 Q 575 -17 586 5 Q 596 30 595 64 Z" class="stroke3"/>
    
    
    </g>
</svg>