<svg version="1.1" viewBox="0 0 1024 1024" xmlns="http://www.w3.org/2000/svg">
  
  <g transform="scale(1, -1) translate(0, -900)">
    <style type="text/css">
        .stroke1 {fill: #808080;}
        .stroke2 {fill: #808079;}
        .stroke3 {fill: #808078;}
        .stroke4 {fill: #808077;}
        .stroke5 {fill: #808076;}
        .stroke6 {fill: #808075;}
        .stroke7 {fill: #808074;}
        .stroke8 {fill: #808073;}
        .stroke9 {fill: #808072;}
        .stroke10 {fill: #808071;}
        .stroke11 {fill: #808070;}
        .stroke12 {fill: #808069;}
        .stroke13 {fill: #808068;}
        .stroke14 {fill: #808067;}
        .stroke15 {fill: #808066;}
        .stroke16 {fill: #808065;}
        .stroke17 {fill: #808064;}
        .stroke18 {fill: #808063;}
        .stroke19 {fill: #808062;}
        .stroke20 {fill: #808061;}
        text {
            font-family: Helvetica;
            font-size: 50px;
            fill: #808060;
            paint-order: stroke;
            stroke: #000000;
            stroke-width: 4px;
            stroke-linecap: butt;
            stroke-linejoin: miter;
            font-weight: 800;
        }
    </style>

    <path d="M 731 459 Q 755 460 762 450 Q 772 441 768 415 Q 761 234 664 105 Q 658 101 654 96 Q 638 87 582 111 Q 533 132 532 127 Q 531 120 539 110 Q 585 56 600 28 Q 613 -2 625 -6 Q 637 -13 659 2 Q 717 36 748 97 Q 776 152 827 377 Q 831 401 857 419 Q 872 432 862 443 Q 846 465 802 491 Q 790 500 772 493 Q 723 492 676 490 Q 658 489 650 496 Q 640 505 650 519 Q 701 607 741 664 Q 763 689 786 698 Q 801 705 800 715 Q 797 734 725 770 Q 707 780 682 769 Q 639 753 602 743 Q 496 724 333 689 Q 284 679 223 676 Q 210 676 203 666 Q 200 663 208 654 Q 218 639 239 631 Q 255 624 283 632 Q 347 651 422 669 L 461 678 Q 668 724 689 710 Q 696 706 689 691 Q 619 535 575 495 Q 562 485 569 469 Q 579 445 594 440 Q 607 436 621 445 Q 654 463 731 459 Z" class="stroke1"/>
    <path d="M 422 669 Q 425 639 415 600 Q 348 441 316 378 Q 232 252 95 132 Q 88 128 84 122 Q 78 112 89 111 Q 123 110 235 198 Q 253 216 273 236 Q 372 345 446 513 Q 470 571 490 603 Q 503 615 500 630 Q 490 652 463 676 Q 462 677 461 678 C 439 699 421 699 422 669 Z" class="stroke2"/>
    
    </g>
</svg>