<svg version="1.1" viewBox="0 0 1024 1024" xmlns="http://www.w3.org/2000/svg">
  
  <g transform="scale(1, -1) translate(0, -900)">
    <style type="text/css">
        .stroke1 {fill: #808080;}
        .stroke2 {fill: #808079;}
        .stroke3 {fill: #808078;}
        .stroke4 {fill: #808077;}
        .stroke5 {fill: #808076;}
        .stroke6 {fill: #808075;}
        .stroke7 {fill: #808074;}
        .stroke8 {fill: #808073;}
        .stroke9 {fill: #808072;}
        .stroke10 {fill: #808071;}
        .stroke11 {fill: #808070;}
        .stroke12 {fill: #808069;}
        .stroke13 {fill: #808068;}
        .stroke14 {fill: #808067;}
        .stroke15 {fill: #808066;}
        .stroke16 {fill: #808065;}
        .stroke17 {fill: #808064;}
        .stroke18 {fill: #808063;}
        .stroke19 {fill: #808062;}
        .stroke20 {fill: #808061;}
        text {
            font-family: Helvetica;
            font-size: 50px;
            fill: #808060;
            paint-order: stroke;
            stroke: #000000;
            stroke-width: 4px;
            stroke-linecap: butt;
            stroke-linejoin: miter;
            font-weight: 800;
        }
    </style>

    <path d="M 412 631 Q 487 662 544 695 Q 593 717 635 728 Q 654 729 658 739 Q 661 751 647 763 Q 623 779 574 796 Q 556 803 542 801 Q 533 797 534 784 Q 534 745 338 635 Q 287 607 224 577 Q 220 567 226 564 Q 247 564 372 615 L 412 631 Z" class="stroke1"/>
    <path d="M 459 399 Q 460 400 465 400 Q 679 433 786 433 Q 849 433 854 440 Q 861 455 847 466 Q 814 493 768 510 Q 752 514 726 505 Q 662 486 597 472 Q 513 459 463 448 L 409 438 Q 310 422 258 411 Q 194 396 98 389 Q 83 388 83 376 Q 83 363 104 349 Q 122 339 155 328 Q 167 324 185 334 Q 200 341 268 356 Q 331 375 409 390 L 459 399 Z" class="stroke2"/>
    <path d="M 938 87 Q 911 144 892 245 Q 888 261 881 268 Q 872 275 869 258 Q 862 200 851 153 Q 847 122 822 102 Q 782 63 598 65 Q 528 72 501 86 Q 479 101 465 129 Q 447 171 459 399 L 463 448 Q 467 524 478 560 Q 487 582 456 605 Q 432 621 412 631 C 386 646 359 642 372 615 Q 403 552 405 547 Q 408 511 409 438 L 409 390 Q 402 140 420 102 Q 427 84 442 68 Q 503 -1 734 8 Q 837 12 915 46 Q 952 59 938 87 Z" class="stroke3"/>
    
    
    </g>
</svg>