<svg version="1.1" viewBox="0 0 1024 1024" xmlns="http://www.w3.org/2000/svg">
  
  <g transform="scale(1, -1) translate(0, -900)">
    <style type="text/css">
        .stroke1 {fill: #808080;}
        .stroke2 {fill: #808079;}
        .stroke3 {fill: #808078;}
        .stroke4 {fill: #808077;}
        .stroke5 {fill: #808076;}
        .stroke6 {fill: #808075;}
        .stroke7 {fill: #808074;}
        .stroke8 {fill: #808073;}
        .stroke9 {fill: #808072;}
        .stroke10 {fill: #808071;}
        .stroke11 {fill: #808070;}
        .stroke12 {fill: #808069;}
        .stroke13 {fill: #808068;}
        .stroke14 {fill: #808067;}
        .stroke15 {fill: #808066;}
        .stroke16 {fill: #808065;}
        .stroke17 {fill: #808064;}
        .stroke18 {fill: #808063;}
        .stroke19 {fill: #808062;}
        .stroke20 {fill: #808061;}
        text {
            font-family: Helvetica;
            font-size: 50px;
            fill: #808060;
            paint-order: stroke;
            stroke: #000000;
            stroke-width: 4px;
            stroke-linecap: butt;
            stroke-linejoin: miter;
            font-weight: 800;
        }
    </style>

    <path d="M 407 578 Q 443 633 489 712 Q 498 728 505 735 Q 512 741 510 753 Q 507 763 493 776 Q 451 807 418 799 Q 408 796 412 782 Q 431 688 299 515 Q 296 514 294 509 Q 255 460 157 361 Q 147 355 160 353 Q 224 365 342 491 Q 357 510 375 531 Q 385 544 397 562 L 407 578 Z" class="stroke1"/>
    <path d="M 539 331 Q 585 406 631 503 Q 650 537 679 558 Q 697 568 697 579 Q 696 594 662 612 Q 619 637 603 638 Q 590 637 577 627 Q 507 596 439 581 Q 418 581 407 578 C 377 575 371 575 397 562 Q 442 528 518 564 Q 554 582 568 572 Q 577 566 555 503 Q 533 430 485 356 Q 418 244 320 159 Q 235 86 127 31 Q 117 25 118 20 Q 119 14 128 15 Q 261 21 424 183 Q 467 231 523 306 L 539 331 Z" class="stroke2"/>
    <path d="M 523 306 Q 628 137 741 18 Q 766 -12 792 -11 Q 864 -1 925 7 Q 952 10 951 17 Q 952 24 922 39 Q 763 105 722 143 Q 610 245 539 331 C 520 354 507 331 523 306 Z" class="stroke3"/>
    
    
    </g>
</svg>