<svg version="1.1" viewBox="0 0 1024 1024" xmlns="http://www.w3.org/2000/svg">
  
  <g transform="scale(1, -1) translate(0, -900)">
    <style type="text/css">
        .stroke1 {fill: #808080;}
        .stroke2 {fill: #808079;}
        .stroke3 {fill: #808078;}
        .stroke4 {fill: #808077;}
        .stroke5 {fill: #808076;}
        .stroke6 {fill: #808075;}
        .stroke7 {fill: #808074;}
        .stroke8 {fill: #808073;}
        .stroke9 {fill: #808072;}
        .stroke10 {fill: #808071;}
        .stroke11 {fill: #808070;}
        .stroke12 {fill: #808069;}
        .stroke13 {fill: #808068;}
        .stroke14 {fill: #808067;}
        .stroke15 {fill: #808066;}
        .stroke16 {fill: #808065;}
        .stroke17 {fill: #808064;}
        .stroke18 {fill: #808063;}
        .stroke19 {fill: #808062;}
        .stroke20 {fill: #808061;}
        text {
            font-family: Helvetica;
            font-size: 50px;
            fill: #808060;
            paint-order: stroke;
            stroke: #000000;
            stroke-width: 4px;
            stroke-linecap: butt;
            stroke-linejoin: miter;
            font-weight: 800;
        }
    </style>

    <path d="M 411 737 Q 527 772 560 774 Q 580 776 583 782 Q 589 794 576 806 Q 560 823 511 849 L 501 854 Q 475 869 470 842 Q 463 796 201 707 Q 194 698 201 694 Q 209 691 260 701 Q 331 713 354 721 L 411 737 Z" class="stroke1"/>
    <path d="M 441 467 Q 443 576 443 582 L 449 647 L 457 692 Q 459 706 444 716 Q 424 730 411 737 C 385 753 341 748 354 721 Q 384 661 384 643 Q 386 492 377 192 Q 370 -39 393 -69 Q 399 -77 407 -74 Q 417 -71 425 -37 Q 444 44 440 192 Q 438 282 440 443 L 441 467 Z" class="stroke2"/>
    <path d="M 252 561 Q 259 541 251 527 Q 213 447 119 345 Q 109 337 106 331 Q 102 322 112 323 Q 113 323 115 323 Q 157 323 277 458 Q 290 478 313 498 Q 326 510 326 517 Q 327 521 326 526 Q 325 537 305 557 Q 282 577 263 580 Q 247 580 252 561 Z" class="stroke3"/>
    <path d="M 252 335 Q 259 316 251 302 Q 213 221 119 120 Q 109 112 106 106 Q 102 97 112 98 Q 113 98 115 98 Q 157 98 277 232 Q 290 253 313 272 Q 326 284 326 292 Q 327 296 326 301 Q 325 312 305 331 Q 282 352 263 355 Q 247 355 252 335 Z" class="stroke4"/>
    <path d="M 466 457 Q 492 466 582 514 Q 694 570 732 578 Q 759 584 750 607 Q 743 625 718 647 Q 691 670 675 670 Q 662 670 662 656 Q 663 623 548 539 L 441 467 C 413 448 428 442 466 457 Z" class="stroke5"/>
    <path d="M 440 443 L 491 379 Q 689 133 730 139 Q 886 164 913 165 Q 917 165 919 167 Q 937 182 875 194 Q 765 216 652 279 Q 645 284 599 329 Q 497 429 466 457 C 444 477 421 466 440 443 Z" class="stroke6"/>
    
    
    
    
    
    </g>
</svg>