<svg version="1.1" viewBox="0 0 1024 1024" xmlns="http://www.w3.org/2000/svg">
  
  <g transform="scale(1, -1) translate(0, -900)">
    <style type="text/css">
        .stroke1 {fill: #808080;}
        .stroke2 {fill: #808079;}
        .stroke3 {fill: #808078;}
        .stroke4 {fill: #808077;}
        .stroke5 {fill: #808076;}
        .stroke6 {fill: #808075;}
        .stroke7 {fill: #808074;}
        .stroke8 {fill: #808073;}
        .stroke9 {fill: #808072;}
        .stroke10 {fill: #808071;}
        .stroke11 {fill: #808070;}
        .stroke12 {fill: #808069;}
        .stroke13 {fill: #808068;}
        .stroke14 {fill: #808067;}
        .stroke15 {fill: #808066;}
        .stroke16 {fill: #808065;}
        .stroke17 {fill: #808064;}
        .stroke18 {fill: #808063;}
        .stroke19 {fill: #808062;}
        .stroke20 {fill: #808061;}
        text {
            font-family: Helvetica;
            font-size: 50px;
            fill: #808060;
            paint-order: stroke;
            stroke: #000000;
            stroke-width: 4px;
            stroke-linecap: butt;
            stroke-linejoin: miter;
            font-weight: 800;
        }
    </style>

    <path d="M 446 766 Q 480 739 515 706 Q 530 693 547 693 Q 559 694 564 708 Q 570 724 559 757 Q 547 796 440 819 Q 424 823 416 819 Q 410 815 412 801 Q 416 788 446 766 Z" class="stroke1"/>
    <path d="M 311 281 Q 464 372 633 513 Q 666 541 738 570 Q 763 579 749 597 Q 737 619 682 648 Q 667 655 651 644 Q 581 596 300 559 Q 251 555 229 556 Q 213 557 209 542 Q 208 529 240 504 Q 268 482 297 497 Q 346 524 576 567 Q 592 570 596 564 Q 600 560 588 548 Q 407 388 258 283 C 234 266 285 265 311 281 Z" class="stroke2"/>
    <path d="M 258 283 Q 219 282 175 262 Q 139 255 93 259 Q 72 262 72 248 Q 73 233 102 214 Q 123 198 154 208 Q 257 266 364 225 Q 436 206 632 74 Q 647 65 654 58 Q 711 19 750 18 Q 756 19 762 19 Q 942 61 953 88 Q 954 97 930 97 Q 780 103 694 130 Q 516 202 477 221 Q 353 281 311 281 L 258 283 Z" class="stroke3"/>
    
    
    </g>
</svg>