<svg version="1.1" viewBox="0 0 1024 1024" xmlns="http://www.w3.org/2000/svg">
  
  <g transform="scale(1, -1) translate(0, -900)">
    <style type="text/css">
        .stroke1 {fill: #808080;}
        .stroke2 {fill: #808079;}
        .stroke3 {fill: #808078;}
        .stroke4 {fill: #808077;}
        .stroke5 {fill: #808076;}
        .stroke6 {fill: #808075;}
        .stroke7 {fill: #808074;}
        .stroke8 {fill: #808073;}
        .stroke9 {fill: #808072;}
        .stroke10 {fill: #808071;}
        .stroke11 {fill: #808070;}
        .stroke12 {fill: #808069;}
        .stroke13 {fill: #808068;}
        .stroke14 {fill: #808067;}
        .stroke15 {fill: #808066;}
        .stroke16 {fill: #808065;}
        .stroke17 {fill: #808064;}
        .stroke18 {fill: #808063;}
        .stroke19 {fill: #808062;}
        .stroke20 {fill: #808061;}
        text {
            font-family: Helvetica;
            font-size: 50px;
            fill: #808060;
            paint-order: stroke;
            stroke: #000000;
            stroke-width: 4px;
            stroke-linecap: butt;
            stroke-linejoin: miter;
            font-weight: 800;
        }
    </style>

    <path d="M 346 338 Q 352 437 357 530 L 358 561 Q 359 639 380 736 Q 384 748 363 763 Q 326 782 301 787 Q 285 791 276 782 Q 269 773 277 758 Q 302 721 303 695 Q 312 523 302 325 C 301 295 344 308 346 338 Z" class="stroke1"/>
    <path d="M 357 530 Q 396 524 505 550 Q 521 554 524 557 Q 533 564 528 573 Q 521 583 491 589 Q 466 592 400 569 Q 393 569 358 561 C 329 554 327 533 357 530 Z" class="stroke2"/>
    <path d="M 193 304 Q 181 311 148 318 Q 135 322 131 316 Q 124 310 133 293 Q 164 220 178 101 Q 179 65 199 41 Q 218 17 223 33 Q 230 52 228 88 L 224 122 Q 208 233 204 270 C 201 300 201 301 193 304 Z" class="stroke3"/>
    <path d="M 447 150 Q 477 256 511 280 Q 529 299 513 319 Q 431 376 376 349 Q 360 345 346 338 L 302 325 Q 301 326 299 325 Q 247 313 193 304 C 163 299 174 266 204 270 Q 219 271 383 303 Q 402 307 409 300 Q 425 284 396 159 C 389 130 439 121 447 150 Z" class="stroke4"/>
    <path d="M 228 88 Q 243 84 258 87 Q 321 102 458 113 Q 471 114 472 125 Q 472 132 447 150 L 396 159 Q 390 159 384 157 Q 296 133 224 122 C 194 117 199 94 228 88 Z" class="stroke5"/>
    <path d="M 971 58 Q 990 74 970 107 Q 949 165 943 240 Q 942 250 934 260 Q 924 266 921 242 Q 885 110 881 101 Q 875 88 850 83 Q 811 70 757 72 Q 717 71 691 81 Q 654 94 642 133 Q 618 217 628 460 Q 635 706 663 749 Q 670 771 652 785 Q 624 810 585 820 Q 566 824 558 814 Q 549 805 557 795 Q 581 774 582 697 Q 582 648 580 561 Q 565 120 627 63 Q 694 -4 890 24 Q 899 27 908 28 Q 951 41 971 58 Z" class="stroke6"/>
    
    
    
    
    
    </g>
</svg>