<svg version="1.1" viewBox="0 0 1024 1024" xmlns="http://www.w3.org/2000/svg">
  
  <g transform="scale(1, -1) translate(0, -900)">
    <style type="text/css">
        .stroke1 {fill: #808080;}
        .stroke2 {fill: #808079;}
        .stroke3 {fill: #808078;}
        .stroke4 {fill: #808077;}
        .stroke5 {fill: #808076;}
        .stroke6 {fill: #808075;}
        .stroke7 {fill: #808074;}
        .stroke8 {fill: #808073;}
        .stroke9 {fill: #808072;}
        .stroke10 {fill: #808071;}
        .stroke11 {fill: #808070;}
        .stroke12 {fill: #808069;}
        .stroke13 {fill: #808068;}
        .stroke14 {fill: #808067;}
        .stroke15 {fill: #808066;}
        .stroke16 {fill: #808065;}
        .stroke17 {fill: #808064;}
        .stroke18 {fill: #808063;}
        .stroke19 {fill: #808062;}
        .stroke20 {fill: #808061;}
        text {
            font-family: Helvetica;
            font-size: 50px;
            fill: #808060;
            paint-order: stroke;
            stroke: #000000;
            stroke-width: 4px;
            stroke-linecap: butt;
            stroke-linejoin: miter;
            font-weight: 800;
        }
    </style>

    <path d="M 461 735 Q 491 765 513 777 Q 525 784 524 798 Q 523 811 503 838 Q 484 860 466 865 Q 448 868 451 846 Q 458 807 363 716 Q 320 674 261 630 Q 249 623 246 618 Q 240 609 254 608 Q 297 605 443 720 L 461 735 Z" class="stroke1"/>
    <path d="M 443 720 Q 455 707 518 711 Q 590 724 596 717 Q 600 713 593 702 Q 545 617 516 577 Q 506 561 503 553 Q 502 549 503 548 C 499 533 499 533 519 550 Q 538 565 604 631 Q 650 680 695 707 Q 714 717 702 732 Q 689 745 651 769 Q 635 776 619 767 Q 607 763 514 742 Q 490 738 461 735 C 431 732 423 731 443 720 Z" class="stroke2"/>
    <path d="M 503 548 Q 407 532 309 526 Q 291 525 293 515 Q 294 506 314 500 Q 339 487 377 498 Q 420 505 466 513 L 514 521 Q 571 531 631 541 Q 664 548 676 534 Q 691 519 687 489 Q 683 465 677 441 L 667 395 Q 655 352 644 314 C 636 285 690 281 696 310 Q 706 362 717 396 L 736 450 Q 745 481 779 512 Q 797 531 781 551 Q 702 611 646 584 Q 580 565 519 550 L 503 548 Z" class="stroke3"/>
    <path d="M 480 417 Q 309 401 110 380 Q 88 379 104 359 Q 120 343 139 337 Q 163 330 180 335 Q 309 366 480 384 L 533 389 Q 593 395 667 395 L 717 396 Q 784 399 861 396 Q 895 395 927 395 Q 949 394 954 404 Q 961 417 943 432 Q 883 478 817 464 Q 778 460 736 450 L 677 441 Q 611 434 535 423 L 480 417 Z" class="stroke4"/>
    <path d="M 480 285 Q 377 270 287 263 Q 262 262 277 240 Q 284 230 296 224 Q 309 220 324 223 Q 384 236 480 245 L 530 250 Q 609 257 716 264 Q 729 265 731 275 Q 732 285 696 310 L 644 314 Q 643 315 640 314 Q 583 304 531 293 L 480 285 Z" class="stroke5"/>
    <path d="M 466 513 Q 479 486 480 417 L 480 384 Q 480 342 480 285 L 480 245 Q 479 173 479 81 Q 478 50 469 38 Q 459 32 432 40 Q 396 53 352 68 Q 340 71 341 64 Q 342 57 351 48 Q 430 -10 480 -56 Q 490 -65 504 -49 Q 537 -1 537 92 Q 531 224 530 250 L 531 293 Q 531 342 533 389 L 535 423 Q 535 445 538 466 Q 544 491 538 501 Q 532 510 514 521 C 490 539 457 541 466 513 Z" class="stroke6"/>
    
    
    
    
    
    </g>
</svg>