<svg version="1.1" viewBox="0 0 1024 1024" xmlns="http://www.w3.org/2000/svg">
  
  <g transform="scale(1, -1) translate(0, -900)">
    <style type="text/css">
        .stroke1 {fill: #808080;}
        .stroke2 {fill: #808079;}
        .stroke3 {fill: #808078;}
        .stroke4 {fill: #808077;}
        .stroke5 {fill: #808076;}
        .stroke6 {fill: #808075;}
        .stroke7 {fill: #808074;}
        .stroke8 {fill: #808073;}
        .stroke9 {fill: #808072;}
        .stroke10 {fill: #808071;}
        .stroke11 {fill: #808070;}
        .stroke12 {fill: #808069;}
        .stroke13 {fill: #808068;}
        .stroke14 {fill: #808067;}
        .stroke15 {fill: #808066;}
        .stroke16 {fill: #808065;}
        .stroke17 {fill: #808064;}
        .stroke18 {fill: #808063;}
        .stroke19 {fill: #808062;}
        .stroke20 {fill: #808061;}
        text {
            font-family: Helvetica;
            font-size: 50px;
            fill: #808060;
            paint-order: stroke;
            stroke: #000000;
            stroke-width: 4px;
            stroke-linecap: butt;
            stroke-linejoin: miter;
            font-weight: 800;
        }
    </style>

    <path d="M 627 743 Q 756 761 772 772 Q 782 781 779 790 Q 772 805 739 815 Q 706 824 608 796 Q 442 762 310 757 Q 268 753 297 732 Q 327 710 373 709 L 421 713 Q 497 725 576 735 L 627 743 Z" class="stroke1"/>
    <path d="M 373 709 Q 382 688 386 620 Q 386 583 388 518 C 389 488 436 485 438 515 Q 447 642 452 655 Q 464 682 421 713 C 397 731 363 737 373 709 Z" class="stroke2"/>
    <path d="M 388 518 Q 385 519 382 517 Q 303 489 238 471 C 209 463 235 431 263 441 Q 323 462 451 485 Q 461 486 462 496 Q 462 503 438 515 L 388 518 Z" class="stroke3"/>
    <path d="M 238 471 Q 228 478 212 482 Q 196 488 182 477 Q 175 471 189 456 Q 214 425 218 366 Q 225 305 210 283 Q 204 267 217 250 Q 233 231 245 239 Q 270 263 343 284 Q 365 291 373 284 Q 389 268 378 82 C 376 52 435 55 435 85 Q 432 250 453 282 Q 466 294 457 305 Q 444 321 397 336 Q 385 342 364 328 Q 330 313 280 300 Q 267 296 264 313 Q 264 334 263 441 C 263 459 263 459 238 471 Z" class="stroke4"/>
    <path d="M 786 360 Q 805 432 849 475 Q 874 497 858 513 Q 831 538 783 555 Q 761 565 742 557 Q 714 547 651 531 Q 632 525 631 547 Q 644 670 654 694 Q 663 718 646 729 Q 636 736 627 743 C 603 761 569 764 576 735 Q 589 692 584 594 Q 583 548 567 521 Q 557 502 581 476 Q 594 460 612 471 Q 646 498 724 511 Q 746 515 755 501 Q 765 483 742 400 Q 735 378 729 354 C 721 325 777 331 786 360 Z" class="stroke5"/>
    <path d="M 632 293 Q 690 309 809 321 Q 819 322 820 331 Q 821 340 789 359 Q 788 360 786 360 L 729 354 Q 657 335 599 324 C 570 318 603 285 632 293 Z" class="stroke6"/>
    <path d="M 617 100 Q 626 253 631 269 Q 637 284 632 293 L 599 324 Q 592 330 584 333 Q 572 337 563 333 Q 554 329 557 319 Q 566 300 570 227 Q 570 182 570 96 C 570 66 615 70 617 100 Z" class="stroke7"/>
    <path d="M 378 82 Q 248 75 104 65 Q 79 64 97 43 Q 113 25 133 18 Q 158 11 177 14 Q 477 75 897 46 Q 909 46 923 44 Q 947 43 953 53 Q 960 66 942 84 Q 881 135 838 126 Q 750 114 617 100 L 570 96 Q 539 95 508 91 Q 472 90 435 85 L 378 82 Z" class="stroke8"/>
    
    
    
    
    
    
    
    </g>
</svg>