<svg version="1.1" viewBox="0 0 1024 1024" xmlns="http://www.w3.org/2000/svg">
  
  <g transform="scale(1, -1) translate(0, -900)">
    <style type="text/css">
        .stroke1 {fill: #808080;}
        .stroke2 {fill: #808079;}
        .stroke3 {fill: #808078;}
        .stroke4 {fill: #808077;}
        .stroke5 {fill: #808076;}
        .stroke6 {fill: #808075;}
        .stroke7 {fill: #808074;}
        .stroke8 {fill: #808073;}
        .stroke9 {fill: #808072;}
        .stroke10 {fill: #808071;}
        .stroke11 {fill: #808070;}
        .stroke12 {fill: #808069;}
        .stroke13 {fill: #808068;}
        .stroke14 {fill: #808067;}
        .stroke15 {fill: #808066;}
        .stroke16 {fill: #808065;}
        .stroke17 {fill: #808064;}
        .stroke18 {fill: #808063;}
        .stroke19 {fill: #808062;}
        .stroke20 {fill: #808061;}
        text {
            font-family: Helvetica;
            font-size: 50px;
            fill: #808060;
            paint-order: stroke;
            stroke: #000000;
            stroke-width: 4px;
            stroke-linecap: butt;
            stroke-linejoin: miter;
            font-weight: 800;
        }
    </style>

    <path d="M 607 679 Q 608 682 747 692 Q 760 691 771 705 Q 772 718 746 732 Q 704 757 631 738 Q 462 705 275 690 Q 241 687 266 665 Q 305 632 341 641 Q 348 644 363 644 L 411 651 Q 474 663 549 672 L 607 679 Z" class="stroke1"/>
    <path d="M 363 644 Q 385 595 389 562 Q 389 282 387 105 C 387 75 431 79 431 109 Q 435 568 439 602 Q 448 627 411 651 C 387 669 351 672 363 644 Z" class="stroke2"/>
    <path d="M 609 121 Q 610 221 614 311 L 615 343 Q 619 592 624 636 Q 631 657 621 667 Q 614 674 607 679 C 584 698 538 700 549 672 Q 568 627 569 586 Q 569 433 561 118 C 560 88 609 91 609 121 Z" class="stroke3"/>
    <path d="M 212 376 Q 245 340 278 298 Q 290 283 306 281 Q 318 280 325 293 Q 332 308 327 340 Q 324 365 290 389 Q 214 435 192 431 Q 186 428 186 414 Q 187 402 212 376 Z" class="stroke4"/>
    <path d="M 614 311 Q 614 312 617 313 Q 762 415 832 452 Q 854 456 850 471 Q 843 490 822 514 Q 800 538 773 541 Q 755 542 755 518 Q 756 502 745 483 Q 700 428 615 343 C 594 322 589 294 614 311 Z" class="stroke5"/>
    <path d="M 513 68 Q 565 69 616 73 Q 742 83 889 62 Q 914 58 920 67 Q 929 80 916 94 Q 840 167 791 143 Q 725 133 662 126 Q 634 125 609 121 L 561 118 Q 515 117 485 113 Q 457 112 431 109 L 387 105 Q 336 104 303 99 Q 236 92 135 94 Q 120 95 119 83 Q 118 70 136 55 Q 181 22 213 29 Q 255 44 403 60 Q 455 66 513 68 Z" class="stroke6"/>
    
    
    
    
    
    </g>
</svg>