<svg version="1.1" viewBox="0 0 1024 1024" xmlns="http://www.w3.org/2000/svg">
  
  <g transform="scale(1, -1) translate(0, -900)">
    <style type="text/css">
        .stroke1 {fill: #808080;}
        .stroke2 {fill: #808079;}
        .stroke3 {fill: #808078;}
        .stroke4 {fill: #808077;}
        .stroke5 {fill: #808076;}
        .stroke6 {fill: #808075;}
        .stroke7 {fill: #808074;}
        .stroke8 {fill: #808073;}
        .stroke9 {fill: #808072;}
        .stroke10 {fill: #808071;}
        .stroke11 {fill: #808070;}
        .stroke12 {fill: #808069;}
        .stroke13 {fill: #808068;}
        .stroke14 {fill: #808067;}
        .stroke15 {fill: #808066;}
        .stroke16 {fill: #808065;}
        .stroke17 {fill: #808064;}
        .stroke18 {fill: #808063;}
        .stroke19 {fill: #808062;}
        .stroke20 {fill: #808061;}
        text {
            font-family: Helvetica;
            font-size: 50px;
            fill: #808060;
            paint-order: stroke;
            stroke: #000000;
            stroke-width: 4px;
            stroke-linecap: butt;
            stroke-linejoin: miter;
            font-weight: 800;
        }
    </style>

    <path d="M 461 768 Q 498 740 539 707 Q 555 694 572 696 Q 584 697 589 712 Q 593 728 581 761 Q 566 800 452 820 Q 434 823 428 819 Q 422 815 425 801 Q 429 788 461 768 Z" class="stroke1"/>
    <path d="M 609 580 Q 693 584 799 583 Q 829 582 855 583 Q 877 582 883 592 Q 889 605 871 620 Q 814 665 743 650 Q 496 610 154 572 Q 132 571 148 551 Q 164 535 183 529 Q 207 523 224 528 Q 395 573 557 577 L 609 580 Z" class="stroke2"/>
    <path d="M 378 496 Q 405 445 378 279 Q 368 236 345 183 Q 321 129 250 65 Q 234 52 230 46 Q 227 39 240 38 Q 276 35 342 95 Q 433 183 457 430 Q 463 451 465 463 Q 472 485 451 497 Q 400 525 384 523 Q 362 520 378 496 Z" class="stroke3"/>
    <path d="M 524 77 Q 496 87 461 96 Q 448 100 449 92 Q 449 83 460 74 Q 532 17 578 -29 Q 590 -39 605 -22 Q 648 39 642 117 Q 630 357 641 516 Q 648 544 641 555 Q 634 565 609 580 C 584 597 544 604 557 577 Q 558 571 565 561 Q 578 528 577 158 Q 577 92 565 76 Q 553 69 524 77 Z" class="stroke4"/>
    <path d="M 253 403 Q 217 348 173 299 Q 146 269 159 231 Q 163 212 187 220 Q 212 233 233 263 Q 261 302 269 339 Q 281 372 278 399 Q 274 409 268 411 Q 259 411 253 403 Z" class="stroke5"/>
    <path d="M 714 406 Q 771 352 838 273 Q 854 251 871 246 Q 881 245 889 255 Q 902 268 891 317 Q 875 381 716 440 Q 706 446 703 433 Q 702 417 714 406 Z" class="stroke6"/>
    
    
    
    
    
    </g>
</svg>