<svg version="1.1" viewBox="0 0 1024 1024" xmlns="http://www.w3.org/2000/svg">
  
  <g transform="scale(1, -1) translate(0, -900)">
    <style type="text/css">
        .stroke1 {fill: #808080;}
        .stroke2 {fill: #808079;}
        .stroke3 {fill: #808078;}
        .stroke4 {fill: #808077;}
        .stroke5 {fill: #808076;}
        .stroke6 {fill: #808075;}
        .stroke7 {fill: #808074;}
        .stroke8 {fill: #808073;}
        .stroke9 {fill: #808072;}
        .stroke10 {fill: #808071;}
        .stroke11 {fill: #808070;}
        .stroke12 {fill: #808069;}
        .stroke13 {fill: #808068;}
        .stroke14 {fill: #808067;}
        .stroke15 {fill: #808066;}
        .stroke16 {fill: #808065;}
        .stroke17 {fill: #808064;}
        .stroke18 {fill: #808063;}
        .stroke19 {fill: #808062;}
        .stroke20 {fill: #808061;}
        text {
            font-family: Helvetica;
            font-size: 50px;
            fill: #808060;
            paint-order: stroke;
            stroke: #000000;
            stroke-width: 4px;
            stroke-linecap: butt;
            stroke-linejoin: miter;
            font-weight: 800;
        }
    </style>

    <path d="M 475 485 Q 547 653 563 683 Q 573 695 565 708 Q 558 721 519 742 Q 491 757 480 754 Q 462 750 465 730 Q 484 537 292 308 Q 280 296 269 284 Q 212 217 68 102 Q 58 92 66 89 Q 76 86 90 92 Q 190 138 274 210 Q 380 294 462 456 L 475 485 Z" class="stroke1"/>
    <path d="M 462 456 Q 480 423 575 292 Q 666 171 733 101 Q 764 67 793 69 Q 881 75 958 79 Q 991 80 992 89 Q 993 98 956 112 Q 772 178 740 205 Q 617 304 490 466 Q 481 476 475 485 C 457 509 447 482 462 456 Z" class="stroke2"/>
    
    </g>
</svg>