<svg version="1.1" viewBox="0 0 1024 1024" xmlns="http://www.w3.org/2000/svg">
  
  <g transform="scale(1, -1) translate(0, -900)">
    <style type="text/css">
        .stroke1 {fill: #808080;}
        .stroke2 {fill: #808079;}
        .stroke3 {fill: #808078;}
        .stroke4 {fill: #808077;}
        .stroke5 {fill: #808076;}
        .stroke6 {fill: #808075;}
        .stroke7 {fill: #808074;}
        .stroke8 {fill: #808073;}
        .stroke9 {fill: #808072;}
        .stroke10 {fill: #808071;}
        .stroke11 {fill: #808070;}
        .stroke12 {fill: #808069;}
        .stroke13 {fill: #808068;}
        .stroke14 {fill: #808067;}
        .stroke15 {fill: #808066;}
        .stroke16 {fill: #808065;}
        .stroke17 {fill: #808064;}
        .stroke18 {fill: #808063;}
        .stroke19 {fill: #808062;}
        .stroke20 {fill: #808061;}
        text {
            font-family: Helvetica;
            font-size: 50px;
            fill: #808060;
            paint-order: stroke;
            stroke: #000000;
            stroke-width: 4px;
            stroke-linecap: butt;
            stroke-linejoin: miter;
            font-weight: 800;
        }
    </style>

    <path d="M 270 498 Q 316 556 369 634 Q 400 685 426 709 Q 436 719 432 735 Q 428 750 397 776 Q 369 797 347 797 Q 326 796 335 771 Q 348 737 335 708 Q 292 612 229 524 Q 168 439 85 346 Q 73 334 70 328 Q 66 315 82 318 Q 121 322 233 455 Q 237 459 242 465 L 270 498 Z" class="stroke1"/>
    <path d="M 242 465 Q 264 396 266 389 Q 265 388 266 385 Q 266 211 235 91 Q 222 45 257 -7 Q 258 -11 263 -15 Q 282 -33 295 -3 Q 311 40 310 90 Q 314 348 323 405 Q 332 435 320 446 Q 281 491 270 498 C 247 518 233 494 242 465 Z" class="stroke2"/>
    <path d="M 649 237 Q 730 355 762 461 Q 775 507 808 538 Q 829 557 810 571 Q 785 587 754 596 Q 730 605 647 574 Q 548 546 438 534 Q 419 534 414 528 Q 410 515 435 499 Q 466 480 534 503 Q 676 549 692 545 Q 705 545 705 524 Q 677 371 610 277 L 581 239 Q 508 158 363 78 Q 347 71 356 64 Q 363 60 389 70 Q 545 124 615 196 L 649 237 Z" class="stroke3"/>
    <path d="M 615 196 Q 739 42 770 32 Q 827 23 947 39 Q 966 40 974 50 Q 978 59 965 62 Q 784 119 713 180 Q 682 205 649 237 L 610 277 Q 558 331 498 401 Q 485 422 464 424 Q 434 424 426 414 Q 422 408 433 402 Q 475 380 502 340 Q 542 288 581 239 L 615 196 Z" class="stroke4"/>
    
    
    
    </g>
</svg>