<svg version="1.1" viewBox="0 0 1024 1024" xmlns="http://www.w3.org/2000/svg">
  
  <g transform="scale(1, -1) translate(0, -900)">
    <style type="text/css">
        .stroke1 {fill: #808080;}
        .stroke2 {fill: #808079;}
        .stroke3 {fill: #808078;}
        .stroke4 {fill: #808077;}
        .stroke5 {fill: #808076;}
        .stroke6 {fill: #808075;}
        .stroke7 {fill: #808074;}
        .stroke8 {fill: #808073;}
        .stroke9 {fill: #808072;}
        .stroke10 {fill: #808071;}
        .stroke11 {fill: #808070;}
        .stroke12 {fill: #808069;}
        .stroke13 {fill: #808068;}
        .stroke14 {fill: #808067;}
        .stroke15 {fill: #808066;}
        .stroke16 {fill: #808065;}
        .stroke17 {fill: #808064;}
        .stroke18 {fill: #808063;}
        .stroke19 {fill: #808062;}
        .stroke20 {fill: #808061;}
        text {
            font-family: Helvetica;
            font-size: 50px;
            fill: #808060;
            paint-order: stroke;
            stroke: #000000;
            stroke-width: 4px;
            stroke-linecap: butt;
            stroke-linejoin: miter;
            font-weight: 800;
        }
    </style>

    <path d="M 229 494 Q 281 561 337 652 Q 365 704 392 729 Q 402 741 397 756 Q 393 771 361 795 Q 331 816 311 815 Q 290 814 299 789 Q 315 755 301 725 Q 261 626 200 535 Q 140 447 59 350 Q 49 338 46 332 Q 42 319 58 322 Q 100 332 201 459 L 229 494 Z" class="stroke1"/>
    <path d="M 201 459 Q 222 395 223 391 Q 222 390 223 387 Q 223 204 194 91 Q 184 46 218 -5 Q 219 -5 221 -8 Q 239 -24 251 3 Q 266 43 265 90 Q 265 352 273 412 Q 280 439 271 450 Q 246 477 229 494 C 208 515 192 488 201 459 Z" class="stroke2"/>
    <path d="M 478 578 Q 477 579 475 580 Q 426 602 412 599 Q 393 595 409 574 Q 440 520 426 318 Q 419 264 394 201 Q 370 137 290 55 Q 277 42 274 36 Q 273 29 284 29 Q 321 32 387 105 Q 469 204 483 409 Q 486 460 486 520 Q 487 535 489 544 C 493 571 493 571 478 578 Z" class="stroke3"/>
    <path d="M 977 38 Q 999 48 989 72 Q 970 118 959 186 Q 953 222 945 228 Q 936 232 934 220 Q 910 105 876 76 Q 860 63 818 59 Q 763 55 733 62 Q 702 71 688 86 Q 658 125 671 294 Q 681 427 702 514 Q 709 554 745 585 Q 760 604 742 617 Q 720 635 667 652 Q 646 656 627 643 Q 564 598 478 578 C 449 570 460 536 489 544 Q 505 545 611 583 Q 624 590 631 586 Q 634 583 628 428 Q 606 134 635 74 Q 689 -25 869 2 Q 924 11 977 38 Z" class="stroke4"/>
    
    
    
    </g>
</svg>