<svg version="1.1" viewBox="0 0 1024 1024" xmlns="http://www.w3.org/2000/svg">
  
  <g transform="scale(1, -1) translate(0, -900)">
    <style type="text/css">
        .stroke1 {fill: #808080;}
        .stroke2 {fill: #808079;}
        .stroke3 {fill: #808078;}
        .stroke4 {fill: #808077;}
        .stroke5 {fill: #808076;}
        .stroke6 {fill: #808075;}
        .stroke7 {fill: #808074;}
        .stroke8 {fill: #808073;}
        .stroke9 {fill: #808072;}
        .stroke10 {fill: #808071;}
        .stroke11 {fill: #808070;}
        .stroke12 {fill: #808069;}
        .stroke13 {fill: #808068;}
        .stroke14 {fill: #808067;}
        .stroke15 {fill: #808066;}
        .stroke16 {fill: #808065;}
        .stroke17 {fill: #808064;}
        .stroke18 {fill: #808063;}
        .stroke19 {fill: #808062;}
        .stroke20 {fill: #808061;}
        text {
            font-family: Helvetica;
            font-size: 50px;
            fill: #808060;
            paint-order: stroke;
            stroke: #000000;
            stroke-width: 4px;
            stroke-linecap: butt;
            stroke-linejoin: miter;
            font-weight: 800;
        }
    </style>

    <path d="M 265 530 Q 307 585 353 656 Q 381 707 406 731 Q 416 741 412 757 Q 408 770 377 796 Q 349 815 328 816 Q 309 815 317 790 Q 330 756 318 728 Q 278 634 218 546 Q 160 461 80 369 Q 68 359 66 351 Q 62 339 78 342 Q 90 343 117 368 Q 165 405 223 478 Q 230 488 239 497 L 265 530 Z" class="stroke1"/>
    <path d="M 239 497 Q 240 490 246 482 Q 276 413 253 230 Q 244 176 230 119 Q 220 74 254 23 Q 255 23 257 20 Q 275 4 287 31 Q 302 71 301 118 Q 304 385 313 444 Q 320 471 311 482 Q 269 528 265 530 C 243 551 226 524 239 497 Z" class="stroke2"/>
    <path d="M 566 625 Q 647 649 704 658 Q 726 661 732 651 Q 741 644 728 591 Q 700 488 667 452 Q 657 439 659 431 Q 660 421 673 411 Q 683 405 696 412 Q 723 427 788 431 Q 807 435 818 427 Q 831 417 831 378 Q 831 230 765 129 Q 747 101 720 107 Q 689 119 656 133 Q 634 140 648 117 Q 685 68 709 24 Q 719 -4 746 10 Q 824 53 849 146 Q 868 212 887 357 Q 891 382 903 400 Q 915 416 901 431 Q 850 477 775 459 Q 723 456 721 460 Q 721 461 721 462 Q 722 481 759 552 Q 799 624 818 640 Q 842 656 836 671 Q 827 690 769 713 Q 751 720 727 708 Q 696 692 537 655 Q 491 645 455 647 Q 434 648 439 634 Q 443 624 476 613 Q 494 607 525 614 L 566 625 Z" class="stroke3"/>
    <path d="M 525 614 Q 535 590 525 530 Q 524 527 524 523 Q 503 393 456 293 Q 414 214 341 124 Q 337 118 333 113 Q 329 103 340 104 Q 371 104 453 205 Q 462 220 473 235 Q 534 334 587 540 Q 602 591 602 592 Q 601 593 601 594 Q 588 610 566 625 C 542 643 518 643 525 614 Z" class="stroke4"/>
    
    
    
    </g>
</svg>