<svg version="1.1" viewBox="0 0 1024 1024" xmlns="http://www.w3.org/2000/svg">
  
  <g transform="scale(1, -1) translate(0, -900)">
    <style type="text/css">
        .stroke1 {fill: #808080;}
        .stroke2 {fill: #808079;}
        .stroke3 {fill: #808078;}
        .stroke4 {fill: #808077;}
        .stroke5 {fill: #808076;}
        .stroke6 {fill: #808075;}
        .stroke7 {fill: #808074;}
        .stroke8 {fill: #808073;}
        .stroke9 {fill: #808072;}
        .stroke10 {fill: #808071;}
        .stroke11 {fill: #808070;}
        .stroke12 {fill: #808069;}
        .stroke13 {fill: #808068;}
        .stroke14 {fill: #808067;}
        .stroke15 {fill: #808066;}
        .stroke16 {fill: #808065;}
        .stroke17 {fill: #808064;}
        .stroke18 {fill: #808063;}
        .stroke19 {fill: #808062;}
        .stroke20 {fill: #808061;}
        text {
            font-family: Helvetica;
            font-size: 50px;
            fill: #808060;
            paint-order: stroke;
            stroke: #000000;
            stroke-width: 4px;
            stroke-linecap: butt;
            stroke-linejoin: miter;
            font-weight: 800;
        }
    </style>

    <path d="M 310 544 Q 418 706 418 711 Q 417 714 416 718 Q 412 731 381 756 Q 353 775 334 774 Q 315 773 323 750 Q 336 717 325 690 Q 288 599 230 513 Q 175 431 99 340 Q 89 330 86 323 Q 82 311 97 314 Q 134 318 280 502 L 310 544 Z" class="stroke1"/>
    <path d="M 280 502 Q 298 466 298 380 Q 297 371 297 360 Q 296 252 267 143 Q 254 97 289 45 Q 290 41 295 37 Q 314 19 327 49 Q 343 92 342 142 Q 346 400 355 457 Q 364 487 352 498 Q 327 528 310 544 C 289 565 269 530 280 502 Z" class="stroke2"/>
    <path d="M 643 471 Q 815 531 823 540 Q 832 550 825 559 Q 815 572 782 576 Q 748 577 715 561 Q 673 542 629 521 L 582 502 Q 506 477 418 455 Q 378 443 410 428 Q 462 409 521 430 Q 557 443 595 455 L 643 471 Z" class="stroke3"/>
    <path d="M 595 455 Q 677 155 845 31 Q 914 -23 946 -21 Q 968 -15 960 16 Q 951 61 942 191 Q 941 219 930 219 Q 927 219 894 138 Q 881 105 853 118 Q 844 124 834 131 Q 699 248 643 471 L 629 521 Q 589 671 595 774 Q 605 819 544 837 Q 505 850 485 841 Q 463 832 476 812 Q 528 772 531 736 Q 556 603 582 502 L 595 455 Z" class="stroke4"/>
    <path d="M 732 720 Q 760 696 789 667 Q 804 654 820 654 Q 832 655 837 669 Q 841 684 832 715 Q 826 736 794 750 Q 719 778 704 771 Q 698 767 700 753 Q 704 743 732 720 Z" class="stroke5"/>
    
    
    
    
    </g>
</svg>