<svg version="1.1" viewBox="0 0 1024 1024" xmlns="http://www.w3.org/2000/svg">
  
  <g transform="scale(1, -1) translate(0, -900)">
    <style type="text/css">
        .stroke1 {fill: #808080;}
        .stroke2 {fill: #808079;}
        .stroke3 {fill: #808078;}
        .stroke4 {fill: #808077;}
        .stroke5 {fill: #808076;}
        .stroke6 {fill: #808075;}
        .stroke7 {fill: #808074;}
        .stroke8 {fill: #808073;}
        .stroke9 {fill: #808072;}
        .stroke10 {fill: #808071;}
        .stroke11 {fill: #808070;}
        .stroke12 {fill: #808069;}
        .stroke13 {fill: #808068;}
        .stroke14 {fill: #808067;}
        .stroke15 {fill: #808066;}
        .stroke16 {fill: #808065;}
        .stroke17 {fill: #808064;}
        .stroke18 {fill: #808063;}
        .stroke19 {fill: #808062;}
        .stroke20 {fill: #808061;}
        text {
            font-family: Helvetica;
            font-size: 50px;
            fill: #808060;
            paint-order: stroke;
            stroke: #000000;
            stroke-width: 4px;
            stroke-linecap: butt;
            stroke-linejoin: miter;
            font-weight: 800;
        }
    </style>

    <path d="M 269 537 Q 311 592 356 663 Q 384 715 411 739 Q 421 749 416 765 Q 412 778 381 804 Q 353 823 332 824 Q 313 823 321 798 Q 348 735 220 549 Q 160 464 80 369 Q 68 359 66 351 Q 62 339 78 342 Q 117 346 224 481 Q 231 491 242 502 L 269 537 Z" class="stroke1"/>
    <path d="M 242 502 Q 243 496 248 490 Q 279 432 260 249 Q 254 197 241 143 Q 226 94 263 46 Q 264 43 268 40 Q 287 24 299 52 Q 314 94 314 142 Q 311 392 318 449 Q 325 477 315 488 Q 297 510 283 524 Q 276 531 269 537 C 247 557 229 529 242 502 Z" class="stroke2"/>
    <path d="M 436 535 Q 423 541 395 544 Q 382 548 379 542 Q 372 535 382 519 Q 413 455 433 352 Q 437 321 455 300 Q 474 278 479 294 Q 482 304 483 317 L 480 354 Q 468 387 454 501 C 450 530 450 530 436 535 Z" class="stroke3"/>
    <path d="M 822 394 Q 855 493 891 516 Q 910 537 894 556 Q 876 572 819 600 Q 800 610 776 601 Q 712 579 654 566 L 600 555 Q 521 543 436 535 C 406 532 424 498 454 501 Q 469 501 487 506 Q 544 516 600 524 L 654 532 Q 697 541 741 548 Q 774 555 786 541 Q 796 531 793 511 Q 783 450 768 400 C 760 371 812 366 822 394 Z" class="stroke4"/>
    <path d="M 653 338 Q 731 348 837 354 Q 849 355 851 365 Q 851 374 822 394 C 806 406 798 404 768 400 Q 767 401 765 400 Q 704 388 653 378 L 600 369 Q 536 360 480 354 C 450 351 453 321 483 317 Q 495 314 509 317 Q 546 324 600 331 L 653 338 Z" class="stroke5"/>
    <path d="M 600 331 Q 600 -14 611 -42 Q 612 -46 616 -52 Q 631 -68 640 -46 Q 658 5 653 338 L 653 378 Q 653 465 654 532 L 654 566 Q 655 726 677 761 Q 684 777 664 792 Q 639 811 596 822 Q 577 828 564 813 Q 554 806 566 793 Q 596 768 598 732 Q 599 665 600 555 L 600 524 Q 601 464 601 391 Q 601 381 600 369 L 600 331 Z" class="stroke6"/>
    
    
    
    
    
    </g>
</svg>