<svg version="1.1" viewBox="0 0 1024 1024" xmlns="http://www.w3.org/2000/svg">
  
  <g transform="scale(1, -1) translate(0, -900)">
    <style type="text/css">
        .stroke1 {fill: #808080;}
        .stroke2 {fill: #808079;}
        .stroke3 {fill: #808078;}
        .stroke4 {fill: #808077;}
        .stroke5 {fill: #808076;}
        .stroke6 {fill: #808075;}
        .stroke7 {fill: #808074;}
        .stroke8 {fill: #808073;}
        .stroke9 {fill: #808072;}
        .stroke10 {fill: #808071;}
        .stroke11 {fill: #808070;}
        .stroke12 {fill: #808069;}
        .stroke13 {fill: #808068;}
        .stroke14 {fill: #808067;}
        .stroke15 {fill: #808066;}
        .stroke16 {fill: #808065;}
        .stroke17 {fill: #808064;}
        .stroke18 {fill: #808063;}
        .stroke19 {fill: #808062;}
        .stroke20 {fill: #808061;}
        text {
            font-family: Helvetica;
            font-size: 50px;
            fill: #808060;
            paint-order: stroke;
            stroke: #000000;
            stroke-width: 4px;
            stroke-linecap: butt;
            stroke-linejoin: miter;
            font-weight: 800;
        }
    </style>

    <path d="M 232 504 Q 281 565 337 650 Q 365 701 391 725 Q 401 737 396 752 Q 392 765 361 792 Q 331 811 311 812 Q 290 811 299 786 Q 314 752 300 724 Q 260 628 199 540 Q 141 455 60 362 Q 48 350 46 344 Q 42 331 58 334 Q 103 344 205 472 Q 205 473 206 474 L 232 504 Z" class="stroke1"/>
    <path d="M 206 474 Q 228 416 230 363 Q 229 345 229 325 Q 228 225 201 123 Q 186 74 223 26 Q 224 23 228 20 Q 247 4 259 32 Q 274 74 274 122 Q 278 360 286 413 Q 293 441 283 452 Q 265 474 251 488 Q 242 498 232 504 C 208 522 196 502 206 474 Z" class="stroke2"/>
    <path d="M 534 754 Q 571 727 609 695 Q 625 682 643 683 Q 656 684 660 700 Q 664 718 652 751 Q 639 787 525 808 Q 507 811 500 807 Q 494 803 497 788 Q 501 775 534 754 Z" class="stroke3"/>
    <path d="M 363 551 Q 342 547 359 531 Q 374 518 392 514 Q 414 510 429 516 Q 619 579 839 578 L 841 578 Q 862 579 866 588 Q 870 601 853 613 Q 796 650 743 633 Q 617 600 363 551 Z" class="stroke4"/>
    <path d="M 488 436 Q 446 463 422 452 Q 410 446 417 433 Q 451 381 427 244 Q 400 136 286 34 Q 274 24 286 23 Q 343 29 401 98 Q 434 131 462 200 Q 462 203 464 204 Q 482 250 485 303 Q 488 375 501 410 C 506 426 506 426 488 436 Z" class="stroke5"/>
    <path d="M 954 47 Q 985 62 969 92 Q 944 141 932 221 Q 928 243 922 248 Q 912 252 910 237 Q 892 117 873 98 Q 857 85 814 80 Q 712 73 656 145 Q 619 217 664 369 Q 682 418 711 440 Q 739 462 708 474 Q 692 483 656 495 Q 631 504 583 473 Q 516 445 488 436 C 460 426 472 403 501 410 Q 609 435 611 434 Q 617 425 602 314 Q 575 119 663 62 Q 739 7 841 13 Q 899 20 954 47 Z" class="stroke6"/>
    
    
    
    
    
    </g>
</svg>