<svg version="1.1" viewBox="0 0 1024 1024" xmlns="http://www.w3.org/2000/svg">
  
  <g transform="scale(1, -1) translate(0, -900)">
    <style type="text/css">
        .stroke1 {fill: #808080;}
        .stroke2 {fill: #808079;}
        .stroke3 {fill: #808078;}
        .stroke4 {fill: #808077;}
        .stroke5 {fill: #808076;}
        .stroke6 {fill: #808075;}
        .stroke7 {fill: #808074;}
        .stroke8 {fill: #808073;}
        .stroke9 {fill: #808072;}
        .stroke10 {fill: #808071;}
        .stroke11 {fill: #808070;}
        .stroke12 {fill: #808069;}
        .stroke13 {fill: #808068;}
        .stroke14 {fill: #808067;}
        .stroke15 {fill: #808066;}
        .stroke16 {fill: #808065;}
        .stroke17 {fill: #808064;}
        .stroke18 {fill: #808063;}
        .stroke19 {fill: #808062;}
        .stroke20 {fill: #808061;}
        text {
            font-family: Helvetica;
            font-size: 50px;
            fill: #808060;
            paint-order: stroke;
            stroke: #000000;
            stroke-width: 4px;
            stroke-linecap: butt;
            stroke-linejoin: miter;
            font-weight: 800;
        }
    </style>

    <path d="M 262 537 Q 293 580 330 634 Q 358 680 382 703 Q 392 713 387 729 Q 383 742 353 768 Q 325 787 305 788 Q 284 787 293 763 Q 306 732 294 705 Q 255 617 198 534 Q 143 455 68 369 Q 58 359 54 352 Q 50 339 66 342 Q 102 346 206 469 Q 218 484 232 499 L 262 537 Z" class="stroke1"/>
    <path d="M 232 499 Q 268 463 245 248 Q 238 194 225 139 Q 210 90 247 42 Q 248 39 252 36 Q 271 20 283 48 Q 298 90 298 138 Q 298 394 306 453 Q 313 483 287 511 Q 281 517 262 537 C 241 559 215 524 232 499 Z" class="stroke2"/>
    <path d="M 461 574 Q 477 556 493 534 Q 506 521 523 519 Q 535 519 541 533 Q 547 548 540 580 Q 534 604 459 625 Q 443 629 436 627 Q 430 623 431 610 Q 434 598 461 574 Z" class="stroke3"/>
    <path d="M 774 654 Q 770 645 715 567 Q 705 549 722 553 Q 767 575 818 607 Q 837 623 863 635 Q 885 645 874 664 Q 861 682 833 697 Q 808 712 794 708 Q 781 707 785 692 Q 789 673 774 654 Z" class="stroke4"/>
    <path d="M 651 434 Q 705 444 797 454 Q 807 453 817 466 Q 818 478 795 488 Q 761 512 657 479 Q 654 479 652 478 L 596 466 Q 539 460 456 449 Q 428 445 450 428 Q 481 401 511 409 Q 548 416 596 425 L 651 434 Z" class="stroke5"/>
    <path d="M 650 286 Q 741 296 879 296 Q 939 293 947 304 Q 953 316 936 330 Q 884 369 846 360 Q 773 344 650 324 L 595 316 Q 487 303 364 286 Q 343 285 359 267 Q 372 254 391 248 Q 413 242 428 247 Q 506 269 594 278 L 650 286 Z" class="stroke6"/>
    <path d="M 594 278 Q 588 -14 608 -48 Q 623 -64 632 -42 Q 650 -3 650 286 L 650 324 Q 650 405 651 434 L 652 478 Q 653 721 675 754 Q 684 781 665 795 Q 640 814 595 827 Q 574 831 561 817 Q 551 810 564 796 Q 594 771 596 736 Q 596 642 596 466 L 596 425 Q 596 371 595 316 L 594 278 Z" class="stroke7"/>
    
    
    
    
    
    
    </g>
</svg>