<svg version="1.1" viewBox="0 0 1024 1024" xmlns="http://www.w3.org/2000/svg">
  
  <g transform="scale(1, -1) translate(0, -900)">
    <style type="text/css">
        .stroke1 {fill: #808080;}
        .stroke2 {fill: #808079;}
        .stroke3 {fill: #808078;}
        .stroke4 {fill: #808077;}
        .stroke5 {fill: #808076;}
        .stroke6 {fill: #808075;}
        .stroke7 {fill: #808074;}
        .stroke8 {fill: #808073;}
        .stroke9 {fill: #808072;}
        .stroke10 {fill: #808071;}
        .stroke11 {fill: #808070;}
        .stroke12 {fill: #808069;}
        .stroke13 {fill: #808068;}
        .stroke14 {fill: #808067;}
        .stroke15 {fill: #808066;}
        .stroke16 {fill: #808065;}
        .stroke17 {fill: #808064;}
        .stroke18 {fill: #808063;}
        .stroke19 {fill: #808062;}
        .stroke20 {fill: #808061;}
        text {
            font-family: Helvetica;
            font-size: 50px;
            fill: #808060;
            paint-order: stroke;
            stroke: #000000;
            stroke-width: 4px;
            stroke-linecap: butt;
            stroke-linejoin: miter;
            font-weight: 800;
        }
    </style>

    <path d="M 254 550 Q 294 604 338 672 Q 368 724 394 749 Q 404 759 399 774 Q 395 787 365 812 Q 337 831 318 831 Q 299 830 307 807 Q 320 773 307 743 Q 265 646 203 557 Q 142 470 60 376 Q 50 366 46 359 Q 42 347 57 350 Q 87 353 222 510 Q 223 511 225 513 L 254 550 Z" class="stroke1"/>
    <path d="M 225 513 Q 247 477 249 381 Q 249 242 219 123 Q 206 77 241 25 Q 242 21 247 17 Q 266 -1 279 29 Q 295 72 294 122 Q 294 399 303 461 Q 312 491 300 502 Q 264 544 254 550 C 231 570 212 540 225 513 Z" class="stroke2"/>
    <path d="M 603 798 Q 627 773 653 743 Q 668 727 685 726 Q 698 726 704 741 Q 711 757 703 792 Q 699 813 667 829 Q 592 862 576 855 Q 570 851 571 836 Q 574 823 603 798 Z" class="stroke3"/>
    <path d="M 460 621 Q 451 648 434 658 Q 416 671 415 646 Q 421 604 369 538 Q 354 514 381 466 Q 400 445 412 470 Q 418 480 455 591 C 463 614 463 614 460 621 Z" class="stroke4"/>
    <path d="M 455 591 Q 477 582 522 593 Q 613 626 785 648 Q 818 652 829 650 Q 845 643 843 633 Q 844 626 837 615 Q 803 539 807 536 Q 816 533 831 545 Q 885 585 930 600 Q 967 612 966 623 Q 963 633 895 681 Q 870 700 778 679 Q 738 678 460 621 C 431 615 426 597 455 591 Z" class="stroke5"/>
    <path d="M 671 397 Q 738 406 835 408 Q 886 408 892 418 Q 896 430 881 442 Q 824 481 758 459 Q 644 435 427 398 Q 408 395 423 379 Q 436 366 454 362 Q 475 358 490 362 Q 551 381 623 390 L 671 397 Z" class="stroke6"/>
    <path d="M 623 390 Q 624 386 629 378 Q 639 353 638 310 Q 639 246 639 96 Q 638 65 627 54 Q 617 48 559 68 Q 526 83 525 72 Q 524 65 534 53 Q 595 -8 633 -55 Q 645 -65 660 -49 Q 709 14 702 128 Q 696 219 704 331 Q 711 359 705 370 Q 698 382 671 397 C 645 413 610 417 623 390 Z" class="stroke7"/>
    
    
    
    
    
    
    </g>
</svg>