<svg version="1.1" viewBox="0 0 1024 1024" xmlns="http://www.w3.org/2000/svg">
  
  <g transform="scale(1, -1) translate(0, -900)">
    <style type="text/css">
        .stroke1 {fill: #808080;}
        .stroke2 {fill: #808079;}
        .stroke3 {fill: #808078;}
        .stroke4 {fill: #808077;}
        .stroke5 {fill: #808076;}
        .stroke6 {fill: #808075;}
        .stroke7 {fill: #808074;}
        .stroke8 {fill: #808073;}
        .stroke9 {fill: #808072;}
        .stroke10 {fill: #808071;}
        .stroke11 {fill: #808070;}
        .stroke12 {fill: #808069;}
        .stroke13 {fill: #808068;}
        .stroke14 {fill: #808067;}
        .stroke15 {fill: #808066;}
        .stroke16 {fill: #808065;}
        .stroke17 {fill: #808064;}
        .stroke18 {fill: #808063;}
        .stroke19 {fill: #808062;}
        .stroke20 {fill: #808061;}
        text {
            font-family: Helvetica;
            font-size: 50px;
            fill: #808060;
            paint-order: stroke;
            stroke: #000000;
            stroke-width: 4px;
            stroke-linecap: butt;
            stroke-linejoin: miter;
            font-weight: 800;
        }
    </style>

    <path d="M 240 496 Q 286 559 335 643 Q 360 695 385 720 Q 395 732 389 746 Q 385 759 353 783 Q 325 802 304 801 Q 283 798 293 775 Q 338 685 74 345 Q 64 335 62 327 Q 58 315 73 318 Q 113 327 212 460 Q 213 461 215 464 L 240 496 Z" class="stroke1"/>
    <path d="M 215 464 Q 240 413 241 333 Q 241 207 217 107 Q 202 58 239 10 Q 240 7 244 4 Q 263 -12 275 16 Q 290 58 290 106 Q 287 350 294 405 Q 301 433 291 444 Q 273 466 259 480 Q 250 490 240 496 C 216 514 203 491 215 464 Z" class="stroke2"/>
    <path d="M 566 761 Q 599 736 633 705 Q 648 692 665 693 Q 675 694 681 708 Q 685 724 674 755 Q 667 777 632 792 Q 548 817 536 811 Q 530 807 533 793 Q 537 783 566 761 Z" class="stroke3"/>
    <path d="M 443 601 Q 431 628 413 641 Q 410 645 404 642 Q 398 639 397 627 Q 398 594 365 527 Q 353 511 353 490 Q 356 469 365 454 Q 372 441 379 450 Q 386 450 395 467 Q 401 474 411 501 Q 430 549 440 565 Q 443 569 445 573 C 451 584 451 584 443 601 Z" class="stroke4"/>
    <path d="M 445 573 Q 464 563 504 571 Q 540 587 690 618 Q 733 627 745 626 Q 761 614 759 607 Q 759 603 736 534 Q 730 521 737 517 Q 744 513 759 526 Q 808 566 850 581 Q 884 594 883 603 Q 882 612 810 658 Q 788 673 701 652 Q 656 646 513 614 Q 479 607 443 601 C 413 596 416 582 445 573 Z" class="stroke5"/>
    <path d="M 518 268 Q 519 268 526 268 Q 586 298 710 374 Q 732 387 757 396 Q 779 403 771 422 Q 759 441 735 459 Q 713 475 699 474 Q 686 474 689 460 Q 690 430 610 359 Q 567 322 520 282 C 502 266 502 266 518 268 Z" class="stroke6"/>
    <path d="M 898 123 Q 882 150 855 233 Q 854 249 845 254 Q 838 257 836 238 Q 817 145 801 116 Q 767 76 649 81 Q 604 84 569 99 Q 538 115 529 135 Q 513 169 518 268 L 520 282 Q 524 333 535 390 Q 541 409 528 419 Q 515 434 489 443 Q 476 447 466 443 Q 459 439 464 419 Q 477 377 475 337 Q 463 162 478 114 Q 482 89 507 66 Q 580 3 762 25 Q 783 29 805 34 Q 850 47 894 77 Q 913 96 898 123 Z" class="stroke7"/>
    
    
    
    
    
    
    </g>
</svg>