<svg version="1.1" viewBox="0 0 1024 1024" xmlns="http://www.w3.org/2000/svg">
  
  <g transform="scale(1, -1) translate(0, -900)">
    <style type="text/css">
        .stroke1 {fill: #808080;}
        .stroke2 {fill: #808079;}
        .stroke3 {fill: #808078;}
        .stroke4 {fill: #808077;}
        .stroke5 {fill: #808076;}
        .stroke6 {fill: #808075;}
        .stroke7 {fill: #808074;}
        .stroke8 {fill: #808073;}
        .stroke9 {fill: #808072;}
        .stroke10 {fill: #808071;}
        .stroke11 {fill: #808070;}
        .stroke12 {fill: #808069;}
        .stroke13 {fill: #808068;}
        .stroke14 {fill: #808067;}
        .stroke15 {fill: #808066;}
        .stroke16 {fill: #808065;}
        .stroke17 {fill: #808064;}
        .stroke18 {fill: #808063;}
        .stroke19 {fill: #808062;}
        .stroke20 {fill: #808061;}
        text {
            font-family: Helvetica;
            font-size: 50px;
            fill: #808060;
            paint-order: stroke;
            stroke: #000000;
            stroke-width: 4px;
            stroke-linecap: butt;
            stroke-linejoin: miter;
            font-weight: 800;
        }
    </style>

    <path d="M 231 529 Q 271 584 317 657 Q 342 706 367 729 Q 377 739 372 754 Q 368 767 338 791 Q 310 810 290 810 Q 271 809 279 785 Q 294 754 281 726 Q 217 570 59 376 Q 49 366 46 359 Q 42 347 57 350 Q 90 354 188 475 Q 195 487 204 495 L 231 529 Z" class="stroke1"/>
    <path d="M 204 495 Q 246 423 220 221 Q 211 166 197 107 Q 182 58 219 10 Q 220 7 224 4 Q 243 -12 255 16 Q 270 58 270 106 Q 273 380 282 441 Q 289 469 279 480 Q 261 502 247 516 Q 240 523 231 529 C 207 548 191 522 204 495 Z" class="stroke2"/>
    <path d="M 484 561 Q 490 583 517 637 Q 524 650 508 662 Q 463 686 439 678 Q 429 674 434 661 Q 461 583 393 470 Q 378 448 371 432 Q 367 416 379 423 Q 424 436 475 540 L 484 561 Z" class="stroke3"/>
    <path d="M 639 543 Q 786 582 788 583 Q 797 592 791 600 Q 784 612 754 619 Q 726 623 640 593 L 588 578 Q 540 568 489 562 Q 486 562 484 561 C 454 556 448 552 475 540 Q 476 540 479 538 Q 527 517 579 530 Q 580 531 586 531 L 639 543 Z" class="stroke4"/>
    <path d="M 622 373 Q 698 388 815 391 Q 870 391 877 402 Q 881 414 865 426 Q 807 465 761 447 Q 706 434 628 416 L 573 404 Q 474 388 359 366 Q 340 363 355 347 Q 368 334 386 330 Q 407 326 422 331 Q 489 353 567 365 L 622 373 Z" class="stroke5"/>
    <path d="M 567 365 Q 546 214 415 110 Q 382 88 338 60 Q 325 54 322 50 Q 318 43 333 42 Q 348 42 402 63 Q 439 76 496 117 Q 538 147 563 188 Q 596 240 612 317 L 619 355 Q 620 364 622 373 L 628 416 Q 635 480 639 543 L 640 593 Q 644 723 662 778 Q 666 791 658 798 Q 639 814 602 828 Q 580 837 563 831 Q 544 822 560 805 Q 588 777 590 745 Q 591 657 588 578 L 586 531 Q 582 464 573 404 L 567 365 Z" class="stroke6"/>
    <path d="M 612 317 Q 685 196 780 67 Q 798 45 831 43 Q 943 39 980 42 Q 990 43 992 49 Q 993 55 979 63 Q 838 129 786 173 Q 708 249 619 355 C 600 378 596 343 612 317 Z" class="stroke7"/>
    
    
    
    
    
    
    </g>
</svg>