<svg version="1.1" viewBox="0 0 1024 1024" xmlns="http://www.w3.org/2000/svg">
  
  <g transform="scale(1, -1) translate(0, -900)">
    <style type="text/css">
        .stroke1 {fill: #808080;}
        .stroke2 {fill: #808079;}
        .stroke3 {fill: #808078;}
        .stroke4 {fill: #808077;}
        .stroke5 {fill: #808076;}
        .stroke6 {fill: #808075;}
        .stroke7 {fill: #808074;}
        .stroke8 {fill: #808073;}
        .stroke9 {fill: #808072;}
        .stroke10 {fill: #808071;}
        .stroke11 {fill: #808070;}
        .stroke12 {fill: #808069;}
        .stroke13 {fill: #808068;}
        .stroke14 {fill: #808067;}
        .stroke15 {fill: #808066;}
        .stroke16 {fill: #808065;}
        .stroke17 {fill: #808064;}
        .stroke18 {fill: #808063;}
        .stroke19 {fill: #808062;}
        .stroke20 {fill: #808061;}
        text {
            font-family: Helvetica;
            font-size: 50px;
            fill: #808060;
            paint-order: stroke;
            stroke: #000000;
            stroke-width: 4px;
            stroke-linecap: butt;
            stroke-linejoin: miter;
            font-weight: 800;
        }
    </style>

    <path d="M 277 543 Q 314 594 356 656 Q 384 707 410 731 Q 420 741 416 757 Q 412 770 381 796 Q 353 815 332 816 Q 313 815 321 791 Q 334 757 322 729 Q 250 566 80 369 Q 70 359 66 352 Q 62 339 78 342 Q 117 346 224 478 Q 239 496 256 516 L 277 543 Z" class="stroke1"/>
    <path d="M 256 516 Q 260 503 268 491 Q 299 433 280 241 Q 273 187 260 131 Q 248 80 282 41 Q 283 38 286 36 Q 302 20 314 46 Q 329 86 328 131 Q 324 396 332 455 Q 339 482 330 492 Q 288 538 277 543 C 253 561 245 544 256 516 Z" class="stroke2"/>
    <path d="M 561 573 Q 609 657 659 762 Q 675 801 676 801 Q 664 831 619 837 Q 597 841 585 837 Q 576 833 581 820 Q 608 742 501 566 Q 498 565 497 560 Q 466 511 383 413 Q 376 406 387 405 Q 435 414 543 547 Q 544 550 547 552 L 561 573 Z" class="stroke3"/>
    <path d="M 652 539 Q 758 561 869 584 Q 918 596 927 603 Q 936 610 931 620 Q 924 632 894 639 Q 870 645 754 609 Q 613 579 562 574 Q 561 574 561 573 C 532 567 521 565 547 552 Q 548 552 551 550 Q 578 535 609 535 L 652 539 Z" class="stroke4"/>
    <path d="M 674 230 Q 673 288 674 343 Q 674 349 674 354 L 674 387 Q 675 466 681 501 Q 684 516 652 539 C 629 558 598 563 609 535 Q 642 475 617 154 Q 614 129 611 107 Q 610 76 605 60 Q 593 24 631 -34 Q 644 -53 652 -59 Q 665 -60 670 -46 Q 683 -12 679 20 Q 675 114 674 198 L 674 230 Z" class="stroke5"/>
    <path d="M 674 354 Q 698 363 850 385 Q 875 389 865 403 Q 853 419 825 424 Q 798 427 674 387 C 645 378 645 345 674 354 Z" class="stroke6"/>
    <path d="M 674 198 Q 680 197 689 198 Q 792 217 868 227 Q 896 231 885 247 Q 873 263 843 269 Q 815 273 674 230 C 645 221 644 200 674 198 Z" class="stroke7"/>
    
    
    
    
    
    
    </g>
</svg>