<svg version="1.1" viewBox="0 0 1024 1024" xmlns="http://www.w3.org/2000/svg">
  
  <g transform="scale(1, -1) translate(0, -900)">
    <style type="text/css">
        .stroke1 {fill: #808080;}
        .stroke2 {fill: #808079;}
        .stroke3 {fill: #808078;}
        .stroke4 {fill: #808077;}
        .stroke5 {fill: #808076;}
        .stroke6 {fill: #808075;}
        .stroke7 {fill: #808074;}
        .stroke8 {fill: #808073;}
        .stroke9 {fill: #808072;}
        .stroke10 {fill: #808071;}
        .stroke11 {fill: #808070;}
        .stroke12 {fill: #808069;}
        .stroke13 {fill: #808068;}
        .stroke14 {fill: #808067;}
        .stroke15 {fill: #808066;}
        .stroke16 {fill: #808065;}
        .stroke17 {fill: #808064;}
        .stroke18 {fill: #808063;}
        .stroke19 {fill: #808062;}
        .stroke20 {fill: #808061;}
        text {
            font-family: Helvetica;
            font-size: 50px;
            fill: #808060;
            paint-order: stroke;
            stroke: #000000;
            stroke-width: 4px;
            stroke-linecap: butt;
            stroke-linejoin: miter;
            font-weight: 800;
        }
    </style>

    <path d="M 242 531 Q 285 586 334 659 Q 364 708 390 733 Q 400 745 396 759 Q 392 774 361 800 Q 333 821 311 821 Q 290 820 299 795 Q 312 761 299 733 Q 257 637 195 550 Q 134 466 52 374 Q 42 362 38 356 Q 34 343 50 346 Q 95 352 212 496 Q 212 497 214 498 L 242 531 Z" class="stroke1"/>
    <path d="M 214 498 Q 215 491 221 484 Q 236 451 238 350 Q 238 233 209 115 Q 194 66 231 18 Q 232 15 236 12 Q 255 -4 267 24 Q 282 66 282 114 Q 281 384 290 445 Q 297 473 287 484 Q 269 506 255 520 Q 249 527 242 531 C 219 550 201 525 214 498 Z" class="stroke2"/>
    <path d="M 648 542 Q 718 558 793 571 Q 863 587 874 596 Q 884 605 879 614 Q 872 627 839 637 Q 805 644 770 632 Q 712 613 651 595 L 596 582 Q 499 563 392 553 Q 350 547 380 528 Q 428 501 518 519 Q 555 526 597 533 L 648 542 Z" class="stroke3"/>
    <path d="M 639 404 Q 643 474 648 542 L 651 595 Q 652 682 673 767 Q 677 779 656 794 Q 619 815 592 819 Q 574 823 566 814 Q 559 805 567 789 Q 591 755 591 731 Q 595 659 596 582 L 597 533 Q 597 466 594 394 C 593 364 637 374 639 404 Z" class="stroke4"/>
    <path d="M 594 394 Q 525 385 444 374 Q 414 370 438 352 Q 471 324 502 332 Q 658 366 792 380 Q 804 379 813 392 Q 814 405 790 415 Q 751 437 668 411 Q 653 408 639 404 L 594 394 Z" class="stroke5"/>
    <path d="M 481 250 Q 469 256 439 261 Q 426 264 423 259 Q 416 252 425 235 Q 456 172 474 68 Q 477 37 495 16 Q 514 -6 519 10 Q 523 23 523 44 L 519 82 Q 500 185 497 218 C 494 245 494 245 481 250 Z" class="stroke6"/>
    <path d="M 760 111 Q 787 199 822 223 Q 840 242 824 261 Q 806 276 752 303 Q 733 310 710 302 Q 617 268 481 250 C 451 246 467 214 497 218 Q 506 218 692 250 Q 713 254 721 245 Q 731 236 728 216 Q 718 161 707 116 C 700 87 751 82 760 111 Z" class="stroke7"/>
    <path d="M 523 44 Q 533 43 545 45 Q 618 60 777 70 Q 790 71 791 81 Q 791 90 760 111 L 707 116 Q 706 116 705 116 Q 602 92 519 82 C 489 78 493 45 523 44 Z" class="stroke8"/>
    
    
    
    
    
    
    
    </g>
</svg>