<svg version="1.1" viewBox="0 0 1024 1024" xmlns="http://www.w3.org/2000/svg">
  
  <g transform="scale(1, -1) translate(0, -900)">
    <style type="text/css">
        .stroke1 {fill: #808080;}
        .stroke2 {fill: #808079;}
        .stroke3 {fill: #808078;}
        .stroke4 {fill: #808077;}
        .stroke5 {fill: #808076;}
        .stroke6 {fill: #808075;}
        .stroke7 {fill: #808074;}
        .stroke8 {fill: #808073;}
        .stroke9 {fill: #808072;}
        .stroke10 {fill: #808071;}
        .stroke11 {fill: #808070;}
        .stroke12 {fill: #808069;}
        .stroke13 {fill: #808068;}
        .stroke14 {fill: #808067;}
        .stroke15 {fill: #808066;}
        .stroke16 {fill: #808065;}
        .stroke17 {fill: #808064;}
        .stroke18 {fill: #808063;}
        .stroke19 {fill: #808062;}
        .stroke20 {fill: #808061;}
        text {
            font-family: Helvetica;
            font-size: 50px;
            fill: #808060;
            paint-order: stroke;
            stroke: #000000;
            stroke-width: 4px;
            stroke-linecap: butt;
            stroke-linejoin: miter;
            font-weight: 800;
        }
    </style>

    <path d="M 211 498 Q 265 564 324 660 Q 351 709 375 733 Q 385 743 380 758 Q 376 771 346 795 Q 318 814 298 814 Q 279 813 287 789 Q 314 732 194 550 Q 139 468 63 376 Q 53 366 50 359 Q 46 347 61 350 Q 91 353 189 471 L 211 498 Z" class="stroke1"/>
    <path d="M 189 471 Q 210 405 215 363 Q 214 342 214 321 Q 214 224 189 123 Q 174 74 211 26 Q 212 23 216 20 Q 235 4 247 32 Q 262 74 262 122 Q 262 353 270 405 Q 277 433 267 444 Q 249 466 235 480 Q 225 492 211 498 C 185 513 180 500 189 471 Z" class="stroke2"/>
    <path d="M 454 721 Q 463 627 354 516 Q 345 513 309 471 Q 302 458 315 461 Q 333 462 357 481 Q 433 535 475 605 Q 503 647 528 681 Q 538 693 525 706 Q 486 739 463 736 Q 453 735 454 721 Z" class="stroke3"/>
    <path d="M 593 787 Q 629 762 698 661 Q 761 568 821 522 Q 839 512 921 516 Q 939 519 956 519 Q 968 520 979 523 Q 986 529 976 537 Q 963 544 864 584 Q 776 615 655 779 Q 640 800 613 807 Q 600 810 590 803 Q 583 796 593 787 Z" class="stroke4"/>
    <path d="M 483 244 Q 486 292 490 328 L 493 358 Q 499 431 504 456 Q 504 459 504 460 C 507 481 507 481 494 490 Q 493 493 488 495 Q 460 511 442 511 Q 429 507 433 495 Q 481 375 422 162 Q 412 132 400 111 Q 379 75 409 29 L 411 27 Q 418 12 428 18 Q 467 40 481 219 L 483 244 Z" class="stroke5"/>
    <path d="M 504 460 Q 514 460 526 463 Q 580 475 632 486 Q 654 490 658 479 Q 670 449 682 248 Q 689 80 677 53 Q 673 46 650 51 Q 623 52 595 56 Q 574 60 577 51 Q 638 9 675 -23 Q 690 -41 705 -45 Q 715 -48 722 -38 Q 761 16 754 69 Q 715 423 735 467 Q 735 470 737 471 Q 749 490 736 501 Q 714 519 677 533 Q 658 540 642 532 Q 582 501 494 490 C 464 486 474 456 504 460 Z" class="stroke6"/>
    <path d="M 490 328 Q 494 328 503 329 Q 576 344 631 353 Q 656 359 646 372 Q 633 387 607 390 Q 573 393 493 358 C 465 346 460 327 490 328 Z" class="stroke7"/>
    <path d="M 481 219 Q 488 218 501 218 Q 583 228 645 235 Q 670 238 661 252 Q 651 268 623 273 Q 592 279 483 244 C 454 235 451 222 481 219 Z" class="stroke8"/>
    
    
    
    
    
    
    
    </g>
</svg>