<svg version="1.1" viewBox="0 0 1024 1024" xmlns="http://www.w3.org/2000/svg">
  
  <g transform="scale(1, -1) translate(0, -900)">
    <style type="text/css">
        .stroke1 {fill: #808080;}
        .stroke2 {fill: #808079;}
        .stroke3 {fill: #808078;}
        .stroke4 {fill: #808077;}
        .stroke5 {fill: #808076;}
        .stroke6 {fill: #808075;}
        .stroke7 {fill: #808074;}
        .stroke8 {fill: #808073;}
        .stroke9 {fill: #808072;}
        .stroke10 {fill: #808071;}
        .stroke11 {fill: #808070;}
        .stroke12 {fill: #808069;}
        .stroke13 {fill: #808068;}
        .stroke14 {fill: #808067;}
        .stroke15 {fill: #808066;}
        .stroke16 {fill: #808065;}
        .stroke17 {fill: #808064;}
        .stroke18 {fill: #808063;}
        .stroke19 {fill: #808062;}
        .stroke20 {fill: #808061;}
        text {
            font-family: Helvetica;
            font-size: 50px;
            fill: #808060;
            paint-order: stroke;
            stroke: #000000;
            stroke-width: 4px;
            stroke-linecap: butt;
            stroke-linejoin: miter;
            font-weight: 800;
        }
    </style>

    <path d="M 218 482 Q 273 554 334 658 Q 361 710 385 736 Q 395 748 390 762 Q 384 775 353 799 Q 325 818 304 817 Q 283 814 293 791 Q 309 757 297 728 Q 233 560 70 353 Q 60 343 58 335 Q 54 323 69 326 Q 105 335 196 453 L 218 482 Z" class="stroke1"/>
    <path d="M 196 453 Q 199 441 205 432 Q 233 363 211 201 Q 204 152 190 99 Q 180 54 214 3 Q 215 3 217 0 Q 235 -16 247 11 Q 262 51 261 98 Q 264 338 273 392 Q 280 419 271 430 Q 229 476 218 482 C 195 501 186 481 196 453 Z" class="stroke2"/>
    <path d="M 599 692 Q 609 708 622 719 Q 632 729 627 743 Q 623 756 594 780 Q 566 799 547 798 Q 528 797 536 774 Q 551 741 538 715 Q 474 559 311 367 Q 301 357 298 351 Q 295 339 309 342 Q 363 348 529 581 Q 548 611 571 646 Q 578 661 586 673 L 599 692 Z" class="stroke3"/>
    <path d="M 586 673 Q 668 558 775 436 Q 793 417 823 417 Q 925 420 957 426 Q 967 427 968 433 Q 968 437 955 445 Q 802 499 728 568 Q 667 623 599 692 C 578 713 569 697 586 673 Z" class="stroke4"/>
    <path d="M 456 420 Q 422 413 447 398 Q 487 374 541 390 Q 602 403 666 417 Q 694 424 700 429 Q 707 436 703 445 Q 696 455 668 462 Q 638 468 610 455 Q 577 443 542 434 Q 502 425 456 420 Z" class="stroke5"/>
    <path d="M 561 276 Q 664 294 801 294 Q 820 295 824 303 Q 828 315 813 327 Q 758 363 703 345 Q 528 309 363 281 Q 344 278 358 263 Q 371 251 389 246 Q 408 242 423 247 Q 463 259 509 267 L 561 276 Z" class="stroke6"/>
    <path d="M 710 137 Q 604 125 495 110 Q 488 109 485 111 Q 484 114 488 120 Q 554 217 580 241 Q 593 254 585 263 Q 578 270 561 276 C 534 288 504 297 509 267 Q 509 264 511 258 Q 515 240 501 210 Q 485 174 455 138 Q 437 117 402 97 Q 377 87 376 77 Q 375 61 384 43 Q 393 24 405 19 Q 412 16 423 21 Q 496 67 721 119 C 750 126 740 140 710 137 Z" class="stroke7"/>
    <path d="M 721 119 Q 782 20 784 18 Q 791 14 801 22 Q 816 31 814 74 Q 815 131 682 224 Q 675 231 670 220 Q 666 210 710 137 L 721 119 Z" class="stroke8"/>
    
    
    
    
    
    
    
    </g>
</svg>