<svg version="1.1" viewBox="0 0 1024 1024" xmlns="http://www.w3.org/2000/svg">
  
  <g transform="scale(1, -1) translate(0, -900)">
    <style type="text/css">
        .stroke1 {fill: #808080;}
        .stroke2 {fill: #808079;}
        .stroke3 {fill: #808078;}
        .stroke4 {fill: #808077;}
        .stroke5 {fill: #808076;}
        .stroke6 {fill: #808075;}
        .stroke7 {fill: #808074;}
        .stroke8 {fill: #808073;}
        .stroke9 {fill: #808072;}
        .stroke10 {fill: #808071;}
        .stroke11 {fill: #808070;}
        .stroke12 {fill: #808069;}
        .stroke13 {fill: #808068;}
        .stroke14 {fill: #808067;}
        .stroke15 {fill: #808066;}
        .stroke16 {fill: #808065;}
        .stroke17 {fill: #808064;}
        .stroke18 {fill: #808063;}
        .stroke19 {fill: #808062;}
        .stroke20 {fill: #808061;}
        text {
            font-family: Helvetica;
            font-size: 50px;
            fill: #808060;
            paint-order: stroke;
            stroke: #000000;
            stroke-width: 4px;
            stroke-linecap: butt;
            stroke-linejoin: miter;
            font-weight: 800;
        }
    </style>

    <path d="M 290 569 Q 327 618 366 677 Q 396 726 421 751 Q 431 761 427 777 Q 423 790 393 816 Q 365 837 345 837 Q 324 836 333 811 Q 346 777 333 749 Q 291 655 229 568 Q 169 484 88 393 Q 78 383 74 376 Q 70 363 86 366 Q 125 370 233 500 L 259 530 L 290 569 Z" class="stroke1"/>
    <path d="M 259 530 Q 259 529 261 526 Q 294 456 269 252 Q 260 192 245 131 Q 230 82 267 34 Q 268 31 272 28 Q 291 12 303 40 Q 318 82 318 130 Q 319 422 330 489 Q 337 519 311 547 Q 305 553 290 569 C 269 591 247 558 259 530 Z" class="stroke2"/>
    <path d="M 623 687 Q 764 730 785 733 Q 803 733 807 741 Q 811 751 800 764 Q 740 815 707 811 Q 700 807 697 796 Q 691 751 454 664 Q 447 655 454 652 Q 469 649 576 676 L 623 687 Z" class="stroke3"/>
    <path d="M 656 513 Q 650 516 550 522 Q 543 525 543 530 Q 543 534 631 630 Q 656 646 640 667 Q 631 679 623 687 C 603 709 574 706 576 676 Q 583 639 528 566 L 522 560 Q 503 536 491 534 Q 469 528 462 514 Q 453 489 458 476 Q 462 460 477 469 Q 489 481 622 492 Q 628 493 635 492 C 665 492 686 508 656 513 Z" class="stroke4"/>
    <path d="M 658 342 Q 730 363 803 379 C 832 386 821 402 791 398 Q 691 386 573 359 Q 551 353 566 369 Q 726 531 796 573 Q 812 582 806 594 Q 799 616 765 643 Q 749 656 738 655 Q 726 654 726 635 Q 723 593 656 513 L 635 492 Q 506 363 478 351 Q 462 344 463 327 Q 463 312 489 288 Q 499 273 517 285 Q 571 313 625 332 L 658 342 Z" class="stroke5"/>
    <path d="M 803 379 Q 825 337 843 333 Q 853 330 861 341 Q 868 354 869 383 Q 866 416 788 460 Q 775 467 769 467 Q 763 464 761 452 Q 761 443 791 398 L 803 379 Z" class="stroke6"/>
    <path d="M 625 332 Q 650 256 634 103 Q 631 96 630 90 Q 627 75 600 79 Q 578 80 556 83 Q 544 83 543 77 Q 542 70 553 61 Q 613 13 633 -15 Q 646 -28 657 -25 Q 669 -21 680 13 Q 696 47 693 110 Q 692 221 694 260 Q 701 302 683 323 Q 670 336 658 342 C 633 358 617 361 625 332 Z" class="stroke7"/>
    <path d="M 490 243 Q 462 200 428 164 Q 403 134 415 98 Q 419 79 442 89 Q 493 113 507 182 Q 517 213 514 239 Q 510 249 505 250 Q 496 250 490 243 Z" class="stroke8"/>
    <path d="M 783 242 Q 828 196 881 132 Q 894 111 909 107 Q 918 106 925 114 Q 938 127 927 168 Q 921 207 853 241 Q 810 262 786 271 Q 777 277 775 265 Q 774 252 783 242 Z" class="stroke9"/>
    
    
    
    
    
    
    
    
    </g>
</svg>