<svg version="1.1" viewBox="0 0 1024 1024" xmlns="http://www.w3.org/2000/svg">
  
  <g transform="scale(1, -1) translate(0, -900)">
    <style type="text/css">
        .stroke1 {fill: #808080;}
        .stroke2 {fill: #808079;}
        .stroke3 {fill: #808078;}
        .stroke4 {fill: #808077;}
        .stroke5 {fill: #808076;}
        .stroke6 {fill: #808075;}
        .stroke7 {fill: #808074;}
        .stroke8 {fill: #808073;}
        .stroke9 {fill: #808072;}
        .stroke10 {fill: #808071;}
        .stroke11 {fill: #808070;}
        .stroke12 {fill: #808069;}
        .stroke13 {fill: #808068;}
        .stroke14 {fill: #808067;}
        .stroke15 {fill: #808066;}
        .stroke16 {fill: #808065;}
        .stroke17 {fill: #808064;}
        .stroke18 {fill: #808063;}
        .stroke19 {fill: #808062;}
        .stroke20 {fill: #808061;}
        text {
            font-family: Helvetica;
            font-size: 50px;
            fill: #808060;
            paint-order: stroke;
            stroke: #000000;
            stroke-width: 4px;
            stroke-linecap: butt;
            stroke-linejoin: miter;
            font-weight: 800;
        }
    </style>

    <path d="M 263 512 Q 303 567 349 638 Q 377 689 402 713 Q 412 723 407 738 Q 403 751 374 776 Q 346 795 326 795 Q 307 794 315 770 Q 330 736 316 708 Q 276 614 216 526 Q 158 441 79 348 Q 69 338 66 331 Q 62 319 77 322 Q 110 325 236 477 L 263 512 Z" class="stroke1"/>
    <path d="M 236 477 Q 237 471 242 466 Q 275 400 255 214 Q 248 160 234 103 Q 224 58 258 7 Q 259 7 261 4 Q 279 -12 291 15 Q 306 55 305 102 Q 301 367 309 428 Q 316 455 307 466 Q 268 508 263 512 C 242 533 222 504 236 477 Z" class="stroke2"/>
    <path d="M 660 509 Q 678 734 691 779 Q 694 789 676 802 Q 645 820 622 824 Q 607 827 600 819 Q 593 812 600 798 Q 619 773 619 755 Q 626 637 621 499 C 620 469 658 479 660 509 Z" class="stroke3"/>
    <path d="M 460 629 Q 497 575 527 555 Q 539 551 548 561 Q 555 571 554 585 Q 548 627 475 659 Q 462 665 454 662 Q 448 662 449 652 Q 449 642 460 629 Z" class="stroke4"/>
    <path d="M 790 710 Q 781 695 715 611 Q 705 593 722 597 Q 750 612 834 663 Q 853 679 879 691 Q 901 701 890 720 Q 877 738 849 753 Q 824 768 811 765 Q 798 764 801 749 Q 805 730 790 710 Z" class="stroke5"/>
    <path d="M 535 255 Q 536 312 541 352 L 543 376 Q 546 436 550 460 C 552 479 552 479 540 489 Q 516 513 486 510 Q 473 506 478 494 Q 527 377 475 162 Q 468 137 457 118 Q 441 91 462 47 Q 465 41 471 34 Q 478 21 488 26 Q 531 54 532 190 Q 532 208 534 225 L 535 255 Z" class="stroke6"/>
    <path d="M 550 460 Q 563 460 708 490 Q 729 494 734 484 Q 744 448 752 253 Q 755 82 744 65 Q 740 61 722 64 Q 697 71 671 78 Q 652 85 652 75 Q 704 24 734 -13 Q 747 -32 762 -37 Q 772 -41 780 -31 Q 822 17 820 72 Q 786 424 811 473 Q 824 492 811 503 Q 789 522 752 537 Q 734 544 718 536 Q 684 520 660 509 L 621 499 Q 588 495 540 489 C 510 485 520 456 550 460 Z" class="stroke7"/>
    <path d="M 541 352 Q 571 343 648 356 Q 693 365 700 368 Q 707 375 703 382 Q 696 392 671 397 Q 656 400 585 382 Q 566 378 543 376 C 513 373 512 359 541 352 Z" class="stroke8"/>
    <path d="M 534 225 Q 550 221 685 237 Q 707 241 710 244 Q 717 251 714 258 Q 708 268 684 275 Q 659 282 632 272 Q 608 266 582 261 Q 560 258 535 255 C 505 251 504 228 534 225 Z" class="stroke9"/>
    
    
    
    
    
    
    
    
    </g>
</svg>