<svg version="1.1" viewBox="0 0 1024 1024" xmlns="http://www.w3.org/2000/svg">
  
  <g transform="scale(1, -1) translate(0, -900)">
    <style type="text/css">
        .stroke1 {fill: #808080;}
        .stroke2 {fill: #808079;}
        .stroke3 {fill: #808078;}
        .stroke4 {fill: #808077;}
        .stroke5 {fill: #808076;}
        .stroke6 {fill: #808075;}
        .stroke7 {fill: #808074;}
        .stroke8 {fill: #808073;}
        .stroke9 {fill: #808072;}
        .stroke10 {fill: #808071;}
        .stroke11 {fill: #808070;}
        .stroke12 {fill: #808069;}
        .stroke13 {fill: #808068;}
        .stroke14 {fill: #808067;}
        .stroke15 {fill: #808066;}
        .stroke16 {fill: #808065;}
        .stroke17 {fill: #808064;}
        .stroke18 {fill: #808063;}
        .stroke19 {fill: #808062;}
        .stroke20 {fill: #808061;}
        text {
            font-family: Helvetica;
            font-size: 50px;
            fill: #808060;
            paint-order: stroke;
            stroke: #000000;
            stroke-width: 4px;
            stroke-linecap: butt;
            stroke-linejoin: miter;
            font-weight: 800;
        }
    </style>

    <path d="M 534 782 Q 553 810 554 812 Q 553 822 539 836 Q 503 867 471 863 Q 461 862 464 848 Q 474 746 319 570 Q 229 482 126 396 Q 116 392 128 388 Q 203 397 344 531 Q 432 627 521 762 L 534 782 Z" class="stroke1"/>
    <path d="M 521 762 Q 753 515 811 505 Q 907 505 964 517 Q 982 518 983 524 Q 986 531 971 536 Q 914 558 848 580 Q 698 634 537 780 Q 534 781 534 782 C 511 801 500 784 521 762 Z" class="stroke2"/>
    <path d="M 488 614 Q 518 578 544 564 Q 556 563 564 573 Q 568 583 567 597 Q 557 631 514 641 Q 487 651 477 647 Q 473 646 474 636 Q 475 626 488 614 Z" class="stroke3"/>
    <path d="M 579 284 Q 594 262 609 253 Q 619 246 634 266 Q 649 290 682 422 Q 689 453 713 477 Q 726 489 714 502 Q 699 518 657 544 Q 639 553 573 532 Q 543 532 435 496 Q 431 496 429 494 C 401 485 416 452 444 462 Q 592 516 623 499 Q 636 489 632 469 Q 604 331 589 316 C 574 290 574 290 579 284 Z" class="stroke4"/>
    <path d="M 423 364 Q 429 363 440 364 Q 510 374 563 381 Q 585 385 577 397 Q 567 410 543 415 Q 516 418 428 388 C 400 378 393 367 423 364 Z" class="stroke5"/>
    <path d="M 399 261 Q 406 260 418 262 Q 508 275 579 284 C 609 288 617 305 589 316 Q 577 328 406 287 C 377 280 369 262 399 261 Z" class="stroke6"/>
    <path d="M 429 494 Q 392 519 379 518 Q 360 517 373 495 Q 394 444 349 247 Q 333 196 300 140 Q 269 83 178 16 Q 165 6 160 0 Q 157 -6 168 -7 Q 205 -10 278 49 Q 357 121 399 261 L 406 287 Q 415 323 423 364 L 428 388 Q 432 410 436 434 Q 442 452 444 462 C 449 481 449 481 429 494 Z" class="stroke7"/>
    <path d="M 424 167 Q 412 171 400 173 Q 388 176 385 171 Q 378 165 387 149 Q 412 98 427 17 Q 430 -8 444 -24 Q 462 -46 467 -31 Q 468 -24 470 -15 L 469 18 Q 469 19 469 22 Q 456 109 455 134 C 454 158 453 158 424 167 Z" class="stroke8"/>
    <path d="M 715 34 Q 748 115 781 135 Q 800 153 785 172 Q 769 187 717 215 Q 698 224 676 216 Q 543 168 424 167 C 394 166 426 128 455 134 Q 471 138 653 169 Q 675 173 685 164 Q 694 154 690 136 Q 677 87 663 45 C 654 16 703 6 715 34 Z" class="stroke9"/>
    <path d="M 470 -15 Q 476 -16 487 -15 Q 562 -2 722 2 Q 732 3 734 12 Q 735 19 715 34 L 663 45 Q 662 46 660 45 Q 554 26 469 18 C 439 15 440 -13 470 -15 Z" class="stroke10"/>
    
    
    
    
    
    
    
    
    
    </g>
</svg>