<svg version="1.1" viewBox="0 0 1024 1024" xmlns="http://www.w3.org/2000/svg">
  
  <g transform="scale(1, -1) translate(0, -900)">
    <style type="text/css">
        .stroke1 {fill: #808080;}
        .stroke2 {fill: #808079;}
        .stroke3 {fill: #808078;}
        .stroke4 {fill: #808077;}
        .stroke5 {fill: #808076;}
        .stroke6 {fill: #808075;}
        .stroke7 {fill: #808074;}
        .stroke8 {fill: #808073;}
        .stroke9 {fill: #808072;}
        .stroke10 {fill: #808071;}
        .stroke11 {fill: #808070;}
        .stroke12 {fill: #808069;}
        .stroke13 {fill: #808068;}
        .stroke14 {fill: #808067;}
        .stroke15 {fill: #808066;}
        .stroke16 {fill: #808065;}
        .stroke17 {fill: #808064;}
        .stroke18 {fill: #808063;}
        .stroke19 {fill: #808062;}
        .stroke20 {fill: #808061;}
        text {
            font-family: Helvetica;
            font-size: 50px;
            fill: #808060;
            paint-order: stroke;
            stroke: #000000;
            stroke-width: 4px;
            stroke-linecap: butt;
            stroke-linejoin: miter;
            font-weight: 800;
        }
    </style>

    <path d="M 262 555 Q 299 610 341 681 Q 368 733 393 760 Q 403 772 397 786 Q 393 799 361 823 Q 333 842 312 841 Q 291 838 301 815 Q 317 781 305 752 Q 241 581 74 373 Q 64 363 62 355 Q 58 343 73 346 Q 115 355 215 492 L 235 518 L 262 555 Z" class="stroke1"/>
    <path d="M 235 518 Q 236 512 241 507 Q 274 438 249 241 Q 240 183 225 123 Q 210 74 247 26 Q 248 23 252 20 Q 271 4 283 32 Q 298 74 298 122 Q 299 405 310 469 Q 317 497 307 508 Q 289 530 275 544 Q 269 551 262 555 C 239 574 221 545 235 518 Z" class="stroke2"/>
    <path d="M 564 750 Q 591 750 785 805 Q 789 808 792 809 Q 799 816 795 823 Q 788 832 765 837 Q 740 840 717 829 Q 677 813 634 800 Q 592 790 545 780 C 516 774 534 747 564 750 Z" class="stroke3"/>
    <path d="M 554 473 Q 554 513 554 547 L 554 573 Q 554 613 556 643 L 558 671 Q 559 722 564 736 Q 565 743 564 750 C 564 766 564 766 545 780 Q 526 795 503 803 Q 490 810 480 803 Q 471 797 477 781 Q 498 738 505 692 Q 509 646 512 465 C 513 435 554 443 554 473 Z" class="stroke4"/>
    <path d="M 556 643 Q 560 643 568 644 Q 662 663 732 677 Q 754 681 745 693 Q 735 706 711 710 Q 689 711 558 671 C 529 662 526 641 556 643 Z" class="stroke5"/>
    <path d="M 554 547 Q 558 546 567 547 Q 658 563 727 573 Q 749 577 741 589 Q 731 602 707 607 Q 683 610 554 573 C 525 565 524 549 554 547 Z" class="stroke6"/>
    <path d="M 476 422 Q 651 471 876 472 Q 897 472 900 481 Q 904 491 889 503 Q 843 536 808 527 Q 799 526 554 473 L 512 465 Q 442 455 366 440 Q 347 437 362 423 Q 375 411 391 407 Q 409 404 434 411 L 476 422 Z" class="stroke7"/>
    <path d="M 502 398 Q 484 416 476 422 C 453 442 422 438 434 411 Q 453 374 451 340 Q 452 192 439 144 Q 435 113 420 96 Q 407 74 415 50 Q 425 16 444 4 Q 454 -5 468 15 Q 502 58 619 166 Q 638 182 639 190 Q 640 203 619 191 Q 502 128 495 130 Q 488 134 488 154 Q 497 365 507 375 C 511 389 511 389 502 398 Z" class="stroke8"/>
    <path d="M 672 280 Q 705 314 787 367 Q 805 374 799 385 Q 792 401 770 417 Q 748 433 725 433 Q 709 432 713 411 Q 719 390 662 293 Q 661 292 660 289 C 646 262 651 259 672 280 Z" class="stroke9"/>
    <path d="M 660 289 Q 611 331 552 386 Q 539 402 520 402 Q 510 402 502 398 C 477 392 481 390 507 375 Q 538 359 560 332 Q 689 193 791 99 Q 810 80 837 84 Q 934 99 972 110 Q 988 113 993 122 Q 997 129 986 132 Q 806 177 717 245 Q 695 261 672 280 L 660 289 Z" class="stroke10"/>
    
    
    
    
    
    
    
    
    
    </g>
</svg>