<svg version="1.1" viewBox="0 0 1024 1024" xmlns="http://www.w3.org/2000/svg">
  
  <g transform="scale(1, -1) translate(0, -900)">
    <style type="text/css">
        .stroke1 {fill: #808080;}
        .stroke2 {fill: #808079;}
        .stroke3 {fill: #808078;}
        .stroke4 {fill: #808077;}
        .stroke5 {fill: #808076;}
        .stroke6 {fill: #808075;}
        .stroke7 {fill: #808074;}
        .stroke8 {fill: #808073;}
        .stroke9 {fill: #808072;}
        .stroke10 {fill: #808071;}
        .stroke11 {fill: #808070;}
        .stroke12 {fill: #808069;}
        .stroke13 {fill: #808068;}
        .stroke14 {fill: #808067;}
        .stroke15 {fill: #808066;}
        .stroke16 {fill: #808065;}
        .stroke17 {fill: #808064;}
        .stroke18 {fill: #808063;}
        .stroke19 {fill: #808062;}
        .stroke20 {fill: #808061;}
        text {
            font-family: Helvetica;
            font-size: 50px;
            fill: #808060;
            paint-order: stroke;
            stroke: #000000;
            stroke-width: 4px;
            stroke-linecap: butt;
            stroke-linejoin: miter;
            font-weight: 800;
        }
    </style>

    <path d="M 219 521 Q 265 581 314 665 Q 339 711 361 733 Q 370 745 365 759 Q 361 772 330 795 Q 302 814 281 813 Q 262 810 271 788 Q 284 761 266 709 Q 206 568 74 396 Q 64 386 62 379 Q 58 367 73 370 Q 106 379 192 486 L 219 521 Z" class="stroke1"/>
    <path d="M 192 486 Q 225 419 201 241 Q 194 189 180 135 Q 168 84 202 45 Q 203 42 206 40 Q 222 24 234 50 Q 249 90 248 135 Q 251 387 260 443 Q 267 470 258 480 Q 222 519 219 521 C 198 542 180 514 192 486 Z" class="stroke2"/>
    <path d="M 383 576 Q 401 595 438 639 L 449 653 Q 492 719 502 726 Q 509 733 505 745 Q 502 755 480 772 Q 461 785 445 786 Q 432 785 437 767 Q 450 737 396 646 Q 369 603 333 556 Q 326 549 324 543 Q 321 534 332 537 Q 333 537 370 564 L 383 576 Z" class="stroke3"/>
    <path d="M 438 639 Q 447 632 471 636 Q 516 648 519 642 Q 523 630 505 589 Q 490 543 440 482 Q 392 416 311 354 Q 292 342 308 343 Q 420 352 547 575 Q 571 626 586 636 Q 596 643 591 653 Q 587 662 545 679 Q 535 683 518 674 Q 497 664 449 653 C 420 646 416 645 438 639 Z" class="stroke4"/>
    <path d="M 370 564 Q 371 563 373 559 Q 406 511 426 507 Q 436 506 441 518 Q 442 528 437 543 Q 422 567 383 576 C 358 582 358 582 370 564 Z" class="stroke5"/>
    <path d="M 776 647 Q 801 654 830 660 Q 852 666 856 669 Q 863 676 859 683 Q 852 692 829 697 Q 804 701 781 690 Q 778 689 778 688 C 757 676 757 676 732 674 Q 729 675 728 674 Q 697 667 662 662 Q 632 656 654 644 Q 687 626 733 638 L 776 647 Z" class="stroke6"/>
    <path d="M 768 480 Q 831 489 873 487 Q 892 487 892 497 Q 893 507 863 522 Q 838 537 798 521 Q 792 521 770 515 L 732 508 Q 711 505 692 501 Q 670 494 660 497 Q 650 501 652 512 Q 656 533 663 554 Q 670 573 655 590 Q 631 617 614 617 Q 598 618 604 601 Q 626 558 618 518 Q 611 502 607 499 Q 597 484 604 472 Q 616 451 626 450 Q 633 450 652 458 Q 685 468 731 475 L 768 480 Z" class="stroke7"/>
    <path d="M 731 475 Q 727 415 737 390 Q 741 380 750 386 Q 768 399 768 480 L 770 515 Q 773 585 776 647 L 778 688 Q 781 731 786 751 Q 793 769 782 779 Q 769 791 744 803 Q 725 810 704 802 Q 694 795 706 781 Q 727 745 732 674 L 733 638 Q 734 563 732 508 L 731 475 Z" class="stroke8"/>
    <path d="M 617 280 Q 707 292 818 292 Q 836 293 840 301 Q 844 311 829 323 Q 778 359 711 338 Q 671 329 619 318 L 568 309 Q 480 294 374 276 Q 355 275 370 259 Q 383 247 399 243 Q 418 239 433 243 Q 494 262 568 273 L 617 280 Z" class="stroke9"/>
    <path d="M 568 273 Q 569 78 552 64 Q 542 58 474 75 Q 462 78 463 70 Q 464 64 473 56 Q 537 -4 557 -38 Q 570 -54 585 -41 Q 621 -11 620 58 Q 619 88 617 280 L 619 318 Q 622 340 629 357 Q 636 375 622 387 Q 597 408 569 418 Q 551 424 544 417 Q 538 411 548 396 Q 567 362 568 309 L 568 273 Z" class="stroke10"/>
    <path d="M 418 198 Q 391 152 357 110 Q 336 86 347 52 Q 351 36 372 45 Q 423 75 434 146 Q 441 174 438 196 Q 435 203 430 205 Q 423 205 418 198 Z" class="stroke11"/>
    <path d="M 711 197 Q 759 148 815 77 Q 830 56 845 51 Q 852 50 861 58 Q 874 71 864 115 Q 855 157 791 189 Q 781 199 714 227 Q 705 233 703 221 Q 702 208 711 197 Z" class="stroke12"/>
    
    
    
    
    
    
    
    
    
    
    
    </g>
</svg>