<svg version="1.1" viewBox="0 0 1024 1024" xmlns="http://www.w3.org/2000/svg">
  
  <g transform="scale(1, -1) translate(0, -900)">
    <style type="text/css">
        .stroke1 {fill: #808080;}
        .stroke2 {fill: #808079;}
        .stroke3 {fill: #808078;}
        .stroke4 {fill: #808077;}
        .stroke5 {fill: #808076;}
        .stroke6 {fill: #808075;}
        .stroke7 {fill: #808074;}
        .stroke8 {fill: #808073;}
        .stroke9 {fill: #808072;}
        .stroke10 {fill: #808071;}
        .stroke11 {fill: #808070;}
        .stroke12 {fill: #808069;}
        .stroke13 {fill: #808068;}
        .stroke14 {fill: #808067;}
        .stroke15 {fill: #808066;}
        .stroke16 {fill: #808065;}
        .stroke17 {fill: #808064;}
        .stroke18 {fill: #808063;}
        .stroke19 {fill: #808062;}
        .stroke20 {fill: #808061;}
        text {
            font-family: Helvetica;
            font-size: 50px;
            fill: #808060;
            paint-order: stroke;
            stroke: #000000;
            stroke-width: 4px;
            stroke-linecap: butt;
            stroke-linejoin: miter;
            font-weight: 800;
        }
    </style>

    <path d="M 220 480 Q 271 547 327 643 Q 355 695 380 721 Q 390 733 384 747 Q 380 760 349 783 Q 321 802 301 801 Q 282 800 291 776 Q 307 742 294 713 Q 255 614 195 522 Q 137 434 58 336 Q 48 326 46 319 Q 42 307 57 310 Q 99 320 197 450 L 220 480 Z" class="stroke1"/>
    <path d="M 197 450 Q 218 378 220 356 Q 220 211 194 107 Q 184 62 218 11 Q 219 11 221 8 Q 239 -8 251 19 Q 266 59 265 106 Q 265 340 273 392 Q 280 419 271 430 Q 228 476 220 480 C 197 499 189 479 197 450 Z" class="stroke2"/>
    <path d="M 464 578 Q 569 728 569 736 Q 568 739 568 741 Q 564 751 539 772 Q 515 788 499 787 Q 483 786 490 767 Q 500 743 492 723 Q 465 656 424 591 Q 384 530 330 463 Q 321 454 319 449 Q 316 439 328 441 Q 358 445 435 541 Q 436 544 440 547 L 464 578 Z" class="stroke3"/>
    <path d="M 502 253 Q 503 262 503 271 Q 500 460 506 502 Q 513 527 504 536 Q 488 555 476 567 Q 470 574 464 578 C 441 598 429 575 440 547 Q 458 508 458 440 Q 458 350 440 272 Q 430 230 459 188 Q 460 185 463 183 Q 479 168 490 193 Q 494 208 498 223 L 502 253 Z" class="stroke4"/>
    <path d="M 646 752 Q 674 728 702 700 Q 714 688 727 689 Q 737 689 741 701 Q 745 714 738 739 Q 734 758 704 773 Q 640 800 624 795 Q 620 791 621 780 Q 624 770 646 752 Z" class="stroke5"/>
    <path d="M 662 563 Q 813 605 816 606 Q 823 613 819 621 Q 812 631 785 637 Q 757 641 731 630 Q 692 614 649 602 Q 603 590 547 582 Q 514 575 538 561 Q 580 540 627 555 L 662 563 Z" class="stroke6"/>
    <path d="M 689 452 Q 732 465 773 472 Q 795 478 785 489 Q 775 502 750 505 Q 728 506 692 493 L 641 475 Q 598 462 558 449 Q 542 445 562 431 Q 572 424 595 430 Q 617 436 641 441 L 689 452 Z" class="stroke7"/>
    <path d="M 683 349 Q 734 361 780 369 Q 802 373 793 385 Q 783 398 759 402 Q 731 403 686 389 L 641 375 Q 587 362 542 348 Q 526 344 546 331 Q 558 324 582 328 Q 612 335 641 340 L 683 349 Z" class="stroke8"/>
    <path d="M 680 282 Q 681 316 683 349 L 686 389 Q 687 423 689 452 L 692 493 Q 696 532 692 539 Q 676 555 662 563 C 637 579 615 583 627 555 Q 640 528 641 475 L 641 441 Q 641 414 641 375 L 641 340 Q 641 312 641 275 C 641 245 679 252 680 282 Z" class="stroke9"/>
    <path d="M 498 223 Q 522 216 539 220 Q 656 256 853 256 L 855 256 Q 871 256 875 264 Q 879 274 866 284 Q 818 318 766 301 Q 729 294 680 282 L 641 275 Q 575 266 502 253 C 472 248 469 230 498 223 Z" class="stroke10"/>
    <path d="M 399 146 Q 372 100 337 61 Q 315 31 327 -2 Q 331 -21 353 -11 Q 404 20 417 88 Q 426 119 422 143 Q 418 152 413 154 Q 404 154 399 146 Z" class="stroke11"/>
    <path d="M 512 113 Q 525 82 539 48 Q 545 33 557 29 Q 564 25 573 33 Q 582 43 586 68 Q 587 98 525 150 Q 515 157 509 158 Q 503 157 500 147 Q 499 137 512 113 Z" class="stroke12"/>
    <path d="M 650 124 Q 669 99 691 68 Q 700 55 713 52 Q 723 51 729 61 Q 736 73 734 99 Q 733 118 708 136 Q 648 175 636 171 Q 632 168 630 157 Q 631 147 650 124 Z" class="stroke13"/>
    <path d="M 781 152 Q 821 103 869 32 Q 882 10 896 4 Q 905 1 913 10 Q 926 22 921 66 Q 918 106 852 146 Q 810 171 786 182 Q 779 189 775 177 Q 772 164 781 152 Z" class="stroke14"/>
    
    
    
    
    
    
    
    
    
    
    
    
    
    </g>
</svg>