<svg version="1.1" viewBox="0 0 1024 1024" xmlns="http://www.w3.org/2000/svg">
  
  <g transform="scale(1, -1) translate(0, -900)">
    <style type="text/css">
        .stroke1 {fill: #808080;}
        .stroke2 {fill: #808079;}
        .stroke3 {fill: #808078;}
        .stroke4 {fill: #808077;}
        .stroke5 {fill: #808076;}
        .stroke6 {fill: #808075;}
        .stroke7 {fill: #808074;}
        .stroke8 {fill: #808073;}
        .stroke9 {fill: #808072;}
        .stroke10 {fill: #808071;}
        .stroke11 {fill: #808070;}
        .stroke12 {fill: #808069;}
        .stroke13 {fill: #808068;}
        .stroke14 {fill: #808067;}
        .stroke15 {fill: #808066;}
        .stroke16 {fill: #808065;}
        .stroke17 {fill: #808064;}
        .stroke18 {fill: #808063;}
        .stroke19 {fill: #808062;}
        .stroke20 {fill: #808061;}
        text {
            font-family: Helvetica;
            font-size: 50px;
            fill: #808060;
            paint-order: stroke;
            stroke: #000000;
            stroke-width: 4px;
            stroke-linecap: butt;
            stroke-linejoin: miter;
            font-weight: 800;
        }
    </style>

    <path d="M 223 502 Q 268 566 315 656 Q 337 705 360 731 Q 369 743 363 756 Q 357 769 326 791 Q 296 807 276 806 Q 257 802 267 780 Q 280 756 270 710 Q 213 553 81 365 Q 71 353 69 347 Q 66 334 81 338 Q 117 353 201 470 L 223 502 Z" class="stroke1"/>
    <path d="M 201 470 Q 204 460 210 450 Q 241 392 222 201 Q 215 147 202 91 Q 192 46 226 -5 Q 227 -5 229 -8 Q 247 -24 259 3 Q 274 43 273 90 Q 269 352 277 412 Q 284 439 275 450 Q 230 498 223 502 C 200 522 190 498 201 470 Z" class="stroke2"/>
    <path d="M 425 718 Q 415 722 394 723 Q 384 726 380 721 Q 376 715 384 701 Q 415 640 438 539 Q 442 509 461 489 Q 477 471 482 485 L 484 497 L 483 523 L 446 686 C 440 714 440 714 425 718 Z" class="stroke3"/>
    <path d="M 725 538 Q 725 537 726 535 Q 732 520 744 521 Q 757 522 764 537 Q 777 553 798 630 Q 814 679 848 708 Q 867 724 851 738 Q 835 754 786 780 Q 770 790 751 782 Q 720 775 685 768 L 633 759 Q 596 753 563 745 L 516 736 Q 464 726 425 718 C 396 712 418 675 446 686 Q 452 692 521 707 L 563 716 Q 593 723 632 729 L 681 737 Q 735 749 755 739 Q 765 733 759 703 Q 738 591 728 568 Q 727 568 727 567 C 719 546 719 546 725 538 Z" class="stroke4"/>
    <path d="M 667 635 Q 683 639 701 642 Q 720 646 713 657 Q 703 670 681 673 Q 677 674 672 673 L 629 665 Q 625 665 623 664 Q 593 655 568 646 L 531 635 Q 509 631 490 624 Q 475 620 494 607 Q 504 600 525 605 Q 529 606 534 607 L 570 615 Q 598 622 627 627 L 667 635 Z" class="stroke5"/>
    <path d="M 563 745 Q 562 764 564 770 Q 565 789 553 800 Q 532 815 508 822 Q 496 826 488 820 Q 482 814 488 802 Q 506 771 516 736 L 521 707 Q 525 682 531 635 L 534 607 Q 537 576 542 535 C 546 505 580 513 577 543 Q 573 582 570 615 L 568 646 Q 565 706 563 716 L 563 745 Z" class="stroke6"/>
    <path d="M 685 768 Q 689 787 693 800 Q 697 813 701 824 Q 705 833 689 847 Q 661 865 640 870 Q 627 874 620 867 Q 613 860 619 848 Q 635 820 633 759 L 632 729 Q 631 698 629 665 L 627 627 Q 623 593 620 553 C 618 523 654 532 657 562 Q 661 599 667 635 L 672 673 Q 676 706 681 737 L 685 768 Z" class="stroke7"/>
    <path d="M 484 497 Q 491 497 503 498 Q 627 523 725 538 C 755 543 755 556 727 567 Q 726 568 719 570 Q 683 576 657 562 L 620 553 Q 598 549 577 543 L 542 535 Q 511 531 483 523 C 454 515 454 496 484 497 Z" class="stroke8"/>
    <path d="M 484 397 Q 517 397 630 418 Q 769 449 775 453 Q 782 460 778 467 Q 772 476 749 482 Q 728 486 618 452 Q 576 440 481 426 C 451 422 454 396 484 397 Z" class="stroke9"/>
    <path d="M 454 257 Q 466 303 478 375 Q 479 387 484 397 C 491 417 491 417 481 426 Q 471 439 450 448 Q 435 458 424 455 Q 414 449 419 438 Q 431 416 425 363 Q 419 258 382 169 Q 352 99 299 26 Q 295 20 292 16 Q 291 7 298 8 Q 331 14 390 103 Q 394 113 401 122 Q 422 161 450 243 L 454 257 Z" class="stroke10"/>
    <path d="M 518 348 Q 502 344 522 331 Q 532 324 551 329 Q 644 348 712 361 Q 734 365 725 377 Q 715 390 691 394 Q 670 395 518 348 Z" class="stroke11"/>
    <path d="M 593 253 Q 699 278 791 295 Q 813 299 805 312 Q 795 327 769 331 Q 745 334 704 322 Q 571 286 454 257 C 436 253 436 253 450 243 Q 456 237 471 232 L 519 237 Q 541 243 565 247 L 593 253 Z" class="stroke12"/>
    <path d="M 471 232 Q 487 201 486 171 Q 487 80 480 49 Q 476 21 463 6 Q 450 -15 459 -35 Q 469 -66 485 -78 Q 495 -85 507 -67 Q 537 -30 636 65 Q 652 78 654 86 Q 655 99 636 88 Q 599 67 557 45 Q 539 33 531 37 Q 524 41 524 59 Q 530 171 536 199 Q 540 223 519 237 C 497 257 458 259 471 232 Z" class="stroke13"/>
    <path d="M 729 155 Q 748 165 764 174 Q 810 204 833 211 Q 851 218 843 232 Q 834 247 814 260 Q 796 273 786 271 Q 776 271 778 260 Q 779 239 739 197 Q 726 184 710 167 C 689 145 702 141 729 155 Z" class="stroke14"/>
    <path d="M 710 167 Q 665 194 593 253 C 570 272 544 268 565 247 Q 772 40 789 33 Q 838 14 964 42 Q 982 45 983 50 Q 984 57 970 62 Q 922 78 866 93 Q 809 111 729 155 L 710 167 Z" class="stroke15"/>
    
    
    
    
    
    
    
    
    
    
    
    
    
    
    </g>
</svg>