<svg version="1.1" viewBox="0 0 1024 1024" xmlns="http://www.w3.org/2000/svg">
  
  <g transform="scale(1, -1) translate(0, -900)">
    <style type="text/css">
        .stroke1 {fill: #808080;}
        .stroke2 {fill: #808079;}
        .stroke3 {fill: #808078;}
        .stroke4 {fill: #808077;}
        .stroke5 {fill: #808076;}
        .stroke6 {fill: #808075;}
        .stroke7 {fill: #808074;}
        .stroke8 {fill: #808073;}
        .stroke9 {fill: #808072;}
        .stroke10 {fill: #808071;}
        .stroke11 {fill: #808070;}
        .stroke12 {fill: #808069;}
        .stroke13 {fill: #808068;}
        .stroke14 {fill: #808067;}
        .stroke15 {fill: #808066;}
        .stroke16 {fill: #808065;}
        .stroke17 {fill: #808064;}
        .stroke18 {fill: #808063;}
        .stroke19 {fill: #808062;}
        .stroke20 {fill: #808061;}
        text {
            font-family: Helvetica;
            font-size: 50px;
            fill: #808060;
            paint-order: stroke;
            stroke: #000000;
            stroke-width: 4px;
            stroke-linecap: butt;
            stroke-linejoin: miter;
            font-weight: 800;
        }
    </style>

    <path d="M 210 521 Q 253 575 300 651 Q 322 693 344 713 Q 353 725 348 739 Q 344 752 314 775 Q 286 794 266 794 Q 247 791 255 769 Q 267 742 249 696 Q 195 564 71 408 Q 61 398 58 391 Q 54 379 69 382 Q 102 391 182 487 L 210 521 Z" class="stroke1"/>
    <path d="M 182 487 Q 201 439 202 376 Q 192 238 190 229 Q 181 177 166 123 Q 156 78 190 27 Q 191 27 193 24 Q 211 8 223 35 Q 238 75 237 122 Q 247 378 257 436 Q 264 463 255 474 Q 213 519 210 521 C 189 542 172 515 182 487 Z" class="stroke2"/>
    <path d="M 551 801 Q 572 783 594 762 Q 607 749 622 751 Q 632 752 637 764 Q 641 779 632 807 Q 626 823 600 834 Q 534 852 524 847 Q 520 843 521 831 Q 525 821 551 801 Z" class="stroke3"/>
    <path d="M 378 667 Q 360 666 374 651 Q 387 639 402 635 Q 420 631 434 636 Q 576 682 797 682 L 799 682 Q 815 683 820 690 Q 824 700 810 712 Q 756 748 716 731 Q 632 712 378 667 Z" class="stroke4"/>
    <path d="M 481 602 Q 514 554 533 551 Q 543 550 549 563 Q 550 573 545 589 Q 532 610 486 623 Q 479 624 477 615 Q 476 609 481 602 Z" class="stroke5"/>
    <path d="M 588 514 Q 615 538 655 578 Q 667 593 683 604 Q 698 614 687 626 Q 674 636 653 644 Q 634 651 624 647 Q 615 644 620 634 Q 624 619 577 521 C 564 494 566 494 588 514 Z" class="stroke6"/>
    <path d="M 577 521 L 563 529 Q 553 532 546 528 Q 540 524 543 512 Q 559 473 547 369 Q 544 348 562 322 Q 569 315 577 323 Q 589 341 591 393 Q 591 454 598 489 Q 602 505 588 514 L 577 521 Z" class="stroke7"/>
    <path d="M 370 479 Q 401 492 432 497 Q 441 498 443 496 Q 449 489 448 466 Q 448 405 437 377 Q 427 355 406 356 Q 390 360 375 365 Q 356 371 370 353 Q 400 322 414 297 Q 427 284 438 295 Q 480 325 494 454 Q 497 485 508 501 Q 517 511 511 519 Q 504 526 463 542 Q 447 546 433 536 Q 397 511 301 494 Q 288 493 286 486 Q 285 479 304 472 Q 323 462 337 468 Q 343 471 350 473 L 370 479 Z" class="stroke8"/>
    <path d="M 350 473 L 351 471 Q 351 470 352 467 Q 359 425 281 328 Q 277 325 277 321 Q 277 318 281 318 Q 330 334 381 420 Q 388 433 394 440 Q 398 447 393 455 Q 377 479 370 479 C 344 491 344 491 350 473 Z" class="stroke9"/>
    <path d="M 733 531 Q 737 535 742 537 Q 760 547 777 559 Q 792 571 810 577 Q 826 584 819 598 Q 809 611 790 623 Q 774 635 763 633 Q 753 632 756 622 Q 756 603 678 516 C 658 494 663 490 689 506 Q 705 516 719 523 L 733 531 Z" class="stroke10"/>
    <path d="M 678 516 Q 666 526 656 528 Q 649 529 644 526 Q 638 522 645 513 Q 675 459 647 399 Q 646 398 645 396 Q 636 383 642 367 Q 649 346 661 338 Q 668 334 677 346 Q 692 367 745 421 Q 757 431 757 436 Q 758 445 745 437 Q 697 416 692 417 Q 683 426 692 489 Q 693 499 689 506 L 678 516 Z" class="stroke11"/>
    <path d="M 719 523 Q 728 493 835 359 Q 856 338 965 359 Q 971 362 972 365 Q 973 369 964 374 Q 843 428 733 531 C 711 551 708 551 719 523 Z" class="stroke12"/>
    <path d="M 391 253 Q 412 217 389 115 Q 383 100 376 81 Q 367 57 325 15 Q 312 5 308 -1 Q 305 -7 316 -7 Q 340 -8 383 24 Q 440 73 462 225 Q 469 243 451 252 Q 411 277 396 276 Q 378 275 391 253 Z" class="stroke13"/>
    <path d="M 691 299 Q 730 209 700 -7 Q 691 -46 723 -87 Q 733 -97 743 -86 Q 768 -44 764 7 Q 752 164 768 268 Q 775 292 753 304 Q 737 314 718 323 Q 705 327 695 322 Q 686 315 691 299 Z" class="stroke14"/>
    <path d="M 506 270 Q 478 266 498 252 Q 534 233 577 244 Q 608 250 642 256 Q 657 259 659 261 Q 666 268 662 275 Q 656 284 633 290 Q 620 293 550 275 Q 531 271 506 270 Z" class="stroke15"/>
    <path d="M 494 170 Q 466 166 486 151 Q 520 133 565 144 Q 667 165 675 169 Q 682 176 679 183 Q 672 192 649 198 Q 625 202 601 192 Q 552 177 494 170 Z" class="stroke16"/>
    
    
    
    
    
    
    
    
    
    
    
    
    
    
    
    </g>
</svg>