<svg version="1.1" viewBox="0 0 1024 1024" xmlns="http://www.w3.org/2000/svg">
  
  <g transform="scale(1, -1) translate(0, -900)">
    <style type="text/css">
        .stroke1 {fill: #808080;}
        .stroke2 {fill: #808079;}
        .stroke3 {fill: #808078;}
        .stroke4 {fill: #808077;}
        .stroke5 {fill: #808076;}
        .stroke6 {fill: #808075;}
        .stroke7 {fill: #808074;}
        .stroke8 {fill: #808073;}
        .stroke9 {fill: #808072;}
        .stroke10 {fill: #808071;}
        .stroke11 {fill: #808070;}
        .stroke12 {fill: #808069;}
        .stroke13 {fill: #808068;}
        .stroke14 {fill: #808067;}
        .stroke15 {fill: #808066;}
        .stroke16 {fill: #808065;}
        .stroke17 {fill: #808064;}
        .stroke18 {fill: #808063;}
        .stroke19 {fill: #808062;}
        .stroke20 {fill: #808061;}
        text {
            font-family: Helvetica;
            font-size: 50px;
            fill: #808060;
            paint-order: stroke;
            stroke: #000000;
            stroke-width: 4px;
            stroke-linecap: butt;
            stroke-linejoin: miter;
            font-weight: 800;
        }
    </style>

    <path d="M 254 509 Q 297 570 344 650 Q 371 704 396 729 Q 406 741 401 755 Q 397 768 366 791 Q 338 810 317 809 Q 298 808 307 784 Q 323 750 310 720 Q 271 620 212 528 Q 154 438 74 340 Q 64 330 62 323 Q 58 311 73 314 Q 113 324 225 472 L 254 509 Z" class="stroke1"/>
    <path d="M 225 472 Q 249 397 249 360 Q 249 192 221 71 Q 206 22 243 -26 Q 244 -29 248 -32 Q 267 -48 279 -20 Q 294 22 294 70 Q 290 359 298 425 Q 305 455 279 483 Q 273 489 254 509 C 233 531 216 501 225 472 Z" class="stroke2"/>
    <path d="M 766 531 Q 773 568 783 594 L 798 632 Q 798 635 800 635 Q 810 657 826 671 Q 841 690 826 705 Q 810 717 759 738 Q 743 745 722 736 Q 685 720 650 707 L 595 691 Q 537 678 475 667 Q 459 666 461 656 Q 465 649 482 643 Q 507 634 539 646 Q 567 653 597 660 L 649 673 Q 676 680 705 687 Q 726 693 735 684 Q 747 675 738 619 L 733 590 Q 727 565 722 540 C 716 511 760 502 766 531 Z" class="stroke3"/>
    <path d="M 783 594 Q 838 601 904 603 Q 967 606 972 613 Q 976 623 962 633 Q 917 664 863 647 Q 833 641 798 632 L 738 619 Q 659 609 646 601 L 598 593 Q 486 575 361 554 Q 345 551 357 539 Q 369 529 383 525 Q 399 521 412 525 Q 497 553 598 570 L 645 578 Q 684 585 733 590 L 783 594 Z" class="stroke4"/>
    <path d="M 640 483 Q 697 493 773 503 Q 783 504 784 513 Q 784 520 766 531 L 722 540 Q 716 540 712 538 Q 676 528 642 519 L 597 508 Q 536 495 481 486 Q 462 483 474 468 Q 481 461 490 457 Q 500 454 512 458 Q 545 467 597 476 L 640 483 Z" class="stroke5"/>
    <path d="M 637 430 Q 638 457 640 483 L 642 519 Q 643 549 645 578 L 646 601 Q 647 638 649 673 L 650 707 Q 650 729 667 806 Q 671 818 650 832 Q 614 851 590 855 Q 574 858 566 849 Q 559 842 567 827 Q 592 793 592 768 Q 593 731 595 691 L 597 660 Q 597 629 598 593 L 598 570 Q 597 540 597 508 L 597 476 Q 596 451 595 421 C 594 391 636 400 637 430 Z" class="stroke6"/>
    <path d="M 595 421 Q 531 409 459 396 Q 446 393 456 382 Q 474 367 517 375 Q 620 411 781 411 L 783 411 Q 796 412 799 417 Q 803 426 791 434 Q 749 464 708 446 Q 678 440 637 430 L 595 421 Z" class="stroke7"/>
    <path d="M 424 353 Q 408 322 385 295 Q 366 273 380 243 Q 384 228 402 237 Q 441 262 441 307 Q 447 332 443 352 Q 439 359 434 360 Q 427 360 424 353 Z" class="stroke8"/>
    <path d="M 520 324 Q 538 294 562 279 Q 572 276 580 285 Q 586 294 585 306 Q 582 324 570 334 Q 548 355 517 354 Q 514 355 513 354 Q 509 353 510 344 Q 510 337 520 324 Z" class="stroke9"/>
    <path d="M 636 336 Q 657 303 682 287 Q 692 284 700 293 Q 706 302 705 314 Q 702 332 690 342 Q 657 372 629 366 Q 625 365 626 356 Q 626 349 636 336 Z" class="stroke10"/>
    <path d="M 774 342 Q 795 323 817 301 Q 826 291 838 291 Q 845 291 850 301 Q 853 311 848 333 Q 842 357 772 377 Q 760 380 756 378 Q 752 375 753 366 Q 754 359 774 342 Z" class="stroke11"/>
    <path d="M 465 213 Q 452 217 434 220 Q 424 223 420 218 Q 416 212 423 198 Q 448 147 464 64 Q 465 49 471 36 C 482 8 506 9 505 39 Q 505 52 502 72 Q 487 156 484 183 C 481 208 481 208 465 213 Z" class="stroke12"/>
    <path d="M 787 67 Q 820 166 848 193 Q 867 214 841 231 Q 817 250 792 264 Q 780 273 719 255 Q 673 251 541 225 Q 498 218 465 213 C 435 208 455 174 484 183 Q 487 186 539 197 L 559 201 Q 587 208 640 213 L 687 218 Q 712 222 745 225 Q 757 226 761 220 Q 776 198 730 61 C 721 33 777 39 787 67 Z" class="stroke13"/>
    <path d="M 589 47 Q 589 48 590 49 Q 596 85 577 156 Q 574 165 572 175 Q 569 191 559 201 C 539 224 532 226 539 197 Q 539 196 540 194 Q 546 146 546 131 Q 549 68 566 45 C 582 21 582 21 589 47 Z" class="stroke14"/>
    <path d="M 649 52 Q 661 67 686 151 Q 690 167 700 190 Q 710 200 701 208 Q 697 214 687 218 C 660 231 629 241 640 213 Q 653 189 636 79 Q 632 63 634 51 C 636 32 636 32 649 52 Z" class="stroke15"/>
    <path d="M 471 36 Q 413 35 356 27 Q 337 26 350 10 Q 363 -3 378 -8 Q 397 -14 411 -10 Q 643 44 940 22 Q 941 23 943 22 Q 961 21 965 28 Q 971 38 956 52 Q 908 92 838 76 Q 814 73 787 67 L 730 61 Q 691 60 649 52 L 634 51 Q 610 50 589 47 L 566 45 Q 535 44 505 39 L 471 36 Z" class="stroke16"/>
    
    
    
    
    
    
    
    
    
    
    
    
    
    
    
    </g>
</svg>