<svg version="1.1" viewBox="0 0 1024 1024" xmlns="http://www.w3.org/2000/svg">
  
  <g transform="scale(1, -1) translate(0, -900)">
    <style type="text/css">
        .stroke1 {fill: #808080;}
        .stroke2 {fill: #808079;}
        .stroke3 {fill: #808078;}
        .stroke4 {fill: #808077;}
        .stroke5 {fill: #808076;}
        .stroke6 {fill: #808075;}
        .stroke7 {fill: #808074;}
        .stroke8 {fill: #808073;}
        .stroke9 {fill: #808072;}
        .stroke10 {fill: #808071;}
        .stroke11 {fill: #808070;}
        .stroke12 {fill: #808069;}
        .stroke13 {fill: #808068;}
        .stroke14 {fill: #808067;}
        .stroke15 {fill: #808066;}
        .stroke16 {fill: #808065;}
        .stroke17 {fill: #808064;}
        .stroke18 {fill: #808063;}
        .stroke19 {fill: #808062;}
        .stroke20 {fill: #808061;}
        text {
            font-family: Helvetica;
            font-size: 50px;
            fill: #808060;
            paint-order: stroke;
            stroke: #000000;
            stroke-width: 4px;
            stroke-linecap: butt;
            stroke-linejoin: miter;
            font-weight: 800;
        }
    </style>

    <path d="M 550 656 Q 631 668 779 680 Q 792 679 803 693 Q 804 706 778 720 Q 736 747 654 724 Q 437 685 289 671 Q 258 670 227 666 Q 193 663 218 641 Q 257 608 290 616 Q 384 632 503 649 L 550 656 Z" class="stroke1"/>
    <path d="M 331 576 Q 364 519 328 361 Q 324 348 319 330 Q 268 186 145 103 Q 130 91 115 80 Q 102 70 115 68 Q 128 68 163 82 Q 220 109 261 150 Q 357 237 386 389 Q 402 509 420 544 Q 429 563 412 571 Q 364 607 338 596 Q 325 592 331 576 Z" class="stroke2"/>
    <path d="M 951 110 Q 930 168 921 268 Q 920 284 913 292 Q 906 299 901 283 Q 888 225 874 178 Q 867 147 840 129 Q 810 101 685 106 Q 613 112 593 151 Q 580 185 581 277 Q 590 520 608 590 Q 617 611 587 633 Q 568 646 550 656 C 524 672 487 674 503 649 Q 506 642 516 629 Q 540 595 540 549 Q 544 489 537 310 Q 522 112 600 70 Q 612 64 629 59 Q 689 43 792 48 Q 871 49 930 76 Q 963 85 951 110 Z" class="stroke3"/>
    
    
    </g>
</svg>