<svg version="1.1" viewBox="0 0 1024 1024" xmlns="http://www.w3.org/2000/svg">
  
  <g transform="scale(1, -1) translate(0, -900)">
    <style type="text/css">
        .stroke1 {fill: #808080;}
        .stroke2 {fill: #808079;}
        .stroke3 {fill: #808078;}
        .stroke4 {fill: #808077;}
        .stroke5 {fill: #808076;}
        .stroke6 {fill: #808075;}
        .stroke7 {fill: #808074;}
        .stroke8 {fill: #808073;}
        .stroke9 {fill: #808072;}
        .stroke10 {fill: #808071;}
        .stroke11 {fill: #808070;}
        .stroke12 {fill: #808069;}
        .stroke13 {fill: #808068;}
        .stroke14 {fill: #808067;}
        .stroke15 {fill: #808066;}
        .stroke16 {fill: #808065;}
        .stroke17 {fill: #808064;}
        .stroke18 {fill: #808063;}
        .stroke19 {fill: #808062;}
        .stroke20 {fill: #808061;}
        text {
            font-family: Helvetica;
            font-size: 50px;
            fill: #808060;
            paint-order: stroke;
            stroke: #000000;
            stroke-width: 4px;
            stroke-linecap: butt;
            stroke-linejoin: miter;
            font-weight: 800;
        }
    </style>

    <path d="M 336 701 Q 361 677 387 649 Q 402 634 419 634 Q 431 634 436 649 Q 442 665 433 698 Q 429 717 397 733 Q 324 761 308 755 Q 302 751 304 737 Q 307 724 336 701 Z" class="stroke1"/>
    <path d="M 594 768 Q 576 734 510 644 Q 500 625 519 630 Q 555 654 642 722 Q 661 741 687 754 Q 709 766 697 785 Q 681 801 652 816 Q 625 829 611 825 Q 598 824 603 809 Q 607 788 594 768 Z" class="stroke2"/>
    <path d="M 334 560 Q 321 564 294 568 Q 281 572 277 566 Q 270 559 280 541 Q 310 487 329 397 Q 335 355 364 339 C 374 332 374 332 377 355 Q 378 361 378 366 L 376 400 Q 376 403 376 405 Q 360 496 356 526 C 352 555 352 555 334 560 Z" class="stroke3"/>
    <path d="M 631 428 Q 670 510 704 531 Q 723 550 709 571 Q 637 637 575 613 Q 482 580 334 560 C 304 556 326 521 356 526 Q 593 565 595 565 Q 599 564 603 560 Q 615 542 575 438 C 564 410 618 401 631 428 Z" class="stroke4"/>
    <path d="M 541 386 Q 584 392 639 396 Q 649 397 651 406 Q 651 413 631 428 L 575 438 Q 572 439 570 438 Q 462 413 376 400 C 346 395 348 367 378 366 Q 390 365 402 367 Q 439 376 503 382 L 541 386 Z" class="stroke5"/>
    <path d="M 364 339 Q 364 228 237 118 Q 234 117 232 114 Q 198 83 114 30 Q 105 23 111 19 Q 144 7 240 65 Q 330 116 408 247 Q 421 269 438 289 Q 447 298 443 309 Q 437 319 409 342 Q 388 357 379 356 Q 376 356 377 355 C 365 357 365 357 364 339 Z" class="stroke6"/>
    <path d="M 941 91 Q 928 121 912 212 Q 912 228 905 234 Q 899 238 894 219 Q 863 122 844 93 Q 828 75 784 65 Q 679 43 600 74 Q 569 89 561 109 Q 537 161 573 339 Q 579 366 541 386 C 517 403 496 411 503 382 Q 503 378 506 369 Q 518 329 513 290 Q 500 134 511 90 Q 515 65 539 43 Q 614 -23 797 0 Q 818 3 841 8 Q 887 20 934 49 Q 953 64 941 91 Z" class="stroke7"/>
    
    
    
    
    
    
    </g>
</svg>