<svg version="1.1" viewBox="0 0 1024 1024" xmlns="http://www.w3.org/2000/svg">
  
  <g transform="scale(1, -1) translate(0, -900)">
    <style type="text/css">
        .stroke1 {fill: #808080;}
        .stroke2 {fill: #808079;}
        .stroke3 {fill: #808078;}
        .stroke4 {fill: #808077;}
        .stroke5 {fill: #808076;}
        .stroke6 {fill: #808075;}
        .stroke7 {fill: #808074;}
        .stroke8 {fill: #808073;}
        .stroke9 {fill: #808072;}
        .stroke10 {fill: #808071;}
        .stroke11 {fill: #808070;}
        .stroke12 {fill: #808069;}
        .stroke13 {fill: #808068;}
        .stroke14 {fill: #808067;}
        .stroke15 {fill: #808066;}
        .stroke16 {fill: #808065;}
        .stroke17 {fill: #808064;}
        .stroke18 {fill: #808063;}
        .stroke19 {fill: #808062;}
        .stroke20 {fill: #808061;}
        text {
            font-family: Helvetica;
            font-size: 50px;
            fill: #808060;
            paint-order: stroke;
            stroke: #000000;
            stroke-width: 4px;
            stroke-linecap: butt;
            stroke-linejoin: miter;
            font-weight: 800;
        }
    </style>

    <path d="M 304 649 Q 322 577 199 422 Q 193 418 189 411 Q 152 368 61 284 Q 52 280 64 276 Q 140 291 252 412 Q 256 419 264 426 Q 307 477 374 581 Q 383 594 389 601 Q 396 607 395 617 Q 394 627 380 640 Q 344 670 310 665 Q 301 662 304 649 Z" class="stroke1"/>
    <path d="M 467 783 Q 527 747 562 678 Q 662 477 753 386 Q 775 370 886 372 Q 919 375 966 376 Q 987 377 987 383 Q 987 387 968 395 Q 794 459 735 515 Q 656 594 554 760 Q 533 794 495 799 Q 467 802 465 795 Q 461 786 467 783 Z" class="stroke2"/>
    <path d="M 629 177 Q 500 164 362 133 Q 347 129 343 133 Q 340 137 347 150 Q 477 334 505 364 Q 520 376 512 391 Q 505 406 448 432 Q 429 442 417 436 Q 401 429 409 405 Q 430 333 302 171 Q 277 146 238 118 Q 222 103 226 91 Q 232 70 262 47 Q 275 34 291 47 Q 357 93 633 146 Q 640 147 647 150 C 676 157 659 180 629 177 Z" class="stroke3"/>
    <path d="M 647 150 Q 707 54 718 48 Q 727 45 738 54 Q 754 66 750 118 Q 750 181 585 289 Q 576 296 571 284 Q 567 269 576 255 Q 601 221 629 177 L 647 150 Z" class="stroke4"/>
    
    
    
    </g>
</svg>