<svg version="1.1" viewBox="0 0 1024 1024" xmlns="http://www.w3.org/2000/svg">
  
  <g transform="scale(1, -1) translate(0, -900)">
    <style type="text/css">
        .stroke1 {fill: #808080;}
        .stroke2 {fill: #808079;}
        .stroke3 {fill: #808078;}
        .stroke4 {fill: #808077;}
        .stroke5 {fill: #808076;}
        .stroke6 {fill: #808075;}
        .stroke7 {fill: #808074;}
        .stroke8 {fill: #808073;}
        .stroke9 {fill: #808072;}
        .stroke10 {fill: #808071;}
        .stroke11 {fill: #808070;}
        .stroke12 {fill: #808069;}
        .stroke13 {fill: #808068;}
        .stroke14 {fill: #808067;}
        .stroke15 {fill: #808066;}
        .stroke16 {fill: #808065;}
        .stroke17 {fill: #808064;}
        .stroke18 {fill: #808063;}
        .stroke19 {fill: #808062;}
        .stroke20 {fill: #808061;}
        text {
            font-family: Helvetica;
            font-size: 50px;
            fill: #808060;
            paint-order: stroke;
            stroke: #000000;
            stroke-width: 4px;
            stroke-linecap: butt;
            stroke-linejoin: miter;
            font-weight: 800;
        }
    </style>

    <path d="M 365 765 Q 384 746 403 724 Q 416 711 432 711 Q 442 711 449 725 Q 453 740 446 769 Q 442 785 416 798 Q 352 820 340 815 Q 334 811 336 798 Q 339 788 365 765 Z" class="stroke1"/>
    <path d="M 608 826 Q 592 792 554 737 Q 550 730 555 723 Q 562 722 570 727 Q 648 788 685 811 Q 704 818 698 828 Q 691 844 670 862 Q 648 878 625 879 Q 610 878 613 858 Q 617 843 608 826 Z" class="stroke2"/>
    <path d="M 554 657 Q 609 667 670 676 Q 739 689 750 698 Q 757 705 754 713 Q 748 723 722 732 Q 692 739 613 713 Q 447 673 294 661 Q 260 657 283 641 Q 322 616 372 627 Q 373 628 378 627 L 421 634 Q 461 641 503 648 L 554 657 Z" class="stroke3"/>
    <path d="M 701 356 Q 710 399 719 428 L 734 467 Q 747 498 767 516 Q 783 535 768 554 Q 750 567 695 592 Q 676 599 654 590 Q 617 577 584 566 L 535 554 Q 516 550 497 546 Q 470 542 443 535 L 402 529 Q 345 523 288 518 Q 272 517 272 507 Q 275 498 294 491 Q 319 479 357 491 Q 379 495 404 499 L 442 506 Q 488 516 536 523 L 580 532 Q 647 550 665 533 Q 678 521 677 493 Q 674 475 672 457 L 667 422 Q 660 386 653 353 C 647 324 695 327 701 356 Z" class="stroke4"/>
    <path d="M 719 428 Q 782 440 930 429 Q 951 428 956 435 Q 962 447 951 457 Q 891 508 828 489 Q 780 479 734 467 L 672 457 Q 620 450 578 444 L 539 438 Q 491 435 439 424 L 404 419 Q 343 413 305 405 Q 230 392 118 386 Q 106 386 106 376 Q 105 366 122 353 Q 137 343 164 333 Q 174 329 189 337 Q 207 344 286 360 Q 341 376 404 386 L 438 392 Q 504 405 539 406 L 578 410 Q 630 419 667 422 L 719 428 Z" class="stroke5"/>
    <path d="M 435 279 Q 481 286 539 293 L 578 298 Q 645 305 726 312 Q 738 313 739 322 Q 740 331 708 353 Q 704 354 701 356 C 693 360 683 358 653 353 Q 613 346 578 338 L 539 330 Q 484 321 436 312 L 400 306 Q 336 299 280 292 Q 258 291 272 272 Q 279 262 289 258 Q 301 255 314 258 Q 341 265 378 270 L 435 279 Z" class="stroke6"/>
    <path d="M 394 206 Q 390 145 370 72 Q 355 18 390 -26 Q 400 -39 411 -28 Q 430 -4 431 142 Q 431 218 435 279 L 436 312 Q 437 355 438 392 L 439 424 Q 440 473 442 506 L 443 535 Q 444 575 446 582 Q 450 603 446 611 Q 443 621 424 632 Q 423 633 421 634 C 396 651 369 656 378 627 Q 399 563 402 529 L 404 499 Q 405 465 404 419 L 404 386 Q 403 349 400 306 L 394 206 Z" class="stroke7"/>
    <path d="M 539 293 Q 539 119 522 52 Q 504 22 535 -45 Q 541 -61 548 -63 Q 554 -69 560 -62 Q 567 -58 576 -39 Q 583 -17 583 10 Q 580 41 578 243 L 578 284 Q 578 291 578 298 L 578 338 Q 578 372 578 410 L 578 444 Q 578 453 578 461 Q 577 500 580 532 L 584 566 Q 587 585 592 602 Q 599 615 597 628 Q 591 635 554 657 C 528 673 487 674 503 648 Q 531 608 535 564 Q 535 560 535 554 L 536 523 Q 536 483 539 438 L 539 406 Q 539 369 539 330 L 539 293 Z" class="stroke8"/>
    <path d="M 378 270 Q 309 147 132 26 Q 119 16 128 13 Q 135 9 148 13 Q 260 46 394 206 C 455 278 393 296 378 270 Z" class="stroke9"/>
    <path d="M 578 243 Q 728 53 766 39 Q 850 27 937 39 Q 956 40 958 45 Q 961 52 945 59 Q 783 128 770 134 Q 691 182 578 284 C 556 304 559 267 578 243 Z" class="stroke10"/>
    
    
    
    
    
    
    
    
    
    </g>
</svg>