<svg version="1.1" viewBox="0 0 1024 1024" xmlns="http://www.w3.org/2000/svg">
  
  <g transform="scale(1, -1) translate(0, -900)">
    <style type="text/css">
        .stroke1 {fill: #808080;}
        .stroke2 {fill: #808079;}
        .stroke3 {fill: #808078;}
        .stroke4 {fill: #808077;}
        .stroke5 {fill: #808076;}
        .stroke6 {fill: #808075;}
        .stroke7 {fill: #808074;}
        .stroke8 {fill: #808073;}
        .stroke9 {fill: #808072;}
        .stroke10 {fill: #808071;}
        .stroke11 {fill: #808070;}
        .stroke12 {fill: #808069;}
        .stroke13 {fill: #808068;}
        .stroke14 {fill: #808067;}
        .stroke15 {fill: #808066;}
        .stroke16 {fill: #808065;}
        .stroke17 {fill: #808064;}
        .stroke18 {fill: #808063;}
        .stroke19 {fill: #808062;}
        .stroke20 {fill: #808061;}
        text {
            font-family: Helvetica;
            font-size: 50px;
            fill: #808060;
            paint-order: stroke;
            stroke: #000000;
            stroke-width: 4px;
            stroke-linecap: butt;
            stroke-linejoin: miter;
            font-weight: 800;
        }
    </style>

    <path d="M 388 756 Q 366 772 338 782 Q 325 786 316 780 Q 309 774 316 760 Q 346 706 369 513 C 373 483 409 489 407 519 Q 403 577 399 619 L 398 645 Q 398 649 398 653 Q 397 707 398 723 C 399 748 399 748 388 756 Z" class="stroke1"/>
    <path d="M 669 558 Q 682 702 724 750 Q 740 771 723 788 Q 705 801 649 822 Q 630 829 608 818 Q 530 784 388 756 C 359 750 369 716 398 723 Q 609 771 615 768 Q 618 767 621 764 Q 637 752 636 722 Q 632 626 618 550 C 613 520 666 528 669 558 Z" class="stroke2"/>
    <path d="M 534 539 Q 543 603 557 630 Q 564 637 560 646 Q 554 656 513 671 Q 507 674 398 645 C 369 637 369 619 399 619 Q 409 618 418 622 Q 484 646 493 641 Q 500 637 496 533 C 495 503 530 509 534 539 Z" class="stroke3"/>
    <path d="M 220 492 Q 208 516 197 523 Q 178 538 176 510 Q 180 480 147 430 Q 111 387 114 366 Q 120 333 131 315 Q 147 288 167 317 Q 183 344 196 384 Q 209 429 220 456 C 228 477 228 477 220 492 Z" class="stroke4"/>
    <path d="M 220 456 Q 239 447 263 453 Q 393 492 672 528 Q 763 540 786 536 Q 805 526 803 518 Q 803 515 769 439 Q 762 426 769 421 Q 776 417 793 429 Q 850 469 897 482 Q 934 495 934 503 Q 933 513 858 568 Q 837 584 813 580 Q 746 571 669 558 L 618 550 Q 579 546 534 539 L 496 533 Q 454 529 407 519 L 369 513 Q 354 513 339 509 Q 279 500 220 492 C 190 488 191 462 220 456 Z" class="stroke5"/>
    
    
    
    
    </g>
</svg>