<svg version="1.1" viewBox="0 0 1024 1024" xmlns="http://www.w3.org/2000/svg">
  
  <g transform="scale(1, -1) translate(0, -900)">
    <style type="text/css">
        .stroke1 {fill: #808080;}
        .stroke2 {fill: #808079;}
        .stroke3 {fill: #808078;}
        .stroke4 {fill: #808077;}
        .stroke5 {fill: #808076;}
        .stroke6 {fill: #808075;}
        .stroke7 {fill: #808074;}
        .stroke8 {fill: #808073;}
        .stroke9 {fill: #808072;}
        .stroke10 {fill: #808071;}
        .stroke11 {fill: #808070;}
        .stroke12 {fill: #808069;}
        .stroke13 {fill: #808068;}
        .stroke14 {fill: #808067;}
        .stroke15 {fill: #808066;}
        .stroke16 {fill: #808065;}
        .stroke17 {fill: #808064;}
        .stroke18 {fill: #808063;}
        .stroke19 {fill: #808062;}
        .stroke20 {fill: #808061;}
        text {
            font-family: Helvetica;
            font-size: 50px;
            fill: #808060;
            paint-order: stroke;
            stroke: #000000;
            stroke-width: 4px;
            stroke-linecap: butt;
            stroke-linejoin: miter;
            font-weight: 800;
        }
    </style>

    <path d="M 323 600 Q 301 616 277 624 Q 267 627 260 618 Q 256 611 264 600 Q 297 507 281 296 L 276 246 Q 269 191 250 134 Q 241 106 246 84 Q 255 47 267 33 Q 280 18 290 33 Q 324 70 326 241 Q 326 250 327 258 L 329 303 Q 330 322 331 341 Q 335 510 343 560 C 346 585 346 585 323 600 Z" class="stroke1"/>
    <path d="M 478 624 Q 402 611 323 600 C 293 596 313 555 343 560 Q 350 559 365 562 Q 417 578 479 590 L 531 601 Q 579 611 632 620 Q 656 627 668 614 Q 681 607 686 545 Q 692 451 694 349 L 694 304 Q 694 76 676 64 Q 657 52 570 78 Q 552 81 554 71 Q 555 64 569 57 Q 645 6 687 -34 Q 709 -55 722 -52 Q 735 -48 746 -19 Q 762 29 761 98 Q 754 218 750 308 L 748 358 Q 741 553 757 592 Q 770 614 759 627 Q 747 642 698 667 Q 679 676 658 671 Q 616 658 532 635 L 478 624 Z" class="stroke2"/>
    <path d="M 524 441 Q 555 450 589 457 Q 616 464 620 468 Q 627 475 623 482 Q 616 492 591 497 Q 567 501 526 485 L 479 470 Q 442 461 398 456 Q 367 450 390 436 Q 426 417 474 430 Q 475 431 478 430 L 524 441 Z" class="stroke3"/>
    <path d="M 532 635 Q 538 713 554 767 Q 557 779 536 795 Q 499 814 472 819 Q 454 823 446 813 Q 439 806 447 789 Q 475 749 475 721 Q 476 675 478 624 L 479 590 Q 479 532 479 470 L 478 430 Q 477 378 474 320 C 473 290 516 296 518 326 Q 521 384 524 441 L 526 485 Q 527 545 531 601 L 532 635 Z" class="stroke4"/>
    <path d="M 281 296 Q 278 297 276 296 Q 200 283 85 280 Q 72 280 70 268 Q 70 256 89 242 Q 105 229 137 218 Q 147 214 166 222 Q 184 229 264 244 Q 268 245 276 246 L 327 258 Q 510 280 694 304 L 750 308 Q 760 314 923 301 Q 947 300 953 308 Q 960 321 948 333 Q 882 393 811 372 Q 780 366 748 358 L 694 349 Q 685 348 679 347 Q 579 335 518 326 L 474 320 Q 386 313 329 303 L 281 296 Z" class="stroke5"/>
    
    
    
    
    </g>
</svg>