<svg version="1.1" viewBox="0 0 1024 1024" xmlns="http://www.w3.org/2000/svg">
  
  <g transform="scale(1, -1) translate(0, -900)">
    <style type="text/css">
        .stroke1 {fill: #808080;}
        .stroke2 {fill: #808079;}
        .stroke3 {fill: #808078;}
        .stroke4 {fill: #808077;}
        .stroke5 {fill: #808076;}
        .stroke6 {fill: #808075;}
        .stroke7 {fill: #808074;}
        .stroke8 {fill: #808073;}
        .stroke9 {fill: #808072;}
        .stroke10 {fill: #808071;}
        .stroke11 {fill: #808070;}
        .stroke12 {fill: #808069;}
        .stroke13 {fill: #808068;}
        .stroke14 {fill: #808067;}
        .stroke15 {fill: #808066;}
        .stroke16 {fill: #808065;}
        .stroke17 {fill: #808064;}
        .stroke18 {fill: #808063;}
        .stroke19 {fill: #808062;}
        .stroke20 {fill: #808061;}
        text {
            font-family: Helvetica;
            font-size: 50px;
            fill: #808060;
            paint-order: stroke;
            stroke: #000000;
            stroke-width: 4px;
            stroke-linecap: butt;
            stroke-linejoin: miter;
            font-weight: 800;
        }
    </style>

    <path d="M 174 661 Q 201 633 229 600 Q 242 584 261 583 Q 274 582 280 597 Q 287 613 280 648 Q 276 670 243 689 Q 164 725 148 719 Q 142 715 142 701 Q 146 688 174 661 Z" class="stroke1"/>
    <path d="M 93 223 Q 81 220 83 203 Q 95 131 126 111 Q 132 104 142 106 Q 149 107 152 132 Q 159 177 268 421 Q 275 437 275 442 Q 274 452 265 446 Q 253 437 134 263 Q 121 242 93 223 Z" class="stroke2"/>
    <path d="M 568 699 Q 584 727 601 742 Q 611 754 606 769 Q 602 782 569 807 Q 539 826 518 826 Q 497 825 507 800 Q 523 766 510 737 Q 473 638 414 547 Q 357 459 279 362 Q 269 350 266 344 Q 262 331 278 334 Q 339 349 484 561 Q 515 607 549 664 Q 552 671 555 676 L 568 699 Z" class="stroke3"/>
    <path d="M 555 676 Q 649 558 755 447 Q 779 422 820 419 Q 895 412 973 425 Q 992 426 995 432 Q 998 439 982 445 Q 781 532 776 534 Q 668 600 571 697 Q 568 698 568 699 C 546 719 536 699 555 676 Z" class="stroke4"/>
    <path d="M 511 455 Q 538 430 566 398 Q 578 385 593 384 Q 603 384 609 397 Q 613 410 608 440 Q 604 459 573 477 Q 506 507 488 503 Q 484 499 484 487 Q 487 477 511 455 Z" class="stroke5"/>
    <path d="M 579 98 Q 703 251 757 277 Q 778 284 770 303 Q 766 319 691 355 Q 669 365 645 354 Q 576 327 471 295 Q 444 285 377 287 Q 352 287 361 265 Q 371 252 391 239 Q 425 220 462 244 Q 487 254 619 303 Q 635 310 649 300 Q 664 290 657 274 Q 614 198 563 108 C 548 82 560 75 579 98 Z" class="stroke6"/>
    <path d="M 563 108 Q 508 141 475 155 Q 466 162 463 149 Q 462 134 472 123 Q 533 62 604 -26 Q 620 -48 635 -54 Q 645 -55 653 -45 Q 666 -32 656 15 Q 649 57 579 98 L 563 108 Z" class="stroke7"/>
    
    
    
    
    
    
    </g>
</svg>