<svg version="1.1" viewBox="0 0 1024 1024" xmlns="http://www.w3.org/2000/svg">
  
  <g transform="scale(1, -1) translate(0, -900)">
    <style type="text/css">
        .stroke1 {fill: #808080;}
        .stroke2 {fill: #808079;}
        .stroke3 {fill: #808078;}
        .stroke4 {fill: #808077;}
        .stroke5 {fill: #808076;}
        .stroke6 {fill: #808075;}
        .stroke7 {fill: #808074;}
        .stroke8 {fill: #808073;}
        .stroke9 {fill: #808072;}
        .stroke10 {fill: #808071;}
        .stroke11 {fill: #808070;}
        .stroke12 {fill: #808069;}
        .stroke13 {fill: #808068;}
        .stroke14 {fill: #808067;}
        .stroke15 {fill: #808066;}
        .stroke16 {fill: #808065;}
        .stroke17 {fill: #808064;}
        .stroke18 {fill: #808063;}
        .stroke19 {fill: #808062;}
        .stroke20 {fill: #808061;}
        text {
            font-family: Helvetica;
            font-size: 50px;
            fill: #808060;
            paint-order: stroke;
            stroke: #000000;
            stroke-width: 4px;
            stroke-linecap: butt;
            stroke-linejoin: miter;
            font-weight: 800;
        }
    </style>

    <path d="M 208 669 Q 242 641 277 609 Q 293 596 311 596 Q 323 597 328 612 Q 332 630 322 663 Q 315 685 278 702 Q 193 732 176 723 Q 170 719 172 704 Q 176 691 208 669 Z" class="stroke1"/>
    <path d="M 121 178 Q 108 174 111 156 Q 133 75 165 61 Q 172 54 183 57 Q 190 58 191 85 Q 197 128 294 407 Q 301 423 299 430 Q 298 440 289 433 Q 274 424 163 224 Q 150 202 121 178 Z" class="stroke2"/>
    <path d="M 421 693 Q 409 697 386 701 Q 373 705 369 698 Q 362 691 372 674 Q 403 608 423 502 Q 427 469 446 449 Q 465 424 472 442 Q 475 451 475 463 L 473 499 Q 463 551 447 660 C 443 687 443 687 421 693 Z" class="stroke3"/>
    <path d="M 703 528 Q 734 636 777 670 Q 796 692 779 712 Q 760 728 699 756 Q 678 766 607 738 Q 532 713 421 693 C 391 688 418 652 447 660 Q 454 664 635 702 Q 657 708 666 699 Q 678 687 674 664 Q 661 594 643 539 C 634 510 694 499 703 528 Z" class="stroke4"/>
    <path d="M 610 486 Q 650 493 708 499 Q 720 500 720 510 Q 720 517 703 528 L 643 539 Q 640 540 637 539 Q 546 514 473 499 C 444 493 445 463 475 463 Q 484 462 495 465 Q 523 472 567 479 L 610 486 Z" class="stroke5"/>
    <path d="M 444 400 Q 453 283 323 151 Q 299 129 264 98 Q 257 91 263 87 Q 293 81 373 141 Q 448 192 502 320 Q 512 341 524 360 Q 531 370 526 381 Q 519 391 489 409 Q 467 421 456 419 Q 443 415 444 400 Z" class="stroke6"/>
    <path d="M 970 109 Q 952 158 943 244 Q 942 260 934 266 Q 925 272 921 250 Q 902 147 886 128 Q 859 98 751 100 Q 693 103 667 113 Q 645 125 641 140 Q 628 174 628 265 Q 635 365 654 411 Q 667 442 647 460 Q 625 476 610 486 C 585 503 553 505 567 479 Q 589 457 586 383 Q 580 371 583 217 Q 583 97 648 69 Q 712 45 840 44 Q 919 45 950 60 Q 983 76 970 109 Z" class="stroke7"/>
    
    
    
    
    
    
    </g>
</svg>