<svg version="1.1" viewBox="0 0 1024 1024" xmlns="http://www.w3.org/2000/svg">
  
  <g transform="scale(1, -1) translate(0, -900)">
    <style type="text/css">
        .stroke1 {fill: #808080;}
        .stroke2 {fill: #808079;}
        .stroke3 {fill: #808078;}
        .stroke4 {fill: #808077;}
        .stroke5 {fill: #808076;}
        .stroke6 {fill: #808075;}
        .stroke7 {fill: #808074;}
        .stroke8 {fill: #808073;}
        .stroke9 {fill: #808072;}
        .stroke10 {fill: #808071;}
        .stroke11 {fill: #808070;}
        .stroke12 {fill: #808069;}
        .stroke13 {fill: #808068;}
        .stroke14 {fill: #808067;}
        .stroke15 {fill: #808066;}
        .stroke16 {fill: #808065;}
        .stroke17 {fill: #808064;}
        .stroke18 {fill: #808063;}
        .stroke19 {fill: #808062;}
        .stroke20 {fill: #808061;}
        text {
            font-family: Helvetica;
            font-size: 50px;
            fill: #808060;
            paint-order: stroke;
            stroke: #000000;
            stroke-width: 4px;
            stroke-linecap: butt;
            stroke-linejoin: miter;
            font-weight: 800;
        }
    </style>

    <path d="M 220 656 Q 251 629 285 598 Q 301 583 319 584 Q 331 585 336 600 Q 342 618 331 651 Q 319 687 213 711 Q 195 715 188 711 Q 182 707 184 692 Q 188 679 220 656 Z" class="stroke1"/>
    <path d="M 130 230 Q 117 229 118 210 Q 125 132 159 108 Q 166 101 177 103 Q 184 103 188 129 Q 197 165 322 424 Q 331 439 330 445 Q 331 455 321 450 Q 303 440 175 269 Q 160 250 130 230 Z" class="stroke2"/>
    <path d="M 553 766 Q 590 739 629 706 Q 647 691 666 694 Q 679 695 684 712 Q 688 731 675 767 Q 659 806 543 825 Q 524 828 516 824 Q 510 818 513 803 Q 519 790 553 766 Z" class="stroke3"/>
    <path d="M 371 587 Q 350 583 367 567 Q 382 554 400 550 Q 422 546 437 551 Q 590 599 841 613 Q 859 614 877 615 Q 896 616 901 624 Q 905 637 889 649 Q 834 685 797 675 Q 668 641 371 587 Z" class="stroke4"/>
    <path d="M 468 475 Q 455 479 424 484 Q 412 485 409 481 Q 403 474 412 459 Q 440 410 460 330 Q 464 306 479 291 Q 498 269 503 286 Q 506 296 505 311 L 500 344 Q 484 420 481 445 C 477 472 477 472 468 475 Z" class="stroke5"/>
    <path d="M 722 373 Q 750 437 780 454 Q 796 472 783 489 Q 708 550 657 521 Q 579 494 468 475 C 438 470 452 438 481 445 Q 490 448 660 482 Q 682 486 690 478 Q 697 471 694 454 Q 684 414 670 380 C 659 352 710 346 722 373 Z" class="stroke6"/>
    <path d="M 505 311 Q 506 311 568 321 L 613 327 Q 662 334 732 341 Q 742 342 744 351 Q 744 358 722 373 L 670 380 Q 669 381 667 380 Q 573 356 500 344 C 470 339 475 307 505 311 Z" class="stroke7"/>
    <path d="M 568 321 Q 581 284 579 167 Q 578 97 570 81 Q 566 68 542 74 Q 517 80 489 86 Q 476 87 475 81 Q 472 74 484 64 Q 545 6 566 -27 Q 581 -42 592 -40 Q 604 -36 618 0 Q 637 34 636 101 Q 635 210 638 249 Q 647 292 628 314 Q 621 321 613 327 C 590 346 560 350 568 321 Z" class="stroke8"/>
    <path d="M 407 240 Q 382 189 347 144 Q 325 114 341 77 Q 348 59 370 70 Q 424 110 429 181 Q 436 214 430 239 Q 426 248 420 249 Q 411 248 407 240 Z" class="stroke9"/>
    <path d="M 720 239 Q 772 184 836 106 Q 852 84 867 78 Q 877 77 885 87 Q 898 100 889 147 Q 879 207 731 268 Q 727 271 723 271 Q 714 278 711 265 Q 710 250 720 239 Z" class="stroke10"/>
    
    
    
    
    
    
    
    
    
    </g>
</svg>