<svg version="1.1" viewBox="0 0 1024 1024" xmlns="http://www.w3.org/2000/svg">
  
  <g transform="scale(1, -1) translate(0, -900)">
    <style type="text/css">
        .stroke1 {fill: #808080;}
        .stroke2 {fill: #808079;}
        .stroke3 {fill: #808078;}
        .stroke4 {fill: #808077;}
        .stroke5 {fill: #808076;}
        .stroke6 {fill: #808075;}
        .stroke7 {fill: #808074;}
        .stroke8 {fill: #808073;}
        .stroke9 {fill: #808072;}
        .stroke10 {fill: #808071;}
        .stroke11 {fill: #808070;}
        .stroke12 {fill: #808069;}
        .stroke13 {fill: #808068;}
        .stroke14 {fill: #808067;}
        .stroke15 {fill: #808066;}
        .stroke16 {fill: #808065;}
        .stroke17 {fill: #808064;}
        .stroke18 {fill: #808063;}
        .stroke19 {fill: #808062;}
        .stroke20 {fill: #808061;}
        text {
            font-family: Helvetica;
            font-size: 50px;
            fill: #808060;
            paint-order: stroke;
            stroke: #000000;
            stroke-width: 4px;
            stroke-linecap: butt;
            stroke-linejoin: miter;
            font-weight: 800;
        }
    </style>

    <path d="M 189 605 Q 214 577 241 544 Q 254 528 273 527 Q 285 526 292 541 Q 299 557 293 592 Q 289 614 257 632 Q 184 671 164 663 Q 158 659 158 645 Q 161 632 189 605 Z" class="stroke1"/>
    <path d="M 116 211 Q 103 208 105 190 Q 112 115 146 94 Q 153 87 163 88 Q 170 89 174 114 Q 184 165 295 396 Q 302 412 302 418 Q 302 428 293 422 Q 283 415 269 400 Q 211 319 158 248 Q 145 229 116 211 Z" class="stroke2"/>
    <path d="M 630 650 Q 756 677 758 679 Q 768 686 763 696 Q 756 708 726 716 Q 699 722 636 702 L 579 688 Q 530 679 470 674 Q 433 668 459 650 Q 504 626 561 638 Q 568 639 579 641 L 630 650 Z" class="stroke3"/>
    <path d="M 618 554 Q 624 603 630 650 L 636 702 Q 636 738 656 798 Q 660 808 641 824 Q 607 843 584 849 Q 568 853 560 844 Q 553 837 560 822 Q 576 798 577 781 Q 578 736 579 688 L 579 641 Q 578 596 576 546 C 575 516 614 524 618 554 Z" class="stroke4"/>
    <path d="M 576 546 Q 471 531 351 513 Q 332 510 346 495 Q 359 482 377 478 Q 396 474 411 478 Q 588 530 862 531 Q 863 531 865 531 Q 884 531 888 539 Q 892 549 877 563 Q 823 602 774 585 Q 711 572 618 554 L 576 546 Z" class="stroke5"/>
    <path d="M 437 425 Q 409 380 330 289 Q 321 273 336 277 Q 495 406 511 412 Q 529 422 519 437 Q 507 450 484 463 Q 462 473 452 471 Q 440 470 445 458 Q 448 442 437 425 Z" class="stroke6"/>
    <path d="M 679 446 Q 731 412 793 358 Q 809 343 823 341 Q 830 341 837 350 Q 846 363 829 400 Q 811 448 676 473 Q 667 477 667 466 Q 668 454 679 446 Z" class="stroke7"/>
    <path d="M 539 310 Q 549 326 559 336 Q 568 349 565 357 Q 561 369 536 374 Q 509 381 498 378 Q 491 375 490 363 Q 474 258 252 56 Q 233 40 258 46 Q 345 62 486 239 L 500 258 Q 501 262 505 264 Q 512 276 520 285 L 539 310 Z" class="stroke8"/>
    <path d="M 655 132 Q 688 180 719 246 Q 732 273 754 290 Q 773 303 762 318 Q 749 331 720 344 Q 698 353 669 341 Q 644 332 610 323 Q 582 316 539 310 C 509 306 491 292 520 285 Q 553 273 599 284 Q 642 300 649 300 Q 671 297 664 274 Q 646 208 615 160 L 591 127 Q 518 48 369 11 Q 356 8 366 -1 Q 372 -5 417 -3 Q 535 6 624 94 L 655 132 Z" class="stroke9"/>
    <path d="M 624 94 Q 729 -15 762 -24 Q 816 -39 932 -16 Q 951 -13 953 -8 Q 954 -1 940 4 Q 885 25 822 46 Q 750 71 697 107 Q 676 120 655 132 L 615 160 Q 591 179 566 200 Q 520 242 500 258 C 477 277 465 261 486 239 Q 487 238 491 234 Q 540 179 591 127 L 624 94 Z" class="stroke10"/>
    
    
    
    
    
    
    
    
    
    </g>
</svg>