<svg version="1.1" viewBox="0 0 1024 1024" xmlns="http://www.w3.org/2000/svg">
  
  <g transform="scale(1, -1) translate(0, -900)">
    <style type="text/css">
        .stroke1 {fill: #808080;}
        .stroke2 {fill: #808079;}
        .stroke3 {fill: #808078;}
        .stroke4 {fill: #808077;}
        .stroke5 {fill: #808076;}
        .stroke6 {fill: #808075;}
        .stroke7 {fill: #808074;}
        .stroke8 {fill: #808073;}
        .stroke9 {fill: #808072;}
        .stroke10 {fill: #808071;}
        .stroke11 {fill: #808070;}
        .stroke12 {fill: #808069;}
        .stroke13 {fill: #808068;}
        .stroke14 {fill: #808067;}
        .stroke15 {fill: #808066;}
        .stroke16 {fill: #808065;}
        .stroke17 {fill: #808064;}
        .stroke18 {fill: #808063;}
        .stroke19 {fill: #808062;}
        .stroke20 {fill: #808061;}
        text {
            font-family: Helvetica;
            font-size: 50px;
            fill: #808060;
            paint-order: stroke;
            stroke: #000000;
            stroke-width: 4px;
            stroke-linecap: butt;
            stroke-linejoin: miter;
            font-weight: 800;
        }
    </style>

    <path d="M 373 691 Q 415 718 469 757 Q 485 773 507 782 Q 526 792 516 808 Q 503 823 479 835 Q 457 847 446 844 Q 434 843 439 830 Q 442 806 360 699 C 342 675 348 675 373 691 Z" class="stroke1"/>
    <path d="M 380 651 Q 387 651 395 656 Q 449 675 584 698 Q 596 699 604 693 Q 614 689 613 672 Q 610 633 593 565 Q 589 538 563 543 Q 535 544 513 548 Q 500 549 503 541 Q 504 532 531 515 Q 559 490 576 462 Q 583 453 593 456 Q 600 457 615 479 Q 630 500 646 560 Q 659 668 677 684 Q 687 694 681 705 Q 672 715 636 735 Q 623 741 564 726 Q 548 726 378 686 C 349 679 352 641 380 651 Z" class="stroke2"/>
    <path d="M 410 602 Q 452 556 469 553 Q 479 553 484 567 Q 485 577 477 593 Q 470 605 452 610 Q 425 622 414 623 Q 407 624 406 616 Q 405 609 410 602 Z" class="stroke3"/>
    <path d="M 357 370 Q 388 389 448 400 Q 575 425 708 428 Q 736 432 749 420 Q 759 410 750 371 Q 731 290 715 269 Q 705 257 680 262 Q 652 269 625 277 Q 610 281 611 275 Q 610 271 619 262 Q 665 213 682 180 Q 689 161 707 169 Q 759 193 771 234 Q 787 283 800 341 Q 809 377 827 406 Q 840 421 829 433 Q 813 452 778 475 Q 759 487 731 476 Q 673 454 621 451 Q 545 447 392 423 Q 367 419 366 440 Q 367 498 369 559 Q 369 617 380 651 C 386 680 386 680 378 686 Q 375 689 373 691 L 360 699 Q 351 706 338 711 Q 320 718 311 709 Q 305 705 313 692 Q 325 668 321 516 Q 321 459 308 410 Q 302 389 318 374 Q 337 356 357 370 Z" class="stroke4"/>
    <path d="M 362 303 Q 349 313 337 318 Q 315 331 298 324 Q 285 320 292 306 Q 316 266 291 157 Q 263 67 192 16 Q 177 6 163 -6 Q 151 -15 163 -17 Q 211 -17 269 36 Q 332 90 353 195 Q 359 249 371 271 C 380 291 380 291 362 303 Z" class="stroke5"/>
    <path d="M 371 271 Q 384 272 398 279 Q 434 289 472 297 Q 490 303 495 295 Q 501 291 497 270 Q 467 105 520 32 Q 574 -22 669 -35 Q 708 -38 757 -36 Q 842 -30 913 7 Q 935 20 924 46 Q 896 110 889 183 Q 885 192 879 192 Q 876 192 869 178 Q 845 73 822 52 Q 759 16 614 36 Q 583 43 565 62 Q 543 81 536 125 Q 524 191 552 245 Q 561 272 578 285 Q 612 310 534 342 Q 509 354 493 344 Q 456 323 362 303 C 333 296 342 263 371 271 Z" class="stroke6"/>
    
    
    
    
    
    </g>
</svg>