<svg version="1.1" viewBox="0 0 1024 1024" xmlns="http://www.w3.org/2000/svg">
  
  <g transform="scale(1, -1) translate(0, -900)">
    <style type="text/css">
        .stroke1 {fill: #808080;}
        .stroke2 {fill: #808079;}
        .stroke3 {fill: #808078;}
        .stroke4 {fill: #808077;}
        .stroke5 {fill: #808076;}
        .stroke6 {fill: #808075;}
        .stroke7 {fill: #808074;}
        .stroke8 {fill: #808073;}
        .stroke9 {fill: #808072;}
        .stroke10 {fill: #808071;}
        .stroke11 {fill: #808070;}
        .stroke12 {fill: #808069;}
        .stroke13 {fill: #808068;}
        .stroke14 {fill: #808067;}
        .stroke15 {fill: #808066;}
        .stroke16 {fill: #808065;}
        .stroke17 {fill: #808064;}
        .stroke18 {fill: #808063;}
        .stroke19 {fill: #808062;}
        .stroke20 {fill: #808061;}
        text {
            font-family: Helvetica;
            font-size: 50px;
            fill: #808060;
            paint-order: stroke;
            stroke: #000000;
            stroke-width: 4px;
            stroke-linecap: butt;
            stroke-linejoin: miter;
            font-weight: 800;
        }
    </style>

    <path d="M 562 435 Q 655 460 729 458 C 759 458 769 501 739 498 Q 646 489 563 474 L 505 464 Q 411 449 330 425 Q 306 421 312 448 Q 327 554 317 572 Q 281 615 250 611 Q 237 607 246 585 Q 268 533 260 479 Q 254 430 233 407 Q 212 388 220 372 Q 233 356 251 343 Q 267 333 278 343 Q 308 376 505 422 L 562 435 Z" class="stroke1"/>
    <path d="M 729 458 Q 728 458 729 457 Q 732 421 741 397 Q 750 376 766 389 Q 799 416 812 514 Q 836 572 843 581 Q 853 597 843 616 Q 822 637 786 662 Q 773 672 757 667 Q 747 663 749 647 Q 777 599 741 501 Q 740 501 739 498 L 729 458 Z" class="stroke2"/>
    <path d="M 551 133 Q 557 289 562 435 L 563 474 Q 564 639 592 778 Q 596 793 570 812 Q 522 837 490 842 Q 468 846 458 835 Q 448 825 459 805 Q 499 747 499 707 Q 503 590 505 464 L 505 422 Q 504 280 495 123 C 493 93 550 103 551 133 Z" class="stroke3"/>
    <path d="M 255 9 Q 274 -7 284 -7 Q 291 -7 299 0 Q 335 45 588 96 Q 595 99 755 123 Q 765 124 775 127 C 804 133 801 162 771 161 Q 677 158 551 133 L 495 123 Q 380 105 341 88 Q 332 85 329 89 Q 326 92 339 215 Q 340 257 288 280 Q 281 283 274 283 Q 259 284 254 281 Q 250 274 263 252 Q 302 179 257 86 Q 250 76 241 66 Q 225 53 228 41 Q 232 29 255 9 Z" class="stroke4"/>
    <path d="M 775 127 Q 779 28 796 3 Q 815 -31 827 -10 Q 840 12 840 66 Q 841 208 844 237 Q 845 258 839 265 Q 824 278 774 294 Q 758 301 751 295 Q 741 288 750 263 Q 763 220 771 161 L 775 127 Z" class="stroke5"/>
    
    
    
    
    </g>
</svg>