<svg version="1.1" viewBox="0 0 1024 1024" xmlns="http://www.w3.org/2000/svg">
  
  <g transform="scale(1, -1) translate(0, -900)">
    <style type="text/css">
        .stroke1 {fill: #808080;}
        .stroke2 {fill: #808079;}
        .stroke3 {fill: #808078;}
        .stroke4 {fill: #808077;}
        .stroke5 {fill: #808076;}
        .stroke6 {fill: #808075;}
        .stroke7 {fill: #808074;}
        .stroke8 {fill: #808073;}
        .stroke9 {fill: #808072;}
        .stroke10 {fill: #808071;}
        .stroke11 {fill: #808070;}
        .stroke12 {fill: #808069;}
        .stroke13 {fill: #808068;}
        .stroke14 {fill: #808067;}
        .stroke15 {fill: #808066;}
        .stroke16 {fill: #808065;}
        .stroke17 {fill: #808064;}
        .stroke18 {fill: #808063;}
        .stroke19 {fill: #808062;}
        .stroke20 {fill: #808061;}
        text {
            font-family: Helvetica;
            font-size: 50px;
            fill: #808060;
            paint-order: stroke;
            stroke: #000000;
            stroke-width: 4px;
            stroke-linecap: butt;
            stroke-linejoin: miter;
            font-weight: 800;
        }
    </style>

    <path d="M 543 581 Q 652 674 701 689 Q 720 695 715 711 Q 712 727 647 766 Q 628 776 605 769 Q 538 747 437 722 Q 410 715 348 719 Q 324 720 332 700 Q 339 687 358 675 Q 389 657 423 676 Q 585 733 603 721 Q 616 714 609 700 Q 572 651 528 592 C 510 568 520 562 543 581 Z" class="stroke1"/>
    <path d="M 528 592 Q 518 599 504 604 Q 485 610 475 604 Q 463 597 477 585 Q 538 543 539 393 Q 540 330 525 291 Q 512 269 483 274 Q 458 278 435 282 Q 425 285 429 274 Q 433 267 448 257 Q 482 227 492 205 Q 502 189 516 191 Q 529 192 553 217 Q 607 275 589 426 Q 577 547 543 581 L 528 592 Z" class="stroke2"/>
    <path d="M 340 484 Q 371 463 407 438 Q 420 428 433 431 Q 442 432 445 444 Q 448 457 437 482 Q 430 501 397 512 Q 322 530 312 523 Q 308 519 310 508 Q 314 499 340 484 Z" class="stroke3"/>
    <path d="M 285 300 Q 273 296 274 286 Q 275 273 286 268 Q 311 259 346 250 Q 356 250 365 261 Q 374 279 451 354 Q 461 364 468 374 Q 478 384 476 393 Q 469 397 459 391 Q 395 354 313 310 Q 303 304 285 300 Z" class="stroke4"/>
    <path d="M 713 564 Q 700 543 627 461 Q 617 446 633 449 Q 687 477 751 521 Q 770 534 792 544 Q 813 553 803 570 Q 791 586 767 601 Q 745 614 733 612 Q 721 611 724 598 Q 727 582 713 564 Z" class="stroke5"/>
    <path d="M 634 366 Q 683 329 742 276 Q 758 260 771 257 Q 778 257 785 266 Q 794 279 779 316 Q 766 359 632 393 Q 623 397 623 386 Q 624 374 634 366 Z" class="stroke6"/>
    <path d="M 827 194 Q 508 173 268 114 Q 237 107 244 142 Q 251 239 257 342 Q 261 370 248 388 Q 229 407 199 423 Q 184 430 172 426 Q 159 420 170 398 Q 213 310 202 219 Q 195 132 161 94 Q 139 73 147 56 Q 160 37 181 24 Q 197 14 209 24 Q 224 40 264 57 Q 436 108 616 135 Q 781 160 816 145 Q 817 146 820 146 C 850 142 857 196 827 194 Z" class="stroke7"/>
    <path d="M 820 146 Q 816 122 808 104 Q 790 74 823 7 Q 833 -12 849 2 Q 879 33 885 136 Q 909 335 915 351 Q 918 361 923 370 Q 933 389 921 405 Q 897 424 857 448 Q 842 457 827 450 Q 817 446 820 429 Q 853 380 827 194 L 820 146 Z" class="stroke8"/>
    
    
    
    
    
    
    
    </g>
</svg>