<svg version="1.1" viewBox="0 0 1024 1024" xmlns="http://www.w3.org/2000/svg">
  
  <g transform="scale(1, -1) translate(0, -900)">
    <style type="text/css">
        .stroke1 {fill: #808080;}
        .stroke2 {fill: #808079;}
        .stroke3 {fill: #808078;}
        .stroke4 {fill: #808077;}
        .stroke5 {fill: #808076;}
        .stroke6 {fill: #808075;}
        .stroke7 {fill: #808074;}
        .stroke8 {fill: #808073;}
        .stroke9 {fill: #808072;}
        .stroke10 {fill: #808071;}
        .stroke11 {fill: #808070;}
        .stroke12 {fill: #808069;}
        .stroke13 {fill: #808068;}
        .stroke14 {fill: #808067;}
        .stroke15 {fill: #808066;}
        .stroke16 {fill: #808065;}
        .stroke17 {fill: #808064;}
        .stroke18 {fill: #808063;}
        .stroke19 {fill: #808062;}
        .stroke20 {fill: #808061;}
        text {
            font-family: Helvetica;
            font-size: 50px;
            fill: #808060;
            paint-order: stroke;
            stroke: #000000;
            stroke-width: 4px;
            stroke-linecap: butt;
            stroke-linejoin: miter;
            font-weight: 800;
        }
    </style>

    <path d="M 308 425 Q 239 314 79 171 Q 72 162 78 160 Q 87 157 98 163 Q 252 244 343 383 L 372 434 Q 411 507 444 617 Q 457 656 476 693 Q 483 703 477 714 Q 470 724 436 740 Q 412 752 402 749 Q 389 745 391 728 Q 407 610 333 469 L 308 425 Z" class="stroke1"/>
    <path d="M 343 383 Q 398 317 457 240 Q 469 221 482 216 Q 489 215 497 222 Q 509 232 502 272 Q 499 317 372 434 L 333 469 Q 242 551 189 590 Q 182 596 178 585 Q 177 573 185 563 Q 243 502 308 425 L 343 383 Z" class="stroke2"/>
    <path d="M 582 617 Q 612 551 591 353 Q 582 313 612 282 Q 621 272 630 282 Q 654 316 649 364 Q 643 514 653 589 Q 660 611 640 622 Q 624 632 607 640 Q 595 644 586 638 Q 579 632 582 617 Z" class="stroke3"/>
    <path d="M 772 735 Q 776 698 772 125 Q 771 101 758 92 Q 749 85 728 92 Q 703 98 678 103 Q 644 115 647 104 Q 648 97 669 82 Q 736 28 753 -1 Q 772 -37 789 -38 Q 805 -39 819 -2 Q 838 44 836 122 Q 820 372 827 624 Q 831 715 845 763 Q 861 794 804 817 Q 770 836 749 829 Q 731 822 747 798 Q 769 770 772 735 Z" class="stroke4"/>
    
    
    
    </g>
</svg>