<svg version="1.1" viewBox="0 0 1024 1024" xmlns="http://www.w3.org/2000/svg">
  
  <g transform="scale(1, -1) translate(0, -900)">
    <style type="text/css">
        .stroke1 {fill: #808080;}
        .stroke2 {fill: #808079;}
        .stroke3 {fill: #808078;}
        .stroke4 {fill: #808077;}
        .stroke5 {fill: #808076;}
        .stroke6 {fill: #808075;}
        .stroke7 {fill: #808074;}
        .stroke8 {fill: #808073;}
        .stroke9 {fill: #808072;}
        .stroke10 {fill: #808071;}
        .stroke11 {fill: #808070;}
        .stroke12 {fill: #808069;}
        .stroke13 {fill: #808068;}
        .stroke14 {fill: #808067;}
        .stroke15 {fill: #808066;}
        .stroke16 {fill: #808065;}
        .stroke17 {fill: #808064;}
        .stroke18 {fill: #808063;}
        .stroke19 {fill: #808062;}
        .stroke20 {fill: #808061;}
        text {
            font-family: Helvetica;
            font-size: 50px;
            fill: #808060;
            paint-order: stroke;
            stroke: #000000;
            stroke-width: 4px;
            stroke-linecap: butt;
            stroke-linejoin: miter;
            font-weight: 800;
        }
    </style>

    <path d="M 319 770 Q 355 743 393 712 Q 409 699 425 701 Q 435 702 441 716 Q 445 732 433 763 Q 426 785 388 801 Q 298 826 288 819 Q 282 815 285 801 Q 289 791 319 770 Z" class="stroke1"/>
    <path d="M 427 562 Q 479 569 525 576 Q 535 575 545 588 Q 546 601 522 611 Q 483 633 408 607 Q 306 583 143 557 Q 133 557 124 554 Q 94 550 118 532 Q 151 504 182 513 Q 269 534 382 554 L 427 562 Z" class="stroke2"/>
    <path d="M 384 326 Q 397 353 409 382 Q 451 484 466 501 Q 479 517 464 530 Q 439 558 427 562 C 402 579 375 583 382 554 L 383 553 Q 401 492 339 357 L 315 313 Q 243 202 87 136 Q 72 129 84 124 Q 142 114 240 171 Q 288 198 353 276 L 384 326 Z" class="stroke3"/>
    <path d="M 353 276 Q 488 141 493 138 Q 502 137 509 146 Q 521 159 509 201 Q 500 249 384 326 L 339 357 Q 257 412 209 440 Q 202 444 199 433 Q 198 420 208 411 Q 259 366 315 313 L 353 276 Z" class="stroke4"/>
    <path d="M 564 594 Q 594 531 572 350 Q 565 317 594 277 Q 604 265 615 278 Q 636 308 637 356 Q 637 515 644 561 Q 651 586 629 598 Q 611 610 593 619 Q 580 623 569 618 Q 560 611 564 594 Z" class="stroke5"/>
    <path d="M 771 712 Q 775 676 774 134 Q 773 110 761 102 Q 754 98 671 115 Q 637 128 639 116 Q 640 109 662 93 Q 735 38 754 6 Q 776 -31 794 -32 Q 810 -33 825 4 Q 844 53 841 133 Q 808 601 846 741 Q 865 774 804 798 Q 767 817 747 809 Q 728 802 745 777 Q 769 749 771 712 Z" class="stroke6"/>
    
    
    
    
    
    </g>
</svg>