<svg version="1.1" viewBox="0 0 1024 1024" xmlns="http://www.w3.org/2000/svg">
  
  <g transform="scale(1, -1) translate(0, -900)">
    <style type="text/css">
        .stroke1 {fill: #808080;}
        .stroke2 {fill: #808079;}
        .stroke3 {fill: #808078;}
        .stroke4 {fill: #808077;}
        .stroke5 {fill: #808076;}
        .stroke6 {fill: #808075;}
        .stroke7 {fill: #808074;}
        .stroke8 {fill: #808073;}
        .stroke9 {fill: #808072;}
        .stroke10 {fill: #808071;}
        .stroke11 {fill: #808070;}
        .stroke12 {fill: #808069;}
        .stroke13 {fill: #808068;}
        .stroke14 {fill: #808067;}
        .stroke15 {fill: #808066;}
        .stroke16 {fill: #808065;}
        .stroke17 {fill: #808064;}
        .stroke18 {fill: #808063;}
        .stroke19 {fill: #808062;}
        .stroke20 {fill: #808061;}
        text {
            font-family: Helvetica;
            font-size: 50px;
            fill: #808060;
            paint-order: stroke;
            stroke: #000000;
            stroke-width: 4px;
            stroke-linecap: butt;
            stroke-linejoin: miter;
            font-weight: 800;
        }
    </style>

    <path d="M 226 702 Q 205 723 170 732 Q 160 733 154 725 Q 150 719 158 708 Q 182 654 184 587 Q 188 491 186 422 L 184 370 Q 184 304 157 213 Q 139 159 176 117 Q 188 102 198 117 Q 228 153 229 364 Q 229 374 229 383 L 229 427 Q 229 604 235 661 C 238 691 238 692 226 702 Z" class="stroke1"/>
    <path d="M 549 444 Q 548 339 543 226 Q 543 193 530 184 Q 521 177 473 188 Q 457 192 458 183 Q 458 176 470 169 Q 513 126 534 96 Q 553 77 566 79 Q 578 80 589 108 Q 605 151 606 213 Q 599 351 596 450 L 595 496 Q 589 662 605 696 Q 615 717 606 728 Q 596 743 550 764 Q 532 773 472 755 Q 375 728 226 702 C 196 697 207 651 235 661 Q 239 667 286 675 L 331 686 Q 365 696 404 703 L 433 709 Q 458 716 488 720 Q 510 727 525 715 Q 543 706 548 487 L 549 444 Z" class="stroke2"/>
    <path d="M 461 432 Q 501 439 549 444 L 596 450 Q 617 454 639 455 Q 655 456 657 464 Q 658 477 640 487 Q 616 500 595 496 L 548 487 Q 502 480 461 470 L 423 462 Q 381 455 347 448 L 304 440 Q 258 433 229 427 L 186 422 Q 126 415 75 412 Q 62 411 58 403 Q 54 393 70 379 Q 106 352 163 365 Q 170 368 184 370 L 229 383 Q 266 393 304 402 L 347 412 Q 356 415 422 426 L 461 432 Z" class="stroke3"/>
    <path d="M 304 402 Q 292 209 316 178 Q 320 172 326 175 Q 332 178 337 190 Q 346 224 347 412 L 347 448 Q 348 616 358 653 Q 361 668 349 675 Q 339 682 331 686 C 305 701 269 700 286 675 Q 290 669 295 662 Q 304 644 305 619 Q 306 546 304 440 L 304 402 Z" class="stroke4"/>
    <path d="M 422 426 Q 410 260 432 222 Q 436 218 442 219 Q 448 222 451 233 Q 460 257 461 415 Q 461 424 461 432 L 461 470 Q 462 527 464 612 Q 464 637 472 673 Q 473 686 464 693 Q 445 705 433 709 C 406 721 397 725 404 703 Q 403 699 406 694 Q 424 663 424 587 Q 424 533 423 462 L 422 426 Z" class="stroke5"/>
    <path d="M 659 617 Q 692 536 673 359 Q 667 323 696 289 Q 706 279 714 290 Q 733 320 729 409 Q 725 532 730 590 Q 736 612 716 622 Q 679 646 662 638 Q 655 631 659 617 Z" class="stroke6"/>
    <path d="M 809 723 Q 813 686 820 134 Q 819 110 807 101 Q 803 98 731 101 Q 695 111 699 100 Q 700 93 723 80 Q 790 34 807 7 Q 828 -24 844 -25 Q 859 -25 872 11 Q 888 59 882 134 Q 863 372 866 613 Q 867 704 881 752 Q 897 783 840 805 Q 804 824 785 816 Q 766 809 784 786 Q 806 758 809 723 Z" class="stroke7"/>
    
    
    
    
    
    
    </g>
</svg>