<svg version="1.1" viewBox="0 0 1024 1024" xmlns="http://www.w3.org/2000/svg">
  
  <g transform="scale(1, -1) translate(0, -900)">
    <style type="text/css">
        .stroke1 {fill: #808080;}
        .stroke2 {fill: #808079;}
        .stroke3 {fill: #808078;}
        .stroke4 {fill: #808077;}
        .stroke5 {fill: #808076;}
        .stroke6 {fill: #808075;}
        .stroke7 {fill: #808074;}
        .stroke8 {fill: #808073;}
        .stroke9 {fill: #808072;}
        .stroke10 {fill: #808071;}
        .stroke11 {fill: #808070;}
        .stroke12 {fill: #808069;}
        .stroke13 {fill: #808068;}
        .stroke14 {fill: #808067;}
        .stroke15 {fill: #808066;}
        .stroke16 {fill: #808065;}
        .stroke17 {fill: #808064;}
        .stroke18 {fill: #808063;}
        .stroke19 {fill: #808062;}
        .stroke20 {fill: #808061;}
        text {
            font-family: Helvetica;
            font-size: 50px;
            fill: #808060;
            paint-order: stroke;
            stroke: #000000;
            stroke-width: 4px;
            stroke-linecap: butt;
            stroke-linejoin: miter;
            font-weight: 800;
        }
    </style>

    <path d="M 355 768 Q 383 743 413 714 Q 429 699 446 701 Q 459 701 464 717 Q 470 733 459 767 Q 452 789 419 803 Q 340 833 324 823 Q 318 819 320 804 Q 324 791 355 768 Z" class="stroke1"/>
    <path d="M 308 569 Q 402 588 560 605 Q 570 604 580 616 Q 581 629 558 640 Q 519 661 455 642 Q 295 609 133 590 Q 103 586 126 568 Q 156 541 204 550 Q 231 556 264 561 L 308 569 Z" class="stroke2"/>
    <path d="M 334 372 Q 330 373 322 373 Q 274 373 235 374 Q 207 374 222 391 Q 274 458 323 506 Q 339 522 336 529 Q 335 542 308 569 C 287 591 265 591 264 561 Q 267 501 177 398 Q 134 370 147 342 Q 150 333 158 323 Q 167 311 183 320 Q 204 332 319 352 C 349 357 364 370 334 372 Z" class="stroke3"/>
    <path d="M 319 352 Q 223 240 84 120 Q 65 104 91 110 Q 199 129 380 353 Q 395 372 410 392 Q 456 459 480 486 Q 490 499 486 508 Q 482 521 457 526 Q 429 535 416 530 Q 409 529 407 515 Q 398 464 334 372 L 319 352 Z" class="stroke4"/>
    <path d="M 413 192 Q 447 237 498 309 Q 507 321 513 326 Q 520 330 518 341 Q 517 350 506 361 Q 478 389 446 385 Q 437 384 439 372 Q 451 296 329 160 Q 326 159 324 155 Q 290 116 201 43 Q 194 39 203 36 Q 251 36 363 137 Q 381 156 397 173 L 413 192 Z" class="stroke5"/>
    <path d="M 397 173 Q 398 172 401 169 Q 456 126 522 62 Q 538 46 551 42 Q 558 41 565 50 Q 575 63 561 100 Q 546 145 413 192 C 385 202 375 194 397 173 Z" class="stroke6"/>
    <path d="M 606 572 Q 634 509 613 332 Q 604 301 635 261 Q 645 251 655 262 Q 673 295 675 368 Q 675 488 683 540 Q 690 564 669 575 Q 651 587 634 595 Q 621 599 611 594 Q 602 587 606 572 Z" class="stroke7"/>
    <path d="M 785 729 Q 789 692 782 133 Q 781 109 768 100 Q 762 97 689 110 Q 652 123 655 112 Q 656 103 678 87 Q 747 32 764 -1 Q 783 -38 801 -39 Q 817 -40 833 -2 Q 854 50 852 132 Q 836 370 844 609 Q 848 708 863 759 Q 882 793 820 818 Q 783 837 761 830 Q 742 823 759 797 Q 783 767 785 729 Z" class="stroke8"/>
    
    
    
    
    
    
    
    </g>
</svg>