<svg version="1.1" viewBox="0 0 1024 1024" xmlns="http://www.w3.org/2000/svg">
  
  <g transform="scale(1, -1) translate(0, -900)">
    <style type="text/css">
        .stroke1 {fill: #808080;}
        .stroke2 {fill: #808079;}
        .stroke3 {fill: #808078;}
        .stroke4 {fill: #808077;}
        .stroke5 {fill: #808076;}
        .stroke6 {fill: #808075;}
        .stroke7 {fill: #808074;}
        .stroke8 {fill: #808073;}
        .stroke9 {fill: #808072;}
        .stroke10 {fill: #808071;}
        .stroke11 {fill: #808070;}
        .stroke12 {fill: #808069;}
        .stroke13 {fill: #808068;}
        .stroke14 {fill: #808067;}
        .stroke15 {fill: #808066;}
        .stroke16 {fill: #808065;}
        .stroke17 {fill: #808064;}
        .stroke18 {fill: #808063;}
        .stroke19 {fill: #808062;}
        .stroke20 {fill: #808061;}
        text {
            font-family: Helvetica;
            font-size: 50px;
            fill: #808060;
            paint-order: stroke;
            stroke: #000000;
            stroke-width: 4px;
            stroke-linecap: butt;
            stroke-linejoin: miter;
            font-weight: 800;
        }
    </style>

    <path d="M 253 735 Q 271 719 290 697 Q 302 685 315 685 Q 324 685 329 697 Q 333 710 327 735 Q 323 751 300 762 Q 246 783 232 779 Q 228 775 228 764 Q 231 754 253 735 Z" class="stroke1"/>
    <path d="M 456 806 Q 444 782 382 698 Q 373 682 389 686 Q 435 714 459 735 Q 514 783 537 793 Q 556 803 545 820 Q 532 835 507 847 Q 483 859 471 855 Q 459 854 464 841 Q 468 823 456 806 Z" class="stroke2"/>
    <path d="M 492 536 Q 520 596 546 612 Q 562 628 549 644 Q 534 657 489 680 Q 473 687 454 680 Q 352 638 220 622 Q 205 621 207 612 Q 210 605 226 599 Q 248 589 280 600 Q 293 604 311 606 L 336 611 Q 384 624 437 634 Q 456 638 465 631 Q 472 621 447 543 C 438 514 479 509 492 536 Z" class="stroke3"/>
    <path d="M 370 486 Q 427 496 502 507 Q 512 508 512 517 Q 512 524 492 536 L 447 543 Q 443 543 440 541 Q 406 531 372 522 L 330 511 Q 270 498 218 486 C 189 479 181 451 211 453 Q 217 453 224 454 Q 264 467 331 479 L 370 486 Z" class="stroke4"/>
    <path d="M 368 376 Q 476 400 504 395 Q 516 395 522 385 Q 531 370 507 275 Q 506 265 493 264 Q 465 271 431 281 Q 406 288 424 266 Q 476 220 487 196 Q 494 183 506 186 Q 518 186 532 198 Q 550 220 561 262 Q 570 338 597 368 Q 612 387 600 398 Q 576 419 543 436 Q 531 442 463 425 Q 433 422 369 407 L 330 400 Q 269 390 232 377 Q 208 373 196 372 Q 190 373 191 385 Q 201 434 211 453 C 222 481 222 482 218 486 Q 205 502 182 516 Q 172 523 163 516 Q 156 512 162 496 Q 171 474 162 441 Q 144 387 128 367 Q 118 354 126 339 Q 133 317 146 309 Q 155 305 175 319 Q 215 355 310 366 L 368 376 Z" class="stroke5"/>
    <path d="M 327 310 Q 320 153 307 110 Q 298 74 330 27 Q 340 9 347 6 Q 357 5 363 17 Q 375 47 371 75 Q 367 238 368 376 L 369 407 Q 369 452 370 486 L 372 522 Q 373 550 378 567 Q 379 579 373 584 Q 352 603 336 611 C 311 627 300 633 311 606 Q 310 603 315 596 Q 322 584 330 511 L 331 479 Q 331 443 330 400 L 327 310 Z" class="stroke6"/>
    <path d="M 310 366 Q 235 240 69 81 Q 62 72 73 70 Q 91 64 209 168 Q 269 219 327 310 C 372 380 326 392 310 366 Z" class="stroke7"/>
    <path d="M 624 583 Q 651 523 629 362 Q 623 328 648 298 Q 657 288 666 298 Q 687 328 684 370 Q 678 478 691 555 Q 697 576 679 586 Q 663 596 648 604 Q 636 608 628 603 Q 621 597 624 583 Z" class="stroke8"/>
    <path d="M 781 706 Q 785 670 783 130 Q 783 108 771 98 Q 762 94 693 111 Q 660 123 663 113 Q 664 106 684 90 Q 748 38 765 9 Q 784 -25 800 -27 Q 815 -28 830 7 Q 848 53 845 127 Q 829 362 835 600 Q 838 688 851 733 Q 867 764 812 785 Q 778 804 759 796 Q 741 789 758 767 Q 780 740 781 706 Z" class="stroke9"/>
    
    
    
    
    
    
    
    
    </g>
</svg>