<svg version="1.1" viewBox="0 0 1024 1024" xmlns="http://www.w3.org/2000/svg">
  
  <g transform="scale(1, -1) translate(0, -900)">
    <style type="text/css">
        .stroke1 {fill: #808080;}
        .stroke2 {fill: #808079;}
        .stroke3 {fill: #808078;}
        .stroke4 {fill: #808077;}
        .stroke5 {fill: #808076;}
        .stroke6 {fill: #808075;}
        .stroke7 {fill: #808074;}
        .stroke8 {fill: #808073;}
        .stroke9 {fill: #808072;}
        .stroke10 {fill: #808071;}
        .stroke11 {fill: #808070;}
        .stroke12 {fill: #808069;}
        .stroke13 {fill: #808068;}
        .stroke14 {fill: #808067;}
        .stroke15 {fill: #808066;}
        .stroke16 {fill: #808065;}
        .stroke17 {fill: #808064;}
        .stroke18 {fill: #808063;}
        .stroke19 {fill: #808062;}
        .stroke20 {fill: #808061;}
        text {
            font-family: Helvetica;
            font-size: 50px;
            fill: #808060;
            paint-order: stroke;
            stroke: #000000;
            stroke-width: 4px;
            stroke-linecap: butt;
            stroke-linejoin: miter;
            font-weight: 800;
        }
    </style>

    <path d="M 186 621 Q 207 602 228 577 Q 240 565 254 565 Q 264 565 269 577 Q 273 590 267 617 Q 263 633 238 647 Q 180 671 164 667 Q 160 663 160 652 Q 163 642 186 621 Z" class="stroke1"/>
    <path d="M 456 704 Q 449 694 387 617 Q 377 602 393 605 Q 439 629 493 663 Q 511 676 532 686 Q 551 695 543 711 Q 531 727 508 740 Q 486 753 475 751 Q 463 750 467 738 Q 468 722 456 704 Z" class="stroke2"/>
    <path d="M 332 731 Q 329 538 231 453 Q 207 435 173 414 Q 161 410 158 405 Q 154 401 168 398 Q 201 394 271 436 Q 358 491 380 671 Q 383 720 399 756 Q 403 766 396 774 Q 380 790 348 805 Q 329 815 313 810 Q 294 803 308 787 Q 333 759 332 731 Z" class="stroke3"/>
    <path d="M 405 521 Q 430 500 458 475 Q 468 465 481 466 Q 490 466 493 477 Q 497 487 490 511 Q 481 538 401 558 Q 388 561 384 559 Q 380 555 381 545 Q 384 538 405 521 Z" class="stroke4"/>
    <path d="M 151 316 Q 202 249 224 246 Q 237 245 245 262 Q 248 275 239 296 Q 230 312 207 322 Q 173 340 157 343 Q 147 346 146 334 Q 145 325 151 316 Z" class="stroke5"/>
    <path d="M 470 380 Q 448 347 403 296 Q 399 289 403 283 Q 410 282 417 286 Q 496 340 535 360 Q 551 364 548 374 Q 544 389 526 406 Q 510 422 489 424 Q 476 424 477 407 Q 478 394 470 380 Z" class="stroke6"/>
    <path d="M 353 226 Q 360 250 366 275 Q 378 351 393 377 Q 403 395 387 403 Q 371 416 356 422 Q 334 435 316 429 Q 303 425 309 411 Q 337 356 300 226 Q 264 121 169 57 Q 154 47 140 35 Q 127 26 139 24 Q 187 20 262 85 Q 299 115 318 150 Q 325 166 335 181 Q 339 191 344 202 L 353 226 Z" class="stroke7"/>
    <path d="M 344 202 Q 494 52 497 50 Q 506 49 513 58 Q 525 71 513 113 Q 501 171 353 226 C 325 237 323 223 344 202 Z" class="stroke8"/>
    <path d="M 583 577 Q 614 508 594 333 Q 587 300 616 265 Q 626 255 634 266 Q 649 290 651 365 Q 645 494 654 549 Q 660 571 640 582 Q 624 592 607 600 Q 595 604 586 598 Q 579 591 583 577 Z" class="stroke9"/>
    <path d="M 761 687 Q 765 653 770 122 Q 770 100 758 91 Q 751 87 666 104 Q 632 114 635 104 Q 636 97 658 82 Q 731 30 751 -1 Q 773 -37 792 -37 Q 807 -38 821 -2 Q 839 46 834 122 Q 815 348 818 576 Q 821 667 833 716 Q 849 747 792 770 Q 756 788 737 780 Q 718 773 736 750 Q 758 722 761 687 Z" class="stroke10"/>
    
    
    
    
    
    
    
    
    
    </g>
</svg>