<svg version="1.1" viewBox="0 0 1024 1024" xmlns="http://www.w3.org/2000/svg">
  
  <g transform="scale(1, -1) translate(0, -900)">
    <style type="text/css">
        .stroke1 {fill: #808080;}
        .stroke2 {fill: #808079;}
        .stroke3 {fill: #808078;}
        .stroke4 {fill: #808077;}
        .stroke5 {fill: #808076;}
        .stroke6 {fill: #808075;}
        .stroke7 {fill: #808074;}
        .stroke8 {fill: #808073;}
        .stroke9 {fill: #808072;}
        .stroke10 {fill: #808071;}
        .stroke11 {fill: #808070;}
        .stroke12 {fill: #808069;}
        .stroke13 {fill: #808068;}
        .stroke14 {fill: #808067;}
        .stroke15 {fill: #808066;}
        .stroke16 {fill: #808065;}
        .stroke17 {fill: #808064;}
        .stroke18 {fill: #808063;}
        .stroke19 {fill: #808062;}
        .stroke20 {fill: #808061;}
        text {
            font-family: Helvetica;
            font-size: 50px;
            fill: #808060;
            paint-order: stroke;
            stroke: #000000;
            stroke-width: 4px;
            stroke-linecap: butt;
            stroke-linejoin: miter;
            font-weight: 800;
        }
    </style>

    <path d="M 222 686 Q 258 710 281 726 Q 336 771 357 778 Q 375 787 366 801 Q 354 814 333 827 Q 314 839 302 836 Q 292 835 295 824 Q 298 800 215 703 C 196 680 197 669 222 686 Z" class="stroke1"/>
    <path d="M 337 631 Q 240 556 232 558 Q 226 561 225 575 Q 219 659 222 686 C 223 697 223 697 215 703 Q 193 721 178 724 Q 168 725 164 721 Q 157 715 166 706 Q 196 664 191 566 Q 191 542 181 527 Q 174 511 181 494 Q 191 470 206 463 Q 215 459 223 473 Q 251 515 346 617 C 366 639 361 649 337 631 Z" class="stroke2"/>
    <path d="M 346 617 Q 353 605 365 601 Q 375 598 383 610 Q 387 620 383 637 Q 379 652 362 663 Q 337 684 326 689 Q 319 692 316 683 Q 313 677 337 631 L 346 617 Z" class="stroke3"/>
    <path d="M 491 734 Q 531 747 565 755 Q 575 756 578 753 Q 585 744 582 719 Q 578 649 563 617 Q 550 593 530 596 Q 509 602 491 609 Q 472 615 486 597 Q 520 563 537 537 Q 550 522 563 535 Q 611 571 627 705 Q 631 739 643 756 Q 652 766 647 774 Q 640 781 600 797 Q 584 803 570 792 Q 524 762 413 746 Q 400 745 398 738 Q 397 732 416 724 Q 435 714 449 720 Q 456 724 467 726 L 491 734 Z" class="stroke4"/>
    <path d="M 467 726 Q 476 675 385 561 Q 381 557 381 553 Q 381 550 385 550 Q 440 568 497 674 Q 506 690 511 698 Q 515 705 510 714 Q 500 727 491 734 C 468 754 464 756 467 726 Z" class="stroke5"/>
    <path d="M 419 501 Q 426 510 425 516 Q 422 526 401 534 Q 377 543 367 541 Q 360 540 358 528 Q 328 423 84 246 Q 66 234 89 237 Q 176 241 331 402 Q 355 432 403 484 L 419 501 Z" class="stroke6"/>
    <path d="M 403 484 Q 470 453 553 403 Q 568 393 579 393 Q 585 394 588 402 Q 594 414 577 440 Q 556 476 419 501 C 390 506 376 497 403 484 Z" class="stroke7"/>
    <path d="M 397 346 Q 496 376 497 377 Q 504 384 499 391 Q 492 400 469 404 Q 448 407 373 378 Q 340 369 304 363 Q 276 356 298 344 Q 317 334 359 336 L 397 346 Z" class="stroke8"/>
    <path d="M 418 254 Q 448 264 480 272 Q 516 284 521 289 Q 528 296 523 303 Q 516 312 493 316 Q 463 319 421 296 L 368 275 Q 362 274 360 273 Q 311 257 252 247 Q 224 240 245 228 Q 275 212 341 232 Q 354 236 369 239 L 418 254 Z" class="stroke9"/>
    <path d="M 410 107 Q 414 189 418 254 L 421 296 Q 421 332 398 345 L 397 346 C 373 364 350 365 359 336 Q 368 309 368 275 L 369 239 Q 369 190 369 95 C 369 65 409 77 410 107 Z" class="stroke10"/>
    <path d="M 247 152 Q 263 134 282 113 Q 292 103 305 103 Q 312 103 317 113 Q 321 123 316 147 Q 310 168 245 189 Q 233 192 228 191 Q 224 188 224 178 Q 227 169 247 152 Z" class="stroke11"/>
    <path d="M 489 223 Q 477 198 450 158 Q 446 152 451 147 Q 457 146 463 151 Q 518 194 546 212 Q 559 216 555 225 Q 551 237 534 249 Q 518 262 501 262 Q 491 261 492 246 Q 495 236 489 223 Z" class="stroke12"/>
    <path d="M 369 95 Q 308 80 243 63 Q 221 56 184 58 Q 171 57 169 47 Q 166 34 175 26 Q 197 10 229 -11 Q 239 -15 251 -6 Q 299 25 511 105 Q 542 117 564 132 Q 577 139 578 148 Q 574 154 561 151 Q 491 129 410 107 L 369 95 Z" class="stroke13"/>
    <path d="M 644 567 Q 674 503 652 328 Q 645 295 672 262 Q 682 252 690 262 Q 705 286 707 359 Q 707 506 712 539 Q 718 560 699 571 Q 659 593 648 587 Q 641 580 644 567 Z" class="stroke14"/>
    <path d="M 812 695 Q 818 659 820 110 Q 819 88 807 78 Q 801 72 727 81 Q 691 91 695 80 Q 696 73 719 59 Q 786 13 805 -16 Q 827 -49 843 -49 Q 858 -50 871 -13 Q 887 35 883 110 Q 864 347 869 585 Q 872 676 885 723 Q 901 754 844 778 Q 810 796 789 789 Q 770 782 788 758 Q 810 730 812 695 Z" class="stroke15"/>
    
    
    
    
    
    
    
    
    
    
    
    
    
    
    </g>
</svg>