<svg version="1.1" viewBox="0 0 1024 1024" xmlns="http://www.w3.org/2000/svg">
  
  <g transform="scale(1, -1) translate(0, -900)">
    <style type="text/css">
        .stroke1 {fill: #808080;}
        .stroke2 {fill: #808079;}
        .stroke3 {fill: #808078;}
        .stroke4 {fill: #808077;}
        .stroke5 {fill: #808076;}
        .stroke6 {fill: #808075;}
        .stroke7 {fill: #808074;}
        .stroke8 {fill: #808073;}
        .stroke9 {fill: #808072;}
        .stroke10 {fill: #808071;}
        .stroke11 {fill: #808070;}
        .stroke12 {fill: #808069;}
        .stroke13 {fill: #808068;}
        .stroke14 {fill: #808067;}
        .stroke15 {fill: #808066;}
        .stroke16 {fill: #808065;}
        .stroke17 {fill: #808064;}
        .stroke18 {fill: #808063;}
        .stroke19 {fill: #808062;}
        .stroke20 {fill: #808061;}
        text {
            font-family: Helvetica;
            font-size: 50px;
            fill: #808060;
            paint-order: stroke;
            stroke: #000000;
            stroke-width: 4px;
            stroke-linecap: butt;
            stroke-linejoin: miter;
            font-weight: 800;
        }
    </style>

    <path d="M 312 740 Q 336 761 370 796 Q 383 812 401 825 Q 417 835 405 849 Q 392 861 368 868 Q 346 875 336 871 Q 326 868 332 858 Q 336 839 302 768 Q 293 752 284 733 C 271 706 290 720 312 740 Z" class="stroke1"/>
    <path d="M 275 730 Q 259 740 242 745 Q 236 746 232 743 Q 226 739 233 729 Q 260 687 264 576 Q 264 530 295 503 L 296 502 Q 309 498 311 523 L 310 546 Q 309 562 305 579 Q 304 582 304 585 L 302 606 Q 299 630 299 645 L 298 665 Q 298 704 297 705 C 296 718 296 718 275 730 Z" class="stroke2"/>
    <path d="M 429 539 Q 445 514 461 506 Q 471 500 482 518 Q 495 543 515 674 Q 522 699 540 721 Q 550 731 540 743 Q 527 756 490 776 Q 474 783 461 778 Q 442 771 412 765 Q 376 756 330 745 Q 320 744 312 740 L 284 733 Q 278 733 275 730 C 246 721 268 696 297 705 Q 346 721 434 738 Q 453 742 461 735 Q 474 722 472 707 Q 454 572 445 563 C 434 535 425 545 429 539 Z" class="stroke3"/>
    <path d="M 299 645 Q 311 649 415 670 Q 431 674 425 683 Q 416 693 398 695 Q 371 698 298 665 C 271 653 270 637 299 645 Z" class="stroke4"/>
    <path d="M 304 585 Q 305 585 308 585 Q 372 598 419 606 Q 435 610 429 619 Q 422 629 403 632 Q 381 633 302 606 C 274 596 274 584 304 585 Z" class="stroke5"/>
    <path d="M 311 523 Q 312 523 315 523 Q 378 533 429 539 C 459 543 471 548 445 563 Q 439 567 429 570 Q 402 573 310 546 C 281 538 281 522 311 523 Z" class="stroke6"/>
    <path d="M 239 448 Q 229 452 206 456 Q 196 459 192 454 Q 188 450 195 434 Q 220 382 236 297 Q 239 272 253 254 Q 269 235 274 249 Q 275 256 277 268 L 276 284 Q 276 287 255 420 C 251 444 251 444 239 448 Z" class="stroke7"/>
    <path d="M 461 296 Q 476 274 489 267 Q 498 260 510 277 Q 522 295 547 393 Q 554 418 573 439 Q 583 449 575 460 Q 562 473 527 496 Q 512 502 452 488 Q 446 488 239 448 C 210 442 227 409 255 420 Q 261 426 345 442 L 378 448 Q 414 455 459 462 Q 487 466 496 457 Q 506 447 504 435 Q 486 345 475 321 C 465 293 458 300 461 296 Z" class="stroke8"/>
    <path d="M 393 362 Q 423 369 450 373 Q 468 377 461 386 Q 452 396 433 400 Q 417 401 395 395 L 353 383 Q 322 374 293 366 Q 280 362 296 351 L 354 355 L 393 362 Z" class="stroke9"/>
    <path d="M 390 312 Q 391 339 393 362 L 395 395 Q 395 398 396 400 Q 400 427 396 433 Q 387 443 378 448 C 353 464 334 470 345 442 Q 349 438 353 383 L 354 355 Q 354 334 355 304 C 356 274 389 282 390 312 Z" class="stroke10"/>
    <path d="M 277 268 Q 287 267 303 268 Q 391 284 461 296 C 491 301 503 309 475 321 Q 469 324 463 325 Q 427 328 390 312 L 355 304 Q 312 295 276 284 C 247 275 247 270 277 268 Z" class="stroke11"/>
    <path d="M 455 194 Q 516 204 592 209 Q 608 210 608 218 Q 609 230 594 239 Q 569 252 547 248 Q 246 190 94 180 Q 82 179 79 172 Q 75 162 89 151 Q 122 124 177 137 Q 216 147 257 157 L 303 168 Q 346 180 426 190 L 455 194 Z" class="stroke12"/>
    <path d="M 257 157 Q 261 75 159 -30 Q 153 -36 158 -38 Q 177 -41 229 -1 Q 275 35 306 114 Q 312 127 319 140 Q 325 147 320 155 Q 316 161 303 168 C 277 183 257 187 257 157 Z" class="stroke13"/>
    <path d="M 426 190 Q 445 171 429 54 Q 429 53 429 51 Q 429 41 427 36 Q 423 3 447 -35 Q 457 -51 463 -54 Q 472 -55 476 -44 Q 480 -29 482 57 Q 479 120 483 162 Q 484 172 479 176 Q 466 188 455 194 C 429 210 410 215 426 190 Z" class="stroke14"/>
    <path d="M 630 545 Q 660 481 639 302 Q 630 265 660 234 Q 669 224 678 234 Q 696 259 696 347 Q 696 483 701 517 Q 708 539 688 550 Q 672 560 655 568 Q 643 572 634 566 Q 627 560 630 545 Z" class="stroke15"/>
    <path d="M 812 731 Q 816 691 813 90 Q 813 65 799 55 Q 793 49 738 52 Q 704 62 707 52 Q 708 45 730 30 Q 787 -16 801 -42 Q 817 -72 832 -73 Q 847 -74 861 -38 Q 879 10 876 86 Q 858 353 867 620 Q 871 711 884 759 Q 902 790 844 813 Q 810 832 789 825 Q 771 818 787 794 Q 809 766 812 731 Z" class="stroke16"/>
    
    
    
    
    
    
    
    
    
    
    
    
    
    
    
    </g>
</svg>