<svg version="1.1" viewBox="0 0 1024 1024" xmlns="http://www.w3.org/2000/svg">
  
  <g transform="scale(1, -1) translate(0, -900)">
    <style type="text/css">
        .stroke1 {fill: #808080;}
        .stroke2 {fill: #808079;}
        .stroke3 {fill: #808078;}
        .stroke4 {fill: #808077;}
        .stroke5 {fill: #808076;}
        .stroke6 {fill: #808075;}
        .stroke7 {fill: #808074;}
        .stroke8 {fill: #808073;}
        .stroke9 {fill: #808072;}
        .stroke10 {fill: #808071;}
        .stroke11 {fill: #808070;}
        .stroke12 {fill: #808069;}
        .stroke13 {fill: #808068;}
        .stroke14 {fill: #808067;}
        .stroke15 {fill: #808066;}
        .stroke16 {fill: #808065;}
        .stroke17 {fill: #808064;}
        .stroke18 {fill: #808063;}
        .stroke19 {fill: #808062;}
        .stroke20 {fill: #808061;}
        text {
            font-family: Helvetica;
            font-size: 50px;
            fill: #808060;
            paint-order: stroke;
            stroke: #000000;
            stroke-width: 4px;
            stroke-linecap: butt;
            stroke-linejoin: miter;
            font-weight: 800;
        }
    </style>

    <path d="M 512 504 Q 585 519 660 527 Q 684 528 689 517 Q 696 498 691 451 Q 670 276 633 183 Q 614 125 593 108 Q 580 95 551 103 Q 511 116 473 129 Q 448 136 466 113 Q 518 59 547 16 Q 557 -8 582 0 Q 603 1 630 30 Q 709 106 746 401 Q 753 468 781 506 Q 800 530 790 541 Q 772 562 733 580 Q 705 595 675 582 Q 608 557 517 537 L 461 526 Q 305 505 244 505 Q 222 509 221 496 Q 220 486 244 468 Q 274 446 303 456 Q 379 478 455 492 L 512 504 Z" class="stroke1"/>
    <path d="M 455 492 Q 404 231 173 60 Q 170 60 131 27 Q 115 15 130 13 Q 146 14 187 31 Q 271 73 332 135 Q 402 199 436 271 Q 449 302 464 334 Q 500 413 512 504 L 517 537 Q 541 691 558 728 Q 568 750 549 759 Q 495 799 460 788 Q 444 781 452 764 Q 488 698 461 526 L 455 492 Z" class="stroke2"/>
    <path d="M 269 405 Q 232 354 186 311 Q 176 301 171 285 Q 164 261 167 244 Q 171 223 195 231 Q 259 259 281 340 Q 294 371 293 399 Q 290 409 285 411 Q 275 412 269 405 Z" class="stroke3"/>
    <path d="M 775 384 Q 818 338 870 270 Q 885 248 900 243 Q 909 242 917 251 Q 930 263 921 309 Q 917 348 847 384 Q 804 406 779 415 Q 770 421 767 409 Q 766 396 775 384 Z" class="stroke4"/>
    
    
    
    </g>
</svg>