<svg version="1.1" viewBox="0 0 1024 1024" xmlns="http://www.w3.org/2000/svg">
  
  <g transform="scale(1, -1) translate(0, -900)">
    <style type="text/css">
        .stroke1 {fill: #808080;}
        .stroke2 {fill: #808079;}
        .stroke3 {fill: #808078;}
        .stroke4 {fill: #808077;}
        .stroke5 {fill: #808076;}
        .stroke6 {fill: #808075;}
        .stroke7 {fill: #808074;}
        .stroke8 {fill: #808073;}
        .stroke9 {fill: #808072;}
        .stroke10 {fill: #808071;}
        .stroke11 {fill: #808070;}
        .stroke12 {fill: #808069;}
        .stroke13 {fill: #808068;}
        .stroke14 {fill: #808067;}
        .stroke15 {fill: #808066;}
        .stroke16 {fill: #808065;}
        .stroke17 {fill: #808064;}
        .stroke18 {fill: #808063;}
        .stroke19 {fill: #808062;}
        .stroke20 {fill: #808061;}
        text {
            font-family: Helvetica;
            font-size: 50px;
            fill: #808060;
            paint-order: stroke;
            stroke: #000000;
            stroke-width: 4px;
            stroke-linecap: butt;
            stroke-linejoin: miter;
            font-weight: 800;
        }
    </style>

    <path d="M 242 646 Q 202 639 231 620 Q 279 593 342 610 Q 403 623 466 637 Q 494 644 499 648 Q 509 657 504 667 Q 495 680 462 687 Q 428 694 394 679 Q 363 669 327 659 Q 288 650 242 646 Z" class="stroke1"/>
    <path d="M 343 449 Q 401 461 475 470 Q 493 471 493 480 Q 494 493 476 503 Q 448 516 425 510 Q 187 461 110 456 Q 97 455 93 447 Q 90 435 105 424 Q 147 396 189 408 Q 240 424 283 435 L 343 449 Z" class="stroke2"/>
    <path d="M 439 288 Q 352 267 260 241 Q 253 240 252 241 Q 249 244 255 252 Q 325 384 356 420 Q 368 433 358 442 Q 352 446 343 449 C 316 462 276 464 283 435 Q 284 434 285 429 Q 298 386 232 280 Q 213 249 172 218 Q 147 205 148 195 Q 149 179 160 161 Q 172 143 185 140 Q 192 139 202 144 Q 251 189 446 270 Q 446 271 448 271 C 476 283 468 295 439 288 Z" class="stroke3"/>
    <path d="M 448 271 Q 473 225 485 219 Q 494 218 501 225 Q 510 235 511 261 Q 514 283 489 313 Q 461 338 429 363 Q 419 370 413 370 Q 407 369 405 359 Q 405 353 439 288 L 448 271 Z" class="stroke4"/>
    <path d="M 688 471 Q 740 487 794 495 Q 809 496 812 489 Q 819 474 816 432 Q 804 281 775 200 Q 760 151 743 134 Q 731 121 705 129 Q 666 141 632 153 Q 608 160 625 138 Q 674 86 702 46 Q 712 24 735 30 Q 754 33 777 58 Q 844 127 872 389 Q 878 447 900 481 Q 916 503 908 513 Q 892 532 856 547 Q 831 560 804 547 Q 758 525 696 507 L 634 492 Q 564 477 522 475 Q 503 476 503 466 Q 502 456 524 444 Q 551 428 574 437 Q 598 446 625 453 L 688 471 Z" class="stroke5"/>
    <path d="M 625 453 Q 580 273 489 145 Q 462 102 433 61 Q 427 54 425 48 Q 421 35 433 37 Q 469 43 562 170 Q 581 201 601 235 Q 646 323 688 471 L 696 507 Q 714 654 734 713 Q 734 719 737 724 Q 747 740 741 755 Q 723 774 689 792 Q 668 805 654 800 Q 641 793 647 777 Q 665 752 661 681 Q 658 663 657 641 Q 648 563 634 492 L 625 453 Z" class="stroke6"/>
    
    
    
    
    
    </g>
</svg>