<svg version="1.1" viewBox="0 0 1024 1024" xmlns="http://www.w3.org/2000/svg">
  
  <g transform="scale(1, -1) translate(0, -900)">
    <style type="text/css">
        .stroke1 {fill: #808080;}
        .stroke2 {fill: #808079;}
        .stroke3 {fill: #808078;}
        .stroke4 {fill: #808077;}
        .stroke5 {fill: #808076;}
        .stroke6 {fill: #808075;}
        .stroke7 {fill: #808074;}
        .stroke8 {fill: #808073;}
        .stroke9 {fill: #808072;}
        .stroke10 {fill: #808071;}
        .stroke11 {fill: #808070;}
        .stroke12 {fill: #808069;}
        .stroke13 {fill: #808068;}
        .stroke14 {fill: #808067;}
        .stroke15 {fill: #808066;}
        .stroke16 {fill: #808065;}
        .stroke17 {fill: #808064;}
        .stroke18 {fill: #808063;}
        .stroke19 {fill: #808062;}
        .stroke20 {fill: #808061;}
        text {
            font-family: Helvetica;
            font-size: 50px;
            fill: #808060;
            paint-order: stroke;
            stroke: #000000;
            stroke-width: 4px;
            stroke-linecap: butt;
            stroke-linejoin: miter;
            font-weight: 800;
        }
    </style>

    <path d="M 330 579 Q 373 631 419 707 Q 440 747 460 767 Q 469 777 464 792 Q 460 805 430 827 Q 402 846 383 845 Q 364 842 373 820 Q 386 795 376 771 Q 327 639 202 475 Q 192 465 190 459 Q 187 447 201 450 Q 237 459 316 562 L 330 579 Z" class="stroke1"/>
    <path d="M 610 585 Q 641 600 732 601 Q 754 601 761 592 Q 780 538 743 296 Q 719 173 677 105 Q 656 68 633 66 Q 620 66 554 105 Q 544 109 543 104 Q 542 100 551 88 Q 591 33 606 -5 Q 613 -27 628 -29 Q 650 -32 674 -9 Q 758 51 790 217 Q 812 329 831 501 Q 834 541 860 569 Q 875 584 874 593 Q 873 602 852 617 Q 824 639 784 653 Q 759 662 696 643 Q 666 637 626 627 Q 491 597 330 579 C 300 576 288 572 316 562 Q 337 541 408 552 L 444 558 Q 513 571 574 579 L 610 585 Z" class="stroke2"/>
    <path d="M 408 552 L 409 550 Q 418 511 374 436 Q 367 426 359 411 L 341 385 Q 254 280 207 234 Q 201 230 200 224 Q 200 220 205 219 Q 268 231 378 362 L 403 393 Q 463 486 474 496 Q 481 506 475 520 Q 463 544 444 558 C 421 578 403 581 408 552 Z" class="stroke3"/>
    <path d="M 473 299 Q 407 191 263 67 Q 256 63 252 57 Q 246 48 257 47 Q 294 44 396 128 Q 412 146 432 164 Q 475 210 515 270 L 548 324 Q 576 373 599 424 Q 629 491 641 509 Q 654 519 651 535 Q 644 551 610 585 C 589 607 570 609 574 579 L 575 578 Q 581 551 566 500 Q 560 487 554 470 Q 529 406 500 349 L 473 299 Z" class="stroke4"/>
    <path d="M 378 362 Q 423 334 473 299 L 515 270 Q 549 248 585 221 Q 601 206 616 204 Q 623 205 628 215 Q 637 228 619 264 Q 609 292 548 324 L 500 349 Q 484 359 462 368 Q 431 381 403 393 L 359 411 Q 325 426 300 434 Q 291 437 291 426 Q 291 411 341 385 L 378 362 Z" class="stroke5"/>
    
    
    
    
    </g>
</svg>