<svg version="1.1" viewBox="0 0 1024 1024" xmlns="http://www.w3.org/2000/svg">
  
  <g transform="scale(1, -1) translate(0, -900)">
    <style type="text/css">
        .stroke1 {fill: #808080;}
        .stroke2 {fill: #808079;}
        .stroke3 {fill: #808078;}
        .stroke4 {fill: #808077;}
        .stroke5 {fill: #808076;}
        .stroke6 {fill: #808075;}
        .stroke7 {fill: #808074;}
        .stroke8 {fill: #808073;}
        .stroke9 {fill: #808072;}
        .stroke10 {fill: #808071;}
        .stroke11 {fill: #808070;}
        .stroke12 {fill: #808069;}
        .stroke13 {fill: #808068;}
        .stroke14 {fill: #808067;}
        .stroke15 {fill: #808066;}
        .stroke16 {fill: #808065;}
        .stroke17 {fill: #808064;}
        .stroke18 {fill: #808063;}
        .stroke19 {fill: #808062;}
        .stroke20 {fill: #808061;}
        text {
            font-family: Helvetica;
            font-size: 50px;
            fill: #808060;
            paint-order: stroke;
            stroke: #000000;
            stroke-width: 4px;
            stroke-linecap: butt;
            stroke-linejoin: miter;
            font-weight: 800;
        }
    </style>

    <path d="M 373 643 Q 485 779 486 787 Q 485 791 485 793 Q 481 806 453 832 Q 428 854 407 855 Q 388 854 394 831 Q 421 758 213 531 Q 203 521 199 515 Q 195 505 210 506 Q 240 509 346 614 L 373 643 Z" class="stroke1"/>
    <path d="M 346 614 Q 394 605 625 653 Q 742 677 755 659 Q 779 620 776 359 Q 770 173 723 76 Q 705 33 677 22 Q 659 21 570 62 Q 560 66 559 59 Q 558 55 570 44 Q 627 -16 652 -58 Q 665 -85 683 -84 Q 710 -80 735 -50 Q 774 -11 798 50 Q 829 126 836 231 Q 846 364 845 566 Q 844 611 868 644 Q 884 660 882 670 Q 879 680 856 695 Q 823 717 780 729 Q 753 736 696 715 Q 495 667 373 643 C 344 637 316 614 346 614 Z" class="stroke2"/>
    <path d="M 289 447 Q 311 426 334 401 Q 344 389 359 389 Q 368 389 373 401 Q 377 414 371 439 Q 367 457 342 470 Q 281 495 268 491 Q 264 487 264 476 Q 267 466 289 447 Z" class="stroke3"/>
    <path d="M 577 530 Q 555 493 511 432 Q 505 425 511 419 Q 518 418 525 423 Q 607 490 647 515 Q 663 521 659 531 Q 653 546 634 562 Q 615 578 594 578 Q 581 577 582 559 Q 585 546 577 530 Z" class="stroke4"/>
    <path d="M 470 339 Q 551 354 651 363 Q 667 364 669 372 Q 670 385 652 395 Q 625 408 601 404 Q 528 391 471 379 L 422 371 Q 278 347 195 344 Q 182 343 178 335 Q 174 325 190 311 Q 229 284 283 296 Q 352 317 409 327 L 470 339 Z" class="stroke5"/>
    <path d="M 415 245 Q 405 128 398 112 Q 389 72 424 18 Q 436 -1 444 -7 Q 456 -8 462 6 Q 475 40 472 72 Q 469 217 470 339 L 471 379 Q 472 484 480 525 Q 483 538 475 544 Q 450 566 431 576 Q 418 580 408 573 Q 402 569 410 558 Q 426 531 422 371 L 415 245 Z" class="stroke6"/>
    <path d="M 409 327 Q 343 218 177 107 Q 162 97 172 93 Q 181 87 194 92 Q 293 114 408 237 Q 411 241 415 245 C 493 334 425 352 409 327 Z" class="stroke7"/>
    <path d="M 515 250 Q 561 219 620 170 Q 636 154 651 152 Q 658 152 665 163 Q 674 176 657 214 Q 644 250 577 265 Q 535 275 512 278 Q 503 281 503 270 Q 504 257 515 250 Z" class="stroke8"/>
    
    
    
    
    
    
    
    </g>
</svg>