<svg version="1.1" viewBox="0 0 1024 1024" xmlns="http://www.w3.org/2000/svg">
  
  <g transform="scale(1, -1) translate(0, -900)">
    <style type="text/css">
        .stroke1 {fill: #808080;}
        .stroke2 {fill: #808079;}
        .stroke3 {fill: #808078;}
        .stroke4 {fill: #808077;}
        .stroke5 {fill: #808076;}
        .stroke6 {fill: #808075;}
        .stroke7 {fill: #808074;}
        .stroke8 {fill: #808073;}
        .stroke9 {fill: #808072;}
        .stroke10 {fill: #808071;}
        .stroke11 {fill: #808070;}
        .stroke12 {fill: #808069;}
        .stroke13 {fill: #808068;}
        .stroke14 {fill: #808067;}
        .stroke15 {fill: #808066;}
        .stroke16 {fill: #808065;}
        .stroke17 {fill: #808064;}
        .stroke18 {fill: #808063;}
        .stroke19 {fill: #808062;}
        .stroke20 {fill: #808061;}
        text {
            font-family: Helvetica;
            font-size: 50px;
            fill: #808060;
            paint-order: stroke;
            stroke: #000000;
            stroke-width: 4px;
            stroke-linecap: butt;
            stroke-linejoin: miter;
            font-weight: 800;
        }
    </style>

    <path d="M 398 617 Q 435 660 479 723 Q 498 757 517 772 Q 526 782 522 796 Q 518 809 490 832 Q 465 851 445 851 Q 426 850 434 827 Q 452 788 371 658 Q 332 600 279 534 Q 269 524 267 518 Q 263 508 277 510 Q 307 513 383 600 L 398 617 Z" class="stroke1"/>
    <path d="M 672 45 Q 660 42 593 62 Q 583 66 583 60 Q 582 56 594 46 Q 634 1 653 -31 Q 663 -52 675 -51 Q 700 -52 723 -25 Q 807 50 827 260 Q 836 372 840 532 Q 839 574 864 606 Q 877 621 877 630 Q 876 639 854 653 Q 826 675 786 686 Q 765 692 698 673 Q 676 669 645 660 Q 525 633 398 617 C 368 613 353 604 383 600 Q 416 590 499 598 Q 745 634 757 627 Q 758 627 762 623 Q 783 583 773 357 Q 764 186 716 90 Q 698 47 672 45 Z" class="stroke2"/>
    <path d="M 485 398 Q 507 429 529 477 Q 538 495 549 512 Q 556 519 552 528 Q 546 537 522 552 Q 504 562 496 561 Q 486 560 486 546 Q 489 489 446 418 L 424 386 Q 375 332 312 283 Q 305 277 311 274 Q 336 268 410 320 Q 435 338 457 361 L 485 398 Z" class="stroke3"/>
    <path d="M 457 361 Q 550 292 554 291 Q 560 290 564 298 Q 571 308 559 337 Q 549 364 485 398 L 446 418 Q 373 452 333 468 Q 326 471 326 462 Q 327 453 335 447 Q 377 420 424 386 L 457 361 Z" class="stroke4"/>
    <path d="M 610 261 Q 418 239 274 198 Q 252 191 256 218 Q 265 344 255 359 Q 239 375 216 387 Q 204 391 195 389 Q 185 385 193 367 Q 220 312 214 256 Q 210 204 190 179 Q 172 161 180 148 Q 190 133 208 124 Q 217 120 236 130 Q 278 169 491 211 Q 564 227 598 225 C 628 225 640 265 610 261 Z" class="stroke5"/>
    <path d="M 598 225 Q 592 204 612 161 Q 619 145 632 156 Q 650 172 667 283 Q 679 385 696 414 Q 705 429 695 442 Q 677 458 646 478 Q 634 485 622 480 Q 615 476 616 463 Q 637 429 611 263 Q 610 263 610 261 L 598 225 Z" class="stroke6"/>
    
    
    
    
    
    </g>
</svg>