<svg version="1.1" viewBox="0 0 1024 1024" xmlns="http://www.w3.org/2000/svg">
  
  <g transform="scale(1, -1) translate(0, -900)">
    <style type="text/css">
        .stroke1 {fill: #808080;}
        .stroke2 {fill: #808079;}
        .stroke3 {fill: #808078;}
        .stroke4 {fill: #808077;}
        .stroke5 {fill: #808076;}
        .stroke6 {fill: #808075;}
        .stroke7 {fill: #808074;}
        .stroke8 {fill: #808073;}
        .stroke9 {fill: #808072;}
        .stroke10 {fill: #808071;}
        .stroke11 {fill: #808070;}
        .stroke12 {fill: #808069;}
        .stroke13 {fill: #808068;}
        .stroke14 {fill: #808067;}
        .stroke15 {fill: #808066;}
        .stroke16 {fill: #808065;}
        .stroke17 {fill: #808064;}
        .stroke18 {fill: #808063;}
        .stroke19 {fill: #808062;}
        .stroke20 {fill: #808061;}
        text {
            font-family: Helvetica;
            font-size: 50px;
            fill: #808060;
            paint-order: stroke;
            stroke: #000000;
            stroke-width: 4px;
            stroke-linecap: butt;
            stroke-linejoin: miter;
            font-weight: 800;
        }
    </style>

    <path d="M 351 678 Q 399 747 436 793 Q 446 805 434 820 Q 395 859 369 855 Q 357 854 359 839 Q 360 728 232 609 Q 223 605 178 560 Q 168 545 184 549 Q 238 552 334 658 L 351 678 Z" class="stroke1"/>
    <path d="M 334 658 Q 377 636 410 645 Q 459 661 691 693 Q 730 697 745 680 Q 767 655 767 593 Q 768 401 751 278 Q 717 83 678 64 Q 672 61 582 78 Q 572 79 570 77 Q 567 70 583 60 Q 626 24 652 -9 Q 676 -43 696 -36 Q 753 -17 791 130 Q 813 230 816 552 Q 815 636 836 665 Q 854 684 831 702 Q 759 750 727 737 Q 532 692 351 678 C 321 675 306 668 334 658 Z" class="stroke2"/>
    <path d="M 327 590 Q 297 586 319 571 Q 352 550 397 562 Q 463 574 531 586 Q 562 593 567 597 Q 574 604 570 611 Q 564 620 541 626 Q 517 632 493 622 Q 457 612 419 602 Q 377 593 327 590 Z" class="stroke3"/>
    <path d="M 303 505 Q 293 509 271 511 Q 261 512 258 509 Q 254 503 261 490 Q 283 454 299 394 Q 302 376 314 365 Q 330 347 333 361 Q 334 368 335 379 L 331 408 Q 321 459 320 478 C 318 500 318 500 303 505 Z" class="stroke4"/>
    <path d="M 539 431 Q 560 473 581 483 Q 596 498 584 513 Q 571 525 529 547 Q 514 554 496 548 Q 420 520 303 505 C 273 501 291 472 320 478 Q 494 511 503 505 L 505 503 Q 509 499 508 487 Q 501 460 494 437 C 485 408 525 404 539 431 Z" class="stroke5"/>
    <path d="M 335 379 Q 342 379 353 380 Q 414 393 549 402 Q 558 403 559 410 Q 559 417 539 431 L 494 437 L 493 437 Q 403 416 331 408 C 301 405 305 378 335 379 Z" class="stroke6"/>
    <path d="M 217 317 Q 208 320 200 320 Q 188 324 185 318 Q 178 312 187 296 Q 218 232 238 125 Q 241 92 260 71 Q 278 49 283 65 Q 286 75 286 88 L 285 111 Q 284 123 282 135 Q 260 249 255 282 Q 255 283 256 283 C 256 307 246 310 217 317 Z" class="stroke7"/>
    <path d="M 508 108 Q 524 81 541 74 Q 551 67 565 86 Q 578 110 607 239 Q 616 269 637 291 Q 650 303 639 316 Q 626 332 585 357 Q 569 364 497 350 Q 488 350 341 329 Q 245 314 217 317 C 187 318 227 276 256 283 Q 304 296 377 305 L 412 310 Q 452 316 503 320 Q 537 324 548 311 Q 561 298 558 282 Q 536 146 518 131 C 506 111 506 111 508 108 Z" class="stroke8"/>
    <path d="M 428 207 Q 458 213 488 216 Q 507 219 501 230 Q 492 242 471 246 Q 455 249 431 242 L 386 231 Q 340 221 302 210 Q 289 207 305 195 Q 312 189 386 200 L 428 207 Z" class="stroke9"/>
    <path d="M 423 133 Q 424 173 428 207 L 431 242 Q 431 257 434 269 Q 441 288 412 310 C 389 329 364 332 377 305 Q 386 293 386 231 L 386 200 Q 386 172 386 127 C 386 97 422 103 423 133 Z" class="stroke10"/>
    <path d="M 286 88 Q 296 87 309 88 Q 423 101 508 108 C 538 110 542 113 518 131 Q 512 137 500 140 Q 470 146 423 133 L 386 127 Q 332 120 285 111 C 256 105 256 90 286 88 Z" class="stroke11"/>
    
    
    
    
    
    
    
    
    
    
    </g>
</svg>