<svg version="1.1" viewBox="0 0 1024 1024" xmlns="http://www.w3.org/2000/svg">
  
  <g transform="scale(1, -1) translate(0, -900)">
    <style type="text/css">
        .stroke1 {fill: #808080;}
        .stroke2 {fill: #808079;}
        .stroke3 {fill: #808078;}
        .stroke4 {fill: #808077;}
        .stroke5 {fill: #808076;}
        .stroke6 {fill: #808075;}
        .stroke7 {fill: #808074;}
        .stroke8 {fill: #808073;}
        .stroke9 {fill: #808072;}
        .stroke10 {fill: #808071;}
        .stroke11 {fill: #808070;}
        .stroke12 {fill: #808069;}
        .stroke13 {fill: #808068;}
        .stroke14 {fill: #808067;}
        .stroke15 {fill: #808066;}
        .stroke16 {fill: #808065;}
        .stroke17 {fill: #808064;}
        .stroke18 {fill: #808063;}
        .stroke19 {fill: #808062;}
        .stroke20 {fill: #808061;}
        text {
            font-family: Helvetica;
            font-size: 50px;
            fill: #808060;
            paint-order: stroke;
            stroke: #000000;
            stroke-width: 4px;
            stroke-linecap: butt;
            stroke-linejoin: miter;
            font-weight: 800;
        }
    </style>

    <path d="M 532 639 Q 571 624 619 635 Q 709 653 802 671 Q 845 681 851 687 Q 860 694 855 704 Q 848 716 818 724 Q 787 730 756 718 Q 708 702 656 689 Q 598 676 530 670 Q 527 670 527 669 C 497 664 504 649 532 639 Z" class="stroke1"/>
    <path d="M 659 488 Q 675 518 709 570 Q 718 580 705 593 Q 666 618 646 616 Q 636 613 638 601 Q 651 520 573 430 Q 554 408 544 394 Q 538 381 551 386 Q 581 389 642 464 L 659 488 Z" class="stroke2"/>
    <path d="M 723 358 Q 805 466 819 478 Q 832 488 827 495 Q 826 502 773 521 Q 757 530 741 517 Q 728 510 706 501 Q 682 494 659 488 C 630 480 613 471 642 464 Q 669 454 708 472 Q 724 476 731 470 Q 735 463 724 445 Q 673 337 544 225 Q 534 215 545 214 Q 609 227 708 340 L 723 358 Z" class="stroke3"/>
    <path d="M 708 340 Q 709 337 714 333 Q 771 291 840 229 Q 856 211 871 209 Q 878 209 885 219 Q 895 232 879 270 Q 863 318 723 358 C 694 366 690 364 708 340 Z" class="stroke4"/>
    <path d="M 527 669 L 527 670 Q 517 680 487 696 Q 465 708 457 701 Q 450 694 457 678 Q 475 642 475 577 Q 478 376 457 190 Q 453 150 428 114 Q 418 99 427 77 Q 434 55 444 46 Q 454 39 473 50 Q 531 87 620 103 Q 720 119 915 112 Q 940 111 942 123 Q 942 139 913 160 Q 898 173 771 155 Q 600 143 536 131 Q 509 127 509 151 Q 519 334 526 565 Q 526 610 532 639 C 535 663 535 663 527 669 Z" class="stroke5"/>
    
    
    
    
    </g>
</svg>