<svg version="1.1" viewBox="0 0 1024 1024" xmlns="http://www.w3.org/2000/svg">
  
  <g transform="scale(1, -1) translate(0, -900)">
    <style type="text/css">
        .stroke1 {fill: #808080;}
        .stroke2 {fill: #808079;}
        .stroke3 {fill: #808078;}
        .stroke4 {fill: #808077;}
        .stroke5 {fill: #808076;}
        .stroke6 {fill: #808075;}
        .stroke7 {fill: #808074;}
        .stroke8 {fill: #808073;}
        .stroke9 {fill: #808072;}
        .stroke10 {fill: #808071;}
        .stroke11 {fill: #808070;}
        .stroke12 {fill: #808069;}
        .stroke13 {fill: #808068;}
        .stroke14 {fill: #808067;}
        .stroke15 {fill: #808066;}
        .stroke16 {fill: #808065;}
        .stroke17 {fill: #808064;}
        .stroke18 {fill: #808063;}
        .stroke19 {fill: #808062;}
        .stroke20 {fill: #808061;}
        text {
            font-family: Helvetica;
            font-size: 50px;
            fill: #808060;
            paint-order: stroke;
            stroke: #000000;
            stroke-width: 4px;
            stroke-linecap: butt;
            stroke-linejoin: miter;
            font-weight: 800;
        }
    </style>

    <path d="M 296 691 Q 308 690 324 693 Q 547 732 777 752 Q 789 751 799 763 Q 800 776 777 788 Q 735 813 672 794 Q 485 760 293 741 C 263 738 266 690 296 691 Z" class="stroke1"/>
    <path d="M 410 616 Q 398 623 365 629 Q 352 633 349 627 Q 342 621 351 605 Q 384 527 401 403 Q 404 366 424 340 Q 442 318 447 333 Q 450 343 451 356 L 451 381 Q 450 397 447 415 Q 425 541 420 583 C 416 613 416 613 410 616 Z" class="stroke2"/>
    <path d="M 662 383 Q 683 349 701 341 Q 711 334 727 355 Q 743 383 777 542 Q 787 573 810 599 Q 823 611 812 625 Q 796 643 753 670 Q 735 680 650 659 Q 638 659 507 635 Q 452 625 410 616 C 381 610 391 574 420 583 Q 438 592 529 606 L 575 614 Q 618 623 668 629 Q 702 633 713 622 Q 728 604 725 587 Q 698 434 680 408 C 667 381 658 388 662 383 Z" class="stroke3"/>
    <path d="M 592 486 Q 620 490 648 494 Q 669 498 661 509 Q 651 522 629 526 Q 614 529 593 523 L 548 512 Q 508 502 474 491 Q 459 488 478 475 Q 482 472 548 479 L 592 486 Z" class="stroke4"/>
    <path d="M 589 373 Q 626 380 662 383 C 692 386 706 394 680 408 Q 646 429 594 408 Q 591 408 590 407 L 546 398 Q 495 391 451 381 C 422 374 421 355 451 356 Q 458 356 470 357 Q 507 363 545 368 L 589 373 Z" class="stroke5"/>
    <path d="M 546 147 Q 550 126 556 118 Q 560 112 566 115 Q 578 121 584 169 Q 584 170 589 373 L 590 407 Q 590 443 592 486 L 593 523 Q 594 551 602 581 Q 603 594 593 603 Q 583 610 575 614 C 549 629 514 632 529 606 Q 533 599 538 591 Q 547 575 548 512 L 548 479 Q 547 442 546 398 L 545 368 Q 545 155 546 147 Z" class="stroke6"/>
    <path d="M 293 741 Q 248 765 227 767 Q 214 768 206 761 Q 196 754 211 737 Q 235 707 235 336 Q 220 87 189 60 Q 168 42 181 24 Q 187 8 203 -5 Q 218 -17 238 -3 Q 277 43 586 56 Q 773 60 837 52 Q 862 48 875 54 Q 885 61 886 68 Q 886 83 850 105 Q 816 126 796 125 Q 753 124 416 82 Q 287 60 277 75 Q 271 81 276 198 Q 276 411 294 672 Q 294 684 296 691 C 299 721 300 738 293 741 Z" class="stroke7"/>
    
    
    
    
    
    
    </g>
</svg>