<svg version="1.1" viewBox="0 0 1024 1024" xmlns="http://www.w3.org/2000/svg">
  
  <g transform="scale(1, -1) translate(0, -900)">
    <style type="text/css">
        .stroke1 {fill: #808080;}
        .stroke2 {fill: #808079;}
        .stroke3 {fill: #808078;}
        .stroke4 {fill: #808077;}
        .stroke5 {fill: #808076;}
        .stroke6 {fill: #808075;}
        .stroke7 {fill: #808074;}
        .stroke8 {fill: #808073;}
        .stroke9 {fill: #808072;}
        .stroke10 {fill: #808071;}
        .stroke11 {fill: #808070;}
        .stroke12 {fill: #808069;}
        .stroke13 {fill: #808068;}
        .stroke14 {fill: #808067;}
        .stroke15 {fill: #808066;}
        .stroke16 {fill: #808065;}
        .stroke17 {fill: #808064;}
        .stroke18 {fill: #808063;}
        .stroke19 {fill: #808062;}
        .stroke20 {fill: #808061;}
        text {
            font-family: Helvetica;
            font-size: 50px;
            fill: #808060;
            paint-order: stroke;
            stroke: #000000;
            stroke-width: 4px;
            stroke-linecap: butt;
            stroke-linejoin: miter;
            font-weight: 800;
        }
    </style>

    <path d="M 280 702 Q 299 701 508 727 Q 769 763 784 775 Q 794 782 790 792 Q 784 805 755 814 Q 724 823 693 813 Q 476 753 257 745 C 227 744 250 701 280 702 Z" class="stroke1"/>
    <path d="M 428 623 Q 419 627 386 631 Q 376 632 372 627 Q 368 621 376 608 Q 404 565 425 489 Q 429 467 445 453 Q 463 435 466 449 Q 467 456 467 463 C 468 486 468 486 463 495 Q 456 502 440 594 C 435 621 435 621 428 623 Z" class="stroke2"/>
    <path d="M 651 521 Q 675 581 701 599 Q 717 615 704 632 Q 688 645 641 668 Q 625 675 605 668 Q 545 643 428 623 C 398 618 411 588 440 594 Q 605 627 614 622 L 615 621 Q 622 614 620 600 Q 611 557 601 523 C 593 494 639 493 651 521 Z" class="stroke3"/>
    <path d="M 467 463 Q 471 463 476 464 Q 536 477 664 488 Q 674 489 676 497 Q 676 504 651 521 C 636 531 630 530 601 523 Q 523 505 463 495 C 433 490 437 460 467 463 Z" class="stroke4"/>
    <path d="M 341 360 Q 331 366 299 372 Q 289 373 286 370 Q 282 364 289 351 Q 314 297 331 209 Q 335 184 350 165 Q 366 147 370 161 Q 374 174 372 193 L 368 224 Q 350 306 347 336 C 344 358 344 358 341 360 Z" class="stroke5"/>
    <path d="M 487 243 Q 503 316 525 340 Q 544 362 524 375 Q 508 385 483 401 Q 467 410 423 386 Q 392 374 341 360 C 312 352 319 326 347 336 Q 354 340 428 356 Q 450 360 456 352 Q 463 346 456 314 Q 449 283 441 245 C 435 216 480 214 487 243 Z" class="stroke6"/>
    <path d="M 372 193 Q 376 193 384 194 Q 421 203 502 211 Q 512 212 513 221 Q 513 228 487 243 L 441 245 L 440 245 Q 400 232 368 224 C 339 217 342 191 372 193 Z" class="stroke7"/>
    <path d="M 602 388 Q 592 392 571 397 Q 561 400 557 396 Q 551 390 558 376 Q 580 325 591 244 Q 592 219 606 203 Q 621 182 626 196 Q 630 206 630 220 L 629 249 Q 619 336 618 361 C 617 383 617 383 602 388 Z" class="stroke8"/>
    <path d="M 781 270 Q 800 339 823 358 Q 845 383 824 398 Q 766 434 757 434 Q 750 434 742 429 Q 700 405 602 388 C 572 383 589 352 618 361 Q 630 367 714 380 Q 741 386 747 375 Q 753 369 730 271 C 723 242 773 241 781 270 Z" class="stroke9"/>
    <path d="M 630 220 Q 640 217 652 220 Q 698 230 796 236 Q 806 237 808 245 Q 808 252 781 270 C 767 279 759 278 730 271 Q 673 258 629 249 C 600 243 601 226 630 220 Z" class="stroke10"/>
    <path d="M 257 745 Q 223 763 206 763 Q 193 764 184 757 Q 174 750 189 732 Q 223 686 214 291 Q 198 72 171 49 Q 150 30 163 11 Q 170 -7 187 -19 Q 203 -32 222 -17 Q 270 41 681 56 Q 799 59 849 53 Q 891 47 900 69 L 900 71 Q 899 87 862 109 Q 825 130 804 128 Q 759 125 407 75 Q 274 50 263 64 Q 254 73 261 230 Q 255 254 273 598 Q 274 679 280 702 C 284 732 284 734 257 745 Z" class="stroke11"/>
    
    
    
    
    
    
    
    
    
    
    </g>
</svg>