<svg version="1.1" viewBox="0 0 1024 1024" xmlns="http://www.w3.org/2000/svg">
  
  <g transform="scale(1, -1) translate(0, -900)">
    <style type="text/css">
        .stroke1 {fill: #808080;}
        .stroke2 {fill: #808079;}
        .stroke3 {fill: #808078;}
        .stroke4 {fill: #808077;}
        .stroke5 {fill: #808076;}
        .stroke6 {fill: #808075;}
        .stroke7 {fill: #808074;}
        .stroke8 {fill: #808073;}
        .stroke9 {fill: #808072;}
        .stroke10 {fill: #808071;}
        .stroke11 {fill: #808070;}
        .stroke12 {fill: #808069;}
        .stroke13 {fill: #808068;}
        .stroke14 {fill: #808067;}
        .stroke15 {fill: #808066;}
        .stroke16 {fill: #808065;}
        .stroke17 {fill: #808064;}
        .stroke18 {fill: #808063;}
        .stroke19 {fill: #808062;}
        .stroke20 {fill: #808061;}
        text {
            font-family: Helvetica;
            font-size: 50px;
            fill: #808060;
            paint-order: stroke;
            stroke: #000000;
            stroke-width: 4px;
            stroke-linecap: butt;
            stroke-linejoin: miter;
            font-weight: 800;
        }
    </style>

    <path d="M 548 646 Q 609 658 673 667 Q 733 677 741 685 Q 751 694 747 703 Q 740 716 709 725 Q 676 734 643 722 Q 600 709 553 698 L 497 686 Q 418 673 328 667 Q 288 663 316 643 Q 361 615 421 626 Q 457 632 498 638 L 548 646 Z" class="stroke1"/>
    <path d="M 498 638 Q 498 499 499 494 Q 500 488 503 480 Q 509 468 518 474 Q 539 492 541 572 Q 545 611 548 646 L 553 698 Q 554 705 555 712 Q 559 761 565 782 Q 575 801 562 814 Q 546 829 518 843 Q 496 852 472 843 Q 460 834 474 818 Q 493 775 497 697 Q 496 693 497 686 L 498 638 Z" class="stroke2"/>
    <path d="M 398 349 Q 450 359 512 364 Q 570 368 624 374 Q 631 375 641 375 L 687 378 Q 762 387 923 375 Q 948 372 954 381 Q 961 394 949 407 Q 918 435 873 456 Q 858 463 831 454 Q 761 439 688 427 L 641 422 Q 443 401 403 396 L 348 389 Q 314 388 290 383 Q 215 371 105 370 Q 90 370 89 358 Q 89 345 108 330 Q 126 317 158 305 Q 170 301 188 309 Q 206 316 284 329 Q 312 336 345 341 L 398 349 Z" class="stroke3"/>
    <path d="M 345 341 Q 324 188 213 100 Q 200 87 186 75 Q 174 65 186 63 Q 243 69 308 140 Q 386 222 398 349 L 403 396 Q 412 456 418 468 Q 425 486 409 493 Q 363 524 336 512 Q 323 508 331 493 Q 346 466 348 389 L 345 341 Z" class="stroke4"/>
    <path d="M 641 375 Q 641 132 625 78 Q 613 26 668 -31 Q 669 -32 672 -34 Q 684 -35 689 -22 Q 701 11 696 42 Q 687 246 687 378 L 688 427 Q 688 479 693 504 Q 694 517 688 522 Q 663 543 644 552 Q 631 555 622 547 Q 616 544 624 534 Q 636 515 641 422 L 641 375 Z" class="stroke5"/>
    
    
    
    
    </g>
</svg>