<svg version="1.1" viewBox="0 0 1024 1024" xmlns="http://www.w3.org/2000/svg">
  
  <g transform="scale(1, -1) translate(0, -900)">
    <style type="text/css">
        .stroke1 {fill: #808080;}
        .stroke2 {fill: #808079;}
        .stroke3 {fill: #808078;}
        .stroke4 {fill: #808077;}
        .stroke5 {fill: #808076;}
        .stroke6 {fill: #808075;}
        .stroke7 {fill: #808074;}
        .stroke8 {fill: #808073;}
        .stroke9 {fill: #808072;}
        .stroke10 {fill: #808071;}
        .stroke11 {fill: #808070;}
        .stroke12 {fill: #808069;}
        .stroke13 {fill: #808068;}
        .stroke14 {fill: #808067;}
        .stroke15 {fill: #808066;}
        .stroke16 {fill: #808065;}
        .stroke17 {fill: #808064;}
        .stroke18 {fill: #808063;}
        .stroke19 {fill: #808062;}
        .stroke20 {fill: #808061;}
        text {
            font-family: Helvetica;
            font-size: 50px;
            fill: #808060;
            paint-order: stroke;
            stroke: #000000;
            stroke-width: 4px;
            stroke-linecap: butt;
            stroke-linejoin: miter;
            font-weight: 800;
        }
    </style>

    <path d="M 296 478 Q 333 491 377 503 Q 420 516 425 523 Q 434 532 428 540 Q 421 552 390 557 Q 354 560 298 532 L 251 514 Q 239 511 229 506 Q 171 487 103 475 Q 66 465 94 451 Q 139 433 230 459 Q 237 462 249 464 L 296 478 Z" class="stroke1"/>
    <path d="M 249 464 Q 239 221 230 178 Q 224 145 215 113 Q 203 71 228 11 Q 234 -7 242 -11 Q 248 -18 256 -9 Q 283 9 285 72 Q 284 117 296 478 L 298 532 Q 299 551 300 572 Q 301 665 321 727 Q 331 743 328 756 Q 321 766 266 802 Q 242 818 221 804 Q 217 800 222 783 Q 252 740 252 661 Q 252 523 251 514 L 249 464 Z" class="stroke2"/>
    <path d="M 645 684 Q 676 691 705 697 Q 723 698 726 694 Q 733 684 727 658 Q 717 588 699 556 Q 680 528 656 535 Q 640 539 626 544 Q 604 553 618 530 Q 646 493 658 465 Q 671 447 686 459 Q 743 489 779 635 Q 788 671 803 688 Q 816 700 810 710 Q 801 720 754 744 Q 735 753 716 741 Q 701 732 655 719 L 600 705 Q 531 689 474 684 Q 458 683 454 675 Q 453 668 476 656 Q 500 641 519 648 Q 556 661 592 670 L 645 684 Z" class="stroke3"/>
    <path d="M 592 670 Q 571 598 496 490 Q 492 486 489 480 Q 486 471 495 472 Q 523 472 588 558 Q 588 561 591 563 Q 618 605 645 684 L 655 719 Q 655 747 675 787 Q 684 797 679 810 Q 666 826 642 841 Q 626 851 615 849 Q 605 845 609 832 Q 624 802 600 705 L 592 670 Z" class="stroke4"/>
    <path d="M 479 341 Q 503 348 524 349 Q 539 350 541 346 Q 548 334 544 304 Q 534 217 512 180 Q 499 155 475 158 Q 465 157 455 158 Q 436 162 451 145 Q 473 120 484 102 Q 499 86 513 99 Q 561 132 582 248 Q 594 332 606 346 Q 616 356 611 365 Q 604 374 564 392 Q 548 399 532 388 Q 522 382 489 372 L 438 360 Q 381 347 334 344 Q 321 343 318 336 Q 317 329 336 320 Q 355 308 371 314 Q 402 324 431 330 L 479 341 Z" class="stroke5"/>
    <path d="M 431 330 Q 410 228 320 118 Q 316 114 313 110 Q 310 103 318 103 Q 342 103 405 176 Q 405 179 408 181 Q 453 250 477 334 Q 477 338 479 341 L 489 372 Q 490 378 493 382 Q 502 392 498 402 Q 488 415 468 430 Q 455 440 446 438 Q 436 434 439 423 Q 446 411 439 363 Q 438 362 438 360 L 431 330 Z" class="stroke6"/>
    <path d="M 761 340 Q 797 350 828 355 Q 843 356 846 353 Q 858 335 851 290 Q 836 164 806 109 Q 790 79 765 83 Q 743 89 723 97 Q 699 104 715 81 Q 755 41 773 9 Q 795 -13 814 7 Q 845 31 867 74 Q 892 123 905 275 Q 909 327 928 355 Q 938 367 933 376 Q 924 386 878 404 Q 860 411 843 399 Q 827 389 772 373 L 707 355 Q 668 348 633 343 Q 620 342 617 335 Q 616 329 636 320 Q 655 308 672 315 Q 685 319 699 323 L 761 340 Z" class="stroke7"/>
    <path d="M 699 323 Q 653 163 539 39 Q 533 35 530 29 Q 526 19 536 19 Q 572 19 649 109 Q 652 115 658 121 Q 724 215 756 324 Q 757 333 761 340 L 772 373 Q 775 382 780 389 Q 790 401 786 414 Q 774 432 749 450 Q 733 463 721 461 Q 709 457 712 443 Q 727 416 707 355 L 699 323 Z" class="stroke8"/>
    
    
    
    
    
    
    
    </g>
</svg>