<svg version="1.1" viewBox="0 0 1024 1024" xmlns="http://www.w3.org/2000/svg">
  
  <g transform="scale(1, -1) translate(0, -900)">
    <style type="text/css">
        .stroke1 {fill: #808080;}
        .stroke2 {fill: #808079;}
        .stroke3 {fill: #808078;}
        .stroke4 {fill: #808077;}
        .stroke5 {fill: #808076;}
        .stroke6 {fill: #808075;}
        .stroke7 {fill: #808074;}
        .stroke8 {fill: #808073;}
        .stroke9 {fill: #808072;}
        .stroke10 {fill: #808071;}
        .stroke11 {fill: #808070;}
        .stroke12 {fill: #808069;}
        .stroke13 {fill: #808068;}
        .stroke14 {fill: #808067;}
        .stroke15 {fill: #808066;}
        .stroke16 {fill: #808065;}
        .stroke17 {fill: #808064;}
        .stroke18 {fill: #808063;}
        .stroke19 {fill: #808062;}
        .stroke20 {fill: #808061;}
        text {
            font-family: Helvetica;
            font-size: 50px;
            fill: #808060;
            paint-order: stroke;
            stroke: #000000;
            stroke-width: 4px;
            stroke-linecap: butt;
            stroke-linejoin: miter;
            font-weight: 800;
        }
    </style>

    <path d="M 462 624 Q 543 649 600 660 Q 613 661 616 658 Q 629 639 624 589 Q 617 448 586 386 Q 573 356 548 359 Q 520 366 495 377 Q 470 384 488 362 Q 537 319 560 284 Q 585 262 604 285 Q 635 313 655 361 Q 677 416 680 578 Q 680 636 697 666 Q 710 681 703 691 Q 693 703 637 723 Q 615 732 595 716 Q 567 697 443 669 C 414 662 433 615 462 624 Z" class="stroke1"/>
    <path d="M 394 584 Q 398 434 397 200 Q 397 -4 417 -33 Q 423 -40 431 -38 Q 440 -34 445 -17 Q 463 25 458 202 Q 455 265 454 565 Q 454 583 462 624 C 467 654 467 654 443 669 Q 415 688 400 689 Q 385 695 369 684 Q 359 675 367 664 Q 391 621 394 584 Z" class="stroke2"/>
    
    </g>
</svg>