<svg version="1.1" viewBox="0 0 1024 1024" xmlns="http://www.w3.org/2000/svg">
  
  <g transform="scale(1, -1) translate(0, -900)">
    <style type="text/css">
        .stroke1 {fill: #808080;}
        .stroke2 {fill: #808079;}
        .stroke3 {fill: #808078;}
        .stroke4 {fill: #808077;}
        .stroke5 {fill: #808076;}
        .stroke6 {fill: #808075;}
        .stroke7 {fill: #808074;}
        .stroke8 {fill: #808073;}
        .stroke9 {fill: #808072;}
        .stroke10 {fill: #808071;}
        .stroke11 {fill: #808070;}
        .stroke12 {fill: #808069;}
        .stroke13 {fill: #808068;}
        .stroke14 {fill: #808067;}
        .stroke15 {fill: #808066;}
        .stroke16 {fill: #808065;}
        .stroke17 {fill: #808064;}
        .stroke18 {fill: #808063;}
        .stroke19 {fill: #808062;}
        .stroke20 {fill: #808061;}
        text {
            font-family: Helvetica;
            font-size: 50px;
            fill: #808060;
            paint-order: stroke;
            stroke: #000000;
            stroke-width: 4px;
            stroke-linecap: butt;
            stroke-linejoin: miter;
            font-weight: 800;
        }
    </style>

    <path d="M 399 471 Q 406 455 420 457 Q 433 461 441 477 Q 456 502 472 619 Q 485 674 520 709 Q 539 728 520 742 Q 499 758 445 781 Q 430 790 367 767 Q 282 746 233 724 C 205 712 217 678 245 689 Q 288 708 388 734 Q 406 738 413 735 Q 426 729 423 689 Q 407 526 396 503 C 390 482 390 482 399 471 Z" class="stroke1"/>
    <path d="M 242 566 Q 249 569 361 593 Q 385 600 374 612 Q 361 625 334 628 Q 291 628 241 597 C 215 581 213 557 242 566 Z" class="stroke2"/>
    <path d="M 241 438 Q 250 447 399 471 C 429 476 424 492 396 503 Q 366 518 278 486 Q 259 482 242 475 C 214 464 215 424 241 438 Z" class="stroke3"/>
    <path d="M 397 335 Q 387 334 249 257 Q 234 250 234 263 Q 240 356 241 438 L 242 475 Q 242 523 242 566 L 241 597 Q 241 666 245 689 C 247 713 247 713 233 724 Q 211 743 192 751 Q 173 758 164 752 Q 154 745 163 729 Q 214 618 186 304 Q 183 253 143 203 Q 131 187 139 164 Q 149 136 163 124 Q 176 117 189 134 Q 211 170 404 312 Q 408 316 412 318 C 436 336 424 347 397 335 Z" class="stroke4"/>
    <path d="M 412 318 Q 463 251 476 248 Q 486 247 493 257 Q 500 270 498 298 Q 495 340 384 402 Q 371 408 364 407 Q 360 404 358 392 Q 358 386 397 335 L 412 318 Z" class="stroke5"/>
    <path d="M 655 596 Q 734 623 794 634 Q 809 635 812 632 Q 825 617 821 575 Q 818 460 795 408 Q 779 374 750 375 Q 728 378 708 383 Q 681 389 702 365 Q 745 326 766 296 Q 788 275 806 296 Q 836 321 855 363 Q 877 412 883 561 Q 886 613 902 640 Q 914 653 906 664 Q 896 674 842 694 Q 821 701 802 686 Q 771 665 636 632 C 607 625 627 586 655 596 Z" class="stroke6"/>
    <path d="M 588 -27 Q 594 -55 601 -65 Q 607 -72 615 -70 Q 631 -61 638 4 Q 647 86 644 169 Q 641 239 645 508 Q 645 556 655 596 C 660 618 660 618 636 632 Q 606 651 591 654 Q 578 658 560 649 Q 550 640 559 629 Q 563 619 570 609 Q 583 584 585 549 Q 588 401 583 167 Q 582 22 588 -27 Z" class="stroke7"/>
    
    
    
    
    
    
    </g>
</svg>