<svg version="1.1" viewBox="0 0 1024 1024" xmlns="http://www.w3.org/2000/svg">
  
  <g transform="scale(1, -1) translate(0, -900)">
    <style type="text/css">
        .stroke1 {fill: #808080;}
        .stroke2 {fill: #808079;}
        .stroke3 {fill: #808078;}
        .stroke4 {fill: #808077;}
        .stroke5 {fill: #808076;}
        .stroke6 {fill: #808075;}
        .stroke7 {fill: #808074;}
        .stroke8 {fill: #808073;}
        .stroke9 {fill: #808072;}
        .stroke10 {fill: #808071;}
        .stroke11 {fill: #808070;}
        .stroke12 {fill: #808069;}
        .stroke13 {fill: #808068;}
        .stroke14 {fill: #808067;}
        .stroke15 {fill: #808066;}
        .stroke16 {fill: #808065;}
        .stroke17 {fill: #808064;}
        .stroke18 {fill: #808063;}
        .stroke19 {fill: #808062;}
        .stroke20 {fill: #808061;}
        text {
            font-family: Helvetica;
            font-size: 50px;
            fill: #808060;
            paint-order: stroke;
            stroke: #000000;
            stroke-width: 4px;
            stroke-linecap: butt;
            stroke-linejoin: miter;
            font-weight: 800;
        }
    </style>

    <path d="M 364 751 Q 403 736 443 743 Q 573 759 709 778 Q 770 788 780 795 Q 790 802 786 812 Q 780 825 751 834 Q 720 843 621 816 Q 462 788 357 785 Q 347 784 344 782 C 315 776 336 761 364 751 Z" class="stroke1"/>
    <path d="M 344 782 Q 329 794 309 804 Q 288 817 274 811 Q 261 804 267 788 Q 285 761 285 710 Q 261 485 228 373 Q 218 345 208 315 Q 159 195 65 61 Q 58 54 56 47 Q 53 35 65 38 Q 101 44 193 174 Q 212 205 231 241 Q 312 409 349 695 Q 355 722 364 751 C 368 765 368 765 344 782 Z" class="stroke2"/>
    <path d="M 456 658 Q 446 664 413 668 Q 401 671 399 665 Q 393 659 401 645 Q 428 596 446 515 Q 450 490 464 474 Q 482 455 486 469 Q 487 475 488 481 L 488 503 Q 487 512 486 522 Q 482 541 479 557 L 476 574 Q 469 608 467 625 C 463 655 463 655 456 658 Z" class="stroke3"/>
    <path d="M 673 500 Q 674 497 675 494 Q 679 481 691 481 Q 704 482 711 496 Q 718 505 737 553 Q 752 601 786 628 Q 802 643 788 657 Q 772 673 726 697 Q 711 706 647 691 Q 632 691 520 670 Q 483 663 456 658 C 427 653 438 617 467 625 Q 530 643 664 658 Q 688 659 696 655 Q 703 651 699 628 Q 686 549 678 528 C 671 505 671 505 673 500 Z" class="stroke4"/>
    <path d="M 479 557 Q 482 557 636 576 Q 655 579 649 590 Q 640 602 619 606 Q 607 607 476 574 C 447 567 449 554 479 557 Z" class="stroke5"/>
    <path d="M 488 481 Q 495 480 507 481 Q 601 494 673 500 C 703 503 707 519 678 528 Q 674 529 669 531 Q 657 534 488 503 C 458 498 458 483 488 481 Z" class="stroke6"/>
    <path d="M 609 303 Q 706 376 744 386 Q 762 390 757 406 Q 756 421 696 457 Q 680 467 658 461 Q 598 442 508 419 Q 484 412 428 416 Q 406 417 413 399 Q 420 387 437 376 Q 465 360 496 377 Q 641 425 656 418 Q 666 411 661 399 Q 628 360 592 314 C 573 290 585 285 609 303 Z" class="stroke7"/>
    <path d="M 639 258 Q 627 291 609 303 L 592 314 Q 583 318 573 321 Q 552 327 543 320 Q 531 313 546 301 Q 574 283 587 252 L 598 214 Q 617 123 594 65 Q 581 41 551 46 Q 518 52 488 58 Q 476 61 482 50 Q 486 43 506 31 Q 548 0 563 -26 Q 573 -42 589 -39 Q 602 -38 626 -11 Q 683 56 650 219 L 639 258 Z" class="stroke8"/>
    <path d="M 650 219 Q 668 220 689 223 Q 818 235 917 225 Q 938 224 943 230 Q 950 242 939 252 Q 912 276 874 293 Q 862 297 840 291 Q 783 278 725 269 Q 676 265 639 258 L 587 252 Q 578 255 427 233 Q 372 224 287 222 Q 275 222 274 212 Q 274 202 290 189 Q 305 179 332 168 Q 342 165 357 172 Q 370 176 430 188 Q 505 206 598 214 L 650 219 Z" class="stroke9"/>
    
    
    
    
    
    
    
    
    </g>
</svg>