<svg version="1.1" viewBox="0 0 1024 1024" xmlns="http://www.w3.org/2000/svg">
  
  <g transform="scale(1, -1) translate(0, -900)">
    <style type="text/css">
        .stroke1 {fill: #808080;}
        .stroke2 {fill: #808079;}
        .stroke3 {fill: #808078;}
        .stroke4 {fill: #808077;}
        .stroke5 {fill: #808076;}
        .stroke6 {fill: #808075;}
        .stroke7 {fill: #808074;}
        .stroke8 {fill: #808073;}
        .stroke9 {fill: #808072;}
        .stroke10 {fill: #808071;}
        .stroke11 {fill: #808070;}
        .stroke12 {fill: #808069;}
        .stroke13 {fill: #808068;}
        .stroke14 {fill: #808067;}
        .stroke15 {fill: #808066;}
        .stroke16 {fill: #808065;}
        .stroke17 {fill: #808064;}
        .stroke18 {fill: #808063;}
        .stroke19 {fill: #808062;}
        .stroke20 {fill: #808061;}
        text {
            font-family: Helvetica;
            font-size: 50px;
            fill: #808060;
            paint-order: stroke;
            stroke: #000000;
            stroke-width: 4px;
            stroke-linecap: butt;
            stroke-linejoin: miter;
            font-weight: 800;
        }
    </style>

    <path d="M 483 416 Q 564 434 739 455 Q 751 454 760 467 Q 761 480 737 491 Q 698 513 619 490 Q 532 472 504 463 L 438 451 Q 380 445 277 431 Q 246 427 270 408 Q 304 378 337 387 Q 374 396 420 404 L 483 416 Z" class="stroke1"/>
    <path d="M 420 404 Q 356 260 192 116 Q 146 79 80 31 Q 71 24 79 20 Q 86 17 99 21 Q 190 58 266 118 Q 392 211 483 416 L 504 463 Q 517 493 536 520 Q 545 530 539 542 Q 532 552 500 573 Q 476 588 466 585 Q 451 582 452 565 Q 455 510 438 451 L 420 404 Z" class="stroke2"/>
    <path d="M 696 110 Q 593 100 482 77 Q 470 73 467 77 Q 464 81 472 93 Q 599 250 625 276 Q 640 286 633 302 Q 626 317 573 345 Q 554 355 544 351 Q 528 344 534 321 Q 552 252 425 110 Q 400 89 366 67 Q 350 54 354 41 Q 358 22 387 -3 Q 399 -16 414 -4 Q 466 33 695 79 Q 705 82 715 85 C 744 93 726 113 696 110 Z" class="stroke3"/>
    <path d="M 715 85 Q 784 -11 794 -16 Q 804 -19 813 -9 Q 829 3 822 52 Q 819 109 656 202 Q 647 209 643 196 Q 640 181 650 169 Q 672 142 696 110 L 715 85 Z" class="stroke4"/>
    
    
    
    </g>
</svg>