<svg version="1.1" viewBox="0 0 1024 1024" xmlns="http://www.w3.org/2000/svg">
  
  <g transform="scale(1, -1) translate(0, -900)">
    <style type="text/css">
        .stroke1 {fill: #808080;}
        .stroke2 {fill: #808079;}
        .stroke3 {fill: #808078;}
        .stroke4 {fill: #808077;}
        .stroke5 {fill: #808076;}
        .stroke6 {fill: #808075;}
        .stroke7 {fill: #808074;}
        .stroke8 {fill: #808073;}
        .stroke9 {fill: #808072;}
        .stroke10 {fill: #808071;}
        .stroke11 {fill: #808070;}
        .stroke12 {fill: #808069;}
        .stroke13 {fill: #808068;}
        .stroke14 {fill: #808067;}
        .stroke15 {fill: #808066;}
        .stroke16 {fill: #808065;}
        .stroke17 {fill: #808064;}
        .stroke18 {fill: #808063;}
        .stroke19 {fill: #808062;}
        .stroke20 {fill: #808061;}
        text {
            font-family: Helvetica;
            font-size: 50px;
            fill: #808060;
            paint-order: stroke;
            stroke: #000000;
            stroke-width: 4px;
            stroke-linecap: butt;
            stroke-linejoin: miter;
            font-weight: 800;
        }
    </style>

    <path d="M 376 685 Q 391 634 317 441 Q 314 437 313 432 Q 285 366 251 314 Q 197 235 83 119 Q 79 109 89 108 Q 126 105 235 212 Q 248 227 263 244 Q 315 311 358 395 L 370 420 Q 391 468 437 590 Q 443 606 452 622 Q 465 635 460 650 Q 447 672 419 694 C 396 714 373 715 376 685 Z" class="stroke1"/>
    <path d="M 537 206 Q 429 113 290 64 Q 262 58 264 53 Q 265 40 339 57 Q 469 87 573 163 L 618 204 Q 687 280 712 379 Q 728 425 754 446 Q 758 450 758 460 Q 755 484 698 514 Q 676 523 648 510 Q 638 503 606 493 Q 572 484 600 539 Q 622 579 668 665 Q 684 690 702 701 Q 723 711 727 722 Q 731 737 686 764 Q 632 794 594 772 Q 422 717 259 712 Q 234 712 235 700 Q 236 690 269 677 Q 302 665 376 685 L 419 694 Q 483 707 584 725 Q 605 729 609 718 Q 615 697 559 563 Q 540 535 521 515 Q 505 497 513 480 Q 520 464 532 454 Q 542 447 550 447 Q 557 447 573 455 Q 582 461 609 466 Q 642 466 653 452 Q 663 439 648 395 Q 624 296 573 243 L 537 206 Z" class="stroke2"/>
    <path d="M 358 395 Q 422 353 537 206 L 573 163 Q 624 108 685 51 Q 704 29 738 28 Q 840 24 922 34 Q 965 38 962 50 Q 961 56 919 70 Q 736 127 683 158 Q 647 180 618 204 L 573 243 Q 507 301 442 375 Q 405 417 370 420 C 341 427 334 413 358 395 Z" class="stroke3"/>
    
    
    </g>
</svg>