<svg version="1.1" viewBox="0 0 1024 1024" xmlns="http://www.w3.org/2000/svg">
  
  <g transform="scale(1, -1) translate(0, -900)">
    <style type="text/css">
        .stroke1 {fill: #808080;}
        .stroke2 {fill: #808079;}
        .stroke3 {fill: #808078;}
        .stroke4 {fill: #808077;}
        .stroke5 {fill: #808076;}
        .stroke6 {fill: #808075;}
        .stroke7 {fill: #808074;}
        .stroke8 {fill: #808073;}
        .stroke9 {fill: #808072;}
        .stroke10 {fill: #808071;}
        .stroke11 {fill: #808070;}
        .stroke12 {fill: #808069;}
        .stroke13 {fill: #808068;}
        .stroke14 {fill: #808067;}
        .stroke15 {fill: #808066;}
        .stroke16 {fill: #808065;}
        .stroke17 {fill: #808064;}
        .stroke18 {fill: #808063;}
        .stroke19 {fill: #808062;}
        .stroke20 {fill: #808061;}
        text {
            font-family: Helvetica;
            font-size: 50px;
            fill: #808060;
            paint-order: stroke;
            stroke: #000000;
            stroke-width: 4px;
            stroke-linecap: butt;
            stroke-linejoin: miter;
            font-weight: 800;
        }
    </style>

    <path d="M 375 660 Q 541 687 621 716 Q 676 729 720 732 Q 739 731 745 739 Q 751 751 739 765 Q 681 819 639 824 Q 630 820 628 808 Q 624 766 364 682 C 335 673 345 655 375 660 Z" class="stroke1"/>
    <path d="M 354 470 Q 361 537 367 618 Q 373 657 375 660 C 378 674 378 674 364 682 Q 363 683 359 685 Q 308 713 292 710 Q 270 707 287 683 Q 317 629 293 416 Q 283 331 236 230 Q 197 148 97 61 Q 81 48 78 41 Q 75 34 88 34 Q 106 33 128 48 Q 183 82 216 117 Q 310 213 344 407 Q 347 425 350 441 L 354 470 Z" class="stroke2"/>
    <path d="M 504 221 Q 414 122 256 73 Q 241 67 254 59 Q 261 52 314 56 Q 444 71 538 179 L 570 217 Q 622 296 667 425 Q 680 458 702 479 Q 724 498 708 513 Q 693 526 657 538 Q 630 545 557 514 Q 463 484 354 470 C 324 466 320 446 350 441 Q 393 428 449 445 Q 558 479 578 479 Q 606 480 603 450 Q 573 318 528 256 L 504 221 Z" class="stroke3"/>
    <path d="M 538 179 Q 596 112 697 23 Q 731 -4 781 6 Q 847 16 895 24 Q 911 27 925 33 Q 932 42 919 51 Q 901 60 762 99 Q 666 127 570 217 L 528 256 Q 488 296 445 343 Q 421 370 382 376 Q 372 377 364 372 Q 360 365 368 359 Q 414 329 482 248 Q 492 236 504 221 L 538 179 Z" class="stroke4"/>
    
    
    
    </g>
</svg>