<svg version="1.1" viewBox="0 0 1024 1024" xmlns="http://www.w3.org/2000/svg">
  
  <g transform="scale(1, -1) translate(0, -900)">
    <style type="text/css">
        .stroke1 {fill: #808080;}
        .stroke2 {fill: #808079;}
        .stroke3 {fill: #808078;}
        .stroke4 {fill: #808077;}
        .stroke5 {fill: #808076;}
        .stroke6 {fill: #808075;}
        .stroke7 {fill: #808074;}
        .stroke8 {fill: #808073;}
        .stroke9 {fill: #808072;}
        .stroke10 {fill: #808071;}
        .stroke11 {fill: #808070;}
        .stroke12 {fill: #808069;}
        .stroke13 {fill: #808068;}
        .stroke14 {fill: #808067;}
        .stroke15 {fill: #808066;}
        .stroke16 {fill: #808065;}
        .stroke17 {fill: #808064;}
        .stroke18 {fill: #808063;}
        .stroke19 {fill: #808062;}
        .stroke20 {fill: #808061;}
        text {
            font-family: Helvetica;
            font-size: 50px;
            fill: #808060;
            paint-order: stroke;
            stroke: #000000;
            stroke-width: 4px;
            stroke-linecap: butt;
            stroke-linejoin: miter;
            font-weight: 800;
        }
    </style>

    <path d="M 374 458 Q 378 539 383 615 L 384 644 Q 387 710 401 765 Q 405 777 383 792 Q 346 811 321 814 Q 305 818 296 809 Q 289 800 297 785 Q 319 757 320 735 Q 332 602 330 447 C 330 417 373 428 374 458 Z" class="stroke1"/>
    <path d="M 383 615 Q 428 609 491 628 Q 555 649 559 651 Q 566 661 561 669 Q 552 679 521 683 Q 497 684 428 655 Q 407 651 384 644 C 355 635 353 618 383 615 Z" class="stroke2"/>
    <path d="M 355 409 Q 421 425 504 436 Q 522 439 522 447 Q 523 460 504 471 Q 474 483 450 477 Q 408 467 374 458 L 330 447 Q 144 408 61 398 Q 48 397 44 388 Q 41 376 58 364 Q 101 334 145 350 Q 242 383 307 399 Q 308 400 314 400 L 355 409 Z" class="stroke3"/>
    <path d="M 314 400 Q 326 364 325 253 Q 326 138 315 110 Q 311 97 285 100 Q 261 104 236 107 Q 224 107 223 101 Q 222 94 233 85 Q 294 36 315 5 Q 330 -8 340 -6 Q 352 -2 363 33 Q 379 67 377 130 Q 377 278 381 332 Q 390 374 371 395 Q 362 404 355 409 C 332 428 307 429 314 400 Z" class="stroke4"/>
    <path d="M 178 279 Q 156 230 124 187 Q 103 154 120 118 Q 127 99 150 111 Q 202 147 203 219 Q 210 253 203 279 Q 197 288 191 289 Q 182 288 178 279 Z" class="stroke5"/>
    <path d="M 431 291 Q 482 218 507 214 Q 522 213 530 231 Q 533 244 524 266 Q 506 300 437 319 Q 427 322 426 309 Q 425 302 431 291 Z" class="stroke6"/>
    <path d="M 724 232 Q 772 314 815 457 Q 825 488 844 508 Q 863 524 848 538 Q 835 550 801 559 Q 776 565 749 548 Q 716 535 673 521 Q 628 508 555 499 Q 540 498 536 490 Q 532 483 551 475 Q 588 462 640 478 Q 716 505 731 504 Q 759 504 755 474 Q 731 342 687 271 L 660 229 Q 588 144 471 100 Q 458 94 470 88 Q 477 81 520 85 Q 613 94 691 187 L 724 232 Z" class="stroke7"/>
    <path d="M 691 187 Q 727 139 780 82 Q 808 55 852 59 Q 910 63 954 65 Q 967 66 981 71 Q 988 77 978 87 Q 963 97 845 147 Q 788 168 724 232 L 687 271 Q 644 320 598 384 Q 580 409 548 418 Q 536 422 526 416 Q 520 409 529 401 Q 536 394 543 389 Q 567 374 649 245 Q 653 238 660 229 L 691 187 Z" class="stroke8"/>
    
    
    
    
    
    
    
    </g>
</svg>