<svg version="1.1" viewBox="0 0 1024 1024" xmlns="http://www.w3.org/2000/svg">
  
  <g transform="scale(1, -1) translate(0, -900)">
    <style type="text/css">
        .stroke1 {fill: #808080;}
        .stroke2 {fill: #808079;}
        .stroke3 {fill: #808078;}
        .stroke4 {fill: #808077;}
        .stroke5 {fill: #808076;}
        .stroke6 {fill: #808075;}
        .stroke7 {fill: #808074;}
        .stroke8 {fill: #808073;}
        .stroke9 {fill: #808072;}
        .stroke10 {fill: #808071;}
        .stroke11 {fill: #808070;}
        .stroke12 {fill: #808069;}
        .stroke13 {fill: #808068;}
        .stroke14 {fill: #808067;}
        .stroke15 {fill: #808066;}
        .stroke16 {fill: #808065;}
        .stroke17 {fill: #808064;}
        .stroke18 {fill: #808063;}
        .stroke19 {fill: #808062;}
        .stroke20 {fill: #808061;}
        text {
            font-family: Helvetica;
            font-size: 50px;
            fill: #808060;
            paint-order: stroke;
            stroke: #000000;
            stroke-width: 4px;
            stroke-linecap: butt;
            stroke-linejoin: miter;
            font-weight: 800;
        }
    </style>

    <path d="M 419 734 Q 474 743 519 748 Q 529 747 537 759 Q 538 769 516 780 Q 489 801 387 771 Q 267 744 224 738 Q 182 734 136 727 Q 109 723 130 707 Q 163 683 191 690 L 240 701 Q 306 717 388 729 L 419 734 Z" class="stroke1"/>
    <path d="M 191 690 Q 206 660 206 624 Q 207 587 208 272 C 208 242 250 254 250 284 Q 251 357 252 422 L 252 449 Q 253 500 254 545 L 255 576 Q 255 627 258 661 Q 265 685 240 701 C 217 720 179 717 191 690 Z" class="stroke2"/>
    <path d="M 449 348 Q 450 469 450 597 Q 449 685 452 698 Q 455 710 446 717 Q 436 724 419 734 C 393 750 380 758 388 729 Q 388 728 390 725 Q 406 695 401 332 L 400 295 Q 400 163 389 46 Q 386 4 411 -29 Q 424 -44 433 -26 Q 460 26 453 71 Q 450 116 449 316 L 449 348 Z" class="stroke3"/>
    <path d="M 254 545 Q 309 555 352 561 Q 374 565 365 577 Q 355 590 331 594 Q 283 597 255 576 C 231 559 224 540 254 545 Z" class="stroke4"/>
    <path d="M 252 422 Q 258 422 349 440 Q 371 446 362 457 Q 350 470 326 472 Q 287 475 252 449 C 228 431 222 419 252 422 Z" class="stroke5"/>
    <path d="M 449 316 Q 476 329 496 343 Q 509 350 510 360 Q 504 366 492 363 Q 470 356 449 348 L 401 332 Q 328 310 250 284 L 208 272 Q 121 248 90 249 Q 77 248 75 237 Q 74 224 82 214 Q 106 198 140 178 Q 150 175 163 184 Q 217 223 400 295 L 449 316 Z" class="stroke6"/>
    <path d="M 705 325 Q 754 425 790 561 Q 800 595 819 617 Q 838 636 822 650 Q 806 662 770 671 Q 742 675 715 657 Q 625 620 530 604 Q 515 603 511 594 Q 507 587 527 579 Q 567 566 620 584 Q 684 609 696 610 Q 727 609 722 575 Q 706 466 665 370 L 641 328 Q 578 235 470 190 Q 457 183 471 176 Q 475 169 517 173 Q 599 185 677 282 L 705 325 Z" class="stroke7"/>
    <path d="M 677 282 Q 765 171 803 161 Q 816 158 939 162 Q 952 163 966 167 Q 973 174 962 183 Q 947 193 829 239 Q 781 257 705 325 L 665 370 Q 620 422 573 490 Q 554 517 520 526 Q 508 530 498 524 Q 492 517 501 509 Q 508 502 515 497 Q 545 481 640 329 L 641 328 L 677 282 Z" class="stroke8"/>
    
    
    
    
    
    
    
    </g>
</svg>