<svg version="1.1" viewBox="0 0 1024 1024" xmlns="http://www.w3.org/2000/svg">
  
  <g transform="scale(1, -1) translate(0, -900)">
    <style type="text/css">
        .stroke1 {fill: #808080;}
        .stroke2 {fill: #808079;}
        .stroke3 {fill: #808078;}
        .stroke4 {fill: #808077;}
        .stroke5 {fill: #808076;}
        .stroke6 {fill: #808075;}
        .stroke7 {fill: #808074;}
        .stroke8 {fill: #808073;}
        .stroke9 {fill: #808072;}
        .stroke10 {fill: #808071;}
        .stroke11 {fill: #808070;}
        .stroke12 {fill: #808069;}
        .stroke13 {fill: #808068;}
        .stroke14 {fill: #808067;}
        .stroke15 {fill: #808066;}
        .stroke16 {fill: #808065;}
        .stroke17 {fill: #808064;}
        .stroke18 {fill: #808063;}
        .stroke19 {fill: #808062;}
        .stroke20 {fill: #808061;}
        text {
            font-family: Helvetica;
            font-size: 50px;
            fill: #808060;
            paint-order: stroke;
            stroke: #000000;
            stroke-width: 4px;
            stroke-linecap: butt;
            stroke-linejoin: miter;
            font-weight: 800;
        }
    </style>

    <path d="M 343 702 Q 330 708 297 713 Q 284 717 279 711 Q 272 704 282 685 Q 319 607 340 481 Q 344 442 365 417 Q 386 392 392 410 Q 396 423 396 440 L 393 479 Q 369 596 362 665 C 359 695 359 696 343 702 Z" class="stroke1"/>
    <path d="M 681 517 Q 714 632 756 670 Q 777 691 759 712 Q 675 782 614 752 Q 509 719 343 702 C 313 699 332 661 362 665 Q 372 665 606 702 Q 633 708 643 696 Q 656 684 653 659 Q 640 580 622 518 C 614 489 672 488 681 517 Z" class="stroke2"/>
    <path d="M 396 440 Q 402 440 409 441 Q 502 460 701 474 Q 713 475 715 485 Q 716 494 682 517 L 681 517 L 622 518 Q 495 491 393 479 C 363 475 366 438 396 440 Z" class="stroke3"/>
    <path d="M 347 312 Q 329 225 118 70 Q 93 54 124 56 Q 203 60 352 196 Q 373 223 426 270 Q 439 283 437 293 Q 433 309 405 318 Q 374 331 360 328 Q 351 327 347 312 Z" class="stroke4"/>
    <path d="M 612 320 Q 696 230 794 102 Q 810 77 826 71 Q 836 68 845 79 Q 861 92 851 143 Q 845 194 745 266 Q 712 299 616 355 Q 607 362 603 348 Q 602 333 612 320 Z" class="stroke5"/>
    
    
    
    
    </g>
</svg>