<svg version="1.1" viewBox="0 0 1024 1024" xmlns="http://www.w3.org/2000/svg">
  
  <g transform="scale(1, -1) translate(0, -900)">
    <style type="text/css">
        .stroke1 {fill: #808080;}
        .stroke2 {fill: #808079;}
        .stroke3 {fill: #808078;}
        .stroke4 {fill: #808077;}
        .stroke5 {fill: #808076;}
        .stroke6 {fill: #808075;}
        .stroke7 {fill: #808074;}
        .stroke8 {fill: #808073;}
        .stroke9 {fill: #808072;}
        .stroke10 {fill: #808071;}
        .stroke11 {fill: #808070;}
        .stroke12 {fill: #808069;}
        .stroke13 {fill: #808068;}
        .stroke14 {fill: #808067;}
        .stroke15 {fill: #808066;}
        .stroke16 {fill: #808065;}
        .stroke17 {fill: #808064;}
        .stroke18 {fill: #808063;}
        .stroke19 {fill: #808062;}
        .stroke20 {fill: #808061;}
        text {
            font-family: Helvetica;
            font-size: 50px;
            fill: #808060;
            paint-order: stroke;
            stroke: #000000;
            stroke-width: 4px;
            stroke-linecap: butt;
            stroke-linejoin: miter;
            font-weight: 800;
        }
    </style>

    <path d="M 219 662 Q 206 669 171 678 Q 158 682 153 677 Q 146 671 154 653 Q 184 580 195 462 Q 196 426 215 402 Q 233 377 240 393 Q 247 411 247 441 L 244 477 Q 229 598 229 632 C 228 658 228 658 219 662 Z" class="stroke1"/>
    <path d="M 402 507 Q 418 609 446 641 Q 470 669 444 684 Q 422 696 393 714 Q 372 724 328 698 Q 283 679 219 662 C 190 654 200 623 229 632 Q 256 641 327 657 Q 354 664 361 653 Q 370 646 347 506 C 342 476 397 477 402 507 Z" class="stroke2"/>
    <path d="M 247 441 Q 256 451 418 473 Q 428 474 429 484 Q 429 491 402 507 C 386 517 376 514 347 506 Q 290 490 244 477 C 215 469 221 427 247 441 Z" class="stroke3"/>
    <path d="M 629 656 Q 635 657 642 659 Q 718 687 774 700 Q 787 703 790 699 Q 803 683 798 636 Q 792 509 765 451 Q 749 414 717 418 Q 686 425 657 434 Q 629 441 650 416 Q 705 370 732 334 Q 757 312 776 333 Q 809 360 830 406 Q 855 460 863 620 Q 866 677 884 706 Q 896 721 889 732 Q 879 742 821 763 Q 799 770 779 755 Q 746 730 610 696 C 581 689 600 648 629 656 Z" class="stroke4"/>
    <path d="M 560 13 Q 566 -15 573 -25 Q 579 -32 587 -30 Q 603 -21 610 44 Q 614 92 616 340 Q 616 584 629 656 C 633 682 633 682 610 696 Q 582 715 567 718 Q 554 722 536 713 Q 526 704 535 693 Q 539 683 547 672 Q 560 647 561 610 Q 564 456 557 214 Q 554 63 560 13 Z" class="stroke5"/>
    
    
    
    
    </g>
</svg>