<svg version="1.1" viewBox="0 0 1024 1024" xmlns="http://www.w3.org/2000/svg">
  
  <g transform="scale(1, -1) translate(0, -900)">
    <style type="text/css">
        .stroke1 {fill: #808080;}
        .stroke2 {fill: #808079;}
        .stroke3 {fill: #808078;}
        .stroke4 {fill: #808077;}
        .stroke5 {fill: #808076;}
        .stroke6 {fill: #808075;}
        .stroke7 {fill: #808074;}
        .stroke8 {fill: #808073;}
        .stroke9 {fill: #808072;}
        .stroke10 {fill: #808071;}
        .stroke11 {fill: #808070;}
        .stroke12 {fill: #808069;}
        .stroke13 {fill: #808068;}
        .stroke14 {fill: #808067;}
        .stroke15 {fill: #808066;}
        .stroke16 {fill: #808065;}
        .stroke17 {fill: #808064;}
        .stroke18 {fill: #808063;}
        .stroke19 {fill: #808062;}
        .stroke20 {fill: #808061;}
        text {
            font-family: Helvetica;
            font-size: 50px;
            fill: #808060;
            paint-order: stroke;
            stroke: #000000;
            stroke-width: 4px;
            stroke-linecap: butt;
            stroke-linejoin: miter;
            font-weight: 800;
        }
    </style>

    <path d="M 493 696 Q 527 736 560 768 Q 573 780 561 797 Q 522 839 496 842 Q 483 841 483 826 Q 477 714 306 577 Q 284 571 235 528 Q 225 515 241 516 Q 275 516 347 563 L 360 571 Q 424 616 471 670 L 493 696 Z" class="stroke1"/>
    <path d="M 376 277 Q 536 421 691 621 Q 713 649 751 677 Q 767 687 762 697 Q 761 707 698 736 Q 680 746 635 724 Q 578 708 493 696 C 463 692 441 674 471 670 Q 498 657 614 679 Q 633 683 639 675 Q 643 668 629 648 Q 544 503 400 361 Q 279 243 47 82 Q 31 70 46 69 Q 82 69 200 143 Q 293 204 358 262 L 376 277 Z" class="stroke2"/>
    <path d="M 347 563 Q 347 554 415 477 Q 419 471 426 464 Q 436 451 450 451 Q 460 450 465 461 Q 471 473 466 500 Q 462 530 371 568 Q 365 571 360 571 C 343 573 343 573 347 563 Z" class="stroke3"/>
    <path d="M 417 266 Q 405 272 376 277 C 349 282 349 282 358 262 Q 359 258 362 253 Q 393 183 407 69 Q 410 35 428 12 Q 446 -10 451 5 Q 455 15 456 31 L 454 70 Q 448 88 431 229 C 427 259 427 262 417 266 Z" class="stroke4"/>
    <path d="M 756 100 Q 790 199 833 231 Q 854 252 838 273 Q 789 315 745 326 Q 729 329 713 323 Q 602 284 417 266 C 387 263 401 225 431 229 Q 434 229 684 267 Q 712 273 723 260 Q 735 248 730 224 Q 715 158 697 105 C 688 77 746 72 756 100 Z" class="stroke5"/>
    <path d="M 456 31 Q 462 31 469 32 Q 566 48 772 58 Q 785 59 786 69 Q 787 78 756 100 C 739 113 727 110 697 105 Q 561 80 454 70 C 424 67 426 29 456 31 Z" class="stroke6"/>
    
    
    
    
    
    </g>
</svg>