<svg version="1.1" viewBox="0 0 1024 1024" xmlns="http://www.w3.org/2000/svg">
  
  <g transform="scale(1, -1) translate(0, -900)">
    <style type="text/css">
        .stroke1 {fill: #808080;}
        .stroke2 {fill: #808079;}
        .stroke3 {fill: #808078;}
        .stroke4 {fill: #808077;}
        .stroke5 {fill: #808076;}
        .stroke6 {fill: #808075;}
        .stroke7 {fill: #808074;}
        .stroke8 {fill: #808073;}
        .stroke9 {fill: #808072;}
        .stroke10 {fill: #808071;}
        .stroke11 {fill: #808070;}
        .stroke12 {fill: #808069;}
        .stroke13 {fill: #808068;}
        .stroke14 {fill: #808067;}
        .stroke15 {fill: #808066;}
        .stroke16 {fill: #808065;}
        .stroke17 {fill: #808064;}
        .stroke18 {fill: #808063;}
        .stroke19 {fill: #808062;}
        .stroke20 {fill: #808061;}
        text {
            font-family: Helvetica;
            font-size: 50px;
            fill: #808060;
            paint-order: stroke;
            stroke: #000000;
            stroke-width: 4px;
            stroke-linecap: butt;
            stroke-linejoin: miter;
            font-weight: 800;
        }
    </style>

    <path d="M 401 766 Q 388 772 356 776 Q 344 779 341 773 Q 335 767 344 751 Q 362 733 391 611 Q 395 584 411 567 Q 430 545 435 562 Q 436 568 437 575 L 436 608 Q 426 650 414 730 C 410 760 409 763 401 766 Z" class="stroke1"/>
    <path d="M 650 631 Q 686 710 722 728 Q 741 747 727 767 Q 711 782 656 812 Q 635 822 562 797 Q 496 781 401 766 C 371 761 385 722 414 730 Q 418 731 429 734 Q 514 747 595 762 Q 617 766 625 757 Q 632 748 628 730 Q 612 681 596 641 C 585 613 637 604 650 631 Z" class="stroke2"/>
    <path d="M 437 575 Q 443 575 451 576 Q 515 589 656 602 Q 666 603 668 611 Q 668 618 650 631 L 596 641 Q 593 642 591 641 Q 506 619 436 608 C 406 603 407 574 437 575 Z" class="stroke3"/>
    <path d="M 682 349 Q 713 427 740 453 Q 762 466 755 477 Q 745 493 690 520 Q 672 530 647 517 Q 613 501 568 497 Q 477 484 333 457 Q 317 453 319 472 Q 322 530 333 567 Q 343 586 333 595 Q 314 611 280 622 Q 264 626 258 622 Q 246 612 257 598 Q 282 558 274 514 Q 271 478 248 452 Q 232 437 239 420 Q 248 404 269 391 Q 279 382 296 393 Q 354 432 417 437 L 467 448 Q 530 460 610 466 Q 637 466 644 455 Q 654 445 642 420 Q 632 384 621 352 Q 618 345 618 339 C 610 310 670 321 682 349 Z" class="stroke4"/>
    <path d="M 488 285 Q 590 298 883 298 Q 905 298 911 308 Q 918 321 899 336 Q 833 385 772 365 Q 730 359 682 349 L 618 339 Q 524 330 486 321 L 421 312 Q 286 297 138 280 Q 114 279 132 259 Q 148 243 167 237 Q 191 231 208 236 Q 305 261 415 276 L 488 285 Z" class="stroke5"/>
    <path d="M 417 437 Q 429 389 421 312 L 415 276 Q 382 180 332 128 Q 260 62 111 15 Q 101 14 95 9 Q 89 5 99 -1 Q 105 -2 120 -1 Q 223 11 299 49 Q 422 106 470 262 L 486 321 Q 489 337 492 351 Q 496 381 503 400 Q 509 413 499 422 Q 484 438 467 448 C 442 465 411 466 417 437 Z" class="stroke6"/>
    <path d="M 470 262 Q 576 135 692 20 Q 719 -8 763 -10 Q 845 -16 929 -1 Q 951 0 953 7 Q 956 14 939 22 Q 735 100 687 131 Q 609 182 488 285 C 465 304 450 286 470 262 Z" class="stroke7"/>
    
    
    
    
    
    
    </g>
</svg>