<svg version="1.1" viewBox="0 0 1024 1024" xmlns="http://www.w3.org/2000/svg">
  
  <g transform="scale(1, -1) translate(0, -900)">
    <style type="text/css">
        .stroke1 {fill: #808080;}
        .stroke2 {fill: #808079;}
        .stroke3 {fill: #808078;}
        .stroke4 {fill: #808077;}
        .stroke5 {fill: #808076;}
        .stroke6 {fill: #808075;}
        .stroke7 {fill: #808074;}
        .stroke8 {fill: #808073;}
        .stroke9 {fill: #808072;}
        .stroke10 {fill: #808071;}
        .stroke11 {fill: #808070;}
        .stroke12 {fill: #808069;}
        .stroke13 {fill: #808068;}
        .stroke14 {fill: #808067;}
        .stroke15 {fill: #808066;}
        .stroke16 {fill: #808065;}
        .stroke17 {fill: #808064;}
        .stroke18 {fill: #808063;}
        .stroke19 {fill: #808062;}
        .stroke20 {fill: #808061;}
        text {
            font-family: Helvetica;
            font-size: 50px;
            fill: #808060;
            paint-order: stroke;
            stroke: #000000;
            stroke-width: 4px;
            stroke-linecap: butt;
            stroke-linejoin: miter;
            font-weight: 800;
        }
    </style>

    <path d="M 334 759 Q 328 760 323 760 Q 310 763 307 757 Q 300 750 310 734 Q 341 679 361 585 Q 365 557 383 539 Q 402 517 407 534 Q 408 541 410 551 L 407 587 Q 403 602 382 723 C 377 753 364 756 334 759 Z" class="stroke1"/>
    <path d="M 660 626 Q 687 705 721 731 Q 739 749 724 767 Q 655 824 599 802 Q 413 742 334 759 C 304 764 353 716 382 723 Q 607 774 626 756 Q 641 740 608 632 C 599 603 650 598 660 626 Z" class="stroke2"/>
    <path d="M 410 551 Q 416 551 423 552 Q 501 571 672 591 Q 682 592 684 602 Q 684 609 660 626 C 646 636 638 635 608 632 Q 605 633 602 632 Q 494 602 407 587 C 377 582 380 549 410 551 Z" class="stroke3"/>
    <path d="M 508 429 Q 581 442 658 455 Q 716 468 726 475 Q 735 482 731 492 Q 724 504 694 513 Q 664 520 578 492 Q 436 458 319 449 Q 282 445 308 426 Q 344 402 420 415 Q 433 418 449 419 L 508 429 Z" class="stroke4"/>
    <path d="M 519 274 Q 633 286 800 283 Q 830 282 855 283 Q 877 282 883 292 Q 889 305 871 320 Q 814 363 772 355 Q 678 337 519 314 L 458 305 Q 320 290 162 272 Q 140 271 156 251 Q 172 235 191 229 Q 215 223 232 228 Q 334 255 451 267 L 519 274 Z" class="stroke5"/>
    <path d="M 519 314 Q 534 384 539 393 Q 546 400 540 411 Q 534 418 508 429 C 481 442 441 448 449 419 Q 467 367 458 305 L 451 267 Q 415 144 310 76 Q 265 49 185 15 Q 158 2 190 1 Q 211 -2 252 11 Q 304 23 350 47 Q 393 66 426 105 Q 469 153 504 253 L 519 314 Z" class="stroke6"/>
    <path d="M 504 253 Q 505 252 510 246 Q 666 18 719 -1 Q 797 -19 906 -7 Q 927 -6 929 -1 Q 932 6 916 14 Q 867 36 808 59 Q 679 116 541 254 Q 528 267 519 274 C 496 294 486 277 504 253 Z" class="stroke7"/>
    
    
    
    
    
    
    </g>
</svg>