<svg version="1.1" viewBox="0 0 1024 1024" xmlns="http://www.w3.org/2000/svg">
  
  <g transform="scale(1, -1) translate(0, -900)">
    <style type="text/css">
        .stroke1 {fill: #808080;}
        .stroke2 {fill: #808079;}
        .stroke3 {fill: #808078;}
        .stroke4 {fill: #808077;}
        .stroke5 {fill: #808076;}
        .stroke6 {fill: #808075;}
        .stroke7 {fill: #808074;}
        .stroke8 {fill: #808073;}
        .stroke9 {fill: #808072;}
        .stroke10 {fill: #808071;}
        .stroke11 {fill: #808070;}
        .stroke12 {fill: #808069;}
        .stroke13 {fill: #808068;}
        .stroke14 {fill: #808067;}
        .stroke15 {fill: #808066;}
        .stroke16 {fill: #808065;}
        .stroke17 {fill: #808064;}
        .stroke18 {fill: #808063;}
        .stroke19 {fill: #808062;}
        .stroke20 {fill: #808061;}
        text {
            font-family: Helvetica;
            font-size: 50px;
            fill: #808060;
            paint-order: stroke;
            stroke: #000000;
            stroke-width: 4px;
            stroke-linecap: butt;
            stroke-linejoin: miter;
            font-weight: 800;
        }
    </style>

    <path d="M 362 725 Q 347 732 308 736 Q 293 740 289 733 Q 282 726 293 706 Q 327 648 352 549 Q 356 519 376 501 Q 398 476 404 495 Q 405 502 407 513 L 404 549 Q 401 559 377 689 C 372 719 371 722 362 725 Z" class="stroke1"/>
    <path d="M 673 575 Q 710 660 748 686 Q 767 705 753 727 Q 674 796 614 772 Q 509 742 362 725 C 332 721 348 683 377 689 Q 404 695 605 724 Q 632 728 642 718 Q 651 708 647 688 Q 632 633 616 587 C 606 559 661 548 673 575 Z" class="stroke2"/>
    <path d="M 407 513 Q 414 512 426 514 Q 505 530 678 544 Q 690 545 691 554 Q 691 561 673 575 L 616 587 Q 613 588 610 587 Q 495 560 404 549 C 374 545 377 514 407 513 Z" class="stroke3"/>
    <path d="M 522 387 Q 586 397 656 405 Q 714 414 724 422 Q 734 429 730 439 Q 723 452 693 462 Q 668 471 553 443 Q 408 418 310 415 Q 270 411 296 391 Q 339 364 421 374 Q 442 377 466 379 L 522 387 Z" class="stroke4"/>
    <path d="M 537 225 Q 561 229 714 242 Q 724 239 735 253 Q 736 265 714 277 Q 675 301 591 279 Q 564 275 539 268 L 478 259 Q 468 259 290 242 Q 260 239 282 220 Q 312 193 361 200 Q 413 209 478 217 L 537 225 Z" class="stroke5"/>
    <path d="M 531 90 Q 534 163 537 225 L 539 268 Q 542 364 543 366 Q 531 378 522 387 C 501 408 459 408 466 379 Q 475 349 478 259 L 478 217 Q 478 165 479 85 C 479 55 530 60 531 90 Z" class="stroke6"/>
    <path d="M 479 85 Q 331 72 164 58 Q 139 57 157 35 Q 173 17 195 10 Q 220 3 240 7 Q 487 64 879 42 Q 904 41 910 51 Q 917 66 898 83 Q 831 137 763 121 Q 670 108 531 90 L 479 85 Z" class="stroke7"/>
    
    
    
    
    
    
    </g>
</svg>