<svg version="1.1" viewBox="0 0 1024 1024" xmlns="http://www.w3.org/2000/svg">
  
  <g transform="scale(1, -1) translate(0, -900)">
    <style type="text/css">
        .stroke1 {fill: #808080;}
        .stroke2 {fill: #808079;}
        .stroke3 {fill: #808078;}
        .stroke4 {fill: #808077;}
        .stroke5 {fill: #808076;}
        .stroke6 {fill: #808075;}
        .stroke7 {fill: #808074;}
        .stroke8 {fill: #808073;}
        .stroke9 {fill: #808072;}
        .stroke10 {fill: #808071;}
        .stroke11 {fill: #808070;}
        .stroke12 {fill: #808069;}
        .stroke13 {fill: #808068;}
        .stroke14 {fill: #808067;}
        .stroke15 {fill: #808066;}
        .stroke16 {fill: #808065;}
        .stroke17 {fill: #808064;}
        .stroke18 {fill: #808063;}
        .stroke19 {fill: #808062;}
        .stroke20 {fill: #808061;}
        text {
            font-family: Helvetica;
            font-size: 50px;
            fill: #808060;
            paint-order: stroke;
            stroke: #000000;
            stroke-width: 4px;
            stroke-linecap: butt;
            stroke-linejoin: miter;
            font-weight: 800;
        }
    </style>

    <path d="M 362 580 Q 384 622 407 653 Q 417 666 401 682 Q 353 715 327 710 Q 315 707 319 692 Q 337 608 247 488 Q 235 484 209 441 Q 200 425 216 430 Q 232 433 255 451 Q 312 499 348 555 L 362 580 Z" class="stroke1"/>
    <path d="M 556 562 Q 736 604 738 605 Q 748 614 743 623 Q 736 636 704 644 Q 673 651 639 639 Q 599 626 560 614 L 500 599 Q 436 589 362 580 C 332 576 321 568 348 555 Q 387 531 484 548 Q 491 549 500 550 L 556 562 Z" class="stroke2"/>
    <path d="M 544 405 Q 550 486 556 562 L 560 614 Q 563 719 584 779 Q 588 792 565 809 Q 525 831 497 835 Q 479 839 470 830 Q 461 821 471 804 Q 496 768 496 744 Q 500 674 500 599 L 500 550 Q 499 477 496 397 C 495 367 542 375 544 405 Z" class="stroke3"/>
    <path d="M 496 397 Q 309 373 90 345 Q 66 344 84 323 Q 100 307 121 301 Q 145 295 164 301 Q 450 385 927 384 Q 951 385 956 394 Q 962 407 943 424 Q 877 472 809 451 Q 703 432 544 405 L 496 397 Z" class="stroke4"/>
    <path d="M 366 236 Q 353 243 313 249 Q 300 253 295 246 Q 288 239 298 221 Q 332 154 353 44 Q 357 10 377 -11 Q 399 -36 404 -18 Q 408 -5 408 16 L 404 54 Q 385 159 378 197 C 373 227 371 234 366 236 Z" class="stroke5"/>
    <path d="M 686 92 Q 716 182 750 207 Q 769 229 753 249 Q 734 265 674 294 Q 653 303 628 293 Q 523 254 366 236 C 336 232 348 192 378 197 Q 388 198 402 202 Q 505 220 604 237 Q 629 241 640 231 Q 650 221 648 198 Q 639 140 626 90 C 619 61 676 64 686 92 Z" class="stroke6"/>
    <path d="M 408 16 Q 414 16 421 16 Q 512 35 709 46 Q 721 47 723 57 Q 724 66 690 90 Q 689 91 686 92 L 626 90 Q 503 66 404 54 C 374 50 378 16 408 16 Z" class="stroke7"/>
    
    
    
    
    
    
    </g>
</svg>