<svg version="1.1" viewBox="0 0 1024 1024" xmlns="http://www.w3.org/2000/svg">
  
  <g transform="scale(1, -1) translate(0, -900)">
    <style type="text/css">
        .stroke1 {fill: #808080;}
        .stroke2 {fill: #808079;}
        .stroke3 {fill: #808078;}
        .stroke4 {fill: #808077;}
        .stroke5 {fill: #808076;}
        .stroke6 {fill: #808075;}
        .stroke7 {fill: #808074;}
        .stroke8 {fill: #808073;}
        .stroke9 {fill: #808072;}
        .stroke10 {fill: #808071;}
        .stroke11 {fill: #808070;}
        .stroke12 {fill: #808069;}
        .stroke13 {fill: #808068;}
        .stroke14 {fill: #808067;}
        .stroke15 {fill: #808066;}
        .stroke16 {fill: #808065;}
        .stroke17 {fill: #808064;}
        .stroke18 {fill: #808063;}
        .stroke19 {fill: #808062;}
        .stroke20 {fill: #808061;}
        text {
            font-family: Helvetica;
            font-size: 50px;
            fill: #808060;
            paint-order: stroke;
            stroke: #000000;
            stroke-width: 4px;
            stroke-linecap: butt;
            stroke-linejoin: miter;
            font-weight: 800;
        }
    </style>

    <path d="M 146 524 L 146 525 Q 134 532 96 542 Q 83 546 79 541 Q 72 535 80 518 Q 108 442 120 322 Q 121 286 140 261 Q 156 237 164 253 Q 171 272 170 309 L 166 348 Q 153 457 151 494 L 146 524 Z" class="stroke1"/>
    <path d="M 309 369 Q 322 471 349 504 Q 371 532 347 545 Q 325 555 297 573 Q 281 582 236 557 Q 197 539 146 524 C 117 515 122 486 151 494 Q 196 507 235 517 Q 259 524 266 515 Q 278 506 258 377 C 253 347 305 339 309 369 Z" class="stroke2"/>
    <path d="M 170 309 Q 191 319 318 338 Q 328 341 330 350 Q 330 357 309 369 L 258 377 Q 251 377 245 374 Q 202 359 166 348 C 137 339 142 298 170 309 Z" class="stroke3"/>
    <path d="M 444 576 Q 425 589 403 596 Q 394 597 388 589 Q 384 583 392 573 Q 443 441 406 199 Q 384 109 387 91 Q 397 57 408 44 Q 420 31 430 45 Q 458 75 459 270 Q 459 472 465 535 C 467 562 467 562 444 576 Z" class="stroke4"/>
    <path d="M 644 571 Q 696 581 756 590 Q 781 597 794 583 Q 807 576 811 520 Q 824 330 814 116 Q 814 85 802 75 Q 786 68 722 95 Q 706 101 706 91 Q 706 84 718 76 Q 775 22 803 -16 Q 824 -37 836 -35 Q 849 -32 861 -4 Q 877 39 880 105 Q 867 393 868 499 Q 868 539 879 563 Q 892 585 881 597 Q 871 612 822 636 Q 803 646 783 640 Q 740 627 647 605 L 601 597 Q 523 585 444 576 C 414 572 436 529 465 535 Q 471 535 480 537 Q 535 550 600 563 L 644 571 Z" class="stroke5"/>
    <path d="M 627 415 Q 634 451 644 571 L 647 605 Q 653 704 675 754 Q 682 767 671 778 Q 650 796 613 807 Q 589 814 581 807 Q 572 801 579 789 Q 600 755 602 709 Q 603 652 601 597 L 600 563 Q 588 380 539 318 Q 515 293 476 266 Q 464 259 465 254 Q 466 250 477 251 Q 486 248 510 257 Q 588 284 620 384 Q 620 387 621 388 L 627 415 Z" class="stroke6"/>
    <path d="M 621 388 Q 679 336 749 263 Q 762 247 775 243 Q 782 242 789 250 Q 799 262 788 298 Q 776 343 627 415 C 600 428 599 408 621 388 Z" class="stroke7"/>
    
    
    
    
    
    
    </g>
</svg>