<svg version="1.1" viewBox="0 0 1024 1024" xmlns="http://www.w3.org/2000/svg">
  
  <g transform="scale(1, -1) translate(0, -900)">
    <style type="text/css">
        .stroke1 {fill: #808080;}
        .stroke2 {fill: #808079;}
        .stroke3 {fill: #808078;}
        .stroke4 {fill: #808077;}
        .stroke5 {fill: #808076;}
        .stroke6 {fill: #808075;}
        .stroke7 {fill: #808074;}
        .stroke8 {fill: #808073;}
        .stroke9 {fill: #808072;}
        .stroke10 {fill: #808071;}
        .stroke11 {fill: #808070;}
        .stroke12 {fill: #808069;}
        .stroke13 {fill: #808068;}
        .stroke14 {fill: #808067;}
        .stroke15 {fill: #808066;}
        .stroke16 {fill: #808065;}
        .stroke17 {fill: #808064;}
        .stroke18 {fill: #808063;}
        .stroke19 {fill: #808062;}
        .stroke20 {fill: #808061;}
        text {
            font-family: Helvetica;
            font-size: 50px;
            fill: #808060;
            paint-order: stroke;
            stroke: #000000;
            stroke-width: 4px;
            stroke-linecap: butt;
            stroke-linejoin: miter;
            font-weight: 800;
        }
    </style>

    <path d="M 136 560 Q 124 567 93 573 Q 80 577 77 572 Q 70 566 78 549 Q 111 470 126 344 Q 127 307 148 280 Q 166 258 171 273 Q 181 300 172 353 L 167 385 Q 149 497 146 531 C 143 557 143 557 136 560 Z" class="stroke1"/>
    <path d="M 314 413 Q 332 510 358 541 Q 382 569 356 584 Q 283 618 282 618 Q 272 618 263 611 Q 224 584 136 560 C 107 552 116 526 146 531 Q 156 532 168 536 Q 208 546 244 555 Q 268 561 273 552 Q 282 545 275 505 Q 268 463 259 413 C 254 383 308 384 314 413 Z" class="stroke2"/>
    <path d="M 172 353 Q 181 352 192 355 Q 235 368 330 381 Q 340 382 341 392 Q 341 399 314 413 C 294 424 288 422 259 413 Q 207 397 167 385 C 138 376 142 354 172 353 Z" class="stroke3"/>
    <path d="M 516 693 Q 503 705 482 712 Q 460 719 457 709 Q 453 699 461 689 Q 483 658 482 619 Q 476 528 461 443 L 452 397 Q 433 303 393 249 Q 359 210 362 197 Q 368 181 389 164 Q 408 148 429 169 Q 492 211 696 197 Q 699 197 705 196 L 764 188 Q 813 182 864 168 Q 883 161 896 167 Q 909 171 904 187 Q 897 208 875 222 Q 860 240 831 238 Q 812 238 773 240 L 715 242 Q 621 245 476 231 Q 454 228 460 256 Q 479 328 497 408 L 506 449 Q 536 608 536 658 C 537 680 537 680 516 693 Z" class="stroke4"/>
    <path d="M 798 495 Q 802 631 816 664 Q 829 689 818 696 Q 811 709 750 746 Q 732 761 680 736 Q 596 712 516 693 C 487 686 507 653 536 658 Q 552 658 575 666 Q 702 703 723 690 Q 736 683 738 654 Q 739 561 737 484 L 736 441 Q 730 327 715 242 L 705 196 Q 678 87 648 64 Q 641 58 600 69 Q 569 79 550 84 Q 535 85 540 73 Q 544 64 564 52 Q 615 12 639 -22 Q 667 -50 687 -32 Q 735 28 764 188 L 773 240 Q 788 334 795 444 L 798 495 Z" class="stroke5"/>
    <path d="M 576 586 Q 633 517 658 517 Q 671 516 677 534 Q 678 547 669 566 Q 648 599 580 612 Q 571 613 570 602 Q 569 595 576 586 Z" class="stroke6"/>
    <path d="M 795 444 Q 843 447 947 447 Q 966 448 972 456 Q 976 468 960 482 Q 900 524 843 505 Q 822 501 798 495 L 737 484 Q 694 478 645 469 Q 578 460 506 449 L 461 443 Q 415 437 368 430 Q 347 429 363 411 Q 393 384 442 395 Q 445 396 452 397 L 497 408 Q 555 421 620 429 Q 669 438 736 441 L 795 444 Z" class="stroke7"/>
    <path d="M 572 343 Q 594 321 618 294 Q 628 282 643 282 Q 652 282 657 293 Q 661 305 656 331 Q 652 349 627 364 Q 600 374 571 385 Q 558 389 552 387 Q 548 383 548 372 Q 551 362 572 343 Z" class="stroke8"/>
    
    
    
    
    
    
    
    </g>
</svg>