<svg version="1.1" viewBox="0 0 1024 1024" xmlns="http://www.w3.org/2000/svg">
  
  <g transform="scale(1, -1) translate(0, -900)">
    <style type="text/css">
        .stroke1 {fill: #808080;}
        .stroke2 {fill: #808079;}
        .stroke3 {fill: #808078;}
        .stroke4 {fill: #808077;}
        .stroke5 {fill: #808076;}
        .stroke6 {fill: #808075;}
        .stroke7 {fill: #808074;}
        .stroke8 {fill: #808073;}
        .stroke9 {fill: #808072;}
        .stroke10 {fill: #808071;}
        .stroke11 {fill: #808070;}
        .stroke12 {fill: #808069;}
        .stroke13 {fill: #808068;}
        .stroke14 {fill: #808067;}
        .stroke15 {fill: #808066;}
        .stroke16 {fill: #808065;}
        .stroke17 {fill: #808064;}
        .stroke18 {fill: #808063;}
        .stroke19 {fill: #808062;}
        .stroke20 {fill: #808061;}
        text {
            font-family: Helvetica;
            font-size: 50px;
            fill: #808060;
            paint-order: stroke;
            stroke: #000000;
            stroke-width: 4px;
            stroke-linecap: butt;
            stroke-linejoin: miter;
            font-weight: 800;
        }
    </style>

    <path d="M 160 535 Q 150 541 125 545 Q 112 549 109 544 Q 102 538 110 522 Q 140 452 152 338 Q 153 304 172 280 Q 188 258 195 273 Q 202 291 200 322 L 196 356 Q 178 479 178 508 C 177 527 177 527 160 535 Z" class="stroke1"/>
    <path d="M 340 382 Q 353 488 381 520 Q 403 548 378 561 Q 357 571 329 588 Q 308 598 265 571 Q 220 552 160 535 C 131 527 149 500 178 508 Q 199 514 268 533 Q 293 539 299 530 Q 309 523 302 481 Q 296 438 288 386 C 283 356 336 352 340 382 Z" class="stroke2"/>
    <path d="M 200 322 Q 207 322 216 325 Q 258 338 351 353 Q 361 354 362 364 Q 362 371 340 382 L 288 386 Q 285 387 282 385 Q 236 367 196 356 C 167 348 170 320 200 322 Z" class="stroke3"/>
    <path d="M 666 530 Q 723 542 881 563 Q 894 562 904 576 Q 905 591 879 603 Q 840 627 756 602 Q 675 584 668 580 L 610 567 Q 567 561 529 555 Q 480 551 425 542 Q 391 538 417 517 Q 456 487 491 495 Q 546 508 611 519 L 666 530 Z" class="stroke4"/>
    <path d="M 656 395 Q 660 464 666 530 L 668 580 Q 672 673 692 768 Q 696 780 673 797 Q 633 819 606 823 Q 587 827 578 817 Q 569 808 579 791 Q 604 755 605 731 Q 609 652 610 567 L 611 519 Q 611 455 608 384 C 607 354 654 365 656 395 Z" class="stroke5"/>
    <path d="M 608 384 Q 541 372 462 356 Q 443 353 458 339 Q 488 317 518 325 Q 629 361 790 362 L 792 362 Q 808 363 813 370 Q 817 380 802 392 Q 751 426 676 400 Q 666 399 656 395 L 608 384 Z" class="stroke6"/>
    <path d="M 502 245 Q 489 252 459 258 Q 446 262 441 257 Q 434 250 442 232 Q 469 171 481 72 Q 482 42 499 22 Q 517 -3 524 13 Q 528 25 530 44 L 528 84 Q 518 180 517 210 C 516 239 516 239 502 245 Z" class="stroke7"/>
    <path d="M 771 110 Q 798 194 834 219 Q 853 240 836 259 Q 818 274 761 301 Q 742 310 717 301 Q 630 267 502 245 C 472 240 488 204 517 210 L 700 248 Q 721 252 729 244 Q 739 234 737 214 Q 727 162 715 119 C 707 90 761 82 771 110 Z" class="stroke8"/>
    <path d="M 530 44 Q 534 44 542 46 Q 618 62 782 74 Q 794 75 795 85 Q 795 92 771 110 L 715 119 Q 712 120 709 119 Q 609 97 528 84 C 498 79 500 40 530 44 Z" class="stroke9"/>
    
    
    
    
    
    
    
    
    </g>
</svg>