<svg version="1.1" viewBox="0 0 1024 1024" xmlns="http://www.w3.org/2000/svg">
  
  <g transform="scale(1, -1) translate(0, -900)">
    <style type="text/css">
        .stroke1 {fill: #808080;}
        .stroke2 {fill: #808079;}
        .stroke3 {fill: #808078;}
        .stroke4 {fill: #808077;}
        .stroke5 {fill: #808076;}
        .stroke6 {fill: #808075;}
        .stroke7 {fill: #808074;}
        .stroke8 {fill: #808073;}
        .stroke9 {fill: #808072;}
        .stroke10 {fill: #808071;}
        .stroke11 {fill: #808070;}
        .stroke12 {fill: #808069;}
        .stroke13 {fill: #808068;}
        .stroke14 {fill: #808067;}
        .stroke15 {fill: #808066;}
        .stroke16 {fill: #808065;}
        .stroke17 {fill: #808064;}
        .stroke18 {fill: #808063;}
        .stroke19 {fill: #808062;}
        .stroke20 {fill: #808061;}
        text {
            font-family: Helvetica;
            font-size: 50px;
            fill: #808060;
            paint-order: stroke;
            stroke: #000000;
            stroke-width: 4px;
            stroke-linecap: butt;
            stroke-linejoin: miter;
            font-weight: 800;
        }
    </style>

    <path d="M 146 563 Q 134 569 108 574 Q 95 578 91 572 Q 84 566 93 549 Q 121 480 135 369 Q 138 335 155 313 Q 174 289 179 305 Q 186 324 184 361 L 179 395 Q 166 506 164 534 C 162 556 162 556 146 563 Z" class="stroke1"/>
    <path d="M 317 419 Q 332 510 357 539 Q 379 567 355 581 Q 288 614 284 614 Q 275 614 266 607 Q 229 580 146 563 C 117 557 135 525 164 534 Q 182 541 249 554 Q 270 558 275 550 Q 284 544 277 506 Q 273 466 264 419 C 258 390 312 389 317 419 Z" class="stroke2"/>
    <path d="M 184 361 Q 188 361 196 362 Q 239 374 334 385 Q 344 386 345 396 Q 345 403 317 419 C 300 429 293 427 264 419 Q 218 406 179 395 C 150 387 154 359 184 361 Z" class="stroke3"/>
    <path d="M 462 750 Q 489 704 525 678 Q 540 674 551 685 Q 558 698 559 715 Q 552 757 480 787 Q 464 794 454 792 Q 448 791 449 779 Q 449 766 462 750 Z" class="stroke4"/>
    <path d="M 688 800 Q 673 770 597 660 Q 588 641 607 646 Q 659 685 740 754 Q 759 775 785 788 Q 809 801 794 820 Q 778 838 747 852 Q 719 865 705 860 Q 690 857 697 842 Q 703 823 688 800 Z" class="stroke5"/>
    <path d="M 606 569 Q 664 582 726 595 Q 772 605 779 613 Q 788 620 783 629 Q 776 639 748 647 Q 721 653 609 615 Q 468 588 441 584 Q 405 578 431 562 Q 470 541 527 553 Q 534 556 545 555 L 606 569 Z" class="stroke6"/>
    <path d="M 627 416 Q 667 425 762 436 Q 772 435 781 447 Q 782 457 760 468 Q 733 489 638 461 Q 632 460 628 458 L 567 445 Q 468 432 436 427 Q 408 424 430 407 Q 460 386 503 393 Q 533 399 568 405 L 627 416 Z" class="stroke7"/>
    <path d="M 624 269 Q 721 282 867 282 Q 933 279 940 291 Q 944 303 928 317 Q 876 356 834 348 Q 755 332 624 309 L 567 300 Q 452 285 321 267 Q 299 264 315 247 Q 348 217 387 227 Q 471 251 566 262 L 624 269 Z" class="stroke8"/>
    <path d="M 569 -12 Q 573 -39 581 -49 Q 587 -56 595 -54 Q 610 -45 618 18 Q 618 31 624 269 L 624 309 Q 624 357 627 416 L 628 458 Q 628 482 638 527 Q 642 546 627 556 Q 615 563 606 569 C 581 585 532 582 545 555 Q 566 519 567 445 L 568 405 Q 568 357 567 300 L 566 262 Q 560 72 569 -12 Z" class="stroke9"/>
    
    
    
    
    
    
    
    
    </g>
</svg>