<svg version="1.1" viewBox="0 0 1024 1024" xmlns="http://www.w3.org/2000/svg">
  
  <g transform="scale(1, -1) translate(0, -900)">
    <style type="text/css">
        .stroke1 {fill: #808080;}
        .stroke2 {fill: #808079;}
        .stroke3 {fill: #808078;}
        .stroke4 {fill: #808077;}
        .stroke5 {fill: #808076;}
        .stroke6 {fill: #808075;}
        .stroke7 {fill: #808074;}
        .stroke8 {fill: #808073;}
        .stroke9 {fill: #808072;}
        .stroke10 {fill: #808071;}
        .stroke11 {fill: #808070;}
        .stroke12 {fill: #808069;}
        .stroke13 {fill: #808068;}
        .stroke14 {fill: #808067;}
        .stroke15 {fill: #808066;}
        .stroke16 {fill: #808065;}
        .stroke17 {fill: #808064;}
        .stroke18 {fill: #808063;}
        .stroke19 {fill: #808062;}
        .stroke20 {fill: #808061;}
        text {
            font-family: Helvetica;
            font-size: 50px;
            fill: #808060;
            paint-order: stroke;
            stroke: #000000;
            stroke-width: 4px;
            stroke-linecap: butt;
            stroke-linejoin: miter;
            font-weight: 800;
        }
    </style>

    <path d="M 92 575 Q 85 579 70 581 Q 58 585 55 580 Q 48 576 56 559 Q 81 496 92 395 Q 93 365 109 344 Q 125 322 131 337 Q 138 356 134 394 L 131 427 Q 121 527 120 548 Q 120 551 119 552 L 92 575 Z" class="stroke1"/>
    <path d="M 255 448 Q 268 536 292 563 Q 311 588 290 601 Q 271 610 245 625 Q 227 634 183 605 Q 146 590 92 575 C 63 567 91 541 119 552 Q 126 556 195 574 Q 214 580 220 572 Q 227 565 208 451 C 203 421 250 418 255 448 Z" class="stroke2"/>
    <path d="M 134 394 Q 164 404 267 419 Q 277 420 277 429 Q 277 436 255 448 L 208 451 Q 205 451 204 450 Q 164 437 131 427 C 102 418 105 385 134 394 Z" class="stroke3"/>
    <path d="M 365 436 Q 408 512 453 619 Q 472 674 493 703 Q 502 716 494 730 Q 487 743 454 762 Q 423 777 402 773 Q 383 769 395 746 Q 416 715 407 684 Q 383 582 338 484 Q 295 388 230 282 Q 221 269 220 262 Q 219 250 233 255 Q 263 267 343 398 L 365 436 Z" class="stroke4"/>
    <path d="M 343 398 Q 376 338 345 154 Q 321 69 362 27 Q 378 12 390 37 Q 403 76 403 119 Q 402 315 407 359 Q 414 384 405 394 Q 378 427 365 436 C 342 455 331 425 343 398 Z" class="stroke5"/>
    <path d="M 672 486 Q 702 495 825 512 Q 837 511 845 524 Q 846 537 822 547 Q 788 568 695 539 Q 683 536 672 532 L 628 522 Q 588 515 480 498 Q 450 494 473 476 Q 512 451 538 458 Q 571 467 612 474 L 672 486 Z" class="stroke6"/>
    <path d="M 671 458 Q 671 473 672 486 L 672 532 Q 672 676 691 748 Q 704 775 680 792 Q 664 804 634 821 Q 610 837 589 822 Q 585 818 591 801 Q 624 753 625 682 Q 625 603 628 522 L 624 380 Q 624 197 609 127 Q 590 49 610 -1 Q 611 -7 615 -14 Q 622 -32 630 -35 Q 637 -42 644 -33 Q 651 -29 662 -8 Q 672 17 670 49 Q 669 92 671 415 L 671 458 Z" class="stroke7"/>
    <path d="M 612 474 Q 573 341 429 186 Q 419 173 428 173 Q 437 170 447 177 Q 534 228 612 358 Q 616 370 624 380 C 700 492 621 503 612 474 Z" class="stroke8"/>
    <path d="M 671 415 Q 729 318 806 213 Q 822 194 851 193 Q 947 192 978 195 Q 987 196 988 201 Q 989 205 977 213 Q 842 279 778 342 Q 727 393 671 458 C 651 481 656 441 671 415 Z" class="stroke9"/>
    
    
    
    
    
    
    
    
    </g>
</svg>