<svg version="1.1" viewBox="0 0 1024 1024" xmlns="http://www.w3.org/2000/svg">
  
  <g transform="scale(1, -1) translate(0, -900)">
    <style type="text/css">
        .stroke1 {fill: #808080;}
        .stroke2 {fill: #808079;}
        .stroke3 {fill: #808078;}
        .stroke4 {fill: #808077;}
        .stroke5 {fill: #808076;}
        .stroke6 {fill: #808075;}
        .stroke7 {fill: #808074;}
        .stroke8 {fill: #808073;}
        .stroke9 {fill: #808072;}
        .stroke10 {fill: #808071;}
        .stroke11 {fill: #808070;}
        .stroke12 {fill: #808069;}
        .stroke13 {fill: #808068;}
        .stroke14 {fill: #808067;}
        .stroke15 {fill: #808066;}
        .stroke16 {fill: #808065;}
        .stroke17 {fill: #808064;}
        .stroke18 {fill: #808063;}
        .stroke19 {fill: #808062;}
        .stroke20 {fill: #808061;}
        text {
            font-family: Helvetica;
            font-size: 50px;
            fill: #808060;
            paint-order: stroke;
            stroke: #000000;
            stroke-width: 4px;
            stroke-linecap: butt;
            stroke-linejoin: miter;
            font-weight: 800;
        }
    </style>

    <path d="M 105 524 Q 95 528 74 533 Q 62 537 59 532 Q 52 528 60 511 Q 85 450 96 353 Q 97 325 113 304 Q 129 282 135 297 Q 141 310 140 334 L 137 368 Q 124 476 124 499 C 123 518 123 518 105 524 Z" class="stroke1"/>
    <path d="M 261 397 Q 277 479 301 504 Q 323 531 300 544 Q 281 554 253 570 Q 234 580 199 557 Q 175 545 105 524 C 76 515 95 492 124 499 Q 131 500 143 504 Q 176 511 202 518 Q 221 522 225 515 Q 234 508 226 472 Q 219 435 210 392 C 204 363 255 368 261 397 Z" class="stroke2"/>
    <path d="M 140 334 Q 168 343 282 361 Q 292 362 293 372 Q 293 379 261 397 C 248 404 239 401 210 392 Q 170 379 137 368 C 109 359 111 325 140 334 Z" class="stroke3"/>
    <path d="M 700 481 Q 718 487 840 514 Q 852 514 859 528 Q 859 541 835 549 Q 802 568 717 535 Q 710 534 704 530 L 655 515 Q 630 509 608 504 Q 578 498 546 490 Q 516 483 541 468 Q 575 446 615 457 Q 630 463 650 466 L 700 481 Z" class="stroke4"/>
    <path d="M 687 395 Q 694 438 700 481 L 704 530 Q 705 560 706 589 Q 710 701 722 743 Q 726 753 718 760 Q 702 775 667 787 Q 648 794 632 789 Q 614 782 629 766 Q 656 741 657 712 Q 661 603 655 515 L 650 466 Q 626 322 593 265 Q 590 264 590 261 Q 572 230 533 189 Q 523 182 521 178 Q 517 171 532 173 Q 559 173 618 232 Q 661 277 682 365 L 687 395 Z" class="stroke5"/>
    <path d="M 682 365 Q 748 293 825 192 Q 837 173 850 168 Q 857 167 865 174 Q 877 184 870 224 Q 861 281 687 395 C 662 412 662 387 682 365 Z" class="stroke6"/>
    <path d="M 397 667 Q 428 645 460 616 Q 473 604 490 606 Q 500 607 505 620 Q 509 636 498 665 Q 485 699 390 715 Q 374 718 368 715 Q 364 711 365 698 Q 369 688 397 667 Z" class="stroke7"/>
    <path d="M 460 166 Q 472 176 478 191 Q 490 233 448 297 Q 415 352 482 442 Q 485 449 491 454 Q 512 473 491 488 Q 470 503 434 515 Q 407 530 383 498 Q 322 453 299 453 Q 292 453 290 448 Q 289 444 297 439 Q 334 424 389 454 Q 398 458 407 447 Q 431 426 410 397 Q 367 346 407 284 Q 440 230 438 199 Q 437 180 431 167 C 422 138 440 144 460 166 Z" class="stroke8"/>
    <path d="M 431 167 Q 394 168 357 156 Q 329 146 287 143 Q 281 143 278 134 Q 275 127 283 118 Q 299 102 323 91 Q 333 85 351 99 Q 423 156 520 111 Q 557 96 609 69 Q 775 -18 844 1 Q 901 19 949 51 Q 971 64 949 65 Q 763 65 637 108 Q 588 124 531 147 Q 495 163 460 166 L 431 167 Z" class="stroke9"/>
    
    
    
    
    
    
    
    
    </g>
</svg>