<svg version="1.1" viewBox="0 0 1024 1024" xmlns="http://www.w3.org/2000/svg">
  
  <g transform="scale(1, -1) translate(0, -900)">
    <style type="text/css">
        .stroke1 {fill: #808080;}
        .stroke2 {fill: #808079;}
        .stroke3 {fill: #808078;}
        .stroke4 {fill: #808077;}
        .stroke5 {fill: #808076;}
        .stroke6 {fill: #808075;}
        .stroke7 {fill: #808074;}
        .stroke8 {fill: #808073;}
        .stroke9 {fill: #808072;}
        .stroke10 {fill: #808071;}
        .stroke11 {fill: #808070;}
        .stroke12 {fill: #808069;}
        .stroke13 {fill: #808068;}
        .stroke14 {fill: #808067;}
        .stroke15 {fill: #808066;}
        .stroke16 {fill: #808065;}
        .stroke17 {fill: #808064;}
        .stroke18 {fill: #808063;}
        .stroke19 {fill: #808062;}
        .stroke20 {fill: #808061;}
        text {
            font-family: Helvetica;
            font-size: 50px;
            fill: #808060;
            paint-order: stroke;
            stroke: #000000;
            stroke-width: 4px;
            stroke-linecap: butt;
            stroke-linejoin: miter;
            font-weight: 800;
        }
    </style>

    <path d="M 135 553 Q 122 560 92 566 Q 79 570 75 564 Q 68 558 77 541 Q 105 474 120 367 Q 121 334 139 313 Q 158 289 163 305 Q 169 320 168 345 L 164 383 Q 151 491 148 522 C 145 548 145 548 135 553 Z" class="stroke1"/>
    <path d="M 301 409 Q 322 499 348 527 Q 373 555 347 570 Q 325 582 296 601 Q 275 613 231 585 Q 189 569 135 553 C 106 544 119 513 148 522 Q 157 526 237 544 Q 259 550 265 540 Q 274 533 264 494 Q 257 455 246 410 C 239 381 294 380 301 409 Z" class="stroke2"/>
    <path d="M 168 345 Q 207 358 318 374 Q 328 377 330 386 Q 330 393 301 409 C 281 420 275 418 246 410 L 245 410 Q 202 395 164 383 C 135 374 139 336 168 345 Z" class="stroke3"/>
    <path d="M 606 702 Q 618 733 631 748 Q 638 754 635 765 Q 632 775 617 786 Q 601 798 579 801 Q 557 805 545 802 Q 536 798 540 786 Q 570 704 450 511 Q 443 501 435 489 Q 398 434 300 325 Q 293 318 303 317 Q 357 326 463 452 Q 535 552 591 670 L 606 702 Z" class="stroke4"/>
    <path d="M 591 670 Q 675 546 785 414 Q 803 392 834 392 Q 942 391 976 394 Q 986 395 988 401 Q 988 407 974 414 Q 826 468 761 532 Q 688 605 606 702 C 587 725 574 695 591 670 Z" class="stroke5"/>
    <path d="M 483 431 Q 446 422 474 407 Q 522 386 574 403 Q 617 415 662 426 Q 681 432 685 435 Q 694 444 688 452 Q 681 464 650 469 Q 619 473 589 458 Q 567 449 542 442 Q 515 435 483 431 Z" class="stroke6"/>
    <path d="M 576 281 Q 651 296 786 296 Q 804 297 808 305 Q 812 315 797 327 Q 743 364 684 343 Q 396 291 390 288 Q 371 287 386 271 Q 399 259 415 255 Q 434 251 449 255 Q 479 265 515 271 L 576 281 Z" class="stroke7"/>
    <path d="M 691 154 Q 489 121 487 121 Q 486 124 490 129 Q 560 223 588 247 Q 603 260 594 270 Q 588 277 576 281 C 550 295 517 301 515 271 Q 515 214 455 147 Q 437 126 401 108 Q 374 96 374 86 Q 373 68 383 49 Q 393 30 406 24 Q 413 20 424 26 Q 499 78 704 134 C 733 142 721 159 691 154 Z" class="stroke8"/>
    <path d="M 704 134 Q 761 32 772 26 Q 779 22 789 30 Q 805 40 802 85 Q 802 136 670 229 Q 663 236 658 224 Q 654 211 662 199 Q 675 178 691 154 L 704 134 Z" class="stroke9"/>
    
    
    
    
    
    
    
    
    </g>
</svg>