<svg version="1.1" viewBox="0 0 1024 1024" xmlns="http://www.w3.org/2000/svg">
  
  <g transform="scale(1, -1) translate(0, -900)">
    <style type="text/css">
        .stroke1 {fill: #808080;}
        .stroke2 {fill: #808079;}
        .stroke3 {fill: #808078;}
        .stroke4 {fill: #808077;}
        .stroke5 {fill: #808076;}
        .stroke6 {fill: #808075;}
        .stroke7 {fill: #808074;}
        .stroke8 {fill: #808073;}
        .stroke9 {fill: #808072;}
        .stroke10 {fill: #808071;}
        .stroke11 {fill: #808070;}
        .stroke12 {fill: #808069;}
        .stroke13 {fill: #808068;}
        .stroke14 {fill: #808067;}
        .stroke15 {fill: #808066;}
        .stroke16 {fill: #808065;}
        .stroke17 {fill: #808064;}
        .stroke18 {fill: #808063;}
        .stroke19 {fill: #808062;}
        .stroke20 {fill: #808061;}
        text {
            font-family: Helvetica;
            font-size: 50px;
            fill: #808060;
            paint-order: stroke;
            stroke: #000000;
            stroke-width: 4px;
            stroke-linecap: butt;
            stroke-linejoin: miter;
            font-weight: 800;
        }
    </style>

    <path d="M 395 638 Q 485 662 488 665 Q 495 672 491 681 Q 484 691 456 698 Q 426 702 399 691 L 351 674 Q 240 647 188 640 Q 154 633 179 618 Q 219 594 273 610 Q 310 619 350 627 L 395 638 Z" class="stroke1"/>
    <path d="M 394 552 Q 394 595 395 638 L 399 691 Q 403 739 413 767 Q 429 792 380 813 Q 350 829 334 824 Q 318 818 332 798 Q 353 771 351 674 L 350 627 Q 349 588 348 534 L 347 494 Q 346 448 346 389 Q 345 376 337 370 Q 330 363 310 367 Q 288 371 266 373 Q 236 382 239 373 Q 240 366 259 355 Q 317 315 333 291 Q 351 263 365 262 Q 378 262 390 292 Q 405 332 402 396 Q 398 457 395 518 L 394 552 Z" class="stroke2"/>
    <path d="M 395 518 Q 405 525 420 531 Q 448 546 469 563 Q 482 570 481 580 Q 475 586 464 582 Q 430 569 394 552 L 348 534 Q 260 500 160 462 Q 138 453 102 451 Q 89 448 89 438 Q 88 425 97 418 Q 121 403 155 387 Q 165 384 177 394 Q 213 425 347 494 L 395 518 Z" class="stroke3"/>
    <path d="M 611 651 Q 701 687 733 705 Q 772 727 807 738 Q 823 741 825 748 Q 826 758 815 767 Q 794 779 752 790 Q 737 796 725 793 Q 719 789 720 778 Q 721 748 601 667 C 576 650 583 640 611 651 Z" class="stroke4"/>
    <path d="M 598 559 Q 601 622 610 645 Q 611 649 611 651 C 613 659 613 659 601 667 Q 601 668 600 668 Q 558 695 532 682 Q 520 676 528 664 Q 559 625 544 502 Q 528 412 429 313 Q 419 303 430 303 Q 476 309 532 372 Q 560 403 572 437 Q 593 512 596 531 L 598 559 Z" class="stroke5"/>
    <path d="M 749 552 Q 761 556 905 579 Q 918 580 918 588 Q 919 598 897 614 Q 861 635 797 608 Q 746 592 706 582 Q 651 572 598 559 C 569 552 566 534 596 531 Q 600 531 606 530 Q 615 529 699 541 L 749 552 Z" class="stroke6"/>
    <path d="M 721 293 Q 725 271 731 263 Q 735 256 742 259 Q 749 262 754 275 Q 760 294 769 444 Q 769 489 776 517 Q 779 533 767 541 Q 757 548 749 552 C 723 567 686 568 699 541 Q 712 528 716 367 Q 717 312 721 293 Z" class="stroke7"/>
    <path d="M 355 201 Q 342 208 306 213 Q 293 216 289 210 Q 282 203 292 186 Q 323 125 344 23 Q 348 -8 366 -28 Q 385 -52 392 -34 Q 395 -24 395 -10 L 391 29 Q 373 131 369 166 C 365 196 365 197 355 201 Z" class="stroke8"/>
    <path d="M 684 55 Q 717 151 755 176 Q 774 195 758 217 Q 724 248 671 266 Q 656 269 638 263 Q 538 224 355 201 C 325 197 340 159 369 166 Q 375 170 608 211 Q 636 218 649 205 Q 659 195 655 172 Q 642 109 624 58 C 614 30 674 27 684 55 Z" class="stroke9"/>
    <path d="M 395 -10 Q 402 -10 413 -9 Q 506 6 704 10 Q 716 11 718 21 Q 719 30 686 55 Q 685 56 684 55 L 624 58 Q 494 36 391 29 C 361 27 365 -11 395 -10 Z" class="stroke10"/>
    
    
    
    
    
    
    
    
    
    </g>
</svg>