<svg version="1.1" viewBox="0 0 1024 1024" xmlns="http://www.w3.org/2000/svg">
  
  <g transform="scale(1, -1) translate(0, -900)">
    <style type="text/css">
        .stroke1 {fill: #808080;}
        .stroke2 {fill: #808079;}
        .stroke3 {fill: #808078;}
        .stroke4 {fill: #808077;}
        .stroke5 {fill: #808076;}
        .stroke6 {fill: #808075;}
        .stroke7 {fill: #808074;}
        .stroke8 {fill: #808073;}
        .stroke9 {fill: #808072;}
        .stroke10 {fill: #808071;}
        .stroke11 {fill: #808070;}
        .stroke12 {fill: #808069;}
        .stroke13 {fill: #808068;}
        .stroke14 {fill: #808067;}
        .stroke15 {fill: #808066;}
        .stroke16 {fill: #808065;}
        .stroke17 {fill: #808064;}
        .stroke18 {fill: #808063;}
        .stroke19 {fill: #808062;}
        .stroke20 {fill: #808061;}
        text {
            font-family: Helvetica;
            font-size: 50px;
            fill: #808060;
            paint-order: stroke;
            stroke: #000000;
            stroke-width: 4px;
            stroke-linecap: butt;
            stroke-linejoin: miter;
            font-weight: 800;
        }
    </style>

    <path d="M 122 534 Q 112 540 85 546 Q 72 550 69 545 Q 62 539 70 522 Q 98 449 109 332 Q 110 298 129 272 Q 145 250 151 265 Q 161 290 155 341 L 150 375 Q 137 481 137 508 C 136 527 136 527 122 534 Z" class="stroke1"/>
    <path d="M 285 396 Q 301 484 326 513 Q 348 538 324 552 Q 305 562 278 579 Q 259 589 241 578 Q 208 557 122 534 C 93 526 109 498 137 508 Q 138 511 219 528 Q 243 534 248 524 Q 257 517 250 479 Q 243 442 236 400 C 231 370 279 367 285 396 Z" class="stroke2"/>
    <path d="M 155 341 Q 162 341 172 343 Q 212 353 298 365 Q 308 366 309 376 Q 309 383 285 396 L 236 400 Q 232 400 230 399 Q 187 384 150 375 C 121 368 125 340 155 341 Z" class="stroke3"/>
    <path d="M 528 754 Q 564 729 601 699 Q 617 686 633 688 Q 645 689 649 704 Q 652 720 640 751 Q 633 773 595 787 Q 508 812 496 803 Q 492 799 494 785 Q 498 775 528 754 Z" class="stroke4"/>
    <path d="M 426 604 Q 408 634 388 646 Q 384 650 378 646 Q 374 642 373 630 Q 380 596 352 522 Q 342 503 345 484 Q 349 465 361 449 Q 370 439 375 447 Q 382 448 389 466 Q 393 473 402 503 Q 418 572 426 578 C 435 590 435 590 426 604 Z" class="stroke5"/>
    <path d="M 426 578 Q 447 566 489 575 Q 573 609 717 627 Q 739 630 749 630 Q 765 618 762 611 Q 749 568 735 522 L 737 521 Q 744 517 760 530 Q 812 569 855 583 Q 889 596 889 604 Q 888 614 815 661 Q 793 677 670 651 Q 667 651 502 618 Q 465 611 426 605 Q 425 605 426 604 C 397 598 398 588 426 578 Z" class="stroke6"/>
    <path d="M 599 438 Q 725 468 727 470 Q 734 477 731 485 Q 724 495 698 502 Q 673 508 597 482 Q 528 464 468 458 Q 434 452 459 437 Q 498 416 548 428 Q 549 429 554 428 L 599 438 Z" class="stroke7"/>
    <path d="M 608 123 Q 611 202 616 269 L 617 295 Q 618 358 624 389 Q 633 413 599 438 C 576 457 544 456 554 428 Q 563 413 565 307 Q 564 252 563 149 C 563 119 607 93 608 123 Z" class="stroke8"/>
    <path d="M 616 269 Q 646 262 722 277 Q 741 283 763 287 Q 779 291 781 294 Q 788 301 784 310 Q 777 320 749 324 Q 724 327 664 304 Q 663 304 617 295 C 588 289 587 275 616 269 Z" class="stroke9"/>
    <path d="M 445 230 Q 455 251 468 268 Q 478 281 463 295 Q 423 325 395 322 Q 383 319 387 305 Q 403 214 305 89 Q 278 62 253 28 Q 246 12 260 18 Q 279 22 302 42 Q 378 106 419 183 Q 423 192 428 200 L 445 230 Z" class="stroke10"/>
    <path d="M 428 200 Q 431 199 436 194 Q 587 61 749 -21 Q 773 -27 854 -10 Q 879 -4 908 2 Q 944 14 953 26 Q 957 39 937 39 Q 867 48 825 49 Q 714 58 610 122 Q 609 123 608 123 L 563 149 Q 505 185 445 230 C 421 248 405 219 428 200 Z" class="stroke11"/>
    
    
    
    
    
    
    
    
    
    
    </g>
</svg>