<svg version="1.1" viewBox="0 0 1024 1024" xmlns="http://www.w3.org/2000/svg">
  
  <g transform="scale(1, -1) translate(0, -900)">
    <style type="text/css">
        .stroke1 {fill: #808080;}
        .stroke2 {fill: #808079;}
        .stroke3 {fill: #808078;}
        .stroke4 {fill: #808077;}
        .stroke5 {fill: #808076;}
        .stroke6 {fill: #808075;}
        .stroke7 {fill: #808074;}
        .stroke8 {fill: #808073;}
        .stroke9 {fill: #808072;}
        .stroke10 {fill: #808071;}
        .stroke11 {fill: #808070;}
        .stroke12 {fill: #808069;}
        .stroke13 {fill: #808068;}
        .stroke14 {fill: #808067;}
        .stroke15 {fill: #808066;}
        .stroke16 {fill: #808065;}
        .stroke17 {fill: #808064;}
        .stroke18 {fill: #808063;}
        .stroke19 {fill: #808062;}
        .stroke20 {fill: #808061;}
        text {
            font-family: Helvetica;
            font-size: 50px;
            fill: #808060;
            paint-order: stroke;
            stroke: #000000;
            stroke-width: 4px;
            stroke-linecap: butt;
            stroke-linejoin: miter;
            font-weight: 800;
        }
    </style>

    <path d="M 158 576 Q 141 584 118 588 Q 104 590 102 585 Q 96 581 102 568 Q 119 521 124 501 Q 138 453 149 388 Q 149 357 169 333 Q 186 312 192 326 Q 198 343 196 368 L 192 402 Q 172 515 172 550 C 171 570 171 570 158 576 Z" class="stroke1"/>
    <path d="M 324 435 Q 339 531 365 561 Q 388 588 363 602 L 314 627 Q 292 637 269 621 Q 262 616 254 610 Q 190 586 158 576 C 129 567 143 544 172 550 Q 188 553 241 568 Q 280 582 287 572 Q 298 564 278 467 Q 276 453 270 429 C 263 400 319 405 324 435 Z" class="stroke2"/>
    <path d="M 196 368 Q 255 388 327 401 Q 349 405 351 411 Q 351 412 351 415 Q 351 421 324 435 C 310 443 298 439 270 429 L 192 402 C 164 392 168 358 196 368 Z" class="stroke3"/>
    <path d="M 511 754 Q 559 672 585 666 Q 600 662 610 680 Q 613 694 606 717 Q 598 737 572 751 Q 535 776 519 780 Q 510 784 508 772 Q 505 763 511 754 Z" class="stroke4"/>
    <path d="M 725 797 Q 705 757 643 668 Q 637 653 651 657 Q 692 687 757 748 Q 790 778 806 789 Q 825 802 813 815 Q 796 835 760 845 Q 745 850 737 847 Q 728 845 729 837 Q 733 821 732 816 Q 731 808 725 797 Z" class="stroke5"/>
    <path d="M 498 590 Q 474 600 455 598 Q 451 598 449 596 Q 444 592 451 576 Q 470 527 481 490 Q 492 451 501 402 Q 504 370 523 349 Q 539 327 544 342 Q 547 353 548 367 L 547 388 Q 547 396 527 491 Q 519 535 515 561 C 511 585 511 585 498 590 Z" class="stroke6"/>
    <path d="M 748 392 Q 783 347 800 361 Q 802 363 809 372 Q 823 400 846 529 Q 853 560 876 585 Q 888 597 877 610 Q 860 626 819 651 Q 804 657 790 655 L 727 639 L 711 635 Q 666 627 529 597 Q 510 592 498 590 C 469 584 486 552 515 561 Q 549 572 602 582 L 653 593 Q 764 620 782 604 Q 795 588 793 574 Q 774 436 760 420 C 748 393 748 393 748 392 Z" class="stroke7"/>
    <path d="M 679 484 Q 708 489 739 493 Q 762 496 750 510 Q 739 520 719 525 Q 704 527 684 521 L 628 509 Q 598 502 552 488 Q 541 486 549 478 Q 558 467 576 468 Q 580 468 583 468 L 629 476 L 679 484 Z" class="stroke8"/>
    <path d="M 677 383 Q 711 390 748 392 C 778 394 789 412 760 420 Q 733 429 678 415 L 629 404 Q 589 398 547 388 C 518 381 518 366 548 367 Q 564 367 629 376 L 677 383 Z" class="stroke9"/>
    <path d="M 678 239 Q 769 251 898 251 Q 959 248 967 260 Q 972 272 956 286 Q 902 325 860 318 Q 784 301 678 280 L 629 274 L 386 239 Q 365 237 380 220 Q 406 198 439 200 Q 453 201 515 215 Q 574 227 628 233 L 678 239 Z" class="stroke10"/>
    <path d="M 633 -25 Q 641 -65 657 -63 Q 684 -47 680 188 Q 679 202 678 239 L 678 280 Q 677 341 677 383 L 678 415 Q 678 430 679 468 L 679 484 L 684 521 Q 690 557 690 562 Q 688 572 672 582 Q 666 585 653 593 C 627 608 586 607 602 582 Q 613 570 623 541 Q 627 523 628 509 L 629 476 L 629 404 L 629 376 L 629 274 L 628 233 Q 628 12 633 -25 Z" class="stroke11"/>
    
    
    
    
    
    
    
    
    
    
    </g>
</svg>