<svg version="1.1" viewBox="0 0 1024 1024" xmlns="http://www.w3.org/2000/svg">
  
  <g transform="scale(1, -1) translate(0, -900)">
    <style type="text/css">
        .stroke1 {fill: #808080;}
        .stroke2 {fill: #808079;}
        .stroke3 {fill: #808078;}
        .stroke4 {fill: #808077;}
        .stroke5 {fill: #808076;}
        .stroke6 {fill: #808075;}
        .stroke7 {fill: #808074;}
        .stroke8 {fill: #808073;}
        .stroke9 {fill: #808072;}
        .stroke10 {fill: #808071;}
        .stroke11 {fill: #808070;}
        .stroke12 {fill: #808069;}
        .stroke13 {fill: #808068;}
        .stroke14 {fill: #808067;}
        .stroke15 {fill: #808066;}
        .stroke16 {fill: #808065;}
        .stroke17 {fill: #808064;}
        .stroke18 {fill: #808063;}
        .stroke19 {fill: #808062;}
        .stroke20 {fill: #808061;}
        text {
            font-family: Helvetica;
            font-size: 50px;
            fill: #808060;
            paint-order: stroke;
            stroke: #000000;
            stroke-width: 4px;
            stroke-linecap: butt;
            stroke-linejoin: miter;
            font-weight: 800;
        }
    </style>

    <path d="M 127 526 Q 117 532 90 537 Q 78 541 75 536 Q 68 530 76 515 Q 103 451 115 348 Q 116 317 133 296 Q 149 274 155 289 Q 161 305 159 330 L 156 363 Q 141 472 140 501 C 139 520 139 520 127 526 Z" class="stroke1"/>
    <path d="M 277 382 Q 293 476 318 505 Q 340 530 317 543 Q 298 553 271 570 Q 252 580 215 556 Q 176 540 127 526 C 98 518 112 492 140 501 Q 139 502 141 502 Q 181 512 214 521 Q 236 527 243 518 Q 252 511 244 469 Q 237 432 228 386 C 222 357 272 352 277 382 Z" class="stroke2"/>
    <path d="M 159 330 Q 213 343 287 355 Q 297 356 297 365 Q 297 372 277 382 L 228 386 Q 225 386 224 385 Q 187 372 156 363 C 127 355 130 323 159 330 Z" class="stroke3"/>
    <path d="M 374 677 Q 407 616 432 598 Q 445 591 456 602 Q 463 612 465 627 Q 462 675 394 708 Q 381 717 371 715 Q 365 715 364 704 Q 363 692 374 677 Z" class="stroke4"/>
    <path d="M 596 742 Q 586 714 520 594 Q 513 576 529 583 Q 569 622 645 708 Q 660 727 681 742 Q 699 755 685 770 Q 669 783 641 793 Q 616 800 604 796 Q 591 792 599 780 Q 606 762 596 742 Z" class="stroke5"/>
    <path d="M 494 506 Q 629 548 633 550 Q 640 557 636 566 Q 629 576 601 580 Q 573 584 547 570 Q 513 557 476 544 Q 434 531 385 523 Q 352 514 378 501 Q 402 489 445 492 L 494 506 Z" class="stroke6"/>
    <path d="M 500 315 Q 552 331 563 329 C 593 331 602 370 573 364 Q 534 357 502 347 L 452 333 Q 415 323 384 309 Q 374 308 376 320 Q 388 399 383 408 Q 371 423 352 434 Q 343 440 334 438 Q 325 435 331 419 Q 346 382 338 343 Q 332 307 317 292 Q 302 277 309 266 Q 319 254 333 246 Q 339 243 355 250 Q 376 272 448 296 L 500 315 Z" class="stroke7"/>
    <path d="M 563 329 Q 563 308 575 283 Q 581 270 591 278 Q 612 300 618 365 Q 630 428 638 438 Q 645 450 637 461 Q 622 474 597 490 Q 587 497 577 492 Q 571 489 572 478 Q 590 445 574 366 Q 573 366 573 364 L 563 329 Z" class="stroke8"/>
    <path d="M 448 296 Q 430 151 312 45 Q 299 33 295 28 Q 294 21 304 21 Q 341 21 401 83 Q 473 155 496 304 Q 496 310 500 315 C 502 320 499 317 502 347 Q 508 413 517 472 Q 524 491 504 501 Q 500 504 494 506 C 468 520 436 520 445 492 Q 463 452 452 333 L 448 296 Z" class="stroke9"/>
    <path d="M 728 335 Q 735 393 739 450 L 740 485 Q 741 492 741 498 Q 744 600 749 605 C 753 625 753 625 731 636 Q 686 661 671 653 Q 661 646 668 634 Q 683 613 691 558 Q 691 339 662 229 Q 640 147 564 1 Q 560 -6 559 -11 Q 558 -21 567 -18 Q 597 -12 666 118 Q 676 142 687 168 Q 709 232 723 304 L 728 335 Z" class="stroke10"/>
    <path d="M 749 605 Q 758 608 828 628 Q 847 634 853 624 Q 881 549 868 147 Q 864 74 857 63 Q 853 57 835 61 Q 810 68 783 77 Q 764 86 764 76 Q 816 22 845 -16 Q 858 -35 873 -40 Q 882 -44 891 -35 Q 933 13 933 67 Q 921 242 919 529 Q 916 587 930 613 Q 942 632 930 642 Q 908 661 871 675 Q 852 684 806 658 Q 776 646 731 636 C 702 629 720 596 749 605 Z" class="stroke11"/>
    <path d="M 739 450 Q 790 459 825 466 Q 847 473 838 485 Q 825 498 800 499 Q 776 500 740 485 C 712 474 709 445 739 450 Z" class="stroke12"/>
    <path d="M 723 304 Q 724 304 729 304 Q 787 314 831 319 Q 855 323 845 336 Q 835 351 809 354 Q 764 357 728 335 C 702 320 693 304 723 304 Z" class="stroke13"/>
    
    
    
    
    
    
    
    
    
    
    
    
    </g>
</svg>