<svg version="1.1" viewBox="0 0 1024 1024" xmlns="http://www.w3.org/2000/svg">
  
  <g transform="scale(1, -1) translate(0, -900)">
    <style type="text/css">
        .stroke1 {fill: #808080;}
        .stroke2 {fill: #808079;}
        .stroke3 {fill: #808078;}
        .stroke4 {fill: #808077;}
        .stroke5 {fill: #808076;}
        .stroke6 {fill: #808075;}
        .stroke7 {fill: #808074;}
        .stroke8 {fill: #808073;}
        .stroke9 {fill: #808072;}
        .stroke10 {fill: #808071;}
        .stroke11 {fill: #808070;}
        .stroke12 {fill: #808069;}
        .stroke13 {fill: #808068;}
        .stroke14 {fill: #808067;}
        .stroke15 {fill: #808066;}
        .stroke16 {fill: #808065;}
        .stroke17 {fill: #808064;}
        .stroke18 {fill: #808063;}
        .stroke19 {fill: #808062;}
        .stroke20 {fill: #808061;}
        text {
            font-family: Helvetica;
            font-size: 50px;
            fill: #808060;
            paint-order: stroke;
            stroke: #000000;
            stroke-width: 4px;
            stroke-linecap: butt;
            stroke-linejoin: miter;
            font-weight: 800;
        }
    </style>

    <path d="M 145 593 Q 133 599 105 606 Q 92 610 89 605 Q 82 599 90 582 Q 118 512 129 401 Q 130 367 148 344 Q 164 322 171 337 Q 178 356 176 393 L 172 426 Q 159 532 158 564 C 157 588 157 588 145 593 Z" class="stroke1"/>
    <path d="M 310 448 Q 329 542 355 570 Q 377 597 354 611 Q 333 623 305 640 Q 286 650 266 639 Q 226 612 145 593 C 116 586 130 553 158 564 Q 168 570 244 586 Q 269 592 275 582 Q 284 575 275 536 Q 268 497 258 452 C 252 423 304 419 310 448 Z" class="stroke2"/>
    <path d="M 176 393 Q 185 392 196 395 Q 236 405 322 417 Q 332 418 333 428 Q 333 435 310 448 L 258 452 Q 255 452 254 451 Q 208 435 172 426 C 143 419 146 394 176 393 Z" class="stroke3"/>
    <path d="M 496 770 Q 541 716 569 704 Q 582 701 591 713 Q 598 725 596 740 Q 584 783 510 805 L 509 806 Q 494 810 485 807 Q 479 806 481 795 Q 482 785 496 770 Z" class="stroke4"/>
    <path d="M 727 815 Q 720 800 662 715 Q 652 697 670 702 Q 713 727 736 745 Q 790 791 814 801 Q 835 813 823 830 Q 808 846 781 860 Q 756 872 743 868 Q 730 867 736 853 Q 740 834 727 815 Z" class="stroke5"/>
    <path d="M 614 618 Q 791 651 802 658 Q 811 665 806 673 Q 800 683 774 691 Q 749 697 651 668 Q 504 641 461 637 Q 427 633 451 617 Q 487 593 542 605 Q 555 609 572 610 L 614 618 Z" class="stroke6"/>
    <path d="M 610 494 Q 652 504 768 522 Q 778 521 786 532 Q 786 542 766 552 Q 733 570 654 544 Q 639 541 626 537 L 562 522 Q 460 509 451 506 Q 426 502 446 487 Q 476 466 504 472 Q 523 478 549 481 L 610 494 Z" class="stroke7"/>
    <path d="M 562 372 Q 634 393 880 393 Q 899 393 904 402 Q 908 412 892 426 Q 841 462 805 454 Q 733 438 607 417 Q 594 416 579 412 L 522 404 Q 446 394 364 382 Q 343 379 359 363 Q 372 350 390 345 Q 411 341 426 345 Q 463 355 504 362 L 562 372 Z" class="stroke8"/>
    <path d="M 506 262 Q 542 331 562 372 L 579 412 Q 589 439 599 464 Q 603 480 610 494 L 626 537 Q 630 547 637 558 Q 649 570 645 583 Q 635 601 614 618 C 592 638 569 640 572 610 Q 578 577 568 541 Q 564 532 562 522 L 549 481 Q 536 441 522 404 L 504 362 Q 503 361 502 356 Q 429 194 272 51 Q 266 47 263 41 Q 259 31 268 31 Q 299 28 399 122 Q 420 144 442 170 Q 470 206 496 247 L 506 262 Z" class="stroke9"/>
    <path d="M 640 238 Q 790 272 791 273 Q 800 280 795 288 Q 788 300 760 307 Q 741 313 647 286 Q 553 268 513 264 Q 507 264 506 262 C 485 257 485 257 496 247 Q 529 214 597 231 Q 600 232 605 231 L 640 238 Z" class="stroke10"/>
    <path d="M 655 80 Q 667 168 672 178 Q 681 194 673 205 Q 657 227 640 238 C 615 255 595 259 605 231 Q 614 216 607 75 C 606 45 651 50 655 80 Z" class="stroke11"/>
    <path d="M 607 75 Q 510 65 397 54 Q 376 53 391 35 Q 404 20 423 15 Q 444 8 460 13 Q 658 59 899 40 Q 899 41 901 40 Q 920 40 926 48 Q 932 60 916 74 Q 859 119 818 105 Q 755 95 655 80 L 607 75 Z" class="stroke12"/>
    
    
    
    
    
    
    
    
    
    
    
    </g>
</svg>