<svg version="1.1" viewBox="0 0 1024 1024" xmlns="http://www.w3.org/2000/svg">
  
  <g transform="scale(1, -1) translate(0, -900)">
    <style type="text/css">
        .stroke1 {fill: #808080;}
        .stroke2 {fill: #808079;}
        .stroke3 {fill: #808078;}
        .stroke4 {fill: #808077;}
        .stroke5 {fill: #808076;}
        .stroke6 {fill: #808075;}
        .stroke7 {fill: #808074;}
        .stroke8 {fill: #808073;}
        .stroke9 {fill: #808072;}
        .stroke10 {fill: #808071;}
        .stroke11 {fill: #808070;}
        .stroke12 {fill: #808069;}
        .stroke13 {fill: #808068;}
        .stroke14 {fill: #808067;}
        .stroke15 {fill: #808066;}
        .stroke16 {fill: #808065;}
        .stroke17 {fill: #808064;}
        .stroke18 {fill: #808063;}
        .stroke19 {fill: #808062;}
        .stroke20 {fill: #808061;}
        text {
            font-family: Helvetica;
            font-size: 50px;
            fill: #808060;
            paint-order: stroke;
            stroke: #000000;
            stroke-width: 4px;
            stroke-linecap: butt;
            stroke-linejoin: miter;
            font-weight: 800;
        }
    </style>

    <path d="M 154 546 Q 141 552 113 557 Q 100 561 97 555 Q 90 549 99 533 Q 130 461 146 346 Q 149 312 168 288 Q 186 266 191 281 Q 198 303 193 347 L 187 383 Q 169 488 167 518 C 165 542 165 542 154 546 Z" class="stroke1"/>
    <path d="M 329 414 Q 345 504 369 531 Q 391 559 366 572 Q 345 582 316 600 Q 295 612 256 583 Q 226 568 154 546 C 125 537 139 507 167 518 Q 170 521 256 544 Q 281 551 288 541 Q 295 535 290 498 Q 284 458 275 412 C 269 383 324 384 329 414 Z" class="stroke2"/>
    <path d="M 193 347 Q 241 362 347 381 Q 357 382 358 392 Q 358 399 329 414 C 311 424 304 421 275 412 Q 226 396 187 383 C 159 374 164 338 193 347 Z" class="stroke3"/>
    <path d="M 637 592 Q 650 724 666 798 Q 670 808 652 822 Q 621 840 598 844 Q 583 847 576 839 Q 569 832 576 819 Q 591 798 592 784 Q 599 691 597 582 C 597 552 634 562 637 592 Z" class="stroke4"/>
    <path d="M 458 676 Q 515 619 531 617 Q 541 617 545 629 Q 549 642 543 667 Q 539 685 512 698 Q 448 722 436 719 Q 432 715 432 704 Q 435 694 458 676 Z" class="stroke5"/>
    <path d="M 755 754 Q 739 730 691 670 Q 681 654 698 657 Q 740 675 794 710 Q 813 725 837 734 Q 858 744 848 761 Q 835 777 810 793 Q 788 806 775 804 Q 762 803 766 790 Q 769 772 755 754 Z" class="stroke6"/>
    <path d="M 508 565 Q 496 577 474 584 Q 465 588 454 585 Q 447 581 453 568 Q 454 561 458 553 Q 468 534 470 339 Q 467 314 460 283 Q 448 232 482 189 Q 492 176 502 188 Q 509 200 513 214 L 516 249 Q 516 289 516 331 L 516 355 Q 516 395 517 424 L 517 448 Q 517 529 521 535 C 524 552 524 552 508 565 Z" class="stroke7"/>
    <path d="M 732 236 Q 733 232 738 226 Q 753 198 762 198 Q 777 199 792 233 Q 808 258 805 280 Q 778 490 815 547 Q 825 563 817 574 Q 789 599 739 619 Q 723 623 699 615 Q 671 602 637 592 L 597 582 Q 548 572 508 565 C 478 560 491 533 521 535 Q 530 534 539 536 Q 710 582 721 565 Q 736 547 736 484 Q 740 316 732 276 L 732 236 Z" class="stroke8"/>
    <path d="M 517 424 Q 520 424 679 451 Q 703 455 693 468 Q 683 483 657 486 Q 630 487 517 448 C 489 438 487 420 517 424 Z" class="stroke9"/>
    <path d="M 516 331 Q 525 330 538 330 Q 626 343 690 352 Q 714 356 705 368 Q 695 383 669 388 Q 639 391 516 355 C 487 347 486 334 516 331 Z" class="stroke10"/>
    <path d="M 513 214 Q 519 213 527 214 Q 593 229 732 236 C 762 238 758 262 732 276 Q 719 286 687 279 Q 593 258 516 249 C 486 245 483 216 513 214 Z" class="stroke11"/>
    <path d="M 512 152 Q 494 89 338 -16 Q 316 -29 343 -29 Q 419 -29 535 71 Q 566 98 582 109 Q 594 119 592 129 Q 591 144 565 154 Q 537 167 524 166 Q 517 165 512 152 Z" class="stroke12"/>
    <path d="M 680 143 Q 737 85 804 2 Q 820 -20 835 -26 Q 845 -27 853 -17 Q 866 -4 856 43 Q 847 101 683 175 Q 674 182 671 169 Q 670 154 680 143 Z" class="stroke13"/>
    
    
    
    
    
    
    
    
    
    
    
    
    </g>
</svg>