<svg version="1.1" viewBox="0 0 1024 1024" xmlns="http://www.w3.org/2000/svg">
  
  <g transform="scale(1, -1) translate(0, -900)">
    <style type="text/css">
        .stroke1 {fill: #808080;}
        .stroke2 {fill: #808079;}
        .stroke3 {fill: #808078;}
        .stroke4 {fill: #808077;}
        .stroke5 {fill: #808076;}
        .stroke6 {fill: #808075;}
        .stroke7 {fill: #808074;}
        .stroke8 {fill: #808073;}
        .stroke9 {fill: #808072;}
        .stroke10 {fill: #808071;}
        .stroke11 {fill: #808070;}
        .stroke12 {fill: #808069;}
        .stroke13 {fill: #808068;}
        .stroke14 {fill: #808067;}
        .stroke15 {fill: #808066;}
        .stroke16 {fill: #808065;}
        .stroke17 {fill: #808064;}
        .stroke18 {fill: #808063;}
        .stroke19 {fill: #808062;}
        .stroke20 {fill: #808061;}
        text {
            font-family: Helvetica;
            font-size: 50px;
            fill: #808060;
            paint-order: stroke;
            stroke: #000000;
            stroke-width: 4px;
            stroke-linecap: butt;
            stroke-linejoin: miter;
            font-weight: 800;
        }
    </style>

    <path d="M 130 541 Q 120 547 90 553 Q 78 557 75 552 Q 68 546 76 531 Q 104 459 117 346 Q 118 312 137 288 Q 153 266 159 281 Q 168 303 161 350 L 156 384 Q 141 487 140 516 C 139 537 139 537 130 541 Z" class="stroke1"/>
    <path d="M 289 405 Q 302 499 325 528 Q 344 553 323 566 Q 304 575 278 590 Q 257 599 220 573 Q 172 555 130 541 C 102 531 111 507 140 516 Q 176 528 224 539 Q 246 546 251 537 Q 258 531 243 412 C 239 382 285 375 289 405 Z" class="stroke2"/>
    <path d="M 161 350 Q 168 350 176 352 Q 215 364 299 377 Q 309 378 310 388 Q 310 395 289 405 L 243 412 Q 236 412 230 409 Q 190 394 156 384 C 127 375 131 348 161 350 Z" class="stroke3"/>
    <path d="M 633 637 Q 643 697 652 752 Q 656 767 658 776 Q 662 785 664 791 Q 667 801 650 814 Q 620 832 599 837 Q 586 840 578 833 Q 571 826 578 813 Q 596 789 594 631 C 594 601 628 607 633 637 Z" class="stroke4"/>
    <path d="M 752 654 Q 688 648 633 637 L 594 631 Q 536 621 486 606 Q 468 602 473 623 Q 485 695 476 707 Q 463 723 443 735 Q 433 739 424 739 Q 414 735 421 718 Q 437 681 430 643 Q 426 607 411 592 Q 395 577 401 565 Q 410 552 425 542 Q 437 535 445 542 Q 473 575 652 610 Q 730 626 746 619 C 776 615 782 657 752 654 Z" class="stroke5"/>
    <path d="M 746 619 Q 749 594 757 577 Q 764 561 776 571 Q 801 592 810 670 Q 823 707 832 720 Q 841 733 832 747 Q 816 763 787 783 Q 775 790 764 785 Q 757 782 758 769 Q 767 760 768 708 Q 762 677 752 654 L 746 619 Z" class="stroke6"/>
    <path d="M 419 262 Q 423 296 427 338 L 429 365 Q 432 452 434 458 C 436 480 436 480 431 483 Q 428 486 423 488 Q 384 507 372 504 Q 357 501 370 484 Q 406 421 377 241 Q 368 202 351 156 Q 330 104 257 29 Q 247 19 244 14 Q 243 8 252 8 Q 312 14 383 131 Q 387 143 394 154 Q 407 191 415 237 L 419 262 Z" class="stroke7"/>
    <path d="M 434 458 Q 438 459 447 461 Q 475 468 502 476 Q 517 480 521 473 Q 527 451 529 262 Q 523 106 515 93 Q 512 90 456 102 Q 440 108 441 100 Q 481 61 506 32 Q 516 16 528 12 Q 535 9 542 17 Q 575 50 575 114 Q 559 423 582 462 Q 592 478 582 486 Q 566 501 536 513 Q 524 519 472 495 Q 456 491 431 483 C 402 474 405 451 434 458 Z" class="stroke8"/>
    <path d="M 427 338 Q 470 347 503 352 Q 521 356 513 366 Q 504 376 484 379 Q 460 380 429 365 C 402 352 398 332 427 338 Z" class="stroke9"/>
    <path d="M 415 237 Q 463 243 498 249 Q 516 253 509 262 Q 500 272 481 276 Q 445 279 419 262 C 394 246 385 233 415 237 Z" class="stroke10"/>
    <path d="M 694 266 Q 698 309 701 350 L 702 378 Q 702 471 707 481 C 709 496 709 496 686 508 Q 653 527 636 520 Q 627 513 633 503 Q 676 446 647 222 Q 643 203 639 182 Q 620 104 567 -2 Q 563 -6 563 -12 Q 562 -22 570 -19 Q 597 -13 651 100 Q 657 116 664 133 Q 680 182 690 240 L 694 266 Z" class="stroke11"/>
    <path d="M 707 481 Q 716 481 780 501 Q 799 507 804 496 Q 820 457 825 197 Q 825 74 816 58 Q 812 52 792 57 Q 765 61 739 67 Q 720 73 721 63 Q 778 20 810 -15 Q 823 -33 838 -37 Q 847 -40 855 -30 Q 892 21 889 69 Q 850 439 877 487 Q 889 506 877 515 Q 856 533 821 546 Q 803 553 788 545 Q 764 530 748 524 Q 727 517 686 508 C 657 501 678 475 707 481 Z" class="stroke12"/>
    <path d="M 701 350 Q 750 360 786 367 Q 805 371 797 382 Q 787 392 766 395 Q 732 398 702 378 C 677 362 672 344 701 350 Z" class="stroke13"/>
    <path d="M 690 240 Q 691 240 697 240 Q 749 247 788 250 Q 809 254 801 265 Q 791 278 769 282 Q 730 288 694 266 C 668 251 660 240 690 240 Z" class="stroke14"/>
    
    
    
    
    
    
    
    
    
    
    
    
    
    </g>
</svg>