<svg version="1.1" viewBox="0 0 1024 1024" xmlns="http://www.w3.org/2000/svg">
  
  <g transform="scale(1, -1) translate(0, -900)">
    <style type="text/css">
        .stroke1 {fill: #808080;}
        .stroke2 {fill: #808079;}
        .stroke3 {fill: #808078;}
        .stroke4 {fill: #808077;}
        .stroke5 {fill: #808076;}
        .stroke6 {fill: #808075;}
        .stroke7 {fill: #808074;}
        .stroke8 {fill: #808073;}
        .stroke9 {fill: #808072;}
        .stroke10 {fill: #808071;}
        .stroke11 {fill: #808070;}
        .stroke12 {fill: #808069;}
        .stroke13 {fill: #808068;}
        .stroke14 {fill: #808067;}
        .stroke15 {fill: #808066;}
        .stroke16 {fill: #808065;}
        .stroke17 {fill: #808064;}
        .stroke18 {fill: #808063;}
        .stroke19 {fill: #808062;}
        .stroke20 {fill: #808061;}
        text {
            font-family: Helvetica;
            font-size: 50px;
            fill: #808060;
            paint-order: stroke;
            stroke: #000000;
            stroke-width: 4px;
            stroke-linecap: butt;
            stroke-linejoin: miter;
            font-weight: 800;
        }
    </style>

    <path d="M 119 570 Q 109 576 83 581 Q 73 584 69 579 Q 63 575 70 560 Q 95 500 108 404 Q 109 374 126 355 Q 141 334 146 349 Q 150 362 151 384 L 147 414 Q 131 516 131 544 C 130 565 130 565 119 570 Z" class="stroke1"/>
    <path d="M 266 444 Q 278 529 301 556 Q 320 581 298 593 Q 279 603 253 617 Q 235 626 192 597 Q 158 582 119 570 C 90 561 104 532 131 544 Q 140 550 205 566 Q 224 570 228 564 Q 235 558 231 523 Q 225 486 218 440 C 213 410 262 414 266 444 Z" class="stroke2"/>
    <path d="M 151 384 Q 202 402 281 417 Q 290 418 290 427 Q 290 434 266 444 L 218 440 Q 179 427 147 414 C 119 403 123 374 151 384 Z" class="stroke3"/>
    <path d="M 385 753 Q 367 766 346 773 Q 339 774 334 768 Q 333 764 338 755 Q 368 650 341 552 Q 329 515 356 482 Q 365 472 372 483 Q 390 504 391 633 Q 392 712 395 733 C 396 745 396 745 385 753 Z" class="stroke4"/>
    <path d="M 502 555 Q 498 539 506 523 Q 516 502 522 503 Q 532 504 544 527 Q 554 545 554 559 Q 536 698 562 742 Q 571 754 565 763 Q 546 779 511 792 Q 501 796 484 789 Q 439 767 385 753 C 356 745 367 724 395 733 Q 488 764 499 758 Q 506 743 509 702 Q 509 578 502 555 Z" class="stroke5"/>
    <path d="M 430 645 Q 439 485 361 411 Q 337 396 333 388 Q 330 384 340 384 Q 379 384 433 449 Q 433 450 434 451 Q 464 508 466 619 Q 466 643 474 667 Q 477 674 471 679 Q 459 689 436 697 Q 423 703 412 699 Q 400 693 410 683 Q 429 665 430 645 Z" class="stroke6"/>
    <path d="M 482 476 Q 510 425 526 420 Q 536 419 542 429 Q 545 438 541 453 Q 537 465 521 474 Q 499 490 489 493 Q 482 496 481 488 Q 478 482 482 476 Z" class="stroke7"/>
    <path d="M 628 779 Q 622 785 607 790 Q 600 794 592 790 Q 588 787 591 778 Q 618 690 598 587 Q 577 568 609 517 Q 610 516 613 512 Q 620 502 629 511 Q 641 530 639 578 Q 640 735 642 746 Q 642 753 642 758 C 642 769 642 769 628 779 Z" class="stroke8"/>
    <path d="M 762 573 Q 756 555 767 537 Q 779 513 786 515 Q 798 516 810 542 Q 823 563 821 580 Q 802 724 829 766 Q 841 787 787 812 Q 780 816 774 818 Q 762 822 745 815 Q 717 802 684 790 Q 654 783 628 779 C 598 774 614 747 642 758 Q 645 762 698 773 Q 744 786 756 781 Q 763 765 766 724 Q 769 598 762 573 Z" class="stroke9"/>
    <path d="M 684 662 Q 688 497 609 421 Q 591 409 589 404 Q 586 400 596 400 Q 633 400 683 467 Q 683 468 684 469 Q 720 532 721 642 Q 722 661 729 682 Q 733 689 727 694 Q 715 704 692 713 Q 679 719 668 715 Q 656 711 666 700 Q 684 681 684 662 Z" class="stroke10"/>
    <path d="M 737 450 Q 803 389 809 387 Q 816 387 822 397 Q 826 407 821 429 Q 815 456 736 485 Q 724 488 720 486 Q 716 485 717 474 Q 718 467 737 450 Z" class="stroke11"/>
    <path d="M 528 298 Q 538 320 548 335 Q 557 342 554 351 Q 550 364 514 390 Q 504 399 494 396 Q 481 393 488 378 Q 497 354 475 292 L 462 260 Q 452 236 440 219 Q 431 203 434 191 Q 435 181 452 178 Q 518 160 572 126 L 613 101 Q 671 64 753 -3 Q 777 -22 793 -22 Q 812 -22 814 -4 Q 814 15 787 59 Q 775 86 644 139 L 599 158 Q 538 185 495 196 Q 474 200 486 220 Q 499 248 510 266 L 528 298 Z" class="stroke12"/>
    <path d="M 707 323 Q 700 330 675 339 Q 641 355 626 350 Q 613 344 624 327 Q 627 320 632 312 L 638 281 Q 638 221 599 158 L 572 126 Q 509 66 348 17 Q 320 10 350 3 Q 461 -1 574 68 Q 592 83 613 101 L 644 139 Q 677 191 699 274 Q 700 281 702 285 C 710 314 712 320 707 323 Z" class="stroke13"/>
    <path d="M 702 285 Q 772 288 939 289 Q 958 290 963 298 Q 967 308 952 322 Q 898 364 848 348 Q 788 338 707 323 L 632 312 Q 605 312 528 298 L 475 292 Q 366 280 244 265 Q 225 264 239 247 Q 252 234 270 228 Q 289 224 305 227 Q 378 248 462 260 L 510 266 Q 522 269 536 270 Q 581 277 638 281 L 702 285 Z" class="stroke14"/>
    
    
    
    
    
    
    
    
    
    
    
    
    
    </g>
</svg>