<svg version="1.1" viewBox="0 0 1024 1024" xmlns="http://www.w3.org/2000/svg">
  
  <g transform="scale(1, -1) translate(0, -900)">
    <style type="text/css">
        .stroke1 {fill: #808080;}
        .stroke2 {fill: #808079;}
        .stroke3 {fill: #808078;}
        .stroke4 {fill: #808077;}
        .stroke5 {fill: #808076;}
        .stroke6 {fill: #808075;}
        .stroke7 {fill: #808074;}
        .stroke8 {fill: #808073;}
        .stroke9 {fill: #808072;}
        .stroke10 {fill: #808071;}
        .stroke11 {fill: #808070;}
        .stroke12 {fill: #808069;}
        .stroke13 {fill: #808068;}
        .stroke14 {fill: #808067;}
        .stroke15 {fill: #808066;}
        .stroke16 {fill: #808065;}
        .stroke17 {fill: #808064;}
        .stroke18 {fill: #808063;}
        .stroke19 {fill: #808062;}
        .stroke20 {fill: #808061;}
        text {
            font-family: Helvetica;
            font-size: 50px;
            fill: #808060;
            paint-order: stroke;
            stroke: #000000;
            stroke-width: 4px;
            stroke-linecap: butt;
            stroke-linejoin: miter;
            font-weight: 800;
        }
    </style>

    <path d="M 128 553 Q 116 560 89 566 Q 77 570 73 566 Q 66 560 73 544 Q 100 465 107 341 Q 107 304 125 277 Q 141 253 147 269 Q 157 291 155 336 L 152 371 Q 140 489 140 523 C 140 548 140 548 128 553 Z" class="stroke1"/>
    <path d="M 291 384 Q 313 490 344 523 Q 369 551 343 566 Q 322 579 293 597 Q 274 609 226 583 Q 166 562 128 553 C 99 546 111 514 140 523 Q 155 529 229 543 Q 254 547 260 538 Q 269 531 259 487 Q 249 444 238 396 C 231 367 285 355 291 384 Z" class="stroke2"/>
    <path d="M 155 336 Q 165 335 179 338 Q 216 347 297 355 Q 307 356 309 366 Q 309 373 291 384 C 266 400 265 401 238 396 Q 231 395 225 393 Q 185 380 152 371 C 123 363 125 337 155 336 Z" class="stroke3"/>
    <path d="M 400 640 Q 428 586 445 581 Q 454 580 461 589 Q 468 601 468 627 Q 465 654 406 681 Q 394 687 388 687 Q 384 684 382 673 Q 382 663 400 640 Z" class="stroke4"/>
    <path d="M 536 630 Q 564 646 581 657 Q 627 688 635 691 Q 648 698 642 709 Q 633 721 616 730 Q 600 739 592 737 Q 585 736 587 727 Q 587 706 538 650 Q 537 650 537 648 C 520 623 518 619 536 630 Z" class="stroke5"/>
    <path d="M 524 578 Q 531 603 536 630 L 537 648 Q 537 705 544 733 Q 548 749 535 754 Q 490 775 472 765 Q 462 759 469 748 Q 497 715 489 617 Q 479 535 401 456 Q 391 446 402 446 Q 444 452 487 508 Q 508 532 520 565 L 524 578 Z" class="stroke6"/>
    <path d="M 520 565 Q 521 558 537 543 Q 550 527 563 508 Q 570 498 582 497 Q 589 496 594 505 Q 598 515 595 535 Q 594 548 576 559 Q 533 580 524 578 C 516 578 516 578 520 565 Z" class="stroke7"/>
    <path d="M 622 616 Q 653 576 665 573 Q 672 572 678 581 Q 682 591 679 613 Q 678 625 660 636 Q 615 657 608 654 Q 604 653 604 643 Q 605 634 622 616 Z" class="stroke8"/>
    <path d="M 765 658 Q 790 667 809 674 Q 857 696 880 701 Q 899 705 894 722 Q 885 738 866 754 Q 850 769 838 769 Q 828 770 829 758 Q 829 746 768 685 C 747 664 737 648 765 658 Z" class="stroke9"/>
    <path d="M 751 608 Q 752 615 756 621 Q 762 639 765 658 L 768 685 Q 768 691 769 696 Q 773 766 778 777 Q 784 795 768 800 Q 726 827 700 814 Q 690 808 696 795 Q 726 756 715 655 Q 699 559 641 510 Q 629 497 617 485 Q 607 475 618 475 Q 664 481 711 539 Q 736 566 747 595 L 751 608 Z" class="stroke10"/>
    <path d="M 747 595 Q 748 589 756 582 Q 793 551 836 506 Q 851 490 863 486 Q 870 486 877 494 Q 887 506 874 542 Q 867 573 809 593 Q 775 603 756 608 Q 752 611 751 608 C 742 608 742 608 747 595 Z" class="stroke11"/>
    <path d="M 388 403 Q 387 416 383 427 Q 379 434 373 436 Q 366 435 361 426 Q 340 365 308 308 Q 293 275 309 247 Q 316 231 336 244 Q 381 283 386 367 L 388 403 Z" class="stroke12"/>
    <path d="M 386 367 Q 407 361 464 374 Q 605 414 817 429 Q 842 432 853 429 Q 868 425 866 416 Q 866 413 828 346 Q 816 333 823 328 Q 832 324 850 333 Q 910 364 956 370 Q 993 376 994 386 Q 993 396 924 457 Q 897 481 839 468 Q 683 450 388 403 C 358 398 356 369 386 367 Z" class="stroke13"/>
    <path d="M 607 242 Q 656 254 700 257 Q 722 258 725 252 Q 735 237 729 200 Q 716 95 690 50 Q 671 17 642 23 Q 623 27 604 33 Q 579 42 596 16 Q 633 -27 649 -58 Q 668 -80 687 -63 Q 718 -42 740 -5 Q 767 40 789 178 Q 796 227 815 251 Q 828 264 822 274 Q 813 286 761 310 Q 740 320 721 306 Q 697 294 619 276 L 557 263 Q 490 251 431 248 Q 413 248 411 239 Q 410 232 432 220 Q 454 204 474 211 Q 511 221 546 228 L 607 242 Z" class="stroke14"/>
    <path d="M 546 228 Q 503 108 351 -31 Q 344 -38 350 -41 Q 383 -47 477 36 Q 552 102 607 242 L 619 276 Q 629 301 641 324 Q 648 334 642 343 Q 635 353 605 368 Q 583 378 573 376 Q 560 372 563 357 Q 570 312 557 263 L 546 228 Z" class="stroke15"/>
    
    
    
    
    
    
    
    
    
    
    
    
    
    
    </g>
</svg>