<svg version="1.1" viewBox="0 0 1024 1024" xmlns="http://www.w3.org/2000/svg">
  
  <g transform="scale(1, -1) translate(0, -900)">
    <style type="text/css">
        .stroke1 {fill: #808080;}
        .stroke2 {fill: #808079;}
        .stroke3 {fill: #808078;}
        .stroke4 {fill: #808077;}
        .stroke5 {fill: #808076;}
        .stroke6 {fill: #808075;}
        .stroke7 {fill: #808074;}
        .stroke8 {fill: #808073;}
        .stroke9 {fill: #808072;}
        .stroke10 {fill: #808071;}
        .stroke11 {fill: #808070;}
        .stroke12 {fill: #808069;}
        .stroke13 {fill: #808068;}
        .stroke14 {fill: #808067;}
        .stroke15 {fill: #808066;}
        .stroke16 {fill: #808065;}
        .stroke17 {fill: #808064;}
        .stroke18 {fill: #808063;}
        .stroke19 {fill: #808062;}
        .stroke20 {fill: #808061;}
        text {
            font-family: Helvetica;
            font-size: 50px;
            fill: #808060;
            paint-order: stroke;
            stroke: #000000;
            stroke-width: 4px;
            stroke-linecap: butt;
            stroke-linejoin: miter;
            font-weight: 800;
        }
    </style>

    <path d="M 265 724 Q 249 743 217 755 Q 205 761 192 756 Q 183 750 190 736 Q 214 646 216 629 Q 216 391 213 333 Q 212 323 211 309 Q 208 233 183 140 Q 165 74 207 22 Q 219 6 232 21 Q 242 34 245 48 L 251 90 Q 255 127 255 182 Q 267 650 271 682 C 273 712 273 717 265 724 Z" class="stroke1"/>
    <path d="M 709 72 Q 740 32 764 -6 Q 776 -25 788 -25 Q 807 -24 824 16 Q 843 59 839 114 Q 824 301 814 645 Q 813 684 832 711 Q 842 727 832 739 Q 808 764 743 792 Q 721 802 702 791 Q 606 757 461 739 Q 331 724 265 724 C 235 723 241 679 271 682 Q 302 682 646 732 Q 704 739 730 716 Q 775 662 759 159 Q 758 134 756 115 Q 752 97 735 100 C 715 77 708 73 709 72 Z" class="stroke2"/>
    <path d="M 516 497 Q 618 581 640 587 Q 658 591 652 607 Q 649 620 592 653 Q 576 662 557 654 Q 506 638 431 618 Q 412 612 363 615 Q 344 616 350 598 Q 356 588 372 577 Q 399 561 428 577 Q 539 623 556 612 Q 566 605 561 592 Q 536 552 504 504 C 487 479 493 478 516 497 Z" class="stroke3"/>
    <path d="M 551 433 Q 542 481 516 497 L 504 504 Q 500 508 493 510 Q 477 517 467 511 Q 457 507 468 495 Q 504 465 505 425 L 511 394 Q 523 300 497 242 Q 485 217 452 221 Q 424 224 399 227 Q 389 228 394 219 Q 398 213 415 204 Q 452 179 467 159 Q 476 144 490 147 Q 500 148 523 171 Q 569 226 557 398 L 551 433 Z" class="stroke4"/>
    <path d="M 557 398 Q 614 404 727 404 Q 743 405 747 412 Q 751 421 737 432 Q 689 468 637 450 Q 600 444 551 433 L 505 425 Q 502 425 286 394 Q 268 393 282 378 Q 309 354 339 363 Q 426 387 511 394 L 557 398 Z" class="stroke5"/>
    <path d="M 245 48 Q 249 47 259 48 Q 404 70 709 72 C 739 72 756 78 735 100 Q 728 109 713 120 Q 694 133 657 128 Q 431 95 251 90 C 221 89 215 48 245 48 Z" class="stroke6"/>
    
    
    
    
    
    </g>
</svg>