<svg version="1.1" viewBox="0 0 1024 1024" xmlns="http://www.w3.org/2000/svg">
  
  <g transform="scale(1, -1) translate(0, -900)">
    <style type="text/css">
        .stroke1 {fill: #808080;}
        .stroke2 {fill: #808079;}
        .stroke3 {fill: #808078;}
        .stroke4 {fill: #808077;}
        .stroke5 {fill: #808076;}
        .stroke6 {fill: #808075;}
        .stroke7 {fill: #808074;}
        .stroke8 {fill: #808073;}
        .stroke9 {fill: #808072;}
        .stroke10 {fill: #808071;}
        .stroke11 {fill: #808070;}
        .stroke12 {fill: #808069;}
        .stroke13 {fill: #808068;}
        .stroke14 {fill: #808067;}
        .stroke15 {fill: #808066;}
        .stroke16 {fill: #808065;}
        .stroke17 {fill: #808064;}
        .stroke18 {fill: #808063;}
        .stroke19 {fill: #808062;}
        .stroke20 {fill: #808061;}
        text {
            font-family: Helvetica;
            font-size: 50px;
            fill: #808060;
            paint-order: stroke;
            stroke: #000000;
            stroke-width: 4px;
            stroke-linecap: butt;
            stroke-linejoin: miter;
            font-weight: 800;
        }
    </style>

    <path d="M 261 727 Q 254 734 226 748 Q 214 754 201 749 Q 194 743 199 729 Q 223 641 225 608 Q 224 604 225 599 Q 237 319 189 148 Q 171 84 212 34 Q 224 19 236 33 Q 240 39 243 44 L 252 86 Q 259 123 259 189 Q 274 646 278 675 Q 279 679 279 684 C 282 713 282 713 261 727 Z" class="stroke1"/>
    <path d="M 717 76 Q 745 42 767 -3 Q 777 -27 793 -26 Q 806 -25 816 -3 Q 847 48 827 240 Q 809 654 828 685 Q 831 691 836 695 Q 846 708 847 718 Q 846 731 813 754 Q 755 796 712 781 Q 691 778 657 772 Q 504 759 320 730 Q 289 727 261 727 C 231 726 250 678 279 684 Q 516 730 706 738 Q 731 739 737 727 Q 759 700 761 415 Q 761 283 765 171 Q 768 128 754 96 C 746 67 699 100 717 76 Z" class="stroke2"/>
    <path d="M 603 511 Q 643 518 679 524 Q 689 523 698 535 Q 698 545 677 555 Q 643 574 602 558 L 556 546 Q 540 543 525 538 Q 518 538 339 503 Q 312 499 334 483 Q 367 459 392 467 Q 447 482 520 495 L 603 511 Z" class="stroke3"/>
    <path d="M 557 453 Q 557 267 544 258 Q 537 254 461 274 Q 451 277 451 271 Q 451 264 461 257 Q 527 197 549 161 Q 562 145 576 158 Q 606 188 608 266 Q 604 320 603 511 L 602 558 Q 602 600 612 628 Q 619 644 605 656 Q 581 675 554 684 Q 538 690 531 683 Q 525 677 535 663 Q 556 630 556 546 L 557 453 Z" class="stroke4"/>
    <path d="M 520 495 Q 463 371 303 239 Q 291 226 300 225 Q 309 221 321 227 Q 432 270 530 415 Q 549 442 557 453 C 597 509 542 542 520 495 Z" class="stroke5"/>
    <path d="M 243 44 Q 252 44 260 45 Q 408 70 717 76 C 747 77 771 77 754 96 Q 747 106 725 124 Q 706 137 668 131 Q 437 94 252 86 C 222 85 213 42 243 44 Z" class="stroke6"/>
    
    
    
    
    
    </g>
</svg>