<svg version="1.1" viewBox="0 0 1024 1024" xmlns="http://www.w3.org/2000/svg">
  
  <g transform="scale(1, -1) translate(0, -900)">
    <style type="text/css">
        .stroke1 {fill: #808080;}
        .stroke2 {fill: #808079;}
        .stroke3 {fill: #808078;}
        .stroke4 {fill: #808077;}
        .stroke5 {fill: #808076;}
        .stroke6 {fill: #808075;}
        .stroke7 {fill: #808074;}
        .stroke8 {fill: #808073;}
        .stroke9 {fill: #808072;}
        .stroke10 {fill: #808071;}
        .stroke11 {fill: #808070;}
        .stroke12 {fill: #808069;}
        .stroke13 {fill: #808068;}
        .stroke14 {fill: #808067;}
        .stroke15 {fill: #808066;}
        .stroke16 {fill: #808065;}
        .stroke17 {fill: #808064;}
        .stroke18 {fill: #808063;}
        .stroke19 {fill: #808062;}
        .stroke20 {fill: #808061;}
        text {
            font-family: Helvetica;
            font-size: 50px;
            fill: #808060;
            paint-order: stroke;
            stroke: #000000;
            stroke-width: 4px;
            stroke-linecap: butt;
            stroke-linejoin: miter;
            font-weight: 800;
        }
    </style>

    <path d="M 256 731 Q 241 746 217 755 Q 205 762 192 757 Q 182 751 189 736 Q 213 645 215 613 Q 215 283 177 145 Q 159 76 199 27 Q 211 11 224 25 Q 236 40 239 58 L 244 98 Q 248 132 249 185 Q 265 680 271 688 C 275 717 275 717 256 731 Z" class="stroke1"/>
    <path d="M 711 84 Q 736 54 763 4 Q 773 -18 789 -18 Q 802 -17 811 5 Q 842 59 820 247 Q 796 656 817 690 Q 820 696 824 700 Q 836 713 835 723 Q 835 736 801 759 Q 743 801 700 786 Q 679 782 645 776 Q 494 763 312 734 Q 284 731 256 731 C 226 730 242 682 271 688 Q 491 731 694 742 Q 719 743 725 730 Q 749 706 753 403 Q 757 220 759 178 Q 763 130 753 111 Q 749 98 744 97 C 732 69 694 108 711 84 Z" class="stroke2"/>
    <path d="M 471 484 Q 501 577 514 593 Q 527 612 520 624 Q 508 642 467 668 Q 449 680 434 673 Q 421 667 430 652 Q 448 621 421 476 L 412 442 Q 382 363 381 359 Q 372 337 392 322 Q 438 298 477 268 L 508 244 Q 542 217 588 174 Q 603 161 612 160 Q 619 160 625 170 Q 631 180 625 209 Q 618 239 541 279 L 503 299 Q 475 315 438 332 Q 422 339 422 357 Q 441 403 459 450 L 471 484 Z" class="stroke3"/>
    <path d="M 477 268 Q 423 229 337 195 Q 315 186 340 183 Q 356 182 388 191 Q 428 198 463 215 Q 488 225 508 244 L 541 279 Q 580 337 600 429 Q 603 447 608 454 Q 612 458 610 465 C 617 494 533 489 543 461 Q 559 427 533 354 Q 521 323 503 299 L 477 268 Z" class="stroke4"/>
    <path d="M 610 465 Q 643 468 719 468 Q 735 468 739 476 Q 743 485 730 496 Q 679 530 637 516 Q 577 503 484 486 Q 477 486 471 484 L 421 476 Q 348 466 274 454 Q 256 453 270 439 Q 282 427 296 423 Q 314 419 327 423 Q 367 436 412 442 L 459 450 Q 463 451 469 452 Q 500 458 543 461 L 610 465 Z" class="stroke5"/>
    <path d="M 239 58 Q 249 55 264 57 Q 406 79 711 84 C 741 85 751 85 744 97 Q 743 107 713 132 Q 694 145 657 139 Q 428 105 244 98 C 214 97 209 61 239 58 Z" class="stroke6"/>
    
    
    
    
    
    </g>
</svg>