<svg version="1.1" viewBox="0 0 1024 1024" xmlns="http://www.w3.org/2000/svg">
  
  <g transform="scale(1, -1) translate(0, -900)">
    <style type="text/css">
        .stroke1 {fill: #808080;}
        .stroke2 {fill: #808079;}
        .stroke3 {fill: #808078;}
        .stroke4 {fill: #808077;}
        .stroke5 {fill: #808076;}
        .stroke6 {fill: #808075;}
        .stroke7 {fill: #808074;}
        .stroke8 {fill: #808073;}
        .stroke9 {fill: #808072;}
        .stroke10 {fill: #808071;}
        .stroke11 {fill: #808070;}
        .stroke12 {fill: #808069;}
        .stroke13 {fill: #808068;}
        .stroke14 {fill: #808067;}
        .stroke15 {fill: #808066;}
        .stroke16 {fill: #808065;}
        .stroke17 {fill: #808064;}
        .stroke18 {fill: #808063;}
        .stroke19 {fill: #808062;}
        .stroke20 {fill: #808061;}
        text {
            font-family: Helvetica;
            font-size: 50px;
            fill: #808060;
            paint-order: stroke;
            stroke: #000000;
            stroke-width: 4px;
            stroke-linecap: butt;
            stroke-linejoin: miter;
            font-weight: 800;
        }
    </style>

    <path d="M 261 732 Q 249 747 217 759 Q 205 765 192 760 Q 183 754 190 740 Q 214 650 216 633 Q 216 395 213 337 Q 212 327 211 313 Q 208 237 183 144 Q 165 78 207 26 Q 219 10 232 25 Q 245 43 247 63 L 252 107 Q 253 135 259 376 L 260 381 Q 266 663 271 688 C 274 718 274 721 261 732 Z" class="stroke1"/>
    <path d="M 726 86 Q 747 62 774 10 Q 784 -15 801 -14 Q 816 -13 825 10 Q 858 65 837 254 Q 821 662 839 694 Q 842 700 846 704 Q 858 719 858 727 Q 857 740 823 764 Q 760 807 717 791 Q 696 788 664 783 Q 507 767 318 735 Q 288 731 261 732 C 231 731 242 681 271 688 Q 281 689 294 694 Q 309 698 434 719 Q 591 741 712 749 Q 737 752 744 738 Q 766 716 768 412 Q 769 231 772 188 Q 775 140 765 121 Q 761 108 754 107 L 753 107 C 739 80 717 99 726 86 Z" class="stroke2"/>
    <path d="M 259 376 Q 260 376 263 375 Q 326 387 422 495 Q 423 498 427 501 Q 455 537 499 602 L 510 620 Q 516 633 529 646 Q 536 650 534 660 Q 533 669 521 678 Q 494 702 465 698 Q 458 697 459 685 Q 474 631 374 496 Q 370 493 366 487 Q 336 451 261 382 Q 260 382 260 381 C 254 376 254 376 259 376 Z" class="stroke3"/>
    <path d="M 499 602 Q 506 578 629 447 Q 651 425 757 451 Q 763 454 764 457 Q 764 461 755 465 Q 646 507 586 554 Q 529 602 510 620 C 488 640 486 629 499 602 Z" class="stroke4"/>
    <path d="M 455 482 Q 492 436 512 437 Q 524 436 528 452 Q 529 462 520 479 Q 508 497 458 504 Q 451 505 450 495 Q 449 488 455 482 Z" class="stroke5"/>
    <path d="M 518 249 Q 620 342 645 352 Q 661 359 656 373 Q 652 386 594 416 Q 579 422 514 398 Q 421 365 366 363 Q 345 362 353 345 Q 360 335 377 325 Q 405 312 433 330 Q 547 382 560 373 Q 570 367 566 355 Q 538 310 506 256 C 491 230 496 229 518 249 Z" class="stroke6"/>
    <path d="M 506 256 Q 485 271 438 287 Q 431 291 430 282 Q 430 272 437 265 Q 477 228 526 174 Q 538 159 549 156 Q 555 155 561 162 Q 570 172 561 203 Q 552 233 518 249 L 506 256 Z" class="stroke7"/>
    <path d="M 247 63 Q 257 62 267 63 Q 414 85 726 86 C 756 86 771 86 753 107 Q 746 117 723 137 Q 704 150 664 145 Q 435 114 252 107 C 222 106 217 64 247 63 Z" class="stroke8"/>
    
    
    
    
    
    
    
    </g>
</svg>