<svg version="1.1" viewBox="0 0 1024 1024" xmlns="http://www.w3.org/2000/svg">
  
  <g transform="scale(1, -1) translate(0, -900)">
    <style type="text/css">
        .stroke1 {fill: #808080;}
        .stroke2 {fill: #808079;}
        .stroke3 {fill: #808078;}
        .stroke4 {fill: #808077;}
        .stroke5 {fill: #808076;}
        .stroke6 {fill: #808075;}
        .stroke7 {fill: #808074;}
        .stroke8 {fill: #808073;}
        .stroke9 {fill: #808072;}
        .stroke10 {fill: #808071;}
        .stroke11 {fill: #808070;}
        .stroke12 {fill: #808069;}
        .stroke13 {fill: #808068;}
        .stroke14 {fill: #808067;}
        .stroke15 {fill: #808066;}
        .stroke16 {fill: #808065;}
        .stroke17 {fill: #808064;}
        .stroke18 {fill: #808063;}
        .stroke19 {fill: #808062;}
        .stroke20 {fill: #808061;}
        text {
            font-family: Helvetica;
            font-size: 50px;
            fill: #808060;
            paint-order: stroke;
            stroke: #000000;
            stroke-width: 4px;
            stroke-linecap: butt;
            stroke-linejoin: miter;
            font-weight: 800;
        }
    </style>

    <path d="M 248 751 Q 236 763 213 771 Q 201 777 188 772 Q 179 766 186 751 Q 211 655 213 647 Q 228 479 206 249 Q 200 194 182 128 Q 164 62 207 10 Q 220 -6 232 9 Q 242 22 245 36 L 250 78 Q 254 117 254 175 Q 264 665 268 697 Q 268 701 268 704 C 269 734 270 736 248 751 Z" class="stroke1"/>
    <path d="M 750 68 Q 771 47 795 -3 Q 805 -27 821 -26 Q 834 -25 844 -3 Q 877 57 853 252 Q 829 693 853 728 Q 854 734 859 737 Q 871 752 870 760 Q 869 773 834 797 Q 779 834 764 831 Q 754 831 745 827 Q 727 820 672 810 Q 510 791 317 755 Q 281 751 248 751 C 218 750 239 697 268 704 Q 278 705 295 710 Q 310 716 440 739 Q 603 767 728 777 Q 755 778 761 765 Q 788 738 788 416 Q 791 220 793 175 Q 797 124 786 103 Q 782 90 776 90 C 764 63 740 82 750 68 Z" class="stroke2"/>
    <path d="M 542 580 L 650 604 Q 651 607 654 609 Q 655 619 635 627 Q 608 646 537 619 Q 536 619 534 618 L 499 608 Q 493 608 326 573 Q 302 569 322 555 Q 352 534 375 541 Q 432 557 506 572 L 542 580 Z" class="stroke3"/>
    <path d="M 331 473 Q 324 477 304 480 Q 295 481 292 478 Q 288 474 294 461 Q 315 418 328 348 Q 331 327 343 313 Q 356 297 361 308 Q 362 315 364 326 L 361 356 Q 349 429 348 450 C 347 466 347 466 331 473 Z" class="stroke4"/>
    <path d="M 469 372 Q 484 435 501 453 Q 520 474 501 485 Q 485 495 463 508 Q 447 517 432 507 Q 413 494 387 487 Q 365 480 331 473 C 302 467 319 443 348 450 Q 351 451 415 466 Q 434 469 438 462 Q 441 459 430 377 C 426 347 462 343 469 372 Z" class="stroke5"/>
    <path d="M 364 326 Q 436 341 479 345 Q 489 346 489 354 Q 489 360 469 372 L 430 377 Q 424 377 421 375 Q 387 363 361 356 C 332 348 335 320 364 326 Z" class="stroke6"/>
    <path d="M 287 244 Q 277 243 276 234 Q 275 224 282 218 Q 301 206 327 193 Q 334 192 344 198 Q 357 210 476 275 Q 492 282 502 293 Q 512 300 512 307 Q 508 311 498 308 Q 320 245 287 244 Z" class="stroke7"/>
    <path d="M 597 302 Q 643 220 698 179 Q 720 161 732 161 Q 744 160 750 169 Q 756 176 749 211 Q 743 268 747 311 Q 750 333 743 335 Q 737 336 729 316 Q 705 249 688 260 Q 670 272 623 341 L 600 388 Q 570 452 542 580 L 534 618 Q 531 648 530 673 Q 537 694 533 703 Q 529 710 509 720 Q 491 730 480 731 Q 471 730 470 730 Q 452 724 468 707 Q 480 704 499 608 L 506 572 Q 534 437 578 342 L 597 302 Z" class="stroke8"/>
    <path d="M 578 342 Q 545 284 448 174 Q 441 170 451 168 Q 511 183 593 296 Q 594 300 597 302 L 623 341 Q 651 387 690 466 Q 705 494 705 498 Q 702 507 690 516 Q 677 526 660 529 Q 641 533 632 529 Q 625 528 628 516 Q 640 476 600 388 L 578 342 Z" class="stroke9"/>
    <path d="M 638 678 Q 660 659 684 635 Q 696 625 708 625 Q 717 626 721 637 Q 725 649 718 673 Q 714 689 688 701 Q 631 725 616 719 Q 612 715 613 705 Q 616 695 638 678 Z" class="stroke10"/>
    <path d="M 245 36 Q 252 36 260 37 Q 417 62 750 68 C 780 69 795 69 776 90 Q 769 100 749 116 Q 730 129 693 123 Q 447 86 250 78 C 220 77 215 34 245 36 Z" class="stroke11"/>
    
    
    
    
    
    
    
    
    
    
    </g>
</svg>