<svg version="1.1" viewBox="0 0 1024 1024" xmlns="http://www.w3.org/2000/svg">
  
  <g transform="scale(1, -1) translate(0, -900)">
    <style type="text/css">
        .stroke1 {fill: #808080;}
        .stroke2 {fill: #808079;}
        .stroke3 {fill: #808078;}
        .stroke4 {fill: #808077;}
        .stroke5 {fill: #808076;}
        .stroke6 {fill: #808075;}
        .stroke7 {fill: #808074;}
        .stroke8 {fill: #808073;}
        .stroke9 {fill: #808072;}
        .stroke10 {fill: #808071;}
        .stroke11 {fill: #808070;}
        .stroke12 {fill: #808069;}
        .stroke13 {fill: #808068;}
        .stroke14 {fill: #808067;}
        .stroke15 {fill: #808066;}
        .stroke16 {fill: #808065;}
        .stroke17 {fill: #808064;}
        .stroke18 {fill: #808063;}
        .stroke19 {fill: #808062;}
        .stroke20 {fill: #808061;}
        text {
            font-family: Helvetica;
            font-size: 50px;
            fill: #808060;
            paint-order: stroke;
            stroke: #000000;
            stroke-width: 4px;
            stroke-linecap: butt;
            stroke-linejoin: miter;
            font-weight: 800;
        }
    </style>

    <path d="M 237 762 Q 225 774 201 783 Q 189 789 176 784 Q 167 778 174 763 Q 201 664 202 656 Q 211 536 199 303 Q 198 219 170 120 Q 152 54 195 2 Q 208 -14 220 1 Q 233 19 234 40 L 239 82 Q 242 119 242 171 Q 245 349 248 469 L 248 475 Q 252 691 256 709 Q 256 713 256 715 C 258 745 258 747 237 762 Z" class="stroke1"/>
    <path d="M 711 68 Q 739 40 769 -22 Q 779 -47 797 -46 Q 812 -45 822 -22 Q 855 38 835 241 Q 819 688 837 720 Q 840 726 845 730 Q 858 745 858 754 Q 857 769 821 793 Q 755 839 717 824 Q 695 820 653 812 Q 493 796 300 765 Q 269 761 237 762 C 207 761 227 708 256 715 Q 265 716 278 721 Q 294 725 422 746 Q 582 770 706 777 Q 733 778 739 765 Q 763 738 764 430 Q 764 262 767 167 Q 770 121 756 89 C 749 60 692 92 711 68 Z" class="stroke2"/>
    <path d="M 385 688 Q 375 692 342 694 Q 332 695 329 690 Q 323 684 333 671 Q 355 640 376 586 Q 380 570 392 560 Q 411 544 413 558 Q 414 562 414 565 L 411 592 Q 402 638 396 659 C 388 687 388 687 385 688 Z" class="stroke3"/>
    <path d="M 594 617 Q 615 650 639 662 Q 655 677 643 693 Q 630 706 587 730 Q 572 737 553 732 Q 499 708 385 688 C 355 683 367 652 396 659 Q 405 662 540 688 Q 556 692 563 685 Q 569 678 547 621 C 536 593 577 592 594 617 Z" class="stroke4"/>
    <path d="M 505 580 Q 545 587 602 592 Q 611 593 612 600 Q 612 606 594 617 C 577 628 576 628 547 621 Q 471 603 411 592 C 382 587 384 562 414 565 Q 417 565 422 566 Q 435 570 454 572 L 505 580 Z" class="stroke5"/>
    <path d="M 505 520 L 505 580 C 505 610 454 602 454 572 L 454 511 C 454 481 505 490 505 520 Z" class="stroke6"/>
    <path d="M 248 469 Q 263 454 280 448 Q 298 444 311 448 Q 483 503 722 504 L 724 504 Q 740 504 744 512 Q 748 522 734 532 Q 683 565 643 550 Q 588 537 505 520 L 454 511 Q 250 478 248 475 C 243 474 243 474 248 469 Z" class="stroke7"/>
    <path d="M 338 401 Q 329 405 311 409 Q 301 413 297 408 Q 291 404 298 388 Q 325 318 336 208 Q 337 174 354 151 Q 369 130 374 144 Q 375 151 378 159 L 379 188 Q 379 201 377 217 Q 359 344 358 375 C 357 394 357 394 338 401 Z" class="stroke8"/>
    <path d="M 595 180 Q 616 152 633 145 Q 643 138 657 160 Q 672 188 691 341 Q 698 369 719 394 Q 731 407 719 419 Q 704 435 663 457 Q 650 463 567 445 Q 564 445 432 419 Q 381 409 338 401 C 309 395 329 367 358 375 Q 437 399 581 420 Q 611 424 624 414 Q 640 404 638 381 Q 623 215 604 203 C 593 183 593 183 595 180 Z" class="stroke9"/>
    <path d="M 414 350 Q 407 353 390 355 Q 383 356 380 353 Q 376 349 382 338 Q 401 305 415 250 Q 418 234 428 223 Q 441 210 444 220 Q 447 227 445 241 L 440 266 Q 430 315 429 330 C 428 345 428 345 414 350 Z" class="stroke10"/>
    <path d="M 561 273 Q 574 312 588 324 Q 607 343 589 355 Q 574 365 553 379 Q 540 386 497 368 Q 460 356 414 350 C 384 346 399 328 429 330 Q 441 330 504 341 Q 523 344 527 337 Q 530 334 521 283 C 516 253 551 245 561 273 Z" class="stroke11"/>
    <path d="M 445 241 Q 449 241 454 242 Q 488 249 563 254 Q 570 255 572 261 Q 572 265 561 273 L 521 283 Q 517 283 516 282 Q 473 272 440 266 C 410 261 415 239 445 241 Z" class="stroke12"/>
    <path d="M 378 159 Q 387 158 397 160 Q 460 173 595 180 C 623 182 623 182 604 203 Q 600 209 590 215 Q 577 224 549 217 Q 455 198 379 188 C 349 184 348 160 378 159 Z" class="stroke13"/>
    <path d="M 234 40 Q 238 40 244 40 Q 395 64 711 68 C 741 68 773 69 756 89 Q 750 99 729 116 Q 710 129 673 123 Q 432 89 239 82 C 209 81 204 38 234 40 Z" class="stroke14"/>
    
    
    
    
    
    
    
    
    
    
    
    
    
    </g>
</svg>