<svg version="1.1" viewBox="0 0 1024 1024" xmlns="http://www.w3.org/2000/svg">
  
  <g transform="scale(1, -1) translate(0, -900)">
    <style type="text/css">
        .stroke1 {fill: #808080;}
        .stroke2 {fill: #808079;}
        .stroke3 {fill: #808078;}
        .stroke4 {fill: #808077;}
        .stroke5 {fill: #808076;}
        .stroke6 {fill: #808075;}
        .stroke7 {fill: #808074;}
        .stroke8 {fill: #808073;}
        .stroke9 {fill: #808072;}
        .stroke10 {fill: #808071;}
        .stroke11 {fill: #808070;}
        .stroke12 {fill: #808069;}
        .stroke13 {fill: #808068;}
        .stroke14 {fill: #808067;}
        .stroke15 {fill: #808066;}
        .stroke16 {fill: #808065;}
        .stroke17 {fill: #808064;}
        .stroke18 {fill: #808063;}
        .stroke19 {fill: #808062;}
        .stroke20 {fill: #808061;}
        text {
            font-family: Helvetica;
            font-size: 50px;
            fill: #808060;
            paint-order: stroke;
            stroke: #000000;
            stroke-width: 4px;
            stroke-linecap: butt;
            stroke-linejoin: miter;
            font-weight: 800;
        }
    </style>

    <path d="M 300 486 Q 390 513 393 515 Q 400 524 396 532 Q 389 544 358 549 Q 328 553 302 542 L 248 522 Q 200 507 128 495 Q 91 486 118 471 Q 154 452 228 469 Q 237 472 248 473 L 300 486 Z" class="stroke1"/>
    <path d="M 292 303 Q 296 397 300 486 L 302 542 Q 303 629 323 730 Q 327 742 305 758 Q 265 779 239 783 Q 220 786 212 776 Q 203 769 213 751 Q 241 711 242 683 Q 246 607 248 522 L 248 473 Q 248 382 245 280 C 244 250 291 273 292 303 Z" class="stroke2"/>
    <path d="M 245 280 Q 196 258 144 233 Q 125 223 93 219 Q 80 215 80 204 Q 80 189 91 183 Q 119 170 157 156 Q 169 155 179 165 Q 219 210 367 304 Q 389 322 414 341 Q 426 351 425 362 Q 418 366 406 361 Q 352 333 292 303 L 245 280 Z" class="stroke3"/>
    <path d="M 538 570 Q 539 574 544 578 Q 584 630 628 711 Q 647 748 663 767 Q 673 779 666 792 Q 662 805 630 827 Q 600 843 581 842 Q 562 838 571 816 Q 583 795 569 743 Q 530 632 437 493 Q 427 481 425 475 Q 422 462 437 466 Q 462 475 520 546 L 538 570 Z" class="stroke4"/>
    <path d="M 520 546 Q 559 530 588 539 Q 616 549 753 574 Q 775 578 785 568 Q 807 540 796 357 Q 786 206 746 103 Q 736 79 723 74 Q 716 70 615 92 Q 596 98 594 93 Q 591 86 608 73 Q 660 30 689 -9 Q 708 -39 725 -34 Q 740 -31 762 -4 Q 793 32 816 99 Q 841 181 864 452 Q 868 522 889 546 Q 907 567 884 585 Q 806 637 755 616 Q 653 592 538 570 C 509 564 491 554 520 546 Z" class="stroke5"/>
    <path d="M 520 408 Q 553 383 588 353 Q 600 343 613 345 Q 622 345 625 356 Q 629 369 620 393 Q 608 426 514 447 Q 501 448 496 447 Q 492 443 493 433 Q 497 424 520 408 Z" class="stroke6"/>
    <path d="M 421 207 Q 408 203 408 193 Q 409 180 419 173 Q 444 161 480 149 Q 490 148 501 159 Q 519 180 652 279 Q 671 292 683 306 Q 693 316 692 325 Q 686 329 675 325 Q 467 214 421 207 Z" class="stroke7"/>
    
    
    
    
    
    
    </g>
</svg>