<svg version="1.1" viewBox="0 0 1024 1024" xmlns="http://www.w3.org/2000/svg">
  
  <g transform="scale(1, -1) translate(0, -900)">
    <style type="text/css">
        .stroke1 {fill: #808080;}
        .stroke2 {fill: #808079;}
        .stroke3 {fill: #808078;}
        .stroke4 {fill: #808077;}
        .stroke5 {fill: #808076;}
        .stroke6 {fill: #808075;}
        .stroke7 {fill: #808074;}
        .stroke8 {fill: #808073;}
        .stroke9 {fill: #808072;}
        .stroke10 {fill: #808071;}
        .stroke11 {fill: #808070;}
        .stroke12 {fill: #808069;}
        .stroke13 {fill: #808068;}
        .stroke14 {fill: #808067;}
        .stroke15 {fill: #808066;}
        .stroke16 {fill: #808065;}
        .stroke17 {fill: #808064;}
        .stroke18 {fill: #808063;}
        .stroke19 {fill: #808062;}
        .stroke20 {fill: #808061;}
        text {
            font-family: Helvetica;
            font-size: 50px;
            fill: #808060;
            paint-order: stroke;
            stroke: #000000;
            stroke-width: 4px;
            stroke-linecap: butt;
            stroke-linejoin: miter;
            font-weight: 800;
        }
    </style>

    <path d="M 200 631 Q 233 574 226 433 Q 220 393 260 364 Q 273 357 275 367 Q 282 371 283 391 Q 286 407 279 462 Q 269 559 271 593 Q 274 609 267 621 Q 240 648 209 652 Q 205 655 200 648 Q 196 642 200 631 Z" class="stroke1"/>
    <path d="M 320 746 Q 369 679 370 383 Q 373 355 382 334 Q 389 324 398 330 Q 416 352 413 430 Q 413 710 414 717 Q 421 738 408 749 Q 392 762 362 774 Q 340 781 317 770 Q 305 760 320 746 Z" class="stroke2"/>
    <path d="M 670 493 Q 715 551 753 647 Q 765 675 784 695 Q 803 711 790 725 Q 777 737 744 747 Q 720 754 647 722 Q 509 692 507 691 Q 492 690 488 682 Q 484 675 503 667 Q 540 654 591 670 Q 661 695 675 696 Q 699 696 695 670 Q 676 586 632 523 L 605 493 Q 545 439 452 412 Q 439 408 450 399 Q 456 395 494 397 Q 558 403 635 458 L 670 493 Z" class="stroke3"/>
    <path d="M 635 458 Q 743 343 797 341 Q 870 342 932 353 Q 966 359 964 368 Q 961 377 872 399 Q 749 436 670 493 L 632 523 Q 601 550 570 581 Q 533 617 501 616 Q 483 616 481 611 Q 480 605 494 595 Q 530 574 605 493 L 635 458 Z" class="stroke4"/>
    <path d="M 532 197 Q 706 225 713 230 Q 723 237 718 247 Q 711 260 681 270 Q 650 279 616 268 Q 576 258 536 248 L 474 236 Q 398 226 313 223 Q 273 219 300 199 Q 348 169 404 180 Q 440 184 477 189 L 532 197 Z" class="stroke5"/>
    <path d="M 522 86 Q 526 144 532 197 L 536 248 Q 536 269 550 312 Q 553 322 533 337 Q 499 355 476 359 Q 460 363 452 354 Q 445 347 453 332 Q 469 310 474 236 L 477 189 Q 478 140 479 84 C 480 54 520 56 522 86 Z" class="stroke6"/>
    <path d="M 479 84 Q 326 74 152 61 Q 127 60 144 39 Q 160 21 181 14 Q 206 7 225 10 Q 459 61 871 36 Q 895 35 901 45 Q 908 58 890 76 Q 821 128 758 114 Q 665 102 522 86 L 479 84 Z" class="stroke7"/>
    
    
    
    
    
    
    </g>
</svg>