<svg version="1.1" viewBox="0 0 1024 1024" xmlns="http://www.w3.org/2000/svg">
  
  <g transform="scale(1, -1) translate(0, -900)">
    <style type="text/css">
        .stroke1 {fill: #808080;}
        .stroke2 {fill: #808079;}
        .stroke3 {fill: #808078;}
        .stroke4 {fill: #808077;}
        .stroke5 {fill: #808076;}
        .stroke6 {fill: #808075;}
        .stroke7 {fill: #808074;}
        .stroke8 {fill: #808073;}
        .stroke9 {fill: #808072;}
        .stroke10 {fill: #808071;}
        .stroke11 {fill: #808070;}
        .stroke12 {fill: #808069;}
        .stroke13 {fill: #808068;}
        .stroke14 {fill: #808067;}
        .stroke15 {fill: #808066;}
        .stroke16 {fill: #808065;}
        .stroke17 {fill: #808064;}
        .stroke18 {fill: #808063;}
        .stroke19 {fill: #808062;}
        .stroke20 {fill: #808061;}
        text {
            font-family: Helvetica;
            font-size: 50px;
            fill: #808060;
            paint-order: stroke;
            stroke: #000000;
            stroke-width: 4px;
            stroke-linecap: butt;
            stroke-linejoin: miter;
            font-weight: 800;
        }
    </style>

    <path d="M 403 506 Q 396 494 370 497 Q 339 501 303 500 Q 281 499 307 487 Q 370 465 428 435 Q 441 425 452 437 Q 462 447 467 469 Q 471 490 454 524 Q 435 561 403 589 Q 388 605 386 613 Q 382 625 392 637 Q 435 701 457 715 Q 476 728 466 740 Q 453 758 417 777 Q 398 784 383 773 Q 329 734 260 724 C 230 719 250 690 279 696 Q 316 703 356 719 Q 372 726 381 718 Q 385 714 379 698 Q 366 667 356 634 Q 344 613 368 581 Q 414 523 403 506 Z" class="stroke1"/>
    <path d="M 260 724 Q 239 740 213 748 Q 206 749 199 742 Q 196 738 203 727 Q 245 631 220 421 Q 214 388 204 352 Q 197 328 202 310 Q 211 279 222 268 Q 232 255 241 268 Q 265 298 267 464 Q 267 696 279 696 C 283 708 283 708 260 724 Z" class="stroke2"/>
    <path d="M 627 592 Q 642 632 656 683 Q 663 707 673 730 Q 679 740 672 750 Q 665 759 632 772 Q 610 779 600 777 Q 588 771 592 757 Q 625 607 446 403 Q 440 399 437 393 Q 431 386 438 383 Q 466 379 547 462 Q 587 502 610 552 Q 614 561 618 569 L 627 592 Z" class="stroke3"/>
    <path d="M 618 569 Q 682 481 754 398 Q 772 376 806 372 Q 867 365 932 372 Q 948 373 950 377 Q 953 383 940 389 Q 763 468 698 524 Q 665 554 627 592 C 606 613 600 593 618 569 Z" class="stroke4"/>
    <path d="M 535 213 Q 595 223 657 230 Q 715 240 725 247 Q 735 254 730 264 Q 724 277 695 286 Q 664 293 633 284 Q 585 271 538 260 L 481 250 Q 405 240 320 237 Q 283 233 308 214 Q 351 187 407 196 Q 444 202 483 206 L 535 213 Z" class="stroke5"/>
    <path d="M 524 79 Q 530 149 535 213 L 538 260 Q 538 269 546 310 Q 555 340 542 354 Q 539 357 537 358 Q 503 376 481 379 Q 465 382 458 374 Q 451 367 459 353 Q 477 329 477 312 Q 478 282 481 250 L 483 206 Q 484 145 484 75 C 484 45 521 49 524 79 Z" class="stroke6"/>
    <path d="M 484 75 Q 342 65 178 51 Q 156 50 172 31 Q 185 15 205 9 Q 227 2 245 6 Q 489 60 846 37 Q 868 36 873 45 Q 880 58 863 73 Q 808 118 768 110 Q 675 95 524 79 L 484 75 Z" class="stroke7"/>
    
    
    
    
    
    
    </g>
</svg>