<svg version="1.1" viewBox="0 0 1024 1024" xmlns="http://www.w3.org/2000/svg">
  
  <g transform="scale(1, -1) translate(0, -900)">
    <style type="text/css">
        .stroke1 {fill: #808080;}
        .stroke2 {fill: #808079;}
        .stroke3 {fill: #808078;}
        .stroke4 {fill: #808077;}
        .stroke5 {fill: #808076;}
        .stroke6 {fill: #808075;}
        .stroke7 {fill: #808074;}
        .stroke8 {fill: #808073;}
        .stroke9 {fill: #808072;}
        .stroke10 {fill: #808071;}
        .stroke11 {fill: #808070;}
        .stroke12 {fill: #808069;}
        .stroke13 {fill: #808068;}
        .stroke14 {fill: #808067;}
        .stroke15 {fill: #808066;}
        .stroke16 {fill: #808065;}
        .stroke17 {fill: #808064;}
        .stroke18 {fill: #808063;}
        .stroke19 {fill: #808062;}
        .stroke20 {fill: #808061;}
        text {
            font-family: Helvetica;
            font-size: 50px;
            fill: #808060;
            paint-order: stroke;
            stroke: #000000;
            stroke-width: 4px;
            stroke-linecap: butt;
            stroke-linejoin: miter;
            font-weight: 800;
        }
    </style>

    <path d="M 323 475 Q 428 509 429 511 Q 438 520 432 528 Q 425 540 394 545 Q 364 549 325 530 L 273 511 Q 183 484 131 475 Q 94 466 122 451 Q 164 433 242 453 Q 255 457 273 461 L 323 475 Z" class="stroke1"/>
    <path d="M 314 282 Q 318 382 323 475 L 325 530 Q 328 644 346 701 Q 349 714 328 731 Q 291 750 264 755 Q 246 758 238 749 Q 231 740 239 725 Q 267 685 267 658 Q 271 588 273 511 L 273 461 Q 273 367 270 265 C 269 235 313 252 314 282 Z" class="stroke2"/>
    <path d="M 270 265 Q 215 246 159 226 Q 140 219 107 217 Q 94 214 92 204 Q 91 191 101 182 Q 126 167 161 150 Q 171 149 184 157 Q 220 190 398 282 Q 423 295 441 310 Q 454 319 454 329 Q 445 335 314 282 L 270 265 Z" class="stroke3"/>
    <path d="M 663 316 Q 667 421 670 518 L 671 556 Q 674 694 692 758 Q 696 771 673 786 Q 633 807 607 810 Q 588 814 580 804 Q 573 795 581 779 Q 611 739 611 710 Q 624 523 617 305 C 616 275 662 286 663 316 Z" class="stroke4"/>
    <path d="M 670 518 Q 703 514 815 542 Q 873 558 877 561 Q 886 571 880 579 Q 871 592 840 597 Q 807 601 776 586 Q 749 576 721 567 Q 697 561 671 556 C 642 550 640 520 670 518 Z" class="stroke5"/>
    <path d="M 481 295 Q 457 301 453 295 Q 446 288 455 271 Q 489 198 507 80 Q 510 44 530 21 Q 549 -4 556 14 Q 563 33 560 64 L 554 102 Q 533 219 531 253 C 529 283 510 289 481 295 Z" class="stroke6"/>
    <path d="M 804 126 Q 829 229 866 259 Q 885 281 868 301 Q 849 316 789 343 Q 770 352 745 342 Q 703 327 663 316 L 617 305 Q 517 290 481 295 C 451 297 501 249 531 253 Q 547 254 726 284 Q 748 288 756 279 Q 768 269 766 246 Q 760 188 750 137 C 744 108 797 97 804 126 Z" class="stroke7"/>
    <path d="M 560 64 Q 569 63 581 65 Q 654 80 813 90 Q 826 91 827 101 Q 827 108 804 126 L 750 137 Q 746 138 741 136 Q 638 112 554 102 C 524 98 530 65 560 64 Z" class="stroke8"/>
    
    
    
    
    
    
    
    </g>
</svg>