<svg version="1.1" viewBox="0 0 1024 1024" xmlns="http://www.w3.org/2000/svg">
  
  <g transform="scale(1, -1) translate(0, -900)">
    <style type="text/css">
        .stroke1 {fill: #808080;}
        .stroke2 {fill: #808079;}
        .stroke3 {fill: #808078;}
        .stroke4 {fill: #808077;}
        .stroke5 {fill: #808076;}
        .stroke6 {fill: #808075;}
        .stroke7 {fill: #808074;}
        .stroke8 {fill: #808073;}
        .stroke9 {fill: #808072;}
        .stroke10 {fill: #808071;}
        .stroke11 {fill: #808070;}
        .stroke12 {fill: #808069;}
        .stroke13 {fill: #808068;}
        .stroke14 {fill: #808067;}
        .stroke15 {fill: #808066;}
        .stroke16 {fill: #808065;}
        .stroke17 {fill: #808064;}
        .stroke18 {fill: #808063;}
        .stroke19 {fill: #808062;}
        .stroke20 {fill: #808061;}
        text {
            font-family: Helvetica;
            font-size: 50px;
            fill: #808060;
            paint-order: stroke;
            stroke: #000000;
            stroke-width: 4px;
            stroke-linecap: butt;
            stroke-linejoin: miter;
            font-weight: 800;
        }
    </style>

    <path d="M 292 497 Q 379 528 381 529 Q 388 536 384 545 Q 377 555 347 560 Q 320 563 294 551 L 245 531 Q 125 500 118 497 Q 84 488 110 474 Q 153 455 205 472 Q 224 478 245 484 L 292 497 Z" class="stroke1"/>
    <path d="M 283 292 Q 287 398 292 497 L 294 551 Q 295 608 316 729 Q 320 739 299 755 Q 262 774 237 779 Q 221 783 212 773 Q 205 766 213 750 Q 241 708 241 680 Q 244 608 245 531 L 245 484 Q 244 384 239 273 C 238 243 282 262 283 292 Z" class="stroke2"/>
    <path d="M 239 273 Q 176 251 113 224 Q 94 215 61 213 Q 48 210 47 199 Q 46 186 57 178 Q 82 165 118 148 Q 128 147 140 156 Q 188 201 342 283 Q 390 314 393 318 Q 406 328 405 337 Q 399 341 387 338 Q 338 316 283 292 L 239 273 Z" class="stroke3"/>
    <path d="M 673 641 Q 707 648 838 663 Q 850 662 860 675 Q 861 688 837 700 Q 798 724 732 703 Q 575 670 413 651 Q 382 647 406 629 Q 442 599 472 607 Q 536 620 615 632 L 673 641 Z" class="stroke4"/>
    <path d="M 623 485 Q 696 612 697 613 Q 696 626 673 641 C 649 659 615 662 615 632 Q 618 596 588 524 L 568 484 Q 564 478 561 471 Q 506 371 337 211 Q 330 207 339 204 Q 394 213 513 331 Q 519 338 578 414 L 623 485 Z" class="stroke5"/>
    <path d="M 578 414 Q 578 318 561 244 Q 549 204 581 161 Q 582 160 584 158 Q 600 145 610 168 Q 623 202 622 243 Q 621 415 625 453 Q 632 477 623 485 L 588 524 Q 579 531 570 535 Q 561 536 558 531 Q 552 519 567 487 Q 567 486 568 484 L 578 414 Z" class="stroke6"/>
    <path d="M 703 402 Q 764 354 837 283 Q 853 264 869 261 Q 878 260 885 271 Q 895 284 881 327 Q 863 384 702 433 Q 692 437 691 425 Q 691 412 703 402 Z" class="stroke7"/>
    <path d="M 335 80 Q 311 79 328 59 Q 343 43 363 37 Q 385 30 404 35 Q 623 83 871 63 Q 872 64 874 63 Q 896 62 902 72 Q 909 85 891 100 Q 834 145 792 137 Q 671 115 335 80 Z" class="stroke8"/>
    
    
    
    
    
    
    
    </g>
</svg>