<svg version="1.1" viewBox="0 0 1024 1024" xmlns="http://www.w3.org/2000/svg">
  
  <g transform="scale(1, -1) translate(0, -900)">
    <style type="text/css">
        .stroke1 {fill: #808080;}
        .stroke2 {fill: #808079;}
        .stroke3 {fill: #808078;}
        .stroke4 {fill: #808077;}
        .stroke5 {fill: #808076;}
        .stroke6 {fill: #808075;}
        .stroke7 {fill: #808074;}
        .stroke8 {fill: #808073;}
        .stroke9 {fill: #808072;}
        .stroke10 {fill: #808071;}
        .stroke11 {fill: #808070;}
        .stroke12 {fill: #808069;}
        .stroke13 {fill: #808068;}
        .stroke14 {fill: #808067;}
        .stroke15 {fill: #808066;}
        .stroke16 {fill: #808065;}
        .stroke17 {fill: #808064;}
        .stroke18 {fill: #808063;}
        .stroke19 {fill: #808062;}
        .stroke20 {fill: #808061;}
        text {
            font-family: Helvetica;
            font-size: 50px;
            fill: #808060;
            paint-order: stroke;
            stroke: #000000;
            stroke-width: 4px;
            stroke-linecap: butt;
            stroke-linejoin: miter;
            font-weight: 800;
        }
    </style>

    <path d="M 551 638 Q 593 647 639 653 Q 700 665 709 673 Q 719 680 714 688 Q 708 700 680 709 Q 652 716 622 706 Q 564 688 504 674 L 443 661 Q 373 652 295 647 Q 259 643 284 625 Q 323 598 380 612 Q 402 616 429 619 L 488 628 Q 503 631 520 633 L 551 638 Z" class="stroke1"/>
    <path d="M 504 674 Q 511 701 535 755 Q 545 773 528 788 Q 488 822 473 824 Q 454 825 463 801 Q 473 765 443 661 L 429 619 Q 404 511 298 424 Q 270 403 227 380 Q 211 371 205 366 Q 202 360 213 357 Q 229 353 252 362 Q 297 377 326 395 Q 425 462 488 628 L 504 674 Z" class="stroke2"/>
    <path d="M 877 408 Q 861 448 850 516 Q 847 529 841 534 Q 834 538 831 520 Q 821 436 808 421 Q 784 393 686 388 Q 631 387 608 396 Q 587 405 583 419 Q 576 435 576 470 L 578 506 Q 582 552 593 575 Q 603 602 586 616 Q 565 631 551 638 C 525 653 508 661 520 633 Q 520 630 523 625 Q 541 592 537 544 Q 536 507 536 478 L 536 452 Q 539 394 570 371 Q 612 340 767 348 Q 836 352 863 368 Q 888 381 877 408 Z" class="stroke3"/>
    <path d="M 576 470 Q 580 473 588 476 Q 625 495 673 528 Q 692 544 708 550 Q 717 554 717 564 Q 717 573 705 594 Q 693 613 681 617 Q 669 621 668 605 Q 669 575 589 514 Q 583 511 578 506 L 536 478 Q 494 456 492 450 Q 488 444 496 442 Q 503 441 525 449 Q 529 450 536 452 L 576 470 Z" class="stroke4"/>
    <path d="M 705 744 Q 736 723 768 696 Q 781 686 793 688 Q 802 689 805 700 Q 808 713 799 736 Q 787 766 698 783 Q 685 784 680 783 Q 676 779 678 769 Q 682 760 705 744 Z" class="stroke5"/>
    <path d="M 532 204 Q 712 231 721 238 Q 731 245 726 255 Q 719 268 689 278 Q 658 287 624 277 Q 581 265 536 254 L 479 243 Q 478 244 476 243 Q 391 230 293 227 Q 253 223 280 203 Q 328 173 384 184 Q 432 191 481 196 L 532 204 Z" class="stroke6"/>
    <path d="M 520 81 Q 527 145 532 204 L 536 254 Q 539 296 552 329 Q 555 339 536 353 Q 503 372 481 376 Q 465 379 458 371 Q 451 364 458 350 Q 476 326 476 310 Q 477 279 479 243 L 481 196 Q 481 141 481 77 C 481 47 517 51 520 81 Z" class="stroke7"/>
    <path d="M 481 77 Q 331 67 160 56 Q 135 55 152 35 Q 189 -2 230 7 Q 470 58 892 34 Q 893 35 896 34 Q 918 33 925 42 Q 932 55 914 72 Q 851 123 783 109 Q 680 96 520 81 L 481 77 Z" class="stroke8"/>
    
    
    
    
    
    
    
    </g>
</svg>