<svg version="1.1" viewBox="0 0 1024 1024" xmlns="http://www.w3.org/2000/svg">
  
  <g transform="scale(1, -1) translate(0, -900)">
    <style type="text/css">
        .stroke1 {fill: #808080;}
        .stroke2 {fill: #808079;}
        .stroke3 {fill: #808078;}
        .stroke4 {fill: #808077;}
        .stroke5 {fill: #808076;}
        .stroke6 {fill: #808075;}
        .stroke7 {fill: #808074;}
        .stroke8 {fill: #808073;}
        .stroke9 {fill: #808072;}
        .stroke10 {fill: #808071;}
        .stroke11 {fill: #808070;}
        .stroke12 {fill: #808069;}
        .stroke13 {fill: #808068;}
        .stroke14 {fill: #808067;}
        .stroke15 {fill: #808066;}
        .stroke16 {fill: #808065;}
        .stroke17 {fill: #808064;}
        .stroke18 {fill: #808063;}
        .stroke19 {fill: #808062;}
        .stroke20 {fill: #808061;}
        text {
            font-family: Helvetica;
            font-size: 50px;
            fill: #808060;
            paint-order: stroke;
            stroke: #000000;
            stroke-width: 4px;
            stroke-linecap: butt;
            stroke-linejoin: miter;
            font-weight: 800;
        }
    </style>

    <path d="M 462 723 Q 504 730 539 736 Q 549 735 557 747 Q 558 757 537 767 Q 506 786 422 760 Q 407 757 393 753 Q 365 747 223 723 Q 196 719 218 703 Q 248 682 275 686 L 327 697 Q 370 707 422 717 L 462 723 Z" class="stroke1"/>
    <path d="M 484 566 Q 529 573 580 577 Q 596 578 597 586 Q 598 598 582 607 Q 558 619 485 605 L 441 597 Q 386 587 343 578 L 294 570 Q 165 552 102 548 Q 90 547 87 540 Q 83 530 97 519 Q 130 494 182 505 Q 240 523 291 533 L 340 543 Q 361 550 442 561 L 484 566 Z" class="stroke2"/>
    <path d="M 275 686 Q 299 649 294 570 L 291 533 Q 279 386 145 282 Q 135 272 146 271 Q 198 277 260 347 Q 294 383 309 421 Q 315 439 322 455 Q 337 497 340 543 L 343 578 Q 349 644 357 664 Q 363 680 348 687 Q 336 694 327 697 C 300 709 261 713 275 686 Z" class="stroke3"/>
    <path d="M 442 561 Q 442 536 429 441 Q 420 402 448 370 Q 457 360 466 370 Q 484 400 485 472 Q 482 506 484 566 L 485 605 Q 485 645 491 683 Q 498 704 479 714 Q 470 720 462 723 C 435 736 412 745 422 717 Q 423 716 424 711 Q 439 674 441 597 L 442 561 Z" class="stroke4"/>
    <path d="M 610 684 Q 634 630 618 498 Q 612 473 637 442 Q 646 432 654 442 Q 669 469 669 557 Q 669 624 674 658 Q 680 677 662 688 Q 649 697 633 704 Q 623 708 614 703 Q 607 697 610 684 Z" class="stroke5"/>
    <path d="M 775 757 Q 778 736 774 415 Q 774 402 766 397 Q 765 397 703 400 Q 672 410 675 401 Q 676 394 695 381 Q 750 338 765 313 Q 781 285 795 283 Q 808 282 821 314 Q 837 356 834 423 Q 810 682 839 781 Q 855 809 804 829 Q 773 845 755 840 Q 739 834 754 813 Q 773 788 775 757 Z" class="stroke6"/>
    <path d="M 540 203 Q 594 213 651 220 Q 700 229 709 235 Q 719 242 714 252 Q 708 265 679 273 Q 649 282 544 252 L 489 241 Q 423 232 348 229 Q 311 225 336 206 Q 381 178 435 189 Q 462 193 490 196 L 540 203 Z" class="stroke7"/>
    <path d="M 528 69 Q 534 139 540 203 L 544 252 Q 544 255 545 257 Q 552 300 559 319 Q 562 329 544 342 Q 513 360 490 364 Q 475 367 468 359 Q 461 352 468 339 Q 486 314 486 298 Q 487 271 489 241 L 490 196 Q 490 135 489 65 C 489 35 525 39 528 69 Z" class="stroke8"/>
    <path d="M 489 65 Q 350 52 187 36 Q 163 35 180 15 Q 195 -1 215 -7 Q 237 -14 256 -10 Q 469 42 805 33 Q 833 32 858 31 Q 880 30 886 40 Q 893 53 875 68 Q 818 113 776 105 Q 683 89 528 69 L 489 65 Z" class="stroke9"/>
    
    
    
    
    
    
    
    
    </g>
</svg>