<svg version="1.1" viewBox="0 0 1024 1024" xmlns="http://www.w3.org/2000/svg">
  
  <g transform="scale(1, -1) translate(0, -900)">
    <style type="text/css">
        .stroke1 {fill: #808080;}
        .stroke2 {fill: #808079;}
        .stroke3 {fill: #808078;}
        .stroke4 {fill: #808077;}
        .stroke5 {fill: #808076;}
        .stroke6 {fill: #808075;}
        .stroke7 {fill: #808074;}
        .stroke8 {fill: #808073;}
        .stroke9 {fill: #808072;}
        .stroke10 {fill: #808071;}
        .stroke11 {fill: #808070;}
        .stroke12 {fill: #808069;}
        .stroke13 {fill: #808068;}
        .stroke14 {fill: #808067;}
        .stroke15 {fill: #808066;}
        .stroke16 {fill: #808065;}
        .stroke17 {fill: #808064;}
        .stroke18 {fill: #808063;}
        .stroke19 {fill: #808062;}
        .stroke20 {fill: #808061;}
        text {
            font-family: Helvetica;
            font-size: 50px;
            fill: #808060;
            paint-order: stroke;
            stroke: #000000;
            stroke-width: 4px;
            stroke-linecap: butt;
            stroke-linejoin: miter;
            font-weight: 800;
        }
    </style>

    <path d="M 322 477 Q 343 484 367 490 Q 397 499 401 503 Q 410 512 404 520 Q 397 532 366 537 Q 344 540 325 534 L 273 514 Q 198 493 147 483 Q 110 474 138 459 Q 175 440 268 463 Q 269 464 273 464 L 322 477 Z" class="stroke1"/>
    <path d="M 314 301 Q 318 392 322 477 L 325 534 Q 326 616 346 719 Q 350 731 328 747 Q 291 766 264 771 Q 246 774 238 765 Q 231 756 239 741 Q 267 701 267 675 Q 271 599 273 514 L 273 464 Q 273 377 270 283 C 269 253 313 271 314 301 Z" class="stroke2"/>
    <path d="M 270 283 Q 213 262 153 238 Q 135 231 105 229 Q 92 226 91 216 Q 90 201 101 194 Q 126 181 162 164 Q 172 161 184 172 Q 208 196 372 291 Q 394 304 409 318 Q 422 328 421 337 Q 414 343 314 301 L 270 283 Z" class="stroke3"/>
    <path d="M 619 777 Q 582 741 473 684 Q 467 675 474 672 Q 511 672 635 720 Q 650 735 722 750 Q 740 751 743 759 Q 746 769 734 781 Q 674 820 640 817 Q 633 813 632 803 Q 633 788 619 777 Z" class="stroke4"/>
    <path d="M 450 574 Q 507 505 522 503 Q 531 502 537 513 Q 543 525 539 552 Q 536 571 509 588 Q 446 622 432 619 Q 428 616 427 605 Q 428 595 450 574 Z" class="stroke5"/>
    <path d="M 563 626 Q 590 578 612 565 Q 622 561 632 569 Q 639 578 639 591 Q 638 610 626 623 Q 623 626 574 655 Q 564 661 558 658 Q 554 658 553 648 Q 553 639 563 626 Z" class="stroke6"/>
    <path d="M 765 673 Q 749 649 683 578 Q 673 562 690 564 Q 736 586 763 603 Q 824 643 847 650 Q 869 659 859 676 Q 847 694 823 709 Q 801 725 788 722 Q 775 722 778 708 Q 781 690 765 673 Z" class="stroke7"/>
    <path d="M 732 386 Q 786 392 856 392 Q 910 392 917 403 Q 921 416 904 429 Q 844 471 776 449 Q 755 446 733 439 L 682 428 Q 660 427 637 420 Q 540 402 424 383 Q 402 380 419 363 Q 452 336 501 348 Q 574 369 684 382 L 732 386 Z" class="stroke8"/>
    <path d="M 647 85 Q 614 89 582 96 Q 570 97 571 90 Q 572 84 583 77 Q 655 22 681 -12 Q 696 -28 710 -14 Q 737 19 738 93 Q 734 145 732 386 L 733 439 Q 734 461 742 478 Q 749 496 734 508 Q 709 527 681 537 Q 663 543 656 536 Q 650 529 661 515 Q 682 479 682 428 L 684 382 Q 690 105 669 88 Q 662 81 647 85 Z" class="stroke9"/>
    <path d="M 501 257 Q 523 235 547 209 Q 560 196 576 195 Q 586 196 593 209 Q 597 224 590 253 Q 586 272 557 286 Q 487 313 476 307 Q 472 303 472 290 Q 475 280 501 257 Z" class="stroke10"/>
    
    
    
    
    
    
    
    
    
    </g>
</svg>