<svg version="1.1" viewBox="0 0 1024 1024" xmlns="http://www.w3.org/2000/svg">
  
  <g transform="scale(1, -1) translate(0, -900)">
    <style type="text/css">
        .stroke1 {fill: #808080;}
        .stroke2 {fill: #808079;}
        .stroke3 {fill: #808078;}
        .stroke4 {fill: #808077;}
        .stroke5 {fill: #808076;}
        .stroke6 {fill: #808075;}
        .stroke7 {fill: #808074;}
        .stroke8 {fill: #808073;}
        .stroke9 {fill: #808072;}
        .stroke10 {fill: #808071;}
        .stroke11 {fill: #808070;}
        .stroke12 {fill: #808069;}
        .stroke13 {fill: #808068;}
        .stroke14 {fill: #808067;}
        .stroke15 {fill: #808066;}
        .stroke16 {fill: #808065;}
        .stroke17 {fill: #808064;}
        .stroke18 {fill: #808063;}
        .stroke19 {fill: #808062;}
        .stroke20 {fill: #808061;}
        text {
            font-family: Helvetica;
            font-size: 50px;
            fill: #808060;
            paint-order: stroke;
            stroke: #000000;
            stroke-width: 4px;
            stroke-linecap: butt;
            stroke-linejoin: miter;
            font-weight: 800;
        }
    </style>

    <path d="M 303 530 Q 322 537 345 542 Q 373 551 377 555 Q 386 564 380 572 Q 373 584 342 589 Q 323 592 305 587 L 253 566 Q 178 544 131 535 Q 94 525 122 511 Q 164 493 254 517 L 303 530 Z" class="stroke1"/>
    <path d="M 295 335 Q 299 435 303 530 L 305 587 Q 305 644 326 759 Q 330 771 308 787 Q 271 806 244 811 Q 226 814 218 805 Q 211 796 219 780 Q 247 740 248 711 Q 252 641 253 566 L 254 517 Q 254 421 250 316 C 249 286 294 305 295 335 Z" class="stroke2"/>
    <path d="M 250 316 Q 186 291 118 261 Q 99 252 64 249 Q 51 246 49 234 Q 48 219 60 212 Q 88 196 127 180 Q 139 179 151 189 Q 190 228 363 329 Q 388 345 405 361 Q 418 371 418 382 Q 411 386 398 383 Q 349 361 295 335 L 250 316 Z" class="stroke3"/>
    <path d="M 482 566 Q 536 632 590 720 Q 611 759 629 778 Q 639 788 633 803 Q 629 816 598 839 Q 570 858 549 856 Q 530 855 539 831 Q 552 806 543 784 Q 518 709 477 639 Q 437 572 382 496 Q 372 486 370 479 Q 366 467 381 470 Q 394 473 454 532 L 482 566 Z" class="stroke4"/>
    <path d="M 522 170 Q 525 411 535 473 Q 542 503 529 517 Q 493 559 482 566 C 460 586 444 560 454 532 Q 481 456 484 448 Q 484 441 485 433 Q 485 220 447 71 Q 434 25 469 -27 Q 470 -31 475 -35 Q 494 -53 507 -23 Q 520 16 522 139 L 522 170 Z" class="stroke5"/>
    <path d="M 697 730 Q 715 712 733 690 Q 746 675 763 675 Q 775 675 781 689 Q 787 704 779 736 Q 775 752 749 764 Q 688 789 672 783 Q 666 779 667 766 Q 671 754 697 730 Z" class="stroke6"/>
    <path d="M 717 572 Q 868 611 872 613 Q 879 620 875 629 Q 868 639 840 646 Q 819 650 718 618 Q 646 600 584 592 Q 550 585 575 570 Q 614 546 671 562 L 717 572 Z" class="stroke7"/>
    <path d="M 738 442 Q 790 451 837 457 Q 862 461 853 475 Q 841 491 813 497 Q 788 501 741 489 Q 740 489 739 488 L 686 473 Q 638 463 596 451 Q 577 447 600 430 Q 606 426 686 434 L 738 442 Z" class="stroke8"/>
    <path d="M 734 320 Q 791 330 841 337 Q 866 341 857 355 Q 845 371 817 377 Q 787 383 735 365 L 686 352 Q 631 339 584 327 Q 565 323 588 306 Q 601 297 626 302 Q 654 308 686 312 L 734 320 Z" class="stroke9"/>
    <path d="M 731 203 Q 732 264 734 320 L 735 365 Q 736 405 738 442 L 739 488 Q 739 491 740 493 Q 743 547 740 553 Q 730 563 717 572 C 693 590 660 590 671 562 Q 680 547 686 473 L 686 434 Q 686 401 686 352 L 686 312 Q 686 263 686 196 C 686 166 730 173 731 203 Z" class="stroke10"/>
    <path d="M 686 196 Q 608 186 522 170 C 492 165 494 149 522 139 Q 552 127 574 133 Q 706 169 936 169 Q 955 169 960 178 Q 964 188 949 202 Q 894 241 840 225 Q 795 216 731 203 L 686 196 Z" class="stroke11"/>
    
    
    
    
    
    
    
    
    
    
    </g>
</svg>