<svg version="1.1" viewBox="0 0 1024 1024" xmlns="http://www.w3.org/2000/svg">
  
  <g transform="scale(1, -1) translate(0, -900)">
    <style type="text/css">
        .stroke1 {fill: #808080;}
        .stroke2 {fill: #808079;}
        .stroke3 {fill: #808078;}
        .stroke4 {fill: #808077;}
        .stroke5 {fill: #808076;}
        .stroke6 {fill: #808075;}
        .stroke7 {fill: #808074;}
        .stroke8 {fill: #808073;}
        .stroke9 {fill: #808072;}
        .stroke10 {fill: #808071;}
        .stroke11 {fill: #808070;}
        .stroke12 {fill: #808069;}
        .stroke13 {fill: #808068;}
        .stroke14 {fill: #808067;}
        .stroke15 {fill: #808066;}
        .stroke16 {fill: #808065;}
        .stroke17 {fill: #808064;}
        .stroke18 {fill: #808063;}
        .stroke19 {fill: #808062;}
        .stroke20 {fill: #808061;}
        text {
            font-family: Helvetica;
            font-size: 50px;
            fill: #808060;
            paint-order: stroke;
            stroke: #000000;
            stroke-width: 4px;
            stroke-linecap: butt;
            stroke-linejoin: miter;
            font-weight: 800;
        }
    </style>

    <path d="M 251 692 Q 281 698 312 711 Q 325 718 332 711 Q 332 710 310 654 Q 298 636 322 594 Q 335 569 342 551 Q 346 538 340 531 Q 336 524 320 527 Q 301 531 279 530 Q 257 533 281 518 Q 320 493 355 462 Q 365 452 377 461 Q 389 468 395 489 Q 408 537 353 604 Q 352 607 350 608 Q 326 641 367 678 Q 386 702 401 708 Q 419 718 410 731 Q 398 747 365 766 Q 343 775 309 746 Q 272 728 232 719 C 203 712 222 685 251 692 Z" class="stroke1"/>
    <path d="M 232 719 Q 211 734 188 740 Q 179 741 174 733 Q 170 727 178 717 Q 227 602 199 363 Q 180 273 184 260 Q 194 229 205 216 Q 215 203 225 216 Q 252 252 250 361 Q 244 640 251 692 C 252 706 252 706 232 719 Z" class="stroke2"/>
    <path d="M 609 735 Q 682 750 820 764 Q 829 763 837 774 Q 838 784 819 793 Q 794 812 713 790 Q 659 781 625 772 L 562 762 Q 556 762 460 752 Q 435 751 454 735 Q 485 714 520 720 Q 533 723 551 725 L 609 735 Z" class="stroke3"/>
    <path d="M 530 591 Q 588 690 609 735 L 625 772 Q 635 793 642 804 Q 648 814 639 828 Q 606 873 575 869 Q 560 868 567 849 Q 576 819 562 762 L 551 725 Q 547 718 545 709 Q 496 592 380 447 Q 376 443 375 435 Q 376 431 381 432 Q 423 441 519 574 L 530 591 Z" class="stroke4"/>
    <path d="M 693 667 Q 720 673 749 678 Q 768 682 771 684 Q 777 690 774 696 Q 770 703 749 709 Q 728 713 707 705 Q 685 698 662 693 Q 637 689 605 686 Q 580 682 598 670 Q 616 660 650 659 L 693 667 Z" class="stroke5"/>
    <path d="M 693 611 L 693 667 C 693 697 650 689 650 659 L 650 604 C 650 574 693 581 693 611 Z" class="stroke6"/>
    <path d="M 650 604 Q 548 595 530 591 C 503 586 503 586 519 574 Q 544 553 567 558 Q 691 580 853 598 Q 860 597 869 607 Q 870 616 852 625 Q 827 643 747 623 Q 708 617 693 611 L 650 604 Z" class="stroke7"/>
    <path d="M 550 354 Q 550 355 551 407 L 551 427 Q 551 463 554 477 C 557 494 557 494 542 501 Q 518 513 503 512 Q 493 508 498 499 Q 528 436 502 353 Q 484 338 507 298 Q 510 292 515 286 Q 521 276 529 280 Q 544 293 550 338 L 550 354 Z" class="stroke8"/>
    <path d="M 554 477 Q 704 507 726 497 Q 739 491 739 465 Q 749 375 747 305 Q 746 290 738 288 Q 728 285 677 297 Q 665 300 666 292 Q 667 285 681 276 Q 715 248 740 218 Q 753 203 769 205 Q 779 206 792 237 Q 810 270 801 365 Q 794 464 806 487 Q 816 502 804 514 Q 788 529 752 541 Q 733 551 716 540 Q 698 533 665 524 Q 583 508 542 501 C 512 496 525 471 554 477 Z" class="stroke9"/>
    <path d="M 551 407 Q 555 406 564 406 Q 628 410 675 413 Q 694 414 688 426 Q 681 439 660 444 Q 632 450 551 427 C 522 419 521 411 551 407 Z" class="stroke10"/>
    <path d="M 550 338 Q 554 334 569 334 Q 635 341 683 344 Q 702 347 696 358 Q 689 370 667 375 Q 648 379 550 354 C 530 349 530 349 550 338 Z" class="stroke11"/>
    <path d="M 511 113 Q 652 135 657 139 Q 667 146 662 156 Q 655 169 627 177 Q 594 186 516 162 L 454 150 Q 399 143 340 141 Q 303 137 328 118 Q 370 91 429 101 Q 441 105 457 105 L 511 113 Z" class="stroke12"/>
    <path d="M 502 9 Q 506 63 511 113 L 516 162 Q 516 186 530 228 Q 533 238 513 253 Q 479 271 456 275 Q 440 279 432 270 Q 425 263 433 248 Q 449 227 450 212 Q 451 182 454 150 L 457 105 Q 458 59 459 5 C 460 -25 500 -21 502 9 Z" class="stroke13"/>
    <path d="M 459 5 Q 317 -5 155 -17 Q 133 -18 148 -37 Q 161 -53 181 -60 Q 203 -67 221 -63 Q 455 -8 854 -31 Q 876 -32 881 -23 Q 888 -10 871 5 Q 811 53 748 39 Q 651 26 502 9 L 459 5 Z" class="stroke14"/>
    
    
    
    
    
    
    
    
    
    
    
    
    
    </g>
</svg>