<svg version="1.1" viewBox="0 0 1024 1024" xmlns="http://www.w3.org/2000/svg">
  
  <g transform="scale(1, -1) translate(0, -900)">
    <style type="text/css">
        .stroke1 {fill: #808080;}
        .stroke2 {fill: #808079;}
        .stroke3 {fill: #808078;}
        .stroke4 {fill: #808077;}
        .stroke5 {fill: #808076;}
        .stroke6 {fill: #808075;}
        .stroke7 {fill: #808074;}
        .stroke8 {fill: #808073;}
        .stroke9 {fill: #808072;}
        .stroke10 {fill: #808071;}
        .stroke11 {fill: #808070;}
        .stroke12 {fill: #808069;}
        .stroke13 {fill: #808068;}
        .stroke14 {fill: #808067;}
        .stroke15 {fill: #808066;}
        .stroke16 {fill: #808065;}
        .stroke17 {fill: #808064;}
        .stroke18 {fill: #808063;}
        .stroke19 {fill: #808062;}
        .stroke20 {fill: #808061;}
        text {
            font-family: Helvetica;
            font-size: 50px;
            fill: #808060;
            paint-order: stroke;
            stroke: #000000;
            stroke-width: 4px;
            stroke-linecap: butt;
            stroke-linejoin: miter;
            font-weight: 800;
        }
    </style>

    <path d="M 364 550 Q 291 532 239 510 Q 224 506 228 524 Q 232 582 238 644 Q 242 668 231 682 Q 194 719 169 716 Q 159 712 167 692 Q 195 631 186 569 Q 180 511 156 484 Q 140 465 148 452 Q 161 437 179 428 Q 194 421 203 431 Q 224 461 320 496 Q 354 509 364 508 C 394 512 393 557 364 550 Z" class="stroke1"/>
    <path d="M 362 331 Q 362 189 339 104 Q 327 62 355 2 Q 362 -16 370 -19 Q 377 -26 384 -17 Q 391 -13 402 8 Q 411 33 410 65 Q 409 114 410 576 Q 410 672 427 736 Q 436 752 433 765 Q 426 775 370 809 Q 346 825 325 810 Q 321 804 327 789 Q 360 741 361 694 Q 362 627 364 550 L 364 508 Q 363 438 362 364 L 362 331 Z" class="stroke2"/>
    <path d="M 233 302 Q 272 314 362 331 C 391 337 391 356 362 364 Q 343 371 325 366 Q 163 324 67 307 Q 55 306 53 298 Q 50 288 64 279 Q 100 257 170 281 Q 180 285 191 288 L 233 302 Z" class="stroke3"/>
    <path d="M 191 288 Q 203 186 79 -3 Q 75 -7 75 -14 Q 76 -18 81 -17 Q 153 16 236 212 Q 236 225 256 262 Q 260 272 252 284 Q 242 294 233 302 C 211 322 189 318 191 288 Z" class="stroke4"/>
    <path d="M 706 375 Q 788 388 910 393 Q 967 397 973 404 Q 977 417 961 429 Q 901 468 843 448 Q 788 436 707 418 L 655 408 Q 561 392 451 371 Q 430 367 447 351 Q 462 338 480 334 Q 501 330 517 335 Q 581 356 655 367 L 706 375 Z" class="stroke5"/>
    <path d="M 700 175 Q 704 278 706 375 L 707 418 Q 710 616 732 717 Q 736 730 711 748 Q 668 770 639 774 Q 620 778 610 767 Q 601 757 612 740 Q 646 689 647 655 Q 654 537 655 408 L 655 367 Q 655 270 651 165 C 650 135 699 145 700 175 Z" class="stroke6"/>
    <path d="M 651 165 Q 572 152 480 135 Q 459 132 475 115 Q 490 102 508 97 Q 529 93 545 98 Q 668 135 866 135 L 868 135 Q 887 136 893 144 Q 897 157 881 170 Q 820 209 763 190 Q 735 184 700 175 L 651 165 Z" class="stroke7"/>
    
    
    
    
    
    
    </g>
</svg>