<svg version="1.1" viewBox="0 0 1024 1024" xmlns="http://www.w3.org/2000/svg">
  
  <g transform="scale(1, -1) translate(0, -900)">
    <style type="text/css">
        .stroke1 {fill: #808080;}
        .stroke2 {fill: #808079;}
        .stroke3 {fill: #808078;}
        .stroke4 {fill: #808077;}
        .stroke5 {fill: #808076;}
        .stroke6 {fill: #808075;}
        .stroke7 {fill: #808074;}
        .stroke8 {fill: #808073;}
        .stroke9 {fill: #808072;}
        .stroke10 {fill: #808071;}
        .stroke11 {fill: #808070;}
        .stroke12 {fill: #808069;}
        .stroke13 {fill: #808068;}
        .stroke14 {fill: #808067;}
        .stroke15 {fill: #808066;}
        .stroke16 {fill: #808065;}
        .stroke17 {fill: #808064;}
        .stroke18 {fill: #808063;}
        .stroke19 {fill: #808062;}
        .stroke20 {fill: #808061;}
        text {
            font-family: Helvetica;
            font-size: 50px;
            fill: #808060;
            paint-order: stroke;
            stroke: #000000;
            stroke-width: 4px;
            stroke-linecap: butt;
            stroke-linejoin: miter;
            font-weight: 800;
        }
    </style>

    <path d="M 441 722 Q 462 747 479 757 Q 488 764 486 778 Q 485 790 463 813 Q 442 832 426 835 Q 410 836 414 816 Q 423 777 330 668 Q 285 619 226 566 Q 216 559 213 553 Q 209 544 221 544 Q 255 544 372 651 L 387 666 Q 403 684 424 703 L 441 722 Z" class="stroke1"/>
    <path d="M 536 564 Q 675 700 687 707 Q 702 716 698 726 Q 697 735 640 763 Q 625 773 578 752 Q 502 733 441 722 C 412 716 395 712 424 703 Q 443 688 518 701 Q 575 711 580 707 Q 584 688 493 592 L 473 571 Q 350 456 139 329 Q 123 319 138 316 Q 183 316 330 402 Q 393 445 512 542 L 536 564 Z" class="stroke2"/>
    <path d="M 512 542 Q 627 457 747 378 Q 772 359 809 362 Q 878 368 946 391 Q 964 395 964 401 Q 965 408 951 411 Q 882 430 803 448 Q 686 476 536 564 L 493 592 Q 483 599 474 605 Q 414 648 387 666 C 362 683 349 670 372 651 Q 373 648 379 645 Q 425 608 473 571 L 512 542 Z" class="stroke3"/>
    <path d="M 537 333 Q 663 357 670 361 Q 677 368 674 374 Q 668 384 645 391 Q 627 395 539 372 L 482 359 Q 421 349 356 345 Q 326 342 347 327 Q 374 311 448 319 Q 464 322 483 324 L 537 333 Z" class="stroke4"/>
    <path d="M 535 242 Q 580 252 666 262 Q 673 261 681 271 Q 682 280 664 289 Q 637 307 547 279 Q 541 278 536 276 L 483 265 Q 389 253 351 247 Q 329 244 346 230 Q 370 214 412 219 Q 443 226 483 232 L 535 242 Z" class="stroke5"/>
    <path d="M 535 133 Q 625 142 806 142 Q 825 142 831 151 Q 837 163 820 177 Q 766 217 727 209 Q 654 193 534 173 L 483 166 Q 357 150 213 131 Q 191 130 207 111 Q 240 81 279 90 Q 408 126 479 127 Q 480 127 483 126 L 535 133 Z" class="stroke6"/>
    <path d="M 483 126 Q 483 -42 498 -65 Q 504 -72 511 -70 Q 527 -60 531 -5 Q 534 26 535 133 L 534 173 Q 534 203 535 242 L 536 276 Q 536 303 537 333 L 539 372 Q 540 378 541 382 Q 544 400 547 413 Q 550 429 536 439 Q 505 460 491 462 Q 479 466 464 458 Q 455 451 463 441 Q 481 395 482 359 L 483 324 Q 483 297 483 265 L 483 232 Q 483 201 483 166 L 483 126 Z" class="stroke7"/>
    
    
    
    
    
    
    </g>
</svg>