<svg version="1.1" viewBox="0 0 1024 1024" xmlns="http://www.w3.org/2000/svg">
  
  <g transform="scale(1, -1) translate(0, -900)">
    <style type="text/css">
        .stroke1 {fill: #808080;}
        .stroke2 {fill: #808079;}
        .stroke3 {fill: #808078;}
        .stroke4 {fill: #808077;}
        .stroke5 {fill: #808076;}
        .stroke6 {fill: #808075;}
        .stroke7 {fill: #808074;}
        .stroke8 {fill: #808073;}
        .stroke9 {fill: #808072;}
        .stroke10 {fill: #808071;}
        .stroke11 {fill: #808070;}
        .stroke12 {fill: #808069;}
        .stroke13 {fill: #808068;}
        .stroke14 {fill: #808067;}
        .stroke15 {fill: #808066;}
        .stroke16 {fill: #808065;}
        .stroke17 {fill: #808064;}
        .stroke18 {fill: #808063;}
        .stroke19 {fill: #808062;}
        .stroke20 {fill: #808061;}
        text {
            font-family: Helvetica;
            font-size: 50px;
            fill: #808060;
            paint-order: stroke;
            stroke: #000000;
            stroke-width: 4px;
            stroke-linecap: butt;
            stroke-linejoin: miter;
            font-weight: 800;
        }
    </style>

    <path d="M 394 746 Q 410 771 430 792 Q 440 805 427 820 Q 387 856 358 854 Q 348 853 348 837 Q 357 747 242 631 Q 226 616 218 604 Q 208 589 224 593 Q 240 594 264 610 Q 336 659 378 723 Q 378 724 379 725 L 394 746 Z" class="stroke1"/>
    <path d="M 379 725 Q 388 716 422 709 Q 450 703 483 712 Q 721 764 731 771 Q 740 778 735 788 Q 728 800 698 807 Q 671 813 573 780 Q 479 756 394 746 C 364 742 354 741 379 725 Z" class="stroke2"/>
    <path d="M 406 400 Q 406 401 407 401 Q 411 411 412 425 L 411 450 Q 411 457 410 465 Q 406 487 404 507 L 401 533 Q 394 582 394 601 C 393 625 393 625 374 632 Q 364 636 341 641 Q 328 645 325 640 Q 318 634 326 618 Q 353 557 366 458 Q 366 436 390 400 C 400 385 400 385 406 400 Z" class="stroke3"/>
    <path d="M 591 442 Q 606 420 620 413 Q 630 404 647 426 Q 660 445 690 549 Q 700 580 725 605 Q 738 617 727 632 Q 712 650 669 677 Q 654 686 576 670 Q 572 670 567 668 Q 399 638 374 632 C 345 626 365 594 394 601 Q 466 620 591 637 Q 619 641 629 631 Q 639 619 636 607 Q 617 505 608 490 Q 605 478 587 474 C 572 467 573 466 591 442 Z" class="stroke4"/>
    <path d="M 404 507 Q 408 507 413 508 Q 500 524 563 533 Q 585 537 577 549 Q 567 562 543 566 Q 516 569 401 533 C 372 524 374 505 404 507 Z" class="stroke5"/>
    <path d="M 412 425 Q 416 425 424 425 Q 520 437 591 442 C 621 444 615 464 587 474 Q 586 475 582 476 Q 563 480 411 450 C 382 444 382 425 412 425 Z" class="stroke6"/>
    <path d="M 445 327 Q 451 334 456 337 Q 463 341 463 351 Q 463 360 453 372 Q 429 396 406 400 C 391 405 391 405 390 400 Q 387 397 387 389 Q 393 277 126 91 Q 119 87 128 83 Q 189 83 311 183 Q 369 241 381 254 L 400 275 Q 412 290 426 305 L 445 327 Z" class="stroke7"/>
    <path d="M 588 144 Q 624 190 656 254 Q 672 284 696 301 Q 718 316 706 332 Q 693 347 661 362 Q 637 371 554 345 Q 485 333 445 327 C 415 322 398 315 426 305 Q 427 305 431 303 Q 470 285 524 299 Q 573 317 583 316 Q 605 312 597 289 Q 578 225 544 175 L 515 140 Q 439 58 254 16 Q 238 13 250 3 Q 257 -1 309 1 Q 376 5 451 39 Q 506 63 551 102 L 588 144 Z" class="stroke8"/>
    <path d="M 551 102 Q 675 -15 711 -19 Q 793 -19 886 2 Q 923 9 920 20 Q 917 29 734 72 Q 668 90 588 144 L 544 175 Q 507 206 466 241 Q 430 272 400 275 C 371 282 356 270 381 254 Q 427 227 515 140 L 551 102 Z" class="stroke9"/>
    
    
    
    
    
    
    
    
    </g>
</svg>