<svg version="1.1" viewBox="0 0 1024 1024" xmlns="http://www.w3.org/2000/svg">
  
  <g transform="scale(1, -1) translate(0, -900)">
    <style type="text/css">
        .stroke1 {fill: #808080;}
        .stroke2 {fill: #808079;}
        .stroke3 {fill: #808078;}
        .stroke4 {fill: #808077;}
        .stroke5 {fill: #808076;}
        .stroke6 {fill: #808075;}
        .stroke7 {fill: #808074;}
        .stroke8 {fill: #808073;}
        .stroke9 {fill: #808072;}
        .stroke10 {fill: #808071;}
        .stroke11 {fill: #808070;}
        .stroke12 {fill: #808069;}
        .stroke13 {fill: #808068;}
        .stroke14 {fill: #808067;}
        .stroke15 {fill: #808066;}
        .stroke16 {fill: #808065;}
        .stroke17 {fill: #808064;}
        .stroke18 {fill: #808063;}
        .stroke19 {fill: #808062;}
        .stroke20 {fill: #808061;}
        text {
            font-family: Helvetica;
            font-size: 50px;
            fill: #808060;
            paint-order: stroke;
            stroke: #000000;
            stroke-width: 4px;
            stroke-linecap: butt;
            stroke-linejoin: miter;
            font-weight: 800;
        }
    </style>

    <path d="M 283 672 Q 238 703 216 695 Q 204 688 212 674 Q 231 650 232 567 Q 232 399 194 268 Q 158 154 89 43 Q 85 36 83 30 Q 82 20 91 22 Q 127 29 202 166 Q 211 185 220 206 Q 277 359 290 599 Q 290 617 296 636 C 301 660 301 660 283 672 Z" class="stroke1"/>
    <path d="M 296 636 Q 458 678 639 696 Q 655 697 664 690 Q 667 687 668 656 Q 614 245 772 81 Q 826 15 914 -13 Q 930 -20 941 -9 Q 948 -2 945 16 Q 938 88 935 211 Q 935 224 929 229 Q 922 233 918 219 Q 888 114 876 102 Q 870 93 846 105 Q 794 127 755 209 Q 680 369 718 598 Q 722 643 752 677 Q 770 689 759 701 Q 747 720 714 745 Q 695 760 669 749 Q 648 739 611 731 Q 374 688 283 672 C 253 667 267 629 296 636 Z" class="stroke2"/>
    <path d="M 441 540 Q 597 576 599 576 Q 606 583 603 590 Q 596 600 571 606 Q 546 612 520 602 Q 486 590 447 581 Q 405 572 356 568 Q 325 564 347 548 Q 375 533 406 535 L 441 540 Z" class="stroke3"/>
    <path d="M 368 348 Q 375 358 384 367 Q 400 389 420 416 L 429 429 Q 456 478 471 493 Q 477 500 473 510 Q 467 531 441 540 C 413 552 398 558 406 535 Q 406 534 408 530 Q 426 484 308 311 Q 301 304 299 299 Q 298 290 307 293 Q 322 296 354 332 L 368 348 Z" class="stroke4"/>
    <path d="M 420 416 Q 430 404 461 409 Q 521 419 524 410 Q 530 397 515 345 Q 502 288 450 209 Q 401 125 311 40 Q 292 24 310 28 Q 380 35 473 163 Q 531 242 572 345 Q 591 394 606 409 Q 618 419 611 430 Q 607 440 557 459 Q 545 463 525 452 Q 497 439 429 429 C 401 425 401 425 420 416 Z" class="stroke5"/>
    <path d="M 354 332 Q 381 296 431 262 Q 435 259 443 259 Q 450 260 454 269 Q 457 279 451 299 Q 447 315 422 330 Q 397 340 368 348 C 339 356 336 356 354 332 Z" class="stroke6"/>
    
    
    
    
    
    </g>
</svg>