<svg version="1.1" viewBox="0 0 1024 1024" xmlns="http://www.w3.org/2000/svg">
  
  <g transform="scale(1, -1) translate(0, -900)">
    <style type="text/css">
        .stroke1 {fill: #808080;}
        .stroke2 {fill: #808079;}
        .stroke3 {fill: #808078;}
        .stroke4 {fill: #808077;}
        .stroke5 {fill: #808076;}
        .stroke6 {fill: #808075;}
        .stroke7 {fill: #808074;}
        .stroke8 {fill: #808073;}
        .stroke9 {fill: #808072;}
        .stroke10 {fill: #808071;}
        .stroke11 {fill: #808070;}
        .stroke12 {fill: #808069;}
        .stroke13 {fill: #808068;}
        .stroke14 {fill: #808067;}
        .stroke15 {fill: #808066;}
        .stroke16 {fill: #808065;}
        .stroke17 {fill: #808064;}
        .stroke18 {fill: #808063;}
        .stroke19 {fill: #808062;}
        .stroke20 {fill: #808061;}
        text {
            font-family: Helvetica;
            font-size: 50px;
            fill: #808060;
            paint-order: stroke;
            stroke: #000000;
            stroke-width: 4px;
            stroke-linecap: butt;
            stroke-linejoin: miter;
            font-weight: 800;
        }
    </style>

    <path d="M 478 650 Q 550 675 580 691 Q 619 709 663 722 Q 691 728 676 748 Q 660 764 611 790 Q 595 796 584 793 Q 575 792 581 771 Q 582 755 575 753 Q 473 692 353 647 Q 307 629 287 624 Q 277 621 284 615 Q 290 608 305 608 Q 311 605 434 634 L 478 650 Z" class="stroke1"/>
    <path d="M 502 441 Q 605 457 765 460 Q 834 460 840 471 Q 846 483 828 497 Q 771 536 734 526 Q 647 505 501 479 L 443 470 Q 325 451 192 431 Q 170 428 187 411 Q 220 384 282 399 Q 354 420 438 431 L 502 441 Z" class="stroke2"/>
    <path d="M 438 431 Q 408 247 314 160 Q 268 111 151 43 Q 126 27 157 30 Q 179 27 222 46 Q 277 64 325 98 Q 442 173 488 410 L 501 479 Q 513 584 523 609 Q 530 616 524 627 Q 518 634 487 647 Q 483 650 478 650 C 450 661 426 663 434 634 Q 438 622 442 605 Q 454 569 443 470 L 438 431 Z" class="stroke3"/>
    <path d="M 488 410 Q 587 212 706 68 Q 731 34 760 32 Q 844 32 916 30 Q 947 30 948 37 Q 949 46 916 63 Q 750 138 706 185 Q 594 302 502 441 C 485 466 469 448 488 410 Z" class="stroke4"/>
    
    
    
    </g>
</svg>