<svg version="1.1" viewBox="0 0 1024 1024" xmlns="http://www.w3.org/2000/svg">
  
  <g transform="scale(1, -1) translate(0, -900)">
    <style type="text/css">
        .stroke1 {fill: #808080;}
        .stroke2 {fill: #808079;}
        .stroke3 {fill: #808078;}
        .stroke4 {fill: #808077;}
        .stroke5 {fill: #808076;}
        .stroke6 {fill: #808075;}
        .stroke7 {fill: #808074;}
        .stroke8 {fill: #808073;}
        .stroke9 {fill: #808072;}
        .stroke10 {fill: #808071;}
        .stroke11 {fill: #808070;}
        .stroke12 {fill: #808069;}
        .stroke13 {fill: #808068;}
        .stroke14 {fill: #808067;}
        .stroke15 {fill: #808066;}
        .stroke16 {fill: #808065;}
        .stroke17 {fill: #808064;}
        .stroke18 {fill: #808063;}
        .stroke19 {fill: #808062;}
        .stroke20 {fill: #808061;}
        text {
            font-family: Helvetica;
            font-size: 50px;
            fill: #808060;
            paint-order: stroke;
            stroke: #000000;
            stroke-width: 4px;
            stroke-linecap: butt;
            stroke-linejoin: miter;
            font-weight: 800;
        }
    </style>

    <path d="M 518 819 Q 473 783 333 727 Q 329 720 333 716 Q 354 710 510 756 Q 562 778 614 785 Q 630 785 635 792 Q 639 802 628 813 Q 573 859 541 856 Q 534 852 532 842 Q 531 829 518 819 Z" class="stroke1"/>
    <path d="M 286 630 Q 308 608 330 582 Q 342 569 357 569 Q 367 568 373 581 Q 379 594 372 624 Q 365 652 285 676 Q 270 680 264 679 Q 260 675 260 663 Q 261 653 286 630 Z" class="stroke2"/>
    <path d="M 446 691 Q 500 622 522 618 Q 535 617 541 633 Q 542 645 535 664 Q 517 695 452 715 Q 443 716 442 706 Q 441 699 446 691 Z" class="stroke3"/>
    <path d="M 683 717 Q 671 705 593 633 Q 580 620 597 619 Q 646 635 673 648 Q 745 682 761 685 Q 783 691 776 710 Q 766 729 744 747 Q 723 765 710 764 Q 698 765 700 751 Q 700 732 683 717 Z" class="stroke4"/>
    <path d="M 495 454 Q 428 455 374 455 Q 361 455 368 462 Q 425 505 475 536 Q 491 546 492 554 Q 493 567 469 606 Q 459 622 441 624 Q 431 625 432 610 Q 435 574 353 498 Q 337 482 308 470 Q 289 460 287 449 Q 288 430 298 411 Q 305 399 319 404 Q 352 419 458 428 C 488 431 525 454 495 454 Z" class="stroke5"/>
    <path d="M 642 375 Q 530 365 396 337 Q 392 336 395 339 Q 453 382 585 467 Q 625 495 656 508 Q 671 514 668 525 Q 664 547 637 576 Q 624 591 614 591 Q 604 590 601 575 Q 592 533 497 455 Q 496 455 495 454 L 458 428 Q 332 340 314 334 Q 298 330 298 315 Q 297 302 317 277 Q 324 262 342 271 Q 471 331 656 356 C 686 360 672 378 642 375 Z" class="stroke6"/>
    <path d="M 656 356 Q 683 325 698 316 Q 711 310 723 321 Q 732 333 732 349 Q 726 392 641 441 Q 640 442 639 442 Q 624 449 614 447 Q 608 447 609 435 Q 608 426 642 375 L 656 356 Z" class="stroke7"/>
    <path d="M 536 196 Q 654 206 827 201 Q 858 200 886 199 Q 908 198 914 208 Q 921 221 903 237 Q 842 283 790 271 Q 690 255 532 233 L 461 226 Q 313 213 147 196 Q 123 195 140 175 Q 155 159 175 153 Q 197 146 216 151 Q 325 178 451 188 L 536 196 Z" class="stroke8"/>
    <path d="M 532 233 Q 536 239 540 242 Q 550 255 542 265 Q 532 281 504 292 Q 485 304 464 301 Q 451 298 456 282 Q 466 260 461 226 L 451 188 Q 448 184 446 176 Q 409 64 245 23 Q 223 19 197 13 Q 178 6 200 1 Q 306 -18 398 33 Q 470 75 508 178 L 532 233 Z" class="stroke9"/>
    <path d="M 508 178 Q 577 94 652 16 Q 674 -8 714 -10 Q 786 -14 861 -2 Q 880 -1 881 5 Q 884 12 869 18 Q 691 87 666 101 Q 663 104 660 105 Q 647 114 536 196 C 512 214 489 201 508 178 Z" class="stroke10"/>
    
    
    
    
    
    
    
    
    
    </g>
</svg>