<svg version="1.1" viewBox="0 0 1024 1024" xmlns="http://www.w3.org/2000/svg">
  
  <g transform="scale(1, -1) translate(0, -900)">
    <style type="text/css">
        .stroke1 {fill: #808080;}
        .stroke2 {fill: #808079;}
        .stroke3 {fill: #808078;}
        .stroke4 {fill: #808077;}
        .stroke5 {fill: #808076;}
        .stroke6 {fill: #808075;}
        .stroke7 {fill: #808074;}
        .stroke8 {fill: #808073;}
        .stroke9 {fill: #808072;}
        .stroke10 {fill: #808071;}
        .stroke11 {fill: #808070;}
        .stroke12 {fill: #808069;}
        .stroke13 {fill: #808068;}
        .stroke14 {fill: #808067;}
        .stroke15 {fill: #808066;}
        .stroke16 {fill: #808065;}
        .stroke17 {fill: #808064;}
        .stroke18 {fill: #808063;}
        .stroke19 {fill: #808062;}
        .stroke20 {fill: #808061;}
        text {
            font-family: Helvetica;
            font-size: 50px;
            fill: #808060;
            paint-order: stroke;
            stroke: #000000;
            stroke-width: 4px;
            stroke-linecap: butt;
            stroke-linejoin: miter;
            font-weight: 800;
        }
    </style>

    <path d="M 344 478 Q 369 562 392 646 Q 404 695 424 720 Q 437 742 430 756 Q 417 775 368 806 Q 347 819 330 811 Q 317 804 326 786 Q 359 735 296 469 L 284 422 Q 280 409 277 394 Q 264 343 239 305 Q 229 280 250 262 Q 302 237 346 202 L 385 172 Q 425 141 478 92 Q 496 76 505 75 Q 515 76 520 87 Q 527 99 521 131 Q 514 159 491 174 Q 466 190 416 217 L 372 240 Q 341 256 304 274 Q 283 284 285 304 Q 309 368 330 435 L 344 478 Z" class="stroke1"/>
    <path d="M 346 202 Q 282 121 196 81 Q 178 71 161 60 Q 148 53 160 48 Q 173 47 211 57 Q 271 76 318 112 Q 358 140 385 172 L 416 217 Q 461 295 478 351 Q 509 459 526 483 Q 538 501 522 512 Q 480 554 449 547 Q 434 544 440 528 Q 444 515 447 499 L 446 467 Q 422 326 372 240 L 346 202 Z" class="stroke2"/>
    <path d="M 447 499 Q 398 489 344 478 L 296 469 Q 221 457 144 443 Q 119 439 81 443 Q 68 444 64 433 Q 60 420 69 410 Q 90 391 121 367 Q 131 363 145 370 Q 215 409 284 422 L 330 435 Q 382 450 436 464 Q 440 465 446 467 C 475 475 476 505 447 499 Z" class="stroke3"/>
    <path d="M 603 456 Q 591 460 568 465 Q 555 469 551 464 Q 544 457 553 440 Q 584 364 601 242 Q 604 205 623 181 Q 642 157 647 173 Q 651 186 653 206 L 650 245 Q 643 266 624 423 C 621 451 621 451 603 456 Z" class="stroke4"/>
    <path d="M 839 272 Q 863 398 905 439 Q 923 461 905 479 Q 821 537 767 505 Q 701 478 603 456 C 574 449 595 415 624 423 Q 637 426 652 431 Q 716 444 776 459 Q 792 463 799 457 Q 812 445 810 418 Q 800 340 785 277 C 778 248 833 243 839 272 Z" class="stroke5"/>
    <path d="M 653 206 Q 660 206 670 208 Q 728 221 855 233 Q 867 234 868 245 Q 868 254 839 272 L 785 277 Q 781 277 780 276 Q 710 257 650 245 C 621 239 623 204 653 206 Z" class="stroke6"/>
    
    
    
    
    
    </g>
</svg>