<svg version="1.1" viewBox="0 0 1024 1024" xmlns="http://www.w3.org/2000/svg">
  
  <g transform="scale(1, -1) translate(0, -900)">
    <style type="text/css">
        .stroke1 {fill: #808080;}
        .stroke2 {fill: #808079;}
        .stroke3 {fill: #808078;}
        .stroke4 {fill: #808077;}
        .stroke5 {fill: #808076;}
        .stroke6 {fill: #808075;}
        .stroke7 {fill: #808074;}
        .stroke8 {fill: #808073;}
        .stroke9 {fill: #808072;}
        .stroke10 {fill: #808071;}
        .stroke11 {fill: #808070;}
        .stroke12 {fill: #808069;}
        .stroke13 {fill: #808068;}
        .stroke14 {fill: #808067;}
        .stroke15 {fill: #808066;}
        .stroke16 {fill: #808065;}
        .stroke17 {fill: #808064;}
        .stroke18 {fill: #808063;}
        .stroke19 {fill: #808062;}
        .stroke20 {fill: #808061;}
        text {
            font-family: Helvetica;
            font-size: 50px;
            fill: #808060;
            paint-order: stroke;
            stroke: #000000;
            stroke-width: 4px;
            stroke-linecap: butt;
            stroke-linejoin: miter;
            font-weight: 800;
        }
    </style>

    <path d="M 306 186 Q 334 158 370 117 Q 386 101 395 99 Q 404 98 410 109 Q 417 119 414 150 Q 411 183 338 231 L 297 257 Q 272 275 237 294 Q 216 307 219 328 Q 237 383 253 438 L 265 480 Q 290 574 313 672 Q 322 720 341 745 Q 353 767 346 779 Q 331 798 285 824 Q 264 837 248 828 Q 235 821 245 804 Q 278 755 222 472 L 212 427 Q 184 343 175 327 Q 165 305 184 288 Q 232 257 272 219 L 306 186 Z" class="stroke1"/>
    <path d="M 272 219 Q 217 156 105 84 Q 92 75 103 72 Q 184 65 297 176 Q 301 182 306 186 L 338 231 Q 342 241 350 250 Q 381 302 396 364 Q 421 461 439 490 Q 449 506 434 517 Q 392 556 363 549 Q 350 546 354 530 Q 361 517 362 499 L 361 468 Q 360 453 357 435 Q 347 351 297 257 L 272 219 Z" class="stroke2"/>
    <path d="M 362 499 Q 314 490 265 480 L 222 472 Q 167 465 110 454 Q 88 450 52 455 Q 39 455 36 446 Q 33 434 41 425 Q 60 407 89 385 Q 98 381 110 388 Q 158 413 212 427 L 253 438 Q 305 453 361 468 C 390 476 391 505 362 499 Z" class="stroke3"/>
    <path d="M 672 585 Q 789 687 827 700 Q 849 707 842 725 Q 838 741 769 780 Q 750 790 726 782 Q 662 760 565 734 Q 540 727 479 729 Q 454 730 463 709 Q 470 696 491 683 Q 522 664 558 685 Q 580 694 699 734 Q 712 740 725 732 Q 738 723 732 709 Q 695 657 652 598 C 634 574 649 565 672 585 Z" class="stroke4"/>
    <path d="M 652 598 Q 637 607 574 616 Q 564 617 560 615 Q 556 611 558 601 Q 559 598 657 527 Q 669 518 682 520 Q 689 521 693 532 Q 696 545 686 568 Q 682 578 672 585 L 652 598 Z" class="stroke5"/>
    <path d="M 660 462 Q 787 490 821 487 Q 840 477 839 468 Q 839 464 816 398 Q 810 385 817 381 Q 824 377 839 390 Q 888 427 930 441 Q 964 454 963 461 Q 962 471 889 520 Q 865 536 792 520 Q 726 511 546 476 Q 506 469 463 463 Q 430 459 451 443 Q 479 419 529 430 Q 568 442 614 453 L 660 462 Z" class="stroke6"/>
    <path d="M 591 42 Q 567 52 537 63 Q 525 67 525 60 Q 524 53 534 41 Q 594 -20 632 -70 Q 644 -80 659 -64 Q 699 -13 701 87 Q 691 256 697 396 Q 704 424 697 435 Q 688 447 660 462 C 634 477 600 479 614 453 Q 615 449 621 441 Q 633 416 632 373 Q 636 285 637 80 Q 636 50 625 40 Q 615 34 591 42 Z" class="stroke7"/>
    
    
    
    
    
    
    </g>
</svg>