<svg version="1.1" viewBox="0 0 1024 1024" xmlns="http://www.w3.org/2000/svg">
  
  <g transform="scale(1, -1) translate(0, -900)">
    <style type="text/css">
        .stroke1 {fill: #808080;}
        .stroke2 {fill: #808079;}
        .stroke3 {fill: #808078;}
        .stroke4 {fill: #808077;}
        .stroke5 {fill: #808076;}
        .stroke6 {fill: #808075;}
        .stroke7 {fill: #808074;}
        .stroke8 {fill: #808073;}
        .stroke9 {fill: #808072;}
        .stroke10 {fill: #808071;}
        .stroke11 {fill: #808070;}
        .stroke12 {fill: #808069;}
        .stroke13 {fill: #808068;}
        .stroke14 {fill: #808067;}
        .stroke15 {fill: #808066;}
        .stroke16 {fill: #808065;}
        .stroke17 {fill: #808064;}
        .stroke18 {fill: #808063;}
        .stroke19 {fill: #808062;}
        .stroke20 {fill: #808061;}
        text {
            font-family: Helvetica;
            font-size: 50px;
            fill: #808060;
            paint-order: stroke;
            stroke: #000000;
            stroke-width: 4px;
            stroke-linecap: butt;
            stroke-linejoin: miter;
            font-weight: 800;
        }
    </style>

    <path d="M 343 725 Q 314 741 284 747 Q 278 748 272 743 Q 271 741 270 740 Q 270 737 277 725 Q 318 666 334 543 Q 341 476 384 457 Q 396 454 398 466 Q 400 468 400 472 L 398 488 L 394 521 Q 384 558 375 595 L 369 622 Q 365 651 359 690 C 355 719 355 719 343 725 Z" class="stroke1"/>
    <path d="M 604 515 Q 621 488 637 478 Q 645 472 655 480 Q 666 490 676 512 Q 689 538 719 647 Q 724 662 731 674 Q 738 686 757 705 Q 766 715 763 724 Q 758 743 698 780 Q 674 794 610 774 Q 589 772 517 759 Q 355 727 343 725 C 314 719 330 683 359 690 L 361 690 Q 459 717 610 739 Q 626 742 637 741 Q 670 736 666 708 Q 633 555 612 545 C 597 525 597 525 604 515 Z" class="stroke2"/>
    <path d="M 375 595 L 390 596 L 394 596 Q 539 619 587 626 Q 591 627 594 627 Q 606 631 604 638 Q 604 641 602 643 Q 594 654 580 659 Q 555 668 501 655 L 369 622 C 340 615 345 593 375 595 Z" class="stroke3"/>
    <path d="M 398 488 L 413 490 Q 474 506 604 515 C 634 517 634 525 612 545 Q 606 551 600 554 Q 586 561 557 554 Q 473 533 394 521 C 364 516 368 484 398 488 Z" class="stroke4"/>
    <path d="M 488 406 Q 488 419 441 454 Q 431 463 421 461 L 416 459 Q 408 455 410 445 Q 412 441 412 437 Q 419 406 392 326 L 377 287 Q 370 272 365 260 L 342 221 Q 333 206 336 190 Q 337 188 337 186 Q 341 180 363 174 Q 422 158 476 130 L 527 102 Q 600 62 705 -18 Q 734 -41 756 -39 Q 774 -37 776 -16 Q 774 6 743 55 Q 729 80 696 92 Q 616 125 566 145 L 514 165 Q 453 188 406 199 Q 384 203 396 225 L 429 294 L 449 332 Q 466 370 483 392 Q 489 400 488 406 Z" class="stroke5"/>
    <path d="M 476 130 L 431 102 Q 367 67 237 40 Q 233 38 233 37 Q 223 33 239 27 Q 406 0 527 102 L 566 145 Q 568 151 574 155 Q 613 206 638 265 Q 655 306 660 314 C 673 341 678 350 670 357 Q 661 369 639 377 Q 618 390 604 388 Q 590 386 593 373 Q 598 350 598 349 L 595 310 Q 574 225 515 168 Q 514 167 514 165 L 476 130 Z" class="stroke6"/>
    <path d="M 392 326 Q 350 323 282 315 Q 174 301 98 301 Q 85 301 83 290 Q 82 281 90 272 L 94 270 Q 137 229 177 242 Q 276 278 377 287 L 429 294 Q 500 303 595 310 L 660 314 Q 706 330 917 308 Q 963 308 967 312 Q 972 320 968 329 Q 966 333 962 337 Q 939 363 890 385 Q 880 390 864 387 Q 858 386 853 384 Q 841 381 670 357 L 598 349 Q 516 341 449 332 L 392 326 Z" class="stroke7"/>
    
    
    
    
    
    
    </g>
</svg>