<svg version="1.1" viewBox="0 0 1024 1024" xmlns="http://www.w3.org/2000/svg">
  
  <g transform="scale(1, -1) translate(0, -900)">
    <style type="text/css">
        .stroke1 {fill: #808080;}
        .stroke2 {fill: #808079;}
        .stroke3 {fill: #808078;}
        .stroke4 {fill: #808077;}
        .stroke5 {fill: #808076;}
        .stroke6 {fill: #808075;}
        .stroke7 {fill: #808074;}
        .stroke8 {fill: #808073;}
        .stroke9 {fill: #808072;}
        .stroke10 {fill: #808071;}
        .stroke11 {fill: #808070;}
        .stroke12 {fill: #808069;}
        .stroke13 {fill: #808068;}
        .stroke14 {fill: #808067;}
        .stroke15 {fill: #808066;}
        .stroke16 {fill: #808065;}
        .stroke17 {fill: #808064;}
        .stroke18 {fill: #808063;}
        .stroke19 {fill: #808062;}
        .stroke20 {fill: #808061;}
        text {
            font-family: Helvetica;
            font-size: 50px;
            fill: #808060;
            paint-order: stroke;
            stroke: #000000;
            stroke-width: 4px;
            stroke-linecap: butt;
            stroke-linejoin: miter;
            font-weight: 800;
        }
    </style>

    <path d="M 294 147 Q 319 119 349 79 Q 364 63 373 60 Q 382 59 389 69 Q 396 79 396 110 Q 393 146 325 194 L 288 220 Q 263 239 231 260 Q 210 273 215 296 Q 227 336 239 376 L 251 419 Q 279 528 303 641 Q 312 687 330 713 Q 342 735 334 748 Q 321 766 273 792 Q 252 804 236 795 Q 223 788 233 771 Q 272 717 209 409 L 198 362 Q 188 325 171 295 Q 161 274 179 257 Q 225 223 263 180 L 294 147 Z" class="stroke1"/>
    <path d="M 263 180 Q 251 167 240 151 Q 209 111 151 74 Q 138 65 120 55 Q 104 45 89 35 Q 76 28 87 24 Q 172 17 285 135 Q 289 142 294 147 L 325 194 Q 364 263 381 327 Q 402 420 423 456 Q 433 472 418 482 Q 372 519 349 512 Q 336 509 340 494 Q 350 472 349 446 L 346 414 Q 345 407 344 396 Q 332 305 288 220 L 263 180 Z" class="stroke2"/>
    <path d="M 349 446 Q 301 433 251 419 L 209 409 Q 154 397 99 383 Q 78 377 44 380 Q 32 379 30 370 Q 27 357 35 349 Q 56 333 86 313 Q 96 309 108 317 Q 151 345 198 362 L 239 376 Q 291 395 346 414 C 374 424 378 454 349 446 Z" class="stroke3"/>
    <path d="M 509 388 Q 570 404 617 413 Q 641 420 630 432 Q 617 445 590 448 Q 557 448 511 425 C 484 412 480 380 509 388 Z" class="stroke4"/>
    <path d="M 511 425 Q 517 524 521 536 Q 528 552 515 566 Q 493 582 470 589 Q 443 596 434 584 Q 427 574 439 562 Q 478 523 459 246 Q 444 171 433 155 Q 421 139 432 119 Q 444 101 461 94 Q 471 87 482 104 Q 501 138 608 250 Q 632 271 633 280 Q 634 287 629 288 Q 625 289 509 201 Q 500 191 497 205 Q 504 293 509 388 L 511 425 Z" class="stroke5"/>
    <path d="M 705 408 Q 736 417 838 455 Q 860 465 885 469 Q 907 473 902 493 Q 895 512 873 533 Q 854 552 841 552 Q 828 553 829 540 Q 826 515 732 448 Q 720 441 706 430 C 682 412 676 399 705 408 Z" class="stroke6"/>
    <path d="M 972 88 Q 987 103 969 130 Q 948 178 939 242 Q 938 252 930 260 Q 920 264 918 242 Q 890 137 889 135 Q 885 125 868 121 Q 840 112 802 117 Q 774 118 755 128 Q 719 144 712 202 Q 702 296 705 408 L 706 430 Q 713 622 734 652 Q 741 674 722 686 Q 695 711 659 719 Q 640 722 632 713 Q 625 704 632 695 Q 653 677 656 606 Q 656 225 672 164 Q 681 119 718 89 Q 776 44 905 57 Q 915 60 924 61 Q 958 71 972 88 Z" class="stroke7"/>
    
    
    
    
    
    
    </g>
</svg>