<svg version="1.1" viewBox="0 0 1024 1024" xmlns="http://www.w3.org/2000/svg">
  
  <g transform="scale(1, -1) translate(0, -900)">
    <style type="text/css">
        .stroke1 {fill: #808080;}
        .stroke2 {fill: #808079;}
        .stroke3 {fill: #808078;}
        .stroke4 {fill: #808077;}
        .stroke5 {fill: #808076;}
        .stroke6 {fill: #808075;}
        .stroke7 {fill: #808074;}
        .stroke8 {fill: #808073;}
        .stroke9 {fill: #808072;}
        .stroke10 {fill: #808071;}
        .stroke11 {fill: #808070;}
        .stroke12 {fill: #808069;}
        .stroke13 {fill: #808068;}
        .stroke14 {fill: #808067;}
        .stroke15 {fill: #808066;}
        .stroke16 {fill: #808065;}
        .stroke17 {fill: #808064;}
        .stroke18 {fill: #808063;}
        .stroke19 {fill: #808062;}
        .stroke20 {fill: #808061;}
        text {
            font-family: Helvetica;
            font-size: 50px;
            fill: #808060;
            paint-order: stroke;
            stroke: #000000;
            stroke-width: 4px;
            stroke-linecap: butt;
            stroke-linejoin: miter;
            font-weight: 800;
        }
    </style>

    <path d="M 313 194 Q 347 169 390 129 Q 406 116 415 114 Q 424 115 429 125 Q 435 135 429 165 Q 422 192 401 204 Q 382 217 342 236 L 302 256 Q 277 269 244 283 Q 225 292 227 310 Q 246 367 265 424 L 278 465 Q 306 559 329 654 Q 339 699 357 723 Q 370 744 363 756 Q 350 772 306 800 Q 287 813 271 804 Q 258 798 268 782 Q 301 731 235 456 L 224 412 Q 197 333 184 311 Q 175 289 195 273 Q 241 251 279 221 L 313 194 Z" class="stroke1"/>
    <path d="M 279 221 Q 272 214 266 204 Q 238 170 187 135 Q 175 126 159 118 Q 143 108 129 98 Q 116 91 127 87 Q 199 81 310 191 Q 311 192 313 194 L 342 236 Q 346 246 354 255 Q 382 303 395 361 Q 414 448 434 478 Q 444 494 429 503 Q 386 539 363 532 Q 350 529 355 515 Q 362 499 363 481 L 361 451 Q 360 441 359 426 Q 350 336 302 256 L 279 221 Z" class="stroke2"/>
    <path d="M 363 481 Q 321 474 278 465 L 235 456 Q 178 449 118 438 Q 97 434 64 439 Q 51 439 48 430 Q 44 418 53 409 Q 72 391 101 369 Q 111 365 123 372 Q 195 412 224 412 L 265 424 Q 311 437 361 451 C 390 459 393 486 363 481 Z" class="stroke3"/>
    <path d="M 788 484 Q 676 468 556 440 Q 544 436 540 439 Q 536 443 544 460 Q 676 682 705 719 Q 717 729 709 743 Q 702 756 650 777 Q 631 784 622 779 Q 609 772 616 751 Q 638 687 520 497 Q 496 458 446 421 Q 431 408 436 396 Q 443 378 471 358 Q 483 348 496 359 Q 541 393 806 459 C 835 466 818 488 788 484 Z" class="stroke4"/>
    <path d="M 806 459 Q 837 411 853 404 Q 860 403 869 410 Q 882 420 876 464 Q 873 503 807 542 Q 765 567 742 578 Q 735 584 730 573 Q 729 560 737 549 Q 761 521 788 484 L 806 459 Z" class="stroke5"/>
    <path d="M 526 267 Q 514 271 488 277 Q 476 280 473 275 Q 466 268 475 253 Q 506 187 523 81 Q 526 50 544 28 Q 562 6 567 21 Q 574 40 569 74 L 563 111 Q 547 205 543 235 C 539 263 539 263 526 267 Z" class="stroke6"/>
    <path d="M 795 146 Q 814 224 846 252 Q 862 271 847 289 Q 831 302 776 325 Q 757 332 736 323 Q 655 289 526 267 C 496 262 513 231 543 235 Q 571 238 721 272 Q 740 276 748 269 Q 758 260 758 240 Q 752 191 744 149 C 739 119 787 117 795 146 Z" class="stroke7"/>
    <path d="M 569 74 Q 575 74 582 75 Q 655 93 811 107 Q 823 108 824 118 Q 824 127 795 146 C 780 156 773 155 744 149 Q 743 149 742 149 Q 643 124 563 111 C 533 106 539 72 569 74 Z" class="stroke8"/>
    
    
    
    
    
    
    
    </g>
</svg>