<svg version="1.1" viewBox="0 0 1024 1024" xmlns="http://www.w3.org/2000/svg">
  
  <g transform="scale(1, -1) translate(0, -900)">
    <style type="text/css">
        .stroke1 {fill: #808080;}
        .stroke2 {fill: #808079;}
        .stroke3 {fill: #808078;}
        .stroke4 {fill: #808077;}
        .stroke5 {fill: #808076;}
        .stroke6 {fill: #808075;}
        .stroke7 {fill: #808074;}
        .stroke8 {fill: #808073;}
        .stroke9 {fill: #808072;}
        .stroke10 {fill: #808071;}
        .stroke11 {fill: #808070;}
        .stroke12 {fill: #808069;}
        .stroke13 {fill: #808068;}
        .stroke14 {fill: #808067;}
        .stroke15 {fill: #808066;}
        .stroke16 {fill: #808065;}
        .stroke17 {fill: #808064;}
        .stroke18 {fill: #808063;}
        .stroke19 {fill: #808062;}
        .stroke20 {fill: #808061;}
        text {
            font-family: Helvetica;
            font-size: 50px;
            fill: #808060;
            paint-order: stroke;
            stroke: #000000;
            stroke-width: 4px;
            stroke-linecap: butt;
            stroke-linejoin: miter;
            font-weight: 800;
        }
    </style>

    <path d="M 273 715 Q 298 694 324 670 Q 337 658 351 660 Q 361 660 365 672 Q 369 685 360 713 Q 354 731 327 743 Q 258 765 248 759 Q 244 755 245 743 Q 249 733 273 715 Z" class="stroke1"/>
    <path d="M 219 471 Q 209 471 207 456 Q 210 389 231 373 Q 235 366 244 367 Q 251 367 255 387 Q 265 417 365 578 Q 372 590 373 595 Q 374 602 366 599 Q 353 593 251 492 Q 241 482 219 471 Z" class="stroke2"/>
    <path d="M 509 686 Q 521 714 561 789 Q 570 801 555 813 Q 510 840 489 833 Q 479 830 483 817 Q 505 739 425 624 Q 406 599 396 583 Q 390 568 403 574 Q 439 586 494 662 L 509 686 Z" class="stroke3"/>
    <path d="M 494 662 Q 512 646 535 652 Q 590 671 653 684 Q 686 691 696 688 Q 706 681 702 675 Q 702 666 649 603 Q 642 596 645 588 Q 648 584 661 592 Q 764 647 808 657 Q 818 658 820 666 Q 821 679 795 696 Q 774 711 754 726 Q 729 742 714 737 Q 636 707 509 686 C 479 681 469 679 494 662 Z" class="stroke4"/>
    <path d="M 456 398 Q 517 429 551 509 Q 552 513 554 515 L 563 535 Q 569 556 585 573 Q 595 586 584 596 Q 551 632 530 629 Q 518 628 521 615 Q 533 573 493 494 Q 454 428 359 384 Q 347 380 356 375 Q 374 372 430 385 L 456 398 Z" class="stroke5"/>
    <path d="M 554 515 Q 611 448 673 387 Q 692 368 724 368 Q 782 367 843 380 Q 859 381 860 386 Q 861 392 849 396 Q 812 408 770 419 Q 722 432 686 454 Q 641 476 596 510 Q 577 526 563 535 C 538 552 534 538 554 515 Z" class="stroke6"/>
    <path d="M 457 285 Q 479 324 490 335 Q 500 342 497 352 Q 493 365 458 396 Q 457 397 456 398 C 434 418 426 415 430 385 Q 437 363 428 339 Q 416 308 404 281 L 389 248 Q 371 215 354 194 Q 344 176 345 164 Q 346 154 364 149 Q 434 131 472 105 L 520 78 Q 583 39 675 -33 Q 700 -54 717 -53 Q 739 -53 739 -33 Q 739 -14 710 32 Q 698 54 669 67 Q 605 97 551 118 L 502 137 Q 448 159 409 169 Q 390 173 401 191 Q 422 228 437 253 L 457 285 Z" class="stroke7"/>
    <path d="M 647 305 Q 641 323 609 336 Q 590 346 571 345 Q 558 342 564 327 Q 570 314 569 296 L 566 262 Q 542 184 502 137 L 472 105 Q 394 42 237 4 Q 219 -3 239 -7 Q 407 -32 520 78 L 551 118 Q 593 172 615 235 Q 619 251 626 263 C 638 290 648 303 647 305 Z" class="stroke8"/>
    <path d="M 626 263 Q 717 266 833 261 Q 866 260 895 259 Q 916 258 921 267 Q 928 279 911 294 Q 854 339 789 325 Q 726 318 647 305 L 569 296 Q 530 296 457 285 L 404 281 Q 271 271 122 258 Q 100 257 115 239 Q 130 224 148 217 Q 170 211 186 215 Q 282 237 389 248 L 437 253 Q 440 254 445 254 Q 499 260 566 262 L 626 263 Z" class="stroke9"/>
    
    
    
    
    
    
    
    
    </g>
</svg>