<svg version="1.1" viewBox="0 0 1024 1024" xmlns="http://www.w3.org/2000/svg">
  
  <g transform="scale(1, -1) translate(0, -900)">
    <style type="text/css">
        .stroke1 {fill: #808080;}
        .stroke2 {fill: #808079;}
        .stroke3 {fill: #808078;}
        .stroke4 {fill: #808077;}
        .stroke5 {fill: #808076;}
        .stroke6 {fill: #808075;}
        .stroke7 {fill: #808074;}
        .stroke8 {fill: #808073;}
        .stroke9 {fill: #808072;}
        .stroke10 {fill: #808071;}
        .stroke11 {fill: #808070;}
        .stroke12 {fill: #808069;}
        .stroke13 {fill: #808068;}
        .stroke14 {fill: #808067;}
        .stroke15 {fill: #808066;}
        .stroke16 {fill: #808065;}
        .stroke17 {fill: #808064;}
        .stroke18 {fill: #808063;}
        .stroke19 {fill: #808062;}
        .stroke20 {fill: #808061;}
        text {
            font-family: Helvetica;
            font-size: 50px;
            fill: #808060;
            paint-order: stroke;
            stroke: #000000;
            stroke-width: 4px;
            stroke-linecap: butt;
            stroke-linejoin: miter;
            font-weight: 800;
        }
    </style>

    <path d="M 237 489 Q 265 583 289 678 Q 299 723 317 747 Q 330 766 323 780 Q 310 796 266 824 Q 247 837 231 828 Q 218 822 228 806 Q 261 757 194 481 L 183 436 Q 158 361 144 339 Q 135 317 157 300 Q 205 279 244 250 L 278 226 Q 365 163 369 161 Q 376 162 382 173 Q 388 183 380 213 Q 371 246 308 271 L 267 288 Q 240 300 205 313 Q 186 320 187 338 Q 206 393 224 448 L 237 489 Z" class="stroke1"/>
    <path d="M 244 250 Q 187 178 88 118 Q 76 111 87 107 Q 100 106 131 116 Q 182 135 220 167 Q 257 195 278 226 L 308 271 Q 307 272 308 272 Q 330 311 364 435 Q 370 466 385 492 Q 395 507 380 516 Q 341 550 317 544 Q 304 540 309 527 Q 313 517 316 504 L 316 477 Q 306 366 267 288 L 244 250 Z" class="stroke2"/>
    <path d="M 316 504 Q 277 497 237 489 L 194 481 Q 143 474 90 464 Q 72 461 43 465 Q 31 465 28 456 Q 25 444 32 436 Q 51 420 79 399 Q 88 395 100 401 Q 139 422 183 436 L 224 448 Q 266 463 309 475 Q 312 476 316 477 C 345 485 346 509 316 504 Z" class="stroke3"/>
    <path d="M 622 749 Q 659 759 701 767 Q 732 774 735 762 Q 735 752 717 711 Q 708 698 715 693 Q 722 689 735 700 Q 802 739 828 745 Q 849 746 848 759 Q 847 771 777 809 Q 756 819 730 812 Q 663 793 607 778 Q 543 765 452 749 Q 425 745 446 724 Q 462 705 507 719 Q 546 731 585 740 L 622 749 Z" class="stroke4"/>
    <path d="M 636 516 Q 639 564 642 604 L 643 630 Q 644 685 649 701 Q 656 717 648 727 Q 635 740 622 749 C 598 767 577 769 585 740 Q 594 710 595 646 Q 595 606 596 534 C 596 504 634 486 636 516 Z" class="stroke5"/>
    <path d="M 642 604 Q 670 601 760 613 Q 773 616 775 617 Q 782 624 778 631 Q 772 640 749 646 Q 725 650 701 641 Q 677 635 643 630 C 613 626 612 606 642 604 Z" class="stroke6"/>
    <path d="M 515 574 Q 524 592 534 606 Q 541 618 529 629 Q 489 654 469 650 Q 459 647 463 635 Q 479 562 401 453 Q 392 444 368 410 Q 362 397 375 402 Q 433 421 493 530 Q 496 539 506 556 L 515 574 Z" class="stroke7"/>
    <path d="M 506 556 Q 779 382 830 387 Q 914 408 962 431 Q 978 437 978 441 Q 978 448 964 449 Q 909 456 846 461 Q 762 470 636 516 L 596 534 Q 521 571 515 574 C 488 587 481 572 506 556 Z" class="stroke8"/>
    <path d="M 504 180 Q 505 222 510 252 L 512 276 Q 516 330 519 349 C 522 369 522 369 513 377 Q 489 401 461 398 Q 448 394 453 383 Q 496 280 447 102 Q 414 33 445 -7 Q 451 -20 460 -15 Q 494 7 501 118 Q 502 137 503 154 L 504 180 Z" class="stroke9"/>
    <path d="M 519 349 Q 540 349 656 378 Q 675 382 680 373 Q 698 325 695 82 Q 689 22 685 15 Q 681 12 614 23 Q 595 29 597 19 Q 648 -24 677 -58 Q 690 -76 705 -80 Q 714 -84 722 -74 Q 761 -20 755 51 Q 730 321 752 362 Q 764 381 752 391 Q 731 407 697 422 Q 678 431 624 401 Q 578 386 513 377 C 483 373 489 345 519 349 Z" class="stroke10"/>
    <path d="M 510 252 Q 513 251 521 252 Q 582 261 628 266 Q 649 270 641 281 Q 631 294 609 298 Q 576 302 512 276 C 484 265 480 255 510 252 Z" class="stroke11"/>
    <path d="M 503 154 Q 509 154 514 154 Q 581 161 630 165 Q 652 169 645 181 Q 635 194 611 200 Q 578 206 504 180 C 476 170 473 154 503 154 Z" class="stroke12"/>
    
    
    
    
    
    
    
    
    
    
    
    </g>
</svg>