<svg version="1.1" viewBox="0 0 1024 1024" xmlns="http://www.w3.org/2000/svg">
  
  <g transform="scale(1, -1) translate(0, -900)">
    <style type="text/css">
        .stroke1 {fill: #808080;}
        .stroke2 {fill: #808079;}
        .stroke3 {fill: #808078;}
        .stroke4 {fill: #808077;}
        .stroke5 {fill: #808076;}
        .stroke6 {fill: #808075;}
        .stroke7 {fill: #808074;}
        .stroke8 {fill: #808073;}
        .stroke9 {fill: #808072;}
        .stroke10 {fill: #808071;}
        .stroke11 {fill: #808070;}
        .stroke12 {fill: #808069;}
        .stroke13 {fill: #808068;}
        .stroke14 {fill: #808067;}
        .stroke15 {fill: #808066;}
        .stroke16 {fill: #808065;}
        .stroke17 {fill: #808064;}
        .stroke18 {fill: #808063;}
        .stroke19 {fill: #808062;}
        .stroke20 {fill: #808061;}
        text {
            font-family: Helvetica;
            font-size: 50px;
            fill: #808060;
            paint-order: stroke;
            stroke: #000000;
            stroke-width: 4px;
            stroke-linecap: butt;
            stroke-linejoin: miter;
            font-weight: 800;
        }
    </style>

    <path d="M 541 536 Q 577 555 663 625 Q 700 656 724 662 Q 766 675 769 692 Q 772 704 732 747 Q 696 787 684 785 Q 678 788 665 783 Q 599 759 341 723 Q 305 723 286 726 Q 265 733 257 719 Q 253 712 262 699 Q 272 683 300 664 Q 322 645 334 646 Q 344 645 367 659 Q 425 698 602 728 Q 651 740 657 735 Q 663 731 662 723 Q 661 714 542 568 Q 530 558 524 548 C 504 525 515 521 541 536 Z" class="stroke1"/>
    <path d="M 582 434 Q 570 512 541 536 L 524 548 Q 478 582 459 586 Q 447 589 448 568 Q 449 552 469 536 Q 517 499 530 412 L 535 364 Q 550 127 515 85 Q 505 72 477 79 Q 435 86 385 95 Q 366 99 367 92 Q 434 35 504 -22 Q 507 -26 512 -33 Q 521 -43 532 -37 Q 545 -30 571 10 Q 611 82 587 390 L 582 434 Z" class="stroke2"/>
    <path d="M 587 390 Q 717 456 748 480 Q 764 490 763 503 Q 756 509 740 505 Q 664 471 582 434 L 530 412 Q 401 360 259 301 Q 225 286 167 282 Q 151 278 149 265 Q 148 249 160 239 Q 191 220 235 199 Q 248 196 263 209 Q 335 266 535 364 L 587 390 Z" class="stroke3"/>
    
    
    </g>
</svg>