<svg version="1.1" viewBox="0 0 1024 1024" xmlns="http://www.w3.org/2000/svg">
  
  <g transform="scale(1, -1) translate(0, -900)">
    <style type="text/css">
        .stroke1 {fill: #808080;}
        .stroke2 {fill: #808079;}
        .stroke3 {fill: #808078;}
        .stroke4 {fill: #808077;}
        .stroke5 {fill: #808076;}
        .stroke6 {fill: #808075;}
        .stroke7 {fill: #808074;}
        .stroke8 {fill: #808073;}
        .stroke9 {fill: #808072;}
        .stroke10 {fill: #808071;}
        .stroke11 {fill: #808070;}
        .stroke12 {fill: #808069;}
        .stroke13 {fill: #808068;}
        .stroke14 {fill: #808067;}
        .stroke15 {fill: #808066;}
        .stroke16 {fill: #808065;}
        .stroke17 {fill: #808064;}
        .stroke18 {fill: #808063;}
        .stroke19 {fill: #808062;}
        .stroke20 {fill: #808061;}
        text {
            font-family: Helvetica;
            font-size: 50px;
            fill: #808060;
            paint-order: stroke;
            stroke: #000000;
            stroke-width: 4px;
            stroke-linecap: butt;
            stroke-linejoin: miter;
            font-weight: 800;
        }
    </style>

    <path d="M 533 804 Q 485 764 334 708 Q 327 699 334 696 Q 362 690 530 738 Q 567 757 637 765 Q 655 765 659 773 Q 663 783 652 796 Q 592 847 559 843 Q 552 840 549 829 Q 548 813 533 804 Z" class="stroke1"/>
    <path d="M 285 603 Q 307 578 332 548 Q 344 535 359 533 Q 369 532 377 545 Q 383 558 378 590 Q 372 620 286 652 Q 271 656 264 655 Q 258 652 259 639 Q 260 627 285 603 Z" class="stroke2"/>
    <path d="M 452 660 Q 492 590 516 584 Q 529 580 539 598 Q 543 611 536 632 Q 529 648 508 661 Q 475 680 461 686 Q 452 689 449 678 Q 446 669 452 660 Z" class="stroke3"/>
    <path d="M 687 695 Q 666 668 592 601 Q 580 586 597 588 Q 648 609 676 625 Q 745 662 764 667 Q 785 674 777 692 Q 767 710 744 726 Q 723 742 711 741 Q 699 741 701 728 Q 702 710 687 695 Z" class="stroke4"/>
    <path d="M 530 377 Q 662 467 680 472 Q 701 478 694 495 Q 693 511 626 550 Q 607 560 585 553 Q 515 529 409 503 Q 381 496 315 499 Q 291 500 300 480 Q 307 467 326 455 Q 357 437 391 457 Q 566 515 583 505 Q 595 498 589 484 Q 555 439 516 386 C 498 362 505 360 530 377 Z" class="stroke5"/>
    <path d="M 555 343 Q 548 364 530 377 L 516 386 Q 509 390 499 394 Q 478 401 468 396 Q 455 389 468 376 Q 489 360 501 336 L 513 295 Q 549 148 507 52 Q 492 33 466 43 Q 435 53 408 65 Q 398 69 400 57 Q 404 50 420 34 Q 454 -6 464 -33 Q 471 -52 488 -50 Q 501 -50 530 -27 Q 596 28 583 197 Q 579 258 569 300 L 555 343 Z" class="stroke6"/>
    <path d="M 569 300 Q 668 309 905 309 Q 930 309 936 319 Q 943 334 922 351 Q 846 408 800 385 Q 703 369 555 343 L 501 336 Q 329 315 131 291 Q 106 288 125 267 Q 141 251 164 244 Q 189 237 209 243 Q 327 274 462 289 Q 486 293 513 295 L 569 300 Z" class="stroke7"/>
    
    
    
    
    
    
    </g>
</svg>