<svg version="1.1" viewBox="0 0 1024 1024" xmlns="http://www.w3.org/2000/svg">
  
  <g transform="scale(1, -1) translate(0, -900)">
    <style type="text/css">
        .stroke1 {fill: #808080;}
        .stroke2 {fill: #808079;}
        .stroke3 {fill: #808078;}
        .stroke4 {fill: #808077;}
        .stroke5 {fill: #808076;}
        .stroke6 {fill: #808075;}
        .stroke7 {fill: #808074;}
        .stroke8 {fill: #808073;}
        .stroke9 {fill: #808072;}
        .stroke10 {fill: #808071;}
        .stroke11 {fill: #808070;}
        .stroke12 {fill: #808069;}
        .stroke13 {fill: #808068;}
        .stroke14 {fill: #808067;}
        .stroke15 {fill: #808066;}
        .stroke16 {fill: #808065;}
        .stroke17 {fill: #808064;}
        .stroke18 {fill: #808063;}
        .stroke19 {fill: #808062;}
        .stroke20 {fill: #808061;}
        text {
            font-family: Helvetica;
            font-size: 50px;
            fill: #808060;
            paint-order: stroke;
            stroke: #000000;
            stroke-width: 4px;
            stroke-linecap: butt;
            stroke-linejoin: miter;
            font-weight: 800;
        }
    </style>

    <path d="M 323 547 Q 426 670 463 689 Q 482 696 474 712 Q 470 728 404 757 Q 385 764 364 755 Q 315 733 240 707 Q 221 700 173 698 Q 151 697 159 678 Q 168 666 186 656 Q 217 641 248 662 Q 263 669 342 709 Q 355 715 369 707 Q 382 700 376 685 Q 345 627 308 556 C 294 529 304 524 323 547 Z" class="stroke1"/>
    <path d="M 374 449 Q 356 527 323 547 L 308 556 Q 307 557 306 557 Q 287 566 276 560 Q 263 554 276 541 Q 309 513 326 415 L 332 372 Q 347 228 309 142 Q 294 118 262 127 Q 231 134 204 142 Q 194 145 197 134 Q 201 127 219 114 Q 256 80 269 54 Q 278 36 293 38 Q 306 39 333 62 Q 411 137 381 413 L 374 449 Z" class="stroke2"/>
    <path d="M 381 413 Q 453 476 452 494 Q 445 498 433 491 Q 405 472 374 449 L 326 415 Q 244 360 151 297 Q 132 284 95 272 Q 82 268 84 256 Q 85 243 97 237 Q 125 228 163 220 Q 173 220 183 232 Q 234 295 332 372 L 381 413 Z" class="stroke3"/>
    <path d="M 646 718 Q 758 757 795 763 Q 811 763 816 770 Q 820 780 809 793 Q 749 839 717 836 Q 710 832 709 821 Q 703 779 505 700 Q 501 691 506 688 Q 518 685 609 709 Q 610 710 612 709 L 646 718 Z" class="stroke4"/>
    <path d="M 682 534 Q 621 531 570 526 Q 551 526 560 538 Q 615 605 665 654 Q 680 667 678 675 Q 677 688 646 718 C 625 739 614 739 612 709 Q 615 673 547 577 Q 531 555 502 534 Q 486 521 486 511 Q 489 495 501 477 Q 510 467 521 473 Q 552 489 659 510 Q 660 511 662 510 C 692 514 712 536 682 534 Z" class="stroke5"/>
    <path d="M 652 347 Q 670 359 790 385 C 819 391 802 407 772 403 Q 688 393 590 369 Q 571 365 584 379 Q 740 524 791 555 Q 806 562 801 575 Q 794 597 762 623 Q 746 636 736 634 Q 724 633 724 616 Q 723 592 682 534 L 662 510 Q 518 369 499 362 Q 483 355 485 339 Q 485 326 509 301 Q 519 288 536 298 Q 573 319 611 333 L 652 347 Z" class="stroke6"/>
    <path d="M 790 385 Q 814 352 834 349 Q 844 349 849 361 Q 855 374 849 402 Q 842 429 768 452 Q 755 456 748 455 Q 744 452 743 440 Q 746 430 768 408 Q 769 407 772 403 L 790 385 Z" class="stroke7"/>
    <path d="M 611 333 Q 645 299 641 85 Q 640 82 640 77 Q 639 61 630 54 Q 623 48 612 52 Q 579 62 547 74 Q 534 78 535 70 Q 535 63 545 55 Q 612 -15 632 -55 Q 645 -73 662 -59 Q 704 -20 698 73 Q 686 250 698 288 Q 698 291 699 292 Q 708 310 691 323 Q 673 339 652 347 C 625 359 594 358 611 333 Z" class="stroke8"/>
    <path d="M 490 232 Q 471 186 444 145 Q 426 118 442 87 Q 449 71 467 83 Q 507 113 513 181 Q 517 209 511 232 Q 507 239 501 240 Q 494 239 490 232 Z" class="stroke9"/>
    <path d="M 767 239 Q 813 190 866 119 Q 881 97 896 91 Q 905 90 913 99 Q 926 111 918 157 Q 912 199 842 236 Q 796 260 771 271 Q 762 277 759 265 Q 758 252 767 239 Z" class="stroke10"/>
    
    
    
    
    
    
    
    
    
    </g>
</svg>