<svg version="1.1" viewBox="0 0 1024 1024" xmlns="http://www.w3.org/2000/svg">
  
  <g transform="scale(1, -1) translate(0, -900)">
    <style type="text/css">
        .stroke1 {fill: #808080;}
        .stroke2 {fill: #808079;}
        .stroke3 {fill: #808078;}
        .stroke4 {fill: #808077;}
        .stroke5 {fill: #808076;}
        .stroke6 {fill: #808075;}
        .stroke7 {fill: #808074;}
        .stroke8 {fill: #808073;}
        .stroke9 {fill: #808072;}
        .stroke10 {fill: #808071;}
        .stroke11 {fill: #808070;}
        .stroke12 {fill: #808069;}
        .stroke13 {fill: #808068;}
        .stroke14 {fill: #808067;}
        .stroke15 {fill: #808066;}
        .stroke16 {fill: #808065;}
        .stroke17 {fill: #808064;}
        .stroke18 {fill: #808063;}
        .stroke19 {fill: #808062;}
        .stroke20 {fill: #808061;}
        text {
            font-family: Helvetica;
            font-size: 50px;
            fill: #808060;
            paint-order: stroke;
            stroke: #000000;
            stroke-width: 4px;
            stroke-linecap: butt;
            stroke-linejoin: miter;
            font-weight: 800;
        }
    </style>

    <path d="M 445 785 Q 467 766 493 741 Q 509 726 527 728 Q 539 729 544 744 Q 548 762 537 795 Q 530 814 500 825 Q 425 847 412 839 Q 406 835 409 820 Q 413 807 445 785 Z" class="stroke1"/>
    <path d="M 252 629 Q 240 651 230 660 Q 211 675 209 649 Q 213 618 164 555 Q 128 519 155 459 Q 170 432 190 459 Q 208 484 222 524 Q 237 567 249 595 C 258 618 258 618 252 629 Z" class="stroke2"/>
    <path d="M 249 595 Q 276 582 309 591 Q 438 630 649 654 Q 730 664 734 644 Q 734 643 671 553 Q 664 541 669 536 Q 676 532 692 541 Q 758 581 811 594 Q 854 607 854 616 Q 853 626 784 687 Q 760 709 680 693 Q 601 684 352 643 Q 301 636 252 629 C 222 625 220 604 249 595 Z" class="stroke3"/>
    <path d="M 450 416 Q 459 470 476 499 Q 486 518 469 528 Q 421 568 391 559 Q 375 555 382 538 Q 395 513 387 398 L 380 361 Q 349 241 298 173 Q 295 170 293 166 Q 260 124 136 33 Q 121 23 135 20 Q 150 20 187 34 Q 247 59 292 99 Q 334 133 377 203 Q 383 218 393 231 Q 429 298 441 381 L 450 416 Z" class="stroke4"/>
    <path d="M 941 17 Q 975 29 962 52 Q 932 110 916 200 Q 910 219 902 223 Q 893 227 891 210 Q 882 107 854 78 Q 845 62 794 53 Q 659 29 611 72 Q 583 106 578 162 Q 574 216 604 290 Q 631 360 669 384 Q 700 406 669 426 Q 647 442 626 456 Q 602 471 583 459 Q 558 450 450 416 L 387 398 Q 257 362 200 352 Q 181 349 180 334 Q 180 324 214 311 Q 247 299 290 322 Q 327 343 380 361 L 441 381 Q 546 420 573 404 Q 589 394 580 365 Q 493 142 569 44 Q 597 14 648 -3 Q 702 -18 800 -12 Q 891 -5 941 17 Z" class="stroke5"/>
    
    
    
    
    </g>
</svg>