<svg version="1.1" viewBox="0 0 1024 1024" xmlns="http://www.w3.org/2000/svg">
  
  <g transform="scale(1, -1) translate(0, -900)">
    <style type="text/css">
        .stroke1 {fill: #808080;}
        .stroke2 {fill: #808079;}
        .stroke3 {fill: #808078;}
        .stroke4 {fill: #808077;}
        .stroke5 {fill: #808076;}
        .stroke6 {fill: #808075;}
        .stroke7 {fill: #808074;}
        .stroke8 {fill: #808073;}
        .stroke9 {fill: #808072;}
        .stroke10 {fill: #808071;}
        .stroke11 {fill: #808070;}
        .stroke12 {fill: #808069;}
        .stroke13 {fill: #808068;}
        .stroke14 {fill: #808067;}
        .stroke15 {fill: #808066;}
        .stroke16 {fill: #808065;}
        .stroke17 {fill: #808064;}
        .stroke18 {fill: #808063;}
        .stroke19 {fill: #808062;}
        .stroke20 {fill: #808061;}
        text {
            font-family: Helvetica;
            font-size: 50px;
            fill: #808060;
            paint-order: stroke;
            stroke: #000000;
            stroke-width: 4px;
            stroke-linecap: butt;
            stroke-linejoin: miter;
            font-weight: 800;
        }
    </style>

    <path d="M 485 794 Q 512 770 539 743 Q 554 728 571 729 Q 583 730 589 745 Q 593 761 584 793 Q 572 826 480 846 Q 464 850 456 847 Q 450 843 452 829 Q 456 816 485 794 Z" class="stroke1"/>
    <path d="M 280 647 Q 271 674 257 684 Q 238 700 235 673 Q 239 642 206 601 Q 167 559 169 539 Q 173 506 183 487 Q 198 459 219 487 Q 228 502 276 615 L 280 647 Z" class="stroke2"/>
    <path d="M 276 615 Q 300 603 333 612 Q 475 657 671 677 Q 711 681 725 679 Q 741 666 739 658 Q 740 652 716 584 Q 710 569 717 565 Q 724 561 741 575 Q 793 615 839 630 Q 876 643 874 652 Q 873 662 796 713 Q 769 731 641 704 Q 620 704 376 662 Q 327 653 280 647 C 250 643 247 624 276 615 Z" class="stroke3"/>
    <path d="M 296 341 Q 321 372 348 408 Q 373 448 396 467 Q 406 476 402 489 Q 399 501 375 524 Q 351 543 333 544 Q 315 544 322 523 Q 332 495 320 471 Q 283 395 228 325 Q 176 258 104 184 Q 94 175 92 170 Q 88 160 101 161 Q 134 165 270 310 L 296 341 Z" class="stroke4"/>
    <path d="M 270 310 Q 303 277 269 89 Q 244 17 285 -31 L 286 -33 Q 302 -48 314 -23 Q 327 16 327 59 Q 333 225 339 263 Q 346 288 337 298 Q 309 331 296 341 C 274 361 253 335 270 310 Z" class="stroke5"/>
    <path d="M 595 460 Q 676 476 810 494 Q 820 493 829 506 Q 830 518 807 527 Q 779 548 694 524 Q 670 520 646 512 Q 601 503 448 481 Q 420 477 442 460 Q 454 450 468 442 Q 481 435 503 441 Q 531 448 564 454 L 595 460 Z" class="stroke6"/>
    <path d="M 561 333 Q 564 337 568 342 Q 583 361 599 387 Q 606 399 618 412 Q 631 422 624 431 Q 617 444 595 460 C 571 478 559 484 564 454 Q 570 432 537 344 Q 533 335 531 327 C 523 298 543 309 561 333 Z" class="stroke7"/>
    <path d="M 504 324 Q 485 339 463 344 Q 454 345 449 337 Q 446 333 454 323 Q 490 238 466 94 Q 454 76 462 43 Q 471 15 482 3 Q 492 -9 501 4 Q 510 16 514 38 L 518 70 Q 518 80 519 178 L 518 203 Q 517 267 520 292 C 522 311 522 311 504 324 Z" class="stroke8"/>
    <path d="M 691 50 Q 721 11 742 -24 Q 749 -40 761 -40 Q 776 -39 791 -8 Q 809 28 806 72 Q 782 280 808 313 Q 817 325 808 335 Q 789 354 739 376 Q 723 385 707 376 Q 664 355 594 340 Q 575 337 561 333 L 531 327 Q 515 326 504 324 C 474 320 490 288 520 292 Q 556 295 693 326 Q 715 330 728 322 Q 738 312 740 110 Q 739 88 737 75 Q 733 65 726 64 C 708 40 679 66 691 50 Z" class="stroke9"/>
    <path d="M 519 178 Q 526 177 536 178 Q 620 190 682 196 Q 704 199 697 212 Q 687 227 661 232 Q 633 238 518 203 C 489 194 489 180 519 178 Z" class="stroke10"/>
    <path d="M 514 38 Q 518 38 523 38 Q 578 48 691 50 C 721 51 737 51 726 64 Q 722 71 700 88 Q 685 98 657 92 Q 581 77 518 70 C 488 67 484 38 514 38 Z" class="stroke11"/>
    
    
    
    
    
    
    
    
    
    
    </g>
</svg>