<svg version="1.1" viewBox="0 0 1024 1024" xmlns="http://www.w3.org/2000/svg">
  
  <g transform="scale(1, -1) translate(0, -900)">
    <style type="text/css">
        .stroke1 {fill: #808080;}
        .stroke2 {fill: #808079;}
        .stroke3 {fill: #808078;}
        .stroke4 {fill: #808077;}
        .stroke5 {fill: #808076;}
        .stroke6 {fill: #808075;}
        .stroke7 {fill: #808074;}
        .stroke8 {fill: #808073;}
        .stroke9 {fill: #808072;}
        .stroke10 {fill: #808071;}
        .stroke11 {fill: #808070;}
        .stroke12 {fill: #808069;}
        .stroke13 {fill: #808068;}
        .stroke14 {fill: #808067;}
        .stroke15 {fill: #808066;}
        .stroke16 {fill: #808065;}
        .stroke17 {fill: #808064;}
        .stroke18 {fill: #808063;}
        .stroke19 {fill: #808062;}
        .stroke20 {fill: #808061;}
        text {
            font-family: Helvetica;
            font-size: 50px;
            fill: #808060;
            paint-order: stroke;
            stroke: #000000;
            stroke-width: 4px;
            stroke-linecap: butt;
            stroke-linejoin: miter;
            font-weight: 800;
        }
    </style>

    <path d="M 481 809 Q 503 790 529 765 Q 545 750 563 752 Q 575 753 580 768 Q 584 786 573 819 Q 566 838 536 849 Q 461 871 448 863 Q 442 859 445 844 Q 449 831 481 809 Z" class="stroke1"/>
    <path d="M 265 662 Q 255 684 245 694 Q 227 710 223 684 Q 227 660 208 633 Q 189 614 163 593 Q 151 583 153 561 Q 156 530 163 511 Q 176 483 199 509 Q 217 531 232 564 Q 250 604 263 629 C 272 647 272 647 265 662 Z" class="stroke2"/>
    <path d="M 263 629 Q 282 620 317 628 Q 399 653 639 686 Q 712 695 731 692 Q 747 680 745 672 Q 745 671 721 602 Q 714 589 721 585 Q 728 581 744 593 Q 796 630 838 643 Q 874 655 872 663 Q 871 673 800 723 Q 776 741 664 719 Q 595 713 365 676 Q 316 669 265 662 C 235 658 234 636 263 629 Z" class="stroke3"/>
    <path d="M 254 481 Q 230 438 198 400 Q 174 367 190 334 Q 196 315 218 326 Q 269 356 275 421 Q 282 454 278 479 Q 274 488 268 490 Q 259 489 254 481 Z" class="stroke4"/>
    <path d="M 453 358 Q 574 292 715 300 Q 758 303 781 322 Q 800 338 773 359 Q 724 398 669 465 Q 665 471 659 469 Q 655 465 659 452 Q 683 377 673 365 Q 663 356 600 360 Q 530 367 485 389 L 447 412 Q 405 443 356 501 Q 350 511 343 505 Q 339 501 344 488 Q 368 434 419 384 L 453 358 Z" class="stroke5"/>
    <path d="M 401 569 Q 434 529 466 512 Q 479 509 488 521 Q 492 531 491 547 Q 479 587 414 601 Q 413 602 412 602 Q 397 606 389 603 Q 383 602 386 591 Q 387 581 401 569 Z" class="stroke6"/>
    <path d="M 419 384 Q 322 300 131 187 Q 122 183 132 179 Q 201 179 349 275 Q 349 276 453 358 L 485 389 Q 543 447 622 537 Q 637 555 647 561 Q 654 565 655 575 Q 655 585 645 599 Q 614 638 585 633 Q 576 633 576 620 Q 576 542 447 412 L 419 384 Z" class="stroke7"/>
    <path d="M 728 497 Q 777 464 838 414 Q 856 398 871 396 Q 878 396 885 407 Q 894 420 876 460 Q 863 496 792 513 Q 749 523 725 526 Q 715 530 715 518 Q 716 505 728 497 Z" class="stroke8"/>
    <path d="M 523 77 Q 533 188 547 252 Q 550 261 534 273 Q 506 288 486 292 Q 473 295 466 288 Q 460 281 466 269 Q 479 253 480 239 Q 487 161 488 71 C 488 41 520 47 523 77 Z" class="stroke9"/>
    <path d="M 706 99 Q 609 92 523 77 L 488 71 Q 412 59 349 42 Q 330 38 336 61 Q 340 85 346 109 Q 352 134 342 148 Q 329 167 304 182 Q 294 189 283 187 Q 273 183 278 164 Q 294 122 285 82 Q 278 45 262 28 Q 243 12 249 -4 Q 259 -20 276 -31 Q 285 -37 309 -25 Q 330 -6 460 25 Q 658 77 705 59 Q 706 60 711 60 C 741 57 736 101 706 99 Z" class="stroke10"/>
    <path d="M 711 60 Q 712 35 709 16 Q 702 -11 737 -56 Q 749 -69 758 -55 Q 771 -31 760 84 Q 753 156 760 181 Q 764 197 752 207 Q 730 217 695 229 Q 682 233 671 225 Q 665 221 670 208 Q 686 195 706 99 L 711 60 Z" class="stroke11"/>
    
    
    
    
    
    
    
    
    
    
    </g>
</svg>