<svg version="1.1" viewBox="0 0 1024 1024" xmlns="http://www.w3.org/2000/svg">
  
  <g transform="scale(1, -1) translate(0, -900)">
    <style type="text/css">
        .stroke1 {fill: #808080;}
        .stroke2 {fill: #808079;}
        .stroke3 {fill: #808078;}
        .stroke4 {fill: #808077;}
        .stroke5 {fill: #808076;}
        .stroke6 {fill: #808075;}
        .stroke7 {fill: #808074;}
        .stroke8 {fill: #808073;}
        .stroke9 {fill: #808072;}
        .stroke10 {fill: #808071;}
        .stroke11 {fill: #808070;}
        .stroke12 {fill: #808069;}
        .stroke13 {fill: #808068;}
        .stroke14 {fill: #808067;}
        .stroke15 {fill: #808066;}
        .stroke16 {fill: #808065;}
        .stroke17 {fill: #808064;}
        .stroke18 {fill: #808063;}
        .stroke19 {fill: #808062;}
        .stroke20 {fill: #808061;}
        text {
            font-family: Helvetica;
            font-size: 50px;
            fill: #808060;
            paint-order: stroke;
            stroke: #000000;
            stroke-width: 4px;
            stroke-linecap: butt;
            stroke-linejoin: miter;
            font-weight: 800;
        }
    </style>

    <path d="M 490 820 Q 517 802 546 780 Q 562 768 578 772 Q 588 773 593 788 Q 596 804 582 834 Q 573 852 543 861 Q 468 876 456 867 Q 452 863 454 849 Q 460 839 490 820 Z" class="stroke1"/>
    <path d="M 288 712 Q 279 739 266 748 Q 248 764 245 738 Q 251 702 184 634 Q 162 613 187 555 Q 200 528 222 554 Q 241 579 255 615 Q 273 661 286 687 C 292 700 292 700 288 712 Z" class="stroke2"/>
    <path d="M 286 687 Q 308 671 336 677 Q 483 719 711 736 Q 747 739 760 736 Q 773 726 772 720 Q 773 717 768 705 Q 740 645 745 641 Q 752 637 767 647 Q 816 678 857 687 Q 891 696 890 704 Q 889 713 824 763 Q 803 779 713 765 Q 611 756 396 724 Q 342 717 288 712 C 258 709 259 700 286 687 Z" class="stroke3"/>
    <path d="M 605 577 Q 656 587 729 585 Q 741 584 745 592 Q 748 601 737 612 Q 694 643 624 620 Q 621 620 621 619 L 571 607 Q 513 597 448 582 L 405 574 Q 354 567 302 557 Q 280 553 295 542 Q 325 527 386 537 Q 399 541 414 544 L 450 553 Q 471 563 565 572 L 605 577 Z" class="stroke4"/>
    <path d="M 448 582 Q 447 603 446 619 Q 447 635 430 640 Q 397 658 377 650 Q 362 643 375 626 Q 396 604 405 574 L 414 544 Q 423 502 436 490 Q 448 481 451 491 Q 455 504 450 553 L 448 582 Z" class="stroke5"/>
    <path d="M 621 619 Q 627 632 636 647 Q 646 660 638 668 Q 628 681 599 694 Q 586 701 571 694 Q 562 688 569 680 Q 578 662 571 607 L 565 572 Q 553 530 555 509 Q 556 497 569 507 Q 575 513 605 577 L 621 619 Z" class="stroke6"/>
    <path d="M 354 458 Q 344 464 309 467 Q 297 468 295 464 Q 289 457 299 443 Q 327 394 351 313 Q 355 288 372 274 Q 391 255 394 270 Q 395 274 396 281 L 394 303 Q 393 313 390 324 Q 386 340 382 354 L 377 375 Q 368 411 365 428 C 360 456 360 456 354 458 Z" class="stroke7"/>
    <path d="M 604 308 Q 619 283 632 274 Q 642 267 657 285 Q 669 300 700 390 Q 710 418 732 439 Q 745 449 735 463 Q 722 479 685 505 Q 669 514 583 496 Q 574 496 354 458 C 324 453 336 419 365 428 Q 365 429 366 429 Q 451 451 604 473 Q 638 477 649 466 Q 656 456 654 444 Q 632 350 617 334 C 603 310 603 310 604 308 Z" class="stroke8"/>
    <path d="M 382 354 Q 389 353 400 355 Q 502 371 577 382 Q 595 383 588 394 Q 581 406 561 410 Q 548 413 377 375 C 348 369 352 355 382 354 Z" class="stroke9"/>
    <path d="M 478 290 Q 545 303 604 308 C 634 311 644 322 617 334 Q 613 337 605 338 Q 587 342 555 335 Q 470 317 394 303 C 365 298 366 279 396 281 L 447 285 L 478 290 Z" class="stroke10"/>
    <path d="M 506 181 Q 572 187 849 188 Q 868 188 874 196 Q 880 208 864 222 Q 810 264 761 252 Q 665 236 515 215 L 449 207 Q 314 194 161 178 Q 140 177 155 159 Q 168 144 187 139 Q 208 133 224 137 Q 326 164 444 175 L 506 181 Z" class="stroke11"/>
    <path d="M 515 215 Q 518 228 523 236 Q 529 246 522 255 Q 507 276 478 290 C 452 304 442 310 447 285 L 448 283 Q 455 252 449 207 L 444 175 Q 414 66 321 16 Q 285 -6 190 -28 Q 180 -29 176 -32 Q 170 -36 179 -41 Q 183 -42 197 -43 Q 278 -42 339 -19 Q 451 21 497 156 L 515 215 Z" class="stroke12"/>
    <path d="M 497 156 Q 584 54 680 -39 Q 702 -63 742 -63 Q 814 -67 888 -52 Q 907 -49 909 -44 Q 910 -37 896 -32 Q 721 31 699 43 Q 620 88 514 175 Q 510 179 506 181 L 505 181 C 480 198 477 179 497 156 Z" class="stroke13"/>
    
    
    
    
    
    
    
    
    
    
    
    
    </g>
</svg>