<svg version="1.1" viewBox="0 0 1024 1024" xmlns="http://www.w3.org/2000/svg">
  
  <g transform="scale(1, -1) translate(0, -900)">
    <style type="text/css">
        .stroke1 {fill: #808080;}
        .stroke2 {fill: #808079;}
        .stroke3 {fill: #808078;}
        .stroke4 {fill: #808077;}
        .stroke5 {fill: #808076;}
        .stroke6 {fill: #808075;}
        .stroke7 {fill: #808074;}
        .stroke8 {fill: #808073;}
        .stroke9 {fill: #808072;}
        .stroke10 {fill: #808071;}
        .stroke11 {fill: #808070;}
        .stroke12 {fill: #808069;}
        .stroke13 {fill: #808068;}
        .stroke14 {fill: #808067;}
        .stroke15 {fill: #808066;}
        .stroke16 {fill: #808065;}
        .stroke17 {fill: #808064;}
        .stroke18 {fill: #808063;}
        .stroke19 {fill: #808062;}
        .stroke20 {fill: #808061;}
        text {
            font-family: Helvetica;
            font-size: 50px;
            fill: #808060;
            paint-order: stroke;
            stroke: #000000;
            stroke-width: 4px;
            stroke-linecap: butt;
            stroke-linejoin: miter;
            font-weight: 800;
        }
    </style>

    <path d="M 381 606 Q 486 636 488 637 Q 495 644 491 653 Q 484 663 456 670 Q 422 676 385 657 L 330 639 Q 320 638 314 635 Q 265 623 208 616 Q 172 609 199 594 Q 238 570 296 587 Q 312 591 331 595 L 381 606 Z" class="stroke1"/>
    <path d="M 374 514 Q 377 562 381 606 L 385 657 Q 385 729 403 786 Q 407 798 386 812 Q 350 831 326 835 Q 310 839 302 830 Q 295 823 303 807 Q 322 782 323 763 Q 327 705 330 639 L 331 595 Q 331 552 331 503 C 331 473 372 484 374 514 Z" class="stroke2"/>
    <path d="M 355 469 Q 415 484 489 495 Q 505 498 506 505 Q 507 518 489 526 Q 462 536 440 531 Q 404 522 374 514 L 331 503 Q 135 460 68 451 Q 55 450 53 441 Q 50 431 65 420 Q 101 393 145 407 Q 284 458 313 459 L 355 469 Z" class="stroke3"/>
    <path d="M 379 330 Q 378 331 380 331 Q 452 346 460 357 Q 460 367 439 374 Q 409 389 381 375 L 325 354 Q 286 341 201 321 Q 177 315 197 303 Q 227 282 251 292 Q 282 304 326 315 C 355 322 355 322 379 330 Z" class="stroke4"/>
    <path d="M 373 224 Q 376 281 379 330 L 381 375 Q 390 438 382 446 Q 369 459 355 469 C 331 487 299 485 313 459 Q 314 455 319 449 Q 322 440 325 354 L 326 315 Q 326 273 326 211 C 326 181 371 194 373 224 Z" class="stroke5"/>
    <path d="M 326 211 Q 262 195 194 175 Q 173 169 139 171 Q 126 170 123 158 Q 120 145 131 135 Q 155 117 190 97 Q 200 93 214 102 Q 257 133 303 153 Q 375 181 445 213 Q 473 223 492 239 Q 505 246 507 256 Q 501 263 488 260 Q 433 244 373 224 L 326 211 Z" class="stroke6"/>
    <path d="M 772 520 Q 826 529 902 531 Q 917 531 930 532 Q 949 533 953 542 Q 957 554 941 566 Q 884 603 829 583 Q 804 577 772 568 L 717 554 Q 642 541 555 522 Q 534 519 551 503 Q 579 478 619 488 Q 665 504 718 511 L 772 520 Z" class="stroke7"/>
    <path d="M 718 511 Q 719 358 723 109 Q 723 84 709 73 Q 700 67 628 89 Q 592 104 594 92 Q 595 83 617 67 Q 687 6 705 -27 Q 724 -66 742 -67 Q 758 -68 775 -29 Q 796 22 794 105 Q 775 313 772 520 L 772 568 Q 772 721 789 788 Q 807 822 744 846 Q 707 865 684 857 Q 665 850 683 824 Q 708 794 711 756 Q 714 735 717 554 L 718 511 Z" class="stroke8"/>
    <path d="M 536 352 Q 557 324 578 292 Q 588 277 603 275 Q 613 274 621 285 Q 628 298 626 328 Q 623 356 541 398 Q 528 404 520 403 Q 516 400 514 388 Q 515 376 536 352 Z" class="stroke9"/>
    
    
    
    
    
    
    
    
    </g>
</svg>