<svg version="1.1" viewBox="0 0 1024 1024" xmlns="http://www.w3.org/2000/svg">
  
  <g transform="scale(1, -1) translate(0, -900)">
    <style type="text/css">
        .stroke1 {fill: #808080;}
        .stroke2 {fill: #808079;}
        .stroke3 {fill: #808078;}
        .stroke4 {fill: #808077;}
        .stroke5 {fill: #808076;}
        .stroke6 {fill: #808075;}
        .stroke7 {fill: #808074;}
        .stroke8 {fill: #808073;}
        .stroke9 {fill: #808072;}
        .stroke10 {fill: #808071;}
        .stroke11 {fill: #808070;}
        .stroke12 {fill: #808069;}
        .stroke13 {fill: #808068;}
        .stroke14 {fill: #808067;}
        .stroke15 {fill: #808066;}
        .stroke16 {fill: #808065;}
        .stroke17 {fill: #808064;}
        .stroke18 {fill: #808063;}
        .stroke19 {fill: #808062;}
        .stroke20 {fill: #808061;}
        text {
            font-family: Helvetica;
            font-size: 50px;
            fill: #808060;
            paint-order: stroke;
            stroke: #000000;
            stroke-width: 4px;
            stroke-linecap: butt;
            stroke-linejoin: miter;
            font-weight: 800;
        }
    </style>

    <path d="M 462 780 Q 484 746 484 690 Q 491 521 479 475 Q 478 459 484 442 Q 491 432 496 419 Q 506 403 522 412 Q 537 425 534 513 Q 534 687 563 742 Q 570 752 557 766 Q 497 811 470 800 Q 455 796 462 780 Z" class="stroke1"/>
    <path d="M 303 619 Q 269 564 225 518 Q 215 508 210 489 Q 203 462 210 444 Q 214 423 241 433 Q 301 463 321 550 Q 333 586 330 614 Q 326 624 319 627 Q 309 627 303 619 Z" class="stroke2"/>
    <path d="M 656 610 Q 711 561 779 491 Q 798 469 815 464 Q 825 463 833 475 Q 846 491 831 539 Q 815 603 656 645 Q 646 651 644 637 Q 643 621 656 610 Z" class="stroke3"/>
    <path d="M 536 220 Q 729 247 736 252 Q 746 259 742 270 Q 735 285 703 295 Q 670 305 635 295 Q 587 283 540 273 L 476 262 Q 400 253 315 252 Q 273 249 301 227 Q 352 196 410 206 Q 443 210 477 213 L 536 220 Z" class="stroke4"/>
    <path d="M 523 74 Q 529 150 536 220 L 540 273 Q 540 291 556 348 Q 560 360 539 375 Q 502 394 477 399 Q 461 403 452 394 Q 445 387 453 371 Q 471 346 476 262 L 477 213 Q 478 146 478 70 C 478 40 521 44 523 74 Z" class="stroke5"/>
    <path d="M 478 70 Q 336 60 172 48 Q 147 47 164 27 Q 200 -9 242 0 Q 473 48 860 26 Q 882 25 889 34 Q 896 47 878 64 Q 818 112 777 105 Q 683 90 523 74 L 478 70 Z" class="stroke6"/>
    
    
    
    
    
    </g>
</svg>