<svg version="1.1" viewBox="0 0 1024 1024" xmlns="http://www.w3.org/2000/svg">
  
  <g transform="scale(1, -1) translate(0, -900)">
    <style type="text/css">
        .stroke1 {fill: #808080;}
        .stroke2 {fill: #808079;}
        .stroke3 {fill: #808078;}
        .stroke4 {fill: #808077;}
        .stroke5 {fill: #808076;}
        .stroke6 {fill: #808075;}
        .stroke7 {fill: #808074;}
        .stroke8 {fill: #808073;}
        .stroke9 {fill: #808072;}
        .stroke10 {fill: #808071;}
        .stroke11 {fill: #808070;}
        .stroke12 {fill: #808069;}
        .stroke13 {fill: #808068;}
        .stroke14 {fill: #808067;}
        .stroke15 {fill: #808066;}
        .stroke16 {fill: #808065;}
        .stroke17 {fill: #808064;}
        .stroke18 {fill: #808063;}
        .stroke19 {fill: #808062;}
        .stroke20 {fill: #808061;}
        text {
            font-family: Helvetica;
            font-size: 50px;
            fill: #808060;
            paint-order: stroke;
            stroke: #000000;
            stroke-width: 4px;
            stroke-linecap: butt;
            stroke-linejoin: miter;
            font-weight: 800;
        }
    </style>

    <path d="M 435 641 L 500 655 L 526 661 Q 537 663 563 668 Q 612 680 619 688 Q 627 694 623 702 Q 619 708 610 713 Q 573 730 535 713 Q 496 700 461 690 L 396 673 L 300 659 Q 267 653 290 638 Q 327 619 376 628 L 435 641 Z" class="stroke1"/>
    <path d="M 320 468 Q 390 555 435 641 L 461 690 Q 483 748 492 782 Q 502 790 496 800 Q 491 809 474 822 Q 447 843 434 841 Q 421 839 422 824 Q 422 751 396 673 L 376 628 Q 302 484 92 345 Q 84 338 90 335 Q 106 329 165 359 Q 239 396 294 443 L 320 468 Z" class="stroke2"/>
    <path d="M 500 655 Q 526 610 749 414 Q 791 371 958 408 Q 978 411 978 416 Q 978 421 964 427 Q 935 437 901 449 Q 782 490 753 504 Q 711 523 629 576 L 612 590 L 607 594 Q 596 603 526 661 C 503 680 483 680 500 655 Z" class="stroke3"/>
    <path d="M 204 572 Q 253 517 273 516 Q 280 516 286 521 Q 299 535 282 564 Q 261 591 206 597 Q 197 598 197 588 Q 196 580 204 572 Z" class="stroke4"/>
    <path d="M 629 576 Q 698 616 730 629 Q 759 635 723 675 Q 708 691 687 696 Q 673 696 674 679 Q 674 660 612 590 C 592 568 603 561 629 576 Z" class="stroke5"/>
    <path d="M 343 463 Q 337 466 320 468 C 290 472 278 468 294 443 Q 327 394 333 276 Q 336 251 351 234 Q 367 215 371 229 Q 372 236 374 246 L 373 267 Q 372 272 371 284 Q 363 306 362 339 L 358 363 L 353 433 C 351 460 351 460 343 463 Z" class="stroke6"/>
    <path d="M 535 265 Q 547 247 558 240 Q 572 231 586 251 Q 596 310 617 392 Q 623 412 634 427 L 650 444 Q 657 453 648 464 Q 633 480 598 501 Q 584 508 517 494 Q 514 494 409 474 L 343 463 C 313 458 324 425 353 433 Q 410 450 530 466 Q 574 472 570 441 Q 559 343 538 290 C 531 270 531 270 535 265 Z" class="stroke7"/>
    <path d="M 362 339 Q 368 337 384 339 Q 478 353 518 357 Q 541 361 532 372 Q 519 390 490 391 Q 455 392 358 363 C 329 354 332 344 362 339 Z" class="stroke8"/>
    <path d="M 494 261 Q 517 265 535 265 C 565 266 565 276 538 290 Q 534 293 527 294 Q 515 298 373 267 C 344 261 344 246 374 246 L 388 246 Q 423 253 449 255 L 494 261 Z" class="stroke9"/>
    <path d="M 514 191 Q 521 231 507 249 L 494 261 C 472 281 443 284 449 255 Q 458 220 458 63 Q 457 29 453 20 Q 450 10 435 11 Q 434 11 373 22 Q 361 24 361 17 Q 360 10 369 2 Q 431 -51 451 -80 Q 466 -94 475 -91 Q 486 -88 499 -55 Q 514 -22 514 39 Q 514 106 514 191 Z" class="stroke10"/>
    <path d="M 290 184 Q 282 182 272 172 Q 247 133 222 106 Q 198 76 212 43 Q 216 24 237 33 Q 284 63 294 118 Q 298 131 300 144 Q 304 178 290 184 Z" class="stroke11"/>
    <path d="M 593 198 Q 592 195 593 192 Q 594 184 612 168 Q 671 112 706 74 Q 733 37 751 59 Q 763 72 751 114 Q 742 144 704 167 Q 678 180 603 206 Q 594 210 593 198 Z" class="stroke12"/>
    
    
    
    
    
    
    
    
    
    
    
    </g>
</svg>