<svg version="1.1" viewBox="0 0 1024 1024" xmlns="http://www.w3.org/2000/svg">
  
  <g transform="scale(1, -1) translate(0, -900)">
    <style type="text/css">
        .stroke1 {fill: #808080;}
        .stroke2 {fill: #808079;}
        .stroke3 {fill: #808078;}
        .stroke4 {fill: #808077;}
        .stroke5 {fill: #808076;}
        .stroke6 {fill: #808075;}
        .stroke7 {fill: #808074;}
        .stroke8 {fill: #808073;}
        .stroke9 {fill: #808072;}
        .stroke10 {fill: #808071;}
        .stroke11 {fill: #808070;}
        .stroke12 {fill: #808069;}
        .stroke13 {fill: #808068;}
        .stroke14 {fill: #808067;}
        .stroke15 {fill: #808066;}
        .stroke16 {fill: #808065;}
        .stroke17 {fill: #808064;}
        .stroke18 {fill: #808063;}
        .stroke19 {fill: #808062;}
        .stroke20 {fill: #808061;}
        text {
            font-family: Helvetica;
            font-size: 50px;
            fill: #808060;
            paint-order: stroke;
            stroke: #000000;
            stroke-width: 4px;
            stroke-linecap: butt;
            stroke-linejoin: miter;
            font-weight: 800;
        }
    </style>

    <path d="M 327 506 Q 492 555 496 559 Q 505 568 500 576 Q 493 588 462 594 Q 438 597 336 559 L 280 540 Q 213 524 140 511 Q 103 502 130 487 Q 175 463 234 482 Q 250 488 272 491 L 327 506 Z" class="stroke1"/>
    <path d="M 272 491 Q 236 338 189 233 Q 140 137 68 35 Q 62 28 60 22 Q 57 12 68 13 Q 102 19 196 152 Q 215 183 235 220 Q 295 346 327 506 L 336 559 Q 354 700 364 730 Q 373 745 366 759 Q 350 777 319 792 Q 300 804 287 799 Q 274 792 280 778 Q 298 748 298 698 Q 282 550 280 540 L 272 491 Z" class="stroke2"/>
    <path d="M 363 361 Q 345 145 363 86 Q 367 53 399 27 Q 507 -48 742 -18 Q 770 -12 800 -5 Q 861 11 922 49 Q 943 67 926 95 Q 911 122 886 205 Q 885 221 877 226 Q 870 229 867 210 Q 846 119 829 89 Q 772 26 594 32 Q 524 33 471 55 Q 425 77 412 105 Q 379 178 422 411 Q 428 442 378 463 Q 365 467 356 463 Q 349 459 354 440 Q 367 400 363 361 Z" class="stroke3"/>
    <path d="M 440 680 Q 468 659 500 633 Q 512 623 525 624 Q 534 625 537 636 Q 540 649 532 673 Q 520 703 434 719 Q 421 720 416 719 Q 412 715 414 705 Q 417 696 440 680 Z" class="stroke4"/>
    <path d="M 681 722 Q 694 665 603 554 Q 602 553 600 550 Q 575 519 509 459 Q 502 455 511 452 Q 559 452 650 546 Q 653 552 659 556 Q 692 593 742 667 Q 749 676 753 680 Q 760 684 758 694 Q 757 703 746 714 Q 718 739 687 735 Q 680 734 681 722 Z" class="stroke5"/>
    <path d="M 739 568 Q 742 501 634 390 Q 631 389 630 386 Q 597 355 518 295 Q 511 291 519 287 Q 577 287 682 378 Q 686 384 693 389 Q 733 426 795 503 Q 804 513 809 517 Q 816 521 816 531 Q 813 556 776 573 Q 757 582 747 581 Q 738 580 739 568 Z" class="stroke6"/>
    <path d="M 794 417 Q 797 338 661 204 Q 658 203 656 199 Q 616 162 518 92 Q 509 88 520 84 Q 556 80 676 160 Q 701 179 730 205 Q 778 250 853 343 Q 863 356 870 360 Q 879 364 878 375 Q 874 406 834 423 Q 813 432 802 431 Q 792 430 794 417 Z" class="stroke7"/>
    
    
    
    
    
    
    </g>
</svg>