<svg version="1.1" viewBox="0 0 1024 1024" xmlns="http://www.w3.org/2000/svg">
  
  <g transform="scale(1, -1) translate(0, -900)">
    <style type="text/css">
        .stroke1 {fill: #808080;}
        .stroke2 {fill: #808079;}
        .stroke3 {fill: #808078;}
        .stroke4 {fill: #808077;}
        .stroke5 {fill: #808076;}
        .stroke6 {fill: #808075;}
        .stroke7 {fill: #808074;}
        .stroke8 {fill: #808073;}
        .stroke9 {fill: #808072;}
        .stroke10 {fill: #808071;}
        .stroke11 {fill: #808070;}
        .stroke12 {fill: #808069;}
        .stroke13 {fill: #808068;}
        .stroke14 {fill: #808067;}
        .stroke15 {fill: #808066;}
        .stroke16 {fill: #808065;}
        .stroke17 {fill: #808064;}
        .stroke18 {fill: #808063;}
        .stroke19 {fill: #808062;}
        .stroke20 {fill: #808061;}
        text {
            font-family: Helvetica;
            font-size: 50px;
            fill: #808060;
            paint-order: stroke;
            stroke: #000000;
            stroke-width: 4px;
            stroke-linecap: butt;
            stroke-linejoin: miter;
            font-weight: 800;
        }
    </style>

    <path d="M 309 584 Q 433 626 437 629 Q 444 636 440 645 Q 433 655 403 660 Q 372 663 315 635 L 259 614 Q 258 614 256 613 Q 204 597 142 585 Q 108 576 134 562 Q 177 543 229 560 Q 239 564 254 567 L 309 584 Z" class="stroke1"/>
    <path d="M 254 567 Q 220 357 147 222 Q 83 113 63 83 Q 59 76 56 70 Q 53 60 64 61 Q 97 65 184 199 Q 202 230 221 266 Q 281 401 309 584 L 315 635 Q 316 641 317 645 Q 326 744 334 763 Q 343 778 335 791 Q 319 809 287 823 Q 268 835 255 829 Q 242 822 249 808 Q 271 775 267 713 Q 261 629 259 614 L 254 567 Z" class="stroke2"/>
    <path d="M 949 132 Q 937 160 924 246 Q 924 261 917 266 Q 911 269 907 253 Q 879 162 861 134 Q 834 103 760 82 Q 589 37 445 89 Q 390 114 375 148 Q 338 226 381 473 Q 387 503 338 523 Q 325 527 317 522 Q 310 518 316 501 Q 328 462 325 425 Q 309 193 328 129 Q 334 93 368 65 Q 480 -10 723 16 Q 766 22 809 33 Q 876 52 943 95 Q 961 108 949 132 Z" class="stroke3"/>
    <path d="M 620 696 Q 633 738 663 772 Q 670 782 665 796 Q 661 808 630 827 Q 603 842 585 840 Q 567 836 577 816 Q 593 789 584 763 Q 539 613 416 434 Q 407 424 405 417 Q 404 407 416 410 Q 471 428 606 669 Q 609 675 612 680 L 620 696 Z" class="stroke4"/>
    <path d="M 612 680 Q 613 673 620 665 Q 695 563 792 456 Q 808 440 835 441 Q 926 445 954 451 Q 963 452 964 457 Q 964 461 952 467 Q 825 510 768 557 Q 704 611 630 688 Q 626 694 620 696 C 597 715 599 707 612 680 Z" class="stroke5"/>
    <path d="M 512 447 Q 539 404 513 288 Q 509 273 502 255 Q 490 224 447 180 Q 434 168 431 163 Q 430 157 440 157 Q 491 157 541 234 Q 541 235 543 237 Q 562 277 584 422 Q 590 440 572 449 Q 529 471 516 470 Q 498 467 512 447 Z" class="stroke6"/>
    <path d="M 677 133 Q 681 111 687 103 Q 691 96 698 99 Q 705 102 710 115 Q 723 160 722 240 Q 721 274 726 408 Q 726 417 732 453 Q 735 469 723 477 Q 695 496 681 498 Q 671 502 656 495 Q 649 488 654 479 Q 666 452 669 437 Q 672 358 672 235 Q 673 159 677 133 Z" class="stroke7"/>
    
    
    
    
    
    
    </g>
</svg>