<svg version="1.1" viewBox="0 0 1024 1024" xmlns="http://www.w3.org/2000/svg">
  
  <g transform="scale(1, -1) translate(0, -900)">
    <style type="text/css">
        .stroke1 {fill: #808080;}
        .stroke2 {fill: #808079;}
        .stroke3 {fill: #808078;}
        .stroke4 {fill: #808077;}
        .stroke5 {fill: #808076;}
        .stroke6 {fill: #808075;}
        .stroke7 {fill: #808074;}
        .stroke8 {fill: #808073;}
        .stroke9 {fill: #808072;}
        .stroke10 {fill: #808071;}
        .stroke11 {fill: #808070;}
        .stroke12 {fill: #808069;}
        .stroke13 {fill: #808068;}
        .stroke14 {fill: #808067;}
        .stroke15 {fill: #808066;}
        .stroke16 {fill: #808065;}
        .stroke17 {fill: #808064;}
        .stroke18 {fill: #808063;}
        .stroke19 {fill: #808062;}
        .stroke20 {fill: #808061;}
        text {
            font-family: Helvetica;
            font-size: 50px;
            fill: #808060;
            paint-order: stroke;
            stroke: #000000;
            stroke-width: 4px;
            stroke-linecap: butt;
            stroke-linejoin: miter;
            font-weight: 800;
        }
    </style>

    <path d="M 667 678 Q 703 738 729 748 Q 748 766 733 786 Q 717 801 663 831 Q 644 840 621 832 Q 524 793 365 768 C 335 763 359 730 389 735 Q 401 736 600 779 Q 624 786 634 776 Q 641 763 609 680 C 598 652 651 652 667 678 Z" class="stroke1"/>
    <path d="M 360 595 Q 375 591 391 593 Q 482 618 681 645 Q 691 646 692 656 Q 692 663 667 678 C 647 690 638 688 609 680 Q 473 643 364 625 C 334 620 331 601 360 595 Z" class="stroke2"/>
    <path d="M 365 768 Q 325 798 305 792 Q 292 785 298 770 Q 319 736 313 682 Q 282 445 245 344 L 227 296 Q 175 179 77 44 Q 71 37 68 31 Q 65 19 76 21 Q 112 27 206 155 Q 225 186 246 222 Q 327 379 360 595 L 364 625 Q 368 653 373 678 Q 377 700 384 720 Q 388 727 389 735 C 394 749 390 751 365 768 Z" class="stroke3"/>
    <path d="M 606 492 Q 627 498 779 524 Q 789 523 798 535 Q 798 545 777 555 Q 743 573 665 548 Q 580 526 371 487 Q 344 483 366 467 Q 391 449 406 448 L 444 455 Q 502 471 575 486 L 606 492 Z" class="stroke4"/>
    <path d="M 406 448 Q 416 417 350 323 Q 319 280 275 231 Q 266 224 264 219 Q 261 212 272 212 Q 284 215 322 246 L 340 261 Q 349 271 360 282 Q 384 306 410 337 L 422 352 Q 447 391 466 405 Q 473 412 471 424 Q 470 430 444 455 C 423 476 402 478 406 448 Z" class="stroke5"/>
    <path d="M 410 337 Q 417 328 445 328 Q 472 328 473 324 Q 477 311 457 266 Q 441 217 384 151 Q 330 81 240 14 Q 219 2 237 3 Q 262 3 305 27 Q 351 52 401 106 Q 462 170 512 259 Q 534 301 550 313 Q 562 320 557 332 Q 554 342 510 366 Q 500 372 479 363 Q 461 356 422 352 C 392 348 388 348 410 337 Z" class="stroke6"/>
    <path d="M 322 246 Q 373 177 377 175 Q 378 175 381 174 Q 388 173 394 181 Q 398 190 398 211 Q 395 235 340 261 C 313 274 304 270 322 246 Z" class="stroke7"/>
    <path d="M 627 254 Q 663 272 778 338 Q 799 351 825 360 Q 847 367 839 386 Q 827 405 803 423 Q 781 439 767 438 Q 754 438 757 424 Q 758 393 686 330 Q 658 306 628 279 C 606 259 600 240 627 254 Z" class="stroke8"/>
    <path d="M 628 279 Q 632 355 647 444 Q 651 463 639 473 Q 626 485 606 492 C 579 506 569 511 575 486 Q 575 482 578 471 Q 591 431 590 393 Q 577 149 598 81 Q 604 56 627 33 Q 711 -40 877 -10 Q 886 -7 896 -5 Q 936 7 974 36 Q 993 51 982 78 Q 969 106 956 196 Q 956 212 949 218 Q 943 222 937 204 Q 904 110 884 82 Q 874 66 838 57 Q 753 38 684 69 Q 656 84 647 102 Q 622 153 627 254 L 628 279 Z" class="stroke9"/>
    
    
    
    
    
    
    
    
    </g>
</svg>