<svg version="1.1" viewBox="0 0 1024 1024" xmlns="http://www.w3.org/2000/svg">
  
  <g transform="scale(1, -1) translate(0, -900)">
    <style type="text/css">
        .stroke1 {fill: #808080;}
        .stroke2 {fill: #808079;}
        .stroke3 {fill: #808078;}
        .stroke4 {fill: #808077;}
        .stroke5 {fill: #808076;}
        .stroke6 {fill: #808075;}
        .stroke7 {fill: #808074;}
        .stroke8 {fill: #808073;}
        .stroke9 {fill: #808072;}
        .stroke10 {fill: #808071;}
        .stroke11 {fill: #808070;}
        .stroke12 {fill: #808069;}
        .stroke13 {fill: #808068;}
        .stroke14 {fill: #808067;}
        .stroke15 {fill: #808066;}
        .stroke16 {fill: #808065;}
        .stroke17 {fill: #808064;}
        .stroke18 {fill: #808063;}
        .stroke19 {fill: #808062;}
        .stroke20 {fill: #808061;}
        text {
            font-family: Helvetica;
            font-size: 50px;
            fill: #808060;
            paint-order: stroke;
            stroke: #000000;
            stroke-width: 4px;
            stroke-linecap: butt;
            stroke-linejoin: miter;
            font-weight: 800;
        }
    </style>

    <path d="M 413 704 Q 464 746 504 786 Q 520 805 543 819 Q 562 832 549 848 Q 533 864 505 874 Q 478 884 466 879 Q 453 875 460 862 Q 466 841 415 746 Q 403 728 392 707 Q 389 701 390 697 C 388 683 390 685 413 704 Z" class="stroke1"/>
    <path d="M 359 416 Q 358 441 360 474 L 360 500 Q 360 510 361 522 Q 362 547 364 568 L 366 595 Q 370 649 377 656 Q 377 657 378 659 C 385 676 385 676 366 693 Q 338 721 308 722 Q 296 722 293 712 Q 292 702 300 695 Q 336 634 311 352 Q 307 325 303 316 Q 300 309 302 302 Q 303 292 317 282 Q 332 269 339 268 Q 349 271 365 275 C 374 277 368 317 363 347 Q 360 359 359 390 L 359 416 Z" class="stroke2"/>
    <path d="M 594 521 Q 600 509 612 509 Q 628 510 637 526 Q 647 535 670 585 Q 689 640 730 671 Q 752 687 735 705 Q 716 724 663 754 Q 644 766 573 745 Q 537 745 413 704 L 390 697 Q 377 696 366 693 C 337 687 349 652 378 659 Q 385 659 393 662 Q 454 686 593 715 Q 618 719 627 715 Q 634 709 629 683 Q 617 628 593 557 C 584 530 584 530 594 521 Z" class="stroke3"/>
    <path d="M 364 568 Q 403 568 479 584 Q 539 600 540 601 Q 547 608 543 615 Q 536 624 513 629 Q 501 632 415 606 Q 393 600 366 595 C 337 589 334 568 364 568 Z" class="stroke4"/>
    <path d="M 360 474 Q 372 473 390 476 Q 504 503 594 521 C 623 527 623 555 593 557 Q 592 558 591 558 Q 570 559 360 500 C 331 492 330 475 360 474 Z" class="stroke5"/>
    <path d="M 359 390 Q 399 387 449 392 Q 605 428 611 432 Q 618 439 615 446 Q 608 456 583 462 Q 558 466 532 456 Q 495 443 453 432 Q 410 422 359 416 C 329 412 329 392 359 390 Z" class="stroke6"/>
    <path d="M 365 275 Q 399 299 576 329 Q 750 360 787 338 Q 802 328 800 307 Q 801 294 783 165 Q 768 89 752 61 Q 742 31 710 31 Q 683 35 655 37 Q 636 43 632 37 Q 629 31 647 20 Q 717 -49 723 -72 Q 729 -82 740 -83 Q 758 -84 793 -47 Q 826 -10 833 36 Q 878 307 900 322 Q 910 331 909 339 Q 910 348 872 375 Q 835 397 827 399 Q 814 400 785 393 Q 764 389 737 387 Q 682 386 593 369 Q 479 353 411 336 Q 372 320 363 347 C 338 364 338 262 365 275 Z" class="stroke7"/>
    <path d="M 444 112 Q 462 214 470 235 Q 473 244 457 256 Q 429 272 410 277 Q 397 280 390 273 Q 383 267 390 255 Q 405 234 407 105 C 408 75 439 82 444 112 Z" class="stroke8"/>
    <path d="M 568 131 Q 502 125 444 112 L 407 105 Q 344 95 291 77 Q 276 74 281 92 Q 300 177 292 194 Q 279 210 259 225 Q 249 231 239 230 Q 229 226 235 208 Q 251 163 240 121 Q 233 81 213 63 Q 197 47 203 34 Q 213 21 228 10 Q 240 3 249 9 Q 268 30 382 62 Q 520 104 568 98 C 598 97 598 134 568 131 Z" class="stroke9"/>
    <path d="M 568 98 Q 568 74 592 49 Q 602 39 611 51 Q 620 70 620 160 Q 619 178 621 196 Q 625 218 605 227 Q 589 236 572 242 Q 559 246 551 239 Q 544 232 549 218 Q 556 203 568 131 L 568 98 Z" class="stroke10"/>
    
    
    
    
    
    
    
    
    
    </g>
</svg>