<svg version="1.1" viewBox="0 0 1024 1024" xmlns="http://www.w3.org/2000/svg">
  
  <g transform="scale(1, -1) translate(0, -900)">
    <style type="text/css">
        .stroke1 {fill: #808080;}
        .stroke2 {fill: #808079;}
        .stroke3 {fill: #808078;}
        .stroke4 {fill: #808077;}
        .stroke5 {fill: #808076;}
        .stroke6 {fill: #808075;}
        .stroke7 {fill: #808074;}
        .stroke8 {fill: #808073;}
        .stroke9 {fill: #808072;}
        .stroke10 {fill: #808071;}
        .stroke11 {fill: #808070;}
        .stroke12 {fill: #808069;}
        .stroke13 {fill: #808068;}
        .stroke14 {fill: #808067;}
        .stroke15 {fill: #808066;}
        .stroke16 {fill: #808065;}
        .stroke17 {fill: #808064;}
        .stroke18 {fill: #808063;}
        .stroke19 {fill: #808062;}
        .stroke20 {fill: #808061;}
        text {
            font-family: Helvetica;
            font-size: 50px;
            fill: #808060;
            paint-order: stroke;
            stroke: #000000;
            stroke-width: 4px;
            stroke-linecap: butt;
            stroke-linejoin: miter;
            font-weight: 800;
        }
    </style>

    <path d="M 525 688 Q 546 796 559 830 Q 563 840 546 854 Q 516 873 495 878 Q 482 882 474 874 Q 467 868 473 855 Q 491 827 486 682 C 485 652 519 659 525 688 Z" class="stroke1"/>
    <path d="M 690 706 Q 602 700 525 688 L 486 682 Q 410 672 345 654 Q 326 650 331 673 Q 335 700 341 727 Q 345 749 337 762 Q 307 799 282 796 Q 272 792 279 775 Q 295 735 287 695 Q 281 658 265 641 Q 247 626 254 613 Q 264 598 278 588 Q 291 581 300 588 Q 340 631 613 670 Q 667 677 689 672 C 719 669 720 708 690 706 Z" class="stroke2"/>
    <path d="M 689 672 Q 690 656 694 643 Q 698 627 713 635 Q 743 657 761 734 Q 771 750 778 764 Q 782 771 789 778 Q 799 791 793 806 Q 777 825 750 849 Q 740 858 726 854 Q 719 853 718 839 Q 725 827 722 778 Q 712 741 697 720 Q 693 716 690 706 L 689 672 Z" class="stroke3"/>
    <path d="M 296 515 Q 295 516 293 517 Q 248 539 235 537 Q 216 534 231 514 Q 264 454 237 253 Q 225 199 199 136 Q 169 67 87 -7 Q 74 -19 71 -25 Q 70 -31 80 -31 Q 116 -31 185 41 Q 275 140 294 347 Q 298 399 301 460 Q 302 473 305 482 C 310 508 310 508 296 515 Z" class="stroke4"/>
    <path d="M 305 482 Q 312 483 320 485 Q 500 513 667 548 Q 679 549 684 544 Q 687 541 677 425 Q 629 -88 952 -80 Q 955 -79 960 -79 Q 976 -78 980 -69 Q 989 -56 977 -27 Q 965 16 964 92 Q 965 105 958 114 Q 951 123 944 102 Q 922 32 910 11 Q 906 2 897 0 Q 887 -4 877 -3 Q 846 0 814 30 Q 727 103 725 271 Q 721 356 741 444 Q 754 505 792 544 Q 805 554 794 565 Q 781 583 742 599 Q 708 614 692 605 Q 529 538 296 515 C 266 512 275 477 305 482 Z" class="stroke5"/>
    <path d="M 480 406 Q 525 425 572 432 Q 585 432 589 438 Q 593 447 583 456 Q 535 495 510 492 Q 503 489 502 481 Q 502 450 341 386 Q 337 379 341 376 Q 387 385 436 394 L 480 406 Z" class="stroke6"/>
    <path d="M 366 307 Q 356 311 332 316 Q 322 319 318 315 Q 314 309 320 296 Q 339 256 352 191 Q 355 172 366 158 Q 381 139 386 152 Q 387 159 389 167 L 387 197 Q 380 257 377 279 C 374 304 374 304 366 307 Z" class="stroke7"/>
    <path d="M 600 218 Q 625 278 648 290 Q 664 306 651 322 Q 636 334 591 356 Q 575 363 557 356 Q 523 343 492 332 L 445 321 Q 405 314 366 307 C 336 302 347 274 377 279 Q 387 280 402 284 Q 423 288 445 291 L 491 301 Q 558 316 567 309 Q 577 297 556 225 C 548 196 588 190 600 218 Z" class="stroke8"/>
    <path d="M 488 180 Q 539 186 609 190 Q 618 191 619 198 Q 619 204 600 218 C 586 229 586 229 556 225 Q 555 226 553 225 Q 519 218 489 212 L 445 204 Q 414 200 387 197 C 357 194 359 165 389 167 Q 393 167 401 168 Q 419 172 445 174 L 488 180 Z" class="stroke9"/>
    <path d="M 485 78 Q 486 132 488 180 L 489 212 Q 490 258 491 301 L 492 332 Q 492 342 495 370 Q 501 389 480 406 C 458 427 424 421 436 394 Q 445 385 445 321 L 445 291 Q 445 258 445 204 L 445 174 Q 445 129 445 70 C 445 40 484 48 485 78 Z" class="stroke10"/>
    <path d="M 569 98 Q 527 89 485 78 L 445 70 Q 390 60 330 47 Q 311 43 282 46 Q 269 45 266 35 Q 263 22 272 14 Q 293 -4 324 -25 Q 334 -29 347 -21 Q 381 1 554 63 Q 569 69 583 76 C 610 89 598 104 569 98 Z" class="stroke11"/>
    <path d="M 583 76 Q 632 -5 644 -10 Q 654 -11 661 -3 Q 668 7 670 35 Q 671 74 578 140 Q 566 147 560 147 Q 556 146 553 134 Q 553 124 569 99 L 569 98 L 583 76 Z" class="stroke12"/>
    
    
    
    
    
    
    
    
    
    
    
    </g>
</svg>