<svg version="1.1" viewBox="0 0 1024 1024" xmlns="http://www.w3.org/2000/svg">
  
  <g transform="scale(1, -1) translate(0, -900)">
    <style type="text/css">
        .stroke1 {fill: #808080;}
        .stroke2 {fill: #808079;}
        .stroke3 {fill: #808078;}
        .stroke4 {fill: #808077;}
        .stroke5 {fill: #808076;}
        .stroke6 {fill: #808075;}
        .stroke7 {fill: #808074;}
        .stroke8 {fill: #808073;}
        .stroke9 {fill: #808072;}
        .stroke10 {fill: #808071;}
        .stroke11 {fill: #808070;}
        .stroke12 {fill: #808069;}
        .stroke13 {fill: #808068;}
        .stroke14 {fill: #808067;}
        .stroke15 {fill: #808066;}
        .stroke16 {fill: #808065;}
        .stroke17 {fill: #808064;}
        .stroke18 {fill: #808063;}
        .stroke19 {fill: #808062;}
        .stroke20 {fill: #808061;}
        text {
            font-family: Helvetica;
            font-size: 50px;
            fill: #808060;
            paint-order: stroke;
            stroke: #000000;
            stroke-width: 4px;
            stroke-linecap: butt;
            stroke-linejoin: miter;
            font-weight: 800;
        }
    </style>

    <path d="M 541 695 Q 559 788 570 816 Q 574 826 557 839 Q 529 857 508 861 Q 495 865 488 858 Q 481 852 487 839 Q 502 820 503 689 C 503 659 535 666 541 695 Z" class="stroke1"/>
    <path d="M 697 710 Q 615 707 541 695 L 503 689 Q 436 682 377 666 Q 361 663 366 683 Q 384 746 376 761 Q 363 779 343 793 Q 333 800 324 799 Q 314 796 319 778 Q 331 739 321 704 Q 314 670 298 656 Q 280 641 286 628 Q 295 613 310 602 Q 317 598 339 607 Q 400 647 605 673 Q 675 683 695 676 C 725 671 727 711 697 710 Z" class="stroke2"/>
    <path d="M 695 676 Q 696 658 702 645 Q 708 629 720 639 Q 744 658 757 732 Q 772 766 780 774 Q 789 786 781 799 Q 766 815 739 835 Q 729 842 717 839 Q 710 836 711 824 Q 718 817 719 769 Q 713 744 697 710 L 695 676 Z" class="stroke3"/>
    <path d="M 319 512 Q 355 502 448 515 Q 725 560 747 567 Q 750 568 753 570 Q 762 577 758 585 Q 752 597 726 604 Q 701 611 609 585 Q 431 546 314 541 Q 310 541 308 539 C 278 534 290 518 319 512 Z" class="stroke4"/>
    <path d="M 308 539 Q 295 551 277 560 Q 261 572 248 568 Q 236 562 241 549 Q 254 519 251 477 Q 248 464 247 447 Q 229 300 185 200 Q 143 107 72 16 Q 68 10 65 5 Q 61 -5 71 -4 Q 110 5 183 109 Q 192 125 203 142 Q 267 259 306 473 Q 310 489 315 503 Q 318 507 319 512 C 325 526 325 526 308 539 Z" class="stroke5"/>
    <path d="M 343 455 Q 373 407 390 404 Q 399 401 406 414 Q 407 424 403 439 Q 391 461 349 474 Q 342 475 341 468 Q 340 462 343 455 Z" class="stroke6"/>
    <path d="M 456 383 Q 528 473 533 477 Q 545 487 535 498 Q 522 505 502 510 Q 484 514 476 510 Q 469 506 474 498 Q 480 486 438 376 C 427 348 437 360 456 383 Z" class="stroke7"/>
    <path d="M 406 332 Q 524 360 527 363 Q 534 369 530 375 Q 526 384 503 389 Q 481 393 458 384 Q 457 384 456 383 L 438 376 Q 416 372 396 365 Q 360 356 318 352 Q 290 348 310 335 Q 331 323 373 325 L 406 332 Z" class="stroke8"/>
    <path d="M 419 176 Q 449 185 466 186 C 496 189 505 220 475 215 Q 448 211 424 204 L 383 194 Q 352 187 325 177 Q 318 177 321 184 Q 340 242 335 256 Q 328 269 311 282 Q 304 288 297 288 Q 288 287 292 272 Q 299 238 289 207 Q 280 177 266 166 Q 253 154 257 144 Q 264 134 277 125 Q 286 118 294 124 Q 309 142 376 162 L 419 176 Z" class="stroke9"/>
    <path d="M 466 186 Q 466 170 476 146 Q 482 134 491 142 Q 510 157 516 218 Q 528 257 534 267 Q 541 277 534 288 Q 521 300 498 315 Q 491 321 481 317 Q 475 314 476 304 Q 488 292 483 247 Q 480 231 475 215 L 466 186 Z" class="stroke10"/>
    <path d="M 376 162 Q 349 65 272 9 Q 262 0 251 -9 Q 241 -16 251 -18 Q 293 -18 348 40 Q 397 88 419 176 L 424 204 Q 424 207 425 209 Q 434 281 442 298 Q 448 311 435 317 Q 416 332 406 332 C 377 341 359 346 373 325 Q 397 301 383 194 L 376 162 Z" class="stroke11"/>
    <path d="M 621 404 Q 654 459 670 473 Q 683 486 670 497 Q 655 506 632 510 Q 610 513 602 508 Q 592 504 600 494 Q 612 470 548 318 L 546 312 Q 543 296 555 304 Q 592 353 611 386 L 621 404 Z" class="stroke12"/>
    <path d="M 611 386 Q 610 386 611 385 Q 629 366 651 373 Q 723 409 750 403 Q 766 396 763 386 Q 763 383 734 325 Q 730 318 733 313 Q 736 309 744 318 Q 816 373 848 386 Q 855 387 856 395 Q 857 405 834 418 Q 776 452 758 444 Q 704 423 621 404 C 599 399 599 399 611 386 Z" class="stroke13"/>
    <path d="M 659 202 Q 674 257 684 276 Q 691 289 679 298 Q 645 328 621 322 Q 609 319 614 307 Q 635 261 601 158 Q 565 71 490 26 L 464 8 Q 454 1 463 -1 Q 502 -5 567 44 Q 625 87 653 175 L 659 202 Z" class="stroke14"/>
    <path d="M 653 175 Q 702 94 769 7 Q 782 -8 807 -7 Q 886 -6 912 -1 Q 919 0 920 5 Q 921 9 911 15 Q 788 69 693 168 Q 675 184 659 202 C 639 224 637 201 653 175 Z" class="stroke15"/>
    
    
    
    
    
    
    
    
    
    
    
    
    
    
    </g>
</svg>