<svg version="1.1" viewBox="0 0 1024 1024" xmlns="http://www.w3.org/2000/svg">
  
  <g transform="scale(1, -1) translate(0, -900)">
    <style type="text/css">
        .stroke1 {fill: #808080;}
        .stroke2 {fill: #808079;}
        .stroke3 {fill: #808078;}
        .stroke4 {fill: #808077;}
        .stroke5 {fill: #808076;}
        .stroke6 {fill: #808075;}
        .stroke7 {fill: #808074;}
        .stroke8 {fill: #808073;}
        .stroke9 {fill: #808072;}
        .stroke10 {fill: #808071;}
        .stroke11 {fill: #808070;}
        .stroke12 {fill: #808069;}
        .stroke13 {fill: #808068;}
        .stroke14 {fill: #808067;}
        .stroke15 {fill: #808066;}
        .stroke16 {fill: #808065;}
        .stroke17 {fill: #808064;}
        .stroke18 {fill: #808063;}
        .stroke19 {fill: #808062;}
        .stroke20 {fill: #808061;}
        text {
            font-family: Helvetica;
            font-size: 50px;
            fill: #808060;
            paint-order: stroke;
            stroke: #000000;
            stroke-width: 4px;
            stroke-linecap: butt;
            stroke-linejoin: miter;
            font-weight: 800;
        }
    </style>

    <path d="M 215 515 Q 193 463 162 415 Q 143 382 160 349 Q 169 331 189 344 Q 240 383 241 457 Q 245 490 239 515 Q 233 524 228 524 Q 219 523 215 515 Z" class="stroke1"/>
    <path d="M 273 691 Q 307 637 301 430 Q 300 345 261 243 Q 231 159 138 66 Q 125 51 121 45 Q 120 36 132 38 Q 174 41 251 129 Q 335 235 350 389 Q 362 486 359 633 Q 362 655 363 667 Q 367 689 345 699 Q 293 721 276 718 Q 254 714 273 691 Z" class="stroke2"/>
    <path d="M 402 497 Q 420 433 440 408 Q 449 401 460 406 Q 469 413 473 425 Q 479 464 425 519 Q 415 529 407 529 Q 403 530 400 521 Q 397 512 402 497 Z" class="stroke3"/>
    <path d="M 498 711 Q 529 639 527 467 Q 527 422 503 267 Q 491 213 527 165 Q 537 155 547 166 Q 578 217 572 289 Q 556 521 574 670 Q 574 676 575 680 Q 582 704 561 715 Q 543 727 526 735 Q 513 739 503 734 Q 494 727 498 711 Z" class="stroke4"/>
    <path d="M 623 505 Q 647 465 670 417 Q 677 404 689 399 Q 698 398 705 405 Q 714 415 715 441 Q 718 463 693 493 Q 665 518 633 543 Q 623 550 617 550 Q 611 549 609 539 Q 608 529 623 505 Z" class="stroke5"/>
    <path d="M 743 99 Q 731 56 762 -6 Q 769 -24 777 -27 Q 784 -34 791 -26 Q 819 -7 817 60 Q 814 109 808 567 Q 807 661 822 726 Q 831 742 827 756 Q 820 766 761 800 Q 736 816 715 800 Q 709 794 717 779 Q 753 731 753 676 Q 768 238 753 146 Q 749 124 743 99 Z" class="stroke6"/>
    
    
    
    
    
    </g>
</svg>