<svg version="1.1" viewBox="0 0 1024 1024" xmlns="http://www.w3.org/2000/svg">
  
  <g transform="scale(1, -1) translate(0, -900)">
    <style type="text/css">
        .stroke1 {fill: #808080;}
        .stroke2 {fill: #808079;}
        .stroke3 {fill: #808078;}
        .stroke4 {fill: #808077;}
        .stroke5 {fill: #808076;}
        .stroke6 {fill: #808075;}
        .stroke7 {fill: #808074;}
        .stroke8 {fill: #808073;}
        .stroke9 {fill: #808072;}
        .stroke10 {fill: #808071;}
        .stroke11 {fill: #808070;}
        .stroke12 {fill: #808069;}
        .stroke13 {fill: #808068;}
        .stroke14 {fill: #808067;}
        .stroke15 {fill: #808066;}
        .stroke16 {fill: #808065;}
        .stroke17 {fill: #808064;}
        .stroke18 {fill: #808063;}
        .stroke19 {fill: #808062;}
        .stroke20 {fill: #808061;}
        text {
            font-family: Helvetica;
            font-size: 50px;
            fill: #808060;
            paint-order: stroke;
            stroke: #000000;
            stroke-width: 4px;
            stroke-linecap: butt;
            stroke-linejoin: miter;
            font-weight: 800;
        }
    </style>

    <path d="M 519 662 Q 598 674 681 683 Q 739 693 748 700 Q 758 707 754 718 Q 747 733 715 743 Q 688 752 583 726 Q 442 699 334 696 Q 292 693 321 672 Q 361 642 448 654 Q 457 655 469 656 L 519 662 Z" class="stroke1"/>
    <path d="M 532 142 Q 545 637 546 638 Q 531 653 519 662 C 496 681 457 684 469 656 Q 493 604 492 563 Q 493 518 486 138 C 485 108 531 112 532 142 Z" class="stroke2"/>
    <path d="M 315 375 Q 351 439 378 478 Q 387 490 374 503 Q 338 533 311 530 Q 301 527 302 514 Q 314 414 204 290 Q 195 287 157 239 Q 150 226 163 230 Q 218 239 301 353 L 315 375 Z" class="stroke3"/>
    <path d="M 301 353 Q 305 349 315 340 Q 354 307 394 269 Q 404 259 417 258 Q 424 258 429 269 Q 433 279 427 303 Q 423 327 388 347 Q 354 363 315 375 C 286 384 279 374 301 353 Z" class="stroke4"/>
    <path d="M 691 401 Q 725 467 762 533 Q 772 546 756 560 Q 708 590 686 583 Q 676 580 679 566 Q 698 476 605 345 Q 593 338 560 288 Q 553 272 568 278 Q 611 290 678 382 L 691 401 Z" class="stroke5"/>
    <path d="M 678 382 Q 804 256 807 255 L 809 254 Q 818 253 825 263 Q 837 275 824 317 Q 817 354 750 381 Q 713 394 691 401 C 662 410 657 403 678 382 Z" class="stroke6"/>
    <path d="M 486 138 Q 321 128 129 114 Q 104 113 121 91 Q 137 73 158 65 Q 183 58 204 62 Q 453 114 906 91 Q 931 90 937 99 Q 944 114 925 131 Q 862 185 788 170 Q 686 158 532 142 L 486 138 Z" class="stroke7"/>
    
    
    
    
    
    
    </g>
</svg>