<svg version="1.1" viewBox="0 0 1024 1024" xmlns="http://www.w3.org/2000/svg">
  
  <g transform="scale(1, -1) translate(0, -900)">
    <style type="text/css">
        .stroke1 {fill: #808080;}
        .stroke2 {fill: #808079;}
        .stroke3 {fill: #808078;}
        .stroke4 {fill: #808077;}
        .stroke5 {fill: #808076;}
        .stroke6 {fill: #808075;}
        .stroke7 {fill: #808074;}
        .stroke8 {fill: #808073;}
        .stroke9 {fill: #808072;}
        .stroke10 {fill: #808071;}
        .stroke11 {fill: #808070;}
        .stroke12 {fill: #808069;}
        .stroke13 {fill: #808068;}
        .stroke14 {fill: #808067;}
        .stroke15 {fill: #808066;}
        .stroke16 {fill: #808065;}
        .stroke17 {fill: #808064;}
        .stroke18 {fill: #808063;}
        .stroke19 {fill: #808062;}
        .stroke20 {fill: #808061;}
        text {
            font-family: Helvetica;
            font-size: 50px;
            fill: #808060;
            paint-order: stroke;
            stroke: #000000;
            stroke-width: 4px;
            stroke-linecap: butt;
            stroke-linejoin: miter;
            font-weight: 800;
        }
    </style>

    <path d="M 366 751 Q 408 705 441 690 Q 454 689 463 701 Q 469 713 466 728 Q 454 765 377 787 Q 361 791 353 788 Q 347 787 350 775 Q 351 765 366 751 Z" class="stroke1"/>
    <path d="M 598 800 Q 586 776 530 699 Q 520 681 538 685 Q 581 710 606 729 Q 669 778 685 785 Q 707 795 695 814 Q 680 830 653 844 Q 628 857 616 853 Q 603 852 608 838 Q 612 819 598 800 Z" class="stroke2"/>
    <path d="M 476 603 Q 560 618 649 630 Q 709 640 717 649 Q 727 656 722 664 Q 716 677 688 685 Q 660 692 630 682 Q 474 636 311 627 Q 275 623 300 605 Q 336 581 396 591 Q 406 594 420 594 L 476 603 Z" class="stroke3"/>
    <path d="M 484 476 Q 557 489 674 501 Q 684 500 692 511 Q 693 521 672 532 Q 642 554 576 534 Q 504 522 496 517 L 431 506 Q 419 506 317 495 Q 289 492 310 475 Q 340 451 371 457 Q 395 463 424 466 L 484 476 Z" class="stroke4"/>
    <path d="M 447 350 Q 474 359 595 364 Q 664 367 822 368 Q 841 368 847 376 Q 853 388 836 402 Q 784 441 746 433 Q 653 414 494 391 Q 478 390 460 386 L 401 379 Q 298 369 185 354 Q 163 353 179 335 Q 192 322 211 315 Q 232 311 248 314 Q 315 333 389 343 L 447 350 Z" class="stroke5"/>
    <path d="M 401 249 Q 441 339 447 350 L 460 386 Q 469 416 477 446 Q 480 462 484 476 L 496 517 Q 503 533 513 551 Q 520 561 512 571 Q 499 587 476 603 C 452 621 408 622 420 594 Q 441 558 431 506 L 424 466 Q 414 418 401 379 L 389 343 Q 325 168 183 66 Q 152 44 110 19 Q 97 15 94 10 Q 90 4 105 2 Q 150 -2 263 79 Q 329 128 392 233 L 401 249 Z" class="stroke6"/>
    <path d="M 549 223 Q 600 233 654 241 Q 691 248 698 253 Q 707 260 702 268 Q 696 281 668 288 Q 647 294 538 267 Q 436 254 407 251 Q 403 251 401 249 C 380 244 380 244 392 233 Q 425 200 492 215 Q 498 216 508 217 L 549 223 Z" class="stroke7"/>
    <path d="M 542 57 Q 554 115 563 162 Q 569 198 567 203 Q 558 215 549 223 C 527 244 505 247 508 217 Q 511 208 497 53 C 494 23 536 28 542 57 Z" class="stroke8"/>
    <path d="M 497 53 Q 403 47 298 38 Q 276 37 291 19 Q 306 3 324 -3 Q 345 -10 362 -6 Q 545 33 823 11 Q 844 10 849 19 Q 856 31 839 46 Q 785 89 747 82 Q 674 70 545 58 Q 544 58 542 57 L 497 53 Z" class="stroke9"/>
    
    
    
    
    
    
    
    
    </g>
</svg>