<svg version="1.1" viewBox="0 0 1024 1024" xmlns="http://www.w3.org/2000/svg">
  
  <g transform="scale(1, -1) translate(0, -900)">
    <style type="text/css">
        .stroke1 {fill: #808080;}
        .stroke2 {fill: #808079;}
        .stroke3 {fill: #808078;}
        .stroke4 {fill: #808077;}
        .stroke5 {fill: #808076;}
        .stroke6 {fill: #808075;}
        .stroke7 {fill: #808074;}
        .stroke8 {fill: #808073;}
        .stroke9 {fill: #808072;}
        .stroke10 {fill: #808071;}
        .stroke11 {fill: #808070;}
        .stroke12 {fill: #808069;}
        .stroke13 {fill: #808068;}
        .stroke14 {fill: #808067;}
        .stroke15 {fill: #808066;}
        .stroke16 {fill: #808065;}
        .stroke17 {fill: #808064;}
        .stroke18 {fill: #808063;}
        .stroke19 {fill: #808062;}
        .stroke20 {fill: #808061;}
        text {
            font-family: Helvetica;
            font-size: 50px;
            fill: #808060;
            paint-order: stroke;
            stroke: #000000;
            stroke-width: 4px;
            stroke-linecap: butt;
            stroke-linejoin: miter;
            font-weight: 800;
        }
    </style>

    <path d="M 613 523 Q 644 646 685 678 Q 703 699 686 718 Q 599 778 542 745 Q 449 711 346 689 C 317 683 315 645 344 651 Q 357 652 375 659 Q 463 678 549 699 Q 571 706 580 697 Q 592 685 589 661 Q 577 588 560 529 C 552 500 605 494 613 523 Z" class="stroke1"/>
    <path d="M 312 443 Q 363 422 414 437 Q 499 453 588 473 Q 628 482 635 488 Q 645 497 640 507 Q 633 517 613 523 L 560 529 Q 544 528 530 521 Q 427 485 315 474 Q 314 474 314 473 C 285 467 284 454 312 443 Z" class="stroke2"/>
    <path d="M 326 134 Q 411 68 662 78 Q 813 84 895 113 Q 923 119 931 134 Q 937 144 926 165 Q 904 210 888 308 Q 884 324 876 329 Q 870 332 867 317 Q 854 263 843 218 Q 833 178 809 164 Q 787 151 672 140 Q 554 130 461 141 Q 391 151 364 169 Q 328 193 318 237 Q 305 301 312 439 Q 312 442 312 443 L 314 473 Q 321 591 344 651 C 353 680 354 684 346 689 L 346 690 Q 333 703 295 720 Q 262 732 252 722 Q 243 715 257 693 Q 278 662 276 615 Q 270 482 264 330 Q 255 198 326 134 Z" class="stroke3"/>
    
    
    </g>
</svg>