<svg version="1.1" viewBox="0 0 1024 1024" xmlns="http://www.w3.org/2000/svg">
  
  <g transform="scale(1, -1) translate(0, -900)">
    <style type="text/css">
        .stroke1 {fill: #808080;}
        .stroke2 {fill: #808079;}
        .stroke3 {fill: #808078;}
        .stroke4 {fill: #808077;}
        .stroke5 {fill: #808076;}
        .stroke6 {fill: #808075;}
        .stroke7 {fill: #808074;}
        .stroke8 {fill: #808073;}
        .stroke9 {fill: #808072;}
        .stroke10 {fill: #808071;}
        .stroke11 {fill: #808070;}
        .stroke12 {fill: #808069;}
        .stroke13 {fill: #808068;}
        .stroke14 {fill: #808067;}
        .stroke15 {fill: #808066;}
        .stroke16 {fill: #808065;}
        .stroke17 {fill: #808064;}
        .stroke18 {fill: #808063;}
        .stroke19 {fill: #808062;}
        .stroke20 {fill: #808061;}
        text {
            font-family: Helvetica;
            font-size: 50px;
            fill: #808060;
            paint-order: stroke;
            stroke: #000000;
            stroke-width: 4px;
            stroke-linecap: butt;
            stroke-linejoin: miter;
            font-weight: 800;
        }
    </style>

    <path d="M 355 622 Q 431 641 486 659 Q 529 673 596 703 Q 645 724 702 733 Q 723 735 727 745 Q 732 756 717 770 Q 708 778 688 789 Q 626 823 604 821 Q 594 817 593 803 Q 593 758 349 645 C 322 632 326 615 355 622 Z" class="stroke1"/>
    <path d="M 331 468 L 345 583 Q 355 616 355 622 C 359 639 359 639 349 645 Q 345 649 329 657 Q 288 680 272 678 Q 251 675 267 651 Q 300 582 258 363 Q 243 304 210 237 Q 179 175 96 102 Q 61 70 59 67 Q 55 60 66 59 L 69 59 Q 107 55 192 130 Q 294 233 328 449 L 331 468 Z" class="stroke2"/>
    <path d="M 328 449 Q 365 418 402 431 Q 604 495 860 495 L 862 495 Q 890 496 889 510 Q 888 520 875 531 Q 818 568 780 559 Q 645 523 333 469 L 331 468 C 308 463 308 463 328 449 Z" class="stroke3"/>
    <path d="M 742 294 Q 772 352 806 370 Q 822 389 809 410 Q 793 423 740 453 Q 729 459 719 459 Q 708 459 673 447 Q 564 408 400 385 C 370 381 389 348 419 353 Q 425 353 431 355 Q 498 369 534 376 L 572 384 L 670 406 Q 689 410 700 406 Q 719 401 713 374 L 684 296 C 674 268 728 268 742 294 Z" class="stroke4"/>
    <path d="M 534 376 Q 534 349 532 262 C 531 232 568 241 574 270 L 586 331 Q 592 356 584 370 L 572 384 C 552 407 534 406 534 376 Z" class="stroke5"/>
    <path d="M 405 214 Q 421 209 437 210 Q 591 249 755 261 Q 764 261 766 270 Q 766 277 742 294 C 727 305 713 302 684 296 Q 638 286 574 270 L 532 262 L 407 241 C 377 236 376 221 405 214 Z" class="stroke6"/>
    <path d="M 400 385 Q 370 404 355 396 Q 349 392 354 374 Q 367 331 365 300 Q 357 103 368 103 Q 374 69 409 38 Q 488 -25 643 -24 Q 735 -22 804 0 Q 862 18 921 60 Q 940 73 929 100 Q 917 134 906 239 Q 906 255 900 261 Q 894 265 888 251 Q 888 246 879 220 Q 849 133 831 105 Q 809 76 747 60 Q 600 20 476 70 Q 427 94 415 123 Q 402 163 405 214 L 407 241 Q 411 295 419 349 L 419 353 C 422 375 422 375 400 385 Z" class="stroke7"/>
    
    
    
    
    
    
    </g>
</svg>