<svg version="1.1" viewBox="0 0 1024 1024" xmlns="http://www.w3.org/2000/svg">
  
  <g transform="scale(1, -1) translate(0, -900)">
    <style type="text/css">
        .stroke1 {fill: #808080;}
        .stroke2 {fill: #808079;}
        .stroke3 {fill: #808078;}
        .stroke4 {fill: #808077;}
        .stroke5 {fill: #808076;}
        .stroke6 {fill: #808075;}
        .stroke7 {fill: #808074;}
        .stroke8 {fill: #808073;}
        .stroke9 {fill: #808072;}
        .stroke10 {fill: #808071;}
        .stroke11 {fill: #808070;}
        .stroke12 {fill: #808069;}
        .stroke13 {fill: #808068;}
        .stroke14 {fill: #808067;}
        .stroke15 {fill: #808066;}
        .stroke16 {fill: #808065;}
        .stroke17 {fill: #808064;}
        .stroke18 {fill: #808063;}
        .stroke19 {fill: #808062;}
        .stroke20 {fill: #808061;}
        text {
            font-family: Helvetica;
            font-size: 50px;
            fill: #808060;
            paint-order: stroke;
            stroke: #000000;
            stroke-width: 4px;
            stroke-linecap: butt;
            stroke-linejoin: miter;
            font-weight: 800;
        }
    </style>

    <path d="M 461 797 Q 489 773 521 745 Q 537 730 555 732 Q 567 733 572 748 Q 576 766 565 799 Q 553 830 453 851 Q 435 855 428 851 Q 422 847 425 832 Q 429 819 461 797 Z" class="stroke1"/>
    <path d="M 528 639 Q 754 669 877 659 Q 917 659 921 664 Q 928 677 916 689 Q 846 752 784 727 Q 663 702 484 678 Q 193 639 142 636 Q 135 637 129 636 Q 114 635 114 624 Q 113 611 133 598 Q 149 585 181 575 Q 191 571 210 579 Q 226 586 299 600 Q 369 619 459 630 L 528 639 Z" class="stroke2"/>
    <path d="M 327 484 Q 309 502 275 499 Q 262 495 268 483 Q 307 413 277 287 Q 255 254 282 208 Q 285 204 291 196 Q 298 183 308 189 Q 336 213 337 353 Q 337 425 339 448 C 341 473 341 473 327 484 Z" class="stroke3"/>
    <path d="M 538 481 Q 601 491 665 496 Q 698 497 699 476 Q 708 305 689 284 Q 674 272 613 284 Q 597 287 593 281 Q 590 275 603 266 Q 664 227 703 197 Q 719 184 732 199 Q 759 236 760 314 Q 754 420 765 484 Q 769 505 759 515 Q 731 540 711 552 Q 698 559 687 549 Q 680 540 538 510 L 483 502 Q 425 496 327 484 C 297 480 309 445 339 448 Q 346 447 357 449 Q 421 462 483 472 L 538 481 Z" class="stroke4"/>
    <path d="M 484 -24 Q 490 -51 497 -61 Q 503 -68 511 -66 Q 526 -57 533 6 Q 542 90 539 172 Q 536 238 538 481 L 538 510 Q 538 511 539 513 Q 540 562 551 604 Q 554 623 539 632 Q 533 636 528 639 C 504 656 447 657 459 630 Q 481 590 483 509 Q 483 506 483 502 L 483 472 Q 484 345 480 170 Q 479 25 484 -24 Z" class="stroke5"/>
    
    
    
    
    </g>
</svg>