<svg version="1.1" viewBox="0 0 1024 1024" xmlns="http://www.w3.org/2000/svg">
  
  <g transform="scale(1, -1) translate(0, -900)">
    <style type="text/css">
        .stroke1 {fill: #808080;}
        .stroke2 {fill: #808079;}
        .stroke3 {fill: #808078;}
        .stroke4 {fill: #808077;}
        .stroke5 {fill: #808076;}
        .stroke6 {fill: #808075;}
        .stroke7 {fill: #808074;}
        .stroke8 {fill: #808073;}
        .stroke9 {fill: #808072;}
        .stroke10 {fill: #808071;}
        .stroke11 {fill: #808070;}
        .stroke12 {fill: #808069;}
        .stroke13 {fill: #808068;}
        .stroke14 {fill: #808067;}
        .stroke15 {fill: #808066;}
        .stroke16 {fill: #808065;}
        .stroke17 {fill: #808064;}
        .stroke18 {fill: #808063;}
        .stroke19 {fill: #808062;}
        .stroke20 {fill: #808061;}
        text {
            font-family: Helvetica;
            font-size: 50px;
            fill: #808060;
            paint-order: stroke;
            stroke: #000000;
            stroke-width: 4px;
            stroke-linecap: butt;
            stroke-linejoin: miter;
            font-weight: 800;
        }
    </style>

    <path d="M 300 555 Q 281 574 244 572 Q 231 566 237 554 Q 279 473 246 325 Q 219 261 257 217 Q 264 204 276 210 Q 309 234 309 331 Q 310 473 313 513 C 315 543 315 543 300 555 Z" class="stroke1"/>
    <path d="M 542 555 Q 593 562 656 568 Q 677 569 689 558 Q 707 552 711 526 Q 718 462 711 341 Q 712 313 686 313 Q 649 314 620 317 Q 601 318 607 309 Q 611 297 643 278 Q 689 247 717 212 Q 730 202 743 209 Q 771 228 784 319 Q 785 337 785 354 Q 770 540 785 563 Q 797 578 787 590 Q 774 602 724 620 Q 702 627 685 617 Q 660 610 591 601 Q 566 598 543 594 L 481 583 Q 447 579 418 573 Q 349 561 300 555 C 270 551 285 502 313 513 Q 323 514 334 522 Q 385 535 481 548 L 542 555 Z" class="stroke2"/>
    <path d="M 481 548 Q 480 481 480 395 Q 477 -10 486 -34 Q 487 -38 491 -44 Q 507 -60 517 -38 Q 536 16 537 342 Q 538 466 542 555 L 543 594 Q 546 720 569 755 Q 576 773 555 789 Q 528 811 482 823 Q 461 829 447 813 Q 437 804 450 791 Q 478 766 481 731 Q 481 673 481 583 L 481 548 Z" class="stroke3"/>
    
    
    </g>
</svg>