<svg version="1.1" viewBox="0 0 1024 1024" xmlns="http://www.w3.org/2000/svg">
  
  <g transform="scale(1, -1) translate(0, -900)">
    <style type="text/css">
        .stroke1 {fill: #808080;}
        .stroke2 {fill: #808079;}
        .stroke3 {fill: #808078;}
        .stroke4 {fill: #808077;}
        .stroke5 {fill: #808076;}
        .stroke6 {fill: #808075;}
        .stroke7 {fill: #808074;}
        .stroke8 {fill: #808073;}
        .stroke9 {fill: #808072;}
        .stroke10 {fill: #808071;}
        .stroke11 {fill: #808070;}
        .stroke12 {fill: #808069;}
        .stroke13 {fill: #808068;}
        .stroke14 {fill: #808067;}
        .stroke15 {fill: #808066;}
        .stroke16 {fill: #808065;}
        .stroke17 {fill: #808064;}
        .stroke18 {fill: #808063;}
        .stroke19 {fill: #808062;}
        .stroke20 {fill: #808061;}
        text {
            font-family: Helvetica;
            font-size: 50px;
            fill: #808060;
            paint-order: stroke;
            stroke: #000000;
            stroke-width: 4px;
            stroke-linecap: butt;
            stroke-linejoin: miter;
            font-weight: 800;
        }
    </style>

    <path d="M 236 580 Q 278 629 302 662 Q 351 735 374 754 Q 392 770 376 784 Q 357 797 328 803 Q 301 809 289 803 Q 277 797 285 786 Q 300 755 218 583 Q 217 583 217 582 C 203 556 217 557 236 580 Z" class="stroke1"/>
    <path d="M 222 320 Q 222 375 224 416 L 225 444 Q 225 543 229 548 C 232 570 232 570 217 582 Q 202 597 180 604 Q 170 608 158 605 Q 151 599 157 587 Q 176 517 178 494 Q 190 290 159 168 Q 144 113 181 66 Q 191 53 203 65 Q 213 80 219 144 L 220 176 Q 220 260 221 292 L 222 320 Z" class="stroke2"/>
    <path d="M 407 478 Q 431 548 459 565 Q 474 581 460 597 Q 394 651 344 618 Q 314 606 236 580 C 208 570 180 538 229 548 Q 239 549 253 555 Q 307 568 358 583 Q 371 587 377 582 Q 384 575 382 558 Q 372 515 361 481 C 352 452 397 450 407 478 Z" class="stroke3"/>
    <path d="M 224 416 Q 240 412 256 415 Q 308 430 422 445 Q 432 446 433 456 Q 433 463 407 478 L 361 481 Q 357 481 355 480 Q 283 456 225 444 C 196 438 195 422 224 416 Z" class="stroke4"/>
    <path d="M 406 204 Q 430 271 458 296 Q 474 314 459 330 Q 387 384 335 353 Q 263 329 222 320 C 193 313 191 289 221 292 Q 230 291 354 316 Q 364 317 370 314 Q 377 307 376 291 Q 367 245 357 207 C 350 178 396 176 406 204 Z" class="stroke5"/>
    <path d="M 219 144 Q 229 141 243 145 Q 298 158 420 169 Q 430 170 432 179 Q 432 188 406 204 C 391 213 387 212 357 207 L 355 207 Q 280 188 220 176 C 191 170 189 149 219 144 Z" class="stroke6"/>
    <path d="M 546 529 Q 528 547 497 544 Q 484 540 490 529 Q 526 457 496 346 Q 472 304 506 258 L 508 256 Q 515 243 524 249 Q 552 270 553 349 Q 554 466 557 495 C 559 518 559 518 546 529 Z" class="stroke7"/>
    <path d="M 704 523 Q 806 544 819 531 Q 835 518 833 472 Q 830 427 828 371 Q 828 331 814 315 Q 808 303 784 309 Q 765 312 744 315 Q 728 319 723 313 Q 719 309 734 298 Q 786 258 816 223 Q 832 208 852 216 Q 865 222 875 252 Q 897 298 894 357 Q 885 484 897 527 Q 904 543 898 552 Q 876 567 841 581 Q 822 588 807 582 Q 773 566 705 554 L 648 542 Q 602 535 546 529 C 516 526 527 492 557 495 Q 564 495 573 496 Q 613 505 648 511 L 704 523 Z" class="stroke8"/>
    <path d="M 648 511 Q 648 235 643 148 Q 640 -42 660 -72 Q 675 -88 684 -66 Q 703 -21 702 332 Q 702 441 704 523 L 705 554 Q 706 647 711 702 Q 712 736 731 766 Q 738 782 717 799 Q 692 818 647 831 Q 626 835 613 821 Q 603 814 616 800 Q 647 775 649 738 Q 649 665 648 542 L 648 511 Z" class="stroke9"/>
    
    
    
    
    
    
    
    
    </g>
</svg>