<svg version="1.1" viewBox="0 0 1024 1024" xmlns="http://www.w3.org/2000/svg">
  
  <g transform="scale(1, -1) translate(0, -900)">
    <style type="text/css">
        .stroke1 {fill: #808080;}
        .stroke2 {fill: #808079;}
        .stroke3 {fill: #808078;}
        .stroke4 {fill: #808077;}
        .stroke5 {fill: #808076;}
        .stroke6 {fill: #808075;}
        .stroke7 {fill: #808074;}
        .stroke8 {fill: #808073;}
        .stroke9 {fill: #808072;}
        .stroke10 {fill: #808071;}
        .stroke11 {fill: #808070;}
        .stroke12 {fill: #808069;}
        .stroke13 {fill: #808068;}
        .stroke14 {fill: #808067;}
        .stroke15 {fill: #808066;}
        .stroke16 {fill: #808065;}
        .stroke17 {fill: #808064;}
        .stroke18 {fill: #808063;}
        .stroke19 {fill: #808062;}
        .stroke20 {fill: #808061;}
        text {
            font-family: Helvetica;
            font-size: 50px;
            fill: #808060;
            paint-order: stroke;
            stroke: #000000;
            stroke-width: 4px;
            stroke-linecap: butt;
            stroke-linejoin: miter;
            font-weight: 800;
        }
    </style>

    <path d="M 166 526 Q 145 547 116 544 Q 106 540 110 530 Q 143 469 116 359 Q 98 323 127 285 L 129 283 Q 136 271 144 277 Q 169 298 170 454 Q 170 476 171 489 C 173 519 173 520 166 526 Z" class="stroke1"/>
    <path d="M 279 524 Q 324 542 336 536 Q 348 532 350 513 Q 354 468 348 385 Q 349 369 332 368 Q 313 369 296 371 Q 284 372 287 366 Q 288 359 310 342 Q 335 318 349 294 Q 358 287 367 291 Q 374 295 384 319 Q 397 350 399 418 Q 395 518 405 534 Q 414 544 408 553 Q 399 563 365 578 Q 352 585 338 578 Q 326 574 294 564 Q 287 563 280 560 L 237 547 Q 228 546 166 526 C 137 517 143 480 171 489 Q 177 490 184 493 Q 202 502 237 512 L 279 524 Z" class="stroke2"/>
    <path d="M 237 512 Q 231 217 229 199 Q 223 153 211 108 Q 201 74 225 13 Q 232 -3 239 -7 Q 245 -13 252 -6 Q 259 -2 269 19 Q 278 41 277 71 Q 276 117 279 524 L 280 560 Q 280 645 297 701 Q 306 714 302 728 Q 296 737 243 769 Q 221 785 202 770 Q 198 766 203 751 Q 234 706 234 661 Q 235 609 237 547 L 237 512 Z" class="stroke3"/>
    <path d="M 488 729 Q 507 713 526 694 Q 538 684 552 684 Q 561 685 565 696 Q 569 709 560 735 Q 556 748 532 759 Q 478 775 464 771 Q 460 767 461 756 Q 465 746 488 729 Z" class="stroke4"/>
    <path d="M 429 607 Q 399 600 422 588 Q 455 570 500 585 Q 549 598 599 611 Q 621 618 625 621 Q 632 628 627 635 Q 620 644 597 648 Q 572 651 549 640 Q 524 630 496 621 Q 465 612 429 607 Z" class="stroke5"/>
    <path d="M 429 526 Q 453 475 470 469 Q 479 466 487 478 Q 490 487 487 503 Q 478 527 437 545 Q 431 548 428 539 Q 427 535 429 526 Z" class="stroke6"/>
    <path d="M 559 448 Q 589 508 616 541 Q 626 550 620 558 Q 613 570 591 584 Q 581 591 567 587 Q 560 584 565 576 Q 572 551 539 461 Q 535 452 532 443 C 522 415 546 421 559 448 Z" class="stroke7"/>
    <path d="M 722 448 Q 743 451 873 463 Q 889 464 893 472 Q 897 482 882 492 Q 831 523 769 500 Q 745 494 717 485 L 676 475 Q 604 462 559 448 L 532 443 Q 477 433 417 419 Q 399 416 413 403 Q 441 382 471 391 Q 565 427 680 442 L 722 448 Z" class="stroke8"/>
    <path d="M 456 317 Q 441 329 423 333 Q 416 334 412 328 Q 411 324 416 316 Q 446 237 421 144 Q 412 108 436 78 Q 445 68 452 78 Q 459 88 462 104 L 466 130 Q 467 145 468 203 L 467 229 Q 467 281 470 296 C 471 306 471 306 456 317 Z" class="stroke9"/>
    <path d="M 560 119 Q 596 55 604 52 Q 613 52 620 71 Q 629 93 629 178 Q 622 278 630 305 Q 637 321 627 329 Q 620 338 591 351 Q 587 354 456 317 C 427 309 440 291 470 296 Q 480 297 492 300 Q 520 310 558 316 Q 570 317 573 314 Q 579 308 579 192 Q 579 153 574 140 C 567 111 553 131 560 119 Z" class="stroke10"/>
    <path d="M 468 203 Q 513 215 547 220 Q 565 224 557 234 Q 548 244 528 246 Q 497 249 467 229 C 442 213 439 195 468 203 Z" class="stroke11"/>
    <path d="M 462 104 Q 517 114 560 119 C 590 123 594 123 574 140 Q 567 147 553 149 Q 525 152 466 130 C 438 120 432 99 462 104 Z" class="stroke12"/>
    <path d="M 740 185 Q 785 67 862 -11 Q 920 -63 949 -63 Q 970 -59 964 -31 Q 960 14 963 143 Q 963 165 955 167 Q 948 166 942 146 Q 905 61 886 60 Q 874 66 856 84 Q 807 142 774 220 L 759 262 Q 734 340 724 437 Q 723 443 722 448 L 717 485 Q 698 653 722 760 Q 738 800 684 825 Q 650 843 630 837 Q 609 833 617 812 Q 660 767 658 734 Q 664 586 676 475 L 680 442 Q 693 324 728 221 L 740 185 Z" class="stroke13"/>
    <path d="M 728 221 Q 709 200 690 181 Q 660 156 645 139 Q 638 126 651 129 Q 672 130 740 185 L 774 220 Q 801 248 822 281 Q 852 326 879 362 Q 888 372 876 387 Q 840 418 817 416 Q 807 415 808 402 Q 811 342 759 262 L 728 221 Z" class="stroke14"/>
    <path d="M 779 655 Q 801 633 826 606 Q 838 593 853 592 Q 863 592 869 605 Q 873 618 867 648 Q 863 666 835 680 Q 774 707 756 703 Q 752 699 752 687 Q 755 677 779 655 Z" class="stroke15"/>
    
    
    
    
    
    
    
    
    
    
    
    
    
    
    </g>
</svg>