<svg version="1.1" viewBox="0 0 1024 1024" xmlns="http://www.w3.org/2000/svg">
  
  <g transform="scale(1, -1) translate(0, -900)">
    <style type="text/css">
        .stroke1 {fill: #808080;}
        .stroke2 {fill: #808079;}
        .stroke3 {fill: #808078;}
        .stroke4 {fill: #808077;}
        .stroke5 {fill: #808076;}
        .stroke6 {fill: #808075;}
        .stroke7 {fill: #808074;}
        .stroke8 {fill: #808073;}
        .stroke9 {fill: #808072;}
        .stroke10 {fill: #808071;}
        .stroke11 {fill: #808070;}
        .stroke12 {fill: #808069;}
        .stroke13 {fill: #808068;}
        .stroke14 {fill: #808067;}
        .stroke15 {fill: #808066;}
        .stroke16 {fill: #808065;}
        .stroke17 {fill: #808064;}
        .stroke18 {fill: #808063;}
        .stroke19 {fill: #808062;}
        .stroke20 {fill: #808061;}
        text {
            font-family: Helvetica;
            font-size: 50px;
            fill: #808060;
            paint-order: stroke;
            stroke: #000000;
            stroke-width: 4px;
            stroke-linecap: butt;
            stroke-linejoin: miter;
            font-weight: 800;
        }
    </style>

    <path d="M 550 371 Q 547 371 344 372 Q 307 373 328 396 Q 443 555 552 670 Q 571 689 569 699 Q 568 718 525 760 Q 507 779 484 777 Q 469 776 475 755 Q 493 700 343 484 Q 310 435 247 389 Q 222 373 223 359 Q 227 335 242 311 Q 254 296 270 304 Q 315 323 528 343 C 558 346 580 371 550 371 Z" class="stroke1"/>
    <path d="M 712 129 Q 561 120 379 90 Q 336 80 367 111 Q 455 214 660 418 Q 702 461 737 486 Q 753 496 747 510 Q 737 537 697 565 Q 678 580 665 577 Q 652 574 653 554 Q 650 497 550 371 L 528 343 Q 527 342 526 341 Q 307 104 263 88 Q 244 78 245 60 Q 245 42 275 13 Q 287 -3 308 9 Q 482 81 725 106 C 755 109 742 131 712 129 Z" class="stroke2"/>
    <path d="M 725 106 Q 743 78 761 43 Q 771 18 787 9 Q 794 6 806 14 Q 822 24 820 73 Q 821 139 656 264 Q 647 273 642 260 Q 638 247 646 233 Q 677 187 712 129 L 725 106 Z" class="stroke3"/>
    
    
    </g>
</svg>