<svg version="1.1" viewBox="0 0 1024 1024" xmlns="http://www.w3.org/2000/svg">
  
  <g transform="scale(1, -1) translate(0, -900)">
    <style type="text/css">
        .stroke1 {fill: #808080;}
        .stroke2 {fill: #808079;}
        .stroke3 {fill: #808078;}
        .stroke4 {fill: #808077;}
        .stroke5 {fill: #808076;}
        .stroke6 {fill: #808075;}
        .stroke7 {fill: #808074;}
        .stroke8 {fill: #808073;}
        .stroke9 {fill: #808072;}
        .stroke10 {fill: #808071;}
        .stroke11 {fill: #808070;}
        .stroke12 {fill: #808069;}
        .stroke13 {fill: #808068;}
        .stroke14 {fill: #808067;}
        .stroke15 {fill: #808066;}
        .stroke16 {fill: #808065;}
        .stroke17 {fill: #808064;}
        .stroke18 {fill: #808063;}
        .stroke19 {fill: #808062;}
        .stroke20 {fill: #808061;}
        text {
            font-family: Helvetica;
            font-size: 50px;
            fill: #808060;
            paint-order: stroke;
            stroke: #000000;
            stroke-width: 4px;
            stroke-linecap: butt;
            stroke-linejoin: miter;
            font-weight: 800;
        }
    </style>

    <path d="M 543 144 Q 549 381 550 597 Q 554 657 572 742 Q 576 755 553 770 Q 513 789 487 794 Q 468 798 460 788 Q 453 779 461 763 Q 498 708 499 672 Q 512 425 498 136 C 497 106 542 114 543 144 Z" class="stroke1"/>
    <path d="M 375 379 Q 338 378 307 377 Q 276 376 291 396 Q 334 484 378 551 Q 388 566 386 572 Q 383 584 348 607 Q 335 617 318 613 Q 309 609 316 597 Q 335 560 265 415 Q 253 399 237 381 Q 224 368 225 358 Q 229 342 242 328 Q 251 319 261 326 Q 282 341 363 357 C 392 363 405 380 375 379 Z" class="stroke2"/>
    <path d="M 421 260 Q 379 250 333 230 Q 312 220 324 239 Q 357 291 434 398 Q 458 434 479 454 Q 489 464 483 473 Q 473 489 441 504 Q 426 511 418 508 Q 409 505 412 491 Q 416 461 375 379 L 363 357 Q 281 225 257 210 Q 245 200 249 188 Q 252 176 276 161 Q 286 151 299 163 Q 335 199 427 244 L 429 244 C 457 256 450 267 421 260 Z" class="stroke3"/>
    <path d="M 429 244 Q 448 211 457 207 Q 467 203 476 214 Q 480 224 479 241 Q 475 259 458 275 Q 431 303 418 312 Q 411 315 408 307 Q 404 301 408 293 Q 414 277 421 260 L 429 244 Z" class="stroke4"/>
    <path d="M 721 436 Q 681 436 646 434 Q 616 433 631 452 Q 683 540 732 608 Q 744 623 742 630 Q 739 643 704 669 Q 691 681 674 677 Q 664 674 670 660 Q 685 624 619 497 Q 604 467 574 439 Q 558 426 560 416 Q 564 400 577 384 Q 587 374 597 381 Q 636 405 707 414 C 737 418 751 436 721 436 Z" class="stroke5"/>
    <path d="M 754 311 Q 715 304 670 291 Q 646 282 661 302 Q 764 444 815 487 Q 825 496 820 504 Q 811 520 783 537 Q 770 544 761 542 Q 754 539 755 526 Q 756 502 721 436 L 707 414 L 707 413 Q 617 290 595 279 Q 583 272 586 259 Q 587 247 609 231 Q 619 221 631 231 Q 686 271 763 296 C 791 306 783 317 754 311 Z" class="stroke6"/>
    <path d="M 763 296 Q 787 248 797 245 Q 804 242 810 249 Q 816 256 817 277 Q 818 308 753 356 Q 746 362 740 362 Q 736 361 734 353 Q 734 352 754 311 L 763 296 Z" class="stroke7"/>
    <path d="M 833 176 Q 677 166 543 144 L 498 136 Q 362 117 244 86 Q 216 79 221 112 Q 222 196 224 283 Q 225 308 213 323 Q 195 339 169 352 Q 156 356 146 353 Q 136 347 145 328 Q 185 253 180 176 Q 177 101 150 66 Q 131 47 139 33 Q 151 17 169 5 Q 184 -2 194 6 Q 207 21 242 36 Q 426 91 617 122 Q 786 150 826 135 C 856 130 863 178 833 176 Z" class="stroke8"/>
    <path d="M 826 135 Q 808 90 837 33 Q 847 15 860 29 Q 885 56 889 150 Q 901 348 913 374 Q 914 380 917 384 Q 926 400 914 415 Q 892 431 856 452 Q 841 459 828 453 Q 821 449 823 433 Q 856 382 833 186 Q 833 182 833 176 L 826 135 Z" class="stroke9"/>
    
    
    
    
    
    
    
    
    </g>
</svg>