<svg version="1.1" viewBox="0 0 1024 1024" xmlns="http://www.w3.org/2000/svg">
  
  <g transform="scale(1, -1) translate(0, -900)">
    <style type="text/css">
        .stroke1 {fill: #808080;}
        .stroke2 {fill: #808079;}
        .stroke3 {fill: #808078;}
        .stroke4 {fill: #808077;}
        .stroke5 {fill: #808076;}
        .stroke6 {fill: #808075;}
        .stroke7 {fill: #808074;}
        .stroke8 {fill: #808073;}
        .stroke9 {fill: #808072;}
        .stroke10 {fill: #808071;}
        .stroke11 {fill: #808070;}
        .stroke12 {fill: #808069;}
        .stroke13 {fill: #808068;}
        .stroke14 {fill: #808067;}
        .stroke15 {fill: #808066;}
        .stroke16 {fill: #808065;}
        .stroke17 {fill: #808064;}
        .stroke18 {fill: #808063;}
        .stroke19 {fill: #808062;}
        .stroke20 {fill: #808061;}
        text {
            font-family: Helvetica;
            font-size: 50px;
            fill: #808060;
            paint-order: stroke;
            stroke: #000000;
            stroke-width: 4px;
            stroke-linecap: butt;
            stroke-linejoin: miter;
            font-weight: 800;
        }
    </style>

    <path d="M 506 804 Q 539 782 574 756 Q 590 746 606 748 Q 616 749 621 764 Q 624 780 610 810 Q 595 840 494 853 Q 478 854 472 851 Q 468 847 470 833 Q 476 823 506 804 Z" class="stroke1"/>
    <path d="M 348 632 Q 381 616 477 629 Q 591 648 712 669 Q 776 682 785 689 Q 795 698 791 707 Q 784 720 753 729 Q 720 736 628 709 Q 487 673 348 663 Q 347 663 346 662 C 316 658 320 642 348 632 Z" class="stroke2"/>
    <path d="M 346 662 Q 328 681 297 696 Q 276 709 262 703 Q 249 696 255 680 Q 276 650 269 574 Q 268 565 267 555 Q 255 383 205 250 Q 163 145 76 17 Q 70 10 68 4 Q 65 -9 77 -6 Q 110 -2 195 119 Q 213 147 230 179 Q 302 329 328 521 Q 337 602 347 628 Q 348 631 348 632 C 354 655 354 655 346 662 Z" class="stroke3"/>
    <path d="M 587 263 Q 591 347 597 424 L 599 458 Q 605 519 609 532 Q 613 548 616 561 Q 620 571 599 587 Q 562 606 537 611 Q 521 615 512 605 Q 505 598 513 582 Q 534 554 535 533 Q 545 403 542 254 C 541 224 586 233 587 263 Z" class="stroke4"/>
    <path d="M 597 424 Q 645 420 707 434 Q 786 453 793 457 Q 802 467 796 475 Q 787 488 756 493 Q 734 496 646 467 Q 624 463 599 458 C 570 452 567 426 597 424 Z" class="stroke5"/>
    <path d="M 398 235 Q 385 241 358 245 Q 345 249 341 243 Q 334 236 344 218 Q 378 145 398 25 Q 402 -12 422 -35 Q 441 -60 448 -42 Q 454 -23 450 13 L 443 56 Q 424 161 420 197 C 416 227 416 228 398 235 Z" class="stroke6"/>
    <path d="M 765 85 Q 798 185 835 212 Q 854 234 838 255 Q 819 271 759 301 Q 737 311 712 301 Q 646 277 587 263 L 542 254 Q 472 244 398 235 C 368 231 391 191 420 197 Q 430 198 446 203 Q 567 224 682 245 Q 712 252 724 239 Q 734 229 732 205 Q 720 144 706 93 C 698 64 755 57 765 85 Z" class="stroke7"/>
    <path d="M 450 13 Q 460 13 471 14 Q 570 30 782 38 Q 795 39 798 50 Q 799 60 765 85 L 706 93 Q 705 94 703 93 Q 558 65 443 56 C 413 54 420 12 450 13 Z" class="stroke8"/>
    
    
    
    
    
    
    
    </g>
</svg>