<svg version="1.1" viewBox="0 0 1024 1024" xmlns="http://www.w3.org/2000/svg">
  
  <g transform="scale(1, -1) translate(0, -900)">
    <style type="text/css">
        .stroke1 {fill: #808080;}
        .stroke2 {fill: #808079;}
        .stroke3 {fill: #808078;}
        .stroke4 {fill: #808077;}
        .stroke5 {fill: #808076;}
        .stroke6 {fill: #808075;}
        .stroke7 {fill: #808074;}
        .stroke8 {fill: #808073;}
        .stroke9 {fill: #808072;}
        .stroke10 {fill: #808071;}
        .stroke11 {fill: #808070;}
        .stroke12 {fill: #808069;}
        .stroke13 {fill: #808068;}
        .stroke14 {fill: #808067;}
        .stroke15 {fill: #808066;}
        .stroke16 {fill: #808065;}
        .stroke17 {fill: #808064;}
        .stroke18 {fill: #808063;}
        .stroke19 {fill: #808062;}
        .stroke20 {fill: #808061;}
        text {
            font-family: Helvetica;
            font-size: 50px;
            fill: #808060;
            paint-order: stroke;
            stroke: #000000;
            stroke-width: 4px;
            stroke-linecap: butt;
            stroke-linejoin: miter;
            font-weight: 800;
        }
    </style>

    <path d="M 515 817 Q 539 799 564 778 Q 579 766 594 769 Q 604 770 609 784 Q 612 800 600 828 Q 588 855 506 864 Q 490 867 484 863 Q 480 859 482 846 Q 486 836 515 817 Z" class="stroke1"/>
    <path d="M 337 680 Q 386 665 446 672 Q 776 717 797 731 Q 807 738 802 748 Q 796 761 767 770 Q 736 777 630 748 Q 467 715 340 709 Q 334 709 330 706 C 301 699 308 688 337 680 Z" class="stroke2"/>
    <path d="M 330 706 Q 314 722 286 735 Q 267 747 253 742 Q 240 735 247 720 Q 269 689 262 606 Q 261 597 260 586 Q 245 393 194 258 Q 152 155 56 8 Q 50 1 48 -5 Q 45 -17 56 -15 Q 95 -9 191 141 Q 203 163 215 186 Q 293 345 315 557 Q 324 657 337 680 C 342 696 342 696 330 706 Z" class="stroke3"/>
    <path d="M 593 566 Q 720 596 722 596 Q 729 603 726 610 Q 720 620 696 627 Q 669 633 600 610 L 542 595 Q 484 585 420 580 Q 389 576 411 560 Q 450 539 497 550 Q 519 554 545 558 L 593 566 Z" class="stroke4"/>
    <path d="M 396 473 Q 386 477 364 481 Q 352 484 349 479 Q 342 473 351 457 Q 379 396 396 297 Q 399 267 416 248 Q 434 226 439 241 Q 440 248 442 255 L 442 285 Q 441 295 440 306 Q 422 406 419 439 Q 418 440 420 440 C 421 465 421 465 396 473 Z" class="stroke5"/>
    <path d="M 677 275 Q 690 253 704 245 Q 714 236 732 257 Q 747 279 783 396 Q 793 427 819 452 Q 832 465 822 479 Q 806 498 764 526 Q 743 536 728 532 Q 694 522 645 515 Q 620 511 590 506 L 544 498 Q 525 497 506 492 Q 445 480 396 473 C 366 469 391 433 420 440 Q 469 453 544 466 L 590 474 Q 702 495 724 480 Q 737 470 732 452 Q 705 340 695 322 Q 689 310 673 307 C 659 300 660 300 677 275 Z" class="stroke6"/>
    <path d="M 589 372 Q 622 378 651 381 Q 673 385 665 397 Q 655 410 631 415 Q 615 418 590 412 L 544 400 Q 502 390 467 380 Q 451 377 470 362 Q 476 359 543 366 L 589 372 Z" class="stroke7"/>
    <path d="M 589 269 Q 628 273 677 275 C 706 276 695 286 673 307 Q 672 310 668 312 Q 647 324 589 308 L 542 299 Q 487 292 442 285 C 412 280 412 260 442 255 Q 452 252 464 255 Q 494 261 541 265 L 589 269 Z" class="stroke8"/>
    <path d="M 593 144 Q 636 147 889 148 Q 908 148 914 156 Q 920 168 904 182 Q 853 222 814 214 Q 730 199 591 180 L 540 175 Q 413 162 265 146 Q 244 145 259 127 Q 272 112 291 107 Q 312 101 328 105 Q 424 129 533 139 Q 534 140 539 139 L 593 144 Z" class="stroke9"/>
    <path d="M 539 139 Q 536 -47 554 -73 Q 560 -80 567 -78 Q 583 -68 587 -13 Q 594 66 593 144 L 591 180 Q 590 213 589 269 L 589 308 Q 589 338 589 372 L 590 412 Q 590 442 590 474 L 590 506 Q 590 536 593 566 L 600 610 Q 601 617 603 625 Q 606 643 592 651 Q 561 672 547 674 Q 535 678 520 670 Q 511 663 519 652 Q 540 601 542 595 L 545 558 Q 545 530 544 498 L 544 466 Q 544 435 544 400 L 543 366 Q 542 335 542 299 L 541 265 Q 540 223 540 175 L 539 139 Z" class="stroke10"/>
    
    
    
    
    
    
    
    
    
    </g>
</svg>