<svg version="1.1" viewBox="0 0 1024 1024" xmlns="http://www.w3.org/2000/svg">
  
  <g transform="scale(1, -1) translate(0, -900)">
    <style type="text/css">
        .stroke1 {fill: #808080;}
        .stroke2 {fill: #808079;}
        .stroke3 {fill: #808078;}
        .stroke4 {fill: #808077;}
        .stroke5 {fill: #808076;}
        .stroke6 {fill: #808075;}
        .stroke7 {fill: #808074;}
        .stroke8 {fill: #808073;}
        .stroke9 {fill: #808072;}
        .stroke10 {fill: #808071;}
        .stroke11 {fill: #808070;}
        .stroke12 {fill: #808069;}
        .stroke13 {fill: #808068;}
        .stroke14 {fill: #808067;}
        .stroke15 {fill: #808066;}
        .stroke16 {fill: #808065;}
        .stroke17 {fill: #808064;}
        .stroke18 {fill: #808063;}
        .stroke19 {fill: #808062;}
        .stroke20 {fill: #808061;}
        text {
            font-family: Helvetica;
            font-size: 50px;
            fill: #808060;
            paint-order: stroke;
            stroke: #000000;
            stroke-width: 4px;
            stroke-linecap: butt;
            stroke-linejoin: miter;
            font-weight: 800;
        }
    </style>

    <path d="M 492 809 Q 555 752 594 742 Q 610 741 619 756 Q 623 771 619 788 Q 603 828 502 851 Q 501 851 500 851 Q 482 854 472 849 Q 466 846 470 834 Q 474 821 492 809 Z" class="stroke1"/>
    <path d="M 339 618 Q 373 603 441 614 Q 568 635 702 658 Q 768 671 777 679 Q 787 686 783 696 Q 776 709 746 717 Q 716 724 614 693 Q 481 660 339 649 C 309 647 311 628 339 618 Z" class="stroke2"/>
    <path d="M 339 649 Q 323 667 295 680 Q 276 692 263 687 Q 250 680 256 666 Q 296 600 226 313 Q 214 270 198 231 Q 162 144 64 -1 Q 58 -8 56 -14 Q 53 -24 64 -23 Q 100 -17 182 102 Q 200 130 218 163 Q 293 319 330 580 Q 334 599 339 618 C 345 643 345 643 339 649 Z" class="stroke3"/>
    <path d="M 415 376 Q 422 388 429 399 Q 448 436 468 467 Q 477 477 464 489 Q 428 513 407 511 Q 398 508 401 497 Q 414 419 331 316 Q 321 307 296 274 Q 290 261 302 266 Q 342 275 402 356 L 415 376 Z" class="stroke4"/>
    <path d="M 402 356 Q 406 352 415 345 Q 442 324 471 299 Q 481 290 491 291 Q 498 291 502 300 Q 505 310 498 331 Q 494 347 467 361 Q 442 371 415 376 C 386 382 380 376 402 356 Z" class="stroke5"/>
    <path d="M 713 396 Q 728 424 776 508 Q 785 520 770 533 Q 728 560 706 555 Q 696 551 699 538 Q 717 463 630 345 Q 618 330 612 319 Q 606 304 619 310 Q 643 314 695 374 L 713 396 Z" class="stroke6"/>
    <path d="M 695 374 Q 741 346 798 303 Q 813 290 825 289 Q 832 290 836 298 Q 843 310 828 341 Q 813 377 713 396 C 684 402 669 390 695 374 Z" class="stroke7"/>
    <path d="M 589 196 Q 722 221 730 227 Q 740 234 735 244 Q 728 256 698 264 Q 668 270 591 245 L 551 235 Q 491 225 419 218 Q 382 212 407 194 Q 450 172 521 184 Q 534 187 550 189 L 589 196 Z" class="stroke8"/>
    <path d="M 584 77 Q 587 138 589 196 L 591 245 Q 600 491 617 550 Q 620 562 602 577 Q 568 595 544 599 Q 528 602 520 594 Q 513 587 521 572 Q 549 529 550 499 Q 554 375 551 235 L 550 189 Q 547 134 544 73 C 543 43 583 47 584 77 Z" class="stroke9"/>
    <path d="M 544 73 Q 420 61 275 48 Q 251 47 268 27 Q 283 11 303 4 Q 325 -3 344 2 Q 572 51 862 31 Q 884 30 890 40 Q 897 53 879 69 Q 819 114 780 106 Q 705 93 584 77 L 544 73 Z" class="stroke10"/>
    
    
    
    
    
    
    
    
    
    </g>
</svg>