<svg version="1.1" viewBox="0 0 1024 1024" xmlns="http://www.w3.org/2000/svg">
  
  <g transform="scale(1, -1) translate(0, -900)">
    <style type="text/css">
        .stroke1 {fill: #808080;}
        .stroke2 {fill: #808079;}
        .stroke3 {fill: #808078;}
        .stroke4 {fill: #808077;}
        .stroke5 {fill: #808076;}
        .stroke6 {fill: #808075;}
        .stroke7 {fill: #808074;}
        .stroke8 {fill: #808073;}
        .stroke9 {fill: #808072;}
        .stroke10 {fill: #808071;}
        .stroke11 {fill: #808070;}
        .stroke12 {fill: #808069;}
        .stroke13 {fill: #808068;}
        .stroke14 {fill: #808067;}
        .stroke15 {fill: #808066;}
        .stroke16 {fill: #808065;}
        .stroke17 {fill: #808064;}
        .stroke18 {fill: #808063;}
        .stroke19 {fill: #808062;}
        .stroke20 {fill: #808061;}
        text {
            font-family: Helvetica;
            font-size: 50px;
            fill: #808060;
            paint-order: stroke;
            stroke: #000000;
            stroke-width: 4px;
            stroke-linecap: butt;
            stroke-linejoin: miter;
            font-weight: 800;
        }
    </style>

    <path d="M 515 828 Q 543 809 574 785 Q 589 775 603 777 Q 613 778 617 792 Q 620 807 608 834 Q 595 861 504 873 Q 489 874 484 871 Q 480 867 482 855 Q 486 845 515 828 Z" class="stroke1"/>
    <path d="M 643 715 Q 775 745 777 745 Q 786 752 782 760 Q 776 773 748 781 Q 721 788 616 759 Q 447 725 327 719 Q 323 719 319 717 C 289 712 301 700 329 690 Q 368 674 409 681 Q 508 696 609 710 L 643 715 Z" class="stroke2"/>
    <path d="M 319 717 Q 303 732 278 744 Q 259 756 245 751 Q 232 744 239 729 Q 260 699 253 616 Q 252 607 251 596 Q 236 415 182 273 Q 137 164 44 28 Q 38 21 36 15 Q 33 3 44 5 Q 78 11 166 137 Q 184 167 203 201 Q 281 361 306 566 Q 315 648 329 690 C 333 706 333 706 319 717 Z" class="stroke3"/>
    <path d="M 654 591 Q 705 598 748 604 Q 758 603 765 613 Q 766 623 747 632 Q 720 651 664 633 L 615 621 Q 599 620 583 614 Q 534 604 490 596 L 448 590 Q 408 587 364 581 Q 339 577 358 563 Q 386 544 425 549 Q 438 552 456 555 L 492 563 Q 547 575 611 584 L 654 591 Z" class="stroke4"/>
    <path d="M 490 596 Q 489 624 490 637 Q 494 652 484 659 Q 471 666 450 674 Q 434 678 419 668 Q 412 661 423 652 Q 438 637 448 590 L 456 555 Q 471 462 479 448 Q 485 441 491 446 Q 495 453 496 468 L 496 498 Q 495 508 495 516 Q 494 541 492 563 L 490 596 Z" class="stroke5"/>
    <path d="M 636 519 Q 643 556 654 591 C 663 620 656 616 664 633 Q 664 634 665 634 Q 678 668 682 675 Q 686 682 673 696 Q 657 709 643 715 C 616 728 599 736 609 710 Q 621 685 615 621 L 611 584 Q 607 554 601 521 C 596 491 630 490 636 519 Z" class="stroke6"/>
    <path d="M 496 468 Q 508 468 520 469 Q 562 476 653 484 Q 663 485 664 493 Q 664 500 636 519 C 633 521 631 521 601 521 Q 597 522 592 520 Q 540 507 496 498 C 467 492 466 468 496 468 Z" class="stroke7"/>
    <path d="M 551 401 Q 575 413 774 420 Q 903 420 910 429 Q 910 430 911 430 Q 917 440 900 454 Q 849 491 813 483 Q 669 450 308 402 Q 287 399 303 383 Q 316 370 334 365 Q 355 361 370 364 Q 437 385 514 396 L 551 401 Z" class="stroke8"/>
    <path d="M 370 315 Q 355 322 339 324 Q 332 325 328 320 Q 322 314 332 305 Q 359 275 376 193 Q 382 141 420 115 Q 421 115 423 114 Q 433 113 437 124 L 437 149 Q 433 174 422 202 Q 413 247 408 282 Q 408 285 407 287 C 405 300 398 303 370 315 Z" class="stroke9"/>
    <path d="M 658 147 Q 673 122 688 113 Q 698 106 714 126 Q 727 144 757 246 Q 766 276 789 300 Q 802 312 792 326 Q 777 342 736 369 Q 717 379 650 362 Q 620 359 575 350 L 525 341 Q 503 340 481 335 Q 420 323 370 315 C 340 310 378 280 407 287 Q 455 300 526 312 L 573 320 Q 678 338 698 324 Q 708 315 706 300 Q 684 186 666 174 C 653 155 653 155 658 147 Z" class="stroke10"/>
    <path d="M 568 232 Q 598 239 624 242 Q 645 246 637 257 Q 627 270 605 273 Q 590 274 570 269 L 526 257 Q 489 247 458 235 Q 443 232 462 219 Q 465 216 526 225 L 568 232 Z" class="stroke11"/>
    <path d="M 575 350 Q 576 354 576 356 Q 583 372 575 380 Q 562 393 551 401 C 527 419 505 425 514 396 Q 523 369 525 341 L 526 312 Q 526 291 526 257 L 526 225 Q 526 198 526 164 C 526 134 564 141 565 171 Q 566 202 568 232 L 570 269 Q 571 296 573 320 L 575 350 Z" class="stroke12"/>
    <path d="M 437 124 Q 444 123 454 124 Q 569 140 658 147 C 688 149 692 160 666 174 Q 660 178 652 180 Q 633 184 565 171 L 526 164 Q 480 157 437 149 C 407 144 407 126 437 124 Z" class="stroke13"/>
    <path d="M 412 88 Q 394 31 266 -60 Q 244 -73 271 -72 Q 331 -76 441 12 Q 469 34 482 45 Q 494 55 492 66 Q 491 79 465 90 Q 437 103 424 102 Q 417 101 412 88 Z" class="stroke14"/>
    <path d="M 653 71 Q 699 25 755 -43 Q 771 -65 788 -70 Q 797 -71 805 -61 Q 818 -48 807 -1 Q 803 24 785 42 Q 767 55 727 74 Q 681 95 655 104 Q 645 110 643 97 Q 642 82 653 71 Z" class="stroke15"/>
    
    
    
    
    
    
    
    
    
    
    
    
    
    
    </g>
</svg>