<svg version="1.1" viewBox="0 0 1024 1024" xmlns="http://www.w3.org/2000/svg">
  
  <g transform="scale(1, -1) translate(0, -900)">
    <style type="text/css">
        .stroke1 {fill: #808080;}
        .stroke2 {fill: #808079;}
        .stroke3 {fill: #808078;}
        .stroke4 {fill: #808077;}
        .stroke5 {fill: #808076;}
        .stroke6 {fill: #808075;}
        .stroke7 {fill: #808074;}
        .stroke8 {fill: #808073;}
        .stroke9 {fill: #808072;}
        .stroke10 {fill: #808071;}
        .stroke11 {fill: #808070;}
        .stroke12 {fill: #808069;}
        .stroke13 {fill: #808068;}
        .stroke14 {fill: #808067;}
        .stroke15 {fill: #808066;}
        .stroke16 {fill: #808065;}
        .stroke17 {fill: #808064;}
        .stroke18 {fill: #808063;}
        .stroke19 {fill: #808062;}
        .stroke20 {fill: #808061;}
        text {
            font-family: Helvetica;
            font-size: 50px;
            fill: #808060;
            paint-order: stroke;
            stroke: #000000;
            stroke-width: 4px;
            stroke-linecap: butt;
            stroke-linejoin: miter;
            font-weight: 800;
        }
    </style>

    <path d="M 291 408 Q 224 401 122 402 Q 109 403 106 391 Q 105 378 124 363 Q 172 327 206 340 Q 230 346 348 363 L 406 370 Q 421 373 600 383 L 655 385 Q 746 394 877 374 Q 902 370 908 379 Q 917 392 904 406 Q 874 436 830 457 Q 815 464 788 457 Q 721 445 655 436 L 601 432 Q 484 426 412 418 L 352 413 Q 316 412 291 408 Z" class="stroke1"/>
    <path d="M 348 363 Q 335 249 221 154 Q 215 150 210 144 Q 197 134 210 132 Q 297 141 364 246 Q 368 255 373 264 Q 379 280 386 294 Q 401 330 406 370 L 412 418 Q 419 467 426 482 Q 435 501 417 508 Q 369 541 342 529 Q 329 523 336 509 Q 357 478 352 413 L 348 363 Z" class="stroke2"/>
    <path d="M 600 383 Q 600 245 585 208 Q 573 150 629 92 Q 629 91 632 89 Q 645 88 650 102 Q 663 136 659 168 Q 655 286 655 385 L 655 436 Q 656 488 661 513 Q 664 526 656 533 Q 631 554 611 564 Q 598 568 588 560 Q 582 556 590 546 Q 600 528 601 432 L 600 383 Z" class="stroke3"/>
    
    
    </g>
</svg>