<svg version="1.1" viewBox="0 0 1024 1024" xmlns="http://www.w3.org/2000/svg">
  
  <g transform="scale(1, -1) translate(0, -900)">
    <style type="text/css">
        .stroke1 {fill: #808080;}
        .stroke2 {fill: #808079;}
        .stroke3 {fill: #808078;}
        .stroke4 {fill: #808077;}
        .stroke5 {fill: #808076;}
        .stroke6 {fill: #808075;}
        .stroke7 {fill: #808074;}
        .stroke8 {fill: #808073;}
        .stroke9 {fill: #808072;}
        .stroke10 {fill: #808071;}
        .stroke11 {fill: #808070;}
        .stroke12 {fill: #808069;}
        .stroke13 {fill: #808068;}
        .stroke14 {fill: #808067;}
        .stroke15 {fill: #808066;}
        .stroke16 {fill: #808065;}
        .stroke17 {fill: #808064;}
        .stroke18 {fill: #808063;}
        .stroke19 {fill: #808062;}
        .stroke20 {fill: #808061;}
        text {
            font-family: Helvetica;
            font-size: 50px;
            fill: #808060;
            paint-order: stroke;
            stroke: #000000;
            stroke-width: 4px;
            stroke-linecap: butt;
            stroke-linejoin: miter;
            font-weight: 800;
        }
    </style>

    <path d="M 578 532 Q 602 539 628 544 Q 694 560 703 570 Q 713 580 708 590 Q 699 603 665 612 Q 625 618 562 591 L 514 575 Q 381 535 239 516 Q 196 509 227 489 Q 281 461 343 478 Q 434 500 529 521 L 578 532 Z" class="stroke1"/>
    <path d="M 359 332 Q 479 362 484 366 Q 491 373 487 381 Q 480 391 453 398 Q 432 401 356 376 Q 293 358 235 350 Q 202 343 226 329 Q 262 311 315 321 L 359 332 Z" class="stroke2"/>
    <path d="M 368 206 Q 372 246 376 279 Q 376 285 377 290 Q 386 311 359 332 C 336 351 313 351 315 321 Q 316 311 323 192 C 325 162 365 176 368 206 Z" class="stroke3"/>
    <path d="M 323 192 Q 206 161 195 159 Q 171 159 148 160 Q 133 160 130 145 Q 127 132 141 122 Q 180 95 197 88 Q 216 79 240 93 Q 291 124 525 229 Q 544 236 552 245 Q 561 255 548 259 Q 530 259 368 206 L 323 192 Z" class="stroke4"/>
    <path d="M 529 521 Q 637 124 844 -28 Q 877 -52 893 -52 Q 908 -53 916 -40 Q 925 -30 914 18 Q 908 79 917 189 Q 921 220 911 223 Q 902 224 892 196 Q 858 79 832 79 Q 751 119 660 305 Q 648 329 639 353 Q 611 416 578 532 L 562 591 Q 532 690 533 752 Q 542 794 514 808 Q 507 812 500 815 Q 475 828 460 828 Q 447 827 446 826 Q 422 817 445 794 Q 463 791 507 603 Q 510 590 514 575 L 529 521 Z" class="stroke5"/>
    <path d="M 681 715 Q 718 694 758 669 Q 776 659 791 662 Q 801 665 805 680 Q 806 696 791 725 Q 781 746 743 755 Q 656 768 643 759 Q 639 755 643 741 Q 650 731 681 715 Z" class="stroke6"/>
    
    
    
    
    
    </g>
</svg>