<svg version="1.1" viewBox="0 0 1024 1024" xmlns="http://www.w3.org/2000/svg">
  
  <g transform="scale(1, -1) translate(0, -900)">
    <style type="text/css">
        .stroke1 {fill: #808080;}
        .stroke2 {fill: #808079;}
        .stroke3 {fill: #808078;}
        .stroke4 {fill: #808077;}
        .stroke5 {fill: #808076;}
        .stroke6 {fill: #808075;}
        .stroke7 {fill: #808074;}
        .stroke8 {fill: #808073;}
        .stroke9 {fill: #808072;}
        .stroke10 {fill: #808071;}
        .stroke11 {fill: #808070;}
        .stroke12 {fill: #808069;}
        .stroke13 {fill: #808068;}
        .stroke14 {fill: #808067;}
        .stroke15 {fill: #808066;}
        .stroke16 {fill: #808065;}
        .stroke17 {fill: #808064;}
        .stroke18 {fill: #808063;}
        .stroke19 {fill: #808062;}
        .stroke20 {fill: #808061;}
        text {
            font-family: Helvetica;
            font-size: 50px;
            fill: #808060;
            paint-order: stroke;
            stroke: #000000;
            stroke-width: 4px;
            stroke-linecap: butt;
            stroke-linejoin: miter;
            font-weight: 800;
        }
    </style>

    <path d="M 675 625 Q 706 700 744 726 Q 763 745 747 766 Q 729 782 671 811 Q 652 820 627 811 Q 524 768 371 748 Q 352 747 354 736 Q 357 726 378 720 Q 406 707 446 721 Q 531 737 611 753 Q 633 757 641 749 Q 653 734 620 633 C 611 604 663 597 675 625 Z" class="stroke1"/>
    <path d="M 379 534 Q 448 558 687 589 Q 700 590 700 601 Q 700 608 675 625 L 620 633 Q 616 633 612 631 Q 482 594 376 574 C 347 568 350 525 379 534 Z" class="stroke2"/>
    <path d="M 320 336 Q 413 388 642 408 Q 669 411 679 401 Q 698 379 688 335 Q 672 244 627 119 Q 617 94 595 80 Q 577 74 479 107 Q 460 116 459 106 Q 458 96 479 78 Q 531 29 553 -13 Q 572 -47 601 -28 Q 661 11 686 62 Q 702 107 746 310 Q 755 359 778 379 Q 794 395 787 407 Q 775 420 723 449 Q 696 464 614 445 Q 437 417 358 396 Q 336 395 341 408 Q 362 495 379 534 C 389 562 390 564 376 574 Q 363 589 348 596 Q 323 606 314 603 Q 304 597 310 583 Q 331 541 297 437 Q 290 421 261 392 Q 249 377 258 364 Q 268 351 289 334 Q 301 324 320 336 Z" class="stroke3"/>
    
    
    </g>
</svg>