<svg version="1.1" viewBox="0 0 1024 1024" xmlns="http://www.w3.org/2000/svg">
  
  <g transform="scale(1, -1) translate(0, -900)">
    <style type="text/css">
        .stroke1 {fill: #808080;}
        .stroke2 {fill: #808079;}
        .stroke3 {fill: #808078;}
        .stroke4 {fill: #808077;}
        .stroke5 {fill: #808076;}
        .stroke6 {fill: #808075;}
        .stroke7 {fill: #808074;}
        .stroke8 {fill: #808073;}
        .stroke9 {fill: #808072;}
        .stroke10 {fill: #808071;}
        .stroke11 {fill: #808070;}
        .stroke12 {fill: #808069;}
        .stroke13 {fill: #808068;}
        .stroke14 {fill: #808067;}
        .stroke15 {fill: #808066;}
        .stroke16 {fill: #808065;}
        .stroke17 {fill: #808064;}
        .stroke18 {fill: #808063;}
        .stroke19 {fill: #808062;}
        .stroke20 {fill: #808061;}
        text {
            font-family: Helvetica;
            font-size: 50px;
            fill: #808060;
            paint-order: stroke;
            stroke: #000000;
            stroke-width: 4px;
            stroke-linecap: butt;
            stroke-linejoin: miter;
            font-weight: 800;
        }
    </style>

    <path d="M 514 484 Q 565 503 707 536 Q 720 536 728 552 Q 728 567 700 575 Q 661 596 576 560 Q 536 545 498 529 L 452 513 Q 428 506 169 434 Q 136 427 164 409 Q 206 382 240 395 Q 340 431 468 470 L 514 484 Z" class="stroke1"/>
    <path d="M 468 470 Q 603 125 788 20 Q 854 -23 883 -20 Q 904 -14 893 14 Q 887 62 888 201 Q 887 226 878 227 Q 875 227 835 130 Q 819 88 790 98 Q 780 102 767 109 Q 625 208 514 484 L 498 529 Q 461 638 458 713 Q 462 759 400 769 Q 360 778 341 766 Q 322 756 335 736 Q 392 702 399 667 Q 426 583 452 513 L 468 470 Z" class="stroke2"/>
    <path d="M 646 745 Q 680 718 717 685 Q 732 672 749 673 Q 759 674 765 688 Q 769 704 759 735 Q 747 771 639 795 Q 623 798 616 795 Q 610 791 613 777 Q 617 767 646 745 Z" class="stroke3"/>
    
    
    </g>
</svg>