<svg version="1.1" viewBox="0 0 1024 1024" xmlns="http://www.w3.org/2000/svg">
  
  <g transform="scale(1, -1) translate(0, -900)">
    <style type="text/css">
        .stroke1 {fill: #808080;}
        .stroke2 {fill: #808079;}
        .stroke3 {fill: #808078;}
        .stroke4 {fill: #808077;}
        .stroke5 {fill: #808076;}
        .stroke6 {fill: #808075;}
        .stroke7 {fill: #808074;}
        .stroke8 {fill: #808073;}
        .stroke9 {fill: #808072;}
        .stroke10 {fill: #808071;}
        .stroke11 {fill: #808070;}
        .stroke12 {fill: #808069;}
        .stroke13 {fill: #808068;}
        .stroke14 {fill: #808067;}
        .stroke15 {fill: #808066;}
        .stroke16 {fill: #808065;}
        .stroke17 {fill: #808064;}
        .stroke18 {fill: #808063;}
        .stroke19 {fill: #808062;}
        .stroke20 {fill: #808061;}
        text {
            font-family: Helvetica;
            font-size: 50px;
            fill: #808060;
            paint-order: stroke;
            stroke: #000000;
            stroke-width: 4px;
            stroke-linecap: butt;
            stroke-linejoin: miter;
            font-weight: 800;
        }
    </style>

    <path d="M 364 565 Q 388 656 416 683 Q 440 710 416 724 Q 395 736 368 754 Q 347 766 298 734 Q 225 707 179 698 Q 167 698 169 691 Q 170 685 184 679 Q 203 669 238 680 Q 331 708 340 697 Q 347 690 336 651 Q 326 614 312 570 C 303 541 356 536 364 565 Z" class="stroke1"/>
    <path d="M 227 510 Q 234 511 241 512 Q 281 525 371 539 Q 381 540 381 549 Q 381 556 364 565 L 312 570 Q 309 570 308 569 Q 254 550 215 540 C 186 532 197 506 227 510 Z" class="stroke2"/>
    <path d="M 284 369 Q 303 370 311 362 Q 321 349 317 311 Q 307 211 279 144 Q 264 105 250 92 Q 241 83 217 92 Q 190 101 168 108 Q 152 115 154 104 Q 155 91 169 78 Q 200 42 217 11 Q 233 -13 256 1 Q 331 55 342 125 Q 382 336 385 339 Q 386 345 390 349 Q 400 367 390 376 Q 377 394 347 408 Q 323 418 251 392 Q 203 380 202 382 Q 196 388 225 497 Q 226 504 227 510 C 231 529 231 529 215 540 Q 205 550 183 559 Q 170 569 162 562 Q 152 555 162 542 Q 183 508 171 455 Q 158 385 128 359 Q 116 344 121 332 Q 128 319 140 311 Q 150 304 168 320 Q 216 368 284 369 Z" class="stroke3"/>
    <path d="M 595 752 Q 625 727 657 695 Q 673 680 690 681 Q 703 681 708 697 Q 714 713 703 747 Q 696 769 662 785 Q 581 816 564 807 Q 558 803 560 788 Q 564 775 595 752 Z" class="stroke4"/>
    <path d="M 624 573 Q 717 600 900 600 Q 921 600 925 610 Q 929 622 913 634 Q 858 670 807 654 Q 672 623 435 578 Q 416 575 431 559 Q 444 546 463 542 Q 482 538 498 543 Q 538 556 586 566 L 624 573 Z" class="stroke5"/>
    <path d="M 648 345 Q 584 345 531 345 Q 506 346 520 361 Q 584 443 645 502 Q 661 517 659 524 Q 659 536 624 573 C 604 595 585 596 586 566 Q 595 527 510 408 Q 492 381 457 357 Q 438 344 438 332 Q 441 314 453 295 Q 463 285 475 290 Q 508 306 613 319 Q 622 320 630 320 C 660 322 678 345 648 345 Z" class="stroke6"/>
    <path d="M 742 179 Q 657 172 555 151 Q 521 142 545 168 Q 597 229 717 354 Q 751 391 779 412 Q 794 422 787 433 Q 778 454 744 477 Q 728 489 718 486 Q 706 485 708 467 Q 708 430 648 345 L 630 320 Q 629 320 629 319 Q 491 157 459 146 Q 443 137 445 122 Q 446 107 472 84 Q 482 71 499 82 Q 598 133 754 161 C 783 167 772 182 742 179 Z" class="stroke7"/>
    <path d="M 754 161 Q 817 59 828 53 Q 837 50 845 58 Q 860 68 856 111 Q 852 171 706 269 Q 699 276 694 265 Q 691 252 699 241 Q 718 213 742 179 L 754 161 Z" class="stroke8"/>
    
    
    
    
    
    
    
    </g>
</svg>