<svg version="1.1" viewBox="0 0 1024 1024" xmlns="http://www.w3.org/2000/svg">
  
  <g transform="scale(1, -1) translate(0, -900)">
    <style type="text/css">
        .stroke1 {fill: #808080;}
        .stroke2 {fill: #808079;}
        .stroke3 {fill: #808078;}
        .stroke4 {fill: #808077;}
        .stroke5 {fill: #808076;}
        .stroke6 {fill: #808075;}
        .stroke7 {fill: #808074;}
        .stroke8 {fill: #808073;}
        .stroke9 {fill: #808072;}
        .stroke10 {fill: #808071;}
        .stroke11 {fill: #808070;}
        .stroke12 {fill: #808069;}
        .stroke13 {fill: #808068;}
        .stroke14 {fill: #808067;}
        .stroke15 {fill: #808066;}
        .stroke16 {fill: #808065;}
        .stroke17 {fill: #808064;}
        .stroke18 {fill: #808063;}
        .stroke19 {fill: #808062;}
        .stroke20 {fill: #808061;}
        text {
            font-family: Helvetica;
            font-size: 50px;
            fill: #808060;
            paint-order: stroke;
            stroke: #000000;
            stroke-width: 4px;
            stroke-linecap: butt;
            stroke-linejoin: miter;
            font-weight: 800;
        }
    </style>

    <path d="M 353 743 Q 381 719 412 691 Q 425 679 439 680 Q 449 680 453 693 Q 457 706 449 733 Q 443 752 412 767 Q 337 794 328 787 Q 324 783 325 771 Q 328 761 353 743 Z" class="stroke1"/>
    <path d="M 614 808 Q 593 769 534 695 Q 524 677 542 681 Q 591 712 617 733 Q 695 790 701 793 Q 722 803 711 822 Q 696 838 669 852 Q 644 865 632 861 Q 619 860 624 846 Q 628 827 614 808 Z" class="stroke2"/>
    <path d="M 712 522 Q 737 574 763 591 Q 784 613 758 631 Q 734 650 708 666 Q 695 678 641 659 Q 577 650 431 617 Q 365 604 323 600 Q 310 600 308 592 Q 305 586 327 574 Q 343 562 385 572 Q 445 587 483 595 L 520 601 Q 577 611 661 621 Q 674 622 679 616 Q 685 603 659 528 C 649 500 698 495 712 522 Z" class="stroke3"/>
    <path d="M 542 463 Q 621 476 723 487 Q 735 488 736 498 Q 736 505 712 522 C 697 533 689 532 659 528 Q 656 529 654 528 Q 596 515 541 500 L 492 490 Q 393 471 306 457 C 276 452 288 419 318 422 Q 325 422 335 424 Q 396 440 493 455 L 542 463 Z" class="stroke4"/>
    <path d="M 542 330 Q 608 342 697 352 Q 755 362 779 358 Q 794 357 800 344 Q 807 326 765 214 Q 759 196 741 200 Q 711 207 674 217 Q 644 226 665 198 Q 720 143 731 116 Q 738 101 753 103 Q 766 102 784 116 Q 808 141 832 201 Q 850 283 886 318 Q 905 339 892 353 Q 867 381 828 405 Q 812 417 752 401 Q 724 397 542 364 L 493 355 Q 405 340 350 325 Q 317 319 301 320 Q 292 321 295 338 Q 307 411 318 422 C 327 444 327 444 306 457 Q 290 470 268 480 Q 256 489 246 480 Q 237 473 247 455 Q 260 427 251 388 Q 235 333 219 311 Q 207 293 219 276 Q 229 248 244 241 Q 254 235 279 254 Q 330 297 450 314 L 542 330 Z" class="stroke5"/>
    <path d="M 491 275 Q 491 109 481 22 Q 478 -20 503 -53 Q 516 -68 525 -50 Q 543 -14 544 59 Q 543 86 542 330 L 542 364 Q 542 413 542 463 L 541 500 Q 541 561 544 570 Q 547 582 538 589 Q 531 595 520 601 C 495 617 479 625 483 595 Q 486 588 492 490 L 493 455 Q 493 406 493 355 L 491 275 Z" class="stroke6"/>
    <path d="M 450 314 Q 444 295 426 269 Q 371 194 310 143 Q 259 97 155 32 Q 136 20 153 17 Q 190 14 294 72 Q 363 121 414 175 Q 421 184 491 275 C 531 326 472 370 450 314 Z" class="stroke7"/>
    
    
    
    
    
    
    </g>
</svg>