<svg version="1.1" viewBox="0 0 1024 1024" xmlns="http://www.w3.org/2000/svg">
  
  <g transform="scale(1, -1) translate(0, -900)">
    <style type="text/css">
        .stroke1 {fill: #808080;}
        .stroke2 {fill: #808079;}
        .stroke3 {fill: #808078;}
        .stroke4 {fill: #808077;}
        .stroke5 {fill: #808076;}
        .stroke6 {fill: #808075;}
        .stroke7 {fill: #808074;}
        .stroke8 {fill: #808073;}
        .stroke9 {fill: #808072;}
        .stroke10 {fill: #808071;}
        .stroke11 {fill: #808070;}
        .stroke12 {fill: #808069;}
        .stroke13 {fill: #808068;}
        .stroke14 {fill: #808067;}
        .stroke15 {fill: #808066;}
        .stroke16 {fill: #808065;}
        .stroke17 {fill: #808064;}
        .stroke18 {fill: #808063;}
        .stroke19 {fill: #808062;}
        .stroke20 {fill: #808061;}
        text {
            font-family: Helvetica;
            font-size: 50px;
            fill: #808060;
            paint-order: stroke;
            stroke: #000000;
            stroke-width: 4px;
            stroke-linecap: butt;
            stroke-linejoin: miter;
            font-weight: 800;
        }
    </style>

    <path d="M 369 603 Q 397 703 429 732 Q 454 759 430 774 Q 409 787 382 806 Q 363 818 317 793 Q 256 772 208 763 Q 195 763 198 756 Q 199 750 212 743 Q 228 734 304 751 Q 343 763 350 751 Q 359 742 345 701 Q 332 658 315 608 C 305 580 361 574 369 603 Z" class="stroke1"/>
    <path d="M 242 554 Q 284 564 378 575 Q 388 576 388 585 Q 388 592 369 603 C 347 616 344 616 315 608 Q 266 595 228 585 C 199 577 213 547 242 554 Z" class="stroke2"/>
    <path d="M 228 585 Q 218 594 200 604 Q 187 614 178 608 Q 168 602 178 588 Q 197 551 183 496 Q 164 423 133 396 Q 120 383 124 370 Q 131 357 141 348 Q 151 341 170 356 Q 215 404 272 393 Q 279 392 285 386 Q 297 370 292 330 Q 286 234 263 169 Q 250 132 237 117 Q 230 108 205 116 Q 184 120 168 124 Q 152 131 154 120 Q 155 107 169 94 Q 193 63 205 35 Q 223 11 245 25 Q 315 82 325 149 Q 356 356 358 358 Q 359 364 365 370 Q 375 389 366 398 Q 353 416 322 430 Q 298 440 283 434 Q 273 430 218 415 Q 211 414 208 416 Q 202 420 208 434 Q 221 482 239 540 Q 240 547 242 554 C 247 572 247 572 228 585 Z" class="stroke3"/>
    <path d="M 587 756 Q 624 756 711 774 Q 807 801 808 802 Q 815 809 811 817 Q 804 827 777 833 Q 749 837 723 825 Q 692 812 657 803 Q 620 793 577 786 C 547 781 557 755 587 756 Z" class="stroke4"/>
    <path d="M 577 450 Q 577 499 577 540 L 577 558 Q 577 600 578 632 L 579 657 Q 583 732 587 751 Q 587 754 587 756 C 589 776 589 776 577 786 Q 555 805 529 815 Q 514 822 506 816 Q 497 810 503 794 Q 525 746 532 696 Q 536 645 537 443 C 537 413 577 420 577 450 Z" class="stroke5"/>
    <path d="M 578 632 Q 581 632 743 659 Q 767 663 757 676 Q 747 691 721 694 Q 685 698 579 657 C 551 646 548 628 578 632 Z" class="stroke6"/>
    <path d="M 577 540 Q 580 537 617 536 Q 696 548 757 554 Q 782 558 773 572 Q 763 588 735 592 Q 710 596 667 585 Q 618 569 577 558 C 548 550 548 549 577 540 Z" class="stroke7"/>
    <path d="M 594 417 Q 678 442 890 442 Q 908 443 912 451 Q 916 463 901 475 Q 850 508 817 500 Q 748 482 631 460 Q 603 456 577 450 L 537 443 Q 470 433 403 421 Q 384 418 398 403 Q 411 391 429 386 Q 448 382 463 387 Q 466 387 474 387 L 513 400 Q 526 404 546 408 L 594 417 Z" class="stroke8"/>
    <path d="M 474 387 Q 492 350 490 316 Q 490 159 476 108 Q 469 77 455 61 Q 439 39 447 16 Q 457 -18 474 -32 Q 484 -41 499 -21 Q 539 19 668 120 Q 687 133 690 141 Q 693 154 670 145 Q 543 85 531 89 Q 522 96 524 118 Q 534 301 545 346 Q 551 371 513 400 C 490 420 462 415 474 387 Z" class="stroke9"/>
    <path d="M 719 281 Q 791 335 827 355 Q 843 359 839 370 Q 817 415 774 419 Q 761 418 762 399 Q 765 380 707 294 C 690 269 695 263 719 281 Z" class="stroke10"/>
    <path d="M 707 294 Q 650 355 594 417 C 574 439 521 424 546 408 Q 580 389 603 355 Q 795 99 830 89 Q 921 89 975 100 Q 991 101 998 110 Q 1002 117 991 121 Q 835 178 752 251 Q 736 266 719 281 L 707 294 Z" class="stroke11"/>
    
    
    
    
    
    
    
    
    
    
    </g>
</svg>