<svg version="1.1" viewBox="0 0 1024 1024" xmlns="http://www.w3.org/2000/svg">
  
  <g transform="scale(1, -1) translate(0, -900)">
    <style type="text/css">
        .stroke1 {fill: #808080;}
        .stroke2 {fill: #808079;}
        .stroke3 {fill: #808078;}
        .stroke4 {fill: #808077;}
        .stroke5 {fill: #808076;}
        .stroke6 {fill: #808075;}
        .stroke7 {fill: #808074;}
        .stroke8 {fill: #808073;}
        .stroke9 {fill: #808072;}
        .stroke10 {fill: #808071;}
        .stroke11 {fill: #808070;}
        .stroke12 {fill: #808069;}
        .stroke13 {fill: #808068;}
        .stroke14 {fill: #808067;}
        .stroke15 {fill: #808066;}
        .stroke16 {fill: #808065;}
        .stroke17 {fill: #808064;}
        .stroke18 {fill: #808063;}
        .stroke19 {fill: #808062;}
        .stroke20 {fill: #808061;}
        text {
            font-family: Helvetica;
            font-size: 50px;
            fill: #808060;
            paint-order: stroke;
            stroke: #000000;
            stroke-width: 4px;
            stroke-linecap: butt;
            stroke-linejoin: miter;
            font-weight: 800;
        }
    </style>

    <path d="M 382 636 Q 464 654 471 658 Q 478 665 475 673 Q 468 683 442 691 Q 415 697 384 685 L 326 668 Q 248 652 189 646 Q 155 640 179 625 Q 215 601 268 614 Q 299 620 332 626 L 382 636 Z" class="stroke1"/>
    <path d="M 382 520 Q 448 536 452 540 Q 459 547 455 554 Q 448 564 423 570 Q 402 574 382 567 L 337 551 Q 271 533 223 528 Q 192 522 214 508 Q 250 490 332 509 Q 335 510 338 510 L 382 520 Z" class="stroke2"/>
    <path d="M 382 417 Q 392 423 408 427 Q 462 446 466 463 Q 462 467 450 467 Q 416 458 382 448 L 340 438 Q 169 396 128 398 Q 116 397 114 388 Q 111 376 119 368 Q 140 352 168 333 Q 178 330 189 337 Q 246 373 340 402 L 382 417 Z" class="stroke3"/>
    <path d="M 340 402 Q 340 356 351 326 Q 357 316 366 322 Q 384 341 382 417 L 382 448 Q 382 485 382 520 L 382 567 Q 382 601 382 636 L 384 685 Q 385 709 388 722 Q 395 741 383 753 Q 367 766 338 778 Q 316 785 295 775 Q 283 766 298 752 Q 325 704 326 668 L 332 626 Q 335 592 337 551 L 338 510 Q 338 480 340 438 L 340 402 Z" class="stroke4"/>
    <path d="M 680 657 Q 803 678 810 685 Q 819 692 815 700 Q 808 712 780 720 Q 746 727 683 703 L 629 691 Q 583 684 530 680 Q 494 674 519 658 Q 552 637 630 648 L 680 657 Z" class="stroke5"/>
    <path d="M 673 543 Q 697 549 761 556 Q 770 555 777 566 Q 778 576 759 584 Q 735 602 676 584 L 629 573 Q 617 572 539 561 Q 515 557 534 543 Q 562 524 600 530 Q 612 533 628 535 L 673 543 Z" class="stroke6"/>
    <path d="M 665 430 Q 689 433 852 433 Q 870 433 874 440 Q 880 450 865 463 Q 817 499 759 487 Q 720 481 667 471 L 624 465 Q 558 458 483 448 Q 464 447 478 431 Q 491 418 507 413 Q 526 409 540 412 Q 579 422 622 426 L 665 430 Z" class="stroke7"/>
    <path d="M 646 335 Q 664 365 665 430 L 667 471 Q 670 508 673 543 L 676 584 Q 676 620 680 657 L 683 703 Q 687 748 693 770 Q 703 789 690 802 Q 674 817 646 831 Q 624 840 600 831 Q 588 822 602 806 Q 623 767 629 691 L 630 648 Q 630 614 629 573 L 628 535 Q 628 531 628 526 Q 627 495 624 465 L 622 426 Q 616 345 631 330 C 637 317 637 317 646 335 Z" class="stroke8"/>
    <path d="M 670 60 Q 706 202 759 248 Q 778 269 762 289 Q 743 305 685 334 Q 667 341 646 335 L 631 330 Q 480 281 304 269 Q 285 268 287 257 Q 290 247 310 240 Q 338 227 378 238 Q 496 257 610 278 Q 640 284 652 271 Q 667 256 661 225 Q 655 198 649 172 L 642 147 Q 630 104 618 65 C 609 36 662 31 670 60 Z" class="stroke9"/>
    <path d="M 649 172 Q 609 205 555 189 Q 441 167 265 148 Q 237 147 258 128 Q 285 101 318 106 Q 438 127 639 147 L 642 147 C 672 149 673 154 649 172 Z" class="stroke10"/>
    <path d="M 618 65 Q 614 66 611 65 Q 439 32 300 24 Q 275 23 289 0 Q 296 -12 309 -17 Q 322 -21 339 -18 Q 451 1 690 10 Q 703 11 706 22 Q 707 32 670 60 L 618 65 Z" class="stroke11"/>
    
    
    
    
    
    
    
    
    
    
    </g>
</svg>