<svg version="1.1" viewBox="0 0 1024 1024" xmlns="http://www.w3.org/2000/svg">
  
  <g transform="scale(1, -1) translate(0, -900)">
    <style type="text/css">
        .stroke1 {fill: #808080;}
        .stroke2 {fill: #808079;}
        .stroke3 {fill: #808078;}
        .stroke4 {fill: #808077;}
        .stroke5 {fill: #808076;}
        .stroke6 {fill: #808075;}
        .stroke7 {fill: #808074;}
        .stroke8 {fill: #808073;}
        .stroke9 {fill: #808072;}
        .stroke10 {fill: #808071;}
        .stroke11 {fill: #808070;}
        .stroke12 {fill: #808069;}
        .stroke13 {fill: #808068;}
        .stroke14 {fill: #808067;}
        .stroke15 {fill: #808066;}
        .stroke16 {fill: #808065;}
        .stroke17 {fill: #808064;}
        .stroke18 {fill: #808063;}
        .stroke19 {fill: #808062;}
        .stroke20 {fill: #808061;}
        text {
            font-family: Helvetica;
            font-size: 50px;
            fill: #808060;
            paint-order: stroke;
            stroke: #000000;
            stroke-width: 4px;
            stroke-linecap: butt;
            stroke-linejoin: miter;
            font-weight: 800;
        }
    </style>

    <path d="M 570 808 Q 545 829 525 830 Q 506 830 512 807 Q 522 782 511 761 Q 480 692 432 629 Q 386 569 325 503 Q 315 493 311 487 Q 307 477 322 477 Q 380 484 535 675 Q 559 720 593 745 Q 603 755 600 770 Q 597 783 570 808 Z" class="stroke1"/>
    <path d="M 536 531 Q 461 384 281 195 Q 271 185 267 179 Q 263 169 278 170 Q 326 177 472 342 L 500 375 Q 531 414 565 458 Q 596 506 622 528 Q 632 538 629 553 Q 625 566 597 592 Q 572 614 551 615 Q 532 614 538 591 Q 551 557 536 531 Z" class="stroke2"/>
    <path d="M 472 342 Q 490 303 490 231 Q 490 138 470 55 Q 460 10 494 -41 Q 495 -41 497 -44 Q 515 -60 527 -33 Q 542 7 541 54 Q 540 249 545 292 Q 552 319 543 330 Q 504 372 500 375 C 479 396 461 370 472 342 Z" class="stroke3"/>
    
    
    </g>
</svg>