<svg version="1.1" viewBox="0 0 1024 1024" xmlns="http://www.w3.org/2000/svg">
  
  <g transform="scale(1, -1) translate(0, -900)">
    <style type="text/css">
        .stroke1 {fill: #808080;}
        .stroke2 {fill: #808079;}
        .stroke3 {fill: #808078;}
        .stroke4 {fill: #808077;}
        .stroke5 {fill: #808076;}
        .stroke6 {fill: #808075;}
        .stroke7 {fill: #808074;}
        .stroke8 {fill: #808073;}
        .stroke9 {fill: #808072;}
        .stroke10 {fill: #808071;}
        .stroke11 {fill: #808070;}
        .stroke12 {fill: #808069;}
        .stroke13 {fill: #808068;}
        .stroke14 {fill: #808067;}
        .stroke15 {fill: #808066;}
        .stroke16 {fill: #808065;}
        .stroke17 {fill: #808064;}
        .stroke18 {fill: #808063;}
        .stroke19 {fill: #808062;}
        .stroke20 {fill: #808061;}
        text {
            font-family: Helvetica;
            font-size: 50px;
            fill: #808060;
            paint-order: stroke;
            stroke: #000000;
            stroke-width: 4px;
            stroke-linecap: butt;
            stroke-linejoin: miter;
            font-weight: 800;
        }
    </style>

    <path d="M 258 779 Q 274 749 211 638 Q 180 589 139 534 Q 129 524 127 518 Q 123 508 137 510 Q 188 516 310 685 Q 326 712 341 724 Q 351 734 346 748 Q 342 761 314 784 Q 287 802 269 802 Q 250 801 258 779 Z" class="stroke1"/>
    <path d="M 242 341 Q 263 372 286 409 Q 308 452 329 472 Q 338 482 333 495 Q 329 507 303 528 Q 278 544 260 544 Q 242 543 250 522 Q 263 494 253 470 Q 222 391 173 316 Q 127 244 62 165 Q 52 155 51 149 Q 47 139 61 141 Q 100 153 217 305 L 242 341 Z" class="stroke2"/>
    <path d="M 217 305 Q 242 238 209 88 Q 188 25 226 -20 L 227 -21 Q 243 -36 254 -11 Q 267 26 267 67 Q 271 233 278 270 Q 285 295 276 304 Q 246 338 242 341 C 221 362 208 334 217 305 Z" class="stroke3"/>
    <path d="M 476 607 Q 491 632 503 657 Q 522 700 542 737 Q 549 750 535 761 Q 490 788 469 781 Q 459 778 463 765 Q 487 672 396 552 Q 374 524 364 507 Q 358 492 371 498 Q 407 507 466 592 L 476 607 Z" class="stroke4"/>
    <path d="M 466 592 Q 470 583 510 543 Q 525 530 539 529 Q 551 528 556 544 Q 557 556 548 573 Q 539 586 519 593 Q 489 606 476 607 C 456 610 456 610 466 592 Z" class="stroke5"/>
    <path d="M 702 631 Q 786 760 788 765 L 786 771 Q 782 783 755 803 Q 730 819 712 819 Q 694 816 702 796 Q 730 738 577 525 Q 568 515 566 509 Q 563 499 577 502 Q 601 505 684 607 Q 684 608 686 609 L 702 631 Z" class="stroke6"/>
    <path d="M 686 609 Q 693 602 710 590 Q 755 560 802 524 Q 815 514 828 515 Q 838 516 841 528 Q 844 541 835 567 Q 822 606 703 631 L 702 631 C 672 636 664 629 686 609 Z" class="stroke7"/>
    <path d="M 632 165 Q 636 334 640 347 L 643 378 Q 646 409 649 419 Q 655 441 641 456 Q 619 477 591 488 Q 578 495 567 489 Q 560 483 564 467 Q 582 425 588 382 Q 591 342 589 185 C 589 155 631 135 632 165 Z" class="stroke8"/>
    <path d="M 640 347 Q 670 344 756 361 Q 772 365 790 369 Q 806 373 809 377 Q 816 384 812 393 Q 805 403 775 409 Q 747 412 718 398 Q 709 395 643 378 C 614 371 610 349 640 347 Z" class="stroke9"/>
    <path d="M 455 258 Q 518 372 520 373 Q 519 374 519 375 Q 518 385 504 394 Q 468 419 439 411 Q 430 407 434 396 Q 452 344 376 218 Q 373 217 373 214 Q 351 180 292 111 Q 285 105 295 104 Q 344 114 430 219 Q 430 222 442 237 L 455 258 Z" class="stroke10"/>
    <path d="M 442 237 Q 733 24 796 20 Q 901 38 964 64 Q 983 70 984 76 Q 985 83 968 86 Q 905 96 833 106 Q 751 119 686 145 L 632 165 L 589 185 Q 558 201 526 218 Q 480 245 455 258 C 429 272 418 255 442 237 Z" class="stroke11"/>
    
    
    
    
    
    
    
    
    
    
    </g>
</svg>