<svg version="1.1" viewBox="0 0 1024 1024" xmlns="http://www.w3.org/2000/svg">
  
  <g transform="scale(1, -1) translate(0, -900)">
    <style type="text/css">
        .stroke1 {fill: #808080;}
        .stroke2 {fill: #808079;}
        .stroke3 {fill: #808078;}
        .stroke4 {fill: #808077;}
        .stroke5 {fill: #808076;}
        .stroke6 {fill: #808075;}
        .stroke7 {fill: #808074;}
        .stroke8 {fill: #808073;}
        .stroke9 {fill: #808072;}
        .stroke10 {fill: #808071;}
        .stroke11 {fill: #808070;}
        .stroke12 {fill: #808069;}
        .stroke13 {fill: #808068;}
        .stroke14 {fill: #808067;}
        .stroke15 {fill: #808066;}
        .stroke16 {fill: #808065;}
        .stroke17 {fill: #808064;}
        .stroke18 {fill: #808063;}
        .stroke19 {fill: #808062;}
        .stroke20 {fill: #808061;}
        text {
            font-family: Helvetica;
            font-size: 50px;
            fill: #808060;
            paint-order: stroke;
            stroke: #000000;
            stroke-width: 4px;
            stroke-linecap: butt;
            stroke-linejoin: miter;
            font-weight: 800;
        }
    </style>

    <path d="M 171 459 Q 147 381 112 311 Q 91 269 117 230 Q 129 209 152 227 Q 177 249 190 289 Q 211 344 208 392 Q 211 432 199 462 Q 192 472 185 472 Q 175 469 171 459 Z" class="stroke1"/>
    <path d="M 863 228 Q 859 243 834 262 Q 797 290 698 391 Q 691 398 685 398 Q 682 397 684 389 Q 708 338 732 281 Q 742 257 728 241 Q 689 208 550 226 Q 441 244 397 323 Q 370 377 355 435 Q 348 463 324 476 Q 306 486 299 478 Q 295 474 302 454 Q 312 429 335 363 Q 372 224 476 178 Q 495 171 521 163 Q 710 115 851 212 Q 866 221 863 228 Z" class="stroke2"/>
    <path d="M 441 617 Q 475 578 511 531 Q 524 515 541 513 Q 553 512 561 525 Q 568 541 564 574 Q 560 619 444 670 Q 428 677 420 675 Q 414 672 414 658 Q 415 645 441 617 Z" class="stroke3"/>
    <path d="M 760 585 Q 814 536 877 465 Q 896 441 914 437 Q 924 436 933 447 Q 948 463 932 514 Q 922 563 840 592 Q 789 613 761 621 Q 751 627 748 612 Q 747 596 760 585 Z" class="stroke4"/>
    
    
    
    </g>
</svg>