<svg version="1.1" viewBox="0 0 1024 1024" xmlns="http://www.w3.org/2000/svg">
  
  <g transform="scale(1, -1) translate(0, -900)">
    <style type="text/css">
        .stroke1 {fill: #808080;}
        .stroke2 {fill: #808079;}
        .stroke3 {fill: #808078;}
        .stroke4 {fill: #808077;}
        .stroke5 {fill: #808076;}
        .stroke6 {fill: #808075;}
        .stroke7 {fill: #808074;}
        .stroke8 {fill: #808073;}
        .stroke9 {fill: #808072;}
        .stroke10 {fill: #808071;}
        .stroke11 {fill: #808070;}
        .stroke12 {fill: #808069;}
        .stroke13 {fill: #808068;}
        .stroke14 {fill: #808067;}
        .stroke15 {fill: #808066;}
        .stroke16 {fill: #808065;}
        .stroke17 {fill: #808064;}
        .stroke18 {fill: #808063;}
        .stroke19 {fill: #808062;}
        .stroke20 {fill: #808061;}
        text {
            font-family: Helvetica;
            font-size: 50px;
            fill: #808060;
            paint-order: stroke;
            stroke: #000000;
            stroke-width: 4px;
            stroke-linecap: butt;
            stroke-linejoin: miter;
            font-weight: 800;
        }
    </style>

    <path d="M 372 524 Q 354 451 324 382 Q 311 343 331 315 Q 341 299 360 314 Q 379 333 390 366 Q 409 423 405 470 Q 406 504 395 527 Q 389 534 383 535 Q 376 532 372 524 Z" class="stroke1"/>
    <path d="M 539 524 Q 552 518 620 461 Q 633 451 647 451 Q 657 452 661 464 Q 665 477 655 505 Q 648 527 614 542 Q 578 555 540 563 C 511 569 513 539 539 524 Z" class="stroke2"/>
    <path d="M 532 47 Q 531 96 539 524 L 540 563 Q 541 654 559 717 Q 569 733 566 747 Q 559 757 501 793 Q 476 811 455 795 Q 449 789 456 773 Q 487 724 489 649 Q 489 217 469 126 Q 465 108 459 89 Q 447 47 474 -17 Q 481 -36 489 -39 Q 496 -46 503 -37 Q 512 -33 522 -11 Q 532 14 532 47 Z" class="stroke3"/>
    
    
    </g>
</svg>