<svg version="1.1" viewBox="0 0 1024 1024" xmlns="http://www.w3.org/2000/svg">
  
  <g transform="scale(1, -1) translate(0, -900)">
    <style type="text/css">
        .stroke1 {fill: #808080;}
        .stroke2 {fill: #808079;}
        .stroke3 {fill: #808078;}
        .stroke4 {fill: #808077;}
        .stroke5 {fill: #808076;}
        .stroke6 {fill: #808075;}
        .stroke7 {fill: #808074;}
        .stroke8 {fill: #808073;}
        .stroke9 {fill: #808072;}
        .stroke10 {fill: #808071;}
        .stroke11 {fill: #808070;}
        .stroke12 {fill: #808069;}
        .stroke13 {fill: #808068;}
        .stroke14 {fill: #808067;}
        .stroke15 {fill: #808066;}
        .stroke16 {fill: #808065;}
        .stroke17 {fill: #808064;}
        .stroke18 {fill: #808063;}
        .stroke19 {fill: #808062;}
        .stroke20 {fill: #808061;}
        text {
            font-family: Helvetica;
            font-size: 50px;
            fill: #808060;
            paint-order: stroke;
            stroke: #000000;
            stroke-width: 4px;
            stroke-linecap: butt;
            stroke-linejoin: miter;
            font-weight: 800;
        }
    </style>

    <path d="M 148 526 Q 126 456 91 392 Q 75 361 92 328 Q 101 312 120 324 Q 139 340 152 372 Q 176 426 176 472 Q 179 503 171 527 Q 167 534 160 536 Q 153 535 148 526 Z" class="stroke1"/>
    <path d="M 303 559 L 304 559 Q 338 537 375 508 Q 385 499 398 501 Q 407 502 409 512 Q 412 524 403 546 Q 396 565 364 579 Q 336 588 304 593 C 274 598 276 572 303 559 Z" class="stroke2"/>
    <path d="M 304 593 Q 305 672 323 728 Q 332 743 329 757 Q 322 767 266 801 Q 242 817 221 802 Q 217 798 222 782 Q 252 736 254 671 Q 254 263 245 194 Q 238 158 228 120 Q 216 78 243 18 Q 250 0 258 -3 Q 264 -10 272 -1 Q 279 3 290 24 Q 300 49 299 81 Q 298 129 303 559 L 304 593 Z" class="stroke3"/>
    <path d="M 648 672 Q 742 714 785 723 Q 804 724 807 732 Q 811 744 798 755 Q 776 771 728 790 Q 712 797 698 796 Q 691 792 689 780 Q 689 735 469 633 Q 463 623 470 620 Q 531 636 595 653 L 648 672 Z" class="stroke4"/>
    <path d="M 676 422 Q 760 432 883 432 Q 944 429 952 441 Q 958 454 940 469 Q 877 514 825 496 Q 765 484 676 467 L 622 459 Q 508 443 377 424 Q 355 421 372 403 Q 387 388 406 383 Q 428 377 446 383 Q 527 404 622 416 L 676 422 Z" class="stroke5"/>
    <path d="M 628 11 Q 634 -14 641 -25 Q 648 -32 655 -30 Q 673 -18 676 42 Q 683 124 681 205 Q 677 257 676 422 L 676 467 Q 676 557 687 628 Q 690 647 675 657 Q 660 667 648 672 C 621 686 583 680 595 653 Q 613 620 621 549 Q 621 509 622 459 L 622 416 Q 622 59 628 11 Z" class="stroke6"/>
    
    
    
    
    
    </g>
</svg>