<svg version="1.1" viewBox="0 0 1024 1024" xmlns="http://www.w3.org/2000/svg">
  
  <g transform="scale(1, -1) translate(0, -900)">
    <style type="text/css">
        .stroke1 {fill: #808080;}
        .stroke2 {fill: #808079;}
        .stroke3 {fill: #808078;}
        .stroke4 {fill: #808077;}
        .stroke5 {fill: #808076;}
        .stroke6 {fill: #808075;}
        .stroke7 {fill: #808074;}
        .stroke8 {fill: #808073;}
        .stroke9 {fill: #808072;}
        .stroke10 {fill: #808071;}
        .stroke11 {fill: #808070;}
        .stroke12 {fill: #808069;}
        .stroke13 {fill: #808068;}
        .stroke14 {fill: #808067;}
        .stroke15 {fill: #808066;}
        .stroke16 {fill: #808065;}
        .stroke17 {fill: #808064;}
        .stroke18 {fill: #808063;}
        .stroke19 {fill: #808062;}
        .stroke20 {fill: #808061;}
        text {
            font-family: Helvetica;
            font-size: 50px;
            fill: #808060;
            paint-order: stroke;
            stroke: #000000;
            stroke-width: 4px;
            stroke-linecap: butt;
            stroke-linejoin: miter;
            font-weight: 800;
        }
    </style>

    <path d="M 143 510 Q 130 449 107 392 Q 95 355 118 323 Q 130 307 148 323 Q 193 377 181 456 Q 180 490 168 515 Q 161 522 155 522 Q 146 519 143 510 Z" class="stroke1"/>
    <path d="M 312 518 Q 319 511 333 502 Q 357 483 382 461 Q 395 451 408 452 Q 418 453 421 464 Q 425 477 415 503 Q 409 519 383 530 Q 323 546 313 543 C 288 540 290 538 312 518 Z" class="stroke2"/>
    <path d="M 313 543 Q 313 646 334 716 Q 349 741 323 759 Q 307 771 278 789 Q 254 807 233 791 Q 229 787 234 770 Q 265 722 266 674 Q 267 604 268 523 Q 264 384 259 231 Q 255 155 234 85 Q 222 45 248 -18 Q 254 -36 262 -39 Q 268 -46 276 -37 Q 303 -21 304 45 Q 303 93 312 518 L 313 543 Z" class="stroke3"/>
    <path d="M 749 404 Q 773 506 815 544 Q 833 565 816 584 Q 734 641 679 613 Q 640 598 606 587 L 556 575 Q 501 563 443 555 Q 424 554 427 543 Q 430 533 450 528 Q 478 516 515 529 Q 534 533 555 537 L 603 547 Q 697 574 712 562 Q 724 550 721 526 Q 709 453 693 394 C 685 365 742 375 749 404 Z" class="stroke4"/>
    <path d="M 543 372 Q 459 362 368 349 Q 347 348 363 331 Q 376 318 394 313 Q 413 307 430 312 Q 481 327 539 334 L 589 343 Q 643 361 919 361 Q 938 361 943 370 Q 949 380 932 394 Q 875 436 803 415 Q 778 411 749 404 L 693 394 Q 630 388 592 379 L 543 372 Z" class="stroke5"/>
    <path d="M 555 537 Q 552 455 543 372 L 539 334 Q 518 181 434 103 Q 394 70 334 35 Q 321 28 321 23 Q 322 19 334 19 Q 350 15 389 29 Q 524 72 566 218 Q 576 251 582 290 L 588 336 Q 588 340 589 343 L 592 379 Q 598 466 603 547 L 606 587 Q 609 648 634 729 Q 641 744 631 755 Q 607 774 567 787 Q 542 794 532 787 Q 522 780 530 767 Q 552 728 555 679 Q 556 627 556 575 L 555 537 Z" class="stroke6"/>
    <path d="M 582 290 Q 759 2 812 0 Q 882 4 942 9 Q 967 10 968 17 Q 969 24 941 39 Q 791 105 732 167 Q 648 257 588 336 C 570 360 566 316 582 290 Z" class="stroke7"/>
    
    
    
    
    
    
    </g>
</svg>