<svg version="1.1" viewBox="0 0 1024 1024" xmlns="http://www.w3.org/2000/svg">
  
  <g transform="scale(1, -1) translate(0, -900)">
    <style type="text/css">
        .stroke1 {fill: #808080;}
        .stroke2 {fill: #808079;}
        .stroke3 {fill: #808078;}
        .stroke4 {fill: #808077;}
        .stroke5 {fill: #808076;}
        .stroke6 {fill: #808075;}
        .stroke7 {fill: #808074;}
        .stroke8 {fill: #808073;}
        .stroke9 {fill: #808072;}
        .stroke10 {fill: #808071;}
        .stroke11 {fill: #808070;}
        .stroke12 {fill: #808069;}
        .stroke13 {fill: #808068;}
        .stroke14 {fill: #808067;}
        .stroke15 {fill: #808066;}
        .stroke16 {fill: #808065;}
        .stroke17 {fill: #808064;}
        .stroke18 {fill: #808063;}
        .stroke19 {fill: #808062;}
        .stroke20 {fill: #808061;}
        text {
            font-family: Helvetica;
            font-size: 50px;
            fill: #808060;
            paint-order: stroke;
            stroke: #000000;
            stroke-width: 4px;
            stroke-linecap: butt;
            stroke-linejoin: miter;
            font-weight: 800;
        }
    </style>

    <path d="M 140 523 Q 125 453 98 389 Q 85 353 107 323 Q 117 307 136 322 Q 184 371 175 470 Q 175 504 164 527 Q 157 534 151 535 Q 144 532 140 523 Z" class="stroke1"/>
    <path d="M 311 553 Q 342 535 378 503 Q 391 493 405 495 Q 414 496 417 508 Q 420 521 410 546 Q 398 571 319 584 Q 315 585 311 584 C 281 581 285 568 311 553 Z" class="stroke2"/>
    <path d="M 307 272 Q 308 381 311 553 L 311 584 Q 311 585 312 586 Q 313 677 331 740 Q 340 755 337 769 Q 330 779 274 813 Q 250 829 229 814 Q 225 810 230 794 Q 260 748 262 683 Q 262 275 253 206 Q 246 170 236 132 Q 224 90 251 30 Q 258 12 266 9 Q 272 2 280 11 Q 287 15 298 36 Q 308 61 307 93 Q 306 120 307 258 L 307 272 Z" class="stroke3"/>
    <path d="M 592 594 Q 713 624 884 624 Q 905 624 909 634 Q 913 646 897 658 Q 842 694 791 678 Q 730 663 634 642 Q 618 641 605 636 L 546 625 Q 483 615 419 602 Q 400 599 415 583 Q 428 570 447 566 Q 466 562 482 567 Q 504 574 531 581 L 592 594 Z" class="stroke4"/>
    <path d="M 505 413 Q 565 515 592 594 L 605 636 Q 627 727 658 778 Q 667 788 659 797 Q 644 818 612 840 Q 593 855 575 852 Q 553 849 566 828 Q 587 792 581 762 Q 565 686 546 625 L 531 581 Q 471 404 336 293 Q 315 281 307 272 C 285 254 285 254 307 258 Q 355 258 450 343 Q 460 355 473 369 L 505 413 Z" class="stroke5"/>
    <path d="M 473 369 Q 486 318 470 257 Q 455 221 488 182 Q 495 172 504 177 Q 525 195 526 306 Q 526 360 526 376 C 526 436 456 443 473 369 Z" class="stroke6"/>
    <path d="M 526 376 Q 550 385 625 397 L 681 407 Q 724 414 766 419 Q 797 420 799 400 Q 808 270 792 248 Q 783 242 725 254 Q 709 258 705 253 Q 701 247 714 237 Q 769 194 803 161 Q 819 146 833 162 Q 860 198 862 266 Q 856 356 866 408 Q 870 430 859 439 Q 831 464 810 476 Q 797 482 787 472 Q 780 463 682 440 L 625 430 Q 577 424 505 413 C 475 409 497 367 526 376 Z" class="stroke7"/>
    <path d="M 625 -34 Q 631 -59 638 -69 Q 644 -76 651 -74 Q 666 -64 673 -5 Q 680 68 680 140 Q 677 198 681 407 L 682 440 Q 682 464 693 517 Q 696 536 682 545 Q 648 567 633 570 Q 620 574 604 566 Q 595 557 602 547 Q 624 502 625 430 L 625 397 Q 626 288 622 138 Q 621 9 625 -34 Z" class="stroke8"/>
    
    
    
    
    
    
    
    </g>
</svg>