<svg version="1.1" viewBox="0 0 1024 1024" xmlns="http://www.w3.org/2000/svg">
  
  <g transform="scale(1, -1) translate(0, -900)">
    <style type="text/css">
        .stroke1 {fill: #808080;}
        .stroke2 {fill: #808079;}
        .stroke3 {fill: #808078;}
        .stroke4 {fill: #808077;}
        .stroke5 {fill: #808076;}
        .stroke6 {fill: #808075;}
        .stroke7 {fill: #808074;}
        .stroke8 {fill: #808073;}
        .stroke9 {fill: #808072;}
        .stroke10 {fill: #808071;}
        .stroke11 {fill: #808070;}
        .stroke12 {fill: #808069;}
        .stroke13 {fill: #808068;}
        .stroke14 {fill: #808067;}
        .stroke15 {fill: #808066;}
        .stroke16 {fill: #808065;}
        .stroke17 {fill: #808064;}
        .stroke18 {fill: #808063;}
        .stroke19 {fill: #808062;}
        .stroke20 {fill: #808061;}
        text {
            font-family: Helvetica;
            font-size: 50px;
            fill: #808060;
            paint-order: stroke;
            stroke: #000000;
            stroke-width: 4px;
            stroke-linecap: butt;
            stroke-linejoin: miter;
            font-weight: 800;
        }
    </style>

    <path d="M 114 493 Q 93 429 61 370 Q 43 334 63 301 Q 73 282 94 297 Q 148 348 145 435 Q 148 469 139 495 Q 133 502 127 504 Q 118 503 114 493 Z" class="stroke1"/>
    <path d="M 264 569 Q 348 493 364 492 Q 373 493 377 505 Q 381 518 373 543 Q 369 561 341 573 Q 278 595 264 591 Q 263 591 263 590 C 247 584 247 584 264 569 Z" class="stroke2"/>
    <path d="M 263 590 Q 264 672 280 728 Q 289 744 285 757 Q 278 767 222 801 Q 198 817 177 801 Q 173 797 179 781 Q 212 732 213 668 Q 222 242 203 145 Q 199 127 194 108 Q 185 65 211 6 Q 218 -12 226 -15 Q 233 -22 240 -14 Q 267 10 266 69 Q 265 118 264 569 L 263 590 Z" class="stroke3"/>
    <path d="M 450 627 Q 428 640 404 646 Q 397 649 392 643 Q 385 637 394 626 Q 437 557 448 395 Q 449 341 487 309 Q 488 309 491 307 Q 507 303 508 327 L 507 357 Q 506 378 498 401 Q 494 434 487 474 L 483 502 Q 477 553 475 598 C 474 614 474 614 450 627 Z" class="stroke4"/>
    <path d="M 670 343 Q 689 313 708 304 Q 721 295 737 320 Q 758 357 793 553 Q 803 587 828 613 Q 841 626 829 642 Q 813 661 766 688 Q 744 698 681 679 Q 654 676 533 646 Q 488 636 450 627 C 421 620 446 589 475 598 Q 551 622 681 645 Q 712 651 722 641 Q 741 619 737 597 Q 706 416 691 388 Q 687 375 671 371 C 657 362 657 362 670 343 Z" class="stroke5"/>
    <path d="M 487 474 Q 511 471 576 480 Q 660 499 664 502 Q 671 509 667 517 Q 660 527 633 533 Q 621 536 534 512 Q 510 508 483 502 C 454 496 457 477 487 474 Z" class="stroke6"/>
    <path d="M 508 327 Q 518 326 528 328 Q 573 338 670 343 C 700 345 694 352 671 371 Q 667 375 660 379 Q 644 388 616 381 Q 555 366 507 357 C 478 351 478 329 508 327 Z" class="stroke7"/>
    <path d="M 333 172 Q 311 169 328 151 Q 343 136 362 130 Q 384 124 402 130 Q 573 176 905 176 Q 926 176 931 185 Q 937 198 919 213 Q 865 253 823 245 Q 669 215 333 172 Z" class="stroke8"/>
    
    
    
    
    
    
    
    </g>
</svg>