<svg version="1.1" viewBox="0 0 1024 1024" xmlns="http://www.w3.org/2000/svg">
  
  <g transform="scale(1, -1) translate(0, -900)">
    <style type="text/css">
        .stroke1 {fill: #808080;}
        .stroke2 {fill: #808079;}
        .stroke3 {fill: #808078;}
        .stroke4 {fill: #808077;}
        .stroke5 {fill: #808076;}
        .stroke6 {fill: #808075;}
        .stroke7 {fill: #808074;}
        .stroke8 {fill: #808073;}
        .stroke9 {fill: #808072;}
        .stroke10 {fill: #808071;}
        .stroke11 {fill: #808070;}
        .stroke12 {fill: #808069;}
        .stroke13 {fill: #808068;}
        .stroke14 {fill: #808067;}
        .stroke15 {fill: #808066;}
        .stroke16 {fill: #808065;}
        .stroke17 {fill: #808064;}
        .stroke18 {fill: #808063;}
        .stroke19 {fill: #808062;}
        .stroke20 {fill: #808061;}
        text {
            font-family: Helvetica;
            font-size: 50px;
            fill: #808060;
            paint-order: stroke;
            stroke: #000000;
            stroke-width: 4px;
            stroke-linecap: butt;
            stroke-linejoin: miter;
            font-weight: 800;
        }
    </style>

    <path d="M 136 544 Q 118 472 89 406 Q 83 394 84 378 Q 85 353 95 339 Q 105 323 124 338 Q 175 389 169 490 Q 170 524 159 547 Q 153 554 147 555 Q 140 552 136 544 Z" class="stroke1"/>
    <path d="M 308 554 Q 395 497 398 495 Q 401 495 405 495 Q 414 496 417 508 Q 420 521 410 546 Q 398 576 311 588 L 309 588 C 279 590 283 570 308 554 Z" class="stroke2"/>
    <path d="M 309 588 Q 310 667 327 724 Q 336 739 333 753 Q 326 763 270 797 Q 246 813 225 798 Q 221 794 226 778 Q 256 732 258 668 Q 258 260 249 194 Q 242 157 232 120 Q 220 78 247 18 Q 254 0 262 -3 Q 268 -10 276 -1 Q 283 3 294 24 Q 304 49 303 81 Q 302 129 308 554 L 309 588 Z" class="stroke3"/>
    <path d="M 654 534 Q 697 586 744 663 Q 760 690 786 707 Q 801 714 801 723 Q 801 736 773 752 Q 739 776 725 776 Q 715 776 703 768 Q 588 726 510 720 Q 473 719 470 710 Q 469 706 476 702 Q 521 666 665 719 Q 684 723 692 718 Q 698 714 678 668 Q 657 622 613 565 L 592 540 Q 499 444 379 397 Q 369 393 370 388 Q 371 384 378 383 Q 493 379 616 495 Q 620 501 627 506 L 654 534 Z" class="stroke4"/>
    <path d="M 627 506 Q 631 503 636 498 Q 762 380 804 381 Q 882 387 944 402 Q 977 409 973 418 Q 972 422 939 430 Q 753 460 662 529 Q 658 532 654 534 L 613 565 Q 582 590 548 620 Q 514 650 485 648 Q 469 647 467 642 Q 466 636 480 628 Q 508 615 525 597 Q 556 575 592 540 L 627 506 Z" class="stroke5"/>
    <path d="M 650 312 Q 759 336 767 341 Q 776 348 771 357 Q 764 367 736 375 Q 705 381 651 361 C 623 351 608 346 593 344 Q 592 345 589 344 Q 537 334 477 328 Q 443 322 467 306 Q 506 282 563 295 Q 576 299 594 301 L 650 312 Z" class="stroke6"/>
    <path d="M 647 180 Q 731 189 852 189 Q 871 189 876 198 Q 880 208 865 222 Q 810 261 756 245 Q 710 236 647 222 L 594 213 Q 500 200 388 182 Q 367 179 383 163 Q 396 150 414 145 Q 435 141 450 145 Q 517 164 594 173 L 647 180 Z" class="stroke7"/>
    <path d="M 647 222 Q 648 262 650 312 L 651 361 Q 652 368 653 372 Q 656 388 659 401 Q 662 417 648 427 Q 617 448 603 450 Q 591 454 576 446 Q 567 439 574 429 Q 592 398 593 344 L 594 301 Q 594 261 594 213 L 594 173 Q 595 142 595 107 Q 595 -37 610 -61 Q 616 -68 623 -66 Q 636 -57 643 -1 Q 646 35 647 180 L 647 222 Z" class="stroke8"/>
    
    
    
    
    
    
    
    </g>
</svg>