<svg version="1.1" viewBox="0 0 1024 1024" xmlns="http://www.w3.org/2000/svg">
  
  <g transform="scale(1, -1) translate(0, -900)">
    <style type="text/css">
        .stroke1 {fill: #808080;}
        .stroke2 {fill: #808079;}
        .stroke3 {fill: #808078;}
        .stroke4 {fill: #808077;}
        .stroke5 {fill: #808076;}
        .stroke6 {fill: #808075;}
        .stroke7 {fill: #808074;}
        .stroke8 {fill: #808073;}
        .stroke9 {fill: #808072;}
        .stroke10 {fill: #808071;}
        .stroke11 {fill: #808070;}
        .stroke12 {fill: #808069;}
        .stroke13 {fill: #808068;}
        .stroke14 {fill: #808067;}
        .stroke15 {fill: #808066;}
        .stroke16 {fill: #808065;}
        .stroke17 {fill: #808064;}
        .stroke18 {fill: #808063;}
        .stroke19 {fill: #808062;}
        .stroke20 {fill: #808061;}
        text {
            font-family: Helvetica;
            font-size: 50px;
            fill: #808060;
            paint-order: stroke;
            stroke: #000000;
            stroke-width: 4px;
            stroke-linecap: butt;
            stroke-linejoin: miter;
            font-weight: 800;
        }
    </style>

    <path d="M 151 524 Q 133 460 105 401 Q 87 365 111 332 Q 121 314 141 330 Q 162 349 173 384 Q 188 430 185 467 Q 186 501 175 527 Q 169 534 163 535 Q 154 534 151 524 Z" class="stroke1"/>
    <path d="M 309 576 Q 342 558 383 526 Q 396 516 409 519 Q 419 520 421 532 Q 424 545 412 570 Q 405 586 377 595 Q 317 607 310 604 C 280 600 283 591 309 576 Z" class="stroke2"/>
    <path d="M 310 604 Q 313 664 326 707 Q 335 722 332 735 Q 325 744 270 777 Q 248 793 227 778 Q 223 774 229 758 Q 259 715 260 652 Q 260 262 251 186 Q 245 156 237 124 Q 225 82 252 25 Q 259 9 267 5 Q 273 -2 280 7 Q 287 11 297 31 Q 303 46 306 184 Q 306 379 309 576 L 310 604 Z" class="stroke3"/>
    <path d="M 653 622 Q 785 652 791 657 Q 800 664 795 673 Q 788 683 760 691 Q 733 694 656 669 L 602 655 Q 556 646 505 640 Q 469 634 495 618 Q 534 594 591 609 Q 597 610 604 612 L 653 622 Z" class="stroke4"/>
    <path d="M 645 517 Q 649 571 653 622 L 656 669 Q 657 732 674 788 Q 677 798 657 813 Q 623 831 600 835 Q 584 838 576 830 Q 569 823 577 808 Q 596 783 597 764 Q 601 712 602 655 L 604 612 Q 604 563 604 510 C 604 480 643 487 645 517 Z" class="stroke5"/>
    <path d="M 604 510 Q 504 494 390 472 Q 371 469 386 455 Q 399 443 416 439 Q 435 435 449 440 Q 638 500 873 500 L 875 500 Q 893 501 896 509 Q 900 519 885 531 Q 833 568 787 550 Q 729 537 645 517 L 604 510 Z" class="stroke6"/>
    <path d="M 736 339 Q 784 343 846 344 Q 903 344 908 354 Q 912 364 897 378 Q 843 417 780 398 Q 762 395 742 389 L 683 378 Q 653 374 620 367 Q 514 349 387 330 Q 368 327 383 311 Q 396 298 414 293 Q 435 289 450 293 Q 523 315 608 326 Q 641 333 685 335 L 736 339 Z" class="stroke7"/>
    <path d="M 652 64 Q 618 71 586 79 Q 574 82 575 74 Q 576 67 586 59 Q 656 -4 680 -41 Q 695 -57 710 -44 Q 743 -8 744 83 Q 737 192 736 339 L 742 389 Q 743 399 747 407 Q 756 426 739 439 Q 714 461 683 470 Q 664 476 657 469 Q 651 462 662 447 Q 681 416 683 378 L 685 335 Q 694 83 673 66 Q 666 59 652 64 Z" class="stroke8"/>
    <path d="M 507 225 Q 529 206 552 180 Q 564 168 578 169 Q 588 169 593 181 Q 597 194 590 221 Q 586 239 560 251 Q 499 275 484 271 Q 480 267 480 256 Q 483 246 507 225 Z" class="stroke9"/>
    
    
    
    
    
    
    
    
    </g>
</svg>