<svg version="1.1" viewBox="0 0 1024 1024" xmlns="http://www.w3.org/2000/svg">
  
  <g transform="scale(1, -1) translate(0, -900)">
    <style type="text/css">
        .stroke1 {fill: #808080;}
        .stroke2 {fill: #808079;}
        .stroke3 {fill: #808078;}
        .stroke4 {fill: #808077;}
        .stroke5 {fill: #808076;}
        .stroke6 {fill: #808075;}
        .stroke7 {fill: #808074;}
        .stroke8 {fill: #808073;}
        .stroke9 {fill: #808072;}
        .stroke10 {fill: #808071;}
        .stroke11 {fill: #808070;}
        .stroke12 {fill: #808069;}
        .stroke13 {fill: #808068;}
        .stroke14 {fill: #808067;}
        .stroke15 {fill: #808066;}
        .stroke16 {fill: #808065;}
        .stroke17 {fill: #808064;}
        .stroke18 {fill: #808063;}
        .stroke19 {fill: #808062;}
        .stroke20 {fill: #808061;}
        text {
            font-family: Helvetica;
            font-size: 50px;
            fill: #808060;
            paint-order: stroke;
            stroke: #000000;
            stroke-width: 4px;
            stroke-linecap: butt;
            stroke-linejoin: miter;
            font-weight: 800;
        }
    </style>

    <path d="M 387 715 Q 403 719 423 722 Q 471 732 478 738 Q 487 745 482 753 Q 476 763 450 771 Q 425 777 327 748 Q 180 721 137 717 Q 103 713 127 697 Q 139 690 177 681 L 227 686 Q 278 696 331 705 L 387 715 Z" class="stroke1"/>
    <path d="M 177 681 Q 198 636 199 552 Q 198 464 194 208 C 194 178 239 196 240 226 Q 241 296 245 360 L 245 396 Q 246 448 249 496 L 250 527 Q 250 581 255 635 Q 264 662 227 686 C 203 704 166 709 177 681 Z" class="stroke2"/>
    <path d="M 365 250 Q 365 175 346 104 Q 336 65 361 8 Q 368 -8 375 -11 Q 381 -18 388 -10 Q 395 -6 405 15 Q 414 37 412 68 Q 411 111 411 517 Q 411 601 426 657 Q 433 672 431 684 Q 425 693 387 715 C 361 730 315 730 331 705 Q 361 665 362 623 Q 363 560 366 490 Q 366 388 365 277 L 365 250 Z" class="stroke3"/>
    <path d="M 249 496 Q 291 506 323 511 Q 342 515 333 526 Q 323 536 302 539 Q 283 540 250 527 C 222 516 220 489 249 496 Z" class="stroke4"/>
    <path d="M 245 360 Q 291 375 327 383 Q 349 390 338 401 Q 326 413 302 413 Q 280 413 245 396 C 218 383 216 351 245 360 Z" class="stroke5"/>
    <path d="M 194 208 Q 161 198 128 184 Q 112 177 81 175 Q 68 172 68 162 Q 67 149 77 142 Q 101 127 135 112 Q 145 111 157 119 Q 185 147 344 236 Q 354 243 365 250 C 390 266 393 288 365 277 Q 304 253 240 226 L 194 208 Z" class="stroke6"/>
    <path d="M 495 461 Q 479 392 451 328 Q 438 298 457 270 Q 466 255 482 269 Q 530 317 524 414 Q 525 442 515 464 Q 511 471 505 471 Q 498 468 495 461 Z" class="stroke7"/>
    <path d="M 573 418 Q 580 402 596 352 Q 624 241 721 209 Q 853 175 939 247 Q 952 254 948 263 Q 945 276 925 292 Q 895 317 815 404 Q 811 410 805 410 Q 802 409 804 403 Q 820 358 837 309 Q 844 290 831 276 Q 810 255 736 264 Q 673 273 647 324 Q 626 361 615 402 Q 609 426 591 436 Q 576 445 571 438 Q 567 434 573 418 Z" class="stroke8"/>
    <path d="M 624 565 Q 655 510 685 488 Q 698 482 711 494 Q 720 504 720 523 Q 719 548 703 564 Q 670 597 628 608 Q 622 609 619 608 Q 612 608 612 595 Q 612 583 624 565 Z" class="stroke9"/>
    <path d="M 834 559 Q 883 519 943 459 Q 959 441 974 437 Q 981 437 989 447 Q 999 460 986 501 Q 973 540 909 563 Q 891 572 833 589 Q 824 593 823 581 Q 823 568 834 559 Z" class="stroke10"/>
    
    
    
    
    
    
    
    
    
    </g>
</svg>