<svg version="1.1" viewBox="0 0 1024 1024" xmlns="http://www.w3.org/2000/svg">
  
  <g transform="scale(1, -1) translate(0, -900)">
    <style type="text/css">
        .stroke1 {fill: #808080;}
        .stroke2 {fill: #808079;}
        .stroke3 {fill: #808078;}
        .stroke4 {fill: #808077;}
        .stroke5 {fill: #808076;}
        .stroke6 {fill: #808075;}
        .stroke7 {fill: #808074;}
        .stroke8 {fill: #808073;}
        .stroke9 {fill: #808072;}
        .stroke10 {fill: #808071;}
        .stroke11 {fill: #808070;}
        .stroke12 {fill: #808069;}
        .stroke13 {fill: #808068;}
        .stroke14 {fill: #808067;}
        .stroke15 {fill: #808066;}
        .stroke16 {fill: #808065;}
        .stroke17 {fill: #808064;}
        .stroke18 {fill: #808063;}
        .stroke19 {fill: #808062;}
        .stroke20 {fill: #808061;}
        text {
            font-family: Helvetica;
            font-size: 50px;
            fill: #808060;
            paint-order: stroke;
            stroke: #000000;
            stroke-width: 4px;
            stroke-linecap: butt;
            stroke-linejoin: miter;
            font-weight: 800;
        }
    </style>

    <path d="M 118 546 Q 108 485 87 428 Q 74 397 99 366 Q 109 350 127 367 Q 167 415 154 498 Q 153 529 140 551 Q 133 558 128 558 Q 121 555 118 546 Z" class="stroke1"/>
    <path d="M 267 602 Q 334 551 343 549 L 346 549 Q 353 550 357 560 Q 360 572 352 595 Q 343 614 277 627 Q 271 628 268 627 C 239 623 243 620 267 602 Z" class="stroke2"/>
    <path d="M 268 627 Q 271 685 285 729 Q 292 742 290 756 Q 284 765 231 797 Q 209 813 190 799 Q 186 795 191 779 Q 221 734 222 670 Q 222 271 212 197 Q 205 161 195 125 Q 186 88 209 29 Q 216 13 223 9 Q 229 3 236 11 Q 243 15 253 35 Q 262 57 261 87 Q 260 135 267 576 Q 267 589 267 602 L 268 627 Z" class="stroke3"/>
    <path d="M 413 675 Q 394 691 371 696 Q 362 697 357 690 Q 354 686 361 676 Q 391 603 374 423 Q 359 366 363 348 Q 372 318 382 307 Q 392 295 401 308 Q 422 338 423 510 Q 423 621 426 649 C 427 664 427 664 413 675 Z" class="stroke4"/>
    <path d="M 557 361 Q 550 342 562 322 Q 574 297 582 298 Q 595 299 608 328 Q 621 350 619 368 Q 586 599 628 660 Q 637 681 606 698 Q 587 710 563 719 Q 545 725 488 696 Q 418 677 413 675 C 384 666 397 641 426 649 Q 427 649 488 666 Q 537 682 548 675 Q 558 651 563 588 Q 567 398 557 361 Z" class="stroke5"/>
    <path d="M 467 520 Q 482 252 389 157 Q 365 135 325 105 Q 315 101 313 97 Q 310 93 322 91 Q 370 91 451 171 Q 458 181 466 192 Q 508 271 510 476 Q 510 509 520 546 Q 524 555 516 560 Q 503 572 474 582 Q 458 588 445 583 Q 430 576 443 564 Q 465 543 467 520 Z" class="stroke6"/>
    <path d="M 538 208 Q 568 171 599 128 Q 608 115 621 112 Q 631 111 637 121 Q 644 133 642 159 Q 639 198 543 250 Q 530 256 524 255 Q 520 252 518 241 Q 519 231 538 208 Z" class="stroke7"/>
    <path d="M 654 587 Q 682 532 665 364 Q 659 333 685 302 Q 694 292 702 302 Q 717 329 717 414 Q 713 508 719 562 Q 725 581 706 592 Q 693 601 677 608 Q 667 612 658 607 Q 651 600 654 587 Z" class="stroke8"/>
    <path d="M 810 710 Q 816 674 823 132 Q 823 110 811 100 Q 805 96 725 109 Q 692 119 695 109 Q 696 102 718 88 Q 788 40 807 11 Q 829 -23 845 -22 Q 860 -23 873 12 Q 889 58 884 131 Q 863 366 866 604 Q 867 692 880 738 Q 896 769 840 789 Q 806 807 787 800 Q 769 793 786 770 Q 808 743 810 710 Z" class="stroke9"/>
    
    
    
    
    
    
    
    
    </g>
</svg>