<svg version="1.1" viewBox="0 0 1024 1024" xmlns="http://www.w3.org/2000/svg">
  
  <g transform="scale(1, -1) translate(0, -900)">
    <style type="text/css">
        .stroke1 {fill: #808080;}
        .stroke2 {fill: #808079;}
        .stroke3 {fill: #808078;}
        .stroke4 {fill: #808077;}
        .stroke5 {fill: #808076;}
        .stroke6 {fill: #808075;}
        .stroke7 {fill: #808074;}
        .stroke8 {fill: #808073;}
        .stroke9 {fill: #808072;}
        .stroke10 {fill: #808071;}
        .stroke11 {fill: #808070;}
        .stroke12 {fill: #808069;}
        .stroke13 {fill: #808068;}
        .stroke14 {fill: #808067;}
        .stroke15 {fill: #808066;}
        .stroke16 {fill: #808065;}
        .stroke17 {fill: #808064;}
        .stroke18 {fill: #808063;}
        .stroke19 {fill: #808062;}
        .stroke20 {fill: #808061;}
        text {
            font-family: Helvetica;
            font-size: 50px;
            fill: #808060;
            paint-order: stroke;
            stroke: #000000;
            stroke-width: 4px;
            stroke-linecap: butt;
            stroke-linejoin: miter;
            font-weight: 800;
        }
    </style>

    <path d="M 143 541 Q 128 478 103 420 Q 90 390 109 362 Q 118 347 134 361 Q 177 406 172 494 Q 173 522 163 544 Q 159 551 153 551 Q 146 548 143 541 Z" class="stroke1"/>
    <path d="M 290 571 Q 308 565 367 525 Q 379 518 391 520 Q 398 521 401 532 Q 402 544 392 566 Q 385 582 354 592 Q 327 598 291 601 C 261 604 262 582 290 571 Z" class="stroke2"/>
    <path d="M 291 601 Q 292 691 309 753 Q 318 766 314 780 Q 308 789 255 821 Q 233 837 214 822 Q 210 818 215 803 Q 248 754 249 686 Q 249 254 240 182 Q 233 143 223 104 Q 213 70 237 9 Q 244 -7 251 -11 Q 257 -17 264 -10 Q 271 -6 281 15 Q 290 37 289 67 Q 288 118 290 571 L 291 601 Z" class="stroke3"/>
    <path d="M 479 707 Q 498 685 520 657 Q 530 644 545 642 Q 555 641 561 653 Q 567 666 563 694 Q 556 724 480 751 Q 467 757 460 755 Q 456 752 455 740 Q 456 730 479 707 Z" class="stroke4"/>
    <path d="M 703 796 Q 687 757 612 643 Q 605 624 622 631 Q 640 646 752 758 Q 768 777 791 791 Q 810 804 797 820 Q 781 836 753 846 Q 726 856 714 851 Q 701 847 708 835 Q 714 816 703 796 Z" class="stroke5"/>
    <path d="M 498 558 Q 486 564 457 568 Q 447 571 443 566 Q 437 560 445 545 Q 473 488 489 394 Q 492 366 509 347 Q 525 326 530 341 Q 531 348 533 356 L 533 387 Q 523 439 510 527 C 506 555 506 555 498 558 Z" class="stroke6"/>
    <path d="M 729 418 Q 751 514 784 542 Q 800 561 785 577 Q 769 590 717 611 Q 699 618 679 609 Q 612 582 498 558 C 469 552 481 520 510 527 Q 519 528 531 533 Q 601 546 666 560 Q 684 564 691 558 Q 701 549 699 529 Q 692 466 680 417 C 673 388 722 389 729 418 Z" class="stroke7"/>
    <path d="M 668 374 Q 702 380 745 384 Q 755 385 756 393 Q 756 400 729 418 C 718 426 709 424 680 417 Q 598 398 533 387 C 503 382 503 355 533 356 Q 543 356 556 357 Q 583 364 625 369 L 668 374 Z" class="stroke8"/>
    <path d="M 502 303 Q 502 192 345 75 Q 338 69 343 66 Q 349 63 359 67 Q 476 103 545 237 Q 552 253 564 267 Q 571 274 567 283 Q 563 293 538 308 Q 520 320 513 318 Q 501 317 502 303 Z" class="stroke9"/>
    <path d="M 980 122 Q 967 149 948 231 Q 948 246 941 250 Q 935 253 931 236 Q 909 148 892 121 Q 868 91 778 96 Q 744 99 717 111 Q 693 124 687 140 Q 666 183 693 333 Q 699 360 668 374 C 643 391 615 397 625 369 Q 640 338 637 285 Q 628 120 659 84 Q 677 66 721 49 Q 869 7 974 82 Q 993 97 980 122 Z" class="stroke10"/>
    
    
    
    
    
    
    
    
    
    </g>
</svg>