<svg version="1.1" viewBox="0 0 1024 1024" xmlns="http://www.w3.org/2000/svg">
  
  <g transform="scale(1, -1) translate(0, -900)">
    <style type="text/css">
        .stroke1 {fill: #808080;}
        .stroke2 {fill: #808079;}
        .stroke3 {fill: #808078;}
        .stroke4 {fill: #808077;}
        .stroke5 {fill: #808076;}
        .stroke6 {fill: #808075;}
        .stroke7 {fill: #808074;}
        .stroke8 {fill: #808073;}
        .stroke9 {fill: #808072;}
        .stroke10 {fill: #808071;}
        .stroke11 {fill: #808070;}
        .stroke12 {fill: #808069;}
        .stroke13 {fill: #808068;}
        .stroke14 {fill: #808067;}
        .stroke15 {fill: #808066;}
        .stroke16 {fill: #808065;}
        .stroke17 {fill: #808064;}
        .stroke18 {fill: #808063;}
        .stroke19 {fill: #808062;}
        .stroke20 {fill: #808061;}
        text {
            font-family: Helvetica;
            font-size: 50px;
            fill: #808060;
            paint-order: stroke;
            stroke: #000000;
            stroke-width: 4px;
            stroke-linecap: butt;
            stroke-linejoin: miter;
            font-weight: 800;
        }
    </style>

    <path d="M 130 545 Q 114 487 87 431 Q 72 398 92 371 Q 101 355 119 369 Q 164 412 159 495 Q 160 526 151 547 Q 147 554 140 555 Q 133 554 130 545 Z" class="stroke1"/>
    <path d="M 272 543 Q 297 519 323 494 Q 336 482 349 481 Q 359 481 364 495 Q 365 505 358 521 Q 340 551 273 570 C 244 578 250 564 272 543 Z" class="stroke2"/>
    <path d="M 273 570 Q 274 663 293 726 Q 302 741 299 754 Q 292 764 238 797 Q 216 813 195 799 Q 191 795 196 779 Q 226 733 228 657 Q 228 230 200 127 Q 197 120 195 109 Q 183 66 209 10 Q 215 -8 223 -11 Q 229 -17 236 -9 Q 243 -5 254 15 Q 264 40 263 70 Q 262 118 272 543 L 273 570 Z" class="stroke3"/>
    <path d="M 614 709 Q 681 743 727 754 Q 743 755 747 764 Q 751 774 738 785 Q 678 824 644 820 Q 637 816 636 805 Q 637 777 481 685 C 455 670 452 652 481 661 Q 505 668 545 683 Q 558 687 573 693 L 614 709 Z" class="stroke4"/>
    <path d="M 481 685 Q 474 700 440 717 Q 424 723 417 718 Q 407 712 415 699 Q 448 635 434 494 Q 430 454 394 413 Q 384 401 389 382 Q 396 358 407 349 Q 417 342 428 355 Q 444 377 577 459 Q 593 468 599 475 Q 603 482 595 484 Q 589 484 489 450 Q 471 443 473 460 Q 480 554 480 628 Q 479 646 481 661 C 483 683 483 683 481 685 Z" class="stroke5"/>
    <path d="M 672 579 Q 702 592 736 604 Q 764 616 767 620 Q 774 627 768 635 Q 761 644 735 645 Q 711 646 656 616 L 616 598 Q 579 585 538 573 Q 508 563 533 553 Q 567 540 632 564 L 672 579 Z" class="stroke6"/>
    <path d="M 632 564 Q 668 467 776 385 Q 791 376 808 366 Q 863 335 896 331 Q 921 334 915 366 Q 902 391 885 518 Q 884 531 878 533 Q 871 533 869 518 Q 860 490 852 463 Q 842 427 829 427 Q 796 424 732 494 Q 687 545 672 579 L 656 616 Q 647 653 650 676 Q 651 694 616 709 L 614 709 C 587 721 558 719 573 693 Q 583 681 616 598 L 632 564 Z" class="stroke7"/>
    <path d="M 518 320 Q 505 333 484 341 Q 475 345 465 342 Q 458 338 464 327 Q 477 267 476 185 Q 460 38 471 19 Q 475 9 483 1 Q 492 -11 502 0 Q 502 1 514 44 L 515 77 L 519 164 L 520 192 Q 523 279 524 289 C 526 314 526 314 518 320 Z" class="stroke8"/>
    <path d="M 653 62 Q 678 26 698 -8 Q 705 -24 717 -24 Q 732 -23 748 7 Q 766 43 764 87 Q 760 145 756 253 Q 755 281 771 302 Q 780 314 771 324 Q 755 342 705 365 Q 689 374 674 366 Q 620 341 518 320 C 489 314 494 284 524 289 Q 548 292 665 318 Q 683 322 692 315 Q 710 300 700 147 Q 700 104 696 92 Q 690 73 674 83 L 673 83 C 643 85 637 86 653 62 Z" class="stroke9"/>
    <path d="M 519 164 Q 520 164 523 164 Q 590 174 639 181 Q 661 185 653 197 Q 643 210 619 214 Q 583 218 520 192 C 492 181 489 163 519 164 Z" class="stroke10"/>
    <path d="M 514 44 Q 518 44 524 45 Q 566 55 653 62 C 683 64 692 65 673 83 Q 664 92 652 99 Q 636 106 608 99 Q 556 86 515 77 C 486 71 484 42 514 44 Z" class="stroke11"/>
    
    
    
    
    
    
    
    
    
    
    </g>
</svg>