<svg version="1.1" viewBox="0 0 1024 1024" xmlns="http://www.w3.org/2000/svg">
  
  <g transform="scale(1, -1) translate(0, -900)">
    <style type="text/css">
        .stroke1 {fill: #808080;}
        .stroke2 {fill: #808079;}
        .stroke3 {fill: #808078;}
        .stroke4 {fill: #808077;}
        .stroke5 {fill: #808076;}
        .stroke6 {fill: #808075;}
        .stroke7 {fill: #808074;}
        .stroke8 {fill: #808073;}
        .stroke9 {fill: #808072;}
        .stroke10 {fill: #808071;}
        .stroke11 {fill: #808070;}
        .stroke12 {fill: #808069;}
        .stroke13 {fill: #808068;}
        .stroke14 {fill: #808067;}
        .stroke15 {fill: #808066;}
        .stroke16 {fill: #808065;}
        .stroke17 {fill: #808064;}
        .stroke18 {fill: #808063;}
        .stroke19 {fill: #808062;}
        .stroke20 {fill: #808061;}
        text {
            font-family: Helvetica;
            font-size: 50px;
            fill: #808060;
            paint-order: stroke;
            stroke: #000000;
            stroke-width: 4px;
            stroke-linecap: butt;
            stroke-linejoin: miter;
            font-weight: 800;
        }
    </style>

    <path d="M 136 532 Q 118 465 89 402 Q 74 363 95 335 Q 105 319 124 334 Q 172 382 169 478 Q 170 511 159 535 Q 153 542 147 543 Q 140 540 136 532 Z" class="stroke1"/>
    <path d="M 301 583 Q 305 579 315 574 Q 343 556 373 534 Q 385 525 398 527 Q 407 528 409 540 Q 412 553 401 576 Q 394 592 365 602 Q 307 617 301 612 C 274 605 278 602 301 583 Z" class="stroke2"/>
    <path d="M 301 612 Q 304 685 319 736 Q 328 752 325 765 Q 318 775 262 809 Q 238 825 217 810 Q 213 806 218 789 Q 251 743 252 676 Q 252 250 244 188 Q 238 151 228 112 Q 216 73 243 10 Q 250 -8 258 -11 Q 265 -18 272 -10 Q 300 14 299 73 Q 298 122 301 578 Q 301 581 301 583 L 301 612 Z" class="stroke3"/>
    <path d="M 553 654 Q 584 691 604 716 Q 652 785 673 802 Q 692 818 676 832 Q 657 845 628 851 Q 601 858 589 851 Q 577 845 585 834 Q 600 804 527 649 C 514 622 534 631 553 654 Z" class="stroke4"/>
    <path d="M 480 645 Q 471 646 460 648 Q 448 652 445 646 Q 438 640 447 624 Q 478 560 498 453 Q 501 420 520 399 Q 538 377 543 393 Q 544 402 546 413 L 545 439 Q 544 451 542 463 Q 536 490 532 511 L 528 534 Q 518 592 515 612 C 510 641 510 641 480 645 Z" class="stroke5"/>
    <path d="M 732 433 L 733 431 Q 739 415 752 417 Q 765 418 773 434 Q 785 449 806 524 Q 822 576 859 607 Q 878 623 862 639 Q 843 657 792 683 Q 777 692 712 678 Q 687 678 575 658 Q 563 657 553 654 L 527 649 Q 499 648 480 645 C 450 641 485 607 515 612 Q 519 612 525 613 Q 586 629 724 642 Q 748 643 757 638 Q 767 632 762 602 Q 738 470 732 462 C 726 442 726 442 732 433 Z" class="stroke6"/>
    <path d="M 532 511 Q 538 510 547 511 Q 629 523 691 529 Q 713 533 705 545 Q 695 558 671 563 Q 647 567 528 534 C 499 526 502 513 532 511 Z" class="stroke7"/>
    <path d="M 546 413 Q 550 413 557 413 Q 657 426 732 433 C 762 436 759 449 732 462 Q 704 480 552 441 Q 548 441 545 439 C 516 430 516 413 546 413 Z" class="stroke8"/>
    <path d="M 638 305 Q 794 335 802 340 Q 809 347 806 354 Q 800 364 776 371 Q 755 377 661 350 Q 546 328 485 323 Q 454 319 475 304 Q 505 288 580 296 Q 584 297 592 297 L 638 305 Z" class="stroke9"/>
    <path d="M 655 176 Q 776 198 782 202 Q 789 209 786 217 Q 780 227 754 236 Q 727 242 657 221 L 603 209 Q 548 200 490 197 Q 456 193 479 177 Q 512 156 584 166 Q 593 167 604 168 L 655 176 Z" class="stroke10"/>
    <path d="M 650 80 Q 653 132 655 176 L 657 221 Q 664 279 658 288 Q 648 298 638 305 C 614 323 583 326 592 297 Q 599 279 603 209 L 604 168 Q 605 131 607 75 C 608 45 648 50 650 80 Z" class="stroke11"/>
    <path d="M 607 75 Q 496 65 369 54 Q 348 53 363 35 Q 376 20 394 14 Q 416 8 432 12 Q 637 61 913 40 Q 932 40 938 48 Q 944 60 927 74 Q 876 116 839 108 Q 767 95 650 80 L 607 75 Z" class="stroke12"/>
    
    
    
    
    
    
    
    
    
    
    
    </g>
</svg>