<svg version="1.1" viewBox="0 0 1024 1024" xmlns="http://www.w3.org/2000/svg">
  
  <g transform="scale(1, -1) translate(0, -900)">
    <style type="text/css">
        .stroke1 {fill: #808080;}
        .stroke2 {fill: #808079;}
        .stroke3 {fill: #808078;}
        .stroke4 {fill: #808077;}
        .stroke5 {fill: #808076;}
        .stroke6 {fill: #808075;}
        .stroke7 {fill: #808074;}
        .stroke8 {fill: #808073;}
        .stroke9 {fill: #808072;}
        .stroke10 {fill: #808071;}
        .stroke11 {fill: #808070;}
        .stroke12 {fill: #808069;}
        .stroke13 {fill: #808068;}
        .stroke14 {fill: #808067;}
        .stroke15 {fill: #808066;}
        .stroke16 {fill: #808065;}
        .stroke17 {fill: #808064;}
        .stroke18 {fill: #808063;}
        .stroke19 {fill: #808062;}
        .stroke20 {fill: #808061;}
        text {
            font-family: Helvetica;
            font-size: 50px;
            fill: #808060;
            paint-order: stroke;
            stroke: #000000;
            stroke-width: 4px;
            stroke-linecap: butt;
            stroke-linejoin: miter;
            font-weight: 800;
        }
    </style>

    <path d="M 109 516 Q 94 449 68 386 Q 53 349 75 323 Q 85 307 103 322 Q 122 341 130 373 Q 146 422 142 465 Q 142 496 132 519 Q 125 526 120 526 Q 113 525 109 516 Z" class="stroke1"/>
    <path d="M 255 553 Q 268 550 335 499 Q 347 490 358 492 Q 367 493 369 504 Q 372 516 362 538 Q 350 568 256 584 C 226 589 227 564 255 553 Z" class="stroke2"/>
    <path d="M 256 584 Q 257 666 274 723 Q 283 738 280 751 Q 273 760 219 793 Q 195 809 176 794 Q 170 790 177 774 Q 208 728 210 679 Q 211 609 214 529 Q 211 390 209 238 Q 205 162 185 92 Q 173 50 200 -7 Q 207 -23 215 -27 Q 221 -34 228 -25 Q 235 -21 245 -1 Q 255 24 254 54 Q 253 103 255 553 L 256 584 Z" class="stroke3"/>
    <path d="M 461 702 Q 451 706 434 708 Q 424 711 420 706 Q 416 700 423 686 Q 456 614 474 497 Q 478 463 497 438 Q 513 419 518 433 Q 519 437 520 442 L 521 468 Q 521 487 516 510 Q 489 637 484 673 C 481 696 481 696 461 702 Z" class="stroke4"/>
    <path d="M 681 465 Q 697 441 713 434 Q 723 427 737 447 Q 753 477 780 636 Q 787 664 809 689 Q 822 701 811 713 Q 796 729 756 752 Q 738 761 682 745 Q 673 745 461 702 C 432 696 455 666 484 673 Q 556 692 683 712 Q 708 715 721 707 Q 737 694 733 672 Q 709 519 693 493 C 681 465 681 465 681 465 Z" class="stroke5"/>
    <path d="M 604 599 Q 614 615 628 640 Q 634 655 635 658 Q 634 664 624 670 Q 605 683 580 679 Q 576 676 578 669 Q 584 623 527 532 Q 523 528 530 527 Q 569 548 595 584 L 604 599 Z" class="stroke6"/>
    <path d="M 595 584 Q 652 545 668 547 Q 677 548 678 561 Q 677 570 668 581 Q 650 599 604 599 C 574 599 573 599 595 584 Z" class="stroke7"/>
    <path d="M 520 442 Q 524 442 531 442 Q 615 457 681 465 C 711 469 719 479 693 493 Q 687 497 677 499 Q 652 502 521 468 C 492 460 490 442 520 442 Z" class="stroke8"/>
    <path d="M 412 339 Q 402 343 390 343 Q 380 346 376 341 Q 372 335 380 321 Q 411 260 434 156 Q 437 132 449 115 C 465 90 480 88 480 118 Q 481 139 474 169 Q 449 272 442 306 C 437 331 437 331 412 339 Z" class="stroke9"/>
    <path d="M 799 160 Q 811 197 821 232 Q 837 287 875 323 Q 896 345 868 363 Q 843 382 817 399 Q 802 409 735 389 Q 681 386 518 354 Q 457 344 412 339 C 382 335 414 296 442 306 Q 448 312 513 323 L 538 328 Q 553 332 633 342 L 688 348 Q 722 352 765 356 Q 780 357 785 350 Q 800 323 742 151 C 733 123 790 131 799 160 Z" class="stroke10"/>
    <path d="M 571 129 Q 581 172 544 312 Q 543 321 538 328 C 523 354 510 353 513 323 Q 514 310 519 295 Q 523 270 525 238 Q 531 151 556 127 C 568 113 568 113 571 129 Z" class="stroke11"/>
    <path d="M 651 138 Q 669 192 682 260 Q 686 285 700 319 Q 710 332 700 339 Q 696 343 688 348 C 663 365 621 370 633 342 Q 654 303 626 150 Q 625 143 624 135 C 620 105 642 109 651 138 Z" class="stroke12"/>
    <path d="M 449 115 Q 385 111 321 102 Q 300 101 315 83 Q 328 68 347 63 Q 368 57 384 61 Q 553 106 887 105 Q 906 105 925 104 Q 946 104 950 112 Q 956 124 940 138 Q 883 183 806 162 Q 802 162 799 160 L 742 151 Q 700 147 651 138 L 624 135 Q 618 135 612 134 Q 591 133 571 129 L 556 127 Q 519 124 480 118 L 449 115 Z" class="stroke13"/>
    
    
    
    
    
    
    
    
    
    
    
    
    </g>
</svg>