<svg version="1.1" viewBox="0 0 1024 1024" xmlns="http://www.w3.org/2000/svg">
  
  <g transform="scale(1, -1) translate(0, -900)">
    <style type="text/css">
        .stroke1 {fill: #808080;}
        .stroke2 {fill: #808079;}
        .stroke3 {fill: #808078;}
        .stroke4 {fill: #808077;}
        .stroke5 {fill: #808076;}
        .stroke6 {fill: #808075;}
        .stroke7 {fill: #808074;}
        .stroke8 {fill: #808073;}
        .stroke9 {fill: #808072;}
        .stroke10 {fill: #808071;}
        .stroke11 {fill: #808070;}
        .stroke12 {fill: #808069;}
        .stroke13 {fill: #808068;}
        .stroke14 {fill: #808067;}
        .stroke15 {fill: #808066;}
        .stroke16 {fill: #808065;}
        .stroke17 {fill: #808064;}
        .stroke18 {fill: #808063;}
        .stroke19 {fill: #808062;}
        .stroke20 {fill: #808061;}
        text {
            font-family: Helvetica;
            font-size: 50px;
            fill: #808060;
            paint-order: stroke;
            stroke: #000000;
            stroke-width: 4px;
            stroke-linecap: butt;
            stroke-linejoin: miter;
            font-weight: 800;
        }
    </style>

    <path d="M 342 793 Q 303 751 199 686 Q 196 679 201 676 Q 232 676 359 747 Q 365 760 427 779 Q 440 782 443 788 Q 444 798 434 805 Q 383 835 355 827 Q 349 811 342 793 Z" class="stroke1"/>
    <path d="M 201 610 Q 237 570 249 567 Q 256 567 262 577 Q 266 587 261 609 Q 255 628 200 645 Q 188 648 184 646 Q 180 645 181 634 Q 182 627 201 610 Z" class="stroke2"/>
    <path d="M 313 686 Q 350 641 365 638 Q 375 637 381 651 Q 382 661 375 677 Q 357 701 318 707 Q 311 708 309 699 Q 308 693 313 686 Z" class="stroke3"/>
    <path d="M 349 565 Q 481 646 488 647 Q 501 650 503 657 Q 503 663 495 670 Q 473 692 453 700 Q 440 706 431 693 Q 398 621 175 501 Q 112 474 114 469 Q 114 468 120 467 Q 192 470 320 548 Q 320 549 322 549 L 349 565 Z" class="stroke4"/>
    <path d="M 416 431 Q 429 380 414 316 Q 408 291 401 288 Q 392 282 341 289 Q 314 295 312 288 Q 311 281 322 269 Q 368 226 386 199 Q 399 180 415 184 Q 430 188 443 208 Q 456 236 465 286 Q 474 353 466 396 Q 457 447 441 475 Q 399 544 349 565 C 322 578 297 566 322 549 Q 329 545 336 539 L 373 505 Q 382 495 391 482 L 416 431 Z" class="stroke5"/>
    <path d="M 336 539 Q 315 470 136 360 Q 121 351 139 352 Q 217 352 349 483 Q 364 496 373 505 C 395 526 346 567 336 539 Z" class="stroke6"/>
    <path d="M 391 482 Q 315 365 155 267 Q 143 261 132 253 Q 119 243 128 241 Q 146 231 222 268 Q 315 311 416 431 C 435 454 408 507 391 482 Z" class="stroke7"/>
    <path d="M 681 556 Q 697 529 713 522 Q 723 515 736 534 Q 748 556 774 672 Q 781 700 800 722 Q 810 732 801 745 Q 788 758 749 781 Q 731 788 719 783 Q 703 776 679 770 Q 649 761 611 750 Q 581 740 560 734 C 531 725 551 694 579 706 Q 603 718 701 741 Q 711 744 719 739 Q 732 730 728 713 Q 709 604 701 587 Q 697 578 688 574 C 676 564 676 564 681 556 Z" class="stroke8"/>
    <path d="M 579 619 L 672 639 Q 690 645 682 654 Q 672 664 650 666 Q 619 666 578 639 C 553 623 550 613 579 619 Z" class="stroke9"/>
    <path d="M 603 543 Q 631 550 681 556 C 706 559 706 559 688 574 Q 684 578 673 584 Q 661 590 581 566 C 542 554 572 535 603 543 Z" class="stroke10"/>
    <path d="M 560 734 Q 547 743 536 747 Q 521 753 514 747 Q 507 743 514 730 Q 559 646 542 401 Q 541 361 510 322 Q 501 309 507 291 Q 516 270 526 261 Q 536 255 546 269 Q 558 288 664 374 Q 680 384 684 391 Q 687 398 679 399 Q 669 399 595 364 Q 582 357 581 370 Q 582 461 581 537 L 581 566 Q 580 594 579 619 L 578 639 Q 575 672 579 706 C 580 722 580 722 560 734 Z" class="stroke11"/>
    <path d="M 730 450 Q 752 462 767 471 Q 809 501 831 509 Q 847 516 839 530 Q 830 543 810 555 Q 792 565 783 564 Q 773 563 776 553 Q 776 529 736 486 Q 726 474 714 460 C 694 437 704 436 730 450 Z" class="stroke12"/>
    <path d="M 714 460 Q 662 497 603 543 C 579 561 560 558 581 537 Q 774 344 801 334 Q 810 333 823 334 Q 911 349 939 358 Q 946 361 948 365 Q 948 369 935 374 Q 806 404 735 447 Q 732 448 730 450 L 714 460 Z" class="stroke13"/>
    <path d="M 245 171 Q 211 113 167 63 Q 140 33 154 -5 Q 160 -24 183 -15 Q 208 -2 228 29 Q 255 69 263 107 Q 273 141 270 167 Q 266 177 260 178 Q 251 178 245 171 Z" class="stroke14"/>
    <path d="M 335 146 Q 362 35 453 -18 Q 558 -75 771 -50 Q 816 -41 852 -23 Q 877 -10 879 7 Q 883 20 837 45 Q 765 97 712 152 Q 696 168 692 160 Q 689 154 719 93 Q 746 38 738 23 Q 731 11 691 7 Q 517 -11 435 53 Q 399 80 380 131 Q 371 155 358 160 Q 343 167 336 161 Q 330 160 335 146 Z" class="stroke15"/>
    <path d="M 521 156 Q 543 137 565 114 Q 580 101 596 102 Q 608 102 613 116 Q 617 132 607 163 Q 601 181 574 192 Q 505 213 492 207 Q 486 203 488 189 Q 492 179 521 156 Z" class="stroke16"/>
    <path d="M 761 224 Q 813 188 876 135 Q 895 119 910 116 Q 919 116 925 127 Q 935 142 916 182 Q 904 219 829 239 Q 783 249 757 254 Q 747 258 748 246 Q 749 233 761 224 Z" class="stroke17"/>
    
    
    
    
    
    
    
    
    
    
    
    
    
    
    
    
    </g>
</svg>