<svg version="1.1" viewBox="0 0 1024 1024" xmlns="http://www.w3.org/2000/svg">
  
  <g transform="scale(1, -1) translate(0, -900)">
    <style type="text/css">
        .stroke1 {fill: #808080;}
        .stroke2 {fill: #808079;}
        .stroke3 {fill: #808078;}
        .stroke4 {fill: #808077;}
        .stroke5 {fill: #808076;}
        .stroke6 {fill: #808075;}
        .stroke7 {fill: #808074;}
        .stroke8 {fill: #808073;}
        .stroke9 {fill: #808072;}
        .stroke10 {fill: #808071;}
        .stroke11 {fill: #808070;}
        .stroke12 {fill: #808069;}
        .stroke13 {fill: #808068;}
        .stroke14 {fill: #808067;}
        .stroke15 {fill: #808066;}
        .stroke16 {fill: #808065;}
        .stroke17 {fill: #808064;}
        .stroke18 {fill: #808063;}
        .stroke19 {fill: #808062;}
        .stroke20 {fill: #808061;}
        text {
            font-family: Helvetica;
            font-size: 50px;
            fill: #808060;
            paint-order: stroke;
            stroke: #000000;
            stroke-width: 4px;
            stroke-linecap: butt;
            stroke-linejoin: miter;
            font-weight: 800;
        }
    </style>

    <path d="M 380 659 Q 383 759 388 774 Q 389 783 374 792 Q 346 804 328 805 Q 316 806 311 799 Q 305 793 313 783 Q 329 767 347 650 C 352 620 379 629 380 659 Z" class="stroke1"/>
    <path d="M 474 683 Q 475 696 478 707 L 482 732 Q 485 774 503 838 Q 506 845 491 858 Q 466 873 448 877 Q 436 880 430 874 Q 424 868 430 857 Q 448 827 441 675 C 440 645 471 653 474 683 Z" class="stroke2"/>
    <path d="M 214 703 Q 256 658 278 659 Q 291 659 295 678 Q 295 691 284 709 Q 274 719 256 722 Q 228 729 216 729 Q 206 730 207 719 Q 206 710 214 703 Z" class="stroke3"/>
    <path d="M 478 707 Q 478 708 480 708 Q 558 748 594 762 Q 610 763 608 774 Q 593 819 557 827 Q 545 828 544 812 Q 544 794 482 732 C 461 711 451 693 478 707 Z" class="stroke4"/>
    <path d="M 463 643 Q 521 656 594 668 Q 610 671 610 678 Q 611 690 594 698 Q 567 708 546 703 Q 507 693 474 683 L 441 675 Q 407 668 380 659 L 347 650 Q 208 620 132 609 Q 119 608 117 600 Q 114 590 129 579 Q 165 557 212 571 Q 255 589 298 600 L 323 607 Q 369 623 422 634 L 463 643 Z" class="stroke5"/>
    <path d="M 298 600 Q 299 596 303 589 Q 316 564 329 535 Q 330 534 332 530 C 346 503 353 511 360 540 Q 366 561 349 584 Q 336 596 323 607 C 300 626 288 628 298 600 Z" class="stroke6"/>
    <path d="M 445 569 Q 464 602 479 617 Q 489 626 483 631 Q 476 638 463 643 C 435 654 409 661 422 634 Q 422 633 424 630 Q 433 620 419 561 C 412 532 430 543 445 569 Z" class="stroke7"/>
    <path d="M 403 520 Q 452 536 498 547 Q 517 551 509 562 Q 499 572 478 575 Q 465 576 445 569 L 419 561 Q 388 551 360 540 L 332 530 Q 295 520 261 507 Q 248 503 265 492 Q 278 485 301 491 Q 334 501 367 510 L 403 520 Z" class="stroke8"/>
    <path d="M 415 425 Q 446 435 478 444 Q 500 450 490 461 Q 478 474 454 475 Q 438 475 417 468 L 372 450 Q 320 428 273 409 Q 257 403 278 392 Q 288 386 310 392 Q 341 402 373 412 L 415 425 Z" class="stroke9"/>
    <path d="M 411 353 Q 412 392 415 425 L 417 468 Q 417 469 418 470 Q 418 510 403 520 C 381 540 363 540 367 510 Q 368 507 372 450 L 373 412 Q 373 384 374 341 C 375 311 410 323 411 353 Z" class="stroke10"/>
    <path d="M 374 341 Q 310 322 241 300 Q 222 294 189 294 Q 177 293 176 284 Q 175 271 182 264 Q 204 251 233 233 Q 243 230 254 238 Q 297 271 476 346 Q 503 358 521 372 Q 533 379 533 387 Q 529 391 517 390 Q 465 372 411 353 L 374 341 Z" class="stroke11"/>
    <path d="M 743 583 Q 809 595 889 595 Q 905 596 909 604 Q 913 614 898 624 Q 852 655 790 635 Q 769 631 743 623 L 701 613 Q 634 600 557 583 Q 541 580 553 567 Q 583 545 611 554 Q 651 569 700 576 L 743 583 Z" class="stroke12"/>
    <path d="M 700 576 Q 697 497 694 385 Q 693 369 684 362 Q 683 362 636 366 Q 609 378 611 369 Q 612 363 628 350 Q 671 308 682 285 Q 694 260 706 257 Q 718 256 731 284 Q 747 321 748 384 Q 742 484 743 583 L 743 623 Q 747 764 763 817 Q 778 842 732 861 Q 704 877 688 872 Q 673 866 686 847 Q 704 825 704 796 Q 705 780 701 613 L 700 576 Z" class="stroke13"/>
    <path d="M 562 461 Q 578 448 594 430 Q 604 420 617 421 Q 626 422 629 433 Q 633 443 625 467 Q 621 480 600 488 Q 549 503 540 499 Q 536 495 537 485 Q 541 478 562 461 Z" class="stroke14"/>
    <path d="M 202 176 Q 177 127 143 83 Q 121 53 137 14 Q 144 -5 166 7 Q 220 46 225 115 Q 232 149 226 175 Q 222 184 215 185 Q 206 184 202 176 Z" class="stroke15"/>
    <path d="M 316 171 Q 343 66 432 15 Q 547 -42 752 -10 Q 786 0 815 14 Q 840 27 841 43 Q 844 53 809 75 Q 754 118 713 163 Q 701 179 697 172 Q 694 169 717 90 Q 732 48 670 40 Q 496 19 414 81 Q 378 106 358 158 Q 349 180 338 184 Q 325 190 318 185 Q 312 184 316 171 Z" class="stroke16"/>
    <path d="M 477 197 Q 505 184 536 168 Q 551 161 563 165 Q 572 168 573 180 Q 574 193 559 216 Q 543 240 462 235 Q 449 235 443 231 Q 440 227 444 216 Q 450 207 477 197 Z" class="stroke17"/>
    <path d="M 794 261 Q 840 233 896 189 Q 915 173 930 171 Q 939 172 945 183 Q 954 198 933 238 Q 917 275 851 284 Q 811 290 789 291 Q 779 294 780 282 Q 781 269 794 261 Z" class="stroke18"/>
    
    
    
    
    
    
    
    
    
    
    
    
    
    
    
    
    
    </g>
</svg>