<svg version="1.1" viewBox="0 0 1024 1024" xmlns="http://www.w3.org/2000/svg">
  
  <g transform="scale(1, -1) translate(0, -900)">
    <style type="text/css">
        .stroke1 {fill: #808080;}
        .stroke2 {fill: #808079;}
        .stroke3 {fill: #808078;}
        .stroke4 {fill: #808077;}
        .stroke5 {fill: #808076;}
        .stroke6 {fill: #808075;}
        .stroke7 {fill: #808074;}
        .stroke8 {fill: #808073;}
        .stroke9 {fill: #808072;}
        .stroke10 {fill: #808071;}
        .stroke11 {fill: #808070;}
        .stroke12 {fill: #808069;}
        .stroke13 {fill: #808068;}
        .stroke14 {fill: #808067;}
        .stroke15 {fill: #808066;}
        .stroke16 {fill: #808065;}
        .stroke17 {fill: #808064;}
        .stroke18 {fill: #808063;}
        .stroke19 {fill: #808062;}
        .stroke20 {fill: #808061;}
        text {
            font-family: Helvetica;
            font-size: 50px;
            fill: #808060;
            paint-order: stroke;
            stroke: #000000;
            stroke-width: 4px;
            stroke-linecap: butt;
            stroke-linejoin: miter;
            font-weight: 800;
        }
    </style>

    <path d="M 107 489 Q 91 425 64 364 Q 49 333 69 306 Q 78 291 94 305 Q 112 321 120 350 Q 138 399 135 442 Q 136 470 127 492 Q 123 499 117 499 Q 110 496 107 489 Z" class="stroke1"/>
    <path d="M 245 516 Q 252 515 300 464 Q 310 454 324 454 Q 333 454 337 465 Q 341 477 335 501 Q 331 517 305 531 Q 280 541 250 549 Q 249 550 246 550 C 217 557 218 530 245 516 Z" class="stroke2"/>
    <path d="M 246 550 Q 246 644 267 716 Q 280 740 254 760 Q 239 772 215 786 Q 193 802 174 788 Q 170 784 175 768 Q 205 725 205 647 Q 205 232 172 110 Q 169 107 169 101 Q 159 65 182 5 Q 188 -11 195 -15 Q 201 -21 208 -13 Q 235 3 235 63 Q 234 109 245 516 L 246 550 Z" class="stroke3"/>
    <path d="M 456 683 Q 499 665 546 674 Q 636 690 729 709 Q 772 719 778 725 Q 787 732 783 740 Q 776 752 748 759 Q 727 765 616 733 Q 505 712 461 708 Q 451 707 448 704 C 424 695 428 694 456 683 Z" class="stroke4"/>
    <path d="M 447 616 Q 450 649 456 683 C 458 697 458 697 448 704 Q 435 717 409 726 Q 390 736 379 730 Q 369 723 375 711 Q 411 669 388 456 Q 387 453 387 447 Q 378 377 361 317 Q 330 218 261 97 Q 257 90 255 85 Q 254 75 263 77 Q 291 83 363 208 Q 373 232 385 257 Q 445 422 446 600 L 447 616 Z" class="stroke5"/>
    <path d="M 484 608 Q 477 612 458 616 Q 451 619 447 616 C 440 615 440 615 446 600 Q 468 548 478 463 Q 479 438 492 421 Q 505 405 509 416 Q 512 425 513 437 L 512 459 Q 511 465 511 470 Q 508 491 505 507 L 502 534 Q 498 571 497 585 C 496 603 496 603 484 608 Z" class="stroke6"/>
    <path d="M 589 447 L 590 446 Q 608 419 626 442 Q 638 458 644 513 Q 648 555 666 582 Q 676 597 666 610 Q 650 623 625 638 Q 612 642 598 637 Q 546 618 484 608 C 454 603 468 579 497 585 Q 503 586 511 588 Q 583 606 597 599 Q 603 596 602 579 Q 601 530 598 490 Q 598 472 583 468 C 575 464 575 464 589 447 Z" class="stroke7"/>
    <path d="M 505 507 Q 541 514 568 520 Q 586 526 578 534 Q 568 544 548 545 Q 529 546 502 534 C 474 522 476 501 505 507 Z" class="stroke8"/>
    <path d="M 513 437 Q 555 443 586 446 Q 587 447 589 447 C 609 453 609 453 583 468 Q 579 471 571 472 Q 537 475 512 459 C 486 443 483 433 513 437 Z" class="stroke9"/>
    <path d="M 492 356 L 490 358 Q 468 371 453 371 Q 443 370 446 359 Q 479 274 430 125 Q 397 71 424 32 Q 428 22 437 25 Q 467 43 477 135 L 479 155 L 482 183 Q 485 211 489 233 L 493 264 Q 497 310 502 326 Q 502 329 502 330 C 505 348 505 348 492 356 Z" class="stroke10"/>
    <path d="M 635 82 Q 636 86 636 90 Q 614 295 635 331 Q 645 346 635 354 Q 619 370 589 382 Q 574 388 563 383 Q 541 370 525 364 Q 512 360 492 356 C 463 350 474 319 502 330 Q 503 333 554 345 Q 567 349 574 341 Q 578 337 579 320 Q 586 193 582 115 Q 581 94 574 86 Q 570 83 516 94 Q 500 100 501 92 Q 543 52 566 24 Q 576 8 588 4 Q 595 1 602 9 Q 626 34 632 63 L 635 82 Z" class="stroke11"/>
    <path d="M 489 233 Q 523 243 552 248 Q 570 254 562 262 Q 552 272 532 273 Q 516 273 493 264 C 465 253 460 225 489 233 Z" class="stroke12"/>
    <path d="M 479 155 Q 525 167 559 172 Q 577 176 569 186 Q 560 196 540 198 Q 530 198 482 183 C 453 174 450 147 479 155 Z" class="stroke13"/>
    <path d="M 775 401 Q 796 410 879 423 Q 888 422 895 433 Q 895 443 875 451 Q 842 466 778 441 L 737 430 Q 667 417 650 413 Q 625 409 645 395 Q 672 377 710 385 Q 720 388 736 391 L 775 401 Z" class="stroke14"/>
    <path d="M 766 264 Q 770 318 775 401 L 778 441 Q 779 540 800 584 Q 806 596 796 606 Q 777 622 743 631 Q 721 637 714 630 Q 707 624 713 614 Q 740 571 737 430 L 736 391 Q 730 199 670 119 Q 655 103 635 82 C 614 60 612 58 632 63 Q 639 62 661 72 Q 733 102 757 208 Q 758 220 761 232 L 766 264 Z" class="stroke15"/>
    <path d="M 761 232 Q 812 159 871 54 Q 880 33 893 26 Q 900 23 909 30 Q 922 39 921 81 Q 922 138 766 264 C 743 283 744 257 761 232 Z" class="stroke16"/>
    <path d="M 831 597 Q 853 575 876 550 Q 886 538 900 538 Q 909 538 913 549 Q 917 561 912 585 Q 905 613 830 637 Q 817 641 812 639 Q 808 636 808 625 Q 811 615 831 597 Z" class="stroke17"/>
    
    
    
    
    
    
    
    
    
    
    
    
    
    
    
    
    </g>
</svg>