<svg version="1.1" viewBox="0 0 1024 1024" xmlns="http://www.w3.org/2000/svg">
  
  <g transform="scale(1, -1) translate(0, -900)">
    <style type="text/css">
        .stroke1 {fill: #808080;}
        .stroke2 {fill: #808079;}
        .stroke3 {fill: #808078;}
        .stroke4 {fill: #808077;}
        .stroke5 {fill: #808076;}
        .stroke6 {fill: #808075;}
        .stroke7 {fill: #808074;}
        .stroke8 {fill: #808073;}
        .stroke9 {fill: #808072;}
        .stroke10 {fill: #808071;}
        .stroke11 {fill: #808070;}
        .stroke12 {fill: #808069;}
        .stroke13 {fill: #808068;}
        .stroke14 {fill: #808067;}
        .stroke15 {fill: #808066;}
        .stroke16 {fill: #808065;}
        .stroke17 {fill: #808064;}
        .stroke18 {fill: #808063;}
        .stroke19 {fill: #808062;}
        .stroke20 {fill: #808061;}
        text {
            font-family: Helvetica;
            font-size: 50px;
            fill: #808060;
            paint-order: stroke;
            stroke: #000000;
            stroke-width: 4px;
            stroke-linecap: butt;
            stroke-linejoin: miter;
            font-weight: 800;
        }
    </style>

    <path d="M 498 828 Q 564 777 598 768 Q 614 767 623 784 Q 627 799 621 817 Q 600 862 505 873 Q 486 874 476 869 Q 469 866 474 854 Q 478 841 498 828 Z" class="stroke1"/>
    <path d="M 695 595 Q 720 646 750 664 Q 768 683 753 702 Q 677 765 623 738 Q 520 699 376 679 C 346 675 358 637 387 644 Q 399 648 615 692 Q 642 699 653 688 Q 660 681 657 667 Q 650 631 639 602 C 629 574 681 568 695 595 Z" class="stroke2"/>
    <path d="M 348 522 Q 363 512 386 515 Q 488 539 707 560 Q 717 561 719 570 Q 719 577 695 595 C 675 611 668 609 639 602 Q 480 563 354 548 C 324 544 321 535 348 522 Z" class="stroke3"/>
    <path d="M 376 679 Q 363 692 342 706 Q 323 721 309 717 Q 294 711 299 696 Q 314 668 304 609 Q 300 593 296 573 Q 263 402 200 285 Q 146 191 48 75 Q 41 69 38 63 Q 34 51 45 52 Q 72 52 168 151 Q 192 179 216 214 Q 297 340 348 522 L 354 548 Q 361 576 369 600 Q 373 619 382 635 Q 385 639 387 644 C 396 662 396 662 376 679 Z" class="stroke4"/>
    <path d="M 532 467 Q 548 451 566 429 Q 578 416 593 416 Q 603 416 609 429 Q 613 442 607 471 Q 603 487 579 498 Q 524 519 508 515 Q 504 511 504 499 Q 507 489 532 467 Z" class="stroke5"/>
    <path d="M 557 357 Q 626 381 909 381 Q 930 381 936 390 Q 940 400 925 414 Q 873 450 837 442 Q 693 409 324 358 Q 303 355 319 339 Q 332 326 350 321 Q 371 317 386 321 Q 447 340 517 351 L 557 357 Z" class="stroke6"/>
    <path d="M 559 266 Q 569 251 639 238 Q 675 231 675 194 Q 672 185 669 168 Q 645 78 603 35 Q 596 28 585 26 Q 573 20 536 38 Q 499 60 494 54 Q 487 45 504 31 Q 540 -9 544 -47 Q 547 -65 559 -72 Q 572 -79 609 -61 Q 663 -25 705 88 Q 714 154 752 185 Q 765 189 767 200 Q 770 210 746 237 Q 713 271 654 272 Q 600 282 577 291 C 549 300 535 283 559 266 Z" class="stroke7"/>
    <path d="M 577 291 Q 581 297 587 302 Q 597 309 592 321 Q 592 322 557 357 C 536 378 520 381 517 351 Q 508 224 366 111 Q 360 108 355 103 Q 313 69 215 13 Q 206 7 212 3 Q 219 -1 230 2 Q 387 41 494 171 Q 522 207 552 255 Q 555 261 559 266 L 577 291 Z" class="stroke8"/>
    
    
    
    
    
    
    
    </g>
</svg>