<svg version="1.1" viewBox="0 0 1024 1024" xmlns="http://www.w3.org/2000/svg">
  
  <g transform="scale(1, -1) translate(0, -900)">
    <style type="text/css">
        .stroke1 {fill: #808080;}
        .stroke2 {fill: #808079;}
        .stroke3 {fill: #808078;}
        .stroke4 {fill: #808077;}
        .stroke5 {fill: #808076;}
        .stroke6 {fill: #808075;}
        .stroke7 {fill: #808074;}
        .stroke8 {fill: #808073;}
        .stroke9 {fill: #808072;}
        .stroke10 {fill: #808071;}
        .stroke11 {fill: #808070;}
        .stroke12 {fill: #808069;}
        .stroke13 {fill: #808068;}
        .stroke14 {fill: #808067;}
        .stroke15 {fill: #808066;}
        .stroke16 {fill: #808065;}
        .stroke17 {fill: #808064;}
        .stroke18 {fill: #808063;}
        .stroke19 {fill: #808062;}
        .stroke20 {fill: #808061;}
        text {
            font-family: Helvetica;
            font-size: 50px;
            fill: #808060;
            paint-order: stroke;
            stroke: #000000;
            stroke-width: 4px;
            stroke-linecap: butt;
            stroke-linejoin: miter;
            font-weight: 800;
        }
    </style>

    <path d="M 319 535 Q 341 544 367 551 Q 401 564 406 569 Q 413 578 408 585 Q 401 595 371 599 Q 344 602 320 590 L 269 566 Q 170 533 133 525 Q 99 515 125 502 Q 162 486 236 509 Q 251 515 269 518 L 319 535 Z" class="stroke1"/>
    <path d="M 267 320 Q 266 230 265 117 Q 265 95 252 85 Q 248 82 181 91 Q 148 103 151 93 Q 152 86 172 71 Q 233 22 249 -5 Q 267 -38 282 -39 Q 297 -40 311 -5 Q 329 41 326 114 Q 319 240 317 365 L 317 397 Q 316 466 319 535 L 320 590 Q 320 594 321 596 Q 325 683 338 729 Q 356 759 300 781 Q 266 800 247 793 Q 229 786 245 763 Q 267 736 268 702 Q 269 686 269 566 L 269 518 Q 268 454 267 364 L 267 320 Z" class="stroke2"/>
    <path d="M 267 364 Q 75 238 72 236 Q 57 236 53 220 Q 53 211 67 199 Q 86 186 109 179 Q 125 176 134 188 Q 176 242 267 320 L 317 365 Q 375 419 377 420 Q 383 433 372 432 Q 362 431 317 397 L 267 364 Z" class="stroke3"/>
    <path d="M 541 572 Q 563 603 602 684 Q 612 705 633 741 Q 640 753 634 765 Q 627 779 599 794 Q 571 809 553 806 Q 535 802 546 782 Q 571 739 506 599 Q 462 503 430 458 Q 423 448 421 441 Q 420 431 432 434 Q 466 449 527 549 Q 527 550 528 551 L 541 572 Z" class="stroke4"/>
    <path d="M 528 551 Q 582 528 651 545 Q 727 564 808 585 Q 847 595 852 601 Q 862 611 856 619 Q 846 634 816 638 Q 813 638 697 608 Q 596 586 544 573 C 515 566 496 563 528 551 Z" class="stroke5"/>
    <path d="M 433 365 Q 420 362 417 354 Q 416 347 424 343 Q 458 339 515 358 Q 599 397 606 384 Q 612 374 599 357 Q 467 159 475 67 Q 479 31 506 9 Q 569 -48 736 -46 Q 824 -45 928 0 Q 961 16 951 41 Q 926 99 907 196 Q 901 209 894 209 Q 888 209 884 192 Q 880 158 874 121 Q 867 67 828 45 Q 788 24 696 23 Q 605 22 570 39 Q 539 55 529 86 Q 507 161 628 312 Q 665 358 703 381 Q 728 394 718 407 Q 709 422 658 446 Q 637 456 611 441 Q 518 386 433 365 Z" class="stroke6"/>
    
    
    
    
    
    </g>
</svg>