<svg version="1.1" viewBox="0 0 1024 1024" xmlns="http://www.w3.org/2000/svg">
  
  <g transform="scale(1, -1) translate(0, -900)">
    <style type="text/css">
        .stroke1 {fill: #808080;}
        .stroke2 {fill: #808079;}
        .stroke3 {fill: #808078;}
        .stroke4 {fill: #808077;}
        .stroke5 {fill: #808076;}
        .stroke6 {fill: #808075;}
        .stroke7 {fill: #808074;}
        .stroke8 {fill: #808073;}
        .stroke9 {fill: #808072;}
        .stroke10 {fill: #808071;}
        .stroke11 {fill: #808070;}
        .stroke12 {fill: #808069;}
        .stroke13 {fill: #808068;}
        .stroke14 {fill: #808067;}
        .stroke15 {fill: #808066;}
        .stroke16 {fill: #808065;}
        .stroke17 {fill: #808064;}
        .stroke18 {fill: #808063;}
        .stroke19 {fill: #808062;}
        .stroke20 {fill: #808061;}
        text {
            font-family: Helvetica;
            font-size: 50px;
            fill: #808060;
            paint-order: stroke;
            stroke: #000000;
            stroke-width: 4px;
            stroke-linecap: butt;
            stroke-linejoin: miter;
            font-weight: 800;
        }
    </style>

    <path d="M 308 507 Q 324 513 341 517 Q 372 527 377 531 Q 386 540 380 548 Q 373 560 342 565 Q 326 568 310 564 L 262 546 Q 192 519 115 507 Q 78 498 106 483 Q 154 462 206 479 Q 234 486 262 495 L 308 507 Z" class="stroke1"/>
    <path d="M 316 92 Q 316 110 316 127 Q 309 241 307 354 L 307 386 Q 306 447 308 507 L 310 564 Q 310 678 329 739 Q 345 767 292 789 Q 261 807 241 800 Q 225 794 240 772 Q 259 747 262 714 Q 263 696 262 546 L 262 495 Q 261 437 260 359 L 259 316 Q 258 234 258 131 Q 258 109 245 99 Q 236 93 214 100 Q 189 106 164 111 Q 133 123 135 113 Q 136 106 156 92 Q 220 43 238 14 Q 257 -19 274 -20 Q 287 -21 302 13 Q 311 38 314 73 L 316 92 Z" class="stroke2"/>
    <path d="M 307 354 Q 326 370 345 383 Q 364 395 373 408 Q 379 421 368 420 Q 356 420 307 386 L 260 359 Q 67 250 64 248 Q 49 242 47 234 Q 46 225 60 212 Q 79 197 101 190 Q 110 187 140 211 Q 192 268 259 316 L 307 354 Z" class="stroke3"/>
    <path d="M 588 604 Q 633 628 669 653 Q 714 680 753 694 Q 771 698 774 707 Q 775 719 761 729 Q 736 742 687 752 Q 669 758 656 754 Q 649 748 650 737 Q 651 703 487 581 C 463 563 480 551 507 565 Q 526 575 555 589 L 588 604 Z" class="stroke4"/>
    <path d="M 487 581 Q 447 599 435 596 Q 416 592 432 572 Q 462 524 447 337 Q 440 288 417 231 Q 395 171 316 92 C 295 71 293 69 314 73 Q 313 73 316 73 Q 355 77 411 142 Q 477 221 492 336 Q 502 411 504 521 Q 507 540 508 550 Q 509 559 507 565 C 507 573 507 573 487 581 Z" class="stroke5"/>
    <path d="M 612 529 Q 615 584 611 588 Q 599 598 588 604 C 563 620 546 618 555 589 Q 582 519 565 219 Q 558 105 551 86 Q 542 46 585 -13 Q 589 -19 596 -22 Q 606 -23 612 -10 Q 622 21 619 50 Q 607 372 611 503 L 612 529 Z" class="stroke6"/>
    <path d="M 611 503 Q 633 481 647 451 Q 783 169 817 156 Q 887 140 959 141 Q 975 140 982 146 Q 986 152 978 158 Q 828 248 773 327 Q 721 396 657 504 Q 644 535 612 529 C 588 529 591 525 611 503 Z" class="stroke7"/>
    
    
    
    
    
    
    </g>
</svg>