<svg version="1.1" viewBox="0 0 1024 1024" xmlns="http://www.w3.org/2000/svg">
  
  <g transform="scale(1, -1) translate(0, -900)">
    <style type="text/css">
        .stroke1 {fill: #808080;}
        .stroke2 {fill: #808079;}
        .stroke3 {fill: #808078;}
        .stroke4 {fill: #808077;}
        .stroke5 {fill: #808076;}
        .stroke6 {fill: #808075;}
        .stroke7 {fill: #808074;}
        .stroke8 {fill: #808073;}
        .stroke9 {fill: #808072;}
        .stroke10 {fill: #808071;}
        .stroke11 {fill: #808070;}
        .stroke12 {fill: #808069;}
        .stroke13 {fill: #808068;}
        .stroke14 {fill: #808067;}
        .stroke15 {fill: #808066;}
        .stroke16 {fill: #808065;}
        .stroke17 {fill: #808064;}
        .stroke18 {fill: #808063;}
        .stroke19 {fill: #808062;}
        .stroke20 {fill: #808061;}
        text {
            font-family: Helvetica;
            font-size: 50px;
            fill: #808060;
            paint-order: stroke;
            stroke: #000000;
            stroke-width: 4px;
            stroke-linecap: butt;
            stroke-linejoin: miter;
            font-weight: 800;
        }
    </style>

    <path d="M 327 529 Q 414 556 417 559 Q 426 568 420 576 Q 413 588 382 593 Q 354 597 329 585 L 279 565 Q 191 538 143 531 Q 106 522 134 507 Q 177 489 254 509 Q 264 512 278 515 L 327 529 Z" class="stroke1"/>
    <path d="M 273 332 Q 272 250 270 149 Q 269 127 257 117 Q 254 116 193 119 Q 160 131 163 121 Q 164 114 184 99 Q 241 53 255 26 Q 271 -5 286 -7 Q 301 -8 315 27 Q 333 72 331 146 Q 325 257 324 367 L 324 399 Q 324 465 327 529 L 329 585 Q 329 682 350 752 Q 366 783 312 805 Q 278 824 259 817 Q 241 811 257 788 Q 279 761 279 727 Q 280 711 279 565 L 278 515 Q 277 454 274 373 L 273 332 Z" class="stroke2"/>
    <path d="M 274 373 Q 72 268 57 261 Q 39 261 36 247 Q 35 238 48 224 Q 66 208 88 200 Q 103 196 113 207 Q 197 280 273 332 L 324 367 Q 343 382 364 394 Q 386 406 396 420 Q 403 433 393 433 Q 384 433 324 399 L 274 373 Z" class="stroke3"/>
    <path d="M 520 619 Q 548 604 579 586 Q 594 577 607 581 Q 616 584 617 596 Q 618 609 605 633 Q 590 658 506 658 Q 493 658 487 655 Q 484 651 488 640 Q 492 631 520 619 Z" class="stroke4"/>
    <path d="M 504 480 Q 531 464 561 443 Q 574 434 589 437 Q 599 438 601 452 Q 602 465 590 491 Q 575 518 491 522 Q 476 522 471 519 Q 467 515 471 503 Q 475 494 504 480 Z" class="stroke5"/>
    <path d="M 732 355 Q 846 364 962 372 Q 974 375 978 382 Q 982 395 964 408 Q 901 451 851 432 Q 800 419 732 402 L 678 391 Q 665 390 652 386 Q 531 362 388 336 Q 366 333 383 315 Q 419 285 459 298 Q 565 334 677 348 L 732 355 Z" class="stroke6"/>
    <path d="M 677 348 Q 677 3 678 -11 Q 678 -59 692 -80 Q 707 -96 716 -74 Q 731 -38 732 355 L 732 402 Q 733 612 739 708 Q 740 744 759 774 Q 766 790 745 807 Q 720 826 675 838 Q 654 844 641 829 Q 631 820 644 808 Q 675 781 678 744 Q 678 629 678 391 L 677 348 Z" class="stroke7"/>
    
    
    
    
    
    
    </g>
</svg>