<svg version="1.1" viewBox="0 0 1024 1024" xmlns="http://www.w3.org/2000/svg">
  
  <g transform="scale(1, -1) translate(0, -900)">
    <style type="text/css">
        .stroke1 {fill: #808080;}
        .stroke2 {fill: #808079;}
        .stroke3 {fill: #808078;}
        .stroke4 {fill: #808077;}
        .stroke5 {fill: #808076;}
        .stroke6 {fill: #808075;}
        .stroke7 {fill: #808074;}
        .stroke8 {fill: #808073;}
        .stroke9 {fill: #808072;}
        .stroke10 {fill: #808071;}
        .stroke11 {fill: #808070;}
        .stroke12 {fill: #808069;}
        .stroke13 {fill: #808068;}
        .stroke14 {fill: #808067;}
        .stroke15 {fill: #808066;}
        .stroke16 {fill: #808065;}
        .stroke17 {fill: #808064;}
        .stroke18 {fill: #808063;}
        .stroke19 {fill: #808062;}
        .stroke20 {fill: #808061;}
        text {
            font-family: Helvetica;
            font-size: 50px;
            fill: #808060;
            paint-order: stroke;
            stroke: #000000;
            stroke-width: 4px;
            stroke-linecap: butt;
            stroke-linejoin: miter;
            font-weight: 800;
        }
    </style>

    <path d="M 323 556 Q 390 574 396 579 Q 405 588 400 596 Q 393 608 362 614 Q 343 618 325 613 L 274 595 Q 193 570 120 558 Q 83 551 110 535 Q 155 511 211 528 Q 239 535 273 543 L 323 556 Z" class="stroke1"/>
    <path d="M 272 367 Q 271 271 270 147 Q 269 125 257 116 Q 250 109 228 114 Q 204 118 181 120 Q 148 130 151 120 Q 152 113 173 100 Q 237 54 254 26 Q 273 -5 289 -6 Q 302 -7 317 28 Q 333 73 330 146 Q 321 276 321 407 L 321 439 Q 320 497 323 556 L 325 613 Q 329 694 342 737 Q 360 767 304 789 Q 270 808 251 801 Q 233 794 249 771 Q 271 744 272 710 Q 273 697 274 595 L 273 543 Q 273 488 272 411 L 272 367 Z" class="stroke2"/>
    <path d="M 272 411 Q 196 368 129 325 Q 95 304 72 297 Q 59 291 57 283 Q 56 273 71 260 Q 90 244 114 237 Q 126 234 146 252 Q 182 294 272 367 L 321 407 Q 333 417 346 427 Q 364 439 373 452 Q 379 465 368 464 Q 352 463 321 439 L 272 411 Z" class="stroke3"/>
    <path d="M 734 617 Q 652 607 564 587 Q 554 583 550 587 Q 549 590 554 600 Q 654 745 677 769 Q 689 779 682 791 Q 675 804 628 825 Q 612 832 602 828 Q 590 822 596 802 Q 614 744 512 613 Q 493 594 464 573 Q 451 561 454 550 Q 458 534 484 514 Q 494 504 508 514 Q 563 553 755 593 C 784 599 764 621 734 617 Z" class="stroke4"/>
    <path d="M 755 593 Q 770 577 786 557 Q 796 544 812 542 Q 822 541 829 553 Q 836 566 831 596 Q 824 635 725 675 Q 710 681 704 679 Q 700 676 699 663 Q 699 662 734 617 L 755 593 Z" class="stroke5"/>
    <path d="M 755 366 Q 819 372 903 374 Q 966 374 972 384 Q 978 397 961 410 Q 901 449 843 430 Q 803 423 756 411 L 705 400 Q 675 397 568 377 L 515 368 Q 448 359 376 347 Q 355 344 371 327 Q 401 300 441 309 Q 475 321 515 329 L 565 340 Q 626 353 706 361 L 755 366 Z" class="stroke6"/>
    <path d="M 568 377 Q 568 380 569 381 Q 569 406 577 429 Q 584 445 568 452 Q 523 476 500 466 Q 488 462 496 448 Q 508 433 514 381 Q 514 375 515 368 L 515 329 Q 506 203 405 101 Q 396 94 389 85 Q 379 75 390 75 Q 441 81 494 146 Q 563 221 565 340 L 568 377 Z" class="stroke7"/>
    <path d="M 706 361 Q 706 123 688 67 Q 675 12 732 -47 Q 733 -48 736 -50 Q 749 -51 754 -38 Q 760 -17 761 71 Q 755 207 755 366 L 756 411 Q 757 445 761 465 Q 764 478 756 485 Q 731 506 711 516 Q 698 520 688 511 Q 682 507 690 497 Q 699 482 705 400 L 706 361 Z" class="stroke8"/>
    
    
    
    
    
    
    
    </g>
</svg>