<svg version="1.1" viewBox="0 0 1024 1024" xmlns="http://www.w3.org/2000/svg">
  
  <g transform="scale(1, -1) translate(0, -900)">
    <style type="text/css">
        .stroke1 {fill: #808080;}
        .stroke2 {fill: #808079;}
        .stroke3 {fill: #808078;}
        .stroke4 {fill: #808077;}
        .stroke5 {fill: #808076;}
        .stroke6 {fill: #808075;}
        .stroke7 {fill: #808074;}
        .stroke8 {fill: #808073;}
        .stroke9 {fill: #808072;}
        .stroke10 {fill: #808071;}
        .stroke11 {fill: #808070;}
        .stroke12 {fill: #808069;}
        .stroke13 {fill: #808068;}
        .stroke14 {fill: #808067;}
        .stroke15 {fill: #808066;}
        .stroke16 {fill: #808065;}
        .stroke17 {fill: #808064;}
        .stroke18 {fill: #808063;}
        .stroke19 {fill: #808062;}
        .stroke20 {fill: #808061;}
        text {
            font-family: Helvetica;
            font-size: 50px;
            fill: #808060;
            paint-order: stroke;
            stroke: #000000;
            stroke-width: 4px;
            stroke-linecap: butt;
            stroke-linejoin: miter;
            font-weight: 800;
        }
    </style>

    <path d="M 319 511 Q 394 535 397 539 Q 406 548 400 556 Q 393 568 362 572 Q 340 575 321 569 L 271 548 Q 184 518 122 507 Q 85 497 114 483 Q 151 467 225 484 Q 246 490 270 497 L 319 511 Z" class="stroke1"/>
    <path d="M 265 298 Q 264 216 262 114 Q 261 90 249 82 Q 243 79 181 87 Q 148 99 151 89 Q 152 82 172 67 Q 230 18 245 -9 Q 263 -40 277 -43 Q 292 -44 306 -9 Q 325 36 323 110 Q 317 225 316 339 L 316 369 Q 316 441 319 511 L 321 569 Q 321 666 342 736 Q 358 767 304 789 Q 270 808 251 801 Q 233 795 249 772 Q 271 745 271 711 Q 272 693 271 548 L 270 497 Q 269 430 266 340 L 265 298 Z" class="stroke2"/>
    <path d="M 266 340 Q 62 223 59 220 Q 44 214 42 205 Q 42 196 56 183 Q 75 170 97 162 Q 112 158 122 170 Q 197 245 265 298 L 316 339 Q 328 349 341 358 Q 360 371 369 384 Q 375 397 364 396 Q 361 396 316 369 L 266 340 Z" class="stroke3"/>
    <path d="M 645 539 Q 769 570 775 575 Q 785 584 779 592 Q 772 604 742 611 Q 709 615 648 591 L 595 575 Q 591 575 589 574 Q 535 561 473 554 Q 436 547 463 530 Q 502 509 573 525 Q 583 528 595 529 L 645 539 Z" class="stroke4"/>
    <path d="M 639 431 Q 642 486 645 539 L 648 591 Q 648 678 669 765 Q 672 777 651 791 Q 614 810 589 815 Q 573 818 564 809 Q 557 802 565 786 Q 587 755 588 732 Q 592 657 595 575 L 595 529 Q 595 478 594 422 C 593 392 637 401 639 431 Z" class="stroke5"/>
    <path d="M 616 387 Q 725 409 856 410 Q 877 410 881 419 Q 885 431 869 442 Q 814 479 769 462 Q 717 449 639 431 L 594 422 Q 504 404 402 385 Q 383 382 398 367 Q 426 342 464 352 Q 515 368 574 380 L 616 387 Z" class="stroke6"/>
    <path d="M 648 221 Q 660 225 770 242 Q 780 241 790 254 Q 790 266 767 275 Q 734 300 655 268 Q 652 268 651 267 L 591 253 Q 567 250 447 229 Q 419 225 441 208 Q 477 184 514 193 Q 548 202 592 210 L 648 221 Z" class="stroke7"/>
    <path d="M 642 88 Q 645 161 648 221 L 651 267 Q 652 286 653 304 Q 657 352 652 359 Q 634 377 616 387 C 590 403 564 408 574 380 Q 587 346 591 275 Q 590 266 591 253 L 592 210 Q 592 158 592 80 C 592 50 641 58 642 88 Z" class="stroke8"/>
    <path d="M 592 80 Q 483 65 357 48 Q 335 45 352 27 Q 367 12 386 7 Q 408 1 426 6 Q 588 52 897 52 Q 919 52 924 61 Q 930 74 912 89 Q 849 134 796 117 Q 733 105 642 88 L 592 80 Z" class="stroke9"/>
    
    
    
    
    
    
    
    
    </g>
</svg>