<svg version="1.1" viewBox="0 0 1024 1024" xmlns="http://www.w3.org/2000/svg">
  
  <g transform="scale(1, -1) translate(0, -900)">
    <style type="text/css">
        .stroke1 {fill: #808080;}
        .stroke2 {fill: #808079;}
        .stroke3 {fill: #808078;}
        .stroke4 {fill: #808077;}
        .stroke5 {fill: #808076;}
        .stroke6 {fill: #808075;}
        .stroke7 {fill: #808074;}
        .stroke8 {fill: #808073;}
        .stroke9 {fill: #808072;}
        .stroke10 {fill: #808071;}
        .stroke11 {fill: #808070;}
        .stroke12 {fill: #808069;}
        .stroke13 {fill: #808068;}
        .stroke14 {fill: #808067;}
        .stroke15 {fill: #808066;}
        .stroke16 {fill: #808065;}
        .stroke17 {fill: #808064;}
        .stroke18 {fill: #808063;}
        .stroke19 {fill: #808062;}
        .stroke20 {fill: #808061;}
        text {
            font-family: Helvetica;
            font-size: 50px;
            fill: #808060;
            paint-order: stroke;
            stroke: #000000;
            stroke-width: 4px;
            stroke-linecap: butt;
            stroke-linejoin: miter;
            font-weight: 800;
        }
    </style>

    <path d="M 332 550 Q 347 556 363 559 Q 393 568 397 573 Q 404 580 400 589 Q 393 599 363 605 Q 347 606 333 602 L 285 585 Q 182 555 146 549 Q 112 540 138 526 Q 183 508 236 524 Q 258 531 284 537 L 332 550 Z" class="stroke1"/>
    <path d="M 281 371 Q 280 280 277 161 Q 276 139 264 130 Q 260 127 195 145 Q 165 158 167 149 Q 168 142 185 126 Q 243 74 257 44 Q 273 10 288 8 Q 301 7 317 40 Q 336 83 337 154 Q 330 283 329 410 L 329 443 Q 329 498 332 550 L 333 602 Q 334 612 335 623 Q 339 707 353 751 Q 369 779 316 801 Q 285 819 265 813 Q 249 806 263 785 Q 284 758 285 726 Q 286 710 285 585 L 284 537 Q 283 483 281 413 L 281 371 Z" class="stroke2"/>
    <path d="M 281 413 Q 80 284 65 277 Q 50 277 46 261 Q 45 252 60 239 Q 79 226 101 218 Q 117 215 126 227 Q 187 293 281 371 L 329 410 Q 348 428 370 442 Q 391 457 401 472 Q 407 485 396 484 Q 378 480 329 443 L 281 413 Z" class="stroke3"/>
    <path d="M 557 774 Q 590 753 624 728 Q 640 718 655 720 Q 665 721 669 736 Q 672 752 658 780 Q 649 799 616 810 Q 534 828 524 819 Q 520 815 522 802 Q 528 792 557 774 Z" class="stroke4"/>
    <path d="M 690 625 Q 694 628 810 647 Q 820 646 830 660 Q 831 673 806 682 Q 770 703 713 681 Q 617 656 463 626 Q 433 622 457 604 Q 494 580 522 587 Q 576 602 643 615 L 690 625 Z" class="stroke5"/>
    <path d="M 657 451 Q 679 488 694 530 Q 707 572 718 583 Q 728 595 720 604 Q 711 617 690 625 C 663 638 635 644 643 615 Q 661 567 617 478 L 599 450 Q 547 383 402 339 Q 389 336 376 332 Q 360 325 378 321 Q 493 308 580 365 Q 611 387 635 418 L 657 451 Z" class="stroke6"/>
    <path d="M 635 418 Q 692 361 774 311 Q 786 305 804 307 Q 880 314 940 332 Q 971 341 967 349 Q 966 353 934 359 Q 769 380 661 449 Q 658 450 657 451 L 617 478 Q 589 500 557 526 Q 523 554 493 551 Q 477 550 475 546 Q 474 540 489 532 Q 514 520 532 504 Q 563 482 599 450 L 635 418 Z" class="stroke7"/>
    <path d="M 497 289 Q 521 259 506 169 Q 485 88 410 29 Q 400 20 411 19 Q 453 19 499 68 Q 550 117 559 196 Q 568 253 573 265 Q 580 281 566 287 Q 523 314 502 305 Q 492 301 497 289 Z" class="stroke8"/>
    <path d="M 662 323 Q 680 290 665 113 Q 664 107 663 99 Q 663 83 660 74 Q 650 35 693 -25 Q 697 -31 704 -34 Q 714 -35 720 -23 Q 726 -5 727 63 Q 721 240 727 294 Q 728 306 722 311 Q 700 330 680 340 Q 670 344 660 336 Q 654 332 662 323 Z" class="stroke9"/>
    
    
    
    
    
    
    
    
    </g>
</svg>