<svg version="1.1" viewBox="0 0 1024 1024" xmlns="http://www.w3.org/2000/svg">
  
  <g transform="scale(1, -1) translate(0, -900)">
    <style type="text/css">
        .stroke1 {fill: #808080;}
        .stroke2 {fill: #808079;}
        .stroke3 {fill: #808078;}
        .stroke4 {fill: #808077;}
        .stroke5 {fill: #808076;}
        .stroke6 {fill: #808075;}
        .stroke7 {fill: #808074;}
        .stroke8 {fill: #808073;}
        .stroke9 {fill: #808072;}
        .stroke10 {fill: #808071;}
        .stroke11 {fill: #808070;}
        .stroke12 {fill: #808069;}
        .stroke13 {fill: #808068;}
        .stroke14 {fill: #808067;}
        .stroke15 {fill: #808066;}
        .stroke16 {fill: #808065;}
        .stroke17 {fill: #808064;}
        .stroke18 {fill: #808063;}
        .stroke19 {fill: #808062;}
        .stroke20 {fill: #808061;}
        text {
            font-family: Helvetica;
            font-size: 50px;
            fill: #808060;
            paint-order: stroke;
            stroke: #000000;
            stroke-width: 4px;
            stroke-linecap: butt;
            stroke-linejoin: miter;
            font-weight: 800;
        }
    </style>

    <path d="M 313 539 Q 337 548 362 554 Q 396 566 402 571 Q 409 580 404 588 Q 397 600 366 604 Q 341 607 315 597 L 265 575 Q 187 548 122 535 Q 85 525 114 511 Q 160 490 214 510 Q 238 517 264 525 L 313 539 Z" class="stroke1"/>
    <path d="M 258 326 Q 255 241 253 137 Q 252 113 239 104 Q 236 104 184 112 Q 153 128 154 117 Q 155 110 174 93 Q 225 41 236 13 Q 249 -20 262 -22 Q 277 -23 293 10 Q 314 55 315 129 Q 309 246 309 363 L 310 398 Q 309 468 313 539 L 315 597 Q 324 723 338 768 Q 354 798 300 821 Q 267 840 247 834 Q 231 827 245 804 Q 266 777 267 743 Q 268 725 265 575 L 264 525 Q 263 458 259 370 L 258 326 Z" class="stroke2"/>
    <path d="M 259 370 Q 184 333 119 295 Q 85 277 63 272 Q 50 266 48 259 Q 47 250 60 236 Q 78 221 100 212 Q 109 209 145 236 Q 212 296 258 326 L 309 363 Q 334 382 362 399 Q 381 411 392 424 Q 399 437 389 436 Q 379 436 310 398 L 259 370 Z" class="stroke3"/>
    <path d="M 535 680 Q 584 676 636 689 Q 795 735 801 741 Q 808 748 804 757 Q 797 767 767 772 Q 743 775 642 736 Q 543 712 530 709 Q 529 709 528 708 C 499 699 505 682 535 680 Z" class="stroke4"/>
    <path d="M 506 443 Q 521 525 528 644 Q 529 660 534 676 Q 535 679 535 680 C 540 700 540 700 528 708 Q 513 721 488 731 Q 469 741 458 735 Q 446 728 453 715 Q 469 694 471 630 Q 470 621 470 610 Q 470 469 434 346 Q 401 244 338 142 Q 334 135 331 129 Q 330 119 339 121 Q 373 127 442 252 Q 449 270 459 288 Q 484 348 500 418 L 506 443 Z" class="stroke5"/>
    <path d="M 557 571 Q 524 562 550 549 Q 589 530 639 548 Q 694 564 752 582 Q 777 589 781 594 Q 788 603 784 610 Q 777 620 749 624 Q 721 627 695 613 Q 667 600 634 589 Q 600 579 557 571 Z" class="stroke6"/>
    <path d="M 564 414 Q 682 450 826 477 Q 836 476 843 488 Q 843 498 822 507 Q 789 522 714 494 Q 695 490 677 483 Q 641 474 506 443 C 477 436 474 432 500 418 Q 518 409 522 403 C 523 402 535 405 564 414 Z" class="stroke7"/>
    <path d="M 592 387 Q 583 400 564 414 C 541 433 510 430 522 403 Q 541 366 539 332 Q 540 181 527 132 Q 523 101 508 84 Q 495 62 503 38 Q 515 4 533 -8 Q 543 -17 557 3 Q 591 48 707 158 Q 726 174 727 182 Q 728 195 707 183 Q 661 156 610 127 Q 591 115 583 119 Q 576 123 576 142 Q 582 316 594 364 C 597 381 597 381 592 387 Z" class="stroke8"/>
    <path d="M 711 306 Q 792 352 832 368 Q 848 371 845 381 Q 841 396 826 414 Q 810 432 791 435 Q 778 436 777 419 Q 778 398 698 318 C 677 297 685 291 711 306 Z" class="stroke9"/>
    <path d="M 698 318 Q 665 345 631 377 Q 621 390 606 390 Q 596 390 592 387 C 564 381 568 379 594 364 Q 618 352 636 330 Q 816 131 848 127 Q 890 127 968 151 Q 981 155 986 161 Q 989 168 980 170 Q 845 206 747 278 Q 729 291 711 306 L 698 318 Z" class="stroke10"/>
    
    
    
    
    
    
    
    
    
    </g>
</svg>