<svg version="1.1" viewBox="0 0 1024 1024" xmlns="http://www.w3.org/2000/svg">
  
  <g transform="scale(1, -1) translate(0, -900)">
    <style type="text/css">
        .stroke1 {fill: #808080;}
        .stroke2 {fill: #808079;}
        .stroke3 {fill: #808078;}
        .stroke4 {fill: #808077;}
        .stroke5 {fill: #808076;}
        .stroke6 {fill: #808075;}
        .stroke7 {fill: #808074;}
        .stroke8 {fill: #808073;}
        .stroke9 {fill: #808072;}
        .stroke10 {fill: #808071;}
        .stroke11 {fill: #808070;}
        .stroke12 {fill: #808069;}
        .stroke13 {fill: #808068;}
        .stroke14 {fill: #808067;}
        .stroke15 {fill: #808066;}
        .stroke16 {fill: #808065;}
        .stroke17 {fill: #808064;}
        .stroke18 {fill: #808063;}
        .stroke19 {fill: #808062;}
        .stroke20 {fill: #808061;}
        text {
            font-family: Helvetica;
            font-size: 50px;
            fill: #808060;
            paint-order: stroke;
            stroke: #000000;
            stroke-width: 4px;
            stroke-linecap: butt;
            stroke-linejoin: miter;
            font-weight: 800;
        }
    </style>

    <path d="M 324 546 Q 348 555 373 561 Q 407 571 413 577 Q 420 584 416 593 Q 409 603 379 609 Q 352 613 326 601 L 275 580 Q 190 555 134 545 Q 100 536 126 522 Q 171 501 224 519 Q 246 526 274 532 L 324 546 Z" class="stroke1"/>
    <path d="M 270 345 Q 269 261 267 157 Q 266 133 254 125 Q 248 122 192 140 Q 161 156 162 145 Q 163 138 181 120 Q 236 65 248 35 Q 261 1 277 -2 Q 292 -3 308 30 Q 329 75 331 150 Q 324 271 322 390 L 322 423 Q 322 486 324 546 L 326 601 Q 338 739 346 765 Q 364 795 308 817 Q 274 836 255 829 Q 237 823 253 800 Q 275 772 276 739 Q 277 721 275 580 L 274 532 Q 273 471 271 390 L 270 345 Z" class="stroke2"/>
    <path d="M 271 390 Q 189 338 117 287 Q 84 266 63 258 Q 51 252 50 244 Q 49 235 63 223 Q 82 210 105 203 Q 121 199 130 212 Q 169 258 270 345 L 322 390 Q 341 408 363 423 Q 384 436 393 452 Q 399 465 388 464 Q 385 464 322 423 L 271 390 Z" class="stroke3"/>
    <path d="M 524 787 Q 517 790 502 793 Q 490 797 487 792 Q 480 786 488 771 Q 516 702 530 591 Q 531 558 549 535 Q 565 514 571 529 Q 572 536 574 543 L 575 570 Q 575 585 566 649 L 561 679 Q 552 742 552 762 C 551 778 551 778 524 787 Z" class="stroke4"/>
    <path d="M 677 557 Q 696 529 713 521 Q 723 514 738 535 Q 754 565 782 723 Q 789 753 811 777 Q 823 789 812 802 Q 797 817 756 841 Q 738 848 680 830 Q 676 830 587 805 Q 554 795 524 787 C 495 779 524 752 552 762 Q 603 781 692 800 Q 711 804 720 798 Q 736 786 732 763 Q 716 654 693 586 C 684 557 672 563 677 557 Z" class="stroke5"/>
    <path d="M 566 649 Q 624 662 668 668 Q 690 672 681 685 Q 671 698 646 701 Q 610 704 561 679 C 534 666 537 642 566 649 Z" class="stroke6"/>
    <path d="M 574 543 Q 631 553 677 557 C 707 560 720 573 693 586 Q 686 590 677 591 Q 643 595 575 570 C 547 560 544 538 574 543 Z" class="stroke7"/>
    <path d="M 517 414 Q 674 456 931 457 Q 950 457 955 465 Q 959 475 945 487 Q 900 521 864 513 Q 725 483 427 440 Q 408 439 422 423 Q 435 411 451 406 Q 470 402 484 406 Q 485 407 487 406 L 517 414 Z" class="stroke8"/>
    <path d="M 515 340 Q 515 341 516 341 Q 529 359 540 366 Q 547 373 545 382 Q 539 403 517 414 C 491 429 482 434 487 406 Q 496 385 446 315 Q 422 284 390 248 Q 383 242 381 238 Q 378 231 388 232 Q 413 232 497 320 L 515 340 Z" class="stroke9"/>
    <path d="M 702 337 Q 721 349 803 349 Q 821 349 824 342 Q 830 321 808 198 Q 787 111 753 58 Q 740 39 725 36 Q 715 33 649 50 Q 639 54 639 48 Q 638 44 649 34 Q 682 -6 696 -36 Q 703 -54 714 -54 Q 750 -57 794 2 Q 836 62 890 273 Q 894 298 913 312 Q 926 324 926 332 Q 920 362 851 390 Q 829 399 746 378 Q 736 377 724 373 Q 627 352 515 340 C 485 337 468 326 497 320 Q 498 320 500 319 Q 521 313 545 314 L 581 318 Q 629 325 672 332 L 702 337 Z" class="stroke10"/>
    <path d="M 545 314 Q 551 251 421 132 Q 415 129 422 127 Q 452 127 527 192 Q 527 195 530 196 Q 554 221 592 272 Q 596 279 600 282 Q 606 285 605 292 Q 602 310 581 318 C 554 331 544 335 545 314 Z" class="stroke11"/>
    <path d="M 672 332 Q 672 331 673 327 Q 685 254 570 121 Q 567 120 566 116 Q 532 79 449 7 Q 442 3 451 0 Q 497 0 614 111 Q 621 121 631 130 Q 671 175 731 267 Q 738 279 745 284 Q 752 288 750 298 Q 749 307 737 318 Q 716 336 702 337 C 673 346 670 347 672 332 Z" class="stroke12"/>
    
    
    
    
    
    
    
    
    
    
    
    </g>
</svg>