<svg version="1.1" viewBox="0 0 1024 1024" xmlns="http://www.w3.org/2000/svg">
  
  <g transform="scale(1, -1) translate(0, -900)">
    <style type="text/css">
        .stroke1 {fill: #808080;}
        .stroke2 {fill: #808079;}
        .stroke3 {fill: #808078;}
        .stroke4 {fill: #808077;}
        .stroke5 {fill: #808076;}
        .stroke6 {fill: #808075;}
        .stroke7 {fill: #808074;}
        .stroke8 {fill: #808073;}
        .stroke9 {fill: #808072;}
        .stroke10 {fill: #808071;}
        .stroke11 {fill: #808070;}
        .stroke12 {fill: #808069;}
        .stroke13 {fill: #808068;}
        .stroke14 {fill: #808067;}
        .stroke15 {fill: #808066;}
        .stroke16 {fill: #808065;}
        .stroke17 {fill: #808064;}
        .stroke18 {fill: #808063;}
        .stroke19 {fill: #808062;}
        .stroke20 {fill: #808061;}
        text {
            font-family: Helvetica;
            font-size: 50px;
            fill: #808060;
            paint-order: stroke;
            stroke: #000000;
            stroke-width: 4px;
            stroke-linecap: butt;
            stroke-linejoin: miter;
            font-weight: 800;
        }
    </style>

    <path d="M 317 530 Q 392 554 397 557 Q 404 564 400 573 Q 393 583 363 589 Q 339 593 318 584 L 269 564 Q 199 540 130 529 Q 96 520 122 506 Q 167 485 220 503 Q 242 510 268 516 L 317 530 Z" class="stroke1"/>
    <path d="M 266 346 Q 265 252 264 134 Q 263 109 250 100 Q 249 100 196 108 Q 165 124 166 113 Q 167 106 186 89 Q 237 37 248 9 Q 261 -24 274 -26 Q 289 -27 305 6 Q 324 52 326 126 Q 319 259 316 393 L 316 428 Q 315 480 317 530 L 318 584 Q 324 729 339 777 Q 355 807 300 829 Q 266 848 247 841 Q 229 834 246 811 Q 267 784 268 750 Q 269 731 269 564 L 268 516 Q 267 461 266 392 L 266 346 Z" class="stroke2"/>
    <path d="M 266 392 Q 68 248 63 244 Q 48 244 44 227 Q 44 218 59 206 Q 80 193 102 188 Q 118 185 126 198 Q 171 258 266 346 L 316 393 Q 385 459 389 464 Q 395 477 384 475 Q 375 474 316 428 L 266 392 Z" class="stroke3"/>
    <path d="M 571 704 Q 641 800 671 823 Q 687 838 673 850 Q 657 860 630 867 Q 605 871 596 866 Q 586 862 592 851 Q 604 826 577 765 Q 564 734 550 701 Q 549 700 549 698 C 538 670 553 680 571 704 Z" class="stroke4"/>
    <path d="M 520 433 Q 520 466 520 498 L 520 523 Q 520 527 521 530 Q 520 557 520 580 L 522 604 Q 525 634 533 659 C 539 678 539 678 519 691 Q 507 700 491 706 Q 475 710 467 703 Q 463 699 469 688 Q 482 661 484 483 Q 484 398 471 344 Q 465 323 480 309 Q 499 293 518 304 C 525 307 523 343 522 373 Q 521 389 521 406 L 520 433 Z" class="stroke5"/>
    <path d="M 701 525 L 702 524 Q 706 508 720 508 Q 733 509 742 524 Q 752 534 776 587 Q 794 636 831 664 Q 850 680 835 695 Q 819 713 770 741 Q 752 753 694 734 Q 679 734 580 707 Q 574 706 571 704 L 549 698 Q 533 695 519 691 C 490 684 504 651 533 659 Q 539 660 543 661 Q 592 680 709 704 Q 730 708 738 704 Q 745 700 740 673 Q 716 579 706 559 Q 705 558 704 555 C 695 535 695 535 701 525 Z" class="stroke6"/>
    <path d="M 520 580 Q 527 580 535 581 Q 602 594 653 602 Q 672 606 665 617 Q 655 630 633 633 Q 605 634 522 604 C 494 594 490 579 520 580 Z" class="stroke7"/>
    <path d="M 520 498 Q 541 505 701 525 C 731 529 733 548 704 555 Q 686 564 520 523 C 491 516 491 490 520 498 Z" class="stroke8"/>
    <path d="M 521 406 Q 522 406 723 440 Q 745 444 737 456 Q 727 471 701 475 Q 677 478 520 433 C 491 425 491 401 521 406 Z" class="stroke9"/>
    <path d="M 518 304 Q 567 337 704 355 Q 839 377 862 360 Q 875 350 865 305 Q 855 232 842 154 Q 832 93 805 55 Q 796 45 775 49 Q 747 58 722 65 Q 707 69 707 63 Q 706 57 714 49 Q 760 -3 775 -37 Q 782 -58 802 -48 Q 869 -15 883 61 Q 905 164 920 278 Q 927 315 945 348 Q 958 364 946 377 Q 927 398 890 418 Q 868 430 840 417 Q 791 398 747 393 Q 683 386 555 362 Q 530 349 522 373 C 498 390 492 290 518 304 Z" class="stroke10"/>
    <path d="M 591 168 Q 603 243 614 272 Q 617 279 603 291 Q 578 304 561 309 Q 551 312 544 306 Q 538 300 544 290 Q 557 272 558 159 C 558 129 586 138 591 168 Z" class="stroke11"/>
    <path d="M 704 194 Q 643 184 591 168 L 558 159 Q 509 146 467 130 Q 454 126 457 143 Q 469 215 460 227 Q 447 243 427 255 Q 417 259 408 259 Q 398 255 405 238 Q 421 201 414 163 Q 410 127 395 112 Q 379 96 386 85 Q 396 72 411 63 Q 423 56 431 64 Q 470 110 668 156 Q 687 160 702 160 C 732 162 734 199 704 194 Z" class="stroke12"/>
    <path d="M 702 160 Q 706 141 714 127 Q 721 114 731 123 Q 752 142 756 215 Q 768 254 774 260 Q 781 273 772 284 Q 756 297 728 314 Q 718 320 707 315 Q 700 311 703 300 Q 709 294 716 246 Q 712 215 704 194 C 698 177 698 177 702 160 Z" class="stroke13"/>
    
    
    
    
    
    
    
    
    
    
    
    
    </g>
</svg>