<svg version="1.1" viewBox="0 0 1024 1024" xmlns="http://www.w3.org/2000/svg">
  
  <g transform="scale(1, -1) translate(0, -900)">
    <style type="text/css">
        .stroke1 {fill: #808080;}
        .stroke2 {fill: #808079;}
        .stroke3 {fill: #808078;}
        .stroke4 {fill: #808077;}
        .stroke5 {fill: #808076;}
        .stroke6 {fill: #808075;}
        .stroke7 {fill: #808074;}
        .stroke8 {fill: #808073;}
        .stroke9 {fill: #808072;}
        .stroke10 {fill: #808071;}
        .stroke11 {fill: #808070;}
        .stroke12 {fill: #808069;}
        .stroke13 {fill: #808068;}
        .stroke14 {fill: #808067;}
        .stroke15 {fill: #808066;}
        .stroke16 {fill: #808065;}
        .stroke17 {fill: #808064;}
        .stroke18 {fill: #808063;}
        .stroke19 {fill: #808062;}
        .stroke20 {fill: #808061;}
        text {
            font-family: Helvetica;
            font-size: 50px;
            fill: #808060;
            paint-order: stroke;
            stroke: #000000;
            stroke-width: 4px;
            stroke-linecap: butt;
            stroke-linejoin: miter;
            font-weight: 800;
        }
    </style>

    <path d="M 317 528 Q 342 538 373 546 Q 406 558 410 563 Q 419 573 413 580 Q 404 592 374 595 Q 346 598 319 585 L 270 563 Q 168 530 137 523 Q 101 513 130 499 Q 169 481 238 503 Q 253 509 270 513 L 317 528 Z" class="stroke1"/>
    <path d="M 268 319 Q 267 226 267 111 Q 266 86 253 76 Q 247 73 185 76 Q 152 86 155 77 Q 156 70 177 56 Q 237 10 252 -15 Q 270 -46 285 -47 Q 298 -47 313 -12 Q 329 33 326 106 Q 319 230 316 355 L 316 390 Q 315 460 317 528 L 319 585 Q 326 726 339 765 Q 355 795 300 817 Q 266 836 247 829 Q 229 822 246 799 Q 267 772 268 738 Q 269 719 270 563 L 270 513 Q 269 449 268 363 L 268 319 Z" class="stroke2"/>
    <path d="M 268 363 Q 70 252 64 249 Q 46 249 43 234 Q 42 225 56 212 Q 75 197 96 189 Q 108 186 138 211 Q 202 274 268 319 L 316 355 Q 347 380 379 400 Q 401 413 412 428 Q 419 441 408 440 Q 401 440 316 390 L 268 363 Z" class="stroke3"/>
    <path d="M 562 645 Q 596 676 619 698 Q 674 758 698 773 Q 717 786 704 801 Q 688 816 661 826 Q 636 835 624 831 Q 612 827 618 815 Q 624 793 572 702 Q 554 677 536 646 C 521 620 540 625 562 645 Z" class="stroke4"/>
    <path d="M 526 416 Q 526 452 530 490 L 531 524 Q 535 575 549 607 L 549 608 C 557 631 557 631 536 646 Q 523 656 506 664 Q 488 671 479 662 Q 473 658 481 646 Q 500 595 478 370 Q 472 340 465 310 Q 458 288 474 271 Q 492 256 521 269 C 522 269 522 309 523 339 Q 524 364 525 391 L 526 416 Z" class="stroke5"/>
    <path d="M 756 548 Q 789 612 818 629 Q 834 645 821 662 Q 806 675 758 699 Q 740 708 666 675 Q 603 654 562 645 C 527 637 495 593 549 608 Q 612 626 710 650 Q 728 654 736 648 Q 745 633 712 559 C 700 532 742 521 756 548 Z" class="stroke6"/>
    <path d="M 530 490 Q 536 489 547 491 Q 616 506 763 518 Q 773 519 775 528 Q 775 535 756 548 C 738 561 738 561 712 559 Q 705 559 699 557 Q 606 535 531 524 C 501 520 500 491 530 490 Z" class="stroke7"/>
    <path d="M 525 391 Q 535 388 551 390 Q 654 408 730 418 Q 754 422 745 436 Q 735 452 707 456 Q 679 460 526 416 C 497 408 496 397 525 391 Z" class="stroke8"/>
    <path d="M 521 269 Q 561 299 704 326 Q 842 353 862 336 Q 875 326 866 281 Q 829 88 796 45 Q 784 36 714 59 Q 696 66 694 59 Q 693 53 702 43 Q 745 -15 757 -52 Q 764 -76 785 -66 Q 857 -39 876 38 Q 903 138 924 249 Q 931 289 952 323 Q 965 341 953 354 Q 934 376 894 399 Q 870 412 840 398 Q 792 376 747 370 Q 683 360 555 330 Q 530 317 523 339 C 497 354 495 254 521 269 Z" class="stroke9"/>
    <path d="M 409 203 Q 388 148 358 97 Q 340 67 357 35 Q 364 19 384 31 Q 429 70 434 151 Q 438 181 431 203 Q 427 210 421 212 Q 414 211 409 203 Z" class="stroke10"/>
    <path d="M 484 191 Q 502 134 526 106 Q 536 99 548 106 Q 557 113 561 127 Q 561 172 508 215 L 507 216 Q 497 226 487 226 Q 483 227 480 217 Q 477 207 484 191 Z" class="stroke11"/>
    <path d="M 587 216 Q 614 156 638 136 Q 650 129 660 138 Q 667 145 670 160 Q 670 191 608 242 L 607 243 Q 595 250 587 250 Q 581 250 580 240 Q 579 230 587 216 Z" class="stroke12"/>
    <path d="M 721 224 Q 742 196 763 161 Q 772 148 785 145 Q 794 144 801 153 Q 808 165 807 191 Q 806 210 782 232 Q 757 248 727 265 Q 714 272 708 271 Q 704 268 702 257 Q 703 247 721 224 Z" class="stroke13"/>
    
    
    
    
    
    
    
    
    
    
    
    
    </g>
</svg>