<svg version="1.1" viewBox="0 0 1024 1024" xmlns="http://www.w3.org/2000/svg">
  
  <g transform="scale(1, -1) translate(0, -900)">
    <style type="text/css">
        .stroke1 {fill: #808080;}
        .stroke2 {fill: #808079;}
        .stroke3 {fill: #808078;}
        .stroke4 {fill: #808077;}
        .stroke5 {fill: #808076;}
        .stroke6 {fill: #808075;}
        .stroke7 {fill: #808074;}
        .stroke8 {fill: #808073;}
        .stroke9 {fill: #808072;}
        .stroke10 {fill: #808071;}
        .stroke11 {fill: #808070;}
        .stroke12 {fill: #808069;}
        .stroke13 {fill: #808068;}
        .stroke14 {fill: #808067;}
        .stroke15 {fill: #808066;}
        .stroke16 {fill: #808065;}
        .stroke17 {fill: #808064;}
        .stroke18 {fill: #808063;}
        .stroke19 {fill: #808062;}
        .stroke20 {fill: #808061;}
        text {
            font-family: Helvetica;
            font-size: 50px;
            fill: #808060;
            paint-order: stroke;
            stroke: #000000;
            stroke-width: 4px;
            stroke-linecap: butt;
            stroke-linejoin: miter;
            font-weight: 800;
        }
    </style>

    <path d="M 276 543 Q 289 549 307 553 Q 334 562 338 566 Q 345 575 340 582 Q 333 592 305 595 Q 292 596 278 593 L 234 576 Q 167 549 109 539 Q 76 530 101 517 Q 138 502 199 520 Q 214 526 233 529 L 276 543 Z" class="stroke1"/>
    <path d="M 228 341 Q 227 251 224 136 Q 223 114 211 105 Q 204 102 153 114 Q 125 126 127 117 Q 128 110 144 97 Q 195 51 206 25 Q 219 -3 233 -6 Q 246 -7 260 23 Q 276 63 278 128 Q 271 255 272 381 L 272 412 Q 272 479 276 543 L 278 593 Q 279 603 280 614 Q 284 690 297 731 Q 313 756 264 777 Q 234 793 218 788 Q 202 782 216 762 Q 234 738 235 708 Q 236 693 234 576 L 233 529 Q 232 468 229 384 L 228 341 Z" class="stroke2"/>
    <path d="M 229 384 Q 40 264 39 254 Q 38 247 52 234 Q 71 221 92 216 Q 101 215 120 231 Q 153 273 228 341 L 272 381 Q 320 424 325 432 Q 331 445 321 444 Q 305 441 272 412 L 229 384 Z" class="stroke3"/>
    <path d="M 381 651 Q 417 608 426 605 Q 433 604 438 613 Q 442 623 439 643 Q 438 656 420 667 Q 377 688 368 686 Q 364 685 364 675 Q 365 668 381 651 Z" class="stroke4"/>
    <path d="M 584 703 Q 572 684 548 653 Q 544 649 547 644 Q 551 643 557 645 Q 609 676 633 688 Q 645 691 643 698 Q 639 708 627 721 Q 614 734 599 736 Q 589 736 589 723 Q 590 713 584 703 Z" class="stroke5"/>
    <path d="M 514 552 Q 521 555 608 572 Q 617 572 623 583 Q 623 592 604 599 Q 582 615 516 590 L 482 580 Q 448 571 354 551 Q 332 547 350 534 Q 377 516 403 524 Q 422 531 447 536 L 514 552 Z" class="stroke6"/>
    <path d="M 481 525 Q 478 462 472 435 Q 471 426 486 389 Q 495 376 507 383 Q 516 390 517 445 Q 513 512 514 552 L 516 590 Q 519 698 542 742 Q 546 749 537 762 Q 491 798 465 790 Q 453 786 459 773 Q 486 728 482 580 L 481 525 Z" class="stroke7"/>
    <path d="M 447 536 Q 432 475 319 385 Q 309 375 319 375 Q 326 374 352 387 Q 380 400 404 422 Q 452 464 479 520 Q 480 523 481 525 C 493 553 461 584 447 536 Z" class="stroke8"/>
    <path d="M 533 500 Q 573 449 591 447 Q 600 446 605 458 Q 606 467 600 481 Q 585 506 536 519 Q 530 520 529 512 Q 528 506 533 500 Z" class="stroke9"/>
    <path d="M 579 93 Q 569 115 525 135 L 493 152 Q 466 165 448 172 Q 426 178 438 200 Q 448 234 458 257 L 471 292 Q 471 296 473 298 Q 479 317 486 331 Q 493 338 489 345 Q 485 355 451 374 Q 442 381 434 376 Q 424 373 431 361 Q 443 343 429 286 L 420 247 Q 396 175 396 171 Q 397 164 411 161 Q 441 148 466 122 L 493 97 Q 515 75 545 40 Q 564 21 577 19 Q 593 18 596 32 Q 597 47 585 77 L 579 93 Z" class="stroke10"/>
    <path d="M 525 135 Q 559 190 577 273 Q 581 289 586 297 Q 590 303 587 311 Q 583 317 560 326 Q 535 338 522 333 Q 513 329 520 316 Q 523 310 526 302 L 531 278 Q 531 208 493 152 L 466 122 Q 414 80 313 42 Q 292 35 315 31 Q 390 27 486 91 Q 489 95 493 97 L 525 135 Z" class="stroke11"/>
    <path d="M 526 302 Q 499 298 471 292 L 429 286 Q 387 282 346 274 Q 330 271 306 275 Q 296 275 293 267 Q 290 257 296 250 Q 312 235 336 217 Q 343 213 354 219 Q 385 238 420 247 L 458 257 Q 492 267 531 278 C 560 286 556 307 526 302 Z" class="stroke12"/>
    <path d="M 678 472 Q 684 487 693 502 Q 724 560 753 646 Q 763 685 778 706 Q 784 716 777 729 Q 770 739 739 754 Q 711 764 694 760 Q 678 754 689 736 Q 699 721 701 684 Q 682 558 607 402 Q 600 390 600 384 Q 599 374 611 379 Q 632 388 666 452 L 678 472 Z" class="stroke13"/>
    <path d="M 772 446 Q 904 482 908 485 Q 917 492 912 501 Q 905 511 876 517 Q 846 521 818 508 Q 788 498 756 488 Q 722 478 679 473 Q 678 473 678 472 C 649 465 641 463 666 452 Q 667 452 670 450 Q 695 440 731 438 L 772 446 Z" class="stroke14"/>
    <path d="M 751 204 Q 784 289 797 383 Q 800 405 804 414 Q 810 420 805 429 Q 793 445 772 446 C 743 452 726 455 731 438 Q 731 437 733 435 Q 748 345 718 245 L 699 204 Q 665 146 579 93 C 554 77 555 72 585 77 Q 675 89 725 160 L 751 204 Z" class="stroke15"/>
    <path d="M 725 160 Q 803 42 846 32 Q 867 29 955 32 Q 967 32 978 36 Q 985 40 976 50 Q 964 59 866 107 Q 815 131 751 204 L 718 245 Q 696 276 672 312 Q 659 334 632 342 Q 620 346 610 340 Q 604 334 612 325 Q 618 319 623 315 Q 639 305 699 204 L 725 160 Z" class="stroke16"/>
    
    
    
    
    
    
    
    
    
    
    
    
    
    
    
    </g>
</svg>