<svg version="1.1" viewBox="0 0 1024 1024" xmlns="http://www.w3.org/2000/svg">
  
  <g transform="scale(1, -1) translate(0, -900)">
    <style type="text/css">
        .stroke1 {fill: #808080;}
        .stroke2 {fill: #808079;}
        .stroke3 {fill: #808078;}
        .stroke4 {fill: #808077;}
        .stroke5 {fill: #808076;}
        .stroke6 {fill: #808075;}
        .stroke7 {fill: #808074;}
        .stroke8 {fill: #808073;}
        .stroke9 {fill: #808072;}
        .stroke10 {fill: #808071;}
        .stroke11 {fill: #808070;}
        .stroke12 {fill: #808069;}
        .stroke13 {fill: #808068;}
        .stroke14 {fill: #808067;}
        .stroke15 {fill: #808066;}
        .stroke16 {fill: #808065;}
        .stroke17 {fill: #808064;}
        .stroke18 {fill: #808063;}
        .stroke19 {fill: #808062;}
        .stroke20 {fill: #808061;}
        text {
            font-family: Helvetica;
            font-size: 50px;
            fill: #808060;
            paint-order: stroke;
            stroke: #000000;
            stroke-width: 4px;
            stroke-linecap: butt;
            stroke-linejoin: miter;
            font-weight: 800;
        }
    </style>

    <path d="M 279 572 Q 339 593 341 593 Q 348 600 344 609 Q 337 619 307 625 Q 294 626 280 624 L 234 608 Q 165 584 98 573 Q 64 564 90 550 Q 135 529 188 547 Q 207 554 234 559 L 279 572 Z" class="stroke1"/>
    <path d="M 230 370 Q 229 286 228 180 Q 227 158 215 149 Q 206 143 147 156 Q 116 166 119 157 Q 120 150 139 137 Q 196 92 211 66 Q 227 36 242 35 Q 255 34 268 66 Q 284 108 283 175 Q 276 293 276 409 L 276 438 Q 276 505 279 572 L 280 624 Q 296 763 299 769 Q 315 797 264 817 Q 233 835 216 828 Q 200 822 214 801 Q 233 776 234 745 Q 235 729 234 608 L 234 559 Q 233 496 231 411 L 230 370 Z" class="stroke2"/>
    <path d="M 231 411 Q 161 371 100 330 Q 69 311 49 305 Q 37 299 36 291 Q 35 284 48 271 Q 67 258 88 251 Q 101 247 111 259 Q 168 322 230 370 L 276 409 Q 322 451 325 453 Q 331 465 321 464 Q 309 464 276 438 L 231 411 Z" class="stroke3"/>
    <path d="M 401 789 Q 435 726 461 723 Q 474 720 482 737 Q 485 750 478 770 Q 471 785 451 794 Q 421 810 408 814 Q 399 817 397 806 Q 396 799 401 789 Z" class="stroke4"/>
    <path d="M 568 828 Q 562 813 509 729 Q 502 713 517 718 Q 637 814 646 819 Q 665 831 653 845 Q 640 860 615 870 Q 593 880 581 876 Q 569 875 575 862 Q 579 846 568 828 Z" class="stroke5"/>
    <path d="M 525 661 Q 649 694 656 699 Q 662 705 658 711 Q 654 720 631 725 Q 609 729 586 719 Q 489 682 373 664 Q 346 660 366 647 Q 396 629 441 642 Q 442 642 447 642 L 467 647 Q 482 651 499 655 L 525 661 Z" class="stroke6"/>
    <path d="M 388 569 Q 387 570 385 571 Q 367 583 356 578 Q 352 574 355 567 Q 379 479 368 406 Q 361 373 386 343 Q 393 336 400 343 Q 403 349 405 354 L 407 376 Q 407 386 406 401 Q 403 516 402 546 C 402 560 402 560 388 569 Z" class="stroke7"/>
    <path d="M 592 378 Q 593 374 597 369 Q 607 347 614 347 Q 624 348 638 372 Q 647 388 648 421 Q 641 541 662 570 Q 669 583 663 591 Q 641 610 603 625 Q 587 631 543 609 L 512 597 Q 497 594 481 589 Q 480 589 480 588 L 451 581 Q 415 574 388 569 C 359 563 372 541 402 546 Q 406 546 413 547 Q 429 553 449 558 L 478 566 Q 494 573 512 577 L 538 584 Q 550 588 562 590 Q 584 597 592 585 Q 607 567 599 521 L 599 514 Q 596 423 594 403 Q 593 402 593 400 C 591 381 591 381 592 378 Z" class="stroke8"/>
    <path d="M 447 642 Q 446 642 447 641 Q 454 607 452 585 Q 451 584 451 581 L 449 558 Q 437 494 428 469 Q 427 459 432 461 Q 445 464 461 502 Q 473 530 478 566 L 480 588 Q 480 592 481 595 Q 482 620 482 622 Q 483 632 475 642 Q 471 645 467 647 C 444 660 444 660 447 642 Z" class="stroke9"/>
    <path d="M 543 609 Q 544 622 551 637 Q 554 646 548 652 Q 541 658 525 661 C 496 668 492 668 499 655 Q 499 652 503 648 Q 512 638 512 597 L 512 577 Q 512 514 525 504 Q 532 497 570 499 Q 591 499 599 514 C 602 519 602 519 599 521 L 598 522 Q 592 528 556 527 Q 534 530 538 584 L 543 609 Z" class="stroke10"/>
    <path d="M 441 439 Q 428 435 445 423 L 553 435 Q 572 439 565 450 Q 555 462 535 464 Q 511 465 441 439 Z" class="stroke11"/>
    <path d="M 405 354 Q 411 353 419 354 Q 519 369 592 378 C 622 382 620 387 593 400 Q 586 404 577 406 Q 562 409 407 376 C 378 370 375 356 405 354 Z" class="stroke12"/>
    <path d="M 505 243 Q 565 258 642 267 Q 657 268 657 275 Q 658 287 643 294 Q 621 304 601 300 Q 552 290 515 281 L 464 270 Q 377 255 320 249 Q 310 248 306 241 Q 303 232 316 222 Q 353 198 385 210 Q 422 223 456 231 L 505 243 Z" class="stroke13"/>
    <path d="M 456 231 Q 434 147 340 88 Q 330 81 339 78 Q 402 78 462 149 L 470 161 Q 497 209 505 243 L 515 281 Q 518 299 527 314 Q 534 327 523 335 Q 486 363 466 358 Q 456 354 460 343 Q 469 322 464 270 L 456 231 Z" class="stroke14"/>
    <path d="M 546 184 Q 564 160 583 132 Q 592 119 605 116 Q 615 115 621 125 Q 628 137 626 163 Q 623 190 551 226 Q 538 232 532 231 Q 528 228 526 217 Q 527 207 546 184 Z" class="stroke15"/>
    <path d="M 746 594 Q 752 597 822 624 Q 825 625 835 621 Q 845 614 838 592 Q 817 514 799 483 Q 795 473 795 465 Q 795 453 814 443 Q 896 404 905 312 Q 905 281 891 262 Q 881 255 860 258 Q 829 264 802 267 Q 795 268 795 261 Q 796 254 811 244 Q 866 207 877 183 Q 884 170 896 169 Q 906 168 920 178 Q 957 230 961 292 Q 964 383 855 453 Q 816 474 878 555 Q 887 585 923 606 Q 950 622 926 640 Q 889 668 867 677 Q 851 683 836 673 Q 820 658 735 623 C 707 611 718 583 746 594 Z" class="stroke16"/>
    <path d="M 735 623 Q 705 644 691 646 Q 679 650 664 642 Q 655 635 663 624 Q 687 569 689 548 Q 688 547 689 543 Q 692 392 687 156 Q 684 -46 702 -73 Q 708 -80 715 -78 Q 730 -69 734 -13 Q 743 72 739 156 Q 738 187 737 527 Q 737 540 746 594 C 749 614 749 614 735 623 Z" class="stroke17"/>
    
    
    
    
    
    
    
    
    
    
    
    
    
    
    
    
    </g>
</svg>