<svg version="1.1" viewBox="0 0 1024 1024" xmlns="http://www.w3.org/2000/svg">
  
  <g transform="scale(1, -1) translate(0, -900)">
    <style type="text/css">
        .stroke1 {fill: #808080;}
        .stroke2 {fill: #808079;}
        .stroke3 {fill: #808078;}
        .stroke4 {fill: #808077;}
        .stroke5 {fill: #808076;}
        .stroke6 {fill: #808075;}
        .stroke7 {fill: #808074;}
        .stroke8 {fill: #808073;}
        .stroke9 {fill: #808072;}
        .stroke10 {fill: #808071;}
        .stroke11 {fill: #808070;}
        .stroke12 {fill: #808069;}
        .stroke13 {fill: #808068;}
        .stroke14 {fill: #808067;}
        .stroke15 {fill: #808066;}
        .stroke16 {fill: #808065;}
        .stroke17 {fill: #808064;}
        .stroke18 {fill: #808063;}
        .stroke19 {fill: #808062;}
        .stroke20 {fill: #808061;}
        text {
            font-family: Helvetica;
            font-size: 50px;
            fill: #808060;
            paint-order: stroke;
            stroke: #000000;
            stroke-width: 4px;
            stroke-linecap: butt;
            stroke-linejoin: miter;
            font-weight: 800;
        }
    </style>

    <path d="M 398 698 Q 350 542 220 346 Q 210 333 209 327 Q 206 314 221 319 Q 248 325 317 421 L 332 443 Q 336 450 343 459 Q 365 490 388 530 L 403 556 Q 472 691 486 705 Q 495 718 488 732 Q 482 745 449 766 Q 418 784 399 781 Q 378 777 390 754 Q 406 726 398 698 Z" class="stroke1"/>
    <path d="M 591 537 Q 645 552 703 564 Q 749 576 756 582 Q 766 592 760 602 Q 751 615 717 623 Q 681 630 582 593 Q 477 566 403 556 C 373 552 360 541 388 530 Q 437 508 518 522 Q 524 523 532 524 L 591 537 Z" class="stroke2"/>
    <path d="M 466 229 Q 399 142 279 97 Q 246 87 206 75 Q 191 72 187 69 Q 181 65 197 59 Q 251 44 378 89 Q 453 119 498 184 L 528 234 Q 529 238 532 241 Q 566 313 596 428 Q 603 456 621 489 Q 628 499 621 510 Q 611 523 591 537 C 567 555 523 553 532 524 Q 562 455 491 274 L 466 229 Z" class="stroke3"/>
    <path d="M 317 421 Q 369 379 466 229 L 498 184 Q 541 126 597 62 Q 615 40 646 35 Q 743 22 822 24 Q 864 25 862 36 Q 859 42 672 123 Q 599 163 528 234 L 491 274 Q 442 329 394 394 Q 366 434 332 443 C 304 454 295 441 317 421 Z" class="stroke4"/>
    
    
    
    </g>
</svg>