<svg version="1.1" viewBox="0 0 1024 1024" xmlns="http://www.w3.org/2000/svg">
  
  <g transform="scale(1, -1) translate(0, -900)">
    <style type="text/css">
        .stroke1 {fill: #808080;}
        .stroke2 {fill: #808079;}
        .stroke3 {fill: #808078;}
        .stroke4 {fill: #808077;}
        .stroke5 {fill: #808076;}
        .stroke6 {fill: #808075;}
        .stroke7 {fill: #808074;}
        .stroke8 {fill: #808073;}
        .stroke9 {fill: #808072;}
        .stroke10 {fill: #808071;}
        .stroke11 {fill: #808070;}
        .stroke12 {fill: #808069;}
        .stroke13 {fill: #808068;}
        .stroke14 {fill: #808067;}
        .stroke15 {fill: #808066;}
        .stroke16 {fill: #808065;}
        .stroke17 {fill: #808064;}
        .stroke18 {fill: #808063;}
        .stroke19 {fill: #808062;}
        .stroke20 {fill: #808061;}
        text {
            font-family: Helvetica;
            font-size: 50px;
            fill: #808060;
            paint-order: stroke;
            stroke: #000000;
            stroke-width: 4px;
            stroke-linecap: butt;
            stroke-linejoin: miter;
            font-weight: 800;
        }
    </style>

    <path d="M 406 485 Q 433 594 471 624 Q 487 645 471 662 Q 453 675 398 697 Q 379 703 358 693 Q 324 674 290 663 Q 245 647 197 636 Q 181 633 183 623 Q 187 616 206 611 Q 231 602 265 617 Q 367 647 375 640 Q 385 630 383 607 Q 371 543 355 490 C 347 461 399 456 406 485 Z" class="stroke1"/>
    <path d="M 248 414 Q 300 433 416 456 Q 426 459 426 468 Q 426 475 406 485 C 380 499 380 499 355 490 Q 295 469 235 447 C 207 437 220 404 248 414 Z" class="stroke2"/>
    <path d="M 235 447 Q 220 457 182 467 Q 166 470 159 465 Q 152 458 163 439 Q 211 366 184 251 Q 177 212 138 167 Q 126 154 134 131 Q 143 101 158 88 Q 171 78 185 94 Q 233 154 378 277 Q 394 287 396 298 Q 399 304 391 304 Q 381 303 261 231 Q 251 225 247 229 Q 244 230 244 240 Q 245 394 248 414 C 250 439 250 439 235 447 Z" class="stroke3"/>
    <path d="M 545 539 Q 605 626 643 708 Q 658 742 672 760 Q 679 773 673 786 Q 666 799 634 818 Q 603 833 584 830 Q 565 826 576 803 Q 591 784 586 763 Q 562 645 478 497 Q 469 484 468 478 Q 467 466 481 471 L 525 514 L 545 539 Z" class="stroke4"/>
    <path d="M 680 523 Q 744 541 810 556 Q 853 569 860 575 Q 869 584 864 592 Q 857 604 826 610 Q 796 614 697 576 Q 558 543 545 539 C 516 531 497 526 525 514 Q 570 493 625 509 Q 631 512 639 511 L 680 523 Z" class="stroke5"/>
    <path d="M 659 254 Q 702 336 725 440 Q 729 464 736 475 Q 743 482 738 494 Q 723 509 680 523 C 652 533 626 538 639 511 Q 640 507 644 502 Q 684 417 619 293 L 594 254 Q 534 196 477 164 Q 432 143 362 115 Q 334 103 367 100 Q 425 97 530 141 Q 531 142 536 144 Q 575 162 627 212 L 659 254 Z" class="stroke6"/>
    <path d="M 627 212 Q 694 127 756 59 Q 775 37 805 37 Q 967 46 981 62 Q 985 69 974 74 Q 794 137 711 208 Q 686 229 659 254 L 619 293 Q 573 339 521 399 Q 508 418 488 420 Q 463 420 455 412 Q 452 406 461 401 Q 501 379 528 340 Q 561 297 594 254 L 627 212 Z" class="stroke7"/>
    
    
    
    
    
    
    </g>
</svg>