<svg version="1.1" viewBox="0 0 1024 1024" xmlns="http://www.w3.org/2000/svg">
  
  <g transform="scale(1, -1) translate(0, -900)">
    <style type="text/css">
        .stroke1 {fill: #808080;}
        .stroke2 {fill: #808079;}
        .stroke3 {fill: #808078;}
        .stroke4 {fill: #808077;}
        .stroke5 {fill: #808076;}
        .stroke6 {fill: #808075;}
        .stroke7 {fill: #808074;}
        .stroke8 {fill: #808073;}
        .stroke9 {fill: #808072;}
        .stroke10 {fill: #808071;}
        .stroke11 {fill: #808070;}
        .stroke12 {fill: #808069;}
        .stroke13 {fill: #808068;}
        .stroke14 {fill: #808067;}
        .stroke15 {fill: #808066;}
        .stroke16 {fill: #808065;}
        .stroke17 {fill: #808064;}
        .stroke18 {fill: #808063;}
        .stroke19 {fill: #808062;}
        .stroke20 {fill: #808061;}
        text {
            font-family: Helvetica;
            font-size: 50px;
            fill: #808060;
            paint-order: stroke;
            stroke: #000000;
            stroke-width: 4px;
            stroke-linecap: butt;
            stroke-linejoin: miter;
            font-weight: 800;
        }
    </style>

    <path d="M 227 720 Q 269 666 291 665 Q 303 664 309 680 Q 310 692 301 709 Q 294 722 274 729 Q 243 742 231 744 Q 222 745 222 735 Q 221 728 227 720 Z" class="stroke1"/>
    <path d="M 455 760 Q 442 739 416 706 Q 412 700 415 695 Q 421 694 427 697 Q 482 731 510 743 Q 523 747 521 755 Q 517 767 502 781 Q 489 796 471 798 Q 461 797 460 783 Q 461 773 455 760 Z" class="stroke2"/>
    <path d="M 235 616 Q 220 631 195 628 Q 185 624 190 615 Q 191 614 192 609 Q 191 608 196 602 Q 217 538 195 475 Q 177 441 207 406 Q 213 396 221 400 Q 242 418 243 529 Q 243 574 245 588 C 247 606 247 606 235 616 Z" class="stroke3"/>
    <path d="M 381 620 Q 399 624 420 628 Q 444 634 453 621 Q 468 603 460 474 Q 454 456 462 439 Q 472 418 478 419 Q 488 420 500 442 Q 509 458 509 492 Q 502 585 520 608 Q 527 621 522 630 Q 500 649 459 666 Q 446 670 427 663 Q 405 653 383 645 L 345 635 Q 336 634 328 632 Q 279 622 235 616 C 205 612 216 582 245 588 Q 248 588 252 589 Q 301 602 345 612 L 381 620 Z" class="stroke4"/>
    <path d="M 345 612 Q 345 501 335 461 Q 334 452 350 414 Q 359 399 372 407 Q 381 414 382 470 Q 376 545 381 620 L 383 645 Q 386 732 407 771 Q 413 780 402 792 Q 354 829 328 821 Q 315 817 321 804 Q 346 765 344 703 Q 344 667 345 635 L 345 612 Z" class="stroke5"/>
    <path d="M 285 557 Q 291 548 277 499 Q 268 478 252 446 Q 252 442 257 443 Q 275 449 314 523 Q 318 535 323 541 Q 327 545 324 551 Q 321 555 308 563 Q 295 569 287 568 Q 280 567 285 557 Z" class="stroke6"/>
    <path d="M 397 558 Q 418 510 432 505 Q 439 502 446 512 Q 449 519 447 532 Q 437 560 403 572 Q 399 575 396 568 Q 395 564 397 558 Z" class="stroke7"/>
    <path d="M 609 707 Q 624 726 639 750 Q 649 766 657 775 Q 664 784 659 794 Q 655 804 632 819 Q 611 832 597 830 Q 582 829 590 812 Q 602 796 571 721 Q 558 690 535 652 Q 528 643 527 639 Q 526 630 535 633 Q 554 636 597 691 L 609 707 Z" class="stroke8"/>
    <path d="M 695 683 Q 840 719 843 720 Q 850 727 847 734 Q 840 744 815 750 Q 797 753 696 722 Q 657 713 611 708 Q 608 708 609 707 C 584 701 584 701 597 691 Q 615 673 670 676 L 695 683 Z" class="stroke9"/>
    <path d="M 677 540 Q 680 544 715 606 Q 721 619 731 631 Q 741 643 731 652 Q 713 676 695 683 C 668 696 666 698 670 676 Q 682 627 643 565 L 625 540 Q 589 509 535 483 Q 523 479 532 474 Q 586 461 654 513 L 677 540 Z" class="stroke10"/>
    <path d="M 654 513 Q 661 497 746 433 Q 770 409 892 438 Q 917 444 915 451 Q 914 455 889 461 Q 867 467 844 471 Q 739 502 677 540 L 643 565 Q 583 619 557 615 Q 544 614 542 610 Q 541 606 553 598 Q 575 586 625 540 L 654 513 Z" class="stroke11"/>
    <path d="M 355 336 Q 518 372 671 386 Q 681 385 689 396 Q 690 406 670 416 Q 643 437 572 416 Q 538 410 505 401 Q 426 385 288 370 Q 263 367 282 351 Q 304 332 321 331 L 355 336 Z" class="stroke12"/>
    <path d="M 252 194 Q 288 218 318 245 L 338 264 Q 362 294 372 296 Q 378 299 377 306 Q 377 322 355 336 C 330 353 328 355 321 331 Q 302 259 174 172 Q 167 169 175 166 Q 176 166 240 187 L 252 194 Z" class="stroke13"/>
    <path d="M 318 245 Q 328 241 349 241 Q 410 245 413 238 Q 416 226 395 187 Q 376 144 321 89 Q 266 31 181 -23 Q 159 -33 177 -34 Q 289 -38 442 166 Q 461 206 488 222 Q 500 229 496 240 Q 493 250 449 276 Q 439 282 418 274 Q 391 267 338 264 C 308 262 289 251 318 245 Z" class="stroke14"/>
    <path d="M 240 187 Q 240 186 291 120 Q 298 110 310 109 Q 317 108 322 117 Q 326 127 323 147 Q 319 168 259 192 Q 255 193 252 194 C 231 200 231 200 240 187 Z" class="stroke15"/>
    <path d="M 574 174 Q 629 199 661 219 Q 719 258 757 269 Q 779 276 770 295 Q 760 314 735 330 Q 713 346 701 345 Q 688 345 691 331 Q 692 303 630 246 Q 605 224 577 198 C 555 178 547 162 574 174 Z" class="stroke16"/>
    <path d="M 577 198 Q 581 249 593 275 Q 606 305 586 322 Q 535 359 520 355 Q 505 349 513 332 Q 532 295 529 239 Q 523 62 543 27 Q 576 -33 667 -50 Q 728 -62 826 -53 Q 911 -43 942 -22 Q 972 -7 960 23 Q 945 56 934 113 Q 933 129 926 134 Q 917 140 913 119 Q 892 53 880 43 Q 870 24 835 16 Q 693 -11 619 20 Q 591 33 584 51 Q 563 108 574 174 L 577 198 Z" class="stroke17"/>
    
    
    
    
    
    
    
    
    
    
    
    
    
    
    
    
    </g>
</svg>