<svg version="1.1" viewBox="0 0 1024 1024" xmlns="http://www.w3.org/2000/svg">
  
  <g transform="scale(1, -1) translate(0, -900)">
    <style type="text/css">
        .stroke1 {fill: #808080;}
        .stroke2 {fill: #808079;}
        .stroke3 {fill: #808078;}
        .stroke4 {fill: #808077;}
        .stroke5 {fill: #808076;}
        .stroke6 {fill: #808075;}
        .stroke7 {fill: #808074;}
        .stroke8 {fill: #808073;}
        .stroke9 {fill: #808072;}
        .stroke10 {fill: #808071;}
        .stroke11 {fill: #808070;}
        .stroke12 {fill: #808069;}
        .stroke13 {fill: #808068;}
        .stroke14 {fill: #808067;}
        .stroke15 {fill: #808066;}
        .stroke16 {fill: #808065;}
        .stroke17 {fill: #808064;}
        .stroke18 {fill: #808063;}
        .stroke19 {fill: #808062;}
        .stroke20 {fill: #808061;}
        text {
            font-family: Helvetica;
            font-size: 50px;
            fill: #808060;
            paint-order: stroke;
            stroke: #000000;
            stroke-width: 4px;
            stroke-linecap: butt;
            stroke-linejoin: miter;
            font-weight: 800;
        }
    </style>

    <path d="M 299 696 Q 356 789 357 790 Q 354 796 350 801 Q 311 837 284 833 Q 272 832 274 817 Q 283 727 178 613 Q 169 610 133 568 Q 126 553 140 557 Q 191 561 278 667 L 299 696 Z" class="stroke1"/>
    <path d="M 341 547 Q 428 650 461 673 Q 479 683 467 696 Q 454 708 417 728 Q 408 731 330 705 Q 315 702 299 696 C 271 686 248 669 278 667 Q 293 664 357 677 Q 364 678 367 676 Q 370 673 366 664 Q 338 589 318 553 Q 314 546 312 540 C 300 512 322 524 341 547 Z" class="stroke2"/>
    <path d="M 191 518 Q 181 525 165 530 Q 147 539 137 533 Q 127 526 133 514 Q 175 472 143 248 Q 139 229 134 209 Q 113 128 64 36 Q 60 30 59 24 Q 58 14 66 17 Q 82 20 106 60 Q 203 187 205 416 Q 205 437 210 482 C 213 506 213 506 191 518 Z" class="stroke3"/>
    <path d="M 321 510 Q 354 519 392 526 Q 411 530 423 520 Q 433 514 436 468 Q 448 312 439 135 Q 438 108 429 101 Q 419 95 372 107 Q 357 111 358 103 Q 358 96 369 90 Q 411 48 431 18 Q 450 -1 461 2 Q 473 3 483 29 Q 499 69 500 129 Q 482 468 499 500 Q 509 519 501 530 Q 491 543 449 565 Q 433 574 415 569 Q 390 560 341 547 L 312 540 Q 251 527 191 518 C 161 513 181 473 210 482 Q 211 485 277 500 L 321 510 Z" class="stroke4"/>
    <path d="M 329 382 Q 398 401 401 404 Q 408 411 404 418 Q 397 428 371 431 Q 349 434 330 425 C 302 413 297 411 290 410 Q 289 411 287 410 Q 268 404 244 401 Q 213 392 237 380 Q 256 373 289 372 L 329 382 Z" class="stroke5"/>
    <path d="M 327 255 Q 364 262 398 266 Q 423 270 413 284 Q 403 299 375 304 Q 356 307 327 299 L 287 287 Q 250 277 219 266 Q 203 262 224 246 Q 231 240 250 243 Q 266 247 286 249 L 327 255 Z" class="stroke6"/>
    <path d="M 327 299 Q 327 335 329 382 L 330 425 Q 330 426 331 428 Q 332 447 334 457 Q 337 473 339 485 Q 342 498 331 505 Q 327 509 321 510 C 295 524 267 528 277 500 Q 289 473 290 410 L 289 372 Q 288 333 287 287 L 286 249 Q 286 84 296 66 Q 300 62 306 63 Q 315 69 322 113 Q 326 147 327 255 L 327 299 Z" class="stroke7"/>
    <path d="M 577 628 Q 599 609 622 584 Q 635 571 650 572 Q 660 572 665 585 Q 669 598 661 627 Q 657 645 630 657 Q 566 681 552 675 Q 548 671 548 659 Q 552 649 577 628 Z" class="stroke8"/>
    <path d="M 579 465 Q 625 419 642 419 Q 652 420 657 433 Q 661 446 652 475 Q 643 499 573 511 Q 558 514 552 511 Q 548 507 549 495 Q 553 485 579 465 Z" class="stroke9"/>
    <path d="M 779 342 Q 836 351 938 350 Q 956 351 960 359 Q 964 371 949 383 Q 894 420 822 397 Q 801 394 779 387 L 726 376 Q 719 376 713 374 Q 628 358 527 341 Q 508 338 522 323 Q 535 311 553 306 Q 572 302 587 307 Q 680 335 726 335 L 779 342 Z" class="stroke10"/>
    <path d="M 726 335 Q 722 -14 740 -44 Q 755 -60 764 -38 Q 782 14 779 342 L 779 387 Q 780 604 786 702 Q 787 736 805 765 Q 812 781 792 796 Q 767 815 724 827 Q 705 831 692 818 Q 682 809 694 797 Q 724 772 726 737 Q 729 407 726 376 L 726 335 Z" class="stroke11"/>
    
    
    
    
    
    
    
    
    
    
    </g>
</svg>