<svg version="1.1" viewBox="0 0 1024 1024" xmlns="http://www.w3.org/2000/svg">
  
  <g transform="scale(1, -1) translate(0, -900)">
    <style type="text/css">
        .stroke1 {fill: #808080;}
        .stroke2 {fill: #808079;}
        .stroke3 {fill: #808078;}
        .stroke4 {fill: #808077;}
        .stroke5 {fill: #808076;}
        .stroke6 {fill: #808075;}
        .stroke7 {fill: #808074;}
        .stroke8 {fill: #808073;}
        .stroke9 {fill: #808072;}
        .stroke10 {fill: #808071;}
        .stroke11 {fill: #808070;}
        .stroke12 {fill: #808069;}
        .stroke13 {fill: #808068;}
        .stroke14 {fill: #808067;}
        .stroke15 {fill: #808066;}
        .stroke16 {fill: #808065;}
        .stroke17 {fill: #808064;}
        .stroke18 {fill: #808063;}
        .stroke19 {fill: #808062;}
        .stroke20 {fill: #808061;}
        text {
            font-family: Helvetica;
            font-size: 50px;
            fill: #808060;
            paint-order: stroke;
            stroke: #000000;
            stroke-width: 4px;
            stroke-linecap: butt;
            stroke-linejoin: miter;
            font-weight: 800;
        }
    </style>

    <path d="M 281 717 Q 312 692 345 662 Q 360 649 376 650 Q 388 650 393 664 Q 397 680 387 711 Q 380 733 346 747 Q 267 774 252 767 Q 246 763 249 749 Q 253 739 281 717 Z" class="stroke1"/>
    <path d="M 294 512 Q 351 530 440 546 Q 450 546 459 560 Q 459 573 435 581 Q 399 603 331 572 Q 249 548 114 514 Q 84 507 109 492 Q 145 468 175 478 Q 212 490 258 502 L 294 512 Z" class="stroke2"/>
    <path d="M 307 403 Q 382 385 390 371 Q 405 344 348 192 Q 320 120 290 110 Q 275 104 233 124 Q 199 140 194 134 Q 190 125 205 114 Q 247 81 259 41 Q 263 25 274 19 Q 287 15 319 34 Q 356 64 393 160 Q 438 325 462 343 Q 472 347 475 356 Q 476 365 455 390 Q 425 421 370 421 Q 361 422 325 432 C 296 440 278 410 307 403 Z" class="stroke3"/>
    <path d="M 325 432 Q 329 439 334 443 Q 341 455 333 469 Q 314 502 294 512 C 269 529 252 531 258 502 Q 258 501 259 499 Q 278 430 162 268 Q 113 199 46 132 Q 40 128 39 120 Q 39 116 45 116 Q 123 129 282 358 Q 291 374 300 389 Q 304 396 307 403 L 325 432 Z" class="stroke4"/>
    <path d="M 591 628 L 611 664 Q 633 712 656 750 Q 666 765 649 779 Q 601 812 575 804 Q 563 800 567 785 Q 588 698 504 573 Q 471 534 452 505 Q 445 489 460 494 Q 502 503 575 603 L 591 628 Z" class="stroke5"/>
    <path d="M 575 603 Q 617 581 683 601 Q 747 619 818 636 Q 852 646 857 651 Q 864 660 860 668 Q 853 680 822 685 Q 795 688 704 655 Q 605 631 591 628 C 562 621 548 616 575 603 Z" class="stroke6"/>
    <path d="M 685 364 Q 793 454 829 466 Q 848 473 842 490 Q 838 506 770 540 Q 751 549 728 539 Q 673 514 589 483 Q 567 473 512 471 Q 488 470 498 451 Q 507 438 527 428 Q 558 413 591 436 Q 610 445 707 491 Q 717 498 730 493 Q 742 487 738 474 Q 705 428 668 373 C 651 348 662 345 685 364 Z" class="stroke7"/>
    <path d="M 679 248 Q 700 119 669 48 Q 656 23 621 28 Q 584 35 552 42 Q 540 45 546 34 Q 550 25 571 14 Q 617 -20 633 -47 Q 643 -65 659 -62 Q 672 -61 699 -34 Q 765 35 733 257 L 724 296 Q 714 344 685 364 L 668 373 Q 664 377 655 379 Q 634 386 624 380 Q 611 373 625 360 Q 661 333 670 289 Q 670 288 671 285 L 679 248 Z" class="stroke8"/>
    <path d="M 733 257 Q 803 267 907 271 Q 962 271 969 282 Q 973 294 957 306 Q 899 345 853 327 Q 799 314 724 296 L 671 285 Q 571 267 455 246 Q 436 243 451 227 Q 464 214 482 210 Q 503 206 518 211 Q 591 235 673 247 Q 674 248 679 248 L 733 257 Z" class="stroke9"/>
    
    
    
    
    
    
    
    
    </g>
</svg>