<svg version="1.1" viewBox="0 0 1024 1024" xmlns="http://www.w3.org/2000/svg">
  
  <g transform="scale(1, -1) translate(0, -900)">
    <style type="text/css">
        .stroke1 {fill: #808080;}
        .stroke2 {fill: #808079;}
        .stroke3 {fill: #808078;}
        .stroke4 {fill: #808077;}
        .stroke5 {fill: #808076;}
        .stroke6 {fill: #808075;}
        .stroke7 {fill: #808074;}
        .stroke8 {fill: #808073;}
        .stroke9 {fill: #808072;}
        .stroke10 {fill: #808071;}
        .stroke11 {fill: #808070;}
        .stroke12 {fill: #808069;}
        .stroke13 {fill: #808068;}
        .stroke14 {fill: #808067;}
        .stroke15 {fill: #808066;}
        .stroke16 {fill: #808065;}
        .stroke17 {fill: #808064;}
        .stroke18 {fill: #808063;}
        .stroke19 {fill: #808062;}
        .stroke20 {fill: #808061;}
        text {
            font-family: Helvetica;
            font-size: 50px;
            fill: #808060;
            paint-order: stroke;
            stroke: #000000;
            stroke-width: 4px;
            stroke-linecap: butt;
            stroke-linejoin: miter;
            font-weight: 800;
        }
    </style>

    <path d="M 296 735 Q 330 711 366 682 Q 381 670 397 672 Q 409 673 413 688 Q 416 704 404 734 Q 391 767 287 784 Q 271 787 264 783 Q 260 779 262 765 Q 266 755 296 735 Z" class="stroke1"/>
    <path d="M 305 542 Q 321 548 424 569 Q 434 568 443 582 Q 443 592 420 602 Q 378 618 296 587 Q 287 586 280 582 Q 258 576 122 545 Q 94 539 117 524 Q 150 502 189 513 Q 219 522 255 530 L 305 542 Z" class="stroke2"/>
    <path d="M 300 430 Q 312 426 342 423 Q 366 419 375 407 Q 381 400 375 363 Q 369 311 347 240 Q 326 174 298 162 Q 283 158 251 174 Q 218 190 214 186 Q 210 179 224 167 Q 260 131 268 97 Q 272 82 283 76 Q 295 72 325 91 Q 370 124 399 243 Q 420 363 445 387 Q 455 391 456 400 Q 457 409 435 430 Q 402 460 357 452 Q 347 453 332 455 Q 320 456 311 458 C 281 463 271 437 300 430 Z" class="stroke3"/>
    <path d="M 311 458 Q 320 488 333 504 Q 339 511 336 519 Q 327 537 305 542 C 277 553 249 559 255 530 Q 277 449 186 290 Q 183 287 182 284 Q 154 238 79 143 Q 73 137 82 136 Q 136 154 223 276 Q 260 342 300 430 L 311 458 Z" class="stroke4"/>
    <path d="M 541 616 Q 569 661 601 723 Q 616 757 630 774 Q 637 784 631 795 Q 627 805 599 823 Q 574 836 558 834 Q 542 830 551 812 Q 588 758 443 524 Q 436 514 434 508 Q 433 498 444 502 Q 468 508 526 594 L 541 616 Z" class="stroke5"/>
    <path d="M 686 594 Q 878 636 883 641 Q 890 648 887 657 Q 880 667 852 675 Q 831 681 726 649 Q 641 628 541 616 C 511 612 499 607 526 594 L 527 594 Q 567 570 621 582 Q 622 583 629 582 L 686 594 Z" class="stroke6"/>
    <path d="M 703 469 Q 836 497 842 502 Q 851 509 847 517 Q 840 527 814 535 Q 786 541 759 531 Q 732 522 707 514 L 651 500 Q 590 487 521 482 Q 487 476 511 461 Q 541 442 617 453 Q 633 456 651 459 L 703 469 Z" class="stroke7"/>
    <path d="M 540 361 Q 515 373 500 373 Q 488 369 493 359 Q 523 287 493 203 Q 475 166 506 131 Q 512 121 520 125 Q 547 146 548 221 Q 551 299 554 324 C 557 353 557 353 540 361 Z" class="stroke8"/>
    <path d="M 700 351 Q 739 357 778 360 Q 809 366 813 346 Q 822 213 803 188 Q 794 185 751 193 Q 736 197 733 193 Q 729 189 740 178 Q 783 139 810 110 Q 823 97 837 110 Q 870 149 867 196 Q 864 305 873 352 Q 877 371 867 381 Q 840 406 821 416 Q 808 422 799 412 Q 793 405 700 384 L 649 375 Q 609 371 540 361 C 510 357 525 317 554 324 Q 576 331 649 342 L 700 351 Z" class="stroke9"/>
    <path d="M 646 -15 Q 652 -40 658 -49 Q 664 -56 671 -54 Q 689 -42 692 13 Q 701 89 700 163 Q 697 209 700 351 L 700 384 Q 701 424 703 469 L 707 514 Q 707 515 708 515 Q 712 537 716 555 Q 719 573 705 582 Q 695 589 686 594 C 661 610 616 609 629 582 Q 650 546 651 500 L 651 459 Q 650 420 649 375 L 649 342 Q 643 15 646 -15 Z" class="stroke10"/>
    
    
    
    
    
    
    
    
    
    </g>
</svg>