<svg version="1.1" viewBox="0 0 1024 1024" xmlns="http://www.w3.org/2000/svg">
  
  <g transform="scale(1, -1) translate(0, -900)">
    <style type="text/css">
        .stroke1 {fill: #808080;}
        .stroke2 {fill: #808079;}
        .stroke3 {fill: #808078;}
        .stroke4 {fill: #808077;}
        .stroke5 {fill: #808076;}
        .stroke6 {fill: #808075;}
        .stroke7 {fill: #808074;}
        .stroke8 {fill: #808073;}
        .stroke9 {fill: #808072;}
        .stroke10 {fill: #808071;}
        .stroke11 {fill: #808070;}
        .stroke12 {fill: #808069;}
        .stroke13 {fill: #808068;}
        .stroke14 {fill: #808067;}
        .stroke15 {fill: #808066;}
        .stroke16 {fill: #808065;}
        .stroke17 {fill: #808064;}
        .stroke18 {fill: #808063;}
        .stroke19 {fill: #808062;}
        .stroke20 {fill: #808061;}
        text {
            font-family: Helvetica;
            font-size: 50px;
            fill: #808060;
            paint-order: stroke;
            stroke: #000000;
            stroke-width: 4px;
            stroke-linecap: butt;
            stroke-linejoin: miter;
            font-weight: 800;
        }
    </style>

    <path d="M 309 770 Q 302 771 294 772 Q 281 776 277 770 Q 270 763 280 745 Q 316 675 337 558 Q 341 524 362 500 Q 381 476 388 494 Q 391 504 391 519 L 390 549 Q 389 559 386 571 Q 379 602 375 626 L 369 654 Q 359 709 356 730 C 352 760 339 766 309 770 Z" class="stroke1"/>
    <path d="M 585 542 Q 601 517 616 509 Q 626 499 645 522 Q 661 546 698 680 Q 708 714 735 739 Q 750 752 737 768 Q 721 787 676 817 Q 655 827 578 809 Q 563 809 433 784 Q 342 766 309 770 C 279 771 327 722 356 730 Q 356 731 358 731 Q 442 753 591 773 Q 624 777 634 767 Q 647 751 643 735 Q 612 588 592 576 C 576 554 576 554 585 542 Z" class="stroke2"/>
    <path d="M 375 626 Q 384 632 558 656 Q 582 660 573 672 Q 563 687 537 691 Q 513 695 369 654 C 340 646 347 616 375 626 Z" class="stroke3"/>
    <path d="M 391 519 Q 400 518 412 520 Q 467 533 585 542 C 615 544 617 559 592 576 Q 591 577 588 579 Q 572 588 544 581 Q 459 560 390 549 C 360 544 361 520 391 519 Z" class="stroke4"/>
    <path d="M 487 395 Q 673 429 677 431 Q 687 438 682 448 Q 675 461 646 469 Q 615 476 512 447 Q 380 428 336 425 Q 299 421 324 402 Q 369 375 423 386 Q 426 387 431 386 L 487 395 Z" class="stroke5"/>
    <path d="M 514 256 Q 604 266 793 266 Q 814 266 819 275 Q 825 287 808 301 Q 754 341 715 333 Q 636 317 507 296 L 444 288 Q 333 275 209 259 Q 187 258 203 239 Q 218 224 236 219 Q 258 213 275 218 Q 351 239 437 248 L 514 256 Z" class="stroke6"/>
    <path d="M 507 296 Q 519 350 523 357 Q 530 364 524 375 Q 518 382 487 395 C 460 407 424 415 431 386 Q 446 326 446 308 Q 445 299 444 288 L 437 248 Q 395 124 293 59 Q 251 37 182 7 Q 154 -6 186 -8 Q 270 -11 382 59 Q 398 74 414 90 Q 462 144 493 238 L 507 296 Z" class="stroke7"/>
    <path d="M 493 238 Q 590 114 716 -19 Q 737 -41 771 -38 Q 885 -31 920 -23 Q 930 -20 932 -15 Q 932 -9 916 -2 Q 766 41 684 104 Q 603 168 514 256 C 493 277 474 262 493 238 Z" class="stroke8"/>
    
    
    
    
    
    
    
    </g>
</svg>