<svg version="1.1" viewBox="0 0 1024 1024" xmlns="http://www.w3.org/2000/svg">
  
  <g transform="scale(1, -1) translate(0, -900)">
    <style type="text/css">
        .stroke1 {fill: #808080;}
        .stroke2 {fill: #808079;}
        .stroke3 {fill: #808078;}
        .stroke4 {fill: #808077;}
        .stroke5 {fill: #808076;}
        .stroke6 {fill: #808075;}
        .stroke7 {fill: #808074;}
        .stroke8 {fill: #808073;}
        .stroke9 {fill: #808072;}
        .stroke10 {fill: #808071;}
        .stroke11 {fill: #808070;}
        .stroke12 {fill: #808069;}
        .stroke13 {fill: #808068;}
        .stroke14 {fill: #808067;}
        .stroke15 {fill: #808066;}
        .stroke16 {fill: #808065;}
        .stroke17 {fill: #808064;}
        .stroke18 {fill: #808063;}
        .stroke19 {fill: #808062;}
        .stroke20 {fill: #808061;}
        text {
            font-family: Helvetica;
            font-size: 50px;
            fill: #808060;
            paint-order: stroke;
            stroke: #000000;
            stroke-width: 4px;
            stroke-linecap: butt;
            stroke-linejoin: miter;
            font-weight: 800;
        }
    </style>

    <path d="M 177 663 Q 141 687 124 680 Q 117 676 123 663 Q 141 608 145 490 Q 139 345 133 314 Q 109 266 153 209 Q 163 196 174 209 Q 184 222 186 239 L 188 271 Q 188 283 189 441 L 190 471 Q 191 607 192 619 Q 193 632 193 640 C 193 653 193 653 177 663 Z" class="stroke1"/>
    <path d="M 297 249 Q 307 233 319 216 Q 334 194 341 196 Q 351 197 365 229 Q 371 250 373 318 Q 354 609 378 656 Q 388 672 380 683 Q 373 693 326 706 Q 304 713 288 704 Q 227 674 177 663 C 148 656 164 632 193 640 Q 194 641 197 641 Q 228 650 264 662 Q 295 672 308 663 Q 321 651 320 603 Q 324 404 316 295 Q 319 279 308 275 C 296 251 296 251 297 249 Z" class="stroke2"/>
    <path d="M 189 441 Q 247 454 293 462 Q 314 466 305 477 Q 295 490 272 492 Q 238 495 190 471 C 163 458 160 434 189 441 Z" class="stroke3"/>
    <path d="M 186 239 Q 222 246 297 249 C 327 250 330 255 308 275 Q 304 279 298 283 Q 285 290 257 285 Q 220 276 188 271 C 158 266 157 234 186 239 Z" class="stroke4"/>
    <path d="M 535 612 Q 565 663 598 726 Q 617 771 637 793 Q 644 805 639 818 Q 633 831 602 851 Q 574 867 554 864 Q 535 860 546 839 Q 591 767 392 460 Q 382 448 381 442 Q 378 430 393 434 Q 439 455 514 579 L 535 612 Z" class="stroke5"/>
    <path d="M 629 581 Q 726 602 829 623 Q 883 636 891 643 Q 900 650 895 660 Q 888 672 858 679 Q 834 685 730 652 Q 643 627 535 612 C 505 608 485 588 514 579 Q 544 567 591 573 L 629 581 Z" class="stroke6"/>
    <path d="M 647 278 Q 647 377 650 419 L 651 449 Q 654 510 660 541 Q 663 554 655 560 Q 642 573 629 581 C 605 599 583 602 591 573 Q 612 534 593 199 Q 583 88 575 68 Q 563 32 613 -45 Q 616 -48 620 -51 Q 632 -52 638 -38 Q 651 -4 648 28 Q 647 143 646 247 L 647 278 Z" class="stroke7"/>
    <path d="M 650 419 Q 689 409 729 420 Q 777 432 826 443 Q 848 449 852 453 Q 861 460 856 469 Q 849 479 820 485 Q 790 489 762 477 Q 737 467 709 460 Q 681 454 651 449 C 621 444 621 426 650 419 Z" class="stroke8"/>
    <path d="M 646 247 Q 674 237 746 247 Q 867 271 875 275 Q 884 282 879 292 Q 872 304 842 311 Q 811 318 780 305 Q 752 295 719 288 Q 685 282 647 278 C 617 275 617 255 646 247 Z" class="stroke9"/>
    
    
    
    
    
    
    
    
    </g>
</svg>