<svg version="1.1" viewBox="0 0 1024 1024" xmlns="http://www.w3.org/2000/svg">
  
  <g transform="scale(1, -1) translate(0, -900)">
    <style type="text/css">
        .stroke1 {fill: #808080;}
        .stroke2 {fill: #808079;}
        .stroke3 {fill: #808078;}
        .stroke4 {fill: #808077;}
        .stroke5 {fill: #808076;}
        .stroke6 {fill: #808075;}
        .stroke7 {fill: #808074;}
        .stroke8 {fill: #808073;}
        .stroke9 {fill: #808072;}
        .stroke10 {fill: #808071;}
        .stroke11 {fill: #808070;}
        .stroke12 {fill: #808069;}
        .stroke13 {fill: #808068;}
        .stroke14 {fill: #808067;}
        .stroke15 {fill: #808066;}
        .stroke16 {fill: #808065;}
        .stroke17 {fill: #808064;}
        .stroke18 {fill: #808063;}
        .stroke19 {fill: #808062;}
        .stroke20 {fill: #808061;}
        text {
            font-family: Helvetica;
            font-size: 50px;
            fill: #808060;
            paint-order: stroke;
            stroke: #000000;
            stroke-width: 4px;
            stroke-linecap: butt;
            stroke-linejoin: miter;
            font-weight: 800;
        }
    </style>

    <path d="M 398 390 Q 410 502 412 535 L 414 566 Q 417 717 420 735 C 422 758 422 758 405 766 Q 405 767 404 767 Q 353 791 337 787 Q 316 783 334 760 Q 373 697 357 455 Q 353 356 304 239 Q 271 154 155 37 Q 140 24 137 16 Q 136 9 148 10 Q 164 11 186 26 Q 246 69 281 112 Q 333 173 363 244 Q 382 296 394 361 L 398 390 Z" class="stroke1"/>
    <path d="M 420 735 Q 429 735 609 769 Q 631 773 637 762 Q 656 713 657 390 Q 657 128 640 101 Q 634 94 612 99 Q 581 105 549 111 Q 527 117 528 107 Q 595 55 633 16 Q 649 -3 665 -9 Q 675 -13 685 -2 Q 730 53 725 113 Q 712 321 709 657 Q 708 721 723 750 Q 736 772 723 783 Q 698 804 658 820 Q 639 827 621 820 Q 569 793 536 785 Q 493 773 405 766 C 375 763 390 730 420 735 Z" class="stroke2"/>
    <path d="M 412 535 Q 442 529 533 542 Q 587 551 594 554 Q 603 561 599 569 Q 592 579 566 587 Q 538 594 511 583 Q 487 576 462 572 Q 440 568 414 566 C 384 564 382 540 412 535 Z" class="stroke3"/>
    <path d="M 394 361 Q 428 351 561 374 Q 564 375 568 375 Q 590 379 594 382 Q 603 389 599 397 Q 592 407 566 415 Q 538 421 511 411 Q 484 404 456 397 Q 428 393 398 390 C 368 387 365 368 394 361 Z" class="stroke4"/>
    
    
    
    </g>
</svg>