<svg version="1.1" viewBox="0 0 1024 1024" xmlns="http://www.w3.org/2000/svg">
  
  <g transform="scale(1, -1) translate(0, -900)">
    <style type="text/css">
        .stroke1 {fill: #808080;}
        .stroke2 {fill: #808079;}
        .stroke3 {fill: #808078;}
        .stroke4 {fill: #808077;}
        .stroke5 {fill: #808076;}
        .stroke6 {fill: #808075;}
        .stroke7 {fill: #808074;}
        .stroke8 {fill: #808073;}
        .stroke9 {fill: #808072;}
        .stroke10 {fill: #808071;}
        .stroke11 {fill: #808070;}
        .stroke12 {fill: #808069;}
        .stroke13 {fill: #808068;}
        .stroke14 {fill: #808067;}
        .stroke15 {fill: #808066;}
        .stroke16 {fill: #808065;}
        .stroke17 {fill: #808064;}
        .stroke18 {fill: #808063;}
        .stroke19 {fill: #808062;}
        .stroke20 {fill: #808061;}
        text {
            font-family: Helvetica;
            font-size: 50px;
            fill: #808060;
            paint-order: stroke;
            stroke: #000000;
            stroke-width: 4px;
            stroke-linecap: butt;
            stroke-linejoin: miter;
            font-weight: 800;
        }
    </style>

    <path d="M 253 393 Q 253 394 254 396 Q 263 453 266 509 L 268 544 Q 269 563 270 583 Q 273 685 279 697 C 282 714 282 714 261 726 Q 248 735 228 742 Q 209 751 197 745 Q 187 738 194 725 Q 212 698 218 645 Q 218 432 191 318 Q 188 311 187 301 Q 157 192 84 62 Q 80 55 79 49 Q 78 39 87 42 Q 100 45 136 96 Q 212 193 248 365 L 253 393 Z" class="stroke1"/>
    <path d="M 279 697 Q 297 701 364 721 Q 382 727 387 718 Q 406 666 397 319 Q 390 198 382 185 Q 379 182 314 194 Q 295 201 296 192 Q 345 146 372 112 Q 385 93 399 88 Q 408 85 416 94 Q 456 140 455 191 Q 434 662 459 705 Q 471 724 459 734 Q 440 752 405 765 Q 386 774 340 748 Q 310 736 261 726 C 232 719 250 689 279 697 Z" class="stroke2"/>
    <path d="M 266 509 Q 315 518 352 523 Q 376 529 366 540 Q 354 553 328 557 Q 304 558 268 544 C 240 533 236 504 266 509 Z" class="stroke3"/>
    <path d="M 248 365 Q 251 365 256 365 Q 314 375 356 380 Q 378 384 369 397 Q 359 410 335 413 Q 298 416 253 393 C 226 380 218 365 248 365 Z" class="stroke4"/>
    <path d="M 617 399 Q 626 448 629 525 L 630 556 Q 631 578 631 600 Q 628 672 634 707 Q 635 710 635 711 C 638 732 638 732 617 743 Q 604 752 584 758 Q 565 765 553 760 Q 543 753 550 740 Q 571 710 577 651 Q 577 638 578 620 Q 585 449 556 315 Q 529 213 460 74 Q 456 67 454 61 Q 453 51 463 54 Q 481 57 510 110 Q 583 209 612 372 L 617 399 Z" class="stroke5"/>
    <path d="M 635 711 Q 641 714 744 735 Q 766 739 771 727 Q 799 639 787 208 Q 783 126 773 110 Q 769 104 746 109 Q 713 116 680 123 Q 658 129 661 119 Q 728 68 767 30 Q 780 11 798 5 Q 808 2 816 12 Q 856 63 855 122 Q 843 315 840 627 Q 839 688 853 716 Q 866 737 853 747 Q 831 766 792 783 Q 773 790 756 783 Q 698 753 617 743 C 587 738 606 704 635 711 Z" class="stroke6"/>
    <path d="M 629 525 Q 690 534 736 543 Q 758 547 750 560 Q 738 575 712 577 Q 670 580 630 556 C 604 541 599 521 629 525 Z" class="stroke7"/>
    <path d="M 612 372 Q 615 371 623 372 Q 690 382 739 387 Q 761 391 753 404 Q 743 419 717 423 Q 675 429 617 399 C 590 385 582 375 612 372 Z" class="stroke8"/>
    
    
    
    
    
    
    
    </g>
</svg>