<svg version="1.1" viewBox="0 0 1024 1024" xmlns="http://www.w3.org/2000/svg">
  
  <g transform="scale(1, -1) translate(0, -900)">
    <style type="text/css">
        .stroke1 {fill: #808080;}
        .stroke2 {fill: #808079;}
        .stroke3 {fill: #808078;}
        .stroke4 {fill: #808077;}
        .stroke5 {fill: #808076;}
        .stroke6 {fill: #808075;}
        .stroke7 {fill: #808074;}
        .stroke8 {fill: #808073;}
        .stroke9 {fill: #808072;}
        .stroke10 {fill: #808071;}
        .stroke11 {fill: #808070;}
        .stroke12 {fill: #808069;}
        .stroke13 {fill: #808068;}
        .stroke14 {fill: #808067;}
        .stroke15 {fill: #808066;}
        .stroke16 {fill: #808065;}
        .stroke17 {fill: #808064;}
        .stroke18 {fill: #808063;}
        .stroke19 {fill: #808062;}
        .stroke20 {fill: #808061;}
        text {
            font-family: Helvetica;
            font-size: 50px;
            fill: #808060;
            paint-order: stroke;
            stroke: #000000;
            stroke-width: 4px;
            stroke-linecap: butt;
            stroke-linejoin: miter;
            font-weight: 800;
        }
    </style>

    <path d="M 356 529 Q 380 536 408 542 Q 450 552 456 559 Q 465 568 460 576 Q 453 588 422 594 Q 391 600 360 586 Q 357 585 357 584 L 310 568 Q 217 541 137 530 Q 100 523 127 507 Q 169 486 238 502 Q 259 508 285 512 L 356 529 Z" class="stroke1"/>
    <path d="M 354 448 Q 354 487 356 529 L 357 584 Q 357 681 378 755 Q 391 782 367 799 Q 351 811 322 829 Q 298 847 277 831 Q 273 827 278 810 Q 309 764 310 715 Q 310 646 310 568 L 306 432 Q 303 234 285 161 Q 266 106 286 43 Q 287 39 291 31 Q 298 12 306 9 Q 312 2 320 11 Q 347 27 348 93 Q 347 133 353 423 L 354 448 Z" class="stroke2"/>
    <path d="M 285 512 Q 258 440 219 376 Q 176 306 74 179 Q 67 169 80 167 Q 101 164 210 285 Q 261 343 306 432 C 361 539 297 544 285 512 Z" class="stroke3"/>
    <path d="M 353 423 Q 377 410 431 365 Q 441 355 454 357 Q 461 358 465 368 Q 468 380 460 402 Q 448 432 365 447 Q 358 448 354 448 C 324 450 327 438 353 423 Z" class="stroke4"/>
    <path d="M 747 520 Q 754 523 909 550 Q 921 549 930 563 Q 930 576 905 586 Q 871 607 803 584 Q 775 577 747 568 L 697 555 Q 643 542 595 534 Q 552 528 504 519 Q 473 515 497 496 Q 536 469 565 478 Q 613 491 670 503 L 747 520 Z" class="stroke5"/>
    <path d="M 698 438 Q 699 306 701 113 Q 700 88 687 78 Q 681 72 607 81 Q 571 91 575 80 Q 576 73 599 59 Q 666 13 685 -16 Q 707 -49 723 -49 Q 738 -50 751 -13 Q 767 35 763 110 Q 747 315 747 520 L 747 568 Q 747 712 765 775 Q 781 806 724 829 Q 688 848 669 841 Q 650 834 667 810 Q 689 782 692 747 Q 695 728 697 555 L 698 438 Z" class="stroke6"/>
    <path d="M 670 503 Q 613 367 436 206 Q 424 196 411 184 Q 398 171 408 169 Q 418 165 430 171 Q 553 229 659 380 Q 695 434 698 438 C 754 520 686 539 670 503 Z" class="stroke7"/>
    
    
    
    
    
    
    </g>
</svg>