<svg version="1.1" viewBox="0 0 1024 1024" xmlns="http://www.w3.org/2000/svg">
  
  <g transform="scale(1, -1) translate(0, -900)">
    <style type="text/css">
        .stroke1 {fill: #808080;}
        .stroke2 {fill: #808079;}
        .stroke3 {fill: #808078;}
        .stroke4 {fill: #808077;}
        .stroke5 {fill: #808076;}
        .stroke6 {fill: #808075;}
        .stroke7 {fill: #808074;}
        .stroke8 {fill: #808073;}
        .stroke9 {fill: #808072;}
        .stroke10 {fill: #808071;}
        .stroke11 {fill: #808070;}
        .stroke12 {fill: #808069;}
        .stroke13 {fill: #808068;}
        .stroke14 {fill: #808067;}
        .stroke15 {fill: #808066;}
        .stroke16 {fill: #808065;}
        .stroke17 {fill: #808064;}
        .stroke18 {fill: #808063;}
        .stroke19 {fill: #808062;}
        .stroke20 {fill: #808061;}
        text {
            font-family: Helvetica;
            font-size: 50px;
            fill: #808060;
            paint-order: stroke;
            stroke: #000000;
            stroke-width: 4px;
            stroke-linecap: butt;
            stroke-linejoin: miter;
            font-weight: 800;
        }
    </style>

    <path d="M 339 543 Q 441 568 448 575 Q 457 584 452 592 Q 445 604 414 610 Q 369 616 341 597 L 294 581 Q 156 551 132 546 Q 95 539 123 523 Q 165 499 226 516 Q 245 522 271 526 L 339 543 Z" class="stroke1"/>
    <path d="M 336 451 Q 337 494 339 543 L 341 597 Q 342 687 362 747 Q 371 763 368 776 Q 361 786 306 821 Q 282 839 261 823 Q 257 819 262 803 Q 293 754 294 706 Q 294 648 294 581 L 290 447 Q 286 359 284 263 Q 280 187 258 117 Q 245 75 272 15 Q 278 -3 286 -7 Q 292 -14 300 -5 Q 307 -1 318 20 Q 328 45 328 76 Q 328 118 335 420 L 336 451 Z" class="stroke2"/>
    <path d="M 271 526 Q 246 456 209 393 Q 166 318 62 182 Q 56 172 68 171 Q 74 170 84 179 Q 207 285 290 447 C 345 552 282 555 271 526 Z" class="stroke3"/>
    <path d="M 335 420 Q 405 350 416 346 Q 417 346 420 346 Q 429 346 433 357 Q 437 369 432 393 Q 426 421 346 449 Q 342 450 336 451 C 306 456 314 441 335 420 Z" class="stroke4"/>
    <path d="M 717 386 Q 739 422 757 594 Q 767 649 803 685 Q 821 704 802 718 Q 781 734 727 756 Q 714 762 655 746 Q 610 736 572 724 Q 535 712 510 708 Q 492 707 490 701 Q 486 697 505 685 Q 541 667 563 676 Q 597 689 678 703 Q 691 704 698 702 Q 714 695 710 645 Q 694 462 682 425 Q 676 406 684 390 Q 685 386 690 382 C 704 357 705 359 717 386 Z" class="stroke5"/>
    <path d="M 690 382 Q 644 375 578 360 Q 557 356 556 374 Q 569 533 583 562 Q 590 578 584 590 Q 568 609 543 620 Q 525 627 516 620 Q 509 616 517 603 Q 530 567 508 393 Q 504 369 497 347 Q 491 328 506 312 Q 524 297 548 310 Q 615 352 800 366 Q 831 367 843 354 Q 853 344 839 302 Q 832 238 820 171 Q 813 119 788 86 Q 779 76 757 80 Q 724 92 694 101 Q 679 107 678 99 Q 678 93 687 84 Q 739 27 757 -10 Q 766 -32 785 -22 Q 851 11 864 80 Q 883 171 897 274 Q 904 311 923 342 Q 936 358 924 371 Q 908 390 870 412 Q 849 425 821 412 Q 781 394 742 390 Q 729 389 717 386 L 690 382 Z" class="stroke6"/>
    <path d="M 587 203 Q 611 204 633 209 Q 693 216 756 212 Q 775 211 780 219 Q 786 231 775 240 Q 714 288 654 263 Q 635 260 617 255 Q 608 255 460 229 Q 430 223 385 220 Q 375 219 373 209 Q 374 199 390 188 Q 405 179 431 171 Q 441 170 455 176 Q 494 192 587 203 Z" class="stroke7"/>
    
    
    
    
    
    
    </g>
</svg>