<svg version="1.1" viewBox="0 0 1024 1024" xmlns="http://www.w3.org/2000/svg">
  
  <g transform="scale(1, -1) translate(0, -900)">
    <style type="text/css">
        .stroke1 {fill: #808080;}
        .stroke2 {fill: #808079;}
        .stroke3 {fill: #808078;}
        .stroke4 {fill: #808077;}
        .stroke5 {fill: #808076;}
        .stroke6 {fill: #808075;}
        .stroke7 {fill: #808074;}
        .stroke8 {fill: #808073;}
        .stroke9 {fill: #808072;}
        .stroke10 {fill: #808071;}
        .stroke11 {fill: #808070;}
        .stroke12 {fill: #808069;}
        .stroke13 {fill: #808068;}
        .stroke14 {fill: #808067;}
        .stroke15 {fill: #808066;}
        .stroke16 {fill: #808065;}
        .stroke17 {fill: #808064;}
        .stroke18 {fill: #808063;}
        .stroke19 {fill: #808062;}
        .stroke20 {fill: #808061;}
        text {
            font-family: Helvetica;
            font-size: 50px;
            fill: #808060;
            paint-order: stroke;
            stroke: #000000;
            stroke-width: 4px;
            stroke-linecap: butt;
            stroke-linejoin: miter;
            font-weight: 800;
        }
    </style>

    <path d="M 327 513 Q 417 541 421 545 Q 428 552 424 561 Q 417 571 387 577 Q 359 581 330 567 Q 329 567 328 566 L 288 550 Q 189 520 130 509 Q 96 500 122 486 Q 167 465 220 483 Q 239 490 267 496 L 327 513 Z" class="stroke1"/>
    <path d="M 325 405 Q 325 456 327 513 L 328 566 Q 328 683 349 762 Q 364 787 334 807 Q 319 819 294 833 Q 272 849 251 835 Q 247 831 253 815 Q 286 766 286 715 Q 287 642 289 558 Q 288 555 288 550 L 283 399 Q 280 215 266 150 Q 245 66 259 26 Q 262 16 268 2 Q 275 -16 283 -19 Q 289 -26 296 -17 Q 323 -1 323 62 Q 322 102 325 375 L 325 405 Z" class="stroke2"/>
    <path d="M 267 496 Q 243 420 207 350 Q 167 274 69 133 Q 65 123 76 123 Q 82 122 91 131 Q 212 246 283 399 C 344 529 276 525 267 496 Z" class="stroke3"/>
    <path d="M 325 375 Q 388 312 402 311 Q 409 311 413 321 Q 417 331 412 353 Q 406 380 328 405 Q 327 406 325 405 C 295 408 304 396 325 375 Z" class="stroke4"/>
    <path d="M 503 547 Q 491 575 471 587 Q 467 591 462 587 Q 458 583 456 572 Q 462 542 429 464 Q 419 448 420 430 Q 424 411 433 397 Q 440 387 446 394 Q 458 397 474 449 Q 490 500 499 517 C 508 536 508 536 503 547 Z" class="stroke5"/>
    <path d="M 640 552 Q 724 579 756 579 Q 771 569 769 563 Q 769 559 731 468 Q 727 456 733 453 Q 740 450 752 462 Q 801 511 846 534 Q 883 553 880 563 Q 879 570 813 610 Q 792 622 704 597 Q 685 596 642 582 L 592 570 Q 573 566 552 560 Q 527 553 503 547 C 474 540 470 523 499 517 Q 518 511 536 517 Q 560 529 589 537 L 640 552 Z" class="stroke6"/>
    <path d="M 589 537 Q 562 267 445 139 Q 420 114 383 81 Q 371 74 369 70 Q 365 63 381 64 Q 415 64 501 143 Q 615 255 640 552 L 642 582 Q 651 697 669 743 Q 675 753 666 762 Q 650 778 615 792 Q 596 802 579 797 Q 560 790 575 773 Q 600 745 600 715 Q 599 637 592 570 L 589 537 Z" class="stroke7"/>
    <path d="M 971 119 Q 959 147 947 231 Q 947 246 941 250 Q 935 253 931 237 Q 906 149 888 121 Q 878 108 849 101 Q 785 86 726 109 Q 704 121 698 135 Q 671 189 700 368 Q 706 396 659 414 Q 646 418 639 414 Q 632 410 637 393 Q 650 356 647 321 Q 638 161 652 116 Q 656 95 676 77 Q 739 23 889 46 Q 893 49 900 49 Q 933 59 965 83 Q 983 96 971 119 Z" class="stroke8"/>
    
    
    
    
    
    
    
    </g>
</svg>