<svg version="1.1" viewBox="0 0 1024 1024" xmlns="http://www.w3.org/2000/svg">
  
  <g transform="scale(1, -1) translate(0, -900)">
    <style type="text/css">
        .stroke1 {fill: #808080;}
        .stroke2 {fill: #808079;}
        .stroke3 {fill: #808078;}
        .stroke4 {fill: #808077;}
        .stroke5 {fill: #808076;}
        .stroke6 {fill: #808075;}
        .stroke7 {fill: #808074;}
        .stroke8 {fill: #808073;}
        .stroke9 {fill: #808072;}
        .stroke10 {fill: #808071;}
        .stroke11 {fill: #808070;}
        .stroke12 {fill: #808069;}
        .stroke13 {fill: #808068;}
        .stroke14 {fill: #808067;}
        .stroke15 {fill: #808066;}
        .stroke16 {fill: #808065;}
        .stroke17 {fill: #808064;}
        .stroke18 {fill: #808063;}
        .stroke19 {fill: #808062;}
        .stroke20 {fill: #808061;}
        text {
            font-family: Helvetica;
            font-size: 50px;
            fill: #808060;
            paint-order: stroke;
            stroke: #000000;
            stroke-width: 4px;
            stroke-linecap: butt;
            stroke-linejoin: miter;
            font-weight: 800;
        }
    </style>

    <path d="M 344 521 Q 363 528 388 533 Q 427 543 432 549 Q 442 559 436 567 Q 427 580 396 586 Q 369 590 346 581 L 295 562 Q 190 529 124 521 Q 85 512 115 495 Q 152 474 230 493 Q 249 499 274 503 L 344 521 Z" class="stroke1"/>
    <path d="M 340 389 Q 341 450 344 521 L 346 581 Q 349 666 366 725 Q 376 741 373 755 Q 366 765 309 801 Q 284 820 263 803 Q 257 799 264 782 Q 295 734 295 687 Q 295 629 295 562 L 291 420 Q 287 336 287 246 Q 281 170 261 101 Q 249 59 275 -5 Q 281 -23 289 -27 Q 296 -34 304 -25 Q 311 -21 323 1 Q 333 26 333 59 Q 332 96 339 352 L 340 389 Z" class="stroke2"/>
    <path d="M 274 503 Q 226 371 62 154 Q 56 144 68 143 Q 74 142 84 151 Q 213 263 291 420 C 347 530 285 531 274 503 Z" class="stroke3"/>
    <path d="M 339 352 Q 396 295 408 294 Q 417 294 421 305 Q 425 317 420 341 Q 413 369 342 389 L 340 389 C 310 393 318 373 339 352 Z" class="stroke4"/>
    <path d="M 742 700 Q 748 673 679 599 Q 646 566 603 531 Q 593 525 590 520 Q 586 513 597 512 Q 631 508 760 611 Q 779 630 798 641 Q 808 647 806 659 Q 806 669 788 694 Q 770 713 755 717 Q 740 718 742 700 Z" class="stroke5"/>
    <path d="M 617 410 Q 662 425 826 433 Q 874 433 881 443 Q 885 455 869 467 Q 809 503 751 481 Q 700 469 627 452 Q 599 448 572 440 L 526 430 Q 481 423 434 413 Q 415 410 430 395 Q 443 383 461 379 Q 464 379 525 389 L 617 410 Z" class="stroke6"/>
    <path d="M 572 440 Q 575 704 584 737 Q 591 758 576 772 Q 551 791 523 798 Q 492 805 481 791 Q 472 779 487 765 Q 508 747 514 703 Q 526 622 526 430 L 525 389 Q 522 101 484 49 Q 471 28 483 6 Q 496 -15 516 -23 Q 528 -30 541 -12 Q 560 19 658 118 Q 686 140 689 151 Q 690 158 684 160 Q 680 161 581 99 Q 562 83 560 108 Q 564 250 569 399 L 572 440 Z" class="stroke7"/>
    <path d="M 569 399 Q 597 381 617 352 Q 789 109 825 103 Q 898 103 957 113 Q 972 114 978 122 Q 982 128 972 132 Q 846 183 796 222 Q 726 280 621 405 Q 620 408 617 410 C 598 433 545 417 569 399 L 569 399 Z" class="stroke8"/>
    
    
    
    
    
    
    
    </g>
</svg>