<svg version="1.1" viewBox="0 0 1024 1024" xmlns="http://www.w3.org/2000/svg">
  
  <g transform="scale(1, -1) translate(0, -900)">
    <style type="text/css">
        .stroke1 {fill: #808080;}
        .stroke2 {fill: #808079;}
        .stroke3 {fill: #808078;}
        .stroke4 {fill: #808077;}
        .stroke5 {fill: #808076;}
        .stroke6 {fill: #808075;}
        .stroke7 {fill: #808074;}
        .stroke8 {fill: #808073;}
        .stroke9 {fill: #808072;}
        .stroke10 {fill: #808071;}
        .stroke11 {fill: #808070;}
        .stroke12 {fill: #808069;}
        .stroke13 {fill: #808068;}
        .stroke14 {fill: #808067;}
        .stroke15 {fill: #808066;}
        .stroke16 {fill: #808065;}
        .stroke17 {fill: #808064;}
        .stroke18 {fill: #808063;}
        .stroke19 {fill: #808062;}
        .stroke20 {fill: #808061;}
        text {
            font-family: Helvetica;
            font-size: 50px;
            fill: #808060;
            paint-order: stroke;
            stroke: #000000;
            stroke-width: 4px;
            stroke-linecap: butt;
            stroke-linejoin: miter;
            font-weight: 800;
        }
    </style>

    <path d="M 333 550 Q 429 577 432 579 Q 441 588 436 596 Q 429 608 398 614 Q 367 620 336 606 Q 335 606 334 605 L 289 590 Q 217 569 141 558 Q 104 551 131 535 Q 176 511 234 528 Q 253 534 278 537 L 333 550 Z" class="stroke1"/>
    <path d="M 331 463 Q 331 505 333 550 L 334 605 Q 337 696 354 760 Q 364 775 360 789 Q 353 799 298 833 Q 274 851 253 835 Q 249 829 254 814 Q 288 765 288 715 Q 288 657 289 590 L 286 429 Q 277 201 275 184 Q 268 144 257 105 Q 245 65 271 2 Q 278 -16 286 -19 Q 292 -26 300 -17 Q 307 -13 318 8 Q 328 33 327 65 Q 326 108 331 430 L 331 463 Z" class="stroke2"/>
    <path d="M 278 537 Q 250 464 211 395 Q 168 322 66 191 Q 59 179 72 179 Q 79 178 89 187 Q 209 286 286 429 C 360 565 289 565 278 537 Z" class="stroke3"/>
    <path d="M 331 430 Q 395 361 418 361 Q 431 360 436 378 Q 437 391 428 410 Q 416 429 389 440 Q 352 459 331 463 C 302 469 311 452 331 430 Z" class="stroke4"/>
    <path d="M 647 562 Q 890 605 897 612 Q 907 621 903 630 Q 896 643 863 654 Q 829 661 700 624 Q 537 600 501 597 Q 459 593 488 572 Q 536 545 593 554 L 647 562 Z" class="stroke5"/>
    <path d="M 548 333 Q 549 336 552 337 Q 592 391 654 499 Q 661 514 668 520 Q 675 524 673 535 Q 670 550 647 562 C 622 578 593 584 593 554 Q 599 472 487 320 Q 484 317 482 314 Q 446 271 357 183 Q 350 179 359 176 Q 416 188 511 287 L 548 333 Z" class="stroke6"/>
    <path d="M 511 287 Q 533 220 544 120 Q 545 84 564 60 Q 580 38 587 53 Q 594 72 592 103 L 587 146 Q 571 267 570 297 C 567 356 486 366 511 287 Z" class="stroke7"/>
    <path d="M 570 297 Q 574 297 758 327 Q 777 331 784 323 Q 796 313 794 290 Q 785 230 774 180 C 768 151 818 136 826 165 Q 854 270 893 302 Q 912 324 895 343 Q 876 358 817 386 Q 796 395 772 385 Q 682 349 548 333 C 518 329 540 293 570 297 Z" class="stroke8"/>
    <path d="M 592 103 Q 602 102 616 104 Q 686 117 836 125 Q 849 126 851 138 Q 851 147 826 165 C 803 182 803 182 774 180 Q 764 180 754 177 Q 660 155 587 146 C 557 142 562 104 592 103 Z" class="stroke9"/>
    
    
    
    
    
    
    
    
    </g>
</svg>