<svg version="1.1" viewBox="0 0 1024 1024" xmlns="http://www.w3.org/2000/svg">
  
  <g transform="scale(1, -1) translate(0, -900)">
    <style type="text/css">
        .stroke1 {fill: #808080;}
        .stroke2 {fill: #808079;}
        .stroke3 {fill: #808078;}
        .stroke4 {fill: #808077;}
        .stroke5 {fill: #808076;}
        .stroke6 {fill: #808075;}
        .stroke7 {fill: #808074;}
        .stroke8 {fill: #808073;}
        .stroke9 {fill: #808072;}
        .stroke10 {fill: #808071;}
        .stroke11 {fill: #808070;}
        .stroke12 {fill: #808069;}
        .stroke13 {fill: #808068;}
        .stroke14 {fill: #808067;}
        .stroke15 {fill: #808066;}
        .stroke16 {fill: #808065;}
        .stroke17 {fill: #808064;}
        .stroke18 {fill: #808063;}
        .stroke19 {fill: #808062;}
        .stroke20 {fill: #808061;}
        text {
            font-family: Helvetica;
            font-size: 50px;
            fill: #808060;
            paint-order: stroke;
            stroke: #000000;
            stroke-width: 4px;
            stroke-linecap: butt;
            stroke-linejoin: miter;
            font-weight: 800;
        }
    </style>

    <path d="M 331 510 Q 445 537 447 539 Q 456 546 451 556 Q 444 568 414 576 Q 374 583 332 563 L 286 549 Q 148 525 126 522 Q 89 516 115 498 Q 154 477 227 490 Q 248 496 273 498 L 331 510 Z" class="stroke1"/>
    <path d="M 328 409 Q 328 457 331 510 L 332 563 Q 332 659 354 731 Q 367 758 343 775 Q 327 787 298 805 Q 274 823 253 807 Q 249 803 254 787 Q 285 738 286 690 Q 286 624 286 549 L 281 398 Q 268 176 266 168 Q 260 135 250 101 Q 237 59 264 -1 Q 270 -19 278 -23 Q 284 -30 292 -21 Q 299 -17 310 4 Q 320 29 320 60 Q 320 100 327 374 L 328 409 Z" class="stroke2"/>
    <path d="M 273 498 Q 222 357 66 145 Q 60 135 72 134 Q 94 134 203 270 Q 243 324 281 398 C 347 525 284 526 273 498 Z" class="stroke3"/>
    <path d="M 327 374 Q 358 352 390 322 Q 400 313 413 314 Q 422 314 425 324 Q 429 336 421 359 Q 417 378 387 392 Q 359 402 328 409 C 299 416 303 391 327 374 Z" class="stroke4"/>
    <path d="M 667 565 Q 712 575 760 582 Q 797 589 802 595 Q 812 602 807 612 Q 800 624 770 632 Q 742 638 670 615 L 621 603 Q 572 594 514 590 Q 477 584 503 566 Q 548 542 605 554 Q 611 555 622 557 L 667 565 Z" class="stroke5"/>
    <path d="M 660 443 Q 664 506 667 565 L 670 615 Q 671 702 690 780 Q 693 790 674 805 Q 640 823 616 827 Q 600 830 592 822 Q 585 815 593 800 Q 615 769 616 747 Q 620 678 621 603 L 622 557 Q 622 499 620 436 C 619 406 658 413 660 443 Z" class="stroke6"/>
    <path d="M 630 401 Q 666 416 877 416 Q 895 417 899 425 Q 903 435 889 447 Q 837 486 784 467 Q 733 458 660 443 L 620 436 Q 542 426 455 412 Q 436 411 450 395 Q 463 383 479 378 Q 498 374 512 378 Q 552 388 596 396 L 630 401 Z" class="stroke7"/>
    <path d="M 668 232 Q 711 242 756 250 Q 793 257 799 263 Q 808 270 803 280 Q 796 292 766 300 Q 733 306 670 283 L 616 269 Q 565 259 506 254 Q 469 248 495 230 Q 543 206 615 223 L 617 223 L 668 232 Z" class="stroke8"/>
    <path d="M 663 98 Q 666 171 668 232 L 670 283 Q 671 301 672 317 Q 676 365 671 370 Q 650 391 630 401 C 604 416 587 425 596 396 Q 596 390 608 370 Q 612 358 616 269 L 617 223 Q 617 171 618 92 C 618 62 662 68 663 98 Z" class="stroke9"/>
    <path d="M 618 92 Q 518 83 405 71 Q 383 70 399 51 Q 414 36 432 30 Q 454 24 471 28 Q 598 61 893 60 Q 909 60 924 58 Q 945 58 950 67 Q 956 79 939 94 Q 887 136 847 127 Q 778 114 663 98 L 618 92 Z" class="stroke10"/>
    
    
    
    
    
    
    
    
    
    </g>
</svg>