<svg version="1.1" viewBox="0 0 1024 1024" xmlns="http://www.w3.org/2000/svg">
  
  <g transform="scale(1, -1) translate(0, -900)">
    <style type="text/css">
        .stroke1 {fill: #808080;}
        .stroke2 {fill: #808079;}
        .stroke3 {fill: #808078;}
        .stroke4 {fill: #808077;}
        .stroke5 {fill: #808076;}
        .stroke6 {fill: #808075;}
        .stroke7 {fill: #808074;}
        .stroke8 {fill: #808073;}
        .stroke9 {fill: #808072;}
        .stroke10 {fill: #808071;}
        .stroke11 {fill: #808070;}
        .stroke12 {fill: #808069;}
        .stroke13 {fill: #808068;}
        .stroke14 {fill: #808067;}
        .stroke15 {fill: #808066;}
        .stroke16 {fill: #808065;}
        .stroke17 {fill: #808064;}
        .stroke18 {fill: #808063;}
        .stroke19 {fill: #808062;}
        .stroke20 {fill: #808061;}
        text {
            font-family: Helvetica;
            font-size: 50px;
            fill: #808060;
            paint-order: stroke;
            stroke: #000000;
            stroke-width: 4px;
            stroke-linecap: butt;
            stroke-linejoin: miter;
            font-weight: 800;
        }
    </style>

    <path d="M 578 680 Q 599 705 619 735 Q 632 760 652 774 Q 671 787 661 800 Q 651 812 623 826 Q 604 835 577 825 Q 546 815 506 804 Q 464 794 396 789 Q 383 789 377 782 Q 373 775 391 767 Q 425 752 475 765 Q 545 786 557 784 Q 573 785 573 767 Q 558 727 535 696 L 503 665 Q 446 620 329 598 Q 316 597 326 587 Q 330 584 368 586 Q 416 589 471 608 Q 511 623 542 645 L 578 680 Z" class="stroke1"/>
    <path d="M 542 645 Q 623 603 627 602 Q 633 602 636 610 Q 640 620 625 646 Q 616 661 578 680 L 535 696 Q 505 712 392 738 Q 385 739 386 731 Q 389 722 397 718 Q 446 696 503 665 L 542 645 Z" class="stroke2"/>
    <path d="M 398 413 Q 416 435 435 465 Q 459 505 479 520 Q 495 533 485 545 Q 478 555 427 572 Q 411 579 390 565 Q 372 558 344 548 Q 307 541 231 530 Q 216 531 212 524 Q 209 520 223 512 Q 256 493 299 505 Q 392 535 398 532 Q 410 528 396 504 Q 380 467 358 437 L 331 407 Q 292 374 209 335 Q 200 331 212 325 Q 216 321 240 325 Q 309 337 364 380 L 398 413 Z" class="stroke3"/>
    <path d="M 364 380 Q 409 341 414 339 Q 420 339 424 346 Q 431 355 421 383 Q 414 407 398 413 L 358 437 Q 325 456 265 480 Q 258 483 258 474 Q 258 465 266 459 Q 297 437 331 407 L 364 380 Z" class="stroke4"/>
    <path d="M 692 461 Q 713 486 733 524 Q 745 548 762 562 Q 778 575 768 586 Q 758 596 731 608 Q 712 615 688 604 Q 666 595 637 586 Q 609 577 559 571 Q 546 570 542 564 Q 539 558 555 551 Q 586 539 630 552 Q 664 567 672 567 Q 690 567 686 548 Q 677 506 652 475 L 623 446 Q 581 416 520 402 Q 508 398 518 391 Q 543 379 624 410 Q 640 417 655 427 L 692 461 Z" class="stroke5"/>
    <path d="M 655 427 Q 694 405 736 377 Q 751 365 762 365 Q 769 366 772 374 Q 779 386 762 414 Q 750 441 692 461 L 652 475 Q 585 497 549 506 Q 542 507 543 499 Q 544 489 554 484 Q 585 468 623 446 L 655 427 Z" class="stroke6"/>
    <path d="M 541 275 Q 686 285 853 276 Q 872 276 878 284 Q 884 296 868 310 Q 814 353 754 339 Q 661 326 525 306 L 473 301 Q 319 286 141 270 Q 120 269 135 251 Q 148 236 167 231 Q 188 224 204 229 Q 310 254 430 265 L 541 275 Z" class="stroke7"/>
    <path d="M 525 306 Q 528 348 525 351 Q 503 370 485 381 Q 473 385 464 378 Q 458 374 465 364 Q 472 352 473 301 L 471 230 Q 470 214 470 195 Q 464 84 452 43 Q 440 10 473 -44 Q 483 -62 492 -66 Q 502 -67 508 -55 Q 521 -24 518 5 Q 518 221 522 257 L 525 306 Z" class="stroke8"/>
    <path d="M 430 265 Q 370 153 140 24 Q 121 12 137 9 Q 176 0 283 57 Q 382 132 395 143 Q 438 183 464 220 Q 467 226 471 230 C 502 274 459 316 430 265 Z" class="stroke9"/>
    <path d="M 522 257 Q 613 148 712 48 Q 734 24 774 22 Q 846 18 921 30 Q 940 31 941 37 Q 944 44 929 50 Q 727 126 631 198 Q 601 220 541 275 C 519 295 503 280 522 257 Z" class="stroke10"/>
    
    
    
    
    
    
    
    
    
    </g>
</svg>