<svg version="1.1" viewBox="0 0 1024 1024" xmlns="http://www.w3.org/2000/svg">
  
  <g transform="scale(1, -1) translate(0, -900)">
    <style type="text/css">
        .stroke1 {fill: #808080;}
        .stroke2 {fill: #808079;}
        .stroke3 {fill: #808078;}
        .stroke4 {fill: #808077;}
        .stroke5 {fill: #808076;}
        .stroke6 {fill: #808075;}
        .stroke7 {fill: #808074;}
        .stroke8 {fill: #808073;}
        .stroke9 {fill: #808072;}
        .stroke10 {fill: #808071;}
        .stroke11 {fill: #808070;}
        .stroke12 {fill: #808069;}
        .stroke13 {fill: #808068;}
        .stroke14 {fill: #808067;}
        .stroke15 {fill: #808066;}
        .stroke16 {fill: #808065;}
        .stroke17 {fill: #808064;}
        .stroke18 {fill: #808063;}
        .stroke19 {fill: #808062;}
        .stroke20 {fill: #808061;}
        text {
            font-family: Helvetica;
            font-size: 50px;
            fill: #808060;
            paint-order: stroke;
            stroke: #000000;
            stroke-width: 4px;
            stroke-linecap: butt;
            stroke-linejoin: miter;
            font-weight: 800;
        }
    </style>

    <path d="M 391 730 Q 466 752 494 755 Q 507 754 512 760 Q 516 769 507 779 Q 491 795 455 813 Q 443 820 431 820 Q 425 819 423 809 Q 417 772 230 710 Q 224 703 229 700 Q 239 697 325 715 Q 335 716 347 719 L 391 730 Z" class="stroke1"/>
    <path d="M 405 594 Q 420 600 523 610 Q 533 609 541 620 Q 542 630 522 640 Q 494 661 415 637 Q 412 637 411 636 L 364 625 Q 295 612 176 598 Q 151 595 170 579 Q 201 558 222 561 Q 270 571 330 581 L 405 594 Z" class="stroke2"/>
    <path d="M 362 543 Q 356 429 365 407 L 366 406 Q 375 393 388 399 Q 398 408 399 486 Q 399 541 405 594 L 411 636 Q 411 639 412 640 Q 413 662 428 689 Q 434 696 424 709 Q 408 722 391 730 C 364 744 335 747 347 719 Q 362 689 364 625 L 362 543 Z" class="stroke3"/>
    <path d="M 330 581 Q 275 491 142 407 Q 126 397 140 394 Q 173 391 255 438 Q 289 468 325 499 Q 347 523 362 543 C 399 592 355 621 330 581 Z" class="stroke4"/>
    <path d="M 435 520 Q 483 460 507 457 Q 519 456 525 472 Q 526 484 518 501 Q 508 517 487 525 Q 453 541 439 543 Q 430 544 430 535 Q 429 528 435 520 Z" class="stroke5"/>
    <path d="M 557 704 Q 576 668 563 554 Q 560 527 581 502 Q 588 492 598 502 Q 613 526 614 578 Q 614 638 622 677 Q 628 696 610 707 Q 595 717 581 724 Q 571 728 561 724 Q 554 718 557 704 Z" class="stroke6"/>
    <path d="M 717 722 Q 724 640 718 472 Q 718 457 709 450 Q 703 449 638 460 Q 625 461 628 452 Q 629 446 647 430 Q 693 393 714 365 Q 726 353 737 360 Q 749 364 763 390 Q 776 417 772 463 Q 757 689 783 762 Q 790 781 773 790 Q 742 811 708 816 Q 692 817 686 808 Q 679 801 688 792 Q 713 762 717 722 Z" class="stroke7"/>
    <path d="M 545 279 Q 686 292 880 282 Q 901 282 906 291 Q 912 303 895 318 Q 838 363 789 350 Q 689 334 533 313 L 487 307 Q 327 292 138 275 Q 116 274 131 255 Q 146 240 164 234 Q 186 227 203 232 Q 317 260 447 271 L 545 279 Z" class="stroke8"/>
    <path d="M 533 313 Q 534 349 538 367 Q 539 379 533 385 Q 511 404 494 412 Q 482 416 474 409 Q 468 405 475 396 Q 481 386 487 307 L 486 231 Q 486 108 471 47 Q 462 10 493 -37 Q 503 -55 511 -58 Q 521 -59 527 -47 Q 539 -17 535 11 Q 532 98 532 258 L 533 313 Z" class="stroke9"/>
    <path d="M 447 271 Q 396 166 156 39 Q 137 29 153 25 Q 163 21 207 33 Q 261 45 312 75 Q 415 141 479 221 Q 482 227 486 231 C 521 280 473 320 447 271 Z" class="stroke10"/>
    <path d="M 532 258 Q 620 155 731 47 Q 752 29 782 33 Q 885 48 918 57 Q 927 60 928 65 Q 928 69 914 76 Q 761 116 677 178 Q 614 223 545 279 C 522 298 512 281 532 258 Z" class="stroke11"/>
    
    
    
    
    
    
    
    
    
    
    </g>
</svg>