<svg version="1.1" viewBox="0 0 1024 1024" xmlns="http://www.w3.org/2000/svg">
  
  <g transform="scale(1, -1) translate(0, -900)">
    <style type="text/css">
        .stroke1 {fill: #808080;}
        .stroke2 {fill: #808079;}
        .stroke3 {fill: #808078;}
        .stroke4 {fill: #808077;}
        .stroke5 {fill: #808076;}
        .stroke6 {fill: #808075;}
        .stroke7 {fill: #808074;}
        .stroke8 {fill: #808073;}
        .stroke9 {fill: #808072;}
        .stroke10 {fill: #808071;}
        .stroke11 {fill: #808070;}
        .stroke12 {fill: #808069;}
        .stroke13 {fill: #808068;}
        .stroke14 {fill: #808067;}
        .stroke15 {fill: #808066;}
        .stroke16 {fill: #808065;}
        .stroke17 {fill: #808064;}
        .stroke18 {fill: #808063;}
        .stroke19 {fill: #808062;}
        .stroke20 {fill: #808061;}
        text {
            font-family: Helvetica;
            font-size: 50px;
            fill: #808060;
            paint-order: stroke;
            stroke: #000000;
            stroke-width: 4px;
            stroke-linecap: butt;
            stroke-linejoin: miter;
            font-weight: 800;
        }
    </style>

    <path d="M 507 820 Q 528 804 550 786 Q 565 776 579 777 Q 589 778 593 792 Q 596 807 584 834 Q 572 856 496 865 Q 481 866 476 863 Q 472 859 474 847 Q 478 837 507 820 Z" class="stroke1"/>
    <path d="M 486 705 Q 597 720 722 731 Q 731 730 740 740 Q 741 750 721 761 Q 690 785 627 765 Q 452 735 318 724 Q 308 724 297 722 Q 272 719 290 703 Q 320 679 362 686 Q 393 692 434 697 L 486 705 Z" class="stroke2"/>
    <path d="M 605 642 Q 526 626 446 601 Q 436 597 433 600 Q 432 601 435 606 Q 487 661 499 671 Q 509 680 504 690 Q 501 696 486 705 C 461 722 431 727 434 697 Q 440 667 421 646 Q 402 618 362 590 Q 350 580 353 571 Q 357 558 378 540 Q 388 531 398 540 Q 441 576 622 623 C 651 631 634 648 605 642 Z" class="stroke3"/>
    <path d="M 622 623 Q 647 602 661 594 Q 673 591 680 601 Q 684 611 684 624 Q 675 654 610 680 L 609 681 Q 596 685 589 682 Q 585 681 586 672 Q 587 660 605 642 L 622 623 Z" class="stroke4"/>
    <path d="M 678 441 Q 694 441 921 442 Q 942 442 946 451 Q 953 463 935 477 Q 878 522 817 506 Q 763 497 696 485 L 637 477 Q 594 473 547 466 L 490 459 Q 433 455 374 446 L 324 440 Q 222 431 113 419 Q 91 418 107 399 Q 122 384 140 378 Q 162 372 179 377 Q 255 396 340 410 L 383 416 Q 428 425 491 429 L 541 434 Q 581 438 629 439 L 678 441 Z" class="stroke5"/>
    <path d="M 374 446 Q 367 470 363 490 Q 362 508 342 510 Q 302 522 284 511 Q 269 499 286 485 Q 308 466 324 440 L 340 410 Q 355 380 371 326 Q 380 308 394 297 Q 407 290 410 301 Q 410 305 410 311 L 404 343 Q 391 383 383 416 L 374 446 Z" class="stroke6"/>
    <path d="M 651 377 Q 664 410 678 441 L 696 485 Q 700 498 715 517 Q 719 524 707 541 Q 685 563 666 572 Q 654 578 647 573 Q 640 569 642 555 Q 649 536 637 477 L 629 439 Q 622 412 615 382 C 608 353 640 349 651 377 Z" class="stroke7"/>
    <path d="M 536 331 Q 590 338 664 344 Q 674 345 675 353 Q 675 360 651 377 C 641 385 641 385 615 382 Q 609 383 537 366 L 493 357 Q 444 350 404 343 C 374 338 382 301 410 311 Q 423 318 493 325 L 536 331 Z" class="stroke8"/>
    <path d="M 537 229 Q 630 238 791 237 Q 810 237 815 246 Q 821 256 804 270 Q 756 307 717 299 Q 647 286 535 266 L 492 259 Q 488 260 485 259 Q 355 241 200 221 Q 179 220 195 203 Q 208 190 226 184 Q 245 180 262 184 Q 350 209 451 219 L 537 229 Z" class="stroke9"/>
    <path d="M 535 266 Q 535 297 536 331 L 537 366 Q 537 403 541 434 L 547 466 Q 554 499 555 501 Q 549 508 502 537 Q 483 552 465 538 Q 461 534 466 521 Q 487 491 490 459 L 491 429 Q 491 396 493 357 L 493 325 Q 492 294 492 259 L 492 193 Q 492 85 475 20 Q 466 -10 488 -65 Q 494 -81 501 -83 Q 505 -89 512 -82 Q 519 -78 527 -60 Q 536 -39 535 -13 Q 534 15 534 197 L 535 266 Z" class="stroke10"/>
    <path d="M 451 219 Q 424 159 313 82 Q 229 27 147 -14 Q 131 -23 144 -27 Q 154 -30 192 -20 Q 247 -8 300 22 Q 346 50 402 97 Q 436 127 492 193 C 520 226 477 270 451 219 Z" class="stroke11"/>
    <path d="M 534 197 Q 742 4 790 -3 Q 838 -10 947 19 Q 965 23 966 28 Q 967 35 952 39 Q 760 93 728 109 Q 721 113 714 116 Q 636 155 537 229 L 534 229 C 508 244 512 217 534 197 Z" class="stroke12"/>
    
    
    
    
    
    
    
    
    
    
    
    </g>
</svg>