<svg version="1.1" viewBox="0 0 1024 1024" xmlns="http://www.w3.org/2000/svg">
  
  <g transform="scale(1, -1) translate(0, -900)">
    <style type="text/css">
        .stroke1 {fill: #808080;}
        .stroke2 {fill: #808079;}
        .stroke3 {fill: #808078;}
        .stroke4 {fill: #808077;}
        .stroke5 {fill: #808076;}
        .stroke6 {fill: #808075;}
        .stroke7 {fill: #808074;}
        .stroke8 {fill: #808073;}
        .stroke9 {fill: #808072;}
        .stroke10 {fill: #808071;}
        .stroke11 {fill: #808070;}
        .stroke12 {fill: #808069;}
        .stroke13 {fill: #808068;}
        .stroke14 {fill: #808067;}
        .stroke15 {fill: #808066;}
        .stroke16 {fill: #808065;}
        .stroke17 {fill: #808064;}
        .stroke18 {fill: #808063;}
        .stroke19 {fill: #808062;}
        .stroke20 {fill: #808061;}
        text {
            font-family: Helvetica;
            font-size: 50px;
            fill: #808060;
            paint-order: stroke;
            stroke: #000000;
            stroke-width: 4px;
            stroke-linecap: butt;
            stroke-linejoin: miter;
            font-weight: 800;
        }
    </style>

    <path d="M 297 520 Q 319 527 348 533 Q 379 542 384 546 Q 391 553 387 561 Q 380 571 353 577 Q 325 581 299 569 Q 298 569 298 568 L 254 553 Q 185 535 131 526 Q 97 519 122 505 Q 164 484 214 500 Q 221 504 233 504 L 297 520 Z" class="stroke1"/>
    <path d="M 250 398 Q 241 179 239 160 Q 233 123 222 85 Q 212 48 236 -14 Q 243 -32 251 -35 Q 257 -42 264 -33 Q 291 -17 291 46 Q 290 89 295 414 L 295 442 Q 296 479 297 520 L 298 568 Q 299 653 317 710 Q 326 725 323 738 Q 316 748 262 781 Q 240 797 219 783 Q 215 779 221 763 Q 252 715 253 668 Q 253 614 254 553 L 250 398 Z" class="stroke2"/>
    <path d="M 233 504 Q 200 360 72 132 Q 68 122 79 122 Q 118 131 220 325 Q 235 359 250 398 C 306 543 240 533 233 504 Z" class="stroke3"/>
    <path d="M 295 414 Q 344 357 361 354 Q 371 353 377 367 Q 378 377 372 393 Q 354 426 295 442 C 266 450 275 437 295 414 Z" class="stroke4"/>
    <path d="M 459 496 Q 466 511 476 525 Q 507 577 540 655 Q 552 691 566 710 Q 573 720 566 732 Q 560 742 531 758 Q 504 770 488 767 Q 472 763 482 744 Q 507 711 453 571 Q 428 508 389 437 Q 382 427 381 420 Q 380 410 392 414 Q 404 420 443 472 L 459 496 Z" class="stroke5"/>
    <path d="M 533 470 Q 582 485 637 499 Q 662 506 665 510 Q 672 517 668 526 Q 661 536 633 540 Q 605 544 579 531 Q 551 519 522 510 Q 491 503 459 496 C 430 490 415 483 443 472 Q 464 463 490 463 L 533 470 Z" class="stroke6"/>
    <path d="M 543 330 Q 597 346 668 363 Q 683 366 682 372 Q 683 382 667 389 Q 643 398 624 392 Q 581 380 550 369 L 499 354 Q 399 330 357 322 Q 347 321 344 313 Q 343 303 356 295 Q 390 274 425 288 Q 462 304 492 314 L 543 330 Z" class="stroke7"/>
    <path d="M 492 314 Q 465 185 361 116 Q 337 101 307 83 Q 286 71 311 73 Q 359 70 427 116 Q 511 167 543 330 L 550 369 Q 560 432 564 438 Q 570 444 565 453 Q 562 459 533 470 C 505 481 477 490 490 463 Q 505 448 499 354 L 492 314 Z" class="stroke8"/>
    <path d="M 558 219 Q 598 162 643 84 Q 653 65 666 58 Q 673 55 681 62 Q 694 71 692 111 Q 689 162 565 245 Q 558 251 554 241 Q 551 229 558 219 Z" class="stroke9"/>
    <path d="M 729 462 Q 719 468 694 474 Q 682 478 679 473 Q 672 467 679 452 Q 706 398 718 236 Q 718 196 737 168 Q 753 146 759 161 Q 768 183 765 223 L 762 255 Q 744 399 743 435 C 742 456 742 456 729 462 Z" class="stroke10"/>
    <path d="M 881 258 Q 899 393 939 433 Q 954 451 939 467 Q 923 479 872 499 Q 856 506 835 497 Q 802 482 729 462 C 700 454 714 426 743 435 Q 746 438 831 454 Q 841 457 846 453 Q 859 441 858 414 Q 848 335 833 270 C 826 241 877 228 881 258 Z" class="stroke11"/>
    <path d="M 765 223 Q 769 223 776 224 Q 810 230 884 232 Q 894 233 895 241 Q 895 247 881 258 L 833 270 Q 829 271 824 269 Q 790 262 762 255 C 733 248 735 221 765 223 Z" class="stroke12"/>
    
    
    
    
    
    
    
    
    
    
    
    </g>
</svg>