<svg version="1.1" viewBox="0 0 1024 1024" xmlns="http://www.w3.org/2000/svg">
  
  <g transform="scale(1, -1) translate(0, -900)">
    <style type="text/css">
        .stroke1 {fill: #808080;}
        .stroke2 {fill: #808079;}
        .stroke3 {fill: #808078;}
        .stroke4 {fill: #808077;}
        .stroke5 {fill: #808076;}
        .stroke6 {fill: #808075;}
        .stroke7 {fill: #808074;}
        .stroke8 {fill: #808073;}
        .stroke9 {fill: #808072;}
        .stroke10 {fill: #808071;}
        .stroke11 {fill: #808070;}
        .stroke12 {fill: #808069;}
        .stroke13 {fill: #808068;}
        .stroke14 {fill: #808067;}
        .stroke15 {fill: #808066;}
        .stroke16 {fill: #808065;}
        .stroke17 {fill: #808064;}
        .stroke18 {fill: #808063;}
        .stroke19 {fill: #808062;}
        .stroke20 {fill: #808061;}
        text {
            font-family: Helvetica;
            font-size: 50px;
            fill: #808060;
            paint-order: stroke;
            stroke: #000000;
            stroke-width: 4px;
            stroke-linecap: butt;
            stroke-linejoin: miter;
            font-weight: 800;
        }
    </style>

    <path d="M 334 540 Q 350 546 369 551 Q 403 561 409 567 Q 418 576 412 584 Q 405 596 374 601 Q 352 604 335 598 L 287 579 Q 200 548 127 535 Q 90 525 118 511 Q 160 493 237 514 Q 250 518 269 522 L 334 540 Z" class="stroke1"/>
    <path d="M 332 442 Q 332 488 334 540 L 335 598 Q 336 682 354 740 Q 364 755 360 768 Q 353 778 298 813 Q 274 831 253 815 Q 249 809 254 794 Q 285 748 286 700 Q 286 643 287 579 L 285 448 Q 278 226 274 199 Q 250 90 253 79 Q 253 64 271 22 Q 278 4 286 1 Q 292 -6 300 3 Q 307 7 318 28 Q 328 53 327 85 Q 326 125 331 412 L 332 442 Z" class="stroke2"/>
    <path d="M 269 522 Q 209 390 43 197 Q 37 187 48 186 Q 54 185 64 193 Q 196 289 285 448 C 340 544 282 549 269 522 Z" class="stroke3"/>
    <path d="M 331 412 Q 397 354 411 353 L 413 353 Q 420 354 425 364 Q 429 377 421 401 Q 417 417 391 428 Q 366 435 338 442 Q 334 443 332 442 C 302 440 308 432 331 412 Z" class="stroke4"/>
    <path d="M 664 736 Q 776 767 780 770 Q 787 777 783 785 Q 776 795 749 801 Q 721 805 637 772 Q 619 769 615 765 Q 576 759 531 750 Q 497 743 522 729 Q 561 711 614 724 L 664 736 Z" class="stroke5"/>
    <path d="M 661 638 Q 665 669 671 693 Q 672 697 672 701 Q 681 717 673 727 Q 669 733 664 736 C 640 754 614 754 614 724 Q 614 708 615 629 C 615 599 657 608 661 638 Z" class="stroke6"/>
    <path d="M 615 629 Q 536 616 450 600 Q 432 597 446 583 Q 473 562 515 572 Q 686 626 905 626 L 907 626 Q 925 627 928 634 Q 932 644 918 656 Q 867 687 812 671 Q 754 658 665 639 Q 662 639 661 638 L 615 629 Z" class="stroke7"/>
    <path d="M 536 510 Q 529 517 508 525 Q 499 529 489 524 Q 483 520 489 509 Q 490 503 493 497 Q 515 455 506 299 Q 488 220 523 184 Q 533 174 542 184 Q 549 194 551 205 L 553 239 Q 553 269 552 298 L 551 327 Q 551 364 551 392 L 550 419 Q 550 476 552 482 C 554 497 554 497 536 510 Z" class="stroke8"/>
    <path d="M 740 217 Q 743 210 749 200 Q 764 169 774 170 Q 789 171 806 206 Q 816 227 818 275 Q 799 434 829 481 Q 839 497 832 507 Q 804 532 757 553 Q 741 559 718 551 Q 654 524 536 510 C 506 506 522 480 552 482 Q 561 482 570 483 Q 649 499 705 508 Q 724 512 732 502 Q 745 486 745 431 Q 749 287 742 251 C 738 221 738 220 740 217 Z" class="stroke9"/>
    <path d="M 551 392 Q 554 392 558 392 Q 634 404 691 411 Q 713 415 705 428 Q 695 443 669 447 Q 639 450 550 419 C 522 409 521 392 551 392 Z" class="stroke10"/>
    <path d="M 552 298 Q 633 310 694 316 Q 718 320 709 332 Q 699 347 673 352 Q 651 356 551 327 C 522 319 522 294 552 298 Z" class="stroke11"/>
    <path d="M 551 205 Q 555 205 563 205 Q 618 215 740 217 C 770 218 766 233 742 251 L 734 257 Q 718 267 687 261 Q 614 246 553 239 C 523 235 521 205 551 205 Z" class="stroke12"/>
    <path d="M 559 160 Q 538 100 417 0 Q 396 -13 423 -12 Q 492 -3 589 88 Q 614 113 628 124 Q 638 134 637 145 Q 634 158 609 166 Q 581 176 569 174 Q 562 173 559 160 Z" class="stroke13"/>
    <path d="M 705 112 Q 750 60 801 -12 Q 814 -34 828 -40 Q 837 -43 845 -34 Q 858 -22 852 22 Q 849 61 780 104 Q 735 129 710 142 Q 703 149 699 137 Q 696 124 705 112 Z" class="stroke14"/>
    
    
    
    
    
    
    
    
    
    
    
    
    
    </g>
</svg>