<svg version="1.1" viewBox="0 0 1024 1024" xmlns="http://www.w3.org/2000/svg">
  
  <g transform="scale(1, -1) translate(0, -900)">
    <style type="text/css">
        .stroke1 {fill: #808080;}
        .stroke2 {fill: #808079;}
        .stroke3 {fill: #808078;}
        .stroke4 {fill: #808077;}
        .stroke5 {fill: #808076;}
        .stroke6 {fill: #808075;}
        .stroke7 {fill: #808074;}
        .stroke8 {fill: #808073;}
        .stroke9 {fill: #808072;}
        .stroke10 {fill: #808071;}
        .stroke11 {fill: #808070;}
        .stroke12 {fill: #808069;}
        .stroke13 {fill: #808068;}
        .stroke14 {fill: #808067;}
        .stroke15 {fill: #808066;}
        .stroke16 {fill: #808065;}
        .stroke17 {fill: #808064;}
        .stroke18 {fill: #808063;}
        .stroke19 {fill: #808062;}
        .stroke20 {fill: #808061;}
        text {
            font-family: Helvetica;
            font-size: 50px;
            fill: #808060;
            paint-order: stroke;
            stroke: #000000;
            stroke-width: 4px;
            stroke-linecap: butt;
            stroke-linejoin: miter;
            font-weight: 800;
        }
    </style>

    <path d="M 262 643 Q 406 688 409 689 Q 416 696 412 705 Q 405 715 375 721 Q 347 724 318 710 Q 233 677 158 665 Q 124 656 150 642 Q 178 630 219 632 L 262 643 Z" class="stroke1"/>
    <path d="M 186 444 Q 220 492 233 511 L 245 532 Q 278 592 283 599 Q 289 609 281 621 Q 271 636 262 643 C 240 664 218 662 219 632 Q 226 553 83 369 Q 70 362 72 351 Q 72 347 77 347 Q 107 354 173 428 L 186 444 Z" class="stroke2"/>
    <path d="M 233 511 Q 246 505 271 510 Q 323 523 327 517 Q 334 501 313 441 Q 297 374 232 283 Q 169 186 60 89 Q 38 73 58 76 Q 143 85 252 230 Q 321 321 371 441 Q 395 499 412 515 Q 424 525 417 537 Q 411 547 359 567 Q 346 571 325 559 Q 300 546 245 532 C 216 524 203 515 233 511 Z" class="stroke3"/>
    <path d="M 173 428 Q 177 421 186 409 Q 240 340 245 338 Q 252 337 258 345 Q 262 354 262 375 Q 259 408 190 442 Q 187 443 186 444 C 159 458 157 454 173 428 Z" class="stroke4"/>
    <path d="M 606 818 Q 633 802 660 781 Q 675 771 689 774 Q 698 775 701 788 Q 702 801 691 828 Q 684 844 655 853 Q 586 865 575 859 Q 571 855 575 843 Q 579 833 606 818 Z" class="stroke5"/>
    <path d="M 488 708 Q 476 735 456 746 Q 452 750 447 746 Q 443 742 442 732 Q 448 705 423 645 Q 414 629 416 612 Q 420 594 429 581 Q 436 571 441 579 Q 447 580 454 595 Q 458 601 465 625 Q 483 680 487 685 C 493 697 493 697 488 708 Z" class="stroke6"/>
    <path d="M 487 685 Q 505 676 541 684 Q 634 720 779 735 Q 795 738 803 737 Q 813 730 809 725 Q 809 719 778 657 Q 769 644 775 640 Q 782 637 798 647 Q 849 680 890 690 Q 924 699 924 708 Q 921 718 860 762 Q 839 780 759 761 Q 731 758 560 722 Q 523 715 488 708 C 459 702 458 693 487 685 Z" class="stroke7"/>
    <path d="M 621 627 Q 733 660 736 661 Q 743 668 739 675 Q 732 684 709 688 Q 684 692 661 680 Q 636 670 606 661 Q 575 652 537 647 Q 509 640 530 628 Q 551 616 586 619 L 621 627 Z" class="stroke8"/>
    <path d="M 629 506 Q 630 510 634 570 Q 634 585 637 600 Q 641 616 627 624 Q 624 625 621 627 C 595 641 572 645 586 619 Q 601 595 592 521 Q 589 506 607 482 C 623 460 625 476 629 506 Z" class="stroke9"/>
    <path d="M 501 582 Q 482 549 458 520 Q 442 499 452 470 Q 456 457 473 465 Q 510 487 516 537 Q 522 562 518 580 Q 515 587 511 588 Q 504 588 501 582 Z" class="stroke10"/>
    <path d="M 638 455 Q 759 554 765 555 Q 778 559 779 567 Q 779 573 770 580 Q 745 599 721 606 Q 708 610 700 596 Q 690 571 629 506 L 607 482 Q 585 463 559 440 L 513 402 Q 384 306 319 267 Q 312 264 314 261 Q 314 258 321 259 Q 396 274 515 359 L 558 392 Q 559 393 562 395 Q 575 405 589 416 L 638 455 Z" class="stroke11"/>
    <path d="M 543 438 Q 542 439 540 440 Q 533 446 522 450 Q 515 454 505 450 Q 499 446 503 437 Q 504 431 507 426 Q 511 419 513 402 L 515 359 Q 518 284 507 232 Q 495 190 524 152 Q 533 142 541 152 Q 548 161 550 171 L 553 203 Q 553 209 554 255 L 554 278 Q 555 306 556 328 L 556 352 Q 557 380 558 392 L 543 438 Z" class="stroke12"/>
    <path d="M 589 416 Q 658 435 711 444 Q 730 448 738 438 Q 750 425 751 376 Q 755 256 751 220 L 748 191 Q 749 181 757 171 Q 770 146 778 146 Q 791 147 805 178 Q 817 202 813 245 Q 801 389 822 423 Q 832 438 824 447 Q 799 469 755 486 Q 740 490 719 483 Q 685 467 638 455 C 609 447 560 408 589 416 Z" class="stroke13"/>
    <path d="M 556 328 Q 563 327 574 329 Q 649 344 704 353 Q 726 357 717 369 Q 707 382 683 386 Q 658 387 556 352 C 528 342 526 330 556 328 Z" class="stroke14"/>
    <path d="M 554 255 Q 563 254 574 255 Q 653 267 711 273 Q 733 277 725 289 Q 715 302 691 307 Q 666 313 554 278 C 525 269 524 257 554 255 Z" class="stroke15"/>
    <path d="M 550 171 Q 556 170 564 171 Q 622 184 748 191 C 778 193 774 201 751 220 Q 747 224 740 228 Q 725 235 696 230 Q 617 212 553 203 C 523 199 520 173 550 171 Z" class="stroke16"/>
    <path d="M 548 123 Q 526 63 402 -28 Q 380 -41 407 -40 Q 461 -43 573 44 Q 574 47 577 48 Q 605 70 618 81 Q 631 91 629 102 Q 628 115 601 126 Q 573 139 560 137 Q 553 136 548 123 Z" class="stroke17"/>
    <path d="M 706 103 Q 749 54 799 -16 Q 812 -38 828 -45 Q 837 -46 845 -38 Q 860 -25 852 20 Q 846 75 711 135 Q 702 141 699 128 Q 696 115 706 103 Z" class="stroke18"/>
    
    
    
    
    
    
    
    
    
    
    
    
    
    
    
    
    
    </g>
</svg>