<svg version="1.1" viewBox="0 0 1024 1024" xmlns="http://www.w3.org/2000/svg">
  
  <g transform="scale(1, -1) translate(0, -900)">
    <style type="text/css">
        .stroke1 {fill: #808080;}
        .stroke2 {fill: #808079;}
        .stroke3 {fill: #808078;}
        .stroke4 {fill: #808077;}
        .stroke5 {fill: #808076;}
        .stroke6 {fill: #808075;}
        .stroke7 {fill: #808074;}
        .stroke8 {fill: #808073;}
        .stroke9 {fill: #808072;}
        .stroke10 {fill: #808071;}
        .stroke11 {fill: #808070;}
        .stroke12 {fill: #808069;}
        .stroke13 {fill: #808068;}
        .stroke14 {fill: #808067;}
        .stroke15 {fill: #808066;}
        .stroke16 {fill: #808065;}
        .stroke17 {fill: #808064;}
        .stroke18 {fill: #808063;}
        .stroke19 {fill: #808062;}
        .stroke20 {fill: #808061;}
        text {
            font-family: Helvetica;
            font-size: 50px;
            fill: #808060;
            paint-order: stroke;
            stroke: #000000;
            stroke-width: 4px;
            stroke-linecap: butt;
            stroke-linejoin: miter;
            font-weight: 800;
        }
    </style>

    <path d="M 252 602 Q 412 653 417 657 Q 426 664 420 673 Q 413 683 383 688 Q 355 691 326 677 Q 289 661 246 646 Q 200 631 146 621 Q 112 612 138 598 Q 168 585 212 590 L 252 602 Z" class="stroke1"/>
    <path d="M 212 453 Q 284 564 284 570 L 283 571 Q 279 581 256 600 Q 255 601 252 602 C 227 619 207 620 212 590 Q 225 553 149 430 Q 112 372 61 309 Q 54 302 51 296 Q 48 286 60 289 Q 75 292 129 348 L 141 362 Q 171 401 204 441 L 212 453 Z" class="stroke2"/>
    <path d="M 204 441 L 205 439 Q 215 429 243 436 Q 288 448 291 442 Q 297 429 282 377 Q 270 320 218 241 Q 169 156 79 72 Q 60 57 77 60 Q 173 75 291 281 Q 315 327 335 378 Q 354 427 368 442 Q 378 452 372 462 Q 368 471 319 487 Q 309 491 289 480 Q 267 467 212 453 C 191 447 191 447 204 441 Z" class="stroke3"/>
    <path d="M 129 348 Q 132 342 139 331 Q 161 300 182 265 Q 188 255 198 252 Q 204 251 210 257 Q 216 264 216 285 Q 216 318 145 361 Q 144 362 141 362 C 118 368 118 368 129 348 Z" class="stroke4"/>
    <path d="M 608 741 Q 618 762 632 773 Q 639 783 635 796 Q 631 808 603 827 Q 578 843 559 842 Q 543 839 551 819 Q 563 795 555 773 Q 531 701 492 632 Q 455 566 401 493 Q 392 483 390 477 Q 387 467 400 470 Q 448 477 565 664 Q 592 715 597 720 L 608 741 Z" class="stroke5"/>
    <path d="M 597 720 Q 762 507 814 490 Q 884 480 973 491 Q 991 492 992 498 Q 995 504 981 510 Q 810 582 779 602 Q 776 605 773 606 Q 719 640 608 741 C 586 761 579 744 597 720 Z" class="stroke6"/>
    <path d="M 482 499 Q 449 492 474 477 Q 516 456 563 474 Q 612 487 662 500 Q 686 507 689 510 Q 696 517 692 525 Q 685 535 657 540 Q 629 544 603 531 Q 578 521 549 513 Q 518 504 482 499 Z" class="stroke7"/>
    <path d="M 426 244 Q 427 247 427 249 L 426 273 Q 417 336 416 355 C 415 372 415 372 404 376 Q 395 380 372 384 Q 363 385 360 382 Q 356 378 362 364 Q 381 330 394 270 Q 395 252 407 241 Q 410 238 412 235 C 422 222 422 222 426 244 Z" class="stroke8"/>
    <path d="M 530 299 Q 540 348 556 364 Q 572 383 554 393 Q 541 400 519 413 Q 506 420 492 411 Q 467 393 404 376 C 375 368 387 346 416 355 Q 443 364 479 373 Q 495 377 499 371 Q 505 367 500 344 Q 496 323 492 298 C 487 268 524 270 530 299 Z" class="stroke9"/>
    <path d="M 427 249 Q 434 248 443 251 Q 474 263 542 277 Q 549 278 550 285 Q 549 291 530 299 L 492 298 L 491 298 Q 455 283 426 273 C 398 263 397 251 427 249 Z" class="stroke10"/>
    <path d="M 607 409 Q 600 413 580 416 Q 571 417 568 414 Q 564 410 570 397 Q 589 360 602 299 Q 603 281 615 269 Q 628 253 633 264 Q 634 271 636 279 L 634 305 Q 624 369 624 387 C 624 402 624 402 607 409 Z" class="stroke11"/>
    <path d="M 752 326 Q 765 374 781 389 Q 800 411 780 423 Q 764 433 740 447 Q 727 454 679 431 Q 628 415 607 409 C 578 401 596 378 624 387 Q 630 390 691 404 Q 710 408 714 401 Q 720 397 715 372 Q 711 350 705 324 C 698 295 744 297 752 326 Z" class="stroke12"/>
    <path d="M 636 279 Q 678 289 764 302 Q 771 303 772 309 Q 772 315 752 326 C 740 333 734 331 705 324 Q 665 314 634 305 C 605 297 607 272 636 279 Z" class="stroke13"/>
    <path d="M 447 157 Q 460 176 476 193 Q 485 202 474 215 Q 444 245 426 244 C 412 246 412 246 412 235 Q 411 234 412 231 Q 413 143 317 59 Q 293 38 282 26 Q 275 14 286 17 Q 340 23 417 116 Q 426 134 436 142 L 447 157 Z" class="stroke14"/>
    <path d="M 436 142 Q 440 138 451 129 Q 508 77 516 77 Q 523 77 526 85 Q 529 92 524 111 Q 517 138 449 157 L 447 157 C 417 161 416 161 436 142 Z" class="stroke15"/>
    <path d="M 679 156 Q 722 232 723 233 Q 722 240 710 251 Q 679 275 652 268 Q 645 267 648 255 Q 666 167 492 -14 Q 485 -18 495 -20 Q 552 -5 630 86 Q 631 89 634 91 Q 647 109 665 135 L 679 156 Z" class="stroke16"/>
    <path d="M 665 135 Q 666 134 669 131 Q 730 79 804 1 Q 819 -18 834 -22 Q 841 -23 849 -13 Q 861 -1 848 41 Q 835 90 679 156 C 651 168 643 156 665 135 Z" class="stroke17"/>
    
    
    
    
    
    
    
    
    
    
    
    
    
    
    
    
    </g>
</svg>