<svg version="1.1" viewBox="0 0 1024 1024" xmlns="http://www.w3.org/2000/svg">
  
  <g transform="scale(1, -1) translate(0, -900)">
    <style type="text/css">
        .stroke1 {fill: #808080;}
        .stroke2 {fill: #808079;}
        .stroke3 {fill: #808078;}
        .stroke4 {fill: #808077;}
        .stroke5 {fill: #808076;}
        .stroke6 {fill: #808075;}
        .stroke7 {fill: #808074;}
        .stroke8 {fill: #808073;}
        .stroke9 {fill: #808072;}
        .stroke10 {fill: #808071;}
        .stroke11 {fill: #808070;}
        .stroke12 {fill: #808069;}
        .stroke13 {fill: #808068;}
        .stroke14 {fill: #808067;}
        .stroke15 {fill: #808066;}
        .stroke16 {fill: #808065;}
        .stroke17 {fill: #808064;}
        .stroke18 {fill: #808063;}
        .stroke19 {fill: #808062;}
        .stroke20 {fill: #808061;}
        text {
            font-family: Helvetica;
            font-size: 50px;
            fill: #808060;
            paint-order: stroke;
            stroke: #000000;
            stroke-width: 4px;
            stroke-linecap: butt;
            stroke-linejoin: miter;
            font-weight: 800;
        }
    </style>

    <path d="M 369 711 Q 329 742 318 732 Q 312 722 313 711 Q 332 680 333 642 Q 333 554 316 447 L 309 404 Q 279 236 229 183 Q 213 161 252 123 Q 261 114 275 123 Q 345 156 507 145 Q 556 141 602 128 C 631 121 661 158 635 174 Q 596 207 531 196 Q 420 196 316 184 Q 295 181 301 199 Q 328 319 347 409 L 356 451 Q 375 551 383 610 Q 389 673 393 675 C 397 692 394 694 369 711 Z" class="stroke1"/>
    <path d="M 741 482 Q 744 656 754 679 Q 767 703 756 710 Q 749 723 691 759 Q 676 772 654 761 Q 546 731 369 711 C 339 707 363 670 393 675 Q 406 676 423 680 Q 636 728 665 700 Q 678 694 680 670 Q 687 561 687 478 L 686 434 Q 686 256 636 176 Q 635 176 635 174 C 621 147 598 136 602 128 Q 615 107 623 89 Q 648 67 664 82 Q 719 155 740 434 L 741 482 Z" class="stroke2"/>
    <path d="M 457 336 Q 453 320 460 290 Q 470 260 480 250 Q 496 237 506 260 Q 512 276 529 426 L 535 466 Q 548 560 557 589 Q 564 613 555 622 Q 539 640 528 652 Q 518 665 502 671 Q 493 672 490 667 Q 484 654 496 623 Q 505 598 501 538 Q 498 525 498 509 Q 495 487 491 463 L 483 422 Q 473 379 457 336 Z" class="stroke3"/>
    <path d="M 740 434 Q 825 433 929 418 Q 954 415 960 424 Q 969 437 956 450 Q 926 480 882 501 Q 867 508 840 500 Q 798 490 741 482 L 687 478 Q 605 474 535 466 L 491 463 Q 418 459 356 451 L 316 447 Q 91 435 86 434 Q 73 435 70 423 Q 69 410 88 395 Q 133 362 168 371 Q 240 398 309 404 L 347 409 Q 402 416 483 422 L 529 426 Q 664 436 686 434 L 740 434 Z" class="stroke4"/>
    
    
    
    </g>
</svg>