<svg version="1.1" viewBox="0 0 1024 1024" xmlns="http://www.w3.org/2000/svg">
  
  <g transform="scale(1, -1) translate(0, -900)">
    <style type="text/css">
        .stroke1 {fill: #808080;}
        .stroke2 {fill: #808079;}
        .stroke3 {fill: #808078;}
        .stroke4 {fill: #808077;}
        .stroke5 {fill: #808076;}
        .stroke6 {fill: #808075;}
        .stroke7 {fill: #808074;}
        .stroke8 {fill: #808073;}
        .stroke9 {fill: #808072;}
        .stroke10 {fill: #808071;}
        .stroke11 {fill: #808070;}
        .stroke12 {fill: #808069;}
        .stroke13 {fill: #808068;}
        .stroke14 {fill: #808067;}
        .stroke15 {fill: #808066;}
        .stroke16 {fill: #808065;}
        .stroke17 {fill: #808064;}
        .stroke18 {fill: #808063;}
        .stroke19 {fill: #808062;}
        .stroke20 {fill: #808061;}
        text {
            font-family: Helvetica;
            font-size: 50px;
            fill: #808060;
            paint-order: stroke;
            stroke: #000000;
            stroke-width: 4px;
            stroke-linecap: butt;
            stroke-linejoin: miter;
            font-weight: 800;
        }
    </style>

    <path d="M 380 730 Q 399 758 418 782 Q 428 795 414 809 Q 375 845 348 841 Q 336 840 338 825 Q 347 729 241 616 Q 237 612 232 607 Q 204 580 189 564 Q 182 549 196 553 Q 215 556 239 574 Q 318 629 363 703 Q 364 706 365 707 L 380 730 Z" class="stroke1"/>
    <path d="M 365 707 Q 402 686 452 698 Q 543 716 637 735 Q 680 745 687 750 Q 694 757 691 765 Q 684 775 658 783 Q 630 789 603 778 Q 554 762 501 749 Q 444 737 380 730 C 350 727 338 720 365 707 Z" class="stroke2"/>
    <path d="M 381 615 Q 351 608 374 596 Q 407 578 452 593 Q 515 609 579 628 Q 609 637 613 641 Q 620 648 615 655 Q 608 664 585 668 Q 560 671 537 660 Q 504 647 468 634 Q 428 622 381 615 Z" class="stroke3"/>
    <path d="M 245 490 Q 220 489 234 472 Q 247 457 272 447 Q 297 437 328 450 Q 404 478 620 527 Q 645 534 641 509 Q 593 229 686 87 Q 693 75 703 64 Q 743 16 807 -15 Q 856 -39 908 -38 Q 950 -37 974 -22 Q 987 -16 980 6 Q 956 64 938 144 Q 932 169 924 146 Q 903 47 893 37 Q 881 25 861 33 Q 815 43 768 79 Q 722 116 699 172 Q 648 304 694 462 Q 706 499 741 524 Q 757 534 754 546 Q 750 559 688 588 Q 667 598 646 585 Q 504 507 245 490 Z" class="stroke4"/>
    <path d="M 315 363 Q 376 382 425 390 Q 440 394 444 388 Q 448 382 442 370 Q 417 304 390 279 Q 380 272 382 260 Q 385 241 394 234 Q 404 228 415 236 Q 452 255 487 257 Q 505 258 510 251 Q 519 236 515 208 Q 508 135 480 76 Q 473 57 455 50 Q 443 49 370 74 Q 346 84 365 60 Q 401 17 427 -20 Q 443 -41 464 -30 Q 498 -11 516 14 Q 537 42 556 141 Q 569 202 587 228 Q 603 241 593 253 Q 581 266 546 286 Q 525 296 506 289 Q 470 279 461 280 Q 442 281 453 304 Q 486 365 514 384 Q 536 396 531 407 Q 528 417 483 438 Q 468 445 453 438 Q 404 411 209 380 Q 200 381 199 375 Q 196 369 220 353 Q 244 337 268 349 Q 275 352 285 354 L 315 363 Z" class="stroke5"/>
    <path d="M 285 354 L 286 353 Q 295 242 188 128 Q 185 127 184 124 Q 154 90 80 31 Q 73 25 79 22 Q 85 21 94 24 Q 148 45 192 82 Q 270 139 327 277 Q 337 299 350 320 Q 357 327 352 337 Q 343 353 315 363 C 287 375 282 377 285 354 Z" class="stroke6"/>
    
    
    
    
    
    </g>
</svg>