<svg version="1.1" viewBox="0 0 1024 1024" xmlns="http://www.w3.org/2000/svg">
  
  <g transform="scale(1, -1) translate(0, -900)">
    <style type="text/css">
        .stroke1 {fill: #808080;}
        .stroke2 {fill: #808079;}
        .stroke3 {fill: #808078;}
        .stroke4 {fill: #808077;}
        .stroke5 {fill: #808076;}
        .stroke6 {fill: #808075;}
        .stroke7 {fill: #808074;}
        .stroke8 {fill: #808073;}
        .stroke9 {fill: #808072;}
        .stroke10 {fill: #808071;}
        .stroke11 {fill: #808070;}
        .stroke12 {fill: #808069;}
        .stroke13 {fill: #808068;}
        .stroke14 {fill: #808067;}
        .stroke15 {fill: #808066;}
        .stroke16 {fill: #808065;}
        .stroke17 {fill: #808064;}
        .stroke18 {fill: #808063;}
        .stroke19 {fill: #808062;}
        .stroke20 {fill: #808061;}
        text {
            font-family: Helvetica;
            font-size: 50px;
            fill: #808060;
            paint-order: stroke;
            stroke: #000000;
            stroke-width: 4px;
            stroke-linecap: butt;
            stroke-linejoin: miter;
            font-weight: 800;
        }
    </style>

    <path d="M 449 769 Q 455 784 472 800 Q 479 806 477 816 Q 476 826 463 837 Q 433 864 398 860 Q 389 857 391 845 Q 401 815 362 741 Q 329 681 229 580 Q 222 574 231 572 Q 273 572 374 671 Q 375 674 379 676 Q 401 703 435 749 L 449 769 Z" class="stroke1"/>
    <path d="M 435 749 Q 472 725 524 737 Q 612 752 702 768 Q 744 777 750 782 Q 759 789 754 797 Q 748 807 722 815 Q 700 821 615 796 Q 494 775 449 769 C 419 765 410 764 435 749 Z" class="stroke2"/>
    <path d="M 399 646 Q 366 640 390 625 Q 432 604 480 618 Q 541 631 606 646 Q 634 653 640 658 Q 647 665 643 673 Q 636 683 609 690 Q 587 693 500 665 Q 410 649 399 646 Z" class="stroke3"/>
    <path d="M 205 516 Q 180 515 193 497 Q 206 481 233 470 Q 258 458 291 472 Q 385 503 652 556 Q 676 562 672 538 Q 620 306 673 144 Q 688 99 715 67 Q 754 15 821 -22 Q 872 -49 925 -51 Q 970 -52 995 -37 Q 1010 -33 1003 -9 Q 982 55 969 143 Q 965 170 955 146 Q 925 40 914 29 Q 901 17 880 26 Q 763 60 716 180 Q 671 319 725 486 Q 740 523 778 548 Q 796 558 792 571 Q 789 584 725 617 Q 703 629 681 615 Q 510 530 205 516 Z" class="stroke4"/>
    <path d="M 425 411 Q 492 424 549 430 Q 574 434 565 448 Q 555 464 527 468 Q 502 472 459 461 Q 389 442 328 426 Q 310 422 332 406 Q 338 402 393 406 L 425 411 Z" class="stroke5"/>
    <path d="M 268 373 Q 256 334 225 297 Q 218 290 217 282 Q 216 273 235 258 Q 259 242 292 208 Q 304 192 313 196 Q 325 197 329 212 Q 333 231 326 244 Q 317 260 257 274 Q 247 277 247 281 Q 247 290 281 322 Q 306 346 317 351 Q 326 354 328 360 Q 332 373 316 393 Q 303 412 287 417 Q 272 420 267 415 Q 266 412 268 404 Q 275 392 268 373 Z" class="stroke6"/>
    <path d="M 393 406 Q 400 397 396 379 Q 392 342 364 302 Q 357 295 357 289 Q 357 282 375 269 Q 394 254 424 225 Q 434 212 443 214 Q 453 215 457 228 Q 461 246 455 256 Q 446 271 394 284 Q 385 287 385 291 Q 382 298 412 334 Q 433 359 441 365 Q 448 369 450 374 Q 453 386 435 402 Q 431 408 425 411 C 401 429 380 433 393 406 Z" class="stroke7"/>
    <path d="M 522 364 Q 510 333 488 305 Q 481 295 484 286 Q 485 277 499 269 Q 535 245 567 218 Q 580 206 591 207 Q 601 208 601 227 Q 601 245 590 256 Q 583 268 534 278 Q 521 279 515 288 Q 511 294 518 304 Q 567 355 577 360 Q 589 366 585 380 Q 575 408 558 419 Q 548 426 539 425 Q 529 424 533 410 Q 537 391 522 364 Z" class="stroke8"/>
    <path d="M 433 145 Q 445 148 549 162 Q 558 161 565 171 Q 566 180 548 189 Q 515 207 441 183 Q 431 182 420 178 Q 390 172 263 155 Q 241 152 258 138 Q 285 120 322 126 Q 349 132 382 137 L 433 145 Z" class="stroke9"/>
    <path d="M 433 62 L 433 145 C 433 175 382 167 382 137 L 382 56 C 382 26 433 32 433 62 Z" class="stroke10"/>
    <path d="M 382 56 Q 273 44 140 29 Q 121 28 135 11 Q 148 -2 165 -9 Q 186 -13 201 -10 Q 328 23 618 23 Q 634 23 650 22 Q 669 21 674 30 Q 680 40 664 55 Q 607 97 545 80 Q 497 73 433 62 L 382 56 Z" class="stroke11"/>
    
    
    
    
    
    
    
    
    
    
    </g>
</svg>