<svg version="1.1" viewBox="0 0 1024 1024" xmlns="http://www.w3.org/2000/svg">
  
  <g transform="scale(1, -1) translate(0, -900)">
    <style type="text/css">
        .stroke1 {fill: #808080;}
        .stroke2 {fill: #808079;}
        .stroke3 {fill: #808078;}
        .stroke4 {fill: #808077;}
        .stroke5 {fill: #808076;}
        .stroke6 {fill: #808075;}
        .stroke7 {fill: #808074;}
        .stroke8 {fill: #808073;}
        .stroke9 {fill: #808072;}
        .stroke10 {fill: #808071;}
        .stroke11 {fill: #808070;}
        .stroke12 {fill: #808069;}
        .stroke13 {fill: #808068;}
        .stroke14 {fill: #808067;}
        .stroke15 {fill: #808066;}
        .stroke16 {fill: #808065;}
        .stroke17 {fill: #808064;}
        .stroke18 {fill: #808063;}
        .stroke19 {fill: #808062;}
        .stroke20 {fill: #808061;}
        text {
            font-family: Helvetica;
            font-size: 50px;
            fill: #808060;
            paint-order: stroke;
            stroke: #000000;
            stroke-width: 4px;
            stroke-linecap: butt;
            stroke-linejoin: miter;
            font-weight: 800;
        }
    </style>

    <path d="M 259 747 Q 286 725 315 697 Q 331 684 348 685 Q 360 686 365 700 Q 369 716 358 749 Q 346 779 252 799 Q 234 803 228 799 Q 222 795 225 781 Q 229 768 259 747 Z" class="stroke1"/>
    <path d="M 144 561 Q 189 495 224 477 Q 240 473 251 485 Q 258 498 258 516 Q 249 567 162 600 Q 144 607 134 604 Q 127 604 129 590 Q 129 577 144 561 Z" class="stroke2"/>
    <path d="M 149 194 Q 136 190 139 172 Q 151 97 188 75 Q 195 68 206 71 Q 215 72 215 99 Q 224 156 317 391 Q 324 407 323 414 Q 322 424 313 417 Q 303 411 188 234 Q 175 215 149 194 Z" class="stroke3"/>
    <path d="M 630 698 Q 786 731 791 735 Q 800 742 795 752 Q 788 764 758 772 Q 733 776 626 746 Q 536 728 478 722 Q 441 716 467 698 Q 506 677 562 684 L 630 698 Z" class="stroke4"/>
    <path d="M 649 455 Q 709 461 924 462 Q 946 462 951 472 Q 958 485 939 500 Q 882 543 840 535 Q 768 520 649 501 L 590 493 Q 482 480 362 464 Q 338 463 356 443 Q 372 428 391 422 Q 415 415 433 421 Q 506 440 590 449 L 649 455 Z" class="stroke5"/>
    <path d="M 647 47 Q 654 132 652 216 Q 648 271 649 455 L 649 501 Q 649 577 661 656 Q 665 675 649 687 Q 639 694 630 698 C 604 713 548 711 562 684 Q 587 642 588 585 Q 588 543 590 493 L 590 449 Q 590 19 602 -11 Q 605 -18 609 -25 Q 615 -32 623 -30 Q 641 -21 647 47 Z" class="stroke6"/>
    
    
    
    
    
    </g>
</svg>