<svg version="1.1" viewBox="0 0 1024 1024" xmlns="http://www.w3.org/2000/svg">
  
  <g transform="scale(1, -1) translate(0, -900)">
    <style type="text/css">
        .stroke1 {fill: #808080;}
        .stroke2 {fill: #808079;}
        .stroke3 {fill: #808078;}
        .stroke4 {fill: #808077;}
        .stroke5 {fill: #808076;}
        .stroke6 {fill: #808075;}
        .stroke7 {fill: #808074;}
        .stroke8 {fill: #808073;}
        .stroke9 {fill: #808072;}
        .stroke10 {fill: #808071;}
        .stroke11 {fill: #808070;}
        .stroke12 {fill: #808069;}
        .stroke13 {fill: #808068;}
        .stroke14 {fill: #808067;}
        .stroke15 {fill: #808066;}
        .stroke16 {fill: #808065;}
        .stroke17 {fill: #808064;}
        .stroke18 {fill: #808063;}
        .stroke19 {fill: #808062;}
        .stroke20 {fill: #808061;}
        text {
            font-family: Helvetica;
            font-size: 50px;
            fill: #808060;
            paint-order: stroke;
            stroke: #000000;
            stroke-width: 4px;
            stroke-linecap: butt;
            stroke-linejoin: miter;
            font-weight: 800;
        }
    </style>

    <path d="M 228 697 Q 253 673 279 645 Q 294 630 311 630 Q 323 630 328 645 Q 334 661 325 694 Q 321 713 289 729 Q 216 757 200 751 Q 194 747 196 733 Q 199 720 228 697 Z" class="stroke1"/>
    <path d="M 126 513 Q 169 456 204 439 Q 220 435 231 449 Q 238 462 236 480 Q 227 522 141 554 Q 125 560 114 557 Q 107 556 109 542 Q 110 529 126 513 Z" class="stroke2"/>
    <path d="M 118 118 Q 105 114 108 95 Q 126 14 162 -4 Q 169 -11 181 -8 Q 188 -7 189 20 Q 195 71 305 366 Q 312 382 311 390 Q 310 400 301 393 Q 289 386 278 367 Q 217 261 163 168 Q 150 143 118 118 Z" class="stroke3"/>
    <path d="M 505 581 Q 539 627 577 693 Q 595 729 611 746 Q 620 758 614 772 Q 610 785 578 807 Q 548 823 529 822 Q 510 819 519 797 Q 541 758 470 619 Q 436 555 389 485 Q 379 473 377 467 Q 374 454 389 458 Q 420 470 486 555 L 505 581 Z" class="stroke4"/>
    <path d="M 486 555 L 487 555 Q 529 534 603 551 Q 681 569 763 589 Q 802 599 808 605 Q 817 615 812 623 Q 803 636 772 642 Q 739 648 653 614 Q 517 584 505 581 C 476 574 458 566 486 555 Z" class="stroke5"/>
    <path d="M 403 385 Q 388 382 386 374 Q 385 367 393 363 Q 427 356 460 364 Q 524 392 552 399 Q 574 403 577 396 Q 581 386 567 370 Q 417 187 412 98 Q 418 58 450 34 Q 528 -27 712 -16 Q 811 -9 926 45 Q 957 64 946 88 Q 916 145 892 241 Q 885 254 878 253 Q 872 252 870 235 Q 867 201 865 163 Q 861 111 824 85 Q 778 57 670 49 Q 562 40 520 58 Q 483 74 468 111 Q 456 189 590 324 Q 632 366 672 383 Q 697 393 689 408 Q 682 424 632 452 Q 613 465 585 452 Q 488 403 403 385 Z" class="stroke6"/>
    
    
    
    
    
    </g>
</svg>