<svg version="1.1" viewBox="0 0 1024 1024" xmlns="http://www.w3.org/2000/svg">
  
  <g transform="scale(1, -1) translate(0, -900)">
    <style type="text/css">
        .stroke1 {fill: #808080;}
        .stroke2 {fill: #808079;}
        .stroke3 {fill: #808078;}
        .stroke4 {fill: #808077;}
        .stroke5 {fill: #808076;}
        .stroke6 {fill: #808075;}
        .stroke7 {fill: #808074;}
        .stroke8 {fill: #808073;}
        .stroke9 {fill: #808072;}
        .stroke10 {fill: #808071;}
        .stroke11 {fill: #808070;}
        .stroke12 {fill: #808069;}
        .stroke13 {fill: #808068;}
        .stroke14 {fill: #808067;}
        .stroke15 {fill: #808066;}
        .stroke16 {fill: #808065;}
        .stroke17 {fill: #808064;}
        .stroke18 {fill: #808063;}
        .stroke19 {fill: #808062;}
        .stroke20 {fill: #808061;}
        text {
            font-family: Helvetica;
            font-size: 50px;
            fill: #808060;
            paint-order: stroke;
            stroke: #000000;
            stroke-width: 4px;
            stroke-linecap: butt;
            stroke-linejoin: miter;
            font-weight: 800;
        }
    </style>

    <path d="M 217 709 Q 250 684 285 652 Q 301 639 319 640 Q 332 641 336 656 Q 340 674 329 707 Q 322 729 285 745 Q 200 770 184 764 Q 178 758 181 744 Q 185 731 217 709 Z" class="stroke1"/>
    <path d="M 104 517 Q 147 466 187 445 Q 203 442 214 457 Q 221 470 218 490 Q 206 536 142 553 Q 103 568 89 561 Q 82 560 85 546 Q 86 533 104 517 Z" class="stroke2"/>
    <path d="M 119 118 Q 106 114 107 96 Q 119 17 157 -6 Q 164 -13 176 -11 Q 183 -10 186 18 Q 195 72 304 334 Q 311 350 311 357 Q 310 369 300 361 Q 287 352 162 161 Q 149 139 119 118 Z" class="stroke3"/>
    <path d="M 514 748 Q 580 678 618 664 Q 636 661 646 677 Q 653 692 649 711 Q 637 760 535 790 Q 531 791 528 793 Q 509 797 497 793 Q 490 792 493 777 Q 496 764 514 748 Z" class="stroke4"/>
    <path d="M 640 519 Q 700 528 834 540 Q 855 541 859 551 Q 863 564 845 577 Q 787 613 750 599 Q 644 568 335 496 Q 313 492 331 476 Q 347 463 366 459 Q 388 455 404 462 Q 524 504 589 510 L 640 519 Z" class="stroke5"/>
    <path d="M 612 232 Q 657 325 678 435 Q 682 462 690 473 Q 697 480 691 493 Q 681 505 640 519 C 612 529 576 537 589 510 Q 590 506 594 501 Q 633 422 572 277 Q 571 276 571 274 L 548 235 Q 544 231 540 224 Q 483 149 318 80 Q 290 67 323 65 Q 413 62 525 132 Q 528 135 583 189 L 612 232 Z" class="stroke6"/>
    <path d="M 583 189 Q 638 122 729 38 Q 762 10 812 17 Q 879 24 927 30 Q 942 31 957 38 Q 966 45 952 55 Q 934 65 797 109 Q 704 140 612 232 L 571 274 Q 531 317 490 367 Q 468 395 428 403 Q 416 406 407 399 Q 401 392 410 384 Q 419 377 427 372 Q 455 359 548 235 L 583 189 Z" class="stroke7"/>
    
    
    
    
    
    
    </g>
</svg>