<svg version="1.1" viewBox="0 0 1024 1024" xmlns="http://www.w3.org/2000/svg">
  
  <g transform="scale(1, -1) translate(0, -900)">
    <style type="text/css">
        .stroke1 {fill: #808080;}
        .stroke2 {fill: #808079;}
        .stroke3 {fill: #808078;}
        .stroke4 {fill: #808077;}
        .stroke5 {fill: #808076;}
        .stroke6 {fill: #808075;}
        .stroke7 {fill: #808074;}
        .stroke8 {fill: #808073;}
        .stroke9 {fill: #808072;}
        .stroke10 {fill: #808071;}
        .stroke11 {fill: #808070;}
        .stroke12 {fill: #808069;}
        .stroke13 {fill: #808068;}
        .stroke14 {fill: #808067;}
        .stroke15 {fill: #808066;}
        .stroke16 {fill: #808065;}
        .stroke17 {fill: #808064;}
        .stroke18 {fill: #808063;}
        .stroke19 {fill: #808062;}
        .stroke20 {fill: #808061;}
        text {
            font-family: Helvetica;
            font-size: 50px;
            fill: #808060;
            paint-order: stroke;
            stroke: #000000;
            stroke-width: 4px;
            stroke-linecap: butt;
            stroke-linejoin: miter;
            font-weight: 800;
        }
    </style>

    <path d="M 217 724 Q 245 702 275 675 Q 291 662 308 664 Q 320 665 325 680 Q 329 696 317 729 Q 305 759 208 776 Q 190 779 184 775 Q 178 771 181 757 Q 185 744 217 724 Z" class="stroke1"/>
    <path d="M 122 525 Q 173 477 211 463 Q 227 462 235 476 Q 239 489 236 507 Q 214 553 134 565 Q 133 566 131 566 Q 113 569 105 564 Q 98 563 102 550 Q 105 538 122 525 Z" class="stroke2"/>
    <path d="M 122 186 Q 109 183 111 165 Q 123 89 160 67 Q 167 60 178 62 Q 185 63 187 90 Q 196 147 297 391 Q 304 407 303 414 Q 302 424 293 417 Q 275 405 163 227 Q 150 208 122 186 Z" class="stroke3"/>
    <path d="M 475 631 Q 619 691 641 703 Q 686 725 725 736 Q 743 739 746 747 Q 749 757 735 769 Q 669 808 636 801 Q 629 797 629 785 Q 630 749 467 652 C 441 637 447 619 475 631 Z" class="stroke4"/>
    <path d="M 465 486 Q 472 630 475 631 C 477 647 477 647 467 652 Q 463 656 457 658 Q 405 683 388 680 Q 366 676 384 652 Q 420 592 402 375 Q 395 309 365 233 Q 335 160 247 70 Q 232 55 229 49 Q 228 42 240 42 Q 286 46 356 126 Q 437 219 454 365 Q 458 404 463 451 L 465 486 Z" class="stroke5"/>
    <path d="M 682 489 Q 698 492 894 510 Q 913 511 918 521 Q 922 533 905 545 Q 850 581 796 564 Q 769 558 465 486 C 436 479 433 456 463 451 Q 496 444 513 449 Q 564 467 622 477 L 682 489 Z" class="stroke6"/>
    <path d="M 649 -32 Q 653 -59 661 -69 Q 667 -76 675 -74 Q 690 -65 697 -2 Q 704 61 703 123 Q 697 358 714 448 Q 718 467 703 476 Q 691 483 682 489 C 657 505 613 505 622 477 Q 638 432 643 384 Q 647 -30 649 -32 Z" class="stroke7"/>
    
    
    
    
    
    
    </g>
</svg>