<svg version="1.1" viewBox="0 0 1024 1024" xmlns="http://www.w3.org/2000/svg">
  
  <g transform="scale(1, -1) translate(0, -900)">
    <style type="text/css">
        .stroke1 {fill: #808080;}
        .stroke2 {fill: #808079;}
        .stroke3 {fill: #808078;}
        .stroke4 {fill: #808077;}
        .stroke5 {fill: #808076;}
        .stroke6 {fill: #808075;}
        .stroke7 {fill: #808074;}
        .stroke8 {fill: #808073;}
        .stroke9 {fill: #808072;}
        .stroke10 {fill: #808071;}
        .stroke11 {fill: #808070;}
        .stroke12 {fill: #808069;}
        .stroke13 {fill: #808068;}
        .stroke14 {fill: #808067;}
        .stroke15 {fill: #808066;}
        .stroke16 {fill: #808065;}
        .stroke17 {fill: #808064;}
        .stroke18 {fill: #808063;}
        .stroke19 {fill: #808062;}
        .stroke20 {fill: #808061;}
        text {
            font-family: Helvetica;
            font-size: 50px;
            fill: #808060;
            paint-order: stroke;
            stroke: #000000;
            stroke-width: 4px;
            stroke-linecap: butt;
            stroke-linejoin: miter;
            font-weight: 800;
        }
    </style>

    <path d="M 234 683 Q 259 662 287 636 Q 303 621 322 623 Q 335 624 340 640 Q 344 659 333 693 Q 321 723 226 740 Q 207 743 200 740 Q 194 734 197 719 Q 201 706 234 683 Z" class="stroke1"/>
    <path d="M 128 505 Q 176 454 211 441 Q 226 438 235 452 Q 241 465 237 483 Q 225 522 162 539 Q 125 549 113 544 Q 106 543 110 530 Q 111 518 128 505 Z" class="stroke2"/>
    <path d="M 136 174 Q 123 171 126 153 Q 138 81 175 60 Q 182 53 193 56 Q 200 57 201 83 Q 207 129 309 396 Q 316 412 315 418 Q 314 428 305 421 Q 293 414 177 219 Q 164 197 136 174 Z" class="stroke3"/>
    <path d="M 616 525 Q 677 537 803 551 Q 815 550 824 563 Q 825 576 801 587 Q 764 609 680 586 Q 647 579 616 571 L 569 561 Q 517 552 472 546 Q 426 542 373 535 Q 342 531 366 512 Q 400 482 433 491 Q 487 504 552 514 L 616 525 Z" class="stroke4"/>
    <path d="M 615 494 Q 615 510 616 525 L 616 571 Q 616 682 636 749 Q 649 776 624 794 Q 608 806 577 825 Q 552 843 531 826 Q 525 822 532 805 Q 566 756 567 705 Q 567 638 569 561 L 566 415 Q 563 210 553 151 Q 531 46 543 16 Q 547 3 554 -13 Q 561 -32 569 -35 Q 576 -42 584 -33 Q 591 -29 602 -7 Q 612 18 612 52 Q 611 97 614 449 L 615 494 Z" class="stroke5"/>
    <path d="M 552 514 Q 495 354 310 180 Q 304 174 298 168 Q 286 155 296 153 Q 306 149 318 156 Q 444 214 558 402 Q 562 409 566 415 C 641 536 562 542 552 514 Z" class="stroke6"/>
    <path d="M 614 449 Q 684 329 774 201 Q 790 177 823 176 Q 932 169 968 171 Q 978 172 980 177 Q 981 183 967 191 Q 837 252 781 303 Q 703 382 615 494 C 596 518 599 475 614 449 Z" class="stroke7"/>
    
    
    
    
    
    
    </g>
</svg>