<svg version="1.1" viewBox="0 0 1024 1024" xmlns="http://www.w3.org/2000/svg">
  
  <g transform="scale(1, -1) translate(0, -900)">
    <style type="text/css">
        .stroke1 {fill: #808080;}
        .stroke2 {fill: #808079;}
        .stroke3 {fill: #808078;}
        .stroke4 {fill: #808077;}
        .stroke5 {fill: #808076;}
        .stroke6 {fill: #808075;}
        .stroke7 {fill: #808074;}
        .stroke8 {fill: #808073;}
        .stroke9 {fill: #808072;}
        .stroke10 {fill: #808071;}
        .stroke11 {fill: #808070;}
        .stroke12 {fill: #808069;}
        .stroke13 {fill: #808068;}
        .stroke14 {fill: #808067;}
        .stroke15 {fill: #808066;}
        .stroke16 {fill: #808065;}
        .stroke17 {fill: #808064;}
        .stroke18 {fill: #808063;}
        .stroke19 {fill: #808062;}
        .stroke20 {fill: #808061;}
        text {
            font-family: Helvetica;
            font-size: 50px;
            fill: #808060;
            paint-order: stroke;
            stroke: #000000;
            stroke-width: 4px;
            stroke-linecap: butt;
            stroke-linejoin: miter;
            font-weight: 800;
        }
    </style>

    <path d="M 216 700 Q 244 678 273 649 Q 289 636 307 636 Q 319 637 324 652 Q 330 670 318 703 Q 306 734 209 755 Q 191 759 184 755 Q 178 751 180 736 Q 184 723 216 700 Z" class="stroke1"/>
    <path d="M 120 520 Q 168 469 202 453 Q 218 452 227 465 Q 233 478 230 495 Q 218 535 132 560 Q 114 564 105 560 Q 99 559 102 546 Q 103 534 120 520 Z" class="stroke2"/>
    <path d="M 133 186 Q 120 182 123 163 Q 139 85 178 64 Q 185 57 197 60 Q 204 61 205 89 Q 211 146 306 410 Q 313 428 311 434 Q 310 444 301 437 Q 285 425 174 231 Q 161 209 133 186 Z" class="stroke3"/>
    <path d="M 592 689 Q 796 734 803 739 Q 812 746 807 756 Q 800 768 770 776 Q 739 782 641 748 Q 470 717 450 714 Q 413 707 439 690 Q 479 669 554 682 L 592 689 Z" class="stroke4"/>
    <path d="M 621 528 Q 622 597 628 633 Q 635 652 626 662 Q 610 680 592 689 C 566 704 545 711 554 682 Q 569 639 570 561 Q 569 495 567 349 C 567 319 611 328 612 358 Q 615 433 619 498 L 621 528 Z" class="stroke5"/>
    <path d="M 567 349 Q 450 330 444 331 Q 434 335 436 348 Q 446 393 461 441 Q 471 465 453 488 Q 425 524 401 525 Q 382 528 387 506 Q 412 448 400 397 Q 385 342 377 334 Q 364 316 372 300 Q 387 273 400 272 Q 409 272 432 281 Q 606 336 775 333 C 805 333 804 354 778 368 Q 772 372 765 375 Q 735 391 719 383 Q 694 374 664 368 Q 637 364 612 358 L 567 349 Z" class="stroke6"/>
    <path d="M 775 333 Q 760 141 726 73 Q 714 55 691 62 Q 609 81 613 86 Q 580 95 606 67 Q 651 27 684 -18 Q 705 -46 723 -34 Q 784 0 810 117 Q 826 208 832 305 Q 841 470 862 495 Q 881 519 867 531 Q 843 553 804 567 Q 786 574 715 549 Q 657 536 621 528 C 592 521 589 495 619 498 Q 640 495 744 524 Q 760 528 772 522 Q 787 512 778 368 L 775 333 Z" class="stroke7"/>
    
    
    
    
    
    
    </g>
</svg>