<svg version="1.1" viewBox="0 0 1024 1024" xmlns="http://www.w3.org/2000/svg">
  
  <g transform="scale(1, -1) translate(0, -900)">
    <style type="text/css">
        .stroke1 {fill: #808080;}
        .stroke2 {fill: #808079;}
        .stroke3 {fill: #808078;}
        .stroke4 {fill: #808077;}
        .stroke5 {fill: #808076;}
        .stroke6 {fill: #808075;}
        .stroke7 {fill: #808074;}
        .stroke8 {fill: #808073;}
        .stroke9 {fill: #808072;}
        .stroke10 {fill: #808071;}
        .stroke11 {fill: #808070;}
        .stroke12 {fill: #808069;}
        .stroke13 {fill: #808068;}
        .stroke14 {fill: #808067;}
        .stroke15 {fill: #808066;}
        .stroke16 {fill: #808065;}
        .stroke17 {fill: #808064;}
        .stroke18 {fill: #808063;}
        .stroke19 {fill: #808062;}
        .stroke20 {fill: #808061;}
        text {
            font-family: Helvetica;
            font-size: 50px;
            fill: #808060;
            paint-order: stroke;
            stroke: #000000;
            stroke-width: 4px;
            stroke-linecap: butt;
            stroke-linejoin: miter;
            font-weight: 800;
        }
    </style>

    <path d="M 206 695 Q 237 667 269 633 Q 282 620 299 619 Q 311 619 317 633 Q 321 648 314 680 Q 305 716 203 745 Q 187 749 180 747 Q 174 743 176 730 Q 179 718 206 695 Z" class="stroke1"/>
    <path d="M 106 486 Q 161 429 196 416 Q 212 413 223 429 Q 229 442 225 462 Q 210 507 118 529 Q 99 533 89 529 Q 82 528 86 514 Q 87 501 106 486 Z" class="stroke2"/>
    <path d="M 116 146 Q 103 142 107 124 Q 125 46 161 29 Q 168 22 179 25 Q 186 26 187 53 Q 191 96 213 159 Q 282 378 283 382 Q 282 392 273 385 Q 258 375 160 200 Q 133 161 116 146 Z" class="stroke3"/>
    <path d="M 602 504 Q 623 510 790 533 Q 802 532 812 546 Q 813 559 788 571 Q 748 595 646 565 Q 621 561 597 553 L 546 542 Q 474 532 357 517 Q 324 513 349 493 Q 386 463 417 470 Q 462 480 514 490 L 602 504 Z" class="stroke4"/>
    <path d="M 597 553 Q 597 676 614 743 Q 624 759 620 774 Q 613 784 552 820 Q 527 839 505 821 Q 499 815 506 799 Q 540 751 542 702 Q 543 630 547 548 Q 546 547 546 542 L 546 415 Q 546 216 534 149 Q 510 58 535 4 Q 536 -2 541 -9 Q 548 -28 557 -31 Q 564 -38 571 -29 Q 580 -25 590 -2 Q 600 25 599 59 Q 598 102 597 451 L 597 553 Z" class="stroke5"/>
    <path d="M 514 490 Q 459 316 261 121 Q 249 106 260 105 Q 285 99 369 171 Q 445 237 529 385 Q 538 403 546 415 C 604 511 528 533 514 490 Z" class="stroke6"/>
    <path d="M 597 451 Q 756 141 809 136 Q 882 135 944 132 Q 971 131 972 137 Q 973 144 946 161 Q 799 237 755 292 Q 674 382 602 504 C 587 530 564 516 597 451 Z" class="stroke7"/>
    <path d="M 713 702 Q 740 681 770 656 Q 783 644 799 646 Q 809 647 813 660 Q 817 675 806 703 Q 794 731 705 748 Q 689 749 684 747 Q 680 743 681 731 Q 685 721 713 702 Z" class="stroke8"/>
    
    
    
    
    
    
    
    </g>
</svg>