<svg version="1.1" viewBox="0 0 1024 1024" xmlns="http://www.w3.org/2000/svg">
  
  <g transform="scale(1, -1) translate(0, -900)">
    <style type="text/css">
        .stroke1 {fill: #808080;}
        .stroke2 {fill: #808079;}
        .stroke3 {fill: #808078;}
        .stroke4 {fill: #808077;}
        .stroke5 {fill: #808076;}
        .stroke6 {fill: #808075;}
        .stroke7 {fill: #808074;}
        .stroke8 {fill: #808073;}
        .stroke9 {fill: #808072;}
        .stroke10 {fill: #808071;}
        .stroke11 {fill: #808070;}
        .stroke12 {fill: #808069;}
        .stroke13 {fill: #808068;}
        .stroke14 {fill: #808067;}
        .stroke15 {fill: #808066;}
        .stroke16 {fill: #808065;}
        .stroke17 {fill: #808064;}
        .stroke18 {fill: #808063;}
        .stroke19 {fill: #808062;}
        .stroke20 {fill: #808061;}
        text {
            font-family: Helvetica;
            font-size: 50px;
            fill: #808060;
            paint-order: stroke;
            stroke: #000000;
            stroke-width: 4px;
            stroke-linecap: butt;
            stroke-linejoin: miter;
            font-weight: 800;
        }
    </style>

    <path d="M 232 693 Q 257 671 285 645 Q 301 630 319 632 Q 331 633 336 648 Q 340 666 330 699 Q 318 730 225 747 Q 207 751 200 747 Q 194 743 197 728 Q 201 715 232 693 Z" class="stroke1"/>
    <path d="M 134 489 Q 182 435 216 424 Q 232 421 242 436 Q 249 451 245 470 Q 230 513 169 528 Q 129 538 117 533 Q 110 532 114 518 Q 115 505 134 489 Z" class="stroke2"/>
    <path d="M 119 133 Q 106 129 109 110 Q 133 29 166 13 Q 173 6 185 9 Q 192 10 193 38 Q 196 84 294 374 Q 301 392 300 398 Q 299 408 289 401 Q 274 389 161 182 Q 148 158 119 133 Z" class="stroke3"/>
    <path d="M 502 706 Q 460 730 438 717 Q 426 711 434 699 Q 468 657 453 538 Q 437 442 341 346 Q 331 336 342 335 Q 355 336 384 354 Q 420 376 444 407 Q 472 438 484 471 Q 505 544 508 568 Q 508 640 516 669 C 522 696 522 696 502 706 Z" class="stroke4"/>
    <path d="M 910 377 Q 926 383 917 400 Q 901 421 881 432 Q 868 439 842 428 Q 799 407 743 410 Q 709 411 698 436 Q 676 467 684 566 Q 684 627 734 692 Q 753 708 734 724 Q 709 746 679 758 Q 667 764 648 752 Q 587 722 502 706 C 473 700 487 663 516 669 Q 531 669 609 696 Q 631 705 639 701 Q 648 697 646 680 Q 637 463 638 456 Q 641 399 682 372 Q 722 350 798 352 Q 873 355 910 377 Z" class="stroke5"/>
    <path d="M 447 265 Q 435 272 395 282 Q 382 286 377 281 Q 370 274 379 256 Q 409 186 422 71 Q 423 37 443 13 Q 462 -12 468 5 Q 472 15 473 31 L 472 64 Q 472 71 471 80 Q 458 189 454 229 C 451 259 450 263 447 265 Z" class="stroke6"/>
    <path d="M 726 84 Q 756 198 798 227 Q 817 248 801 268 Q 783 284 725 313 Q 704 323 680 313 Q 595 285 447 265 C 417 261 424 225 454 229 Q 676 262 684 258 Q 687 257 690 254 Q 711 230 671 93 C 663 64 718 55 726 84 Z" class="stroke7"/>
    <path d="M 473 31 Q 474 31 477 30 Q 487 26 502 29 Q 577 42 737 48 Q 749 49 751 58 Q 751 65 726 84 C 707 99 701 98 671 93 L 670 93 Q 559 71 472 64 C 442 61 444 39 473 31 Z" class="stroke8"/>
    
    
    
    
    
    
    
    </g>
</svg>