<svg version="1.1" viewBox="0 0 1024 1024" xmlns="http://www.w3.org/2000/svg">
  
  <g transform="scale(1, -1) translate(0, -900)">
    <style type="text/css">
        .stroke1 {fill: #808080;}
        .stroke2 {fill: #808079;}
        .stroke3 {fill: #808078;}
        .stroke4 {fill: #808077;}
        .stroke5 {fill: #808076;}
        .stroke6 {fill: #808075;}
        .stroke7 {fill: #808074;}
        .stroke8 {fill: #808073;}
        .stroke9 {fill: #808072;}
        .stroke10 {fill: #808071;}
        .stroke11 {fill: #808070;}
        .stroke12 {fill: #808069;}
        .stroke13 {fill: #808068;}
        .stroke14 {fill: #808067;}
        .stroke15 {fill: #808066;}
        .stroke16 {fill: #808065;}
        .stroke17 {fill: #808064;}
        .stroke18 {fill: #808063;}
        .stroke19 {fill: #808062;}
        .stroke20 {fill: #808061;}
        text {
            font-family: Helvetica;
            font-size: 50px;
            fill: #808060;
            paint-order: stroke;
            stroke: #000000;
            stroke-width: 4px;
            stroke-linecap: butt;
            stroke-linejoin: miter;
            font-weight: 800;
        }
    </style>

    <path d="M 408 664 Q 447 698 471 722 Q 537 788 558 801 Q 579 814 565 831 Q 549 847 520 858 Q 493 870 480 865 Q 467 861 473 848 Q 482 824 410 709 Q 394 685 377 659 Q 376 659 376 658 C 359 633 385 644 408 664 Z" class="stroke1"/>
    <path d="M 345 654 Q 333 660 300 664 Q 288 667 285 661 Q 279 654 288 639 Q 322 572 346 462 Q 350 428 371 407 Q 390 385 395 402 Q 396 408 397 415 L 396 447 Q 395 460 391 475 Q 384 502 379 523 L 374 546 Q 362 597 358 620 C 353 649 352 651 345 654 Z" class="stroke2"/>
    <path d="M 581 438 Q 599 407 616 397 Q 626 388 643 409 Q 661 434 700 577 Q 710 608 735 632 Q 748 644 737 658 Q 722 676 681 704 Q 660 716 579 695 Q 557 695 421 668 Q 414 667 408 664 L 376 658 Q 360 657 345 654 C 315 649 329 612 358 620 Q 443 645 596 666 Q 630 672 641 660 Q 654 644 650 627 Q 614 477 597 463 C 581 437 581 439 581 438 Z" class="stroke3"/>
    <path d="M 379 523 Q 385 522 395 523 Q 489 539 560 551 Q 581 554 573 565 Q 563 578 541 582 Q 520 585 374 546 C 345 538 349 525 379 523 Z" class="stroke4"/>
    <path d="M 478 427 Q 518 434 581 438 C 611 440 620 444 597 463 Q 590 469 580 475 Q 564 482 536 476 Q 457 457 396 447 C 366 442 367 414 397 415 Q 404 415 416 416 Q 426 419 439 421 L 478 427 Z" class="stroke5"/>
    <path d="M 521 335 Q 524 353 530 367 Q 539 385 523 398 Q 501 417 478 427 C 451 441 425 447 439 421 Q 440 417 446 408 Q 468 369 466 326 Q 470 166 462 82 Q 461 58 449 50 Q 442 46 362 56 Q 349 57 351 50 Q 352 43 363 36 Q 433 -19 461 -55 Q 476 -71 490 -57 Q 526 -20 522 48 Q 519 90 518 299 L 521 335 Z" class="stroke6"/>
    <path d="M 151 319 Q 139 319 138 311 Q 135 305 150 297 Q 190 272 217 279 Q 319 301 327 300 Q 339 296 326 275 Q 278 181 234 135 Q 189 84 107 32 Q 92 22 101 19 Q 111 18 130 24 Q 202 52 262 102 Q 319 147 390 265 Q 402 284 413 294 Q 428 303 421 313 Q 414 326 379 341 Q 360 353 304 333 Q 244 321 151 319 Z" class="stroke7"/>
    <path d="M 600 271 Q 654 298 685 317 Q 757 365 786 374 Q 810 381 800 402 Q 787 421 762 439 Q 738 455 724 453 Q 711 453 714 439 Q 714 405 584 283 C 562 262 573 258 600 271 Z" class="stroke8"/>
    <path d="M 584 283 Q 553 308 521 335 C 498 354 498 322 518 299 Q 621 179 754 55 Q 778 34 812 39 Q 932 57 968 67 Q 978 71 980 77 Q 980 83 963 90 Q 800 130 705 194 Q 654 230 600 271 L 584 283 Z" class="stroke9"/>
    
    
    
    
    
    
    
    
    </g>
</svg>