<svg version="1.1" viewBox="0 0 1024 1024" xmlns="http://www.w3.org/2000/svg">
  
  <g transform="scale(1, -1) translate(0, -900)">
    <style type="text/css">
        .stroke1 {fill: #808080;}
        .stroke2 {fill: #808079;}
        .stroke3 {fill: #808078;}
        .stroke4 {fill: #808077;}
        .stroke5 {fill: #808076;}
        .stroke6 {fill: #808075;}
        .stroke7 {fill: #808074;}
        .stroke8 {fill: #808073;}
        .stroke9 {fill: #808072;}
        .stroke10 {fill: #808071;}
        .stroke11 {fill: #808070;}
        .stroke12 {fill: #808069;}
        .stroke13 {fill: #808068;}
        .stroke14 {fill: #808067;}
        .stroke15 {fill: #808066;}
        .stroke16 {fill: #808065;}
        .stroke17 {fill: #808064;}
        .stroke18 {fill: #808063;}
        .stroke19 {fill: #808062;}
        .stroke20 {fill: #808061;}
        text {
            font-family: Helvetica;
            font-size: 50px;
            fill: #808060;
            paint-order: stroke;
            stroke: #000000;
            stroke-width: 4px;
            stroke-linecap: butt;
            stroke-linejoin: miter;
            font-weight: 800;
        }
    </style>

    <path d="M 248 718 Q 276 690 305 655 Q 318 640 335 640 Q 345 639 353 653 Q 359 668 352 700 Q 348 722 316 741 Q 238 777 224 771 Q 218 767 219 754 Q 222 742 248 718 Z" class="stroke1"/>
    <path d="M 139 516 Q 187 462 222 446 Q 238 443 247 457 Q 253 470 250 487 Q 235 532 152 555 Q 136 559 125 556 Q 119 555 122 542 Q 123 530 139 516 Z" class="stroke2"/>
    <path d="M 132 150 Q 120 146 124 129 Q 145 57 179 43 Q 186 37 196 41 Q 203 42 202 67 Q 202 116 272 353 Q 276 369 275 375 Q 274 384 266 377 Q 254 370 165 191 Q 155 172 132 150 Z" class="stroke3"/>
    <path d="M 353 397 Q 334 331 304 271 Q 286 241 308 207 Q 317 191 336 205 Q 355 223 366 254 Q 384 303 383 344 Q 384 375 375 399 Q 369 406 364 407 Q 357 406 353 397 Z" class="stroke4"/>
    <path d="M 547 156 Q 742 32 887 105 Q 903 109 902 120 Q 899 133 882 151 Q 855 179 785 272 Q 779 281 773 282 Q 770 281 771 273 Q 777 231 782 184 Q 783 165 771 156 Q 747 143 642 175 Q 608 187 583 200 L 542 235 Q 511 274 493 357 Q 489 384 468 396 Q 452 406 445 399 Q 444 399 470 299 Q 485 233 512 194 L 547 156 Z" class="stroke5"/>
    <path d="M 481 583 Q 523 516 550 500 Q 563 494 575 505 Q 582 517 584 533 Q 578 584 500 617 L 499 618 Q 484 625 474 623 Q 468 623 469 611 Q 468 599 481 583 Z" class="stroke6"/>
    <path d="M 512 194 Q 448 125 328 60 Q 315 54 310 50 Q 306 44 322 41 Q 335 40 391 58 Q 431 71 493 112 Q 521 131 547 156 L 583 200 Q 673 327 710 538 Q 729 643 753 689 Q 760 701 752 710 Q 734 731 698 751 Q 676 764 658 761 Q 636 755 650 734 Q 675 700 672 666 Q 653 503 617 398 Q 580 272 542 235 L 512 194 Z" class="stroke7"/>
    <path d="M 763 470 Q 823 424 895 355 Q 913 336 929 333 Q 938 332 945 343 Q 957 356 940 401 Q 921 459 762 501 Q 752 505 751 493 Q 752 480 763 470 Z" class="stroke8"/>
    
    
    
    
    
    
    
    </g>
</svg>