<svg version="1.1" viewBox="0 0 1024 1024" xmlns="http://www.w3.org/2000/svg">
  
  <g transform="scale(1, -1) translate(0, -900)">
    <style type="text/css">
        .stroke1 {fill: #808080;}
        .stroke2 {fill: #808079;}
        .stroke3 {fill: #808078;}
        .stroke4 {fill: #808077;}
        .stroke5 {fill: #808076;}
        .stroke6 {fill: #808075;}
        .stroke7 {fill: #808074;}
        .stroke8 {fill: #808073;}
        .stroke9 {fill: #808072;}
        .stroke10 {fill: #808071;}
        .stroke11 {fill: #808070;}
        .stroke12 {fill: #808069;}
        .stroke13 {fill: #808068;}
        .stroke14 {fill: #808067;}
        .stroke15 {fill: #808066;}
        .stroke16 {fill: #808065;}
        .stroke17 {fill: #808064;}
        .stroke18 {fill: #808063;}
        .stroke19 {fill: #808062;}
        .stroke20 {fill: #808061;}
        text {
            font-family: Helvetica;
            font-size: 50px;
            fill: #808060;
            paint-order: stroke;
            stroke: #000000;
            stroke-width: 4px;
            stroke-linecap: butt;
            stroke-linejoin: miter;
            font-weight: 800;
        }
    </style>

    <path d="M 231 716 Q 261 691 293 659 Q 309 644 326 645 Q 339 645 344 661 Q 350 677 339 711 Q 332 733 298 749 Q 217 780 200 771 Q 194 767 196 752 Q 200 739 231 716 Z" class="stroke1"/>
    <path d="M 139 540 Q 184 483 219 466 Q 235 462 246 477 Q 253 490 252 510 Q 239 558 156 582 L 155 583 Q 136 589 126 585 Q 119 584 121 570 Q 122 557 139 540 Z" class="stroke2"/>
    <path d="M 148 150 Q 135 146 139 128 Q 157 50 193 33 Q 200 26 211 29 Q 218 30 219 57 Q 223 100 245 163 Q 314 382 315 386 Q 314 396 305 389 Q 290 379 192 204 Q 165 165 148 150 Z" class="stroke3"/>
    <path d="M 497 603 Q 570 714 575 721 Q 590 752 604 767 Q 613 779 607 792 Q 601 805 570 827 Q 540 843 520 841 Q 501 838 512 816 Q 533 782 475 660 Q 447 605 408 541 Q 398 529 397 523 Q 394 510 409 515 Q 430 521 483 584 L 497 603 Z" class="stroke4"/>
    <path d="M 483 584 Q 519 568 547 576 Q 580 586 734 613 Q 759 617 770 605 Q 789 583 790 532 Q 794 372 783 267 Q 770 180 748 117 Q 738 92 725 85 Q 719 84 647 116 Q 637 120 634 117 Q 630 111 644 95 Q 680 44 695 2 Q 716 -29 733 -23 Q 784 -8 821 120 Q 843 207 854 490 Q 855 563 875 588 Q 891 607 869 625 Q 799 670 754 656 Q 652 629 497 603 C 467 598 454 593 483 584 Z" class="stroke5"/>
    <path d="M 416 457 Q 404 466 390 472 Q 384 475 379 471 Q 372 467 378 455 Q 405 398 393 254 Q 387 194 419 167 L 420 166 Q 433 160 439 183 L 442 217 Q 442 259 440 301 L 441 330 L 444 432 C 444 438 441 440 416 457 Z" class="stroke6"/>
    <path d="M 573 196 Q 574 192 577 188 Q 590 161 598 162 Q 611 163 626 193 Q 639 217 638 235 Q 622 394 649 434 Q 659 447 652 457 Q 627 479 585 497 Q 572 501 550 494 Q 522 481 487 469 Q 448 460 416 457 C 386 454 414 428 444 432 Q 448 432 454 433 Q 554 458 566 452 Q 573 436 577 390 Q 578 255 572 229 Q 571 229 571 228 C 567 208 567 208 573 196 Z" class="stroke7"/>
    <path d="M 440 301 L 541 320 Q 563 326 554 337 Q 542 350 518 352 Q 482 355 441 330 C 415 315 411 295 440 301 Z" class="stroke8"/>
    <path d="M 439 183 Q 449 182 459 184 Q 496 191 573 196 C 601 198 592 207 571 228 Q 568 232 562 235 Q 546 244 515 235 Q 475 225 442 217 C 413 210 409 185 439 183 Z" class="stroke9"/>
    
    
    
    
    
    
    
    
    </g>
</svg>