<svg version="1.1" viewBox="0 0 1024 1024" xmlns="http://www.w3.org/2000/svg">
  
  <g transform="scale(1, -1) translate(0, -900)">
    <style type="text/css">
        .stroke1 {fill: #808080;}
        .stroke2 {fill: #808079;}
        .stroke3 {fill: #808078;}
        .stroke4 {fill: #808077;}
        .stroke5 {fill: #808076;}
        .stroke6 {fill: #808075;}
        .stroke7 {fill: #808074;}
        .stroke8 {fill: #808073;}
        .stroke9 {fill: #808072;}
        .stroke10 {fill: #808071;}
        .stroke11 {fill: #808070;}
        .stroke12 {fill: #808069;}
        .stroke13 {fill: #808068;}
        .stroke14 {fill: #808067;}
        .stroke15 {fill: #808066;}
        .stroke16 {fill: #808065;}
        .stroke17 {fill: #808064;}
        .stroke18 {fill: #808063;}
        .stroke19 {fill: #808062;}
        .stroke20 {fill: #808061;}
        text {
            font-family: Helvetica;
            font-size: 50px;
            fill: #808060;
            paint-order: stroke;
            stroke: #000000;
            stroke-width: 4px;
            stroke-linecap: butt;
            stroke-linejoin: miter;
            font-weight: 800;
        }
    </style>

    <path d="M 235 715 Q 260 694 287 669 Q 303 656 320 657 Q 332 658 337 672 Q 341 688 330 721 Q 318 751 228 767 Q 210 771 204 767 Q 198 763 201 749 Q 205 736 235 715 Z" class="stroke1"/>
    <path d="M 129 499 Q 183 445 217 432 Q 233 431 243 444 Q 249 459 245 476 Q 230 518 141 541 Q 123 545 113 541 Q 106 540 110 526 Q 111 513 129 499 Z" class="stroke2"/>
    <path d="M 125 138 Q 112 134 115 116 Q 127 41 164 19 Q 171 12 182 15 Q 191 16 191 43 Q 200 100 297 343 Q 304 359 303 366 Q 302 376 293 369 Q 283 362 270 345 Q 215 257 165 179 Q 152 160 125 138 Z" class="stroke3"/>
    <path d="M 418 574 Q 406 604 391 614 Q 388 618 382 615 Q 376 611 374 600 Q 375 564 339 500 Q 327 484 327 465 Q 328 446 337 430 Q 344 417 350 425 Q 365 428 383 476 Q 405 522 414 539 Q 417 543 419 547 C 425 557 425 557 418 574 Z" class="stroke4"/>
    <path d="M 569 574 Q 689 604 714 601 Q 727 592 726 585 Q 714 545 700 502 L 701 501 Q 708 497 722 509 Q 770 545 810 557 Q 843 570 841 577 Q 840 586 774 630 Q 753 645 662 623 Q 635 622 578 606 L 528 597 Q 507 596 418 574 C 389 567 391 557 419 547 Q 440 537 462 543 Q 487 553 517 561 L 569 574 Z" class="stroke5"/>
    <path d="M 521 435 Q 546 495 569 574 L 578 606 Q 579 609 580 612 Q 611 729 636 766 Q 648 782 640 794 Q 628 821 572 835 Q 556 841 539 831 Q 529 821 538 810 Q 563 785 559 724 Q 541 624 528 597 L 517 561 Q 481 446 434 361 Q 386 277 276 150 Q 266 134 278 132 Q 284 131 296 140 Q 368 189 434 276 L 459 313 Q 480 349 510 409 L 521 435 Z" class="stroke6"/>
    <path d="M 434 276 Q 441 254 441 231 Q 442 137 435 104 Q 431 76 417 58 Q 404 37 412 15 Q 422 -16 440 -29 Q 450 -36 463 -18 Q 491 19 587 112 Q 605 127 606 134 Q 607 147 587 136 Q 497 88 488 91 Q 481 95 481 115 Q 487 232 493 261 Q 497 280 485 292 Q 472 305 459 313 C 434 330 426 305 434 276 Z" class="stroke7"/>
    <path d="M 643 313 Q 746 386 796 414 Q 815 418 811 430 Q 805 446 786 466 Q 767 485 744 488 Q 728 488 729 468 Q 730 453 721 437 Q 690 394 629 328 C 609 306 619 296 643 313 Z" class="stroke8"/>
    <path d="M 510 409 Q 535 391 554 363 Q 662 218 749 116 Q 765 97 791 97 Q 887 98 923 105 Q 939 106 946 114 Q 950 121 939 124 Q 783 184 751 212 Q 750 215 748 215 Q 702 252 643 313 L 629 328 Q 592 368 552 416 Q 542 432 524 435 Q 523 436 521 435 C 492 443 487 428 510 409 Z" class="stroke9"/>
    
    
    
    
    
    
    
    
    </g>
</svg>