<svg version="1.1" viewBox="0 0 1024 1024" xmlns="http://www.w3.org/2000/svg">
  
  <g transform="scale(1, -1) translate(0, -900)">
    <style type="text/css">
        .stroke1 {fill: #808080;}
        .stroke2 {fill: #808079;}
        .stroke3 {fill: #808078;}
        .stroke4 {fill: #808077;}
        .stroke5 {fill: #808076;}
        .stroke6 {fill: #808075;}
        .stroke7 {fill: #808074;}
        .stroke8 {fill: #808073;}
        .stroke9 {fill: #808072;}
        .stroke10 {fill: #808071;}
        .stroke11 {fill: #808070;}
        .stroke12 {fill: #808069;}
        .stroke13 {fill: #808068;}
        .stroke14 {fill: #808067;}
        .stroke15 {fill: #808066;}
        .stroke16 {fill: #808065;}
        .stroke17 {fill: #808064;}
        .stroke18 {fill: #808063;}
        .stroke19 {fill: #808062;}
        .stroke20 {fill: #808061;}
        text {
            font-family: Helvetica;
            font-size: 50px;
            fill: #808060;
            paint-order: stroke;
            stroke: #000000;
            stroke-width: 4px;
            stroke-linecap: butt;
            stroke-linejoin: miter;
            font-weight: 800;
        }
    </style>

    <path d="M 215 720 Q 249 692 285 658 Q 301 643 318 644 Q 331 645 336 660 Q 342 678 331 711 Q 319 747 209 775 Q 191 779 184 775 Q 178 771 180 756 Q 184 743 215 720 Z" class="stroke1"/>
    <path d="M 118 524 Q 181 466 222 451 Q 238 450 247 464 Q 251 479 248 496 Q 229 544 130 565 Q 129 566 128 566 Q 110 570 101 565 Q 94 564 98 550 Q 101 537 118 524 Z" class="stroke2"/>
    <path d="M 118 142 Q 105 138 108 120 Q 126 44 161 24 Q 168 17 179 20 Q 186 21 187 48 Q 193 105 286 355 Q 293 371 291 378 Q 290 388 281 381 Q 266 372 158 185 Q 145 163 118 142 Z" class="stroke3"/>
    <path d="M 492 628 Q 618 674 678 711 Q 724 735 765 746 Q 783 749 786 757 Q 790 769 776 780 Q 752 795 703 809 Q 687 816 673 813 Q 666 809 665 797 Q 666 755 479 646 C 453 631 464 618 492 628 Z" class="stroke4"/>
    <path d="M 493 544 Q 492 593 495 608 Q 495 620 492 628 C 490 638 490 638 479 646 Q 455 665 427 673 Q 411 677 402 671 Q 395 664 401 648 Q 426 605 436 558 Q 445 512 463 322 C 466 292 508 297 506 327 Q 497 436 494 508 L 493 544 Z" class="stroke5"/>
    <path d="M 706 543 Q 776 556 844 566 Q 857 567 858 575 Q 859 587 836 602 Q 800 629 735 599 Q 666 577 613 566 Q 553 557 493 544 C 464 538 464 505 494 508 Q 506 508 653 533 L 706 543 Z" class="stroke6"/>
    <path d="M 686 350 Q 719 489 731 510 Q 735 519 720 534 Q 713 538 706 543 C 681 560 643 561 653 533 Q 666 509 648 344 C 645 314 679 321 686 350 Z" class="stroke7"/>
    <path d="M 463 322 Q 394 316 321 307 Q 299 306 315 287 Q 330 272 348 267 Q 370 260 387 265 Q 561 311 891 311 Q 910 311 929 310 Q 950 310 955 319 Q 961 331 944 345 Q 884 391 833 374 Q 772 364 686 350 L 648 344 Q 630 343 613 340 Q 561 334 506 327 L 463 322 Z" class="stroke8"/>
    <path d="M 466 217 Q 456 151 309 21 Q 287 5 316 9 Q 379 15 497 132 Q 498 135 544 181 Q 554 194 552 204 Q 549 219 521 226 Q 490 236 477 233 Q 470 232 466 217 Z" class="stroke9"/>
    <path d="M 661 202 Q 731 133 814 34 Q 830 12 847 6 Q 857 5 865 15 Q 880 28 868 77 Q 859 123 772 175 Q 723 208 664 236 Q 654 242 651 228 Q 650 213 661 202 Z" class="stroke10"/>
    
    
    
    
    
    
    
    
    
    </g>
</svg>