<svg version="1.1" viewBox="0 0 1024 1024" xmlns="http://www.w3.org/2000/svg">
  
  <g transform="scale(1, -1) translate(0, -900)">
    <style type="text/css">
        .stroke1 {fill: #808080;}
        .stroke2 {fill: #808079;}
        .stroke3 {fill: #808078;}
        .stroke4 {fill: #808077;}
        .stroke5 {fill: #808076;}
        .stroke6 {fill: #808075;}
        .stroke7 {fill: #808074;}
        .stroke8 {fill: #808073;}
        .stroke9 {fill: #808072;}
        .stroke10 {fill: #808071;}
        .stroke11 {fill: #808070;}
        .stroke12 {fill: #808069;}
        .stroke13 {fill: #808068;}
        .stroke14 {fill: #808067;}
        .stroke15 {fill: #808066;}
        .stroke16 {fill: #808065;}
        .stroke17 {fill: #808064;}
        .stroke18 {fill: #808063;}
        .stroke19 {fill: #808062;}
        .stroke20 {fill: #808061;}
        text {
            font-family: Helvetica;
            font-size: 50px;
            fill: #808060;
            paint-order: stroke;
            stroke: #000000;
            stroke-width: 4px;
            stroke-linecap: butt;
            stroke-linejoin: miter;
            font-weight: 800;
        }
    </style>

    <path d="M 234 645 Q 259 620 285 587 Q 298 571 317 571 Q 330 570 336 585 Q 343 601 336 636 Q 332 657 300 675 Q 222 708 208 703 Q 202 699 203 685 Q 206 672 234 645 Z" class="stroke1"/>
    <path d="M 135 452 Q 171 401 207 383 Q 223 379 234 393 Q 241 406 240 426 Q 234 453 215 468 Q 203 477 139 498 Q 129 501 122 497 Q 115 496 117 482 Q 118 469 135 452 Z" class="stroke2"/>
    <path d="M 131 110 Q 119 106 122 87 Q 144 9 177 -7 Q 184 -14 195 -10 Q 202 -9 203 18 Q 207 61 230 128 Q 302 359 303 362 Q 302 372 293 365 Q 280 356 171 156 Q 159 134 131 110 Z" class="stroke3"/>
    <path d="M 467 534 Q 467 535 468 535 Q 484 572 501 603 Q 508 616 493 629 Q 445 656 422 648 Q 412 644 415 630 Q 437 561 375 452 Q 368 449 347 408 Q 341 392 356 399 Q 407 417 458 514 L 467 534 Z" class="stroke4"/>
    <path d="M 646 519 Q 799 558 803 561 Q 813 571 808 579 Q 799 592 768 599 Q 738 605 650 573 L 592 556 Q 535 544 474 536 Q 468 536 467 534 C 438 527 437 527 458 514 Q 467 505 504 497 Q 535 493 568 502 Q 578 505 592 507 L 646 519 Z" class="stroke5"/>
    <path d="M 636 386 Q 640 455 646 519 L 650 573 Q 656 700 676 763 Q 680 776 657 793 Q 617 815 589 819 Q 571 823 562 813 Q 553 806 563 788 Q 588 751 588 726 Q 592 645 592 556 L 592 507 Q 591 446 589 378 C 588 348 634 356 636 386 Z" class="stroke6"/>
    <path d="M 589 378 Q 466 357 325 333 Q 301 330 320 311 Q 359 280 397 292 Q 608 361 915 361 Q 916 361 918 361 Q 940 362 945 372 Q 951 385 932 400 Q 872 440 831 430 Q 758 411 636 386 L 589 378 Z" class="stroke7"/>
    <path d="M 429 232 L 426 232 Q 413 235 409 229 Q 402 222 413 205 Q 444 147 467 48 Q 471 20 490 0 Q 511 -24 515 -6 Q 519 7 518 28 L 512 64 Q 491 166 488 194 C 484 224 459 229 429 232 Z" class="stroke8"/>
    <path d="M 756 87 Q 783 175 819 200 Q 837 219 821 239 Q 803 254 747 281 Q 728 290 705 281 Q 531 218 429 232 C 399 235 459 188 488 194 Q 497 195 510 199 Q 598 215 684 230 Q 706 236 715 226 Q 725 216 723 196 Q 713 139 700 93 C 692 64 747 58 756 87 Z" class="stroke9"/>
    <path d="M 518 28 Q 521 28 526 28 Q 602 41 769 48 Q 781 49 782 58 Q 783 67 756 87 C 739 100 730 98 700 93 Q 595 74 512 64 C 482 60 488 27 518 28 Z" class="stroke10"/>
    
    
    
    
    
    
    
    
    
    </g>
</svg>