<svg version="1.1" viewBox="0 0 1024 1024" xmlns="http://www.w3.org/2000/svg">
  
  <g transform="scale(1, -1) translate(0, -900)">
    <style type="text/css">
        .stroke1 {fill: #808080;}
        .stroke2 {fill: #808079;}
        .stroke3 {fill: #808078;}
        .stroke4 {fill: #808077;}
        .stroke5 {fill: #808076;}
        .stroke6 {fill: #808075;}
        .stroke7 {fill: #808074;}
        .stroke8 {fill: #808073;}
        .stroke9 {fill: #808072;}
        .stroke10 {fill: #808071;}
        .stroke11 {fill: #808070;}
        .stroke12 {fill: #808069;}
        .stroke13 {fill: #808068;}
        .stroke14 {fill: #808067;}
        .stroke15 {fill: #808066;}
        .stroke16 {fill: #808065;}
        .stroke17 {fill: #808064;}
        .stroke18 {fill: #808063;}
        .stroke19 {fill: #808062;}
        .stroke20 {fill: #808061;}
        text {
            font-family: Helvetica;
            font-size: 50px;
            fill: #808060;
            paint-order: stroke;
            stroke: #000000;
            stroke-width: 4px;
            stroke-linecap: butt;
            stroke-linejoin: miter;
            font-weight: 800;
        }
    </style>

    <path d="M 242 657 Q 264 632 289 603 Q 302 587 321 587 Q 334 586 340 601 Q 347 617 340 652 Q 336 671 305 689 Q 233 722 216 715 Q 210 711 211 696 Q 214 683 242 657 Z" class="stroke1"/>
    <path d="M 143 468 Q 177 422 215 402 Q 231 398 242 413 Q 249 426 247 446 Q 240 473 221 488 Q 215 491 156 512 Q 138 518 130 513 Q 123 512 125 498 Q 126 485 143 468 Z" class="stroke2"/>
    <path d="M 157 166 Q 145 162 148 144 Q 166 68 201 48 Q 208 41 219 45 Q 226 46 227 73 Q 230 106 322 375 Q 329 391 327 398 Q 326 408 317 401 Q 307 395 196 208 Q 184 187 157 166 Z" class="stroke3"/>
    <path d="M 623 572 Q 680 585 740 595 Q 783 605 791 611 Q 800 618 795 628 Q 788 640 758 648 Q 734 652 625 621 L 575 608 Q 521 599 462 594 Q 425 588 451 570 Q 496 546 554 560 Q 561 563 575 563 L 623 572 Z" class="stroke4"/>
    <path d="M 605 319 Q 608 340 623 572 L 625 621 Q 628 699 651 770 Q 658 785 647 796 Q 625 815 583 827 Q 558 834 548 826 Q 538 819 546 806 Q 570 769 573 719 Q 574 664 575 608 L 575 563 Q 571 286 499 169 Q 489 156 477 141 Q 422 77 306 15 Q 293 8 292 3 Q 293 -1 306 -2 Q 325 -6 373 12 Q 532 63 588 237 Q 592 258 598 279 L 605 319 Z" class="stroke5"/>
    <path d="M 598 279 Q 676 155 776 24 Q 795 2 828 0 Q 940 -1 976 2 Q 986 3 988 9 Q 989 15 974 23 Q 817 95 760 151 Q 687 223 605 319 C 585 342 582 304 598 279 Z" class="stroke6"/>
    <path d="M 436 380 Q 449 398 461 415 Q 480 446 500 473 Q 509 483 496 496 Q 462 523 438 521 Q 428 520 430 507 Q 439 429 365 347 Q 346 326 337 314 Q 330 301 343 305 Q 373 308 430 372 L 436 380 Z" class="stroke7"/>
    <path d="M 430 372 Q 430 357 466 320 Q 481 305 495 305 Q 507 304 512 320 Q 513 332 505 349 Q 490 373 439 380 Q 438 381 436 380 C 429 380 429 380 430 372 Z" class="stroke8"/>
    <path d="M 749 417 Q 761 432 807 481 Q 817 491 807 505 Q 771 541 750 539 Q 740 538 741 525 Q 742 458 666 389 Q 647 373 638 362 Q 629 350 643 352 Q 667 352 730 399 L 749 417 Z" class="stroke9"/>
    <path d="M 730 399 Q 736 392 752 377 Q 786 346 824 309 Q 834 299 848 298 Q 857 298 861 309 Q 865 321 860 345 Q 854 379 750 417 L 749 417 C 720 426 710 421 730 399 Z" class="stroke10"/>
    
    
    
    
    
    
    
    
    
    </g>
</svg>