<svg version="1.1" viewBox="0 0 1024 1024" xmlns="http://www.w3.org/2000/svg">
  
  <g transform="scale(1, -1) translate(0, -900)">
    <style type="text/css">
        .stroke1 {fill: #808080;}
        .stroke2 {fill: #808079;}
        .stroke3 {fill: #808078;}
        .stroke4 {fill: #808077;}
        .stroke5 {fill: #808076;}
        .stroke6 {fill: #808075;}
        .stroke7 {fill: #808074;}
        .stroke8 {fill: #808073;}
        .stroke9 {fill: #808072;}
        .stroke10 {fill: #808071;}
        .stroke11 {fill: #808070;}
        .stroke12 {fill: #808069;}
        .stroke13 {fill: #808068;}
        .stroke14 {fill: #808067;}
        .stroke15 {fill: #808066;}
        .stroke16 {fill: #808065;}
        .stroke17 {fill: #808064;}
        .stroke18 {fill: #808063;}
        .stroke19 {fill: #808062;}
        .stroke20 {fill: #808061;}
        text {
            font-family: Helvetica;
            font-size: 50px;
            fill: #808060;
            paint-order: stroke;
            stroke: #000000;
            stroke-width: 4px;
            stroke-linecap: butt;
            stroke-linejoin: miter;
            font-weight: 800;
        }
    </style>

    <path d="M 310 641 L 314 641 Q 335 645 332 684 Q 331 702 325 713 Q 318 731 292 744 Q 220 776 201 770 Q 200 768 198 767 Q 183 751 227 712 Q 231 710 234 706 L 274 662 Q 293 641 310 641 Z" class="stroke1"/>
    <path d="M 114 523 Q 167 466 201 454 Q 209 453 216 456 Q 233 465 231 492 Q 229 500 227 505 Q 214 546 126 566 Q 119 568 113 569 Q 91 571 93 558 Q 94 556 94 551 Q 97 537 114 523 Z" class="stroke2"/>
    <path d="M 119 163 Q 106 161 108 145 Q 108 133 114 114 Q 128 59 157 43 Q 161 39 165 38 L 174 38 Q 182 39 184 67 Q 190 108 301 380 Q 308 396 308 404 Q 308 412 302 409 Q 300 408 297 405 Q 273 382 162 207 Q 149 184 119 163 Z" class="stroke3"/>
    <path d="M 445 465 Q 500 564 531 647 Q 538 670 547 688 L 561 715 Q 566 724 561 735 Q 557 741 542 751 Q 510 772 486 769 Q 466 769 476 746 Q 478 743 480 739 Q 512 664 367 386 Q 361 378 359 372 Q 357 363 363 363 Q 365 362 367 363 Q 378 367 423 428 L 445 465 Z" class="stroke4"/>
    <path d="M 476 123 L 476 137 Q 478 338 488 388 Q 492 406 482 423 Q 480 425 476 430 Q 457 457 445 465 C 423 485 414 457 423 428 Q 442 373 443 312 Q 441 294 441 289 Q 441 223 431 167 L 416 93 Q 408 53 417 28 Q 423 12 431 2 Q 445 -17 455 -8 Q 474 8 476 123 Z" class="stroke5"/>
    <path d="M 728 649 L 731 649 Q 754 651 751 693 Q 749 709 747 717 Q 740 735 713 749 Q 648 778 629 774 L 627 773 Q 621 770 621 757 L 621 755 Q 625 742 653 715 L 661 708 L 697 664 Q 711 649 728 649 Z" class="stroke6"/>
    <path d="M 553 523 Q 549 522 547 521 Q 526 516 533 508 Q 538 502 551 496 Q 592 476 643 491 Q 717 509 825 530 Q 868 539 874 545 Q 879 549 880 555 Q 882 570 841 581 Q 835 582 825 580 Q 786 576 723 555 Q 553 529 553 523 Z" class="stroke7"/>
    <path d="M 573 368 Q 588 308 610 284 Q 621 276 633 283 Q 640 287 644 295 Q 657 323 627 363 Q 598 398 577 404 Q 572 405 570 400 L 568 392 Q 566 384 573 368 Z" class="stroke8"/>
    <path d="M 733 190 Q 755 220 803 339 Q 815 371 837 405 Q 847 421 845 427 Q 845 429 841 434 Q 825 453 792 470 Q 772 480 759 473 Q 747 468 749 461 Q 755 447 755 445 Q 762 416 741 327 Q 729 285 715 245 Q 700 198 698 184 C 692 155 716 165 733 190 Z" class="stroke9"/>
    <path d="M 698 184 L 517 159 Q 514 159 513 158 Q 501 155 514 139 Q 517 135 523 131 Q 551 113 580 122 Q 713 158 947 158 Q 966 158 971 167 Q 974 173 968 182 Q 962 191 944 202 Q 897 227 851 214 L 733 190 L 698 184 Z" class="stroke10"/>
    
    
    
    
    
    
    
    
    
    </g>
</svg>