<svg version="1.1" viewBox="0 0 1024 1024" xmlns="http://www.w3.org/2000/svg">
  
  <g transform="scale(1, -1) translate(0, -900)">
    <style type="text/css">
        .stroke1 {fill: #808080;}
        .stroke2 {fill: #808079;}
        .stroke3 {fill: #808078;}
        .stroke4 {fill: #808077;}
        .stroke5 {fill: #808076;}
        .stroke6 {fill: #808075;}
        .stroke7 {fill: #808074;}
        .stroke8 {fill: #808073;}
        .stroke9 {fill: #808072;}
        .stroke10 {fill: #808071;}
        .stroke11 {fill: #808070;}
        .stroke12 {fill: #808069;}
        .stroke13 {fill: #808068;}
        .stroke14 {fill: #808067;}
        .stroke15 {fill: #808066;}
        .stroke16 {fill: #808065;}
        .stroke17 {fill: #808064;}
        .stroke18 {fill: #808063;}
        .stroke19 {fill: #808062;}
        .stroke20 {fill: #808061;}
        text {
            font-family: Helvetica;
            font-size: 50px;
            fill: #808060;
            paint-order: stroke;
            stroke: #000000;
            stroke-width: 4px;
            stroke-linecap: butt;
            stroke-linejoin: miter;
            font-weight: 800;
        }
    </style>

    <path d="M 230 705 Q 257 683 285 657 Q 300 644 317 645 Q 327 646 333 660 Q 337 676 326 707 Q 314 740 223 755 Q 207 758 200 755 Q 194 751 197 737 Q 201 727 230 705 Z" class="stroke1"/>
    <path d="M 136 512 Q 190 458 223 445 Q 238 442 247 457 Q 253 470 249 487 Q 237 529 147 552 Q 131 556 121 552 Q 114 551 118 538 Q 119 526 136 512 Z" class="stroke2"/>
    <path d="M 125 178 Q 113 174 116 158 Q 134 85 167 70 Q 174 63 184 66 Q 191 67 191 92 Q 195 140 278 381 Q 284 397 283 402 Q 282 412 273 405 Q 264 401 161 220 Q 151 199 125 178 Z" class="stroke3"/>
    <path d="M 544 766 Q 577 745 612 719 Q 628 707 645 711 Q 657 712 661 728 Q 664 744 649 776 Q 639 795 605 807 Q 569 814 531 818 Q 515 819 508 815 Q 502 811 506 797 Q 512 785 544 766 Z" class="stroke4"/>
    <path d="M 475 569 Q 604 597 738 627 Q 802 643 811 651 Q 820 658 815 668 Q 808 680 778 687 Q 751 693 637 655 Q 499 616 378 602 Q 341 595 367 578 Q 394 563 432 563 L 475 569 Z" class="stroke5"/>
    <path d="M 385 343 Q 425 389 471 460 Q 490 494 508 511 Q 515 521 512 533 Q 503 555 475 569 C 449 584 421 591 432 563 Q 433 562 434 559 Q 453 517 370 388 Q 331 328 278 263 Q 269 254 267 249 Q 264 239 276 241 Q 295 244 361 315 L 385 343 Z" class="stroke6"/>
    <path d="M 361 315 Q 392 255 361 86 Q 346 43 380 -5 L 381 -6 Q 396 -19 405 3 Q 418 37 417 75 Q 416 240 420 277 Q 427 299 418 308 Q 391 341 385 343 C 362 362 349 342 361 315 Z" class="stroke7"/>
    <path d="M 635 468 Q 636 469 637 470 Q 659 504 679 532 Q 688 542 676 556 Q 640 584 618 582 Q 608 581 610 568 Q 619 496 536 400 Q 530 400 501 362 Q 494 349 507 353 Q 523 354 558 383 L 573 396 Q 600 421 621 447 L 635 468 Z" class="stroke8"/>
    <path d="M 652 208 Q 721 281 774 382 Q 799 430 816 443 Q 829 453 823 465 Q 819 475 764 500 Q 751 504 728 494 Q 700 481 635 468 C 606 462 592 453 621 447 Q 631 440 661 444 Q 725 460 729 452 Q 741 410 655 287 Q 634 266 616 238 L 592 210 Q 543 158 474 104 Q 449 89 471 90 Q 537 93 621 177 L 652 208 Z" class="stroke9"/>
    <path d="M 558 383 Q 561 374 609 332 Q 625 319 640 320 Q 652 320 655 336 Q 656 348 646 365 Q 636 378 614 384 Q 587 394 573 396 C 548 400 548 400 558 383 Z" class="stroke10"/>
    <path d="M 621 177 Q 675 119 772 43 Q 802 21 844 32 Q 901 44 941 52 Q 954 55 967 61 Q 974 68 961 77 Q 945 84 824 112 Q 755 127 652 208 L 616 238 Q 582 269 546 307 Q 524 329 491 332 Q 481 333 472 327 Q 468 320 477 314 Q 484 308 492 304 Q 519 294 592 210 L 621 177 Z" class="stroke11"/>
    
    
    
    
    
    
    
    
    
    
    </g>
</svg>