<svg version="1.1" viewBox="0 0 1024 1024" xmlns="http://www.w3.org/2000/svg">
  
  <g transform="scale(1, -1) translate(0, -900)">
    <style type="text/css">
        .stroke1 {fill: #808080;}
        .stroke2 {fill: #808079;}
        .stroke3 {fill: #808078;}
        .stroke4 {fill: #808077;}
        .stroke5 {fill: #808076;}
        .stroke6 {fill: #808075;}
        .stroke7 {fill: #808074;}
        .stroke8 {fill: #808073;}
        .stroke9 {fill: #808072;}
        .stroke10 {fill: #808071;}
        .stroke11 {fill: #808070;}
        .stroke12 {fill: #808069;}
        .stroke13 {fill: #808068;}
        .stroke14 {fill: #808067;}
        .stroke15 {fill: #808066;}
        .stroke16 {fill: #808065;}
        .stroke17 {fill: #808064;}
        .stroke18 {fill: #808063;}
        .stroke19 {fill: #808062;}
        .stroke20 {fill: #808061;}
        text {
            font-family: Helvetica;
            font-size: 50px;
            fill: #808060;
            paint-order: stroke;
            stroke: #000000;
            stroke-width: 4px;
            stroke-linecap: butt;
            stroke-linejoin: miter;
            font-weight: 800;
        }
    </style>

    <path d="M 239 681 Q 258 662 278 639 Q 294 623 313 624 Q 326 625 332 641 Q 338 659 328 694 Q 316 722 234 738 Q 215 742 208 740 Q 202 736 204 720 Q 208 707 239 681 Z" class="stroke1"/>
    <path d="M 134 481 Q 176 432 208 420 Q 224 417 235 433 Q 241 446 237 466 Q 230 491 209 506 Q 151 536 118 526 Q 117 526 117 525 Q 110 524 114 510 Q 115 497 134 481 Z" class="stroke2"/>
    <path d="M 121 150 Q 108 146 111 128 Q 123 53 160 31 Q 167 24 178 27 Q 187 28 187 55 Q 193 98 285 339 Q 292 355 291 362 Q 290 372 281 365 Q 271 358 258 341 Q 206 259 159 188 Q 147 169 121 150 Z" class="stroke3"/>
    <path d="M 542 793 Q 590 739 624 728 Q 640 725 650 740 Q 657 755 653 774 Q 638 817 577 832 Q 537 842 525 837 Q 518 836 522 822 Q 523 809 542 793 Z" class="stroke4"/>
    <path d="M 740 527 Q 770 585 799 601 Q 818 620 803 640 Q 737 695 697 685 Q 693 685 688 683 Q 598 643 451 615 C 422 609 434 579 464 583 Q 479 583 672 629 Q 694 635 702 626 Q 709 619 706 605 Q 694 562 681 528 C 671 500 726 501 740 527 Z" class="stroke5"/>
    <path d="M 454 449 Q 464 446 476 449 Q 564 473 753 495 Q 763 496 764 505 Q 764 512 740 527 C 722 539 710 536 681 528 Q 557 495 456 479 C 426 474 424 453 454 449 Z" class="stroke6"/>
    <path d="M 451 615 Q 451 616 450 616 Q 404 640 388 637 Q 369 633 384 611 Q 424 542 391 321 Q 381 269 354 206 Q 324 133 235 51 Q 222 38 218 32 Q 217 25 228 25 Q 273 29 340 103 Q 433 203 453 432 Q 453 441 454 449 L 456 479 Q 457 516 460 555 Q 463 573 464 583 C 467 607 467 607 451 615 Z" class="stroke7"/>
    <path d="M 630 305 Q 693 318 798 326 Q 840 326 845 336 Q 849 346 834 356 Q 786 386 732 368 Q 692 358 637 343 L 577 330 Q 525 320 469 307 Q 453 304 465 291 Q 492 272 542 285 Q 555 289 573 293 L 630 305 Z" class="stroke8"/>
    <path d="M 628 297 Q 628 301 630 305 L 637 343 Q 637 370 648 389 Q 655 396 649 406 Q 643 413 615 424 Q 584 440 569 434 Q 559 428 567 413 Q 576 383 577 330 L 573 293 Q 551 157 477 98 Q 444 67 355 21 Q 333 8 361 9 Q 409 6 492 54 Q 580 102 620 262 L 628 297 Z" class="stroke9"/>
    <path d="M 620 262 Q 684 153 767 33 Q 783 12 813 11 Q 913 8 945 11 Q 955 12 956 17 Q 957 21 945 30 Q 801 100 721 190 Q 676 238 628 297 C 609 320 605 288 620 262 Z" class="stroke10"/>
    <path d="M 828 445 Q 849 423 871 398 Q 884 385 900 384 Q 910 384 917 397 Q 923 412 915 442 Q 909 469 826 493 Q 810 497 804 495 Q 798 491 800 478 Q 803 468 828 445 Z" class="stroke11"/>
    
    
    
    
    
    
    
    
    
    
    </g>
</svg>