<svg version="1.1" viewBox="0 0 1024 1024" xmlns="http://www.w3.org/2000/svg">
  
  <g transform="scale(1, -1) translate(0, -900)">
    <style type="text/css">
        .stroke1 {fill: #808080;}
        .stroke2 {fill: #808079;}
        .stroke3 {fill: #808078;}
        .stroke4 {fill: #808077;}
        .stroke5 {fill: #808076;}
        .stroke6 {fill: #808075;}
        .stroke7 {fill: #808074;}
        .stroke8 {fill: #808073;}
        .stroke9 {fill: #808072;}
        .stroke10 {fill: #808071;}
        .stroke11 {fill: #808070;}
        .stroke12 {fill: #808069;}
        .stroke13 {fill: #808068;}
        .stroke14 {fill: #808067;}
        .stroke15 {fill: #808066;}
        .stroke16 {fill: #808065;}
        .stroke17 {fill: #808064;}
        .stroke18 {fill: #808063;}
        .stroke19 {fill: #808062;}
        .stroke20 {fill: #808061;}
        text {
            font-family: Helvetica;
            font-size: 50px;
            fill: #808060;
            paint-order: stroke;
            stroke: #000000;
            stroke-width: 4px;
            stroke-linecap: butt;
            stroke-linejoin: miter;
            font-weight: 800;
        }
    </style>

    <path d="M 248 714 Q 270 692 293 665 Q 308 650 326 650 Q 338 650 344 665 Q 351 681 342 716 Q 336 735 307 749 Q 238 779 220 771 Q 214 767 215 752 Q 219 739 248 714 Z" class="stroke1"/>
    <path d="M 129 517 Q 174 462 207 449 Q 225 446 234 461 Q 241 474 238 494 Q 231 521 211 535 Q 166 562 135 562 Q 122 565 113 561 Q 106 560 109 546 Q 110 533 129 517 Z" class="stroke2"/>
    <path d="M 157 166 Q 144 162 147 144 Q 169 63 201 49 Q 208 42 219 45 Q 226 46 227 73 Q 231 122 318 371 Q 325 387 323 394 Q 322 404 313 397 Q 303 391 195 207 Q 183 188 157 166 Z" class="stroke3"/>
    <path d="M 593 816 Q 551 771 432 704 Q 428 694 434 692 Q 471 692 606 756 Q 622 774 697 794 Q 713 795 717 804 Q 720 814 707 825 Q 647 861 611 857 Q 604 853 604 841 Q 605 828 593 816 Z" class="stroke4"/>
    <path d="M 430 619 Q 460 562 473 558 Q 482 557 489 565 Q 496 575 498 603 Q 495 630 438 660 Q 426 667 420 667 Q 416 664 413 654 Q 413 644 430 619 Z" class="stroke5"/>
    <path d="M 553 665 Q 568 614 588 598 Q 598 591 608 598 Q 617 605 619 618 Q 622 637 613 652 Q 598 674 573 689 Q 563 698 555 697 Q 551 698 548 689 Q 547 680 553 665 Z" class="stroke6"/>
    <path d="M 739 708 Q 718 675 646 590 Q 637 574 653 577 Q 806 688 819 692 Q 838 702 828 719 Q 815 735 791 748 Q 769 761 756 757 Q 744 756 748 743 Q 752 727 739 708 Z" class="stroke7"/>
    <path d="M 778 339 Q 787 381 796 409 L 812 454 Q 821 485 853 514 Q 869 533 854 552 Q 836 565 782 590 Q 763 597 741 588 Q 600 533 419 514 Q 403 513 404 502 Q 407 493 426 487 Q 453 477 488 488 Q 516 495 545 500 L 581 508 Q 647 523 713 536 Q 741 543 754 532 Q 769 517 755 443 L 747 405 Q 738 371 730 340 C 722 311 771 310 778 339 Z" class="stroke8"/>
    <path d="M 796 409 Q 850 415 914 415 Q 977 415 984 425 Q 988 435 973 447 Q 919 484 857 464 Q 835 461 812 454 L 755 443 Q 650 428 624 419 L 573 411 Q 474 398 367 380 Q 348 379 362 363 Q 375 351 391 347 Q 410 343 424 347 Q 497 369 577 382 L 627 390 Q 676 400 747 405 L 796 409 Z" class="stroke9"/>
    <path d="M 583 307 Q 489 291 411 279 Q 390 278 403 260 Q 410 251 420 248 Q 430 245 443 248 Q 497 261 585 275 L 636 282 Q 706 292 796 302 Q 806 303 808 312 Q 808 319 778 339 C 765 348 759 347 730 340 Q 678 328 633 317 L 583 307 Z" class="stroke10"/>
    <path d="M 577 382 Q 581 346 583 307 L 585 275 Q 588 110 559 62 Q 558 55 551 53 Q 542 52 465 63 Q 456 64 454 61 Q 453 57 461 48 Q 515 -3 543 -41 Q 553 -53 559 -52 Q 571 -51 592 -31 Q 635 9 639 94 Q 643 143 637 267 Q 636 274 636 282 L 633 317 Q 629 366 627 390 L 624 419 Q 621 446 621 466 Q 621 485 609 493 Q 594 502 581 508 C 554 522 530 526 545 500 Q 563 476 573 411 L 577 382 Z" class="stroke11"/>
    
    
    
    
    
    
    
    
    
    
    </g>
</svg>