<svg version="1.1" viewBox="0 0 1024 1024" xmlns="http://www.w3.org/2000/svg">
  
  <g transform="scale(1, -1) translate(0, -900)">
    <style type="text/css">
        .stroke1 {fill: #808080;}
        .stroke2 {fill: #808079;}
        .stroke3 {fill: #808078;}
        .stroke4 {fill: #808077;}
        .stroke5 {fill: #808076;}
        .stroke6 {fill: #808075;}
        .stroke7 {fill: #808074;}
        .stroke8 {fill: #808073;}
        .stroke9 {fill: #808072;}
        .stroke10 {fill: #808071;}
        .stroke11 {fill: #808070;}
        .stroke12 {fill: #808069;}
        .stroke13 {fill: #808068;}
        .stroke14 {fill: #808067;}
        .stroke15 {fill: #808066;}
        .stroke16 {fill: #808065;}
        .stroke17 {fill: #808064;}
        .stroke18 {fill: #808063;}
        .stroke19 {fill: #808062;}
        .stroke20 {fill: #808061;}
        text {
            font-family: Helvetica;
            font-size: 50px;
            fill: #808060;
            paint-order: stroke;
            stroke: #000000;
            stroke-width: 4px;
            stroke-linecap: butt;
            stroke-linejoin: miter;
            font-weight: 800;
        }
    </style>

    <path d="M 221 709 Q 252 684 285 654 Q 300 641 316 642 Q 328 642 333 656 Q 337 672 327 703 Q 320 725 286 739 Q 207 766 192 759 Q 186 755 189 741 Q 193 731 221 709 Z" class="stroke1"/>
    <path d="M 128 498 Q 188 435 221 421 Q 237 418 247 433 Q 253 446 250 464 Q 238 507 141 540 Q 123 544 113 541 Q 106 540 109 526 Q 110 513 128 498 Z" class="stroke2"/>
    <path d="M 137 122 Q 124 118 127 100 Q 145 22 181 5 Q 188 -2 199 1 Q 206 2 207 29 Q 211 71 310 355 Q 317 371 315 378 Q 314 388 305 381 Q 295 375 178 169 Q 165 147 137 122 Z" class="stroke3"/>
    <path d="M 549 775 Q 580 753 614 726 Q 629 714 646 716 Q 656 717 661 732 Q 664 748 652 778 Q 637 812 539 824 Q 523 827 516 823 Q 512 819 514 805 Q 518 795 549 775 Z" class="stroke4"/>
    <path d="M 544 624 Q 637 655 863 656 Q 884 656 889 666 Q 893 678 877 690 Q 825 726 789 715 Q 690 688 363 630 Q 344 627 359 611 Q 372 598 390 594 Q 411 590 426 595 Q 465 608 507 616 L 544 624 Z" class="stroke5"/>
    <path d="M 685 515 Q 493 472 491 472 Q 490 473 495 479 Q 556 561 581 583 Q 594 598 586 606 Q 576 618 544 624 C 515 631 506 633 507 616 Q 506 612 508 601 Q 518 547 437 476 Q 383 443 384 430 Q 385 418 395 402 Q 405 384 418 380 Q 425 377 435 383 Q 505 434 686 493 Q 692 496 702 496 C 732 501 714 522 685 515 Z" class="stroke6"/>
    <path d="M 702 496 Q 730 468 758 436 Q 768 424 782 423 Q 792 422 797 433 Q 803 445 798 472 Q 794 518 663 580 Q 650 584 644 583 Q 640 580 639 569 Q 639 560 685 515 L 702 496 Z" class="stroke7"/>
    <path d="M 485 170 Q 488 206 491 232 L 493 258 Q 497 301 500 316 Q 501 320 501 325 C 504 344 504 344 483 355 Q 455 371 438 371 Q 425 367 429 355 Q 463 277 422 107 Q 416 89 407 75 Q 388 36 419 -10 Q 426 -23 436 -18 Q 469 1 482 141 L 485 170 Z" class="stroke8"/>
    <path d="M 501 325 Q 666 367 676 361 Q 677 361 680 358 Q 686 354 687 333 Q 705 182 705 89 Q 705 61 697 49 Q 693 43 672 47 L 624 55 Q 603 61 604 51 Q 659 2 690 -33 Q 703 -52 721 -57 Q 731 -61 739 -50 Q 781 8 777 59 Q 738 303 761 348 Q 773 369 760 380 Q 738 399 698 413 Q 679 420 663 413 Q 599 374 483 355 C 453 350 472 318 501 325 Z" class="stroke9"/>
    <path d="M 491 232 Q 495 231 504 232 Q 583 247 643 255 Q 665 259 657 272 Q 647 287 621 291 Q 588 294 493 258 C 465 247 461 235 491 232 Z" class="stroke10"/>
    <path d="M 482 141 Q 489 141 498 141 Q 588 153 653 159 Q 678 162 669 176 Q 659 192 632 197 Q 599 203 485 170 C 456 162 452 141 482 141 Z" class="stroke11"/>
    
    
    
    
    
    
    
    
    
    
    </g>
</svg>