<svg version="1.1" viewBox="0 0 1024 1024" xmlns="http://www.w3.org/2000/svg">
  
  <g transform="scale(1, -1) translate(0, -900)">
    <style type="text/css">
        .stroke1 {fill: #808080;}
        .stroke2 {fill: #808079;}
        .stroke3 {fill: #808078;}
        .stroke4 {fill: #808077;}
        .stroke5 {fill: #808076;}
        .stroke6 {fill: #808075;}
        .stroke7 {fill: #808074;}
        .stroke8 {fill: #808073;}
        .stroke9 {fill: #808072;}
        .stroke10 {fill: #808071;}
        .stroke11 {fill: #808070;}
        .stroke12 {fill: #808069;}
        .stroke13 {fill: #808068;}
        .stroke14 {fill: #808067;}
        .stroke15 {fill: #808066;}
        .stroke16 {fill: #808065;}
        .stroke17 {fill: #808064;}
        .stroke18 {fill: #808063;}
        .stroke19 {fill: #808062;}
        .stroke20 {fill: #808061;}
        text {
            font-family: Helvetica;
            font-size: 50px;
            fill: #808060;
            paint-order: stroke;
            stroke: #000000;
            stroke-width: 4px;
            stroke-linecap: butt;
            stroke-linejoin: miter;
            font-weight: 800;
        }
    </style>

    <path d="M 226 763 Q 248 741 273 716 Q 288 700 306 701 Q 319 702 324 717 Q 330 733 320 768 Q 314 787 284 800 Q 209 827 196 819 Q 190 815 192 800 Q 196 787 226 763 Z" class="stroke1"/>
    <path d="M 135 585 Q 171 531 204 509 Q 219 505 231 517 Q 238 530 238 548 Q 234 575 217 590 Q 193 611 143 628 Q 134 631 126 628 Q 119 628 121 614 Q 121 601 135 585 Z" class="stroke2"/>
    <path d="M 109 226 Q 96 222 99 204 Q 117 126 153 109 Q 160 102 171 105 Q 178 106 179 133 Q 183 187 278 451 Q 285 467 283 474 Q 282 484 273 477 Q 264 473 149 272 Q 137 250 109 226 Z" class="stroke3"/>
    <path d="M 572 824 Q 608 782 639 769 Q 654 766 663 781 Q 669 794 666 811 Q 659 835 640 847 Q 612 865 569 866 Q 562 867 557 864 Q 551 863 554 850 Q 555 838 572 824 Z" class="stroke4"/>
    <path d="M 398 719 Q 380 718 394 703 Q 406 691 422 687 Q 440 683 454 687 Q 595 729 834 730 Q 852 731 855 738 Q 859 748 845 760 Q 794 796 751 780 Q 607 752 398 719 Z" class="stroke5"/>
    <path d="M 474 629 Q 464 633 442 635 Q 432 638 428 633 Q 424 627 432 613 Q 454 573 472 506 Q 476 487 489 474 Q 505 455 510 469 Q 511 476 512 488 L 508 518 Q 495 582 493 603 C 491 624 491 624 474 629 Z" class="stroke6"/>
    <path d="M 714 540 Q 744 597 768 606 Q 784 622 772 640 Q 757 653 710 678 Q 692 687 624 662 Q 554 643 474 629 C 444 624 463 598 493 603 Q 503 604 518 608 Q 590 621 658 636 Q 676 640 683 633 Q 690 624 666 553 C 657 525 700 514 714 540 Z" class="stroke7"/>
    <path d="M 512 488 Q 519 487 532 489 Q 590 502 717 516 Q 727 517 728 525 Q 728 531 714 540 C 691 556 691 556 666 553 Q 660 553 656 551 Q 574 529 508 518 C 478 513 482 489 512 488 Z" class="stroke8"/>
    <path d="M 625 308 Q 724 378 763 387 Q 784 393 777 410 Q 774 426 709 464 Q 690 474 667 467 Q 604 442 510 414 Q 486 407 426 407 Q 402 408 411 387 Q 418 374 438 364 Q 469 346 503 368 Q 525 377 642 420 Q 654 426 665 420 Q 677 414 673 402 Q 643 365 610 320 C 592 296 600 291 625 308 Z" class="stroke9"/>
    <path d="M 603 228 Q 633 110 600 28 Q 587 4 554 10 Q 520 17 488 26 Q 476 29 481 18 Q 487 9 506 -3 Q 549 -37 564 -65 Q 574 -83 590 -80 Q 603 -79 630 -52 Q 705 23 658 233 L 647 270 Q 640 294 625 308 L 610 320 Q 598 327 583 332 Q 561 339 552 332 Q 539 325 553 312 Q 581 293 594 262 L 603 228 Z" class="stroke10"/>
    <path d="M 658 233 Q 748 240 869 240 Q 935 237 943 248 Q 949 260 932 274 Q 880 313 842 305 Q 766 289 647 270 L 594 262 Q 458 246 301 226 Q 279 225 295 207 Q 308 194 327 188 Q 348 182 364 187 Q 481 218 603 228 L 658 233 Z" class="stroke11"/>
    
    
    
    
    
    
    
    
    
    
    </g>
</svg>