<svg version="1.1" viewBox="0 0 1024 1024" xmlns="http://www.w3.org/2000/svg">
  
  <g transform="scale(1, -1) translate(0, -900)">
    <style type="text/css">
        .stroke1 {fill: #808080;}
        .stroke2 {fill: #808079;}
        .stroke3 {fill: #808078;}
        .stroke4 {fill: #808077;}
        .stroke5 {fill: #808076;}
        .stroke6 {fill: #808075;}
        .stroke7 {fill: #808074;}
        .stroke8 {fill: #808073;}
        .stroke9 {fill: #808072;}
        .stroke10 {fill: #808071;}
        .stroke11 {fill: #808070;}
        .stroke12 {fill: #808069;}
        .stroke13 {fill: #808068;}
        .stroke14 {fill: #808067;}
        .stroke15 {fill: #808066;}
        .stroke16 {fill: #808065;}
        .stroke17 {fill: #808064;}
        .stroke18 {fill: #808063;}
        .stroke19 {fill: #808062;}
        .stroke20 {fill: #808061;}
        text {
            font-family: Helvetica;
            font-size: 50px;
            fill: #808060;
            paint-order: stroke;
            stroke: #000000;
            stroke-width: 4px;
            stroke-linecap: butt;
            stroke-linejoin: miter;
            font-weight: 800;
        }
    </style>

    <path d="M 209 676 Q 236 654 265 626 Q 280 613 296 614 Q 308 614 313 629 Q 317 644 307 675 Q 301 694 269 709 Q 194 734 180 727 Q 174 723 177 709 Q 181 699 209 676 Z" class="stroke1"/>
    <path d="M 119 482 Q 170 430 204 414 Q 219 411 227 425 Q 233 437 230 453 Q 215 498 130 519 Q 114 523 105 520 Q 99 519 102 507 Q 103 495 119 482 Z" class="stroke2"/>
    <path d="M 117 139 Q 105 136 107 120 Q 119 53 153 33 Q 160 26 169 29 Q 176 30 177 54 Q 180 87 277 342 Q 284 357 283 363 Q 282 372 273 366 Q 263 359 155 180 Q 143 161 117 139 Z" class="stroke3"/>
    <path d="M 587 619 Q 737 652 742 654 Q 751 661 747 669 Q 740 679 714 687 Q 690 693 590 663 L 538 650 Q 478 640 409 634 Q 375 630 399 613 Q 430 592 504 604 Q 520 607 539 610 L 587 619 Z" class="stroke4"/>
    <path d="M 408 420 Q 424 450 459 498 Q 468 508 455 521 Q 421 548 400 545 Q 390 544 392 531 Q 401 459 325 370 Q 306 351 297 338 Q 290 325 302 329 Q 335 332 394 402 L 408 420 Z" class="stroke5"/>
    <path d="M 394 402 Q 437 347 457 346 Q 467 345 473 359 Q 474 369 467 385 Q 458 401 408 420 C 380 431 375 426 394 402 Z" class="stroke6"/>
    <path d="M 709 473 Q 715 483 721 494 Q 737 527 755 555 Q 762 565 749 577 Q 709 602 689 598 Q 679 595 683 583 Q 699 516 632 420 Q 626 420 604 382 Q 598 369 611 374 Q 644 381 695 451 L 709 473 Z" class="stroke7"/>
    <path d="M 695 451 Q 699 447 711 438 Q 751 410 795 377 Q 805 367 818 369 Q 825 370 829 380 Q 832 392 824 415 Q 817 437 781 454 Q 747 466 709 473 C 680 479 673 471 695 451 Z" class="stroke8"/>
    <path d="M 585 378 Q 585 588 587 619 L 590 663 Q 594 706 604 742 Q 614 758 610 772 Q 603 782 545 817 Q 520 833 499 818 Q 493 812 500 796 Q 536 745 537 694 Q 537 673 538 650 L 539 610 Q 543 448 535 410 L 539 323 Q 535 167 525 111 Q 503 18 523 -29 Q 526 -36 530 -45 Q 537 -64 545 -67 Q 552 -74 559 -65 Q 568 -61 578 -39 Q 588 -12 587 20 Q 586 60 585 337 L 585 378 Z" class="stroke9"/>
    <path d="M 535 410 Q 454 250 251 98 Q 239 86 248 85 Q 257 81 268 86 Q 397 135 539 323 C 557 347 549 437 535 410 Z" class="stroke10"/>
    <path d="M 585 337 Q 655 228 745 114 Q 763 93 793 93 Q 896 93 929 98 Q 939 99 940 105 Q 941 109 927 118 Q 791 179 729 232 Q 662 293 585 378 C 565 400 569 362 585 337 Z" class="stroke11"/>
    
    
    
    
    
    
    
    
    
    
    </g>
</svg>