<svg version="1.1" viewBox="0 0 1024 1024" xmlns="http://www.w3.org/2000/svg">
  
  <g transform="scale(1, -1) translate(0, -900)">
    <style type="text/css">
        .stroke1 {fill: #808080;}
        .stroke2 {fill: #808079;}
        .stroke3 {fill: #808078;}
        .stroke4 {fill: #808077;}
        .stroke5 {fill: #808076;}
        .stroke6 {fill: #808075;}
        .stroke7 {fill: #808074;}
        .stroke8 {fill: #808073;}
        .stroke9 {fill: #808072;}
        .stroke10 {fill: #808071;}
        .stroke11 {fill: #808070;}
        .stroke12 {fill: #808069;}
        .stroke13 {fill: #808068;}
        .stroke14 {fill: #808067;}
        .stroke15 {fill: #808066;}
        .stroke16 {fill: #808065;}
        .stroke17 {fill: #808064;}
        .stroke18 {fill: #808063;}
        .stroke19 {fill: #808062;}
        .stroke20 {fill: #808061;}
        text {
            font-family: Helvetica;
            font-size: 50px;
            fill: #808060;
            paint-order: stroke;
            stroke: #000000;
            stroke-width: 4px;
            stroke-linecap: butt;
            stroke-linejoin: miter;
            font-weight: 800;
        }
    </style>

    <path d="M 232 725 Q 259 701 287 672 Q 302 657 319 658 Q 331 658 337 673 Q 341 689 333 721 Q 324 752 228 778 Q 212 782 204 779 Q 198 775 200 761 Q 204 748 232 725 Z" class="stroke1"/>
    <path d="M 141 559 Q 195 502 233 488 Q 249 487 259 501 Q 265 514 261 532 Q 248 577 153 601 Q 135 605 125 601 Q 118 600 122 586 Q 123 573 141 559 Z" class="stroke2"/>
    <path d="M 123 186 Q 111 182 115 164 Q 133 89 168 74 Q 175 67 185 70 Q 192 71 193 97 Q 197 151 283 404 Q 289 420 287 426 Q 286 436 277 429 Q 268 423 161 230 Q 151 208 123 186 Z" class="stroke3"/>
    <path d="M 788 620 Q 818 701 847 716 Q 863 735 849 754 Q 833 767 779 794 Q 760 803 738 794 Q 629 751 463 734 C 433 731 461 698 491 701 Q 506 701 525 707 Q 556 714 590 718 L 629 726 Q 672 735 715 742 Q 740 746 749 737 Q 756 730 755 713 Q 748 664 736 625 C 728 596 777 592 788 620 Z" class="stroke4"/>
    <path d="M 590 718 Q 596 696 590 592 C 588 562 619 569 625 598 Q 631 629 637 650 Q 650 701 643 711 Q 636 720 629 726 C 607 746 584 747 590 718 Z" class="stroke5"/>
    <path d="M 469 542 Q 487 536 502 539 Q 598 563 803 583 Q 815 584 816 594 Q 816 603 788 620 L 736 625 Q 735 625 734 625 Q 677 612 625 598 L 590 592 Q 527 582 472 573 C 442 568 440 550 469 542 Z" class="stroke6"/>
    <path d="M 463 734 Q 427 759 406 753 Q 394 746 401 731 Q 419 704 420 645 Q 399 410 372 319 Q 368 312 366 302 Q 336 215 247 67 Q 241 60 240 54 Q 237 44 248 46 Q 287 53 369 193 Q 379 214 390 235 Q 447 370 469 542 L 472 573 Q 472 577 473 580 Q 477 652 491 701 C 495 715 489 719 463 734 Z" class="stroke7"/>
    <path d="M 550 459 Q 549 460 548 461 Q 539 468 526 473 Q 517 477 506 474 Q 499 470 504 458 Q 505 449 509 442 Q 533 388 510 191 Q 489 101 507 70 Q 510 61 518 53 Q 528 40 538 52 Q 551 68 551 88 Q 551 91 552 93 L 555 129 Q 556 139 556 149 Q 557 183 558 212 L 559 234 Q 560 282 563 316 L 564 340 Q 567 406 569 413 Q 570 423 570 429 C 571 444 571 444 550 459 Z" class="stroke8"/>
    <path d="M 698 105 Q 726 68 748 33 Q 758 14 768 15 Q 784 16 801 50 Q 819 87 815 134 Q 808 224 803 389 Q 802 420 818 442 Q 827 455 818 465 Q 799 484 748 507 Q 730 517 715 507 Q 657 480 550 459 C 521 453 540 427 570 429 Q 597 428 711 456 Q 727 459 735 453 Q 762 426 744 137 Q 738 121 726 125 C 700 110 696 107 698 105 Z" class="stroke9"/>
    <path d="M 563 316 Q 567 315 576 316 Q 648 329 700 337 Q 722 341 713 353 Q 703 366 679 370 Q 639 373 564 340 C 536 328 533 319 563 316 Z" class="stroke10"/>
    <path d="M 558 212 Q 565 211 577 211 Q 650 223 703 229 Q 725 233 717 245 Q 707 258 683 263 Q 650 267 559 234 C 531 224 528 215 558 212 Z" class="stroke11"/>
    <path d="M 552 93 Q 582 103 698 105 C 728 106 743 106 726 125 Q 719 134 702 145 Q 686 154 655 148 Q 600 136 555 129 C 525 124 523 85 552 93 Z" class="stroke12"/>
    
    
    
    
    
    
    
    
    
    
    
    </g>
</svg>