<svg version="1.1" viewBox="0 0 1024 1024" xmlns="http://www.w3.org/2000/svg">
  
  <g transform="scale(1, -1) translate(0, -900)">
    <style type="text/css">
        .stroke1 {fill: #808080;}
        .stroke2 {fill: #808079;}
        .stroke3 {fill: #808078;}
        .stroke4 {fill: #808077;}
        .stroke5 {fill: #808076;}
        .stroke6 {fill: #808075;}
        .stroke7 {fill: #808074;}
        .stroke8 {fill: #808073;}
        .stroke9 {fill: #808072;}
        .stroke10 {fill: #808071;}
        .stroke11 {fill: #808070;}
        .stroke12 {fill: #808069;}
        .stroke13 {fill: #808068;}
        .stroke14 {fill: #808067;}
        .stroke15 {fill: #808066;}
        .stroke16 {fill: #808065;}
        .stroke17 {fill: #808064;}
        .stroke18 {fill: #808063;}
        .stroke19 {fill: #808062;}
        .stroke20 {fill: #808061;}
        text {
            font-family: Helvetica;
            font-size: 50px;
            fill: #808060;
            paint-order: stroke;
            stroke: #000000;
            stroke-width: 4px;
            stroke-linecap: butt;
            stroke-linejoin: miter;
            font-weight: 800;
        }
    </style>

    <path d="M 206 673 Q 231 649 259 620 Q 272 607 288 607 Q 298 607 305 621 Q 309 636 302 665 Q 293 695 202 722 Q 186 726 180 723 Q 176 719 176 706 Q 179 696 206 673 Z" class="stroke1"/>
    <path d="M 103 496 Q 148 442 182 427 Q 198 423 207 437 Q 214 450 211 467 Q 199 510 117 534 L 116 535 Q 100 539 89 536 Q 83 535 85 522 Q 86 510 103 496 Z" class="stroke2"/>
    <path d="M 114 139 Q 102 135 105 118 Q 123 46 155 29 Q 161 23 171 26 Q 178 27 179 52 Q 182 83 274 349 Q 280 365 279 370 Q 278 380 269 373 Q 256 364 152 181 Q 140 160 114 139 Z" class="stroke3"/>
    <path d="M 475 496 Q 563 523 568 526 Q 575 533 571 541 Q 564 551 537 557 Q 495 563 477 545 L 439 532 Q 355 508 302 499 Q 269 492 294 477 Q 336 456 386 474 Q 402 480 424 483 L 475 496 Z" class="stroke4"/>
    <path d="M 473 409 Q 473 451 475 496 L 477 545 Q 477 666 500 744 Q 507 759 506 771 Q 499 781 447 814 Q 425 830 406 815 Q 402 811 407 796 Q 440 747 440 696 Q 440 623 440 538 Q 439 537 439 532 L 433 384 Q 429 311 429 233 Q 423 154 401 81 Q 391 45 414 -15 Q 420 -31 427 -35 Q 433 -41 440 -34 Q 467 -18 467 43 Q 466 85 472 379 L 473 409 Z" class="stroke5"/>
    <path d="M 424 483 Q 382 347 238 140 Q 234 130 244 130 Q 265 130 362 258 Q 399 310 433 384 C 494 514 433 512 424 483 Z" class="stroke6"/>
    <path d="M 472 379 Q 542 312 554 311 Q 561 311 565 321 Q 569 331 564 353 Q 558 380 476 409 Q 475 410 473 409 C 443 412 450 400 472 379 Z" class="stroke7"/>
    <path d="M 650 579 Q 631 594 608 600 Q 599 601 593 594 Q 590 588 597 578 Q 622 524 623 357 Q 623 228 595 137 Q 588 112 593 93 Q 602 60 613 48 Q 623 35 633 48 Q 643 60 649 83 L 655 117 Q 661 154 662 265 L 662 291 Q 662 342 662 393 L 662 418 Q 663 518 670 549 Q 670 552 670 553 C 672 564 672 564 650 579 Z" class="stroke8"/>
    <path d="M 784 98 Q 790 85 819 42 Q 837 17 845 20 Q 858 23 873 59 Q 888 99 883 151 Q 856 515 883 568 Q 895 587 886 599 Q 877 611 824 626 Q 797 636 779 624 Q 709 593 650 579 C 621 571 641 547 670 553 Q 682 554 757 576 Q 790 586 802 576 Q 817 561 817 504 Q 824 266 815 134 Q 816 121 813 115 C 810 85 769 124 784 98 Z" class="stroke9"/>
    <path d="M 662 393 Q 666 393 672 393 Q 730 403 772 408 Q 794 412 785 425 Q 775 438 751 441 Q 703 444 662 418 C 636 402 632 393 662 393 Z" class="stroke10"/>
    <path d="M 662 265 L 780 284 Q 802 288 793 301 Q 783 314 759 317 Q 725 320 662 291 C 635 279 632 260 662 265 Z" class="stroke11"/>
    <path d="M 649 83 Q 653 83 660 84 Q 700 93 784 98 C 814 100 827 101 813 115 Q 807 122 788 135 Q 772 144 744 137 Q 695 125 655 117 C 626 111 619 81 649 83 Z" class="stroke12"/>
    
    
    
    
    
    
    
    
    
    
    
    </g>
</svg>