<svg version="1.1" viewBox="0 0 1024 1024" xmlns="http://www.w3.org/2000/svg">
  
  <g transform="scale(1, -1) translate(0, -900)">
    <style type="text/css">
        .stroke1 {fill: #808080;}
        .stroke2 {fill: #808079;}
        .stroke3 {fill: #808078;}
        .stroke4 {fill: #808077;}
        .stroke5 {fill: #808076;}
        .stroke6 {fill: #808075;}
        .stroke7 {fill: #808074;}
        .stroke8 {fill: #808073;}
        .stroke9 {fill: #808072;}
        .stroke10 {fill: #808071;}
        .stroke11 {fill: #808070;}
        .stroke12 {fill: #808069;}
        .stroke13 {fill: #808068;}
        .stroke14 {fill: #808067;}
        .stroke15 {fill: #808066;}
        .stroke16 {fill: #808065;}
        .stroke17 {fill: #808064;}
        .stroke18 {fill: #808063;}
        .stroke19 {fill: #808062;}
        .stroke20 {fill: #808061;}
        text {
            font-family: Helvetica;
            font-size: 50px;
            fill: #808060;
            paint-order: stroke;
            stroke: #000000;
            stroke-width: 4px;
            stroke-linecap: butt;
            stroke-linejoin: miter;
            font-weight: 800;
        }
    </style>

    <path d="M 195 728 Q 220 703 247 671 Q 260 658 276 656 Q 286 656 293 669 Q 299 682 292 714 Q 288 733 258 751 Q 188 782 172 779 Q 166 775 167 762 Q 170 752 195 728 Z" class="stroke1"/>
    <path d="M 108 540 Q 156 489 190 473 Q 206 472 215 485 Q 221 498 218 515 Q 206 555 120 580 Q 102 584 93 580 Q 87 579 90 566 Q 91 554 108 540 Z" class="stroke2"/>
    <path d="M 98 190 Q 86 186 90 169 Q 106 99 143 83 Q 150 76 160 80 Q 167 81 166 106 Q 169 152 239 385 Q 245 401 243 407 Q 242 416 234 409 Q 225 403 131 230 Q 121 211 98 190 Z" class="stroke3"/>
    <path d="M 696 647 Q 759 653 813 657 Q 823 656 832 667 Q 833 677 812 689 Q 779 713 714 693 Q 711 693 711 692 L 663 682 Q 656 682 578 667 L 537 661 Q 494 657 456 652 L 417 649 Q 378 648 337 643 Q 310 642 330 624 Q 340 614 354 605 Q 367 598 388 603 Q 406 607 426 608 L 460 614 Q 497 621 538 626 L 575 632 Q 611 639 654 643 L 696 647 Z" class="stroke4"/>
    <path d="M 456 652 Q 453 680 452 705 Q 453 721 437 725 Q 409 741 387 735 Q 372 728 385 712 Q 407 684 417 649 L 426 608 Q 430 587 433 566 Q 437 550 449 538 Q 459 529 463 539 Q 464 545 460 614 L 456 652 Z" class="stroke5"/>
    <path d="M 578 667 Q 581 755 588 775 Q 595 791 584 801 Q 572 811 549 823 Q 530 830 512 822 Q 502 815 514 802 Q 533 768 537 661 L 538 626 Q 538 557 546 534 Q 550 524 559 530 Q 577 548 574 609 Q 574 621 575 632 L 578 667 Z" class="stroke6"/>
    <path d="M 654 643 Q 636 580 639 562 Q 640 549 654 560 Q 666 572 696 647 L 711 692 Q 720 723 738 755 Q 750 768 740 778 Q 728 793 697 806 Q 682 813 667 805 Q 657 799 665 790 Q 677 766 663 682 L 654 643 Z" class="stroke7"/>
    <path d="M 356 479 Q 343 506 327 515 Q 324 519 318 516 Q 314 513 312 502 Q 315 472 283 400 Q 273 384 274 367 Q 275 348 285 334 Q 292 322 298 330 Q 311 333 327 381 Q 345 430 354 446 Q 357 450 359 456 C 363 465 363 465 356 479 Z" class="stroke8"/>
    <path d="M 359 456 Q 386 438 414 445 Q 528 482 728 505 Q 764 509 777 507 Q 795 494 791 487 Q 792 483 776 426 Q 770 413 777 409 Q 784 405 799 418 Q 845 452 884 464 Q 915 474 915 483 Q 914 492 843 538 Q 824 553 757 540 Q 708 534 459 494 Q 411 487 363 481 Q 356 481 356 479 C 327 474 332 470 359 456 Z" class="stroke9"/>
    <path d="M 433 335 Q 412 356 384 352 Q 372 348 378 338 Q 409 274 382 178 Q 358 144 392 101 L 394 99 Q 400 87 408 93 Q 435 112 435 204 Q 435 276 439 301 C 442 327 442 327 433 335 Z" class="stroke10"/>
    <path d="M 591 328 Q 633 335 676 339 Q 704 343 708 323 Q 717 188 702 170 Q 690 161 626 172 Q 611 173 609 169 Q 606 165 618 156 Q 678 122 716 95 Q 729 85 740 98 Q 761 126 762 199 Q 756 283 765 331 Q 768 350 758 358 Q 733 380 715 390 Q 703 394 695 387 Q 689 378 592 358 L 539 349 Q 499 345 433 335 C 403 331 409 296 439 301 Q 443 301 448 302 Q 493 312 539 320 L 591 328 Z" class="stroke11"/>
    <path d="M 540 -25 Q 544 -49 551 -57 Q 555 -64 563 -62 Q 575 -53 582 0 Q 582 1 591 328 L 592 358 Q 593 385 601 415 Q 604 431 591 440 Q 561 459 548 462 Q 536 466 522 459 Q 513 452 520 442 Q 538 412 539 349 L 539 320 Q 539 -16 540 -25 Z" class="stroke12"/>
    
    
    
    
    
    
    
    
    
    
    
    </g>
</svg>