<svg version="1.1" viewBox="0 0 1024 1024" xmlns="http://www.w3.org/2000/svg">
  
  <g transform="scale(1, -1) translate(0, -900)">
    <style type="text/css">
        .stroke1 {fill: #808080;}
        .stroke2 {fill: #808079;}
        .stroke3 {fill: #808078;}
        .stroke4 {fill: #808077;}
        .stroke5 {fill: #808076;}
        .stroke6 {fill: #808075;}
        .stroke7 {fill: #808074;}
        .stroke8 {fill: #808073;}
        .stroke9 {fill: #808072;}
        .stroke10 {fill: #808071;}
        .stroke11 {fill: #808070;}
        .stroke12 {fill: #808069;}
        .stroke13 {fill: #808068;}
        .stroke14 {fill: #808067;}
        .stroke15 {fill: #808066;}
        .stroke16 {fill: #808065;}
        .stroke17 {fill: #808064;}
        .stroke18 {fill: #808063;}
        .stroke19 {fill: #808062;}
        .stroke20 {fill: #808061;}
        text {
            font-family: Helvetica;
            font-size: 50px;
            fill: #808060;
            paint-order: stroke;
            stroke: #000000;
            stroke-width: 4px;
            stroke-linecap: butt;
            stroke-linejoin: miter;
            font-weight: 800;
        }
    </style>

    <path d="M 201 666 Q 229 641 259 611 Q 274 598 291 597 Q 303 598 308 613 Q 314 629 304 661 Q 298 683 265 698 Q 189 725 172 719 Q 166 715 168 701 Q 172 688 201 666 Z" class="stroke1"/>
    <path d="M 114 450 Q 151 401 188 379 Q 204 375 215 389 Q 222 402 220 420 Q 214 445 196 461 Q 148 494 110 494 Q 106 495 102 493 Q 95 492 97 478 Q 98 465 114 450 Z" class="stroke2"/>
    <path d="M 117 117 Q 104 113 108 95 Q 130 16 165 2 Q 172 -5 184 -1 Q 191 0 190 27 Q 193 73 267 323 Q 273 339 272 346 Q 271 356 261 349 Q 246 337 152 159 Q 142 138 117 117 Z" class="stroke3"/>
    <path d="M 577 545 Q 584 626 590 701 L 594 731 Q 595 746 604 771 Q 607 781 586 796 Q 552 815 526 819 Q 510 822 502 813 Q 495 806 503 790 Q 530 757 534 537 C 535 507 574 515 577 545 Z" class="stroke4"/>
    <path d="M 590 701 Q 621 697 704 712 Q 735 721 770 728 Q 795 735 800 738 Q 807 745 803 753 Q 796 763 769 770 Q 741 774 715 762 Q 687 752 655 743 Q 627 737 594 731 C 564 726 560 704 590 701 Z" class="stroke5"/>
    <path d="M 361 518 Q 351 525 336 533 Q 326 539 314 534 Q 307 530 312 517 Q 313 505 318 494 Q 345 436 313 167 Q 307 133 296 93 Q 278 38 313 -10 Q 323 -23 335 -12 Q 344 0 347 13 L 353 52 Q 356 76 358 110 Q 377 464 383 481 C 386 502 386 502 361 518 Z" class="stroke6"/>
    <path d="M 733 30 Q 764 -10 789 -49 Q 799 -70 812 -69 Q 831 -68 848 -29 Q 869 16 864 69 Q 854 204 845 453 Q 844 489 862 514 Q 872 529 862 541 Q 841 563 781 591 Q 760 601 742 591 Q 673 564 577 545 L 534 537 Q 416 521 361 518 C 331 516 353 477 383 481 Q 404 482 692 536 Q 741 545 764 526 Q 797 493 788 183 Q 789 98 781 71 Q 777 53 760 56 C 738 36 732 31 733 30 Z" class="stroke7"/>
    <path d="M 584 306 Q 615 355 660 435 Q 676 466 677 468 Q 670 492 631 502 Q 612 506 602 504 Q 595 501 598 490 Q 610 444 546 325 L 527 294 Q 482 234 392 139 Q 385 133 395 132 Q 459 145 554 265 Q 555 268 559 271 L 584 306 Z" class="stroke8"/>
    <path d="M 559 271 Q 614 234 674 188 Q 687 175 698 174 Q 704 174 708 182 Q 715 192 702 221 Q 689 254 584 306 L 546 325 Q 471 361 429 377 Q 422 378 422 371 Q 423 361 432 355 Q 477 327 527 294 L 559 271 Z" class="stroke9"/>
    <path d="M 470 452 Q 513 394 535 390 Q 547 389 553 404 Q 554 416 547 434 Q 532 462 475 475 Q 468 476 466 467 Q 465 460 470 452 Z" class="stroke10"/>
    <path d="M 391 301 Q 434 253 452 253 Q 464 252 468 268 Q 469 278 460 295 Q 445 317 394 324 Q 387 325 386 315 Q 385 308 391 301 Z" class="stroke11"/>
    <path d="M 649 361 Q 706 307 728 308 Q 740 308 743 324 Q 743 336 733 352 Q 715 379 650 385 Q 643 385 642 375 Q 642 368 649 361 Z" class="stroke12"/>
    <path d="M 523 178 Q 574 117 597 113 Q 610 112 617 130 Q 618 143 609 162 Q 599 177 577 185 Q 543 201 528 204 Q 519 205 518 194 Q 517 187 523 178 Z" class="stroke13"/>
    <path d="M 347 13 Q 354 12 364 13 Q 482 31 733 30 C 763 30 780 34 760 56 Q 753 65 739 76 Q 721 88 686 83 Q 500 58 353 52 C 323 51 317 14 347 13 Z" class="stroke14"/>
    
    
    
    
    
    
    
    
    
    
    
    
    
    </g>
</svg>