<svg version="1.1" viewBox="0 0 1024 1024" xmlns="http://www.w3.org/2000/svg">
  
  <g transform="scale(1, -1) translate(0, -900)">
    <style type="text/css">
        .stroke1 {fill: #808080;}
        .stroke2 {fill: #808079;}
        .stroke3 {fill: #808078;}
        .stroke4 {fill: #808077;}
        .stroke5 {fill: #808076;}
        .stroke6 {fill: #808075;}
        .stroke7 {fill: #808074;}
        .stroke8 {fill: #808073;}
        .stroke9 {fill: #808072;}
        .stroke10 {fill: #808071;}
        .stroke11 {fill: #808070;}
        .stroke12 {fill: #808069;}
        .stroke13 {fill: #808068;}
        .stroke14 {fill: #808067;}
        .stroke15 {fill: #808066;}
        .stroke16 {fill: #808065;}
        .stroke17 {fill: #808064;}
        .stroke18 {fill: #808063;}
        .stroke19 {fill: #808062;}
        .stroke20 {fill: #808061;}
        text {
            font-family: Helvetica;
            font-size: 50px;
            fill: #808060;
            paint-order: stroke;
            stroke: #000000;
            stroke-width: 4px;
            stroke-linecap: butt;
            stroke-linejoin: miter;
            font-weight: 800;
        }
    </style>

    <path d="M 196 714 Q 215 692 237 667 Q 250 652 267 652 Q 277 651 285 665 Q 291 680 284 712 Q 280 730 253 744 Q 186 772 172 767 Q 166 763 167 750 Q 170 738 196 714 Z" class="stroke1"/>
    <path d="M 108 491 Q 144 437 173 425 Q 189 421 199 433 Q 206 446 205 463 Q 201 488 183 502 Q 144 532 105 533 Q 101 534 98 532 Q 91 531 93 519 Q 94 506 108 491 Z" class="stroke2"/>
    <path d="M 92 131 Q 80 128 81 111 Q 93 38 126 20 Q 132 13 142 15 Q 149 16 151 41 Q 160 90 272 349 Q 279 365 279 370 Q 278 380 269 374 Q 256 365 135 175 Q 122 153 92 131 Z" class="stroke3"/>
    <path d="M 447 765 Q 469 747 493 724 Q 509 711 525 713 Q 535 714 541 728 Q 545 744 534 775 Q 522 803 439 815 Q 423 819 416 815 Q 410 811 413 797 Q 417 787 447 765 Z" class="stroke4"/>
    <path d="M 274 589 Q 262 588 260 579 Q 257 569 272 559 Q 311 537 364 557 Q 469 596 567 616 Q 583 619 583 626 Q 583 639 565 646 Q 540 655 518 649 Q 352 603 274 589 Z" class="stroke5"/>
    <path d="M 351 489 Q 321 480 345 469 Q 376 454 438 473 Q 466 482 500 492 Q 516 496 518 500 Q 525 507 520 514 Q 513 524 487 527 Q 460 528 402 502 Q 378 495 351 489 Z" class="stroke6"/>
    <path d="M 348 389 Q 317 380 341 368 Q 375 356 446 375 Q 473 382 502 391 Q 518 397 522 400 Q 529 407 524 414 Q 517 424 491 427 Q 470 428 402 402 Q 378 395 348 389 Z" class="stroke7"/>
    <path d="M 330 275 Q 320 281 294 284 Q 284 287 280 282 Q 276 278 282 263 Q 306 214 321 134 Q 324 110 338 94 Q 354 75 358 89 Q 362 102 360 127 L 356 155 Q 344 230 343 251 C 342 270 342 270 330 275 Z" class="stroke8"/>
    <path d="M 498 185 Q 511 242 529 260 Q 548 285 526 297 Q 507 307 482 322 Q 463 331 446 319 Q 413 295 330 275 C 301 268 314 245 343 251 Q 359 254 431 272 Q 450 276 455 269 Q 461 265 457 240 Q 453 215 449 183 C 445 153 491 156 498 185 Z" class="stroke9"/>
    <path d="M 360 127 Q 367 126 377 129 Q 420 142 512 157 Q 521 158 521 166 Q 521 173 498 185 C 483 193 478 192 449 183 Q 397 167 356 155 C 327 147 330 128 360 127 Z" class="stroke10"/>
    <path d="M 649 569 Q 703 650 732 708 Q 748 745 764 763 Q 771 773 766 787 Q 760 800 730 819 Q 702 834 683 832 Q 665 828 675 807 Q 688 785 683 764 Q 665 694 632 628 Q 601 564 555 491 Q 546 481 545 474 Q 544 462 556 466 Q 575 473 631 543 L 649 569 Z" class="stroke11"/>
    <path d="M 742 548 Q 890 593 893 594 Q 900 601 896 609 Q 889 619 861 625 Q 839 628 751 595 Q 679 576 649 569 C 620 562 602 552 631 543 Q 658 534 691 535 L 742 548 Z" class="stroke12"/>
    <path d="M 762 371 Q 831 383 941 387 Q 990 387 997 398 Q 1001 410 985 422 Q 928 462 875 440 Q 829 430 763 414 L 713 403 Q 631 388 539 370 Q 520 367 535 351 Q 548 339 567 334 Q 586 330 602 336 Q 654 352 713 362 L 762 371 Z" class="stroke13"/>
    <path d="M 713 362 Q 707 -37 718 -65 Q 719 -69 722 -73 Q 728 -80 735 -78 Q 751 -68 755 -13 Q 762 60 762 132 Q 759 186 762 371 L 763 414 Q 763 465 775 509 Q 778 525 764 535 Q 752 542 742 548 C 716 563 679 562 691 535 Q 712 499 713 412 Q 713 409 713 403 L 713 362 Z" class="stroke14"/>
    
    
    
    
    
    
    
    
    
    
    
    
    
    </g>
</svg>