<svg version="1.1" viewBox="0 0 1024 1024" xmlns="http://www.w3.org/2000/svg">
  
  <g transform="scale(1, -1) translate(0, -900)">
    <style type="text/css">
        .stroke1 {fill: #808080;}
        .stroke2 {fill: #808079;}
        .stroke3 {fill: #808078;}
        .stroke4 {fill: #808077;}
        .stroke5 {fill: #808076;}
        .stroke6 {fill: #808075;}
        .stroke7 {fill: #808074;}
        .stroke8 {fill: #808073;}
        .stroke9 {fill: #808072;}
        .stroke10 {fill: #808071;}
        .stroke11 {fill: #808070;}
        .stroke12 {fill: #808069;}
        .stroke13 {fill: #808068;}
        .stroke14 {fill: #808067;}
        .stroke15 {fill: #808066;}
        .stroke16 {fill: #808065;}
        .stroke17 {fill: #808064;}
        .stroke18 {fill: #808063;}
        .stroke19 {fill: #808062;}
        .stroke20 {fill: #808061;}
        text {
            font-family: Helvetica;
            font-size: 50px;
            fill: #808060;
            paint-order: stroke;
            stroke: #000000;
            stroke-width: 4px;
            stroke-linecap: butt;
            stroke-linejoin: miter;
            font-weight: 800;
        }
    </style>

    <path d="M 262 723 Q 287 699 313 672 Q 328 656 346 657 Q 359 658 364 673 Q 370 689 360 724 Q 354 743 323 758 Q 245 788 232 779 Q 226 775 228 760 Q 232 747 262 723 Z" class="stroke1"/>
    <path d="M 148 516 Q 202 462 235 449 Q 250 446 259 461 Q 265 474 261 491 Q 249 533 159 556 Q 143 560 133 556 Q 126 555 130 542 Q 131 530 148 516 Z" class="stroke2"/>
    <path d="M 132 142 Q 120 139 122 121 Q 138 46 171 28 Q 178 21 189 24 Q 196 25 197 51 Q 204 97 305 360 Q 312 376 311 382 Q 310 392 301 385 Q 289 378 173 187 Q 160 165 132 142 Z" class="stroke3"/>
    <path d="M 608 734 Q 624 759 641 771 Q 650 780 647 793 Q 643 806 619 828 Q 595 847 577 848 Q 559 847 566 826 Q 579 790 506 683 Q 472 634 424 580 Q 414 571 412 566 Q 408 556 421 557 Q 470 564 594 716 L 608 734 Z" class="stroke4"/>
    <path d="M 640 538 Q 739 653 795 688 Q 814 697 803 711 Q 791 724 757 750 Q 747 754 672 740 Q 614 734 608 734 C 578 732 567 729 594 716 Q 604 706 665 704 Q 692 708 696 703 Q 700 699 692 684 Q 634 581 595 529 C 577 505 620 515 640 538 Z" class="stroke5"/>
    <path d="M 434 499 Q 422 503 392 508 Q 380 511 377 505 Q 371 499 380 483 Q 417 408 441 284 Q 445 247 467 223 Q 486 201 491 218 L 493 232 L 493 260 Q 492 278 486 299 Q 458 420 450 463 C 444 492 444 496 434 499 Z" class="stroke6"/>
    <path d="M 706 261 Q 725 227 744 217 Q 754 207 773 230 Q 792 260 834 424 Q 844 457 870 483 Q 885 496 873 512 Q 857 531 811 560 Q 789 572 726 553 Q 716 553 640 538 L 595 529 Q 570 526 543 520 Q 482 507 434 499 C 404 494 422 452 450 463 Q 457 472 571 491 L 613 499 Q 746 529 770 510 Q 786 497 781 473 Q 744 307 724 286 C 709 260 704 264 706 261 Z" class="stroke7"/>
    <path d="M 629 378 Q 665 385 699 391 Q 723 395 713 408 Q 703 423 677 426 Q 658 427 631 420 L 581 404 Q 544 392 511 381 Q 495 377 515 363 Q 524 356 543 360 Q 561 364 582 368 L 629 378 Z" class="stroke8"/>
    <path d="M 625 287 Q 626 336 629 378 L 631 420 Q 638 475 632 483 Q 622 493 613 499 C 589 517 562 520 571 491 Q 577 478 581 410 Q 580 407 581 404 L 582 368 Q 582 331 584 278 C 585 248 624 257 625 287 Z" class="stroke9"/>
    <path d="M 493 232 Q 517 238 706 261 C 736 265 750 270 724 286 Q 714 293 701 296 Q 692 299 625 287 L 584 278 Q 535 271 493 260 C 464 253 464 226 493 232 Z" class="stroke10"/>
    <path d="M 359 165 Q 332 111 296 64 Q 272 33 289 -2 Q 296 -21 318 -10 Q 369 24 381 105 Q 388 138 382 163 Q 378 172 372 173 Q 363 172 359 165 Z" class="stroke11"/>
    <path d="M 481 123 Q 520 41 540 34 Q 553 30 564 45 Q 570 58 566 80 Q 560 99 539 114 Q 508 141 493 148 Q 484 152 480 141 Q 476 134 481 123 Z" class="stroke12"/>
    <path d="M 651 121 Q 675 93 698 59 Q 708 46 722 44 Q 731 43 737 53 Q 744 65 741 92 Q 740 111 713 131 Q 649 170 636 167 Q 632 164 631 153 Q 632 143 651 121 Z" class="stroke13"/>
    <path d="M 812 168 Q 854 113 902 34 Q 914 12 928 5 Q 935 2 945 10 Q 960 20 955 66 Q 952 108 897 146 Q 855 177 818 197 Q 811 204 806 192 Q 803 179 812 168 Z" class="stroke14"/>
    
    
    
    
    
    
    
    
    
    
    
    
    
    </g>
</svg>