<svg version="1.1" viewBox="0 0 1024 1024" xmlns="http://www.w3.org/2000/svg">
  
  <g transform="scale(1, -1) translate(0, -900)">
    <style type="text/css">
        .stroke1 {fill: #808080;}
        .stroke2 {fill: #808079;}
        .stroke3 {fill: #808078;}
        .stroke4 {fill: #808077;}
        .stroke5 {fill: #808076;}
        .stroke6 {fill: #808075;}
        .stroke7 {fill: #808074;}
        .stroke8 {fill: #808073;}
        .stroke9 {fill: #808072;}
        .stroke10 {fill: #808071;}
        .stroke11 {fill: #808070;}
        .stroke12 {fill: #808069;}
        .stroke13 {fill: #808068;}
        .stroke14 {fill: #808067;}
        .stroke15 {fill: #808066;}
        .stroke16 {fill: #808065;}
        .stroke17 {fill: #808064;}
        .stroke18 {fill: #808063;}
        .stroke19 {fill: #808062;}
        .stroke20 {fill: #808061;}
        text {
            font-family: Helvetica;
            font-size: 50px;
            fill: #808060;
            paint-order: stroke;
            stroke: #000000;
            stroke-width: 4px;
            stroke-linecap: butt;
            stroke-linejoin: miter;
            font-weight: 800;
        }
    </style>

    <path d="M 204 682 Q 228 658 253 630 Q 268 614 286 614 Q 298 614 304 629 Q 311 645 302 680 Q 298 699 266 715 Q 194 746 176 739 Q 170 735 171 720 Q 175 707 204 682 Z" class="stroke1"/>
    <path d="M 117 491 Q 171 437 205 424 Q 221 423 231 436 Q 237 451 233 468 Q 218 510 129 533 Q 111 537 101 533 Q 94 532 98 518 Q 99 505 117 491 Z" class="stroke2"/>
    <path d="M 126 166 Q 113 162 116 144 Q 134 68 169 48 Q 176 41 187 44 Q 194 45 195 72 Q 199 123 290 371 Q 297 387 295 394 Q 294 404 285 397 Q 270 388 170 217 Q 149 186 126 166 Z" class="stroke3"/>
    <path d="M 491 605 Q 573 629 576 632 Q 583 639 579 646 Q 572 656 547 661 Q 522 664 496 652 L 456 637 Q 443 634 431 630 Q 394 620 350 613 Q 319 606 342 592 Q 375 574 428 589 Q 431 590 438 591 L 491 605 Z" class="stroke4"/>
    <path d="M 488 575 Q 489 591 491 605 L 496 652 Q 502 704 515 728 Q 521 735 511 747 Q 492 762 469 772 Q 454 779 443 774 Q 431 770 436 758 Q 454 728 456 637 L 454 541 Q 453 486 446 461 Q 445 452 459 417 Q 466 404 479 411 Q 491 420 488 502 Q 487 529 488 553 L 488 575 Z" class="stroke5"/>
    <path d="M 438 591 Q 408 530 316 423 Q 312 414 320 413 Q 324 412 333 419 Q 402 461 454 541 C 496 605 452 618 438 591 Z" class="stroke6"/>
    <path d="M 488 553 Q 531 505 550 505 Q 560 505 564 518 Q 565 528 557 543 Q 550 555 530 561 Q 502 574 489 575 Q 488 576 488 575 C 467 576 468 575 488 553 Z" class="stroke7"/>
    <path d="M 722 627 Q 836 655 840 658 Q 847 665 843 673 Q 836 683 809 690 Q 790 693 726 672 L 688 661 Q 654 655 619 650 Q 586 643 610 629 Q 632 619 670 617 L 722 627 Z" class="stroke8"/>
    <path d="M 721 625 Q 721 626 722 627 L 726 672 Q 729 735 749 769 Q 755 778 744 789 Q 725 805 700 815 Q 685 822 673 818 Q 661 814 667 801 Q 686 768 688 661 L 686 564 Q 683 500 677 471 Q 676 459 690 425 Q 699 412 712 419 Q 724 429 720 518 Q 719 555 720 590 L 721 625 Z" class="stroke9"/>
    <path d="M 670 617 Q 640 548 556 446 Q 552 439 560 437 Q 564 436 573 443 Q 642 491 686 564 C 727 631 682 644 670 617 Z" class="stroke10"/>
    <path d="M 720 590 Q 766 527 825 460 Q 838 448 859 450 Q 950 460 956 469 Q 956 472 947 477 Q 847 517 781 571 Q 754 595 721 625 C 699 645 702 614 720 590 Z" class="stroke11"/>
    <path d="M 612 100 Q 667 61 741 -6 Q 765 -28 782 -28 Q 804 -29 805 -10 Q 806 11 780 57 Q 768 87 643 142 L 597 163 Q 551 184 517 195 Q 496 201 509 220 Q 540 271 554 292 L 579 333 Q 591 345 590 352 Q 586 365 550 396 Q 540 406 529 403 Q 516 402 522 385 Q 529 361 520 339 Q 517 332 514 323 L 498 284 Q 479 245 461 222 Q 451 204 452 192 Q 455 182 471 177 Q 528 159 572 127 L 612 100 Z" class="stroke12"/>
    <path d="M 572 127 Q 497 43 381 10 Q 366 6 377 -1 Q 389 -5 423 -2 Q 469 2 508 21 Q 550 39 612 100 L 643 142 Q 688 232 714 258 Q 727 271 715 284 Q 703 300 693 308 C 671 329 647 334 647 304 Q 648 288 644 270 Q 628 215 597 163 L 572 127 Z" class="stroke13"/>
    <path d="M 693 308 Q 762 314 876 313 Q 895 313 900 322 Q 904 332 888 346 Q 837 382 801 374 Q 725 356 591 335 Q 584 335 579 333 L 514 323 Q 427 313 332 298 Q 311 295 327 279 Q 340 266 358 261 Q 379 257 394 261 Q 443 276 498 284 L 554 292 Q 569 298 647 304 L 693 308 Z" class="stroke14"/>
    
    
    
    
    
    
    
    
    
    
    
    
    
    </g>
</svg>