<svg version="1.1" viewBox="0 0 1024 1024" xmlns="http://www.w3.org/2000/svg">
  
  <g transform="scale(1, -1) translate(0, -900)">
    <style type="text/css">
        .stroke1 {fill: #808080;}
        .stroke2 {fill: #808079;}
        .stroke3 {fill: #808078;}
        .stroke4 {fill: #808077;}
        .stroke5 {fill: #808076;}
        .stroke6 {fill: #808075;}
        .stroke7 {fill: #808074;}
        .stroke8 {fill: #808073;}
        .stroke9 {fill: #808072;}
        .stroke10 {fill: #808071;}
        .stroke11 {fill: #808070;}
        .stroke12 {fill: #808069;}
        .stroke13 {fill: #808068;}
        .stroke14 {fill: #808067;}
        .stroke15 {fill: #808066;}
        .stroke16 {fill: #808065;}
        .stroke17 {fill: #808064;}
        .stroke18 {fill: #808063;}
        .stroke19 {fill: #808062;}
        .stroke20 {fill: #808061;}
        text {
            font-family: Helvetica;
            font-size: 50px;
            fill: #808060;
            paint-order: stroke;
            stroke: #000000;
            stroke-width: 4px;
            stroke-linecap: butt;
            stroke-linejoin: miter;
            font-weight: 800;
        }
    </style>

    <path d="M 209 717 Q 234 695 261 670 Q 276 657 292 658 Q 304 658 309 673 Q 313 689 303 719 Q 293 746 203 767 Q 187 770 180 767 Q 174 763 177 749 Q 181 739 209 717 Z" class="stroke1"/>
    <path d="M 125 509 Q 167 449 200 432 Q 216 428 227 441 Q 234 454 233 472 Q 224 524 143 548 L 142 549 Q 124 556 114 552 Q 107 551 109 538 Q 110 525 125 509 Z" class="stroke2"/>
    <path d="M 125 118 Q 113 114 116 96 Q 134 20 169 0 Q 176 -7 187 -3 Q 194 -2 195 24 Q 199 69 298 343 Q 305 359 303 366 Q 302 376 293 369 Q 278 360 167 164 Q 154 142 125 118 Z" class="stroke3"/>
    <path d="M 470 631 Q 495 638 522 644 Q 552 651 556 656 Q 563 663 559 670 Q 552 680 527 685 Q 502 689 476 679 L 434 664 Q 380 649 318 640 Q 287 634 310 620 Q 346 602 396 615 Q 402 618 410 618 L 470 631 Z" class="stroke4"/>
    <path d="M 467 598 Q 467 614 470 631 L 476 679 Q 476 710 496 749 Q 502 756 492 769 Q 473 785 448 795 Q 433 802 421 798 Q 409 794 414 782 Q 432 749 434 664 L 431 564 Q 428 494 422 463 Q 421 451 434 418 Q 443 405 456 411 Q 468 421 467 445 Q 466 478 466 508 Q 465 545 466 582 L 467 598 Z" class="stroke5"/>
    <path d="M 410 618 Q 371 537 272 420 Q 265 411 276 410 Q 289 407 365 478 Q 399 512 431 564 C 475 634 424 647 410 618 Z" class="stroke6"/>
    <path d="M 466 582 Q 467 581 469 578 Q 508 526 529 522 Q 539 521 545 535 Q 546 545 540 561 Q 527 585 474 599 Q 470 600 467 598 C 457 594 457 594 466 582 Z" class="stroke7"/>
    <path d="M 719 662 Q 845 690 851 696 Q 858 703 855 710 Q 848 720 823 726 Q 805 729 723 704 L 678 692 Q 638 685 595 680 Q 564 674 586 660 Q 613 645 655 648 L 719 662 Z" class="stroke8"/>
    <path d="M 718 661 Q 718 662 719 662 L 723 704 Q 729 758 745 784 Q 751 794 740 806 Q 718 824 692 835 Q 676 842 662 837 Q 649 833 655 819 Q 677 785 678 692 L 677 594 Q 674 510 667 476 Q 666 464 681 426 Q 691 411 705 419 Q 718 431 715 524 Q 714 576 716 623 L 718 661 Z" class="stroke9"/>
    <path d="M 655 648 Q 622 570 523 444 Q 517 435 528 434 Q 534 433 543 441 Q 616 495 677 594 C 721 664 668 678 655 648 Z" class="stroke10"/>
    <path d="M 716 623 Q 759 545 814 461 Q 827 445 850 443 Q 929 439 955 440 Q 962 441 964 445 Q 965 449 955 456 Q 844 516 777 592 Q 747 625 718 661 C 699 684 701 649 716 623 Z" class="stroke11"/>
    <path d="M 458 172 Q 459 209 462 235 L 463 259 Q 467 310 470 328 C 473 350 473 350 465 357 Q 441 381 413 378 Q 400 374 405 363 Q 444 281 402 111 Q 383 54 383 51 Q 383 24 401 1 Q 407 -12 416 -7 Q 453 17 455 137 Q 455 141 456 144 L 458 172 Z" class="stroke12"/>
    <path d="M 470 328 Q 471 328 652 359 Q 671 363 677 353 Q 683 337 688 194 Q 688 70 677 53 Q 673 47 654 52 Q 633 56 611 62 Q 592 69 592 59 Q 638 11 666 -25 Q 679 -44 694 -49 Q 703 -53 711 -44 Q 756 1 754 58 Q 730 299 754 340 Q 766 359 754 370 Q 733 389 697 404 Q 678 411 663 405 Q 581 365 465 357 C 435 354 440 323 470 328 Z" class="stroke13"/>
    <path d="M 462 235 Q 466 234 478 235 Q 557 247 615 253 Q 637 257 629 269 Q 619 282 595 287 Q 565 293 463 259 C 435 250 432 238 462 235 Z" class="stroke14"/>
    <path d="M 456 144 Q 462 144 470 144 Q 561 153 629 157 Q 651 158 644 172 Q 635 188 610 194 Q 579 200 458 172 C 429 165 426 144 456 144 Z" class="stroke15"/>
    
    
    
    
    
    
    
    
    
    
    
    
    
    
    </g>
</svg>