<svg version="1.1" viewBox="0 0 1024 1024" xmlns="http://www.w3.org/2000/svg">
  
  <g transform="scale(1, -1) translate(0, -900)">
    <style type="text/css">
        .stroke1 {fill: #808080;}
        .stroke2 {fill: #808079;}
        .stroke3 {fill: #808078;}
        .stroke4 {fill: #808077;}
        .stroke5 {fill: #808076;}
        .stroke6 {fill: #808075;}
        .stroke7 {fill: #808074;}
        .stroke8 {fill: #808073;}
        .stroke9 {fill: #808072;}
        .stroke10 {fill: #808071;}
        .stroke11 {fill: #808070;}
        .stroke12 {fill: #808069;}
        .stroke13 {fill: #808068;}
        .stroke14 {fill: #808067;}
        .stroke15 {fill: #808066;}
        .stroke16 {fill: #808065;}
        .stroke17 {fill: #808064;}
        .stroke18 {fill: #808063;}
        .stroke19 {fill: #808062;}
        .stroke20 {fill: #808061;}
        text {
            font-family: Helvetica;
            font-size: 50px;
            fill: #808060;
            paint-order: stroke;
            stroke: #000000;
            stroke-width: 4px;
            stroke-linecap: butt;
            stroke-linejoin: miter;
            font-weight: 800;
        }
    </style>

    <path d="M 180 692 Q 199 673 221 651 Q 236 638 252 638 Q 264 639 269 653 Q 273 668 264 699 Q 255 726 175 742 Q 159 746 152 743 Q 146 739 148 725 Q 152 715 180 692 Z" class="stroke1"/>
    <path d="M 117 497 Q 162 442 191 428 Q 206 424 215 437 Q 222 449 220 465 Q 208 511 132 533 L 131 534 Q 115 538 105 536 Q 99 535 101 523 Q 102 511 117 497 Z" class="stroke2"/>
    <path d="M 100 167 Q 88 163 91 146 Q 103 77 138 57 Q 145 50 155 53 Q 162 54 163 78 Q 167 118 261 365 Q 268 381 267 386 Q 266 396 257 390 Q 251 387 138 207 Q 126 188 100 167 Z" class="stroke3"/>
    <path d="M 346 616 Q 331 631 311 637 Q 302 641 291 637 Q 285 633 290 622 Q 311 543 312 443 Q 308 275 291 212 Q 278 160 311 121 Q 320 109 330 120 Q 340 135 341 153 L 344 186 Q 345 216 346 313 L 347 343 Q 347 400 349 442 L 350 474 Q 350 579 355 590 C 358 606 358 606 346 616 Z" class="stroke4"/>
    <path d="M 433 165 Q 445 146 457 128 Q 473 106 481 108 Q 493 111 506 144 Q 516 174 511 268 Q 492 562 512 603 Q 522 621 513 631 Q 506 641 456 654 Q 432 661 416 650 Q 377 628 346 616 C 318 604 326 584 355 590 Q 379 593 414 608 Q 432 615 438 609 Q 451 596 453 545 Q 460 329 453 211 Q 456 198 449 192 C 443 163 425 177 433 165 Z" class="stroke5"/>
    <path d="M 349 442 Q 397 451 430 456 Q 451 462 442 473 Q 430 486 406 487 Q 384 488 350 474 C 322 463 320 436 349 442 Z" class="stroke6"/>
    <path d="M 346 313 Q 347 313 433 324 Q 455 330 445 341 Q 435 354 410 357 Q 389 357 347 343 C 319 334 316 310 346 313 Z" class="stroke7"/>
    <path d="M 341 153 Q 345 153 352 154 Q 377 161 433 165 C 463 167 472 172 449 192 Q 445 196 435 202 Q 417 211 344 186 C 316 176 311 152 341 153 Z" class="stroke8"/>
    <path d="M 585 502 Q 648 583 697 671 Q 713 705 728 723 Q 735 733 731 745 Q 727 757 699 775 Q 674 790 656 788 Q 640 785 649 766 Q 680 706 524 468 Q 515 458 514 453 Q 513 443 524 446 Q 533 449 557 472 L 585 502 Z" class="stroke9"/>
    <path d="M 631 137 Q 627 363 633 416 Q 640 444 621 465 Q 591 498 585 502 C 563 523 546 500 557 472 Q 578 423 586 370 Q 586 198 562 91 Q 552 46 586 -5 Q 587 -5 589 -8 Q 607 -24 619 3 Q 631 39 632 109 L 631 137 Z" class="stroke10"/>
    <path d="M 739 634 Q 760 613 782 587 Q 792 574 806 574 Q 816 574 821 585 Q 827 597 821 623 Q 814 653 739 676 Q 726 680 720 679 Q 716 676 716 664 Q 717 654 739 634 Z" class="stroke11"/>
    <path d="M 771 495 Q 891 526 892 528 Q 899 535 895 542 Q 888 552 863 557 Q 838 561 812 550 Q 784 540 753 530 Q 719 521 678 516 Q 647 510 670 496 Q 694 484 731 486 L 771 495 Z" class="stroke12"/>
    <path d="M 796 373 Q 835 382 871 387 Q 895 391 885 404 Q 875 419 849 422 Q 828 425 797 415 L 747 399 Q 711 387 679 377 Q 663 373 683 359 Q 693 352 712 356 Q 730 360 748 363 L 796 373 Z" class="stroke13"/>
    <path d="M 792 264 Q 838 274 879 279 Q 901 283 893 296 Q 883 311 857 315 Q 833 316 793 305 L 748 291 Q 709 281 675 269 Q 659 265 679 251 Q 689 244 709 248 Q 728 252 748 255 L 792 264 Z" class="stroke14"/>
    <path d="M 789 168 Q 790 219 792 264 L 793 305 Q 794 341 796 373 L 797 415 Q 797 416 798 418 Q 801 469 797 474 Q 784 487 771 495 C 746 512 718 513 731 486 Q 746 459 747 399 L 748 363 Q 748 335 748 291 L 748 255 Q 748 213 748 159 C 748 129 788 138 789 168 Z" class="stroke15"/>
    <path d="M 748 159 Q 693 150 631 137 C 602 131 603 118 632 109 Q 657 100 678 105 Q 771 132 905 134 Q 917 133 927 134 Q 945 135 948 142 Q 952 152 938 164 Q 884 197 830 178 Q 811 175 789 168 L 748 159 Z" class="stroke16"/>
    
    
    
    
    
    
    
    
    
    
    
    
    
    
    
    </g>
</svg>