<svg version="1.1" viewBox="0 0 1024 1024" xmlns="http://www.w3.org/2000/svg">
  
  <g transform="scale(1, -1) translate(0, -900)">
    <style type="text/css">
        .stroke1 {fill: #808080;}
        .stroke2 {fill: #808079;}
        .stroke3 {fill: #808078;}
        .stroke4 {fill: #808077;}
        .stroke5 {fill: #808076;}
        .stroke6 {fill: #808075;}
        .stroke7 {fill: #808074;}
        .stroke8 {fill: #808073;}
        .stroke9 {fill: #808072;}
        .stroke10 {fill: #808071;}
        .stroke11 {fill: #808070;}
        .stroke12 {fill: #808069;}
        .stroke13 {fill: #808068;}
        .stroke14 {fill: #808067;}
        .stroke15 {fill: #808066;}
        .stroke16 {fill: #808065;}
        .stroke17 {fill: #808064;}
        .stroke18 {fill: #808063;}
        .stroke19 {fill: #808062;}
        .stroke20 {fill: #808061;}
        text {
            font-family: Helvetica;
            font-size: 50px;
            fill: #808060;
            paint-order: stroke;
            stroke: #000000;
            stroke-width: 4px;
            stroke-linecap: butt;
            stroke-linejoin: miter;
            font-weight: 800;
        }
    </style>

    <path d="M 223 709 Q 245 691 269 668 Q 285 655 301 657 Q 311 658 317 672 Q 321 688 310 719 Q 298 747 215 759 Q 199 763 192 759 Q 186 755 189 741 Q 193 731 223 709 Z" class="stroke1"/>
    <path d="M 113 511 Q 161 451 190 440 Q 205 436 215 449 Q 222 462 220 479 Q 208 527 129 549 L 128 550 Q 112 556 102 552 Q 95 551 97 538 Q 98 526 113 511 Z" class="stroke2"/>
    <path d="M 107 175 Q 97 172 98 156 Q 111 84 141 68 Q 147 61 157 64 Q 164 65 165 88 Q 172 133 277 378 Q 284 393 283 398 Q 282 408 273 402 Q 264 396 148 216 Q 135 195 107 175 Z" class="stroke3"/>
    <path d="M 434 665 Q 470 653 508 662 Q 625 686 747 710 Q 802 723 811 730 Q 818 737 815 745 Q 808 755 782 763 Q 755 769 666 738 Q 522 702 429 694 Q 426 694 425 693 C 395 689 405 673 434 665 Z" class="stroke4"/>
    <path d="M 425 693 Q 380 729 358 721 Q 346 714 352 701 Q 373 670 370 609 Q 351 372 309 257 Q 308 253 306 248 Q 270 154 174 1 Q 170 -5 168 -11 Q 165 -21 175 -19 Q 211 -13 297 124 Q 310 151 325 179 Q 391 326 419 576 Q 419 612 433 662 Q 433 665 434 665 C 439 683 439 683 425 693 Z" class="stroke5"/>
    <path d="M 527 561 Q 614 597 615 598 Q 616 605 608 612 Q 566 637 545 633 Q 541 630 540 623 Q 541 601 444 544 Q 441 538 445 536 Q 448 536 499 551 L 527 561 Z" class="stroke6"/>
    <path d="M 541 471 Q 563 478 587 484 Q 609 491 612 494 Q 618 500 614 505 Q 610 512 590 515 Q 569 518 543 505 L 508 493 Q 504 493 500 491 Q 470 482 435 476 Q 413 472 429 461 Q 459 449 494 459 L 541 471 Z" class="stroke7"/>
    <path d="M 540 450 Q 540 460 541 471 L 543 505 Q 544 518 548 529 Q 552 536 551 544 Q 547 548 527 561 C 502 577 492 580 499 551 Q 502 545 508 493 L 509 420 Q 509 363 503 340 Q 499 322 511 288 Q 514 278 519 277 L 526 278 Q 530 279 535 291 Q 536 300 540 428 L 540 450 Z" class="stroke8"/>
    <path d="M 494 459 Q 464 399 408 328 Q 404 321 412 320 Q 439 320 507 416 Q 507 419 509 420 C 537 473 508 486 494 459 Z" class="stroke9"/>
    <path d="M 540 428 Q 583 397 593 397 Q 600 397 603 409 Q 603 416 595 427 Q 583 445 540 450 C 510 454 516 446 540 428 Z" class="stroke10"/>
    <path d="M 740 596 Q 792 623 825 631 Q 838 632 840 639 Q 841 646 833 654 Q 790 681 762 678 Q 758 675 757 667 Q 758 642 656 581 Q 652 574 657 572 Q 660 572 668 576 Q 681 577 710 586 L 740 596 Z" class="stroke11"/>
    <path d="M 761 507 Q 858 528 863 532 Q 870 538 866 544 Q 862 551 841 557 Q 822 561 763 540 L 724 530 Q 696 526 665 522 Q 640 518 658 506 Q 674 497 705 496 L 761 507 Z" class="stroke12"/>
    <path d="M 763 540 Q 764 550 766 561 Q 770 577 756 586 Q 747 592 740 596 C 714 611 699 614 710 586 Q 723 555 724 530 L 725 451 Q 713 337 717 325 Q 721 307 730 298 Q 737 291 745 299 Q 760 318 760 415 Q 760 443 760 482 L 761 507 L 763 540 Z" class="stroke13"/>
    <path d="M 705 496 Q 678 427 601 351 Q 594 341 600 341 Q 609 338 652 365 Q 680 386 722 446 Q 723 449 725 451 C 761 509 716 524 705 496 Z" class="stroke14"/>
    <path d="M 760 482 Q 788 434 821 389 Q 837 370 865 368 Q 917 361 971 368 Q 984 368 986 372 Q 989 376 978 382 Q 855 428 761 507 C 738 526 745 508 760 482 Z" class="stroke15"/>
    <path d="M 636 76 Q 643 130 649 179 L 652 202 Q 652 212 661 244 Q 670 268 654 283 Q 624 301 604 305 Q 591 308 584 301 Q 577 295 584 282 Q 597 263 597 251 Q 601 169 599 72 C 598 42 632 46 636 76 Z" class="stroke16"/>
    <path d="M 649 179 Q 679 170 764 189 Q 776 192 789 195 Q 805 199 808 201 Q 815 208 811 215 Q 804 224 781 229 Q 774 230 697 211 Q 676 207 652 202 C 623 196 620 186 649 179 Z" class="stroke17"/>
    <path d="M 515 62 Q 512 150 516 175 Q 517 196 505 206 Q 484 222 459 230 Q 446 234 438 229 Q 431 223 437 210 Q 458 177 477 59 C 482 29 516 32 515 62 Z" class="stroke18"/>
    <path d="M 477 59 Q 407 53 329 45 Q 308 44 323 27 Q 336 14 353 7 Q 374 1 389 6 Q 540 43 866 43 Q 884 43 902 42 Q 921 42 926 50 Q 932 60 916 75 Q 865 114 830 106 Q 757 93 636 76 L 599 72 Q 559 68 515 62 L 477 59 Z" class="stroke19"/>
    
    
    
    
    
    
    
    
    
    
    
    
    
    
    
    
    
    
    </g>
</svg>