<svg version="1.1" viewBox="0 0 1024 1024" xmlns="http://www.w3.org/2000/svg">
  
  <g transform="scale(1, -1) translate(0, -900)">
    <style type="text/css">
        .stroke1 {fill: #808080;}
        .stroke2 {fill: #808079;}
        .stroke3 {fill: #808078;}
        .stroke4 {fill: #808077;}
        .stroke5 {fill: #808076;}
        .stroke6 {fill: #808075;}
        .stroke7 {fill: #808074;}
        .stroke8 {fill: #808073;}
        .stroke9 {fill: #808072;}
        .stroke10 {fill: #808071;}
        .stroke11 {fill: #808070;}
        .stroke12 {fill: #808069;}
        .stroke13 {fill: #808068;}
        .stroke14 {fill: #808067;}
        .stroke15 {fill: #808066;}
        .stroke16 {fill: #808065;}
        .stroke17 {fill: #808064;}
        .stroke18 {fill: #808063;}
        .stroke19 {fill: #808062;}
        .stroke20 {fill: #808061;}
        text {
            font-family: Helvetica;
            font-size: 50px;
            fill: #808060;
            paint-order: stroke;
            stroke: #000000;
            stroke-width: 4px;
            stroke-linecap: butt;
            stroke-linejoin: miter;
            font-weight: 800;
        }
    </style>

    <path d="M 151 689 Q 173 670 196 644 Q 208 632 222 633 Q 232 633 237 645 Q 241 658 234 685 Q 230 703 204 715 Q 143 739 128 735 Q 124 731 124 720 Q 127 710 151 689 Z" class="stroke1"/>
    <path d="M 94 491 Q 130 449 161 435 Q 174 432 183 445 Q 189 457 186 472 Q 180 494 163 505 Q 120 536 83 529 Q 82 529 81 528 Q 75 527 78 515 Q 79 505 94 491 Z" class="stroke2"/>
    <path d="M 87 158 Q 77 154 79 138 Q 97 71 130 55 Q 137 49 146 52 Q 153 53 152 77 Q 153 111 223 342 Q 229 357 227 363 Q 226 372 218 365 Q 209 359 119 196 Q 109 177 87 158 Z" class="stroke3"/>
    <path d="M 493 656 Q 530 663 565 669 Q 572 668 578 677 Q 579 686 562 692 Q 538 707 502 693 L 458 680 Q 445 677 434 674 Q 400 665 369 657 L 331 651 Q 298 647 266 641 Q 247 637 262 626 Q 271 619 281 614 Q 284 613 336 621 L 370 629 Q 407 639 453 648 L 493 656 Z" class="stroke4"/>
    <path d="M 369 657 Q 369 667 369 675 Q 368 703 369 717 Q 373 732 364 739 Q 351 746 330 754 Q 314 758 299 749 Q 292 742 303 732 Q 321 714 331 651 L 336 621 Q 336 620 337 617 Q 346 539 355 524 Q 361 517 366 522 C 373 523 373 529 373 559 Q 373 593 370 629 L 369 657 Z" class="stroke5"/>
    <path d="M 476 580 Q 483 620 493 656 L 502 693 Q 512 757 532 789 Q 536 798 522 811 Q 497 830 479 836 Q 467 840 460 835 Q 453 829 458 817 Q 468 795 468 781 Q 464 733 458 680 L 453 648 Q 449 617 443 582 C 438 552 471 550 476 580 Z" class="stroke6"/>
    <path d="M 385 532 Q 392 541 489 555 Q 496 556 497 564 Q 497 570 476 580 L 443 582 Q 439 582 434 580 Q 400 567 373 559 C 323 544 360 515 385 532 Z" class="stroke7"/>
    <path d="M 295 468 Q 286 472 260 475 Q 250 476 248 473 Q 244 467 251 455 Q 272 421 288 361 Q 291 343 303 332 Q 318 316 321 329 Q 322 336 323 345 L 319 369 Q 309 424 306 443 C 302 465 302 465 295 468 Z" class="stroke8"/>
    <path d="M 533 405 Q 546 445 571 461 Q 584 474 573 488 Q 560 498 521 518 Q 508 524 491 517 Q 464 507 440 498 L 383 484 Q 340 475 295 468 C 265 463 277 434 306 443 Q 321 449 386 460 L 435 471 Q 453 475 472 479 Q 491 483 500 475 Q 506 471 504 458 Q 500 428 492 403 C 483 374 523 377 533 405 Z" class="stroke9"/>
    <path d="M 427 363 Q 475 370 547 378 Q 554 379 556 385 Q 556 391 534 405 L 533 405 L 492 403 Q 458 396 429 389 L 385 380 Q 348 374 319 369 C 289 364 293 343 323 345 Q 329 345 334 346 Q 353 352 384 356 L 427 363 Z" class="stroke10"/>
    <path d="M 416 279 Q 456 289 493 295 Q 512 299 505 310 Q 496 322 475 325 Q 456 326 421 316 L 379 303 Q 327 288 281 275 Q 268 271 285 259 Q 292 255 374 270 L 416 279 Z" class="stroke11"/>
    <path d="M 396 193 Q 460 209 540 222 Q 553 223 553 229 Q 554 239 540 246 Q 519 255 502 250 Q 447 237 405 225 L 358 214 Q 256 195 218 190 Q 208 189 206 182 Q 205 175 216 166 Q 243 147 296 163 Q 320 172 345 178 L 396 193 Z" class="stroke12"/>
    <path d="M 345 178 Q 342 174 341 168 Q 320 122 238 38 Q 226 28 224 22 Q 223 16 232 17 Q 265 17 327 81 Q 369 127 396 193 L 405 225 Q 411 249 416 279 L 421 316 Q 424 338 427 363 L 429 389 Q 432 425 434 464 Q 434 468 435 471 L 440 498 Q 439 510 427 515 Q 399 528 385 532 C 357 542 356 542 366 522 Q 366 518 371 512 Q 378 499 383 484 L 386 460 Q 387 457 387 452 Q 388 425 385 380 L 384 356 Q 383 335 380 310 Q 379 307 379 303 L 374 270 Q 368 245 358 214 L 345 178 Z" class="stroke13"/>
    <path d="M 440 139 Q 486 70 507 67 Q 519 66 526 80 Q 529 92 522 110 Q 507 141 447 162 Q 440 165 437 155 Q 436 148 440 139 Z" class="stroke14"/>
    <path d="M 613 548 Q 664 612 713 709 Q 726 739 738 754 Q 745 764 740 775 Q 734 785 707 803 Q 682 816 666 813 Q 650 809 659 791 Q 690 746 575 540 Q 566 531 561 516 Q 560 506 572 510 Q 579 513 594 527 L 613 548 Z" class="stroke15"/>
    <path d="M 654 158 Q 657 468 659 490 Q 663 509 658 517 Q 652 535 614 548 L 613 548 C 585 558 584 555 594 527 Q 595 520 600 510 Q 630 455 612 184 Q 608 147 597 99 Q 585 48 618 5 Q 628 -8 638 4 Q 653 23 654 143 L 654 158 Z" class="stroke16"/>
    <path d="M 768 672 Q 790 653 814 628 Q 824 618 837 618 Q 844 618 849 629 Q 853 639 847 663 Q 843 679 818 692 Q 758 716 748 710 Q 744 707 745 698 Q 748 689 768 672 Z" class="stroke17"/>
    <path d="M 792 520 Q 834 532 880 543 Q 905 550 908 553 Q 915 560 911 567 Q 904 576 881 581 Q 856 584 833 573 Q 805 563 775 553 Q 741 544 701 538 Q 673 532 694 520 Q 718 508 756 510 L 792 520 Z" class="stroke18"/>
    <path d="M 816 395 Q 897 416 900 419 Q 907 425 903 431 Q 897 440 875 444 Q 850 450 816 432 L 772 419 Q 744 413 713 408 Q 685 402 706 391 Q 733 379 772 383 L 816 395 Z" class="stroke19"/>
    <path d="M 814 287 Q 842 296 876 304 Q 897 310 900 313 Q 907 320 903 327 Q 896 336 873 340 Q 858 343 814 328 L 773 314 Q 745 307 713 303 Q 685 296 706 284 Q 730 271 773 276 L 814 287 Z" class="stroke20"/>
    <path d="M 812 187 Q 813 239 814 287 L 814 328 Q 815 364 816 395 L 816 432 Q 816 453 818 476 Q 824 497 792 520 C 768 539 745 538 756 510 Q 766 492 772 419 L 772 383 Q 772 355 773 314 L 773 276 Q 773 234 773 179 C 773 149 811 157 812 187 Z" class="stroke21"/>
    <path d="M 773 179 Q 719 170 657 159 Q 654 159 654 158 C 638 154 638 154 654 143 Q 681 121 711 129 Q 789 153 930 155 Q 942 155 952 156 Q 968 156 972 164 Q 976 174 962 184 Q 911 217 856 198 Q 835 194 812 187 L 773 179 Z" class="stroke22"/>
    
    
    
    
    
    
    
    
    
    
    
    
    
    
    
    
    
    
    
    
    
    </g>
</svg>