<svg version="1.1" viewBox="0 0 1024 1024" xmlns="http://www.w3.org/2000/svg">
  
  <g transform="scale(1, -1) translate(0, -900)">
    <style type="text/css">
        .stroke1 {fill: #808080;}
        .stroke2 {fill: #808079;}
        .stroke3 {fill: #808078;}
        .stroke4 {fill: #808077;}
        .stroke5 {fill: #808076;}
        .stroke6 {fill: #808075;}
        .stroke7 {fill: #808074;}
        .stroke8 {fill: #808073;}
        .stroke9 {fill: #808072;}
        .stroke10 {fill: #808071;}
        .stroke11 {fill: #808070;}
        .stroke12 {fill: #808069;}
        .stroke13 {fill: #808068;}
        .stroke14 {fill: #808067;}
        .stroke15 {fill: #808066;}
        .stroke16 {fill: #808065;}
        .stroke17 {fill: #808064;}
        .stroke18 {fill: #808063;}
        .stroke19 {fill: #808062;}
        .stroke20 {fill: #808061;}
        text {
            font-family: Helvetica;
            font-size: 50px;
            fill: #808060;
            paint-order: stroke;
            stroke: #000000;
            stroke-width: 4px;
            stroke-linecap: butt;
            stroke-linejoin: miter;
            font-weight: 800;
        }
    </style>

    <path d="M 156 577 Q 146 520 127 466 Q 115 433 141 398 Q 154 382 172 400 Q 211 451 197 525 Q 194 559 180 583 Q 173 590 167 590 Q 158 586 156 577 Z" class="stroke1"/>
    <path d="M 334 536 Q 434 591 483 611 Q 501 614 498 625 Q 494 641 478 662 Q 462 681 440 687 Q 425 688 424 669 Q 425 656 414 641 Q 384 608 332 559 C 310 538 308 522 334 536 Z" class="stroke2"/>
    <path d="M 319 351 Q 325 435 334 536 L 332 559 Q 333 685 356 742 Q 363 757 352 769 Q 328 788 287 798 Q 260 805 252 797 Q 242 790 251 777 Q 311 681 270 356 Q 243 218 179 151 Q 151 123 112 92 Q 99 83 100 79 Q 101 75 113 76 Q 126 72 160 88 Q 277 136 313 315 Q 313 319 315 323 L 319 351 Z" class="stroke3"/>
    <path d="M 315 323 Q 319 316 331 306 Q 368 272 406 231 Q 416 218 430 218 Q 440 218 445 229 Q 451 241 445 268 Q 438 308 331 348 Q 325 351 319 351 C 293 354 298 347 315 323 Z" class="stroke4"/>
    <path d="M 712 569 Q 781 579 887 582 Q 938 582 945 594 Q 951 607 932 620 Q 871 665 818 644 Q 715 620 484 576 Q 462 573 479 555 Q 515 525 555 538 Q 607 554 668 563 L 712 569 Z" class="stroke5"/>
    <path d="M 641 105 Q 613 112 577 120 Q 564 124 565 116 Q 566 107 577 98 Q 652 46 700 2 Q 713 -7 727 10 Q 767 67 761 149 Q 746 329 754 500 Q 760 528 753 539 Q 744 552 712 569 C 686 584 655 590 668 563 Q 669 556 677 544 Q 689 519 689 476 Q 693 379 696 156 Q 695 119 684 105 Q 672 98 641 105 Z" class="stroke6"/>
    
    
    
    
    
    </g>
</svg>