<svg version="1.1" viewBox="0 0 1024 1024" xmlns="http://www.w3.org/2000/svg">
  
  <g transform="scale(1, -1) translate(0, -900)">
    <style type="text/css">
        .stroke1 {fill: #808080;}
        .stroke2 {fill: #808079;}
        .stroke3 {fill: #808078;}
        .stroke4 {fill: #808077;}
        .stroke5 {fill: #808076;}
        .stroke6 {fill: #808075;}
        .stroke7 {fill: #808074;}
        .stroke8 {fill: #808073;}
        .stroke9 {fill: #808072;}
        .stroke10 {fill: #808071;}
        .stroke11 {fill: #808070;}
        .stroke12 {fill: #808069;}
        .stroke13 {fill: #808068;}
        .stroke14 {fill: #808067;}
        .stroke15 {fill: #808066;}
        .stroke16 {fill: #808065;}
        .stroke17 {fill: #808064;}
        .stroke18 {fill: #808063;}
        .stroke19 {fill: #808062;}
        .stroke20 {fill: #808061;}
        text {
            font-family: Helvetica;
            font-size: 50px;
            fill: #808060;
            paint-order: stroke;
            stroke: #000000;
            stroke-width: 4px;
            stroke-linecap: butt;
            stroke-linejoin: miter;
            font-weight: 800;
        }
    </style>

    <path d="M 275 680 Q 314 625 347 605 Q 360 601 371 613 Q 378 625 377 641 Q 370 683 291 716 Q 275 723 266 720 Q 260 719 261 707 Q 261 695 275 680 Z" class="stroke1"/>
    <path d="M 658 759 Q 651 749 584 681 Q 572 666 589 668 Q 632 683 655 695 Q 730 729 735 731 Q 757 738 749 756 Q 739 774 716 790 Q 695 806 683 805 Q 671 805 673 792 Q 674 774 658 759 Z" class="stroke2"/>
    <path d="M 453 807 Q 481 750 441 624 Q 401 509 310 457 Q 295 445 280 435 Q 267 426 279 424 Q 330 420 402 483 Q 439 513 459 547 Q 501 640 507 664 Q 507 700 527 747 Q 530 762 537 773 Q 546 789 531 799 Q 488 835 460 826 Q 447 822 453 807 Z" class="stroke3"/>
    <path d="M 546 580 Q 592 550 647 505 Q 663 490 676 489 Q 683 489 688 498 Q 697 511 681 546 Q 666 582 543 606 Q 536 609 535 598 Q 536 588 546 580 Z" class="stroke4"/>
    <path d="M 230 305 Q 278 245 316 223 Q 332 219 343 233 Q 350 246 348 264 Q 344 289 325 305 Q 298 329 245 346 Q 229 352 218 348 Q 211 347 213 334 Q 214 321 230 305 Z" class="stroke5"/>
    <path d="M 683 404 Q 658 380 578 318 Q 565 303 582 303 Q 636 319 715 351 Q 737 363 763 367 Q 787 371 780 392 Q 770 413 748 432 Q 727 451 714 451 Q 701 452 702 439 Q 701 420 683 404 Z" class="stroke6"/>
    <path d="M 496 311 Q 514 401 520 411 Q 527 418 522 430 Q 515 437 483 451 Q 447 469 430 462 Q 417 455 428 438 Q 458 366 423 250 Q 381 121 228 41 Q 192 25 145 3 Q 117 -10 150 -11 Q 172 -14 216 1 Q 271 13 320 38 Q 365 59 400 102 Q 457 165 488 278 L 496 311 Z" class="stroke7"/>
    <path d="M 488 278 Q 593 122 734 -19 Q 753 -34 773 -33 Q 849 -24 916 -17 Q 944 -14 944 -7 Q 945 0 912 13 Q 758 64 707 102 Q 589 196 496 311 C 477 334 471 303 488 278 Z" class="stroke8"/>
    
    
    
    
    
    
    
    </g>
</svg>