<svg version="1.1" viewBox="0 0 1024 1024" xmlns="http://www.w3.org/2000/svg">
  
  <g transform="scale(1, -1) translate(0, -900)">
    <style type="text/css">
        .stroke1 {fill: #808080;}
        .stroke2 {fill: #808079;}
        .stroke3 {fill: #808078;}
        .stroke4 {fill: #808077;}
        .stroke5 {fill: #808076;}
        .stroke6 {fill: #808075;}
        .stroke7 {fill: #808074;}
        .stroke8 {fill: #808073;}
        .stroke9 {fill: #808072;}
        .stroke10 {fill: #808071;}
        .stroke11 {fill: #808070;}
        .stroke12 {fill: #808069;}
        .stroke13 {fill: #808068;}
        .stroke14 {fill: #808067;}
        .stroke15 {fill: #808066;}
        .stroke16 {fill: #808065;}
        .stroke17 {fill: #808064;}
        .stroke18 {fill: #808063;}
        .stroke19 {fill: #808062;}
        .stroke20 {fill: #808061;}
        text {
            font-family: Helvetica;
            font-size: 50px;
            fill: #808060;
            paint-order: stroke;
            stroke: #000000;
            stroke-width: 4px;
            stroke-linecap: butt;
            stroke-linejoin: miter;
            font-weight: 800;
        }
    </style>

    <path d="M 122 550 Q 113 486 93 424 Q 81 393 107 361 Q 117 346 134 363 Q 176 417 159 502 Q 156 533 144 555 Q 137 562 132 561 Q 125 558 122 550 Z" class="stroke1"/>
    <path d="M 280 501 Q 380 558 401 565 Q 420 572 412 588 Q 402 603 381 616 Q 362 629 352 628 Q 342 627 344 616 Q 344 601 281 527 C 262 504 254 486 280 501 Z" class="stroke2"/>
    <path d="M 263 254 Q 275 315 280 501 L 281 527 Q 282 636 308 710 Q 315 725 304 736 Q 280 755 239 766 Q 214 773 204 766 Q 194 759 202 745 Q 263 652 220 297 Q 201 183 146 121 Q 112 87 57 52 Q 44 43 44 39 Q 45 35 58 35 Q 71 32 105 46 Q 229 88 260 238 L 263 254 Z" class="stroke3"/>
    <path d="M 260 238 Q 264 229 285 211 Q 313 186 342 157 Q 354 145 367 145 Q 376 145 381 157 Q 385 170 379 195 Q 373 225 283 253 Q 270 257 264 255 Q 263 255 263 254 C 253 250 253 250 260 238 Z" class="stroke4"/>
    <path d="M 635 554 Q 678 567 727 578 Q 767 588 772 595 Q 781 604 776 612 Q 769 624 738 630 Q 708 634 639 605 L 588 588 Q 584 588 583 587 Q 528 572 464 563 Q 427 554 454 539 Q 496 518 586 541 L 635 554 Z" class="stroke5"/>
    <path d="M 625 308 Q 670 329 714 333 C 744 337 751 379 722 373 Q 670 363 626 350 L 577 336 Q 534 324 497 308 Q 484 304 487 322 Q 493 356 499 394 Q 503 418 494 433 Q 481 451 456 466 Q 446 472 434 470 Q 424 466 431 447 Q 450 398 440 351 Q 433 306 413 287 Q 395 268 403 255 Q 415 239 433 229 Q 446 222 457 231 Q 475 255 574 290 L 625 308 Z" class="stroke6"/>
    <path d="M 714 333 Q 718 311 725 293 Q 732 277 744 287 Q 765 305 777 374 Q 777 380 794 434 Q 797 444 804 452 Q 817 473 766 510 Q 762 513 759 515 Q 747 522 736 517 Q 729 514 730 502 Q 754 453 722 373 L 714 333 Z" class="stroke7"/>
    <path d="M 979 73 Q 957 122 942 208 Q 939 223 933 228 Q 924 235 921 219 Q 899 110 868 88 Q 843 64 728 66 Q 664 72 645 107 Q 624 152 625 308 L 626 350 Q 629 470 635 554 L 639 605 Q 643 692 656 734 Q 665 755 635 777 Q 610 793 590 805 Q 572 817 555 806 Q 543 800 564 773 Q 588 739 588 693 Q 589 657 588 588 L 586 541 Q 583 378 577 336 L 574 290 Q 565 116 622 49 Q 665 1 830 8 Q 903 11 958 36 Q 992 46 979 73 Z" class="stroke8"/>
    
    
    
    
    
    
    
    </g>
</svg>