<svg version="1.1" viewBox="0 0 1024 1024" xmlns="http://www.w3.org/2000/svg">
  
  <g transform="scale(1, -1) translate(0, -900)">
    <style type="text/css">
        .stroke1 {fill: #808080;}
        .stroke2 {fill: #808079;}
        .stroke3 {fill: #808078;}
        .stroke4 {fill: #808077;}
        .stroke5 {fill: #808076;}
        .stroke6 {fill: #808075;}
        .stroke7 {fill: #808074;}
        .stroke8 {fill: #808073;}
        .stroke9 {fill: #808072;}
        .stroke10 {fill: #808071;}
        .stroke11 {fill: #808070;}
        .stroke12 {fill: #808069;}
        .stroke13 {fill: #808068;}
        .stroke14 {fill: #808067;}
        .stroke15 {fill: #808066;}
        .stroke16 {fill: #808065;}
        .stroke17 {fill: #808064;}
        .stroke18 {fill: #808063;}
        .stroke19 {fill: #808062;}
        .stroke20 {fill: #808061;}
        text {
            font-family: Helvetica;
            font-size: 50px;
            fill: #808060;
            paint-order: stroke;
            stroke: #000000;
            stroke-width: 4px;
            stroke-linecap: butt;
            stroke-linejoin: miter;
            font-weight: 800;
        }
    </style>

    <path d="M 142 565 Q 136 504 119 447 Q 107 414 134 385 Q 146 370 162 388 Q 201 439 181 519 Q 177 550 164 571 Q 157 578 152 577 Q 145 573 142 565 Z" class="stroke1"/>
    <path d="M 306 522 Q 345 540 390 564 Q 408 577 429 583 Q 448 590 440 606 Q 430 622 409 637 Q 390 650 378 649 Q 368 649 370 637 Q 370 615 308 550 C 287 528 279 509 306 522 Z" class="stroke2"/>
    <path d="M 287 308 Q 299 387 306 522 L 308 550 Q 309 682 334 735 Q 341 750 330 761 Q 308 780 268 791 Q 243 797 233 790 Q 224 783 232 770 Q 256 733 259 686 Q 274 350 204 186 Q 167 111 113 52 Q 103 42 103 38 Q 106 34 117 37 Q 127 33 155 50 Q 248 101 281 271 L 283 285 L 287 308 Z" class="stroke3"/>
    <path d="M 283 285 Q 287 278 302 264 Q 333 234 364 199 Q 374 187 387 187 Q 396 186 401 197 Q 405 209 401 233 Q 398 255 368 275 Q 337 291 287 308 C 261 317 266 310 283 285 Z" class="stroke4"/>
    <path d="M 647 639 Q 720 660 780 669 Q 802 672 806 665 Q 816 650 807 613 Q 791 508 762 464 Q 740 430 710 438 Q 688 444 669 452 Q 642 462 660 435 Q 697 389 714 353 Q 732 331 752 346 Q 785 365 810 403 Q 838 446 869 587 Q 879 636 900 659 Q 915 674 908 685 Q 898 698 841 725 Q 819 735 796 722 Q 771 706 675 684 Q 579 659 498 653 Q 477 652 475 642 Q 474 633 500 620 Q 528 602 550 611 Q 577 620 606 627 L 647 639 Z" class="stroke5"/>
    <path d="M 606 627 Q 625 552 441 342 Q 429 335 428 324 Q 428 320 433 319 Q 514 335 641 533 Q 645 548 673 583 Q 680 593 672 607 Q 659 628 647 639 C 626 661 602 657 606 627 Z" class="stroke6"/>
    <path d="M 522 269 Q 509 276 479 282 Q 466 286 461 280 Q 454 274 463 256 Q 494 181 509 62 Q 510 26 531 1 Q 550 -24 556 -7 Q 563 11 562 40 L 558 77 Q 540 195 538 233 C 536 263 536 263 522 269 Z" class="stroke7"/>
    <path d="M 817 100 Q 851 202 888 229 Q 907 250 891 271 Q 873 286 810 318 Q 792 327 768 318 Q 672 284 522 269 C 492 266 508 229 538 233 Q 764 266 774 261 Q 775 261 778 258 Q 788 248 786 225 Q 774 161 759 109 C 751 80 807 72 817 100 Z" class="stroke8"/>
    <path d="M 562 40 Q 572 39 585 40 Q 663 55 829 62 Q 841 63 843 73 Q 843 80 817 100 C 798 115 789 114 759 109 L 757 109 Q 646 87 558 77 C 528 74 532 42 562 40 Z" class="stroke9"/>
    
    
    
    
    
    
    
    
    </g>
</svg>