<svg version="1.1" viewBox="0 0 1024 1024" xmlns="http://www.w3.org/2000/svg">
  
  <g transform="scale(1, -1) translate(0, -900)">
    <style type="text/css">
        .stroke1 {fill: #808080;}
        .stroke2 {fill: #808079;}
        .stroke3 {fill: #808078;}
        .stroke4 {fill: #808077;}
        .stroke5 {fill: #808076;}
        .stroke6 {fill: #808075;}
        .stroke7 {fill: #808074;}
        .stroke8 {fill: #808073;}
        .stroke9 {fill: #808072;}
        .stroke10 {fill: #808071;}
        .stroke11 {fill: #808070;}
        .stroke12 {fill: #808069;}
        .stroke13 {fill: #808068;}
        .stroke14 {fill: #808067;}
        .stroke15 {fill: #808066;}
        .stroke16 {fill: #808065;}
        .stroke17 {fill: #808064;}
        .stroke18 {fill: #808063;}
        .stroke19 {fill: #808062;}
        .stroke20 {fill: #808061;}
        text {
            font-family: Helvetica;
            font-size: 50px;
            fill: #808060;
            paint-order: stroke;
            stroke: #000000;
            stroke-width: 4px;
            stroke-linecap: butt;
            stroke-linejoin: miter;
            font-weight: 800;
        }
    </style>

    <path d="M 132 579 Q 131 512 120 448 Q 116 412 141 388 Q 154 375 169 393 Q 182 415 184 449 Q 188 498 175 537 Q 168 568 153 587 Q 146 593 140 592 Q 133 588 132 579 Z" class="stroke1"/>
    <path d="M 306 529 Q 400 593 447 616 Q 477 623 438 666 Q 420 685 398 687 Q 383 688 383 668 Q 384 655 376 639 Q 351 605 304 554 C 284 532 281 512 306 529 Z" class="stroke2"/>
    <path d="M 287 318 Q 296 387 306 529 L 304 554 Q 305 677 328 734 Q 335 749 324 761 Q 300 780 259 790 Q 232 797 224 789 Q 214 782 223 769 Q 283 673 242 348 Q 215 210 151 143 Q 123 115 84 84 Q 71 75 72 71 Q 73 67 85 68 Q 98 64 132 80 Q 243 125 279 276 Q 280 282 281 288 L 287 318 Z" class="stroke3"/>
    <path d="M 281 288 Q 285 282 295 274 Q 332 240 370 199 Q 380 186 394 186 Q 404 186 409 197 Q 415 209 409 236 Q 402 276 295 316 Q 291 317 287 318 C 258 325 262 311 281 288 Z" class="stroke4"/>
    <path d="M 628 711 Q 640 736 650 749 Q 657 756 654 766 Q 651 776 637 786 Q 621 798 600 801 Q 578 805 567 802 Q 558 798 562 786 Q 587 711 482 545 Q 478 539 474 533 Q 443 487 360 392 Q 353 386 363 384 Q 393 394 459 453 Q 460 456 463 457 Q 533 526 613 680 L 628 711 Z" class="stroke5"/>
    <path d="M 613 680 Q 692 571 793 453 Q 811 434 840 435 Q 942 436 973 442 Q 983 443 984 449 Q 984 453 971 461 Q 821 515 751 585 Q 693 640 628 711 C 608 733 595 704 613 680 Z" class="stroke6"/>
    <path d="M 499 447 Q 462 438 490 423 Q 533 399 591 418 Q 636 430 684 442 Q 706 448 709 451 Q 718 460 712 468 Q 705 480 674 485 Q 643 489 613 475 Q 588 466 562 459 Q 534 452 499 447 Z" class="stroke7"/>
    <path d="M 589 299 Q 644 314 790 319 Q 833 319 841 329 Q 845 339 830 351 Q 770 387 718 366 Q 673 357 609 341 Q 530 326 438 308 Q 419 305 434 291 Q 447 279 464 275 Q 473 274 547 290 L 589 299 Z" class="stroke8"/>
    <path d="M 731 159 Q 524 126 523 126 Q 522 129 526 135 Q 595 234 621 260 Q 634 273 626 283 Q 616 293 589 299 C 560 307 545 311 547 290 Q 546 286 548 277 Q 560 216 466 130 Q 406 94 410 77 Q 411 65 419 52 Q 429 33 442 28 Q 449 24 460 30 Q 536 82 743 139 C 772 147 761 164 731 159 Z" class="stroke9"/>
    <path d="M 743 139 Q 803 31 812 26 Q 819 22 829 30 Q 845 40 843 85 Q 844 142 706 240 Q 699 247 694 236 Q 690 223 698 211 Q 714 187 731 159 L 743 139 Z" class="stroke10"/>
    
    
    
    
    
    
    
    
    
    </g>
</svg>