<svg version="1.1" viewBox="0 0 1024 1024" xmlns="http://www.w3.org/2000/svg">
  
  <g transform="scale(1, -1) translate(0, -900)">
    <style type="text/css">
        .stroke1 {fill: #808080;}
        .stroke2 {fill: #808079;}
        .stroke3 {fill: #808078;}
        .stroke4 {fill: #808077;}
        .stroke5 {fill: #808076;}
        .stroke6 {fill: #808075;}
        .stroke7 {fill: #808074;}
        .stroke8 {fill: #808073;}
        .stroke9 {fill: #808072;}
        .stroke10 {fill: #808071;}
        .stroke11 {fill: #808070;}
        .stroke12 {fill: #808069;}
        .stroke13 {fill: #808068;}
        .stroke14 {fill: #808067;}
        .stroke15 {fill: #808066;}
        .stroke16 {fill: #808065;}
        .stroke17 {fill: #808064;}
        .stroke18 {fill: #808063;}
        .stroke19 {fill: #808062;}
        .stroke20 {fill: #808061;}
        text {
            font-family: Helvetica;
            font-size: 50px;
            fill: #808060;
            paint-order: stroke;
            stroke: #000000;
            stroke-width: 4px;
            stroke-linecap: butt;
            stroke-linejoin: miter;
            font-weight: 800;
        }
    </style>

    <path d="M 129 567 Q 116 509 94 453 Q 79 420 103 390 Q 113 375 131 390 Q 173 436 163 517 Q 163 548 152 571 Q 145 578 140 578 Q 133 575 129 567 Z" class="stroke1"/>
    <path d="M 282 532 Q 358 578 396 594 Q 412 597 409 607 Q 405 620 390 638 Q 375 654 356 658 Q 344 658 343 642 Q 344 626 283 559 C 263 537 256 516 282 532 Z" class="stroke2"/>
    <path d="M 268 310 Q 277 376 282 532 L 283 559 Q 284 661 306 722 Q 313 735 301 746 Q 279 764 240 774 Q 215 781 207 773 Q 198 766 206 754 Q 257 675 225 342 Q 209 210 124 125 Q 64 74 64 70 Q 65 66 77 67 Q 90 64 120 79 Q 222 124 262 280 Q 262 286 264 290 L 268 310 Z" class="stroke3"/>
    <path d="M 264 290 Q 268 284 280 273 Q 304 251 329 222 Q 338 212 349 212 Q 356 211 362 221 Q 366 231 361 253 Q 358 271 333 286 Q 276 313 268 310 C 249 310 249 310 264 290 Z" class="stroke4"/>
    <path d="M 711 615 Q 629 602 542 580 Q 533 576 530 579 Q 527 583 533 592 Q 624 727 645 750 Q 657 760 650 772 Q 643 784 596 805 Q 580 812 570 808 Q 557 801 564 781 Q 585 726 491 605 Q 472 586 443 564 Q 430 551 434 541 Q 440 525 465 505 Q 477 495 489 506 Q 534 543 727 592 L 728 592 C 757 599 741 620 711 615 Z" class="stroke5"/>
    <path d="M 728 592 Q 771 532 782 529 Q 791 528 797 537 Q 804 547 803 573 Q 803 598 773 625 Q 701 677 688 674 Q 684 673 682 662 Q 682 650 711 615 L 728 592 Z" class="stroke6"/>
    <path d="M 459 462 Q 453 416 375 323 Q 359 308 381 314 Q 427 320 497 409 Q 513 431 522 441 Q 529 451 527 460 Q 523 470 500 474 Q 475 480 466 476 Q 459 473 459 462 Z" class="stroke7"/>
    <path d="M 681 479 Q 733 439 796 380 Q 811 364 824 362 Q 831 361 837 370 Q 846 382 832 418 Q 820 463 680 505 Q 671 509 671 498 Q 671 486 681 479 Z" class="stroke8"/>
    <path d="M 566 337 Q 581 359 591 371 Q 598 383 596 390 Q 592 402 568 406 Q 543 412 532 408 Q 525 407 524 394 Q 518 313 339 135 Q 323 120 346 126 Q 397 138 500 249 L 513 264 Q 531 288 547 310 Q 548 313 549 314 L 566 337 Z" class="stroke9"/>
    <path d="M 604 149 Q 535 68 384 27 Q 371 23 382 15 Q 388 11 432 13 Q 544 22 634 114 L 661 150 Q 695 202 728 277 Q 741 304 760 320 Q 779 333 767 347 Q 755 359 727 371 Q 705 378 679 367 Q 657 358 629 350 Q 604 344 566 337 C 537 331 520 321 549 314 Q 582 302 627 314 Q 655 327 661 328 Q 682 325 675 303 Q 657 233 626 181 L 604 149 Z" class="stroke10"/>
    <path d="M 634 114 Q 740 -10 782 -9 Q 860 -10 922 -1 Q 955 3 952 12 Q 949 22 797 67 Q 734 89 661 150 L 626 181 Q 601 203 577 229 Q 544 263 513 264 C 483 269 476 267 500 249 Q 501 248 506 244 Q 543 222 604 149 L 634 114 Z" class="stroke11"/>
    
    
    
    
    
    
    
    
    
    
    </g>
</svg>