<svg version="1.1" viewBox="0 0 1024 1024" xmlns="http://www.w3.org/2000/svg">
  
  <g transform="scale(1, -1) translate(0, -900)">
    <style type="text/css">
        .stroke1 {fill: #808080;}
        .stroke2 {fill: #808079;}
        .stroke3 {fill: #808078;}
        .stroke4 {fill: #808077;}
        .stroke5 {fill: #808076;}
        .stroke6 {fill: #808075;}
        .stroke7 {fill: #808074;}
        .stroke8 {fill: #808073;}
        .stroke9 {fill: #808072;}
        .stroke10 {fill: #808071;}
        .stroke11 {fill: #808070;}
        .stroke12 {fill: #808069;}
        .stroke13 {fill: #808068;}
        .stroke14 {fill: #808067;}
        .stroke15 {fill: #808066;}
        .stroke16 {fill: #808065;}
        .stroke17 {fill: #808064;}
        .stroke18 {fill: #808063;}
        .stroke19 {fill: #808062;}
        .stroke20 {fill: #808061;}
        text {
            font-family: Helvetica;
            font-size: 50px;
            fill: #808060;
            paint-order: stroke;
            stroke: #000000;
            stroke-width: 4px;
            stroke-linecap: butt;
            stroke-linejoin: miter;
            font-weight: 800;
        }
    </style>

    <path d="M 142 584 Q 136 526 120 469 Q 111 433 137 405 Q 150 390 166 409 Q 203 461 183 537 Q 179 570 164 591 Q 157 598 151 597 Q 144 593 142 584 Z" class="stroke1"/>
    <path d="M 308 531 Q 312 532 317 534 Q 402 597 444 621 Q 460 625 456 635 Q 452 648 434 666 Q 418 682 397 684 Q 384 683 384 666 Q 387 645 309 552 C 290 529 286 524 308 531 Z" class="stroke2"/>
    <path d="M 295 313 Q 307 392 308 531 L 309 552 Q 310 705 331 762 Q 338 777 326 789 Q 301 808 258 818 Q 231 824 222 816 Q 212 809 221 795 Q 270 723 258 449 Q 257 440 257 431 Q 248 266 199 185 Q 163 124 83 61 Q 71 51 72 47 Q 73 43 86 44 Q 99 40 135 58 Q 252 112 289 277 Q 289 278 289 281 L 295 313 Z" class="stroke3"/>
    <path d="M 289 281 Q 293 277 300 271 Q 331 243 362 210 Q 372 198 387 198 Q 396 197 401 209 Q 405 221 400 247 Q 394 280 299 313 Q 298 314 295 313 C 265 315 267 302 289 281 Z" class="stroke4"/>
    <path d="M 641 723 Q 698 742 893 742 Q 912 743 916 751 Q 920 763 905 775 Q 847 812 789 792 Q 740 783 671 768 Q 586 753 487 737 Q 468 734 482 719 Q 495 706 513 702 Q 532 698 547 703 Q 568 710 593 714 L 641 723 Z" class="stroke5"/>
    <path d="M 593 591 Q 642 652 670 679 Q 685 689 678 697 Q 657 722 641 723 C 612 729 586 733 593 714 Q 602 696 584 634 Q 575 613 566 586 C 556 558 574 568 593 591 Z" class="stroke6"/>
    <path d="M 529 581 Q 522 587 507 593 Q 498 597 488 593 Q 481 589 486 577 Q 487 570 491 562 Q 515 517 500 336 Q 488 237 488 235 Q 497 208 511 193 Q 520 181 530 192 Q 536 201 539 211 L 543 243 Q 543 255 544 343 L 544 370 Q 545 416 546 447 L 547 476 Q 548 530 550 536 Q 551 545 551 551 C 552 566 552 566 529 581 Z" class="stroke7"/>
    <path d="M 764 235 Q 765 225 773 215 Q 788 184 798 186 Q 813 187 829 223 Q 845 251 843 272 Q 830 357 830 490 Q 829 529 849 562 Q 861 578 852 589 Q 822 614 772 635 Q 756 641 731 631 Q 718 625 593 591 L 566 586 Q 545 585 529 581 C 499 576 521 546 551 551 Q 557 551 563 552 Q 654 576 720 587 Q 742 593 751 580 Q 767 561 768 493 Q 775 300 765 263 Q 764 263 764 262 L 764 235 Z" class="stroke8"/>
    <path d="M 546 447 Q 550 447 555 448 Q 645 464 711 475 Q 733 479 725 492 Q 715 507 689 511 Q 658 512 547 476 C 518 467 516 445 546 447 Z" class="stroke9"/>
    <path d="M 544 343 Q 548 343 555 343 Q 645 359 710 368 Q 734 372 725 384 Q 715 399 689 403 Q 659 406 544 370 C 515 361 514 343 544 343 Z" class="stroke10"/>
    <path d="M 539 211 Q 540 211 544 211 Q 614 226 764 235 C 792 237 786 242 764 262 Q 760 266 752 272 Q 737 281 708 274 Q 617 255 543 243 C 513 238 509 209 539 211 Z" class="stroke11"/>
    <path d="M 552 171 Q 534 107 370 -8 Q 348 -21 375 -20 Q 444 -24 570 84 Q 571 90 622 129 Q 634 139 633 150 Q 630 163 605 174 Q 577 187 564 185 Q 557 184 552 171 Z" class="stroke12"/>
    <path d="M 718 142 Q 772 81 833 -7 Q 848 -29 863 -37 Q 872 -38 881 -29 Q 896 -17 888 30 Q 885 90 723 174 Q 714 181 711 168 Q 708 155 718 142 Z" class="stroke13"/>
    
    
    
    
    
    
    
    
    
    
    
    
    </g>
</svg>