<svg version="1.1" viewBox="0 0 1024 1024" xmlns="http://www.w3.org/2000/svg">
  
  <g transform="scale(1, -1) translate(0, -900)">
    <style type="text/css">
        .stroke1 {fill: #808080;}
        .stroke2 {fill: #808079;}
        .stroke3 {fill: #808078;}
        .stroke4 {fill: #808077;}
        .stroke5 {fill: #808076;}
        .stroke6 {fill: #808075;}
        .stroke7 {fill: #808074;}
        .stroke8 {fill: #808073;}
        .stroke9 {fill: #808072;}
        .stroke10 {fill: #808071;}
        .stroke11 {fill: #808070;}
        .stroke12 {fill: #808069;}
        .stroke13 {fill: #808068;}
        .stroke14 {fill: #808067;}
        .stroke15 {fill: #808066;}
        .stroke16 {fill: #808065;}
        .stroke17 {fill: #808064;}
        .stroke18 {fill: #808063;}
        .stroke19 {fill: #808062;}
        .stroke20 {fill: #808061;}
        text {
            font-family: Helvetica;
            font-size: 50px;
            fill: #808060;
            paint-order: stroke;
            stroke: #000000;
            stroke-width: 4px;
            stroke-linecap: butt;
            stroke-linejoin: miter;
            font-weight: 800;
        }
    </style>

    <path d="M 549 637 Q 576 670 606 712 Q 624 737 645 759 Q 655 766 652 778 Q 648 790 622 814 Q 603 832 593 831 Q 578 830 577 815 Q 565 736 496 656 L 464 622 Q 394 553 240 478 Q 230 472 236 467 Q 264 451 390 510 Q 453 538 499 585 Q 505 591 512 597 L 549 637 Z" class="stroke1"/>
    <path d="M 512 597 Q 597 554 671 502 Q 689 486 704 483 Q 717 480 723 499 Q 727 515 715 543 Q 702 582 549 637 L 496 656 Q 313 722 301 714 Q 295 713 299 700 Q 302 691 320 685 Q 396 655 464 622 L 512 597 Z" class="stroke2"/>
    <path d="M 525 191 Q 567 251 598 346 Q 607 377 618 398 Q 625 411 618 420 Q 602 445 578 460 Q 557 476 546 474 Q 536 471 536 458 Q 548 344 482 231 L 463 198 Q 403 111 244 66 Q 195 56 125 44 Q 115 45 109 41 Q 102 38 111 31 Q 117 28 132 27 Q 247 23 336 50 Q 426 77 498 156 L 525 191 Z" class="stroke3"/>
    <path d="M 498 156 Q 645 -12 693 -17 Q 819 -17 880 -9 Q 923 -5 919 7 Q 918 13 876 25 Q 717 67 681 84 Q 626 111 525 191 L 482 231 Q 427 285 371 347 Q 335 387 301 388 Q 283 389 279 385 Q 278 378 293 367 Q 347 334 463 198 L 498 156 Z" class="stroke4"/>
    
    
    
    </g>
</svg>