<svg version="1.1" viewBox="0 0 1024 1024" xmlns="http://www.w3.org/2000/svg">
  
  <g transform="scale(1, -1) translate(0, -900)">
    <style type="text/css">
        .stroke1 {fill: #808080;}
        .stroke2 {fill: #808079;}
        .stroke3 {fill: #808078;}
        .stroke4 {fill: #808077;}
        .stroke5 {fill: #808076;}
        .stroke6 {fill: #808075;}
        .stroke7 {fill: #808074;}
        .stroke8 {fill: #808073;}
        .stroke9 {fill: #808072;}
        .stroke10 {fill: #808071;}
        .stroke11 {fill: #808070;}
        .stroke12 {fill: #808069;}
        .stroke13 {fill: #808068;}
        .stroke14 {fill: #808067;}
        .stroke15 {fill: #808066;}
        .stroke16 {fill: #808065;}
        .stroke17 {fill: #808064;}
        .stroke18 {fill: #808063;}
        .stroke19 {fill: #808062;}
        .stroke20 {fill: #808061;}
        text {
            font-family: Helvetica;
            font-size: 50px;
            fill: #808060;
            paint-order: stroke;
            stroke: #000000;
            stroke-width: 4px;
            stroke-linecap: butt;
            stroke-linejoin: miter;
            font-weight: 800;
        }
    </style>

    <path d="M 652 567 Q 546 557 465 534 Q 443 530 449 555 Q 456 610 463 669 Q 467 696 457 712 Q 441 731 414 747 Q 401 754 390 751 Q 378 747 386 725 Q 413 662 402 600 Q 395 542 369 515 Q 348 496 357 480 Q 370 464 388 451 Q 403 442 416 453 Q 447 489 594 518 Q 634 525 646 522 Q 647 523 652 523 C 682 523 682 570 652 567 Z" class="stroke1"/>
    <path d="M 650 358 Q 650 177 633 98 Q 611 26 640 -34 Q 641 -38 644 -44 Q 651 -63 660 -67 Q 667 -74 675 -65 Q 705 -44 704 25 Q 703 79 705 567 Q 704 669 723 737 Q 733 753 729 769 Q 722 779 659 816 Q 634 835 610 817 Q 604 811 612 795 Q 646 744 648 694 Q 649 634 652 567 L 652 523 Q 651 465 650 402 L 650 358 Z" class="stroke2"/>
    <path d="M 474 329 Q 550 347 650 358 C 680 361 680 398 650 402 Q 634 406 618 403 Q 336 343 222 334 Q 209 333 205 324 Q 201 312 218 300 Q 257 273 314 286 Q 371 305 421 316 L 474 329 Z" class="stroke3"/>
    <path d="M 421 316 Q 443 178 258 -5 Q 251 -14 258 -16 Q 291 -20 369 47 Q 441 107 489 241 Q 498 263 509 283 Q 516 295 510 305 Q 503 315 474 329 C 447 343 417 346 421 316 Z" class="stroke4"/>
    
    
    
    </g>
</svg>