<svg version="1.1" viewBox="0 0 1024 1024" xmlns="http://www.w3.org/2000/svg">
  
  <g transform="scale(1, -1) translate(0, -900)">
    <style type="text/css">
        .stroke1 {fill: #808080;}
        .stroke2 {fill: #808079;}
        .stroke3 {fill: #808078;}
        .stroke4 {fill: #808077;}
        .stroke5 {fill: #808076;}
        .stroke6 {fill: #808075;}
        .stroke7 {fill: #808074;}
        .stroke8 {fill: #808073;}
        .stroke9 {fill: #808072;}
        .stroke10 {fill: #808071;}
        .stroke11 {fill: #808070;}
        .stroke12 {fill: #808069;}
        .stroke13 {fill: #808068;}
        .stroke14 {fill: #808067;}
        .stroke15 {fill: #808066;}
        .stroke16 {fill: #808065;}
        .stroke17 {fill: #808064;}
        .stroke18 {fill: #808063;}
        .stroke19 {fill: #808062;}
        .stroke20 {fill: #808061;}
        text {
            font-family: Helvetica;
            font-size: 50px;
            fill: #808060;
            paint-order: stroke;
            stroke: #000000;
            stroke-width: 4px;
            stroke-linecap: butt;
            stroke-linejoin: miter;
            font-weight: 800;
        }
    </style>

    <path d="M 224 504 Q 225 510 263 584 Q 272 597 256 609 Q 208 636 188 629 Q 178 625 181 612 Q 205 528 127 417 Q 108 392 100 376 Q 93 360 107 367 Q 153 379 214 484 L 224 504 Z" class="stroke1"/>
    <path d="M 379 496 Q 406 505 436 512 Q 464 521 469 525 Q 476 532 472 541 Q 465 551 435 557 Q 407 561 379 547 L 334 530 Q 249 509 226 505 Q 225 505 224 504 C 195 496 191 495 214 484 Q 215 484 218 482 Q 263 461 316 479 Q 323 482 334 483 L 379 496 Z" class="stroke2"/>
    <path d="M 377 367 Q 377 427 379 496 L 379 547 Q 379 652 399 724 Q 414 751 388 768 Q 372 780 342 797 Q 318 813 297 798 Q 293 794 298 778 Q 332 729 332 680 Q 333 610 334 530 L 334 483 Q 333 414 330 341 L 329 293 Q 329 173 304 81 Q 292 39 319 -22 Q 326 -40 334 -43 Q 341 -50 348 -41 Q 355 -37 366 -16 Q 376 9 375 41 Q 374 78 376 325 L 377 367 Z" class="stroke3"/>
    <path d="M 376 325 Q 386 334 400 342 Q 458 382 457 402 Q 450 406 437 401 Q 407 385 377 367 L 330 341 Q 240 293 138 239 Q 117 227 80 221 Q 65 217 66 205 Q 66 190 78 183 Q 106 170 147 157 Q 160 156 170 168 Q 203 204 329 293 L 376 325 Z" class="stroke4"/>
    <path d="M 591 378 Q 595 381 772 524 Q 791 543 819 555 Q 841 568 829 587 Q 813 606 783 621 Q 756 634 742 631 Q 727 630 733 614 Q 739 578 665 490 Q 629 450 592 404 C 573 381 568 359 591 378 Z" class="stroke5"/>
    <path d="M 947 143 Q 926 192 913 276 Q 910 291 905 296 Q 898 303 893 287 Q 880 238 866 201 Q 860 176 837 162 Q 809 135 690 143 Q 623 152 605 187 Q 581 239 591 378 L 592 404 Q 598 615 616 682 Q 625 703 595 725 Q 570 741 550 753 Q 532 765 515 754 Q 503 748 524 720 Q 549 684 550 581 Q 550 508 545 373 Q 533 192 575 138 Q 614 78 794 82 Q 869 83 925 107 Q 959 117 947 143 Z" class="stroke6"/>
    
    
    
    
    
    </g>
</svg>