<svg version="1.1" viewBox="0 0 1024 1024" xmlns="http://www.w3.org/2000/svg">
  
  <g transform="scale(1, -1) translate(0, -900)">
    <style type="text/css">
        .stroke1 {fill: #808080;}
        .stroke2 {fill: #808079;}
        .stroke3 {fill: #808078;}
        .stroke4 {fill: #808077;}
        .stroke5 {fill: #808076;}
        .stroke6 {fill: #808075;}
        .stroke7 {fill: #808074;}
        .stroke8 {fill: #808073;}
        .stroke9 {fill: #808072;}
        .stroke10 {fill: #808071;}
        .stroke11 {fill: #808070;}
        .stroke12 {fill: #808069;}
        .stroke13 {fill: #808068;}
        .stroke14 {fill: #808067;}
        .stroke15 {fill: #808066;}
        .stroke16 {fill: #808065;}
        .stroke17 {fill: #808064;}
        .stroke18 {fill: #808063;}
        .stroke19 {fill: #808062;}
        .stroke20 {fill: #808061;}
        text {
            font-family: Helvetica;
            font-size: 50px;
            fill: #808060;
            paint-order: stroke;
            stroke: #000000;
            stroke-width: 4px;
            stroke-linecap: butt;
            stroke-linejoin: miter;
            font-weight: 800;
        }
    </style>

    <path d="M 309 661 Q 375 727 389 735 Q 399 742 397 756 Q 396 768 375 793 Q 354 815 338 818 Q 322 819 324 799 Q 328 778 303 735 Q 230 639 123 550 Q 113 543 110 538 Q 104 528 117 528 Q 159 528 285 639 L 309 661 Z" class="stroke1"/>
    <path d="M 285 639 Q 303 594 281 508 Q 271 469 300 433 Q 300 432 302 430 Q 315 417 325 438 Q 337 471 336 508 Q 340 580 343 596 Q 349 620 309 661 C 288 683 275 667 285 639 Z" class="stroke2"/>
    <path d="M 602 634 Q 603 635 702 658 Q 712 658 719 671 Q 720 681 697 690 Q 658 705 586 674 Q 583 674 582 673 L 537 658 Q 468 637 385 620 Q 358 613 381 599 Q 408 583 455 591 Q 498 606 557 621 L 602 634 Z" class="stroke3"/>
    <path d="M 557 621 Q 635 473 758 418 Q 828 391 845 407 Q 861 417 850 449 Q 843 480 835 591 Q 835 610 830 614 Q 826 615 822 598 Q 789 490 762 489 Q 669 525 602 634 L 582 673 Q 549 742 552 781 Q 553 806 511 817 Q 477 827 462 819 Q 446 813 461 792 Q 492 764 506 727 Q 521 693 537 658 L 557 621 Z" class="stroke4"/>
    <path d="M 668 788 Q 695 769 724 744 Q 737 734 752 735 Q 761 736 765 748 Q 768 761 758 789 Q 746 816 660 832 Q 645 833 640 831 Q 636 827 638 815 Q 642 805 668 788 Z" class="stroke5"/>
    <path d="M 372 351 Q 388 373 405 391 Q 415 401 403 415 Q 372 446 347 444 Q 337 443 338 430 Q 342 364 259 278 Q 247 268 241 258 Q 234 246 247 249 Q 292 255 356 329 L 372 351 Z" class="stroke6"/>
    <path d="M 544 329 Q 676 353 681 357 Q 691 364 686 372 Q 680 384 652 393 Q 622 402 546 376 L 487 363 Q 432 356 372 351 C 342 348 330 345 356 329 Q 395 302 451 315 Q 467 319 487 320 L 544 329 Z" class="stroke7"/>
    <path d="M 539 182 Q 575 185 867 185 Q 889 184 894 193 Q 901 206 883 221 Q 826 263 787 256 Q 693 240 540 219 L 485 213 Q 328 197 146 179 Q 124 178 140 159 Q 155 143 173 137 Q 195 131 213 135 Q 325 163 452 174 Q 467 177 484 177 L 539 182 Z" class="stroke8"/>
    <path d="M 487 -11 Q 491 -36 498 -45 Q 504 -52 511 -50 Q 538 -29 539 182 L 540 219 Q 541 265 544 329 L 546 376 Q 547 397 555 427 Q 559 445 545 454 Q 514 476 498 478 Q 486 484 470 475 Q 461 468 468 457 Q 486 427 487 363 L 487 320 Q 486 272 485 213 L 484 177 Q 484 12 487 -11 Z" class="stroke9"/>
    
    
    
    
    
    
    
    
    </g>
</svg>