<svg version="1.1" viewBox="0 0 1024 1024" xmlns="http://www.w3.org/2000/svg">
  
  <g transform="scale(1, -1) translate(0, -900)">
    <style type="text/css">
        .stroke1 {fill: #808080;}
        .stroke2 {fill: #808079;}
        .stroke3 {fill: #808078;}
        .stroke4 {fill: #808077;}
        .stroke5 {fill: #808076;}
        .stroke6 {fill: #808075;}
        .stroke7 {fill: #808074;}
        .stroke8 {fill: #808073;}
        .stroke9 {fill: #808072;}
        .stroke10 {fill: #808071;}
        .stroke11 {fill: #808070;}
        .stroke12 {fill: #808069;}
        .stroke13 {fill: #808068;}
        .stroke14 {fill: #808067;}
        .stroke15 {fill: #808066;}
        .stroke16 {fill: #808065;}
        .stroke17 {fill: #808064;}
        .stroke18 {fill: #808063;}
        .stroke19 {fill: #808062;}
        .stroke20 {fill: #808061;}
        text {
            font-family: Helvetica;
            font-size: 50px;
            fill: #808060;
            paint-order: stroke;
            stroke: #000000;
            stroke-width: 4px;
            stroke-linecap: butt;
            stroke-linejoin: miter;
            font-weight: 800;
        }
    </style>

    <path d="M 318 599 Q 372 675 404 714 Q 417 727 403 743 Q 358 783 334 781 Q 321 780 323 764 Q 323 713 289 647 L 257 601 Q 254 598 251 593 Q 217 544 173 509 Q 136 479 118 461 Q 108 445 125 449 Q 147 450 178 471 Q 236 510 281 556 L 318 599 Z" class="stroke1"/>
    <path d="M 318 388 Q 318 207 280 112 Q 273 97 265 97 Q 247 94 198 111 Q 167 123 162 116 Q 158 110 168 97 Q 213 57 242 19 Q 258 -9 269 -9 Q 276 -10 294 5 Q 381 95 364 414 Q 360 469 349 514 Q 336 563 318 599 L 289 647 Q 238 713 171 745 Q 158 755 152 743 Q 148 728 153 708 Q 160 687 179 682 Q 212 667 257 601 L 281 556 Q 299 516 309 469 L 318 388 Z" class="stroke2"/>
    <path d="M 309 469 Q 273 409 230 357 Q 184 303 77 207 Q 70 198 81 195 Q 99 192 210 274 Q 264 317 318 388 C 336 412 325 495 309 469 Z" class="stroke3"/>
    <path d="M 442 693 Q 435 696 428 696 Q 416 699 413 693 Q 406 687 416 671 Q 441 625 461 549 Q 465 525 479 511 Q 498 489 503 506 Q 504 510 505 516 L 504 539 Q 494 593 484 662 C 481 680 471 684 442 693 Z" class="stroke4"/>
    <path d="M 783 552 Q 783 551 784 547 Q 788 532 799 532 Q 812 533 820 546 Q 829 555 849 601 Q 867 647 901 674 Q 920 687 905 703 Q 889 719 844 745 Q 831 754 747 738 Q 707 738 566 711 Q 494 698 442 693 C 412 690 455 654 484 662 Q 518 672 569 682 L 586 685 Q 623 692 673 698 L 701 702 Q 794 717 816 704 Q 823 700 817 677 Q 796 595 788 578 L 783 552 Z" class="stroke5"/>
    <path d="M 609 556 Q 615 604 593 673 Q 590 680 586 685 C 569 709 562 711 569 682 L 570 680 Q 570 670 572 660 Q 572 569 588 552 C 606 528 606 528 609 556 Z" class="stroke6"/>
    <path d="M 693 572 Q 696 579 700 586 Q 710 607 720 633 Q 724 645 734 660 Q 744 672 736 679 Q 726 691 701 702 C 674 714 672 715 673 698 Q 672 695 675 689 Q 687 671 670 583 Q 667 576 667 567 C 665 537 681 545 693 572 Z" class="stroke7"/>
    <path d="M 599 526 Q 699 544 783 552 C 813 555 816 566 788 578 Q 784 581 777 582 Q 750 588 693 572 L 667 567 Q 637 563 609 556 L 588 552 Q 543 548 504 539 C 475 533 475 515 505 516 Q 511 516 564 520 L 599 526 Z" class="stroke8"/>
    <path d="M 509 336 Q 533 360 563 391 L 583 415 Q 610 451 629 465 Q 638 472 635 485 Q 632 509 599 526 C 573 541 560 549 564 520 Q 582 457 408 280 Q 399 273 397 268 Q 393 259 405 260 Q 427 263 493 322 L 509 336 Z" class="stroke9"/>
    <path d="M 563 391 Q 602 370 670 391 Q 713 413 730 402 Q 739 396 716 329 Q 655 110 407 -30 Q 397 -34 398 -40 Q 399 -46 407 -44 Q 546 -37 683 142 Q 686 146 690 151 Q 739 221 789 331 Q 807 362 836 384 Q 852 393 853 403 Q 852 419 819 436 Q 779 461 763 461 Q 750 460 737 451 Q 650 421 594 415 Q 588 416 583 415 C 553 413 535 401 563 391 Z" class="stroke10"/>
    <path d="M 493 322 Q 497 315 510 300 Q 543 266 577 225 Q 584 215 597 213 Q 604 212 610 221 Q 614 231 611 253 Q 610 277 579 299 Q 549 317 509 336 C 482 349 477 347 493 322 Z" class="stroke11"/>
    
    
    
    
    
    
    
    
    
    
    </g>
</svg>