<svg version="1.1" viewBox="0 0 1024 1024" xmlns="http://www.w3.org/2000/svg">
  
  <g transform="scale(1, -1) translate(0, -900)">
    <style type="text/css">
        .stroke1 {fill: #808080;}
        .stroke2 {fill: #808079;}
        .stroke3 {fill: #808078;}
        .stroke4 {fill: #808077;}
        .stroke5 {fill: #808076;}
        .stroke6 {fill: #808075;}
        .stroke7 {fill: #808074;}
        .stroke8 {fill: #808073;}
        .stroke9 {fill: #808072;}
        .stroke10 {fill: #808071;}
        .stroke11 {fill: #808070;}
        .stroke12 {fill: #808069;}
        .stroke13 {fill: #808068;}
        .stroke14 {fill: #808067;}
        .stroke15 {fill: #808066;}
        .stroke16 {fill: #808065;}
        .stroke17 {fill: #808064;}
        .stroke18 {fill: #808063;}
        .stroke19 {fill: #808062;}
        .stroke20 {fill: #808061;}
        text {
            font-family: Helvetica;
            font-size: 50px;
            fill: #808060;
            paint-order: stroke;
            stroke: #000000;
            stroke-width: 4px;
            stroke-linecap: butt;
            stroke-linejoin: miter;
            font-weight: 800;
        }
    </style>

    <path d="M 314 591 Q 324 610 399 687 Q 412 697 400 715 Q 366 754 339 756 Q 327 755 327 741 Q 326 690 289 638 L 257 596 Q 250 590 245 583 Q 208 540 164 509 Q 127 484 107 468 Q 97 455 112 456 Q 166 456 278 553 L 314 591 Z" class="stroke1"/>
    <path d="M 311 393 Q 311 389 312 383 Q 321 224 289 104 Q 283 89 276 89 Q 257 88 208 104 Q 178 114 174 108 Q 170 102 180 90 Q 226 51 257 15 Q 276 -13 286 -12 Q 292 -15 307 2 Q 367 74 359 353 Q 358 360 358 366 Q 354 459 335 530 Q 326 566 314 591 L 289 638 Q 250 704 174 740 Q 161 749 156 738 Q 152 725 157 705 Q 164 684 182 680 Q 221 662 257 596 L 278 553 Q 287 529 301 467 L 311 393 Z" class="stroke2"/>
    <path d="M 301 467 Q 300 466 300 465 Q 243 357 81 201 Q 74 192 85 190 Q 104 186 206 272 Q 281 335 311 393 C 325 419 315 493 301 467 Z" class="stroke3"/>
    <path d="M 502 755 Q 492 759 465 765 Q 455 768 451 763 Q 444 757 452 742 Q 482 678 497 572 Q 498 541 517 519 Q 533 498 539 513 Q 542 522 543 534 L 542 563 Q 535 611 531 624 L 527 648 Q 518 703 517 724 C 515 751 515 751 502 755 Z" class="stroke4"/>
    <path d="M 663 551 Q 679 517 701 506 Q 711 499 725 518 Q 741 543 773 683 Q 780 711 803 735 Q 816 745 805 759 Q 790 775 751 799 Q 738 806 672 792 Q 642 792 502 755 C 473 747 488 715 517 724 Q 517 725 520 725 Q 580 743 686 760 Q 707 763 716 756 Q 731 744 726 724 Q 702 604 685 568 C 674 540 654 567 663 551 Z" class="stroke5"/>
    <path d="M 531 624 Q 603 637 653 647 Q 672 651 665 662 Q 655 674 635 676 Q 611 677 527 648 C 499 638 501 619 531 624 Z" class="stroke6"/>
    <path d="M 543 534 Q 549 533 557 535 Q 591 545 663 551 C 693 554 699 554 685 568 Q 679 575 661 585 Q 648 592 621 584 Q 578 571 542 563 C 513 556 513 536 543 534 Z" class="stroke7"/>
    <path d="M 517 410 Q 536 435 555 448 Q 562 455 560 465 Q 559 475 541 493 Q 523 508 510 509 Q 497 510 501 494 Q 508 470 459 402 Q 435 371 403 337 Q 396 331 393 327 Q 390 320 400 320 Q 427 320 494 386 L 517 410 Z" class="stroke8"/>
    <path d="M 494 386 Q 531 379 706 406 Q 796 419 802 406 Q 808 397 809 362 Q 813 215 795 135 Q 783 83 768 55 Q 758 30 739 24 Q 729 23 672 45 Q 663 49 663 44 Q 662 40 672 31 Q 706 -12 721 -43 Q 728 -62 741 -62 Q 783 -59 820 17 Q 859 102 874 342 Q 875 370 892 390 Q 905 403 904 412 Q 903 419 884 433 Q 859 452 824 463 Q 805 469 716 445 Q 709 445 702 442 Q 609 424 517 410 C 487 405 464 387 494 386 Z" class="stroke9"/>
    <path d="M 628 284 Q 649 320 661 332 Q 667 336 665 344 Q 664 351 653 360 Q 629 381 602 375 Q 595 374 597 363 Q 610 324 557 246 Q 542 225 504 181 Q 498 177 506 175 Q 566 197 616 266 L 628 284 Z" class="stroke10"/>
    <path d="M 616 266 Q 659 233 713 186 Q 726 173 737 171 Q 744 170 748 178 Q 757 188 744 219 Q 729 261 628 284 C 599 291 592 284 616 266 Z" class="stroke11"/>
    <path d="M 487 222 Q 496 244 480 265 Q 455 296 433 299 Q 415 302 421 282 Q 443 230 431 183 Q 416 128 408 120 Q 395 104 403 89 Q 415 65 427 63 Q 434 62 457 70 Q 601 107 744 96 Q 765 95 765 105 Q 766 117 734 135 Q 709 151 664 138 Q 480 111 469 115 Q 459 119 462 132 Q 472 175 487 222 Z" class="stroke12"/>
    
    
    
    
    
    
    
    
    
    
    
    </g>
</svg>