<svg version="1.1" viewBox="0 0 1024 1024" xmlns="http://www.w3.org/2000/svg">
  
  <g transform="scale(1, -1) translate(0, -900)">
    <style type="text/css">
        .stroke1 {fill: #808080;}
        .stroke2 {fill: #808079;}
        .stroke3 {fill: #808078;}
        .stroke4 {fill: #808077;}
        .stroke5 {fill: #808076;}
        .stroke6 {fill: #808075;}
        .stroke7 {fill: #808074;}
        .stroke8 {fill: #808073;}
        .stroke9 {fill: #808072;}
        .stroke10 {fill: #808071;}
        .stroke11 {fill: #808070;}
        .stroke12 {fill: #808069;}
        .stroke13 {fill: #808068;}
        .stroke14 {fill: #808067;}
        .stroke15 {fill: #808066;}
        .stroke16 {fill: #808065;}
        .stroke17 {fill: #808064;}
        .stroke18 {fill: #808063;}
        .stroke19 {fill: #808062;}
        .stroke20 {fill: #808061;}
        text {
            font-family: Helvetica;
            font-size: 50px;
            fill: #808060;
            paint-order: stroke;
            stroke: #000000;
            stroke-width: 4px;
            stroke-linecap: butt;
            stroke-linejoin: miter;
            font-weight: 800;
        }
    </style>

    <path d="M 522 647 Q 597 660 675 672 Q 736 684 745 692 Q 755 701 751 710 Q 744 725 711 734 Q 675 743 586 714 Q 439 680 317 673 Q 275 669 304 648 Q 347 621 431 633 Q 447 636 466 638 L 522 647 Z" class="stroke1"/>
    <path d="M 537 386 Q 589 396 646 404 Q 701 414 709 421 Q 719 430 715 439 Q 708 452 677 461 Q 644 470 612 458 Q 575 448 538 437 L 484 425 Q 408 413 320 407 Q 280 403 308 383 Q 353 355 412 367 Q 446 373 483 377 L 537 386 Z" class="stroke2"/>
    <path d="M 530 162 Q 533 283 537 386 L 538 437 Q 539 545 545 598 Q 554 623 522 647 C 499 667 456 666 466 638 Q 481 602 485 499 Q 484 471 484 425 L 483 377 Q 482 289 480 157 C 480 127 529 132 530 162 Z" class="stroke3"/>
    <path d="M 512 111 Q 566 114 617 118 Q 749 128 895 112 Q 920 108 927 118 Q 936 131 922 145 Q 891 176 844 198 Q 828 205 801 196 Q 704 178 530 162 L 480 157 Q 359 147 297 140 Q 228 131 125 132 Q 110 132 109 120 Q 108 107 128 91 Q 176 55 213 68 Q 243 78 400 100 Q 452 107 512 111 Z" class="stroke4"/>
    <path d="M 732 327 Q 763 299 798 265 Q 810 252 825 252 Q 835 252 841 265 Q 845 278 838 307 Q 834 329 800 348 Q 722 378 708 375 Q 704 371 704 359 Q 707 349 732 327 Z" class="stroke5"/>
    
    
    
    
    </g>
</svg>