<svg version="1.1" viewBox="0 0 1024 1024" xmlns="http://www.w3.org/2000/svg">
  
  <g transform="scale(1, -1) translate(0, -900)">
    <style type="text/css">
        .stroke1 {fill: #808080;}
        .stroke2 {fill: #808079;}
        .stroke3 {fill: #808078;}
        .stroke4 {fill: #808077;}
        .stroke5 {fill: #808076;}
        .stroke6 {fill: #808075;}
        .stroke7 {fill: #808074;}
        .stroke8 {fill: #808073;}
        .stroke9 {fill: #808072;}
        .stroke10 {fill: #808071;}
        .stroke11 {fill: #808070;}
        .stroke12 {fill: #808069;}
        .stroke13 {fill: #808068;}
        .stroke14 {fill: #808067;}
        .stroke15 {fill: #808066;}
        .stroke16 {fill: #808065;}
        .stroke17 {fill: #808064;}
        .stroke18 {fill: #808063;}
        .stroke19 {fill: #808062;}
        .stroke20 {fill: #808061;}
        text {
            font-family: Helvetica;
            font-size: 50px;
            fill: #808060;
            paint-order: stroke;
            stroke: #000000;
            stroke-width: 4px;
            stroke-linecap: butt;
            stroke-linejoin: miter;
            font-weight: 800;
        }
    </style>

    <path d="M 467 761 Q 498 733 530 700 Q 546 684 565 685 Q 578 685 584 701 Q 590 719 580 754 Q 568 790 462 818 Q 443 822 436 820 Q 430 816 432 800 Q 436 787 467 761 Z" class="stroke1"/>
    <path d="M 493 577 Q 634 595 899 596 Q 923 597 928 606 Q 934 619 915 636 Q 851 682 780 663 Q 540 618 118 565 Q 94 564 112 543 Q 128 527 149 521 Q 173 515 192 521 Q 312 554 450 571 L 493 577 Z" class="stroke2"/>
    <path d="M 546 318 Q 455 318 381 316 Q 353 317 368 334 Q 446 425 517 493 Q 536 509 533 519 Q 533 535 495 575 Q 494 576 493 577 C 473 599 450 601 450 571 Q 459 526 358 388 Q 336 357 294 330 Q 272 317 273 302 Q 276 280 290 259 Q 300 246 315 253 Q 358 272 522 291 C 552 295 576 318 546 318 Z" class="stroke3"/>
    <path d="M 671 140 Q 553 130 411 103 Q 383 96 403 117 Q 470 184 623 318 Q 666 358 701 379 Q 717 389 713 402 Q 703 427 667 458 Q 649 473 637 471 Q 624 470 623 450 Q 620 411 546 318 L 522 291 Q 519 290 517 285 Q 346 116 303 99 Q 284 90 286 73 Q 285 57 313 28 Q 325 12 345 23 Q 483 89 685 117 C 715 121 701 143 671 140 Z" class="stroke4"/>
    <path d="M 685 117 Q 751 6 759 1 Q 768 -2 777 6 Q 793 16 791 63 Q 791 129 639 233 Q 632 240 626 228 Q 622 215 631 202 Q 650 174 671 140 L 685 117 Z" class="stroke5"/>
    
    
    
    
    </g>
</svg>