<svg version="1.1" viewBox="0 0 1024 1024" xmlns="http://www.w3.org/2000/svg">
  
  <g transform="scale(1, -1) translate(0, -900)">
    <style type="text/css">
        .stroke1 {fill: #808080;}
        .stroke2 {fill: #808079;}
        .stroke3 {fill: #808078;}
        .stroke4 {fill: #808077;}
        .stroke5 {fill: #808076;}
        .stroke6 {fill: #808075;}
        .stroke7 {fill: #808074;}
        .stroke8 {fill: #808073;}
        .stroke9 {fill: #808072;}
        .stroke10 {fill: #808071;}
        .stroke11 {fill: #808070;}
        .stroke12 {fill: #808069;}
        .stroke13 {fill: #808068;}
        .stroke14 {fill: #808067;}
        .stroke15 {fill: #808066;}
        .stroke16 {fill: #808065;}
        .stroke17 {fill: #808064;}
        .stroke18 {fill: #808063;}
        .stroke19 {fill: #808062;}
        .stroke20 {fill: #808061;}
        text {
            font-family: Helvetica;
            font-size: 50px;
            fill: #808060;
            paint-order: stroke;
            stroke: #000000;
            stroke-width: 4px;
            stroke-linecap: butt;
            stroke-linejoin: miter;
            font-weight: 800;
        }
    </style>

    <path d="M 273 617 Q 397 654 401 657 Q 408 664 404 673 Q 397 683 367 689 Q 343 692 256 659 Q 190 641 143 633 Q 107 624 134 610 Q 174 592 227 605 L 273 617 Z" class="stroke1"/>
    <path d="M 290 420 Q 378 448 381 450 Q 388 457 384 466 Q 377 476 349 480 Q 321 484 295 470 Q 294 470 292 469 L 241 450 Q 234 449 229 446 Q 192 434 145 427 Q 112 418 138 405 Q 178 386 227 403 Q 233 404 241 406 L 290 420 Z" class="stroke2"/>
    <path d="M 283 249 Q 287 340 290 420 L 292 469 Q 295 596 296 597 Q 286 607 273 617 C 250 636 218 633 227 605 Q 240 577 241 450 L 241 406 Q 240 336 239 231 C 239 201 282 219 283 249 Z" class="stroke3"/>
    <path d="M 239 231 Q 184 212 129 191 Q 111 184 82 183 Q 69 180 67 169 Q 66 154 77 147 Q 102 131 140 115 Q 150 112 163 123 Q 188 147 348 239 Q 370 252 385 266 Q 398 275 398 285 Q 391 291 378 287 Q 333 269 283 249 L 239 231 Z" class="stroke4"/>
    <path d="M 526 694 Q 475 718 460 716 Q 441 712 456 691 Q 489 636 473 425 Q 467 340 423 237 Q 389 153 291 63 Q 278 50 274 44 Q 273 37 284 37 Q 329 41 404 125 Q 507 239 527 498 Q 531 561 532 635 Q 535 651 536 661 C 540 688 540 688 526 694 Z" class="stroke5"/>
    <path d="M 865 100 Q 849 90 813 89 Q 767 89 741 99 Q 716 108 705 123 Q 672 165 686 413 Q 692 530 708 611 Q 715 657 754 696 Q 767 714 751 726 Q 729 742 680 758 Q 659 762 641 750 Q 595 714 526 694 C 498 684 507 652 536 661 Q 555 664 625 692 Q 638 698 645 694 Q 651 690 652 674 Q 631 166 655 110 Q 685 26 846 30 Q 852 31 860 31 Q 909 35 958 57 Q 979 66 971 88 Q 958 134 951 199 Q 947 233 941 240 Q 934 244 929 233 Q 899 127 865 100 Z" class="stroke6"/>
    
    
    
    
    
    </g>
</svg>