<svg version="1.1" viewBox="0 0 1024 1024" xmlns="http://www.w3.org/2000/svg">
  
  <g transform="scale(1, -1) translate(0, -900)">
    <style type="text/css">
        .stroke1 {fill: #808080;}
        .stroke2 {fill: #808079;}
        .stroke3 {fill: #808078;}
        .stroke4 {fill: #808077;}
        .stroke5 {fill: #808076;}
        .stroke6 {fill: #808075;}
        .stroke7 {fill: #808074;}
        .stroke8 {fill: #808073;}
        .stroke9 {fill: #808072;}
        .stroke10 {fill: #808071;}
        .stroke11 {fill: #808070;}
        .stroke12 {fill: #808069;}
        .stroke13 {fill: #808068;}
        .stroke14 {fill: #808067;}
        .stroke15 {fill: #808066;}
        .stroke16 {fill: #808065;}
        .stroke17 {fill: #808064;}
        .stroke18 {fill: #808063;}
        .stroke19 {fill: #808062;}
        .stroke20 {fill: #808061;}
        text {
            font-family: Helvetica;
            font-size: 50px;
            fill: #808060;
            paint-order: stroke;
            stroke: #000000;
            stroke-width: 4px;
            stroke-linecap: butt;
            stroke-linejoin: miter;
            font-weight: 800;
        }
    </style>

    <path d="M 298 657 Q 338 670 385 684 Q 413 693 418 697 Q 427 707 421 716 Q 411 728 380 732 Q 346 736 316 719 Q 283 706 248 693 Q 209 681 163 673 Q 124 663 154 647 Q 196 631 252 643 L 298 657 Z" class="stroke1"/>
    <path d="M 322 455 Q 409 491 411 493 Q 418 502 413 509 Q 404 519 375 522 Q 347 523 324 510 L 268 482 Q 183 455 167 450 Q 133 438 161 426 Q 204 411 267 435 L 269 435 L 322 455 Z" class="stroke2"/>
    <path d="M 317 281 Q 320 375 322 455 L 324 510 Q 324 567 328 604 Q 337 631 298 657 C 274 675 242 671 252 643 Q 267 610 268 482 L 269 435 Q 269 365 269 259 C 269 229 316 251 317 281 Z" class="stroke3"/>
    <path d="M 269 259 Q 205 232 149 203 Q 109 184 83 179 Q 68 175 66 165 Q 65 155 78 138 Q 97 119 123 109 Q 139 102 153 115 Q 252 202 407 294 Q 428 304 439 319 Q 448 332 436 334 Q 424 334 317 281 L 269 259 Z" class="stroke4"/>
    <path d="M 657 677 Q 721 693 788 707 Q 833 719 840 725 Q 849 735 844 743 Q 835 756 804 763 Q 771 769 677 733 Q 584 708 501 696 Q 462 689 491 671 Q 537 646 596 663 Q 597 664 602 664 L 657 677 Z" class="stroke5"/>
    <path d="M 679 415 Q 727 428 777 439 Q 811 449 816 453 Q 826 463 820 471 Q 811 484 780 490 Q 753 494 681 469 L 622 451 Q 580 444 533 436 Q 494 429 523 411 Q 563 390 622 402 L 679 415 Z" class="stroke6"/>
    <path d="M 672 172 Q 676 302 679 415 L 681 469 Q 681 548 687 620 Q 696 650 657 677 C 633 696 588 691 602 664 Q 606 654 613 644 Q 622 620 622 580 Q 623 558 622 451 L 622 402 Q 621 308 619 165 C 619 135 671 142 672 172 Z" class="stroke7"/>
    <path d="M 619 165 Q 507 152 374 136 Q 352 135 368 115 Q 384 99 403 93 Q 427 87 444 92 Q 604 131 904 132 Q 922 132 939 131 Q 961 130 967 140 Q 973 153 955 168 Q 898 211 856 203 Q 786 190 672 172 L 619 165 Z" class="stroke8"/>
    
    
    
    
    
    
    
    </g>
</svg>