<svg version="1.1" viewBox="0 0 1024 1024" xmlns="http://www.w3.org/2000/svg">
  
  <g transform="scale(1, -1) translate(0, -900)">
    <style type="text/css">
        .stroke1 {fill: #808080;}
        .stroke2 {fill: #808079;}
        .stroke3 {fill: #808078;}
        .stroke4 {fill: #808077;}
        .stroke5 {fill: #808076;}
        .stroke6 {fill: #808075;}
        .stroke7 {fill: #808074;}
        .stroke8 {fill: #808073;}
        .stroke9 {fill: #808072;}
        .stroke10 {fill: #808071;}
        .stroke11 {fill: #808070;}
        .stroke12 {fill: #808069;}
        .stroke13 {fill: #808068;}
        .stroke14 {fill: #808067;}
        .stroke15 {fill: #808066;}
        .stroke16 {fill: #808065;}
        .stroke17 {fill: #808064;}
        .stroke18 {fill: #808063;}
        .stroke19 {fill: #808062;}
        .stroke20 {fill: #808061;}
        text {
            font-family: Helvetica;
            font-size: 50px;
            fill: #808060;
            paint-order: stroke;
            stroke: #000000;
            stroke-width: 4px;
            stroke-linecap: butt;
            stroke-linejoin: miter;
            font-weight: 800;
        }
    </style>

    <path d="M 263 662 Q 399 710 402 711 Q 411 721 405 728 Q 396 740 365 743 Q 334 746 305 730 Q 275 717 242 704 Q 205 692 161 683 Q 125 673 153 659 Q 186 646 227 652 L 263 662 Z" class="stroke1"/>
    <path d="M 294 457 Q 319 467 351 477 Q 376 487 379 491 Q 386 501 381 509 Q 372 519 341 522 Q 317 523 296 514 L 244 489 Q 193 471 148 460 Q 112 448 141 435 Q 186 417 244 440 L 294 457 Z" class="stroke2"/>
    <path d="M 288 306 Q 291 387 294 457 L 296 514 Q 299 632 300 633 L 299 634 Q 281 652 263 662 C 237 678 216 680 227 652 Q 231 640 238 630 Q 244 614 244 585 Q 245 569 244 489 L 244 440 Q 243 377 243 283 C 243 253 287 276 288 306 Z" class="stroke3"/>
    <path d="M 243 283 Q 194 261 144 234 Q 126 225 97 221 Q 85 217 85 207 Q 85 194 96 189 Q 120 177 154 165 Q 164 164 174 174 Q 201 204 355 308 Q 376 323 391 339 Q 401 348 400 357 Q 394 361 383 356 Q 338 332 288 306 L 243 283 Z" class="stroke4"/>
    <path d="M 631 762 Q 631 771 655 832 Q 659 841 644 857 Q 616 878 595 884 Q 582 888 574 883 Q 567 877 571 863 Q 584 841 582 826 Q 581 789 576 749 L 573 721 Q 567 673 559 619 C 555 589 592 596 598 625 Q 610 680 623 730 L 631 762 Z" class="stroke5"/>
    <path d="M 749 653 Q 770 704 797 723 Q 812 739 800 754 Q 787 766 742 788 Q 727 795 709 788 Q 669 772 631 762 L 576 749 Q 531 742 485 737 Q 472 736 472 727 Q 475 720 490 715 Q 512 705 542 715 Q 557 719 573 721 L 623 730 Q 707 752 719 741 Q 728 729 700 644 C 691 615 737 625 749 653 Z" class="stroke6"/>
    <path d="M 559 619 Q 486 609 406 595 Q 388 592 402 579 Q 429 555 459 564 Q 652 624 905 624 L 907 624 Q 923 625 928 632 Q 932 642 918 652 Q 869 686 815 669 Q 785 663 749 653 L 700 644 Q 675 640 647 634 Q 622 630 598 625 L 559 619 Z" class="stroke7"/>
    <path d="M 512 527 Q 503 531 470 534 Q 460 535 456 531 Q 452 525 461 512 Q 483 478 504 418 Q 508 399 521 389 Q 539 371 542 385 Q 543 394 543 405 L 538 433 Q 525 485 523 503 C 520 524 520 524 512 527 Z" class="stroke8"/>
    <path d="M 734 470 Q 749 506 773 519 Q 786 534 775 548 Q 762 558 721 579 Q 708 586 690 579 Q 624 551 512 527 C 483 521 495 493 523 503 Q 524 506 674 540 Q 693 546 701 538 Q 705 531 687 468 C 679 439 722 443 734 470 Z" class="stroke9"/>
    <path d="M 634 421 Q 680 431 750 438 Q 759 439 760 446 Q 761 453 734 470 C 722 477 716 476 687 468 Q 605 446 538 433 C 509 427 513 406 543 405 Q 549 404 557 406 Q 570 410 589 413 L 634 421 Z" class="stroke10"/>
    <path d="M 664 307 Q 790 340 791 340 Q 798 347 795 354 Q 788 364 763 370 Q 742 373 667 349 L 610 334 Q 567 325 519 320 Q 488 314 510 300 Q 538 285 607 295 Q 608 295 610 295 L 664 307 Z" class="stroke11"/>
    <path d="M 660 170 Q 744 183 870 179 Q 891 178 898 189 Q 904 198 886 209 Q 835 245 781 228 Q 753 222 724 216 Q 693 212 661 205 L 609 195 Q 545 185 484 169 Q 466 163 471 179 Q 493 228 508 245 Q 518 252 515 263 Q 511 273 483 294 Q 468 306 458 302 Q 448 295 453 282 Q 460 254 436 198 Q 430 179 405 161 Q 395 152 396 140 Q 397 130 411 115 Q 423 106 436 116 Q 499 149 609 163 L 660 170 Z" class="stroke12"/>
    <path d="M 609 163 Q 609 -56 622 -72 L 623 -73 Q 627 -80 635 -78 Q 659 -63 660 156 L 660 170 L 661 205 Q 661 248 664 307 L 667 349 Q 667 350 668 350 Q 671 366 673 379 Q 676 395 663 404 Q 645 416 634 421 C 608 435 575 440 589 413 Q 589 412 600 392 Q 609 377 610 334 L 610 295 Q 610 250 609 195 L 609 163 Z" class="stroke13"/>
    
    
    
    
    
    
    
    
    
    
    
    
    </g>
</svg>