<svg version="1.1" viewBox="0 0 1024 1024" xmlns="http://www.w3.org/2000/svg">
  
  <g transform="scale(1, -1) translate(0, -900)">
    <style type="text/css">
        .stroke1 {fill: #808080;}
        .stroke2 {fill: #808079;}
        .stroke3 {fill: #808078;}
        .stroke4 {fill: #808077;}
        .stroke5 {fill: #808076;}
        .stroke6 {fill: #808075;}
        .stroke7 {fill: #808074;}
        .stroke8 {fill: #808073;}
        .stroke9 {fill: #808072;}
        .stroke10 {fill: #808071;}
        .stroke11 {fill: #808070;}
        .stroke12 {fill: #808069;}
        .stroke13 {fill: #808068;}
        .stroke14 {fill: #808067;}
        .stroke15 {fill: #808066;}
        .stroke16 {fill: #808065;}
        .stroke17 {fill: #808064;}
        .stroke18 {fill: #808063;}
        .stroke19 {fill: #808062;}
        .stroke20 {fill: #808061;}
        text {
            font-family: Helvetica;
            font-size: 50px;
            fill: #808060;
            paint-order: stroke;
            stroke: #000000;
            stroke-width: 4px;
            stroke-linecap: butt;
            stroke-linejoin: miter;
            font-weight: 800;
        }
    </style>

    <path d="M 241 630 Q 334 660 337 662 Q 344 671 340 678 Q 333 688 305 692 Q 277 695 251 681 Q 223 669 194 660 Q 160 650 121 643 Q 88 634 114 621 Q 147 605 200 618 L 241 630 Z" class="stroke1"/>
    <path d="M 258 431 Q 325 458 327 458 Q 334 467 328 474 Q 321 484 293 486 Q 274 487 259 481 L 213 461 Q 129 434 119 431 Q 88 421 113 409 Q 141 399 213 415 L 258 431 Z" class="stroke2"/>
    <path d="M 253 279 Q 254 361 258 431 L 259 481 Q 262 613 263 613 L 262 614 Q 252 624 241 630 C 216 646 193 647 200 618 Q 209 588 213 501 Q 213 485 213 461 L 213 415 Q 212 352 212 260 C 212 230 253 249 253 279 Z" class="stroke3"/>
    <path d="M 212 260 Q 91 209 67 207 Q 54 204 54 193 Q 54 180 64 173 Q 89 160 124 147 Q 134 146 145 155 Q 163 176 309 272 Q 328 285 342 298 Q 354 308 353 317 Q 347 321 335 317 Q 296 299 253 279 L 212 260 Z" class="stroke4"/>
    <path d="M 426 495 Q 427 499 430 503 C 432 506 432 506 432 526 Q 432 533 433 570 L 433 594 Q 433 622 433 643 L 433 667 Q 433 721 434 724 C 435 736 435 736 426 744 Q 420 753 400 758 Q 393 762 386 758 Q 382 755 385 747 Q 413 644 393 559 Q 384 520 412 489 C 419 481 419 481 426 495 Z" class="stroke5"/>
    <path d="M 536 518 Q 545 499 550 499 Q 560 500 570 521 Q 580 537 580 551 Q 561 698 590 738 Q 596 748 590 755 Q 571 771 540 782 Q 530 785 514 779 Q 495 767 467 757 Q 445 750 426 744 C 397 735 405 715 434 724 Q 455 730 515 752 Q 525 756 530 750 Q 548 726 535 560 Q 531 548 530 540 L 536 518 Z" class="stroke6"/>
    <path d="M 433 643 Q 475 649 507 656 Q 525 660 517 670 Q 508 680 488 682 Q 452 685 433 667 C 411 647 403 639 433 643 Z" class="stroke7"/>
    <path d="M 433 570 Q 476 579 511 584 Q 529 588 521 598 Q 512 608 492 611 Q 462 614 433 594 C 408 577 404 564 433 570 Z" class="stroke8"/>
    <path d="M 430 503 Q 434 502 443 504 Q 471 511 536 518 C 566 521 557 526 530 540 Q 527 541 524 544 Q 512 548 493 543 Q 459 533 432 526 C 403 518 400 506 430 503 Z" class="stroke9"/>
    <path d="M 412 489 Q 412 488 414 483 Q 424 455 349 361 Q 343 357 341 353 Q 340 346 347 347 Q 377 353 442 431 Q 452 444 459 450 Q 465 454 463 463 Q 462 470 446 484 Q 436 493 426 495 C 408 500 408 500 412 489 Z" class="stroke10"/>
    <path d="M 500 470 Q 540 422 552 419 Q 559 418 565 428 Q 566 435 561 449 Q 549 473 503 486 Q 499 487 497 481 Q 496 477 500 470 Z" class="stroke11"/>
    <path d="M 657 781 Q 648 790 632 794 Q 625 798 618 794 Q 614 791 617 783 Q 618 777 621 772 Q 639 741 630 607 Q 612 547 642 516 Q 649 506 656 515 Q 660 522 662 529 L 665 554 Q 665 587 664 619 L 664 636 Q 664 667 664 688 L 664 705 Q 664 757 666 759 C 668 772 668 772 657 781 Z" class="stroke12"/>
    <path d="M 781 536 Q 791 514 798 515 Q 808 516 821 540 Q 833 561 829 599 Q 817 728 842 767 Q 849 779 844 786 Q 823 802 788 817 Q 778 821 760 814 Q 729 796 657 781 C 628 775 637 753 666 759 Q 670 759 674 760 Q 764 791 773 782 Q 783 769 783 723 Q 784 596 777 570 Q 776 566 774 560 C 772 553 772 553 781 536 Z" class="stroke13"/>
    <path d="M 664 688 L 739 696 Q 757 700 749 710 Q 740 720 720 723 Q 677 723 664 705 C 649 686 649 686 664 688 Z" class="stroke14"/>
    <path d="M 664 619 Q 665 619 742 625 Q 760 629 753 638 Q 744 648 725 652 Q 683 655 664 636 C 644 618 644 618 664 619 Z" class="stroke15"/>
    <path d="M 662 529 Q 666 528 674 529 Q 707 535 781 536 C 806 536 798 542 774 560 L 766 566 Q 757 572 665 554 C 636 548 632 532 662 529 Z" class="stroke16"/>
    <path d="M 656 492 Q 660 485 657 479 Q 644 446 605 396 Q 599 392 598 388 Q 595 382 603 383 Q 631 390 684 446 Q 691 455 698 459 Q 704 463 702 472 Q 701 479 686 493 Q 673 503 663 505 Q 653 505 656 492 Z" class="stroke17"/>
    <path d="M 757 472 Q 785 441 813 405 Q 820 395 833 393 Q 840 392 846 401 Q 850 411 848 433 Q 847 454 819 474 Q 756 513 744 510 Q 740 509 739 499 Q 740 490 757 472 Z" class="stroke18"/>
    <path d="M 564 303 Q 571 321 581 333 Q 591 340 588 350 Q 582 363 545 391 Q 535 400 523 396 Q 511 393 518 377 Q 527 355 519 331 Q 513 312 508 295 L 495 260 Q 482 226 467 204 Q 458 186 461 174 Q 464 164 481 161 Q 562 140 582 120 L 628 95 Q 686 59 771 -6 Q 796 -25 814 -25 Q 835 -25 835 -5 Q 835 16 806 60 Q 790 87 658 137 L 611 154 Q 562 173 525 182 Q 504 186 515 206 Q 534 246 547 269 L 564 303 Z" class="stroke19"/>
    <path d="M 724 328 Q 715 335 701 339 Q 682 349 665 346 Q 652 343 658 329 Q 659 325 662 318 L 665 284 Q 661 223 611 154 L 582 120 Q 516 60 368 20 Q 352 13 370 9 Q 523 -7 628 95 L 658 137 Q 692 186 710 242 Q 720 273 729 288 C 742 315 744 317 724 328 Z" class="stroke20"/>
    <path d="M 729 288 Q 915 294 921 298 Q 921 299 923 301 Q 927 311 913 323 Q 862 365 807 344 Q 770 338 724 328 L 662 318 Q 656 318 564 303 L 508 295 Q 436 288 359 276 Q 340 275 354 259 Q 367 246 383 242 Q 402 238 416 241 Q 453 251 495 260 L 547 269 Q 568 275 592 276 Q 623 280 665 284 L 729 288 Z" class="stroke21"/>
    
    
    
    
    
    
    
    
    
    
    
    
    
    
    
    
    
    
    
    
    </g>
</svg>