<svg version="1.1" viewBox="0 0 1024 1024" xmlns="http://www.w3.org/2000/svg">
  
  <g transform="scale(1, -1) translate(0, -900)">
    <style type="text/css">
        .stroke1 {fill: #808080;}
        .stroke2 {fill: #808079;}
        .stroke3 {fill: #808078;}
        .stroke4 {fill: #808077;}
        .stroke5 {fill: #808076;}
        .stroke6 {fill: #808075;}
        .stroke7 {fill: #808074;}
        .stroke8 {fill: #808073;}
        .stroke9 {fill: #808072;}
        .stroke10 {fill: #808071;}
        .stroke11 {fill: #808070;}
        .stroke12 {fill: #808069;}
        .stroke13 {fill: #808068;}
        .stroke14 {fill: #808067;}
        .stroke15 {fill: #808066;}
        .stroke16 {fill: #808065;}
        .stroke17 {fill: #808064;}
        .stroke18 {fill: #808063;}
        .stroke19 {fill: #808062;}
        .stroke20 {fill: #808061;}
        text {
            font-family: Helvetica;
            font-size: 50px;
            fill: #808060;
            paint-order: stroke;
            stroke: #000000;
            stroke-width: 4px;
            stroke-linecap: butt;
            stroke-linejoin: miter;
            font-weight: 800;
        }
    </style>

    <path d="M 492 809 Q 516 794 542 774 Q 558 764 575 767 Q 585 768 589 784 Q 590 800 576 829 Q 563 853 478 858 Q 462 859 455 855 Q 451 851 455 837 Q 461 827 492 809 Z" class="stroke1"/>
    <path d="M 603 707 Q 603 708 743 726 Q 753 725 761 736 Q 762 746 742 756 Q 714 777 628 752 Q 489 725 326 701 Q 314 701 304 698 Q 279 695 298 679 Q 329 657 353 661 Q 450 683 575 703 L 603 707 Z" class="stroke2"/>
    <path d="M 580 606 Q 614 645 631 655 Q 638 658 638 666 Q 638 673 631 686 Q 621 698 607 706 Q 604 707 603 707 C 577 719 577 719 575 703 Q 575 675 529 618 L 501 587 Q 452 542 359 485 Q 352 482 359 479 Q 408 473 514 548 Q 514 549 541 570 L 580 606 Z" class="stroke3"/>
    <path d="M 541 570 Q 578 555 617 536 Q 633 527 644 528 Q 650 529 652 538 Q 656 550 637 575 Q 622 596 580 606 L 529 618 Q 460 630 424 635 Q 417 636 419 627 Q 422 618 431 614 Q 464 604 501 587 L 541 570 Z" class="stroke4"/>
    <path d="M 568 446 Q 629 458 694 467 Q 767 480 777 490 Q 786 497 782 505 Q 776 517 750 524 Q 720 533 638 506 Q 479 466 319 453 C 289 450 292 425 322 420 Q 340 413 420 424 Q 469 431 522 439 L 568 446 Z" class="stroke5"/>
    <path d="M 319 453 Q 306 468 283 481 Q 267 494 253 491 Q 240 485 245 471 Q 257 452 251 406 Q 248 393 246 374 Q 225 245 177 143 Q 138 65 62 -27 Q 56 -33 53 -38 Q 49 -48 60 -48 Q 87 -48 170 47 Q 182 65 196 84 Q 263 195 298 338 Q 316 407 322 420 C 330 443 330 443 319 453 Z" class="stroke6"/>
    <path d="M 421 290 Q 437 315 455 335 Q 465 345 452 359 Q 418 390 393 387 Q 383 386 384 372 Q 393 306 323 228 Q 307 210 297 199 Q 290 186 303 189 Q 315 190 332 202 Q 381 233 411 276 L 421 290 Z" class="stroke7"/>
    <path d="M 598 279 Q 652 292 707 303 Q 753 315 759 321 Q 768 328 763 337 Q 756 347 728 355 Q 698 359 670 348 Q 633 335 599 324 L 542 310 Q 488 300 429 292 Q 423 292 421 290 C 399 285 399 285 411 276 Q 423 264 456 257 Q 483 253 513 261 Q 526 265 542 266 L 598 279 Z" class="stroke8"/>
    <path d="M 593 155 Q 651 168 704 175 Q 732 179 721 195 Q 709 211 679 217 Q 651 221 603 207 Q 597 206 595 204 L 541 190 Q 468 172 404 156 Q 385 152 409 134 Q 424 124 454 130 Q 497 139 541 146 L 593 155 Z" class="stroke9"/>
    <path d="M 589 52 Q 590 106 593 155 L 595 204 Q 596 244 598 279 L 599 324 Q 600 340 601 355 Q 602 374 603 388 Q 610 409 601 419 Q 585 435 568 446 C 543 463 510 467 522 439 Q 541 403 542 310 L 542 266 Q 541 235 541 190 L 541 146 Q 541 103 541 47 C 541 17 588 22 589 52 Z" class="stroke10"/>
    <path d="M 541 47 Q 414 37 270 22 Q 248 21 263 3 Q 278 -12 296 -18 Q 318 -25 334 -21 Q 575 36 897 15 Q 897 16 900 15 Q 921 14 926 23 Q 932 35 915 50 Q 863 92 823 84 Q 736 69 589 52 L 541 47 Z" class="stroke11"/>
    
    
    
    
    
    
    
    
    
    
    </g>
</svg>