<svg version="1.1" viewBox="0 0 1024 1024" xmlns="http://www.w3.org/2000/svg">
  
  <g transform="scale(1, -1) translate(0, -900)">
    <style type="text/css">
        .stroke1 {fill: #808080;}
        .stroke2 {fill: #808079;}
        .stroke3 {fill: #808078;}
        .stroke4 {fill: #808077;}
        .stroke5 {fill: #808076;}
        .stroke6 {fill: #808075;}
        .stroke7 {fill: #808074;}
        .stroke8 {fill: #808073;}
        .stroke9 {fill: #808072;}
        .stroke10 {fill: #808071;}
        .stroke11 {fill: #808070;}
        .stroke12 {fill: #808069;}
        .stroke13 {fill: #808068;}
        .stroke14 {fill: #808067;}
        .stroke15 {fill: #808066;}
        .stroke16 {fill: #808065;}
        .stroke17 {fill: #808064;}
        .stroke18 {fill: #808063;}
        .stroke19 {fill: #808062;}
        .stroke20 {fill: #808061;}
        text {
            font-family: Helvetica;
            font-size: 50px;
            fill: #808060;
            paint-order: stroke;
            stroke: #000000;
            stroke-width: 4px;
            stroke-linecap: butt;
            stroke-linejoin: miter;
            font-weight: 800;
        }
    </style>

    <path d="M 322 499 Q 377 514 440 527 Q 477 537 483 542 Q 492 549 487 557 Q 480 567 453 574 Q 429 578 340 547 Q 265 528 195 518 Q 162 512 186 497 Q 225 479 279 490 Q 283 491 289 491 L 322 499 Z" class="stroke1"/>
    <path d="M 275 381 Q 321 429 343 440 Q 352 447 351 457 Q 348 472 322 499 C 302 521 284 521 289 491 Q 293 478 286 467 Q 243 398 154 322 Q 144 316 142 312 Q 138 305 148 304 Q 166 303 255 365 L 275 381 Z" class="stroke2"/>
    <path d="M 383 290 Q 371 311 365 317 L 354 329 Q 326 359 275 381 C 248 393 229 380 255 365 Q 273 356 287 344 L 329 303 Q 335 296 341 285 L 341 284 L 359 218 Q 359 149 351 112 Q 344 79 334 74 Q 328 71 280 70 Q 241 74 240 68 Q 239 61 252 50 Q 303 11 325 -16 Q 338 -32 352 -28 Q 394 -9 408 97 Q 417 181 400 244 L 383 290 Z" class="stroke3"/>
    <path d="M 287 344 Q 286 343 286 340 Q 268 286 132 193 Q 116 183 136 184 Q 190 184 294 271 Q 295 274 298 275 Q 317 293 329 303 C 352 322 296 373 287 344 Z" class="stroke4"/>
    <path d="M 341 284 Q 340 284 340 282 Q 280 170 116 57 Q 103 47 112 45 Q 119 41 132 44 Q 240 75 359 218 C 378 241 355 310 341 284 Z" class="stroke5"/>
    <path d="M 365 317 Q 435 363 470 381 Q 485 384 481 393 Q 477 406 462 421 Q 447 437 429 439 Q 417 439 418 423 Q 419 408 354 329 C 335 306 340 301 365 317 Z" class="stroke6"/>
    <path d="M 400 244 Q 680 -14 715 -19 Q 794 -19 889 3 Q 926 10 922 21 Q 921 25 883 34 Q 709 68 647 99 Q 541 163 435 260 Q 408 284 383 290 C 355 300 378 264 400 244 Z" class="stroke7"/>
    <path d="M 589 434 Q 595 452 620 502 Q 627 514 613 523 Q 571 545 554 538 Q 545 535 549 523 Q 570 454 499 344 Q 495 337 491 330 Q 487 317 498 322 Q 535 337 582 418 L 589 434 Z" class="stroke8"/>
    <path d="M 722 420 Q 812 441 815 444 Q 822 451 819 458 Q 812 468 787 474 Q 750 480 723 463 L 674 449 Q 638 440 595 436 Q 591 436 589 434 C 564 427 564 427 582 418 Q 583 418 586 416 Q 622 397 670 409 Q 671 410 675 409 L 722 420 Z" class="stroke9"/>
    <path d="M 716 309 Q 758 319 795 323 Q 817 327 809 340 Q 799 355 773 359 Q 752 362 718 352 L 675 338 Q 629 325 587 313 Q 571 309 591 295 Q 601 288 622 292 Q 649 298 675 301 L 716 309 Z" class="stroke10"/>
    <path d="M 712 226 Q 713 269 716 309 L 718 352 Q 719 386 722 420 L 723 463 Q 726 515 741 578 Q 744 588 725 602 Q 691 620 669 623 Q 653 626 646 618 Q 639 611 647 597 Q 669 563 670 541 Q 673 498 674 449 L 675 409 Q 675 375 675 338 L 675 301 Q 674 262 673 219 C 672 189 711 196 712 226 Z" class="stroke11"/>
    <path d="M 673 219 Q 615 210 546 199 Q 528 196 542 183 Q 554 171 568 167 Q 586 163 599 167 Q 692 191 855 192 Q 871 192 875 200 Q 879 209 866 220 Q 815 254 758 236 Q 737 233 712 226 L 673 219 Z" class="stroke12"/>
    
    
    
    
    
    
    
    
    
    
    
    </g>
</svg>