<svg version="1.1" viewBox="0 0 1024 1024" xmlns="http://www.w3.org/2000/svg">
  
  <g transform="scale(1, -1) translate(0, -900)">
    <style type="text/css">
        .stroke1 {fill: #808080;}
        .stroke2 {fill: #808079;}
        .stroke3 {fill: #808078;}
        .stroke4 {fill: #808077;}
        .stroke5 {fill: #808076;}
        .stroke6 {fill: #808075;}
        .stroke7 {fill: #808074;}
        .stroke8 {fill: #808073;}
        .stroke9 {fill: #808072;}
        .stroke10 {fill: #808071;}
        .stroke11 {fill: #808070;}
        .stroke12 {fill: #808069;}
        .stroke13 {fill: #808068;}
        .stroke14 {fill: #808067;}
        .stroke15 {fill: #808066;}
        .stroke16 {fill: #808065;}
        .stroke17 {fill: #808064;}
        .stroke18 {fill: #808063;}
        .stroke19 {fill: #808062;}
        .stroke20 {fill: #808061;}
        text {
            font-family: Helvetica;
            font-size: 50px;
            fill: #808060;
            paint-order: stroke;
            stroke: #000000;
            stroke-width: 4px;
            stroke-linecap: butt;
            stroke-linejoin: miter;
            font-weight: 800;
        }
    </style>

    <path d="M 293 779 Q 281 785 248 787 Q 235 788 233 784 Q 227 777 237 762 Q 276 692 303 576 Q 309 540 331 518 Q 350 499 354 514 Q 355 520 356 526 L 355 557 Q 355 563 308 742 C 300 771 299 777 293 779 Z" class="stroke1"/>
    <path d="M 611 554 Q 627 526 644 517 Q 654 507 673 529 Q 689 554 731 691 Q 743 725 770 750 Q 785 763 773 778 Q 757 797 713 829 Q 695 838 627 825 Q 513 812 413 796 Q 349 786 293 779 C 263 775 279 735 308 742 Q 368 757 458 770 L 500 776 Q 651 800 670 780 Q 682 764 678 747 Q 642 599 621 585 C 605 563 605 563 611 554 Z" class="stroke2"/>
    <path d="M 517 660 Q 562 669 603 673 Q 625 677 617 689 Q 607 702 583 707 Q 561 711 522 701 Q 521 701 520 700 L 469 687 Q 417 675 371 664 Q 355 661 374 646 Q 386 639 409 642 Q 440 648 470 652 L 517 660 Z" class="stroke3"/>
    <path d="M 513 581 Q 514 624 517 660 L 520 700 Q 520 724 522 733 Q 531 754 500 776 C 476 794 451 799 458 770 Q 465 745 469 687 L 470 652 Q 470 619 471 573 C 472 543 512 551 513 581 Z" class="stroke4"/>
    <path d="M 549 549 Q 577 553 611 554 C 641 555 644 566 621 585 Q 617 589 612 592 Q 591 604 513 581 L 471 573 Q 410 564 355 557 C 325 553 326 525 356 526 Q 365 526 377 527 L 409 533 Q 452 542 523 547 L 549 549 Z" class="stroke5"/>
    <path d="M 377 527 Q 377 449 220 325 Q 216 324 214 321 Q 171 287 63 226 Q 54 223 64 219 Q 121 213 257 304 Q 377 410 411 446 Q 420 462 440 474 Q 447 477 448 487 Q 448 496 439 508 Q 421 532 409 533 C 382 546 379 548 377 527 Z" class="stroke6"/>
    <path d="M 523 547 Q 526 540 535 530 Q 637 409 748 300 Q 790 254 957 282 Q 976 283 977 289 Q 980 296 965 302 Q 773 378 746 396 Q 656 450 552 547 Q 549 548 549 549 C 526 569 506 572 523 547 Z" class="stroke7"/>
    <path d="M 354 333 Q 379 296 358 194 Q 331 104 269 59 Q 256 49 243 38 Q 231 29 243 27 Q 285 27 342 79 Q 403 137 415 227 Q 430 300 433 306 Q 440 322 426 330 Q 381 358 360 351 Q 348 347 354 333 Z" class="stroke8"/>
    <path d="M 556 378 Q 580 339 563 105 Q 562 96 561 87 Q 561 65 557 54 Q 545 2 600 -55 Q 601 -56 604 -58 Q 616 -59 621 -46 Q 633 -13 628 18 Q 618 297 625 348 Q 626 361 620 366 Q 595 387 576 396 Q 563 399 554 391 Q 548 388 556 378 Z" class="stroke9"/>
    
    
    
    
    
    
    
    
    </g>
</svg>