<svg version="1.1" viewBox="0 0 1024 1024" xmlns="http://www.w3.org/2000/svg">
  
  <g transform="scale(1, -1) translate(0, -900)">
    <style type="text/css">
        .stroke1 {fill: #808080;}
        .stroke2 {fill: #808079;}
        .stroke3 {fill: #808078;}
        .stroke4 {fill: #808077;}
        .stroke5 {fill: #808076;}
        .stroke6 {fill: #808075;}
        .stroke7 {fill: #808074;}
        .stroke8 {fill: #808073;}
        .stroke9 {fill: #808072;}
        .stroke10 {fill: #808071;}
        .stroke11 {fill: #808070;}
        .stroke12 {fill: #808069;}
        .stroke13 {fill: #808068;}
        .stroke14 {fill: #808067;}
        .stroke15 {fill: #808066;}
        .stroke16 {fill: #808065;}
        .stroke17 {fill: #808064;}
        .stroke18 {fill: #808063;}
        .stroke19 {fill: #808062;}
        .stroke20 {fill: #808061;}
        text {
            font-family: Helvetica;
            font-size: 50px;
            fill: #808060;
            paint-order: stroke;
            stroke: #000000;
            stroke-width: 4px;
            stroke-linecap: butt;
            stroke-linejoin: miter;
            font-weight: 800;
        }
    </style>

    <path d="M 321 773 Q 308 777 288 780 Q 276 783 273 778 Q 266 771 275 756 Q 312 678 334 551 Q 338 512 360 487 Q 378 465 383 481 Q 386 491 386 504 L 385 531 Q 384 547 380 565 Q 352 698 345 739 C 340 768 340 768 321 773 Z" class="stroke1"/>
    <path d="M 607 538 Q 626 507 645 497 Q 655 488 671 510 Q 689 538 724 693 Q 734 726 758 751 Q 771 764 760 778 Q 744 796 701 824 Q 685 833 591 814 Q 588 814 435 791 Q 374 781 321 773 C 291 768 316 732 345 739 Q 399 752 478 765 L 520 770 Q 562 777 611 783 Q 648 787 660 774 Q 675 758 671 739 Q 640 580 624 564 C 610 537 605 541 607 538 Z" class="stroke2"/>
    <path d="M 530 639 Q 573 648 611 653 Q 633 657 625 669 Q 615 682 591 687 Q 569 690 532 679 L 485 666 Q 442 654 403 644 Q 387 640 406 627 Q 416 620 485 632 L 530 639 Z" class="stroke3"/>
    <path d="M 525 559 Q 526 602 530 639 L 532 679 Q 535 754 536 755 Q 529 762 520 770 C 498 790 470 794 478 765 Q 484 750 485 666 L 485 632 Q 485 599 485 551 C 485 521 524 529 525 559 Z" class="stroke4"/>
    <path d="M 386 504 Q 446 519 607 538 C 637 542 651 551 624 564 Q 617 568 607 571 Q 576 575 525 559 L 485 551 Q 433 542 385 531 C 356 524 357 497 386 504 Z" class="stroke5"/>
    <path d="M 478 403 Q 614 422 824 424 Q 905 421 912 433 Q 918 446 900 461 Q 837 506 772 486 Q 543 446 125 392 Q 103 389 120 371 Q 135 356 154 351 Q 176 345 194 350 Q 239 363 289 373 L 336 382 Q 379 392 430 397 L 478 403 Z" class="stroke6"/>
    <path d="M 289 373 Q 322 340 306 147 Q 303 137 302 127 Q 296 94 283 76 Q 268 52 278 29 Q 290 -7 309 -20 Q 321 -29 334 -7 Q 371 41 495 160 Q 514 176 515 185 Q 516 200 494 187 Q 371 109 360 114 Q 353 118 352 138 Q 359 289 368 328 Q 374 355 336 382 C 313 401 273 398 289 373 Z" class="stroke7"/>
    <path d="M 620 258 Q 654 273 676 285 Q 743 324 768 329 Q 790 336 781 355 Q 771 374 747 391 Q 726 407 713 406 Q 700 406 703 393 Q 704 363 646 314 Q 625 295 602 274 C 580 254 593 246 620 258 Z" class="stroke8"/>
    <path d="M 602 274 Q 541 338 478 403 C 457 425 405 413 430 397 Q 467 376 492 341 Q 726 47 767 37 Q 818 30 943 50 Q 962 53 969 62 Q 973 71 961 74 Q 786 128 736 163 Q 688 194 620 258 L 602 274 Z" class="stroke9"/>
    
    
    
    
    
    
    
    
    </g>
</svg>