<svg version="1.1" viewBox="0 0 1024 1024" xmlns="http://www.w3.org/2000/svg">
  
  <g transform="scale(1, -1) translate(0, -900)">
    <style type="text/css">
        .stroke1 {fill: #808080;}
        .stroke2 {fill: #808079;}
        .stroke3 {fill: #808078;}
        .stroke4 {fill: #808077;}
        .stroke5 {fill: #808076;}
        .stroke6 {fill: #808075;}
        .stroke7 {fill: #808074;}
        .stroke8 {fill: #808073;}
        .stroke9 {fill: #808072;}
        .stroke10 {fill: #808071;}
        .stroke11 {fill: #808070;}
        .stroke12 {fill: #808069;}
        .stroke13 {fill: #808068;}
        .stroke14 {fill: #808067;}
        .stroke15 {fill: #808066;}
        .stroke16 {fill: #808065;}
        .stroke17 {fill: #808064;}
        .stroke18 {fill: #808063;}
        .stroke19 {fill: #808062;}
        .stroke20 {fill: #808061;}
        text {
            font-family: Helvetica;
            font-size: 50px;
            fill: #808060;
            paint-order: stroke;
            stroke: #000000;
            stroke-width: 4px;
            stroke-linecap: butt;
            stroke-linejoin: miter;
            font-weight: 800;
        }
    </style>

    <path d="M 280 710 Q 308 685 339 654 Q 355 639 374 640 Q 387 641 392 656 Q 398 675 387 709 Q 375 742 274 767 Q 255 771 248 768 Q 242 764 244 747 Q 248 734 280 710 Z" class="stroke1"/>
    <path d="M 98 524 Q 58 517 87 499 Q 133 475 192 489 Q 301 513 412 537 Q 464 550 471 557 Q 481 566 476 575 Q 467 588 436 595 Q 409 601 291 562 Q 195 535 98 524 Z" class="stroke2"/>
    <path d="M 117 374 Q 105 380 76 385 Q 64 388 61 383 Q 54 376 63 360 Q 100 278 119 146 Q 122 106 144 80 Q 162 58 167 73 Q 171 85 171 102 L 169 134 Q 151 237 132 342 C 127 370 127 370 117 374 Z" class="stroke3"/>
    <path d="M 342 135 Q 358 113 373 105 Q 383 98 398 119 Q 414 149 445 311 Q 452 342 475 366 Q 488 379 477 392 Q 461 408 419 433 Q 398 442 341 424 Q 308 423 117 374 C 88 367 103 333 132 342 Q 169 354 221 365 L 259 373 Q 361 401 383 386 Q 399 373 395 350 Q 367 184 352 168 C 339 141 338 140 342 135 Z" class="stroke4"/>
    <path d="M 279 244 Q 307 254 336 262 Q 355 268 357 271 Q 363 278 359 284 Q 353 291 331 295 Q 297 299 280 283 L 233 267 Q 211 263 187 257 Q 160 250 181 239 Q 203 230 234 232 L 279 244 Z" class="stroke5"/>
    <path d="M 276 163 Q 277 206 279 244 L 280 283 Q 280 307 282 332 Q 288 348 280 357 Q 270 367 259 373 C 233 389 211 393 221 365 Q 230 347 233 267 L 234 232 Q 234 199 236 151 C 237 121 275 133 276 163 Z" class="stroke6"/>
    <path d="M 171 102 Q 175 102 180 103 Q 232 119 342 135 C 372 139 377 152 352 168 Q 348 171 343 173 Q 322 182 276 163 L 236 151 Q 199 144 169 134 C 140 125 141 99 171 102 Z" class="stroke7"/>
    <path d="M 559 533 Q 563 542 570 551 Q 606 606 641 687 Q 656 724 671 744 Q 678 756 672 768 Q 665 781 634 798 Q 606 811 587 809 Q 569 805 580 784 Q 595 762 590 741 Q 575 671 545 601 Q 517 534 474 459 Q 465 447 464 441 Q 463 431 476 435 Q 495 441 541 506 L 559 533 Z" class="stroke8"/>
    <path d="M 663 308 Q 700 378 737 472 Q 750 503 776 525 Q 792 535 791 544 Q 790 557 757 573 Q 717 592 702 592 Q 690 591 680 581 Q 655 565 565 534 Q 561 534 559 533 C 530 524 511 510 541 506 Q 578 496 626 518 Q 656 542 675 532 Q 684 528 668 466 Q 611 223 358 62 Q 348 56 350 52 Q 351 48 359 48 Q 384 51 438 78 Q 486 100 534 144 Q 592 193 641 271 Q 645 278 649 284 L 663 308 Z" class="stroke9"/>
    <path d="M 649 284 Q 713 173 798 56 Q 814 37 843 35 Q 942 32 973 35 Q 983 36 984 41 Q 985 45 972 54 Q 840 117 780 178 Q 725 235 663 308 C 644 331 634 310 649 284 Z" class="stroke10"/>
    
    
    
    
    
    
    
    
    
    </g>
</svg>