<svg version="1.1" viewBox="0 0 1024 1024" xmlns="http://www.w3.org/2000/svg">
  
  <g transform="scale(1, -1) translate(0, -900)">
    <style type="text/css">
        .stroke1 {fill: #808080;}
        .stroke2 {fill: #808079;}
        .stroke3 {fill: #808078;}
        .stroke4 {fill: #808077;}
        .stroke5 {fill: #808076;}
        .stroke6 {fill: #808075;}
        .stroke7 {fill: #808074;}
        .stroke8 {fill: #808073;}
        .stroke9 {fill: #808072;}
        .stroke10 {fill: #808071;}
        .stroke11 {fill: #808070;}
        .stroke12 {fill: #808069;}
        .stroke13 {fill: #808068;}
        .stroke14 {fill: #808067;}
        .stroke15 {fill: #808066;}
        .stroke16 {fill: #808065;}
        .stroke17 {fill: #808064;}
        .stroke18 {fill: #808063;}
        .stroke19 {fill: #808062;}
        .stroke20 {fill: #808061;}
        text {
            font-family: Helvetica;
            font-size: 50px;
            fill: #808060;
            paint-order: stroke;
            stroke: #000000;
            stroke-width: 4px;
            stroke-linecap: butt;
            stroke-linejoin: miter;
            font-weight: 800;
        }
    </style>

    <path d="M 529 676 Q 572 686 620 694 Q 666 704 674 711 Q 684 718 679 728 Q 672 740 642 748 Q 615 754 533 727 L 470 710 Q 403 698 326 690 Q 289 684 315 666 Q 360 642 418 655 Q 440 661 469 664 L 529 676 Z" class="stroke1"/>
    <path d="M 657 398 Q 670 444 683 474 L 710 527 Q 723 549 741 562 Q 760 584 743 604 Q 724 619 664 647 Q 643 656 619 646 Q 571 627 525 611 L 467 595 Q 385 576 298 564 Q 279 563 282 551 Q 285 542 306 536 Q 334 524 374 538 Q 420 548 467 558 L 523 571 Q 557 580 594 588 Q 622 595 633 584 Q 646 571 641 544 Q 637 528 633 511 L 622 469 Q 613 441 604 412 C 595 383 649 369 657 398 Z" class="stroke2"/>
    <path d="M 683 474 Q 747 481 825 483 Q 903 486 909 495 Q 913 508 896 521 Q 839 561 773 542 Q 743 536 710 527 L 633 511 Q 579 504 520 489 L 466 480 Q 324 458 160 431 Q 138 428 155 411 Q 188 384 228 393 Q 339 427 465 448 L 519 457 Q 565 464 622 469 L 683 474 Z" class="stroke3"/>
    <path d="M 517 347 Q 581 357 663 365 Q 675 366 676 377 Q 676 384 657 398 C 634 417 634 417 604 412 Q 580 409 518 391 L 464 378 Q 379 362 304 350 Q 282 347 296 328 Q 303 318 315 315 Q 327 312 342 315 Q 388 328 464 338 L 517 347 Z" class="stroke4"/>
    <path d="M 510 100 Q 511 158 513 211 L 514 245 Q 515 297 517 347 L 518 391 Q 518 425 519 457 L 520 489 Q 520 501 521 511 Q 522 542 523 571 L 525 611 Q 526 648 529 676 L 533 727 Q 536 746 543 766 Q 556 788 540 803 Q 503 833 471 842 Q 455 846 439 833 Q 433 826 440 813 Q 471 759 470 710 L 469 664 Q 468 630 467 595 L 467 558 Q 466 521 466 480 L 465 448 Q 464 414 464 378 L 464 338 Q 461 238 461 128 C 461 98 509 70 510 100 Z" class="stroke5"/>
    <path d="M 513 211 Q 517 210 526 211 Q 617 227 684 236 Q 714 242 702 258 Q 687 277 655 281 Q 612 285 514 245 C 486 234 483 213 513 211 Z" class="stroke6"/>
    <path d="M 330 179 Q 348 207 366 230 Q 376 243 362 257 Q 323 293 296 289 Q 284 288 286 272 Q 295 172 179 49 Q 170 45 129 0 Q 122 -15 136 -11 Q 190 -2 282 107 Q 309 149 312 152 L 330 179 Z" class="stroke7"/>
    <path d="M 312 152 Q 354 148 448 88 Q 551 10 716 -72 Q 759 -87 944 -27 Q 957 -20 959 -11 Q 960 -1 939 -3 Q 876 3 808 4 Q 685 10 510 100 L 461 128 Q 361 185 330 179 C 300 181 283 158 312 152 Z" class="stroke8"/>
    
    
    
    
    
    
    
    </g>
</svg>