<svg version="1.1" viewBox="0 0 1024 1024" xmlns="http://www.w3.org/2000/svg">
  
  <g transform="scale(1, -1) translate(0, -900)">
    <style type="text/css">
        .stroke1 {fill: #808080;}
        .stroke2 {fill: #808079;}
        .stroke3 {fill: #808078;}
        .stroke4 {fill: #808077;}
        .stroke5 {fill: #808076;}
        .stroke6 {fill: #808075;}
        .stroke7 {fill: #808074;}
        .stroke8 {fill: #808073;}
        .stroke9 {fill: #808072;}
        .stroke10 {fill: #808071;}
        .stroke11 {fill: #808070;}
        .stroke12 {fill: #808069;}
        .stroke13 {fill: #808068;}
        .stroke14 {fill: #808067;}
        .stroke15 {fill: #808066;}
        .stroke16 {fill: #808065;}
        .stroke17 {fill: #808064;}
        .stroke18 {fill: #808063;}
        .stroke19 {fill: #808062;}
        .stroke20 {fill: #808061;}
        text {
            font-family: Helvetica;
            font-size: 50px;
            fill: #808060;
            paint-order: stroke;
            stroke: #000000;
            stroke-width: 4px;
            stroke-linecap: butt;
            stroke-linejoin: miter;
            font-weight: 800;
        }
    </style>

    <path d="M 538 789 Q 568 767 599 742 Q 615 729 633 731 Q 645 732 649 748 Q 652 764 639 796 Q 632 815 597 828 Q 515 846 504 839 Q 498 835 502 821 Q 506 809 538 789 Z" class="stroke1"/>
    <path d="M 388 632 Q 439 616 481 624 Q 803 682 821 692 Q 821 693 822 693 Q 832 702 827 711 Q 820 724 789 733 Q 756 740 655 708 Q 520 674 388 663 Q 384 663 382 661 C 353 655 359 640 388 632 Z" class="stroke2"/>
    <path d="M 302 339 Q 260 150 109 21 Q 93 8 90 1 Q 87 -6 100 -6 Q 139 -9 229 79 Q 331 184 364 403 Q 376 488 383 601 Q 387 622 388 632 C 392 655 392 655 382 661 Q 379 664 375 666 Q 326 693 309 690 Q 288 687 304 663 Q 340 597 308 369 L 302 339 Z" class="stroke3"/>
    <path d="M 170 523 Q 219 465 250 451 Q 265 447 275 461 Q 282 474 279 491 Q 267 537 185 561 L 184 562 Q 168 568 158 564 Q 151 563 153 550 Q 154 538 170 523 Z" class="stroke4"/>
    <path d="M 308 369 L 307 369 Q 117 276 78 273 Q 66 269 66 260 Q 66 247 76 241 Q 100 229 133 216 Q 143 215 154 225 Q 161 234 300 338 Q 300 339 302 339 C 327 356 336 381 308 369 Z" class="stroke5"/>
    <path d="M 652 384 Q 766 478 805 491 Q 827 498 820 516 Q 816 534 742 573 Q 721 583 697 574 Q 631 547 531 516 Q 506 506 441 507 Q 416 507 425 485 Q 434 472 455 459 Q 489 441 526 464 Q 550 474 671 522 Q 684 529 697 522 Q 710 515 705 500 Q 671 452 632 395 C 615 370 629 365 652 384 Z" class="stroke6"/>
    <path d="M 632 395 Q 628 398 622 399 Q 600 408 588 400 Q 573 393 589 379 Q 658 325 649 169 Q 648 105 629 65 Q 613 40 579 48 Q 539 58 501 70 Q 488 74 493 61 Q 499 51 521 37 Q 570 -3 587 -34 Q 597 -53 615 -51 Q 628 -50 659 -22 Q 722 39 710 204 Q 701 352 652 384 L 632 395 Z" class="stroke7"/>
    
    
    
    
    
    
    </g>
</svg>