<svg version="1.1" viewBox="0 0 1024 1024" xmlns="http://www.w3.org/2000/svg">
  
  <g transform="scale(1, -1) translate(0, -900)">
    <style type="text/css">
        .stroke1 {fill: #808080;}
        .stroke2 {fill: #808079;}
        .stroke3 {fill: #808078;}
        .stroke4 {fill: #808077;}
        .stroke5 {fill: #808076;}
        .stroke6 {fill: #808075;}
        .stroke7 {fill: #808074;}
        .stroke8 {fill: #808073;}
        .stroke9 {fill: #808072;}
        .stroke10 {fill: #808071;}
        .stroke11 {fill: #808070;}
        .stroke12 {fill: #808069;}
        .stroke13 {fill: #808068;}
        .stroke14 {fill: #808067;}
        .stroke15 {fill: #808066;}
        .stroke16 {fill: #808065;}
        .stroke17 {fill: #808064;}
        .stroke18 {fill: #808063;}
        .stroke19 {fill: #808062;}
        .stroke20 {fill: #808061;}
        text {
            font-family: Helvetica;
            font-size: 50px;
            fill: #808060;
            paint-order: stroke;
            stroke: #000000;
            stroke-width: 4px;
            stroke-linecap: butt;
            stroke-linejoin: miter;
            font-weight: 800;
        }
    </style>

    <path d="M 541 800 Q 569 778 599 751 Q 615 738 632 740 Q 644 741 649 756 Q 653 772 641 805 Q 629 835 532 852 Q 514 855 508 851 Q 502 847 505 833 Q 509 820 541 800 Z" class="stroke1"/>
    <path d="M 381 612 Q 421 600 481 609 Q 785 654 801 666 Q 811 673 807 683 Q 800 696 769 706 Q 733 715 646 687 Q 505 654 374 647 C 344 645 352 619 381 612 Z" class="stroke2"/>
    <path d="M 278 338 Q 242 182 116 -5 Q 110 -12 108 -18 Q 105 -28 116 -27 Q 150 -21 232 98 Q 248 126 266 159 Q 339 312 362 503 Q 369 572 380 611 Q 380 612 381 612 C 388 637 388 637 374 647 Q 326 686 303 678 Q 290 671 297 657 Q 318 621 310 551 Q 309 542 308 532 Q 302 456 289 387 L 278 338 Z" class="stroke3"/>
    <path d="M 154 568 Q 196 508 227 490 Q 240 486 251 497 Q 258 509 258 525 Q 251 570 171 603 Q 155 610 146 608 Q 140 607 141 595 Q 141 583 154 568 Z" class="stroke4"/>
    <path d="M 289 387 Q 210 332 111 267 Q 98 257 70 250 Q 58 246 60 235 Q 61 222 73 217 Q 100 208 137 201 Q 147 201 156 213 Q 180 250 278 338 C 300 358 314 404 289 387 Z" class="stroke5"/>
    <path d="M 509 421 Q 569 421 705 448 Q 715 451 726 452 Q 760 459 767 465 Q 776 472 771 480 Q 764 492 736 499 Q 717 505 623 478 Q 527 460 494 456 C 464 452 479 421 509 421 Z" class="stroke6"/>
    <path d="M 456 259 Q 449 174 419 115 Q 401 90 440 56 Q 452 46 467 59 Q 525 101 679 110 Q 730 113 792 108 Q 814 105 824 111 Q 831 117 825 129 Q 819 142 781 163 Q 763 173 684 162 Q 669 169 515 135 Q 493 131 492 132 Q 476 142 482 173 Q 483 225 487 267 L 490 305 Q 497 389 509 421 C 515 441 515 441 494 456 Q 476 472 451 480 Q 436 484 428 475 Q 424 468 434 452 Q 455 422 457 300 L 456 259 Z" class="stroke7"/>
    <path d="M 487 267 Q 613 300 862 299 Q 883 299 887 307 Q 891 317 877 331 Q 829 367 793 358 Q 714 340 490 305 L 457 300 Q 414 296 371 289 Q 352 286 366 271 Q 379 258 396 253 Q 415 249 431 253 Q 441 257 456 259 L 487 267 Z" class="stroke8"/>
    
    
    
    
    
    
    
    </g>
</svg>