<svg version="1.1" viewBox="0 0 1024 1024" xmlns="http://www.w3.org/2000/svg">
  
  <g transform="scale(1, -1) translate(0, -900)">
    <style type="text/css">
        .stroke1 {fill: #808080;}
        .stroke2 {fill: #808079;}
        .stroke3 {fill: #808078;}
        .stroke4 {fill: #808077;}
        .stroke5 {fill: #808076;}
        .stroke6 {fill: #808075;}
        .stroke7 {fill: #808074;}
        .stroke8 {fill: #808073;}
        .stroke9 {fill: #808072;}
        .stroke10 {fill: #808071;}
        .stroke11 {fill: #808070;}
        .stroke12 {fill: #808069;}
        .stroke13 {fill: #808068;}
        .stroke14 {fill: #808067;}
        .stroke15 {fill: #808066;}
        .stroke16 {fill: #808065;}
        .stroke17 {fill: #808064;}
        .stroke18 {fill: #808063;}
        .stroke19 {fill: #808062;}
        .stroke20 {fill: #808061;}
        text {
            font-family: Helvetica;
            font-size: 50px;
            fill: #808060;
            paint-order: stroke;
            stroke: #000000;
            stroke-width: 4px;
            stroke-linecap: butt;
            stroke-linejoin: miter;
            font-weight: 800;
        }
    </style>

    <path d="M 491 812 Q 519 793 550 769 Q 565 759 579 761 Q 589 762 593 776 Q 596 791 584 818 Q 571 845 480 857 Q 465 858 460 855 Q 456 851 458 839 Q 462 829 491 812 Z" class="stroke1"/>
    <path d="M 345 650 Q 385 637 449 646 Q 576 667 710 690 Q 776 703 785 711 Q 795 718 791 728 Q 784 741 754 749 Q 724 756 622 725 Q 478 689 343 681 Q 336 681 334 679 C 304 674 316 658 345 650 Z" class="stroke2"/>
    <path d="M 237 323 Q 192 164 91 15 Q 87 8 84 2 Q 81 -8 92 -7 Q 126 -1 211 132 Q 224 157 238 184 Q 310 338 326 534 Q 335 633 345 650 C 350 667 350 667 334 679 Q 288 718 262 709 Q 250 702 257 688 Q 278 658 274 600 Q 259 419 245 358 L 237 323 Z" class="stroke3"/>
    <path d="M 133 542 Q 160 491 189 462 Q 201 456 212 466 Q 219 475 221 490 Q 221 529 171 559 Q 144 580 131 578 Q 125 579 124 568 Q 123 558 133 542 Z" class="stroke4"/>
    <path d="M 245 358 Q 89 292 59 289 Q 47 286 46 276 Q 46 263 56 257 Q 80 244 113 231 Q 123 230 134 240 Q 158 270 237 323 C 262 340 273 370 245 358 Z" class="stroke5"/>
    <path d="M 433 595 Q 442 574 395 501 Q 373 470 342 433 Q 335 427 333 423 Q 329 416 340 416 Q 382 425 466 528 Q 479 544 489 553 Q 496 560 494 570 Q 491 579 473 596 Q 455 611 442 612 Q 429 611 433 595 Z" class="stroke6"/>
    <path d="M 395 296 Q 422 323 451 358 Q 470 382 484 393 Q 491 400 490 411 Q 489 421 468 441 Q 449 457 435 458 Q 422 458 425 441 Q 443 393 284 227 Q 275 220 273 215 Q 269 208 280 208 Q 305 212 370 273 L 395 296 Z" class="stroke7"/>
    <path d="M 370 273 Q 403 204 367 52 Q 357 15 388 -29 L 389 -30 Q 404 -43 413 -21 Q 426 13 425 51 Q 426 196 432 229 Q 439 251 430 260 Q 402 293 395 296 C 372 315 358 301 370 273 Z" class="stroke8"/>
    <path d="M 592 480 Q 592 483 636 563 Q 643 573 631 583 Q 595 604 578 600 Q 571 597 573 587 Q 588 515 526 437 Q 511 418 504 405 Q 500 393 510 398 Q 534 404 581 464 L 592 480 Z" class="stroke9"/>
    <path d="M 581 464 Q 580 464 581 463 Q 623 412 638 410 Q 648 409 653 422 Q 654 432 648 447 Q 639 465 592 480 C 570 487 570 487 581 464 Z" class="stroke10"/>
    <path d="M 752 494 Q 762 512 770 529 Q 786 566 801 596 Q 808 608 794 619 Q 751 643 733 635 Q 723 632 727 620 Q 748 551 683 445 Q 674 442 655 402 Q 651 389 663 394 Q 690 403 739 473 L 752 494 Z" class="stroke11"/>
    <path d="M 739 473 Q 745 467 757 457 Q 787 435 818 406 Q 828 397 841 398 Q 850 398 853 408 Q 857 420 849 443 Q 845 462 815 476 Q 785 485 752 494 C 723 502 717 494 739 473 Z" class="stroke12"/>
    <path d="M 680 102 Q 686 216 688 229 L 690 258 Q 691 298 699 315 Q 706 330 697 339 Q 672 360 651 365 Q 641 368 630 359 Q 626 355 630 346 Q 642 328 643 256 Q 643 193 645 122 C 646 92 678 72 680 102 Z" class="stroke13"/>
    <path d="M 688 229 Q 692 229 699 229 Q 762 242 808 249 Q 832 255 822 268 Q 809 283 782 285 Q 731 288 690 258 C 666 241 658 229 688 229 Z" class="stroke14"/>
    <path d="M 551 156 L 559 174 Q 575 211 589 240 Q 596 253 582 263 Q 543 284 520 279 Q 511 275 515 263 Q 537 200 475 89 Q 466 86 447 46 Q 443 33 454 39 Q 491 51 541 136 L 551 156 Z" class="stroke15"/>
    <path d="M 541 136 Q 574 136 646 77 Q 645 77 646 76 Q 785 -26 831 -22 Q 834 -21 839 -20 Q 914 -5 972 14 Q 981 18 982 26 Q 983 33 967 32 Q 925 36 880 37 Q 796 43 680 102 L 645 122 Q 587 161 551 156 C 521 155 511 141 541 136 Z" class="stroke16"/>
    
    
    
    
    
    
    
    
    
    
    
    
    
    
    
    </g>
</svg>