<svg version="1.1" viewBox="0 0 1024 1024" xmlns="http://www.w3.org/2000/svg">
  
  <g transform="scale(1, -1) translate(0, -900)">
    <style type="text/css">
        .stroke1 {fill: #808080;}
        .stroke2 {fill: #808079;}
        .stroke3 {fill: #808078;}
        .stroke4 {fill: #808077;}
        .stroke5 {fill: #808076;}
        .stroke6 {fill: #808075;}
        .stroke7 {fill: #808074;}
        .stroke8 {fill: #808073;}
        .stroke9 {fill: #808072;}
        .stroke10 {fill: #808071;}
        .stroke11 {fill: #808070;}
        .stroke12 {fill: #808069;}
        .stroke13 {fill: #808068;}
        .stroke14 {fill: #808067;}
        .stroke15 {fill: #808066;}
        .stroke16 {fill: #808065;}
        .stroke17 {fill: #808064;}
        .stroke18 {fill: #808063;}
        .stroke19 {fill: #808062;}
        .stroke20 {fill: #808061;}
        text {
            font-family: Helvetica;
            font-size: 50px;
            fill: #808060;
            paint-order: stroke;
            stroke: #000000;
            stroke-width: 4px;
            stroke-linecap: butt;
            stroke-linejoin: miter;
            font-weight: 800;
        }
    </style>

    <path d="M 520 820 Q 548 802 578 780 Q 593 770 608 773 Q 618 774 621 788 Q 622 803 611 830 Q 596 857 508 865 Q 493 866 488 863 Q 484 859 487 847 Q 491 837 520 820 Z" class="stroke1"/>
    <path d="M 318 670 Q 354 655 396 663 Q 741 723 758 734 Q 765 741 762 749 Q 756 759 730 768 Q 702 775 675 765 Q 512 711 318 697 Q 314 697 312 695 C 283 690 290 680 318 670 Z" class="stroke2"/>
    <path d="M 238 413 Q 202 239 94 65 Q 90 58 87 53 Q 86 43 95 45 Q 122 48 198 169 Q 213 197 228 229 Q 291 379 304 562 Q 310 664 318 670 C 323 687 323 687 312 695 Q 297 708 273 719 Q 255 729 243 724 Q 233 717 239 705 Q 255 675 257 621 Q 256 605 255 586 Q 252 514 244 450 L 238 413 Z" class="stroke3"/>
    <path d="M 123 558 Q 156 513 187 497 Q 200 494 208 505 Q 214 515 212 529 Q 202 571 139 587 Q 136 588 135 589 Q 122 593 113 591 Q 109 590 110 580 Q 111 570 123 558 Z" class="stroke4"/>
    <path d="M 244 450 Q 81 339 55 332 Q 45 328 46 318 Q 47 306 58 302 Q 80 295 113 289 Q 123 289 130 300 Q 154 336 238 413 C 260 433 269 467 244 450 Z" class="stroke5"/>
    <path d="M 458 504 Q 485 513 516 520 Q 541 527 544 531 Q 551 537 547 543 Q 541 552 519 556 Q 488 560 463 544 L 421 529 Q 418 529 417 528 Q 383 518 344 513 Q 317 506 338 495 Q 363 483 421 494 L 458 504 Z" class="stroke6"/>
    <path d="M 345 411 Q 338 415 313 419 Q 304 422 302 418 Q 298 414 304 402 Q 323 365 335 303 Q 336 284 348 273 Q 361 257 365 268 Q 366 274 367 282 L 366 308 Q 356 366 354 388 C 352 408 352 408 345 411 Z" class="stroke7"/>
    <path d="M 543 336 Q 561 387 582 404 Q 594 417 583 430 Q 571 439 534 456 Q 521 462 505 455 Q 480 445 456 437 L 422 427 Q 382 418 345 411 C 316 405 325 382 354 388 Q 361 389 370 392 Q 395 398 422 402 L 456 410 Q 472 414 492 418 Q 508 422 514 416 Q 521 410 519 399 Q 515 368 508 342 C 501 313 533 308 543 336 Z" class="stroke8"/>
    <path d="M 454 297 Q 493 304 551 312 Q 560 313 560 320 Q 560 324 543 336 L 508 342 Q 501 342 455 328 L 421 320 Q 393 313 366 308 C 337 302 337 284 367 282 Q 376 281 386 283 Q 396 287 416 289 L 454 297 Z" class="stroke9"/>
    <path d="M 453 243 Q 453 268 454 297 L 455 328 Q 455 367 456 410 L 456 437 Q 456 471 458 504 L 463 544 Q 466 563 472 581 Q 479 593 476 604 Q 472 611 428 638 Q 409 651 393 639 Q 389 635 394 623 Q 421 584 421 529 L 421 494 Q 421 463 422 427 L 422 402 Q 421 362 421 320 L 419 219 Q 419 138 399 68 Q 390 38 411 -11 Q 415 -24 422 -27 Q 426 -31 432 -26 Q 439 -22 447 -6 Q 454 13 453 38 Q 452 63 453 222 L 453 243 Z" class="stroke10"/>
    <path d="M 416 289 Q 359 187 221 51 Q 215 44 225 41 Q 240 37 333 118 Q 376 155 419 219 C 475 301 431 315 416 289 Z" class="stroke11"/>
    <path d="M 453 222 Q 457 218 467 212 Q 533 167 536 167 Q 543 168 546 176 Q 547 186 541 204 Q 537 220 512 230 Q 470 243 453 243 C 428 244 430 242 453 222 Z" class="stroke12"/>
    <path d="M 675 614 Q 721 629 758 636 Q 771 637 773 634 Q 777 628 777 612 Q 777 566 768 544 Q 755 519 732 522 Q 714 525 699 530 Q 680 534 695 517 Q 726 489 740 466 Q 750 453 761 462 Q 800 486 822 595 Q 828 622 838 634 Q 848 644 843 652 Q 836 661 796 677 Q 784 683 752 666 Q 647 633 593 626 Q 580 625 579 618 Q 578 612 596 604 Q 615 594 629 599 Q 641 603 652 607 L 675 614 Z" class="stroke13"/>
    <path d="M 652 607 L 653 606 Q 653 605 654 603 Q 666 561 589 465 Q 585 461 585 457 Q 585 454 589 454 Q 638 473 686 555 Q 693 568 699 574 Q 703 581 698 590 Q 689 605 675 614 C 651 631 640 635 652 607 Z" class="stroke14"/>
    <path d="M 639 424 Q 633 430 614 438 Q 607 442 598 438 Q 595 437 601 414 Q 619 387 609 244 Q 606 232 604 219 Q 592 179 621 144 Q 628 134 637 144 Q 640 148 642 153 L 647 181 Q 647 190 648 241 L 648 265 Q 648 295 649 317 L 649 342 Q 650 402 651 403 C 652 415 652 415 639 424 Z" class="stroke15"/>
    <path d="M 790 173 Q 791 167 797 160 Q 807 138 814 139 Q 824 140 837 164 Q 849 183 847 200 Q 823 365 855 412 Q 862 422 856 430 Q 837 448 801 462 Q 791 466 773 460 Q 727 439 639 424 C 609 419 622 395 651 403 Q 715 421 763 430 Q 779 434 785 425 Q 797 412 797 361 Q 798 246 794 206 L 790 173 Z" class="stroke16"/>
    <path d="M 649 317 Q 649 318 650 318 Q 705 330 747 337 Q 765 341 757 350 Q 748 360 728 363 Q 701 366 649 342 C 622 330 622 305 649 317 Z" class="stroke17"/>
    <path d="M 648 241 Q 708 250 753 256 Q 772 259 765 270 Q 756 282 735 285 Q 704 288 648 265 C 620 254 618 237 648 241 Z" class="stroke18"/>
    <path d="M 642 153 Q 649 152 658 154 Q 701 164 790 173 C 820 176 822 194 794 206 Q 782 213 758 206 Q 697 190 647 181 C 617 176 612 155 642 153 Z" class="stroke19"/>
    <path d="M 637 110 Q 641 74 582 19 Q 566 3 526 -27 Q 519 -30 527 -33 Q 552 -40 621 5 Q 621 6 624 7 Q 646 23 684 58 Q 699 73 699 76 Q 695 98 668 113 Q 653 120 644 120 Q 637 120 637 110 Z" class="stroke20"/>
    <path d="M 769 88 Q 808 40 847 -15 Q 856 -28 869 -31 Q 878 -32 885 -23 Q 892 -11 891 15 Q 888 63 775 129 Q 762 136 756 135 Q 752 132 750 121 Q 751 111 769 88 Z" class="stroke21"/>
    
    
    
    
    
    
    
    
    
    
    
    
    
    
    
    
    
    
    
    
    </g>
</svg>