<svg version="1.1" viewBox="0 0 1024 1024" xmlns="http://www.w3.org/2000/svg">
  
  <g transform="scale(1, -1) translate(0, -900)">
    <style type="text/css">
        .stroke1 {fill: #808080;}
        .stroke2 {fill: #808079;}
        .stroke3 {fill: #808078;}
        .stroke4 {fill: #808077;}
        .stroke5 {fill: #808076;}
        .stroke6 {fill: #808075;}
        .stroke7 {fill: #808074;}
        .stroke8 {fill: #808073;}
        .stroke9 {fill: #808072;}
        .stroke10 {fill: #808071;}
        .stroke11 {fill: #808070;}
        .stroke12 {fill: #808069;}
        .stroke13 {fill: #808068;}
        .stroke14 {fill: #808067;}
        .stroke15 {fill: #808066;}
        .stroke16 {fill: #808065;}
        .stroke17 {fill: #808064;}
        .stroke18 {fill: #808063;}
        .stroke19 {fill: #808062;}
        .stroke20 {fill: #808061;}
        text {
            font-family: Helvetica;
            font-size: 50px;
            fill: #808060;
            paint-order: stroke;
            stroke: #000000;
            stroke-width: 4px;
            stroke-linecap: butt;
            stroke-linejoin: miter;
            font-weight: 800;
        }
    </style>

    <path d="M 202 556 Q 230 598 289 694 Q 301 713 318 731 Q 334 747 318 759 Q 302 769 273 774 Q 248 778 237 771 Q 227 767 235 755 Q 250 728 212 637 Q 194 595 176 549 C 165 521 185 531 202 556 Z" class="stroke1"/>
    <path d="M 167 547 Q 158 556 135 564 Q 126 568 116 564 Q 109 560 115 549 Q 115 543 121 534 Q 145 471 129 315 Q 107 246 147 205 Q 157 192 166 204 Q 173 216 176 229 L 178 265 Q 178 320 178 377 L 178 410 Q 178 462 179 516 C 179 538 179 538 167 547 Z" class="stroke2"/>
    <path d="M 283 245 Q 305 214 323 184 Q 330 168 341 168 Q 356 169 370 198 Q 388 232 385 274 Q 381 349 379 489 Q 378 517 392 536 Q 399 546 392 556 Q 376 572 329 593 Q 313 602 300 593 Q 254 568 202 556 L 176 549 Q 172 548 167 547 C 138 540 150 507 179 516 Q 308 555 319 547 Q 337 529 327 344 Q 326 293 321 278 Q 317 266 309 267 C 287 246 282 247 283 245 Z" class="stroke3"/>
    <path d="M 178 377 Q 235 387 279 391 Q 301 395 293 408 Q 283 423 257 427 Q 206 430 178 410 C 153 393 148 372 178 377 Z" class="stroke4"/>
    <path d="M 176 229 Q 212 239 283 245 C 313 248 329 249 309 267 Q 302 274 288 282 Q 281 286 267 285 Q 266 286 269 285 Q 270 285 267 285 Q 264 285 178 265 C 149 258 147 221 176 229 Z" class="stroke5"/>
    <path d="M 662 618 Q 681 768 695 800 Q 698 810 680 825 Q 647 844 625 848 Q 609 852 602 844 Q 595 837 602 823 Q 615 804 616 791 Q 623 707 621 610 C 620 580 658 588 662 618 Z" class="stroke6"/>
    <path d="M 770 637 Q 712 630 662 618 L 621 610 Q 569 600 523 585 Q 505 581 510 602 Q 522 675 513 691 Q 500 707 478 720 Q 468 724 458 723 Q 448 719 455 702 Q 471 662 465 623 Q 461 586 445 569 Q 429 553 435 540 Q 445 525 461 516 Q 473 509 482 516 Q 506 546 681 589 Q 738 602 761 601 C 791 602 800 641 770 637 Z" class="stroke7"/>
    <path d="M 761 601 Q 761 579 766 563 Q 772 547 785 554 Q 812 575 832 649 Q 856 701 864 709 Q 874 721 867 735 Q 852 754 826 777 Q 816 786 804 782 Q 797 781 796 767 Q 808 749 794 691 Q 784 657 770 637 C 761 622 761 622 761 601 Z" class="stroke8"/>
    <path d="M 507 462 Q 474 455 498 441 Q 540 420 588 435 Q 655 451 727 469 Q 758 478 764 482 Q 771 489 767 497 Q 760 507 733 513 Q 705 517 679 506 Q 642 493 603 481 Q 560 469 507 462 Z" class="stroke9"/>
    <path d="M 509 357 Q 496 361 470 362 Q 460 363 457 358 Q 451 352 461 339 Q 486 302 509 236 Q 515 217 528 204 Q 547 188 549 202 Q 550 208 550 216 L 545 247 Q 529 304 524 327 C 518 355 518 355 509 357 Z" class="stroke10"/>
    <path d="M 746 272 Q 771 323 801 339 Q 817 355 804 373 Q 789 386 742 411 Q 726 418 705 412 Q 642 385 509 357 C 480 351 495 320 524 327 Q 527 328 690 365 Q 709 371 717 363 Q 723 354 697 279 C 687 251 732 245 746 272 Z" class="stroke11"/>
    <path d="M 725 241 Q 738 242 753 244 Q 763 245 764 253 Q 764 260 746 272 L 697 279 Q 694 280 692 279 Q 611 258 545 247 C 515 242 520 214 550 216 Q 554 216 560 217 Q 606 227 695 237 L 725 241 Z" class="stroke12"/>
    <path d="M 502 130 Q 535 79 548 76 Q 558 75 565 85 Q 572 98 570 126 Q 567 147 508 174 Q 495 180 488 179 Q 484 176 482 164 Q 483 154 502 130 Z" class="stroke13"/>
    <path d="M 687 68 Q 711 104 737 148 Q 746 164 761 183 Q 774 193 767 204 Q 758 220 730 238 Q 727 239 725 241 C 699 257 689 263 695 237 Q 694 234 698 228 Q 705 197 665 89 Q 658 76 656 65 C 649 36 670 43 687 68 Z" class="stroke14"/>
    <path d="M 656 65 Q 500 49 345 34 Q 324 33 339 15 Q 352 0 371 -5 Q 392 -12 408 -7 Q 636 47 933 28 Q 952 28 958 36 Q 964 48 948 62 Q 891 107 850 93 Q 784 83 687 68 L 656 65 Z" class="stroke15"/>
    
    
    
    
    
    
    
    
    
    
    
    
    
    
    </g>
</svg>