<svg version="1.1" viewBox="0 0 1024 1024" xmlns="http://www.w3.org/2000/svg">
  
  <g transform="scale(1, -1) translate(0, -900)">
    <style type="text/css">
        .stroke1 {fill: #808080;}
        .stroke2 {fill: #808079;}
        .stroke3 {fill: #808078;}
        .stroke4 {fill: #808077;}
        .stroke5 {fill: #808076;}
        .stroke6 {fill: #808075;}
        .stroke7 {fill: #808074;}
        .stroke8 {fill: #808073;}
        .stroke9 {fill: #808072;}
        .stroke10 {fill: #808071;}
        .stroke11 {fill: #808070;}
        .stroke12 {fill: #808069;}
        .stroke13 {fill: #808068;}
        .stroke14 {fill: #808067;}
        .stroke15 {fill: #808066;}
        .stroke16 {fill: #808065;}
        .stroke17 {fill: #808064;}
        .stroke18 {fill: #808063;}
        .stroke19 {fill: #808062;}
        .stroke20 {fill: #808061;}
        text {
            font-family: Helvetica;
            font-size: 50px;
            fill: #808060;
            paint-order: stroke;
            stroke: #000000;
            stroke-width: 4px;
            stroke-linecap: butt;
            stroke-linejoin: miter;
            font-weight: 800;
        }
    </style>

    <path d="M 272 679 Q 300 655 331 626 Q 346 613 361 614 Q 371 615 377 628 Q 381 644 372 673 Q 360 706 266 727 Q 250 730 244 727 Q 240 723 241 710 Q 245 700 272 679 Z" class="stroke1"/>
    <path d="M 202 386 Q 189 382 194 366 Q 201 348 231 340 Q 262 327 277 331 Q 287 335 291 359 Q 313 407 372 508 Q 378 515 373 522 Q 369 525 362 519 Q 244 402 225 393 Q 219 393 202 386 Z" class="stroke2"/>
    <path d="M 510 666 Q 529 697 553 736 Q 565 763 577 775 Q 584 785 580 798 Q 574 808 547 827 Q 522 840 504 839 Q 488 836 497 817 Q 515 790 467 683 Q 445 635 411 580 Q 404 570 402 565 Q 399 555 412 558 Q 436 564 495 645 L 510 666 Z" class="stroke3"/>
    <path d="M 495 645 Q 514 624 554 639 Q 674 684 704 675 Q 716 665 711 658 Q 711 655 668 583 Q 661 574 665 568 Q 669 564 680 574 Q 776 635 818 650 Q 828 651 829 660 Q 830 673 803 688 Q 782 701 761 715 Q 734 731 720 724 Q 641 691 510 666 C 481 660 476 659 495 645 Z" class="stroke4"/>
    <path d="M 570 490 Q 585 530 598 548 Q 608 563 595 574 Q 582 589 568 596 Q 549 612 532 608 Q 519 607 522 591 Q 541 551 500 455 Q 457 368 358 322 Q 345 315 356 311 Q 437 305 513 383 Q 513 384 515 386 Q 549 435 562 466 L 570 490 Z" class="stroke5"/>
    <path d="M 562 466 Q 620 399 684 334 Q 708 313 745 314 Q 814 314 883 332 Q 902 336 903 340 Q 904 347 890 352 Q 719 397 654 434 Q 635 446 615 459 Q 585 481 570 490 C 545 506 542 489 562 466 Z" class="stroke6"/>
    <path d="M 313 240 Q 301 244 275 248 Q 262 252 259 246 Q 252 239 262 223 Q 289 171 307 83 Q 310 62 322 46 C 339 21 356 18 354 48 Q 354 63 334 205 C 330 235 330 235 313 240 Z" class="stroke7"/>
    <path d="M 710 80 Q 740 179 768 216 Q 778 226 775 239 Q 768 255 708 287 Q 692 296 677 291 Q 512 260 313 240 C 283 237 305 198 334 205 Q 353 211 418 222 L 446 227 Q 492 236 543 242 L 587 247 Q 650 265 674 248 Q 681 244 679 225 Q 669 161 646 73 C 639 44 701 51 710 80 Z" class="stroke8"/>
    <path d="M 471 56 Q 471 57 472 59 Q 481 122 450 218 Q 449 224 446 227 C 431 253 418 252 418 222 Q 418 90 446 54 C 463 29 464 28 471 56 Z" class="stroke9"/>
    <path d="M 560 64 Q 572 91 596 163 Q 602 182 614 207 Q 624 220 615 228 Q 606 238 587 247 C 560 260 528 268 543 242 Q 543 241 546 237 Q 564 204 536 80 Q 535 71 534 62 C 531 32 548 36 560 64 Z" class="stroke10"/>
    <path d="M 322 46 Q 238 42 151 35 Q 129 34 144 15 Q 157 -1 177 -8 Q 199 -15 217 -11 Q 454 40 866 17 Q 887 16 893 25 Q 900 38 883 53 Q 820 102 754 86 Q 733 85 710 80 L 646 73 Q 606 70 560 64 L 534 62 Q 518 62 501 59 Q 486 58 471 56 L 446 54 Q 400 53 354 48 L 322 46 Z" class="stroke11"/>
    
    
    
    
    
    
    
    
    
    
    </g>
</svg>