<svg version="1.1" viewBox="0 0 1024 1024" xmlns="http://www.w3.org/2000/svg">
  
  <g transform="scale(1, -1) translate(0, -900)">
    <style type="text/css">
        .stroke1 {fill: #808080;}
        .stroke2 {fill: #808079;}
        .stroke3 {fill: #808078;}
        .stroke4 {fill: #808077;}
        .stroke5 {fill: #808076;}
        .stroke6 {fill: #808075;}
        .stroke7 {fill: #808074;}
        .stroke8 {fill: #808073;}
        .stroke9 {fill: #808072;}
        .stroke10 {fill: #808071;}
        .stroke11 {fill: #808070;}
        .stroke12 {fill: #808069;}
        .stroke13 {fill: #808068;}
        .stroke14 {fill: #808067;}
        .stroke15 {fill: #808066;}
        .stroke16 {fill: #808065;}
        .stroke17 {fill: #808064;}
        .stroke18 {fill: #808063;}
        .stroke19 {fill: #808062;}
        .stroke20 {fill: #808061;}
        text {
            font-family: Helvetica;
            font-size: 50px;
            fill: #808060;
            paint-order: stroke;
            stroke: #000000;
            stroke-width: 4px;
            stroke-linecap: butt;
            stroke-linejoin: miter;
            font-weight: 800;
        }
    </style>

    <path d="M 322 701 Q 418 836 423 840 Q 436 853 423 864 Q 408 874 383 878 Q 361 882 352 876 Q 342 872 349 862 Q 359 844 325 749 Q 316 727 306 700 Q 305 700 305 699 C 292 672 305 677 322 701 Z" class="stroke1"/>
    <path d="M 305 699 Q 305 700 304 700 Q 264 718 251 715 Q 235 711 249 693 Q 271 662 270 523 L 267 482 Q 249 376 192 308 Q 156 268 155 266 Q 154 260 164 261 Q 197 264 245 323 Q 308 402 309 496 L 312 532 Q 315 584 315 650 Q 316 663 317 672 C 319 692 319 692 305 699 Z" class="stroke2"/>
    <path d="M 434 534 Q 435 375 424 359 Q 418 355 369 363 Q 353 369 353 360 Q 395 321 417 293 Q 427 277 441 273 Q 448 270 456 278 Q 492 320 490 366 Q 483 439 479 548 L 479 570 Q 473 657 487 685 Q 497 701 487 710 Q 469 725 438 737 Q 422 743 410 738 Q 376 716 322 701 C 293 692 278 658 317 672 Q 320 675 403 697 Q 416 701 424 696 Q 430 690 434 560 L 434 534 Z" class="stroke3"/>
    <path d="M 339 620 Q 360 584 378 573 Q 388 569 396 577 Q 402 586 402 598 Q 401 616 389 627 Q 356 654 334 650 Q 330 649 329 640 Q 329 633 339 620 Z" class="stroke4"/>
    <path d="M 309 496 Q 361 514 434 534 L 479 548 Q 486 551 496 553 Q 512 557 519 563 Q 528 570 517 575 Q 502 578 479 570 L 434 560 Q 373 547 312 532 L 270 523 Q 224 516 178 503 Q 145 497 77 504 Q 65 505 61 494 Q 57 482 68 474 Q 98 449 111 440 Q 126 431 147 441 Q 178 454 267 482 L 309 496 Z" class="stroke5"/>
    <path d="M 339 452 Q 360 419 378 408 Q 388 404 396 413 Q 402 422 401 434 Q 400 452 387 463 Q 357 487 333 482 Q 329 481 330 472 Q 330 465 339 452 Z" class="stroke6"/>
    <path d="M 616 777 Q 606 781 594 781 Q 575 784 569 780 Q 560 773 566 763 Q 605 681 535 545 Q 531 538 537 537 Q 555 537 592 595 Q 626 649 627 742 Q 627 745 628 746 Q 627 747 629 747 C 636 771 636 771 616 777 Z" class="stroke7"/>
    <path d="M 629 747 Q 699 774 702 773 Q 709 772 709 759 Q 700 660 703 648 Q 707 626 728 611 Q 756 593 813 593 Q 868 593 897 607 Q 910 611 903 626 Q 890 642 875 651 Q 865 657 844 649 Q 813 636 775 638 Q 751 639 744 658 Q 737 673 748 714 Q 752 739 779 763 Q 795 776 779 789 Q 760 807 736 817 Q 727 821 713 813 Q 694 804 616 777 C 588 767 601 736 629 747 Z" class="stroke8"/>
    <path d="M 732 403 Q 757 434 779 480 Q 791 505 809 520 Q 827 533 816 546 Q 806 556 778 568 Q 757 575 733 565 Q 711 556 682 548 Q 652 541 603 535 Q 591 535 587 528 Q 583 522 599 515 Q 630 502 674 514 Q 708 529 716 529 Q 735 525 729 505 Q 716 459 695 427 L 675 401 Q 632 359 544 334 Q 531 331 542 323 Q 546 320 576 322 Q 615 325 659 346 Q 684 358 705 374 L 732 403 Z" class="stroke9"/>
    <path d="M 705 374 Q 753 335 831 290 Q 858 275 892 288 Q 937 304 969 316 Q 979 319 989 326 Q 993 333 983 337 Q 970 341 867 353 Q 806 359 732 403 L 695 427 Q 661 452 621 483 Q 602 499 574 498 Q 564 497 557 490 Q 554 483 563 479 Q 593 469 675 401 L 705 374 Z" class="stroke10"/>
    <path d="M 307 245 Q 297 248 282 249 Q 269 252 265 246 Q 258 239 268 222 Q 298 167 317 74 Q 318 56 327 42 C 342 16 368 15 367 45 Q 367 61 364 82 Q 348 175 344 205 C 340 235 336 238 307 245 Z" class="stroke11"/>
    <path d="M 717 73 Q 750 175 783 204 Q 805 228 776 247 Q 751 269 722 286 Q 707 298 653 281 Q 325 242 307 245 C 277 244 315 198 344 205 Q 344 206 347 206 Q 381 213 410 218 L 431 221 Q 468 230 536 233 L 582 236 Q 619 240 666 242 Q 681 243 686 235 Q 701 211 654 66 C 645 37 707 45 717 73 Z" class="stroke12"/>
    <path d="M 468 51 Q 477 84 447 191 Q 444 210 431 221 C 409 242 405 246 410 218 Q 410 217 411 212 Q 412 199 415 187 Q 415 84 449 49 C 464 32 464 32 468 51 Z" class="stroke13"/>
    <path d="M 553 57 Q 562 72 590 150 Q 596 169 609 193 Q 621 206 611 215 Q 602 225 582 236 C 556 251 523 260 536 233 Q 536 232 539 227 Q 551 203 522 55 C 516 26 539 30 553 57 Z" class="stroke14"/>
    <path d="M 327 42 Q 230 39 127 32 Q 105 31 120 11 Q 135 -5 154 -13 Q 176 -20 195 -16 Q 444 35 917 12 Q 939 11 945 20 Q 952 33 934 49 Q 874 98 808 85 Q 766 81 717 73 L 654 66 Q 606 63 553 57 L 522 55 Q 519 56 518 55 Q 493 54 468 51 L 449 49 Q 409 48 367 45 L 327 42 Z" class="stroke15"/>
    
    
    
    
    
    
    
    
    
    
    
    
    
    
    </g>
</svg>