<svg version="1.1" viewBox="0 0 1024 1024" xmlns="http://www.w3.org/2000/svg">
  
  <g transform="scale(1, -1) translate(0, -900)">
    <style type="text/css">
        .stroke1 {fill: #808080;}
        .stroke2 {fill: #808079;}
        .stroke3 {fill: #808078;}
        .stroke4 {fill: #808077;}
        .stroke5 {fill: #808076;}
        .stroke6 {fill: #808075;}
        .stroke7 {fill: #808074;}
        .stroke8 {fill: #808073;}
        .stroke9 {fill: #808072;}
        .stroke10 {fill: #808071;}
        .stroke11 {fill: #808070;}
        .stroke12 {fill: #808069;}
        .stroke13 {fill: #808068;}
        .stroke14 {fill: #808067;}
        .stroke15 {fill: #808066;}
        .stroke16 {fill: #808065;}
        .stroke17 {fill: #808064;}
        .stroke18 {fill: #808063;}
        .stroke19 {fill: #808062;}
        .stroke20 {fill: #808061;}
        text {
            font-family: Helvetica;
            font-size: 50px;
            fill: #808060;
            paint-order: stroke;
            stroke: #000000;
            stroke-width: 4px;
            stroke-linecap: butt;
            stroke-linejoin: miter;
            font-weight: 800;
        }
    </style>

    <path d="M 172 679 Q 163 688 136 700 Q 126 704 113 700 Q 106 694 111 681 Q 138 605 138 478 Q 138 301 117 215 Q 102 158 140 110 Q 152 95 163 109 Q 175 125 176 145 L 179 183 Q 179 199 180 330 L 181 364 Q 181 419 182 463 L 183 497 Q 184 621 186 633 Q 187 643 187 650 C 188 668 188 668 172 679 Z" class="stroke1"/>
    <path d="M 293 160 Q 306 139 320 119 Q 336 94 345 96 Q 358 99 375 136 Q 391 179 386 232 Q 361 610 391 668 Q 403 687 393 699 Q 386 709 331 725 Q 306 734 286 723 Q 225 692 172 679 C 143 671 158 642 187 650 Q 211 656 266 675 Q 297 685 309 676 Q 325 661 325 600 Q 329 348 317 210 Q 321 185 298 188 C 281 179 281 179 293 160 Z" class="stroke2"/>
    <path d="M 182 463 Q 231 476 270 484 Q 292 490 282 501 Q 270 514 246 515 Q 225 515 183 497 C 155 485 153 455 182 463 Z" class="stroke3"/>
    <path d="M 180 330 Q 180 331 183 331 Q 235 343 274 350 Q 296 357 286 369 Q 273 382 248 383 Q 200 383 181 364 C 159 344 151 321 180 330 Z" class="stroke4"/>
    <path d="M 176 145 Q 213 154 293 160 C 323 162 324 173 298 188 Q 291 192 281 199 Q 263 208 179 183 C 150 175 147 138 176 145 Z" class="stroke5"/>
    <path d="M 684 632 Q 768 644 893 646 Q 948 646 956 656 Q 962 669 944 682 Q 889 719 854 709 Q 728 678 428 631 Q 407 628 423 611 Q 453 584 502 596 Q 560 614 629 623 L 684 632 Z" class="stroke6"/>
    <path d="M 595 96 Q 570 103 537 112 Q 524 116 525 108 Q 525 99 536 90 Q 606 35 650 -9 Q 663 -19 677 -2 Q 719 58 713 137 Q 700 437 709 555 Q 709 564 710 572 Q 716 600 709 611 Q 702 621 684 632 C 660 650 618 651 629 623 Q 644 592 645 549 Q 648 425 648 144 Q 647 108 637 96 Q 624 89 595 96 Z" class="stroke7"/>
    
    
    
    
    
    
    </g>
</svg>