<svg version="1.1" viewBox="0 0 1024 1024" xmlns="http://www.w3.org/2000/svg">
  
  <g transform="scale(1, -1) translate(0, -900)">
    <style type="text/css">
        .stroke1 {fill: #808080;}
        .stroke2 {fill: #808079;}
        .stroke3 {fill: #808078;}
        .stroke4 {fill: #808077;}
        .stroke5 {fill: #808076;}
        .stroke6 {fill: #808075;}
        .stroke7 {fill: #808074;}
        .stroke8 {fill: #808073;}
        .stroke9 {fill: #808072;}
        .stroke10 {fill: #808071;}
        .stroke11 {fill: #808070;}
        .stroke12 {fill: #808069;}
        .stroke13 {fill: #808068;}
        .stroke14 {fill: #808067;}
        .stroke15 {fill: #808066;}
        .stroke16 {fill: #808065;}
        .stroke17 {fill: #808064;}
        .stroke18 {fill: #808063;}
        .stroke19 {fill: #808062;}
        .stroke20 {fill: #808061;}
        text {
            font-family: Helvetica;
            font-size: 50px;
            fill: #808060;
            paint-order: stroke;
            stroke: #000000;
            stroke-width: 4px;
            stroke-linecap: butt;
            stroke-linejoin: miter;
            font-weight: 800;
        }
    </style>

    <path d="M 161 670 Q 146 685 124 692 Q 114 696 102 693 Q 95 689 101 675 Q 102 665 107 655 Q 106 652 109 649 Q 134 597 116 322 Q 112 282 100 236 Q 91 202 98 178 Q 107 151 121 134 Q 131 121 143 133 Q 153 146 155 163 L 159 196 Q 160 221 161 258 Q 161 303 162 342 L 163 371 Q 164 432 166 478 L 167 505 Q 170 616 172 628 Q 173 635 173 642 C 174 659 174 659 161 670 Z" class="stroke1"/>
    <path d="M 269 171 Q 281 152 293 134 Q 309 109 317 112 Q 330 115 346 151 Q 361 191 356 243 Q 349 346 346 572 Q 346 630 361 661 Q 371 680 363 690 Q 356 700 303 715 Q 278 722 261 712 Q 207 684 161 670 C 133 661 145 631 173 642 Q 172 643 174 643 Q 204 653 240 667 Q 271 679 283 669 Q 299 654 298 596 Q 302 355 290 221 Q 293 202 279 200 C 265 178 265 178 269 171 Z" class="stroke2"/>
    <path d="M 166 478 Q 167 478 170 478 Q 222 490 262 497 Q 283 503 274 513 Q 264 526 240 527 Q 207 530 167 505 C 141 489 136 478 166 478 Z" class="stroke3"/>
    <path d="M 162 342 Q 166 342 257 360 Q 279 366 270 377 Q 258 390 234 392 Q 188 395 163 371 C 141 351 132 338 162 342 Z" class="stroke4"/>
    <path d="M 155 163 Q 159 163 164 163 Q 198 170 269 171 C 299 171 302 180 279 200 Q 275 204 268 208 Q 253 217 224 210 Q 190 203 159 196 C 130 189 125 163 155 163 Z" class="stroke5"/>
    <path d="M 467 634 Q 485 607 434 499 Q 410 450 376 395 Q 367 386 366 380 Q 365 370 376 374 Q 412 380 511 538 Q 523 571 544 593 Q 551 603 546 614 Q 542 626 515 643 Q 490 656 474 655 Q 458 652 467 634 Z" class="stroke6"/>
    <path d="M 540 793 Q 589 759 610 715 Q 679 550 774 434 Q 786 419 865 414 Q 904 414 964 414 Q 992 414 992 422 Q 992 429 967 439 Q 814 500 756 566 Q 704 621 622 768 Q 603 802 567 807 Q 540 811 538 804 Q 534 797 540 793 Z" class="stroke7"/>
    <path d="M 535 336 Q 607 358 666 368 Q 685 371 690 366 Q 702 347 693 301 Q 675 172 643 117 Q 627 87 601 92 Q 570 102 543 116 Q 519 125 535 101 Q 584 55 608 18 Q 630 -6 650 15 Q 683 39 705 81 Q 730 132 747 285 Q 753 340 772 366 Q 784 379 777 389 Q 768 399 718 421 Q 697 428 679 416 Q 658 401 574 380 Q 489 355 417 348 Q 401 347 398 338 Q 397 331 420 320 Q 444 307 463 314 Q 479 320 499 325 L 535 336 Z" class="stroke8"/>
    <path d="M 499 325 Q 512 289 477 218 Q 438 131 342 19 Q 335 15 336 8 Q 336 4 341 3 Q 410 13 530 205 Q 563 265 571 275 Q 578 285 569 299 Q 554 323 535 336 C 511 355 492 354 499 325 Z" class="stroke9"/>
    
    
    
    
    
    
    
    
    </g>
</svg>