<svg version="1.1" viewBox="0 0 1024 1024" xmlns="http://www.w3.org/2000/svg">
  
  <g transform="scale(1, -1) translate(0, -900)">
    <style type="text/css">
        .stroke1 {fill: #808080;}
        .stroke2 {fill: #808079;}
        .stroke3 {fill: #808078;}
        .stroke4 {fill: #808077;}
        .stroke5 {fill: #808076;}
        .stroke6 {fill: #808075;}
        .stroke7 {fill: #808074;}
        .stroke8 {fill: #808073;}
        .stroke9 {fill: #808072;}
        .stroke10 {fill: #808071;}
        .stroke11 {fill: #808070;}
        .stroke12 {fill: #808069;}
        .stroke13 {fill: #808068;}
        .stroke14 {fill: #808067;}
        .stroke15 {fill: #808066;}
        .stroke16 {fill: #808065;}
        .stroke17 {fill: #808064;}
        .stroke18 {fill: #808063;}
        .stroke19 {fill: #808062;}
        .stroke20 {fill: #808061;}
        text {
            font-family: Helvetica;
            font-size: 50px;
            fill: #808060;
            paint-order: stroke;
            stroke: #000000;
            stroke-width: 4px;
            stroke-linecap: butt;
            stroke-linejoin: miter;
            font-weight: 800;
        }
    </style>

    <path d="M 163 659 Q 153 669 133 676 Q 123 680 111 676 Q 104 672 109 658 Q 131 604 136 469 Q 136 298 118 223 Q 103 169 141 121 Q 151 108 163 121 Q 173 136 175 154 L 177 187 Q 177 203 178 321 L 178 353 Q 178 413 178 458 L 179 488 Q 179 600 181 612 Q 182 625 182 633 C 183 645 183 645 163 659 Z" class="stroke1"/>
    <path d="M 301 162 Q 311 149 320 133 Q 338 109 345 112 Q 358 115 372 150 Q 387 190 382 239 Q 355 594 382 645 Q 392 664 384 675 Q 377 685 325 701 Q 300 711 283 700 Q 217 672 163 659 C 134 651 153 625 182 633 Q 185 634 190 636 Q 221 643 259 654 Q 292 664 304 653 Q 319 638 319 582 Q 326 350 317 221 Q 318 205 312 200 C 305 171 299 165 301 162 Z" class="stroke2"/>
    <path d="M 178 458 Q 181 458 276 473 Q 301 480 290 492 Q 277 505 250 508 Q 225 509 183 492 Q 180 491 179 488 C 161 464 154 455 178 458 Z" class="stroke3"/>
    <path d="M 178 321 Q 177 322 180 322 Q 235 332 276 339 Q 300 345 290 356 Q 278 369 252 373 Q 212 376 178 353 C 153 337 150 310 178 321 Z" class="stroke4"/>
    <path d="M 175 154 Q 217 161 301 162 C 331 162 338 185 312 200 Q 297 210 269 204 Q 220 194 177 187 C 147 182 145 149 175 154 Z" class="stroke5"/>
    <path d="M 568 774 Q 613 707 592 449 Q 586 389 602 355 L 604 352 Q 614 334 631 344 Q 646 357 642 459 Q 639 669 673 735 Q 680 745 667 761 Q 607 807 576 796 Q 561 790 568 774 Z" class="stroke6"/>
    <path d="M 472 542 Q 453 490 424 444 Q 405 411 425 380 Q 432 364 452 376 Q 498 412 499 488 Q 503 519 495 543 Q 491 550 484 552 Q 477 551 472 542 Z" class="stroke7"/>
    <path d="M 770 583 Q 819 537 879 468 Q 895 446 912 442 Q 921 441 929 451 Q 942 464 930 511 Q 918 563 771 616 Q 761 622 759 609 Q 758 594 770 583 Z" class="stroke8"/>
    <path d="M 709 463 Q 710 289 529 111 Q 525 110 522 105 Q 471 53 345 -34 Q 335 -43 343 -47 Q 352 -51 366 -46 Q 454 -16 528 38 Q 604 87 652 156 Q 707 223 762 340 Q 780 376 802 408 Q 812 420 807 433 Q 800 446 763 470 Q 738 488 725 485 Q 709 482 709 463 Z" class="stroke9"/>
    
    
    
    
    
    
    
    
    </g>
</svg>