<svg version="1.1" viewBox="0 0 1024 1024" xmlns="http://www.w3.org/2000/svg">
  
  <g transform="scale(1, -1) translate(0, -900)">
    <style type="text/css">
        .stroke1 {fill: #808080;}
        .stroke2 {fill: #808079;}
        .stroke3 {fill: #808078;}
        .stroke4 {fill: #808077;}
        .stroke5 {fill: #808076;}
        .stroke6 {fill: #808075;}
        .stroke7 {fill: #808074;}
        .stroke8 {fill: #808073;}
        .stroke9 {fill: #808072;}
        .stroke10 {fill: #808071;}
        .stroke11 {fill: #808070;}
        .stroke12 {fill: #808069;}
        .stroke13 {fill: #808068;}
        .stroke14 {fill: #808067;}
        .stroke15 {fill: #808066;}
        .stroke16 {fill: #808065;}
        .stroke17 {fill: #808064;}
        .stroke18 {fill: #808063;}
        .stroke19 {fill: #808062;}
        .stroke20 {fill: #808061;}
        text {
            font-family: Helvetica;
            font-size: 50px;
            fill: #808060;
            paint-order: stroke;
            stroke: #000000;
            stroke-width: 4px;
            stroke-linecap: butt;
            stroke-linejoin: miter;
            font-weight: 800;
        }
    </style>

    <path d="M 730 652 Q 760 721 796 746 Q 815 765 800 785 Q 731 848 686 833 Q 548 784 375 766 C 345 763 361 724 390 730 Q 481 748 515 753 L 551 759 Q 600 769 651 778 Q 682 785 694 772 Q 701 763 699 746 Q 686 697 672 656 C 663 628 718 625 730 652 Z" class="stroke1"/>
    <path d="M 515 753 Q 518 741 506 620 C 503 590 542 599 548 628 Q 563 706 567 713 Q 577 731 551 759 C 531 781 512 783 515 753 Z" class="stroke2"/>
    <path d="M 353 569 Q 366 560 390 563 Q 502 591 743 616 Q 753 617 756 626 Q 756 635 730 652 C 711 665 701 663 672 656 Q 606 641 548 628 L 506 620 Q 425 607 359 597 C 329 592 326 581 353 569 Z" class="stroke3"/>
    <path d="M 375 766 Q 362 778 342 788 Q 323 801 309 797 Q 296 790 302 776 Q 320 748 314 685 Q 280 445 222 314 Q 173 206 69 71 Q 63 65 61 59 Q 57 47 69 49 Q 105 55 199 177 Q 218 207 239 241 Q 312 373 353 569 L 359 597 Q 359 603 361 608 Q 376 705 390 730 C 397 749 397 749 375 766 Z" class="stroke4"/>
    <path d="M 442 466 Q 435 475 405 489 Q 395 493 384 490 Q 377 486 382 473 Q 403 400 398 255 Q 395 236 395 212 Q 394 164 378 108 Q 363 54 398 10 Q 408 -3 419 8 Q 432 24 432 46 L 436 82 Q 437 98 437 117 Q 438 150 439 178 L 440 207 Q 441 261 444 300 L 445 328 Q 448 430 451 432 C 454 456 454 456 442 466 Z" class="stroke5"/>
    <path d="M 619 64 Q 647 27 668 -7 Q 678 -26 688 -25 Q 704 -24 721 10 Q 739 47 735 94 Q 728 200 723 397 Q 722 428 738 450 Q 748 463 739 473 Q 720 492 668 516 Q 650 525 635 516 Q 569 486 442 466 C 412 461 422 426 451 432 Q 464 435 483 439 Q 556 452 618 466 Q 642 470 655 461 Q 682 434 664 97 Q 658 81 646 85 C 621 69 617 66 619 64 Z" class="stroke6"/>
    <path d="M 444 300 Q 448 300 454 300 Q 539 316 603 327 Q 627 331 617 344 Q 607 359 581 362 Q 550 365 445 328 C 417 318 414 300 444 300 Z" class="stroke7"/>
    <path d="M 439 178 Q 454 184 610 204 Q 634 208 625 220 Q 615 235 589 240 Q 568 243 440 207 C 411 199 410 170 439 178 Z" class="stroke8"/>
    <path d="M 432 46 Q 435 46 439 46 Q 497 59 619 64 C 649 65 667 66 646 85 Q 639 92 622 104 Q 606 114 575 107 Q 499 91 436 82 C 406 78 402 46 432 46 Z" class="stroke9"/>
    
    
    
    
    
    
    
    
    </g>
</svg>