<svg version="1.1" viewBox="0 0 1024 1024" xmlns="http://www.w3.org/2000/svg">
  
  <g transform="scale(1, -1) translate(0, -900)">
    <style type="text/css">
        .stroke1 {fill: #808080;}
        .stroke2 {fill: #808079;}
        .stroke3 {fill: #808078;}
        .stroke4 {fill: #808077;}
        .stroke5 {fill: #808076;}
        .stroke6 {fill: #808075;}
        .stroke7 {fill: #808074;}
        .stroke8 {fill: #808073;}
        .stroke9 {fill: #808072;}
        .stroke10 {fill: #808071;}
        .stroke11 {fill: #808070;}
        .stroke12 {fill: #808069;}
        .stroke13 {fill: #808068;}
        .stroke14 {fill: #808067;}
        .stroke15 {fill: #808066;}
        .stroke16 {fill: #808065;}
        .stroke17 {fill: #808064;}
        .stroke18 {fill: #808063;}
        .stroke19 {fill: #808062;}
        .stroke20 {fill: #808061;}
        text {
            font-family: Helvetica;
            font-size: 50px;
            fill: #808060;
            paint-order: stroke;
            stroke: #000000;
            stroke-width: 4px;
            stroke-linecap: butt;
            stroke-linejoin: miter;
            font-weight: 800;
        }
    </style>

    <path d="M 174 673 Q 162 685 140 692 Q 130 696 119 692 Q 112 688 117 674 Q 144 596 145 464 Q 145 281 122 191 Q 109 134 145 89 Q 155 76 167 89 Q 179 104 180 130 L 183 161 Q 183 177 184 314 L 184 345 Q 185 409 186 458 L 186 489 Q 187 615 189 628 Q 190 638 190 645 C 191 661 191 661 174 673 Z" class="stroke1"/>
    <path d="M 289 140 Q 301 122 312 105 Q 330 81 337 84 Q 350 87 366 125 Q 382 167 376 220 Q 345 596 374 653 Q 384 672 376 683 Q 369 693 317 710 Q 292 719 275 708 Q 220 683 174 673 C 145 666 161 637 190 645 Q 193 646 257 662 Q 285 669 296 661 Q 312 645 312 584 Q 319 331 309 193 Q 312 174 299 171 C 285 146 285 146 289 140 Z" class="stroke2"/>
    <path d="M 186 458 Q 187 458 192 458 Q 237 467 270 472 Q 291 478 282 489 Q 270 502 246 503 Q 224 504 186 489 C 158 478 156 458 186 458 Z" class="stroke3"/>
    <path d="M 184 314 Q 236 324 277 332 Q 299 338 290 349 Q 278 362 254 364 Q 217 367 184 345 C 159 329 155 308 184 314 Z" class="stroke4"/>
    <path d="M 180 130 Q 241 137 289 140 C 319 142 326 158 299 171 Q 292 175 284 176 Q 262 180 183 161 C 154 154 150 127 180 130 Z" class="stroke5"/>
    <path d="M 590 766 Q 618 738 648 705 Q 664 689 684 689 Q 697 689 704 705 Q 711 723 701 760 Q 695 782 661 800 Q 580 836 560 828 Q 553 824 555 807 Q 559 794 590 766 Z" class="stroke6"/>
    <path d="M 578 551 Q 635 569 899 590 Q 917 591 921 599 Q 925 611 909 622 Q 858 655 824 645 Q 698 611 402 553 Q 383 550 398 535 Q 413 523 429 519 Q 448 515 464 521 Q 501 534 542 543 L 578 551 Z" class="stroke7"/>
    <path d="M 633 329 Q 569 329 515 329 Q 484 329 501 348 Q 555 426 606 482 Q 619 498 618 506 Q 617 519 580 551 Q 579 552 578 551 C 554 569 539 573 542 543 Q 552 503 483 389 Q 468 364 438 339 Q 420 326 421 314 Q 425 296 437 278 Q 447 268 459 274 Q 492 290 597 303 Q 606 304 614 304 C 644 306 663 329 633 329 Z" class="stroke8"/>
    <path d="M 769 171 Q 670 161 552 135 Q 513 125 540 153 Q 592 217 712 348 Q 748 390 778 413 Q 793 423 786 435 Q 776 457 738 482 Q 720 494 709 491 Q 697 488 699 470 Q 700 431 633 329 L 614 304 Q 476 139 448 127 Q 432 117 434 101 Q 434 85 463 61 Q 475 46 493 59 Q 602 117 780 151 C 809 157 799 174 769 171 Z" class="stroke9"/>
    <path d="M 780 151 Q 829 60 839 54 Q 848 50 858 58 Q 874 68 873 114 Q 873 171 731 280 Q 724 287 718 276 Q 714 263 722 250 Q 744 216 769 171 L 780 151 Z" class="stroke10"/>
    
    
    
    
    
    
    
    
    
    </g>
</svg>