<svg version="1.1" viewBox="0 0 1024 1024" xmlns="http://www.w3.org/2000/svg">
  
  <g transform="scale(1, -1) translate(0, -900)">
    <style type="text/css">
        .stroke1 {fill: #808080;}
        .stroke2 {fill: #808079;}
        .stroke3 {fill: #808078;}
        .stroke4 {fill: #808077;}
        .stroke5 {fill: #808076;}
        .stroke6 {fill: #808075;}
        .stroke7 {fill: #808074;}
        .stroke8 {fill: #808073;}
        .stroke9 {fill: #808072;}
        .stroke10 {fill: #808071;}
        .stroke11 {fill: #808070;}
        .stroke12 {fill: #808069;}
        .stroke13 {fill: #808068;}
        .stroke14 {fill: #808067;}
        .stroke15 {fill: #808066;}
        .stroke16 {fill: #808065;}
        .stroke17 {fill: #808064;}
        .stroke18 {fill: #808063;}
        .stroke19 {fill: #808062;}
        .stroke20 {fill: #808061;}
        text {
            font-family: Helvetica;
            font-size: 50px;
            fill: #808060;
            paint-order: stroke;
            stroke: #000000;
            stroke-width: 4px;
            stroke-linecap: butt;
            stroke-linejoin: miter;
            font-weight: 800;
        }
    </style>

    <path d="M 169 607 Q 160 622 128 632 Q 118 636 107 632 Q 100 628 105 615 Q 108 603 113 592 Q 143 537 125 264 Q 121 227 110 179 Q 97 122 133 77 Q 143 64 155 77 Q 168 93 168 116 Q 168 123 169 132 L 170 160 Q 170 172 171 288 L 171 315 Q 172 376 173 421 L 174 449 Q 175 557 177 568 Q 178 575 178 581 C 179 597 179 597 169 607 Z" class="stroke1"/>
    <path d="M 276 147 Q 289 126 302 105 Q 318 81 325 84 Q 337 85 351 120 Q 360 144 361 218 Q 342 542 368 590 Q 378 608 370 618 Q 363 628 314 644 Q 292 653 274 643 Q 216 618 169 607 C 140 599 149 574 178 581 Q 283 608 294 598 Q 307 585 307 531 Q 310 309 300 188 Q 301 178 298 172 C 295 142 260 173 276 147 Z" class="stroke2"/>
    <path d="M 173 421 Q 227 428 268 434 Q 289 438 281 449 Q 271 462 249 465 Q 210 471 174 449 C 148 434 143 417 173 421 Z" class="stroke3"/>
    <path d="M 171 288 Q 226 295 268 298 Q 289 302 281 313 Q 271 326 249 330 Q 212 336 171 315 C 144 302 141 284 171 288 Z" class="stroke4"/>
    <path d="M 169 132 Q 227 142 276 147 C 306 150 321 153 298 172 Q 288 181 271 183 Q 232 189 170 160 C 143 147 139 127 169 132 Z" class="stroke5"/>
    <path d="M 613 661 Q 626 689 642 704 Q 651 716 645 729 Q 641 742 610 763 Q 582 779 562 778 Q 543 775 553 753 Q 568 726 559 702 Q 534 621 489 544 Q 447 471 389 388 Q 379 376 377 370 Q 374 358 389 362 Q 444 377 581 603 Q 590 621 601 638 L 613 661 Z" class="stroke6"/>
    <path d="M 601 638 Q 671 532 766 419 Q 782 400 811 401 Q 908 405 938 410 Q 947 413 948 417 Q 949 421 936 429 Q 804 478 729 548 Q 674 597 613 661 C 592 683 584 663 601 638 Z" class="stroke7"/>
    <path d="M 498 421 Q 464 412 490 398 Q 535 379 585 395 Q 630 407 677 419 Q 698 426 701 429 Q 708 436 704 445 Q 697 455 667 461 Q 643 464 563 434 Q 533 427 498 421 Z" class="stroke8"/>
    <path d="M 436 225 Q 457 200 478 170 Q 488 157 502 155 Q 511 154 517 165 Q 524 177 520 204 Q 517 229 439 267 Q 426 271 420 271 Q 416 268 415 257 Q 416 247 436 225 Z" class="stroke9"/>
    <path d="M 534 302 Q 574 229 594 221 Q 606 217 615 232 Q 619 244 615 264 Q 603 298 544 325 Q 537 329 533 318 Q 529 311 534 302 Z" class="stroke10"/>
    <path d="M 654 106 Q 675 139 713 232 Q 723 260 747 298 Q 760 311 751 322 Q 741 338 707 356 Q 692 366 675 358 Q 665 354 672 342 Q 688 291 621 114 Q 618 107 616 99 C 607 70 639 80 654 106 Z" class="stroke11"/>
    <path d="M 616 99 Q 601 98 586 95 Q 495 82 389 67 Q 367 66 383 47 Q 416 17 455 27 Q 575 58 826 58 Q 847 58 851 67 Q 857 79 840 93 Q 780 138 706 116 Q 682 113 654 106 L 616 99 Z" class="stroke12"/>
    
    
    
    
    
    
    
    
    
    
    
    </g>
</svg>