<svg version="1.1" viewBox="0 0 1024 1024" xmlns="http://www.w3.org/2000/svg">
  
  <g transform="scale(1, -1) translate(0, -900)">
    <style type="text/css">
        .stroke1 {fill: #808080;}
        .stroke2 {fill: #808079;}
        .stroke3 {fill: #808078;}
        .stroke4 {fill: #808077;}
        .stroke5 {fill: #808076;}
        .stroke6 {fill: #808075;}
        .stroke7 {fill: #808074;}
        .stroke8 {fill: #808073;}
        .stroke9 {fill: #808072;}
        .stroke10 {fill: #808071;}
        .stroke11 {fill: #808070;}
        .stroke12 {fill: #808069;}
        .stroke13 {fill: #808068;}
        .stroke14 {fill: #808067;}
        .stroke15 {fill: #808066;}
        .stroke16 {fill: #808065;}
        .stroke17 {fill: #808064;}
        .stroke18 {fill: #808063;}
        .stroke19 {fill: #808062;}
        .stroke20 {fill: #808061;}
        text {
            font-family: Helvetica;
            font-size: 50px;
            fill: #808060;
            paint-order: stroke;
            stroke: #000000;
            stroke-width: 4px;
            stroke-linecap: butt;
            stroke-linejoin: miter;
            font-weight: 800;
        }
    </style>

    <path d="M 159 633 Q 149 648 120 656 Q 110 660 99 657 Q 92 651 97 639 Q 118 554 119 547 Q 118 546 119 541 Q 129 331 99 200 Q 84 146 121 97 Q 131 84 143 97 Q 153 112 155 130 L 159 166 Q 160 190 160 222 Q 160 270 161 310 L 161 344 Q 162 402 164 445 L 164 479 Q 165 581 168 592 Q 169 599 169 606 C 171 622 171 622 159 633 Z" class="stroke1"/>
    <path d="M 251 141 Q 263 123 274 105 Q 290 81 297 84 Q 310 85 325 121 Q 340 160 336 210 Q 315 564 344 614 Q 354 632 346 642 Q 339 652 290 668 Q 266 677 250 667 Q 201 645 159 633 C 130 624 140 598 169 606 Q 170 607 176 608 Q 201 614 232 624 Q 260 631 269 623 Q 284 608 283 551 Q 284 317 272 188 Q 275 167 259 168 C 243 153 243 153 251 141 Z" class="stroke2"/>
    <path d="M 164 445 Q 210 457 246 464 Q 268 470 258 481 Q 246 494 222 495 Q 200 495 164 479 C 137 467 135 437 164 445 Z" class="stroke3"/>
    <path d="M 161 310 Q 210 322 246 328 Q 267 334 258 345 Q 246 358 222 359 Q 200 360 162 345 Q 161 345 161 344 C 135 329 132 303 161 310 Z" class="stroke4"/>
    <path d="M 155 130 Q 186 139 251 141 C 281 142 285 153 259 168 Q 252 172 243 178 Q 233 184 159 166 C 130 159 126 122 155 130 Z" class="stroke5"/>
    <path d="M 554 554 Q 597 502 613 501 Q 623 501 629 513 Q 635 526 629 556 Q 622 580 553 600 Q 538 604 532 603 Q 528 599 527 587 Q 530 577 554 554 Z" class="stroke6"/>
    <path d="M 800 631 Q 791 612 742 546 Q 732 530 750 533 Q 780 548 842 588 Q 860 604 883 615 Q 904 625 893 642 Q 880 658 854 672 Q 830 685 818 682 Q 805 681 810 667 Q 814 649 800 631 Z" class="stroke7"/>
    <path d="M 709 418 Q 758 434 815 448 Q 855 460 861 466 Q 868 473 864 481 Q 857 491 829 497 Q 802 501 710 462 L 674 451 Q 622 438 562 427 Q 529 420 554 405 Q 593 387 644 401 L 709 418 Z" class="stroke8"/>
    <path d="M 708 356 Q 707 387 709 418 L 710 462 Q 716 646 752 718 Q 759 728 746 745 Q 682 796 649 784 Q 633 778 640 761 Q 679 697 675 596 Q 675 517 674 451 L 670 355 Q 663 249 653 202 Q 652 186 671 141 Q 683 122 700 132 Q 716 147 712 231 Q 709 310 708 337 L 708 356 Z" class="stroke9"/>
    <path d="M 644 401 Q 626 334 504 227 Q 491 214 504 215 Q 514 214 546 231 Q 577 246 604 272 Q 623 291 670 355 C 714 415 656 440 644 401 Z" class="stroke10"/>
    <path d="M 708 337 Q 711 337 841 235 Q 860 220 875 219 Q 891 219 896 224 Q 903 236 894 258 Q 882 286 855 306 Q 828 322 749 346 Q 719 356 708 356 C 678 359 683 353 708 337 Z" class="stroke11"/>
    <path d="M 400 555 Q 433 510 456 495 Q 468 491 476 501 Q 482 511 481 524 Q 478 543 466 554 Q 447 572 413 583 Q 401 589 394 586 Q 388 586 389 576 Q 390 567 400 555 Z" class="stroke12"/>
    <path d="M 469 160 Q 479 169 482 184 Q 483 217 444 267 Q 428 288 464 342 Q 485 369 502 383 Q 518 396 504 409 Q 489 422 463 433 Q 447 443 433 431 Q 388 388 349 381 Q 342 381 340 377 Q 340 373 347 370 Q 374 361 430 389 Q 431 393 439 392 Q 455 370 432 344 Q 414 328 402 301 Q 396 288 427 232 Q 452 189 453 163 C 456 143 456 143 469 160 Z" class="stroke13"/>
    <path d="M 453 163 Q 437 166 418 164 Q 397 160 378 164 Q 365 167 363 161 Q 359 152 371 141 Q 383 129 434 132 Q 479 138 567 94 Q 657 55 760 6 Q 791 -10 833 7 Q 890 29 941 49 Q 959 56 958 64 Q 958 73 914 71 Q 869 72 802 71 Q 741 70 684 89 Q 473 159 469 160 L 453 163 Z" class="stroke14"/>
    
    
    
    
    
    
    
    
    
    
    
    
    
    </g>
</svg>