<svg version="1.1" viewBox="0 0 1024 1024" xmlns="http://www.w3.org/2000/svg">
  
  <g transform="scale(1, -1) translate(0, -900)">
    <style type="text/css">
        .stroke1 {fill: #808080;}
        .stroke2 {fill: #808079;}
        .stroke3 {fill: #808078;}
        .stroke4 {fill: #808077;}
        .stroke5 {fill: #808076;}
        .stroke6 {fill: #808075;}
        .stroke7 {fill: #808074;}
        .stroke8 {fill: #808073;}
        .stroke9 {fill: #808072;}
        .stroke10 {fill: #808071;}
        .stroke11 {fill: #808070;}
        .stroke12 {fill: #808069;}
        .stroke13 {fill: #808068;}
        .stroke14 {fill: #808067;}
        .stroke15 {fill: #808066;}
        .stroke16 {fill: #808065;}
        .stroke17 {fill: #808064;}
        .stroke18 {fill: #808063;}
        .stroke19 {fill: #808062;}
        .stroke20 {fill: #808061;}
        text {
            font-family: Helvetica;
            font-size: 50px;
            fill: #808060;
            paint-order: stroke;
            stroke: #000000;
            stroke-width: 4px;
            stroke-linecap: butt;
            stroke-linejoin: miter;
            font-weight: 800;
        }
    </style>

    <path d="M 158 623 Q 122 647 106 641 Q 99 637 105 624 Q 123 560 125 542 Q 125 538 126 530 Q 141 331 109 199 Q 97 148 130 105 Q 140 92 150 104 Q 163 120 162 141 L 165 177 Q 165 190 166 311 L 166 344 Q 167 402 168 444 L 168 478 Q 169 571 171 582 Q 172 589 172 594 C 174 613 174 613 158 623 Z" class="stroke1"/>
    <path d="M 257 153 Q 270 131 285 110 Q 301 85 309 88 Q 322 91 336 125 Q 351 164 346 213 Q 321 556 350 613 Q 360 632 351 643 Q 344 653 291 667 Q 266 674 249 663 Q 200 636 158 623 C 130 613 144 584 172 594 Q 178 597 186 599 Q 210 608 237 619 Q 262 629 272 621 Q 285 608 286 552 Q 290 323 281 197 Q 284 179 272 176 C 259 150 255 156 257 153 Z" class="stroke2"/>
    <path d="M 168 444 Q 214 457 250 464 Q 272 470 262 481 Q 250 494 226 494 Q 204 494 168 478 C 141 466 139 436 168 444 Z" class="stroke3"/>
    <path d="M 166 311 Q 214 321 250 328 Q 272 334 262 345 Q 250 358 226 359 Q 204 359 166 344 C 138 333 137 305 166 311 Z" class="stroke4"/>
    <path d="M 162 141 Q 161 142 164 142 Q 194 149 257 153 C 287 155 294 156 272 176 Q 265 183 251 190 Q 236 197 208 189 Q 186 182 165 177 C 136 170 134 130 162 141 Z" class="stroke5"/>
    <path d="M 469 682 Q 459 688 429 693 Q 419 696 415 691 Q 408 685 417 670 Q 433 636 445 586 L 452 551 Q 465 488 477 475 Q 493 454 498 469 Q 499 476 502 486 L 502 512 Q 495 557 494 562 L 489 592 Q 482 634 481 652 C 479 677 479 677 469 682 Z" class="stroke6"/>
    <path d="M 689 507 Q 690 506 691 502 Q 695 489 707 489 Q 720 490 726 504 Q 738 519 759 598 L 780 643 Q 790 659 805 671 Q 821 686 807 700 Q 791 715 745 737 Q 730 746 674 729 Q 656 729 628 720 L 574 708 Q 559 707 469 682 C 440 674 453 642 481 652 Q 517 665 575 678 L 624 688 Q 699 709 717 700 Q 726 694 721 665 Q 717 647 714 630 L 707 595 Q 700 561 694 542 C 686 513 686 513 689 507 Z" class="stroke7"/>
    <path d="M 759 598 Q 802 602 853 603 Q 875 603 895 604 Q 911 604 915 612 Q 919 622 906 632 Q 858 666 795 647 Q 788 646 780 643 L 714 630 Q 672 624 624 614 Q 623 614 622 613 L 576 606 Q 533 600 489 592 L 445 586 Q 408 582 370 575 Q 352 572 366 559 Q 378 547 392 544 Q 410 540 423 544 Q 436 548 452 551 L 494 562 Q 533 572 577 578 L 622 585 Q 659 592 707 595 L 759 598 Z" class="stroke8"/>
    <path d="M 619 500 Q 647 504 689 507 C 719 509 722 532 694 542 Q 676 551 620 534 L 577 525 Q 537 518 502 512 C 472 507 473 495 502 486 L 504 485 Q 514 482 525 485 Q 544 491 576 494 L 619 500 Z" class="stroke9"/>
    <path d="M 451 427 Q 441 431 414 436 Q 404 437 400 433 Q 396 427 403 414 Q 425 375 441 310 Q 445 291 457 278 Q 473 259 478 273 Q 481 283 480 299 L 475 327 Q 468 378 465 398 C 461 424 461 424 451 427 Z" class="stroke10"/>
    <path d="M 763 359 Q 790 401 812 407 Q 828 423 817 440 Q 804 453 759 480 Q 743 489 723 483 Q 668 464 617 451 L 575 444 Q 514 434 451 427 C 421 424 435 393 465 398 Q 475 399 484 402 Q 527 409 574 417 L 616 424 Q 655 431 694 439 Q 721 445 732 433 Q 736 427 711 360 C 701 332 746 334 763 359 Z" class="stroke11"/>
    <path d="M 581 311 Q 656 321 776 326 Q 785 327 787 334 Q 787 341 763 359 C 754 366 741 364 711 360 Q 659 353 613 343 L 571 337 Q 520 331 475 327 C 445 324 450 300 480 299 Q 487 298 496 299 Q 515 303 542 306 L 581 311 Z" class="stroke12"/>
    <path d="M 617 451 Q 618 476 619 500 L 620 534 Q 620 559 622 585 L 622 613 Q 623 650 624 688 L 628 720 Q 628 745 644 803 Q 647 813 626 828 Q 592 847 566 851 Q 550 854 542 845 Q 535 838 543 822 Q 571 780 572 752 Q 573 731 574 708 L 575 678 Q 576 644 576 606 L 577 578 Q 577 553 577 525 L 576 494 Q 575 470 575 444 L 574 417 Q 573 380 571 337 C 570 307 612 313 613 343 Q 614 385 616 424 L 617 451 Z" class="stroke13"/>
    <path d="M 579 236 Q 588 255 598 266 Q 608 273 605 282 Q 601 292 581 311 C 560 332 542 336 542 306 Q 546 285 525 230 L 508 191 Q 495 166 482 148 Q 472 132 475 119 Q 476 109 494 106 Q 557 91 584 73 L 628 50 Q 676 22 743 -27 Q 768 -45 785 -43 Q 804 -42 804 -23 Q 803 -4 773 38 Q 758 60 663 92 L 617 106 Q 568 122 535 127 Q 519 131 527 147 Q 543 178 556 198 L 579 236 Z" class="stroke14"/>
    <path d="M 728 257 Q 701 279 677 277 Q 665 276 670 261 Q 671 257 673 249 L 671 211 Q 662 160 617 106 L 584 73 Q 514 22 384 -1 Q 368 -7 386 -12 Q 524 -36 628 50 L 663 92 Q 691 131 712 178 Q 721 202 729 214 C 744 240 746 244 728 257 Z" class="stroke15"/>
    <path d="M 729 214 Q 918 214 925 221 Q 925 222 926 223 Q 932 233 916 247 Q 865 286 808 271 Q 772 265 728 257 L 673 249 Q 630 248 579 236 L 525 230 Q 452 223 372 212 Q 353 211 366 195 Q 379 182 396 177 Q 415 171 431 175 Q 468 185 508 191 L 556 198 Q 578 204 603 205 Q 633 209 671 211 L 729 214 Z" class="stroke16"/>
    
    
    
    
    
    
    
    
    
    
    
    
    
    
    
    </g>
</svg>