<svg version="1.1" viewBox="0 0 1024 1024" xmlns="http://www.w3.org/2000/svg">
  
  <g transform="scale(1, -1) translate(0, -900)">
    <style type="text/css">
        .stroke1 {fill: #808080;}
        .stroke2 {fill: #808079;}
        .stroke3 {fill: #808078;}
        .stroke4 {fill: #808077;}
        .stroke5 {fill: #808076;}
        .stroke6 {fill: #808075;}
        .stroke7 {fill: #808074;}
        .stroke8 {fill: #808073;}
        .stroke9 {fill: #808072;}
        .stroke10 {fill: #808071;}
        .stroke11 {fill: #808070;}
        .stroke12 {fill: #808069;}
        .stroke13 {fill: #808068;}
        .stroke14 {fill: #808067;}
        .stroke15 {fill: #808066;}
        .stroke16 {fill: #808065;}
        .stroke17 {fill: #808064;}
        .stroke18 {fill: #808063;}
        .stroke19 {fill: #808062;}
        .stroke20 {fill: #808061;}
        text {
            font-family: Helvetica;
            font-size: 50px;
            fill: #808060;
            paint-order: stroke;
            stroke: #000000;
            stroke-width: 4px;
            stroke-linecap: butt;
            stroke-linejoin: miter;
            font-weight: 800;
        }
    </style>

    <path d="M 271 565 Q 304 608 327 654 Q 354 709 380 754 Q 390 767 373 782 Q 327 815 299 809 Q 287 805 291 790 Q 312 679 194 529 Q 188 526 144 469 Q 137 453 152 458 Q 188 468 259 549 L 271 565 Z" class="stroke1"/>
    <path d="M 373 537 Q 535 579 540 583 Q 549 592 544 600 Q 537 612 506 618 Q 475 622 444 609 Q 410 596 370 584 Q 327 574 276 566 Q 273 566 271 565 C 245 560 245 560 259 549 Q 278 530 326 529 L 373 537 Z" class="stroke2"/>
    <path d="M 387 342 Q 454 358 535 369 Q 553 370 554 379 Q 555 392 536 403 Q 500 418 395 388 L 338 376 Q 191 345 98 334 Q 85 333 81 324 Q 77 312 94 300 Q 139 270 181 285 Q 268 315 329 329 L 387 342 Z" class="stroke3"/>
    <path d="M 329 329 Q 293 152 119 41 Q 106 31 119 28 Q 134 28 169 43 Q 224 68 264 108 Q 310 148 333 193 Q 343 214 353 233 Q 377 284 387 342 L 395 388 Q 407 460 421 486 Q 430 505 413 514 Q 398 524 373 537 C 347 551 315 557 326 529 Q 326 526 329 520 Q 350 484 338 376 L 329 329 Z" class="stroke4"/>
    <path d="M 410 240 Q 447 197 492 135 Q 505 113 520 107 Q 529 106 537 114 Q 550 126 543 170 Q 537 212 476 242 Q 436 261 414 271 Q 407 277 403 265 Q 402 252 410 240 Z" class="stroke5"/>
    <path d="M 601 466 Q 591 472 564 478 Q 551 482 547 477 Q 540 470 548 453 Q 582 362 596 218 Q 597 175 620 145 Q 636 121 643 137 Q 652 159 649 197 L 645 235 Q 623 392 619 434 C 616 459 616 459 601 466 Z" class="stroke6"/>
    <path d="M 848 260 Q 869 398 912 442 Q 930 463 913 481 Q 826 541 775 510 Q 706 485 601 466 C 572 461 589 432 619 434 Q 635 434 656 440 Q 798 467 805 460 Q 821 447 819 419 Q 810 335 796 267 C 790 238 843 230 848 260 Z" class="stroke7"/>
    <path d="M 649 197 Q 658 196 670 198 Q 731 211 862 221 Q 874 222 876 233 Q 876 242 848 260 L 796 267 Q 792 268 788 266 Q 709 245 645 235 C 615 230 619 198 649 197 Z" class="stroke8"/>
    
    
    
    
    
    
    
    </g>
</svg>