<svg version="1.1" viewBox="0 0 1024 1024" xmlns="http://www.w3.org/2000/svg">
  
  <g transform="scale(1, -1) translate(0, -900)">
    <style type="text/css">
        .stroke1 {fill: #808080;}
        .stroke2 {fill: #808079;}
        .stroke3 {fill: #808078;}
        .stroke4 {fill: #808077;}
        .stroke5 {fill: #808076;}
        .stroke6 {fill: #808075;}
        .stroke7 {fill: #808074;}
        .stroke8 {fill: #808073;}
        .stroke9 {fill: #808072;}
        .stroke10 {fill: #808071;}
        .stroke11 {fill: #808070;}
        .stroke12 {fill: #808069;}
        .stroke13 {fill: #808068;}
        .stroke14 {fill: #808067;}
        .stroke15 {fill: #808066;}
        .stroke16 {fill: #808065;}
        .stroke17 {fill: #808064;}
        .stroke18 {fill: #808063;}
        .stroke19 {fill: #808062;}
        .stroke20 {fill: #808061;}
        text {
            font-family: Helvetica;
            font-size: 50px;
            fill: #808060;
            paint-order: stroke;
            stroke: #000000;
            stroke-width: 4px;
            stroke-linecap: butt;
            stroke-linejoin: miter;
            font-weight: 800;
        }
    </style>

    <path d="M 214 557 Q 221 570 231 582 Q 265 631 302 703 Q 317 737 331 754 Q 338 764 333 777 Q 327 789 299 807 Q 272 820 254 818 Q 238 815 247 795 Q 269 762 209 629 Q 181 569 139 501 Q 130 491 129 485 Q 128 475 140 478 Q 155 482 204 543 L 214 557 Z" class="stroke1"/>
    <path d="M 287 532 Q 294 536 388 565 Q 407 571 410 574 Q 417 583 412 590 Q 405 600 377 603 Q 352 604 281 574 Q 215 559 214 557 C 195 550 195 550 204 543 Q 214 533 247 529 L 287 532 Z" class="stroke2"/>
    <path d="M 306 412 Q 345 424 392 433 Q 407 436 407 443 Q 407 455 390 461 Q 363 470 314 454 L 257 436 Q 115 396 49 383 Q 39 382 36 374 Q 35 364 48 355 Q 85 331 121 348 Q 232 396 251 396 L 306 412 Z" class="stroke3"/>
    <path d="M 282 318 Q 294 358 306 412 L 314 454 Q 314 455 315 457 Q 321 475 324 485 Q 331 504 314 515 Q 298 525 287 532 C 262 548 240 558 247 529 Q 259 484 257 436 L 251 396 Q 217 237 144 168 Q 84 123 80 116 Q 77 110 88 109 Q 124 106 184 154 Q 244 205 278 303 L 282 318 Z" class="stroke4"/>
    <path d="M 278 303 Q 282 297 299 283 Q 323 264 349 239 Q 359 230 370 230 Q 377 231 381 241 Q 385 251 378 273 Q 374 289 349 301 Q 324 311 296 318 Q 284 319 282 318 C 267 316 267 316 278 303 Z" class="stroke5"/>
    <path d="M 595 735 Q 725 786 731 786 Q 747 787 750 794 Q 753 804 742 814 Q 687 853 654 848 Q 648 844 647 834 Q 650 798 473 711 Q 469 702 473 700 Q 485 700 558 723 L 595 735 Z" class="stroke6"/>
    <path d="M 591 613 Q 619 620 652 628 L 677 634 Q 710 643 817 661 Q 827 660 834 672 Q 835 682 814 691 Q 787 710 713 683 Q 611 656 609 654 L 553 641 Q 550 641 459 626 Q 434 622 454 607 Q 484 586 518 596 Q 527 599 538 600 L 591 613 Z" class="stroke7"/>
    <path d="M 529 493 Q 530 497 535 502 Q 562 541 591 613 L 609 654 Q 619 679 629 688 Q 636 697 634 703 Q 625 724 595 735 C 568 747 542 748 558 723 Q 567 713 568 700 Q 569 687 553 641 L 538 600 Q 516 540 487 496 Q 459 456 398 394 Q 388 382 397 380 Q 401 379 412 384 Q 464 412 511 468 L 529 493 Z" class="stroke8"/>
    <path d="M 652 628 Q 653 627 658 622 Q 809 448 849 435 Q 909 426 996 443 Q 1012 444 1013 449 Q 1014 455 1002 460 Q 819 524 748 576 Q 682 630 677 634 C 654 653 631 650 652 628 Z" class="stroke9"/>
    <path d="M 553 486 Q 546 490 529 493 C 500 499 499 496 511 468 Q 524 438 535 392 Q 536 376 547 365 Q 560 349 565 360 Q 566 364 567 370 L 566 397 Q 560 445 560 462 C 560 483 560 483 553 486 Z" class="stroke10"/>
    <path d="M 706 420 Q 719 454 733 465 Q 752 486 733 498 Q 717 508 695 523 Q 680 532 664 523 Q 631 504 553 486 C 524 479 531 455 560 462 Q 561 462 643 482 Q 665 486 670 478 Q 674 474 669 454 Q 665 439 661 422 C 654 393 695 392 706 420 Z" class="stroke11"/>
    <path d="M 567 370 Q 574 370 582 372 Q 624 382 716 395 Q 723 396 725 404 Q 725 408 706 420 C 690 430 690 430 661 422 Q 606 406 566 397 C 537 390 537 368 567 370 Z" class="stroke12"/>
    <path d="M 413 276 Q 413 275 415 272 Q 439 211 422 109 Q 401 78 430 38 Q 431 35 437 30 Q 444 20 452 25 Q 473 40 473 146 Q 469 225 469 254 C 469 283 469 283 459 290 Q 444 305 412 302 Q 402 298 407 288 Q 410 284 413 276 Z" class="stroke13"/>
    <path d="M 469 254 Q 512 276 765 300 Q 783 301 794 291 Q 812 285 814 259 Q 820 195 808 77 Q 809 49 782 49 Q 751 49 728 49 Q 709 50 715 41 Q 719 29 751 10 Q 788 -18 812 -52 Q 825 -62 837 -55 Q 847 -51 860 -16 Q 884 38 878 135 Q 874 271 885 290 Q 895 303 887 314 Q 875 326 831 344 Q 812 351 796 343 Q 774 336 713 329 Q 467 292 459 290 C 429 285 441 244 469 254 Z" class="stroke14"/>
    <path d="M 529 231 Q 520 232 518 229 Q 514 225 520 213 Q 538 182 551 130 Q 554 114 564 104 Q 577 88 581 100 Q 582 106 583 115 L 580 140 Q 570 191 570 206 C 569 229 559 230 529 231 Z" class="stroke15"/>
    <path d="M 706 161 Q 721 200 735 211 Q 753 230 735 242 Q 720 252 700 266 Q 687 273 641 251 Q 551 229 534 230 Q 531 231 529 231 C 499 235 542 196 570 206 Q 579 210 648 227 Q 670 231 676 223 L 664 162 C 658 133 695 133 706 161 Z" class="stroke16"/>
    <path d="M 583 115 Q 586 115 591 116 Q 630 126 716 138 Q 723 139 724 145 Q 724 151 706 161 C 691 170 691 170 664 162 Q 618 149 580 140 C 551 133 553 112 583 115 Z" class="stroke17"/>
    
    
    
    
    
    
    
    
    
    
    
    
    
    
    
    
    </g>
</svg>