<svg version="1.1" viewBox="0 0 1024 1024" xmlns="http://www.w3.org/2000/svg">
  
  <g transform="scale(1, -1) translate(0, -900)">
    <style type="text/css">
        .stroke1 {fill: #808080;}
        .stroke2 {fill: #808079;}
        .stroke3 {fill: #808078;}
        .stroke4 {fill: #808077;}
        .stroke5 {fill: #808076;}
        .stroke6 {fill: #808075;}
        .stroke7 {fill: #808074;}
        .stroke8 {fill: #808073;}
        .stroke9 {fill: #808072;}
        .stroke10 {fill: #808071;}
        .stroke11 {fill: #808070;}
        .stroke12 {fill: #808069;}
        .stroke13 {fill: #808068;}
        .stroke14 {fill: #808067;}
        .stroke15 {fill: #808066;}
        .stroke16 {fill: #808065;}
        .stroke17 {fill: #808064;}
        .stroke18 {fill: #808063;}
        .stroke19 {fill: #808062;}
        .stroke20 {fill: #808061;}
        text {
            font-family: Helvetica;
            font-size: 50px;
            fill: #808060;
            paint-order: stroke;
            stroke: #000000;
            stroke-width: 4px;
            stroke-linecap: butt;
            stroke-linejoin: miter;
            font-weight: 800;
        }
    </style>

    <path d="M 491 646 Q 602 662 721 677 Q 803 690 816 700 Q 826 707 822 718 Q 815 733 783 743 Q 749 753 715 742 Q 499 685 275 676 Q 232 673 261 651 Q 310 620 370 631 Q 401 635 436 639 L 491 646 Z" class="stroke1"/>
    <path d="M 371 369 Q 425 442 500 565 Q 527 608 527 609 Q 524 631 491 646 C 465 661 435 669 436 639 Q 448 528 275 324 Q 268 318 261 309 Q 207 251 73 136 Q 64 132 76 128 Q 136 135 279 263 Q 309 294 341 331 L 371 369 Z" class="stroke2"/>
    <path d="M 399 360 Q 390 364 371 369 C 342 377 330 359 341 331 Q 371 255 387 138 Q 388 99 410 73 Q 429 48 436 66 Q 440 79 441 100 L 439 137 Q 421 228 411 322 C 408 352 407 357 399 360 Z" class="stroke3"/>
    <path d="M 735 170 Q 765 299 810 335 Q 831 357 812 379 Q 791 395 728 426 Q 706 435 680 424 Q 554 376 399 360 C 369 357 381 317 411 322 Q 423 323 438 327 Q 549 348 654 368 Q 681 374 692 362 Q 705 350 703 323 Q 690 241 673 176 C 666 147 728 141 735 170 Z" class="stroke4"/>
    <path d="M 441 100 Q 448 99 461 100 Q 552 119 749 130 Q 761 131 763 141 Q 763 150 735 170 C 715 185 702 182 673 176 Q 543 149 439 137 C 409 133 411 101 441 100 Z" class="stroke5"/>
    
    
    
    
    </g>
</svg>