<svg version="1.1" viewBox="0 0 1024 1024" xmlns="http://www.w3.org/2000/svg">
  
  <g transform="scale(1, -1) translate(0, -900)">
    <style type="text/css">
        .stroke1 {fill: #808080;}
        .stroke2 {fill: #808079;}
        .stroke3 {fill: #808078;}
        .stroke4 {fill: #808077;}
        .stroke5 {fill: #808076;}
        .stroke6 {fill: #808075;}
        .stroke7 {fill: #808074;}
        .stroke8 {fill: #808073;}
        .stroke9 {fill: #808072;}
        .stroke10 {fill: #808071;}
        .stroke11 {fill: #808070;}
        .stroke12 {fill: #808069;}
        .stroke13 {fill: #808068;}
        .stroke14 {fill: #808067;}
        .stroke15 {fill: #808066;}
        .stroke16 {fill: #808065;}
        .stroke17 {fill: #808064;}
        .stroke18 {fill: #808063;}
        .stroke19 {fill: #808062;}
        .stroke20 {fill: #808061;}
        text {
            font-family: Helvetica;
            font-size: 50px;
            fill: #808060;
            paint-order: stroke;
            stroke: #000000;
            stroke-width: 4px;
            stroke-linecap: butt;
            stroke-linejoin: miter;
            font-weight: 800;
        }
    </style>

    <path d="M 228 534 Q 231 540 236 545 Q 276 596 319 672 Q 337 708 354 726 Q 361 736 357 750 Q 351 763 322 783 Q 294 799 276 798 Q 257 795 267 774 Q 288 738 216 596 Q 182 533 133 463 Q 123 453 122 446 Q 119 434 133 438 Q 157 445 210 511 L 228 534 Z" class="stroke1"/>
    <path d="M 291 505 Q 298 509 411 545 Q 435 552 438 557 Q 445 566 440 573 Q 433 583 403 587 Q 373 588 346 574 Q 321 562 291 552 Q 260 542 228 534 C 199 527 181 520 210 511 Q 228 505 252 501 C 272 497 272 497 291 505 Z" class="stroke2"/>
    <path d="M 318 367 Q 360 379 411 388 Q 427 391 427 398 Q 427 411 409 418 Q 379 428 326 410 L 266 393 Q 124 357 70 349 Q 58 348 56 339 Q 53 329 68 319 Q 104 298 154 314 Q 217 339 262 352 L 318 367 Z" class="stroke3"/>
    <path d="M 262 352 Q 232 208 128 126 Q 113 114 99 103 Q 86 93 99 92 Q 112 92 145 106 Q 188 127 220 158 Q 298 230 316 354 Q 316 361 318 367 L 326 410 Q 327 435 339 458 Q 348 476 332 484 Q 304 505 291 505 C 262 514 249 518 252 501 Q 251 497 254 488 Q 273 454 266 393 L 262 352 Z" class="stroke4"/>
    <path d="M 329 209 Q 347 187 366 161 Q 376 148 390 147 Q 399 146 405 157 Q 411 169 407 196 Q 406 212 382 228 Q 322 258 312 255 Q 308 252 307 241 Q 308 231 329 209 Z" class="stroke5"/>
    <path d="M 634 683 Q 716 722 755 730 Q 771 731 774 739 Q 777 749 766 758 Q 747 771 705 786 Q 690 793 678 791 Q 671 787 671 777 Q 672 741 504 655 Q 500 646 505 644 Q 523 644 595 670 L 634 683 Z" class="stroke6"/>
    <path d="M 653 565 Q 698 580 818 601 Q 827 600 835 612 Q 835 622 814 631 Q 783 647 710 620 Q 662 608 658 605 L 609 591 Q 581 587 555 580 Q 518 574 478 566 Q 453 562 473 547 Q 501 529 544 537 Q 562 543 586 548 L 653 565 Z" class="stroke7"/>
    <path d="M 651 552 Q 652 559 653 565 L 658 605 Q 659 623 671 644 Q 677 651 667 663 Q 651 676 634 683 C 607 696 583 697 595 670 Q 608 645 609 591 L 610 512 Q 607 422 618 402 L 619 401 Q 626 388 639 395 Q 648 405 649 512 Q 649 519 650 526 L 651 552 Z" class="stroke8"/>
    <path d="M 586 548 Q 558 478 448 393 Q 436 383 448 383 Q 455 382 484 395 Q 512 407 539 429 Q 570 457 610 512 C 645 559 599 579 586 548 Z" class="stroke9"/>
    <path d="M 650 526 Q 770 406 803 398 Q 863 398 922 413 Q 935 416 937 420 Q 938 424 927 428 Q 771 474 723 503 Q 702 516 682 530 Q 664 543 651 552 C 626 569 629 547 650 526 Z" class="stroke10"/>
    <path d="M 660 117 Q 715 78 795 4 Q 817 -18 834 -18 Q 855 -19 856 0 Q 857 19 833 64 Q 818 94 685 155 L 640 175 Q 609 190 583 198 Q 559 204 573 226 Q 589 260 599 280 L 614 313 Q 630 352 631 352 Q 627 365 589 390 Q 579 397 569 394 Q 557 390 564 376 Q 574 354 567 332 Q 563 319 560 305 L 550 272 Q 540 242 527 223 Q 518 207 521 195 Q 524 185 539 182 Q 576 170 617 145 L 660 117 Z" class="stroke11"/>
    <path d="M 617 145 Q 589 114 551 91 Q 502 61 396 36 Q 378 29 399 25 Q 570 7 660 117 L 685 155 Q 710 195 726 239 Q 739 282 751 294 Q 751 295 752 295 C 765 313 763 315 737 330 Q 704 352 679 347 Q 666 344 672 329 Q 673 326 675 321 L 679 290 Q 680 265 665 230 Q 655 200 640 175 L 617 145 Z" class="stroke12"/>
    <path d="M 752 295 Q 812 299 888 299 Q 943 296 951 306 Q 955 316 941 328 Q 890 364 835 348 Q 792 341 737 330 L 675 321 Q 674 321 614 313 L 560 305 Q 487 298 407 287 Q 388 286 402 270 Q 432 245 461 253 Q 503 265 550 272 L 599 280 Q 623 286 679 290 L 752 295 Z" class="stroke13"/>
    
    
    
    
    
    
    
    
    
    
    
    
    </g>
</svg>