<svg version="1.1" viewBox="0 0 1024 1024" xmlns="http://www.w3.org/2000/svg">
  
  <g transform="scale(1, -1) translate(0, -900)">
    <style type="text/css">
        .stroke1 {fill: #808080;}
        .stroke2 {fill: #808079;}
        .stroke3 {fill: #808078;}
        .stroke4 {fill: #808077;}
        .stroke5 {fill: #808076;}
        .stroke6 {fill: #808075;}
        .stroke7 {fill: #808074;}
        .stroke8 {fill: #808073;}
        .stroke9 {fill: #808072;}
        .stroke10 {fill: #808071;}
        .stroke11 {fill: #808070;}
        .stroke12 {fill: #808069;}
        .stroke13 {fill: #808068;}
        .stroke14 {fill: #808067;}
        .stroke15 {fill: #808066;}
        .stroke16 {fill: #808065;}
        .stroke17 {fill: #808064;}
        .stroke18 {fill: #808063;}
        .stroke19 {fill: #808062;}
        .stroke20 {fill: #808061;}
        text {
            font-family: Helvetica;
            font-size: 50px;
            fill: #808060;
            paint-order: stroke;
            stroke: #000000;
            stroke-width: 4px;
            stroke-linecap: butt;
            stroke-linejoin: miter;
            font-weight: 800;
        }
    </style>

    <path d="M 272 610 Q 330 626 394 641 Q 428 650 432 655 Q 441 664 436 672 Q 429 684 398 690 Q 367 694 337 680 Q 300 667 258 654 Q 213 642 160 634 Q 123 627 150 611 Q 181 595 231 600 L 272 610 Z" class="stroke1"/>
    <path d="M 242 404 Q 269 459 303 545 Q 316 581 317 582 Q 305 606 272 610 C 243 616 223 621 231 600 Q 231 599 233 596 Q 257 544 196 408 L 174 364 Q 135 295 51 187 Q 44 181 55 180 Q 92 193 186 307 Q 187 310 189 311 L 242 404 Z" class="stroke2"/>
    <path d="M 196 408 Q 187 411 178 413 Q 166 417 163 412 Q 156 406 164 391 Q 168 379 174 364 L 189 311 Q 198 269 206 217 Q 207 186 225 163 Q 241 142 247 157 Q 253 175 251 207 L 247 239 Q 231 336 228 369 L 196 408 Z" class="stroke3"/>
    <path d="M 379 267 Q 395 357 419 385 Q 438 412 416 424 Q 395 434 368 450 Q 350 459 308 432 Q 302 431 242 404 C 197 384 200 358 228 369 Q 232 372 313 396 Q 335 403 342 394 Q 349 388 330 268 C 325 238 374 237 379 267 Z" class="stroke4"/>
    <path d="M 251 207 Q 290 220 392 239 Q 402 240 402 249 Q 402 256 379 267 L 330 268 Q 329 268 328 268 Q 283 252 247 239 C 219 229 222 198 251 207 Z" class="stroke5"/>
    <path d="M 529 627 Q 478 649 464 648 Q 445 644 461 622 Q 497 565 478 346 Q 469 282 440 205 Q 412 133 322 43 Q 309 30 306 24 Q 305 17 316 17 Q 358 20 428 100 Q 503 188 524 330 Q 534 556 541 595 C 544 621 544 621 529 627 Z" class="stroke6"/>
    <path d="M 541 595 Q 548 598 559 601 Q 620 623 679 646 Q 686 647 691 644 Q 695 638 694 625 Q 589 10 932 -13 Q 947 -12 965 -12 Q 981 -11 984 -3 Q 991 9 981 36 Q 971 81 972 158 Q 972 171 966 179 Q 959 186 954 168 Q 933 95 922 73 Q 916 63 909 61 Q 897 55 887 57 Q 853 60 818 93 Q 728 171 719 353 Q 715 444 736 540 Q 749 607 790 649 Q 802 659 790 668 Q 777 684 741 698 Q 708 710 694 700 Q 628 657 529 627 C 500 618 513 585 541 595 Z" class="stroke7"/>
    <path d="M 561 375 Q 586 342 613 304 Q 622 291 634 289 Q 643 288 649 297 Q 656 307 654 333 Q 651 369 566 414 Q 554 420 548 418 Q 544 417 542 406 Q 543 396 561 375 Z" class="stroke8"/>
    
    
    
    
    
    
    
    </g>
</svg>