<svg version="1.1" viewBox="0 0 1024 1024" xmlns="http://www.w3.org/2000/svg">
  
  <g transform="scale(1, -1) translate(0, -900)">
    <style type="text/css">
        .stroke1 {fill: #808080;}
        .stroke2 {fill: #808079;}
        .stroke3 {fill: #808078;}
        .stroke4 {fill: #808077;}
        .stroke5 {fill: #808076;}
        .stroke6 {fill: #808075;}
        .stroke7 {fill: #808074;}
        .stroke8 {fill: #808073;}
        .stroke9 {fill: #808072;}
        .stroke10 {fill: #808071;}
        .stroke11 {fill: #808070;}
        .stroke12 {fill: #808069;}
        .stroke13 {fill: #808068;}
        .stroke14 {fill: #808067;}
        .stroke15 {fill: #808066;}
        .stroke16 {fill: #808065;}
        .stroke17 {fill: #808064;}
        .stroke18 {fill: #808063;}
        .stroke19 {fill: #808062;}
        .stroke20 {fill: #808061;}
        text {
            font-family: Helvetica;
            font-size: 50px;
            fill: #808060;
            paint-order: stroke;
            stroke: #000000;
            stroke-width: 4px;
            stroke-linecap: butt;
            stroke-linejoin: miter;
            font-weight: 800;
        }
    </style>

    <path d="M 273 653 Q 421 689 428 695 Q 437 704 432 712 Q 425 724 394 730 Q 363 734 333 722 Q 293 706 249 694 Q 201 681 144 674 Q 107 667 135 651 Q 171 633 222 640 L 273 653 Z" class="stroke1"/>
    <path d="M 224 463 Q 251 515 284 595 Q 290 611 295 617 Q 301 623 298 632 Q 292 647 273 653 C 246 666 216 669 222 640 Q 238 583 180 464 L 158 420 Q 107 342 27 242 Q 21 236 30 236 Q 90 258 172 372 L 224 463 Z" class="stroke2"/>
    <path d="M 180 464 Q 171 467 162 469 Q 150 473 147 468 Q 140 462 148 447 Q 152 435 158 420 L 172 372 Q 179 335 187 289 Q 188 259 205 239 Q 221 218 227 233 Q 231 246 231 270 L 227 305 Q 214 399 212 429 L 180 464 Z" class="stroke3"/>
    <path d="M 359 332 Q 372 414 395 442 Q 416 469 392 481 Q 373 491 345 506 Q 326 516 307 503 Q 285 487 256 475 Q 240 469 224 463 C 180 447 184 418 212 429 Q 227 436 291 452 Q 313 459 318 450 Q 325 444 310 333 C 306 303 354 302 359 332 Z" class="stroke4"/>
    <path d="M 231 270 Q 238 271 244 273 Q 284 286 375 301 Q 385 302 386 312 Q 386 319 359 332 L 310 333 Q 307 333 306 332 Q 261 316 227 305 C 198 296 201 265 231 270 Z" class="stroke5"/>
    <path d="M 731 667 Q 756 674 787 679 Q 836 691 843 697 Q 853 706 847 715 Q 840 728 808 736 Q 780 742 660 703 Q 497 675 483 672 Q 443 665 471 647 Q 510 623 604 642 Q 641 649 680 656 L 731 667 Z" class="stroke6"/>
    <path d="M 760 413 Q 814 417 884 420 Q 941 420 948 430 Q 952 442 937 454 Q 879 493 822 474 Q 795 468 761 460 L 709 449 Q 681 446 651 439 Q 611 432 569 424 L 520 416 Q 465 409 407 398 Q 388 395 403 379 Q 416 366 434 362 Q 455 358 470 362 Q 492 369 518 375 L 566 386 Q 635 402 709 408 L 760 413 Z" class="stroke7"/>
    <path d="M 569 424 Q 575 523 579 545 Q 585 564 565 573 Q 520 595 507 592 Q 488 589 503 569 Q 524 535 520 416 L 518 375 Q 518 279 454 176 Q 433 146 387 101 Q 374 89 371 83 Q 370 76 380 77 Q 395 77 413 91 Q 453 118 476 143 Q 548 224 566 386 L 569 424 Z" class="stroke8"/>
    <path d="M 709 -30 Q 715 -55 722 -65 Q 728 -72 735 -70 Q 750 -61 756 -1 Q 765 87 763 172 Q 759 229 760 413 L 761 460 Q 761 544 773 622 Q 777 640 762 649 Q 743 661 731 667 C 705 682 666 682 680 656 Q 680 652 695 630 Q 711 599 709 449 L 709 408 Q 703 18 709 -30 Z" class="stroke9"/>
    
    
    
    
    
    
    
    
    </g>
</svg>