<svg version="1.1" viewBox="0 0 1024 1024" xmlns="http://www.w3.org/2000/svg">
  
  <g transform="scale(1, -1) translate(0, -900)">
    <style type="text/css">
        .stroke1 {fill: #808080;}
        .stroke2 {fill: #808079;}
        .stroke3 {fill: #808078;}
        .stroke4 {fill: #808077;}
        .stroke5 {fill: #808076;}
        .stroke6 {fill: #808075;}
        .stroke7 {fill: #808074;}
        .stroke8 {fill: #808073;}
        .stroke9 {fill: #808072;}
        .stroke10 {fill: #808071;}
        .stroke11 {fill: #808070;}
        .stroke12 {fill: #808069;}
        .stroke13 {fill: #808068;}
        .stroke14 {fill: #808067;}
        .stroke15 {fill: #808066;}
        .stroke16 {fill: #808065;}
        .stroke17 {fill: #808064;}
        .stroke18 {fill: #808063;}
        .stroke19 {fill: #808062;}
        .stroke20 {fill: #808061;}
        text {
            font-family: Helvetica;
            font-size: 50px;
            fill: #808060;
            paint-order: stroke;
            stroke: #000000;
            stroke-width: 4px;
            stroke-linecap: butt;
            stroke-linejoin: miter;
            font-weight: 800;
        }
    </style>

    <path d="M 290 643 Q 461 689 464 691 Q 473 700 468 708 Q 461 720 430 726 Q 403 729 290 692 Q 206 673 164 666 Q 127 659 155 643 Q 192 624 250 633 L 290 643 Z" class="stroke1"/>
    <path d="M 246 413 Q 277 476 320 574 Q 335 611 336 614 Q 333 623 320 631 Q 307 640 290 643 C 261 651 240 657 250 633 Q 259 624 258 583 Q 243 510 199 414 L 178 377 Q 94 257 35 187 Q 28 181 39 180 Q 99 198 193 325 L 246 413 Z" class="stroke2"/>
    <path d="M 199 414 Q 193 415 186 417 Q 174 421 171 416 Q 164 410 172 395 Q 175 388 178 377 L 193 325 Q 203 282 211 222 Q 212 191 229 168 Q 245 146 251 161 Q 258 180 255 214 L 251 248 Q 236 357 236 382 L 199 414 Z" class="stroke3"/>
    <path d="M 404 280 Q 420 365 445 392 Q 467 417 444 432 Q 383 465 375 463 Q 368 463 360 457 Q 318 432 246 413 C 205 402 207 376 236 382 Q 245 383 256 387 Q 299 399 337 408 Q 362 414 369 404 Q 376 397 370 361 Q 363 324 355 282 C 349 253 398 251 404 280 Z" class="stroke4"/>
    <path d="M 255 214 Q 261 214 268 216 Q 314 231 419 249 Q 429 250 430 260 Q 430 267 404 280 L 355 282 Q 351 282 350 281 Q 296 262 251 248 C 222 239 225 212 255 214 Z" class="stroke5"/>
    <path d="M 663 338 Q 669 456 673 567 L 674 599 Q 675 668 695 770 Q 699 782 677 798 Q 637 819 611 823 Q 592 826 584 816 Q 575 809 585 791 Q 613 751 614 724 Q 624 541 617 328 C 616 298 661 308 663 338 Z" class="stroke6"/>
    <path d="M 673 567 Q 716 555 785 571 Q 825 580 868 591 Q 890 597 893 600 Q 903 610 896 619 Q 887 632 854 638 Q 833 641 739 611 Q 709 604 674 599 C 644 595 644 574 673 567 Z" class="stroke7"/>
    <path d="M 517 312 Q 505 319 472 325 Q 459 329 455 324 Q 448 317 457 300 Q 490 222 505 96 Q 506 59 527 33 Q 546 9 551 25 Q 560 49 555 93 L 549 130 Q 533 241 529 278 C 526 308 526 308 517 312 Z" class="stroke8"/>
    <path d="M 809 160 Q 831 265 869 294 Q 885 313 870 333 Q 785 391 735 362 Q 698 349 663 338 L 617 328 Q 568 319 517 312 C 487 308 499 274 529 278 Q 544 278 735 316 Q 757 320 765 312 Q 777 302 776 280 Q 769 222 759 172 C 753 143 803 131 809 160 Z" class="stroke9"/>
    <path d="M 555 93 Q 565 92 578 94 Q 654 112 818 125 Q 830 126 832 137 Q 832 144 809 160 L 759 172 Q 752 173 744 170 Q 635 143 549 130 C 519 125 525 94 555 93 Z" class="stroke10"/>
    
    
    
    
    
    
    
    
    
    </g>
</svg>