<svg version="1.1" viewBox="0 0 1024 1024" xmlns="http://www.w3.org/2000/svg">
  
  <g transform="scale(1, -1) translate(0, -900)">
    <style type="text/css">
        .stroke1 {fill: #808080;}
        .stroke2 {fill: #808079;}
        .stroke3 {fill: #808078;}
        .stroke4 {fill: #808077;}
        .stroke5 {fill: #808076;}
        .stroke6 {fill: #808075;}
        .stroke7 {fill: #808074;}
        .stroke8 {fill: #808073;}
        .stroke9 {fill: #808072;}
        .stroke10 {fill: #808071;}
        .stroke11 {fill: #808070;}
        .stroke12 {fill: #808069;}
        .stroke13 {fill: #808068;}
        .stroke14 {fill: #808067;}
        .stroke15 {fill: #808066;}
        .stroke16 {fill: #808065;}
        .stroke17 {fill: #808064;}
        .stroke18 {fill: #808063;}
        .stroke19 {fill: #808062;}
        .stroke20 {fill: #808061;}
        text {
            font-family: Helvetica;
            font-size: 50px;
            fill: #808060;
            paint-order: stroke;
            stroke: #000000;
            stroke-width: 4px;
            stroke-linecap: butt;
            stroke-linejoin: miter;
            font-weight: 800;
        }
    </style>

    <path d="M 269 686 Q 401 723 404 725 Q 413 732 408 741 Q 401 751 372 757 Q 342 761 259 729 Q 181 711 143 704 Q 109 697 134 682 Q 176 664 228 675 L 269 686 Z" class="stroke1"/>
    <path d="M 215 479 Q 246 534 290 624 Q 305 654 305 659 Q 298 677 269 686 C 241 697 224 704 228 675 Q 240 627 195 527 Q 185 508 174 485 L 151 447 Q 36 303 28 294 Q 21 290 31 288 Q 77 297 165 403 L 215 479 Z" class="stroke2"/>
    <path d="M 174 485 Q 167 488 158 489 Q 146 493 143 488 Q 136 482 144 467 Q 148 458 151 447 L 165 403 Q 175 360 183 303 Q 184 272 201 251 Q 217 230 223 245 Q 230 263 226 298 L 222 330 Q 210 418 208 448 L 174 485 Z" class="stroke3"/>
    <path d="M 369 365 Q 385 441 409 464 Q 430 489 407 503 Q 388 513 360 529 Q 342 538 299 512 Q 263 496 215 479 C 179 466 179 441 208 448 Q 215 449 304 476 Q 328 483 334 474 Q 341 468 334 435 Q 327 401 318 358 C 312 329 363 336 369 365 Z" class="stroke4"/>
    <path d="M 226 298 Q 304 317 391 331 Q 401 332 401 341 Q 401 348 371 365 L 369 365 L 318 358 Q 266 342 222 330 C 193 322 197 291 226 298 Z" class="stroke5"/>
    <path d="M 495 739 Q 482 748 464 754 Q 445 763 432 757 Q 422 750 428 736 Q 449 708 454 647 Q 454 422 428 306 Q 425 297 424 288 Q 391 171 316 35 Q 312 28 311 22 Q 310 12 319 14 Q 335 17 370 71 Q 506 249 508 602 Q 508 659 514 701 C 517 727 517 727 495 739 Z" class="stroke6"/>
    <path d="M 514 701 Q 515 702 519 703 Q 630 731 764 754 Q 782 755 790 745 Q 806 736 812 665 Q 831 427 818 154 Q 818 114 803 103 Q 790 93 719 110 Q 701 114 702 103 Q 703 94 717 88 Q 780 39 812 1 Q 836 -21 849 -18 Q 862 -14 875 17 Q 891 66 891 138 Q 861 672 885 719 Q 898 741 887 753 Q 877 769 828 794 Q 807 806 731 782 Q 526 743 495 739 C 465 734 485 693 514 701 Z" class="stroke7"/>
    <path d="M 673 572 Q 701 581 733 588 Q 757 594 760 597 Q 767 604 763 611 Q 756 620 733 625 Q 694 631 677 614 L 631 599 Q 600 593 561 586 Q 533 580 554 568 Q 584 552 632 562 L 673 572 Z" class="stroke8"/>
    <path d="M 666 496 Q 669 535 673 572 L 677 614 Q 677 620 690 685 Q 693 694 677 706 Q 649 721 631 724 Q 618 725 612 720 Q 606 714 612 702 Q 627 681 631 599 L 632 562 Q 632 526 632 487 C 632 457 664 466 666 496 Z" class="stroke9"/>
    <path d="M 632 487 Q 608 483 588 479 Q 564 476 539 471 Q 515 467 534 454 Q 556 438 598 445 Q 643 457 771 477 Q 778 476 786 487 Q 787 496 768 504 Q 744 520 670 497 Q 667 497 666 496 L 632 487 Z" class="stroke10"/>
    <path d="M 578 370 Q 571 374 539 379 Q 529 382 526 377 Q 522 371 529 359 Q 553 316 569 244 Q 573 223 586 209 Q 602 191 605 205 Q 609 218 606 244 L 599 276 Q 589 328 587 346 C 584 368 584 368 578 370 Z" class="stroke11"/>
    <path d="M 740 293 Q 755 336 770 350 Q 789 371 770 383 Q 754 393 732 408 Q 717 417 671 394 Q 631 382 578 370 C 549 363 559 335 587 346 Q 590 350 674 367 Q 699 373 705 362 Q 711 358 705 334 Q 701 318 697 300 C 690 271 730 265 740 293 Z" class="stroke12"/>
    <path d="M 606 244 Q 610 244 616 245 Q 658 255 749 263 Q 759 264 760 273 Q 760 280 740 293 L 697 300 Q 693 300 688 298 Q 639 285 599 276 C 570 269 576 242 606 244 Z" class="stroke13"/>
    
    
    
    
    
    
    
    
    
    
    
    
    </g>
</svg>