<svg version="1.1" viewBox="0 0 1024 1024" xmlns="http://www.w3.org/2000/svg">
  
  <g transform="scale(1, -1) translate(0, -900)">
    <style type="text/css">
        .stroke1 {fill: #808080;}
        .stroke2 {fill: #808079;}
        .stroke3 {fill: #808078;}
        .stroke4 {fill: #808077;}
        .stroke5 {fill: #808076;}
        .stroke6 {fill: #808075;}
        .stroke7 {fill: #808074;}
        .stroke8 {fill: #808073;}
        .stroke9 {fill: #808072;}
        .stroke10 {fill: #808071;}
        .stroke11 {fill: #808070;}
        .stroke12 {fill: #808069;}
        .stroke13 {fill: #808068;}
        .stroke14 {fill: #808067;}
        .stroke15 {fill: #808066;}
        .stroke16 {fill: #808065;}
        .stroke17 {fill: #808064;}
        .stroke18 {fill: #808063;}
        .stroke19 {fill: #808062;}
        .stroke20 {fill: #808061;}
        text {
            font-family: Helvetica;
            font-size: 50px;
            fill: #808060;
            paint-order: stroke;
            stroke: #000000;
            stroke-width: 4px;
            stroke-linecap: butt;
            stroke-linejoin: miter;
            font-weight: 800;
        }
    </style>

    <path d="M 253 589 Q 407 631 417 639 Q 426 648 420 656 Q 413 668 382 673 Q 351 677 321 662 Q 282 646 241 633 Q 195 620 139 611 Q 102 602 130 587 Q 164 569 212 577 L 253 589 Z" class="stroke1"/>
    <path d="M 221 370 Q 246 425 263 470 Q 278 515 290 537 Q 294 549 285 561 Q 269 580 253 589 C 228 606 204 606 212 577 Q 221 547 220 523 Q 219 522 219 519 Q 207 449 176 373 L 156 330 Q 81 195 35 131 Q 31 125 31 119 Q 31 115 37 116 Q 82 125 171 274 L 221 370 Z" class="stroke2"/>
    <path d="M 176 373 Q 169 374 159 377 Q 149 380 145 375 Q 139 371 146 355 Q 150 343 156 330 L 171 274 Q 180 235 187 184 Q 188 153 206 131 Q 221 110 226 125 Q 232 143 230 174 L 226 206 Q 208 308 207 339 C 205 367 205 367 176 373 Z" class="stroke3"/>
    <path d="M 366 237 Q 381 328 404 355 Q 423 380 402 393 Q 341 421 338 421 Q 329 421 322 415 Q 292 391 221 370 C 192 361 176 341 206 340 L 207 339 Q 216 340 229 344 Q 269 357 303 366 Q 325 373 332 364 Q 339 358 334 321 Q 327 284 319 238 C 314 208 361 207 366 237 Z" class="stroke4"/>
    <path d="M 230 174 Q 240 173 252 177 Q 292 190 383 205 Q 393 206 394 216 Q 394 223 366 237 L 319 238 Q 316 238 314 236 Q 266 218 226 206 C 197 197 200 175 230 174 Z" class="stroke5"/>
    <path d="M 586 756 Q 617 734 650 709 Q 666 697 682 700 Q 692 701 697 716 Q 700 732 687 762 Q 672 793 574 805 Q 558 806 552 803 Q 548 799 550 785 Q 554 775 586 756 Z" class="stroke6"/>
    <path d="M 738 602 Q 756 608 776 611 Q 816 621 823 627 Q 832 636 827 644 Q 820 656 790 663 Q 766 667 644 630 Q 544 611 509 606 Q 472 599 499 582 Q 544 558 599 573 Q 648 585 703 595 L 738 602 Z" class="stroke7"/>
    <path d="M 500 477 Q 521 452 542 422 Q 552 409 566 407 Q 575 406 581 417 Q 588 429 584 456 Q 581 481 503 519 Q 490 523 484 523 Q 480 520 479 509 Q 480 499 500 477 Z" class="stroke8"/>
    <path d="M 689 390 Q 704 411 746 494 Q 756 516 776 543 Q 789 556 781 566 Q 772 581 738 602 C 713 618 690 622 703 595 Q 703 594 706 589 Q 718 552 663 408 Q 657 395 656 383 C 652 353 672 365 689 390 Z" class="stroke9"/>
    <path d="M 656 383 Q 646 382 640 380 Q 540 361 423 338 Q 402 335 419 319 Q 432 307 451 303 Q 470 299 486 304 Q 675 364 889 364 Q 890 364 894 364 Q 913 365 917 374 Q 921 386 905 398 Q 848 438 796 416 Q 750 406 689 390 L 656 383 Z" class="stroke10"/>
    <path d="M 520 223 Q 507 227 480 233 Q 468 236 465 231 Q 458 225 467 209 Q 495 145 512 43 Q 515 12 532 -8 Q 550 -30 555 -15 Q 559 -3 559 14 L 556 51 Q 538 157 535 191 C 532 220 532 220 520 223 Z" class="stroke11"/>
    <path d="M 779 84 Q 803 177 839 204 Q 855 223 840 242 Q 824 255 769 280 Q 748 289 675 258 Q 563 231 520 223 C 491 217 505 186 535 191 Q 547 192 714 227 Q 733 231 740 224 Q 750 214 749 194 Q 739 133 726 84 C 719 55 771 55 779 84 Z" class="stroke12"/>
    <path d="M 559 14 Q 566 14 574 15 Q 646 31 799 44 Q 809 45 812 54 Q 812 63 780 84 L 779 84 L 726 84 Q 632 62 556 51 C 526 47 529 13 559 14 Z" class="stroke13"/>
    
    
    
    
    
    
    
    
    
    
    
    
    </g>
</svg>