<svg version="1.1" viewBox="0 0 1024 1024" xmlns="http://www.w3.org/2000/svg">
  
  <g transform="scale(1, -1) translate(0, -900)">
    <style type="text/css">
        .stroke1 {fill: #808080;}
        .stroke2 {fill: #808079;}
        .stroke3 {fill: #808078;}
        .stroke4 {fill: #808077;}
        .stroke5 {fill: #808076;}
        .stroke6 {fill: #808075;}
        .stroke7 {fill: #808074;}
        .stroke8 {fill: #808073;}
        .stroke9 {fill: #808072;}
        .stroke10 {fill: #808071;}
        .stroke11 {fill: #808070;}
        .stroke12 {fill: #808069;}
        .stroke13 {fill: #808068;}
        .stroke14 {fill: #808067;}
        .stroke15 {fill: #808066;}
        .stroke16 {fill: #808065;}
        .stroke17 {fill: #808064;}
        .stroke18 {fill: #808063;}
        .stroke19 {fill: #808062;}
        .stroke20 {fill: #808061;}
        text {
            font-family: Helvetica;
            font-size: 50px;
            fill: #808060;
            paint-order: stroke;
            stroke: #000000;
            stroke-width: 4px;
            stroke-linecap: butt;
            stroke-linejoin: miter;
            font-weight: 800;
        }
    </style>

    <path d="M 286 640 Q 433 683 437 687 Q 446 696 440 704 Q 433 716 402 721 Q 377 724 288 690 Q 215 669 175 663 Q 138 654 166 639 Q 199 624 237 627 L 286 640 Z" class="stroke1"/>
    <path d="M 250 450 Q 275 502 306 577 Q 321 610 320 614 Q 314 630 286 640 C 258 652 232 657 237 627 Q 253 567 199 445 L 177 400 Q 167 387 159 370 Q 129 321 51 223 Q 44 217 55 216 Q 106 232 192 348 L 250 450 Z" class="stroke2"/>
    <path d="M 199 445 Q 192 448 182 449 Q 170 453 167 448 Q 160 442 168 427 Q 172 415 177 400 L 192 348 Q 201 308 207 257 Q 208 226 225 204 Q 241 182 247 197 Q 254 219 250 262 L 245 296 Q 233 389 233 416 L 199 445 Z" class="stroke3"/>
    <path d="M 381 320 Q 400 399 424 423 Q 446 448 423 462 Q 360 495 357 495 Q 348 495 340 489 Q 321 477 250 450 C 222 439 202 414 231 417 L 233 416 Q 269 428 319 439 Q 343 445 349 436 Q 356 429 332 323 C 325 294 374 291 381 320 Z" class="stroke4"/>
    <path d="M 250 262 Q 280 272 394 289 Q 404 290 405 300 Q 405 307 381 320 L 332 323 Q 329 324 326 322 Q 283 307 245 296 C 216 288 221 253 250 262 Z" class="stroke5"/>
    <path d="M 694 724 Q 842 763 848 766 Q 855 773 851 781 Q 844 791 817 798 Q 790 802 763 791 Q 718 775 669 760 Q 615 747 551 738 Q 548 738 546 736 C 517 728 527 717 556 710 Q 595 700 632 710 Q 639 713 649 714 L 694 724 Z" class="stroke6"/>
    <path d="M 546 736 Q 528 751 504 760 Q 483 767 475 757 Q 468 750 477 738 Q 502 689 492 441 Q 488 408 481 377 Q 475 355 492 338 Q 514 320 535 335 C 544 339 543 382 543 412 Q 539 658 556 710 C 560 726 560 726 546 736 Z" class="stroke7"/>
    <path d="M 717 612 Q 793 633 797 636 Q 804 643 799 650 Q 792 660 767 664 Q 742 668 719 657 L 662 638 Q 637 634 609 629 Q 578 622 602 608 Q 623 596 662 599 L 717 612 Z" class="stroke8"/>
    <path d="M 711 506 Q 802 531 804 532 Q 811 539 807 546 Q 800 556 775 561 Q 759 564 713 549 L 662 533 Q 637 529 610 524 Q 579 517 602 504 Q 626 492 662 494 L 711 506 Z" class="stroke9"/>
    <path d="M 713 549 Q 714 582 717 612 L 719 657 Q 723 696 719 702 Q 706 715 694 724 C 671 743 638 742 649 714 Q 661 689 662 638 L 662 599 Q 662 572 662 533 L 662 494 Q 663 458 663 412 C 663 382 707 390 708 420 Q 709 465 711 506 L 713 549 Z" class="stroke10"/>
    <path d="M 535 335 Q 577 365 721 388 Q 857 410 877 392 Q 890 382 877 337 Q 841 133 800 81 Q 791 72 734 88 Q 704 100 702 91 Q 702 85 710 75 Q 750 20 761 -16 Q 768 -40 789 -30 Q 864 -3 883 79 Q 911 185 935 305 Q 944 345 964 377 Q 979 395 966 408 Q 948 430 909 453 Q 887 466 856 454 Q 808 433 764 429 Q 740 428 708 420 L 663 412 Q 623 406 573 396 Q 545 389 543 412 C 521 432 509 321 535 335 Z" class="stroke11"/>
    <path d="M 416 261 Q 398 206 371 154 Q 356 117 375 88 Q 385 70 405 85 Q 450 130 447 206 Q 448 239 439 263 Q 433 270 427 271 Q 420 270 416 261 Z" class="stroke12"/>
    <path d="M 502 251 Q 517 188 535 165 Q 544 156 556 162 Q 566 169 571 182 Q 577 222 526 274 Q 516 284 508 285 Q 504 286 500 277 Q 496 268 502 251 Z" class="stroke13"/>
    <path d="M 613 275 Q 631 221 650 202 Q 660 195 672 202 Q 681 209 684 224 Q 684 260 635 301 Q 623 310 615 310 Q 611 311 608 300 Q 607 291 613 275 Z" class="stroke14"/>
    <path d="M 729 296 Q 748 271 767 241 Q 776 228 789 225 Q 798 224 805 233 Q 812 245 810 271 Q 807 301 735 338 Q 722 344 716 343 Q 712 340 710 329 Q 711 319 729 296 Z" class="stroke15"/>
    
    
    
    
    
    
    
    
    
    
    
    
    
    
    </g>
</svg>