<svg version="1.1" viewBox="0 0 1024 1024" xmlns="http://www.w3.org/2000/svg">
  
  <g transform="scale(1, -1) translate(0, -900)">
    <style type="text/css">
        .stroke1 {fill: #808080;}
        .stroke2 {fill: #808079;}
        .stroke3 {fill: #808078;}
        .stroke4 {fill: #808077;}
        .stroke5 {fill: #808076;}
        .stroke6 {fill: #808075;}
        .stroke7 {fill: #808074;}
        .stroke8 {fill: #808073;}
        .stroke9 {fill: #808072;}
        .stroke10 {fill: #808071;}
        .stroke11 {fill: #808070;}
        .stroke12 {fill: #808069;}
        .stroke13 {fill: #808068;}
        .stroke14 {fill: #808067;}
        .stroke15 {fill: #808066;}
        .stroke16 {fill: #808065;}
        .stroke17 {fill: #808064;}
        .stroke18 {fill: #808063;}
        .stroke19 {fill: #808062;}
        .stroke20 {fill: #808061;}
        text {
            font-family: Helvetica;
            font-size: 50px;
            fill: #808060;
            paint-order: stroke;
            stroke: #000000;
            stroke-width: 4px;
            stroke-linecap: butt;
            stroke-linejoin: miter;
            font-weight: 800;
        }
    </style>

    <path d="M 395 703 Q 423 710 453 716 Q 490 725 495 729 Q 502 736 498 743 Q 492 752 469 758 Q 438 764 400 745 L 347 730 Q 269 715 227 710 Q 197 706 218 691 Q 254 673 300 684 Q 322 690 350 694 L 395 703 Z" class="stroke1"/>
    <path d="M 386 633 Q 390 670 395 703 L 400 745 Q 400 749 401 753 Q 404 768 406 777 Q 412 801 397 813 Q 369 828 350 832 Q 337 835 330 828 Q 323 821 330 809 Q 342 793 347 730 L 350 694 Q 351 661 351 623 C 351 593 383 603 386 633 Z" class="stroke2"/>
    <path d="M 351 623 Q 323 617 298 612 Q 277 609 254 605 Q 235 601 250 590 Q 268 575 307 582 Q 344 592 461 613 Q 468 612 474 621 Q 475 630 458 636 Q 437 649 386 633 L 351 623 Z" class="stroke3"/>
    <path d="M 458 436 Q 476 493 500 509 Q 513 524 501 537 Q 441 582 401 558 Q 334 534 246 518 C 217 513 221 482 249 492 Q 273 501 317 507 L 346 513 Q 371 520 402 526 Q 421 530 428 523 Q 435 517 433 504 Q 427 473 421 445 C 415 416 449 408 458 436 Z" class="stroke4"/>
    <path d="M 317 507 Q 317 506 318 505 Q 319 499 320 419 C 320 389 352 398 356 428 Q 359 449 363 466 Q 364 470 364 473 Q 371 486 365 493 Q 355 505 346 513 C 324 533 307 535 317 507 Z" class="stroke5"/>
    <path d="M 235 379 Q 236 378 240 377 Q 250 376 261 378 Q 325 394 466 410 Q 475 411 476 418 Q 476 424 458 436 C 440 449 440 449 421 445 Q 414 444 409 442 Q 381 435 356 428 L 320 419 Q 274 412 237 404 C 208 398 206 387 235 379 Z" class="stroke6"/>
    <path d="M 246 518 Q 245 519 243 520 Q 201 547 178 535 Q 168 531 174 518 Q 204 479 185 350 Q 184 347 184 342 Q 163 255 69 160 Q 60 154 54 145 Q 44 135 54 135 Q 102 141 161 205 Q 221 272 235 379 L 237 404 Q 238 426 242 448 Q 242 470 249 492 C 255 513 255 513 246 518 Z" class="stroke7"/>
    <path d="M 577 771 Q 550 787 538 782 Q 531 776 536 767 Q 537 764 540 760 Q 546 688 546 656 Q 545 650 544 643 Q 541 630 519 571 Q 516 567 515 562 Q 514 555 521 556 Q 542 559 569 617 Q 587 657 591 711 Q 592 721 593 730 Q 593 736 594 740 C 596 760 596 760 577 771 Z" class="stroke8"/>
    <path d="M 846 644 Q 859 648 851 662 Q 838 678 822 686 Q 812 692 791 683 Q 731 656 719 686 Q 715 698 724 727 Q 727 743 748 761 Q 763 774 748 787 Q 727 803 704 813 Q 694 817 679 808 Q 633 784 577 771 C 548 764 566 730 594 740 Q 615 747 650 763 Q 666 770 672 768 Q 679 767 678 753 Q 672 665 700 643 Q 725 628 774 629 Q 822 630 846 644 Z" class="stroke9"/>
    <path d="M 690 439 Q 714 472 730 518 Q 737 543 752 557 Q 765 567 751 579 Q 736 592 711 603 Q 695 609 679 602 Q 643 583 592 574 Q 573 573 563 567 Q 556 563 570 554 Q 588 545 673 567 Q 686 571 688 556 Q 688 511 658 463 L 636 433 Q 630 429 626 423 Q 589 392 496 367 Q 484 364 491 358 Q 497 354 518 355 Q 581 361 617 376 Q 639 386 661 405 L 690 439 Z" class="stroke10"/>
    <path d="M 661 405 Q 706 357 787 295 Q 815 279 850 291 Q 937 315 954 325 Q 961 332 950 338 Q 935 345 828 372 Q 773 384 690 439 L 658 463 Q 628 487 597 516 Q 579 532 553 533 Q 543 533 537 527 Q 534 523 542 517 Q 548 513 554 509 Q 575 502 636 433 L 661 405 Z" class="stroke11"/>
    <path d="M 411 241 Q 636 283 642 286 Q 651 293 646 301 Q 640 311 614 320 Q 586 326 491 297 Q 361 276 325 273 Q 292 269 315 253 Q 330 244 365 237 L 411 241 Z" class="stroke12"/>
    <path d="M 389 155 Q 405 177 427 198 Q 434 202 434 210 Q 431 229 411 241 C 387 259 367 267 365 237 Q 365 171 250 61 Q 247 60 245 57 Q 211 26 126 -34 Q 119 -38 127 -41 Q 190 -41 301 58 Q 304 62 307 64 Q 326 83 354 113 L 389 155 Z" class="stroke13"/>
    <path d="M 397 149 Q 396 153 394 154 Q 393 155 389 155 C 360 163 342 140 354 113 Q 372 73 386 16 Q 390 -8 405 -23 Q 421 -41 426 -27 Q 427 -18 428 -7 L 423 26 Q 408 90 404 118 L 397 149 Z" class="stroke14"/>
    <path d="M 690 44 Q 715 99 747 121 Q 765 139 751 157 Q 735 172 684 199 Q 666 208 644 200 Q 542 163 397 149 C 367 146 374 114 404 118 Q 410 118 621 153 Q 643 157 653 148 Q 660 141 658 126 Q 649 89 639 57 C 630 28 677 17 690 44 Z" class="stroke15"/>
    <path d="M 428 -7 Q 435 -8 447 -7 Q 525 8 694 14 Q 704 15 707 23 Q 707 30 690 44 L 639 57 Q 635 58 631 57 Q 516 35 423 26 C 393 23 398 -5 428 -7 Z" class="stroke16"/>
    
    
    
    
    
    
    
    
    
    
    
    
    
    
    
    </g>
</svg>