<svg version="1.1" viewBox="0 0 1024 1024" xmlns="http://www.w3.org/2000/svg">
  
  <g transform="scale(1, -1) translate(0, -900)">
    <style type="text/css">
        .stroke1 {fill: #808080;}
        .stroke2 {fill: #808079;}
        .stroke3 {fill: #808078;}
        .stroke4 {fill: #808077;}
        .stroke5 {fill: #808076;}
        .stroke6 {fill: #808075;}
        .stroke7 {fill: #808074;}
        .stroke8 {fill: #808073;}
        .stroke9 {fill: #808072;}
        .stroke10 {fill: #808071;}
        .stroke11 {fill: #808070;}
        .stroke12 {fill: #808069;}
        .stroke13 {fill: #808068;}
        .stroke14 {fill: #808067;}
        .stroke15 {fill: #808066;}
        .stroke16 {fill: #808065;}
        .stroke17 {fill: #808064;}
        .stroke18 {fill: #808063;}
        .stroke19 {fill: #808062;}
        .stroke20 {fill: #808061;}
        text {
            font-family: Helvetica;
            font-size: 50px;
            fill: #808060;
            paint-order: stroke;
            stroke: #000000;
            stroke-width: 4px;
            stroke-linecap: butt;
            stroke-linejoin: miter;
            font-weight: 800;
        }
    </style>

    <path d="M 353 675 Q 310 669 340 649 Q 392 618 456 634 Q 547 650 644 667 Q 687 677 694 682 Q 704 692 699 702 Q 692 715 657 725 Q 623 732 517 700 Q 376 678 353 675 Z" class="stroke1"/>
    <path d="M 515 427 Q 633 440 808 439 Q 887 436 896 449 Q 902 462 883 479 Q 814 530 747 509 Q 506 467 135 422 Q 110 419 128 399 Q 144 383 166 377 Q 191 370 210 376 Q 324 406 472 423 L 515 427 Z" class="stroke2"/>
    <path d="M 438 85 Q 413 92 381 100 Q 368 103 369 96 Q 370 89 380 79 Q 447 27 492 -15 Q 504 -24 517 -8 Q 559 52 551 156 Q 545 270 551 363 Q 557 390 551 400 Q 544 412 515 427 C 489 442 461 451 472 423 Q 472 416 479 406 Q 489 381 489 342 Q 490 278 491 131 Q 490 97 479 84 Q 467 77 438 85 Z" class="stroke3"/>
    <path d="M 276 284 Q 239 232 193 186 Q 165 159 175 116 Q 179 95 204 104 Q 267 132 290 217 Q 303 251 301 279 Q 298 289 292 291 Q 282 292 276 284 Z" class="stroke4"/>
    <path d="M 686 267 Q 744 213 815 136 Q 831 114 848 109 Q 857 108 865 119 Q 878 132 865 179 Q 858 224 772 262 Q 717 289 687 300 Q 677 306 675 293 Q 674 278 686 267 Z" class="stroke5"/>
    
    
    
    
    </g>
</svg>