<svg version="1.1" viewBox="0 0 1024 1024" xmlns="http://www.w3.org/2000/svg">
  
  <g transform="scale(1, -1) translate(0, -900)">
    <style type="text/css">
        .stroke1 {fill: #808080;}
        .stroke2 {fill: #808079;}
        .stroke3 {fill: #808078;}
        .stroke4 {fill: #808077;}
        .stroke5 {fill: #808076;}
        .stroke6 {fill: #808075;}
        .stroke7 {fill: #808074;}
        .stroke8 {fill: #808073;}
        .stroke9 {fill: #808072;}
        .stroke10 {fill: #808071;}
        .stroke11 {fill: #808070;}
        .stroke12 {fill: #808069;}
        .stroke13 {fill: #808068;}
        .stroke14 {fill: #808067;}
        .stroke15 {fill: #808066;}
        .stroke16 {fill: #808065;}
        .stroke17 {fill: #808064;}
        .stroke18 {fill: #808063;}
        .stroke19 {fill: #808062;}
        .stroke20 {fill: #808061;}
        text {
            font-family: Helvetica;
            font-size: 50px;
            fill: #808060;
            paint-order: stroke;
            stroke: #000000;
            stroke-width: 4px;
            stroke-linecap: butt;
            stroke-linejoin: miter;
            font-weight: 800;
        }
    </style>

    <path d="M 467 816 Q 495 797 526 773 Q 541 763 555 765 Q 565 766 569 780 Q 572 795 560 822 Q 547 849 456 861 Q 441 862 436 859 Q 432 855 434 843 Q 438 833 467 816 Z" class="stroke1"/>
    <path d="M 203 693 Q 184 690 198 675 Q 211 662 228 657 Q 247 653 263 657 Q 468 714 793 715 Q 794 715 796 715 Q 815 715 819 723 Q 823 733 809 747 Q 761 783 725 774 Q 572 741 203 693 Z" class="stroke2"/>
    <path d="M 301 627 Q 291 631 276 632 Q 264 635 261 630 Q 254 623 264 608 Q 294 547 314 448 Q 318 418 336 399 Q 354 377 359 393 Q 360 399 361 406 L 361 432 Q 360 445 357 459 Q 338 562 332 593 C 327 619 327 619 301 627 Z" class="stroke3"/>
    <path d="M 647 442 Q 654 424 668 425 Q 681 428 689 443 Q 699 456 717 524 Q 732 579 768 611 Q 787 627 770 644 Q 751 660 698 686 Q 683 695 608 677 Q 566 677 422 646 Q 350 633 301 627 C 271 623 302 588 332 593 Q 338 593 344 594 Q 428 619 619 641 Q 653 644 665 636 Q 674 632 671 603 Q 658 500 649 476 C 642 449 642 449 647 442 Z" class="stroke4"/>
    <path d="M 429 576 Q 422 580 397 583 Q 388 584 386 581 Q 382 577 389 564 Q 405 537 419 491 Q 422 476 432 468 Q 445 452 449 464 Q 450 468 450 474 L 448 497 Q 441 539 439 554 C 436 573 436 573 429 576 Z" class="stroke5"/>
    <path d="M 583 515 Q 598 549 611 559 Q 629 578 611 590 Q 596 600 576 614 Q 561 623 546 614 Q 524 601 494 591 Q 467 584 429 576 C 400 570 410 545 439 554 Q 457 560 523 575 Q 547 581 552 571 Q 555 568 551 553 Q 547 538 542 521 C 534 492 571 488 583 515 Z" class="stroke6"/>
    <path d="M 450 474 Q 454 474 462 475 Q 502 485 588 494 Q 595 495 596 501 Q 596 505 583 515 C 571 524 571 524 542 521 Q 541 522 539 521 Q 490 506 448 497 C 419 491 420 473 450 474 Z" class="stroke7"/>
    <path d="M 361 406 Q 374 405 390 407 Q 535 429 647 442 C 677 445 679 476 649 476 Q 633 477 607 472 Q 475 450 361 432 C 331 427 331 407 361 406 Z" class="stroke8"/>
    <path d="M 347 345 Q 310 341 336 322 Q 378 295 435 308 Q 523 321 617 337 Q 659 346 666 351 Q 675 358 671 368 Q 664 380 634 389 Q 613 395 500 366 Q 419 351 347 345 Z" class="stroke9"/>
    <path d="M 522 233 Q 598 239 860 240 Q 882 240 887 249 Q 893 262 875 277 Q 814 323 750 305 Q 561 272 146 228 Q 124 225 140 207 Q 155 192 174 186 Q 196 180 214 184 Q 349 220 486 230 L 522 233 Z" class="stroke10"/>
    <path d="M 486 230 Q 486 227 488 223 Q 500 187 494 81 Q 491 68 490 65 Q 487 49 456 50 Q 425 54 391 59 Q 379 59 379 52 Q 378 46 389 38 Q 462 -8 488 -38 Q 504 -51 516 -47 Q 526 -43 538 -11 Q 554 22 550 81 Q 549 135 550 154 Q 559 194 542 215 Q 532 225 522 233 C 499 252 478 259 486 230 Z" class="stroke11"/>
    <path d="M 318 159 Q 282 122 241 90 Q 211 65 217 28 Q 218 9 243 13 Q 300 34 324 96 Q 340 126 341 152 Q 340 161 334 164 Q 325 165 318 159 Z" class="stroke12"/>
    <path d="M 639 144 Q 699 96 770 25 Q 788 4 804 1 Q 814 0 821 11 Q 834 26 818 71 Q 800 126 639 177 Q 629 181 628 169 Q 628 154 639 144 Z" class="stroke13"/>
    
    
    
    
    
    
    
    
    
    
    
    
    </g>
</svg>