<svg version="1.1" viewBox="0 0 1024 1024" xmlns="http://www.w3.org/2000/svg">
  
  <g transform="scale(1, -1) translate(0, -900)">
    <style type="text/css">
        .stroke1 {fill: #808080;}
        .stroke2 {fill: #808079;}
        .stroke3 {fill: #808078;}
        .stroke4 {fill: #808077;}
        .stroke5 {fill: #808076;}
        .stroke6 {fill: #808075;}
        .stroke7 {fill: #808074;}
        .stroke8 {fill: #808073;}
        .stroke9 {fill: #808072;}
        .stroke10 {fill: #808071;}
        .stroke11 {fill: #808070;}
        .stroke12 {fill: #808069;}
        .stroke13 {fill: #808068;}
        .stroke14 {fill: #808067;}
        .stroke15 {fill: #808066;}
        .stroke16 {fill: #808065;}
        .stroke17 {fill: #808064;}
        .stroke18 {fill: #808063;}
        .stroke19 {fill: #808062;}
        .stroke20 {fill: #808061;}
        text {
            font-family: Helvetica;
            font-size: 50px;
            fill: #808060;
            paint-order: stroke;
            stroke: #000000;
            stroke-width: 4px;
            stroke-linecap: butt;
            stroke-linejoin: miter;
            font-weight: 800;
        }
    </style>

    <path d="M 272 770 Q 306 745 341 715 Q 357 703 373 705 Q 385 706 389 720 Q 393 736 381 767 Q 374 789 337 803 Q 253 828 240 819 Q 234 815 237 801 Q 241 791 272 770 Z" class="stroke1"/>
    <path d="M 261 407 Q 346 540 382 567 Q 395 577 384 591 Q 366 604 339 613 Q 318 620 303 609 Q 269 584 248 575 Q 223 566 182 557 Q 139 550 106 546 Q 96 547 93 540 Q 92 531 104 522 Q 138 500 154 503 Q 163 506 270 553 Q 283 559 286 553 Q 292 546 281 524 Q 214 383 63 231 Q 50 221 52 217 Q 55 214 67 220 Q 152 265 237 374 L 261 407 Z" class="stroke2"/>
    <path d="M 237 374 Q 267 308 237 135 Q 218 39 249 6 Q 264 -7 273 15 Q 286 49 285 87 Q 285 298 292 345 Q 299 367 290 376 Q 275 394 261 407 C 240 428 226 402 237 374 Z" class="stroke3"/>
    <path d="M 333 390 Q 382 341 393 339 Q 400 339 406 349 Q 410 359 404 381 Q 401 396 379 408 Q 325 429 316 426 Q 312 425 313 414 Q 314 407 333 390 Z" class="stroke4"/>
    <path d="M 644 735 Q 708 754 777 770 Q 822 783 828 790 Q 835 797 831 805 Q 824 815 797 821 Q 769 825 743 813 Q 692 792 637 775 Q 576 757 503 746 Q 469 739 494 725 Q 533 707 586 721 Q 592 724 601 724 L 644 735 Z" class="stroke5"/>
    <path d="M 477 628 Q 464 603 401 523 Q 394 510 407 513 Q 450 544 474 565 Q 529 613 542 618 Q 558 627 549 640 Q 539 652 518 662 Q 499 671 490 668 Q 480 667 484 657 Q 487 644 477 628 Z" class="stroke6"/>
    <path d="M 776 672 Q 836 648 910 609 Q 926 599 939 600 Q 945 601 948 610 Q 954 623 933 651 Q 912 687 769 695 Q 762 696 763 687 Q 766 677 776 672 Z" class="stroke7"/>
    <path d="M 631 485 Q 628 385 628 275 Q 625 211 609 152 Q 602 122 621 70 Q 627 55 633 53 Q 639 47 644 54 Q 651 58 659 75 Q 666 94 666 121 Q 665 160 666 493 L 666 519 Q 666 624 681 683 Q 688 696 686 706 Q 680 713 644 735 C 619 751 586 750 601 724 Q 628 685 628 630 Q 628 572 631 511 L 631 485 Z" class="stroke8"/>
    <path d="M 458 481 Q 434 494 418 493 Q 406 489 411 479 Q 459 370 411 172 Q 390 118 393 107 Q 394 80 409 64 Q 415 52 424 57 Q 458 82 462 197 Q 469 404 475 447 C 478 471 478 471 458 481 Z" class="stroke9"/>
    <path d="M 666 493 Q 795 526 811 512 Q 821 505 826 455 Q 839 284 831 91 Q 831 63 820 55 Q 808 45 747 54 Q 732 55 734 47 Q 735 40 747 36 Q 802 -1 832 -30 Q 851 -46 863 -45 Q 875 -41 884 -16 Q 897 26 894 85 Q 870 457 888 493 Q 898 512 888 523 Q 878 536 836 556 Q 818 563 801 560 Q 758 544 666 519 L 631 511 Q 546 495 458 481 C 428 476 446 440 475 447 Q 481 447 489 449 Q 553 468 631 485 L 666 493 Z" class="stroke10"/>
    <path d="M 569 374 Q 588 411 596 418 Q 599 421 598 426 Q 597 430 590 436 Q 571 448 557 443 Q 553 442 555 436 Q 559 421 548 390 Q 547 389 546 387 L 535 363 Q 534 362 532 358 Q 523 343 500 314 Q 496 311 501 310 Q 522 320 550 348 L 569 374 Z" class="stroke11"/>
    <path d="M 550 348 Q 583 315 589 313 Q 593 313 596 318 Q 602 324 595 344 Q 592 360 569 374 L 546 387 Q 515 403 498 410 Q 494 413 493 407 Q 493 406 535 363 L 550 348 Z" class="stroke12"/>
    <path d="M 569 224 Q 584 249 596 259 Q 600 265 598 271 Q 597 277 583 288 Q 570 297 561 297 Q 552 296 556 286 Q 559 277 545 241 L 533 217 Q 532 216 532 215 Q 516 190 495 163 Q 491 159 489 155 Q 488 151 494 151 Q 501 154 548 199 L 569 224 Z" class="stroke13"/>
    <path d="M 548 199 Q 573 169 580 166 Q 584 165 588 169 Q 594 175 590 196 Q 589 209 569 224 L 545 241 Q 518 257 502 266 Q 498 269 497 263 Q 497 262 533 217 L 548 199 Z" class="stroke14"/>
    <path d="M 752 403 Q 759 413 768 426 Q 783 456 784 459 Q 781 465 767 476 Q 754 485 743 484 Q 734 483 738 472 Q 745 460 725 414 L 713 392 Q 682 341 681 339 Q 680 335 686 335 Q 695 338 732 377 L 752 403 Z" class="stroke15"/>
    <path d="M 732 377 Q 777 341 780 340 Q 784 340 788 346 Q 794 353 785 374 Q 778 393 752 403 L 725 414 Q 700 424 687 427 Q 683 428 681 423 Q 681 417 713 392 L 732 377 Z" class="stroke16"/>
    <path d="M 759 241 Q 798 295 800 299 Q 799 300 799 301 Q 798 308 782 320 Q 769 330 758 330 Q 748 329 752 318 Q 758 305 733 256 L 721 235 Q 708 216 692 193 Q 686 187 685 184 Q 684 178 691 179 Q 700 182 738 218 L 759 241 Z" class="stroke17"/>
    <path d="M 738 218 Q 784 167 792 165 Q 796 164 800 170 Q 807 176 800 198 Q 797 217 759 241 L 733 256 Q 705 275 687 282 Q 683 285 681 279 Q 681 270 721 235 L 738 218 Z" class="stroke18"/>
    
    
    
    
    
    
    
    
    
    
    
    
    
    
    
    
    
    </g>
</svg>