<svg version="1.1" viewBox="0 0 1024 1024" xmlns="http://www.w3.org/2000/svg">
  
  <g transform="scale(1, -1) translate(0, -900)">
    <style type="text/css">
        .stroke1 {fill: #808080;}
        .stroke2 {fill: #808079;}
        .stroke3 {fill: #808078;}
        .stroke4 {fill: #808077;}
        .stroke5 {fill: #808076;}
        .stroke6 {fill: #808075;}
        .stroke7 {fill: #808074;}
        .stroke8 {fill: #808073;}
        .stroke9 {fill: #808072;}
        .stroke10 {fill: #808071;}
        .stroke11 {fill: #808070;}
        .stroke12 {fill: #808069;}
        .stroke13 {fill: #808068;}
        .stroke14 {fill: #808067;}
        .stroke15 {fill: #808066;}
        .stroke16 {fill: #808065;}
        .stroke17 {fill: #808064;}
        .stroke18 {fill: #808063;}
        .stroke19 {fill: #808062;}
        .stroke20 {fill: #808061;}
        text {
            font-family: Helvetica;
            font-size: 50px;
            fill: #808060;
            paint-order: stroke;
            stroke: #000000;
            stroke-width: 4px;
            stroke-linecap: butt;
            stroke-linejoin: miter;
            font-weight: 800;
        }
    </style>

    <path d="M 313 674 Q 409 720 451 730 Q 467 731 471 740 Q 475 750 462 761 Q 402 800 368 796 Q 361 792 360 781 Q 361 741 156 636 Q 152 627 158 624 Q 177 624 264 657 Q 273 660 283 663 L 313 674 Z" class="stroke1"/>
    <path d="M 344 496 Q 387 508 441 517 Q 459 521 459 528 Q 459 541 440 550 Q 409 562 345 542 L 302 530 Q 152 494 91 485 Q 78 482 75 474 Q 74 464 89 452 Q 131 425 173 441 Q 240 468 289 481 L 344 496 Z" class="stroke2"/>
    <path d="M 343 419 Q 343 458 344 496 L 345 542 Q 346 600 352 631 Q 355 644 347 650 Q 328 666 313 674 C 288 690 273 691 283 663 Q 295 645 301 546 Q 301 539 302 530 L 301 402 Q 301 204 280 119 Q 259 80 314 7 Q 318 1 324 -2 Q 336 -3 341 10 Q 353 43 349 73 Q 345 242 343 386 L 343 419 Z" class="stroke3"/>
    <path d="M 289 481 Q 228 360 67 182 Q 61 172 72 170 Q 93 167 206 278 Q 255 327 301 402 C 362 500 303 508 289 481 Z" class="stroke4"/>
    <path d="M 343 386 Q 421 308 423 307 Q 426 307 430 306 Q 440 306 445 317 Q 451 329 445 355 Q 438 388 355 416 Q 349 419 343 419 C 313 422 322 407 343 386 Z" class="stroke5"/>
    <path d="M 474 486 Q 499 399 524 388 Q 537 382 550 397 Q 557 410 556 433 Q 552 452 533 471 Q 505 502 490 511 Q 481 515 476 505 Q 472 498 474 486 Z" class="stroke6"/>
    <path d="M 781 580 Q 760 544 711 487 Q 701 469 718 473 Q 745 486 824 532 Q 845 548 870 558 Q 892 568 882 587 Q 869 606 841 621 Q 816 637 803 634 Q 790 633 794 618 Q 797 599 781 580 Z" class="stroke7"/>
    <path d="M 658 394 Q 670 472 678 638 Q 679 690 697 750 Q 703 762 693 769 Q 674 785 638 800 Q 616 810 599 804 Q 580 795 595 778 Q 625 748 625 718 Q 628 510 602 374 Q 578 208 423 100 Q 393 85 390 78 Q 386 72 401 71 Q 443 68 540 137 Q 619 194 650 352 L 658 394 Z" class="stroke8"/>
    <path d="M 650 352 Q 794 73 843 69 Q 906 70 960 71 Q 984 72 984 77 Q 985 84 961 99 Q 829 177 797 212 Q 722 291 658 394 C 642 419 636 379 650 352 Z" class="stroke9"/>
    
    
    
    
    
    
    
    
    </g>
</svg>