<svg version="1.1" viewBox="0 0 1024 1024" xmlns="http://www.w3.org/2000/svg">
  
  <g transform="scale(1, -1) translate(0, -900)">
    <style type="text/css">
        .stroke1 {fill: #808080;}
        .stroke2 {fill: #808079;}
        .stroke3 {fill: #808078;}
        .stroke4 {fill: #808077;}
        .stroke5 {fill: #808076;}
        .stroke6 {fill: #808075;}
        .stroke7 {fill: #808074;}
        .stroke8 {fill: #808073;}
        .stroke9 {fill: #808072;}
        .stroke10 {fill: #808071;}
        .stroke11 {fill: #808070;}
        .stroke12 {fill: #808069;}
        .stroke13 {fill: #808068;}
        .stroke14 {fill: #808067;}
        .stroke15 {fill: #808066;}
        .stroke16 {fill: #808065;}
        .stroke17 {fill: #808064;}
        .stroke18 {fill: #808063;}
        .stroke19 {fill: #808062;}
        .stroke20 {fill: #808061;}
        text {
            font-family: Helvetica;
            font-size: 50px;
            fill: #808060;
            paint-order: stroke;
            stroke: #000000;
            stroke-width: 4px;
            stroke-linecap: butt;
            stroke-linejoin: miter;
            font-weight: 800;
        }
    </style>

    <path d="M 286 660 Q 409 705 429 708 Q 445 709 449 716 Q 453 726 441 737 Q 422 753 379 770 Q 364 777 352 776 Q 345 772 344 762 Q 344 725 145 635 Q 141 628 145 624 Q 175 624 256 651 L 286 660 Z" class="stroke1"/>
    <path d="M 317 513 Q 354 523 403 532 Q 419 535 418 542 Q 419 554 401 562 Q 377 572 320 555 L 275 542 Q 116 502 59 493 Q 46 492 44 483 Q 43 473 57 463 Q 93 441 133 454 Q 206 482 255 497 L 317 513 Z" class="stroke2"/>
    <path d="M 314 414 Q 314 444 317 513 L 320 555 Q 321 592 327 615 Q 330 628 323 634 Q 302 652 286 660 C 260 676 242 678 256 651 Q 274 633 275 542 L 273 418 Q 258 132 244 99 Q 235 60 268 9 Q 280 -10 288 -14 Q 300 -15 305 -3 Q 318 30 314 61 Q 313 238 314 387 L 314 414 Z" class="stroke3"/>
    <path d="M 255 497 Q 228 430 190 370 Q 150 304 51 186 Q 44 176 56 174 Q 77 174 181 284 Q 229 336 273 418 C 329 521 266 525 255 497 Z" class="stroke4"/>
    <path d="M 314 387 Q 323 383 359 347 Q 368 338 379 339 Q 386 339 390 349 Q 393 359 387 379 Q 383 392 362 401 Q 341 408 319 414 Q 316 415 314 414 C 284 411 288 402 314 387 Z" class="stroke5"/>
    <path d="M 502 527 Q 518 549 534 565 Q 541 574 533 585 Q 499 612 486 610 Q 477 609 478 598 Q 482 540 420 480 Q 405 465 397 457 Q 390 447 402 449 Q 412 449 426 458 Q 466 482 491 513 L 502 527 Z" class="stroke6"/>
    <path d="M 491 513 Q 540 464 559 465 Q 569 465 571 478 Q 571 487 563 500 Q 550 521 502 527 C 473 531 473 531 491 513 Z" class="stroke7"/>
    <path d="M 791 593 Q 804 612 817 629 Q 824 639 814 650 Q 783 674 763 672 Q 754 671 756 659 Q 765 598 706 531 Q 693 515 685 505 Q 678 495 690 497 Q 727 503 780 575 L 791 593 Z" class="stroke8"/>
    <path d="M 780 575 Q 784 571 792 565 Q 813 549 835 527 Q 842 520 853 520 Q 859 521 862 529 Q 865 536 859 555 Q 852 576 791 593 C 762 601 758 596 780 575 Z" class="stroke9"/>
    <path d="M 672 667 Q 783 698 788 702 Q 795 709 791 717 Q 784 727 757 733 Q 727 737 674 714 L 618 695 Q 575 686 530 679 Q 497 672 522 657 Q 564 636 620 654 L 672 667 Z" class="stroke10"/>
    <path d="M 661 436 Q 668 557 672 667 L 674 714 Q 674 715 675 715 Q 679 754 691 802 Q 695 814 674 828 Q 640 847 614 851 Q 598 854 590 845 Q 583 838 591 823 Q 615 789 615 767 Q 616 733 618 695 L 620 654 Q 621 548 619 429 C 619 399 659 406 661 436 Z" class="stroke11"/>
    <path d="M 619 429 Q 526 416 426 399 Q 408 398 422 383 Q 435 371 450 367 Q 468 363 482 367 Q 671 427 940 426 Q 941 426 943 426 Q 959 427 964 434 Q 968 444 953 456 Q 905 487 876 480 Q 803 461 674 439 Q 667 438 661 436 L 619 429 Z" class="stroke12"/>
    <path d="M 473 311 Q 461 318 428 326 Q 415 330 411 325 Q 404 319 412 302 Q 443 217 455 82 Q 455 42 476 13 Q 492 -11 500 5 Q 504 18 506 37 L 506 71 Q 490 185 484 273 C 482 303 482 307 473 311 Z" class="stroke13"/>
    <path d="M 765 60 Q 774 35 801 -20 Q 808 -36 819 -36 Q 834 -33 843 -9 Q 873 51 889 229 Q 893 275 916 305 Q 932 324 920 338 Q 899 359 853 378 Q 835 388 803 376 Q 673 331 473 311 C 443 308 454 268 484 273 Q 488 273 495 274 Q 607 298 781 328 Q 812 332 825 320 Q 834 316 834 293 Q 833 190 813 89 Q 812 73 803 70 Q 802 69 794 71 C 769 55 763 66 765 60 Z" class="stroke14"/>
    <path d="M 572 249 Q 562 253 544 255 Q 535 258 532 254 Q 528 250 534 236 Q 553 202 566 145 Q 569 129 579 117 Q 594 101 597 112 Q 598 119 599 129 L 597 153 Q 588 211 588 227 C 587 244 587 244 572 249 Z" class="stroke15"/>
    <path d="M 724 176 Q 739 216 753 229 Q 772 250 753 262 Q 737 272 715 287 Q 700 296 684 287 Q 648 266 572 249 C 543 242 559 218 588 227 Q 606 233 665 245 Q 684 249 690 241 Q 693 238 678 175 C 671 146 713 148 724 176 Z" class="stroke16"/>
    <path d="M 599 129 Q 624 129 675 139 Q 708 143 739 147 Q 748 148 748 154 Q 748 161 733 172 Q 729 175 724 176 L 678 175 Q 651 166 631 160 Q 613 157 597 153 C 568 146 569 128 599 129 Z" class="stroke17"/>
    <path d="M 506 37 Q 512 36 523 38 Q 601 53 765 60 C 795 61 797 61 794 71 Q 794 72 795 72 Q 796 79 766 101 Q 750 111 719 104 Q 599 80 506 71 C 476 68 476 37 506 37 Z" class="stroke18"/>
    
    
    
    
    
    
    
    
    
    
    
    
    
    
    
    
    
    </g>
</svg>