<svg version="1.1" viewBox="0 0 1024 1024" xmlns="http://www.w3.org/2000/svg">
  
  <g transform="scale(1, -1) translate(0, -900)">
    <style type="text/css">
        .stroke1 {fill: #808080;}
        .stroke2 {fill: #808079;}
        .stroke3 {fill: #808078;}
        .stroke4 {fill: #808077;}
        .stroke5 {fill: #808076;}
        .stroke6 {fill: #808075;}
        .stroke7 {fill: #808074;}
        .stroke8 {fill: #808073;}
        .stroke9 {fill: #808072;}
        .stroke10 {fill: #808071;}
        .stroke11 {fill: #808070;}
        .stroke12 {fill: #808069;}
        .stroke13 {fill: #808068;}
        .stroke14 {fill: #808067;}
        .stroke15 {fill: #808066;}
        .stroke16 {fill: #808065;}
        .stroke17 {fill: #808064;}
        .stroke18 {fill: #808063;}
        .stroke19 {fill: #808062;}
        .stroke20 {fill: #808061;}
        text {
            font-family: Helvetica;
            font-size: 50px;
            fill: #808060;
            paint-order: stroke;
            stroke: #000000;
            stroke-width: 4px;
            stroke-linecap: butt;
            stroke-linejoin: miter;
            font-weight: 800;
        }
    </style>

    <path d="M 472 793 Q 502 774 534 751 Q 550 741 567 743 Q 577 746 581 760 Q 582 776 569 806 Q 551 839 458 842 Q 442 843 435 839 Q 431 835 435 821 Q 441 811 472 793 Z" class="stroke1"/>
    <path d="M 278 665 Q 277 666 277 669 Q 267 691 255 699 Q 239 712 237 688 Q 243 655 180 579 Q 162 558 187 507 Q 200 482 219 508 Q 235 533 249 570 Q 262 610 272 634 C 281 656 281 656 278 665 Z" class="stroke2"/>
    <path d="M 272 634 Q 290 625 343 636 Q 436 664 667 690 Q 715 694 730 692 Q 742 682 739 675 Q 726 636 711 594 L 713 593 Q 720 589 737 600 Q 791 631 834 640 Q 870 649 869 657 Q 868 667 797 720 Q 776 738 706 725 Q 600 713 373 678 Q 325 671 278 665 C 248 661 243 640 272 634 Z" class="stroke3"/>
    <path d="M 373 610 Q 377 595 343 552 Q 327 533 305 511 Q 296 505 294 502 Q 290 495 300 495 Q 324 495 397 548 Q 397 554 418 563 Q 425 569 425 578 Q 424 587 409 605 Q 396 621 383 624 Q 371 625 373 610 Z" class="stroke4"/>
    <path d="M 580 601 Q 613 576 646 543 Q 656 533 669 534 Q 678 534 681 545 Q 685 555 678 579 Q 674 600 642 615 Q 575 643 560 639 Q 556 635 557 625 Q 560 618 580 601 Z" class="stroke5"/>
    <path d="M 349 350 Q 434 375 436 376 Q 443 383 439 390 Q 432 400 407 405 Q 382 409 356 397 Q 355 397 355 396 C 331 384 327 383 298 377 Q 291 376 286 374 Q 246 364 198 356 Q 167 350 190 336 Q 220 321 299 337 L 349 350 Z" class="stroke6"/>
    <path d="M 291 266 Q 165 233 102 223 Q 92 222 88 214 Q 87 204 100 195 Q 136 173 173 186 Q 234 211 282 224 L 334 239 Q 377 251 431 261 Q 446 264 446 271 Q 447 283 430 290 Q 397 302 341 280 L 291 266 Z" class="stroke7"/>
    <path d="M 355 396 Q 358 414 365 430 Q 372 446 356 454 Q 308 481 286 472 Q 274 468 281 454 Q 296 430 298 377 L 299 337 Q 298 304 291 266 L 282 224 Q 242 89 140 14 Q 127 2 114 -10 Q 102 -20 114 -21 Q 177 -14 243 63 Q 279 97 311 172 L 319 190 Q 328 214 334 239 L 341 280 Q 342 292 344 304 Q 345 328 349 350 L 355 396 Z" class="stroke8"/>
    <path d="M 311 172 Q 315 165 331 152 Q 358 127 386 97 Q 396 87 409 87 Q 416 87 421 97 Q 425 107 420 131 Q 414 161 329 189 Q 323 190 319 190 C 297 191 297 191 311 172 Z" class="stroke9"/>
    <path d="M 521 458 Q 515 470 478 481 Q 471 482 466 476 Q 465 472 470 463 Q 500 373 474 260 Q 456 245 483 192 Q 484 189 488 186 Q 497 176 504 187 Q 522 208 523 339 Q 523 406 525 432 L 521 458 Z" class="stroke10"/>
    <path d="M 684 249 Q 678 228 690 210 Q 702 185 710 186 Q 723 187 736 216 Q 748 238 746 256 Q 727 401 752 441 Q 761 454 754 462 Q 730 483 690 499 Q 677 503 657 496 Q 623 480 581 468 Q 548 461 521 458 C 491 454 496 426 525 432 L 599 448 Q 659 464 672 455 Q 679 440 684 399 Q 690 273 684 249 Z" class="stroke11"/>
    <path d="M 604 229 Q 610 260 615 308 Q 616 333 629 363 Q 633 372 627 378 Q 614 391 587 403 Q 571 410 558 407 Q 542 403 554 388 Q 590 348 559 198 Q 538 86 438 16 Q 407 -3 377 -19 Q 373 -23 386 -26 Q 419 -30 497 19 Q 576 73 601 214 L 604 229 Z" class="stroke12"/>
    <path d="M 601 214 Q 614 201 613 141 Q 609 14 653 -10 Q 692 -31 780 -30 Q 864 -27 926 17 Q 942 32 928 55 Q 915 76 893 144 Q 892 157 885 162 Q 879 163 877 148 Q 859 72 845 48 Q 821 21 741 20 Q 710 20 686 29 Q 665 36 660 49 Q 645 80 663 186 Q 669 213 623 230 Q 611 234 604 229 C 594 228 594 228 601 214 Z" class="stroke13"/>
    
    
    
    
    
    
    
    
    
    
    
    
    </g>
</svg>