<svg version="1.1" viewBox="0 0 1024 1024" xmlns="http://www.w3.org/2000/svg">
  
  <g transform="scale(1, -1) translate(0, -900)">
    <style type="text/css">
        .stroke1 {fill: #808080;}
        .stroke2 {fill: #808079;}
        .stroke3 {fill: #808078;}
        .stroke4 {fill: #808077;}
        .stroke5 {fill: #808076;}
        .stroke6 {fill: #808075;}
        .stroke7 {fill: #808074;}
        .stroke8 {fill: #808073;}
        .stroke9 {fill: #808072;}
        .stroke10 {fill: #808071;}
        .stroke11 {fill: #808070;}
        .stroke12 {fill: #808069;}
        .stroke13 {fill: #808068;}
        .stroke14 {fill: #808067;}
        .stroke15 {fill: #808066;}
        .stroke16 {fill: #808065;}
        .stroke17 {fill: #808064;}
        .stroke18 {fill: #808063;}
        .stroke19 {fill: #808062;}
        .stroke20 {fill: #808061;}
        text {
            font-family: Helvetica;
            font-size: 50px;
            fill: #808060;
            paint-order: stroke;
            stroke: #000000;
            stroke-width: 4px;
            stroke-linecap: butt;
            stroke-linejoin: miter;
            font-weight: 800;
        }
    </style>

    <path d="M 451 797 Q 475 779 500 758 Q 515 746 530 749 Q 540 750 545 764 Q 548 780 536 808 Q 524 835 442 844 Q 426 847 420 843 Q 416 839 418 826 Q 422 816 451 797 Z" class="stroke1"/>
    <path d="M 279 701 Q 269 725 258 732 Q 240 748 237 722 Q 243 686 180 626 Q 158 605 183 547 Q 196 520 218 546 Q 234 568 249 604 Q 265 646 277 670 C 285 687 285 687 279 701 Z" class="stroke2"/>
    <path d="M 277 670 Q 298 660 321 664 Q 447 703 675 721 Q 709 724 722 721 Q 738 714 737 706 Q 737 703 706 640 Q 699 630 705 625 Q 711 621 726 630 Q 777 661 818 670 Q 852 679 851 687 Q 850 696 787 748 Q 763 766 679 751 Q 525 735 375 712 Q 326 706 279 701 C 249 698 248 679 277 670 Z" class="stroke3"/>
    <path d="M 359 649 Q 359 595 294 544 Q 278 532 271 525 Q 262 515 274 516 Q 307 513 373 567 Q 376 576 415 604 Q 425 613 416 626 Q 386 659 369 660 Q 360 660 359 649 Z" class="stroke4"/>
    <path d="M 551 646 Q 626 582 649 582 Q 662 583 667 602 Q 667 615 654 635 Q 641 651 613 658 Q 570 673 552 674 Q 542 674 543 662 Q 543 655 551 646 Z" class="stroke5"/>
    <path d="M 309 426 Q 423 471 435 474 Q 448 475 451 481 Q 454 488 445 497 Q 400 530 372 526 Q 366 522 366 514 Q 366 493 247 425 C 221 410 229 398 257 409 Q 264 412 278 416 L 309 426 Z" class="stroke6"/>
    <path d="M 247 425 Q 202 446 190 445 Q 172 441 186 423 Q 208 386 196 234 Q 190 195 172 149 Q 154 104 94 43 Q 82 33 79 26 Q 78 20 88 21 Q 115 21 170 75 Q 230 144 246 279 Q 252 366 257 401 Q 258 405 257 409 C 258 420 258 420 247 425 Z" class="stroke7"/>
    <path d="M 405 168 Q 339 128 335 128 Q 331 131 329 144 Q 332 333 341 380 Q 345 396 334 406 Q 321 419 309 426 C 284 443 260 440 278 416 Q 299 395 297 354 Q 301 191 290 135 Q 286 110 276 95 Q 266 76 274 58 Q 284 30 300 21 Q 310 14 319 31 Q 340 64 414 153 C 433 176 431 184 405 168 Z" class="stroke8"/>
    <path d="M 414 153 Q 421 140 434 137 Q 443 134 451 146 Q 454 155 451 171 Q 447 187 429 200 Q 402 222 389 229 Q 383 232 380 223 Q 377 214 405 168 L 414 153 Z" class="stroke9"/>
    <path d="M 372 332 Q 403 298 439 248 Q 449 233 460 229 Q 467 228 473 234 Q 483 243 476 275 Q 473 305 423 331 Q 392 347 374 354 Q 368 358 366 350 Q 365 340 372 332 Z" class="stroke10"/>
    <path d="M 615 462 Q 684 489 722 496 Q 735 496 739 503 Q 742 510 732 520 Q 687 557 657 553 Q 651 550 650 541 Q 650 519 541 461 C 515 447 522 436 551 445 Q 563 449 581 453 L 615 462 Z" class="stroke11"/>
    <path d="M 541 461 Q 540 462 537 463 Q 494 482 482 478 Q 466 474 480 456 Q 513 410 500 232 Q 494 186 476 130 Q 458 78 389 -1 Q 377 -13 375 -18 Q 374 -24 384 -23 Q 418 -20 472 45 Q 544 138 549 345 Q 546 408 551 438 Q 551 442 551 445 C 552 456 552 456 541 461 Z" class="stroke12"/>
    <path d="M 639 413 Q 640 417 641 420 Q 645 436 634 446 Q 624 456 615 462 C 592 481 569 481 581 453 Q 580 453 581 452 Q 597 421 597 394 Q 601 183 586 111 Q 582 86 572 71 Q 562 53 569 34 Q 579 6 594 -3 Q 604 -10 614 7 Q 638 41 719 131 C 739 153 736 163 710 147 Q 637 102 632 103 Q 626 106 625 120 Q 628 325 637 398 L 639 413 Z" class="stroke13"/>
    <path d="M 719 131 Q 746 80 756 76 Q 763 75 770 81 Q 777 90 778 111 Q 779 145 706 200 Q 697 206 692 206 Q 688 205 686 196 Q 686 190 710 147 L 719 131 Z" class="stroke14"/>
    <path d="M 637 398 Q 662 379 679 350 Q 757 218 821 126 Q 833 108 855 106 Q 936 102 967 104 Q 980 104 986 110 Q 990 114 982 119 Q 865 177 829 213 Q 768 271 682 395 Q 675 411 660 413 Q 644 416 639 413 C 621 412 621 412 637 398 Z" class="stroke15"/>
    
    
    
    
    
    
    
    
    
    
    
    
    
    
    </g>
</svg>