<svg version="1.1" viewBox="0 0 1024 1024" xmlns="http://www.w3.org/2000/svg">
  
  <g transform="scale(1, -1) translate(0, -900)">
    <style type="text/css">
        .stroke1 {fill: #808080;}
        .stroke2 {fill: #808079;}
        .stroke3 {fill: #808078;}
        .stroke4 {fill: #808077;}
        .stroke5 {fill: #808076;}
        .stroke6 {fill: #808075;}
        .stroke7 {fill: #808074;}
        .stroke8 {fill: #808073;}
        .stroke9 {fill: #808072;}
        .stroke10 {fill: #808071;}
        .stroke11 {fill: #808070;}
        .stroke12 {fill: #808069;}
        .stroke13 {fill: #808068;}
        .stroke14 {fill: #808067;}
        .stroke15 {fill: #808066;}
        .stroke16 {fill: #808065;}
        .stroke17 {fill: #808064;}
        .stroke18 {fill: #808063;}
        .stroke19 {fill: #808062;}
        .stroke20 {fill: #808061;}
        text {
            font-family: Helvetica;
            font-size: 50px;
            fill: #808060;
            paint-order: stroke;
            stroke: #000000;
            stroke-width: 4px;
            stroke-linecap: butt;
            stroke-linejoin: miter;
            font-weight: 800;
        }
    </style>

    <path d="M 357 750 Q 366 766 375 780 Q 385 793 369 807 Q 321 840 297 832 Q 285 829 289 814 Q 307 718 215 597 Q 191 569 180 552 Q 173 536 188 542 Q 204 546 227 566 Q 296 627 331 700 Q 337 713 343 724 L 357 750 Z" class="stroke1"/>
    <path d="M 343 724 Q 380 711 482 730 Q 533 742 535 742 Q 542 749 539 757 Q 532 767 506 775 Q 482 778 410 758 Q 400 758 357 750 C 327 745 314 733 343 724 Z" class="stroke2"/>
    <path d="M 358 644 Q 394 583 420 579 Q 433 576 442 594 Q 445 607 437 628 Q 422 658 365 671 Q 355 674 354 662 Q 351 653 358 644 Z" class="stroke3"/>
    <path d="M 642 773 Q 655 801 670 823 Q 679 836 664 848 Q 616 876 596 870 Q 586 866 589 853 Q 608 768 532 664 Q 513 639 504 624 Q 497 608 511 614 Q 526 618 545 635 Q 603 689 632 752 L 642 773 Z" class="stroke4"/>
    <path d="M 632 752 Q 681 728 735 744 Q 855 771 860 775 Q 869 784 864 792 Q 857 804 826 810 Q 795 814 765 801 Q 740 792 711 785 Q 680 778 644 774 Q 641 774 642 773 C 613 766 605 765 632 752 Z" class="stroke5"/>
    <path d="M 670 643 Q 695 622 724 597 Q 737 587 751 587 Q 761 588 765 600 Q 769 613 760 641 Q 750 666 664 687 Q 649 690 644 687 Q 640 683 641 671 Q 645 661 670 643 Z" class="stroke6"/>
    <path d="M 526 481 Q 667 514 671 517 Q 678 524 675 533 Q 668 543 640 551 Q 618 557 490 520 Q 351 498 341 496 Q 307 490 331 474 Q 365 453 440 465 Q 453 468 470 470 L 526 481 Z" class="stroke7"/>
    <path d="M 524 303 Q 645 315 817 315 Q 899 312 908 325 Q 914 338 895 355 Q 820 410 775 388 Q 678 372 524 345 L 466 337 Q 303 318 115 294 Q 90 291 108 271 Q 124 255 146 249 Q 171 242 190 248 Q 307 279 466 297 L 524 303 Z" class="stroke8"/>
    <path d="M 466 297 Q 459 -36 483 -62 Q 495 -74 506 -49 Q 525 -4 524 102 Q 524 201 524 303 L 524 345 Q 525 412 526 481 C 526 511 471 500 470 470 Q 469 404 466 337 L 466 297 Z" class="stroke9"/>
    
    
    
    
    
    
    
    
    </g>
</svg>