<svg version="1.1" viewBox="0 0 1024 1024" xmlns="http://www.w3.org/2000/svg">
  
  <g transform="scale(1, -1) translate(0, -900)">
    <style type="text/css">
        .stroke1 {fill: #808080;}
        .stroke2 {fill: #808079;}
        .stroke3 {fill: #808078;}
        .stroke4 {fill: #808077;}
        .stroke5 {fill: #808076;}
        .stroke6 {fill: #808075;}
        .stroke7 {fill: #808074;}
        .stroke8 {fill: #808073;}
        .stroke9 {fill: #808072;}
        .stroke10 {fill: #808071;}
        .stroke11 {fill: #808070;}
        .stroke12 {fill: #808069;}
        .stroke13 {fill: #808068;}
        .stroke14 {fill: #808067;}
        .stroke15 {fill: #808066;}
        .stroke16 {fill: #808065;}
        .stroke17 {fill: #808064;}
        .stroke18 {fill: #808063;}
        .stroke19 {fill: #808062;}
        .stroke20 {fill: #808061;}
        text {
            font-family: Helvetica;
            font-size: 50px;
            fill: #808060;
            paint-order: stroke;
            stroke: #000000;
            stroke-width: 4px;
            stroke-linecap: butt;
            stroke-linejoin: miter;
            font-weight: 800;
        }
    </style>

    <path d="M 326 714 Q 339 736 353 756 Q 363 769 347 783 Q 305 814 279 809 Q 267 806 271 792 Q 286 707 206 610 Q 187 586 177 572 Q 170 556 184 562 Q 199 565 218 580 Q 279 629 312 690 L 326 714 Z" class="stroke1"/>
    <path d="M 312 690 Q 352 677 434 694 Q 492 706 500 710 Q 507 717 503 725 Q 496 735 469 742 Q 468 742 326 714 C 297 708 283 698 312 690 Z" class="stroke2"/>
    <path d="M 351 603 Q 369 588 388 570 Q 400 560 413 561 Q 422 561 425 572 Q 429 585 420 609 Q 416 622 393 632 Q 339 647 328 643 Q 324 639 325 629 Q 329 620 351 603 Z" class="stroke3"/>
    <path d="M 601 734 Q 617 767 635 793 Q 644 806 628 820 Q 582 848 558 843 Q 548 839 551 825 Q 569 750 501 650 Q 494 647 472 608 Q 465 592 480 598 Q 534 616 589 711 L 601 734 Z" class="stroke4"/>
    <path d="M 589 711 Q 625 696 691 706 Q 811 730 819 734 Q 826 741 823 749 Q 816 759 790 767 Q 762 771 735 761 Q 705 752 673 744 Q 640 738 601 734 C 571 731 561 721 589 711 Z" class="stroke5"/>
    <path d="M 637 620 Q 665 604 695 581 Q 708 572 721 574 Q 731 575 733 588 Q 734 601 724 626 Q 717 642 687 652 Q 618 667 608 659 Q 604 655 607 644 Q 611 635 637 620 Z" class="stroke6"/>
    <path d="M 597 327 Q 609 342 628 411 Q 641 463 676 494 Q 694 510 677 526 Q 658 542 607 565 Q 595 572 536 558 Q 518 558 425 534 Q 377 522 347 519 Q 331 518 328 513 Q 324 507 341 497 Q 375 479 396 487 Q 444 503 552 518 Q 571 519 578 517 Q 588 513 584 484 Q 571 381 562 359 Q 556 344 563 324 C 570 295 582 301 597 327 Z" class="stroke7"/>
    <path d="M 563 324 Q 502 317 412 303 Q 396 296 390 310 Q 423 406 423 411 L 422 412 Q 412 431 390 446 Q 375 455 366 449 Q 360 446 365 434 Q 368 400 338 304 Q 335 300 334 295 Q 327 276 339 258 Q 355 239 377 250 Q 425 280 577 296 Q 736 317 743 282 Q 743 267 712 125 Q 702 79 680 50 Q 670 35 641 36 Q 601 46 565 54 Q 550 58 551 51 Q 551 45 560 38 Q 626 -13 651 -50 Q 660 -69 677 -59 Q 738 -28 752 34 Q 774 116 792 209 Q 801 246 821 277 Q 834 293 823 307 Q 807 328 769 351 Q 748 364 719 352 Q 667 333 619 330 Q 609 330 597 327 L 563 324 Z" class="stroke8"/>
    <path d="M 395 145 Q 428 148 459 152 Q 544 162 632 155 Q 654 154 658 162 Q 665 174 653 184 Q 625 208 584 225 Q 571 229 548 221 Q 461 202 352 187 Q 165 162 133 160 Q 120 159 120 149 Q 120 137 137 125 Q 153 115 182 105 Q 192 101 208 110 Q 218 114 264 122 Q 322 137 395 145 Z" class="stroke9"/>
    
    
    
    
    
    
    
    
    </g>
</svg>