<svg version="1.1" viewBox="0 0 1024 1024" xmlns="http://www.w3.org/2000/svg">
  
  <g transform="scale(1, -1) translate(0, -900)">
    <style type="text/css">
        .stroke1 {fill: #808080;}
        .stroke2 {fill: #808079;}
        .stroke3 {fill: #808078;}
        .stroke4 {fill: #808077;}
        .stroke5 {fill: #808076;}
        .stroke6 {fill: #808075;}
        .stroke7 {fill: #808074;}
        .stroke8 {fill: #808073;}
        .stroke9 {fill: #808072;}
        .stroke10 {fill: #808071;}
        .stroke11 {fill: #808070;}
        .stroke12 {fill: #808069;}
        .stroke13 {fill: #808068;}
        .stroke14 {fill: #808067;}
        .stroke15 {fill: #808066;}
        .stroke16 {fill: #808065;}
        .stroke17 {fill: #808064;}
        .stroke18 {fill: #808063;}
        .stroke19 {fill: #808062;}
        .stroke20 {fill: #808061;}
        text {
            font-family: Helvetica;
            font-size: 50px;
            fill: #808060;
            paint-order: stroke;
            stroke: #000000;
            stroke-width: 4px;
            stroke-linecap: butt;
            stroke-linejoin: miter;
            font-weight: 800;
        }
    </style>

    <path d="M 327 720 Q 337 739 350 756 Q 359 768 345 780 Q 305 810 284 804 Q 274 801 277 789 Q 289 716 213 615 Q 204 608 180 575 Q 174 562 187 566 Q 200 569 220 584 Q 278 632 311 691 Q 312 695 315 698 L 327 720 Z" class="stroke1"/>
    <path d="M 315 698 Q 346 686 409 696 Q 439 702 471 709 Q 489 713 492 716 Q 499 723 495 730 Q 488 740 463 746 Q 438 750 412 739 Q 382 729 327 720 C 297 715 287 708 315 698 Z" class="stroke2"/>
    <path d="M 351 612 Q 405 563 413 562 Q 420 563 425 573 Q 429 583 423 607 Q 417 629 349 649 Q 337 652 332 650 Q 328 647 329 638 Q 330 629 351 612 Z" class="stroke3"/>
    <path d="M 613 742 Q 626 770 641 792 Q 648 805 635 817 Q 590 844 570 838 Q 560 835 563 822 Q 581 750 510 645 Q 501 642 480 603 Q 474 588 487 594 Q 502 598 519 614 Q 571 662 601 717 L 613 742 Z" class="stroke4"/>
    <path d="M 601 717 Q 643 702 699 712 Q 825 736 830 738 Q 839 745 835 753 Q 828 763 802 771 Q 774 778 747 767 Q 716 758 684 751 Q 650 745 613 742 C 583 739 572 726 601 717 Z" class="stroke5"/>
    <path d="M 647 635 Q 668 619 691 600 Q 701 591 714 593 Q 721 594 725 604 Q 728 616 719 638 Q 710 659 641 671 Q 628 672 624 671 Q 620 667 622 657 Q 626 650 647 635 Z" class="stroke6"/>
    <path d="M 444 493 Q 537 515 614 524 Q 642 528 648 519 Q 655 509 651 483 Q 644 413 626 381 Q 604 347 574 355 Q 549 361 528 369 Q 503 378 520 352 Q 560 309 579 275 Q 592 256 609 269 Q 661 296 700 414 Q 718 492 738 512 Q 753 525 746 538 Q 736 551 681 578 Q 659 588 637 575 Q 606 557 485 535 Q 364 508 263 505 Q 244 504 239 495 Q 238 485 264 472 Q 291 453 314 461 Q 362 474 409 485 L 444 493 Z" class="stroke7"/>
    <path d="M 409 485 Q 410 484 411 479 Q 417 401 227 238 Q 206 223 205 216 Q 204 212 210 211 Q 276 211 429 379 Q 438 397 469 428 Q 478 437 472 451 Q 460 476 444 493 C 424 516 404 515 409 485 Z" class="stroke8"/>
    <path d="M 349 199 Q 339 206 299 213 Q 286 216 283 211 Q 276 204 285 187 Q 316 124 334 20 Q 337 -11 355 -32 Q 374 -54 379 -38 Q 383 -25 383 -5 L 379 34 Q 361 131 358 166 C 355 196 355 196 349 199 Z" class="stroke9"/>
    <path d="M 677 66 Q 705 147 739 173 Q 758 192 743 212 Q 706 243 658 259 Q 643 262 627 256 Q 516 217 349 199 C 319 196 328 162 358 166 Q 490 185 625 205 Q 631 204 636 198 Q 646 189 644 169 Q 634 114 621 69 C 613 40 667 38 677 66 Z" class="stroke10"/>
    <path d="M 383 -5 Q 389 -5 397 -4 Q 491 12 696 22 Q 709 23 710 33 Q 711 42 678 66 L 677 66 L 621 69 Q 485 44 379 34 C 349 31 353 -7 383 -5 Z" class="stroke11"/>
    
    
    
    
    
    
    
    
    
    
    </g>
</svg>