<svg version="1.1" viewBox="0 0 1024 1024" xmlns="http://www.w3.org/2000/svg">
  
  <g transform="scale(1, -1) translate(0, -900)">
    <style type="text/css">
        .stroke1 {fill: #808080;}
        .stroke2 {fill: #808079;}
        .stroke3 {fill: #808078;}
        .stroke4 {fill: #808077;}
        .stroke5 {fill: #808076;}
        .stroke6 {fill: #808075;}
        .stroke7 {fill: #808074;}
        .stroke8 {fill: #808073;}
        .stroke9 {fill: #808072;}
        .stroke10 {fill: #808071;}
        .stroke11 {fill: #808070;}
        .stroke12 {fill: #808069;}
        .stroke13 {fill: #808068;}
        .stroke14 {fill: #808067;}
        .stroke15 {fill: #808066;}
        .stroke16 {fill: #808065;}
        .stroke17 {fill: #808064;}
        .stroke18 {fill: #808063;}
        .stroke19 {fill: #808062;}
        .stroke20 {fill: #808061;}
        text {
            font-family: Helvetica;
            font-size: 50px;
            fill: #808060;
            paint-order: stroke;
            stroke: #000000;
            stroke-width: 4px;
            stroke-linecap: butt;
            stroke-linejoin: miter;
            font-weight: 800;
        }
    </style>

    <path d="M 345 726 Q 357 745 369 760 Q 379 772 366 786 Q 326 819 301 816 Q 291 815 292 800 Q 299 715 206 607 Q 202 606 165 564 Q 158 549 172 553 Q 223 562 304 663 Q 317 690 332 706 L 345 726 Z" class="stroke1"/>
    <path d="M 332 706 Q 377 685 424 699 Q 530 721 536 726 Q 543 733 539 741 Q 532 751 505 758 Q 484 761 406 737 Q 376 730 345 726 C 315 722 305 718 332 706 Z" class="stroke2"/>
    <path d="M 358 639 Q 392 590 414 586 Q 427 585 433 601 Q 434 613 427 632 Q 412 656 364 663 Q 355 664 354 654 Q 353 647 358 639 Z" class="stroke3"/>
    <path d="M 637 756 Q 650 777 663 793 Q 673 805 658 819 Q 619 852 593 846 Q 583 845 585 830 Q 594 758 525 669 Q 507 653 501 640 Q 494 625 508 630 Q 521 631 538 644 Q 592 684 623 734 L 637 756 Z" class="stroke4"/>
    <path d="M 623 734 Q 663 710 717 726 Q 760 736 804 745 Q 825 749 828 753 Q 835 760 831 769 Q 824 779 796 786 Q 778 789 694 766 Q 667 762 637 756 C 608 750 597 748 623 734 Z" class="stroke5"/>
    <path d="M 669 652 Q 690 636 712 616 Q 725 607 737 608 Q 746 609 749 620 Q 752 633 743 656 Q 734 678 662 691 Q 649 692 644 691 Q 640 687 642 677 Q 646 668 669 652 Z" class="stroke6"/>
    <path d="M 678 452 Q 703 503 733 519 Q 749 535 737 554 Q 722 567 674 594 Q 658 603 636 596 Q 494 545 317 536 Q 301 535 303 525 Q 304 518 322 511 Q 346 501 379 510 Q 427 519 474 526 L 502 531 Q 551 541 605 550 Q 633 556 645 544 Q 654 532 629 461 C 619 433 664 425 678 452 Z" class="stroke7"/>
    <path d="M 532 408 Q 599 417 684 424 Q 694 425 695 433 Q 695 440 678 452 L 629 461 Q 626 462 624 461 Q 576 451 532 440 L 486 431 Q 396 416 323 407 C 293 403 303 370 332 376 Q 390 389 486 402 L 532 408 Z" class="stroke8"/>
    <path d="M 532 289 Q 700 319 741 311 Q 756 311 763 299 Q 772 283 742 174 Q 738 156 720 158 Q 689 164 649 170 Q 621 176 642 152 Q 705 103 719 78 Q 728 65 741 67 Q 754 68 769 82 Q 794 112 808 169 Q 817 242 850 277 Q 868 299 854 312 Q 827 337 789 358 Q 773 368 753 361 Q 710 348 618 335 Q 570 329 532 322 L 486 314 Q 408 304 357 289 Q 327 285 312 285 Q 305 286 307 302 Q 320 365 331 375 Q 331 376 332 376 C 341 394 341 394 323 407 Q 308 420 286 433 Q 274 440 264 433 Q 257 427 265 409 Q 275 382 266 345 Q 250 296 234 279 Q 222 263 233 245 Q 242 220 256 211 Q 266 205 290 223 Q 344 265 456 278 L 532 289 Z" class="stroke9"/>
    <path d="M 532 322 Q 532 365 532 408 L 532 440 Q 532 489 534 496 Q 537 506 528 514 Q 518 521 502 531 C 477 547 467 554 474 526 Q 474 525 476 522 Q 480 513 486 431 L 486 402 Q 486 360 486 314 L 484 219 Q 484 149 475 13 Q 472 -26 496 -58 Q 508 -71 517 -55 Q 542 -7 535 36 Q 532 73 532 289 L 532 322 Z" class="stroke10"/>
    <path d="M 456 278 Q 377 143 165 7 Q 150 -3 160 -7 Q 169 -13 182 -8 Q 315 28 484 219 C 543 285 478 313 456 278 Z" class="stroke11"/>
    
    
    
    
    
    
    
    
    
    
    </g>
</svg>