<svg version="1.1" viewBox="0 0 1024 1024" xmlns="http://www.w3.org/2000/svg">
  
  <g transform="scale(1, -1) translate(0, -900)">
    <style type="text/css">
        .stroke1 {fill: #808080;}
        .stroke2 {fill: #808079;}
        .stroke3 {fill: #808078;}
        .stroke4 {fill: #808077;}
        .stroke5 {fill: #808076;}
        .stroke6 {fill: #808075;}
        .stroke7 {fill: #808074;}
        .stroke8 {fill: #808073;}
        .stroke9 {fill: #808072;}
        .stroke10 {fill: #808071;}
        .stroke11 {fill: #808070;}
        .stroke12 {fill: #808069;}
        .stroke13 {fill: #808068;}
        .stroke14 {fill: #808067;}
        .stroke15 {fill: #808066;}
        .stroke16 {fill: #808065;}
        .stroke17 {fill: #808064;}
        .stroke18 {fill: #808063;}
        .stroke19 {fill: #808062;}
        .stroke20 {fill: #808061;}
        text {
            font-family: Helvetica;
            font-size: 50px;
            fill: #808060;
            paint-order: stroke;
            stroke: #000000;
            stroke-width: 4px;
            stroke-linecap: butt;
            stroke-linejoin: miter;
            font-weight: 800;
        }
    </style>

    <path d="M 339 710 Q 358 738 377 762 Q 387 774 374 789 Q 335 825 308 822 Q 298 821 298 805 Q 307 709 196 597 Q 187 593 150 552 Q 141 537 156 541 Q 174 542 199 560 Q 275 615 321 684 L 339 710 Z" class="stroke1"/>
    <path d="M 321 684 Q 358 675 425 688 Q 495 704 500 708 Q 507 715 503 722 Q 496 732 471 737 Q 459 740 376 717 Q 358 713 339 710 C 309 705 292 690 321 684 Z" class="stroke2"/>
    <path d="M 336 600 Q 364 567 397 548 Q 409 547 416 557 Q 420 567 418 580 Q 414 598 399 608 Q 398 609 345 630 Q 332 634 325 630 Q 321 629 322 620 Q 323 611 336 600 Z" class="stroke3"/>
    <path d="M 654 739 Q 673 770 691 795 Q 701 808 687 822 Q 645 853 619 851 Q 609 848 610 834 Q 625 735 522 630 Q 506 612 497 600 Q 490 585 504 590 Q 520 591 541 609 Q 602 655 639 714 L 654 739 Z" class="stroke4"/>
    <path d="M 639 714 Q 684 699 724 709 Q 778 721 834 732 Q 859 739 863 742 Q 872 749 867 757 Q 860 767 834 774 Q 806 778 779 768 Q 751 758 719 750 Q 688 743 654 739 C 624 735 610 723 639 714 Z" class="stroke5"/>
    <path d="M 648 605 Q 678 583 710 554 Q 722 544 736 544 Q 745 545 749 556 Q 753 569 744 595 Q 738 614 708 628 Q 638 652 624 647 Q 620 643 621 632 Q 625 622 648 605 Z" class="stroke6"/>
    <path d="M 248 235 Q 255 277 261 317 L 264 345 Q 270 438 277 449 C 281 463 281 463 261 476 Q 251 485 234 491 Q 218 500 206 495 Q 196 488 202 477 Q 244 420 197 202 Q 193 187 188 170 Q 161 85 109 -1 Q 105 -7 103 -12 Q 102 -22 110 -19 Q 144 -10 201 97 Q 205 109 212 120 Q 230 165 243 214 L 248 235 Z" class="stroke7"/>
    <path d="M 277 449 Q 280 452 355 468 Q 373 472 378 463 Q 387 436 391 246 Q 391 86 378 66 Q 374 60 354 65 Q 330 68 306 72 Q 287 76 289 68 Q 341 28 373 -2 Q 385 -18 399 -23 Q 408 -27 415 -17 Q 445 25 447 93 Q 422 409 447 452 Q 457 470 447 479 Q 428 495 395 509 Q 379 516 364 509 Q 327 488 261 476 C 232 470 248 440 277 449 Z" class="stroke8"/>
    <path d="M 261 317 Q 316 323 357 330 Q 376 334 369 345 Q 359 358 337 361 Q 295 364 264 345 C 238 330 231 314 261 317 Z" class="stroke9"/>
    <path d="M 243 214 L 356 222 Q 377 226 369 237 Q 359 250 337 254 Q 307 258 248 235 C 220 224 213 212 243 214 Z" class="stroke10"/>
    <path d="M 680 375 Q 720 385 761 389 Q 774 390 778 383 Q 785 370 783 335 Q 776 208 752 140 Q 740 97 726 84 Q 714 71 688 78 Q 652 88 619 97 Q 597 103 613 83 Q 662 35 688 -2 Q 698 -23 720 -15 Q 736 -14 756 9 Q 816 69 838 295 Q 844 347 863 376 Q 879 397 870 407 Q 855 425 821 439 Q 796 452 771 440 Q 734 425 688 411 L 629 397 Q 551 382 507 382 Q 489 383 489 374 Q 488 364 508 352 Q 533 336 555 344 Q 588 354 622 362 L 680 375 Z" class="stroke11"/>
    <path d="M 622 362 Q 588 206 477 61 Q 471 55 469 49 Q 465 39 476 40 Q 515 49 585 145 Q 591 155 599 166 Q 653 256 680 375 L 688 411 Q 694 441 706 477 Q 716 490 710 503 Q 697 521 668 537 Q 652 549 638 545 Q 626 541 631 526 Q 644 502 629 397 L 622 362 Z" class="stroke12"/>
    
    
    
    
    
    
    
    
    
    
    
    </g>
</svg>