<svg version="1.1" viewBox="0 0 1024 1024" xmlns="http://www.w3.org/2000/svg">
  
  <g transform="scale(1, -1) translate(0, -900)">
    <style type="text/css">
        .stroke1 {fill: #808080;}
        .stroke2 {fill: #808079;}
        .stroke3 {fill: #808078;}
        .stroke4 {fill: #808077;}
        .stroke5 {fill: #808076;}
        .stroke6 {fill: #808075;}
        .stroke7 {fill: #808074;}
        .stroke8 {fill: #808073;}
        .stroke9 {fill: #808072;}
        .stroke10 {fill: #808071;}
        .stroke11 {fill: #808070;}
        .stroke12 {fill: #808069;}
        .stroke13 {fill: #808068;}
        .stroke14 {fill: #808067;}
        .stroke15 {fill: #808066;}
        .stroke16 {fill: #808065;}
        .stroke17 {fill: #808064;}
        .stroke18 {fill: #808063;}
        .stroke19 {fill: #808062;}
        .stroke20 {fill: #808061;}
        text {
            font-family: Helvetica;
            font-size: 50px;
            fill: #808060;
            paint-order: stroke;
            stroke: #000000;
            stroke-width: 4px;
            stroke-linecap: butt;
            stroke-linejoin: miter;
            font-weight: 800;
        }
    </style>

    <path d="M 382 786 Q 388 796 395 805 Q 404 815 392 828 Q 356 856 334 854 Q 324 853 326 839 Q 336 764 258 679 Q 239 658 229 646 Q 222 633 235 637 Q 280 643 347 733 Q 360 757 367 764 L 382 786 Z" class="stroke1"/>
    <path d="M 367 764 Q 406 749 441 759 Q 522 774 531 777 Q 538 784 534 791 Q 528 800 505 806 Q 493 809 418 791 Q 400 788 382 786 C 352 783 339 774 367 764 Z" class="stroke2"/>
    <path d="M 368 702 Q 395 654 413 652 Q 423 649 430 663 Q 431 673 427 689 Q 421 701 406 707 Q 384 720 374 722 Q 367 723 365 715 Q 364 709 368 702 Z" class="stroke3"/>
    <path d="M 647 808 Q 656 821 666 832 Q 676 842 664 855 Q 630 885 607 883 Q 597 882 598 869 Q 605 818 544 737 Q 537 734 517 706 Q 510 693 523 697 Q 568 703 622 774 Q 625 780 632 788 L 647 808 Z" class="stroke4"/>
    <path d="M 632 788 Q 662 770 727 782 Q 769 791 816 799 Q 840 805 843 808 Q 850 815 847 822 Q 840 832 815 838 Q 790 842 764 833 Q 737 824 708 818 Q 680 812 647 808 C 617 804 605 802 632 788 Z" class="stroke5"/>
    <path d="M 655 710 Q 680 694 705 675 Q 715 668 727 669 Q 734 670 738 680 Q 739 692 730 712 Q 724 727 699 735 Q 641 748 631 742 Q 628 739 631 730 Q 634 723 655 710 Z" class="stroke6"/>
    <path d="M 360 607 Q 351 611 318 614 Q 308 615 304 611 Q 300 605 309 591 Q 331 558 352 500 Q 356 484 368 473 Q 387 455 390 469 Q 391 475 391 483 L 386 513 Q 376 559 372 579 C 367 605 367 605 360 607 Z" class="stroke7"/>
    <path d="M 677 545 Q 698 584 723 597 Q 738 612 727 628 Q 714 640 671 664 Q 656 671 638 665 Q 589 649 542 636 L 485 624 Q 424 614 360 607 C 330 604 343 572 372 579 Q 378 582 486 601 L 536 610 Q 570 617 606 624 Q 634 630 646 618 Q 650 614 649 603 Q 642 578 635 555 C 626 526 662 519 677 545 Z" class="stroke8"/>
    <path d="M 526 501 Q 590 510 684 516 Q 694 517 695 525 Q 695 532 677 545 L 635 555 Q 626 558 528 534 L 489 527 Q 434 520 386 513 C 356 509 361 484 391 483 Q 398 482 408 483 Q 441 490 489 496 L 526 501 Z" class="stroke9"/>
    <path d="M 521 450 Q 522 477 526 501 L 528 534 Q 531 565 534 595 Q 535 604 536 610 L 542 636 Q 543 640 544 643 Q 547 650 532 662 Q 507 677 488 680 Q 476 681 470 676 Q 464 670 470 659 Q 482 641 485 624 L 486 601 Q 487 567 489 527 L 489 496 Q 489 472 489 446 C 489 416 520 420 521 450 Z" class="stroke10"/>
    <path d="M 489 446 Q 317 424 120 401 Q 101 400 115 383 Q 128 370 146 364 Q 165 360 182 363 Q 452 441 915 441 Q 934 441 939 450 Q 943 460 928 474 Q 879 513 842 504 Q 724 480 521 450 L 489 446 Z" class="stroke11"/>
    <path d="M 391 354 Q 373 367 353 372 Q 346 373 341 367 Q 338 363 344 354 Q 375 285 352 152 Q 343 143 348 113 L 349 111 Q 358 84 367 74 Q 377 64 384 75 Q 388 82 392 91 L 399 118 Q 402 133 402 175 L 402 196 L 402 244 L 402 265 Q 402 311 404 327 C 406 344 406 344 391 354 Z" class="stroke12"/>
    <path d="M 636 114 Q 637 110 641 104 Q 654 77 662 78 Q 675 79 690 109 Q 700 128 701 166 Q 686 296 713 338 Q 723 353 716 361 Q 691 383 647 403 Q 634 407 612 400 Q 531 367 391 354 C 361 351 374 325 404 327 Q 411 326 420 328 Q 522 352 595 364 Q 620 368 629 355 Q 639 342 640 297 Q 643 170 636 145 Q 635 145 635 144 C 631 124 631 124 636 114 Z" class="stroke13"/>
    <path d="M 402 244 Q 403 244 580 267 Q 601 270 593 281 Q 583 294 561 299 Q 533 303 402 265 C 373 257 372 240 402 244 Z" class="stroke14"/>
    <path d="M 402 175 L 587 195 Q 608 198 601 209 Q 591 222 569 227 Q 548 231 512 222 Q 451 207 402 196 C 373 189 372 172 402 175 Z" class="stroke15"/>
    <path d="M 392 91 Q 402 90 416 91 Q 542 107 636 114 C 666 116 663 132 635 144 Q 629 147 622 149 Q 601 153 564 146 Q 476 130 399 118 C 369 113 362 93 392 91 Z" class="stroke16"/>
    <path d="M 417 63 Q 399 9 258 -73 Q 236 -83 262 -85 Q 328 -89 435 -10 Q 463 11 477 20 Q 489 29 488 38 Q 487 51 465 62 Q 440 75 429 75 Q 422 74 417 63 Z" class="stroke17"/>
    <path d="M 594 35 Q 646 -8 711 -73 Q 727 -91 742 -95 Q 749 -95 757 -85 Q 767 -72 754 -31 Q 738 24 593 65 Q 584 69 583 57 Q 583 44 594 35 Z" class="stroke18"/>
    
    
    
    
    
    
    
    
    
    
    
    
    
    
    
    
    
    </g>
</svg>