<svg version="1.1" viewBox="0 0 1024 1024" xmlns="http://www.w3.org/2000/svg">
  
  <g transform="scale(1, -1) translate(0, -900)">
    <style type="text/css">
        .stroke1 {fill: #808080;}
        .stroke2 {fill: #808079;}
        .stroke3 {fill: #808078;}
        .stroke4 {fill: #808077;}
        .stroke5 {fill: #808076;}
        .stroke6 {fill: #808075;}
        .stroke7 {fill: #808074;}
        .stroke8 {fill: #808073;}
        .stroke9 {fill: #808072;}
        .stroke10 {fill: #808071;}
        .stroke11 {fill: #808070;}
        .stroke12 {fill: #808069;}
        .stroke13 {fill: #808068;}
        .stroke14 {fill: #808067;}
        .stroke15 {fill: #808066;}
        .stroke16 {fill: #808065;}
        .stroke17 {fill: #808064;}
        .stroke18 {fill: #808063;}
        .stroke19 {fill: #808062;}
        .stroke20 {fill: #808061;}
        text {
            font-family: Helvetica;
            font-size: 50px;
            fill: #808060;
            paint-order: stroke;
            stroke: #000000;
            stroke-width: 4px;
            stroke-linecap: butt;
            stroke-linejoin: miter;
            font-weight: 800;
        }
    </style>

    <path d="M 351 779 Q 355 786 362 794 Q 371 804 359 816 Q 326 844 304 842 Q 294 841 296 828 Q 305 765 233 681 Q 215 665 209 654 Q 202 641 214 645 Q 256 649 322 736 Q 325 742 342 766 L 351 779 Z" class="stroke1"/>
    <path d="M 342 766 Q 349 759 375 753 Q 411 753 499 775 L 500 775 Q 506 781 502 787 Q 498 796 475 801 Q 462 804 396 786 Q 377 782 353 780 Q 350 780 351 779 C 332 774 332 774 342 766 Z" class="stroke2"/>
    <path d="M 351 701 Q 382 658 404 657 Q 416 656 420 672 Q 421 682 413 699 Q 400 717 354 724 Q 347 725 346 715 Q 345 708 351 701 Z" class="stroke3"/>
    <path d="M 607 802 Q 617 818 627 830 Q 634 840 623 850 Q 590 872 571 870 Q 562 869 564 857 Q 571 812 522 736 Q 516 729 512 721 Q 506 709 518 714 Q 551 720 597 785 L 607 802 Z" class="stroke4"/>
    <path d="M 597 785 Q 610 778 629 774 Q 647 771 784 805 Q 791 812 787 819 Q 780 828 757 833 Q 733 837 666 813 Q 639 807 607 802 C 577 797 573 797 597 785 Z" class="stroke5"/>
    <path d="M 619 709 Q 644 693 673 671 Q 683 664 695 665 Q 702 666 706 676 Q 707 688 699 708 Q 689 732 611 744 Q 601 745 596 742 Q 592 739 594 730 Q 598 723 619 709 Z" class="stroke6"/>
    <path d="M 515 619 Q 548 626 586 632 Q 620 639 626 644 Q 633 650 630 656 Q 626 663 605 670 Q 578 676 521 654 L 474 642 Q 428 635 374 630 Q 349 626 366 614 Q 390 598 447 608 Q 460 611 477 612 L 515 619 Z" class="stroke7"/>
    <path d="M 510 583 Q 511 602 515 619 L 521 654 Q 524 666 529 678 Q 532 685 518 696 Q 496 709 478 712 Q 468 715 462 709 Q 456 705 462 694 Q 469 682 474 642 L 477 612 Q 477 596 478 575 C 479 545 508 553 510 583 Z" class="stroke8"/>
    <path d="M 478 575 Q 427 568 382 557 Q 369 556 384 543 Q 394 534 418 538 Q 527 556 609 566 Q 627 567 620 578 Q 613 590 593 594 Q 566 598 510 583 L 478 575 Z" class="stroke9"/>
    <path d="M 294 443 Q 439 488 643 511 Q 691 517 706 514 Q 719 510 717 502 Q 717 498 686 436 Q 677 423 683 420 Q 690 417 706 426 Q 757 457 798 466 Q 832 473 831 483 Q 830 492 767 540 Q 746 559 689 547 Q 589 535 352 491 Q 300 481 247 475 Q 217 472 235 457 Q 265 435 294 443 Z" class="stroke10"/>
    <path d="M 507 423 Q 516 426 591 435 Q 598 434 606 444 Q 606 453 589 461 Q 565 477 493 456 Q 490 456 489 455 Q 459 449 383 438 Q 361 435 378 422 Q 399 404 438 411 Q 451 414 468 416 L 507 423 Z" class="stroke11"/>
    <path d="M 507 369 L 507 423 C 507 453 468 446 468 416 L 468 362 C 468 332 507 339 507 369 Z" class="stroke12"/>
    <path d="M 468 362 Q 407 352 336 339 Q 321 338 332 326 Q 342 317 355 314 Q 368 311 380 315 Q 485 346 642 347 Q 655 348 659 353 Q 662 362 651 370 Q 606 400 550 379 Q 531 376 507 369 L 468 362 Z" class="stroke13"/>
    <path d="M 654 280 Q 735 286 837 286 Q 919 283 927 295 Q 933 307 916 321 Q 862 361 823 353 Q 655 317 109 251 Q 87 250 103 231 Q 118 216 136 211 Q 158 205 175 210 Q 371 264 619 279 L 654 280 Z" class="stroke14"/>
    <path d="M 219 167 Q 209 168 206 164 Q 202 160 209 146 Q 231 109 249 44 Q 253 25 266 13 Q 282 -5 285 9 Q 288 19 286 38 L 280 66 Q 267 129 267 143 C 266 166 249 166 219 167 Z" class="stroke15"/>
    <path d="M 401 84 Q 414 132 431 146 Q 450 168 430 179 Q 414 189 391 203 Q 375 212 360 203 Q 287 160 219 167 C 189 169 238 135 267 143 Q 291 150 341 161 Q 360 165 366 157 Q 369 154 357 88 C 352 58 393 55 401 84 Z" class="stroke16"/>
    <path d="M 286 38 Q 292 37 301 39 Q 335 49 411 57 Q 420 58 421 66 Q 421 72 401 84 L 357 88 Q 354 88 353 87 Q 313 74 280 66 C 251 59 256 40 286 38 Z" class="stroke17"/>
    <path d="M 688 169 Q 691 170 793 182 Q 802 181 809 191 Q 810 200 792 209 Q 788 213 774 217 Q 756 226 691 206 L 644 196 Q 629 195 476 175 Q 454 174 470 158 Q 495 140 534 145 Q 582 154 645 163 L 688 169 Z" class="stroke18"/>
    <path d="M 645 163 Q 648 84 644 38 Q 643 19 633 13 Q 627 9 561 19 Q 551 20 551 15 Q 552 9 561 2 Q 622 -49 642 -78 Q 655 -93 667 -80 Q 697 -47 693 44 Q 689 108 688 169 L 691 206 Q 692 219 698 230 Q 705 246 691 257 Q 673 272 654 280 C 627 293 609 302 619 279 Q 618 275 626 264 Q 644 233 644 196 L 645 163 Z" class="stroke19"/>
    <path d="M 483 90 Q 526 47 535 45 Q 542 44 546 53 Q 550 62 545 81 Q 541 100 482 121 Q 472 124 468 122 Q 464 121 465 112 Q 466 105 483 90 Z" class="stroke20"/>
    
    
    
    
    
    
    
    
    
    
    
    
    
    
    
    
    
    
    
    </g>
</svg>