<svg version="1.1" viewBox="0 0 1024 1024" xmlns="http://www.w3.org/2000/svg">
  
  <g transform="scale(1, -1) translate(0, -900)">
    <style type="text/css">
        .stroke1 {fill: #808080;}
        .stroke2 {fill: #808079;}
        .stroke3 {fill: #808078;}
        .stroke4 {fill: #808077;}
        .stroke5 {fill: #808076;}
        .stroke6 {fill: #808075;}
        .stroke7 {fill: #808074;}
        .stroke8 {fill: #808073;}
        .stroke9 {fill: #808072;}
        .stroke10 {fill: #808071;}
        .stroke11 {fill: #808070;}
        .stroke12 {fill: #808069;}
        .stroke13 {fill: #808068;}
        .stroke14 {fill: #808067;}
        .stroke15 {fill: #808066;}
        .stroke16 {fill: #808065;}
        .stroke17 {fill: #808064;}
        .stroke18 {fill: #808063;}
        .stroke19 {fill: #808062;}
        .stroke20 {fill: #808061;}
        text {
            font-family: Helvetica;
            font-size: 50px;
            fill: #808060;
            paint-order: stroke;
            stroke: #000000;
            stroke-width: 4px;
            stroke-linecap: butt;
            stroke-linejoin: miter;
            font-weight: 800;
        }
    </style>

    <path d="M 366 756 Q 373 771 383 782 Q 392 792 380 805 Q 343 832 324 829 Q 314 826 316 815 Q 325 734 246 648 Q 227 627 217 614 Q 210 601 222 605 Q 235 608 254 622 Q 312 665 344 722 Q 348 731 354 738 L 366 756 Z" class="stroke1"/>
    <path d="M 354 738 Q 355 738 358 736 Q 394 717 442 730 Q 517 745 520 748 Q 527 755 523 762 Q 516 772 491 777 Q 470 780 409 762 Q 388 759 366 756 C 336 752 328 751 354 738 Z" class="stroke2"/>
    <path d="M 377 667 Q 398 654 419 636 Q 429 629 440 630 Q 447 631 450 640 Q 451 650 444 670 Q 435 691 370 699 Q 360 700 356 698 Q 352 695 354 687 Q 358 680 377 667 Z" class="stroke3"/>
    <path d="M 634 781 Q 643 800 654 814 Q 661 826 649 837 Q 609 862 589 858 Q 580 855 583 843 Q 595 776 522 675 Q 513 665 508 654 Q 502 641 515 646 Q 563 658 617 750 Q 620 759 624 763 L 634 781 Z" class="stroke4"/>
    <path d="M 624 763 Q 666 741 716 753 Q 758 762 801 771 Q 820 775 823 778 Q 832 785 827 793 Q 820 803 793 810 Q 778 813 693 790 Q 666 786 635 782 Q 634 782 634 781 C 605 773 604 773 624 763 Z" class="stroke5"/>
    <path d="M 670 699 Q 692 686 715 667 Q 725 660 736 662 Q 743 663 746 672 Q 747 682 739 702 Q 730 724 662 732 Q 652 733 648 730 Q 644 727 647 719 Q 650 712 670 699 Z" class="stroke6"/>
    <path d="M 321 594 Q 314 597 291 598 Q 281 599 278 595 Q 274 589 282 577 Q 307 540 327 475 Q 331 456 345 444 Q 363 428 365 441 Q 365 442 365 445 L 365 470 L 341 566 C 335 590 335 590 321 594 Z" class="stroke7"/>
    <path d="M 660 486 Q 660 485 661 482 Q 665 469 675 468 Q 687 469 694 481 Q 701 485 718 515 Q 734 558 766 583 Q 782 596 769 610 Q 756 625 713 649 Q 700 658 629 643 Q 581 643 440 613 Q 370 600 321 594 C 291 590 311 561 341 566 Q 345 566 352 567 Q 383 577 429 586 L 447 589 Q 489 598 545 603 L 579 610 Q 666 625 686 614 Q 690 610 687 592 Q 671 528 664 512 L 660 486 Z" class="stroke8"/>
    <path d="M 468 486 Q 468 487 469 487 Q 475 535 452 583 Q 449 587 447 589 C 427 611 421 615 429 586 L 430 584 Q 430 577 431 570 Q 432 560 432 546 Q 432 506 449 482 C 460 466 460 466 468 486 Z" class="stroke9"/>
    <path d="M 564 506 Q 576 527 589 554 Q 593 563 600 574 Q 610 584 602 591 Q 595 601 579 610 C 553 625 532 630 545 603 Q 555 588 539 500 C 534 470 549 480 564 506 Z" class="stroke10"/>
    <path d="M 365 445 Q 374 445 385 445 Q 472 467 660 486 C 690 489 688 494 664 512 L 656 518 Q 638 527 564 506 L 539 500 Q 502 493 468 486 L 449 482 Q 403 478 365 470 C 336 464 335 445 365 445 Z" class="stroke11"/>
    <path d="M 323 304 Q 320 305 318 304 Q 279 305 248 305 Q 226 305 238 319 Q 281 376 322 417 Q 334 430 332 435 Q 331 447 303 473 Q 293 483 278 482 Q 269 481 273 468 Q 282 441 224 351 Q 211 332 187 313 Q 172 303 173 294 Q 176 279 186 265 Q 193 256 204 261 Q 232 276 308 286 C 338 290 353 304 323 304 Z" class="stroke12"/>
    <path d="M 381 223 Q 332 214 275 197 Q 262 193 271 203 Q 373 315 419 343 Q 429 350 425 359 Q 418 375 393 394 Q 381 403 373 401 Q 366 400 365 387 Q 365 360 323 304 L 308 286 Q 221 193 207 187 Q 197 180 197 169 Q 198 159 218 142 Q 225 132 238 141 Q 296 181 388 208 C 417 217 410 229 381 223 Z" class="stroke13"/>
    <path d="M 388 208 Q 406 181 417 178 Q 427 174 435 186 Q 439 196 436 213 Q 432 226 416 237 Q 394 256 382 261 Q 375 264 372 255 Q 369 249 381 223 L 388 208 Z" class="stroke14"/>
    <path d="M 165 52 Q 184 21 202 -15 Q 209 -30 223 -34 Q 233 -37 241 -27 Q 250 -15 251 13 Q 252 32 229 56 Q 172 104 157 103 Q 151 102 149 89 Q 148 79 165 52 Z" class="stroke15"/>
    <path d="M 284 89 Q 320 35 331 33 Q 340 32 345 41 Q 352 51 350 75 Q 347 99 289 126 Q 277 130 272 130 Q 268 129 267 118 Q 268 109 284 89 Z" class="stroke16"/>
    <path d="M 361 132 Q 395 78 406 75 Q 413 74 418 81 Q 422 88 422 109 Q 422 122 405 138 Q 360 168 352 166 Q 348 165 347 156 Q 348 149 361 132 Z" class="stroke17"/>
    <path d="M 522 336 Q 538 357 557 384 Q 567 403 577 412 Q 583 419 580 428 Q 576 437 557 452 Q 538 464 526 463 Q 513 462 519 447 Q 531 425 490 350 Q 471 316 444 277 Q 437 270 436 266 Q 435 259 443 260 Q 459 263 503 313 L 522 336 Z" class="stroke18"/>
    <path d="M 545 52 Q 545 238 555 299 Q 556 309 551 315 Q 535 330 522 336 C 498 349 499 343 503 313 Q 515 232 490 43 Q 472 10 516 -51 Q 519 -55 523 -58 Q 533 -59 537 -48 Q 544 -30 545 44 L 545 52 Z" class="stroke19"/>
    <path d="M 652 432 Q 703 384 710 384 Q 717 384 722 393 Q 725 403 720 423 Q 716 444 651 465 Q 641 468 636 466 Q 632 465 633 455 Q 634 448 652 432 Z" class="stroke20"/>
    <path d="M 709 329 Q 833 363 836 365 Q 843 372 839 379 Q 832 388 809 393 Q 784 397 761 386 Q 725 373 687 361 Q 644 349 593 342 Q 565 336 586 324 Q 619 306 665 318 Q 666 319 668 318 C 670 318 680 321 709 329 Z" class="stroke21"/>
    <path d="M 722 232 Q 750 239 777 243 Q 796 247 789 258 Q 780 270 759 273 Q 744 274 723 269 L 675 254 Q 633 242 597 231 Q 584 227 601 215 Q 607 212 676 223 L 722 232 Z" class="stroke22"/>
    <path d="M 718 147 Q 754 154 788 158 Q 809 162 801 173 Q 791 186 769 190 Q 750 193 720 185 L 676 173 Q 633 161 594 151 Q 579 148 598 135 Q 605 129 677 140 L 718 147 Z" class="stroke23"/>
    <path d="M 716 80 Q 717 116 718 147 L 720 185 Q 720 210 722 232 C 724 262 719 250 723 269 Q 723 270 724 270 Q 727 312 723 317 Q 716 324 709 329 C 685 348 656 346 668 318 L 670 316 Q 674 301 675 254 L 676 223 Q 676 202 676 173 L 677 140 Q 677 112 677 73 C 677 43 715 50 716 80 Z" class="stroke24"/>
    <path d="M 677 73 Q 548 58 545 52 C 539 50 539 50 545 44 Q 560 29 578 23 Q 596 19 609 22 Q 696 46 890 46 Q 906 47 911 54 Q 915 64 901 76 Q 850 113 800 95 Q 764 89 716 80 L 677 73 Z" class="stroke25"/>
    
    
    
    
    
    
    
    
    
    
    
    
    
    
    
    
    
    
    
    
    
    
    
    
    </g>
</svg>