<svg version="1.1" viewBox="0 0 1024 1024" xmlns="http://www.w3.org/2000/svg">
  
  <g transform="scale(1, -1) translate(0, -900)">
    <style type="text/css">
        .stroke1 {fill: #808080;}
        .stroke2 {fill: #808079;}
        .stroke3 {fill: #808078;}
        .stroke4 {fill: #808077;}
        .stroke5 {fill: #808076;}
        .stroke6 {fill: #808075;}
        .stroke7 {fill: #808074;}
        .stroke8 {fill: #808073;}
        .stroke9 {fill: #808072;}
        .stroke10 {fill: #808071;}
        .stroke11 {fill: #808070;}
        .stroke12 {fill: #808069;}
        .stroke13 {fill: #808068;}
        .stroke14 {fill: #808067;}
        .stroke15 {fill: #808066;}
        .stroke16 {fill: #808065;}
        .stroke17 {fill: #808064;}
        .stroke18 {fill: #808063;}
        .stroke19 {fill: #808062;}
        .stroke20 {fill: #808061;}
        text {
            font-family: Helvetica;
            font-size: 50px;
            fill: #808060;
            paint-order: stroke;
            stroke: #000000;
            stroke-width: 4px;
            stroke-linecap: butt;
            stroke-linejoin: miter;
            font-weight: 800;
        }
    </style>

    <path d="M 476 749 Q 475 748 474 742 Q 455 604 289 490 Q 286 489 283 486 Q 237 452 127 400 Q 120 396 124 391 Q 130 387 141 389 Q 295 419 388 513 Q 439 559 496 644 Q 511 666 530 687 C 550 710 482 778 476 749 Z" class="stroke1"/>
    <path d="M 530 687 Q 561 650 589 613 Q 635 546 738 439 Q 759 415 798 419 Q 865 422 936 430 Q 961 431 973 438 Q 985 448 973 455 Q 963 461 943 463 Q 780 508 743 532 Q 655 593 565 704 Q 472 818 425 825 Q 403 829 381 823 Q 369 823 362 817 Q 358 813 361 809 Q 361 806 416 790 Q 443 783 476 749 L 530 687 Z" class="stroke2"/>
    <path d="M 336 381 Q 361 362 386 338 Q 398 328 412 328 Q 421 329 425 340 Q 429 353 420 379 Q 411 403 331 423 Q 318 424 312 423 Q 308 419 309 408 Q 313 398 336 381 Z" class="stroke3"/>
    <path d="M 621 439 Q 600 411 560 368 Q 554 361 559 355 Q 566 354 573 357 Q 649 400 685 416 Q 701 419 698 429 Q 694 444 678 462 Q 662 478 642 482 Q 629 483 629 466 Q 630 453 621 439 Z" class="stroke4"/>
    <path d="M 544 269 Q 565 272 772 285 Q 782 282 794 295 Q 795 308 773 321 Q 739 348 654 329 Q 531 311 523 308 L 479 302 Q 398 296 215 287 Q 184 286 206 265 Q 239 232 271 238 Q 343 248 430 258 L 544 269 Z" class="stroke5"/>
    <path d="M 523 308 Q 523 405 531 457 Q 532 470 526 475 Q 504 494 484 504 Q 474 508 464 500 Q 458 497 466 487 Q 481 463 479 302 L 476 241 Q 470 100 460 66 Q 451 33 485 -20 Q 495 -39 504 -42 Q 514 -43 520 -31 Q 532 0 528 30 Q 524 148 523 251 L 523 308 Z" class="stroke6"/>
    <path d="M 430 258 Q 361 144 186 39 Q 170 29 184 26 Q 194 23 231 37 Q 279 50 323 81 Q 410 145 464 223 Q 470 233 476 241 C 493 266 465 314 430 258 Z" class="stroke7"/>
    <path d="M 523 251 Q 604 148 707 38 Q 725 19 754 21 Q 851 28 882 34 Q 891 35 892 41 Q 892 45 879 52 Q 735 98 681 143 Q 617 198 544 269 C 522 290 504 275 523 251 Z" class="stroke8"/>
    
    
    
    
    
    
    
    </g>
</svg>