<svg version="1.1" viewBox="0 0 1024 1024" xmlns="http://www.w3.org/2000/svg">
  
  <g transform="scale(1, -1) translate(0, -900)">
    <style type="text/css">
        .stroke1 {fill: #808080;}
        .stroke2 {fill: #808079;}
        .stroke3 {fill: #808078;}
        .stroke4 {fill: #808077;}
        .stroke5 {fill: #808076;}
        .stroke6 {fill: #808075;}
        .stroke7 {fill: #808074;}
        .stroke8 {fill: #808073;}
        .stroke9 {fill: #808072;}
        .stroke10 {fill: #808071;}
        .stroke11 {fill: #808070;}
        .stroke12 {fill: #808069;}
        .stroke13 {fill: #808068;}
        .stroke14 {fill: #808067;}
        .stroke15 {fill: #808066;}
        .stroke16 {fill: #808065;}
        .stroke17 {fill: #808064;}
        .stroke18 {fill: #808063;}
        .stroke19 {fill: #808062;}
        .stroke20 {fill: #808061;}
        text {
            font-family: Helvetica;
            font-size: 50px;
            fill: #808060;
            paint-order: stroke;
            stroke: #000000;
            stroke-width: 4px;
            stroke-linecap: butt;
            stroke-linejoin: miter;
            font-weight: 800;
        }
    </style>

    <path d="M 167 571 Q 183 549 198 522 Q 208 506 223 504 Q 233 503 241 513 Q 248 526 247 556 Q 244 583 173 617 Q 160 624 152 623 Q 148 620 145 608 Q 146 596 167 571 Z" class="stroke1"/>
    <path d="M 421 640 Q 411 609 385 555 Q 381 548 387 543 Q 394 543 399 549 Q 457 613 485 638 Q 498 645 494 654 Q 485 666 466 677 Q 447 687 427 685 Q 415 682 420 666 Q 424 656 421 640 Z" class="stroke2"/>
    <path d="M 343 423 Q 392 436 454 444 Q 470 447 470 454 Q 471 466 454 474 Q 426 486 344 463 L 299 452 Q 152 422 88 413 Q 76 412 73 404 Q 70 394 85 383 Q 124 359 178 377 Q 230 395 273 406 L 343 423 Z" class="stroke3"/>
    <path d="M 341 349 Q 342 385 343 423 L 344 463 Q 348 692 366 752 Q 382 776 355 796 Q 339 808 310 825 Q 286 843 265 827 Q 261 821 266 806 Q 299 758 300 677 Q 300 487 299 452 L 296 354 Q 292 203 283 160 Q 264 63 264 57 Q 264 42 283 -2 Q 290 -20 298 -23 Q 304 -30 312 -21 Q 319 -17 330 4 Q 340 29 339 61 Q 338 97 341 322 L 341 349 Z" class="stroke4"/>
    <path d="M 273 406 Q 221 289 75 116 Q 69 107 80 106 Q 86 105 95 112 Q 219 211 296 354 C 335 425 288 438 273 406 Z" class="stroke5"/>
    <path d="M 341 322 Q 426 271 435 270 Q 435 271 438 271 Q 447 272 449 284 Q 450 297 440 320 Q 433 335 405 342 Q 347 351 341 349 C 311 347 315 337 341 322 Z" class="stroke6"/>
    <path d="M 621 725 Q 655 697 693 665 Q 709 650 727 652 Q 739 653 744 668 Q 748 686 737 719 Q 730 743 692 759 Q 602 787 588 779 Q 582 775 585 760 Q 589 747 621 725 Z" class="stroke7"/>
    <path d="M 529 514 Q 492 507 519 490 Q 565 466 619 482 Q 707 501 799 522 Q 841 532 847 539 Q 857 548 851 556 Q 844 568 814 575 Q 786 579 674 542 Q 605 524 529 514 Z" class="stroke8"/>
    <path d="M 515 352 Q 546 259 569 248 Q 581 242 593 256 Q 600 268 598 289 Q 592 329 528 375 Q 521 379 516 370 Q 512 363 515 352 Z" class="stroke9"/>
    <path d="M 692 172 Q 713 196 765 317 Q 777 345 799 382 Q 815 397 804 407 Q 792 426 758 445 Q 742 455 723 447 Q 713 441 719 429 Q 737 384 670 202 Q 663 181 662 167 C 658 137 674 148 692 172 Z" class="stroke10"/>
    <path d="M 662 167 Q 658 168 655 167 Q 540 151 401 135 Q 379 134 395 115 Q 410 100 428 95 Q 450 89 467 94 Q 623 134 908 135 Q 924 135 941 134 Q 962 134 967 143 Q 973 155 956 169 Q 901 211 835 196 Q 775 186 692 172 L 662 167 Z" class="stroke11"/>
    
    
    
    
    
    
    
    
    
    
    </g>
</svg>