<svg version="1.1" viewBox="0 0 1024 1024" xmlns="http://www.w3.org/2000/svg">
  
  <g transform="scale(1, -1) translate(0, -900)">
    <style type="text/css">
        .stroke1 {fill: #808080;}
        .stroke2 {fill: #808079;}
        .stroke3 {fill: #808078;}
        .stroke4 {fill: #808077;}
        .stroke5 {fill: #808076;}
        .stroke6 {fill: #808075;}
        .stroke7 {fill: #808074;}
        .stroke8 {fill: #808073;}
        .stroke9 {fill: #808072;}
        .stroke10 {fill: #808071;}
        .stroke11 {fill: #808070;}
        .stroke12 {fill: #808069;}
        .stroke13 {fill: #808068;}
        .stroke14 {fill: #808067;}
        .stroke15 {fill: #808066;}
        .stroke16 {fill: #808065;}
        .stroke17 {fill: #808064;}
        .stroke18 {fill: #808063;}
        .stroke19 {fill: #808062;}
        .stroke20 {fill: #808061;}
        text {
            font-family: Helvetica;
            font-size: 50px;
            fill: #808060;
            paint-order: stroke;
            stroke: #000000;
            stroke-width: 4px;
            stroke-linecap: butt;
            stroke-linejoin: miter;
            font-weight: 800;
        }
    </style>

    <path d="M 138 589 Q 177 508 201 501 Q 214 497 224 513 Q 228 525 224 546 Q 217 565 196 580 Q 163 605 148 613 Q 141 617 137 606 Q 133 599 138 589 Z" class="stroke1"/>
    <path d="M 338 612 Q 331 587 313 546 Q 310 539 315 535 Q 321 535 326 540 Q 372 591 396 610 Q 408 617 403 624 Q 396 634 378 645 Q 360 655 344 652 Q 334 649 337 635 Q 341 625 338 612 Z" class="stroke2"/>
    <path d="M 295 437 Q 296 440 370 453 Q 380 452 387 464 Q 387 474 366 482 Q 342 500 296 482 L 254 469 Q 185 451 106 434 Q 81 430 101 415 Q 134 394 167 405 Q 197 414 235 423 L 295 437 Z" class="stroke3"/>
    <path d="M 293 354 Q 293 394 295 437 L 296 482 Q 296 647 316 721 Q 325 734 322 748 Q 315 757 263 789 Q 241 805 222 791 Q 218 787 223 772 Q 254 726 254 680 Q 255 613 256 536 Q 255 503 254 469 L 250 354 Q 244 195 227 126 Q 206 96 237 21 Q 244 5 251 1 Q 257 -5 264 2 Q 271 6 281 26 Q 291 50 290 79 Q 289 113 292 331 L 293 354 Z" class="stroke4"/>
    <path d="M 235 423 Q 189 317 51 148 Q 45 139 56 138 Q 62 137 71 144 Q 185 232 250 354 C 299 444 247 450 235 423 Z" class="stroke5"/>
    <path d="M 292 331 Q 319 304 347 271 Q 354 262 364 262 Q 370 261 374 269 Q 378 276 375 295 Q 374 311 350 327 Q 305 354 293 354 C 266 358 271 352 292 331 Z" class="stroke6"/>
    <path d="M 557 521 Q 576 609 600 636 Q 619 658 599 671 Q 542 699 539 699 Q 532 699 524 693 Q 493 669 420 651 Q 410 651 412 645 Q 413 641 425 634 Q 441 627 471 637 Q 529 652 534 646 Q 541 639 533 606 Q 523 570 512 527 C 505 498 550 492 557 521 Z" class="stroke7"/>
    <path d="M 454 475 Q 469 482 564 497 Q 573 498 573 506 Q 573 512 557 521 L 512 527 Q 508 527 505 525 Q 475 515 452 506 C 424 495 426 464 454 475 Z" class="stroke8"/>
    <path d="M 476 376 Q 494 377 501 369 Q 511 357 508 323 Q 502 227 479 162 Q 469 131 458 118 Q 451 111 430 116 Q 402 128 378 137 Q 365 143 366 133 Q 367 123 379 111 Q 413 77 431 47 Q 446 26 465 38 Q 529 89 537 155 Q 562 345 566 350 Q 567 354 570 358 Q 579 374 570 382 Q 560 397 532 409 Q 511 418 449 393 Q 442 392 440 394 Q 437 395 439 405 Q 445 438 454 475 C 460 499 460 499 452 506 Q 445 518 418 530 Q 406 537 399 532 Q 392 526 400 514 Q 416 489 408 448 Q 398 394 376 373 Q 366 360 371 350 Q 377 338 386 332 Q 395 326 410 340 Q 437 371 476 376 Z" class="stroke9"/>
    <path d="M 655 673 Q 646 677 627 681 Q 615 684 613 679 Q 607 675 614 659 Q 635 616 647 546 Q 650 525 662 511 Q 677 490 682 505 Q 683 509 684 513 L 685 544 Q 685 547 685 550 Q 676 620 675 644 C 674 666 674 666 655 673 Z" class="stroke10"/>
    <path d="M 829 564 Q 848 631 878 656 Q 893 672 879 688 Q 863 700 816 719 Q 801 725 735 697 Q 711 690 655 673 C 626 664 646 636 675 644 Q 682 645 696 651 Q 789 673 794 669 Q 806 657 785 571 C 778 542 820 535 829 564 Z" class="stroke11"/>
    <path d="M 684 513 Q 688 513 697 513 L 723 518 Q 763 528 838 535 Q 848 536 848 545 Q 848 552 829 564 L 785 571 Q 779 571 776 569 Q 725 554 685 544 C 656 537 654 513 684 513 Z" class="stroke12"/>
    <path d="M 620 394 Q 610 398 596 399 Q 587 402 584 397 Q 580 393 586 380 Q 608 338 623 268 Q 626 246 639 233 Q 654 217 657 228 Q 660 238 659 251 L 656 276 Q 641 351 640 371 C 639 388 639 388 620 394 Z" class="stroke13"/>
    <path d="M 722 409 Q 673 402 620 394 C 590 390 610 368 640 371 Q 649 371 660 374 Q 691 381 723 385 L 766 394 Q 790 400 816 404 Q 835 408 843 400 Q 850 393 848 380 Q 839 344 830 314 C 822 285 862 284 873 312 Q 894 366 919 380 Q 932 395 921 409 Q 908 421 867 442 Q 852 448 835 442 Q 801 429 768 420 L 722 409 Z" class="stroke14"/>
    <path d="M 659 251 Q 665 248 726 259 L 762 265 Q 813 275 886 282 Q 895 283 896 290 Q 896 297 873 312 C 859 322 859 322 830 314 Q 796 305 763 296 L 726 288 Q 689 281 656 276 C 626 271 629 253 659 251 Z" class="stroke15"/>
    <path d="M 697 513 Q 693 509 699 496 Q 717 472 722 409 L 723 385 Q 724 339 726 288 L 726 259 Q 726 213 724 163 C 723 133 755 141 757 171 Q 760 220 762 265 L 763 296 Q 764 347 766 394 L 768 420 Q 768 438 780 480 Q 783 490 766 501 Q 741 514 723 518 C 697 525 697 525 697 513 Z" class="stroke16"/>
    <path d="M 724 163 Q 621 142 599 142 Q 587 141 585 132 Q 584 120 591 112 Q 612 97 640 78 Q 650 75 661 83 Q 677 96 849 170 C 877 182 867 198 838 191 Q 798 182 757 171 L 724 163 Z" class="stroke17"/>
    <path d="M 849 170 Q 897 74 906 69 Q 913 66 922 73 Q 929 83 933 106 Q 937 134 911 172 Q 880 206 844 239 Q 834 246 829 246 Q 825 245 821 235 L 838 191 L 849 170 Z" class="stroke18"/>
    
    
    
    
    
    
    
    
    
    
    
    
    
    
    
    
    
    </g>
</svg>