<svg version="1.1" viewBox="0 0 1024 1024" xmlns="http://www.w3.org/2000/svg">
  
  <g transform="scale(1, -1) translate(0, -900)">
    <style type="text/css">
        .stroke1 {fill: #808080;}
        .stroke2 {fill: #808079;}
        .stroke3 {fill: #808078;}
        .stroke4 {fill: #808077;}
        .stroke5 {fill: #808076;}
        .stroke6 {fill: #808075;}
        .stroke7 {fill: #808074;}
        .stroke8 {fill: #808073;}
        .stroke9 {fill: #808072;}
        .stroke10 {fill: #808071;}
        .stroke11 {fill: #808070;}
        .stroke12 {fill: #808069;}
        .stroke13 {fill: #808068;}
        .stroke14 {fill: #808067;}
        .stroke15 {fill: #808066;}
        .stroke16 {fill: #808065;}
        .stroke17 {fill: #808064;}
        .stroke18 {fill: #808063;}
        .stroke19 {fill: #808062;}
        .stroke20 {fill: #808061;}
        text {
            font-family: Helvetica;
            font-size: 50px;
            fill: #808060;
            paint-order: stroke;
            stroke: #000000;
            stroke-width: 4px;
            stroke-linecap: butt;
            stroke-linejoin: miter;
            font-weight: 800;
        }
    </style>

    <path d="M 358 525 Q 312 525 271 525 Q 243 525 258 542 Q 334 648 404 726 Q 420 742 418 750 Q 417 766 379 801 Q 363 816 344 814 Q 332 811 338 795 Q 351 752 253 600 Q 231 566 190 534 Q 169 521 171 507 Q 175 488 189 468 Q 199 456 213 463 Q 249 485 337 498 C 367 503 388 525 358 525 Z" class="stroke1"/>
    <path d="M 421 415 Q 363 402 300 379 Q 282 372 293 387 Q 336 444 434 556 Q 462 593 488 613 Q 501 623 495 632 Q 485 651 453 671 Q 437 681 428 678 Q 418 675 420 660 Q 423 618 358 525 L 337 498 Q 240 372 218 361 Q 205 352 207 339 Q 208 326 234 307 Q 244 295 259 308 Q 325 360 430 397 C 458 407 450 422 421 415 Z" class="stroke2"/>
    <path d="M 430 397 Q 442 373 461 366 Q 474 362 484 377 Q 488 389 484 410 Q 475 440 420 465 Q 413 469 408 458 Q 405 452 421 415 L 430 397 Z" class="stroke3"/>
    <path d="M 156 188 Q 177 145 197 93 Q 204 74 220 68 Q 230 64 241 74 Q 251 86 257 118 Q 261 143 236 177 Q 170 246 153 247 Q 146 246 142 232 Q 141 220 156 188 Z" class="stroke4"/>
    <path d="M 301 215 Q 328 157 344 150 Q 354 149 361 157 Q 370 167 370 195 Q 370 219 310 256 Q 298 263 293 263 Q 287 262 285 250 Q 285 240 301 215 Z" class="stroke5"/>
    <path d="M 395 279 Q 422 228 449 209 Q 462 203 472 213 Q 479 223 480 238 Q 477 277 412 309 Q 399 316 390 315 Q 386 315 385 304 Q 384 294 395 279 Z" class="stroke6"/>
    <path d="M 619 531 Q 625 540 633 548 Q 676 599 723 676 Q 742 712 761 729 Q 770 741 765 755 Q 761 768 730 791 Q 702 810 681 809 Q 662 806 671 784 Q 683 760 675 739 Q 651 669 612 603 Q 575 539 522 468 Q 512 458 510 451 Q 506 439 521 442 Q 539 446 603 513 L 619 531 Z" class="stroke7"/>
    <path d="M 603 513 Q 607 509 616 504 Q 638 491 658 498 Q 823 537 829 521 Q 839 502 838 453 Q 834 273 805 177 Q 792 116 772 97 Q 760 84 735 90 Q 695 102 661 113 Q 636 120 654 97 Q 706 45 736 3 Q 748 -19 771 -12 Q 793 -8 817 24 Q 889 108 897 410 Q 898 477 922 518 Q 938 540 928 549 Q 913 568 878 582 Q 854 594 794 568 Q 676 535 619 531 C 589 528 580 527 603 513 Z" class="stroke8"/>
    <path d="M 573 348 Q 604 314 637 274 Q 650 258 666 257 Q 678 256 685 269 Q 692 284 687 316 Q 681 355 575 399 Q 559 405 552 403 Q 546 400 546 386 Q 549 374 573 348 Z" class="stroke9"/>
    
    
    
    
    
    
    
    
    </g>
</svg>