<svg version="1.1" viewBox="0 0 1024 1024" xmlns="http://www.w3.org/2000/svg">
  
  <g transform="scale(1, -1) translate(0, -900)">
    <style type="text/css">
        .stroke1 {fill: #808080;}
        .stroke2 {fill: #808079;}
        .stroke3 {fill: #808078;}
        .stroke4 {fill: #808077;}
        .stroke5 {fill: #808076;}
        .stroke6 {fill: #808075;}
        .stroke7 {fill: #808074;}
        .stroke8 {fill: #808073;}
        .stroke9 {fill: #808072;}
        .stroke10 {fill: #808071;}
        .stroke11 {fill: #808070;}
        .stroke12 {fill: #808069;}
        .stroke13 {fill: #808068;}
        .stroke14 {fill: #808067;}
        .stroke15 {fill: #808066;}
        .stroke16 {fill: #808065;}
        .stroke17 {fill: #808064;}
        .stroke18 {fill: #808063;}
        .stroke19 {fill: #808062;}
        .stroke20 {fill: #808061;}
        text {
            font-family: Helvetica;
            font-size: 50px;
            fill: #808060;
            paint-order: stroke;
            stroke: #000000;
            stroke-width: 4px;
            stroke-linecap: butt;
            stroke-linejoin: miter;
            font-weight: 800;
        }
    </style>

    <path d="M 312 521 Q 308 522 305 521 Q 262 521 227 521 Q 194 520 211 541 Q 278 650 344 730 Q 359 748 356 756 Q 355 771 314 804 Q 298 817 278 814 Q 268 811 273 795 Q 291 753 202 598 Q 183 562 144 529 Q 125 514 126 501 Q 130 482 145 463 Q 154 454 179 465 Q 212 481 296 497 C 325 503 342 521 312 521 Z" class="stroke1"/>
    <path d="M 359 388 Q 304 375 243 351 Q 224 344 236 360 Q 278 420 377 539 Q 405 576 430 597 Q 442 607 436 617 Q 426 636 393 655 Q 377 664 367 661 Q 357 657 360 642 Q 361 608 312 521 L 296 497 Q 176 341 161 333 Q 148 323 151 310 Q 152 297 178 279 Q 188 267 203 280 Q 270 331 370 370 C 398 381 388 395 359 388 Z" class="stroke2"/>
    <path d="M 370 370 Q 383 352 399 341 Q 409 337 420 345 Q 427 355 428 369 Q 427 388 414 402 Q 390 426 356 438 Q 350 439 346 438 Q 342 438 341 428 Q 340 421 359 388 L 370 370 Z" class="stroke3"/>
    <path d="M 106 141 Q 128 101 152 56 Q 161 38 176 34 Q 186 30 197 42 Q 207 55 209 87 Q 210 126 118 190 Q 105 199 97 199 Q 90 198 87 184 Q 87 171 106 141 Z" class="stroke4"/>
    <path d="M 228 211 Q 249 169 273 156 Q 286 152 296 161 Q 303 171 303 186 Q 300 208 287 221 Q 248 252 222 247 Q 216 246 217 236 Q 217 226 228 211 Z" class="stroke5"/>
    <path d="M 337 281 Q 358 250 382 235 Q 392 232 400 241 Q 406 250 404 262 Q 401 280 389 290 Q 356 315 329 310 Q 325 309 326 300 Q 326 291 337 281 Z" class="stroke6"/>
    <path d="M 539 599 Q 545 560 535 511 Q 534 508 533 503 Q 491 278 322 87 Q 316 83 314 77 Q 310 67 320 68 Q 354 68 447 178 Q 454 190 464 202 Q 495 251 523 309 L 533 331 Q 551 376 595 524 Q 599 540 606 554 Q 616 566 611 579 Q 599 595 576 611 C 552 629 536 629 539 599 Z" class="stroke7"/>
    <path d="M 643 168 Q 553 84 462 49 Q 438 42 440 38 Q 443 26 506 46 Q 605 74 673 130 L 712 167 Q 781 251 803 352 Q 815 392 837 411 Q 841 415 841 422 Q 838 440 788 467 Q 769 474 745 463 Q 735 456 704 447 Q 676 438 700 483 Q 725 523 775 610 Q 788 632 803 641 Q 819 650 823 659 Q 827 671 788 693 Q 743 717 693 688 Q 582 643 484 629 Q 462 626 464 616 Q 467 607 496 599 Q 512 595 539 599 L 576 611 Q 588 620 707 655 Q 720 659 723 653 Q 729 637 665 505 Q 649 480 632 465 Q 617 449 624 434 Q 631 419 641 411 Q 648 405 656 405 Q 662 406 675 412 Q 685 416 712 423 Q 740 424 749 413 Q 759 403 748 366 Q 729 272 690 222 Q 683 212 674 202 L 643 168 Z" class="stroke8"/>
    <path d="M 523 309 Q 560 282 643 168 L 673 130 Q 757 22 794 20 Q 876 13 944 17 Q 978 18 977 29 Q 974 38 816 99 Q 750 129 712 167 L 674 202 Q 634 242 594 290 Q 563 327 533 331 C 504 339 500 328 523 309 Z" class="stroke9"/>
    
    
    
    
    
    
    
    
    </g>
</svg>