<svg version="1.1" viewBox="0 0 1024 1024" xmlns="http://www.w3.org/2000/svg">
  
  <g transform="scale(1, -1) translate(0, -900)">
    <style type="text/css">
        .stroke1 {fill: #808080;}
        .stroke2 {fill: #808079;}
        .stroke3 {fill: #808078;}
        .stroke4 {fill: #808077;}
        .stroke5 {fill: #808076;}
        .stroke6 {fill: #808075;}
        .stroke7 {fill: #808074;}
        .stroke8 {fill: #808073;}
        .stroke9 {fill: #808072;}
        .stroke10 {fill: #808071;}
        .stroke11 {fill: #808070;}
        .stroke12 {fill: #808069;}
        .stroke13 {fill: #808068;}
        .stroke14 {fill: #808067;}
        .stroke15 {fill: #808066;}
        .stroke16 {fill: #808065;}
        .stroke17 {fill: #808064;}
        .stroke18 {fill: #808063;}
        .stroke19 {fill: #808062;}
        .stroke20 {fill: #808061;}
        text {
            font-family: Helvetica;
            font-size: 50px;
            fill: #808060;
            paint-order: stroke;
            stroke: #000000;
            stroke-width: 4px;
            stroke-linecap: butt;
            stroke-linejoin: miter;
            font-weight: 800;
        }
    </style>

    <path d="M 289 544 Q 244 543 207 542 Q 176 541 192 560 Q 262 666 327 746 Q 343 764 340 772 Q 339 787 298 820 Q 282 835 263 831 Q 251 828 257 812 Q 275 767 168 594 Q 150 573 124 549 Q 105 534 106 522 Q 110 503 125 483 Q 135 473 149 479 Q 174 495 261 514 Q 265 515 271 515 C 301 519 319 545 289 544 Z" class="stroke1"/>
    <path d="M 334 413 Q 283 400 224 379 Q 205 372 217 387 Q 254 438 343 540 Q 371 577 397 597 Q 409 607 403 617 Q 393 636 361 655 Q 345 664 336 662 Q 326 658 328 643 Q 329 616 289 544 L 271 515 L 271 514 Q 169 375 141 361 Q 128 352 131 339 Q 132 326 158 307 Q 168 295 183 308 Q 244 356 344 393 C 372 404 363 421 334 413 Z" class="stroke2"/>
    <path d="M 344 393 Q 356 374 370 370 Q 382 366 392 380 Q 396 392 393 412 Q 387 427 370 438 Q 345 459 332 464 Q 325 468 320 458 Q 317 449 334 413 L 344 393 Z" class="stroke3"/>
    <path d="M 98 181 Q 119 145 140 104 Q 149 86 164 81 Q 174 78 185 89 Q 195 102 196 135 Q 197 157 171 185 Q 104 242 89 239 Q 82 238 79 223 Q 79 211 98 181 Z" class="stroke4"/>
    <path d="M 226 228 Q 242 206 259 180 Q 268 167 281 164 Q 291 163 297 173 Q 304 185 302 211 Q 299 238 231 270 Q 218 276 212 275 Q 208 272 206 261 Q 207 251 226 228 Z" class="stroke5"/>
    <path d="M 326 279 Q 344 260 362 238 Q 372 228 384 227 Q 393 227 397 237 Q 401 247 397 271 Q 390 298 325 316 Q 313 320 308 319 Q 304 316 304 306 Q 305 297 326 279 Z" class="stroke6"/>
    <path d="M 507 636 Q 528 606 471 484 Q 446 429 407 368 Q 400 358 398 352 Q 397 342 408 346 Q 450 358 554 542 Q 560 570 585 597 Q 592 607 587 619 Q 583 629 555 647 Q 530 660 514 658 Q 498 655 507 636 Z" class="stroke7"/>
    <path d="M 564 784 Q 612 754 649 681 Q 769 447 828 431 Q 958 431 981 432 Q 1012 433 1013 442 Q 1013 449 984 460 Q 837 515 787 567 Q 732 622 647 762 Q 628 796 591 799 Q 564 802 562 795 Q 558 788 564 784 Z" class="stroke8"/>
    <path d="M 581 342 Q 648 361 716 372 Q 728 373 731 367 Q 737 355 734 323 Q 724 208 701 148 Q 689 111 677 98 Q 665 89 646 98 Q 619 110 596 122 Q 574 132 586 108 Q 622 54 639 14 Q 645 -8 666 -6 Q 681 -5 701 15 Q 759 67 792 281 Q 799 329 819 356 Q 835 378 827 388 Q 811 407 776 422 Q 751 435 724 424 Q 610 373 482 367 Q 463 368 463 358 Q 462 349 484 336 Q 509 320 534 329 Q 540 332 548 333 L 581 342 Z" class="stroke9"/>
    <path d="M 548 333 Q 547 333 548 332 Q 548 206 372 74 Q 356 64 337 49 Q 330 42 335 39 Q 362 30 449 83 Q 528 131 592 251 Q 604 270 618 289 Q 625 298 621 308 Q 617 318 589 337 Q 585 340 581 342 C 556 358 549 363 548 333 Z" class="stroke10"/>
    
    
    
    
    
    
    
    
    
    </g>
</svg>