<svg version="1.1" viewBox="0 0 1024 1024" xmlns="http://www.w3.org/2000/svg">
  
  <g transform="scale(1, -1) translate(0, -900)">
    <style type="text/css">
        .stroke1 {fill: #808080;}
        .stroke2 {fill: #808079;}
        .stroke3 {fill: #808078;}
        .stroke4 {fill: #808077;}
        .stroke5 {fill: #808076;}
        .stroke6 {fill: #808075;}
        .stroke7 {fill: #808074;}
        .stroke8 {fill: #808073;}
        .stroke9 {fill: #808072;}
        .stroke10 {fill: #808071;}
        .stroke11 {fill: #808070;}
        .stroke12 {fill: #808069;}
        .stroke13 {fill: #808068;}
        .stroke14 {fill: #808067;}
        .stroke15 {fill: #808066;}
        .stroke16 {fill: #808065;}
        .stroke17 {fill: #808064;}
        .stroke18 {fill: #808063;}
        .stroke19 {fill: #808062;}
        .stroke20 {fill: #808061;}
        text {
            font-family: Helvetica;
            font-size: 50px;
            fill: #808060;
            paint-order: stroke;
            stroke: #000000;
            stroke-width: 4px;
            stroke-linecap: butt;
            stroke-linejoin: miter;
            font-weight: 800;
        }
    </style>

    <path d="M 278 489 Q 236 490 201 491 Q 165 491 184 513 Q 242 613 297 689 Q 310 705 307 713 Q 304 726 268 753 Q 252 766 235 761 Q 225 758 232 744 Q 247 705 175 564 Q 159 533 125 500 Q 109 487 110 476 Q 114 460 126 443 Q 136 433 147 440 Q 171 452 251 465 Q 255 466 262 465 C 292 466 308 488 278 489 Z" class="stroke1"/>
    <path d="M 331 363 Q 282 353 225 333 Q 200 323 215 345 Q 255 400 346 511 Q 374 548 398 569 Q 410 579 404 589 Q 394 608 360 626 Q 344 635 335 632 Q 325 629 328 614 Q 331 578 278 489 L 262 465 Q 165 330 140 317 Q 127 308 130 294 Q 131 281 157 263 Q 167 251 182 263 Q 242 308 340 345 C 368 356 360 369 331 363 Z" class="stroke2"/>
    <path d="M 340 345 Q 358 308 372 302 Q 382 298 392 311 Q 396 321 394 339 Q 390 358 372 373 Q 344 400 331 408 Q 324 412 320 403 Q 317 396 331 363 L 340 345 Z" class="stroke3"/>
    <path d="M 108 137 Q 124 85 139 26 Q 142 11 153 4 Q 160 0 170 6 Q 180 13 188 38 Q 201 80 127 171 Q 118 181 113 182 Q 107 182 103 172 Q 100 163 108 137 Z" class="stroke4"/>
    <path d="M 221 172 Q 234 147 249 116 Q 253 104 264 101 Q 271 98 278 105 Q 285 114 286 134 Q 287 161 230 204 Q 221 210 216 210 Q 212 209 210 200 Q 209 193 221 172 Z" class="stroke5"/>
    <path d="M 304 226 Q 316 187 332 170 Q 339 164 349 170 Q 356 176 358 186 Q 358 219 323 243 L 321 245 Q 314 252 306 252 Q 302 253 301 246 Q 300 239 304 226 Z" class="stroke6"/>
    <path d="M 430 608 Q 449 583 471 552 Q 480 539 493 536 Q 503 535 509 545 Q 516 557 514 583 Q 513 602 488 620 Q 428 659 416 655 Q 412 652 410 641 Q 411 631 430 608 Z" class="stroke7"/>
    <path d="M 385 197 Q 376 194 377 181 Q 386 124 411 110 Q 415 106 424 107 Q 430 108 431 126 Q 440 172 525 359 Q 531 371 530 376 Q 530 383 523 378 Q 514 375 419 230 Q 409 214 385 197 Z" class="stroke8"/>
    <path d="M 600 519 Q 604 529 610 538 Q 641 595 673 679 Q 685 718 698 738 Q 705 750 698 762 Q 691 774 658 789 Q 628 802 610 797 Q 594 791 605 772 Q 615 757 617 720 Q 595 596 520 439 Q 513 427 512 421 Q 511 409 524 415 Q 548 425 593 507 L 600 519 Z" class="stroke9"/>
    <path d="M 593 507 Q 594 506 598 501 Q 619 480 643 489 Q 698 511 761 525 Q 794 534 804 531 Q 817 519 812 511 Q 813 505 779 440 Q 772 430 777 425 Q 781 419 792 431 Q 880 495 920 510 Q 930 511 930 520 Q 931 533 903 547 Q 882 560 860 573 Q 835 586 820 580 Q 741 546 604 521 Q 601 521 600 519 C 586 515 586 515 593 507 Z" class="stroke10"/>
    <path d="M 667 263 L 669 269 Q 694 371 701 381 Q 710 397 695 407 Q 652 443 624 434 Q 611 430 617 416 Q 644 362 607 231 Q 604 224 601 214 Q 556 96 454 33 Q 439 21 424 11 Q 411 2 423 0 Q 474 -4 554 63 Q 629 127 658 227 L 667 263 Z" class="stroke11"/>
    <path d="M 658 227 Q 718 122 796 11 Q 812 -8 840 -11 Q 937 -15 969 -13 Q 979 -12 980 -7 Q 981 -3 969 6 Q 837 69 771 142 Q 722 196 667 263 C 648 286 643 253 658 227 Z" class="stroke12"/>
    
    
    
    
    
    
    
    
    
    
    
    </g>
</svg>