<svg version="1.1" viewBox="0 0 1024 1024" xmlns="http://www.w3.org/2000/svg">
  
  <g transform="scale(1, -1) translate(0, -900)">
    <style type="text/css">
        .stroke1 {fill: #808080;}
        .stroke2 {fill: #808079;}
        .stroke3 {fill: #808078;}
        .stroke4 {fill: #808077;}
        .stroke5 {fill: #808076;}
        .stroke6 {fill: #808075;}
        .stroke7 {fill: #808074;}
        .stroke8 {fill: #808073;}
        .stroke9 {fill: #808072;}
        .stroke10 {fill: #808071;}
        .stroke11 {fill: #808070;}
        .stroke12 {fill: #808069;}
        .stroke13 {fill: #808068;}
        .stroke14 {fill: #808067;}
        .stroke15 {fill: #808066;}
        .stroke16 {fill: #808065;}
        .stroke17 {fill: #808064;}
        .stroke18 {fill: #808063;}
        .stroke19 {fill: #808062;}
        .stroke20 {fill: #808061;}
        text {
            font-family: Helvetica;
            font-size: 50px;
            fill: #808060;
            paint-order: stroke;
            stroke: #000000;
            stroke-width: 4px;
            stroke-linecap: butt;
            stroke-linejoin: miter;
            font-weight: 800;
        }
    </style>

    <path d="M 309 504 Q 260 503 219 502 Q 185 501 202 521 Q 266 627 329 707 Q 344 725 341 732 Q 338 748 298 779 Q 282 794 262 790 Q 250 786 257 771 Q 264 753 259 726 Q 247 678 191 576 Q 173 542 135 508 Q 116 493 118 481 Q 122 462 138 443 Q 148 431 161 439 Q 207 466 290 477 C 320 481 339 505 309 504 Z" class="stroke1"/>
    <path d="M 355 358 Q 309 354 256 340 Q 223 330 245 356 Q 285 411 381 523 Q 412 563 439 585 Q 452 595 446 607 Q 434 628 399 648 Q 383 658 372 655 Q 362 651 363 635 Q 366 596 309 504 L 290 477 Q 184 339 161 328 Q 146 318 149 303 Q 150 288 178 267 Q 190 254 206 267 Q 263 306 359 339 Q 360 340 363 340 C 391 349 385 361 355 358 Z" class="stroke2"/>
    <path d="M 363 340 Q 372 310 393 303 Q 405 297 417 312 Q 423 324 420 345 Q 416 363 397 378 Q 369 405 356 412 Q 349 416 344 406 Q 340 399 355 358 L 363 340 Z" class="stroke3"/>
    <path d="M 91 125 Q 110 82 130 32 Q 136 16 150 9 Q 159 5 169 14 Q 179 24 185 54 Q 191 91 107 168 Q 95 178 89 179 Q 83 178 79 166 Q 78 154 91 125 Z" class="stroke4"/>
    <path d="M 223 163 Q 253 118 267 116 Q 274 115 281 125 Q 287 135 284 161 Q 283 174 264 185 Q 219 210 208 207 Q 204 204 203 193 Q 204 184 223 163 Z" class="stroke5"/>
    <path d="M 342 204 Q 352 188 363 168 Q 372 155 385 152 Q 395 151 401 161 Q 408 173 406 199 Q 403 217 347 246 Q 334 252 328 251 Q 324 248 322 237 Q 323 227 342 204 Z" class="stroke6"/>
    <path d="M 538 698 Q 496 691 527 672 Q 573 645 638 664 Q 708 680 782 698 Q 815 707 820 712 Q 830 722 824 731 Q 815 744 782 751 Q 748 755 714 741 Q 677 728 636 716 Q 591 706 538 698 Z" class="stroke7"/>
    <path d="M 503 548 Q 497 505 459 445 Q 437 429 477 387 Q 496 365 521 327 Q 531 308 543 308 Q 556 308 565 324 Q 575 346 569 361 Q 566 380 495 415 Q 474 428 516 476 Q 534 503 563 528 Q 593 540 557 577 Q 538 596 521 601 Q 503 602 497 597 Q 496 593 500 584 Q 509 571 503 548 Z" class="stroke8"/>
    <path d="M 638 570 Q 629 519 598 488 Q 579 473 620 424 Q 641 399 666 357 Q 675 336 686 337 Q 699 336 709 352 Q 719 373 715 389 Q 712 408 636 455 Q 611 471 657 512 Q 658 513 661 515 Q 686 540 697 547 Q 707 551 709 558 Q 713 574 693 597 Q 675 618 658 622 Q 640 626 634 620 Q 631 616 636 607 Q 645 594 638 570 Z" class="stroke9"/>
    <path d="M 785 582 Q 772 542 745 503 Q 735 493 738 480 Q 739 470 755 459 Q 798 419 837 376 Q 850 360 864 359 Q 877 360 881 381 Q 884 403 873 419 Q 864 438 800 463 Q 781 469 774 482 Q 770 492 782 504 Q 848 579 854 582 Q 867 591 862 607 Q 849 641 826 654 Q 813 663 801 660 Q 791 659 796 640 Q 803 616 785 582 Z" class="stroke10"/>
    <path d="M 657 251 Q 699 261 815 274 Q 825 273 833 284 Q 834 294 814 304 Q 787 325 700 299 Q 684 298 669 292 Q 620 283 492 266 Q 467 262 486 247 Q 517 226 538 229 Q 574 236 613 243 L 657 251 Z" class="stroke11"/>
    <path d="M 654 112 Q 679 223 680 223 Q 670 241 657 251 C 634 270 613 273 613 243 Q 614 234 603 106 C 600 76 647 83 654 112 Z" class="stroke12"/>
    <path d="M 603 106 Q 495 96 373 83 Q 351 82 367 63 Q 382 48 400 42 Q 422 36 439 40 Q 583 76 901 76 Q 919 76 936 74 Q 957 74 962 83 Q 968 95 951 109 Q 897 151 859 143 Q 783 130 654 112 L 603 106 Z" class="stroke13"/>
    
    
    
    
    
    
    
    
    
    
    
    
    </g>
</svg>