<svg version="1.1" viewBox="0 0 1024 1024" xmlns="http://www.w3.org/2000/svg">
  
  <g transform="scale(1, -1) translate(0, -900)">
    <style type="text/css">
        .stroke1 {fill: #808080;}
        .stroke2 {fill: #808079;}
        .stroke3 {fill: #808078;}
        .stroke4 {fill: #808077;}
        .stroke5 {fill: #808076;}
        .stroke6 {fill: #808075;}
        .stroke7 {fill: #808074;}
        .stroke8 {fill: #808073;}
        .stroke9 {fill: #808072;}
        .stroke10 {fill: #808071;}
        .stroke11 {fill: #808070;}
        .stroke12 {fill: #808069;}
        .stroke13 {fill: #808068;}
        .stroke14 {fill: #808067;}
        .stroke15 {fill: #808066;}
        .stroke16 {fill: #808065;}
        .stroke17 {fill: #808064;}
        .stroke18 {fill: #808063;}
        .stroke19 {fill: #808062;}
        .stroke20 {fill: #808061;}
        text {
            font-family: Helvetica;
            font-size: 50px;
            fill: #808060;
            paint-order: stroke;
            stroke: #000000;
            stroke-width: 4px;
            stroke-linecap: butt;
            stroke-linejoin: miter;
            font-weight: 800;
        }
    </style>

    <path d="M 291 539 Q 249 539 216 537 Q 185 536 200 556 Q 260 658 317 733 Q 330 751 328 758 Q 325 773 286 803 Q 270 816 252 812 Q 240 808 247 793 Q 265 754 187 608 Q 171 575 136 543 Q 117 528 119 516 Q 123 497 139 480 Q 149 470 162 477 Q 184 490 264 511 Q 268 512 275 512 C 305 516 321 539 291 539 Z" class="stroke1"/>
    <path d="M 318 374 Q 275 368 228 354 Q 198 342 217 368 Q 257 428 354 550 Q 382 590 408 612 Q 420 622 413 633 Q 403 652 367 671 Q 351 680 341 677 Q 331 673 333 657 Q 337 624 291 539 L 275 512 Q 164 352 138 338 Q 125 328 127 314 Q 128 301 156 281 Q 168 268 183 282 Q 234 321 319 355 L 321 355 C 349 365 348 379 318 374 Z" class="stroke2"/>
    <path d="M 321 355 Q 325 336 336 327 Q 345 320 359 330 Q 366 337 370 357 Q 371 375 358 392 Q 340 423 331 432 Q 325 439 318 431 Q 312 422 318 374 L 321 355 Z" class="stroke3"/>
    <path d="M 85 153 Q 104 111 125 62 Q 132 46 146 40 Q 156 36 165 46 Q 175 56 179 86 Q 183 111 159 142 Q 98 206 81 207 Q 75 206 71 193 Q 70 183 85 153 Z" class="stroke4"/>
    <path d="M 205 200 Q 232 151 243 147 Q 250 146 258 153 Q 265 163 265 187 Q 262 209 212 237 Q 202 243 196 242 Q 192 241 190 231 Q 190 221 205 200 Z" class="stroke5"/>
    <path d="M 314 256 Q 329 234 344 206 Q 351 193 363 190 Q 370 189 377 197 Q 384 207 384 231 Q 384 247 364 264 Q 316 301 304 298 Q 300 297 298 287 Q 298 277 314 256 Z" class="stroke6"/>
    <path d="M 632 768 Q 593 731 508 683 Q 504 674 510 672 Q 544 672 640 711 Q 680 732 731 744 Q 747 745 751 753 Q 754 763 742 774 Q 685 811 651 807 Q 644 803 644 793 Q 644 778 632 768 Z" class="stroke7"/>
    <path d="M 466 584 Q 479 565 491 541 Q 498 529 511 526 Q 518 525 525 533 Q 532 543 532 567 Q 529 594 472 621 Q 462 627 456 626 Q 452 625 450 614 Q 451 605 466 584 Z" class="stroke8"/>
    <path d="M 563 628 Q 584 591 606 577 Q 616 573 624 581 Q 630 590 630 602 Q 629 620 617 631 Q 587 658 564 658 Q 561 659 558 658 Q 554 657 553 648 Q 553 641 563 628 Z" class="stroke9"/>
    <path d="M 743 652 Q 728 631 659 561 Q 649 546 665 548 Q 711 570 737 585 Q 791 621 818 629 Q 837 636 829 654 Q 819 670 796 685 Q 775 698 764 698 Q 752 697 755 685 Q 756 669 743 652 Z" class="stroke10"/>
    <path d="M 460 482 Q 450 506 433 520 Q 430 524 424 520 Q 420 517 418 507 Q 419 479 393 425 Q 383 410 383 393 Q 384 375 393 362 Q 400 352 405 358 Q 417 361 433 401 Q 454 452 459 457 C 466 468 466 468 460 482 Z" class="stroke11"/>
    <path d="M 459 457 Q 481 444 506 451 Q 620 496 777 509 Q 787 510 794 510 Q 804 503 801 496 Q 801 492 766 422 Q 756 409 763 404 Q 772 400 789 411 Q 844 447 890 458 Q 927 467 927 477 Q 924 487 857 537 Q 833 556 741 535 Q 702 529 537 497 Q 497 488 460 482 C 430 477 431 469 459 457 Z" class="stroke12"/>
    <path d="M 652 175 Q 686 223 711 292 Q 720 326 740 343 Q 756 356 739 373 Q 718 389 686 404 Q 664 411 643 402 Q 589 369 514 353 Q 486 349 475 342 Q 466 335 486 325 Q 514 313 553 329 Q 596 342 638 354 Q 651 361 655 344 Q 655 284 612 211 L 588 178 Q 573 162 557 146 Q 499 100 350 62 Q 334 59 343 50 Q 350 43 380 45 Q 477 55 534 77 Q 583 98 622 139 L 652 175 Z" class="stroke13"/>
    <path d="M 622 139 Q 764 -3 805 -14 Q 823 -14 944 11 Q 957 15 969 21 Q 976 28 964 36 Q 948 43 826 76 Q 747 100 652 175 L 612 211 Q 584 236 557 264 Q 538 285 505 288 Q 492 289 482 282 Q 478 275 488 266 Q 524 245 573 193 Q 580 187 588 178 L 622 139 Z" class="stroke14"/>
    
    
    
    
    
    
    
    
    
    
    
    
    
    </g>
</svg>