<svg version="1.1" viewBox="0 0 1024 1024" xmlns="http://www.w3.org/2000/svg">
  
  <g transform="scale(1, -1) translate(0, -900)">
    <style type="text/css">
        .stroke1 {fill: #808080;}
        .stroke2 {fill: #808079;}
        .stroke3 {fill: #808078;}
        .stroke4 {fill: #808077;}
        .stroke5 {fill: #808076;}
        .stroke6 {fill: #808075;}
        .stroke7 {fill: #808074;}
        .stroke8 {fill: #808073;}
        .stroke9 {fill: #808072;}
        .stroke10 {fill: #808071;}
        .stroke11 {fill: #808070;}
        .stroke12 {fill: #808069;}
        .stroke13 {fill: #808068;}
        .stroke14 {fill: #808067;}
        .stroke15 {fill: #808066;}
        .stroke16 {fill: #808065;}
        .stroke17 {fill: #808064;}
        .stroke18 {fill: #808063;}
        .stroke19 {fill: #808062;}
        .stroke20 {fill: #808061;}
        text {
            font-family: Helvetica;
            font-size: 50px;
            fill: #808060;
            paint-order: stroke;
            stroke: #000000;
            stroke-width: 4px;
            stroke-linecap: butt;
            stroke-linejoin: miter;
            font-weight: 800;
        }
    </style>

    <path d="M 296 542 Q 260 543 232 542 Q 198 541 215 561 Q 270 660 323 733 Q 336 752 333 759 Q 330 772 290 802 Q 274 815 255 810 Q 245 807 251 792 Q 269 753 198 610 Q 183 579 151 546 Q 133 531 135 519 Q 139 500 155 483 Q 165 473 178 481 Q 217 508 280 517 C 310 522 326 541 296 542 Z" class="stroke1"/>
    <path d="M 329 406 Q 283 394 231 376 Q 212 367 224 384 Q 264 442 361 559 Q 389 596 414 617 Q 426 627 420 637 Q 410 656 377 674 Q 361 684 352 681 Q 342 677 344 662 Q 347 626 296 542 L 280 517 Q 174 370 149 357 Q 136 347 139 334 Q 140 321 167 303 Q 177 291 192 304 Q 247 352 339 387 C 367 398 358 414 329 406 Z" class="stroke2"/>
    <path d="M 339 387 Q 346 371 360 366 Q 370 362 380 375 Q 384 385 382 403 Q 372 436 327 456 Q 320 460 316 451 Q 312 442 329 406 L 339 387 Z" class="stroke3"/>
    <path d="M 122 200 Q 131 151 138 96 Q 139 80 151 70 Q 158 64 170 70 Q 182 77 193 103 Q 205 125 190 164 Q 145 246 133 250 Q 127 250 121 241 Q 117 231 122 200 Z" class="stroke4"/>
    <path d="M 227 244 Q 248 175 268 167 Q 278 163 288 175 Q 294 184 292 203 Q 289 219 273 232 Q 251 257 239 263 Q 232 267 228 259 Q 224 253 227 244 Z" class="stroke5"/>
    <path d="M 319 266 Q 352 221 361 218 Q 368 217 374 225 Q 378 234 377 255 Q 374 276 323 299 Q 313 303 308 302 Q 304 301 303 291 Q 304 284 319 266 Z" class="stroke6"/>
    <path d="M 627 707 Q 642 738 658 757 Q 665 769 659 782 Q 653 795 622 814 Q 592 830 574 827 Q 555 823 566 802 Q 584 771 575 743 Q 533 586 395 372 Q 386 360 385 354 Q 382 342 396 347 Q 445 359 566 578 Q 590 624 616 680 L 627 707 Z" class="stroke7"/>
    <path d="M 616 680 Q 698 572 802 458 Q 830 428 978 454 Q 987 457 988 461 Q 988 465 975 472 Q 824 524 789 559 Q 711 622 627 707 C 606 728 598 704 616 680 Z" class="stroke8"/>
    <path d="M 522 467 Q 488 460 514 445 Q 553 427 603 442 Q 646 454 690 465 Q 709 471 713 474 Q 720 481 716 490 Q 709 500 681 504 Q 653 508 627 495 Q 605 486 580 479 Q 553 472 522 467 Z" class="stroke9"/>
    <path d="M 444 329 Q 426 336 415 336 Q 405 332 410 323 Q 440 268 418 164 Q 400 119 427 86 Q 433 76 441 80 Q 463 99 464 242 Q 464 278 465 292 C 467 321 467 321 444 329 Z" class="stroke10"/>
    <path d="M 658 344 Q 748 365 763 354 Q 782 347 783 318 Q 787 248 771 119 Q 771 94 748 95 Q 723 95 703 96 Q 687 97 691 89 Q 694 79 722 60 Q 753 32 771 2 Q 784 -8 797 -1 Q 807 3 821 39 Q 845 91 840 193 Q 836 334 847 352 Q 857 364 850 375 Q 840 385 798 405 Q 786 411 710 389 Q 655 383 549 352 Q 488 337 444 329 C 415 323 436 283 465 292 Q 495 301 527 312 L 550 318 Q 580 327 622 336 L 658 344 Z" class="stroke11"/>
    <path d="M 669 234 Q 700 241 735 245 Q 757 249 749 261 Q 739 274 715 279 Q 696 282 672 275 L 630 264 Q 599 257 574 249 L 537 239 Q 512 235 491 228 Q 475 224 494 211 Q 506 202 531 207 Q 532 208 538 208 L 573 214 Q 600 221 629 226 L 669 234 Z" class="stroke12"/>
    <path d="M 527 312 Q 533 306 537 239 L 538 208 Q 538 139 546 123 Q 556 104 561 115 Q 571 131 572 169 Q 572 194 573 214 L 574 249 Q 574 280 577 291 Q 578 301 575 306 Q 569 310 550 318 C 522 330 518 331 527 312 Z" class="stroke13"/>
    <path d="M 629 226 Q 629 112 637 98 Q 641 94 646 95 Q 650 96 655 107 Q 664 129 669 234 L 672 275 L 674 289 Q 674 298 680 316 Q 681 328 673 334 Q 666 340 658 344 C 632 359 608 362 622 336 Q 623 335 625 331 Q 629 324 630 264 L 629 226 Z" class="stroke14"/>
    
    
    
    
    
    
    
    
    
    
    
    
    
    </g>
</svg>