<svg version="1.1" viewBox="0 0 1024 1024" xmlns="http://www.w3.org/2000/svg">
  
  <g transform="scale(1, -1) translate(0, -900)">
    <style type="text/css">
        .stroke1 {fill: #808080;}
        .stroke2 {fill: #808079;}
        .stroke3 {fill: #808078;}
        .stroke4 {fill: #808077;}
        .stroke5 {fill: #808076;}
        .stroke6 {fill: #808075;}
        .stroke7 {fill: #808074;}
        .stroke8 {fill: #808073;}
        .stroke9 {fill: #808072;}
        .stroke10 {fill: #808071;}
        .stroke11 {fill: #808070;}
        .stroke12 {fill: #808069;}
        .stroke13 {fill: #808068;}
        .stroke14 {fill: #808067;}
        .stroke15 {fill: #808066;}
        .stroke16 {fill: #808065;}
        .stroke17 {fill: #808064;}
        .stroke18 {fill: #808063;}
        .stroke19 {fill: #808062;}
        .stroke20 {fill: #808061;}
        text {
            font-family: Helvetica;
            font-size: 50px;
            fill: #808060;
            paint-order: stroke;
            stroke: #000000;
            stroke-width: 4px;
            stroke-linecap: butt;
            stroke-linejoin: miter;
            font-weight: 800;
        }
    </style>

    <path d="M 310 497 Q 267 497 231 497 Q 195 496 213 518 Q 274 627 334 707 Q 349 726 346 733 Q 343 748 302 779 Q 284 792 265 788 Q 255 785 261 769 Q 268 751 264 724 Q 254 676 200 573 Q 184 539 146 504 Q 127 488 129 476 Q 133 457 149 439 Q 159 427 173 435 Q 215 462 294 471 C 324 475 340 497 310 497 Z" class="stroke1"/>
    <path d="M 359 376 Q 313 366 259 347 Q 240 340 252 356 Q 372 518 418 553 Q 430 563 424 573 Q 414 592 381 610 Q 365 620 356 617 Q 346 613 348 598 Q 349 571 310 497 L 294 471 Q 194 339 177 329 Q 164 319 167 306 Q 168 293 194 275 Q 204 263 219 276 Q 267 315 365 359 L 367 359 C 395 370 388 383 359 376 Z" class="stroke2"/>
    <path d="M 367 359 Q 385 326 397 322 Q 407 318 416 330 Q 420 340 417 357 Q 411 387 358 420 Q 351 424 348 415 Q 345 409 359 376 L 367 359 Z" class="stroke3"/>
    <path d="M 113 172 Q 129 132 145 84 Q 149 68 163 62 Q 172 58 181 66 Q 191 76 198 103 Q 204 140 130 212 Q 120 222 113 222 Q 107 221 103 210 Q 102 200 113 172 Z" class="stroke4"/>
    <path d="M 235 209 Q 247 190 259 168 Q 266 156 279 154 Q 286 153 293 161 Q 300 171 299 195 Q 296 219 240 245 Q 230 251 224 250 Q 220 249 218 238 Q 219 229 235 209 Z" class="stroke5"/>
    <path d="M 338 268 Q 366 217 379 214 Q 386 213 393 221 Q 400 231 400 255 Q 397 279 344 305 Q 334 311 328 310 Q 324 309 322 299 Q 323 289 338 268 Z" class="stroke6"/>
    <path d="M 638 578 Q 729 605 733 606 Q 740 613 736 621 Q 729 631 701 637 Q 661 643 642 625 L 591 609 Q 558 600 518 595 Q 485 588 510 573 Q 541 558 590 566 L 638 578 Z" class="stroke7"/>
    <path d="M 629 477 Q 633 529 638 578 L 642 625 Q 648 725 666 797 Q 670 809 650 824 Q 614 843 590 848 Q 574 852 566 843 Q 559 836 566 820 Q 587 790 587 769 Q 591 693 591 609 L 590 566 Q 589 520 587 469 C 586 439 627 447 629 477 Z" class="stroke8"/>
    <path d="M 729 461 Q 769 467 939 480 Q 957 481 961 489 Q 965 499 950 511 Q 896 544 842 526 Q 805 517 759 505 L 693 490 Q 678 490 629 477 L 587 469 Q 509 454 422 437 Q 403 433 418 419 Q 431 407 448 404 Q 467 400 481 405 Q 575 438 667 451 L 729 461 Z" class="stroke9"/>
    <path d="M 632 337 Q 686 401 729 461 L 759 505 Q 814 592 849 635 Q 859 648 851 664 Q 821 724 785 727 Q 766 728 771 705 Q 772 696 776 685 Q 779 658 756 607 Q 725 540 693 490 L 667 451 Q 625 396 563 323 L 523 279 Q 417 168 284 62 Q 277 58 276 50 Q 275 43 282 44 Q 315 44 437 140 Q 498 194 525 219 L 632 337 Z" class="stroke10"/>
    <path d="M 548 321 Q 542 325 533 330 Q 524 334 515 330 Q 508 326 513 316 Q 514 310 517 305 Q 521 296 523 279 L 525 219 Q 525 144 515 100 Q 502 52 532 17 Q 541 5 549 16 Q 559 29 560 45 L 562 80 Q 563 86 563 91 Q 564 146 566 184 L 567 214 Q 568 250 570 265 C 573 295 573 305 548 321 Z" class="stroke11"/>
    <path d="M 712 57 Q 736 26 754 -4 Q 761 -20 773 -20 Q 788 -19 803 12 Q 821 49 812 146 Q 800 279 820 306 Q 829 318 820 327 Q 804 345 756 367 Q 740 376 725 368 Q 689 350 632 337 L 563 323 Q 554 322 548 321 C 518 317 550 243 570 265 Q 595 298 640 307 Q 677 314 713 322 Q 732 326 741 319 Q 756 307 753 150 Q 753 108 749 95 Q 745 80 730 84 Q 723 91 714 96 Q 711 97 699 101 Q 692 105 691 101 C 677 104 694 81 712 57 Z" class="stroke12"/>
    <path d="M 566 184 Q 566 185 570 185 Q 633 195 680 203 Q 702 207 693 220 Q 683 235 657 238 Q 614 241 567 214 C 541 199 537 177 566 184 Z" class="stroke13"/>
    <path d="M 560 45 Q 566 45 575 46 Q 618 55 712 57 C 742 58 720 96 691 101 Q 681 104 667 99 Q 609 87 562 80 C 532 76 530 44 560 45 Z" class="stroke14"/>
    
    
    
    
    
    
    
    
    
    
    
    
    
    </g>
</svg>