<svg version="1.1" viewBox="0 0 1024 1024" xmlns="http://www.w3.org/2000/svg">
  
  <g transform="scale(1, -1) translate(0, -900)">
    <style type="text/css">
        .stroke1 {fill: #808080;}
        .stroke2 {fill: #808079;}
        .stroke3 {fill: #808078;}
        .stroke4 {fill: #808077;}
        .stroke5 {fill: #808076;}
        .stroke6 {fill: #808075;}
        .stroke7 {fill: #808074;}
        .stroke8 {fill: #808073;}
        .stroke9 {fill: #808072;}
        .stroke10 {fill: #808071;}
        .stroke11 {fill: #808070;}
        .stroke12 {fill: #808069;}
        .stroke13 {fill: #808068;}
        .stroke14 {fill: #808067;}
        .stroke15 {fill: #808066;}
        .stroke16 {fill: #808065;}
        .stroke17 {fill: #808064;}
        .stroke18 {fill: #808063;}
        .stroke19 {fill: #808062;}
        .stroke20 {fill: #808061;}
        text {
            font-family: Helvetica;
            font-size: 50px;
            fill: #808060;
            paint-order: stroke;
            stroke: #000000;
            stroke-width: 4px;
            stroke-linecap: butt;
            stroke-linejoin: miter;
            font-weight: 800;
        }
    </style>

    <path d="M 344 487 Q 295 490 253 492 Q 211 493 234 518 Q 297 624 357 703 Q 372 721 369 729 Q 366 744 326 775 Q 310 788 290 785 Q 278 782 285 766 Q 303 724 221 572 Q 205 538 167 504 Q 148 491 149 478 Q 153 459 167 440 Q 177 428 190 435 Q 217 450 326 462 C 356 465 374 485 344 487 Z" class="stroke1"/>
    <path d="M 326 462 Q 218 318 199 309 Q 186 300 189 286 Q 190 273 216 254 Q 226 242 241 255 Q 308 300 418 336 Q 437 340 439 349 Q 442 359 422 356 Q 361 346 286 323 Q 258 313 276 337 Q 319 401 426 531 Q 454 568 478 589 Q 490 599 484 609 Q 474 628 440 646 Q 424 655 415 653 Q 405 649 408 634 Q 411 591 345 488 Q 344 488 344 487 L 326 462 Z" class="stroke2"/>
    <path d="M 134 135 Q 121 132 119 121 Q 118 106 129 99 Q 154 84 192 67 Q 202 64 215 75 Q 236 96 397 191 Q 418 204 433 218 Q 446 227 446 237 Q 439 243 426 239 Q 317 193 180 143 Q 164 136 134 135 Z" class="stroke3"/>
    <path d="M 550 546 Q 604 622 641 694 Q 657 728 672 747 Q 679 757 674 771 Q 668 784 638 803 Q 610 818 591 816 Q 573 812 583 791 Q 619 731 467 483 Q 458 473 457 466 Q 456 454 468 458 Q 486 465 535 525 L 550 546 Z" class="stroke4"/>
    <path d="M 701 81 Q 685 80 609 114 Q 599 118 599 112 Q 598 108 609 97 Q 657 45 677 8 Q 689 -16 703 -15 Q 725 -16 744 6 Q 819 72 837 246 Q 847 342 854 475 Q 854 511 876 538 Q 889 553 887 561 Q 886 568 865 582 Q 837 601 800 611 Q 775 618 711 592 Q 702 591 695 587 Q 622 563 550 546 C 521 539 505 525 535 525 Q 596 525 605 527 Q 606 528 610 528 Q 772 564 777 556 Q 798 517 780 275 Q 767 181 737 118 Q 721 84 701 81 Z" class="stroke5"/>
    <path d="M 540 384 Q 573 351 608 312 Q 618 299 633 298 Q 643 297 649 309 Q 655 322 649 350 Q 643 387 540 428 Q 527 432 520 431 Q 516 428 515 416 Q 518 406 540 384 Z" class="stroke6"/>
    
    
    
    
    
    </g>
</svg>