<svg version="1.1" viewBox="0 0 1024 1024" xmlns="http://www.w3.org/2000/svg">
  
  <g transform="scale(1, -1) translate(0, -900)">
    <style type="text/css">
        .stroke1 {fill: #808080;}
        .stroke2 {fill: #808079;}
        .stroke3 {fill: #808078;}
        .stroke4 {fill: #808077;}
        .stroke5 {fill: #808076;}
        .stroke6 {fill: #808075;}
        .stroke7 {fill: #808074;}
        .stroke8 {fill: #808073;}
        .stroke9 {fill: #808072;}
        .stroke10 {fill: #808071;}
        .stroke11 {fill: #808070;}
        .stroke12 {fill: #808069;}
        .stroke13 {fill: #808068;}
        .stroke14 {fill: #808067;}
        .stroke15 {fill: #808066;}
        .stroke16 {fill: #808065;}
        .stroke17 {fill: #808064;}
        .stroke18 {fill: #808063;}
        .stroke19 {fill: #808062;}
        .stroke20 {fill: #808061;}
        text {
            font-family: Helvetica;
            font-size: 50px;
            fill: #808060;
            paint-order: stroke;
            stroke: #000000;
            stroke-width: 4px;
            stroke-linecap: butt;
            stroke-linejoin: miter;
            font-weight: 800;
        }
    </style>

    <path d="M 290 497 Q 238 498 193 498 Q 162 498 178 518 Q 253 632 322 716 Q 337 732 335 741 Q 334 754 295 788 Q 280 801 261 799 Q 251 796 256 781 Q 268 745 163 559 Q 144 534 113 508 Q 94 495 96 482 Q 99 463 113 445 Q 123 435 136 441 Q 172 460 273 473 C 303 477 320 496 290 497 Z" class="stroke1"/>
    <path d="M 273 473 Q 176 344 153 333 Q 140 324 143 311 Q 144 298 170 279 Q 180 267 195 279 Q 255 327 363 367 Q 382 373 383 381 Q 386 391 366 387 Q 308 374 236 350 Q 215 343 229 360 Q 364 541 417 581 Q 429 591 423 601 Q 413 620 381 639 Q 365 648 356 646 Q 346 642 348 627 Q 351 588 290 497 L 273 473 Z" class="stroke2"/>
    <path d="M 103 165 Q 90 162 89 151 Q 89 138 100 130 Q 125 117 162 103 Q 172 102 184 111 Q 208 138 356 234 Q 375 247 390 262 Q 402 272 401 281 Q 394 287 272 230 Q 130 169 103 165 Z" class="stroke3"/>
    <path d="M 600 596 Q 814 641 818 643 Q 828 650 823 660 Q 816 672 786 680 Q 755 687 724 675 Q 672 659 616 645 L 570 636 Q 524 630 475 626 Q 438 620 463 602 Q 499 583 555 587 L 600 596 Z" class="stroke4"/>
    <path d="M 510 462 Q 477 396 454 375 Q 430 354 450 308 Q 456 292 473 299 Q 542 327 647 339 L 697 345 Q 766 352 813 354 Q 853 355 855 367 Q 856 380 829 399 Q 802 415 697 389 L 647 381 Q 601 374 546 367 Q 524 364 522 369 L 559 474 L 570 507 Q 583 547 600 596 L 616 645 Q 637 726 668 754 Q 684 770 673 780 Q 618 825 594 821 Q 584 820 592 799 Q 604 763 570 636 L 555 587 Q 543 539 525 495 L 510 462 Z" class="stroke5"/>
    <path d="M 647 339 Q 647 84 630 59 Q 626 53 606 59 Q 576 66 546 75 Q 527 81 529 72 Q 587 23 621 -14 Q 634 -32 648 -37 Q 657 -40 665 -31 Q 702 12 703 82 Q 697 188 697 345 L 697 389 Q 697 392 698 394 Q 697 449 710 473 Q 722 491 711 501 Q 690 519 656 533 Q 640 540 624 533 Q 591 515 570 507 L 525 495 Q 497 491 462 487 Q 447 486 456 477 Q 471 459 510 462 L 559 474 Q 587 481 616 489 Q 634 496 639 486 Q 642 476 647 381 L 647 339 Z" class="stroke6"/>
    <path d="M 491 248 Q 457 194 414 148 Q 389 124 399 86 Q 403 68 426 76 Q 483 107 505 189 Q 515 219 514 243 Q 510 253 505 254 Q 498 255 491 248 Z" class="stroke7"/>
    <path d="M 774 247 Q 820 195 875 120 Q 888 98 904 91 Q 913 90 921 98 Q 936 111 927 156 Q 926 181 909 199 Q 893 215 851 240 Q 805 267 779 279 Q 770 285 767 273 Q 766 260 774 247 Z" class="stroke8"/>
    
    
    
    
    
    
    
    </g>
</svg>