<svg version="1.1" viewBox="0 0 1024 1024" xmlns="http://www.w3.org/2000/svg">
  
  <g transform="scale(1, -1) translate(0, -900)">
    <style type="text/css">
        .stroke1 {fill: #808080;}
        .stroke2 {fill: #808079;}
        .stroke3 {fill: #808078;}
        .stroke4 {fill: #808077;}
        .stroke5 {fill: #808076;}
        .stroke6 {fill: #808075;}
        .stroke7 {fill: #808074;}
        .stroke8 {fill: #808073;}
        .stroke9 {fill: #808072;}
        .stroke10 {fill: #808071;}
        .stroke11 {fill: #808070;}
        .stroke12 {fill: #808069;}
        .stroke13 {fill: #808068;}
        .stroke14 {fill: #808067;}
        .stroke15 {fill: #808066;}
        .stroke16 {fill: #808065;}
        .stroke17 {fill: #808064;}
        .stroke18 {fill: #808063;}
        .stroke19 {fill: #808062;}
        .stroke20 {fill: #808061;}
        text {
            font-family: Helvetica;
            font-size: 50px;
            fill: #808060;
            paint-order: stroke;
            stroke: #000000;
            stroke-width: 4px;
            stroke-linecap: butt;
            stroke-linejoin: miter;
            font-weight: 800;
        }
    </style>

    <path d="M 315 485 Q 311 486 221 483 Q 187 482 204 503 Q 271 617 337 700 Q 353 719 350 727 Q 347 743 305 776 Q 289 791 268 786 Q 256 783 263 767 Q 270 748 265 720 Q 253 671 193 561 Q 174 525 134 490 Q 115 474 116 461 Q 120 440 137 422 Q 149 410 162 418 Q 178 428 299 461 C 328 469 345 485 315 485 Z" class="stroke1"/>
    <path d="M 299 461 Q 188 313 168 302 Q 155 292 157 278 Q 158 265 186 245 Q 196 233 212 246 Q 270 294 374 334 Q 393 340 395 349 Q 398 359 377 355 Q 322 342 255 320 Q 233 311 246 330 Q 286 385 379 495 Q 409 534 434 555 Q 447 565 441 576 Q 431 595 396 615 Q 380 625 370 622 Q 360 618 362 602 Q 363 569 315 485 L 299 461 Z" class="stroke2"/>
    <path d="M 108 143 Q 95 140 94 130 Q 94 117 104 109 Q 129 96 164 82 Q 174 81 185 90 Q 203 111 342 201 Q 361 213 374 227 Q 386 236 385 245 Q 378 251 264 200 Q 131 146 108 143 Z" class="stroke3"/>
    <path d="M 579 495 Q 669 519 822 543 Q 832 542 842 556 Q 843 569 818 578 Q 782 599 705 572 Q 675 565 647 556 Q 617 549 590 540 L 536 529 Q 533 529 435 514 Q 405 510 429 492 Q 465 470 504 478 Q 513 481 525 482 L 579 495 Z" class="stroke4"/>
    <path d="M 547 389 Q 551 405 559 423 Q 569 459 579 495 L 590 540 Q 597 583 606 624 Q 616 703 629 740 Q 639 753 632 767 Q 617 785 587 800 Q 569 812 556 808 Q 544 802 550 788 Q 568 760 562 698 Q 543 560 536 529 L 525 482 Q 525 419 434 249 Q 379 159 324 86 Q 320 79 317 74 Q 313 64 324 65 Q 360 71 451 193 Q 487 250 512 305 L 522 327 Q 529 343 537 361 L 547 389 Z" class="stroke5"/>
    <path d="M 624 181 Q 611 165 597 147 Q 543 95 408 53 Q 395 49 403 42 Q 410 36 437 41 Q 527 51 579 78 Q 619 100 654 142 L 683 183 Q 717 240 741 324 Q 748 358 767 374 Q 783 387 765 402 Q 746 418 714 430 Q 693 437 673 426 Q 624 401 553 390 Q 549 390 547 389 C 517 384 507 360 537 361 Q 561 357 666 384 Q 685 390 686 367 Q 686 295 646 219 L 624 181 Z" class="stroke6"/>
    <path d="M 512 305 Q 548 278 624 181 L 654 142 Q 694 91 747 39 Q 763 20 790 19 Q 872 12 940 19 Q 976 20 973 31 Q 973 35 940 49 Q 760 116 699 170 Q 690 177 683 183 L 646 219 Q 615 250 583 287 Q 552 324 522 327 C 493 335 489 324 512 305 Z" class="stroke7"/>
    <path d="M 743 723 Q 770 701 797 672 Q 812 659 828 658 Q 838 659 845 673 Q 849 688 841 719 Q 835 740 804 754 Q 731 782 716 775 Q 710 771 712 758 Q 716 746 743 723 Z" class="stroke8"/>
    
    
    
    
    
    
    
    </g>
</svg>