<svg version="1.1" viewBox="0 0 1024 1024" xmlns="http://www.w3.org/2000/svg">
  
  <g transform="scale(1, -1) translate(0, -900)">
    <style type="text/css">
        .stroke1 {fill: #808080;}
        .stroke2 {fill: #808079;}
        .stroke3 {fill: #808078;}
        .stroke4 {fill: #808077;}
        .stroke5 {fill: #808076;}
        .stroke6 {fill: #808075;}
        .stroke7 {fill: #808074;}
        .stroke8 {fill: #808073;}
        .stroke9 {fill: #808072;}
        .stroke10 {fill: #808071;}
        .stroke11 {fill: #808070;}
        .stroke12 {fill: #808069;}
        .stroke13 {fill: #808068;}
        .stroke14 {fill: #808067;}
        .stroke15 {fill: #808066;}
        .stroke16 {fill: #808065;}
        .stroke17 {fill: #808064;}
        .stroke18 {fill: #808063;}
        .stroke19 {fill: #808062;}
        .stroke20 {fill: #808061;}
        text {
            font-family: Helvetica;
            font-size: 50px;
            fill: #808060;
            paint-order: stroke;
            stroke: #000000;
            stroke-width: 4px;
            stroke-linecap: butt;
            stroke-linejoin: miter;
            font-weight: 800;
        }
    </style>

    <path d="M 305 470 Q 253 470 210 470 Q 176 470 194 491 Q 270 615 343 709 Q 358 725 355 733 Q 354 748 315 779 Q 299 792 281 790 Q 269 787 275 771 Q 293 731 194 557 Q 173 517 129 480 Q 110 467 111 454 Q 115 435 129 417 Q 139 407 152 413 Q 179 426 271 442 Q 278 443 285 443 C 315 446 335 470 305 470 Z" class="stroke1"/>
    <path d="M 285 443 Q 195 326 172 314 Q 159 305 160 292 Q 161 279 187 258 Q 197 246 212 258 Q 273 298 373 328 Q 392 332 395 341 Q 398 351 378 348 Q 326 341 259 325 Q 229 315 249 339 Q 369 499 425 541 Q 437 551 431 560 Q 421 579 389 599 Q 373 608 364 606 Q 354 603 356 587 Q 359 551 305 470 L 285 443 Z" class="stroke2"/>
    <path d="M 98 133 Q 85 130 83 120 Q 82 105 93 98 Q 118 85 153 67 Q 165 66 176 75 Q 210 106 249 128 Q 307 161 367 195 Q 389 208 405 222 Q 418 232 418 241 Q 411 245 399 242 Q 287 194 146 142 Q 128 135 98 133 Z" class="stroke3"/>
    <path d="M 497 653 Q 484 657 463 661 Q 450 665 447 659 Q 440 653 449 636 Q 483 560 500 438 Q 503 401 523 376 Q 542 354 547 369 Q 551 379 552 394 L 550 431 Q 549 441 548 450 Q 526 580 521 618 C 517 647 517 647 497 653 Z" class="stroke4"/>
    <path d="M 778 461 Q 805 584 848 626 Q 866 645 850 665 Q 832 678 775 706 Q 756 713 733 704 Q 603 653 497 653 C 467 652 491 613 521 618 Q 533 619 546 623 Q 631 639 714 654 Q 735 658 743 650 Q 756 637 754 611 Q 741 532 724 468 C 717 439 771 432 778 461 Z" class="stroke5"/>
    <path d="M 552 394 Q 559 394 567 396 Q 636 412 787 427 Q 799 428 800 438 Q 800 445 778 461 C 765 471 754 470 724 468 Q 721 469 718 468 Q 625 444 550 431 C 520 426 522 392 552 394 Z" class="stroke6"/>
    <path d="M 505 260 Q 495 185 337 45 Q 315 29 343 33 Q 421 48 532 173 Q 532 176 580 228 Q 590 241 587 250 Q 583 263 557 270 Q 527 280 515 276 Q 508 275 505 260 Z" class="stroke7"/>
    <path d="M 702 269 Q 772 184 853 64 Q 866 39 882 32 Q 892 29 902 38 Q 917 51 911 100 Q 907 166 708 302 Q 699 309 695 296 Q 692 281 702 269 Z" class="stroke8"/>
    
    
    
    
    
    
    
    </g>
</svg>