<svg version="1.1" viewBox="0 0 1024 1024" xmlns="http://www.w3.org/2000/svg">
  
  <g transform="scale(1, -1) translate(0, -900)">
    <style type="text/css">
        .stroke1 {fill: #808080;}
        .stroke2 {fill: #808079;}
        .stroke3 {fill: #808078;}
        .stroke4 {fill: #808077;}
        .stroke5 {fill: #808076;}
        .stroke6 {fill: #808075;}
        .stroke7 {fill: #808074;}
        .stroke8 {fill: #808073;}
        .stroke9 {fill: #808072;}
        .stroke10 {fill: #808071;}
        .stroke11 {fill: #808070;}
        .stroke12 {fill: #808069;}
        .stroke13 {fill: #808068;}
        .stroke14 {fill: #808067;}
        .stroke15 {fill: #808066;}
        .stroke16 {fill: #808065;}
        .stroke17 {fill: #808064;}
        .stroke18 {fill: #808063;}
        .stroke19 {fill: #808062;}
        .stroke20 {fill: #808061;}
        text {
            font-family: Helvetica;
            font-size: 50px;
            fill: #808060;
            paint-order: stroke;
            stroke: #000000;
            stroke-width: 4px;
            stroke-linecap: butt;
            stroke-linejoin: miter;
            font-weight: 800;
        }
    </style>

    <path d="M 336 480 Q 281 481 234 480 Q 197 480 216 503 Q 288 623 357 712 Q 373 731 370 739 Q 367 755 325 788 Q 309 803 288 799 Q 276 795 283 779 Q 304 719 189 535 Q 171 514 146 490 Q 127 474 128 462 Q 132 441 147 422 Q 159 410 172 418 Q 202 434 302 451 Q 308 452 315 452 C 345 455 366 480 336 480 Z" class="stroke1"/>
    <path d="M 315 452 Q 204 310 183 299 Q 170 289 172 275 Q 173 262 200 241 Q 210 228 226 241 Q 286 283 413 327 Q 432 331 435 341 Q 438 351 417 348 Q 353 336 273 313 Q 245 303 263 326 Q 306 384 406 500 Q 436 537 462 559 Q 475 569 468 580 Q 458 599 424 619 Q 408 629 398 626 Q 388 623 390 607 Q 391 570 336 480 L 315 452 Z" class="stroke2"/>
    <path d="M 127 105 Q 114 102 113 91 Q 113 78 124 70 Q 149 57 186 42 Q 196 41 208 51 Q 236 81 399 184 Q 421 197 438 214 Q 450 224 449 233 Q 443 237 430 234 Q 178 111 127 105 Z" class="stroke3"/>
    <path d="M 697 551 Q 731 587 765 629 Q 786 657 821 686 Q 837 696 832 707 Q 831 717 767 742 Q 748 752 728 739 Q 656 700 499 679 Q 480 676 493 661 Q 518 642 560 653 Q 633 668 688 681 Q 704 685 710 678 Q 713 672 702 655 Q 636 538 467 410 Q 451 398 466 397 Q 532 397 678 531 L 697 551 Z" class="stroke4"/>
    <path d="M 678 531 Q 750 480 838 407 Q 856 391 870 388 Q 879 388 885 399 Q 895 412 877 452 Q 858 506 697 551 C 668 559 654 548 678 531 Z" class="stroke5"/>
    <path d="M 647 321 Q 809 349 814 353 Q 824 362 819 371 Q 812 384 781 393 Q 756 399 645 371 Q 564 359 516 355 Q 476 351 504 331 Q 546 304 607 315 L 647 321 Z" class="stroke6"/>
    <path d="M 656 100 Q 669 241 676 267 Q 685 291 647 321 C 624 340 598 344 607 315 Q 616 294 614 187 Q 613 150 611 96 C 610 66 653 70 656 100 Z" class="stroke7"/>
    <path d="M 611 96 Q 514 89 402 79 Q 380 78 396 59 Q 409 43 429 37 Q 451 30 469 34 Q 658 73 930 53 Q 952 52 957 61 Q 964 74 947 89 Q 892 134 852 126 Q 779 114 656 100 L 611 96 Z" class="stroke8"/>
    
    
    
    
    
    
    
    </g>
</svg>