<svg version="1.1" viewBox="0 0 1024 1024" xmlns="http://www.w3.org/2000/svg">
  
  <g transform="scale(1, -1) translate(0, -900)">
    <style type="text/css">
        .stroke1 {fill: #808080;}
        .stroke2 {fill: #808079;}
        .stroke3 {fill: #808078;}
        .stroke4 {fill: #808077;}
        .stroke5 {fill: #808076;}
        .stroke6 {fill: #808075;}
        .stroke7 {fill: #808074;}
        .stroke8 {fill: #808073;}
        .stroke9 {fill: #808072;}
        .stroke10 {fill: #808071;}
        .stroke11 {fill: #808070;}
        .stroke12 {fill: #808069;}
        .stroke13 {fill: #808068;}
        .stroke14 {fill: #808067;}
        .stroke15 {fill: #808066;}
        .stroke16 {fill: #808065;}
        .stroke17 {fill: #808064;}
        .stroke18 {fill: #808063;}
        .stroke19 {fill: #808062;}
        .stroke20 {fill: #808061;}
        text {
            font-family: Helvetica;
            font-size: 50px;
            fill: #808060;
            paint-order: stroke;
            stroke: #000000;
            stroke-width: 4px;
            stroke-linecap: butt;
            stroke-linejoin: miter;
            font-weight: 800;
        }
    </style>

    <path d="M 317 489 Q 263 489 219 488 Q 185 488 203 508 Q 273 620 340 702 Q 355 720 352 728 Q 351 743 310 776 Q 294 789 275 787 Q 263 784 269 768 Q 276 750 270 723 Q 257 674 195 567 Q 176 531 136 497 Q 117 482 118 470 Q 122 451 137 431 Q 147 421 160 427 Q 199 451 298 463 C 328 467 347 489 317 489 Z" class="stroke1"/>
    <path d="M 298 463 Q 189 330 165 318 Q 152 311 154 296 Q 155 283 180 263 Q 190 251 205 262 Q 268 307 374 340 Q 393 344 395 353 Q 398 363 378 360 Q 320 350 250 331 Q 228 324 242 342 Q 284 394 380 497 Q 410 533 435 552 Q 448 562 442 572 Q 433 591 401 611 Q 386 621 377 619 Q 367 616 368 601 Q 369 568 317 489 L 298 463 Z" class="stroke2"/>
    <path d="M 100 135 Q 87 132 87 122 Q 86 109 96 101 Q 121 88 155 73 Q 165 72 177 81 Q 192 97 354 200 Q 375 212 390 227 Q 402 236 401 245 Q 395 249 231 179 Q 122 137 100 135 Z" class="stroke3"/>
    <path d="M 514 740 Q 536 721 558 696 Q 570 686 583 685 Q 593 685 597 697 Q 601 710 595 735 Q 591 751 565 764 Q 507 788 492 783 Q 488 779 488 768 Q 492 758 514 740 Z" class="stroke4"/>
    <path d="M 701 794 Q 698 785 641 686 Q 634 668 649 674 Q 686 702 747 757 Q 763 776 785 788 Q 804 801 792 817 Q 776 832 749 842 Q 724 852 712 847 Q 700 844 706 832 Q 712 814 701 794 Z" class="stroke5"/>
    <path d="M 781 526 Q 806 589 834 608 Q 850 624 837 641 Q 821 654 774 677 Q 758 684 738 677 Q 630 634 492 618 Q 477 617 479 608 Q 482 601 498 595 Q 520 585 552 596 Q 576 602 599 606 L 636 613 Q 735 640 749 627 Q 756 620 754 606 Q 747 566 735 532 C 726 504 769 498 781 526 Z" class="stroke6"/>
    <path d="M 658 475 Q 713 485 792 493 Q 802 494 804 503 Q 804 510 781 526 C 764 538 764 538 735 532 Q 732 532 657 513 L 608 501 Q 556 491 510 483 C 480 478 487 451 517 451 Q 527 450 539 453 Q 566 460 609 467 L 658 475 Z" class="stroke7"/>
    <path d="M 658 353 Q 794 381 823 374 Q 836 374 843 363 Q 850 348 821 251 Q 817 232 797 235 Q 764 239 724 247 Q 696 251 718 229 Q 782 183 798 158 Q 805 145 818 149 Q 831 149 844 163 Q 869 190 888 262 Q 894 308 924 342 Q 942 361 929 374 Q 904 398 868 419 Q 856 428 795 412 Q 693 397 658 387 L 609 378 Q 567 371 538 362 Q 510 355 495 356 Q 488 357 490 371 Q 502 431 517 451 C 527 470 527 470 510 483 Q 495 496 475 508 Q 465 515 454 509 Q 447 505 454 486 Q 464 461 454 426 Q 436 371 420 350 Q 410 334 419 318 Q 428 293 440 286 Q 450 280 473 297 Q 497 316 556 333 Q 563 336 576 338 L 658 353 Z" class="stroke8"/>
    <path d="M 607 288 Q 607 125 597 38 Q 594 -4 619 -37 Q 632 -52 641 -34 Q 659 2 660 75 Q 659 102 658 353 L 658 387 Q 658 432 658 475 L 657 513 Q 657 573 660 582 Q 663 594 654 601 Q 647 607 636 613 C 611 630 595 636 599 606 Q 602 599 608 501 L 609 467 Q 609 424 609 378 L 607 288 Z" class="stroke9"/>
    <path d="M 576 338 Q 509 209 316 67 Q 303 55 312 53 Q 333 44 413 92 Q 497 143 607 288 C 655 350 598 378 576 338 Z" class="stroke10"/>
    
    
    
    
    
    
    
    
    
    </g>
</svg>