<svg version="1.1" viewBox="0 0 1024 1024" xmlns="http://www.w3.org/2000/svg">
  
  <g transform="scale(1, -1) translate(0, -900)">
    <style type="text/css">
        .stroke1 {fill: #808080;}
        .stroke2 {fill: #808079;}
        .stroke3 {fill: #808078;}
        .stroke4 {fill: #808077;}
        .stroke5 {fill: #808076;}
        .stroke6 {fill: #808075;}
        .stroke7 {fill: #808074;}
        .stroke8 {fill: #808073;}
        .stroke9 {fill: #808072;}
        .stroke10 {fill: #808071;}
        .stroke11 {fill: #808070;}
        .stroke12 {fill: #808069;}
        .stroke13 {fill: #808068;}
        .stroke14 {fill: #808067;}
        .stroke15 {fill: #808066;}
        .stroke16 {fill: #808065;}
        .stroke17 {fill: #808064;}
        .stroke18 {fill: #808063;}
        .stroke19 {fill: #808062;}
        .stroke20 {fill: #808061;}
        text {
            font-family: Helvetica;
            font-size: 50px;
            fill: #808060;
            paint-order: stroke;
            stroke: #000000;
            stroke-width: 4px;
            stroke-linecap: butt;
            stroke-linejoin: miter;
            font-weight: 800;
        }
    </style>

    <path d="M 305 500 Q 259 500 221 500 Q 187 499 204 520 Q 270 635 333 721 Q 346 739 344 746 Q 343 761 302 791 Q 286 804 268 800 Q 256 796 263 781 Q 282 738 182 554 Q 164 532 139 507 Q 121 492 123 480 Q 127 462 142 444 Q 152 434 165 441 Q 187 454 267 472 Q 277 473 287 474 C 317 477 335 500 305 500 Z" class="stroke1"/>
    <path d="M 287 474 Q 193 342 174 333 Q 161 324 164 310 Q 165 297 192 278 Q 202 266 217 278 Q 278 320 374 352 Q 393 356 395 365 Q 398 375 378 372 Q 326 365 262 347 Q 229 334 250 362 Q 290 422 384 542 Q 411 579 435 602 Q 447 612 440 622 Q 430 640 396 658 Q 380 667 371 663 Q 361 660 364 645 Q 367 600 307 502 Q 306 502 305 500 L 287 474 Z" class="stroke2"/>
    <path d="M 114 137 Q 101 133 101 123 Q 101 110 112 105 Q 136 93 170 81 Q 180 80 190 90 Q 209 114 340 205 Q 359 217 371 231 Q 381 240 380 249 Q 374 253 363 248 Q 162 143 114 137 Z" class="stroke3"/>
    <path d="M 591 780 Q 619 761 650 737 Q 665 727 679 729 Q 689 730 693 744 Q 696 759 684 786 Q 671 813 580 825 Q 565 826 560 823 Q 556 819 558 807 Q 562 797 591 780 Z" class="stroke4"/>
    <path d="M 494 656 Q 458 650 483 634 Q 519 609 577 622 Q 671 638 767 657 Q 812 667 818 673 Q 827 680 823 688 Q 816 700 788 708 Q 760 714 730 703 Q 679 687 625 674 Q 564 661 494 656 Z" class="stroke5"/>
    <path d="M 546 547 Q 536 553 506 555 Q 496 556 492 552 Q 488 546 496 533 Q 518 496 536 435 Q 540 416 553 405 Q 569 387 574 401 Q 575 408 576 420 L 571 449 Q 561 501 558 520 C 554 543 554 543 546 547 Z" class="stroke6"/>
    <path d="M 744 470 Q 765 515 785 527 Q 800 543 787 558 Q 774 568 729 590 Q 713 597 695 590 Q 644 568 546 547 C 517 541 529 513 558 520 Q 561 521 685 548 Q 700 552 706 545 Q 712 539 699 475 C 693 446 731 443 744 470 Z" class="stroke7"/>
    <path d="M 576 420 Q 582 420 589 421 Q 641 433 753 442 Q 763 443 764 450 Q 764 457 744 470 L 699 475 Q 698 475 697 475 Q 627 459 571 449 C 541 444 546 419 576 420 Z" class="stroke8"/>
    <path d="M 460 326 Q 438 336 422 335 Q 410 331 416 321 Q 449 258 426 134 Q 407 74 437 43 Q 444 31 452 37 Q 479 56 479 194 Q 479 263 481 287 C 483 317 483 317 460 326 Z" class="stroke9"/>
    <path d="M 481 287 Q 488 288 497 291 Q 611 336 795 350 Q 816 349 824 338 Q 831 329 827 315 Q 833 122 821 92 Q 818 85 808 88 Q 781 92 752 98 Q 724 102 743 83 Q 809 31 835 -8 Q 848 -23 861 -11 Q 877 8 885 36 Q 895 66 888 228 Q 885 289 902 319 Q 917 340 910 347 Q 903 360 852 391 Q 833 404 818 398 Q 790 386 739 376 Q 585 357 526 340 Q 489 331 460 326 C 431 320 452 278 481 287 Z" class="stroke10"/>
    <path d="M 568 253 Q 559 257 542 260 Q 533 263 530 259 Q 526 255 531 242 Q 550 203 560 141 Q 561 122 572 109 Q 585 93 589 104 Q 593 113 592 129 L 589 157 Q 582 212 581 230 C 580 248 580 248 568 253 Z" class="stroke11"/>
    <path d="M 726 172 Q 741 220 758 233 Q 777 255 758 267 Q 742 277 720 291 Q 704 301 662 278 Q 616 263 568 253 C 539 247 552 221 581 230 Q 588 233 665 250 Q 687 254 694 246 Q 698 242 693 219 Q 689 201 683 180 C 675 151 717 143 726 172 Z" class="stroke12"/>
    <path d="M 592 129 Q 598 129 605 130 Q 645 139 734 146 Q 743 147 744 154 Q 744 160 726 172 L 683 180 Q 679 180 677 179 Q 628 166 589 157 C 560 150 562 128 592 129 Z" class="stroke13"/>
    
    
    
    
    
    
    
    
    
    
    
    
    </g>
</svg>