<svg version="1.1" viewBox="0 0 1024 1024" xmlns="http://www.w3.org/2000/svg">
  
  <g transform="scale(1, -1) translate(0, -900)">
    <style type="text/css">
        .stroke1 {fill: #808080;}
        .stroke2 {fill: #808079;}
        .stroke3 {fill: #808078;}
        .stroke4 {fill: #808077;}
        .stroke5 {fill: #808076;}
        .stroke6 {fill: #808075;}
        .stroke7 {fill: #808074;}
        .stroke8 {fill: #808073;}
        .stroke9 {fill: #808072;}
        .stroke10 {fill: #808071;}
        .stroke11 {fill: #808070;}
        .stroke12 {fill: #808069;}
        .stroke13 {fill: #808068;}
        .stroke14 {fill: #808067;}
        .stroke15 {fill: #808066;}
        .stroke16 {fill: #808065;}
        .stroke17 {fill: #808064;}
        .stroke18 {fill: #808063;}
        .stroke19 {fill: #808062;}
        .stroke20 {fill: #808061;}
        text {
            font-family: Helvetica;
            font-size: 50px;
            fill: #808060;
            paint-order: stroke;
            stroke: #000000;
            stroke-width: 4px;
            stroke-linecap: butt;
            stroke-linejoin: miter;
            font-weight: 800;
        }
    </style>

    <path d="M 284 731 Q 272 737 239 739 Q 226 742 223 736 Q 217 729 227 713 Q 258 659 283 570 Q 289 543 306 527 Q 327 505 331 522 Q 332 529 333 538 L 329 569 Q 313 636 301 695 C 295 724 294 727 284 731 Z" class="stroke1"/>
    <path d="M 697 575 Q 698 572 699 568 Q 703 552 716 552 Q 729 553 737 567 Q 747 577 772 634 Q 791 683 828 711 Q 847 724 833 741 Q 817 759 769 787 Q 754 799 679 782 Q 562 773 424 750 Q 342 737 284 731 C 254 728 272 687 301 695 Q 332 705 410 717 L 434 722 Q 494 732 574 741 L 605 743 Q 708 762 738 744 Q 745 738 739 713 Q 715 628 705 605 C 695 579 695 579 697 575 Z" class="stroke2"/>
    <path d="M 467 584 Q 473 606 442 705 Q 441 715 434 722 C 415 745 405 747 410 717 Q 426 614 434 599 Q 441 587 448 581 C 464 566 464 566 467 584 Z" class="stroke3"/>
    <path d="M 577 601 Q 593 622 620 673 Q 624 683 635 697 Q 645 707 639 716 Q 630 729 605 743 C 579 758 569 764 574 741 Q 573 738 577 733 Q 586 706 565 628 Q 562 613 560 598 C 557 573 559 577 577 601 Z" class="stroke4"/>
    <path d="M 455 554 Q 552 567 697 575 C 727 577 729 587 705 605 Q 701 609 696 612 Q 681 622 653 616 Q 614 609 577 601 L 560 598 Q 511 591 467 584 L 448 581 Q 384 575 329 569 C 299 566 303 539 333 538 Q 340 537 351 538 Q 381 545 421 549 L 455 554 Z" class="stroke5"/>
    <path d="M 447 448 Q 469 475 487 485 Q 497 492 494 506 Q 491 533 455 554 C 430 570 421 576 421 549 Q 421 513 419 508 Q 365 417 242 302 Q 232 295 229 289 Q 225 280 237 280 Q 268 284 348 352 L 367 368 Q 392 392 422 421 L 447 448 Z" class="stroke6"/>
    <path d="M 617 372 Q 595 311 549 250 Q 485 159 397 92 Q 319 34 224 -6 Q 214 -10 214 -16 Q 215 -22 223 -21 Q 251 -22 314 -2 Q 369 14 426 52 Q 495 95 561 170 Q 627 245 694 367 Q 713 398 744 419 Q 762 428 762 438 Q 762 454 729 473 Q 689 501 673 502 Q 660 501 646 492 Q 523 455 452 448 Q 449 449 447 448 C 417 445 393 429 422 421 Q 479 396 599 437 Q 624 444 634 437 Q 641 431 617 372 Z" class="stroke7"/>
    <path d="M 348 352 Q 352 345 368 328 Q 411 285 456 233 Q 466 220 479 219 Q 488 219 493 229 Q 499 241 495 265 Q 492 295 454 323 Q 415 347 367 368 C 340 380 331 377 348 352 Z" class="stroke8"/>
    
    
    
    
    
    
    
    </g>
</svg>