<svg version="1.1" viewBox="0 0 1024 1024" xmlns="http://www.w3.org/2000/svg">
  
  <g transform="scale(1, -1) translate(0, -900)">
    <style type="text/css">
        .stroke1 {fill: #808080;}
        .stroke2 {fill: #808079;}
        .stroke3 {fill: #808078;}
        .stroke4 {fill: #808077;}
        .stroke5 {fill: #808076;}
        .stroke6 {fill: #808075;}
        .stroke7 {fill: #808074;}
        .stroke8 {fill: #808073;}
        .stroke9 {fill: #808072;}
        .stroke10 {fill: #808071;}
        .stroke11 {fill: #808070;}
        .stroke12 {fill: #808069;}
        .stroke13 {fill: #808068;}
        .stroke14 {fill: #808067;}
        .stroke15 {fill: #808066;}
        .stroke16 {fill: #808065;}
        .stroke17 {fill: #808064;}
        .stroke18 {fill: #808063;}
        .stroke19 {fill: #808062;}
        .stroke20 {fill: #808061;}
        text {
            font-family: Helvetica;
            font-size: 50px;
            fill: #808060;
            paint-order: stroke;
            stroke: #000000;
            stroke-width: 4px;
            stroke-linecap: butt;
            stroke-linejoin: miter;
            font-weight: 800;
        }
    </style>

    <path d="M 421 744 Q 412 766 399 774 Q 383 787 381 764 Q 384 740 355 693 Q 310 642 327 602 Q 330 592 335 583 Q 348 559 367 584 Q 383 609 395 647 Q 408 689 418 714 C 426 734 426 734 421 744 Z" class="stroke1"/>
    <path d="M 418 714 Q 434 705 494 719 Q 564 741 713 756 Q 729 757 736 756 Q 752 743 749 735 Q 739 693 727 650 L 729 649 Q 736 646 750 658 Q 796 695 837 711 Q 870 724 869 732 Q 868 741 800 786 Q 781 799 759 794 Q 710 787 649 777 Q 586 770 488 754 Q 454 748 421 744 C 391 740 389 720 418 714 Z" class="stroke2"/>
    <path d="M 471 641 Q 478 622 439 564 Q 420 537 395 508 Q 388 502 385 498 Q 382 491 392 492 Q 425 492 503 579 Q 515 592 523 598 Q 530 605 528 614 Q 527 623 509 641 Q 493 654 480 656 Q 467 656 471 641 Z" class="stroke3"/>
    <path d="M 645 606 Q 673 581 704 552 Q 714 542 728 542 Q 737 542 741 553 Q 745 565 739 589 Q 730 622 642 645 Q 629 649 624 647 Q 620 643 621 633 Q 624 623 645 606 Z" class="stroke4"/>
    <path d="M 604 389 Q 674 399 824 399 Q 843 399 847 407 Q 851 417 837 431 Q 788 468 719 451 Q 668 441 597 428 L 548 420 Q 455 407 351 393 Q 332 390 346 375 Q 359 362 376 357 Q 395 353 411 357 Q 460 372 516 379 L 604 389 Z" class="stroke5"/>
    <path d="M 597 428 Q 598 464 603 483 Q 606 496 599 502 Q 575 523 556 532 Q 543 536 534 529 Q 528 525 535 515 Q 542 503 548 420 L 546 327 Q 545 314 545 296 Q 539 143 524 99 Q 515 60 548 9 Q 560 -10 568 -14 Q 580 -15 585 -3 Q 598 30 594 61 Q 593 215 595 344 Q 595 350 595 355 L 597 428 Z" class="stroke6"/>
    <path d="M 516 379 Q 453 259 264 122 Q 251 112 260 109 Q 281 100 358 145 Q 418 179 538 318 Q 542 324 546 327 C 598 385 537 418 516 379 Z" class="stroke7"/>
    <path d="M 595 355 Q 670 246 766 129 Q 784 108 815 109 Q 920 109 953 114 Q 963 115 964 121 Q 965 125 951 134 Q 813 188 746 245 Q 679 308 604 389 C 584 411 569 393 595 355 Z" class="stroke8"/>
    
    
    
    
    
    
    
    </g>
</svg>