<svg version="1.1" viewBox="0 0 1024 1024" xmlns="http://www.w3.org/2000/svg">
  
  <g transform="scale(1, -1) translate(0, -900)">
    <style type="text/css">
        .stroke1 {fill: #808080;}
        .stroke2 {fill: #808079;}
        .stroke3 {fill: #808078;}
        .stroke4 {fill: #808077;}
        .stroke5 {fill: #808076;}
        .stroke6 {fill: #808075;}
        .stroke7 {fill: #808074;}
        .stroke8 {fill: #808073;}
        .stroke9 {fill: #808072;}
        .stroke10 {fill: #808071;}
        .stroke11 {fill: #808070;}
        .stroke12 {fill: #808069;}
        .stroke13 {fill: #808068;}
        .stroke14 {fill: #808067;}
        .stroke15 {fill: #808066;}
        .stroke16 {fill: #808065;}
        .stroke17 {fill: #808064;}
        .stroke18 {fill: #808063;}
        .stroke19 {fill: #808062;}
        .stroke20 {fill: #808061;}
        text {
            font-family: Helvetica;
            font-size: 50px;
            fill: #808060;
            paint-order: stroke;
            stroke: #000000;
            stroke-width: 4px;
            stroke-linecap: butt;
            stroke-linejoin: miter;
            font-weight: 800;
        }
    </style>

    <path d="M 265 773 Q 255 774 244 776 Q 232 780 229 774 Q 222 768 231 752 Q 261 694 279 596 Q 283 566 300 547 Q 318 525 323 541 Q 326 551 326 564 L 324 590 Q 323 597 322 605 Q 306 695 301 729 C 297 759 295 769 265 773 Z" class="stroke1"/>
    <path d="M 690 598 Q 690 597 691 592 Q 695 576 708 576 Q 727 579 761 649 Q 780 701 818 728 Q 837 744 823 760 Q 805 778 757 807 Q 744 816 663 803 Q 594 803 428 782 Q 308 767 265 773 C 235 775 271 727 301 729 Q 311 728 322 730 Q 358 739 409 745 L 435 749 Q 490 756 563 761 L 609 765 Q 709 771 725 759 Q 732 755 727 730 Q 706 648 692 619 C 686 606 686 606 690 598 Z" class="stroke2"/>
    <path d="M 409 745 Q 415 679 423 613 Q 423 612 426 607 Q 427 606 429 602 C 444 576 458 575 459 605 Q 460 624 457 643 Q 457 683 436 747 Q 435 748 435 749 C 424 777 406 775 409 745 Z" class="stroke3"/>
    <path d="M 563 761 Q 573 728 548 634 Q 545 624 544 616 C 539 586 555 593 570 619 Q 574 626 580 636 Q 593 663 607 695 Q 613 708 625 728 Q 637 740 628 748 Q 622 757 609 765 C 584 781 556 790 563 761 Z" class="stroke4"/>
    <path d="M 326 564 Q 341 563 361 564 Q 550 586 687 598 Q 688 599 690 598 C 720 600 719 605 692 619 Q 671 637 570 619 L 544 616 Q 501 612 459 605 L 429 602 Q 374 598 324 590 C 294 585 296 565 326 564 Z" class="stroke5"/>
    <path d="M 399 184 Q 395 139 383 88 Q 368 33 405 -14 Q 415 -27 427 -15 Q 445 9 444 104 Q 450 431 452 452 Q 456 473 451 481 Q 445 503 404 516 Q 394 520 382 517 Q 375 511 381 499 Q 397 439 399 428 L 401 401 Q 402 364 402 310 L 402 289 Q 401 253 400 208 L 399 184 Z" class="stroke6"/>
    <path d="M 399 428 Q 369 446 293 427 Q 245 420 209 419 Q 178 416 199 400 Q 235 376 282 386 Q 330 392 379 398 Q 394 401 401 401 C 431 403 426 415 399 428 Z" class="stroke7"/>
    <path d="M 402 310 Q 393 317 374 322 Q 347 326 274 303 Q 244 299 212 294 Q 178 288 203 273 Q 240 252 292 265 Q 335 274 380 283 Q 395 287 402 289 C 425 295 425 295 402 310 Z" class="stroke8"/>
    <path d="M 400 208 Q 187 136 141 136 Q 128 135 127 125 Q 126 112 134 105 Q 156 90 188 73 Q 198 70 209 79 Q 227 94 375 170 Q 388 177 399 184 C 425 200 428 218 400 208 Z" class="stroke9"/>
    <path d="M 616 180 Q 616 249 616 300 L 616 326 Q 616 399 618 435 L 618 462 Q 618 466 619 467 Q 623 489 618 498 Q 609 522 567 535 Q 557 539 543 535 Q 536 529 542 516 Q 545 504 550 492 Q 568 456 568 171 Q 565 119 551 55 Q 535 -8 576 -54 Q 588 -69 599 -55 Q 615 -31 616 147 L 616 180 Z" class="stroke10"/>
    <path d="M 618 435 Q 652 426 727 438 Q 757 444 790 450 Q 812 454 815 458 Q 822 465 819 473 Q 812 483 786 490 Q 759 496 683 472 Q 650 465 618 462 C 588 459 589 442 618 435 Z" class="stroke11"/>
    <path d="M 616 300 Q 646 288 726 302 Q 756 308 787 314 Q 808 318 811 322 Q 818 329 815 337 Q 808 347 782 354 Q 754 360 727 348 Q 673 333 616 326 C 586 322 588 309 616 300 Z" class="stroke12"/>
    <path d="M 616 147 Q 653 144 753 155 Q 808 159 862 162 Q 875 163 877 170 Q 878 182 856 199 Q 822 224 763 205 Q 748 202 616 180 C 586 175 586 149 616 147 Z" class="stroke13"/>
    
    
    
    
    
    
    
    
    
    
    
    
    </g>
</svg>