<svg version="1.1" viewBox="0 0 1024 1024" xmlns="http://www.w3.org/2000/svg">
  
  <g transform="scale(1, -1) translate(0, -900)">
    <style type="text/css">
        .stroke1 {fill: #808080;}
        .stroke2 {fill: #808079;}
        .stroke3 {fill: #808078;}
        .stroke4 {fill: #808077;}
        .stroke5 {fill: #808076;}
        .stroke6 {fill: #808075;}
        .stroke7 {fill: #808074;}
        .stroke8 {fill: #808073;}
        .stroke9 {fill: #808072;}
        .stroke10 {fill: #808071;}
        .stroke11 {fill: #808070;}
        .stroke12 {fill: #808069;}
        .stroke13 {fill: #808068;}
        .stroke14 {fill: #808067;}
        .stroke15 {fill: #808066;}
        .stroke16 {fill: #808065;}
        .stroke17 {fill: #808064;}
        .stroke18 {fill: #808063;}
        .stroke19 {fill: #808062;}
        .stroke20 {fill: #808061;}
        text {
            font-family: Helvetica;
            font-size: 50px;
            fill: #808060;
            paint-order: stroke;
            stroke: #000000;
            stroke-width: 4px;
            stroke-linecap: butt;
            stroke-linejoin: miter;
            font-weight: 800;
        }
    </style>

    <path d="M 269 759 Q 268 759 265 758 L 264 759 Q 252 762 249 756 Q 243 750 252 734 Q 280 685 303 603 Q 307 578 323 562 Q 342 541 347 558 Q 348 565 349 573 L 346 601 Q 336 643 321 725 C 316 755 299 757 269 759 Z" class="stroke1"/>
    <path d="M 667 604 Q 671 588 684 588 Q 705 591 734 650 Q 753 699 790 727 Q 809 742 794 758 Q 778 776 729 804 Q 713 814 650 801 Q 521 792 416 775 Q 325 760 269 759 C 239 758 292 718 321 725 Q 358 735 413 743 L 437 746 Q 486 753 551 759 L 594 763 Q 675 773 697 760 Q 704 756 699 733 Q 690 694 668 629 C 662 610 662 610 667 604 Z" class="stroke2"/>
    <path d="M 461 616 Q 461 617 462 617 Q 465 639 445 724 Q 444 727 444 728 Q 443 738 437 746 C 421 771 409 773 413 743 Q 417 713 418 692 Q 418 635 439 612 C 454 594 454 594 461 616 Z" class="stroke3"/>
    <path d="M 564 630 Q 603 709 613 724 Q 625 736 616 744 Q 609 754 594 763 C 569 779 544 788 551 759 Q 558 741 536 626 C 530 597 551 603 564 630 Z" class="stroke4"/>
    <path d="M 349 573 Q 359 572 376 573 Q 541 591 667 604 C 697 607 695 616 668 629 Q 661 633 650 637 Q 623 643 564 630 L 536 626 Q 496 622 461 616 L 439 612 Q 390 608 346 601 C 316 596 319 574 349 573 Z" class="stroke5"/>
    <path d="M 526 453 Q 676 477 681 479 Q 690 486 686 496 Q 679 509 651 518 Q 620 527 533 503 L 471 491 Q 407 482 337 481 Q 300 477 324 458 Q 366 431 440 443 Q 456 446 474 446 L 526 453 Z" class="stroke6"/>
    <path d="M 516 375 Q 520 415 526 453 L 533 503 Q 536 515 541 528 Q 545 538 527 551 Q 496 567 475 572 Q 462 575 454 567 Q 447 560 454 547 Q 466 534 471 491 L 474 446 Q 475 412 477 371 C 478 341 513 345 516 375 Z" class="stroke7"/>
    <path d="M 498 336 Q 636 348 836 337 Q 860 337 866 345 Q 872 358 855 373 Q 801 416 760 409 Q 669 394 516 375 L 477 371 Q 332 358 162 343 Q 140 342 156 323 Q 171 307 189 301 Q 211 294 229 299 Q 325 321 433 330 L 498 336 Z" class="stroke8"/>
    <path d="M 608 261 Q 509 251 406 237 Q 399 236 396 238 Q 396 239 401 243 Q 473 294 498 305 Q 514 315 508 325 Q 505 331 498 336 C 478 358 445 358 433 330 Q 408 260 318 240 Q 281 231 287 199 Q 288 193 291 185 Q 298 164 310 158 Q 317 154 329 157 Q 386 190 625 244 C 654 251 638 264 608 261 Z" class="stroke9"/>
    <path d="M 625 244 Q 643 228 662 206 Q 672 196 684 195 Q 693 195 697 205 Q 701 215 697 239 Q 690 275 593 312 Q 581 316 576 314 Q 572 313 572 302 Q 572 296 608 261 L 625 244 Z" class="stroke10"/>
    <path d="M 253 150 Q 226 104 192 63 Q 183 53 180 36 Q 176 11 182 -5 Q 188 -24 211 -14 Q 263 14 273 87 Q 283 121 278 147 Q 274 157 268 158 Q 258 158 253 150 Z" class="stroke11"/>
    <path d="M 382 127 Q 410 40 433 28 Q 445 22 458 37 Q 464 49 463 71 Q 460 92 440 110 Q 412 141 397 151 Q 390 155 384 145 Q 380 138 382 127 Z" class="stroke12"/>
    <path d="M 544 130 Q 574 70 605 39 Q 617 33 628 42 Q 635 51 638 66 Q 638 106 564 159 Q 551 168 543 166 Q 537 167 536 156 Q 535 146 544 130 Z" class="stroke13"/>
    <path d="M 715 142 Q 757 96 805 32 Q 820 10 835 3 Q 845 0 853 11 Q 868 24 858 71 Q 852 116 785 146 Q 742 165 719 175 Q 710 182 707 168 Q 706 155 715 142 Z" class="stroke14"/>
    
    
    
    
    
    
    
    
    
    
    
    
    
    </g>
</svg>