<svg version="1.1" viewBox="0 0 1024 1024" xmlns="http://www.w3.org/2000/svg">
  
  <g transform="scale(1, -1) translate(0, -900)">
    <style type="text/css">
        .stroke1 {fill: #808080;}
        .stroke2 {fill: #808079;}
        .stroke3 {fill: #808078;}
        .stroke4 {fill: #808077;}
        .stroke5 {fill: #808076;}
        .stroke6 {fill: #808075;}
        .stroke7 {fill: #808074;}
        .stroke8 {fill: #808073;}
        .stroke9 {fill: #808072;}
        .stroke10 {fill: #808071;}
        .stroke11 {fill: #808070;}
        .stroke12 {fill: #808069;}
        .stroke13 {fill: #808068;}
        .stroke14 {fill: #808067;}
        .stroke15 {fill: #808066;}
        .stroke16 {fill: #808065;}
        .stroke17 {fill: #808064;}
        .stroke18 {fill: #808063;}
        .stroke19 {fill: #808062;}
        .stroke20 {fill: #808061;}
        text {
            font-family: Helvetica;
            font-size: 50px;
            fill: #808060;
            paint-order: stroke;
            stroke: #000000;
            stroke-width: 4px;
            stroke-linecap: butt;
            stroke-linejoin: miter;
            font-weight: 800;
        }
    </style>

    <path d="M 446 650 Q 497 659 551 667 L 584 671 Q 618 678 656 682 Q 726 695 737 703 Q 747 710 742 720 Q 736 733 707 741 Q 676 750 645 739 Q 564 715 477 699 Q 474 699 470 698 L 407 688 Q 340 681 268 677 Q 231 673 256 654 Q 301 627 358 637 Q 368 638 381 640 L 446 650 Z" class="stroke1"/>
    <path d="M 375 542 Q 381 552 389 561 Q 417 598 446 650 L 470 698 Q 480 725 513 775 Q 522 784 516 795 Q 510 805 481 825 Q 459 838 449 837 Q 436 834 436 819 Q 439 761 412 699 Q 409 695 407 688 L 381 640 Q 368 622 356 602 Q 325 556 281 516 Q 238 473 133 398 Q 124 391 131 387 Q 138 384 150 388 Q 223 415 286 461 Q 326 489 360 524 L 375 542 Z" class="stroke2"/>
    <path d="M 551 667 Q 638 568 733 479 Q 755 457 793 456 Q 860 455 932 469 Q 950 470 951 476 Q 954 483 939 488 Q 759 551 749 557 Q 679 597 584 671 C 560 689 531 689 551 667 Z" class="stroke3"/>
    <path d="M 360 524 Q 364 517 380 504 Q 401 486 422 464 Q 432 454 445 454 Q 452 454 457 465 Q 461 475 455 499 Q 449 520 377 542 L 375 542 C 345 547 344 547 360 524 Z" class="stroke4"/>
    <path d="M 539 541 L 493 464 Q 486 449 500 454 Q 524 470 576 509 Q 589 522 608 533 Q 624 542 614 555 Q 602 568 581 578 Q 562 587 551 584 Q 541 583 545 571 Q 549 558 539 541 Z" class="stroke5"/>
    <path d="M 495 386 Q 660 417 666 422 Q 673 429 670 437 Q 664 447 638 456 Q 617 462 507 432 Q 411 411 326 405 Q 292 401 315 385 Q 349 363 417 375 Q 430 378 446 378 L 495 386 Z" class="stroke6"/>
    <path d="M 521 278 Q 540 284 636 294 Q 645 293 653 304 Q 654 314 634 324 Q 603 343 531 321 Q 527 321 524 319 L 465 305 Q 426 299 324 286 Q 299 282 318 267 Q 340 252 379 251 Q 418 260 466 268 L 521 278 Z" class="stroke7"/>
    <path d="M 519 158 Q 580 164 792 164 Q 814 164 819 173 Q 825 186 807 201 Q 753 243 711 234 Q 638 219 519 200 L 466 193 Q 339 177 194 160 Q 172 157 188 139 Q 203 124 222 118 Q 244 112 262 117 Q 353 141 455 151 Q 459 152 466 151 L 519 158 Z" class="stroke8"/>
    <path d="M 466 151 Q 467 120 467 84 Q 468 -51 483 -69 Q 487 -76 495 -74 Q 510 -65 514 -12 Q 520 39 519 88 Q 518 109 519 158 L 519 200 Q 519 234 521 278 L 524 319 Q 524 320 525 321 Q 526 336 530 347 Q 533 363 520 372 Q 505 382 495 386 C 468 399 431 404 446 378 Q 446 375 456 361 Q 465 346 465 305 L 466 268 Q 466 234 466 193 L 466 151 Z" class="stroke9"/>
    
    
    
    
    
    
    
    
    </g>
</svg>