<svg version="1.1" viewBox="0 0 1024 1024" xmlns="http://www.w3.org/2000/svg">
  
  <g transform="scale(1, -1) translate(0, -900)">
    <style type="text/css">
        .stroke1 {fill: #808080;}
        .stroke2 {fill: #808079;}
        .stroke3 {fill: #808078;}
        .stroke4 {fill: #808077;}
        .stroke5 {fill: #808076;}
        .stroke6 {fill: #808075;}
        .stroke7 {fill: #808074;}
        .stroke8 {fill: #808073;}
        .stroke9 {fill: #808072;}
        .stroke10 {fill: #808071;}
        .stroke11 {fill: #808070;}
        .stroke12 {fill: #808069;}
        .stroke13 {fill: #808068;}
        .stroke14 {fill: #808067;}
        .stroke15 {fill: #808066;}
        .stroke16 {fill: #808065;}
        .stroke17 {fill: #808064;}
        .stroke18 {fill: #808063;}
        .stroke19 {fill: #808062;}
        .stroke20 {fill: #808061;}
        text {
            font-family: Helvetica;
            font-size: 50px;
            fill: #808060;
            paint-order: stroke;
            stroke: #000000;
            stroke-width: 4px;
            stroke-linecap: butt;
            stroke-linejoin: miter;
            font-weight: 800;
        }
    </style>

    <path d="M 351 746 Q 381 691 414 670 Q 430 664 443 678 Q 452 691 452 710 Q 445 755 371 787 Q 355 794 343 793 Q 336 792 336 778 Q 336 765 351 746 Z" class="stroke1"/>
    <path d="M 610 791 Q 597 764 538 677 Q 528 656 548 662 Q 560 669 664 741 Q 685 762 713 776 Q 738 789 723 810 Q 707 829 674 845 Q 644 860 629 855 Q 614 852 620 836 Q 626 814 610 791 Z" class="stroke2"/>
    <path d="M 512 568 Q 710 607 718 615 Q 728 622 723 632 Q 716 644 686 652 Q 659 658 554 626 Q 440 596 319 585 Q 282 581 308 562 Q 350 538 431 554 Q 444 557 460 559 L 512 568 Z" class="stroke3"/>
    <path d="M 528 424 Q 679 454 686 458 Q 693 465 690 473 Q 684 483 658 492 Q 630 499 603 489 Q 567 479 531 468 L 470 454 Q 403 442 326 437 Q 292 433 315 417 Q 354 392 404 404 Q 437 410 471 414 L 528 424 Z" class="stroke4"/>
    <path d="M 522 321 Q 525 376 528 424 L 531 468 Q 537 544 532 551 Q 522 561 512 568 C 488 586 451 587 460 559 Q 466 553 470 454 L 471 414 Q 471 374 472 314 C 472 284 520 291 522 321 Z" class="stroke5"/>
    <path d="M 472 314 Q 372 304 256 289 Q 237 288 251 271 Q 264 258 281 252 Q 302 246 317 250 Q 446 283 742 282 Q 761 281 766 290 Q 772 300 756 314 Q 701 356 637 339 Q 588 332 522 321 L 472 314 Z" class="stroke6"/>
    <path d="M 164 189 Q 139 122 103 61 Q 81 22 103 -14 Q 112 -33 135 -19 Q 160 0 174 36 Q 195 84 195 125 Q 199 162 191 190 Q 185 200 178 201 Q 168 200 164 189 Z" class="stroke7"/>
    <path d="M 333 167 Q 384 65 404 58 Q 417 54 428 69 Q 434 82 430 104 Q 424 128 400 148 Q 363 182 345 192 Q 336 196 332 185 Q 328 178 333 167 Z" class="stroke8"/>
    <path d="M 539 149 Q 566 118 594 82 Q 604 67 620 66 Q 630 65 637 77 Q 644 90 639 120 Q 635 154 541 195 Q 526 201 520 199 Q 516 196 515 183 Q 516 173 539 149 Z" class="stroke9"/>
    <path d="M 746 163 Q 804 103 873 17 Q 891 -8 909 -15 Q 919 -16 929 -5 Q 945 10 933 64 Q 924 125 749 200 Q 739 207 736 192 Q 735 176 746 163 Z" class="stroke10"/>
    
    
    
    
    
    
    
    
    
    </g>
</svg>