<svg version="1.1" viewBox="0 0 1024 1024" xmlns="http://www.w3.org/2000/svg">
  
  <g transform="scale(1, -1) translate(0, -900)">
    <style type="text/css">
        .stroke1 {fill: #808080;}
        .stroke2 {fill: #808079;}
        .stroke3 {fill: #808078;}
        .stroke4 {fill: #808077;}
        .stroke5 {fill: #808076;}
        .stroke6 {fill: #808075;}
        .stroke7 {fill: #808074;}
        .stroke8 {fill: #808073;}
        .stroke9 {fill: #808072;}
        .stroke10 {fill: #808071;}
        .stroke11 {fill: #808070;}
        .stroke12 {fill: #808069;}
        .stroke13 {fill: #808068;}
        .stroke14 {fill: #808067;}
        .stroke15 {fill: #808066;}
        .stroke16 {fill: #808065;}
        .stroke17 {fill: #808064;}
        .stroke18 {fill: #808063;}
        .stroke19 {fill: #808062;}
        .stroke20 {fill: #808061;}
        text {
            font-family: Helvetica;
            font-size: 50px;
            fill: #808060;
            paint-order: stroke;
            stroke: #000000;
            stroke-width: 4px;
            stroke-linecap: butt;
            stroke-linejoin: miter;
            font-weight: 800;
        }
    </style>

    <path d="M 345 149 Q 317 156 287 163 Q 268 169 269 159 Q 327 113 362 78 Q 375 59 389 55 Q 398 51 406 61 Q 445 112 443 159 Q 436 321 439 582 Q 438 637 452 662 Q 464 680 452 690 Q 433 708 397 722 Q 381 729 365 723 Q 308 690 215 683 Q 200 682 209 674 Q 216 664 230 658 Q 251 654 355 679 Q 374 683 379 674 Q 391 643 389 381 Q 383 170 369 150 Q 365 144 345 149 Z" class="stroke1"/>
    <path d="M 215 532 Q 245 510 276 484 Q 289 474 303 475 Q 313 476 317 488 Q 321 501 310 529 Q 298 559 208 575 Q 193 578 188 575 Q 184 571 186 559 Q 190 549 215 532 Z" class="stroke2"/>
    <path d="M 100 260 Q 88 254 90 243 Q 91 230 104 225 Q 132 218 171 211 Q 181 211 191 224 Q 213 261 329 376 Q 345 392 356 409 Q 366 421 363 430 Q 356 434 345 427 Q 143 273 100 260 Z" class="stroke3"/>
    <path d="M 712 108 Q 678 115 645 123 Q 623 129 624 119 Q 694 65 733 25 Q 748 4 765 -1 Q 775 -5 784 6 Q 829 61 827 120 Q 817 307 819 613 Q 818 677 832 704 Q 845 726 832 737 Q 808 756 768 773 Q 749 780 731 773 Q 668 734 558 718 Q 540 717 551 707 Q 561 695 577 690 Q 595 687 690 712 Q 741 727 749 719 Q 764 671 762 377 Q 756 130 741 109 Q 735 102 712 108 Z" class="stroke4"/>
    <path d="M 551 557 Q 573 538 598 514 Q 611 502 626 503 Q 636 504 641 516 Q 645 531 636 559 Q 626 586 545 603 Q 530 606 524 603 Q 520 599 521 587 Q 525 577 551 557 Z" class="stroke5"/>
    <path d="M 480 298 Q 468 291 470 281 Q 473 268 484 264 Q 512 257 548 251 Q 558 252 567 264 Q 588 300 695 410 Q 711 426 720 442 Q 730 452 727 462 Q 720 465 620 390 Q 509 308 480 298 Z" class="stroke6"/>
    
    
    
    
    
    </g>
</svg>