<svg version="1.1" viewBox="0 0 1024 1024" xmlns="http://www.w3.org/2000/svg">
  
  <g transform="scale(1, -1) translate(0, -900)">
    <style type="text/css">
        .stroke1 {fill: #808080;}
        .stroke2 {fill: #808079;}
        .stroke3 {fill: #808078;}
        .stroke4 {fill: #808077;}
        .stroke5 {fill: #808076;}
        .stroke6 {fill: #808075;}
        .stroke7 {fill: #808074;}
        .stroke8 {fill: #808073;}
        .stroke9 {fill: #808072;}
        .stroke10 {fill: #808071;}
        .stroke11 {fill: #808070;}
        .stroke12 {fill: #808069;}
        .stroke13 {fill: #808068;}
        .stroke14 {fill: #808067;}
        .stroke15 {fill: #808066;}
        .stroke16 {fill: #808065;}
        .stroke17 {fill: #808064;}
        .stroke18 {fill: #808063;}
        .stroke19 {fill: #808062;}
        .stroke20 {fill: #808061;}
        text {
            font-family: Helvetica;
            font-size: 50px;
            fill: #808060;
            paint-order: stroke;
            stroke: #000000;
            stroke-width: 4px;
            stroke-linecap: butt;
            stroke-linejoin: miter;
            font-weight: 800;
        }
    </style>

    <path d="M 382 798 Q 382 746 279 659 Q 276 658 275 656 Q 247 634 175 590 Q 168 587 176 583 Q 206 577 306 630 Q 390 693 430 731 Q 439 738 443 742 Q 450 745 452 754 Q 452 763 443 776 Q 419 809 390 809 Q 383 809 382 798 Z" class="stroke1"/>
    <path d="M 531 827 Q 555 827 602 769 Q 711 612 778 613 Q 860 612 928 620 Q 938 624 942 631 Q 945 638 927 641 Q 780 690 778 691 Q 706 733 609 822 Q 573 858 520 847 Q 511 843 516 835 Q 520 828 531 827 Z" class="stroke2"/>
    <path d="M 613 552 Q 519 543 420 523 Q 408 520 405 523 Q 404 527 410 533 Q 501 624 521 640 Q 534 647 529 660 Q 525 673 483 700 Q 468 710 459 707 Q 446 703 449 683 Q 459 614 348 535 Q 336 529 323 521 Q 308 511 311 500 Q 314 484 336 462 Q 345 452 358 460 Q 410 494 626 529 Q 627 530 631 529 C 661 532 643 555 613 552 Z" class="stroke3"/>
    <path d="M 631 529 Q 658 498 670 495 Q 679 494 685 505 Q 692 517 688 544 Q 685 574 595 619 Q 582 623 576 623 Q 572 620 571 609 Q 571 606 613 552 L 631 529 Z" class="stroke4"/>
    <path d="M 345 77 Q 320 84 294 91 Q 275 97 277 88 Q 329 42 358 8 Q 370 -8 384 -14 Q 391 -18 400 -9 Q 437 42 439 83 Q 426 341 448 378 Q 460 394 449 405 Q 431 421 399 437 Q 383 444 368 437 Q 319 410 235 402 Q 222 401 229 393 Q 236 383 250 378 Q 260 375 359 396 Q 375 402 381 392 Q 387 368 385 223 Q 382 94 368 77 Q 364 71 345 77 Z" class="stroke5"/>
    <path d="M 221 298 Q 239 283 258 265 Q 271 255 284 256 Q 294 257 297 268 Q 301 281 291 307 Q 287 320 263 329 Q 209 344 196 339 Q 192 335 194 324 Q 197 314 221 298 Z" class="stroke6"/>
    <path d="M 134 153 Q 121 149 121 139 Q 121 126 132 121 Q 156 109 190 97 Q 200 96 210 106 Q 234 133 321 198 Q 334 208 343 219 Q 353 228 352 237 Q 346 241 335 236 Q 167 157 134 153 Z" class="stroke7"/>
    <path d="M 677 60 Q 650 64 624 70 Q 603 77 604 67 Q 661 18 693 -20 Q 706 -41 723 -46 Q 733 -50 742 -40 Q 787 15 785 69 Q 761 370 787 410 Q 800 429 787 441 Q 765 460 727 477 Q 708 484 691 478 Q 636 445 530 433 Q 514 432 524 422 Q 533 412 548 405 Q 564 402 681 429 Q 700 435 707 424 Q 725 376 715 117 Q 703 63 703 60 Q 697 54 677 60 Z" class="stroke8"/>
    <path d="M 537 322 Q 556 306 578 285 Q 591 275 604 276 Q 613 277 617 288 Q 621 301 612 327 Q 603 351 531 363 Q 518 364 512 363 Q 508 359 509 348 Q 513 338 537 322 Z" class="stroke9"/>
    <path d="M 480 175 Q 470 171 469 161 Q 470 149 479 144 Q 503 134 535 123 Q 545 122 554 132 Q 573 154 597 174 Q 633 201 668 229 Q 681 239 691 251 Q 701 260 700 268 Q 694 272 684 268 Q 513 178 480 175 Z" class="stroke10"/>
    
    
    
    
    
    
    
    
    
    </g>
</svg>