<svg version="1.1" viewBox="0 0 1024 1024" xmlns="http://www.w3.org/2000/svg">
  
  <g transform="scale(1, -1) translate(0, -900)">
    <style type="text/css">
        .stroke1 {fill: #808080;}
        .stroke2 {fill: #808079;}
        .stroke3 {fill: #808078;}
        .stroke4 {fill: #808077;}
        .stroke5 {fill: #808076;}
        .stroke6 {fill: #808075;}
        .stroke7 {fill: #808074;}
        .stroke8 {fill: #808073;}
        .stroke9 {fill: #808072;}
        .stroke10 {fill: #808071;}
        .stroke11 {fill: #808070;}
        .stroke12 {fill: #808069;}
        .stroke13 {fill: #808068;}
        .stroke14 {fill: #808067;}
        .stroke15 {fill: #808066;}
        .stroke16 {fill: #808065;}
        .stroke17 {fill: #808064;}
        .stroke18 {fill: #808063;}
        .stroke19 {fill: #808062;}
        .stroke20 {fill: #808061;}
        text {
            font-family: Helvetica;
            font-size: 50px;
            fill: #808060;
            paint-order: stroke;
            stroke: #000000;
            stroke-width: 4px;
            stroke-linecap: butt;
            stroke-linejoin: miter;
            font-weight: 800;
        }
    </style>

    <path d="M 220 771 Q 210 772 207 767 Q 206 760 224 752 Q 249 740 281 749 Q 386 788 397 776 Q 409 758 406 701 Q 402 538 391 506 Q 384 485 394 465 Q 406 438 414 438 Q 427 439 443 468 Q 458 490 457 510 Q 442 702 480 756 Q 490 772 482 781 Q 455 803 410 823 Q 394 827 373 819 Q 345 803 305 791 Q 259 778 220 771 Z" class="stroke1"/>
    <path d="M 243 644 Q 262 628 284 608 Q 297 598 311 599 Q 321 600 325 612 Q 329 625 319 653 Q 307 675 236 687 Q 221 690 216 687 Q 212 683 213 671 Q 217 661 243 644 Z" class="stroke2"/>
    <path d="M 153 458 Q 141 454 142 443 Q 143 430 154 425 Q 179 415 216 406 Q 226 405 236 417 Q 252 441 342 522 Q 373 552 372 565 Q 363 571 258 508 Q 168 463 153 458 Z" class="stroke3"/>
    <path d="M 569 804 Q 559 805 555 800 Q 552 793 572 784 Q 596 771 631 778 Q 751 817 762 802 Q 774 783 766 724 Q 750 558 736 527 Q 726 503 737 479 Q 747 446 758 446 Q 773 446 794 478 Q 813 503 814 526 Q 814 724 856 771 Q 868 787 860 798 Q 833 825 784 849 Q 768 856 743 848 Q 677 817 569 804 Z" class="stroke4"/>
    <path d="M 597 681 Q 619 666 643 649 Q 656 639 670 642 Q 679 643 681 656 Q 682 669 671 694 Q 659 718 586 721 Q 573 722 567 719 Q 564 715 567 704 Q 571 695 597 681 Z" class="stroke5"/>
    <path d="M 519 528 Q 509 524 509 515 Q 509 505 519 499 Q 541 490 573 481 Q 583 480 591 490 Q 594 496 695 586 Q 708 596 716 607 Q 725 617 723 624 Q 719 628 708 623 Q 558 539 519 528 Z" class="stroke6"/>
    <path d="M 429 310 Q 454 332 470 349 Q 516 400 535 413 Q 551 426 539 440 Q 524 453 498 460 Q 474 467 464 463 Q 454 460 459 449 Q 466 428 404 306 C 390 279 407 290 429 310 Z" class="stroke7"/>
    <path d="M 369 301 Q 350 314 330 320 Q 321 321 315 313 Q 312 309 320 298 Q 353 214 329 77 Q 316 65 324 28 L 325 26 Q 335 -5 345 -17 Q 357 -29 365 -16 Q 375 -3 379 22 L 384 51 Q 385 72 386 150 L 386 178 Q 386 245 388 268 C 389 288 389 288 369 301 Z" class="stroke8"/>
    <path d="M 594 39 Q 621 0 641 -35 Q 650 -53 660 -53 Q 676 -52 694 -19 Q 713 18 711 65 Q 707 126 704 240 Q 703 271 720 294 Q 730 307 720 317 Q 702 336 649 361 Q 631 371 616 362 Q 577 346 429 310 L 404 306 Q 385 305 369 301 C 339 296 359 261 388 268 Q 610 323 638 306 Q 654 290 645 128 Q 644 85 640 70 Q 636 57 622 58 C 596 43 593 41 594 39 Z" class="stroke9"/>
    <path d="M 386 150 Q 392 149 400 150 Q 493 163 561 171 Q 586 174 577 188 Q 567 204 539 209 Q 514 213 386 178 C 357 170 356 152 386 150 Z" class="stroke10"/>
    <path d="M 379 22 Q 386 22 396 22 Q 508 35 594 39 C 624 40 635 41 622 58 Q 613 73 590 78 Q 589 79 581 79 Q 562 83 384 51 C 354 46 349 22 379 22 Z" class="stroke11"/>
    
    
    
    
    
    
    
    
    
    
    </g>
</svg>