<svg version="1.1" viewBox="0 0 1024 1024" xmlns="http://www.w3.org/2000/svg">
  
  <g transform="scale(1, -1) translate(0, -900)">
    <style type="text/css">
        .stroke1 {fill: #808080;}
        .stroke2 {fill: #808079;}
        .stroke3 {fill: #808078;}
        .stroke4 {fill: #808077;}
        .stroke5 {fill: #808076;}
        .stroke6 {fill: #808075;}
        .stroke7 {fill: #808074;}
        .stroke8 {fill: #808073;}
        .stroke9 {fill: #808072;}
        .stroke10 {fill: #808071;}
        .stroke11 {fill: #808070;}
        .stroke12 {fill: #808069;}
        .stroke13 {fill: #808068;}
        .stroke14 {fill: #808067;}
        .stroke15 {fill: #808066;}
        .stroke16 {fill: #808065;}
        .stroke17 {fill: #808064;}
        .stroke18 {fill: #808063;}
        .stroke19 {fill: #808062;}
        .stroke20 {fill: #808061;}
        text {
            font-family: Helvetica;
            font-size: 50px;
            fill: #808060;
            paint-order: stroke;
            stroke: #000000;
            stroke-width: 4px;
            stroke-linecap: butt;
            stroke-linejoin: miter;
            font-weight: 800;
        }
    </style>

    <path d="M 522 613 Q 642 637 646 639 Q 655 646 651 656 Q 644 668 614 677 Q 587 683 526 664 L 468 651 Q 356 636 327 633 Q 290 629 316 610 Q 352 586 432 599 Q 448 602 469 603 L 522 613 Z" class="stroke1"/>
    <path d="M 511 492 Q 515 555 522 613 L 526 664 Q 530 733 549 806 Q 553 818 531 834 Q 494 855 468 860 Q 450 864 442 854 Q 433 847 442 830 Q 464 800 464 779 Q 467 718 468 651 L 469 603 Q 468 548 466 485 C 465 455 509 462 511 492 Z" class="stroke2"/>
    <path d="M 610 463 Q 617 463 916 478 Q 940 479 945 489 Q 951 502 931 519 Q 861 567 795 546 Q 734 534 657 518 L 580 503 Q 546 499 511 492 L 466 485 Q 297 460 98 430 Q 73 427 92 407 Q 129 374 175 386 Q 358 440 539 456 L 610 463 Z" class="stroke3"/>
    <path d="M 488 333 Q 492 339 499 344 Q 560 405 610 463 L 657 518 Q 771 668 789 684 Q 801 697 793 716 Q 778 753 759 770 Q 744 788 725 790 Q 704 793 708 767 Q 708 758 712 744 Q 715 687 600 529 Q 593 520 580 503 L 539 456 Q 502 416 455 369 L 422 337 Q 317 234 131 104 Q 122 100 120 91 Q 119 84 126 84 Q 168 84 304 177 Q 391 246 429 278 L 488 333 Z" class="stroke4"/>
    <path d="M 473 220 Q 587 233 729 299 Q 747 309 770 315 Q 785 319 784 330 Q 781 339 764 354 Q 724 382 698 384 Q 686 385 685 372 Q 679 326 484 247 Q 480 247 475 244 C 447 234 443 216 473 220 Z" class="stroke5"/>
    <path d="M 847 110 Q 832 128 804 189 Q 801 205 793 210 Q 786 213 783 193 Q 761 123 746 100 Q 733 84 692 73 Q 596 48 522 77 Q 491 90 484 109 Q 468 139 473 220 L 475 244 Q 479 281 487 324 Q 488 328 488 333 C 492 356 483 359 455 369 Q 449 373 442 375 Q 429 379 420 374 Q 413 370 418 352 Q 419 345 422 337 L 429 278 Q 429 277 429 273 Q 422 129 434 89 Q 440 64 464 43 Q 545 -20 722 9 Q 738 13 757 18 Q 800 31 844 61 Q 866 80 847 110 Z" class="stroke6"/>
    
    
    
    
    
    </g>
</svg>