<svg version="1.1" viewBox="0 0 1024 1024" xmlns="http://www.w3.org/2000/svg">
  
  <g transform="scale(1, -1) translate(0, -900)">
    <style type="text/css">
        .stroke1 {fill: #808080;}
        .stroke2 {fill: #808079;}
        .stroke3 {fill: #808078;}
        .stroke4 {fill: #808077;}
        .stroke5 {fill: #808076;}
        .stroke6 {fill: #808075;}
        .stroke7 {fill: #808074;}
        .stroke8 {fill: #808073;}
        .stroke9 {fill: #808072;}
        .stroke10 {fill: #808071;}
        .stroke11 {fill: #808070;}
        .stroke12 {fill: #808069;}
        .stroke13 {fill: #808068;}
        .stroke14 {fill: #808067;}
        .stroke15 {fill: #808066;}
        .stroke16 {fill: #808065;}
        .stroke17 {fill: #808064;}
        .stroke18 {fill: #808063;}
        .stroke19 {fill: #808062;}
        .stroke20 {fill: #808061;}
        text {
            font-family: Helvetica;
            font-size: 50px;
            fill: #808060;
            paint-order: stroke;
            stroke: #000000;
            stroke-width: 4px;
            stroke-linecap: butt;
            stroke-linejoin: miter;
            font-weight: 800;
        }
    </style>

    <path d="M 349 627 Q 455 661 457 662 Q 464 669 460 677 Q 453 687 425 692 Q 395 696 352 675 L 311 660 Q 206 635 190 631 Q 157 624 182 609 Q 224 588 271 606 Q 290 612 311 617 L 349 627 Z" class="stroke1"/>
    <path d="M 347 504 Q 432 529 437 533 Q 444 540 439 547 Q 432 556 409 560 Q 382 563 348 546 L 312 532 Q 252 513 193 503 Q 163 496 186 484 Q 213 471 273 484 Q 291 490 311 494 L 347 504 Z" class="stroke2"/>
    <path d="M 346 392 Q 394 407 456 420 Q 471 423 471 430 Q 471 443 453 449 Q 423 461 346 432 L 308 421 Q 161 379 90 365 Q 77 364 75 355 Q 74 345 88 335 Q 121 316 174 332 Q 237 360 286 374 L 346 392 Z" class="stroke3"/>
    <path d="M 345 343 Q 345 367 346 392 L 346 432 Q 346 466 347 504 L 348 546 Q 348 586 349 627 L 352 675 Q 356 729 369 769 Q 376 782 374 796 Q 368 805 315 837 Q 293 853 274 838 Q 270 834 275 819 Q 309 767 310 715 Q 310 690 311 660 L 311 617 Q 311 596 312 532 L 311 494 Q 310 458 308 421 L 306 312 Q 306 168 279 76 Q 269 42 293 -19 Q 300 -35 307 -39 Q 313 -45 320 -38 Q 327 -34 337 -13 Q 346 9 345 39 Q 344 76 345 317 L 345 343 Z" class="stroke4"/>
    <path d="M 286 374 Q 229 251 74 118 Q 64 106 72 105 Q 81 101 91 107 Q 196 149 298 300 Q 301 306 306 312 C 361 390 299 402 286 374 Z" class="stroke5"/>
    <path d="M 345 317 Q 402 253 420 250 Q 430 249 437 264 Q 438 274 431 291 Q 422 309 398 319 Q 362 338 346 343 L 345 343 C 316 350 325 339 345 317 Z" class="stroke6"/>
    <path d="M 551 589 Q 512 579 542 563 Q 594 542 648 560 Q 706 576 769 593 Q 797 600 801 605 Q 810 615 804 623 Q 795 636 764 641 Q 731 645 700 630 Q 669 617 634 606 Q 597 596 551 589 Z" class="stroke7"/>
    <path d="M 631 404 Q 670 419 900 442 Q 918 443 922 451 Q 926 463 910 474 Q 850 507 791 485 Q 662 452 474 410 Q 455 406 470 391 Q 500 370 554 385 Q 567 389 584 393 L 631 404 Z" class="stroke8"/>
    <path d="M 774 249 Q 672 230 567 207 Q 558 204 556 207 Q 555 210 559 217 Q 626 340 654 373 Q 666 386 657 394 Q 648 401 631 404 C 602 412 580 419 584 393 Q 599 339 535 243 Q 517 215 478 186 Q 453 174 454 165 Q 453 149 463 131 Q 473 113 486 110 Q 493 107 502 113 Q 589 176 781 228 Q 782 229 786 229 C 815 236 803 255 774 249 Z" class="stroke9"/>
    <path d="M 786 229 Q 855 118 860 114 Q 867 110 877 118 Q 892 128 889 171 Q 889 226 750 325 Q 743 332 738 320 Q 734 308 742 296 Q 757 274 774 249 L 786 229 Z" class="stroke10"/>
    
    
    
    
    
    
    
    
    
    </g>
</svg>