<svg version="1.1" viewBox="0 0 1024 1024" xmlns="http://www.w3.org/2000/svg">
  
  <g transform="scale(1, -1) translate(0, -900)">
    <style type="text/css">
        .stroke1 {fill: #808080;}
        .stroke2 {fill: #808079;}
        .stroke3 {fill: #808078;}
        .stroke4 {fill: #808077;}
        .stroke5 {fill: #808076;}
        .stroke6 {fill: #808075;}
        .stroke7 {fill: #808074;}
        .stroke8 {fill: #808073;}
        .stroke9 {fill: #808072;}
        .stroke10 {fill: #808071;}
        .stroke11 {fill: #808070;}
        .stroke12 {fill: #808069;}
        .stroke13 {fill: #808068;}
        .stroke14 {fill: #808067;}
        .stroke15 {fill: #808066;}
        .stroke16 {fill: #808065;}
        .stroke17 {fill: #808064;}
        .stroke18 {fill: #808063;}
        .stroke19 {fill: #808062;}
        .stroke20 {fill: #808061;}
        text {
            font-family: Helvetica;
            font-size: 50px;
            fill: #808060;
            paint-order: stroke;
            stroke: #000000;
            stroke-width: 4px;
            stroke-linecap: butt;
            stroke-linejoin: miter;
            font-weight: 800;
        }
    </style>

    <path d="M 365 710 Q 455 731 458 733 Q 467 740 463 748 Q 456 760 428 768 Q 404 774 294 743 Q 192 724 134 719 Q 98 715 123 698 Q 138 688 160 683 Q 161 683 165 682 L 209 682 Q 213 685 328 703 L 365 710 Z" class="stroke1"/>
    <path d="M 165 682 Q 165 676 180 651 Q 189 627 188 259 C 188 229 229 245 229 275 Q 230 344 231 405 L 232 437 Q 232 480 233 521 L 234 553 Q 234 604 237 635 Q 244 659 209 682 C 185 700 154 710 165 682 Z" class="stroke2"/>
    <path d="M 382 337 Q 382 598 396 671 Q 397 689 365 710 C 341 728 318 731 328 703 Q 355 658 339 319 L 337 286 Q 328 138 315 103 Q 306 67 338 16 L 340 13 Q 352 -6 360 -10 Q 372 -11 377 2 Q 390 33 386 65 Q 383 195 382 311 L 382 337 Z" class="stroke3"/>
    <path d="M 233 521 Q 278 527 313 532 Q 335 538 326 549 Q 314 562 290 564 Q 268 565 234 553 C 206 543 203 517 233 521 Z" class="stroke4"/>
    <path d="M 231 405 Q 277 411 313 416 Q 335 422 325 433 Q 315 446 290 449 Q 268 450 232 437 C 204 427 201 401 231 405 Z" class="stroke5"/>
    <path d="M 382 311 Q 389 317 398 323 Q 410 332 409 340 Q 403 344 392 342 Q 386 341 382 337 L 339 319 Q 284 298 229 275 L 188 259 Q 149 247 111 231 Q 92 222 58 221 Q 46 218 45 209 Q 44 196 53 189 Q 75 176 109 160 Q 119 157 129 166 Q 168 199 337 286 L 382 311 Z" class="stroke6"/>
    <path d="M 566 602 Q 532 601 504 597 Q 477 594 490 612 Q 538 702 585 768 Q 597 784 594 790 Q 591 803 556 828 Q 541 840 525 835 Q 515 832 522 819 Q 538 786 476 656 Q 463 628 433 599 Q 418 584 420 574 Q 424 558 439 543 Q 445 537 468 547 Q 495 563 551 577 C 580 585 596 603 566 602 Z" class="stroke7"/>
    <path d="M 600 462 Q 560 458 511 444 Q 484 434 502 457 Q 535 506 613 604 Q 635 635 655 653 Q 665 662 660 670 Q 651 685 624 700 Q 611 707 603 705 Q 596 701 597 689 Q 598 667 566 602 L 551 577 Q 550 576 550 574 Q 466 447 439 434 Q 427 427 430 415 Q 431 403 453 388 Q 462 378 474 388 Q 514 419 607 450 C 635 460 630 466 600 462 Z" class="stroke8"/>
    <path d="M 607 450 Q 614 434 627 430 Q 634 426 643 437 Q 647 446 644 461 Q 641 474 626 486 Q 604 507 593 512 Q 587 515 584 508 Q 580 501 600 462 L 607 450 Z" class="stroke9"/>
    <path d="M 799 625 Q 765 625 735 623 Q 708 622 721 638 Q 769 725 816 790 Q 828 805 825 811 Q 822 823 789 848 Q 776 858 759 855 Q 750 852 756 840 Q 769 804 709 682 Q 696 654 667 626 Q 651 613 654 603 Q 658 587 671 573 Q 680 564 690 570 Q 709 583 774 601 Q 778 602 783 602 C 813 607 829 625 799 625 Z" class="stroke10"/>
    <path d="M 845 495 Q 802 491 755 483 Q 721 473 744 499 Q 775 541 850 625 Q 877 658 899 677 Q 911 686 905 695 Q 896 711 866 730 Q 853 737 844 736 Q 834 733 836 719 Q 837 694 799 625 L 783 602 Q 695 487 673 477 Q 660 470 662 456 Q 663 444 685 425 Q 695 413 709 424 Q 772 461 855 478 C 884 484 875 498 845 495 Z" class="stroke11"/>
    <path d="M 855 478 Q 876 438 891 435 Q 898 432 905 441 Q 912 451 912 475 Q 913 493 892 512 Q 838 552 828 550 Q 824 549 822 539 Q 822 535 845 495 L 855 478 Z" class="stroke12"/>
    <path d="M 575 254 Q 529 244 495 230 Q 488 229 490 239 Q 505 323 501 333 Q 491 346 474 357 Q 467 361 459 361 Q 452 358 455 344 Q 468 304 460 267 Q 453 230 437 216 Q 424 203 430 193 Q 437 183 450 175 Q 460 169 467 176 Q 483 197 562 223 Q 565 224 571 225 C 600 232 604 261 575 254 Z" class="stroke13"/>
    <path d="M 571 225 Q 540 90 453 35 Q 443 25 430 15 Q 421 8 431 6 Q 503 15 570 109 Q 582 134 594 161 Q 610 201 616 250 Q 620 257 618 262 Q 627 326 635 344 Q 642 359 628 364 Q 615 374 602 378 Q 584 388 570 382 Q 560 378 565 366 Q 586 339 575 254 L 571 225 Z" class="stroke14"/>
    <path d="M 744 254 Q 745 326 750 355 Q 751 367 745 373 Q 723 392 706 400 Q 694 404 686 397 Q 680 393 687 384 Q 714 344 689 89 Q 688 83 687 76 Q 686 54 682 42 Q 673 8 706 -41 Q 716 -59 723 -62 Q 733 -63 739 -51 Q 751 -21 747 7 Q 743 124 743 221 L 744 254 Z" class="stroke15"/>
    <path d="M 868 264 Q 901 348 912 359 Q 916 366 904 382 Q 882 403 863 410 Q 853 416 844 411 Q 837 407 841 394 Q 847 381 846 373 Q 842 327 833 275 C 828 245 857 236 868 264 Z" class="stroke16"/>
    <path d="M 833 275 Q 827 275 744 254 C 715 247 714 230 743 221 Q 744 221 746 220 Q 756 217 771 220 Q 805 227 880 231 Q 890 232 892 242 Q 892 249 868 264 L 833 275 Z" class="stroke17"/>
    
    
    
    
    
    
    
    
    
    
    
    
    
    
    
    
    </g>
</svg>