<svg version="1.1" viewBox="0 0 1024 1024" xmlns="http://www.w3.org/2000/svg">
  
  <g transform="scale(1, -1) translate(0, -900)">
    <style type="text/css">
        .stroke1 {fill: #808080;}
        .stroke2 {fill: #808079;}
        .stroke3 {fill: #808078;}
        .stroke4 {fill: #808077;}
        .stroke5 {fill: #808076;}
        .stroke6 {fill: #808075;}
        .stroke7 {fill: #808074;}
        .stroke8 {fill: #808073;}
        .stroke9 {fill: #808072;}
        .stroke10 {fill: #808071;}
        .stroke11 {fill: #808070;}
        .stroke12 {fill: #808069;}
        .stroke13 {fill: #808068;}
        .stroke14 {fill: #808067;}
        .stroke15 {fill: #808066;}
        .stroke16 {fill: #808065;}
        .stroke17 {fill: #808064;}
        .stroke18 {fill: #808063;}
        .stroke19 {fill: #808062;}
        .stroke20 {fill: #808061;}
        text {
            font-family: Helvetica;
            font-size: 50px;
            fill: #808060;
            paint-order: stroke;
            stroke: #000000;
            stroke-width: 4px;
            stroke-linecap: butt;
            stroke-linejoin: miter;
            font-weight: 800;
        }
    </style>

    <path d="M 274 630 Q 250 649 225 657 Q 215 658 208 650 Q 204 644 212 632 Q 263 488 214 215 Q 207 181 195 146 Q 185 118 190 97 Q 199 60 211 45 Q 224 30 234 45 Q 271 84 272 232 Q 278 502 290 586 C 294 616 294 616 274 630 Z" class="stroke1"/>
    <path d="M 525 629 Q 705 662 724 642 Q 737 635 743 572 Q 759 362 749 124 Q 748 90 735 79 Q 722 69 650 82 Q 632 85 634 75 Q 635 68 649 61 Q 713 16 747 -19 Q 769 -38 783 -36 Q 796 -32 807 -3 Q 823 45 821 114 Q 802 436 803 555 Q 802 597 815 622 Q 827 644 816 657 Q 804 673 754 698 Q 733 708 713 703 Q 655 685 531 661 L 479 653 Q 377 640 274 630 C 244 627 260 581 290 586 Q 297 586 307 588 Q 383 606 473 620 L 525 629 Z" class="stroke2"/>
    <path d="M 506 564 Q 509 571 525 629 L 531 661 Q 541 748 556 786 Q 562 796 554 805 Q 538 821 503 837 Q 484 847 467 842 Q 448 835 463 818 Q 488 790 487 760 Q 487 697 479 653 L 473 620 Q 448 509 344 435 Q 332 429 330 426 Q 326 420 341 419 Q 368 415 433 459 Q 472 486 498 542 L 506 564 Z" class="stroke3"/>
    <path d="M 498 542 Q 552 505 619 449 Q 632 436 645 434 Q 652 434 656 442 Q 665 454 650 485 Q 635 524 506 564 C 477 573 473 559 498 542 Z" class="stroke4"/>
    <path d="M 493 339 Q 514 367 533 390 Q 543 400 532 414 Q 495 447 474 445 Q 464 444 464 431 Q 467 344 369 250 Q 357 243 322 207 Q 313 194 327 197 Q 343 198 366 213 Q 436 259 479 320 L 493 339 Z" class="stroke5"/>
    <path d="M 479 320 Q 539 275 612 208 Q 639 178 653 198 Q 662 211 648 246 Q 633 297 493 339 C 464 348 455 338 479 320 Z" class="stroke6"/>
    
    
    
    
    
    </g>
</svg>