<svg version="1.1" viewBox="0 0 1024 1024" xmlns="http://www.w3.org/2000/svg">
  
  <g transform="scale(1, -1) translate(0, -900)">
    <style type="text/css">
        .stroke1 {fill: #808080;}
        .stroke2 {fill: #808079;}
        .stroke3 {fill: #808078;}
        .stroke4 {fill: #808077;}
        .stroke5 {fill: #808076;}
        .stroke6 {fill: #808075;}
        .stroke7 {fill: #808074;}
        .stroke8 {fill: #808073;}
        .stroke9 {fill: #808072;}
        .stroke10 {fill: #808071;}
        .stroke11 {fill: #808070;}
        .stroke12 {fill: #808069;}
        .stroke13 {fill: #808068;}
        .stroke14 {fill: #808067;}
        .stroke15 {fill: #808066;}
        .stroke16 {fill: #808065;}
        .stroke17 {fill: #808064;}
        .stroke18 {fill: #808063;}
        .stroke19 {fill: #808062;}
        .stroke20 {fill: #808061;}
        text {
            font-family: Helvetica;
            font-size: 50px;
            fill: #808060;
            paint-order: stroke;
            stroke: #000000;
            stroke-width: 4px;
            stroke-linecap: butt;
            stroke-linejoin: miter;
            font-weight: 800;
        }
    </style>

    <path d="M 236 400 Q 242 455 244 510 L 244 548 Q 244 662 246 685 C 247 709 247 709 234 716 Q 219 726 196 733 Q 177 742 165 735 Q 155 728 163 715 Q 184 691 189 627 Q 189 615 191 600 Q 201 441 173 305 Q 148 194 83 70 Q 79 63 78 57 Q 77 47 87 50 Q 115 59 178 182 Q 190 212 202 244 Q 218 299 230 361 L 236 400 Z" class="stroke1"/>
    <path d="M 246 685 Q 265 685 321 707 Q 340 714 347 704 Q 362 665 359 384 Q 353 153 339 134 Q 335 128 314 133 Q 292 137 268 142 Q 247 149 248 139 Q 300 90 329 53 Q 342 32 358 27 Q 368 23 377 33 Q 422 84 420 141 Q 399 639 426 690 Q 439 711 426 721 Q 404 740 366 756 Q 347 763 330 756 Q 305 740 288 732 Q 269 725 234 716 C 205 708 217 679 246 685 Z" class="stroke2"/>
    <path d="M 244 510 Q 284 517 316 521 Q 341 528 330 540 Q 317 555 290 557 Q 271 558 244 548 C 216 538 214 505 244 510 Z" class="stroke3"/>
    <path d="M 230 361 Q 279 370 315 373 Q 340 379 330 392 Q 317 407 290 409 Q 268 410 236 400 C 207 391 200 356 230 361 Z" class="stroke4"/>
    <path d="M 549 546 Q 580 603 611 686 Q 621 725 636 745 Q 643 758 635 770 Q 628 782 594 797 Q 563 809 545 805 Q 526 798 540 779 Q 568 743 519 594 Q 497 527 460 448 Q 453 435 451 429 Q 450 417 464 423 Q 488 433 538 525 L 549 546 Z" class="stroke5"/>
    <path d="M 538 525 Q 560 504 585 513 Q 645 537 711 552 Q 745 562 757 558 Q 767 551 765 543 Q 765 540 721 472 Q 714 463 717 456 Q 721 452 733 461 Q 833 519 876 531 Q 886 532 888 541 Q 889 554 860 571 Q 838 586 816 600 Q 789 616 774 610 Q 690 574 549 546 C 520 540 519 540 538 525 Z" class="stroke6"/>
    <path d="M 646 330 Q 665 414 668 416 Q 677 435 660 443 Q 612 479 586 468 Q 573 464 579 448 Q 610 391 577 263 Q 541 148 423 64 Q 410 54 423 52 Q 478 52 546 118 Q 613 178 638 284 L 646 330 Z" class="stroke7"/>
    <path d="M 638 284 Q 699 181 776 70 Q 792 48 823 47 Q 928 43 961 47 Q 971 48 972 53 Q 973 57 960 67 Q 825 136 762 199 Q 707 257 646 330 C 627 353 623 310 638 284 Z" class="stroke8"/>
    
    
    
    
    
    
    
    </g>
</svg>