<svg version="1.1" viewBox="0 0 1024 1024" xmlns="http://www.w3.org/2000/svg">
  
  <g transform="scale(1, -1) translate(0, -900)">
    <style type="text/css">
        .stroke1 {fill: #808080;}
        .stroke2 {fill: #808079;}
        .stroke3 {fill: #808078;}
        .stroke4 {fill: #808077;}
        .stroke5 {fill: #808076;}
        .stroke6 {fill: #808075;}
        .stroke7 {fill: #808074;}
        .stroke8 {fill: #808073;}
        .stroke9 {fill: #808072;}
        .stroke10 {fill: #808071;}
        .stroke11 {fill: #808070;}
        .stroke12 {fill: #808069;}
        .stroke13 {fill: #808068;}
        .stroke14 {fill: #808067;}
        .stroke15 {fill: #808066;}
        .stroke16 {fill: #808065;}
        .stroke17 {fill: #808064;}
        .stroke18 {fill: #808063;}
        .stroke19 {fill: #808062;}
        .stroke20 {fill: #808061;}
        text {
            font-family: Helvetica;
            font-size: 50px;
            fill: #808060;
            paint-order: stroke;
            stroke: #000000;
            stroke-width: 4px;
            stroke-linecap: butt;
            stroke-linejoin: miter;
            font-weight: 800;
        }
    </style>

    <path d="M 236 721 Q 223 731 201 738 Q 182 745 171 739 Q 161 732 168 720 Q 189 696 196 629 Q 196 614 198 597 Q 207 417 177 283 Q 147 165 79 33 Q 75 26 74 21 Q 73 11 83 14 Q 98 17 129 71 Q 202 173 234 352 L 239 389 Q 246 450 247 511 L 247 545 Q 247 618 250 693 C 251 713 251 713 236 721 Z" class="stroke1"/>
    <path d="M 410 260 Q 398 666 419 701 Q 429 720 419 729 Q 398 747 364 760 Q 346 767 332 760 Q 298 738 236 721 C 207 712 221 684 250 693 L 324 716 Q 342 723 347 714 Q 362 666 360 375 Q 357 138 341 114 Q 338 111 271 119 Q 252 125 253 115 Q 305 73 334 41 Q 347 23 362 19 Q 371 15 379 25 Q 412 71 414 139 Q 411 190 410 248 L 410 260 Z" class="stroke2"/>
    <path d="M 247 511 Q 290 520 325 524 Q 347 530 338 541 Q 326 554 302 556 Q 281 557 247 545 C 219 535 218 505 247 511 Z" class="stroke3"/>
    <path d="M 234 352 Q 280 362 317 368 Q 339 374 330 385 Q 318 398 294 400 Q 273 401 239 389 C 211 379 205 346 234 352 Z" class="stroke4"/>
    <path d="M 718 652 Q 731 655 865 676 Q 875 675 885 688 Q 886 701 862 711 Q 826 732 764 711 Q 623 678 476 654 Q 446 650 469 632 Q 508 607 534 614 Q 589 627 661 641 L 718 652 Z" class="stroke5"/>
    <path d="M 670 505 Q 719 592 736 612 Q 743 616 741 626 Q 735 647 718 652 C 692 668 662 671 661 641 Q 664 608 632 536 L 613 500 Q 612 499 611 496 Q 565 411 410 260 C 389 239 386 236 410 248 Q 539 308 624 435 L 670 505 Z" class="stroke6"/>
    <path d="M 624 435 Q 633 323 606 264 Q 588 225 624 188 Q 631 175 640 181 Q 670 203 669 300 Q 668 460 671 495 Q 671 499 670 505 C 668 528 661 529 632 536 Q 619 540 609 539 Q 596 535 602 524 Q 608 514 613 500 L 624 435 Z" class="stroke7"/>
    <path d="M 741 389 Q 804 352 881 293 Q 900 277 915 276 Q 922 276 928 287 Q 938 302 918 340 Q 897 385 737 419 Q 727 422 728 410 Q 729 397 741 389 Z" class="stroke8"/>
    <path d="M 437 131 Q 415 130 431 111 Q 446 96 464 90 Q 486 84 503 89 Q 641 122 868 116 Q 884 116 900 114 Q 921 114 926 123 Q 933 135 915 149 Q 860 192 796 178 Q 660 156 437 131 Z" class="stroke9"/>
    
    
    
    
    
    
    
    
    </g>
</svg>