<svg version="1.1" viewBox="0 0 1024 1024" xmlns="http://www.w3.org/2000/svg">
  
  <g transform="scale(1, -1) translate(0, -900)">
    <style type="text/css">
        .stroke1 {fill: #808080;}
        .stroke2 {fill: #808079;}
        .stroke3 {fill: #808078;}
        .stroke4 {fill: #808077;}
        .stroke5 {fill: #808076;}
        .stroke6 {fill: #808075;}
        .stroke7 {fill: #808074;}
        .stroke8 {fill: #808073;}
        .stroke9 {fill: #808072;}
        .stroke10 {fill: #808071;}
        .stroke11 {fill: #808070;}
        .stroke12 {fill: #808069;}
        .stroke13 {fill: #808068;}
        .stroke14 {fill: #808067;}
        .stroke15 {fill: #808066;}
        .stroke16 {fill: #808065;}
        .stroke17 {fill: #808064;}
        .stroke18 {fill: #808063;}
        .stroke19 {fill: #808062;}
        .stroke20 {fill: #808061;}
        text {
            font-family: Helvetica;
            font-size: 50px;
            fill: #808060;
            paint-order: stroke;
            stroke: #000000;
            stroke-width: 4px;
            stroke-linecap: butt;
            stroke-linejoin: miter;
            font-weight: 800;
        }
    </style>

    <path d="M 228 385 Q 240 469 242 502 L 244 535 Q 245 560 245 583 Q 246 617 247 650 Q 247 668 249 685 C 251 710 251 710 241 716 Q 199 746 177 737 Q 167 730 173 718 Q 191 696 197 633 Q 197 420 171 318 Q 170 315 169 310 Q 145 220 72 80 Q 68 74 67 68 Q 66 58 74 61 Q 102 70 167 189 Q 180 219 193 250 Q 209 301 222 356 L 228 385 Z" class="stroke1"/>
    <path d="M 249 685 Q 253 686 260 688 Q 291 697 323 706 Q 342 710 348 701 Q 355 682 358 651 Q 370 356 358 176 Q 357 151 349 140 Q 345 134 326 139 Q 296 146 266 155 Q 247 161 249 152 Q 307 103 341 66 Q 354 48 368 44 Q 377 40 385 50 Q 424 95 422 148 Q 400 532 410 650 Q 413 677 421 690 Q 431 709 420 719 Q 401 737 365 750 Q 347 757 333 750 Q 305 734 286 727 Q 270 723 241 716 C 212 709 220 677 249 685 Z" class="stroke2"/>
    <path d="M 242 502 Q 243 503 246 503 Q 294 513 330 520 Q 352 526 342 537 Q 330 550 306 551 Q 285 551 244 535 C 216 524 213 494 242 502 Z" class="stroke3"/>
    <path d="M 222 356 Q 226 356 231 356 Q 285 363 324 369 Q 346 373 337 385 Q 327 398 303 402 Q 261 405 228 385 C 202 370 192 356 222 356 Z" class="stroke4"/>
    <path d="M 607 722 Q 641 695 675 663 Q 688 650 705 651 Q 715 651 721 665 Q 725 680 716 709 Q 704 745 602 770 Q 586 774 580 771 Q 576 767 577 754 Q 580 744 607 722 Z" class="stroke5"/>
    <path d="M 484 554 Q 454 550 478 532 Q 511 504 542 512 Q 716 551 888 572 Q 900 571 909 584 Q 910 597 886 607 Q 850 628 771 605 Q 645 577 510 558 Q 497 557 484 554 Z" class="stroke6"/>
    <path d="M 721 362 Q 745 399 778 457 Q 791 482 792 486 Q 791 493 778 503 Q 747 527 720 519 Q 713 516 716 506 Q 725 470 683 385 L 661 347 Q 591 260 568 234 Q 561 230 571 228 Q 616 238 690 321 L 721 362 Z" class="stroke7"/>
    <path d="M 690 321 Q 771 249 776 247 Q 783 246 789 254 Q 798 264 786 298 Q 779 326 721 362 L 683 385 Q 616 422 579 440 Q 572 444 570 434 Q 570 424 579 416 Q 618 385 661 347 L 690 321 Z" class="stroke8"/>
    <path d="M 827 207 Q 670 194 549 162 Q 525 155 531 184 Q 535 247 539 312 Q 543 337 532 350 Q 516 368 491 380 Q 479 386 469 383 Q 459 379 467 359 Q 497 296 489 232 Q 485 171 460 144 Q 441 126 449 112 Q 461 96 478 85 Q 491 78 502 86 Q 535 125 729 159 Q 807 172 828 168 C 858 167 857 210 827 207 Z" class="stroke9"/>
    <path d="M 828 168 Q 832 146 842 128 Q 852 112 864 124 Q 888 148 891 236 Q 903 330 913 349 Q 922 365 911 378 Q 890 394 857 413 Q 844 420 832 413 Q 825 409 827 396 Q 854 357 835 230 Q 832 218 828 208 Q 827 208 827 207 C 822 196 822 196 828 168 Z" class="stroke10"/>
    
    
    
    
    
    
    
    
    
    </g>
</svg>