<svg version="1.1" viewBox="0 0 1024 1024" xmlns="http://www.w3.org/2000/svg">
  
  <g transform="scale(1, -1) translate(0, -900)">
    <style type="text/css">
        .stroke1 {fill: #808080;}
        .stroke2 {fill: #808079;}
        .stroke3 {fill: #808078;}
        .stroke4 {fill: #808077;}
        .stroke5 {fill: #808076;}
        .stroke6 {fill: #808075;}
        .stroke7 {fill: #808074;}
        .stroke8 {fill: #808073;}
        .stroke9 {fill: #808072;}
        .stroke10 {fill: #808071;}
        .stroke11 {fill: #808070;}
        .stroke12 {fill: #808069;}
        .stroke13 {fill: #808068;}
        .stroke14 {fill: #808067;}
        .stroke15 {fill: #808066;}
        .stroke16 {fill: #808065;}
        .stroke17 {fill: #808064;}
        .stroke18 {fill: #808063;}
        .stroke19 {fill: #808062;}
        .stroke20 {fill: #808061;}
        text {
            font-family: Helvetica;
            font-size: 50px;
            fill: #808060;
            paint-order: stroke;
            stroke: #000000;
            stroke-width: 4px;
            stroke-linecap: butt;
            stroke-linejoin: miter;
            font-weight: 800;
        }
    </style>

    <path d="M 206 381 Q 206 382 207 383 Q 213 440 215 495 L 216 533 Q 216 692 220 697 C 222 716 222 716 203 726 Q 190 736 168 742 Q 149 749 137 744 Q 127 735 135 723 Q 154 696 162 645 Q 162 624 164 598 Q 174 418 142 279 Q 117 177 44 26 Q 40 19 38 13 Q 37 3 47 6 Q 80 18 144 148 Q 157 179 170 215 Q 188 275 200 341 L 206 381 Z" class="stroke1"/>
    <path d="M 220 697 Q 220 698 224 699 Q 248 706 272 716 Q 287 720 295 713 Q 308 703 307 662 Q 317 343 302 152 Q 301 124 292 112 Q 288 106 267 111 Q 242 115 215 120 Q 196 124 197 115 Q 255 72 287 40 Q 300 22 315 18 Q 324 15 331 24 Q 370 73 366 124 Q 356 305 356 650 Q 356 684 367 702 Q 379 720 367 730 Q 346 746 312 761 Q 294 767 281 761 Q 256 745 240 738 Q 225 732 203 726 C 174 717 192 687 220 697 Z" class="stroke2"/>
    <path d="M 215 495 Q 251 502 277 505 Q 302 512 290 524 Q 277 537 250 539 Q 235 539 216 533 C 187 524 186 489 215 495 Z" class="stroke3"/>
    <path d="M 200 341 Q 240 347 271 349 Q 296 355 286 368 Q 273 383 246 386 Q 230 387 206 381 C 177 374 170 337 200 341 Z" class="stroke4"/>
    <path d="M 607 742 Q 713 773 745 777 Q 763 777 767 784 Q 771 794 760 808 Q 700 859 667 855 Q 660 852 658 841 Q 652 802 462 728 Q 455 719 462 716 Q 472 713 557 731 L 607 742 Z" class="stroke5"/>
    <path d="M 640 618 Q 745 636 873 636 Q 892 637 897 646 Q 901 658 885 670 Q 828 709 781 691 Q 726 678 642 658 L 585 648 Q 494 632 391 614 Q 372 611 387 595 Q 400 582 418 578 Q 439 574 454 579 Q 517 598 587 609 L 640 618 Z" class="stroke6"/>
    <path d="M 463 506 Q 453 512 421 516 Q 411 519 407 514 Q 401 508 409 493 Q 442 426 462 317 Q 466 284 484 263 Q 502 242 506 257 Q 510 267 510 284 L 507 313 Q 480 448 476 473 C 471 503 471 503 463 506 Z" class="stroke7"/>
    <path d="M 706 311 Q 722 283 740 273 Q 752 264 769 286 Q 782 308 815 424 Q 825 457 851 482 Q 864 495 854 510 Q 838 528 794 556 Q 773 566 704 549 Q 668 546 638 538 L 588 529 Q 587 529 463 506 C 434 501 447 465 476 473 Q 519 486 588 498 L 638 507 Q 731 525 751 511 Q 764 501 760 484 Q 735 355 717 341 C 702 317 702 317 706 311 Z" class="stroke8"/>
    <path d="M 637 403 Q 665 410 692 413 Q 714 417 705 429 Q 695 442 671 446 Q 656 447 638 443 L 588 428 Q 557 418 530 408 Q 514 404 534 391 Q 535 390 587 394 L 637 403 Z" class="stroke9"/>
    <path d="M 636 303 Q 667 307 706 311 C 736 314 741 323 717 341 Q 714 344 710 346 Q 695 353 636 338 L 586 327 Q 543 320 507 313 C 478 307 480 285 510 284 Q 516 283 525 285 Q 549 292 586 296 L 636 303 Z" class="stroke10"/>
    <path d="M 635 77 Q 635 123 635 167 L 635 211 Q 635 259 636 303 L 636 338 Q 636 372 637 403 L 638 443 Q 638 476 638 507 L 638 538 Q 639 580 640 618 L 642 658 Q 642 713 641 715 Q 625 731 607 742 C 582 759 544 758 557 731 Q 582 683 585 648 L 587 609 Q 588 590 588 529 L 588 498 Q 588 467 588 428 L 587 394 Q 586 363 586 327 L 586 296 Q 585 253 585 200 L 584 160 Q 584 120 584 71 C 584 41 635 47 635 77 Z" class="stroke11"/>
    <path d="M 635 167 Q 696 177 748 181 Q 773 185 765 199 Q 753 215 726 222 Q 681 229 635 211 L 585 200 Q 530 190 481 179 Q 462 175 484 158 Q 497 148 524 152 L 584 160 L 635 167 Z" class="stroke12"/>
    <path d="M 584 71 Q 485 61 373 49 Q 352 48 367 31 Q 380 18 397 11 Q 418 5 433 10 Q 568 43 869 43 Q 885 43 902 42 Q 921 41 926 50 Q 932 60 916 75 Q 862 114 830 106 Q 757 93 635 77 L 584 71 Z" class="stroke13"/>
    
    
    
    
    
    
    
    
    
    
    
    
    </g>
</svg>