<svg version="1.1" viewBox="0 0 1024 1024" xmlns="http://www.w3.org/2000/svg">
  
  <g transform="scale(1, -1) translate(0, -900)">
    <style type="text/css">
        .stroke1 {fill: #808080;}
        .stroke2 {fill: #808079;}
        .stroke3 {fill: #808078;}
        .stroke4 {fill: #808077;}
        .stroke5 {fill: #808076;}
        .stroke6 {fill: #808075;}
        .stroke7 {fill: #808074;}
        .stroke8 {fill: #808073;}
        .stroke9 {fill: #808072;}
        .stroke10 {fill: #808071;}
        .stroke11 {fill: #808070;}
        .stroke12 {fill: #808069;}
        .stroke13 {fill: #808068;}
        .stroke14 {fill: #808067;}
        .stroke15 {fill: #808066;}
        .stroke16 {fill: #808065;}
        .stroke17 {fill: #808064;}
        .stroke18 {fill: #808063;}
        .stroke19 {fill: #808062;}
        .stroke20 {fill: #808061;}
        text {
            font-family: Helvetica;
            font-size: 50px;
            fill: #808060;
            paint-order: stroke;
            stroke: #000000;
            stroke-width: 4px;
            stroke-linecap: butt;
            stroke-linejoin: miter;
            font-weight: 800;
        }
    </style>

    <path d="M 554 702 Q 608 714 761 729 Q 774 728 784 742 Q 785 755 760 767 Q 718 792 633 766 Q 491 736 417 727 Q 372 724 326 717 C 296 713 303 686 331 674 Q 332 673 335 672 Q 351 663 375 670 Q 436 683 512 695 L 554 702 Z" class="stroke1"/>
    <path d="M 565 526 Q 575 581 583 624 Q 584 631 586 637 Q 596 656 587 668 Q 571 689 554 702 C 531 721 507 725 512 695 Q 518 667 513 514 C 512 484 560 496 565 526 Z" class="stroke2"/>
    <path d="M 700 376 Q 733 451 765 467 Q 784 486 769 507 Q 753 523 696 553 Q 677 562 653 554 Q 607 538 565 526 L 513 514 Q 509 514 505 513 Q 414 497 318 489 C 288 486 287 468 316 459 Q 343 447 382 458 Q 505 477 621 498 Q 652 505 664 492 Q 671 483 669 465 Q 659 422 646 384 C 637 356 687 349 700 376 Z" class="stroke3"/>
    <path d="M 554 322 Q 624 331 713 338 Q 726 339 727 349 Q 727 356 700 376 L 646 384 Q 643 385 641 384 Q 455 341 307 326 C 277 323 276 300 305 292 Q 318 286 337 289 Q 404 305 514 317 L 554 322 Z" class="stroke4"/>
    <path d="M 565 122 L 589 287 Q 588 290 587 290 Q 571 309 554 322 C 531 341 502 345 514 317 Q 517 310 520 303 Q 523 294 515 117 C 514 87 561 92 565 122 Z" class="stroke5"/>
    <path d="M 326 717 Q 283 742 264 744 Q 251 745 242 738 Q 232 731 246 714 Q 271 684 264 410 Q 261 199 227 108 Q 221 96 214 90 Q 193 72 205 53 Q 211 37 227 24 Q 242 11 261 25 Q 309 73 604 81 Q 785 85 849 76 Q 897 69 898 92 Q 898 107 862 129 Q 828 150 808 149 Q 774 148 565 122 L 515 117 Q 478 116 437 109 Q 311 88 302 102 Q 292 112 299 167 Q 302 195 305 263 Q 305 273 305 292 L 307 326 Q 310 375 316 459 L 318 489 Q 319 508 321 530 Q 325 638 331 674 C 334 704 335 712 326 717 Z" class="stroke6"/>
    
    
    
    
    
    </g>
</svg>