<svg version="1.1" viewBox="0 0 1024 1024" xmlns="http://www.w3.org/2000/svg">
  
  <g transform="scale(1, -1) translate(0, -900)">
    <style type="text/css">
        .stroke1 {fill: #808080;}
        .stroke2 {fill: #808079;}
        .stroke3 {fill: #808078;}
        .stroke4 {fill: #808077;}
        .stroke5 {fill: #808076;}
        .stroke6 {fill: #808075;}
        .stroke7 {fill: #808074;}
        .stroke8 {fill: #808073;}
        .stroke9 {fill: #808072;}
        .stroke10 {fill: #808071;}
        .stroke11 {fill: #808070;}
        .stroke12 {fill: #808069;}
        .stroke13 {fill: #808068;}
        .stroke14 {fill: #808067;}
        .stroke15 {fill: #808066;}
        .stroke16 {fill: #808065;}
        .stroke17 {fill: #808064;}
        .stroke18 {fill: #808063;}
        .stroke19 {fill: #808062;}
        .stroke20 {fill: #808061;}
        text {
            font-family: Helvetica;
            font-size: 50px;
            fill: #808060;
            paint-order: stroke;
            stroke: #000000;
            stroke-width: 4px;
            stroke-linecap: butt;
            stroke-linejoin: miter;
            font-weight: 800;
        }
    </style>

    <path d="M 278 567 Q 306 585 374 631 Q 392 647 414 656 Q 435 666 424 682 Q 411 698 387 712 Q 365 725 352 722 Q 340 721 344 708 Q 350 683 264 582 C 245 559 253 551 278 567 Z" class="stroke1"/>
    <path d="M 325 344 Q 315 401 303 445 L 297 475 Q 282 541 280 559 Q 279 565 278 567 C 276 577 276 577 264 582 Q 254 588 218 592 Q 205 595 201 589 Q 194 582 205 565 Q 244 489 270 362 Q 274 325 298 300 Q 319 276 323 294 Q 324 301 326 309 L 325 344 Z" class="stroke2"/>
    <path d="M 303 445 Q 367 460 416 467 Q 438 471 430 484 Q 418 499 392 501 Q 349 504 297 475 C 271 461 274 438 303 445 Z" class="stroke3"/>
    <path d="M 667 344 Q 668 337 671 329 Q 678 311 692 313 Q 707 316 715 332 Q 737 366 762 523 Q 780 580 820 613 Q 841 631 823 648 Q 802 667 747 695 Q 731 704 629 681 Q 604 675 588 673 Q 572 674 570 668 Q 566 664 582 653 Q 607 640 649 644 Q 697 653 706 649 Q 722 640 715 591 Q 711 561 705 534 L 700 501 Q 681 395 672 367 Q 671 367 671 366 C 666 349 666 349 667 344 Z" class="stroke4"/>
    <path d="M 705 534 Q 678 543 572 516 Q 556 513 574 498 Q 581 492 595 494 Q 652 498 700 501 C 730 503 734 527 705 534 Z" class="stroke5"/>
    <path d="M 509 331 Q 575 340 667 344 C 696 345 694 347 671 366 Q 635 402 541 376 Q 526 375 514 371 L 461 361 Q 388 351 325 344 C 295 341 296 310 326 309 Q 336 308 350 309 Q 390 318 454 325 L 509 331 Z" class="stroke6"/>
    <path d="M 503 303 Q 506 318 509 331 L 514 371 Q 520 437 528 690 Q 528 726 550 789 Q 557 804 545 816 Q 520 835 478 846 Q 451 853 442 845 Q 432 838 441 824 Q 501 730 464 380 Q 463 371 461 361 L 454 325 Q 424 174 291 79 Q 228 37 135 -5 Q 122 -12 121 -17 Q 122 -21 134 -22 Q 159 -26 220 -7 Q 323 21 394 92 Q 463 158 495 268 L 503 303 Z" class="stroke7"/>
    <path d="M 495 268 Q 600 135 732 -8 Q 754 -30 791 -29 Q 915 -23 955 -16 Q 967 -13 968 -7 Q 968 0 951 7 Q 777 59 721 104 Q 621 185 503 303 C 482 324 476 292 495 268 Z" class="stroke8"/>
    
    
    
    
    
    
    
    </g>
</svg>