<svg version="1.1" viewBox="0 0 1024 1024" xmlns="http://www.w3.org/2000/svg">
  
  <g transform="scale(1, -1) translate(0, -900)">
    <style type="text/css">
        .stroke1 {fill: #808080;}
        .stroke2 {fill: #808079;}
        .stroke3 {fill: #808078;}
        .stroke4 {fill: #808077;}
        .stroke5 {fill: #808076;}
        .stroke6 {fill: #808075;}
        .stroke7 {fill: #808074;}
        .stroke8 {fill: #808073;}
        .stroke9 {fill: #808072;}
        .stroke10 {fill: #808071;}
        .stroke11 {fill: #808070;}
        .stroke12 {fill: #808069;}
        .stroke13 {fill: #808068;}
        .stroke14 {fill: #808067;}
        .stroke15 {fill: #808066;}
        .stroke16 {fill: #808065;}
        .stroke17 {fill: #808064;}
        .stroke18 {fill: #808063;}
        .stroke19 {fill: #808062;}
        .stroke20 {fill: #808061;}
        text {
            font-family: Helvetica;
            font-size: 50px;
            fill: #808060;
            paint-order: stroke;
            stroke: #000000;
            stroke-width: 4px;
            stroke-linecap: butt;
            stroke-linejoin: miter;
            font-weight: 800;
        }
    </style>

    <path d="M 436 765 Q 432 795 430 817 Q 431 836 412 840 Q 373 855 355 847 Q 339 838 353 821 Q 380 794 392 758 L 402 726 Q 411 690 427 674 Q 440 665 444 676 Q 445 688 440 736 L 436 765 Z" class="stroke1"/>
    <path d="M 440 736 Q 447 740 456 741 Q 471 742 487 752 Q 494 756 492 763 Q 491 769 478 772 Q 459 771 436 765 L 392 758 Q 325 751 237 736 Q 195 737 173 735 Q 163 736 161 732 Q 158 725 165 715 Q 178 700 205 689 Q 221 679 239 685 Q 317 704 402 726 L 440 736 Z" class="stroke2"/>
    <path d="M 658 786 Q 665 804 679 826 Q 692 839 683 849 Q 673 864 641 879 Q 626 888 611 880 Q 601 874 609 864 Q 616 846 606 780 L 600 751 Q 581 681 582 669 Q 583 657 596 664 Q 608 674 641 744 L 658 786 Z" class="stroke3"/>
    <path d="M 641 744 Q 651 745 665 747 Q 776 765 857 754 Q 870 753 875 761 Q 879 771 868 783 Q 826 819 746 800 Q 706 794 658 786 L 606 780 Q 597 780 588 778 Q 563 775 581 762 Q 591 756 600 751 C 617 741 617 741 641 744 Z" class="stroke4"/>
    <path d="M 330 536 Q 381 602 397 617 Q 404 621 403 630 Q 399 654 365 668 Q 347 675 338 675 Q 331 674 331 663 Q 335 596 230 488 Q 227 487 226 484 Q 195 453 118 394 Q 111 390 119 387 Q 167 387 265 469 Q 286 490 307 510 L 330 536 Z" class="stroke5"/>
    <path d="M 359 339 Q 360 346 360 352 Q 356 455 358 480 Q 364 499 356 508 Q 343 524 332 534 L 330 536 C 308 557 298 538 307 510 Q 326 459 306 352 Q 296 319 326 278 L 327 277 Q 340 265 349 285 Q 353 298 355 311 L 359 339 Z" class="stroke6"/>
    <path d="M 510 651 Q 523 638 536 623 Q 548 613 560 613 Q 569 614 573 625 Q 577 637 570 661 Q 564 677 506 690 Q 493 693 488 691 Q 484 687 485 677 Q 488 667 510 651 Z" class="stroke7"/>
    <path d="M 559 567 Q 742 606 746 609 Q 753 616 750 623 Q 744 632 721 639 Q 697 643 673 635 Q 553 593 411 582 Q 383 578 403 563 Q 430 547 498 557 Q 507 558 519 560 L 559 567 Z" class="stroke8"/>
    <path d="M 585 490 Q 645 500 698 506 Q 720 507 713 521 Q 703 534 680 540 Q 646 546 589 528 L 529 516 Q 474 506 423 496 Q 407 493 426 478 Q 439 468 467 472 Q 498 478 531 482 L 585 490 Z" class="stroke9"/>
    <path d="M 580 415 Q 644 424 702 430 Q 724 431 716 445 Q 707 458 684 465 Q 657 471 582 453 L 532 443 Q 475 434 424 424 Q 408 421 426 406 Q 438 397 533 409 L 580 415 Z" class="stroke10"/>
    <path d="M 577 365 Q 578 392 580 415 L 582 453 Q 583 472 585 490 L 589 528 Q 590 538 585 545 Q 572 558 559 567 C 535 585 511 589 519 560 Q 528 527 529 516 L 531 482 Q 531 466 532 443 L 533 409 Q 533 388 535 360 C 537 330 576 335 577 365 Z" class="stroke11"/>
    <path d="M 535 360 Q 453 353 359 339 C 329 335 326 320 355 311 Q 382 301 401 304 Q 525 335 773 336 Q 786 336 801 335 Q 817 335 822 342 Q 826 352 813 364 Q 767 398 710 386 Q 656 377 577 365 L 535 360 Z" class="stroke12"/>
    <path d="M 328 186 Q 334 189 346 193 Q 475 254 476 257 Q 477 266 467 273 Q 416 300 387 293 Q 381 289 383 280 Q 383 262 312 200 C 289 180 301 174 328 186 Z" class="stroke13"/>
    <path d="M 312 200 Q 287 216 260 221 Q 253 222 248 218 Q 241 212 251 201 Q 281 159 298 46 Q 302 -18 340 -40 Q 341 -40 343 -41 Q 359 -45 360 -16 L 356 18 Q 353 36 347 54 Q 344 75 340 103 L 336 131 Q 329 185 328 186 C 327 191 327 191 312 200 Z" class="stroke14"/>
    <path d="M 340 103 Q 341 103 344 103 Q 414 113 467 120 Q 489 124 481 136 Q 471 151 445 155 Q 409 159 336 131 C 308 120 310 102 340 103 Z" class="stroke15"/>
    <path d="M 639 5 Q 654 -20 673 -66 Q 683 -87 701 -75 Q 731 -60 753 40 Q 781 187 801 217 Q 817 239 799 254 Q 735 314 690 297 Q 675 296 651 290 Q 600 281 543 279 Q 533 279 532 268 Q 532 258 548 248 Q 572 236 628 245 Q 701 263 714 254 Q 721 250 721 232 Q 718 201 713 167 L 707 131 Q 700 85 688 37 Q 684 24 663 28 C 633 26 627 26 639 5 Z" class="stroke16"/>
    <path d="M 713 167 Q 689 185 554 153 Q 551 153 549 152 Q 533 151 551 133 Q 558 126 575 127 Q 650 131 707 131 C 737 131 739 153 713 167 Z" class="stroke17"/>
    <path d="M 360 -16 Q 367 -17 379 -15 Q 461 0 639 5 C 669 6 685 8 663 28 Q 633 58 596 50 Q 463 25 356 18 C 326 16 330 -16 360 -16 Z" class="stroke18"/>
    
    
    
    
    
    
    
    
    
    
    
    
    
    
    
    
    
    </g>
</svg>