<svg version="1.1" viewBox="0 0 1024 1024" xmlns="http://www.w3.org/2000/svg">
  
  <g transform="scale(1, -1) translate(0, -900)">
    <style type="text/css">
        .stroke1 {fill: #808080;}
        .stroke2 {fill: #808079;}
        .stroke3 {fill: #808078;}
        .stroke4 {fill: #808077;}
        .stroke5 {fill: #808076;}
        .stroke6 {fill: #808075;}
        .stroke7 {fill: #808074;}
        .stroke8 {fill: #808073;}
        .stroke9 {fill: #808072;}
        .stroke10 {fill: #808071;}
        .stroke11 {fill: #808070;}
        .stroke12 {fill: #808069;}
        .stroke13 {fill: #808068;}
        .stroke14 {fill: #808067;}
        .stroke15 {fill: #808066;}
        .stroke16 {fill: #808065;}
        .stroke17 {fill: #808064;}
        .stroke18 {fill: #808063;}
        .stroke19 {fill: #808062;}
        .stroke20 {fill: #808061;}
        text {
            font-family: Helvetica;
            font-size: 50px;
            fill: #808060;
            paint-order: stroke;
            stroke: #000000;
            stroke-width: 4px;
            stroke-linecap: butt;
            stroke-linejoin: miter;
            font-weight: 800;
        }
    </style>

    <path d="M 261 650 Q 304 689 328 715 Q 382 778 406 794 Q 425 809 411 825 Q 393 840 364 849 Q 336 858 324 853 Q 311 849 318 835 Q 328 808 246 659 C 232 633 239 630 261 650 Z" class="stroke1"/>
    <path d="M 266 647 Q 263 648 261 650 L 246 659 Q 239 663 229 666 Q 210 675 199 669 Q 189 662 196 650 Q 211 628 217 579 Q 217 434 213 397 Q 212 396 212 392 L 206 347 Q 185 209 100 57 Q 96 50 95 45 Q 94 35 103 38 Q 136 44 201 175 Q 208 193 217 213 Q 241 277 254 354 Q 254 358 255 362 L 260 402 Q 261 423 271 582 Q 272 600 275 616 C 278 640 278 640 266 647 Z" class="stroke2"/>
    <path d="M 396 407 Q 397 137 382 112 Q 376 108 302 126 Q 283 133 284 124 Q 341 75 373 39 Q 385 21 400 16 Q 409 12 417 22 Q 456 73 455 120 Q 445 280 444 543 Q 443 598 456 622 Q 468 641 456 650 Q 437 668 401 682 Q 385 689 369 682 Q 339 666 319 659 Q 300 653 266 647 C 237 641 246 608 275 616 Q 279 619 287 620 Q 324 629 359 639 Q 378 643 383 634 Q 392 610 396 430 L 396 407 Z" class="stroke3"/>
    <path d="M 291 531 Q 321 474 343 468 Q 355 465 363 480 Q 366 490 361 510 Q 346 537 299 554 Q 292 557 289 547 Q 286 540 291 531 Z" class="stroke4"/>
    <path d="M 255 362 Q 309 378 396 407 C 424 416 425 436 396 430 Q 330 417 260 402 L 212 392 Q 169 388 127 378 Q 106 374 74 377 Q 62 377 60 368 Q 56 356 64 348 Q 83 332 111 311 Q 121 307 132 314 Q 166 335 206 347 L 255 362 Z" class="stroke5"/>
    <path d="M 280 309 Q 316 242 341 236 Q 354 233 363 249 Q 366 262 360 282 Q 345 315 288 334 Q 281 337 277 326 Q 274 319 280 309 Z" class="stroke6"/>
    <path d="M 780 601 Q 945 607 951 614 Q 951 615 952 615 Q 956 627 941 639 Q 887 678 830 658 Q 671 627 475 597 Q 456 594 470 579 Q 483 566 501 562 Q 520 558 535 562 Q 638 592 729 597 L 780 601 Z" class="stroke7"/>
    <path d="M 525 458 Q 515 464 492 469 Q 482 473 478 468 Q 474 464 479 450 Q 500 398 509 313 Q 510 288 523 271 Q 536 252 542 264 Q 546 277 547 300 L 544 331 Q 537 413 536 435 C 535 453 535 453 525 458 Z" class="stroke8"/>
    <path d="M 667 345 Q 677 418 697 441 Q 716 463 695 474 Q 679 483 655 496 Q 639 505 624 494 Q 599 478 525 458 C 496 450 507 427 536 435 Q 545 438 607 452 Q 626 456 630 449 Q 637 445 633 414 Q 629 384 624 348 C 620 318 663 315 667 345 Z" class="stroke9"/>
    <path d="M 547 300 Q 548 300 638 316 Q 657 319 673 321 Q 680 320 686 329 Q 687 338 670 344 Q 669 345 667 345 L 624 348 Q 608 345 593 341 Q 574 337 554 333 Q 550 333 544 331 C 515 323 517 295 547 300 Z" class="stroke10"/>
    <path d="M 696 79 Q 668 86 633 93 Q 620 96 621 88 Q 622 79 634 71 Q 709 20 757 -22 Q 770 -32 784 -14 Q 823 43 817 125 Q 805 392 814 536 Q 820 564 813 575 Q 806 587 780 601 C 755 617 716 624 729 597 Q 730 590 737 580 Q 749 555 749 513 Q 752 398 752 132 Q 752 93 741 79 Q 728 72 696 79 Z" class="stroke11"/>
    
    
    
    
    
    
    
    
    
    
    </g>
</svg>