<svg version="1.1" viewBox="0 0 1024 1024" xmlns="http://www.w3.org/2000/svg">
  
  <g transform="scale(1, -1) translate(0, -900)">
    <style type="text/css">
        .stroke1 {fill: #808080;}
        .stroke2 {fill: #808079;}
        .stroke3 {fill: #808078;}
        .stroke4 {fill: #808077;}
        .stroke5 {fill: #808076;}
        .stroke6 {fill: #808075;}
        .stroke7 {fill: #808074;}
        .stroke8 {fill: #808073;}
        .stroke9 {fill: #808072;}
        .stroke10 {fill: #808071;}
        .stroke11 {fill: #808070;}
        .stroke12 {fill: #808069;}
        .stroke13 {fill: #808068;}
        .stroke14 {fill: #808067;}
        .stroke15 {fill: #808066;}
        .stroke16 {fill: #808065;}
        .stroke17 {fill: #808064;}
        .stroke18 {fill: #808063;}
        .stroke19 {fill: #808062;}
        .stroke20 {fill: #808061;}
        text {
            font-family: Helvetica;
            font-size: 50px;
            fill: #808060;
            paint-order: stroke;
            stroke: #000000;
            stroke-width: 4px;
            stroke-linecap: butt;
            stroke-linejoin: miter;
            font-weight: 800;
        }
    </style>

    <path d="M 604 624 Q 689 636 821 627 Q 837 626 843 635 Q 847 647 834 662 Q 786 705 698 684 Q 661 678 622 670 L 566 661 Q 487 651 401 639 L 353 633 Q 262 626 164 614 Q 133 611 155 595 Q 200 568 269 581 Q 315 593 360 599 L 405 607 Q 409 613 555 621 L 604 624 Z" class="stroke1"/>
    <path d="M 401 639 Q 397 685 394 721 Q 395 743 374 748 Q 332 769 307 760 Q 288 750 305 730 Q 341 685 353 633 L 360 599 Q 375 524 391 508 Q 404 498 410 510 Q 417 531 411 555 Q 407 583 405 607 L 401 639 Z" class="stroke2"/>
    <path d="M 555 621 Q 537 557 538 536 Q 539 520 556 534 Q 580 555 604 624 L 622 670 Q 652 748 668 779 Q 684 795 672 807 Q 659 825 620 843 Q 601 853 582 843 Q 572 836 580 824 Q 592 797 588 764 Q 581 719 566 661 L 555 621 Z" class="stroke3"/>
    <path d="M 537 201 Q 579 274 604 376 Q 611 410 621 430 Q 628 443 619 453 Q 598 478 574 491 Q 550 504 539 502 Q 529 498 530 485 Q 554 367 493 243 L 470 200 Q 395 92 157 34 Q 145 34 140 29 Q 133 25 143 19 Q 150 16 165 17 Q 282 21 367 58 Q 440 85 505 157 L 537 201 Z" class="stroke4"/>
    <path d="M 505 157 Q 569 78 655 -1 Q 677 -26 713 -27 Q 822 -33 911 -23 Q 957 -19 954 -6 Q 953 1 907 16 Q 690 70 572 171 Q 554 187 537 201 L 493 243 Q 438 298 381 364 Q 341 410 300 413 Q 281 414 276 409 Q 273 402 291 388 Q 354 346 470 200 L 505 157 Z" class="stroke5"/>
    
    
    
    
    </g>
</svg>