<svg version="1.1" viewBox="0 0 1024 1024" xmlns="http://www.w3.org/2000/svg">
  
  <g transform="scale(1, -1) translate(0, -900)">
    <style type="text/css">
        .stroke1 {fill: #808080;}
        .stroke2 {fill: #808079;}
        .stroke3 {fill: #808078;}
        .stroke4 {fill: #808077;}
        .stroke5 {fill: #808076;}
        .stroke6 {fill: #808075;}
        .stroke7 {fill: #808074;}
        .stroke8 {fill: #808073;}
        .stroke9 {fill: #808072;}
        .stroke10 {fill: #808071;}
        .stroke11 {fill: #808070;}
        .stroke12 {fill: #808069;}
        .stroke13 {fill: #808068;}
        .stroke14 {fill: #808067;}
        .stroke15 {fill: #808066;}
        .stroke16 {fill: #808065;}
        .stroke17 {fill: #808064;}
        .stroke18 {fill: #808063;}
        .stroke19 {fill: #808062;}
        .stroke20 {fill: #808061;}
        text {
            font-family: Helvetica;
            font-size: 50px;
            fill: #808060;
            paint-order: stroke;
            stroke: #000000;
            stroke-width: 4px;
            stroke-linecap: butt;
            stroke-linejoin: miter;
            font-weight: 800;
        }
    </style>

    <path d="M 654 631 Q 739 640 851 631 Q 869 630 874 640 Q 880 653 866 669 Q 811 717 709 691 Q 691 690 675 685 L 611 676 Q 520 663 415 650 L 363 644 Q 281 637 190 628 Q 157 625 179 608 Q 224 578 304 591 Q 335 600 372 605 L 419 613 Q 456 623 600 629 L 654 631 Z" class="stroke1"/>
    <path d="M 415 650 Q 409 696 407 732 Q 408 754 386 760 Q 340 779 318 772 Q 299 762 315 741 Q 351 696 363 644 L 372 605 Q 384 541 402 521 Q 418 509 422 522 Q 429 544 424 569 Q 421 591 419 613 L 415 650 Z" class="stroke2"/>
    <path d="M 675 685 Q 674 686 675 686 Q 685 714 705 753 Q 721 771 709 782 Q 694 801 655 819 Q 636 829 616 819 Q 604 812 614 800 Q 629 767 611 676 L 600 629 Q 576 530 577 521 Q 578 505 597 518 Q 612 531 654 631 L 675 685 Z" class="stroke3"/>
    <path d="M 544 283 Q 605 293 668 300 Q 731 310 740 318 Q 752 327 747 338 Q 740 353 705 363 Q 671 373 634 361 Q 591 349 547 339 L 489 327 Q 486 328 485 327 Q 398 314 299 310 Q 256 306 285 284 Q 331 254 417 267 Q 453 273 491 276 L 544 283 Z" class="stroke4"/>
    <path d="M 535 111 Q 539 201 544 283 L 547 339 Q 551 396 565 453 Q 568 463 547 479 Q 510 498 485 503 Q 469 506 460 497 Q 453 490 461 474 Q 483 441 485 419 Q 488 376 489 327 L 491 276 Q 492 195 490 107 C 489 77 534 81 535 111 Z" class="stroke5"/>
    <path d="M 490 107 Q 342 95 168 81 Q 143 80 160 59 Q 196 23 241 32 Q 490 86 872 64 Q 896 63 902 73 Q 909 86 890 104 Q 829 152 785 144 Q 691 129 535 111 L 490 107 Z" class="stroke6"/>
    
    
    
    
    
    </g>
</svg>