<svg version="1.1" viewBox="0 0 1024 1024" xmlns="http://www.w3.org/2000/svg">
  
  <g transform="scale(1, -1) translate(0, -900)">
    <style type="text/css">
        .stroke1 {fill: #808080;}
        .stroke2 {fill: #808079;}
        .stroke3 {fill: #808078;}
        .stroke4 {fill: #808077;}
        .stroke5 {fill: #808076;}
        .stroke6 {fill: #808075;}
        .stroke7 {fill: #808074;}
        .stroke8 {fill: #808073;}
        .stroke9 {fill: #808072;}
        .stroke10 {fill: #808071;}
        .stroke11 {fill: #808070;}
        .stroke12 {fill: #808069;}
        .stroke13 {fill: #808068;}
        .stroke14 {fill: #808067;}
        .stroke15 {fill: #808066;}
        .stroke16 {fill: #808065;}
        .stroke17 {fill: #808064;}
        .stroke18 {fill: #808063;}
        .stroke19 {fill: #808062;}
        .stroke20 {fill: #808061;}
        text {
            font-family: Helvetica;
            font-size: 50px;
            fill: #808060;
            paint-order: stroke;
            stroke: #000000;
            stroke-width: 4px;
            stroke-linecap: butt;
            stroke-linejoin: miter;
            font-weight: 800;
        }
    </style>

    <path d="M 626 672 Q 710 684 821 677 Q 837 676 843 686 Q 849 698 834 713 Q 782 756 693 734 Q 671 731 649 725 L 589 715 Q 510 703 422 690 L 370 683 Q 292 674 208 664 Q 177 660 199 644 Q 245 614 314 629 Q 345 638 379 643 L 425 653 Q 485 663 578 669 L 626 672 Z" class="stroke1"/>
    <path d="M 422 690 Q 419 723 418 749 Q 419 770 397 776 Q 358 797 331 788 Q 312 779 329 758 Q 359 724 370 683 L 379 643 Q 394 591 407 576 Q 420 566 426 578 Q 430 593 425 653 L 422 690 Z" class="stroke2"/>
    <path d="M 649 725 Q 655 746 679 784 Q 694 800 683 811 Q 670 830 633 848 Q 615 858 596 848 Q 586 842 594 830 Q 606 805 589 715 L 578 669 Q 563 632 566 604 Q 567 588 584 601 Q 594 610 626 672 L 649 725 Z" class="stroke3"/>
    <path d="M 529 475 Q 592 499 651 502 Q 667 501 672 507 Q 676 517 667 529 Q 613 577 583 578 Q 576 575 573 565 Q 569 529 349 459 C 320 450 329 439 359 443 Q 392 447 442 457 Q 458 460 476 463 L 529 475 Z" class="stroke4"/>
    <path d="M 349 459 Q 339 471 296 483 Q 280 486 273 481 Q 266 474 277 456 Q 296 429 302 395 Q 308 367 305 261 Q 302 176 285 128 Q 278 92 241 51 Q 228 39 236 18 Q 245 -10 259 -24 Q 271 -33 284 -19 Q 329 36 462 146 Q 478 156 480 166 Q 483 172 476 172 Q 466 171 358 110 Q 348 106 346 109 Q 339 113 341 128 Q 353 402 358 432 Q 359 438 359 443 C 360 452 360 452 349 459 Z" class="stroke5"/>
    <path d="M 589 305 Q 641 318 698 328 Q 750 340 759 347 Q 768 354 763 364 Q 756 376 726 384 Q 695 390 665 378 Q 622 363 575 350 L 527 339 Q 460 326 382 318 Q 345 312 371 294 Q 413 273 485 286 Q 512 292 541 296 L 589 305 Z" class="stroke6"/>
    <path d="M 541 296 Q 602 122 725 18 Q 747 -1 776 -18 Q 834 -55 871 -60 Q 899 -57 893 -22 Q 883 14 884 178 Q 884 191 878 193 Q 871 194 868 179 Q 855 140 842 102 Q 824 53 807 52 Q 789 52 751 81 Q 711 111 674 159 Q 619 231 589 305 L 575 350 Q 565 392 574 430 Q 577 451 529 475 C 503 490 460 488 476 463 Q 495 444 527 339 L 541 296 Z" class="stroke7"/>
    
    
    
    
    
    
    </g>
</svg>