<svg version="1.1" viewBox="0 0 1024 1024" xmlns="http://www.w3.org/2000/svg">
  
  <g transform="scale(1, -1) translate(0, -900)">
    <style type="text/css">
        .stroke1 {fill: #808080;}
        .stroke2 {fill: #808079;}
        .stroke3 {fill: #808078;}
        .stroke4 {fill: #808077;}
        .stroke5 {fill: #808076;}
        .stroke6 {fill: #808075;}
        .stroke7 {fill: #808074;}
        .stroke8 {fill: #808073;}
        .stroke9 {fill: #808072;}
        .stroke10 {fill: #808071;}
        .stroke11 {fill: #808070;}
        .stroke12 {fill: #808069;}
        .stroke13 {fill: #808068;}
        .stroke14 {fill: #808067;}
        .stroke15 {fill: #808066;}
        .stroke16 {fill: #808065;}
        .stroke17 {fill: #808064;}
        .stroke18 {fill: #808063;}
        .stroke19 {fill: #808062;}
        .stroke20 {fill: #808061;}
        text {
            font-family: Helvetica;
            font-size: 50px;
            fill: #808060;
            paint-order: stroke;
            stroke: #000000;
            stroke-width: 4px;
            stroke-linecap: butt;
            stroke-linejoin: miter;
            font-weight: 800;
        }
    </style>

    <path d="M 634 694 Q 728 701 829 695 Q 845 694 850 703 Q 856 715 842 730 Q 793 775 709 752 Q 682 749 657 743 L 599 734 Q 515 724 422 711 L 374 706 Q 293 699 208 690 Q 178 687 199 671 Q 250 641 310 655 Q 346 664 382 670 L 424 676 Q 455 686 587 692 L 634 694 Z" class="stroke1"/>
    <path d="M 422 711 Q 419 742 419 768 Q 420 787 400 793 Q 363 814 339 805 Q 320 796 336 777 Q 363 747 374 706 L 382 670 Q 391 624 407 608 Q 420 598 425 609 Q 429 624 424 676 L 422 711 Z" class="stroke2"/>
    <path d="M 657 743 Q 657 744 658 744 Q 668 766 687 796 Q 702 809 692 821 Q 680 837 647 857 Q 631 867 613 859 Q 603 853 610 842 Q 619 815 599 734 L 587 692 Q 565 635 567 616 Q 568 601 584 612 Q 596 621 634 694 L 657 743 Z" class="stroke3"/>
    <path d="M 583 524 Q 715 548 721 553 Q 731 560 726 568 Q 720 580 692 589 Q 664 596 634 586 Q 582 571 528 558 L 513 556 Q 452 547 383 543 Q 347 539 372 521 Q 408 499 500 512 Q 509 513 519 514 L 583 524 Z" class="stroke4"/>
    <path d="M 581 365 Q 678 375 800 368 Q 825 364 835 371 Q 842 378 836 391 Q 829 404 788 428 Q 764 441 685 425 Q 660 424 583 411 L 526 401 Q 438 388 352 364 Q 336 357 332 363 Q 328 367 331 377 Q 347 438 355 454 Q 364 469 352 481 Q 334 506 305 520 Q 292 526 282 519 Q 276 513 284 496 Q 299 466 293 426 Q 280 377 257 357 Q 244 342 248 330 Q 255 308 273 290 Q 285 278 304 291 Q 365 333 488 352 L 581 365 Z" class="stroke5"/>
    <path d="M 526 313 Q 526 213 526 67 Q 526 30 515 15 Q 502 8 471 15 Q 446 19 416 25 Q 404 26 405 20 Q 406 13 417 4 Q 487 -42 531 -80 Q 544 -89 557 -72 Q 594 -12 588 60 Q 579 267 581 365 L 583 411 Q 583 448 588 483 Q 594 510 588 520 Q 587 523 583 524 L 528 558 Q 516 559 513 556 C 512 556 514 544 519 514 Q 525 496 526 401 L 526 313 Z" class="stroke6"/>
    <path d="M 488 352 Q 434 214 163 48 Q 144 36 161 33 Q 197 30 296 83 Q 371 131 443 206 Q 455 221 526 313 C 564 362 509 401 488 352 Z" class="stroke7"/>
    
    
    
    
    
    
    </g>
</svg>