<svg version="1.1" viewBox="0 0 1024 1024" xmlns="http://www.w3.org/2000/svg">
  
  <g transform="scale(1, -1) translate(0, -900)">
    <style type="text/css">
        .stroke1 {fill: #808080;}
        .stroke2 {fill: #808079;}
        .stroke3 {fill: #808078;}
        .stroke4 {fill: #808077;}
        .stroke5 {fill: #808076;}
        .stroke6 {fill: #808075;}
        .stroke7 {fill: #808074;}
        .stroke8 {fill: #808073;}
        .stroke9 {fill: #808072;}
        .stroke10 {fill: #808071;}
        .stroke11 {fill: #808070;}
        .stroke12 {fill: #808069;}
        .stroke13 {fill: #808068;}
        .stroke14 {fill: #808067;}
        .stroke15 {fill: #808066;}
        .stroke16 {fill: #808065;}
        .stroke17 {fill: #808064;}
        .stroke18 {fill: #808063;}
        .stroke19 {fill: #808062;}
        .stroke20 {fill: #808061;}
        text {
            font-family: Helvetica;
            font-size: 50px;
            fill: #808060;
            paint-order: stroke;
            stroke: #000000;
            stroke-width: 4px;
            stroke-linecap: butt;
            stroke-linejoin: miter;
            font-weight: 800;
        }
    </style>

    <path d="M 626 665 Q 737 674 809 669 Q 825 668 831 678 Q 837 690 822 705 Q 768 750 662 722 Q 655 722 648 719 L 589 709 Q 508 696 418 683 L 367 676 Q 300 669 228 660 Q 197 656 219 640 Q 268 607 344 628 Q 359 632 376 634 L 420 643 Q 459 653 577 662 L 626 665 Z" class="stroke1"/>
    <path d="M 418 683 Q 417 720 416 748 Q 417 769 397 776 Q 354 797 331 790 Q 312 781 327 760 Q 357 724 366 681 Q 366 680 367 676 L 376 634 Q 380 594 399 573 Q 412 560 418 573 Q 425 597 420 643 L 418 683 Z" class="stroke2"/>
    <path d="M 648 719 Q 657 747 679 785 Q 695 801 683 812 Q 670 830 633 848 Q 615 858 596 848 Q 586 841 594 829 Q 604 807 601 779 Q 597 748 589 709 L 577 662 Q 561 598 562 584 Q 563 568 580 581 Q 598 597 626 665 L 648 719 Z" class="stroke3"/>
    <path d="M 471 536 Q 493 517 518 492 Q 530 480 543 481 Q 553 481 557 493 Q 561 506 554 531 Q 550 547 523 561 Q 463 585 448 579 Q 444 575 445 564 Q 448 554 471 536 Z" class="stroke4"/>
    <path d="M 514 403 Q 514 404 515 404 Q 755 425 818 420 Q 908 417 911 418 Q 912 419 914 421 Q 923 436 910 448 Q 879 476 833 496 Q 818 502 791 493 Q 722 478 540 455 Q 437 446 306 426 Q 240 416 141 414 Q 126 414 125 402 Q 125 389 144 374 Q 162 361 194 349 Q 206 345 224 354 Q 240 360 310 372 Q 385 390 476 399 L 514 403 Z" class="stroke5"/>
    <path d="M 476 399 Q 504 371 479 109 Q 478 103 477 97 Q 476 75 472 63 Q 463 24 496 -27 Q 508 -46 516 -50 Q 528 -51 533 -38 Q 546 -7 542 25 Q 536 284 547 363 Q 550 376 543 382 Q 528 395 514 403 C 489 419 462 425 476 399 Z" class="stroke6"/>
    <path d="M 596 284 Q 648 247 714 192 Q 732 174 746 172 Q 755 172 761 183 Q 771 196 753 236 Q 740 275 666 295 Q 618 308 593 314 Q 583 318 583 306 Q 584 293 596 284 Z" class="stroke7"/>
    
    
    
    
    
    
    </g>
</svg>