<svg version="1.1" viewBox="0 0 1024 1024" xmlns="http://www.w3.org/2000/svg">
  
  <g transform="scale(1, -1) translate(0, -900)">
    <style type="text/css">
        .stroke1 {fill: #808080;}
        .stroke2 {fill: #808079;}
        .stroke3 {fill: #808078;}
        .stroke4 {fill: #808077;}
        .stroke5 {fill: #808076;}
        .stroke6 {fill: #808075;}
        .stroke7 {fill: #808074;}
        .stroke8 {fill: #808073;}
        .stroke9 {fill: #808072;}
        .stroke10 {fill: #808071;}
        .stroke11 {fill: #808070;}
        .stroke12 {fill: #808069;}
        .stroke13 {fill: #808068;}
        .stroke14 {fill: #808067;}
        .stroke15 {fill: #808066;}
        .stroke16 {fill: #808065;}
        .stroke17 {fill: #808064;}
        .stroke18 {fill: #808063;}
        .stroke19 {fill: #808062;}
        .stroke20 {fill: #808061;}
        text {
            font-family: Helvetica;
            font-size: 50px;
            fill: #808060;
            paint-order: stroke;
            stroke: #000000;
            stroke-width: 4px;
            stroke-linecap: butt;
            stroke-linejoin: miter;
            font-weight: 800;
        }
    </style>

    <path d="M 646 669 Q 665 669 834 670 Q 853 669 859 678 Q 863 688 848 702 Q 793 744 739 729 Q 705 725 666 716 L 609 707 Q 477 692 415 681 L 369 676 Q 282 669 192 657 Q 173 656 187 639 Q 200 626 217 620 Q 238 614 253 619 Q 311 635 376 644 L 417 650 Q 490 665 598 667 L 646 669 Z" class="stroke1"/>
    <path d="M 415 681 Q 414 712 413 737 Q 414 756 395 762 Q 353 780 336 774 Q 320 767 333 747 Q 360 717 369 676 L 376 644 Q 385 596 400 579 Q 413 569 417 580 Q 423 595 417 650 L 415 681 Z" class="stroke2"/>
    <path d="M 666 716 Q 678 743 696 772 Q 711 787 700 797 Q 688 813 654 832 Q 638 842 621 834 Q 611 828 618 817 Q 628 784 609 707 L 598 667 Q 577 612 579 587 Q 580 574 596 584 Q 611 597 646 669 L 666 716 Z" class="stroke3"/>
    <path d="M 387 343 Q 439 400 519 499 Q 520 502 522 503 L 540 521 Q 546 527 546 536 Q 542 566 502 582 Q 481 592 470 590 Q 460 589 462 576 Q 465 482 302 322 Q 173 219 118 180 Q 109 176 120 172 Q 193 172 353 308 Q 356 312 360 315 L 387 343 Z" class="stroke4"/>
    <path d="M 522 503 Q 622 386 734 279 Q 759 254 800 253 Q 875 249 953 264 Q 972 267 974 272 Q 977 279 961 285 Q 907 306 844 326 Q 724 369 548 514 Q 544 518 540 521 C 517 541 502 526 522 503 Z" class="stroke5"/>
    <path d="M 419 300 Q 441 312 538 327 Q 548 328 550 325 Q 556 318 556 299 Q 559 247 550 221 Q 537 196 513 198 Q 488 210 466 223 Q 444 233 457 209 Q 499 158 517 121 Q 530 106 542 117 Q 590 147 614 279 Q 620 312 632 327 Q 642 340 637 349 Q 628 359 581 378 Q 566 384 524 365 Q 424 338 402 334 C 373 328 391 289 419 300 Z" class="stroke6"/>
    <path d="M 823 82 Q 810 107 792 185 Q 792 201 785 206 Q 779 209 775 192 Q 747 107 730 81 Q 711 62 662 48 Q 547 17 457 45 Q 423 58 414 78 Q 390 129 419 300 C 424 330 424 331 402 334 Q 395 340 387 343 C 365 363 355 345 360 315 Q 367 284 366 253 Q 356 102 369 60 Q 373 35 398 16 Q 494 -47 703 -6 Q 710 -3 719 -2 Q 768 13 817 43 Q 836 58 823 82 Z" class="stroke7"/>
    
    
    
    
    
    
    </g>
</svg>