<svg version="1.1" viewBox="0 0 1024 1024" xmlns="http://www.w3.org/2000/svg">
  
  <g transform="scale(1, -1) translate(0, -900)">
    <style type="text/css">
        .stroke1 {fill: #808080;}
        .stroke2 {fill: #808079;}
        .stroke3 {fill: #808078;}
        .stroke4 {fill: #808077;}
        .stroke5 {fill: #808076;}
        .stroke6 {fill: #808075;}
        .stroke7 {fill: #808074;}
        .stroke8 {fill: #808073;}
        .stroke9 {fill: #808072;}
        .stroke10 {fill: #808071;}
        .stroke11 {fill: #808070;}
        .stroke12 {fill: #808069;}
        .stroke13 {fill: #808068;}
        .stroke14 {fill: #808067;}
        .stroke15 {fill: #808066;}
        .stroke16 {fill: #808065;}
        .stroke17 {fill: #808064;}
        .stroke18 {fill: #808063;}
        .stroke19 {fill: #808062;}
        .stroke20 {fill: #808061;}
        text {
            font-family: Helvetica;
            font-size: 50px;
            fill: #808060;
            paint-order: stroke;
            stroke: #000000;
            stroke-width: 4px;
            stroke-linecap: butt;
            stroke-linejoin: miter;
            font-weight: 800;
        }
    </style>

    <path d="M 623 692 Q 698 701 812 690 Q 828 687 834 698 Q 840 710 826 725 Q 774 770 678 750 Q 662 749 647 745 L 586 736 Q 501 726 410 715 L 356 709 Q 274 703 185 695 Q 154 692 175 675 Q 218 647 297 658 Q 331 665 367 671 L 413 678 Q 450 687 574 690 L 623 692 Z" class="stroke1"/>
    <path d="M 410 715 Q 409 737 408 755 Q 409 774 389 781 Q 344 799 325 793 Q 306 783 322 764 Q 344 739 356 709 L 367 671 Q 380 614 395 600 Q 408 590 413 601 Q 419 617 413 678 L 410 715 Z" class="stroke2"/>
    <path d="M 647 745 Q 654 766 672 790 Q 688 805 677 816 Q 665 834 630 853 Q 614 863 595 854 Q 585 848 592 836 Q 602 809 586 736 L 574 690 Q 559 638 558 620 Q 559 605 576 616 Q 594 631 623 692 L 647 745 Z" class="stroke3"/>
    <path d="M 360 548 Q 341 563 319 568 Q 310 569 305 562 Q 302 558 309 548 Q 342 467 316 322 Q 303 304 311 272 Q 320 242 330 231 Q 340 219 349 232 Q 370 262 371 406 Q 371 491 374 518 C 376 537 376 537 360 548 Z" class="stroke4"/>
    <path d="M 610 288 Q 604 267 617 247 Q 630 222 638 222 Q 651 223 665 254 Q 678 278 676 296 Q 649 477 682 531 Q 695 553 673 565 Q 648 584 610 600 Q 594 604 572 597 Q 476 552 360 548 C 330 546 344 513 374 518 Q 476 534 581 551 Q 590 550 596 546 Q 606 527 611 475 Q 618 318 610 288 Z" class="stroke5"/>
    <path d="M 498 294 Q 514 414 528 442 Q 534 452 525 460 Q 509 476 476 493 Q 457 503 439 499 Q 420 492 434 475 Q 459 445 458 417 Q 454 312 438 244 Q 411 111 285 43 Q 251 25 199 4 Q 186 0 183 -3 Q 177 -7 192 -12 Q 267 -18 382 49 Q 403 64 419 82 Q 467 139 493 267 L 498 294 Z" class="stroke6"/>
    <path d="M 902 33 Q 884 84 874 170 Q 873 186 865 190 Q 858 194 854 175 Q 841 67 825 48 Q 794 18 679 16 Q 615 17 588 29 Q 564 42 559 57 Q 552 78 552 132 Q 556 190 568 218 Q 580 246 561 263 Q 512 297 498 294 C 481 299 483 295 493 267 Q 509 233 507 183 Q 504 39 537 9 Q 561 -15 627 -27 Q 682 -36 772 -32 Q 853 -29 884 -13 Q 914 3 902 33 Z" class="stroke7"/>
    
    
    
    
    
    
    </g>
</svg>