<svg version="1.1" viewBox="0 0 1024 1024" xmlns="http://www.w3.org/2000/svg">
  
  <g transform="scale(1, -1) translate(0, -900)">
    <style type="text/css">
        .stroke1 {fill: #808080;}
        .stroke2 {fill: #808079;}
        .stroke3 {fill: #808078;}
        .stroke4 {fill: #808077;}
        .stroke5 {fill: #808076;}
        .stroke6 {fill: #808075;}
        .stroke7 {fill: #808074;}
        .stroke8 {fill: #808073;}
        .stroke9 {fill: #808072;}
        .stroke10 {fill: #808071;}
        .stroke11 {fill: #808070;}
        .stroke12 {fill: #808069;}
        .stroke13 {fill: #808068;}
        .stroke14 {fill: #808067;}
        .stroke15 {fill: #808066;}
        .stroke16 {fill: #808065;}
        .stroke17 {fill: #808064;}
        .stroke18 {fill: #808063;}
        .stroke19 {fill: #808062;}
        .stroke20 {fill: #808061;}
        text {
            font-family: Helvetica;
            font-size: 50px;
            fill: #808060;
            paint-order: stroke;
            stroke: #000000;
            stroke-width: 4px;
            stroke-linecap: butt;
            stroke-linejoin: miter;
            font-weight: 800;
        }
    </style>

    <path d="M 617 675 Q 705 684 782 679 Q 798 678 803 687 Q 807 699 795 714 Q 737 757 643 730 Q 640 730 639 729 L 577 718 Q 495 706 407 693 L 358 686 Q 294 679 227 671 Q 197 667 218 651 Q 263 624 322 636 Q 341 642 365 646 L 409 654 Q 460 667 565 672 L 617 675 Z" class="stroke1"/>
    <path d="M 407 693 Q 406 730 406 761 Q 407 780 388 788 Q 348 810 325 803 Q 306 796 320 775 Q 350 733 358 686 L 365 646 Q 372 585 388 568 Q 401 556 406 569 Q 412 590 409 654 L 407 693 Z" class="stroke2"/>
    <path d="M 639 729 Q 651 756 671 790 Q 687 806 675 818 Q 662 837 624 856 Q 605 866 586 857 Q 576 850 584 838 Q 594 814 590 786 Q 586 756 577 718 L 565 672 Q 544 609 546 585 Q 547 569 565 581 Q 580 594 617 675 L 639 729 Z" class="stroke3"/>
    <path d="M 641 492 Q 729 496 838 495 Q 872 494 903 495 Q 925 494 931 504 Q 937 517 919 532 Q 862 575 820 567 Q 589 525 102 472 Q 80 471 96 451 Q 112 435 131 429 Q 155 423 172 428 Q 361 477 589 490 L 641 492 Z" class="stroke4"/>
    <path d="M 293 370 Q 281 376 253 381 Q 240 385 237 379 Q 230 373 239 357 Q 264 305 278 219 Q 281 194 296 176 Q 314 154 319 169 Q 323 182 323 204 L 319 237 Q 307 318 307 342 C 306 364 306 364 293 370 Z" class="stroke5"/>
    <path d="M 460 260 Q 476 324 497 344 Q 519 369 496 383 Q 433 416 430 416 Q 421 416 413 411 Q 380 390 293 370 C 264 363 278 335 307 342 Q 358 354 392 361 Q 414 365 420 357 Q 426 353 421 325 Q 415 295 409 260 C 404 230 452 231 460 260 Z" class="stroke6"/>
    <path d="M 323 204 Q 333 203 344 206 Q 386 216 477 225 Q 487 226 489 236 Q 489 243 460 260 C 445 269 438 267 409 260 Q 358 247 319 237 C 290 230 293 205 323 204 Z" class="stroke7"/>
    <path d="M 551 26 Q 526 32 493 37 Q 480 38 481 32 Q 482 23 494 15 Q 567 -34 614 -75 Q 627 -84 641 -67 Q 681 -10 674 73 Q 667 341 673 428 Q 680 456 673 467 Q 666 477 641 492 C 616 509 577 517 589 490 Q 590 483 597 473 Q 607 448 608 57 Q 605 38 597 26 Q 584 17 551 26 Z" class="stroke8"/>
    
    
    
    
    
    
    
    </g>
</svg>