<svg version="1.1" viewBox="0 0 1024 1024" xmlns="http://www.w3.org/2000/svg">
  
  <g transform="scale(1, -1) translate(0, -900)">
    <style type="text/css">
        .stroke1 {fill: #808080;}
        .stroke2 {fill: #808079;}
        .stroke3 {fill: #808078;}
        .stroke4 {fill: #808077;}
        .stroke5 {fill: #808076;}
        .stroke6 {fill: #808075;}
        .stroke7 {fill: #808074;}
        .stroke8 {fill: #808073;}
        .stroke9 {fill: #808072;}
        .stroke10 {fill: #808071;}
        .stroke11 {fill: #808070;}
        .stroke12 {fill: #808069;}
        .stroke13 {fill: #808068;}
        .stroke14 {fill: #808067;}
        .stroke15 {fill: #808066;}
        .stroke16 {fill: #808065;}
        .stroke17 {fill: #808064;}
        .stroke18 {fill: #808063;}
        .stroke19 {fill: #808062;}
        .stroke20 {fill: #808061;}
        text {
            font-family: Helvetica;
            font-size: 50px;
            fill: #808060;
            paint-order: stroke;
            stroke: #000000;
            stroke-width: 4px;
            stroke-linecap: butt;
            stroke-linejoin: miter;
            font-weight: 800;
        }
    </style>

    <path d="M 625 662 Q 742 671 836 663 Q 852 662 859 672 Q 863 685 850 701 Q 796 749 692 722 Q 668 719 646 714 L 588 704 Q 509 694 422 682 L 371 676 Q 277 667 173 656 Q 142 653 163 636 Q 209 605 272 616 Q 327 629 380 639 L 425 645 Q 425 646 426 646 Q 496 656 577 659 L 625 662 Z" class="stroke1"/>
    <path d="M 422 682 Q 419 719 418 749 Q 419 770 397 776 Q 358 797 331 788 Q 312 779 329 758 Q 351 731 371 676 L 380 639 Q 389 597 407 576 Q 420 566 426 578 Q 432 596 425 645 L 422 682 Z" class="stroke2"/>
    <path d="M 646 714 Q 662 759 679 785 Q 695 801 683 812 Q 670 830 633 848 Q 615 858 596 848 Q 586 841 594 829 Q 607 799 588 704 L 577 659 Q 561 599 562 584 Q 563 568 580 581 Q 596 594 625 662 L 646 714 Z" class="stroke3"/>
    <path d="M 296 492 Q 268 505 251 505 Q 236 501 242 487 Q 296 378 251 160 Q 244 130 231 109 Q 215 75 241 29 Q 244 25 249 18 Q 256 5 268 10 Q 307 37 310 170 Q 316 401 321 451 C 323 480 323 480 296 492 Z" class="stroke4"/>
    <path d="M 321 451 Q 327 451 336 453 Q 669 528 692 497 Q 702 493 706 445 Q 718 288 710 111 Q 710 84 700 77 Q 687 64 609 68 Q 591 69 594 59 Q 597 52 611 47 Q 681 10 720 -22 Q 742 -41 756 -38 Q 769 -34 779 -3 Q 794 45 789 114 Q 762 432 781 473 Q 796 497 785 511 Q 773 527 724 552 Q 703 564 633 543 Q 465 507 296 492 C 266 489 291 446 321 451 Z" class="stroke5"/>
    <path d="M 430 364 Q 420 371 391 377 Q 381 380 377 376 Q 371 370 378 356 Q 400 307 411 227 Q 412 203 426 187 Q 441 166 446 181 Q 450 191 450 208 L 448 240 Q 438 313 438 338 C 438 360 438 360 430 364 Z" class="stroke6"/>
    <path d="M 600 260 Q 618 320 637 337 Q 659 359 638 374 Q 620 384 595 402 Q 577 414 534 389 Q 495 374 430 364 C 400 359 409 332 438 338 Q 486 347 534 357 Q 559 361 565 352 Q 568 349 552 263 C 547 233 591 231 600 260 Z" class="stroke7"/>
    <path d="M 450 208 Q 456 208 464 209 Q 510 219 613 228 Q 623 229 624 237 Q 624 244 600 260 C 584 271 581 270 552 263 Q 492 248 448 240 C 418 235 420 207 450 208 Z" class="stroke8"/>
    
    
    
    
    
    
    
    </g>
</svg>