<svg version="1.1" viewBox="0 0 1024 1024" xmlns="http://www.w3.org/2000/svg">
  
  <g transform="scale(1, -1) translate(0, -900)">
    <style type="text/css">
        .stroke1 {fill: #808080;}
        .stroke2 {fill: #808079;}
        .stroke3 {fill: #808078;}
        .stroke4 {fill: #808077;}
        .stroke5 {fill: #808076;}
        .stroke6 {fill: #808075;}
        .stroke7 {fill: #808074;}
        .stroke8 {fill: #808073;}
        .stroke9 {fill: #808072;}
        .stroke10 {fill: #808071;}
        .stroke11 {fill: #808070;}
        .stroke12 {fill: #808069;}
        .stroke13 {fill: #808068;}
        .stroke14 {fill: #808067;}
        .stroke15 {fill: #808066;}
        .stroke16 {fill: #808065;}
        .stroke17 {fill: #808064;}
        .stroke18 {fill: #808063;}
        .stroke19 {fill: #808062;}
        .stroke20 {fill: #808061;}
        text {
            font-family: Helvetica;
            font-size: 50px;
            fill: #808060;
            paint-order: stroke;
            stroke: #000000;
            stroke-width: 4px;
            stroke-linecap: butt;
            stroke-linejoin: miter;
            font-weight: 800;
        }
    </style>

    <path d="M 637 626 Q 712 638 841 629 Q 857 628 863 638 Q 867 650 854 665 Q 800 710 702 685 Q 680 684 657 678 L 599 668 Q 515 658 423 644 L 374 637 Q 290 630 200 619 Q 169 616 191 600 Q 233 569 295 581 Q 338 593 382 600 L 427 608 Q 472 617 587 624 L 637 626 Z" class="stroke1"/>
    <path d="M 423 644 Q 419 687 417 721 Q 418 742 397 748 Q 358 769 331 760 Q 312 751 329 730 Q 362 688 374 637 L 382 600 Q 394 540 411 520 Q 424 510 430 522 Q 437 543 432 567 Q 429 589 427 608 L 423 644 Z" class="stroke2"/>
    <path d="M 657 678 Q 664 705 691 753 Q 707 769 695 780 Q 682 798 645 816 Q 627 826 608 816 Q 598 809 606 797 Q 619 764 599 668 L 587 624 Q 565 543 566 528 Q 567 512 584 525 Q 605 543 637 626 L 657 678 Z" class="stroke3"/>
    <path d="M 248 346 Q 252 330 251 269 Q 250 220 240 192 Q 234 158 200 118 Q 188 108 196 86 Q 205 59 218 47 Q 230 38 243 53 Q 289 110 428 227 Q 443 237 444 246 Q 445 252 440 251 Q 430 250 311 177 Q 301 171 298 175 Q 294 176 295 187 Q 298 364 301 383 Q 305 399 294 408 Q 284 418 241 430 Q 225 433 220 428 Q 213 421 224 404 Q 242 379 248 346 Z" class="stroke4"/>
    <path d="M 414 384 Q 447 359 482 326 Q 495 314 510 315 Q 520 316 525 329 Q 529 342 520 371 Q 514 393 480 409 Q 399 436 388 431 Q 384 427 385 415 Q 389 405 414 384 Z" class="stroke5"/>
    <path d="M 651 199 Q 666 227 713 357 Q 720 390 739 417 Q 751 435 735 447 Q 687 490 659 484 Q 644 481 649 464 Q 676 391 610 239 Q 553 121 426 50 Q 408 40 390 29 Q 374 22 388 17 Q 403 14 441 25 Q 496 41 541 74 Q 589 107 636 175 L 651 199 Z" class="stroke6"/>
    <path d="M 636 175 Q 636 174 639 171 Q 712 110 800 19 Q 819 -3 835 -7 Q 845 -8 853 3 Q 866 18 851 65 Q 833 128 651 199 C 623 210 616 197 636 175 Z" class="stroke7"/>
    
    
    
    
    
    
    </g>
</svg>