<svg version="1.1" viewBox="0 0 1024 1024" xmlns="http://www.w3.org/2000/svg">
  
  <g transform="scale(1, -1) translate(0, -900)">
    <style type="text/css">
        .stroke1 {fill: #808080;}
        .stroke2 {fill: #808079;}
        .stroke3 {fill: #808078;}
        .stroke4 {fill: #808077;}
        .stroke5 {fill: #808076;}
        .stroke6 {fill: #808075;}
        .stroke7 {fill: #808074;}
        .stroke8 {fill: #808073;}
        .stroke9 {fill: #808072;}
        .stroke10 {fill: #808071;}
        .stroke11 {fill: #808070;}
        .stroke12 {fill: #808069;}
        .stroke13 {fill: #808068;}
        .stroke14 {fill: #808067;}
        .stroke15 {fill: #808066;}
        .stroke16 {fill: #808065;}
        .stroke17 {fill: #808064;}
        .stroke18 {fill: #808063;}
        .stroke19 {fill: #808062;}
        .stroke20 {fill: #808061;}
        text {
            font-family: Helvetica;
            font-size: 50px;
            fill: #808060;
            paint-order: stroke;
            stroke: #000000;
            stroke-width: 4px;
            stroke-linecap: butt;
            stroke-linejoin: miter;
            font-weight: 800;
        }
    </style>

    <path d="M 631 633 Q 700 645 826 637 Q 842 636 847 645 Q 851 655 839 670 Q 788 712 680 686 Q 664 685 648 680 L 591 670 Q 512 660 423 646 L 377 640 Q 290 633 195 621 Q 167 618 186 603 Q 228 576 310 593 Q 346 602 384 607 L 426 615 Q 432 621 581 630 L 631 633 Z" class="stroke1"/>
    <path d="M 423 646 Q 419 694 416 731 Q 417 750 397 757 Q 355 776 333 769 Q 314 759 330 740 Q 352 713 377 640 L 384 607 Q 397 546 411 532 Q 424 522 429 533 Q 432 542 426 615 L 423 646 Z" class="stroke2"/>
    <path d="M 648 680 Q 652 705 684 765 Q 699 781 688 792 Q 675 810 637 827 Q 618 837 600 827 Q 590 820 598 808 Q 614 771 591 670 L 581 630 Q 557 543 558 524 Q 559 508 576 521 Q 592 536 631 633 L 648 680 Z" class="stroke3"/>
    <path d="M 280 461 Q 301 439 323 414 Q 336 401 352 400 Q 362 400 369 413 Q 375 428 367 458 Q 361 485 278 509 Q 262 513 256 511 Q 250 507 252 494 Q 255 484 280 461 Z" class="stroke4"/>
    <path d="M 192 349 Q 231 297 259 284 Q 274 280 283 293 Q 290 305 288 321 Q 284 345 267 358 Q 216 395 185 389 Q 182 389 182 388 Q 175 387 177 375 Q 178 363 192 349 Z" class="stroke5"/>
    <path d="M 193 87 Q 180 84 181 68 Q 193 -8 221 -26 Q 227 -33 237 -31 Q 244 -30 248 -6 Q 255 36 359 253 Q 366 268 366 274 Q 366 284 357 278 Q 342 271 231 120 Q 218 104 193 87 Z" class="stroke6"/>
    <path d="M 515 404 Q 593 426 648 432 Q 661 433 663 430 Q 669 423 668 401 Q 667 343 654 315 Q 635 284 608 290 Q 583 297 559 308 Q 535 318 551 292 Q 594 247 614 212 Q 626 196 641 207 Q 690 237 720 351 Q 735 411 749 427 Q 762 440 755 450 Q 748 460 697 484 Q 678 493 659 480 Q 614 456 504 442 C 474 438 486 396 515 404 Z" class="stroke7"/>
    <path d="M 921 68 Q 900 114 884 197 Q 881 213 874 218 Q 864 222 862 202 Q 852 100 837 81 Q 801 44 659 42 Q 580 43 547 57 Q 517 73 511 92 Q 495 129 492 230 Q 492 339 515 404 C 523 430 523 430 504 442 Q 449 479 434 475 Q 418 468 426 451 Q 448 412 445 354 Q 445 96 478 50 Q 500 8 598 -5 Q 665 -15 770 -9 Q 866 -5 903 16 Q 936 35 921 68 Z" class="stroke8"/>
    
    
    
    
    
    
    
    </g>
</svg>