<svg version="1.1" viewBox="0 0 1024 1024" xmlns="http://www.w3.org/2000/svg">
  
  <g transform="scale(1, -1) translate(0, -900)">
    <style type="text/css">
        .stroke1 {fill: #808080;}
        .stroke2 {fill: #808079;}
        .stroke3 {fill: #808078;}
        .stroke4 {fill: #808077;}
        .stroke5 {fill: #808076;}
        .stroke6 {fill: #808075;}
        .stroke7 {fill: #808074;}
        .stroke8 {fill: #808073;}
        .stroke9 {fill: #808072;}
        .stroke10 {fill: #808071;}
        .stroke11 {fill: #808070;}
        .stroke12 {fill: #808069;}
        .stroke13 {fill: #808068;}
        .stroke14 {fill: #808067;}
        .stroke15 {fill: #808066;}
        .stroke16 {fill: #808065;}
        .stroke17 {fill: #808064;}
        .stroke18 {fill: #808063;}
        .stroke19 {fill: #808062;}
        .stroke20 {fill: #808061;}
        text {
            font-family: Helvetica;
            font-size: 50px;
            fill: #808060;
            paint-order: stroke;
            stroke: #000000;
            stroke-width: 4px;
            stroke-linecap: butt;
            stroke-linejoin: miter;
            font-weight: 800;
        }
    </style>

    <path d="M 647 629 Q 722 638 833 631 Q 849 630 855 639 Q 859 651 846 666 Q 798 709 709 687 Q 687 684 665 679 L 607 670 Q 522 658 428 646 L 383 640 Q 296 633 204 622 Q 173 619 195 603 Q 243 575 295 585 Q 341 597 390 605 L 431 612 Q 452 619 596 627 L 647 629 Z" class="stroke1"/>
    <path d="M 428 646 Q 424 694 422 732 Q 423 751 404 757 Q 365 778 343 770 Q 324 761 339 742 Q 372 697 383 640 L 390 605 Q 394 580 397 554 Q 403 535 416 520 Q 429 510 433 521 Q 436 530 431 612 L 428 646 Z" class="stroke2"/>
    <path d="M 665 679 Q 666 682 667 684 Q 677 715 700 757 Q 715 773 703 784 Q 690 802 653 819 Q 634 829 616 819 Q 606 812 614 801 Q 629 765 607 670 L 596 627 Q 568 536 570 512 Q 571 496 588 509 Q 603 522 647 629 L 665 679 Z" class="stroke3"/>
    <path d="M 353 330 Q 386 339 416 343 Q 437 346 441 339 Q 451 321 441 278 Q 419 155 386 104 Q 367 73 340 79 Q 309 89 283 101 Q 259 108 275 86 Q 324 41 346 7 Q 367 -17 387 2 Q 420 23 443 64 Q 471 110 495 259 Q 502 311 522 336 Q 535 349 529 359 Q 520 371 469 394 Q 448 404 429 390 Q 413 381 365 367 L 306 352 Q 221 331 150 326 Q 132 325 129 316 Q 128 307 152 296 Q 177 280 197 288 Q 248 304 295 316 L 353 330 Z" class="stroke4"/>
    <path d="M 295 316 Q 237 162 115 31 Q 109 27 106 21 Q 102 11 112 11 Q 139 11 219 91 Q 235 110 252 132 Q 309 213 353 330 L 365 367 Q 366 371 368 375 Q 390 444 396 453 Q 406 465 402 478 Q 390 496 365 514 Q 349 527 337 525 Q 325 521 328 507 Q 340 488 329 440 Q 311 368 306 352 L 295 316 Z" class="stroke5"/>
    <path d="M 597 327 Q 585 333 561 338 Q 548 342 545 336 Q 538 330 546 314 Q 576 239 588 121 Q 589 85 608 60 Q 624 38 631 53 Q 637 68 637 90 L 634 126 Q 634 129 634 131 Q 618 258 614 295 C 611 321 611 321 597 327 Z" class="stroke6"/>
    <path d="M 816 148 Q 840 266 881 302 Q 897 321 882 339 Q 864 352 811 376 Q 796 382 718 354 Q 637 335 597 327 C 568 321 585 288 614 295 Q 621 298 759 325 Q 775 329 782 322 Q 795 310 793 285 Q 783 212 767 153 C 759 124 810 119 816 148 Z" class="stroke7"/>
    <path d="M 637 90 Q 647 89 658 91 Q 713 103 831 111 Q 843 112 844 122 Q 844 131 816 148 L 767 153 Q 764 154 762 153 Q 689 135 634 126 C 604 121 607 91 637 90 Z" class="stroke8"/>
    
    
    
    
    
    
    
    </g>
</svg>