<svg version="1.1" viewBox="0 0 1024 1024" xmlns="http://www.w3.org/2000/svg">
  
  <g transform="scale(1, -1) translate(0, -900)">
    <style type="text/css">
        .stroke1 {fill: #808080;}
        .stroke2 {fill: #808079;}
        .stroke3 {fill: #808078;}
        .stroke4 {fill: #808077;}
        .stroke5 {fill: #808076;}
        .stroke6 {fill: #808075;}
        .stroke7 {fill: #808074;}
        .stroke8 {fill: #808073;}
        .stroke9 {fill: #808072;}
        .stroke10 {fill: #808071;}
        .stroke11 {fill: #808070;}
        .stroke12 {fill: #808069;}
        .stroke13 {fill: #808068;}
        .stroke14 {fill: #808067;}
        .stroke15 {fill: #808066;}
        .stroke16 {fill: #808065;}
        .stroke17 {fill: #808064;}
        .stroke18 {fill: #808063;}
        .stroke19 {fill: #808062;}
        .stroke20 {fill: #808061;}
        text {
            font-family: Helvetica;
            font-size: 50px;
            fill: #808060;
            paint-order: stroke;
            stroke: #000000;
            stroke-width: 4px;
            stroke-linecap: butt;
            stroke-linejoin: miter;
            font-weight: 800;
        }
    </style>

    <path d="M 434 661 Q 427 710 424 747 Q 424 768 402 773 Q 357 791 336 782 Q 317 772 334 752 Q 364 721 386 654 L 395 619 Q 407 562 426 544 Q 441 534 445 546 Q 451 568 445 592 Q 441 613 439 631 L 434 661 Z" class="stroke1"/>
    <path d="M 439 631 Q 496 649 504 652 Q 510 656 508 663 Q 507 669 494 672 Q 467 668 434 661 L 386 654 Q 322 644 237 629 Q 192 630 169 627 Q 157 628 156 624 Q 155 617 161 607 Q 174 592 201 581 Q 219 572 235 578 Q 311 597 395 619 L 439 631 Z" class="stroke2"/>
    <path d="M 663 688 Q 678 730 709 778 Q 725 794 714 805 Q 701 824 664 845 Q 646 857 626 847 Q 616 841 623 828 Q 636 789 605 683 L 597 658 Q 584 618 565 569 Q 556 544 557 527 Q 558 512 574 521 Q 595 536 610 571 Q 626 607 645 646 L 663 688 Z" class="stroke3"/>
    <path d="M 645 646 Q 658 645 673 647 Q 787 665 871 649 Q 884 648 890 656 Q 894 666 883 679 Q 838 719 773 703 Q 724 696 663 688 L 605 683 Q 599 684 594 683 Q 567 682 585 666 L 597 658 L 645 646 Z" class="stroke4"/>
    <path d="M 362 282 Q 307 286 264 287 Q 234 288 251 306 Q 311 382 366 438 Q 382 453 380 461 Q 379 474 345 508 Q 332 523 313 521 Q 301 520 306 503 Q 316 464 237 349 Q 221 324 188 300 Q 169 288 170 276 Q 171 258 184 240 Q 194 228 206 234 Q 257 258 345 259 C 375 260 392 280 362 282 Z" class="stroke5"/>
    <path d="M 400 129 Q 339 116 267 91 Q 248 84 260 100 Q 312 167 435 305 Q 466 342 492 363 Q 505 372 499 383 Q 489 402 456 424 Q 440 434 431 432 Q 421 429 422 413 Q 422 374 362 282 L 345 259 Q 212 90 181 75 Q 168 65 170 51 Q 171 38 197 18 Q 207 5 223 18 Q 292 69 410 110 C 438 120 429 136 400 129 Z" class="stroke6"/>
    <path d="M 410 110 Q 423 77 440 71 Q 449 68 457 77 Q 466 87 467 115 Q 468 133 447 155 Q 396 198 380 199 Q 376 198 373 186 Q 372 180 400 129 L 410 110 Z" class="stroke7"/>
    <path d="M 681 287 Q 633 291 593 296 Q 556 299 577 320 Q 635 402 689 462 Q 704 478 701 486 Q 700 499 664 531 Q 649 544 631 542 Q 621 541 626 525 Q 639 488 563 364 Q 547 337 514 311 Q 496 299 497 288 Q 498 269 511 251 Q 520 241 533 246 Q 546 252 664 265 C 694 268 711 284 681 287 Z" class="stroke8"/>
    <path d="M 767 137 Q 698 131 619 115 Q 579 103 606 134 Q 652 195 762 316 Q 793 355 821 377 Q 834 387 829 398 Q 819 419 784 440 Q 766 450 757 448 Q 745 445 747 429 Q 750 384 681 287 L 664 265 Q 547 121 521 109 Q 505 100 508 85 Q 508 70 535 47 Q 545 34 563 46 Q 644 88 780 116 C 809 122 797 140 767 137 Z" class="stroke9"/>
    <path d="M 780 116 Q 804 76 830 31 Q 837 15 853 10 Q 863 7 873 17 Q 883 30 884 61 Q 888 97 849 142 Q 807 181 757 219 Q 744 226 737 227 Q 730 226 728 212 Q 728 206 767 137 L 780 116 Z" class="stroke10"/>
    
    
    
    
    
    
    
    
    
    </g>
</svg>