<svg version="1.1" viewBox="0 0 1024 1024" xmlns="http://www.w3.org/2000/svg">
  
  <g transform="scale(1, -1) translate(0, -900)">
    <style type="text/css">
        .stroke1 {fill: #808080;}
        .stroke2 {fill: #808079;}
        .stroke3 {fill: #808078;}
        .stroke4 {fill: #808077;}
        .stroke5 {fill: #808076;}
        .stroke6 {fill: #808075;}
        .stroke7 {fill: #808074;}
        .stroke8 {fill: #808073;}
        .stroke9 {fill: #808072;}
        .stroke10 {fill: #808071;}
        .stroke11 {fill: #808070;}
        .stroke12 {fill: #808069;}
        .stroke13 {fill: #808068;}
        .stroke14 {fill: #808067;}
        .stroke15 {fill: #808066;}
        .stroke16 {fill: #808065;}
        .stroke17 {fill: #808064;}
        .stroke18 {fill: #808063;}
        .stroke19 {fill: #808062;}
        .stroke20 {fill: #808061;}
        text {
            font-family: Helvetica;
            font-size: 50px;
            fill: #808060;
            paint-order: stroke;
            stroke: #000000;
            stroke-width: 4px;
            stroke-linecap: butt;
            stroke-linejoin: miter;
            font-weight: 800;
        }
    </style>

    <path d="M 699 653 Q 747 663 844 658 Q 859 657 864 666 Q 868 676 855 690 Q 815 727 723 706 Q 720 706 720 705 L 663 693 Q 590 681 505 667 L 461 661 Q 415 657 365 649 Q 338 645 357 631 Q 396 607 452 618 Q 458 621 467 621 L 507 630 Q 555 645 652 650 L 699 653 Z" class="stroke1"/>
    <path d="M 505 667 Q 504 706 503 736 Q 506 755 487 761 Q 448 782 428 775 Q 410 768 424 749 Q 452 710 460 667 Q 460 664 461 661 L 467 621 Q 470 579 488 560 Q 501 548 505 560 Q 511 579 507 630 L 505 667 Z" class="stroke2"/>
    <path d="M 720 705 Q 720 720 750 768 Q 763 784 753 794 Q 741 810 706 828 Q 690 837 672 828 Q 662 822 670 811 Q 683 781 663 693 L 652 650 Q 633 583 634 567 Q 635 554 651 564 Q 660 573 699 653 L 720 705 Z" class="stroke3"/>
    <path d="M 601 516 Q 605 520 605 529 Q 602 556 563 574 Q 542 583 531 582 Q 522 581 523 568 Q 526 475 368 326 Q 365 325 362 321 Q 316 278 202 199 Q 193 195 204 191 Q 303 206 433 327 Q 436 331 441 334 Q 495 386 579 494 Q 580 497 583 499 L 601 516 Z" class="stroke4"/>
    <path d="M 583 499 Q 677 391 780 293 Q 802 269 842 269 Q 914 265 988 280 Q 1007 283 1009 288 Q 1010 295 996 300 Q 945 319 886 338 Q 772 375 601 516 C 578 535 563 522 583 499 Z" class="stroke5"/>
    <path d="M 469 320 Q 433 314 459 298 Q 495 277 567 291 Q 612 300 659 308 Q 683 312 687 317 Q 696 324 691 333 Q 684 343 656 351 Q 626 357 598 345 Q 570 336 540 329 Q 507 323 469 320 Z" class="stroke6"/>
    <path d="M 432 204 Q 422 208 411 209 Q 398 212 395 206 Q 388 200 397 183 Q 428 122 446 22 Q 449 -8 467 -28 Q 486 -50 491 -34 Q 498 -16 494 16 L 487 55 Q 471 152 469 174 C 467 192 460 195 432 204 Z" class="stroke7"/>
    <path d="M 718 87 Q 743 156 774 176 Q 792 194 778 212 Q 709 269 657 247 Q 552 216 432 204 C 402 201 440 168 469 174 Q 476 175 487 178 Q 572 191 652 205 Q 673 209 681 200 Q 690 191 687 174 Q 677 126 665 87 C 656 58 707 59 718 87 Z" class="stroke8"/>
    <path d="M 494 16 Q 504 16 513 17 Q 586 32 741 42 Q 754 43 755 53 Q 756 62 722 85 Q 721 86 718 87 L 665 87 Q 566 65 487 55 C 457 51 464 15 494 16 Z" class="stroke9"/>
    
    
    
    
    
    
    
    
    </g>
</svg>