<svg version="1.1" viewBox="0 0 1024 1024" xmlns="http://www.w3.org/2000/svg">
  
  <g transform="scale(1, -1) translate(0, -900)">
    <style type="text/css">
        .stroke1 {fill: #808080;}
        .stroke2 {fill: #808079;}
        .stroke3 {fill: #808078;}
        .stroke4 {fill: #808077;}
        .stroke5 {fill: #808076;}
        .stroke6 {fill: #808075;}
        .stroke7 {fill: #808074;}
        .stroke8 {fill: #808073;}
        .stroke9 {fill: #808072;}
        .stroke10 {fill: #808071;}
        .stroke11 {fill: #808070;}
        .stroke12 {fill: #808069;}
        .stroke13 {fill: #808068;}
        .stroke14 {fill: #808067;}
        .stroke15 {fill: #808066;}
        .stroke16 {fill: #808065;}
        .stroke17 {fill: #808064;}
        .stroke18 {fill: #808063;}
        .stroke19 {fill: #808062;}
        .stroke20 {fill: #808061;}
        text {
            font-family: Helvetica;
            font-size: 50px;
            fill: #808060;
            paint-order: stroke;
            stroke: #000000;
            stroke-width: 4px;
            stroke-linecap: butt;
            stroke-linejoin: miter;
            font-weight: 800;
        }
    </style>

    <path d="M 640 691 Q 742 700 842 693 Q 858 692 863 701 Q 867 711 855 726 Q 809 768 713 745 Q 686 742 658 736 L 605 727 Q 524 717 435 705 L 390 700 Q 300 691 203 681 Q 175 678 194 663 Q 236 636 304 649 Q 350 659 397 668 L 438 674 Q 513 684 595 689 L 640 691 Z" class="stroke1"/>
    <path d="M 435 705 Q 431 744 429 774 Q 430 793 411 798 Q 372 816 352 809 Q 336 802 350 782 Q 380 745 390 700 L 397 668 Q 409 607 424 591 Q 437 581 441 592 Q 442 601 438 674 L 435 705 Z" class="stroke2"/>
    <path d="M 658 736 Q 661 749 689 802 Q 702 817 693 827 Q 680 843 647 859 Q 631 869 614 860 Q 604 854 612 843 Q 624 815 605 727 L 595 689 Q 577 629 578 611 Q 579 598 595 608 Q 610 621 640 691 L 658 736 Z" class="stroke3"/>
    <path d="M 261 535 Q 283 516 307 493 Q 322 480 337 482 Q 347 483 353 496 Q 357 512 347 541 Q 334 571 254 583 Q 238 586 232 583 Q 228 579 229 566 Q 233 556 261 535 Z" class="stroke4"/>
    <path d="M 176 396 Q 230 348 262 337 Q 275 336 283 348 Q 287 361 284 376 Q 272 412 184 433 Q 169 436 161 432 Q 155 431 158 419 Q 161 409 176 396 Z" class="stroke5"/>
    <path d="M 175 115 Q 163 114 164 96 Q 177 24 204 7 Q 210 0 220 2 Q 227 3 229 27 Q 238 70 332 278 Q 339 293 338 298 Q 338 308 329 302 Q 320 298 211 148 Q 199 132 175 115 Z" class="stroke6"/>
    <path d="M 559 563 Q 580 530 581 367 Q 580 321 574 300 Q 573 290 589 250 Q 599 235 613 243 Q 626 255 623 332 Q 623 476 649 529 Q 655 538 644 551 Q 592 590 566 581 Q 553 577 559 563 Z" class="stroke7"/>
    <path d="M 449 432 Q 425 374 392 321 Q 374 291 390 260 Q 397 244 416 255 Q 467 295 472 379 Q 476 409 471 431 Q 467 440 461 440 Q 454 439 449 432 Z" class="stroke8"/>
    <path d="M 741 460 Q 795 424 860 371 Q 879 353 894 352 Q 903 352 909 363 Q 919 378 900 418 Q 882 464 737 490 Q 727 494 728 482 Q 729 469 741 460 Z" class="stroke9"/>
    <path d="M 696 362 Q 686 224 517 99 Q 513 98 511 95 Q 465 58 355 2 Q 346 -4 352 -9 Q 359 -13 371 -10 Q 572 32 705 224 Q 735 272 767 308 Q 777 315 773 327 Q 769 339 741 362 Q 722 378 712 378 Q 699 377 696 362 Z" class="stroke10"/>
    
    
    
    
    
    
    
    
    
    </g>
</svg>