<svg version="1.1" viewBox="0 0 1024 1024" xmlns="http://www.w3.org/2000/svg">
  
  <g transform="scale(1, -1) translate(0, -900)">
    <style type="text/css">
        .stroke1 {fill: #808080;}
        .stroke2 {fill: #808079;}
        .stroke3 {fill: #808078;}
        .stroke4 {fill: #808077;}
        .stroke5 {fill: #808076;}
        .stroke6 {fill: #808075;}
        .stroke7 {fill: #808074;}
        .stroke8 {fill: #808073;}
        .stroke9 {fill: #808072;}
        .stroke10 {fill: #808071;}
        .stroke11 {fill: #808070;}
        .stroke12 {fill: #808069;}
        .stroke13 {fill: #808068;}
        .stroke14 {fill: #808067;}
        .stroke15 {fill: #808066;}
        .stroke16 {fill: #808065;}
        .stroke17 {fill: #808064;}
        .stroke18 {fill: #808063;}
        .stroke19 {fill: #808062;}
        .stroke20 {fill: #808061;}
        text {
            font-family: Helvetica;
            font-size: 50px;
            fill: #808060;
            paint-order: stroke;
            stroke: #000000;
            stroke-width: 4px;
            stroke-linecap: butt;
            stroke-linejoin: miter;
            font-weight: 800;
        }
    </style>

    <path d="M 420 722 Q 419 753 418 779 Q 419 798 400 805 Q 361 826 339 818 Q 320 811 335 790 Q 362 757 372 714 L 380 680 Q 390 629 404 616 Q 417 606 421 617 Q 427 635 422 691 L 420 722 Z" class="stroke1"/>
    <path d="M 422 691 Q 438 697 460 701 Q 475 702 491 712 Q 498 716 496 723 Q 495 729 482 732 Q 454 728 420 722 L 372 714 Q 308 705 229 692 Q 184 693 161 691 Q 151 692 149 688 Q 146 681 153 671 Q 166 656 193 645 Q 209 636 227 641 Q 302 660 380 680 L 422 691 Z" class="stroke2"/>
    <path d="M 629 749 Q 653 812 660 827 Q 673 843 662 852 Q 649 868 615 882 Q 599 889 582 881 Q 573 874 581 864 Q 594 836 579 742 L 575 720 Q 560 642 561 633 Q 564 621 577 629 Q 589 641 615 709 L 629 749 Z" class="stroke3"/>
    <path d="M 615 709 Q 630 709 649 712 Q 751 733 841 722 Q 854 721 859 729 Q 863 739 852 751 Q 813 782 735 768 Q 687 759 629 749 L 579 742 Q 575 743 572 742 Q 547 739 565 726 Q 569 723 575 720 L 615 709 Z" class="stroke4"/>
    <path d="M 349 565 Q 337 577 315 585 Q 306 589 296 585 Q 289 581 294 569 Q 295 562 299 556 Q 320 514 309 359 Q 294 272 310 248 Q 316 238 323 229 Q 333 216 342 228 Q 348 237 351 246 L 354 274 Q 354 284 355 345 L 355 371 Q 355 413 356 443 L 356 466 Q 357 523 359 528 Q 359 532 359 534 C 361 555 361 555 349 565 Z" class="stroke5"/>
    <path d="M 600 265 Q 601 253 610 240 Q 623 209 634 210 Q 649 211 666 246 Q 682 273 681 295 Q 660 494 696 544 Q 708 560 699 572 Q 671 597 620 619 Q 604 625 580 616 Q 505 583 349 565 C 319 561 329 529 359 534 Q 363 534 370 535 Q 481 562 561 575 Q 589 581 599 566 Q 612 548 611 489 Q 612 336 605 295 L 600 265 Z" class="stroke6"/>
    <path d="M 356 443 Q 363 442 376 444 Q 475 463 548 474 Q 569 478 561 489 Q 551 502 529 506 Q 508 509 471 498 Q 408 480 356 466 C 327 458 326 444 356 443 Z" class="stroke7"/>
    <path d="M 355 345 Q 361 345 370 346 Q 476 364 555 375 Q 576 378 569 389 Q 559 402 537 407 Q 519 410 355 371 C 326 364 325 344 355 345 Z" class="stroke8"/>
    <path d="M 533 260 Q 567 264 600 265 C 630 266 632 282 605 295 Q 598 299 588 302 Q 567 306 354 274 C 324 270 321 246 351 246 Q 358 246 368 246 L 404 248 Q 450 254 494 257 L 533 260 Z" class="stroke9"/>
    <path d="M 368 246 Q 368 144 251 57 Q 248 56 247 54 Q 216 27 143 -14 Q 134 -20 140 -25 Q 164 -38 256 7 Q 335 43 411 154 Q 424 172 439 188 Q 449 195 445 207 Q 441 219 413 242 Q 409 246 404 248 C 379 265 369 272 368 246 Z" class="stroke10"/>
    <path d="M 494 257 Q 494 253 497 245 Q 510 208 508 173 Q 502 56 512 24 Q 519 -4 545 -29 Q 641 -101 837 -68 Q 852 -64 868 -60 Q 916 -45 962 -11 Q 983 5 968 33 Q 953 61 933 149 Q 933 165 925 170 Q 918 173 914 155 Q 889 61 871 31 Q 855 12 806 -2 Q 692 -32 603 4 Q 566 20 557 43 Q 539 76 560 220 Q 566 245 533 260 C 508 277 486 286 494 257 Z" class="stroke11"/>
    
    
    
    
    
    
    
    
    
    
    </g>
</svg>