<svg version="1.1" viewBox="0 0 1024 1024" xmlns="http://www.w3.org/2000/svg">
  
  <g transform="scale(1, -1) translate(0, -900)">
    <style type="text/css">
        .stroke1 {fill: #808080;}
        .stroke2 {fill: #808079;}
        .stroke3 {fill: #808078;}
        .stroke4 {fill: #808077;}
        .stroke5 {fill: #808076;}
        .stroke6 {fill: #808075;}
        .stroke7 {fill: #808074;}
        .stroke8 {fill: #808073;}
        .stroke9 {fill: #808072;}
        .stroke10 {fill: #808071;}
        .stroke11 {fill: #808070;}
        .stroke12 {fill: #808069;}
        .stroke13 {fill: #808068;}
        .stroke14 {fill: #808067;}
        .stroke15 {fill: #808066;}
        .stroke16 {fill: #808065;}
        .stroke17 {fill: #808064;}
        .stroke18 {fill: #808063;}
        .stroke19 {fill: #808062;}
        .stroke20 {fill: #808061;}
        text {
            font-family: Helvetica;
            font-size: 50px;
            fill: #808060;
            paint-order: stroke;
            stroke: #000000;
            stroke-width: 4px;
            stroke-linecap: butt;
            stroke-linejoin: miter;
            font-weight: 800;
        }
    </style>

    <path d="M 635 689 Q 680 698 804 689 Q 820 688 827 698 Q 831 710 818 725 Q 761 774 662 745 Q 658 745 654 743 L 596 735 Q 511 723 413 710 L 366 704 Q 285 697 197 687 Q 166 684 187 667 Q 229 640 308 652 Q 341 659 374 665 L 415 672 Q 439 681 587 687 L 635 689 Z" class="stroke1"/>
    <path d="M 413 710 Q 412 741 412 765 Q 413 784 395 790 Q 353 809 336 803 Q 318 796 332 776 Q 357 743 366 704 L 374 665 Q 383 616 396 600 Q 409 588 413 600 Q 419 618 415 672 L 413 710 Z" class="stroke2"/>
    <path d="M 654 743 Q 661 764 675 789 Q 688 805 678 814 Q 665 830 630 847 Q 614 856 596 846 Q 586 839 595 829 Q 607 802 596 735 L 587 687 Q 569 609 570 595 Q 571 582 587 593 Q 602 608 635 689 L 654 743 Z" class="stroke3"/>
    <path d="M 358 414 Q 472 441 474 442 Q 483 449 479 457 Q 472 467 446 475 Q 422 479 360 461 L 315 449 Q 176 425 149 422 Q 115 418 139 401 Q 176 377 228 389 Q 265 396 305 404 L 358 414 Z" class="stroke4"/>
    <path d="M 356 357 Q 356 385 358 414 L 360 461 Q 363 509 373 544 Q 380 557 378 568 Q 372 577 326 606 Q 307 619 289 607 Q 285 603 290 590 Q 312 554 314 519 Q 314 486 315 449 L 312 312 Q 309 162 304 134 Q 286 41 300 9 Q 301 5 305 -1 Q 309 -16 317 -19 Q 321 -25 328 -18 Q 350 -3 352 51 Q 351 82 356 323 L 356 357 Z" class="stroke5"/>
    <path d="M 305 404 Q 256 283 106 93 Q 102 83 112 82 Q 118 81 127 90 Q 238 180 312 312 C 377 426 317 432 305 404 Z" class="stroke6"/>
    <path d="M 356 323 Q 441 238 452 235 Q 461 235 465 245 Q 469 255 466 279 Q 459 316 361 356 Q 360 357 356 357 C 327 363 335 344 356 323 Z" class="stroke7"/>
    <path d="M 588 474 Q 664 492 712 514 Q 755 533 795 542 Q 811 543 815 552 Q 819 562 806 573 Q 746 612 712 609 Q 705 605 704 594 Q 704 564 583 494 C 557 479 559 467 588 474 Z" class="stroke8"/>
    <path d="M 578 365 Q 579 381 580 398 Q 583 470 588 474 C 591 487 591 487 583 494 Q 570 507 541 518 Q 523 527 513 521 Q 503 514 509 503 Q 552 430 514 233 Q 478 125 473 114 Q 472 111 470 107 Q 458 79 444 52 Q 440 46 439 40 Q 438 30 446 33 Q 459 36 485 74 Q 557 162 576 332 L 578 365 Z" class="stroke9"/>
    <path d="M 717 354 Q 789 370 873 371 Q 891 372 894 381 Q 898 391 882 403 Q 828 436 771 414 Q 647 381 578 365 C 549 358 546 335 576 332 Q 594 329 635 336 Q 653 343 677 347 L 717 354 Z" class="stroke10"/>
    <path d="M 704 -14 Q 708 -36 715 -45 Q 719 -52 727 -50 Q 739 -41 746 12 Q 746 220 761 311 Q 764 327 751 336 Q 730 349 717 354 C 690 366 666 375 677 347 Q 676 343 680 338 Q 695 308 695 295 Q 699 216 699 90 Q 700 12 704 -14 Z" class="stroke11"/>
    
    
    
    
    
    
    
    
    
    
    </g>
</svg>