<svg version="1.1" viewBox="0 0 1024 1024" xmlns="http://www.w3.org/2000/svg">
  
  <g transform="scale(1, -1) translate(0, -900)">
    <style type="text/css">
        .stroke1 {fill: #808080;}
        .stroke2 {fill: #808079;}
        .stroke3 {fill: #808078;}
        .stroke4 {fill: #808077;}
        .stroke5 {fill: #808076;}
        .stroke6 {fill: #808075;}
        .stroke7 {fill: #808074;}
        .stroke8 {fill: #808073;}
        .stroke9 {fill: #808072;}
        .stroke10 {fill: #808071;}
        .stroke11 {fill: #808070;}
        .stroke12 {fill: #808069;}
        .stroke13 {fill: #808068;}
        .stroke14 {fill: #808067;}
        .stroke15 {fill: #808066;}
        .stroke16 {fill: #808065;}
        .stroke17 {fill: #808064;}
        .stroke18 {fill: #808063;}
        .stroke19 {fill: #808062;}
        .stroke20 {fill: #808061;}
        text {
            font-family: Helvetica;
            font-size: 50px;
            fill: #808060;
            paint-order: stroke;
            stroke: #000000;
            stroke-width: 4px;
            stroke-linecap: butt;
            stroke-linejoin: miter;
            font-weight: 800;
        }
    </style>

    <path d="M 651 706 Q 726 716 841 707 Q 857 706 862 715 Q 868 727 854 742 Q 806 785 717 763 Q 693 760 671 756 L 614 747 Q 520 734 418 721 L 371 715 Q 283 708 188 698 Q 158 695 179 679 Q 228 651 306 667 Q 342 676 379 682 L 422 688 Q 455 700 603 704 L 651 706 Z" class="stroke1"/>
    <path d="M 418 721 Q 414 761 411 793 Q 412 812 392 818 Q 353 836 331 828 Q 313 819 329 800 Q 359 764 371 715 L 379 682 Q 392 622 407 607 Q 420 597 425 609 Q 428 619 422 688 L 418 721 Z" class="stroke2"/>
    <path d="M 671 756 Q 680 778 697 808 Q 712 824 701 834 Q 689 850 654 868 Q 638 877 620 868 Q 610 862 618 851 Q 630 821 614 747 L 603 704 Q 584 643 586 623 Q 587 610 603 620 Q 615 630 651 706 L 671 756 Z" class="stroke3"/>
    <path d="M 200 512 Q 184 524 166 530 Q 160 533 155 529 Q 148 525 155 513 Q 189 446 181 293 Q 178 232 211 207 L 212 206 Q 227 200 231 228 Q 231 232 231 238 L 230 267 Q 229 283 225 357 L 224 383 Q 223 435 226 476 Q 226 480 226 482 C 226 494 225 495 200 512 Z" class="stroke4"/>
    <path d="M 325 250 Q 335 229 357 193 Q 366 178 374 181 Q 387 184 394 206 Q 416 261 415 335 Q 418 381 419 434 Q 420 474 438 499 Q 451 517 441 527 Q 422 543 382 559 Q 366 566 290 535 Q 227 517 200 512 C 171 506 197 473 226 482 Q 225 483 227 483 Q 347 516 356 510 Q 381 470 360 292 Q 360 276 353 273 L 352 273 C 338 247 318 264 325 250 Z" class="stroke5"/>
    <path d="M 225 357 L 337 376 Q 359 382 349 393 Q 339 406 314 409 Q 275 412 224 383 C 198 368 195 352 225 357 Z" class="stroke6"/>
    <path d="M 231 238 Q 238 237 249 239 Q 274 246 325 250 C 355 252 376 254 352 273 Q 345 279 333 285 Q 320 292 293 284 Q 259 274 230 267 C 201 260 201 240 231 238 Z" class="stroke7"/>
    <path d="M 560 278 Q 560 281 561 283 Q 568 329 574 386 L 576 415 Q 579 499 587 537 C 590 556 590 556 569 566 Q 527 588 513 585 Q 494 582 509 561 Q 542 501 514 279 Q 502 219 473 152 Q 443 83 351 -2 Q 338 -15 335 -20 Q 332 -27 344 -27 Q 386 -27 456 50 Q 528 128 555 250 L 560 278 Z" class="stroke8"/>
    <path d="M 587 537 Q 600 537 709 564 Q 730 570 735 559 Q 750 523 754 273 Q 755 72 742 44 Q 736 40 668 51 Q 647 57 648 47 Q 703 -1 734 -37 Q 747 -56 764 -62 Q 774 -66 783 -55 Q 825 3 823 54 Q 789 495 816 547 Q 829 568 816 579 Q 794 598 754 613 Q 735 620 684 595 Q 645 579 569 566 C 539 561 557 532 587 537 Z" class="stroke9"/>
    <path d="M 574 386 Q 646 386 715 409 L 716 409 Q 723 416 719 423 Q 712 432 689 437 Q 682 438 576 415 C 547 409 544 386 574 386 Z" class="stroke10"/>
    <path d="M 555 250 Q 576 241 693 262 Q 697 263 703 264 Q 721 268 723 270 Q 732 277 727 285 Q 720 295 694 302 Q 679 305 601 286 Q 580 283 560 278 C 531 271 526 258 555 250 Z" class="stroke11"/>
    
    
    
    
    
    
    
    
    
    
    </g>
</svg>