<svg version="1.1" viewBox="0 0 1024 1024" xmlns="http://www.w3.org/2000/svg">
  
  <g transform="scale(1, -1) translate(0, -900)">
    <style type="text/css">
        .stroke1 {fill: #808080;}
        .stroke2 {fill: #808079;}
        .stroke3 {fill: #808078;}
        .stroke4 {fill: #808077;}
        .stroke5 {fill: #808076;}
        .stroke6 {fill: #808075;}
        .stroke7 {fill: #808074;}
        .stroke8 {fill: #808073;}
        .stroke9 {fill: #808072;}
        .stroke10 {fill: #808071;}
        .stroke11 {fill: #808070;}
        .stroke12 {fill: #808069;}
        .stroke13 {fill: #808068;}
        .stroke14 {fill: #808067;}
        .stroke15 {fill: #808066;}
        .stroke16 {fill: #808065;}
        .stroke17 {fill: #808064;}
        .stroke18 {fill: #808063;}
        .stroke19 {fill: #808062;}
        .stroke20 {fill: #808061;}
        text {
            font-family: Helvetica;
            font-size: 50px;
            fill: #808060;
            paint-order: stroke;
            stroke: #000000;
            stroke-width: 4px;
            stroke-linecap: butt;
            stroke-linejoin: miter;
            font-weight: 800;
        }
    </style>

    <path d="M 416 760 Q 415 781 413 797 Q 414 815 395 819 Q 361 837 338 828 Q 322 819 337 802 Q 356 780 368 753 L 379 720 Q 391 666 408 651 Q 420 641 424 652 Q 424 658 420 732 L 416 760 Z" class="stroke1"/>
    <path d="M 420 732 Q 462 747 464 747 Q 470 753 468 759 Q 467 765 453 767 Q 437 766 416 760 L 368 753 Q 313 746 241 733 Q 204 734 184 731 Q 174 732 172 728 Q 169 719 176 711 Q 189 698 217 686 Q 235 677 251 683 Q 312 701 379 720 L 420 732 Z" class="stroke2"/>
    <path d="M 587 749 Q 562 653 562 649 Q 563 637 577 644 Q 596 659 630 734 L 648 774 Q 657 793 671 814 Q 686 827 675 838 Q 665 854 631 872 Q 616 882 599 874 Q 589 868 596 857 Q 605 833 591 765 L 587 749 Z" class="stroke3"/>
    <path d="M 591 765 Q 567 764 585 750 Q 586 749 587 749 L 630 734 Q 646 733 669 737 Q 729 749 818 742 Q 831 741 835 749 Q 839 759 828 771 Q 783 807 702 784 Q 677 780 648 774 L 591 765 Z" class="stroke4"/>
    <path d="M 538 518 Q 581 528 629 535 Q 678 545 686 553 Q 695 560 691 568 Q 684 580 656 588 Q 634 594 546 568 L 490 553 Q 406 538 330 532 Q 294 526 319 510 Q 350 489 429 500 Q 457 506 490 510 L 538 518 Z" class="stroke5"/>
    <path d="M 326 378 Q 345 402 366 420 Q 376 430 366 445 Q 333 481 311 481 Q 301 480 301 467 Q 301 386 194 301 Q 191 301 151 266 Q 141 254 155 256 Q 203 256 285 333 Q 298 348 314 365 L 326 378 Z" class="stroke6"/>
    <path d="M 314 365 Q 318 359 333 347 Q 354 329 377 308 Q 386 299 396 300 Q 403 300 406 309 Q 409 318 403 337 Q 397 358 330 378 Q 327 379 326 378 C 304 378 304 378 314 365 Z" class="stroke7"/>
    <path d="M 674 410 Q 680 422 723 476 Q 732 486 720 499 Q 686 529 662 527 Q 652 526 654 512 Q 663 448 594 371 Q 578 353 569 342 Q 562 329 575 333 Q 605 336 658 392 L 674 410 Z" class="stroke8"/>
    <path d="M 658 392 Q 664 386 678 377 Q 715 352 757 321 Q 767 312 779 313 Q 786 314 789 324 Q 792 336 784 356 Q 777 378 743 392 Q 712 402 674 410 C 645 416 636 412 658 392 Z" class="stroke9"/>
    <path d="M 532 331 Q 535 505 538 518 L 546 568 Q 547 578 551 587 Q 560 600 557 613 Q 551 622 500 653 Q 479 669 460 655 Q 456 651 461 636 Q 489 596 490 553 L 490 510 Q 490 483 491 386 Q 488 385 486 378 L 488 288 Q 484 120 469 61 Q 451 16 478 -48 Q 484 -64 492 -67 Q 496 -73 504 -66 Q 511 -62 521 -42 Q 530 -20 529 9 Q 528 43 532 294 L 532 331 Z" class="stroke10"/>
    <path d="M 486 378 Q 399 222 171 72 Q 164 68 156 62 Q 143 52 152 49 Q 176 37 268 90 Q 362 142 488 288 C 508 311 501 404 486 378 Z" class="stroke11"/>
    <path d="M 532 294 Q 626 182 745 64 Q 766 43 799 47 Q 910 57 945 65 Q 955 68 956 73 Q 956 79 940 85 Q 775 131 695 192 Q 619 252 532 331 C 510 351 513 317 532 294 Z" class="stroke12"/>
    
    
    
    
    
    
    
    
    
    
    
    </g>
</svg>