<svg version="1.1" viewBox="0 0 1024 1024" xmlns="http://www.w3.org/2000/svg">
  
  <g transform="scale(1, -1) translate(0, -900)">
    <style type="text/css">
        .stroke1 {fill: #808080;}
        .stroke2 {fill: #808079;}
        .stroke3 {fill: #808078;}
        .stroke4 {fill: #808077;}
        .stroke5 {fill: #808076;}
        .stroke6 {fill: #808075;}
        .stroke7 {fill: #808074;}
        .stroke8 {fill: #808073;}
        .stroke9 {fill: #808072;}
        .stroke10 {fill: #808071;}
        .stroke11 {fill: #808070;}
        .stroke12 {fill: #808069;}
        .stroke13 {fill: #808068;}
        .stroke14 {fill: #808067;}
        .stroke15 {fill: #808066;}
        .stroke16 {fill: #808065;}
        .stroke17 {fill: #808064;}
        .stroke18 {fill: #808063;}
        .stroke19 {fill: #808062;}
        .stroke20 {fill: #808061;}
        text {
            font-family: Helvetica;
            font-size: 50px;
            fill: #808060;
            paint-order: stroke;
            stroke: #000000;
            stroke-width: 4px;
            stroke-linecap: butt;
            stroke-linejoin: miter;
            font-weight: 800;
        }
    </style>

    <path d="M 623 709 Q 717 718 810 709 Q 825 708 830 717 Q 834 727 823 742 Q 777 784 686 764 Q 667 761 647 757 L 592 750 Q 510 740 417 728 L 367 723 Q 291 717 207 709 Q 179 706 198 691 Q 243 664 323 679 Q 350 685 378 689 L 420 696 Q 457 705 581 708 L 623 709 Z" class="stroke1"/>
    <path d="M 417 728 Q 416 752 414 770 Q 415 789 396 794 Q 354 812 337 805 Q 319 796 334 778 Q 356 753 367 723 L 378 689 Q 396 638 403 631 Q 416 621 420 633 Q 427 652 422 673 Q 421 685 420 696 L 417 728 Z" class="stroke2"/>
    <path d="M 647 757 Q 654 770 665 785 Q 678 798 669 808 Q 659 824 629 840 Q 616 850 599 843 Q 589 837 596 827 Q 602 811 592 750 L 581 708 Q 566 672 567 650 Q 568 637 583 647 Q 592 654 623 709 L 647 757 Z" class="stroke3"/>
    <path d="M 502 564 Q 565 574 631 581 Q 685 590 693 596 Q 700 602 698 610 Q 692 620 668 629 Q 643 636 616 628 Q 570 616 523 606 L 460 596 Q 399 589 330 587 Q 299 584 320 568 Q 348 547 423 555 Q 435 556 448 557 L 502 564 Z" class="stroke4"/>
    <path d="M 462 473 Q 522 483 651 493 Q 660 492 668 502 Q 669 512 651 521 Q 623 542 545 521 Q 505 518 478 509 L 425 502 Q 403 505 329 496 Q 304 495 322 479 Q 346 457 390 463 Q 397 464 409 465 L 462 473 Z" class="stroke5"/>
    <path d="M 645 398 Q 700 401 768 398 Q 835 395 842 404 Q 848 416 832 430 Q 780 472 742 463 Q 654 447 499 428 Q 468 425 435 420 L 385 415 Q 297 408 201 398 Q 180 397 195 379 Q 208 364 227 359 Q 248 352 264 357 Q 310 369 361 375 L 416 384 Q 473 396 607 398 L 645 398 Z" class="stroke6"/>
    <path d="M 435 420 Q 448 445 462 473 L 478 509 Q 488 536 502 564 L 523 606 Q 523 607 524 607 Q 534 623 521 637 Q 488 671 475 674 Q 457 677 464 654 Q 468 627 460 596 L 448 557 Q 439 535 425 502 L 409 465 Q 394 429 385 415 L 361 375 Q 274 255 144 204 Q 128 197 123 193 Q 119 189 129 185 Q 166 173 253 217 Q 349 268 416 384 L 435 420 Z" class="stroke7"/>
    <path d="M 607 398 Q 683 305 769 221 Q 791 199 829 197 Q 896 193 968 207 Q 987 208 988 214 Q 989 221 976 226 Q 811 284 786 299 Q 707 347 645 398 C 622 417 588 421 607 398 Z" class="stroke8"/>
    <path d="M 507 292 Q 507 293 511 294 Q 550 307 583 310 Q 598 310 601 316 Q 605 326 595 335 Q 579 350 542 367 Q 530 374 519 374 Q 512 371 511 362 Q 505 326 353 270 Q 349 263 353 260 Q 360 259 478 282 L 507 292 Z" class="stroke9"/>
    <path d="M 532 194 Q 589 200 707 200 Q 723 200 727 207 Q 731 217 718 228 Q 667 262 618 246 Q 582 240 533 229 L 484 220 Q 481 221 479 220 Q 388 207 278 190 Q 260 189 274 175 Q 286 163 300 159 Q 318 155 331 159 Q 385 175 445 182 L 532 194 Z" class="stroke10"/>
    <path d="M 483 151 Q 471 18 479 -7 Q 485 -23 494 -38 Q 504 -54 511 -58 Q 521 -59 526 -48 Q 532 -30 533 78 Q 533 112 532 194 L 533 229 Q 534 247 536 257 Q 539 269 532 274 Q 519 284 507 292 C 482 309 469 311 478 282 Q 484 273 484 220 L 483 151 Z" class="stroke11"/>
    <path d="M 445 182 Q 402 100 274 11 Q 258 1 272 -2 Q 282 -3 319 10 Q 353 22 385 45 Q 413 67 445 101 Q 467 128 483 151 C 512 193 471 230 445 182 Z" class="stroke12"/>
    <path d="M 583 120 Q 632 83 694 25 Q 712 7 726 5 Q 735 4 741 15 Q 751 28 735 68 Q 723 105 652 129 Q 606 144 581 149 Q 572 153 571 141 Q 572 128 583 120 Z" class="stroke13"/>
    
    
    
    
    
    
    
    
    
    
    
    
    </g>
</svg>