<svg version="1.1" viewBox="0 0 1024 1024" xmlns="http://www.w3.org/2000/svg">
  
  <g transform="scale(1, -1) translate(0, -900)">
    <style type="text/css">
        .stroke1 {fill: #808080;}
        .stroke2 {fill: #808079;}
        .stroke3 {fill: #808078;}
        .stroke4 {fill: #808077;}
        .stroke5 {fill: #808076;}
        .stroke6 {fill: #808075;}
        .stroke7 {fill: #808074;}
        .stroke8 {fill: #808073;}
        .stroke9 {fill: #808072;}
        .stroke10 {fill: #808071;}
        .stroke11 {fill: #808070;}
        .stroke12 {fill: #808069;}
        .stroke13 {fill: #808068;}
        .stroke14 {fill: #808067;}
        .stroke15 {fill: #808066;}
        .stroke16 {fill: #808065;}
        .stroke17 {fill: #808064;}
        .stroke18 {fill: #808063;}
        .stroke19 {fill: #808062;}
        .stroke20 {fill: #808061;}
        text {
            font-family: Helvetica;
            font-size: 50px;
            fill: #808060;
            paint-order: stroke;
            stroke: #000000;
            stroke-width: 4px;
            stroke-linecap: butt;
            stroke-linejoin: miter;
            font-weight: 800;
        }
    </style>

    <path d="M 647 698 Q 717 708 811 701 Q 826 700 831 709 Q 835 719 823 734 Q 772 777 673 750 Q 670 750 669 749 L 614 740 Q 532 728 441 714 L 396 709 Q 326 702 251 693 Q 223 690 242 675 Q 279 651 356 663 Q 380 670 406 673 L 444 680 Q 481 690 603 696 L 647 698 Z" class="stroke1"/>
    <path d="M 441 714 Q 438 747 436 772 Q 437 790 419 795 Q 383 813 362 805 Q 346 798 360 779 Q 385 751 395 714 Q 395 713 396 709 L 406 673 Q 410 640 428 623 Q 441 613 444 624 Q 450 645 444 680 L 441 714 Z" class="stroke2"/>
    <path d="M 669 749 Q 676 768 692 792 Q 705 805 695 815 Q 685 831 652 848 Q 637 857 621 849 Q 611 843 618 833 Q 627 811 614 740 L 603 696 Q 585 642 587 623 Q 588 610 603 620 Q 615 629 647 698 L 669 749 Z" class="stroke3"/>
    <path d="M 476 478 Q 497 526 519 541 Q 532 556 520 571 Q 507 581 464 601 Q 451 607 386 582 Q 320 564 284 555 C 255 548 263 522 292 528 Q 322 534 422 559 Q 435 563 442 557 Q 448 551 446 539 Q 440 508 433 482 C 425 453 464 451 476 478 Z" class="stroke4"/>
    <path d="M 265 415 Q 271 409 292 414 Q 355 430 490 447 Q 500 448 500 457 Q 500 464 476 478 L 433 482 Q 429 482 428 481 Q 341 456 271 443 C 242 437 237 427 265 415 Z" class="stroke5"/>
    <path d="M 284 555 Q 271 567 253 577 Q 237 587 225 584 Q 215 578 219 566 Q 231 544 227 501 Q 206 347 167 250 Q 130 169 64 83 Q 60 77 57 72 Q 54 63 63 64 Q 102 71 176 180 Q 179 187 185 195 Q 242 297 265 415 L 271 443 Q 277 470 282 494 Q 286 519 292 528 C 298 544 298 544 284 555 Z" class="stroke6"/>
    <path d="M 303 356 Q 272 350 294 336 Q 321 321 393 332 Q 423 338 455 345 Q 473 349 476 352 Q 483 359 479 366 Q 472 376 447 382 Q 422 386 396 375 Q 354 360 303 356 Z" class="stroke7"/>
    <path d="M 406 246 Q 410 247 486 259 Q 495 258 502 270 Q 503 280 483 288 Q 455 303 379 280 Q 372 280 365 277 Q 331 270 235 253 Q 210 249 230 235 Q 260 214 283 220 Q 319 229 364 237 L 406 246 Z" class="stroke8"/>
    <path d="M 364 237 Q 371 204 372 126 Q 371 83 367 73 Q 363 61 343 65 Q 318 72 290 77 Q 280 78 279 73 Q 278 67 287 60 Q 345 14 363 -14 Q 376 -26 387 -24 Q 397 -20 406 8 Q 421 36 419 89 Q 416 165 418 192 Q 425 226 409 244 Q 408 245 406 246 C 385 268 359 267 364 237 Z" class="stroke9"/>
    <path d="M 255 176 Q 233 142 204 114 Q 182 93 192 60 Q 196 44 215 52 Q 258 74 267 125 Q 276 150 274 172 Q 271 179 266 181 Q 259 182 255 176 Z" class="stroke10"/>
    <path d="M 442 166 Q 490 111 509 110 Q 519 109 524 123 Q 525 133 518 149 Q 509 162 490 170 Q 459 185 446 187 Q 439 188 438 180 Q 437 173 442 166 Z" class="stroke11"/>
    <path d="M 772 403 Q 829 409 925 408 Q 943 409 947 417 Q 951 427 937 439 Q 886 478 820 457 Q 798 453 771 446 L 719 437 Q 710 437 511 404 Q 492 403 506 387 Q 519 375 535 370 Q 554 366 568 370 Q 671 397 720 398 L 772 403 Z" class="stroke12"/>
    <path d="M 681 50 Q 645 54 611 60 Q 598 61 599 54 Q 600 47 612 40 Q 691 -20 720 -57 Q 736 -75 751 -59 Q 788 -20 782 52 Q 778 104 772 403 L 771 446 Q 771 530 781 562 Q 790 581 772 595 Q 744 617 714 626 Q 695 633 686 624 Q 680 617 691 602 Q 716 562 716 517 Q 717 477 719 437 L 720 398 Q 727 200 719 85 Q 718 61 706 53 Q 696 46 681 50 Z" class="stroke13"/>
    <path d="M 565 265 Q 586 243 608 218 Q 620 205 634 205 Q 644 205 649 217 Q 653 230 648 258 Q 641 285 564 309 Q 551 313 544 311 Q 540 307 540 296 Q 541 286 565 265 Z" class="stroke14"/>
    
    
    
    
    
    
    
    
    
    
    
    
    
    </g>
</svg>