<svg version="1.1" viewBox="0 0 1024 1024" xmlns="http://www.w3.org/2000/svg">
  
  <g transform="scale(1, -1) translate(0, -900)">
    <style type="text/css">
        .stroke1 {fill: #808080;}
        .stroke2 {fill: #808079;}
        .stroke3 {fill: #808078;}
        .stroke4 {fill: #808077;}
        .stroke5 {fill: #808076;}
        .stroke6 {fill: #808075;}
        .stroke7 {fill: #808074;}
        .stroke8 {fill: #808073;}
        .stroke9 {fill: #808072;}
        .stroke10 {fill: #808071;}
        .stroke11 {fill: #808070;}
        .stroke12 {fill: #808069;}
        .stroke13 {fill: #808068;}
        .stroke14 {fill: #808067;}
        .stroke15 {fill: #808066;}
        .stroke16 {fill: #808065;}
        .stroke17 {fill: #808064;}
        .stroke18 {fill: #808063;}
        .stroke19 {fill: #808062;}
        .stroke20 {fill: #808061;}
        text {
            font-family: Helvetica;
            font-size: 50px;
            fill: #808060;
            paint-order: stroke;
            stroke: #000000;
            stroke-width: 4px;
            stroke-linecap: butt;
            stroke-linejoin: miter;
            font-weight: 800;
        }
    </style>

    <path d="M 435 741 Q 434 766 433 786 Q 434 805 415 810 Q 373 828 356 822 Q 340 813 354 795 Q 379 767 388 733 L 396 700 Q 408 655 420 643 Q 433 633 437 644 Q 441 663 437 711 L 435 741 Z" class="stroke1"/>
    <path d="M 437 711 Q 446 715 456 717 Q 471 718 488 728 Q 494 732 492 739 Q 491 745 478 748 Q 457 745 435 741 L 388 733 Q 327 726 247 712 Q 207 713 185 711 Q 175 712 172 708 Q 171 701 177 691 Q 190 676 217 665 Q 233 656 251 661 Q 321 680 396 700 L 437 711 Z" class="stroke2"/>
    <path d="M 670 768 Q 679 787 696 811 Q 711 824 701 834 Q 691 850 660 869 Q 647 879 629 872 Q 619 868 626 856 Q 632 837 615 761 L 608 738 Q 581 660 582 653 Q 583 641 597 648 Q 615 660 650 729 L 670 768 Z" class="stroke3"/>
    <path d="M 650 729 Q 662 729 676 731 Q 779 752 882 740 Q 895 739 899 747 Q 903 756 892 768 Q 856 804 788 786 Q 736 777 670 768 L 615 761 Q 609 762 604 761 Q 580 760 596 746 L 608 738 L 650 729 Z" class="stroke4"/>
    <path d="M 260 539 Q 279 520 302 496 Q 314 483 329 484 Q 339 484 345 497 Q 349 510 342 539 Q 338 555 312 569 Q 251 590 236 587 Q 232 583 232 571 Q 235 561 260 539 Z" class="stroke5"/>
    <path d="M 175 402 Q 214 348 240 337 Q 253 333 263 345 Q 270 357 269 372 Q 265 394 249 407 Q 239 416 189 437 Q 174 441 166 439 Q 160 438 161 427 Q 162 417 175 402 Z" class="stroke6"/>
    <path d="M 164 96 Q 154 93 154 77 Q 167 7 196 -7 Q 202 -14 211 -11 Q 218 -10 219 12 Q 228 57 317 271 Q 323 286 322 291 Q 322 300 314 294 Q 302 287 200 131 Q 188 113 164 96 Z" class="stroke7"/>
    <path d="M 496 611 Q 484 615 459 620 Q 449 623 446 618 Q 442 614 448 599 Q 473 547 489 461 Q 490 436 506 418 Q 522 399 526 413 Q 527 417 528 422 L 528 448 Q 528 454 518 509 L 514 533 Q 507 569 506 584 C 504 609 504 609 496 611 Z" class="stroke8"/>
    <path d="M 627 436 Q 643 414 657 406 Q 667 399 680 418 Q 690 437 714 544 Q 721 571 741 592 Q 751 602 742 614 Q 729 627 693 650 Q 681 656 622 641 Q 619 641 541 622 Q 517 616 496 611 C 467 604 477 575 506 584 Q 552 600 635 615 Q 651 618 660 613 Q 670 604 668 588 Q 649 468 634 459 C 622 442 622 442 627 436 Z" class="stroke9"/>
    <path d="M 518 509 Q 569 518 606 523 Q 625 527 617 538 Q 607 550 586 552 Q 556 555 514 533 C 487 519 488 504 518 509 Z" class="stroke10"/>
    <path d="M 528 422 Q 534 429 627 436 C 657 438 657 439 634 459 Q 631 462 626 465 Q 611 471 528 448 C 499 440 502 407 528 422 Z" class="stroke11"/>
    <path d="M 477 332 Q 621 363 917 363 Q 933 363 938 370 Q 942 380 929 392 Q 886 425 852 419 Q 690 386 335 347 Q 316 346 330 330 Q 342 318 357 314 Q 375 310 389 313 Q 414 320 442 325 L 477 332 Z" class="stroke12"/>
    <path d="M 462 256 Q 466 266 492 284 Q 499 290 499 300 Q 498 312 477 332 C 456 353 445 355 442 325 Q 445 295 333 181 Q 321 175 318 167 Q 314 160 324 159 Q 345 159 445 240 L 462 256 Z" class="stroke13"/>
    <path d="M 639 247 Q 705 263 758 261 Q 776 261 779 254 Q 782 247 778 222 Q 762 120 738 67 Q 705 1 684 -3 Q 672 -7 609 10 Q 599 14 599 8 Q 598 4 609 -6 Q 639 -46 651 -75 Q 658 -91 669 -93 Q 703 -96 743 -47 Q 783 1 844 188 Q 850 210 867 222 Q 880 234 881 242 Q 880 249 863 265 Q 839 287 805 303 Q 784 313 707 294 Q 694 293 678 288 Q 569 267 462 256 C 432 253 416 248 445 240 Q 460 234 489 230 L 523 232 Q 523 233 526 233 Q 572 239 613 243 L 639 247 Z" class="stroke14"/>
    <path d="M 489 230 Q 489 173 357 63 Q 348 60 346 51 Q 345 47 349 47 Q 397 38 510 157 Q 510 163 536 184 Q 543 191 538 204 Q 531 222 523 232 C 506 257 491 260 489 230 Z" class="stroke15"/>
    <path d="M 613 243 Q 612 242 613 239 Q 617 167 493 41 Q 490 40 488 37 Q 451 3 362 -62 Q 355 -66 363 -69 Q 418 -69 528 25 Q 597 95 661 178 Q 670 190 676 194 Q 683 198 682 207 Q 679 228 639 247 C 613 260 613 260 613 243 Z" class="stroke16"/>
    
    
    
    
    
    
    
    
    
    
    
    
    
    
    
    </g>
</svg>