<svg version="1.1" viewBox="0 0 1024 1024" xmlns="http://www.w3.org/2000/svg">
  
  <g transform="scale(1, -1) translate(0, -900)">
    <style type="text/css">
        .stroke1 {fill: #808080;}
        .stroke2 {fill: #808079;}
        .stroke3 {fill: #808078;}
        .stroke4 {fill: #808077;}
        .stroke5 {fill: #808076;}
        .stroke6 {fill: #808075;}
        .stroke7 {fill: #808074;}
        .stroke8 {fill: #808073;}
        .stroke9 {fill: #808072;}
        .stroke10 {fill: #808071;}
        .stroke11 {fill: #808070;}
        .stroke12 {fill: #808069;}
        .stroke13 {fill: #808068;}
        .stroke14 {fill: #808067;}
        .stroke15 {fill: #808066;}
        .stroke16 {fill: #808065;}
        .stroke17 {fill: #808064;}
        .stroke18 {fill: #808063;}
        .stroke19 {fill: #808062;}
        .stroke20 {fill: #808061;}
        text {
            font-family: Helvetica;
            font-size: 50px;
            fill: #808060;
            paint-order: stroke;
            stroke: #000000;
            stroke-width: 4px;
            stroke-linecap: butt;
            stroke-linejoin: miter;
            font-weight: 800;
        }
    </style>

    <path d="M 427 722 Q 427 750 427 772 Q 430 791 410 797 Q 376 818 352 812 Q 334 805 348 785 Q 372 755 381 715 L 388 680 Q 391 641 408 620 Q 421 608 425 620 Q 432 641 428 691 L 427 722 Z" class="stroke1"/>
    <path d="M 428 691 Q 483 709 492 712 Q 498 716 496 723 Q 495 729 482 732 Q 457 728 427 722 L 381 715 Q 318 706 241 693 Q 198 694 177 691 Q 165 692 164 688 Q 163 681 169 671 Q 182 656 209 645 Q 227 636 243 642 Q 313 661 388 680 L 428 691 Z" class="stroke2"/>
    <path d="M 668 747 Q 674 768 697 810 Q 710 825 701 835 Q 688 851 655 867 Q 639 877 622 868 Q 612 861 620 851 Q 632 824 615 742 L 608 711 Q 584 621 585 613 Q 588 601 601 609 Q 619 624 652 706 L 668 747 Z" class="stroke3"/>
    <path d="M 652 706 Q 704 721 849 710 Q 885 710 888 711 Q 888 712 889 713 Q 893 723 883 736 Q 846 773 769 759 Q 723 755 668 747 L 615 742 Q 602 742 589 741 Q 564 740 581 726 Q 594 716 608 711 L 652 706 Z" class="stroke4"/>
    <path d="M 446 532 L 447 532 L 469 552 Q 523 607 525 610 Q 525 613 525 614 Q 524 626 501 634 Q 476 644 465 642 Q 458 641 455 629 Q 443 575 313 475 Q 294 462 318 464 Q 357 468 446 532 Z" class="stroke5"/>
    <path d="M 447 532 Q 484 511 530 521 Q 603 534 679 548 Q 713 555 718 560 Q 725 567 722 574 Q 716 584 692 591 Q 671 597 575 569 Q 479 554 469 552 C 439 547 424 544 447 532 Z" class="stroke6"/>
    <path d="M 723 369 Q 787 376 847 380 Q 857 377 867 390 Q 868 402 847 413 Q 814 437 738 417 L 678 405 Q 635 398 595 390 L 551 383 Q 508 379 467 372 L 423 367 Q 365 364 359 362 L 310 358 Q 264 357 214 352 Q 186 351 206 332 Q 233 305 269 310 Q 291 314 319 318 L 365 325 Q 395 331 428 335 L 468 340 Q 508 347 551 351 L 592 357 Q 644 364 672 365 L 723 369 Z" class="stroke7"/>
    <path d="M 359 362 Q 359 375 357 386 Q 360 402 350 409 Q 326 425 306 430 Q 296 431 288 426 Q 281 422 286 413 Q 304 391 310 358 L 319 318 Q 328 275 346 196 C 353 167 388 170 384 200 Q 374 269 365 325 L 359 362 Z" class="stroke8"/>
    <path d="M 467 372 Q 467 396 473 431 Q 474 438 458 448 Q 430 460 412 461 Q 400 462 395 455 Q 391 448 397 438 Q 415 420 423 367 L 428 335 Q 435 274 443 206 C 447 176 475 179 474 209 Q 471 278 468 340 L 467 372 Z" class="stroke9"/>
    <path d="M 595 390 Q 595 391 596 391 Q 602 427 611 450 Q 614 457 599 470 Q 574 485 556 489 Q 544 492 538 486 Q 532 480 537 469 Q 553 444 551 383 L 551 351 Q 548 288 543 217 C 541 187 571 191 575 221 Q 584 291 592 357 C 596 387 593 383 595 390 Z" class="stroke10"/>
    <path d="M 686 234 Q 705 304 723 369 L 738 417 Q 747 435 756 455 Q 760 464 747 480 Q 719 502 700 510 Q 687 516 678 509 Q 671 505 675 490 Q 685 466 678 405 L 672 365 Q 660 301 645 229 C 639 200 678 205 686 234 Z" class="stroke11"/>
    <path d="M 346 196 Q 234 187 114 175 Q 92 174 107 155 Q 122 140 140 134 Q 162 128 179 132 Q 491 211 916 190 Q 937 190 942 199 Q 948 211 931 226 Q 876 269 812 255 Q 757 246 686 234 L 645 229 Q 611 226 575 221 L 543 217 Q 528 217 513 214 Q 494 213 474 209 L 443 206 Q 413 205 384 200 L 346 196 Z" class="stroke12"/>
    <path d="M 255 111 Q 225 65 188 24 Q 164 -3 175 -38 Q 179 -57 201 -48 Q 225 -36 243 -8 Q 265 23 271 53 Q 281 83 278 107 Q 274 117 269 118 Q 260 118 255 111 Z" class="stroke13"/>
    <path d="M 374 84 Q 395 23 419 -2 Q 431 -9 444 -2 Q 454 7 457 22 Q 457 61 397 113 Q 385 123 376 122 Q 370 123 368 112 Q 365 102 374 84 Z" class="stroke14"/>
    <path d="M 537 92 Q 576 31 602 15 Q 617 11 627 21 Q 634 33 635 49 Q 629 94 555 126 Q 540 133 530 132 Q 524 131 525 119 Q 525 107 537 92 Z" class="stroke15"/>
    <path d="M 718 93 Q 767 47 828 -18 Q 844 -37 860 -42 Q 870 -43 877 -33 Q 890 -20 876 25 Q 861 82 718 124 Q 709 130 707 117 Q 707 104 718 93 Z" class="stroke16"/>
    
    
    
    
    
    
    
    
    
    
    
    
    
    
    
    </g>
</svg>