<svg version="1.1" viewBox="0 0 1024 1024" xmlns="http://www.w3.org/2000/svg">
  
  <g transform="scale(1, -1) translate(0, -900)">
    <style type="text/css">
        .stroke1 {fill: #808080;}
        .stroke2 {fill: #808079;}
        .stroke3 {fill: #808078;}
        .stroke4 {fill: #808077;}
        .stroke5 {fill: #808076;}
        .stroke6 {fill: #808075;}
        .stroke7 {fill: #808074;}
        .stroke8 {fill: #808073;}
        .stroke9 {fill: #808072;}
        .stroke10 {fill: #808071;}
        .stroke11 {fill: #808070;}
        .stroke12 {fill: #808069;}
        .stroke13 {fill: #808068;}
        .stroke14 {fill: #808067;}
        .stroke15 {fill: #808066;}
        .stroke16 {fill: #808065;}
        .stroke17 {fill: #808064;}
        .stroke18 {fill: #808063;}
        .stroke19 {fill: #808062;}
        .stroke20 {fill: #808061;}
        text {
            font-family: Helvetica;
            font-size: 50px;
            fill: #808060;
            paint-order: stroke;
            stroke: #000000;
            stroke-width: 4px;
            stroke-linecap: butt;
            stroke-linejoin: miter;
            font-weight: 800;
        }
    </style>

    <path d="M 363 643 Q 481 674 483 675 Q 492 682 487 692 Q 480 704 450 711 Q 426 717 323 684 Q 230 660 138 650 Q 101 643 127 626 Q 160 608 203 611 L 247 620 Q 284 629 326 636 L 363 643 Z" class="stroke1"/>
    <path d="M 203 611 Q 234 527 154 305 Q 151 304 151 299 Q 117 227 49 133 Q 43 127 41 122 Q 37 112 48 113 Q 81 113 159 221 Q 165 233 173 243 Q 233 349 271 536 Q 286 582 283 590 Q 270 606 247 620 C 222 637 195 640 203 611 Z" class="stroke2"/>
    <path d="M 967 146 Q 951 186 936 305 Q 936 321 929 326 Q 923 329 919 312 Q 894 186 874 146 Q 849 115 778 94 Q 703 73 613 74 Q 535 75 474 98 Q 419 123 404 155 Q 353 254 400 594 Q 406 624 363 643 C 339 661 318 665 326 636 Q 326 632 329 622 Q 344 580 341 540 Q 325 221 353 133 Q 360 97 395 69 Q 495 2 736 22 Q 782 29 830 43 Q 897 62 961 107 Q 980 122 967 146 Z" class="stroke3"/>
    <path d="M 501 554 Q 488 558 469 560 Q 459 563 455 558 Q 449 552 457 537 Q 482 491 499 413 Q 502 389 516 375 Q 534 354 538 369 Q 539 375 541 383 L 539 415 Q 539 418 539 420 Q 526 499 522 524 C 518 549 518 549 501 554 Z" class="stroke4"/>
    <path d="M 790 456 Q 817 522 846 540 Q 862 558 849 575 Q 774 635 721 605 Q 693 596 664 586 L 615 574 Q 557 564 501 554 C 471 549 493 516 522 524 Q 538 530 616 544 L 663 553 Q 691 560 721 566 Q 745 572 754 562 Q 761 555 759 539 Q 749 491 736 453 C 727 424 778 428 790 456 Z" class="stroke5"/>
    <path d="M 658 402 Q 719 412 808 420 Q 818 421 820 429 Q 820 436 792 455 Q 791 456 790 456 C 782 461 766 458 736 453 Q 696 446 660 436 L 616 428 Q 576 421 539 415 C 509 410 511 381 541 383 Q 545 383 552 384 Q 577 391 615 396 L 658 402 Z" class="stroke6"/>
    <path d="M 654 282 Q 655 343 658 402 L 660 436 Q 661 496 663 553 L 664 586 Q 667 686 685 757 Q 689 769 667 784 Q 630 803 605 807 Q 589 810 580 801 Q 573 794 581 777 Q 611 734 611 704 Q 614 641 615 574 L 616 544 Q 616 489 616 428 L 615 396 Q 614 338 610 276 C 608 246 653 252 654 282 Z" class="stroke7"/>
    <path d="M 767 300 Q 712 291 654 282 L 610 276 Q 561 272 512 264 Q 493 261 461 267 Q 448 267 445 258 Q 441 246 449 237 Q 468 218 496 196 Q 506 192 518 198 Q 555 217 745 267 Q 764 271 780 279 C 807 291 797 305 767 300 Z" class="stroke8"/>
    <path d="M 780 279 Q 804 234 820 229 Q 829 228 837 237 Q 844 249 845 277 Q 845 310 767 356 Q 755 363 748 363 Q 744 360 741 349 Q 741 345 767 300 L 780 279 Z" class="stroke9"/>
    
    
    
    
    
    
    
    
    </g>
</svg>