<svg version="1.1" viewBox="0 0 1024 1024" xmlns="http://www.w3.org/2000/svg">
  
  <g transform="scale(1, -1) translate(0, -900)">
    <style type="text/css">
        .stroke1 {fill: #808080;}
        .stroke2 {fill: #808079;}
        .stroke3 {fill: #808078;}
        .stroke4 {fill: #808077;}
        .stroke5 {fill: #808076;}
        .stroke6 {fill: #808075;}
        .stroke7 {fill: #808074;}
        .stroke8 {fill: #808073;}
        .stroke9 {fill: #808072;}
        .stroke10 {fill: #808071;}
        .stroke11 {fill: #808070;}
        .stroke12 {fill: #808069;}
        .stroke13 {fill: #808068;}
        .stroke14 {fill: #808067;}
        .stroke15 {fill: #808066;}
        .stroke16 {fill: #808065;}
        .stroke17 {fill: #808064;}
        .stroke18 {fill: #808063;}
        .stroke19 {fill: #808062;}
        .stroke20 {fill: #808061;}
        text {
            font-family: Helvetica;
            font-size: 50px;
            fill: #808060;
            paint-order: stroke;
            stroke: #000000;
            stroke-width: 4px;
            stroke-linecap: butt;
            stroke-linejoin: miter;
            font-weight: 800;
        }
    </style>

    <path d="M 148 524 Q 135 530 109 531 Q 97 534 95 528 Q 89 522 98 507 Q 126 459 148 378 Q 152 353 168 338 Q 187 319 190 334 Q 191 341 192 353 L 188 383 Q 188 384 188 387 Q 169 469 164 496 C 159 520 159 520 148 524 Z" class="stroke1"/>
    <path d="M 401 421 Q 425 496 454 515 Q 467 531 455 547 Q 440 559 395 580 Q 382 586 299 556 L 254 544 Q 202 534 148 524 C 119 519 135 488 164 496 Q 182 502 254 516 L 298 525 Q 317 531 342 535 Q 363 541 371 532 Q 378 525 377 508 Q 368 465 358 427 C 350 398 392 393 401 421 Z" class="stroke2"/>
    <path d="M 294 372 Q 342 382 414 391 Q 424 392 424 401 Q 424 408 401 421 L 358 427 Q 349 427 295 408 L 254 397 Q 220 390 188 383 C 159 377 162 354 192 353 Q 199 352 208 354 Q 227 360 253 364 L 294 372 Z" class="stroke3"/>
    <path d="M 289 240 Q 292 307 294 372 L 295 408 Q 296 468 298 525 L 299 556 Q 299 628 320 719 Q 323 729 302 744 Q 268 763 242 767 Q 226 770 218 761 Q 211 754 219 738 Q 250 695 250 663 Q 253 605 254 544 L 254 516 Q 254 458 254 397 L 253 364 Q 252 300 248 228 C 246 198 288 210 289 240 Z" class="stroke4"/>
    <path d="M 370 264 Q 330 254 289 240 L 248 228 Q 191 213 131 197 Q 113 191 83 193 Q 70 192 67 181 Q 66 168 74 158 Q 98 142 132 122 Q 142 118 155 127 Q 191 154 356 227 Q 369 234 383 241 C 410 255 399 271 370 264 Z" class="stroke5"/>
    <path d="M 383 241 Q 414 184 426 179 Q 433 178 442 185 Q 449 195 450 219 Q 451 252 372 312 Q 362 319 356 318 Q 352 317 349 307 Q 349 301 370 264 L 383 241 Z" class="stroke6"/>
    <path d="M 540 621 Q 501 612 530 595 Q 575 577 658 596 Q 766 623 777 629 Q 786 639 780 647 Q 771 660 740 666 Q 707 670 676 655 Q 648 645 616 635 Q 582 626 540 621 Z" class="stroke7"/>
    <path d="M 697 436 Q 712 439 879 456 Q 898 457 902 466 Q 906 478 890 490 Q 830 524 777 504 Q 660 471 458 426 Q 439 422 454 407 Q 487 383 531 397 Q 624 430 663 430 L 697 436 Z" class="stroke8"/>
    <path d="M 524 350 Q 546 308 512 203 Q 481 118 389 62 Q 380 58 373 51 Q 360 44 371 40 Q 419 36 483 84 Q 552 135 579 234 Q 591 286 606 312 Q 616 328 602 338 Q 557 374 533 369 Q 520 365 524 350 Z" class="stroke9"/>
    <path d="M 663 430 Q 663 426 666 416 Q 679 376 676 337 Q 663 141 679 85 Q 682 67 698 51 Q 761 0 890 23 Q 893 26 899 26 Q 930 33 959 55 Q 977 68 966 91 Q 956 116 943 194 Q 943 209 937 214 Q 931 217 926 201 Q 896 119 878 95 Q 871 85 847 79 Q 798 67 750 85 Q 734 94 728 105 Q 695 171 734 387 Q 740 417 697 436 C 671 451 656 459 663 430 Z" class="stroke10"/>
    
    
    
    
    
    
    
    
    
    </g>
</svg>