<svg version="1.1" viewBox="0 0 1024 1024" xmlns="http://www.w3.org/2000/svg">
  
  <g transform="scale(1, -1) translate(0, -900)">
    <style type="text/css">
        .stroke1 {fill: #808080;}
        .stroke2 {fill: #808079;}
        .stroke3 {fill: #808078;}
        .stroke4 {fill: #808077;}
        .stroke5 {fill: #808076;}
        .stroke6 {fill: #808075;}
        .stroke7 {fill: #808074;}
        .stroke8 {fill: #808073;}
        .stroke9 {fill: #808072;}
        .stroke10 {fill: #808071;}
        .stroke11 {fill: #808070;}
        .stroke12 {fill: #808069;}
        .stroke13 {fill: #808068;}
        .stroke14 {fill: #808067;}
        .stroke15 {fill: #808066;}
        .stroke16 {fill: #808065;}
        .stroke17 {fill: #808064;}
        .stroke18 {fill: #808063;}
        .stroke19 {fill: #808062;}
        .stroke20 {fill: #808061;}
        text {
            font-family: Helvetica;
            font-size: 50px;
            fill: #808060;
            paint-order: stroke;
            stroke: #000000;
            stroke-width: 4px;
            stroke-linecap: butt;
            stroke-linejoin: miter;
            font-weight: 800;
        }
    </style>

    <path d="M 162 572 Q 150 578 112 584 Q 100 585 97 581 Q 91 574 100 559 Q 130 507 150 421 Q 154 396 171 379 Q 190 357 195 374 Q 198 384 197 401 L 192 434 Q 174 513 170 542 C 166 571 166 571 162 572 Z" class="stroke1"/>
    <path d="M 413 469 Q 441 544 472 562 Q 488 578 474 596 Q 459 609 410 632 Q 394 639 373 632 Q 340 619 308 607 L 259 593 Q 210 581 162 572 C 133 566 142 532 170 542 Q 173 546 260 564 L 308 575 Q 329 581 353 586 Q 375 592 385 583 Q 392 576 390 559 Q 380 514 367 478 C 357 450 402 441 413 469 Z" class="stroke2"/>
    <path d="M 303 424 Q 352 434 418 443 Q 428 444 429 453 Q 429 459 413 469 L 367 478 Q 358 478 304 461 L 260 449 Q 223 442 192 434 C 163 427 169 389 197 401 Q 207 407 259 416 L 303 424 Z" class="stroke3"/>
    <path d="M 298 278 Q 301 354 303 424 L 304 461 Q 305 519 308 575 L 308 607 Q 312 706 330 779 Q 334 792 312 807 Q 275 826 248 831 Q 230 834 222 825 Q 215 816 223 800 Q 254 754 255 723 Q 258 660 259 593 L 260 564 Q 260 509 260 449 L 259 416 Q 258 343 254 264 C 253 234 297 248 298 278 Z" class="stroke4"/>
    <path d="M 383 305 Q 341 292 298 278 L 254 264 Q 187 245 117 224 Q 96 217 62 218 Q 49 217 47 207 Q 46 194 54 186 Q 76 170 110 151 Q 120 147 132 156 Q 162 178 396 282 C 423 294 412 314 383 305 Z" class="stroke5"/>
    <path d="M 396 282 Q 424 228 439 222 Q 449 219 457 229 Q 466 241 467 269 Q 468 291 444 316 Q 387 367 369 367 Q 363 366 360 353 L 383 305 L 396 282 Z" class="stroke6"/>
    <path d="M 809 624 Q 855 628 916 629 Q 964 626 972 638 Q 976 648 961 662 Q 903 704 840 681 Q 572 635 523 626 Q 504 623 519 607 Q 532 594 550 589 Q 571 585 586 589 Q 665 613 757 619 L 809 624 Z" class="stroke7"/>
    <path d="M 524 468 Q 512 472 491 476 Q 479 480 476 475 Q 472 469 478 455 Q 503 403 517 317 Q 518 292 534 274 Q 550 255 554 269 Q 558 279 558 297 L 554 330 Q 541 418 539 443 C 537 464 537 464 524 468 Z" class="stroke8"/>
    <path d="M 675 353 Q 688 423 710 445 Q 729 467 709 480 Q 691 490 667 505 Q 651 515 634 505 Q 598 481 524 468 C 494 463 511 433 539 443 Q 546 447 614 460 Q 635 464 640 456 Q 647 450 641 419 Q 635 388 628 351 C 622 322 669 324 675 353 Z" class="stroke9"/>
    <path d="M 558 297 Q 598 307 694 319 Q 704 320 705 329 Q 705 336 675 353 C 661 361 657 360 628 351 Q 588 339 554 330 C 525 322 529 290 558 297 Z" class="stroke10"/>
    <path d="M 727 82 Q 708 89 681 95 Q 668 99 669 92 Q 669 85 679 73 Q 737 18 775 -27 Q 787 -37 802 -21 Q 847 34 842 117 Q 830 402 841 560 Q 848 588 841 599 Q 834 609 809 624 C 784 641 744 646 757 619 Q 758 613 765 605 Q 775 580 776 537 Q 785 105 765 80 Q 755 73 727 82 Z" class="stroke11"/>
    
    
    
    
    
    
    
    
    
    
    </g>
</svg>