<svg version="1.1" viewBox="0 0 1024 1024" xmlns="http://www.w3.org/2000/svg">
  
  <g transform="scale(1, -1) translate(0, -900)">
    <style type="text/css">
        .stroke1 {fill: #808080;}
        .stroke2 {fill: #808079;}
        .stroke3 {fill: #808078;}
        .stroke4 {fill: #808077;}
        .stroke5 {fill: #808076;}
        .stroke6 {fill: #808075;}
        .stroke7 {fill: #808074;}
        .stroke8 {fill: #808073;}
        .stroke9 {fill: #808072;}
        .stroke10 {fill: #808071;}
        .stroke11 {fill: #808070;}
        .stroke12 {fill: #808069;}
        .stroke13 {fill: #808068;}
        .stroke14 {fill: #808067;}
        .stroke15 {fill: #808066;}
        .stroke16 {fill: #808065;}
        .stroke17 {fill: #808064;}
        .stroke18 {fill: #808063;}
        .stroke19 {fill: #808062;}
        .stroke20 {fill: #808061;}
        text {
            font-family: Helvetica;
            font-size: 50px;
            fill: #808060;
            paint-order: stroke;
            stroke: #000000;
            stroke-width: 4px;
            stroke-linecap: butt;
            stroke-linejoin: miter;
            font-weight: 800;
        }
    </style>

    <path d="M 148 555 Q 138 561 105 563 Q 93 564 91 560 Q 85 554 94 539 Q 121 496 141 422 Q 145 400 160 386 Q 179 367 182 382 Q 185 389 184 402 L 179 431 Q 163 506 160 529 C 157 551 157 551 148 555 Z" class="stroke1"/>
    <path d="M 383 472 Q 401 539 429 558 Q 442 574 429 588 Q 416 598 371 617 Q 355 623 289 593 L 241 578 Q 193 566 148 555 C 119 548 131 520 160 529 Q 166 530 175 534 Q 206 543 242 551 L 288 563 Q 304 569 324 573 Q 343 579 351 572 Q 358 565 357 550 Q 350 510 342 477 C 335 448 375 443 383 472 Z" class="stroke2"/>
    <path d="M 285 423 Q 330 433 395 443 Q 405 444 405 453 Q 405 460 383 472 L 342 477 Q 330 477 286 460 L 243 447 Q 209 438 179 431 C 150 424 155 396 184 402 L 242 413 L 285 423 Z" class="stroke3"/>
    <path d="M 281 306 Q 282 366 285 423 L 286 460 Q 287 512 288 563 L 289 593 Q 289 674 308 743 Q 311 753 291 769 Q 255 787 230 790 Q 214 794 206 785 Q 199 778 207 762 Q 235 722 236 694 Q 239 639 241 578 L 242 551 Q 243 502 243 447 L 242 413 Q 242 355 239 292 C 238 262 280 276 281 306 Z" class="stroke4"/>
    <path d="M 346 329 Q 313 319 281 306 L 239 292 Q 176 274 113 253 Q 95 246 65 247 Q 52 246 50 235 Q 49 222 58 214 Q 80 198 114 181 Q 124 178 136 187 Q 169 214 336 294 Q 346 300 358 306 C 385 320 375 338 346 329 Z" class="stroke5"/>
    <path d="M 358 306 Q 380 264 390 260 Q 397 257 406 265 Q 413 275 415 299 Q 416 330 348 379 Q 338 386 332 386 Q 328 385 325 375 Q 325 366 346 329 L 358 306 Z" class="stroke6"/>
    <path d="M 509 751 Q 557 670 583 664 Q 598 660 607 678 Q 611 691 604 715 Q 595 734 571 748 Q 534 773 518 778 Q 508 781 505 769 Q 502 762 509 751 Z" class="stroke7"/>
    <path d="M 722 794 Q 704 757 641 666 Q 634 650 649 654 Q 706 697 766 757 Q 782 773 803 786 Q 822 798 810 813 Q 797 828 770 838 Q 746 848 735 844 Q 723 841 728 829 Q 734 813 722 794 Z" class="stroke8"/>
    <path d="M 496 588 Q 486 592 461 596 Q 451 599 447 594 Q 441 588 449 573 Q 480 507 499 400 Q 502 369 521 347 Q 537 326 542 341 Q 545 351 546 365 L 545 387 Q 544 399 541 412 Q 519 524 514 558 C 510 584 510 584 496 588 Z" class="stroke9"/>
    <path d="M 745 391 Q 764 366 781 357 Q 791 350 806 371 Q 819 396 843 528 Q 850 558 873 583 Q 885 595 874 608 Q 858 624 816 648 Q 797 657 781 650 Q 750 641 709 633 Q 655 623 586 608 Q 537 596 496 588 C 467 582 485 549 514 558 Q 548 570 600 580 L 650 591 Q 762 618 779 602 Q 792 587 790 572 Q 772 434 758 419 C 745 392 745 391 745 391 Z" class="stroke10"/>
    <path d="M 677 482 Q 708 488 736 491 Q 757 494 749 505 Q 739 518 717 523 Q 702 526 681 520 L 626 507 Q 586 497 550 487 Q 535 484 554 471 Q 563 464 581 467 Q 603 471 627 474 L 677 482 Z" class="stroke11"/>
    <path d="M 675 382 Q 711 388 745 391 C 775 394 787 412 758 419 Q 730 428 676 413 L 627 403 Q 584 396 545 387 C 516 380 516 363 546 365 Q 559 365 627 375 L 675 382 Z" class="stroke12"/>
    <path d="M 676 239 Q 764 249 895 250 Q 956 247 964 259 Q 968 271 952 285 Q 898 324 858 316 Q 788 301 676 280 L 627 273 Q 515 257 385 239 Q 363 236 379 219 Q 410 191 462 202 Q 538 223 626 232 L 676 239 Z" class="stroke13"/>
    <path d="M 631 -25 Q 635 -49 642 -57 Q 648 -64 655 -62 Q 670 -53 674 3 Q 680 69 676 239 L 676 280 Q 675 325 675 382 L 676 413 Q 676 438 677 467 Q 677 476 677 482 L 681 520 Q 684 536 687 550 Q 690 566 677 575 Q 661 585 650 591 C 624 606 584 606 600 580 Q 603 577 613 558 Q 625 537 626 507 L 627 474 Q 627 441 627 403 L 627 375 Q 627 329 627 273 L 626 232 Q 626 13 631 -25 Z" class="stroke14"/>
    
    
    
    
    
    
    
    
    
    
    
    
    
    </g>
</svg>