<svg version="1.1" viewBox="0 0 1024 1024" xmlns="http://www.w3.org/2000/svg">
  
  <g transform="scale(1, -1) translate(0, -900)">
    <style type="text/css">
        .stroke1 {fill: #808080;}
        .stroke2 {fill: #808079;}
        .stroke3 {fill: #808078;}
        .stroke4 {fill: #808077;}
        .stroke5 {fill: #808076;}
        .stroke6 {fill: #808075;}
        .stroke7 {fill: #808074;}
        .stroke8 {fill: #808073;}
        .stroke9 {fill: #808072;}
        .stroke10 {fill: #808071;}
        .stroke11 {fill: #808070;}
        .stroke12 {fill: #808069;}
        .stroke13 {fill: #808068;}
        .stroke14 {fill: #808067;}
        .stroke15 {fill: #808066;}
        .stroke16 {fill: #808065;}
        .stroke17 {fill: #808064;}
        .stroke18 {fill: #808063;}
        .stroke19 {fill: #808062;}
        .stroke20 {fill: #808061;}
        text {
            font-family: Helvetica;
            font-size: 50px;
            fill: #808060;
            paint-order: stroke;
            stroke: #000000;
            stroke-width: 4px;
            stroke-linecap: butt;
            stroke-linejoin: miter;
            font-weight: 800;
        }
    </style>

    <path d="M 145 516 Q 135 520 110 524 Q 100 527 96 522 Q 92 516 99 502 Q 124 456 140 377 Q 143 353 157 338 Q 173 319 178 333 Q 181 343 180 357 L 177 387 Q 162 462 160 487 C 158 512 158 512 145 516 Z" class="stroke1"/>
    <path d="M 377 417 Q 398 484 428 505 Q 441 521 429 536 Q 365 587 319 560 Q 297 553 277 544 L 233 533 Q 188 523 145 516 C 115 511 131 480 160 487 Q 167 488 178 492 Q 205 499 234 503 L 277 513 Q 298 519 321 523 Q 340 527 347 520 Q 354 513 353 499 Q 346 460 337 427 C 329 398 368 389 377 417 Z" class="stroke2"/>
    <path d="M 275 375 Q 318 382 382 391 Q 392 392 393 401 Q 393 407 377 417 C 359 429 359 429 337 427 Q 322 427 275 410 L 235 400 Q 204 393 177 387 C 148 380 150 353 180 357 Q 183 357 235 367 L 275 375 Z" class="stroke3"/>
    <path d="M 272 245 Q 273 312 275 375 L 275 410 Q 276 462 277 513 L 277 544 Q 277 596 295 705 Q 298 715 278 729 Q 244 747 220 750 Q 204 753 196 744 Q 189 737 197 722 Q 227 680 227 652 Q 231 594 233 533 L 234 503 Q 235 454 235 400 L 235 367 Q 234 303 232 233 C 231 203 272 215 272 245 Z" class="stroke4"/>
    <path d="M 347 268 Q 310 258 272 245 L 232 233 Q 174 218 116 201 Q 98 195 70 196 Q 57 195 56 185 Q 53 172 62 165 Q 84 149 115 132 Q 125 128 137 137 Q 161 155 330 233 Q 343 239 356 246 C 383 260 376 276 347 268 Z" class="stroke5"/>
    <path d="M 356 246 Q 368 206 381 198 Q 387 195 394 201 Q 401 208 405 228 Q 409 244 392 269 Q 350 317 340 318 Q 336 317 333 309 Q 333 306 347 268 L 356 246 Z" class="stroke6"/>
    <path d="M 537 676 Q 518 691 494 698 Q 481 702 472 697 Q 465 691 471 677 Q 492 637 501 596 Q 508 553 521 383 C 523 353 562 358 560 388 Q 553 481 553 646 C 553 664 553 664 537 676 Z" class="stroke7"/>
    <path d="M 785 433 Q 792 610 840 670 Q 855 692 838 708 Q 754 759 703 726 Q 625 696 537 676 C 508 669 525 636 553 646 Q 559 647 567 651 Q 640 669 710 686 Q 728 690 736 684 Q 757 669 752 592 L 750 561 Q 743 485 732 418 C 727 388 784 403 785 433 Z" class="stroke8"/>
    <path d="M 657 546 Q 706 556 750 561 C 780 564 780 582 752 592 L 751 593 Q 729 596 649 570 C 620 561 628 540 657 546 Z" class="stroke9"/>
    <path d="M 657 404 Q 657 473 657 546 C 657 564 657 564 649 570 Q 633 583 619 590 Q 610 591 603 589 Q 597 585 600 577 Q 610 552 617 472 Q 618 442 623 398 C 626 368 657 374 657 404 Z" class="stroke10"/>
    <path d="M 455 376 Q 436 385 422 383 Q 410 379 416 369 Q 452 302 427 174 Q 415 129 417 123 Q 417 99 437 79 Q 444 67 452 73 Q 477 92 479 211 Q 479 278 482 346 C 483 365 483 365 455 376 Z" class="stroke11"/>
    <path d="M 482 346 Q 492 347 507 351 Q 790 409 834 388 Q 847 382 849 353 Q 853 215 841 109 Q 838 87 826 84 Q 814 80 755 94 Q 742 97 742 88 Q 743 79 760 69 Q 796 35 822 -2 Q 838 -20 854 -19 Q 869 -18 890 23 Q 915 65 915 108 Q 914 211 914 308 Q 913 345 931 375 Q 946 391 930 408 Q 911 427 867 445 Q 843 458 823 445 Q 807 441 785 433 L 732 418 Q 726 418 722 416 Q 688 410 657 404 L 623 398 Q 589 394 560 388 L 521 383 Q 481 379 455 376 C 425 373 453 340 482 346 Z" class="stroke12"/>
    <path d="M 570 301 Q 563 305 545 308 Q 535 311 532 307 Q 528 303 533 289 Q 552 250 562 186 Q 563 167 575 154 Q 588 136 593 148 Q 596 157 596 171 L 594 200 Q 587 258 587 277 Q 587 278 588 279 C 590 292 590 292 570 301 Z" class="stroke13"/>
    <path d="M 722 211 Q 738 259 756 272 Q 777 293 758 306 Q 742 316 721 332 Q 705 342 689 333 Q 665 320 634 313 Q 607 306 570 301 C 540 297 558 274 588 279 Q 628 286 664 293 Q 688 297 692 288 Q 696 284 691 261 Q 687 240 679 217 C 669 189 712 183 722 211 Z" class="stroke14"/>
    <path d="M 596 171 Q 603 171 613 172 Q 650 179 733 182 Q 742 183 743 190 Q 743 197 722 211 L 679 217 L 677 217 Q 631 207 594 200 C 565 194 566 170 596 171 Z" class="stroke15"/>
    
    
    
    
    
    
    
    
    
    
    
    
    
    
    </g>
</svg>