<svg version="1.1" viewBox="0 0 1024 1024" xmlns="http://www.w3.org/2000/svg">
  
  <g transform="scale(1, -1) translate(0, -900)">
    <style type="text/css">
        .stroke1 {fill: #808080;}
        .stroke2 {fill: #808079;}
        .stroke3 {fill: #808078;}
        .stroke4 {fill: #808077;}
        .stroke5 {fill: #808076;}
        .stroke6 {fill: #808075;}
        .stroke7 {fill: #808074;}
        .stroke8 {fill: #808073;}
        .stroke9 {fill: #808072;}
        .stroke10 {fill: #808071;}
        .stroke11 {fill: #808070;}
        .stroke12 {fill: #808069;}
        .stroke13 {fill: #808068;}
        .stroke14 {fill: #808067;}
        .stroke15 {fill: #808066;}
        .stroke16 {fill: #808065;}
        .stroke17 {fill: #808064;}
        .stroke18 {fill: #808063;}
        .stroke19 {fill: #808062;}
        .stroke20 {fill: #808061;}
        text {
            font-family: Helvetica;
            font-size: 50px;
            fill: #808060;
            paint-order: stroke;
            stroke: #000000;
            stroke-width: 4px;
            stroke-linecap: butt;
            stroke-linejoin: miter;
            font-weight: 800;
        }
    </style>

    <path d="M 276 807 Q 286 771 212 680 Q 176 637 130 591 Q 120 584 117 578 Q 113 568 125 568 Q 182 577 303 707 Q 318 731 344 748 Q 354 755 351 769 Q 350 781 327 805 Q 305 824 288 827 Q 272 828 276 807 Z" class="stroke1"/>
    <path d="M 235 421 Q 260 454 288 492 Q 313 534 337 553 Q 346 562 342 574 Q 339 586 315 608 Q 291 627 275 627 Q 257 626 264 606 Q 274 578 262 554 Q 202 428 44 259 Q 34 250 32 245 Q 28 235 41 237 Q 80 243 212 393 L 235 421 Z" class="stroke2"/>
    <path d="M 212 393 Q 213 386 218 380 Q 251 311 213 126 Q 192 96 227 33 Q 230 29 234 23 Q 250 8 262 33 Q 275 72 275 115 Q 276 298 283 339 Q 290 364 281 374 Q 250 411 235 421 C 212 440 200 421 212 393 Z" class="stroke3"/>
    <path d="M 437 657 Q 459 635 483 609 Q 496 596 512 595 Q 522 596 529 609 Q 533 624 526 653 Q 522 672 493 686 Q 423 713 412 707 Q 408 703 408 690 Q 411 680 437 657 Z" class="stroke4"/>
    <path d="M 361 489 Q 401 444 434 428 Q 447 425 456 437 Q 460 447 458 463 Q 446 500 372 522 Q 357 526 349 523 Q 343 522 346 511 Q 347 501 361 489 Z" class="stroke5"/>
    <path d="M 355 216 Q 343 213 345 197 Q 354 131 383 112 Q 389 105 398 107 Q 405 108 407 130 Q 413 166 516 391 Q 523 404 522 411 Q 522 420 514 414 Q 502 408 392 251 Q 380 233 355 216 Z" class="stroke6"/>
    <path d="M 623 671 Q 583 661 614 644 Q 671 623 725 643 Q 768 653 814 667 Q 835 673 838 676 Q 847 686 841 695 Q 831 708 798 713 Q 764 716 731 700 Q 709 690 683 683 Q 656 676 623 671 Z" class="stroke7"/>
    <path d="M 731 483 Q 731 484 735 484 Q 844 496 956 509 Q 966 512 970 518 Q 974 530 957 542 Q 900 578 838 555 Q 699 519 550 486 Q 531 482 546 467 Q 561 455 579 452 Q 600 448 615 454 Q 648 466 688 474 L 731 483 Z" class="stroke8"/>
    <path d="M 662 73 Q 640 79 613 84 Q 600 87 601 80 Q 602 73 612 63 Q 673 15 716 -27 Q 728 -36 741 -20 Q 781 37 775 112 Q 763 314 768 419 Q 774 447 768 456 Q 759 468 731 483 C 705 498 674 501 688 474 Q 689 470 695 461 Q 707 437 707 397 Q 710 312 713 118 Q 712 84 702 72 Q 692 65 662 73 Z" class="stroke9"/>
    
    
    
    
    
    
    
    
    </g>
</svg>