<svg version="1.1" viewBox="0 0 1024 1024" xmlns="http://www.w3.org/2000/svg">
  
  <g transform="scale(1, -1) translate(0, -900)">
    <style type="text/css">
        .stroke1 {fill: #808080;}
        .stroke2 {fill: #808079;}
        .stroke3 {fill: #808078;}
        .stroke4 {fill: #808077;}
        .stroke5 {fill: #808076;}
        .stroke6 {fill: #808075;}
        .stroke7 {fill: #808074;}
        .stroke8 {fill: #808073;}
        .stroke9 {fill: #808072;}
        .stroke10 {fill: #808071;}
        .stroke11 {fill: #808070;}
        .stroke12 {fill: #808069;}
        .stroke13 {fill: #808068;}
        .stroke14 {fill: #808067;}
        .stroke15 {fill: #808066;}
        .stroke16 {fill: #808065;}
        .stroke17 {fill: #808064;}
        .stroke18 {fill: #808063;}
        .stroke19 {fill: #808062;}
        .stroke20 {fill: #808061;}
        text {
            font-family: Helvetica;
            font-size: 50px;
            fill: #808060;
            paint-order: stroke;
            stroke: #000000;
            stroke-width: 4px;
            stroke-linecap: butt;
            stroke-linejoin: miter;
            font-weight: 800;
        }
    </style>

    <path d="M 248 800 Q 257 764 174 662 Q 135 616 82 566 Q 72 559 69 554 Q 65 544 77 544 Q 140 553 277 702 Q 299 729 315 740 Q 325 747 323 761 Q 322 773 299 797 Q 277 816 261 820 Q 243 820 248 800 Z" class="stroke1"/>
    <path d="M 225 446 Q 294 548 310 561 Q 319 570 315 583 Q 312 595 287 616 Q 263 634 246 634 Q 230 633 236 613 Q 246 588 236 566 Q 182 445 51 296 Q 41 286 39 281 Q 36 271 49 273 Q 83 279 197 411 L 225 446 Z" class="stroke2"/>
    <path d="M 197 411 Q 222 359 197 192 Q 176 101 182 76 Q 182 52 203 31 Q 219 16 230 41 Q 243 78 243 119 Q 250 330 258 378 Q 265 403 256 412 Q 240 431 225 446 C 204 468 186 439 197 411 Z" class="stroke3"/>
    <path d="M 553 530 Q 631 555 633 558 Q 640 565 636 574 Q 629 584 601 588 Q 579 592 559 583 L 514 564 Q 486 554 460 545 Q 451 544 443 540 L 401 529 Q 376 525 350 519 Q 316 510 342 497 Q 361 488 403 487 L 443 498 Q 474 508 511 517 L 553 530 Z" class="stroke4"/>
    <path d="M 443 540 Q 443 594 449 625 Q 452 646 440 657 Q 419 675 395 684 Q 382 688 374 683 Q 367 679 372 664 Q 393 619 401 529 L 403 487 Q 404 448 407 394 C 409 364 445 372 444 402 Q 443 456 443 498 L 443 540 Z" class="stroke5"/>
    <path d="M 541 426 Q 545 480 553 530 L 559 583 Q 568 698 589 753 Q 592 763 575 777 Q 544 796 522 801 Q 507 805 500 798 Q 493 791 499 777 Q 518 746 518 724 Q 518 648 514 564 L 511 517 Q 507 468 502 415 C 499 385 539 396 541 426 Z" class="stroke6"/>
    <path d="M 407 394 Q 352 384 292 370 Q 276 367 289 355 Q 313 334 345 343 Q 483 394 648 393 L 650 393 Q 666 394 669 401 Q 672 411 659 421 Q 613 448 557 431 Q 550 430 541 426 L 502 415 Q 480 412 455 405 Q 448 404 444 402 L 407 394 Z" class="stroke7"/>
    <path d="M 384 305 Q 378 256 276 155 Q 258 142 282 145 Q 336 152 415 240 Q 415 243 449 278 Q 458 288 455 297 Q 452 309 428 314 Q 403 321 392 318 Q 385 317 384 305 Z" class="stroke8"/>
    <path d="M 529 314 Q 560 265 596 198 Q 606 177 617 170 Q 624 167 633 174 Q 646 183 645 222 Q 646 258 592 301 Q 556 328 537 340 Q 530 347 526 337 Q 522 325 529 314 Z" class="stroke9"/>
    <path d="M 681 659 Q 645 649 674 635 Q 720 614 774 636 Q 816 648 860 661 Q 879 668 882 671 Q 891 681 885 688 Q 876 700 845 703 Q 817 706 742 674 Q 715 667 681 659 Z" class="stroke10"/>
    <path d="M 767 501 Q 831 519 945 519 Q 961 520 965 528 Q 969 538 954 548 Q 906 581 855 561 Q 768 540 637 511 Q 621 508 633 495 Q 655 479 703 487 Q 713 490 728 492 L 767 501 Z" class="stroke11"/>
    <path d="M 728 492 Q 744 422 746 418 Q 745 417 746 413 Q 755 113 739 89 Q 726 82 696 89 Q 671 95 640 100 Q 628 103 629 96 Q 630 89 641 79 Q 711 31 754 -8 Q 766 -17 779 0 Q 818 55 812 132 Q 800 321 808 435 Q 814 462 808 472 Q 799 485 767 501 C 741 515 721 521 728 492 Z" class="stroke12"/>
    
    
    
    
    
    
    
    
    
    
    
    </g>
</svg>