<svg version="1.1" viewBox="0 0 1024 1024" xmlns="http://www.w3.org/2000/svg">
  
  <g transform="scale(1, -1) translate(0, -900)">
    <style type="text/css">
        .stroke1 {fill: #808080;}
        .stroke2 {fill: #808079;}
        .stroke3 {fill: #808078;}
        .stroke4 {fill: #808077;}
        .stroke5 {fill: #808076;}
        .stroke6 {fill: #808075;}
        .stroke7 {fill: #808074;}
        .stroke8 {fill: #808073;}
        .stroke9 {fill: #808072;}
        .stroke10 {fill: #808071;}
        .stroke11 {fill: #808070;}
        .stroke12 {fill: #808069;}
        .stroke13 {fill: #808068;}
        .stroke14 {fill: #808067;}
        .stroke15 {fill: #808066;}
        .stroke16 {fill: #808065;}
        .stroke17 {fill: #808064;}
        .stroke18 {fill: #808063;}
        .stroke19 {fill: #808062;}
        .stroke20 {fill: #808061;}
        text {
            font-family: Helvetica;
            font-size: 50px;
            fill: #808060;
            paint-order: stroke;
            stroke: #000000;
            stroke-width: 4px;
            stroke-linecap: butt;
            stroke-linejoin: miter;
            font-weight: 800;
        }
    </style>

    <path d="M 323 749 Q 351 727 381 700 Q 397 687 413 689 Q 423 690 429 704 Q 433 720 422 751 Q 410 782 315 799 Q 299 803 292 799 Q 286 795 289 781 Q 293 771 323 749 Z" class="stroke1"/>
    <path d="M 276 327 Q 307 373 343 433 Q 374 490 419 527 Q 434 540 421 554 Q 400 567 370 576 Q 348 583 331 571 Q 259 517 113 496 Q 101 497 99 490 Q 96 480 111 470 Q 150 448 166 451 Q 185 455 205 466 Q 247 485 296 509 Q 311 516 315 509 Q 321 500 310 477 Q 244 329 83 156 Q 68 144 72 141 Q 75 138 88 144 Q 169 189 252 294 L 276 327 Z" class="stroke2"/>
    <path d="M 252 294 Q 279 228 246 70 Q 230 22 264 -26 Q 265 -27 267 -29 Q 283 -44 294 -19 Q 307 18 307 59 Q 308 218 314 254 Q 321 279 312 288 Q 282 322 276 327 C 255 348 242 322 252 294 Z" class="stroke3"/>
    <path d="M 386 347 Q 428 386 451 401 Q 461 405 458 413 Q 454 423 438 433 Q 425 443 409 443 Q 399 442 402 428 Q 405 416 370 352 C 356 326 364 327 386 347 Z" class="stroke4"/>
    <path d="M 370 352 Q 349 361 340 358 Q 336 357 337 347 Q 338 341 411 276 Q 420 267 431 267 Q 438 268 442 277 Q 445 287 439 307 Q 433 329 386 347 L 370 352 Z" class="stroke5"/>
    <path d="M 611 746 Q 627 774 643 795 Q 652 807 638 820 Q 598 850 574 844 Q 564 843 567 828 Q 582 759 513 672 Q 497 651 488 639 Q 481 626 495 630 Q 540 636 599 725 L 611 746 Z" class="stroke6"/>
    <path d="M 599 725 Q 638 704 688 716 Q 746 728 807 740 Q 835 746 839 750 Q 846 757 843 765 Q 836 775 810 782 Q 782 788 755 777 Q 724 767 690 758 Q 653 751 611 746 C 581 742 572 738 599 725 Z" class="stroke7"/>
    <path d="M 546 601 Q 537 605 520 609 Q 510 613 506 608 Q 502 604 507 590 Q 507 589 509 583 Q 531 520 539 420 Q 539 389 555 367 Q 568 348 574 360 Q 577 367 579 379 L 580 404 L 578 428 Q 575 453 572 474 L 570 498 Q 564 558 564 576 C 564 594 564 594 546 601 Z" class="stroke8"/>
    <path d="M 692 392 Q 710 368 725 362 Q 735 355 748 376 Q 761 401 780 541 Q 787 569 806 593 Q 816 605 806 617 Q 791 630 752 652 Q 739 658 676 639 Q 652 639 546 601 C 518 591 536 565 564 576 Q 691 625 718 610 Q 734 600 731 580 Q 718 450 708 429 Q 704 419 694 415 C 681 405 681 405 692 392 Z" class="stroke9"/>
    <path d="M 572 474 Q 626 483 666 491 Q 685 495 677 506 Q 667 516 646 520 Q 613 523 570 498 C 544 483 542 469 572 474 Z" class="stroke10"/>
    <path d="M 579 379 Q 645 388 692 392 C 722 395 721 401 694 415 Q 687 419 675 422 Q 647 426 580 404 C 551 395 549 375 579 379 Z" class="stroke11"/>
    <path d="M 610 310 Q 598 328 578 336 Q 562 342 553 341 Q 546 340 547 330 Q 548 320 545 303 Q 544 303 543 301 Q 542 300 543 297 Q 501 207 386 111 Q 377 105 369 97 Q 362 94 371 91 Q 416 91 505 170 Q 508 174 514 179 Q 526 192 541 208 L 558 227 Q 573 248 599 279 C 617 301 617 301 610 310 Z" class="stroke12"/>
    <path d="M 632 129 Q 565 56 444 23 Q 431 19 442 11 Q 448 7 487 9 Q 587 18 663 96 L 688 127 Q 719 173 749 241 Q 762 266 781 283 Q 800 296 789 309 Q 777 321 750 333 Q 728 342 703 331 Q 678 324 646 316 Q 630 313 610 310 C 580 305 569 277 599 279 Q 612 279 630 282 Q 675 295 683 295 Q 705 289 695 266 Q 679 203 652 158 L 632 129 Z" class="stroke13"/>
    <path d="M 541 208 Q 568 201 632 129 L 663 96 Q 747 12 809 -36 Q 837 -55 877 -45 Q 929 -32 967 -24 Q 980 -21 991 -15 Q 997 -8 985 0 Q 972 6 857 33 Q 785 48 688 127 L 652 158 Q 627 180 600 206 Q 582 224 558 227 C 529 234 514 221 541 208 Z" class="stroke14"/>
    
    
    
    
    
    
    
    
    
    
    
    
    
    </g>
</svg>