<svg version="1.1" viewBox="0 0 1024 1024" xmlns="http://www.w3.org/2000/svg">
  
  <g transform="scale(1, -1) translate(0, -900)">
    <style type="text/css">
        .stroke1 {fill: #808080;}
        .stroke2 {fill: #808079;}
        .stroke3 {fill: #808078;}
        .stroke4 {fill: #808077;}
        .stroke5 {fill: #808076;}
        .stroke6 {fill: #808075;}
        .stroke7 {fill: #808074;}
        .stroke8 {fill: #808073;}
        .stroke9 {fill: #808072;}
        .stroke10 {fill: #808071;}
        .stroke11 {fill: #808070;}
        .stroke12 {fill: #808069;}
        .stroke13 {fill: #808068;}
        .stroke14 {fill: #808067;}
        .stroke15 {fill: #808066;}
        .stroke16 {fill: #808065;}
        .stroke17 {fill: #808064;}
        .stroke18 {fill: #808063;}
        .stroke19 {fill: #808062;}
        .stroke20 {fill: #808061;}
        text {
            font-family: Helvetica;
            font-size: 50px;
            fill: #808060;
            paint-order: stroke;
            stroke: #000000;
            stroke-width: 4px;
            stroke-linecap: butt;
            stroke-linejoin: miter;
            font-weight: 800;
        }
    </style>

    <path d="M 243 751 Q 265 730 289 704 Q 302 691 320 691 Q 330 691 337 705 Q 341 720 333 751 Q 329 770 299 783 Q 229 810 216 803 Q 210 799 212 786 Q 216 773 243 751 Z" class="stroke1"/>
    <path d="M 208 374 Q 302 531 329 554 Q 342 564 330 577 Q 312 590 286 598 Q 265 605 251 593 Q 181 542 58 530 Q 48 531 45 524 Q 42 515 56 506 Q 90 484 106 487 Q 115 490 220 534 Q 233 538 237 534 Q 243 527 233 505 Q 176 370 38 214 Q 25 204 29 200 Q 32 199 42 204 Q 114 246 186 343 L 208 374 Z" class="stroke2"/>
    <path d="M 186 343 Q 213 316 194 146 Q 178 67 183 42 Q 183 20 204 -2 Q 220 -15 230 8 Q 243 42 242 83 Q 243 261 249 301 Q 256 325 247 334 Q 231 352 220 364 Q 214 371 208 374 C 184 392 170 368 186 343 Z" class="stroke3"/>
    <path d="M 287 396 Q 309 418 343 446 Q 353 450 349 457 Q 330 481 304 479 Q 297 478 299 466 Q 303 454 282 404 Q 281 403 280 399 C 276 385 276 385 287 396 Z" class="stroke4"/>
    <path d="M 280 399 Q 265 408 256 406 Q 253 405 253 396 Q 253 393 299 339 Q 306 330 316 330 Q 322 329 326 337 Q 330 344 327 363 Q 324 381 287 396 L 280 399 Z" class="stroke5"/>
    <path d="M 466 775 Q 502 726 526 714 Q 539 710 548 721 Q 554 731 553 746 Q 546 785 498 801 Q 470 816 458 811 Q 452 810 453 799 Q 454 789 466 775 Z" class="stroke6"/>
    <path d="M 365 626 Q 337 620 358 608 Q 388 593 472 612 Q 506 621 544 631 Q 569 638 572 641 Q 579 648 575 655 Q 568 664 545 669 Q 520 672 497 661 Q 469 651 439 641 Q 405 632 365 626 Z" class="stroke7"/>
    <path d="M 387 549 Q 405 491 425 483 Q 435 479 444 490 Q 448 500 447 517 Q 441 544 398 568 Q 391 571 388 563 Q 384 557 387 549 Z" class="stroke8"/>
    <path d="M 520 484 Q 532 505 545 529 Q 552 542 564 561 Q 574 571 568 578 Q 561 591 538 604 Q 528 611 515 607 Q 508 603 513 595 Q 522 568 486 473 Q 485 473 485 472 C 471 445 505 458 520 484 Z" class="stroke9"/>
    <path d="M 451 431 Q 499 446 559 458 Q 566 458 571 467 Q 571 474 556 480 Q 531 489 520 484 L 485 472 Q 374 442 361 439 Q 342 435 358 425 Q 374 415 412 421 Q 418 422 427 424 L 451 431 Z" class="stroke10"/>
    <path d="M 486 332 Q 511 341 540 349 Q 565 356 569 360 Q 575 367 571 372 Q 565 379 544 383 Q 529 386 488 369 L 440 351 Q 407 342 371 335 Q 346 328 365 318 Q 398 306 433 317 Q 436 318 440 318 L 486 332 Z" class="stroke11"/>
    <path d="M 484 276 Q 484 306 486 332 L 488 369 Q 488 373 489 375 Q 493 396 489 404 Q 482 414 453 431 Q 452 432 451 431 C 424 445 418 447 427 424 Q 427 418 433 409 Q 439 391 440 351 L 440 318 Q 440 257 440 150 Q 439 123 430 113 Q 421 109 399 115 Q 390 115 379 115 Q 369 118 369 112 Q 370 106 378 99 Q 415 63 439 36 Q 449 29 459 41 Q 492 80 488 144 Q 485 243 484 256 L 484 276 Z" class="stroke12"/>
    <path d="M 348 261 Q 327 222 301 187 Q 282 165 296 135 Q 300 120 318 129 Q 360 157 365 215 Q 371 240 367 260 Q 363 267 358 268 Q 351 268 348 261 Z" class="stroke13"/>
    <path d="M 484 256 Q 536 211 551 212 Q 561 213 563 226 Q 563 235 555 248 Q 537 269 484 276 C 456 280 461 276 484 256 Z" class="stroke14"/>
    <path d="M 639 312 Q 640 316 643 322 L 647 349 Q 648 365 647 391 Q 646 409 646 425 L 646 449 Q 646 492 646 523 L 646 545 Q 646 626 648 630 C 650 646 650 646 639 654 Q 632 661 611 670 Q 604 673 594 670 Q 590 666 594 657 Q 595 650 599 643 Q 621 592 610 427 Q 597 348 611 321 Q 614 317 618 311 C 631 292 631 292 639 312 Z" class="stroke15"/>
    <path d="M 759 337 L 779 307 Q 794 285 801 288 Q 810 289 820 313 Q 830 340 828 374 Q 813 608 834 648 Q 844 664 836 675 Q 829 685 782 697 Q 760 704 744 695 Q 686 667 639 654 C 610 645 619 623 648 630 Q 675 636 724 654 Q 752 664 764 655 Q 774 646 774 611 Q 780 466 776 386 Q 779 364 760 367 Q 753 368 751 366 C 740 365 742 362 759 337 Z" class="stroke16"/>
    <path d="M 646 523 Q 647 522 656 523 Q 702 535 736 543 Q 754 549 746 558 Q 736 568 714 570 Q 687 570 646 545 C 620 530 616 527 646 523 Z" class="stroke17"/>
    <path d="M 646 425 Q 700 434 741 439 Q 760 443 753 454 Q 743 466 723 468 Q 696 471 646 449 C 618 437 616 420 646 425 Z" class="stroke18"/>
    <path d="M 643 322 Q 680 331 759 337 C 789 339 778 354 751 366 Q 741 372 720 366 Q 680 356 647 349 C 618 343 614 315 643 322 Z" class="stroke19"/>
    <path d="M 618 311 Q 615 308 619 300 Q 638 261 572 147 Q 545 101 508 54 Q 504 50 504 46 Q 505 42 509 43 Q 570 61 651 220 Q 654 239 674 265 Q 678 274 672 283 Q 659 302 639 312 C 618 324 618 324 618 311 Z" class="stroke20"/>
    <path d="M 709 218 Q 697 95 706 61 Q 709 43 724 28 Q 785 -24 915 -2 Q 916 -1 920 -1 Q 948 6 979 26 Q 997 41 985 65 Q 973 87 956 158 Q 956 174 949 178 Q 943 181 939 164 Q 914 88 897 65 Q 876 46 813 48 Q 789 49 770 58 Q 754 65 750 76 Q 731 118 761 260 Q 767 287 724 307 Q 712 311 704 307 Q 698 304 702 287 Q 712 251 709 218 Z" class="stroke21"/>
    
    
    
    
    
    
    
    
    
    
    
    
    
    
    
    
    
    
    
    
    </g>
</svg>