<svg version="1.1" viewBox="0 0 1024 1024" xmlns="http://www.w3.org/2000/svg">
  
  <g transform="scale(1, -1) translate(0, -900)">
    <style type="text/css">
        .stroke1 {fill: #808080;}
        .stroke2 {fill: #808079;}
        .stroke3 {fill: #808078;}
        .stroke4 {fill: #808077;}
        .stroke5 {fill: #808076;}
        .stroke6 {fill: #808075;}
        .stroke7 {fill: #808074;}
        .stroke8 {fill: #808073;}
        .stroke9 {fill: #808072;}
        .stroke10 {fill: #808071;}
        .stroke11 {fill: #808070;}
        .stroke12 {fill: #808069;}
        .stroke13 {fill: #808068;}
        .stroke14 {fill: #808067;}
        .stroke15 {fill: #808066;}
        .stroke16 {fill: #808065;}
        .stroke17 {fill: #808064;}
        .stroke18 {fill: #808063;}
        .stroke19 {fill: #808062;}
        .stroke20 {fill: #808061;}
        text {
            font-family: Helvetica;
            font-size: 50px;
            fill: #808060;
            paint-order: stroke;
            stroke: #000000;
            stroke-width: 4px;
            stroke-linecap: butt;
            stroke-linejoin: miter;
            font-weight: 800;
        }
    </style>

    <path d="M 372 791 Q 353 810 318 807 Q 305 803 311 791 Q 366 679 329 485 Q 323 463 314 444 Q 299 404 332 362 L 334 360 Q 341 347 352 354 Q 356 358 363 369 L 375 404 Q 384 438 384 510 L 384 541 Q 383 592 383 631 L 383 654 Q 383 732 385 762 Q 385 763 386 763 C 388 779 388 779 372 791 Z" class="stroke1"/>
    <path d="M 618 393 Q 619 381 628 369 Q 644 336 654 338 Q 670 339 687 376 Q 705 404 702 428 Q 689 528 691 684 Q 690 729 715 767 Q 727 783 718 794 Q 690 819 641 841 Q 625 847 601 838 Q 519 805 372 791 C 342 788 357 757 386 763 Q 497 788 577 799 Q 605 803 614 789 Q 632 767 631 687 Q 632 467 621 421 L 618 393 Z" class="stroke2"/>
    <path d="M 383 631 Q 413 624 489 640 Q 514 646 544 653 Q 565 657 568 661 Q 575 668 571 675 Q 564 684 541 689 Q 529 692 443 666 Q 415 659 383 654 C 353 649 353 636 383 631 Z" class="stroke3"/>
    <path d="M 384 510 Q 450 510 566 539 Q 566 540 567 540 Q 574 547 571 554 Q 564 564 539 570 Q 518 573 438 550 Q 435 550 384 541 C 354 536 354 510 384 510 Z" class="stroke4"/>
    <path d="M 552 389 Q 582 392 618 393 C 648 394 643 401 621 421 Q 615 427 606 433 Q 590 442 559 436 Q 459 414 375 404 C 345 400 333 368 363 369 Q 370 369 379 370 Q 422 379 497 385 L 552 389 Z" class="stroke5"/>
    <path d="M 376 327 Q 372 225 261 131 Q 258 131 257 128 Q 226 100 150 54 Q 141 47 148 43 Q 175 33 266 81 Q 348 121 421 240 Q 434 259 449 277 Q 458 284 454 296 Q 450 308 421 330 Q 402 346 391 345 Q 378 344 376 327 Z" class="stroke6"/>
    <path d="M 497 385 Q 518 346 514 287 Q 508 110 531 73 Q 577 -27 824 -7 Q 912 3 947 24 Q 978 40 966 74 Q 945 132 936 232 Q 933 248 926 254 Q 917 260 913 238 Q 900 114 882 91 Q 872 72 834 64 Q 785 55 716 55 Q 637 58 605 71 Q 575 86 568 104 Q 547 159 567 263 Q 573 302 582 323 Q 597 362 552 389 C 529 408 486 413 497 385 Z" class="stroke7"/>
    
    
    
    
    
    
    </g>
</svg>