<svg version="1.1" viewBox="0 0 1024 1024" xmlns="http://www.w3.org/2000/svg">
  
  <g transform="scale(1, -1) translate(0, -900)">
    <style type="text/css">
        .stroke1 {fill: #808080;}
        .stroke2 {fill: #808079;}
        .stroke3 {fill: #808078;}
        .stroke4 {fill: #808077;}
        .stroke5 {fill: #808076;}
        .stroke6 {fill: #808075;}
        .stroke7 {fill: #808074;}
        .stroke8 {fill: #808073;}
        .stroke9 {fill: #808072;}
        .stroke10 {fill: #808071;}
        .stroke11 {fill: #808070;}
        .stroke12 {fill: #808069;}
        .stroke13 {fill: #808068;}
        .stroke14 {fill: #808067;}
        .stroke15 {fill: #808066;}
        .stroke16 {fill: #808065;}
        .stroke17 {fill: #808064;}
        .stroke18 {fill: #808063;}
        .stroke19 {fill: #808062;}
        .stroke20 {fill: #808061;}
        text {
            font-family: Helvetica;
            font-size: 50px;
            fill: #808060;
            paint-order: stroke;
            stroke: #000000;
            stroke-width: 4px;
            stroke-linecap: butt;
            stroke-linejoin: miter;
            font-weight: 800;
        }
    </style>

    <path d="M 303 743 Q 330 721 357 692 Q 372 679 388 678 Q 398 679 405 693 Q 409 708 401 739 Q 395 760 364 774 Q 291 802 276 795 Q 270 791 272 778 Q 276 766 303 743 Z" class="stroke1"/>
    <path d="M 274 360 Q 305 403 339 457 Q 373 512 420 549 Q 435 561 423 575 Q 404 590 377 599 Q 355 608 339 597 Q 258 543 107 536 Q 97 537 93 530 Q 90 521 104 511 Q 140 484 173 493 Q 182 496 193 500 Q 310 545 314 537 Q 320 528 308 504 Q 229 348 64 183 Q 49 173 52 169 Q 55 166 68 172 Q 158 218 250 329 L 274 360 Z" class="stroke2"/>
    <path d="M 250 329 Q 283 253 248 88 Q 238 46 267 4 Q 268 1 271 -1 Q 287 -16 298 9 Q 311 46 311 87 Q 310 250 314 286 Q 321 311 312 320 Q 284 353 274 360 C 251 380 239 357 250 329 Z" class="stroke3"/>
    <path d="M 345 366 Q 393 294 414 291 Q 427 290 434 305 Q 437 317 430 336 Q 417 369 352 390 Q 343 393 341 382 Q 340 375 345 366 Z" class="stroke4"/>
    <path d="M 507 698 Q 498 707 479 713 Q 470 717 460 713 Q 453 709 458 697 Q 483 621 474 444 Q 459 353 476 329 Q 480 322 487 313 Q 497 300 506 312 Q 521 333 519 405 Q 520 640 523 656 Q 524 665 524 671 C 525 685 525 685 507 698 Z" class="stroke5"/>
    <path d="M 711 383 Q 704 361 718 338 Q 733 310 742 310 Q 757 311 772 345 Q 787 372 785 392 Q 772 477 771 609 Q 770 646 791 680 Q 801 696 793 705 Q 766 729 719 748 Q 704 752 620 720 Q 554 705 507 698 C 477 693 494 667 524 671 Q 533 671 616 689 Q 683 707 698 697 Q 708 675 714 611 Q 721 421 711 383 Z" class="stroke6"/>
    <path d="M 617 350 Q 624 396 633 494 Q 634 527 648 565 Q 652 575 646 581 Q 598 620 570 611 Q 554 604 566 590 Q 588 565 589 540 Q 589 420 573 341 Q 546 194 438 100 Q 411 81 374 54 Q 364 48 361 45 Q 357 41 371 39 Q 431 39 531 138 Q 544 156 558 175 Q 592 235 609 313 L 617 350 Z" class="stroke7"/>
    <path d="M 609 313 Q 621 282 617 240 Q 613 113 621 86 Q 630 55 652 38 Q 703 2 862 9 Q 935 12 965 28 Q 993 43 982 73 Q 964 119 954 202 Q 953 218 945 222 Q 938 226 934 207 Q 919 107 905 88 Q 881 60 776 55 Q 719 56 694 65 Q 672 75 667 89 Q 660 113 661 174 Q 665 241 679 273 Q 691 301 673 318 Q 636 346 617 350 C 596 359 601 342 609 313 Z" class="stroke8"/>
    
    
    
    
    
    
    
    </g>
</svg>