<svg version="1.1" viewBox="0 0 1024 1024" xmlns="http://www.w3.org/2000/svg">
  
  <g transform="scale(1, -1) translate(0, -900)">
    <style type="text/css">
        .stroke1 {fill: #808080;}
        .stroke2 {fill: #808079;}
        .stroke3 {fill: #808078;}
        .stroke4 {fill: #808077;}
        .stroke5 {fill: #808076;}
        .stroke6 {fill: #808075;}
        .stroke7 {fill: #808074;}
        .stroke8 {fill: #808073;}
        .stroke9 {fill: #808072;}
        .stroke10 {fill: #808071;}
        .stroke11 {fill: #808070;}
        .stroke12 {fill: #808069;}
        .stroke13 {fill: #808068;}
        .stroke14 {fill: #808067;}
        .stroke15 {fill: #808066;}
        .stroke16 {fill: #808065;}
        .stroke17 {fill: #808064;}
        .stroke18 {fill: #808063;}
        .stroke19 {fill: #808062;}
        .stroke20 {fill: #808061;}
        text {
            font-family: Helvetica;
            font-size: 50px;
            fill: #808060;
            paint-order: stroke;
            stroke: #000000;
            stroke-width: 4px;
            stroke-linecap: butt;
            stroke-linejoin: miter;
            font-weight: 800;
        }
    </style>

    <path d="M 339 776 Q 373 754 410 728 Q 426 716 442 719 Q 454 722 457 736 Q 460 752 446 782 Q 428 818 326 825 Q 310 826 304 823 Q 300 819 302 805 Q 308 795 339 776 Z" class="stroke1"/>
    <path d="M 84 570 Q 71 569 67 559 Q 64 549 81 536 Q 129 508 169 525 Q 308 579 469 608 Q 487 611 487 619 Q 487 634 467 642 Q 437 654 413 647 Q 175 581 84 570 Z" class="stroke2"/>
    <path d="M 254 467 Q 236 461 260 448 Q 269 442 286 447 Q 368 469 429 485 Q 453 492 442 504 Q 429 517 402 520 Q 375 520 254 467 Z" class="stroke3"/>
    <path d="M 262 363 Q 244 357 268 344 Q 275 338 292 342 Q 368 361 424 373 Q 449 380 438 392 Q 425 405 398 408 Q 371 409 262 363 Z" class="stroke4"/>
    <path d="M 233 244 Q 220 248 196 253 Q 184 256 181 251 Q 174 245 183 229 Q 210 174 225 81 Q 228 54 244 36 Q 262 14 267 29 Q 273 45 269 77 L 264 111 Q 251 195 251 217 C 250 239 250 239 233 244 Z" class="stroke5"/>
    <path d="M 422 141 Q 438 210 459 230 Q 481 258 457 271 Q 436 281 408 299 Q 386 311 347 283 Q 302 262 233 244 C 204 236 223 207 251 217 Q 257 220 346 244 Q 373 251 380 241 Q 386 237 380 206 Q 376 176 368 142 C 361 113 415 112 422 141 Z" class="stroke6"/>
    <path d="M 269 77 Q 276 77 284 79 Q 332 94 438 109 Q 448 110 449 120 Q 449 127 422 141 C 400 153 397 151 368 142 Q 310 123 264 111 C 235 103 239 75 269 77 Z" class="stroke7"/>
    <path d="M 667 575 Q 667 689 686 755 Q 699 782 673 802 Q 657 814 624 833 Q 599 851 577 833 Q 571 829 578 811 Q 614 760 614 701 Q 630 238 592 88 Q 580 49 609 -21 Q 616 -40 625 -43 Q 632 -50 639 -41 Q 648 -37 659 -14 Q 669 13 668 47 Q 667 98 667 548 L 667 575 Z" class="stroke8"/>
    <path d="M 667 548 Q 668 547 671 546 Q 768 497 887 418 Q 908 403 923 403 Q 932 403 936 415 Q 945 431 922 469 Q 891 530 667 575 C 638 581 640 562 667 548 Z" class="stroke9"/>
    
    
    
    
    
    
    
    
    </g>
</svg>