<svg version="1.1" viewBox="0 0 1024 1024" xmlns="http://www.w3.org/2000/svg">
  
  <g transform="scale(1, -1) translate(0, -900)">
    <style type="text/css">
        .stroke1 {fill: #808080;}
        .stroke2 {fill: #808079;}
        .stroke3 {fill: #808078;}
        .stroke4 {fill: #808077;}
        .stroke5 {fill: #808076;}
        .stroke6 {fill: #808075;}
        .stroke7 {fill: #808074;}
        .stroke8 {fill: #808073;}
        .stroke9 {fill: #808072;}
        .stroke10 {fill: #808071;}
        .stroke11 {fill: #808070;}
        .stroke12 {fill: #808069;}
        .stroke13 {fill: #808068;}
        .stroke14 {fill: #808067;}
        .stroke15 {fill: #808066;}
        .stroke16 {fill: #808065;}
        .stroke17 {fill: #808064;}
        .stroke18 {fill: #808063;}
        .stroke19 {fill: #808062;}
        .stroke20 {fill: #808061;}
        text {
            font-family: Helvetica;
            font-size: 50px;
            fill: #808060;
            paint-order: stroke;
            stroke: #000000;
            stroke-width: 4px;
            stroke-linecap: butt;
            stroke-linejoin: miter;
            font-weight: 800;
        }
    </style>

    <path d="M 352 756 Q 380 732 409 703 Q 424 690 440 690 Q 452 691 457 705 Q 461 720 452 751 Q 446 772 414 786 Q 339 814 324 807 Q 318 803 320 789 Q 324 779 352 756 Z" class="stroke1"/>
    <path d="M 105 580 Q 92 579 89 570 Q 85 560 101 548 Q 141 520 185 533 Q 311 578 456 598 Q 472 601 474 608 Q 475 621 456 630 Q 428 643 405 637 Q 192 589 105 580 Z" class="stroke2"/>
    <path d="M 264 479 Q 231 469 257 457 Q 296 444 355 462 Q 382 471 413 479 Q 428 483 430 486 Q 437 495 432 502 Q 425 512 397 515 Q 369 516 343 502 Q 327 495 308 489 Q 289 483 264 479 Z" class="stroke3"/>
    <path d="M 256 367 Q 223 357 249 345 Q 285 333 358 353 Q 382 360 411 370 Q 427 376 430 378 Q 437 387 432 394 Q 425 404 397 407 Q 381 407 305 379 Q 283 372 256 367 Z" class="stroke4"/>
    <path d="M 234 246 Q 222 252 193 256 Q 183 259 179 254 Q 173 248 181 233 Q 209 178 225 85 Q 229 57 245 39 Q 261 18 266 33 Q 273 52 266 92 L 261 122 Q 248 195 245 219 C 242 243 242 243 234 246 Z" class="stroke5"/>
    <path d="M 407 141 Q 426 205 447 223 Q 469 248 447 262 Q 428 272 402 291 Q 384 300 339 276 Q 279 255 234 246 C 205 240 216 213 245 219 Q 293 229 341 241 Q 366 247 372 237 Q 378 233 371 206 Q 365 178 357 146 C 350 117 398 112 407 141 Z" class="stroke6"/>
    <path d="M 266 92 Q 272 92 280 93 Q 323 103 417 111 Q 427 112 428 121 Q 428 128 407 141 L 357 146 L 356 146 Q 304 131 261 122 C 232 116 236 91 266 92 Z" class="stroke7"/>
    <path d="M 776 475 Q 816 592 861 622 Q 880 644 863 664 Q 844 680 783 707 Q 758 717 686 682 Q 587 649 536 640 Q 518 637 521 626 Q 525 617 546 612 Q 574 602 613 617 Q 674 632 733 647 Q 749 651 755 645 Q 774 621 719 481 C 708 453 766 447 776 475 Z" class="stroke8"/>
    <path d="M 591 404 Q 675 425 788 441 Q 801 442 801 453 Q 801 460 776 475 L 719 481 Q 715 482 712 480 Q 636 455 573 441 C 544 434 562 397 591 404 Z" class="stroke9"/>
    <path d="M 573 441 Q 525 477 510 472 Q 494 465 502 447 Q 524 408 520 350 Q 517 148 541 108 Q 572 50 673 33 Q 737 23 846 34 Q 937 47 972 69 Q 1003 87 989 120 Q 970 160 953 233 Q 949 249 942 254 Q 932 258 930 238 Q 917 150 905 133 Q 895 112 856 104 Q 706 74 619 103 Q 588 116 580 136 Q 567 169 566 252 Q 572 346 587 388 Q 590 397 591 404 C 597 424 597 424 573 441 Z" class="stroke10"/>
    
    
    
    
    
    
    
    
    
    </g>
</svg>