<svg version="1.1" viewBox="0 0 1024 1024" xmlns="http://www.w3.org/2000/svg">
  
  <g transform="scale(1, -1) translate(0, -900)">
    <style type="text/css">
        .stroke1 {fill: #808080;}
        .stroke2 {fill: #808079;}
        .stroke3 {fill: #808078;}
        .stroke4 {fill: #808077;}
        .stroke5 {fill: #808076;}
        .stroke6 {fill: #808075;}
        .stroke7 {fill: #808074;}
        .stroke8 {fill: #808073;}
        .stroke9 {fill: #808072;}
        .stroke10 {fill: #808071;}
        .stroke11 {fill: #808070;}
        .stroke12 {fill: #808069;}
        .stroke13 {fill: #808068;}
        .stroke14 {fill: #808067;}
        .stroke15 {fill: #808066;}
        .stroke16 {fill: #808065;}
        .stroke17 {fill: #808064;}
        .stroke18 {fill: #808063;}
        .stroke19 {fill: #808062;}
        .stroke20 {fill: #808061;}
        text {
            font-family: Helvetica;
            font-size: 50px;
            fill: #808060;
            paint-order: stroke;
            stroke: #000000;
            stroke-width: 4px;
            stroke-linecap: butt;
            stroke-linejoin: miter;
            font-weight: 800;
        }
    </style>

    <path d="M 297 801 Q 322 779 349 754 Q 364 741 380 742 Q 392 742 397 757 Q 401 773 391 803 Q 381 830 291 851 Q 275 854 268 851 Q 262 847 265 833 Q 269 823 297 801 Z" class="stroke1"/>
    <path d="M 71 614 Q 58 613 55 603 Q 52 591 69 580 Q 115 552 157 570 Q 280 619 425 648 Q 443 651 443 659 Q 444 674 423 682 Q 393 692 369 686 Q 150 626 71 614 Z" class="stroke2"/>
    <path d="M 198 515 Q 180 509 204 496 Q 211 492 228 495 Q 304 516 361 529 Q 385 536 374 548 Q 361 561 334 564 Q 309 564 267 547 Q 230 529 198 515 Z" class="stroke3"/>
    <path d="M 194 407 Q 176 401 200 388 Q 207 384 223 387 Q 295 405 349 417 Q 373 424 362 436 Q 349 449 322 452 Q 292 453 194 407 Z" class="stroke4"/>
    <path d="M 197 295 Q 184 301 156 304 Q 144 307 141 302 Q 134 296 143 280 Q 171 226 188 139 Q 192 112 208 95 Q 226 73 231 89 Q 237 105 232 138 L 226 171 Q 214 244 212 267 C 210 290 210 290 197 295 Z" class="stroke5"/>
    <path d="M 367 199 Q 382 260 400 279 Q 422 307 397 320 Q 376 330 348 347 Q 330 356 285 329 Q 243 310 197 295 C 169 286 184 256 212 267 Q 215 270 291 291 Q 315 298 320 288 Q 327 284 322 255 Q 318 230 313 201 C 308 171 360 170 367 199 Z" class="stroke6"/>
    <path d="M 232 138 Q 241 138 252 141 Q 292 154 379 168 Q 389 171 390 180 Q 390 187 367 199 L 313 201 Q 312 201 310 200 Q 262 181 226 171 C 197 163 202 137 232 138 Z" class="stroke7"/>
    <path d="M 634 768 Q 643 798 659 813 Q 666 820 662 830 Q 659 840 645 850 Q 629 862 608 865 Q 586 869 575 865 Q 566 861 570 849 Q 594 774 494 611 Q 491 608 490 605 Q 462 559 384 468 Q 377 461 387 461 Q 426 467 525 578 Q 580 659 623 745 L 634 768 Z" class="stroke8"/>
    <path d="M 623 745 Q 708 645 801 550 Q 823 528 861 526 Q 928 522 1000 534 Q 1019 535 1020 541 Q 1023 547 1008 553 Q 816 631 814 632 Q 751 668 680 728 Q 652 753 634 768 C 611 787 604 768 623 745 Z" class="stroke9"/>
    <path d="M 598 587 Q 604 496 495 390 Q 489 387 450 348 Q 440 333 456 337 Q 510 341 601 443 Q 631 491 676 541 Q 686 553 674 568 Q 635 607 609 603 Q 597 602 598 587 Z" class="stroke10"/>
    <path d="M 655 433 Q 651 346 529 251 Q 525 251 479 215 Q 469 202 483 204 Q 534 201 630 286 Q 675 334 721 382 Q 733 392 722 408 Q 692 444 666 447 Q 656 446 655 433 Z" class="stroke11"/>
    <path d="M 695 284 Q 691 151 509 4 Q 488 -5 423 -59 Q 411 -75 429 -72 Q 456 -71 494 -49 Q 615 21 689 120 Q 735 178 779 226 Q 792 238 779 257 Q 734 302 708 302 Q 695 301 695 284 Z" class="stroke12"/>
    
    
    
    
    
    
    
    
    
    
    
    </g>
</svg>