<svg version="1.1" viewBox="0 0 1024 1024" xmlns="http://www.w3.org/2000/svg">
  
  <g transform="scale(1, -1) translate(0, -900)">
    <style type="text/css">
        .stroke1 {fill: #808080;}
        .stroke2 {fill: #808079;}
        .stroke3 {fill: #808078;}
        .stroke4 {fill: #808077;}
        .stroke5 {fill: #808076;}
        .stroke6 {fill: #808075;}
        .stroke7 {fill: #808074;}
        .stroke8 {fill: #808073;}
        .stroke9 {fill: #808072;}
        .stroke10 {fill: #808071;}
        .stroke11 {fill: #808070;}
        .stroke12 {fill: #808069;}
        .stroke13 {fill: #808068;}
        .stroke14 {fill: #808067;}
        .stroke15 {fill: #808066;}
        .stroke16 {fill: #808065;}
        .stroke17 {fill: #808064;}
        .stroke18 {fill: #808063;}
        .stroke19 {fill: #808062;}
        .stroke20 {fill: #808061;}
        text {
            font-family: Helvetica;
            font-size: 50px;
            fill: #808060;
            paint-order: stroke;
            stroke: #000000;
            stroke-width: 4px;
            stroke-linecap: butt;
            stroke-linejoin: miter;
            font-weight: 800;
        }
    </style>

    <path d="M 320 782 Q 354 757 389 727 Q 405 715 421 717 Q 433 718 437 732 Q 441 748 429 779 Q 422 801 385 815 Q 301 840 288 831 Q 282 827 285 813 Q 289 803 320 782 Z" class="stroke1"/>
    <path d="M 88 570 Q 75 569 71 559 Q 68 547 85 536 Q 130 509 173 525 Q 309 577 449 604 Q 467 607 467 615 Q 468 630 447 638 Q 417 648 393 642 Q 171 582 88 570 Z" class="stroke2"/>
    <path d="M 251 475 Q 220 465 245 453 Q 287 437 335 457 Q 366 467 401 478 Q 417 484 419 486 Q 426 495 420 502 Q 413 512 385 514 Q 364 515 298 488 Q 277 481 251 475 Z" class="stroke3"/>
    <path d="M 247 360 Q 214 348 241 337 Q 283 322 330 342 Q 363 354 398 366 Q 413 372 415 374 Q 422 383 417 390 Q 408 400 381 402 Q 366 402 295 373 Q 271 366 247 360 Z" class="stroke4"/>
    <path d="M 228 250 Q 218 256 180 259 Q 167 260 165 255 Q 159 248 169 233 Q 200 184 225 102 Q 229 77 247 62 Q 266 43 270 58 Q 274 71 270 94 L 263 125 Q 244 198 239 223 C 234 248 234 248 228 250 Z" class="stroke5"/>
    <path d="M 406 149 Q 425 218 447 239 Q 469 264 446 278 Q 386 311 381 310 Q 372 310 364 304 Q 324 274 228 250 C 199 243 211 212 239 223 Q 252 229 340 253 Q 367 260 374 251 Q 377 248 357 156 C 351 127 398 120 406 149 Z" class="stroke6"/>
    <path d="M 270 94 Q 280 93 292 96 Q 331 108 415 121 Q 425 122 426 132 Q 426 139 406 149 C 383 161 383 161 357 156 Q 350 155 346 153 Q 300 135 263 125 C 234 117 240 95 270 94 Z" class="stroke7"/>
    <path d="M 572 557 Q 573 560 576 562 Q 619 623 666 713 Q 685 756 704 777 Q 713 787 706 802 Q 702 815 670 835 Q 642 851 622 849 Q 603 845 613 824 Q 653 752 471 475 Q 467 471 464 464 Q 455 452 453 446 Q 450 434 465 438 Q 492 450 560 539 L 572 557 Z" class="stroke8"/>
    <path d="M 666 525 Q 665 526 667 526 Q 925 586 935 595 Q 945 604 939 612 Q 932 624 902 631 Q 871 635 841 623 Q 784 602 724 585 Q 657 569 577 558 Q 574 558 572 557 C 542 552 533 551 560 539 Q 599 521 630 520 C 645 519 645 519 666 525 Z" class="stroke9"/>
    <path d="M 697 265 Q 697 326 698 389 L 699 413 Q 700 458 705 481 Q 708 494 700 501 Q 682 516 666 525 C 641 541 616 546 630 520 Q 663 487 642 180 Q 639 144 635 116 Q 634 86 629 72 Q 620 32 655 -22 Q 668 -41 676 -47 Q 688 -48 694 -34 Q 707 0 703 32 Q 699 141 698 236 L 697 265 Z" class="stroke10"/>
    <path d="M 698 389 Q 743 371 794 388 Q 827 395 860 405 Q 875 409 877 411 Q 886 420 880 428 Q 873 440 842 445 Q 811 448 781 433 Q 765 427 746 422 Q 727 418 703 415 Q 699 415 699 413 C 671 401 670 399 698 389 Z" class="stroke11"/>
    <path d="M 698 236 Q 734 224 821 238 Q 855 245 891 251 Q 915 255 919 259 Q 928 266 923 276 Q 916 288 886 295 Q 855 302 824 289 Q 797 282 768 275 Q 737 268 698 266 Q 697 266 697 265 C 668 259 669 244 698 236 Z" class="stroke12"/>
    
    
    
    
    
    
    
    
    
    
    
    </g>
</svg>