<svg version="1.1" viewBox="0 0 1024 1024" xmlns="http://www.w3.org/2000/svg">
  
  <g transform="scale(1, -1) translate(0, -900)">
    <style type="text/css">
        .stroke1 {fill: #808080;}
        .stroke2 {fill: #808079;}
        .stroke3 {fill: #808078;}
        .stroke4 {fill: #808077;}
        .stroke5 {fill: #808076;}
        .stroke6 {fill: #808075;}
        .stroke7 {fill: #808074;}
        .stroke8 {fill: #808073;}
        .stroke9 {fill: #808072;}
        .stroke10 {fill: #808071;}
        .stroke11 {fill: #808070;}
        .stroke12 {fill: #808069;}
        .stroke13 {fill: #808068;}
        .stroke14 {fill: #808067;}
        .stroke15 {fill: #808066;}
        .stroke16 {fill: #808065;}
        .stroke17 {fill: #808064;}
        .stroke18 {fill: #808063;}
        .stroke19 {fill: #808062;}
        .stroke20 {fill: #808061;}
        text {
            font-family: Helvetica;
            font-size: 50px;
            fill: #808060;
            paint-order: stroke;
            stroke: #000000;
            stroke-width: 4px;
            stroke-linecap: butt;
            stroke-linejoin: miter;
            font-weight: 800;
        }
    </style>

    <path d="M 321 769 Q 343 748 367 723 Q 382 710 399 710 Q 411 710 416 725 Q 422 741 412 773 Q 403 801 316 822 Q 300 826 292 823 Q 286 819 288 805 Q 292 792 321 769 Z" class="stroke1"/>
    <path d="M 51 561 Q 38 558 35 550 Q 32 540 49 528 Q 91 503 133 518 Q 260 572 442 609 Q 458 613 459 620 Q 459 633 440 642 Q 412 652 388 645 Q 136 573 51 561 Z" class="stroke2"/>
    <path d="M 212 475 Q 179 465 205 453 Q 247 437 295 456 Q 326 465 358 475 Q 371 479 374 482 Q 381 491 376 498 Q 369 508 341 511 Q 328 511 254 485 Q 235 479 212 475 Z" class="stroke3"/>
    <path d="M 196 369 Q 165 360 189 348 Q 228 333 283 351 Q 311 360 343 368 Q 359 372 362 376 Q 369 383 364 390 Q 357 400 331 403 Q 304 406 246 380 Q 222 374 196 369 Z" class="stroke4"/>
    <path d="M 192 241 Q 182 248 154 253 Q 142 257 139 252 Q 132 248 140 231 Q 165 170 176 70 Q 177 40 193 20 Q 209 -2 215 13 Q 222 34 218 74 L 213 110 Q 204 188 204 213 C 204 235 204 235 192 241 Z" class="stroke5"/>
    <path d="M 353 135 Q 372 202 395 222 Q 417 247 394 261 Q 331 294 329 294 Q 320 294 312 289 Q 279 265 192 241 C 163 233 177 200 204 213 Q 210 219 289 238 Q 314 245 321 235 Q 327 229 320 201 Q 313 173 303 140 C 294 111 345 106 353 135 Z" class="stroke6"/>
    <path d="M 218 74 Q 225 74 235 76 Q 275 89 366 102 Q 378 105 378 114 Q 378 121 353 135 L 303 140 Q 297 139 293 137 Q 250 121 213 110 C 184 101 188 72 218 74 Z" class="stroke7"/>
    <path d="M 632 698 Q 647 743 663 770 Q 669 777 665 787 Q 661 797 646 807 Q 604 829 573 817 Q 564 813 569 801 Q 602 720 500 531 Q 497 528 496 524 Q 466 472 387 365 Q 380 358 391 357 Q 451 378 549 523 Q 610 649 620 668 L 632 698 Z" class="stroke8"/>
    <path d="M 620 668 Q 630 658 639 644 Q 801 416 830 406 Q 896 406 959 421 Q 972 422 977 430 Q 981 436 972 440 Q 824 504 724 601 Q 684 640 637 692 Q 634 696 632 698 C 612 721 600 690 620 668 Z" class="stroke9"/>
    <path d="M 617 349 Q 738 379 743 382 Q 752 389 747 397 Q 740 407 713 414 Q 695 417 592 386 Q 537 374 483 366 Q 450 360 474 345 Q 516 326 574 339 L 617 349 Z" class="stroke10"/>
    <path d="M 637 194 Q 754 224 756 226 Q 763 233 759 241 Q 752 251 725 258 Q 701 261 639 239 L 587 224 Q 550 217 507 210 Q 474 203 498 189 Q 534 171 587 181 L 637 194 Z" class="stroke11"/>
    <path d="M 631 79 Q 634 140 637 194 L 639 239 Q 642 296 644 300 Q 651 318 642 328 Q 629 341 617 349 C 593 367 557 363 574 339 Q 577 335 581 329 Q 584 320 587 224 L 587 181 Q 587 138 587 73 C 587 43 630 49 631 79 Z" class="stroke12"/>
    <path d="M 587 73 Q 485 63 369 51 Q 347 50 363 31 Q 378 16 396 10 Q 418 4 435 8 Q 562 41 860 40 Q 876 40 892 38 Q 913 38 918 47 Q 924 59 907 73 Q 853 115 815 107 Q 745 94 631 79 L 587 73 Z" class="stroke13"/>
    
    
    
    
    
    
    
    
    
    
    
    
    </g>
</svg>