<svg version="1.1" viewBox="0 0 1024 1024" xmlns="http://www.w3.org/2000/svg">
  
  <g transform="scale(1, -1) translate(0, -900)">
    <style type="text/css">
        .stroke1 {fill: #808080;}
        .stroke2 {fill: #808079;}
        .stroke3 {fill: #808078;}
        .stroke4 {fill: #808077;}
        .stroke5 {fill: #808076;}
        .stroke6 {fill: #808075;}
        .stroke7 {fill: #808074;}
        .stroke8 {fill: #808073;}
        .stroke9 {fill: #808072;}
        .stroke10 {fill: #808071;}
        .stroke11 {fill: #808070;}
        .stroke12 {fill: #808069;}
        .stroke13 {fill: #808068;}
        .stroke14 {fill: #808067;}
        .stroke15 {fill: #808066;}
        .stroke16 {fill: #808065;}
        .stroke17 {fill: #808064;}
        .stroke18 {fill: #808063;}
        .stroke19 {fill: #808062;}
        .stroke20 {fill: #808061;}
        text {
            font-family: Helvetica;
            font-size: 50px;
            fill: #808060;
            paint-order: stroke;
            stroke: #000000;
            stroke-width: 4px;
            stroke-linecap: butt;
            stroke-linejoin: miter;
            font-weight: 800;
        }
    </style>

    <path d="M 338 774 Q 365 749 393 717 Q 406 704 423 703 Q 435 703 441 717 Q 447 732 439 764 Q 430 797 335 825 Q 319 829 312 827 Q 306 823 307 810 Q 311 798 338 774 Z" class="stroke1"/>
    <path d="M 86 584 Q 73 583 69 575 Q 66 563 81 552 Q 123 524 165 536 Q 294 579 448 598 Q 464 599 465 608 Q 466 621 448 631 Q 420 644 397 638 Q 187 593 86 584 Z" class="stroke2"/>
    <path d="M 225 479 Q 192 470 218 457 Q 257 438 307 456 Q 341 465 378 475 Q 394 479 397 482 Q 404 489 400 498 Q 393 508 365 512 Q 350 513 276 489 Q 252 483 225 479 Z" class="stroke3"/>
    <path d="M 206 371 Q 173 364 198 349 Q 237 331 288 345 Q 373 366 381 370 Q 388 377 383 385 Q 376 395 349 401 Q 328 404 258 380 Q 234 376 206 371 Z" class="stroke4"/>
    <path d="M 189 255 Q 179 259 149 264 Q 137 265 135 261 Q 129 255 138 240 Q 165 191 185 107 Q 189 82 204 66 Q 222 47 226 61 Q 230 74 228 98 L 222 129 Q 206 205 202 230 C 198 252 198 252 189 255 Z" class="stroke5"/>
    <path d="M 365 152 Q 386 213 407 231 Q 429 253 409 268 Q 391 280 367 297 Q 349 307 305 284 Q 253 266 189 255 C 159 250 173 224 202 230 Q 253 240 305 252 Q 332 258 337 247 Q 343 241 335 214 Q 328 187 317 155 C 307 127 355 124 365 152 Z" class="stroke6"/>
    <path d="M 228 98 Q 234 105 375 125 Q 384 126 385 134 Q 385 140 365 152 C 346 164 346 164 317 155 Q 265 139 222 129 C 193 122 201 85 228 98 Z" class="stroke7"/>
    <path d="M 650 619 Q 735 667 787 684 Q 806 688 808 696 Q 811 709 797 719 Q 772 734 721 748 Q 703 754 689 751 Q 682 745 682 734 Q 683 689 488 569 Q 484 559 490 556 Q 503 556 596 596 Q 600 597 607 600 L 650 619 Z" class="stroke8"/>
    <path d="M 673 425 Q 757 438 891 443 Q 948 447 953 454 Q 957 466 941 478 Q 884 517 825 497 Q 765 482 678 464 L 623 454 Q 533 439 435 422 Q 416 419 431 403 Q 444 390 462 386 Q 483 382 498 387 Q 555 405 621 416 L 673 425 Z" class="stroke9"/>
    <path d="M 652 272 Q 662 351 673 425 L 678 464 Q 678 480 702 573 Q 706 583 688 600 Q 669 613 650 619 C 622 629 592 626 607 600 Q 626 569 625 548 Q 625 503 623 454 L 621 416 Q 617 343 609 263 C 606 233 648 242 652 272 Z" class="stroke10"/>
    <path d="M 533 251 Q 523 258 483 265 Q 470 269 467 263 Q 460 257 469 240 Q 497 177 515 75 Q 518 45 535 24 Q 554 2 559 17 Q 563 32 563 55 L 559 94 Q 544 188 541 220 C 538 249 538 249 533 251 Z" class="stroke11"/>
    <path d="M 807 117 Q 834 201 867 224 Q 885 243 869 263 Q 796 323 734 296 Q 691 281 652 272 L 609 263 Q 570 257 533 251 C 503 246 512 214 541 220 L 733 256 Q 757 260 766 251 Q 776 241 773 221 Q 764 169 752 125 C 744 96 797 89 807 117 Z" class="stroke12"/>
    <path d="M 563 55 Q 572 55 581 56 Q 657 71 821 78 Q 833 79 835 89 Q 835 98 807 117 L 752 125 Q 751 126 749 125 Q 643 103 559 94 C 529 91 533 54 563 55 Z" class="stroke13"/>
    
    
    
    
    
    
    
    
    
    
    
    
    </g>
</svg>