<svg version="1.1" viewBox="0 0 1024 1024" xmlns="http://www.w3.org/2000/svg">
  
  <g transform="scale(1, -1) translate(0, -900)">
    <style type="text/css">
        .stroke1 {fill: #808080;}
        .stroke2 {fill: #808079;}
        .stroke3 {fill: #808078;}
        .stroke4 {fill: #808077;}
        .stroke5 {fill: #808076;}
        .stroke6 {fill: #808075;}
        .stroke7 {fill: #808074;}
        .stroke8 {fill: #808073;}
        .stroke9 {fill: #808072;}
        .stroke10 {fill: #808071;}
        .stroke11 {fill: #808070;}
        .stroke12 {fill: #808069;}
        .stroke13 {fill: #808068;}
        .stroke14 {fill: #808067;}
        .stroke15 {fill: #808066;}
        .stroke16 {fill: #808065;}
        .stroke17 {fill: #808064;}
        .stroke18 {fill: #808063;}
        .stroke19 {fill: #808062;}
        .stroke20 {fill: #808061;}
        text {
            font-family: Helvetica;
            font-size: 50px;
            fill: #808060;
            paint-order: stroke;
            stroke: #000000;
            stroke-width: 4px;
            stroke-linecap: butt;
            stroke-linejoin: miter;
            font-weight: 800;
        }
    </style>

    <path d="M 339 796 Q 367 771 397 742 Q 413 727 430 729 Q 443 729 448 745 Q 454 761 443 795 Q 436 817 403 831 Q 324 861 308 851 Q 302 847 304 832 Q 308 819 339 796 Z" class="stroke1"/>
    <path d="M 75 567 Q 62 566 60 557 Q 57 547 73 536 Q 106 515 163 529 Q 295 580 442 607 Q 458 610 459 617 Q 459 630 441 638 Q 413 648 391 642 Q 166 579 75 567 Z" class="stroke2"/>
    <path d="M 239 479 Q 211 470 233 460 Q 269 445 312 462 Q 349 475 390 488 Q 408 495 410 497 Q 417 504 412 511 Q 405 520 381 522 Q 359 523 295 494 Q 268 487 239 479 Z" class="stroke3"/>
    <path d="M 238 387 Q 210 378 233 368 Q 269 353 312 370 Q 352 385 396 399 Q 415 406 418 409 Q 425 416 420 423 Q 413 432 389 434 Q 362 435 299 404 Q 272 395 238 387 Z" class="stroke4"/>
    <path d="M 200 269 Q 187 273 164 275 Q 152 278 149 273 Q 143 266 152 251 Q 183 196 205 104 Q 209 76 227 59 Q 246 37 251 54 Q 257 73 248 114 Q 247 117 246 119 L 239 151 Q 221 227 221 246 C 220 264 220 264 200 269 Z" class="stroke5"/>
    <path d="M 376 177 Q 391 243 411 262 Q 432 287 409 299 Q 390 309 365 324 Q 349 333 305 307 Q 250 283 200 269 C 171 261 193 235 221 246 Q 221 247 225 248 Q 270 263 307 274 Q 332 281 340 272 Q 347 268 340 237 Q 336 212 329 183 C 322 154 369 148 376 177 Z" class="stroke6"/>
    <path d="M 246 119 Q 285 132 384 151 Q 394 152 394 161 Q 394 168 376 177 C 352 190 352 190 329 183 Q 325 182 320 180 Q 275 162 239 151 C 210 142 217 110 246 119 Z" class="stroke7"/>
    <path d="M 640 779 Q 668 754 698 724 Q 711 711 725 712 Q 735 712 741 725 Q 745 738 738 767 Q 734 788 702 803 Q 630 833 616 827 Q 612 823 612 811 Q 615 801 640 779 Z" class="stroke8"/>
    <path d="M 637 594 Q 748 630 914 631 Q 933 631 938 641 Q 942 651 926 663 Q 872 696 819 677 Q 731 653 494 601 Q 475 597 490 583 Q 517 562 573 577 Q 583 581 595 584 L 637 594 Z" class="stroke9"/>
    <path d="M 675 393 Q 620 396 560 393 Q 554 392 552 394 Q 551 398 556 406 Q 649 527 669 548 Q 679 557 675 568 Q 669 578 637 594 C 610 608 589 613 595 584 Q 595 583 596 581 Q 608 538 539 445 Q 517 414 471 386 Q 458 376 460 366 Q 464 350 486 331 Q 496 321 508 330 Q 544 352 655 365 C 685 369 705 392 675 393 Z" class="stroke10"/>
    <path d="M 655 365 Q 622 325 582 279 Q 522 212 336 64 Q 317 49 343 53 Q 481 81 700 346 Q 742 412 811 490 Q 821 502 818 511 Q 814 524 789 530 Q 761 539 749 535 Q 742 534 739 521 Q 730 476 675 393 L 655 365 Z" class="stroke11"/>
    <path d="M 747 193 Q 781 233 824 287 Q 836 300 843 307 Q 852 311 851 322 Q 850 332 838 347 Q 808 383 772 379 Q 762 378 764 364 Q 767 279 625 134 Q 517 44 450 -4 Q 441 -8 452 -12 Q 482 -12 570 38 Q 631 71 727 171 L 747 193 Z" class="stroke12"/>
    <path d="M 727 171 Q 799 117 885 38 Q 901 19 918 17 Q 925 16 933 27 Q 943 40 928 83 Q 910 138 747 193 C 719 203 703 189 727 171 Z" class="stroke13"/>
    
    
    
    
    
    
    
    
    
    
    
    
    </g>
</svg>