<svg version="1.1" viewBox="0 0 1024 1024" xmlns="http://www.w3.org/2000/svg">
  
  <g transform="scale(1, -1) translate(0, -900)">
    <style type="text/css">
        .stroke1 {fill: #808080;}
        .stroke2 {fill: #808079;}
        .stroke3 {fill: #808078;}
        .stroke4 {fill: #808077;}
        .stroke5 {fill: #808076;}
        .stroke6 {fill: #808075;}
        .stroke7 {fill: #808074;}
        .stroke8 {fill: #808073;}
        .stroke9 {fill: #808072;}
        .stroke10 {fill: #808071;}
        .stroke11 {fill: #808070;}
        .stroke12 {fill: #808069;}
        .stroke13 {fill: #808068;}
        .stroke14 {fill: #808067;}
        .stroke15 {fill: #808066;}
        .stroke16 {fill: #808065;}
        .stroke17 {fill: #808064;}
        .stroke18 {fill: #808063;}
        .stroke19 {fill: #808062;}
        .stroke20 {fill: #808061;}
        text {
            font-family: Helvetica;
            font-size: 50px;
            fill: #808060;
            paint-order: stroke;
            stroke: #000000;
            stroke-width: 4px;
            stroke-linecap: butt;
            stroke-linejoin: miter;
            font-weight: 800;
        }
    </style>

    <path d="M 282 790 Q 313 765 347 734 Q 363 721 379 721 Q 391 722 396 736 Q 402 752 391 785 Q 384 807 349 823 Q 267 851 252 843 Q 246 839 248 825 Q 252 812 282 790 Z" class="stroke1"/>
    <path d="M 65 596 Q 52 595 48 586 Q 45 576 61 564 Q 103 536 145 551 Q 266 594 412 618 Q 430 621 430 628 Q 431 641 412 650 Q 384 662 361 656 Q 175 611 65 596 Z" class="stroke2"/>
    <path d="M 201 493 Q 170 486 194 472 Q 230 457 298 476 Q 325 483 356 492 Q 374 496 377 500 Q 384 507 379 514 Q 372 524 347 528 Q 328 531 257 505 Q 230 498 201 493 Z" class="stroke3"/>
    <path d="M 193 385 Q 162 378 186 364 Q 222 349 290 368 Q 317 375 348 384 Q 366 388 369 392 Q 376 399 371 406 Q 364 416 339 420 Q 320 423 249 397 Q 222 390 193 385 Z" class="stroke4"/>
    <path d="M 184 263 Q 171 267 144 273 Q 132 276 129 271 Q 122 264 131 249 Q 159 189 176 92 Q 179 64 196 44 Q 214 22 219 37 Q 226 58 220 98 L 215 130 Q 202 215 199 237 C 196 260 196 260 184 263 Z" class="stroke5"/>
    <path d="M 351 152 Q 369 224 390 246 Q 412 271 389 284 Q 370 294 344 311 Q 326 321 308 309 Q 269 285 184 263 C 155 255 171 227 199 237 Q 202 240 285 260 Q 310 266 317 256 Q 323 250 304 156 C 298 127 344 123 351 152 Z" class="stroke6"/>
    <path d="M 220 98 Q 223 98 228 99 Q 271 111 362 123 Q 372 124 373 133 Q 373 140 351 152 L 304 156 Q 301 156 300 155 Q 252 140 215 130 C 186 122 190 95 220 98 Z" class="stroke7"/>
    <path d="M 532 592 Q 583 585 607 588 Q 608 589 611 589 Q 860 634 874 643 Q 884 650 879 660 Q 872 672 842 680 Q 814 686 713 656 Q 566 629 523 625 C 493 622 502 596 532 592 Z" class="stroke8"/>
    <path d="M 717 451 Q 766 463 823 473 Q 857 482 863 486 Q 870 493 867 501 Q 860 511 834 519 Q 806 523 779 513 Q 739 500 696 489 Q 648 479 592 474 Q 559 468 583 453 Q 622 432 672 443 Q 675 444 679 443 L 717 451 Z" class="stroke9"/>
    <path d="M 741 324 Q 787 333 830 338 Q 855 342 845 356 Q 835 372 807 376 Q 783 380 743 367 L 691 353 Q 642 341 600 330 Q 582 326 604 310 Q 613 304 691 315 L 741 324 Z" class="stroke10"/>
    <path d="M 734 222 Q 737 277 741 324 L 743 367 Q 750 421 745 429 Q 732 442 717 451 C 692 467 667 470 679 443 Q 688 431 691 353 L 691 315 Q 691 275 691 215 C 691 185 732 192 734 222 Z" class="stroke11"/>
    <path d="M 691 215 Q 625 205 554 194 Q 536 193 550 179 Q 562 167 576 163 Q 594 159 607 163 Q 710 191 907 192 Q 923 192 927 199 Q 931 209 917 220 Q 872 254 813 238 Q 780 232 734 222 L 691 215 Z" class="stroke12"/>
    <path d="M 523 625 Q 511 635 487 648 Q 466 660 457 653 Q 450 646 457 630 Q 475 594 475 529 Q 476 318 453 123 Q 450 83 426 47 Q 416 31 425 11 Q 432 -11 443 -20 Q 453 -27 471 -16 Q 528 24 614 41 Q 714 60 905 62 Q 930 61 930 73 Q 930 88 901 107 Q 888 119 762 97 Q 591 78 531 63 Q 504 57 504 83 Q 516 273 525 514 Q 525 562 532 592 C 536 617 536 617 523 625 Z" class="stroke13"/>
    
    
    
    
    
    
    
    
    
    
    
    
    </g>
</svg>