<svg version="1.1" viewBox="0 0 1024 1024" xmlns="http://www.w3.org/2000/svg">
  
  <g transform="scale(1, -1) translate(0, -900)">
    <style type="text/css">
        .stroke1 {fill: #808080;}
        .stroke2 {fill: #808079;}
        .stroke3 {fill: #808078;}
        .stroke4 {fill: #808077;}
        .stroke5 {fill: #808076;}
        .stroke6 {fill: #808075;}
        .stroke7 {fill: #808074;}
        .stroke8 {fill: #808073;}
        .stroke9 {fill: #808072;}
        .stroke10 {fill: #808071;}
        .stroke11 {fill: #808070;}
        .stroke12 {fill: #808069;}
        .stroke13 {fill: #808068;}
        .stroke14 {fill: #808067;}
        .stroke15 {fill: #808066;}
        .stroke16 {fill: #808065;}
        .stroke17 {fill: #808064;}
        .stroke18 {fill: #808063;}
        .stroke19 {fill: #808062;}
        .stroke20 {fill: #808061;}
        text {
            font-family: Helvetica;
            font-size: 50px;
            fill: #808060;
            paint-order: stroke;
            stroke: #000000;
            stroke-width: 4px;
            stroke-linecap: butt;
            stroke-linejoin: miter;
            font-weight: 800;
        }
    </style>

    <path d="M 282 745 Q 310 721 341 693 Q 356 680 373 681 Q 383 682 389 696 Q 393 712 383 743 Q 371 774 275 795 Q 259 798 252 795 Q 246 791 249 777 Q 253 767 282 745 Z" class="stroke1"/>
    <path d="M 63 542 Q 50 541 47 531 Q 44 519 61 508 Q 104 481 149 498 Q 282 553 421 580 Q 439 583 439 591 Q 440 606 419 614 Q 389 624 365 617 Q 149 554 63 542 Z" class="stroke2"/>
    <path d="M 205 445 Q 174 438 198 424 Q 231 411 293 425 Q 326 434 363 443 Q 382 449 385 452 Q 392 459 387 466 Q 380 476 355 480 Q 339 481 260 456 Q 235 449 205 445 Z" class="stroke3"/>
    <path d="M 197 337 Q 166 330 190 316 Q 226 301 294 320 Q 321 327 352 336 Q 370 340 373 344 Q 380 351 375 358 Q 368 368 343 372 Q 324 375 253 349 Q 226 342 197 337 Z" class="stroke4"/>
    <path d="M 192 201 Q 182 208 149 212 Q 139 216 135 210 Q 129 204 137 189 Q 162 137 178 50 Q 182 25 197 7 Q 213 -14 218 1 Q 224 17 220 46 L 215 78 Q 203 151 201 175 C 199 198 199 198 192 201 Z" class="stroke5"/>
    <path d="M 352 99 Q 368 166 390 186 Q 411 210 389 223 Q 371 233 346 249 Q 331 258 279 230 Q 236 215 192 201 C 163 192 173 165 201 175 Q 205 178 289 200 Q 313 207 319 197 Q 326 191 318 162 Q 312 135 305 104 C 298 75 345 70 352 99 Z" class="stroke6"/>
    <path d="M 220 46 Q 224 46 232 48 Q 274 58 363 71 Q 373 72 373 81 Q 373 88 352 99 L 305 104 Q 301 104 300 103 Q 254 87 215 78 C 186 71 190 43 220 46 Z" class="stroke7"/>
    <path d="M 750 618 Q 659 602 560 571 Q 550 567 547 570 Q 544 574 551 585 Q 660 739 684 765 Q 696 775 690 787 Q 683 799 636 822 Q 620 829 610 825 Q 598 819 604 799 Q 625 736 518 606 Q 496 582 461 556 Q 448 544 452 534 Q 456 518 482 498 Q 494 488 506 498 Q 548 534 751 592 Q 758 595 767 598 C 795 608 780 623 750 618 Z" class="stroke8"/>
    <path d="M 767 598 Q 788 571 810 540 Q 820 525 835 523 Q 845 522 853 533 Q 860 546 858 576 Q 857 604 820 636 Q 781 661 737 686 Q 724 692 716 691 Q 712 688 710 676 Q 710 672 750 618 L 767 598 Z" class="stroke9"/>
    <path d="M 551 404 Q 566 426 579 444 Q 586 454 575 465 Q 542 490 521 488 Q 512 487 514 474 Q 524 411 460 334 Q 444 316 437 306 Q 430 293 442 297 Q 454 298 469 311 Q 515 345 542 390 L 551 404 Z" class="stroke10"/>
    <path d="M 542 390 Q 584 372 604 374 L 648 381 Q 793 420 796 422 Q 803 429 799 437 Q 792 447 765 453 Q 737 457 711 445 Q 678 433 643 423 Q 604 413 559 406 Q 555 406 551 404 C 524 397 524 397 542 390 Z" class="stroke11"/>
    <path d="M 615 282 Q 533 267 443 250 Q 424 247 439 231 Q 452 219 470 214 Q 491 210 506 216 Q 554 232 609 241 L 660 250 Q 733 263 848 267 Q 899 267 905 278 Q 909 290 893 302 Q 836 342 775 318 Q 730 309 669 293 L 615 282 Z" class="stroke12"/>
    <path d="M 604 374 Q 620 358 615 282 L 609 241 Q 579 118 473 51 Q 446 36 407 16 Q 386 4 412 4 Q 428 3 460 14 Q 500 24 535 45 Q 568 61 594 96 Q 624 135 649 209 L 657 238 Q 658 244 660 250 L 669 293 Q 672 332 681 349 Q 688 355 682 364 Q 678 371 651 381 Q 650 382 648 381 C 619 390 591 399 604 374 Z" class="stroke13"/>
    <path d="M 649 209 Q 709 113 787 10 Q 815 -21 950 -1 Q 959 0 960 5 Q 961 9 949 16 Q 826 73 752 142 Q 707 184 657 238 C 637 260 633 234 649 209 Z" class="stroke14"/>
    
    
    
    
    
    
    
    
    
    
    
    
    
    </g>
</svg>