<svg version="1.1" viewBox="0 0 1024 1024" xmlns="http://www.w3.org/2000/svg">
  
  <g transform="scale(1, -1) translate(0, -900)">
    <style type="text/css">
        .stroke1 {fill: #808080;}
        .stroke2 {fill: #808079;}
        .stroke3 {fill: #808078;}
        .stroke4 {fill: #808077;}
        .stroke5 {fill: #808076;}
        .stroke6 {fill: #808075;}
        .stroke7 {fill: #808074;}
        .stroke8 {fill: #808073;}
        .stroke9 {fill: #808072;}
        .stroke10 {fill: #808071;}
        .stroke11 {fill: #808070;}
        .stroke12 {fill: #808069;}
        .stroke13 {fill: #808068;}
        .stroke14 {fill: #808067;}
        .stroke15 {fill: #808066;}
        .stroke16 {fill: #808065;}
        .stroke17 {fill: #808064;}
        .stroke18 {fill: #808063;}
        .stroke19 {fill: #808062;}
        .stroke20 {fill: #808061;}
        text {
            font-family: Helvetica;
            font-size: 50px;
            fill: #808060;
            paint-order: stroke;
            stroke: #000000;
            stroke-width: 4px;
            stroke-linecap: butt;
            stroke-linejoin: miter;
            font-weight: 800;
        }
    </style>

    <path d="M 293 754 Q 320 730 347 703 Q 362 688 379 689 Q 391 690 397 705 Q 401 721 392 753 Q 380 786 288 806 Q 272 810 264 807 Q 258 803 260 789 Q 264 776 293 754 Z" class="stroke1"/>
    <path d="M 73 580 Q 60 579 56 570 Q 53 560 69 548 Q 108 521 170 541 Q 263 574 388 594 Q 406 597 406 604 Q 407 617 388 626 Q 360 638 337 632 Q 150 590 73 580 Z" class="stroke2"/>
    <path d="M 199 479 Q 168 469 193 457 Q 235 441 283 461 Q 314 471 349 482 Q 365 488 367 490 Q 374 499 368 506 Q 361 516 333 518 Q 312 519 246 492 Q 225 485 199 479 Z" class="stroke3"/>
    <path d="M 196 371 Q 163 361 189 349 Q 231 333 279 352 Q 310 361 342 371 Q 355 375 358 378 Q 365 387 360 394 Q 353 404 325 407 Q 312 407 238 381 Q 219 375 196 371 Z" class="stroke4"/>
    <path d="M 174 259 Q 162 263 136 269 Q 124 272 121 267 Q 114 260 123 244 Q 148 192 165 106 Q 169 81 184 63 Q 202 41 207 57 Q 213 73 209 103 L 203 139 Q 193 212 191 233 C 189 254 189 254 174 259 Z" class="stroke5"/>
    <path d="M 342 161 Q 361 218 381 236 Q 403 261 381 276 Q 318 315 304 308 Q 300 308 296 305 Q 254 280 174 259 C 145 251 164 220 191 233 Q 195 239 274 255 Q 299 262 305 252 Q 311 246 303 217 Q 297 195 289 167 C 281 138 332 133 342 161 Z" class="stroke6"/>
    <path d="M 209 103 Q 254 116 351 133 Q 361 134 362 144 Q 362 151 342 161 L 289 167 Q 285 167 282 165 Q 240 150 203 139 C 174 130 180 95 209 103 Z" class="stroke7"/>
    <path d="M 626 721 Q 719 761 762 770 Q 778 771 781 778 Q 784 788 773 798 Q 754 813 713 828 Q 700 835 687 834 Q 680 830 679 820 Q 679 780 473 687 Q 469 678 473 676 Q 494 676 587 707 L 626 721 Z" class="stroke8"/>
    <path d="M 654 610 Q 717 623 814 629 Q 860 633 866 641 Q 870 651 854 663 Q 799 696 740 674 Q 706 665 659 651 L 605 638 Q 532 625 449 605 Q 431 601 446 587 Q 459 577 476 573 Q 495 569 509 575 Q 539 585 576 594 L 654 610 Z" class="stroke9"/>
    <path d="M 653 605 Q 653 608 654 610 L 659 651 Q 662 664 670 678 Q 676 687 665 698 Q 647 713 626 721 C 598 733 571 733 587 707 Q 605 682 605 638 L 607 554 Q 608 493 604 467 Q 603 458 618 421 Q 627 408 640 415 Q 649 422 649 497 Q 648 537 650 575 L 653 605 Z" class="stroke10"/>
    <path d="M 576 594 Q 528 501 407 405 Q 397 395 404 393 Q 411 389 422 393 Q 504 424 584 524 Q 600 548 607 554 C 651 601 596 632 576 594 Z" class="stroke11"/>
    <path d="M 650 575 Q 699 514 755 456 Q 776 437 810 436 Q 871 435 935 448 Q 951 449 953 454 Q 954 461 942 465 Q 770 514 653 605 C 629 623 631 598 650 575 Z" class="stroke12"/>
    <path d="M 568 340 Q 634 361 686 371 Q 699 374 702 369 Q 706 365 701 354 Q 673 294 645 273 Q 635 266 635 253 Q 636 231 646 223 Q 656 216 670 223 Q 710 242 747 245 Q 766 246 772 239 Q 782 223 777 193 Q 768 115 739 54 Q 730 32 712 26 Q 697 23 632 49 Q 605 62 625 34 Q 656 -12 679 -51 Q 695 -73 719 -62 Q 773 -34 801 37 Q 841 190 859 211 Q 877 227 866 240 Q 853 253 814 278 Q 792 288 769 282 Q 733 272 724 273 Q 705 272 713 295 Q 750 349 777 364 Q 802 376 796 388 Q 792 398 746 421 Q 730 430 714 422 Q 657 389 428 345 Q 419 345 417 340 Q 416 333 440 317 Q 465 301 491 314 Q 512 321 532 327 L 568 340 Z" class="stroke13"/>
    <path d="M 532 327 Q 532 326 533 323 Q 537 272 450 125 Q 447 124 447 121 Q 416 79 350 18 Q 343 14 340 9 Q 334 -1 344 -2 Q 383 -2 457 65 Q 458 68 461 69 Q 518 129 582 256 Q 586 265 592 273 Q 605 283 602 298 Q 592 319 568 340 C 546 360 530 357 532 327 Z" class="stroke14"/>
    
    
    
    
    
    
    
    
    
    
    
    
    
    </g>
</svg>