<svg version="1.1" viewBox="0 0 1024 1024" xmlns="http://www.w3.org/2000/svg">
  
  <g transform="scale(1, -1) translate(0, -900)">
    <style type="text/css">
        .stroke1 {fill: #808080;}
        .stroke2 {fill: #808079;}
        .stroke3 {fill: #808078;}
        .stroke4 {fill: #808077;}
        .stroke5 {fill: #808076;}
        .stroke6 {fill: #808075;}
        .stroke7 {fill: #808074;}
        .stroke8 {fill: #808073;}
        .stroke9 {fill: #808072;}
        .stroke10 {fill: #808071;}
        .stroke11 {fill: #808070;}
        .stroke12 {fill: #808069;}
        .stroke13 {fill: #808068;}
        .stroke14 {fill: #808067;}
        .stroke15 {fill: #808066;}
        .stroke16 {fill: #808065;}
        .stroke17 {fill: #808064;}
        .stroke18 {fill: #808063;}
        .stroke19 {fill: #808062;}
        .stroke20 {fill: #808061;}
        text {
            font-family: Helvetica;
            font-size: 50px;
            fill: #808060;
            paint-order: stroke;
            stroke: #000000;
            stroke-width: 4px;
            stroke-linecap: butt;
            stroke-linejoin: miter;
            font-weight: 800;
        }
    </style>

    <path d="M 308 777 Q 339 752 373 721 Q 389 706 407 708 Q 419 709 424 724 Q 428 742 418 775 Q 411 797 375 812 Q 293 840 276 831 Q 270 827 273 812 Q 277 799 308 777 Z" class="stroke1"/>
    <path d="M 69 556 Q 56 555 53 546 Q 49 536 65 524 Q 105 496 149 509 Q 281 554 428 574 Q 444 577 446 584 Q 447 597 428 607 Q 400 619 377 613 Q 158 565 69 556 Z" class="stroke2"/>
    <path d="M 209 455 Q 176 446 201 433 Q 240 417 300 435 Q 328 444 359 451 Q 375 455 378 458 Q 385 467 380 474 Q 373 484 345 488 Q 332 489 258 465 Q 234 459 209 455 Z" class="stroke3"/>
    <path d="M 198 343 Q 164 336 190 321 Q 223 306 289 321 Q 320 330 356 338 Q 374 344 377 346 Q 384 353 380 362 Q 373 372 345 376 Q 321 379 253 354 Q 226 347 198 343 Z" class="stroke4"/>
    <path d="M 194 219 Q 182 226 144 232 Q 132 235 129 229 Q 123 223 132 207 Q 160 149 182 54 Q 186 26 203 7 Q 222 -15 227 2 Q 233 21 226 55 L 220 87 Q 204 163 201 191 C 198 217 198 217 194 219 Z" class="stroke5"/>
    <path d="M 357 119 Q 375 179 395 199 Q 417 224 395 238 Q 332 271 329 271 Q 320 271 312 265 Q 276 240 194 219 C 165 211 172 183 201 191 Q 247 204 287 215 Q 314 222 321 212 Q 328 206 320 175 Q 313 147 305 114 C 298 85 348 90 357 119 Z" class="stroke6"/>
    <path d="M 226 55 Q 245 65 375 87 Q 385 88 385 97 Q 385 104 357 119 C 343 126 334 123 305 114 Q 259 99 220 87 C 191 78 198 43 226 55 Z" class="stroke7"/>
    <path d="M 669 589 Q 742 605 821 620 Q 872 632 879 639 Q 888 646 883 656 Q 876 668 846 675 Q 815 682 784 669 Q 727 650 666 634 Q 599 618 518 610 Q 481 603 507 586 Q 552 562 609 576 Q 615 577 623 579 L 669 589 Z" class="stroke8"/>
    <path d="M 689 165 Q 696 352 701 495 Q 704 558 702 562 Q 686 578 669 589 C 644 606 611 606 623 579 Q 642 540 643 503 Q 644 466 641 159 C 641 129 688 135 689 165 Z" class="stroke9"/>
    <path d="M 515 345 Q 521 354 572 443 Q 576 453 570 464 Q 540 503 514 500 Q 501 499 507 483 Q 522 446 474 353 Q 453 313 424 273 Q 420 269 420 263 Q 420 259 425 259 Q 443 262 499 325 L 515 345 Z" class="stroke10"/>
    <path d="M 499 325 Q 503 319 515 311 Q 539 292 565 267 Q 575 258 586 258 Q 593 259 597 269 Q 601 279 594 301 Q 590 317 565 329 Q 541 339 515 345 C 486 352 480 348 499 325 Z" class="stroke11"/>
    <path d="M 805 374 Q 821 399 834 427 Q 852 467 870 501 Q 877 514 863 525 Q 820 550 797 545 Q 787 541 791 528 Q 812 444 733 329 Q 714 304 704 287 Q 698 272 711 278 Q 741 287 791 354 L 805 374 Z" class="stroke12"/>
    <path d="M 791 354 Q 882 263 902 264 Q 912 265 917 277 Q 921 290 914 317 Q 905 350 812 374 Q 808 375 805 374 C 775 372 773 372 791 354 Z" class="stroke13"/>
    <path d="M 641 159 Q 536 146 418 132 Q 396 129 412 111 Q 427 96 446 90 Q 468 84 486 89 Q 657 131 907 125 Q 925 125 944 124 Q 966 124 971 133 Q 977 146 959 161 Q 896 209 835 189 Q 775 180 689 165 L 641 159 Z" class="stroke14"/>
    
    
    
    
    
    
    
    
    
    
    
    
    
    </g>
</svg>