<svg version="1.1" viewBox="0 0 1024 1024" xmlns="http://www.w3.org/2000/svg">
  
  <g transform="scale(1, -1) translate(0, -900)">
    <style type="text/css">
        .stroke1 {fill: #808080;}
        .stroke2 {fill: #808079;}
        .stroke3 {fill: #808078;}
        .stroke4 {fill: #808077;}
        .stroke5 {fill: #808076;}
        .stroke6 {fill: #808075;}
        .stroke7 {fill: #808074;}
        .stroke8 {fill: #808073;}
        .stroke9 {fill: #808072;}
        .stroke10 {fill: #808071;}
        .stroke11 {fill: #808070;}
        .stroke12 {fill: #808069;}
        .stroke13 {fill: #808068;}
        .stroke14 {fill: #808067;}
        .stroke15 {fill: #808066;}
        .stroke16 {fill: #808065;}
        .stroke17 {fill: #808064;}
        .stroke18 {fill: #808063;}
        .stroke19 {fill: #808062;}
        .stroke20 {fill: #808061;}
        text {
            font-family: Helvetica;
            font-size: 50px;
            fill: #808060;
            paint-order: stroke;
            stroke: #000000;
            stroke-width: 4px;
            stroke-linecap: butt;
            stroke-linejoin: miter;
            font-weight: 800;
        }
    </style>

    <path d="M 288 770 Q 324 745 361 715 Q 377 702 393 704 Q 405 705 409 720 Q 412 736 400 767 Q 393 789 355 803 Q 268 828 256 819 Q 252 815 254 801 Q 258 791 288 770 Z" class="stroke1"/>
    <path d="M 52 558 Q 39 557 36 547 Q 32 537 49 524 Q 91 496 137 512 Q 273 563 436 592 Q 454 595 454 603 Q 455 618 435 626 Q 407 638 382 631 Q 148 571 52 558 Z" class="stroke2"/>
    <path d="M 213 463 Q 180 454 206 441 Q 246 422 295 439 L 369 459 Q 387 463 389 466 Q 396 473 392 482 Q 385 492 357 496 Q 339 497 266 474 Q 242 467 213 463 Z" class="stroke3"/>
    <path d="M 206 355 Q 173 348 198 333 Q 234 318 310 335 Q 388 356 393 358 Q 400 365 395 373 Q 388 383 361 389 Q 333 392 307 380 Q 285 371 262 365 Q 237 358 206 355 Z" class="stroke4"/>
    <path d="M 199 234 Q 187 240 156 244 Q 144 247 141 242 Q 134 235 144 219 Q 172 165 191 76 Q 195 48 212 31 Q 230 9 235 26 Q 242 45 234 84 Q 233 85 233 86 L 228 116 Q 215 186 212 208 C 209 230 209 230 199 234 Z" class="stroke5"/>
    <path d="M 382 147 Q 401 208 421 224 Q 442 248 420 261 Q 402 271 377 288 Q 361 298 342 288 Q 300 258 199 234 C 170 227 183 199 212 208 Q 272 227 314 240 Q 344 247 351 237 Q 354 234 334 149 C 327 120 373 118 382 147 Z" class="stroke6"/>
    <path d="M 233 86 Q 240 85 253 89 Q 296 102 395 119 Q 405 120 405 129 Q 405 136 382 147 L 334 149 L 332 149 Q 274 128 228 116 C 199 108 203 86 233 86 Z" class="stroke7"/>
    <path d="M 507 704 Q 541 653 575 633 Q 588 629 599 641 Q 606 653 605 669 Q 598 708 523 740 Q 507 747 498 744 Q 492 743 493 731 Q 494 719 507 704 Z" class="stroke8"/>
    <path d="M 739 753 Q 729 734 650 623 Q 640 605 658 610 Q 709 647 785 712 Q 803 730 827 741 Q 848 754 835 770 Q 820 786 793 799 Q 768 812 755 808 Q 742 805 748 792 Q 752 773 739 753 Z" class="stroke9"/>
    <path d="M 513 539 Q 501 545 471 548 Q 458 551 455 545 Q 448 538 458 522 Q 486 473 506 391 Q 510 367 526 351 Q 547 329 551 346 Q 552 353 554 362 L 551 392 Q 550 395 531 508 C 527 534 527 534 513 539 Z" class="stroke10"/>
    <path d="M 754 415 Q 785 494 818 516 Q 837 535 821 555 Q 736 619 686 587 Q 620 563 513 539 C 484 532 502 500 531 508 Q 537 511 693 547 Q 711 551 719 545 Q 728 535 724 517 Q 711 468 697 426 C 688 397 743 387 754 415 Z" class="stroke11"/>
    <path d="M 672 378 Q 708 384 757 389 Q 767 390 768 400 Q 768 406 754 415 L 697 426 Q 694 427 691 426 Q 612 402 551 392 C 521 387 526 372 554 362 Q 566 356 584 362 Q 606 369 643 374 L 672 378 Z" class="stroke12"/>
    <path d="M 549 318 Q 561 261 470 145 Q 467 144 466 141 Q 441 110 373 47 Q 366 43 375 40 Q 426 40 521 143 Q 522 146 526 148 Q 559 185 610 262 Q 617 272 621 277 Q 628 281 627 291 Q 626 300 614 310 Q 586 335 555 331 Q 548 330 549 318 Z" class="stroke13"/>
    <path d="M 643 374 Q 642 370 646 357 Q 658 317 653 278 Q 640 122 651 78 Q 654 57 673 39 Q 746 -22 905 6 Q 908 7 911 7 Q 948 17 984 40 Q 1005 58 989 87 Q 974 114 950 196 Q 949 214 941 218 Q 934 222 930 202 Q 905 111 887 84 Q 877 72 848 65 Q 779 50 727 73 Q 706 83 701 97 Q 677 149 713 327 Q 720 360 672 378 C 645 391 639 394 643 374 Z" class="stroke14"/>
    
    
    
    
    
    
    
    
    
    
    
    
    
    </g>
</svg>