<svg version="1.1" viewBox="0 0 1024 1024" xmlns="http://www.w3.org/2000/svg">
  
  <g transform="scale(1, -1) translate(0, -900)">
    <style type="text/css">
        .stroke1 {fill: #808080;}
        .stroke2 {fill: #808079;}
        .stroke3 {fill: #808078;}
        .stroke4 {fill: #808077;}
        .stroke5 {fill: #808076;}
        .stroke6 {fill: #808075;}
        .stroke7 {fill: #808074;}
        .stroke8 {fill: #808073;}
        .stroke9 {fill: #808072;}
        .stroke10 {fill: #808071;}
        .stroke11 {fill: #808070;}
        .stroke12 {fill: #808069;}
        .stroke13 {fill: #808068;}
        .stroke14 {fill: #808067;}
        .stroke15 {fill: #808066;}
        .stroke16 {fill: #808065;}
        .stroke17 {fill: #808064;}
        .stroke18 {fill: #808063;}
        .stroke19 {fill: #808062;}
        .stroke20 {fill: #808061;}
        text {
            font-family: Helvetica;
            font-size: 50px;
            fill: #808060;
            paint-order: stroke;
            stroke: #000000;
            stroke-width: 4px;
            stroke-linecap: butt;
            stroke-linejoin: miter;
            font-weight: 800;
        }
    </style>

    <path d="M 321 754 Q 348 730 375 703 Q 390 688 407 689 Q 419 690 425 705 Q 429 721 420 753 Q 408 786 316 806 Q 300 810 292 807 Q 286 803 288 789 Q 292 776 321 754 Z" class="stroke1"/>
    <path d="M 61 560 Q 48 559 45 550 Q 41 540 57 528 Q 97 500 141 513 Q 291 564 456 586 Q 472 589 474 596 Q 475 609 456 619 Q 428 631 405 625 Q 155 568 61 560 Z" class="stroke2"/>
    <path d="M 228 459 Q 195 449 221 437 Q 267 421 311 439 Q 348 449 386 462 Q 404 468 406 470 Q 413 479 408 486 Q 401 496 373 499 Q 349 500 282 472 Q 258 465 228 459 Z" class="stroke3"/>
    <path d="M 221 347 Q 188 338 214 325 Q 244 310 313 327 Q 344 336 381 346 Q 399 352 401 354 Q 408 361 404 370 Q 397 380 369 384 Q 356 385 273 358 Q 249 351 221 347 Z" class="stroke4"/>
    <path d="M 198 234 Q 186 240 157 244 Q 147 247 143 242 Q 137 236 145 221 Q 173 166 189 73 Q 193 45 209 27 Q 225 6 230 21 Q 237 40 230 80 L 224 112 Q 212 181 210 205 C 207 230 207 230 198 234 Z" class="stroke5"/>
    <path d="M 372 124 Q 391 185 411 203 Q 435 227 412 242 Q 354 278 345 278 Q 338 278 330 273 Q 288 249 198 234 C 168 229 182 194 210 205 Q 216 211 302 224 Q 329 230 335 219 Q 336 218 324 137 C 320 107 363 95 372 124 Z" class="stroke6"/>
    <path d="M 230 80 Q 237 79 247 81 Q 287 90 377 97 Q 387 98 388 108 Q 388 114 372 124 C 350 139 350 139 324 137 Q 317 137 311 135 Q 263 120 224 112 C 195 106 200 82 230 80 Z" class="stroke7"/>
    <path d="M 657 678 Q 684 723 698 736 Q 705 746 702 759 Q 698 771 671 791 Q 646 807 628 808 Q 610 805 618 785 Q 636 752 571 638 Q 540 586 498 529 Q 488 519 486 513 Q 483 503 497 506 Q 525 509 632 643 L 657 678 Z" class="stroke8"/>
    <path d="M 632 643 Q 654 636 676 639 Q 781 666 787 657 Q 793 651 780 632 Q 738 560 717 539 Q 698 523 698 484 Q 699 456 729 473 Q 754 491 815 586 Q 846 635 874 650 Q 893 656 885 671 Q 876 686 841 703 Q 826 710 763 692 Q 688 679 657 678 C 627 676 603 650 632 643 Z" class="stroke9"/>
    <path d="M 505 342 Q 577 391 623 407 Q 624 408 626 408 Q 645 415 637 431 Q 627 447 605 460 Q 584 473 573 472 Q 563 471 565 459 Q 566 435 526 392 Q 510 376 494 356 C 475 333 480 325 505 342 Z" class="stroke10"/>
    <path d="M 536 107 Q 535 122 533 138 Q 524 192 519 231 L 515 259 Q 506 317 506 335 Q 506 339 505 342 C 504 351 504 351 494 356 Q 484 363 453 369 Q 440 373 437 368 Q 430 362 438 346 Q 472 261 485 125 Q 486 85 508 56 Q 524 34 531 49 Q 535 59 536 73 L 536 107 Z" class="stroke11"/>
    <path d="M 519 231 Q 580 240 643 249 L 644 249 Q 651 256 647 263 Q 640 272 617 277 Q 595 280 541 263 Q 528 263 515 259 C 486 251 489 227 519 231 Z" class="stroke12"/>
    <path d="M 784 93 Q 802 69 820 21 Q 830 2 849 13 Q 882 31 902 153 Q 929 327 950 362 Q 963 384 946 398 Q 885 456 836 438 Q 772 420 689 410 Q 679 410 679 399 Q 679 389 696 380 Q 726 368 757 377 Q 841 407 863 397 Q 873 391 871 369 Q 868 329 862 287 L 859 259 Q 849 193 833 125 Q 830 112 808 115 C 778 112 772 111 784 93 Z" class="stroke13"/>
    <path d="M 862 287 Q 834 305 763 287 Q 760 288 759 287 Q 743 286 725 285 Q 691 281 715 265 Q 751 241 807 253 Q 829 257 856 259 Q 857 260 859 259 C 889 260 888 272 862 287 Z" class="stroke14"/>
    <path d="M 808 115 Q 801 124 786 133 Q 770 143 739 137 Q 627 116 536 107 C 506 104 506 73 536 73 Q 540 73 547 73 Q 623 88 784 93 C 814 94 827 94 808 115 Z" class="stroke15"/>
    
    
    
    
    
    
    
    
    
    
    
    
    
    
    </g>
</svg>