<svg version="1.1" viewBox="0 0 1024 1024" xmlns="http://www.w3.org/2000/svg">
  
  <g transform="scale(1, -1) translate(0, -900)">
    <style type="text/css">
        .stroke1 {fill: #808080;}
        .stroke2 {fill: #808079;}
        .stroke3 {fill: #808078;}
        .stroke4 {fill: #808077;}
        .stroke5 {fill: #808076;}
        .stroke6 {fill: #808075;}
        .stroke7 {fill: #808074;}
        .stroke8 {fill: #808073;}
        .stroke9 {fill: #808072;}
        .stroke10 {fill: #808071;}
        .stroke11 {fill: #808070;}
        .stroke12 {fill: #808069;}
        .stroke13 {fill: #808068;}
        .stroke14 {fill: #808067;}
        .stroke15 {fill: #808066;}
        .stroke16 {fill: #808065;}
        .stroke17 {fill: #808064;}
        .stroke18 {fill: #808063;}
        .stroke19 {fill: #808062;}
        .stroke20 {fill: #808061;}
        text {
            font-family: Helvetica;
            font-size: 50px;
            fill: #808060;
            paint-order: stroke;
            stroke: #000000;
            stroke-width: 4px;
            stroke-linecap: butt;
            stroke-linejoin: miter;
            font-weight: 800;
        }
    </style>

    <path d="M 339 790 Q 364 769 393 744 Q 409 731 425 733 Q 435 734 441 748 Q 445 764 433 795 Q 421 825 331 840 Q 315 843 308 839 Q 302 835 305 821 Q 309 811 339 790 Z" class="stroke1"/>
    <path d="M 64 591 Q 51 590 49 581 Q 46 571 61 560 Q 97 533 141 547 Q 282 598 437 623 Q 453 626 454 633 Q 455 646 437 654 Q 410 664 388 659 Q 172 605 64 591 Z" class="stroke2"/>
    <path d="M 232 509 Q 201 500 225 488 Q 264 473 319 491 Q 347 500 379 508 Q 395 512 398 516 Q 405 523 400 530 Q 393 540 367 543 Q 340 546 282 520 Q 258 514 232 509 Z" class="stroke3"/>
    <path d="M 240 407 Q 212 400 233 388 Q 260 376 322 391 Q 352 400 386 409 Q 402 415 405 417 Q 412 424 407 431 Q 400 440 377 443 Q 358 444 290 418 Q 268 411 240 407 Z" class="stroke4"/>
    <path d="M 197 291 Q 185 295 158 300 Q 148 303 144 298 Q 140 292 147 278 Q 174 223 190 132 Q 194 104 209 86 Q 225 67 230 81 Q 236 100 231 134 L 225 166 Q 210 239 208 264 C 205 288 205 288 197 291 Z" class="stroke5"/>
    <path d="M 353 195 Q 369 256 387 274 Q 408 299 385 311 Q 367 321 341 337 Q 325 346 277 317 Q 226 299 197 291 C 168 283 181 251 208 264 Q 217 271 288 287 Q 310 294 315 285 Q 322 279 316 251 Q 310 224 303 191 C 297 162 345 166 353 195 Z" class="stroke6"/>
    <path d="M 231 134 Q 306 153 371 163 Q 381 164 382 173 Q 381 180 353 195 C 339 203 331 200 303 191 Q 258 176 225 166 C 196 157 202 127 231 134 Z" class="stroke7"/>
    <path d="M 625 826 Q 644 810 666 789 Q 679 779 692 780 Q 701 781 705 792 Q 709 805 700 831 Q 691 855 619 867 Q 606 868 600 867 Q 596 863 597 852 Q 601 842 625 826 Z" class="stroke8"/>
    <path d="M 747 713 Q 784 720 819 725 Q 826 724 834 735 Q 835 744 816 752 Q 792 768 722 745 Q 596 718 515 703 Q 491 699 510 686 Q 537 667 560 673 Q 627 689 721 708 L 747 713 Z" class="stroke9"/>
    <path d="M 692 590 Q 726 577 763 557 Q 776 550 785 550 Q 789 551 792 558 Q 796 568 780 589 Q 767 607 723 619 L 680 629 Q 625 642 595 646 Q 589 647 590 639 Q 591 635 658 605 L 692 590 Z" class="stroke10"/>
    <path d="M 723 619 Q 765 667 772 668 Q 778 671 778 678 Q 775 699 747 713 C 723 726 723 726 721 708 Q 721 681 684 634 Q 681 633 680 629 L 658 605 Q 601 557 558 528 Q 551 525 559 522 Q 602 522 681 581 Q 685 585 692 590 L 723 619 Z" class="stroke11"/>
    <path d="M 545 450 Q 587 438 618 447 Q 724 469 833 493 Q 884 505 891 512 Q 898 519 895 526 Q 888 536 863 542 Q 842 546 750 516 Q 627 485 543 476 C 513 473 516 457 545 450 Z" class="stroke12"/>
    <path d="M 543 476 Q 542 477 539 478 Q 494 506 472 497 Q 460 493 467 480 Q 500 432 469 288 Q 468 284 467 279 Q 434 162 310 66 Q 300 56 310 55 Q 368 61 430 128 Q 514 213 526 342 Q 535 429 545 450 C 552 471 552 471 543 476 Z" class="stroke13"/>
    <path d="M 691 436 Q 685 391 580 299 Q 561 286 586 289 Q 631 289 720 371 Q 720 378 755 404 Q 764 414 762 423 Q 759 435 737 442 Q 712 451 701 449 Q 694 448 691 436 Z" class="stroke14"/>
    <path d="M 718 325 Q 697 262 568 166 Q 550 154 573 156 Q 643 163 738 257 Q 763 282 776 294 Q 786 303 784 311 Q 783 323 761 330 Q 737 340 727 337 Q 720 336 718 325 Z" class="stroke15"/>
    <path d="M 740 219 Q 744 144 602 18 Q 599 17 597 14 Q 557 -20 459 -85 Q 450 -89 460 -93 Q 530 -93 662 11 Q 665 15 669 17 Q 717 57 795 145 Q 805 157 812 161 Q 819 165 820 176 Q 816 206 779 223 Q 760 233 748 232 Q 739 231 740 219 Z" class="stroke16"/>
    
    
    
    
    
    
    
    
    
    
    
    
    
    
    
    </g>
</svg>