<svg version="1.1" viewBox="0 0 1024 1024" xmlns="http://www.w3.org/2000/svg">
  
  <g transform="scale(1, -1) translate(0, -900)">
    <style type="text/css">
        .stroke1 {fill: #808080;}
        .stroke2 {fill: #808079;}
        .stroke3 {fill: #808078;}
        .stroke4 {fill: #808077;}
        .stroke5 {fill: #808076;}
        .stroke6 {fill: #808075;}
        .stroke7 {fill: #808074;}
        .stroke8 {fill: #808073;}
        .stroke9 {fill: #808072;}
        .stroke10 {fill: #808071;}
        .stroke11 {fill: #808070;}
        .stroke12 {fill: #808069;}
        .stroke13 {fill: #808068;}
        .stroke14 {fill: #808067;}
        .stroke15 {fill: #808066;}
        .stroke16 {fill: #808065;}
        .stroke17 {fill: #808064;}
        .stroke18 {fill: #808063;}
        .stroke19 {fill: #808062;}
        .stroke20 {fill: #808061;}
        text {
            font-family: Helvetica;
            font-size: 50px;
            fill: #808060;
            paint-order: stroke;
            stroke: #000000;
            stroke-width: 4px;
            stroke-linecap: butt;
            stroke-linejoin: miter;
            font-weight: 800;
        }
    </style>

    <path d="M 315 782 Q 336 764 357 744 Q 373 731 389 733 Q 399 734 405 748 Q 409 764 397 795 Q 385 819 307 832 Q 291 835 284 831 Q 278 827 281 813 Q 285 803 315 782 Z" class="stroke1"/>
    <path d="M 48 598 Q 35 597 31 587 Q 28 577 45 564 Q 88 534 133 553 Q 259 601 405 628 Q 423 631 423 639 Q 424 654 403 662 Q 373 674 350 667 Q 137 610 48 598 Z" class="stroke2"/>
    <path d="M 191 501 Q 160 491 185 481 Q 215 469 297 493 Q 316 500 340 507 Q 356 513 359 516 Q 365 523 360 530 Q 353 540 327 542 Q 305 543 242 515 Q 218 508 191 501 Z" class="stroke3"/>
    <path d="M 190 393 Q 160 383 185 373 Q 222 357 269 377 Q 305 389 343 403 Q 361 409 363 412 Q 369 419 364 426 Q 357 436 331 438 Q 316 438 244 409 Q 220 400 190 393 Z" class="stroke4"/>
    <path d="M 165 269 Q 155 273 132 276 Q 120 279 117 274 Q 110 267 119 252 Q 147 200 164 114 Q 168 89 184 71 Q 202 49 207 65 Q 213 81 208 114 L 202 146 Q 189 225 188 244 C 187 262 187 262 165 269 Z" class="stroke5"/>
    <path d="M 334 163 Q 353 229 375 246 Q 397 271 375 285 Q 356 297 330 314 Q 309 326 268 300 Q 223 282 165 269 C 136 262 159 235 188 244 Q 194 247 271 264 Q 295 270 300 260 Q 306 256 299 231 Q 293 204 285 173 C 278 144 325 134 334 163 Z" class="stroke6"/>
    <path d="M 208 114 Q 214 114 221 116 Q 258 126 339 139 Q 349 140 349 149 Q 349 155 334 163 C 308 178 306 179 285 173 Q 281 172 276 170 Q 234 155 202 146 C 173 138 178 112 208 114 Z" class="stroke7"/>
    <path d="M 602 825 Q 623 807 645 785 Q 660 772 677 773 Q 687 774 693 788 Q 697 804 686 835 Q 680 851 653 862 Q 583 880 572 875 Q 566 871 569 857 Q 573 847 602 825 Z" class="stroke8"/>
    <path d="M 717 702 Q 828 732 836 738 Q 843 745 839 753 Q 832 763 805 770 Q 778 774 697 743 Q 549 704 483 694 Q 450 688 474 673 Q 516 652 564 666 Q 619 679 680 693 L 717 702 Z" class="stroke9"/>
    <path d="M 509 604 Q 528 562 551 546 Q 561 540 572 550 Q 579 559 580 573 Q 580 592 568 607 Q 528 643 506 638 Q 502 638 501 628 Q 500 618 509 604 Z" class="stroke10"/>
    <path d="M 683 544 Q 731 631 747 649 Q 760 661 752 671 Q 743 686 717 702 C 692 718 672 722 680 693 Q 692 663 655 559 Q 651 547 648 537 C 639 508 668 518 683 544 Z" class="stroke11"/>
    <path d="M 451 498 Q 450 508 447 516 Q 443 523 437 523 Q 430 522 426 514 Q 410 465 384 421 Q 378 411 378 397 Q 378 375 385 363 Q 392 347 411 360 Q 450 396 452 472 L 451 498 Z" class="stroke12"/>
    <path d="M 452 472 Q 473 463 526 478 Q 619 512 785 536 Q 825 542 838 540 Q 848 536 846 528 Q 846 525 818 462 Q 809 447 815 444 Q 822 440 840 451 Q 892 484 934 493 Q 968 500 968 511 Q 967 521 900 568 Q 873 589 782 565 Q 737 559 683 544 L 648 537 Q 599 530 539 516 Q 496 506 451 498 C 421 493 422 477 452 472 Z" class="stroke13"/>
    <path d="M 580 442 Q 613 405 636 396 Q 649 393 656 405 Q 660 415 658 429 Q 649 460 605 471 Q 575 477 569 475 Q 565 474 566 464 Q 567 454 580 442 Z" class="stroke14"/>
    <path d="M 598 346 Q 631 356 811 377 Q 827 378 829 385 Q 833 395 819 404 Q 771 434 701 407 Q 662 398 444 342 Q 428 339 441 327 Q 466 308 497 317 Q 530 330 568 339 L 598 346 Z" class="stroke15"/>
    <path d="M 619 282 Q 631 270 698 263 Q 731 257 730 224 Q 729 217 727 204 Q 694 90 645 40 Q 635 31 623 28 Q 608 27 577 45 Q 543 67 538 62 Q 531 55 546 40 Q 576 1 581 -39 Q 584 -55 595 -64 Q 607 -71 643 -54 Q 691 -27 737 77 Q 779 200 806 219 Q 816 223 818 233 Q 819 242 797 267 Q 763 303 710 295 Q 692 296 636 307 C 607 313 592 295 619 282 Z" class="stroke16"/>
    <path d="M 636 307 Q 636 319 606 341 Q 602 344 598 346 C 573 363 569 365 568 339 Q 568 234 446 129 Q 443 129 442 126 Q 409 96 330 47 Q 323 43 327 38 Q 352 29 446 82 Q 528 127 603 257 Q 610 270 619 282 C 636 307 636 307 636 307 Z" class="stroke17"/>
    
    
    
    
    
    
    
    
    
    
    
    
    
    
    
    
    </g>
</svg>