<svg version="1.1" viewBox="0 0 1024 1024" xmlns="http://www.w3.org/2000/svg">
  
  <g transform="scale(1, -1) translate(0, -900)">
    <style type="text/css">
        .stroke1 {fill: #808080;}
        .stroke2 {fill: #808079;}
        .stroke3 {fill: #808078;}
        .stroke4 {fill: #808077;}
        .stroke5 {fill: #808076;}
        .stroke6 {fill: #808075;}
        .stroke7 {fill: #808074;}
        .stroke8 {fill: #808073;}
        .stroke9 {fill: #808072;}
        .stroke10 {fill: #808071;}
        .stroke11 {fill: #808070;}
        .stroke12 {fill: #808069;}
        .stroke13 {fill: #808068;}
        .stroke14 {fill: #808067;}
        .stroke15 {fill: #808066;}
        .stroke16 {fill: #808065;}
        .stroke17 {fill: #808064;}
        .stroke18 {fill: #808063;}
        .stroke19 {fill: #808062;}
        .stroke20 {fill: #808061;}
        text {
            font-family: Helvetica;
            font-size: 50px;
            fill: #808060;
            paint-order: stroke;
            stroke: #000000;
            stroke-width: 4px;
            stroke-linecap: butt;
            stroke-linejoin: miter;
            font-weight: 800;
        }
    </style>

    <path d="M 277 728 Q 299 709 321 686 Q 336 673 352 674 Q 364 674 369 688 Q 373 704 363 735 Q 357 753 330 764 Q 261 785 248 779 Q 242 775 244 761 Q 248 751 277 728 Z" class="stroke1"/>
    <path d="M 62 545 Q 50 544 47 535 Q 46 525 60 515 Q 93 496 146 512 Q 270 563 403 592 Q 419 595 419 602 Q 419 615 401 621 Q 376 631 354 624 Q 159 564 62 545 Z" class="stroke2"/>
    <path d="M 198 467 Q 170 458 193 448 Q 227 433 272 451 Q 297 458 324 467 Q 337 471 338 473 Q 345 480 340 487 Q 333 496 309 498 Q 302 498 234 476 Q 218 472 198 467 Z" class="stroke3"/>
    <path d="M 206 367 Q 178 358 201 348 Q 234 335 312 362 Q 319 365 329 368 Q 341 372 343 373 Q 349 380 344 387 Q 337 396 313 398 Q 301 398 241 376 Q 225 372 206 367 Z" class="stroke4"/>
    <path d="M 164 237 Q 151 241 130 244 Q 120 247 116 242 Q 112 236 119 222 Q 144 173 160 91 Q 163 66 177 50 Q 193 31 198 45 Q 202 60 200 84 L 195 112 Q 182 190 180 212 C 178 233 178 233 164 237 Z" class="stroke5"/>
    <path d="M 323 142 Q 336 208 356 227 Q 375 252 353 264 Q 334 274 308 288 Q 292 297 247 267 Q 208 252 164 237 C 136 227 152 200 180 212 Q 207 224 260 237 Q 279 243 285 235 Q 291 231 286 203 Q 282 175 274 142 C 267 113 317 113 323 142 Z" class="stroke6"/>
    <path d="M 200 84 Q 207 84 217 87 Q 254 100 333 117 Q 342 118 342 127 Q 342 133 323 142 L 274 142 L 273 142 Q 230 123 195 112 C 166 103 170 82 200 84 Z" class="stroke7"/>
    <path d="M 520 548 Q 489 547 463 542 Q 442 539 452 554 Q 488 620 523 669 Q 533 682 531 687 Q 528 697 499 718 Q 486 728 473 724 Q 466 721 470 710 Q 489 671 423 562 Q 414 553 405 542 Q 392 530 395 522 Q 399 509 410 496 Q 419 489 427 495 Q 443 507 498 526 Q 502 527 509 528 C 539 533 550 549 520 548 Z" class="stroke8"/>
    <path d="M 553 441 Q 519 435 479 422 Q 463 415 473 430 Q 554 535 589 563 Q 599 570 594 578 Q 587 593 561 607 Q 548 614 541 613 Q 534 610 535 598 Q 535 595 520 548 L 509 528 Q 503 521 499 510 Q 427 417 414 409 Q 404 402 406 391 Q 407 381 427 366 Q 434 357 446 367 Q 485 397 557 427 C 585 439 582 447 553 441 Z" class="stroke9"/>
    <path d="M 557 427 Q 570 385 580 380 Q 587 376 596 384 Q 600 391 602 405 Q 601 421 588 436 Q 570 463 560 471 Q 556 475 551 468 Q 548 465 553 441 L 557 427 Z" class="stroke10"/>
    <path d="M 794 609 Q 766 609 744 607 Q 717 606 730 623 Q 761 686 793 733 Q 802 746 799 752 Q 796 762 766 782 Q 753 789 740 786 Q 733 783 738 772 Q 753 750 712 651 Q 705 630 684 609 Q 672 597 674 589 Q 678 576 689 564 Q 696 557 706 563 Q 722 573 777 589 Q 778 590 782 589 C 812 593 824 609 794 609 Z" class="stroke11"/>
    <path d="M 841 507 Q 807 506 766 496 Q 738 487 757 510 Q 838 615 873 643 Q 883 650 878 658 Q 871 673 845 687 Q 832 694 825 693 Q 818 690 819 678 Q 820 657 794 609 L 782 589 Q 712 496 696 489 Q 686 482 687 472 Q 688 462 708 446 Q 715 436 728 445 Q 774 475 838 492 Q 839 493 845 493 C 874 499 871 509 841 507 Z" class="stroke12"/>
    <path d="M 845 493 Q 857 466 863 464 Q 870 460 880 468 Q 884 475 886 491 Q 883 519 845 551 Q 839 555 835 548 Q 831 542 841 507 L 845 493 Z" class="stroke13"/>
    <path d="M 702 332 Q 703 335 835 362 Q 845 362 851 373 Q 851 383 831 391 Q 801 406 716 374 Q 704 370 693 365 L 655 352 Q 652 352 651 351 Q 587 332 531 317 L 469 303 Q 435 299 398 289 Q 373 283 393 271 Q 418 253 456 262 Q 460 263 468 265 L 519 281 Q 583 302 664 322 L 702 332 Z" class="stroke14"/>
    <path d="M 531 317 Q 528 329 498 342 Q 480 352 466 348 Q 456 344 461 333 Q 468 320 469 303 L 468 265 Q 468 154 380 79 Q 365 66 339 48 Q 329 41 339 38 Q 381 38 433 86 Q 484 131 506 215 L 509 234 Q 513 252 518 269 Q 518 276 519 281 C 521 311 539 305 531 317 Z" class="stroke15"/>
    <path d="M 506 215 Q 510 209 522 201 Q 582 147 591 147 Q 598 148 602 157 Q 605 167 599 187 Q 592 212 519 233 Q 512 234 509 234 C 490 235 490 235 506 215 Z" class="stroke16"/>
    <path d="M 749 116 Q 794 40 857 -18 Q 912 -67 941 -67 Q 960 -64 954 -36 Q 953 10 962 143 Q 963 165 955 166 Q 948 166 941 147 Q 925 110 911 80 Q 898 49 886 49 Q 852 49 784 150 L 757 194 Q 727 245 702 332 L 693 365 Q 624 635 648 800 Q 661 840 608 861 Q 574 877 555 870 Q 536 863 545 844 Q 588 804 588 771 Q 615 504 654 358 Q 654 355 655 352 L 664 322 Q 692 229 726 158 L 749 116 Z" class="stroke17"/>
    <path d="M 726 158 Q 675 109 571 52 Q 562 46 568 43 Q 574 39 585 41 Q 681 59 749 116 L 784 150 Q 808 178 836 216 Q 849 232 864 249 Q 873 256 869 266 Q 866 276 842 297 Q 826 313 816 312 Q 803 311 802 298 Q 799 255 757 194 L 726 158 Z" class="stroke18"/>
    <path d="M 887 398 Q 906 376 927 349 Q 936 337 948 336 Q 955 335 961 345 Q 967 355 963 379 Q 962 395 938 411 Q 886 442 872 438 Q 868 437 867 426 Q 868 417 887 398 Z" class="stroke19"/>
    
    
    
    
    
    
    
    
    
    
    
    
    
    
    
    
    
    
    </g>
</svg>