<svg version="1.1" viewBox="0 0 1024 1024" xmlns="http://www.w3.org/2000/svg">
  
  <g transform="scale(1, -1) translate(0, -900)">
    <style type="text/css">
        .stroke1 {fill: #808080;}
        .stroke2 {fill: #808079;}
        .stroke3 {fill: #808078;}
        .stroke4 {fill: #808077;}
        .stroke5 {fill: #808076;}
        .stroke6 {fill: #808075;}
        .stroke7 {fill: #808074;}
        .stroke8 {fill: #808073;}
        .stroke9 {fill: #808072;}
        .stroke10 {fill: #808071;}
        .stroke11 {fill: #808070;}
        .stroke12 {fill: #808069;}
        .stroke13 {fill: #808068;}
        .stroke14 {fill: #808067;}
        .stroke15 {fill: #808066;}
        .stroke16 {fill: #808065;}
        .stroke17 {fill: #808064;}
        .stroke18 {fill: #808063;}
        .stroke19 {fill: #808062;}
        .stroke20 {fill: #808061;}
        text {
            font-family: Helvetica;
            font-size: 50px;
            fill: #808060;
            paint-order: stroke;
            stroke: #000000;
            stroke-width: 4px;
            stroke-linecap: butt;
            stroke-linejoin: miter;
            font-weight: 800;
        }
    </style>

    <path d="M 342 765 Q 382 735 425 700 Q 441 687 459 688 Q 472 689 476 704 Q 480 722 469 755 Q 454 795 333 820 Q 315 823 308 820 Q 302 814 305 800 Q 309 787 342 765 Z" class="stroke1"/>
    <path d="M 162 526 Q 107 511 79 510 Q 63 511 60 503 Q 56 494 67 486 Q 106 459 147 472 Q 202 493 254 517 Q 285 530 295 522 Q 307 515 299 484 Q 299 439 297 395 Q 297 268 263 150 Q 245 119 292 62 Q 302 49 314 56 Q 321 63 334 89 Q 371 137 447 218 Q 460 231 458 238 Q 457 247 444 237 Q 410 218 377 195 Q 325 152 334 216 Q 333 292 357 477 Q 361 502 385 527 Q 398 539 388 552 Q 376 570 335 588 Q 322 595 304 583 Q 213 540 162 526 Z" class="stroke2"/>
    <path d="M 720 463 Q 817 472 935 473 Q 956 474 960 483 Q 966 495 948 509 Q 888 551 824 531 Q 779 522 721 509 L 663 498 Q 561 482 444 463 Q 422 460 439 443 Q 475 413 521 427 Q 587 446 663 455 L 720 463 Z" class="stroke3"/>
    <path d="M 663 455 Q 663 250 659 183 Q 656 14 676 -20 Q 691 -36 700 -14 Q 718 25 719 436 Q 719 451 720 463 L 721 509 Q 722 716 743 747 Q 750 774 733 787 Q 708 806 663 819 Q 642 823 629 809 Q 619 802 632 788 Q 660 764 662 730 Q 663 648 663 498 L 663 455 Z" class="stroke4"/>
    
    
    
    </g>
</svg>