<svg version="1.1" viewBox="0 0 1024 1024" xmlns="http://www.w3.org/2000/svg">
  
  <g transform="scale(1, -1) translate(0, -900)">
    <style type="text/css">
        .stroke1 {fill: #808080;}
        .stroke2 {fill: #808079;}
        .stroke3 {fill: #808078;}
        .stroke4 {fill: #808077;}
        .stroke5 {fill: #808076;}
        .stroke6 {fill: #808075;}
        .stroke7 {fill: #808074;}
        .stroke8 {fill: #808073;}
        .stroke9 {fill: #808072;}
        .stroke10 {fill: #808071;}
        .stroke11 {fill: #808070;}
        .stroke12 {fill: #808069;}
        .stroke13 {fill: #808068;}
        .stroke14 {fill: #808067;}
        .stroke15 {fill: #808066;}
        .stroke16 {fill: #808065;}
        .stroke17 {fill: #808064;}
        .stroke18 {fill: #808063;}
        .stroke19 {fill: #808062;}
        .stroke20 {fill: #808061;}
        text {
            font-family: Helvetica;
            font-size: 50px;
            fill: #808060;
            paint-order: stroke;
            stroke: #000000;
            stroke-width: 4px;
            stroke-linecap: butt;
            stroke-linejoin: miter;
            font-weight: 800;
        }
    </style>

    <path d="M 278 734 Q 309 709 343 678 Q 359 665 375 665 Q 387 666 392 680 Q 398 696 387 729 Q 380 751 345 767 Q 263 795 248 787 Q 242 783 244 769 Q 248 756 278 734 Z" class="stroke1"/>
    <path d="M 127 476 Q 75 463 47 461 Q 32 462 29 454 Q 25 447 36 438 Q 73 413 112 424 Q 241 476 252 473 Q 253 473 255 471 Q 265 464 258 436 Q 252 256 215 146 Q 196 115 237 60 Q 247 47 258 53 Q 267 60 279 84 Q 321 130 407 208 Q 420 218 418 226 Q 417 235 405 226 Q 366 207 327 182 Q 272 142 285 207 Q 286 271 313 427 Q 317 452 342 475 Q 355 485 345 498 Q 335 514 295 534 Q 283 541 265 530 Q 177 488 127 476 Z" class="stroke2"/>
    <path d="M 629 390 Q 630 409 634 427 Q 656 649 676 693 Q 685 708 672 721 Q 648 742 605 755 Q 578 764 568 756 Q 558 749 566 735 Q 623 633 568 327 Q 538 195 463 119 Q 415 76 338 32 Q 325 25 324 19 Q 325 15 338 15 Q 354 9 398 25 Q 542 70 598 240 Q 611 285 621 340 L 629 390 Z" class="stroke3"/>
    <path d="M 621 340 Q 765 28 817 20 Q 890 13 952 6 Q 979 3 980 9 Q 983 16 955 34 Q 823 106 782 155 Q 701 254 629 390 C 615 416 608 367 621 340 Z" class="stroke4"/>
    
    
    
    </g>
</svg>