<svg version="1.1" viewBox="0 0 1024 1024" xmlns="http://www.w3.org/2000/svg">
  
  <g transform="scale(1, -1) translate(0, -900)">
    <style type="text/css">
        .stroke1 {fill: #808080;}
        .stroke2 {fill: #808079;}
        .stroke3 {fill: #808078;}
        .stroke4 {fill: #808077;}
        .stroke5 {fill: #808076;}
        .stroke6 {fill: #808075;}
        .stroke7 {fill: #808074;}
        .stroke8 {fill: #808073;}
        .stroke9 {fill: #808072;}
        .stroke10 {fill: #808071;}
        .stroke11 {fill: #808070;}
        .stroke12 {fill: #808069;}
        .stroke13 {fill: #808068;}
        .stroke14 {fill: #808067;}
        .stroke15 {fill: #808066;}
        .stroke16 {fill: #808065;}
        .stroke17 {fill: #808064;}
        .stroke18 {fill: #808063;}
        .stroke19 {fill: #808062;}
        .stroke20 {fill: #808061;}
        text {
            font-family: Helvetica;
            font-size: 50px;
            fill: #808060;
            paint-order: stroke;
            stroke: #000000;
            stroke-width: 4px;
            stroke-linecap: butt;
            stroke-linejoin: miter;
            font-weight: 800;
        }
    </style>

    <path d="M 337 772 Q 368 748 403 719 Q 419 706 436 708 Q 448 709 452 724 Q 456 740 444 773 Q 437 794 401 808 Q 317 833 304 823 Q 298 819 301 805 Q 305 792 337 772 Z" class="stroke1"/>
    <path d="M 148 522 Q 94 504 65 502 Q 49 503 47 494 Q 43 485 55 477 Q 100 450 127 463 Q 200 493 268 525 Q 296 540 306 532 Q 318 525 311 495 Q 312 453 310 410 Q 311 286 279 174 Q 263 140 310 87 Q 322 74 332 82 Q 339 89 351 116 Q 397 180 496 290 Q 509 303 506 310 Q 503 319 492 308 Q 440 268 387 223 Q 344 184 349 241 Q 348 311 369 489 Q 373 514 397 540 Q 410 550 399 565 Q 387 581 345 599 Q 332 606 314 594 Q 208 539 148 522 Z" class="stroke2"/>
    <path d="M 667 575 Q 667 689 686 755 Q 699 782 673 802 Q 657 814 624 833 Q 599 851 577 833 Q 571 829 578 811 Q 614 760 614 701 Q 630 238 592 88 Q 580 49 609 -21 Q 616 -40 625 -43 Q 632 -50 639 -41 Q 648 -37 659 -14 Q 669 13 668 47 Q 667 98 667 548 L 667 575 Z" class="stroke3"/>
    <path d="M 667 548 Q 668 547 671 546 Q 768 497 887 418 Q 908 403 923 403 Q 932 403 936 415 Q 945 431 922 469 Q 891 530 667 575 C 638 581 640 562 667 548 Z" class="stroke4"/>
    
    
    
    </g>
</svg>