<svg version="1.1" viewBox="0 0 1024 1024" xmlns="http://www.w3.org/2000/svg">
  
  <g transform="scale(1, -1) translate(0, -900)">
    <style type="text/css">
        .stroke1 {fill: #808080;}
        .stroke2 {fill: #808079;}
        .stroke3 {fill: #808078;}
        .stroke4 {fill: #808077;}
        .stroke5 {fill: #808076;}
        .stroke6 {fill: #808075;}
        .stroke7 {fill: #808074;}
        .stroke8 {fill: #808073;}
        .stroke9 {fill: #808072;}
        .stroke10 {fill: #808071;}
        .stroke11 {fill: #808070;}
        .stroke12 {fill: #808069;}
        .stroke13 {fill: #808068;}
        .stroke14 {fill: #808067;}
        .stroke15 {fill: #808066;}
        .stroke16 {fill: #808065;}
        .stroke17 {fill: #808064;}
        .stroke18 {fill: #808063;}
        .stroke19 {fill: #808062;}
        .stroke20 {fill: #808061;}
        text {
            font-family: Helvetica;
            font-size: 50px;
            fill: #808060;
            paint-order: stroke;
            stroke: #000000;
            stroke-width: 4px;
            stroke-linecap: butt;
            stroke-linejoin: miter;
            font-weight: 800;
        }
    </style>

    <path d="M 256 735 Q 295 705 335 670 Q 350 657 365 658 Q 375 659 381 672 Q 385 688 375 717 Q 363 754 250 783 Q 234 786 228 783 Q 224 779 225 766 Q 229 756 256 735 Z" class="stroke1"/>
    <path d="M 141 468 Q 92 449 63 444 Q 48 444 46 436 Q 43 426 55 420 Q 98 398 125 411 Q 266 483 268 483 Q 271 483 274 481 Q 284 475 280 450 Q 286 282 245 137 Q 229 104 272 52 Q 282 39 293 46 Q 300 53 313 78 Q 359 133 456 227 Q 469 239 466 246 Q 465 255 453 245 Q 404 214 355 179 Q 303 137 313 200 Q 312 270 335 443 Q 339 468 361 493 Q 373 503 362 516 Q 350 532 311 548 Q 298 554 282 542 Q 192 487 141 468 Z" class="stroke2"/>
    
    </g>
</svg>