<svg version="1.1" viewBox="0 0 1024 1024" xmlns="http://www.w3.org/2000/svg">
  
  <g transform="scale(1, -1) translate(0, -900)">
    <style type="text/css">
        .stroke1 {fill: #808080;}
        .stroke2 {fill: #808079;}
        .stroke3 {fill: #808078;}
        .stroke4 {fill: #808077;}
        .stroke5 {fill: #808076;}
        .stroke6 {fill: #808075;}
        .stroke7 {fill: #808074;}
        .stroke8 {fill: #808073;}
        .stroke9 {fill: #808072;}
        .stroke10 {fill: #808071;}
        .stroke11 {fill: #808070;}
        .stroke12 {fill: #808069;}
        .stroke13 {fill: #808068;}
        .stroke14 {fill: #808067;}
        .stroke15 {fill: #808066;}
        .stroke16 {fill: #808065;}
        .stroke17 {fill: #808064;}
        .stroke18 {fill: #808063;}
        .stroke19 {fill: #808062;}
        .stroke20 {fill: #808061;}
        text {
            font-family: Helvetica;
            font-size: 50px;
            fill: #808060;
            paint-order: stroke;
            stroke: #000000;
            stroke-width: 4px;
            stroke-linecap: butt;
            stroke-linejoin: miter;
            font-weight: 800;
        }
    </style>

    <path d="M 233 768 Q 236 759 255 742 Q 300 700 326 674 Q 339 662 357 662 Q 372 662 374 682 Q 376 698 370 721 Q 364 746 308 770 Q 263 788 241 787 Q 238 786 237 786 Q 231 782 233 768 Z" class="stroke1"/>
    <path d="M 263 541 Q 147 476 82 472 Q 63 474 65 463 Q 66 455 73 450 Q 98 435 111 434 Q 129 433 180 459 Q 192 465 219 478 Q 260 499 259 466 Q 259 460 257 452 Q 257 281 217 157 Q 199 127 241 75 Q 257 54 275 88 L 280 100 Q 322 151 406 237 Q 418 247 416 255 Q 415 265 404 254 L 319 196 Q 279 165 282 204 Q 282 209 283 216 Q 284 283 310 443 Q 314 466 333 486 Q 344 498 343 504 Q 343 508 339 514 Q 329 529 291 545 Q 279 553 263 541 Z" class="stroke2"/>
    <path d="M 588 598 Q 629 623 686 666 Q 727 698 769 715 Q 771 715 773 716 Q 802 730 787 745 Q 783 749 778 752 Q 754 764 706 770 Q 682 774 672 770 Q 664 764 666 753 Q 676 705 468 551 Q 452 539 458 532 Q 460 530 461 529 Q 496 543 565 585 L 588 598 Z" class="stroke3"/>
    <path d="M 618 392 Q 750 438 849 451 Q 872 455 876 459 Q 878 461 878 465 Q 880 478 865 486 Q 821 513 734 478 L 622 433 L 573 416 L 423 365 Q 396 356 419 347 Q 461 330 537 362 Q 570 375 571 375 L 618 392 Z" class="stroke4"/>
    <path d="M 571 375 Q 561 149 612 110 Q 745 10 882 50 L 921 62 Q 949 71 986 98 Q 1007 115 994 145 Q 977 180 962 253 Q 958 271 954 275 Q 949 278 945 267 Q 944 264 943 260 Q 924 186 898 149 Q 884 130 858 123 Q 853 122 845 121 Q 753 101 674 145 Q 613 180 612 295 Q 612 335 618 392 L 622 433 Q 627 496 639 544 Q 643 563 631 572 Q 606 597 588 598 C 561 610 559 611 565 585 Q 565 582 572 555 Q 580 523 578 490 L 573 416 L 571 375 Z" class="stroke5"/>
    
    
    
    
    </g>
</svg>