<svg version="1.1" viewBox="0 0 1024 1024" xmlns="http://www.w3.org/2000/svg">
  
  <g transform="scale(1, -1) translate(0, -900)">
    <style type="text/css">
        .stroke1 {fill: #808080;}
        .stroke2 {fill: #808079;}
        .stroke3 {fill: #808078;}
        .stroke4 {fill: #808077;}
        .stroke5 {fill: #808076;}
        .stroke6 {fill: #808075;}
        .stroke7 {fill: #808074;}
        .stroke8 {fill: #808073;}
        .stroke9 {fill: #808072;}
        .stroke10 {fill: #808071;}
        .stroke11 {fill: #808070;}
        .stroke12 {fill: #808069;}
        .stroke13 {fill: #808068;}
        .stroke14 {fill: #808067;}
        .stroke15 {fill: #808066;}
        .stroke16 {fill: #808065;}
        .stroke17 {fill: #808064;}
        .stroke18 {fill: #808063;}
        .stroke19 {fill: #808062;}
        .stroke20 {fill: #808061;}
        text {
            font-family: Helvetica;
            font-size: 50px;
            fill: #808060;
            paint-order: stroke;
            stroke: #000000;
            stroke-width: 4px;
            stroke-linecap: butt;
            stroke-linejoin: miter;
            font-weight: 800;
        }
    </style>

    <path d="M 282 730 Q 316 703 351 670 Q 366 657 383 657 Q 395 658 400 672 Q 406 688 395 721 Q 383 760 276 783 Q 260 787 252 783 Q 246 779 248 765 Q 252 752 282 730 Z" class="stroke1"/>
    <path d="M 159 456 Q 107 443 79 441 Q 64 442 61 434 Q 57 425 68 417 Q 104 393 143 404 Q 257 452 263 449 Q 264 449 267 447 Q 274 443 267 334 Q 263 222 230 122 Q 212 89 256 37 Q 266 24 277 31 Q 286 38 297 63 Q 337 115 420 203 Q 433 215 430 222 Q 429 231 417 221 Q 377 194 336 165 Q 291 128 300 183 Q 300 247 326 403 Q 330 428 354 451 Q 367 461 357 475 Q 347 491 307 510 Q 295 517 277 506 Q 201 469 159 456 Z" class="stroke2"/>
    <path d="M 628 662 Q 646 696 665 714 Q 675 724 669 739 Q 665 752 634 775 Q 606 794 585 793 Q 566 790 575 767 Q 591 736 579 707 Q 522 550 362 344 Q 352 334 350 327 Q 346 315 361 318 Q 430 336 592 596 Q 602 617 616 638 L 616 639 L 628 662 Z" class="stroke3"/>
    <path d="M 616 639 Q 689 527 788 405 Q 804 386 835 385 Q 937 386 969 390 Q 979 391 980 397 Q 981 401 967 409 Q 835 463 769 520 Q 702 581 628 662 C 608 684 600 664 616 639 Z" class="stroke4"/>
    <path d="M 542 222 Q 543 223 546 224 Q 681 300 745 327 Q 764 328 761 340 Q 758 356 742 378 Q 726 399 705 404 Q 690 405 688 387 Q 689 374 677 359 Q 631 313 545 247 C 521 229 516 208 542 222 Z" class="stroke5"/>
    <path d="M 545 247 Q 549 287 559 329 Q 563 348 552 359 Q 539 374 513 384 Q 500 388 490 383 Q 483 379 488 360 Q 501 317 497 278 Q 485 121 498 78 Q 501 57 522 39 Q 597 -18 770 13 Q 779 16 789 18 Q 829 28 871 54 Q 890 70 875 98 Q 860 123 838 201 Q 837 217 829 222 Q 822 225 819 207 Q 794 120 778 93 Q 765 80 729 70 Q 648 49 581 72 Q 556 82 550 98 Q 532 134 542 222 L 545 247 Z" class="stroke6"/>
    
    
    
    
    
    </g>
</svg>