<svg version="1.1" viewBox="0 0 1024 1024" xmlns="http://www.w3.org/2000/svg">
  
  <g transform="scale(1, -1) translate(0, -900)">
    <style type="text/css">
        .stroke1 {fill: #808080;}
        .stroke2 {fill: #808079;}
        .stroke3 {fill: #808078;}
        .stroke4 {fill: #808077;}
        .stroke5 {fill: #808076;}
        .stroke6 {fill: #808075;}
        .stroke7 {fill: #808074;}
        .stroke8 {fill: #808073;}
        .stroke9 {fill: #808072;}
        .stroke10 {fill: #808071;}
        .stroke11 {fill: #808070;}
        .stroke12 {fill: #808069;}
        .stroke13 {fill: #808068;}
        .stroke14 {fill: #808067;}
        .stroke15 {fill: #808066;}
        .stroke16 {fill: #808065;}
        .stroke17 {fill: #808064;}
        .stroke18 {fill: #808063;}
        .stroke19 {fill: #808062;}
        .stroke20 {fill: #808061;}
        text {
            font-family: Helvetica;
            font-size: 50px;
            fill: #808060;
            paint-order: stroke;
            stroke: #000000;
            stroke-width: 4px;
            stroke-linecap: butt;
            stroke-linejoin: miter;
            font-weight: 800;
        }
    </style>

    <path d="M 305 756 Q 336 732 371 703 Q 387 690 404 692 Q 416 693 420 708 Q 424 724 412 757 Q 405 778 369 792 Q 285 817 272 807 Q 266 803 269 789 Q 273 776 305 756 Z" class="stroke1"/>
    <path d="M 157 502 Q 105 486 78 485 Q 63 485 60 478 Q 56 469 68 461 Q 90 446 107 444 Q 125 440 246 496 Q 274 509 283 501 Q 292 495 284 390 Q 281 278 250 177 Q 232 147 276 93 Q 288 80 297 87 Q 306 94 317 119 Q 357 171 440 259 Q 453 271 450 278 Q 449 287 437 277 Q 397 250 356 221 Q 310 182 319 239 Q 318 303 342 459 Q 346 484 370 508 Q 383 518 373 531 Q 361 547 322 566 Q 310 572 292 561 Q 207 516 157 502 Z" class="stroke2"/>
    <path d="M 528 624 Q 516 631 485 637 Q 472 641 469 636 Q 462 630 470 613 Q 503 534 518 408 Q 519 371 540 344 Q 558 322 563 337 Q 567 350 568 370 L 566 406 Q 551 484 539 590 C 536 620 535 621 528 624 Z" class="stroke3"/>
    <path d="M 787 440 Q 815 557 856 593 Q 875 614 858 633 Q 839 648 782 675 Q 761 684 738 674 Q 657 643 528 624 C 498 619 509 586 539 590 Q 548 590 722 621 Q 741 625 749 617 Q 762 605 759 580 Q 747 501 730 439 C 722 410 780 411 787 440 Z" class="stroke4"/>
    <path d="M 568 370 Q 578 369 590 371 Q 659 387 807 399 Q 819 400 820 410 Q 820 419 788 440 L 787 440 L 730 439 Q 636 417 566 406 C 536 401 538 371 568 370 Z" class="stroke5"/>
    <path d="M 545 261 Q 523 182 373 53 Q 351 37 379 41 Q 448 47 570 174 Q 573 181 619 227 Q 629 240 627 249 Q 623 262 597 270 Q 567 280 555 277 Q 548 276 545 261 Z" class="stroke6"/>
    <path d="M 719 257 Q 779 188 848 90 Q 863 66 878 59 Q 888 56 897 67 Q 913 79 905 129 Q 896 199 724 290 Q 715 297 711 284 Q 708 269 719 257 Z" class="stroke7"/>
    
    
    
    
    
    
    </g>
</svg>