<svg version="1.1" viewBox="0 0 1024 1024" xmlns="http://www.w3.org/2000/svg">
  
  <g transform="scale(1, -1) translate(0, -900)">
    <style type="text/css">
        .stroke1 {fill: #808080;}
        .stroke2 {fill: #808079;}
        .stroke3 {fill: #808078;}
        .stroke4 {fill: #808077;}
        .stroke5 {fill: #808076;}
        .stroke6 {fill: #808075;}
        .stroke7 {fill: #808074;}
        .stroke8 {fill: #808073;}
        .stroke9 {fill: #808072;}
        .stroke10 {fill: #808071;}
        .stroke11 {fill: #808070;}
        .stroke12 {fill: #808069;}
        .stroke13 {fill: #808068;}
        .stroke14 {fill: #808067;}
        .stroke15 {fill: #808066;}
        .stroke16 {fill: #808065;}
        .stroke17 {fill: #808064;}
        .stroke18 {fill: #808063;}
        .stroke19 {fill: #808062;}
        .stroke20 {fill: #808061;}
        text {
            font-family: Helvetica;
            font-size: 50px;
            fill: #808060;
            paint-order: stroke;
            stroke: #000000;
            stroke-width: 4px;
            stroke-linecap: butt;
            stroke-linejoin: miter;
            font-weight: 800;
        }
    </style>

    <path d="M 252 729 Q 280 704 311 672 Q 326 657 343 658 Q 355 658 361 673 Q 365 689 357 722 Q 348 755 248 782 Q 232 786 224 783 Q 218 779 220 765 Q 224 752 252 729 Z" class="stroke1"/>
    <path d="M 163 491 Q 117 473 92 470 Q 79 469 77 462 Q 73 453 84 447 Q 123 426 148 439 Q 175 455 200 473 Q 222 486 231 480 Q 240 476 236 451 Q 242 280 208 153 Q 193 122 234 76 Q 244 64 253 71 Q 260 78 270 100 Q 301 143 369 217 Q 381 227 378 234 Q 377 241 366 233 Q 336 214 306 193 Q 261 156 269 211 Q 268 278 287 446 Q 290 468 309 491 Q 321 501 311 512 Q 301 527 264 541 Q 252 547 237 536 Q 191 503 163 491 Z" class="stroke2"/>
    <path d="M 713 599 Q 776 639 821 656 Q 837 659 839 667 Q 840 677 828 687 Q 764 717 734 710 Q 727 706 728 694 Q 734 658 571 547 Q 567 538 574 536 Q 610 548 662 574 Q 674 580 686 585 L 713 599 Z" class="stroke3"/>
    <path d="M 750 439 Q 751 521 756 543 Q 762 559 753 569 Q 734 588 713 599 C 687 614 676 613 686 585 Q 699 552 703 487 Q 703 426 703 271 C 703 241 745 248 745 278 Q 746 347 749 407 L 750 439 Z" class="stroke4"/>
    <path d="M 749 407 Q 776 403 874 428 Q 877 429 882 430 Q 895 434 898 437 Q 905 444 900 453 Q 893 463 863 468 Q 851 468 776 446 Q 763 443 750 439 C 721 430 719 410 749 407 Z" class="stroke5"/>
    <path d="M 703 271 Q 688 270 678 267 Q 650 257 638 263 Q 625 267 628 282 Q 632 322 640 367 Q 646 388 629 406 Q 601 434 580 433 Q 564 433 571 415 Q 599 369 592 323 Q 585 271 578 263 Q 568 247 576 232 Q 589 210 602 209 Q 609 208 631 218 Q 763 254 901 251 Q 923 250 923 261 Q 924 273 889 291 Q 862 307 821 292 Q 784 286 745 278 L 703 271 Z" class="stroke6"/>
    <path d="M 496 253 Q 538 367 544 372 Q 551 382 545 390 Q 535 400 520 405 Q 507 409 486 404 Q 462 400 456 406 Q 452 409 457 420 Q 479 463 500 513 Q 516 544 531 561 Q 547 576 535 588 Q 525 597 495 607 Q 473 617 458 604 Q 413 573 379 562 Q 366 558 374 551 Q 393 539 448 560 Q 460 563 465 557 Q 471 545 457 506 Q 438 439 419 417 Q 409 404 414 392 Q 418 385 435 386 Q 477 389 482 370 Q 488 352 464 274 L 452 241 Q 416 157 333 55 Q 324 42 328 40 Q 332 37 340 44 Q 407 90 439 137 Q 461 174 482 219 L 496 253 Z" class="stroke7"/>
    <path d="M 482 219 Q 726 17 791 12 Q 797 13 805 13 Q 898 23 971 41 Q 983 45 985 54 Q 988 63 967 64 Q 907 76 841 84 Q 691 108 498 252 Q 497 253 496 253 L 464 274 Q 413 316 353 300 Q 343 296 348 286 Q 355 279 366 278 Q 403 275 450 242 Q 451 242 452 241 L 482 219 Z" class="stroke8"/>
    
    
    
    
    
    
    
    </g>
</svg>