<svg version="1.1" viewBox="0 0 1024 1024" xmlns="http://www.w3.org/2000/svg">
  
  <g transform="scale(1, -1) translate(0, -900)">
    <style type="text/css">
        .stroke1 {fill: #808080;}
        .stroke2 {fill: #808079;}
        .stroke3 {fill: #808078;}
        .stroke4 {fill: #808077;}
        .stroke5 {fill: #808076;}
        .stroke6 {fill: #808075;}
        .stroke7 {fill: #808074;}
        .stroke8 {fill: #808073;}
        .stroke9 {fill: #808072;}
        .stroke10 {fill: #808071;}
        .stroke11 {fill: #808070;}
        .stroke12 {fill: #808069;}
        .stroke13 {fill: #808068;}
        .stroke14 {fill: #808067;}
        .stroke15 {fill: #808066;}
        .stroke16 {fill: #808065;}
        .stroke17 {fill: #808064;}
        .stroke18 {fill: #808063;}
        .stroke19 {fill: #808062;}
        .stroke20 {fill: #808061;}
        text {
            font-family: Helvetica;
            font-size: 50px;
            fill: #808060;
            paint-order: stroke;
            stroke: #000000;
            stroke-width: 4px;
            stroke-linecap: butt;
            stroke-linejoin: miter;
            font-weight: 800;
        }
    </style>

    <path d="M 253 720 Q 287 692 325 658 Q 340 645 356 646 Q 368 646 373 660 Q 377 676 367 707 Q 355 743 247 771 Q 231 774 224 771 Q 218 767 220 753 Q 224 743 253 720 Z" class="stroke1"/>
    <path d="M 145 477 Q 96 461 70 459 Q 55 460 53 452 Q 49 445 60 436 Q 94 415 132 426 Q 235 478 246 470 Q 256 463 250 437 Q 250 400 248 361 Q 248 252 219 151 Q 201 117 246 71 Q 256 59 266 66 Q 273 73 284 97 Q 318 146 393 231 Q 405 243 402 250 Q 401 257 390 248 Q 354 223 318 195 Q 278 159 283 211 Q 282 275 303 431 Q 307 453 328 477 Q 340 487 331 500 Q 319 516 282 532 Q 270 538 253 527 Q 184 490 145 477 Z" class="stroke2"/>
    <path d="M 489 720 Q 479 724 454 728 Q 444 731 440 726 Q 436 720 443 706 Q 474 640 492 532 Q 495 501 513 478 Q 529 459 534 473 Q 535 480 537 489 L 536 516 Q 535 529 532 544 Q 510 653 505 689 C 501 716 501 716 489 720 Z" class="stroke3"/>
    <path d="M 722 518 Q 741 490 757 482 Q 767 475 781 494 Q 794 519 823 655 Q 830 685 853 708 Q 865 720 854 732 Q 839 748 800 772 Q 787 778 707 761 Q 694 761 489 720 C 460 714 476 681 505 689 Q 544 701 602 712 L 635 718 Q 750 740 765 727 Q 778 712 775 697 Q 751 553 734 539 C 722 518 722 518 722 518 Z" class="stroke4"/>
    <path d="M 654 607 Q 681 614 705 618 Q 726 622 717 633 Q 707 646 684 648 Q 672 649 656 644 L 613 630 Q 582 618 553 608 Q 538 604 558 591 Q 565 587 580 590 Q 596 594 613 597 L 654 607 Z" class="stroke5"/>
    <path d="M 650 540 Q 651 577 654 607 L 656 644 Q 657 654 658 663 Q 658 699 657 700 Q 647 710 635 718 C 610 735 594 741 602 712 Q 611 684 613 630 L 613 597 Q 613 569 614 531 C 615 501 649 510 650 540 Z" class="stroke6"/>
    <path d="M 537 489 Q 544 489 554 490 Q 606 505 722 518 C 752 521 755 522 734 539 Q 730 543 720 549 Q 704 558 650 540 L 614 531 Q 572 524 536 516 C 507 510 507 488 537 489 Z" class="stroke7"/>
    <path d="M 483 444 Q 486 429 462 389 Q 438 355 382 309 Q 375 305 383 303 Q 389 300 430 317 Q 475 341 537 403 Q 544 406 543 414 Q 543 421 535 431 Q 508 458 489 454 Q 482 453 483 444 Z" class="stroke8"/>
    <path d="M 731 419 Q 771 388 816 350 Q 828 340 841 341 Q 850 342 853 352 Q 857 365 849 389 Q 837 429 726 458 Q 713 461 708 459 Q 704 455 705 445 Q 709 436 731 419 Z" class="stroke9"/>
    <path d="M 592 321 Q 601 336 611 345 Q 617 349 615 357 Q 614 364 604 375 Q 579 400 553 395 Q 546 394 547 383 Q 559 320 454 203 Q 426 172 353 109 Q 346 105 355 103 Q 436 122 534 242 L 546 257 Q 556 273 572 292 L 592 321 Z" class="stroke10"/>
    <path d="M 686 145 Q 717 188 738 251 Q 747 281 765 296 Q 780 308 765 322 Q 747 338 718 351 Q 700 358 680 350 Q 643 331 592 321 C 563 315 542 291 572 292 Q 590 289 672 310 Q 688 314 689 296 Q 689 239 649 172 L 629 145 Q 616 130 602 116 Q 550 74 417 40 Q 404 39 411 30 Q 418 24 443 26 Q 530 35 580 55 Q 625 74 660 113 L 686 145 Z" class="stroke11"/>
    <path d="M 660 113 Q 765 11 797 2 Q 896 2 939 11 Q 955 14 957 18 Q 958 24 946 29 Q 897 48 839 67 Q 781 88 686 145 L 649 172 Q 627 188 606 206 Q 566 243 546 257 C 522 275 513 264 534 242 Q 580 194 629 145 L 660 113 Z" class="stroke12"/>
    
    
    
    
    
    
    
    
    
    
    
    </g>
</svg>