<svg version="1.1" viewBox="0 0 1024 1024" xmlns="http://www.w3.org/2000/svg">
  
  <g transform="scale(1, -1) translate(0, -900)">
    <style type="text/css">
        .stroke1 {fill: #808080;}
        .stroke2 {fill: #808079;}
        .stroke3 {fill: #808078;}
        .stroke4 {fill: #808077;}
        .stroke5 {fill: #808076;}
        .stroke6 {fill: #808075;}
        .stroke7 {fill: #808074;}
        .stroke8 {fill: #808073;}
        .stroke9 {fill: #808072;}
        .stroke10 {fill: #808071;}
        .stroke11 {fill: #808070;}
        .stroke12 {fill: #808069;}
        .stroke13 {fill: #808068;}
        .stroke14 {fill: #808067;}
        .stroke15 {fill: #808066;}
        .stroke16 {fill: #808065;}
        .stroke17 {fill: #808064;}
        .stroke18 {fill: #808063;}
        .stroke19 {fill: #808062;}
        .stroke20 {fill: #808061;}
        text {
            font-family: Helvetica;
            font-size: 50px;
            fill: #808060;
            paint-order: stroke;
            stroke: #000000;
            stroke-width: 4px;
            stroke-linecap: butt;
            stroke-linejoin: miter;
            font-weight: 800;
        }
    </style>

    <path d="M 257 677 Q 435 723 440 729 Q 449 736 444 745 Q 437 755 408 762 Q 387 765 272 727 Q 188 706 147 700 Q 113 693 138 678 Q 181 659 228 670 L 257 677 Z" class="stroke1"/>
    <path d="M 216 552 Q 235 570 256 590 Q 272 609 285 616 Q 294 623 292 634 Q 289 658 257 677 C 232 693 221 699 228 670 L 229 668 Q 238 638 174 566 Q 144 532 105 494 Q 96 488 94 484 Q 90 475 100 476 Q 116 476 196 535 L 216 552 Z" class="stroke2"/>
    <path d="M 332 451 Q 326 463 313 478 L 301 491 Q 262 534 216 552 C 189 564 170 550 196 535 Q 205 532 227 514 L 269 474 Q 285 456 296 434 L 315 369 Q 327 294 302 195 Q 289 150 276 144 Q 264 140 208 156 Q 174 165 172 160 Q 171 153 181 140 Q 235 91 256 57 Q 269 38 286 41 Q 307 47 327 77 Q 372 164 369 311 Q 365 368 347 416 L 332 451 Z" class="stroke3"/>
    <path d="M 227 514 Q 227 450 81 336 Q 75 333 82 331 Q 89 330 144 355 Q 195 385 268 473 Q 268 474 269 474 C 289 497 229 544 227 514 Z" class="stroke4"/>
    <path d="M 296 434 Q 238 310 75 182 Q 63 170 72 169 Q 81 165 92 170 Q 195 207 297 345 Q 307 360 315 369 C 334 392 309 461 296 434 Z" class="stroke5"/>
    <path d="M 313 478 Q 394 538 433 561 Q 449 565 445 575 Q 439 590 422 605 Q 404 621 385 623 Q 372 622 373 605 Q 374 583 301 491 C 282 467 289 460 313 478 Z" class="stroke6"/>
    <path d="M 347 416 Q 380 397 413 372 Q 423 365 433 367 Q 440 368 442 376 Q 443 386 436 404 Q 424 435 333 451 L 332 451 C 302 455 321 431 347 416 Z" class="stroke7"/>
    <path d="M 619 701 Q 811 750 816 755 Q 825 764 820 772 Q 813 784 782 790 Q 757 794 645 756 Q 567 734 485 722 Q 448 715 475 699 Q 521 675 575 691 Q 576 692 579 691 L 619 701 Z" class="stroke8"/>
    <path d="M 564 564 Q 624 634 640 645 Q 649 652 646 664 Q 645 676 619 701 C 598 722 578 721 579 691 Q 588 639 432 480 Q 423 473 421 468 Q 417 459 429 460 Q 465 466 543 543 L 564 564 Z" class="stroke9"/>
    <path d="M 689 466 Q 637 536 564 564 C 536 576 517 557 543 543 Q 562 534 580 521 L 626 480 Q 629 477 651 444 L 674 368 Q 681 272 658 173 Q 643 118 627 109 Q 614 103 555 116 Q 506 129 504 120 Q 503 113 516 99 Q 583 47 611 11 Q 626 -8 642 -4 Q 703 21 727 179 Q 740 281 730 344 L 689 466 Z" class="stroke10"/>
    <path d="M 580 521 Q 571 452 415 318 Q 399 305 421 309 Q 476 313 594 441 Q 597 447 626 480 C 646 503 586 550 580 521 Z" class="stroke11"/>
    <path d="M 651 444 Q 587 297 391 148 Q 378 135 388 133 Q 409 124 489 174 Q 564 220 647 332 Q 663 356 674 368 C 693 391 663 471 651 444 Z" class="stroke12"/>
    <path d="M 699 447 Q 787 516 832 542 Q 850 548 845 559 Q 838 575 818 594 Q 797 612 774 613 Q 759 612 761 592 Q 765 568 689 466 C 671 442 675 429 699 447 Z" class="stroke13"/>
    <path d="M 730 344 Q 844 158 878 158 Q 933 162 980 167 Q 999 168 1000 173 Q 1001 179 979 192 Q 861 255 810 308 Q 708 422 699 447 C 685 474 635 497 730 344 Z" class="stroke14"/>
    
    
    
    
    
    
    
    
    
    
    
    
    
    </g>
</svg>