<svg version="1.1" viewBox="0 0 1024 1024" xmlns="http://www.w3.org/2000/svg">
  
  <g transform="scale(1, -1) translate(0, -900)">
    <style type="text/css">
        .stroke1 {fill: #808080;}
        .stroke2 {fill: #808079;}
        .stroke3 {fill: #808078;}
        .stroke4 {fill: #808077;}
        .stroke5 {fill: #808076;}
        .stroke6 {fill: #808075;}
        .stroke7 {fill: #808074;}
        .stroke8 {fill: #808073;}
        .stroke9 {fill: #808072;}
        .stroke10 {fill: #808071;}
        .stroke11 {fill: #808070;}
        .stroke12 {fill: #808069;}
        .stroke13 {fill: #808068;}
        .stroke14 {fill: #808067;}
        .stroke15 {fill: #808066;}
        .stroke16 {fill: #808065;}
        .stroke17 {fill: #808064;}
        .stroke18 {fill: #808063;}
        .stroke19 {fill: #808062;}
        .stroke20 {fill: #808061;}
        text {
            font-family: Helvetica;
            font-size: 50px;
            fill: #808060;
            paint-order: stroke;
            stroke: #000000;
            stroke-width: 4px;
            stroke-linecap: butt;
            stroke-linejoin: miter;
            font-weight: 800;
        }
    </style>

    <path d="M 207 689 Q 194 702 174 709 Q 165 713 154 709 Q 147 705 152 693 Q 170 636 171 513 Q 165 392 154 348 Q 141 294 174 253 Q 184 240 194 252 L 202 266 L 208 296 Q 209 327 210 414 L 211 447 Q 212 495 213 530 L 214 560 Q 215 639 218 649 Q 219 656 219 662 C 221 678 221 678 207 689 Z" class="stroke1"/>
    <path d="M 341 283 Q 353 264 365 246 Q 381 221 389 224 Q 399 225 413 256 Q 422 278 422 358 Q 404 631 430 681 Q 440 700 432 711 Q 425 721 372 736 Q 347 745 330 734 Q 264 703 207 689 C 178 681 190 654 219 662 Q 223 663 230 665 Q 264 675 303 688 Q 339 700 352 689 Q 364 677 364 631 Q 368 438 362 333 Q 363 315 352 312 C 338 288 338 288 341 283 Z" class="stroke2"/>
    <path d="M 213 530 Q 270 540 313 548 Q 335 554 326 565 Q 314 578 290 580 Q 251 583 214 560 C 188 544 183 525 213 530 Z" class="stroke3"/>
    <path d="M 210 414 Q 268 427 313 435 Q 335 441 326 452 Q 314 465 288 468 Q 243 471 211 447 C 187 429 181 407 210 414 Z" class="stroke4"/>
    <path d="M 202 266 Q 281 278 341 283 C 371 286 378 297 352 312 Q 343 318 331 320 Q 310 323 208 296 C 179 288 172 262 202 266 Z" class="stroke5"/>
    <path d="M 205 217 Q 199 160 68 40 Q 49 25 74 29 Q 134 33 233 143 Q 239 158 274 187 Q 283 199 280 208 Q 277 220 253 226 Q 225 235 214 231 Q 207 230 205 217 Z" class="stroke6"/>
    <path d="M 349 149 Q 373 116 397 78 Q 406 63 420 61 Q 430 60 437 69 Q 444 81 444 109 Q 441 145 355 193 Q 342 200 336 199 Q 332 196 329 185 Q 330 175 349 149 Z" class="stroke7"/>
    <path d="M 814 522 Q 702 506 581 478 Q 568 474 564 477 Q 560 481 568 497 Q 707 714 738 751 Q 751 763 743 777 Q 736 790 680 815 Q 661 822 650 818 Q 635 811 643 788 Q 667 718 524 512 Q 500 487 463 459 Q 447 446 452 433 Q 459 414 488 391 Q 501 379 516 392 Q 568 435 831 494 Q 832 495 834 495 C 863 502 844 526 814 522 Z" class="stroke8"/>
    <path d="M 834 495 Q 904 402 909 400 Q 916 399 925 406 Q 938 416 932 458 Q 929 509 781 598 Q 774 604 770 593 Q 769 581 776 570 Q 794 548 814 522 L 834 495 Z" class="stroke9"/>
    <path d="M 545 286 Q 532 292 499 296 Q 486 300 483 294 Q 476 287 486 270 Q 517 212 537 113 Q 541 83 559 64 Q 578 42 583 58 Q 586 68 586 81 L 583 116 Q 574 134 559 251 C 555 281 555 282 545 286 Z" class="stroke10"/>
    <path d="M 813 144 Q 844 232 879 256 Q 897 275 882 295 Q 864 310 808 338 Q 789 347 766 338 Q 678 305 545 286 C 515 282 530 244 559 251 Q 565 254 749 286 Q 768 289 777 281 Q 787 271 783 251 Q 771 193 756 145 C 747 116 803 116 813 144 Z" class="stroke11"/>
    <path d="M 586 81 Q 596 80 610 82 Q 680 95 830 104 Q 842 105 843 114 Q 843 123 813 144 C 800 154 785 151 756 145 Q 660 126 583 116 C 553 112 556 82 586 81 Z" class="stroke12"/>
    
    
    
    
    
    
    
    
    
    
    
    </g>
</svg>