<svg version="1.1" viewBox="0 0 1024 1024" xmlns="http://www.w3.org/2000/svg">
  
  <g transform="scale(1, -1) translate(0, -900)">
    <style type="text/css">
        .stroke1 {fill: #808080;}
        .stroke2 {fill: #808079;}
        .stroke3 {fill: #808078;}
        .stroke4 {fill: #808077;}
        .stroke5 {fill: #808076;}
        .stroke6 {fill: #808075;}
        .stroke7 {fill: #808074;}
        .stroke8 {fill: #808073;}
        .stroke9 {fill: #808072;}
        .stroke10 {fill: #808071;}
        .stroke11 {fill: #808070;}
        .stroke12 {fill: #808069;}
        .stroke13 {fill: #808068;}
        .stroke14 {fill: #808067;}
        .stroke15 {fill: #808066;}
        .stroke16 {fill: #808065;}
        .stroke17 {fill: #808064;}
        .stroke18 {fill: #808063;}
        .stroke19 {fill: #808062;}
        .stroke20 {fill: #808061;}
        text {
            font-family: Helvetica;
            font-size: 50px;
            fill: #808060;
            paint-order: stroke;
            stroke: #000000;
            stroke-width: 4px;
            stroke-linecap: butt;
            stroke-linejoin: miter;
            font-weight: 800;
        }
    </style>

    <path d="M 172 686 Q 160 698 139 705 Q 130 709 120 705 Q 113 701 118 689 Q 151 604 131 402 Q 107 312 143 273 Q 152 261 162 272 Q 172 287 173 306 L 176 340 Q 176 349 177 429 L 177 458 Q 178 507 179 542 L 179 570 Q 180 640 182 648 Q 183 655 183 661 C 184 676 184 676 172 686 Z" class="stroke1"/>
    <path d="M 299 321 Q 311 303 322 285 Q 338 261 345 264 Q 355 265 367 293 Q 379 323 377 361 Q 373 439 374 608 Q 375 651 388 674 Q 398 692 390 702 Q 383 712 334 728 Q 310 737 294 727 Q 227 699 172 686 C 143 679 154 654 183 661 Q 187 662 196 664 Q 229 671 267 684 Q 301 694 314 682 Q 324 672 324 631 Q 328 462 320 368 Q 324 344 303 348 Q 299 349 299 348 C 283 346 283 346 299 321 Z" class="stroke2"/>
    <path d="M 179 542 Q 180 542 185 542 Q 243 555 285 564 Q 307 570 298 581 Q 286 594 262 596 Q 225 596 179 570 C 153 555 149 542 179 542 Z" class="stroke3"/>
    <path d="M 177 429 Q 181 435 289 452 Q 311 458 302 469 Q 290 482 266 484 Q 229 487 177 458 C 151 444 151 414 177 429 Z" class="stroke4"/>
    <path d="M 173 306 Q 212 315 299 321 C 329 323 322 329 299 348 Q 292 354 284 358 Q 268 365 240 358 Q 206 348 176 340 C 147 332 144 300 173 306 Z" class="stroke5"/>
    <path d="M 173 243 Q 161 183 29 72 Q 10 57 34 61 Q 97 68 197 167 Q 197 168 240 211 Q 250 221 248 230 Q 245 243 221 250 Q 194 260 183 257 Q 176 256 173 243 Z" class="stroke6"/>
    <path d="M 293 182 Q 315 154 337 120 Q 346 107 358 105 Q 367 104 373 113 Q 380 123 378 149 Q 377 168 353 189 Q 328 205 298 222 Q 286 228 280 227 Q 276 224 274 214 Q 275 204 293 182 Z" class="stroke7"/>
    <path d="M 670 770 Q 625 718 495 636 Q 491 626 498 624 Q 603 660 696 717 Q 739 742 776 754 Q 792 757 795 765 Q 798 777 784 786 Q 762 799 716 810 Q 700 814 686 812 Q 680 808 681 796 Q 682 783 670 770 Z" class="stroke8"/>
    <path d="M 566 566 Q 585 551 606 532 Q 619 522 632 523 Q 642 524 645 536 Q 648 549 639 575 Q 629 599 559 607 Q 546 610 540 607 Q 536 603 538 592 Q 542 582 566 566 Z" class="stroke9"/>
    <path d="M 491 245 Q 492 246 495 247 Q 643 320 758 426 Q 792 460 843 487 Q 865 500 855 511 Q 845 527 788 551 Q 767 561 708 529 Q 582 474 463 447 Q 441 444 449 431 Q 458 418 486 412 Q 516 405 545 421 Q 623 461 725 502 Q 738 506 735 493 Q 728 474 670 415 Q 615 354 459 251 C 434 234 464 232 491 245 Z" class="stroke10"/>
    <path d="M 459 251 Q 446 252 431 251 Q 407 245 385 252 Q 369 255 366 247 Q 362 237 377 224 Q 395 206 449 215 Q 485 219 560 178 Q 651 127 759 64 Q 793 43 843 62 Q 909 84 970 105 Q 991 112 990 121 Q 990 131 940 132 Q 760 144 749 146 Q 715 155 504 240 Q 497 243 491 245 L 459 251 Z" class="stroke11"/>
    
    
    
    
    
    
    
    
    
    
    </g>
</svg>