<svg version="1.1" viewBox="0 0 1024 1024" xmlns="http://www.w3.org/2000/svg">
  
  <g transform="scale(1, -1) translate(0, -900)">
    <style type="text/css">
        .stroke1 {fill: #808080;}
        .stroke2 {fill: #808079;}
        .stroke3 {fill: #808078;}
        .stroke4 {fill: #808077;}
        .stroke5 {fill: #808076;}
        .stroke6 {fill: #808075;}
        .stroke7 {fill: #808074;}
        .stroke8 {fill: #808073;}
        .stroke9 {fill: #808072;}
        .stroke10 {fill: #808071;}
        .stroke11 {fill: #808070;}
        .stroke12 {fill: #808069;}
        .stroke13 {fill: #808068;}
        .stroke14 {fill: #808067;}
        .stroke15 {fill: #808066;}
        .stroke16 {fill: #808065;}
        .stroke17 {fill: #808064;}
        .stroke18 {fill: #808063;}
        .stroke19 {fill: #808062;}
        .stroke20 {fill: #808061;}
        text {
            font-family: Helvetica;
            font-size: 50px;
            fill: #808060;
            paint-order: stroke;
            stroke: #000000;
            stroke-width: 4px;
            stroke-linecap: butt;
            stroke-linejoin: miter;
            font-weight: 800;
        }
    </style>

    <path d="M 220 707 Q 201 723 179 729 Q 170 730 165 723 Q 162 719 169 708 Q 212 575 171 390 Q 158 363 164 337 Q 171 307 182 295 Q 192 283 201 296 Q 225 326 226 438 Q 226 631 233 680 C 235 696 235 696 220 707 Z" class="stroke1"/>
    <path d="M 370 357 Q 363 335 376 313 Q 389 285 398 286 Q 411 287 427 319 Q 442 344 441 363 Q 429 457 432 605 Q 432 648 456 684 Q 466 699 458 708 Q 433 730 390 748 Q 375 754 354 746 Q 306 724 220 707 C 191 701 204 672 233 680 Q 350 713 368 703 Q 380 678 383 607 Q 383 397 370 357 Z" class="stroke2"/>
    <path d="M 282 548 Q 288 263 211 171 Q 205 167 201 160 Q 176 133 121 96 Q 111 92 109 89 Q 106 85 118 83 Q 166 83 253 160 Q 262 172 271 185 Q 320 269 322 484 Q 322 529 335 573 Q 339 582 332 588 Q 319 600 290 610 Q 274 617 261 612 Q 246 606 259 593 Q 281 571 282 548 Z" class="stroke3"/>
    <path d="M 343 222 Q 374 188 407 149 Q 416 137 428 136 Q 435 135 441 145 Q 447 155 443 179 Q 442 201 411 224 Q 342 266 328 262 Q 324 261 323 250 Q 324 241 343 222 Z" class="stroke4"/>
    <path d="M 563 578 Q 597 635 632 714 Q 645 751 659 770 Q 666 782 660 794 Q 653 806 623 822 Q 595 835 576 832 Q 560 826 570 807 Q 609 758 478 500 Q 466 484 464 473 Q 463 461 476 466 Q 495 475 548 554 L 563 578 Z" class="stroke5"/>
    <path d="M 718 74 Q 699 74 617 129 Q 607 133 607 128 Q 606 124 616 113 Q 668 53 691 10 Q 704 -17 720 -16 Q 742 -17 762 6 Q 837 69 853 226 Q 866 332 870 495 Q 870 532 892 561 Q 905 574 904 583 Q 903 590 883 604 Q 855 623 820 633 Q 793 642 776 632 Q 757 625 712 613 Q 649 595 604 587 Q 582 583 563 578 C 534 571 518 554 548 554 Q 578 548 724 575 Q 785 587 797 577 Q 818 538 804 316 Q 794 190 756 114 Q 740 77 718 74 Z" class="stroke6"/>
    <path d="M 679 321 Q 624 315 565 302 Q 559 301 557 302 Q 556 305 560 313 Q 633 427 649 446 Q 659 456 653 467 Q 646 477 601 495 Q 586 501 577 496 Q 567 490 573 472 Q 597 421 516 320 Q 500 304 478 285 Q 466 273 470 264 Q 476 248 500 232 Q 510 223 521 233 Q 536 249 691 301 C 719 311 709 324 679 321 Z" class="stroke7"/>
    <path d="M 691 301 Q 724 250 734 246 Q 741 245 749 253 Q 756 263 757 289 Q 757 323 677 372 Q 667 379 660 378 Q 656 377 654 366 Q 654 363 679 321 L 691 301 Z" class="stroke8"/>
    
    
    
    
    
    
    
    </g>
</svg>