<svg version="1.1" viewBox="0 0 1024 1024" xmlns="http://www.w3.org/2000/svg">
  
  <g transform="scale(1, -1) translate(0, -900)">
    <style type="text/css">
        .stroke1 {fill: #808080;}
        .stroke2 {fill: #808079;}
        .stroke3 {fill: #808078;}
        .stroke4 {fill: #808077;}
        .stroke5 {fill: #808076;}
        .stroke6 {fill: #808075;}
        .stroke7 {fill: #808074;}
        .stroke8 {fill: #808073;}
        .stroke9 {fill: #808072;}
        .stroke10 {fill: #808071;}
        .stroke11 {fill: #808070;}
        .stroke12 {fill: #808069;}
        .stroke13 {fill: #808068;}
        .stroke14 {fill: #808067;}
        .stroke15 {fill: #808066;}
        .stroke16 {fill: #808065;}
        .stroke17 {fill: #808064;}
        .stroke18 {fill: #808063;}
        .stroke19 {fill: #808062;}
        .stroke20 {fill: #808061;}
        text {
            font-family: Helvetica;
            font-size: 50px;
            fill: #808060;
            paint-order: stroke;
            stroke: #000000;
            stroke-width: 4px;
            stroke-linecap: butt;
            stroke-linejoin: miter;
            font-weight: 800;
        }
    </style>

    <path d="M 270 707 Q 313 723 339 737 Q 402 771 432 777 Q 453 781 447 800 Q 438 818 417 835 Q 398 851 387 851 Q 375 852 376 839 Q 376 812 312 764 Q 285 745 257 722 C 234 703 242 696 270 707 Z" class="stroke1"/>
    <path d="M 428 645 Q 373 617 312 585 Q 288 570 278 576 Q 268 582 269 605 Q 269 672 272 690 Q 273 700 270 707 L 257 722 Q 233 741 217 742 Q 205 743 200 739 Q 191 732 203 720 Q 246 650 219 562 Q 215 555 211 548 Q 199 527 207 507 Q 217 476 234 465 Q 244 458 256 476 Q 296 519 427 622 Q 433 626 438 631 C 461 650 455 659 428 645 Z" class="stroke2"/>
    <path d="M 438 631 Q 453 607 466 605 Q 475 604 481 613 Q 488 623 486 649 Q 483 677 410 714 Q 398 720 392 719 Q 388 716 387 706 Q 387 696 428 645 L 438 631 Z" class="stroke3"/>
    <path d="M 623 738 Q 696 754 753 759 Q 771 760 774 755 Q 781 746 778 724 Q 774 663 760 635 Q 739 601 709 607 Q 678 616 651 626 Q 626 633 645 609 Q 694 566 717 533 Q 729 515 744 527 Q 790 552 823 649 Q 844 734 860 750 Q 873 763 868 774 Q 859 786 808 812 Q 787 822 767 809 Q 746 799 665 784 Q 584 768 515 766 Q 497 766 494 757 Q 493 750 516 736 Q 540 720 560 725 Q 573 729 587 731 L 623 738 Z" class="stroke4"/>
    <path d="M 587 731 Q 587 667 475 548 Q 469 544 469 539 Q 468 535 473 535 Q 524 535 616 657 Q 619 670 641 691 Q 647 700 642 711 Q 632 729 623 738 C 603 760 589 761 587 731 Z" class="stroke5"/>
    <path d="M 378 487 Q 359 502 336 508 Q 327 509 321 502 Q 318 496 326 486 Q 357 402 331 263 Q 318 236 325 205 Q 334 172 345 160 Q 355 147 365 160 Q 389 185 390 279 Q 390 414 398 458 C 400 471 400 471 378 487 Z" class="stroke6"/>
    <path d="M 634 231 Q 627 206 641 184 Q 656 153 666 154 Q 681 155 698 190 Q 714 218 712 240 Q 688 418 721 469 Q 736 494 688 522 Q 669 532 646 542 Q 630 548 606 539 Q 495 491 378 487 C 348 485 368 453 398 458 Q 402 458 408 459 Q 600 504 623 489 Q 632 470 637 418 Q 641 261 634 231 Z" class="stroke7"/>
    <path d="M 483 333 Q 492 180 446 114 Q 409 57 274 3 Q 262 0 259 -3 Q 253 -7 267 -12 Q 336 -18 442 40 Q 460 52 474 68 Q 525 128 535 273 Q 538 337 549 362 Q 553 372 546 379 Q 528 395 496 408 Q 477 417 460 411 Q 442 404 457 388 Q 482 361 483 333 Z" class="stroke8"/>
    <path d="M 578 111 Q 633 62 699 -12 Q 715 -34 732 -39 Q 741 -40 749 -29 Q 762 -16 749 31 Q 737 86 579 144 Q 569 150 567 137 Q 567 122 578 111 Z" class="stroke9"/>
    
    
    
    
    
    
    
    
    </g>
</svg>