<svg version="1.1" viewBox="0 0 1024 1024" xmlns="http://www.w3.org/2000/svg">
  
  <g transform="scale(1, -1) translate(0, -900)">
    <style type="text/css">
        .stroke1 {fill: #808080;}
        .stroke2 {fill: #808079;}
        .stroke3 {fill: #808078;}
        .stroke4 {fill: #808077;}
        .stroke5 {fill: #808076;}
        .stroke6 {fill: #808075;}
        .stroke7 {fill: #808074;}
        .stroke8 {fill: #808073;}
        .stroke9 {fill: #808072;}
        .stroke10 {fill: #808071;}
        .stroke11 {fill: #808070;}
        .stroke12 {fill: #808069;}
        .stroke13 {fill: #808068;}
        .stroke14 {fill: #808067;}
        .stroke15 {fill: #808066;}
        .stroke16 {fill: #808065;}
        .stroke17 {fill: #808064;}
        .stroke18 {fill: #808063;}
        .stroke19 {fill: #808062;}
        .stroke20 {fill: #808061;}
        text {
            font-family: Helvetica;
            font-size: 50px;
            fill: #808060;
            paint-order: stroke;
            stroke: #000000;
            stroke-width: 4px;
            stroke-linecap: butt;
            stroke-linejoin: miter;
            font-weight: 800;
        }
    </style>

    <path d="M 185 663 Q 182 664 180 666 Q 156 685 139 678 Q 133 674 138 662 Q 139 653 144 645 Q 169 594 148 379 Q 124 288 159 249 Q 168 237 178 248 Q 194 270 193 346 Q 199 602 201 620 Q 202 632 202 639 C 203 651 203 651 185 663 Z" class="stroke1"/>
    <path d="M 329 312 Q 322 290 335 269 Q 348 241 358 242 Q 371 243 386 275 Q 399 300 399 320 Q 384 416 383 565 Q 382 608 405 645 Q 414 660 406 668 Q 381 689 338 706 Q 326 710 257 682 Q 220 670 185 663 C 156 657 173 632 202 639 Q 310 666 317 662 Q 329 637 335 565 Q 339 354 329 312 Z" class="stroke2"/>
    <path d="M 269 230 Q 284 306 284 465 Q 284 501 295 543 Q 298 552 291 557 Q 278 569 251 578 Q 235 584 223 579 Q 208 572 221 560 Q 243 541 244 518 Q 251 376 239 280 Q 224 159 163 96 Q 139 71 99 37 Q 90 33 89 29 Q 86 25 98 24 Q 128 24 198 87 Q 240 129 264 208 L 269 230 Z" class="stroke3"/>
    <path d="M 264 208 Q 268 201 278 190 Q 342 115 352 112 Q 359 111 365 121 Q 371 131 368 155 Q 367 176 340 195 Q 276 232 269 230 C 248 233 248 233 264 208 Z" class="stroke4"/>
    <path d="M 449 589 Q 415 579 441 566 Q 484 547 536 567 Q 567 576 601 586 Q 616 590 618 593 Q 625 602 620 609 Q 613 619 583 623 Q 553 626 526 611 Q 510 604 492 598 Q 473 594 449 589 Z" class="stroke5"/>
    <path d="M 734 489 Q 789 499 838 506 Q 848 505 857 518 Q 858 530 835 539 Q 805 561 729 534 Q 728 534 726 533 L 679 521 Q 669 520 657 515 Q 588 499 424 473 Q 396 469 417 452 Q 456 428 482 435 Q 501 441 527 445 L 567 454 Q 622 469 687 480 L 734 489 Z" class="stroke6"/>
    <path d="M 527 445 Q 533 439 536 344 Q 536 292 537 196 C 537 166 575 179 576 209 Q 577 273 581 327 L 582 358 Q 582 392 586 416 Q 592 437 567 454 C 543 472 518 473 527 445 Z" class="stroke7"/>
    <path d="M 581 327 Q 582 327 679 350 Q 701 357 690 369 Q 677 382 652 382 Q 603 379 582 358 C 560 338 552 321 581 327 Z" class="stroke8"/>
    <path d="M 482 179 Q 472 315 471 316 Q 468 317 467 319 Q 448 332 427 338 Q 415 342 409 337 Q 403 331 409 320 Q 430 287 450 169 C 455 139 484 149 482 179 Z" class="stroke9"/>
    <path d="M 537 196 Q 509 189 482 179 L 450 169 Q 423 160 400 161 Q 387 160 386 149 Q 385 136 394 129 Q 416 114 448 98 Q 458 95 469 104 Q 500 131 639 201 Q 658 211 673 223 Q 686 230 685 240 Q 681 244 668 242 Q 623 226 576 209 L 537 196 Z" class="stroke10"/>
    <path d="M 687 480 Q 708 330 786 159 Q 837 56 909 -11 Q 940 -36 956 -37 Q 971 -38 980 -25 Q 987 -15 980 31 Q 970 82 970 159 Q 973 190 963 191 Q 954 192 946 165 Q 927 83 907 94 Q 873 116 821 213 Q 767 319 734 489 L 726 533 Q 699 698 707 762 Q 720 798 697 816 Q 691 822 683 826 Q 661 842 647 843 Q 634 843 633 842 Q 609 838 628 812 Q 641 809 662 650 Q 666 587 679 521 L 687 480 Z" class="stroke11"/>
    <path d="M 775 669 Q 802 647 830 622 Q 843 609 858 611 Q 868 612 873 624 Q 877 639 867 667 Q 861 686 832 698 Q 763 722 748 715 Q 744 711 745 699 Q 749 689 775 669 Z" class="stroke12"/>
    
    
    
    
    
    
    
    
    
    
    
    </g>
</svg>