<svg version="1.1" viewBox="0 0 1024 1024" xmlns="http://www.w3.org/2000/svg">
  
  <g transform="scale(1, -1) translate(0, -900)">
    <style type="text/css">
        .stroke1 {fill: #808080;}
        .stroke2 {fill: #808079;}
        .stroke3 {fill: #808078;}
        .stroke4 {fill: #808077;}
        .stroke5 {fill: #808076;}
        .stroke6 {fill: #808075;}
        .stroke7 {fill: #808074;}
        .stroke8 {fill: #808073;}
        .stroke9 {fill: #808072;}
        .stroke10 {fill: #808071;}
        .stroke11 {fill: #808070;}
        .stroke12 {fill: #808069;}
        .stroke13 {fill: #808068;}
        .stroke14 {fill: #808067;}
        .stroke15 {fill: #808066;}
        .stroke16 {fill: #808065;}
        .stroke17 {fill: #808064;}
        .stroke18 {fill: #808063;}
        .stroke19 {fill: #808062;}
        .stroke20 {fill: #808061;}
        text {
            font-family: Helvetica;
            font-size: 50px;
            fill: #808060;
            paint-order: stroke;
            stroke: #000000;
            stroke-width: 4px;
            stroke-linecap: butt;
            stroke-linejoin: miter;
            font-weight: 800;
        }
    </style>

    <path d="M 398 589 Q 503 616 508 621 Q 515 628 511 637 Q 504 647 476 654 Q 448 658 402 640 L 348 622 Q 251 604 232 600 Q 196 593 223 578 Q 256 557 327 574 Q 337 577 349 578 L 398 589 Z" class="stroke1"/>
    <path d="M 389 478 Q 393 536 398 589 L 402 640 Q 402 707 423 786 Q 426 796 406 812 Q 370 831 346 835 Q 330 839 322 830 Q 315 823 323 807 Q 342 779 343 759 Q 347 693 348 622 L 349 578 Q 349 526 347 469 C 346 439 387 448 389 478 Z" class="stroke2"/>
    <path d="M 376 438 Q 442 451 521 461 Q 537 462 537 470 Q 538 482 522 491 Q 497 501 475 498 Q 429 488 389 478 L 347 469 Q 191 439 89 428 Q 77 427 74 420 Q 71 410 85 399 Q 122 372 161 384 Q 305 432 335 431 L 376 438 Z" class="stroke3"/>
    <path d="M 389 183 Q 393 249 396 304 L 398 334 Q 401 415 402 416 L 401 417 Q 388 430 376 438 C 352 456 323 459 335 431 Q 344 419 347 334 Q 347 289 347 208 C 347 178 387 153 389 183 Z" class="stroke4"/>
    <path d="M 396 304 Q 399 304 403 304 Q 464 313 510 318 Q 535 322 525 336 Q 513 351 487 355 Q 448 359 398 334 C 371 321 366 304 396 304 Z" class="stroke5"/>
    <path d="M 261 262 Q 279 290 298 314 Q 308 327 294 341 Q 255 377 228 373 Q 216 372 218 356 Q 227 247 102 120 Q 93 117 49 68 Q 42 53 56 57 Q 113 66 210 184 Q 241 235 245 237 L 261 262 Z" class="stroke6"/>
    <path d="M 245 237 Q 401 113 676 -20 Q 710 -36 772 -20 Q 928 28 940 41 Q 940 42 941 42 Q 945 54 926 53 Q 833 59 777 57 Q 624 57 424 165 Q 406 174 389 183 L 347 208 Q 304 235 261 262 C 236 278 221 255 245 237 Z" class="stroke7"/>
    <path d="M 778 492 Q 797 562 819 583 Q 841 608 819 622 Q 756 655 754 655 Q 744 655 736 650 Q 694 620 604 606 Q 592 606 595 599 Q 596 593 609 587 Q 624 580 686 592 Q 737 605 744 596 Q 751 590 743 559 Q 736 528 727 491 C 720 462 770 463 778 492 Z" class="stroke8"/>
    <path d="M 640 433 Q 647 442 794 459 Q 804 460 805 469 Q 805 476 778 492 C 763 501 756 499 727 491 Q 669 475 625 464 C 596 457 614 419 640 433 Z" class="stroke9"/>
    <path d="M 925 268 Q 910 302 898 360 Q 897 373 889 378 Q 882 382 879 364 Q 867 294 856 281 Q 832 254 730 254 Q 675 255 651 266 Q 630 276 626 291 Q 622 307 623 350 Q 627 396 637 419 Q 640 426 640 433 C 645 451 645 451 625 464 Q 585 492 573 488 Q 560 484 567 468 Q 585 437 581 388 Q 578 271 610 243 Q 634 225 684 216 Q 733 209 811 210 Q 881 211 910 227 Q 937 240 925 268 Z" class="stroke10"/>
    
    
    
    
    
    
    
    
    
    </g>
</svg>