<svg version="1.1" viewBox="0 0 1024 1024" xmlns="http://www.w3.org/2000/svg">
  
  <g transform="scale(1, -1) translate(0, -900)">
    <style type="text/css">
        .stroke1 {fill: #808080;}
        .stroke2 {fill: #808079;}
        .stroke3 {fill: #808078;}
        .stroke4 {fill: #808077;}
        .stroke5 {fill: #808076;}
        .stroke6 {fill: #808075;}
        .stroke7 {fill: #808074;}
        .stroke8 {fill: #808073;}
        .stroke9 {fill: #808072;}
        .stroke10 {fill: #808071;}
        .stroke11 {fill: #808070;}
        .stroke12 {fill: #808069;}
        .stroke13 {fill: #808068;}
        .stroke14 {fill: #808067;}
        .stroke15 {fill: #808066;}
        .stroke16 {fill: #808065;}
        .stroke17 {fill: #808064;}
        .stroke18 {fill: #808063;}
        .stroke19 {fill: #808062;}
        .stroke20 {fill: #808061;}
        text {
            font-family: Helvetica;
            font-size: 50px;
            fill: #808060;
            paint-order: stroke;
            stroke: #000000;
            stroke-width: 4px;
            stroke-linecap: butt;
            stroke-linejoin: miter;
            font-weight: 800;
        }
    </style>

    <path d="M 326 595 Q 357 605 393 614 Q 424 623 429 628 Q 436 635 431 642 Q 424 652 399 656 Q 372 660 328 639 C 301 626 300 626 280 622 Q 276 623 274 621 Q 232 608 181 601 Q 150 594 174 580 Q 208 562 258 577 Q 268 580 281 583 L 326 595 Z" class="stroke1"/>
    <path d="M 321 486 Q 322 543 326 595 L 328 639 Q 331 724 345 778 Q 348 788 329 802 Q 295 818 273 823 Q 257 826 250 817 Q 243 810 251 796 Q 272 768 273 747 Q 277 687 280 622 L 281 583 Q 281 531 281 475 C 281 445 320 456 321 486 Z" class="stroke2"/>
    <path d="M 303 441 Q 361 459 435 472 Q 450 475 450 482 Q 451 495 433 502 Q 408 512 386 505 Q 350 495 321 486 L 281 475 Q 134 438 75 429 Q 62 428 60 419 Q 59 409 73 399 Q 112 375 149 390 Q 218 418 267 432 L 303 441 Z" class="stroke3"/>
    <path d="M 320 187 Q 321 254 325 310 L 326 333 Q 326 364 329 396 Q 338 418 303 441 C 278 458 257 460 267 432 Q 276 411 280 336 Q 280 291 281 209 C 281 179 320 157 320 187 Z" class="stroke4"/>
    <path d="M 325 310 Q 331 310 426 329 Q 447 335 438 345 Q 428 357 404 359 Q 367 362 326 333 C 301 316 295 307 325 310 Z" class="stroke5"/>
    <path d="M 199 258 Q 212 291 228 318 Q 235 330 222 341 Q 182 366 159 361 Q 149 358 153 345 Q 174 246 71 103 Q 59 97 28 47 Q 22 32 35 38 Q 54 44 77 67 Q 150 140 185 225 Q 186 229 188 233 L 199 258 Z" class="stroke6"/>
    <path d="M 188 233 Q 408 76 667 -33 Q 704 -51 751 -37 Q 830 -12 916 18 Q 943 28 948 39 Q 952 49 936 48 Q 834 51 773 47 Q 590 43 329 182 Q 325 185 320 187 L 281 209 Q 241 233 199 258 C 173 273 163 250 188 233 Z" class="stroke7"/>
    <path d="M 636 672 Q 658 679 684 684 Q 718 693 724 698 Q 731 705 727 713 Q 720 723 693 730 Q 666 734 639 723 Q 558 693 455 678 Q 422 672 446 657 Q 456 651 470 647 L 509 644 Q 522 645 536 650 Q 572 659 609 667 L 636 672 Z" class="stroke8"/>
    <path d="M 470 647 Q 469 646 471 641 Q 486 608 490 530 Q 490 461 491 290 C 491 260 527 270 527 300 Q 528 361 529 416 L 529 445 Q 530 484 531 518 L 531 547 Q 531 574 533 603 Q 539 621 509 644 C 486 663 462 676 470 647 Z" class="stroke9"/>
    <path d="M 665 341 Q 661 561 673 634 Q 674 650 636 672 C 611 688 595 693 609 667 Q 642 634 622 327 L 619 296 Q 606 181 614 161 Q 618 142 630 126 Q 640 110 647 106 Q 657 105 662 117 Q 672 145 670 172 Q 667 247 665 316 L 665 341 Z" class="stroke10"/>
    <path d="M 531 518 Q 571 525 603 531 Q 622 535 613 546 Q 603 556 582 559 Q 563 560 531 547 C 503 536 501 513 531 518 Z" class="stroke11"/>
    <path d="M 529 416 Q 568 425 596 430 Q 615 437 606 446 Q 596 456 574 457 Q 556 457 529 445 C 502 433 500 409 529 416 Z" class="stroke12"/>
    <path d="M 665 316 Q 681 325 694 333 Q 704 339 705 347 Q 701 351 690 349 Q 677 346 665 341 L 622 327 Q 576 314 527 300 L 491 290 Q 424 278 417 278 Q 407 277 405 269 Q 404 257 411 251 Q 430 238 456 221 Q 465 220 475 226 Q 511 253 619 296 L 665 316 Z" class="stroke13"/>
    <path d="M 779 342 Q 740 291 681 265 Q 672 261 682 256 Q 685 252 710 254 Q 753 260 803 315 L 829 356 L 830 356 Q 855 405 876 486 Q 882 510 895 525 Q 908 538 897 548 Q 885 555 861 561 Q 851 562 780 532 Q 750 522 705 513 Q 695 512 691 506 Q 688 500 703 496 Q 731 486 769 500 Q 803 516 811 517 Q 832 518 831 496 Q 819 421 799 379 L 779 342 Z" class="stroke14"/>
    <path d="M 803 315 Q 834 279 860 241 Q 869 225 880 216 Q 889 210 899 224 Q 906 236 905 260 Q 906 296 829 356 L 799 379 Q 703 455 692 452 Q 688 452 686 442 Q 686 435 698 424 Q 741 384 779 342 L 803 315 Z" class="stroke15"/>
    
    
    
    
    
    
    
    
    
    
    
    
    
    
    </g>
</svg>