<svg version="1.1" viewBox="0 0 1024 1024" xmlns="http://www.w3.org/2000/svg">
  
  <g transform="scale(1, -1) translate(0, -900)">
    <style type="text/css">
        .stroke1 {fill: #808080;}
        .stroke2 {fill: #808079;}
        .stroke3 {fill: #808078;}
        .stroke4 {fill: #808077;}
        .stroke5 {fill: #808076;}
        .stroke6 {fill: #808075;}
        .stroke7 {fill: #808074;}
        .stroke8 {fill: #808073;}
        .stroke9 {fill: #808072;}
        .stroke10 {fill: #808071;}
        .stroke11 {fill: #808070;}
        .stroke12 {fill: #808069;}
        .stroke13 {fill: #808068;}
        .stroke14 {fill: #808067;}
        .stroke15 {fill: #808066;}
        .stroke16 {fill: #808065;}
        .stroke17 {fill: #808064;}
        .stroke18 {fill: #808063;}
        .stroke19 {fill: #808062;}
        .stroke20 {fill: #808061;}
        text {
            font-family: Helvetica;
            font-size: 50px;
            fill: #808060;
            paint-order: stroke;
            stroke: #000000;
            stroke-width: 4px;
            stroke-linecap: butt;
            stroke-linejoin: miter;
            font-weight: 800;
        }
    </style>

    <path d="M 210 682 Q 200 688 170 692 Q 160 693 156 689 Q 152 685 159 670 Q 187 615 205 526 Q 209 499 225 482 Q 241 463 246 477 Q 250 490 248 511 L 243 540 Q 225 625 221 654 C 217 679 217 679 210 682 Z" class="stroke1"/>
    <path d="M 400 572 Q 416 645 438 669 Q 459 694 436 708 Q 417 718 389 735 Q 370 745 352 733 Q 313 706 210 682 C 181 675 192 647 221 654 Q 228 655 240 659 Q 286 672 327 683 Q 354 690 361 680 Q 368 674 362 643 Q 358 612 350 573 C 344 544 393 543 400 572 Z" class="stroke2"/>
    <path d="M 319 527 Q 356 537 412 545 Q 421 546 421 554 Q 421 561 400 572 C 381 583 379 582 350 573 Q 289 554 243 540 C 214 531 219 505 248 511 L 280 518 L 319 527 Z" class="stroke3"/>
    <path d="M 338 235 Q 339 308 342 369 L 344 399 Q 344 451 348 479 Q 355 503 319 527 C 295 545 266 545 280 518 Q 293 496 294 465 Q 295 440 295 220 C 295 190 338 205 338 235 Z" class="stroke4"/>
    <path d="M 342 369 Q 405 381 449 388 Q 471 394 461 405 Q 451 418 426 421 Q 399 422 344 399 C 316 388 313 363 342 369 Z" class="stroke5"/>
    <path d="M 231 199 Q 218 319 221 350 Q 222 372 208 382 Q 186 398 158 405 Q 145 409 137 402 Q 130 395 137 382 Q 156 354 166 322 Q 173 294 192 187 C 197 157 234 169 231 199 Z" class="stroke6"/>
    <path d="M 192 187 Q 110 163 81 161 Q 68 160 66 148 Q 65 135 74 126 Q 98 110 133 92 Q 143 89 155 98 Q 198 132 376 215 Q 401 228 421 243 Q 434 250 434 260 Q 428 266 416 263 Q 379 250 338 235 L 295 220 Q 262 210 231 199 L 192 187 Z" class="stroke7"/>
    <path d="M 532 608 Q 547 572 540 517 Q 507 324 465 235 Q 426 153 340 40 Q 336 34 333 29 Q 329 19 339 20 Q 381 27 465 147 Q 472 160 481 173 Q 521 245 553 344 L 558 360 Q 573 414 584 467 Q 596 537 606 559 Q 615 572 609 584 Q 596 602 570 616 C 545 632 523 637 532 608 Z" class="stroke8"/>
    <path d="M 682 183 Q 592 93 490 53 Q 466 46 468 42 Q 471 30 534 50 Q 624 77 712 144 L 749 182 Q 813 263 835 364 Q 848 404 871 422 Q 875 426 875 434 Q 872 455 823 481 Q 804 488 779 478 Q 770 471 741 464 Q 708 454 734 505 Q 806 631 816 635 Q 828 645 841 657 Q 845 669 804 692 Q 758 719 721 696 Q 633 657 491 641 Q 488 642 485 641 Q 464 640 465 629 Q 466 620 496 611 Q 509 607 532 608 L 570 616 Q 586 622 718 655 Q 734 659 738 651 Q 745 633 698 526 Q 682 501 665 484 Q 650 468 657 453 Q 664 438 674 430 Q 683 423 690 424 Q 696 424 710 431 Q 758 455 783 428 Q 793 416 780 378 Q 761 281 721 231 Q 717 225 712 218 L 682 183 Z" class="stroke9"/>
    <path d="M 553 344 Q 554 343 557 341 Q 605 302 681 185 L 682 183 L 712 144 Q 787 50 819 45 Q 898 36 963 39 Q 997 40 995 49 Q 992 58 841 120 Q 780 151 749 182 L 712 218 Q 669 264 626 318 Q 596 357 565 360 Q 561 361 558 360 C 530 363 530 363 553 344 Z" class="stroke10"/>
    
    
    
    
    
    
    
    
    
    </g>
</svg>