<svg version="1.1" viewBox="0 0 1024 1024" xmlns="http://www.w3.org/2000/svg">
  
  <g transform="scale(1, -1) translate(0, -900)">
    <style type="text/css">
        .stroke1 {fill: #808080;}
        .stroke2 {fill: #808079;}
        .stroke3 {fill: #808078;}
        .stroke4 {fill: #808077;}
        .stroke5 {fill: #808076;}
        .stroke6 {fill: #808075;}
        .stroke7 {fill: #808074;}
        .stroke8 {fill: #808073;}
        .stroke9 {fill: #808072;}
        .stroke10 {fill: #808071;}
        .stroke11 {fill: #808070;}
        .stroke12 {fill: #808069;}
        .stroke13 {fill: #808068;}
        .stroke14 {fill: #808067;}
        .stroke15 {fill: #808066;}
        .stroke16 {fill: #808065;}
        .stroke17 {fill: #808064;}
        .stroke18 {fill: #808063;}
        .stroke19 {fill: #808062;}
        .stroke20 {fill: #808061;}
        text {
            font-family: Helvetica;
            font-size: 50px;
            fill: #808060;
            paint-order: stroke;
            stroke: #000000;
            stroke-width: 4px;
            stroke-linecap: butt;
            stroke-linejoin: miter;
            font-weight: 800;
        }
    </style>

    <path d="M 196 666 Q 186 672 153 676 Q 141 677 139 673 Q 133 667 142 652 Q 167 606 186 528 Q 190 506 204 490 Q 222 471 226 485 Q 227 491 228 498 L 226 533 Q 211 614 207 639 C 203 663 203 663 196 666 Z" class="stroke1"/>
    <path d="M 369 558 Q 387 622 408 643 Q 430 668 407 682 Q 388 694 362 711 Q 344 721 298 696 Q 261 680 196 666 C 167 660 178 630 207 639 Q 234 648 299 661 Q 326 668 332 657 Q 339 651 331 619 Q 325 594 318 563 C 311 534 361 529 369 558 Z" class="stroke2"/>
    <path d="M 279 510 Q 315 520 379 529 Q 389 530 390 540 Q 390 547 369 558 L 318 563 Q 312 563 310 561 Q 264 545 226 533 C 197 524 198 494 228 498 Q 237 499 248 502 L 279 510 Z" class="stroke3"/>
    <path d="M 309 203 Q 312 291 315 363 L 316 398 Q 317 414 318 429 Q 321 475 317 481 Q 298 500 279 510 C 253 525 236 529 248 502 Q 249 501 250 498 Q 265 462 266 440 Q 267 415 267 189 C 267 159 308 173 309 203 Z" class="stroke4"/>
    <path d="M 315 363 Q 376 379 421 389 Q 445 396 434 408 Q 421 421 394 423 Q 340 423 316 398 C 294 377 286 355 315 363 Z" class="stroke5"/>
    <path d="M 210 172 Q 197 305 200 333 Q 201 355 187 366 Q 165 382 138 389 Q 125 393 117 387 Q 110 380 117 366 Q 135 338 144 307 Q 151 277 170 161 C 175 131 213 142 210 172 Z" class="stroke6"/>
    <path d="M 170 161 Q 146 155 124 147 Q 105 140 70 141 Q 57 140 55 128 Q 52 115 62 106 Q 86 90 120 71 Q 130 68 143 77 Q 180 107 374 192 Q 401 204 420 219 Q 433 226 434 236 Q 428 242 416 239 Q 364 223 309 203 L 267 189 Q 237 182 210 172 L 170 161 Z" class="stroke7"/>
    <path d="M 631 644 Q 655 659 682 672 Q 712 690 715 695 Q 721 705 714 711 Q 704 718 677 717 Q 647 717 608 683 L 574 660 Q 523 630 470 608 Q 439 593 467 585 Q 512 578 555 603 Q 574 615 596 626 L 631 644 Z" class="stroke8"/>
    <path d="M 687 522 Q 742 471 794 445 Q 872 412 896 418 Q 909 424 895 457 Q 886 476 877 531 Q 874 559 863 569 Q 854 576 854 562 Q 845 493 829 485 Q 793 476 717 540 L 691 567 Q 661 598 631 644 L 608 683 Q 575 747 574 784 Q 574 812 535 820 Q 492 830 470 822 Q 464 818 464 810 Q 464 803 474 796 Q 507 781 550 698 Q 560 680 574 660 L 596 626 Q 627 583 665 544 L 687 522 Z" class="stroke9"/>
    <path d="M 665 544 Q 643 528 610 502 Q 603 498 611 495 Q 626 495 680 518 Q 683 519 687 522 L 717 540 Q 799 613 824 638 Q 842 656 842 661 Q 838 686 805 701 Q 789 710 779 709 Q 772 708 771 697 Q 775 652 694 570 Q 693 569 691 567 L 665 544 Z" class="stroke10"/>
    <path d="M 683 825 Q 713 804 744 778 Q 759 768 774 769 Q 784 770 789 784 Q 792 800 780 828 Q 773 847 741 859 Q 662 877 652 871 Q 648 867 650 854 Q 654 844 683 825 Z" class="stroke11"/>
    <path d="M 610 340 Q 623 347 640 352 Q 668 364 671 368 Q 678 375 672 383 Q 665 392 639 393 Q 614 394 595 382 L 551 360 Q 496 336 442 321 Q 412 311 437 301 Q 470 288 535 312 Q 548 318 566 323 L 610 340 Z" class="stroke12"/>
    <path d="M 649 164 Q 739 28 852 -26 Q 930 -57 948 -40 Q 964 -30 954 6 Q 944 34 932 138 Q 931 159 926 162 Q 922 163 917 144 Q 884 45 859 49 Q 772 73 685 194 L 655 243 Q 631 282 610 340 L 595 382 Q 583 419 585 465 Q 589 490 543 505 Q 506 517 490 510 Q 472 504 488 481 Q 519 448 533 408 Q 540 384 551 360 L 566 323 Q 591 266 620 213 Q 620 212 621 211 L 649 164 Z" class="stroke13"/>
    <path d="M 621 211 Q 618 210 616 207 Q 541 144 389 86 Q 379 82 385 76 Q 392 70 404 71 Q 471 75 533 99 Q 594 118 641 157 Q 645 161 649 164 L 685 194 Q 716 224 752 265 Q 771 284 793 304 Q 803 311 802 323 Q 798 336 774 363 Q 756 382 746 383 Q 731 384 728 368 Q 716 311 655 243 L 621 211 Z" class="stroke14"/>
    <path d="M 646 448 Q 689 412 710 414 Q 720 415 722 431 Q 721 441 710 455 Q 686 474 645 469 Q 638 469 639 460 Q 639 453 646 448 Z" class="stroke15"/>
    
    
    
    
    
    
    
    
    
    
    
    
    
    
    </g>
</svg>