<svg version="1.1" viewBox="0 0 1024 1024" xmlns="http://www.w3.org/2000/svg">
  
  <g transform="scale(1, -1) translate(0, -900)">
    <style type="text/css">
        .stroke1 {fill: #808080;}
        .stroke2 {fill: #808079;}
        .stroke3 {fill: #808078;}
        .stroke4 {fill: #808077;}
        .stroke5 {fill: #808076;}
        .stroke6 {fill: #808075;}
        .stroke7 {fill: #808074;}
        .stroke8 {fill: #808073;}
        .stroke9 {fill: #808072;}
        .stroke10 {fill: #808071;}
        .stroke11 {fill: #808070;}
        .stroke12 {fill: #808069;}
        .stroke13 {fill: #808068;}
        .stroke14 {fill: #808067;}
        .stroke15 {fill: #808066;}
        .stroke16 {fill: #808065;}
        .stroke17 {fill: #808064;}
        .stroke18 {fill: #808063;}
        .stroke19 {fill: #808062;}
        .stroke20 {fill: #808061;}
        text {
            font-family: Helvetica;
            font-size: 50px;
            fill: #808060;
            paint-order: stroke;
            stroke: #000000;
            stroke-width: 4px;
            stroke-linecap: butt;
            stroke-linejoin: miter;
            font-weight: 800;
        }
    </style>

    <path d="M 233 743 Q 221 749 189 751 Q 177 754 175 748 Q 169 742 178 727 Q 206 679 228 598 Q 232 573 248 558 Q 267 539 270 554 Q 271 563 272 575 L 268 604 Q 250 688 244 716 C 239 741 239 741 233 743 Z" class="stroke1"/>
    <path d="M 411 630 Q 429 712 453 736 Q 474 761 451 775 Q 432 785 404 801 Q 385 811 367 799 Q 324 766 233 743 C 204 735 216 705 244 716 Q 277 729 344 748 Q 371 757 378 746 Q 385 740 378 707 Q 371 673 362 633 C 355 604 404 601 411 630 Z" class="stroke2"/>
    <path d="M 343 590 Q 374 599 420 605 Q 429 606 429 614 Q 429 621 411 630 L 362 633 L 361 633 Q 309 615 268 604 C 239 596 242 573 272 575 Q 278 575 285 577 Q 291 578 300 581 L 343 590 Z" class="stroke3"/>
    <path d="M 353 288 Q 354 364 357 428 L 358 460 Q 361 574 362 574 Q 353 583 343 590 C 319 608 290 609 300 581 Q 309 566 313 477 Q 313 413 313 273 C 313 243 353 258 353 288 Z" class="stroke4"/>
    <path d="M 357 428 L 448 455 Q 469 462 459 473 Q 446 485 422 484 Q 380 483 358 460 C 337 439 328 419 357 428 Z" class="stroke5"/>
    <path d="M 235 245 Q 226 372 229 406 Q 230 428 216 440 Q 192 456 165 465 Q 152 469 142 463 Q 135 457 142 442 Q 160 412 170 380 Q 177 349 194 231 C 198 201 237 215 235 245 Z" class="stroke6"/>
    <path d="M 194 231 Q 101 201 75 199 Q 62 198 61 186 Q 60 173 69 166 Q 93 151 127 134 Q 137 131 148 140 Q 191 174 239 198 Q 312 232 385 269 Q 413 282 433 299 Q 446 306 446 316 Q 440 322 428 318 Q 391 305 353 288 L 313 273 Q 274 260 235 245 L 194 231 Z" class="stroke7"/>
    <path d="M 706 703 Q 806 779 837 787 Q 855 793 849 808 Q 846 823 787 857 Q 769 867 749 859 Q 691 838 602 813 Q 578 806 523 808 Q 501 809 509 790 Q 516 778 533 768 Q 561 752 592 771 Q 614 778 726 817 Q 736 821 748 816 Q 758 810 754 798 Q 724 761 691 714 C 674 690 682 685 706 703 Z" class="stroke8"/>
    <path d="M 718 661 Q 721 671 714 691 Q 711 698 706 703 L 691 714 Q 687 718 639 730 Q 629 731 624 730 Q 620 727 622 719 Q 623 712 643 697 Q 670 676 690 656 C 711 635 713 634 718 661 Z" class="stroke9"/>
    <path d="M 535 623 Q 520 638 493 636 Q 483 632 488 622 Q 518 562 497 448 Q 476 397 506 366 Q 513 356 521 360 Q 545 379 545 508 Q 545 575 546 595 C 547 614 547 614 535 623 Z" class="stroke10"/>
    <path d="M 662 620 Q 764 641 780 632 Q 793 626 792 587 Q 785 440 777 410 Q 773 391 780 377 Q 787 362 800 365 Q 812 369 817 384 Q 830 411 840 530 Q 850 581 882 613 Q 898 629 881 643 Q 862 658 812 677 Q 794 686 776 676 Q 754 669 727 664 Q 723 664 718 661 L 690 656 Q 648 650 611 640 Q 566 630 535 623 C 506 616 516 593 546 595 Q 555 594 564 596 Q 586 605 623 612 L 662 620 Z" class="stroke11"/>
    <path d="M 670 520 Q 703 529 733 534 Q 754 538 745 549 Q 735 562 712 564 Q 696 565 671 557 L 632 544 Q 604 534 577 524 Q 562 520 582 507 L 632 512 L 670 520 Z" class="stroke12"/>
    <path d="M 668 431 Q 699 440 730 446 Q 749 450 742 461 Q 732 474 708 476 Q 692 477 669 469 L 634 456 Q 603 444 573 432 Q 558 428 578 416 Q 581 416 635 423 L 668 431 Z" class="stroke13"/>
    <path d="M 635 423 Q 638 381 645 370 Q 649 366 654 367 Q 667 376 668 431 L 669 469 Q 669 485 670 520 L 671 557 Q 671 578 676 599 Q 677 609 669 616 Q 665 619 662 620 C 636 635 615 641 623 612 Q 627 605 632 544 L 632 512 Q 632 488 634 456 L 635 423 Z" class="stroke14"/>
    <path d="M 615 251 Q 696 276 765 287 Q 789 291 794 284 Q 804 265 792 221 Q 765 97 729 46 Q 710 18 683 24 Q 658 34 635 47 Q 611 57 626 32 Q 666 -17 684 -54 Q 703 -79 725 -61 Q 759 -40 786 0 Q 817 48 848 199 Q 858 251 880 277 Q 893 290 887 302 Q 877 315 823 341 Q 801 351 780 337 Q 756 324 638 293 L 573 278 Q 512 266 457 261 Q 438 260 435 250 Q 434 240 460 228 Q 488 212 510 220 Q 531 227 553 233 L 615 251 Z" class="stroke15"/>
    <path d="M 553 233 Q 492 112 305 -12 Q 298 -18 303 -21 Q 310 -24 320 -21 Q 386 1 443 41 Q 537 101 615 251 L 638 293 Q 659 327 657 333 Q 651 343 626 361 Q 607 374 598 372 Q 585 371 586 356 Q 586 319 573 278 L 553 233 Z" class="stroke16"/>
    
    
    
    
    
    
    
    
    
    
    
    
    
    
    
    </g>
</svg>