<svg version="1.1" viewBox="0 0 1024 1024" xmlns="http://www.w3.org/2000/svg">
  
  <g transform="scale(1, -1) translate(0, -900)">
    <style type="text/css">
        .stroke1 {fill: #808080;}
        .stroke2 {fill: #808079;}
        .stroke3 {fill: #808078;}
        .stroke4 {fill: #808077;}
        .stroke5 {fill: #808076;}
        .stroke6 {fill: #808075;}
        .stroke7 {fill: #808074;}
        .stroke8 {fill: #808073;}
        .stroke9 {fill: #808072;}
        .stroke10 {fill: #808071;}
        .stroke11 {fill: #808070;}
        .stroke12 {fill: #808069;}
        .stroke13 {fill: #808068;}
        .stroke14 {fill: #808067;}
        .stroke15 {fill: #808066;}
        .stroke16 {fill: #808065;}
        .stroke17 {fill: #808064;}
        .stroke18 {fill: #808063;}
        .stroke19 {fill: #808062;}
        .stroke20 {fill: #808061;}
        text {
            font-family: Helvetica;
            font-size: 50px;
            fill: #808060;
            paint-order: stroke;
            stroke: #000000;
            stroke-width: 4px;
            stroke-linecap: butt;
            stroke-linejoin: miter;
            font-weight: 800;
        }
    </style>

    <path d="M 194 696 Q 184 700 157 704 Q 145 707 143 701 Q 137 695 145 681 Q 172 632 190 551 Q 194 526 208 510 Q 226 491 230 505 Q 233 514 233 526 L 230 556 Q 215 644 210 670 C 206 692 206 692 194 696 Z" class="stroke1"/>
    <path d="M 374 582 Q 393 655 417 676 Q 439 700 417 714 Q 399 724 375 741 Q 354 753 320 731 Q 263 707 194 696 C 164 691 181 662 210 670 Q 232 677 311 695 Q 339 702 346 691 Q 353 684 344 652 Q 335 619 325 581 C 317 552 366 553 374 582 Z" class="stroke2"/>
    <path d="M 292 537 Q 329 546 387 553 Q 396 554 397 562 Q 397 569 374 582 C 359 591 354 589 325 581 Q 271 566 230 556 C 201 549 203 522 233 526 Q 242 527 254 529 L 292 537 Z" class="stroke3"/>
    <path d="M 321 239 Q 322 312 323 374 L 323 409 Q 323 448 325 487 Q 331 505 322 514 Q 307 529 292 537 C 266 553 240 556 254 529 Q 269 502 272 471 Q 273 444 279 224 C 280 194 321 209 321 239 Z" class="stroke4"/>
    <path d="M 323 374 Q 378 387 421 395 Q 443 401 434 412 Q 422 425 396 428 Q 356 431 323 409 C 298 393 294 367 323 374 Z" class="stroke5"/>
    <path d="M 214 203 Q 201 372 200 373 Q 197 377 194 379 Q 172 395 147 401 Q 134 405 127 399 Q 120 393 126 380 Q 142 355 152 327 Q 159 299 177 191 C 182 161 216 173 214 203 Z" class="stroke6"/>
    <path d="M 177 191 Q 155 185 135 177 Q 114 170 80 169 Q 67 168 65 156 Q 64 143 74 134 Q 98 118 133 100 Q 143 97 156 107 Q 207 149 321 198 Q 424 252 433 259 Q 446 266 446 276 Q 440 282 427 279 Q 375 260 321 239 L 279 224 Q 246 214 214 203 L 177 191 Z" class="stroke7"/>
    <path d="M 672 711 Q 811 747 816 750 Q 823 757 819 765 Q 812 775 785 782 Q 757 786 675 755 L 623 741 Q 572 731 515 722 Q 482 716 506 701 Q 540 685 609 697 Q 615 698 624 700 L 672 711 Z" class="stroke8"/>
    <path d="M 664 616 Q 731 632 787 642 Q 811 646 801 660 Q 789 675 763 679 Q 727 682 668 659 L 624 646 Q 572 633 527 618 Q 509 614 532 599 Q 545 590 570 596 Q 597 603 623 607 L 664 616 Z" class="stroke9"/>
    <path d="M 660 554 Q 661 585 664 616 L 668 659 Q 669 686 672 711 L 675 755 Q 679 780 682 795 Q 686 810 689 820 Q 693 830 675 843 Q 644 859 623 864 Q 610 867 602 859 Q 595 852 602 839 Q 621 814 621 796 Q 622 771 623 741 L 624 700 Q 624 675 624 646 L 623 607 Q 623 579 622 547 C 621 517 659 524 660 554 Z" class="stroke10"/>
    <path d="M 622 547 Q 522 529 410 508 Q 391 505 406 491 Q 419 479 436 475 Q 455 471 469 476 Q 631 530 900 546 Q 919 547 939 548 Q 957 549 961 557 Q 965 567 950 579 Q 899 609 868 602 Q 793 581 663 555 Q 660 555 660 554 L 622 547 Z" class="stroke11"/>
    <path d="M 537 447 Q 530 454 512 461 Q 503 465 493 461 Q 487 457 492 446 Q 493 440 496 435 Q 514 396 505 254 Q 487 178 517 139 L 519 137 Q 529 125 538 136 Q 545 146 547 158 L 550 190 L 550 250 L 550 275 Q 550 315 551 342 L 552 367 Q 552 392 555 418 C 557 433 557 433 537 447 Z" class="stroke12"/>
    <path d="M 751 176 Q 752 172 756 166 Q 769 138 778 138 Q 791 139 808 170 Q 818 188 819 241 Q 807 385 836 424 Q 846 440 838 449 Q 811 474 765 494 Q 749 500 727 491 Q 646 460 537 447 C 507 443 525 416 555 418 Q 562 418 572 419 Q 734 459 747 443 Q 766 415 755 232 Q 751 211 748 202 L 751 176 Z" class="stroke13"/>
    <path d="M 551 342 Q 558 341 567 342 Q 646 352 706 358 Q 728 361 721 373 Q 711 386 687 392 Q 665 396 552 367 C 523 360 521 344 551 342 Z" class="stroke14"/>
    <path d="M 550 250 Q 554 249 563 250 Q 645 260 706 266 Q 728 269 721 281 Q 711 294 687 300 Q 663 304 550 275 C 521 268 520 253 550 250 Z" class="stroke15"/>
    <path d="M 547 158 Q 553 158 560 159 Q 621 169 751 176 C 776 177 770 182 748 202 Q 744 206 736 212 Q 721 221 692 215 Q 614 199 550 190 C 520 186 517 157 547 158 Z" class="stroke16"/>
    <path d="M 548 116 Q 530 56 370 -52 Q 348 -65 375 -65 Q 453 -65 570 35 Q 603 62 617 72 Q 630 82 628 93 Q 627 106 601 118 Q 573 131 560 130 Q 553 129 548 116 Z" class="stroke17"/>
    <path d="M 710 83 Q 755 31 807 -44 Q 820 -66 836 -72 Q 845 -75 853 -66 Q 868 -53 860 -8 Q 857 34 786 76 Q 740 103 715 114 Q 706 121 703 108 Q 700 95 710 83 Z" class="stroke18"/>
    
    
    
    
    
    
    
    
    
    
    
    
    
    
    
    
    
    </g>
</svg>