<svg version="1.1" viewBox="0 0 1024 1024" xmlns="http://www.w3.org/2000/svg">
  
  <g transform="scale(1, -1) translate(0, -900)">
    <style type="text/css">
        .stroke1 {fill: #808080;}
        .stroke2 {fill: #808079;}
        .stroke3 {fill: #808078;}
        .stroke4 {fill: #808077;}
        .stroke5 {fill: #808076;}
        .stroke6 {fill: #808075;}
        .stroke7 {fill: #808074;}
        .stroke8 {fill: #808073;}
        .stroke9 {fill: #808072;}
        .stroke10 {fill: #808071;}
        .stroke11 {fill: #808070;}
        .stroke12 {fill: #808069;}
        .stroke13 {fill: #808068;}
        .stroke14 {fill: #808067;}
        .stroke15 {fill: #808066;}
        .stroke16 {fill: #808065;}
        .stroke17 {fill: #808064;}
        .stroke18 {fill: #808063;}
        .stroke19 {fill: #808062;}
        .stroke20 {fill: #808061;}
        text {
            font-family: Helvetica;
            font-size: 50px;
            fill: #808060;
            paint-order: stroke;
            stroke: #000000;
            stroke-width: 4px;
            stroke-linecap: butt;
            stroke-linejoin: miter;
            font-weight: 800;
        }
    </style>

    <path d="M 239 674 Q 269 704 342 782 Q 355 800 375 813 Q 391 826 379 840 Q 364 853 338 860 Q 314 867 304 863 Q 294 859 299 848 Q 306 830 245 712 Q 236 699 228 682 C 215 655 218 653 239 674 Z" class="stroke1"/>
    <path d="M 242 671 Q 241 672 239 674 L 228 682 Q 219 689 210 693 Q 200 696 191 692 Q 184 688 186 678 Q 199 650 204 568 Q 204 499 204 330 C 204 300 244 313 245 343 Q 246 386 248 426 L 248 451 Q 249 491 251 526 L 252 553 Q 252 631 258 643 C 261 655 261 655 242 671 Z" class="stroke2"/>
    <path d="M 382 287 Q 373 82 362 65 Q 358 61 340 65 Q 312 72 282 82 Q 263 89 264 80 Q 321 29 352 -8 Q 364 -27 379 -31 Q 388 -35 396 -26 Q 433 17 434 76 L 434 92 Q 430 219 432 391 L 432 397 Q 435 643 445 660 Q 457 679 445 688 Q 424 706 390 719 Q 374 726 312 691 Q 288 682 242 671 C 213 664 229 635 258 643 Q 277 646 353 674 Q 369 681 375 674 Q 382 652 385 619 Q 386 495 385 387 L 382 287 Z" class="stroke3"/>
    <path d="M 251 526 Q 255 532 354 549 Q 375 555 366 565 Q 356 577 332 579 Q 298 579 252 553 C 226 538 225 511 251 526 Z" class="stroke4"/>
    <path d="M 248 426 Q 252 426 260 427 Q 315 440 358 448 Q 379 454 370 465 Q 358 478 334 479 Q 297 482 248 451 C 223 435 218 425 248 426 Z" class="stroke5"/>
    <path d="M 432 391 Q 433 394 434 396 Q 433 397 432 397 C 434 402 414 396 385 387 Q 318 366 245 343 L 204 330 Q 116 309 94 308 Q 81 307 80 297 Q 77 284 86 277 Q 108 261 139 244 Q 149 241 161 249 Q 204 282 356 345 L 432 391 Z" class="stroke6"/>
    <path d="M 356 345 Q 314 228 90 80 Q 74 67 89 66 Q 129 62 225 124 Q 279 164 327 217 Q 360 254 382 287 C 442 374 373 388 356 345 Z" class="stroke7"/>
    <path d="M 585 711 Q 554 727 543 725 Q 527 721 540 703 Q 565 660 547 559 Q 543 546 537 528 Q 527 495 490 458 Q 478 448 476 442 Q 475 436 484 437 Q 508 437 546 473 Q 594 530 603 656 Q 604 668 606 675 C 611 698 611 698 585 711 Z" class="stroke8"/>
    <path d="M 907 480 Q 922 486 912 501 Q 897 519 878 529 Q 866 535 843 524 Q 813 509 776 509 Q 752 509 745 526 Q 732 548 741 615 Q 744 655 782 697 Q 800 713 782 727 Q 757 746 731 758 Q 721 762 703 752 Q 645 725 585 711 C 556 704 578 664 606 675 Q 609 676 613 678 Q 688 708 694 706 Q 701 703 701 688 Q 698 639 694 596 Q 687 545 698 512 Q 705 488 726 474 Q 757 458 818 459 Q 878 462 907 480 Z" class="stroke9"/>
    <path d="M 684 312 Q 745 322 836 325 Q 881 325 889 335 Q 893 347 877 359 Q 823 395 765 375 Q 726 366 673 353 L 626 343 Q 553 330 466 313 Q 447 310 462 295 Q 490 270 528 280 Q 562 292 602 298 L 684 312 Z" class="stroke10"/>
    <path d="M 673 353 Q 674 380 677 395 Q 680 407 673 412 Q 651 431 634 440 Q 622 444 614 437 Q 608 433 615 424 Q 621 415 626 343 L 624 245 Q 624 109 607 62 Q 598 26 630 -21 Q 640 -39 647 -42 Q 657 -43 663 -31 Q 675 -1 672 27 Q 671 117 670 290 L 673 353 Z" class="stroke11"/>
    <path d="M 602 298 Q 565 208 434 92 C 413 73 413 73 434 76 Q 446 73 502 110 Q 544 140 624 245 C 673 308 615 328 602 298 Z" class="stroke12"/>
    <path d="M 670 290 Q 728 193 805 86 Q 821 68 848 68 Q 941 67 970 71 Q 979 72 980 77 Q 981 81 969 89 Q 840 152 798 194 Q 744 245 684 312 C 664 334 655 316 670 290 Z" class="stroke13"/>
    
    
    
    
    
    
    
    
    
    
    
    
    </g>
</svg>