<svg version="1.1" viewBox="0 0 1024 1024" xmlns="http://www.w3.org/2000/svg">
  
  <g transform="scale(1, -1) translate(0, -900)">
    <style type="text/css">
        .stroke1 {fill: #808080;}
        .stroke2 {fill: #808079;}
        .stroke3 {fill: #808078;}
        .stroke4 {fill: #808077;}
        .stroke5 {fill: #808076;}
        .stroke6 {fill: #808075;}
        .stroke7 {fill: #808074;}
        .stroke8 {fill: #808073;}
        .stroke9 {fill: #808072;}
        .stroke10 {fill: #808071;}
        .stroke11 {fill: #808070;}
        .stroke12 {fill: #808069;}
        .stroke13 {fill: #808068;}
        .stroke14 {fill: #808067;}
        .stroke15 {fill: #808066;}
        .stroke16 {fill: #808065;}
        .stroke17 {fill: #808064;}
        .stroke18 {fill: #808063;}
        .stroke19 {fill: #808062;}
        .stroke20 {fill: #808061;}
        text {
            font-family: Helvetica;
            font-size: 50px;
            fill: #808060;
            paint-order: stroke;
            stroke: #000000;
            stroke-width: 4px;
            stroke-linecap: butt;
            stroke-linejoin: miter;
            font-weight: 800;
        }
    </style>

    <path d="M 315 623 Q 352 633 394 641 Q 427 650 431 654 Q 440 661 435 669 Q 428 679 401 686 Q 380 689 318 669 L 267 654 Q 221 644 171 638 Q 138 632 162 617 Q 195 602 265 612 Q 266 612 268 612 L 315 623 Z" class="stroke1"/>
    <path d="M 160 523 Q 148 529 120 532 Q 108 535 105 530 Q 98 523 107 508 Q 137 450 155 355 Q 159 327 176 307 Q 194 285 199 301 Q 202 310 202 321 L 200 349 Q 182 442 176 494 C 173 518 173 518 160 523 Z" class="stroke2"/>
    <path d="M 367 343 Q 380 324 393 318 Q 403 311 416 330 Q 428 351 453 464 Q 460 492 481 514 Q 493 524 482 537 Q 469 552 431 574 Q 418 580 343 563 Q 330 563 313 556 L 269 547 Q 250 544 234 540 Q 194 530 160 523 C 131 517 147 485 176 494 Q 213 507 269 517 L 313 526 Q 380 544 399 532 Q 411 523 407 506 Q 386 388 373 373 C 362 350 362 350 367 343 Z" class="stroke3"/>
    <path d="M 313 434 Q 340 441 365 444 Q 384 447 377 458 Q 368 470 347 473 Q 332 474 313 469 L 268 455 Q 237 448 213 439 Q 200 435 217 423 Q 218 423 268 426 L 313 434 Z" class="stroke4"/>
    <path d="M 312 337 Q 337 341 367 343 C 397 345 397 355 373 373 Q 370 376 366 378 Q 350 387 312 374 L 267 363 Q 230 356 200 349 C 171 342 172 323 202 321 Q 209 320 217 322 Q 236 328 267 331 L 312 337 Z" class="stroke5"/>
    <path d="M 312 215 Q 373 230 452 242 Q 470 245 470 252 Q 471 265 452 274 Q 424 286 401 280 Q 350 268 312 258 L 267 247 Q 147 223 69 212 Q 56 211 52 202 Q 49 192 65 180 Q 104 153 149 166 Q 215 190 264 203 L 312 215 Z" class="stroke6"/>
    <path d="M 264 203 Q 258 142 243 84 Q 231 42 259 -18 Q 266 -36 274 -39 Q 281 -46 288 -37 Q 295 -33 306 -12 Q 315 13 314 45 Q 313 73 312 215 L 312 258 Q 312 295 312 337 L 312 374 Q 312 402 313 434 L 313 469 Q 313 497 313 526 L 313 556 Q 313 592 315 623 L 318 669 Q 322 709 331 740 Q 340 756 337 769 Q 330 779 274 813 Q 250 829 229 814 Q 225 808 231 793 Q 265 744 266 694 Q 266 675 267 654 L 268 612 Q 268 582 269 547 L 269 517 Q 268 487 268 455 L 268 426 Q 267 395 267 363 L 267 331 Q 267 291 267 247 L 264 203 Z" class="stroke7"/>
    <path d="M 628 728 Q 653 706 681 679 Q 696 666 712 666 Q 724 667 729 681 Q 733 696 724 727 Q 718 746 687 760 Q 614 785 600 779 Q 594 775 596 761 Q 600 751 628 728 Z" class="stroke8"/>
    <path d="M 511 584 Q 471 577 499 559 Q 541 532 605 548 Q 708 569 815 591 Q 864 603 871 609 Q 881 618 875 627 Q 868 640 836 648 Q 808 654 688 615 Q 525 587 511 584 Z" class="stroke9"/>
    <path d="M 564 468 Q 554 472 529 476 Q 519 479 515 474 Q 509 468 517 453 Q 542 402 559 317 Q 562 292 577 275 Q 593 254 598 269 Q 602 279 602 295 L 598 328 Q 585 412 581 438 C 577 464 577 464 564 468 Z" class="stroke10"/>
    <path d="M 801 354 Q 828 417 858 436 Q 876 454 862 472 Q 784 535 730 504 Q 660 483 564 468 C 534 463 551 433 581 438 Q 620 444 740 468 Q 758 472 764 464 Q 771 457 769 440 Q 759 395 746 359 C 736 331 789 327 801 354 Z" class="stroke11"/>
    <path d="M 682 307 Q 734 316 812 322 Q 822 323 824 332 Q 824 339 801 354 C 781 368 775 366 746 359 Q 664 338 598 328 C 568 323 572 296 602 295 Q 609 294 619 296 Q 631 299 647 301 L 682 307 Z" class="stroke12"/>
    <path d="M 647 301 Q 669 255 658 91 Q 657 84 655 78 Q 651 65 625 68 Q 601 72 576 75 Q 564 75 563 69 Q 562 62 573 53 Q 634 4 655 -27 Q 670 -40 680 -38 Q 692 -34 703 1 Q 721 35 717 98 Q 716 191 717 224 Q 726 266 707 287 Q 694 300 682 307 C 657 324 636 329 647 301 Z" class="stroke13"/>
    <path d="M 522 216 Q 491 170 454 132 Q 430 105 439 67 Q 443 48 466 56 Q 520 83 537 154 Q 547 185 546 211 Q 542 221 537 223 Q 528 223 522 216 Z" class="stroke14"/>
    <path d="M 792 211 Q 835 165 888 98 Q 904 76 919 70 Q 929 69 937 79 Q 950 92 941 139 Q 937 164 920 182 Q 904 195 864 214 Q 819 235 795 243 Q 786 250 783 237 Q 782 222 792 211 Z" class="stroke15"/>
    
    
    
    
    
    
    
    
    
    
    
    
    
    
    </g>
</svg>