<svg version="1.1" viewBox="0 0 1024 1024" xmlns="http://www.w3.org/2000/svg">
  
  <g transform="scale(1, -1) translate(0, -900)">
    <style type="text/css">
        .stroke1 {fill: #808080;}
        .stroke2 {fill: #808079;}
        .stroke3 {fill: #808078;}
        .stroke4 {fill: #808077;}
        .stroke5 {fill: #808076;}
        .stroke6 {fill: #808075;}
        .stroke7 {fill: #808074;}
        .stroke8 {fill: #808073;}
        .stroke9 {fill: #808072;}
        .stroke10 {fill: #808071;}
        .stroke11 {fill: #808070;}
        .stroke12 {fill: #808069;}
        .stroke13 {fill: #808068;}
        .stroke14 {fill: #808067;}
        .stroke15 {fill: #808066;}
        .stroke16 {fill: #808065;}
        .stroke17 {fill: #808064;}
        .stroke18 {fill: #808063;}
        .stroke19 {fill: #808062;}
        .stroke20 {fill: #808061;}
        text {
            font-family: Helvetica;
            font-size: 50px;
            fill: #808060;
            paint-order: stroke;
            stroke: #000000;
            stroke-width: 4px;
            stroke-linecap: butt;
            stroke-linejoin: miter;
            font-weight: 800;
        }
    </style>

    <path d="M 258 543 Q 222 543 193 540 Q 166 539 179 555 Q 228 640 276 704 Q 289 719 286 726 Q 283 739 248 765 Q 235 777 218 773 Q 208 770 214 756 Q 227 720 165 598 Q 152 570 122 543 Q 106 530 108 519 Q 112 503 126 487 Q 136 478 147 485 Q 183 512 243 520 C 273 525 288 543 258 543 Z" class="stroke1"/>
    <path d="M 305 437 Q 266 430 222 415 Q 198 405 213 426 Q 243 472 314 564 Q 336 595 356 613 Q 366 622 360 630 Q 351 645 323 659 Q 310 666 303 664 Q 294 661 297 648 Q 300 618 258 543 L 243 520 Q 165 409 151 401 Q 141 394 143 382 Q 144 372 166 356 Q 176 346 187 357 Q 229 393 312 422 C 340 432 334 443 305 437 Z" class="stroke2"/>
    <path d="M 312 422 Q 312 421 314 418 Q 323 402 334 398 Q 343 394 351 406 Q 355 415 353 431 Q 347 458 301 484 Q 295 487 292 479 Q 289 475 292 466 Q 298 451 305 437 L 312 422 Z" class="stroke3"/>
    <path d="M 138 259 Q 159 187 166 183 Q 173 179 182 186 Q 191 193 198 216 Q 204 238 155 292 Q 146 301 141 302 Q 137 301 131 292 Q 130 283 138 259 Z" class="stroke4"/>
    <path d="M 217 302 Q 241 245 262 237 Q 271 234 279 246 Q 282 255 279 271 Q 269 302 225 321 Q 219 324 216 315 Q 213 311 217 302 Z" class="stroke5"/>
    <path d="M 293 331 Q 320 277 334 273 Q 343 270 351 281 Q 354 290 351 305 Q 347 318 332 327 Q 311 343 301 349 Q 295 350 292 344 Q 291 338 293 331 Z" class="stroke6"/>
    <path d="M 521 674 Q 546 681 577 687 Q 604 694 607 697 Q 614 704 611 711 Q 604 720 581 725 Q 563 728 523 715 L 472 700 Q 433 691 390 686 Q 362 680 382 668 Q 415 650 463 662 Q 466 663 473 663 L 521 674 Z" class="stroke7"/>
    <path d="M 380 578 Q 373 582 356 584 Q 347 585 344 582 Q 340 578 346 565 Q 367 522 380 452 Q 383 431 395 417 Q 408 401 413 412 Q 414 418 415 425 L 416 441 Q 404 505 400 553 C 398 570 398 570 380 578 Z" class="stroke8"/>
    <path d="M 559 445 Q 569 429 581 423 Q 588 417 600 433 Q 609 448 629 530 Q 635 554 652 573 Q 662 583 653 593 Q 641 606 608 625 Q 593 631 533 614 Q 530 614 518 610 L 474 600 Q 453 599 380 578 C 351 570 372 544 400 553 Q 428 563 474 572 L 517 581 Q 568 596 584 585 Q 593 579 590 566 Q 577 478 564 468 C 554 452 554 452 559 445 Z" class="stroke9"/>
    <path d="M 517 503 Q 535 507 555 510 Q 571 514 565 523 Q 558 533 538 535 Q 529 536 517 532 L 475 520 Q 453 513 432 505 Q 420 501 436 492 Q 439 491 475 494 L 517 503 Z" class="stroke10"/>
    <path d="M 517 438 Q 538 442 559 445 C 589 449 592 456 564 468 Q 543 478 517 468 L 474 458 Q 443 451 416 441 C 388 431 385 423 415 425 Q 422 425 474 431 L 517 438 Z" class="stroke11"/>
    <path d="M 515 338 Q 527 341 615 355 Q 624 354 630 364 Q 631 373 613 380 Q 588 398 516 372 L 473 362 Q 446 358 422 354 Q 395 350 367 346 Q 345 343 362 330 Q 383 314 421 320 Q 443 326 474 331 L 515 338 Z" class="stroke12"/>
    <path d="M 474 331 Q 474 253 487 234 Q 497 222 505 239 Q 511 255 515 338 L 516 372 Q 517 402 517 438 L 517 468 Q 517 478 517 489 L 517 503 L 517 532 Q 517 557 517 581 L 518 610 Q 519 647 521 674 L 523 715 Q 523 740 536 763 Q 542 776 526 788 Q 507 803 473 811 Q 458 815 448 804 Q 441 797 450 788 Q 469 772 472 749 Q 472 728 472 700 L 473 663 Q 473 635 474 600 L 474 572 Q 474 550 475 525 Q 475 524 475 520 L 475 494 Q 474 475 474 458 L 474 431 Q 474 398 473 362 L 474 331 Z" class="stroke13"/>
    <path d="M 780 558 Q 752 559 727 558 Q 696 557 711 576 Q 751 658 791 719 Q 801 735 799 741 Q 795 753 760 775 Q 745 785 730 781 Q 721 777 728 765 Q 749 728 682 592 Q 672 577 657 560 Q 644 547 645 537 Q 649 522 663 508 Q 672 499 682 506 Q 697 516 750 534 L 764 536 C 794 540 810 557 780 558 Z" class="stroke14"/>
    <path d="M 835 467 Q 795 460 751 446 Q 727 437 742 456 Q 769 493 832 569 Q 854 600 875 617 Q 885 624 880 633 Q 871 649 844 664 Q 831 671 823 669 Q 816 666 817 653 Q 818 629 780 558 L 764 536 Q 695 442 680 434 Q 668 427 671 415 Q 672 405 694 388 Q 703 378 714 389 Q 769 428 844 452 C 872 461 864 473 835 467 Z" class="stroke15"/>
    <path d="M 844 452 Q 862 419 874 416 Q 880 415 886 421 Q 892 428 891 449 Q 892 465 873 483 Q 828 522 816 518 Q 812 517 811 508 Q 811 498 835 467 L 844 452 Z" class="stroke16"/>
    <path d="M 666 334 Q 693 262 706 255 Q 715 251 724 261 Q 728 270 728 286 Q 725 316 677 351 Q 671 355 667 347 Q 664 343 666 334 Z" class="stroke17"/>
    <path d="M 743 343 Q 758 306 780 284 Q 789 280 797 285 Q 803 292 804 302 Q 805 318 797 329 Q 764 369 742 369 Q 738 369 737 361 Q 736 354 743 343 Z" class="stroke18"/>
    <path d="M 826 355 Q 848 327 869 292 Q 876 280 888 278 Q 895 277 902 285 Q 908 295 907 317 Q 904 347 831 390 Q 821 394 816 394 Q 812 393 811 383 Q 811 374 826 355 Z" class="stroke19"/>
    <path d="M 351 189 Q 339 196 303 200 Q 290 204 287 198 Q 280 191 290 174 Q 321 116 341 17 Q 345 -13 363 -32 Q 382 -54 387 -38 Q 391 -23 390 0 L 384 36 Q 368 121 363 154 C 358 184 358 186 351 189 Z" class="stroke20"/>
    <path d="M 656 66 Q 684 142 718 164 Q 737 183 721 203 Q 705 218 648 246 Q 629 255 606 246 Q 506 207 351 189 C 321 185 333 149 363 154 Q 373 155 388 159 Q 488 177 582 194 Q 607 200 617 189 Q 626 180 623 162 Q 613 113 601 71 C 593 42 645 38 656 66 Z" class="stroke21"/>
    <path d="M 390 0 Q 397 0 406 1 Q 490 17 670 28 Q 680 29 683 38 Q 683 47 656 66 C 639 78 630 77 601 71 Q 480 47 384 36 C 354 33 360 -1 390 0 Z" class="stroke22"/>
    
    
    
    
    
    
    
    
    
    
    
    
    
    
    
    
    
    
    
    
    
    </g>
</svg>