<svg version="1.1" viewBox="0 0 1024 1024" xmlns="http://www.w3.org/2000/svg">
  
  <g transform="scale(1, -1) translate(0, -900)">
    <style type="text/css">
        .stroke1 {fill: #808080;}
        .stroke2 {fill: #808079;}
        .stroke3 {fill: #808078;}
        .stroke4 {fill: #808077;}
        .stroke5 {fill: #808076;}
        .stroke6 {fill: #808075;}
        .stroke7 {fill: #808074;}
        .stroke8 {fill: #808073;}
        .stroke9 {fill: #808072;}
        .stroke10 {fill: #808071;}
        .stroke11 {fill: #808070;}
        .stroke12 {fill: #808069;}
        .stroke13 {fill: #808068;}
        .stroke14 {fill: #808067;}
        .stroke15 {fill: #808066;}
        .stroke16 {fill: #808065;}
        .stroke17 {fill: #808064;}
        .stroke18 {fill: #808063;}
        .stroke19 {fill: #808062;}
        .stroke20 {fill: #808061;}
        text {
            font-family: Helvetica;
            font-size: 50px;
            fill: #808060;
            paint-order: stroke;
            stroke: #000000;
            stroke-width: 4px;
            stroke-linecap: butt;
            stroke-linejoin: miter;
            font-weight: 800;
        }
    </style>

    <path d="M 512 737 Q 573 747 637 756 Q 700 766 709 774 Q 718 781 714 789 Q 708 801 682 809 Q 655 816 627 807 Q 573 792 520 780 L 461 769 Q 379 757 291 753 Q 257 750 280 733 Q 313 706 368 717 Q 411 724 461 730 L 512 737 Z" class="stroke1"/>
    <path d="M 499 675 Q 505 706 512 737 L 520 780 Q 520 783 521 784 Q 525 797 528 808 Q 532 815 534 822 Q 538 832 521 846 Q 493 865 471 870 Q 458 874 450 867 Q 443 861 449 847 Q 459 829 461 769 L 461 730 Q 460 700 458 667 C 456 637 493 646 499 675 Z" class="stroke2"/>
    <path d="M 364 655 Q 354 661 321 663 Q 309 664 307 660 Q 301 653 310 639 Q 335 602 354 537 Q 358 518 372 506 Q 391 487 394 502 Q 395 509 396 522 L 390 554 Q 380 606 376 626 C 371 652 371 652 364 655 Z" class="stroke3"/>
    <path d="M 631 576 Q 652 615 676 626 Q 692 642 680 659 Q 617 716 565 694 Q 529 684 499 675 L 458 667 Q 412 661 364 655 C 334 651 346 623 376 626 Q 391 626 562 655 Q 584 659 592 650 Q 596 646 595 635 Q 591 610 583 587 C 574 558 616 550 631 576 Z" class="stroke4"/>
    <path d="M 469 532 Q 532 542 636 548 Q 646 549 647 557 Q 647 564 631 576 C 612 592 612 592 583 587 Q 579 587 576 586 Q 473 564 390 554 C 360 550 366 520 396 522 Q 402 522 408 523 Q 421 527 444 529 L 469 532 Z" class="stroke5"/>
    <path d="M 511 479 Q 512 480 513 482 Q 514 492 509 507 Q 500 519 469 532 C 441 544 440 544 444 529 Q 450 502 485 475 L 487 474 C 502 466 502 466 511 479 Z" class="stroke6"/>
    <path d="M 601 454 Q 646 460 686 463 Q 696 462 704 472 Q 705 482 685 493 Q 664 514 573 491 Q 546 487 520 481 Q 516 480 511 479 L 487 474 Q 448 470 301 454 Q 276 451 294 435 Q 322 411 349 416 Q 443 434 572 451 L 601 454 Z" class="stroke7"/>
    <path d="M 359 384 Q 386 330 408 324 Q 418 321 426 335 Q 430 345 425 364 Q 413 391 367 405 Q 360 408 357 399 Q 354 392 359 384 Z" class="stroke8"/>
    <path d="M 567 327 Q 585 346 609 378 Q 616 387 628 398 Q 641 407 635 417 Q 632 423 601 454 C 580 475 566 480 572 451 Q 571 450 574 444 Q 580 422 547 345 Q 540 333 538 323 C 531 294 547 305 567 327 Z" class="stroke9"/>
    <path d="M 506 282 Q 590 291 879 291 Q 901 290 907 300 Q 913 313 895 328 Q 837 373 796 364 Q 705 348 567 327 L 538 323 Q 514 322 490 317 Q 318 298 114 276 Q 92 275 108 255 Q 124 239 143 233 Q 167 226 184 231 Q 302 262 437 275 Q 441 276 448 276 L 506 282 Z" class="stroke10"/>
    <path d="M 524 159 Q 569 165 770 164 Q 789 164 795 172 Q 801 184 784 198 Q 730 238 667 224 Q 609 215 526 201 L 465 192 Q 362 180 241 166 Q 219 165 235 147 Q 248 134 267 127 Q 288 121 304 126 Q 380 145 466 153 L 524 159 Z" class="stroke11"/>
    <path d="M 471 -44 Q 475 -68 482 -77 Q 488 -84 495 -82 Q 514 -70 522 112 Q 522 133 524 159 L 526 201 Q 526 202 527 205 Q 527 217 534 245 Q 537 261 524 271 Q 514 278 506 282 C 480 297 435 303 448 276 Q 460 258 465 198 Q 464 197 465 192 L 466 153 Q 467 107 467 50 Q 468 -20 471 -44 Z" class="stroke12"/>
    
    
    
    
    
    
    
    
    
    
    
    </g>
</svg>