<svg version="1.1" viewBox="0 0 1024 1024" xmlns="http://www.w3.org/2000/svg">
  
  <g transform="scale(1, -1) translate(0, -900)">
    <style type="text/css">
        .stroke1 {fill: #808080;}
        .stroke2 {fill: #808079;}
        .stroke3 {fill: #808078;}
        .stroke4 {fill: #808077;}
        .stroke5 {fill: #808076;}
        .stroke6 {fill: #808075;}
        .stroke7 {fill: #808074;}
        .stroke8 {fill: #808073;}
        .stroke9 {fill: #808072;}
        .stroke10 {fill: #808071;}
        .stroke11 {fill: #808070;}
        .stroke12 {fill: #808069;}
        .stroke13 {fill: #808068;}
        .stroke14 {fill: #808067;}
        .stroke15 {fill: #808066;}
        .stroke16 {fill: #808065;}
        .stroke17 {fill: #808064;}
        .stroke18 {fill: #808063;}
        .stroke19 {fill: #808062;}
        .stroke20 {fill: #808061;}
        text {
            font-family: Helvetica;
            font-size: 50px;
            fill: #808060;
            paint-order: stroke;
            stroke: #000000;
            stroke-width: 4px;
            stroke-linecap: butt;
            stroke-linejoin: miter;
            font-weight: 800;
        }
    </style>

    <path d="M 591 835 Q 591 809 576 793 Q 474 698 321 622 Q 310 617 306 612 Q 297 606 312 602 Q 319 600 338 604 Q 386 615 453 647 Q 500 668 564 710 Q 621 749 643 757 Q 666 767 641 817 Q 625 843 610 851 Q 594 857 591 835 Z" class="stroke1"/>
    <path d="M 617 698 Q 615 670 598 655 Q 577 637 555 621 Q 457 547 306 482 Q 296 479 292 476 Q 283 468 295 464 Q 321 462 374 480 Q 475 515 596 593 Q 612 602 625 610 L 665 627 Q 672 631 673 643 Q 674 651 666 668 Q 653 705 634 712 Q 619 718 617 698 Z" class="stroke2"/>
    <path d="M 505 404 Q 532 416 584 445 Q 651 481 677 488 Q 680 488 682 490 Q 700 500 682 546 Q 669 570 655 579 Q 641 586 637 566 Q 633 535 612 519 Q 588 501 568 488 Q 468 421 283 353 Q 266 349 265 343 Q 265 337 270 335 L 272 335 Q 309 327 435 374 L 472 390 L 505 404 Z" class="stroke3"/>
    <path d="M 472 390 Q 473 385 476 380 Q 484 366 484 341 L 484 121 C 484 91 525 70 527 100 L 536 245 L 538 276 L 542 349 Q 549 367 540 377 Q 521 396 505 404 C 479 419 461 418 472 390 Z" class="stroke4"/>
    <path d="M 536 245 L 561 239 L 568 239 Q 602 237 710 269 Q 733 272 735 276 Q 744 285 739 293 Q 732 304 710 309 Q 673 316 639 301 L 590 286 Q 571 280 538 276 C 508 272 507 252 536 245 Z" class="stroke5"/>
    <path d="M 353 194 Q 355 196 357 199 L 382 231 L 384 233 Q 398 245 375 267 Q 372 269 367 272 Q 337 294 316 289 Q 308 288 308 278 Q 310 257 306 247 Q 288 175 227 108 Q 204 78 137 20 Q 131 16 139 12 Q 143 12 148 14 Q 174 22 218 50 Q 251 72 287 112 L 338 173 L 353 194 Z" class="stroke6"/>
    <path d="M 484 121 L 439 147 Q 383 179 353 194 C 326 208 313 190 338 173 L 340 172 Q 519 49 710 -57 Q 739 -75 780 -69 Q 818 -62 866 -47 Q 945 -23 947 -10 Q 948 -3 930 0 Q 894 6 855 12 Q 723 33 697 38 Q 623 55 527 100 L 484 121 Z" class="stroke7"/>
    
    
    
    
    
    
    </g>
</svg>