<svg version="1.1" viewBox="0 0 1024 1024" xmlns="http://www.w3.org/2000/svg">
  
  <g transform="scale(1, -1) translate(0, -900)">
    <style type="text/css">
        .stroke1 {fill: #808080;}
        .stroke2 {fill: #808079;}
        .stroke3 {fill: #808078;}
        .stroke4 {fill: #808077;}
        .stroke5 {fill: #808076;}
        .stroke6 {fill: #808075;}
        .stroke7 {fill: #808074;}
        .stroke8 {fill: #808073;}
        .stroke9 {fill: #808072;}
        .stroke10 {fill: #808071;}
        .stroke11 {fill: #808070;}
        .stroke12 {fill: #808069;}
        .stroke13 {fill: #808068;}
        .stroke14 {fill: #808067;}
        .stroke15 {fill: #808066;}
        .stroke16 {fill: #808065;}
        .stroke17 {fill: #808064;}
        .stroke18 {fill: #808063;}
        .stroke19 {fill: #808062;}
        .stroke20 {fill: #808061;}
        text {
            font-family: Helvetica;
            font-size: 50px;
            fill: #808060;
            paint-order: stroke;
            stroke: #000000;
            stroke-width: 4px;
            stroke-linecap: butt;
            stroke-linejoin: miter;
            font-weight: 800;
        }
    </style>

    <path d="M 529 628 Q 545 659 563 694 Q 575 725 588 741 Q 595 751 589 763 Q 583 773 555 790 Q 528 803 512 801 Q 496 797 506 778 Q 539 727 418 509 Q 411 499 409 492 Q 408 482 420 486 Q 444 492 516 607 L 529 628 Z" class="stroke1"/>
    <path d="M 633 603 Q 781 639 788 645 Q 795 652 791 661 Q 784 671 756 678 Q 734 681 632 649 Q 566 634 529 628 C 499 623 488 619 516 607 Q 543 594 583 593 L 633 603 Z" class="stroke2"/>
    <path d="M 660 397 Q 738 406 852 406 Q 909 403 916 415 Q 920 427 904 441 Q 841 486 785 466 Q 733 457 661 442 L 606 433 Q 506 420 393 403 Q 371 400 387 383 Q 421 352 468 366 Q 532 384 606 390 L 660 397 Z" class="stroke3"/>
    <path d="M 611 156 Q 615 132 622 123 Q 628 116 635 118 Q 648 127 655 183 Q 655 193 660 397 L 661 442 Q 661 520 671 561 Q 674 577 660 587 Q 644 597 633 603 C 607 618 572 621 583 593 Q 592 569 604 542 Q 604 512 606 433 L 606 390 Q 606 192 611 156 Z" class="stroke4"/>
    <path d="M 242 722 Q 267 700 295 674 Q 310 661 327 661 Q 339 662 344 676 Q 350 692 339 725 Q 327 755 236 775 Q 220 779 212 775 Q 206 771 208 757 Q 212 744 242 722 Z" class="stroke5"/>
    <path d="M 295 192 Q 313 202 319 224 Q 331 266 284 341 Q 253 395 320 477 Q 324 483 330 488 Q 352 507 332 522 Q 311 538 276 551 Q 254 564 236 546 Q 209 524 174 510 Q 128 488 111 489 Q 104 490 102 485 Q 101 479 109 475 Q 146 460 228 492 Q 237 496 246 484 Q 267 465 247 437 Q 199 385 247 322 Q 280 256 279 232 Q 279 202 272 194 C 262 166 272 173 295 192 Z" class="stroke6"/>
    <path d="M 272 194 Q 227 197 180 181 Q 149 169 102 165 Q 96 165 92 156 Q 89 149 98 139 Q 116 121 140 110 Q 152 104 170 119 Q 228 167 296 153 Q 362 137 495 77 Q 717 -29 804 -7 Q 805 -6 808 -6 Q 871 16 924 52 Q 948 68 924 68 Q 710 62 535 113 Q 460 137 369 173 Q 332 189 295 192 L 272 194 Z" class="stroke7"/>
    
    
    
    
    
    
    </g>
</svg>