<svg version="1.1" viewBox="0 0 1024 1024" xmlns="http://www.w3.org/2000/svg">
  
  <g transform="scale(1, -1) translate(0, -900)">
    <style type="text/css">
        .stroke1 {fill: #808080;}
        .stroke2 {fill: #808079;}
        .stroke3 {fill: #808078;}
        .stroke4 {fill: #808077;}
        .stroke5 {fill: #808076;}
        .stroke6 {fill: #808075;}
        .stroke7 {fill: #808074;}
        .stroke8 {fill: #808073;}
        .stroke9 {fill: #808072;}
        .stroke10 {fill: #808071;}
        .stroke11 {fill: #808070;}
        .stroke12 {fill: #808069;}
        .stroke13 {fill: #808068;}
        .stroke14 {fill: #808067;}
        .stroke15 {fill: #808066;}
        .stroke16 {fill: #808065;}
        .stroke17 {fill: #808064;}
        .stroke18 {fill: #808063;}
        .stroke19 {fill: #808062;}
        .stroke20 {fill: #808061;}
        text {
            font-family: Helvetica;
            font-size: 50px;
            fill: #808060;
            paint-order: stroke;
            stroke: #000000;
            stroke-width: 4px;
            stroke-linecap: butt;
            stroke-linejoin: miter;
            font-weight: 800;
        }
    </style>

    <path d="M 770 531 Q 797 627 834 651 Q 850 670 836 688 Q 758 746 708 716 Q 654 695 543 670 C 514 663 520 636 550 639 Q 565 639 583 646 Q 650 661 715 675 Q 731 679 739 673 Q 749 663 746 642 Q 733 579 717 530 C 708 501 762 502 770 531 Z" class="stroke1"/>
    <path d="M 532 462 Q 538 456 559 460 Q 632 478 788 493 Q 798 494 800 504 Q 800 511 770 531 C 757 540 746 537 717 530 Q 617 505 536 491 C 506 486 504 474 532 462 Z" class="stroke2"/>
    <path d="M 543 670 Q 528 682 505 690 Q 486 700 475 694 Q 465 687 471 675 Q 483 656 488 611 Q 488 410 438 297 Q 431 279 397 213 Q 393 206 391 201 Q 390 191 399 193 Q 426 197 486 308 Q 490 318 496 330 Q 523 402 532 462 L 536 491 Q 548 632 550 639 C 553 663 553 663 543 670 Z" class="stroke3"/>
    <path d="M 617 370 Q 702 294 802 186 Q 818 167 833 162 Q 842 161 849 171 Q 861 184 849 227 Q 837 290 624 397 Q 620 400 618 400 Q 609 404 607 393 Q 606 380 617 370 Z" class="stroke4"/>
    <path d="M 274 731 Q 305 703 341 668 Q 356 652 374 653 Q 387 654 392 669 Q 398 685 388 720 Q 382 742 346 761 Q 256 794 244 787 Q 238 783 240 768 Q 244 755 274 731 Z" class="stroke5"/>
    <path d="M 322 194 Q 329 201 334 216 Q 341 258 300 325 Q 267 382 348 476 Q 349 480 353 482 Q 375 501 356 516 Q 335 532 301 547 Q 279 560 261 542 Q 230 520 190 505 Q 138 483 120 486 Q 113 486 110 481 Q 109 477 117 472 Q 159 451 251 489 Q 261 492 269 482 Q 291 458 268 428 Q 217 376 254 321 Q 299 237 294 196 C 294 166 306 169 322 194 Z" class="stroke6"/>
    <path d="M 294 196 Q 252 199 208 185 Q 165 170 101 166 Q 94 166 90 157 Q 86 150 95 140 Q 111 121 135 109 Q 147 102 166 116 Q 248 170 324 153 Q 388 137 519 77 Q 742 -31 828 -6 Q 891 16 944 52 Q 968 67 944 67 Q 709 67 561 113 Q 486 137 397 172 Q 361 188 322 194 L 294 196 Z" class="stroke7"/>
    
    
    
    
    
    
    </g>
</svg>