<svg version="1.1" viewBox="0 0 1024 1024" xmlns="http://www.w3.org/2000/svg">
  
  <g transform="scale(1, -1) translate(0, -900)">
    <style type="text/css">
        .stroke1 {fill: #808080;}
        .stroke2 {fill: #808079;}
        .stroke3 {fill: #808078;}
        .stroke4 {fill: #808077;}
        .stroke5 {fill: #808076;}
        .stroke6 {fill: #808075;}
        .stroke7 {fill: #808074;}
        .stroke8 {fill: #808073;}
        .stroke9 {fill: #808072;}
        .stroke10 {fill: #808071;}
        .stroke11 {fill: #808070;}
        .stroke12 {fill: #808069;}
        .stroke13 {fill: #808068;}
        .stroke14 {fill: #808067;}
        .stroke15 {fill: #808066;}
        .stroke16 {fill: #808065;}
        .stroke17 {fill: #808064;}
        .stroke18 {fill: #808063;}
        .stroke19 {fill: #808062;}
        .stroke20 {fill: #808061;}
        text {
            font-family: Helvetica;
            font-size: 50px;
            fill: #808060;
            paint-order: stroke;
            stroke: #000000;
            stroke-width: 4px;
            stroke-linecap: butt;
            stroke-linejoin: miter;
            font-weight: 800;
        }
    </style>

    <path d="M 488 544 Q 581 643 606 654 Q 622 661 616 675 Q 612 688 552 715 Q 533 724 441 681 Q 384 662 348 658 Q 329 658 337 641 Q 344 631 361 621 Q 388 609 419 629 Q 504 681 520 671 Q 532 665 527 653 Q 502 607 473 554 C 459 528 467 522 488 544 Z" class="stroke1"/>
    <path d="M 531 455 Q 513 527 488 544 L 473 554 Q 467 558 459 560 Q 440 566 431 559 Q 419 553 432 542 Q 465 520 487 434 L 493 398 Q 508 299 485 232 Q 473 210 445 216 Q 417 220 391 226 Q 381 227 385 219 Q 389 212 406 201 Q 442 173 454 149 Q 464 134 478 136 Q 490 137 513 161 Q 576 230 538 427 L 531 455 Z" class="stroke2"/>
    <path d="M 538 427 Q 589 466 588 476 Q 582 480 572 476 Q 551 466 531 455 L 487 434 Q 426 406 356 373 Q 340 366 314 363 Q 302 359 303 350 Q 302 338 312 332 Q 334 322 367 309 Q 377 308 386 317 Q 414 347 493 398 L 538 427 Z" class="stroke3"/>
    <path d="M 689 228 Q 649 237 610 247 Q 598 250 599 242 Q 600 236 610 229 Q 689 168 719 129 Q 734 113 748 127 Q 781 160 779 227 Q 775 273 772 581 Q 771 627 782 658 Q 789 676 774 688 Q 749 707 721 717 Q 703 723 696 716 Q 690 709 700 695 Q 722 659 722 618 Q 737 252 710 230 Q 703 223 689 228 Z" class="stroke4"/>
    <path d="M 639 453 Q 615 407 585 366 Q 567 339 579 311 Q 585 296 603 305 Q 649 338 657 404 Q 663 431 658 452 Q 655 459 650 460 Q 643 460 639 453 Z" class="stroke5"/>
    <path d="M 820 442 Q 856 397 896 335 Q 908 314 921 309 Q 928 306 937 314 Q 950 324 945 366 Q 942 411 825 470 Q 818 476 814 465 Q 813 452 820 442 Z" class="stroke6"/>
    <path d="M 213 724 Q 240 702 269 674 Q 284 661 300 662 Q 312 662 317 677 Q 321 692 311 723 Q 305 742 273 757 Q 198 782 184 775 Q 178 771 181 757 Q 185 747 213 724 Z" class="stroke7"/>
    <path d="M 283 167 Q 293 176 298 191 Q 305 234 264 305 Q 234 362 320 457 Q 342 476 322 491 Q 303 507 267 521 Q 245 534 226 515 Q 195 490 153 471 Q 98 443 78 445 Q 71 445 70 440 Q 69 436 77 431 Q 116 415 221 461 Q 228 465 237 459 Q 258 435 234 406 Q 182 358 231 277 Q 267 205 258 170 C 255 140 265 143 283 167 Z" class="stroke8"/>
    <path d="M 258 170 Q 213 173 168 158 Q 135 148 85 146 Q 78 146 74 138 Q 71 131 79 120 Q 95 101 119 88 Q 131 82 149 95 Q 215 140 284 127 Q 353 114 494 57 Q 681 -21 785 -22 Q 800 -21 819 -14 Q 877 8 927 45 Q 949 60 926 60 Q 700 51 542 89 Q 457 111 352 148 Q 318 163 283 167 L 258 170 Z" class="stroke9"/>
    
    
    
    
    
    
    
    
    </g>
</svg>