<svg version="1.1" viewBox="0 0 1024 1024" xmlns="http://www.w3.org/2000/svg">
  
  <g transform="scale(1, -1) translate(0, -900)">
    <style type="text/css">
        .stroke1 {fill: #808080;}
        .stroke2 {fill: #808079;}
        .stroke3 {fill: #808078;}
        .stroke4 {fill: #808077;}
        .stroke5 {fill: #808076;}
        .stroke6 {fill: #808075;}
        .stroke7 {fill: #808074;}
        .stroke8 {fill: #808073;}
        .stroke9 {fill: #808072;}
        .stroke10 {fill: #808071;}
        .stroke11 {fill: #808070;}
        .stroke12 {fill: #808069;}
        .stroke13 {fill: #808068;}
        .stroke14 {fill: #808067;}
        .stroke15 {fill: #808066;}
        .stroke16 {fill: #808065;}
        .stroke17 {fill: #808064;}
        .stroke18 {fill: #808063;}
        .stroke19 {fill: #808062;}
        .stroke20 {fill: #808061;}
        text {
            font-family: Helvetica;
            font-size: 50px;
            fill: #808060;
            paint-order: stroke;
            stroke: #000000;
            stroke-width: 4px;
            stroke-linecap: butt;
            stroke-linejoin: miter;
            font-weight: 800;
        }
    </style>

    <path d="M 602 672 Q 611 675 622 677 L 648 683 Q 780 719 784 722 Q 791 729 787 737 Q 780 747 753 754 Q 725 758 699 746 Q 657 730 613 717 L 560 703 Q 523 696 483 690 Q 450 683 474 669 Q 501 656 548 658 L 602 672 Z" class="stroke1"/>
    <path d="M 489 482 Q 522 512 563 578 Q 590 635 602 672 L 613 717 Q 631 787 643 806 Q 652 822 637 831 Q 594 867 571 859 Q 558 855 563 842 Q 579 799 560 703 L 548 658 Q 527 595 490 544 L 477 527 Q 434 476 374 442 L 344 422 Q 332 415 343 411 Q 391 407 470 467 L 489 482 Z" class="stroke2"/>
    <path d="M 622 677 Q 739 551 824 489 Q 846 471 864 475 Q 915 491 959 506 Q 978 512 976 516 Q 977 522 952 529 Q 819 562 781 586 Q 771 593 761 599 L 746 609 Q 739 615 730 621 Q 681 655 648 683 C 625 702 602 699 622 677 Z" class="stroke3"/>
    <path d="M 490 544 Q 484 577 458 589 Q 406 607 396 602 Q 392 599 394 591 Q 397 584 414 572 Q 474 529 477 527 C 496 514 496 515 490 544 Z" class="stroke4"/>
    <path d="M 761 599 Q 812 632 838 643 Q 851 647 849 655 Q 845 667 830 681 Q 817 696 799 698 Q 789 697 788 683 Q 789 673 783 660 Q 770 641 746 609 C 728 585 736 583 761 599 Z" class="stroke5"/>
    <path d="M 514 477 Q 507 480 489 482 C 459 486 454 486 470 467 Q 492 445 516 336 Q 520 312 534 297 Q 550 279 553 293 Q 553 296 554 298 L 555 322 Q 552 338 545 373 L 541 393 Q 534 432 531 448 C 526 473 526 473 514 477 Z" class="stroke6"/>
    <path d="M 687 310 Q 697 295 709 290 Q 719 283 732 302 Q 742 318 765 412 Q 772 440 793 462 Q 805 472 794 485 Q 781 500 743 522 Q 728 528 670 514 Q 666 514 663 512 Q 609 502 514 477 C 485 469 502 442 531 448 Q 535 448 542 450 Q 686 496 711 480 Q 721 473 718 458 Q 702 352 684 342 C 673 328 673 328 687 310 Z" class="stroke7"/>
    <path d="M 545 373 Q 546 373 665 392 Q 684 396 677 406 Q 668 418 647 421 Q 617 424 541 393 C 513 382 515 369 545 373 Z" class="stroke8"/>
    <path d="M 630 305 Q 658 309 687 310 C 717 311 712 332 684 342 Q 684 343 683 343 Q 665 347 555 322 C 526 315 524 298 554 298 Q 557 298 561 298 Q 577 301 595 302 L 630 305 Z" class="stroke9"/>
    <path d="M 595 302 Q 607 290 606 174 Q 605 170 603 169 Q 600 157 578 160 Q 559 163 538 166 Q 528 166 527 161 Q 526 155 535 148 Q 586 106 603 81 Q 615 71 624 72 Q 634 76 643 104 Q 658 132 656 185 Q 653 225 653 239 Q 660 273 645 292 Q 636 299 630 305 C 608 325 582 329 595 302 Z" class="stroke10"/>
    <path d="M 468 272 Q 443 238 413 207 Q 391 186 401 156 Q 404 141 422 147 Q 467 171 479 223 Q 488 248 486 268 Q 483 275 479 277 Q 472 278 468 272 Z" class="stroke11"/>
    <path d="M 719 238 Q 759 201 809 147 Q 822 131 835 127 Q 842 126 849 134 Q 859 146 848 182 Q 839 221 720 264 Q 713 268 711 258 Q 710 246 719 238 Z" class="stroke12"/>
    <path d="M 216 699 Q 238 674 263 644 Q 276 628 294 627 Q 306 627 313 641 Q 320 657 313 690 Q 306 723 216 752 Q 200 758 192 755 Q 186 751 187 737 Q 190 724 216 699 Z" class="stroke13"/>
    <path d="M 249 150 Q 250 151 253 154 Q 277 167 284 192 Q 296 232 248 289 Q 214 334 293 430 Q 294 433 297 435 Q 319 454 298 469 Q 277 484 241 497 Q 219 509 184 475 Q 111 420 78 421 Q 71 421 69 415 Q 68 411 77 407 Q 116 394 198 435 Q 205 439 213 433 Q 234 412 214 381 Q 198 360 189 330 Q 185 308 202 285 Q 256 207 238 162 Q 234 155 236 150 C 234 138 234 138 249 150 Z" class="stroke14"/>
    <path d="M 236 150 Q 191 151 152 142 Q 115 132 90 132 Q 75 132 77 120 Q 80 110 120 85 Q 139 75 169 94 Q 208 128 276 114 Q 448 66 582 0 Q 720 -66 775 -55 Q 851 -34 965 28 Q 972 31 970 37 Q 969 41 953 42 Q 608 27 383 115 Q 287 157 249 150 L 236 150 Z" class="stroke15"/>
    
    
    
    
    
    
    
    
    
    
    
    
    
    
    </g>
</svg>