<svg version="1.1" viewBox="0 0 1024 1024" xmlns="http://www.w3.org/2000/svg">
  
  <g transform="scale(1, -1) translate(0, -900)">
    <style type="text/css">
        .stroke1 {fill: #808080;}
        .stroke2 {fill: #808079;}
        .stroke3 {fill: #808078;}
        .stroke4 {fill: #808077;}
        .stroke5 {fill: #808076;}
        .stroke6 {fill: #808075;}
        .stroke7 {fill: #808074;}
        .stroke8 {fill: #808073;}
        .stroke9 {fill: #808072;}
        .stroke10 {fill: #808071;}
        .stroke11 {fill: #808070;}
        .stroke12 {fill: #808069;}
        .stroke13 {fill: #808068;}
        .stroke14 {fill: #808067;}
        .stroke15 {fill: #808066;}
        .stroke16 {fill: #808065;}
        .stroke17 {fill: #808064;}
        .stroke18 {fill: #808063;}
        .stroke19 {fill: #808062;}
        .stroke20 {fill: #808061;}
        text {
            font-family: Helvetica;
            font-size: 50px;
            fill: #808060;
            paint-order: stroke;
            stroke: #000000;
            stroke-width: 4px;
            stroke-linecap: butt;
            stroke-linejoin: miter;
            font-weight: 800;
        }
    </style>

    <path d="M 361 801 Q 392 777 425 748 Q 441 735 459 736 Q 472 737 476 752 Q 480 770 469 803 Q 462 825 426 838 Q 342 863 328 855 Q 322 851 325 836 Q 329 823 361 801 Z" class="stroke1"/>
    <path d="M 133 633 Q 120 632 118 624 Q 115 614 129 603 Q 166 576 205 589 Q 349 637 521 661 Q 537 662 537 670 Q 538 682 522 690 Q 497 702 475 697 Q 232 642 133 633 Z" class="stroke2"/>
    <path d="M 248 556 Q 242 493 115 371 Q 99 356 122 362 Q 176 366 276 483 Q 276 486 314 530 Q 323 542 320 550 Q 316 560 292 566 Q 267 573 256 569 Q 249 568 248 556 Z" class="stroke3"/>
    <path d="M 442 535 Q 467 514 496 489 Q 509 479 523 479 Q 533 480 537 492 Q 541 505 532 533 Q 522 558 436 579 Q 421 582 416 579 Q 412 575 413 563 Q 417 553 442 535 Z" class="stroke4"/>
    <path d="M 405 319 Q 426 361 460 405 Q 469 412 465 423 Q 461 433 434 453 Q 415 466 405 466 Q 392 465 392 450 Q 391 405 360 342 L 337 306 Q 268 219 176 155 Q 152 140 122 121 Q 113 114 119 111 Q 126 107 137 111 Q 282 150 376 276 L 405 319 Z" class="stroke5"/>
    <path d="M 376 276 Q 425 236 466 192 Q 479 174 494 167 Q 506 163 515 179 Q 522 195 515 222 Q 511 267 405 319 L 360 342 Q 264 391 253 389 Q 247 388 248 376 L 337 306 L 376 276 Z" class="stroke6"/>
    <path d="M 660 649 Q 669 649 776 684 Q 780 685 791 680 Q 801 673 792 653 Q 720 505 720 499 Q 719 487 742 477 Q 839 399 844 313 Q 844 289 830 275 Q 814 268 787 279 Q 747 297 712 310 Q 703 313 703 305 Q 704 298 717 284 Q 792 224 804 193 Q 811 177 825 173 Q 838 170 857 181 Q 900 229 903 289 Q 907 380 787 488 Q 748 509 823 596 Q 856 641 887 657 Q 918 673 892 694 Q 855 728 830 740 Q 812 747 796 737 Q 753 704 644 677 C 615 669 631 642 660 649 Z" class="stroke7"/>
    <path d="M 602 -27 Q 606 -52 614 -61 Q 620 -68 627 -66 Q 643 -56 647 1 Q 656 92 652 181 Q 649 232 649 558 Q 649 570 660 649 C 662 666 662 666 644 677 Q 616 696 602 698 Q 590 702 574 693 Q 565 686 573 675 Q 598 630 601 590 Q 604 430 598 181 Q 597 25 602 -27 Z" class="stroke8"/>
    
    
    
    
    
    
    
    </g>
</svg>