<svg version="1.1" viewBox="0 0 1024 1024" xmlns="http://www.w3.org/2000/svg">
  
  <g transform="scale(1, -1) translate(0, -900)">
    <style type="text/css">
        .stroke1 {fill: #808080;}
        .stroke2 {fill: #808079;}
        .stroke3 {fill: #808078;}
        .stroke4 {fill: #808077;}
        .stroke5 {fill: #808076;}
        .stroke6 {fill: #808075;}
        .stroke7 {fill: #808074;}
        .stroke8 {fill: #808073;}
        .stroke9 {fill: #808072;}
        .stroke10 {fill: #808071;}
        .stroke11 {fill: #808070;}
        .stroke12 {fill: #808069;}
        .stroke13 {fill: #808068;}
        .stroke14 {fill: #808067;}
        .stroke15 {fill: #808066;}
        .stroke16 {fill: #808065;}
        .stroke17 {fill: #808064;}
        .stroke18 {fill: #808063;}
        .stroke19 {fill: #808062;}
        .stroke20 {fill: #808061;}
        text {
            font-family: Helvetica;
            font-size: 50px;
            fill: #808060;
            paint-order: stroke;
            stroke: #000000;
            stroke-width: 4px;
            stroke-linecap: butt;
            stroke-linejoin: miter;
            font-weight: 800;
        }
    </style>

    <path d="M 241 716 Q 260 691 282 660 Q 292 645 308 643 Q 318 642 325 653 Q 332 666 329 696 Q 328 715 301 733 Q 243 770 224 767 Q 220 764 218 752 Q 219 740 241 716 Z" class="stroke1"/>
    <path d="M 454 783 Q 429 731 373 649 Q 369 642 375 635 Q 382 634 390 640 Q 484 734 532 772 Q 550 779 544 790 Q 535 805 514 821 Q 492 837 468 836 Q 453 835 457 814 Q 461 801 454 783 Z" class="stroke2"/>
    <path d="M 342 532 Q 504 572 508 575 Q 517 584 511 592 Q 504 604 474 611 Q 444 615 353 583 Q 278 564 209 554 Q 172 547 199 530 Q 247 509 299 522 Q 300 523 302 522 L 342 532 Z" class="stroke3"/>
    <path d="M 358 361 Q 376 367 529 388 Q 539 387 549 400 Q 550 413 526 423 Q 492 444 399 417 Q 381 413 366 408 L 311 395 Q 301 394 124 366 Q 94 362 118 344 Q 151 316 182 325 Q 237 338 304 351 L 358 361 Z" class="stroke4"/>
    <path d="M 347 321 Q 351 340 358 361 L 366 408 Q 370 432 374 457 Q 378 484 382 495 Q 389 501 383 511 Q 377 520 342 532 C 314 542 288 549 302 522 Q 321 503 311 395 L 304 351 Q 270 219 182 151 Q 152 132 110 105 Q 89 92 116 93 Q 158 90 238 140 Q 304 179 343 304 L 347 321 Z" class="stroke5"/>
    <path d="M 343 304 Q 344 297 352 291 Q 404 242 468 173 Q 483 154 497 150 Q 506 149 513 158 Q 525 171 513 213 Q 504 261 353 320 Q 349 323 347 321 C 335 323 335 323 343 304 Z" class="stroke6"/>
    <path d="M 655 623 Q 664 626 677 632 Q 720 648 757 662 Q 761 665 773 659 Q 785 652 776 629 Q 743 535 734 521 Q 727 505 728 497 Q 727 484 750 477 Q 843 404 851 315 Q 851 291 837 278 Q 822 268 795 274 Q 755 281 719 288 Q 710 289 711 281 Q 714 274 729 263 Q 805 220 822 190 Q 829 177 843 175 Q 855 174 870 185 Q 910 234 913 292 Q 917 382 795 488 Q 753 512 826 598 Q 845 628 871 641 Q 901 659 874 679 Q 834 710 809 721 Q 791 727 775 716 Q 751 695 650 659 Q 649 659 649 658 C 621 647 627 612 655 623 Z" class="stroke7"/>
    <path d="M 589 -6 Q 595 -31 602 -41 Q 608 -48 615 -46 Q 630 -36 637 23 Q 646 108 644 193 Q 640 263 645 541 Q 646 599 655 623 C 661 648 661 648 649 658 Q 624 683 597 686 Q 584 690 568 682 Q 559 673 566 663 Q 590 618 592 560 Q 592 415 587 192 Q 584 44 589 -6 Z" class="stroke8"/>
    
    
    
    
    
    
    
    </g>
</svg>