<svg version="1.1" viewBox="0 0 1024 1024" xmlns="http://www.w3.org/2000/svg">
  
  <g transform="scale(1, -1) translate(0, -900)">
    <style type="text/css">
        .stroke1 {fill: #808080;}
        .stroke2 {fill: #808079;}
        .stroke3 {fill: #808078;}
        .stroke4 {fill: #808077;}
        .stroke5 {fill: #808076;}
        .stroke6 {fill: #808075;}
        .stroke7 {fill: #808074;}
        .stroke8 {fill: #808073;}
        .stroke9 {fill: #808072;}
        .stroke10 {fill: #808071;}
        .stroke11 {fill: #808070;}
        .stroke12 {fill: #808069;}
        .stroke13 {fill: #808068;}
        .stroke14 {fill: #808067;}
        .stroke15 {fill: #808066;}
        .stroke16 {fill: #808065;}
        .stroke17 {fill: #808064;}
        .stroke18 {fill: #808063;}
        .stroke19 {fill: #808062;}
        .stroke20 {fill: #808061;}
        text {
            font-family: Helvetica;
            font-size: 50px;
            fill: #808060;
            paint-order: stroke;
            stroke: #000000;
            stroke-width: 4px;
            stroke-linecap: butt;
            stroke-linejoin: miter;
            font-weight: 800;
        }
    </style>

    <path d="M 367 590 Q 487 621 492 625 Q 501 632 495 641 Q 488 651 460 658 Q 433 662 370 637 L 320 622 Q 274 612 223 604 Q 189 597 214 582 Q 253 566 320 578 L 367 590 Z" class="stroke1"/>
    <path d="M 347 332 Q 353 378 367 590 L 370 637 Q 370 688 394 759 Q 401 774 390 785 Q 368 804 328 815 Q 303 822 293 814 Q 284 807 292 795 Q 319 750 320 622 L 320 578 Q 316 289 237 193 Q 192 139 97 87 Q 85 80 85 75 Q 86 71 97 70 Q 113 66 154 82 Q 292 125 334 275 Q 338 288 341 302 L 347 332 Z" class="stroke2"/>
    <path d="M 341 302 Q 401 247 471 169 Q 484 151 498 147 Q 505 146 513 154 Q 523 166 513 204 Q 503 250 347 332 C 320 346 319 322 341 302 Z" class="stroke3"/>
    <path d="M 188 427 Q 227 493 229 495 Q 236 505 224 517 Q 188 541 167 539 Q 158 536 161 524 Q 173 455 108 373 Q 92 354 84 342 Q 78 329 90 334 Q 123 337 175 408 L 188 427 Z" class="stroke4"/>
    <path d="M 175 408 Q 191 392 227 351 Q 234 341 246 340 Q 253 340 258 349 Q 262 359 258 379 Q 255 395 234 408 Q 212 418 188 427 C 160 438 154 429 175 408 Z" class="stroke5"/>
    <path d="M 469 465 Q 470 474 501 522 Q 508 532 496 542 Q 460 566 440 561 Q 433 558 435 547 Q 447 493 398 414 Q 383 393 376 382 Q 370 369 382 374 Q 412 378 459 448 L 469 465 Z" class="stroke6"/>
    <path d="M 459 448 Q 460 447 523 376 Q 530 366 542 365 Q 549 364 554 373 Q 558 383 555 403 Q 551 433 475 464 Q 471 465 469 465 C 440 469 440 469 459 448 Z" class="stroke7"/>
    <path d="M 673 582 Q 772 624 786 618 Q 796 612 789 593 Q 756 508 740 481 Q 734 471 734 463 Q 734 450 754 438 Q 836 390 861 296 Q 870 254 848 227 Q 836 217 811 220 Q 774 224 742 228 Q 733 229 735 221 Q 738 214 753 204 Q 822 167 838 143 Q 845 130 858 129 Q 868 129 882 140 Q 924 189 927 255 Q 930 349 797 448 Q 755 473 830 554 Q 830 557 832 557 Q 853 588 879 601 Q 907 619 882 637 Q 845 668 821 677 Q 803 683 789 674 Q 764 650 740 642 Q 701 627 660 610 C 632 599 645 570 673 582 Z" class="stroke8"/>
    <path d="M 660 610 Q 627 632 613 634 Q 600 638 584 629 Q 575 622 583 611 Q 607 554 608 512 Q 609 371 606 157 Q 603 -47 622 -69 Q 628 -76 635 -74 Q 653 -62 656 -4 Q 660 41 661 276 Q 658 516 673 582 C 676 600 676 600 660 610 Z" class="stroke9"/>
    
    
    
    
    
    
    
    
    </g>
</svg>