<svg version="1.1" viewBox="0 0 1024 1024" xmlns="http://www.w3.org/2000/svg">
  
  <g transform="scale(1, -1) translate(0, -900)">
    <style type="text/css">
        .stroke1 {fill: #808080;}
        .stroke2 {fill: #808079;}
        .stroke3 {fill: #808078;}
        .stroke4 {fill: #808077;}
        .stroke5 {fill: #808076;}
        .stroke6 {fill: #808075;}
        .stroke7 {fill: #808074;}
        .stroke8 {fill: #808073;}
        .stroke9 {fill: #808072;}
        .stroke10 {fill: #808071;}
        .stroke11 {fill: #808070;}
        .stroke12 {fill: #808069;}
        .stroke13 {fill: #808068;}
        .stroke14 {fill: #808067;}
        .stroke15 {fill: #808066;}
        .stroke16 {fill: #808065;}
        .stroke17 {fill: #808064;}
        .stroke18 {fill: #808063;}
        .stroke19 {fill: #808062;}
        .stroke20 {fill: #808061;}
        text {
            font-family: Helvetica;
            font-size: 50px;
            fill: #808060;
            paint-order: stroke;
            stroke: #000000;
            stroke-width: 4px;
            stroke-linecap: butt;
            stroke-linejoin: miter;
            font-weight: 800;
        }
    </style>

    <path d="M 359 721 Q 372 740 386 753 Q 396 763 391 778 Q 387 791 357 816 Q 329 835 310 835 Q 291 834 299 810 Q 314 776 300 748 Q 260 652 199 563 Q 139 478 59 384 Q 49 374 46 367 Q 42 355 57 358 Q 114 364 288 608 Q 309 641 332 677 Q 339 690 346 701 L 359 721 Z" class="stroke1"/>
    <path d="M 346 701 Q 352 694 374 681 Q 408 662 447 636 Q 460 627 474 630 Q 483 631 485 644 Q 486 657 475 681 Q 466 700 432 711 Q 399 718 362 721 Q 361 722 359 721 C 329 722 325 722 346 701 Z" class="stroke2"/>
    <path d="M 342 486 Q 436 523 439 526 Q 446 535 441 542 Q 432 552 405 553 Q 381 554 305 516 Q 275 506 238 496 Q 207 484 233 473 Q 267 464 301 471 L 342 486 Z" class="stroke3"/>
    <path d="M 360 375 Q 456 408 462 414 Q 469 423 464 430 Q 457 440 429 443 Q 401 444 362 425 L 310 402 Q 259 383 192 367 Q 159 357 185 345 Q 224 332 301 356 Q 305 357 311 359 L 360 375 Z" class="stroke4"/>
    <path d="M 353 184 Q 357 290 360 375 L 362 425 Q 366 467 346 483 Q 343 486 342 486 C 319 505 288 498 301 471 Q 310 462 310 402 L 311 359 Q 311 295 311 172 C 311 142 352 154 353 184 Z" class="stroke5"/>
    <path d="M 192 243 Q 208 227 226 205 Q 238 192 253 192 Q 263 192 269 205 Q 273 218 267 247 Q 263 263 239 274 Q 184 295 168 291 Q 164 287 164 275 Q 167 265 192 243 Z" class="stroke6"/>
    <path d="M 428 318 Q 415 296 387 258 Q 383 252 387 247 Q 393 246 399 250 Q 456 289 484 303 Q 497 307 494 316 Q 490 328 474 341 Q 459 354 442 356 Q 432 355 432 341 Q 433 331 428 318 Z" class="stroke7"/>
    <path d="M 311 172 Q 241 153 167 130 Q 146 123 111 124 Q 98 123 95 112 Q 94 99 102 90 Q 126 74 160 54 Q 170 51 183 60 Q 231 93 427 176 Q 455 188 476 203 Q 489 210 490 220 Q 484 226 472 223 Q 414 204 353 184 L 311 172 Z" class="stroke8"/>
    <path d="M 597 550 Q 654 647 690 725 Q 706 770 724 793 Q 731 805 725 818 Q 719 831 686 850 Q 655 865 636 861 Q 617 857 629 835 Q 645 810 639 785 Q 620 703 584 622 Q 550 544 498 457 Q 489 444 488 438 Q 487 426 500 431 Q 524 440 582 527 L 597 550 Z" class="stroke9"/>
    <path d="M 582 527 Q 615 523 744 546 Q 775 552 792 552 Q 802 552 804 548 Q 825 515 814 297 Q 804 168 769 98 Q 754 64 732 57 Q 720 54 657 74 Q 647 78 647 72 Q 646 68 658 58 Q 697 12 714 -19 Q 724 -38 736 -39 Q 758 -36 778 -13 Q 809 15 831 63 Q 874 163 884 470 Q 884 506 904 531 Q 917 544 916 554 Q 915 561 894 575 Q 866 594 829 605 Q 801 612 783 603 Q 767 596 728 584 Q 673 568 635 559 Q 613 555 597 550 C 568 543 552 527 582 527 Z" class="stroke10"/>
    <path d="M 567 348 Q 609 291 643 275 Q 659 271 670 285 Q 677 298 676 318 Q 670 345 651 360 Q 630 376 583 390 Q 564 397 554 393 Q 547 392 549 378 Q 550 365 567 348 Z" class="stroke11"/>
    
    
    
    
    
    
    
    
    
    
    </g>
</svg>