<svg version="1.1" viewBox="0 0 1024 1024" xmlns="http://www.w3.org/2000/svg">
  
  <g transform="scale(1, -1) translate(0, -900)">
    <style type="text/css">
        .stroke1 {fill: #808080;}
        .stroke2 {fill: #808079;}
        .stroke3 {fill: #808078;}
        .stroke4 {fill: #808077;}
        .stroke5 {fill: #808076;}
        .stroke6 {fill: #808075;}
        .stroke7 {fill: #808074;}
        .stroke8 {fill: #808073;}
        .stroke9 {fill: #808072;}
        .stroke10 {fill: #808071;}
        .stroke11 {fill: #808070;}
        .stroke12 {fill: #808069;}
        .stroke13 {fill: #808068;}
        .stroke14 {fill: #808067;}
        .stroke15 {fill: #808066;}
        .stroke16 {fill: #808065;}
        .stroke17 {fill: #808064;}
        .stroke18 {fill: #808063;}
        .stroke19 {fill: #808062;}
        .stroke20 {fill: #808061;}
        text {
            font-family: Helvetica;
            font-size: 50px;
            fill: #808060;
            paint-order: stroke;
            stroke: #000000;
            stroke-width: 4px;
            stroke-linecap: butt;
            stroke-linejoin: miter;
            font-weight: 800;
        }
    </style>

    <path d="M 261 513 Q 325 592 401 732 L 411 752 Q 414 765 432 786 Q 439 793 437 803 Q 434 813 420 825 Q 384 855 350 845 Q 340 842 344 829 Q 365 748 244 566 Q 234 553 223 538 Q 183 486 80 381 Q 73 374 83 372 Q 146 390 244 494 L 261 513 Z" class="stroke1"/>
    <path d="M 401 732 Q 405 725 427 711 Q 463 686 502 656 Q 515 646 529 647 Q 538 648 541 660 Q 544 673 534 698 Q 527 720 492 734 Q 420 756 411 752 C 387 749 387 749 401 732 Z" class="stroke2"/>
    <path d="M 359 499 Q 398 512 441 524 Q 466 531 469 536 Q 476 543 472 550 Q 465 560 439 563 Q 412 566 388 553 Q 360 541 330 531 Q 299 521 261 513 C 232 507 219 504 244 494 Q 245 494 249 492 Q 279 480 320 486 L 359 499 Z" class="stroke3"/>
    <path d="M 379 373 Q 490 409 492 409 Q 499 416 495 423 Q 488 432 465 436 Q 444 439 381 414 L 330 396 Q 329 397 327 396 Q 275 380 213 370 Q 185 364 206 352 Q 239 334 288 349 Q 307 355 331 360 L 379 373 Z" class="stroke4"/>
    <path d="M 373 200 Q 376 294 379 373 L 381 414 Q 381 435 384 455 Q 390 476 359 499 C 336 518 310 514 320 486 Q 329 467 330 396 L 331 360 Q 331 299 331 188 C 331 158 372 170 373 200 Z" class="stroke5"/>
    <path d="M 200 277 Q 236 214 257 212 Q 270 208 278 225 Q 282 238 275 258 Q 259 291 208 302 Q 199 305 197 294 Q 196 287 200 277 Z" class="stroke6"/>
    <path d="M 445 324 Q 432 299 403 258 Q 399 252 403 247 Q 409 246 415 250 Q 473 295 501 312 Q 514 316 511 324 Q 493 360 458 363 Q 446 362 448 347 Q 451 337 445 324 Z" class="stroke7"/>
    <path d="M 331 188 Q 261 170 188 150 Q 166 143 128 144 Q 115 143 112 133 Q 109 120 119 110 Q 141 94 176 73 Q 186 69 199 78 Q 245 109 462 195 Q 493 207 516 223 Q 529 230 530 240 Q 526 246 512 244 Q 446 223 373 200 L 331 188 Z" class="stroke8"/>
    <path d="M 761 461 Q 825 471 921 475 Q 970 475 977 486 Q 981 498 965 510 Q 910 549 844 525 Q 808 518 762 505 L 705 493 Q 623 477 527 458 Q 506 455 523 439 Q 536 427 555 423 Q 574 419 590 424 Q 642 442 705 452 L 761 461 Z" class="stroke9"/>
    <path d="M 705 452 Q 711 347 702 175 Q 699 -2 720 -36 Q 735 -52 744 -30 Q 760 9 761 461 L 762 505 Q 763 638 768 708 Q 769 742 787 770 Q 794 786 773 803 Q 748 822 703 834 Q 682 840 669 825 Q 659 816 672 804 Q 702 779 704 744 Q 705 656 705 493 L 705 452 Z" class="stroke10"/>
    
    
    
    
    
    
    
    
    
    </g>
</svg>