<svg version="1.1" viewBox="0 0 1024 1024" xmlns="http://www.w3.org/2000/svg">
  
  <g transform="scale(1, -1) translate(0, -900)">
    <style type="text/css">
        .stroke1 {fill: #808080;}
        .stroke2 {fill: #808079;}
        .stroke3 {fill: #808078;}
        .stroke4 {fill: #808077;}
        .stroke5 {fill: #808076;}
        .stroke6 {fill: #808075;}
        .stroke7 {fill: #808074;}
        .stroke8 {fill: #808073;}
        .stroke9 {fill: #808072;}
        .stroke10 {fill: #808071;}
        .stroke11 {fill: #808070;}
        .stroke12 {fill: #808069;}
        .stroke13 {fill: #808068;}
        .stroke14 {fill: #808067;}
        .stroke15 {fill: #808066;}
        .stroke16 {fill: #808065;}
        .stroke17 {fill: #808064;}
        .stroke18 {fill: #808063;}
        .stroke19 {fill: #808062;}
        .stroke20 {fill: #808061;}
        text {
            font-family: Helvetica;
            font-size: 50px;
            fill: #808060;
            paint-order: stroke;
            stroke: #000000;
            stroke-width: 4px;
            stroke-linecap: butt;
            stroke-linejoin: miter;
            font-weight: 800;
        }
    </style>

    <path d="M 249 467 Q 312 563 367 674 L 377 695 Q 404 753 405 754 Q 402 764 388 774 Q 349 802 321 790 Q 312 787 316 775 Q 346 697 226 508 Q 216 493 206 479 Q 167 424 68 316 Q 61 309 71 308 Q 141 329 241 456 L 249 467 Z" class="stroke1"/>
    <path d="M 367 674 Q 373 668 387 658 Q 426 633 467 601 Q 477 591 490 593 Q 497 594 501 604 Q 504 616 496 638 Q 489 660 454 675 Q 420 687 381 695 Q 378 696 377 695 C 347 696 345 694 367 674 Z" class="stroke2"/>
    <path d="M 335 451 Q 341 454 419 481 Q 437 488 439 490 Q 446 499 441 506 Q 432 516 405 518 Q 384 519 314 487 Q 257 472 249 467 C 235 461 235 461 241 456 Q 254 443 296 442 L 335 451 Z" class="stroke3"/>
    <path d="M 360 334 Q 454 364 457 366 Q 464 373 460 381 Q 453 391 425 396 Q 409 399 362 383 L 310 363 Q 240 344 194 335 Q 161 326 186 313 Q 225 295 291 315 Q 300 318 311 320 L 360 334 Z" class="stroke4"/>
    <path d="M 353 156 Q 357 255 360 334 L 362 383 Q 366 422 361 429 Q 348 442 335 451 C 311 469 284 469 296 442 Q 309 418 310 363 L 311 320 Q 311 259 311 143 C 311 113 352 126 353 156 Z" class="stroke5"/>
    <path d="M 211 224 Q 241 173 253 169 Q 262 168 269 177 Q 276 189 276 215 Q 273 237 218 265 Q 206 272 200 271 Q 196 268 194 257 Q 194 247 211 224 Z" class="stroke6"/>
    <path d="M 402 272 Q 393 245 373 202 Q 370 195 375 191 Q 381 191 386 196 Q 435 248 459 270 Q 472 277 467 284 Q 443 317 408 313 Q 398 309 401 295 Q 405 286 402 272 Z" class="stroke7"/>
    <path d="M 311 143 Q 247 127 177 107 Q 156 101 123 102 Q 110 101 108 91 Q 105 78 115 70 Q 137 54 169 34 Q 179 31 192 39 Q 235 69 425 146 Q 453 156 473 171 Q 486 178 486 188 Q 482 194 469 191 Q 414 175 353 156 L 311 143 Z" class="stroke8"/>
    <path d="M 691 468 Q 787 487 937 488 Q 956 489 961 498 Q 965 510 949 522 Q 895 559 835 540 Q 778 528 697 510 L 640 499 Q 561 486 471 470 Q 452 467 467 451 Q 480 438 498 434 Q 519 430 534 435 Q 582 450 636 459 L 691 468 Z" class="stroke9"/>
    <path d="M 663 288 Q 676 381 691 468 L 697 510 Q 713 642 741 709 Q 747 724 726 743 Q 689 768 662 775 Q 643 781 634 772 Q 624 765 632 746 Q 656 703 653 676 Q 649 591 640 499 L 636 459 Q 626 372 613 277 C 609 247 659 258 663 288 Z" class="stroke10"/>
    <path d="M 550 267 Q 538 274 505 281 Q 492 285 489 280 Q 482 274 490 258 Q 518 191 533 83 Q 534 50 552 28 Q 568 6 575 21 Q 579 34 580 56 L 576 95 Q 561 200 558 235 C 555 265 555 265 550 267 Z" class="stroke11"/>
    <path d="M 806 125 Q 836 209 871 237 Q 890 256 875 276 Q 797 342 732 309 Q 696 297 663 288 L 613 277 Q 582 273 550 267 C 520 262 529 226 558 235 Q 562 236 571 239 Q 658 255 740 271 Q 762 275 770 267 Q 780 257 776 234 Q 763 174 746 126 C 736 98 796 97 806 125 Z" class="stroke12"/>
    <path d="M 580 56 Q 586 56 593 57 Q 666 72 825 82 Q 838 83 839 93 Q 840 102 806 125 C 790 136 775 132 746 126 Q 652 105 576 95 C 546 91 550 54 580 56 Z" class="stroke13"/>
    
    
    
    
    
    
    
    
    
    
    
    
    </g>
</svg>