<svg version="1.1" viewBox="0 0 1024 1024" xmlns="http://www.w3.org/2000/svg">
  
  <g transform="scale(1, -1) translate(0, -900)">
    <style type="text/css">
        .stroke1 {fill: #808080;}
        .stroke2 {fill: #808079;}
        .stroke3 {fill: #808078;}
        .stroke4 {fill: #808077;}
        .stroke5 {fill: #808076;}
        .stroke6 {fill: #808075;}
        .stroke7 {fill: #808074;}
        .stroke8 {fill: #808073;}
        .stroke9 {fill: #808072;}
        .stroke10 {fill: #808071;}
        .stroke11 {fill: #808070;}
        .stroke12 {fill: #808069;}
        .stroke13 {fill: #808068;}
        .stroke14 {fill: #808067;}
        .stroke15 {fill: #808066;}
        .stroke16 {fill: #808065;}
        .stroke17 {fill: #808064;}
        .stroke18 {fill: #808063;}
        .stroke19 {fill: #808062;}
        .stroke20 {fill: #808061;}
        text {
            font-family: Helvetica;
            font-size: 50px;
            fill: #808060;
            paint-order: stroke;
            stroke: #000000;
            stroke-width: 4px;
            stroke-linecap: butt;
            stroke-linejoin: miter;
            font-weight: 800;
        }
    </style>

    <path d="M 209 485 Q 264 558 326 665 L 326 667 L 338 687 Q 357 723 376 741 Q 385 751 380 765 Q 376 778 346 799 Q 319 817 300 816 Q 282 813 291 792 Q 307 759 294 731 Q 236 575 74 367 Q 64 357 62 350 Q 59 340 73 342 Q 103 346 196 467 L 209 485 Z" class="stroke1"/>
    <path d="M 326 667 Q 333 661 348 651 Q 378 630 411 604 Q 421 595 434 597 Q 443 598 445 608 Q 448 620 439 642 Q 429 670 341 687 Q 340 688 338 687 C 308 689 303 686 326 667 Z" class="stroke2"/>
    <path d="M 307 467 Q 409 495 413 500 Q 420 507 415 514 Q 408 524 383 528 Q 358 531 332 519 Q 307 509 278 499 Q 247 490 209 485 C 179 481 168 478 196 467 Q 232 452 268 457 L 307 467 Z" class="stroke3"/>
    <path d="M 332 336 Q 356 345 382 351 Q 413 361 417 365 Q 424 372 419 379 Q 412 388 389 392 Q 365 395 333 379 L 283 360 Q 276 359 270 356 Q 230 343 180 335 Q 152 328 173 316 Q 201 301 283 322 L 332 336 Z" class="stroke4"/>
    <path d="M 325 152 Q 328 252 332 336 L 333 379 Q 333 397 336 419 Q 343 443 307 467 C 283 485 257 485 268 457 Q 278 439 283 360 L 283 322 Q 283 258 283 139 C 283 109 324 122 325 152 Z" class="stroke5"/>
    <path d="M 168 221 Q 184 205 200 185 Q 210 175 224 174 Q 233 174 237 185 Q 241 197 236 221 Q 232 234 211 246 Q 189 253 166 261 Q 153 265 148 263 Q 144 259 144 249 Q 147 239 168 221 Z" class="stroke6"/>
    <path d="M 404 285 Q 394 263 371 229 Q 367 225 371 219 Q 377 219 382 222 Q 431 259 457 274 Q 470 278 466 286 Q 462 296 446 309 Q 431 321 416 322 Q 406 321 407 307 Q 408 297 404 285 Z" class="stroke7"/>
    <path d="M 283 139 Q 222 123 157 104 Q 138 97 106 98 Q 93 97 91 87 Q 90 74 98 66 Q 120 50 154 31 Q 164 28 176 36 Q 215 66 393 142 Q 418 154 437 167 Q 450 174 450 184 Q 444 190 432 187 Q 380 171 325 152 L 283 139 Z" class="stroke8"/>
    <path d="M 680 505 Q 816 550 821 554 Q 828 561 824 570 Q 817 580 789 584 Q 765 587 671 546 L 628 530 Q 583 520 534 507 C 505 499 515 476 545 477 Q 572 477 636 491 L 680 505 Z" class="stroke9"/>
    <path d="M 534 507 Q 521 517 485 526 Q 469 529 464 523 Q 457 517 468 500 Q 498 458 499 339 Q 499 234 483 183 Q 479 149 447 108 Q 437 95 444 75 Q 454 50 469 38 Q 481 29 493 44 Q 527 98 634 214 Q 647 224 648 234 Q 649 240 644 239 Q 635 238 549 171 Q 542 167 539 169 Q 533 172 534 187 Q 540 443 545 477 C 547 500 547 500 534 507 Z" class="stroke10"/>
    <path d="M 740 191 Q 812 38 916 -20 Q 922 -21 928 -23 Q 941 -24 950 -12 Q 957 -3 950 41 Q 943 98 952 184 Q 956 212 947 215 Q 940 216 929 191 Q 898 88 878 100 Q 827 127 774 234 L 753 276 Q 714 357 680 505 L 671 546 Q 641 684 644 751 Q 656 787 631 804 Q 625 808 619 811 Q 597 824 584 826 Q 571 825 570 824 Q 548 817 567 795 Q 579 791 610 625 Q 617 579 628 530 L 636 491 Q 684 308 723 227 L 740 191 Z" class="stroke11"/>
    <path d="M 723 227 Q 695 187 624 106 Q 617 102 627 100 Q 664 109 740 191 L 774 234 Q 828 324 862 394 Q 877 424 877 426 Q 874 435 862 444 Q 832 466 804 457 Q 797 454 800 444 Q 815 393 753 276 L 723 227 Z" class="stroke12"/>
    <path d="M 763 705 Q 788 681 816 653 Q 828 640 842 641 Q 852 641 857 653 Q 861 666 855 693 Q 851 712 821 728 Q 757 755 740 751 Q 736 747 736 736 Q 739 726 763 705 Z" class="stroke13"/>
    
    
    
    
    
    
    
    
    
    
    
    
    </g>
</svg>