<svg version="1.1" viewBox="0 0 1024 1024" xmlns="http://www.w3.org/2000/svg">
  
  <g transform="scale(1, -1) translate(0, -900)">
    <style type="text/css">
        .stroke1 {fill: #808080;}
        .stroke2 {fill: #808079;}
        .stroke3 {fill: #808078;}
        .stroke4 {fill: #808077;}
        .stroke5 {fill: #808076;}
        .stroke6 {fill: #808075;}
        .stroke7 {fill: #808074;}
        .stroke8 {fill: #808073;}
        .stroke9 {fill: #808072;}
        .stroke10 {fill: #808071;}
        .stroke11 {fill: #808070;}
        .stroke12 {fill: #808069;}
        .stroke13 {fill: #808068;}
        .stroke14 {fill: #808067;}
        .stroke15 {fill: #808066;}
        .stroke16 {fill: #808065;}
        .stroke17 {fill: #808064;}
        .stroke18 {fill: #808063;}
        .stroke19 {fill: #808062;}
        .stroke20 {fill: #808061;}
        text {
            font-family: Helvetica;
            font-size: 50px;
            fill: #808060;
            paint-order: stroke;
            stroke: #000000;
            stroke-width: 4px;
            stroke-linecap: butt;
            stroke-linejoin: miter;
            font-weight: 800;
        }
    </style>

    <path d="M 325 697 Q 338 716 351 729 Q 360 739 355 753 Q 351 766 322 787 Q 295 805 276 804 Q 258 803 267 780 Q 280 749 270 723 Q 236 632 181 549 Q 129 468 58 379 Q 48 369 46 362 Q 43 352 57 354 Q 109 361 272 604 Q 287 635 313 676 L 325 697 Z" class="stroke1"/>
    <path d="M 313 676 Q 317 670 330 662 Q 361 638 395 610 Q 405 600 418 601 Q 425 602 429 612 Q 433 624 425 647 Q 419 666 389 680 Q 358 690 325 697 C 296 703 294 699 313 676 Z" class="stroke2"/>
    <path d="M 298 458 Q 340 471 385 484 Q 407 491 410 494 Q 417 503 412 510 Q 405 520 377 524 Q 349 527 323 513 Q 299 503 273 494 Q 243 485 209 479 Q 176 470 201 457 Q 219 448 263 448 L 298 458 Z" class="stroke3"/>
    <path d="M 327 332 Q 354 342 383 349 Q 413 359 417 364 Q 424 371 420 378 Q 413 388 387 392 Q 362 395 329 379 L 278 358 Q 272 358 266 355 Q 226 342 177 333 Q 146 326 169 312 Q 212 296 254 311 Q 264 315 278 318 L 327 332 Z" class="stroke4"/>
    <path d="M 321 176 Q 324 261 327 332 L 329 379 Q 329 382 330 383 Q 333 428 329 433 Q 313 449 298 458 C 273 474 253 476 263 448 Q 273 426 278 358 L 278 318 Q 278 261 279 162 C 279 132 320 146 321 176 Z" class="stroke5"/>
    <path d="M 159 227 Q 175 206 193 182 Q 202 169 215 168 Q 222 167 229 177 Q 235 187 232 213 Q 231 229 209 244 Q 152 274 144 271 Q 140 268 139 257 Q 140 248 159 227 Z" class="stroke6"/>
    <path d="M 379 290 Q 369 268 346 233 Q 343 229 347 224 Q 351 223 357 227 Q 406 266 429 281 Q 441 285 437 292 Q 433 302 418 313 Q 405 323 389 324 Q 379 323 381 310 Q 384 301 379 290 Z" class="stroke7"/>
    <path d="M 279 162 Q 227 146 172 128 Q 156 122 128 123 Q 115 122 114 111 Q 113 98 122 90 Q 144 74 178 57 Q 188 54 200 63 Q 222 82 377 164 Q 398 174 413 187 Q 426 194 426 204 Q 420 210 408 206 Q 366 193 321 176 L 279 162 Z" class="stroke8"/>
    <path d="M 759 583 Q 769 584 781 586 Q 842 596 902 590 Q 915 589 920 597 Q 924 607 912 619 Q 869 655 788 631 Q 781 630 773 627 L 722 618 Q 712 617 704 615 Q 679 611 697 598 Q 707 592 715 588 L 759 583 Z" class="stroke9"/>
    <path d="M 598 607 Q 595 650 594 683 Q 595 702 576 709 Q 537 730 515 722 Q 496 715 511 694 Q 542 652 552 604 Q 552 601 553 598 L 560 558 Q 569 503 584 488 Q 597 478 601 489 Q 604 501 600 573 L 598 607 Z" class="stroke10"/>
    <path d="M 773 627 Q 788 682 810 728 Q 823 744 812 754 Q 799 770 761 786 Q 743 795 726 784 Q 716 777 725 766 Q 743 727 722 618 L 715 588 Q 697 524 700 497 Q 704 484 717 493 Q 727 503 759 583 L 773 627 Z" class="stroke11"/>
    <path d="M 626 435 Q 686 383 699 383 Q 709 384 713 396 Q 717 409 708 437 Q 699 462 620 479 Q 605 482 600 479 Q 596 475 597 463 Q 601 453 626 435 Z" class="stroke12"/>
    <path d="M 567 288 Q 690 318 888 346 Q 900 345 909 359 Q 910 372 885 383 Q 846 407 765 379 Q 618 346 472 323 Q 441 319 465 300 Q 498 275 526 278 L 567 288 Z" class="stroke13"/>
    <path d="M 526 278 Q 551 200 521 96 Q 497 50 499 41 Q 499 20 519 2 Q 529 -5 545 6 Q 630 72 886 84 Q 911 84 912 96 Q 911 112 880 131 Q 865 144 763 120 Q 646 102 593 88 Q 572 81 578 110 Q 581 162 585 227 Q 586 243 588 252 Q 592 262 583 276 Q 577 282 567 288 C 543 306 518 307 526 278 Z" class="stroke14"/>
    <path d="M 600 573 Q 615 580 633 586 Q 648 589 664 599 Q 670 605 668 611 Q 665 617 653 619 Q 628 615 598 607 L 553 598 Q 454 583 430 580 Q 420 580 418 575 Q 417 568 423 559 Q 438 546 465 536 Q 484 529 499 535 Q 529 547 560 558 L 600 573 Z" class="stroke15"/>
    
    
    
    
    
    
    
    
    
    
    
    
    
    
    </g>
</svg>