<svg version="1.1" viewBox="0 0 1024 1024" xmlns="http://www.w3.org/2000/svg">
  
  <g transform="scale(1, -1) translate(0, -900)">
    <style type="text/css">
        .stroke1 {fill: #808080;}
        .stroke2 {fill: #808079;}
        .stroke3 {fill: #808078;}
        .stroke4 {fill: #808077;}
        .stroke5 {fill: #808076;}
        .stroke6 {fill: #808075;}
        .stroke7 {fill: #808074;}
        .stroke8 {fill: #808073;}
        .stroke9 {fill: #808072;}
        .stroke10 {fill: #808071;}
        .stroke11 {fill: #808070;}
        .stroke12 {fill: #808069;}
        .stroke13 {fill: #808068;}
        .stroke14 {fill: #808067;}
        .stroke15 {fill: #808066;}
        .stroke16 {fill: #808065;}
        .stroke17 {fill: #808064;}
        .stroke18 {fill: #808063;}
        .stroke19 {fill: #808062;}
        .stroke20 {fill: #808061;}
        text {
            font-family: Helvetica;
            font-size: 50px;
            fill: #808060;
            paint-order: stroke;
            stroke: #000000;
            stroke-width: 4px;
            stroke-linecap: butt;
            stroke-linejoin: miter;
            font-weight: 800;
        }
    </style>

    <path d="M 334 741 Q 344 759 357 768 Q 367 778 362 792 Q 358 805 330 828 Q 303 846 285 846 Q 266 845 274 822 Q 287 792 276 766 Q 240 681 186 600 Q 134 524 63 438 Q 53 428 50 422 Q 47 412 61 414 Q 119 423 285 662 Q 288 669 325 727 L 334 741 Z" class="stroke1"/>
    <path d="M 325 727 Q 329 718 352 703 Q 383 684 415 659 Q 427 650 438 652 Q 447 653 449 664 Q 452 676 442 698 Q 430 728 344 740 Q 338 741 334 741 C 316 742 316 742 325 727 Z" class="stroke2"/>
    <path d="M 306 503 Q 390 531 394 536 Q 401 543 396 550 Q 389 560 363 562 Q 341 563 267 531 Q 237 521 203 513 Q 172 504 197 492 Q 228 483 270 490 L 306 503 Z" class="stroke3"/>
    <path d="M 324 388 Q 349 398 380 406 Q 408 415 413 420 Q 420 427 416 434 Q 409 444 383 448 Q 341 451 327 436 L 280 416 Q 229 400 176 389 Q 145 380 169 368 Q 209 353 254 367 Q 266 371 280 374 L 324 388 Z" class="stroke4"/>
    <path d="M 317 217 Q 320 311 324 388 L 327 436 Q 330 479 327 484 Q 317 496 306 503 C 282 521 263 519 270 490 Q 279 457 280 416 L 280 374 Q 279 316 278 204 C 278 174 316 187 317 217 Z" class="stroke5"/>
    <path d="M 160 294 Q 191 234 214 228 Q 226 225 235 241 Q 238 253 232 272 Q 222 297 168 318 Q 159 321 157 310 Q 154 303 160 294 Z" class="stroke6"/>
    <path d="M 379 334 Q 370 313 350 280 Q 347 276 351 272 Q 355 271 360 275 Q 403 312 426 327 Q 436 331 433 338 Q 429 347 414 357 Q 401 367 387 366 Q 378 365 380 353 Q 383 344 379 334 Z" class="stroke7"/>
    <path d="M 278 204 Q 217 188 155 167 Q 134 160 101 161 Q 88 160 86 148 Q 85 135 94 126 Q 118 110 152 91 Q 162 88 175 97 Q 208 124 399 212 Q 426 224 445 239 Q 458 246 458 256 Q 452 262 440 259 Q 382 240 317 217 L 278 204 Z" class="stroke8"/>
    <path d="M 694 816 Q 640 777 509 727 Q 505 720 509 716 Q 543 709 697 760 Q 718 775 786 783 Q 802 782 806 789 Q 810 799 800 810 Q 751 852 716 852 Q 709 848 708 838 Q 707 825 694 816 Z" class="stroke9"/>
    <path d="M 500 621 Q 518 599 535 571 Q 542 559 555 557 Q 564 556 569 565 Q 576 575 574 599 Q 571 624 505 658 Q 493 662 488 662 Q 484 661 483 650 Q 484 641 500 621 Z" class="stroke10"/>
    <path d="M 606 668 Q 630 626 650 613 Q 660 609 668 617 Q 675 626 675 638 Q 674 656 662 667 Q 631 698 606 698 Q 603 699 602 698 Q 598 698 597 688 Q 597 681 606 668 Z" class="stroke11"/>
    <path d="M 705 544 Q 742 581 764 605 Q 812 666 835 681 Q 851 694 839 708 Q 824 721 798 728 Q 774 735 764 731 Q 754 727 759 716 Q 771 691 728 619 Q 683 538 682 537 C 667 511 684 523 705 544 Z" class="stroke12"/>
    <path d="M 812 318 Q 822 370 832 403 L 849 451 Q 849 452 850 452 Q 863 483 882 500 Q 898 519 883 536 Q 867 549 814 572 Q 796 579 775 570 Q 739 555 705 544 L 682 537 Q 528 507 500 503 Q 484 502 486 493 Q 489 486 506 479 Q 530 469 563 480 Q 579 484 597 487 L 632 494 Q 690 509 752 521 Q 777 528 786 518 Q 799 505 797 478 Q 793 459 790 438 L 783 400 Q 774 360 764 324 C 756 295 806 289 812 318 Z" class="stroke13"/>
    <path d="M 832 403 Q 866 407 908 407 Q 929 407 947 408 Q 963 408 967 416 Q 971 426 958 436 Q 909 470 856 453 Q 852 453 849 451 L 790 438 Q 709 426 679 417 L 628 409 Q 546 397 458 383 Q 440 380 454 367 Q 481 343 519 355 Q 571 373 633 380 L 683 388 Q 726 397 783 400 L 832 403 Z" class="stroke14"/>
    <path d="M 643 297 Q 574 284 514 275 Q 495 274 507 256 Q 514 247 524 244 Q 534 241 547 244 Q 584 254 645 263 L 694 270 Q 751 279 824 286 Q 834 287 836 296 Q 836 303 812 318 L 764 324 Q 761 325 759 324 Q 725 317 691 306 L 643 297 Z" class="stroke15"/>
    <path d="M 633 380 Q 637 341 643 297 L 645 263 Q 651 92 622 45 Q 621 39 614 37 Q 608 34 529 47 Q 520 48 518 45 Q 517 41 525 32 Q 580 -19 608 -57 Q 618 -70 624 -68 Q 636 -67 656 -47 Q 701 -5 702 86 Q 705 212 694 270 L 691 306 Q 687 369 683 388 L 679 417 Q 678 435 677 450 Q 677 469 665 477 Q 647 487 632 494 C 605 507 579 511 597 487 Q 621 463 628 409 L 633 380 Z" class="stroke16"/>
    
    
    
    
    
    
    
    
    
    
    
    
    
    
    
    </g>
</svg>