<svg version="1.1" viewBox="0 0 1024 1024" xmlns="http://www.w3.org/2000/svg">
  
  <g transform="scale(1, -1) translate(0, -900)">
    <style type="text/css">
        .stroke1 {fill: #808080;}
        .stroke2 {fill: #808079;}
        .stroke3 {fill: #808078;}
        .stroke4 {fill: #808077;}
        .stroke5 {fill: #808076;}
        .stroke6 {fill: #808075;}
        .stroke7 {fill: #808074;}
        .stroke8 {fill: #808073;}
        .stroke9 {fill: #808072;}
        .stroke10 {fill: #808071;}
        .stroke11 {fill: #808070;}
        .stroke12 {fill: #808069;}
        .stroke13 {fill: #808068;}
        .stroke14 {fill: #808067;}
        .stroke15 {fill: #808066;}
        .stroke16 {fill: #808065;}
        .stroke17 {fill: #808064;}
        .stroke18 {fill: #808063;}
        .stroke19 {fill: #808062;}
        .stroke20 {fill: #808061;}
        text {
            font-family: Helvetica;
            font-size: 50px;
            fill: #808060;
            paint-order: stroke;
            stroke: #000000;
            stroke-width: 4px;
            stroke-linecap: butt;
            stroke-linejoin: miter;
            font-weight: 800;
        }
    </style>

    <path d="M 229 481 Q 284 562 335 670 L 346 693 Q 362 729 369 735 Q 376 741 373 751 Q 370 760 356 770 Q 322 795 289 786 Q 280 782 284 770 Q 314 695 193 504 Q 129 420 56 336 Q 49 329 59 328 Q 117 346 209 455 L 229 481 Z" class="stroke1"/>
    <path d="M 335 670 Q 431 598 437 598 L 438 598 Q 445 599 450 608 Q 453 620 445 641 Q 439 660 409 675 Q 379 685 346 693 C 317 700 311 688 335 670 Z" class="stroke2"/>
    <path d="M 317 468 Q 419 505 422 508 Q 429 515 424 522 Q 417 532 391 534 Q 364 535 340 522 Q 313 509 284 498 Q 257 489 229 481 C 200 473 180 464 209 455 Q 242 443 283 456 L 317 468 Z" class="stroke3"/>
    <path d="M 343 356 Q 413 381 418 385 Q 424 392 420 399 Q 413 408 389 411 Q 367 412 345 402 L 296 379 Q 286 376 279 373 Q 242 360 199 351 Q 171 342 193 332 Q 230 317 272 333 Q 282 337 297 341 L 343 356 Z" class="stroke4"/>
    <path d="M 337 165 Q 340 271 343 356 L 345 402 Q 348 441 344 447 Q 331 460 317 468 C 292 484 272 484 283 456 Q 295 431 296 379 L 297 341 Q 297 278 297 153 C 297 123 336 135 337 165 Z" class="stroke5"/>
    <path d="M 172 231 Q 191 212 210 190 Q 220 178 235 178 Q 244 177 249 189 Q 253 201 248 227 Q 242 252 171 273 Q 158 277 152 275 Q 148 271 148 260 Q 151 250 172 231 Z" class="stroke6"/>
    <path d="M 396 309 Q 384 287 359 250 Q 355 244 359 239 Q 365 238 371 242 Q 426 281 453 296 Q 466 300 462 308 Q 458 320 442 333 Q 427 346 410 347 Q 400 346 400 332 Q 403 322 396 309 Z" class="stroke7"/>
    <path d="M 297 153 Q 230 134 159 113 Q 140 107 110 108 Q 97 107 96 97 Q 93 84 102 77 Q 124 61 155 44 Q 165 41 177 49 Q 210 74 386 152 Q 411 162 429 176 Q 441 183 442 192 Q 433 198 337 165 L 297 153 Z" class="stroke8"/>
    <path d="M 520 724 Q 554 669 579 656 Q 591 652 600 661 Q 607 671 606 685 Q 605 704 592 718 Q 577 733 535 754 Q 522 761 514 758 Q 508 758 509 748 Q 509 738 520 724 Z" class="stroke9"/>
    <path d="M 725 779 Q 713 755 653 661 Q 646 645 661 650 Q 706 684 730 708 Q 778 757 803 772 Q 821 782 810 798 Q 795 811 771 822 Q 749 832 737 828 Q 725 825 731 813 Q 735 797 725 779 Z" class="stroke10"/>
    <path d="M 649 580 Q 703 593 761 604 Q 801 614 807 620 Q 814 627 811 634 Q 804 644 779 650 Q 754 654 728 645 Q 682 629 632 616 Q 577 603 511 596 Q 480 590 503 576 Q 539 558 596 570 Q 602 571 610 572 L 649 580 Z" class="stroke11"/>
    <path d="M 665 478 Q 716 491 760 498 Q 781 502 773 513 Q 763 526 741 529 Q 711 533 667 516 L 618 502 Q 567 489 522 475 Q 507 472 526 459 Q 536 453 619 469 L 665 478 Z" class="stroke12"/>
    <path d="M 660 408 Q 661 445 665 478 L 667 516 Q 667 531 669 540 Q 675 561 649 580 C 625 599 602 601 610 572 Q 614 562 618 502 L 619 469 Q 619 441 621 401 C 622 371 659 378 660 408 Z" class="stroke13"/>
    <path d="M 621 401 Q 551 388 472 373 Q 457 372 469 359 Q 479 349 494 346 Q 510 342 522 346 Q 652 391 836 391 L 838 391 Q 853 392 856 399 Q 860 408 846 417 Q 801 447 745 428 Q 708 421 660 408 L 621 401 Z" class="stroke14"/>
    <path d="M 647 242 Q 725 255 848 259 Q 897 259 904 268 Q 908 278 894 288 Q 846 321 793 304 Q 736 292 654 275 L 593 264 Q 517 254 433 239 Q 417 236 430 223 Q 457 199 487 208 Q 535 224 589 233 L 647 242 Z" class="stroke15"/>
    <path d="M 645 237 Q 646 240 647 242 L 654 275 Q 658 294 664 301 Q 671 308 665 318 Q 659 325 631 336 Q 600 352 585 346 Q 575 340 583 325 Q 592 301 593 264 L 589 233 Q 565 122 470 63 Q 434 44 369 17 Q 345 7 373 4 Q 457 0 550 65 Q 559 74 569 83 Q 611 126 638 208 L 645 237 Z" class="stroke16"/>
    <path d="M 638 208 Q 707 114 795 14 Q 813 -2 840 0 Q 933 7 962 14 Q 971 17 972 21 Q 972 25 960 32 Q 831 80 767 130 Q 709 176 645 237 C 623 258 620 232 638 208 Z" class="stroke17"/>
    
    
    
    
    
    
    
    
    
    
    
    
    
    
    
    
    </g>
</svg>