<svg version="1.1" viewBox="0 0 1024 1024" xmlns="http://www.w3.org/2000/svg">
  
  <g transform="scale(1, -1) translate(0, -900)">
    <style type="text/css">
        .stroke1 {fill: #808080;}
        .stroke2 {fill: #808079;}
        .stroke3 {fill: #808078;}
        .stroke4 {fill: #808077;}
        .stroke5 {fill: #808076;}
        .stroke6 {fill: #808075;}
        .stroke7 {fill: #808074;}
        .stroke8 {fill: #808073;}
        .stroke9 {fill: #808072;}
        .stroke10 {fill: #808071;}
        .stroke11 {fill: #808070;}
        .stroke12 {fill: #808069;}
        .stroke13 {fill: #808068;}
        .stroke14 {fill: #808067;}
        .stroke15 {fill: #808066;}
        .stroke16 {fill: #808065;}
        .stroke17 {fill: #808064;}
        .stroke18 {fill: #808063;}
        .stroke19 {fill: #808062;}
        .stroke20 {fill: #808061;}
        text {
            font-family: Helvetica;
            font-size: 50px;
            fill: #808060;
            paint-order: stroke;
            stroke: #000000;
            stroke-width: 4px;
            stroke-linecap: butt;
            stroke-linejoin: miter;
            font-weight: 800;
        }
    </style>

    <path d="M 349 713 Q 358 726 367 734 Q 376 744 371 758 Q 367 770 338 791 Q 313 809 294 808 Q 276 805 284 785 Q 299 754 288 728 Q 227 575 82 394 Q 72 384 70 378 Q 67 368 81 370 Q 135 377 282 602 Q 321 666 336 694 L 349 713 Z" class="stroke1"/>
    <path d="M 336 694 Q 340 690 350 684 Q 440 615 448 615 Q 455 616 458 624 Q 461 634 454 653 Q 448 675 416 691 Q 383 704 349 713 C 320 721 313 714 336 694 Z" class="stroke2"/>
    <path d="M 315 478 Q 414 509 417 512 Q 424 519 420 526 Q 413 536 387 540 Q 363 541 290 512 Q 260 503 224 497 Q 193 490 217 476 Q 244 466 277 468 L 315 478 Z" class="stroke3"/>
    <path d="M 335 360 Q 363 370 393 377 Q 421 384 424 389 Q 431 396 427 403 Q 420 412 397 416 Q 372 420 336 403 C 309 391 304 389 290 386 Q 287 387 284 385 Q 245 373 201 367 Q 173 360 194 348 Q 222 333 284 348 Q 287 349 291 349 L 335 360 Z" class="stroke4"/>
    <path d="M 332 192 Q 333 285 335 360 L 336 403 Q 336 419 338 436 Q 344 457 315 478 C 292 497 261 494 277 468 Q 280 462 284 457 Q 285 451 290 386 L 291 349 Q 291 289 293 179 C 294 149 332 162 332 192 Z" class="stroke5"/>
    <path d="M 175 253 Q 190 237 205 216 Q 214 206 225 204 Q 232 204 238 213 Q 242 223 239 245 Q 235 267 176 288 Q 166 292 160 290 Q 156 289 156 278 Q 157 271 175 253 Z" class="stroke6"/>
    <path d="M 406 309 Q 396 290 375 261 Q 371 257 375 252 Q 379 251 385 254 Q 431 285 455 296 Q 467 300 464 307 Q 460 317 446 329 Q 433 341 418 342 Q 408 341 409 329 Q 410 319 406 309 Z" class="stroke7"/>
    <path d="M 293 179 Q 232 163 167 142 Q 148 136 117 136 Q 105 135 103 125 Q 102 112 110 105 Q 132 90 164 72 Q 174 69 185 78 Q 218 103 394 183 Q 419 193 437 208 Q 450 215 450 224 Q 443 230 332 192 L 293 179 Z" class="stroke8"/>
    <path d="M 673 569 Q 686 716 702 786 Q 706 796 688 810 Q 657 828 634 832 Q 619 835 612 827 Q 605 820 612 807 Q 628 785 628 770 Q 635 673 633 560 C 633 530 670 539 673 569 Z" class="stroke9"/>
    <path d="M 506 673 Q 534 631 559 618 Q 572 615 580 625 Q 586 635 585 649 Q 578 680 519 704 Q 506 708 497 707 Q 493 706 493 696 Q 494 686 506 673 Z" class="stroke10"/>
    <path d="M 789 744 Q 782 729 725 649 Q 718 633 732 637 Q 771 662 828 708 Q 844 723 864 733 Q 882 743 872 757 Q 859 772 836 783 Q 814 793 804 790 Q 792 789 797 777 Q 801 761 789 744 Z" class="stroke11"/>
    <path d="M 553 547 Q 544 556 521 565 Q 512 569 503 565 Q 497 561 502 551 Q 503 544 507 536 Q 531 494 519 310 Q 506 229 520 205 Q 524 196 532 188 Q 541 178 549 188 Q 555 197 558 207 L 560 233 Q 561 249 561 275 Q 560 300 560 322 L 560 344 Q 560 383 560 412 L 560 432 Q 560 475 561 519 C 561 541 561 541 553 547 Z" class="stroke12"/>
    <path d="M 760 224 Q 763 217 768 209 Q 781 181 790 182 Q 803 183 819 215 Q 832 240 831 260 Q 804 470 840 529 Q 850 544 843 553 Q 816 575 772 594 Q 757 600 736 591 Q 706 578 673 569 L 633 560 Q 590 553 553 547 C 523 542 531 516 561 519 Q 567 518 576 520 Q 661 542 723 553 Q 745 557 752 546 Q 767 528 767 465 Q 770 290 761 253 L 760 224 Z" class="stroke13"/>
    <path d="M 560 412 L 709 432 Q 728 435 721 446 Q 712 458 691 462 Q 666 463 560 432 C 531 424 530 408 560 412 Z" class="stroke14"/>
    <path d="M 560 322 Q 566 321 578 322 Q 660 332 719 339 Q 740 342 733 353 Q 723 366 701 371 Q 679 375 560 344 C 531 336 530 324 560 322 Z" class="stroke15"/>
    <path d="M 558 207 Q 562 207 571 207 Q 679 219 760 224 C 790 226 790 244 761 253 Q 757 254 752 256 Q 731 260 560 233 C 530 228 528 207 558 207 Z" class="stroke16"/>
    <path d="M 561 153 Q 540 84 381 -33 Q 360 -46 386 -44 Q 473 -35 626 118 Q 636 128 635 137 Q 632 150 609 158 Q 584 168 571 167 Q 564 166 561 153 Z" class="stroke17"/>
    <path d="M 726 132 Q 769 83 820 11 Q 833 -11 848 -16 Q 857 -19 865 -10 Q 878 2 871 46 Q 868 85 799 126 Q 754 151 730 162 Q 723 169 719 157 Q 716 144 726 132 Z" class="stroke18"/>
    
    
    
    
    
    
    
    
    
    
    
    
    
    
    
    
    
    </g>
</svg>