<svg version="1.1" viewBox="0 0 1024 1024" xmlns="http://www.w3.org/2000/svg">
  
  <g transform="scale(1, -1) translate(0, -900)">
    <style type="text/css">
        .stroke1 {fill: #808080;}
        .stroke2 {fill: #808079;}
        .stroke3 {fill: #808078;}
        .stroke4 {fill: #808077;}
        .stroke5 {fill: #808076;}
        .stroke6 {fill: #808075;}
        .stroke7 {fill: #808074;}
        .stroke8 {fill: #808073;}
        .stroke9 {fill: #808072;}
        .stroke10 {fill: #808071;}
        .stroke11 {fill: #808070;}
        .stroke12 {fill: #808069;}
        .stroke13 {fill: #808068;}
        .stroke14 {fill: #808067;}
        .stroke15 {fill: #808066;}
        .stroke16 {fill: #808065;}
        .stroke17 {fill: #808064;}
        .stroke18 {fill: #808063;}
        .stroke19 {fill: #808062;}
        .stroke20 {fill: #808061;}
        text {
            font-family: Helvetica;
            font-size: 50px;
            fill: #808060;
            paint-order: stroke;
            stroke: #000000;
            stroke-width: 4px;
            stroke-linecap: butt;
            stroke-linejoin: miter;
            font-weight: 800;
        }
    </style>

    <path d="M 204 490 Q 204 491 205 491 Q 262 561 330 681 L 341 698 Q 348 711 359 719 Q 368 729 363 742 Q 359 754 330 775 Q 305 793 286 792 Q 268 789 276 769 Q 291 739 280 714 Q 226 573 82 390 Q 72 380 70 374 Q 67 364 81 366 Q 109 370 194 477 L 204 490 Z" class="stroke1"/>
    <path d="M 330 681 Q 334 675 347 666 Q 378 642 411 614 Q 421 607 431 607 Q 438 607 442 617 Q 445 627 438 647 Q 429 677 343 698 L 341 698 C 313 702 313 702 330 681 Z" class="stroke2"/>
    <path d="M 304 478 Q 394 506 397 509 Q 404 516 399 523 Q 392 532 369 535 Q 345 538 274 507 Q 244 498 208 491 Q 207 491 204 490 C 184 485 184 485 194 477 Q 212 459 265 466 L 304 478 Z" class="stroke3"/>
    <path d="M 327 373 Q 403 400 405 401 Q 412 408 407 415 Q 400 424 377 427 Q 352 430 329 417 L 276 395 Q 269 394 265 392 Q 228 379 184 371 Q 156 364 177 352 Q 210 340 276 357 L 327 373 Z" class="stroke4"/>
    <path d="M 318 200 Q 322 296 327 373 L 329 417 Q 335 450 329 457 Q 316 470 304 478 C 280 496 254 494 265 466 Q 274 451 276 395 L 276 357 Q 276 299 276 188 C 276 158 317 170 318 200 Z" class="stroke5"/>
    <path d="M 149 262 Q 171 241 193 217 Q 202 207 213 207 Q 220 207 225 217 Q 229 227 224 249 Q 221 265 198 278 Q 144 302 132 298 Q 128 297 129 286 Q 130 279 149 262 Z" class="stroke6"/>
    <path d="M 381 319 Q 371 301 348 273 Q 344 269 347 264 Q 351 263 357 265 Q 406 293 429 304 Q 441 307 439 314 Q 435 324 422 337 Q 410 350 395 352 Q 385 352 385 339 Q 386 329 381 319 Z" class="stroke7"/>
    <path d="M 276 188 Q 212 169 141 149 Q 123 143 94 144 Q 81 143 80 133 Q 77 120 86 113 Q 108 97 139 80 Q 149 77 161 85 Q 197 113 360 184 Q 384 194 401 208 Q 413 215 414 224 Q 407 230 318 200 L 276 188 Z" class="stroke8"/>
    <path d="M 553 651 Q 583 679 657 759 Q 672 778 692 791 Q 710 804 696 819 Q 680 832 654 841 Q 629 848 618 844 Q 606 840 613 828 Q 620 810 581 729 Q 563 698 544 662 L 542 656 C 533 632 533 632 553 651 Z" class="stroke9"/>
    <path d="M 534 442 Q 537 502 537 512 L 538 536 Q 538 587 553 624 C 560 642 560 642 542 656 Q 529 668 511 675 Q 493 681 485 673 Q 479 669 487 657 Q 502 626 494 448 Q 494 385 478 321 Q 472 302 487 286 Q 506 270 525 282 C 530 284 531 320 532 350 Q 533 389 534 427 L 534 442 Z" class="stroke10"/>
    <path d="M 746 564 Q 776 615 804 627 Q 820 643 808 659 Q 795 672 751 696 Q 735 703 663 678 Q 614 663 553 651 C 524 645 506 617 553 624 Q 560 624 707 654 Q 722 658 728 652 Q 732 645 728 634 Q 715 598 699 571 C 684 545 730 538 746 564 Z" class="stroke11"/>
    <path d="M 537 512 Q 552 508 565 510 Q 625 523 754 538 Q 763 539 764 546 Q 764 552 746 564 L 699 571 L 697 571 Q 609 546 538 536 C 508 532 508 518 537 512 Z" class="stroke12"/>
    <path d="M 534 427 Q 564 409 622 420 Q 671 429 723 438 Q 751 442 755 447 Q 762 453 758 459 Q 754 468 731 474 Q 719 477 622 454 Q 585 447 543 444 Q 537 444 534 442 C 515 437 515 437 534 427 Z" class="stroke13"/>
    <path d="M 525 282 Q 547 297 595 307 Q 692 331 796 336 Q 827 340 841 327 Q 854 317 842 272 Q 826 122 800 83 Q 791 70 766 73 Q 735 80 706 86 Q 690 90 691 83 Q 691 77 700 70 Q 755 21 774 -13 Q 784 -32 801 -22 Q 859 11 871 73 Q 887 155 898 246 Q 905 283 923 315 Q 936 331 924 344 Q 906 363 868 385 Q 847 397 819 384 Q 776 366 735 362 Q 677 356 561 336 Q 536 329 532 350 C 510 370 498 268 525 282 Z" class="stroke14"/>
    <path d="M 453 214 Q 437 171 415 132 Q 397 102 417 71 Q 424 55 443 68 Q 483 104 481 163 Q 482 193 475 215 Q 471 222 464 223 Q 457 222 453 214 Z" class="stroke15"/>
    <path d="M 543 216 Q 553 141 569 130 Q 578 123 590 133 Q 597 142 600 160 Q 600 176 587 194 Q 568 224 558 233 Q 552 239 546 231 Q 542 227 543 216 Z" class="stroke16"/>
    <path d="M 633 233 Q 643 167 661 157 Q 670 151 681 161 Q 687 170 688 187 Q 685 217 646 250 Q 640 254 635 247 Q 631 243 633 233 Z" class="stroke17"/>
    <path d="M 729 240 Q 760 180 768 176 Q 775 175 782 181 Q 789 190 790 210 Q 791 225 775 242 Q 739 278 724 278 Q 720 277 718 268 Q 717 261 729 240 Z" class="stroke18"/>
    
    
    
    
    
    
    
    
    
    
    
    
    
    
    
    
    
    </g>
</svg>