<svg version="1.1" viewBox="0 0 1024 1024" xmlns="http://www.w3.org/2000/svg">
  
  <g transform="scale(1, -1) translate(0, -900)">
    <style type="text/css">
        .stroke1 {fill: #808080;}
        .stroke2 {fill: #808079;}
        .stroke3 {fill: #808078;}
        .stroke4 {fill: #808077;}
        .stroke5 {fill: #808076;}
        .stroke6 {fill: #808075;}
        .stroke7 {fill: #808074;}
        .stroke8 {fill: #808073;}
        .stroke9 {fill: #808072;}
        .stroke10 {fill: #808071;}
        .stroke11 {fill: #808070;}
        .stroke12 {fill: #808069;}
        .stroke13 {fill: #808068;}
        .stroke14 {fill: #808067;}
        .stroke15 {fill: #808066;}
        .stroke16 {fill: #808065;}
        .stroke17 {fill: #808064;}
        .stroke18 {fill: #808063;}
        .stroke19 {fill: #808062;}
        .stroke20 {fill: #808061;}
        text {
            font-family: Helvetica;
            font-size: 50px;
            fill: #808060;
            paint-order: stroke;
            stroke: #000000;
            stroke-width: 4px;
            stroke-linecap: butt;
            stroke-linejoin: miter;
            font-weight: 800;
        }
    </style>

    <path d="M 349 714 Q 362 735 377 748 Q 387 758 382 772 Q 378 785 350 808 Q 323 826 305 826 Q 286 825 294 803 Q 309 769 295 741 Q 255 647 194 559 Q 136 474 55 382 Q 45 372 43 366 Q 39 356 53 358 Q 108 365 280 604 Q 301 637 324 673 Q 328 683 335 693 L 349 714 Z" class="stroke1"/>
    <path d="M 335 693 Q 341 687 354 678 Q 385 654 419 626 Q 429 616 442 617 Q 449 618 453 628 Q 457 640 449 663 Q 443 682 413 696 Q 382 706 349 714 C 320 721 313 713 335 693 Z" class="stroke2"/>
    <path d="M 315 463 Q 346 473 380 482 Q 402 489 405 492 Q 412 499 407 506 Q 400 516 375 520 Q 357 523 276 492 Q 243 483 209 477 Q 178 470 202 456 Q 235 441 277 452 L 315 463 Z" class="stroke3"/>
    <path d="M 339 353 Q 409 375 412 377 Q 419 384 415 391 Q 408 400 385 404 Q 363 408 341 398 L 289 378 Q 279 377 272 373 Q 233 361 189 355 Q 161 348 182 336 Q 216 318 269 335 Q 278 338 289 339 L 339 353 Z" class="stroke4"/>
    <path d="M 330 164 Q 334 269 339 353 L 341 398 Q 345 435 341 441 Q 328 454 315 463 C 291 481 266 480 277 452 Q 289 428 289 378 L 289 339 Q 289 278 288 152 C 288 122 329 134 330 164 Z" class="stroke5"/>
    <path d="M 162 256 Q 202 186 220 181 Q 230 177 239 191 Q 242 201 238 220 Q 232 236 213 249 Q 185 271 171 277 Q 164 280 161 271 Q 158 264 162 256 Z" class="stroke6"/>
    <path d="M 397 296 Q 387 274 363 238 Q 359 232 363 227 Q 369 226 375 230 Q 427 269 453 284 Q 466 288 463 297 Q 457 309 442 321 Q 427 334 410 334 Q 398 333 400 319 Q 403 309 397 296 Z" class="stroke7"/>
    <path d="M 288 152 Q 230 136 169 117 Q 151 113 122 112 Q 109 111 107 101 Q 106 88 114 81 Q 136 65 168 48 Q 178 45 189 53 Q 225 80 385 152 Q 409 162 425 176 Q 438 183 438 192 Q 429 199 330 164 L 288 152 Z" class="stroke8"/>
    <path d="M 602 799 Q 627 778 656 753 Q 669 743 683 743 Q 693 744 697 756 Q 701 769 692 797 Q 682 822 596 843 Q 581 846 576 843 Q 572 839 573 827 Q 577 817 602 799 Z" class="stroke9"/>
    <path d="M 733 695 Q 811 714 815 717 Q 822 724 818 731 Q 812 740 789 746 Q 768 750 676 721 Q 589 703 539 698 Q 509 694 530 679 Q 564 661 621 674 Q 661 683 704 690 L 733 695 Z" class="stroke10"/>
    <path d="M 542 605 Q 581 548 589 547 Q 596 546 602 553 Q 606 562 606 583 Q 606 598 588 613 Q 542 646 532 642 Q 528 641 527 632 Q 528 623 542 605 Z" class="stroke11"/>
    <path d="M 696 542 Q 700 548 746 616 Q 752 628 764 643 Q 777 653 770 662 Q 761 677 733 695 C 708 712 695 718 704 690 Q 704 689 706 684 Q 715 657 684 570 Q 678 555 675 537 C 670 507 679 517 696 542 Z" class="stroke12"/>
    <path d="M 675 537 Q 668 538 663 536 Q 569 518 457 499 Q 441 496 454 483 Q 478 462 520 472 Q 686 524 892 524 Q 893 524 896 524 Q 912 525 916 532 Q 920 542 906 552 Q 854 586 801 566 Q 756 557 696 542 L 675 537 Z" class="stroke13"/>
    <path d="M 520 434 Q 513 438 495 440 Q 485 441 482 438 Q 478 432 484 419 Q 511 364 527 274 Q 531 244 549 226 C 561 213 561 213 564 221 Q 565 222 566 225 Q 569 235 569 249 L 566 277 Q 565 281 565 284 Q 561 309 556 329 L 552 350 Q 543 390 542 407 C 540 426 540 426 520 434 Z" class="stroke14"/>
    <path d="M 720 271 Q 719 261 723 250 Q 727 235 739 237 Q 752 238 758 253 Q 768 266 786 338 Q 799 384 831 411 Q 847 426 833 440 Q 817 455 772 477 Q 760 483 697 470 Q 637 460 588 448 Q 549 439 520 434 C 490 429 513 399 542 407 Q 596 423 713 442 Q 734 443 741 440 Q 750 436 746 407 Q 733 322 726 292 L 720 271 Z" class="stroke15"/>
    <path d="M 556 329 Q 560 329 566 329 Q 633 342 682 351 Q 701 355 693 366 Q 683 378 662 380 Q 631 383 552 350 C 524 339 526 329 556 329 Z" class="stroke16"/>
    <path d="M 687 267 Q 702 270 720 271 C 750 273 751 275 726 292 Q 720 296 712 302 Q 699 309 674 302 Q 613 286 566 277 C 537 271 539 247 569 249 Q 573 249 578 250 Q 600 257 640 261 L 687 267 Z" class="stroke17"/>
    <path d="M 549 226 Q 539 226 538 214 Q 523 88 311 -18 Q 304 -22 308 -26 Q 314 -30 323 -28 Q 449 -9 540 103 Q 568 143 594 168 Q 601 175 599 184 Q 595 200 564 221 L 549 226 Z" class="stroke18"/>
    <path d="M 640 261 Q 650 230 650 197 Q 643 44 672 11 Q 688 -5 730 -19 Q 862 -55 963 16 Q 979 29 969 50 Q 957 74 943 144 Q 943 157 937 162 Q 931 165 928 150 Q 906 74 890 50 Q 880 38 850 30 Q 778 14 724 35 Q 702 45 695 60 Q 676 99 697 239 Q 701 255 691 263 Q 690 266 687 267 C 670 292 632 290 640 261 Z" class="stroke19"/>
    
    
    
    
    
    
    
    
    
    
    
    
    
    
    
    
    
    
    </g>
</svg>