<svg version="1.1" viewBox="0 0 1024 1024" xmlns="http://www.w3.org/2000/svg">
  
  <g transform="scale(1, -1) translate(0, -900)">
    <style type="text/css">
        .stroke1 {fill: #808080;}
        .stroke2 {fill: #808079;}
        .stroke3 {fill: #808078;}
        .stroke4 {fill: #808077;}
        .stroke5 {fill: #808076;}
        .stroke6 {fill: #808075;}
        .stroke7 {fill: #808074;}
        .stroke8 {fill: #808073;}
        .stroke9 {fill: #808072;}
        .stroke10 {fill: #808071;}
        .stroke11 {fill: #808070;}
        .stroke12 {fill: #808069;}
        .stroke13 {fill: #808068;}
        .stroke14 {fill: #808067;}
        .stroke15 {fill: #808066;}
        .stroke16 {fill: #808065;}
        .stroke17 {fill: #808064;}
        .stroke18 {fill: #808063;}
        .stroke19 {fill: #808062;}
        .stroke20 {fill: #808061;}
        text {
            font-family: Helvetica;
            font-size: 50px;
            fill: #808060;
            paint-order: stroke;
            stroke: #000000;
            stroke-width: 4px;
            stroke-linecap: butt;
            stroke-linejoin: miter;
            font-weight: 800;
        }
    </style>

    <path d="M 307 627 Q 400 774 400 780 Q 399 783 399 785 Q 395 798 366 820 Q 339 838 321 837 Q 302 836 310 813 Q 326 779 312 749 Q 272 649 209 557 Q 148 469 66 370 Q 56 360 54 354 Q 51 344 65 346 Q 122 355 285 593 Q 288 599 291 602 L 307 627 Z" class="stroke1"/>
    <path d="M 291 602 Q 327 592 388 603 Q 427 612 468 621 Q 489 627 492 630 Q 499 637 495 645 Q 488 655 461 661 Q 433 665 407 653 Q 383 644 357 637 Q 333 633 307 627 C 278 620 262 609 291 602 Z" class="stroke2"/>
    <path d="M 308 455 Q 354 471 407 486 Q 431 495 434 498 Q 441 507 436 514 Q 429 524 401 527 Q 373 530 347 515 Q 320 503 291 493 Q 260 483 220 475 Q 189 466 213 453 Q 234 446 262 445 L 308 455 Z" class="stroke3"/>
    <path d="M 334 324 Q 440 358 445 362 Q 452 369 448 378 Q 441 388 413 392 Q 379 395 335 371 L 285 352 Q 279 351 275 349 Q 227 333 169 323 Q 136 314 162 301 Q 198 283 267 305 Q 276 308 287 310 L 334 324 Z" class="stroke4"/>
    <path d="M 287 310 Q 287 181 249 123 Q 216 93 262 47 Q 263 46 267 42 Q 280 35 291 52 Q 303 83 433 222 Q 449 237 453 246 Q 456 256 446 255 Q 434 252 330 177 Q 329 173 326 176 Q 333 258 334 324 L 335 371 Q 335 393 339 410 Q 345 423 335 434 Q 322 447 308 455 C 283 472 251 473 262 445 Q 281 402 285 352 L 287 310 Z" class="stroke5"/>
    <path d="M 545 523 Q 527 538 504 545 Q 495 546 489 539 Q 485 533 493 523 Q 538 403 495 188 Q 474 113 478 98 Q 487 65 497 52 Q 507 39 518 52 Q 548 88 549 204 Q 549 411 563 486 C 567 507 567 507 545 523 Z" class="stroke6"/>
    <path d="M 563 486 Q 608 501 669 515 L 715 526 Q 808 553 825 539 Q 835 533 840 483 Q 853 315 845 125 Q 845 97 834 90 Q 819 78 744 94 Q 728 95 730 87 Q 731 80 744 75 Q 811 33 847 0 Q 868 -18 879 -15 Q 891 -12 901 15 Q 914 58 912 121 Q 888 482 905 519 Q 917 540 906 551 Q 896 564 851 586 Q 833 595 815 590 Q 782 578 720 560 L 672 548 Q 608 535 545 523 C 516 517 534 477 563 486 Z" class="stroke7"/>
    <path d="M 669 515 Q 648 386 580 256 Q 576 250 575 244 Q 574 234 582 237 Q 615 244 671 366 Q 672 370 674 373 L 682 394 Q 682 395 683 395 Q 713 482 715 526 L 720 560 Q 726 614 726 666 Q 729 774 730 775 Q 714 788 685 798 Q 667 805 657 801 Q 647 794 654 782 Q 670 761 675 691 Q 674 690 675 687 Q 678 579 672 548 L 669 515 Z" class="stroke8"/>
    <path d="M 674 373 Q 720 324 776 253 Q 786 237 799 232 Q 806 231 813 238 Q 823 248 816 284 Q 807 332 689 391 Q 685 394 682 394 C 654 405 654 395 674 373 Z" class="stroke9"/>
    
    
    
    
    
    
    
    
    </g>
</svg>