<svg version="1.1" viewBox="0 0 1024 1024" xmlns="http://www.w3.org/2000/svg">
  
  <g transform="scale(1, -1) translate(0, -900)">
    <style type="text/css">
        .stroke1 {fill: #808080;}
        .stroke2 {fill: #808079;}
        .stroke3 {fill: #808078;}
        .stroke4 {fill: #808077;}
        .stroke5 {fill: #808076;}
        .stroke6 {fill: #808075;}
        .stroke7 {fill: #808074;}
        .stroke8 {fill: #808073;}
        .stroke9 {fill: #808072;}
        .stroke10 {fill: #808071;}
        .stroke11 {fill: #808070;}
        .stroke12 {fill: #808069;}
        .stroke13 {fill: #808068;}
        .stroke14 {fill: #808067;}
        .stroke15 {fill: #808066;}
        .stroke16 {fill: #808065;}
        .stroke17 {fill: #808064;}
        .stroke18 {fill: #808063;}
        .stroke19 {fill: #808062;}
        .stroke20 {fill: #808061;}
        text {
            font-family: Helvetica;
            font-size: 50px;
            fill: #808060;
            paint-order: stroke;
            stroke: #000000;
            stroke-width: 4px;
            stroke-linecap: butt;
            stroke-linejoin: miter;
            font-weight: 800;
        }
    </style>

    <path d="M 293 634 Q 371 767 373 768 Q 373 772 371 777 Q 367 790 338 811 Q 311 829 292 828 Q 274 825 283 804 Q 298 773 286 745 Q 229 592 74 395 Q 64 385 62 378 Q 59 368 73 370 Q 115 376 272 600 Q 273 604 277 608 L 293 634 Z" class="stroke1"/>
    <path d="M 277 608 Q 326 596 368 611 Q 408 623 449 636 Q 468 642 470 645 Q 477 654 472 661 Q 465 671 435 675 Q 416 676 338 647 Q 317 641 293 634 C 264 626 248 615 277 608 Z" class="stroke2"/>
    <path d="M 309 468 Q 423 504 426 506 Q 433 515 428 522 Q 421 532 393 536 Q 365 539 339 525 Q 315 515 289 506 Q 259 497 225 491 Q 192 482 217 469 Q 235 460 260 460 L 309 468 Z" class="stroke3"/>
    <path d="M 331 331 Q 454 370 456 370 Q 463 377 459 385 Q 452 395 425 401 Q 404 404 331 376 C 303 365 288 360 284 359 Q 281 360 280 359 Q 228 344 166 335 Q 133 328 158 313 Q 198 294 265 314 Q 274 317 286 319 L 331 331 Z" class="stroke4"/>
    <path d="M 286 319 Q 286 183 255 133 Q 218 81 260 43 Q 273 36 284 51 Q 299 79 439 197 Q 455 210 460 218 Q 464 228 454 228 Q 442 228 335 166 Q 325 159 323 169 Q 330 259 331 331 L 331 376 Q 331 406 334 428 Q 338 441 330 452 Q 320 462 309 468 C 284 485 248 487 260 460 Q 284 412 284 359 L 286 319 Z" class="stroke5"/>
    <path d="M 581 592 Q 606 589 632 596 Q 854 644 863 650 Q 870 657 867 665 Q 860 675 834 683 Q 806 687 699 652 Q 627 636 558 626 C 528 622 551 594 581 592 Z" class="stroke6"/>
    <path d="M 813 339 Q 840 408 871 428 Q 887 447 873 466 Q 792 527 742 497 Q 670 467 575 449 C 546 443 545 427 575 422 Q 600 415 634 427 Q 766 457 773 451 Q 782 442 779 424 Q 769 379 757 342 C 748 313 802 311 813 339 Z" class="stroke7"/>
    <path d="M 574 267 Q 589 261 607 265 Q 677 284 828 303 Q 840 304 841 314 Q 841 323 813 339 C 791 352 786 350 757 342 Q 655 312 574 297 C 545 291 545 276 574 267 Z" class="stroke8"/>
    <path d="M 575 449 Q 576 483 576 519 Q 576 561 581 592 C 583 612 583 612 558 626 Q 549 632 535 639 Q 516 649 507 643 Q 500 636 508 621 Q 548 543 520 178 Q 517 138 493 102 Q 483 86 492 66 Q 501 44 511 35 Q 521 28 538 39 Q 587 73 664 91 Q 752 109 920 110 Q 947 110 947 123 Q 947 139 916 160 Q 898 175 770 151 Q 623 133 595 125 Q 583 122 578 127 Q 572 128 572 142 Q 573 202 574 267 L 574 297 Q 575 358 575 422 L 575 449 Z" class="stroke9"/>
    
    
    
    
    
    
    
    
    </g>
</svg>