<svg version="1.1" viewBox="0 0 1024 1024" xmlns="http://www.w3.org/2000/svg">
  
  <g transform="scale(1, -1) translate(0, -900)">
    <style type="text/css">
        .stroke1 {fill: #808080;}
        .stroke2 {fill: #808079;}
        .stroke3 {fill: #808078;}
        .stroke4 {fill: #808077;}
        .stroke5 {fill: #808076;}
        .stroke6 {fill: #808075;}
        .stroke7 {fill: #808074;}
        .stroke8 {fill: #808073;}
        .stroke9 {fill: #808072;}
        .stroke10 {fill: #808071;}
        .stroke11 {fill: #808070;}
        .stroke12 {fill: #808069;}
        .stroke13 {fill: #808068;}
        .stroke14 {fill: #808067;}
        .stroke15 {fill: #808066;}
        .stroke16 {fill: #808065;}
        .stroke17 {fill: #808064;}
        .stroke18 {fill: #808063;}
        .stroke19 {fill: #808062;}
        .stroke20 {fill: #808061;}
        text {
            font-family: Helvetica;
            font-size: 50px;
            fill: #808060;
            paint-order: stroke;
            stroke: #000000;
            stroke-width: 4px;
            stroke-linecap: butt;
            stroke-linejoin: miter;
            font-weight: 800;
        }
    </style>

    <path d="M 299 633 Q 341 709 370 739 Q 380 749 375 763 Q 371 776 342 800 Q 314 818 295 818 Q 276 817 285 793 Q 298 762 287 733 Q 248 640 191 554 Q 136 470 59 379 Q 49 369 46 363 Q 43 351 57 354 Q 109 360 275 596 Q 278 602 281 605 L 299 633 Z" class="stroke1"/>
    <path d="M 281 605 Q 318 596 401 616 Q 423 623 448 631 Q 464 637 467 639 Q 474 649 469 656 Q 460 668 429 671 Q 410 671 332 642 Q 316 638 299 633 C 270 625 252 611 281 605 Z" class="stroke2"/>
    <path d="M 309 459 Q 415 495 418 497 Q 425 506 420 513 Q 413 523 383 527 Q 353 530 326 514 Q 301 504 274 494 Q 244 484 209 477 Q 175 467 201 454 Q 219 445 263 445 L 309 459 Z" class="stroke3"/>
    <path d="M 332 293 Q 422 327 423 329 Q 430 338 425 345 Q 416 355 387 359 Q 359 360 334 347 L 286 324 Q 271 320 257 313 Q 215 297 164 285 Q 130 275 157 262 Q 199 244 252 265 Q 267 271 285 276 L 332 293 Z" class="stroke4"/>
    <path d="M 285 276 Q 281 150 250 102 Q 205 51 254 8 Q 267 -1 279 16 Q 295 46 441 168 Q 460 181 464 190 Q 468 200 458 200 Q 448 200 333 136 Q 323 130 322 139 Q 329 223 332 293 L 334 347 Q 334 387 339 414 Q 345 435 309 459 C 285 477 252 473 263 445 Q 284 399 285 346 Q 285 336 286 324 L 285 276 Z" class="stroke5"/>
    <path d="M 677 666 Q 728 679 862 698 Q 872 697 881 710 Q 882 720 859 731 Q 831 752 750 727 Q 728 723 706 716 Q 673 709 524 685 Q 496 681 518 664 Q 551 640 590 649 Q 612 655 639 659 L 677 666 Z" class="stroke6"/>
    <path d="M 698 361 Q 702 440 706 507 L 707 535 Q 710 601 712 612 Q 719 630 710 640 Q 694 656 677 666 C 652 682 628 687 639 659 Q 654 623 655 602 Q 656 575 655 350 C 655 320 696 331 698 361 Z" class="stroke7"/>
    <path d="M 706 507 Q 748 503 845 526 Q 846 527 850 527 Q 866 531 869 534 Q 876 541 872 549 Q 865 559 837 564 Q 815 567 750 544 Q 747 544 707 535 C 678 528 676 509 706 507 Z" class="stroke8"/>
    <path d="M 532 268 Q 601 313 802 345 Q 824 349 834 341 Q 850 319 840 280 Q 821 195 776 83 Q 766 59 745 48 Q 736 44 658 66 Q 640 75 639 66 Q 638 56 656 40 Q 690 -2 704 -36 Q 720 -70 747 -52 Q 802 -19 817 7 Q 836 44 885 238 Q 892 301 921 322 Q 936 338 930 348 Q 918 361 871 384 Q 846 399 766 376 Q 741 373 698 361 L 655 350 Q 607 340 565 325 Q 543 321 546 336 Q 558 442 573 487 Q 579 503 569 514 Q 551 527 536 535 Q 512 542 504 537 Q 497 531 503 518 Q 521 488 505 364 Q 502 349 474 314 Q 464 299 473 288 Q 483 278 505 263 Q 517 256 532 268 Z" class="stroke9"/>
    
    
    
    
    
    
    
    
    </g>
</svg>