<svg version="1.1" viewBox="0 0 1024 1024" xmlns="http://www.w3.org/2000/svg">
  
  <g transform="scale(1, -1) translate(0, -900)">
    <style type="text/css">
        .stroke1 {fill: #808080;}
        .stroke2 {fill: #808079;}
        .stroke3 {fill: #808078;}
        .stroke4 {fill: #808077;}
        .stroke5 {fill: #808076;}
        .stroke6 {fill: #808075;}
        .stroke7 {fill: #808074;}
        .stroke8 {fill: #808073;}
        .stroke9 {fill: #808072;}
        .stroke10 {fill: #808071;}
        .stroke11 {fill: #808070;}
        .stroke12 {fill: #808069;}
        .stroke13 {fill: #808068;}
        .stroke14 {fill: #808067;}
        .stroke15 {fill: #808066;}
        .stroke16 {fill: #808065;}
        .stroke17 {fill: #808064;}
        .stroke18 {fill: #808063;}
        .stroke19 {fill: #808062;}
        .stroke20 {fill: #808061;}
        text {
            font-family: Helvetica;
            font-size: 50px;
            fill: #808060;
            paint-order: stroke;
            stroke: #000000;
            stroke-width: 4px;
            stroke-linecap: butt;
            stroke-linejoin: miter;
            font-weight: 800;
        }
    </style>

    <path d="M 248 516 Q 252 525 260 532 Q 309 596 343 653 L 361 684 Q 368 711 406 760 Q 413 772 406 787 Q 373 841 338 841 Q 322 841 327 819 Q 354 684 87 395 Q 48 359 47 349 Q 47 343 53 344 Q 63 345 72 351 Q 139 396 171 430 Q 205 464 236 502 L 248 516 Z" class="stroke1"/>
    <path d="M 343 653 Q 385 641 425 655 Q 461 664 498 673 Q 514 677 517 681 Q 524 688 520 697 Q 513 707 483 713 Q 455 716 426 702 Q 414 698 361 684 C 332 676 314 661 343 653 Z" class="stroke2"/>
    <path d="M 340 498 Q 454 534 457 536 Q 464 543 460 550 Q 453 560 427 564 Q 400 565 376 554 Q 351 542 322 533 Q 291 523 252 517 Q 251 517 248 516 C 219 510 218 510 236 502 Q 263 489 296 488 L 340 498 Z" class="stroke3"/>
    <path d="M 369 336 Q 463 369 465 370 Q 472 377 468 386 Q 461 396 433 400 Q 418 401 370 386 L 321 366 Q 248 342 189 331 Q 156 322 182 309 Q 212 294 281 311 Q 299 317 322 322 L 369 336 Z" class="stroke4"/>
    <path d="M 322 322 Q 318 196 286 146 Q 247 101 288 53 L 290 52 Q 303 43 315 60 Q 331 91 485 216 Q 504 229 508 238 Q 512 248 502 248 Q 487 248 369 180 Q 359 173 358 183 Q 365 267 369 336 L 370 386 Q 370 425 375 450 Q 381 472 340 498 C 316 515 285 516 296 488 Q 320 434 321 366 L 322 322 Z" class="stroke5"/>
    <path d="M 628 776 Q 656 734 655 666 Q 662 458 648 400 Q 647 385 653 368 Q 659 359 664 347 Q 674 331 690 340 Q 699 349 700 406 Q 684 658 726 740 Q 732 750 720 764 Q 696 783 667 794 Q 651 801 635 796 Q 622 792 628 776 Z" class="stroke6"/>
    <path d="M 544 565 Q 529 507 504 453 Q 492 425 509 398 Q 518 383 533 396 Q 576 441 571 521 Q 572 548 563 568 Q 559 575 553 575 Q 546 572 544 565 Z" class="stroke7"/>
    <path d="M 817 580 Q 862 543 910 500 Q 923 487 938 488 Q 948 488 953 501 Q 957 514 949 543 Q 943 571 902 594 Q 808 634 792 627 Q 788 623 788 611 Q 792 601 817 580 Z" class="stroke8"/>
    <path d="M 750 466 Q 756 298 583 123 Q 460 18 417 -14 Q 401 -24 385 -37 Q 376 -44 383 -48 Q 390 -52 403 -47 Q 590 25 686 163 Q 738 233 791 352 Q 809 388 830 421 Q 839 431 834 442 Q 827 454 796 473 Q 774 488 764 486 Q 749 482 750 466 Z" class="stroke9"/>
    
    
    
    
    
    
    
    
    </g>
</svg>