<svg version="1.1" viewBox="0 0 1024 1024" xmlns="http://www.w3.org/2000/svg">
  
  <g transform="scale(1, -1) translate(0, -900)">
    <style type="text/css">
        .stroke1 {fill: #808080;}
        .stroke2 {fill: #808079;}
        .stroke3 {fill: #808078;}
        .stroke4 {fill: #808077;}
        .stroke5 {fill: #808076;}
        .stroke6 {fill: #808075;}
        .stroke7 {fill: #808074;}
        .stroke8 {fill: #808073;}
        .stroke9 {fill: #808072;}
        .stroke10 {fill: #808071;}
        .stroke11 {fill: #808070;}
        .stroke12 {fill: #808069;}
        .stroke13 {fill: #808068;}
        .stroke14 {fill: #808067;}
        .stroke15 {fill: #808066;}
        .stroke16 {fill: #808065;}
        .stroke17 {fill: #808064;}
        .stroke18 {fill: #808063;}
        .stroke19 {fill: #808062;}
        .stroke20 {fill: #808061;}
        text {
            font-family: Helvetica;
            font-size: 50px;
            fill: #808060;
            paint-order: stroke;
            stroke: #000000;
            stroke-width: 4px;
            stroke-linecap: butt;
            stroke-linejoin: miter;
            font-weight: 800;
        }
    </style>

    <path d="M 287 622 Q 351 733 367 749 Q 377 759 371 773 Q 367 786 338 807 Q 311 825 292 824 Q 274 823 283 800 Q 298 769 286 742 Q 252 651 198 566 Q 146 484 74 395 Q 64 385 62 378 Q 59 368 73 370 Q 127 379 270 596 Q 271 600 275 604 L 287 622 Z" class="stroke1"/>
    <path d="M 275 604 Q 282 597 317 593 Q 342 593 466 634 Q 473 643 468 650 Q 461 660 433 663 Q 409 664 342 636 Q 318 629 288 623 Q 287 623 287 622 C 261 613 261 613 275 604 Z" class="stroke2"/>
    <path d="M 314 462 Q 428 498 429 500 Q 436 507 432 514 Q 425 524 399 528 Q 372 529 348 518 Q 323 506 294 497 Q 263 487 224 481 Q 193 474 217 460 Q 236 453 266 452 L 314 462 Z" class="stroke3"/>
    <path d="M 333 327 Q 370 340 414 351 Q 451 363 457 369 Q 464 376 460 385 Q 453 395 423 400 Q 392 404 334 376 L 287 358 Q 283 358 278 356 Q 226 340 166 329 Q 132 320 158 306 Q 200 288 269 309 Q 276 312 288 314 L 333 327 Z" class="stroke4"/>
    <path d="M 288 314 Q 284 185 259 144 Q 214 87 259 47 Q 272 40 283 55 Q 298 83 438 198 Q 456 210 460 218 Q 464 228 454 228 Q 439 227 336 169 Q 326 163 324 173 Q 331 258 333 327 L 334 376 Q 333 403 338 424 Q 342 437 334 447 Q 324 457 314 462 C 289 479 255 480 266 452 Q 284 410 287 358 L 288 314 Z" class="stroke5"/>
    <path d="M 549 621 Q 603 581 630 576 Q 643 576 648 588 Q 651 598 646 612 Q 633 642 553 654 Q 538 655 532 651 Q 528 650 531 639 Q 534 630 549 621 Z" class="stroke6"/>
    <path d="M 532 486 Q 589 438 616 433 Q 629 432 636 444 Q 640 456 635 470 Q 622 506 562 516 Q 526 525 516 519 Q 512 518 515 507 Q 516 497 532 486 Z" class="stroke7"/>
    <path d="M 759 365 Q 811 372 882 376 Q 900 377 915 378 Q 934 379 937 387 Q 941 399 926 410 Q 868 446 816 427 Q 789 421 759 411 L 707 399 Q 694 398 681 393 Q 593 374 486 353 Q 467 350 482 335 Q 512 311 556 324 Q 631 349 706 358 L 759 365 Z" class="stroke8"/>
    <path d="M 706 358 Q 706 31 707 17 Q 707 -26 720 -48 Q 735 -64 744 -42 Q 757 1 759 365 L 759 411 Q 760 610 766 702 Q 767 736 785 764 Q 792 780 772 796 Q 747 815 704 827 Q 685 831 672 818 Q 662 809 674 797 Q 704 772 706 737 Q 707 625 707 399 L 706 358 Z" class="stroke9"/>
    
    
    
    
    
    
    
    
    </g>
</svg>