<svg version="1.1" viewBox="0 0 1024 1024" xmlns="http://www.w3.org/2000/svg">
  
  <g transform="scale(1, -1) translate(0, -900)">
    <style type="text/css">
        .stroke1 {fill: #808080;}
        .stroke2 {fill: #808079;}
        .stroke3 {fill: #808078;}
        .stroke4 {fill: #808077;}
        .stroke5 {fill: #808076;}
        .stroke6 {fill: #808075;}
        .stroke7 {fill: #808074;}
        .stroke8 {fill: #808073;}
        .stroke9 {fill: #808072;}
        .stroke10 {fill: #808071;}
        .stroke11 {fill: #808070;}
        .stroke12 {fill: #808069;}
        .stroke13 {fill: #808068;}
        .stroke14 {fill: #808067;}
        .stroke15 {fill: #808066;}
        .stroke16 {fill: #808065;}
        .stroke17 {fill: #808064;}
        .stroke18 {fill: #808063;}
        .stroke19 {fill: #808062;}
        .stroke20 {fill: #808061;}
        text {
            font-family: Helvetica;
            font-size: 50px;
            fill: #808060;
            paint-order: stroke;
            stroke: #000000;
            stroke-width: 4px;
            stroke-linecap: butt;
            stroke-linejoin: miter;
            font-weight: 800;
        }
    </style>

    <path d="M 292 619 Q 320 683 359 721 Q 368 731 363 745 Q 359 758 330 779 Q 303 797 285 796 Q 266 795 275 773 Q 288 742 278 715 Q 244 627 189 543 Q 137 464 66 375 Q 56 365 54 358 Q 51 348 65 350 Q 119 359 271 585 Q 272 591 276 594 L 292 619 Z" class="stroke1"/>
    <path d="M 276 594 Q 321 579 360 591 Q 442 607 456 614 Q 463 621 459 629 Q 452 639 425 645 Q 401 648 336 627 Q 327 627 292 619 C 263 612 247 603 276 594 Z" class="stroke2"/>
    <path d="M 283 452 Q 287 453 294 456 Q 411 489 417 496 Q 424 503 420 510 Q 413 520 387 523 Q 360 526 336 513 Q 311 503 283 493 Q 252 483 216 477 Q 185 468 209 456 Q 221 452 236 448 L 283 452 Z" class="stroke3"/>
    <path d="M 309 302 Q 421 336 424 338 Q 431 345 427 353 Q 420 363 393 369 Q 366 373 310 348 L 263 333 Q 256 332 252 330 Q 203 315 142 306 Q 109 299 134 285 Q 176 264 241 285 Q 251 288 263 290 L 309 302 Z" class="stroke4"/>
    <path d="M 263 290 Q 259 182 235 139 Q 196 79 234 46 Q 234 45 237 43 Q 249 36 260 51 Q 273 76 395 185 Q 411 198 416 206 Q 420 216 410 216 Q 395 215 310 166 Q 301 160 300 169 Q 307 241 309 302 L 310 348 Q 310 390 314 408 Q 320 429 283 452 C 258 469 220 473 236 448 Q 254 430 262 357 Q 262 345 263 333 L 263 290 Z" class="stroke5"/>
    <path d="M 615 510 Q 690 526 853 552 Q 863 551 873 564 Q 874 577 850 587 Q 814 608 738 583 Q 633 558 623 554 L 565 544 Q 553 544 468 530 Q 438 526 461 508 Q 497 484 535 493 Q 544 496 556 496 L 615 510 Z" class="stroke6"/>
    <path d="M 583 389 Q 602 449 615 510 L 623 554 Q 629 657 662 733 Q 669 743 660 753 Q 642 772 606 790 Q 585 802 567 798 Q 545 791 560 772 Q 587 738 585 707 Q 578 617 565 544 L 556 496 Q 493 264 406 138 Q 376 99 331 51 Q 319 44 317 39 Q 313 32 330 33 Q 361 33 451 133 Q 505 199 547 294 L 556 315 Q 563 337 573 359 L 583 389 Z" class="stroke7"/>
    <path d="M 653 164 Q 584 80 471 40 Q 458 34 470 27 Q 476 23 516 25 Q 607 35 683 124 L 713 165 Q 750 232 785 336 Q 797 367 815 386 Q 834 404 820 416 Q 805 428 773 438 Q 755 444 687 415 Q 633 399 583 389 C 554 383 543 362 573 359 Q 607 352 652 365 Q 695 384 703 385 Q 730 384 726 356 Q 708 265 677 203 Q 676 203 676 202 L 653 164 Z" class="stroke8"/>
    <path d="M 547 294 Q 580 272 653 164 L 683 124 Q 720 75 783 12 Q 810 -10 851 -5 Q 905 -1 945 4 Q 958 5 969 10 Q 976 17 966 25 Q 953 35 841 78 Q 787 96 713 165 L 676 202 Q 642 239 606 286 Q 590 308 559 315 Q 558 316 556 315 C 527 322 524 313 547 294 Z" class="stroke9"/>
    <path d="M 736 724 Q 764 705 794 682 Q 807 672 821 675 Q 830 676 833 688 Q 836 701 825 726 Q 815 751 726 764 Q 713 765 708 763 Q 704 759 706 748 Q 710 739 736 724 Z" class="stroke10"/>
    
    
    
    
    
    
    
    
    
    </g>
</svg>