<svg version="1.1" viewBox="0 0 1024 1024" xmlns="http://www.w3.org/2000/svg">
  
  <g transform="scale(1, -1) translate(0, -900)">
    <style type="text/css">
        .stroke1 {fill: #808080;}
        .stroke2 {fill: #808079;}
        .stroke3 {fill: #808078;}
        .stroke4 {fill: #808077;}
        .stroke5 {fill: #808076;}
        .stroke6 {fill: #808075;}
        .stroke7 {fill: #808074;}
        .stroke8 {fill: #808073;}
        .stroke9 {fill: #808072;}
        .stroke10 {fill: #808071;}
        .stroke11 {fill: #808070;}
        .stroke12 {fill: #808069;}
        .stroke13 {fill: #808068;}
        .stroke14 {fill: #808067;}
        .stroke15 {fill: #808066;}
        .stroke16 {fill: #808065;}
        .stroke17 {fill: #808064;}
        .stroke18 {fill: #808063;}
        .stroke19 {fill: #808062;}
        .stroke20 {fill: #808061;}
        text {
            font-family: Helvetica;
            font-size: 50px;
            fill: #808060;
            paint-order: stroke;
            stroke: #000000;
            stroke-width: 4px;
            stroke-linecap: butt;
            stroke-linejoin: miter;
            font-weight: 800;
        }
    </style>

    <path d="M 295 645 Q 352 738 370 756 Q 380 766 375 780 Q 371 793 342 816 Q 315 834 297 833 Q 278 832 286 810 Q 301 779 289 752 Q 252 662 197 579 Q 143 498 70 410 Q 60 400 58 394 Q 55 384 69 386 Q 126 395 280 621 L 295 645 Z" class="stroke1"/>
    <path d="M 280 621 Q 323 600 373 617 Q 409 624 445 634 Q 461 638 464 641 Q 473 648 468 657 Q 461 667 431 673 Q 403 677 374 664 Q 355 657 335 652 Q 316 648 295 645 C 265 641 253 633 280 621 Z" class="stroke2"/>
    <path d="M 299 472 Q 350 488 406 503 Q 433 512 437 516 Q 444 523 439 530 Q 432 540 407 544 Q 382 547 356 535 Q 326 522 293 511 Q 256 501 213 493 Q 182 486 206 472 Q 225 463 255 463 L 299 472 Z" class="stroke3"/>
    <path d="M 324 335 Q 363 348 406 360 Q 443 373 449 378 Q 456 385 452 394 Q 445 404 417 408 Q 389 411 363 398 Q 344 391 325 382 L 278 364 Q 275 364 274 363 Q 222 347 161 335 Q 128 326 154 313 Q 193 295 259 316 Q 266 319 278 321 L 324 335 Z" class="stroke4"/>
    <path d="M 278 321 Q 274 198 246 152 Q 209 101 253 62 Q 266 55 276 71 Q 289 101 425 232 Q 441 245 445 254 Q 448 264 438 263 Q 422 262 319 189 Q 315 185 313 188 Q 320 269 324 335 L 325 382 Q 325 407 329 428 Q 336 447 299 472 C 275 490 244 491 255 463 Q 274 418 278 364 L 278 321 Z" class="stroke5"/>
    <path d="M 790 543 Q 817 610 846 628 Q 862 646 848 663 Q 832 676 780 700 Q 764 707 742 699 Q 699 678 657 666 Q 612 653 564 643 C 535 637 545 607 575 612 Q 600 615 733 650 Q 749 654 756 648 Q 763 641 760 625 Q 750 582 738 545 C 729 516 778 515 790 543 Z" class="stroke6"/>
    <path d="M 561 477 Q 574 468 596 474 Q 662 490 805 509 Q 815 510 816 520 Q 816 527 790 543 C 772 554 767 553 738 545 Q 638 517 563 504 C 533 499 534 490 561 477 Z" class="stroke7"/>
    <path d="M 564 643 Q 551 655 528 663 Q 509 672 498 667 Q 486 660 493 647 Q 512 623 513 551 Q 512 544 512 533 Q 509 368 473 250 Q 440 148 369 30 Q 365 23 363 17 Q 362 7 371 9 Q 404 15 480 150 Q 489 169 498 189 Q 550 321 561 477 L 563 504 Q 563 507 564 509 Q 567 584 575 612 C 579 633 579 633 564 643 Z" class="stroke8"/>
    <path d="M 649 255 Q 670 264 811 331 Q 832 343 856 347 Q 878 351 871 371 Q 862 389 841 407 Q 822 425 809 425 Q 797 426 798 412 Q 798 385 686 305 Q 670 293 652 280 C 628 262 622 243 649 255 Z" class="stroke9"/>
    <path d="M 652 280 Q 656 320 665 365 Q 669 383 658 393 Q 645 406 622 415 Q 609 419 601 414 Q 594 410 600 393 Q 612 354 609 317 Q 599 163 612 121 Q 615 100 635 83 Q 716 23 878 60 Q 915 70 951 95 Q 969 108 957 132 Q 945 157 931 238 Q 931 253 925 258 Q 919 261 915 245 Q 887 160 869 133 Q 857 120 825 112 Q 747 93 689 115 Q 665 125 659 140 Q 644 170 649 255 L 652 280 Z" class="stroke10"/>
    
    
    
    
    
    
    
    
    
    </g>
</svg>