<svg version="1.1" viewBox="0 0 1024 1024" xmlns="http://www.w3.org/2000/svg">
  
  <g transform="scale(1, -1) translate(0, -900)">
    <style type="text/css">
        .stroke1 {fill: #808080;}
        .stroke2 {fill: #808079;}
        .stroke3 {fill: #808078;}
        .stroke4 {fill: #808077;}
        .stroke5 {fill: #808076;}
        .stroke6 {fill: #808075;}
        .stroke7 {fill: #808074;}
        .stroke8 {fill: #808073;}
        .stroke9 {fill: #808072;}
        .stroke10 {fill: #808071;}
        .stroke11 {fill: #808070;}
        .stroke12 {fill: #808069;}
        .stroke13 {fill: #808068;}
        .stroke14 {fill: #808067;}
        .stroke15 {fill: #808066;}
        .stroke16 {fill: #808065;}
        .stroke17 {fill: #808064;}
        .stroke18 {fill: #808063;}
        .stroke19 {fill: #808062;}
        .stroke20 {fill: #808061;}
        text {
            font-family: Helvetica;
            font-size: 50px;
            fill: #808060;
            paint-order: stroke;
            stroke: #000000;
            stroke-width: 4px;
            stroke-linecap: butt;
            stroke-linejoin: miter;
            font-weight: 800;
        }
    </style>

    <path d="M 278 623 Q 338 725 355 741 Q 364 751 359 765 Q 355 778 326 799 Q 299 817 281 816 Q 262 815 271 793 Q 284 762 274 735 Q 240 647 185 563 Q 133 484 62 395 Q 52 385 50 378 Q 47 368 61 370 Q 104 377 260 594 Q 261 598 265 602 L 278 623 Z" class="stroke1"/>
    <path d="M 265 602 Q 280 595 301 591 Q 341 588 457 626 Q 464 633 460 641 Q 453 651 425 656 Q 398 660 331 634 Q 304 628 278 623 C 249 617 237 614 265 602 Z" class="stroke2"/>
    <path d="M 273 455 Q 327 476 382 496 Q 389 503 384 510 Q 377 520 351 522 Q 332 523 261 493 Q 234 484 203 477 Q 172 467 197 456 Q 209 453 232 449 L 273 455 Z" class="stroke3"/>
    <path d="M 305 317 Q 332 327 365 335 Q 396 345 401 350 Q 408 357 404 366 Q 397 376 369 380 Q 353 381 305 366 L 258 346 Q 249 345 240 341 Q 197 328 145 319 Q 112 310 138 297 Q 178 278 227 295 Q 242 299 260 304 L 305 317 Z" class="stroke4"/>
    <path d="M 260 304 Q 260 172 224 114 Q 188 72 235 30 Q 248 23 258 39 Q 271 66 392 180 Q 408 193 412 202 Q 416 212 406 211 Q 390 210 304 155 Q 298 151 296 157 Q 303 245 305 317 L 305 366 Q 305 388 310 408 Q 314 421 306 431 Q 290 447 273 455 C 247 470 219 476 232 449 Q 232 448 235 443 Q 256 400 258 346 L 260 304 Z" class="stroke5"/>
    <path d="M 716 564 Q 842 618 845 618 Q 861 619 863 627 Q 866 637 854 647 Q 835 660 793 673 Q 778 679 766 676 Q 759 672 760 662 Q 760 628 604 539 Q 600 530 605 528 Q 617 528 688 554 L 716 564 Z" class="stroke6"/>
    <path d="M 752 379 Q 779 386 858 399 Q 867 398 874 409 Q 875 419 855 427 Q 831 445 757 420 Q 756 420 754 419 L 705 406 Q 657 397 610 389 Q 586 385 606 371 Q 636 350 662 358 Q 678 364 705 368 L 752 379 Z" class="stroke7"/>
    <path d="M 746 252 Q 749 319 752 379 L 754 419 Q 757 531 758 532 L 757 533 Q 736 554 716 564 C 690 579 677 582 688 554 Q 706 517 705 406 L 705 368 Q 704 317 704 242 C 704 212 745 222 746 252 Z" class="stroke8"/>
    <path d="M 704 242 Q 665 233 621 223 Q 605 220 617 207 Q 647 185 675 194 Q 750 215 853 215 Q 869 216 873 224 Q 877 234 862 244 Q 816 275 749 253 Q 748 253 746 252 L 704 242 Z" class="stroke9"/>
    <path d="M 521 342 Q 528 321 495 242 L 480 211 Q 447 150 378 71 Q 368 58 372 56 Q 376 53 384 60 Q 463 106 510 189 L 527 221 Q 581 338 586 342 Q 595 352 587 361 Q 562 386 525 377 Q 500 371 493 378 Q 489 381 494 390 Q 516 427 535 471 Q 551 498 565 511 Q 583 527 570 539 Q 560 549 529 561 Q 505 573 490 559 Q 445 531 412 521 Q 399 517 406 510 Q 422 497 479 513 Q 491 514 494 508 Q 498 498 487 465 Q 471 408 454 390 Q 444 377 448 364 Q 452 355 471 357 Q 493 360 510 352 Q 520 348 521 342 Z" class="stroke10"/>
    <path d="M 495 242 Q 458 269 408 255 Q 399 251 404 243 Q 410 236 420 235 Q 448 234 480 211 L 510 189 Q 520 182 533 171 Q 704 11 782 9 Q 783 10 787 10 Q 872 20 940 37 Q 950 41 953 49 Q 956 56 937 58 Q 885 68 829 74 Q 712 89 533 217 Q 529 220 527 221 L 495 242 Z" class="stroke11"/>
    
    
    
    
    
    
    
    
    
    
    </g>
</svg>