<svg version="1.1" viewBox="0 0 1024 1024" xmlns="http://www.w3.org/2000/svg">
  
  <g transform="scale(1, -1) translate(0, -900)">
    <style type="text/css">
        .stroke1 {fill: #808080;}
        .stroke2 {fill: #808079;}
        .stroke3 {fill: #808078;}
        .stroke4 {fill: #808077;}
        .stroke5 {fill: #808076;}
        .stroke6 {fill: #808075;}
        .stroke7 {fill: #808074;}
        .stroke8 {fill: #808073;}
        .stroke9 {fill: #808072;}
        .stroke10 {fill: #808071;}
        .stroke11 {fill: #808070;}
        .stroke12 {fill: #808069;}
        .stroke13 {fill: #808068;}
        .stroke14 {fill: #808067;}
        .stroke15 {fill: #808066;}
        .stroke16 {fill: #808065;}
        .stroke17 {fill: #808064;}
        .stroke18 {fill: #808063;}
        .stroke19 {fill: #808062;}
        .stroke20 {fill: #808061;}
        text {
            font-family: Helvetica;
            font-size: 50px;
            fill: #808060;
            paint-order: stroke;
            stroke: #000000;
            stroke-width: 4px;
            stroke-linecap: butt;
            stroke-linejoin: miter;
            font-weight: 800;
        }
    </style>

    <path d="M 285 627 Q 346 733 367 753 Q 376 763 371 777 Q 367 790 338 811 Q 311 829 293 829 Q 274 826 283 805 Q 298 772 285 745 Q 219 585 62 391 Q 52 381 50 374 Q 47 364 61 366 Q 118 376 269 603 L 285 627 Z" class="stroke1"/>
    <path d="M 269 603 Q 306 591 366 605 Q 456 629 457 630 Q 464 637 460 645 Q 453 655 425 660 Q 398 664 331 638 Q 307 634 285 627 C 256 618 240 611 269 603 Z" class="stroke2"/>
    <path d="M 288 450 Q 292 453 400 485 Q 422 492 426 497 Q 433 506 428 513 Q 421 523 391 527 Q 361 530 334 515 Q 309 503 281 494 Q 250 484 213 477 Q 179 467 205 454 Q 220 448 244 445 L 288 450 Z" class="stroke3"/>
    <path d="M 317 313 Q 344 323 377 331 Q 408 341 413 346 Q 420 353 416 362 Q 409 372 381 376 Q 365 377 317 362 L 270 342 Q 261 341 252 337 Q 209 324 157 315 Q 124 306 150 293 Q 190 274 239 291 Q 254 295 272 300 L 317 313 Z" class="stroke4"/>
    <path d="M 272 300 Q 268 176 240 129 Q 197 87 242 40 L 244 39 Q 256 32 267 47 Q 282 75 418 189 Q 436 202 440 210 Q 444 220 434 220 Q 424 220 319 161 Q 309 155 308 165 Q 315 246 317 313 L 317 362 Q 317 384 322 404 Q 328 423 288 450 C 264 468 231 472 244 445 Q 245 444 247 439 Q 268 396 270 342 L 272 300 Z" class="stroke5"/>
    <path d="M 499 622 Q 524 577 544 565 Q 554 561 564 569 Q 571 578 571 591 Q 570 610 558 623 Q 545 635 528 642 Q 504 657 494 654 Q 490 654 489 644 Q 489 635 499 622 Z" class="stroke6"/>
    <path d="M 770 678 Q 758 657 707 594 Q 697 578 713 581 Q 752 599 809 636 Q 827 651 849 660 Q 870 670 860 686 Q 847 702 823 716 Q 801 729 789 727 Q 776 726 780 713 Q 783 695 770 678 Z" class="stroke7"/>
    <path d="M 651 540 Q 673 612 685 709 Q 686 731 696 757 Q 702 769 693 777 Q 674 793 638 809 Q 616 819 599 813 Q 580 806 595 787 Q 635 745 623 639 Q 614 522 508 435 Q 472 416 466 406 Q 462 400 477 399 Q 507 395 580 444 Q 619 474 642 520 L 651 540 Z" class="stroke8"/>
    <path d="M 642 520 Q 643 519 647 516 Q 702 483 771 432 Q 787 419 800 417 Q 807 417 812 426 Q 821 439 803 473 Q 788 515 651 540 C 622 545 618 539 642 520 Z" class="stroke9"/>
    <path d="M 459 286 Q 495 214 519 209 Q 532 205 544 222 Q 548 235 542 259 Q 535 275 515 287 Q 484 309 470 313 Q 460 317 457 305 Q 454 298 459 286 Z" class="stroke10"/>
    <path d="M 782 327 Q 755 293 701 241 Q 694 234 699 227 Q 706 226 714 229 Q 808 281 852 299 Q 870 303 867 314 Q 863 330 846 350 Q 830 369 807 374 Q 794 375 792 356 Q 793 343 782 327 Z" class="stroke11"/>
    <path d="M 648 220 Q 661 266 672 336 Q 675 358 680 369 Q 687 376 681 386 Q 675 393 647 404 Q 616 420 601 414 Q 591 408 599 393 Q 632 308 574 167 Q 568 158 564 149 Q 528 86 419 21 Q 397 8 424 9 Q 470 6 541 51 Q 601 87 641 195 L 648 220 Z" class="stroke12"/>
    <path d="M 641 195 Q 705 104 789 6 Q 816 -21 947 6 Q 954 9 956 13 Q 957 17 945 24 Q 812 78 747 133 Q 699 172 648 220 C 626 240 624 219 641 195 Z" class="stroke13"/>
    
    
    
    
    
    
    
    
    
    
    
    
    </g>
</svg>