<svg version="1.1" viewBox="0 0 1024 1024" xmlns="http://www.w3.org/2000/svg">
  
  <g transform="scale(1, -1) translate(0, -900)">
    <style type="text/css">
        .stroke1 {fill: #808080;}
        .stroke2 {fill: #808079;}
        .stroke3 {fill: #808078;}
        .stroke4 {fill: #808077;}
        .stroke5 {fill: #808076;}
        .stroke6 {fill: #808075;}
        .stroke7 {fill: #808074;}
        .stroke8 {fill: #808073;}
        .stroke9 {fill: #808072;}
        .stroke10 {fill: #808071;}
        .stroke11 {fill: #808070;}
        .stroke12 {fill: #808069;}
        .stroke13 {fill: #808068;}
        .stroke14 {fill: #808067;}
        .stroke15 {fill: #808066;}
        .stroke16 {fill: #808065;}
        .stroke17 {fill: #808064;}
        .stroke18 {fill: #808063;}
        .stroke19 {fill: #808062;}
        .stroke20 {fill: #808061;}
        text {
            font-family: Helvetica;
            font-size: 50px;
            fill: #808060;
            paint-order: stroke;
            stroke: #000000;
            stroke-width: 4px;
            stroke-linecap: butt;
            stroke-linejoin: miter;
            font-weight: 800;
        }
    </style>

    <path d="M 429 770 Q 450 766 519 776 Q 684 815 690 819 Q 697 825 695 833 Q 690 843 672 849 Q 637 862 600 846 L 517 821 Q 469 809 415 803 C 385 800 399 773 429 770 Z" class="stroke1"/>
    <path d="M 425 360 L 423 490 L 422 517 L 422 627 L 422 652 Q 426 741 429 761 L 429 770 C 430 793 430 793 415 803 L 407 808 Q 363 840 343 836 L 341 835 Q 323 827 334 809 Q 335 806 369 676 Q 374 551 380 351 C 381 321 425 330 425 360 Z" class="stroke2"/>
    <path d="M 422 627 Q 461 615 504 623 L 615 647 Q 630 651 638 654 Q 654 661 651 668 Q 647 676 636 682 Q 612 695 580 688 Q 570 686 555 681 Q 497 661 425 653 Q 422 653 422 652 C 393 646 393 635 422 627 Z" class="stroke3"/>
    <path d="M 423 490 Q 455 480 483 484 L 487 484 L 621 511 Q 629 512 635 514 Q 664 521 657 536 Q 657 539 647 545 Q 619 560 587 553 Q 578 551 561 545 Q 504 525 422 517 C 392 514 394 498 423 490 Z" class="stroke4"/>
    <path d="M 463 326 Q 548 342 830 359 Q 851 360 857 368 Q 859 377 853 386 L 845 394 L 843 396 Q 767 434 716 417 L 425 360 L 380 351 L 137 312 Q 133 311 131 310 Q 120 307 131 290 Q 169 261 208 272 L 290 295 Q 296 302 400 318 L 463 326 Z" class="stroke5"/>
    <path d="M 400 318 Q 377 233 316 120 Q 306 110 293 99 Q 278 88 235 64 Q 211 51 211 43 Q 210 33 216 18 L 218 10 Q 235 -32 265 -19 Q 482 45 580 78 L 643 101 C 671 111 657 124 627 119 L 347 72 Q 343 71 341 71 Q 326 69 338 84 L 484 284 Q 510 310 463 326 C 436 339 408 347 400 318 Z" class="stroke6"/>
    <path d="M 643 101 L 710 14 Q 727 -12 741 -17 Q 747 -18 755 -14 Q 774 0 769 37 Q 766 60 757 78 Q 725 136 578 221 Q 572 225 568 221 Q 561 212 568 196 Q 586 162 627 119 L 643 101 Z" class="stroke7"/>
    
    
    
    
    
    
    </g>
</svg>