<svg version="1.1" viewBox="0 0 1024 1024" xmlns="http://www.w3.org/2000/svg">
  
  <g transform="scale(1, -1) translate(0, -900)">
    <style type="text/css">
        .stroke1 {fill: #808080;}
        .stroke2 {fill: #808079;}
        .stroke3 {fill: #808078;}
        .stroke4 {fill: #808077;}
        .stroke5 {fill: #808076;}
        .stroke6 {fill: #808075;}
        .stroke7 {fill: #808074;}
        .stroke8 {fill: #808073;}
        .stroke9 {fill: #808072;}
        .stroke10 {fill: #808071;}
        .stroke11 {fill: #808070;}
        .stroke12 {fill: #808069;}
        .stroke13 {fill: #808068;}
        .stroke14 {fill: #808067;}
        .stroke15 {fill: #808066;}
        .stroke16 {fill: #808065;}
        .stroke17 {fill: #808064;}
        .stroke18 {fill: #808063;}
        .stroke19 {fill: #808062;}
        .stroke20 {fill: #808061;}
        text {
            font-family: Helvetica;
            font-size: 50px;
            fill: #808060;
            paint-order: stroke;
            stroke: #000000;
            stroke-width: 4px;
            stroke-linecap: butt;
            stroke-linejoin: miter;
            font-weight: 800;
        }
    </style>

    <path d="M 242 733 Q 221 749 197 756 Q 187 757 180 749 Q 176 742 185 731 Q 249 559 201 239 Q 174 121 175 116 Q 175 113 177 108 Q 187 71 199 57 Q 212 42 222 57 Q 255 102 256 318 Q 256 394 257 471 L 257 502 Q 257 548 258 582 L 259 619 Q 260 674 266 698 Q 266 704 265 708 C 266 718 266 718 242 733 Z" class="stroke1"/>
    <path d="M 367 492 Q 368 491 370 488 Q 392 457 412 485 Q 428 504 428 524 Q 431 576 435 633 Q 438 682 457 714 Q 469 733 455 747 Q 436 762 406 777 Q 390 781 375 775 Q 314 750 242 733 C 213 726 237 698 265 708 Q 265 709 267 709 Q 357 740 376 731 Q 386 727 384 696 Q 381 611 377 539 Q 376 521 367 516 C 358 503 358 503 367 492 Z" class="stroke2"/>
    <path d="M 258 582 Q 257 583 260 583 Q 311 593 349 601 Q 373 608 362 620 Q 349 633 322 635 Q 297 636 259 619 C 232 607 230 571 258 582 Z" class="stroke3"/>
    <path d="M 257 471 Q 290 483 367 492 C 397 496 392 500 367 516 Q 361 520 353 524 Q 338 531 313 521 Q 282 511 257 502 C 229 492 229 461 257 471 Z" class="stroke4"/>
    <path d="M 640 789 Q 616 808 590 819 Q 583 822 577 817 Q 568 813 577 800 Q 602 751 600 616 Q 594 556 628 522 Q 629 521 632 519 Q 648 512 652 540 L 655 573 Q 654 615 652 657 L 652 695 Q 652 728 655 758 C 657 776 657 776 640 789 Z" class="stroke5"/>
    <path d="M 813 560 Q 819 134 799 103 Q 793 96 774 101 Q 752 105 728 110 Q 707 117 708 107 Q 760 56 789 21 Q 802 2 819 -4 Q 829 -8 837 2 Q 880 51 879 110 Q 866 323 864 667 Q 863 730 878 756 Q 891 777 879 788 Q 857 807 817 824 Q 793 834 751 811 Q 706 796 640 789 C 610 785 625 754 655 758 Q 718 767 784 776 Q 790 773 795 767 Q 808 754 809 709 Q 810 642 812 580 L 813 560 Z" class="stroke6"/>
    <path d="M 652 657 Q 704 667 744 673 Q 768 679 758 692 Q 745 707 718 709 Q 693 710 652 695 C 624 685 623 651 652 657 Z" class="stroke7"/>
    <path d="M 652 540 Q 658 539 668 541 Q 713 551 809 559 Q 810 560 813 560 C 830 564 830 564 812 580 Q 805 587 792 594 Q 776 603 748 595 Q 697 582 655 573 C 626 567 622 542 652 540 Z" class="stroke8"/>
    <path d="M 538 404 Q 593 417 642 426 Q 667 430 657 444 Q 645 459 619 463 Q 577 467 541 450 L 489 435 Q 419 416 355 398 Q 337 394 360 379 Q 373 369 403 375 L 465 389 L 538 404 Z" class="stroke9"/>
    <path d="M 491 334 Q 491 205 480 164 Q 471 134 493 82 Q 499 67 505 65 Q 511 59 516 66 Q 523 70 531 87 Q 538 106 538 133 Q 537 160 538 404 L 541 450 Q 542 478 549 499 Q 556 512 554 522 Q 548 529 503 557 Q 484 570 467 558 Q 463 554 468 542 Q 487 517 488 489 Q 488 464 489 435 L 491 334 Z" class="stroke10"/>
    <path d="M 465 389 Q 426 293 310 182 Q 300 170 308 169 Q 317 165 327 171 Q 408 210 483 322 Q 486 328 491 334 C 540 402 479 422 465 389 Z" class="stroke11"/>
    <path d="M 570 318 Q 615 285 670 236 Q 686 220 699 217 Q 706 217 713 226 Q 722 239 707 276 Q 689 321 568 345 Q 559 349 559 338 Q 560 326 570 318 Z" class="stroke12"/>
    
    
    
    
    
    
    
    
    
    
    
    </g>
</svg>