<svg version="1.1" viewBox="0 0 1024 1024" xmlns="http://www.w3.org/2000/svg">
  
  <g transform="scale(1, -1) translate(0, -900)">
    <style type="text/css">
        .stroke1 {fill: #808080;}
        .stroke2 {fill: #808079;}
        .stroke3 {fill: #808078;}
        .stroke4 {fill: #808077;}
        .stroke5 {fill: #808076;}
        .stroke6 {fill: #808075;}
        .stroke7 {fill: #808074;}
        .stroke8 {fill: #808073;}
        .stroke9 {fill: #808072;}
        .stroke10 {fill: #808071;}
        .stroke11 {fill: #808070;}
        .stroke12 {fill: #808069;}
        .stroke13 {fill: #808068;}
        .stroke14 {fill: #808067;}
        .stroke15 {fill: #808066;}
        .stroke16 {fill: #808065;}
        .stroke17 {fill: #808064;}
        .stroke18 {fill: #808063;}
        .stroke19 {fill: #808062;}
        .stroke20 {fill: #808061;}
        text {
            font-family: Helvetica;
            font-size: 50px;
            fill: #808060;
            paint-order: stroke;
            stroke: #000000;
            stroke-width: 4px;
            stroke-linecap: butt;
            stroke-linejoin: miter;
            font-weight: 800;
        }
    </style>

    <path d="M 229 707 Q 205 728 177 736 Q 167 739 160 730 Q 156 723 164 712 Q 191 643 191 573 Q 195 288 150 150 Q 141 122 146 100 Q 155 63 167 49 Q 180 34 190 49 Q 227 88 228 258 Q 228 351 231 446 L 232 478 Q 232 524 235 560 L 237 598 Q 240 655 245 680 C 247 693 247 693 229 707 Z" class="stroke1"/>
    <path d="M 334 460 Q 356 429 376 457 Q 388 472 394 535 Q 398 640 422 678 Q 435 697 420 711 Q 401 727 371 742 Q 355 748 340 741 Q 288 720 229 707 C 200 700 216 671 245 680 Q 323 704 340 696 Q 349 690 348 662 Q 342 497 332 489 C 325 470 325 470 334 460 Z" class="stroke2"/>
    <path d="M 235 560 Q 278 569 313 574 Q 335 581 326 593 Q 314 606 288 608 Q 269 609 237 598 C 209 588 206 554 235 560 Z" class="stroke3"/>
    <path d="M 231 446 Q 238 445 248 448 Q 272 454 334 460 C 363 463 355 470 332 489 Q 328 493 319 497 Q 301 504 232 478 C 204 467 201 448 231 446 Z" class="stroke4"/>
    <path d="M 613 787 Q 591 806 566 815 Q 559 818 553 813 Q 544 809 553 796 Q 578 747 576 616 Q 570 556 604 522 Q 605 521 608 519 Q 624 512 629 543 L 631 576 Q 630 613 628 652 L 628 680 Q 628 719 631 755 C 632 771 632 771 613 787 Z" class="stroke5"/>
    <path d="M 786 559 Q 798 126 774 85 Q 768 78 748 83 L 692 95 Q 671 101 672 91 Q 733 39 766 3 Q 779 -16 796 -21 Q 806 -25 815 -15 Q 857 43 855 94 Q 840 316 837 675 Q 834 736 849 764 Q 862 785 849 795 Q 827 814 787 830 Q 768 837 752 831 Q 701 801 613 787 C 584 782 602 748 631 755 Q 688 770 740 781 Q 759 785 767 775 Q 782 762 781 715 Q 782 651 785 589 L 786 559 Z" class="stroke6"/>
    <path d="M 628 652 Q 689 661 736 669 Q 758 673 749 685 Q 739 698 715 702 Q 672 705 628 680 C 602 665 598 648 628 652 Z" class="stroke7"/>
    <path d="M 629 543 Q 659 553 786 559 C 816 560 810 572 785 589 Q 781 592 776 595 Q 760 604 732 597 Q 677 584 631 576 C 601 571 600 535 629 543 Z" class="stroke8"/>
    <path d="M 452 507 Q 497 453 518 453 Q 531 452 536 469 Q 537 481 528 499 Q 510 526 455 532 Q 446 533 446 523 Q 445 516 452 507 Z" class="stroke9"/>
    <path d="M 552 394 Q 595 403 633 409 Q 643 408 650 420 Q 651 430 630 439 Q 597 455 514 427 Q 502 426 492 421 Q 488 421 326 386 Q 301 382 322 367 Q 353 345 378 353 Q 433 369 507 384 L 552 394 Z" class="stroke10"/>
    <path d="M 515 253 Q 519 260 523 266 Q 553 323 573 342 Q 586 355 575 367 Q 563 385 552 394 C 530 415 509 414 507 384 Q 507 341 466 273 L 446 243 Q 382 165 269 134 Q 256 130 265 123 Q 313 108 387 139 Q 441 160 488 216 L 515 253 Z" class="stroke11"/>
    <path d="M 488 216 Q 542 182 602 139 Q 618 126 629 125 Q 636 126 640 134 Q 647 146 632 177 Q 617 210 515 253 L 466 273 Q 411 295 378 305 Q 371 308 371 298 Q 372 288 382 282 Q 413 264 446 243 L 488 216 Z" class="stroke12"/>
    
    
    
    
    
    
    
    
    
    
    
    </g>
</svg>