<svg version="1.1" viewBox="0 0 1024 1024" xmlns="http://www.w3.org/2000/svg">
  
  <g transform="scale(1, -1) translate(0, -900)">
    <style type="text/css">
        .stroke1 {fill: #808080;}
        .stroke2 {fill: #808079;}
        .stroke3 {fill: #808078;}
        .stroke4 {fill: #808077;}
        .stroke5 {fill: #808076;}
        .stroke6 {fill: #808075;}
        .stroke7 {fill: #808074;}
        .stroke8 {fill: #808073;}
        .stroke9 {fill: #808072;}
        .stroke10 {fill: #808071;}
        .stroke11 {fill: #808070;}
        .stroke12 {fill: #808069;}
        .stroke13 {fill: #808068;}
        .stroke14 {fill: #808067;}
        .stroke15 {fill: #808066;}
        .stroke16 {fill: #808065;}
        .stroke17 {fill: #808064;}
        .stroke18 {fill: #808063;}
        .stroke19 {fill: #808062;}
        .stroke20 {fill: #808061;}
        text {
            font-family: Helvetica;
            font-size: 50px;
            fill: #808060;
            paint-order: stroke;
            stroke: #000000;
            stroke-width: 4px;
            stroke-linecap: butt;
            stroke-linejoin: miter;
            font-weight: 800;
        }
    </style>

    <path d="M 228 745 L 226 747 Q 202 768 173 776 Q 163 777 156 769 Q 152 762 160 751 Q 208 634 187 366 Q 186 360 186 353 Q 182 265 152 177 Q 145 149 149 128 Q 159 91 171 77 Q 184 62 194 77 Q 228 123 230 373 Q 230 436 231 499 L 231 529 Q 231 572 233 606 L 234 641 Q 234 692 241 719 C 244 733 244 733 228 745 Z" class="stroke1"/>
    <path d="M 326 515 Q 327 512 331 507 Q 352 479 371 504 Q 383 519 389 569 Q 398 695 418 727 Q 428 745 416 758 Q 398 771 369 786 Q 354 792 340 785 Q 288 760 228 745 C 199 737 213 709 241 719 Q 245 722 252 723 Q 280 733 301 740 Q 331 750 342 744 Q 352 740 350 710 Q 338 545 333 538 C 327 513 325 517 326 515 Z" class="stroke2"/>
    <path d="M 233 606 Q 278 612 309 618 Q 331 625 322 637 Q 309 650 284 651 Q 265 652 234 641 C 206 631 203 602 233 606 Z" class="stroke3"/>
    <path d="M 231 499 Q 237 499 245 501 Q 270 508 326 515 C 356 519 358 522 333 538 Q 327 542 317 548 Q 299 555 231 529 C 203 518 201 498 231 499 Z" class="stroke4"/>
    <path d="M 607 801 Q 591 813 574 819 Q 568 822 563 817 Q 556 813 563 801 Q 588 747 586 637 Q 583 574 613 553 Q 614 553 616 551 Q 629 545 633 566 L 636 599 Q 635 617 632 637 Q 632 652 631 668 L 631 700 Q 631 736 633 771 C 634 782 632 784 607 801 Z" class="stroke5"/>
    <path d="M 802 580 Q 811 94 785 53 Q 784 53 712 56 Q 690 60 693 51 Q 748 5 779 -27 Q 794 -46 811 -51 Q 821 -55 829 -44 Q 871 14 867 66 Q 854 304 852 691 Q 851 752 865 780 Q 878 801 865 811 Q 843 830 803 846 Q 782 855 726 826 Q 683 811 607 801 C 577 797 604 765 633 771 Q 642 772 653 775 Q 705 785 756 798 Q 775 801 783 791 Q 799 776 798 727 Q 799 663 801 603 L 802 580 Z" class="stroke6"/>
    <path d="M 631 668 Q 689 680 732 685 Q 754 689 745 701 Q 735 714 711 718 Q 672 721 631 700 C 604 687 602 662 631 668 Z" class="stroke7"/>
    <path d="M 633 566 Q 637 566 644 567 Q 692 576 802 580 C 830 581 825 585 801 603 Q 768 630 710 611 Q 670 604 636 599 C 606 595 603 564 633 566 Z" class="stroke8"/>
    <path d="M 466 546 Q 482 533 498 516 Q 511 506 524 508 Q 534 509 537 520 Q 540 533 531 559 Q 522 578 459 587 Q 446 590 440 587 Q 436 583 438 572 Q 442 562 466 546 Z" class="stroke9"/>
    <path d="M 439 430 Q 514 449 642 465 Q 651 464 658 475 Q 658 484 640 492 Q 613 511 516 480 Q 512 480 510 479 Q 459 467 351 451 Q 329 448 346 434 Q 370 418 411 423 L 439 430 Z" class="stroke10"/>
    <path d="M 481 309 Q 444 310 414 310 Q 395 310 405 322 Q 433 349 460 367 Q 473 379 472 385 Q 471 398 439 430 C 418 451 408 453 411 423 Q 418 399 375 340 Q 368 330 352 320 Q 336 310 337 299 Q 338 284 349 268 Q 356 258 367 264 Q 389 274 458 287 Q 459 288 462 287 C 492 290 511 308 481 309 Z" class="stroke11"/>
    <path d="M 462 287 Q 411 230 296 142 Q 278 130 301 133 Q 379 137 535 303 Q 538 315 594 370 Q 603 380 601 388 Q 598 400 576 406 Q 552 415 542 412 Q 536 411 534 400 Q 528 372 481 309 L 462 287 Z" class="stroke12"/>
    <path d="M 579 205 Q 609 241 641 270 Q 650 280 648 288 Q 647 298 624 306 Q 602 315 591 313 Q 584 312 582 301 Q 564 226 388 94 Q 370 82 393 84 Q 444 87 560 187 L 579 205 Z" class="stroke13"/>
    <path d="M 560 187 Q 566 180 580 169 Q 613 144 646 111 Q 656 101 669 102 Q 678 102 681 113 Q 685 123 678 147 Q 674 168 642 183 Q 612 196 579 205 C 550 213 540 209 560 187 Z" class="stroke14"/>
    
    
    
    
    
    
    
    
    
    
    
    
    
    </g>
</svg>