<svg version="1.1" viewBox="0 0 1024 1024" xmlns="http://www.w3.org/2000/svg">
  
  <g transform="scale(1, -1) translate(0, -900)">
    <style type="text/css">
        .stroke1 {fill: #808080;}
        .stroke2 {fill: #808079;}
        .stroke3 {fill: #808078;}
        .stroke4 {fill: #808077;}
        .stroke5 {fill: #808076;}
        .stroke6 {fill: #808075;}
        .stroke7 {fill: #808074;}
        .stroke8 {fill: #808073;}
        .stroke9 {fill: #808072;}
        .stroke10 {fill: #808071;}
        .stroke11 {fill: #808070;}
        .stroke12 {fill: #808069;}
        .stroke13 {fill: #808068;}
        .stroke14 {fill: #808067;}
        .stroke15 {fill: #808066;}
        .stroke16 {fill: #808065;}
        .stroke17 {fill: #808064;}
        .stroke18 {fill: #808063;}
        .stroke19 {fill: #808062;}
        .stroke20 {fill: #808061;}
        text {
            font-family: Helvetica;
            font-size: 50px;
            fill: #808060;
            paint-order: stroke;
            stroke: #000000;
            stroke-width: 4px;
            stroke-linecap: butt;
            stroke-linejoin: miter;
            font-weight: 800;
        }
    </style>

    <path d="M 230 720 Q 206 739 177 748 Q 167 749 160 740 Q 156 734 165 723 Q 207 626 198 355 Q 188 211 163 133 Q 156 105 160 83 Q 170 46 183 33 Q 196 18 206 33 Q 239 75 240 226 Q 239 349 238 466 L 238 495 Q 238 540 239 574 L 240 609 Q 240 666 246 693 C 248 708 248 708 230 720 Z" class="stroke1"/>
    <path d="M 339 480 Q 340 479 342 476 Q 364 445 384 472 Q 396 488 403 546 Q 406 658 432 697 Q 444 716 430 730 Q 412 745 382 761 Q 366 765 351 759 Q 293 735 230 720 C 201 713 218 682 246 693 Q 330 727 352 716 Q 362 710 360 681 Q 351 516 341 506 C 334 486 334 486 339 480 Z" class="stroke2"/>
    <path d="M 239 574 Q 284 580 317 586 Q 339 593 330 605 Q 317 618 292 620 Q 271 620 240 609 C 212 599 209 570 239 574 Z" class="stroke3"/>
    <path d="M 238 466 Q 245 465 257 468 Q 282 475 339 480 C 369 483 366 490 341 506 Q 335 510 329 513 Q 314 520 289 511 Q 261 501 238 495 C 209 487 208 468 238 466 Z" class="stroke4"/>
    <path d="M 607 773 Q 591 785 574 791 Q 568 794 563 789 Q 556 785 563 773 Q 588 725 586 601 Q 583 538 613 517 Q 614 517 616 515 Q 629 509 634 532 L 636 564 Q 635 582 632 601 Q 632 620 631 645 L 631 673 Q 631 706 633 739 C 634 754 632 756 607 773 Z" class="stroke5"/>
    <path d="M 792 551 Q 808 83 783 43 Q 779 36 756 41 Q 731 45 706 50 Q 682 57 684 47 Q 742 -8 773 -47 Q 789 -69 807 -74 Q 817 -78 827 -67 Q 872 -10 871 53 Q 855 281 848 652 Q 845 719 861 749 Q 874 771 860 783 Q 835 805 792 821 Q 771 828 754 821 Q 696 785 607 773 C 577 768 604 732 633 739 Q 643 740 655 744 Q 698 754 742 767 Q 761 771 771 760 Q 786 747 791 579 L 792 551 Z" class="stroke6"/>
    <path d="M 631 645 Q 691 654 736 661 Q 758 665 749 677 Q 739 690 715 694 Q 685 697 631 673 C 604 661 601 641 631 645 Z" class="stroke7"/>
    <path d="M 634 532 Q 640 532 648 533 Q 693 543 792 551 C 822 553 815 562 791 579 Q 773 597 674 572 Q 653 569 636 564 C 607 556 604 531 634 532 Z" class="stroke8"/>
    <path d="M 507 428 Q 580 449 585 452 Q 592 459 587 466 Q 580 476 555 480 Q 533 483 510 473 L 462 456 Q 437 449 409 445 Q 378 438 402 424 Q 426 414 465 416 L 507 428 Z" class="stroke9"/>
    <path d="M 504 373 Q 505 401 507 428 L 510 473 Q 511 504 516 520 Q 523 535 514 544 Q 489 563 467 569 Q 457 570 446 562 Q 442 558 447 549 Q 457 534 462 456 L 465 416 Q 466 391 468 364 C 470 334 503 343 504 373 Z" class="stroke10"/>
    <path d="M 476 333 Q 531 345 621 350 Q 660 350 664 359 Q 668 368 655 377 Q 607 404 552 386 Q 530 380 504 373 L 468 364 Q 467 365 465 364 Q 398 351 316 333 Q 300 332 313 319 Q 323 309 338 306 Q 354 303 366 307 Q 403 320 445 327 L 476 333 Z" class="stroke11"/>
    <path d="M 507 211 Q 591 233 592 234 Q 599 241 595 249 Q 588 259 561 265 Q 533 269 508 258 C 480 247 469 243 460 242 Q 457 243 455 242 Q 427 235 391 230 Q 357 223 382 209 Q 415 193 462 200 L 507 211 Z" class="stroke12"/>
    <path d="M 504 139 Q 505 178 507 211 L 508 258 Q 508 270 510 284 Q 516 300 508 309 Q 492 325 476 333 C 450 347 437 354 445 327 Q 457 287 460 242 L 462 200 Q 462 172 464 132 C 465 102 503 109 504 139 Z" class="stroke13"/>
    <path d="M 464 132 Q 388 122 298 107 Q 280 106 294 91 Q 306 79 322 75 Q 340 71 354 75 Q 474 106 670 106 Q 686 107 691 114 Q 695 124 681 136 Q 627 172 581 155 Q 548 149 504 139 L 464 132 Z" class="stroke14"/>
    
    
    
    
    
    
    
    
    
    
    
    
    
    </g>
</svg>