<svg version="1.1" viewBox="0 0 1024 1024" xmlns="http://www.w3.org/2000/svg">
  
  <g transform="scale(1, -1) translate(0, -900)">
    <style type="text/css">
        .stroke1 {fill: #808080;}
        .stroke2 {fill: #808079;}
        .stroke3 {fill: #808078;}
        .stroke4 {fill: #808077;}
        .stroke5 {fill: #808076;}
        .stroke6 {fill: #808075;}
        .stroke7 {fill: #808074;}
        .stroke8 {fill: #808073;}
        .stroke9 {fill: #808072;}
        .stroke10 {fill: #808071;}
        .stroke11 {fill: #808070;}
        .stroke12 {fill: #808069;}
        .stroke13 {fill: #808068;}
        .stroke14 {fill: #808067;}
        .stroke15 {fill: #808066;}
        .stroke16 {fill: #808065;}
        .stroke17 {fill: #808064;}
        .stroke18 {fill: #808063;}
        .stroke19 {fill: #808062;}
        .stroke20 {fill: #808061;}
        text {
            font-family: Helvetica;
            font-size: 50px;
            fill: #808060;
            paint-order: stroke;
            stroke: #000000;
            stroke-width: 4px;
            stroke-linecap: butt;
            stroke-linejoin: miter;
            font-weight: 800;
        }
    </style>

    <path d="M 251 732 Q 224 759 189 768 Q 179 771 172 761 Q 168 755 176 743 Q 222 632 201 347 Q 200 341 200 334 Q 194 243 165 153 Q 156 125 161 104 Q 171 67 183 53 Q 196 38 206 53 Q 239 90 243 245 Q 243 362 245 478 L 245 507 Q 245 550 247 583 L 248 619 Q 251 679 256 705 C 259 725 259 725 251 732 Z" class="stroke1"/>
    <path d="M 353 494 Q 353 493 355 491 Q 376 463 395 488 Q 404 500 413 545 Q 422 675 443 707 Q 455 725 441 738 Q 423 753 395 768 Q 380 772 365 767 Q 313 745 251 732 C 222 726 227 698 256 705 Q 358 729 366 725 Q 375 719 373 691 Q 369 609 363 540 Q 362 522 351 517 C 342 508 342 508 353 494 Z" class="stroke2"/>
    <path d="M 247 583 Q 292 592 326 598 Q 348 605 338 617 Q 325 630 300 631 Q 279 631 248 619 C 220 608 218 577 247 583 Z" class="stroke3"/>
    <path d="M 245 478 Q 270 487 353 494 C 376 496 374 497 351 517 Q 347 521 339 525 Q 326 531 245 507 C 216 499 217 469 245 478 Z" class="stroke4"/>
    <path d="M 586 782 Q 574 791 561 795 Q 555 798 550 793 Q 543 789 550 779 Q 577 724 572 606 Q 569 549 599 527 L 600 526 Q 613 522 616 543 L 618 575 Q 617 587 613 652 L 613 681 Q 613 715 615 751 C 616 762 611 765 586 782 Z" class="stroke5"/>
    <path d="M 777 560 Q 789 103 764 63 Q 760 56 737 61 Q 712 65 685 71 Q 663 78 664 67 Q 724 15 756 -22 Q 771 -43 788 -48 Q 798 -52 807 -41 Q 850 13 849 73 Q 834 299 830 666 Q 827 730 843 758 Q 856 780 843 791 Q 818 812 778 828 Q 754 837 710 812 Q 665 793 586 782 C 556 777 585 746 615 751 Q 625 751 640 755 Q 685 765 729 777 Q 748 781 757 770 Q 772 757 772 708 Q 773 644 776 583 L 777 560 Z" class="stroke6"/>
    <path d="M 613 652 Q 671 659 715 665 Q 737 669 729 681 Q 719 694 695 698 Q 662 702 613 681 C 585 669 583 648 613 652 Z" class="stroke7"/>
    <path d="M 616 543 Q 622 542 632 544 Q 677 553 777 560 C 801 562 799 564 776 583 Q 749 610 660 584 Q 638 580 618 575 C 589 568 586 545 616 543 Z" class="stroke8"/>
    <path d="M 377 400 Q 367 404 338 406 Q 328 407 324 403 Q 320 397 329 384 Q 351 350 372 290 Q 376 271 389 261 Q 407 243 410 257 Q 411 264 411 276 L 406 305 Q 394 353 391 372 C 387 397 387 397 377 400 Z" class="stroke9"/>
    <path d="M 631 335 Q 652 374 676 383 Q 692 398 680 414 Q 667 426 623 450 Q 608 457 589 452 Q 553 439 522 428 L 472 416 Q 426 407 377 400 C 347 396 362 364 391 372 Q 412 379 474 389 L 519 398 Q 586 416 599 405 Q 603 399 601 389 Q 594 364 584 343 C 572 316 616 309 631 335 Z" class="stroke10"/>
    <path d="M 514 293 Q 566 303 638 310 Q 647 311 648 318 Q 648 324 631 335 L 584 343 Q 583 344 581 343 Q 547 336 516 326 L 476 318 Q 439 311 406 305 C 376 300 381 275 411 276 Q 417 276 425 277 Q 446 283 477 288 L 514 293 Z" class="stroke11"/>
    <path d="M 510 217 Q 511 256 514 293 L 516 326 Q 517 363 519 398 L 522 428 Q 523 449 532 476 Q 535 486 518 497 Q 490 512 470 515 Q 457 518 450 510 Q 444 504 451 492 Q 466 471 472 416 L 474 389 Q 475 355 476 318 L 477 288 Q 477 251 476 209 C 475 179 509 187 510 217 Z" class="stroke12"/>
    <path d="M 594 236 Q 552 227 510 217 L 476 209 Q 425 200 370 188 Q 354 184 325 188 Q 313 187 311 179 Q 308 167 316 160 Q 335 144 361 125 Q 370 122 381 129 Q 420 154 606 216 C 634 226 623 242 594 236 Z" class="stroke13"/>
    <path d="M 606 216 Q 657 138 663 134 Q 670 131 677 138 Q 689 145 686 183 Q 686 216 636 248 Q 605 267 588 277 Q 581 283 578 273 Q 575 264 594 236 L 606 216 Z" class="stroke14"/>
    
    
    
    
    
    
    
    
    
    
    
    
    
    </g>
</svg>