<svg version="1.1" viewBox="0 0 1024 1024" xmlns="http://www.w3.org/2000/svg">
  
  <g transform="scale(1, -1) translate(0, -900)">
    <style type="text/css">
        .stroke1 {fill: #808080;}
        .stroke2 {fill: #808079;}
        .stroke3 {fill: #808078;}
        .stroke4 {fill: #808077;}
        .stroke5 {fill: #808076;}
        .stroke6 {fill: #808075;}
        .stroke7 {fill: #808074;}
        .stroke8 {fill: #808073;}
        .stroke9 {fill: #808072;}
        .stroke10 {fill: #808071;}
        .stroke11 {fill: #808070;}
        .stroke12 {fill: #808069;}
        .stroke13 {fill: #808068;}
        .stroke14 {fill: #808067;}
        .stroke15 {fill: #808066;}
        .stroke16 {fill: #808065;}
        .stroke17 {fill: #808064;}
        .stroke18 {fill: #808063;}
        .stroke19 {fill: #808062;}
        .stroke20 {fill: #808061;}
        text {
            font-family: Helvetica;
            font-size: 50px;
            fill: #808060;
            paint-order: stroke;
            stroke: #000000;
            stroke-width: 4px;
            stroke-linecap: butt;
            stroke-linejoin: miter;
            font-weight: 800;
        }
    </style>

    <path d="M 230 738 Q 205 759 176 768 Q 166 771 158 761 Q 154 755 162 743 Q 213 610 183 317 Q 176 223 145 130 Q 135 100 140 79 Q 150 40 163 26 Q 175 10 186 25 Q 222 62 227 224 Q 230 434 233 514 L 234 546 Q 234 585 237 615 L 239 647 Q 240 687 246 706 L 246 714 C 248 725 248 725 230 738 Z" class="stroke1"/>
    <path d="M 327 528 Q 328 525 332 520 Q 351 490 372 515 Q 384 528 391 569 Q 400 683 424 717 Q 436 733 423 748 Q 407 763 378 778 Q 363 784 349 778 Q 294 754 230 738 C 201 731 217 705 246 714 Q 337 742 350 738 Q 359 731 341 569 Q 340 553 332 548 C 323 535 323 535 327 528 Z" class="stroke2"/>
    <path d="M 237 615 Q 280 625 314 629 Q 335 635 326 645 Q 316 658 292 659 Q 271 660 239 647 C 211 636 208 608 237 615 Z" class="stroke3"/>
    <path d="M 233 514 Q 258 523 327 528 C 352 530 352 530 332 548 Q 326 554 313 561 Q 298 568 234 546 C 206 536 205 504 233 514 Z" class="stroke4"/>
    <path d="M 622 807 Q 612 814 582 823 Q 572 827 567 823 Q 560 817 567 801 Q 588 734 592 628 Q 591 597 606 573 Q 619 551 627 564 Q 631 574 633 587 L 635 616 Q 635 637 632 679 L 631 705 Q 630 754 629 774 C 628 804 628 804 622 807 Z" class="stroke5"/>
    <path d="M 788 601 Q 804 112 776 67 Q 772 60 749 65 Q 724 69 697 75 Q 675 82 676 71 Q 736 19 768 -18 Q 783 -39 800 -44 Q 810 -48 819 -37 Q 862 17 861 77 Q 846 308 842 681 Q 841 747 856 775 Q 869 797 856 808 Q 832 829 791 845 Q 772 854 755 847 Q 700 819 622 807 C 592 802 599 769 629 774 Q 642 774 741 795 Q 760 798 769 786 Q 784 771 784 723 Q 785 674 787 625 L 788 601 Z" class="stroke6"/>
    <path d="M 632 679 Q 693 686 739 691 Q 760 694 753 705 Q 743 718 721 723 Q 684 729 631 705 C 604 693 602 676 632 679 Z" class="stroke7"/>
    <path d="M 633 587 Q 642 587 653 588 Q 695 597 788 601 C 818 602 812 608 787 625 Q 781 629 774 635 Q 759 642 733 636 Q 679 623 635 616 C 605 611 603 587 633 587 Z" class="stroke8"/>
    <path d="M 497 550 Q 497 556 512 598 Q 515 605 502 618 Q 478 634 461 638 Q 451 642 444 636 Q 438 632 443 620 Q 453 602 451 539 L 450 512 Q 449 484 446 453 C 443 423 472 429 478 458 Q 484 489 491 520 L 497 550 Z" class="stroke9"/>
    <path d="M 583 477 Q 595 505 607 515 Q 625 534 607 546 Q 592 555 572 569 Q 557 578 542 570 Q 523 557 497 550 L 451 539 Q 426 535 398 532 Q 388 532 389 526 Q 390 522 401 515 Q 417 505 447 512 Q 448 513 450 512 L 491 520 Q 504 524 519 526 Q 541 530 547 521 Q 551 518 547 501 Q 544 486 540 469 C 533 440 571 450 583 477 Z" class="stroke10"/>
    <path d="M 446 453 Q 379 446 305 433 Q 289 432 301 418 Q 322 397 353 404 Q 485 444 698 444 L 700 444 Q 715 444 719 450 Q 723 460 710 469 Q 665 502 616 485 Q 601 482 583 477 L 540 469 Q 515 466 491 461 Q 484 461 478 458 L 446 453 Z" class="stroke11"/>
    <path d="M 391 384 Q 384 388 357 390 Q 348 391 346 388 Q 342 384 349 372 Q 367 344 382 295 Q 386 280 395 272 Q 410 256 413 268 Q 414 274 414 281 L 410 308 Q 403 342 400 359 C 396 382 396 382 391 384 Z" class="stroke12"/>
    <path d="M 580 327 Q 596 351 611 357 Q 624 370 614 385 Q 554 433 504 408 Q 441 390 391 384 C 361 380 370 357 400 359 Q 410 359 424 362 Q 533 381 539 376 Q 543 372 542 364 Q 539 348 535 334 C 527 305 563 302 580 327 Z" class="stroke13"/>
    <path d="M 500 294 Q 534 300 586 304 Q 595 305 596 312 Q 596 316 580 327 L 535 334 L 534 334 Q 467 318 410 308 C 380 303 384 282 414 281 Q 421 280 430 282 Q 440 285 455 287 L 500 294 Z" class="stroke14"/>
    <path d="M 517 217 Q 551 224 590 229 Q 621 235 626 239 Q 633 245 630 251 Q 626 261 603 267 Q 587 270 522 254 L 468 243 Q 431 239 391 235 Q 363 232 383 219 Q 413 198 458 209 Q 462 209 468 209 L 517 217 Z" class="stroke15"/>
    <path d="M 513 131 Q 568 141 682 139 Q 700 139 707 149 Q 711 156 695 166 Q 647 200 586 178 Q 550 175 514 164 L 468 155 Q 425 148 383 136 Q 358 127 365 150 Q 380 193 381 194 Q 375 201 346 215 Q 333 222 323 216 Q 316 209 323 198 Q 347 164 308 123 Q 301 114 303 104 Q 304 94 319 84 Q 331 77 341 87 Q 387 114 468 124 L 513 131 Z" class="stroke16"/>
    <path d="M 468 124 Q 468 -17 480 -38 Q 484 -42 490 -41 Q 496 -38 500 -27 Q 512 7 512 114 Q 512 123 513 131 L 514 164 Q 515 188 517 217 L 522 254 L 524 262 Q 527 275 516 284 Q 507 290 500 294 C 474 310 440 313 455 287 L 456 286 Q 457 282 461 277 Q 467 268 468 243 L 468 209 Q 468 184 468 155 L 468 124 Z" class="stroke17"/>
    
    
    
    
    
    
    
    
    
    
    
    
    
    
    
    
    </g>
</svg>