<svg version="1.1" viewBox="0 0 1024 1024" xmlns="http://www.w3.org/2000/svg">
  
  <g transform="scale(1, -1) translate(0, -900)">
    <style type="text/css">
        .stroke1 {fill: #808080;}
        .stroke2 {fill: #808079;}
        .stroke3 {fill: #808078;}
        .stroke4 {fill: #808077;}
        .stroke5 {fill: #808076;}
        .stroke6 {fill: #808075;}
        .stroke7 {fill: #808074;}
        .stroke8 {fill: #808073;}
        .stroke9 {fill: #808072;}
        .stroke10 {fill: #808071;}
        .stroke11 {fill: #808070;}
        .stroke12 {fill: #808069;}
        .stroke13 {fill: #808068;}
        .stroke14 {fill: #808067;}
        .stroke15 {fill: #808066;}
        .stroke16 {fill: #808065;}
        .stroke17 {fill: #808064;}
        .stroke18 {fill: #808063;}
        .stroke19 {fill: #808062;}
        .stroke20 {fill: #808061;}
        text {
            font-family: Helvetica;
            font-size: 50px;
            fill: #808060;
            paint-order: stroke;
            stroke: #000000;
            stroke-width: 4px;
            stroke-linecap: butt;
            stroke-linejoin: miter;
            font-weight: 800;
        }
    </style>

    <path d="M 313 760 Q 338 729 365 698 Q 386 679 405 677 Q 421 676 429 697 Q 432 713 421 737 Q 409 756 381 768 Q 338 789 319 792 Q 309 795 307 781 Q 304 771 313 760 Z" class="stroke1"/>
    <path d="M 189 661 Q 244 529 205 243 Q 198 197 182 149 Q 163 86 202 42 Q 215 26 227 42 Q 261 84 263 251 Q 263 539 276 625 Q 279 646 260 657 Q 233 679 203 688 Q 191 689 184 680 Q 180 673 189 661 Z" class="stroke2"/>
    <path d="M 518 742 Q 502 742 506 732 Q 513 719 536 709 Q 551 700 574 706 Q 766 761 786 732 Q 796 716 802 657 Q 820 416 807 143 Q 806 103 791 91 Q 772 78 678 103 Q 660 104 662 95 Q 663 88 677 82 Q 759 33 804 -7 Q 826 -28 840 -24 Q 853 -21 864 9 Q 880 57 877 126 Q 856 508 858 651 Q 859 691 871 715 Q 883 737 872 749 Q 862 765 813 789 Q 791 801 728 780 Q 599 750 518 742 Z" class="stroke3"/>
    <path d="M 412 483 Q 399 487 371 493 Q 358 497 355 491 Q 348 485 357 468 Q 385 405 403 303 Q 406 273 423 252 Q 442 230 447 245 Q 453 261 451 286 L 447 320 Q 431 420 429 451 C 427 479 427 479 412 483 Z" class="stroke4"/>
    <path d="M 648 346 Q 672 433 705 458 Q 721 477 707 495 Q 638 552 580 523 Q 508 499 412 483 C 382 478 400 445 429 451 L 585 482 Q 603 486 610 479 Q 620 470 618 450 Q 611 395 598 349 C 590 320 640 317 648 346 Z" class="stroke5"/>
    <path d="M 451 286 Q 455 286 463 287 Q 527 300 663 310 Q 673 311 675 320 Q 675 327 648 346 C 633 357 627 356 598 349 Q 514 330 447 320 C 417 315 421 284 451 286 Z" class="stroke6"/>
    
    
    
    
    
    </g>
</svg>