<svg version="1.1" viewBox="0 0 1024 1024" xmlns="http://www.w3.org/2000/svg">
  
  <g transform="scale(1, -1) translate(0, -900)">
    <style type="text/css">
        .stroke1 {fill: #808080;}
        .stroke2 {fill: #808079;}
        .stroke3 {fill: #808078;}
        .stroke4 {fill: #808077;}
        .stroke5 {fill: #808076;}
        .stroke6 {fill: #808075;}
        .stroke7 {fill: #808074;}
        .stroke8 {fill: #808073;}
        .stroke9 {fill: #808072;}
        .stroke10 {fill: #808071;}
        .stroke11 {fill: #808070;}
        .stroke12 {fill: #808069;}
        .stroke13 {fill: #808068;}
        .stroke14 {fill: #808067;}
        .stroke15 {fill: #808066;}
        .stroke16 {fill: #808065;}
        .stroke17 {fill: #808064;}
        .stroke18 {fill: #808063;}
        .stroke19 {fill: #808062;}
        .stroke20 {fill: #808061;}
        text {
            font-family: Helvetica;
            font-size: 50px;
            fill: #808060;
            paint-order: stroke;
            stroke: #000000;
            stroke-width: 4px;
            stroke-linecap: butt;
            stroke-linejoin: miter;
            font-weight: 800;
        }
    </style>

    <path d="M 306 740 Q 366 655 392 651 Q 405 648 414 666 Q 417 679 409 700 Q 399 722 373 735 Q 331 760 313 767 Q 303 770 302 758 Q 299 749 306 740 Z" class="stroke1"/>
    <path d="M 185 658 Q 239 516 188 216 Q 178 168 161 118 Q 143 64 176 21 Q 188 6 198 21 Q 237 60 238 221 Q 244 537 262 623 Q 265 642 248 652 Q 226 671 198 681 Q 188 684 181 675 Q 177 669 185 658 Z" class="stroke2"/>
    <path d="M 519 746 Q 503 747 507 736 Q 514 723 536 713 Q 548 704 611 718 Q 746 754 762 723 Q 793 674 788 263 Q 787 190 783 114 Q 782 72 767 61 Q 751 52 683 76 Q 665 80 666 71 Q 666 64 679 56 Q 740 4 772 -36 Q 793 -57 806 -54 Q 819 -51 832 -22 Q 848 24 849 94 Q 831 494 834 642 Q 835 682 847 707 Q 860 729 850 741 Q 840 757 791 782 Q 770 794 710 776 Q 590 754 519 746 Z" class="stroke3"/>
    <path d="M 561 403 Q 568 419 581 468 Q 591 511 620 539 Q 635 554 620 566 Q 604 579 561 597 Q 546 604 441 572 Q 413 563 394 560 Q 379 559 377 554 Q 374 550 390 540 Q 418 528 446 536 Q 516 561 540 554 Q 547 550 545 527 Q 535 442 528 423 Q 522 410 527 397 C 533 368 550 375 561 403 Z" class="stroke4"/>
    <path d="M 422 336 Q 461 366 591 379 Q 616 380 627 370 Q 637 361 625 326 Q 613 232 592 199 Q 585 189 563 191 Q 532 201 504 209 Q 491 213 491 207 Q 491 203 498 196 Q 549 150 567 117 Q 574 101 590 109 Q 641 134 649 179 Q 662 237 673 302 Q 680 333 695 360 Q 705 373 696 384 Q 681 400 651 419 Q 633 429 609 419 Q 584 407 561 403 L 527 397 Q 494 391 449 380 Q 434 376 431 388 Q 440 449 448 460 Q 454 472 449 481 Q 439 496 419 506 Q 406 513 399 507 Q 395 504 399 494 Q 408 461 387 375 Q 386 374 385 370 Q 379 354 391 341 Q 406 326 422 336 Z" class="stroke5"/>
    <path d="M 304 269 Q 294 268 291 261 Q 288 252 300 242 Q 336 220 369 229 Q 469 260 566 272 Q 581 273 581 279 Q 582 291 567 298 Q 545 308 525 305 Q 366 274 304 269 Z" class="stroke6"/>
    
    
    
    
    
    </g>
</svg>