<svg version="1.1" viewBox="0 0 1024 1024" xmlns="http://www.w3.org/2000/svg">
  
  <g transform="scale(1, -1) translate(0, -900)">
    <style type="text/css">
        .stroke1 {fill: #808080;}
        .stroke2 {fill: #808079;}
        .stroke3 {fill: #808078;}
        .stroke4 {fill: #808077;}
        .stroke5 {fill: #808076;}
        .stroke6 {fill: #808075;}
        .stroke7 {fill: #808074;}
        .stroke8 {fill: #808073;}
        .stroke9 {fill: #808072;}
        .stroke10 {fill: #808071;}
        .stroke11 {fill: #808070;}
        .stroke12 {fill: #808069;}
        .stroke13 {fill: #808068;}
        .stroke14 {fill: #808067;}
        .stroke15 {fill: #808066;}
        .stroke16 {fill: #808065;}
        .stroke17 {fill: #808064;}
        .stroke18 {fill: #808063;}
        .stroke19 {fill: #808062;}
        .stroke20 {fill: #808061;}
        text {
            font-family: Helvetica;
            font-size: 50px;
            fill: #808060;
            paint-order: stroke;
            stroke: #000000;
            stroke-width: 4px;
            stroke-linecap: butt;
            stroke-linejoin: miter;
            font-weight: 800;
        }
    </style>

    <path d="M 308 768 Q 374 694 400 694 Q 416 694 419 710 Q 425 727 412 753 Q 399 771 372 780 Q 328 798 312 800 Q 302 802 300 790 Q 298 778 308 768 Z" class="stroke1"/>
    <path d="M 180 686 Q 208 615 207 545 Q 211 256 163 114 Q 147 67 168 29 Q 173 18 180 14 Q 192 -2 203 14 Q 240 53 242 225 Q 242 567 261 651 Q 265 670 247 682 Q 210 712 188 710 Q 180 710 176 705 Q 172 698 180 686 Z" class="stroke2"/>
    <path d="M 510 757 Q 494 759 497 749 Q 500 739 520 725 Q 523 724 525 723 Q 539 713 563 717 Q 741 766 760 729 Q 788 686 788 374 Q 788 225 782 124 Q 782 82 766 73 Q 755 63 692 71 Q 676 73 676 63 Q 678 57 692 49 Q 749 6 778 -27 Q 809 -55 825 -37 Q 831 -29 838 -12 Q 854 35 853 106 Q 831 502 833 649 Q 833 682 849 717 Q 857 735 853 744 Q 851 747 849 749 Q 839 764 791 790 Q 772 800 708 785 Q 584 762 510 757 Z" class="stroke3"/>
    <path d="M 522 533 Q 527 535 567 547 Q 582 551 586 554 Q 592 561 588 566 Q 582 574 566 578 Q 547 583 525 575 L 480 559 L 438 545 Q 434 545 401 539 Q 372 534 394 521 Q 423 506 478 521 L 481 521 L 522 533 Z" class="stroke4"/>
    <path d="M 515 451 Q 517 482 522 533 L 525 575 L 533 619 Q 538 639 537 643 Q 535 651 525 658 Q 481 688 463 672 Q 455 666 463 655 Q 474 636 480 559 L 481 521 L 481 445 C 481 415 513 421 515 451 Z" class="stroke5"/>
    <path d="M 547 423 Q 608 432 723 435 Q 751 436 741 456 Q 737 461 732 466 Q 700 490 658 485 Q 633 482 592 469 L 531 455 Q 524 455 515 451 L 481 445 L 294 411 Q 279 408 288 396 Q 300 382 322 378 Q 335 376 345 380 Q 444 416 498 416 L 547 423 Z" class="stroke6"/>
    <path d="M 461 335 Q 484 361 547 423 L 592 469 Q 650 540 668 547 Q 678 551 679 559 Q 676 570 644 583 Q 633 588 627 588 Q 613 591 610 578 Q 600 543 531 455 L 498 416 Q 470 384 425 339 L 405 318 Q 386 298 294 224 Q 278 212 278 210 Q 282 208 285 208 Q 341 221 412 286 L 461 335 Z" class="stroke7"/>
    <path d="M 425 339 Q 408 349 404 347 Q 402 346 399 341 L 404 321 L 405 318 L 412 286 Q 412 192 402 149 Q 392 110 414 82 Q 423 73 431 86 Q 437 96 440 112 L 445 141 Q 446 148 446 161 Q 446 178 447 213 L 448 239 Q 448 282 451 302 L 425 339 Z" class="stroke8"/>
    <path d="M 572 124 Q 584 110 608 71 Q 617 55 623 55 Q 637 57 647 82 Q 660 113 655 206 Q 651 286 654 306 Q 655 318 661 325 Q 666 337 661 345 Q 651 354 606 378 Q 593 384 580 377 Q 566 368 461 335 C 424 323 422 293 451 302 Q 512 321 568 332 Q 594 337 599 335 Q 611 321 608 197 Q 608 160 601 143 C 593 114 554 147 572 124 Z" class="stroke9"/>
    <path d="M 447 213 Q 489 218 549 225 Q 568 229 563 241 Q 540 272 455 242 Q 449 239 448 239 C 420 228 417 209 447 213 Z" class="stroke10"/>
    <path d="M 440 112 L 444 112 Q 517 122 572 124 C 602 125 612 126 601 143 Q 594 157 571 162 Q 548 167 445 141 C 416 134 410 111 440 112 Z" class="stroke11"/>
    
    
    
    
    
    
    
    
    
    
    </g>
</svg>