<svg version="1.1" viewBox="0 0 1024 1024" xmlns="http://www.w3.org/2000/svg">
  
  <g transform="scale(1, -1) translate(0, -900)">
    <style type="text/css">
        .stroke1 {fill: #808080;}
        .stroke2 {fill: #808079;}
        .stroke3 {fill: #808078;}
        .stroke4 {fill: #808077;}
        .stroke5 {fill: #808076;}
        .stroke6 {fill: #808075;}
        .stroke7 {fill: #808074;}
        .stroke8 {fill: #808073;}
        .stroke9 {fill: #808072;}
        .stroke10 {fill: #808071;}
        .stroke11 {fill: #808070;}
        .stroke12 {fill: #808069;}
        .stroke13 {fill: #808068;}
        .stroke14 {fill: #808067;}
        .stroke15 {fill: #808066;}
        .stroke16 {fill: #808065;}
        .stroke17 {fill: #808064;}
        .stroke18 {fill: #808063;}
        .stroke19 {fill: #808062;}
        .stroke20 {fill: #808061;}
        text {
            font-family: Helvetica;
            font-size: 50px;
            fill: #808060;
            paint-order: stroke;
            stroke: #000000;
            stroke-width: 4px;
            stroke-linecap: butt;
            stroke-linejoin: miter;
            font-weight: 800;
        }
    </style>

    <path d="M 302 765 Q 368 669 394 667 Q 409 663 419 684 Q 422 699 414 723 Q 404 745 375 761 Q 330 789 311 795 Q 301 798 298 785 Q 295 775 302 765 Z" class="stroke1"/>
    <path d="M 239 216 Q 239 219 240 219 Q 246 600 257 653 Q 258 672 242 683 Q 217 704 189 712 Q 179 715 172 706 Q 168 699 176 688 Q 231 541 186 227 Q 156 104 157 94 Q 157 91 158 88 Q 167 51 179 37 Q 192 22 202 37 Q 232 67 239 202 L 239 216 Z" class="stroke2"/>
    <path d="M 507 750 Q 491 751 495 740 Q 502 727 524 717 Q 534 708 601 722 Q 742 758 758 727 Q 788 679 786 272 Q 783 200 781 125 Q 780 83 765 72 Q 750 62 678 81 Q 662 85 662 75 Q 663 68 676 60 Q 740 12 774 -25 Q 796 -46 809 -43 Q 822 -40 834 -10 Q 850 36 849 106 Q 828 500 830 647 Q 831 687 844 711 Q 857 733 846 745 Q 836 761 787 786 Q 766 798 705 780 Q 575 756 507 750 Z" class="stroke3"/>
    <path d="M 366 592 Q 423 538 443 539 Q 456 539 459 557 Q 459 569 448 587 Q 430 609 367 617 Q 358 618 359 607 Q 358 600 366 592 Z" class="stroke4"/>
    <path d="M 390 447 Q 409 453 496 474 Q 505 474 512 485 Q 512 495 491 502 Q 458 518 392 488 Q 388 488 384 486 Q 372 483 273 457 Q 249 451 269 439 Q 296 418 325 429 Q 341 435 363 440 L 390 447 Z" class="stroke5"/>
    <path d="M 391 366 Q 430 359 441 341 Q 451 323 415 244 Q 402 216 388 211 Q 381 211 353 223 Q 328 242 323 238 Q 317 231 329 220 Q 356 184 356 156 Q 359 143 368 137 Q 377 131 405 146 Q 447 171 473 261 Q 482 300 500 316 Q 510 319 511 326 Q 512 333 496 355 Q 472 383 431 384 Q 412 387 405 391 C 377 401 362 372 391 366 Z" class="stroke6"/>
    <path d="M 239 202 Q 314 251 375 340 Q 382 352 391 366 L 405 391 Q 405 392 419 413 Q 423 417 422 423 Q 421 430 412 437 Q 402 444 390 447 C 361 456 360 457 363 440 Q 375 389 305 291 Q 302 290 302 287 Q 283 263 239 216 C 219 194 214 185 239 202 Z" class="stroke7"/>
    <path d="M 608 532 Q 615 556 633 573 Q 639 582 635 591 Q 631 601 609 615 Q 588 627 574 625 Q 561 624 568 607 Q 583 583 540 491 Q 521 451 491 403 Q 484 396 483 390 Q 482 383 491 385 Q 515 388 595 510 L 608 532 Z" class="stroke8"/>
    <path d="M 595 510 Q 626 461 668 406 Q 689 385 770 405 Q 774 406 776 409 Q 776 412 769 416 Q 685 458 627 513 Q 617 523 608 532 C 587 553 579 535 595 510 Z" class="stroke9"/>
    <path d="M 556 363 Q 610 306 630 304 Q 643 304 648 321 Q 649 333 639 351 Q 618 381 559 388 Q 550 389 550 379 Q 549 372 556 363 Z" class="stroke10"/>
    <path d="M 559 225 Q 593 194 628 155 Q 638 143 651 143 Q 660 142 665 153 Q 669 165 665 189 Q 658 228 558 264 Q 545 268 540 267 Q 536 264 536 253 Q 537 243 559 225 Z" class="stroke11"/>
    
    
    
    
    
    
    
    
    
    
    </g>
</svg>