<svg version="1.1" viewBox="0 0 1024 1024" xmlns="http://www.w3.org/2000/svg">
  
  <g transform="scale(1, -1) translate(0, -900)">
    <style type="text/css">
        .stroke1 {fill: #808080;}
        .stroke2 {fill: #808079;}
        .stroke3 {fill: #808078;}
        .stroke4 {fill: #808077;}
        .stroke5 {fill: #808076;}
        .stroke6 {fill: #808075;}
        .stroke7 {fill: #808074;}
        .stroke8 {fill: #808073;}
        .stroke9 {fill: #808072;}
        .stroke10 {fill: #808071;}
        .stroke11 {fill: #808070;}
        .stroke12 {fill: #808069;}
        .stroke13 {fill: #808068;}
        .stroke14 {fill: #808067;}
        .stroke15 {fill: #808066;}
        .stroke16 {fill: #808065;}
        .stroke17 {fill: #808064;}
        .stroke18 {fill: #808063;}
        .stroke19 {fill: #808062;}
        .stroke20 {fill: #808061;}
        text {
            font-family: Helvetica;
            font-size: 50px;
            fill: #808060;
            paint-order: stroke;
            stroke: #000000;
            stroke-width: 4px;
            stroke-linecap: butt;
            stroke-linejoin: miter;
            font-weight: 800;
        }
    </style>

    <path d="M 298 754 Q 371 673 398 672 Q 414 671 421 692 Q 422 708 410 730 Q 397 751 368 761 Q 322 782 302 785 Q 292 786 291 773 Q 290 763 298 754 Z" class="stroke1"/>
    <path d="M 176 688 Q 231 541 186 227 Q 156 104 157 94 Q 157 63 179 37 Q 192 22 202 37 Q 239 76 240 242 Q 240 569 257 653 Q 258 672 242 683 Q 217 704 189 712 Q 179 715 172 706 Q 168 699 176 688 Z" class="stroke2"/>
    <path d="M 785 366 Q 786 251 781 125 Q 781 85 765 73 Q 753 64 694 77 Q 678 81 678 71 Q 679 64 692 56 Q 746 10 773 -25 Q 795 -46 808 -43 Q 821 -40 833 -10 Q 849 36 849 106 Q 828 500 830 647 Q 831 687 844 711 Q 857 733 846 745 Q 836 761 787 786 Q 766 798 706 780 Q 586 758 515 750 Q 499 751 503 740 Q 510 727 532 717 Q 544 708 607 722 Q 742 758 758 727 Q 780 691 785 381 L 785 366 Z" class="stroke3"/>
    <path d="M 365 446 Q 364 446 364 444 Q 328 393 267 345 Q 248 335 264 335 Q 312 335 382 410 Q 427 456 462 521 Q 478 551 490 560 Q 500 567 495 577 Q 491 586 449 603 Q 439 607 422 598 Q 397 585 335 576 Q 325 575 333 564 Q 340 554 367 560 Q 419 573 423 566 Q 426 559 413 526 Q 403 495 369 451 L 365 446 Z" class="stroke4"/>
    <path d="M 369 451 Q 373 461 364 478 Q 357 488 340 493 Q 315 503 304 503 Q 297 504 298 497 Q 297 491 302 486 Q 344 444 360 445 Q 361 445 365 446 C 368 447 368 447 369 451 Z" class="stroke5"/>
    <path d="M 533 532 Q 585 572 612 586 Q 625 590 621 598 Q 617 608 602 621 Q 589 634 572 634 Q 562 634 563 620 Q 564 605 523 543 C 507 518 509 514 533 532 Z" class="stroke6"/>
    <path d="M 600 474 Q 664 510 695 523 Q 708 524 707 534 Q 692 574 660 580 Q 650 581 649 566 Q 649 551 587 485 C 566 463 574 459 600 474 Z" class="stroke7"/>
    <path d="M 785 381 Q 758 391 732 399 Q 693 409 600 474 L 587 485 Q 562 507 533 532 L 523 543 Q 516 553 504 553 Q 486 552 482 546 Q 481 542 487 539 Q 511 529 527 507 Q 606 419 668 357 Q 680 345 697 347 Q 758 357 781 365 Q 782 366 785 366 C 808 373 808 373 785 381 Z" class="stroke8"/>
    <path d="M 467 359 Q 584 389 588 392 Q 595 399 591 406 Q 584 416 559 421 Q 534 425 508 414 Q 483 404 454 396 Q 423 389 386 384 Q 355 378 378 364 Q 396 354 435 353 L 467 359 Z" class="stroke9"/>
    <path d="M 476 249 Q 540 259 671 260 Q 687 260 691 268 Q 695 277 682 288 Q 634 321 587 307 Q 545 298 488 287 L 436 278 Q 376 269 310 259 Q 292 256 306 243 Q 318 231 332 227 Q 350 223 363 227 Q 393 236 427 241 L 476 249 Z" class="stroke10"/>
    <path d="M 427 241 Q 405 157 330 119 Q 317 112 305 103 Q 295 97 303 94 Q 342 91 396 129 Q 453 169 476 249 L 488 287 Q 492 303 501 317 Q 510 330 498 338 Q 479 356 467 359 C 439 371 430 375 435 353 Q 435 352 436 349 Q 442 331 436 278 L 427 241 Z" class="stroke11"/>
    <path d="M 515 195 Q 557 158 606 106 Q 619 90 632 87 Q 639 86 645 94 Q 654 104 643 140 Q 633 177 515 220 Q 508 224 506 214 Q 506 204 515 195 Z" class="stroke12"/>
    
    
    
    
    
    
    
    
    
    
    
    </g>
</svg>