<svg version="1.1" viewBox="0 0 1024 1024" xmlns="http://www.w3.org/2000/svg">
  
  <g transform="scale(1, -1) translate(0, -900)">
    <style type="text/css">
        .stroke1 {fill: #808080;}
        .stroke2 {fill: #808079;}
        .stroke3 {fill: #808078;}
        .stroke4 {fill: #808077;}
        .stroke5 {fill: #808076;}
        .stroke6 {fill: #808075;}
        .stroke7 {fill: #808074;}
        .stroke8 {fill: #808073;}
        .stroke9 {fill: #808072;}
        .stroke10 {fill: #808071;}
        .stroke11 {fill: #808070;}
        .stroke12 {fill: #808069;}
        .stroke13 {fill: #808068;}
        .stroke14 {fill: #808067;}
        .stroke15 {fill: #808066;}
        .stroke16 {fill: #808065;}
        .stroke17 {fill: #808064;}
        .stroke18 {fill: #808063;}
        .stroke19 {fill: #808062;}
        .stroke20 {fill: #808061;}
        text {
            font-family: Helvetica;
            font-size: 50px;
            fill: #808060;
            paint-order: stroke;
            stroke: #000000;
            stroke-width: 4px;
            stroke-linecap: butt;
            stroke-linejoin: miter;
            font-weight: 800;
        }
    </style>

    <path d="M 228 665 Q 271 675 315 696 Q 334 708 346 696 Q 352 689 340 670 Q 318 630 297 589 Q 282 564 298 542 Q 361 454 346 434 Q 340 421 314 423 Q 283 424 248 420 Q 223 419 253 407 Q 314 385 370 354 Q 385 342 397 356 Q 410 366 416 393 Q 422 417 403 457 Q 384 502 347 535 Q 331 554 328 563 Q 324 579 337 595 Q 395 674 425 693 Q 446 706 436 720 Q 423 739 383 761 Q 361 771 346 758 Q 292 716 217 697 C 188 689 199 657 228 665 Z" class="stroke1"/>
    <path d="M 217 697 Q 216 698 214 699 Q 190 720 161 728 Q 151 729 144 721 Q 140 714 148 703 Q 178 637 176 565 Q 185 282 140 141 Q 133 113 137 92 Q 147 55 159 41 Q 172 26 182 41 Q 215 86 217 261 Q 217 597 228 665 C 231 687 231 687 217 697 Z" class="stroke2"/>
    <path d="M 613 745 Q 641 715 672 679 Q 688 663 707 661 Q 720 661 728 677 Q 735 695 727 732 Q 723 756 687 776 Q 608 812 584 808 Q 577 804 578 787 Q 582 774 613 745 Z" class="stroke3"/>
    <path d="M 630 523 Q 634 529 748 539 Q 811 545 890 548 Q 950 548 957 559 Q 961 572 944 585 Q 887 622 850 612 Q 724 579 400 524 Q 378 520 395 503 Q 431 473 468 486 Q 517 501 572 512 L 630 523 Z" class="stroke4"/>
    <path d="M 623 414 Q 644 404 715 394 Q 742 390 751 375 Q 767 345 706 183 Q 675 105 642 95 Q 627 92 588 114 Q 551 136 546 130 Q 539 121 556 107 Q 598 59 603 22 Q 607 4 619 -3 Q 632 -10 669 10 Q 717 43 755 146 Q 815 332 831 347 Q 843 351 845 363 Q 846 373 822 399 Q 777 441 740 428 Q 712 428 638 445 C 609 452 595 424 623 414 Z" class="stroke5"/>
    <path d="M 638 445 Q 647 461 657 476 Q 666 486 660 498 Q 654 508 630 523 C 605 540 572 542 572 512 Q 578 368 434 217 Q 430 216 428 212 Q 388 166 284 88 Q 275 79 283 76 Q 290 73 303 78 Q 376 106 437 154 Q 545 233 623 414 L 638 445 Z" class="stroke6"/>
    
    
    
    
    
    </g>
</svg>