<svg version="1.1" viewBox="0 0 1024 1024" xmlns="http://www.w3.org/2000/svg">
  
  <g transform="scale(1, -1) translate(0, -900)">
    <style type="text/css">
        .stroke1 {fill: #808080;}
        .stroke2 {fill: #808079;}
        .stroke3 {fill: #808078;}
        .stroke4 {fill: #808077;}
        .stroke5 {fill: #808076;}
        .stroke6 {fill: #808075;}
        .stroke7 {fill: #808074;}
        .stroke8 {fill: #808073;}
        .stroke9 {fill: #808072;}
        .stroke10 {fill: #808071;}
        .stroke11 {fill: #808070;}
        .stroke12 {fill: #808069;}
        .stroke13 {fill: #808068;}
        .stroke14 {fill: #808067;}
        .stroke15 {fill: #808066;}
        .stroke16 {fill: #808065;}
        .stroke17 {fill: #808064;}
        .stroke18 {fill: #808063;}
        .stroke19 {fill: #808062;}
        .stroke20 {fill: #808061;}
        text {
            font-family: Helvetica;
            font-size: 50px;
            fill: #808060;
            paint-order: stroke;
            stroke: #000000;
            stroke-width: 4px;
            stroke-linecap: butt;
            stroke-linejoin: miter;
            font-weight: 800;
        }
    </style>

    <path d="M 193 658 Q 227 665 266 682 Q 282 692 293 681 Q 300 675 293 655 Q 256 549 267 531 Q 321 447 307 429 Q 301 419 282 422 Q 257 425 231 423 Q 209 424 234 411 Q 280 386 323 355 Q 336 343 348 355 Q 361 364 368 387 Q 381 444 318 519 Q 282 555 313 601 Q 347 664 371 681 Q 389 694 379 707 Q 366 723 329 742 Q 308 749 295 737 Q 244 700 174 685 C 145 678 164 651 193 658 Z" class="stroke1"/>
    <path d="M 174 685 Q 152 701 127 707 Q 118 708 112 700 Q 108 694 117 684 Q 145 620 149 548 Q 167 266 127 128 Q 120 101 126 82 Q 136 48 148 36 Q 160 23 169 37 Q 202 76 194 299 Q 185 596 193 658 C 194 672 194 672 174 685 Z" class="stroke2"/>
    <path d="M 578 624 Q 668 654 869 654 Q 888 655 893 664 Q 897 677 881 689 Q 821 728 762 708 Q 657 681 407 635 Q 386 631 403 615 Q 418 602 436 598 Q 458 594 473 599 Q 501 608 533 615 L 578 624 Z" class="stroke3"/>
    <path d="M 517 459 Q 541 489 572 542 Q 581 558 597 576 Q 610 588 603 598 Q 596 611 578 624 C 554 642 532 645 533 615 Q 536 582 497 483 Q 490 467 488 454 C 482 425 498 435 517 459 Z" class="stroke4"/>
    <path d="M 469 451 Q 451 463 431 467 Q 422 468 418 461 Q 415 455 422 446 Q 464 346 443 182 Q 431 142 437 119 Q 447 89 458 79 Q 468 67 476 80 Q 483 90 487 107 L 492 139 Q 495 164 491 274 L 490 303 Q 486 393 488 420 C 489 439 489 439 469 451 Z" class="stroke5"/>
    <path d="M 679 122 Q 691 98 719 51 Q 729 35 739 37 Q 754 41 760 66 Q 790 142 786 239 Q 787 300 787 371 Q 788 417 809 446 Q 824 465 812 477 Q 790 496 745 514 Q 727 523 697 509 Q 628 481 517 459 L 488 454 Q 478 454 469 451 C 439 446 459 414 488 420 Q 597 441 708 461 Q 711 461 715 457 Q 749 402 723 166 Q 722 144 714 140 C 702 112 665 149 679 122 Z" class="stroke6"/>
    <path d="M 491 274 Q 495 273 503 274 Q 594 287 661 295 Q 686 298 677 312 Q 667 328 639 333 Q 614 337 490 303 C 461 295 461 276 491 274 Z" class="stroke7"/>
    <path d="M 487 107 Q 496 107 506 107 Q 603 117 679 122 C 709 124 722 125 714 140 Q 713 141 713 143 Q 701 161 672 168 Q 645 172 596 163 Q 539 150 492 139 C 463 132 457 107 487 107 Z" class="stroke8"/>
    
    
    
    
    
    
    
    </g>
</svg>