<svg version="1.1" viewBox="0 0 1024 1024" xmlns="http://www.w3.org/2000/svg">
  
  <g transform="scale(1, -1) translate(0, -900)">
    <style type="text/css">
        .stroke1 {fill: #808080;}
        .stroke2 {fill: #808079;}
        .stroke3 {fill: #808078;}
        .stroke4 {fill: #808077;}
        .stroke5 {fill: #808076;}
        .stroke6 {fill: #808075;}
        .stroke7 {fill: #808074;}
        .stroke8 {fill: #808073;}
        .stroke9 {fill: #808072;}
        .stroke10 {fill: #808071;}
        .stroke11 {fill: #808070;}
        .stroke12 {fill: #808069;}
        .stroke13 {fill: #808068;}
        .stroke14 {fill: #808067;}
        .stroke15 {fill: #808066;}
        .stroke16 {fill: #808065;}
        .stroke17 {fill: #808064;}
        .stroke18 {fill: #808063;}
        .stroke19 {fill: #808062;}
        .stroke20 {fill: #808061;}
        text {
            font-family: Helvetica;
            font-size: 50px;
            fill: #808060;
            paint-order: stroke;
            stroke: #000000;
            stroke-width: 4px;
            stroke-linecap: butt;
            stroke-linejoin: miter;
            font-weight: 800;
        }
    </style>

    <path d="M 238 680 Q 272 686 309 703 Q 322 710 332 702 Q 338 698 331 680 Q 297 586 306 568 Q 345 529 359 476 Q 358 470 355 465 Q 348 455 325 458 Q 295 462 264 463 Q 240 464 267 450 Q 325 423 378 389 Q 393 377 404 390 Q 417 400 422 425 Q 431 479 370 546 Q 322 594 350 623 Q 387 687 412 703 Q 431 716 421 729 Q 406 748 368 766 Q 346 773 332 761 Q 284 724 218 710 C 189 703 209 674 238 680 Z" class="stroke1"/>
    <path d="M 218 710 Q 196 729 169 736 Q 159 737 152 729 Q 148 722 157 711 Q 221 539 173 219 Q 146 101 147 96 Q 147 93 149 88 Q 159 51 171 37 Q 184 22 194 37 Q 227 82 228 298 Q 228 616 238 680 C 240 694 240 694 218 710 Z" class="stroke2"/>
    <path d="M 637 618 Q 785 652 791 657 Q 800 664 795 673 Q 788 683 760 691 Q 730 695 640 664 L 592 652 Q 541 642 489 636 Q 453 630 479 614 Q 518 593 575 605 Q 581 608 592 608 L 637 618 Z" class="stroke3"/>
    <path d="M 463 487 Q 479 466 497 442 Q 506 429 519 428 Q 526 427 533 437 Q 539 447 536 473 Q 535 489 513 504 Q 456 534 448 531 Q 444 528 443 517 Q 444 508 463 487 Z" class="stroke4"/>
    <path d="M 737 550 Q 718 522 676 476 Q 670 469 675 463 Q 682 462 689 465 Q 765 511 802 528 Q 818 532 815 542 Q 811 557 794 574 Q 778 590 758 594 Q 745 594 745 577 Q 746 564 737 550 Z" class="stroke5"/>
    <path d="M 633 346 Q 727 356 869 356 Q 930 353 939 364 Q 945 376 928 390 Q 876 429 838 420 Q 759 404 626 383 L 579 376 Q 467 363 336 346 Q 315 345 331 327 Q 344 314 363 308 Q 384 302 400 307 Q 482 329 575 339 L 633 346 Z" class="stroke6"/>
    <path d="M 575 339 Q 554 191 466 121 Q 412 79 319 38 Q 306 31 305 27 Q 306 23 318 22 Q 337 18 386 33 Q 468 54 525 108 Q 597 174 620 309 L 626 383 Q 626 387 627 390 Q 631 508 637 618 L 640 664 Q 640 706 666 775 Q 673 790 662 801 Q 640 820 600 831 Q 575 838 565 831 Q 556 824 564 811 Q 586 774 590 726 Q 591 689 592 652 L 592 608 Q 591 490 579 376 L 575 339 Z" class="stroke7"/>
    <path d="M 620 309 Q 771 30 821 26 Q 887 27 943 27 Q 968 27 968 33 Q 969 40 944 55 Q 815 122 779 159 Q 700 243 633 346 C 617 371 596 353 620 309 Z" class="stroke8"/>
    
    
    
    
    
    
    
    </g>
</svg>