<svg version="1.1" viewBox="0 0 1024 1024" xmlns="http://www.w3.org/2000/svg">
  
  <g transform="scale(1, -1) translate(0, -900)">
    <style type="text/css">
        .stroke1 {fill: #808080;}
        .stroke2 {fill: #808079;}
        .stroke3 {fill: #808078;}
        .stroke4 {fill: #808077;}
        .stroke5 {fill: #808076;}
        .stroke6 {fill: #808075;}
        .stroke7 {fill: #808074;}
        .stroke8 {fill: #808073;}
        .stroke9 {fill: #808072;}
        .stroke10 {fill: #808071;}
        .stroke11 {fill: #808070;}
        .stroke12 {fill: #808069;}
        .stroke13 {fill: #808068;}
        .stroke14 {fill: #808067;}
        .stroke15 {fill: #808066;}
        .stroke16 {fill: #808065;}
        .stroke17 {fill: #808064;}
        .stroke18 {fill: #808063;}
        .stroke19 {fill: #808062;}
        .stroke20 {fill: #808061;}
        text {
            font-family: Helvetica;
            font-size: 50px;
            fill: #808060;
            paint-order: stroke;
            stroke: #000000;
            stroke-width: 4px;
            stroke-linecap: butt;
            stroke-linejoin: miter;
            font-weight: 800;
        }
    </style>

    <path d="M 206 641 Q 207 642 211 643 Q 250 653 288 675 Q 303 685 313 677 Q 320 670 311 651 Q 293 611 279 570 Q 269 546 282 529 Q 337 445 322 428 Q 316 418 294 419 Q 266 422 235 420 Q 213 419 239 407 Q 291 385 340 355 Q 353 343 365 356 Q 378 365 384 389 Q 396 440 339 510 Q 303 555 312 574 Q 312 593 363 655 Q 375 673 386 681 Q 404 694 393 706 Q 380 722 342 739 Q 323 745 310 734 Q 265 691 203 673 C 175 664 177 632 206 641 Z" class="stroke1"/>
    <path d="M 203 673 Q 178 698 142 708 Q 132 709 126 701 Q 122 695 130 684 Q 190 543 151 214 Q 142 162 125 109 Q 118 81 122 61 Q 132 27 144 13 Q 156 -2 166 13 Q 197 50 199 272 Q 199 567 206 641 C 208 669 208 669 203 673 Z" class="stroke2"/>
    <path d="M 645 508 Q 648 563 652 616 L 654 644 Q 654 645 669 750 Q 672 760 653 774 Q 619 790 597 795 Q 581 798 574 789 Q 567 782 575 768 Q 593 746 594 729 Q 604 623 604 500 C 604 470 643 478 645 508 Z" class="stroke3"/>
    <path d="M 652 616 Q 688 613 755 632 Q 776 639 799 646 Q 815 652 818 654 Q 825 663 820 670 Q 813 680 785 683 Q 781 683 654 644 C 625 635 622 618 652 616 Z" class="stroke4"/>
    <path d="M 519 485 Q 509 584 512 602 Q 513 621 501 630 Q 482 643 458 650 Q 446 653 439 648 Q 433 642 439 630 Q 461 599 485 479 C 491 450 522 455 519 485 Z" class="stroke5"/>
    <path d="M 621 469 Q 739 491 881 492 Q 900 492 904 501 Q 908 511 893 523 Q 844 557 775 537 Q 721 525 645 508 L 604 500 Q 561 493 519 485 L 485 479 Q 442 473 398 464 Q 379 461 394 447 Q 407 435 424 431 Q 443 427 457 432 Q 517 451 586 463 L 621 469 Z" class="stroke6"/>
    <path d="M 597 280 Q 590 250 607 214 Q 611 204 616 201 Q 620 197 625 202 Q 629 205 637 218 Q 638 227 646 386 Q 647 411 652 427 Q 658 437 655 446 Q 651 452 621 469 C 595 484 575 491 586 463 Q 599 439 600 296 Q 599 289 597 280 Z" class="stroke7"/>
    <path d="M 469 362 Q 441 310 406 265 Q 382 237 399 205 Q 403 187 424 197 Q 475 228 487 307 Q 494 337 490 360 Q 486 367 481 369 Q 474 369 469 362 Z" class="stroke8"/>
    <path d="M 753 405 Q 738 237 538 84 Q 534 83 531 79 Q 476 33 343 -37 Q 333 -44 340 -48 Q 347 -52 360 -49 Q 448 -30 526 17 Q 604 57 658 118 Q 718 179 783 287 Q 804 318 829 348 Q 839 357 835 369 Q 831 382 801 406 Q 779 424 769 423 Q 753 422 753 405 Z" class="stroke9"/>
    
    
    
    
    
    
    
    
    </g>
</svg>