<svg version="1.1" viewBox="0 0 1024 1024" xmlns="http://www.w3.org/2000/svg">
  
  <g transform="scale(1, -1) translate(0, -900)">
    <style type="text/css">
        .stroke1 {fill: #808080;}
        .stroke2 {fill: #808079;}
        .stroke3 {fill: #808078;}
        .stroke4 {fill: #808077;}
        .stroke5 {fill: #808076;}
        .stroke6 {fill: #808075;}
        .stroke7 {fill: #808074;}
        .stroke8 {fill: #808073;}
        .stroke9 {fill: #808072;}
        .stroke10 {fill: #808071;}
        .stroke11 {fill: #808070;}
        .stroke12 {fill: #808069;}
        .stroke13 {fill: #808068;}
        .stroke14 {fill: #808067;}
        .stroke15 {fill: #808066;}
        .stroke16 {fill: #808065;}
        .stroke17 {fill: #808064;}
        .stroke18 {fill: #808063;}
        .stroke19 {fill: #808062;}
        .stroke20 {fill: #808061;}
        text {
            font-family: Helvetica;
            font-size: 50px;
            fill: #808060;
            paint-order: stroke;
            stroke: #000000;
            stroke-width: 4px;
            stroke-linecap: butt;
            stroke-linejoin: miter;
            font-weight: 800;
        }
    </style>

    <path d="M 230 628 Q 261 637 297 654 Q 313 664 323 655 Q 330 648 320 628 Q 278 526 285 508 Q 285 505 289 501 Q 331 429 319 413 Q 315 407 299 411 Q 280 415 260 418 Q 238 422 261 405 Q 300 374 334 340 Q 346 328 357 338 Q 370 345 377 368 Q 384 387 372 423 Q 359 463 332 496 Q 307 526 323 552 Q 371 636 397 656 Q 416 669 406 681 Q 393 699 355 716 Q 336 723 323 712 Q 278 673 218 657 C 189 648 201 619 230 628 Z" class="stroke1"/>
    <path d="M 218 657 Q 196 675 167 684 Q 158 685 152 678 Q 148 672 156 661 Q 213 523 175 216 Q 166 167 151 117 Q 144 90 147 71 Q 157 37 168 24 Q 180 11 190 25 Q 221 58 222 293 Q 222 572 230 628 C 232 647 232 647 218 657 Z" class="stroke2"/>
    <path d="M 629 583 Q 690 599 757 613 Q 800 625 807 631 Q 817 640 811 648 Q 804 660 774 667 Q 743 671 713 659 Q 673 644 632 632 L 578 618 Q 529 608 477 602 Q 440 595 467 579 Q 506 558 578 572 L 629 583 Z" class="stroke3"/>
    <path d="M 611 351 Q 614 385 629 583 L 632 632 Q 641 711 660 751 Q 667 766 656 778 Q 632 799 590 811 Q 563 818 554 811 Q 544 804 552 790 Q 582 742 578 618 L 578 572 Q 571 302 511 203 Q 495 179 474 157 Q 419 102 300 51 Q 285 44 285 39 Q 286 35 298 34 Q 317 30 366 44 Q 448 63 507 119 Q 579 186 605 317 L 611 351 Z" class="stroke4"/>
    <path d="M 605 317 Q 678 193 776 62 Q 792 40 824 39 Q 930 35 964 38 Q 974 39 976 45 Q 977 49 963 58 Q 819 128 783 162 Q 705 238 616 345 Q 613 349 611 351 C 592 374 590 343 605 317 Z" class="stroke5"/>
    <path d="M 467 451 Q 467 424 386 343 Q 380 339 378 336 Q 375 330 383 331 Q 407 331 495 418 C 516 439 471 481 467 451 Z" class="stroke6"/>
    <path d="M 495 418 Q 523 376 538 369 Q 542 368 549 374 Q 556 381 552 409 Q 549 442 424 524 Q 423 525 421 526 Q 415 530 413 522 Q 412 515 418 507 Q 440 482 467 451 L 495 418 Z" class="stroke7"/>
    <path d="M 733 477 Q 733 447 654 368 Q 647 364 646 360 Q 643 354 651 355 Q 672 355 762 443 C 783 464 736 507 733 477 Z" class="stroke8"/>
    <path d="M 762 443 Q 834 359 839 356 Q 846 355 853 362 Q 863 372 856 408 Q 852 456 695 546 Q 688 552 686 541 Q 685 534 733 477 L 762 443 Z" class="stroke9"/>
    
    
    
    
    
    
    
    
    </g>
</svg>