<svg version="1.1" viewBox="0 0 1024 1024" xmlns="http://www.w3.org/2000/svg">
  
  <g transform="scale(1, -1) translate(0, -900)">
    <style type="text/css">
        .stroke1 {fill: #808080;}
        .stroke2 {fill: #808079;}
        .stroke3 {fill: #808078;}
        .stroke4 {fill: #808077;}
        .stroke5 {fill: #808076;}
        .stroke6 {fill: #808075;}
        .stroke7 {fill: #808074;}
        .stroke8 {fill: #808073;}
        .stroke9 {fill: #808072;}
        .stroke10 {fill: #808071;}
        .stroke11 {fill: #808070;}
        .stroke12 {fill: #808069;}
        .stroke13 {fill: #808068;}
        .stroke14 {fill: #808067;}
        .stroke15 {fill: #808066;}
        .stroke16 {fill: #808065;}
        .stroke17 {fill: #808064;}
        .stroke18 {fill: #808063;}
        .stroke19 {fill: #808062;}
        .stroke20 {fill: #808061;}
        text {
            font-family: Helvetica;
            font-size: 50px;
            fill: #808060;
            paint-order: stroke;
            stroke: #000000;
            stroke-width: 4px;
            stroke-linecap: butt;
            stroke-linejoin: miter;
            font-weight: 800;
        }
    </style>

    <path d="M 300 470 Q 296 461 277 464 Q 255 467 232 467 Q 210 468 234 454 Q 276 427 313 396 Q 325 383 338 394 Q 351 403 358 425 Q 374 476 316 554 Q 271 599 353 681 Q 359 690 366 693 Q 384 706 374 718 Q 361 734 324 752 Q 303 759 291 748 Q 254 715 188 695 C 159 686 171 657 200 665 Q 234 674 268 691 Q 281 700 291 691 Q 295 687 290 671 Q 256 587 266 567 Q 317 486 300 470 Z" class="stroke1"/>
    <path d="M 188 695 Q 172 711 147 719 Q 137 725 123 720 Q 116 714 122 701 Q 146 617 150 582 Q 149 579 150 574 Q 165 298 124 131 Q 109 71 148 22 Q 160 7 171 21 Q 192 46 190 174 Q 193 643 200 665 C 202 684 202 684 188 695 Z" class="stroke2"/>
    <path d="M 640 590 Q 763 626 764 627 Q 773 636 768 644 Q 761 656 730 662 Q 706 665 643 642 L 587 624 Q 538 612 480 603 Q 443 594 470 579 Q 515 555 585 577 Q 586 577 588 577 L 640 590 Z" class="stroke3"/>
    <path d="M 630 476 Q 634 534 640 590 L 643 642 Q 646 721 664 784 Q 668 796 647 811 Q 610 830 585 835 Q 569 839 560 830 Q 553 823 561 806 Q 582 778 582 757 Q 586 693 587 624 L 588 577 Q 588 525 586 466 C 585 436 628 446 630 476 Z" class="stroke4"/>
    <path d="M 621 437 Q 660 446 852 463 Q 870 464 874 473 Q 878 483 862 495 Q 808 529 747 507 Q 698 495 630 476 L 586 466 Q 495 447 390 425 Q 371 421 386 407 Q 416 385 457 397 Q 511 416 577 429 L 621 437 Z" class="stroke5"/>
    <path d="M 631 161 Q 635 234 639 295 L 641 322 Q 644 367 647 388 Q 654 406 645 415 Q 633 428 621 437 C 598 456 564 456 577 429 Q 589 414 589 323 Q 588 275 587 188 C 587 158 629 131 631 161 Z" class="stroke6"/>
    <path d="M 639 295 Q 676 286 779 309 Q 794 312 796 314 Q 803 321 799 329 Q 792 339 765 345 Q 749 348 677 328 Q 659 325 641 322 C 611 317 610 301 639 295 Z" class="stroke7"/>
    <path d="M 475 268 Q 485 287 497 304 Q 507 317 491 331 Q 449 362 423 357 Q 411 354 415 340 Q 431 235 318 97 Q 284 64 265 36 Q 258 20 272 26 Q 291 30 318 53 Q 400 123 444 210 Q 451 223 458 237 L 475 268 Z" class="stroke8"/>
    <path d="M 458 237 Q 476 207 636 95 Q 687 61 765 15 Q 789 0 820 6 Q 875 16 933 30 Q 970 40 981 54 Q 987 67 964 68 Q 895 78 853 80 Q 741 87 631 161 L 587 188 Q 532 225 475 268 C 451 286 439 260 458 237 Z" class="stroke9"/>
    
    
    
    
    
    
    
    
    </g>
</svg>