<svg version="1.1" viewBox="0 0 1024 1024" xmlns="http://www.w3.org/2000/svg">
  
  <g transform="scale(1, -1) translate(0, -900)">
    <style type="text/css">
        .stroke1 {fill: #808080;}
        .stroke2 {fill: #808079;}
        .stroke3 {fill: #808078;}
        .stroke4 {fill: #808077;}
        .stroke5 {fill: #808076;}
        .stroke6 {fill: #808075;}
        .stroke7 {fill: #808074;}
        .stroke8 {fill: #808073;}
        .stroke9 {fill: #808072;}
        .stroke10 {fill: #808071;}
        .stroke11 {fill: #808070;}
        .stroke12 {fill: #808069;}
        .stroke13 {fill: #808068;}
        .stroke14 {fill: #808067;}
        .stroke15 {fill: #808066;}
        .stroke16 {fill: #808065;}
        .stroke17 {fill: #808064;}
        .stroke18 {fill: #808063;}
        .stroke19 {fill: #808062;}
        .stroke20 {fill: #808061;}
        text {
            font-family: Helvetica;
            font-size: 50px;
            fill: #808060;
            paint-order: stroke;
            stroke: #000000;
            stroke-width: 4px;
            stroke-linecap: butt;
            stroke-linejoin: miter;
            font-weight: 800;
        }
    </style>

    <path d="M 182 688 Q 213 695 249 712 Q 265 722 274 712 Q 280 706 271 689 Q 255 655 241 618 Q 228 596 242 576 Q 287 516 277 500 Q 273 491 254 492 Q 232 493 207 491 Q 185 491 211 479 Q 256 457 298 427 Q 310 417 320 428 Q 330 435 336 457 Q 345 503 289 569 Q 256 602 288 642 Q 327 697 348 711 Q 367 723 357 736 Q 344 752 308 772 Q 289 779 275 769 Q 236 736 167 715 C 138 706 153 680 182 688 Z" class="stroke1"/>
    <path d="M 167 715 Q 157 725 131 736 Q 121 740 109 736 Q 102 732 107 718 Q 134 619 135 609 Q 135 330 134 306 Q 133 294 133 281 Q 132 202 106 108 Q 91 50 128 2 Q 140 -13 151 1 Q 172 31 171 160 Q 178 638 181 669 Q 182 681 182 688 C 183 704 183 704 167 715 Z" class="stroke2"/>
    <path d="M 572 618 Q 573 622 576 624 Q 598 667 617 704 L 634 744 Q 638 771 663 812 Q 669 822 660 834 Q 627 874 598 871 Q 585 870 592 852 Q 604 807 579 731 L 564 691 Q 524 592 435 474 Q 431 470 431 463 Q 432 459 437 459 Q 488 480 563 603 L 572 618 Z" class="stroke3"/>
    <path d="M 617 704 Q 794 749 800 753 Q 807 760 803 767 Q 796 776 773 781 Q 748 785 725 775 Q 680 759 634 744 L 579 731 Q 539 724 498 718 Q 468 712 490 700 Q 520 684 564 691 L 617 704 Z" class="stroke4"/>
    <path d="M 677 610 Q 758 631 764 636 Q 770 643 766 648 Q 762 655 740 660 Q 719 663 699 653 Q 672 643 643 633 Q 610 624 572 618 C 542 613 539 613 563 603 Q 597 588 634 599 L 677 610 Z" class="stroke5"/>
    <path d="M 677 533 L 677 610 C 677 640 634 629 634 599 L 634 522 C 634 492 677 503 677 533 Z" class="stroke6"/>
    <path d="M 634 522 Q 576 509 511 493 Q 496 490 509 479 Q 519 470 533 468 Q 548 465 559 470 Q 691 518 822 519 Q 825 520 828 520 Q 841 521 845 528 Q 848 537 835 546 Q 792 570 737 551 Q 710 544 677 533 L 634 522 Z" class="stroke7"/>
    <path d="M 586 263 Q 587 294 588 318 L 588 339 Q 589 382 592 396 Q 592 399 592 401 C 593 415 593 415 581 421 Q 580 422 578 423 Q 557 433 544 432 Q 535 429 539 421 Q 578 343 541 221 Q 520 190 544 155 Q 545 154 548 150 Q 554 140 561 144 Q 585 159 586 241 L 586 263 Z" class="stroke8"/>
    <path d="M 592 401 Q 602 402 614 407 Q 705 432 720 426 Q 730 419 728 396 Q 740 279 735 188 Q 734 170 723 166 Q 714 165 668 176 Q 658 180 658 173 Q 659 166 672 157 Q 702 129 725 101 Q 738 88 751 87 Q 763 90 778 125 Q 797 159 793 196 Q 787 281 781 361 Q 778 392 791 417 Q 801 430 788 442 Q 773 455 741 465 Q 726 471 674 448 Q 611 430 581 421 C 552 412 563 394 592 401 Z" class="stroke9"/>
    <path d="M 588 318 Q 591 318 596 319 Q 645 329 683 336 Q 701 340 693 350 Q 684 360 664 363 Q 631 366 588 339 C 562 323 558 316 588 318 Z" class="stroke10"/>
    <path d="M 586 241 Q 587 241 591 241 Q 649 251 694 257 Q 712 261 705 270 Q 696 282 677 284 Q 647 288 586 263 C 558 252 556 241 586 241 Z" class="stroke11"/>
    <path d="M 358 603 Q 391 558 421 542 Q 431 539 440 549 Q 446 559 444 572 Q 435 605 370 631 L 369 632 Q 357 636 349 634 Q 345 634 346 624 Q 346 615 358 603 Z" class="stroke12"/>
    <path d="M 404 152 Q 419 162 426 179 Q 435 213 402 253 Q 375 289 453 367 Q 454 370 457 371 Q 476 384 461 398 Q 445 413 419 426 Q 401 438 366 412 Q 303 385 293 386 Q 287 387 285 383 Q 284 379 291 375 Q 318 360 377 382 Q 383 385 389 378 Q 405 357 384 332 Q 368 316 356 289 Q 350 273 364 250 Q 403 187 387 156 C 379 131 381 133 404 152 Z" class="stroke13"/>
    <path d="M 387 156 Q 362 160 333 158 Q 309 154 288 159 Q 273 162 271 155 Q 267 145 280 132 Q 289 123 327 121 Q 385 131 470 99 Q 594 53 740 -4 Q 774 -22 821 0 Q 882 25 940 51 Q 959 58 958 68 Q 958 78 909 75 Q 714 71 678 75 Q 609 93 416 149 Q 412 150 404 152 L 387 156 Z" class="stroke14"/>
    
    
    
    
    
    
    
    
    
    
    
    
    
    </g>
</svg>