<svg version="1.1" viewBox="0 0 1024 1024" xmlns="http://www.w3.org/2000/svg">
  
  <g transform="scale(1, -1) translate(0, -900)">
    <style type="text/css">
        .stroke1 {fill: #808080;}
        .stroke2 {fill: #808079;}
        .stroke3 {fill: #808078;}
        .stroke4 {fill: #808077;}
        .stroke5 {fill: #808076;}
        .stroke6 {fill: #808075;}
        .stroke7 {fill: #808074;}
        .stroke8 {fill: #808073;}
        .stroke9 {fill: #808072;}
        .stroke10 {fill: #808071;}
        .stroke11 {fill: #808070;}
        .stroke12 {fill: #808069;}
        .stroke13 {fill: #808068;}
        .stroke14 {fill: #808067;}
        .stroke15 {fill: #808066;}
        .stroke16 {fill: #808065;}
        .stroke17 {fill: #808064;}
        .stroke18 {fill: #808063;}
        .stroke19 {fill: #808062;}
        .stroke20 {fill: #808061;}
        text {
            font-family: Helvetica;
            font-size: 50px;
            fill: #808060;
            paint-order: stroke;
            stroke: #000000;
            stroke-width: 4px;
            stroke-linecap: butt;
            stroke-linejoin: miter;
            font-weight: 800;
        }
    </style>

    <path d="M 319 639 Q 344 670 371 706 Q 393 742 413 759 Q 423 768 419 781 Q 416 794 391 816 Q 366 835 349 835 Q 331 835 338 814 Q 348 789 338 768 Q 305 698 259 634 Q 213 573 152 504 Q 142 495 139 490 Q 136 480 149 481 Q 180 485 296 612 L 319 639 Z" class="stroke1"/>
    <path d="M 354 364 Q 354 511 361 565 Q 367 589 341 617 Q 335 624 332 628 Q 326 635 319 639 C 295 657 281 638 296 612 Q 297 608 301 604 Q 329 546 297 391 Q 276 333 315 287 L 316 286 Q 332 273 342 296 Q 349 318 352 340 L 354 364 Z" class="stroke2"/>
    <path d="M 545 806 Q 567 790 590 768 Q 603 756 619 758 Q 629 759 633 772 Q 637 787 626 815 Q 614 839 537 852 Q 521 853 516 851 Q 512 847 513 835 Q 517 825 545 806 Z" class="stroke3"/>
    <path d="M 580 682 Q 754 719 763 726 Q 770 733 767 741 Q 760 751 734 759 Q 706 763 679 753 Q 625 734 568 720 Q 504 705 428 698 Q 395 692 419 677 Q 455 659 521 670 Q 528 671 538 673 L 580 682 Z" class="stroke4"/>
    <path d="M 604 587 Q 668 602 724 610 Q 745 614 737 625 Q 727 638 705 642 Q 675 646 607 624 L 550 609 Q 490 596 438 583 Q 423 580 442 567 Q 455 557 485 563 Q 519 570 551 577 L 604 587 Z" class="stroke5"/>
    <path d="M 599 486 Q 668 502 727 513 Q 749 517 741 529 Q 731 542 707 546 Q 673 550 601 525 L 551 512 Q 485 496 426 480 Q 411 476 430 463 Q 446 453 476 459 Q 513 468 551 476 L 599 486 Z" class="stroke6"/>
    <path d="M 595 408 Q 596 450 599 486 L 601 525 Q 602 558 604 587 L 607 624 Q 607 628 608 632 Q 617 657 580 682 C 556 700 528 701 538 673 Q 550 643 550 609 L 551 577 Q 551 552 551 512 L 551 476 Q 551 443 551 398 C 551 368 594 378 595 408 Z" class="stroke7"/>
    <path d="M 551 398 Q 460 382 354 364 C 324 359 323 348 352 340 Q 391 328 425 336 Q 602 390 784 389 Q 793 390 803 389 Q 816 388 821 397 Q 825 407 812 419 Q 767 452 686 428 Q 643 419 595 408 L 551 398 Z" class="stroke8"/>
    <path d="M 499 94 Q 405 25 235 -8 Q 219 -11 230 -21 Q 237 -25 294 -23 Q 366 -19 447 13 Q 498 32 538 62 L 573 91 Q 624 143 669 222 Q 685 250 708 266 Q 730 279 718 295 Q 706 310 676 326 Q 652 336 564 307 Q 489 288 388 278 Q 373 278 368 270 Q 364 263 383 255 Q 420 240 471 254 Q 583 285 603 283 Q 619 277 611 260 Q 586 184 539 130 Q 533 126 529 119 L 499 94 Z" class="stroke9"/>
    <path d="M 538 62 Q 713 -86 766 -77 Q 857 -64 928 -40 Q 965 -30 960 -19 Q 959 -15 919 -9 Q 736 12 674 37 Q 641 50 573 91 L 529 119 Q 490 146 449 177 Q 406 210 372 204 Q 354 203 352 196 Q 351 189 368 181 Q 407 166 499 94 L 538 62 Z" class="stroke10"/>
    
    
    
    
    
    
    
    
    
    </g>
</svg>