<svg version="1.1" viewBox="0 0 1024 1024" xmlns="http://www.w3.org/2000/svg">
  
  <g transform="scale(1, -1) translate(0, -900)">
    <style type="text/css">
        .stroke1 {fill: #808080;}
        .stroke2 {fill: #808079;}
        .stroke3 {fill: #808078;}
        .stroke4 {fill: #808077;}
        .stroke5 {fill: #808076;}
        .stroke6 {fill: #808075;}
        .stroke7 {fill: #808074;}
        .stroke8 {fill: #808073;}
        .stroke9 {fill: #808072;}
        .stroke10 {fill: #808071;}
        .stroke11 {fill: #808070;}
        .stroke12 {fill: #808069;}
        .stroke13 {fill: #808068;}
        .stroke14 {fill: #808067;}
        .stroke15 {fill: #808066;}
        .stroke16 {fill: #808065;}
        .stroke17 {fill: #808064;}
        .stroke18 {fill: #808063;}
        .stroke19 {fill: #808062;}
        .stroke20 {fill: #808061;}
        text {
            font-family: Helvetica;
            font-size: 50px;
            fill: #808060;
            paint-order: stroke;
            stroke: #000000;
            stroke-width: 4px;
            stroke-linecap: butt;
            stroke-linejoin: miter;
            font-weight: 800;
        }
    </style>

    <path d="M 358 645 Q 365 648 449 661 Q 459 660 466 672 Q 467 682 446 691 Q 424 707 362 689 L 322 677 Q 315 676 310 674 Q 267 664 151 642 Q 126 638 146 623 Q 177 601 202 609 Q 248 622 306 633 L 358 645 Z" class="stroke1"/>
    <path d="M 355 603 Q 355 625 358 645 L 362 689 Q 368 738 384 769 Q 390 776 380 789 Q 361 805 336 815 Q 321 822 309 818 Q 297 814 302 802 Q 320 772 322 677 L 319 585 Q 316 516 310 487 Q 309 475 322 442 Q 331 429 344 435 Q 353 444 354 584 L 355 603 Z" class="stroke2"/>
    <path d="M 306 633 Q 257 545 137 426 Q 133 419 140 417 Q 144 416 153 421 Q 249 482 319 585 C 360 644 321 659 306 633 Z" class="stroke3"/>
    <path d="M 354 584 Q 358 581 367 575 Q 430 535 438 535 Q 444 536 446 544 Q 447 554 440 570 Q 431 591 360 603 Q 357 604 355 603 C 331 601 331 601 354 584 Z" class="stroke4"/>
    <path d="M 223 378 Q 190 372 214 357 Q 250 339 344 359 Q 372 366 405 373 Q 427 379 432 382 Q 439 389 435 397 Q 428 407 401 414 Q 373 418 347 406 Q 320 397 292 390 Q 261 383 223 378 Z" class="stroke5"/>
    <path d="M 342 265 Q 385 275 439 283 Q 452 284 453 291 Q 454 303 439 310 Q 417 320 396 315 Q 186 264 79 249 Q 69 248 66 241 Q 63 232 76 222 Q 112 198 145 211 Q 265 254 306 258 L 342 265 Z" class="stroke6"/>
    <path d="M 362 214 Q 365 241 342 265 C 323 288 299 287 306 258 Q 316 227 315 138 Q 314 69 307 53 Q 304 43 284 45 L 242 53 Q 232 54 231 49 Q 230 43 239 35 Q 288 -8 305 -34 Q 318 -46 326 -44 Q 336 -40 346 -12 Q 361 16 359 69 Q 358 163 360 200 L 362 214 Z" class="stroke7"/>
    <path d="M 195 175 Q 168 130 134 90 Q 113 69 124 36 Q 128 20 147 28 Q 193 53 209 124 Q 216 151 214 172 Q 211 179 206 181 Q 199 181 195 175 Z" class="stroke8"/>
    <path d="M 360 200 Q 408 152 423 153 Q 432 153 436 166 Q 436 175 428 188 Q 416 209 364 216 Q 363 216 362 214 C 353 207 353 207 360 200 Z" class="stroke9"/>
    <path d="M 794 439 Q 804 487 813 518 L 829 561 Q 838 591 865 615 Q 881 634 866 651 Q 850 664 797 686 Q 779 693 758 684 Q 709 662 668 649 L 620 637 Q 572 627 523 619 Q 507 618 509 608 Q 513 601 530 595 Q 555 585 587 598 Q 603 602 620 605 L 666 616 Q 703 626 743 635 Q 762 641 771 633 Q 784 620 781 593 Q 777 571 772 549 L 765 513 Q 756 479 747 447 C 739 418 788 410 794 439 Z" class="stroke10"/>
    <path d="M 813 518 Q 859 524 916 526 Q 938 526 956 528 Q 972 529 976 536 Q 980 546 966 556 Q 921 587 851 567 Q 839 566 829 561 L 772 549 Q 736 542 696 534 Q 680 531 663 527 L 620 519 Q 541 506 457 491 Q 441 488 454 475 Q 481 453 511 461 Q 562 479 620 490 L 662 498 Q 675 505 765 513 L 813 518 Z" class="stroke11"/>
    <path d="M 661 390 Q 719 400 801 411 Q 811 412 812 421 Q 812 428 794 439 L 747 447 Q 744 448 661 424 L 619 414 Q 570 405 529 398 Q 510 395 522 380 Q 529 373 538 369 L 619 383 L 661 390 Z" class="stroke12"/>
    <path d="M 661 313 Q 661 352 661 390 L 661 424 Q 661 461 662 498 L 663 527 Q 663 573 666 616 L 668 649 Q 672 710 683 745 Q 699 773 648 793 Q 617 809 599 804 Q 583 798 598 777 Q 617 752 619 721 Q 620 709 620 637 L 620 605 Q 620 568 620 519 L 620 490 Q 619 456 619 414 L 619 383 Q 616 256 616 77 Q 616 52 602 41 Q 599 40 547 43 Q 516 55 519 45 Q 520 38 538 25 Q 589 -18 602 -43 Q 615 -71 629 -73 Q 642 -74 656 -42 Q 672 0 670 68 Q 664 171 662 273 L 661 313 Z" class="stroke13"/>
    <path d="M 487 296 Q 526 247 547 245 Q 559 244 564 260 Q 565 272 557 289 Q 542 313 491 320 Q 482 321 482 311 Q 481 304 487 296 Z" class="stroke14"/>
    <path d="M 411 91 Q 402 87 403 79 Q 404 69 414 65 Q 436 59 464 54 Q 473 54 479 64 Q 485 74 561 159 Q 571 169 577 180 Q 584 189 582 196 Q 576 197 456 116 Q 414 92 411 91 Z" class="stroke15"/>
    <path d="M 732 235 Q 766 254 789 268 Q 841 305 863 313 Q 881 320 873 336 Q 863 351 841 364 Q 822 376 811 374 Q 801 373 803 362 Q 806 341 720 247 C 700 225 706 220 732 235 Z" class="stroke16"/>
    <path d="M 720 247 Q 683 284 661 313 C 642 337 646 298 662 273 Q 737 155 827 61 Q 846 39 866 39 Q 918 49 965 57 Q 984 60 984 65 Q 985 71 962 82 Q 839 137 799 172 Q 772 196 732 235 L 720 247 Z" class="stroke17"/>
    
    
    
    
    
    
    
    
    
    
    
    
    
    
    
    
    </g>
</svg>