<svg version="1.1" viewBox="0 0 1024 1024" xmlns="http://www.w3.org/2000/svg">
  
  <g transform="scale(1, -1) translate(0, -900)">
    <style type="text/css">
        .stroke1 {fill: #808080;}
        .stroke2 {fill: #808079;}
        .stroke3 {fill: #808078;}
        .stroke4 {fill: #808077;}
        .stroke5 {fill: #808076;}
        .stroke6 {fill: #808075;}
        .stroke7 {fill: #808074;}
        .stroke8 {fill: #808073;}
        .stroke9 {fill: #808072;}
        .stroke10 {fill: #808071;}
        .stroke11 {fill: #808070;}
        .stroke12 {fill: #808069;}
        .stroke13 {fill: #808068;}
        .stroke14 {fill: #808067;}
        .stroke15 {fill: #808066;}
        .stroke16 {fill: #808065;}
        .stroke17 {fill: #808064;}
        .stroke18 {fill: #808063;}
        .stroke19 {fill: #808062;}
        .stroke20 {fill: #808061;}
        text {
            font-family: Helvetica;
            font-size: 50px;
            fill: #808060;
            paint-order: stroke;
            stroke: #000000;
            stroke-width: 4px;
            stroke-linecap: butt;
            stroke-linejoin: miter;
            font-weight: 800;
        }
    </style>

    <path d="M 258 634 Q 249 582 239 523 C 234 493 271 503 278 532 Q 293 592 308 647 L 317 683 Q 318 716 346 759 Q 350 769 335 784 Q 308 806 287 813 Q 274 819 266 812 Q 259 808 263 793 Q 275 768 273 753 Q 269 711 263 666 L 258 634 Z" class="stroke1"/>
    <path d="M 407 562 Q 431 625 458 644 Q 471 660 459 675 Q 446 685 401 706 Q 385 712 317 683 L 263 666 Q 223 656 180 648 Q 165 647 167 638 Q 170 631 186 627 Q 208 618 238 630 Q 248 633 258 634 L 308 647 Q 332 654 358 660 Q 374 664 380 659 Q 387 652 385 638 Q 375 589 360 552 C 349 524 384 505 407 562 Z" class="stroke2"/>
    <path d="M 239 523 Q 121 501 59 493 Q 49 492 46 485 Q 43 476 56 466 Q 92 442 125 455 Q 284 509 467 535 Q 480 536 481 543 Q 482 555 467 562 Q 440 574 407 562 L 364 552 Q 315 542 278 532 L 239 523 Z" class="stroke3"/>
    <path d="M 202 430 Q 192 434 176 434 Q 166 435 164 432 Q 160 426 168 415 Q 187 384 204 333 Q 208 317 218 308 Q 234 292 237 305 Q 238 312 238 323 L 234 345 Q 224 391 222 407 C 220 424 220 424 202 430 Z" class="stroke4"/>
    <path d="M 378 367 Q 394 410 408 421 Q 427 440 408 453 Q 393 462 372 476 Q 359 483 312 460 Q 231 436 202 430 C 173 424 193 398 222 407 Q 249 416 315 432 Q 342 438 348 428 Q 352 425 348 408 Q 344 392 339 372 C 332 343 367 339 378 367 Z" class="stroke5"/>
    <path d="M 294 332 Q 327 339 384 346 Q 391 347 392 353 Q 392 357 378 367 C 369 374 369 374 339 372 Q 338 373 335 372 Q 280 356 234 345 C 205 338 208 325 238 323 Q 245 322 255 324 Q 259 325 266 326 L 294 332 Z" class="stroke6"/>
    <path d="M 324 241 Q 343 247 364 251 Q 388 257 391 260 Q 398 266 394 272 Q 390 279 369 285 Q 347 289 327 280 L 279 264 Q 258 258 201 250 Q 176 246 194 234 Q 216 222 279 231 L 324 241 Z" class="stroke7"/>
    <path d="M 323 136 Q 368 143 423 143 Q 439 142 447 147 Q 451 151 447 161 Q 441 170 412 184 Q 396 191 377 186 Q 358 180 330 175 Q 326 175 323 173 L 278 163 Q 227 151 180 135 Q 171 131 170 133 Q 167 136 169 141 Q 176 175 182 184 Q 188 194 179 203 Q 166 219 144 230 Q 134 234 128 228 Q 124 224 130 212 Q 158 161 117 127 Q 108 117 112 108 Q 118 93 131 81 Q 140 74 153 83 Q 183 110 276 128 L 323 136 Z" class="stroke8"/>
    <path d="M 276 128 Q 270 32 264 17 Q 255 -14 286 -62 Q 296 -78 303 -82 Q 313 -83 318 -71 Q 328 -43 326 -16 Q 323 65 323 136 L 323 173 Q 323 227 324 241 L 327 280 Q 327 308 324 310 Q 308 325 294 332 C 268 347 255 354 266 326 Q 266 325 269 321 Q 272 315 279 264 L 279 231 Q 279 201 278 163 L 276 128 Z" class="stroke9"/>
    <path d="M 679 713 Q 642 668 531 596 Q 527 586 534 584 Q 636 617 705 658 Q 748 683 788 696 Q 804 699 808 708 Q 809 720 796 729 Q 772 742 725 754 Q 709 760 695 756 Q 688 752 689 740 Q 690 725 679 713 Z" class="stroke10"/>
    <path d="M 487 492 Q 514 452 538 436 Q 548 432 556 441 Q 562 450 562 462 Q 556 496 502 518 Q 501 519 500 519 Q 488 523 481 522 Q 477 521 478 512 Q 478 505 487 492 Z" class="stroke11"/>
    <path d="M 598 540 Q 622 498 642 485 Q 652 481 660 489 Q 667 498 667 510 Q 666 528 654 539 Q 623 570 598 570 Q 595 571 594 570 Q 590 570 589 560 Q 589 553 598 540 Z" class="stroke12"/>
    <path d="M 783 572 Q 770 547 690 454 Q 680 438 698 441 Q 750 472 780 495 Q 841 544 867 554 Q 888 564 877 582 Q 864 598 838 612 Q 814 625 802 623 Q 789 622 794 608 Q 797 590 783 572 Z" class="stroke13"/>
    <path d="M 513 309 Q 543 324 579 345 Q 592 355 609 361 Q 624 367 617 379 Q 610 392 592 403 Q 576 413 567 412 Q 558 411 561 402 Q 561 386 504 321 C 484 298 486 296 513 309 Z" class="stroke14"/>
    <path d="M 536 95 L 534 119 Q 528 162 524 195 L 521 219 Q 514 283 514 301 Q 514 305 513 309 C 512 317 512 317 504 321 Q 494 327 467 333 Q 457 337 453 333 Q 447 327 453 313 Q 481 234 491 108 Q 491 71 510 43 Q 525 22 530 36 Q 534 46 536 61 L 536 95 Z" class="stroke15"/>
    <path d="M 524 195 Q 525 196 528 195 Q 577 205 628 216 L 629 216 Q 635 223 631 228 Q 625 235 604 239 Q 583 242 563 232 Q 551 228 538 224 Q 529 223 521 219 C 494 207 494 194 524 195 Z" class="stroke16"/>
    <path d="M 755 81 Q 755 80 757 77 Q 772 55 789 13 Q 799 -6 816 5 Q 849 23 866 136 Q 894 307 910 333 Q 923 354 906 367 Q 882 389 849 405 Q 836 414 818 408 Q 809 404 766 392 Q 718 379 664 373 Q 655 372 655 361 Q 656 351 672 344 Q 693 337 734 344 Q 815 374 829 366 Q 838 360 837 339 Q 834 297 828 254 L 823 223 Q 814 168 802 111 Q 799 99 782 101 C 753 93 748 92 755 81 Z" class="stroke17"/>
    <path d="M 828 254 Q 827 255 824 256 Q 806 262 744 251 Q 722 251 697 251 Q 669 250 687 234 Q 717 213 814 223 Q 818 223 823 223 C 853 223 855 241 828 254 Z" class="stroke18"/>
    <path d="M 782 101 Q 749 134 685 119 Q 603 103 536 95 C 506 91 506 62 536 61 Q 543 60 555 62 Q 619 75 755 81 C 785 82 802 83 782 101 Z" class="stroke19"/>
    
    
    
    
    
    
    
    
    
    
    
    
    
    
    
    
    
    
    </g>
</svg>