<svg version="1.1" viewBox="0 0 1024 1024" xmlns="http://www.w3.org/2000/svg">
  
  <g transform="scale(1, -1) translate(0, -900)">
    <style type="text/css">
        .stroke1 {fill: #808080;}
        .stroke2 {fill: #808079;}
        .stroke3 {fill: #808078;}
        .stroke4 {fill: #808077;}
        .stroke5 {fill: #808076;}
        .stroke6 {fill: #808075;}
        .stroke7 {fill: #808074;}
        .stroke8 {fill: #808073;}
        .stroke9 {fill: #808072;}
        .stroke10 {fill: #808071;}
        .stroke11 {fill: #808070;}
        .stroke12 {fill: #808069;}
        .stroke13 {fill: #808068;}
        .stroke14 {fill: #808067;}
        .stroke15 {fill: #808066;}
        .stroke16 {fill: #808065;}
        .stroke17 {fill: #808064;}
        .stroke18 {fill: #808063;}
        .stroke19 {fill: #808062;}
        .stroke20 {fill: #808061;}
        text {
            font-family: Helvetica;
            font-size: 50px;
            fill: #808060;
            paint-order: stroke;
            stroke: #000000;
            stroke-width: 4px;
            stroke-linecap: butt;
            stroke-linejoin: miter;
            font-weight: 800;
        }
    </style>

    <path d="M 216 737 Q 237 698 158 567 Q 121 507 70 442 Q 60 432 58 426 Q 55 416 69 418 Q 117 425 256 627 Q 263 652 298 686 Q 307 696 302 710 Q 298 722 270 743 Q 245 761 226 760 Q 208 759 216 737 Z" class="stroke1"/>
    <path d="M 389 708 Q 423 680 461 646 Q 476 633 492 634 Q 504 634 509 648 Q 513 664 503 695 Q 491 731 383 759 Q 367 762 360 759 Q 354 755 356 741 Q 360 731 389 708 Z" class="stroke2"/>
    <path d="M 398 350 Q 317 320 233 280 Q 226 274 221 277 Q 218 281 225 294 Q 340 481 366 513 Q 379 525 371 539 Q 364 552 309 574 Q 290 581 279 576 Q 266 569 274 546 Q 295 488 200 336 Q 179 296 129 254 Q 116 239 121 228 Q 128 210 158 191 Q 171 181 184 194 Q 223 237 399 319 Q 406 323 411 326 C 437 340 426 361 398 350 Z" class="stroke3"/>
    <path d="M 411 326 Q 444 254 457 246 Q 464 243 473 250 Q 488 259 488 300 Q 489 339 433 388 Q 396 421 373 436 Q 367 443 362 432 Q 358 422 364 409 Q 380 382 398 350 L 411 326 Z" class="stroke4"/>
    <path d="M 675 724 Q 798 751 921 752 Q 940 752 945 761 Q 949 771 934 783 Q 883 813 831 799 Q 735 775 546 737 Q 527 733 542 719 Q 555 707 572 704 Q 581 703 630 712 L 675 724 Z" class="stroke5"/>
    <path d="M 632 596 Q 678 654 705 679 Q 720 688 714 697 Q 705 709 675 724 C 648 738 619 740 630 712 Q 630 711 632 707 Q 641 686 602 591 C 591 563 613 573 632 596 Z" class="stroke6"/>
    <path d="M 574 587 Q 538 611 522 605 Q 515 601 521 588 Q 522 581 526 573 Q 536 552 538 356 Q 535 331 528 299 Q 516 248 550 205 Q 560 192 570 204 Q 579 217 581 233 L 584 268 L 584 358 L 584 382 Q 584 433 585 467 L 586 490 Q 586 524 589 559 C 590 577 590 577 574 587 Z" class="stroke7"/>
    <path d="M 807 250 Q 808 240 817 227 Q 832 196 842 198 Q 857 199 873 235 Q 889 263 887 284 Q 874 369 874 499 Q 873 538 893 570 Q 903 586 896 596 Q 868 620 820 640 Q 804 646 781 637 Q 736 618 632 596 L 602 591 Q 587 590 574 587 C 544 582 559 555 589 559 Q 595 559 602 560 Q 696 584 764 596 Q 788 602 796 589 Q 812 570 813 502 Q 819 312 809 275 Q 808 275 808 274 L 807 250 Z" class="stroke8"/>
    <path d="M 585 467 Q 615 458 706 477 Q 724 481 743 485 Q 765 489 768 493 Q 775 500 771 507 Q 764 516 741 521 Q 726 524 644 500 Q 616 494 586 490 C 556 486 556 474 585 467 Z" class="stroke9"/>
    <path d="M 584 358 Q 623 349 699 361 Q 724 365 752 370 Q 774 374 778 377 Q 785 384 782 390 Q 776 400 753 406 Q 729 412 705 403 Q 680 396 651 389 Q 620 383 584 382 C 554 381 555 364 584 358 Z" class="stroke10"/>
    <path d="M 581 233 Q 582 233 587 233 Q 656 245 807 250 C 831 251 829 253 808 274 Q 802 281 790 289 Q 774 299 743 293 Q 656 277 584 268 C 554 264 551 232 581 233 Z" class="stroke11"/>
    <path d="M 594 192 Q 575 125 411 17 Q 386 4 416 3 Q 494 3 618 107 Q 651 135 666 147 Q 679 157 678 168 Q 677 183 649 194 Q 621 209 606 206 Q 599 206 594 192 Z" class="stroke12"/>
    <path d="M 762 162 Q 814 102 873 17 Q 888 -5 903 -13 Q 912 -14 921 -6 Q 936 7 929 54 Q 920 121 767 194 Q 758 201 755 188 Q 752 175 762 162 Z" class="stroke13"/>
    
    
    
    
    
    
    
    
    
    
    
    
    </g>
</svg>