<svg version="1.1" viewBox="0 0 1024 1024" xmlns="http://www.w3.org/2000/svg">
  
  <g transform="scale(1, -1) translate(0, -900)">
    <style type="text/css">
        .stroke1 {fill: #808080;}
        .stroke2 {fill: #808079;}
        .stroke3 {fill: #808078;}
        .stroke4 {fill: #808077;}
        .stroke5 {fill: #808076;}
        .stroke6 {fill: #808075;}
        .stroke7 {fill: #808074;}
        .stroke8 {fill: #808073;}
        .stroke9 {fill: #808072;}
        .stroke10 {fill: #808071;}
        .stroke11 {fill: #808070;}
        .stroke12 {fill: #808069;}
        .stroke13 {fill: #808068;}
        .stroke14 {fill: #808067;}
        .stroke15 {fill: #808066;}
        .stroke16 {fill: #808065;}
        .stroke17 {fill: #808064;}
        .stroke18 {fill: #808063;}
        .stroke19 {fill: #808062;}
        .stroke20 {fill: #808061;}
        text {
            font-family: Helvetica;
            font-size: 50px;
            fill: #808060;
            paint-order: stroke;
            stroke: #000000;
            stroke-width: 4px;
            stroke-linecap: butt;
            stroke-linejoin: miter;
            font-weight: 800;
        }
    </style>

    <path d="M 359 729 Q 372 757 383 771 Q 390 784 380 799 Q 361 827 341 839 Q 325 851 307 849 Q 289 848 297 826 Q 330 709 124 429 Q 43 329 43 325 Q 43 319 49 320 Q 79 324 160 412 Q 161 415 164 417 Q 270 534 345 698 Q 346 702 348 705 L 359 729 Z" class="stroke1"/>
    <path d="M 348 705 Q 393 674 447 626 Q 463 611 476 609 Q 483 609 488 618 Q 498 631 482 666 Q 466 706 359 729 C 330 735 323 722 348 705 Z" class="stroke2"/>
    <path d="M 325 536 Q 341 517 360 495 Q 370 482 386 481 Q 396 481 401 493 Q 407 506 401 534 Q 394 559 324 580 Q 311 584 304 583 Q 300 579 300 568 Q 301 558 325 536 Z" class="stroke3"/>
    <path d="M 336 230 Q 432 341 463 357 Q 482 366 474 381 Q 470 396 403 424 Q 382 433 288 389 Q 228 368 196 366 Q 174 365 183 346 Q 192 334 210 325 Q 241 310 272 332 Q 347 386 369 375 Q 382 366 376 353 Q 348 299 317 237 C 304 210 316 207 336 230 Z" class="stroke4"/>
    <path d="M 317 237 Q 307 247 245 260 Q 236 264 235 253 Q 235 241 245 232 Q 288 196 341 143 Q 356 125 370 122 Q 377 121 385 131 Q 395 143 382 182 Q 373 215 336 230 L 317 237 Z" class="stroke5"/>
    <path d="M 660 730 Q 703 746 859 753 Q 902 753 909 763 Q 913 775 897 786 Q 840 823 783 801 Q 653 771 510 741 Q 491 738 506 723 Q 521 711 537 707 Q 556 703 572 709 Q 596 716 624 723 L 660 730 Z" class="stroke6"/>
    <path d="M 614 574 Q 635 599 664 645 Q 673 658 687 674 Q 700 684 694 695 Q 685 711 660 730 C 636 748 615 752 624 723 L 625 722 Q 632 694 594 597 Q 585 582 583 569 C 577 540 595 551 614 574 Z" class="stroke7"/>
    <path d="M 549 565 Q 549 566 548 566 Q 541 573 528 577 Q 519 581 509 578 Q 503 574 508 562 Q 509 555 513 549 Q 532 509 520 341 Q 508 263 510 253 Q 517 229 531 213 Q 541 201 550 212 Q 554 219 557 225 L 562 260 Q 562 270 563 338 L 563 357 Q 564 403 565 436 L 566 455 Q 567 516 569 523 Q 570 530 570 534 C 571 548 571 548 549 565 Z" class="stroke8"/>
    <path d="M 788 245 Q 789 235 797 224 Q 812 193 822 194 Q 837 195 854 230 Q 870 258 868 280 Q 858 358 861 480 Q 861 514 881 545 Q 891 561 884 572 Q 854 597 804 619 Q 788 625 763 616 Q 726 598 614 574 L 583 569 Q 565 568 549 565 C 519 561 540 531 570 534 Q 577 533 587 535 Q 681 560 750 572 Q 775 578 783 565 Q 798 546 797 484 Q 800 315 791 275 L 788 245 Z" class="stroke9"/>
    <path d="M 565 436 Q 572 433 621 441 Q 678 454 724 463 Q 746 469 738 480 Q 726 493 700 497 Q 669 498 566 455 C 538 443 535 440 565 436 Z" class="stroke10"/>
    <path d="M 563 338 Q 570 332 588 335 Q 670 348 730 356 Q 754 360 745 372 Q 735 387 709 391 Q 684 395 563 357 C 540 350 540 350 563 338 Z" class="stroke11"/>
    <path d="M 557 225 Q 563 225 571 226 Q 640 239 788 245 C 818 246 815 257 791 275 Q 785 279 778 285 Q 762 295 731 288 Q 637 269 562 260 C 532 256 527 224 557 225 Z" class="stroke12"/>
    <path d="M 564 180 Q 546 113 398 -4 Q 376 -17 403 -16 Q 482 -9 592 100 Q 623 130 637 142 Q 647 154 646 163 Q 643 176 617 186 Q 589 198 575 195 Q 568 194 564 180 Z" class="stroke13"/>
    <path d="M 731 150 Q 782 93 841 12 Q 856 -10 871 -17 Q 880 -18 889 -9 Q 904 3 895 51 Q 888 111 735 183 Q 726 190 723 176 Q 722 163 731 150 Z" class="stroke14"/>
    
    
    
    
    
    
    
    
    
    
    
    
    
    </g>
</svg>