<svg version="1.1" viewBox="0 0 1024 1024" xmlns="http://www.w3.org/2000/svg">
  
  <g transform="scale(1, -1) translate(0, -900)">
    <style type="text/css">
        .stroke1 {fill: #808080;}
        .stroke2 {fill: #808079;}
        .stroke3 {fill: #808078;}
        .stroke4 {fill: #808077;}
        .stroke5 {fill: #808076;}
        .stroke6 {fill: #808075;}
        .stroke7 {fill: #808074;}
        .stroke8 {fill: #808073;}
        .stroke9 {fill: #808072;}
        .stroke10 {fill: #808071;}
        .stroke11 {fill: #808070;}
        .stroke12 {fill: #808069;}
        .stroke13 {fill: #808068;}
        .stroke14 {fill: #808067;}
        .stroke15 {fill: #808066;}
        .stroke16 {fill: #808065;}
        .stroke17 {fill: #808064;}
        .stroke18 {fill: #808063;}
        .stroke19 {fill: #808062;}
        .stroke20 {fill: #808061;}
        text {
            font-family: Helvetica;
            font-size: 50px;
            fill: #808060;
            paint-order: stroke;
            stroke: #000000;
            stroke-width: 4px;
            stroke-linecap: butt;
            stroke-linejoin: miter;
            font-weight: 800;
        }
    </style>

    <path d="M 312 661 Q 263 697 237 686 Q 224 677 232 664 Q 253 637 254 570 Q 254 372 227 275 Q 199 179 133 56 Q 129 49 127 43 Q 126 31 136 34 Q 154 37 186 86 Q 315 254 316 536 Q 316 584 323 625 C 327 651 327 651 312 661 Z" class="stroke1"/>
    <path d="M 956 10 Q 949 89 947 222 Q 948 235 941 241 Q 934 245 930 230 Q 900 119 884 102 Q 878 93 854 104 Q 802 128 764 209 Q 731 282 721 375 Q 711 472 732 597 Q 736 640 766 674 Q 785 687 772 700 Q 760 719 725 745 Q 704 760 653 738 Q 611 732 312 661 C 283 654 294 617 323 625 Q 333 626 345 631 Q 478 668 645 692 Q 664 695 673 688 Q 676 685 677 654 Q 623 239 781 75 Q 835 9 923 -19 Q 942 -26 952 -16 Q 959 -9 956 10 Z" class="stroke2"/>
    <path d="M 524 347 Q 552 408 583 496 Q 602 541 603 543 Q 602 546 602 547 Q 590 566 564 587 Q 548 602 534 600 Q 521 596 525 581 Q 540 536 483 386 L 463 339 Q 415 240 316 140 Q 310 136 307 129 Q 303 119 313 119 Q 346 116 434 209 Q 441 218 450 228 Q 475 259 497 296 L 524 347 Z" class="stroke3"/>
    <path d="M 497 296 Q 540 238 590 170 Q 600 151 614 145 Q 621 142 629 150 Q 642 160 636 200 Q 633 248 524 347 L 483 386 Q 411 452 369 486 Q 362 492 358 481 Q 357 469 364 459 Q 412 405 463 339 L 497 296 Z" class="stroke4"/>
    
    
    
    </g>
</svg>