<svg version="1.1" viewBox="0 0 1024 1024" xmlns="http://www.w3.org/2000/svg">
  
  <g transform="scale(1, -1) translate(0, -900)">
    <style type="text/css">
        .stroke1 {fill: #808080;}
        .stroke2 {fill: #808079;}
        .stroke3 {fill: #808078;}
        .stroke4 {fill: #808077;}
        .stroke5 {fill: #808076;}
        .stroke6 {fill: #808075;}
        .stroke7 {fill: #808074;}
        .stroke8 {fill: #808073;}
        .stroke9 {fill: #808072;}
        .stroke10 {fill: #808071;}
        .stroke11 {fill: #808070;}
        .stroke12 {fill: #808069;}
        .stroke13 {fill: #808068;}
        .stroke14 {fill: #808067;}
        .stroke15 {fill: #808066;}
        .stroke16 {fill: #808065;}
        .stroke17 {fill: #808064;}
        .stroke18 {fill: #808063;}
        .stroke19 {fill: #808062;}
        .stroke20 {fill: #808061;}
        text {
            font-family: Helvetica;
            font-size: 50px;
            fill: #808060;
            paint-order: stroke;
            stroke: #000000;
            stroke-width: 4px;
            stroke-linecap: butt;
            stroke-linejoin: miter;
            font-weight: 800;
        }
    </style>

    <path d="M 239 514 Q 279 572 316 639 L 324 654 Q 343 696 369 747 L 380 769 Q 392 796 393 799 Q 390 808 376 818 Q 342 843 309 834 Q 300 830 304 818 Q 331 740 221 562 Q 173 492 72 376 Q 65 369 75 368 Q 126 383 208 475 L 239 514 Z" class="stroke1"/>
    <path d="M 369 747 Q 376 743 392 734 Q 423 718 459 696 Q 472 689 484 691 Q 491 692 493 704 Q 494 716 483 737 Q 474 755 444 763 Q 413 767 380 769 C 350 771 343 762 369 747 Z" class="stroke2"/>
    <path d="M 316 639 Q 319 630 377 594 Q 395 584 408 586 Q 420 587 422 604 Q 421 616 408 631 Q 396 644 373 647 Q 336 654 324 654 C 306 655 306 655 316 639 Z" class="stroke3"/>
    <path d="M 366 317 Q 382 296 397 290 Q 407 283 420 303 Q 432 325 452 445 Q 458 473 476 497 Q 486 509 476 520 Q 461 533 422 554 Q 404 561 357 540 Q 302 522 262 503 C 235 490 247 463 274 476 Q 370 522 391 514 Q 404 505 401 487 Q 386 355 372 345 C 360 324 360 324 366 317 Z" class="stroke4"/>
    <path d="M 268 383 Q 272 382 278 383 Q 327 396 363 403 Q 384 410 374 421 Q 362 433 338 434 Q 293 434 269 410 C 247 389 244 386 268 383 Z" class="stroke5"/>
    <path d="M 265 292 Q 361 316 366 317 C 395 324 398 330 372 345 Q 351 360 273 326 Q 269 326 266 324 C 238 312 236 285 265 292 Z" class="stroke6"/>
    <path d="M 385 221 Q 351 202 284 158 Q 274 152 269 155 Q 262 161 265 292 L 266 324 Q 266 358 268 383 L 269 410 Q 269 464 274 476 C 277 495 277 495 262 503 Q 255 509 239 514 C 211 526 197 503 208 475 Q 245 391 220 207 Q 216 188 211 171 Q 205 137 172 98 Q 160 86 168 66 Q 177 39 191 27 Q 203 18 215 33 Q 260 91 395 204 C 418 223 411 236 385 221 Z" class="stroke7"/>
    <path d="M 395 204 Q 422 170 436 161 Q 449 155 459 166 Q 468 176 468 192 Q 465 234 394 269 Q 379 276 370 275 Q 364 275 365 263 Q 365 257 385 221 L 395 204 Z" class="stroke8"/>
    <path d="M 610 615 Q 641 664 677 732 Q 693 766 708 784 Q 715 796 709 808 Q 705 820 674 839 Q 647 852 629 851 Q 611 847 621 827 Q 657 767 507 522 Q 498 512 497 505 Q 496 495 508 498 Q 535 510 593 591 L 610 615 Z" class="stroke9"/>
    <path d="M 700 587 Q 859 629 865 635 Q 872 644 868 652 Q 861 664 830 669 Q 799 673 769 659 Q 735 646 696 634 Q 656 624 610 615 C 581 609 566 603 593 591 L 594 591 Q 610 582 632 579 L 700 587 Z" class="stroke10"/>
    <path d="M 555 426 Q 554 429 549 430 Q 522 440 506 438 Q 496 434 501 423 Q 531 374 514 280 Q 495 264 520 218 Q 524 211 532 202 Q 539 192 548 197 Q 572 215 569 282 Q 568 378 568 398 L 555 426 Z" class="stroke11"/>
    <path d="M 710 432 Q 798 454 820 446 Q 830 442 833 419 Q 837 337 831 271 Q 830 258 822 256 Q 813 252 761 254 Q 749 255 750 248 Q 751 241 768 232 Q 799 204 823 176 Q 836 161 851 163 Q 861 164 876 192 Q 894 220 894 281 Q 894 419 908 440 Q 920 456 905 471 Q 886 487 845 501 Q 824 510 772 485 Q 736 476 710 465 L 656 450 Q 590 434 555 426 C 526 419 538 393 568 398 Q 583 399 604 406 Q 631 413 656 419 L 710 432 Z" class="stroke12"/>
    <path d="M 710 465 Q 710 466 711 467 Q 711 489 721 554 Q 725 572 710 581 Q 706 585 700 587 C 676 604 620 606 632 579 Q 654 539 656 462 Q 656 458 656 450 L 656 419 Q 656 -55 664 -75 Q 667 -79 670 -85 Q 676 -92 683 -90 Q 701 -78 704 -20 Q 713 59 710 139 Q 707 202 710 432 L 710 465 Z" class="stroke13"/>
    
    
    
    
    
    
    
    
    
    
    
    
    </g>
</svg>