<svg version="1.1" viewBox="0 0 1024 1024" xmlns="http://www.w3.org/2000/svg">
  
  <g transform="scale(1, -1) translate(0, -900)">
    <style type="text/css">
        .stroke1 {fill: #808080;}
        .stroke2 {fill: #808079;}
        .stroke3 {fill: #808078;}
        .stroke4 {fill: #808077;}
        .stroke5 {fill: #808076;}
        .stroke6 {fill: #808075;}
        .stroke7 {fill: #808074;}
        .stroke8 {fill: #808073;}
        .stroke9 {fill: #808072;}
        .stroke10 {fill: #808071;}
        .stroke11 {fill: #808070;}
        .stroke12 {fill: #808069;}
        .stroke13 {fill: #808068;}
        .stroke14 {fill: #808067;}
        .stroke15 {fill: #808066;}
        .stroke16 {fill: #808065;}
        .stroke17 {fill: #808064;}
        .stroke18 {fill: #808063;}
        .stroke19 {fill: #808062;}
        .stroke20 {fill: #808061;}
        text {
            font-family: Helvetica;
            font-size: 50px;
            fill: #808060;
            paint-order: stroke;
            stroke: #000000;
            stroke-width: 4px;
            stroke-linecap: butt;
            stroke-linejoin: miter;
            font-weight: 800;
        }
    </style>

    <path d="M 377 797 Q 399 779 422 758 Q 435 748 448 748 Q 457 749 461 760 Q 465 773 456 799 Q 447 823 371 839 Q 358 840 352 839 Q 348 835 349 824 Q 353 814 377 797 Z" class="stroke1"/>
    <path d="M 587 841 Q 581 826 545 765 Q 538 749 552 754 Q 585 775 627 807 Q 642 823 662 833 Q 680 843 668 858 Q 655 871 632 882 Q 610 892 599 888 Q 589 885 593 874 Q 597 858 587 841 Z" class="stroke2"/>
    <path d="M 505 682 Q 572 695 645 705 Q 708 718 718 725 Q 725 732 722 738 Q 716 748 693 755 Q 675 761 555 729 Q 437 702 304 693 Q 276 690 295 675 Q 328 656 408 668 Q 433 672 462 675 L 505 682 Z" class="stroke3"/>
    <path d="M 520 591 Q 661 618 666 621 Q 673 628 670 634 Q 664 644 641 651 Q 617 657 524 629 L 468 617 Q 413 610 352 605 Q 322 602 343 587 Q 370 571 443 579 Q 455 582 469 583 L 520 591 Z" class="stroke4"/>
    <path d="M 514 539 Q 517 567 520 591 L 524 629 Q 524 635 525 638 Q 534 657 505 682 C 483 702 455 704 462 675 Q 465 666 468 617 L 469 583 Q 469 562 471 532 C 473 502 511 509 514 539 Z" class="stroke5"/>
    <path d="M 387 490 Q 447 502 538 511 L 569 513 Q 650 522 770 522 Q 786 523 791 530 Q 795 540 781 552 Q 735 585 704 576 Q 631 560 514 539 L 471 532 Q 353 516 214 495 Q 196 494 210 479 Q 222 467 238 463 Q 256 459 270 463 Q 304 473 343 481 L 387 490 Z" class="stroke6"/>
    <path d="M 357 378 Q 402 432 411 437 Q 418 441 419 450 Q 416 469 387 490 C 364 509 348 511 343 481 Q 333 394 198 279 Q 194 278 192 274 Q 149 238 47 171 Q 38 167 48 163 Q 117 163 250 270 Q 271 288 329 347 L 357 378 Z" class="stroke7"/>
    <path d="M 538 511 Q 583 451 767 289 Q 791 267 830 267 Q 902 266 976 284 Q 995 287 996 292 Q 997 299 983 304 Q 931 322 869 338 Q 740 380 574 509 Q 571 512 569 513 C 545 532 519 534 538 511 Z" class="stroke8"/>
    <path d="M 453 460 Q 502 418 522 419 Q 532 420 535 435 Q 534 445 524 459 Q 505 480 453 481 Q 446 481 446 472 Q 446 465 453 460 Z" class="stroke9"/>
    <path d="M 533 208 Q 546 192 557 186 Q 566 180 578 198 Q 588 214 609 305 Q 616 330 634 351 Q 644 361 635 372 Q 622 385 588 406 Q 567 415 380 362 C 351 354 372 328 400 338 Q 418 347 535 371 Q 548 374 557 369 Q 567 362 565 348 Q 552 260 545 247 Q 541 237 530 234 C 517 226 517 226 533 208 Z" class="stroke10"/>
    <path d="M 396 265 Q 400 265 405 266 Q 469 279 518 287 Q 537 291 529 302 Q 519 314 498 316 Q 473 317 395 287 C 367 276 366 263 396 265 Z" class="stroke11"/>
    <path d="M 396 186 Q 397 186 402 187 Q 444 199 533 208 C 561 211 554 216 530 234 Q 529 235 526 237 Q 513 243 492 236 Q 437 221 396 212 C 367 206 366 181 396 186 Z" class="stroke12"/>
    <path d="M 380 362 Q 370 372 357 378 C 331 394 319 375 329 347 Q 363 265 347 87 Q 343 41 305 -4 Q 295 -17 301 -39 Q 310 -64 321 -75 Q 333 -82 345 -67 Q 363 -42 516 60 Q 534 70 539 78 Q 543 87 535 88 Q 526 88 408 40 Q 390 33 391 50 Q 395 123 396 186 L 396 212 Q 396 240 396 265 L 395 287 Q 396 312 400 338 C 401 346 401 346 380 362 Z" class="stroke13"/>
    <path d="M 611 134 Q 650 162 689 194 Q 704 209 723 219 Q 741 228 731 242 Q 719 255 696 266 Q 677 276 665 273 Q 655 272 659 261 Q 663 242 593 143 Q 592 143 591 140 C 574 115 587 116 611 134 Z" class="stroke14"/>
    <path d="M 591 140 Q 548 153 520 159 Q 510 162 512 150 Q 513 138 526 131 Q 626 82 751 2 Q 770 -13 784 -13 Q 791 -12 796 -1 Q 803 14 783 49 Q 759 94 611 134 L 591 140 Z" class="stroke15"/>
    
    
    
    
    
    
    
    
    
    
    
    
    
    
    </g>
</svg>