<svg version="1.1" viewBox="0 0 1024 1024" xmlns="http://www.w3.org/2000/svg">
  
  <g transform="scale(1, -1) translate(0, -900)">
    <style type="text/css">
        .stroke1 {fill: #808080;}
        .stroke2 {fill: #808079;}
        .stroke3 {fill: #808078;}
        .stroke4 {fill: #808077;}
        .stroke5 {fill: #808076;}
        .stroke6 {fill: #808075;}
        .stroke7 {fill: #808074;}
        .stroke8 {fill: #808073;}
        .stroke9 {fill: #808072;}
        .stroke10 {fill: #808071;}
        .stroke11 {fill: #808070;}
        .stroke12 {fill: #808069;}
        .stroke13 {fill: #808068;}
        .stroke14 {fill: #808067;}
        .stroke15 {fill: #808066;}
        .stroke16 {fill: #808065;}
        .stroke17 {fill: #808064;}
        .stroke18 {fill: #808063;}
        .stroke19 {fill: #808062;}
        .stroke20 {fill: #808061;}
        text {
            font-family: Helvetica;
            font-size: 50px;
            fill: #808060;
            paint-order: stroke;
            stroke: #000000;
            stroke-width: 4px;
            stroke-linecap: butt;
            stroke-linejoin: miter;
            font-weight: 800;
        }
    </style>

    <path d="M 216 492 Q 258 544 294 598 L 306 617 Q 325 653 351 696 L 362 716 Q 362 717 363 717 Q 372 732 378 739 Q 385 743 382 754 Q 381 764 367 774 Q 333 801 303 793 Q 294 790 298 778 Q 316 691 191 525 Q 188 524 186 519 Q 149 473 56 379 Q 49 375 59 372 Q 104 379 194 468 L 216 492 Z" class="stroke1"/>
    <path d="M 351 696 Q 358 690 372 682 Q 409 661 449 634 Q 461 627 472 629 Q 479 630 482 640 Q 483 652 474 672 Q 459 703 363 716 L 362 716 C 332 719 327 715 351 696 Z" class="stroke2"/>
    <path d="M 294 598 Q 301 592 316 585 Q 338 573 364 557 Q 374 550 385 553 Q 392 554 394 564 Q 395 574 385 593 Q 373 614 306 617 C 276 618 270 617 294 598 Z" class="stroke3"/>
    <path d="M 357 283 Q 370 267 382 262 Q 391 256 402 275 Q 414 297 432 414 Q 438 439 455 461 Q 465 471 456 482 Q 443 495 407 514 Q 394 520 348 505 Q 344 505 284 486 Q 262 479 245 473 C 217 463 232 436 260 447 Q 260 448 262 448 Q 361 487 378 475 Q 391 468 388 450 Q 373 320 356 309 C 346 295 346 295 357 283 Z" class="stroke4"/>
    <path d="M 257 355 Q 303 368 340 376 Q 358 382 349 390 Q 340 400 320 402 Q 286 402 256 380 C 232 363 228 347 257 355 Z" class="stroke5"/>
    <path d="M 257 264 Q 263 263 271 265 Q 298 275 357 283 C 387 287 381 293 356 309 Q 355 310 353 311 Q 341 317 319 309 Q 285 297 257 289 C 228 281 227 267 257 264 Z" class="stroke6"/>
    <path d="M 357 184 Q 356 183 353 181 Q 310 156 261 125 Q 254 121 252 128 Q 255 201 257 264 L 257 289 Q 257 323 257 355 L 256 380 Q 256 416 260 447 C 261 461 261 461 245 473 Q 230 486 216 492 C 190 507 182 496 194 468 Q 233 390 212 162 Q 211 120 179 77 Q 169 64 176 45 Q 186 23 197 13 Q 209 6 218 21 Q 231 49 368 166 C 391 186 382 200 357 184 Z" class="stroke7"/>
    <path d="M 368 166 Q 392 133 403 130 Q 410 129 417 137 Q 424 147 422 171 Q 419 198 352 234 Q 342 238 336 238 Q 332 237 330 226 Q 331 217 348 197 Q 352 191 357 184 L 368 166 Z" class="stroke8"/>
    <path d="M 548 545 Q 575 579 618 604 Q 625 610 635 614 Q 653 624 643 638 Q 631 651 608 662 Q 589 672 578 670 Q 568 669 571 657 Q 577 635 505 543 Q 490 527 477 508 Q 470 495 484 497 Q 509 516 530 531 L 548 545 Z" class="stroke9"/>
    <path d="M 741 466 Q 864 509 869 514 Q 876 521 872 530 Q 865 540 837 544 Q 813 547 734 512 L 693 495 Q 651 483 591 460 L 555 451 Q 518 444 481 435 Q 448 426 474 413 Q 507 397 560 410 L 597 422 Q 646 438 699 453 L 741 466 Z" class="stroke10"/>
    <path d="M 591 460 Q 587 488 587 510 Q 587 525 577 531 Q 562 541 548 545 C 520 556 517 557 530 531 Q 545 506 555 451 L 560 410 Q 563 365 568 313 L 569 278 Q 570 146 544 98 Q 543 92 535 90 Q 526 87 483 106 Q 476 107 474 105 Q 473 102 478 95 Q 515 49 532 17 Q 538 7 543 7 Q 555 8 574 28 Q 616 67 616 188 Q 613 234 608 308 L 606 337 Q 602 392 597 422 L 591 460 Z" class="stroke11"/>
    <path d="M 568 313 Q 439 244 423 240 Q 413 236 414 228 Q 415 218 423 213 Q 444 206 472 197 Q 481 197 488 205 Q 513 238 569 278 L 608 308 Q 614 314 622 319 Q 658 346 655 359 Q 651 363 641 358 Q 625 348 606 337 L 568 313 Z" class="stroke12"/>
    <path d="M 753 232 Q 754 231 755 229 Q 804 76 899 -19 Q 924 -43 939 -44 Q 952 -47 961 -36 Q 968 -27 964 15 Q 961 51 967 142 Q 971 169 963 171 Q 956 172 946 149 Q 919 65 901 75 Q 847 114 796 247 Q 792 256 789 265 L 775 309 Q 751 402 741 466 L 734 512 Q 710 701 721 763 Q 734 794 714 813 Q 708 817 702 822 Q 683 837 670 839 Q 657 840 657 839 Q 635 835 651 812 Q 661 806 675 707 Q 679 602 693 495 L 699 453 Q 700 450 701 446 Q 720 340 742 266 L 753 232 Z" class="stroke13"/>
    <path d="M 742 266 Q 717 238 657 185 Q 650 181 659 179 Q 704 191 753 232 L 789 265 Q 819 296 872 368 Q 887 392 887 393 Q 886 400 876 411 Q 851 436 825 431 Q 818 430 819 420 Q 822 384 775 309 L 742 266 Z" class="stroke14"/>
    <path d="M 801 666 Q 828 645 858 620 Q 871 608 887 610 Q 897 611 901 624 Q 905 639 894 667 Q 882 695 793 712 Q 777 713 772 711 Q 768 707 769 695 Q 773 685 801 666 Z" class="stroke15"/>
    
    
    
    
    
    
    
    
    
    
    
    
    
    
    </g>
</svg>