<svg version="1.1" viewBox="0 0 1024 1024" xmlns="http://www.w3.org/2000/svg">
  
  <g transform="scale(1, -1) translate(0, -900)">
    <style type="text/css">
        .stroke1 {fill: #808080;}
        .stroke2 {fill: #808079;}
        .stroke3 {fill: #808078;}
        .stroke4 {fill: #808077;}
        .stroke5 {fill: #808076;}
        .stroke6 {fill: #808075;}
        .stroke7 {fill: #808074;}
        .stroke8 {fill: #808073;}
        .stroke9 {fill: #808072;}
        .stroke10 {fill: #808071;}
        .stroke11 {fill: #808070;}
        .stroke12 {fill: #808069;}
        .stroke13 {fill: #808068;}
        .stroke14 {fill: #808067;}
        .stroke15 {fill: #808066;}
        .stroke16 {fill: #808065;}
        .stroke17 {fill: #808064;}
        .stroke18 {fill: #808063;}
        .stroke19 {fill: #808062;}
        .stroke20 {fill: #808061;}
        text {
            font-family: Helvetica;
            font-size: 50px;
            fill: #808060;
            paint-order: stroke;
            stroke: #000000;
            stroke-width: 4px;
            stroke-linecap: butt;
            stroke-linejoin: miter;
            font-weight: 800;
        }
    </style>

    <path d="M 214 501 Q 286 585 367 749 L 377 770 Q 380 785 397 805 Q 404 811 401 821 Q 398 831 384 842 Q 348 869 315 859 Q 306 855 310 843 Q 334 761 219 578 Q 129 463 60 388 Q 53 382 63 380 Q 108 395 198 483 L 214 501 Z" class="stroke1"/>
    <path d="M 367 749 Q 371 745 383 737 Q 420 713 461 684 Q 471 675 483 677 Q 490 678 494 688 Q 495 700 487 720 Q 480 741 446 755 Q 412 765 377 770 C 347 774 344 769 367 749 Z" class="stroke2"/>
    <path d="M 343 614 Q 385 578 411 573 Q 423 573 428 584 Q 431 594 427 607 Q 412 644 350 645 L 348 645 Q 335 646 328 643 Q 324 642 327 632 Q 330 623 343 614 Z" class="stroke3"/>
    <path d="M 372 315 Q 373 314 376 309 Q 395 278 416 302 Q 431 318 440 388 Q 440 437 465 476 Q 477 492 464 506 Q 448 519 419 535 Q 406 541 391 534 Q 331 503 263 482 C 234 473 241 444 269 455 Q 383 500 393 499 L 395 498 Q 402 494 399 471 Q 387 344 376 336 C 368 321 368 321 372 315 Z" class="stroke4"/>
    <path d="M 266 383 Q 269 386 348 404 Q 366 410 358 418 Q 348 428 328 429 Q 289 429 267 407 C 245 386 239 371 266 383 Z" class="stroke5"/>
    <path d="M 265 293 Q 266 293 269 292 Q 279 291 289 295 Q 314 305 372 315 C 402 320 402 320 376 336 Q 346 357 268 321 Q 265 321 265 320 C 237 310 236 300 265 293 Z" class="stroke6"/>
    <path d="M 387 194 Q 356 179 282 138 Q 272 134 269 136 Q 262 142 265 293 L 265 320 Q 265 357 266 383 L 267 407 Q 267 443 269 455 C 271 478 271 478 263 482 Q 254 491 214 501 C 185 509 183 509 198 483 Q 198 482 201 477 Q 228 441 231 329 Q 231 157 191 100 Q 154 66 194 24 L 196 23 Q 206 16 217 28 Q 263 79 397 182 C 421 200 414 207 387 194 Z" class="stroke7"/>
    <path d="M 397 182 Q 428 137 439 134 Q 446 133 453 141 Q 460 151 459 175 Q 456 211 376 254 Q 366 258 360 258 Q 356 257 354 246 Q 355 237 371 217 Q 378 207 387 194 L 397 182 Z" class="stroke8"/>
    <path d="M 633 655 Q 661 676 687 699 L 718 732 Q 718 733 719 733 Q 753 773 785 804 Q 795 813 786 828 Q 758 862 732 866 Q 722 866 721 853 Q 720 805 674 746 L 649 718 Q 648 718 648 717 Q 615 680 576 654 Q 543 632 527 618 Q 517 606 531 608 Q 558 608 613 643 L 633 655 Z" class="stroke9"/>
    <path d="M 687 699 Q 741 674 801 639 Q 816 629 827 629 Q 833 630 836 638 Q 842 650 824 676 Q 809 704 718 732 L 674 746 Q 599 768 556 778 Q 549 779 551 771 Q 552 762 562 757 Q 604 741 649 718 L 687 699 Z" class="stroke10"/>
    <path d="M 641 514 Q 773 550 938 550 Q 956 550 961 558 Q 965 568 950 580 Q 901 613 837 592 Q 785 580 709 562 Q 681 558 655 551 L 599 540 Q 554 533 509 524 Q 491 521 506 507 Q 536 486 575 497 Q 579 498 585 499 L 641 514 Z" class="stroke11"/>
    <path d="M 586 407 Q 619 461 641 514 L 655 551 Q 665 582 672 591 Q 682 601 678 613 Q 654 649 633 655 C 608 667 608 667 613 643 L 614 641 Q 620 617 610 580 Q 609 580 599 540 L 585 499 Q 555 406 462 312 Q 458 308 454 303 Q 450 296 459 295 Q 486 294 556 366 Q 559 372 567 379 L 586 407 Z" class="stroke12"/>
    <path d="M 609 190 Q 612 233 616 264 L 618 286 Q 622 341 627 360 C 630 377 630 377 623 385 Q 614 400 586 407 C 558 416 560 408 567 379 Q 591 295 553 137 Q 531 80 533 70 Q 534 43 549 25 Q 555 12 565 17 Q 604 48 606 162 Q 606 165 607 168 L 609 190 Z" class="stroke13"/>
    <path d="M 627 360 Q 643 360 666 369 Q 760 394 775 389 Q 785 383 783 358 Q 796 202 789 81 Q 788 56 773 51 Q 761 47 698 62 Q 685 65 686 56 Q 687 49 703 39 Q 742 8 771 -26 Q 787 -42 805 -41 Q 820 -38 839 7 Q 863 52 859 98 Q 852 209 844 310 Q 840 350 857 382 Q 869 398 854 411 Q 836 426 797 438 Q 779 447 735 424 Q 681 403 623 385 C 594 376 597 356 627 360 Z" class="stroke14"/>
    <path d="M 616 264 Q 623 264 630 265 Q 696 277 745 284 Q 764 287 757 298 Q 748 310 727 313 Q 700 316 618 286 C 590 276 586 263 616 264 Z" class="stroke15"/>
    <path d="M 607 168 Q 613 167 624 168 Q 697 180 752 186 Q 773 190 765 201 Q 755 214 733 218 Q 702 222 609 190 C 581 180 577 171 607 168 Z" class="stroke16"/>
    
    
    
    
    
    
    
    
    
    
    
    
    
    
    
    </g>
</svg>