<svg version="1.1" viewBox="0 0 1024 1024" xmlns="http://www.w3.org/2000/svg">
  
  <g transform="scale(1, -1) translate(0, -900)">
    <style type="text/css">
        .stroke1 {fill: #808080;}
        .stroke2 {fill: #808079;}
        .stroke3 {fill: #808078;}
        .stroke4 {fill: #808077;}
        .stroke5 {fill: #808076;}
        .stroke6 {fill: #808075;}
        .stroke7 {fill: #808074;}
        .stroke8 {fill: #808073;}
        .stroke9 {fill: #808072;}
        .stroke10 {fill: #808071;}
        .stroke11 {fill: #808070;}
        .stroke12 {fill: #808069;}
        .stroke13 {fill: #808068;}
        .stroke14 {fill: #808067;}
        .stroke15 {fill: #808066;}
        .stroke16 {fill: #808065;}
        .stroke17 {fill: #808064;}
        .stroke18 {fill: #808063;}
        .stroke19 {fill: #808062;}
        .stroke20 {fill: #808061;}
        text {
            font-family: Helvetica;
            font-size: 50px;
            fill: #808060;
            paint-order: stroke;
            stroke: #000000;
            stroke-width: 4px;
            stroke-linecap: butt;
            stroke-linejoin: miter;
            font-weight: 800;
        }
    </style>

    <path d="M 167 456 Q 171 465 177 471 Q 217 529 262 606 L 272 624 Q 302 690 323 724 L 336 746 Q 343 761 354 770 Q 363 780 357 794 Q 353 807 322 827 Q 294 843 276 842 Q 257 838 267 817 Q 286 781 273 749 Q 212 574 37 335 Q 27 325 26 318 Q 23 306 37 310 Q 73 320 159 445 L 167 456 Z" class="stroke1"/>
    <path d="M 323 724 Q 327 720 340 711 Q 418 656 430 656 Q 439 657 441 668 Q 444 680 435 702 Q 428 721 397 733 Q 369 742 336 746 C 306 750 300 744 323 724 Z" class="stroke2"/>
    <path d="M 262 606 Q 283 564 358 538 Q 370 537 376 548 Q 380 558 376 571 Q 363 604 280 624 Q 276 625 272 624 C 253 622 253 622 262 606 Z" class="stroke3"/>
    <path d="M 339 263 Q 358 230 381 254 Q 394 269 405 325 Q 411 394 436 431 Q 449 447 436 461 Q 420 477 393 492 Q 378 499 364 493 Q 297 463 218 444 C 189 437 207 410 235 421 Q 236 422 240 423 Q 280 438 309 448 Q 349 463 366 455 Q 373 451 370 428 Q 361 364 353 309 Q 350 288 336 287 C 326 282 326 282 339 263 Z" class="stroke4"/>
    <path d="M 233 332 Q 233 333 236 333 Q 279 348 313 358 Q 332 365 322 374 Q 312 384 290 383 Q 253 382 233 361 C 212 340 205 323 233 332 Z" class="stroke5"/>
    <path d="M 233 236 Q 281 252 339 263 C 368 269 362 272 336 287 Q 309 305 239 270 Q 235 270 233 268 C 206 255 205 227 233 236 Z" class="stroke6"/>
    <path d="M 345 162 Q 314 147 253 114 Q 244 110 241 113 Q 235 116 236 130 Q 235 190 233 236 L 233 268 Q 233 305 233 332 L 233 361 Q 233 391 235 421 C 236 436 236 436 218 444 Q 185 462 167 456 C 154 456 154 456 159 445 Q 159 441 165 432 Q 192 396 198 280 Q 198 132 168 85 Q 143 51 147 36 Q 154 11 167 -1 Q 177 -8 189 4 Q 231 53 355 147 C 379 165 372 175 345 162 Z" class="stroke7"/>
    <path d="M 355 147 Q 368 128 382 102 Q 389 90 400 87 Q 407 86 414 93 Q 420 103 421 125 Q 421 158 347 205 Q 337 211 332 210 Q 328 209 326 199 Q 326 192 345 162 L 355 147 Z" class="stroke8"/>
    <path d="M 526 696 Q 516 703 481 708 Q 471 711 467 706 Q 461 700 469 685 Q 502 615 521 500 Q 525 466 545 443 Q 561 422 566 437 Q 570 449 570 465 L 567 495 Q 566 504 564 513 Q 555 553 549 584 L 545 606 Q 538 645 535 664 C 530 694 530 694 526 696 Z" class="stroke9"/>
    <path d="M 692 482 Q 711 451 729 441 Q 739 434 754 454 Q 770 479 802 622 Q 811 652 834 676 Q 847 688 836 701 Q 821 717 780 743 Q 764 750 694 733 Q 667 733 526 696 C 497 688 508 652 535 664 Q 547 676 711 703 Q 733 707 743 699 Q 758 689 753 667 Q 728 532 710 506 C 697 479 689 487 692 482 Z" class="stroke10"/>
    <path d="M 549 584 Q 615 575 694 600 L 695 600 Q 701 606 698 612 Q 694 619 673 625 Q 661 628 593 612 Q 571 608 545 606 C 515 604 519 588 549 584 Z" class="stroke11"/>
    <path d="M 570 465 Q 591 472 692 482 C 722 485 732 486 710 506 Q 704 512 694 518 Q 679 525 653 517 Q 604 504 567 495 C 538 488 541 457 570 465 Z" class="stroke12"/>
    <path d="M 514 278 Q 571 291 613 300 Q 635 306 626 317 Q 614 330 590 332 Q 545 332 516 310 C 492 292 485 271 514 278 Z" class="stroke13"/>
    <path d="M 516 310 Q 520 346 511 354 Q 489 376 471 379 Q 459 382 454 377 Q 445 371 456 359 Q 472 328 472 298 Q 476 199 468 166 Q 464 139 453 124 Q 441 105 449 85 Q 459 57 475 45 Q 485 38 496 56 Q 524 93 621 186 Q 637 199 638 207 Q 639 219 621 208 Q 584 186 541 162 Q 525 152 517 155 Q 510 159 510 176 Q 511 240 514 278 L 516 310 Z" class="stroke14"/>
    <path d="M 706 250 Q 733 265 850 336 Q 869 349 894 358 Q 916 365 907 384 Q 895 402 871 418 Q 849 434 836 432 Q 823 431 827 418 Q 827 385 707 276 C 685 256 680 235 706 250 Z" class="stroke15"/>
    <path d="M 707 276 Q 710 325 718 382 Q 722 400 710 410 Q 697 423 674 430 Q 661 434 653 429 Q 646 425 652 408 Q 665 369 664 332 Q 660 157 675 108 Q 679 86 699 68 Q 763 8 902 34 Q 908 37 917 38 Q 948 48 978 73 Q 997 86 987 112 Q 977 137 963 212 Q 964 228 957 234 Q 951 238 945 220 Q 909 141 889 119 Q 882 107 856 100 Q 802 85 748 106 Q 708 127 705 205 Q 705 227 706 250 L 707 276 Z" class="stroke16"/>
    
    
    
    
    
    
    
    
    
    
    
    
    
    
    
    </g>
</svg>