<svg version="1.1" viewBox="0 0 1024 1024" xmlns="http://www.w3.org/2000/svg">
  
  <g transform="scale(1, -1) translate(0, -900)">
    <style type="text/css">
        .stroke1 {fill: #808080;}
        .stroke2 {fill: #808079;}
        .stroke3 {fill: #808078;}
        .stroke4 {fill: #808077;}
        .stroke5 {fill: #808076;}
        .stroke6 {fill: #808075;}
        .stroke7 {fill: #808074;}
        .stroke8 {fill: #808073;}
        .stroke9 {fill: #808072;}
        .stroke10 {fill: #808071;}
        .stroke11 {fill: #808070;}
        .stroke12 {fill: #808069;}
        .stroke13 {fill: #808068;}
        .stroke14 {fill: #808067;}
        .stroke15 {fill: #808066;}
        .stroke16 {fill: #808065;}
        .stroke17 {fill: #808064;}
        .stroke18 {fill: #808063;}
        .stroke19 {fill: #808062;}
        .stroke20 {fill: #808061;}
        text {
            font-family: Helvetica;
            font-size: 50px;
            fill: #808060;
            paint-order: stroke;
            stroke: #000000;
            stroke-width: 4px;
            stroke-linecap: butt;
            stroke-linejoin: miter;
            font-weight: 800;
        }
    </style>

    <path d="M 289 581 Q 317 641 355 731 Q 370 768 370 772 Q 367 782 353 791 Q 314 815 285 803 Q 276 799 281 787 Q 312 708 202 513 Q 198 507 193 499 Q 159 445 71 336 Q 64 329 75 329 Q 129 344 233 482 Q 272 549 278 560 L 289 581 Z" class="stroke1"/>
    <path d="M 278 560 Q 296 554 392 577 Q 402 580 405 577 Q 409 574 405 565 Q 377 498 358 467 Q 351 454 350 448 Q 349 438 360 444 Q 372 450 427 513 Q 461 553 494 577 Q 510 587 499 599 Q 486 611 450 628 Q 434 634 421 623 Q 411 619 332 591 Q 313 585 289 581 C 259 576 248 563 278 560 Z" class="stroke2"/>
    <path d="M 323 406 Q 327 419 319 430 Q 295 452 274 463 Q 255 470 247 465 Q 237 459 245 443 Q 281 362 262 200 Q 259 151 220 103 Q 210 87 216 65 Q 226 38 240 27 Q 253 20 264 36 Q 279 64 414 184 Q 432 197 436 206 Q 440 216 430 216 Q 420 216 316 157 Q 309 151 306 159 Q 318 271 318 358 Q 318 385 323 406 Z" class="stroke3"/>
    <path d="M 577 582 Q 613 631 662 722 Q 678 758 694 775 Q 701 788 696 801 Q 690 814 658 834 Q 627 850 608 848 Q 589 844 600 822 Q 639 762 484 509 Q 474 497 473 490 Q 470 478 485 483 Q 503 487 554 551 L 577 582 Z" class="stroke4"/>
    <path d="M 554 551 Q 576 538 595 544 Q 790 601 802 585 Q 815 567 807 521 Q 794 394 762 337 Q 746 307 720 311 Q 701 315 683 321 Q 659 328 676 306 Q 713 266 729 237 Q 751 215 771 235 Q 802 260 824 303 Q 849 352 862 506 Q 866 560 884 587 Q 896 600 890 610 Q 880 620 830 642 Q 811 649 792 637 Q 773 624 694 606 Q 631 590 577 582 C 547 577 526 562 554 551 Z" class="stroke5"/>
    <path d="M 647 315 Q 663 385 684 408 Q 703 432 682 443 Q 664 452 640 466 Q 625 472 580 445 Q 556 433 518 419 C 490 409 502 388 531 396 Q 537 397 600 418 Q 615 422 619 416 Q 626 410 618 380 Q 611 355 604 325 C 597 296 640 286 647 315 Z" class="stroke6"/>
    <path d="M 517 268 Q 521 268 523 267 Q 533 266 545 269 Q 578 279 652 291 Q 662 292 662 301 Q 662 307 647 315 C 623 329 623 329 604 325 Q 597 324 588 320 Q 549 307 520 297 C 492 287 487 272 517 268 Z" class="stroke7"/>
    <path d="M 965 108 Q 952 135 933 216 Q 932 232 925 238 Q 919 242 914 223 Q 886 135 867 108 Q 851 86 800 72 Q 680 39 582 79 Q 543 98 532 122 Q 513 158 517 268 L 520 297 Q 523 342 531 390 Q 531 394 531 396 C 533 410 533 410 518 419 Q 508 429 491 434 Q 479 438 472 433 Q 466 429 471 414 Q 484 378 481 345 Q 474 155 489 103 Q 496 73 524 48 Q 614 -27 812 3 Q 836 7 860 14 Q 909 30 958 65 Q 979 81 965 108 Z" class="stroke8"/>
    
    
    
    
    
    
    
    </g>
</svg>