<svg version="1.1" viewBox="0 0 1024 1024" xmlns="http://www.w3.org/2000/svg">
  
  <g transform="scale(1, -1) translate(0, -900)">
    <style type="text/css">
        .stroke1 {fill: #808080;}
        .stroke2 {fill: #808079;}
        .stroke3 {fill: #808078;}
        .stroke4 {fill: #808077;}
        .stroke5 {fill: #808076;}
        .stroke6 {fill: #808075;}
        .stroke7 {fill: #808074;}
        .stroke8 {fill: #808073;}
        .stroke9 {fill: #808072;}
        .stroke10 {fill: #808071;}
        .stroke11 {fill: #808070;}
        .stroke12 {fill: #808069;}
        .stroke13 {fill: #808068;}
        .stroke14 {fill: #808067;}
        .stroke15 {fill: #808066;}
        .stroke16 {fill: #808065;}
        .stroke17 {fill: #808064;}
        .stroke18 {fill: #808063;}
        .stroke19 {fill: #808062;}
        .stroke20 {fill: #808061;}
        text {
            font-family: Helvetica;
            font-size: 50px;
            fill: #808060;
            paint-order: stroke;
            stroke: #000000;
            stroke-width: 4px;
            stroke-linecap: butt;
            stroke-linejoin: miter;
            font-weight: 800;
        }
    </style>

    <path d="M 351 663 Q 463 693 468 696 Q 475 703 471 710 Q 464 720 439 725 Q 414 729 388 718 Q 355 706 320 696 Q 280 686 234 680 Q 231 680 231 679 C 202 673 212 657 242 653 Q 282 647 310 654 L 351 663 Z" class="stroke1"/>
    <path d="M 231 679 Q 203 707 174 710 Q 164 710 160 701 Q 157 691 166 684 Q 179 662 182 646 Q 198 484 168 341 Q 161 328 163 320 Q 166 310 177 301 Q 190 289 196 288 Q 206 291 220 294 C 228 296 225 331 222 361 Q 218 386 222 522 Q 229 630 242 653 C 247 665 247 665 231 679 Z" class="stroke2"/>
    <path d="M 370 541 Q 400 548 428 552 Q 450 556 441 569 Q 431 582 407 585 Q 391 586 372 581 L 321 565 Q 290 555 262 545 Q 246 541 266 527 L 321 531 L 370 541 Z" class="stroke3"/>
    <path d="M 365 445 Q 395 452 424 457 Q 446 461 437 473 Q 427 486 403 489 Q 388 490 367 485 L 320 471 Q 286 459 254 449 Q 238 445 258 431 Q 267 425 284 429 Q 300 433 320 436 L 365 445 Z" class="stroke4"/>
    <path d="M 367 485 Q 368 515 370 541 L 372 581 Q 372 597 375 619 Q 384 640 351 663 C 327 681 303 683 310 654 Q 319 621 321 565 L 321 531 Q 321 506 320 471 L 320 436 Q 320 400 320 355 C 320 325 360 332 361 362 Q 362 405 365 445 L 367 485 Z" class="stroke5"/>
    <path d="M 220 294 Q 262 321 384 330 Q 399 331 416 325 Q 429 318 430 299 Q 431 287 418 183 Q 406 122 393 98 Q 383 80 362 84 Q 332 93 302 100 Q 287 104 284 101 Q 281 97 295 87 Q 362 26 368 4 Q 372 -3 380 -4 Q 393 -5 420 21 Q 444 48 450 81 Q 483 300 502 315 Q 509 322 508 328 Q 509 335 478 356 Q 441 377 413 369 Q 395 365 372 363 Q 366 363 361 362 L 320 355 Q 283 351 260 343 Q 226 336 222 361 C 205 386 193 280 220 294 Z" class="stroke6"/>
    <path d="M 79 256 Q 66 207 46 160 Q 31 127 52 102 Q 62 87 78 101 Q 118 143 109 210 Q 109 238 99 260 Q 95 266 89 266 Q 82 265 79 256 Z" class="stroke7"/>
    <path d="M 150 220 Q 162 157 168 153 Q 174 149 182 154 Q 191 160 199 179 Q 205 198 168 248 Q 161 257 157 258 Q 153 258 148 250 Q 145 243 150 220 Z" class="stroke8"/>
    <path d="M 226 252 Q 239 192 255 184 Q 262 180 272 188 Q 276 195 277 211 Q 274 235 237 267 Q 231 271 227 264 Q 224 260 226 252 Z" class="stroke9"/>
    <path d="M 297 262 Q 321 205 342 197 Q 351 194 359 206 Q 362 215 359 231 Q 349 262 305 281 Q 299 284 296 275 Q 293 271 297 262 Z" class="stroke10"/>
    <path d="M 632 738 Q 657 719 685 695 Q 701 682 717 685 Q 729 686 733 700 Q 736 716 724 747 Q 712 775 623 788 Q 607 791 600 787 Q 596 783 598 769 Q 602 759 632 738 Z" class="stroke11"/>
    <path d="M 544 572 Q 508 565 535 550 Q 575 526 629 542 Q 720 564 814 587 Q 857 599 864 605 Q 871 612 867 621 Q 860 631 832 638 Q 804 642 707 607 Q 593 580 544 572 Z" class="stroke12"/>
    <path d="M 554 491 Q 560 463 484 375 Q 480 368 491 369 Q 548 391 614 465 Q 621 474 631 480 Q 640 490 636 496 Q 630 500 614 505 Q 577 511 559 504 Q 552 501 554 491 Z" class="stroke13"/>
    <path d="M 746 475 Q 774 453 804 426 Q 817 414 831 415 Q 841 416 845 428 Q 849 441 840 469 Q 828 499 740 519 Q 725 522 720 519 Q 716 515 717 503 Q 721 493 746 475 Z" class="stroke14"/>
    <path d="M 708 198 Q 739 253 755 334 Q 759 353 764 361 Q 771 368 765 378 Q 759 385 731 396 Q 700 412 685 406 Q 675 400 683 385 Q 707 322 672 236 L 651 199 Q 647 195 643 188 Q 607 139 477 85 Q 452 75 481 72 Q 548 69 641 122 Q 651 129 681 159 L 708 198 Z" class="stroke15"/>
    <path d="M 681 159 Q 730 95 775 41 Q 788 23 812 24 Q 942 30 950 42 Q 954 48 944 52 Q 797 109 708 198 L 672 236 Q 641 272 605 314 Q 595 329 580 331 Q 555 332 547 324 Q 544 318 552 313 Q 583 295 603 264 Q 627 230 651 199 L 681 159 Z" class="stroke16"/>
    
    
    
    
    
    
    
    
    
    
    
    
    
    
    
    </g>
</svg>