<svg version="1.1" viewBox="0 0 1024 1024" xmlns="http://www.w3.org/2000/svg">
  
  <g transform="scale(1, -1) translate(0, -900)">
    <style type="text/css">
        .stroke1 {fill: #808080;}
        .stroke2 {fill: #808079;}
        .stroke3 {fill: #808078;}
        .stroke4 {fill: #808077;}
        .stroke5 {fill: #808076;}
        .stroke6 {fill: #808075;}
        .stroke7 {fill: #808074;}
        .stroke8 {fill: #808073;}
        .stroke9 {fill: #808072;}
        .stroke10 {fill: #808071;}
        .stroke11 {fill: #808070;}
        .stroke12 {fill: #808069;}
        .stroke13 {fill: #808068;}
        .stroke14 {fill: #808067;}
        .stroke15 {fill: #808066;}
        .stroke16 {fill: #808065;}
        .stroke17 {fill: #808064;}
        .stroke18 {fill: #808063;}
        .stroke19 {fill: #808062;}
        .stroke20 {fill: #808061;}
        text {
            font-family: Helvetica;
            font-size: 50px;
            fill: #808060;
            paint-order: stroke;
            stroke: #000000;
            stroke-width: 4px;
            stroke-linecap: butt;
            stroke-linejoin: miter;
            font-weight: 800;
        }
    </style>

    <path d="M 323 723 Q 446 762 449 764 Q 456 771 451 778 Q 444 788 419 792 Q 398 795 314 762 Q 200 735 197 733 C 168 724 186 704 216 704 Q 255 704 284 713 L 323 723 Z" class="stroke1"/>
    <path d="M 197 733 Q 149 757 146 757 Q 134 756 132 747 Q 129 737 138 731 Q 151 709 155 693 Q 174 560 153 402 Q 147 374 147 371 Q 150 361 162 353 Q 175 341 181 341 Q 191 344 205 348 C 214 351 209 383 205 413 Q 199 438 200 572 Q 203 668 216 704 C 221 721 221 721 197 733 Z" class="stroke2"/>
    <path d="M 350 609 Q 372 616 397 623 Q 415 627 417 631 Q 423 638 419 644 Q 413 651 391 655 Q 370 658 351 649 L 299 629 Q 278 625 255 621 Q 228 614 249 603 Q 267 596 300 595 L 350 609 Z" class="stroke3"/>
    <path d="M 347 507 Q 369 514 395 519 Q 414 523 416 527 Q 423 533 419 539 Q 413 548 391 552 Q 369 555 348 546 L 301 530 Q 276 524 248 520 Q 221 514 242 503 Q 263 493 301 495 L 347 507 Z" class="stroke4"/>
    <path d="M 348 546 Q 348 580 350 609 L 351 649 Q 354 697 350 702 Q 337 715 323 723 C 298 739 273 741 284 713 Q 294 695 299 629 L 300 595 Q 300 570 301 530 L 301 495 Q 302 461 303 416 C 304 386 344 392 345 422 Q 346 467 347 507 L 348 546 Z" class="stroke5"/>
    <path d="M 205 348 Q 235 372 341 389 Q 356 390 371 383 Q 384 376 384 357 Q 387 344 374 221 Q 364 148 349 120 Q 339 104 321 109 Q 294 116 268 123 Q 252 130 248 125 Q 245 121 259 108 Q 317 41 322 19 Q 326 10 335 10 Q 350 7 379 37 Q 406 67 413 104 Q 440 359 462 375 Q 469 382 469 389 Q 469 396 437 417 Q 397 438 376 432 Q 358 429 345 422 L 303 416 Q 264 410 242 399 Q 209 390 205 413 C 185 436 179 333 205 348 Z" class="stroke6"/>
    <path d="M 76 272 Q 66 224 48 180 Q 36 152 57 125 Q 66 112 81 125 Q 117 165 107 229 Q 106 257 96 276 Q 90 282 85 282 Q 78 279 76 272 Z" class="stroke7"/>
    <path d="M 142 259 Q 145 201 159 190 Q 166 184 178 192 Q 185 199 187 215 Q 188 240 157 273 Q 153 277 146 271 Q 142 267 142 259 Z" class="stroke8"/>
    <path d="M 202 279 Q 220 218 235 211 Q 242 207 252 217 Q 256 224 256 240 Q 255 253 241 266 Q 222 288 213 295 Q 207 299 203 292 Q 200 288 202 279 Z" class="stroke9"/>
    <path d="M 278 305 Q 299 236 317 228 Q 326 222 336 234 Q 342 243 341 260 Q 335 290 290 323 Q 283 327 279 319 Q 276 313 278 305 Z" class="stroke10"/>
    <path d="M 542 744 Q 532 750 498 757 Q 486 760 483 755 Q 477 749 485 734 Q 513 670 529 567 Q 532 536 549 515 Q 565 494 570 509 Q 571 515 573 521 L 574 544 Q 574 559 571 577 Q 555 671 550 709 C 546 739 545 742 542 744 Z" class="stroke11"/>
    <path d="M 793 549 L 794 548 Q 798 532 812 533 Q 825 534 833 549 Q 845 562 867 631 Q 883 683 921 714 Q 940 730 924 746 Q 905 762 855 790 Q 840 799 778 785 Q 720 779 542 744 C 513 738 521 702 550 709 Q 553 709 557 710 Q 588 720 639 728 L 678 735 Q 802 756 821 746 Q 830 742 825 712 Q 810 628 792 574 C 787 558 787 558 793 549 Z" class="stroke12"/>
    <path d="M 696 632 Q 733 639 765 644 Q 784 647 777 658 Q 768 670 747 674 Q 728 675 698 668 L 649 654 Q 618 647 590 638 Q 577 635 593 623 Q 596 622 651 625 L 696 632 Z" class="stroke13"/>
    <path d="M 692 567 Q 693 601 696 632 L 698 668 Q 698 680 701 692 Q 707 713 678 735 C 655 754 630 757 639 728 Q 645 713 649 654 L 651 625 Q 651 598 653 559 C 654 529 691 537 692 567 Z" class="stroke14"/>
    <path d="M 646 529 Q 725 542 793 549 C 823 552 819 561 792 574 Q 788 577 781 578 Q 762 582 692 567 L 653 559 Q 611 552 574 544 C 545 538 543 523 573 521 Q 580 520 592 521 Q 598 522 607 523 L 646 529 Z" class="stroke15"/>
    <path d="M 658 385 Q 657 385 576 393 Q 572 396 572 400 Q 573 401 653 469 Q 678 481 666 502 Q 656 518 646 529 C 627 552 608 553 607 523 Q 610 502 578 451 Q 541 406 524 403 Q 502 399 495 386 Q 485 362 488 351 Q 492 335 507 343 Q 517 355 627 365 Q 631 366 635 365 C 665 366 688 382 658 385 Z" class="stroke16"/>
    <path d="M 685 258 Q 743 277 800 287 C 829 293 817 311 787 306 Q 688 291 576 263 Q 567 260 573 268 Q 730 407 804 446 Q 817 453 814 464 Q 808 485 780 510 Q 767 523 757 522 Q 747 521 745 506 Q 742 464 660 387 L 658 385 L 635 365 Q 512 262 495 256 Q 482 250 482 236 Q 481 223 503 201 Q 510 188 527 198 Q 584 228 645 246 L 685 258 Z" class="stroke17"/>
    <path d="M 800 287 Q 837 236 847 234 Q 854 233 861 241 Q 868 251 867 275 Q 867 297 839 323 Q 773 374 760 370 Q 756 369 754 358 Q 755 349 771 328 Q 778 318 787 306 L 800 287 Z" class="stroke18"/>
    <path d="M 645 246 Q 657 207 655 95 Q 654 61 650 53 Q 646 40 621 44 Q 599 48 577 50 Q 564 51 563 44 Q 562 38 572 28 Q 630 -26 649 -56 Q 662 -69 674 -68 Q 686 -64 699 -28 Q 717 8 715 73 Q 712 149 714 177 Q 723 220 704 243 Q 694 253 685 258 C 660 275 638 275 645 246 Z" class="stroke19"/>
    <path d="M 520 169 Q 496 124 465 85 Q 443 54 458 21 Q 464 3 485 14 Q 536 44 540 112 Q 547 143 542 167 Q 538 176 532 177 Q 525 176 520 169 Z" class="stroke20"/>
    <path d="M 772 167 Q 820 115 876 43 Q 892 21 907 15 Q 917 12 925 23 Q 940 36 929 83 Q 920 140 775 199 Q 766 206 763 192 Q 762 179 772 167 Z" class="stroke21"/>
    
    
    
    
    
    
    
    
    
    
    
    
    
    
    
    
    
    
    
    
    </g>
</svg>