<svg version="1.1" viewBox="0 0 1024 1024" xmlns="http://www.w3.org/2000/svg">
  
  <g transform="scale(1, -1) translate(0, -900)">
    <style type="text/css">
        .stroke1 {fill: #808080;}
        .stroke2 {fill: #808079;}
        .stroke3 {fill: #808078;}
        .stroke4 {fill: #808077;}
        .stroke5 {fill: #808076;}
        .stroke6 {fill: #808075;}
        .stroke7 {fill: #808074;}
        .stroke8 {fill: #808073;}
        .stroke9 {fill: #808072;}
        .stroke10 {fill: #808071;}
        .stroke11 {fill: #808070;}
        .stroke12 {fill: #808069;}
        .stroke13 {fill: #808068;}
        .stroke14 {fill: #808067;}
        .stroke15 {fill: #808066;}
        .stroke16 {fill: #808065;}
        .stroke17 {fill: #808064;}
        .stroke18 {fill: #808063;}
        .stroke19 {fill: #808062;}
        .stroke20 {fill: #808061;}
        text {
            font-family: Helvetica;
            font-size: 50px;
            fill: #808060;
            paint-order: stroke;
            stroke: #000000;
            stroke-width: 4px;
            stroke-linecap: butt;
            stroke-linejoin: miter;
            font-weight: 800;
        }
    </style>

    <path d="M 335 754 Q 366 750 455 773 Q 524 794 525 795 Q 531 802 527 807 Q 521 816 499 820 Q 477 823 454 812 Q 427 802 398 792 Q 367 782 328 777 Q 327 777 326 776 C 297 769 305 756 335 754 Z" class="stroke1"/>
    <path d="M 345 585 Q 342 607 340 625 L 339 645 Q 336 667 336 685 L 335 705 Q 334 741 335 750 Q 335 753 335 754 C 336 769 336 769 326 776 L 324 778 Q 305 791 282 798 Q 270 802 263 796 Q 256 792 263 778 Q 287 742 312 577 C 317 547 349 555 345 585 Z" class="stroke2"/>
    <path d="M 336 685 Q 342 684 352 686 Q 427 702 482 713 Q 500 717 493 726 Q 484 736 464 740 Q 449 741 335 705 C 306 696 306 687 336 685 Z" class="stroke3"/>
    <path d="M 340 625 Q 344 624 356 626 Q 431 645 487 657 Q 505 661 497 670 Q 488 680 468 683 Q 446 684 339 645 C 311 635 310 627 340 625 Z" class="stroke4"/>
    <path d="M 355 555 Q 428 573 523 587 Q 536 588 537 595 Q 538 607 523 614 Q 501 624 480 619 Q 401 600 345 585 L 312 577 Q 186 553 131 545 Q 121 544 118 537 Q 115 528 128 518 Q 161 497 214 513 Q 268 531 314 544 L 355 555 Z" class="stroke5"/>
    <path d="M 469 494 Q 393 478 314 458 Q 307 457 306 458 Q 305 459 308 463 Q 350 517 366 530 Q 376 540 370 546 Q 366 552 355 555 C 328 567 310 574 314 544 L 315 543 Q 321 515 277 469 Q 267 457 246 448 Q 227 439 227 431 Q 226 419 234 405 Q 241 392 251 388 Q 257 385 264 390 Q 312 426 480 481 C 508 490 498 500 469 494 Z" class="stroke6"/>
    <path d="M 480 481 Q 501 456 513 453 Q 520 452 526 461 Q 530 471 527 493 Q 526 508 505 522 Q 457 549 444 546 Q 440 545 440 535 Q 440 529 469 494 L 480 481 Z" class="stroke7"/>
    <path d="M 695 814 Q 695 774 574 691 Q 567 684 579 683 Q 655 704 745 772 Q 754 782 768 788 Q 778 795 775 802 Q 772 808 756 815 Q 722 828 702 825 Q 693 824 695 814 Z" class="stroke8"/>
    <path d="M 720 719 Q 720 676 585 586 Q 579 580 591 579 Q 672 603 762 678 Q 772 688 786 695 Q 796 702 793 708 Q 789 714 775 720 Q 744 732 726 728 Q 719 727 720 719 Z" class="stroke9"/>
    <path d="M 758 627 Q 758 606 690 550 Q 653 522 578 483 Q 571 476 583 475 Q 679 490 798 576 Q 811 586 829 594 Q 839 600 837 607 Q 834 614 819 622 Q 786 638 766 637 Q 759 636 758 627 Z" class="stroke10"/>
    <path d="M 323 400 Q 327 357 259 291 Q 240 272 194 237 Q 187 233 195 231 Q 223 227 299 282 Q 300 285 303 285 Q 328 307 369 351 Q 382 369 383 370 Q 383 377 375 387 Q 348 414 329 410 Q 322 409 323 400 Z" class="stroke11"/>
    <path d="M 335 287 Q 341 242 270 171 Q 251 152 201 113 Q 195 109 203 107 Q 266 107 381 238 Q 387 245 391 247 Q 397 251 396 258 Q 392 279 364 292 Q 349 298 341 297 Q 334 296 335 287 Z" class="stroke12"/>
    <path d="M 359 172 Q 363 114 274 27 Q 249 2 186 -46 Q 179 -50 187 -53 Q 229 -53 324 20 Q 325 23 329 24 Q 360 52 413 113 Q 420 120 424 124 Q 431 128 430 137 Q 430 146 420 157 Q 410 170 393 177 Q 377 184 366 184 Q 359 183 359 172 Z" class="stroke13"/>
    <path d="M 613 409 Q 673 424 821 444 Q 830 443 837 454 Q 838 464 819 472 Q 795 490 715 467 Q 691 463 669 456 Q 582 438 475 425 Q 451 421 470 407 Q 500 386 525 392 Q 547 398 577 402 L 613 409 Z" class="stroke14"/>
    <path d="M 576 326 Q 579 330 584 335 Q 594 345 607 359 Q 611 365 621 372 Q 633 379 628 388 Q 624 398 613 409 C 592 431 579 432 577 402 Q 577 387 556 340 Q 549 330 546 321 C 535 293 557 303 576 326 Z" class="stroke15"/>
    <path d="M 540 320 Q 534 326 515 334 Q 508 337 498 334 Q 494 330 498 321 Q 525 236 506 151 Q 499 108 525 76 Q 532 66 541 76 Q 547 86 549 97 L 550 119 Q 550 125 551 160 L 551 181 Q 551 209 551 228 L 551 249 Q 551 273 552 297 C 553 311 553 311 540 320 Z" class="stroke16"/>
    <path d="M 741 116 Q 742 112 746 107 Q 758 82 766 83 Q 779 84 792 112 Q 804 133 800 186 Q 796 289 811 312 Q 820 325 813 333 Q 791 352 751 369 Q 738 373 719 366 Q 671 344 576 326 L 546 321 Q 543 321 540 320 C 510 315 522 292 552 297 Q 556 297 562 298 Q 721 344 733 328 Q 742 318 743 278 Q 747 166 741 145 L 741 116 Z" class="stroke17"/>
    <path d="M 551 228 Q 558 228 565 229 Q 629 242 678 249 Q 696 253 689 262 Q 680 272 661 276 Q 637 277 551 249 C 522 240 521 227 551 228 Z" class="stroke18"/>
    <path d="M 551 160 Q 554 160 559 160 Q 634 173 689 181 Q 708 184 701 194 Q 692 206 673 209 Q 643 212 551 181 C 523 171 521 160 551 160 Z" class="stroke19"/>
    <path d="M 549 97 Q 555 96 568 97 Q 665 110 741 116 C 771 118 769 134 741 145 Q 740 146 737 147 Q 719 151 687 144 Q 614 131 550 119 C 521 113 519 99 549 97 Z" class="stroke20"/>
    <path d="M 551 66 Q 530 14 414 -58 Q 393 -68 418 -69 Q 466 -72 568 -4 Q 568 -3 609 26 Q 619 35 619 43 Q 618 56 597 66 Q 573 79 562 78 Q 555 77 551 66 Z" class="stroke21"/>
    <path d="M 693 45 Q 732 5 778 -54 Q 790 -72 803 -76 Q 810 -77 817 -70 Q 827 -60 820 -22 Q 813 21 696 71 Q 689 75 686 65 Q 685 55 693 45 Z" class="stroke22"/>
    
    
    
    
    
    
    
    
    
    
    
    
    
    
    
    
    
    
    
    
    
    </g>
</svg>