<svg version="1.1" viewBox="0 0 1024 1024" xmlns="http://www.w3.org/2000/svg">
  
  <g transform="scale(1, -1) translate(0, -900)">
    <style type="text/css">
        .stroke1 {fill: #808080;}
        .stroke2 {fill: #808079;}
        .stroke3 {fill: #808078;}
        .stroke4 {fill: #808077;}
        .stroke5 {fill: #808076;}
        .stroke6 {fill: #808075;}
        .stroke7 {fill: #808074;}
        .stroke8 {fill: #808073;}
        .stroke9 {fill: #808072;}
        .stroke10 {fill: #808071;}
        .stroke11 {fill: #808070;}
        .stroke12 {fill: #808069;}
        .stroke13 {fill: #808068;}
        .stroke14 {fill: #808067;}
        .stroke15 {fill: #808066;}
        .stroke16 {fill: #808065;}
        .stroke17 {fill: #808064;}
        .stroke18 {fill: #808063;}
        .stroke19 {fill: #808062;}
        .stroke20 {fill: #808061;}
        text {
            font-family: Helvetica;
            font-size: 50px;
            fill: #808060;
            paint-order: stroke;
            stroke: #000000;
            stroke-width: 4px;
            stroke-linecap: butt;
            stroke-linejoin: miter;
            font-weight: 800;
        }
    </style>

    <path d="M 156 735 Q 199 632 182 336 Q 181 330 181 323 Q 175 232 145 141 Q 127 84 163 41 Q 176 26 186 41 Q 219 78 223 234 Q 229 663 237 701 Q 240 720 222 731 Q 197 752 169 760 Q 159 763 152 753 Q 148 747 156 735 Z" class="stroke1"/>
    <path d="M 376 702 Q 454 729 458 733 Q 465 740 460 747 Q 453 756 429 758 Q 414 758 341 728 Q 314 719 282 711 Q 254 702 277 692 Q 301 682 335 688 L 376 702 Z" class="stroke2"/>
    <path d="M 385 591 Q 442 609 449 612 Q 455 619 451 624 Q 445 631 424 635 Q 405 636 386 628 L 339 610 Q 338 610 337 609 Q 310 600 279 595 Q 254 588 273 578 Q 303 568 339 577 L 385 591 Z" class="stroke3"/>
    <path d="M 381 506 Q 382 552 385 591 L 386 628 Q 392 691 377 701 L 376 702 C 355 724 334 718 335 688 Q 335 678 339 610 L 339 577 Q 339 543 341 493 C 342 463 380 476 381 506 Z" class="stroke4"/>
    <path d="M 341 493 Q 298 483 263 473 Q 245 470 258 456 Q 264 449 273 446 Q 282 445 293 448 Q 347 464 464 485 Q 473 486 473 494 Q 473 501 445 516 Q 429 525 381 506 L 341 493 Z" class="stroke5"/>
    <path d="M 629 743 Q 662 753 697 761 Q 716 765 720 769 Q 727 776 723 783 Q 716 792 693 797 Q 668 800 645 789 Q 600 771 537 762 Q 509 756 530 744 Q 554 732 592 734 L 629 743 Z" class="stroke6"/>
    <path d="M 649 632 Q 671 639 697 645 Q 718 652 721 655 Q 727 662 723 667 Q 717 676 695 680 Q 673 683 651 672 L 602 654 Q 574 648 540 641 Q 513 634 533 623 Q 560 611 603 619 L 649 632 Z" class="stroke7"/>
    <path d="M 645 543 Q 646 592 649 632 L 651 672 Q 651 685 653 700 Q 659 721 629 743 C 605 761 583 763 592 734 Q 598 721 602 654 L 603 619 Q 603 585 605 534 C 606 504 644 513 645 543 Z" class="stroke8"/>
    <path d="M 605 534 Q 560 527 524 520 Q 508 519 518 503 Q 527 490 577 499 Q 602 505 640 509 Q 641 510 644 509 Q 687 516 746 522 Q 755 523 756 530 Q 756 537 730 554 Q 712 563 645 543 L 605 534 Z" class="stroke9"/>
    <path d="M 788 739 Q 792 702 798 119 Q 798 94 785 85 Q 779 79 712 88 Q 676 100 679 88 Q 680 81 703 65 Q 767 16 785 -14 Q 804 -48 820 -48 Q 836 -49 850 -11 Q 869 38 864 118 Q 843 371 847 625 Q 850 719 863 770 Q 881 803 820 825 Q 783 844 763 837 Q 744 830 762 805 Q 786 777 788 739 Z" class="stroke10"/>
    
    
    
    
    
    
    
    
    
    </g>
</svg>