<svg version="1.1" viewBox="0 0 1024 1024" xmlns="http://www.w3.org/2000/svg">
  
  <g transform="scale(1, -1) translate(0, -900)">
    <style type="text/css">
        .stroke1 {fill: #808080;}
        .stroke2 {fill: #808079;}
        .stroke3 {fill: #808078;}
        .stroke4 {fill: #808077;}
        .stroke5 {fill: #808076;}
        .stroke6 {fill: #808075;}
        .stroke7 {fill: #808074;}
        .stroke8 {fill: #808073;}
        .stroke9 {fill: #808072;}
        .stroke10 {fill: #808071;}
        .stroke11 {fill: #808070;}
        .stroke12 {fill: #808069;}
        .stroke13 {fill: #808068;}
        .stroke14 {fill: #808067;}
        .stroke15 {fill: #808066;}
        .stroke16 {fill: #808065;}
        .stroke17 {fill: #808064;}
        .stroke18 {fill: #808063;}
        .stroke19 {fill: #808062;}
        .stroke20 {fill: #808061;}
        text {
            font-family: Helvetica;
            font-size: 50px;
            fill: #808060;
            paint-order: stroke;
            stroke: #000000;
            stroke-width: 4px;
            stroke-linecap: butt;
            stroke-linejoin: miter;
            font-weight: 800;
        }
    </style>

    <path d="M 302 699 Q 315 715 329 735 Q 347 762 362 775 Q 369 784 367 796 Q 363 808 339 828 Q 317 844 300 845 Q 284 844 290 825 Q 303 789 236 685 Q 203 636 159 583 Q 149 574 147 569 Q 144 559 157 561 Q 187 567 289 682 L 302 699 Z" class="stroke1"/>
    <path d="M 330 531 Q 352 552 392 594 Q 438 643 480 668 Q 499 677 488 691 Q 475 704 440 727 Q 431 731 367 713 Q 306 701 302 699 C 273 691 271 691 289 682 Q 302 669 377 680 Q 384 681 386 679 Q 390 675 384 664 Q 336 579 308 540 Q 301 531 298 524 C 283 498 308 510 330 531 Z" class="stroke2"/>
    <path d="M 170 495 Q 160 501 130 503 Q 120 504 116 500 Q 112 494 120 480 Q 153 422 177 322 Q 181 292 201 273 Q 217 255 222 269 Q 223 278 223 288 L 222 308 Q 219 321 216 335 Q 191 434 183 467 C 177 492 177 492 170 495 Z" class="stroke3"/>
    <path d="M 361 309 Q 377 281 393 274 Q 403 267 416 286 Q 429 310 457 440 Q 464 467 484 488 Q 496 498 486 511 Q 473 524 436 547 Q 421 554 349 535 Q 346 535 330 531 L 298 524 Q 280 523 170 495 C 141 488 155 457 183 467 Q 217 480 267 490 L 302 498 Q 386 519 403 508 Q 416 498 413 479 Q 386 338 371 328 C 360 310 360 310 361 309 Z" class="stroke4"/>
    <path d="M 316 402 Q 343 409 367 413 Q 385 417 377 426 Q 368 436 348 439 Q 335 440 317 435 L 275 421 Q 247 411 221 402 Q 208 398 224 388 Q 230 385 276 393 L 316 402 Z" class="stroke5"/>
    <path d="M 313 333 Q 314 370 316 402 L 317 435 Q 317 450 319 464 Q 325 483 302 498 C 278 515 258 519 267 490 Q 271 483 275 421 L 276 393 Q 276 366 279 324 C 281 294 312 303 313 333 Z" class="stroke6"/>
    <path d="M 223 288 Q 227 288 232 288 Q 305 301 361 309 C 391 313 392 313 371 328 Q 364 334 351 336 Q 336 339 313 333 L 279 324 Q 248 317 222 308 C 194 298 193 288 223 288 Z" class="stroke7"/>
    <path d="M 101 227 Q 85 185 70 143 Q 60 121 68 96 Q 72 81 85 71 Q 92 62 105 65 Q 112 68 117 80 Q 129 111 129 225 Q 128 237 124 242 Q 120 246 114 246 Q 110 243 101 227 Z" class="stroke8"/>
    <path d="M 197 208 Q 215 132 232 121 Q 242 115 254 126 Q 260 135 260 154 Q 259 170 244 188 Q 222 218 210 226 Q 204 230 199 223 Q 195 217 197 208 Z" class="stroke9"/>
    <path d="M 291 217 Q 316 150 333 143 Q 343 139 352 150 Q 356 159 355 177 Q 351 201 302 236 Q 295 239 292 231 Q 288 225 291 217 Z" class="stroke10"/>
    <path d="M 381 212 Q 415 158 426 155 Q 433 154 438 161 Q 442 168 442 189 Q 442 202 425 218 Q 380 248 372 246 Q 368 245 367 236 Q 368 229 381 212 Z" class="stroke11"/>
    <path d="M 612 759 Q 646 735 682 706 Q 697 694 713 696 Q 725 697 729 712 Q 732 728 720 758 Q 707 791 603 808 Q 587 811 580 807 Q 576 803 578 789 Q 582 779 612 759 Z" class="stroke12"/>
    <path d="M 525 590 Q 488 583 515 566 Q 560 542 615 557 Q 706 576 801 598 Q 844 608 851 615 Q 860 624 855 632 Q 848 644 818 651 Q 794 655 689 622 Q 587 598 525 590 Z" class="stroke13"/>
    <path d="M 541 508 Q 547 457 461 369 Q 454 365 463 363 Q 509 363 595 464 Q 599 468 602 470 Q 608 474 607 482 Q 606 489 596 499 Q 572 523 546 519 Q 539 518 541 508 Z" class="stroke14"/>
    <path d="M 745 477 Q 791 449 840 414 Q 853 404 868 406 Q 878 407 881 420 Q 884 435 873 460 Q 857 500 735 520 Q 722 521 716 519 Q 712 515 714 503 Q 718 493 745 477 Z" class="stroke15"/>
    <path d="M 699 186 Q 736 240 756 324 Q 760 348 768 363 Q 774 376 765 384 Q 746 406 723 418 Q 701 431 690 429 Q 680 425 682 412 Q 704 336 665 244 Q 661 237 658 227 L 637 193 Q 565 124 467 93 Q 421 83 416 77 Q 409 73 419 67 Q 473 55 577 92 Q 643 125 670 151 L 699 186 Z" class="stroke16"/>
    <path d="M 670 151 Q 782 25 829 14 Q 862 14 957 28 Q 970 29 982 34 Q 989 41 978 50 Q 963 57 847 93 Q 781 112 699 186 L 658 227 Q 624 263 587 306 Q 568 330 535 336 Q 525 337 515 331 Q 511 325 519 318 Q 526 312 533 308 Q 560 295 637 193 L 670 151 Z" class="stroke17"/>
    
    
    
    
    
    
    
    
    
    
    
    
    
    
    
    
    </g>
</svg>