<svg version="1.1" viewBox="0 0 1024 1024" xmlns="http://www.w3.org/2000/svg">
  
  <g transform="scale(1, -1) translate(0, -900)">
    <style type="text/css">
        .stroke1 {fill: #808080;}
        .stroke2 {fill: #808079;}
        .stroke3 {fill: #808078;}
        .stroke4 {fill: #808077;}
        .stroke5 {fill: #808076;}
        .stroke6 {fill: #808075;}
        .stroke7 {fill: #808074;}
        .stroke8 {fill: #808073;}
        .stroke9 {fill: #808072;}
        .stroke10 {fill: #808071;}
        .stroke11 {fill: #808070;}
        .stroke12 {fill: #808069;}
        .stroke13 {fill: #808068;}
        .stroke14 {fill: #808067;}
        .stroke15 {fill: #808066;}
        .stroke16 {fill: #808065;}
        .stroke17 {fill: #808064;}
        .stroke18 {fill: #808063;}
        .stroke19 {fill: #808062;}
        .stroke20 {fill: #808061;}
        text {
            font-family: Helvetica;
            font-size: 50px;
            fill: #808060;
            paint-order: stroke;
            stroke: #000000;
            stroke-width: 4px;
            stroke-linecap: butt;
            stroke-linejoin: miter;
            font-weight: 800;
        }
    </style>

    <path d="M 316 702 Q 358 762 359 766 Q 358 769 358 770 Q 354 780 332 800 Q 310 816 295 816 Q 279 815 286 796 Q 307 745 166 569 Q 157 562 156 556 Q 152 547 164 549 Q 203 553 305 686 L 316 702 Z" class="stroke1"/>
    <path d="M 311 512 Q 332 530 393 596 Q 439 648 483 678 Q 499 685 489 698 Q 479 710 446 730 Q 440 733 350 708 Q 334 705 316 702 C 286 697 276 695 305 686 Q 323 676 390 687 Q 397 688 399 686 Q 403 682 396 670 Q 342 579 310 537 Q 298 521 295 512 Q 294 509 295 507 C 292 495 292 495 311 512 Z" class="stroke2"/>
    <path d="M 181 475 Q 171 479 142 483 Q 132 486 128 481 Q 124 475 131 461 Q 165 397 186 291 Q 190 258 209 238 Q 225 219 230 233 Q 233 243 232 258 L 230 278 Q 229 291 226 304 Q 201 413 193 447 C 187 473 187 473 181 475 Z" class="stroke3"/>
    <path d="M 377 290 Q 395 265 410 258 Q 419 252 430 271 Q 443 296 464 438 Q 470 463 487 486 Q 497 496 487 508 Q 474 521 437 540 Q 425 546 355 524 Q 351 524 311 512 L 295 507 Q 273 503 251 495 Q 214 485 181 475 C 152 466 165 435 193 447 Q 193 448 196 449 Q 229 462 278 475 L 309 483 Q 390 511 409 499 Q 425 489 421 468 Q 403 324 389 309 C 379 288 375 292 377 290 Z" class="stroke4"/>
    <path d="M 331 379 Q 353 386 376 390 Q 392 394 385 403 Q 376 413 358 414 Q 346 415 332 410 L 289 394 Q 264 385 244 377 Q 232 373 248 364 Q 249 364 289 368 L 331 379 Z" class="stroke5"/>
    <path d="M 327 310 Q 328 347 331 379 L 332 410 Q 333 419 334 427 Q 334 463 333 464 Q 321 476 309 483 C 284 499 270 504 278 475 Q 287 447 289 394 L 289 368 Q 289 340 290 296 C 291 266 326 280 327 310 Z" class="stroke6"/>
    <path d="M 232 258 Q 241 254 255 259 Q 292 272 377 290 C 405 296 405 296 389 309 Q 385 313 373 319 Q 352 326 327 310 L 290 296 Q 256 286 230 278 C 201 269 203 266 232 258 Z" class="stroke7"/>
    <path d="M 107 187 Q 92 139 80 90 Q 70 68 80 45 Q 84 32 97 22 Q 104 15 116 18 Q 123 21 128 32 Q 143 128 133 192 Q 130 199 128 203 Q 124 207 118 206 Q 114 202 107 187 Z" class="stroke8"/>
    <path d="M 190 157 Q 208 87 225 76 Q 234 72 245 82 Q 249 91 250 108 Q 249 124 234 140 Q 213 167 202 175 Q 196 179 191 171 Q 187 167 190 157 Z" class="stroke9"/>
    <path d="M 279 177 Q 297 119 317 111 Q 327 107 336 118 Q 340 128 339 145 Q 333 172 290 196 Q 283 199 280 191 Q 276 185 279 177 Z" class="stroke10"/>
    <path d="M 381 191 Q 423 125 432 123 Q 439 122 446 129 Q 452 139 452 161 Q 452 177 432 195 Q 383 234 372 230 Q 368 229 366 219 Q 367 210 381 191 Z" class="stroke11"/>
    <path d="M 570 707 Q 560 711 535 716 Q 525 719 522 714 Q 518 710 524 695 Q 555 628 573 517 Q 576 484 594 462 Q 610 443 614 457 Q 615 466 617 478 L 616 506 Q 613 527 603 572 L 598 596 Q 585 654 583 678 C 580 704 580 704 570 707 Z" class="stroke12"/>
    <path d="M 738 495 Q 754 461 777 450 Q 787 443 801 462 Q 817 490 847 639 Q 854 667 876 690 Q 888 702 877 715 Q 864 730 824 754 Q 809 760 739 744 Q 718 744 570 707 C 541 700 554 670 583 678 Q 644 697 756 716 Q 778 719 789 712 Q 805 700 800 678 Q 776 540 762 515 C 751 487 729 512 738 495 Z" class="stroke13"/>
    <path d="M 603 572 Q 612 578 725 594 Q 746 598 737 609 Q 727 622 705 625 Q 675 626 598 596 C 570 585 575 561 603 572 Z" class="stroke14"/>
    <path d="M 617 478 Q 624 477 633 479 Q 667 488 738 495 C 768 498 781 499 762 515 Q 755 521 742 529 Q 727 536 701 529 Q 653 516 616 506 C 587 498 587 480 617 478 Z" class="stroke15"/>
    <path d="M 546 339 Q 536 346 502 353 Q 490 357 487 352 Q 480 346 488 331 Q 521 250 535 121 Q 536 82 557 55 Q 573 34 579 49 Q 582 59 583 71 L 584 103 Q 581 139 571 186 L 566 215 Q 556 275 554 302 C 551 332 551 337 546 339 Z" class="stroke16"/>
    <path d="M 783 98 Q 793 73 820 21 Q 829 2 839 4 Q 855 7 864 33 Q 888 81 904 248 Q 908 296 932 325 Q 948 344 936 357 Q 915 379 869 399 Q 850 409 818 398 Q 710 356 546 339 C 516 336 524 297 554 302 Q 558 302 564 303 Q 816 361 836 343 Q 843 339 844 319 Q 845 225 829 133 Q 828 117 821 116 C 809 88 771 125 783 98 Z" class="stroke17"/>
    <path d="M 571 186 Q 580 192 754 216 Q 778 220 769 232 Q 759 247 733 251 Q 709 255 566 215 C 537 207 543 176 571 186 Z" class="stroke18"/>
    <path d="M 583 71 Q 590 71 600 72 Q 658 87 783 98 C 813 101 849 105 821 116 Q 817 116 784 135 Q 768 142 740 136 Q 655 114 584 103 C 554 98 553 70 583 71 Z" class="stroke19"/>
    
    
    
    
    
    
    
    
    
    
    
    
    
    
    
    
    
    
    </g>
</svg>