<svg version="1.1" viewBox="0 0 1024 1024" xmlns="http://www.w3.org/2000/svg">
  
  <g transform="scale(1, -1) translate(0, -900)">
    <style type="text/css">
        .stroke1 {fill: #808080;}
        .stroke2 {fill: #808079;}
        .stroke3 {fill: #808078;}
        .stroke4 {fill: #808077;}
        .stroke5 {fill: #808076;}
        .stroke6 {fill: #808075;}
        .stroke7 {fill: #808074;}
        .stroke8 {fill: #808073;}
        .stroke9 {fill: #808072;}
        .stroke10 {fill: #808071;}
        .stroke11 {fill: #808070;}
        .stroke12 {fill: #808069;}
        .stroke13 {fill: #808068;}
        .stroke14 {fill: #808067;}
        .stroke15 {fill: #808066;}
        .stroke16 {fill: #808065;}
        .stroke17 {fill: #808064;}
        .stroke18 {fill: #808063;}
        .stroke19 {fill: #808062;}
        .stroke20 {fill: #808061;}
        text {
            font-family: Helvetica;
            font-size: 50px;
            fill: #808060;
            paint-order: stroke;
            stroke: #000000;
            stroke-width: 4px;
            stroke-linecap: butt;
            stroke-linejoin: miter;
            font-weight: 800;
        }
    </style>

    <path d="M 267 694 Q 291 739 314 759 Q 321 768 318 779 Q 315 789 292 808 Q 270 823 254 823 Q 239 822 246 803 Q 259 772 201 673 Q 173 628 133 577 Q 126 570 123 564 Q 120 555 132 557 Q 165 561 256 679 L 267 694 Z" class="stroke1"/>
    <path d="M 294 538 Q 397 652 423 667 Q 439 676 430 688 Q 418 698 387 719 Q 374 725 360 717 Q 353 713 298 699 Q 285 696 267 694 C 237 690 235 690 256 679 Q 268 667 332 676 Q 338 677 339 675 Q 343 671 337 662 Q 298 583 274 546 Q 267 537 265 530 C 252 503 274 516 294 538 Z" class="stroke2"/>
    <path d="M 158 502 Q 148 508 118 512 Q 108 515 104 510 Q 100 504 107 490 Q 138 427 156 325 Q 160 294 177 274 Q 193 255 198 269 L 200 283 L 200 310 Q 199 322 196 336 Q 174 438 169 472 C 165 499 165 499 158 502 Z" class="stroke3"/>
    <path d="M 333 308 Q 349 283 365 274 Q 374 268 386 286 Q 401 313 425 453 Q 432 480 450 502 Q 460 512 451 524 Q 438 537 400 558 Q 387 564 319 544 Q 316 544 294 538 L 265 530 Q 264 530 158 502 C 129 494 141 461 169 472 Q 200 485 247 495 L 279 504 Q 357 525 373 515 Q 388 505 384 484 Q 363 358 350 330 C 340 302 327 316 333 308 Z" class="stroke4"/>
    <path d="M 296 402 Q 317 408 338 411 Q 357 415 349 426 Q 339 436 318 439 Q 308 440 297 437 L 256 424 Q 228 414 205 403 Q 192 399 209 388 Q 215 385 257 393 L 296 402 Z" class="stroke5"/>
    <path d="M 293 336 Q 294 372 296 402 L 297 437 Q 297 452 299 468 Q 305 486 279 504 C 255 522 231 520 247 495 Q 248 494 250 491 Q 253 482 256 424 L 257 393 Q 257 365 258 325 C 259 295 292 306 293 336 Z" class="stroke6"/>
    <path d="M 200 283 Q 204 283 210 284 Q 250 296 333 308 C 363 312 370 313 350 330 Q 346 334 335 340 Q 322 347 298 339 Q 295 339 293 336 C 287 332 287 332 258 325 Q 227 318 200 310 C 171 302 170 281 200 283 Z" class="stroke7"/>
    <path d="M 106 200 Q 91 160 78 119 Q 68 97 77 74 Q 81 61 93 50 Q 100 43 112 45 Q 119 48 124 59 Q 133 86 133 198 Q 130 210 128 214 Q 124 218 118 218 Q 114 215 106 200 Z" class="stroke8"/>
    <path d="M 183 190 Q 189 126 206 114 Q 213 107 226 117 Q 233 124 235 142 Q 235 173 197 205 Q 193 211 187 203 Q 183 199 183 190 Z" class="stroke9"/>
    <path d="M 269 209 Q 287 155 309 146 Q 319 142 327 154 Q 331 164 329 181 Q 325 194 310 205 Q 288 223 278 228 Q 271 232 268 223 Q 265 217 269 209 Z" class="stroke10"/>
    <path d="M 351 228 Q 387 165 408 160 Q 418 157 426 171 Q 429 181 424 200 Q 412 230 359 250 Q 352 251 349 243 Q 346 236 351 228 Z" class="stroke11"/>
    <path d="M 557 768 Q 547 772 523 775 Q 513 778 510 773 Q 506 769 513 755 Q 538 703 556 619 Q 559 594 574 577 Q 590 559 594 573 Q 595 577 595 582 L 595 605 Q 591 638 586 653 L 582 675 Q 573 720 571 739 C 568 765 568 765 557 768 Z" class="stroke12"/>
    <path d="M 728 600 Q 728 596 731 590 Q 735 575 747 577 Q 760 578 766 592 Q 776 605 793 666 Q 806 712 839 740 Q 855 756 841 769 Q 825 784 778 807 Q 766 813 708 800 Q 657 793 613 780 Q 582 773 557 768 C 528 762 541 736 571 739 Q 578 738 584 740 Q 627 753 725 769 Q 741 770 749 767 Q 756 763 753 737 Q 740 643 731 622 L 728 600 Z" class="stroke13"/>
    <path d="M 586 653 Q 587 653 592 653 Q 653 665 697 671 Q 716 675 709 686 Q 699 698 679 700 Q 652 703 582 675 C 554 664 556 653 586 653 Z" class="stroke14"/>
    <path d="M 595 582 Q 601 581 610 583 Q 647 593 728 600 C 753 602 753 602 731 622 Q 727 626 722 629 Q 709 635 687 629 Q 636 614 595 605 C 566 598 565 584 595 582 Z" class="stroke15"/>
    <path d="M 503 503 Q 493 507 480 507 Q 470 508 468 505 Q 464 501 471 488 Q 493 445 510 375 Q 514 354 527 341 Q 542 325 545 337 L 547 349 L 545 376 Q 544 382 526 473 C 521 497 521 497 503 503 Z" class="stroke16"/>
    <path d="M 772 382 Q 785 361 797 354 Q 806 347 820 364 Q 830 377 856 447 Q 865 474 886 496 Q 898 506 888 519 Q 875 535 838 559 Q 823 566 737 547 Q 734 547 603 522 Q 549 512 503 503 C 474 497 497 464 526 473 Q 548 480 576 487 L 594 491 Q 634 501 688 510 L 724 516 Q 787 531 806 517 Q 813 511 811 500 Q 790 416 778 409 C 766 391 766 391 772 382 Z" class="stroke17"/>
    <path d="M 625 390 Q 625 391 626 391 Q 627 421 608 465 Q 605 469 603 476 Q 600 485 594 491 C 574 513 571 517 576 487 Q 577 480 580 472 Q 584 453 589 417 Q 593 399 607 386 C 620 374 620 374 625 390 Z" class="stroke18"/>
    <path d="M 699 406 Q 729 479 735 490 Q 744 502 724 516 C 700 534 682 539 688 510 Q 694 489 675 406 L 673 400 C 664 372 688 378 699 406 Z" class="stroke19"/>
    <path d="M 547 349 Q 598 367 772 382 C 802 385 801 390 778 409 Q 775 412 772 414 Q 757 421 699 406 L 673 400 Q 648 396 625 390 L 607 386 Q 574 382 545 376 C 516 370 518 340 547 349 Z" class="stroke20"/>
    <path d="M 678 121 Q 709 166 740 230 Q 753 255 772 272 Q 790 285 779 298 Q 767 311 739 323 Q 717 330 692 319 Q 667 309 635 298 Q 601 288 546 279 Q 534 278 530 272 Q 527 265 543 259 Q 576 249 618 262 Q 667 281 676 282 Q 692 275 684 258 Q 668 194 638 149 L 614 118 Q 550 52 417 15 Q 404 12 414 3 Q 420 -1 461 1 Q 567 10 648 86 L 678 121 Z" class="stroke21"/>
    <path d="M 648 86 Q 771 -37 818 -32 Q 899 -26 963 -9 Q 997 -2 993 7 Q 992 11 958 20 Q 789 53 706 103 Q 691 112 678 121 L 638 149 Q 614 168 588 190 Q 549 223 516 220 Q 500 219 497 214 Q 496 207 512 198 Q 546 183 614 118 L 648 86 Z" class="stroke22"/>
    
    
    
    
    
    
    
    
    
    
    
    
    
    
    
    
    
    
    
    
    
    </g>
</svg>