<svg version="1.1" viewBox="0 0 1024 1024" xmlns="http://www.w3.org/2000/svg">
  
  <g transform="scale(1, -1) translate(0, -900)">
    <style type="text/css">
        .stroke1 {fill: #808080;}
        .stroke2 {fill: #808079;}
        .stroke3 {fill: #808078;}
        .stroke4 {fill: #808077;}
        .stroke5 {fill: #808076;}
        .stroke6 {fill: #808075;}
        .stroke7 {fill: #808074;}
        .stroke8 {fill: #808073;}
        .stroke9 {fill: #808072;}
        .stroke10 {fill: #808071;}
        .stroke11 {fill: #808070;}
        .stroke12 {fill: #808069;}
        .stroke13 {fill: #808068;}
        .stroke14 {fill: #808067;}
        .stroke15 {fill: #808066;}
        .stroke16 {fill: #808065;}
        .stroke17 {fill: #808064;}
        .stroke18 {fill: #808063;}
        .stroke19 {fill: #808062;}
        .stroke20 {fill: #808061;}
        text {
            font-family: Helvetica;
            font-size: 50px;
            fill: #808060;
            paint-order: stroke;
            stroke: #000000;
            stroke-width: 4px;
            stroke-linecap: butt;
            stroke-linejoin: miter;
            font-weight: 800;
        }
    </style>

    <path d="M 255 751 Q 215 773 197 765 Q 185 756 193 743 Q 214 715 220 655 Q 220 456 204 343 Q 197 307 189 273 Q 156 156 77 9 Q 73 2 71 -5 Q 70 -17 80 -14 Q 113 -2 182 124 Q 200 161 217 204 Q 277 378 278 586 Q 281 691 284 706 C 287 736 282 738 255 751 Z" class="stroke1"/>
    <path d="M 284 706 Q 297 707 316 714 Q 470 754 674 780 Q 686 781 693 774 Q 703 764 697 739 Q 643 253 782 71 Q 860 -34 959 -43 Q 984 -44 988 -35 Q 995 -22 986 5 Q 970 77 961 150 Q 958 178 956 185 Q 955 200 947 191 Q 943 187 940 172 Q 913 64 899 62 Q 880 62 839 98 Q 746 188 734 387 Q 724 481 749 620 Q 767 740 803 761 Q 822 771 799 795 Q 771 817 731 839 Q 712 852 695 837 Q 682 833 482 788 Q 421 778 351 762 Q 285 752 255 751 C 225 748 255 699 284 706 Z" class="stroke2"/>
    <path d="M 437 641 Q 501 656 568 670 Q 602 679 607 684 Q 614 691 611 698 Q 604 708 579 714 Q 554 718 528 708 Q 488 693 446 682 Q 398 670 343 664 Q 312 658 334 644 Q 361 629 401 632 L 437 641 Z" class="stroke3"/>
    <path d="M 401 632 Q 405 623 380 549 C 373 527 383 536 406 556 Q 413 562 418 567 Q 454 604 460 608 Q 472 618 462 629 Q 452 636 437 641 C 409 651 398 655 401 632 Z" class="stroke4"/>
    <path d="M 361 545 Q 349 552 335 558 Q 319 564 311 556 Q 307 552 313 541 Q 332 496 321 301 Q 318 270 311 240 Q 307 221 320 207 Q 338 192 358 205 C 362 207 362 238 362 268 Q 362 284 362 298 L 362 314 Q 362 341 363 367 L 363 392 Q 363 396 364 401 Q 363 420 364 437 L 366 461 Q 366 494 378 515 C 386 531 386 531 361 545 Z" class="stroke5"/>
    <path d="M 380 549 Q 370 548 361 545 C 332 538 349 508 378 515 Q 384 516 388 517 Q 430 533 525 553 Q 543 556 549 553 Q 556 549 550 525 Q 523 426 517 418 C 510 403 510 403 515 393 L 516 391 Q 520 376 531 377 Q 544 378 552 390 Q 561 400 582 449 Q 598 494 632 519 Q 648 532 635 547 Q 620 563 577 588 Q 565 597 508 582 Q 424 566 406 556 L 380 549 Z" class="stroke6"/>
    <path d="M 364 437 Q 368 437 375 438 Q 442 454 494 463 Q 513 467 505 478 Q 495 488 474 492 Q 458 493 366 461 C 338 451 334 435 364 437 Z" class="stroke7"/>
    <path d="M 363 367 Q 372 366 382 368 Q 424 381 515 393 C 545 397 543 403 517 418 Q 496 433 432 411 Q 395 401 363 392 C 334 384 333 369 363 367 Z" class="stroke8"/>
    <path d="M 362 298 Q 371 294 388 296 Q 476 312 541 324 Q 560 327 553 338 Q 544 350 523 353 Q 502 356 362 314 C 336 306 336 306 362 298 Z" class="stroke9"/>
    <path d="M 358 205 Q 388 229 519 247 Q 585 257 603 243 Q 615 233 603 191 Q 599 149 590 105 Q 586 71 569 48 Q 562 39 541 43 Q 519 47 497 53 Q 484 57 483 51 Q 482 47 490 38 Q 530 -8 541 -40 Q 548 -59 567 -50 Q 624 -25 636 46 Q 663 206 678 228 Q 678 231 680 232 Q 693 248 681 259 Q 665 278 629 298 Q 608 310 582 297 Q 549 284 519 279 Q 476 273 390 255 Q 366 248 362 268 C 341 290 332 190 358 205 Z" class="stroke10"/>
    <path d="M 227 100 Q 239 69 249 31 Q 253 16 265 11 Q 272 7 282 14 Q 291 21 297 47 Q 303 75 244 136 Q 234 146 229 146 Q 223 145 219 136 Q 218 126 227 100 Z" class="stroke11"/>
    <path d="M 312 153 Q 337 90 357 82 Q 367 78 376 90 Q 380 100 377 117 Q 368 145 322 172 Q 315 176 312 167 Q 309 161 312 153 Z" class="stroke12"/>
    <path d="M 399 173 Q 417 115 437 107 Q 447 103 456 114 Q 460 124 459 141 Q 453 168 410 192 Q 403 195 400 187 Q 396 181 399 173 Z" class="stroke13"/>
    <path d="M 496 168 Q 532 119 540 117 Q 547 116 554 125 Q 558 135 557 157 Q 554 176 500 202 Q 490 206 484 206 Q 480 205 479 195 Q 480 186 496 168 Z" class="stroke14"/>
    
    
    
    
    
    
    
    
    
    
    
    
    
    </g>
</svg>