<svg version="1.1" viewBox="0 0 1024 1024" xmlns="http://www.w3.org/2000/svg">
  
  <g transform="scale(1, -1) translate(0, -900)">
    <style type="text/css">
        .stroke1 {fill: #808080;}
        .stroke2 {fill: #808079;}
        .stroke3 {fill: #808078;}
        .stroke4 {fill: #808077;}
        .stroke5 {fill: #808076;}
        .stroke6 {fill: #808075;}
        .stroke7 {fill: #808074;}
        .stroke8 {fill: #808073;}
        .stroke9 {fill: #808072;}
        .stroke10 {fill: #808071;}
        .stroke11 {fill: #808070;}
        .stroke12 {fill: #808069;}
        .stroke13 {fill: #808068;}
        .stroke14 {fill: #808067;}
        .stroke15 {fill: #808066;}
        .stroke16 {fill: #808065;}
        .stroke17 {fill: #808064;}
        .stroke18 {fill: #808063;}
        .stroke19 {fill: #808062;}
        .stroke20 {fill: #808061;}
        text {
            font-family: Helvetica;
            font-size: 50px;
            fill: #808060;
            paint-order: stroke;
            stroke: #000000;
            stroke-width: 4px;
            stroke-linecap: butt;
            stroke-linejoin: miter;
            font-weight: 800;
        }
    </style>

    <path d="M 268 603 Q 445 646 447 647 Q 456 656 451 664 Q 444 676 414 683 Q 383 689 352 676 Q 312 663 269 651 Q 221 641 165 634 Q 128 627 155 610 Q 185 594 236 596 L 268 603 Z" class="stroke1"/>
    <path d="M 237 442 Q 255 472 278 520 Q 285 536 299 555 Q 311 567 303 575 Q 294 588 268 603 C 242 618 227 625 236 596 Q 248 566 219 474 Q 210 450 207 435 C 200 406 222 416 237 442 Z" class="stroke2"/>
    <path d="M 126 413 Q 105 434 82 439 Q 78 442 73 436 Q 69 430 72 419 Q 90 383 91 353 Q 92 286 81 209 Q 77 188 84 170 Q 94 152 108 141 Q 121 132 123 142 Q 129 145 132 164 Q 136 180 134 239 Q 133 341 136 378 Q 137 382 137 384 C 139 401 139 401 126 413 Z" class="stroke3"/>
    <path d="M 312 426 Q 402 444 411 436 Q 418 432 418 399 Q 421 263 403 186 Q 397 158 372 161 Q 344 165 318 171 Q 306 175 306 169 Q 306 163 315 154 Q 373 105 388 80 Q 397 68 405 70 Q 415 71 426 92 Q 459 146 470 381 Q 471 412 481 429 Q 494 447 483 451 Q 470 464 439 476 Q 424 485 359 467 Q 293 458 237 442 L 207 435 Q 206 435 126 413 C 97 405 109 373 137 384 Q 143 391 185 398 L 220 407 Q 248 414 275 419 L 312 426 Z" class="stroke4"/>
    <path d="M 185 398 L 186 396 Q 202 341 202 253 Q 201 228 212 208 Q 224 187 230 199 Q 240 217 240 255 Q 239 360 241 380 Q 242 392 239 397 Q 233 401 220 407 C 193 420 175 426 185 398 Z" class="stroke5"/>
    <path d="M 275 419 Q 284 410 289 326 Q 283 217 300 186 Q 304 182 310 183 Q 322 190 336 341 Q 336 374 342 392 Q 345 405 335 412 Q 322 422 312 426 C 285 439 262 446 275 419 Z" class="stroke6"/>
    <path d="M 593 651 Q 629 684 698 752 Q 713 770 734 783 Q 752 796 739 810 Q 724 823 698 833 Q 673 842 662 838 Q 650 834 657 822 Q 664 800 583 663 Q 582 662 580 658 Q 579 658 579 657 C 562 632 571 631 593 651 Z" class="stroke7"/>
    <path d="M 581 383 Q 581 413 582 442 L 582 471 Q 582 478 583 484 Q 582 509 583 530 L 585 550 Q 589 589 599 616 C 614 663 603 640 579 657 Q 569 666 554 671 Q 535 678 527 669 Q 521 663 529 652 Q 541 625 542 506 Q 536 335 524 289 Q 520 268 535 253 Q 556 238 577 253 C 581 255 581 290 581 320 Q 581 339 581 360 L 581 383 Z" class="stroke8"/>
    <path d="M 737 471 Q 738 470 739 466 Q 743 453 755 453 Q 768 454 775 467 Q 788 482 810 557 Q 825 603 857 631 Q 875 644 860 659 Q 844 674 798 698 Q 783 707 728 689 Q 677 677 632 663 Q 610 656 593 651 C 564 642 570 607 599 616 Q 755 667 773 660 Q 782 654 776 625 Q 752 519 742 497 C 734 476 734 476 737 471 Z" class="stroke9"/>
    <path d="M 583 530 Q 590 529 601 530 Q 664 546 710 555 Q 729 559 721 570 Q 711 580 690 583 Q 665 584 585 550 C 557 538 553 533 583 530 Z" class="stroke10"/>
    <path d="M 582 442 Q 589 441 601 444 Q 644 457 737 471 C 767 475 768 482 742 497 Q 718 515 636 485 Q 606 478 582 471 C 553 463 552 443 582 442 Z" class="stroke11"/>
    <path d="M 581 360 Q 587 360 760 393 Q 782 397 773 409 Q 763 422 739 426 Q 712 427 581 383 C 553 373 551 356 581 360 Z" class="stroke12"/>
    <path d="M 577 253 Q 634 295 832 316 Q 860 320 874 308 Q 886 296 852 137 Q 842 89 819 59 Q 809 47 784 51 Q 753 58 726 66 Q 710 70 711 63 Q 711 57 719 50 Q 771 -1 789 -35 Q 798 -56 815 -45 Q 878 -15 891 49 Q 912 134 929 229 Q 936 266 954 297 Q 967 313 955 325 Q 939 344 901 365 Q 880 377 853 365 Q 813 346 773 340 Q 718 333 607 306 Q 585 299 581 320 C 559 340 551 238 577 253 Z" class="stroke13"/>
    <path d="M 514 196 Q 495 150 468 109 Q 450 82 466 51 Q 473 35 491 47 Q 531 77 537 145 Q 541 173 535 196 Q 531 203 525 204 Q 518 203 514 196 Z" class="stroke14"/>
    <path d="M 581 188 Q 599 116 616 105 Q 626 99 637 110 Q 643 119 644 138 Q 643 154 627 170 Q 605 198 594 206 Q 588 210 583 203 Q 579 197 581 188 Z" class="stroke15"/>
    <path d="M 660 208 Q 690 136 708 130 Q 718 126 728 139 Q 732 149 730 167 Q 726 183 709 197 Q 684 222 671 228 Q 664 232 660 223 Q 657 216 660 208 Z" class="stroke16"/>
    <path d="M 746 217 Q 795 151 801 150 Q 808 149 814 157 Q 818 166 818 187 Q 818 203 797 221 Q 743 257 736 254 Q 732 253 731 244 Q 732 235 746 217 Z" class="stroke17"/>
    
    
    
    
    
    
    
    
    
    
    
    
    
    
    
    
    </g>
</svg>