<svg version="1.1" viewBox="0 0 1024 1024" xmlns="http://www.w3.org/2000/svg">
  
  <g transform="scale(1, -1) translate(0, -900)">
    <style type="text/css">
        .stroke1 {fill: #808080;}
        .stroke2 {fill: #808079;}
        .stroke3 {fill: #808078;}
        .stroke4 {fill: #808077;}
        .stroke5 {fill: #808076;}
        .stroke6 {fill: #808075;}
        .stroke7 {fill: #808074;}
        .stroke8 {fill: #808073;}
        .stroke9 {fill: #808072;}
        .stroke10 {fill: #808071;}
        .stroke11 {fill: #808070;}
        .stroke12 {fill: #808069;}
        .stroke13 {fill: #808068;}
        .stroke14 {fill: #808067;}
        .stroke15 {fill: #808066;}
        .stroke16 {fill: #808065;}
        .stroke17 {fill: #808064;}
        .stroke18 {fill: #808063;}
        .stroke19 {fill: #808062;}
        .stroke20 {fill: #808061;}
        text {
            font-family: Helvetica;
            font-size: 50px;
            fill: #808060;
            paint-order: stroke;
            stroke: #000000;
            stroke-width: 4px;
            stroke-linecap: butt;
            stroke-linejoin: miter;
            font-weight: 800;
        }
    </style>

    <path d="M 365 698 Q 380 734 393 749 Q 400 755 397 765 Q 394 775 380 786 Q 364 798 344 802 Q 322 806 311 803 Q 302 800 306 787 Q 333 700 206 510 Q 197 500 190 488 Q 150 433 48 324 Q 41 318 51 316 Q 129 341 243 485 Q 306 581 353 673 L 365 698 Z" class="stroke1"/>
    <path d="M 353 673 Q 359 669 368 663 Q 459 600 470 601 Q 479 602 481 612 Q 484 624 475 646 Q 468 668 433 682 Q 400 692 365 698 C 335 703 328 690 353 673 Z" class="stroke2"/>
    <path d="M 265 473 Q 231 463 258 450 Q 300 432 353 450 Q 395 462 439 475 Q 458 482 462 485 Q 469 492 464 501 Q 457 511 427 516 Q 399 517 327 487 Q 297 480 265 473 Z" class="stroke3"/>
    <path d="M 258 338 Q 245 347 209 352 Q 197 353 195 349 Q 189 343 198 328 Q 226 273 247 180 Q 251 152 268 134 Q 286 115 290 129 Q 294 147 290 177 L 284 207 Q 268 283 263 312 C 258 338 258 338 258 338 Z" class="stroke4"/>
    <path d="M 419 228 Q 438 306 462 329 Q 481 353 460 366 Q 442 376 417 392 Q 399 401 358 375 Q 307 353 258 338 C 229 329 234 305 263 312 Q 270 313 281 317 Q 324 330 360 342 Q 385 349 392 340 Q 399 334 390 303 Q 383 272 372 233 C 364 204 412 199 419 228 Z" class="stroke5"/>
    <path d="M 290 177 Q 299 176 308 179 Q 347 189 430 199 Q 440 200 441 209 Q 441 216 419 228 L 372 233 Q 369 233 368 232 Q 322 217 284 207 C 255 199 260 178 290 177 Z" class="stroke6"/>
    <path d="M 588 662 Q 622 695 699 776 Q 714 795 735 809 Q 754 822 741 838 Q 725 851 697 861 Q 672 870 660 865 Q 648 861 654 849 Q 666 822 618 745 Q 594 706 569 664 C 554 638 567 641 588 662 Z" class="stroke7"/>
    <path d="M 584 396 Q 583 433 583 470 L 582 498 Q 581 526 582 549 L 584 575 Q 585 602 593 621 Q 594 625 594 630 C 598 649 595 650 569 664 Q 559 671 545 674 Q 527 680 519 671 Q 513 665 522 654 Q 549 599 540 359 Q 537 332 532 304 Q 528 283 543 270 Q 564 255 585 270 C 591 273 589 307 587 337 Q 586 355 585 372 L 584 396 Z" class="stroke8"/>
    <path d="M 753 496 Q 753 493 755 490 Q 759 475 771 477 Q 784 478 790 492 Q 800 505 820 574 Q 833 620 864 648 Q 880 663 866 676 Q 850 691 804 713 Q 791 720 734 703 Q 719 703 629 674 Q 607 667 588 662 C 559 654 539 608 594 630 Q 594 631 596 631 Q 642 650 751 675 Q 770 679 777 675 Q 786 671 782 643 Q 764 541 756 521 Q 755 521 755 520 C 750 505 750 505 753 496 Z" class="stroke9"/>
    <path d="M 582 549 Q 586 555 722 579 Q 741 583 733 594 Q 723 606 702 608 Q 683 609 584 575 C 556 565 555 535 582 549 Z" class="stroke10"/>
    <path d="M 583 470 Q 590 469 601 471 Q 649 484 753 496 C 780 499 778 501 755 520 Q 751 524 742 529 Q 727 536 701 529 Q 635 510 582 498 C 553 491 553 472 583 470 Z" class="stroke11"/>
    <path d="M 585 372 Q 586 372 772 407 Q 794 411 785 424 Q 775 439 749 442 Q 719 443 584 396 C 556 386 555 367 585 372 Z" class="stroke12"/>
    <path d="M 585 270 Q 627 300 745 318 Q 863 345 886 323 Q 898 313 886 272 Q 879 205 868 136 Q 861 82 836 47 Q 829 38 810 43 Q 776 56 746 68 Q 731 74 730 67 Q 730 61 738 53 Q 790 -5 806 -43 Q 813 -65 833 -55 Q 899 -28 911 47 Q 929 141 942 246 Q 948 283 965 313 Q 978 329 966 341 Q 948 360 912 380 Q 891 392 864 379 Q 822 360 782 355 Q 727 346 613 321 Q 589 315 587 337 C 566 359 559 255 585 270 Z" class="stroke13"/>
    <path d="M 473 208 Q 460 148 435 94 Q 422 58 443 30 Q 453 15 471 30 Q 490 49 498 81 Q 510 123 506 157 Q 506 188 496 211 Q 489 218 484 218 Q 477 217 473 208 Z" class="stroke14"/>
    <path d="M 558 187 Q 579 138 601 116 Q 611 112 620 118 Q 627 125 630 137 Q 631 155 622 168 Q 604 193 576 210 Q 566 217 558 217 Q 554 218 553 209 Q 552 200 558 187 Z" class="stroke15"/>
    <path d="M 644 215 Q 671 161 694 147 Q 704 143 712 150 Q 719 157 720 170 Q 720 203 660 240 Q 650 247 642 246 Q 638 246 637 237 Q 636 228 644 215 Z" class="stroke16"/>
    <path d="M 748 233 Q 773 212 798 187 Q 808 177 821 178 Q 830 178 833 189 Q 837 199 830 223 Q 826 239 800 252 Q 743 276 728 271 Q 724 267 725 257 Q 728 250 748 233 Z" class="stroke17"/>
    
    
    
    
    
    
    
    
    
    
    
    
    
    
    
    
    </g>
</svg>