<svg version="1.1" viewBox="0 0 1024 1024" xmlns="http://www.w3.org/2000/svg">
  
  <g transform="scale(1, -1) translate(0, -900)">
    <style type="text/css">
        .stroke1 {fill: #808080;}
        .stroke2 {fill: #808079;}
        .stroke3 {fill: #808078;}
        .stroke4 {fill: #808077;}
        .stroke5 {fill: #808076;}
        .stroke6 {fill: #808075;}
        .stroke7 {fill: #808074;}
        .stroke8 {fill: #808073;}
        .stroke9 {fill: #808072;}
        .stroke10 {fill: #808071;}
        .stroke11 {fill: #808070;}
        .stroke12 {fill: #808069;}
        .stroke13 {fill: #808068;}
        .stroke14 {fill: #808067;}
        .stroke15 {fill: #808066;}
        .stroke16 {fill: #808065;}
        .stroke17 {fill: #808064;}
        .stroke18 {fill: #808063;}
        .stroke19 {fill: #808062;}
        .stroke20 {fill: #808061;}
        text {
            font-family: Helvetica;
            font-size: 50px;
            fill: #808060;
            paint-order: stroke;
            stroke: #000000;
            stroke-width: 4px;
            stroke-linecap: butt;
            stroke-linejoin: miter;
            font-weight: 800;
        }
    </style>

    <path d="M 205 692 Q 220 611 141 519 Q 122 497 112 483 Q 106 470 119 474 Q 132 477 151 492 Q 209 538 240 597 Q 259 631 278 660 Q 287 672 273 684 Q 233 714 212 708 Q 202 705 205 692 Z" class="stroke1"/>
    <path d="M 389 638 Q 411 622 434 600 Q 447 588 463 590 Q 473 591 477 604 Q 481 619 470 647 Q 458 671 381 684 Q 365 685 360 683 Q 356 679 357 667 Q 361 657 389 638 Z" class="stroke2"/>
    <path d="M 174 265 Q 261 373 291 424 Q 298 437 305 448 L 314 464 Q 327 491 339 503 Q 346 516 343 524 Q 337 536 312 538 Q 284 542 274 538 Q 267 535 267 523 Q 261 417 55 188 Q 37 172 62 179 Q 101 191 161 250 L 174 265 Z" class="stroke3"/>
    <path d="M 305 448 Q 308 444 314 439 Q 365 403 427 350 Q 443 335 456 333 Q 463 333 468 342 Q 478 355 462 390 Q 444 432 321 463 Q 317 464 314 464 C 287 468 287 468 305 448 Z" class="stroke4"/>
    <path d="M 221 253 Q 209 259 178 265 Q 175 266 174 265 C 148 268 148 268 161 250 Q 179 232 204 102 Q 204 69 225 43 Q 241 22 246 37 Q 252 53 250 80 L 245 111 Q 232 196 229 225 C 226 251 226 251 221 253 Z" class="stroke5"/>
    <path d="M 392 129 Q 413 196 436 215 Q 461 240 437 256 Q 418 269 391 289 Q 373 301 323 276 Q 269 260 221 253 C 191 248 199 222 229 225 Q 289 231 352 238 Q 353 237 356 233 Q 363 227 355 197 Q 348 169 338 133 C 330 104 383 100 392 129 Z" class="stroke6"/>
    <path d="M 250 80 Q 256 80 264 81 Q 307 91 401 99 Q 411 100 412 109 Q 412 116 392 129 C 373 142 367 140 338 133 Q 286 120 245 111 C 216 105 220 79 250 80 Z" class="stroke7"/>
    <path d="M 619 678 Q 653 711 672 733 Q 721 793 736 802 Q 752 815 740 828 Q 724 841 698 848 Q 674 855 664 850 Q 654 846 659 835 Q 668 814 628 730 Q 616 708 603 681 L 601 673 C 597 656 598 657 619 678 Z" class="stroke8"/>
    <path d="M 594 400 Q 594 434 594 467 L 594 496 L 594 504 Q 593 535 594 562 L 596 583 Q 596 613 608 644 C 612 657 612 657 592 670 Q 579 680 562 686 Q 546 692 537 683 Q 531 679 539 668 Q 563 614 552 375 Q 548 342 542 312 Q 538 293 552 278 Q 570 263 592 278 C 598 281 596 313 595 343 Q 594 361 594 378 L 594 400 Z" class="stroke9"/>
    <path d="M 745 496 Q 745 493 747 490 Q 751 475 763 477 Q 776 478 782 493 Q 792 506 810 578 Q 823 624 854 653 Q 870 668 855 681 Q 839 696 793 718 Q 775 727 728 709 Q 647 691 619 678 L 601 673 Q 595 673 592 670 C 563 661 578 643 608 644 Q 618 643 628 646 Q 662 661 745 679 Q 760 680 765 679 Q 774 675 770 646 Q 755 541 746 518 L 745 496 Z" class="stroke10"/>
    <path d="M 594 562 Q 622 559 699 576 Q 703 577 710 579 Q 723 583 725 584 Q 731 591 727 596 Q 721 603 700 607 Q 690 608 631 591 Q 615 587 596 583 C 567 577 564 564 594 562 Z" class="stroke11"/>
    <path d="M 594 467 Q 601 466 609 468 Q 652 481 745 496 C 775 501 772 503 746 518 Q 739 522 729 528 Q 714 535 689 526 Q 635 507 594 496 C 565 488 564 469 594 467 Z" class="stroke12"/>
    <path d="M 594 378 Q 601 375 616 378 Q 697 399 757 412 Q 779 418 770 429 Q 758 442 734 444 Q 712 445 674 431 Q 631 415 594 400 C 566 389 565 385 594 378 Z" class="stroke13"/>
    <path d="M 592 278 Q 652 318 828 333 Q 859 337 872 325 Q 879 319 860 147 Q 854 98 834 66 Q 825 56 772 60 Q 738 64 739 59 Q 739 53 748 46 Q 794 1 811 -29 Q 821 -50 838 -38 Q 896 -5 906 63 Q 921 150 929 247 Q 935 284 952 315 Q 964 331 952 343 Q 934 362 897 382 Q 875 392 849 380 Q 810 364 775 358 Q 724 351 621 329 Q 597 322 595 343 C 574 364 566 264 592 278 Z" class="stroke14"/>
    <path d="M 475 210 Q 459 155 433 104 Q 420 74 437 46 Q 444 31 462 44 Q 504 83 502 162 Q 503 190 495 212 Q 491 219 485 219 Q 478 218 475 210 Z" class="stroke15"/>
    <path d="M 552 191 Q 574 122 595 115 Q 605 111 616 123 Q 622 133 619 153 Q 615 180 563 212 Q 556 216 552 206 Q 548 200 552 191 Z" class="stroke16"/>
    <path d="M 635 215 Q 669 149 691 144 Q 701 141 711 156 Q 714 166 709 186 Q 703 202 685 212 Q 657 233 643 237 Q 636 240 633 231 Q 630 224 635 215 Z" class="stroke17"/>
    <path d="M 749 221 Q 762 203 778 181 Q 788 168 802 167 Q 811 166 817 177 Q 823 189 819 216 Q 818 229 796 243 Q 742 270 732 267 Q 728 264 727 253 Q 728 243 749 221 Z" class="stroke18"/>
    
    
    
    
    
    
    
    
    
    
    
    
    
    
    
    
    
    </g>
</svg>