<svg version="1.1" viewBox="0 0 1024 1024" xmlns="http://www.w3.org/2000/svg">
  
  <g transform="scale(1, -1) translate(0, -900)">
    <style type="text/css">
        .stroke1 {fill: #808080;}
        .stroke2 {fill: #808079;}
        .stroke3 {fill: #808078;}
        .stroke4 {fill: #808077;}
        .stroke5 {fill: #808076;}
        .stroke6 {fill: #808075;}
        .stroke7 {fill: #808074;}
        .stroke8 {fill: #808073;}
        .stroke9 {fill: #808072;}
        .stroke10 {fill: #808071;}
        .stroke11 {fill: #808070;}
        .stroke12 {fill: #808069;}
        .stroke13 {fill: #808068;}
        .stroke14 {fill: #808067;}
        .stroke15 {fill: #808066;}
        .stroke16 {fill: #808065;}
        .stroke17 {fill: #808064;}
        .stroke18 {fill: #808063;}
        .stroke19 {fill: #808062;}
        .stroke20 {fill: #808061;}
        text {
            font-family: Helvetica;
            font-size: 50px;
            fill: #808060;
            paint-order: stroke;
            stroke: #000000;
            stroke-width: 4px;
            stroke-linecap: butt;
            stroke-linejoin: miter;
            font-weight: 800;
        }
    </style>

    <path d="M 353 748 Q 452 779 472 782 Q 485 782 490 789 Q 493 798 484 808 Q 435 844 406 845 Q 400 841 399 832 Q 393 795 225 730 Q 221 723 225 720 Q 246 720 313 738 Q 314 739 320 739 L 353 748 Z" class="stroke1"/>
    <path d="M 380 651 Q 420 661 471 667 Q 484 668 485 675 Q 486 687 471 694 Q 447 704 389 689 L 338 677 Q 212 650 119 637 Q 109 636 106 629 Q 103 620 116 611 Q 153 587 185 599 Q 263 624 314 638 Q 315 639 317 638 L 380 651 Z" class="stroke2"/>
    <path d="M 376 615 Q 377 634 380 651 L 389 689 Q 392 698 397 706 Q 401 713 393 724 Q 375 739 353 748 C 326 760 302 763 320 739 Q 335 724 338 677 L 339 597 Q 338 509 331 478 Q 330 466 343 437 Q 350 424 363 431 Q 366 435 374 598 L 376 615 Z" class="stroke3"/>
    <path d="M 317 638 Q 281 556 117 449 Q 104 440 116 438 Q 125 437 156 448 Q 196 461 232 487 Q 263 511 300 549 Q 322 574 339 597 C 377 648 330 666 317 638 Z" class="stroke4"/>
    <path d="M 374 598 Q 378 592 394 584 Q 418 569 443 551 Q 453 544 464 545 Q 471 546 474 556 Q 475 566 467 586 Q 455 607 386 616 Q 379 617 376 615 C 363 611 363 611 374 598 Z" class="stroke5"/>
    <path d="M 510 696 Q 543 630 564 625 Q 574 621 583 635 Q 586 645 582 664 Q 578 679 559 691 Q 531 712 519 717 Q 512 720 509 711 Q 506 704 510 696 Z" class="stroke6"/>
    <path d="M 772 737 Q 757 710 727 668 Q 723 661 727 655 Q 734 654 741 658 Q 808 703 842 719 Q 858 723 854 734 Q 848 749 830 766 Q 811 782 791 784 Q 776 783 778 765 Q 781 752 772 737 Z" class="stroke7"/>
    <path d="M 519 494 Q 588 503 649 604 Q 650 611 654 616 L 662 639 Q 680 699 686 772 Q 687 794 694 816 Q 700 831 686 837 Q 643 861 624 851 Q 614 847 620 835 Q 650 793 631 680 Q 618 605 541 527 Q 531 515 518 504 Q 514 503 513 499 C 505 491 505 491 519 494 Z" class="stroke8"/>
    <path d="M 654 616 Q 660 594 803 454 Q 830 432 944 466 Q 951 469 952 473 Q 952 477 941 482 Q 823 516 742 577 Q 706 604 668 634 Q 665 637 662 639 C 639 658 640 642 654 616 Z" class="stroke9"/>
    <path d="M 455 411 Q 497 451 520 469 Q 533 475 529 482 Q 525 489 519 494 L 513 499 Q 495 517 473 516 Q 461 515 464 499 Q 470 484 424 404 C 409 378 433 390 455 411 Z" class="stroke10"/>
    <path d="M 399 211 Q 400 230 402 250 L 403 274 Q 403 278 404 282 Q 404 298 405 312 L 408 333 Q 411 355 418 369 Q 418 372 419 373 C 425 389 425 389 409 401 Q 397 411 381 418 Q 365 424 358 417 Q 352 413 359 402 Q 375 363 357 182 Q 353 166 349 149 Q 343 130 356 115 Q 375 99 393 110 C 394 111 397 159 398 189 L 399 211 Z" class="stroke11"/>
    <path d="M 605 284 Q 617 262 629 255 Q 636 248 651 264 Q 661 276 689 347 Q 696 372 717 391 Q 727 401 719 413 Q 709 426 674 450 Q 659 459 594 442 Q 576 442 467 415 Q 460 414 455 411 L 424 404 Q 417 404 409 401 C 380 395 392 360 419 373 Q 431 385 609 419 Q 634 423 644 415 Q 651 408 649 397 Q 625 313 611 306 C 600 293 600 293 605 284 Z" class="stroke12"/>
    <path d="M 405 312 Q 412 311 425 313 Q 518 332 586 345 Q 604 349 597 358 Q 588 370 569 372 Q 551 375 408 333 C 379 325 375 314 405 312 Z" class="stroke13"/>
    <path d="M 402 250 Q 406 250 414 251 Q 475 267 605 284 C 632 288 632 288 611 306 Q 607 310 602 313 Q 589 319 568 313 Q 477 288 403 274 C 374 268 372 248 402 250 Z" class="stroke14"/>
    <path d="M 398 189 Q 404 189 415 190 Q 529 209 613 219 Q 629 220 624 231 Q 617 241 599 246 Q 590 247 399 211 C 370 205 368 188 398 189 Z" class="stroke15"/>
    <path d="M 393 110 Q 465 155 687 168 Q 786 177 800 166 Q 812 157 804 118 Q 785 33 767 10 Q 760 -2 736 0 Q 712 4 692 9 Q 679 13 679 7 Q 679 3 686 -4 Q 726 -47 739 -74 Q 746 -92 761 -84 Q 810 -60 822 -21 Q 838 31 852 89 Q 859 123 877 153 Q 890 168 879 179 Q 863 198 829 219 Q 810 231 783 219 Q 722 197 667 194 Q 588 188 429 164 Q 399 149 398 189 C 391 218 371 99 393 110 Z" class="stroke16"/>
    <path d="M 264 114 Q 246 60 218 11 Q 203 -22 220 -52 Q 229 -68 248 -56 Q 296 -11 293 60 Q 296 91 287 115 Q 283 122 276 124 Q 269 123 264 114 Z" class="stroke17"/>
    <path d="M 397 63 Q 413 17 433 -7 Q 443 -13 453 -6 Q 460 1 463 13 Q 464 44 430 74 Q 406 92 399 93 Q 395 94 392 85 Q 391 76 397 63 Z" class="stroke18"/>
    <path d="M 518 87 Q 530 48 549 29 Q 559 23 569 30 Q 576 37 578 49 Q 578 77 536 110 Q 526 117 519 117 Q 515 118 513 109 Q 512 100 518 87 Z" class="stroke19"/>
    <path d="M 640 93 Q 670 47 686 44 Q 695 43 701 53 Q 708 65 704 92 Q 703 105 683 117 Q 632 141 624 139 Q 620 136 619 125 Q 620 115 640 93 Z" class="stroke20"/>
    
    
    
    
    
    
    
    
    
    
    
    
    
    
    
    
    
    
    
    </g>
</svg>