<svg version="1.1" viewBox="0 0 1024 1024" xmlns="http://www.w3.org/2000/svg">
  
  <g transform="scale(1, -1) translate(0, -900)">
    <style type="text/css">
        .stroke1 {fill: #808080;}
        .stroke2 {fill: #808079;}
        .stroke3 {fill: #808078;}
        .stroke4 {fill: #808077;}
        .stroke5 {fill: #808076;}
        .stroke6 {fill: #808075;}
        .stroke7 {fill: #808074;}
        .stroke8 {fill: #808073;}
        .stroke9 {fill: #808072;}
        .stroke10 {fill: #808071;}
        .stroke11 {fill: #808070;}
        .stroke12 {fill: #808069;}
        .stroke13 {fill: #808068;}
        .stroke14 {fill: #808067;}
        .stroke15 {fill: #808066;}
        .stroke16 {fill: #808065;}
        .stroke17 {fill: #808064;}
        .stroke18 {fill: #808063;}
        .stroke19 {fill: #808062;}
        .stroke20 {fill: #808061;}
        text {
            font-family: Helvetica;
            font-size: 50px;
            fill: #808060;
            paint-order: stroke;
            stroke: #000000;
            stroke-width: 4px;
            stroke-linecap: butt;
            stroke-linejoin: miter;
            font-weight: 800;
        }
    </style>

    <path d="M 401 741 Q 426 748 455 753 Q 486 760 491 764 Q 497 770 494 776 Q 490 783 469 789 Q 442 795 407 778 L 359 765 Q 355 765 353 764 Q 311 754 261 750 Q 236 746 254 734 Q 276 722 342 730 Q 349 733 360 733 L 401 741 Z" class="stroke1"/>
    <path d="M 394 700 Q 397 722 401 741 L 407 778 Q 410 796 419 822 Q 422 829 407 842 Q 382 857 364 861 Q 352 864 346 857 Q 340 853 346 841 Q 355 828 359 765 L 360 733 Q 360 714 360 692 C 360 662 390 670 394 700 Z" class="stroke2"/>
    <path d="M 449 679 Q 471 683 496 686 Q 509 687 509 693 Q 510 703 496 710 Q 472 720 394 700 L 360 692 Q 216 665 155 658 Q 145 657 143 651 Q 140 642 152 634 Q 179 613 221 626 Q 243 635 269 640 L 287 645 Q 338 664 414 673 L 449 679 Z" class="stroke3"/>
    <path d="M 269 640 Q 270 639 271 637 Q 289 576 301 567 C 322 547 322 547 326 574 Q 330 598 311 619 Q 296 637 287 645 C 265 665 252 665 269 640 Z" class="stroke4"/>
    <path d="M 422 605 Q 461 657 462 661 Q 461 662 461 663 Q 457 670 449 679 C 429 702 415 703 414 673 Q 414 655 400 613 Q 394 603 393 595 C 387 566 404 581 422 605 Z" class="stroke5"/>
    <path d="M 395 561 Q 414 567 462 576 Q 469 576 475 585 Q 475 594 459 600 Q 434 609 422 605 L 393 595 Q 375 591 358 584 Q 342 580 326 574 L 301 567 Q 297 568 292 566 Q 270 562 245 557 Q 226 553 242 542 Q 264 527 294 535 Q 321 544 354 551 L 395 561 Z" class="stroke6"/>
    <path d="M 395 496 Q 404 500 417 504 Q 462 520 465 534 Q 459 540 395 522 L 352 511 Q 291 498 228 483 Q 212 479 187 481 Q 177 481 175 474 Q 174 464 179 457 Q 195 444 219 429 Q 226 426 236 432 Q 278 459 352 481 L 395 496 Z" class="stroke7"/>
    <path d="M 395 522 Q 395 541 395 561 C 395 591 356 581 354 551 Q 353 532 352 511 L 352 481 Q 352 430 367 414 Q 374 405 383 423 Q 393 450 395 496 L 395 522 Z" class="stroke8"/>
    <path d="M 573 579 Q 555 540 529 492 Q 525 488 524 483 Q 523 474 530 476 Q 558 482 601 558 L 616 589 Q 635 644 647 697 L 651 726 Q 654 747 662 795 Q 669 805 663 816 Q 650 829 627 840 Q 614 847 603 844 Q 594 838 599 828 Q 611 816 606 714 L 603 684 Q 597 645 583 603 L 573 579 Z" class="stroke9"/>
    <path d="M 647 697 Q 704 719 718 711 Q 730 704 722 683 Q 695 533 749 482 Q 771 458 846 426 Q 889 407 914 409 Q 939 410 941 422 Q 948 432 937 473 Q 931 498 921 575 Q 920 588 909 594 Q 905 598 901 585 Q 885 512 875 495 Q 868 480 839 485 Q 812 491 783 515 Q 758 537 752 565 Q 736 634 801 700 Q 825 721 773 754 Q 748 773 730 760 Q 714 748 667 731 Q 658 730 651 726 L 606 714 Q 536 704 532 698 Q 529 694 536 686 Q 548 676 603 684 L 647 697 Z" class="stroke10"/>
    <path d="M 601 558 Q 628 539 656 515 Q 666 505 675 504 Q 681 503 684 510 Q 690 519 680 543 Q 671 567 616 589 L 583 603 Q 558 615 540 620 Q 534 621 534 615 Q 534 612 573 579 L 601 558 Z" class="stroke11"/>
    <path d="M 436 397 Q 481 457 500 471 Q 510 481 501 490 Q 491 497 471 502 Q 453 506 446 502 Q 439 499 444 491 Q 448 478 415 391 C 404 363 418 373 436 397 Z" class="stroke12"/>
    <path d="M 389 198 Q 389 219 389 239 L 389 261 L 389 267 Q 388 288 389 305 L 391 325 Q 392 344 398 358 C 405 378 405 378 393 387 Q 380 399 360 405 Q 344 411 338 403 Q 332 399 339 389 Q 363 344 347 156 Q 344 143 341 128 Q 335 109 349 94 Q 364 82 390 93 C 391 93 389 125 389 155 Q 389 165 389 174 L 389 198 Z" class="stroke13"/>
    <path d="M 594 275 Q 604 257 617 251 Q 626 244 639 261 Q 646 273 669 340 Q 676 367 696 387 Q 706 397 697 409 Q 684 424 648 445 Q 632 452 572 433 Q 568 433 563 431 Q 463 407 436 397 L 415 391 Q 402 390 393 387 C 364 380 368 356 398 358 Q 405 357 418 360 Q 479 382 588 407 Q 610 411 620 405 Q 627 399 626 388 Q 610 307 596 301 C 585 288 585 288 594 275 Z" class="stroke14"/>
    <path d="M 389 305 L 554 337 Q 572 341 565 350 Q 556 360 536 364 Q 521 365 391 325 C 362 316 360 299 389 305 Z" class="stroke15"/>
    <path d="M 389 239 Q 398 238 411 240 Q 516 262 594 275 C 624 280 623 288 596 301 Q 592 304 585 305 Q 566 306 534 298 Q 458 279 389 261 C 360 253 359 240 389 239 Z" class="stroke16"/>
    <path d="M 389 174 Q 395 173 406 175 Q 511 196 589 208 Q 608 211 601 222 Q 592 234 571 238 Q 550 239 389 198 C 360 191 359 175 389 174 Z" class="stroke17"/>
    <path d="M 390 93 Q 432 121 592 145 Q 739 166 757 153 Q 769 144 761 105 Q 746 15 725 -14 Q 716 -24 695 -21 Q 668 -14 644 -7 Q 631 -3 631 -9 Q 630 -13 638 -21 Q 681 -67 696 -99 Q 703 -118 720 -109 Q 772 -84 782 -41 Q 798 14 810 78 Q 817 112 834 142 Q 846 157 835 169 Q 819 188 784 207 Q 765 217 738 206 Q 684 184 634 179 Q 564 172 420 145 Q 396 132 389 155 C 366 174 363 79 390 93 Z" class="stroke18"/>
    <path d="M 261 93 Q 236 42 204 -3 Q 182 -33 198 -64 Q 204 -80 224 -70 Q 272 -39 281 39 Q 288 69 282 91 Q 278 100 273 101 Q 266 100 261 93 Z" class="stroke19"/>
    <path d="M 356 37 Q 371 -14 387 -30 Q 394 -36 405 -30 Q 412 -24 415 -13 Q 418 12 374 57 Q 365 64 359 65 Q 355 66 353 57 Q 350 50 356 37 Z" class="stroke20"/>
    <path d="M 474 57 Q 492 15 511 -4 Q 520 -8 529 -2 Q 535 5 537 16 Q 538 32 530 44 Q 520 57 491 79 Q 481 86 474 85 Q 470 85 469 77 Q 468 70 474 57 Z" class="stroke21"/>
    <path d="M 597 73 Q 616 51 635 22 Q 642 10 655 9 Q 664 8 669 17 Q 675 27 673 51 Q 670 78 601 110 Q 589 116 584 114 Q 580 113 579 102 Q 580 93 597 73 Z" class="stroke22"/>
    
    
    
    
    
    
    
    
    
    
    
    
    
    
    
    
    
    
    
    
    
    </g>
</svg>