<svg version="1.1" viewBox="0 0 1024 1024" xmlns="http://www.w3.org/2000/svg">
  
  <g transform="scale(1, -1) translate(0, -900)">
    <style type="text/css">
        .stroke1 {fill: #808080;}
        .stroke2 {fill: #808079;}
        .stroke3 {fill: #808078;}
        .stroke4 {fill: #808077;}
        .stroke5 {fill: #808076;}
        .stroke6 {fill: #808075;}
        .stroke7 {fill: #808074;}
        .stroke8 {fill: #808073;}
        .stroke9 {fill: #808072;}
        .stroke10 {fill: #808071;}
        .stroke11 {fill: #808070;}
        .stroke12 {fill: #808069;}
        .stroke13 {fill: #808068;}
        .stroke14 {fill: #808067;}
        .stroke15 {fill: #808066;}
        .stroke16 {fill: #808065;}
        .stroke17 {fill: #808064;}
        .stroke18 {fill: #808063;}
        .stroke19 {fill: #808062;}
        .stroke20 {fill: #808061;}
        text {
            font-family: Helvetica;
            font-size: 50px;
            fill: #808060;
            paint-order: stroke;
            stroke: #000000;
            stroke-width: 4px;
            stroke-linecap: butt;
            stroke-linejoin: miter;
            font-weight: 800;
        }
    </style>

    <path d="M 304 806 Q 294 810 264 815 Q 254 816 252 812 Q 248 808 255 795 Q 274 767 289 716 Q 293 701 303 692 Q 318 676 321 689 Q 322 693 322 699 L 320 724 Q 311 767 310 783 C 308 805 308 805 304 806 Z" class="stroke1"/>
    <path d="M 446 742 Q 459 782 473 792 Q 489 813 472 824 Q 456 831 435 846 Q 420 853 406 845 Q 376 826 304 806 C 275 798 283 771 310 783 Q 323 790 386 805 Q 408 811 413 802 L 406 747 C 402 717 436 714 446 742 Z" class="stroke2"/>
    <path d="M 322 699 Q 328 699 335 700 Q 372 710 452 722 Q 459 723 461 729 Q 461 733 446 742 C 433 750 433 750 406 747 Q 405 748 403 747 Q 357 732 320 724 C 291 718 292 698 322 699 Z" class="stroke3"/>
    <path d="M 556 836 Q 546 842 516 848 Q 507 849 504 846 Q 500 842 506 829 Q 522 798 535 744 Q 536 728 547 717 Q 560 701 565 712 Q 568 719 568 730 L 566 753 Q 560 798 560 814 C 560 834 560 834 556 836 Z" class="stroke4"/>
    <path d="M 701 764 Q 716 800 730 810 Q 749 829 731 842 Q 718 852 697 866 Q 684 875 637 854 Q 591 842 556 836 C 526 831 530 812 560 814 Q 564 814 570 815 Q 610 824 643 830 Q 665 834 671 825 L 660 771 C 654 742 689 736 701 764 Z" class="stroke5"/>
    <path d="M 568 730 Q 575 727 586 730 Q 623 737 707 742 Q 714 743 715 749 Q 715 753 701 764 C 685 777 685 777 660 771 Q 608 759 566 753 C 536 749 539 738 568 730 Z" class="stroke6"/>
    <path d="M 346 651 Q 336 657 306 659 Q 296 662 292 657 Q 288 651 296 637 Q 321 594 339 521 Q 343 499 357 485 Q 373 467 378 481 Q 379 485 379 489 L 379 510 Q 378 519 358 623 C 353 648 353 648 346 651 Z" class="stroke7"/>
    <path d="M 611 518 Q 612 517 613 513 Q 617 500 627 501 Q 637 502 644 514 Q 653 524 670 575 Q 683 617 713 640 Q 728 653 715 665 Q 702 678 661 700 Q 649 707 579 692 Q 549 692 430 667 Q 382 657 346 651 C 316 646 329 615 358 623 Q 400 636 472 649 L 511 656 Q 613 677 635 665 Q 642 661 638 639 Q 622 557 614 540 C 608 523 608 523 611 518 Z" class="stroke8"/>
    <path d="M 511 576 Q 550 583 585 588 Q 604 591 597 602 Q 588 614 567 618 Q 548 619 513 611 Q 512 611 511 610 L 472 599 Q 435 592 406 582 Q 393 579 409 567 Q 418 560 435 564 Q 451 568 472 570 L 511 576 Z" class="stroke9"/>
    <path d="M 511 534 L 511 576 L 511 610 L 511 656 C 511 686 472 679 472 649 L 472 599 L 472 570 L 472 526 C 472 496 511 504 511 534 Z" class="stroke10"/>
    <path d="M 379 489 Q 389 488 404 489 Q 522 508 611 518 C 641 521 641 526 614 540 Q 608 544 599 546 Q 578 549 511 534 L 472 526 Q 423 519 379 510 C 350 504 349 491 379 489 Z" class="stroke11"/>
    <path d="M 86 424 Q 74 424 73 414 Q 72 402 89 389 Q 131 362 160 371 Q 268 419 639 454 Q 753 464 902 450 Q 924 449 929 456 Q 936 469 924 479 Q 897 504 857 522 Q 844 526 820 519 Q 777 506 714 497 Q 435 464 264 440 Q 162 424 86 424 Z" class="stroke12"/>
    <path d="M 296 372 Q 289 376 261 378 Q 252 379 250 375 Q 246 371 253 359 Q 275 328 292 273 Q 296 257 307 247 Q 322 234 324 245 Q 325 249 325 257 L 323 276 Q 322 279 307 342 C 300 370 300 370 296 372 Z" class="stroke13"/>
    <path d="M 674 321 Q 698 355 717 364 Q 733 379 714 394 Q 698 410 679 424 Q 667 434 650 428 Q 619 418 571 411 Q 486 401 390 384 Q 336 377 296 372 C 266 368 279 330 307 342 Q 329 354 395 362 L 432 368 Q 432 369 433 369 Q 457 373 487 376 L 531 381 Q 577 387 635 391 Q 650 392 655 385 Q 658 379 632 325 C 619 298 656 297 674 321 Z" class="stroke14"/>
    <path d="M 325 257 Q 326 257 331 257 Q 374 266 409 268 C 439 270 438 286 409 293 Q 376 302 323 276 C 296 263 295 257 325 257 Z" class="stroke15"/>
    <path d="M 543 283 Q 546 283 550 283 Q 623 293 677 298 Q 695 299 688 310 Q 684 317 674 321 L 632 325 Q 626 325 543 305 C 514 298 513 283 543 283 Z" class="stroke16"/>
    <path d="M 541 233 Q 541 255 543 283 L 543 305 Q 543 309 544 312 Q 545 333 550 355 Q 553 367 543 374 Q 536 378 531 381 C 505 396 472 402 487 376 Q 500 355 501 336 Q 502 263 502 149 Q 499 53 513 30 Q 517 26 522 27 Q 534 36 537 74 L 539 97 Q 540 122 541 148 L 540 167 Q 540 183 541 208 L 541 233 Z" class="stroke17"/>
    <path d="M 409 268 Q 409 247 408 224 L 408 194 Q 408 106 411 80 L 415 54 Q 428 -21 502 -49 Q 559 -68 684 -69 Q 787 -68 847 -53 Q 892 -44 898 -33 Q 905 -23 897 -6 Q 879 46 871 124 Q 867 140 860 144 Q 853 148 849 130 Q 821 21 806 10 Q 797 0 761 -7 Q 649 -26 578 -22 Q 496 -15 462 35 Q 441 68 452 234 Q 455 294 463 327 Q 469 352 432 368 C 407 385 386 390 395 362 Q 396 361 397 359 Q 407 335 409 293 L 409 268 Z" class="stroke18"/>
    <path d="M 408 224 Q 407 225 405 225 Q 390 226 262 191 C 233 183 238 162 267 168 Q 345 183 408 194 C 438 199 437 218 408 224 Z" class="stroke19"/>
    <path d="M 262 191 Q 250 197 219 204 Q 209 205 206 202 Q 202 196 209 183 Q 224 153 251 48 Q 255 33 266 21 Q 282 3 286 17 Q 287 24 288 35 L 286 58 Q 285 62 285 67 Q 281 86 278 101 L 274 122 Q 270 153 267 168 C 263 191 263 191 262 191 Z" class="stroke20"/>
    <path d="M 278 101 Q 335 110 374 117 Q 392 121 385 130 Q 376 140 357 144 Q 329 147 274 122 C 247 110 248 96 278 101 Z" class="stroke21"/>
    <path d="M 288 35 Q 357 48 415 54 C 445 57 440 73 411 80 Q 410 81 407 81 Q 379 87 286 58 C 257 49 259 29 288 35 Z" class="stroke22"/>
    <path d="M 657 84 Q 658 83 659 81 Q 675 50 696 72 Q 714 91 720 130 Q 729 173 750 200 Q 763 215 752 229 Q 737 244 712 261 Q 699 268 685 263 Q 618 242 541 233 C 511 229 511 203 541 208 Q 545 208 628 226 Q 668 235 683 226 Q 687 223 685 207 Q 673 119 665 110 C 655 87 655 87 657 84 Z" class="stroke23"/>
    <path d="M 541 148 Q 584 151 629 155 Q 647 156 640 167 Q 633 177 615 181 Q 590 185 540 167 C 512 157 511 146 541 148 Z" class="stroke24"/>
    <path d="M 537 74 Q 538 74 542 74 Q 606 81 657 84 C 687 86 689 92 665 110 Q 661 114 653 115 Q 626 119 539 97 C 510 90 507 74 537 74 Z" class="stroke25"/>
    
    
    
    
    
    
    
    
    
    
    
    
    
    
    
    
    
    
    
    
    
    
    
    
    </g>
</svg>