<svg version="1.1" viewBox="0 0 1024 1024" xmlns="http://www.w3.org/2000/svg">
  
  <g transform="scale(1, -1) translate(0, -900)">
    <style type="text/css">
        .stroke1 {fill: #808080;}
        .stroke2 {fill: #808079;}
        .stroke3 {fill: #808078;}
        .stroke4 {fill: #808077;}
        .stroke5 {fill: #808076;}
        .stroke6 {fill: #808075;}
        .stroke7 {fill: #808074;}
        .stroke8 {fill: #808073;}
        .stroke9 {fill: #808072;}
        .stroke10 {fill: #808071;}
        .stroke11 {fill: #808070;}
        .stroke12 {fill: #808069;}
        .stroke13 {fill: #808068;}
        .stroke14 {fill: #808067;}
        .stroke15 {fill: #808066;}
        .stroke16 {fill: #808065;}
        .stroke17 {fill: #808064;}
        .stroke18 {fill: #808063;}
        .stroke19 {fill: #808062;}
        .stroke20 {fill: #808061;}
        text {
            font-family: Helvetica;
            font-size: 50px;
            fill: #808060;
            paint-order: stroke;
            stroke: #000000;
            stroke-width: 4px;
            stroke-linecap: butt;
            stroke-linejoin: miter;
            font-weight: 800;
        }
    </style>

    <path d="M 467 816 Q 495 797 526 773 Q 541 763 555 765 Q 565 766 569 780 Q 572 795 560 822 Q 547 849 456 861 Q 441 862 436 859 Q 432 855 434 843 Q 438 833 467 816 Z" class="stroke1"/>
    <path d="M 607 712 Q 608 715 773 728 Q 785 727 795 739 Q 796 752 773 764 Q 731 788 665 770 Q 476 734 226 711 Q 195 708 218 689 Q 254 658 284 665 Q 405 687 567 707 L 607 712 Z" class="stroke2"/>
    <path d="M 550 588 Q 581 621 623 653 Q 633 657 632 669 Q 629 690 607 712 C 587 734 579 735 567 707 Q 549 659 506 615 L 479 590 Q 373 509 194 459 Q 184 456 189 451 Q 195 445 206 445 Q 356 445 456 515 Q 484 533 519 561 L 550 588 Z" class="stroke3"/>
    <path d="M 519 561 Q 672 452 699 449 Q 750 449 850 486 Q 881 496 877 505 Q 876 509 842 514 Q 773 514 682 534 Q 637 544 550 588 L 506 615 Q 481 631 454 649 Q 415 677 384 671 Q 368 670 366 664 Q 366 657 382 651 Q 418 638 479 590 L 519 561 Z" class="stroke4"/>
    <path d="M 247 400 Q 280 367 251 182 Q 248 170 246 157 Q 230 99 188 19 Q 184 13 183 8 Q 182 -2 190 1 Q 217 4 268 102 Q 269 108 273 114 Q 303 192 316 346 Q 320 388 321 389 L 320 390 Q 305 403 278 415 Q 262 422 250 418 Q 240 411 247 400 Z" class="stroke5"/>
    <path d="M 463 83 Q 463 84 465 87 Q 468 99 473 321 Q 473 358 480 383 Q 486 393 484 402 Q 480 408 443 430 Q 427 440 414 431 Q 411 427 415 417 Q 422 407 430 359 L 431 331 Q 431 304 432 275 L 432 250 Q 432 229 433 206 Q 432 205 432 201 L 430 179 Q 424 107 434 84 L 435 82 Q 435 81 436 79 C 446 51 456 54 463 83 Z" class="stroke6"/>
    <path d="M 430 359 Q 429 360 423 361 Q 395 365 334 338 Q 321 335 337 323 L 431 331 C 461 334 458 348 430 359 Z" class="stroke7"/>
    <path d="M 432 275 Q 402 291 329 255 Q 316 251 333 239 L 432 250 C 462 253 459 262 432 275 Z" class="stroke8"/>
    <path d="M 432 201 Q 318 171 310 170 Q 301 169 301 162 Q 300 153 306 148 Q 322 138 344 127 Q 386 152 430 179 C 456 195 461 209 432 201 Z" class="stroke9"/>
    <path d="M 581 102 Q 587 117 588 176 L 587 203 Q 587 230 587 265 L 587 289 Q 587 313 587 345 L 588 371 Q 589 390 593 404 Q 599 414 596 423 Q 592 429 555 450 Q 539 460 526 450 Q 523 446 528 437 Q 549 407 549 205 Q 539 144 543 132 Q 549 111 556 97 C 568 70 574 73 581 102 Z" class="stroke10"/>
    <path d="M 587 345 Q 609 342 687 358 Q 696 359 697 361 Q 704 368 699 375 Q 692 384 669 388 Q 644 391 621 379 Q 611 376 601 374 Q 594 373 588 371 C 559 362 557 348 587 345 Z" class="stroke11"/>
    <path d="M 587 265 Q 611 259 688 279 Q 698 280 701 283 Q 707 290 703 295 Q 697 304 675 308 Q 645 308 587 289 C 558 280 558 271 587 265 Z" class="stroke12"/>
    <path d="M 588 176 Q 669 185 692 180 Q 702 180 705 187 Q 708 196 698 205 Q 662 229 596 206 Q 592 205 587 203 C 559 193 558 173 588 176 Z" class="stroke13"/>
    <path d="M 556 97 Q 514 93 463 83 L 436 79 Q 387 75 331 67 Q 313 66 326 50 Q 338 38 353 34 Q 371 30 385 33 Q 467 51 669 51 Q 685 51 690 58 Q 694 68 681 80 Q 632 116 581 102 L 556 97 Z" class="stroke14"/>
    <path d="M 704 417 Q 728 375 713 129 Q 712 126 712 123 Q 708 42 731 8 Q 743 -16 756 -22 Q 768 -23 772 -10 Q 784 23 780 54 Q 764 321 773 388 Q 774 401 768 406 Q 743 427 724 435 Q 711 439 702 431 Q 696 427 704 417 Z" class="stroke15"/>
    
    
    
    
    
    
    
    
    
    
    
    
    
    
    </g>
</svg>