<svg version="1.1" viewBox="0 0 1024 1024" xmlns="http://www.w3.org/2000/svg">
  
  <g transform="scale(1, -1) translate(0, -900)">
    <style type="text/css">
        .stroke1 {fill: #808080;}
        .stroke2 {fill: #808079;}
        .stroke3 {fill: #808078;}
        .stroke4 {fill: #808077;}
        .stroke5 {fill: #808076;}
        .stroke6 {fill: #808075;}
        .stroke7 {fill: #808074;}
        .stroke8 {fill: #808073;}
        .stroke9 {fill: #808072;}
        .stroke10 {fill: #808071;}
        .stroke11 {fill: #808070;}
        .stroke12 {fill: #808069;}
        .stroke13 {fill: #808068;}
        .stroke14 {fill: #808067;}
        .stroke15 {fill: #808066;}
        .stroke16 {fill: #808065;}
        .stroke17 {fill: #808064;}
        .stroke18 {fill: #808063;}
        .stroke19 {fill: #808062;}
        .stroke20 {fill: #808061;}
        text {
            font-family: Helvetica;
            font-size: 50px;
            fill: #808060;
            paint-order: stroke;
            stroke: #000000;
            stroke-width: 4px;
            stroke-linecap: butt;
            stroke-linejoin: miter;
            font-weight: 800;
        }
    </style>

    <path d="M 404 585 Q 408 634 414 681 L 416 704 Q 420 746 430 768 Q 433 778 415 791 Q 384 807 363 812 Q 350 815 342 807 Q 335 800 343 787 Q 364 759 365 574 C 365 544 402 555 404 585 Z" class="stroke1"/>
    <path d="M 414 681 Q 466 675 571 699 Q 578 705 574 711 Q 570 720 547 726 Q 541 727 461 710 Q 439 707 416 704 C 386 700 384 684 414 681 Z" class="stroke2"/>
    <path d="M 289 555 Q 280 630 283 648 Q 284 667 270 677 Q 249 690 225 697 Q 212 700 205 694 Q 199 688 206 676 Q 222 655 252 548 C 260 519 293 525 289 555 Z" class="stroke3"/>
    <path d="M 404 551 Q 461 564 531 575 Q 544 576 546 584 Q 547 594 531 602 Q 507 612 488 607 Q 442 595 404 585 L 365 574 Q 322 564 289 555 L 252 548 Q 116 524 99 521 Q 89 520 86 513 Q 83 504 96 495 Q 132 471 165 484 Q 289 527 372 544 L 404 551 Z" class="stroke4"/>
    <path d="M 240 419 Q 250 438 261 455 Q 267 464 257 472 Q 223 490 211 487 Q 204 486 207 476 Q 216 431 175 365 Q 165 355 160 344 Q 156 334 165 338 Q 193 342 230 401 L 240 419 Z" class="stroke5"/>
    <path d="M 230 401 Q 264 364 280 362 Q 289 361 292 373 Q 293 380 287 392 Q 278 407 240 419 C 211 428 210 423 230 401 Z" class="stroke6"/>
    <path d="M 403 470 Q 406 485 431 522 Q 437 531 426 540 Q 416 547 404 551 C 376 562 364 566 372 544 L 373 543 Q 386 497 331 411 Q 324 401 320 392 Q 316 382 325 386 Q 350 389 395 457 L 403 470 Z" class="stroke7"/>
    <path d="M 395 457 Q 399 451 413 442 Q 432 429 451 410 Q 460 403 469 404 Q 475 405 478 412 Q 479 422 474 439 Q 468 457 409 470 Q 405 471 403 470 C 386 468 386 468 395 457 Z" class="stroke8"/>
    <path d="M 185 311 Q 172 307 189 296 Q 202 289 227 295 Q 345 329 434 351 Q 453 355 445 366 Q 435 376 414 379 Q 395 380 361 369 Q 267 336 185 311 Z" class="stroke9"/>
    <path d="M 239 209 Q 242 221 264 254 Q 268 261 260 269 Q 235 285 219 282 Q 212 281 215 272 Q 225 227 186 169 Q 176 156 172 147 Q 168 138 176 142 Q 195 146 230 193 L 239 209 Z" class="stroke10"/>
    <path d="M 230 193 Q 264 156 280 154 Q 287 153 292 165 Q 293 174 286 186 Q 274 204 239 209 C 211 213 211 213 230 193 Z" class="stroke11"/>
    <path d="M 392 253 Q 396 262 418 293 Q 424 300 415 309 Q 390 327 375 324 Q 368 323 370 314 Q 379 272 339 219 Q 329 207 324 199 Q 320 190 328 193 Q 349 197 384 241 L 392 253 Z" class="stroke12"/>
    <path d="M 384 241 Q 397 223 412 208 Q 422 198 432 198 Q 441 198 444 209 Q 445 216 439 228 Q 432 241 392 253 C 370 260 370 260 384 241 Z" class="stroke13"/>
    <path d="M 470 181 Q 292 147 160 97 Q 138 90 141 116 Q 140 176 138 237 Q 139 261 128 273 Q 112 288 87 297 Q 75 301 65 298 Q 56 292 66 276 Q 100 219 97 158 Q 97 100 77 72 Q 61 53 70 41 Q 82 28 99 18 Q 111 14 127 27 Q 173 76 392 131 Q 440 143 459 140 C 489 140 499 187 470 181 Z" class="stroke14"/>
    <path d="M 459 140 Q 450 119 473 75 Q 480 60 491 71 Q 506 89 523 224 Q 526 278 540 301 Q 547 314 538 327 Q 520 340 492 357 Q 480 364 469 358 Q 462 354 465 343 Q 489 303 470 181 L 459 140 Z" class="stroke15"/>
    <path d="M 653 578 Q 632 596 614 605 Q 604 608 595 604 Q 588 600 590 590 Q 608 548 613 466 Q 612 384 612 143 C 612 113 653 118 653 148 Q 654 221 655 285 L 655 309 Q 656 364 657 413 L 658 440 Q 658 515 661 548 C 663 570 663 570 653 578 Z" class="stroke16"/>
    <path d="M 846 175 Q 847 517 876 554 Q 886 567 875 583 Q 865 593 819 620 Q 804 630 784 619 Q 756 606 714 592 Q 686 585 653 578 C 624 572 632 542 661 548 Q 671 548 683 553 Q 791 586 798 577 Q 805 567 804 540 Q 801 326 796 166 C 795 136 846 145 846 175 Z" class="stroke17"/>
    <path d="M 657 413 Q 714 425 758 431 Q 777 435 769 446 Q 759 458 738 460 Q 704 463 658 440 C 631 427 628 407 657 413 Z" class="stroke18"/>
    <path d="M 655 285 Q 656 285 660 285 Q 721 297 765 303 Q 784 307 777 318 Q 767 330 747 332 Q 711 335 655 309 C 628 297 625 285 655 285 Z" class="stroke19"/>
    <path d="M 612 143 Q 578 140 543 135 Q 525 134 538 118 Q 550 106 565 102 Q 583 98 597 101 Q 702 128 953 127 Q 969 127 974 134 Q 978 144 965 156 Q 914 193 855 177 Q 851 177 846 175 L 796 166 Q 766 163 733 158 Q 694 154 653 148 L 612 143 Z" class="stroke20"/>
    
    
    
    
    
    
    
    
    
    
    
    
    
    
    
    
    
    
    
    </g>
</svg>