<svg version="1.1" viewBox="0 0 1024 1024" xmlns="http://www.w3.org/2000/svg">
  
  <g transform="scale(1, -1) translate(0, -900)">
    <style type="text/css">
        .stroke1 {fill: #808080;}
        .stroke2 {fill: #808079;}
        .stroke3 {fill: #808078;}
        .stroke4 {fill: #808077;}
        .stroke5 {fill: #808076;}
        .stroke6 {fill: #808075;}
        .stroke7 {fill: #808074;}
        .stroke8 {fill: #808073;}
        .stroke9 {fill: #808072;}
        .stroke10 {fill: #808071;}
        .stroke11 {fill: #808070;}
        .stroke12 {fill: #808069;}
        .stroke13 {fill: #808068;}
        .stroke14 {fill: #808067;}
        .stroke15 {fill: #808066;}
        .stroke16 {fill: #808065;}
        .stroke17 {fill: #808064;}
        .stroke18 {fill: #808063;}
        .stroke19 {fill: #808062;}
        .stroke20 {fill: #808061;}
        text {
            font-family: Helvetica;
            font-size: 50px;
            fill: #808060;
            paint-order: stroke;
            stroke: #000000;
            stroke-width: 4px;
            stroke-linecap: butt;
            stroke-linejoin: miter;
            font-weight: 800;
        }
    </style>

    <path d="M 367 587 Q 370 635 374 678 L 376 705 Q 376 721 389 787 Q 392 796 375 808 Q 345 824 324 827 Q 311 830 304 822 Q 298 816 305 803 Q 320 784 321 769 Q 330 681 330 577 C 330 547 365 557 367 587 Z" class="stroke1"/>
    <path d="M 374 678 Q 393 675 458 690 Q 504 705 506 705 Q 512 712 508 719 Q 501 728 477 731 Q 468 731 400 711 L 376 705 C 347 698 344 681 374 678 Z" class="stroke2"/>
    <path d="M 260 559 Q 256 661 252 667 Q 249 671 246 673 Q 225 686 201 693 Q 188 697 181 691 Q 174 685 181 673 Q 194 655 201 636 Q 205 620 222 551 C 229 522 261 529 260 559 Z" class="stroke3"/>
    <path d="M 388 557 Q 439 569 499 578 Q 514 579 514 587 Q 515 599 498 606 Q 473 616 453 611 Q 404 598 367 587 L 330 577 Q 290 568 260 559 L 222 551 Q 107 529 67 523 Q 55 522 53 514 Q 50 505 64 495 Q 94 476 148 488 Q 181 501 216 511 L 244 520 Q 293 538 360 551 L 388 557 Z" class="stroke4"/>
    <path d="M 216 511 Q 217 457 166 399 Q 151 384 145 376 Q 139 366 149 369 Q 173 372 220 425 L 229 438 Q 232 444 266 491 Q 272 498 263 507 Q 254 514 244 520 C 219 536 216 537 216 511 Z" class="stroke5"/>
    <path d="M 220 425 Q 224 419 237 410 Q 250 400 263 386 Q 272 379 281 380 Q 287 381 290 388 Q 291 398 286 415 Q 279 430 233 438 Q 230 439 229 438 C 212 436 212 436 220 425 Z" class="stroke6"/>
    <path d="M 376 477 Q 386 490 396 507 Q 409 537 410 538 Q 407 545 390 556 Q 389 557 388 557 C 362 572 348 578 360 551 Q 364 544 364 534 Q 361 513 316 424 Q 315 417 322 420 Q 331 423 364 461 L 376 477 Z" class="stroke7"/>
    <path d="M 364 461 Q 436 413 438 412 Q 444 413 446 420 Q 447 429 442 444 Q 438 457 416 467 Q 397 474 376 477 C 346 481 339 478 364 461 Z" class="stroke8"/>
    <path d="M 251 315 Q 395 354 400 358 Q 406 364 402 369 Q 398 376 378 380 Q 359 383 340 374 Q 309 361 272 350 Q 233 340 187 332 Q 165 328 181 317 Q 203 308 227 310 L 251 315 Z" class="stroke9"/>
    <path d="M 233 222 Q 243 234 251 245 Q 264 266 278 283 Q 284 290 275 299 Q 265 308 251 315 C 224 329 222 330 227 310 L 228 308 Q 234 259 183 201 Q 171 188 165 180 Q 159 170 169 173 Q 187 176 220 208 L 233 222 Z" class="stroke10"/>
    <path d="M 220 208 Q 262 171 269 170 Q 276 170 280 180 Q 280 187 275 198 Q 266 211 233 222 C 205 232 197 228 220 208 Z" class="stroke11"/>
    <path d="M 372 259 Q 384 283 396 302 Q 400 309 392 317 Q 367 333 351 330 Q 344 329 347 320 Q 356 272 315 208 Q 305 198 300 187 Q 296 178 304 182 Q 329 186 363 241 L 372 259 Z" class="stroke12"/>
    <path d="M 363 241 Q 397 204 412 202 Q 421 201 424 213 Q 425 220 419 232 Q 410 247 372 259 C 343 268 343 263 363 241 Z" class="stroke13"/>
    <path d="M 437 169 Q 281 147 167 109 Q 145 102 149 129 Q 150 187 151 250 Q 152 272 142 285 Q 127 298 104 310 Q 94 314 84 311 Q 74 307 83 289 Q 114 232 110 173 Q 109 115 87 89 Q 71 73 79 59 Q 89 46 106 37 Q 119 30 128 39 Q 155 75 337 119 Q 403 135 427 132 C 457 132 467 173 437 169 Z" class="stroke14"/>
    <path d="M 427 132 Q 427 114 441 79 Q 448 66 460 75 Q 481 94 487 171 Q 503 306 515 325 Q 522 338 513 350 Q 497 365 468 382 Q 456 388 445 383 Q 438 379 441 368 Q 465 323 438 171 Q 437 171 437 169 L 427 132 Z" class="stroke15"/>
    <path d="M 664 617 Q 857 671 865 677 Q 872 684 868 693 Q 861 703 832 709 Q 802 713 774 700 Q 729 681 681 666 Q 626 650 563 641 Q 529 632 554 618 Q 588 603 630 608 L 664 617 Z" class="stroke16"/>
    <path d="M 676 498 Q 677 516 706 570 Q 710 579 697 593 Q 678 609 664 617 C 639 633 620 636 630 608 Q 630 607 631 604 Q 643 576 639 559 Q 635 523 627 485 L 621 452 Q 608 388 591 318 C 584 289 620 296 628 325 Q 647 397 667 463 L 676 498 Z" class="stroke17"/>
    <path d="M 796 359 Q 815 437 841 460 Q 863 487 840 501 Q 821 513 793 531 Q 774 541 754 531 Q 720 510 676 498 L 627 485 Q 590 479 544 473 Q 531 474 533 466 Q 534 459 548 451 Q 564 442 621 452 L 667 463 Q 692 470 718 475 Q 752 482 761 469 Q 770 460 743 347 C 736 318 789 330 796 359 Z" class="stroke18"/>
    <path d="M 591 318 Q 560 314 529 307 Q 513 304 526 291 Q 551 270 591 281 Q 753 332 952 331 Q 968 332 972 340 Q 976 350 962 360 Q 916 393 860 374 Q 832 368 796 359 L 743 347 Q 733 346 726 344 Q 680 335 628 325 L 591 318 Z" class="stroke19"/>
    <path d="M 592 202 Q 582 208 549 212 Q 537 215 535 209 Q 529 203 538 188 Q 566 136 584 49 Q 588 24 604 6 Q 622 -13 626 1 Q 629 11 629 27 L 625 58 Q 609 140 603 171 C 597 200 597 200 592 202 Z" class="stroke20"/>
    <path d="M 814 78 Q 841 159 874 180 Q 890 198 877 215 Q 861 228 811 252 Q 795 259 774 252 Q 726 233 682 221 Q 639 211 592 202 C 563 196 574 164 603 171 L 760 206 Q 778 210 785 203 Q 794 194 790 176 Q 778 127 765 85 C 756 56 804 50 814 78 Z" class="stroke21"/>
    <path d="M 629 27 Q 633 26 644 28 Q 701 40 824 48 Q 834 49 835 57 Q 835 64 814 78 L 765 85 L 764 85 Q 685 67 625 58 C 595 53 599 28 629 27 Z" class="stroke22"/>
    
    
    
    
    
    
    
    
    
    
    
    
    
    
    
    
    
    
    
    
    
    </g>
</svg>