<svg version="1.1" viewBox="0 0 1024 1024" xmlns="http://www.w3.org/2000/svg">
  
  <g transform="scale(1, -1) translate(0, -900)">
    <style type="text/css">
        .stroke1 {fill: #808080;}
        .stroke2 {fill: #808079;}
        .stroke3 {fill: #808078;}
        .stroke4 {fill: #808077;}
        .stroke5 {fill: #808076;}
        .stroke6 {fill: #808075;}
        .stroke7 {fill: #808074;}
        .stroke8 {fill: #808073;}
        .stroke9 {fill: #808072;}
        .stroke10 {fill: #808071;}
        .stroke11 {fill: #808070;}
        .stroke12 {fill: #808069;}
        .stroke13 {fill: #808068;}
        .stroke14 {fill: #808067;}
        .stroke15 {fill: #808066;}
        .stroke16 {fill: #808065;}
        .stroke17 {fill: #808064;}
        .stroke18 {fill: #808063;}
        .stroke19 {fill: #808062;}
        .stroke20 {fill: #808061;}
        text {
            font-family: Helvetica;
            font-size: 50px;
            fill: #808060;
            paint-order: stroke;
            stroke: #000000;
            stroke-width: 4px;
            stroke-linecap: butt;
            stroke-linejoin: miter;
            font-weight: 800;
        }
    </style>

    <path d="M 338 655 Q 466 694 470 696 Q 477 704 474 711 Q 466 721 439 727 Q 410 731 349 705 L 300 688 Q 250 674 194 665 Q 162 659 186 643 Q 228 624 291 643 L 293 643 L 338 655 Z" class="stroke1"/>
    <path d="M 314 559 L 338 655 L 349 705 Q 353 747 382 804 Q 386 812 375 824 Q 359 844 326 857 Q 316 858 309 857 Q 297 853 302 836 Q 309 821 311 812 Q 318 784 300 688 L 293 643 Q 285 598 274 550 C 267 521 307 530 314 559 Z" class="stroke2"/>
    <path d="M 186 529 Q 180 533 167 535 Q 137 541 132 535 Q 129 529 137 514 Q 169 449 188 363 Q 191 334 210 316 Q 220 304 224 304 Q 231 305 233 321 L 231 345 Q 229 368 218 411 L 213 433 Q 203 480 200 499 C 196 525 196 525 186 529 Z" class="stroke3"/>
    <path d="M 361 343 Q 380 314 393 314 Q 400 314 410 326 Q 423 350 456 468 Q 461 490 472 506 L 488 521 Q 494 529 486 541 Q 472 556 435 579 Q 423 585 353 568 Q 347 568 314 559 L 274 550 Q 263 549 254 545 L 186 529 C 157 522 171 490 200 499 Q 262 519 372 542 Q 378 543 384 543 Q 419 544 413 511 Q 382 383 368 370 C 356 350 356 350 361 343 Z" class="stroke4"/>
    <path d="M 218 411 Q 223 411 229 412 L 355 439 Q 376 443 367 455 Q 354 470 331 468 Q 306 466 213 433 C 185 423 188 410 218 411 Z" class="stroke5"/>
    <path d="M 233 321 L 237 321 Q 257 325 276 328 L 314 335 L 361 343 C 391 348 396 359 368 370 Q 361 373 353 374 Q 323 377 231 345 C 203 335 203 320 233 321 Z" class="stroke6"/>
    <path d="M 280 244 Q 161 212 67 196 Q 53 194 53 185 Q 53 175 65 168 Q 82 157 97 155 Q 118 151 163 167 Q 260 201 278 207 L 326 220 Q 386 234 445 246 Q 460 249 460 256 Q 461 269 443 274 Q 414 285 327 257 L 280 244 Z" class="stroke7"/>
    <path d="M 276 328 Q 281 316 280 244 L 278 207 Q 278 106 265 71 Q 254 46 278 1 Q 292 -25 300 -29 Q 310 -31 316 -20 Q 324 2 324 112 Q 324 174 326 220 L 327 257 Q 327 271 329 286 Q 333 310 333 313 Q 332 322 314 335 C 291 354 270 357 276 328 Z" class="stroke8"/>
    
    
    
    
    
    
    
    </g>
</svg>