<svg version="1.1" viewBox="0 0 1024 1024" xmlns="http://www.w3.org/2000/svg">
  
  <g transform="scale(1, -1) translate(0, -900)">
    <style type="text/css">
        .stroke1 {fill: #808080;}
        .stroke2 {fill: #808079;}
        .stroke3 {fill: #808078;}
        .stroke4 {fill: #808077;}
        .stroke5 {fill: #808076;}
        .stroke6 {fill: #808075;}
        .stroke7 {fill: #808074;}
        .stroke8 {fill: #808073;}
        .stroke9 {fill: #808072;}
        .stroke10 {fill: #808071;}
        .stroke11 {fill: #808070;}
        .stroke12 {fill: #808069;}
        .stroke13 {fill: #808068;}
        .stroke14 {fill: #808067;}
        .stroke15 {fill: #808066;}
        .stroke16 {fill: #808065;}
        .stroke17 {fill: #808064;}
        .stroke18 {fill: #808063;}
        .stroke19 {fill: #808062;}
        .stroke20 {fill: #808061;}
        text {
            font-family: Helvetica;
            font-size: 50px;
            fill: #808060;
            paint-order: stroke;
            stroke: #000000;
            stroke-width: 4px;
            stroke-linecap: butt;
            stroke-linejoin: miter;
            font-weight: 800;
        }
    </style>

    <path d="M 441 666 Q 490 726 523 749 Q 525 750 526 751 Q 547 768 509 808 Q 486 830 469 833 Q 451 834 456 811 Q 461 792 441 757 Q 396 672 248 545 Q 232 535 232 528 Q 233 521 242 521 Q 288 521 423 651 L 441 666 Z" class="stroke1"/>
    <path d="M 527 467 L 604 554 Q 653 615 705 653 Q 723 664 710 678 Q 696 692 655 714 Q 647 717 596 703 Q 454 668 441 666 C 412 660 408 659 423 651 Q 427 647 433 645 Q 457 637 541 651 Q 596 661 600 657 Q 604 653 598 639 Q 568 583 496 462 Q 521 466 527 467 Z" class="stroke2"/>
    
    </g>
</svg>