<svg version="1.1" viewBox="0 0 1024 1024" xmlns="http://www.w3.org/2000/svg">
  
  <g transform="scale(1, -1) translate(0, -900)">
    <style type="text/css">
        .stroke1 {fill: #808080;}
        .stroke2 {fill: #808079;}
        .stroke3 {fill: #808078;}
        .stroke4 {fill: #808077;}
        .stroke5 {fill: #808076;}
        .stroke6 {fill: #808075;}
        .stroke7 {fill: #808074;}
        .stroke8 {fill: #808073;}
        .stroke9 {fill: #808072;}
        .stroke10 {fill: #808071;}
        .stroke11 {fill: #808070;}
        .stroke12 {fill: #808069;}
        .stroke13 {fill: #808068;}
        .stroke14 {fill: #808067;}
        .stroke15 {fill: #808066;}
        .stroke16 {fill: #808065;}
        .stroke17 {fill: #808064;}
        .stroke18 {fill: #808063;}
        .stroke19 {fill: #808062;}
        .stroke20 {fill: #808061;}
        text {
            font-family: Helvetica;
            font-size: 50px;
            fill: #808060;
            paint-order: stroke;
            stroke: #000000;
            stroke-width: 4px;
            stroke-linecap: butt;
            stroke-linejoin: miter;
            font-weight: 800;
        }
    </style>

    <path d="M 598 431 Q 624 673 645 752 Q 650 765 623 782 Q 596 800 566 808 Q 548 811 540 803 Q 538 802 537 800 Q 532 793 543 774 Q 559 745 561 727 Q 563 588 552 421 Q 553 421 555 422 L 598 431 Z" class="stroke1"/>
    <path d="M 394 602 Q 395 592 406 576 Q 438 530 456 501 Q 461 492 468 486 Q 486 472 503 490 Q 510 504 509 538 Q 508 557 482 578 L 424 612 Q 409 618 402 617 Q 395 613 394 602 Z" class="stroke2"/>
    <path d="M 762 649 Q 725 594 649 514 Q 643 504 649 497 Q 659 496 666 500 Q 788 591 845 623 Q 864 629 860 641 Q 855 657 843 670 Q 817 701 786 704 Q 784 704 781 704 Q 772 701 770 684 Q 768 658 762 649 Z" class="stroke3"/>
    
    
    </g>
</svg>