<svg version="1.1" viewBox="0 0 1024 1024" xmlns="http://www.w3.org/2000/svg">
  
  <g transform="scale(1, -1) translate(0, -900)">
    <style type="text/css">
        .stroke1 {fill: #808080;}
        .stroke2 {fill: #808079;}
        .stroke3 {fill: #808078;}
        .stroke4 {fill: #808077;}
        .stroke5 {fill: #808076;}
        .stroke6 {fill: #808075;}
        .stroke7 {fill: #808074;}
        .stroke8 {fill: #808073;}
        .stroke9 {fill: #808072;}
        .stroke10 {fill: #808071;}
        .stroke11 {fill: #808070;}
        .stroke12 {fill: #808069;}
        .stroke13 {fill: #808068;}
        .stroke14 {fill: #808067;}
        .stroke15 {fill: #808066;}
        .stroke16 {fill: #808065;}
        .stroke17 {fill: #808064;}
        .stroke18 {fill: #808063;}
        .stroke19 {fill: #808062;}
        .stroke20 {fill: #808061;}
        text {
            font-family: Helvetica;
            font-size: 50px;
            fill: #808060;
            paint-order: stroke;
            stroke: #000000;
            stroke-width: 4px;
            stroke-linecap: butt;
            stroke-linejoin: miter;
            font-weight: 800;
        }
    </style>

    <path d="M 463 291 Q 469 90 450 74 Q 444 70 361 87 Q 349 90 350 82 Q 351 76 361 69 Q 434 8 458 -27 Q 471 -43 486 -30 Q 520 1 519 70 Q 513 125 512 270 Q 513 304 524 329 Q 533 347 517 359 Q 492 380 464 390 Q 446 396 439 389 Q 433 382 443 368 Q 465 331 463 291 Z" class="stroke1"/>
    <path d="M 319 255 Q 291 204 253 161 Q 232 137 242 101 Q 246 85 268 93 Q 320 121 336 199 Q 343 227 341 252 Q 337 259 332 262 Q 325 261 319 255 Z" class="stroke2"/>
    <path d="M 559 192 Q 583 156 607 115 Q 614 102 626 99 Q 633 98 640 105 Q 647 115 648 139 Q 649 161 624 186 Q 566 237 551 234 Q 547 233 545 223 Q 545 213 559 192 Z" class="stroke3"/>
    <path d="M 639 246 Q 684 194 735 118 Q 747 99 760 92 Q 767 91 776 98 Q 789 108 783 150 Q 779 202 644 274 Q 637 280 633 269 Q 632 256 639 246 Z" class="stroke4"/>
    
    
    
    </g>
</svg>