<svg version="1.1" viewBox="0 0 1024 1024" xmlns="http://www.w3.org/2000/svg">
  
  <g transform="scale(1, -1) translate(0, -900)">
    <style type="text/css">
        .stroke1 {fill: #808080;}
        .stroke2 {fill: #808079;}
        .stroke3 {fill: #808078;}
        .stroke4 {fill: #808077;}
        .stroke5 {fill: #808076;}
        .stroke6 {fill: #808075;}
        .stroke7 {fill: #808074;}
        .stroke8 {fill: #808073;}
        .stroke9 {fill: #808072;}
        .stroke10 {fill: #808071;}
        .stroke11 {fill: #808070;}
        .stroke12 {fill: #808069;}
        .stroke13 {fill: #808068;}
        .stroke14 {fill: #808067;}
        .stroke15 {fill: #808066;}
        .stroke16 {fill: #808065;}
        .stroke17 {fill: #808064;}
        .stroke18 {fill: #808063;}
        .stroke19 {fill: #808062;}
        .stroke20 {fill: #808061;}
        text {
            font-family: Helvetica;
            font-size: 50px;
            fill: #808060;
            paint-order: stroke;
            stroke: #000000;
            stroke-width: 4px;
            stroke-linecap: butt;
            stroke-linejoin: miter;
            font-weight: 800;
        }
    </style>

    <path d="M 249 651 Q 277 675 354 752 Q 369 770 390 783 Q 408 796 395 810 Q 380 823 354 833 Q 329 842 318 838 Q 306 834 313 822 Q 320 800 239 663 Q 238 662 236 658 C 221 632 226 631 249 651 Z" class="stroke1"/>
    <path d="M 225 313 Q 238 376 244 408 L 247 431 Q 251 473 253 513 L 255 540 Q 258 604 261 613 C 265 640 265 640 257 645 Q 253 649 249 651 L 236 658 Q 199 676 187 670 Q 177 663 183 651 Q 202 627 203 562 Q 203 394 173 283 Q 146 199 81 77 Q 77 70 75 65 Q 74 55 83 57 Q 114 64 178 181 Q 187 202 198 226 Q 208 256 218 288 L 225 313 Z" class="stroke2"/>
    <path d="M 376 431 Q 391 409 405 402 Q 415 395 428 414 Q 441 439 470 580 Q 477 608 497 630 Q 507 640 497 653 Q 484 668 446 689 Q 437 692 285 655 Q 270 651 257 645 C 229 634 235 599 261 613 Q 271 625 391 649 Q 409 653 415 647 Q 428 632 425 616 Q 400 469 383 456 C 371 437 371 437 376 431 Z" class="stroke3"/>
    <path d="M 253 513 Q 313 526 358 535 Q 377 539 369 550 Q 359 560 338 563 Q 311 566 255 540 C 228 527 224 507 253 513 Z" class="stroke4"/>
    <path d="M 244 408 Q 248 408 256 409 Q 322 422 376 431 C 406 436 411 445 383 456 Q 377 459 369 460 Q 348 461 247 431 C 218 422 214 407 244 408 Z" class="stroke5"/>
    <path d="M 218 288 Q 219 288 220 288 Q 238 276 266 285 Q 368 319 373 309 Q 382 296 376 260 Q 363 164 339 122 Q 323 97 301 101 Q 277 110 257 120 Q 236 129 250 107 Q 287 65 305 34 Q 321 15 339 30 Q 390 67 415 184 Q 430 289 447 308 Q 457 318 452 328 Q 445 338 399 357 Q 386 363 342 343 Q 284 328 225 313 C 196 306 190 298 218 288 Z" class="stroke6"/>
    
    
    
    
    
    </g>
</svg>