<svg version="1.1" viewBox="0 0 1024 1024" xmlns="http://www.w3.org/2000/svg">
  
  <g transform="scale(1, -1) translate(0, -900)">
    <style type="text/css">
        .stroke1 {fill: #808080;}
        .stroke2 {fill: #808079;}
        .stroke3 {fill: #808078;}
        .stroke4 {fill: #808077;}
        .stroke5 {fill: #808076;}
        .stroke6 {fill: #808075;}
        .stroke7 {fill: #808074;}
        .stroke8 {fill: #808073;}
        .stroke9 {fill: #808072;}
        .stroke10 {fill: #808071;}
        .stroke11 {fill: #808070;}
        .stroke12 {fill: #808069;}
        .stroke13 {fill: #808068;}
        .stroke14 {fill: #808067;}
        .stroke15 {fill: #808066;}
        .stroke16 {fill: #808065;}
        .stroke17 {fill: #808064;}
        .stroke18 {fill: #808063;}
        .stroke19 {fill: #808062;}
        .stroke20 {fill: #808061;}
        text {
            font-family: Helvetica;
            font-size: 50px;
            fill: #808060;
            paint-order: stroke;
            stroke: #000000;
            stroke-width: 4px;
            stroke-linecap: butt;
            stroke-linejoin: miter;
            font-weight: 800;
        }
    </style>

    <path d="M 621 733 Q 636 760 651 780 Q 658 786 656 796 Q 653 806 640 817 Q 604 847 571 837 Q 562 834 566 822 Q 585 747 480 606 Q 477 605 476 601 Q 446 561 368 480 Q 361 474 371 472 Q 420 481 519 583 Q 567 644 610 713 L 621 733 Z" class="stroke1"/>
    <path d="M 610 713 Q 766 526 814 514 Q 917 514 963 522 Q 966 523 972 524 Q 990 525 992 531 Q 993 538 979 543 Q 936 559 883 574 Q 769 611 621 733 C 598 752 591 736 610 713 Z" class="stroke2"/>
    <path d="M 570 558 Q 577 483 488 385 Q 479 385 450 348 Q 440 333 456 337 Q 471 338 492 352 Q 559 394 600 451 Q 625 485 648 513 Q 658 525 646 541 Q 606 577 580 575 Q 570 574 570 558 Z" class="stroke3"/>
    <path d="M 635 430 Q 635 340 510 232 Q 506 231 458 191 Q 449 178 463 180 Q 529 186 628 293 Q 637 309 704 383 Q 714 393 703 409 Q 670 445 645 445 Q 635 444 635 430 Z" class="stroke4"/>
    <path d="M 695 303 Q 691 162 509 8 Q 472 -10 423 -59 Q 411 -75 429 -72 Q 457 -71 495 -46 Q 618 30 691 134 Q 737 197 780 246 Q 793 259 779 277 Q 734 322 707 320 Q 694 319 695 303 Z" class="stroke5"/>
    
    
    
    
    </g>
</svg>