<svg version="1.1" viewBox="0 0 1024 1024" xmlns="http://www.w3.org/2000/svg">
  
  <g transform="scale(1, -1) translate(0, -900)">
    <style type="text/css">
        .stroke1 {fill: #808080;}
        .stroke2 {fill: #808079;}
        .stroke3 {fill: #808078;}
        .stroke4 {fill: #808077;}
        .stroke5 {fill: #808076;}
        .stroke6 {fill: #808075;}
        .stroke7 {fill: #808074;}
        .stroke8 {fill: #808073;}
        .stroke9 {fill: #808072;}
        .stroke10 {fill: #808071;}
        .stroke11 {fill: #808070;}
        .stroke12 {fill: #808069;}
        .stroke13 {fill: #808068;}
        .stroke14 {fill: #808067;}
        .stroke15 {fill: #808066;}
        .stroke16 {fill: #808065;}
        .stroke17 {fill: #808064;}
        .stroke18 {fill: #808063;}
        .stroke19 {fill: #808062;}
        .stroke20 {fill: #808061;}
        text {
            font-family: Helvetica;
            font-size: 50px;
            fill: #808060;
            paint-order: stroke;
            stroke: #000000;
            stroke-width: 4px;
            stroke-linecap: butt;
            stroke-linejoin: miter;
            font-weight: 800;
        }
    </style>

    <path d="M 433 375 Q 649 436 864 443 Q 889 443 895 453 Q 901 469 887 480 Q 812 531 750 510 Q 698 494 450 429 Q 441 428 434 424 L 387 414 Q 314 398 270 386 Q 204 367 103 353 Q 88 352 88 339 Q 89 326 111 313 Q 130 303 166 293 Q 179 290 196 301 Q 253 328 386 363 L 433 375 Z" class="stroke1"/>
    <path d="M 386 363 Q 386 159 409 117 Q 445 69 575 64 Q 719 58 792 93 Q 805 102 804 113 Q 800 132 779 142 Q 749 157 729 154 Q 716 154 707 147 Q 680 125 543 118 Q 473 118 450 150 Q 426 189 433 375 L 434 424 Q 437 644 465 686 Q 481 714 452 734 Q 416 759 394 765 Q 363 772 354 758 Q 347 748 357 739 Q 391 705 388 630 Q 391 551 387 414 L 386 363 Z" class="stroke2"/>
    
    </g>
</svg>