<svg version="1.1" viewBox="0 0 1024 1024" xmlns="http://www.w3.org/2000/svg">
  
  <g transform="scale(1, -1) translate(0, -900)">
    <style type="text/css">
        .stroke1 {fill: #808080;}
        .stroke2 {fill: #808079;}
        .stroke3 {fill: #808078;}
        .stroke4 {fill: #808077;}
        .stroke5 {fill: #808076;}
        .stroke6 {fill: #808075;}
        .stroke7 {fill: #808074;}
        .stroke8 {fill: #808073;}
        .stroke9 {fill: #808072;}
        .stroke10 {fill: #808071;}
        .stroke11 {fill: #808070;}
        .stroke12 {fill: #808069;}
        .stroke13 {fill: #808068;}
        .stroke14 {fill: #808067;}
        .stroke15 {fill: #808066;}
        .stroke16 {fill: #808065;}
        .stroke17 {fill: #808064;}
        .stroke18 {fill: #808063;}
        .stroke19 {fill: #808062;}
        .stroke20 {fill: #808061;}
        text {
            font-family: Helvetica;
            font-size: 50px;
            fill: #808060;
            paint-order: stroke;
            stroke: #000000;
            stroke-width: 4px;
            stroke-linecap: butt;
            stroke-linejoin: miter;
            font-weight: 800;
        }
    </style>

    <path d="M 520 688 Q 758 710 827 705 Q 920 702 927 705 Q 927 706 929 707 Q 936 722 923 735 Q 848 801 781 778 Q 673 757 477 733 Q 173 697 130 695 Q 123 696 116 695 Q 101 695 100 683 Q 99 670 120 654 Q 138 641 172 629 Q 184 625 203 633 Q 219 640 294 653 Q 376 674 478 684 L 520 688 Z" class="stroke1"/>
    <path d="M 544 524 Q 544 642 547 654 Q 551 667 541 675 Q 534 682 520 688 C 494 703 470 713 478 684 Q 499 648 485 268 Q 473 39 480 22 Q 486 6 498 -8 Q 511 -24 523 -5 Q 553 53 546 104 Q 540 161 544 492 L 544 524 Z" class="stroke2"/>
    <path d="M 544 492 Q 620 446 712 378 Q 733 360 749 359 Q 759 359 765 371 Q 775 387 753 430 Q 723 493 544 524 C 514 529 518 508 544 492 Z" class="stroke3"/>
    
    
    </g>
</svg>