<svg version="1.1" viewBox="0 0 1024 1024" xmlns="http://www.w3.org/2000/svg">
  
  <g transform="scale(1, -1) translate(0, -900)">
    <style type="text/css">
        .stroke1 {fill: #808080;}
        .stroke2 {fill: #808079;}
        .stroke3 {fill: #808078;}
        .stroke4 {fill: #808077;}
        .stroke5 {fill: #808076;}
        .stroke6 {fill: #808075;}
        .stroke7 {fill: #808074;}
        .stroke8 {fill: #808073;}
        .stroke9 {fill: #808072;}
        .stroke10 {fill: #808071;}
        .stroke11 {fill: #808070;}
        .stroke12 {fill: #808069;}
        .stroke13 {fill: #808068;}
        .stroke14 {fill: #808067;}
        .stroke15 {fill: #808066;}
        .stroke16 {fill: #808065;}
        .stroke17 {fill: #808064;}
        .stroke18 {fill: #808063;}
        .stroke19 {fill: #808062;}
        .stroke20 {fill: #808061;}
        text {
            font-family: Helvetica;
            font-size: 50px;
            fill: #808060;
            paint-order: stroke;
            stroke: #000000;
            stroke-width: 4px;
            stroke-linecap: butt;
            stroke-linejoin: miter;
            font-weight: 800;
        }
    </style>

    <path d="M 326 667 Q 283 663 312 640 Q 369 610 428 623 Q 543 641 665 661 Q 720 671 729 678 Q 739 688 735 698 Q 728 711 693 722 Q 660 731 561 701 Q 420 673 326 667 Z" class="stroke1"/>
    <path d="M 329 421 Q 304 417 332 392 Q 348 379 385 383 Q 557 405 685 416 Q 721 420 709 440 Q 694 462 657 472 Q 621 479 558 466 Q 435 441 329 421 Z" class="stroke2"/>
    <path d="M 130 165 Q 102 162 122 139 Q 140 120 163 113 Q 191 104 212 110 Q 515 179 929 157 Q 930 158 933 157 Q 960 156 967 167 Q 974 183 953 201 Q 884 255 835 246 Q 643 210 130 165 Z" class="stroke3"/>
    
    
    </g>
</svg>