<svg version="1.1" viewBox="0 0 1024 1024" xmlns="http://www.w3.org/2000/svg">
  
  <g transform="scale(1, -1) translate(0, -900)">
    <style type="text/css">
        .stroke1 {fill: #808080;}
        .stroke2 {fill: #808079;}
        .stroke3 {fill: #808078;}
        .stroke4 {fill: #808077;}
        .stroke5 {fill: #808076;}
        .stroke6 {fill: #808075;}
        .stroke7 {fill: #808074;}
        .stroke8 {fill: #808073;}
        .stroke9 {fill: #808072;}
        .stroke10 {fill: #808071;}
        .stroke11 {fill: #808070;}
        .stroke12 {fill: #808069;}
        .stroke13 {fill: #808068;}
        .stroke14 {fill: #808067;}
        .stroke15 {fill: #808066;}
        .stroke16 {fill: #808065;}
        .stroke17 {fill: #808064;}
        .stroke18 {fill: #808063;}
        .stroke19 {fill: #808062;}
        .stroke20 {fill: #808061;}
        text {
            font-family: Helvetica;
            font-size: 50px;
            fill: #808060;
            paint-order: stroke;
            stroke: #000000;
            stroke-width: 4px;
            stroke-linecap: butt;
            stroke-linejoin: miter;
            font-weight: 800;
        }
    </style>

    <path d="M 670 645 Q 763 655 907 643 Q 932 640 938 649 Q 947 662 934 675 Q 903 703 857 724 Q 842 731 815 722 Q 752 707 555 683 Q 444 674 315 654 Q 248 644 145 642 Q 130 642 129 630 Q 129 617 148 602 Q 187 572 237 584 Q 294 600 344 606 L 396 616 Q 481 631 616 640 L 670 645 Z" class="stroke1"/>
    <path d="M 344 606 Q 371 558 360 393 Q 359 387 359 379 Q 344 204 204 76 Q 189 63 186 56 Q 185 49 196 50 Q 235 50 305 123 Q 383 207 403 338 Q 419 420 424 544 Q 428 565 429 576 Q 436 597 415 607 Q 405 613 396 616 C 369 629 332 634 344 606 Z" class="stroke2"/>
    <path d="M 616 640 Q 646 579 628 257 Q 621 146 614 119 Q 596 65 660 1 Q 661 0 664 -3 Q 677 -4 682 11 Q 695 47 691 80 Q 672 512 687 616 Q 687 626 670 645 C 652 669 606 668 616 640 Z" class="stroke3"/>
    
    
    </g>
</svg>