<svg version="1.1" viewBox="0 0 1024 1024" xmlns="http://www.w3.org/2000/svg">
  
  <g transform="scale(1, -1) translate(0, -900)">
    <style type="text/css">
        .stroke1 {fill: #808080;}
        .stroke2 {fill: #808079;}
        .stroke3 {fill: #808078;}
        .stroke4 {fill: #808077;}
        .stroke5 {fill: #808076;}
        .stroke6 {fill: #808075;}
        .stroke7 {fill: #808074;}
        .stroke8 {fill: #808073;}
        .stroke9 {fill: #808072;}
        .stroke10 {fill: #808071;}
        .stroke11 {fill: #808070;}
        .stroke12 {fill: #808069;}
        .stroke13 {fill: #808068;}
        .stroke14 {fill: #808067;}
        .stroke15 {fill: #808066;}
        .stroke16 {fill: #808065;}
        .stroke17 {fill: #808064;}
        .stroke18 {fill: #808063;}
        .stroke19 {fill: #808062;}
        .stroke20 {fill: #808061;}
        text {
            font-family: Helvetica;
            font-size: 50px;
            fill: #808060;
            paint-order: stroke;
            stroke: #000000;
            stroke-width: 4px;
            stroke-linecap: butt;
            stroke-linejoin: miter;
            font-weight: 800;
        }
    </style>

    <path d="M 429 100 Q 420 511 436 595 Q 440 622 425 637 Q 400 659 368 670 Q 352 677 341 670 Q 332 663 339 646 Q 370 573 380 496 Q 386 417 383 96 C 383 66 430 70 429 100 Z" class="stroke1"/>
    <path d="M 603 112 Q 615 346 622 559 Q 628 611 633 647 Q 642 678 647 701 Q 651 713 628 730 Q 589 751 563 755 Q 545 759 536 749 Q 527 742 537 725 Q 571 670 571 634 Q 578 390 558 108 C 556 78 601 82 603 112 Z" class="stroke2"/>
    <path d="M 210 369 Q 241 336 273 297 Q 286 281 302 280 Q 314 280 321 293 Q 328 308 322 340 Q 315 379 211 419 Q 195 425 188 423 Q 182 419 182 406 Q 185 394 210 369 Z" class="stroke3"/>
    <path d="M 769 478 Q 735 423 667 336 Q 660 327 667 319 Q 677 318 686 323 Q 804 419 862 455 Q 884 462 879 476 Q 870 495 846 518 Q 821 540 792 541 Q 773 540 776 515 Q 780 499 769 478 Z" class="stroke4"/>
    <path d="M 517 57 Q 569 58 620 62 Q 752 72 894 52 Q 919 48 926 57 Q 935 72 922 85 Q 846 161 792 135 Q 750 129 603 112 L 558 108 Q 515 107 486 103 Q 455 102 429 100 L 383 96 Q 334 95 303 90 Q 236 81 134 84 Q 119 85 117 72 Q 116 59 136 43 Q 184 7 220 19 Q 278 34 407 48 Q 458 54 517 57 Z" class="stroke5"/>
    
    
    
    
    </g>
</svg>