<svg version="1.1" viewBox="0 0 1024 1024" xmlns="http://www.w3.org/2000/svg">
  
  <g transform="scale(1, -1) translate(0, -900)">
    <style type="text/css">
        .stroke1 {fill: #808080;}
        .stroke2 {fill: #808079;}
        .stroke3 {fill: #808078;}
        .stroke4 {fill: #808077;}
        .stroke5 {fill: #808076;}
        .stroke6 {fill: #808075;}
        .stroke7 {fill: #808074;}
        .stroke8 {fill: #808073;}
        .stroke9 {fill: #808072;}
        .stroke10 {fill: #808071;}
        .stroke11 {fill: #808070;}
        .stroke12 {fill: #808069;}
        .stroke13 {fill: #808068;}
        .stroke14 {fill: #808067;}
        .stroke15 {fill: #808066;}
        .stroke16 {fill: #808065;}
        .stroke17 {fill: #808064;}
        .stroke18 {fill: #808063;}
        .stroke19 {fill: #808062;}
        .stroke20 {fill: #808061;}
        text {
            font-family: Helvetica;
            font-size: 50px;
            fill: #808060;
            paint-order: stroke;
            stroke: #000000;
            stroke-width: 4px;
            stroke-linecap: butt;
            stroke-linejoin: miter;
            font-weight: 800;
        }
    </style>

    <path d="M 593 743 Q 615 749 748 759 Q 758 758 768 770 Q 769 782 747 793 Q 717 817 645 796 Q 503 769 316 750 Q 307 750 301 748 Q 273 747 294 728 Q 321 701 354 706 Q 382 712 415 716 L 457 723 Q 500 730 550 737 L 593 743 Z" class="stroke1"/>
    <path d="M 415 716 Q 424 688 427 617 Q 427 568 428 478 C 428 448 467 453 468 483 Q 472 585 477 661 Q 481 704 462 720 Q 459 721 457 723 C 432 740 407 745 415 716 Z" class="stroke2"/>
    <path d="M 598 504 L 613 723 Q 603 735 593 743 C 570 763 542 766 550 737 Q 559 710 559 635 Q 558 586 557 496 C 557 466 596 474 598 504 Z" class="stroke3"/>
    <path d="M 281 589 Q 299 570 318 544 Q 330 531 344 529 Q 354 529 361 541 Q 367 554 362 584 Q 356 608 281 636 Q 266 640 260 639 Q 256 636 255 623 Q 256 613 281 589 Z" class="stroke4"/>
    <path d="M 709 665 Q 690 634 651 585 Q 645 578 651 571 Q 658 570 666 574 Q 744 625 781 644 Q 799 648 795 660 Q 789 676 770 694 Q 751 712 729 714 Q 714 713 715 694 Q 718 681 709 665 Z" class="stroke5"/>
    <path d="M 305 419 Q 315 418 332 421 Q 558 460 797 480 Q 809 479 819 491 Q 820 504 797 516 Q 755 540 687 523 Q 642 516 598 504 L 557 496 Q 511 489 468 483 L 428 478 Q 385 478 297 468 C 267 465 275 418 305 419 Z" class="stroke6"/>
    <path d="M 297 468 Q 281 478 269 481 Q 245 491 228 482 Q 215 476 224 463 Q 260 414 240 253 Q 239 249 238 243 Q 208 113 81 -1 Q 71 -11 82 -13 Q 136 -7 208 76 Q 283 160 297 309 Q 291 330 305 419 C 309 449 311 460 297 468 Z" class="stroke7"/>
    
    
    
    
    
    
    </g>
</svg>