<svg version="1.1" viewBox="0 0 1024 1024" xmlns="http://www.w3.org/2000/svg">
  
  <g transform="scale(1, -1) translate(0, -900)">
    <style type="text/css">
        .stroke1 {fill: #808080;}
        .stroke2 {fill: #808079;}
        .stroke3 {fill: #808078;}
        .stroke4 {fill: #808077;}
        .stroke5 {fill: #808076;}
        .stroke6 {fill: #808075;}
        .stroke7 {fill: #808074;}
        .stroke8 {fill: #808073;}
        .stroke9 {fill: #808072;}
        .stroke10 {fill: #808071;}
        .stroke11 {fill: #808070;}
        .stroke12 {fill: #808069;}
        .stroke13 {fill: #808068;}
        .stroke14 {fill: #808067;}
        .stroke15 {fill: #808066;}
        .stroke16 {fill: #808065;}
        .stroke17 {fill: #808064;}
        .stroke18 {fill: #808063;}
        .stroke19 {fill: #808062;}
        .stroke20 {fill: #808061;}
        text {
            font-family: Helvetica;
            font-size: 50px;
            fill: #808060;
            paint-order: stroke;
            stroke: #000000;
            stroke-width: 4px;
            stroke-linecap: butt;
            stroke-linejoin: miter;
            font-weight: 800;
        }
    </style>

    <path d="M 124 547 Q 151 483 129 316 Q 120 285 150 245 Q 160 233 171 246 Q 195 279 193 323 Q 189 420 203 513 Q 210 538 189 550 Q 171 562 153 572 Q 140 576 129 571 Q 120 564 124 547 Z" class="stroke1"/>
    <path d="M 287 109 Q 275 67 302 3 Q 309 -16 317 -19 Q 324 -26 332 -17 Q 339 -13 350 9 Q 360 34 360 68 Q 359 117 365 566 Q 366 659 384 721 Q 393 737 390 751 Q 383 761 325 797 Q 300 815 279 798 Q 273 794 280 777 Q 311 729 313 665 Q 313 236 298 155 Q 292 133 287 109 Z" class="stroke2"/>
    <path d="M 582 582 Q 664 756 665 761 Q 664 765 662 770 Q 655 783 622 802 Q 591 817 570 814 Q 551 808 563 786 Q 579 761 573 736 Q 542 591 434 406 Q 425 393 424 386 Q 423 374 437 379 Q 474 397 566 554 Q 566 555 568 557 L 582 582 Z" class="stroke3"/>
    <path d="M 568 557 Q 620 532 682 549 Q 865 594 872 600 Q 882 610 876 619 Q 867 632 834 638 Q 804 644 707 609 Q 620 588 582 582 C 552 577 541 569 568 557 Z" class="stroke4"/>
    <path d="M 619 461 Q 650 434 684 401 Q 696 388 710 389 Q 720 389 725 401 Q 729 414 722 441 Q 718 463 685 480 Q 610 510 596 507 Q 592 503 592 492 Q 595 482 619 461 Z" class="stroke5"/>
    <path d="M 496 320 Q 483 326 459 330 Q 446 334 441 328 Q 434 321 443 304 Q 476 225 492 98 Q 493 59 515 33 Q 534 8 540 26 Q 544 36 545 51 L 544 90 Q 519 267 518 286 C 516 313 516 313 496 320 Z" class="stroke6"/>
    <path d="M 805 115 Q 833 256 881 299 Q 900 318 883 338 Q 865 353 809 379 Q 790 388 766 378 Q 664 339 496 320 C 466 316 489 280 518 286 Q 528 287 541 291 Q 578 298 618 304 L 659 311 Q 762 335 777 321 Q 790 308 787 280 Q 772 192 752 122 C 744 93 799 86 805 115 Z" class="stroke7"/>
    <path d="M 668 106 Q 672 191 676 255 Q 680 294 659 311 C 637 332 610 333 618 304 Q 624 298 629 100 C 630 70 667 76 668 106 Z" class="stroke8"/>
    <path d="M 545 51 Q 552 51 561 52 Q 643 67 820 74 Q 833 75 835 85 Q 835 94 805 115 L 752 122 Q 751 123 749 122 Q 707 115 668 106 L 629 100 Q 583 96 544 90 C 514 86 515 50 545 51 Z" class="stroke9"/>
    
    
    
    
    
    
    
    
    </g>
</svg>