<svg version="1.1" viewBox="0 0 1024 1024" xmlns="http://www.w3.org/2000/svg">
  
  <g transform="scale(1, -1) translate(0, -900)">
    <style type="text/css">
        .stroke1 {fill: #808080;}
        .stroke2 {fill: #808079;}
        .stroke3 {fill: #808078;}
        .stroke4 {fill: #808077;}
        .stroke5 {fill: #808076;}
        .stroke6 {fill: #808075;}
        .stroke7 {fill: #808074;}
        .stroke8 {fill: #808073;}
        .stroke9 {fill: #808072;}
        .stroke10 {fill: #808071;}
        .stroke11 {fill: #808070;}
        .stroke12 {fill: #808069;}
        .stroke13 {fill: #808068;}
        .stroke14 {fill: #808067;}
        .stroke15 {fill: #808066;}
        .stroke16 {fill: #808065;}
        .stroke17 {fill: #808064;}
        .stroke18 {fill: #808063;}
        .stroke19 {fill: #808062;}
        .stroke20 {fill: #808061;}
        text {
            font-family: Helvetica;
            font-size: 50px;
            fill: #808060;
            paint-order: stroke;
            stroke: #000000;
            stroke-width: 4px;
            stroke-linecap: butt;
            stroke-linejoin: miter;
            font-weight: 800;
        }
    </style>

    <path d="M 507 773 Q 444 712 249 618 Q 243 608 250 604 Q 280 604 471 680 Q 579 731 626 743 Q 645 744 649 753 Q 653 766 639 778 Q 570 823 531 819 Q 522 815 522 802 Q 523 786 507 773 Z" class="stroke1"/>
    <path d="M 444 591 Q 471 569 499 542 Q 514 529 529 530 Q 539 531 545 544 Q 549 560 539 589 Q 533 608 502 622 Q 432 646 416 639 Q 412 635 413 622 Q 417 612 444 591 Z" class="stroke2"/>
    <path d="M 314 218 Q 434 269 641 411 Q 675 439 752 465 Q 779 472 766 492 Q 754 516 699 549 Q 683 556 666 546 Q 591 494 255 450 Q 231 450 217 450 Q 199 451 196 436 Q 195 423 228 396 Q 259 372 289 389 Q 341 417 583 469 Q 599 473 605 466 Q 609 462 597 452 Q 408 310 255 222 Q 252 221 251 219 C 225 203 287 206 314 218 Z" class="stroke3"/>
    <path d="M 251 219 Q 226 218 199 205 Q 165 195 118 195 Q 96 196 98 183 Q 99 168 130 151 Q 152 136 183 149 Q 255 197 353 170 Q 435 157 651 48 Q 667 41 676 34 Q 742 1 773 3 Q 782 4 792 7 Q 966 71 973 98 Q 974 107 950 104 Q 800 95 734 104 Q 583 134 464 179 Q 379 207 314 218 L 251 219 Z" class="stroke4"/>
    
    
    
    </g>
</svg>