<svg version="1.1" viewBox="0 0 1024 1024" xmlns="http://www.w3.org/2000/svg">
  
  <g transform="scale(1, -1) translate(0, -900)">
    <style type="text/css">
        .stroke1 {fill: #808080;}
        .stroke2 {fill: #808079;}
        .stroke3 {fill: #808078;}
        .stroke4 {fill: #808077;}
        .stroke5 {fill: #808076;}
        .stroke6 {fill: #808075;}
        .stroke7 {fill: #808074;}
        .stroke8 {fill: #808073;}
        .stroke9 {fill: #808072;}
        .stroke10 {fill: #808071;}
        .stroke11 {fill: #808070;}
        .stroke12 {fill: #808069;}
        .stroke13 {fill: #808068;}
        .stroke14 {fill: #808067;}
        .stroke15 {fill: #808066;}
        .stroke16 {fill: #808065;}
        .stroke17 {fill: #808064;}
        .stroke18 {fill: #808063;}
        .stroke19 {fill: #808062;}
        .stroke20 {fill: #808061;}
        text {
            font-family: Helvetica;
            font-size: 50px;
            fill: #808060;
            paint-order: stroke;
            stroke: #000000;
            stroke-width: 4px;
            stroke-linecap: butt;
            stroke-linejoin: miter;
            font-weight: 800;
        }
    </style>

    <path d="M 355 606 Q 389 579 423 547 Q 436 534 453 535 Q 463 535 469 549 Q 473 564 464 593 Q 452 629 350 654 Q 334 658 328 655 Q 324 651 325 638 Q 328 628 355 606 Z" class="stroke1"/>
    <path d="M 532 227 Q 631 341 658 556 Q 662 599 671 625 Q 675 640 666 648 Q 644 670 618 681 Q 593 693 582 689 Q 572 683 575 671 Q 629 491 529 306 Q 514 282 496 260 L 465 228 Q 428 195 384 165 Q 323 119 151 64 Q 139 63 135 57 Q 128 53 139 47 Q 181 40 319 87 Q 436 132 498 189 L 532 227 Z" class="stroke2"/>
    <path d="M 498 189 Q 652 14 706 8 Q 859 8 912 15 Q 958 19 955 32 Q 954 39 907 53 Q 736 98 677 126 Q 608 162 532 227 L 496 260 Q 417 333 338 426 Q 298 471 260 473 Q 241 474 237 469 Q 234 462 251 449 Q 329 401 465 228 L 498 189 Z" class="stroke3"/>
    
    
    </g>
</svg>