<svg version="1.1" viewBox="0 0 1024 1024" xmlns="http://www.w3.org/2000/svg">
  
  <g transform="scale(1, -1) translate(0, -900)">
    <style type="text/css">
        .stroke1 {fill: #808080;}
        .stroke2 {fill: #808079;}
        .stroke3 {fill: #808078;}
        .stroke4 {fill: #808077;}
        .stroke5 {fill: #808076;}
        .stroke6 {fill: #808075;}
        .stroke7 {fill: #808074;}
        .stroke8 {fill: #808073;}
        .stroke9 {fill: #808072;}
        .stroke10 {fill: #808071;}
        .stroke11 {fill: #808070;}
        .stroke12 {fill: #808069;}
        .stroke13 {fill: #808068;}
        .stroke14 {fill: #808067;}
        .stroke15 {fill: #808066;}
        .stroke16 {fill: #808065;}
        .stroke17 {fill: #808064;}
        .stroke18 {fill: #808063;}
        .stroke19 {fill: #808062;}
        .stroke20 {fill: #808061;}
        text {
            font-family: Helvetica;
            font-size: 50px;
            fill: #808060;
            paint-order: stroke;
            stroke: #000000;
            stroke-width: 4px;
            stroke-linecap: butt;
            stroke-linejoin: miter;
            font-weight: 800;
        }
    </style>

    <path d="M 403 424 Q 512 464 680 519 Q 705 523 708 509 Q 714 497 671 370 Q 658 318 624 336 Q 599 345 575 353 Q 559 356 563 347 Q 569 334 641 266 Q 663 235 684 258 Q 721 300 750 395 Q 771 486 817 525 Q 833 541 816 556 Q 795 571 740 586 Q 719 593 703 579 Q 634 530 404 457 L 356 443 Q 341 440 330 436 Q 183 396 104 381 Q 89 381 87 370 Q 86 363 130 343 Q 158 330 184 344 Q 218 360 357 408 L 403 424 Z" class="stroke1"/>
    <path d="M 433 77 Q 520 5 815 40 Q 861 47 896 59 Q 926 66 934 81 Q 938 91 928 114 Q 903 177 889 315 Q 885 331 876 337 Q 870 340 867 325 Q 857 252 845 188 Q 835 134 806 113 Q 790 103 703 94 Q 613 87 544 95 Q 490 102 470 115 Q 418 146 407 267 Q 404 312 403 424 L 404 457 Q 408 560 428 614 Q 435 633 425 647 Q 410 660 370 676 Q 336 686 325 676 Q 316 667 332 645 Q 354 615 355 566 Q 355 508 356 443 L 357 408 Q 357 174 389 125 Q 404 100 433 77 Z" class="stroke2"/>
    
    </g>
</svg>