<svg version="1.1" viewBox="0 0 1024 1024" xmlns="http://www.w3.org/2000/svg">
  
  <g transform="scale(1, -1) translate(0, -900)">
    <style type="text/css">
        .stroke1 {fill: #808080;}
        .stroke2 {fill: #808079;}
        .stroke3 {fill: #808078;}
        .stroke4 {fill: #808077;}
        .stroke5 {fill: #808076;}
        .stroke6 {fill: #808075;}
        .stroke7 {fill: #808074;}
        .stroke8 {fill: #808073;}
        .stroke9 {fill: #808072;}
        .stroke10 {fill: #808071;}
        .stroke11 {fill: #808070;}
        .stroke12 {fill: #808069;}
        .stroke13 {fill: #808068;}
        .stroke14 {fill: #808067;}
        .stroke15 {fill: #808066;}
        .stroke16 {fill: #808065;}
        .stroke17 {fill: #808064;}
        .stroke18 {fill: #808063;}
        .stroke19 {fill: #808062;}
        .stroke20 {fill: #808061;}
        text {
            font-family: Helvetica;
            font-size: 50px;
            fill: #808060;
            paint-order: stroke;
            stroke: #000000;
            stroke-width: 4px;
            stroke-linecap: butt;
            stroke-linejoin: miter;
            font-weight: 800;
        }
    </style>

    <path d="M 378 638 Q 477 771 485 780 Q 497 793 483 810 Q 437 852 412 850 Q 399 849 401 833 Q 402 713 250 565 Q 208 534 158 489 Q 148 473 165 477 Q 190 478 226 502 Q 304 554 359 616 L 378 638 Z" class="stroke1"/>
    <path d="M 359 616 Q 389 586 469 599 L 689 645 Q 740 657 747 664 Q 757 673 752 682 Q 743 695 710 704 Q 676 711 642 697 Q 585 678 524 662 Q 457 647 378 638 C 348 634 337 633 359 616 Z" class="stroke2"/>
    <path d="M 912 25 Q 945 41 934 81 Q 910 145 896 241 Q 895 260 886 270 Q 879 279 874 253 Q 864 165 848 106 Q 836 84 812 70 Q 692 13 453 49 Q 414 56 393 70 Q 359 89 354 119 Q 339 174 427 275 Q 466 318 560 392 Q 584 411 612 424 Q 628 430 631 439 Q 638 454 619 469 Q 585 493 545 507 Q 533 511 517 503 Q 438 469 394 459 Q 330 446 232 441 Q 219 442 214 434 Q 211 425 225 414 Q 243 398 258 394 Q 289 387 334 403 Q 484 452 491 441 Q 495 437 487 430 Q 318 228 307 149 Q 300 113 310 90 Q 314 62 341 40 Q 432 -51 722 -25 Q 726 -24 733 -24 Q 815 -17 912 25 Z" class="stroke3"/>
    
    
    </g>
</svg>