<svg version="1.1" viewBox="0 0 1024 1024" xmlns="http://www.w3.org/2000/svg">
  
  <g transform="scale(1, -1) translate(0, -900)">
    <style type="text/css">
        .stroke1 {fill: #808080;}
        .stroke2 {fill: #808079;}
        .stroke3 {fill: #808078;}
        .stroke4 {fill: #808077;}
        .stroke5 {fill: #808076;}
        .stroke6 {fill: #808075;}
        .stroke7 {fill: #808074;}
        .stroke8 {fill: #808073;}
        .stroke9 {fill: #808072;}
        .stroke10 {fill: #808071;}
        .stroke11 {fill: #808070;}
        .stroke12 {fill: #808069;}
        .stroke13 {fill: #808068;}
        .stroke14 {fill: #808067;}
        .stroke15 {fill: #808066;}
        .stroke16 {fill: #808065;}
        .stroke17 {fill: #808064;}
        .stroke18 {fill: #808063;}
        .stroke19 {fill: #808062;}
        .stroke20 {fill: #808061;}
        text {
            font-family: Helvetica;
            font-size: 50px;
            fill: #808060;
            paint-order: stroke;
            stroke: #000000;
            stroke-width: 4px;
            stroke-linecap: butt;
            stroke-linejoin: miter;
            font-weight: 800;
        }
    </style>

    <path d="M 526 549 Q 569 571 661 633 Q 704 664 732 669 Q 778 679 784 698 Q 787 708 749 753 Q 716 793 703 793 Q 336 721 301 716 Q 265 715 244 719 Q 225 723 216 711 Q 212 702 222 690 Q 232 675 260 657 Q 284 638 295 639 Q 305 638 328 653 Q 391 698 626 741 Q 671 750 677 746 Q 681 745 680 739 Q 679 729 522 577 Q 512 570 506 563 C 484 543 500 535 526 549 Z" class="stroke1"/>
    <path d="M 506 563 Q 475 585 461 588 Q 448 591 448 567 Q 449 549 471 533 Q 513 497 525 417 Q 544 180 506 126 Q 505 126 505 124 Q 493 114 469 123 Q 430 130 383 141 Q 364 148 363 140 Q 363 137 456 50 Q 480 28 496 -3 Q 506 -13 518 -8 Q 534 -1 563 42 Q 614 127 585 436 Q 581 464 577 485 Q 568 528 526 549 L 506 563 Z" class="stroke2"/>
    
    </g>
</svg>