<svg version="1.1" viewBox="0 0 1024 1024" xmlns="http://www.w3.org/2000/svg">
  
  <g transform="scale(1, -1) translate(0, -900)">
    <style type="text/css">
        .stroke1 {fill: #808080;}
        .stroke2 {fill: #808079;}
        .stroke3 {fill: #808078;}
        .stroke4 {fill: #808077;}
        .stroke5 {fill: #808076;}
        .stroke6 {fill: #808075;}
        .stroke7 {fill: #808074;}
        .stroke8 {fill: #808073;}
        .stroke9 {fill: #808072;}
        .stroke10 {fill: #808071;}
        .stroke11 {fill: #808070;}
        .stroke12 {fill: #808069;}
        .stroke13 {fill: #808068;}
        .stroke14 {fill: #808067;}
        .stroke15 {fill: #808066;}
        .stroke16 {fill: #808065;}
        .stroke17 {fill: #808064;}
        .stroke18 {fill: #808063;}
        .stroke19 {fill: #808062;}
        .stroke20 {fill: #808061;}
        text {
            font-family: Helvetica;
            font-size: 50px;
            fill: #808060;
            paint-order: stroke;
            stroke: #000000;
            stroke-width: 4px;
            stroke-linecap: butt;
            stroke-linejoin: miter;
            font-weight: 800;
        }
    </style>

    <path d="M 308 603 Q 260 597 293 574 Q 339 544 436 558 Q 551 576 673 596 Q 731 608 741 615 Q 753 625 747 636 Q 738 652 702 663 Q 669 672 559 641 Q 424 610 308 603 Z" class="stroke1"/>
    <path d="M 517 212 Q 569 213 620 219 Q 756 229 896 214 Q 921 210 929 220 Q 938 235 924 248 Q 891 279 842 302 Q 826 309 797 301 Q 728 286 481 261 Q 172 236 155 234 Q 142 234 128 234 Q 113 234 111 221 Q 110 208 131 191 Q 150 176 185 163 Q 197 159 217 167 Q 233 173 306 183 Q 400 202 517 212 Z" class="stroke2"/>
    
    </g>
</svg>