<svg version="1.1" viewBox="0 0 1024 1024" xmlns="http://www.w3.org/2000/svg">
  
  <g transform="scale(1, -1) translate(0, -900)">
    <style type="text/css">
        .stroke1 {fill: #808080;}
        .stroke2 {fill: #808079;}
        .stroke3 {fill: #808078;}
        .stroke4 {fill: #808077;}
        .stroke5 {fill: #808076;}
        .stroke6 {fill: #808075;}
        .stroke7 {fill: #808074;}
        .stroke8 {fill: #808073;}
        .stroke9 {fill: #808072;}
        .stroke10 {fill: #808071;}
        .stroke11 {fill: #808070;}
        .stroke12 {fill: #808069;}
        .stroke13 {fill: #808068;}
        .stroke14 {fill: #808067;}
        .stroke15 {fill: #808066;}
        .stroke16 {fill: #808065;}
        .stroke17 {fill: #808064;}
        .stroke18 {fill: #808063;}
        .stroke19 {fill: #808062;}
        .stroke20 {fill: #808061;}
        text {
            font-family: Helvetica;
            font-size: 50px;
            fill: #808060;
            paint-order: stroke;
            stroke: #000000;
            stroke-width: 4px;
            stroke-linecap: butt;
            stroke-linejoin: miter;
            font-weight: 800;
        }
    </style>

    <path d="M 351 652 Q 311 645 339 627 Q 382 600 444 615 Q 546 634 651 656 Q 700 666 707 673 Q 716 682 711 691 Q 704 704 672 712 Q 648 718 540 685 Q 444 661 351 652 Z" class="stroke1"/>
    <path d="M 512 420 Q 633 436 814 438 Q 893 435 900 448 Q 906 461 887 476 Q 830 518 772 506 Q 613 473 146 409 Q 122 406 140 387 Q 156 372 176 366 Q 198 360 217 366 Q 323 397 446 411 L 512 420 Z" class="stroke2"/>
    <path d="M 689 193 Q 535 174 377 151 Q 364 148 362 152 Q 359 156 367 167 Q 482 339 527 384 Q 543 399 532 409 Q 525 416 512 420 C 486 435 448 441 446 411 Q 446 305 322 179 Q 298 160 266 138 Q 221 122 244 75 Q 254 53 268 47 Q 277 43 288 49 Q 417 122 698 169 Q 701 170 705 171 C 734 177 719 197 689 193 Z" class="stroke3"/>
    <path d="M 705 171 Q 736 128 771 75 Q 784 51 799 44 Q 808 41 817 50 Q 833 62 827 110 Q 823 176 643 294 Q 636 301 631 288 Q 627 275 637 262 Q 662 231 689 193 L 705 171 Z" class="stroke4"/>
    
    
    
    </g>
</svg>