<svg version="1.1" viewBox="0 0 1024 1024" xmlns="http://www.w3.org/2000/svg">
  
  <g transform="scale(1, -1) translate(0, -900)">
    <style type="text/css">
        .stroke1 {fill: #808080;}
        .stroke2 {fill: #808079;}
        .stroke3 {fill: #808078;}
        .stroke4 {fill: #808077;}
        .stroke5 {fill: #808076;}
        .stroke6 {fill: #808075;}
        .stroke7 {fill: #808074;}
        .stroke8 {fill: #808073;}
        .stroke9 {fill: #808072;}
        .stroke10 {fill: #808071;}
        .stroke11 {fill: #808070;}
        .stroke12 {fill: #808069;}
        .stroke13 {fill: #808068;}
        .stroke14 {fill: #808067;}
        .stroke15 {fill: #808066;}
        .stroke16 {fill: #808065;}
        .stroke17 {fill: #808064;}
        .stroke18 {fill: #808063;}
        .stroke19 {fill: #808062;}
        .stroke20 {fill: #808061;}
        text {
            font-family: Helvetica;
            font-size: 50px;
            fill: #808060;
            paint-order: stroke;
            stroke: #000000;
            stroke-width: 4px;
            stroke-linecap: butt;
            stroke-linejoin: miter;
            font-weight: 800;
        }
    </style>

    <path d="M 356 703 Q 316 699 344 679 Q 389 651 449 662 Q 551 678 657 694 Q 706 704 713 709 Q 723 718 719 727 Q 712 740 681 750 Q 653 756 540 726 Q 387 705 356 703 Z" class="stroke1"/>
    <path d="M 627 486 Q 720 493 838 493 Q 919 490 928 502 Q 934 515 915 532 Q 855 575 797 564 Q 607 525 142 469 Q 118 468 136 447 Q 169 414 215 424 Q 273 440 336 451 L 384 460 Q 466 476 586 484 L 627 486 Z" class="stroke2"/>
    <path d="M 336 451 Q 369 381 336 250 Q 297 130 175 44 Q 162 34 175 32 Q 229 32 301 100 Q 337 133 369 195 Q 400 291 402 297 Q 402 301 403 304 Q 415 386 428 412 Q 437 431 420 439 Q 392 460 384 460 C 356 472 325 479 336 451 Z" class="stroke3"/>
    <path d="M 586 484 Q 604 445 604 283 Q 604 132 588 83 Q 575 28 632 -31 Q 633 -32 636 -35 Q 649 -36 653 -22 Q 666 12 662 44 Q 650 350 661 445 Q 664 458 656 465 Q 641 478 627 486 C 602 502 576 512 586 484 Z" class="stroke4"/>
    
    
    
    </g>
</svg>