<svg version="1.1" viewBox="0 0 1024 1024" xmlns="http://www.w3.org/2000/svg">
  
  <g transform="scale(1, -1) translate(0, -900)">
    <style type="text/css">
        .stroke1 {fill: #808080;}
        .stroke2 {fill: #808079;}
        .stroke3 {fill: #808078;}
        .stroke4 {fill: #808077;}
        .stroke5 {fill: #808076;}
        .stroke6 {fill: #808075;}
        .stroke7 {fill: #808074;}
        .stroke8 {fill: #808073;}
        .stroke9 {fill: #808072;}
        .stroke10 {fill: #808071;}
        .stroke11 {fill: #808070;}
        .stroke12 {fill: #808069;}
        .stroke13 {fill: #808068;}
        .stroke14 {fill: #808067;}
        .stroke15 {fill: #808066;}
        .stroke16 {fill: #808065;}
        .stroke17 {fill: #808064;}
        .stroke18 {fill: #808063;}
        .stroke19 {fill: #808062;}
        .stroke20 {fill: #808061;}
        text {
            font-family: Helvetica;
            font-size: 50px;
            fill: #808060;
            paint-order: stroke;
            stroke: #000000;
            stroke-width: 4px;
            stroke-linecap: butt;
            stroke-linejoin: miter;
            font-weight: 800;
        }
    </style>

    <path d="M 500 709 Q 591 724 710 735 Q 722 734 732 747 Q 733 760 709 772 Q 673 794 598 775 Q 562 769 528 760 Q 449 745 302 731 Q 271 728 294 709 Q 330 678 360 686 Q 403 695 456 702 L 500 709 Z" class="stroke1"/>
    <path d="M 556 484 Q 634 490 898 491 Q 922 491 927 501 Q 934 514 914 531 Q 842 588 796 565 Q 699 549 552 525 L 502 518 Q 499 519 497 518 Q 322 497 115 474 Q 90 471 108 451 Q 124 435 146 428 Q 171 421 190 427 Q 328 463 506 480 L 556 484 Z" class="stroke2"/>
    <path d="M 506 480 Q 527 186 476 99 Q 473 90 464 87 Q 446 81 349 100 Q 340 101 338 97 Q 337 93 346 84 Q 416 30 455 -12 Q 468 -25 475 -23 Q 491 -22 517 6 Q 574 63 575 174 Q 576 234 556 484 L 552 525 Q 531 687 528 692 Q 519 701 500 709 C 474 724 442 729 456 702 Q 487 656 502 518 L 506 480 Z" class="stroke3"/>
    
    
    </g>
</svg>