<svg version="1.1" viewBox="0 0 1024 1024" xmlns="http://www.w3.org/2000/svg">
  
  <g transform="scale(1, -1) translate(0, -900)">
    <style type="text/css">
        .stroke1 {fill: #808080;}
        .stroke2 {fill: #808079;}
        .stroke3 {fill: #808078;}
        .stroke4 {fill: #808077;}
        .stroke5 {fill: #808076;}
        .stroke6 {fill: #808075;}
        .stroke7 {fill: #808074;}
        .stroke8 {fill: #808073;}
        .stroke9 {fill: #808072;}
        .stroke10 {fill: #808071;}
        .stroke11 {fill: #808070;}
        .stroke12 {fill: #808069;}
        .stroke13 {fill: #808068;}
        .stroke14 {fill: #808067;}
        .stroke15 {fill: #808066;}
        .stroke16 {fill: #808065;}
        .stroke17 {fill: #808064;}
        .stroke18 {fill: #808063;}
        .stroke19 {fill: #808062;}
        .stroke20 {fill: #808061;}
        text {
            font-family: Helvetica;
            font-size: 50px;
            fill: #808060;
            paint-order: stroke;
            stroke: #000000;
            stroke-width: 4px;
            stroke-linecap: butt;
            stroke-linejoin: miter;
            font-weight: 800;
        }
    </style>

    <path d="M 406 379 Q 406 466 405 547 L 405 579 Q 404 624 415 732 Q 418 742 398 755 Q 364 771 341 773 Q 325 774 319 767 Q 312 760 321 745 Q 346 714 347 691 Q 363 543 368 368 C 369 338 406 349 406 379 Z" class="stroke1"/>
    <path d="M 405 547 Q 469 563 517 574 Q 539 581 530 593 Q 517 606 492 607 Q 449 610 405 579 C 380 562 376 540 405 547 Z" class="stroke2"/>
    <path d="M 294 349 Q 278 496 281 526 Q 282 548 268 558 Q 246 574 218 581 Q 205 585 197 578 Q 190 572 197 558 Q 216 528 226 496 Q 235 465 255 339 C 260 309 297 319 294 349 Z" class="stroke3"/>
    <path d="M 255 339 Q 227 335 200 326 Q 178 320 141 322 Q 126 321 124 310 Q 121 297 131 287 Q 155 269 190 247 Q 200 243 214 252 Q 265 285 461 360 Q 491 375 524 391 Q 537 398 539 408 Q 533 415 520 412 Q 465 396 406 379 L 368 368 Q 331 359 294 349 L 255 339 Z" class="stroke4"/>
    <path d="M 608 532 Q 666 548 786 594 Q 811 604 839 608 Q 864 611 859 633 Q 850 655 828 678 Q 807 700 793 701 Q 780 704 779 688 Q 776 654 688 603 Q 651 579 608 554 C 582 539 579 524 608 532 Z" class="stroke5"/>
    <path d="M 934 364 Q 918 404 907 472 Q 906 488 898 494 Q 889 500 885 478 Q 864 397 851 384 Q 830 360 728 359 Q 676 362 652 372 Q 613 393 608 532 L 608 554 Q 611 683 634 744 Q 647 775 627 793 Q 575 833 558 828 Q 542 822 550 804 Q 571 764 567 707 Q 560 392 600 348 Q 622 326 678 314 Q 729 304 811 303 Q 884 302 914 316 Q 945 331 934 364 Z" class="stroke6"/>
    <path d="M 379 232 Q 339 225 367 207 Q 410 180 473 195 Q 542 208 613 222 Q 646 229 651 233 Q 660 242 655 251 Q 648 264 616 272 Q 585 279 551 266 Q 514 254 475 245 Q 430 236 379 232 Z" class="stroke7"/>
    <path d="M 202 56 Q 180 55 196 35 Q 212 19 231 13 Q 255 6 272 11 Q 443 56 800 56 Q 819 56 839 55 Q 861 54 867 64 Q 873 77 855 92 Q 797 137 756 128 Q 585 95 202 56 Z" class="stroke8"/>
    
    
    
    
    
    
    
    </g>
</svg>