<svg version="1.1" viewBox="0 0 1024 1024" xmlns="http://www.w3.org/2000/svg">
  
  <g transform="scale(1, -1) translate(0, -900)">
    <style type="text/css">
        .stroke1 {fill: #808080;}
        .stroke2 {fill: #808079;}
        .stroke3 {fill: #808078;}
        .stroke4 {fill: #808077;}
        .stroke5 {fill: #808076;}
        .stroke6 {fill: #808075;}
        .stroke7 {fill: #808074;}
        .stroke8 {fill: #808073;}
        .stroke9 {fill: #808072;}
        .stroke10 {fill: #808071;}
        .stroke11 {fill: #808070;}
        .stroke12 {fill: #808069;}
        .stroke13 {fill: #808068;}
        .stroke14 {fill: #808067;}
        .stroke15 {fill: #808066;}
        .stroke16 {fill: #808065;}
        .stroke17 {fill: #808064;}
        .stroke18 {fill: #808063;}
        .stroke19 {fill: #808062;}
        .stroke20 {fill: #808061;}
        text {
            font-family: Helvetica;
            font-size: 50px;
            fill: #808060;
            paint-order: stroke;
            stroke: #000000;
            stroke-width: 4px;
            stroke-linecap: butt;
            stroke-linejoin: miter;
            font-weight: 800;
        }
    </style>

    <path d="M 464 780 Q 501 752 543 718 Q 559 705 579 707 Q 592 708 596 724 Q 600 743 587 777 Q 578 802 538 817 Q 448 844 428 836 Q 422 830 425 815 Q 431 802 464 780 Z" class="stroke1"/>
    <path d="M 452 582 Q 452 583 453 583 Q 600 607 875 607 Q 902 607 908 617 Q 915 630 895 647 Q 832 693 788 682 Q 634 649 135 582 Q 110 579 128 559 Q 144 543 166 537 Q 191 530 210 536 Q 304 563 407 576 L 452 582 Z" class="stroke2"/>
    <path d="M 495 343 Q 428 347 356 347 Q 349 346 346 349 Q 345 353 351 363 Q 466 502 490 526 Q 503 535 497 548 Q 493 560 452 582 C 426 597 401 605 407 576 Q 407 572 409 566 Q 422 517 334 406 Q 307 373 254 343 Q 238 333 241 320 Q 245 302 269 280 Q 279 268 294 278 Q 339 302 471 313 C 501 316 525 341 495 343 Z" class="stroke3"/>
    <path d="M 471 313 Q 416 246 356 196 Q 292 139 135 33 Q 125 29 136 24 Q 199 24 355 134 Q 476 227 642 444 Q 658 463 668 471 Q 677 477 676 488 Q 675 500 663 514 Q 629 553 593 548 Q 583 547 584 533 Q 587 463 495 343 L 471 313 Z" class="stroke4"/>
    <path d="M 590 144 L 591 144 L 612 168 Q 651 213 703 282 Q 727 313 727 316 Q 723 344 682 362 Q 660 369 649 369 Q 640 368 641 354 Q 653 279 516 134 Q 510 130 505 124 Q 465 84 366 8 Q 357 4 368 0 Q 420 0 540 96 Q 565 120 590 144 Z" class="stroke5"/>
    <path d="M 591 144 Q 664 84 754 -3 Q 772 -24 788 -27 Q 798 -28 805 -17 Q 818 -2 802 43 Q 781 109 612 168 C 584 178 568 163 591 144 Z" class="stroke6"/>
    
    
    
    
    
    </g>
</svg>