<svg version="1.1" viewBox="0 0 1024 1024" xmlns="http://www.w3.org/2000/svg">
  
  <g transform="scale(1, -1) translate(0, -900)">
    <style type="text/css">
        .stroke1 {fill: #808080;}
        .stroke2 {fill: #808079;}
        .stroke3 {fill: #808078;}
        .stroke4 {fill: #808077;}
        .stroke5 {fill: #808076;}
        .stroke6 {fill: #808075;}
        .stroke7 {fill: #808074;}
        .stroke8 {fill: #808073;}
        .stroke9 {fill: #808072;}
        .stroke10 {fill: #808071;}
        .stroke11 {fill: #808070;}
        .stroke12 {fill: #808069;}
        .stroke13 {fill: #808068;}
        .stroke14 {fill: #808067;}
        .stroke15 {fill: #808066;}
        .stroke16 {fill: #808065;}
        .stroke17 {fill: #808064;}
        .stroke18 {fill: #808063;}
        .stroke19 {fill: #808062;}
        .stroke20 {fill: #808061;}
        text {
            font-family: Helvetica;
            font-size: 50px;
            fill: #808060;
            paint-order: stroke;
            stroke: #000000;
            stroke-width: 4px;
            stroke-linecap: butt;
            stroke-linejoin: miter;
            font-weight: 800;
        }
    </style>

    <path d="M 456 811 Q 516 751 553 738 Q 572 735 582 752 Q 589 768 584 789 Q 566 838 495 852 Q 455 865 437 858 Q 430 857 434 841 Q 437 828 456 811 Z" class="stroke1"/>
    <path d="M 131 642 Q 106 639 124 619 Q 140 603 162 596 Q 187 589 206 595 Q 447 659 853 660 Q 878 660 902 659 Q 926 659 931 669 Q 938 682 919 699 Q 850 750 782 730 Q 557 691 131 642 Z" class="stroke2"/>
    <path d="M 333 538 Q 329 539 324 539 Q 311 540 309 536 Q 303 529 313 514 Q 344 462 368 373 Q 374 346 391 330 Q 410 311 414 326 Q 415 335 416 345 L 412 379 Q 411 382 383 498 C 376 527 363 534 333 538 Z" class="stroke3"/>
    <path d="M 660 401 Q 696 479 734 500 Q 753 519 739 539 Q 666 605 606 582 Q 438 531 333 538 C 303 539 353 494 383 498 Q 437 505 599 534 Q 624 538 634 529 Q 641 520 638 504 Q 622 452 606 412 C 595 384 647 374 660 401 Z" class="stroke4"/>
    <path d="M 527 359 Q 584 366 667 370 Q 677 371 679 380 Q 679 387 660 401 L 606 412 Q 605 413 603 412 Q 497 390 412 379 C 382 375 387 337 416 345 Q 432 351 478 353 L 527 359 Z" class="stroke5"/>
    <path d="M 443 59 Q 424 65 401 71 Q 389 75 389 68 Q 389 61 399 50 Q 453 -2 488 -45 Q 498 -55 514 -39 Q 551 12 553 110 Q 547 212 554 298 Q 561 325 555 335 Q 548 345 527 359 C 503 376 471 382 478 353 Q 488 320 493 212 Q 492 166 492 99 Q 491 68 480 57 Q 470 50 443 59 Z" class="stroke6"/>
    <path d="M 291 272 Q 254 214 207 166 Q 176 136 190 92 Q 194 71 221 80 Q 249 93 271 126 Q 299 165 308 202 Q 320 238 317 267 Q 313 277 307 279 Q 297 280 291 272 Z" class="stroke7"/>
    <path d="M 653 234 Q 711 180 780 103 Q 801 78 821 72 Q 831 71 841 83 Q 857 101 841 156 Q 834 186 812 207 Q 790 223 741 242 Q 686 264 654 273 Q 642 280 640 264 Q 639 246 653 234 Z" class="stroke8"/>
    
    
    
    
    
    
    
    </g>
</svg>