<svg version="1.1" viewBox="0 0 1024 1024" xmlns="http://www.w3.org/2000/svg">
  
  <g transform="scale(1, -1) translate(0, -900)">
    <style type="text/css">
        .stroke1 {fill: #808080;}
        .stroke2 {fill: #808079;}
        .stroke3 {fill: #808078;}
        .stroke4 {fill: #808077;}
        .stroke5 {fill: #808076;}
        .stroke6 {fill: #808075;}
        .stroke7 {fill: #808074;}
        .stroke8 {fill: #808073;}
        .stroke9 {fill: #808072;}
        .stroke10 {fill: #808071;}
        .stroke11 {fill: #808070;}
        .stroke12 {fill: #808069;}
        .stroke13 {fill: #808068;}
        .stroke14 {fill: #808067;}
        .stroke15 {fill: #808066;}
        .stroke16 {fill: #808065;}
        .stroke17 {fill: #808064;}
        .stroke18 {fill: #808063;}
        .stroke19 {fill: #808062;}
        .stroke20 {fill: #808061;}
        text {
            font-family: Helvetica;
            font-size: 50px;
            fill: #808060;
            paint-order: stroke;
            stroke: #000000;
            stroke-width: 4px;
            stroke-linecap: butt;
            stroke-linejoin: miter;
            font-weight: 800;
        }
    </style>

    <path d="M 249 488 Q 307 558 372 660 Q 403 715 431 741 Q 441 753 436 768 Q 432 781 401 808 Q 371 829 351 828 Q 330 827 339 802 Q 355 765 340 735 Q 264 561 76 346 Q 64 334 62 328 Q 58 315 74 318 Q 110 322 221 454 L 249 488 Z" class="stroke1"/>
    <path d="M 221 454 Q 242 412 243 327 Q 242 318 242 308 Q 241 205 213 99 Q 198 50 235 2 Q 236 -1 240 -4 Q 259 -20 271 8 Q 286 50 286 98 Q 289 345 298 401 Q 305 429 295 440 Q 277 462 263 476 Q 256 483 249 488 C 226 507 209 482 221 454 Z" class="stroke2"/>
    <path d="M 441 588 Q 426 587 423 580 Q 422 573 429 568 Q 486 552 613 583 Q 637 587 639 580 Q 642 571 621 538 Q 345 192 482 99 Q 515 78 575 62 Q 746 20 940 95 Q 971 110 963 134 Q 941 197 930 300 Q 926 313 918 313 Q 912 313 907 297 Q 900 260 893 221 Q 883 164 840 142 Q 794 117 685 116 Q 577 115 537 136 Q 500 155 489 192 Q 464 295 634 484 Q 685 544 737 569 Q 762 579 755 593 Q 748 609 699 639 Q 680 652 652 639 Q 540 596 441 588 Z" class="stroke3"/>
    
    
    </g>
</svg>