<svg version="1.1" viewBox="0 0 1024 1024" xmlns="http://www.w3.org/2000/svg">
  
  <g transform="scale(1, -1) translate(0, -900)">
    <style type="text/css">
        .stroke1 {fill: #808080;}
        .stroke2 {fill: #808079;}
        .stroke3 {fill: #808078;}
        .stroke4 {fill: #808077;}
        .stroke5 {fill: #808076;}
        .stroke6 {fill: #808075;}
        .stroke7 {fill: #808074;}
        .stroke8 {fill: #808073;}
        .stroke9 {fill: #808072;}
        .stroke10 {fill: #808071;}
        .stroke11 {fill: #808070;}
        .stroke12 {fill: #808069;}
        .stroke13 {fill: #808068;}
        .stroke14 {fill: #808067;}
        .stroke15 {fill: #808066;}
        .stroke16 {fill: #808065;}
        .stroke17 {fill: #808064;}
        .stroke18 {fill: #808063;}
        .stroke19 {fill: #808062;}
        .stroke20 {fill: #808061;}
        text {
            font-family: Helvetica;
            font-size: 50px;
            fill: #808060;
            paint-order: stroke;
            stroke: #000000;
            stroke-width: 4px;
            stroke-linecap: butt;
            stroke-linejoin: miter;
            font-weight: 800;
        }
    </style>

    <path d="M 250 524 Q 302 585 359 668 Q 390 719 416 742 Q 426 752 423 768 Q 419 781 389 808 Q 361 829 341 830 Q 322 829 329 805 Q 342 771 328 742 Q 283 646 219 560 Q 158 476 73 385 Q 61 375 59 368 Q 55 356 70 358 Q 109 362 221 491 Q 224 495 228 499 L 250 524 Z" class="stroke1"/>
    <path d="M 228 499 Q 227 499 228 498 Q 232 482 240 469 Q 270 402 247 224 Q 240 170 225 115 Q 210 66 247 18 Q 248 15 252 12 Q 271 -4 283 24 Q 298 66 298 114 Q 301 370 310 429 Q 317 457 307 468 Q 289 490 275 504 Q 265 517 250 524 C 225 540 219 528 228 499 Z" class="stroke2"/>
    <path d="M 674 566 Q 770 579 906 579 Q 928 580 933 589 Q 937 602 920 617 Q 860 656 823 646 Q 664 610 397 568 Q 375 565 391 547 Q 425 520 476 531 Q 543 552 622 560 L 674 566 Z" class="stroke3"/>
    <path d="M 591 67 Q 567 74 538 80 Q 525 84 525 76 Q 525 67 537 57 Q 604 2 649 -44 Q 662 -54 677 -36 Q 722 27 716 110 Q 700 330 711 497 Q 718 527 711 538 Q 702 550 674 566 C 649 582 608 586 622 560 Q 623 553 631 544 Q 643 517 643 472 Q 646 364 647 117 Q 646 80 635 66 Q 622 59 591 67 Z" class="stroke4"/>
    
    
    
    </g>
</svg>