<svg version="1.1" viewBox="0 0 1024 1024" xmlns="http://www.w3.org/2000/svg">
  
  <g transform="scale(1, -1) translate(0, -900)">
    <style type="text/css">
        .stroke1 {fill: #808080;}
        .stroke2 {fill: #808079;}
        .stroke3 {fill: #808078;}
        .stroke4 {fill: #808077;}
        .stroke5 {fill: #808076;}
        .stroke6 {fill: #808075;}
        .stroke7 {fill: #808074;}
        .stroke8 {fill: #808073;}
        .stroke9 {fill: #808072;}
        .stroke10 {fill: #808071;}
        .stroke11 {fill: #808070;}
        .stroke12 {fill: #808069;}
        .stroke13 {fill: #808068;}
        .stroke14 {fill: #808067;}
        .stroke15 {fill: #808066;}
        .stroke16 {fill: #808065;}
        .stroke17 {fill: #808064;}
        .stroke18 {fill: #808063;}
        .stroke19 {fill: #808062;}
        .stroke20 {fill: #808061;}
        text {
            font-family: Helvetica;
            font-size: 50px;
            fill: #808060;
            paint-order: stroke;
            stroke: #000000;
            stroke-width: 4px;
            stroke-linecap: butt;
            stroke-linejoin: miter;
            font-weight: 800;
        }
    </style>

    <path d="M 250 530 Q 287 585 330 658 Q 354 707 377 731 Q 386 743 381 756 Q 377 769 346 791 Q 318 809 299 808 Q 280 805 289 783 Q 305 752 293 724 Q 236 568 86 372 Q 76 362 74 354 Q 71 344 85 346 Q 118 355 224 495 L 250 530 Z" class="stroke1"/>
    <path d="M 224 495 Q 243 435 245 429 Q 244 428 245 425 Q 251 260 220 131 Q 208 80 242 41 Q 243 38 246 36 Q 262 20 274 46 Q 289 86 288 131 Q 284 393 292 451 Q 299 478 290 488 Q 266 513 250 530 C 229 552 215 524 224 495 Z" class="stroke2"/>
    <path d="M 468 401 Q 507 423 573 456 L 618 479 Q 672 507 742 542 Q 760 549 765 539 Q 772 526 760 488 Q 745 436 725 372 Q 715 330 687 344 Q 668 353 650 360 Q 637 364 638 356 Q 642 344 698 279 Q 717 251 737 272 Q 777 312 791 377 Q 806 434 820 491 Q 830 527 860 557 Q 873 573 858 585 Q 839 598 789 608 Q 770 612 756 599 Q 726 571 668 540 Q 646 528 621 515 L 576 493 Q 477 451 475 448 L 423 426 Q 368 405 333 393 Q 320 392 319 381 Q 318 374 361 362 Q 385 355 422 376 L 468 401 Z" class="stroke3"/>
    <path d="M 573 456 Q 567 368 560 302 Q 560 274 567 252 Q 573 240 582 246 Q 600 261 610 381 Q 613 432 618 479 L 621 515 Q 633 689 644 729 Q 654 748 641 761 Q 626 777 598 791 Q 576 801 552 792 Q 540 785 554 767 Q 581 713 581 592 Q 580 547 576 493 L 573 456 Z" class="stroke4"/>
    <path d="M 960 171 Q 944 223 938 313 Q 937 329 930 334 Q 921 340 917 319 Q 898 210 880 191 Q 838 143 661 143 Q 564 147 523 164 Q 487 183 480 207 Q 453 273 468 401 L 475 448 Q 479 479 489 498 Q 501 529 482 546 Q 431 583 416 579 Q 401 573 408 556 Q 427 519 424 463 Q 423 444 423 426 L 422 376 Q 421 240 432 203 Q 444 157 478 133 Q 548 82 789 95 Q 898 102 941 126 Q 972 139 960 171 Z" class="stroke5"/>
    
    
    
    
    </g>
</svg>