<svg version="1.1" viewBox="0 0 1024 1024" xmlns="http://www.w3.org/2000/svg">
  
  <g transform="scale(1, -1) translate(0, -900)">
    <style type="text/css">
        .stroke1 {fill: #808080;}
        .stroke2 {fill: #808079;}
        .stroke3 {fill: #808078;}
        .stroke4 {fill: #808077;}
        .stroke5 {fill: #808076;}
        .stroke6 {fill: #808075;}
        .stroke7 {fill: #808074;}
        .stroke8 {fill: #808073;}
        .stroke9 {fill: #808072;}
        .stroke10 {fill: #808071;}
        .stroke11 {fill: #808070;}
        .stroke12 {fill: #808069;}
        .stroke13 {fill: #808068;}
        .stroke14 {fill: #808067;}
        .stroke15 {fill: #808066;}
        .stroke16 {fill: #808065;}
        .stroke17 {fill: #808064;}
        .stroke18 {fill: #808063;}
        .stroke19 {fill: #808062;}
        .stroke20 {fill: #808061;}
        text {
            font-family: Helvetica;
            font-size: 50px;
            fill: #808060;
            paint-order: stroke;
            stroke: #000000;
            stroke-width: 4px;
            stroke-linecap: butt;
            stroke-linejoin: miter;
            font-weight: 800;
        }
    </style>

    <path d="M 291 535 Q 420 740 421 745 Q 420 751 419 755 Q 415 770 380 795 Q 349 816 327 815 Q 305 812 315 787 Q 333 750 319 717 Q 243 525 59 300 Q 47 287 45 280 Q 41 267 58 271 Q 106 283 264 495 L 291 535 Z" class="stroke1"/>
    <path d="M 264 495 Q 295 431 271 245 Q 264 193 249 139 Q 234 90 271 42 Q 272 39 276 36 Q 295 20 307 48 Q 322 90 322 138 Q 328 391 338 449 Q 345 477 335 488 Q 317 510 303 524 Q 297 531 291 535 C 269 555 253 523 264 495 Z" class="stroke2"/>
    <path d="M 758 482 Q 819 488 897 489 Q 957 486 964 499 Q 970 511 952 525 Q 892 567 828 547 Q 797 541 758 532 L 699 520 Q 675 517 651 512 Q 534 493 396 471 Q 374 468 391 451 Q 425 423 464 432 Q 575 465 699 476 L 758 482 Z" class="stroke3"/>
    <path d="M 699 476 Q 699 338 699 121 Q 698 96 685 87 Q 678 84 602 101 Q 565 116 567 104 Q 568 95 591 78 Q 663 17 680 -17 Q 701 -57 719 -58 Q 735 -59 753 -19 Q 775 33 773 120 Q 758 301 758 482 L 758 532 Q 752 667 778 757 Q 797 793 732 818 Q 693 839 671 830 Q 650 823 669 796 Q 694 765 696 725 Q 697 706 699 520 L 699 476 Z" class="stroke4"/>
    <path d="M 468 344 Q 504 275 535 253 Q 550 246 563 258 Q 573 270 574 288 Q 573 313 557 332 Q 527 362 482 385 Q 470 389 463 388 Q 456 388 456 375 Q 455 362 468 344 Z" class="stroke5"/>
    
    
    
    
    </g>
</svg>