<svg version="1.1" viewBox="0 0 1024 1024" xmlns="http://www.w3.org/2000/svg">
  
  <g transform="scale(1, -1) translate(0, -900)">
    <style type="text/css">
        .stroke1 {fill: #808080;}
        .stroke2 {fill: #808079;}
        .stroke3 {fill: #808078;}
        .stroke4 {fill: #808077;}
        .stroke5 {fill: #808076;}
        .stroke6 {fill: #808075;}
        .stroke7 {fill: #808074;}
        .stroke8 {fill: #808073;}
        .stroke9 {fill: #808072;}
        .stroke10 {fill: #808071;}
        .stroke11 {fill: #808070;}
        .stroke12 {fill: #808069;}
        .stroke13 {fill: #808068;}
        .stroke14 {fill: #808067;}
        .stroke15 {fill: #808066;}
        .stroke16 {fill: #808065;}
        .stroke17 {fill: #808064;}
        .stroke18 {fill: #808063;}
        .stroke19 {fill: #808062;}
        .stroke20 {fill: #808061;}
        text {
            font-family: Helvetica;
            font-size: 50px;
            fill: #808060;
            paint-order: stroke;
            stroke: #000000;
            stroke-width: 4px;
            stroke-linecap: butt;
            stroke-linejoin: miter;
            font-weight: 800;
        }
    </style>

    <path d="M 225 514 Q 229 492 229 411 Q 228 345 214 308 Q 210 268 173 219 Q 160 206 171 181 Q 183 150 200 138 Q 213 128 228 146 Q 288 239 477 437 Q 493 452 493 462 Q 494 469 487 467 Q 469 461 298 299 Q 283 287 276 291 Q 272 294 273 307 Q 282 532 286 557 Q 290 576 278 586 Q 265 599 217 612 Q 198 615 192 609 Q 185 602 197 582 Q 218 554 225 514 Z" class="stroke1"/>
    <path d="M 446 658 Q 500 594 532 579 Q 548 575 559 589 Q 566 602 564 620 Q 552 668 461 698 Q 445 704 434 700 Q 427 699 429 686 Q 430 673 446 658 Z" class="stroke2"/>
    <path d="M 695 336 Q 746 441 761 512 Q 794 656 810 685 Q 822 707 803 718 Q 748 761 717 752 Q 701 748 707 729 Q 723 693 716 602 Q 716 536 671 414 Q 599 240 430 137 Q 411 124 392 111 Q 376 101 391 97 Q 407 96 449 111 Q 524 142 580 192 Q 661 255 681 310 L 695 336 Z" class="stroke3"/>
    <path d="M 681 310 Q 759 232 846 127 Q 862 105 879 98 Q 889 97 897 107 Q 912 120 900 169 Q 888 232 695 336 C 669 350 660 331 681 310 Z" class="stroke4"/>
    
    
    
    </g>
</svg>