<svg version="1.1" viewBox="0 0 1024 1024" xmlns="http://www.w3.org/2000/svg">
  
  <g transform="scale(1, -1) translate(0, -900)">
    <style type="text/css">
        .stroke1 {fill: #808080;}
        .stroke2 {fill: #808079;}
        .stroke3 {fill: #808078;}
        .stroke4 {fill: #808077;}
        .stroke5 {fill: #808076;}
        .stroke6 {fill: #808075;}
        .stroke7 {fill: #808074;}
        .stroke8 {fill: #808073;}
        .stroke9 {fill: #808072;}
        .stroke10 {fill: #808071;}
        .stroke11 {fill: #808070;}
        .stroke12 {fill: #808069;}
        .stroke13 {fill: #808068;}
        .stroke14 {fill: #808067;}
        .stroke15 {fill: #808066;}
        .stroke16 {fill: #808065;}
        .stroke17 {fill: #808064;}
        .stroke18 {fill: #808063;}
        .stroke19 {fill: #808062;}
        .stroke20 {fill: #808061;}
        text {
            font-family: Helvetica;
            font-size: 50px;
            fill: #808060;
            paint-order: stroke;
            stroke: #000000;
            stroke-width: 4px;
            stroke-linecap: butt;
            stroke-linejoin: miter;
            font-weight: 800;
        }
    </style>

    <path d="M 229 563 Q 269 614 313 680 Q 341 726 365 748 Q 375 758 371 774 Q 367 787 337 812 Q 310 831 290 832 Q 271 831 278 807 Q 291 776 279 750 Q 213 600 52 416 Q 42 406 39 399 Q 35 387 50 390 Q 86 394 189 516 Q 193 522 199 527 L 229 563 Z" class="stroke1"/>
    <path d="M 199 527 Q 217 509 219 382 Q 218 273 190 163 Q 180 118 214 67 Q 215 67 217 64 Q 235 48 247 75 Q 262 115 261 162 Q 261 424 269 484 Q 276 511 267 522 Q 248 543 235 557 Q 232 561 229 563 C 208 585 185 554 199 527 Z" class="stroke2"/>
    <path d="M 600 680 Q 723 734 765 743 Q 784 744 789 753 Q 793 766 779 778 Q 754 796 704 814 Q 686 823 671 821 Q 662 817 662 804 Q 662 753 421 642 Q 415 632 422 628 Q 449 628 549 663 L 600 680 Z" class="stroke3"/>
    <path d="M 636 455 Q 730 468 875 472 Q 942 472 949 483 Q 953 496 936 509 Q 882 546 842 538 Q 764 519 636 494 L 579 484 Q 459 465 320 443 Q 298 440 315 423 Q 351 393 388 405 Q 476 432 579 446 L 636 455 Z" class="stroke4"/>
    <path d="M 583 1 Q 590 -27 597 -37 Q 603 -44 611 -42 Q 627 -33 634 32 Q 641 116 639 198 Q 635 256 636 455 L 636 494 Q 636 578 648 630 Q 651 649 636 660 Q 615 673 600 680 C 573 694 537 690 549 663 Q 573 615 579 550 Q 579 520 579 484 L 579 446 Q 579 35 583 1 Z" class="stroke5"/>
    
    
    
    
    </g>
</svg>