<svg version="1.1" viewBox="0 0 1024 1024" xmlns="http://www.w3.org/2000/svg">
  
  <g transform="scale(1, -1) translate(0, -900)">
    <style type="text/css">
        .stroke1 {fill: #808080;}
        .stroke2 {fill: #808079;}
        .stroke3 {fill: #808078;}
        .stroke4 {fill: #808077;}
        .stroke5 {fill: #808076;}
        .stroke6 {fill: #808075;}
        .stroke7 {fill: #808074;}
        .stroke8 {fill: #808073;}
        .stroke9 {fill: #808072;}
        .stroke10 {fill: #808071;}
        .stroke11 {fill: #808070;}
        .stroke12 {fill: #808069;}
        .stroke13 {fill: #808068;}
        .stroke14 {fill: #808067;}
        .stroke15 {fill: #808066;}
        .stroke16 {fill: #808065;}
        .stroke17 {fill: #808064;}
        .stroke18 {fill: #808063;}
        .stroke19 {fill: #808062;}
        .stroke20 {fill: #808061;}
        text {
            font-family: Helvetica;
            font-size: 50px;
            fill: #808060;
            paint-order: stroke;
            stroke: #000000;
            stroke-width: 4px;
            stroke-linecap: butt;
            stroke-linejoin: miter;
            font-weight: 800;
        }
    </style>

    <path d="M 234 512 Q 283 576 338 664 Q 366 716 392 742 Q 402 754 397 768 Q 393 783 361 807 Q 331 828 311 827 Q 290 826 299 801 Q 315 767 301 738 Q 262 641 202 549 Q 144 462 63 366 Q 53 354 50 348 Q 46 335 62 338 Q 102 348 208 480 Q 208 481 209 482 L 234 512 Z" class="stroke1"/>
    <path d="M 209 482 Q 212 472 217 463 Q 244 402 226 227 Q 219 176 206 123 Q 196 78 230 27 Q 231 27 233 24 Q 251 8 263 35 Q 278 75 277 122 Q 277 369 285 424 Q 292 451 283 462 Q 241 507 234 512 C 212 532 198 510 209 482 Z" class="stroke2"/>
    <path d="M 509 623 Q 531 657 555 696 Q 573 730 589 747 Q 596 757 592 771 Q 588 783 558 803 Q 531 819 514 818 Q 495 815 505 794 Q 526 757 454 623 Q 420 562 373 494 Q 363 484 362 477 Q 359 467 373 470 Q 401 479 490 596 L 509 623 Z" class="stroke3"/>
    <path d="M 630 599 Q 696 615 767 630 Q 809 640 815 647 Q 825 656 819 664 Q 812 676 782 683 Q 754 687 642 650 Q 591 637 509 623 C 479 618 463 608 490 596 Q 526 578 576 586 L 630 599 Z" class="stroke4"/>
    <path d="M 653 366 Q 744 376 910 377 Q 931 378 936 387 Q 942 399 924 413 Q 864 456 811 439 Q 748 426 653 408 L 600 399 Q 483 383 349 363 Q 327 360 343 343 Q 358 330 377 324 Q 399 318 415 324 Q 500 348 595 359 Q 596 360 600 359 L 653 366 Z" class="stroke5"/>
    <path d="M 601 -22 Q 607 -47 614 -57 Q 620 -64 627 -62 Q 642 -53 648 8 Q 657 84 654 160 Q 651 209 653 366 L 653 408 Q 654 439 655 474 Q 655 498 665 558 Q 669 576 654 585 Q 641 594 630 599 C 604 614 565 614 576 586 Q 594 550 600 478 Q 600 442 600 399 L 600 359 Q 594 43 601 -22 Z" class="stroke6"/>
    
    
    
    
    
    </g>
</svg>