<svg version="1.1" viewBox="0 0 1024 1024" xmlns="http://www.w3.org/2000/svg">
  
  <g transform="scale(1, -1) translate(0, -900)">
    <style type="text/css">
        .stroke1 {fill: #808080;}
        .stroke2 {fill: #808079;}
        .stroke3 {fill: #808078;}
        .stroke4 {fill: #808077;}
        .stroke5 {fill: #808076;}
        .stroke6 {fill: #808075;}
        .stroke7 {fill: #808074;}
        .stroke8 {fill: #808073;}
        .stroke9 {fill: #808072;}
        .stroke10 {fill: #808071;}
        .stroke11 {fill: #808070;}
        .stroke12 {fill: #808069;}
        .stroke13 {fill: #808068;}
        .stroke14 {fill: #808067;}
        .stroke15 {fill: #808066;}
        .stroke16 {fill: #808065;}
        .stroke17 {fill: #808064;}
        .stroke18 {fill: #808063;}
        .stroke19 {fill: #808062;}
        .stroke20 {fill: #808061;}
        text {
            font-family: Helvetica;
            font-size: 50px;
            fill: #808060;
            paint-order: stroke;
            stroke: #000000;
            stroke-width: 4px;
            stroke-linecap: butt;
            stroke-linejoin: miter;
            font-weight: 800;
        }
    </style>

    <path d="M 246 501 Q 297 565 353 654 Q 381 705 406 729 Q 416 739 411 754 Q 407 767 378 792 Q 350 811 330 811 Q 311 810 319 786 Q 334 752 320 724 Q 280 630 220 542 Q 162 457 83 364 Q 73 354 70 347 Q 66 335 81 338 Q 114 341 219 468 L 246 501 Z" class="stroke1"/>
    <path d="M 219 468 Q 240 423 242 345 Q 242 222 218 123 Q 208 78 242 27 Q 243 27 245 24 Q 263 8 275 35 Q 290 75 289 122 Q 286 362 293 416 Q 300 443 291 454 Q 249 499 246 501 C 225 522 208 496 219 468 Z" class="stroke2"/>
    <path d="M 465 676 Q 487 648 510 616 Q 520 601 536 599 Q 546 598 553 609 Q 560 622 557 652 Q 556 671 528 691 Q 462 730 448 727 Q 444 724 442 712 Q 443 700 465 676 Z" class="stroke3"/>
    <path d="M 588 378 Q 612 429 642 503 L 655 540 Q 668 582 681 624 Q 708 720 719 741 Q 731 754 726 769 Q 713 790 682 810 Q 666 825 651 822 Q 638 818 641 802 Q 656 763 642 701 Q 612 581 593 526 L 580 490 Q 520 312 324 98 Q 317 92 314 86 Q 310 76 321 76 Q 354 76 460 185 Q 488 216 517 256 Q 548 302 577 356 L 588 378 Z" class="stroke4"/>
    <path d="M 642 503 Q 700 516 764 524 Q 786 525 791 515 Q 800 496 797 449 Q 787 274 754 181 Q 738 123 718 105 Q 706 92 679 99 Q 642 109 609 121 Q 584 128 601 105 Q 652 53 679 12 Q 689 -10 713 -4 Q 734 -1 759 29 Q 831 105 854 403 Q 860 469 883 508 Q 902 532 891 543 Q 873 564 835 580 Q 807 593 777 580 Q 723 558 655 540 L 593 526 Q 577 525 560 520 Q 445 499 379 500 Q 358 501 357 490 Q 356 480 380 464 Q 408 445 436 453 Q 508 475 580 490 L 642 503 Z" class="stroke5"/>
    <path d="M 577 356 Q 581 349 596 335 Q 627 307 658 274 Q 668 262 683 262 Q 692 261 697 273 Q 701 285 696 311 Q 690 344 595 377 Q 591 378 588 378 C 559 381 560 381 577 356 Z" class="stroke6"/>
    
    
    
    
    
    </g>
</svg>