<svg version="1.1" viewBox="0 0 1024 1024" xmlns="http://www.w3.org/2000/svg">
  
  <g transform="scale(1, -1) translate(0, -900)">
    <style type="text/css">
        .stroke1 {fill: #808080;}
        .stroke2 {fill: #808079;}
        .stroke3 {fill: #808078;}
        .stroke4 {fill: #808077;}
        .stroke5 {fill: #808076;}
        .stroke6 {fill: #808075;}
        .stroke7 {fill: #808074;}
        .stroke8 {fill: #808073;}
        .stroke9 {fill: #808072;}
        .stroke10 {fill: #808071;}
        .stroke11 {fill: #808070;}
        .stroke12 {fill: #808069;}
        .stroke13 {fill: #808068;}
        .stroke14 {fill: #808067;}
        .stroke15 {fill: #808066;}
        .stroke16 {fill: #808065;}
        .stroke17 {fill: #808064;}
        .stroke18 {fill: #808063;}
        .stroke19 {fill: #808062;}
        .stroke20 {fill: #808061;}
        text {
            font-family: Helvetica;
            font-size: 50px;
            fill: #808060;
            paint-order: stroke;
            stroke: #000000;
            stroke-width: 4px;
            stroke-linecap: butt;
            stroke-linejoin: miter;
            font-weight: 800;
        }
    </style>

    <path d="M 271 509 Q 308 563 349 630 Q 376 682 401 708 Q 411 718 405 734 Q 401 747 369 771 Q 341 790 320 790 Q 299 787 309 764 Q 325 730 312 701 Q 249 539 83 329 Q 73 319 70 311 Q 66 299 81 302 Q 123 311 223 445 Q 233 458 246 474 L 271 509 Z" class="stroke1"/>
    <path d="M 246 474 Q 247 467 252 461 Q 282 394 259 212 Q 252 158 237 103 Q 222 54 259 6 Q 260 3 264 0 Q 283 -16 295 12 Q 310 54 310 102 Q 313 363 322 421 Q 329 449 319 460 Q 301 482 287 496 Q 280 503 271 509 C 247 527 233 501 246 474 Z" class="stroke2"/>
    <path d="M 650 473 Q 663 476 919 495 Q 941 496 946 506 Q 950 519 932 532 Q 872 574 805 553 Q 744 538 656 517 L 600 506 Q 492 487 368 464 Q 346 461 363 443 Q 399 413 439 426 Q 512 450 596 464 L 650 473 Z" class="stroke3"/>
    <path d="M 625 310 Q 638 395 650 473 L 656 517 Q 674 658 701 725 Q 707 740 686 759 Q 649 784 622 791 Q 603 797 594 788 Q 584 781 592 762 Q 616 719 613 691 Q 609 603 600 506 L 596 464 Q 587 385 575 300 C 571 270 620 280 625 310 Z" class="stroke4"/>
    <path d="M 476 286 Q 466 290 446 293 Q 433 297 429 292 Q 422 285 431 267 Q 462 197 480 82 Q 483 48 502 25 Q 521 0 528 18 Q 534 34 532 63 L 527 102 Q 508 225 506 254 C 504 277 504 277 476 286 Z" class="stroke5"/>
    <path d="M 776 128 Q 806 233 842 259 Q 861 280 844 299 Q 826 314 768 342 Q 749 349 725 341 Q 673 322 625 310 L 575 300 Q 526 293 476 286 C 446 282 477 248 506 254 L 703 291 Q 725 295 735 286 Q 747 276 744 253 Q 734 187 719 133 C 711 104 767 99 776 128 Z" class="stroke6"/>
    <path d="M 532 63 Q 538 63 545 64 Q 624 79 793 86 Q 805 87 807 97 Q 807 106 776 128 C 759 141 748 139 719 133 Q 611 112 527 102 C 497 98 502 61 532 63 Z" class="stroke7"/>
    
    
    
    
    
    
    </g>
</svg>