<svg version="1.1" viewBox="0 0 1024 1024" xmlns="http://www.w3.org/2000/svg">
  
  <g transform="scale(1, -1) translate(0, -900)">
    <style type="text/css">
        .stroke1 {fill: #808080;}
        .stroke2 {fill: #808079;}
        .stroke3 {fill: #808078;}
        .stroke4 {fill: #808077;}
        .stroke5 {fill: #808076;}
        .stroke6 {fill: #808075;}
        .stroke7 {fill: #808074;}
        .stroke8 {fill: #808073;}
        .stroke9 {fill: #808072;}
        .stroke10 {fill: #808071;}
        .stroke11 {fill: #808070;}
        .stroke12 {fill: #808069;}
        .stroke13 {fill: #808068;}
        .stroke14 {fill: #808067;}
        .stroke15 {fill: #808066;}
        .stroke16 {fill: #808065;}
        .stroke17 {fill: #808064;}
        .stroke18 {fill: #808063;}
        .stroke19 {fill: #808062;}
        .stroke20 {fill: #808061;}
        text {
            font-family: Helvetica;
            font-size: 50px;
            fill: #808060;
            paint-order: stroke;
            stroke: #000000;
            stroke-width: 4px;
            stroke-linecap: butt;
            stroke-linejoin: miter;
            font-weight: 800;
        }
    </style>

    <path d="M 277 520 Q 307 566 339 620 Q 367 674 393 700 Q 403 710 397 726 Q 393 739 361 763 Q 333 782 312 782 Q 291 779 301 756 Q 317 722 304 691 Q 238 523 67 309 Q 57 299 54 291 Q 50 279 65 282 Q 113 292 249 480 L 277 520 Z" class="stroke1"/>
    <path d="M 249 480 Q 270 447 270 349 Q 269 337 269 323 Q 268 211 235 95 Q 222 49 257 -3 Q 258 -7 263 -11 Q 282 -29 295 1 Q 311 44 310 94 Q 317 368 327 429 Q 336 459 324 470 Q 285 515 277 520 C 255 540 236 507 249 480 Z" class="stroke2"/>
    <path d="M 635 330 Q 639 427 644 518 L 645 556 Q 646 643 667 750 Q 671 762 649 778 Q 609 799 583 803 Q 565 806 556 796 Q 547 789 557 772 Q 585 732 585 705 Q 597 527 590 321 C 589 291 634 300 635 330 Z" class="stroke3"/>
    <path d="M 644 518 Q 677 512 771 532 Q 843 551 845 552 Q 854 562 848 571 Q 839 584 806 590 Q 782 593 700 568 Q 681 564 645 556 C 616 550 614 522 644 518 Z" class="stroke4"/>
    <path d="M 473 306 Q 460 312 430 317 Q 417 321 413 315 Q 406 308 415 291 Q 451 212 470 82 Q 473 43 494 17 Q 513 -8 520 10 Q 526 29 524 59 L 519 100 Q 497 227 492 269 C 488 299 488 300 473 306 Z" class="stroke5"/>
    <path d="M 799 128 Q 829 236 872 274 Q 893 296 875 316 Q 856 332 795 362 Q 774 372 749 362 Q 691 343 635 330 L 590 321 Q 532 312 473 306 C 443 303 462 265 492 269 Q 529 273 724 306 Q 749 310 759 300 Q 772 288 769 262 Q 757 193 742 137 C 734 108 791 99 799 128 Z" class="stroke6"/>
    <path d="M 524 59 Q 528 59 536 60 Q 624 76 812 88 Q 825 89 827 99 Q 827 108 799 128 L 742 137 Q 739 138 736 137 Q 616 112 519 100 C 489 96 494 57 524 59 Z" class="stroke7"/>
    
    
    
    
    
    
    </g>
</svg>