<svg version="1.1" viewBox="0 0 1024 1024" xmlns="http://www.w3.org/2000/svg">
  
  <g transform="scale(1, -1) translate(0, -900)">
    <style type="text/css">
        .stroke1 {fill: #808080;}
        .stroke2 {fill: #808079;}
        .stroke3 {fill: #808078;}
        .stroke4 {fill: #808077;}
        .stroke5 {fill: #808076;}
        .stroke6 {fill: #808075;}
        .stroke7 {fill: #808074;}
        .stroke8 {fill: #808073;}
        .stroke9 {fill: #808072;}
        .stroke10 {fill: #808071;}
        .stroke11 {fill: #808070;}
        .stroke12 {fill: #808069;}
        .stroke13 {fill: #808068;}
        .stroke14 {fill: #808067;}
        .stroke15 {fill: #808066;}
        .stroke16 {fill: #808065;}
        .stroke17 {fill: #808064;}
        .stroke18 {fill: #808063;}
        .stroke19 {fill: #808062;}
        .stroke20 {fill: #808061;}
        text {
            font-family: Helvetica;
            font-size: 50px;
            fill: #808060;
            paint-order: stroke;
            stroke: #000000;
            stroke-width: 4px;
            stroke-linecap: butt;
            stroke-linejoin: miter;
            font-weight: 800;
        }
    </style>

    <path d="M 249 516 Q 289 574 333 645 Q 361 699 387 725 Q 397 737 392 751 Q 388 764 358 787 Q 330 806 310 806 Q 291 805 299 781 Q 315 747 301 716 Q 261 616 200 524 Q 140 434 59 336 Q 49 326 46 319 Q 42 307 57 310 Q 99 320 202 455 Q 214 470 227 486 L 249 516 Z" class="stroke1"/>
    <path d="M 227 486 Q 251 429 251 363 Q 250 342 250 321 Q 247 209 216 95 Q 204 44 238 5 Q 239 2 242 0 Q 258 -16 270 10 Q 285 50 284 95 Q 290 369 300 431 Q 307 458 298 468 Q 256 513 249 516 C 226 535 216 514 227 486 Z" class="stroke2"/>
    <path d="M 611 515 Q 644 522 836 549 Q 846 548 857 560 Q 858 573 834 584 Q 801 605 717 581 Q 641 565 626 560 L 564 548 Q 438 535 417 530 Q 386 526 410 508 Q 440 483 488 491 Q 515 497 549 503 L 611 515 Z" class="stroke3"/>
    <path d="M 524 323 Q 593 464 611 515 L 626 560 Q 629 570 632 582 Q 653 667 684 720 Q 691 730 684 741 Q 669 762 636 784 Q 617 799 597 797 Q 575 793 588 772 Q 610 735 603 704 Q 585 617 564 548 L 549 503 Q 474 280 309 134 Q 296 127 294 122 Q 290 115 306 115 Q 357 115 470 242 Q 506 293 513 304 L 524 323 Z" class="stroke4"/>
    <path d="M 662 299 Q 809 329 814 333 Q 823 340 819 348 Q 812 360 784 368 Q 756 374 726 363 Q 683 350 637 339 Q 585 329 526 324 Q 525 324 524 323 C 494 318 493 318 513 304 Q 549 277 611 291 Q 614 291 620 291 L 662 299 Z" class="stroke5"/>
    <path d="M 658 114 Q 682 277 682 278 Q 672 290 662 299 C 640 320 613 320 620 291 L 621 290 Q 624 275 613 108 C 611 78 654 84 658 114 Z" class="stroke6"/>
    <path d="M 613 108 Q 513 98 397 86 Q 376 85 391 67 Q 404 52 423 47 Q 444 41 460 45 Q 592 78 883 78 Q 899 78 917 76 Q 936 76 942 84 Q 948 96 932 110 Q 880 152 842 143 Q 773 130 658 114 L 613 108 Z" class="stroke7"/>
    
    
    
    
    
    
    </g>
</svg>