<svg version="1.1" viewBox="0 0 1024 1024" xmlns="http://www.w3.org/2000/svg">
  
  <g transform="scale(1, -1) translate(0, -900)">
    <style type="text/css">
        .stroke1 {fill: #808080;}
        .stroke2 {fill: #808079;}
        .stroke3 {fill: #808078;}
        .stroke4 {fill: #808077;}
        .stroke5 {fill: #808076;}
        .stroke6 {fill: #808075;}
        .stroke7 {fill: #808074;}
        .stroke8 {fill: #808073;}
        .stroke9 {fill: #808072;}
        .stroke10 {fill: #808071;}
        .stroke11 {fill: #808070;}
        .stroke12 {fill: #808069;}
        .stroke13 {fill: #808068;}
        .stroke14 {fill: #808067;}
        .stroke15 {fill: #808066;}
        .stroke16 {fill: #808065;}
        .stroke17 {fill: #808064;}
        .stroke18 {fill: #808063;}
        .stroke19 {fill: #808062;}
        .stroke20 {fill: #808061;}
        text {
            font-family: Helvetica;
            font-size: 50px;
            fill: #808060;
            paint-order: stroke;
            stroke: #000000;
            stroke-width: 4px;
            stroke-linecap: butt;
            stroke-linejoin: miter;
            font-weight: 800;
        }
    </style>

    <path d="M 242 496 Q 290 557 343 639 Q 373 691 398 715 Q 408 725 404 741 Q 400 754 369 780 Q 341 799 320 800 Q 301 799 309 774 Q 324 740 310 711 Q 268 614 206 525 Q 145 440 64 345 Q 54 335 50 328 Q 46 315 62 318 Q 99 322 210 457 Q 211 460 215 463 L 242 496 Z" class="stroke1"/>
    <path d="M 215 463 Q 233 424 240 365 Q 239 341 239 315 Q 240 210 214 103 Q 204 58 238 7 Q 239 7 241 4 Q 259 -12 271 15 Q 286 55 285 102 Q 282 355 289 412 Q 296 439 287 450 Q 248 492 242 496 C 220 516 203 491 215 463 Z" class="stroke2"/>
    <path d="M 471 688 Q 431 681 459 663 Q 501 636 564 652 Q 631 665 702 678 Q 733 685 739 689 Q 749 698 743 707 Q 736 720 704 728 Q 673 735 639 721 Q 603 711 564 701 Q 521 692 471 688 Z" class="stroke3"/>
    <path d="M 405 538 Q 375 534 398 516 Q 432 486 462 495 Q 639 531 799 545 Q 811 544 820 556 Q 821 569 798 580 Q 758 604 699 584 Q 525 551 405 538 Z" class="stroke4"/>
    <path d="M 625 121 Q 679 81 754 9 Q 779 -13 797 -15 Q 819 -16 821 4 Q 822 26 796 75 Q 784 106 655 166 L 607 188 Q 567 207 535 218 Q 510 224 524 249 Q 543 295 556 324 L 575 364 Q 575 365 576 366 Q 585 391 596 408 Q 606 415 602 425 Q 595 440 556 467 Q 543 476 533 471 Q 520 467 528 451 Q 537 430 519 356 L 507 317 Q 491 274 474 245 Q 464 227 467 214 Q 468 204 487 200 Q 530 185 575 156 Q 578 155 580 152 L 625 121 Z" class="stroke5"/>
    <path d="M 580 152 Q 514 82 367 26 Q 349 16 371 15 Q 536 15 625 121 L 655 166 Q 694 247 705 296 Q 709 321 716 338 C 726 366 730 380 720 386 Q 707 398 684 402 Q 662 412 643 406 Q 630 402 637 386 Q 640 382 643 374 L 650 334 Q 651 310 642 280 Q 632 228 607 188 L 580 152 Z" class="stroke6"/>
    <path d="M 716 338 Q 741 339 894 340 Q 913 340 919 348 Q 925 360 908 374 Q 850 417 788 399 Q 757 395 720 386 L 643 374 Q 604 373 575 364 L 519 356 Q 431 347 333 334 Q 311 333 327 315 Q 340 302 359 296 Q 380 290 396 295 Q 448 308 507 317 L 556 324 Q 581 331 650 334 L 716 338 Z" class="stroke7"/>
    
    
    
    
    
    
    </g>
</svg>