<svg version="1.1" viewBox="0 0 1024 1024" xmlns="http://www.w3.org/2000/svg">
  
  <g transform="scale(1, -1) translate(0, -900)">
    <style type="text/css">
        .stroke1 {fill: #808080;}
        .stroke2 {fill: #808079;}
        .stroke3 {fill: #808078;}
        .stroke4 {fill: #808077;}
        .stroke5 {fill: #808076;}
        .stroke6 {fill: #808075;}
        .stroke7 {fill: #808074;}
        .stroke8 {fill: #808073;}
        .stroke9 {fill: #808072;}
        .stroke10 {fill: #808071;}
        .stroke11 {fill: #808070;}
        .stroke12 {fill: #808069;}
        .stroke13 {fill: #808068;}
        .stroke14 {fill: #808067;}
        .stroke15 {fill: #808066;}
        .stroke16 {fill: #808065;}
        .stroke17 {fill: #808064;}
        .stroke18 {fill: #808063;}
        .stroke19 {fill: #808062;}
        .stroke20 {fill: #808061;}
        text {
            font-family: Helvetica;
            font-size: 50px;
            fill: #808060;
            paint-order: stroke;
            stroke: #000000;
            stroke-width: 4px;
            stroke-linecap: butt;
            stroke-linejoin: miter;
            font-weight: 800;
        }
    </style>

    <path d="M 239 548 Q 281 600 328 670 Q 356 718 381 740 Q 391 750 386 766 Q 382 779 353 804 Q 326 823 306 824 Q 287 823 294 800 Q 307 767 295 740 Q 225 584 60 400 Q 50 390 47 383 Q 43 371 57 374 Q 102 380 212 516 L 239 548 Z" class="stroke1"/>
    <path d="M 212 516 Q 248 441 225 267 Q 218 216 204 163 Q 192 112 226 73 Q 227 70 230 68 Q 246 52 258 78 Q 273 118 272 163 Q 275 412 284 467 Q 291 494 282 504 Q 246 543 239 548 C 217 568 200 544 212 516 Z" class="stroke2"/>
    <path d="M 478 763 Q 500 736 524 706 Q 534 693 549 691 Q 559 690 565 701 Q 572 714 567 742 Q 566 761 538 779 Q 475 815 460 811 Q 456 808 455 796 Q 456 786 478 763 Z" class="stroke3"/>
    <path d="M 696 807 Q 687 788 629 690 Q 622 672 637 678 Q 677 709 743 769 Q 759 788 781 800 Q 800 813 788 829 Q 772 844 745 854 Q 720 864 708 860 Q 696 856 702 844 Q 708 826 696 807 Z" class="stroke4"/>
    <path d="M 608 591 Q 779 630 783 633 Q 792 640 787 649 Q 780 659 752 667 Q 728 673 604 636 Q 502 617 461 612 Q 427 606 451 590 Q 490 566 545 579 Q 546 580 552 580 L 608 591 Z" class="stroke5"/>
    <path d="M 628 434 Q 775 467 778 469 Q 787 476 783 484 Q 776 496 748 504 Q 724 510 629 481 L 575 468 Q 515 458 450 452 Q 414 446 439 430 Q 472 406 547 420 Q 559 423 575 424 L 628 434 Z" class="stroke6"/>
    <path d="M 625 286 Q 722 299 867 299 Q 934 299 940 309 Q 946 322 928 337 Q 873 376 831 368 Q 753 350 626 328 L 574 320 Q 457 304 325 284 Q 303 281 320 263 Q 335 248 354 243 Q 376 237 394 243 Q 478 267 573 278 L 625 286 Z" class="stroke7"/>
    <path d="M 574 -11 Q 580 -36 586 -45 Q 592 -52 599 -50 Q 617 -38 620 17 Q 624 59 625 286 L 626 328 Q 626 376 628 434 L 629 481 Q 632 523 640 551 Q 643 569 629 578 Q 617 585 608 591 C 583 607 541 608 552 580 Q 573 529 575 520 Q 575 495 575 468 L 575 424 Q 575 376 574 320 L 573 278 Q 567 61 574 -11 Z" class="stroke8"/>
    
    
    
    
    
    
    
    </g>
</svg>