<svg version="1.1" viewBox="0 0 1024 1024" xmlns="http://www.w3.org/2000/svg">
  
  <g transform="scale(1, -1) translate(0, -900)">
    <style type="text/css">
        .stroke1 {fill: #808080;}
        .stroke2 {fill: #808079;}
        .stroke3 {fill: #808078;}
        .stroke4 {fill: #808077;}
        .stroke5 {fill: #808076;}
        .stroke6 {fill: #808075;}
        .stroke7 {fill: #808074;}
        .stroke8 {fill: #808073;}
        .stroke9 {fill: #808072;}
        .stroke10 {fill: #808071;}
        .stroke11 {fill: #808070;}
        .stroke12 {fill: #808069;}
        .stroke13 {fill: #808068;}
        .stroke14 {fill: #808067;}
        .stroke15 {fill: #808066;}
        .stroke16 {fill: #808065;}
        .stroke17 {fill: #808064;}
        .stroke18 {fill: #808063;}
        .stroke19 {fill: #808062;}
        .stroke20 {fill: #808061;}
        text {
            font-family: Helvetica;
            font-size: 50px;
            fill: #808060;
            paint-order: stroke;
            stroke: #000000;
            stroke-width: 4px;
            stroke-linecap: butt;
            stroke-linejoin: miter;
            font-weight: 800;
        }
    </style>

    <path d="M 243 520 Q 291 581 345 664 Q 373 715 398 739 Q 408 749 404 765 Q 400 778 369 804 Q 341 823 320 824 Q 301 823 309 798 Q 322 764 310 736 Q 270 642 210 554 Q 152 469 72 377 Q 60 367 58 359 Q 54 347 70 350 Q 82 351 109 376 Q 157 413 215 486 L 215 487 L 243 520 Z" class="stroke1"/>
    <path d="M 215 487 Q 239 427 239 371 Q 238 353 238 335 Q 238 229 210 119 Q 200 74 234 23 Q 235 23 237 20 Q 255 4 267 31 Q 282 71 281 118 Q 281 377 289 436 Q 296 463 287 474 Q 248 516 243 520 C 222 541 204 515 215 487 Z" class="stroke2"/>
    <path d="M 589 612 Q 721 639 893 639 Q 914 639 921 648 Q 925 661 909 674 Q 854 710 817 700 Q 745 681 619 657 Q 612 656 603 653 L 550 644 Q 465 631 376 615 Q 354 612 371 595 Q 396 571 453 582 Q 490 592 536 602 L 589 612 Z" class="stroke3"/>
    <path d="M 530 469 Q 560 529 589 612 L 603 653 Q 634 747 656 776 Q 668 791 662 802 Q 650 827 597 844 Q 582 851 565 842 Q 555 832 563 821 Q 581 802 583 781 Q 586 753 550 644 L 536 602 Q 499 499 451 421 Q 405 348 301 237 Q 291 221 302 220 Q 306 219 320 227 Q 425 290 503 419 L 530 469 Z" class="stroke4"/>
    <path d="M 543 221 Q 544 269 549 305 L 551 330 Q 555 400 561 424 Q 561 427 561 429 C 564 450 564 450 551 458 Q 544 465 530 469 C 502 480 498 449 503 419 Q 527 299 480 132 Q 455 75 458 60 Q 459 30 475 10 Q 482 -3 492 2 Q 537 29 539 163 Q 539 181 541 195 L 543 221 Z" class="stroke5"/>
    <path d="M 561 429 Q 576 429 688 460 Q 709 464 714 455 Q 726 428 737 241 Q 746 81 734 63 Q 730 57 711 60 Q 686 66 659 71 Q 640 77 640 67 Q 695 21 728 -15 Q 741 -34 757 -38 Q 767 -42 774 -32 Q 813 17 811 73 Q 766 397 792 446 Q 802 465 791 476 Q 769 494 731 507 Q 712 514 657 485 Q 603 466 551 458 C 521 453 531 424 561 429 Z" class="stroke6"/>
    <path d="M 549 305 Q 553 305 562 306 Q 626 319 673 328 Q 695 334 686 345 Q 674 358 650 360 Q 611 363 551 330 C 525 316 519 304 549 305 Z" class="stroke7"/>
    <path d="M 541 195 Q 548 194 556 195 Q 626 205 679 212 Q 701 216 693 228 Q 683 243 657 247 Q 620 251 543 221 C 515 210 511 198 541 195 Z" class="stroke8"/>
    
    
    
    
    
    
    
    </g>
</svg>