<svg version="1.1" viewBox="0 0 1024 1024" xmlns="http://www.w3.org/2000/svg">
  
  <g transform="scale(1, -1) translate(0, -900)">
    <style type="text/css">
        .stroke1 {fill: #808080;}
        .stroke2 {fill: #808079;}
        .stroke3 {fill: #808078;}
        .stroke4 {fill: #808077;}
        .stroke5 {fill: #808076;}
        .stroke6 {fill: #808075;}
        .stroke7 {fill: #808074;}
        .stroke8 {fill: #808073;}
        .stroke9 {fill: #808072;}
        .stroke10 {fill: #808071;}
        .stroke11 {fill: #808070;}
        .stroke12 {fill: #808069;}
        .stroke13 {fill: #808068;}
        .stroke14 {fill: #808067;}
        .stroke15 {fill: #808066;}
        .stroke16 {fill: #808065;}
        .stroke17 {fill: #808064;}
        .stroke18 {fill: #808063;}
        .stroke19 {fill: #808062;}
        .stroke20 {fill: #808061;}
        text {
            font-family: Helvetica;
            font-size: 50px;
            fill: #808060;
            paint-order: stroke;
            stroke: #000000;
            stroke-width: 4px;
            stroke-linecap: butt;
            stroke-linejoin: miter;
            font-weight: 800;
        }
    </style>

    <path d="M 246 558 Q 277 607 313 668 Q 338 719 362 744 Q 372 756 366 770 Q 362 783 329 807 Q 299 826 279 825 Q 260 821 269 798 Q 285 767 274 737 Q 216 577 58 369 Q 48 359 45 351 Q 42 339 57 342 Q 96 351 217 517 Q 217 518 219 519 L 246 558 Z" class="stroke1"/>
    <path d="M 219 519 Q 237 483 237 407 Q 225 227 198 135 Q 188 90 222 39 Q 223 39 225 36 Q 243 20 255 47 Q 270 87 269 134 Q 278 414 289 476 Q 296 503 287 514 Q 248 556 246 558 C 225 580 208 547 219 519 Z" class="stroke2"/>
    <path d="M 603 632 Q 684 650 770 667 Q 822 680 831 687 Q 840 694 835 704 Q 828 716 798 723 Q 773 729 654 691 Q 546 664 454 654 Q 417 647 443 630 Q 488 606 545 620 Q 551 621 559 623 L 603 632 Z" class="stroke3"/>
    <path d="M 399 459 Q 369 472 351 471 Q 338 467 345 455 Q 390 367 357 207 Q 330 141 367 104 Q 374 91 384 97 Q 415 125 414 222 Q 414 387 415 424 C 416 452 416 452 399 459 Z" class="stroke4"/>
    <path d="M 629 466 Q 644 472 802 484 Q 815 485 819 478 Q 829 472 831 428 Q 844 244 825 137 Q 819 106 792 107 Q 764 114 736 118 Q 723 124 722 117 Q 721 110 731 98 Q 795 37 813 5 Q 823 -11 835 -8 Q 850 -4 862 24 Q 884 66 889 114 Q 901 180 897 409 Q 897 451 908 473 Q 924 495 910 500 Q 894 515 857 530 Q 833 543 808 533 Q 783 524 718 516 Q 670 512 630 503 L 584 496 Q 545 490 514 482 Q 456 469 399 459 C 369 454 386 415 415 424 Q 476 445 586 459 L 629 466 Z" class="stroke5"/>
    <path d="M 586 459 Q 586 255 578 208 Q 562 156 583 107 Q 583 106 585 102 Q 591 87 597 85 Q 603 79 608 86 Q 615 90 623 107 Q 630 128 630 153 Q 629 184 629 466 L 630 503 Q 631 546 641 579 Q 648 592 646 602 Q 640 609 603 632 C 578 648 545 650 559 623 Q 575 599 583 536 Q 583 518 584 496 L 586 459 Z" class="stroke6"/>
    <path d="M 491 314 Q 472 281 426 235 Q 425 231 430 230 Q 454 230 512 287 Q 512 288 513 289 C 530 314 506 340 491 314 Z" class="stroke7"/>
    <path d="M 513 289 Q 543 250 555 245 Q 559 244 564 250 Q 571 257 566 283 Q 562 322 448 378 Q 444 382 441 374 Q 441 367 447 360 Q 468 339 491 314 L 513 289 Z" class="stroke8"/>
    <path d="M 713 348 Q 694 315 654 278 Q 648 274 646 271 Q 645 267 651 266 Q 672 266 737 321 C 760 340 728 374 713 348 Z" class="stroke9"/>
    <path d="M 737 321 Q 789 261 798 257 Q 802 256 808 262 Q 817 269 810 299 Q 800 347 665 418 Q 659 422 658 414 Q 657 405 663 398 Q 687 376 713 348 L 737 321 Z" class="stroke10"/>
    
    
    
    
    
    
    
    
    
    </g>
</svg>