<svg version="1.1" viewBox="0 0 1024 1024" xmlns="http://www.w3.org/2000/svg">
  
  <g transform="scale(1, -1) translate(0, -900)">
    <style type="text/css">
        .stroke1 {fill: #808080;}
        .stroke2 {fill: #808079;}
        .stroke3 {fill: #808078;}
        .stroke4 {fill: #808077;}
        .stroke5 {fill: #808076;}
        .stroke6 {fill: #808075;}
        .stroke7 {fill: #808074;}
        .stroke8 {fill: #808073;}
        .stroke9 {fill: #808072;}
        .stroke10 {fill: #808071;}
        .stroke11 {fill: #808070;}
        .stroke12 {fill: #808069;}
        .stroke13 {fill: #808068;}
        .stroke14 {fill: #808067;}
        .stroke15 {fill: #808066;}
        .stroke16 {fill: #808065;}
        .stroke17 {fill: #808064;}
        .stroke18 {fill: #808063;}
        .stroke19 {fill: #808062;}
        .stroke20 {fill: #808061;}
        text {
            font-family: Helvetica;
            font-size: 50px;
            fill: #808060;
            paint-order: stroke;
            stroke: #000000;
            stroke-width: 4px;
            stroke-linecap: butt;
            stroke-linejoin: miter;
            font-weight: 800;
        }
    </style>

    <path d="M 259 542 Q 292 593 328 655 Q 353 707 377 734 Q 387 746 381 759 Q 377 772 346 795 Q 316 813 297 812 Q 278 809 287 787 Q 303 753 292 724 Q 229 556 70 348 Q 60 338 58 331 Q 54 319 69 322 Q 106 332 230 500 L 259 542 Z" class="stroke1"/>
    <path d="M 230 500 Q 264 424 236 223 Q 227 165 211 103 Q 198 57 233 5 Q 234 1 239 -3 Q 258 -21 271 9 Q 287 52 286 102 Q 292 391 303 457 Q 312 487 300 498 Q 264 540 259 542 C 237 563 219 528 230 500 Z" class="stroke2"/>
    <path d="M 574 583 Q 575 676 584 729 Q 588 751 575 763 Q 556 782 530 792 Q 517 798 508 793 Q 501 787 505 772 Q 518 745 524 717 Q 528 689 534 575 C 536 545 574 553 574 583 Z" class="stroke3"/>
    <path d="M 686 605 Q 711 783 716 794 Q 725 821 716 833 Q 713 836 710 838 Q 680 857 659 861 Q 646 865 638 858 Q 631 851 637 838 Q 652 816 652 800 Q 653 706 647 597 C 645 567 682 575 686 605 Z" class="stroke4"/>
    <path d="M 414 646 Q 430 633 446 616 Q 459 606 472 608 Q 482 609 485 620 Q 488 633 479 659 Q 470 678 407 687 Q 394 690 388 687 Q 384 683 386 672 Q 390 662 414 646 Z" class="stroke5"/>
    <path d="M 808 758 Q 781 725 720 670 Q 708 654 725 656 Q 774 674 801 688 Q 861 722 888 729 Q 910 736 902 755 Q 892 774 867 791 Q 846 807 833 806 Q 820 806 823 792 Q 824 774 808 758 Z" class="stroke6"/>
    <path d="M 709 567 Q 760 573 822 575 Q 844 575 863 576 Q 881 577 884 585 Q 888 595 873 607 Q 821 644 767 624 Q 730 617 686 605 L 647 597 Q 584 587 574 583 L 534 575 Q 449 562 354 544 Q 335 541 350 527 Q 363 515 379 511 Q 398 507 413 512 Q 545 554 672 564 L 709 567 Z" class="stroke7"/>
    <path d="M 483 504 Q 516 441 536 437 Q 546 433 555 447 Q 558 457 553 476 Q 549 491 530 501 Q 503 520 491 525 Q 484 528 481 519 Q 478 512 483 504 Z" class="stroke8"/>
    <path d="M 661 445 Q 712 505 726 516 Q 741 525 734 535 Q 728 550 709 567 C 687 587 671 594 672 564 Q 675 539 641 466 Q 631 450 628 437 C 620 408 642 422 661 445 Z" class="stroke9"/>
    <path d="M 614 398 Q 656 408 764 420 Q 773 419 781 430 Q 782 440 763 449 Q 729 467 661 445 L 628 437 Q 622 438 618 436 Q 564 424 436 408 Q 411 405 430 391 Q 458 372 497 377 Q 527 383 563 389 L 614 398 Z" class="stroke10"/>
    <path d="M 625 313 Q 679 323 727 329 Q 749 333 741 345 Q 731 358 707 363 Q 679 369 632 353 L 573 339 Q 515 327 467 316 Q 451 313 470 298 Q 483 289 509 294 Q 540 300 571 304 L 625 313 Z" class="stroke11"/>
    <path d="M 640 214 Q 710 223 811 223 Q 862 220 871 231 Q 877 241 861 255 Q 807 295 741 274 Q 686 265 612 249 L 562 241 Q 471 228 367 213 Q 348 210 362 195 Q 375 182 392 177 Q 411 173 427 177 Q 485 195 553 203 L 603 210 Q 604 211 606 210 L 640 214 Z" class="stroke12"/>
    <path d="M 612 249 Q 618 277 625 313 L 632 353 Q 633 363 637 369 Q 644 375 638 384 Q 634 390 614 398 C 587 411 554 418 563 389 Q 573 361 573 339 L 571 304 Q 568 271 562 241 L 553 203 Q 520 109 435 48 Q 404 29 359 4 Q 337 -8 364 -7 Q 413 -10 489 37 Q 550 73 603 210 L 612 249 Z" class="stroke13"/>
    <path d="M 606 210 Q 673 113 749 20 Q 771 -7 812 -11 Q 887 -21 965 -11 Q 986 -10 987 -5 Q 991 2 975 9 Q 807 81 781 100 Q 739 127 640 214 C 617 234 589 235 606 210 Z" class="stroke14"/>
    
    
    
    
    
    
    
    
    
    
    
    
    
    </g>
</svg>