<svg version="1.1" viewBox="0 0 1024 1024" xmlns="http://www.w3.org/2000/svg">
  
  <g transform="scale(1, -1) translate(0, -900)">
    <style type="text/css">
        .stroke1 {fill: #808080;}
        .stroke2 {fill: #808079;}
        .stroke3 {fill: #808078;}
        .stroke4 {fill: #808077;}
        .stroke5 {fill: #808076;}
        .stroke6 {fill: #808075;}
        .stroke7 {fill: #808074;}
        .stroke8 {fill: #808073;}
        .stroke9 {fill: #808072;}
        .stroke10 {fill: #808071;}
        .stroke11 {fill: #808070;}
        .stroke12 {fill: #808069;}
        .stroke13 {fill: #808068;}
        .stroke14 {fill: #808067;}
        .stroke15 {fill: #808066;}
        .stroke16 {fill: #808065;}
        .stroke17 {fill: #808064;}
        .stroke18 {fill: #808063;}
        .stroke19 {fill: #808062;}
        .stroke20 {fill: #808061;}
        text {
            font-family: Helvetica;
            font-size: 50px;
            fill: #808060;
            paint-order: stroke;
            stroke: #000000;
            stroke-width: 4px;
            stroke-linecap: butt;
            stroke-linejoin: miter;
            font-weight: 800;
        }
    </style>

    <path d="M 235 491 Q 284 558 340 651 Q 367 703 392 729 Q 402 741 396 755 Q 392 768 362 791 Q 334 810 313 809 Q 294 808 303 784 Q 319 750 306 721 Q 269 624 209 533 Q 152 445 74 348 Q 64 338 62 331 Q 58 319 73 322 Q 110 331 210 460 L 235 491 Z" class="stroke1"/>
    <path d="M 210 460 Q 231 388 233 366 Q 232 341 232 314 Q 232 214 206 111 Q 196 66 230 15 Q 231 15 233 12 Q 251 -4 263 23 Q 278 63 277 110 Q 277 350 285 404 Q 292 431 283 442 Q 241 487 235 491 C 213 511 202 489 210 460 Z" class="stroke2"/>
    <path d="M 588 805 Q 610 787 634 765 Q 647 753 662 755 Q 672 756 677 768 Q 681 783 671 811 Q 659 838 581 851 Q 566 854 560 851 Q 556 847 557 835 Q 561 825 588 805 Z" class="stroke3"/>
    <path d="M 764 616 Q 788 661 812 674 Q 827 690 815 706 Q 746 760 699 733 Q 617 705 505 683 C 476 677 493 648 522 656 Q 528 657 538 661 Q 622 680 702 699 Q 723 703 732 696 Q 738 687 716 622 C 707 594 749 590 764 616 Z" class="stroke4"/>
    <path d="M 501 541 Q 511 541 524 542 Q 603 564 774 587 Q 784 588 784 597 Q 784 604 764 616 L 716 622 Q 713 622 712 621 Q 597 590 505 572 C 476 566 471 540 501 541 Z" class="stroke5"/>
    <path d="M 505 683 Q 493 693 477 700 Q 459 710 447 705 Q 437 699 442 686 Q 460 659 456 611 Q 435 413 408 332 Q 405 325 403 317 Q 367 224 295 116 Q 291 110 288 105 Q 285 95 295 97 Q 326 101 400 214 Q 410 235 424 258 Q 481 382 501 541 L 505 572 Q 508 594 511 613 Q 514 634 522 656 C 526 669 526 669 505 683 Z" class="stroke6"/>
    <path d="M 522 324 Q 577 399 620 474 Q 626 484 622 492 Q 618 501 596 502 Q 572 505 564 500 Q 558 497 558 486 Q 562 431 457 287 Q 444 271 464 279 Q 477 283 497 300 L 522 324 Z" class="stroke7"/>
    <path d="M 557 68 Q 556 218 561 253 Q 568 277 559 286 Q 543 304 532 316 Q 528 322 522 324 C 498 342 489 329 497 300 Q 510 252 515 221 Q 515 112 497 40 Q 485 0 517 -43 Q 518 -44 520 -46 Q 536 -59 546 -36 Q 559 -2 558 39 L 557 68 Z" class="stroke8"/>
    <path d="M 696 504 Q 741 459 753 458 Q 760 458 765 469 Q 769 479 763 503 Q 756 524 693 541 Q 681 545 676 543 Q 672 539 673 530 Q 674 521 696 504 Z" class="stroke9"/>
    <path d="M 715 373 Q 829 406 833 409 Q 840 416 835 423 Q 828 432 805 436 Q 780 439 757 428 Q 726 415 693 404 Q 656 394 613 387 Q 583 380 606 368 Q 634 353 679 363 L 715 373 Z" class="stroke10"/>
    <path d="M 738 269 Q 775 279 809 286 Q 830 290 821 301 Q 811 314 788 316 Q 769 317 740 308 L 692 290 Q 656 280 625 268 Q 610 264 630 251 Q 633 250 693 258 L 738 269 Z" class="stroke11"/>
    <path d="M 735 179 Q 778 189 816 194 Q 837 198 829 209 Q 819 222 797 226 Q 776 226 736 215 L 693 202 Q 657 193 626 183 Q 611 180 630 167 Q 636 163 693 171 L 735 179 Z" class="stroke12"/>
    <path d="M 732 101 Q 733 141 735 179 L 736 215 Q 736 243 738 269 L 740 308 Q 743 347 739 353 Q 727 365 715 373 C 691 391 665 390 679 363 Q 691 345 692 290 L 693 258 Q 693 236 693 202 L 693 171 Q 693 137 693 93 C 693 63 731 71 732 101 Z" class="stroke13"/>
    <path d="M 693 93 Q 629 83 557 68 C 528 62 528 43 558 39 Q 588 33 636 45 Q 739 69 895 70 Q 911 71 916 78 Q 920 88 906 100 Q 854 134 801 117 Q 771 111 732 101 L 693 93 Z" class="stroke14"/>
    
    
    
    
    
    
    
    
    
    
    
    
    
    </g>
</svg>