<svg version="1.1" viewBox="0 0 1024 1024" xmlns="http://www.w3.org/2000/svg">
  
  <g transform="scale(1, -1) translate(0, -900)">
    <style type="text/css">
        .stroke1 {fill: #808080;}
        .stroke2 {fill: #808079;}
        .stroke3 {fill: #808078;}
        .stroke4 {fill: #808077;}
        .stroke5 {fill: #808076;}
        .stroke6 {fill: #808075;}
        .stroke7 {fill: #808074;}
        .stroke8 {fill: #808073;}
        .stroke9 {fill: #808072;}
        .stroke10 {fill: #808071;}
        .stroke11 {fill: #808070;}
        .stroke12 {fill: #808069;}
        .stroke13 {fill: #808068;}
        .stroke14 {fill: #808067;}
        .stroke15 {fill: #808066;}
        .stroke16 {fill: #808065;}
        .stroke17 {fill: #808064;}
        .stroke18 {fill: #808063;}
        .stroke19 {fill: #808062;}
        .stroke20 {fill: #808061;}
        text {
            font-family: Helvetica;
            font-size: 50px;
            fill: #808060;
            paint-order: stroke;
            stroke: #000000;
            stroke-width: 4px;
            stroke-linecap: butt;
            stroke-linejoin: miter;
            font-weight: 800;
        }
    </style>

    <path d="M 220 491 Q 275 602 333 714 Q 340 727 330 742 Q 291 796 253 792 Q 234 791 244 768 Q 251 735 249 708 Q 248 707 248 703 Q 206 514 24 291 Q 18 284 18 277 Q 19 270 25 272 Q 85 290 194 450 L 220 491 Z" class="stroke1"/>
    <path d="M 194 450 Q 221 386 203 206 Q 196 154 182 99 Q 172 54 206 3 Q 207 3 209 0 Q 227 -16 239 11 Q 254 51 253 98 Q 253 354 261 412 Q 268 439 259 450 Q 222 490 220 491 C 199 512 184 478 194 450 Z" class="stroke2"/>
    <path d="M 561 736 Q 571 752 583 763 Q 592 773 587 786 Q 583 799 554 819 Q 529 835 510 835 Q 492 834 501 812 Q 514 782 504 756 Q 471 669 420 587 Q 371 508 302 422 Q 292 412 290 406 Q 287 396 301 398 Q 346 404 492 618 Q 540 702 549 716 L 561 736 Z" class="stroke3"/>
    <path d="M 549 716 Q 756 476 810 463 Q 873 454 976 471 Q 995 472 997 478 Q 1000 485 984 491 Q 932 512 870 532 Q 740 581 593 709 Q 572 728 561 736 C 537 755 529 739 549 716 Z" class="stroke4"/>
    <path d="M 454 503 Q 421 496 446 481 Q 488 460 535 478 Q 578 488 625 501 Q 646 507 649 510 Q 656 517 652 525 Q 645 535 617 540 Q 589 544 563 531 Q 541 522 515 515 Q 487 508 454 503 Z" class="stroke5"/>
    <path d="M 348 363 Q 338 366 324 366 Q 314 367 312 364 Q 308 358 316 346 Q 338 309 357 247 Q 361 228 374 216 Q 390 200 393 213 Q 394 217 394 223 L 390 252 Q 375 321 369 341 C 364 359 364 359 348 363 Z" class="stroke6"/>
    <path d="M 501 271 Q 519 331 541 346 Q 553 362 541 376 Q 478 419 426 387 Q 414 384 403 379 Q 376 370 348 363 C 319 356 340 334 369 341 Q 376 342 385 346 Q 458 365 464 362 Q 476 350 458 274 C 451 245 492 242 501 271 Z" class="stroke7"/>
    <path d="M 394 223 Q 398 223 405 225 Q 439 235 512 245 Q 521 246 521 254 Q 521 261 501 271 L 458 274 Q 454 274 453 273 Q 417 260 390 252 C 361 243 364 220 394 223 Z" class="stroke8"/>
    <path d="M 587 414 Q 577 417 559 419 Q 549 422 546 417 Q 542 411 549 399 Q 571 360 586 297 Q 590 278 602 265 Q 618 247 621 261 Q 622 267 623 274 L 621 303 Q 609 370 606 390 C 603 410 603 410 587 414 Z" class="stroke9"/>
    <path d="M 744 322 Q 762 379 789 398 Q 802 414 789 429 Q 776 439 730 458 Q 715 464 697 456 Q 669 441 642 431 Q 615 422 587 414 C 558 406 577 382 606 390 Q 609 391 696 416 Q 706 419 710 416 Q 717 409 699 328 C 693 299 735 294 744 322 Z" class="stroke10"/>
    <path d="M 623 274 Q 629 274 637 276 Q 673 286 751 297 Q 761 298 761 306 Q 761 313 744 322 L 699 328 Q 695 328 693 326 Q 653 313 621 303 C 592 294 593 272 623 274 Z" class="stroke11"/>
    <path d="M 434 125 Q 447 147 463 162 Q 472 172 462 184 Q 429 214 410 211 Q 401 210 402 199 Q 408 121 315 37 Q 293 18 281 5 Q 274 -5 286 -3 Q 332 3 409 90 Q 412 96 421 107 L 434 125 Z" class="stroke12"/>
    <path d="M 421 107 Q 425 100 438 86 Q 481 31 492 28 Q 499 27 505 37 Q 511 47 508 71 Q 507 87 486 101 Q 444 125 434 125 C 407 129 407 129 421 107 Z" class="stroke13"/>
    <path d="M 660 168 Q 676 193 692 213 Q 701 222 690 233 Q 657 260 639 257 Q 632 256 632 244 Q 641 178 568 103 Q 553 90 545 77 Q 538 67 550 69 Q 595 75 651 154 L 660 168 Z" class="stroke14"/>
    <path d="M 651 154 Q 652 145 660 137 Q 709 91 767 23 Q 782 4 797 -2 Q 806 -3 813 7 Q 826 19 814 63 Q 805 109 662 168 L 660 168 C 646 172 646 172 651 154 Z" class="stroke15"/>
    
    
    
    
    
    
    
    
    
    
    
    
    
    
    </g>
</svg>