<svg version="1.1" viewBox="0 0 1024 1024" xmlns="http://www.w3.org/2000/svg">
  
  <g transform="scale(1, -1) translate(0, -900)">
    <style type="text/css">
        .stroke1 {fill: #808080;}
        .stroke2 {fill: #808079;}
        .stroke3 {fill: #808078;}
        .stroke4 {fill: #808077;}
        .stroke5 {fill: #808076;}
        .stroke6 {fill: #808075;}
        .stroke7 {fill: #808074;}
        .stroke8 {fill: #808073;}
        .stroke9 {fill: #808072;}
        .stroke10 {fill: #808071;}
        .stroke11 {fill: #808070;}
        .stroke12 {fill: #808069;}
        .stroke13 {fill: #808068;}
        .stroke14 {fill: #808067;}
        .stroke15 {fill: #808066;}
        .stroke16 {fill: #808065;}
        .stroke17 {fill: #808064;}
        .stroke18 {fill: #808063;}
        .stroke19 {fill: #808062;}
        .stroke20 {fill: #808061;}
        text {
            font-family: Helvetica;
            font-size: 50px;
            fill: #808060;
            paint-order: stroke;
            stroke: #000000;
            stroke-width: 4px;
            stroke-linecap: butt;
            stroke-linejoin: miter;
            font-weight: 800;
        }
    </style>

    <path d="M 235 536 Q 272 593 315 665 Q 340 717 365 742 Q 375 752 369 767 Q 365 780 334 803 Q 306 822 285 820 Q 266 819 275 795 Q 291 762 279 734 Q 243 637 187 547 Q 133 460 58 364 Q 48 354 46 347 Q 42 335 57 338 Q 100 350 210 502 L 235 536 Z" class="stroke1"/>
    <path d="M 210 502 Q 240 433 240 396 Q 240 264 236 208 Q 229 150 215 87 Q 202 41 237 -11 Q 238 -15 243 -19 Q 262 -37 275 -7 Q 291 36 290 86 Q 283 375 291 441 Q 300 471 288 482 Q 248 528 235 536 C 212 555 198 530 210 502 Z" class="stroke2"/>
    <path d="M 643 685 Q 658 800 669 828 Q 673 838 655 851 Q 624 867 603 872 Q 590 875 582 867 Q 575 861 582 848 Q 601 824 605 678 C 606 648 639 655 643 685 Z" class="stroke3"/>
    <path d="M 473 768 Q 489 746 507 723 Q 520 708 535 707 Q 547 704 553 720 Q 556 732 548 750 Q 541 763 522 772 Q 492 788 479 791 Q 472 792 470 783 Q 469 776 473 768 Z" class="stroke4"/>
    <path d="M 747 806 Q 734 781 703 740 Q 699 733 703 727 Q 710 726 717 730 Q 781 773 813 789 Q 829 793 825 803 Q 819 818 802 833 Q 784 849 764 851 Q 751 850 752 833 Q 755 820 747 806 Z" class="stroke5"/>
    <path d="M 433 649 L 433 650 Q 423 671 412 678 Q 396 691 394 668 Q 400 634 353 580 Q 337 559 361 514 Q 377 495 390 516 Q 403 537 412 567 Q 422 604 432 624 L 433 649 Z" class="stroke6"/>
    <path d="M 432 624 Q 454 614 476 619 Q 602 661 774 679 Q 808 683 820 682 Q 833 675 830 666 Q 830 663 809 605 Q 802 592 807 588 Q 814 585 830 596 Q 876 627 914 639 Q 945 648 945 656 Q 942 666 880 709 Q 858 727 774 708 Q 701 699 643 685 L 605 678 Q 565 674 520 664 Q 475 655 433 649 C 403 645 403 633 432 624 Z" class="stroke7"/>
    <path d="M 524 588 Q 515 592 492 595 Q 483 598 480 594 Q 476 588 482 576 Q 501 543 514 488 Q 517 472 527 461 Q 542 445 545 456 Q 546 463 547 473 L 545 500 Q 538 546 536 563 C 533 585 533 585 524 588 Z" class="stroke8"/>
    <path d="M 726 527 Q 742 558 766 572 Q 779 585 769 600 Q 709 646 665 624 Q 599 602 524 588 C 495 582 507 558 536 563 Q 545 564 556 568 Q 688 598 696 591 Q 702 582 684 531 C 674 503 711 501 726 527 Z" class="stroke9"/>
    <path d="M 547 473 Q 557 473 569 474 Q 621 486 738 498 Q 747 499 748 506 Q 748 513 726 527 L 684 531 Q 683 532 681 531 Q 606 510 545 500 C 515 495 517 473 547 473 Z" class="stroke10"/>
    <path d="M 510 421 Q 503 436 465 444 Q 458 445 453 438 Q 450 434 457 425 Q 458 421 461 416 Q 461 413 466 401 Q 490 341 470 225 Q 449 174 483 134 Q 493 124 500 135 Q 504 141 508 150 L 514 183 Q 517 198 517 243 L 517 260 Q 516 285 515 319 L 515 342 Q 515 376 516 392 L 510 421 Z" class="stroke11"/>
    <path d="M 719 168 Q 720 162 725 156 Q 738 129 746 130 Q 759 131 773 161 Q 786 186 782 229 Q 770 370 794 406 Q 804 422 796 431 Q 771 453 725 472 Q 710 476 688 468 Q 631 441 510 421 C 480 416 488 382 516 392 Q 537 402 678 429 Q 700 435 709 423 Q 721 408 721 360 Q 725 224 719 197 Q 718 196 717 193 C 714 179 714 179 719 168 Z" class="stroke12"/>
    <path d="M 515 319 Q 519 318 527 319 Q 599 329 651 335 Q 672 338 665 349 Q 655 362 633 367 Q 615 370 515 342 C 486 334 485 322 515 319 Z" class="stroke13"/>
    <path d="M 517 243 L 518 243 Q 524 237 538 239 Q 605 249 656 255 Q 677 258 669 269 Q 659 282 637 286 Q 615 290 517 260 C 497 254 497 254 517 243 Z" class="stroke14"/>
    <path d="M 508 150 Q 512 149 520 150 Q 583 162 719 168 C 743 169 739 173 717 193 Q 713 197 704 204 Q 689 213 660 207 Q 579 191 514 183 C 484 179 478 152 508 150 Z" class="stroke15"/>
    <path d="M 510 93 Q 506 51 389 -48 Q 368 -61 395 -60 Q 458 -60 550 31 Q 568 49 579 56 Q 591 66 588 76 Q 587 89 561 98 Q 533 108 521 107 Q 514 106 510 93 Z" class="stroke16"/>
    <path d="M 686 86 Q 732 37 785 -31 Q 798 -52 813 -57 Q 820 -58 829 -50 Q 842 -38 833 4 Q 824 46 764 77 Q 755 86 690 115 Q 681 121 679 109 Q 678 96 686 86 Z" class="stroke17"/>
    
    
    
    
    
    
    
    
    
    
    
    
    
    
    
    
    </g>
</svg>