<svg version="1.1" viewBox="0 0 1024 1024" xmlns="http://www.w3.org/2000/svg">
  
  <g transform="scale(1, -1) translate(0, -900)">
    <style type="text/css">
        .stroke1 {fill: #808080;}
        .stroke2 {fill: #808079;}
        .stroke3 {fill: #808078;}
        .stroke4 {fill: #808077;}
        .stroke5 {fill: #808076;}
        .stroke6 {fill: #808075;}
        .stroke7 {fill: #808074;}
        .stroke8 {fill: #808073;}
        .stroke9 {fill: #808072;}
        .stroke10 {fill: #808071;}
        .stroke11 {fill: #808070;}
        .stroke12 {fill: #808069;}
        .stroke13 {fill: #808068;}
        .stroke14 {fill: #808067;}
        .stroke15 {fill: #808066;}
        .stroke16 {fill: #808065;}
        .stroke17 {fill: #808064;}
        .stroke18 {fill: #808063;}
        .stroke19 {fill: #808062;}
        .stroke20 {fill: #808061;}
        text {
            font-family: Helvetica;
            font-size: 50px;
            fill: #808060;
            paint-order: stroke;
            stroke: #000000;
            stroke-width: 4px;
            stroke-linecap: butt;
            stroke-linejoin: miter;
            font-weight: 800;
        }
    </style>

    <path d="M 365 586 Q 368 598 406 663 Q 415 676 399 688 Q 354 718 332 710 Q 322 707 325 693 Q 343 618 271 511 Q 268 511 240 468 Q 233 452 247 458 Q 290 471 351 562 L 365 586 Z" class="stroke1"/>
    <path d="M 538 574 Q 700 613 707 619 Q 717 628 711 636 Q 704 648 674 655 Q 643 659 613 647 Q 579 635 542 623 L 489 608 Q 429 595 365 586 C 335 582 323 574 351 562 Q 387 543 463 557 Q 473 560 488 562 L 538 574 Z" class="stroke2"/>
    <path d="M 526 433 Q 532 506 538 574 L 542 623 Q 546 695 567 784 Q 571 794 550 811 Q 514 830 489 836 Q 473 840 464 831 Q 457 824 464 807 Q 486 774 486 752 Q 489 683 489 608 L 488 562 Q 487 498 482 425 C 480 395 524 403 526 433 Z" class="stroke3"/>
    <path d="M 570 401 Q 592 404 812 419 Q 833 420 837 428 Q 841 441 825 453 Q 771 489 733 480 Q 654 459 526 433 L 482 425 Q 346 401 191 375 Q 170 372 187 355 Q 217 328 257 338 Q 368 375 520 395 L 570 401 Z" class="stroke4"/>
    <path d="M 388 341 Q 388 227 260 111 Q 257 110 255 107 Q 219 73 134 18 Q 125 11 131 7 Q 162 -5 263 57 Q 357 111 432 250 Q 445 272 462 293 Q 472 302 467 313 Q 463 325 433 345 Q 412 361 402 359 Q 389 358 388 341 Z" class="stroke5"/>
    <path d="M 974 49 Q 956 101 947 192 Q 946 208 938 214 Q 929 220 925 198 Q 906 87 890 67 Q 857 31 729 31 Q 659 32 628 45 Q 603 58 596 76 Q 572 143 590 261 Q 594 306 607 332 Q 622 371 570 401 C 546 419 508 422 520 395 Q 544 353 539 295 Q 533 79 563 34 Q 606 -32 831 -22 Q 919 -18 955 0 Q 986 16 974 49 Z" class="stroke6"/>
    
    
    
    
    
    </g>
</svg>