<svg version="1.1" viewBox="0 0 1024 1024" xmlns="http://www.w3.org/2000/svg">
  
  <g transform="scale(1, -1) translate(0, -900)">
    <style type="text/css">
        .stroke1 {fill: #808080;}
        .stroke2 {fill: #808079;}
        .stroke3 {fill: #808078;}
        .stroke4 {fill: #808077;}
        .stroke5 {fill: #808076;}
        .stroke6 {fill: #808075;}
        .stroke7 {fill: #808074;}
        .stroke8 {fill: #808073;}
        .stroke9 {fill: #808072;}
        .stroke10 {fill: #808071;}
        .stroke11 {fill: #808070;}
        .stroke12 {fill: #808069;}
        .stroke13 {fill: #808068;}
        .stroke14 {fill: #808067;}
        .stroke15 {fill: #808066;}
        .stroke16 {fill: #808065;}
        .stroke17 {fill: #808064;}
        .stroke18 {fill: #808063;}
        .stroke19 {fill: #808062;}
        .stroke20 {fill: #808061;}
        text {
            font-family: Helvetica;
            font-size: 50px;
            fill: #808060;
            paint-order: stroke;
            stroke: #000000;
            stroke-width: 4px;
            stroke-linecap: butt;
            stroke-linejoin: miter;
            font-weight: 800;
        }
    </style>

    <path d="M 345 707 Q 305 697 335 680 Q 378 659 457 677 Q 530 695 609 716 Q 646 726 652 732 Q 662 742 656 751 Q 647 764 614 770 Q 581 774 475 735 Q 418 717 345 707 Z" class="stroke1"/>
    <path d="M 526 493 Q 553 502 740 536 Q 753 535 762 550 Q 763 563 736 574 Q 696 596 614 565 Q 452 519 256 478 Q 220 472 183 465 Q 152 459 177 441 Q 214 411 248 423 Q 285 433 329 444 L 363 453 Q 418 469 485 484 L 526 493 Z" class="stroke2"/>
    <path d="M 329 444 Q 329 375 325 358 Q 279 217 148 101 Q 129 85 107 66 Q 100 59 107 55 Q 141 49 234 126 Q 324 195 383 352 Q 393 377 407 402 Q 414 412 409 422 Q 397 441 363 453 C 335 464 329 467 329 444 Z" class="stroke3"/>
    <path d="M 961 112 Q 939 164 924 253 Q 921 269 914 274 Q 905 278 902 258 Q 892 146 877 126 Q 847 90 702 86 Q 624 89 592 102 Q 564 117 557 136 Q 527 220 554 362 Q 560 396 569 419 Q 587 462 526 493 C 501 509 474 512 485 484 Q 506 442 501 383 Q 492 140 520 100 Q 529 84 545 72 Q 605 26 812 36 Q 906 40 943 60 Q 976 78 961 112 Z" class="stroke4"/>
    
    
    
    </g>
</svg>