<svg version="1.1" viewBox="0 0 1024 1024" xmlns="http://www.w3.org/2000/svg">
  
  <g transform="scale(1, -1) translate(0, -900)">
    <style type="text/css">
        .stroke1 {fill: #808080;}
        .stroke2 {fill: #808079;}
        .stroke3 {fill: #808078;}
        .stroke4 {fill: #808077;}
        .stroke5 {fill: #808076;}
        .stroke6 {fill: #808075;}
        .stroke7 {fill: #808074;}
        .stroke8 {fill: #808073;}
        .stroke9 {fill: #808072;}
        .stroke10 {fill: #808071;}
        .stroke11 {fill: #808070;}
        .stroke12 {fill: #808069;}
        .stroke13 {fill: #808068;}
        .stroke14 {fill: #808067;}
        .stroke15 {fill: #808066;}
        .stroke16 {fill: #808065;}
        .stroke17 {fill: #808064;}
        .stroke18 {fill: #808063;}
        .stroke19 {fill: #808062;}
        .stroke20 {fill: #808061;}
        text {
            font-family: Helvetica;
            font-size: 50px;
            fill: #808060;
            paint-order: stroke;
            stroke: #000000;
            stroke-width: 4px;
            stroke-linecap: butt;
            stroke-linejoin: miter;
            font-weight: 800;
        }
    </style>

    <path d="M 472 702 Q 502 677 534 645 Q 552 629 572 630 Q 585 631 592 649 Q 598 668 585 705 Q 578 727 541 744 Q 447 771 436 764 Q 429 758 432 742 Q 436 729 472 702 Z" class="stroke1"/>
    <path d="M 128 467 Q 103 464 121 443 Q 137 427 159 419 Q 184 412 205 418 Q 427 478 848 478 Q 875 478 901 477 Q 925 477 931 487 Q 938 502 918 519 Q 846 571 778 551 Q 514 509 128 467 Z" class="stroke2"/>
    <path d="M 346 344 Q 342 241 202 138 Q 169 116 152 101 Q 139 86 157 88 Q 220 85 332 184 Q 405 257 428 279 Q 443 291 430 311 Q 391 359 360 361 Q 347 361 346 344 Z" class="stroke3"/>
    <path d="M 611 302 Q 675 223 752 114 Q 767 86 785 79 Q 795 76 806 87 Q 822 100 815 155 Q 811 224 623 335 Q 620 338 618 338 Q 608 347 603 332 Q 600 316 611 302 Z" class="stroke4"/>
    
    
    
    </g>
</svg>