<svg version="1.1" viewBox="0 0 1024 1024" xmlns="http://www.w3.org/2000/svg">
  
  <g transform="scale(1, -1) translate(0, -900)">
    <style type="text/css">
        .stroke1 {fill: #808080;}
        .stroke2 {fill: #808079;}
        .stroke3 {fill: #808078;}
        .stroke4 {fill: #808077;}
        .stroke5 {fill: #808076;}
        .stroke6 {fill: #808075;}
        .stroke7 {fill: #808074;}
        .stroke8 {fill: #808073;}
        .stroke9 {fill: #808072;}
        .stroke10 {fill: #808071;}
        .stroke11 {fill: #808070;}
        .stroke12 {fill: #808069;}
        .stroke13 {fill: #808068;}
        .stroke14 {fill: #808067;}
        .stroke15 {fill: #808066;}
        .stroke16 {fill: #808065;}
        .stroke17 {fill: #808064;}
        .stroke18 {fill: #808063;}
        .stroke19 {fill: #808062;}
        .stroke20 {fill: #808061;}
        text {
            font-family: Helvetica;
            font-size: 50px;
            fill: #808060;
            paint-order: stroke;
            stroke: #000000;
            stroke-width: 4px;
            stroke-linecap: butt;
            stroke-linejoin: miter;
            font-weight: 800;
        }
    </style>

    <path d="M 317 465 Q 318 338 155 190 Q 136 178 79 126 Q 67 110 85 113 Q 110 114 146 137 Q 258 209 325 305 Q 368 363 406 409 Q 419 422 404 441 Q 355 486 329 484 Q 316 483 317 465 Z" class="stroke1"/>
    <path d="M 446 687 Q 507 636 530 577 Q 608 343 711 190 Q 732 163 846 151 Q 892 147 958 141 Q 983 140 984 146 Q 984 152 963 163 Q 756 269 675 396 Q 621 480 551 644 Q 530 690 483 702 Q 449 709 445 702 Q 438 692 446 687 Z" class="stroke2"/>
    
    </g>
</svg>