<svg version="1.1" viewBox="0 0 1024 1024" xmlns="http://www.w3.org/2000/svg">
  
  <g transform="scale(1, -1) translate(0, -900)">
    <style type="text/css">
        .stroke1 {fill: #808080;}
        .stroke2 {fill: #808079;}
        .stroke3 {fill: #808078;}
        .stroke4 {fill: #808077;}
        .stroke5 {fill: #808076;}
        .stroke6 {fill: #808075;}
        .stroke7 {fill: #808074;}
        .stroke8 {fill: #808073;}
        .stroke9 {fill: #808072;}
        .stroke10 {fill: #808071;}
        .stroke11 {fill: #808070;}
        .stroke12 {fill: #808069;}
        .stroke13 {fill: #808068;}
        .stroke14 {fill: #808067;}
        .stroke15 {fill: #808066;}
        .stroke16 {fill: #808065;}
        .stroke17 {fill: #808064;}
        .stroke18 {fill: #808063;}
        .stroke19 {fill: #808062;}
        .stroke20 {fill: #808061;}
        text {
            font-family: Helvetica;
            font-size: 50px;
            fill: #808060;
            paint-order: stroke;
            stroke: #000000;
            stroke-width: 4px;
            stroke-linecap: butt;
            stroke-linejoin: miter;
            font-weight: 800;
        }
    </style>

    <path d="M 234 578 Q 271 544 313 502 Q 326 487 343 487 Q 355 487 361 501 Q 367 516 359 548 Q 349 593 231 629 Q 215 633 208 631 Q 202 627 204 614 Q 207 602 234 578 Z" class="stroke1"/>
    <path d="M 405 686 Q 444 646 486 600 Q 498 587 512 585 Q 522 585 529 597 Q 535 610 529 640 Q 525 668 488 693 Q 449 714 405 732 Q 390 736 384 735 Q 380 732 379 719 Q 380 709 405 686 Z" class="stroke2"/>
    <path d="M 586 416 Q 620 456 698 597 Q 717 634 754 682 Q 773 697 762 710 Q 752 731 716 756 Q 700 769 678 763 Q 665 759 672 744 Q 679 707 666 668 Q 635 577 564 450 Q 554 428 552 412 C 546 383 567 393 586 416 Z" class="stroke3"/>
    <path d="M 504 364 Q 768 385 841 377 Q 941 374 943 374 Q 943 377 945 377 Q 954 390 941 403 Q 868 469 803 447 Q 728 435 586 416 L 552 412 Q 480 409 282 385 Q 209 375 98 374 Q 83 374 82 362 Q 81 349 100 334 Q 145 301 183 313 Q 202 320 276 331 Q 378 353 504 364 Z" class="stroke4"/>
    <path d="M 348 265 Q 338 192 173 50 Q 151 32 180 37 Q 250 41 378 173 Q 384 188 429 227 Q 441 240 438 251 Q 434 266 405 274 Q 372 286 359 281 Q 350 280 348 265 Z" class="stroke5"/>
    <path d="M 585 266 Q 669 181 766 58 Q 782 33 801 26 Q 811 23 821 35 Q 837 50 826 103 Q 814 175 590 304 Q 580 311 576 296 Q 573 280 585 266 Z" class="stroke6"/>
    
    
    
    
    
    </g>
</svg>