<svg version="1.1" viewBox="0 0 1024 1024" xmlns="http://www.w3.org/2000/svg">
  
  <g transform="scale(1, -1) translate(0, -900)">
    <style type="text/css">
        .stroke1 {fill: #808080;}
        .stroke2 {fill: #808079;}
        .stroke3 {fill: #808078;}
        .stroke4 {fill: #808077;}
        .stroke5 {fill: #808076;}
        .stroke6 {fill: #808075;}
        .stroke7 {fill: #808074;}
        .stroke8 {fill: #808073;}
        .stroke9 {fill: #808072;}
        .stroke10 {fill: #808071;}
        .stroke11 {fill: #808070;}
        .stroke12 {fill: #808069;}
        .stroke13 {fill: #808068;}
        .stroke14 {fill: #808067;}
        .stroke15 {fill: #808066;}
        .stroke16 {fill: #808065;}
        .stroke17 {fill: #808064;}
        .stroke18 {fill: #808063;}
        .stroke19 {fill: #808062;}
        .stroke20 {fill: #808061;}
        text {
            font-family: Helvetica;
            font-size: 50px;
            fill: #808060;
            paint-order: stroke;
            stroke: #000000;
            stroke-width: 4px;
            stroke-linecap: butt;
            stroke-linejoin: miter;
            font-weight: 800;
        }
    </style>

    <path d="M 279 588 Q 258 604 234 613 Q 224 616 217 607 Q 213 601 221 590 Q 266 473 221 221 Q 214 187 201 150 Q 192 123 196 103 Q 205 67 216 53 Q 228 38 238 53 Q 274 90 275 215 Q 287 494 295 542 C 299 572 299 574 279 588 Z" class="stroke1"/>
    <path d="M 528 587 Q 699 620 718 601 Q 731 594 736 536 Q 752 341 743 120 Q 742 87 730 79 Q 715 69 639 86 Q 621 90 622 79 Q 623 70 638 64 Q 705 15 741 -24 Q 765 -45 778 -42 Q 791 -39 804 -7 Q 820 42 819 114 Q 800 403 800 510 Q 800 553 812 580 Q 825 605 814 617 Q 801 633 749 660 Q 727 670 706 665 Q 649 646 532 622 L 475 612 Q 378 597 279 588 C 249 585 266 536 295 542 Q 302 542 310 544 Q 385 562 471 577 L 528 587 Z" class="stroke2"/>
    <path d="M 503 457 Q 519 521 528 587 L 532 622 Q 541 733 557 779 Q 563 791 554 799 Q 535 817 498 833 Q 476 843 458 838 Q 436 831 453 812 Q 481 781 482 748 Q 481 673 475 612 L 471 577 Q 446 412 377 325 Q 353 298 313 262 Q 300 255 297 250 Q 293 243 310 244 Q 338 241 415 303 Q 467 348 495 433 L 503 457 Z" class="stroke3"/>
    <path d="M 495 433 Q 562 372 642 285 Q 655 266 670 262 Q 677 261 685 270 Q 695 283 685 322 Q 675 376 503 457 C 476 470 473 453 495 433 Z" class="stroke4"/>
    
    
    
    </g>
</svg>