<svg version="1.1" viewBox="0 0 1024 1024" xmlns="http://www.w3.org/2000/svg">
  
  <g transform="scale(1, -1) translate(0, -900)">
    <style type="text/css">
        .stroke1 {fill: #808080;}
        .stroke2 {fill: #808079;}
        .stroke3 {fill: #808078;}
        .stroke4 {fill: #808077;}
        .stroke5 {fill: #808076;}
        .stroke6 {fill: #808075;}
        .stroke7 {fill: #808074;}
        .stroke8 {fill: #808073;}
        .stroke9 {fill: #808072;}
        .stroke10 {fill: #808071;}
        .stroke11 {fill: #808070;}
        .stroke12 {fill: #808069;}
        .stroke13 {fill: #808068;}
        .stroke14 {fill: #808067;}
        .stroke15 {fill: #808066;}
        .stroke16 {fill: #808065;}
        .stroke17 {fill: #808064;}
        .stroke18 {fill: #808063;}
        .stroke19 {fill: #808062;}
        .stroke20 {fill: #808061;}
        text {
            font-family: Helvetica;
            font-size: 50px;
            fill: #808060;
            paint-order: stroke;
            stroke: #000000;
            stroke-width: 4px;
            stroke-linecap: butt;
            stroke-linejoin: miter;
            font-weight: 800;
        }
    </style>

    <path d="M 327 604 Q 306 618 282 626 Q 278 627 272 625 Q 257 619 269 602 Q 273 590 276 574 Q 299 476 287 257 Q 282 180 258 106 Q 240 48 276 5 Q 289 -10 299 5 Q 333 47 335 243 L 339 294 L 340 333 Q 340 359 340 376 Q 341 515 349 563 C 352 589 352 589 327 604 Z" class="stroke1"/>
    <path d="M 531 645 L 327 604 C 298 598 320 556 349 563 Q 355 564 359 564 L 478 598 L 531 610 Q 649 640 664 627 Q 677 619 682 559 Q 684 543 685 526 Q 693 421 694 377 L 694 336 L 694 318 L 686 112 Q 686 77 673 67 Q 655 55 572 78 Q 555 82 557 71 Q 557 63 570 57 Q 607 31 637 6 L 691 -43 Q 708 -57 720 -55 Q 735 -51 745 -24 Q 762 24 761 102 Q 737 557 758 604 Q 770 625 759 639 Q 747 655 696 679 Q 676 690 655 684 Q 620 670 531 645 Z" class="stroke2"/>
    <path d="M 525 454 L 531 610 C 532 640 478 628 478 598 Q 478 523 478 441 L 478 431 Q 478 361 478 351 C 478 321 522 327 523 357 L 525 454 Z" class="stroke3"/>
    <path d="M 339 294 Q 457 318 694 336 C 724 338 724 380 694 377 Q 587 367 523 357 L 478 351 Q 400 344 340 333 C 310 328 310 288 339 294 Z" class="stroke4"/>
    
    
    
    </g>
</svg>