<svg version="1.1" viewBox="0 0 1024 1024" xmlns="http://www.w3.org/2000/svg">
  
  <g transform="scale(1, -1) translate(0, -900)">
    <style type="text/css">
        .stroke1 {fill: #808080;}
        .stroke2 {fill: #808079;}
        .stroke3 {fill: #808078;}
        .stroke4 {fill: #808077;}
        .stroke5 {fill: #808076;}
        .stroke6 {fill: #808075;}
        .stroke7 {fill: #808074;}
        .stroke8 {fill: #808073;}
        .stroke9 {fill: #808072;}
        .stroke10 {fill: #808071;}
        .stroke11 {fill: #808070;}
        .stroke12 {fill: #808069;}
        .stroke13 {fill: #808068;}
        .stroke14 {fill: #808067;}
        .stroke15 {fill: #808066;}
        .stroke16 {fill: #808065;}
        .stroke17 {fill: #808064;}
        .stroke18 {fill: #808063;}
        .stroke19 {fill: #808062;}
        .stroke20 {fill: #808061;}
        text {
            font-family: Helvetica;
            font-size: 50px;
            fill: #808060;
            paint-order: stroke;
            stroke: #000000;
            stroke-width: 4px;
            stroke-linecap: butt;
            stroke-linejoin: miter;
            font-weight: 800;
        }
    </style>

    <path d="M 277 709 Q 255 728 228 737 Q 218 740 210 730 Q 206 724 214 712 Q 238 648 237 571 Q 234 283 183 143 Q 173 113 178 92 Q 187 53 199 38 Q 211 22 223 37 Q 259 77 266 225 Q 284 624 294 668 C 298 694 298 694 277 709 Z" class="stroke1"/>
    <path d="M 294 668 Q 438 704 688 738 Q 710 741 720 728 Q 736 719 742 649 Q 761 411 752 141 Q 752 101 737 90 Q 724 80 656 94 Q 637 98 638 87 Q 639 78 654 71 Q 715 22 747 -17 Q 771 -39 785 -36 Q 800 -32 812 0 Q 830 52 828 127 Q 806 497 806 634 Q 806 677 819 703 Q 832 727 821 740 Q 809 756 757 783 Q 736 793 715 788 Q 552 736 277 709 C 247 706 265 661 294 668 Z" class="stroke2"/>
    <path d="M 402 638 Q 406 569 336 501 Q 318 485 309 473 Q 302 463 314 465 Q 365 471 426 554 Q 445 581 464 602 Q 473 612 462 624 Q 429 654 410 651 Q 401 650 402 638 Z" class="stroke3"/>
    <path d="M 576 644 Q 583 660 571 673 Q 550 691 528 695 Q 515 696 510 692 Q 506 688 513 675 Q 519 660 520 577 Q 519 546 536 529 Q 555 504 596 499 Q 639 492 699 501 Q 732 505 742 515 Q 752 525 745 533 Q 735 545 705 558 Q 689 564 674 552 Q 625 519 575 543 Q 563 550 562 575 Q 561 618 576 644 Z" class="stroke4"/>
    <path d="M 392 406 Q 382 410 366 412 Q 356 415 352 410 Q 348 406 355 390 Q 380 338 396 253 Q 399 228 413 210 Q 429 191 434 205 Q 438 218 436 240 L 431 273 Q 418 355 415 379 C 412 399 412 399 392 406 Z" class="stroke5"/>
    <path d="M 602 299 Q 620 362 652 385 Q 667 401 654 418 Q 585 467 536 443 Q 466 419 392 406 C 362 401 386 373 415 379 Q 424 380 434 384 Q 492 396 547 407 Q 562 410 567 404 Q 576 397 573 379 Q 566 339 555 303 C 547 274 593 270 602 299 Z" class="stroke6"/>
    <path d="M 436 240 Q 445 239 456 241 Q 507 254 617 265 Q 627 266 628 276 Q 628 283 602 299 L 555 303 Q 552 303 551 302 Q 482 283 431 273 C 402 267 406 241 436 240 Z" class="stroke7"/>
    
    
    
    
    
    
    </g>
</svg>