<svg version="1.1" viewBox="0 0 1024 1024" xmlns="http://www.w3.org/2000/svg">
  
  <g transform="scale(1, -1) translate(0, -900)">
    <style type="text/css">
        .stroke1 {fill: #808080;}
        .stroke2 {fill: #808079;}
        .stroke3 {fill: #808078;}
        .stroke4 {fill: #808077;}
        .stroke5 {fill: #808076;}
        .stroke6 {fill: #808075;}
        .stroke7 {fill: #808074;}
        .stroke8 {fill: #808073;}
        .stroke9 {fill: #808072;}
        .stroke10 {fill: #808071;}
        .stroke11 {fill: #808070;}
        .stroke12 {fill: #808069;}
        .stroke13 {fill: #808068;}
        .stroke14 {fill: #808067;}
        .stroke15 {fill: #808066;}
        .stroke16 {fill: #808065;}
        .stroke17 {fill: #808064;}
        .stroke18 {fill: #808063;}
        .stroke19 {fill: #808062;}
        .stroke20 {fill: #808061;}
        text {
            font-family: Helvetica;
            font-size: 50px;
            fill: #808060;
            paint-order: stroke;
            stroke: #000000;
            stroke-width: 4px;
            stroke-linecap: butt;
            stroke-linejoin: miter;
            font-weight: 800;
        }
    </style>

    <path d="M 183 646 Q 214 624 245 596 Q 261 583 277 585 Q 287 586 293 600 Q 297 616 285 647 Q 273 680 175 696 Q 159 699 152 695 Q 146 691 149 677 Q 153 667 183 646 Z" class="stroke1"/>
    <path d="M 285 453 Q 191 306 128 226 Q 115 211 102 214 Q 86 217 80 198 Q 77 171 92 151 Q 108 123 124 113 Q 137 103 148 107 Q 158 111 161 121 Q 173 170 190 207 Q 242 319 291 424 Q 301 443 300 452 Q 299 470 285 453 Z" class="stroke2"/>
    <path d="M 637 840 Q 568 791 366 728 Q 359 719 366 716 Q 400 706 607 764 Q 691 792 742 796 Q 761 795 766 802 Q 770 814 760 827 Q 739 846 694 869 Q 679 879 665 880 Q 656 876 654 865 Q 653 849 637 840 Z" class="stroke3"/>
    <path d="M 395 633 Q 428 582 441 580 Q 451 579 457 589 Q 464 601 461 628 Q 460 641 440 654 Q 389 681 380 679 Q 376 676 374 665 Q 375 655 395 633 Z" class="stroke4"/>
    <path d="M 519 680 Q 544 632 567 621 Q 579 617 588 625 Q 595 635 595 649 Q 594 668 581 682 L 532 711 Q 520 717 514 714 Q 510 714 509 704 Q 509 694 519 680 Z" class="stroke5"/>
    <path d="M 655 582 Q 739 661 786 695 Q 804 702 798 712 Q 791 728 770 746 Q 748 762 725 763 Q 710 762 713 741 Q 717 728 709 710 Q 675 653 608 566 C 590 542 633 561 655 582 Z" class="stroke6"/>
    <path d="M 748 350 Q 758 399 770 431 L 792 484 Q 807 511 824 526 Q 842 547 825 565 Q 807 578 750 604 Q 729 613 655 582 L 608 566 Q 385 523 374 520 Q 355 519 358 507 Q 361 498 382 492 Q 410 479 450 494 Q 492 503 536 512 L 575 521 Q 627 534 680 545 Q 708 552 721 541 Q 736 526 726 469 L 717 426 Q 708 389 700 355 C 693 326 742 321 748 350 Z" class="stroke7"/>
    <path d="M 770 431 Q 819 437 878 438 Q 944 441 949 450 Q 953 462 937 474 Q 879 513 816 490 Q 804 489 792 484 L 726 469 Q 674 459 615 446 Q 614 446 614 445 L 553 434 Q 447 415 327 394 Q 308 391 323 375 Q 336 362 354 358 Q 375 354 390 359 Q 465 384 553 400 L 611 410 Q 657 420 717 426 L 770 431 Z" class="stroke8"/>
    <path d="M 553 321 Q 465 305 389 294 Q 365 291 380 272 Q 387 262 399 258 Q 411 255 426 259 Q 475 272 553 282 L 606 289 Q 676 301 766 309 Q 778 310 780 321 Q 780 330 748 350 L 700 355 Q 697 356 607 333 L 553 321 Z" class="stroke9"/>
    <path d="M 536 512 Q 537 506 543 498 Q 553 473 553 434 L 553 400 Q 553 366 553 321 L 553 282 Q 552 200 551 87 Q 550 57 540 46 Q 530 40 504 48 Q 479 58 445 71 Q 433 75 433 68 Q 433 61 442 50 Q 508 -10 547 -56 Q 559 -66 573 -51 Q 616 10 611 132 Q 607 276 606 289 L 607 333 Q 608 373 611 410 L 614 445 Q 614 451 615 455 Q 621 482 615 492 Q 606 505 575 521 C 549 536 523 539 536 512 Z" class="stroke10"/>
    
    
    
    
    
    
    
    
    
    </g>
</svg>