<svg version="1.1" viewBox="0 0 1024 1024" xmlns="http://www.w3.org/2000/svg">
  
  <g transform="scale(1, -1) translate(0, -900)">
    <style type="text/css">
        .stroke1 {fill: #808080;}
        .stroke2 {fill: #808079;}
        .stroke3 {fill: #808078;}
        .stroke4 {fill: #808077;}
        .stroke5 {fill: #808076;}
        .stroke6 {fill: #808075;}
        .stroke7 {fill: #808074;}
        .stroke8 {fill: #808073;}
        .stroke9 {fill: #808072;}
        .stroke10 {fill: #808071;}
        .stroke11 {fill: #808070;}
        .stroke12 {fill: #808069;}
        .stroke13 {fill: #808068;}
        .stroke14 {fill: #808067;}
        .stroke15 {fill: #808066;}
        .stroke16 {fill: #808065;}
        .stroke17 {fill: #808064;}
        .stroke18 {fill: #808063;}
        .stroke19 {fill: #808062;}
        .stroke20 {fill: #808061;}
        text {
            font-family: Helvetica;
            font-size: 50px;
            fill: #808060;
            paint-order: stroke;
            stroke: #000000;
            stroke-width: 4px;
            stroke-linecap: butt;
            stroke-linejoin: miter;
            font-weight: 800;
        }
    </style>

    <path d="M 197 626 Q 221 604 247 578 Q 263 562 282 564 Q 295 565 300 581 Q 306 599 295 633 Q 283 663 190 683 Q 171 687 164 684 Q 158 680 160 663 Q 164 650 197 626 Z" class="stroke1"/>
    <path d="M 301 480 Q 216 339 157 262 Q 144 246 130 249 Q 112 250 107 230 Q 106 202 122 180 Q 141 152 158 141 Q 171 132 184 136 Q 194 140 197 152 Q 204 197 308 449 Q 318 471 316 480 Q 313 498 301 480 Z" class="stroke2"/>
    <path d="M 603 676 Q 642 686 683 693 Q 717 702 723 706 Q 730 713 727 721 Q 720 731 694 739 Q 661 745 606 722 L 559 709 Q 513 700 456 694 Q 423 688 447 673 Q 486 652 546 666 Q 552 667 560 668 L 603 676 Z" class="stroke3"/>
    <path d="M 418 569 Q 408 575 373 580 Q 361 583 359 577 Q 353 571 362 556 Q 393 495 414 393 Q 418 362 436 342 Q 454 323 458 337 Q 459 344 461 353 L 460 376 Q 459 389 456 405 Q 434 501 428 536 C 423 566 422 567 418 569 Z" class="stroke4"/>
    <path d="M 681 385 Q 700 351 716 341 Q 726 332 744 353 Q 760 375 798 500 Q 808 531 833 555 Q 846 567 836 581 Q 821 599 780 628 Q 764 637 686 619 Q 655 616 602 604 L 561 596 Q 540 595 520 589 Q 465 577 418 569 C 388 564 399 527 428 536 Q 428 537 430 537 Q 484 553 563 568 L 602 575 Q 719 600 741 585 Q 754 573 748 555 Q 721 450 702 411 C 690 383 675 394 681 385 Z" class="stroke5"/>
    <path d="M 602 465 Q 633 472 663 475 Q 685 479 677 492 Q 667 507 641 511 Q 625 512 602 507 L 562 497 Q 519 484 483 473 Q 467 469 487 455 Q 496 448 513 451 Q 538 455 562 459 L 602 465 Z" class="stroke6"/>
    <path d="M 609 373 Q 645 382 681 385 C 711 388 728 397 702 411 Q 669 432 602 407 L 561 397 Q 509 387 460 376 C 431 369 431 354 461 353 Q 471 352 487 354 Q 506 358 528 361 L 609 373 Z" class="stroke7"/>
    <path d="M 602 604 Q 602 658 603 676 L 606 722 Q 610 762 620 796 Q 629 812 625 825 Q 618 835 562 869 Q 538 885 517 869 Q 513 865 519 849 Q 556 794 558 739 Q 558 726 559 709 L 560 668 Q 560 634 561 596 L 563 568 Q 562 568 563 567 Q 562 533 562 497 L 562 459 Q 561 429 561 397 L 560 320 Q 560 160 535 64 Q 523 22 551 -38 Q 558 -56 566 -59 Q 573 -66 580 -57 Q 587 -53 597 -32 Q 607 -7 606 25 Q 603 68 602 349 L 602 407 Q 602 435 602 465 L 602 507 L 602 575 L 602 604 Z" class="stroke8"/>
    <path d="M 528 361 Q 524 340 505 314 Q 454 233 394 178 Q 345 129 241 55 Q 226 43 241 42 Q 271 39 367 100 Q 433 152 490 218 Q 499 230 560 320 C 596 373 541 405 528 361 Z" class="stroke9"/>
    <path d="M 602 349 Q 684 235 789 115 Q 808 96 839 97 Q 944 103 977 109 Q 987 112 988 117 Q 988 121 974 129 Q 823 186 754 243 Q 685 300 609 373 C 587 394 583 375 602 349 Z" class="stroke10"/>
    
    
    
    
    
    
    
    
    
    </g>
</svg>