<svg version="1.1" viewBox="0 0 1024 1024" xmlns="http://www.w3.org/2000/svg">
  
  <g transform="scale(1, -1) translate(0, -900)">
    <style type="text/css">
        .stroke1 {fill: #808080;}
        .stroke2 {fill: #808079;}
        .stroke3 {fill: #808078;}
        .stroke4 {fill: #808077;}
        .stroke5 {fill: #808076;}
        .stroke6 {fill: #808075;}
        .stroke7 {fill: #808074;}
        .stroke8 {fill: #808073;}
        .stroke9 {fill: #808072;}
        .stroke10 {fill: #808071;}
        .stroke11 {fill: #808070;}
        .stroke12 {fill: #808069;}
        .stroke13 {fill: #808068;}
        .stroke14 {fill: #808067;}
        .stroke15 {fill: #808066;}
        .stroke16 {fill: #808065;}
        .stroke17 {fill: #808064;}
        .stroke18 {fill: #808063;}
        .stroke19 {fill: #808062;}
        .stroke20 {fill: #808061;}
        text {
            font-family: Helvetica;
            font-size: 50px;
            fill: #808060;
            paint-order: stroke;
            stroke: #000000;
            stroke-width: 4px;
            stroke-linecap: butt;
            stroke-linejoin: miter;
            font-weight: 800;
        }
    </style>

    <path d="M 792 167 Q 503 155 285 107 Q 251 100 260 139 Q 267 238 275 341 Q 279 372 265 390 Q 244 412 213 429 Q 197 436 185 433 Q 170 426 182 402 Q 225 309 213 217 Q 204 127 169 87 Q 144 65 154 47 Q 167 26 189 12 Q 207 3 222 13 Q 268 64 601 110 Q 751 129 781 115 C 811 110 822 168 792 167 Z" class="stroke1"/>
    <path d="M 781 115 Q 781 94 804 49 Q 814 31 828 45 Q 855 76 854 172 Q 863 376 872 399 Q 873 408 877 414 Q 886 432 872 447 Q 850 463 811 483 Q 796 490 783 483 Q 774 479 778 463 Q 814 408 794 178 Q 793 174 792 167 L 781 115 Z" class="stroke2"/>
    
    </g>
</svg>