<svg version="1.1" viewBox="0 0 1024 1024" xmlns="http://www.w3.org/2000/svg">
  
  <g transform="scale(1, -1) translate(0, -900)">
    <style type="text/css">
        .stroke1 {fill: #808080;}
        .stroke2 {fill: #808079;}
        .stroke3 {fill: #808078;}
        .stroke4 {fill: #808077;}
        .stroke5 {fill: #808076;}
        .stroke6 {fill: #808075;}
        .stroke7 {fill: #808074;}
        .stroke8 {fill: #808073;}
        .stroke9 {fill: #808072;}
        .stroke10 {fill: #808071;}
        .stroke11 {fill: #808070;}
        .stroke12 {fill: #808069;}
        .stroke13 {fill: #808068;}
        .stroke14 {fill: #808067;}
        .stroke15 {fill: #808066;}
        .stroke16 {fill: #808065;}
        .stroke17 {fill: #808064;}
        .stroke18 {fill: #808063;}
        .stroke19 {fill: #808062;}
        .stroke20 {fill: #808061;}
        text {
            font-family: Helvetica;
            font-size: 50px;
            fill: #808060;
            paint-order: stroke;
            stroke: #000000;
            stroke-width: 4px;
            stroke-linecap: butt;
            stroke-linejoin: miter;
            font-weight: 800;
        }
    </style>

    <path d="M 474 566 Q 468 696 474 741 Q 475 760 464 771 Q 445 787 420 795 Q 408 799 400 794 Q 393 790 399 776 Q 415 748 422 717 Q 426 686 439 562 C 442 532 475 536 474 566 Z" class="stroke1"/>
    <path d="M 580 581 Q 610 746 627 785 Q 630 792 615 807 Q 590 825 570 831 Q 557 835 550 829 Q 543 823 548 810 Q 561 789 560 775 Q 559 682 545 576 C 541 546 575 551 580 581 Z" class="stroke2"/>
    <path d="M 291 661 Q 315 639 340 610 Q 350 598 364 598 Q 373 598 377 609 Q 381 621 376 645 Q 370 673 290 701 Q 277 705 272 703 Q 268 700 268 689 Q 271 679 291 661 Z" class="stroke3"/>
    <path d="M 704 728 Q 682 697 640 649 Q 634 642 639 635 Q 646 634 654 637 Q 736 686 775 704 Q 793 708 789 719 Q 785 735 766 754 Q 748 773 726 776 Q 711 776 711 757 Q 712 744 704 728 Z" class="stroke4"/>
    <path d="M 633 548 Q 708 552 802 552 Q 874 549 883 560 Q 889 572 872 586 Q 820 625 782 617 Q 703 601 580 581 L 545 576 Q 494 573 474 566 L 439 562 Q 310 547 165 530 Q 143 529 159 511 Q 172 498 191 492 Q 212 486 228 490 Q 387 535 596 546 L 633 548 Z" class="stroke5"/>
    <path d="M 367 475 Q 406 406 427 400 Q 439 397 447 412 Q 450 422 445 442 Q 439 458 419 470 Q 389 492 375 497 Q 368 501 365 491 Q 362 484 367 475 Z" class="stroke6"/>
    <path d="M 582 406 Q 603 436 624 470 Q 657 521 657 522 Q 651 534 633 548 C 610 567 592 576 596 546 Q 603 516 554 412 Q 550 405 548 398 C 538 370 565 381 582 406 Z" class="stroke7"/>
    <path d="M 531 358 Q 552 364 664 376 Q 673 375 681 386 Q 682 396 663 405 Q 630 421 582 406 L 548 398 Q 535 397 524 393 Q 470 384 352 368 Q 327 365 346 351 Q 374 330 412 337 Q 440 343 476 349 L 531 358 Z" class="stroke8"/>
    <path d="M 535 226 Q 541 229 640 242 Q 650 241 657 252 Q 658 262 638 272 Q 614 290 538 269 L 484 256 Q 424 250 383 242 Q 358 238 378 223 Q 411 199 436 208 Q 458 214 485 217 L 535 226 Z" class="stroke9"/>
    <path d="M 526 126 Q 535 207 535 226 L 538 269 Q 541 315 546 330 Q 549 345 537 354 Q 534 357 531 358 C 506 375 470 378 476 349 Q 479 342 484 256 L 485 217 Q 485 141 491 121 C 498 92 523 96 526 126 Z" class="stroke10"/>
    <path d="M 753 149 Q 632 142 526 126 L 491 121 Q 388 108 300 86 Q 273 79 279 111 Q 282 168 286 226 Q 289 251 277 266 Q 259 284 234 296 Q 221 302 210 299 Q 200 293 209 274 Q 239 214 232 153 Q 228 95 206 67 Q 187 49 194 34 Q 206 18 224 6 Q 239 -1 249 7 Q 295 55 586 99 Q 703 117 741 108 C 771 105 783 151 753 149 Z" class="stroke11"/>
    <path d="M 741 108 Q 738 101 741 87 Q 748 56 758 36 Q 768 20 780 32 Q 804 56 807 144 Q 820 261 830 277 Q 837 293 827 307 Q 806 322 773 341 Q 760 348 748 341 Q 741 337 743 323 Q 767 292 753 149 L 741 108 Z" class="stroke12"/>
    
    
    
    
    
    
    
    
    
    
    
    </g>
</svg>