<svg version="1.1" viewBox="0 0 1024 1024" xmlns="http://www.w3.org/2000/svg">
  
  <g transform="scale(1, -1) translate(0, -900)">
    <style type="text/css">
        .stroke1 {fill: #808080;}
        .stroke2 {fill: #808079;}
        .stroke3 {fill: #808078;}
        .stroke4 {fill: #808077;}
        .stroke5 {fill: #808076;}
        .stroke6 {fill: #808075;}
        .stroke7 {fill: #808074;}
        .stroke8 {fill: #808073;}
        .stroke9 {fill: #808072;}
        .stroke10 {fill: #808071;}
        .stroke11 {fill: #808070;}
        .stroke12 {fill: #808069;}
        .stroke13 {fill: #808068;}
        .stroke14 {fill: #808067;}
        .stroke15 {fill: #808066;}
        .stroke16 {fill: #808065;}
        .stroke17 {fill: #808064;}
        .stroke18 {fill: #808063;}
        .stroke19 {fill: #808062;}
        .stroke20 {fill: #808061;}
        text {
            font-family: Helvetica;
            font-size: 50px;
            fill: #808060;
            paint-order: stroke;
            stroke: #000000;
            stroke-width: 4px;
            stroke-linecap: butt;
            stroke-linejoin: miter;
            font-weight: 800;
        }
    </style>

    <path d="M 322 460 Q 361 473 402 483 Q 447 496 453 503 Q 462 512 456 520 Q 449 532 418 537 Q 379 543 327 514 L 279 497 Q 183 470 119 459 Q 82 450 110 435 Q 153 411 211 430 Q 242 439 276 448 L 322 460 Z" class="stroke1"/>
    <path d="M 276 448 Q 263 253 228 210 Q 215 191 225 169 Q 238 148 256 140 Q 266 133 280 150 Q 305 187 438 307 Q 466 329 469 339 Q 470 346 465 348 Q 458 349 439 337 Q 382 298 319 257 Q 306 244 303 263 Q 313 360 322 460 L 327 514 Q 351 764 351 765 Q 348 769 346 771 Q 322 790 296 799 Q 266 809 255 795 Q 246 783 260 770 Q 293 737 279 497 L 276 448 Z" class="stroke2"/>
    <path d="M 636 506 Q 715 528 792 537 Q 808 538 811 530 Q 818 514 814 468 Q 798 303 764 217 Q 746 162 728 146 Q 716 134 691 143 Q 663 150 636 160 Q 614 167 628 145 Q 668 96 690 58 Q 697 37 718 42 Q 739 45 764 72 Q 836 144 868 422 Q 875 485 899 521 Q 917 542 908 552 Q 892 571 857 587 Q 832 600 805 589 Q 741 562 644 544 Q 559 528 511 527 Q 492 528 492 519 Q 491 509 512 496 Q 537 480 561 487 Q 579 493 598 497 L 636 506 Z" class="stroke3"/>
    <path d="M 598 497 Q 598 496 599 494 Q 615 341 472 178 Q 363 70 340 49 Q 313 34 326 27 Q 365 21 475 117 Q 581 205 648 397 Q 660 428 676 459 Q 683 469 678 478 Q 659 505 636 506 C 607 514 596 517 598 497 Z" class="stroke4"/>
    
    
    
    </g>
</svg>