<svg version="1.1" viewBox="0 0 1024 1024" xmlns="http://www.w3.org/2000/svg">
  
  <g transform="scale(1, -1) translate(0, -900)">
    <style type="text/css">
        .stroke1 {fill: #808080;}
        .stroke2 {fill: #808079;}
        .stroke3 {fill: #808078;}
        .stroke4 {fill: #808077;}
        .stroke5 {fill: #808076;}
        .stroke6 {fill: #808075;}
        .stroke7 {fill: #808074;}
        .stroke8 {fill: #808073;}
        .stroke9 {fill: #808072;}
        .stroke10 {fill: #808071;}
        .stroke11 {fill: #808070;}
        .stroke12 {fill: #808069;}
        .stroke13 {fill: #808068;}
        .stroke14 {fill: #808067;}
        .stroke15 {fill: #808066;}
        .stroke16 {fill: #808065;}
        .stroke17 {fill: #808064;}
        .stroke18 {fill: #808063;}
        .stroke19 {fill: #808062;}
        .stroke20 {fill: #808061;}
        text {
            font-family: Helvetica;
            font-size: 50px;
            fill: #808060;
            paint-order: stroke;
            stroke: #000000;
            stroke-width: 4px;
            stroke-linecap: butt;
            stroke-linejoin: miter;
            font-weight: 800;
        }
    </style>

    <path d="M 369 691 Q 384 713 398 725 Q 408 735 403 750 Q 399 763 369 788 Q 341 807 322 807 Q 303 806 311 783 Q 324 749 312 722 Q 246 568 76 368 Q 66 358 62 351 Q 58 339 73 342 Q 136 349 318 610 Q 330 631 345 651 Q 349 660 354 667 L 369 691 Z" class="stroke1"/>
    <path d="M 354 667 Q 411 628 481 570 Q 497 554 512 553 Q 519 553 525 563 Q 534 576 517 612 Q 502 655 369 691 C 340 699 329 684 354 667 Z" class="stroke2"/>
    <path d="M 250 453 Q 216 444 242 430 Q 284 412 337 429 Q 386 442 438 458 Q 462 465 465 469 Q 474 476 468 485 Q 461 495 431 500 Q 403 503 374 489 Q 349 479 319 469 Q 288 459 250 453 Z" class="stroke3"/>
    <path d="M 185 256 Q 206 228 227 197 Q 236 184 249 180 Q 259 179 265 189 Q 272 201 270 227 Q 267 257 191 298 Q 178 304 172 303 Q 168 300 166 289 Q 167 279 185 256 Z" class="stroke4"/>
    <path d="M 275 326 Q 323 250 342 244 Q 354 241 363 257 Q 366 267 361 288 Q 354 307 332 320 Q 299 344 284 350 Q 275 353 273 342 Q 270 335 275 326 Z" class="stroke5"/>
    <path d="M 411 157 Q 429 184 469 275 Q 479 300 498 330 Q 513 343 503 354 Q 493 370 459 389 Q 444 399 427 390 Q 417 386 424 374 Q 439 329 385 178 Q 379 162 378 148 C 374 118 395 132 411 157 Z" class="stroke6"/>
    <path d="M 378 148 Q 204 103 195 101 Q 129 101 129 99 Q 125 96 124 90 Q 121 77 134 68 Q 170 43 185 35 Q 204 26 225 38 Q 277 66 518 164 Q 537 171 544 178 Q 551 187 540 191 Q 528 194 411 157 L 378 148 Z" class="stroke7"/>
    <path d="M 579 559 Q 609 493 592 319 Q 585 289 615 249 Q 625 239 635 250 Q 653 280 653 380 Q 649 467 656 528 Q 663 553 641 564 Q 625 574 606 583 Q 593 587 583 581 Q 574 574 579 559 Z" class="stroke8"/>
    <path d="M 772 699 Q 778 662 780 106 Q 780 84 767 74 Q 757 65 732 71 Q 702 77 675 81 Q 639 91 643 80 Q 644 73 667 59 Q 742 11 762 -19 Q 786 -53 803 -53 Q 818 -54 831 -17 Q 847 31 843 106 Q 824 347 829 589 Q 832 680 845 727 Q 861 758 804 782 Q 770 800 749 793 Q 730 786 748 762 Q 770 734 772 699 Z" class="stroke9"/>
    
    
    
    
    
    
    
    
    </g>
</svg>