<svg version="1.1" viewBox="0 0 1024 1024" xmlns="http://www.w3.org/2000/svg">
  
  <g transform="scale(1, -1) translate(0, -900)">
    <style type="text/css">
        .stroke1 {fill: #808080;}
        .stroke2 {fill: #808079;}
        .stroke3 {fill: #808078;}
        .stroke4 {fill: #808077;}
        .stroke5 {fill: #808076;}
        .stroke6 {fill: #808075;}
        .stroke7 {fill: #808074;}
        .stroke8 {fill: #808073;}
        .stroke9 {fill: #808072;}
        .stroke10 {fill: #808071;}
        .stroke11 {fill: #808070;}
        .stroke12 {fill: #808069;}
        .stroke13 {fill: #808068;}
        .stroke14 {fill: #808067;}
        .stroke15 {fill: #808066;}
        .stroke16 {fill: #808065;}
        .stroke17 {fill: #808064;}
        .stroke18 {fill: #808063;}
        .stroke19 {fill: #808062;}
        .stroke20 {fill: #808061;}
        text {
            font-family: Helvetica;
            font-size: 50px;
            fill: #808060;
            paint-order: stroke;
            stroke: #000000;
            stroke-width: 4px;
            stroke-linecap: butt;
            stroke-linejoin: miter;
            font-weight: 800;
        }
    </style>

    <path d="M 204 696 Q 180 717 153 725 Q 143 726 136 718 Q 132 712 140 700 Q 164 640 162 577 Q 163 325 123 202 Q 113 174 118 153 Q 127 116 139 101 Q 152 86 162 101 Q 199 140 200 291 Q 206 571 218 657 C 221 683 221 683 204 696 Z" class="stroke1"/>
    <path d="M 218 657 Q 219 658 224 659 Q 336 690 472 713 Q 493 719 504 708 Q 517 701 521 638 Q 531 431 516 196 Q 515 162 502 152 Q 489 143 425 161 Q 409 164 410 155 Q 411 148 423 142 Q 478 96 508 63 Q 527 44 539 46 Q 551 47 562 75 Q 578 118 579 180 Q 564 643 584 686 Q 596 707 586 718 Q 576 731 532 754 Q 514 764 455 746 Q 295 709 204 696 C 174 691 189 649 218 657 Z" class="stroke2"/>
    <path d="M 269 629 Q 296 572 313 566 Q 323 562 331 574 Q 335 584 332 601 Q 328 614 312 625 Q 290 644 278 649 Q 271 652 268 643 Q 265 637 269 629 Z" class="stroke3"/>
    <path d="M 396 650 Q 387 616 364 557 Q 363 550 367 547 Q 373 548 377 553 Q 425 625 450 654 Q 460 661 455 668 Q 448 677 430 685 Q 414 692 397 688 Q 387 685 393 672 Q 397 663 396 650 Z" class="stroke4"/>
    <path d="M 354 499 Q 387 512 455 524 Q 462 524 468 533 Q 468 542 451 547 Q 432 560 362 534 Q 358 534 354 532 Q 309 519 249 505 Q 230 501 246 490 Q 255 484 265 479 Q 275 475 290 481 Q 306 487 329 492 L 354 499 Z" class="stroke5"/>
    <path d="M 369 337 Q 376 449 380 458 Q 384 471 379 478 Q 366 491 354 499 C 329 516 323 521 329 492 Q 336 465 337 328 C 337 298 367 307 369 337 Z" class="stroke6"/>
    <path d="M 424 349 Q 394 345 369 337 L 337 328 Q 309 321 286 312 Q 276 309 279 321 Q 289 388 284 398 Q 274 410 259 420 Q 252 424 244 423 Q 237 420 242 407 Q 255 374 248 342 Q 244 311 230 298 Q 218 286 223 277 Q 230 267 243 260 Q 252 256 259 261 Q 283 291 387 317 Q 406 323 418 322 C 448 323 454 353 424 349 Z" class="stroke7"/>
    <path d="M 418 322 Q 419 303 425 290 Q 429 278 439 285 Q 457 298 465 357 Q 478 400 484 405 Q 490 415 484 425 Q 472 437 451 451 Q 444 457 435 453 Q 429 452 430 442 Q 451 412 425 351 Q 424 351 424 349 L 418 322 Z" class="stroke8"/>
    <path d="M 650 630 Q 678 569 656 376 Q 649 343 675 307 L 676 306 Q 685 296 694 306 Q 712 336 713 423 Q 713 552 720 601 Q 727 623 707 633 Q 668 657 654 651 Q 647 644 650 630 Z" class="stroke9"/>
    <path d="M 808 719 Q 812 682 813 123 Q 812 99 800 90 Q 799 90 734 104 Q 701 120 702 108 Q 703 101 723 84 Q 781 27 796 -3 Q 812 -39 827 -41 Q 843 -42 859 -7 Q 878 41 879 118 Q 860 362 865 608 Q 868 699 881 747 Q 897 778 840 801 Q 804 820 785 813 Q 766 806 783 782 Q 805 754 808 719 Z" class="stroke10"/>
    
    
    
    
    
    
    
    
    
    </g>
</svg>