<svg version="1.1" viewBox="0 0 1024 1024" xmlns="http://www.w3.org/2000/svg">
  
  <g transform="scale(1, -1) translate(0, -900)">
    <style type="text/css">
        .stroke1 {fill: #808080;}
        .stroke2 {fill: #808079;}
        .stroke3 {fill: #808078;}
        .stroke4 {fill: #808077;}
        .stroke5 {fill: #808076;}
        .stroke6 {fill: #808075;}
        .stroke7 {fill: #808074;}
        .stroke8 {fill: #808073;}
        .stroke9 {fill: #808072;}
        .stroke10 {fill: #808071;}
        .stroke11 {fill: #808070;}
        .stroke12 {fill: #808069;}
        .stroke13 {fill: #808068;}
        .stroke14 {fill: #808067;}
        .stroke15 {fill: #808066;}
        .stroke16 {fill: #808065;}
        .stroke17 {fill: #808064;}
        .stroke18 {fill: #808063;}
        .stroke19 {fill: #808062;}
        .stroke20 {fill: #808061;}
        text {
            font-family: Helvetica;
            font-size: 50px;
            fill: #808060;
            paint-order: stroke;
            stroke: #000000;
            stroke-width: 4px;
            stroke-linecap: butt;
            stroke-linejoin: miter;
            font-weight: 800;
        }
    </style>

    <path d="M 227 548 Q 291 594 331 654 L 348 679 Q 369 713 390 740 Q 400 750 388 763 Q 373 776 355 786 Q 343 793 331 791 Q 321 790 322 777 Q 326 743 312 710 Q 302 682 276 644 Q 252 607 221 577 Q 194 553 181 538 Q 174 525 187 529 Q 203 530 227 548 Z" class="stroke1"/>
    <path d="M 331 654 Q 341 650 357 646 Q 379 643 412 650 Q 452 657 494 667 Q 513 671 516 674 Q 523 681 519 689 Q 512 699 485 705 Q 458 711 431 699 Q 409 692 386 687 Q 368 683 348 679 C 319 673 303 664 331 654 Z" class="stroke2"/>
    <path d="M 398 576 Q 410 563 422 548 Q 434 536 447 537 Q 457 537 461 549 Q 465 562 458 587 Q 454 599 435 607 Q 416 613 395 617 Q 382 621 376 619 Q 372 615 373 604 Q 376 594 398 576 Z" class="stroke3"/>
    <path d="M 549 605 Q 598 645 629 692 L 644 717 Q 665 754 685 785 Q 692 797 680 809 Q 665 819 646 829 Q 634 833 622 832 Q 612 829 614 817 Q 620 787 611 757 Q 604 730 584 696 Q 566 660 540 632 Q 519 608 508 594 Q 502 581 515 586 Q 530 589 549 605 Z" class="stroke4"/>
    <path d="M 629 692 Q 639 688 653 684 Q 675 680 708 684 Q 763 693 820 703 Q 845 707 850 710 Q 859 717 854 725 Q 848 735 822 743 Q 794 750 767 740 Q 737 731 705 726 Q 677 722 644 717 C 614 713 601 703 629 692 Z" class="stroke5"/>
    <path d="M 667 607 Q 688 591 710 572 Q 723 562 737 563 Q 746 564 749 576 Q 752 589 742 614 Q 736 629 711 638 Q 686 644 659 648 Q 646 649 640 647 Q 636 643 638 632 Q 642 622 667 607 Z" class="stroke6"/>
    <path d="M 218 291 Q 178 252 78 179 Q 69 175 80 171 Q 89 172 113 183 Q 153 198 191 221 Q 239 249 291 302 Q 331 342 393 421 L 408 440 Q 409 444 413 446 Q 423 459 430 464 Q 437 468 437 478 Q 436 488 425 500 Q 412 513 395 522 Q 376 529 365 529 Q 356 528 357 515 Q 358 499 352 474 Q 327 419 295 377 Q 259 328 218 291 Z" class="stroke7"/>
    <path d="M 393 421 Q 400 414 417 404 Q 469 373 527 335 Q 539 326 551 328 Q 558 329 561 340 Q 564 352 554 374 Q 544 401 500 418 Q 457 431 408 440 C 379 446 370 441 393 421 Z" class="stroke8"/>
    <path d="M 323 290 Q 289 289 315 270 Q 328 261 349 258 Q 371 255 404 262 Q 438 269 473 277 Q 489 280 492 282 Q 499 289 495 297 Q 488 307 461 313 Q 433 319 407 307 Q 389 301 369 297 Q 348 293 323 290 Z" class="stroke9"/>
    <path d="M 246 159 Q 268 108 282 25 Q 283 0 298 -17 Q 313 -38 318 -23 Q 322 -13 322 2 L 319 35 Q 309 107 307 136 C 305 165 305 165 302 167 L 301 168 Q 291 174 259 181 Q 249 184 245 179 Q 239 175 246 159 Z" class="stroke10"/>
    <path d="M 509 54 Q 530 121 552 140 Q 576 165 553 181 Q 534 193 506 212 Q 487 224 467 213 Q 436 194 394 184 Q 355 174 302 167 C 272 163 277 134 307 136 Q 319 136 335 139 Q 389 149 434 157 Q 465 163 472 150 Q 478 146 472 118 Q 466 91 459 59 C 453 30 500 25 509 54 Z" class="stroke11"/>
    <path d="M 322 2 Q 332 1 343 2 Q 400 12 523 18 Q 533 19 535 27 Q 535 36 509 54 C 492 66 488 65 459 59 Q 381 43 319 35 C 289 31 292 4 322 2 Z" class="stroke12"/>
    <path d="M 615 396 Q 624 380 628 361 Q 632 324 634 289 Q 634 255 630 208 Q 627 195 634 180 Q 641 161 652 149 Q 662 139 670 150 Q 677 160 681 181 Q 688 199 686 217 Q 685 239 684 311 Q 683 339 687 370 Q 691 392 672 402 Q 656 412 640 419 Q 627 423 619 417 Q 610 411 615 396 Z" class="stroke13"/>
    <path d="M 770 440 Q 771 418 760 66 Q 759 51 751 46 Q 744 40 724 46 Q 702 52 682 57 Q 648 72 651 60 Q 652 53 671 36 Q 731 -19 745 -48 Q 761 -82 777 -85 Q 792 -86 808 -51 Q 829 -5 830 72 Q 820 199 822 328 Q 828 419 843 466 Q 862 497 804 521 Q 770 540 749 534 Q 731 528 747 504 Q 769 476 770 440 Z" class="stroke14"/>
    
    
    
    
    
    
    
    
    
    
    
    
    
    </g>
</svg>