<svg version="1.1" viewBox="0 0 1024 1024" xmlns="http://www.w3.org/2000/svg">
  
  <g transform="scale(1, -1) translate(0, -900)">
    <style type="text/css">
        .stroke1 {fill: #808080;}
        .stroke2 {fill: #808079;}
        .stroke3 {fill: #808078;}
        .stroke4 {fill: #808077;}
        .stroke5 {fill: #808076;}
        .stroke6 {fill: #808075;}
        .stroke7 {fill: #808074;}
        .stroke8 {fill: #808073;}
        .stroke9 {fill: #808072;}
        .stroke10 {fill: #808071;}
        .stroke11 {fill: #808070;}
        .stroke12 {fill: #808069;}
        .stroke13 {fill: #808068;}
        .stroke14 {fill: #808067;}
        .stroke15 {fill: #808066;}
        .stroke16 {fill: #808065;}
        .stroke17 {fill: #808064;}
        .stroke18 {fill: #808063;}
        .stroke19 {fill: #808062;}
        .stroke20 {fill: #808061;}
        text {
            font-family: Helvetica;
            font-size: 50px;
            fill: #808060;
            paint-order: stroke;
            stroke: #000000;
            stroke-width: 4px;
            stroke-linecap: butt;
            stroke-linejoin: miter;
            font-weight: 800;
        }
    </style>

    <path d="M 326 633 Q 374 645 519 669 Q 529 668 538 682 Q 539 694 515 703 Q 488 724 400 694 Q 375 688 351 681 Q 297 668 147 641 Q 119 637 141 620 Q 178 596 212 606 Q 242 615 281 622 L 326 633 Z" class="stroke1"/>
    <path d="M 303 466 Q 304 466 305 465 Q 320 461 366 460 Q 390 459 400 447 Q 418 425 376 280 Q 355 214 328 200 Q 313 197 273 218 Q 239 236 234 230 Q 228 221 244 210 Q 286 171 298 132 Q 302 116 314 110 Q 326 106 358 126 Q 392 153 416 222 Q 428 267 441 331 Q 453 409 475 430 Q 485 437 485 445 Q 486 454 461 475 Q 428 500 375 493 Q 339 493 318 496 C 288 499 274 472 303 466 Z" class="stroke2"/>
    <path d="M 318 496 Q 322 518 358 576 Q 365 588 355 602 Q 340 623 326 633 C 304 653 272 651 281 622 Q 314 550 179 337 Q 124 252 49 164 Q 43 160 43 152 Q 43 146 49 148 Q 106 158 225 330 Q 228 337 234 345 Q 274 409 303 466 L 318 496 Z" class="stroke3"/>
    <path d="M 637 527 Q 562 514 519 514 Q 498 517 498 505 Q 497 495 520 480 Q 548 461 574 470 Q 599 477 626 483 L 686 497 Q 737 510 787 515 Q 800 516 804 509 Q 811 493 809 448 Q 796 286 765 201 Q 749 147 731 131 Q 721 121 698 128 Q 665 141 636 155 Q 614 165 627 141 Q 670 86 693 45 Q 702 21 724 26 Q 743 29 768 56 Q 838 131 863 404 Q 870 465 893 502 Q 909 524 900 535 Q 884 554 846 570 Q 819 583 792 571 Q 750 555 697 540 L 637 527 Z" class="stroke4"/>
    <path d="M 626 483 Q 593 293 406 52 Q 399 45 397 39 Q 393 27 405 29 Q 441 35 541 163 Q 563 194 584 230 Q 645 344 686 497 L 697 540 Q 727 711 739 737 Q 749 752 743 767 Q 727 786 694 804 Q 675 817 660 814 Q 647 807 652 791 Q 670 760 665 700 Q 652 597 637 527 L 626 483 Z" class="stroke5"/>
    
    
    
    
    </g>
</svg>