<svg version="1.1" viewBox="0 0 1024 1024" xmlns="http://www.w3.org/2000/svg">
  
  <g transform="scale(1, -1) translate(0, -900)">
    <style type="text/css">
        .stroke1 {fill: #808080;}
        .stroke2 {fill: #808079;}
        .stroke3 {fill: #808078;}
        .stroke4 {fill: #808077;}
        .stroke5 {fill: #808076;}
        .stroke6 {fill: #808075;}
        .stroke7 {fill: #808074;}
        .stroke8 {fill: #808073;}
        .stroke9 {fill: #808072;}
        .stroke10 {fill: #808071;}
        .stroke11 {fill: #808070;}
        .stroke12 {fill: #808069;}
        .stroke13 {fill: #808068;}
        .stroke14 {fill: #808067;}
        .stroke15 {fill: #808066;}
        .stroke16 {fill: #808065;}
        .stroke17 {fill: #808064;}
        .stroke18 {fill: #808063;}
        .stroke19 {fill: #808062;}
        .stroke20 {fill: #808061;}
        text {
            font-family: Helvetica;
            font-size: 50px;
            fill: #808060;
            paint-order: stroke;
            stroke: #000000;
            stroke-width: 4px;
            stroke-linecap: butt;
            stroke-linejoin: miter;
            font-weight: 800;
        }
    </style>

    <path d="M 389 628 Q 404 649 419 671 Q 453 726 486 769 Q 499 784 482 802 Q 428 844 402 840 Q 389 839 391 820 Q 398 706 274 567 Q 241 540 206 498 Q 196 480 214 485 Q 274 494 376 611 L 389 628 Z" class="stroke1"/>
    <path d="M 376 611 Q 421 590 452 598 Q 489 608 660 631 Q 688 635 700 621 Q 721 599 723 545 Q 732 379 722 269 Q 703 98 668 79 Q 658 76 565 113 Q 553 117 549 113 Q 545 106 562 89 Q 611 32 635 -16 Q 657 -47 676 -42 Q 692 -38 715 -6 Q 746 34 767 111 Q 789 202 797 500 Q 798 578 818 604 Q 837 626 812 645 Q 740 693 684 680 Q 543 646 389 628 C 359 624 348 621 376 611 Z" class="stroke2"/>
    <path d="M 346 452 Q 306 445 335 427 Q 380 400 440 417 Q 491 427 543 437 Q 568 441 571 445 Q 581 454 576 463 Q 567 476 536 483 Q 503 490 471 476 Q 446 469 416 461 Q 383 455 346 452 Z" class="stroke3"/>
    <path d="M 241 253 Q 208 249 233 229 Q 270 199 301 206 Q 484 240 606 253 Q 618 252 628 266 Q 629 279 604 291 Q 564 315 496 294 Q 343 264 241 253 Z" class="stroke4"/>
    
    
    
    </g>
</svg>