<svg version="1.1" viewBox="0 0 1024 1024" xmlns="http://www.w3.org/2000/svg">
  
  <g transform="scale(1, -1) translate(0, -900)">
    <style type="text/css">
        .stroke1 {fill: #808080;}
        .stroke2 {fill: #808079;}
        .stroke3 {fill: #808078;}
        .stroke4 {fill: #808077;}
        .stroke5 {fill: #808076;}
        .stroke6 {fill: #808075;}
        .stroke7 {fill: #808074;}
        .stroke8 {fill: #808073;}
        .stroke9 {fill: #808072;}
        .stroke10 {fill: #808071;}
        .stroke11 {fill: #808070;}
        .stroke12 {fill: #808069;}
        .stroke13 {fill: #808068;}
        .stroke14 {fill: #808067;}
        .stroke15 {fill: #808066;}
        .stroke16 {fill: #808065;}
        .stroke17 {fill: #808064;}
        .stroke18 {fill: #808063;}
        .stroke19 {fill: #808062;}
        .stroke20 {fill: #808061;}
        text {
            font-family: Helvetica;
            font-size: 50px;
            fill: #808060;
            paint-order: stroke;
            stroke: #000000;
            stroke-width: 4px;
            stroke-linecap: butt;
            stroke-linejoin: miter;
            font-weight: 800;
        }
    </style>

    <path d="M 393 628 Q 406 649 419 669 Q 453 727 485 774 Q 497 789 481 804 Q 436 843 406 837 Q 394 836 396 819 Q 412 707 277 550 Q 244 523 205 477 Q 196 461 213 466 Q 237 470 268 495 Q 334 547 380 609 L 393 628 Z" class="stroke1"/>
    <path d="M 380 609 Q 420 590 452 598 Q 489 610 665 635 Q 695 639 706 625 Q 725 603 727 548 Q 731 380 718 271 Q 693 97 657 81 Q 654 78 547 95 Q 537 96 534 93 Q 531 86 549 73 Q 598 34 627 -2 Q 649 -33 667 -28 Q 683 -24 705 7 Q 736 47 757 122 Q 779 212 789 506 Q 790 582 811 608 Q 829 629 806 647 Q 734 692 684 680 Q 543 646 393 628 C 363 624 352 619 380 609 Z" class="stroke2"/>
    <path d="M 371 439 Q 411 420 455 394 Q 470 387 483 389 Q 492 392 493 404 Q 494 417 481 441 Q 463 474 358 478 Q 345 478 339 475 Q 336 471 340 460 Q 344 451 371 439 Z" class="stroke3"/>
    <path d="M 251 235 Q 238 232 237 222 Q 236 209 245 202 Q 269 187 303 170 Q 313 169 324 177 Q 358 207 398 227 Q 459 258 518 289 Q 540 301 557 315 Q 570 322 569 332 Q 565 338 552 334 Q 440 291 299 242 Q 281 235 251 235 Z" class="stroke4"/>
    
    
    
    </g>
</svg>