<svg version="1.1" viewBox="0 0 1024 1024" xmlns="http://www.w3.org/2000/svg">
  
  <g transform="scale(1, -1) translate(0, -900)">
    <style type="text/css">
        .stroke1 {fill: #808080;}
        .stroke2 {fill: #808079;}
        .stroke3 {fill: #808078;}
        .stroke4 {fill: #808077;}
        .stroke5 {fill: #808076;}
        .stroke6 {fill: #808075;}
        .stroke7 {fill: #808074;}
        .stroke8 {fill: #808073;}
        .stroke9 {fill: #808072;}
        .stroke10 {fill: #808071;}
        .stroke11 {fill: #808070;}
        .stroke12 {fill: #808069;}
        .stroke13 {fill: #808068;}
        .stroke14 {fill: #808067;}
        .stroke15 {fill: #808066;}
        .stroke16 {fill: #808065;}
        .stroke17 {fill: #808064;}
        .stroke18 {fill: #808063;}
        .stroke19 {fill: #808062;}
        .stroke20 {fill: #808061;}
        text {
            font-family: Helvetica;
            font-size: 50px;
            fill: #808060;
            paint-order: stroke;
            stroke: #000000;
            stroke-width: 4px;
            stroke-linecap: butt;
            stroke-linejoin: miter;
            font-weight: 800;
        }
    </style>

    <path d="M 306 564 Q 352 619 402 700 Q 423 739 442 758 Q 452 770 446 785 Q 442 798 409 823 Q 379 842 358 842 Q 337 839 347 815 Q 371 770 284 619 Q 244 550 186 474 Q 176 462 173 456 Q 170 443 185 446 Q 215 452 289 539 L 306 564 Z" class="stroke1"/>
    <path d="M 600 570 Q 630 585 733 585 Q 758 585 765 574 Q 780 513 723 287 Q 693 176 642 107 Q 620 73 596 73 Q 583 72 515 108 Q 505 114 503 107 Q 502 103 512 90 Q 548 33 561 -6 Q 568 -30 582 -32 Q 604 -36 630 -17 Q 723 38 766 197 Q 800 306 834 474 Q 840 513 869 538 Q 885 553 885 562 Q 884 572 864 589 Q 836 616 795 632 Q 771 644 699 624 Q 396 572 306 564 C 276 561 259 544 289 539 Q 326 527 369 536 Q 379 537 391 538 L 413 541 Q 492 554 562 565 L 600 570 Z" class="stroke2"/>
    <path d="M 391 538 Q 390 535 391 529 Q 418 441 201 230 Q 194 226 203 224 Q 246 224 348 329 Q 354 338 363 347 Q 397 390 450 474 Q 457 486 462 490 Q 468 494 466 504 Q 465 513 454 523 Q 445 530 413 541 C 390 549 390 549 391 538 Z" class="stroke3"/>
    <path d="M 562 565 Q 562 564 563 561 Q 584 489 458 275 Q 386 172 284 85 Q 277 81 272 74 Q 266 64 278 63 Q 311 60 416 146 Q 428 158 443 172 Q 536 274 619 462 Q 644 508 645 515 Q 645 516 645 517 Q 623 559 600 570 C 576 587 556 594 562 565 Z" class="stroke4"/>
    
    
    
    </g>
</svg>