<svg version="1.1" viewBox="0 0 1024 1024" xmlns="http://www.w3.org/2000/svg">
  
  <g transform="scale(1, -1) translate(0, -900)">
    <style type="text/css">
        .stroke1 {fill: #808080;}
        .stroke2 {fill: #808079;}
        .stroke3 {fill: #808078;}
        .stroke4 {fill: #808077;}
        .stroke5 {fill: #808076;}
        .stroke6 {fill: #808075;}
        .stroke7 {fill: #808074;}
        .stroke8 {fill: #808073;}
        .stroke9 {fill: #808072;}
        .stroke10 {fill: #808071;}
        .stroke11 {fill: #808070;}
        .stroke12 {fill: #808069;}
        .stroke13 {fill: #808068;}
        .stroke14 {fill: #808067;}
        .stroke15 {fill: #808066;}
        .stroke16 {fill: #808065;}
        .stroke17 {fill: #808064;}
        .stroke18 {fill: #808063;}
        .stroke19 {fill: #808062;}
        .stroke20 {fill: #808061;}
        text {
            font-family: Helvetica;
            font-size: 50px;
            fill: #808060;
            paint-order: stroke;
            stroke: #000000;
            stroke-width: 4px;
            stroke-linecap: butt;
            stroke-linejoin: miter;
            font-weight: 800;
        }
    </style>

    <path d="M 272 503 Q 318 563 367 639 Q 397 691 422 715 Q 432 725 428 741 Q 424 754 393 780 Q 365 799 344 800 Q 325 799 333 774 Q 348 740 334 711 Q 292 614 230 525 Q 169 440 88 345 Q 78 335 74 328 Q 70 315 86 318 Q 122 321 236 459 Q 240 465 247 472 L 272 503 Z" class="stroke1"/>
    <path d="M 247 472 Q 268 400 270 381 Q 270 234 245 135 Q 230 86 267 38 Q 268 35 272 32 Q 291 16 303 44 Q 318 86 318 134 Q 319 362 326 413 Q 333 441 323 452 Q 305 474 291 488 Q 282 498 272 503 C 247 520 239 501 247 472 Z" class="stroke2"/>
    <path d="M 551 355 Q 669 448 743 523 Q 782 566 812 584 Q 825 593 823 609 Q 822 622 797 654 Q 773 679 754 684 Q 733 685 737 661 Q 744 625 725 600 Q 665 516 587 443 Q 571 430 554 413 L 499 365 Q 459 332 414 298 Q 401 291 398 284 Q 391 274 407 273 Q 426 272 499 317 L 551 355 Z" class="stroke3"/>
    <path d="M 941 98 Q 959 114 939 146 Q 917 201 908 276 Q 907 286 899 296 Q 887 302 885 277 Q 852 150 846 141 Q 839 128 807 122 Q 698 94 614 117 Q 572 129 559 171 Q 549 204 551 355 L 554 413 Q 572 663 596 697 Q 605 721 585 735 Q 555 763 516 773 Q 495 777 487 768 Q 478 758 486 748 Q 501 735 508 711 Q 512 687 505 539 Q 501 448 499 365 L 499 317 Q 502 148 535 108 Q 545 96 566 84 Q 654 38 846 62 Q 856 65 866 67 Q 918 80 941 98 Z" class="stroke4"/>
    
    
    
    </g>
</svg>