<svg version="1.1" viewBox="0 0 1024 1024" xmlns="http://www.w3.org/2000/svg">
  
  <g transform="scale(1, -1) translate(0, -900)">
    <style type="text/css">
        .stroke1 {fill: #808080;}
        .stroke2 {fill: #808079;}
        .stroke3 {fill: #808078;}
        .stroke4 {fill: #808077;}
        .stroke5 {fill: #808076;}
        .stroke6 {fill: #808075;}
        .stroke7 {fill: #808074;}
        .stroke8 {fill: #808073;}
        .stroke9 {fill: #808072;}
        .stroke10 {fill: #808071;}
        .stroke11 {fill: #808070;}
        .stroke12 {fill: #808069;}
        .stroke13 {fill: #808068;}
        .stroke14 {fill: #808067;}
        .stroke15 {fill: #808066;}
        .stroke16 {fill: #808065;}
        .stroke17 {fill: #808064;}
        .stroke18 {fill: #808063;}
        .stroke19 {fill: #808062;}
        .stroke20 {fill: #808061;}
        text {
            font-family: Helvetica;
            font-size: 50px;
            fill: #808060;
            paint-order: stroke;
            stroke: #000000;
            stroke-width: 4px;
            stroke-linecap: butt;
            stroke-linejoin: miter;
            font-weight: 800;
        }
    </style>

    <path d="M 304 627 Q 359 632 488 651 Q 778 690 815 705 Q 815 708 819 708 Q 831 715 826 727 Q 819 744 790 753 Q 749 765 708 753 Q 510 698 310 686 Q 214 671 139 671 Q 123 671 122 659 Q 122 646 143 629 Q 156 621 165 617 Q 192 604 227 612 L 304 627 Z" class="stroke1"/>
    <path d="M 227 612 Q 229 603 230 586 Q 231 537 233 523 Q 246 174 204 79 Q 202 77 201 74 L 182 53 Q 170 37 182 22 Q 188 2 207 -12 Q 225 -27 246 -12 Q 282 33 514 48 Q 723 63 853 46 Q 906 39 907 65 Q 907 82 868 106 Q 827 131 805 129 Q 767 129 429 86 Q 303 65 292 79 Q 286 86 290 214 Q 290 441 302 580 Q 302 616 304 627 C 305 657 224 642 227 612 Z" class="stroke2"/>
    
    </g>
</svg>