<svg version="1.1" viewBox="0 0 1024 1024" xmlns="http://www.w3.org/2000/svg">
  
  <g transform="scale(1, -1) translate(0, -900)">
    <style type="text/css">
        .stroke1 {fill: #808080;}
        .stroke2 {fill: #808079;}
        .stroke3 {fill: #808078;}
        .stroke4 {fill: #808077;}
        .stroke5 {fill: #808076;}
        .stroke6 {fill: #808075;}
        .stroke7 {fill: #808074;}
        .stroke8 {fill: #808073;}
        .stroke9 {fill: #808072;}
        .stroke10 {fill: #808071;}
        .stroke11 {fill: #808070;}
        .stroke12 {fill: #808069;}
        .stroke13 {fill: #808068;}
        .stroke14 {fill: #808067;}
        .stroke15 {fill: #808066;}
        .stroke16 {fill: #808065;}
        .stroke17 {fill: #808064;}
        .stroke18 {fill: #808063;}
        .stroke19 {fill: #808062;}
        .stroke20 {fill: #808061;}
        text {
            font-family: Helvetica;
            font-size: 50px;
            fill: #808060;
            paint-order: stroke;
            stroke: #000000;
            stroke-width: 4px;
            stroke-linecap: butt;
            stroke-linejoin: miter;
            font-weight: 800;
        }
    </style>

    <path d="M 510 708 Q 627 756 678 763 Q 697 763 701 771 Q 705 783 693 795 Q 671 813 625 833 Q 609 843 595 841 Q 586 838 586 826 Q 585 810 570 800 Q 542 778 480 747 Q 401 705 282 661 Q 275 651 282 648 Q 298 644 433 685 Q 445 689 460 692 L 510 708 Z" class="stroke1"/>
    <path d="M 545 441 Q 734 459 839 451 Q 912 448 918 453 Q 925 466 913 479 Q 882 507 837 528 Q 825 534 722 512 Q 719 512 545 489 L 489 482 Q 485 483 301 461 Q 234 451 133 450 Q 118 450 117 438 Q 117 425 136 410 Q 175 380 225 392 Q 270 405 392 424 Q 437 431 489 436 L 545 441 Z" class="stroke2"/>
    <path d="M 488 9 Q 494 -19 501 -29 Q 507 -36 515 -34 Q 531 -25 538 40 Q 548 125 546 211 Q 542 266 545 441 L 545 489 Q 545 597 559 658 Q 563 677 547 687 Q 526 702 510 708 C 483 721 444 718 460 692 Q 461 691 463 689 Q 467 679 475 668 Q 488 643 489 606 Q 490 551 489 482 L 489 436 Q 483 49 488 9 Z" class="stroke3"/>
    
    
    </g>
</svg>