<svg version="1.1" viewBox="0 0 1024 1024" xmlns="http://www.w3.org/2000/svg">
  
  <g transform="scale(1, -1) translate(0, -900)">
    <style type="text/css">
        .stroke1 {fill: #808080;}
        .stroke2 {fill: #808079;}
        .stroke3 {fill: #808078;}
        .stroke4 {fill: #808077;}
        .stroke5 {fill: #808076;}
        .stroke6 {fill: #808075;}
        .stroke7 {fill: #808074;}
        .stroke8 {fill: #808073;}
        .stroke9 {fill: #808072;}
        .stroke10 {fill: #808071;}
        .stroke11 {fill: #808070;}
        .stroke12 {fill: #808069;}
        .stroke13 {fill: #808068;}
        .stroke14 {fill: #808067;}
        .stroke15 {fill: #808066;}
        .stroke16 {fill: #808065;}
        .stroke17 {fill: #808064;}
        .stroke18 {fill: #808063;}
        .stroke19 {fill: #808062;}
        .stroke20 {fill: #808061;}
        text {
            font-family: Helvetica;
            font-size: 50px;
            fill: #808060;
            paint-order: stroke;
            stroke: #000000;
            stroke-width: 4px;
            stroke-linecap: butt;
            stroke-linejoin: miter;
            font-weight: 800;
        }
    </style>

    <path d="M 379 619 Q 458 667 500 673 Q 525 680 518 702 Q 508 724 482 745 Q 458 766 444 766 Q 429 767 431 751 Q 431 718 308 628 Q 277 606 242 579 Q 227 563 247 563 Q 302 585 343 602 L 379 619 Z" class="stroke1"/>
    <path d="M 671 451 Q 746 454 929 455 Q 954 455 960 466 Q 967 481 946 498 Q 870 552 805 530 Q 747 521 672 506 L 616 496 Q 474 478 427 469 L 364 461 Q 232 446 88 428 Q 61 425 81 403 Q 123 366 168 378 Q 261 403 363 420 L 424 428 Q 538 444 616 448 L 671 451 Z" class="stroke2"/>
    <path d="M 427 469 Q 427 499 437 567 Q 444 589 421 601 Q 397 613 379 619 C 351 630 328 628 343 602 Q 367 578 364 461 L 363 420 Q 348 219 242 108 Q 199 69 193 58 Q 192 49 204 50 Q 249 50 315 123 Q 394 211 420 394 Q 421 410 424 428 L 427 469 Z" class="stroke3"/>
    <path d="M 616 448 Q 616 256 611 170 Q 608 -10 628 -44 Q 643 -60 652 -38 Q 668 4 670 425 Q 670 438 671 451 L 672 506 Q 673 728 699 770 Q 706 786 685 803 Q 660 822 615 835 Q 594 839 581 825 Q 571 818 584 804 Q 614 779 616 743 Q 616 655 616 496 L 616 448 Z" class="stroke4"/>
    
    
    
    </g>
</svg>