<svg version="1.1" viewBox="0 0 1024 1024" xmlns="http://www.w3.org/2000/svg">
  
  <g transform="scale(1, -1) translate(0, -900)">
    <style type="text/css">
        .stroke1 {fill: #808080;}
        .stroke2 {fill: #808079;}
        .stroke3 {fill: #808078;}
        .stroke4 {fill: #808077;}
        .stroke5 {fill: #808076;}
        .stroke6 {fill: #808075;}
        .stroke7 {fill: #808074;}
        .stroke8 {fill: #808073;}
        .stroke9 {fill: #808072;}
        .stroke10 {fill: #808071;}
        .stroke11 {fill: #808070;}
        .stroke12 {fill: #808069;}
        .stroke13 {fill: #808068;}
        .stroke14 {fill: #808067;}
        .stroke15 {fill: #808066;}
        .stroke16 {fill: #808065;}
        .stroke17 {fill: #808064;}
        .stroke18 {fill: #808063;}
        .stroke19 {fill: #808062;}
        .stroke20 {fill: #808061;}
        text {
            font-family: Helvetica;
            font-size: 50px;
            fill: #808060;
            paint-order: stroke;
            stroke: #000000;
            stroke-width: 4px;
            stroke-linecap: butt;
            stroke-linejoin: miter;
            font-weight: 800;
        }
    </style>

    <path d="M 350 677 Q 386 665 472 679 Q 746 728 765 739 Q 765 740 766 740 Q 776 749 771 758 Q 764 771 731 781 Q 698 788 596 756 Q 445 723 340 713 Q 336 713 336 712 C 306 708 321 684 350 677 Z" class="stroke1"/>
    <path d="M 336 712 Q 321 725 298 735 Q 277 748 263 742 Q 250 735 257 720 Q 278 690 274 628 Q 256 429 229 326 Q 220 299 210 272 Q 168 158 80 29 Q 74 22 72 15 Q 69 3 81 6 Q 123 12 212 158 Q 222 179 235 201 Q 307 357 330 559 Q 339 667 350 677 C 357 697 357 697 336 712 Z" class="stroke2"/>
    <path d="M 478 474 Q 572 502 639 514 Q 655 517 658 512 Q 665 502 662 474 Q 658 398 642 362 Q 623 326 591 332 Q 566 336 544 342 Q 517 349 538 325 Q 581 285 602 254 Q 617 235 633 249 Q 682 279 713 394 Q 728 488 748 511 Q 760 524 754 534 Q 744 546 693 567 Q 674 576 654 562 Q 606 535 468 511 C 438 506 449 466 478 474 Z" class="stroke3"/>
    <path d="M 940 110 Q 919 177 912 291 Q 911 309 902 314 Q 893 320 889 298 Q 873 156 853 129 Q 810 83 631 88 Q 534 95 493 112 Q 457 133 450 157 Q 437 197 440 297 Q 450 409 473 459 Q 476 466 478 474 C 487 497 487 497 468 511 Q 414 554 397 551 Q 381 545 388 526 Q 407 484 400 424 Q 382 172 410 121 Q 440 63 556 42 Q 635 29 761 31 Q 873 35 919 58 Q 953 74 940 110 Z" class="stroke4"/>
    
    
    
    </g>
</svg>