<svg version="1.1" viewBox="0 0 1024 1024" xmlns="http://www.w3.org/2000/svg">
  
  <g transform="scale(1, -1) translate(0, -900)">
    <style type="text/css">
        .stroke1 {fill: #808080;}
        .stroke2 {fill: #808079;}
        .stroke3 {fill: #808078;}
        .stroke4 {fill: #808077;}
        .stroke5 {fill: #808076;}
        .stroke6 {fill: #808075;}
        .stroke7 {fill: #808074;}
        .stroke8 {fill: #808073;}
        .stroke9 {fill: #808072;}
        .stroke10 {fill: #808071;}
        .stroke11 {fill: #808070;}
        .stroke12 {fill: #808069;}
        .stroke13 {fill: #808068;}
        .stroke14 {fill: #808067;}
        .stroke15 {fill: #808066;}
        .stroke16 {fill: #808065;}
        .stroke17 {fill: #808064;}
        .stroke18 {fill: #808063;}
        .stroke19 {fill: #808062;}
        .stroke20 {fill: #808061;}
        text {
            font-family: Helvetica;
            font-size: 50px;
            fill: #808060;
            paint-order: stroke;
            stroke: #000000;
            stroke-width: 4px;
            stroke-linecap: butt;
            stroke-linejoin: miter;
            font-weight: 800;
        }
    </style>

    <path d="M 381 746 Q 368 753 330 755 Q 317 758 313 752 Q 306 745 317 728 Q 351 670 377 571 Q 383 543 401 523 Q 423 501 427 518 Q 428 527 429 537 L 425 574 Q 425 578 424 583 Q 402 674 395 709 C 389 738 388 743 381 746 Z" class="stroke1"/>
    <path d="M 697 607 Q 733 691 768 714 Q 789 735 773 756 Q 697 820 651 806 Q 539 764 381 746 C 351 742 365 705 395 709 Q 401 709 625 748 Q 650 754 660 743 Q 669 734 666 715 Q 653 661 639 618 C 630 589 685 580 697 607 Z" class="stroke2"/>
    <path d="M 515 550 Q 588 563 706 573 Q 718 574 720 585 Q 720 592 697 607 L 639 618 Q 635 619 632 618 Q 517 588 425 574 C 395 569 399 533 429 537 L 472 543 L 515 550 Z" class="stroke3"/>
    <path d="M 502 359 Q 593 381 673 392 Q 707 396 713 385 Q 725 364 713 314 Q 686 173 648 114 Q 627 80 598 87 Q 558 100 524 117 Q 499 126 516 100 Q 576 48 604 7 Q 626 -20 650 1 Q 687 26 714 72 Q 745 126 772 294 Q 781 352 803 382 Q 819 397 811 409 Q 801 422 740 452 Q 716 462 693 448 Q 656 427 517 399 L 455 385 Q 349 366 258 362 Q 236 361 232 349 Q 229 339 260 324 Q 291 303 317 312 Q 378 330 439 344 L 502 359 Z" class="stroke4"/>
    <path d="M 439 344 Q 369 185 163 11 Q 156 4 162 0 Q 171 -3 183 3 Q 348 84 435 224 Q 499 354 502 359 L 517 399 Q 532 444 560 498 Q 567 508 561 520 Q 554 530 520 549 Q 517 550 515 550 C 488 563 472 571 472 543 Q 472 450 466 423 Q 460 405 455 385 L 439 344 Z" class="stroke5"/>
    
    
    
    
    </g>
</svg>