<svg version="1.1" viewBox="0 0 1024 1024" xmlns="http://www.w3.org/2000/svg">
  
  <g transform="scale(1, -1) translate(0, -900)">
    <style type="text/css">
        .stroke1 {fill: #808080;}
        .stroke2 {fill: #808079;}
        .stroke3 {fill: #808078;}
        .stroke4 {fill: #808077;}
        .stroke5 {fill: #808076;}
        .stroke6 {fill: #808075;}
        .stroke7 {fill: #808074;}
        .stroke8 {fill: #808073;}
        .stroke9 {fill: #808072;}
        .stroke10 {fill: #808071;}
        .stroke11 {fill: #808070;}
        .stroke12 {fill: #808069;}
        .stroke13 {fill: #808068;}
        .stroke14 {fill: #808067;}
        .stroke15 {fill: #808066;}
        .stroke16 {fill: #808065;}
        .stroke17 {fill: #808064;}
        .stroke18 {fill: #808063;}
        .stroke19 {fill: #808062;}
        .stroke20 {fill: #808061;}
        text {
            font-family: Helvetica;
            font-size: 50px;
            fill: #808060;
            paint-order: stroke;
            stroke: #000000;
            stroke-width: 4px;
            stroke-linecap: butt;
            stroke-linejoin: miter;
            font-weight: 800;
        }
    </style>

    <path d="M 129 603 Q 117 609 92 613 Q 79 617 75 612 Q 68 605 77 588 Q 108 513 125 393 Q 128 357 147 332 Q 166 310 171 325 Q 180 347 175 388 L 170 422 Q 151 543 148 574 C 146 596 146 596 129 603 Z" class="stroke1"/>
    <path d="M 324 442 Q 343 545 372 578 Q 397 608 370 623 Q 348 636 316 655 Q 294 667 255 642 Q 201 620 129 603 C 100 596 118 570 148 574 Q 158 575 171 578 Q 214 588 251 596 Q 276 602 282 592 Q 292 585 284 542 Q 277 496 266 444 C 260 415 318 413 324 442 Z" class="stroke2"/>
    <path d="M 175 388 Q 182 387 191 389 Q 237 399 337 409 Q 347 410 348 419 Q 348 426 324 442 C 307 454 295 451 266 444 Q 212 431 170 422 C 141 416 145 390 175 388 Z" class="stroke3"/>
    <path d="M 682 630 Q 776 645 935 645 Q 956 646 960 655 Q 966 667 948 681 Q 894 718 854 710 Q 721 677 420 631 Q 398 628 415 611 Q 451 581 496 595 Q 554 613 623 622 L 682 630 Z" class="stroke4"/>
    <path d="M 587 83 Q 562 90 530 96 Q 517 100 517 92 Q 517 83 529 73 Q 599 18 646 -28 Q 659 -38 674 -20 Q 719 40 712 126 Q 696 379 707 569 Q 714 599 707 610 Q 700 619 682 630 C 658 648 610 649 623 622 Q 638 607 639 544 Q 643 420 643 133 Q 642 96 631 82 Q 618 73 587 83 Z" class="stroke5"/>
    
    
    
    
    </g>
</svg>