<svg version="1.1" viewBox="0 0 1024 1024" xmlns="http://www.w3.org/2000/svg">
  
  <g transform="scale(1, -1) translate(0, -900)">
    <style type="text/css">
        .stroke1 {fill: #808080;}
        .stroke2 {fill: #808079;}
        .stroke3 {fill: #808078;}
        .stroke4 {fill: #808077;}
        .stroke5 {fill: #808076;}
        .stroke6 {fill: #808075;}
        .stroke7 {fill: #808074;}
        .stroke8 {fill: #808073;}
        .stroke9 {fill: #808072;}
        .stroke10 {fill: #808071;}
        .stroke11 {fill: #808070;}
        .stroke12 {fill: #808069;}
        .stroke13 {fill: #808068;}
        .stroke14 {fill: #808067;}
        .stroke15 {fill: #808066;}
        .stroke16 {fill: #808065;}
        .stroke17 {fill: #808064;}
        .stroke18 {fill: #808063;}
        .stroke19 {fill: #808062;}
        .stroke20 {fill: #808061;}
        text {
            font-family: Helvetica;
            font-size: 50px;
            fill: #808060;
            paint-order: stroke;
            stroke: #000000;
            stroke-width: 4px;
            stroke-linecap: butt;
            stroke-linejoin: miter;
            font-weight: 800;
        }
    </style>

    <path d="M 443 703 Q 470 746 496 782 Q 508 795 492 812 Q 447 849 419 847 Q 406 844 408 828 Q 417 711 290 577 Q 283 570 274 561 Q 240 530 222 509 Q 212 493 229 497 Q 274 506 357 589 L 377 611 Q 402 642 425 675 L 443 703 Z" class="stroke1"/>
    <path d="M 545 488 Q 591 548 641 623 Q 660 651 690 670 Q 706 677 708 687 Q 708 702 678 722 Q 641 749 626 750 Q 613 750 601 742 Q 499 709 446 703 Q 445 704 443 703 C 413 699 396 681 425 675 Q 468 657 555 690 Q 577 696 586 688 Q 593 684 568 632 Q 543 577 502 524 L 479 496 Q 326 310 84 225 Q 74 221 74 216 Q 74 212 82 210 Q 257 206 459 393 Q 463 399 470 404 Q 494 429 519 457 L 545 488 Z" class="stroke2"/>
    <path d="M 519 457 Q 715 277 751 265 Q 808 258 953 289 Q 993 298 989 309 Q 988 313 946 323 Q 769 359 732 374 Q 669 398 545 488 L 502 524 Q 472 549 442 577 Q 408 608 377 611 C 348 618 331 604 357 589 L 358 589 Q 392 571 479 496 L 519 457 Z" class="stroke3"/>
    <path d="M 356 226 Q 343 232 310 237 Q 297 241 293 234 Q 286 227 296 210 Q 327 144 347 38 Q 351 5 370 -15 Q 389 -40 396 -22 Q 400 -7 399 17 L 394 57 Q 375 156 372 190 C 369 220 369 221 356 226 Z" class="stroke4"/>
    <path d="M 655 88 Q 688 172 721 195 Q 740 214 725 235 Q 707 251 651 280 Q 632 289 607 280 Q 510 244 356 226 C 326 222 342 185 372 190 Q 600 229 610 226 Q 614 225 618 221 Q 628 211 624 191 Q 614 136 599 91 C 590 62 644 60 655 88 Z" class="stroke5"/>
    <path d="M 399 17 Q 484 35 673 46 Q 685 47 687 57 Q 687 66 655 88 C 640 99 628 97 599 91 Q 484 69 394 57 C 364 53 370 11 399 17 Z" class="stroke6"/>
    
    
    
    
    
    </g>
</svg>