<svg version="1.1" viewBox="0 0 1024 1024" xmlns="http://www.w3.org/2000/svg">
  
  <g transform="scale(1, -1) translate(0, -900)">
    <style type="text/css">
        .stroke1 {fill: #808080;}
        .stroke2 {fill: #808079;}
        .stroke3 {fill: #808078;}
        .stroke4 {fill: #808077;}
        .stroke5 {fill: #808076;}
        .stroke6 {fill: #808075;}
        .stroke7 {fill: #808074;}
        .stroke8 {fill: #808073;}
        .stroke9 {fill: #808072;}
        .stroke10 {fill: #808071;}
        .stroke11 {fill: #808070;}
        .stroke12 {fill: #808069;}
        .stroke13 {fill: #808068;}
        .stroke14 {fill: #808067;}
        .stroke15 {fill: #808066;}
        .stroke16 {fill: #808065;}
        .stroke17 {fill: #808064;}
        .stroke18 {fill: #808063;}
        .stroke19 {fill: #808062;}
        .stroke20 {fill: #808061;}
        text {
            font-family: Helvetica;
            font-size: 50px;
            fill: #808060;
            paint-order: stroke;
            stroke: #000000;
            stroke-width: 4px;
            stroke-linecap: butt;
            stroke-linejoin: miter;
            font-weight: 800;
        }
    </style>

    <path d="M 171 557 Q 158 564 128 569 Q 115 573 111 568 Q 104 561 113 544 Q 143 474 158 359 Q 161 325 179 301 Q 198 277 203 293 Q 210 314 208 350 L 203 384 Q 185 499 184 529 C 183 552 183 552 171 557 Z" class="stroke1"/>
    <path d="M 349 412 Q 362 512 389 544 Q 411 572 386 585 Q 365 595 336 612 Q 315 624 276 595 Q 237 577 171 557 C 142 548 155 520 184 529 Q 206 536 276 556 Q 301 563 308 553 Q 317 547 297 415 C 293 385 345 382 349 412 Z" class="stroke2"/>
    <path d="M 208 350 Q 247 363 363 381 Q 373 382 374 392 Q 374 399 349 412 L 297 415 Q 296 415 294 414 Q 243 395 203 384 C 174 376 179 341 208 350 Z" class="stroke3"/>
    <path d="M 701 420 Q 720 441 740 634 Q 750 689 786 724 Q 804 743 786 757 Q 765 773 710 795 Q 695 804 637 784 Q 621 784 537 758 Q 494 745 466 740 Q 448 739 446 733 Q 442 727 461 717 Q 497 701 519 709 Q 561 725 658 743 Q 674 744 682 742 Q 698 735 694 683 Q 675 493 662 453 Q 656 426 666 414 C 676 386 688 393 701 420 Z" class="stroke4"/>
    <path d="M 666 414 Q 617 408 544 393 Q 519 389 519 409 Q 522 580 535 609 Q 542 627 534 639 Q 516 657 489 668 Q 470 675 461 666 Q 454 660 463 648 Q 484 602 466 414 Q 463 396 459 378 Q 453 356 469 341 Q 490 326 512 340 Q 551 368 668 383 Q 785 407 810 383 Q 823 370 807 326 Q 800 251 788 172 Q 781 111 754 72 Q 747 60 722 62 Q 682 75 646 86 Q 630 90 631 83 Q 631 77 640 69 Q 704 11 727 -29 Q 736 -51 755 -40 Q 824 -4 836 75 Q 855 181 868 298 Q 875 338 895 370 Q 908 388 896 401 Q 877 422 838 444 Q 816 456 786 443 Q 746 425 707 421 Q 703 421 701 420 L 666 414 Z" class="stroke5"/>
    <path d="M 527 194 Q 659 215 748 210 Q 769 209 774 217 Q 780 229 768 239 Q 740 261 701 275 Q 688 279 667 270 Q 412 213 281 202 Q 268 201 268 191 Q 268 181 286 169 Q 301 159 329 151 Q 339 148 354 156 Q 363 160 405 169 Q 459 184 527 194 Z" class="stroke6"/>
    
    
    
    
    
    </g>
</svg>