<svg version="1.1" viewBox="0 0 1024 1024" xmlns="http://www.w3.org/2000/svg">
  
  <g transform="scale(1, -1) translate(0, -900)">
    <style type="text/css">
        .stroke1 {fill: #808080;}
        .stroke2 {fill: #808079;}
        .stroke3 {fill: #808078;}
        .stroke4 {fill: #808077;}
        .stroke5 {fill: #808076;}
        .stroke6 {fill: #808075;}
        .stroke7 {fill: #808074;}
        .stroke8 {fill: #808073;}
        .stroke9 {fill: #808072;}
        .stroke10 {fill: #808071;}
        .stroke11 {fill: #808070;}
        .stroke12 {fill: #808069;}
        .stroke13 {fill: #808068;}
        .stroke14 {fill: #808067;}
        .stroke15 {fill: #808066;}
        .stroke16 {fill: #808065;}
        .stroke17 {fill: #808064;}
        .stroke18 {fill: #808063;}
        .stroke19 {fill: #808062;}
        .stroke20 {fill: #808061;}
        text {
            font-family: Helvetica;
            font-size: 50px;
            fill: #808060;
            paint-order: stroke;
            stroke: #000000;
            stroke-width: 4px;
            stroke-linecap: butt;
            stroke-linejoin: miter;
            font-weight: 800;
        }
    </style>

    <path d="M 139 521 Q 129 525 109 530 Q 96 534 93 528 Q 86 522 94 506 Q 122 439 134 331 Q 135 298 152 276 Q 168 254 175 269 Q 182 288 180 320 L 177 352 Q 162 467 162 493 C 161 513 161 513 139 521 Z" class="stroke1"/>
    <path d="M 324 364 Q 340 464 368 495 Q 390 522 367 536 Q 346 548 318 566 Q 299 576 279 565 Q 234 538 139 521 C 110 516 133 485 162 493 Q 168 496 254 513 Q 279 517 285 508 Q 292 502 273 377 C 269 347 319 334 324 364 Z" class="stroke2"/>
    <path d="M 180 320 Q 189 319 199 321 Q 239 330 329 337 Q 339 338 340 348 Q 340 354 324 364 C 300 380 300 380 273 377 Q 267 377 263 375 Q 215 362 177 352 C 148 344 150 322 180 320 Z" class="stroke3"/>
    <path d="M 565 616 Q 623 641 668 669 Q 717 694 761 706 Q 780 709 784 718 Q 787 731 772 743 Q 747 759 695 774 Q 676 781 662 778 Q 653 774 654 760 Q 657 706 404 570 Q 400 560 406 556 Q 422 556 518 596 L 565 616 Z" class="stroke4"/>
    <path d="M 601 390 Q 641 399 877 418 Q 896 419 902 428 Q 906 441 889 453 Q 834 489 797 478 Q 728 459 608 433 Q 605 433 604 432 L 551 421 Q 466 405 375 387 Q 354 383 371 367 Q 386 354 404 350 Q 426 346 441 352 Q 493 370 551 380 L 601 390 Z" class="stroke5"/>
    <path d="M 966 92 Q 944 150 930 252 Q 927 268 921 276 Q 912 283 909 267 Q 896 206 883 160 Q 876 129 849 109 Q 822 82 698 85 Q 626 91 609 129 Q 591 172 601 390 L 604 432 Q 608 516 619 552 Q 628 574 596 597 Q 580 607 565 616 C 539 632 501 621 518 596 Q 548 566 549 500 Q 549 473 551 421 L 551 380 Q 544 139 566 96 Q 573 81 586 68 Q 631 16 807 25 Q 886 28 943 54 Q 979 64 966 92 Z" class="stroke6"/>
    
    
    
    
    
    </g>
</svg>