<svg version="1.1" viewBox="0 0 1024 1024" xmlns="http://www.w3.org/2000/svg">
  
  <g transform="scale(1, -1) translate(0, -900)">
    <style type="text/css">
        .stroke1 {fill: #808080;}
        .stroke2 {fill: #808079;}
        .stroke3 {fill: #808078;}
        .stroke4 {fill: #808077;}
        .stroke5 {fill: #808076;}
        .stroke6 {fill: #808075;}
        .stroke7 {fill: #808074;}
        .stroke8 {fill: #808073;}
        .stroke9 {fill: #808072;}
        .stroke10 {fill: #808071;}
        .stroke11 {fill: #808070;}
        .stroke12 {fill: #808069;}
        .stroke13 {fill: #808068;}
        .stroke14 {fill: #808067;}
        .stroke15 {fill: #808066;}
        .stroke16 {fill: #808065;}
        .stroke17 {fill: #808064;}
        .stroke18 {fill: #808063;}
        .stroke19 {fill: #808062;}
        .stroke20 {fill: #808061;}
        text {
            font-family: Helvetica;
            font-size: 50px;
            fill: #808060;
            paint-order: stroke;
            stroke: #000000;
            stroke-width: 4px;
            stroke-linecap: butt;
            stroke-linejoin: miter;
            font-weight: 800;
        }
    </style>

    <path d="M 145 599 Q 133 605 107 609 Q 94 613 91 607 Q 84 601 93 584 Q 124 514 141 401 Q 144 367 163 344 Q 182 322 187 337 Q 194 356 191 386 L 186 422 Q 165 549 165 574 C 164 591 164 591 145 599 Z" class="stroke1"/>
    <path d="M 331 453 Q 344 556 371 590 Q 393 617 369 629 Q 348 639 321 655 Q 302 665 284 653 Q 242 623 145 599 C 116 592 136 565 165 574 Q 216 590 258 602 Q 286 609 293 599 Q 303 592 297 548 Q 290 505 283 454 C 279 424 327 423 331 453 Z" class="stroke2"/>
    <path d="M 191 386 Q 200 395 347 421 Q 357 422 358 432 Q 358 439 331 453 L 283 454 Q 279 454 278 453 Q 229 435 186 422 C 157 413 165 372 191 386 Z" class="stroke3"/>
    <path d="M 627 671 Q 697 686 905 709 Q 917 708 928 722 Q 929 735 904 748 Q 864 772 797 752 Q 602 710 520 701 Q 463 697 402 688 Q 369 685 394 665 Q 431 635 456 640 Q 468 646 592 665 L 627 671 Z" class="stroke4"/>
    <path d="M 654 487 Q 655 518 655 550 Q 655 625 657 636 Q 661 648 651 656 Q 642 663 627 671 C 601 686 584 694 592 665 Q 620 605 591 139 Q 582 34 611 -1 Q 623 -17 634 2 Q 664 56 656 106 Q 655 124 654 454 L 654 487 Z" class="stroke5"/>
    <path d="M 654 454 Q 727 409 816 342 Q 835 326 850 323 Q 859 324 865 335 Q 874 350 854 390 Q 835 439 654 487 C 625 495 629 470 654 454 Z" class="stroke6"/>
    
    
    
    
    
    </g>
</svg>