<svg version="1.1" viewBox="0 0 1024 1024" xmlns="http://www.w3.org/2000/svg">
  
  <g transform="scale(1, -1) translate(0, -900)">
    <style type="text/css">
        .stroke1 {fill: #808080;}
        .stroke2 {fill: #808079;}
        .stroke3 {fill: #808078;}
        .stroke4 {fill: #808077;}
        .stroke5 {fill: #808076;}
        .stroke6 {fill: #808075;}
        .stroke7 {fill: #808074;}
        .stroke8 {fill: #808073;}
        .stroke9 {fill: #808072;}
        .stroke10 {fill: #808071;}
        .stroke11 {fill: #808070;}
        .stroke12 {fill: #808069;}
        .stroke13 {fill: #808068;}
        .stroke14 {fill: #808067;}
        .stroke15 {fill: #808066;}
        .stroke16 {fill: #808065;}
        .stroke17 {fill: #808064;}
        .stroke18 {fill: #808063;}
        .stroke19 {fill: #808062;}
        .stroke20 {fill: #808061;}
        text {
            font-family: Helvetica;
            font-size: 50px;
            fill: #808060;
            paint-order: stroke;
            stroke: #000000;
            stroke-width: 4px;
            stroke-linecap: butt;
            stroke-linejoin: miter;
            font-weight: 800;
        }
    </style>

    <path d="M 463 814 Q 497 789 533 759 Q 549 746 568 747 Q 580 748 584 764 Q 588 782 576 815 Q 561 851 453 868 Q 434 871 428 867 Q 422 863 425 848 Q 431 835 463 814 Z" class="stroke1"/>
    <path d="M 600 650 Q 667 657 759 658 Q 825 658 832 668 Q 836 680 820 694 Q 766 730 730 722 Q 598 692 196 630 Q 175 629 191 611 Q 206 598 224 593 Q 245 587 261 593 Q 405 635 566 647 L 600 650 Z" class="stroke2"/>
    <path d="M 537 458 L 645 596 Q 644 597 644 599 Q 641 609 600 650 C 579 671 572 676 566 647 Q 565 646 565 642 Q 553 573 493 488 L 468 457 Q 348 331 109 227 Q 99 221 104 216 Q 111 212 125 213 Q 216 226 299 266 Q 401 309 508 424 L 537 458 Z" class="stroke3"/>
    <path d="M 508 424 Q 625 318 728 256 Q 779 238 952 288 Q 994 300 989 311 Q 980 321 774 347 Q 668 372 537 458 L 493 488 Q 457 515 420 544 Q 374 581 336 576 Q 317 575 313 568 Q 312 561 331 551 Q 367 536 468 457 L 508 424 Z" class="stroke4"/>
    <path d="M 346 222 Q 345 223 344 224 Q 331 231 290 236 Q 277 239 273 233 Q 266 226 277 209 Q 313 140 336 28 Q 340 -6 362 -28 Q 383 -52 387 -34 Q 393 -18 390 11 L 383 50 Q 361 147 354 185 C 348 214 347 221 346 222 Z" class="stroke5"/>
    <path d="M 650 79 Q 683 163 719 184 Q 738 203 723 225 Q 705 240 645 273 Q 627 282 604 274 Q 498 238 346 222 C 316 219 325 178 354 185 Q 361 186 371 189 Q 477 205 577 220 Q 604 224 614 214 Q 627 198 591 84 C 582 55 639 51 650 79 Z" class="stroke6"/>
    <path d="M 390 11 Q 393 12 397 12 Q 482 28 665 38 Q 677 39 679 49 Q 679 58 650 79 C 633 92 620 90 591 84 Q 476 62 383 50 C 353 46 360 6 390 11 Z" class="stroke7"/>
    
    
    
    
    
    
    </g>
</svg>