<svg version="1.1" viewBox="0 0 1024 1024" xmlns="http://www.w3.org/2000/svg">
  
  <g transform="scale(1, -1) translate(0, -900)">
    <style type="text/css">
        .stroke1 {fill: #808080;}
        .stroke2 {fill: #808079;}
        .stroke3 {fill: #808078;}
        .stroke4 {fill: #808077;}
        .stroke5 {fill: #808076;}
        .stroke6 {fill: #808075;}
        .stroke7 {fill: #808074;}
        .stroke8 {fill: #808073;}
        .stroke9 {fill: #808072;}
        .stroke10 {fill: #808071;}
        .stroke11 {fill: #808070;}
        .stroke12 {fill: #808069;}
        .stroke13 {fill: #808068;}
        .stroke14 {fill: #808067;}
        .stroke15 {fill: #808066;}
        .stroke16 {fill: #808065;}
        .stroke17 {fill: #808064;}
        .stroke18 {fill: #808063;}
        .stroke19 {fill: #808062;}
        .stroke20 {fill: #808061;}
        text {
            font-family: Helvetica;
            font-size: 50px;
            fill: #808060;
            paint-order: stroke;
            stroke: #000000;
            stroke-width: 4px;
            stroke-linecap: butt;
            stroke-linejoin: miter;
            font-weight: 800;
        }
    </style>

    <path d="M 151 548 Q 139 555 109 562 Q 97 566 93 561 Q 86 555 94 538 Q 119 474 131 372 Q 132 341 149 320 Q 165 298 171 313 Q 178 329 177 357 L 173 392 Q 163 492 161 520 C 159 544 159 544 151 548 Z" class="stroke1"/>
    <path d="M 305 415 Q 321 502 346 529 Q 367 554 344 568 Q 325 578 297 594 Q 279 603 231 574 Q 195 562 151 548 C 122 539 132 513 161 520 Q 167 521 176 524 Q 212 534 243 542 Q 264 546 269 539 Q 278 532 270 495 Q 263 458 255 416 C 249 387 299 386 305 415 Z" class="stroke2"/>
    <path d="M 177 357 Q 231 370 322 381 Q 332 382 333 392 Q 333 399 305 415 C 286 426 284 425 255 416 Q 209 401 173 392 C 144 385 148 350 177 357 Z" class="stroke3"/>
    <path d="M 588 552 Q 610 646 636 671 Q 658 699 634 713 Q 612 725 583 743 Q 559 755 521 727 Q 482 706 426 691 Q 413 690 416 683 Q 417 677 432 671 Q 453 661 488 674 Q 549 689 555 682 Q 562 676 554 643 Q 544 606 533 561 C 526 532 581 523 588 552 Z" class="stroke4"/>
    <path d="M 472 495 Q 520 511 593 526 Q 603 529 603 538 Q 603 544 588 552 C 562 567 561 567 533 561 Q 526 560 517 555 Q 483 539 456 529 C 428 518 443 486 472 495 Z" class="stroke5"/>
    <path d="M 536 367 Q 555 368 564 360 Q 576 345 572 305 Q 568 212 546 149 Q 533 110 520 96 Q 511 86 486 94 Q 455 104 428 113 Q 412 119 414 108 Q 417 95 431 83 Q 470 46 491 13 Q 509 -9 530 5 Q 600 65 607 128 Q 638 335 640 337 Q 641 343 645 347 Q 655 365 644 375 Q 631 391 600 405 Q 576 415 516 394 Q 452 382 450 382 Q 446 386 470 485 Q 471 491 472 495 C 477 515 477 515 456 529 Q 447 538 427 547 Q 414 557 406 550 Q 396 543 406 530 Q 425 499 415 449 Q 403 383 376 358 Q 364 345 369 332 Q 376 319 387 311 Q 397 304 416 320 Q 461 366 536 367 Z" class="stroke6"/>
    <path d="M 769 83 Q 760 44 787 -19 Q 794 -35 802 -39 Q 809 -46 816 -38 Q 843 -16 841 45 Q 838 94 834 541 Q 833 634 848 697 Q 857 712 854 726 Q 847 735 790 768 Q 765 784 745 769 Q 741 763 747 748 Q 780 702 781 656 Q 800 214 771 92 Q 770 89 769 83 Z" class="stroke7"/>
    
    
    
    
    
    
    </g>
</svg>