<svg version="1.1" viewBox="0 0 1024 1024" xmlns="http://www.w3.org/2000/svg">
  
  <g transform="scale(1, -1) translate(0, -900)">
    <style type="text/css">
        .stroke1 {fill: #808080;}
        .stroke2 {fill: #808079;}
        .stroke3 {fill: #808078;}
        .stroke4 {fill: #808077;}
        .stroke5 {fill: #808076;}
        .stroke6 {fill: #808075;}
        .stroke7 {fill: #808074;}
        .stroke8 {fill: #808073;}
        .stroke9 {fill: #808072;}
        .stroke10 {fill: #808071;}
        .stroke11 {fill: #808070;}
        .stroke12 {fill: #808069;}
        .stroke13 {fill: #808068;}
        .stroke14 {fill: #808067;}
        .stroke15 {fill: #808066;}
        .stroke16 {fill: #808065;}
        .stroke17 {fill: #808064;}
        .stroke18 {fill: #808063;}
        .stroke19 {fill: #808062;}
        .stroke20 {fill: #808061;}
        text {
            font-family: Helvetica;
            font-size: 50px;
            fill: #808060;
            paint-order: stroke;
            stroke: #000000;
            stroke-width: 4px;
            stroke-linecap: butt;
            stroke-linejoin: miter;
            font-weight: 800;
        }
    </style>

    <path d="M 513 795 Q 544 773 578 746 Q 593 734 610 736 Q 620 737 625 752 Q 628 768 616 798 Q 601 832 503 844 Q 487 847 480 843 Q 476 839 478 825 Q 482 815 513 795 Z" class="stroke1"/>
    <path d="M 711 509 Q 741 603 775 629 Q 793 648 777 666 Q 761 679 706 705 Q 687 712 665 704 Q 557 662 390 637 C 360 632 362 598 392 602 Q 408 602 640 652 Q 667 659 678 648 Q 693 630 664 525 C 656 496 702 481 711 509 Z" class="stroke2"/>
    <path d="M 363 444 Q 378 435 398 438 Q 498 460 714 480 Q 726 481 727 490 Q 727 497 711 509 C 689 527 689 527 664 525 Q 654 525 646 522 Q 492 486 368 472 C 338 469 336 456 363 444 Z" class="stroke3"/>
    <path d="M 390 637 Q 387 641 382 644 Q 333 675 316 674 Q 294 673 309 647 Q 334 593 297 391 Q 284 310 231 217 Q 186 133 88 65 Q 70 52 67 46 Q 63 39 77 38 Q 116 35 206 108 Q 317 207 363 444 L 368 472 Q 377 521 385 576 Q 389 592 392 602 C 400 630 400 630 390 637 Z" class="stroke4"/>
    <path d="M 405 288 Q 393 295 360 301 Q 347 305 343 300 Q 336 293 345 276 Q 376 200 393 78 Q 396 41 415 17 Q 434 -7 439 9 Q 446 30 444 64 L 439 101 Q 420 216 417 254 C 414 284 414 284 405 288 Z" class="stroke5"/>
    <path d="M 721 134 Q 745 233 782 263 Q 800 284 784 303 Q 709 360 649 337 Q 544 304 405 288 C 375 284 387 250 417 254 Q 450 258 641 291 Q 666 297 676 286 Q 689 276 686 252 Q 679 188 666 135 C 659 106 714 105 721 134 Z" class="stroke6"/>
    <path d="M 444 64 Q 448 64 458 65 Q 548 81 741 92 Q 753 93 755 102 Q 756 111 724 133 Q 723 134 721 134 L 666 135 Q 539 110 439 101 C 409 98 414 62 444 64 Z" class="stroke7"/>
    
    
    
    
    
    
    </g>
</svg>