<svg version="1.1" viewBox="0 0 1024 1024" xmlns="http://www.w3.org/2000/svg">
  
  <g transform="scale(1, -1) translate(0, -900)">
    <style type="text/css">
        .stroke1 {fill: #808080;}
        .stroke2 {fill: #808079;}
        .stroke3 {fill: #808078;}
        .stroke4 {fill: #808077;}
        .stroke5 {fill: #808076;}
        .stroke6 {fill: #808075;}
        .stroke7 {fill: #808074;}
        .stroke8 {fill: #808073;}
        .stroke9 {fill: #808072;}
        .stroke10 {fill: #808071;}
        .stroke11 {fill: #808070;}
        .stroke12 {fill: #808069;}
        .stroke13 {fill: #808068;}
        .stroke14 {fill: #808067;}
        .stroke15 {fill: #808066;}
        .stroke16 {fill: #808065;}
        .stroke17 {fill: #808064;}
        .stroke18 {fill: #808063;}
        .stroke19 {fill: #808062;}
        .stroke20 {fill: #808061;}
        text {
            font-family: Helvetica;
            font-size: 50px;
            fill: #808060;
            paint-order: stroke;
            stroke: #000000;
            stroke-width: 4px;
            stroke-linecap: butt;
            stroke-linejoin: miter;
            font-weight: 800;
        }
    </style>

    <path d="M 163 564 Q 150 571 120 578 Q 107 582 103 577 Q 96 571 104 553 Q 132 480 144 364 Q 145 330 164 305 Q 180 281 188 297 Q 197 319 193 358 L 190 391 Q 177 508 175 537 C 173 559 173 559 163 564 Z" class="stroke1"/>
    <path d="M 328 418 Q 344 515 370 545 Q 392 570 368 584 Q 307 617 299 616 Q 292 615 284 610 Q 251 589 163 564 C 134 556 147 527 175 537 Q 174 538 176 538 Q 221 551 260 560 Q 285 567 292 556 Q 302 549 294 508 Q 287 466 279 418 C 274 388 323 388 328 418 Z" class="stroke2"/>
    <path d="M 193 358 Q 214 370 343 387 Q 353 388 353 397 Q 353 404 328 418 C 310 428 308 427 279 418 Q 230 402 190 391 C 161 383 166 345 193 358 Z" class="stroke3"/>
    <path d="M 488 552 Q 492 562 501 572 Q 538 624 578 704 Q 594 741 610 760 Q 619 772 612 785 Q 606 798 574 818 Q 543 834 524 832 Q 505 828 516 806 Q 529 784 524 763 Q 508 693 475 624 Q 444 558 399 485 Q 390 473 388 466 Q 387 454 401 459 Q 423 465 474 534 L 488 552 Z" class="stroke4"/>
    <path d="M 712 558 Q 758 568 786 568 Q 801 569 806 562 Q 824 519 787 293 Q 763 187 726 121 Q 707 87 685 87 Q 670 84 593 118 Q 583 122 583 116 Q 582 112 593 101 Q 636 49 655 13 Q 665 -9 680 -9 Q 701 -12 723 8 Q 801 68 833 215 Q 855 317 875 475 Q 879 511 903 537 Q 918 550 917 559 Q 916 568 896 582 Q 868 604 831 617 Q 806 626 750 607 Q 729 603 703 595 Q 594 568 488 552 C 458 547 444 539 474 534 Q 499 527 525 527 L 562 532 Q 613 541 659 549 L 712 558 Z" class="stroke5"/>
    <path d="M 525 527 Q 537 500 503 434 Q 472 362 382 265 Q 376 261 376 255 Q 376 251 381 251 Q 453 266 561 437 Q 561 443 588 480 Q 595 490 588 502 Q 575 521 562 532 C 540 553 517 556 525 527 Z" class="stroke6"/>
    <path d="M 659 549 Q 680 357 436 131 Q 418 116 399 98 Q 392 91 398 87 Q 405 86 416 90 Q 486 124 544 178 Q 644 263 710 458 Q 722 489 737 519 Q 744 529 738 539 Q 732 546 712 558 C 687 574 657 579 659 549 Z" class="stroke7"/>
    
    
    
    
    
    
    </g>
</svg>