<svg version="1.1" viewBox="0 0 1024 1024" xmlns="http://www.w3.org/2000/svg">
  
  <g transform="scale(1, -1) translate(0, -900)">
    <style type="text/css">
        .stroke1 {fill: #808080;}
        .stroke2 {fill: #808079;}
        .stroke3 {fill: #808078;}
        .stroke4 {fill: #808077;}
        .stroke5 {fill: #808076;}
        .stroke6 {fill: #808075;}
        .stroke7 {fill: #808074;}
        .stroke8 {fill: #808073;}
        .stroke9 {fill: #808072;}
        .stroke10 {fill: #808071;}
        .stroke11 {fill: #808070;}
        .stroke12 {fill: #808069;}
        .stroke13 {fill: #808068;}
        .stroke14 {fill: #808067;}
        .stroke15 {fill: #808066;}
        .stroke16 {fill: #808065;}
        .stroke17 {fill: #808064;}
        .stroke18 {fill: #808063;}
        .stroke19 {fill: #808062;}
        .stroke20 {fill: #808061;}
        text {
            font-family: Helvetica;
            font-size: 50px;
            fill: #808060;
            paint-order: stroke;
            stroke: #000000;
            stroke-width: 4px;
            stroke-linecap: butt;
            stroke-linejoin: miter;
            font-weight: 800;
        }
    </style>

    <path d="M 330 768 Q 320 772 297 776 Q 287 780 283 775 Q 276 769 285 754 Q 310 699 326 608 Q 329 581 345 563 Q 361 542 366 557 Q 370 569 370 589 L 366 618 Q 351 709 349 738 C 347 762 347 762 330 768 Z" class="stroke1"/>
    <path d="M 668 658 Q 690 727 721 750 Q 737 769 723 786 Q 707 799 655 825 Q 637 832 616 824 Q 498 781 330 768 C 300 766 319 738 349 738 Q 368 737 391 742 Q 493 760 590 777 Q 615 783 625 772 Q 634 765 633 747 Q 627 701 618 663 C 611 634 658 630 668 658 Z" class="stroke2"/>
    <path d="M 370 589 Q 383 583 402 586 Q 490 605 682 620 Q 694 621 695 630 Q 695 639 668 658 C 654 668 648 667 618 663 Q 617 664 614 663 Q 478 632 368 620 Q 367 620 366 618 C 337 609 341 598 370 589 Z" class="stroke3"/>
    <path d="M 341 505 Q 322 518 301 524 Q 294 525 287 518 Q 284 512 291 503 Q 321 425 304 274 Q 292 201 293 194 Q 303 163 313 151 Q 323 139 333 152 Q 355 179 356 328 Q 356 449 360 473 C 362 492 362 492 341 505 Z" class="stroke4"/>
    <path d="M 654 213 Q 647 191 660 169 Q 673 141 682 142 Q 695 143 711 175 Q 726 200 724 220 Q 714 299 716 422 Q 716 458 736 488 Q 746 504 739 515 Q 711 540 662 562 Q 646 568 621 559 Q 480 502 341 505 C 311 505 330 468 360 473 Q 364 474 368 474 Q 443 487 500 498 Q 620 523 646 506 Q 656 484 660 425 Q 664 247 654 213 Z" class="stroke5"/>
    <path d="M 477 368 Q 489 173 438 101 Q 395 37 246 -21 Q 234 -24 231 -27 Q 225 -31 240 -36 Q 321 -42 435 25 Q 454 40 470 57 Q 524 121 529 294 Q 533 373 542 399 Q 546 409 538 416 Q 520 431 487 443 Q 468 452 452 446 Q 434 439 449 422 Q 476 397 477 368 Z" class="stroke6"/>
    <path d="M 571 88 Q 635 36 714 -43 Q 732 -64 748 -67 Q 758 -68 765 -57 Q 778 -42 762 3 Q 749 48 675 79 Q 632 100 571 121 Q 561 125 559 113 Q 559 98 571 88 Z" class="stroke7"/>
    
    
    
    
    
    
    </g>
</svg>