<svg version="1.1" viewBox="0 0 1024 1024" xmlns="http://www.w3.org/2000/svg">
  
  <g transform="scale(1, -1) translate(0, -900)">
    <style type="text/css">
        .stroke1 {fill: #808080;}
        .stroke2 {fill: #808079;}
        .stroke3 {fill: #808078;}
        .stroke4 {fill: #808077;}
        .stroke5 {fill: #808076;}
        .stroke6 {fill: #808075;}
        .stroke7 {fill: #808074;}
        .stroke8 {fill: #808073;}
        .stroke9 {fill: #808072;}
        .stroke10 {fill: #808071;}
        .stroke11 {fill: #808070;}
        .stroke12 {fill: #808069;}
        .stroke13 {fill: #808068;}
        .stroke14 {fill: #808067;}
        .stroke15 {fill: #808066;}
        .stroke16 {fill: #808065;}
        .stroke17 {fill: #808064;}
        .stroke18 {fill: #808063;}
        .stroke19 {fill: #808062;}
        .stroke20 {fill: #808061;}
        text {
            font-family: Helvetica;
            font-size: 50px;
            fill: #808060;
            paint-order: stroke;
            stroke: #000000;
            stroke-width: 4px;
            stroke-linecap: butt;
            stroke-linejoin: miter;
            font-weight: 800;
        }
    </style>

    <path d="M 148 591 Q 136 598 105 606 Q 93 610 89 605 Q 82 599 90 583 Q 117 507 126 386 Q 127 350 145 325 Q 161 301 167 317 Q 174 336 174 369 L 172 404 Q 159 522 157 560 C 155 587 155 587 148 591 Z" class="stroke1"/>
    <path d="M 307 424 Q 329 533 360 567 Q 384 595 359 610 Q 337 622 308 640 Q 287 652 242 624 Q 199 606 148 591 C 119 582 128 551 157 560 Q 175 566 247 584 Q 271 590 277 580 Q 287 573 276 529 Q 266 483 252 428 C 245 399 301 395 307 424 Z" class="stroke2"/>
    <path d="M 174 369 Q 207 381 318 393 Q 328 394 329 404 Q 329 411 307 424 L 252 428 L 251 428 Q 208 415 172 404 C 143 395 146 359 174 369 Z" class="stroke3"/>
    <path d="M 592 706 Q 731 758 760 763 Q 778 763 782 772 Q 786 782 774 795 Q 752 813 705 832 Q 689 839 674 839 Q 667 835 665 823 Q 665 777 429 677 Q 423 667 430 664 Q 460 664 550 694 Q 557 695 565 698 L 592 706 Z" class="stroke4"/>
    <path d="M 444 565 Q 471 514 501 492 Q 514 486 527 498 Q 536 508 536 527 Q 535 552 520 568 Q 504 583 483 593 Q 446 608 439 608 Q 432 608 432 595 Q 432 583 444 565 Z" class="stroke5"/>
    <path d="M 766 648 Q 754 624 698 547 Q 688 529 706 533 Q 749 558 774 577 Q 837 626 853 633 Q 875 643 863 662 Q 848 678 821 692 Q 796 705 784 701 Q 771 700 776 686 Q 780 667 766 648 Z" class="stroke6"/>
    <path d="M 674 405 Q 765 418 901 420 Q 967 420 973 431 Q 977 444 960 457 Q 906 494 866 486 Q 791 468 671 445 L 620 436 Q 500 417 364 395 Q 342 392 359 375 Q 395 345 432 357 Q 519 382 619 397 Q 620 398 622 397 L 674 405 Z" class="stroke7"/>
    <path d="M 622 397 Q 628 175 585 107 Q 582 100 573 96 Q 563 93 469 104 Q 460 105 458 101 Q 457 97 466 88 Q 530 36 564 -4 Q 574 -17 583 -15 Q 598 -14 624 13 Q 649 35 662 74 Q 681 114 683 175 Q 686 239 675 399 Q 674 403 674 405 L 671 445 Q 664 547 658 577 Q 652 622 651 656 Q 650 677 638 684 Q 613 700 592 706 C 564 717 548 722 565 698 Q 566 695 572 690 Q 591 663 599 624 Q 615 536 620 436 L 622 397 Z" class="stroke8"/>
    
    
    
    
    
    
    
    </g>
</svg>