<svg version="1.1" viewBox="0 0 1024 1024" xmlns="http://www.w3.org/2000/svg">
  
  <g transform="scale(1, -1) translate(0, -900)">
    <style type="text/css">
        .stroke1 {fill: #808080;}
        .stroke2 {fill: #808079;}
        .stroke3 {fill: #808078;}
        .stroke4 {fill: #808077;}
        .stroke5 {fill: #808076;}
        .stroke6 {fill: #808075;}
        .stroke7 {fill: #808074;}
        .stroke8 {fill: #808073;}
        .stroke9 {fill: #808072;}
        .stroke10 {fill: #808071;}
        .stroke11 {fill: #808070;}
        .stroke12 {fill: #808069;}
        .stroke13 {fill: #808068;}
        .stroke14 {fill: #808067;}
        .stroke15 {fill: #808066;}
        .stroke16 {fill: #808065;}
        .stroke17 {fill: #808064;}
        .stroke18 {fill: #808063;}
        .stroke19 {fill: #808062;}
        .stroke20 {fill: #808061;}
        text {
            font-family: Helvetica;
            font-size: 50px;
            fill: #808060;
            paint-order: stroke;
            stroke: #000000;
            stroke-width: 4px;
            stroke-linecap: butt;
            stroke-linejoin: miter;
            font-weight: 800;
        }
    </style>

    <path d="M 110 559 Q 98 563 72 569 Q 60 572 57 567 Q 50 561 59 545 Q 92 469 109 346 Q 112 309 132 284 Q 150 262 155 277 Q 164 302 156 350 L 150 384 Q 129 502 127 532 C 125 554 125 554 110 559 Z" class="stroke1"/>
    <path d="M 285 414 Q 297 510 322 540 Q 344 568 319 582 Q 298 592 269 609 Q 247 621 206 591 Q 164 575 110 559 C 81 550 98 523 127 532 Q 145 538 211 553 Q 233 559 239 550 Q 249 543 243 503 Q 239 461 232 411 C 228 381 281 384 285 414 Z" class="stroke2"/>
    <path d="M 156 350 Q 163 350 172 353 Q 212 366 303 381 Q 313 382 314 392 Q 314 399 285 414 C 268 423 261 420 232 411 Q 183 395 150 384 C 122 375 126 348 156 350 Z" class="stroke3"/>
    <path d="M 518 524 Q 543 534 572 541 Q 602 551 606 555 Q 613 564 608 572 Q 601 584 570 588 Q 545 591 520 581 L 469 559 Q 355 529 350 527 Q 313 517 342 503 Q 387 482 442 502 Q 455 506 469 509 L 518 524 Z" class="stroke4"/>
    <path d="M 466 305 Q 465 223 464 118 Q 464 96 451 86 Q 442 82 385 94 Q 352 107 355 97 Q 356 90 376 74 Q 434 23 448 -4 Q 464 -37 479 -39 Q 494 -40 509 -5 Q 528 40 526 114 Q 519 229 517 342 L 516 373 Q 515 449 518 524 L 520 581 Q 520 585 521 587 Q 525 675 539 721 Q 555 751 500 773 Q 466 792 447 785 Q 429 778 445 756 Q 467 728 468 694 Q 469 679 469 559 L 469 509 Q 468 442 466 346 L 466 305 Z" class="stroke5"/>
    <path d="M 517 342 Q 535 357 555 368 Q 574 378 584 392 Q 591 405 581 404 Q 578 404 516 373 L 466 346 Q 387 306 319 267 Q 285 249 263 244 Q 250 238 248 231 Q 247 222 260 208 Q 278 193 300 184 Q 310 181 339 204 Q 393 255 466 305 L 517 342 Z" class="stroke6"/>
    <path d="M 792 518 Q 844 528 923 534 Q 962 534 971 546 Q 975 558 958 570 Q 895 606 836 579 Q 761 558 602 519 Q 583 515 598 500 Q 634 475 667 487 Q 701 500 743 508 L 792 518 Z" class="stroke7"/>
    <path d="M 743 508 Q 758 477 759 436 Q 763 336 768 106 Q 767 75 758 63 Q 748 56 720 63 Q 692 73 657 84 Q 644 87 645 80 Q 645 73 656 63 Q 726 6 770 -38 Q 782 -47 796 -31 Q 827 23 829 109 Q 814 295 821 459 Q 825 487 820 497 Q 813 507 792 518 C 766 534 732 536 743 508 Z" class="stroke8"/>
    
    
    
    
    
    
    
    </g>
</svg>