<svg version="1.1" viewBox="0 0 1024 1024" xmlns="http://www.w3.org/2000/svg">
  
  <g transform="scale(1, -1) translate(0, -900)">
    <style type="text/css">
        .stroke1 {fill: #808080;}
        .stroke2 {fill: #808079;}
        .stroke3 {fill: #808078;}
        .stroke4 {fill: #808077;}
        .stroke5 {fill: #808076;}
        .stroke6 {fill: #808075;}
        .stroke7 {fill: #808074;}
        .stroke8 {fill: #808073;}
        .stroke9 {fill: #808072;}
        .stroke10 {fill: #808071;}
        .stroke11 {fill: #808070;}
        .stroke12 {fill: #808069;}
        .stroke13 {fill: #808068;}
        .stroke14 {fill: #808067;}
        .stroke15 {fill: #808066;}
        .stroke16 {fill: #808065;}
        .stroke17 {fill: #808064;}
        .stroke18 {fill: #808063;}
        .stroke19 {fill: #808062;}
        .stroke20 {fill: #808061;}
        text {
            font-family: Helvetica;
            font-size: 50px;
            fill: #808060;
            paint-order: stroke;
            stroke: #000000;
            stroke-width: 4px;
            stroke-linecap: butt;
            stroke-linejoin: miter;
            font-weight: 800;
        }
    </style>

    <path d="M 137 557 Q 124 564 96 570 Q 83 574 79 568 Q 72 562 80 545 Q 108 479 121 374 Q 122 343 140 321 Q 156 297 163 313 Q 169 326 169 350 L 166 384 Q 153 499 152 528 C 151 551 151 551 137 557 Z" class="stroke1"/>
    <path d="M 297 410 Q 313 506 340 535 Q 362 562 338 576 Q 272 609 271 609 Q 261 609 250 602 Q 216 580 137 557 C 108 548 123 519 152 528 Q 158 531 232 549 Q 254 555 259 546 Q 268 539 260 501 Q 253 458 243 408 C 237 379 292 380 297 410 Z" class="stroke2"/>
    <path d="M 169 350 Q 223 363 314 377 Q 324 378 325 388 Q 325 395 297 410 C 280 419 272 417 243 408 Q 200 395 166 384 C 137 375 140 343 169 350 Z" class="stroke3"/>
    <path d="M 413 591 Q 434 569 455 540 Q 468 527 483 525 Q 493 524 501 537 Q 507 550 502 582 Q 496 612 414 640 Q 399 644 392 643 Q 386 639 387 627 Q 388 615 413 591 Z" class="stroke4"/>
    <path d="M 714 668 Q 699 635 654 575 Q 644 557 662 561 Q 702 583 725 600 Q 773 640 801 653 Q 823 665 811 682 Q 796 698 769 712 Q 744 725 732 721 Q 719 720 724 706 Q 728 687 714 668 Z" class="stroke5"/>
    <path d="M 607 432 Q 683 450 827 467 Q 839 466 848 479 Q 849 492 825 503 Q 788 527 715 503 Q 618 482 607 476 L 557 466 Q 517 460 361 439 Q 330 435 354 416 Q 387 391 434 399 Q 473 408 523 416 L 607 432 Z" class="stroke6"/>
    <path d="M 606 420 Q 606 426 607 432 L 607 476 Q 607 683 625 751 Q 640 778 613 798 Q 597 810 564 829 Q 539 847 517 829 Q 511 825 518 807 Q 554 756 554 687 Q 557 506 557 466 L 556 362 Q 556 188 535 98 Q 517 71 530 32 Q 537 5 549 -21 Q 556 -40 565 -43 Q 572 -50 579 -41 Q 588 -37 599 -14 Q 609 13 608 47 Q 607 87 606 376 L 606 420 Z" class="stroke7"/>
    <path d="M 523 416 Q 447 272 248 123 Q 235 111 244 109 Q 268 100 352 153 Q 427 198 556 362 C 608 428 546 458 523 416 Z" class="stroke8"/>
    <path d="M 606 376 Q 678 270 770 154 Q 788 133 819 133 Q 927 133 960 138 Q 970 139 972 145 Q 973 151 959 158 Q 818 216 751 274 Q 682 338 606 420 C 586 442 589 401 606 376 Z" class="stroke9"/>
    
    
    
    
    
    
    
    
    </g>
</svg>