<svg version="1.1" viewBox="0 0 1024 1024" xmlns="http://www.w3.org/2000/svg">
  
  <g transform="scale(1, -1) translate(0, -900)">
    <style type="text/css">
        .stroke1 {fill: #808080;}
        .stroke2 {fill: #808079;}
        .stroke3 {fill: #808078;}
        .stroke4 {fill: #808077;}
        .stroke5 {fill: #808076;}
        .stroke6 {fill: #808075;}
        .stroke7 {fill: #808074;}
        .stroke8 {fill: #808073;}
        .stroke9 {fill: #808072;}
        .stroke10 {fill: #808071;}
        .stroke11 {fill: #808070;}
        .stroke12 {fill: #808069;}
        .stroke13 {fill: #808068;}
        .stroke14 {fill: #808067;}
        .stroke15 {fill: #808066;}
        .stroke16 {fill: #808065;}
        .stroke17 {fill: #808064;}
        .stroke18 {fill: #808063;}
        .stroke19 {fill: #808062;}
        .stroke20 {fill: #808061;}
        text {
            font-family: Helvetica;
            font-size: 50px;
            fill: #808060;
            paint-order: stroke;
            stroke: #000000;
            stroke-width: 4px;
            stroke-linecap: butt;
            stroke-linejoin: miter;
            font-weight: 800;
        }
    </style>

    <path d="M 137 545 Q 124 552 96 558 Q 83 562 79 556 Q 72 550 80 533 Q 108 467 121 362 Q 122 331 140 309 Q 156 285 163 301 Q 170 317 169 345 L 165 381 Q 152 490 152 517 C 151 538 151 538 137 545 Z" class="stroke1"/>
    <path d="M 302 405 Q 318 501 344 531 Q 366 559 341 572 Q 320 582 292 599 Q 273 608 234 583 Q 195 564 137 545 C 109 536 123 509 152 517 Q 158 518 166 521 Q 203 534 236 542 Q 258 549 265 540 Q 274 533 266 494 Q 259 454 250 408 C 244 379 297 375 302 405 Z" class="stroke2"/>
    <path d="M 169 345 Q 176 345 187 347 Q 227 359 318 371 Q 328 372 329 382 Q 329 389 302 405 C 278 419 278 419 250 408 Q 246 407 245 406 Q 200 390 165 381 C 136 373 139 344 169 345 Z" class="stroke3"/>
    <path d="M 553 560 Q 664 587 825 614 Q 837 613 846 627 Q 846 640 821 650 Q 782 674 724 650 Q 679 638 635 625 Q 598 615 563 607 L 507 596 Q 494 596 400 579 Q 369 575 393 556 Q 429 532 471 541 Q 481 544 495 546 L 553 560 Z" class="stroke4"/>
    <path d="M 495 546 Q 429 294 293 158 Q 259 130 257 126 Q 253 119 270 120 Q 316 120 423 247 Q 429 257 437 268 Q 516 392 553 560 L 563 607 Q 584 698 606 740 Q 613 750 605 760 Q 589 779 555 799 Q 536 812 518 809 Q 496 805 510 784 Q 534 750 529 720 Q 519 653 507 596 L 495 546 Z" class="stroke5"/>
    <path d="M 494 308 Q 516 265 539 249 Q 549 245 560 253 Q 567 263 568 277 Q 567 296 554 310 Q 517 347 492 342 Q 491 343 490 342 Q 486 342 485 332 Q 484 322 494 308 Z" class="stroke6"/>
    <path d="M 760 403 Q 741 369 702 313 Q 698 306 703 299 Q 710 298 719 303 Q 798 364 837 387 Q 855 393 850 404 Q 843 420 822 438 Q 801 454 778 456 Q 762 455 765 434 Q 768 421 760 403 Z" class="stroke7"/>
    <path d="M 649 230 Q 658 260 677 387 Q 678 420 691 450 Q 698 469 682 476 Q 631 507 606 497 Q 593 491 600 477 Q 634 431 609 282 Q 606 269 603 253 Q 570 130 441 22 Q 435 18 430 12 Q 417 2 430 0 Q 493 6 564 83 Q 606 123 640 205 L 649 230 Z" class="stroke8"/>
    <path d="M 640 205 Q 704 115 776 31 Q 795 9 831 4 Q 895 -3 964 4 Q 982 5 984 9 Q 985 16 973 22 Q 805 100 799 104 Q 742 146 649 230 C 627 250 623 229 640 205 Z" class="stroke9"/>
    
    
    
    
    
    
    
    
    </g>
</svg>