<svg version="1.1" viewBox="0 0 1024 1024" xmlns="http://www.w3.org/2000/svg">
  
  <g transform="scale(1, -1) translate(0, -900)">
    <style type="text/css">
        .stroke1 {fill: #808080;}
        .stroke2 {fill: #808079;}
        .stroke3 {fill: #808078;}
        .stroke4 {fill: #808077;}
        .stroke5 {fill: #808076;}
        .stroke6 {fill: #808075;}
        .stroke7 {fill: #808074;}
        .stroke8 {fill: #808073;}
        .stroke9 {fill: #808072;}
        .stroke10 {fill: #808071;}
        .stroke11 {fill: #808070;}
        .stroke12 {fill: #808069;}
        .stroke13 {fill: #808068;}
        .stroke14 {fill: #808067;}
        .stroke15 {fill: #808066;}
        .stroke16 {fill: #808065;}
        .stroke17 {fill: #808064;}
        .stroke18 {fill: #808063;}
        .stroke19 {fill: #808062;}
        .stroke20 {fill: #808061;}
        text {
            font-family: Helvetica;
            font-size: 50px;
            fill: #808060;
            paint-order: stroke;
            stroke: #000000;
            stroke-width: 4px;
            stroke-linecap: butt;
            stroke-linejoin: miter;
            font-weight: 800;
        }
    </style>

    <path d="M 136 539 Q 124 545 101 550 Q 88 554 85 549 Q 78 543 86 526 Q 114 456 125 342 Q 126 308 144 284 Q 160 262 167 277 Q 176 298 172 337 L 168 371 Q 153 483 153 512 C 152 532 152 532 136 539 Z" class="stroke1"/>
    <path d="M 309 398 Q 324 491 349 519 Q 371 547 346 561 Q 325 571 297 588 Q 273 600 234 571 Q 182 550 136 539 C 107 532 124 505 153 512 Q 216 527 239 533 Q 261 539 267 530 Q 276 524 256 398 C 251 368 304 368 309 398 Z" class="stroke2"/>
    <path d="M 172 337 Q 179 337 188 339 Q 231 352 326 365 Q 336 366 337 376 Q 337 383 309 398 C 289 409 285 407 256 398 Q 207 382 168 371 C 139 363 142 335 172 337 Z" class="stroke3"/>
    <path d="M 488 632 Q 569 656 643 698 Q 689 722 730 734 Q 748 737 751 746 Q 754 758 740 768 Q 716 783 667 796 Q 651 803 636 800 Q 629 796 629 784 Q 630 748 477 650 C 452 634 459 623 488 632 Z" class="stroke4"/>
    <path d="M 477 650 Q 461 663 434 675 Q 415 685 401 680 Q 388 673 395 658 Q 413 636 414 580 Q 413 562 413 540 Q 407 375 367 247 Q 331 142 255 20 Q 249 13 247 7 Q 246 -5 256 -2 Q 287 4 363 122 Q 378 150 393 181 Q 453 316 471 511 Q 477 590 484 614 Q 488 624 488 632 C 490 641 490 641 477 650 Z" class="stroke5"/>
    <path d="M 581 479 Q 635 504 667 523 Q 737 566 764 573 Q 786 580 778 599 Q 768 618 743 634 Q 722 650 709 649 Q 696 649 699 636 Q 700 605 636 550 Q 605 523 571 493 C 548 473 554 466 581 479 Z" class="stroke6"/>
    <path d="M 575 436 Q 576 452 580 466 Q 581 473 581 479 C 582 484 582 484 571 493 Q 549 512 529 522 Q 511 529 502 524 Q 492 517 501 502 Q 546 412 517 146 Q 508 110 482 73 Q 472 57 479 35 Q 491 10 504 -2 Q 517 -9 528 8 Q 541 38 672 167 Q 688 180 692 190 Q 696 200 686 199 Q 673 199 573 131 Q 567 127 565 132 Q 574 234 574 422 L 575 436 Z" class="stroke7"/>
    <path d="M 687 350 Q 727 372 753 390 Q 810 432 839 442 Q 858 449 850 466 Q 840 482 816 497 Q 795 510 783 508 Q 771 508 775 495 Q 775 468 674 365 C 653 344 661 335 687 350 Z" class="stroke8"/>
    <path d="M 674 365 Q 649 392 624 422 Q 614 437 598 439 Q 580 440 575 436 C 559 433 559 433 574 422 Q 605 403 624 372 Q 792 132 825 122 Q 894 122 958 133 Q 973 134 978 142 Q 982 148 972 152 Q 815 221 743 293 Q 716 318 687 350 L 674 365 Z" class="stroke9"/>
    
    
    
    
    
    
    
    
    </g>
</svg>