<svg version="1.1" viewBox="0 0 1024 1024" xmlns="http://www.w3.org/2000/svg">
  
  <g transform="scale(1, -1) translate(0, -900)">
    <style type="text/css">
        .stroke1 {fill: #808080;}
        .stroke2 {fill: #808079;}
        .stroke3 {fill: #808078;}
        .stroke4 {fill: #808077;}
        .stroke5 {fill: #808076;}
        .stroke6 {fill: #808075;}
        .stroke7 {fill: #808074;}
        .stroke8 {fill: #808073;}
        .stroke9 {fill: #808072;}
        .stroke10 {fill: #808071;}
        .stroke11 {fill: #808070;}
        .stroke12 {fill: #808069;}
        .stroke13 {fill: #808068;}
        .stroke14 {fill: #808067;}
        .stroke15 {fill: #808066;}
        .stroke16 {fill: #808065;}
        .stroke17 {fill: #808064;}
        .stroke18 {fill: #808063;}
        .stroke19 {fill: #808062;}
        .stroke20 {fill: #808061;}
        text {
            font-family: Helvetica;
            font-size: 50px;
            fill: #808060;
            paint-order: stroke;
            stroke: #000000;
            stroke-width: 4px;
            stroke-linecap: butt;
            stroke-linejoin: miter;
            font-weight: 800;
        }
    </style>

    <path d="M 132 540 Q 119 544 96 549 Q 84 552 81 547 Q 74 541 83 525 Q 114 456 130 344 Q 133 310 152 288 Q 170 266 175 281 Q 181 299 178 331 L 173 366 Q 152 487 151 514 C 149 535 149 535 132 540 Z" class="stroke1"/>
    <path d="M 306 400 Q 315 500 338 532 Q 357 560 333 571 Q 312 581 284 595 Q 266 604 228 578 Q 189 557 132 540 C 103 531 123 504 151 514 Q 154 515 159 517 Q 198 530 230 540 Q 252 547 259 538 Q 269 531 265 491 Q 261 448 256 397 C 253 367 303 370 306 400 Z" class="stroke2"/>
    <path d="M 178 331 Q 238 352 324 368 Q 334 371 335 380 Q 334 387 306 400 L 256 397 L 255 397 Q 209 379 173 366 C 145 356 150 321 178 331 Z" class="stroke3"/>
    <path d="M 506 510 Q 515 523 618 695 Q 631 720 653 742 Q 672 761 653 776 Q 631 789 597 794 Q 566 798 553 790 Q 540 783 550 770 Q 568 740 509 585 Q 494 548 478 506 C 467 478 490 485 506 510 Z" class="stroke4"/>
    <path d="M 435 501 Q 417 514 396 520 Q 387 521 381 514 Q 378 508 385 498 Q 425 411 399 204 Q 380 99 380 95 L 381 93 Q 390 60 401 48 Q 411 35 421 48 Q 448 75 449 264 Q 449 405 455 460 C 457 487 457 487 435 501 Z" class="stroke5"/>
    <path d="M 455 460 Q 537 487 764 521 Q 789 530 804 516 Q 814 510 817 463 Q 824 307 813 131 Q 812 104 802 98 Q 789 86 712 99 Q 696 100 698 91 Q 699 84 712 80 Q 779 40 816 8 Q 835 -11 848 -8 Q 860 -5 870 22 Q 885 65 882 128 Q 867 459 884 497 Q 896 519 886 530 Q 876 545 828 567 Q 807 579 743 557 Q 635 533 506 510 L 478 506 Q 456 505 435 501 C 405 497 426 452 455 460 Z" class="stroke6"/>
    <path d="M 547 383 Q 537 387 516 393 Q 506 396 503 392 Q 497 388 503 373 Q 524 324 533 246 Q 534 224 547 206 Q 560 187 566 200 Q 570 209 571 221 L 570 251 Q 560 336 560 359 C 560 378 560 378 547 383 Z" class="stroke7"/>
    <path d="M 703 269 Q 719 339 740 360 Q 761 382 740 395 Q 724 405 699 421 Q 683 431 666 421 Q 635 403 547 383 C 518 376 531 353 560 359 L 642 377 Q 666 381 671 373 Q 678 367 671 337 Q 664 309 657 274 C 651 245 696 240 703 269 Z" class="stroke8"/>
    <path d="M 571 221 Q 578 220 588 222 Q 628 231 714 239 Q 724 240 724 249 Q 724 256 703 269 L 657 274 Q 653 274 652 273 Q 606 260 570 251 C 541 244 541 223 571 221 Z" class="stroke9"/>
    
    
    
    
    
    
    
    
    </g>
</svg>