<svg version="1.1" viewBox="0 0 1024 1024" xmlns="http://www.w3.org/2000/svg">
  
  <g transform="scale(1, -1) translate(0, -900)">
    <style type="text/css">
        .stroke1 {fill: #808080;}
        .stroke2 {fill: #808079;}
        .stroke3 {fill: #808078;}
        .stroke4 {fill: #808077;}
        .stroke5 {fill: #808076;}
        .stroke6 {fill: #808075;}
        .stroke7 {fill: #808074;}
        .stroke8 {fill: #808073;}
        .stroke9 {fill: #808072;}
        .stroke10 {fill: #808071;}
        .stroke11 {fill: #808070;}
        .stroke12 {fill: #808069;}
        .stroke13 {fill: #808068;}
        .stroke14 {fill: #808067;}
        .stroke15 {fill: #808066;}
        .stroke16 {fill: #808065;}
        .stroke17 {fill: #808064;}
        .stroke18 {fill: #808063;}
        .stroke19 {fill: #808062;}
        .stroke20 {fill: #808061;}
        text {
            font-family: Helvetica;
            font-size: 50px;
            fill: #808060;
            paint-order: stroke;
            stroke: #000000;
            stroke-width: 4px;
            stroke-linecap: butt;
            stroke-linejoin: miter;
            font-weight: 800;
        }
    </style>

    <path d="M 159 609 Q 147 615 116 621 Q 104 624 101 619 Q 94 613 103 597 Q 134 527 150 413 Q 153 379 172 356 Q 190 334 195 349 Q 202 368 199 399 L 193 436 Q 174 542 171 578 C 168 605 168 605 159 609 Z" class="stroke1"/>
    <path d="M 333 454 Q 355 560 385 593 Q 409 621 384 635 Q 362 647 333 665 Q 309 677 271 649 Q 223 625 159 609 C 130 601 142 572 171 578 Q 181 579 195 584 Q 237 596 273 605 Q 298 612 304 602 Q 313 593 280 460 C 273 431 327 425 333 454 Z" class="stroke2"/>
    <path d="M 199 399 Q 209 398 222 401 Q 262 410 348 417 Q 360 418 361 429 Q 361 436 333 454 L 280 460 Q 276 460 272 458 Q 229 445 193 436 C 164 429 169 400 199 399 Z" class="stroke3"/>
    <path d="M 513 723 Q 501 741 469 752 Q 459 756 447 752 Q 440 746 445 734 Q 464 664 466 656 Q 465 653 466 650 Q 478 463 454 355 Q 439 301 477 253 Q 487 240 499 253 Q 508 266 510 282 L 513 317 Q 513 330 514 433 L 514 461 Q 514 516 514 555 L 514 582 Q 515 675 516 687 C 517 717 517 718 513 723 Z" class="stroke4"/>
    <path d="M 746 292 Q 747 282 755 271 Q 771 237 782 238 Q 798 239 817 277 Q 835 307 833 331 Q 818 445 821 619 Q 821 670 849 713 Q 861 732 851 744 Q 817 772 760 794 Q 741 800 714 789 Q 654 756 513 723 C 484 716 486 686 516 687 Q 532 686 547 689 Q 727 752 742 735 Q 761 708 761 621 Q 761 381 748 327 L 746 292 Z" class="stroke5"/>
    <path d="M 514 555 L 670 574 Q 695 578 685 592 Q 675 607 647 612 Q 608 616 514 582 C 486 572 484 551 514 555 Z" class="stroke6"/>
    <path d="M 514 433 Q 521 433 529 433 Q 611 442 672 447 Q 697 450 689 464 Q 679 480 652 486 Q 621 492 514 461 C 485 453 484 433 514 433 Z" class="stroke7"/>
    <path d="M 510 282 Q 511 282 514 281 Q 526 277 541 280 Q 605 290 746 292 C 776 292 770 307 748 327 Q 742 333 734 338 Q 716 350 681 342 Q 587 324 513 317 C 483 314 481 290 510 282 Z" class="stroke8"/>
    <path d="M 498 199 Q 480 130 330 5 Q 306 -11 336 -7 Q 400 -7 525 111 Q 528 120 574 160 Q 586 173 584 183 Q 580 198 553 206 Q 522 218 509 215 Q 502 214 498 199 Z" class="stroke9"/>
    <path d="M 699 184 Q 762 114 834 14 Q 850 -11 866 -17 Q 876 -20 885 -9 Q 901 4 892 55 Q 883 121 705 219 Q 695 226 691 212 Q 690 197 699 184 Z" class="stroke10"/>
    
    
    
    
    
    
    
    
    
    </g>
</svg>