<svg version="1.1" viewBox="0 0 1024 1024" xmlns="http://www.w3.org/2000/svg">
  
  <g transform="scale(1, -1) translate(0, -900)">
    <style type="text/css">
        .stroke1 {fill: #808080;}
        .stroke2 {fill: #808079;}
        .stroke3 {fill: #808078;}
        .stroke4 {fill: #808077;}
        .stroke5 {fill: #808076;}
        .stroke6 {fill: #808075;}
        .stroke7 {fill: #808074;}
        .stroke8 {fill: #808073;}
        .stroke9 {fill: #808072;}
        .stroke10 {fill: #808071;}
        .stroke11 {fill: #808070;}
        .stroke12 {fill: #808069;}
        .stroke13 {fill: #808068;}
        .stroke14 {fill: #808067;}
        .stroke15 {fill: #808066;}
        .stroke16 {fill: #808065;}
        .stroke17 {fill: #808064;}
        .stroke18 {fill: #808063;}
        .stroke19 {fill: #808062;}
        .stroke20 {fill: #808061;}
        text {
            font-family: Helvetica;
            font-size: 50px;
            fill: #808060;
            paint-order: stroke;
            stroke: #000000;
            stroke-width: 4px;
            stroke-linecap: butt;
            stroke-linejoin: miter;
            font-weight: 800;
        }
    </style>

    <path d="M 159 580 Q 146 587 116 594 Q 103 598 99 593 Q 92 586 100 569 Q 128 502 141 392 Q 142 359 160 337 Q 176 313 183 329 Q 192 348 188 384 L 184 420 Q 172 522 171 551 C 170 575 170 575 159 580 Z" class="stroke1"/>
    <path d="M 321 441 Q 339 531 364 558 Q 386 586 362 600 Q 296 633 295 633 Q 285 633 274 626 Q 246 608 159 580 C 130 571 142 542 171 551 Q 189 557 256 573 Q 278 579 283 570 Q 292 563 284 526 Q 277 489 269 445 C 264 415 315 412 321 441 Z" class="stroke2"/>
    <path d="M 188 384 Q 198 383 211 386 Q 251 396 337 407 Q 349 408 349 418 Q 349 427 321 441 L 269 445 Q 266 445 265 444 Q 220 429 184 420 C 155 413 158 385 188 384 Z" class="stroke3"/>
    <path d="M 720 657 Q 765 667 854 664 Q 867 663 872 672 Q 876 682 864 695 Q 822 731 737 705 L 686 695 Q 625 683 555 670 L 510 662 Q 464 656 416 648 Q 391 644 409 631 Q 442 610 510 623 Q 513 624 518 625 L 558 634 Q 586 643 676 653 L 720 657 Z" class="stroke4"/>
    <path d="M 555 670 Q 551 704 550 730 Q 551 749 532 754 Q 492 772 472 765 Q 456 756 470 738 Q 500 704 510 662 L 518 625 Q 531 571 543 559 Q 556 549 560 560 Q 563 572 558 634 L 555 670 Z" class="stroke5"/>
    <path d="M 737 705 Q 743 729 766 773 Q 779 786 769 796 Q 756 812 724 827 Q 708 834 692 826 Q 683 820 691 810 Q 701 788 698 762 Q 694 732 686 695 L 676 653 Q 661 589 662 578 Q 663 565 678 576 Q 693 591 720 657 L 737 705 Z" class="stroke6"/>
    <path d="M 446 490 Q 425 520 414 527 Q 410 531 404 527 Q 400 523 399 512 Q 403 479 375 411 Q 365 395 367 375 Q 371 356 381 342 Q 388 330 394 338 Q 401 339 409 356 Q 413 363 422 391 Q 437 439 446 458 C 455 478 455 478 446 490 Z" class="stroke7"/>
    <path d="M 446 458 Q 467 449 504 457 Q 627 499 778 511 Q 788 512 795 511 Q 813 505 812 497 Q 812 493 806 481 Q 772 418 777 413 Q 784 409 799 419 Q 851 450 895 460 Q 929 470 929 478 Q 928 488 862 540 Q 838 561 766 544 Q 709 538 522 502 Q 485 496 446 490 C 416 485 417 465 446 458 Z" class="stroke8"/>
    <path d="M 599 293 Q 645 305 685 309 Q 704 310 707 305 Q 716 292 711 259 Q 701 165 677 123 Q 658 89 629 95 Q 601 102 575 110 Q 550 117 569 93 Q 615 53 638 20 Q 656 -1 673 15 Q 701 34 723 69 Q 747 109 769 237 Q 776 282 793 304 Q 806 317 800 327 Q 790 339 740 361 Q 719 371 700 357 Q 679 347 610 329 L 546 314 Q 488 304 438 300 Q 422 299 418 291 Q 417 284 440 272 Q 464 257 483 264 Q 508 271 538 278 L 599 293 Z" class="stroke9"/>
    <path d="M 538 278 Q 487 128 354 47 Q 345 43 337 36 Q 324 27 335 24 Q 389 20 470 79 Q 560 146 594 275 Q 595 285 599 293 L 610 329 Q 617 357 631 382 Q 641 398 626 409 Q 584 448 555 441 Q 542 438 546 422 Q 555 404 546 314 L 538 278 Z" class="stroke10"/>
    
    
    
    
    
    
    
    
    
    </g>
</svg>