<svg version="1.1" viewBox="0 0 1024 1024" xmlns="http://www.w3.org/2000/svg">
  
  <g transform="scale(1, -1) translate(0, -900)">
    <style type="text/css">
        .stroke1 {fill: #808080;}
        .stroke2 {fill: #808079;}
        .stroke3 {fill: #808078;}
        .stroke4 {fill: #808077;}
        .stroke5 {fill: #808076;}
        .stroke6 {fill: #808075;}
        .stroke7 {fill: #808074;}
        .stroke8 {fill: #808073;}
        .stroke9 {fill: #808072;}
        .stroke10 {fill: #808071;}
        .stroke11 {fill: #808070;}
        .stroke12 {fill: #808069;}
        .stroke13 {fill: #808068;}
        .stroke14 {fill: #808067;}
        .stroke15 {fill: #808066;}
        .stroke16 {fill: #808065;}
        .stroke17 {fill: #808064;}
        .stroke18 {fill: #808063;}
        .stroke19 {fill: #808062;}
        .stroke20 {fill: #808061;}
        text {
            font-family: Helvetica;
            font-size: 50px;
            fill: #808060;
            paint-order: stroke;
            stroke: #000000;
            stroke-width: 4px;
            stroke-linecap: butt;
            stroke-linejoin: miter;
            font-weight: 800;
        }
    </style>

    <path d="M 163 566 Q 145 574 122 578 Q 109 580 106 575 Q 102 571 106 559 Q 123 512 129 491 Q 143 443 153 378 Q 154 347 173 323 Q 192 302 196 317 Q 202 333 200 359 L 196 392 Q 178 506 176 540 C 174 561 174 561 163 566 Z" class="stroke1"/>
    <path d="M 329 425 Q 344 521 370 551 Q 392 578 368 592 L 318 617 Q 298 627 272 612 Q 267 607 259 600 Q 194 576 163 566 C 135 557 147 534 176 540 Q 193 543 247 559 Q 285 572 292 563 Q 304 555 284 458 Q 280 443 276 419 C 271 389 324 395 329 425 Z" class="stroke2"/>
    <path d="M 200 359 Q 260 378 333 391 Q 353 395 356 401 Q 357 402 357 405 Q 357 412 329 425 C 314 432 304 429 276 419 L 196 392 C 168 382 171 350 200 359 Z" class="stroke3"/>
    <path d="M 495 701 Q 461 710 454 704 Q 450 700 457 685 Q 480 631 494 577 Q 498 564 501 552 Q 504 527 519 512 Q 535 494 540 507 L 542 521 L 541 545 Q 529 606 519 667 C 514 696 514 696 495 701 Z" class="stroke4"/>
    <path d="M 809 555 Q 809 547 815 539 Q 820 535 826 535 Q 841 536 857 565 Q 865 581 875 608 Q 891 655 926 682 Q 945 696 929 710 Q 913 727 866 753 Q 855 761 793 748 Q 707 740 604 717 L 495 701 C 465 697 490 660 519 667 Q 522 667 541 673 Q 560 678 591 684 L 615 688 Q 653 697 708 704 L 744 709 Q 813 723 839 710 Q 851 706 827 625 Q 817 590 813 580 L 809 555 Z" class="stroke5"/>
    <path d="M 639 561 L 639 563 Q 643 583 622 668 Q 621 670 621 672 Q 619 682 615 688 C 600 714 591 714 591 684 Q 591 593 617 557 C 634 532 636 531 639 561 Z" class="stroke6"/>
    <path d="M 725 576 Q 764 666 768 670 Q 784 688 747 708 Q 745 708 744 709 C 716 721 698 728 708 704 Q 722 676 698 572 C 691 543 713 548 725 576 Z" class="stroke7"/>
    <path d="M 542 521 Q 547 521 592 525 L 625 529 Q 720 545 809 555 C 839 558 840 568 813 580 Q 792 594 725 576 L 698 572 Q 671 568 639 561 L 617 557 Q 574 553 541 545 C 512 538 512 519 542 521 Z" class="stroke8"/>
    <path d="M 592 525 L 593 521 Q 612 472 465 301 Q 455 294 454 289 Q 451 280 462 280 Q 478 284 531 330 L 546 347 L 557 357 Q 576 374 602 406 L 620 431 Q 633 453 653 470 Q 662 480 662 488 L 662 492 Q 659 504 639 521 Q 630 528 625 529 C 598 542 586 548 592 525 Z" class="stroke9"/>
    <path d="M 602 406 Q 641 386 721 413 Q 749 422 760 414 Q 768 408 745 343 Q 682 133 439 -5 Q 418 -9 419 -18 L 419 -20 Q 420 -24 428 -24 Q 547 -18 676 122 L 717 173 Q 763 235 813 344 Q 833 374 860 394 Q 876 400 877 412 Q 876 425 839 449 Q 806 468 792 468 Q 780 468 768 460 Q 684 437 627 431 Q 623 431 620 431 C 590 428 573 415 602 406 Z" class="stroke10"/>
    <path d="M 531 330 Q 533 323 552 306 Q 582 275 613 239 Q 624 227 637 227 Q 650 227 653 243 Q 655 255 651 274 Q 649 296 618 316 Q 561 347 546 347 C 520 350 520 350 531 330 Z" class="stroke11"/>
    
    
    
    
    
    
    
    
    
    
    </g>
</svg>