<svg version="1.1" viewBox="0 0 1024 1024" xmlns="http://www.w3.org/2000/svg">
  
  <g transform="scale(1, -1) translate(0, -900)">
    <style type="text/css">
        .stroke1 {fill: #808080;}
        .stroke2 {fill: #808079;}
        .stroke3 {fill: #808078;}
        .stroke4 {fill: #808077;}
        .stroke5 {fill: #808076;}
        .stroke6 {fill: #808075;}
        .stroke7 {fill: #808074;}
        .stroke8 {fill: #808073;}
        .stroke9 {fill: #808072;}
        .stroke10 {fill: #808071;}
        .stroke11 {fill: #808070;}
        .stroke12 {fill: #808069;}
        .stroke13 {fill: #808068;}
        .stroke14 {fill: #808067;}
        .stroke15 {fill: #808066;}
        .stroke16 {fill: #808065;}
        .stroke17 {fill: #808064;}
        .stroke18 {fill: #808063;}
        .stroke19 {fill: #808062;}
        .stroke20 {fill: #808061;}
        text {
            font-family: Helvetica;
            font-size: 50px;
            fill: #808060;
            paint-order: stroke;
            stroke: #000000;
            stroke-width: 4px;
            stroke-linecap: butt;
            stroke-linejoin: miter;
            font-weight: 800;
        }
    </style>

    <path d="M 152 580 Q 139 584 117 589 Q 104 593 101 588 Q 94 582 102 566 Q 133 493 147 375 Q 148 341 168 316 Q 184 294 191 309 Q 198 331 194 373 L 189 407 Q 173 524 170 552 C 167 576 167 576 152 580 Z" class="stroke1"/>
    <path d="M 331 436 Q 349 535 376 566 Q 398 594 373 607 Q 352 617 324 635 Q 306 645 260 617 Q 212 596 152 580 C 123 572 141 543 170 552 Q 200 562 264 580 Q 289 587 296 577 Q 305 570 296 528 Q 289 485 277 433 C 270 404 325 407 331 436 Z" class="stroke2"/>
    <path d="M 194 373 Q 200 373 208 375 Q 253 388 350 401 Q 360 402 361 412 Q 361 419 331 436 C 315 445 306 442 277 433 Q 228 417 189 407 C 160 399 164 371 194 373 Z" class="stroke3"/>
    <path d="M 547 654 Q 583 688 605 710 Q 666 777 684 787 Q 703 802 689 817 Q 673 832 644 841 Q 619 851 606 846 Q 593 842 600 829 Q 609 805 545 693 Q 532 674 520 651 Q 519 650 519 649 C 505 622 525 633 547 654 Z" class="stroke4"/>
    <path d="M 510 404 Q 510 446 510 486 L 511 515 Q 512 573 525 610 Q 525 613 526 615 C 531 634 531 634 513 647 Q 497 660 477 668 Q 458 674 449 665 Q 442 659 451 647 Q 475 602 462 374 Q 458 338 451 305 Q 445 283 461 267 Q 483 249 503 263 C 510 266 510 308 510 338 Q 510 359 510 379 L 510 404 Z" class="stroke5"/>
    <path d="M 736 547 Q 766 607 795 621 Q 813 640 799 658 Q 721 721 672 692 Q 648 683 547 654 L 519 649 Q 515 649 513 647 C 484 639 497 607 526 615 Q 577 630 679 651 Q 695 655 703 649 Q 710 640 706 625 Q 694 588 681 555 C 670 527 722 520 736 547 Z" class="stroke6"/>
    <path d="M 510 486 Q 520 482 539 485 Q 603 501 745 517 Q 755 518 756 527 Q 756 534 736 547 C 712 564 710 563 681 555 Q 587 528 511 515 C 481 510 481 493 510 486 Z" class="stroke7"/>
    <path d="M 510 379 Q 513 379 722 410 Q 747 414 737 428 Q 727 443 699 448 Q 666 451 510 404 C 481 395 480 375 510 379 Z" class="stroke8"/>
    <path d="M 503 263 Q 546 291 691 315 Q 826 337 849 316 Q 861 306 848 262 Q 812 82 777 37 Q 767 24 741 28 Q 710 37 682 45 Q 666 51 666 43 Q 666 37 675 29 Q 724 -26 741 -63 Q 748 -85 768 -75 Q 835 -48 856 26 Q 884 122 906 228 Q 916 268 936 301 Q 951 317 938 331 Q 920 353 881 377 Q 859 390 829 379 Q 780 358 735 354 Q 671 347 541 323 Q 514 313 510 338 C 488 359 476 250 503 263 Z" class="stroke9"/>
    <path d="M 314 226 Q 293 169 263 118 Q 241 84 264 49 Q 273 30 294 45 Q 343 85 344 167 Q 348 201 339 227 Q 333 236 327 236 Q 318 235 314 226 Z" class="stroke10"/>
    <path d="M 414 191 Q 429 125 447 108 Q 457 101 468 106 Q 478 113 482 127 Q 488 163 438 214 Q 428 224 420 225 Q 414 226 412 217 Q 408 208 414 191 Z" class="stroke11"/>
    <path d="M 533 205 Q 551 154 572 133 Q 582 127 592 134 Q 601 141 603 154 Q 604 187 568 218 Q 543 239 535 237 Q 531 238 528 229 Q 527 220 533 205 Z" class="stroke12"/>
    <path d="M 670 209 Q 686 184 701 153 Q 710 137 724 134 Q 733 131 741 141 Q 750 153 750 181 Q 750 208 679 252 Q 667 259 661 259 Q 655 256 653 245 Q 653 235 670 209 Z" class="stroke13"/>
    
    
    
    
    
    
    
    
    
    
    
    
    </g>
</svg>