<svg version="1.1" viewBox="0 0 1024 1024" xmlns="http://www.w3.org/2000/svg">
  
  <g transform="scale(1, -1) translate(0, -900)">
    <style type="text/css">
        .stroke1 {fill: #808080;}
        .stroke2 {fill: #808079;}
        .stroke3 {fill: #808078;}
        .stroke4 {fill: #808077;}
        .stroke5 {fill: #808076;}
        .stroke6 {fill: #808075;}
        .stroke7 {fill: #808074;}
        .stroke8 {fill: #808073;}
        .stroke9 {fill: #808072;}
        .stroke10 {fill: #808071;}
        .stroke11 {fill: #808070;}
        .stroke12 {fill: #808069;}
        .stroke13 {fill: #808068;}
        .stroke14 {fill: #808067;}
        .stroke15 {fill: #808066;}
        .stroke16 {fill: #808065;}
        .stroke17 {fill: #808064;}
        .stroke18 {fill: #808063;}
        .stroke19 {fill: #808062;}
        .stroke20 {fill: #808061;}
        text {
            font-family: Helvetica;
            font-size: 50px;
            fill: #808060;
            paint-order: stroke;
            stroke: #000000;
            stroke-width: 4px;
            stroke-linecap: butt;
            stroke-linejoin: miter;
            font-weight: 800;
        }
    </style>

    <path d="M 133 528 Q 120 535 89 541 Q 76 545 73 540 Q 66 534 74 518 Q 101 457 114 358 Q 115 328 132 308 Q 148 286 155 301 Q 159 314 160 334 L 157 368 Q 144 468 142 499 C 140 525 140 525 133 528 Z" class="stroke1"/>
    <path d="M 291 393 Q 304 483 328 510 Q 347 537 324 550 Q 305 560 277 575 Q 259 584 211 554 Q 184 544 133 528 C 104 519 113 491 142 499 Q 145 500 224 521 Q 245 527 250 519 Q 257 513 242 395 C 238 365 287 363 291 393 Z" class="stroke2"/>
    <path d="M 160 334 Q 188 343 306 361 Q 316 362 317 372 Q 317 379 291 393 L 242 395 Q 239 395 238 394 Q 195 379 157 368 C 128 360 131 326 160 334 Z" class="stroke3"/>
    <path d="M 634 689 Q 772 716 774 718 Q 781 725 778 733 Q 772 743 746 752 Q 719 758 640 734 L 583 722 Q 528 713 470 709 Q 436 705 459 689 Q 498 665 550 676 Q 565 680 584 681 L 634 689 Z" class="stroke4"/>
    <path d="M 621 599 Q 627 645 634 689 L 640 734 Q 646 773 657 797 Q 661 807 643 821 Q 612 840 590 845 Q 575 849 568 841 Q 561 834 567 821 Q 580 802 581 787 Q 582 756 583 722 L 584 681 Q 584 641 582 594 C 581 564 617 569 621 599 Z" class="stroke5"/>
    <path d="M 421 572 Q 408 594 394 604 Q 391 608 385 604 Q 379 601 379 589 Q 382 556 354 500 Q 344 484 345 464 Q 348 445 357 430 Q 364 418 370 426 Q 382 429 399 474 Q 415 517 422 531 Q 425 535 427 541 C 432 554 432 554 421 572 Z" class="stroke6"/>
    <path d="M 572 561 Q 746 595 780 588 Q 795 578 792 570 Q 792 566 769 505 Q 763 492 769 489 Q 776 485 791 496 Q 839 530 879 541 Q 912 551 911 559 Q 910 569 844 616 Q 820 634 716 613 Q 683 612 621 599 L 582 594 Q 545 590 503 582 Q 461 575 421 572 C 391 569 398 550 427 541 Q 446 532 468 537 Q 502 549 542 556 L 572 561 Z" class="stroke7"/>
    <path d="M 601 392 Q 549 392 507 392 Q 488 392 498 403 Q 549 454 594 490 Q 609 503 608 510 Q 608 523 579 556 Q 576 560 572 561 C 549 580 537 586 542 556 L 543 555 Q 552 521 480 437 Q 467 418 440 403 Q 422 393 422 381 Q 425 365 435 346 Q 444 336 456 341 Q 483 354 574 368 Q 575 369 577 368 C 607 371 631 392 601 392 Z" class="stroke8"/>
    <path d="M 617 250 Q 680 266 743 274 C 773 278 762 293 732 291 Q 644 285 539 266 Q 515 262 532 278 Q 571 315 659 390 Q 692 421 718 437 Q 731 444 727 455 Q 720 474 692 497 Q 679 507 669 506 Q 659 505 659 490 Q 656 457 601 392 L 577 368 Q 478 271 457 264 Q 442 257 444 244 Q 443 231 464 210 Q 473 197 488 206 Q 534 227 578 240 L 617 250 Z" class="stroke9"/>
    <path d="M 743 274 Q 761 241 778 238 Q 787 237 793 245 Q 800 255 799 281 Q 799 302 774 324 Q 714 369 700 366 Q 696 365 694 354 Q 694 351 732 291 L 743 274 Z" class="stroke10"/>
    <path d="M 578 240 Q 591 203 591 93 Q 590 59 586 50 Q 582 37 557 40 Q 529 46 500 51 Q 488 51 487 44 Q 486 38 496 29 Q 563 -23 585 -54 Q 601 -69 612 -65 Q 624 -61 635 -27 Q 651 7 649 71 Q 645 146 646 172 Q 653 214 635 235 Q 625 244 617 250 C 594 269 570 269 578 240 Z" class="stroke11"/>
    <path d="M 430 165 Q 397 122 358 87 Q 331 60 340 23 Q 343 4 367 11 Q 421 33 441 103 Q 454 134 453 159 Q 450 169 445 171 Q 436 172 430 165 Z" class="stroke12"/>
    <path d="M 732 145 Q 775 100 827 36 Q 842 15 857 11 Q 864 10 873 18 Q 886 31 876 75 Q 872 97 856 115 Q 840 128 801 146 Q 758 167 734 175 Q 725 181 723 169 Q 722 156 732 145 Z" class="stroke13"/>
    
    
    
    
    
    
    
    
    
    
    
    
    </g>
</svg>