<svg version="1.1" viewBox="0 0 1024 1024" xmlns="http://www.w3.org/2000/svg">
  
  <g transform="scale(1, -1) translate(0, -900)">
    <style type="text/css">
        .stroke1 {fill: #808080;}
        .stroke2 {fill: #808079;}
        .stroke3 {fill: #808078;}
        .stroke4 {fill: #808077;}
        .stroke5 {fill: #808076;}
        .stroke6 {fill: #808075;}
        .stroke7 {fill: #808074;}
        .stroke8 {fill: #808073;}
        .stroke9 {fill: #808072;}
        .stroke10 {fill: #808071;}
        .stroke11 {fill: #808070;}
        .stroke12 {fill: #808069;}
        .stroke13 {fill: #808068;}
        .stroke14 {fill: #808067;}
        .stroke15 {fill: #808066;}
        .stroke16 {fill: #808065;}
        .stroke17 {fill: #808064;}
        .stroke18 {fill: #808063;}
        .stroke19 {fill: #808062;}
        .stroke20 {fill: #808061;}
        text {
            font-family: Helvetica;
            font-size: 50px;
            fill: #808060;
            paint-order: stroke;
            stroke: #000000;
            stroke-width: 4px;
            stroke-linecap: butt;
            stroke-linejoin: miter;
            font-weight: 800;
        }
    </style>

    <path d="M 362 637 Q 392 665 483 756 Q 501 778 526 794 Q 548 809 532 827 Q 514 843 482 854 Q 454 864 440 859 Q 425 855 433 841 Q 445 808 340 640 Q 339 637 338 634 C 326 606 340 616 362 637 Z" class="stroke1"/>
    <path d="M 305 632 Q 296 642 262 660 Q 250 666 237 661 Q 230 655 235 641 Q 235 635 240 623 L 241 621 Q 241 620 242 618 Q 242 617 244 613 Q 278 541 246 206 Q 239 163 226 112 Q 207 48 248 -2 Q 258 -17 272 -3 Q 279 9 284 21 L 290 62 Q 294 95 295 143 Q 310 560 314 587 Q 314 590 314 592 C 316 622 316 623 305 632 Z" class="stroke2"/>
    <path d="M 720 48 Q 754 6 779 -33 Q 791 -55 804 -53 Q 823 -52 841 -11 Q 862 35 856 92 Q 841 258 828 565 Q 825 604 846 631 Q 856 647 845 659 Q 823 683 757 711 Q 735 723 716 711 Q 605 666 362 637 L 338 634 Q 319 634 305 632 C 275 630 284 588 314 592 Q 350 595 660 652 Q 715 661 742 640 Q 787 592 770 104 Q 769 100 769 93 Q 765 72 745 78 C 721 60 715 55 720 48 Z" class="stroke3"/>
    <path d="M 559 354 Q 596 403 645 483 Q 666 516 666 518 Q 665 528 651 541 Q 636 554 617 560 Q 595 567 584 564 Q 575 563 578 549 Q 590 501 530 403 Q 523 393 517 382 L 496 351 Q 448 287 333 180 Q 324 174 336 172 Q 409 185 525 312 Q 528 316 531 319 L 559 354 Z" class="stroke4"/>
    <path d="M 531 319 Q 600 256 655 190 Q 665 174 679 166 Q 689 160 699 175 Q 706 188 702 215 Q 699 254 559 354 L 517 382 Q 391 472 380 469 Q 376 468 375 457 Q 376 450 389 439 Q 446 396 496 351 L 531 319 Z" class="stroke5"/>
    <path d="M 284 21 Q 294 20 308 21 Q 440 43 720 48 C 750 49 767 58 745 78 Q 736 87 724 96 Q 706 109 668 102 Q 458 69 290 62 C 260 61 254 22 284 21 Z" class="stroke6"/>
    
    
    
    
    
    </g>
</svg>