<svg version="1.1" viewBox="0 0 1024 1024" xmlns="http://www.w3.org/2000/svg">
  
  <g transform="scale(1, -1) translate(0, -900)">
    <style type="text/css">
        .stroke1 {fill: #808080;}
        .stroke2 {fill: #808079;}
        .stroke3 {fill: #808078;}
        .stroke4 {fill: #808077;}
        .stroke5 {fill: #808076;}
        .stroke6 {fill: #808075;}
        .stroke7 {fill: #808074;}
        .stroke8 {fill: #808073;}
        .stroke9 {fill: #808072;}
        .stroke10 {fill: #808071;}
        .stroke11 {fill: #808070;}
        .stroke12 {fill: #808069;}
        .stroke13 {fill: #808068;}
        .stroke14 {fill: #808067;}
        .stroke15 {fill: #808066;}
        .stroke16 {fill: #808065;}
        .stroke17 {fill: #808064;}
        .stroke18 {fill: #808063;}
        .stroke19 {fill: #808062;}
        .stroke20 {fill: #808061;}
        text {
            font-family: Helvetica;
            font-size: 50px;
            fill: #808060;
            paint-order: stroke;
            stroke: #000000;
            stroke-width: 4px;
            stroke-linecap: butt;
            stroke-linejoin: miter;
            font-weight: 800;
        }
    </style>

    <path d="M 269 744 Q 257 756 237 763 Q 225 770 212 765 Q 202 759 209 744 Q 231 657 234 646 Q 234 306 200 169 Q 179 87 219 39 Q 231 23 244 37 Q 254 50 258 68 L 264 110 Q 268 144 268 196 Q 286 686 292 701 C 295 726 293 727 269 744 Z" class="stroke1"/>
    <path d="M 707 92 Q 738 52 761 15 Q 771 -6 784 -5 Q 803 -4 820 35 Q 841 80 836 133 Q 823 317 817 657 Q 816 696 836 723 Q 846 739 836 751 Q 812 775 748 804 Q 726 816 707 804 Q 613 771 469 756 Q 333 743 269 744 C 239 744 262 698 292 701 Q 317 702 652 745 Q 707 752 734 729 Q 753 707 762 577 Q 769 450 763 281 Q 757 178 753 135 Q 750 123 743 120 C 734 92 689 116 707 92 Z" class="stroke2"/>
    <path d="M 258 68 Q 265 67 276 68 Q 415 89 707 92 C 737 92 764 99 743 120 Q 736 129 721 140 Q 702 153 665 147 Q 442 116 264 110 C 234 109 228 68 258 68 Z" class="stroke3"/>
    
    
    </g>
</svg>