<svg version="1.1" viewBox="0 0 1024 1024" xmlns="http://www.w3.org/2000/svg">
  
  <g transform="scale(1, -1) translate(0, -900)">
    <style type="text/css">
        .stroke1 {fill: #808080;}
        .stroke2 {fill: #808079;}
        .stroke3 {fill: #808078;}
        .stroke4 {fill: #808077;}
        .stroke5 {fill: #808076;}
        .stroke6 {fill: #808075;}
        .stroke7 {fill: #808074;}
        .stroke8 {fill: #808073;}
        .stroke9 {fill: #808072;}
        .stroke10 {fill: #808071;}
        .stroke11 {fill: #808070;}
        .stroke12 {fill: #808069;}
        .stroke13 {fill: #808068;}
        .stroke14 {fill: #808067;}
        .stroke15 {fill: #808066;}
        .stroke16 {fill: #808065;}
        .stroke17 {fill: #808064;}
        .stroke18 {fill: #808063;}
        .stroke19 {fill: #808062;}
        .stroke20 {fill: #808061;}
        text {
            font-family: Helvetica;
            font-size: 50px;
            fill: #808060;
            paint-order: stroke;
            stroke: #000000;
            stroke-width: 4px;
            stroke-linecap: butt;
            stroke-linejoin: miter;
            font-weight: 800;
        }
    </style>

    <path d="M 371 626 Q 402 656 493 752 Q 509 774 535 790 Q 556 806 540 823 Q 522 839 490 850 Q 462 860 448 854 Q 433 850 441 836 Q 453 803 402 719 Q 347 626 346 624 C 331 598 350 605 371 626 Z" class="stroke1"/>
    <path d="M 306 623 Q 297 632 266 648 Q 254 654 241 649 Q 232 643 239 629 Q 242 616 247 602 Q 274 545 249 219 Q 242 168 226 109 Q 208 43 248 -6 Q 258 -21 272 -7 Q 282 6 286 22 L 291 62 Q 295 93 295 138 Q 313 547 317 575 Q 318 579 318 584 C 321 612 321 612 306 623 Z" class="stroke2"/>
    <path d="M 709 48 Q 743 5 769 -37 Q 779 -58 792 -57 Q 811 -56 828 -17 Q 849 28 844 81 Q 832 249 825 557 Q 824 594 843 620 Q 853 635 843 647 Q 821 669 759 698 Q 737 708 719 697 Q 607 655 371 626 L 346 624 Q 324 624 306 623 C 276 622 288 579 318 584 Q 693 645 707 644 Q 729 641 744 629 Q 760 614 769 490 Q 776 372 770 217 Q 771 114 761 83 Q 757 61 735 71 Q 732 72 729 74 C 699 69 694 68 709 48 Z" class="stroke3"/>
    <path d="M 442 376 Q 369 285 348 262 Q 341 258 351 256 Q 400 271 472 354 L 493 382 Q 520 421 558 490 Q 562 500 568 505 Q 572 509 571 519 Q 570 526 558 536 Q 533 557 502 551 Q 495 548 498 538 Q 507 496 458 403 L 442 376 Z" class="stroke4"/>
    <path d="M 541 297 Q 501 237 393 139 Q 386 135 395 132 Q 437 132 540 229 Q 559 253 574 268 L 605 309 Q 678 423 679 423 Q 678 432 666 442 Q 638 467 607 463 Q 600 462 601 450 Q 610 417 566 336 L 541 297 Z" class="stroke5"/>
    <path d="M 458 403 Q 371 460 360 457 Q 356 456 356 445 Q 356 444 442 376 L 472 354 Q 506 327 541 297 L 574 268 Q 617 228 658 184 Q 670 168 683 161 Q 693 157 703 171 Q 710 186 704 211 Q 703 248 605 309 L 566 336 Q 535 358 493 382 L 458 403 Z" class="stroke6"/>
    <path d="M 286 22 Q 298 21 312 21 Q 439 43 709 48 C 739 49 750 52 729 74 Q 719 86 704 96 Q 685 108 648 102 Q 449 71 291 62 C 261 60 256 24 286 22 Z" class="stroke7"/>
    
    
    
    
    
    
    </g>
</svg>