<svg version="1.1" viewBox="0 0 1024 1024" xmlns="http://www.w3.org/2000/svg">
  
  <g transform="scale(1, -1) translate(0, -900)">
    <style type="text/css">
        .stroke1 {fill: #808080;}
        .stroke2 {fill: #808079;}
        .stroke3 {fill: #808078;}
        .stroke4 {fill: #808077;}
        .stroke5 {fill: #808076;}
        .stroke6 {fill: #808075;}
        .stroke7 {fill: #808074;}
        .stroke8 {fill: #808073;}
        .stroke9 {fill: #808072;}
        .stroke10 {fill: #808071;}
        .stroke11 {fill: #808070;}
        .stroke12 {fill: #808069;}
        .stroke13 {fill: #808068;}
        .stroke14 {fill: #808067;}
        .stroke15 {fill: #808066;}
        .stroke16 {fill: #808065;}
        .stroke17 {fill: #808064;}
        .stroke18 {fill: #808063;}
        .stroke19 {fill: #808062;}
        .stroke20 {fill: #808061;}
        text {
            font-family: Helvetica;
            font-size: 50px;
            fill: #808060;
            paint-order: stroke;
            stroke: #000000;
            stroke-width: 4px;
            stroke-linecap: butt;
            stroke-linejoin: miter;
            font-weight: 800;
        }
    </style>

    <path d="M 532 578 Q 704 609 713 615 Q 723 622 719 632 Q 712 644 682 653 Q 652 660 621 650 Q 578 638 536 627 L 479 616 Q 413 606 340 601 Q 303 597 328 578 Q 368 554 443 565 Q 459 568 479 570 L 532 578 Z" class="stroke1"/>
    <path d="M 522 452 Q 526 518 532 578 L 536 627 Q 537 696 557 779 Q 561 791 540 806 Q 503 827 476 831 Q 458 835 450 826 Q 443 817 451 801 Q 473 770 473 749 Q 477 685 479 616 L 479 570 Q 479 512 478 445 C 478 415 520 422 522 452 Z" class="stroke2"/>
    <path d="M 478 445 Q 342 429 186 409 Q 162 406 180 387 Q 214 356 257 365 Q 464 422 844 422 Q 866 422 872 432 Q 878 445 859 460 Q 802 502 759 494 Q 671 475 522 452 L 478 445 Z" class="stroke3"/>
    <path d="M 540 227 Q 592 237 649 245 Q 704 255 713 263 Q 723 270 719 280 Q 712 292 682 301 Q 652 308 621 298 Q 582 286 543 276 L 480 262 Q 405 250 324 245 Q 287 241 312 222 Q 355 195 411 207 Q 444 213 480 218 L 540 227 Z" class="stroke4"/>
    <path d="M 531 79 Q 535 160 540 227 L 543 276 Q 544 285 545 292 Q 549 343 545 349 Q 520 376 494 388 Q 481 392 470 388 Q 460 384 464 371 Q 479 332 480 262 L 480 218 Q 480 163 480 74 C 480 44 529 49 531 79 Z" class="stroke5"/>
    <path d="M 480 74 Q 332 58 160 42 Q 135 41 153 19 Q 189 -17 236 -8 Q 503 55 861 34 Q 861 35 864 34 Q 889 33 895 43 Q 902 58 882 75 Q 821 123 774 115 Q 681 99 531 79 L 480 74 Z" class="stroke6"/>
    
    
    
    
    
    </g>
</svg>