<svg version="1.1" viewBox="0 0 1024 1024" xmlns="http://www.w3.org/2000/svg">
  
  <g transform="scale(1, -1) translate(0, -900)">
    <style type="text/css">
        .stroke1 {fill: #808080;}
        .stroke2 {fill: #808079;}
        .stroke3 {fill: #808078;}
        .stroke4 {fill: #808077;}
        .stroke5 {fill: #808076;}
        .stroke6 {fill: #808075;}
        .stroke7 {fill: #808074;}
        .stroke8 {fill: #808073;}
        .stroke9 {fill: #808072;}
        .stroke10 {fill: #808071;}
        .stroke11 {fill: #808070;}
        .stroke12 {fill: #808069;}
        .stroke13 {fill: #808068;}
        .stroke14 {fill: #808067;}
        .stroke15 {fill: #808066;}
        .stroke16 {fill: #808065;}
        .stroke17 {fill: #808064;}
        .stroke18 {fill: #808063;}
        .stroke19 {fill: #808062;}
        .stroke20 {fill: #808061;}
        text {
            font-family: Helvetica;
            font-size: 50px;
            fill: #808060;
            paint-order: stroke;
            stroke: #000000;
            stroke-width: 4px;
            stroke-linecap: butt;
            stroke-linejoin: miter;
            font-weight: 800;
        }
    </style>

    <path d="M 292 431 Q 376 461 382 466 Q 389 475 384 482 Q 377 492 349 495 Q 321 496 295 483 Q 294 483 294 482 L 244 459 Q 154 429 124 423 Q 91 413 117 401 Q 151 389 224 409 Q 233 412 245 415 L 292 431 Z" class="stroke1"/>
    <path d="M 286 229 Q 290 334 292 431 L 294 482 Q 294 599 315 684 Q 318 696 296 711 Q 259 730 232 734 Q 214 738 206 728 Q 199 721 207 704 Q 237 662 237 634 Q 241 550 244 459 L 245 415 Q 245 318 242 211 C 241 181 285 199 286 229 Z" class="stroke2"/>
    <path d="M 242 211 Q 190 190 134 167 Q 118 160 88 157 Q 75 154 74 143 Q 73 130 84 122 Q 109 109 146 93 Q 156 92 168 102 Q 195 129 346 223 Q 367 236 382 250 Q 394 260 393 269 Q 387 273 375 270 Q 332 251 286 229 L 242 211 Z" class="stroke3"/>
    <path d="M 473 369 Q 513 393 580 428 L 627 454 Q 675 482 738 514 Q 757 521 762 510 Q 772 494 735 332 Q 731 289 700 300 Q 681 306 661 310 Q 648 311 651 304 Q 657 294 719 240 Q 741 216 757 237 Q 791 280 798 343 Q 808 406 818 470 Q 825 504 853 535 Q 863 551 848 562 Q 829 572 780 579 Q 761 582 749 569 Q 724 545 630 489 L 583 463 Q 541 444 497 421 Q 485 417 475 411 L 432 391 Q 377 369 341 355 Q 328 352 328 343 Q 328 336 369 326 Q 394 319 415 334 Q 419 338 432 345 L 473 369 Z" class="stroke4"/>
    <path d="M 580 428 Q 565 263 574 233 Q 580 220 590 226 Q 612 250 617 331 Q 621 395 627 454 L 630 489 Q 643 699 658 753 Q 668 774 655 787 Q 639 803 609 819 Q 585 829 560 820 Q 547 811 562 794 Q 586 742 589 696 Q 593 597 583 463 L 580 428 Z" class="stroke5"/>
    <path d="M 973 161 Q 958 201 944 318 Q 944 334 937 338 Q 931 341 927 324 Q 905 201 885 162 Q 869 135 811 120 Q 682 86 560 140 Q 512 165 497 197 Q 476 234 473 300 Q 472 333 473 369 L 475 411 Q 478 472 487 539 Q 491 557 479 566 Q 466 579 442 586 Q 429 590 421 585 Q 414 581 420 563 Q 435 526 433 488 Q 432 436 432 391 L 432 345 Q 433 221 451 176 Q 460 139 493 108 Q 604 20 811 49 Q 836 55 862 62 Q 916 80 966 121 Q 985 136 973 161 Z" class="stroke6"/>
    
    
    
    
    
    </g>
</svg>