<svg version="1.1" viewBox="0 0 1024 1024" xmlns="http://www.w3.org/2000/svg">
  
  <g transform="scale(1, -1) translate(0, -900)">
    <style type="text/css">
        .stroke1 {fill: #808080;}
        .stroke2 {fill: #808079;}
        .stroke3 {fill: #808078;}
        .stroke4 {fill: #808077;}
        .stroke5 {fill: #808076;}
        .stroke6 {fill: #808075;}
        .stroke7 {fill: #808074;}
        .stroke8 {fill: #808073;}
        .stroke9 {fill: #808072;}
        .stroke10 {fill: #808071;}
        .stroke11 {fill: #808070;}
        .stroke12 {fill: #808069;}
        .stroke13 {fill: #808068;}
        .stroke14 {fill: #808067;}
        .stroke15 {fill: #808066;}
        .stroke16 {fill: #808065;}
        .stroke17 {fill: #808064;}
        .stroke18 {fill: #808063;}
        .stroke19 {fill: #808062;}
        .stroke20 {fill: #808061;}
        text {
            font-family: Helvetica;
            font-size: 50px;
            fill: #808060;
            paint-order: stroke;
            stroke: #000000;
            stroke-width: 4px;
            stroke-linecap: butt;
            stroke-linejoin: miter;
            font-weight: 800;
        }
    </style>

    <path d="M 307 438 Q 334 447 364 454 Q 397 464 401 469 Q 408 476 404 485 Q 397 495 367 501 Q 339 504 310 490 Q 309 490 309 489 L 261 471 Q 182 449 138 441 Q 104 432 130 418 Q 170 400 242 420 Q 249 423 262 425 L 307 438 Z" class="stroke1"/>
    <path d="M 301 241 Q 305 343 307 438 L 309 489 Q 309 576 329 685 Q 333 697 311 712 Q 274 731 249 734 Q 233 738 224 728 Q 217 721 225 705 Q 255 663 255 635 Q 259 556 261 471 L 262 425 Q 262 328 258 223 C 257 193 300 211 301 241 Z" class="stroke2"/>
    <path d="M 258 223 Q 198 199 135 172 Q 116 165 84 161 Q 71 158 70 147 Q 70 134 80 126 Q 105 113 142 97 Q 152 96 164 105 Q 206 147 357 231 Q 381 249 406 266 Q 418 276 417 285 Q 411 289 399 286 Q 351 264 301 241 L 258 223 Z" class="stroke3"/>
    <path d="M 667 147 Q 671 295 673 433 L 674 462 Q 677 625 697 716 Q 701 729 678 745 Q 638 766 610 770 Q 591 774 582 764 Q 573 754 584 738 Q 618 686 619 651 Q 632 416 620 140 C 619 110 666 117 667 147 Z" class="stroke4"/>
    <path d="M 673 433 Q 713 418 800 439 Q 830 446 863 455 Q 882 461 885 464 Q 895 474 889 483 Q 879 496 846 501 Q 824 504 742 477 Q 718 470 676 463 Q 675 463 674 462 C 645 454 644 442 673 433 Z" class="stroke5"/>
    <path d="M 537 130 Q 522 344 529 390 Q 532 414 516 426 Q 492 445 464 453 Q 449 459 440 452 Q 433 445 439 430 Q 461 388 472 344 Q 479 301 495 125 C 498 95 539 100 537 130 Z" class="stroke6"/>
    <path d="M 495 125 Q 431 119 365 111 Q 343 110 359 91 Q 374 76 392 71 Q 414 64 431 69 Q 608 114 869 107 Q 888 107 909 106 Q 930 106 935 115 Q 941 127 924 141 Q 866 186 822 172 Q 759 162 667 147 L 620 140 Q 578 136 537 130 L 495 125 Z" class="stroke7"/>
    
    
    
    
    
    
    </g>
</svg>