<svg version="1.1" viewBox="0 0 1024 1024" xmlns="http://www.w3.org/2000/svg">
  
  <g transform="scale(1, -1) translate(0, -900)">
    <style type="text/css">
        .stroke1 {fill: #808080;}
        .stroke2 {fill: #808079;}
        .stroke3 {fill: #808078;}
        .stroke4 {fill: #808077;}
        .stroke5 {fill: #808076;}
        .stroke6 {fill: #808075;}
        .stroke7 {fill: #808074;}
        .stroke8 {fill: #808073;}
        .stroke9 {fill: #808072;}
        .stroke10 {fill: #808071;}
        .stroke11 {fill: #808070;}
        .stroke12 {fill: #808069;}
        .stroke13 {fill: #808068;}
        .stroke14 {fill: #808067;}
        .stroke15 {fill: #808066;}
        .stroke16 {fill: #808065;}
        .stroke17 {fill: #808064;}
        .stroke18 {fill: #808063;}
        .stroke19 {fill: #808062;}
        .stroke20 {fill: #808061;}
        text {
            font-family: Helvetica;
            font-size: 50px;
            fill: #808060;
            paint-order: stroke;
            stroke: #000000;
            stroke-width: 4px;
            stroke-linecap: butt;
            stroke-linejoin: miter;
            font-weight: 800;
        }
    </style>

    <path d="M 289 481 Q 311 490 340 497 Q 370 507 374 511 Q 381 520 376 528 Q 369 540 338 544 Q 313 547 291 538 L 242 517 Q 152 490 118 483 Q 81 473 110 459 Q 149 441 238 466 Q 239 467 242 467 L 289 481 Z" class="stroke1"/>
    <path d="M 282 319 Q 286 403 289 481 L 291 538 Q 294 665 313 733 Q 316 745 295 760 Q 258 779 233 783 Q 217 786 208 777 Q 201 770 209 754 Q 236 714 237 688 Q 241 606 242 517 L 242 467 Q 241 388 238 300 C 237 270 281 289 282 319 Z" class="stroke2"/>
    <path d="M 238 300 Q 180 278 117 252 Q 101 245 72 243 Q 59 240 58 229 Q 57 214 68 207 Q 95 192 132 176 Q 144 175 155 185 Q 257 257 361 330 Q 374 340 374 349 Q 367 355 354 350 Q 320 335 282 319 L 238 300 Z" class="stroke3"/>
    <path d="M 522 715 Q 488 731 476 727 Q 457 723 473 702 Q 509 647 497 421 Q 496 412 495 401 L 490 360 Q 457 185 354 76 Q 333 54 314 35 Q 301 22 298 16 Q 297 9 308 9 Q 353 13 431 105 Q 516 207 538 370 L 542 408 Q 552 508 550 648 Q 554 669 555 686 C 557 701 550 704 522 715 Z" class="stroke4"/>
    <path d="M 717 393 Q 718 99 702 66 Q 699 63 616 75 Q 594 81 597 71 Q 658 22 695 -14 Q 710 -33 726 -39 Q 736 -42 744 -32 Q 787 22 783 78 Q 774 211 770 397 L 769 445 Q 765 667 780 695 Q 793 716 780 727 Q 758 746 719 762 Q 700 769 683 761 Q 617 725 522 715 C 492 711 526 679 555 686 Q 556 687 561 688 Q 618 700 673 713 Q 694 717 699 707 Q 712 671 717 435 L 717 393 Z" class="stroke5"/>
    <path d="M 586 553 Q 619 507 643 494 Q 655 491 664 501 Q 670 511 669 525 Q 660 559 599 584 Q 586 588 577 587 Q 573 586 573 576 Q 574 566 586 553 Z" class="stroke6"/>
    <path d="M 538 370 Q 628 388 717 393 L 770 397 Q 812 400 924 401 Q 943 401 948 410 Q 952 420 936 434 Q 878 476 814 454 Q 793 451 769 445 L 717 435 Q 680 431 640 423 Q 591 416 542 408 L 495 401 Q 440 395 384 386 Q 363 383 379 367 Q 392 354 410 349 Q 431 345 446 349 Q 465 355 490 360 L 538 370 Z" class="stroke7"/>
    
    
    
    
    
    
    </g>
</svg>