<svg version="1.1" viewBox="0 0 1024 1024" xmlns="http://www.w3.org/2000/svg">
  
  <g transform="scale(1, -1) translate(0, -900)">
    <style type="text/css">
        .stroke1 {fill: #808080;}
        .stroke2 {fill: #808079;}
        .stroke3 {fill: #808078;}
        .stroke4 {fill: #808077;}
        .stroke5 {fill: #808076;}
        .stroke6 {fill: #808075;}
        .stroke7 {fill: #808074;}
        .stroke8 {fill: #808073;}
        .stroke9 {fill: #808072;}
        .stroke10 {fill: #808071;}
        .stroke11 {fill: #808070;}
        .stroke12 {fill: #808069;}
        .stroke13 {fill: #808068;}
        .stroke14 {fill: #808067;}
        .stroke15 {fill: #808066;}
        .stroke16 {fill: #808065;}
        .stroke17 {fill: #808064;}
        .stroke18 {fill: #808063;}
        .stroke19 {fill: #808062;}
        .stroke20 {fill: #808061;}
        text {
            font-family: Helvetica;
            font-size: 50px;
            fill: #808060;
            paint-order: stroke;
            stroke: #000000;
            stroke-width: 4px;
            stroke-linecap: butt;
            stroke-linejoin: miter;
            font-weight: 800;
        }
    </style>

    <path d="M 304 468 Q 314 487 325 506 Q 350 558 376 602 Q 386 615 371 628 Q 328 658 304 652 Q 294 649 297 636 Q 313 525 198 385 Q 189 381 148 328 Q 141 312 156 318 Q 175 322 202 346 Q 254 394 291 448 L 304 468 Z" class="stroke1"/>
    <path d="M 291 448 Q 292 447 295 445 Q 338 420 392 379 Q 408 366 421 365 Q 428 365 432 374 Q 439 387 423 419 Q 410 447 349 461 Q 324 465 304 468 C 274 472 267 466 291 448 Z" class="stroke2"/>
    <path d="M 690 483 Q 709 514 725 547 Q 749 596 771 637 Q 780 650 764 664 Q 718 692 694 687 Q 684 683 687 669 Q 708 573 607 431 Q 594 425 564 376 Q 557 360 572 366 Q 608 378 675 462 L 690 483 Z" class="stroke3"/>
    <path d="M 675 462 Q 676 461 680 459 Q 732 428 797 380 Q 813 365 828 364 Q 835 365 840 375 Q 849 388 830 423 Q 817 457 746 473 Q 712 480 690 483 C 660 487 649 477 675 462 Z" class="stroke4"/>
    <path d="M 540 234 Q 598 244 660 253 Q 717 263 725 271 Q 735 278 731 288 Q 724 300 694 309 Q 664 316 633 306 Q 587 293 542 281 L 497 271 Q 419 258 332 253 Q 295 249 320 230 Q 360 206 434 217 Q 464 223 496 226 L 540 234 Z" class="stroke5"/>
    <path d="M 536 82 Q 537 160 540 234 L 542 281 Q 545 441 548 592 Q 554 653 560 693 Q 569 729 574 754 Q 578 767 554 784 Q 512 806 484 810 Q 465 814 456 804 Q 447 795 457 778 Q 497 717 497 676 Q 504 484 497 271 L 496 226 Q 492 154 488 77 C 486 47 536 52 536 82 Z" class="stroke6"/>
    <path d="M 488 77 Q 349 67 187 53 Q 163 52 180 31 Q 216 -5 258 4 Q 493 61 882 38 Q 882 39 885 38 Q 907 37 914 46 Q 921 59 902 76 Q 841 127 773 111 Q 679 98 536 82 L 488 77 Z" class="stroke7"/>
    
    
    
    
    
    
    </g>
</svg>