<svg version="1.1" viewBox="0 0 1024 1024" xmlns="http://www.w3.org/2000/svg">
  
  <g transform="scale(1, -1) translate(0, -900)">
    <style type="text/css">
        .stroke1 {fill: #808080;}
        .stroke2 {fill: #808079;}
        .stroke3 {fill: #808078;}
        .stroke4 {fill: #808077;}
        .stroke5 {fill: #808076;}
        .stroke6 {fill: #808075;}
        .stroke7 {fill: #808074;}
        .stroke8 {fill: #808073;}
        .stroke9 {fill: #808072;}
        .stroke10 {fill: #808071;}
        .stroke11 {fill: #808070;}
        .stroke12 {fill: #808069;}
        .stroke13 {fill: #808068;}
        .stroke14 {fill: #808067;}
        .stroke15 {fill: #808066;}
        .stroke16 {fill: #808065;}
        .stroke17 {fill: #808064;}
        .stroke18 {fill: #808063;}
        .stroke19 {fill: #808062;}
        .stroke20 {fill: #808061;}
        text {
            font-family: Helvetica;
            font-size: 50px;
            fill: #808060;
            paint-order: stroke;
            stroke: #000000;
            stroke-width: 4px;
            stroke-linecap: butt;
            stroke-linejoin: miter;
            font-weight: 800;
        }
    </style>

    <path d="M 537 652 Q 685 679 690 683 Q 699 690 695 700 Q 688 712 658 721 Q 633 727 542 701 L 481 687 Q 420 677 351 673 Q 314 669 340 650 Q 379 626 453 639 Q 466 642 483 643 L 537 652 Z" class="stroke1"/>
    <path d="M 525 542 Q 531 599 537 652 L 542 701 Q 543 708 544 716 Q 548 750 557 771 Q 561 781 541 797 Q 507 816 484 820 Q 468 823 460 815 Q 453 808 460 793 Q 476 771 477 756 Q 478 723 481 687 L 483 643 Q 483 592 483 536 C 483 506 522 512 525 542 Z" class="stroke2"/>
    <path d="M 483 536 Q 347 518 188 498 Q 167 497 183 479 Q 196 466 215 460 Q 237 454 252 459 Q 463 516 803 516 Q 804 516 806 516 Q 827 516 831 524 Q 837 536 820 550 Q 768 589 730 580 Q 652 564 525 542 L 483 536 Z" class="stroke3"/>
    <path d="M 366 461 Q 360 374 227 292 Q 218 286 224 283 Q 230 279 241 281 Q 337 293 409 392 Q 419 402 429 413 Q 438 420 434 431 Q 430 441 406 461 Q 388 476 380 475 Q 367 474 366 461 Z" class="stroke4"/>
    <path d="M 647 444 Q 656 463 642 475 Q 620 494 594 499 Q 579 502 574 496 Q 568 490 577 477 Q 580 471 587 383 Q 587 358 602 344 Q 624 317 669 311 Q 715 304 782 315 Q 819 319 829 330 Q 841 340 832 350 Q 822 363 788 377 Q 769 384 754 371 Q 733 355 700 352 Q 669 348 645 359 Q 635 366 634 387 Q 634 421 647 444 Z" class="stroke5"/>
    <path d="M 530 203 Q 579 213 633 220 Q 682 229 689 235 Q 699 242 695 252 Q 688 264 658 273 Q 628 280 597 270 Q 566 261 534 252 L 477 240 Q 410 230 336 225 Q 299 221 324 202 Q 367 175 423 187 Q 450 191 479 195 L 530 203 Z" class="stroke6"/>
    <path d="M 520 95 Q 524 152 530 203 L 534 252 Q 540 304 542 311 Q 546 324 548 333 Q 552 343 533 358 Q 499 376 477 379 Q 461 383 454 374 Q 447 367 455 353 Q 473 329 477 240 L 479 195 Q 480 147 480 93 C 480 63 518 65 520 95 Z" class="stroke7"/>
    <path d="M 480 93 Q 440 92 271 67 Q 226 63 174 66 Q 165 67 157 61 Q 150 54 155 44 Q 171 20 217 0 Q 230 -6 251 2 Q 534 98 870 23 Q 871 23 875 22 Q 894 19 900 28 Q 907 38 889 55 Q 811 119 756 104 Q 737 103 703 100 Q 532 97 520 95 L 480 93 Z" class="stroke8"/>
    
    
    
    
    
    
    
    </g>
</svg>