<svg version="1.1" viewBox="0 0 1024 1024" xmlns="http://www.w3.org/2000/svg">
  
  <g transform="scale(1, -1) translate(0, -900)">
    <style type="text/css">
        .stroke1 {fill: #808080;}
        .stroke2 {fill: #808079;}
        .stroke3 {fill: #808078;}
        .stroke4 {fill: #808077;}
        .stroke5 {fill: #808076;}
        .stroke6 {fill: #808075;}
        .stroke7 {fill: #808074;}
        .stroke8 {fill: #808073;}
        .stroke9 {fill: #808072;}
        .stroke10 {fill: #808071;}
        .stroke11 {fill: #808070;}
        .stroke12 {fill: #808069;}
        .stroke13 {fill: #808068;}
        .stroke14 {fill: #808067;}
        .stroke15 {fill: #808066;}
        .stroke16 {fill: #808065;}
        .stroke17 {fill: #808064;}
        .stroke18 {fill: #808063;}
        .stroke19 {fill: #808062;}
        .stroke20 {fill: #808061;}
        text {
            font-family: Helvetica;
            font-size: 50px;
            fill: #808060;
            paint-order: stroke;
            stroke: #000000;
            stroke-width: 4px;
            stroke-linecap: butt;
            stroke-linejoin: miter;
            font-weight: 800;
        }
    </style>

    <path d="M 297 491 Q 375 518 377 519 Q 386 528 380 536 Q 373 548 342 552 Q 320 555 300 548 L 251 528 Q 194 507 126 495 Q 89 485 118 471 Q 161 453 246 477 Q 247 478 250 478 L 297 491 Z" class="stroke1"/>
    <path d="M 287 302 Q 291 399 297 491 L 300 548 Q 300 656 324 736 Q 328 748 307 763 Q 270 782 245 787 Q 229 791 220 782 Q 213 775 221 758 Q 248 718 248 690 Q 251 612 251 528 L 250 478 Q 249 387 242 286 C 240 256 286 272 287 302 Z" class="stroke2"/>
    <path d="M 242 286 Q 104 241 83 241 Q 70 240 68 228 Q 67 215 77 206 Q 102 191 137 174 Q 147 171 160 181 Q 178 197 341 290 Q 362 300 377 315 Q 390 322 390 333 Q 383 339 287 302 L 242 286 Z" class="stroke3"/>
    <path d="M 538 711 Q 525 724 503 732 Q 481 741 477 730 Q 473 720 481 710 Q 503 679 500 640 Q 493 555 476 474 L 466 429 Q 456 390 446 352 Q 430 304 387 259 Q 368 243 371 226 Q 377 210 397 192 Q 416 176 438 197 Q 495 236 684 225 Q 694 225 709 222 L 766 215 Q 803 211 840 200 Q 859 193 873 199 Q 886 203 880 219 Q 873 240 851 254 Q 836 269 775 270 L 719 271 Q 629 275 483 260 Q 462 257 469 283 Q 491 356 512 439 L 521 480 Q 555 642 556 678 C 558 698 558 698 538 711 Z" class="stroke4"/>
    <path d="M 797 521 Q 801 650 814 679 Q 827 701 817 709 Q 810 721 754 756 Q 739 768 675 743 Q 633 733 538 711 C 509 704 527 670 556 678 Q 568 679 583 685 Q 709 718 726 705 Q 739 698 741 670 Q 742 583 741 511 L 739 465 Q 736 366 719 271 L 709 222 Q 679 120 657 101 Q 648 98 617 116 Q 593 129 577 138 Q 564 142 567 130 Q 568 120 586 106 Q 629 57 648 20 Q 676 -7 694 11 Q 733 59 766 215 L 775 270 Q 788 361 795 467 L 797 521 Z" class="stroke5"/>
    <path d="M 584 598 Q 627 543 649 541 Q 662 540 669 558 Q 670 571 661 590 Q 652 603 632 609 Q 601 622 588 624 Q 579 625 578 614 Q 577 607 584 598 Z" class="stroke6"/>
    <path d="M 795 467 Q 838 468 887 468 Q 947 465 955 476 Q 961 488 944 502 Q 886 545 825 527 Q 812 526 797 521 L 741 511 Q 695 505 640 496 Q 583 489 521 480 L 476 474 Q 427 468 377 462 Q 355 461 371 443 Q 384 430 403 424 Q 424 418 440 423 Q 450 427 466 429 L 512 439 Q 561 449 619 455 Q 670 462 739 465 L 795 467 Z" class="stroke7"/>
    <path d="M 555 380 Q 597 317 624 314 Q 637 313 645 330 Q 648 343 639 364 Q 630 380 609 388 Q 575 404 561 407 Q 551 410 550 398 Q 549 389 555 380 Z" class="stroke8"/>
    
    
    
    
    
    
    
    </g>
</svg>