<svg version="1.1" viewBox="0 0 1024 1024" xmlns="http://www.w3.org/2000/svg">
  
  <g transform="scale(1, -1) translate(0, -900)">
    <style type="text/css">
        .stroke1 {fill: #808080;}
        .stroke2 {fill: #808079;}
        .stroke3 {fill: #808078;}
        .stroke4 {fill: #808077;}
        .stroke5 {fill: #808076;}
        .stroke6 {fill: #808075;}
        .stroke7 {fill: #808074;}
        .stroke8 {fill: #808073;}
        .stroke9 {fill: #808072;}
        .stroke10 {fill: #808071;}
        .stroke11 {fill: #808070;}
        .stroke12 {fill: #808069;}
        .stroke13 {fill: #808068;}
        .stroke14 {fill: #808067;}
        .stroke15 {fill: #808066;}
        .stroke16 {fill: #808065;}
        .stroke17 {fill: #808064;}
        .stroke18 {fill: #808063;}
        .stroke19 {fill: #808062;}
        .stroke20 {fill: #808061;}
        text {
            font-family: Helvetica;
            font-size: 50px;
            fill: #808060;
            paint-order: stroke;
            stroke: #000000;
            stroke-width: 4px;
            stroke-linecap: butt;
            stroke-linejoin: miter;
            font-weight: 800;
        }
    </style>

    <path d="M 337 459 Q 415 486 422 491 Q 429 501 425 508 Q 416 520 385 524 Q 360 525 339 516 L 292 496 Q 211 465 145 451 Q 109 441 138 427 Q 180 409 255 433 Q 271 439 292 444 L 337 459 Z" class="stroke1"/>
    <path d="M 330 252 Q 334 358 337 459 L 339 516 Q 339 633 361 729 Q 365 741 343 756 Q 306 775 281 779 Q 265 782 256 773 Q 249 766 257 749 Q 288 704 288 674 Q 292 589 292 496 L 292 444 Q 291 344 286 232 C 285 202 329 222 330 252 Z" class="stroke2"/>
    <path d="M 286 232 Q 223 207 157 177 Q 139 168 107 165 Q 94 162 94 151 Q 93 138 104 130 Q 129 117 166 102 Q 176 101 188 110 Q 306 191 426 274 Q 438 284 437 293 Q 431 297 419 294 Q 376 275 330 252 L 286 232 Z" class="stroke3"/>
    <path d="M 703 642 Q 850 673 854 677 Q 863 684 859 692 Q 852 704 824 712 Q 796 719 766 708 Q 705 689 640 673 Q 567 658 482 651 Q 446 647 471 630 Q 499 611 543 613 L 588 621 Q 622 628 660 634 L 703 642 Z" class="stroke4"/>
    <path d="M 543 613 Q 550 598 558 586 Q 565 564 566 528 Q 569 488 567 140 C 567 110 611 115 611 145 Q 615 541 619 570 Q 626 589 616 599 Q 601 612 588 621 C 564 639 529 640 543 613 Z" class="stroke5"/>
    <path d="M 731 161 Q 731 258 732 345 L 732 371 Q 735 614 734 616 Q 716 631 703 642 C 680 661 649 662 660 634 Q 681 586 685 501 Q 685 413 686 155 C 686 125 731 131 731 161 Z" class="stroke6"/>
    <path d="M 435 392 Q 459 358 483 318 Q 492 305 505 301 Q 514 300 521 309 Q 528 321 528 347 Q 528 380 442 433 Q 430 439 424 439 Q 420 436 418 425 Q 418 415 435 392 Z" class="stroke7"/>
    <path d="M 732 345 Q 757 358 854 416 Q 875 431 899 440 Q 921 449 912 467 Q 899 486 874 502 Q 852 518 838 515 Q 825 515 828 501 Q 829 471 774 414 Q 753 395 732 371 C 712 349 706 331 732 345 Z" class="stroke8"/>
    <path d="M 567 140 Q 485 134 394 123 Q 372 122 388 103 Q 403 87 421 81 Q 443 75 461 79 Q 629 118 889 110 Q 908 110 927 109 Q 949 108 954 117 Q 961 130 943 145 Q 883 190 820 176 Q 780 170 731 161 L 686 155 Q 664 154 644 150 Q 628 149 611 145 L 567 140 Z" class="stroke9"/>
    
    
    
    
    
    
    
    
    </g>
</svg>