<svg version="1.1" viewBox="0 0 1024 1024" xmlns="http://www.w3.org/2000/svg">
  
  <g transform="scale(1, -1) translate(0, -900)">
    <style type="text/css">
        .stroke1 {fill: #808080;}
        .stroke2 {fill: #808079;}
        .stroke3 {fill: #808078;}
        .stroke4 {fill: #808077;}
        .stroke5 {fill: #808076;}
        .stroke6 {fill: #808075;}
        .stroke7 {fill: #808074;}
        .stroke8 {fill: #808073;}
        .stroke9 {fill: #808072;}
        .stroke10 {fill: #808071;}
        .stroke11 {fill: #808070;}
        .stroke12 {fill: #808069;}
        .stroke13 {fill: #808068;}
        .stroke14 {fill: #808067;}
        .stroke15 {fill: #808066;}
        .stroke16 {fill: #808065;}
        .stroke17 {fill: #808064;}
        .stroke18 {fill: #808063;}
        .stroke19 {fill: #808062;}
        .stroke20 {fill: #808061;}
        text {
            font-family: Helvetica;
            font-size: 50px;
            fill: #808060;
            paint-order: stroke;
            stroke: #000000;
            stroke-width: 4px;
            stroke-linecap: butt;
            stroke-linejoin: miter;
            font-weight: 800;
        }
    </style>

    <path d="M 305 503 Q 327 510 352 515 Q 383 524 388 529 Q 397 536 392 545 Q 385 555 355 561 Q 330 565 307 555 L 259 537 Q 145 512 131 509 Q 97 502 122 486 Q 170 465 220 482 Q 236 488 259 491 L 305 503 Z" class="stroke1"/>
    <path d="M 298 325 Q 301 416 305 503 L 307 555 Q 308 636 327 722 Q 331 734 310 748 Q 276 767 250 771 Q 234 774 226 765 Q 219 758 227 743 Q 254 704 254 679 Q 258 610 259 537 L 259 491 Q 259 403 255 307 C 254 277 297 295 298 325 Z" class="stroke2"/>
    <path d="M 255 307 Q 200 286 141 262 Q 125 255 96 253 Q 83 250 82 239 Q 82 226 92 218 Q 117 205 154 189 Q 164 188 176 197 Q 278 267 382 338 Q 394 348 393 357 Q 387 361 298 325 L 255 307 Z" class="stroke3"/>
    <path d="M 516 759 Q 506 763 483 769 Q 473 773 469 769 Q 463 763 469 749 Q 496 677 505 565 Q 505 531 522 507 Q 537 486 542 500 Q 548 513 548 535 L 547 558 Q 547 567 539 626 L 537 651 Q 530 705 530 727 C 529 754 529 754 516 759 Z" class="stroke4"/>
    <path d="M 656 546 Q 675 518 693 510 Q 703 503 716 523 Q 729 548 751 681 Q 758 709 779 734 Q 791 746 780 759 Q 765 774 724 797 Q 708 804 649 789 Q 556 771 516 759 C 487 751 502 715 530 727 Q 539 737 665 753 Q 683 756 689 750 Q 702 735 700 721 Q 687 597 674 571 C 664 543 650 554 656 546 Z" class="stroke5"/>
    <path d="M 539 626 Q 543 632 646 649 Q 667 655 658 665 Q 648 678 624 679 Q 591 682 537 651 C 511 636 513 611 539 626 Z" class="stroke6"/>
    <path d="M 548 535 Q 549 535 554 535 Q 611 542 656 546 C 686 549 698 553 674 571 Q 667 577 655 579 Q 631 582 547 558 C 518 550 518 535 548 535 Z" class="stroke7"/>
    <path d="M 523 411 Q 535 429 546 437 Q 553 444 550 454 Q 549 463 529 480 Q 510 493 497 494 Q 484 494 489 478 Q 496 463 490 450 Q 454 372 382 286 Q 375 279 372 275 Q 369 268 380 268 Q 422 277 508 391 L 523 411 Z" class="stroke8"/>
    <path d="M 708 412 Q 707 413 711 413 Q 756 422 782 422 Q 795 422 801 416 Q 810 392 796 253 Q 784 160 750 93 Q 737 68 721 67 Q 706 63 625 87 Q 615 90 615 84 Q 615 80 626 71 Q 672 28 693 -5 Q 705 -24 717 -23 Q 733 -26 751 -10 Q 811 30 837 147 Q 855 225 871 346 Q 874 373 893 393 Q 906 406 905 413 Q 904 422 886 435 Q 861 456 826 467 Q 805 474 715 449 Q 711 449 708 447 Q 656 435 523 411 C 493 406 478 395 508 391 Q 521 388 536 387 L 568 389 Q 571 393 656 403 L 708 412 Z" class="stroke9"/>
    <path d="M 536 387 Q 536 386 537 383 Q 537 302 419 188 Q 413 184 413 179 Q 412 175 417 175 Q 462 175 569 304 Q 576 319 592 335 Q 599 344 593 355 Q 584 376 568 389 C 546 409 533 417 536 387 Z" class="stroke10"/>
    <path d="M 656 403 Q 677 337 572 184 Q 569 183 568 179 Q 537 137 460 55 Q 453 49 463 48 Q 517 61 608 166 Q 671 253 722 350 Q 729 363 734 369 Q 741 373 738 384 Q 732 402 708 412 C 681 426 650 432 656 403 Z" class="stroke11"/>
    
    
    
    
    
    
    
    
    
    
    </g>
</svg>