<svg version="1.1" viewBox="0 0 1024 1024" xmlns="http://www.w3.org/2000/svg">
  
  <g transform="scale(1, -1) translate(0, -900)">
    <style type="text/css">
        .stroke1 {fill: #808080;}
        .stroke2 {fill: #808079;}
        .stroke3 {fill: #808078;}
        .stroke4 {fill: #808077;}
        .stroke5 {fill: #808076;}
        .stroke6 {fill: #808075;}
        .stroke7 {fill: #808074;}
        .stroke8 {fill: #808073;}
        .stroke9 {fill: #808072;}
        .stroke10 {fill: #808071;}
        .stroke11 {fill: #808070;}
        .stroke12 {fill: #808069;}
        .stroke13 {fill: #808068;}
        .stroke14 {fill: #808067;}
        .stroke15 {fill: #808066;}
        .stroke16 {fill: #808065;}
        .stroke17 {fill: #808064;}
        .stroke18 {fill: #808063;}
        .stroke19 {fill: #808062;}
        .stroke20 {fill: #808061;}
        text {
            font-family: Helvetica;
            font-size: 50px;
            fill: #808060;
            paint-order: stroke;
            stroke: #000000;
            stroke-width: 4px;
            stroke-linecap: butt;
            stroke-linejoin: miter;
            font-weight: 800;
        }
    </style>

    <path d="M 226 693 Q 262 700 299 719 Q 314 728 323 719 Q 327 715 317 700 Q 299 672 283 643 Q 271 622 292 587 Q 340 517 329 499 Q 325 492 308 495 Q 289 499 268 499 Q 246 500 270 486 Q 312 459 350 427 Q 365 417 375 429 Q 388 439 393 463 Q 402 514 337 585 Q 286 622 331 658 Q 371 706 392 716 Q 411 726 402 740 Q 390 758 355 778 Q 336 787 323 776 Q 277 737 214 723 C 185 716 197 686 226 693 Z" class="stroke1"/>
    <path d="M 214 723 Q 192 739 164 748 Q 155 749 150 741 Q 146 735 154 725 Q 208 593 174 360 Q 155 281 160 264 Q 170 233 181 220 Q 191 207 201 220 Q 223 251 225 410 Q 219 617 226 693 C 228 714 228 714 214 723 Z" class="stroke2"/>
    <path d="M 496 758 Q 514 739 534 715 Q 544 702 558 702 Q 568 702 573 713 Q 577 725 573 751 Q 564 781 495 800 Q 482 804 476 803 Q 472 799 472 788 Q 473 778 496 758 Z" class="stroke3"/>
    <path d="M 688 811 Q 669 774 630 717 Q 626 710 631 703 Q 638 702 646 707 Q 724 773 761 797 Q 779 804 773 814 Q 766 829 746 845 Q 725 861 703 862 Q 690 861 691 841 Q 695 828 688 811 Z" class="stroke4"/>
    <path d="M 593 643 Q 693 665 775 677 Q 797 681 789 693 Q 779 706 755 711 Q 733 715 694 704 Q 561 673 447 648 Q 431 645 450 630 Q 465 621 545 635 L 593 643 Z" class="stroke5"/>
    <path d="M 573 585 Q 592 604 603 611 Q 612 621 611 628 Q 610 638 593 643 C 565 653 557 656 545 635 Q 517 580 424 510 Q 408 500 429 500 Q 472 500 556 570 L 573 585 Z" class="stroke6"/>
    <path d="M 669 513 Q 606 576 573 585 C 545 596 531 586 556 570 L 575 558 L 618 522 Q 628 512 637 498 L 657 446 Q 663 410 652 351 Q 645 326 638 321 Q 631 317 615 317 Q 558 329 556 320 Q 555 313 566 303 Q 609 266 627 241 Q 639 225 653 229 Q 666 233 680 255 Q 693 285 700 333 Q 707 399 699 438 Q 695 454 691 467 C 677 516 687 495 669 513 Z" class="stroke7"/>
    <path d="M 575 558 Q 574 557 573 553 Q 554 501 420 420 Q 404 413 423 412 Q 478 408 581 492 Q 606 514 618 522 C 642 539 586 586 575 558 Z" class="stroke8"/>
    <path d="M 637 498 Q 636 498 634 495 Q 559 396 390 313 Q 377 304 384 301 Q 391 295 403 297 Q 508 313 614 405 Q 650 433 650 437 Q 654 441 657 446 C 675 470 657 521 637 498 Z" class="stroke9"/>
    <path d="M 684 503 Q 759 552 798 570 Q 813 574 810 583 Q 806 596 790 614 Q 774 630 756 632 Q 743 633 743 616 Q 744 595 669 513 C 649 491 659 487 684 503 Z" class="stroke10"/>
    <path d="M 691 467 Q 752 403 826 335 Q 844 322 866 327 Q 945 345 969 354 Q 976 357 976 361 Q 976 365 965 369 Q 842 400 777 442 Q 732 469 684 503 C 659 520 670 489 691 467 Z" class="stroke11"/>
    <path d="M 517 137 Q 659 161 669 167 Q 679 174 675 184 Q 668 197 638 205 Q 610 212 523 188 L 461 174 Q 400 164 332 161 Q 295 157 320 138 Q 360 114 434 125 Q 447 128 464 129 L 517 137 Z" class="stroke12"/>
    <path d="M 505 29 Q 511 86 517 137 L 523 188 Q 526 216 536 237 Q 539 247 520 261 Q 487 280 465 284 Q 449 287 442 279 Q 435 272 442 258 Q 457 240 461 174 L 464 129 Q 464 80 464 25 C 464 -5 502 -1 505 29 Z" class="stroke13"/>
    <path d="M 464 25 Q 325 15 167 3 Q 145 2 160 -17 Q 173 -33 193 -40 Q 215 -47 233 -42 Q 482 12 858 -11 Q 880 -12 885 -3 Q 892 10 875 25 Q 815 73 752 59 Q 655 46 505 29 L 464 25 Z" class="stroke14"/>
    
    
    
    
    
    
    
    
    
    
    
    
    
    </g>
</svg>