<svg version="1.1" viewBox="0 0 1024 1024" xmlns="http://www.w3.org/2000/svg">
  
  <g transform="scale(1, -1) translate(0, -900)">
    <style type="text/css">
        .stroke1 {fill: #808080;}
        .stroke2 {fill: #808079;}
        .stroke3 {fill: #808078;}
        .stroke4 {fill: #808077;}
        .stroke5 {fill: #808076;}
        .stroke6 {fill: #808075;}
        .stroke7 {fill: #808074;}
        .stroke8 {fill: #808073;}
        .stroke9 {fill: #808072;}
        .stroke10 {fill: #808071;}
        .stroke11 {fill: #808070;}
        .stroke12 {fill: #808069;}
        .stroke13 {fill: #808068;}
        .stroke14 {fill: #808067;}
        .stroke15 {fill: #808066;}
        .stroke16 {fill: #808065;}
        .stroke17 {fill: #808064;}
        .stroke18 {fill: #808063;}
        .stroke19 {fill: #808062;}
        .stroke20 {fill: #808061;}
        text {
            font-family: Helvetica;
            font-size: 50px;
            fill: #808060;
            paint-order: stroke;
            stroke: #000000;
            stroke-width: 4px;
            stroke-linecap: butt;
            stroke-linejoin: miter;
            font-weight: 800;
        }
    </style>

    <path d="M 254 487 Q 266 491 282 496 Q 303 503 306 506 Q 313 515 308 522 Q 301 532 273 535 Q 263 536 255 535 L 209 519 Q 161 501 109 491 Q 76 482 101 469 Q 141 451 191 469 Q 198 472 210 474 L 254 487 Z" class="stroke1"/>
    <path d="M 248 353 Q 251 422 254 487 L 255 535 Q 258 629 273 694 Q 276 704 257 718 Q 223 734 201 739 Q 185 742 178 733 Q 171 726 179 712 Q 201 681 203 658 Q 207 591 209 519 L 210 474 Q 210 410 209 337 C 209 307 247 323 248 353 Z" class="stroke2"/>
    <path d="M 209 337 Q 154 316 93 292 Q 78 286 53 285 Q 40 282 40 272 Q 39 259 49 253 Q 71 240 105 225 Q 115 224 125 233 Q 155 260 279 336 Q 298 346 310 359 Q 322 368 321 376 Q 315 380 304 377 Q 276 367 248 353 L 209 337 Z" class="stroke3"/>
    <path d="M 469 778 Q 496 757 526 732 Q 539 720 555 722 Q 565 723 569 736 Q 573 751 562 779 Q 550 807 461 824 Q 445 825 440 823 Q 436 819 437 807 Q 441 797 469 778 Z" class="stroke4"/>
    <path d="M 351 662 Q 318 656 342 641 Q 384 620 432 634 Q 511 652 593 671 Q 630 681 636 686 Q 643 693 639 701 Q 632 711 605 718 Q 581 722 492 691 Q 428 673 351 662 Z" class="stroke5"/>
    <path d="M 377 562 Q 368 565 347 567 Q 337 568 334 564 Q 330 558 338 545 Q 360 511 378 453 Q 382 435 394 425 Q 410 407 413 421 Q 414 427 415 434 L 411 462 Q 398 517 396 536 C 393 558 393 558 377 562 Z" class="stroke6"/>
    <path d="M 559 485 Q 583 539 603 548 Q 616 564 604 578 Q 591 588 547 609 Q 532 615 515 607 Q 455 580 377 562 C 348 555 367 527 396 536 Q 426 546 510 565 Q 522 569 527 564 Q 533 555 516 489 C 509 460 547 458 559 485 Z" class="stroke7"/>
    <path d="M 415 434 Q 422 433 433 435 Q 476 445 571 457 Q 580 458 580 466 Q 580 473 559 485 C 540 496 540 496 516 489 Q 515 489 513 488 Q 455 472 411 462 C 382 455 385 436 415 434 Z" class="stroke8"/>
    <path d="M 480 272 Q 555 338 586 348 Q 602 355 597 368 Q 593 381 538 409 Q 523 415 447 385 Q 384 364 345 361 Q 326 361 334 344 Q 341 334 357 326 Q 382 313 409 331 Q 422 337 485 370 Q 495 374 505 370 Q 515 364 512 353 Q 490 320 465 280 C 449 255 457 252 480 272 Z" class="stroke9"/>
    <path d="M 511 229 Q 502 259 480 272 L 465 280 Q 438 289 431 283 Q 421 279 432 267 Q 460 248 470 212 L 476 180 Q 488 90 466 46 Q 456 25 428 31 Q 406 34 387 38 Q 377 39 381 31 Q 384 25 398 15 Q 426 -12 436 -32 Q 445 -47 458 -45 Q 470 -44 491 -22 Q 548 38 519 197 Q 518 198 518 200 L 511 229 Z" class="stroke10"/>
    <path d="M 518 200 Q 519 201 522 202 Q 582 232 581 248 Q 577 252 564 250 Q 539 240 511 229 L 470 212 Q 376 178 271 141 Q 250 134 215 133 Q 203 132 202 121 Q 201 108 210 101 Q 232 86 264 70 Q 274 69 285 76 Q 340 121 476 180 L 518 200 Z" class="stroke11"/>
    <path d="M 678 485 Q 738 599 765 673 Q 777 710 789 729 Q 796 741 788 752 Q 781 762 751 778 Q 723 788 706 784 Q 690 778 701 760 Q 716 742 710 703 Q 689 585 624 446 Q 617 434 616 428 Q 615 418 627 422 Q 633 425 664 465 L 678 485 Z" class="stroke12"/>
    <path d="M 760 459 Q 761 460 765 461 Q 904 500 914 509 Q 921 516 916 525 Q 909 535 879 540 Q 849 543 822 529 Q 791 516 758 504 Q 721 494 678 485 C 649 479 638 477 664 465 Q 688 453 727 452 L 760 459 Z" class="stroke13"/>
    <path d="M 760 234 Q 788 322 798 390 Q 801 411 805 421 Q 812 427 806 436 Q 797 451 760 459 C 731 466 722 469 727 452 Q 727 448 731 442 Q 741 375 724 281 Q 723 280 723 277 L 705 230 Q 671 163 587 110 Q 578 106 570 100 Q 549 87 576 89 Q 616 86 681 128 Q 715 149 735 185 L 760 234 Z" class="stroke14"/>
    <path d="M 735 185 Q 781 118 824 62 Q 837 43 861 42 Q 988 46 998 58 Q 1002 64 993 68 Q 845 144 780 213 Q 770 223 760 234 L 723 277 Q 696 308 668 345 Q 659 360 644 362 Q 619 363 611 356 Q 607 352 616 345 Q 644 327 705 230 L 735 185 Z" class="stroke15"/>
    
    
    
    
    
    
    
    
    
    
    
    
    
    
    </g>
</svg>