<svg version="1.1" viewBox="0 0 1024 1024" xmlns="http://www.w3.org/2000/svg">
  
  <g transform="scale(1, -1) translate(0, -900)">
    <style type="text/css">
        .stroke1 {fill: #808080;}
        .stroke2 {fill: #808079;}
        .stroke3 {fill: #808078;}
        .stroke4 {fill: #808077;}
        .stroke5 {fill: #808076;}
        .stroke6 {fill: #808075;}
        .stroke7 {fill: #808074;}
        .stroke8 {fill: #808073;}
        .stroke9 {fill: #808072;}
        .stroke10 {fill: #808071;}
        .stroke11 {fill: #808070;}
        .stroke12 {fill: #808069;}
        .stroke13 {fill: #808068;}
        .stroke14 {fill: #808067;}
        .stroke15 {fill: #808066;}
        .stroke16 {fill: #808065;}
        .stroke17 {fill: #808064;}
        .stroke18 {fill: #808063;}
        .stroke19 {fill: #808062;}
        .stroke20 {fill: #808061;}
        text {
            font-family: Helvetica;
            font-size: 50px;
            fill: #808060;
            paint-order: stroke;
            stroke: #000000;
            stroke-width: 4px;
            stroke-linecap: butt;
            stroke-linejoin: miter;
            font-weight: 800;
        }
    </style>

    <path d="M 295 496 Q 314 503 337 509 Q 365 519 370 523 Q 377 532 373 540 Q 364 552 334 556 Q 313 557 297 552 L 245 530 Q 188 509 122 495 Q 85 485 114 471 Q 148 456 224 474 Q 231 477 245 480 L 295 496 Z" class="stroke1"/>
    <path d="M 286 320 Q 290 411 295 496 L 297 552 Q 298 630 318 731 Q 322 743 300 759 Q 263 778 236 783 Q 218 786 210 777 Q 203 768 211 753 Q 238 714 239 687 Q 243 612 245 530 L 245 480 Q 245 393 242 299 C 241 269 285 290 286 320 Z" class="stroke2"/>
    <path d="M 242 299 Q 185 274 124 244 Q 106 235 74 231 Q 61 227 60 216 Q 60 201 71 195 Q 99 182 137 167 Q 147 166 159 177 Q 201 220 347 313 Q 369 331 394 350 Q 406 360 405 370 Q 398 374 386 370 Q 338 346 286 320 L 242 299 Z" class="stroke3"/>
    <path d="M 653 716 Q 758 749 760 749 Q 767 756 763 763 Q 756 772 733 776 Q 715 779 660 759 C 632 749 611 740 608 740 Q 607 741 605 740 Q 559 727 505 718 Q 477 712 498 700 Q 526 685 586 699 Q 595 702 607 703 L 653 716 Z" class="stroke4"/>
    <path d="M 607 703 Q 607 631 613 612 Q 617 600 627 606 Q 645 621 650 694 Q 651 706 653 716 L 660 759 Q 673 832 673 835 Q 672 838 670 840 Q 657 853 631 867 Q 612 876 590 868 Q 580 861 591 846 Q 606 831 608 740 L 607 703 Z" class="stroke5"/>
    <path d="M 772 578 Q 818 584 875 586 Q 932 590 937 597 Q 941 607 926 619 Q 866 655 802 631 Q 801 631 799 630 L 738 615 Q 672 605 531 575 L 489 567 Q 447 560 406 552 Q 387 549 402 535 Q 415 523 432 519 Q 451 515 465 520 Q 481 526 501 531 L 536 540 Q 611 561 725 574 L 772 578 Z" class="stroke6"/>
    <path d="M 531 575 Q 528 597 527 616 Q 528 632 510 637 Q 477 652 458 644 Q 443 637 457 621 Q 479 597 489 567 L 501 531 Q 510 495 524 482 Q 536 473 539 483 Q 542 495 536 540 L 531 575 Z" class="stroke7"/>
    <path d="M 725 574 Q 707 519 706 509 Q 707 497 721 504 Q 739 516 753 545 Q 762 561 772 578 L 799 630 Q 805 643 816 655 Q 829 668 821 678 Q 811 694 780 713 Q 767 723 749 716 Q 739 712 746 701 Q 755 674 738 615 L 725 574 Z" class="stroke8"/>
    <path d="M 516 444 Q 497 459 476 464 Q 469 465 463 459 Q 460 455 467 445 Q 497 363 476 236 Q 464 193 468 174 Q 477 146 487 135 Q 497 123 504 135 Q 510 142 514 155 L 521 187 Q 524 206 525 246 L 525 270 Q 525 300 526 331 L 526 356 Q 526 399 529 416 C 531 433 531 433 516 444 Z" class="stroke9"/>
    <path d="M 745 179 Q 746 173 752 165 Q 765 137 774 138 Q 787 139 803 171 Q 816 195 812 243 Q 800 396 824 433 Q 834 449 826 458 Q 757 518 692 485 Q 623 463 516 444 C 486 439 499 411 529 416 Q 533 416 539 417 Q 633 444 703 457 Q 727 463 735 450 Q 748 435 748 383 Q 752 236 745 208 Q 744 208 744 207 L 745 179 Z" class="stroke10"/>
    <path d="M 526 331 Q 530 330 542 332 Q 633 350 700 361 Q 722 365 713 377 Q 703 390 679 394 Q 652 397 526 356 C 497 347 496 332 526 331 Z" class="stroke11"/>
    <path d="M 525 246 Q 534 245 546 246 Q 639 261 707 269 Q 729 273 721 285 Q 711 298 687 303 Q 666 307 525 270 C 496 262 495 248 525 246 Z" class="stroke12"/>
    <path d="M 514 155 Q 520 154 528 155 Q 597 170 745 179 C 775 181 767 188 744 207 Q 740 211 732 216 Q 717 225 688 218 Q 597 197 521 187 C 491 183 484 157 514 155 Z" class="stroke13"/>
    <path d="M 514 102 Q 502 48 381 -44 Q 360 -57 387 -56 Q 456 -56 548 34 Q 570 55 583 63 Q 593 75 592 84 Q 591 97 565 106 Q 537 118 525 115 Q 518 114 514 102 Z" class="stroke14"/>
    <path d="M 696 91 Q 744 43 800 -26 Q 816 -48 832 -54 Q 841 -55 849 -45 Q 862 -32 852 15 Q 842 75 703 123 Q 700 124 699 124 Q 690 130 687 117 Q 686 102 696 91 Z" class="stroke15"/>
    
    
    
    
    
    
    
    
    
    
    
    
    
    
    </g>
</svg>