<svg version="1.1" viewBox="0 0 1024 1024" xmlns="http://www.w3.org/2000/svg">
  
  <g transform="scale(1, -1) translate(0, -900)">
    <style type="text/css">
        .stroke1 {fill: #808080;}
        .stroke2 {fill: #808079;}
        .stroke3 {fill: #808078;}
        .stroke4 {fill: #808077;}
        .stroke5 {fill: #808076;}
        .stroke6 {fill: #808075;}
        .stroke7 {fill: #808074;}
        .stroke8 {fill: #808073;}
        .stroke9 {fill: #808072;}
        .stroke10 {fill: #808071;}
        .stroke11 {fill: #808070;}
        .stroke12 {fill: #808069;}
        .stroke13 {fill: #808068;}
        .stroke14 {fill: #808067;}
        .stroke15 {fill: #808066;}
        .stroke16 {fill: #808065;}
        .stroke17 {fill: #808064;}
        .stroke18 {fill: #808063;}
        .stroke19 {fill: #808062;}
        .stroke20 {fill: #808061;}
        text {
            font-family: Helvetica;
            font-size: 50px;
            fill: #808060;
            paint-order: stroke;
            stroke: #000000;
            stroke-width: 4px;
            stroke-linecap: butt;
            stroke-linejoin: miter;
            font-weight: 800;
        }
    </style>

    <path d="M 535 412 Q 718 436 872 423 Q 897 420 903 430 Q 910 443 898 456 Q 867 484 821 504 Q 806 510 779 501 Q 713 485 645 475 Q 581 468 536 461 L 482 454 Q 473 457 297 431 Q 231 421 132 418 Q 119 417 117 406 Q 116 393 136 378 Q 154 365 186 353 Q 198 349 216 358 Q 232 364 302 377 Q 383 396 482 407 L 535 412 Z" class="stroke1"/>
    <path d="M 530 159 Q 533 292 535 412 L 536 461 Q 536 650 554 701 Q 566 723 551 736 Q 514 764 484 773 Q 468 777 453 764 Q 447 757 454 745 Q 484 697 482 642 Q 482 551 482 454 L 482 407 Q 482 284 482 153 C 482 123 529 129 530 159 Z" class="stroke2"/>
    <path d="M 482 153 Q 386 141 274 128 Q 252 127 268 107 Q 284 91 303 85 Q 327 78 344 83 Q 443 108 704 108 Q 717 108 731 107 Q 753 106 759 116 Q 765 129 747 144 Q 684 192 614 174 Q 578 168 530 159 L 482 153 Z" class="stroke3"/>
    
    
    </g>
</svg>