<svg version="1.1" viewBox="0 0 1024 1024" xmlns="http://www.w3.org/2000/svg">
  
  <g transform="scale(1, -1) translate(0, -900)">
    <style type="text/css">
        .stroke1 {fill: #808080;}
        .stroke2 {fill: #808079;}
        .stroke3 {fill: #808078;}
        .stroke4 {fill: #808077;}
        .stroke5 {fill: #808076;}
        .stroke6 {fill: #808075;}
        .stroke7 {fill: #808074;}
        .stroke8 {fill: #808073;}
        .stroke9 {fill: #808072;}
        .stroke10 {fill: #808071;}
        .stroke11 {fill: #808070;}
        .stroke12 {fill: #808069;}
        .stroke13 {fill: #808068;}
        .stroke14 {fill: #808067;}
        .stroke15 {fill: #808066;}
        .stroke16 {fill: #808065;}
        .stroke17 {fill: #808064;}
        .stroke18 {fill: #808063;}
        .stroke19 {fill: #808062;}
        .stroke20 {fill: #808061;}
        text {
            font-family: Helvetica;
            font-size: 50px;
            fill: #808060;
            paint-order: stroke;
            stroke: #000000;
            stroke-width: 4px;
            stroke-linecap: butt;
            stroke-linejoin: miter;
            font-weight: 800;
        }
    </style>

    <path d="M 214 439 Q 221 449 233 461 Q 258 489 285 524 L 301 545 Q 382 666 397 678 Q 407 688 402 703 Q 398 716 370 740 Q 343 759 324 759 Q 305 758 312 735 Q 336 684 225 522 Q 173 449 104 367 Q 94 357 91 351 Q 87 339 101 342 Q 120 345 196 419 L 214 439 Z" class="stroke1"/>
    <path d="M 285 524 Q 297 515 328 523 Q 401 545 408 536 Q 415 517 391 449 Q 370 374 295 271 Q 223 162 98 54 Q 73 36 95 39 Q 230 55 385 316 Q 421 379 453 450 Q 480 514 500 533 Q 513 545 505 557 Q 499 569 441 589 Q 428 593 404 580 Q 373 564 301 545 C 272 537 255 529 285 524 Z" class="stroke2"/>
    <path d="M 196 419 Q 200 412 213 400 Q 240 372 268 336 Q 278 324 291 323 Q 300 323 305 333 Q 311 345 307 369 Q 303 402 214 439 C 186 451 179 444 196 419 Z" class="stroke3"/>
    <path d="M 596 547 Q 602 547 609 549 Q 696 577 758 589 Q 773 592 775 587 Q 785 574 778 537 Q 765 437 739 393 Q 726 368 703 373 Q 681 383 662 395 Q 641 405 653 381 Q 689 335 704 300 Q 722 281 739 296 Q 767 315 788 350 Q 810 390 830 519 Q 836 565 853 586 Q 865 599 859 609 Q 850 621 799 642 Q 780 651 761 638 Q 718 611 583 588 C 553 583 567 541 596 547 Z" class="stroke4"/>
    <path d="M 583 588 Q 570 600 548 607 Q 535 611 525 606 Q 518 602 523 582 Q 538 539 535 497 Q 519 206 544 126 Q 551 96 577 71 Q 665 -5 854 22 Q 872 25 891 30 Q 937 43 982 78 Q 1001 94 986 121 Q 970 146 946 227 Q 945 242 937 246 Q 931 249 928 232 Q 913 144 899 115 Q 886 94 840 83 Q 737 61 645 104 Q 608 123 597 148 Q 552 241 596 547 C 600 577 600 578 583 588 Z" class="stroke5"/>
    
    
    
    
    </g>
</svg>