<svg version="1.1" viewBox="0 0 1024 1024" xmlns="http://www.w3.org/2000/svg">
  
  <g transform="scale(1, -1) translate(0, -900)">
    <style type="text/css">
        .stroke1 {fill: #808080;}
        .stroke2 {fill: #808079;}
        .stroke3 {fill: #808078;}
        .stroke4 {fill: #808077;}
        .stroke5 {fill: #808076;}
        .stroke6 {fill: #808075;}
        .stroke7 {fill: #808074;}
        .stroke8 {fill: #808073;}
        .stroke9 {fill: #808072;}
        .stroke10 {fill: #808071;}
        .stroke11 {fill: #808070;}
        .stroke12 {fill: #808069;}
        .stroke13 {fill: #808068;}
        .stroke14 {fill: #808067;}
        .stroke15 {fill: #808066;}
        .stroke16 {fill: #808065;}
        .stroke17 {fill: #808064;}
        .stroke18 {fill: #808063;}
        .stroke19 {fill: #808062;}
        .stroke20 {fill: #808061;}
        text {
            font-family: Helvetica;
            font-size: 50px;
            fill: #808060;
            paint-order: stroke;
            stroke: #000000;
            stroke-width: 4px;
            stroke-linecap: butt;
            stroke-linejoin: miter;
            font-weight: 800;
        }
    </style>

    <path d="M 499 681 Q 581 697 671 713 Q 726 725 734 732 Q 744 741 739 750 Q 732 763 699 773 Q 666 780 562 747 Q 439 719 336 709 Q 294 703 324 684 Q 369 659 430 668 L 499 681 Z" class="stroke1"/>
    <path d="M 509 439 Q 615 454 771 455 Q 843 455 848 465 Q 854 478 836 493 Q 781 532 739 524 Q 652 505 506 478 L 447 470 Q 323 452 181 432 Q 159 429 175 411 Q 208 381 250 391 Q 340 416 442 430 L 509 439 Z" class="stroke2"/>
    <path d="M 506 478 Q 512 583 534 637 Q 540 650 530 658 Q 518 670 499 681 C 474 698 413 693 430 668 Q 455 637 455 606 Q 454 531 447 470 L 442 430 Q 412 253 320 176 Q 232 113 145 75 Q 130 71 127 66 Q 121 60 138 57 Q 214 51 362 143 Q 390 167 413 194 Q 470 267 494 405 L 506 478 Z" class="stroke3"/>
    <path d="M 494 405 Q 629 144 722 51 Q 740 33 762 31 Q 847 30 920 27 Q 951 26 952 33 Q 953 42 920 59 Q 752 134 710 180 Q 601 294 515 430 Q 511 434 509 439 C 493 464 473 446 494 405 Z" class="stroke4"/>
    
    
    
    </g>
</svg>