<svg version="1.1" viewBox="0 0 1024 1024" xmlns="http://www.w3.org/2000/svg">
  
  <g transform="scale(1, -1) translate(0, -900)">
    <style type="text/css">
        .stroke1 {fill: #808080;}
        .stroke2 {fill: #808079;}
        .stroke3 {fill: #808078;}
        .stroke4 {fill: #808077;}
        .stroke5 {fill: #808076;}
        .stroke6 {fill: #808075;}
        .stroke7 {fill: #808074;}
        .stroke8 {fill: #808073;}
        .stroke9 {fill: #808072;}
        .stroke10 {fill: #808071;}
        .stroke11 {fill: #808070;}
        .stroke12 {fill: #808069;}
        .stroke13 {fill: #808068;}
        .stroke14 {fill: #808067;}
        .stroke15 {fill: #808066;}
        .stroke16 {fill: #808065;}
        .stroke17 {fill: #808064;}
        .stroke18 {fill: #808063;}
        .stroke19 {fill: #808062;}
        .stroke20 {fill: #808061;}
        text {
            font-family: Helvetica;
            font-size: 50px;
            fill: #808060;
            paint-order: stroke;
            stroke: #000000;
            stroke-width: 4px;
            stroke-linecap: butt;
            stroke-linejoin: miter;
            font-weight: 800;
        }
    </style>

    <path d="M 584 655 Q 627 665 677 671 Q 750 684 759.5 694 Q 769 704 766 712 Q 759 725 737 733 Q 698 745 657 733 Q 578 710 503 692 L 437 679 Q 365 670 274 663 Q 232 659 261 639 Q 301 617 349 620 L 417 628 L 482 639 Q 514 645 554 651 L 584 655 Z" class="stroke1"/>
    <path d="M 503 692 Q 545 786 554 796 Q 566 815 551 827 Q 535 847 519 855 Q 498 874 476 871 Q 460 870 464 851 Q 480 800 437 679 L 417 628 Q 335 465 203 388 L 96 335 Q 80 329 92 321 Q 165 310 278 381 Q 334 414 371 457 L 414 511 Q 457 570 482 639 L 503 692 Z" class="stroke2"/>
    <path d="M 554 651 Q 747 410 797 392 Q 883 380 968 394 Q 986 394 990 399 Q 994 405 976 414 Q 922 437 866 458 Q 725 515 589 651 Q 586 655 584 655 C 562 675 535 674 554 651 Z" class="stroke3"/>
    <path d="M 544 260 Q 717 285 907 265 Q 935 262 943 271 Q 950 288 937 300 Q 904 328 853 352 Q 837 359 808 349 Q 787 343 545 309 L 482 302 Q 354 287 276 274 Q 182 260 108 260 Q 92 260 90 247 Q 90 234 112 218 Q 157 188 209 200 Q 304 233 482 253 L 544 260 Z" class="stroke4"/>
    <path d="M 482 253 Q 482 -27 492 -51 Q 494 -59 498 -65 Q 514 -83 524 -59 Q 543 -13 543 231 Q 543 235 544 260 L 545 309 L 554 377 Q 555 394 559 409 L 574 446 Q 578 461 559 475 Q 531 498 482 510 Q 461 517 447 501 Q 435 490 450 477 Q 479 453 482 416 L 482 302 L 482 253 Z" class="stroke5"/>
    
    
    
    
    </g>
</svg>