<svg version="1.1" viewBox="0 0 1024 1024" xmlns="http://www.w3.org/2000/svg">
  
  <g transform="scale(1, -1) translate(0, -900)">
    <style type="text/css">
        .stroke1 {fill: #808080;}
        .stroke2 {fill: #808079;}
        .stroke3 {fill: #808078;}
        .stroke4 {fill: #808077;}
        .stroke5 {fill: #808076;}
        .stroke6 {fill: #808075;}
        .stroke7 {fill: #808074;}
        .stroke8 {fill: #808073;}
        .stroke9 {fill: #808072;}
        .stroke10 {fill: #808071;}
        .stroke11 {fill: #808070;}
        .stroke12 {fill: #808069;}
        .stroke13 {fill: #808068;}
        .stroke14 {fill: #808067;}
        .stroke15 {fill: #808066;}
        .stroke16 {fill: #808065;}
        .stroke17 {fill: #808064;}
        .stroke18 {fill: #808063;}
        .stroke19 {fill: #808062;}
        .stroke20 {fill: #808061;}
        text {
            font-family: Helvetica;
            font-size: 50px;
            fill: #808060;
            paint-order: stroke;
            stroke: #000000;
            stroke-width: 4px;
            stroke-linecap: butt;
            stroke-linejoin: miter;
            font-weight: 800;
        }
    </style>

    <path d="M 459 792 Q 489 773 522 748 Q 538 736 554 740 Q 564 741 569 756 Q 572 772 558 802 Q 549 821 516 831 Q 437 849 424 839 Q 420 835 422 821 Q 428 811 459 792 Z" class="stroke1"/>
    <path d="M 596 656 Q 788 656 797 663 Q 797 664 799 666 Q 803 676 788 690 Q 739 729 702 720 Q 605 702 256 657 Q 237 656 251 639 Q 264 626 282 620 Q 301 614 317 619 Q 357 629 405 637 L 456 644 Q 483 650 544 653 L 596 656 Z" class="stroke2"/>
    <path d="M 405 637 Q 427 607 419 532 Q 407 460 363 424 Q 353 414 342 403 Q 332 396 342 394 Q 405 403 447 479 Q 450 491 455 501 Q 464 525 471 587 Q 471 603 477 617 Q 483 632 469 637 Q 462 641 456 644 C 429 658 389 663 405 637 Z" class="stroke3"/>
    <path d="M 544 653 Q 553 616 553 529 Q 552 501 548 494 Q 544 484 527 489 Q 511 493 492 497 Q 482 498 479 493 Q 476 487 486 478 Q 532 427 546 400 Q 556 387 566 388 Q 576 391 589 422 Q 605 453 606 512 Q 603 578 604 602 Q 610 638 596 656 C 581 682 538 682 544 653 Z" class="stroke4"/>
    <path d="M 288 557 Q 263 508 229 467 Q 204 434 221 395 Q 228 376 251 387 Q 306 423 312 492 Q 319 526 314 555 Q 310 564 303 566 Q 293 565 288 557 Z" class="stroke5"/>
    <path d="M 672 546 Q 721 506 783 447 Q 801 428 817 425 Q 826 424 833 435 Q 845 448 828 493 Q 815 533 742 557 Q 696 572 670 577 Q 660 581 659 569 Q 660 556 672 546 Z" class="stroke6"/>
    <path d="M 521 254 Q 590 260 868 261 Q 889 260 895 269 Q 901 282 883 297 Q 825 342 774 329 Q 680 313 531 292 L 465 284 Q 320 268 154 251 Q 132 250 148 231 Q 163 216 182 210 Q 204 203 221 208 Q 332 236 457 248 Q 458 249 460 248 L 521 254 Z" class="stroke7"/>
    <path d="M 517 242 Q 518 248 521 254 L 531 292 Q 531 293 532 296 Q 538 318 544 327 Q 551 334 546 346 Q 539 353 507 367 Q 471 385 454 378 Q 441 371 452 354 Q 470 323 465 284 L 460 248 Q 436 131 330 75 Q 284 47 164 7 Q 134 -3 167 -9 Q 269 -13 392 57 Q 407 67 422 81 Q 476 129 507 208 L 517 242 Z" class="stroke8"/>
    <path d="M 507 208 Q 685 -8 740 -19 Q 812 -31 921 -13 Q 942 -10 944 -5 Q 947 2 930 9 Q 734 84 703 102 Q 648 135 517 242 C 494 261 488 231 507 208 Z" class="stroke9"/>
    
    
    
    
    
    
    
    
    </g>
</svg>