<svg version="1.1" viewBox="0 0 1024 1024" xmlns="http://www.w3.org/2000/svg">
  
  <g transform="scale(1, -1) translate(0, -900)">
    <style type="text/css">
        .stroke1 {fill: #808080;}
        .stroke2 {fill: #808079;}
        .stroke3 {fill: #808078;}
        .stroke4 {fill: #808077;}
        .stroke5 {fill: #808076;}
        .stroke6 {fill: #808075;}
        .stroke7 {fill: #808074;}
        .stroke8 {fill: #808073;}
        .stroke9 {fill: #808072;}
        .stroke10 {fill: #808071;}
        .stroke11 {fill: #808070;}
        .stroke12 {fill: #808069;}
        .stroke13 {fill: #808068;}
        .stroke14 {fill: #808067;}
        .stroke15 {fill: #808066;}
        .stroke16 {fill: #808065;}
        .stroke17 {fill: #808064;}
        .stroke18 {fill: #808063;}
        .stroke19 {fill: #808062;}
        .stroke20 {fill: #808061;}
        text {
            font-family: Helvetica;
            font-size: 50px;
            fill: #808060;
            paint-order: stroke;
            stroke: #000000;
            stroke-width: 4px;
            stroke-linecap: butt;
            stroke-linejoin: miter;
            font-weight: 800;
        }
    </style>

    <path d="M 252 654 Q 279 632 308 603 Q 320 591 335 592 Q 345 592 349 605 Q 353 618 345 645 Q 341 664 310 678 Q 246 705 228 699 Q 224 695 225 683 Q 228 673 252 654 Z" class="stroke1"/>
    <path d="M 404 547 L 403 547 Q 228 451 191 442 Q 181 438 180 429 Q 181 417 191 412 Q 215 402 248 392 Q 258 391 266 401 Q 287 428 387 507 Q 396 514 403 522 C 424 544 431 560 404 547 Z" class="stroke2"/>
    <path d="M 403 522 Q 402 458 397 410 Q 398 385 405 367 Q 409 357 418 362 Q 436 377 437 447 Q 444 555 447 649 Q 451 721 457 751 Q 464 767 454 778 Q 441 791 416 803 Q 397 810 376 802 Q 366 795 378 781 Q 400 733 405 629 Q 405 592 404 547 L 403 522 Z" class="stroke3"/>
    <path d="M 548 590 Q 560 603 573 618 Q 586 634 603 655 L 620 678 Q 635 699 651 723 Q 667 753 683 767 Q 690 776 686 787 Q 683 797 660 816 Q 638 831 622 831 Q 607 830 614 811 Q 641 751 481 553 Q 474 546 471 540 Q 468 530 480 533 Q 487 534 537 578 L 548 590 Z" class="stroke4"/>
    <path d="M 603 655 Q 624 643 706 659 Q 728 665 737 655 Q 741 646 726 622 Q 678 514 549 394 Q 536 382 550 382 Q 581 388 658 449 Q 659 452 662 453 Q 722 511 785 605 Q 804 633 836 660 Q 851 670 846 680 Q 843 689 784 711 Q 765 721 747 707 Q 722 695 620 678 C 590 673 574 663 603 655 Z" class="stroke5"/>
    <path d="M 537 578 Q 540 569 588 520 Q 603 507 616 506 Q 626 505 633 520 Q 634 530 626 547 Q 617 563 595 572 Q 564 588 548 590 C 529 593 529 593 537 578 Z" class="stroke6"/>
    <path d="M 525 280 Q 594 286 871 287 Q 893 286 899 296 Q 905 309 887 324 Q 827 370 775 358 Q 681 342 534 320 L 471 312 Q 329 297 166 280 Q 144 279 160 259 Q 176 243 195 237 Q 219 230 236 235 Q 342 263 464 273 L 525 280 Z" class="stroke7"/>
    <path d="M 521 265 Q 522 272 525 280 L 534 320 Q 538 339 546 346 Q 555 359 545 370 Q 532 383 504 390 Q 482 400 463 394 Q 450 388 457 373 Q 470 355 471 312 L 464 273 Q 463 272 463 267 Q 436 129 271 48 Q 235 32 191 14 Q 175 4 195 3 Q 327 2 418 80 Q 473 126 512 235 L 521 265 Z" class="stroke8"/>
    <path d="M 512 235 Q 591 127 679 27 Q 703 0 746 -4 Q 824 -11 905 -1 Q 927 0 928 6 Q 932 13 915 20 Q 735 96 722 104 Q 626 167 521 265 C 499 285 494 259 512 235 Z" class="stroke9"/>
    
    
    
    
    
    
    
    
    </g>
</svg>