<svg version="1.1" viewBox="0 0 1024 1024" xmlns="http://www.w3.org/2000/svg">
  
  <g transform="scale(1, -1) translate(0, -900)">
    <style type="text/css">
        .stroke1 {fill: #808080;}
        .stroke2 {fill: #808079;}
        .stroke3 {fill: #808078;}
        .stroke4 {fill: #808077;}
        .stroke5 {fill: #808076;}
        .stroke6 {fill: #808075;}
        .stroke7 {fill: #808074;}
        .stroke8 {fill: #808073;}
        .stroke9 {fill: #808072;}
        .stroke10 {fill: #808071;}
        .stroke11 {fill: #808070;}
        .stroke12 {fill: #808069;}
        .stroke13 {fill: #808068;}
        .stroke14 {fill: #808067;}
        .stroke15 {fill: #808066;}
        .stroke16 {fill: #808065;}
        .stroke17 {fill: #808064;}
        .stroke18 {fill: #808063;}
        .stroke19 {fill: #808062;}
        .stroke20 {fill: #808061;}
        text {
            font-family: Helvetica;
            font-size: 50px;
            fill: #808060;
            paint-order: stroke;
            stroke: #000000;
            stroke-width: 4px;
            stroke-linecap: butt;
            stroke-linejoin: miter;
            font-weight: 800;
        }
    </style>

    <path d="M 309 476 Q 334 569 358 664 Q 368 710 387 736 Q 400 758 393 770 Q 380 789 333 817 Q 314 830 296 821 Q 283 814 293 797 Q 326 749 264 467 L 253 422 Q 250 413 249 403 Q 236 351 211 312 Q 202 288 224 271 Q 272 249 312 220 L 355 190 Q 388 166 429 130 Q 445 117 456 116 Q 465 117 470 128 Q 476 140 468 170 Q 459 203 382 238 L 336 258 Q 309 271 275 284 Q 256 293 256 311 Q 277 372 296 435 L 309 476 Z" class="stroke1"/>
    <path d="M 312 220 Q 249 138 161 86 Q 130 71 122 63 Q 118 56 129 53 Q 168 44 250 92 Q 316 131 355 190 L 382 238 Q 425 317 468 448 Q 477 466 482 477 Q 494 495 476 510 Q 436 547 420 549 Q 401 550 409 525 Q 412 513 413 498 L 410 470 Q 409 466 408 459 Q 389 354 336 258 L 312 220 Z" class="stroke2"/>
    <path d="M 413 498 Q 361 488 309 476 L 264 467 Q 203 457 140 444 Q 118 440 83 443 Q 70 443 68 434 Q 64 421 72 413 Q 91 395 121 374 Q 131 370 143 377 Q 218 422 253 422 L 296 435 Q 347 453 400 467 Q 404 468 410 470 C 439 479 442 504 413 498 Z" class="stroke3"/>
    <path d="M 710 228 Q 779 328 812 447 Q 822 490 853 520 Q 872 538 854 551 Q 830 566 801 572 Q 773 581 747 565 Q 719 555 667 539 Q 609 526 550 520 Q 531 521 527 515 Q 523 502 547 487 Q 575 468 641 490 Q 732 524 743 522 Q 759 522 759 501 Q 737 366 676 267 L 650 231 Q 590 156 458 77 Q 443 70 452 64 Q 458 61 481 71 Q 614 120 679 188 L 710 228 Z" class="stroke4"/>
    <path d="M 679 188 Q 764 64 804 56 Q 889 43 959 43 Q 996 43 994 53 Q 993 57 830 135 Q 770 168 710 228 L 676 267 Q 637 313 599 366 Q 571 408 537 412 Q 521 416 517 411 Q 514 405 527 393 Q 572 356 650 231 L 679 188 Z" class="stroke5"/>
    
    
    
    
    </g>
</svg>