<svg version="1.1" viewBox="0 0 1024 1024" xmlns="http://www.w3.org/2000/svg">
  
  <g transform="scale(1, -1) translate(0, -900)">
    <style type="text/css">
        .stroke1 {fill: #808080;}
        .stroke2 {fill: #808079;}
        .stroke3 {fill: #808078;}
        .stroke4 {fill: #808077;}
        .stroke5 {fill: #808076;}
        .stroke6 {fill: #808075;}
        .stroke7 {fill: #808074;}
        .stroke8 {fill: #808073;}
        .stroke9 {fill: #808072;}
        .stroke10 {fill: #808071;}
        .stroke11 {fill: #808070;}
        .stroke12 {fill: #808069;}
        .stroke13 {fill: #808068;}
        .stroke14 {fill: #808067;}
        .stroke15 {fill: #808066;}
        .stroke16 {fill: #808065;}
        .stroke17 {fill: #808064;}
        .stroke18 {fill: #808063;}
        .stroke19 {fill: #808062;}
        .stroke20 {fill: #808061;}
        text {
            font-family: Helvetica;
            font-size: 50px;
            fill: #808060;
            paint-order: stroke;
            stroke: #000000;
            stroke-width: 4px;
            stroke-linecap: butt;
            stroke-linejoin: miter;
            font-weight: 800;
        }
    </style>

    <path d="M 293 507 Q 318 592 339 678 Q 349 727 369 753 Q 382 775 375 789 Q 360 808 312 837 Q 291 850 274 841 Q 261 834 271 817 Q 307 763 245 498 L 233 451 Q 232 448 232 444 Q 220 396 198 360 Q 188 336 210 319 Q 256 294 296 261 L 332 231 Q 369 201 418 153 Q 434 137 444 136 Q 454 136 460 147 Q 467 159 461 191 Q 455 219 432 235 Q 410 251 364 276 L 321 299 Q 296 314 264 329 Q 242 339 245 360 Q 263 412 279 464 L 293 507 Z" class="stroke1"/>
    <path d="M 296 261 Q 233 200 206 180 Q 202 179 199 176 Q 172 160 137 140 Q 124 133 136 128 Q 220 121 329 228 Q 330 229 332 231 L 364 276 Q 400 327 419 393 Q 443 481 462 509 Q 472 525 458 537 Q 413 577 387 571 Q 374 567 378 552 Q 382 539 385 524 L 383 492 Q 370 380 321 299 L 296 261 Z" class="stroke2"/>
    <path d="M 385 524 Q 340 517 293 507 L 245 498 Q 188 491 129 480 Q 107 476 72 481 Q 59 481 56 472 Q 52 459 61 450 Q 80 431 111 408 Q 121 404 134 411 Q 180 436 233 451 L 279 464 Q 331 479 383 492 C 412 499 415 529 385 524 Z" class="stroke3"/>
    <path d="M 683 658 Q 830 691 835 696 Q 845 705 840 715 Q 831 728 798 736 Q 764 742 730 728 Q 690 715 647 703 Q 599 693 543 686 Q 501 679 531 660 Q 567 639 622 645 L 683 658 Z" class="stroke4"/>
    <path d="M 705 451 Q 801 467 933 468 Q 952 469 957 478 Q 961 490 945 502 Q 888 541 841 523 Q 787 510 706 492 L 647 481 Q 562 468 467 450 Q 448 447 463 431 Q 476 418 494 414 Q 515 410 530 415 Q 584 431 647 442 L 705 451 Z" class="stroke5"/>
    <path d="M 644 -11 Q 650 -39 657 -49 Q 663 -56 671 -54 Q 686 -45 695 20 Q 705 102 703 184 Q 700 245 705 451 L 706 492 Q 706 561 719 613 Q 723 632 707 643 Q 694 652 683 658 C 657 674 609 672 622 645 Q 647 600 648 516 Q 647 500 647 481 L 647 442 Q 641 19 644 -11 Z" class="stroke6"/>
    
    
    
    
    
    </g>
</svg>