<svg version="1.1" viewBox="0 0 1024 1024" xmlns="http://www.w3.org/2000/svg">
  
  <g transform="scale(1, -1) translate(0, -900)">
    <style type="text/css">
        .stroke1 {fill: #808080;}
        .stroke2 {fill: #808079;}
        .stroke3 {fill: #808078;}
        .stroke4 {fill: #808077;}
        .stroke5 {fill: #808076;}
        .stroke6 {fill: #808075;}
        .stroke7 {fill: #808074;}
        .stroke8 {fill: #808073;}
        .stroke9 {fill: #808072;}
        .stroke10 {fill: #808071;}
        .stroke11 {fill: #808070;}
        .stroke12 {fill: #808069;}
        .stroke13 {fill: #808068;}
        .stroke14 {fill: #808067;}
        .stroke15 {fill: #808066;}
        .stroke16 {fill: #808065;}
        .stroke17 {fill: #808064;}
        .stroke18 {fill: #808063;}
        .stroke19 {fill: #808062;}
        .stroke20 {fill: #808061;}
        text {
            font-family: Helvetica;
            font-size: 50px;
            fill: #808060;
            paint-order: stroke;
            stroke: #000000;
            stroke-width: 4px;
            stroke-linecap: butt;
            stroke-linejoin: miter;
            font-weight: 800;
        }
    </style>

    <path d="M 245 451 Q 270 547 293 644 Q 302 692 321 717 Q 333 739 326 751 Q 311 770 265 796 Q 244 809 228 800 Q 215 793 225 776 Q 261 724 201 442 L 191 397 Q 190 394 190 389 Q 178 338 155 299 Q 145 277 166 260 Q 209 236 245 205 L 279 176 Q 309 151 347 110 Q 363 95 373 93 Q 382 94 387 104 Q 394 114 389 146 Q 383 180 308 221 L 269 242 Q 247 255 218 269 Q 197 279 199 300 Q 217 355 233 410 L 245 451 Z" class="stroke1"/>
    <path d="M 245 205 Q 190 133 114 90 Q 99 80 85 70 Q 72 63 83 59 Q 96 58 129 69 Q 181 88 223 122 Q 257 147 279 176 L 308 221 Q 344 284 359 344 Q 380 437 398 466 Q 408 482 393 491 Q 350 527 327 520 Q 314 516 319 502 Q 326 487 327 469 L 326 440 Q 313 325 269 242 L 245 205 Z" class="stroke2"/>
    <path d="M 327 469 Q 287 462 245 451 L 201 442 Q 150 435 96 422 Q 77 418 46 421 Q 34 421 31 412 Q 28 400 36 392 Q 55 376 83 356 Q 93 352 104 359 Q 146 383 191 397 L 233 410 Q 278 426 326 440 C 355 448 357 474 327 469 Z" class="stroke3"/>
    <path d="M 629 671 Q 653 735 664 752 Q 670 759 667 769 Q 655 793 613 800 Q 591 801 581 798 Q 572 794 577 783 Q 607 698 503 510 Q 497 504 494 496 Q 461 441 375 332 Q 368 325 379 325 Q 439 341 539 488 Q 576 548 618 644 L 629 671 Z" class="stroke4"/>
    <path d="M 618 644 Q 696 527 797 402 Q 816 381 846 382 Q 952 381 985 386 Q 995 387 996 393 Q 997 397 983 406 Q 841 464 777 519 Q 707 583 629 671 C 609 693 601 669 618 644 Z" class="stroke5"/>
    <path d="M 576 391 Q 598 370 622 345 Q 634 332 649 332 Q 659 332 665 345 Q 669 358 662 387 Q 658 405 631 419 Q 567 443 552 439 Q 548 435 548 423 Q 551 413 576 391 Z" class="stroke6"/>
    <path d="M 472 242 Q 441 242 442 235 Q 435 219 462 206 Q 490 185 507 188 Q 522 188 543 201 Q 679 264 701 243 Q 708 230 694 211 Q 684 196 662 149 Q 625 77 609 65 Q 576 40 588 -11 Q 591 -30 600 -36 Q 609 -40 622 -30 Q 650 -12 729 164 Q 750 213 782 234 Q 791 241 792 251 Q 793 264 760 285 Q 726 307 710 308 Q 701 307 694 301 Q 598 259 472 242 Z" class="stroke7"/>
    
    
    
    
    
    
    </g>
</svg>