<svg version="1.1" viewBox="0 0 1024 1024" xmlns="http://www.w3.org/2000/svg">
  
  <g transform="scale(1, -1) translate(0, -900)">
    <style type="text/css">
        .stroke1 {fill: #808080;}
        .stroke2 {fill: #808079;}
        .stroke3 {fill: #808078;}
        .stroke4 {fill: #808077;}
        .stroke5 {fill: #808076;}
        .stroke6 {fill: #808075;}
        .stroke7 {fill: #808074;}
        .stroke8 {fill: #808073;}
        .stroke9 {fill: #808072;}
        .stroke10 {fill: #808071;}
        .stroke11 {fill: #808070;}
        .stroke12 {fill: #808069;}
        .stroke13 {fill: #808068;}
        .stroke14 {fill: #808067;}
        .stroke15 {fill: #808066;}
        .stroke16 {fill: #808065;}
        .stroke17 {fill: #808064;}
        .stroke18 {fill: #808063;}
        .stroke19 {fill: #808062;}
        .stroke20 {fill: #808061;}
        text {
            font-family: Helvetica;
            font-size: 50px;
            fill: #808060;
            paint-order: stroke;
            stroke: #000000;
            stroke-width: 4px;
            stroke-linecap: butt;
            stroke-linejoin: miter;
            font-weight: 800;
        }
    </style>

    <path d="M 295 487 Q 316 560 334 632 Q 344 678 363 704 Q 376 726 369 738 Q 356 757 309 785 Q 290 797 272 789 Q 259 782 269 765 Q 299 720 247 478 L 237 431 Q 209 338 195 316 Q 185 294 206 276 Q 257 248 298 211 L 333 182 Q 360 160 392 126 Q 408 111 417 109 Q 426 110 432 121 Q 439 131 433 162 Q 429 190 406 204 Q 390 214 363 230 L 323 252 Q 295 268 258 285 Q 239 295 240 315 Q 262 379 282 444 L 295 487 Z" class="stroke1"/>
    <path d="M 298 211 Q 250 151 156 83 Q 143 74 155 72 Q 168 71 202 84 Q 253 106 291 141 Q 315 160 333 182 L 363 230 Q 403 323 412 357 Q 412 391 433 455 Q 437 471 445 485 Q 455 503 439 511 Q 396 547 368 538 Q 355 534 361 519 Q 365 512 368 502 L 372 473 Q 372 352 323 252 L 298 211 Z" class="stroke2"/>
    <path d="M 368 502 Q 332 496 295 487 L 247 478 Q 187 469 124 457 Q 105 453 71 457 Q 58 457 55 448 Q 52 435 60 426 Q 81 407 111 385 Q 121 381 134 388 Q 191 421 237 431 L 282 444 Q 324 459 368 472 Q 369 473 372 473 C 401 481 398 507 368 502 Z" class="stroke3"/>
    <path d="M 556 639 Q 601 629 688 645 Q 850 681 855 685 Q 865 694 859 703 Q 852 716 820 724 Q 793 730 702 699 Q 611 678 550 672 Q 547 672 545 671 C 515 666 526 644 556 639 Z" class="stroke4"/>
    <path d="M 747 377 Q 771 420 792 490 Q 799 512 810 535 Q 817 545 810 553 Q 803 563 773 576 Q 751 585 742 582 Q 730 578 733 563 Q 746 499 709 409 L 688 369 Q 658 314 574 229 Q 567 222 574 219 Q 581 218 591 223 Q 640 248 680 288 Q 702 309 720 332 L 747 377 Z" class="stroke5"/>
    <path d="M 720 332 Q 760 286 804 230 Q 814 214 827 208 Q 834 207 841 214 Q 851 224 845 260 Q 839 299 747 377 L 709 409 Q 640 466 599 494 Q 592 498 590 489 Q 589 479 596 470 Q 639 425 688 369 L 720 332 Z" class="stroke6"/>
    <path d="M 545 671 Q 533 680 511 691 Q 492 703 483 695 Q 476 688 484 674 Q 520 599 494 229 Q 482 135 461 102 Q 451 87 460 66 Q 467 44 478 35 Q 488 28 506 40 Q 560 76 641 93 Q 735 111 916 110 Q 943 110 943 123 Q 943 139 912 160 Q 894 175 767 152 Q 626 139 564 125 Q 542 121 539 144 Q 546 328 550 562 Q 550 610 556 639 C 559 662 559 662 545 671 Z" class="stroke7"/>
    
    
    
    
    
    
    </g>
</svg>