<svg version="1.1" viewBox="0 0 1024 1024" xmlns="http://www.w3.org/2000/svg">
  
  <g transform="scale(1, -1) translate(0, -900)">
    <style type="text/css">
        .stroke1 {fill: #808080;}
        .stroke2 {fill: #808079;}
        .stroke3 {fill: #808078;}
        .stroke4 {fill: #808077;}
        .stroke5 {fill: #808076;}
        .stroke6 {fill: #808075;}
        .stroke7 {fill: #808074;}
        .stroke8 {fill: #808073;}
        .stroke9 {fill: #808072;}
        .stroke10 {fill: #808071;}
        .stroke11 {fill: #808070;}
        .stroke12 {fill: #808069;}
        .stroke13 {fill: #808068;}
        .stroke14 {fill: #808067;}
        .stroke15 {fill: #808066;}
        .stroke16 {fill: #808065;}
        .stroke17 {fill: #808064;}
        .stroke18 {fill: #808063;}
        .stroke19 {fill: #808062;}
        .stroke20 {fill: #808061;}
        text {
            font-family: Helvetica;
            font-size: 50px;
            fill: #808060;
            paint-order: stroke;
            stroke: #000000;
            stroke-width: 4px;
            stroke-linecap: butt;
            stroke-linejoin: miter;
            font-weight: 800;
        }
    </style>

    <path d="M 342 149 Q 366 127 395 95 Q 411 79 420 78 Q 429 78 435 89 Q 442 99 438 130 Q 432 163 373 197 L 330 221 Q 305 236 273 252 Q 254 262 255 284 Q 274 342 292 401 L 304 439 Q 328 527 348 616 Q 358 664 376 688 Q 389 710 382 723 Q 367 742 321 769 Q 300 781 284 772 Q 271 765 281 749 Q 315 698 258 430 L 249 389 Q 240 331 211 283 Q 201 262 233 236 Q 272 212 306 181 L 342 149 Z" class="stroke1"/>
    <path d="M 306 181 Q 248 112 160 56 Q 147 47 159 44 Q 237 38 339 146 Q 340 147 342 149 L 373 197 Q 410 273 420 311 Q 420 347 445 409 Q 449 422 457 434 Q 467 452 451 462 Q 405 499 379 491 Q 364 487 370 472 Q 374 463 377 453 L 380 426 L 380 424 Q 380 322 330 221 L 306 181 Z" class="stroke2"/>
    <path d="M 377 453 Q 340 447 304 439 L 258 430 Q 185 420 107 406 Q 85 402 52 407 Q 39 407 36 398 Q 33 386 41 377 Q 60 359 89 337 Q 99 333 111 340 Q 171 373 249 389 L 292 401 Q 325 411 361 420 Q 370 423 380 426 C 409 435 407 458 377 453 Z" class="stroke3"/>
    <path d="M 695 457 Q 731 464 912 489 Q 922 488 932 500 Q 933 513 910 524 Q 871 546 791 521 Q 704 502 699 500 L 647 490 Q 614 486 584 481 Q 536 477 485 470 Q 454 466 478 448 Q 508 423 555 431 Q 595 440 646 448 L 695 457 Z" class="stroke4"/>
    <path d="M 681 294 Q 688 378 695 457 L 699 500 Q 706 639 733 740 Q 737 752 715 769 Q 678 791 651 796 Q 633 800 624 791 Q 615 784 624 766 Q 651 723 650 694 Q 651 597 647 490 L 646 448 Q 642 370 634 284 C 631 254 679 264 681 294 Z" class="stroke5"/>
    <path d="M 547 271 Q 535 278 500 285 Q 487 289 483 284 Q 476 277 485 260 Q 515 191 530 81 Q 533 47 551 25 Q 570 1 575 17 Q 579 30 580 52 L 576 91 Q 560 202 556 238 C 553 268 552 268 547 271 Z" class="stroke6"/>
    <path d="M 817 113 Q 847 215 883 240 Q 901 259 885 279 Q 867 294 812 322 Q 793 329 769 321 Q 723 305 681 294 L 634 284 Q 591 277 547 271 C 517 267 526 234 556 238 Q 568 239 582 242 Q 667 257 749 271 Q 771 275 779 267 Q 797 248 764 125 C 756 96 808 84 817 113 Z" class="stroke7"/>
    <path d="M 580 52 Q 589 51 601 53 Q 673 68 825 78 Q 838 79 839 89 Q 839 96 817 113 L 764 125 Q 757 125 753 123 Q 653 101 576 91 C 546 87 550 53 580 52 Z" class="stroke8"/>
    
    
    
    
    
    
    
    </g>
</svg>