<svg version="1.1" viewBox="0 0 1024 1024" xmlns="http://www.w3.org/2000/svg">
  
  <g transform="scale(1, -1) translate(0, -900)">
    <style type="text/css">
        .stroke1 {fill: #808080;}
        .stroke2 {fill: #808079;}
        .stroke3 {fill: #808078;}
        .stroke4 {fill: #808077;}
        .stroke5 {fill: #808076;}
        .stroke6 {fill: #808075;}
        .stroke7 {fill: #808074;}
        .stroke8 {fill: #808073;}
        .stroke9 {fill: #808072;}
        .stroke10 {fill: #808071;}
        .stroke11 {fill: #808070;}
        .stroke12 {fill: #808069;}
        .stroke13 {fill: #808068;}
        .stroke14 {fill: #808067;}
        .stroke15 {fill: #808066;}
        .stroke16 {fill: #808065;}
        .stroke17 {fill: #808064;}
        .stroke18 {fill: #808063;}
        .stroke19 {fill: #808062;}
        .stroke20 {fill: #808061;}
        text {
            font-family: Helvetica;
            font-size: 50px;
            fill: #808060;
            paint-order: stroke;
            stroke: #000000;
            stroke-width: 4px;
            stroke-linecap: butt;
            stroke-linejoin: miter;
            font-weight: 800;
        }
    </style>

    <path d="M 311 157 Q 377 100 386 97 Q 395 97 401 108 Q 407 120 401 150 Q 392 184 344 206 L 298 228 Q 276 238 246 251 Q 227 260 227 280 Q 242 328 256 375 L 267 416 Q 294 515 315 616 Q 324 664 342 689 Q 354 711 346 724 Q 333 742 285 768 Q 264 780 248 771 Q 235 764 245 748 Q 282 693 224 407 L 214 362 Q 202 316 183 279 Q 173 257 195 239 Q 238 217 274 187 L 311 157 Z" class="stroke1"/>
    <path d="M 274 187 Q 211 115 125 60 Q 112 51 123 48 Q 208 42 308 153 Q 309 156 311 157 L 344 206 Q 343 207 344 207 Q 365 244 399 364 Q 405 392 420 418 Q 430 436 414 445 Q 372 484 343 477 Q 330 473 334 458 Q 340 446 342 432 L 342 405 Q 341 392 339 374 Q 335 320 298 228 L 274 187 Z" class="stroke2"/>
    <path d="M 342 432 Q 305 425 267 416 L 224 407 Q 164 397 103 384 Q 84 380 54 384 Q 41 383 39 374 Q 36 361 44 353 Q 63 335 94 315 Q 104 311 115 318 Q 173 355 214 362 L 256 375 Q 322 402 342 405 C 371 411 371 438 342 432 Z" class="stroke3"/>
    <path d="M 533 457 Q 537 476 525 488 Q 500 513 481 517 Q 468 520 463 515 Q 453 508 464 494 Q 492 442 478 294 Q 469 246 459 230 Q 446 208 455 186 Q 467 155 485 143 Q 495 136 508 155 Q 539 200 650 314 Q 666 330 667 338 Q 668 351 648 339 Q 537 264 528 267 Q 522 271 521 287 Q 525 423 533 457 Z" class="stroke4"/>
    <path d="M 575 601 Q 600 576 625 544 Q 638 529 655 528 Q 665 527 673 541 Q 679 556 673 588 Q 667 621 575 652 Q 559 656 552 655 Q 546 651 547 638 Q 550 626 575 601 Z" class="stroke5"/>
    <path d="M 774 284 Q 811 375 826 469 Q 841 574 856 603 Q 866 624 847 633 Q 792 672 764 659 Q 749 653 757 637 Q 796 568 756 393 Q 750 377 746 357 Q 692 195 552 97 Q 536 84 519 70 Q 504 60 518 57 Q 534 57 572 73 Q 636 104 682 153 Q 737 202 762 255 Q 763 258 764 260 L 774 284 Z" class="stroke6"/>
    <path d="M 764 260 Q 821 203 903 101 Q 918 80 932 75 Q 941 74 949 82 Q 962 95 953 139 Q 940 205 774 284 C 747 297 743 281 764 260 Z" class="stroke7"/>
    
    
    
    
    
    
    </g>
</svg>