<svg version="1.1" viewBox="0 0 1024 1024" xmlns="http://www.w3.org/2000/svg">
  
  <g transform="scale(1, -1) translate(0, -900)">
    <style type="text/css">
        .stroke1 {fill: #808080;}
        .stroke2 {fill: #808079;}
        .stroke3 {fill: #808078;}
        .stroke4 {fill: #808077;}
        .stroke5 {fill: #808076;}
        .stroke6 {fill: #808075;}
        .stroke7 {fill: #808074;}
        .stroke8 {fill: #808073;}
        .stroke9 {fill: #808072;}
        .stroke10 {fill: #808071;}
        .stroke11 {fill: #808070;}
        .stroke12 {fill: #808069;}
        .stroke13 {fill: #808068;}
        .stroke14 {fill: #808067;}
        .stroke15 {fill: #808066;}
        .stroke16 {fill: #808065;}
        .stroke17 {fill: #808064;}
        .stroke18 {fill: #808063;}
        .stroke19 {fill: #808062;}
        .stroke20 {fill: #808061;}
        text {
            font-family: Helvetica;
            font-size: 50px;
            fill: #808060;
            paint-order: stroke;
            stroke: #000000;
            stroke-width: 4px;
            stroke-linecap: butt;
            stroke-linejoin: miter;
            font-weight: 800;
        }
    </style>

    <path d="M 299 191 Q 384 115 389 113 Q 398 114 404 124 Q 411 134 405 166 Q 401 194 378 208 Q 360 221 324 240 L 284 261 Q 263 273 238 285 Q 217 295 219 316 Q 232 359 245 403 L 256 441 Q 281 537 303 636 Q 312 684 330 709 Q 342 731 334 744 Q 321 762 273 788 Q 252 800 236 791 Q 223 784 233 767 Q 269 716 213 435 L 204 393 Q 194 350 175 315 Q 165 293 186 276 Q 229 252 263 222 L 299 191 Z" class="stroke1"/>
    <path d="M 263 222 Q 211 138 117 86 Q 102 79 98 73 Q 94 67 105 65 Q 135 56 211 103 Q 262 139 299 191 L 324 240 Q 351 285 390 420 Q 399 436 402 447 Q 412 463 396 477 Q 359 510 344 511 Q 325 512 335 489 Q 339 473 339 455 L 335 426 Q 328 384 302 304 Q 295 283 284 261 L 263 222 Z" class="stroke2"/>
    <path d="M 339 455 Q 299 449 256 441 L 213 435 Q 155 428 96 419 Q 77 415 44 421 Q 32 421 29 412 Q 25 402 33 392 Q 51 374 78 353 Q 87 349 99 355 Q 154 383 204 393 L 245 403 Q 287 416 335 426 C 364 432 369 460 339 455 Z" class="stroke3"/>
    <path d="M 521 769 Q 511 775 478 780 Q 468 783 464 778 Q 460 772 467 758 Q 495 701 513 608 Q 517 580 533 562 Q 549 543 554 557 Q 557 567 557 582 L 554 608 Q 554 617 544 661 L 539 684 Q 532 723 529 741 C 525 767 525 767 521 769 Z" class="stroke4"/>
    <path d="M 701 602 Q 714 581 729 574 Q 738 567 752 586 Q 764 605 789 712 Q 796 739 816 760 Q 828 770 818 783 Q 805 796 768 819 Q 753 826 686 809 Q 683 809 682 808 Q 601 790 521 769 C 492 761 501 730 529 741 Q 560 757 704 783 Q 725 787 735 780 Q 747 773 743 756 Q 722 638 707 628 C 695 610 695 610 701 602 Z" class="stroke5"/>
    <path d="M 544 661 Q 565 668 674 687 Q 693 691 685 702 Q 675 714 654 716 Q 630 717 539 684 C 511 674 515 652 544 661 Z" class="stroke6"/>
    <path d="M 557 582 Q 564 581 574 583 Q 614 593 701 602 C 731 605 730 609 707 628 Q 704 631 700 633 Q 687 640 662 633 Q 601 617 554 608 C 525 602 527 584 557 582 Z" class="stroke7"/>
    <path d="M 469 499 Q 459 505 431 507 Q 421 508 418 505 Q 414 499 421 486 Q 446 443 464 369 Q 468 347 482 333 Q 498 315 501 329 Q 502 336 503 348 L 500 376 Q 485 442 481 469 C 477 495 477 495 469 499 Z" class="stroke8"/>
    <path d="M 786 385 Q 796 366 808 358 Q 817 351 832 368 Q 842 381 872 454 Q 882 481 903 502 Q 916 512 906 525 Q 893 541 857 566 Q 839 575 764 556 Q 752 556 585 522 Q 521 509 469 499 C 440 493 452 461 481 469 Q 514 479 555 489 L 575 494 Q 620 506 677 516 L 705 521 Q 801 543 826 526 Q 833 519 830 508 Q 811 435 803 424 Q 800 415 783 412 C 772 407 772 407 786 385 Z" class="stroke9"/>
    <path d="M 602 392 Q 602 393 603 396 Q 603 438 576 492 Q 575 493 575 494 C 562 521 548 518 555 489 Q 558 477 561 452 Q 564 409 584 389 C 598 374 598 374 602 392 Z" class="stroke10"/>
    <path d="M 691 410 Q 692 414 695 417 Q 705 436 716 459 Q 720 469 730 484 Q 740 493 733 500 Q 726 510 705 521 C 679 535 669 541 677 516 Q 686 497 664 404 C 657 375 679 382 691 410 Z" class="stroke11"/>
    <path d="M 503 348 Q 512 347 521 349 Q 605 368 786 385 C 813 388 806 393 783 412 Q 779 416 774 419 Q 759 426 733 420 Q 711 416 691 410 L 664 404 Q 631 398 602 392 L 584 389 Q 538 383 500 376 C 470 371 473 349 503 348 Z" class="stroke12"/>
    <path d="M 683 120 Q 722 169 757 241 Q 770 269 791 285 Q 810 298 798 313 Q 786 325 756 338 Q 734 347 707 334 Q 676 321 635 308 Q 592 295 522 285 Q 509 284 505 277 Q 501 270 519 263 Q 555 250 603 266 Q 676 293 690 292 Q 708 291 703 272 Q 682 200 645 150 L 619 121 Q 549 52 397 15 Q 384 12 394 3 Q 401 -1 447 1 Q 505 5 574 37 Q 617 56 651 87 L 683 120 Z" class="stroke13"/>
    <path d="M 651 87 Q 769 -31 804 -41 Q 885 -41 965 -25 Q 999 -18 995 -9 Q 994 -2 830 41 Q 764 60 683 120 L 645 150 Q 620 172 595 195 Q 558 229 524 228 Q 508 228 505 223 Q 504 216 519 207 Q 547 192 619 121 L 651 87 Z" class="stroke14"/>
    
    
    
    
    
    
    
    
    
    
    
    
    
    </g>
</svg>