<svg version="1.1" viewBox="0 0 1024 1024" xmlns="http://www.w3.org/2000/svg">
  
  <g transform="scale(1, -1) translate(0, -900)">
    <style type="text/css">
        .stroke1 {fill: #808080;}
        .stroke2 {fill: #808079;}
        .stroke3 {fill: #808078;}
        .stroke4 {fill: #808077;}
        .stroke5 {fill: #808076;}
        .stroke6 {fill: #808075;}
        .stroke7 {fill: #808074;}
        .stroke8 {fill: #808073;}
        .stroke9 {fill: #808072;}
        .stroke10 {fill: #808071;}
        .stroke11 {fill: #808070;}
        .stroke12 {fill: #808069;}
        .stroke13 {fill: #808068;}
        .stroke14 {fill: #808067;}
        .stroke15 {fill: #808066;}
        .stroke16 {fill: #808065;}
        .stroke17 {fill: #808064;}
        .stroke18 {fill: #808063;}
        .stroke19 {fill: #808062;}
        .stroke20 {fill: #808061;}
        text {
            font-family: Helvetica;
            font-size: 50px;
            fill: #808060;
            paint-order: stroke;
            stroke: #000000;
            stroke-width: 4px;
            stroke-linecap: butt;
            stroke-linejoin: miter;
            font-weight: 800;
        }
    </style>

    <path d="M 484 811 Q 518 787 554 758 Q 569 746 585 748 Q 597 749 601 764 Q 604 780 592 810 Q 579 843 475 860 Q 459 863 452 859 Q 448 855 450 841 Q 454 831 484 811 Z" class="stroke1"/>
    <path d="M 276 651 Q 264 678 252 689 Q 233 705 230 678 Q 230 642 188 591 Q 140 546 156 499 Q 157 487 163 475 Q 178 447 201 474 Q 222 501 238 543 Q 256 586 269 614 C 281 640 281 640 276 651 Z" class="stroke2"/>
    <path d="M 269 614 Q 297 601 353 616 Q 495 656 717 679 Q 769 685 788 681 Q 810 675 811 666 Q 811 662 763 583 Q 754 570 761 564 Q 768 560 786 571 Q 847 608 899 620 Q 939 632 940 641 Q 939 651 864 714 Q 840 736 751 720 Q 436 675 384 667 Q 330 660 276 651 C 246 646 240 621 269 614 Z" class="stroke3"/>
    <path d="M 538 417 Q 617 427 787 427 Q 806 428 812 436 Q 816 448 800 462 Q 746 499 710 491 Q 617 472 260 418 Q 239 417 255 399 Q 285 372 345 386 Q 412 404 489 411 L 538 417 Z" class="stroke4"/>
    <path d="M 478 53 Q 438 62 398 71 Q 386 74 387 66 Q 388 59 399 52 Q 481 -11 511 -50 Q 526 -66 541 -52 Q 575 -21 574 53 Q 568 122 567 301 Q 568 338 579 363 Q 588 382 571 395 Q 555 408 538 417 C 512 432 476 438 489 411 Q 516 357 515 322 Q 521 166 514 85 Q 513 64 501 56 Q 492 49 478 53 Z" class="stroke5"/>
    
    
    
    
    </g>
</svg>