<svg version="1.1" viewBox="0 0 1024 1024" xmlns="http://www.w3.org/2000/svg">
  
  <g transform="scale(1, -1) translate(0, -900)">
    <style type="text/css">
        .stroke1 {fill: #808080;}
        .stroke2 {fill: #808079;}
        .stroke3 {fill: #808078;}
        .stroke4 {fill: #808077;}
        .stroke5 {fill: #808076;}
        .stroke6 {fill: #808075;}
        .stroke7 {fill: #808074;}
        .stroke8 {fill: #808073;}
        .stroke9 {fill: #808072;}
        .stroke10 {fill: #808071;}
        .stroke11 {fill: #808070;}
        .stroke12 {fill: #808069;}
        .stroke13 {fill: #808068;}
        .stroke14 {fill: #808067;}
        .stroke15 {fill: #808066;}
        .stroke16 {fill: #808065;}
        .stroke17 {fill: #808064;}
        .stroke18 {fill: #808063;}
        .stroke19 {fill: #808062;}
        .stroke20 {fill: #808061;}
        text {
            font-family: Helvetica;
            font-size: 50px;
            fill: #808060;
            paint-order: stroke;
            stroke: #000000;
            stroke-width: 4px;
            stroke-linecap: butt;
            stroke-linejoin: miter;
            font-weight: 800;
        }
    </style>

    <path d="M 455 796 Q 512 736 546 723 Q 564 720 574 737 Q 581 752 577 771 Q 562 817 468 841 Q 449 847 437 841 Q 430 840 434 825 Q 435 812 455 796 Z" class="stroke1"/>
    <path d="M 278 632 Q 268 657 257 665 Q 239 681 235 654 Q 239 623 182 555 Q 140 522 167 455 Q 180 427 203 454 Q 225 481 241 521 Q 262 572 277 601 C 285 616 285 616 278 632 Z" class="stroke2"/>
    <path d="M 277 601 Q 301 588 340 596 Q 403 617 674 663 Q 729 670 746 667 Q 761 657 758 650 Q 758 647 722 568 Q 715 553 721 549 Q 730 545 748 557 Q 809 597 860 609 Q 900 622 901 631 Q 900 641 821 700 Q 794 719 692 698 Q 641 692 383 648 Q 331 639 278 632 C 248 628 248 610 277 601 Z" class="stroke3"/>
    <path d="M 255 313 Q 286 344 313 378 L 323 394 Q 344 433 385 494 Q 395 506 381 519 Q 345 549 319 546 Q 309 545 310 531 Q 323 438 221 323 Q 191 293 173 271 Q 166 258 179 261 L 235 294 L 255 313 Z" class="stroke4"/>
    <path d="M 313 378 Q 323 368 353 373 Q 393 382 396 376 Q 402 361 382 309 Q 366 251 305 173 Q 247 88 148 8 Q 126 -7 146 -5 Q 221 -1 324 124 Q 388 203 438 306 Q 460 355 477 371 Q 489 380 483 391 Q 479 401 429 421 Q 417 425 397 416 Q 375 404 323 394 C 294 388 289 387 313 378 Z" class="stroke5"/>
    <path d="M 235 294 Q 250 279 285 236 Q 294 226 305 224 Q 312 224 317 233 Q 321 243 319 265 Q 315 290 255 313 C 227 324 214 315 235 294 Z" class="stroke6"/>
    <path d="M 565 398 Q 634 423 685 433 Q 697 434 699 431 Q 706 422 703 396 Q 699 326 683 293 Q 667 265 641 268 Q 619 274 598 281 Q 576 288 591 266 Q 631 229 649 200 Q 662 184 677 196 Q 722 224 749 337 Q 758 409 777 431 Q 787 441 782 451 Q 775 461 729 479 Q 711 486 695 474 Q 668 453 553 428 C 524 421 537 388 565 398 Z" class="stroke7"/>
    <path d="M 940 106 Q 924 131 898 214 Q 897 230 889 234 Q 882 237 880 219 Q 862 128 848 99 Q 812 53 689 61 Q 643 62 605 79 Q 571 95 563 116 Q 530 179 565 398 C 568 417 568 417 553 428 Q 543 440 522 447 Q 509 451 501 446 Q 494 442 500 424 Q 513 387 510 349 Q 498 151 515 97 Q 521 70 545 48 Q 633 -22 819 11 Q 832 14 847 18 Q 892 31 936 62 Q 955 80 940 106 Z" class="stroke8"/>
    
    
    
    
    
    
    
    </g>
</svg>