<svg version="1.1" viewBox="0 0 1024 1024" xmlns="http://www.w3.org/2000/svg">
  
  <g transform="scale(1, -1) translate(0, -900)">
    <style type="text/css">
        .stroke1 {fill: #808080;}
        .stroke2 {fill: #808079;}
        .stroke3 {fill: #808078;}
        .stroke4 {fill: #808077;}
        .stroke5 {fill: #808076;}
        .stroke6 {fill: #808075;}
        .stroke7 {fill: #808074;}
        .stroke8 {fill: #808073;}
        .stroke9 {fill: #808072;}
        .stroke10 {fill: #808071;}
        .stroke11 {fill: #808070;}
        .stroke12 {fill: #808069;}
        .stroke13 {fill: #808068;}
        .stroke14 {fill: #808067;}
        .stroke15 {fill: #808066;}
        .stroke16 {fill: #808065;}
        .stroke17 {fill: #808064;}
        .stroke18 {fill: #808063;}
        .stroke19 {fill: #808062;}
        .stroke20 {fill: #808061;}
        text {
            font-family: Helvetica;
            font-size: 50px;
            fill: #808060;
            paint-order: stroke;
            stroke: #000000;
            stroke-width: 4px;
            stroke-linecap: butt;
            stroke-linejoin: miter;
            font-weight: 800;
        }
    </style>

    <path d="M 491 796 Q 510 766 537 753 Q 549 750 556 761 Q 560 771 559 784 Q 555 802 541 812 Q 507 833 489 827 Q 483 828 481 826 Q 477 825 478 816 Q 479 807 491 796 Z" class="stroke1"/>
    <path d="M 666 843 Q 654 825 610 775 Q 603 762 615 764 Q 639 776 696 807 Q 711 819 730 825 Q 746 832 739 846 Q 729 859 710 871 Q 694 883 683 881 Q 673 881 676 870 Q 677 857 666 843 Z" class="stroke2"/>
    <path d="M 576 712 Q 639 730 821 731 Q 836 732 839 738 Q 843 748 830 757 Q 784 788 738 772 Q 654 756 421 717 Q 405 716 417 702 Q 427 692 441 689 Q 457 685 469 689 Q 503 699 543 707 L 576 712 Z" class="stroke3"/>
    <path d="M 541 638 Q 548 644 555 652 Q 574 667 583 674 Q 595 681 591 689 Q 587 699 576 712 C 557 735 544 737 543 707 Q 543 692 529 658 Q 520 645 517 635 C 508 609 519 618 541 638 Z" class="stroke4"/>
    <path d="M 489 632 Q 483 636 476 638 Q 469 641 460 637 Q 456 634 458 628 Q 458 627 460 623 Q 481 602 474 477 Q 467 435 493 403 Q 500 394 508 404 Q 512 410 514 416 L 516 439 Q 516 463 515 486 L 514 509 Q 513 534 513 551 L 512 572 Q 512 593 512 595 Q 513 604 512 609 C 511 620 511 620 489 632 Z" class="stroke5"/>
    <path d="M 702 430 Q 703 424 708 418 Q 718 394 726 395 Q 738 396 751 422 Q 760 435 760 479 Q 751 591 773 617 Q 782 630 775 638 Q 753 659 713 676 Q 700 680 681 673 Q 656 664 541 638 L 517 635 Q 504 635 489 632 C 459 628 483 602 512 609 Q 602 630 668 641 Q 690 645 698 633 Q 707 623 707 584 Q 708 475 703 454 Q 702 453 702 452 C 699 436 699 436 702 430 Z" class="stroke6"/>
    <path d="M 513 551 Q 517 551 522 551 Q 595 561 649 566 Q 667 567 660 578 Q 653 590 633 594 Q 617 597 512 572 C 483 565 483 551 513 551 Z" class="stroke7"/>
    <path d="M 515 486 Q 516 486 520 486 Q 599 496 656 502 Q 675 503 668 514 Q 661 526 641 530 Q 629 533 514 509 C 485 503 485 486 515 486 Z" class="stroke8"/>
    <path d="M 514 416 Q 517 416 526 416 Q 626 426 699 430 Q 700 431 702 430 C 732 431 728 437 702 452 Q 696 456 686 460 Q 671 463 516 439 C 486 434 484 416 514 416 Z" class="stroke9"/>
    <path d="M 281 779 Q 300 763 320 742 Q 333 730 347 732 Q 357 732 361 745 Q 365 758 356 785 Q 352 800 327 810 Q 264 828 256 823 Q 252 819 253 807 Q 257 797 281 779 Z" class="stroke10"/>
    <path d="M 327 413 Q 336 420 338 434 Q 342 462 306 505 Q 278 541 346 601 Q 365 614 351 629 Q 335 642 308 656 Q 292 668 277 656 Q 255 641 225 633 Q 186 620 174 622 Q 168 623 166 620 Q 165 616 171 611 Q 198 596 264 613 Q 273 614 279 604 Q 291 591 277 571 Q 267 559 259 540 Q 255 524 290 469 Q 308 432 309 415 Q 308 414 308 413 C 309 391 309 391 327 413 Z" class="stroke11"/>
    <path d="M 308 413 Q 298 414 291 413 Q 216 409 171 428 Q 156 434 156 416 Q 149 410 193 375 Q 206 362 241 368 Q 337 389 627 320 Q 664 314 706 306 Q 773 290 821 317 Q 864 333 914 354 Q 918 355 919 363 Q 918 369 910 369 Q 807 369 715 367 Q 552 370 452 393 Q 376 411 327 413 L 308 413 Z" class="stroke12"/>
    <path d="M 638 209 Q 692 212 758 210 Q 815 207 822 216 Q 826 226 813 240 Q 762 279 701 262 Q 676 258 647 252 L 586 243 Q 558 242 527 236 Q 412 223 275 208 Q 256 207 270 191 Q 283 178 299 173 Q 318 169 332 172 Q 458 202 588 207 L 638 209 Z" class="stroke13"/>
    <path d="M 588 207 Q 592 32 575 18 Q 568 12 494 27 Q 482 30 483 22 Q 484 16 494 9 Q 561 -49 583 -83 Q 596 -99 611 -86 Q 648 -52 642 42 Q 636 195 638 209 L 647 252 Q 647 255 649 257 Q 658 275 642 287 Q 617 308 589 318 Q 571 324 564 317 Q 558 311 568 296 Q 581 271 586 243 L 588 207 Z" class="stroke14"/>
    <path d="M 407 115 Q 420 99 436 77 Q 446 64 461 62 Q 471 61 477 73 Q 483 86 478 114 Q 475 129 454 141 Q 400 166 388 163 Q 384 160 383 148 Q 384 138 407 115 Z" class="stroke15"/>
    
    
    
    
    
    
    
    
    
    
    
    
    
    
    </g>
</svg>