<svg version="1.1" viewBox="0 0 1024 1024" xmlns="http://www.w3.org/2000/svg">
  
  <g transform="scale(1, -1) translate(0, -900)">
    <style type="text/css">
        .stroke1 {fill: #808080;}
        .stroke2 {fill: #808079;}
        .stroke3 {fill: #808078;}
        .stroke4 {fill: #808077;}
        .stroke5 {fill: #808076;}
        .stroke6 {fill: #808075;}
        .stroke7 {fill: #808074;}
        .stroke8 {fill: #808073;}
        .stroke9 {fill: #808072;}
        .stroke10 {fill: #808071;}
        .stroke11 {fill: #808070;}
        .stroke12 {fill: #808069;}
        .stroke13 {fill: #808068;}
        .stroke14 {fill: #808067;}
        .stroke15 {fill: #808066;}
        .stroke16 {fill: #808065;}
        .stroke17 {fill: #808064;}
        .stroke18 {fill: #808063;}
        .stroke19 {fill: #808062;}
        .stroke20 {fill: #808061;}
        text {
            font-family: Helvetica;
            font-size: 50px;
            fill: #808060;
            paint-order: stroke;
            stroke: #000000;
            stroke-width: 4px;
            stroke-linecap: butt;
            stroke-linejoin: miter;
            font-weight: 800;
        }
    </style>

    <path d="M 462 786 Q 483 752 484 583 Q 483 535 477 514 Q 476 504 493 463 Q 503 447 517 455 Q 532 468 528 547 Q 528 701 555 750 Q 561 760 550 773 Q 498 815 469 805 Q 456 801 462 786 Z" class="stroke1"/>
    <path d="M 320 636 Q 289 591 251 554 Q 223 527 234 484 Q 238 463 264 472 Q 324 502 336 569 Q 348 603 345 631 Q 342 641 336 643 Q 326 643 320 636 Z" class="stroke2"/>
    <path d="M 651 656 Q 709 610 778 541 Q 796 520 812 517 Q 822 516 829 527 Q 842 542 826 587 Q 808 647 651 689 Q 641 695 640 681 Q 640 666 651 656 Z" class="stroke3"/>
    <path d="M 519 316 Q 597 331 797 350 Q 809 347 819 362 Q 820 375 796 388 Q 757 412 692 395 Q 578 370 528 360 L 454 346 Q 439 346 198 320 Q 165 317 190 297 Q 227 267 256 272 Q 346 288 451 304 L 519 316 Z" class="stroke4"/>
    <path d="M 451 304 Q 433 163 333 92 Q 293 58 186 12 Q 158 -1 191 -3 Q 210 -4 252 8 Q 304 20 350 43 Q 392 62 425 102 Q 477 157 508 268 L 517 307 Q 518 311 519 316 L 528 360 Q 532 379 538 389 Q 545 396 539 409 Q 532 418 499 430 Q 462 449 444 442 Q 431 435 442 417 Q 452 392 454 346 L 451 304 Z" class="stroke5"/>
    <path d="M 508 268 Q 532 231 602 137 Q 684 28 745 -34 Q 773 -65 800 -63 Q 876 -53 943 -45 Q 971 -42 971 -35 Q 972 -28 940 -13 Q 780 50 732 86 Q 624 176 517 307 C 498 330 491 293 508 268 Z" class="stroke6"/>
    
    
    
    
    
    </g>
</svg>