<svg version="1.1" viewBox="0 0 1024 1024" xmlns="http://www.w3.org/2000/svg">
  
  <g transform="scale(1, -1) translate(0, -900)">
    <style type="text/css">
        .stroke1 {fill: #808080;}
        .stroke2 {fill: #808079;}
        .stroke3 {fill: #808078;}
        .stroke4 {fill: #808077;}
        .stroke5 {fill: #808076;}
        .stroke6 {fill: #808075;}
        .stroke7 {fill: #808074;}
        .stroke8 {fill: #808073;}
        .stroke9 {fill: #808072;}
        .stroke10 {fill: #808071;}
        .stroke11 {fill: #808070;}
        .stroke12 {fill: #808069;}
        .stroke13 {fill: #808068;}
        .stroke14 {fill: #808067;}
        .stroke15 {fill: #808066;}
        .stroke16 {fill: #808065;}
        .stroke17 {fill: #808064;}
        .stroke18 {fill: #808063;}
        .stroke19 {fill: #808062;}
        .stroke20 {fill: #808061;}
        text {
            font-family: Helvetica;
            font-size: 50px;
            fill: #808060;
            paint-order: stroke;
            stroke: #000000;
            stroke-width: 4px;
            stroke-linecap: butt;
            stroke-linejoin: miter;
            font-weight: 800;
        }
    </style>

    <path d="M 470 533 Q 704 576 717 585 Q 727 594 723 603 Q 716 616 685 625 Q 652 632 620 622 Q 550 600 479 583 L 422 571 Q 337 558 240 551 Q 200 547 228 527 Q 270 503 348 514 Q 378 520 413 524 L 470 533 Z" class="stroke1"/>
    <path d="M 413 524 Q 386 407 374 375 Q 304 207 173 102 Q 122 68 114 54 Q 111 47 125 46 Q 143 45 167 58 Q 236 95 278 134 Q 369 215 420 344 Q 453 449 470 533 L 479 583 Q 497 706 511 764 Q 520 786 498 799 Q 447 830 431 830 Q 409 829 423 802 Q 448 744 422 571 L 413 524 Z" class="stroke2"/>
    <path d="M 958 108 Q 933 157 910 245 Q 906 261 898 267 Q 888 271 887 248 Q 884 139 870 116 Q 840 82 705 74 Q 632 74 600 86 Q 572 99 566 117 Q 553 154 556 248 Q 565 351 586 399 Q 601 432 580 451 Q 526 494 509 490 Q 493 484 500 466 Q 521 423 513 363 Q 498 122 529 79 Q 559 37 646 27 Q 710 18 813 25 Q 906 32 941 52 Q 975 73 958 108 Z" class="stroke3"/>
    <path d="M 700 716 Q 728 692 757 663 Q 772 650 788 650 Q 800 651 805 665 Q 809 680 800 711 Q 794 732 762 746 Q 687 774 672 767 Q 666 763 668 749 Q 672 739 700 716 Z" class="stroke4"/>
    
    
    
    </g>
</svg>