<svg version="1.1" viewBox="0 0 1024 1024" xmlns="http://www.w3.org/2000/svg">
  
  <g transform="scale(1, -1) translate(0, -900)">
    <style type="text/css">
        .stroke1 {fill: #808080;}
        .stroke2 {fill: #808079;}
        .stroke3 {fill: #808078;}
        .stroke4 {fill: #808077;}
        .stroke5 {fill: #808076;}
        .stroke6 {fill: #808075;}
        .stroke7 {fill: #808074;}
        .stroke8 {fill: #808073;}
        .stroke9 {fill: #808072;}
        .stroke10 {fill: #808071;}
        .stroke11 {fill: #808070;}
        .stroke12 {fill: #808069;}
        .stroke13 {fill: #808068;}
        .stroke14 {fill: #808067;}
        .stroke15 {fill: #808066;}
        .stroke16 {fill: #808065;}
        .stroke17 {fill: #808064;}
        .stroke18 {fill: #808063;}
        .stroke19 {fill: #808062;}
        .stroke20 {fill: #808061;}
        text {
            font-family: Helvetica;
            font-size: 50px;
            fill: #808060;
            paint-order: stroke;
            stroke: #000000;
            stroke-width: 4px;
            stroke-linecap: butt;
            stroke-linejoin: miter;
            font-weight: 800;
        }
    </style>

    <path d="M 293 589 Q 333 602 379 614 Q 419 627 425 633 Q 432 640 428 649 Q 421 659 391 665 Q 364 668 298 638 L 243 619 Q 240 619 239 618 Q 184 600 118 589 Q 84 580 110 566 Q 152 548 233 571 Q 234 572 238 572 L 293 589 Z" class="stroke1"/>
    <path d="M 238 572 Q 204 326 113 170 Q 106 161 100 149 Q 75 101 47 59 Q 41 52 40 46 Q 37 36 48 38 Q 84 44 170 182 Q 188 215 206 252 Q 270 403 293 589 L 298 638 Q 298 693 314 768 Q 323 783 316 796 Q 298 812 267 827 Q 248 837 234 833 Q 222 826 229 811 Q 253 775 249 712 Q 248 691 243 619 L 238 572 Z" class="stroke2"/>
    <path d="M 327 442 Q 303 178 324 105 Q 328 71 364 43 Q 476 -32 729 -6 Q 774 0 818 11 Q 888 30 959 71 Q 977 81 967 105 Q 957 135 950 222 Q 951 237 945 241 Q 941 245 934 229 Q 900 139 879 112 Q 851 81 771 60 Q 689 38 590 40 Q 506 41 442 65 Q 384 90 372 123 Q 333 208 384 489 Q 390 519 342 539 Q 329 543 321 539 Q 314 535 319 517 Q 331 478 327 442 Z" class="stroke3"/>
    <path d="M 595 740 Q 667 762 669 764 Q 673 771 671 776 Q 665 783 644 787 Q 631 788 552 761 Q 522 752 487 747 Q 486 747 486 746 C 457 737 466 728 496 725 Q 509 722 564 732 L 595 740 Z" class="stroke4"/>
    <path d="M 596 662 Q 606 726 607 727 Q 601 734 595 740 C 574 761 565 762 564 732 L 562 648 C 561 618 591 632 596 662 Z" class="stroke5"/>
    <path d="M 635 561 Q 656 606 677 615 Q 687 627 678 640 Q 668 649 632 666 Q 623 670 596 662 L 562 648 Q 555 647 551 645 Q 523 638 492 631 C 463 624 462 603 492 608 Q 493 608 601 629 Q 611 630 615 627 Q 619 623 617 613 Q 610 588 602 566 C 592 538 622 534 635 561 Z" class="stroke6"/>
    <path d="M 584 529 Q 609 533 644 538 Q 651 539 652 545 Q 652 551 635 561 L 602 566 Q 598 566 595 564 Q 537 546 491 537 C 462 531 461 514 491 517 Q 492 517 563 526 L 584 529 Z" class="stroke7"/>
    <path d="M 591 458 Q 595 476 599 491 Q 599 494 600 496 Q 604 505 601 512 Q 594 522 584 529 C 560 547 548 552 563 526 Q 564 525 565 522 L 564 452 C 564 422 584 429 591 458 Z" class="stroke8"/>
    <path d="M 486 746 Q 479 753 464 760 Q 451 767 444 762 Q 440 758 445 747 Q 472 702 455 473 Q 454 446 439 421 Q 433 411 440 397 Q 446 384 453 377 Q 460 373 471 381 Q 519 420 663 436 Q 679 437 679 445 Q 678 455 657 467 Q 645 476 591 458 L 564 452 Q 536 449 501 437 Q 497 436 494 436 Q 490 437 490 446 Q 490 480 491 517 L 491 537 Q 492 571 492 608 L 492 631 Q 493 656 493 681 Q 493 709 496 725 C 498 738 498 738 486 746 Z" class="stroke9"/>
    <path d="M 748 649 Q 764 688 782 740 Q 788 765 796 779 Q 800 788 794 797 Q 790 804 765 814 Q 743 821 731 817 Q 718 813 728 799 Q 749 775 723 677 Q 711 631 690 578 Q 686 569 685 565 Q 685 556 694 561 Q 706 568 738 627 L 748 649 Z" class="stroke10"/>
    <path d="M 738 627 Q 780 615 831 631 Q 861 640 894 648 Q 910 652 913 656 Q 920 663 916 670 Q 909 680 883 683 Q 862 686 793 659 Q 772 655 748 649 C 719 642 709 635 738 627 Z" class="stroke11"/>
    <path d="M 759 512 Q 784 488 810 461 Q 820 451 833 451 Q 840 451 845 461 Q 849 471 844 495 Q 837 525 757 549 Q 745 552 740 550 Q 736 547 737 538 Q 738 529 759 512 Z" class="stroke12"/>
    <path d="M 508 348 Q 496 352 475 355 Q 465 358 462 353 Q 458 349 464 336 Q 464 335 467 331 Q 489 288 505 217 Q 506 207 510 198 C 521 170 547 170 544 200 Q 543 210 541 225 Q 528 291 523 317 C 518 345 518 345 508 348 Z" class="stroke13"/>
    <path d="M 789 233 Q 811 308 833 338 Q 842 347 838 356 Q 834 369 786 391 Q 773 397 762 393 Q 648 368 508 348 C 478 344 495 307 523 317 Q 523 318 526 319 Q 551 326 579 330 L 597 334 Q 631 343 667 349 L 696 353 Q 742 368 762 356 Q 771 347 744 225 C 738 196 780 204 789 233 Z" class="stroke14"/>
    <path d="M 628 207 Q 631 240 606 317 Q 605 327 597 334 C 577 354 577 354 579 330 Q 589 222 606 205 C 625 182 626 180 628 207 Z" class="stroke15"/>
    <path d="M 690 217 Q 720 334 720 335 Q 717 339 714 342 Q 704 349 696 353 C 670 367 660 372 667 349 Q 667 348 668 345 Q 680 324 664 213 C 660 183 683 188 690 217 Z" class="stroke16"/>
    <path d="M 510 198 Q 461 197 406 193 Q 381 192 398 175 Q 428 150 452 154 Q 606 176 877 196 Q 886 193 895 205 Q 896 215 877 226 Q 858 245 825 240 Q 806 237 789 233 L 744 225 Q 716 222 690 217 L 664 213 Q 645 212 628 207 L 606 205 Q 573 204 544 200 L 510 198 Z" class="stroke17"/>
    
    
    
    
    
    
    
    
    
    
    
    
    
    
    
    
    </g>
</svg>