<svg version="1.1" viewBox="0 0 1024 1024" xmlns="http://www.w3.org/2000/svg">
  
  <g transform="scale(1, -1) translate(0, -900)">
    <style type="text/css">
        .stroke1 {fill: #808080;}
        .stroke2 {fill: #808079;}
        .stroke3 {fill: #808078;}
        .stroke4 {fill: #808077;}
        .stroke5 {fill: #808076;}
        .stroke6 {fill: #808075;}
        .stroke7 {fill: #808074;}
        .stroke8 {fill: #808073;}
        .stroke9 {fill: #808072;}
        .stroke10 {fill: #808071;}
        .stroke11 {fill: #808070;}
        .stroke12 {fill: #808069;}
        .stroke13 {fill: #808068;}
        .stroke14 {fill: #808067;}
        .stroke15 {fill: #808066;}
        .stroke16 {fill: #808065;}
        .stroke17 {fill: #808064;}
        .stroke18 {fill: #808063;}
        .stroke19 {fill: #808062;}
        .stroke20 {fill: #808061;}
        text {
            font-family: Helvetica;
            font-size: 50px;
            fill: #808060;
            paint-order: stroke;
            stroke: #000000;
            stroke-width: 4px;
            stroke-linecap: butt;
            stroke-linejoin: miter;
            font-weight: 800;
        }
    </style>

    <path d="M 365 728 Q 392 671 417 653 Q 423 651 429 651 Q 447 653 451 682 Q 449 721 384 760 Q 370 768 361 766 Q 359 766 357 763 Q 347 751 365 728 Z" class="stroke1"/>
    <path d="M 601 805 Q 605 791 594 768 Q 586 751 531 661 Q 525 645 539 649 L 640 729 Q 656 747 679 760 Q 698 771 686 788 Q 674 799 656 808 Q 623 824 608 821 Q 595 817 601 805 Z" class="stroke2"/>
    <path d="M 488 549 L 500 551 L 691 590 Q 735 602 742 608 Q 751 613 747 623 Q 739 633 713 639 Q 706 641 685 637 L 509 597 L 272 553 Q 267 552 263 551 Q 241 544 263 531 Q 267 529 272 527 Q 316 510 391 529 Q 434 539 441 539 L 443 539 L 488 549 Z" class="stroke3"/>
    <path d="M 504 343 Q 531 346 574 354 Q 657 369 678 370 C 708 373 724 407 694 406 Q 603 406 509 378 L 459 370 Q 427 363 384 354 Q 296 337 291 335 L 287 335 Q 275 333 280 351 Q 295 435 288 449 L 286 450 Q 253 488 235 484 Q 232 482 231 481 Q 227 477 233 457 Q 245 412 237 377 Q 234 357 227 341 Q 221 331 206 312 Q 198 301 203 292 Q 206 287 210 282 Q 233 255 249 267 Q 272 288 455 331 L 504 343 Z" class="stroke4"/>
    <path d="M 678 370 Q 676 367 675 359 Q 672 326 684 298 Q 691 282 704 292 Q 731 313 744 394 Q 764 465 777 481 Q 788 494 779 510 Q 760 527 733 549 Q 721 558 710 553 Q 702 549 702 536 Q 721 491 694 406 L 678 370 Z" class="stroke5"/>
    <path d="M 308 90 Q 367 127 404 163 Q 492 242 504 343 L 509 378 Q 519 502 521 512 Q 523 521 519 529 Q 514 539 488 549 C 461 561 430 566 443 539 L 445 537 Q 465 503 459 370 L 455 331 Q 451 314 445 298 Q 425 247 370 189 L 280 102 Q 280 101 278 99 Q 265 86 275 80 Q 281 76 290 80 L 308 90 Z" class="stroke6"/>
    
    
    
    
    
    </g>
</svg>