<svg version="1.1" viewBox="0 0 1024 1024" xmlns="http://www.w3.org/2000/svg">
  
  <g transform="scale(1, -1) translate(0, -900)">
    <style type="text/css">
        .stroke1 {fill: #808080;}
        .stroke2 {fill: #808079;}
        .stroke3 {fill: #808078;}
        .stroke4 {fill: #808077;}
        .stroke5 {fill: #808076;}
        .stroke6 {fill: #808075;}
        .stroke7 {fill: #808074;}
        .stroke8 {fill: #808073;}
        .stroke9 {fill: #808072;}
        .stroke10 {fill: #808071;}
        .stroke11 {fill: #808070;}
        .stroke12 {fill: #808069;}
        .stroke13 {fill: #808068;}
        .stroke14 {fill: #808067;}
        .stroke15 {fill: #808066;}
        .stroke16 {fill: #808065;}
        .stroke17 {fill: #808064;}
        .stroke18 {fill: #808063;}
        .stroke19 {fill: #808062;}
        .stroke20 {fill: #808061;}
        text {
            font-family: Helvetica;
            font-size: 50px;
            fill: #808060;
            paint-order: stroke;
            stroke: #000000;
            stroke-width: 4px;
            stroke-linecap: butt;
            stroke-linejoin: miter;
            font-weight: 800;
        }
    </style>

    <path d="M 294 326 Q 312 593 330 666 Q 334 676 314 692 Q 278 711 254 716 Q 238 719 230 711 Q 223 704 230 688 Q 252 655 253 634 Q 260 486 251 312 C 249 282 292 296 294 326 Z" class="stroke1"/>
    <path d="M 383 350 Q 337 340 294 326 L 251 312 Q 208 300 170 283 Q 154 279 157 298 Q 161 349 166 402 Q 169 426 159 439 Q 143 455 120 467 Q 108 473 99 470 Q 89 466 97 448 Q 122 393 116 337 Q 112 283 90 259 Q 74 241 82 228 Q 94 215 111 205 Q 124 199 134 208 Q 162 247 301 290 Q 344 311 383 312 C 413 314 412 357 383 350 Z" class="stroke2"/>
    <path d="M 383 312 Q 387 294 397 282 Q 404 272 414 282 Q 432 306 433 349 Q 439 449 447 484 Q 454 503 437 515 Q 424 525 408 533 Q 398 537 389 533 Q 382 529 384 514 Q 402 472 383 350 L 383 312 Z" class="stroke3"/>
    <path d="M 570 563 L 571 563 Q 616 539 671 554 Q 738 570 810 586 Q 843 595 848 599 Q 857 608 852 616 Q 845 628 814 634 Q 783 640 753 627 Q 716 614 676 603 Q 633 593 581 586 Q 575 586 572 584 C 543 577 542 575 570 563 Z" class="stroke4"/>
    <path d="M 548 350 Q 617 392 783 413 Q 802 416 810 409 Q 831 387 823 343 Q 811 249 775 123 Q 765 96 744 82 Q 732 76 646 106 Q 628 115 627 106 Q 626 96 645 79 Q 691 31 710 -9 Q 731 -43 757 -22 Q 818 23 836 73 Q 845 106 880 321 Q 886 370 907 391 Q 923 407 915 419 Q 903 432 852 456 Q 828 468 747 449 Q 660 433 584 409 Q 557 405 562 423 Q 565 501 570 563 L 572 584 Q 582 696 599 758 Q 605 776 594 786 Q 576 801 559 807 Q 534 814 526 808 Q 517 802 525 789 Q 552 747 521 471 Q 515 434 487 398 Q 477 382 486 370 Q 496 360 519 345 Q 532 336 548 350 Z" class="stroke5"/>
    <path d="M 551 216 Q 576 219 602 222 Q 666 232 736 229 Q 755 228 760 236 Q 766 246 755 256 Q 728 277 691 290 Q 688 290 592 269 Q 372 232 337 228 Q 325 227 325 217 Q 326 207 342 196 Q 357 187 384 179 Q 393 178 407 185 Q 449 203 551 216 Z" class="stroke6"/>
    
    
    
    
    
    </g>
</svg>