<svg version="1.1" viewBox="0 0 1024 1024" xmlns="http://www.w3.org/2000/svg">
  
  <g transform="scale(1, -1) translate(0, -900)">
    <style type="text/css">
        .stroke1 {fill: #808080;}
        .stroke2 {fill: #808079;}
        .stroke3 {fill: #808078;}
        .stroke4 {fill: #808077;}
        .stroke5 {fill: #808076;}
        .stroke6 {fill: #808075;}
        .stroke7 {fill: #808074;}
        .stroke8 {fill: #808073;}
        .stroke9 {fill: #808072;}
        .stroke10 {fill: #808071;}
        .stroke11 {fill: #808070;}
        .stroke12 {fill: #808069;}
        .stroke13 {fill: #808068;}
        .stroke14 {fill: #808067;}
        .stroke15 {fill: #808066;}
        .stroke16 {fill: #808065;}
        .stroke17 {fill: #808064;}
        .stroke18 {fill: #808063;}
        .stroke19 {fill: #808062;}
        .stroke20 {fill: #808061;}
        text {
            font-family: Helvetica;
            font-size: 50px;
            fill: #808060;
            paint-order: stroke;
            stroke: #000000;
            stroke-width: 4px;
            stroke-linecap: butt;
            stroke-linejoin: miter;
            font-weight: 800;
        }
    </style>

    <path d="M 318 231 Q 333 600 348 647 Q 351 660 331 676 Q 294 695 269 699 Q 253 702 244 693 Q 237 686 245 670 Q 272 631 272 605 Q 282 428 274 220 C 273 190 317 201 318 231 Z" class="stroke1"/>
    <path d="M 408 252 Q 360 245 318 231 L 274 220 Q 226 207 186 191 Q 170 187 174 206 Q 192 339 183 353 Q 167 371 144 385 Q 132 392 122 389 Q 112 385 119 366 Q 143 308 132 249 Q 125 194 101 170 Q 83 151 91 138 Q 103 122 121 112 Q 134 105 144 114 Q 171 145 328 195 Q 394 214 407 210 C 437 210 438 257 408 252 Z" class="stroke2"/>
    <path d="M 407 210 Q 411 195 417 183 Q 424 170 435 179 Q 456 201 460 271 Q 473 370 482 384 Q 489 397 480 408 Q 464 421 436 438 Q 426 444 415 439 Q 408 435 411 424 Q 435 390 413 266 Q 410 260 408 252 L 407 210 Z" class="stroke3"/>
    <path d="M 743 232 Q 752 425 757 603 Q 761 646 766 676 Q 773 701 777 720 Q 781 733 757 749 Q 717 770 690 774 Q 671 778 662 768 Q 653 759 663 742 Q 694 699 694 668 Q 706 463 696 222 C 695 192 742 202 743 232 Z" class="stroke4"/>
    <path d="M 878 255 Q 805 246 743 232 L 696 222 Q 638 210 590 194 Q 568 188 573 214 Q 580 287 587 365 Q 591 390 580 405 Q 564 424 538 437 Q 526 444 515 441 Q 505 437 512 416 Q 545 344 534 272 Q 527 203 499 173 Q 480 154 488 140 Q 500 124 518 112 Q 533 105 543 113 Q 576 150 767 198 Q 849 217 869 211 Q 870 212 872 212 C 902 211 908 259 878 255 Z" class="stroke5"/>
    <path d="M 872 212 Q 857 164 882 116 Q 892 100 904 112 Q 928 136 929 224 Q 941 402 949 421 Q 950 428 954 434 Q 963 449 951 463 Q 932 478 897 496 Q 884 503 872 497 Q 865 493 867 479 Q 897 431 879 260 Q 878 259 878 255 L 872 212 Z" class="stroke6"/>
    
    
    
    
    
    </g>
</svg>