<svg version="1.1" viewBox="0 0 1024 1024" xmlns="http://www.w3.org/2000/svg">
  
  <g transform="scale(1, -1) translate(0, -900)">
    <style type="text/css">
        .stroke1 {fill: #808080;}
        .stroke2 {fill: #808079;}
        .stroke3 {fill: #808078;}
        .stroke4 {fill: #808077;}
        .stroke5 {fill: #808076;}
        .stroke6 {fill: #808075;}
        .stroke7 {fill: #808074;}
        .stroke8 {fill: #808073;}
        .stroke9 {fill: #808072;}
        .stroke10 {fill: #808071;}
        .stroke11 {fill: #808070;}
        .stroke12 {fill: #808069;}
        .stroke13 {fill: #808068;}
        .stroke14 {fill: #808067;}
        .stroke15 {fill: #808066;}
        .stroke16 {fill: #808065;}
        .stroke17 {fill: #808064;}
        .stroke18 {fill: #808063;}
        .stroke19 {fill: #808062;}
        .stroke20 {fill: #808061;}
        text {
            font-family: Helvetica;
            font-size: 50px;
            fill: #808060;
            paint-order: stroke;
            stroke: #000000;
            stroke-width: 4px;
            stroke-linecap: butt;
            stroke-linejoin: miter;
            font-weight: 800;
        }
    </style>

    <path d="M 525 618 Q 535 684 545 744 Q 549 760 551 770 Q 555 779 557 785 Q 561 795 543 810 Q 512 828 490 833 Q 475 837 468 829 Q 461 822 468 808 Q 480 792 481 779 Q 487 703 486 612 C 486 582 520 588 525 618 Z" class="stroke1"/>
    <path d="M 430 563 Q 497 581 571 591 Q 656 604 690 600 C 720 599 721 637 691 635 Q 603 631 525 618 L 486 612 Q 405 602 335 583 Q 314 579 320 604 Q 324 635 331 669 Q 335 691 326 706 Q 292 745 268 741 Q 258 737 265 718 Q 283 673 275 630 Q 268 588 251 570 Q 232 554 239 540 Q 249 524 265 514 Q 278 505 288 513 Q 306 534 400 555 L 430 563 Z" class="stroke2"/>
    <path d="M 690 600 Q 691 581 697 566 Q 704 550 717 559 Q 744 581 760 660 Q 779 711 789 719 Q 799 732 791 747 Q 775 765 746 788 Q 734 797 722 792 Q 715 789 715 776 Q 724 764 719 702 Q 709 665 696 643 Q 693 640 691 635 L 690 600 Z" class="stroke3"/>
    <path d="M 336 346 Q 370 380 412 425 L 430 446 Q 452 474 472 486 Q 482 493 479 507 Q 478 520 455 545 Q 442 558 430 563 C 404 578 393 584 400 555 Q 401 552 402 548 Q 409 521 397 501 Q 357 432 302 372 Q 248 314 179 251 Q 169 244 165 238 Q 161 228 173 228 Q 206 234 326 338 L 336 346 Z" class="stroke4"/>
    <path d="M 412 425 Q 458 395 569 426 Q 605 438 617 430 Q 626 424 601 359 Q 520 107 239 -34 Q 229 -38 230 -44 Q 231 -48 239 -49 Q 266 -48 325 -25 Q 377 -6 431 35 Q 495 81 556 158 Q 616 236 674 359 Q 693 390 722 410 Q 740 419 740 429 Q 740 444 707 463 Q 667 488 652 489 Q 639 489 626 480 Q 511 447 446 446 Q 437 447 430 446 C 400 446 384 436 412 425 Z" class="stroke5"/>
    <path d="M 326 338 Q 326 328 335 320 Q 375 280 424 222 Q 437 203 450 199 Q 457 198 465 206 Q 475 218 466 256 Q 462 290 398 321 Q 358 339 336 346 C 324 350 324 350 326 338 Z" class="stroke6"/>
    
    
    
    
    
    </g>
</svg>