<svg version="1.1" viewBox="0 0 1024 1024" xmlns="http://www.w3.org/2000/svg">
  
  <g transform="scale(1, -1) translate(0, -900)">
    <style type="text/css">
        .stroke1 {fill: #808080;}
        .stroke2 {fill: #808079;}
        .stroke3 {fill: #808078;}
        .stroke4 {fill: #808077;}
        .stroke5 {fill: #808076;}
        .stroke6 {fill: #808075;}
        .stroke7 {fill: #808074;}
        .stroke8 {fill: #808073;}
        .stroke9 {fill: #808072;}
        .stroke10 {fill: #808071;}
        .stroke11 {fill: #808070;}
        .stroke12 {fill: #808069;}
        .stroke13 {fill: #808068;}
        .stroke14 {fill: #808067;}
        .stroke15 {fill: #808066;}
        .stroke16 {fill: #808065;}
        .stroke17 {fill: #808064;}
        .stroke18 {fill: #808063;}
        .stroke19 {fill: #808062;}
        .stroke20 {fill: #808061;}
        text {
            font-family: Helvetica;
            font-size: 50px;
            fill: #808060;
            paint-order: stroke;
            stroke: #000000;
            stroke-width: 4px;
            stroke-linecap: butt;
            stroke-linejoin: miter;
            font-weight: 800;
        }
    </style>

    <path d="M 285 335 Q 300 596 314 656 Q 317 666 298 681 Q 264 699 240 703 Q 224 706 216 698 Q 209 691 217 676 Q 239 645 239 624 Q 249 485 244 322 C 243 292 283 305 285 335 Z" class="stroke1"/>
    <path d="M 364 357 Q 322 347 285 335 L 244 322 Q 202 309 168 293 Q 153 289 157 307 Q 172 436 163 450 Q 124 489 102 485 Q 90 481 99 461 Q 123 404 114 347 Q 107 293 85 269 Q 67 250 76 237 Q 89 222 106 213 Q 118 207 135 221 Q 174 263 333 311 Q 349 315 361 316 C 391 320 393 364 364 357 Z" class="stroke2"/>
    <path d="M 361 316 Q 364 300 370 287 Q 377 274 388 283 Q 403 298 431 442 Q 434 460 443 474 Q 450 487 442 499 Q 427 512 400 530 Q 390 537 379 532 Q 372 529 374 518 Q 393 482 372 378 Q 368 368 364 357 L 361 316 Z" class="stroke3"/>
    <path d="M 661 574 Q 823 613 831 619 Q 841 628 835 636 Q 828 648 798 655 Q 767 659 736 647 Q 700 634 665 623 L 611 609 Q 557 597 497 590 Q 460 583 487 566 Q 532 542 590 559 Q 597 562 611 563 L 661 574 Z" class="stroke4"/>
    <path d="M 651 440 Q 655 509 661 574 L 665 623 Q 665 716 688 780 Q 692 792 671 807 Q 634 826 609 832 Q 593 835 584 826 Q 577 819 584 803 Q 606 770 607 748 Q 610 681 611 609 L 611 563 Q 610 496 606 424 C 604 394 649 410 651 440 Z" class="stroke5"/>
    <path d="M 669 195 Q 712 259 751 356 Q 764 387 786 406 Q 807 422 793 438 Q 780 451 745 463 Q 720 472 690 457 Q 672 450 651 440 L 606 424 Q 569 414 514 404 Q 499 403 495 394 Q 491 387 511 379 Q 551 366 604 384 Q 662 409 672 410 Q 694 409 689 384 Q 667 299 630 236 L 606 202 Q 522 103 353 57 Q 337 53 350 43 Q 357 37 409 40 Q 539 52 638 157 L 669 195 Z" class="stroke6"/>
    <path d="M 638 157 Q 761 0 820 -7 Q 839 -7 943 4 Q 956 5 969 10 Q 978 17 966 26 Q 950 36 831 79 Q 753 106 669 195 L 630 236 Q 602 269 573 307 Q 554 332 521 339 Q 508 342 498 335 Q 492 328 502 319 Q 548 283 606 202 L 638 157 Z" class="stroke7"/>
    
    
    
    
    
    
    </g>
</svg>