<svg version="1.1" viewBox="0 0 1024 1024" xmlns="http://www.w3.org/2000/svg">
  
  <g transform="scale(1, -1) translate(0, -900)">
    <style type="text/css">
        .stroke1 {fill: #808080;}
        .stroke2 {fill: #808079;}
        .stroke3 {fill: #808078;}
        .stroke4 {fill: #808077;}
        .stroke5 {fill: #808076;}
        .stroke6 {fill: #808075;}
        .stroke7 {fill: #808074;}
        .stroke8 {fill: #808073;}
        .stroke9 {fill: #808072;}
        .stroke10 {fill: #808071;}
        .stroke11 {fill: #808070;}
        .stroke12 {fill: #808069;}
        .stroke13 {fill: #808068;}
        .stroke14 {fill: #808067;}
        .stroke15 {fill: #808066;}
        .stroke16 {fill: #808065;}
        .stroke17 {fill: #808064;}
        .stroke18 {fill: #808063;}
        .stroke19 {fill: #808062;}
        .stroke20 {fill: #808061;}
        text {
            font-family: Helvetica;
            font-size: 50px;
            fill: #808060;
            paint-order: stroke;
            stroke: #000000;
            stroke-width: 4px;
            stroke-linecap: butt;
            stroke-linejoin: miter;
            font-weight: 800;
        }
    </style>

    <path d="M 288 346 Q 303 674 317 712 Q 320 724 301 738 Q 267 756 245 759 Q 229 762 222 754 Q 215 747 223 733 Q 247 699 247 676 Q 256 519 249 335 C 248 305 287 316 288 346 Z" class="stroke1"/>
    <path d="M 359 365 Q 320 358 288 346 L 249 335 Q 209 323 174 308 Q 161 304 163 321 Q 173 444 165 456 Q 135 489 111 485 Q 102 481 109 464 Q 134 412 127 360 Q 123 309 102 286 Q 87 270 95 259 Q 105 246 121 238 Q 133 232 141 240 Q 177 282 316 322 Q 341 331 356 330 C 386 332 388 371 359 365 Z" class="stroke2"/>
    <path d="M 356 330 Q 360 312 366 299 Q 373 286 383 294 Q 399 312 420 455 Q 423 474 431 490 Q 438 502 430 513 Q 415 526 389 542 Q 379 548 369 543 Q 363 540 365 530 Q 389 487 361 370 Q 360 369 359 365 L 356 330 Z" class="stroke3"/>
    <path d="M 648 505 Q 663 739 675 762 Q 678 772 660 787 Q 629 803 606 807 Q 591 810 584 802 Q 577 795 585 782 Q 603 757 603 740 Q 612 628 609 495 C 608 465 646 475 648 505 Z" class="stroke4"/>
    <path d="M 453 639 Q 490 584 518 571 Q 530 567 540 577 Q 546 587 546 602 Q 537 641 468 671 Q 455 678 446 675 Q 440 674 441 663 Q 441 653 453 639 Z" class="stroke5"/>
    <path d="M 787 705 Q 775 683 715 610 Q 705 594 722 597 Q 765 619 790 636 Q 850 678 870 686 Q 891 696 881 713 Q 842 761 807 756 Q 794 755 798 741 Q 801 723 787 705 Z" class="stroke6"/>
    <path d="M 528 231 Q 531 286 536 327 L 538 352 Q 544 424 549 448 Q 550 455 549 460 C 550 477 550 477 531 487 Q 503 503 486 503 Q 473 499 477 487 Q 528 366 465 148 Q 429 70 459 26 Q 466 13 476 18 Q 515 39 524 172 Q 525 190 526 206 L 528 231 Z" class="stroke7"/>
    <path d="M 549 460 Q 627 473 699 488 Q 720 491 724 480 Q 734 455 743 253 Q 747 88 736 66 Q 732 60 712 65 Q 685 69 659 75 Q 640 81 641 71 Q 698 28 730 -7 Q 743 -25 758 -29 Q 767 -32 775 -22 Q 812 29 809 77 Q 775 426 798 472 Q 810 491 798 500 Q 777 518 742 532 Q 724 539 710 531 Q 673 515 648 505 L 609 495 Q 578 491 531 487 C 501 484 519 455 549 460 Z" class="stroke8"/>
    <path d="M 536 327 Q 542 326 550 327 Q 629 339 687 345 Q 709 349 701 361 Q 691 374 667 379 Q 637 385 538 352 C 510 343 506 330 536 327 Z" class="stroke9"/>
    <path d="M 526 206 Q 533 205 544 206 Q 629 219 691 225 Q 713 229 705 241 Q 695 254 671 260 Q 644 263 528 231 C 499 223 496 208 526 206 Z" class="stroke10"/>
    
    
    
    
    
    
    
    
    
    </g>
</svg>