<svg version="1.1" viewBox="0 0 1024 1024" xmlns="http://www.w3.org/2000/svg">
  
  <g transform="scale(1, -1) translate(0, -900)">
    <style type="text/css">
        .stroke1 {fill: #808080;}
        .stroke2 {fill: #808079;}
        .stroke3 {fill: #808078;}
        .stroke4 {fill: #808077;}
        .stroke5 {fill: #808076;}
        .stroke6 {fill: #808075;}
        .stroke7 {fill: #808074;}
        .stroke8 {fill: #808073;}
        .stroke9 {fill: #808072;}
        .stroke10 {fill: #808071;}
        .stroke11 {fill: #808070;}
        .stroke12 {fill: #808069;}
        .stroke13 {fill: #808068;}
        .stroke14 {fill: #808067;}
        .stroke15 {fill: #808066;}
        .stroke16 {fill: #808065;}
        .stroke17 {fill: #808064;}
        .stroke18 {fill: #808063;}
        .stroke19 {fill: #808062;}
        .stroke20 {fill: #808061;}
        text {
            font-family: Helvetica;
            font-size: 50px;
            fill: #808060;
            paint-order: stroke;
            stroke: #000000;
            stroke-width: 4px;
            stroke-linecap: butt;
            stroke-linejoin: miter;
            font-weight: 800;
        }
    </style>

    <path d="M 261 341 Q 271 495 277 635 Q 277 648 295 730 Q 299 742 278 756 Q 242 775 218 779 Q 202 783 194 774 Q 187 767 195 751 Q 220 714 220 690 Q 229 522 219 328 C 218 298 259 311 261 341 Z" class="stroke1"/>
    <path d="M 334 360 Q 294 353 261 341 L 219 328 Q 185 318 156 305 Q 141 301 144 319 Q 154 439 146 452 Q 113 485 89 482 Q 79 478 87 460 Q 112 408 104 356 Q 100 305 80 283 Q 64 267 72 254 Q 84 241 100 232 Q 113 225 121 234 Q 154 279 311 321 Q 323 324 333 325 C 363 330 363 366 334 360 Z" class="stroke2"/>
    <path d="M 333 325 Q 339 303 348 287 Q 357 272 367 283 Q 391 310 391 386 Q 400 473 411 495 Q 418 510 408 522 Q 389 535 359 553 Q 347 559 336 553 Q 329 549 331 537 Q 358 498 340 380 Q 337 370 334 360 L 333 325 Z" class="stroke3"/>
    <path d="M 652 633 Q 782 664 787 669 Q 796 676 791 685 Q 784 695 756 702 Q 726 708 656 681 L 605 667 Q 554 655 496 648 Q 462 641 487 626 Q 520 607 592 620 Q 598 621 606 622 L 652 633 Z" class="stroke4"/>
    <path d="M 472 505 Q 491 481 510 454 Q 520 441 534 439 Q 543 438 549 449 Q 556 461 552 488 Q 551 504 526 521 Q 468 554 456 551 Q 452 548 451 537 Q 452 527 472 505 Z" class="stroke5"/>
    <path d="M 739 559 Q 720 528 679 480 Q 675 473 679 467 Q 686 466 693 470 Q 771 519 808 538 Q 824 542 821 553 Q 815 568 798 586 Q 780 602 759 605 Q 746 605 746 587 Q 747 574 739 559 Z" class="stroke6"/>
    <path d="M 649 376 Q 725 388 848 390 Q 902 390 909 400 Q 913 413 896 426 Q 836 468 789 449 Q 732 436 648 418 L 605 410 Q 517 397 416 379 Q 395 376 411 359 Q 426 346 444 341 Q 465 337 481 342 Q 524 355 575 364 L 649 376 Z" class="stroke7"/>
    <path d="M 602 305 Q 602 176 576 85 Q 564 43 591 -18 Q 598 -36 606 -39 Q 613 -46 620 -37 Q 627 -33 638 -12 Q 648 13 647 45 Q 646 82 648 330 L 648 418 Q 649 496 651 587 Q 651 611 652 633 L 656 681 Q 660 723 671 756 Q 680 771 677 785 Q 670 795 614 829 Q 590 845 569 830 Q 565 826 570 810 Q 604 759 605 667 L 606 622 Q 607 568 605 410 L 602 305 Z" class="stroke8"/>
    <path d="M 575 364 Q 518 238 343 95 Q 331 82 340 81 Q 349 77 361 82 Q 472 124 602 305 C 654 377 592 401 575 364 Z" class="stroke9"/>
    <path d="M 648 330 Q 804 99 844 89 Q 845 89 849 89 Q 907 96 959 101 Q 980 104 980 109 Q 981 115 957 127 Q 836 178 784 227 Q 685 326 649 376 L 648 376 C 628 399 631 355 648 330 Z" class="stroke10"/>
    
    
    
    
    
    
    
    
    
    </g>
</svg>