<svg version="1.1" viewBox="0 0 1024 1024" xmlns="http://www.w3.org/2000/svg">
  
  <g transform="scale(1, -1) translate(0, -900)">
    <style type="text/css">
        .stroke1 {fill: #808080;}
        .stroke2 {fill: #808079;}
        .stroke3 {fill: #808078;}
        .stroke4 {fill: #808077;}
        .stroke5 {fill: #808076;}
        .stroke6 {fill: #808075;}
        .stroke7 {fill: #808074;}
        .stroke8 {fill: #808073;}
        .stroke9 {fill: #808072;}
        .stroke10 {fill: #808071;}
        .stroke11 {fill: #808070;}
        .stroke12 {fill: #808069;}
        .stroke13 {fill: #808068;}
        .stroke14 {fill: #808067;}
        .stroke15 {fill: #808066;}
        .stroke16 {fill: #808065;}
        .stroke17 {fill: #808064;}
        .stroke18 {fill: #808063;}
        .stroke19 {fill: #808062;}
        .stroke20 {fill: #808061;}
        text {
            font-family: Helvetica;
            font-size: 50px;
            fill: #808060;
            paint-order: stroke;
            stroke: #000000;
            stroke-width: 4px;
            stroke-linecap: butt;
            stroke-linejoin: miter;
            font-weight: 800;
        }
    </style>

    <path d="M 530 675 Q 542 744 560 811 Q 563 821 546 834 Q 516 853 495 857 Q 482 861 474 853 Q 467 847 473 834 Q 491 807 490 668 C 490 638 525 645 530 675 Z" class="stroke1"/>
    <path d="M 680 694 Q 601 688 530 675 L 490 668 Q 418 658 356 639 Q 340 636 345 656 Q 364 741 356 758 Q 343 774 323 789 Q 313 795 303 794 Q 293 790 299 772 Q 315 727 304 685 Q 297 645 277 627 Q 261 611 266 599 Q 276 584 291 573 Q 303 566 312 573 Q 346 609 563 648 Q 645 664 673 659 C 703 657 710 696 680 694 Z" class="stroke2"/>
    <path d="M 673 659 Q 673 637 679 621 Q 683 606 696 614 Q 723 636 738 706 Q 757 751 765 757 Q 775 769 767 782 Q 754 798 727 820 Q 717 827 706 825 Q 699 822 699 810 Q 705 800 701 745 Q 692 714 680 694 L 673 659 Z" class="stroke3"/>
    <path d="M 477 598 Q 528 555 545 555 Q 555 556 559 572 Q 559 582 548 598 Q 526 620 478 621 Q 471 621 471 612 Q 470 605 477 598 Z" class="stroke4"/>
    <path d="M 377 514 Q 343 508 367 493 Q 403 469 456 482 Q 541 498 632 516 Q 672 525 679 530 Q 686 537 683 545 Q 676 555 650 563 Q 626 567 524 538 Q 434 519 377 514 Z" class="stroke5"/>
    <path d="M 364 363 Q 382 387 399 406 Q 408 415 398 428 Q 367 455 347 456 Q 337 455 338 443 Q 339 374 257 290 Q 251 290 222 257 Q 215 247 226 249 Q 239 250 259 262 Q 316 299 351 346 L 364 363 Z" class="stroke6"/>
    <path d="M 351 346 Q 355 340 371 332 Q 396 317 423 298 Q 433 291 445 293 Q 452 294 454 304 Q 455 314 446 334 Q 433 358 364 363 C 334 365 334 365 351 346 Z" class="stroke7"/>
    <path d="M 547 298 Q 590 316 643 380 L 655 396 Q 674 424 693 447 Q 700 457 690 468 Q 657 496 638 494 Q 629 493 630 481 Q 639 415 554 328 Q 539 316 534 306 C 521 286 521 286 547 298 Z" class="stroke8"/>
    <path d="M 643 380 Q 647 373 668 359 Q 704 337 743 307 Q 753 298 766 300 Q 775 301 777 312 Q 780 324 771 346 Q 761 376 660 396 Q 657 397 655 396 C 630 396 630 396 643 380 Z" class="stroke9"/>
    <path d="M 550 189 Q 596 192 911 193 Q 933 192 938 201 Q 945 214 927 229 Q 869 272 802 259 Q 702 243 552 224 L 494 218 Q 328 202 138 183 Q 116 182 132 163 Q 147 147 165 141 Q 187 135 205 139 Q 325 169 494 184 L 550 189 Z" class="stroke10"/>
    <path d="M 494 184 Q 494 -57 502 -75 Q 503 -79 507 -85 Q 511 -92 519 -90 Q 546 -72 546 55 Q 545 86 550 189 L 552 224 Q 552 225 553 225 Q 554 240 556 249 Q 557 261 560 271 Q 564 287 551 296 Q 550 297 547 298 L 534 306 Q 518 318 508 319 Q 496 323 482 316 Q 473 309 480 299 Q 493 272 494 218 L 494 184 Z" class="stroke11"/>
    
    
    
    
    
    
    
    
    
    
    </g>
</svg>