<svg version="1.1" viewBox="0 0 1024 1024" xmlns="http://www.w3.org/2000/svg">
  
  <g transform="scale(1, -1) translate(0, -900)">
    <style type="text/css">
        .stroke1 {fill: #808080;}
        .stroke2 {fill: #808079;}
        .stroke3 {fill: #808078;}
        .stroke4 {fill: #808077;}
        .stroke5 {fill: #808076;}
        .stroke6 {fill: #808075;}
        .stroke7 {fill: #808074;}
        .stroke8 {fill: #808073;}
        .stroke9 {fill: #808072;}
        .stroke10 {fill: #808071;}
        .stroke11 {fill: #808070;}
        .stroke12 {fill: #808069;}
        .stroke13 {fill: #808068;}
        .stroke14 {fill: #808067;}
        .stroke15 {fill: #808066;}
        .stroke16 {fill: #808065;}
        .stroke17 {fill: #808064;}
        .stroke18 {fill: #808063;}
        .stroke19 {fill: #808062;}
        .stroke20 {fill: #808061;}
        text {
            font-family: Helvetica;
            font-size: 50px;
            fill: #808060;
            paint-order: stroke;
            stroke: #000000;
            stroke-width: 4px;
            stroke-linecap: butt;
            stroke-linejoin: miter;
            font-weight: 800;
        }
    </style>

    <path d="M 539 699 Q 557 786 568 817 Q 572 827 555 841 Q 524 860 502 865 Q 487 869 480 862 Q 473 855 479 841 Q 494 823 497 691 C 498 661 533 670 539 699 Z" class="stroke1"/>
    <path d="M 705 721 Q 617 714 539 699 L 497 691 Q 422 678 360 659 Q 345 658 351 674 Q 355 692 361 710 Q 367 731 359 745 Q 347 763 327 777 Q 317 784 308 783 Q 298 780 303 762 Q 324 687 282 648 Q 264 633 270 620 Q 280 605 295 595 Q 302 589 320 597 Q 375 640 623 682 Q 669 689 695 688 C 725 688 735 724 705 721 Z" class="stroke2"/>
    <path d="M 695 688 Q 694 663 699 644 Q 703 626 717 635 Q 747 653 770 731 Q 795 773 802 777 Q 812 789 806 805 Q 793 824 766 849 Q 756 859 742 856 Q 735 855 734 841 Q 743 829 733 777 Q 721 741 705 721 C 695 708 695 708 695 688 Z" class="stroke3"/>
    <path d="M 347 506 Q 348 510 353 514 Q 360 526 358 534 Q 354 546 328 550 Q 301 556 290 552 Q 283 549 282 537 Q 273 432 51 212 Q 33 196 58 202 Q 151 223 296 429 Q 299 438 338 493 L 347 506 Z" class="stroke4"/>
    <path d="M 338 493 Q 342 487 359 474 Q 399 446 443 410 Q 453 403 463 403 Q 470 403 474 412 Q 477 422 470 443 Q 458 479 355 506 Q 351 507 347 506 C 328 505 328 505 338 493 Z" class="stroke5"/>
    <path d="M 305 371 Q 338 338 368 327 Q 378 326 384 336 Q 388 346 385 358 Q 373 386 311 399 Q 299 402 292 398 Q 288 397 291 388 Q 292 381 305 371 Z" class="stroke6"/>
    <path d="M 326 111 Q 420 220 458 238 Q 474 245 468 259 Q 464 272 403 298 Q 387 305 367 296 Q 322 274 254 246 Q 236 239 192 234 Q 171 233 180 216 Q 187 206 205 198 Q 232 186 263 207 Q 354 262 372 255 Q 382 249 379 237 Q 348 183 311 120 C 296 94 306 88 326 111 Z" class="stroke7"/>
    <path d="M 311 120 Q 278 138 260 146 Q 253 152 250 141 Q 249 131 257 121 Q 294 79 338 19 Q 350 1 363 -4 Q 370 -5 377 2 Q 387 12 381 50 Q 378 84 326 111 L 311 120 Z" class="stroke8"/>
    <path d="M 669 556 Q 727 568 824 574 Q 863 574 869 584 Q 873 594 858 604 Q 810 634 757 616 Q 634 586 513 559 Q 495 556 509 543 Q 531 527 579 535 Q 601 542 628 547 L 669 556 Z" class="stroke9"/>
    <path d="M 637 465 L 643 473 Q 674 510 680 514 Q 693 524 687 533 Q 683 543 669 556 C 647 577 630 577 628 547 Q 628 532 611 477 Q 604 467 601 458 C 590 430 619 441 637 465 Z" class="stroke10"/>
    <path d="M 577 455 Q 561 468 541 472 Q 534 473 529 466 Q 526 462 533 453 Q 566 393 548 233 Q 536 188 541 171 Q 550 144 559 134 Q 569 124 576 135 Q 580 139 583 147 L 590 177 Q 593 195 593 251 L 593 273 Q 592 298 591 343 L 591 367 Q 590 412 593 428 Q 593 429 594 429 C 597 441 597 441 577 455 Z" class="stroke11"/>
    <path d="M 772 165 Q 773 164 775 161 Q 788 133 798 134 Q 811 135 826 167 Q 841 194 836 231 Q 817 393 845 437 Q 854 452 847 461 Q 822 483 777 501 Q 764 505 742 498 Q 705 480 656 470 Q 646 469 637 465 L 601 458 Q 589 457 577 455 C 547 451 565 421 594 429 Q 673 450 730 460 Q 749 464 756 454 Q 769 439 770 385 Q 776 234 769 204 Q 768 200 767 195 C 764 179 764 179 772 165 Z" class="stroke12"/>
    <path d="M 591 343 Q 595 342 602 343 Q 669 353 720 359 Q 741 362 733 373 Q 723 386 701 390 Q 683 393 591 367 C 562 359 561 346 591 343 Z" class="stroke13"/>
    <path d="M 593 251 Q 599 250 606 251 Q 673 261 724 267 Q 745 270 737 281 Q 727 294 705 298 Q 680 304 593 273 C 565 263 563 254 593 251 Z" class="stroke14"/>
    <path d="M 583 147 Q 590 146 601 148 Q 655 158 772 165 C 802 167 791 177 767 195 Q 764 196 762 199 Q 749 206 721 201 Q 649 185 590 177 C 560 173 553 148 583 147 Z" class="stroke15"/>
    <path d="M 579 102 Q 579 56 426 -45 Q 419 -52 431 -53 Q 521 -29 625 57 Q 635 67 652 75 Q 662 82 659 90 Q 656 96 640 103 Q 606 116 586 113 Q 577 112 579 102 Z" class="stroke16"/>
    <path d="M 727 86 Q 770 43 821 -20 Q 834 -39 849 -45 Q 858 -46 865 -38 Q 878 -25 868 16 Q 861 55 795 87 Q 753 106 730 115 Q 721 121 719 109 Q 718 96 727 86 Z" class="stroke17"/>
    
    
    
    
    
    
    
    
    
    
    
    
    
    
    
    
    </g>
</svg>