<svg version="1.1" viewBox="0 0 1024 1024" xmlns="http://www.w3.org/2000/svg">
  
  <g transform="scale(1, -1) translate(0, -900)">
    <style type="text/css">
        .stroke1 {fill: #808080;}
        .stroke2 {fill: #808079;}
        .stroke3 {fill: #808078;}
        .stroke4 {fill: #808077;}
        .stroke5 {fill: #808076;}
        .stroke6 {fill: #808075;}
        .stroke7 {fill: #808074;}
        .stroke8 {fill: #808073;}
        .stroke9 {fill: #808072;}
        .stroke10 {fill: #808071;}
        .stroke11 {fill: #808070;}
        .stroke12 {fill: #808069;}
        .stroke13 {fill: #808068;}
        .stroke14 {fill: #808067;}
        .stroke15 {fill: #808066;}
        .stroke16 {fill: #808065;}
        .stroke17 {fill: #808064;}
        .stroke18 {fill: #808063;}
        .stroke19 {fill: #808062;}
        .stroke20 {fill: #808061;}
        text {
            font-family: Helvetica;
            font-size: 50px;
            fill: #808060;
            paint-order: stroke;
            stroke: #000000;
            stroke-width: 4px;
            stroke-linecap: butt;
            stroke-linejoin: miter;
            font-weight: 800;
        }
    </style>

    <path d="M 539 668 Q 549 734 570 812 Q 574 822 556 837 Q 523 856 501 861 Q 485 865 478 857 Q 471 850 478 836 Q 496 809 496 661 C 496 631 534 638 539 668 Z" class="stroke1"/>
    <path d="M 690 687 Q 608 681 539 668 L 496 661 Q 432 651 376 635 Q 357 631 362 654 Q 374 720 365 735 Q 352 751 330 764 Q 320 770 310 768 Q 300 764 307 746 Q 323 709 316 672 Q 312 636 297 621 Q 279 605 286 592 Q 296 579 311 568 Q 324 561 333 568 Q 363 604 575 641 Q 662 657 683 651 C 713 648 720 689 690 687 Z" class="stroke2"/>
    <path d="M 683 651 Q 684 629 690 611 Q 694 593 709 603 Q 737 624 755 703 Q 774 743 783 750 Q 793 763 785 778 Q 769 797 742 820 Q 732 829 718 825 Q 711 824 710 810 Q 719 797 715 746 Q 705 709 691 688 Q 690 688 690 687 C 681 674 681 674 683 651 Z" class="stroke3"/>
    <path d="M 288 424 Q 319 458 348 485 Q 358 494 349 509 Q 318 543 298 546 Q 288 546 287 533 Q 286 499 266 469 Q 265 469 265 467 L 236 429 Q 200 387 153 353 Q 122 334 107 322 Q 97 310 111 312 Q 156 309 253 390 L 288 424 Z" class="stroke4"/>
    <path d="M 274 256 Q 277 132 252 55 Q 248 45 243 44 Q 233 41 203 47 Q 175 57 169 52 Q 166 46 175 34 Q 205 3 223 -27 Q 239 -52 250 -52 Q 254 -55 268 -41 Q 340 47 315 316 Q 311 352 303 381 Q 296 406 288 424 L 265 467 Q 229 515 185 536 Q 173 543 168 533 Q 164 520 169 502 Q 176 483 193 478 Q 214 469 236 429 L 253 390 Q 262 359 266 339 L 274 256 Z" class="stroke5"/>
    <path d="M 266 339 Q 265 338 264 335 Q 210 217 55 94 Q 43 82 52 81 Q 61 77 72 82 Q 165 113 274 256 C 292 280 279 366 266 339 Z" class="stroke6"/>
    <path d="M 456 546 Q 480 507 504 492 Q 516 488 524 497 Q 530 506 530 519 Q 526 552 469 575 Q 457 579 450 578 Q 446 578 445 568 Q 445 559 456 546 Z" class="stroke7"/>
    <path d="M 363 438 Q 333 434 354 419 Q 390 400 433 411 Q 499 424 567 438 Q 598 445 603 449 Q 610 456 606 463 Q 600 472 577 478 Q 553 482 529 473 Q 493 461 455 452 Q 412 442 363 438 Z" class="stroke8"/>
    <path d="M 400 358 Q 375 354 393 342 Q 424 327 462 338 Q 490 344 520 351 Q 533 355 536 356 Q 542 362 538 368 Q 534 375 513 380 Q 501 381 439 365 Q 421 361 400 358 Z" class="stroke9"/>
    <path d="M 393 286 Q 368 282 386 270 Q 410 255 482 269 Q 497 272 515 275 Q 528 279 531 280 Q 538 286 534 292 Q 530 299 509 305 Q 496 308 434 291 Q 415 288 393 286 Z" class="stroke10"/>
    <path d="M 383 209 Q 376 213 358 216 Q 349 219 346 215 Q 342 211 347 198 Q 365 161 376 100 Q 377 81 388 69 Q 401 53 405 64 Q 409 74 408 91 L 405 115 Q 398 176 397 190 C 396 203 396 203 383 209 Z" class="stroke11"/>
    <path d="M 508 128 Q 524 173 539 183 Q 557 202 540 213 Q 527 223 506 237 Q 493 246 477 238 Q 459 228 436 221 Q 414 215 383 209 C 354 203 368 184 397 190 Q 400 191 461 202 Q 477 205 481 198 Q 485 194 480 177 Q 476 158 468 132 C 459 103 498 100 508 128 Z" class="stroke12"/>
    <path d="M 408 91 Q 412 91 419 92 Q 449 99 516 106 Q 523 107 524 113 Q 524 119 508 128 L 468 132 L 467 132 Q 433 122 405 115 C 376 108 378 90 408 91 Z" class="stroke13"/>
    <path d="M 691 311 Q 832 354 837 358 Q 844 365 840 374 Q 833 384 805 388 Q 777 391 751 378 Q 724 368 696 356 L 646 340 Q 613 333 581 327 Q 548 318 574 305 Q 598 293 640 296 L 691 311 Z" class="stroke14"/>
    <path d="M 684 272 Q 687 291 691 311 L 696 356 Q 700 488 717 538 Q 721 548 714 556 Q 665 598 628 587 Q 610 580 625 564 Q 650 537 652 509 Q 653 413 646 340 L 640 296 Q 639 292 639 286 Q 618 145 519 51 Q 459 5 457 2 Q 453 -5 468 -4 Q 501 -7 585 61 Q 646 115 677 235 L 684 272 Z" class="stroke15"/>
    <path d="M 677 235 Q 743 96 819 -5 Q 835 -30 855 -31 Q 907 -25 953 -21 Q 972 -20 972 -15 Q 973 -9 953 5 Q 839 77 789 134 Q 699 249 687 269 Q 686 270 684 272 C 666 296 664 262 677 235 Z" class="stroke16"/>
    <path d="M 796 466 Q 815 450 838 429 Q 851 417 866 418 Q 876 419 881 432 Q 885 447 875 475 Q 865 499 789 511 Q 773 514 768 511 Q 764 507 765 495 Q 769 485 796 466 Z" class="stroke17"/>
    
    
    
    
    
    
    
    
    
    
    
    
    
    
    
    
    </g>
</svg>