<svg version="1.1" viewBox="0 0 1024 1024" xmlns="http://www.w3.org/2000/svg">
  
  <g transform="scale(1, -1) translate(0, -900)">
    <style type="text/css">
        .stroke1 {fill: #808080;}
        .stroke2 {fill: #808079;}
        .stroke3 {fill: #808078;}
        .stroke4 {fill: #808077;}
        .stroke5 {fill: #808076;}
        .stroke6 {fill: #808075;}
        .stroke7 {fill: #808074;}
        .stroke8 {fill: #808073;}
        .stroke9 {fill: #808072;}
        .stroke10 {fill: #808071;}
        .stroke11 {fill: #808070;}
        .stroke12 {fill: #808069;}
        .stroke13 {fill: #808068;}
        .stroke14 {fill: #808067;}
        .stroke15 {fill: #808066;}
        .stroke16 {fill: #808065;}
        .stroke17 {fill: #808064;}
        .stroke18 {fill: #808063;}
        .stroke19 {fill: #808062;}
        .stroke20 {fill: #808061;}
        text {
            font-family: Helvetica;
            font-size: 50px;
            fill: #808060;
            paint-order: stroke;
            stroke: #000000;
            stroke-width: 4px;
            stroke-linecap: butt;
            stroke-linejoin: miter;
            font-weight: 800;
        }
    </style>

    <path d="M 243 634 Q 279 580 265 371 Q 258 316 235 251 Q 214 194 131 99 Q 115 84 112 77 Q 111 70 124 70 Q 164 73 233 149 Q 315 251 329 461 Q 332 576 336 609 Q 342 631 318 642 Q 263 667 246 663 Q 224 659 243 634 Z" class="stroke1"/>
    <path d="M 458 602 Q 500 502 462 251 Q 453 209 484 163 L 486 161 Q 496 149 508 162 Q 535 207 533 266 Q 524 420 536 528 Q 537 549 541 567 Q 548 592 526 605 Q 507 617 488 627 Q 475 631 464 626 Q 454 619 458 602 Z" class="stroke2"/>
    <path d="M 688 96 Q 678 56 706 -10 Q 713 -28 721 -31 Q 728 -38 735 -30 Q 765 -9 762 56 Q 747 584 769 693 Q 770 702 773 710 Q 782 726 779 740 Q 772 750 713 784 Q 688 802 667 785 Q 661 779 669 764 Q 702 715 703 662 Q 721 245 690 105 Q 689 102 688 96 Z" class="stroke3"/>
    
    
    </g>
</svg>