<svg version="1.1" viewBox="0 0 1024 1024" xmlns="http://www.w3.org/2000/svg">
  
  <g transform="scale(1, -1) translate(0, -900)">
    <style type="text/css">
        .stroke1 {fill: #808080;}
        .stroke2 {fill: #808079;}
        .stroke3 {fill: #808078;}
        .stroke4 {fill: #808077;}
        .stroke5 {fill: #808076;}
        .stroke6 {fill: #808075;}
        .stroke7 {fill: #808074;}
        .stroke8 {fill: #808073;}
        .stroke9 {fill: #808072;}
        .stroke10 {fill: #808071;}
        .stroke11 {fill: #808070;}
        .stroke12 {fill: #808069;}
        .stroke13 {fill: #808068;}
        .stroke14 {fill: #808067;}
        .stroke15 {fill: #808066;}
        .stroke16 {fill: #808065;}
        .stroke17 {fill: #808064;}
        .stroke18 {fill: #808063;}
        .stroke19 {fill: #808062;}
        .stroke20 {fill: #808061;}
        text {
            font-family: Helvetica;
            font-size: 50px;
            fill: #808060;
            paint-order: stroke;
            stroke: #000000;
            stroke-width: 4px;
            stroke-linecap: butt;
            stroke-linejoin: miter;
            font-weight: 800;
        }
    </style>

    <path d="M 336 730 Q 294 723 324 704 Q 369 676 434 691 Q 534 710 639 731 Q 687 741 694 748 Q 704 757 699 766 Q 692 779 659 788 Q 632 794 508 758 Q 367 734 336 730 Z" class="stroke1"/>
    <path d="M 311 589 Q 295 528 248 471 Q 236 459 235 451 Q 234 441 257 420 Q 294 390 343 331 Q 356 312 367 314 Q 382 314 389 332 Q 396 356 390 371 Q 380 396 289 434 Q 268 446 279 465 Q 285 477 322 517 Q 359 554 372 565 Q 384 569 386 576 Q 390 592 369 616 Q 351 638 332 644 Q 314 648 308 642 Q 305 638 310 628 Q 317 613 311 589 Z" class="stroke2"/>
    <path d="M 480 616 Q 462 547 418 492 Q 408 483 407 474 Q 407 464 430 444 Q 464 419 511 366 Q 524 347 536 349 Q 551 350 557 368 Q 564 392 557 407 Q 548 429 460 461 Q 439 471 450 489 Q 457 502 493 543 Q 527 583 542 593 Q 552 597 555 604 Q 559 620 537 644 Q 518 666 500 671 Q 481 674 475 668 Q 472 664 478 654 Q 487 641 480 616 Z" class="stroke3"/>
    <path d="M 659 611 Q 637 562 597 517 Q 587 505 591 492 Q 592 480 610 468 Q 677 422 738 367 Q 756 351 770 351 Q 783 352 786 376 Q 787 401 773 417 Q 757 445 659 478 Q 640 482 633 493 Q 627 502 638 515 Q 657 533 694 571 Q 716 593 733 604 Q 749 611 744 631 Q 734 668 710 685 Q 697 695 684 694 Q 672 693 676 673 Q 680 648 659 611 Z" class="stroke4"/>
    <path d="M 505 242 Q 679 278 682 279 Q 691 286 687 296 Q 680 308 650 317 Q 629 323 495 289 Q 422 271 323 265 Q 286 261 312 242 Q 348 218 428 230 Q 444 233 463 236 L 505 242 Z" class="stroke5"/>
    <path d="M 518 72 Q 525 129 531 174 Q 537 216 523 226 Q 514 236 505 242 C 481 260 456 265 463 236 Q 469 221 470 68 C 470 38 514 42 518 72 Z" class="stroke6"/>
    <path d="M 470 68 Q 323 55 156 41 Q 131 40 148 19 Q 184 -17 229 -8 Q 482 50 868 28 Q 892 27 898 37 Q 905 50 886 68 Q 820 119 754 104 Q 661 91 518 72 L 470 68 Z" class="stroke7"/>
    
    
    
    
    
    
    </g>
</svg>