<svg version="1.1" viewBox="0 0 1024 1024" xmlns="http://www.w3.org/2000/svg">
  
  <g transform="scale(1, -1) translate(0, -900)">
    <style type="text/css">
        .stroke1 {fill: #808080;}
        .stroke2 {fill: #808079;}
        .stroke3 {fill: #808078;}
        .stroke4 {fill: #808077;}
        .stroke5 {fill: #808076;}
        .stroke6 {fill: #808075;}
        .stroke7 {fill: #808074;}
        .stroke8 {fill: #808073;}
        .stroke9 {fill: #808072;}
        .stroke10 {fill: #808071;}
        .stroke11 {fill: #808070;}
        .stroke12 {fill: #808069;}
        .stroke13 {fill: #808068;}
        .stroke14 {fill: #808067;}
        .stroke15 {fill: #808066;}
        .stroke16 {fill: #808065;}
        .stroke17 {fill: #808064;}
        .stroke18 {fill: #808063;}
        .stroke19 {fill: #808062;}
        .stroke20 {fill: #808061;}
        text {
            font-family: Helvetica;
            font-size: 50px;
            fill: #808060;
            paint-order: stroke;
            stroke: #000000;
            stroke-width: 4px;
            stroke-linecap: butt;
            stroke-linejoin: miter;
            font-weight: 800;
        }
    </style>

    <path d="M 657 508 Q 696 634 739 664 Q 758 686 741 708 Q 720 724 658 753 Q 636 762 610 752 Q 489 695 295 659 C 266 653 277 611 306 620 Q 396 647 425 652 L 471 664 Q 523 679 581 693 Q 612 703 626 691 Q 639 678 634 651 Q 616 572 594 509 C 584 481 648 479 657 508 Z" class="stroke1"/>
    <path d="M 425 652 Q 426 640 422 465 C 421 435 468 447 472 477 Q 485 585 492 613 Q 504 640 472 663 L 471 664 C 448 683 424 682 425 652 Z" class="stroke2"/>
    <path d="M 273 411 Q 291 398 314 404 Q 428 435 675 469 Q 687 470 688 481 Q 688 490 657 508 L 594 509 Q 530 493 472 477 L 422 465 Q 343 450 276 439 Q 273 439 274 438 C 245 432 247 425 273 411 Z" class="stroke3"/>
    <path d="M 929 157 Q 905 224 890 337 Q 887 356 878 362 Q 868 369 864 343 Q 851 201 831 176 Q 774 113 538 115 Q 409 121 355 144 Q 307 169 297 202 Q 276 253 272 387 Q 272 400 273 411 L 274 438 Q 280 549 301 605 Q 304 612 306 620 C 314 645 314 645 295 659 Q 294 660 292 662 Q 229 708 211 703 Q 192 696 202 675 Q 227 629 222 560 Q 218 232 249 167 Q 286 80 446 59 Q 548 46 707 56 Q 851 66 907 97 Q 946 118 929 157 Z" class="stroke4"/>
    
    
    
    </g>
</svg>