<svg version="1.1" viewBox="0 0 1024 1024" xmlns="http://www.w3.org/2000/svg">
  
  <g transform="scale(1, -1) translate(0, -900)">
    <style type="text/css">
        .stroke1 {fill: #808080;}
        .stroke2 {fill: #808079;}
        .stroke3 {fill: #808078;}
        .stroke4 {fill: #808077;}
        .stroke5 {fill: #808076;}
        .stroke6 {fill: #808075;}
        .stroke7 {fill: #808074;}
        .stroke8 {fill: #808073;}
        .stroke9 {fill: #808072;}
        .stroke10 {fill: #808071;}
        .stroke11 {fill: #808070;}
        .stroke12 {fill: #808069;}
        .stroke13 {fill: #808068;}
        .stroke14 {fill: #808067;}
        .stroke15 {fill: #808066;}
        .stroke16 {fill: #808065;}
        .stroke17 {fill: #808064;}
        .stroke18 {fill: #808063;}
        .stroke19 {fill: #808062;}
        .stroke20 {fill: #808061;}
        text {
            font-family: Helvetica;
            font-size: 50px;
            fill: #808060;
            paint-order: stroke;
            stroke: #000000;
            stroke-width: 4px;
            stroke-linecap: butt;
            stroke-linejoin: miter;
            font-weight: 800;
        }
    </style>

    <path d="M 663 608 Q 742 621 860 625 Q 914 625 921 635 Q 925 647 909 659 Q 855 695 799 676 Q 744 664 663 646 L 618 637 Q 521 621 411 601 Q 392 598 406 583 Q 419 571 437 567 Q 456 563 471 567 Q 540 589 618 601 L 663 608 Z" class="stroke1"/>
    <path d="M 491 457 Q 466 470 450 468 Q 438 464 444 454 Q 474 387 445 288 Q 424 252 454 212 Q 454 211 457 208 Q 463 196 472 201 Q 496 219 501 291 Q 504 399 508 426 C 511 448 511 448 491 457 Z" class="stroke2"/>
    <path d="M 662 458 Q 711 468 761 473 Q 789 472 788 452 Q 797 299 780 276 Q 770 270 713 282 Q 697 286 693 281 Q 689 275 702 265 Q 757 222 791 189 Q 807 176 821 190 Q 849 229 851 294 Q 845 408 854 460 Q 858 481 847 490 Q 819 515 801 525 Q 788 531 779 521 Q 772 512 673 488 Q 669 488 662 485 L 616 477 Q 570 471 491 457 C 461 452 478 423 508 426 Q 518 425 529 428 Q 571 440 615 448 L 662 458 Z" class="stroke3"/>
    <path d="M 613 -2 Q 619 -27 626 -37 Q 632 -44 639 -42 Q 654 -33 660 28 Q 670 131 667 234 Q 663 292 662 458 L 662 485 Q 662 542 663 608 L 663 646 Q 663 700 677 774 Q 681 792 666 801 Q 632 823 617 826 Q 604 830 588 821 Q 579 814 587 802 Q 593 790 601 778 Q 617 748 618 704 Q 618 673 618 637 L 618 601 Q 617 544 616 477 L 615 448 Q 609 42 613 -2 Z" class="stroke4"/>
    
    
    
    </g>
</svg>