<svg version="1.1" viewBox="0 0 1024 1024" xmlns="http://www.w3.org/2000/svg">
  
  <g transform="scale(1, -1) translate(0, -900)">
    <style type="text/css">
        .stroke1 {fill: #808080;}
        .stroke2 {fill: #808079;}
        .stroke3 {fill: #808078;}
        .stroke4 {fill: #808077;}
        .stroke5 {fill: #808076;}
        .stroke6 {fill: #808075;}
        .stroke7 {fill: #808074;}
        .stroke8 {fill: #808073;}
        .stroke9 {fill: #808072;}
        .stroke10 {fill: #808071;}
        .stroke11 {fill: #808070;}
        .stroke12 {fill: #808069;}
        .stroke13 {fill: #808068;}
        .stroke14 {fill: #808067;}
        .stroke15 {fill: #808066;}
        .stroke16 {fill: #808065;}
        .stroke17 {fill: #808064;}
        .stroke18 {fill: #808063;}
        .stroke19 {fill: #808062;}
        .stroke20 {fill: #808061;}
        text {
            font-family: Helvetica;
            font-size: 50px;
            fill: #808060;
            paint-order: stroke;
            stroke: #000000;
            stroke-width: 4px;
            stroke-linecap: butt;
            stroke-linejoin: miter;
            font-weight: 800;
        }
    </style>

    <path d="M 503 689 Q 647 731 679 733 Q 719 739 721 741 Q 727 751 715 766 Q 654 823 618 823 Q 609 819 607 808 Q 603 772 396 700 Q 342 682 279 665 Q 272 655 278 652 Q 299 646 437 676 Q 444 677 454 679 L 503 689 Z" class="stroke1"/>
    <path d="M 312 511 Q 293 530 256 528 Q 243 524 249 511 Q 285 441 255 315 Q 233 281 260 230 Q 263 224 269 217 Q 276 204 288 210 Q 318 234 320 348 Q 321 441 325 470 C 328 498 328 498 312 511 Z" class="stroke2"/>
    <path d="M 541 504 Q 611 514 679 518 Q 715 522 717 498 Q 726 324 704 299 Q 695 295 638 302 Q 620 306 617 301 Q 613 295 626 284 Q 681 241 715 207 Q 731 192 746 208 Q 779 247 779 328 Q 773 440 787 505 Q 791 527 780 539 Q 750 567 729 579 Q 714 586 704 576 Q 698 567 542 536 L 484 528 Q 420 522 312 511 C 282 508 295 467 325 470 Q 332 470 342 471 Q 414 487 484 496 L 541 504 Z" class="stroke3"/>
    <path d="M 480 1 Q 486 -27 493 -37 Q 499 -44 507 -42 Q 522 -33 531 32 Q 541 117 539 200 Q 536 266 541 504 L 542 536 Q 542 581 555 637 Q 559 656 543 667 Q 519 683 503 689 C 476 702 444 707 454 679 Q 467 643 483 606 Q 483 567 484 528 L 484 496 Q 478 21 480 1 Z" class="stroke4"/>
    
    
    
    </g>
</svg>