<svg version="1.1" viewBox="0 0 1024 1024" xmlns="http://www.w3.org/2000/svg">
  
  <g transform="scale(1, -1) translate(0, -900)">
    <style type="text/css">
        .stroke1 {fill: #808080;}
        .stroke2 {fill: #808079;}
        .stroke3 {fill: #808078;}
        .stroke4 {fill: #808077;}
        .stroke5 {fill: #808076;}
        .stroke6 {fill: #808075;}
        .stroke7 {fill: #808074;}
        .stroke8 {fill: #808073;}
        .stroke9 {fill: #808072;}
        .stroke10 {fill: #808071;}
        .stroke11 {fill: #808070;}
        .stroke12 {fill: #808069;}
        .stroke13 {fill: #808068;}
        .stroke14 {fill: #808067;}
        .stroke15 {fill: #808066;}
        .stroke16 {fill: #808065;}
        .stroke17 {fill: #808064;}
        .stroke18 {fill: #808063;}
        .stroke19 {fill: #808062;}
        .stroke20 {fill: #808061;}
        text {
            font-family: Helvetica;
            font-size: 50px;
            fill: #808060;
            paint-order: stroke;
            stroke: #000000;
            stroke-width: 4px;
            stroke-linecap: butt;
            stroke-linejoin: miter;
            font-weight: 800;
        }
    </style>

    <path d="M 233 629 Q 281 672 309 699 Q 381 771 397 780 Q 416 793 404 808 Q 388 824 361 834 Q 336 844 325 840 Q 312 837 318 824 Q 327 797 271 715 Q 241 673 210 628 C 193 603 211 609 233 629 Z" class="stroke1"/>
    <path d="M 223 381 Q 223 430 225 465 L 225 496 Q 226 574 228 583 Q 229 592 229 598 C 230 613 230 613 210 628 Q 207 635 181 644 Q 171 648 160 645 Q 153 639 159 627 Q 178 557 180 536 Q 192 329 164 215 Q 151 161 186 117 Q 196 104 207 117 Q 222 138 222 200 L 222 234 Q 222 298 223 352 L 223 381 Z" class="stroke2"/>
    <path d="M 390 522 Q 414 592 441 611 Q 454 627 442 642 Q 429 652 384 673 Q 368 679 350 671 Q 314 653 280 643 Q 255 636 233 629 C 202 619 181 584 229 598 Q 230 599 344 629 Q 357 633 363 628 Q 370 621 367 606 Q 358 566 348 531 C 340 502 380 494 390 522 Z" class="stroke3"/>
    <path d="M 225 465 Q 235 464 244 467 Q 293 480 398 495 Q 408 496 409 505 Q 409 512 390 522 C 367 535 367 535 348 531 Q 341 530 336 528 Q 275 509 225 496 C 196 488 195 466 225 465 Z" class="stroke4"/>
    <path d="M 396 264 Q 417 333 445 355 Q 460 371 446 387 Q 388 433 353 421 Q 350 421 348 419 Q 305 398 223 381 C 194 375 193 348 223 352 Q 230 352 343 374 Q 355 377 360 372 Q 372 360 350 266 C 343 237 387 235 396 264 Z" class="stroke5"/>
    <path d="M 222 200 Q 231 199 244 202 Q 296 215 413 229 Q 423 230 425 239 Q 425 248 396 264 C 383 271 380 271 350 266 Q 349 267 347 266 Q 278 245 222 234 C 193 228 192 201 222 200 Z" class="stroke6"/>
    <path d="M 658 636 Q 895 699 904 707 Q 913 716 908 724 Q 901 736 870 742 Q 845 745 741 708 Q 633 672 516 654 Q 479 647 507 631 Q 546 610 601 622 L 658 636 Z" class="stroke7"/>
    <path d="M 508 487 Q 486 497 470 494 Q 460 490 465 480 Q 492 425 475 349 Q 457 316 487 276 Q 488 273 492 270 Q 499 260 508 265 Q 529 281 530 377 Q 530 434 530 451 C 530 478 530 478 508 487 Z" class="stroke8"/>
    <path d="M 678 483 Q 732 495 761 498 Q 789 502 797 493 Q 807 484 809 453 Q 808 422 809 384 Q 810 356 801 345 Q 798 339 745 339 Q 729 343 723 337 Q 719 333 734 321 Q 779 281 804 249 Q 816 236 832 242 Q 842 246 852 269 Q 871 306 871 353 Q 870 456 880 490 Q 887 506 880 516 Q 808 564 768 539 Q 732 526 679 515 L 624 504 Q 573 495 508 487 C 478 483 501 443 530 451 Q 539 455 624 472 L 678 483 Z" class="stroke9"/>
    <path d="M 624 472 Q 625 351 621 181 Q 618 -17 638 -41 Q 644 -48 651 -46 Q 669 -34 672 24 Q 681 103 678 183 Q 675 247 678 483 L 679 515 Q 679 533 689 598 Q 693 616 678 625 Q 668 632 658 636 C 632 650 589 649 601 622 Q 622 586 624 504 L 624 472 Z" class="stroke10"/>
    
    
    
    
    
    
    
    
    
    </g>
</svg>