<svg version="1.1" viewBox="0 0 1024 1024" xmlns="http://www.w3.org/2000/svg">
  
  <g transform="scale(1, -1) translate(0, -900)">
    <style type="text/css">
        .stroke1 {fill: #808080;}
        .stroke2 {fill: #808079;}
        .stroke3 {fill: #808078;}
        .stroke4 {fill: #808077;}
        .stroke5 {fill: #808076;}
        .stroke6 {fill: #808075;}
        .stroke7 {fill: #808074;}
        .stroke8 {fill: #808073;}
        .stroke9 {fill: #808072;}
        .stroke10 {fill: #808071;}
        .stroke11 {fill: #808070;}
        .stroke12 {fill: #808069;}
        .stroke13 {fill: #808068;}
        .stroke14 {fill: #808067;}
        .stroke15 {fill: #808066;}
        .stroke16 {fill: #808065;}
        .stroke17 {fill: #808064;}
        .stroke18 {fill: #808063;}
        .stroke19 {fill: #808062;}
        .stroke20 {fill: #808061;}
        text {
            font-family: Helvetica;
            font-size: 50px;
            fill: #808060;
            paint-order: stroke;
            stroke: #000000;
            stroke-width: 4px;
            stroke-linecap: butt;
            stroke-linejoin: miter;
            font-weight: 800;
        }
    </style>

    <path d="M 510 748 Q 694 790 699 793 Q 708 802 703 811 Q 696 824 664 832 Q 637 838 533 805 Q 437 781 347 772 Q 307 765 335 747 Q 378 720 441 735 Q 445 736 452 736 L 510 748 Z" class="stroke1"/>
    <path d="M 284 593 Q 309 560 336 521 Q 346 505 362 503 Q 372 502 381 513 Q 388 526 386 558 Q 385 580 355 604 Q 283 650 268 647 Q 262 644 261 631 Q 262 619 284 593 Z" class="stroke2"/>
    <path d="M 672 657 Q 657 627 590 535 Q 580 517 598 522 Q 632 544 720 613 Q 738 631 763 643 Q 785 656 772 673 Q 757 691 728 704 Q 703 717 689 713 Q 676 710 681 696 Q 685 677 672 657 Z" class="stroke3"/>
    <path d="M 536 402 Q 638 414 915 413 Q 937 413 943 422 Q 950 435 931 452 Q 862 501 797 482 Q 694 464 536 440 L 482 434 Q 316 415 127 393 Q 102 392 120 371 Q 153 338 199 347 Q 376 395 464 395 Q 471 396 481 396 L 536 402 Z" class="stroke4"/>
    <path d="M 480 -7 Q 486 -35 493 -45 Q 499 -52 507 -50 Q 523 -41 530 24 Q 540 118 538 212 Q 535 263 536 402 L 536 440 Q 539 642 551 702 Q 555 721 539 731 Q 523 741 510 748 C 484 763 438 762 452 736 Q 453 735 455 733 Q 482 678 483 643 Q 484 552 482 434 L 481 396 Q 475 42 480 -7 Z" class="stroke5"/>
    
    
    
    
    </g>
</svg>