<svg version="1.1" viewBox="0 0 1024 1024" xmlns="http://www.w3.org/2000/svg">
  
  <g transform="scale(1, -1) translate(0, -900)">
    <style type="text/css">
        .stroke1 {fill: #808080;}
        .stroke2 {fill: #808079;}
        .stroke3 {fill: #808078;}
        .stroke4 {fill: #808077;}
        .stroke5 {fill: #808076;}
        .stroke6 {fill: #808075;}
        .stroke7 {fill: #808074;}
        .stroke8 {fill: #808073;}
        .stroke9 {fill: #808072;}
        .stroke10 {fill: #808071;}
        .stroke11 {fill: #808070;}
        .stroke12 {fill: #808069;}
        .stroke13 {fill: #808068;}
        .stroke14 {fill: #808067;}
        .stroke15 {fill: #808066;}
        .stroke16 {fill: #808065;}
        .stroke17 {fill: #808064;}
        .stroke18 {fill: #808063;}
        .stroke19 {fill: #808062;}
        .stroke20 {fill: #808061;}
        text {
            font-family: Helvetica;
            font-size: 50px;
            fill: #808060;
            paint-order: stroke;
            stroke: #000000;
            stroke-width: 4px;
            stroke-linecap: butt;
            stroke-linejoin: miter;
            font-weight: 800;
        }
    </style>

    <path d="M 493 797 Q 527 769 565 737 Q 581 722 599 724 Q 611 725 616 740 Q 620 758 609 791 Q 602 815 564 831 Q 474 859 460 851 Q 454 847 457 832 Q 461 819 493 797 Z" class="stroke1"/>
    <path d="M 331 585 Q 382 569 425 577 Q 741 637 762 643 Q 769 646 774 649 Q 784 658 779 667 Q 772 680 740 689 Q 713 695 595 660 Q 450 624 332 615 Q 328 615 327 614 C 297 610 302 593 331 585 Z" class="stroke2"/>
    <path d="M 327 614 Q 311 630 282 644 Q 263 656 249 651 Q 236 644 243 629 Q 261 599 257 534 Q 256 525 255 512 Q 246 350 199 226 Q 163 136 80 8 Q 74 1 72 -5 Q 69 -17 80 -15 Q 113 -9 191 103 Q 207 130 223 160 Q 289 305 312 480 Q 322 577 331 585 C 338 605 338 605 327 614 Z" class="stroke3"/>
    <path d="M 409 316 Q 466 316 569 350 Q 576 357 572 366 Q 565 376 537 380 Q 513 383 445 358 Q 427 354 410 349 C 381 341 379 316 409 316 Z" class="stroke4"/>
    <path d="M 410 349 Q 410 353 411 355 Q 411 382 417 403 Q 421 416 413 426 Q 391 448 371 459 Q 355 466 345 461 Q 335 455 343 441 Q 376 357 353 196 Q 347 150 307 106 Q 295 93 301 71 Q 310 46 321 34 Q 333 25 345 41 Q 361 66 508 164 Q 526 174 531 182 Q 535 191 527 192 Q 515 192 408 148 Q 393 142 394 156 Q 404 244 409 316 L 410 349 Z" class="stroke5"/>
    <path d="M 637 314 Q 695 336 733 352 Q 814 391 850 397 Q 875 401 868 423 Q 858 444 836 465 Q 814 484 801 485 Q 788 486 788 472 Q 785 441 702 383 Q 671 364 639 341 C 615 324 609 303 637 314 Z" class="stroke6"/>
    <path d="M 961 100 Q 939 152 924 241 Q 921 257 914 262 Q 905 266 902 246 Q 892 134 878 114 Q 854 87 753 90 Q 699 93 676 103 Q 657 115 652 128 Q 636 168 634 269 Q 635 293 637 314 L 639 341 Q 643 402 659 436 Q 672 467 651 485 Q 599 525 582 520 Q 566 513 574 496 Q 596 456 591 399 Q 585 120 622 83 Q 667 38 838 34 Q 911 34 942 48 Q 976 66 961 100 Z" class="stroke7"/>
    
    
    
    
    
    
    </g>
</svg>