<svg version="1.1" viewBox="0 0 1024 1024" xmlns="http://www.w3.org/2000/svg">
  
  <g transform="scale(1, -1) translate(0, -900)">
    <style type="text/css">
        .stroke1 {fill: #808080;}
        .stroke2 {fill: #808079;}
        .stroke3 {fill: #808078;}
        .stroke4 {fill: #808077;}
        .stroke5 {fill: #808076;}
        .stroke6 {fill: #808075;}
        .stroke7 {fill: #808074;}
        .stroke8 {fill: #808073;}
        .stroke9 {fill: #808072;}
        .stroke10 {fill: #808071;}
        .stroke11 {fill: #808070;}
        .stroke12 {fill: #808069;}
        .stroke13 {fill: #808068;}
        .stroke14 {fill: #808067;}
        .stroke15 {fill: #808066;}
        .stroke16 {fill: #808065;}
        .stroke17 {fill: #808064;}
        .stroke18 {fill: #808063;}
        .stroke19 {fill: #808062;}
        .stroke20 {fill: #808061;}
        text {
            font-family: Helvetica;
            font-size: 50px;
            fill: #808060;
            paint-order: stroke;
            stroke: #000000;
            stroke-width: 4px;
            stroke-linecap: butt;
            stroke-linejoin: miter;
            font-weight: 800;
        }
    </style>

    <path d="M 486 807 Q 526 782 570 749 Q 586 737 602 740 Q 612 741 617 756 Q 620 772 607 802 Q 589 841 475 857 Q 459 858 452 855 Q 448 851 450 837 Q 454 827 486 807 Z" class="stroke1"/>
    <path d="M 331 612 Q 386 603 411 608 Q 756 671 774 683 Q 784 690 779 700 Q 772 712 742 720 Q 709 729 629 700 Q 473 657 324 645 C 294 642 301 617 331 612 Z" class="stroke2"/>
    <path d="M 324 645 Q 321 648 318 649 Q 269 677 253 675 Q 232 672 248 648 Q 285 575 243 357 Q 228 297 196 228 Q 166 167 65 72 Q 50 59 46 53 Q 45 46 56 46 Q 72 45 95 59 Q 146 90 178 121 Q 280 226 312 459 Q 319 516 325 584 Q 329 600 331 612 C 336 638 336 638 324 645 Z" class="stroke3"/>
    <path d="M 368 361 Q 352 371 334 376 Q 327 379 322 374 Q 313 368 323 356 Q 363 284 364 113 Q 364 49 402 20 L 403 19 Q 421 13 423 44 L 423 45 L 423 74 Q 422 93 416 116 Q 404 266 404 320 C 404 341 394 346 368 361 Z" class="stroke4"/>
    <path d="M 697 72 Q 707 47 732 -7 Q 741 -25 751 -24 Q 767 -21 777 5 Q 811 71 816 159 Q 823 214 830 279 Q 834 330 857 362 Q 875 383 862 397 Q 838 419 789 440 Q 770 450 735 437 Q 668 412 595 393 L 547 383 Q 472 371 368 361 C 338 358 375 313 404 320 Q 456 333 548 350 L 594 359 Q 649 372 716 383 Q 747 390 762 375 Q 771 360 771 344 Q 770 226 746 110 Q 743 91 735 88 Q 731 85 714 95 C 685 101 685 100 697 72 Z" class="stroke5"/>
    <path d="M 589 214 Q 635 223 678 228 Q 702 232 693 244 Q 683 259 657 264 Q 633 267 592 256 Q 591 256 591 255 C 589 254 576 251 547 244 Q 498 232 455 221 Q 439 217 459 202 Q 468 196 546 207 L 589 214 Z" class="stroke6"/>
    <path d="M 595 393 Q 599 486 616 542 Q 619 554 598 568 Q 564 587 538 591 Q 522 594 514 585 Q 507 578 515 562 Q 543 522 543 494 Q 546 440 547 383 L 548 350 Q 548 299 547 244 L 546 207 Q 545 153 543 94 C 542 64 584 71 585 101 Q 586 159 589 214 L 591 255 Q 592 307 594 359 L 595 393 Z" class="stroke7"/>
    <path d="M 423 45 Q 433 45 448 46 Q 590 64 697 72 C 727 74 735 75 714 95 Q 704 107 686 110 Q 652 119 585 101 L 543 94 Q 479 85 423 74 C 394 68 393 44 423 45 Z" class="stroke8"/>
    
    
    
    
    
    
    
    </g>
</svg>