<svg version="1.1" viewBox="0 0 1024 1024" xmlns="http://www.w3.org/2000/svg">
  
  <g transform="scale(1, -1) translate(0, -900)">
    <style type="text/css">
        .stroke1 {fill: #808080;}
        .stroke2 {fill: #808079;}
        .stroke3 {fill: #808078;}
        .stroke4 {fill: #808077;}
        .stroke5 {fill: #808076;}
        .stroke6 {fill: #808075;}
        .stroke7 {fill: #808074;}
        .stroke8 {fill: #808073;}
        .stroke9 {fill: #808072;}
        .stroke10 {fill: #808071;}
        .stroke11 {fill: #808070;}
        .stroke12 {fill: #808069;}
        .stroke13 {fill: #808068;}
        .stroke14 {fill: #808067;}
        .stroke15 {fill: #808066;}
        .stroke16 {fill: #808065;}
        .stroke17 {fill: #808064;}
        .stroke18 {fill: #808063;}
        .stroke19 {fill: #808062;}
        .stroke20 {fill: #808061;}
        text {
            font-family: Helvetica;
            font-size: 50px;
            fill: #808060;
            paint-order: stroke;
            stroke: #000000;
            stroke-width: 4px;
            stroke-linecap: butt;
            stroke-linejoin: miter;
            font-weight: 800;
        }
    </style>

    <path d="M 642 676 Q 756 724 771 726 Q 787 727 791 736 Q 795 746 782 757 Q 719 799 688 792 Q 681 788 680 778 Q 681 736 472 632 Q 468 623 474 620 Q 490 620 582 653 Q 592 657 603 660 L 642 676 Z" class="stroke1"/>
    <path d="M 671 468 Q 735 486 847 501 Q 857 500 866 514 Q 867 526 844 535 Q 810 556 725 525 Q 698 519 673 510 L 619 496 Q 541 481 443 465 Q 415 461 437 444 Q 474 420 499 427 Q 554 442 619 456 L 671 468 Z" class="stroke2"/>
    <path d="M 665 298 Q 668 389 671 468 L 673 510 Q 676 648 677 648 Q 659 664 642 676 C 618 694 591 688 603 660 Q 621 630 619 496 L 619 456 Q 618 390 618 289 C 618 259 664 268 665 298 Z" class="stroke3"/>
    <path d="M 618 289 Q 548 279 467 265 Q 448 262 462 247 Q 475 234 493 230 Q 512 226 527 230 Q 632 260 791 259 Q 804 258 817 259 Q 836 259 840 267 Q 844 279 829 291 Q 775 330 711 309 Q 690 305 665 298 L 618 289 Z" class="stroke4"/>
    <path d="M 306 243 Q 334 298 364 380 Q 379 411 399 425 Q 408 432 401 447 Q 394 457 356 477 Q 346 487 322 478 Q 282 469 276 474 Q 272 481 289 525 Q 349 645 385 663 Q 406 676 390 694 Q 360 718 332 723 Q 316 727 296 711 Q 275 695 223 677 Q 166 661 143 665 Q 131 666 127 659 Q 123 652 134 645 Q 171 623 198 632 Q 235 639 284 659 Q 294 665 298 661 Q 305 651 293 622 Q 233 487 217 472 Q 204 462 208 449 Q 211 439 217 433 Q 229 420 247 431 Q 307 459 320 438 Q 324 428 314 398 Q 295 310 271 267 Q 270 266 268 263 L 249 231 Q 192 153 79 77 Q 67 67 76 62 Q 89 61 117 75 Q 211 121 267 183 Q 277 195 287 210 L 306 243 Z" class="stroke5"/>
    <path d="M 287 210 Q 302 203 318 192 Q 499 66 689 -11 Q 743 -27 950 43 Q 963 50 966 62 Q 967 72 943 71 Q 861 78 772 79 Q 583 85 306 243 L 268 263 Q 186 323 99 301 Q 87 295 93 285 Q 100 275 115 275 Q 188 272 249 231 L 287 210 Z" class="stroke6"/>
    
    
    
    
    
    </g>
</svg>