<svg version="1.1" viewBox="0 0 1024 1024" xmlns="http://www.w3.org/2000/svg">
  
  <g transform="scale(1, -1) translate(0, -900)">
    <style type="text/css">
        .stroke1 {fill: #808080;}
        .stroke2 {fill: #808079;}
        .stroke3 {fill: #808078;}
        .stroke4 {fill: #808077;}
        .stroke5 {fill: #808076;}
        .stroke6 {fill: #808075;}
        .stroke7 {fill: #808074;}
        .stroke8 {fill: #808073;}
        .stroke9 {fill: #808072;}
        .stroke10 {fill: #808071;}
        .stroke11 {fill: #808070;}
        .stroke12 {fill: #808069;}
        .stroke13 {fill: #808068;}
        .stroke14 {fill: #808067;}
        .stroke15 {fill: #808066;}
        .stroke16 {fill: #808065;}
        .stroke17 {fill: #808064;}
        .stroke18 {fill: #808063;}
        .stroke19 {fill: #808062;}
        .stroke20 {fill: #808061;}
        text {
            font-family: Helvetica;
            font-size: 50px;
            fill: #808060;
            paint-order: stroke;
            stroke: #000000;
            stroke-width: 4px;
            stroke-linecap: butt;
            stroke-linejoin: miter;
            font-weight: 800;
        }
    </style>

    <path d="M 456 797 Q 490 776 526 751 Q 542 741 559 743 Q 569 746 573 760 Q 574 776 561 806 Q 543 837 442 846 Q 426 847 419 843 Q 415 839 419 825 Q 425 815 456 797 Z" class="stroke1"/>
    <path d="M 499 653 Q 596 671 766 687 Q 778 686 788 699 Q 789 712 765 724 Q 726 749 651 726 Q 453 687 315 673 Q 287 672 258 667 Q 227 664 250 645 Q 286 614 316 622 Q 376 634 447 645 L 499 653 Z" class="stroke2"/>
    <path d="M 447 645 Q 453 603 390 529 Q 365 498 313 469 Q 298 459 301 447 Q 305 431 328 408 Q 338 398 352 406 Q 403 446 648 495 C 677 501 660 520 630 516 Q 527 501 414 474 Q 402 470 399 473 Q 398 476 403 484 Q 502 586 523 602 Q 536 611 531 624 Q 527 634 499 653 C 475 671 448 675 447 645 Z" class="stroke3"/>
    <path d="M 648 495 Q 684 443 701 440 Q 711 439 717 449 Q 724 461 721 487 Q 718 530 611 586 Q 598 592 592 591 Q 588 588 586 577 Q 586 571 630 516 L 648 495 Z" class="stroke4"/>
    <path d="M 410 268 Q 497 283 594 286 L 649 291 Q 763 306 914 289 Q 938 286 944 295 Q 951 308 940 320 Q 873 384 806 362 Q 698 343 651 336 L 593 330 Q 467 320 418 311 L 351 303 Q 105 285 102 284 Q 89 284 87 273 Q 86 260 105 246 Q 121 233 153 221 Q 163 217 181 225 Q 199 232 277 245 Q 313 254 352 259 L 410 268 Z" class="stroke5"/>
    <path d="M 352 259 Q 343 112 241 37 Q 228 27 214 15 Q 202 5 214 4 Q 227 4 260 19 Q 297 38 324 65 Q 351 89 381 149 Q 381 152 383 153 Q 389 169 410 268 L 418 311 Q 419 320 424 327 Q 433 345 416 353 Q 368 384 344 374 Q 331 370 338 355 Q 350 336 351 303 L 352 259 Z" class="stroke6"/>
    <path d="M 594 286 Q 600 136 584 68 Q 572 10 628 -48 Q 629 -49 632 -51 Q 645 -52 649 -38 Q 662 -4 658 29 Q 649 212 649 291 L 651 336 Q 654 375 648 381 Q 623 402 603 411 Q 590 415 580 407 Q 574 403 582 393 Q 586 386 593 330 L 594 286 Z" class="stroke7"/>
    
    
    
    
    
    
    </g>
</svg>