<svg version="1.1" viewBox="0 0 1024 1024" xmlns="http://www.w3.org/2000/svg">
  
  <g transform="scale(1, -1) translate(0, -900)">
    <style type="text/css">
        .stroke1 {fill: #808080;}
        .stroke2 {fill: #808079;}
        .stroke3 {fill: #808078;}
        .stroke4 {fill: #808077;}
        .stroke5 {fill: #808076;}
        .stroke6 {fill: #808075;}
        .stroke7 {fill: #808074;}
        .stroke8 {fill: #808073;}
        .stroke9 {fill: #808072;}
        .stroke10 {fill: #808071;}
        .stroke11 {fill: #808070;}
        .stroke12 {fill: #808069;}
        .stroke13 {fill: #808068;}
        .stroke14 {fill: #808067;}
        .stroke15 {fill: #808066;}
        .stroke16 {fill: #808065;}
        .stroke17 {fill: #808064;}
        .stroke18 {fill: #808063;}
        .stroke19 {fill: #808062;}
        .stroke20 {fill: #808061;}
        text {
            font-family: Helvetica;
            font-size: 50px;
            fill: #808060;
            paint-order: stroke;
            stroke: #000000;
            stroke-width: 4px;
            stroke-linecap: butt;
            stroke-linejoin: miter;
            font-weight: 800;
        }
    </style>

    <path d="M 361 562 Q 389 653 417 680 Q 442 708 417 723 Q 396 736 367 754 Q 343 769 304 739 Q 234 712 179 699 Q 166 699 168 692 Q 169 686 184 679 Q 202 670 293 695 Q 327 710 338 695 Q 345 688 333 650 Q 321 610 306 564 C 297 535 352 533 361 562 Z" class="stroke1"/>
    <path d="M 220 506 Q 229 505 241 508 Q 281 521 371 535 Q 381 536 381 545 Q 381 552 361 562 C 338 574 335 573 306 564 Q 251 546 212 535 C 183 527 190 507 220 506 Z" class="stroke2"/>
    <path d="M 280 369 Q 299 370 307 362 Q 317 349 314 311 Q 304 211 278 144 Q 263 105 249 91 Q 240 81 215 90 Q 184 100 160 108 Q 144 115 146 104 Q 147 91 162 78 Q 199 42 218 10 Q 234 -12 256 1 Q 331 58 341 126 Q 354 193 371 300 Q 372 325 386 349 Q 396 367 386 377 Q 373 393 343 408 Q 321 418 241 390 Q 204 381 201 383 Q 197 387 219 498 Q 220 502 220 506 C 224 526 224 526 212 535 Q 202 547 175 559 Q 162 568 153 560 Q 143 553 155 540 Q 176 509 166 455 Q 156 385 128 357 Q 116 344 122 330 Q 129 318 140 311 Q 150 304 168 320 Q 213 368 280 369 Z" class="stroke3"/>
    <path d="M 539 566 Q 573 618 610 688 Q 629 730 647 750 Q 656 762 650 775 Q 644 787 614 807 Q 586 823 568 820 Q 549 817 559 796 Q 574 771 566 748 Q 544 669 504 595 Q 467 523 412 443 Q 403 433 401 426 Q 400 414 413 418 Q 446 427 521 540 Q 525 546 529 551 L 539 566 Z" class="stroke4"/>
    <path d="M 529 551 Q 530 550 534 545 Q 556 524 581 534 Q 642 559 713 578 Q 749 588 761 585 Q 776 573 771 564 Q 771 560 739 488 Q 732 478 737 473 Q 741 467 752 480 Q 843 550 883 568 Q 893 569 893 578 Q 893 591 864 606 Q 842 618 819 631 Q 791 644 776 637 Q 689 597 539 566 C 519 562 519 562 529 551 Z" class="stroke5"/>
    <path d="M 584 75 Q 547 81 510 88 Q 497 89 499 82 Q 500 75 511 68 Q 590 10 621 -27 Q 636 -43 651 -29 Q 685 11 682 77 Q 676 150 675 337 Q 676 374 687 399 Q 696 418 679 431 Q 654 453 624 462 Q 605 469 597 461 Q 591 454 602 439 Q 624 402 623 358 Q 632 94 608 78 Q 599 71 584 75 Z" class="stroke6"/>
    <path d="M 477 297 Q 450 242 416 193 Q 394 163 410 132 Q 416 116 436 126 Q 457 139 472 168 Q 494 207 497 243 Q 504 273 498 296 Q 494 303 489 305 Q 482 304 477 297 Z" class="stroke7"/>
    <path d="M 762 291 Q 813 236 871 156 Q 884 134 900 127 Q 909 126 917 134 Q 932 147 923 192 Q 916 249 767 323 Q 758 329 755 317 Q 754 304 762 291 Z" class="stroke8"/>
    
    
    
    
    
    
    
    </g>
</svg>