<svg version="1.1" viewBox="0 0 1024 1024" xmlns="http://www.w3.org/2000/svg">
  
  <g transform="scale(1, -1) translate(0, -900)">
    <style type="text/css">
        .stroke1 {fill: #808080;}
        .stroke2 {fill: #808079;}
        .stroke3 {fill: #808078;}
        .stroke4 {fill: #808077;}
        .stroke5 {fill: #808076;}
        .stroke6 {fill: #808075;}
        .stroke7 {fill: #808074;}
        .stroke8 {fill: #808073;}
        .stroke9 {fill: #808072;}
        .stroke10 {fill: #808071;}
        .stroke11 {fill: #808070;}
        .stroke12 {fill: #808069;}
        .stroke13 {fill: #808068;}
        .stroke14 {fill: #808067;}
        .stroke15 {fill: #808066;}
        .stroke16 {fill: #808065;}
        .stroke17 {fill: #808064;}
        .stroke18 {fill: #808063;}
        .stroke19 {fill: #808062;}
        .stroke20 {fill: #808061;}
        text {
            font-family: Helvetica;
            font-size: 50px;
            fill: #808060;
            paint-order: stroke;
            stroke: #000000;
            stroke-width: 4px;
            stroke-linecap: butt;
            stroke-linejoin: miter;
            font-weight: 800;
        }
    </style>

    <path d="M 335 570 Q 360 643 384 664 Q 408 688 386 703 Q 368 716 342 734 Q 324 747 280 723 Q 234 707 169 698 Q 157 698 159 692 Q 160 686 173 679 Q 186 672 242 680 Q 303 692 310 683 Q 317 676 307 643 Q 297 612 286 576 C 277 547 325 542 335 570 Z" class="stroke1"/>
    <path d="M 205 518 Q 212 518 221 520 Q 258 530 343 543 Q 353 544 353 553 Q 353 560 335 570 L 286 576 Q 282 576 280 574 Q 234 558 197 548 C 168 540 175 517 205 518 Z" class="stroke2"/>
    <path d="M 283 438 Q 262 434 195 414 Q 185 411 181 415 Q 177 419 181 429 Q 199 507 205 518 C 211 537 211 537 197 548 Q 190 558 164 571 Q 152 581 144 574 Q 134 568 144 555 Q 160 525 150 479 Q 137 418 110 395 Q 98 382 103 370 Q 110 357 119 350 Q 129 343 147 357 Q 196 403 255 400 Q 276 400 285 392 Q 295 379 291 342 Q 281 242 254 175 Q 239 138 226 124 Q 217 115 193 124 Q 168 131 147 137 Q 132 143 134 133 Q 135 120 150 108 Q 180 77 196 47 Q 212 26 232 38 Q 304 93 315 161 Q 328 228 345 331 Q 346 356 361 378 Q 371 394 361 405 Q 349 421 320 435 Q 298 445 283 438 Z" class="stroke3"/>
    <path d="M 491 707 Q 513 682 536 653 Q 546 640 561 638 Q 571 637 577 649 Q 583 662 579 690 Q 572 723 492 751 Q 479 757 472 755 Q 468 752 467 740 Q 468 730 491 707 Z" class="stroke4"/>
    <path d="M 743 716 Q 756 735 778 750 Q 796 765 781 779 Q 765 792 737 800 Q 712 807 700 802 Q 687 798 695 786 Q 705 762 631 624 Q 621 606 611 587 C 597 560 615 568 635 590 Q 671 629 743 716 Z" class="stroke5"/>
    <path d="M 444 562 Q 435 566 418 569 Q 406 572 403 567 Q 396 561 404 546 Q 434 480 449 373 Q 450 342 469 319 Q 485 298 491 313 Q 494 323 495 336 L 493 365 Q 471 500 469 532 C 467 554 467 554 444 562 Z" class="stroke6"/>
    <path d="M 611 587 Q 581 584 552 578 Q 494 568 444 562 C 414 558 440 525 469 532 Q 506 542 557 549 L 605 557 Q 743 582 759 564 Q 769 549 768 536 Q 744 409 727 391 C 714 367 714 367 716 364 Q 732 339 749 329 Q 759 322 774 342 Q 787 364 818 486 Q 828 516 851 539 Q 864 551 853 565 Q 838 581 798 608 Q 783 615 709 601 Q 697 601 635 590 L 611 587 Z" class="stroke7"/>
    <path d="M 639 454 Q 669 460 696 463 Q 717 466 709 477 Q 699 490 677 494 Q 662 497 644 493 L 583 476 Q 546 469 514 459 Q 499 456 518 443 Q 525 436 544 439 Q 563 443 584 445 L 639 454 Z" class="stroke8"/>
    <path d="M 495 336 Q 499 335 509 336 Q 537 343 584 350 L 636 356 Q 672 360 716 364 C 746 367 748 370 727 391 Q 724 395 718 399 Q 700 409 636 390 L 584 379 Q 535 372 493 365 C 463 360 465 338 495 336 Z" class="stroke9"/>
    <path d="M 584 254 Q 481 241 364 225 Q 343 224 359 207 Q 372 194 390 188 Q 409 184 426 188 Q 499 207 583 217 L 635 224 Q 710 233 895 233 Q 914 233 919 242 Q 925 252 908 266 Q 860 303 821 295 Q 751 282 635 262 L 584 254 Z" class="stroke10"/>
    <path d="M 584 350 Q 584 305 584 254 L 583 217 Q 574 -35 598 -73 Q 604 -80 611 -78 Q 629 -66 632 -11 Q 633 19 635 224 L 635 262 Q 635 304 636 356 L 636 390 Q 637 411 638 432 Q 638 445 639 454 L 644 493 Q 645 503 648 511 Q 651 529 637 538 Q 618 551 605 557 C 579 571 545 577 557 549 Q 557 540 571 522 Q 581 503 583 476 L 584 445 Q 584 414 584 379 L 584 350 Z" class="stroke11"/>
    
    
    
    
    
    
    
    
    
    
    </g>
</svg>