<svg version="1.1" viewBox="0 0 1024 1024" xmlns="http://www.w3.org/2000/svg">
  
  <g transform="scale(1, -1) translate(0, -900)">
    <style type="text/css">
        .stroke1 {fill: #808080;}
        .stroke2 {fill: #808079;}
        .stroke3 {fill: #808078;}
        .stroke4 {fill: #808077;}
        .stroke5 {fill: #808076;}
        .stroke6 {fill: #808075;}
        .stroke7 {fill: #808074;}
        .stroke8 {fill: #808073;}
        .stroke9 {fill: #808072;}
        .stroke10 {fill: #808071;}
        .stroke11 {fill: #808070;}
        .stroke12 {fill: #808069;}
        .stroke13 {fill: #808068;}
        .stroke14 {fill: #808067;}
        .stroke15 {fill: #808066;}
        .stroke16 {fill: #808065;}
        .stroke17 {fill: #808064;}
        .stroke18 {fill: #808063;}
        .stroke19 {fill: #808062;}
        .stroke20 {fill: #808061;}
        text {
            font-family: Helvetica;
            font-size: 50px;
            fill: #808060;
            paint-order: stroke;
            stroke: #000000;
            stroke-width: 4px;
            stroke-linecap: butt;
            stroke-linejoin: miter;
            font-weight: 800;
        }
    </style>

    <path d="M 541 591 Q 664 621 675 631 Q 685 640 679 648 Q 672 660 642 667 Q 608 671 527 639 L 483 625 Q 312 586 257 578 Q 220 571 247 554 Q 290 530 347 546 Q 417 562 495 580 L 541 591 Z" class="stroke1"/>
    <path d="M 255 459 Q 245 465 217 468 Q 207 471 203 466 Q 197 460 205 445 Q 232 393 249 306 Q 253 279 268 263 Q 286 242 290 257 Q 294 270 293 290 L 288 322 Q 272 407 270 433 C 268 453 268 453 255 459 Z" class="stroke2"/>
    <path d="M 417 342 Q 430 420 452 443 Q 473 468 450 482 Q 431 492 404 507 Q 386 516 334 485 Q 259 461 255 459 C 227 449 241 424 270 433 Q 289 439 350 454 Q 372 460 377 451 Q 384 447 380 417 Q 376 386 370 348 C 365 318 412 312 417 342 Z" class="stroke3"/>
    <path d="M 293 290 Q 300 290 309 292 Q 346 302 427 315 Q 437 316 437 325 Q 437 332 417 342 L 370 348 Q 366 348 364 346 Q 322 331 288 322 C 259 314 263 289 293 290 Z" class="stroke4"/>
    <path d="M 148 161 Q 135 160 132 147 Q 131 132 141 124 Q 168 108 205 87 Q 217 84 230 95 Q 264 123 302 144 L 418 204 Q 440 216 456 230 Q 471 239 470 249 Q 464 255 450 252 Q 207 162 148 161 Z" class="stroke5"/>
    <path d="M 678 144 Q 756 26 864 -35 Q 870 -36 875 -38 Q 890 -39 898 -26 Q 905 -16 896 28 Q 893 88 908 202 Q 912 233 903 235 Q 894 236 884 210 Q 839 81 816 88 Q 786 98 719 181 L 692 219 Q 673 249 655 284 L 635 325 Q 628 338 603 398 L 588 439 Q 564 503 541 591 L 527 639 Q 512 726 512 740 Q 522 780 489 795 Q 485 798 480 800 Q 456 812 442 812 Q 429 811 428 809 Q 406 800 427 778 Q 442 775 483 625 L 495 580 Q 525 465 553 398 L 565 366 Q 581 323 600 284 L 617 249 Q 629 227 641 207 Q 648 194 656 180 L 678 144 Z" class="stroke6"/>
    <path d="M 603 398 Q 648 444 686 489 Q 701 510 702 512 Q 698 536 666 548 Q 650 555 641 553 Q 634 552 635 542 Q 638 502 588 439 L 553 398 Q 528 374 474 329 Q 467 326 475 323 Q 503 323 565 366 L 603 398 Z" class="stroke7"/>
    <path d="M 655 284 Q 689 318 738 377 Q 745 387 751 390 Q 758 394 758 402 Q 755 424 722 441 Q 706 448 696 447 Q 689 446 689 436 Q 692 400 642 333 Q 638 329 635 325 L 600 284 Q 510 211 478 186 Q 471 182 479 179 Q 521 179 617 249 L 655 284 Z" class="stroke8"/>
    <path d="M 656 180 Q 584 117 467 46 Q 458 43 468 39 Q 510 33 633 109 Q 675 142 678 144 L 719 181 Q 824 289 825 291 Q 821 321 789 335 Q 773 344 762 344 Q 755 343 754 332 Q 754 292 692 219 L 656 180 Z" class="stroke9"/>
    <path d="M 662 731 Q 695 709 730 682 Q 745 672 759 674 Q 769 675 773 688 Q 776 703 764 730 Q 757 751 723 762 Q 644 783 632 775 Q 628 771 630 759 Q 634 749 662 731 Z" class="stroke10"/>
    
    
    
    
    
    
    
    
    
    </g>
</svg>