<svg version="1.1" viewBox="0 0 1024 1024" xmlns="http://www.w3.org/2000/svg">
  
  <g transform="scale(1, -1) translate(0, -900)">
    <style type="text/css">
        .stroke1 {fill: #808080;}
        .stroke2 {fill: #808079;}
        .stroke3 {fill: #808078;}
        .stroke4 {fill: #808077;}
        .stroke5 {fill: #808076;}
        .stroke6 {fill: #808075;}
        .stroke7 {fill: #808074;}
        .stroke8 {fill: #808073;}
        .stroke9 {fill: #808072;}
        .stroke10 {fill: #808071;}
        .stroke11 {fill: #808070;}
        .stroke12 {fill: #808069;}
        .stroke13 {fill: #808068;}
        .stroke14 {fill: #808067;}
        .stroke15 {fill: #808066;}
        .stroke16 {fill: #808065;}
        .stroke17 {fill: #808064;}
        .stroke18 {fill: #808063;}
        .stroke19 {fill: #808062;}
        .stroke20 {fill: #808061;}
        text {
            font-family: Helvetica;
            font-size: 50px;
            fill: #808060;
            paint-order: stroke;
            stroke: #000000;
            stroke-width: 4px;
            stroke-linecap: butt;
            stroke-linejoin: miter;
            font-weight: 800;
        }
    </style>

    <path d="M 413 660 Q 576 690 585 697 Q 595 704 590 712 Q 584 724 556 733 Q 528 740 498 730 Q 458 718 417 707 L 362 694 Q 302 681 171 671 Q 135 667 160 649 Q 199 622 253 635 Q 308 644 364 652 L 413 660 Z" class="stroke1"/>
    <path d="M 405 578 Q 409 621 413 660 L 417 707 Q 417 713 432 801 Q 436 811 417 826 Q 383 844 361 847 Q 345 851 338 842 Q 331 835 339 821 Q 355 799 356 782 Q 360 740 362 694 L 364 652 Q 364 612 364 568 C 364 538 402 548 405 578 Z" class="stroke2"/>
    <path d="M 364 568 Q 312 559 231 546 Q 206 542 226 527 Q 257 505 281 511 Q 392 538 512 554 Q 522 553 530 564 Q 530 574 510 584 Q 479 600 405 578 L 364 568 Z" class="stroke3"/>
    <path d="M 261 451 Q 251 455 221 460 Q 209 461 207 457 Q 201 451 210 436 Q 234 394 251 325 Q 255 303 268 290 Q 286 271 290 285 Q 291 292 292 300 L 290 331 Q 277 398 274 422 C 270 448 270 448 261 451 Z" class="stroke4"/>
    <path d="M 494 356 Q 513 411 540 430 Q 556 446 542 462 Q 527 475 481 497 Q 465 504 445 496 Q 382 471 261 451 C 231 446 244 417 274 422 Q 298 425 430 453 Q 448 457 455 449 Q 462 443 461 429 Q 455 395 448 365 C 441 336 484 328 494 356 Z" class="stroke5"/>
    <path d="M 461 323 Q 479 326 501 328 Q 511 329 512 337 Q 512 344 494 356 L 448 365 Q 444 365 440 363 Q 356 341 290 331 C 260 326 262 301 292 300 Q 299 299 312 301 Q 352 311 427 319 L 461 323 Z" class="stroke6"/>
    <path d="M 228 218 Q 244 196 261 169 Q 270 156 282 153 Q 291 152 297 161 Q 304 171 303 197 Q 300 222 234 258 Q 222 264 216 263 Q 212 260 210 250 Q 211 240 228 218 Z" class="stroke7"/>
    <path d="M 423 154 Q 426 160 430 166 Q 449 197 467 236 Q 474 252 490 275 Q 503 285 495 295 Q 486 308 461 323 C 435 339 414 346 427 319 Q 427 318 430 313 Q 442 280 398 166 Q 394 156 392 146 C 385 117 409 128 423 154 Z" class="stroke8"/>
    <path d="M 392 146 Q 307 127 215 103 Q 191 97 153 100 Q 140 99 137 89 Q 134 76 143 66 Q 165 48 199 27 Q 209 23 222 31 Q 261 56 496 141 Q 527 151 552 167 Q 565 174 567 184 Q 561 190 549 188 Q 488 172 423 154 L 392 146 Z" class="stroke9"/>
    <path d="M 774 782 Q 786 743 699 631 Q 657 580 602 525 Q 592 516 588 511 Q 584 501 598 501 Q 658 511 803 669 Q 824 700 850 718 Q 860 728 858 742 Q 855 755 830 781 Q 806 802 787 804 Q 768 805 774 782 Z" class="stroke10"/>
    <path d="M 784 542 Q 793 503 698 399 Q 655 353 595 302 Q 585 295 581 290 Q 577 280 589 280 Q 641 280 800 433 Q 818 461 849 479 Q 859 486 858 500 Q 857 512 835 537 Q 814 559 798 561 Q 780 562 784 542 Z" class="stroke11"/>
    <path d="M 815 328 Q 796 175 615 50 Q 491 -25 444 -48 Q 435 -51 428 -56 Q 418 -63 424 -68 Q 431 -72 445 -70 Q 526 -57 599 -19 Q 725 35 846 212 Q 867 240 891 266 Q 903 273 899 287 Q 895 300 865 327 Q 844 346 833 346 Q 817 345 815 328 Z" class="stroke12"/>
    
    
    
    
    
    
    
    
    
    
    
    </g>
</svg>