<svg version="1.1" viewBox="0 0 1024 1024" xmlns="http://www.w3.org/2000/svg">
  
  <g transform="scale(1, -1) translate(0, -900)">
    <style type="text/css">
        .stroke1 {fill: #808080;}
        .stroke2 {fill: #808079;}
        .stroke3 {fill: #808078;}
        .stroke4 {fill: #808077;}
        .stroke5 {fill: #808076;}
        .stroke6 {fill: #808075;}
        .stroke7 {fill: #808074;}
        .stroke8 {fill: #808073;}
        .stroke9 {fill: #808072;}
        .stroke10 {fill: #808071;}
        .stroke11 {fill: #808070;}
        .stroke12 {fill: #808069;}
        .stroke13 {fill: #808068;}
        .stroke14 {fill: #808067;}
        .stroke15 {fill: #808066;}
        .stroke16 {fill: #808065;}
        .stroke17 {fill: #808064;}
        .stroke18 {fill: #808063;}
        .stroke19 {fill: #808062;}
        .stroke20 {fill: #808061;}
        text {
            font-family: Helvetica;
            font-size: 50px;
            fill: #808060;
            paint-order: stroke;
            stroke: #000000;
            stroke-width: 4px;
            stroke-linecap: butt;
            stroke-linejoin: miter;
            font-weight: 800;
        }
    </style>

    <path d="M 310 809 Q 317 790 307 773 Q 259 688 148 581 Q 136 572 133 567 Q 127 557 142 557 Q 190 557 332 693 Q 357 726 383 742 Q 393 751 392 765 Q 391 778 366 805 Q 344 827 325 831 Q 306 832 310 809 Z" class="stroke1"/>
    <path d="M 252 393 Q 283 429 317 472 Q 345 512 368 531 Q 378 541 375 554 Q 372 567 346 592 Q 321 613 303 615 Q 284 614 290 592 Q 300 562 287 540 Q 221 411 61 250 Q 51 240 48 235 Q 44 225 58 225 Q 91 231 224 362 L 252 393 Z" class="stroke2"/>
    <path d="M 224 362 Q 255 296 219 120 Q 198 56 237 9 L 238 7 Q 254 -8 266 17 Q 279 56 279 99 Q 283 279 291 319 Q 298 344 289 354 Q 258 391 252 393 C 229 412 213 390 224 362 Z" class="stroke3"/>
    <path d="M 505 683 Q 492 693 479 699 Q 466 703 456 698 Q 447 694 451 682 Q 473 631 478 598 Q 478 370 481 139 C 481 109 529 113 529 143 Q 529 239 529 324 L 529 353 Q 530 422 531 484 L 531 515 Q 532 581 535 647 C 536 662 530 666 505 683 Z" class="stroke4"/>
    <path d="M 767 172 Q 766 418 776 581 Q 779 623 797 650 Q 810 666 796 687 Q 784 700 727 732 Q 709 745 683 731 Q 646 716 592 699 Q 552 689 505 683 C 475 679 506 638 535 647 Q 541 650 549 652 Q 640 677 679 682 Q 695 686 699 680 Q 708 667 707 634 Q 708 366 706 164 C 706 134 767 142 767 172 Z" class="stroke5"/>
    <path d="M 531 484 L 657 499 Q 685 505 674 519 Q 661 535 631 540 Q 574 546 531 515 C 506 498 501 480 531 484 Z" class="stroke6"/>
    <path d="M 529 324 Q 530 324 658 343 Q 685 349 674 363 Q 661 379 631 383 Q 582 386 529 353 C 503 337 499 320 529 324 Z" class="stroke7"/>
    <path d="M 481 139 Q 412 135 340 126 Q 315 125 332 103 Q 368 67 413 77 Q 639 129 942 108 Q 943 109 945 108 Q 967 107 974 117 Q 981 130 962 147 Q 893 199 835 183 Q 804 179 767 172 L 706 164 Q 666 160 625 154 Q 579 150 529 143 L 481 139 Z" class="stroke8"/>
    
    
    
    
    
    
    
    </g>
</svg>