<svg version="1.1" viewBox="0 0 1024 1024" xmlns="http://www.w3.org/2000/svg">
  
  <g transform="scale(1, -1) translate(0, -900)">
    <style type="text/css">
        .stroke1 {fill: #808080;}
        .stroke2 {fill: #808079;}
        .stroke3 {fill: #808078;}
        .stroke4 {fill: #808077;}
        .stroke5 {fill: #808076;}
        .stroke6 {fill: #808075;}
        .stroke7 {fill: #808074;}
        .stroke8 {fill: #808073;}
        .stroke9 {fill: #808072;}
        .stroke10 {fill: #808071;}
        .stroke11 {fill: #808070;}
        .stroke12 {fill: #808069;}
        .stroke13 {fill: #808068;}
        .stroke14 {fill: #808067;}
        .stroke15 {fill: #808066;}
        .stroke16 {fill: #808065;}
        .stroke17 {fill: #808064;}
        .stroke18 {fill: #808063;}
        .stroke19 {fill: #808062;}
        .stroke20 {fill: #808061;}
        text {
            font-family: Helvetica;
            font-size: 50px;
            fill: #808060;
            paint-order: stroke;
            stroke: #000000;
            stroke-width: 4px;
            stroke-linecap: butt;
            stroke-linejoin: miter;
            font-weight: 800;
        }
    </style>

    <path d="M 510 692 Q 609 704 805 704 Q 827 704 832 713 Q 838 726 820 741 Q 763 781 723 773 Q 570 740 201 692 Q 179 689 196 671 Q 211 656 230 651 Q 252 645 270 650 Q 361 675 465 687 Q 466 688 469 687 L 510 692 Z" class="stroke1"/>
    <path d="M 469 687 Q 484 657 469 483 Q 468 473 466 463 Q 466 447 463 438 Q 451 387 501 335 L 503 334 Q 513 333 519 345 Q 525 363 526 440 Q 523 621 530 663 Q 531 675 525 680 Q 518 687 510 692 C 486 710 460 716 469 687 Z" class="stroke2"/>
    <path d="M 604 542 Q 646 518 690 490 Q 706 480 723 483 Q 733 484 737 500 Q 738 516 724 545 Q 714 567 673 580 Q 580 598 567 587 Q 563 583 567 569 Q 573 559 604 542 Z" class="stroke3"/>
    <path d="M 213 273 Q 189 203 154 137 Q 132 103 155 65 Q 165 46 186 61 Q 243 112 245 212 Q 248 248 239 274 Q 233 284 227 284 Q 217 283 213 273 Z" class="stroke4"/>
    <path d="M 315 246 Q 330 132 410 72 Q 521 -10 737 3 Q 767 7 796 17 Q 824 27 827 43 Q 831 53 795 84 Q 740 142 700 199 Q 690 215 685 209 Q 681 205 705 124 Q 717 78 702 66 Q 690 63 665 62 Q 476 62 402 140 Q 368 171 353 228 Q 349 250 337 255 Q 325 262 318 259 Q 314 258 315 246 Z" class="stroke5"/>
    <path d="M 477 266 Q 508 244 542 216 Q 555 204 571 206 Q 581 207 585 220 Q 588 235 578 263 Q 568 291 469 312 Q 453 313 448 311 Q 444 307 446 295 Q 450 285 477 266 Z" class="stroke6"/>
    <path d="M 717 329 Q 778 292 853 233 Q 872 217 887 216 Q 894 216 901 227 Q 910 240 891 280 Q 869 334 713 358 Q 703 362 703 350 Q 704 337 717 329 Z" class="stroke7"/>
    
    
    
    
    
    
    </g>
</svg>