<svg version="1.1" viewBox="0 0 1024 1024" xmlns="http://www.w3.org/2000/svg">
  
  <g transform="scale(1, -1) translate(0, -900)">
    <style type="text/css">
        .stroke1 {fill: #808080;}
        .stroke2 {fill: #808079;}
        .stroke3 {fill: #808078;}
        .stroke4 {fill: #808077;}
        .stroke5 {fill: #808076;}
        .stroke6 {fill: #808075;}
        .stroke7 {fill: #808074;}
        .stroke8 {fill: #808073;}
        .stroke9 {fill: #808072;}
        .stroke10 {fill: #808071;}
        .stroke11 {fill: #808070;}
        .stroke12 {fill: #808069;}
        .stroke13 {fill: #808068;}
        .stroke14 {fill: #808067;}
        .stroke15 {fill: #808066;}
        .stroke16 {fill: #808065;}
        .stroke17 {fill: #808064;}
        .stroke18 {fill: #808063;}
        .stroke19 {fill: #808062;}
        .stroke20 {fill: #808061;}
        text {
            font-family: Helvetica;
            font-size: 50px;
            fill: #808060;
            paint-order: stroke;
            stroke: #000000;
            stroke-width: 4px;
            stroke-linecap: butt;
            stroke-linejoin: miter;
            font-weight: 800;
        }
    </style>

    <path d="M 568 531 Q 700 570 703 572 Q 713 581 708 591 Q 699 604 666 612 Q 630 618 550 586 L 500 569 Q 352 527 219 510 Q 177 503 207 484 Q 255 457 318 474 Q 415 496 516 519 L 568 531 Z" class="stroke1"/>
    <path d="M 138 284 Q 123 226 98 171 Q 85 141 104 110 Q 114 95 131 109 Q 149 127 158 157 Q 171 200 168 235 Q 169 266 159 287 Q 155 294 148 295 Q 141 292 138 284 Z" class="stroke2"/>
    <path d="M 580 105 Q 577 115 561 129 Q 536 150 471 223 Q 467 230 461 229 Q 458 229 460 223 Q 469 186 478 146 Q 482 130 471 121 Q 453 109 382 118 Q 321 127 292 170 Q 273 201 261 236 Q 254 260 235 268 Q 220 275 215 269 Q 211 265 218 250 Q 225 234 243 191 Q 274 92 367 65 Q 484 32 570 91 Q 583 98 580 105 Z" class="stroke3"/>
    <path d="M 296 323 Q 312 307 330 285 Q 342 272 357 272 Q 367 272 373 285 Q 377 298 371 327 Q 367 343 343 354 Q 288 375 272 371 Q 268 367 268 355 Q 271 345 296 323 Z" class="stroke4"/>
    <path d="M 447 333 Q 475 306 504 274 Q 514 264 527 262 Q 536 262 541 273 Q 545 285 541 309 Q 537 330 508 347 Q 441 380 428 375 Q 424 372 424 361 Q 427 351 447 333 Z" class="stroke5"/>
    <path d="M 516 519 Q 658 108 870 -27 Q 906 -49 923 -47 Q 939 -47 947 -32 Q 954 -20 939 29 Q 923 83 918 188 Q 918 222 907 223 Q 898 223 891 193 Q 873 79 848 85 Q 803 107 734 195 Q 644 310 568 531 L 550 586 Q 513 697 511 747 Q 518 792 490 804 Q 483 808 473 812 Q 446 824 431 823 Q 416 822 416 820 Q 392 810 417 786 Q 430 783 498 576 Q 498 573 500 569 L 516 519 Z" class="stroke6"/>
    <path d="M 640 742 Q 677 715 717 683 Q 733 670 749 673 Q 761 674 765 688 Q 769 704 757 735 Q 742 771 631 792 Q 615 795 608 791 Q 602 787 605 773 Q 609 763 640 742 Z" class="stroke7"/>
    
    
    
    
    
    
    </g>
</svg>