<svg version="1.1" viewBox="0 0 1024 1024" xmlns="http://www.w3.org/2000/svg">
  
  <g transform="scale(1, -1) translate(0, -900)">
    <style type="text/css">
        .stroke1 {fill: #808080;}
        .stroke2 {fill: #808079;}
        .stroke3 {fill: #808078;}
        .stroke4 {fill: #808077;}
        .stroke5 {fill: #808076;}
        .stroke6 {fill: #808075;}
        .stroke7 {fill: #808074;}
        .stroke8 {fill: #808073;}
        .stroke9 {fill: #808072;}
        .stroke10 {fill: #808071;}
        .stroke11 {fill: #808070;}
        .stroke12 {fill: #808069;}
        .stroke13 {fill: #808068;}
        .stroke14 {fill: #808067;}
        .stroke15 {fill: #808066;}
        .stroke16 {fill: #808065;}
        .stroke17 {fill: #808064;}
        .stroke18 {fill: #808063;}
        .stroke19 {fill: #808062;}
        .stroke20 {fill: #808061;}
        text {
            font-family: Helvetica;
            font-size: 50px;
            fill: #808060;
            paint-order: stroke;
            stroke: #000000;
            stroke-width: 4px;
            stroke-linecap: butt;
            stroke-linejoin: miter;
            font-weight: 800;
        }
    </style>

    <path d="M 317 638 Q 304 644 271 648 Q 258 651 255 645 Q 248 638 258 622 Q 292 559 315 455 Q 319 424 338 403 Q 359 381 363 398 Q 366 408 366 425 L 361 458 Q 349 494 332 601 C 327 631 327 634 317 638 Z" class="stroke1"/>
    <path d="M 712 499 Q 748 587 786 611 Q 805 632 790 653 Q 712 725 642 694 Q 590 679 542 667 L 483 657 Q 401 645 317 638 C 287 635 302 598 332 601 Q 345 601 362 605 Q 423 615 484 624 L 540 633 Q 585 640 632 648 Q 666 655 679 640 Q 689 630 685 610 Q 670 549 652 501 C 642 473 700 471 712 499 Z" class="stroke2"/>
    <path d="M 534 447 Q 616 456 726 462 Q 736 463 739 472 Q 739 479 712 499 C 699 509 682 506 652 501 Q 591 491 536 480 L 487 472 Q 420 465 361 458 C 331 454 336 424 366 425 Q 372 424 383 426 Q 425 435 488 441 L 534 447 Z" class="stroke3"/>
    <path d="M 488 441 Q 488 356 501 335 Q 514 322 522 340 Q 531 358 534 447 L 536 480 Q 537 510 538 547 Q 539 595 540 633 L 542 667 Q 546 757 559 772 Q 565 785 547 800 Q 525 816 486 827 Q 470 831 458 819 Q 448 812 460 801 Q 476 788 479 768 Q 480 728 483 657 L 484 624 Q 485 603 486 579 Q 487 513 487 472 L 488 441 Z" class="stroke4"/>
    <path d="M 213 265 Q 188 195 151 130 Q 130 94 151 57 Q 161 38 183 53 Q 240 102 244 204 Q 248 240 239 266 Q 233 276 227 276 Q 217 275 213 265 Z" class="stroke5"/>
    <path d="M 867 81 Q 861 93 840 106 Q 806 127 715 200 Q 708 207 701 206 Q 698 205 701 197 Q 717 160 735 118 Q 742 102 732 90 Q 716 75 668 69 Q 598 60 528 71 Q 423 89 393 157 Q 378 194 370 235 Q 367 263 348 275 Q 332 287 325 280 Q 324 280 342 188 Q 357 100 404 58 Q 512 -23 708 4 Q 744 10 779 20 Q 815 30 855 63 Q 870 72 867 81 Z" class="stroke6"/>
    <path d="M 498 261 Q 552 198 587 183 Q 602 180 611 193 Q 618 205 615 221 Q 603 267 510 298 Q 494 304 485 300 Q 479 299 481 287 Q 482 275 498 261 Z" class="stroke7"/>
    <path d="M 742 318 Q 806 278 884 215 Q 905 197 921 195 Q 931 195 937 207 Q 947 223 927 266 Q 908 309 830 328 Q 803 341 738 351 Q 728 355 728 341 Q 729 328 742 318 Z" class="stroke8"/>
    
    
    
    
    
    
    
    </g>
</svg>