<svg version="1.1" viewBox="0 0 1024 1024" xmlns="http://www.w3.org/2000/svg">
  
  <g transform="scale(1, -1) translate(0, -900)">
    <style type="text/css">
        .stroke1 {fill: #808080;}
        .stroke2 {fill: #808079;}
        .stroke3 {fill: #808078;}
        .stroke4 {fill: #808077;}
        .stroke5 {fill: #808076;}
        .stroke6 {fill: #808075;}
        .stroke7 {fill: #808074;}
        .stroke8 {fill: #808073;}
        .stroke9 {fill: #808072;}
        .stroke10 {fill: #808071;}
        .stroke11 {fill: #808070;}
        .stroke12 {fill: #808069;}
        .stroke13 {fill: #808068;}
        .stroke14 {fill: #808067;}
        .stroke15 {fill: #808066;}
        .stroke16 {fill: #808065;}
        .stroke17 {fill: #808064;}
        .stroke18 {fill: #808063;}
        .stroke19 {fill: #808062;}
        .stroke20 {fill: #808061;}
        text {
            font-family: Helvetica;
            font-size: 50px;
            fill: #808060;
            paint-order: stroke;
            stroke: #000000;
            stroke-width: 4px;
            stroke-linecap: butt;
            stroke-linejoin: miter;
            font-weight: 800;
        }
    </style>

    <path d="M 134 557 Q 113 484 80 418 Q 73 405 73 389 Q 73 364 83 348 Q 93 330 113 345 Q 135 364 147 398 Q 168 453 166 499 Q 169 533 159 559 Q 153 566 147 568 Q 138 565 134 557 Z" class="stroke1"/>
    <path d="M 299 606 Q 371 542 388 540 Q 397 541 401 553 Q 405 566 397 591 Q 393 609 365 621 Q 337 631 307 638 Q 303 639 301 638 C 271 636 277 626 299 606 Z" class="stroke2"/>
    <path d="M 301 638 Q 305 696 318 740 Q 328 755 324 769 Q 317 779 262 813 Q 238 831 217 815 Q 213 809 218 794 Q 249 745 251 670 Q 251 238 231 150 Q 213 77 219 57 Q 234 -4 250 -11 Q 256 -18 264 -9 Q 271 -5 282 16 Q 292 41 291 73 Q 290 122 299 581 Q 299 594 299 606 L 301 638 Z" class="stroke3"/>
    <path d="M 542 624 Q 570 658 599 705 Q 615 732 628 745 Q 637 755 632 769 Q 628 782 598 803 Q 571 819 552 819 Q 533 818 543 795 Q 561 764 503 654 Q 476 603 437 547 Q 428 537 426 530 Q 423 520 437 522 Q 464 529 525 603 L 542 624 Z" class="stroke4"/>
    <path d="M 641 598 Q 812 641 816 645 Q 823 652 819 661 Q 812 671 784 678 Q 760 681 665 650 Q 587 632 542 624 C 512 619 498 616 525 603 Q 556 587 587 589 L 641 598 Z" class="stroke5"/>
    <path d="M 669 388 Q 753 398 877 401 Q 940 401 945 412 Q 951 425 932 440 Q 866 485 805 464 Q 750 452 670 436 L 615 426 Q 507 410 385 389 Q 363 386 380 367 Q 413 337 477 353 Q 540 371 615 380 L 669 388 Z" class="stroke6"/>
    <path d="M 617 -10 Q 623 -35 630 -45 Q 636 -52 643 -50 Q 658 -41 664 19 Q 673 94 670 168 Q 667 220 669 388 L 670 436 Q 670 493 681 554 Q 685 572 670 581 Q 654 591 641 598 C 615 613 574 616 587 589 Q 588 588 591 583 Q 612 534 614 519 Q 614 458 615 426 L 615 380 Q 609 59 617 -10 Z" class="stroke7"/>
    
    
    
    
    
    
    </g>
</svg>