<svg version="1.1" viewBox="0 0 1024 1024" xmlns="http://www.w3.org/2000/svg">
  
  <g transform="scale(1, -1) translate(0, -900)">
    <style type="text/css">
        .stroke1 {fill: #808080;}
        .stroke2 {fill: #808079;}
        .stroke3 {fill: #808078;}
        .stroke4 {fill: #808077;}
        .stroke5 {fill: #808076;}
        .stroke6 {fill: #808075;}
        .stroke7 {fill: #808074;}
        .stroke8 {fill: #808073;}
        .stroke9 {fill: #808072;}
        .stroke10 {fill: #808071;}
        .stroke11 {fill: #808070;}
        .stroke12 {fill: #808069;}
        .stroke13 {fill: #808068;}
        .stroke14 {fill: #808067;}
        .stroke15 {fill: #808066;}
        .stroke16 {fill: #808065;}
        .stroke17 {fill: #808064;}
        .stroke18 {fill: #808063;}
        .stroke19 {fill: #808062;}
        .stroke20 {fill: #808061;}
        text {
            font-family: Helvetica;
            font-size: 50px;
            fill: #808060;
            paint-order: stroke;
            stroke: #000000;
            stroke-width: 4px;
            stroke-linecap: butt;
            stroke-linejoin: miter;
            font-weight: 800;
        }
    </style>

    <path d="M 156 520 Q 137 454 107 394 Q 89 361 111 328 Q 121 310 141 325 Q 189 374 187 466 Q 188 499 179 523 Q 173 530 167 531 Q 160 530 156 520 Z" class="stroke1"/>
    <path d="M 310 537 Q 325 528 378 484 Q 391 474 404 476 Q 414 477 417 488 Q 420 501 411 527 Q 399 555 319 567 Q 316 568 311 568 C 281 570 285 553 310 537 Z" class="stroke2"/>
    <path d="M 311 568 Q 312 659 330 720 Q 340 735 336 748 Q 329 758 274 793 Q 250 811 229 795 Q 225 789 230 774 Q 260 728 262 652 Q 262 231 242 142 Q 224 70 231 50 Q 246 -11 262 -19 Q 268 -26 276 -17 Q 283 -13 294 8 Q 304 33 303 65 Q 302 113 310 537 L 311 568 Z" class="stroke3"/>
    <path d="M 641 551 Q 818 594 823 599 Q 832 608 827 616 Q 820 628 790 635 Q 759 641 729 628 Q 686 613 644 599 L 594 586 Q 534 574 469 566 Q 432 559 459 542 Q 501 521 569 536 Q 579 539 593 540 L 641 551 Z" class="stroke4"/>
    <path d="M 630 415 Q 634 485 641 551 L 644 599 Q 648 711 670 773 Q 674 785 654 800 Q 618 819 594 824 Q 578 828 570 819 Q 563 812 570 796 Q 592 762 593 739 Q 594 666 594 586 L 593 540 Q 592 476 587 403 C 585 373 628 385 630 415 Z" class="stroke5"/>
    <path d="M 660 175 Q 700 236 737 328 Q 750 359 773 379 Q 794 395 780 411 Q 767 424 732 437 Q 710 444 630 415 L 587 403 Q 545 396 484 388 Q 468 387 463 379 Q 459 372 479 363 Q 519 347 572 363 Q 642 387 655 386 Q 680 382 674 355 Q 653 271 619 212 L 593 176 Q 517 89 373 49 Q 357 45 370 35 Q 377 31 424 33 Q 532 42 627 135 L 660 175 Z" class="stroke6"/>
    <path d="M 627 135 Q 676 80 757 9 Q 787 -15 832 -5 Q 890 5 934 13 Q 949 14 961 21 Q 968 28 956 37 Q 940 46 815 84 Q 740 105 660 175 L 619 212 Q 580 249 539 295 Q 518 319 484 324 Q 472 325 463 319 Q 459 312 467 304 Q 474 298 483 294 Q 508 281 593 176 L 627 135 Z" class="stroke7"/>
    
    
    
    
    
    
    </g>
</svg>