<svg version="1.1" viewBox="0 0 1024 1024" xmlns="http://www.w3.org/2000/svg">
  
  <g transform="scale(1, -1) translate(0, -900)">
    <style type="text/css">
        .stroke1 {fill: #808080;}
        .stroke2 {fill: #808079;}
        .stroke3 {fill: #808078;}
        .stroke4 {fill: #808077;}
        .stroke5 {fill: #808076;}
        .stroke6 {fill: #808075;}
        .stroke7 {fill: #808074;}
        .stroke8 {fill: #808073;}
        .stroke9 {fill: #808072;}
        .stroke10 {fill: #808071;}
        .stroke11 {fill: #808070;}
        .stroke12 {fill: #808069;}
        .stroke13 {fill: #808068;}
        .stroke14 {fill: #808067;}
        .stroke15 {fill: #808066;}
        .stroke16 {fill: #808065;}
        .stroke17 {fill: #808064;}
        .stroke18 {fill: #808063;}
        .stroke19 {fill: #808062;}
        .stroke20 {fill: #808061;}
        text {
            font-family: Helvetica;
            font-size: 50px;
            fill: #808060;
            paint-order: stroke;
            stroke: #000000;
            stroke-width: 4px;
            stroke-linecap: butt;
            stroke-linejoin: miter;
            font-weight: 800;
        }
    </style>

    <path d="M 123 512 Q 104 442 73 377 Q 67 365 68 348 Q 69 323 79 308 Q 89 290 109 306 Q 130 325 141 360 Q 159 412 156 455 Q 157 489 147 515 Q 141 522 135 523 Q 126 522 123 512 Z" class="stroke1"/>
    <path d="M 279 560 Q 286 553 309 537 Q 364 494 380 494 Q 390 495 393 508 Q 396 523 385 548 Q 373 572 300 580 Q 285 581 280 579 C 263 575 263 575 279 560 Z" class="stroke2"/>
    <path d="M 280 579 Q 281 667 299 728 Q 308 743 305 757 Q 298 767 242 801 Q 218 817 197 802 Q 193 798 198 782 Q 231 733 232 666 Q 232 234 221 166 Q 215 127 204 89 Q 192 47 219 -14 Q 226 -32 234 -35 Q 241 -42 248 -33 Q 255 -29 266 -8 Q 276 17 275 49 Q 274 100 279 560 L 280 579 Z" class="stroke3"/>
    <path d="M 456 576 Q 465 489 378 396 Q 356 374 345 360 Q 338 345 352 349 Q 397 353 473 448 Q 500 491 533 536 Q 543 548 530 562 Q 490 595 465 592 Q 455 589 456 576 Z" class="stroke4"/>
    <path d="M 544 732 Q 586 708 625 635 Q 739 413 799 402 Q 898 402 939 404 Q 969 405 969 414 Q 969 421 941 431 Q 778 491 709 587 Q 673 635 627 711 Q 608 744 571 747 Q 544 750 542 743 Q 538 736 544 732 Z" class="stroke5"/>
    <path d="M 708 190 Q 605 174 495 147 Q 485 143 481 146 Q 478 150 484 161 Q 586 312 608 338 Q 620 350 613 363 Q 606 376 554 398 Q 536 405 526 400 Q 513 393 520 372 Q 542 309 443 179 Q 421 155 387 129 Q 372 116 377 104 Q 384 86 411 66 Q 423 56 437 67 Q 482 106 703 159 Q 715 163 724 167 C 752 178 738 195 708 190 Z" class="stroke6"/>
    <path d="M 724 167 Q 799 58 807 52 Q 816 49 825 58 Q 840 70 835 116 Q 832 176 675 274 Q 666 281 662 268 Q 659 255 668 243 Q 687 219 708 190 L 724 167 Z" class="stroke7"/>
    
    
    
    
    
    
    </g>
</svg>