<svg version="1.1" viewBox="0 0 1024 1024" xmlns="http://www.w3.org/2000/svg">
  
  <g transform="scale(1, -1) translate(0, -900)">
    <style type="text/css">
        .stroke1 {fill: #808080;}
        .stroke2 {fill: #808079;}
        .stroke3 {fill: #808078;}
        .stroke4 {fill: #808077;}
        .stroke5 {fill: #808076;}
        .stroke6 {fill: #808075;}
        .stroke7 {fill: #808074;}
        .stroke8 {fill: #808073;}
        .stroke9 {fill: #808072;}
        .stroke10 {fill: #808071;}
        .stroke11 {fill: #808070;}
        .stroke12 {fill: #808069;}
        .stroke13 {fill: #808068;}
        .stroke14 {fill: #808067;}
        .stroke15 {fill: #808066;}
        .stroke16 {fill: #808065;}
        .stroke17 {fill: #808064;}
        .stroke18 {fill: #808063;}
        .stroke19 {fill: #808062;}
        .stroke20 {fill: #808061;}
        text {
            font-family: Helvetica;
            font-size: 50px;
            fill: #808060;
            paint-order: stroke;
            stroke: #000000;
            stroke-width: 4px;
            stroke-linecap: butt;
            stroke-linejoin: miter;
            font-weight: 800;
        }
    </style>

    <path d="M 381 660 Q 465 772 466 778 Q 465 782 464 785 Q 461 797 434 820 Q 409 839 391 839 Q 373 838 380 816 Q 398 776 315 652 Q 276 597 223 533 Q 213 524 211 518 Q 207 508 221 509 Q 257 515 365 640 L 381 660 Z" class="stroke1"/>
    <path d="M 586 663 Q 601 672 675 675 Q 690 675 696 668 Q 708 629 675 485 Q 653 419 640 400 Q 628 381 615 380 Q 605 379 549 409 Q 540 413 539 408 Q 538 404 547 393 Q 578 344 590 311 Q 596 292 608 290 Q 621 286 637 299 Q 695 332 742 502 Q 770 628 782 637 Q 783 640 787 642 Q 800 655 800 663 Q 794 690 720 720 Q 699 729 615 704 Q 603 703 592 699 Q 520 683 381 660 C 351 655 335 645 365 640 Q 366 640 368 639 Q 384 635 405 635 L 448 640 Q 500 649 547 656 L 586 663 Z" class="stroke2"/>
    <path d="M 405 635 Q 411 584 341 489 Q 338 489 338 486 Q 316 459 261 405 Q 254 401 262 399 Q 346 421 458 591 Q 464 600 468 603 Q 472 607 472 615 Q 469 630 448 640 C 422 655 404 665 405 635 Z" class="stroke3"/>
    <path d="M 547 656 Q 559 605 465 448 Q 459 441 453 431 Q 416 382 346 322 Q 339 318 336 313 Q 330 303 340 302 Q 385 302 465 377 Q 535 449 596 579 Q 600 589 608 597 Q 620 607 617 622 Q 608 641 586 663 C 565 685 544 686 547 656 Z" class="stroke4"/>
    <path d="M 216 251 Q 185 181 144 118 Q 122 79 140 43 Q 147 22 172 36 Q 197 54 214 89 Q 239 140 243 185 Q 250 222 242 250 Q 238 260 230 261 Q 220 260 216 251 Z" class="stroke5"/>
    <path d="M 312 207 Q 330 93 413 32 Q 528 -47 741 -32 Q 777 -28 808 -15 Q 836 -5 839 12 Q 843 24 801 55 Q 737 116 691 177 Q 678 196 672 188 Q 668 181 672 165 Q 687 123 699 78 Q 703 56 697 46 Q 687 33 644 33 Q 472 36 402 105 Q 371 135 358 186 Q 351 213 339 219 Q 324 228 316 223 Q 309 222 312 207 Z" class="stroke6"/>
    <path d="M 483 242 Q 520 185 553 166 Q 568 162 579 173 Q 586 186 586 203 Q 579 246 500 280 Q 484 287 474 284 Q 468 283 469 271 Q 469 258 483 242 Z" class="stroke7"/>
    <path d="M 736 265 Q 803 229 885 175 Q 907 159 922 158 Q 932 159 936 171 Q 946 187 922 227 Q 898 279 729 296 Q 719 299 720 286 Q 723 273 736 265 Z" class="stroke8"/>
    
    
    
    
    
    
    
    </g>
</svg>