<svg version="1.1" viewBox="0 0 1024 1024" xmlns="http://www.w3.org/2000/svg">
  
  <g transform="scale(1, -1) translate(0, -900)">
    <style type="text/css">
        .stroke1 {fill: #808080;}
        .stroke2 {fill: #808079;}
        .stroke3 {fill: #808078;}
        .stroke4 {fill: #808077;}
        .stroke5 {fill: #808076;}
        .stroke6 {fill: #808075;}
        .stroke7 {fill: #808074;}
        .stroke8 {fill: #808073;}
        .stroke9 {fill: #808072;}
        .stroke10 {fill: #808071;}
        .stroke11 {fill: #808070;}
        .stroke12 {fill: #808069;}
        .stroke13 {fill: #808068;}
        .stroke14 {fill: #808067;}
        .stroke15 {fill: #808066;}
        .stroke16 {fill: #808065;}
        .stroke17 {fill: #808064;}
        .stroke18 {fill: #808063;}
        .stroke19 {fill: #808062;}
        .stroke20 {fill: #808061;}
        text {
            font-family: Helvetica;
            font-size: 50px;
            fill: #808060;
            paint-order: stroke;
            stroke: #000000;
            stroke-width: 4px;
            stroke-linecap: butt;
            stroke-linejoin: miter;
            font-weight: 800;
        }
    </style>

    <path d="M 293 725 Q 263 741 232 747 Q 225 748 219 743 Q 212 736 223 724 Q 274 655 297 478 Q 306 406 349 384 L 351 383 Q 369 380 369 407 L 366 439 Q 362 463 352 488 Q 321 647 314 689 C 309 717 309 717 293 725 Z" class="stroke1"/>
    <path d="M 623 443 Q 624 442 626 438 Q 648 401 668 392 Q 681 383 698 407 Q 719 444 759 648 Q 769 684 796 712 Q 812 725 798 742 Q 780 761 732 791 Q 711 801 619 780 Q 595 779 417 747 Q 350 734 293 725 C 263 720 285 682 314 689 Q 378 705 470 721 L 510 727 Q 564 739 628 746 Q 674 752 688 736 Q 707 714 703 691 Q 669 504 653 476 Q 649 466 639 461 C 623 442 623 444 623 443 Z" class="stroke2"/>
    <path d="M 532 576 Q 574 583 613 589 Q 638 593 629 607 Q 617 623 589 628 Q 567 632 535 623 L 484 608 Q 436 595 396 583 Q 377 579 400 562 Q 409 556 484 568 L 532 576 Z" class="stroke3"/>
    <path d="M 526 469 Q 529 527 532 576 L 535 623 Q 536 641 537 656 Q 538 669 539 678 Q 546 696 537 705 Q 524 718 510 727 C 485 744 459 749 470 721 Q 480 703 484 615 Q 483 612 484 608 L 484 568 Q 484 525 484 460 C 484 430 524 439 526 469 Z" class="stroke4"/>
    <path d="M 369 407 Q 415 422 623 443 C 653 446 656 446 639 461 Q 632 468 616 479 Q 598 488 526 469 L 484 460 Q 420 448 366 439 C 336 434 340 399 369 407 Z" class="stroke5"/>
    <path d="M 206 303 Q 179 236 142 175 Q 121 142 140 105 Q 147 86 170 100 Q 192 116 208 150 Q 230 199 233 243 Q 237 277 231 303 Q 225 312 219 313 Q 210 312 206 303 Z" class="stroke6"/>
    <path d="M 330 268 Q 345 154 432 90 Q 480 56 561 41 Q 633 22 726 20 Q 787 23 834 40 Q 862 50 865 68 Q 869 78 830 110 Q 772 170 729 230 Q 717 248 712 241 Q 708 234 712 219 Q 749 108 730 93 Q 717 87 686 86 Q 497 86 422 161 Q 386 194 372 249 Q 366 274 354 279 Q 341 286 333 283 Q 327 282 330 268 Z" class="stroke7"/>
    <path d="M 487 324 Q 539 266 574 250 Q 590 247 599 261 Q 605 274 602 291 Q 590 336 502 362 Q 501 363 500 363 Q 484 367 473 364 Q 467 363 470 350 Q 471 338 487 324 Z" class="stroke8"/>
    <path d="M 770 367 Q 828 330 898 274 Q 917 258 934 255 Q 943 255 949 267 Q 959 283 939 324 Q 917 373 766 399 Q 756 403 756 390 Q 757 377 770 367 Z" class="stroke9"/>
    
    
    
    
    
    
    
    
    </g>
</svg>