<svg version="1.1" viewBox="0 0 1024 1024" xmlns="http://www.w3.org/2000/svg">
  
  <g transform="scale(1, -1) translate(0, -900)">
    <style type="text/css">
        .stroke1 {fill: #808080;}
        .stroke2 {fill: #808079;}
        .stroke3 {fill: #808078;}
        .stroke4 {fill: #808077;}
        .stroke5 {fill: #808076;}
        .stroke6 {fill: #808075;}
        .stroke7 {fill: #808074;}
        .stroke8 {fill: #808073;}
        .stroke9 {fill: #808072;}
        .stroke10 {fill: #808071;}
        .stroke11 {fill: #808070;}
        .stroke12 {fill: #808069;}
        .stroke13 {fill: #808068;}
        .stroke14 {fill: #808067;}
        .stroke15 {fill: #808066;}
        .stroke16 {fill: #808065;}
        .stroke17 {fill: #808064;}
        .stroke18 {fill: #808063;}
        .stroke19 {fill: #808062;}
        .stroke20 {fill: #808061;}
        text {
            font-family: Helvetica;
            font-size: 50px;
            fill: #808060;
            paint-order: stroke;
            stroke: #000000;
            stroke-width: 4px;
            stroke-linecap: butt;
            stroke-linejoin: miter;
            font-weight: 800;
        }
    </style>

    <path d="M 107 492 Q 86 417 54 349 Q 35 312 59 280 Q 69 262 89 278 Q 110 297 121 332 Q 142 387 140 435 Q 141 469 131 495 Q 125 502 119 503 Q 110 502 107 492 Z" class="stroke1"/>
    <path d="M 259 557 Q 265 553 274 547 Q 301 529 330 506 Q 345 496 359 497 Q 369 498 373 512 Q 376 527 364 554 Q 357 572 327 582 Q 266 597 260 592 C 231 584 234 574 259 557 Z" class="stroke2"/>
    <path d="M 260 592 Q 263 673 279 728 Q 288 743 285 757 Q 278 767 222 801 Q 198 817 177 802 Q 173 798 178 782 Q 211 734 212 667 Q 212 235 199 163 Q 193 130 184 96 Q 172 54 199 -6 Q 206 -24 214 -27 Q 220 -34 228 -25 Q 235 -21 246 0 Q 256 25 255 57 Q 254 106 259 557 L 260 592 Z" class="stroke3"/>
    <path d="M 733 614 Q 761 683 790 699 Q 806 718 791 738 Q 707 796 656 766 Q 584 733 489 712 C 460 705 480 672 509 680 Q 602 707 666 723 Q 682 727 690 721 Q 697 714 695 698 Q 686 652 675 615 C 667 586 721 586 733 614 Z" class="stroke4"/>
    <path d="M 493 536 Q 512 530 527 534 Q 597 555 749 579 Q 761 580 761 590 Q 761 599 733 614 C 711 626 704 624 675 615 Q 575 584 495 567 C 466 561 464 544 493 536 Z" class="stroke5"/>
    <path d="M 489 712 Q 477 721 460 727 Q 441 736 430 731 Q 418 724 425 711 Q 444 687 445 615 Q 444 608 444 597 Q 441 432 405 314 Q 372 212 301 94 Q 297 87 295 81 Q 294 71 303 73 Q 336 79 412 214 Q 421 233 430 253 Q 481 385 493 536 L 495 567 Q 495 571 496 573 Q 499 661 509 680 C 514 698 514 698 489 712 Z" class="stroke6"/>
    <path d="M 576 237 Q 577 237 583 237 Q 628 267 772 377 Q 793 396 820 407 Q 844 417 832 438 Q 817 457 788 473 Q 761 489 747 486 Q 732 485 737 469 Q 743 435 612 294 Q 594 276 577 255 C 559 233 559 233 576 237 Z" class="stroke7"/>
    <path d="M 951 106 Q 933 149 919 225 Q 918 241 909 246 Q 902 250 898 230 Q 885 139 871 121 Q 841 90 714 88 Q 645 91 616 103 Q 591 116 585 134 Q 575 164 576 237 L 577 255 Q 584 339 603 377 Q 616 407 598 425 Q 549 465 533 461 Q 517 455 524 438 Q 543 399 537 344 Q 525 140 551 98 Q 569 62 657 46 Q 718 36 813 38 Q 898 39 933 58 Q 964 74 951 106 Z" class="stroke8"/>
    
    
    
    
    
    
    
    </g>
</svg>