<svg version="1.1" viewBox="0 0 1024 1024" xmlns="http://www.w3.org/2000/svg">
  
  <g transform="scale(1, -1) translate(0, -900)">
    <style type="text/css">
        .stroke1 {fill: #808080;}
        .stroke2 {fill: #808079;}
        .stroke3 {fill: #808078;}
        .stroke4 {fill: #808077;}
        .stroke5 {fill: #808076;}
        .stroke6 {fill: #808075;}
        .stroke7 {fill: #808074;}
        .stroke8 {fill: #808073;}
        .stroke9 {fill: #808072;}
        .stroke10 {fill: #808071;}
        .stroke11 {fill: #808070;}
        .stroke12 {fill: #808069;}
        .stroke13 {fill: #808068;}
        .stroke14 {fill: #808067;}
        .stroke15 {fill: #808066;}
        .stroke16 {fill: #808065;}
        .stroke17 {fill: #808064;}
        .stroke18 {fill: #808063;}
        .stroke19 {fill: #808062;}
        .stroke20 {fill: #808061;}
        text {
            font-family: Helvetica;
            font-size: 50px;
            fill: #808060;
            paint-order: stroke;
            stroke: #000000;
            stroke-width: 4px;
            stroke-linecap: butt;
            stroke-linejoin: miter;
            font-weight: 800;
        }
    </style>

    <path d="M 118 523 Q 99 453 68 388 Q 50 351 74 316 Q 84 298 106 314 Q 158 368 153 465 Q 154 501 143 526 Q 137 535 130 535 Q 121 534 118 523 Z" class="stroke1"/>
    <path d="M 293 571 Q 327 558 376 532 Q 391 525 403 529 Q 412 532 413 544 Q 414 557 399 580 Q 389 596 358 602 Q 327 603 294 603 C 264 603 265 582 293 571 Z" class="stroke2"/>
    <path d="M 294 603 Q 297 684 314 739 Q 323 755 320 768 Q 313 778 258 813 Q 234 831 213 815 Q 209 811 214 794 Q 244 748 246 663 Q 246 285 225 171 Q 219 149 213 125 Q 203 86 227 23 Q 234 4 242 1 Q 248 -6 256 3 Q 283 19 284 85 Q 283 134 293 571 L 294 603 Z" class="stroke3"/>
    <path d="M 633 695 Q 859 746 867 752 Q 877 761 872 771 Q 863 784 830 792 Q 803 796 685 760 Q 549 733 523 730 Q 481 723 511 704 Q 545 685 595 687 L 633 695 Z" class="stroke4"/>
    <path d="M 594 534 Q 633 624 649 647 Q 656 660 647 675 Q 641 685 633 695 C 615 719 596 717 595 687 Q 595 591 492 430 Q 443 364 446 327 Q 446 320 449 313 Q 453 297 468 305 Q 499 320 539 408 Q 560 456 582 506 L 594 534 Z" class="stroke5"/>
    <path d="M 678 165 Q 789 447 837 474 Q 858 487 849 504 Q 836 528 797 556 Q 779 574 744 565 Q 662 540 594 534 C 564 531 555 519 582 506 Q 583 506 587 504 Q 606 491 633 499 Q 667 505 699 513 Q 730 517 743 507 Q 750 498 741 470 Q 695 328 620 159 C 608 132 667 137 678 165 Z" class="stroke6"/>
    <path d="M 584 388 Q 611 357 634 348 Q 644 347 652 357 Q 656 367 654 380 Q 648 398 634 407 Q 631 408 593 418 Q 580 422 573 418 Q 569 417 570 408 Q 571 399 584 388 Z" class="stroke7"/>
    <path d="M 528 293 Q 558 245 579 235 Q 591 231 600 241 Q 606 251 606 265 Q 600 301 543 323 Q 530 329 522 327 Q 516 326 517 316 Q 517 306 528 293 Z" class="stroke8"/>
    <path d="M 620 159 Q 527 152 459 142 Q 383 132 327 132 Q 314 133 313 122 Q 312 112 330 98 Q 366 70 408 82 Q 492 112 758 130 Q 842 136 953 122 Q 975 119 980 128 Q 987 140 976 151 Q 949 176 909 194 Q 896 200 873 192 Q 839 182 793 177 Q 732 173 678 165 L 620 159 Z" class="stroke9"/>
    
    
    
    
    
    
    
    
    </g>
</svg>