<svg version="1.1" viewBox="0 0 1024 1024" xmlns="http://www.w3.org/2000/svg">
  
  <g transform="scale(1, -1) translate(0, -900)">
    <style type="text/css">
        .stroke1 {fill: #808080;}
        .stroke2 {fill: #808079;}
        .stroke3 {fill: #808078;}
        .stroke4 {fill: #808077;}
        .stroke5 {fill: #808076;}
        .stroke6 {fill: #808075;}
        .stroke7 {fill: #808074;}
        .stroke8 {fill: #808073;}
        .stroke9 {fill: #808072;}
        .stroke10 {fill: #808071;}
        .stroke11 {fill: #808070;}
        .stroke12 {fill: #808069;}
        .stroke13 {fill: #808068;}
        .stroke14 {fill: #808067;}
        .stroke15 {fill: #808066;}
        .stroke16 {fill: #808065;}
        .stroke17 {fill: #808064;}
        .stroke18 {fill: #808063;}
        .stroke19 {fill: #808062;}
        .stroke20 {fill: #808061;}
        text {
            font-family: Helvetica;
            font-size: 50px;
            fill: #808060;
            paint-order: stroke;
            stroke: #000000;
            stroke-width: 4px;
            stroke-linecap: butt;
            stroke-linejoin: miter;
            font-weight: 800;
        }
    </style>

    <path d="M 532 669 Q 673 699 678 701 Q 687 708 683 716 Q 676 728 648 736 Q 627 742 537 717 L 478 702 Q 420 692 350 687 Q 314 683 339 666 Q 378 639 436 653 Q 455 657 480 660 L 532 669 Z" class="stroke1"/>
    <path d="M 521 579 Q 525 625 532 669 L 537 717 Q 537 751 552 789 Q 555 799 536 813 Q 503 832 481 836 Q 465 839 458 831 Q 451 824 458 810 Q 474 789 474 774 Q 477 740 478 702 L 480 660 Q 480 620 480 573 C 480 543 518 549 521 579 Z" class="stroke2"/>
    <path d="M 499 538 Q 587 551 727 553 Q 784 550 792 562 Q 796 572 781 586 Q 723 625 675 610 Q 612 597 521 579 L 480 573 Q 371 557 244 538 Q 223 535 239 519 Q 252 506 270 501 Q 291 497 306 501 Q 376 522 458 532 L 499 538 Z" class="stroke3"/>
    <path d="M 531 418 Q 649 440 658 446 Q 667 453 662 461 Q 656 471 630 480 Q 605 486 535 464 L 473 450 Q 422 441 365 437 Q 332 433 355 417 Q 394 393 446 404 Q 458 408 475 409 L 531 418 Z" class="stroke4"/>
    <path d="M 525 348 Q 528 385 531 418 L 535 464 Q 541 500 535 508 Q 516 527 499 538 C 474 555 446 559 458 532 Q 470 508 473 450 L 475 409 Q 475 381 477 341 C 478 311 523 318 525 348 Z" class="stroke5"/>
    <path d="M 477 341 Q 372 329 252 313 Q 233 312 247 295 Q 260 282 278 276 Q 297 272 314 275 Q 456 314 755 313 Q 774 313 779 322 Q 783 332 768 346 Q 720 383 665 373 Q 608 363 525 348 L 477 341 Z" class="stroke6"/>
    <path d="M 213 201 Q 192 149 163 102 Q 142 66 163 29 Q 173 10 195 25 Q 243 67 244 140 Q 248 176 239 202 Q 233 212 227 212 Q 217 211 213 201 Z" class="stroke7"/>
    <path d="M 306 183 Q 327 74 414 19 Q 519 -45 728 -26 Q 767 -19 799 -4 Q 826 8 827 24 Q 831 34 791 61 Q 728 113 683 167 Q 670 185 664 176 Q 661 173 691 80 Q 700 44 664 35 Q 654 35 640 33 Q 472 26 399 88 Q 366 116 351 165 Q 344 190 330 195 Q 317 202 308 198 Q 302 197 306 183 Z" class="stroke8"/>
    <path d="M 467 226 Q 518 174 552 158 Q 567 155 575 169 Q 581 181 578 197 Q 563 242 478 263 Q 462 267 453 264 Q 447 263 450 251 Q 451 239 467 226 Z" class="stroke9"/>
    <path d="M 727 240 Q 784 206 854 153 Q 873 137 890 135 Q 899 135 905 147 Q 914 163 893 204 Q 869 255 721 271 Q 711 275 712 262 Q 713 249 727 240 Z" class="stroke10"/>
    
    
    
    
    
    
    
    
    
    </g>
</svg>