<svg version="1.1" viewBox="0 0 1024 1024" xmlns="http://www.w3.org/2000/svg">
  
  <g transform="scale(1, -1) translate(0, -900)">
    <style type="text/css">
        .stroke1 {fill: #808080;}
        .stroke2 {fill: #808079;}
        .stroke3 {fill: #808078;}
        .stroke4 {fill: #808077;}
        .stroke5 {fill: #808076;}
        .stroke6 {fill: #808075;}
        .stroke7 {fill: #808074;}
        .stroke8 {fill: #808073;}
        .stroke9 {fill: #808072;}
        .stroke10 {fill: #808071;}
        .stroke11 {fill: #808070;}
        .stroke12 {fill: #808069;}
        .stroke13 {fill: #808068;}
        .stroke14 {fill: #808067;}
        .stroke15 {fill: #808066;}
        .stroke16 {fill: #808065;}
        .stroke17 {fill: #808064;}
        .stroke18 {fill: #808063;}
        .stroke19 {fill: #808062;}
        .stroke20 {fill: #808061;}
        text {
            font-family: Helvetica;
            font-size: 50px;
            fill: #808060;
            paint-order: stroke;
            stroke: #000000;
            stroke-width: 4px;
            stroke-linecap: butt;
            stroke-linejoin: miter;
            font-weight: 800;
        }
    </style>

    <path d="M 115 502 Q 102 424 75 351 Q 62 315 86 283 Q 98 267 116 283 Q 167 343 154 448 Q 153 482 140 507 Q 133 514 127 514 Q 118 511 115 502 Z" class="stroke1"/>
    <path d="M 290 584 Q 294 580 303 574 Q 330 555 359 532 Q 369 523 382 525 Q 389 526 393 536 Q 396 548 387 570 Q 381 586 354 598 Q 327 605 297 611 Q 293 612 291 611 C 262 609 268 604 290 584 Z" class="stroke2"/>
    <path d="M 291 611 Q 294 687 310 739 Q 319 755 316 768 Q 309 778 254 813 Q 230 831 209 815 Q 205 811 210 794 Q 241 746 242 699 Q 243 629 244 549 Q 240 410 235 258 Q 231 182 209 113 Q 199 74 223 11 Q 230 -8 238 -11 Q 244 -18 252 -9 Q 279 7 280 73 Q 280 121 290 584 L 291 611 Z" class="stroke3"/>
    <path d="M 458 653 Q 443 663 426 669 Q 416 670 409 662 Q 405 656 413 645 Q 435 591 434 530 Q 435 292 396 178 Q 387 151 392 131 Q 399 95 412 81 Q 424 66 434 81 Q 468 118 470 251 Q 483 575 490 611 Q 490 615 490 618 C 491 634 484 638 458 653 Z" class="stroke4"/>
    <path d="M 490 618 Q 577 648 760 680 Q 778 683 786 673 Q 799 666 805 601 Q 821 387 811 142 Q 811 106 797 96 Q 784 89 719 108 Q 701 112 702 103 Q 703 94 716 87 Q 773 35 802 -5 Q 824 -27 838 -24 Q 851 -21 864 9 Q 883 58 883 130 Q 865 460 867 582 Q 868 622 880 646 Q 893 668 882 680 Q 872 696 823 721 Q 801 733 740 712 Q 599 673 458 653 C 428 649 461 609 490 618 Z" class="stroke5"/>
    <path d="M 542 517 Q 511 510 534 496 Q 570 477 618 492 Q 667 505 718 518 Q 740 525 744 528 Q 751 535 747 542 Q 740 552 715 557 Q 690 560 664 548 Q 639 538 610 530 Q 579 521 542 517 Z" class="stroke6"/>
    <path d="M 560 385 Q 550 391 523 397 Q 513 401 509 396 Q 503 392 509 376 Q 531 327 540 244 Q 541 220 554 203 Q 569 182 574 196 Q 578 208 579 228 L 577 260 Q 570 333 569 358 C 568 381 568 381 560 385 Z" class="stroke7"/>
    <path d="M 709 275 Q 728 338 748 356 Q 770 380 749 393 Q 731 405 707 421 Q 689 431 645 408 Q 596 393 560 385 C 531 378 540 351 569 358 Q 578 361 651 375 Q 673 379 678 371 Q 681 368 660 279 C 653 250 700 246 709 275 Z" class="stroke8"/>
    <path d="M 579 228 Q 585 228 592 229 Q 632 238 721 244 Q 731 245 732 253 Q 732 260 709 275 C 691 287 689 287 660 279 Q 614 267 577 260 C 548 254 549 227 579 228 Z" class="stroke9"/>
    
    
    
    
    
    
    
    
    </g>
</svg>