<svg version="1.1" viewBox="0 0 1024 1024" xmlns="http://www.w3.org/2000/svg">
  
  <g transform="scale(1, -1) translate(0, -900)">
    <style type="text/css">
        .stroke1 {fill: #808080;}
        .stroke2 {fill: #808079;}
        .stroke3 {fill: #808078;}
        .stroke4 {fill: #808077;}
        .stroke5 {fill: #808076;}
        .stroke6 {fill: #808075;}
        .stroke7 {fill: #808074;}
        .stroke8 {fill: #808073;}
        .stroke9 {fill: #808072;}
        .stroke10 {fill: #808071;}
        .stroke11 {fill: #808070;}
        .stroke12 {fill: #808069;}
        .stroke13 {fill: #808068;}
        .stroke14 {fill: #808067;}
        .stroke15 {fill: #808066;}
        .stroke16 {fill: #808065;}
        .stroke17 {fill: #808064;}
        .stroke18 {fill: #808063;}
        .stroke19 {fill: #808062;}
        .stroke20 {fill: #808061;}
        text {
            font-family: Helvetica;
            font-size: 50px;
            fill: #808060;
            paint-order: stroke;
            stroke: #000000;
            stroke-width: 4px;
            stroke-linecap: butt;
            stroke-linejoin: miter;
            font-weight: 800;
        }
    </style>

    <path d="M 122 549 Q 100 476 65 410 Q 58 398 58 381 Q 58 356 67 340 Q 77 322 98 337 Q 155 391 153 491 Q 156 525 147 551 Q 141 558 135 560 Q 126 559 122 549 Z" class="stroke1"/>
    <path d="M 287 586 Q 293 585 354 527 Q 366 517 379 517 Q 389 517 393 529 Q 397 542 390 567 Q 381 597 291 622 Q 290 623 288 622 C 258 625 261 601 287 586 Z" class="stroke2"/>
    <path d="M 288 622 Q 292 691 306 740 Q 316 755 312 769 Q 305 779 250 813 Q 226 831 205 815 Q 201 809 206 794 Q 236 748 238 674 Q 238 257 218 169 Q 200 100 207 77 Q 222 16 238 9 Q 244 2 252 11 Q 259 15 270 36 Q 280 61 279 93 Q 278 141 287 586 L 288 622 Z" class="stroke3"/>
    <path d="M 717 637 Q 632 627 543 606 Q 534 602 531 605 Q 528 609 534 619 Q 630 764 651 788 Q 663 798 656 812 Q 649 824 599 845 Q 581 852 572 848 Q 559 841 566 820 Q 585 766 490 631 Q 469 610 441 588 Q 428 575 431 564 Q 437 548 464 528 Q 476 518 489 529 Q 525 559 712 608 Q 725 612 736 617 C 764 628 747 641 717 637 Z" class="stroke4"/>
    <path d="M 736 617 Q 776 572 790 571 Q 800 570 805 581 Q 811 593 806 620 Q 803 645 769 668 Q 693 711 676 707 Q 672 704 671 693 Q 671 689 717 637 L 736 617 Z" class="stroke5"/>
    <path d="M 463 498 Q 464 431 387 367 Q 368 351 358 342 Q 349 330 363 332 Q 405 332 473 399 Q 479 406 526 454 Q 536 464 526 478 Q 493 511 473 512 Q 463 511 463 498 Z" class="stroke6"/>
    <path d="M 718 495 Q 758 468 802 435 Q 815 423 831 426 Q 841 427 845 440 Q 848 455 837 482 Q 822 519 709 540 Q 693 541 688 539 Q 684 535 686 523 Q 690 513 718 495 Z" class="stroke7"/>
    <path d="M 610 376 Q 625 397 626 400 Q 625 410 613 421 Q 583 451 554 446 Q 547 445 547 433 Q 559 372 456 256 Q 453 255 452 252 Q 422 221 350 159 Q 341 155 351 151 Q 420 164 519 263 L 538 285 Q 557 307 581 338 L 610 376 Z" class="stroke8"/>
    <path d="M 610 164 Q 535 71 380 28 Q 367 24 378 15 Q 385 11 430 13 Q 545 22 641 124 L 670 164 Q 706 221 739 302 Q 752 330 772 348 Q 791 363 780 377 Q 767 389 736 402 Q 715 408 639 382 Q 638 382 610 376 C 581 370 551 337 581 338 Q 605 337 635 343 Q 660 356 665 357 Q 689 353 682 328 Q 663 253 633 199 L 610 164 Z" class="stroke9"/>
    <path d="M 519 263 Q 549 242 610 164 L 641 124 Q 740 4 774 -1 Q 918 -1 928 0 Q 962 3 960 12 Q 957 22 809 75 Q 805 78 802 78 Q 736 106 670 164 L 633 199 Q 611 223 588 248 Q 563 278 538 285 C 510 297 496 282 519 263 Z" class="stroke10"/>
    
    
    
    
    
    
    
    
    
    </g>
</svg>