<svg version="1.1" viewBox="0 0 1024 1024" xmlns="http://www.w3.org/2000/svg">
  
  <g transform="scale(1, -1) translate(0, -900)">
    <style type="text/css">
        .stroke1 {fill: #808080;}
        .stroke2 {fill: #808079;}
        .stroke3 {fill: #808078;}
        .stroke4 {fill: #808077;}
        .stroke5 {fill: #808076;}
        .stroke6 {fill: #808075;}
        .stroke7 {fill: #808074;}
        .stroke8 {fill: #808073;}
        .stroke9 {fill: #808072;}
        .stroke10 {fill: #808071;}
        .stroke11 {fill: #808070;}
        .stroke12 {fill: #808069;}
        .stroke13 {fill: #808068;}
        .stroke14 {fill: #808067;}
        .stroke15 {fill: #808066;}
        .stroke16 {fill: #808065;}
        .stroke17 {fill: #808064;}
        .stroke18 {fill: #808063;}
        .stroke19 {fill: #808062;}
        .stroke20 {fill: #808061;}
        text {
            font-family: Helvetica;
            font-size: 50px;
            fill: #808060;
            paint-order: stroke;
            stroke: #000000;
            stroke-width: 4px;
            stroke-linecap: butt;
            stroke-linejoin: miter;
            font-weight: 800;
        }
    </style>

    <path d="M 129 548 Q 114 478 87 414 Q 74 378 95 350 Q 105 335 123 350 Q 142 369 150 401 Q 166 453 162 497 Q 162 528 152 551 Q 145 558 140 558 Q 133 557 129 548 Z" class="stroke1"/>
    <path d="M 291 565 Q 295 561 304 554 Q 355 503 368 502 Q 377 502 381 513 Q 385 525 379 549 Q 373 573 302 593 Q 298 594 292 595 C 262 600 269 585 291 565 Z" class="stroke2"/>
    <path d="M 292 595 Q 295 668 310 718 Q 319 733 315 746 Q 309 756 254 789 Q 232 805 211 791 Q 207 785 213 771 Q 243 723 244 662 Q 244 245 229 166 Q 208 85 225 40 Q 228 33 232 22 Q 239 4 246 1 Q 253 -6 260 2 Q 287 26 286 82 Q 285 130 291 565 L 292 595 Z" class="stroke3"/>
    <path d="M 393 646 Q 417 589 401 453 Q 397 429 418 398 Q 425 389 433 399 Q 446 417 447 502 Q 447 587 452 623 Q 456 641 441 650 Q 428 657 414 665 Q 404 668 397 663 Q 390 659 393 646 Z" class="stroke4"/>
    <path d="M 518 403 Q 522 382 528 374 Q 532 368 538 371 Q 550 377 556 425 Q 560 462 560 499 Q 559 530 564 652 Q 564 658 570 693 Q 573 706 561 715 Q 536 733 523 735 Q 513 739 500 731 Q 493 725 498 716 Q 510 698 512 679 Q 515 607 514 495 Q 515 426 518 403 Z" class="stroke5"/>
    <path d="M 751 616 Q 742 582 706 524 L 685 497 Q 636 449 589 421 Q 582 417 582 412 Q 583 408 590 408 Q 665 420 712 466 L 742 495 Q 779 544 813 619 Q 826 647 850 665 Q 863 674 863 683 Q 862 695 833 708 Q 799 727 785 727 Q 775 726 764 717 Q 656 677 624 672 Q 590 671 587 662 Q 586 658 593 654 Q 606 644 636 641 Q 670 642 729 670 Q 751 679 760 673 Q 767 669 751 616 Z" class="stroke6"/>
    <path d="M 706 524 Q 684 545 659 569 Q 629 600 601 600 Q 588 600 584 596 Q 583 590 595 582 Q 631 560 685 497 L 712 466 Q 799 367 846 366 Q 907 367 960 375 Q 988 379 986 387 Q 986 388 850 434 Q 790 455 742 495 L 706 524 Z" class="stroke7"/>
    <path d="M 626 232 Q 777 265 782 267 Q 792 274 787 284 Q 780 296 750 304 Q 719 311 688 299 Q 660 290 631 282 L 574 268 Q 510 255 439 250 Q 402 244 427 226 Q 467 205 543 216 Q 558 219 577 222 L 626 232 Z" class="stroke8"/>
    <path d="M 616 97 Q 620 167 626 232 L 631 282 Q 632 301 642 329 Q 645 339 627 351 Q 596 367 575 371 Q 562 374 554 367 Q 547 360 555 347 Q 568 328 574 268 L 577 222 Q 578 161 578 92 C 578 62 614 67 616 97 Z" class="stroke9"/>
    <path d="M 578 92 Q 481 82 370 68 Q 348 65 364 47 Q 379 32 398 26 Q 420 20 438 25 Q 579 61 857 61 Q 873 61 888 60 Q 910 60 915 69 Q 921 82 903 97 Q 849 139 807 130 Q 737 117 616 97 L 578 92 Z" class="stroke10"/>
    
    
    
    
    
    
    
    
    
    </g>
</svg>