<svg version="1.1" viewBox="0 0 1024 1024" xmlns="http://www.w3.org/2000/svg">
  
  <g transform="scale(1, -1) translate(0, -900)">
    <style type="text/css">
        .stroke1 {fill: #808080;}
        .stroke2 {fill: #808079;}
        .stroke3 {fill: #808078;}
        .stroke4 {fill: #808077;}
        .stroke5 {fill: #808076;}
        .stroke6 {fill: #808075;}
        .stroke7 {fill: #808074;}
        .stroke8 {fill: #808073;}
        .stroke9 {fill: #808072;}
        .stroke10 {fill: #808071;}
        .stroke11 {fill: #808070;}
        .stroke12 {fill: #808069;}
        .stroke13 {fill: #808068;}
        .stroke14 {fill: #808067;}
        .stroke15 {fill: #808066;}
        .stroke16 {fill: #808065;}
        .stroke17 {fill: #808064;}
        .stroke18 {fill: #808063;}
        .stroke19 {fill: #808062;}
        .stroke20 {fill: #808061;}
        text {
            font-family: Helvetica;
            font-size: 50px;
            fill: #808060;
            paint-order: stroke;
            stroke: #000000;
            stroke-width: 4px;
            stroke-linecap: butt;
            stroke-linejoin: miter;
            font-weight: 800;
        }
    </style>

    <path d="M 118 536 Q 103 469 77 407 Q 62 373 84 346 Q 94 331 111 345 Q 157 400 149 487 Q 150 518 140 539 Q 134 546 128 546 Q 121 545 118 536 Z" class="stroke1"/>
    <path d="M 284 535 Q 365 481 377 480 L 379 480 Q 386 481 389 492 Q 392 504 382 526 Q 370 553 288 564 Q 287 565 285 564 C 255 565 259 552 284 535 Z" class="stroke2"/>
    <path d="M 285 564 Q 286 652 305 710 Q 314 725 311 738 Q 304 748 250 781 Q 228 797 207 783 Q 203 779 208 763 Q 238 717 240 633 Q 240 236 217 134 Q 213 116 207 97 Q 195 54 221 -2 Q 227 -20 235 -23 Q 241 -29 248 -21 Q 255 -17 266 3 Q 276 28 275 58 Q 274 106 284 535 L 285 564 Z" class="stroke3"/>
    <path d="M 426 672 Q 448 653 470 628 Q 482 618 495 617 Q 505 617 509 629 Q 513 642 507 667 Q 503 683 477 696 Q 419 720 404 715 Q 400 711 400 700 Q 404 690 426 672 Z" class="stroke4"/>
    <path d="M 717 737 Q 698 706 659 657 Q 653 650 659 643 Q 666 642 674 646 Q 752 697 789 716 Q 807 720 803 732 Q 797 748 778 766 Q 759 784 737 786 Q 722 785 723 766 Q 726 753 717 737 Z" class="stroke5"/>
    <path d="M 562 528 Q 734 564 743 570 Q 750 577 747 585 Q 740 595 714 603 Q 686 609 659 598 Q 619 585 576 572 L 525 562 Q 480 555 433 550 Q 399 544 423 529 Q 456 508 511 518 L 562 528 Z" class="stroke6"/>
    <path d="M 681 423 Q 736 430 806 431 Q 861 431 868 441 Q 872 451 857 463 Q 811 496 776 487 Q 671 463 528 436 L 475 427 Q 408 417 334 404 Q 315 403 330 387 Q 343 375 359 371 Q 378 367 393 371 Q 421 381 456 388 L 512 400 Q 582 415 650 421 L 681 423 Z" class="stroke7"/>
    <path d="M 528 436 Q 544 476 562 528 L 576 572 Q 618 701 630 718 Q 640 733 634 744 Q 616 772 570 782 Q 554 788 538 779 Q 528 770 538 759 Q 560 737 556 683 Q 541 623 525 562 L 511 518 Q 495 470 475 427 L 456 388 Q 401 289 301 173 Q 291 157 302 156 Q 306 155 319 163 Q 430 238 508 392 Q 509 396 512 400 L 528 436 Z" class="stroke8"/>
    <path d="M 650 421 Q 651 420 653 418 Q 720 330 807 239 Q 823 224 848 228 Q 933 238 960 246 Q 967 249 968 253 Q 968 257 957 263 Q 837 303 774 350 Q 729 383 681 423 C 658 442 631 444 650 421 Z" class="stroke9"/>
    <path d="M 513 249 Q 513 250 515 250 Q 587 271 637 279 Q 649 280 651 278 Q 657 271 655 251 Q 654 196 641 171 Q 626 146 604 149 Q 579 156 556 165 Q 537 171 551 152 Q 591 116 611 88 Q 621 73 634 84 Q 679 112 703 232 Q 709 263 721 277 Q 731 287 726 296 Q 719 306 676 324 Q 660 331 644 320 Q 617 302 503 282 C 473 277 484 240 513 249 Z" class="stroke10"/>
    <path d="M 503 282 Q 493 292 475 298 Q 465 302 456 298 Q 450 294 455 278 Q 465 244 463 209 Q 456 83 466 48 Q 470 24 492 6 Q 573 -57 738 -25 Q 750 -22 764 -19 Q 804 -7 845 20 Q 863 33 850 57 Q 838 76 820 136 Q 819 149 813 154 Q 807 157 804 141 Q 782 75 767 55 Q 752 39 713 28 Q 617 4 546 34 Q 516 47 509 65 Q 487 113 513 249 C 517 273 517 273 503 282 Z" class="stroke11"/>
    
    
    
    
    
    
    
    
    
    
    </g>
</svg>