<svg version="1.1" viewBox="0 0 1024 1024" xmlns="http://www.w3.org/2000/svg">
  
  <g transform="scale(1, -1) translate(0, -900)">
    <style type="text/css">
        .stroke1 {fill: #808080;}
        .stroke2 {fill: #808079;}
        .stroke3 {fill: #808078;}
        .stroke4 {fill: #808077;}
        .stroke5 {fill: #808076;}
        .stroke6 {fill: #808075;}
        .stroke7 {fill: #808074;}
        .stroke8 {fill: #808073;}
        .stroke9 {fill: #808072;}
        .stroke10 {fill: #808071;}
        .stroke11 {fill: #808070;}
        .stroke12 {fill: #808069;}
        .stroke13 {fill: #808068;}
        .stroke14 {fill: #808067;}
        .stroke15 {fill: #808066;}
        .stroke16 {fill: #808065;}
        .stroke17 {fill: #808064;}
        .stroke18 {fill: #808063;}
        .stroke19 {fill: #808062;}
        .stroke20 {fill: #808061;}
        text {
            font-family: Helvetica;
            font-size: 50px;
            fill: #808060;
            paint-order: stroke;
            stroke: #000000;
            stroke-width: 4px;
            stroke-linecap: butt;
            stroke-linejoin: miter;
            font-weight: 800;
        }
    </style>

    <path d="M 113 531 Q 100 464 74 402 Q 61 368 83 338 Q 93 323 111 338 Q 156 389 147 481 Q 147 512 136 535 Q 129 542 124 542 Q 117 539 113 531 Z" class="stroke1"/>
    <path d="M 281 577 Q 287 574 341 534 Q 353 525 366 527 Q 375 528 377 540 Q 380 553 369 576 Q 363 589 339 597 Q 288 606 282 604 C 252 601 255 593 281 577 Z" class="stroke2"/>
    <path d="M 282 604 Q 283 692 302 752 Q 311 767 308 780 Q 301 790 246 825 Q 222 843 201 827 Q 197 823 202 806 Q 235 758 235 679 Q 235 256 211 147 Q 207 129 201 109 Q 191 72 215 6 Q 222 -12 230 -15 Q 236 -22 244 -13 Q 271 3 272 69 Q 271 120 281 577 L 282 604 Z" class="stroke3"/>
    <path d="M 505 643 Q 530 676 559 720 Q 574 745 586 758 Q 595 768 590 780 Q 586 792 559 811 Q 534 827 517 826 Q 501 825 508 804 Q 518 788 512 772 Q 488 688 409 572 Q 400 562 398 557 Q 395 547 408 549 Q 430 555 488 622 L 505 643 Z" class="stroke4"/>
    <path d="M 676 638 Q 710 645 747 650 Q 766 651 770 645 Q 780 626 768 578 Q 738 443 698 388 Q 680 360 654 365 Q 636 369 622 373 Q 600 380 615 358 Q 645 324 658 297 Q 679 272 701 291 Q 735 313 761 356 Q 791 405 817 559 Q 827 614 848 640 Q 860 652 854 661 Q 847 671 800 695 Q 782 704 764 693 Q 742 680 656 664 Q 574 646 505 643 C 475 641 462 636 488 622 Q 492 621 500 616 Q 506 612 512 609 C 524 602 524 602 545 608 Q 591 621 635 630 L 676 638 Z" class="stroke5"/>
    <path d="M 512 609 Q 512 608 513 606 Q 513 531 406 427 Q 402 423 401 418 Q 401 414 405 415 Q 444 415 543 535 Q 556 553 564 563 Q 570 570 565 581 Q 555 599 545 608 C 524 629 509 639 512 609 Z" class="stroke6"/>
    <path d="M 635 630 Q 647 567 559 445 Q 556 444 555 441 Q 528 407 460 338 Q 454 334 462 331 Q 559 349 691 582 Q 697 594 702 598 Q 708 602 706 611 Q 705 618 693 628 Q 686 635 676 638 C 649 651 632 659 635 630 Z" class="stroke7"/>
    <path d="M 369 267 Q 347 207 314 153 Q 296 123 313 92 Q 320 76 340 87 Q 389 129 394 215 Q 398 245 391 267 Q 387 274 381 276 Q 374 275 369 267 Z" class="stroke8"/>
    <path d="M 446 242 Q 458 142 528 88 Q 615 22 802 22 Q 836 25 867 35 Q 891 42 894 57 Q 898 67 863 96 Q 811 151 772 206 Q 762 224 757 217 Q 754 213 774 125 Q 774 92 763 85 Q 750 82 725 82 Q 575 91 521 151 Q 494 178 486 222 Q 480 244 470 251 Q 457 258 450 255 Q 444 254 446 242 Z" class="stroke9"/>
    <path d="M 564 267 Q 600 207 629 188 Q 642 184 652 193 Q 659 203 659 218 Q 656 254 580 298 Q 567 305 558 303 Q 552 303 553 292 Q 553 282 564 267 Z" class="stroke10"/>
    <path d="M 773 302 Q 822 265 882 209 Q 898 193 911 190 Q 918 189 925 198 Q 935 211 920 248 Q 907 296 772 329 Q 763 333 763 322 Q 763 310 773 302 Z" class="stroke11"/>
    
    
    
    
    
    
    
    
    
    
    </g>
</svg>