<svg version="1.1" viewBox="0 0 1024 1024" xmlns="http://www.w3.org/2000/svg">
  
  <g transform="scale(1, -1) translate(0, -900)">
    <style type="text/css">
        .stroke1 {fill: #808080;}
        .stroke2 {fill: #808079;}
        .stroke3 {fill: #808078;}
        .stroke4 {fill: #808077;}
        .stroke5 {fill: #808076;}
        .stroke6 {fill: #808075;}
        .stroke7 {fill: #808074;}
        .stroke8 {fill: #808073;}
        .stroke9 {fill: #808072;}
        .stroke10 {fill: #808071;}
        .stroke11 {fill: #808070;}
        .stroke12 {fill: #808069;}
        .stroke13 {fill: #808068;}
        .stroke14 {fill: #808067;}
        .stroke15 {fill: #808066;}
        .stroke16 {fill: #808065;}
        .stroke17 {fill: #808064;}
        .stroke18 {fill: #808063;}
        .stroke19 {fill: #808062;}
        .stroke20 {fill: #808061;}
        text {
            font-family: Helvetica;
            font-size: 50px;
            fill: #808060;
            paint-order: stroke;
            stroke: #000000;
            stroke-width: 4px;
            stroke-linecap: butt;
            stroke-linejoin: miter;
            font-weight: 800;
        }
    </style>

    <path d="M 109 555 Q 96 488 70 426 Q 57 392 79 362 Q 89 347 107 362 Q 152 413 143 505 Q 143 536 132 559 Q 125 566 120 566 Q 113 563 109 555 Z" class="stroke1"/>
    <path d="M 271 589 Q 277 583 290 574 Q 311 558 334 537 Q 347 527 360 528 Q 370 529 373 540 Q 377 553 367 579 Q 358 603 283 615 Q 276 616 271 617 C 242 622 249 609 271 589 Z" class="stroke2"/>
    <path d="M 271 617 Q 274 695 290 748 Q 300 763 296 777 Q 289 787 234 821 Q 210 839 189 823 Q 185 817 190 802 Q 221 753 223 678 Q 223 246 203 158 Q 185 85 191 65 Q 206 4 222 -3 Q 228 -10 236 -1 Q 243 3 254 24 Q 264 49 263 81 Q 262 130 271 589 L 271 617 Z" class="stroke3"/>
    <path d="M 473 665 Q 473 666 474 666 C 478 688 475 690 449 705 Q 430 718 410 725 Q 400 726 393 719 Q 389 712 397 701 Q 421 643 420 571 Q 421 306 376 174 Q 367 147 372 127 Q 381 91 392 77 Q 404 62 414 77 Q 451 116 452 262 Q 464 625 473 665 Z" class="stroke4"/>
    <path d="M 474 666 Q 601 699 756 722 Q 778 726 788 714 Q 803 705 808 638 Q 824 412 813 153 Q 812 116 798 105 Q 788 98 730 109 Q 714 113 714 103 Q 715 96 728 88 Q 779 42 804 8 Q 826 -13 839 -11 Q 852 -8 864 22 Q 882 68 881 138 Q 856 645 878 691 Q 891 713 880 725 Q 870 740 821 765 Q 797 777 736 756 Q 598 723 449 705 C 419 701 445 659 474 666 Z" class="stroke5"/>
    <path d="M 526 599 Q 548 542 571 533 Q 581 529 591 544 Q 595 554 592 574 Q 583 601 535 621 Q 528 624 524 614 Q 521 608 526 599 Z" class="stroke6"/>
    <path d="M 653 523 Q 696 596 724 628 Q 734 637 729 643 Q 720 653 702 661 Q 683 668 667 664 Q 657 660 663 646 Q 667 637 666 624 Q 654 581 628 515 C 617 487 638 497 653 523 Z" class="stroke7"/>
    <path d="M 581 466 Q 584 467 589 469 Q 755 506 763 513 Q 770 520 767 527 Q 760 536 737 541 Q 718 544 653 523 L 628 515 Q 619 514 613 511 Q 570 501 518 494 Q 490 488 510 476 Q 534 463 560 465 L 581 466 Z" class="stroke8"/>
    <path d="M 639 388 Q 642 398 641 415 Q 640 434 581 466 C 563 476 563 476 560 465 Q 559 464 559 459 Q 560 452 575 434 Q 591 415 607 390 Q 610 386 614 382 C 633 363 633 363 639 388 Z" class="stroke9"/>
    <path d="M 578 344 Q 669 366 775 379 Q 782 378 790 388 Q 791 397 773 405 Q 751 421 689 401 Q 665 397 644 390 Q 640 389 639 388 L 614 382 Q 539 370 534 369 Q 506 368 479 362 Q 457 359 474 346 Q 495 330 534 335 L 536 335 L 578 344 Z" class="stroke10"/>
    <path d="M 536 335 Q 548 302 543 270 Q 534 246 531 243 Q 521 228 528 216 Q 540 195 551 194 Q 558 194 576 202 Q 669 230 745 227 Q 764 227 765 237 Q 765 247 734 262 Q 712 274 681 262 Q 648 256 616 246 Q 594 237 584 242 Q 574 245 576 256 Q 588 328 588 329 Q 585 335 578 344 C 560 368 527 364 536 335 Z" class="stroke11"/>
    
    
    
    
    
    
    
    
    
    
    </g>
</svg>