<svg version="1.1" viewBox="0 0 1024 1024" xmlns="http://www.w3.org/2000/svg">
  
  <g transform="scale(1, -1) translate(0, -900)">
    <style type="text/css">
        .stroke1 {fill: #808080;}
        .stroke2 {fill: #808079;}
        .stroke3 {fill: #808078;}
        .stroke4 {fill: #808077;}
        .stroke5 {fill: #808076;}
        .stroke6 {fill: #808075;}
        .stroke7 {fill: #808074;}
        .stroke8 {fill: #808073;}
        .stroke9 {fill: #808072;}
        .stroke10 {fill: #808071;}
        .stroke11 {fill: #808070;}
        .stroke12 {fill: #808069;}
        .stroke13 {fill: #808068;}
        .stroke14 {fill: #808067;}
        .stroke15 {fill: #808066;}
        .stroke16 {fill: #808065;}
        .stroke17 {fill: #808064;}
        .stroke18 {fill: #808063;}
        .stroke19 {fill: #808062;}
        .stroke20 {fill: #808061;}
        text {
            font-family: Helvetica;
            font-size: 50px;
            fill: #808060;
            paint-order: stroke;
            stroke: #000000;
            stroke-width: 4px;
            stroke-linecap: butt;
            stroke-linejoin: miter;
            font-weight: 800;
        }
    </style>

    <path d="M 260 654 Q 238 579 202 511 Q 186 483 204 448 Q 213 432 232 444 Q 284 493 289 600 Q 292 631 283 655 Q 277 662 272 664 Q 265 663 260 654 Z" class="stroke1"/>
    <path d="M 354 616 Q 369 528 437 482 Q 522 424 694 440 Q 721 446 746 455 Q 767 464 769 477 Q 773 487 735 517 Q 675 572 633 630 Q 621 648 616 640 Q 612 634 616 619 Q 629 579 641 537 Q 647 515 640 506 Q 631 494 590 493 Q 473 496 426 542 Q 404 563 396 597 Q 390 622 378 627 Q 365 634 357 631 Q 351 630 354 616 Z" class="stroke2"/>
    <path d="M 424 737 Q 457 701 490 658 Q 500 645 514 643 Q 523 642 529 653 Q 536 665 532 692 Q 531 716 498 740 Q 425 788 408 783 Q 404 780 403 769 Q 404 759 424 737 Z" class="stroke3"/>
    <path d="M 645 738 Q 705 702 777 648 Q 796 632 811 631 Q 820 632 825 643 Q 834 658 814 696 Q 790 744 640 767 Q 631 770 632 758 Q 633 745 645 738 Z" class="stroke4"/>
    <path d="M 111 285 Q 96 218 70 156 Q 57 126 76 98 Q 86 83 102 97 Q 118 113 127 143 Q 143 195 141 238 Q 141 266 132 288 Q 126 295 121 294 Q 114 293 111 285 Z" class="stroke5"/>
    <path d="M 183 204 Q 186 131 236 85 Q 308 25 451 24 Q 469 25 486 29 Q 505 33 508 44 Q 512 51 486 82 Q 447 137 421 189 Q 414 207 409 201 Q 406 200 410 114 Q 414 75 362 79 Q 359 80 357 80 Q 267 93 234 136 Q 219 155 217 183 Q 214 205 205 210 Q 195 219 187 216 Q 183 215 183 204 Z" class="stroke6"/>
    <path d="M 260 279 Q 284 249 309 215 Q 316 203 328 202 Q 335 201 342 209 Q 346 219 345 241 Q 342 272 264 314 Q 254 318 248 318 Q 244 317 243 307 Q 244 298 260 279 Z" class="stroke7"/>
    <path d="M 389 327 Q 420 306 455 280 Q 465 273 476 274 Q 483 275 486 284 Q 487 294 480 314 Q 468 344 382 359 Q 372 360 368 358 Q 364 355 366 347 Q 370 340 389 327 Z" class="stroke8"/>
    <path d="M 540 257 Q 527 203 504 153 Q 492 126 509 97 Q 518 84 533 96 Q 573 138 568 213 Q 568 241 559 260 Q 555 266 549 266 Q 542 265 540 257 Z" class="stroke9"/>
    <path d="M 602 194 Q 614 107 673 65 Q 769 -1 931 18 Q 944 22 959 26 Q 980 33 982 45 Q 986 55 947 85 Q 889 142 845 199 Q 833 215 829 208 Q 823 202 849 133 Q 864 85 847 73 Q 835 70 813 70 Q 707 79 666 122 Q 647 141 642 174 Q 636 196 626 203 Q 613 210 606 207 Q 600 206 602 194 Z" class="stroke10"/>
    <path d="M 647 316 Q 678 291 710 260 Q 722 248 735 249 Q 745 249 749 261 Q 753 274 746 299 Q 737 329 643 358 Q 630 361 624 359 Q 620 355 621 344 Q 624 334 647 316 Z" class="stroke11"/>
    <path d="M 790 363 Q 845 324 911 267 Q 927 251 940 249 Q 947 249 953 258 Q 962 271 947 306 Q 932 346 787 389 Q 780 393 779 382 Q 780 370 790 363 Z" class="stroke12"/>
    
    
    
    
    
    
    
    
    
    
    
    </g>
</svg>