<svg version="1.1" viewBox="0 0 1024 1024" xmlns="http://www.w3.org/2000/svg">
  
  <g transform="scale(1, -1) translate(0, -900)">
    <style type="text/css">
        .stroke1 {fill: #808080;}
        .stroke2 {fill: #808079;}
        .stroke3 {fill: #808078;}
        .stroke4 {fill: #808077;}
        .stroke5 {fill: #808076;}
        .stroke6 {fill: #808075;}
        .stroke7 {fill: #808074;}
        .stroke8 {fill: #808073;}
        .stroke9 {fill: #808072;}
        .stroke10 {fill: #808071;}
        .stroke11 {fill: #808070;}
        .stroke12 {fill: #808069;}
        .stroke13 {fill: #808068;}
        .stroke14 {fill: #808067;}
        .stroke15 {fill: #808066;}
        .stroke16 {fill: #808065;}
        .stroke17 {fill: #808064;}
        .stroke18 {fill: #808063;}
        .stroke19 {fill: #808062;}
        .stroke20 {fill: #808061;}
        text {
            font-family: Helvetica;
            font-size: 50px;
            fill: #808060;
            paint-order: stroke;
            stroke: #000000;
            stroke-width: 4px;
            stroke-linecap: butt;
            stroke-linejoin: miter;
            font-weight: 800;
        }
    </style>

    <path d="M 118 546 Q 108 485 87 428 Q 74 397 99 366 Q 109 350 127 367 Q 167 415 154 498 Q 153 529 140 551 Q 133 558 128 558 Q 121 555 118 546 Z" class="stroke1"/>
    <path d="M 267 602 Q 334 551 343 549 L 346 549 Q 353 550 357 560 Q 360 572 352 595 Q 343 614 277 627 Q 271 628 268 627 C 239 623 243 620 267 602 Z" class="stroke2"/>
    <path d="M 268 627 Q 271 685 285 729 Q 292 742 290 756 Q 284 765 231 797 Q 209 813 190 799 Q 186 795 191 779 Q 221 734 222 670 Q 222 271 212 197 Q 205 161 195 125 Q 186 88 209 29 Q 216 13 223 9 Q 229 3 236 11 Q 243 15 253 35 Q 262 57 261 87 Q 260 135 267 576 L 267 602 L 268 627 Z" class="stroke3"/>
    <path d="M 419 688 Q 412 695 389 705 Q 380 709 371 705 Q 365 701 370 691 Q 371 685 374 679 L 378 670 Q 387 652 387 446 Q 384 416 377 379 Q 364 334 396 296 Q 405 286 413 296 Q 420 308 423 321 L 425 353 Q 425 363 426 437 L 426 467 Q 426 515 426 550 L 427 580 Q 427 653 430 663 C 432 679 432 679 419 688 Z" class="stroke4"/>
    <path d="M 533 336 Q 546 315 559 296 Q 574 274 581 276 Q 591 277 602 304 Q 614 334 611 371 Q 596 633 618 676 Q 628 692 620 702 Q 613 712 567 726 Q 545 735 529 725 Q 469 700 419 688 C 390 680 401 656 430 663 Q 463 670 502 684 Q 536 694 548 683 Q 558 673 559 633 Q 563 467 556 375 Q 559 359 550 355 C 539 327 527 345 533 336 Z" class="stroke5"/>
    <path d="M 426 550 Q 475 560 513 566 Q 534 570 525 581 Q 515 594 492 596 Q 447 599 427 580 C 404 560 397 544 426 550 Z" class="stroke6"/>
    <path d="M 426 437 Q 475 446 513 450 Q 534 454 525 465 Q 515 478 493 481 Q 472 482 426 467 C 397 458 396 432 426 437 Z" class="stroke7"/>
    <path d="M 423 321 Q 441 330 533 336 C 563 338 566 338 550 355 Q 544 362 530 370 Q 517 376 425 353 C 396 346 395 310 423 321 Z" class="stroke8"/>
    <path d="M 412 256 Q 408 208 307 103 Q 291 88 314 94 Q 369 101 448 195 Q 467 220 478 230 Q 487 242 484 250 Q 480 260 456 266 Q 431 273 420 269 Q 413 268 412 256 Z" class="stroke9"/>
    <path d="M 549 185 Q 573 158 598 125 Q 608 112 622 111 Q 631 110 637 121 Q 643 133 639 160 Q 638 179 610 198 Q 547 234 532 231 Q 528 228 527 217 Q 528 207 549 185 Z" class="stroke10"/>
    <path d="M 674 607 Q 705 550 688 376 Q 682 346 709 313 Q 718 304 726 315 Q 738 340 740 402 Q 731 507 740 582 Q 744 603 727 612 Q 712 621 697 628 Q 687 631 678 626 Q 671 620 674 607 Z" class="stroke11"/>
    <path d="M 814 742 Q 820 703 822 118 Q 822 93 809 83 Q 806 83 741 97 Q 708 110 711 101 Q 712 94 731 77 Q 791 23 805 -6 Q 821 -40 837 -43 Q 852 -44 867 -9 Q 886 37 885 111 Q 864 373 869 636 Q 870 724 884 770 Q 900 800 844 821 Q 810 839 791 832 Q 773 825 790 802 Q 812 777 814 742 Z" class="stroke12"/>
    
    
    
    
    
    
    
    
    
    
    
    </g>
</svg>