<svg version="1.1" viewBox="0 0 1024 1024" xmlns="http://www.w3.org/2000/svg">
  
  <g transform="scale(1, -1) translate(0, -900)">
    <style type="text/css">
        .stroke1 {fill: #808080;}
        .stroke2 {fill: #808079;}
        .stroke3 {fill: #808078;}
        .stroke4 {fill: #808077;}
        .stroke5 {fill: #808076;}
        .stroke6 {fill: #808075;}
        .stroke7 {fill: #808074;}
        .stroke8 {fill: #808073;}
        .stroke9 {fill: #808072;}
        .stroke10 {fill: #808071;}
        .stroke11 {fill: #808070;}
        .stroke12 {fill: #808069;}
        .stroke13 {fill: #808068;}
        .stroke14 {fill: #808067;}
        .stroke15 {fill: #808066;}
        .stroke16 {fill: #808065;}
        .stroke17 {fill: #808064;}
        .stroke18 {fill: #808063;}
        .stroke19 {fill: #808062;}
        .stroke20 {fill: #808061;}
        text {
            font-family: Helvetica;
            font-size: 50px;
            fill: #808060;
            paint-order: stroke;
            stroke: #000000;
            stroke-width: 4px;
            stroke-linecap: butt;
            stroke-linejoin: miter;
            font-weight: 800;
        }
    </style>

    <path d="M 470 822 Q 494 806 518 784 Q 531 774 544 775 Q 554 776 557 788 Q 560 801 550 826 Q 544 842 518 852 Q 455 870 444 863 Q 440 859 442 848 Q 446 838 470 822 Z" class="stroke1"/>
    <path d="M 406 712 Q 378 708 398 695 Q 431 674 471 687 Q 520 696 572 706 Q 596 712 599 715 Q 606 721 602 727 Q 598 736 575 742 Q 553 746 530 737 Q 503 728 475 722 Q 444 715 406 712 Z" class="stroke2"/>
    <path d="M 428 630 Q 403 626 421 614 Q 448 602 502 614 Q 526 620 552 626 Q 565 630 568 632 Q 574 639 571 644 Q 565 651 545 656 Q 533 657 472 639 Q 451 635 428 630 Z" class="stroke3"/>
    <path d="M 424 558 Q 399 554 417 542 Q 444 530 498 542 Q 522 548 548 554 Q 561 558 564 560 Q 570 567 567 572 Q 561 579 541 584 Q 529 585 468 567 Q 447 563 424 558 Z" class="stroke4"/>
    <path d="M 425 469 Q 415 473 397 475 Q 388 478 386 474 Q 382 470 388 457 Q 407 423 419 365 Q 420 347 432 336 Q 445 320 449 332 Q 450 339 451 351 L 448 379 Q 439 431 438 447 C 436 465 436 465 425 469 Z" class="stroke5"/>
    <path d="M 569 400 Q 582 440 596 452 Q 614 471 596 483 Q 545 510 544 510 Q 537 511 530 506 Q 500 488 425 469 C 396 462 409 439 438 447 Q 441 448 511 466 Q 530 470 536 463 Q 539 460 528 403 C 522 374 559 372 569 400 Z" class="stroke6"/>
    <path d="M 451 351 Q 454 351 458 352 Q 495 362 580 375 Q 587 376 589 384 Q 589 390 569 400 C 548 411 548 411 528 403 Q 527 403 526 402 Q 483 389 448 379 C 419 371 421 348 451 351 Z" class="stroke7"/>
    <path d="M 280 615 Q 249 616 222 615 Q 194 614 208 632 Q 250 702 291 756 Q 301 769 300 776 Q 297 788 266 812 Q 253 822 238 819 Q 228 816 234 804 Q 247 774 192 667 Q 182 645 156 621 Q 141 609 143 600 Q 147 584 158 570 Q 167 563 177 568 Q 195 578 255 593 Q 261 594 267 594 C 297 596 310 614 280 615 Z" class="stroke8"/>
    <path d="M 336 534 Q 296 524 252 506 Q 236 499 245 513 Q 272 552 334 628 Q 356 659 376 677 Q 385 686 380 694 Q 371 709 344 724 Q 331 731 323 728 Q 314 725 317 713 Q 320 682 280 615 L 267 594 Q 201 500 184 489 Q 174 482 177 470 Q 178 460 200 445 Q 209 435 221 446 Q 264 485 341 518 C 368 530 365 542 336 534 Z" class="stroke9"/>
    <path d="M 341 518 Q 341 515 343 512 Q 350 494 361 488 Q 370 484 381 494 Q 387 501 387 520 Q 384 548 342 579 Q 336 583 331 575 Q 327 571 329 561 Q 332 548 336 534 L 341 518 Z" class="stroke10"/>
    <path d="M 133 353 Q 137 326 140 296 Q 141 281 153 273 Q 160 269 170 274 Q 180 281 190 304 Q 199 328 154 386 Q 147 396 141 398 Q 137 398 130 389 Q 127 380 133 353 Z" class="stroke11"/>
    <path d="M 227 385 Q 237 346 255 323 Q 262 316 273 322 Q 280 328 283 339 Q 286 355 279 368 Q 261 404 235 412 Q 232 413 231 413 Q 227 414 225 405 Q 222 398 227 385 Z" class="stroke12"/>
    <path d="M 310 420 Q 337 368 350 365 Q 359 362 366 373 Q 369 382 366 397 Q 359 416 317 437 Q 311 440 308 432 Q 307 426 310 420 Z" class="stroke13"/>
    <path d="M 723 664 Q 687 664 656 665 Q 631 665 645 680 Q 681 729 715 765 Q 727 778 725 784 Q 724 794 695 820 Q 683 830 669 829 Q 660 828 664 815 Q 673 787 625 706 Q 615 690 595 673 Q 580 663 581 653 Q 584 638 594 624 Q 601 617 612 621 Q 630 631 689 643 L 709 645 C 739 648 753 664 723 664 Z" class="stroke14"/>
    <path d="M 769 568 Q 729 564 684 552 Q 663 545 677 561 Q 764 669 816 708 Q 826 715 822 724 Q 815 740 789 757 Q 776 764 768 763 Q 761 762 761 748 Q 761 724 723 664 L 709 645 Q 628 549 613 543 Q 601 536 604 524 Q 604 514 625 497 Q 632 487 645 496 Q 699 533 778 554 C 807 562 799 571 769 568 Z" class="stroke15"/>
    <path d="M 778 554 Q 797 518 809 515 Q 816 514 822 521 Q 828 530 828 551 Q 828 575 770 609 Q 761 615 756 614 Q 752 613 751 604 Q 751 595 769 568 L 778 554 Z" class="stroke16"/>
    <path d="M 619 418 Q 637 363 654 355 Q 663 351 672 361 Q 676 370 675 386 Q 669 413 629 436 Q 623 439 620 431 Q 616 427 619 418 Z" class="stroke17"/>
    <path d="M 701 427 Q 728 373 737 369 Q 744 366 750 373 Q 756 380 758 400 Q 759 413 744 430 Q 705 461 696 462 Q 692 461 690 453 Q 690 446 701 427 Z" class="stroke18"/>
    <path d="M 773 445 Q 794 418 815 387 Q 822 375 835 373 Q 844 372 849 381 Q 856 391 853 415 Q 850 445 777 482 Q 765 488 760 486 Q 756 485 755 474 Q 756 465 773 445 Z" class="stroke19"/>
    <path d="M 214 234 Q 190 171 156 114 Q 135 80 156 45 Q 165 26 186 40 Q 238 82 243 175 Q 247 209 239 235 Q 233 244 227 244 Q 218 243 214 234 Z" class="stroke20"/>
    <path d="M 319 204 Q 340 98 425 41 Q 506 -8 693 -9 Q 750 -9 806 16 Q 831 26 833 44 Q 837 54 798 80 Q 737 131 693 184 Q 681 200 677 192 Q 673 186 678 172 Q 694 135 708 94 Q 714 73 708 65 Q 701 53 663 51 Q 483 44 411 108 Q 377 136 360 188 Q 353 210 342 215 Q 329 222 322 218 Q 316 217 319 204 Z" class="stroke21"/>
    <path d="M 463 265 Q 532 187 561 187 Q 577 186 584 209 Q 585 225 573 248 Q 560 267 531 277 Q 486 295 467 297 Q 455 298 455 285 Q 454 275 463 265 Z" class="stroke22"/>
    <path d="M 706 278 Q 772 242 853 187 Q 872 172 887 171 Q 896 172 900 183 Q 909 198 888 235 Q 866 283 700 307 Q 690 310 692 298 Q 693 285 706 278 Z" class="stroke23"/>
    
    
    
    
    
    
    
    
    
    
    
    
    
    
    
    
    
    
    
    
    
    
    </g>
</svg>