<svg version="1.1" viewBox="0 0 1024 1024" xmlns="http://www.w3.org/2000/svg">
  
  <g transform="scale(1, -1) translate(0, -900)">
    <style type="text/css">
        .stroke1 {fill: #808080;}
        .stroke2 {fill: #808079;}
        .stroke3 {fill: #808078;}
        .stroke4 {fill: #808077;}
        .stroke5 {fill: #808076;}
        .stroke6 {fill: #808075;}
        .stroke7 {fill: #808074;}
        .stroke8 {fill: #808073;}
        .stroke9 {fill: #808072;}
        .stroke10 {fill: #808071;}
        .stroke11 {fill: #808070;}
        .stroke12 {fill: #808069;}
        .stroke13 {fill: #808068;}
        .stroke14 {fill: #808067;}
        .stroke15 {fill: #808066;}
        .stroke16 {fill: #808065;}
        .stroke17 {fill: #808064;}
        .stroke18 {fill: #808063;}
        .stroke19 {fill: #808062;}
        .stroke20 {fill: #808061;}
        text {
            font-family: Helvetica;
            font-size: 50px;
            fill: #808060;
            paint-order: stroke;
            stroke: #000000;
            stroke-width: 4px;
            stroke-linecap: butt;
            stroke-linejoin: miter;
            font-weight: 800;
        }
    </style>

    <path d="M 545 565 Q 567 572 594 578 Q 655 594 664 604 Q 674 614 668 623 Q 659 636 626 643 Q 586 649 530 622 L 485 606 Q 347 564 230 546 Q 188 539 219 520 Q 261 496 341 515 Q 417 534 499 553 L 545 565 Z" class="stroke1"/>
    <path d="M 387 310 Q 423 320 470 327 Q 486 330 486 337 Q 487 350 469 358 Q 438 370 390 354 L 337 340 Q 195 306 123 295 Q 111 294 108 285 Q 105 275 121 264 Q 161 237 201 253 Q 303 292 334 297 L 387 310 Z" class="stroke2"/>
    <path d="M 334 297 Q 334 197 246 120 Q 233 107 221 94 Q 211 84 222 83 Q 267 89 325 155 Q 376 218 387 310 L 390 354 Q 396 424 399 432 Q 406 450 389 455 Q 343 482 318 469 Q 306 463 314 450 Q 335 426 337 340 L 334 297 Z" class="stroke3"/>
    <path d="M 617 238 Q 755 -6 868 -53 Q 871 -53 875 -54 Q 890 -55 898 -42 Q 905 -32 896 13 Q 892 89 904 178 Q 908 209 899 211 Q 890 212 880 186 Q 838 59 815 73 Q 757 98 672 242 Q 662 260 652 278 L 628 328 Q 592 400 545 565 L 530 622 Q 503 736 503 775 Q 513 814 475 833 Q 474 834 472 835 Q 448 848 434 848 Q 421 847 420 845 Q 398 838 419 815 Q 435 808 485 606 L 499 553 Q 538 409 595 284 L 617 238 Z" class="stroke4"/>
    <path d="M 595 284 Q 550 224 495 179 Q 449 143 426 121 Q 416 105 433 109 Q 497 115 617 238 L 652 278 Q 670 302 686 325 Q 729 389 769 441 Q 782 454 767 471 Q 722 513 696 510 Q 683 509 685 492 Q 685 425 628 328 L 595 284 Z" class="stroke5"/>
    <path d="M 653 747 Q 690 723 730 693 Q 746 681 762 684 Q 772 685 777 700 Q 780 716 767 746 Q 751 782 643 797 Q 627 798 620 795 Q 616 791 618 777 Q 622 767 653 747 Z" class="stroke6"/>
    
    
    
    
    
    </g>
</svg>