<svg version="1.1" viewBox="0 0 1024 1024" xmlns="http://www.w3.org/2000/svg">
  
  <g transform="scale(1, -1) translate(0, -900)">
    <style type="text/css">
        .stroke1 {fill: #808080;}
        .stroke2 {fill: #808079;}
        .stroke3 {fill: #808078;}
        .stroke4 {fill: #808077;}
        .stroke5 {fill: #808076;}
        .stroke6 {fill: #808075;}
        .stroke7 {fill: #808074;}
        .stroke8 {fill: #808073;}
        .stroke9 {fill: #808072;}
        .stroke10 {fill: #808071;}
        .stroke11 {fill: #808070;}
        .stroke12 {fill: #808069;}
        .stroke13 {fill: #808068;}
        .stroke14 {fill: #808067;}
        .stroke15 {fill: #808066;}
        .stroke16 {fill: #808065;}
        .stroke17 {fill: #808064;}
        .stroke18 {fill: #808063;}
        .stroke19 {fill: #808062;}
        .stroke20 {fill: #808061;}
        text {
            font-family: Helvetica;
            font-size: 50px;
            fill: #808060;
            paint-order: stroke;
            stroke: #000000;
            stroke-width: 4px;
            stroke-linecap: butt;
            stroke-linejoin: miter;
            font-weight: 800;
        }
    </style>

    <path d="M 477 801 Q 511 782 551 755 Q 566 745 580 748 Q 590 751 593 764 Q 594 779 582 805 Q 566 838 464 846 Q 449 847 443 843 Q 439 839 443 827 Q 447 817 477 801 Z" class="stroke1"/>
    <path d="M 712 587 Q 736 638 767 657 Q 785 675 771 693 Q 755 708 704 735 Q 686 744 664 736 Q 547 691 365 667 C 335 663 344 629 374 634 Q 387 635 402 640 Q 520 662 634 686 Q 664 693 676 682 Q 683 673 658 591 C 649 562 699 560 712 587 Z" class="stroke2"/>
    <path d="M 350 505 Q 363 496 383 500 Q 491 528 724 554 Q 734 555 736 564 Q 736 571 712 587 C 694 600 687 598 658 591 Q 487 549 354 531 C 324 527 323 517 350 505 Z" class="stroke3"/>
    <path d="M 365 667 Q 350 680 327 692 Q 308 704 295 699 Q 282 692 288 678 Q 327 621 261 340 Q 251 306 238 273 Q 199 174 116 55 Q 110 48 108 42 Q 105 32 116 33 Q 146 39 221 141 Q 240 172 260 207 Q 326 337 350 505 L 354 531 Q 358 565 363 595 Q 372 632 374 634 C 381 655 381 655 365 667 Z" class="stroke4"/>
    <path d="M 553 232 Q 557 287 563 339 L 566 371 Q 566 378 580 449 Q 584 459 565 474 Q 531 492 509 495 Q 493 499 486 490 Q 479 483 487 469 Q 503 447 504 432 Q 513 336 513 225 C 513 195 551 202 553 232 Z" class="stroke5"/>
    <path d="M 563 339 Q 569 339 579 340 Q 676 359 749 371 Q 777 377 766 391 Q 753 407 723 412 Q 690 415 566 371 C 538 361 533 338 563 339 Z" class="stroke6"/>
    <path d="M 405 212 Q 395 219 355 224 Q 342 228 339 222 Q 332 215 342 199 Q 375 132 395 22 Q 399 -11 419 -32 Q 438 -54 443 -38 Q 447 -25 447 -5 L 442 33 Q 421 138 415 177 C 410 207 410 210 405 212 Z" class="stroke7"/>
    <path d="M 714 56 Q 744 153 782 179 Q 801 198 785 219 Q 767 235 710 263 Q 691 273 667 264 Q 606 243 553 232 L 513 225 Q 461 218 405 212 C 375 209 385 173 415 177 Q 478 186 640 213 Q 665 217 676 207 Q 686 197 684 176 Q 674 115 659 66 C 651 37 705 27 714 56 Z" class="stroke8"/>
    <path d="M 447 -5 Q 456 -5 465 -4 Q 547 11 724 18 Q 737 19 739 29 Q 739 36 714 56 L 659 66 Q 656 67 653 66 Q 536 42 442 33 C 412 30 417 -6 447 -5 Z" class="stroke9"/>
    
    
    
    
    
    
    
    
    </g>
</svg>