<svg version="1.1" viewBox="0 0 1024 1024" xmlns="http://www.w3.org/2000/svg">
  
  <g transform="scale(1, -1) translate(0, -900)">
    <style type="text/css">
        .stroke1 {fill: #808080;}
        .stroke2 {fill: #808079;}
        .stroke3 {fill: #808078;}
        .stroke4 {fill: #808077;}
        .stroke5 {fill: #808076;}
        .stroke6 {fill: #808075;}
        .stroke7 {fill: #808074;}
        .stroke8 {fill: #808073;}
        .stroke9 {fill: #808072;}
        .stroke10 {fill: #808071;}
        .stroke11 {fill: #808070;}
        .stroke12 {fill: #808069;}
        .stroke13 {fill: #808068;}
        .stroke14 {fill: #808067;}
        .stroke15 {fill: #808066;}
        .stroke16 {fill: #808065;}
        .stroke17 {fill: #808064;}
        .stroke18 {fill: #808063;}
        .stroke19 {fill: #808062;}
        .stroke20 {fill: #808061;}
        text {
            font-family: Helvetica;
            font-size: 50px;
            fill: #808060;
            paint-order: stroke;
            stroke: #000000;
            stroke-width: 4px;
            stroke-linecap: butt;
            stroke-linejoin: miter;
            font-weight: 800;
        }
    </style>

    <path d="M 380 534 Q 462 559 469 565 Q 476 572 472 581 Q 465 591 435 597 Q 408 601 382 589 L 331 569 Q 208 533 159 525 Q 125 516 150 502 Q 196 481 245 498 Q 285 508 330 520 L 380 534 Z" class="stroke1"/>
    <path d="M 325 323 Q 324 235 322 122 Q 321 98 309 89 Q 302 85 221 103 Q 188 115 191 105 Q 192 98 212 83 Q 282 31 300 1 Q 321 -33 338 -35 Q 353 -36 367 -1 Q 385 44 383 118 Q 376 238 376 358 L 376 392 Q 376 462 380 534 L 382 589 Q 382 670 402 736 Q 418 767 364 789 Q 330 808 311 801 Q 293 795 309 772 Q 331 745 331 711 Q 332 695 331 569 L 330 520 Q 329 456 326 366 L 325 323 Z" class="stroke2"/>
    <path d="M 376 358 Q 401 377 428 392 Q 452 405 464 420 Q 471 433 460 433 Q 445 433 376 392 L 326 366 Q 107 255 90 247 Q 75 243 71 233 Q 70 224 83 209 Q 102 193 125 183 Q 137 180 164 201 Q 219 252 325 323 L 376 358 Z" class="stroke3"/>
    <path d="M 951 79 Q 973 94 956 132 Q 940 196 941 279 Q 941 289 934 299 Q 924 306 919 283 Q 907 249 891 194 Q 878 142 860 120 Q 854 108 828 103 Q 735 76 666 100 Q 632 109 618 149 Q 599 206 611 440 Q 620 654 646 697 Q 662 739 574 767 Q 571 768 569 768 Q 550 772 542 763 Q 533 754 541 744 Q 560 726 564 668 Q 564 623 562 531 Q 550 234 571 138 Q 580 92 623 67 Q 689 25 862 44 Q 874 47 886 50 Q 932 62 951 79 Z" class="stroke4"/>
    
    
    
    </g>
</svg>