<svg version="1.1" viewBox="0 0 1024 1024" xmlns="http://www.w3.org/2000/svg">
  
  <g transform="scale(1, -1) translate(0, -900)">
    <style type="text/css">
        .stroke1 {fill: #808080;}
        .stroke2 {fill: #808079;}
        .stroke3 {fill: #808078;}
        .stroke4 {fill: #808077;}
        .stroke5 {fill: #808076;}
        .stroke6 {fill: #808075;}
        .stroke7 {fill: #808074;}
        .stroke8 {fill: #808073;}
        .stroke9 {fill: #808072;}
        .stroke10 {fill: #808071;}
        .stroke11 {fill: #808070;}
        .stroke12 {fill: #808069;}
        .stroke13 {fill: #808068;}
        .stroke14 {fill: #808067;}
        .stroke15 {fill: #808066;}
        .stroke16 {fill: #808065;}
        .stroke17 {fill: #808064;}
        .stroke18 {fill: #808063;}
        .stroke19 {fill: #808062;}
        .stroke20 {fill: #808061;}
        text {
            font-family: Helvetica;
            font-size: 50px;
            fill: #808060;
            paint-order: stroke;
            stroke: #000000;
            stroke-width: 4px;
            stroke-linecap: butt;
            stroke-linejoin: miter;
            font-weight: 800;
        }
    </style>

    <path d="M 592 544 Q 679 550 848 550 Q 870 550 876 560 Q 882 573 863 588 Q 797 636 724 613 Q 666 604 591 589 L 537 580 Q 519 579 502 575 Q 355 556 182 533 Q 158 530 176 511 Q 210 480 253 489 Q 383 525 504 535 L 592 544 Z" class="stroke1"/>
    <path d="M 539 471 Q 540 341 545 136 Q 545 114 533 104 Q 523 95 496 102 Q 465 108 436 113 Q 399 123 403 112 Q 404 105 428 90 Q 507 39 528 8 Q 553 -29 571 -28 Q 587 -28 601 10 Q 617 59 612 138 Q 593 340 592 544 L 591 589 Q 591 688 607 746 Q 625 779 564 802 Q 527 821 507 812 Q 488 805 506 781 Q 530 753 532 715 Q 533 699 537 580 L 539 471 Z" class="stroke2"/>
    <path d="M 504 535 Q 426 384 249 235 Q 203 199 136 149 Q 121 136 133 133 Q 161 121 270 191 Q 378 258 539 471 C 596 546 526 577 504 535 Z" class="stroke3"/>
    
    
    </g>
</svg>