<svg version="1.1" viewBox="0 0 1024 1024" xmlns="http://www.w3.org/2000/svg">
  
  <g transform="scale(1, -1) translate(0, -900)">
    <style type="text/css">
        .stroke1 {fill: #808080;}
        .stroke2 {fill: #808079;}
        .stroke3 {fill: #808078;}
        .stroke4 {fill: #808077;}
        .stroke5 {fill: #808076;}
        .stroke6 {fill: #808075;}
        .stroke7 {fill: #808074;}
        .stroke8 {fill: #808073;}
        .stroke9 {fill: #808072;}
        .stroke10 {fill: #808071;}
        .stroke11 {fill: #808070;}
        .stroke12 {fill: #808069;}
        .stroke13 {fill: #808068;}
        .stroke14 {fill: #808067;}
        .stroke15 {fill: #808066;}
        .stroke16 {fill: #808065;}
        .stroke17 {fill: #808064;}
        .stroke18 {fill: #808063;}
        .stroke19 {fill: #808062;}
        .stroke20 {fill: #808061;}
        text {
            font-family: Helvetica;
            font-size: 50px;
            fill: #808060;
            paint-order: stroke;
            stroke: #000000;
            stroke-width: 4px;
            stroke-linecap: butt;
            stroke-linejoin: miter;
            font-weight: 800;
        }
    </style>

    <path d="M 335 530 Q 414 554 416 555 Q 425 564 420 572 Q 413 584 382 590 Q 358 593 338 586 L 286 567 Q 184 540 144 534 Q 107 527 134 511 Q 179 487 238 506 Q 260 513 285 517 L 335 530 Z" class="stroke1"/>
    <path d="M 280 330 Q 279 243 277 134 Q 276 112 264 102 Q 255 98 197 110 Q 164 123 167 113 Q 168 106 188 90 Q 246 39 260 12 Q 276 -21 291 -23 Q 306 -24 321 11 Q 340 56 339 129 Q 332 250 332 372 L 332 405 Q 332 469 335 530 L 338 586 Q 338 665 358 732 Q 374 763 320 785 Q 286 804 267 798 Q 249 791 265 768 Q 287 741 287 707 Q 288 691 286 567 L 285 517 Q 284 456 281 374 L 280 330 Z" class="stroke2"/>
    <path d="M 281 374 Q 197 325 125 277 Q 91 256 67 249 Q 54 243 53 235 Q 52 225 67 212 Q 86 196 110 189 Q 126 185 137 198 Q 209 276 280 330 L 332 372 Q 389 420 393 424 Q 399 437 388 436 Q 373 436 332 405 L 281 374 Z" class="stroke3"/>
    <path d="M 649 731 Q 683 707 722 678 Q 738 665 754 668 Q 764 669 769 684 Q 772 700 759 730 Q 746 764 639 781 Q 623 782 616 779 Q 612 775 614 761 Q 618 751 649 731 Z" class="stroke4"/>
    <path d="M 558 523 Q 571 522 586 527 Q 724 561 886 588 Q 896 587 906 600 Q 907 613 882 622 Q 843 644 761 614 Q 740 610 721 603 Q 697 597 541 568 C 512 563 528 522 558 523 Z" class="stroke5"/>
    <path d="M 541 568 Q 492 590 477 587 Q 456 583 474 561 Q 504 506 491 304 Q 484 252 459 187 Q 441 139 367 53 Q 343 35 337 20 Q 336 13 348 14 Q 385 14 454 89 Q 524 171 542 301 Q 555 382 556 503 Q 557 515 558 523 C 561 553 562 559 541 568 Z" class="stroke6"/>
    
    
    
    
    
    </g>
</svg>