<svg version="1.1" viewBox="0 0 1024 1024" xmlns="http://www.w3.org/2000/svg">
  
  <g transform="scale(1, -1) translate(0, -900)">
    <style type="text/css">
        .stroke1 {fill: #808080;}
        .stroke2 {fill: #808079;}
        .stroke3 {fill: #808078;}
        .stroke4 {fill: #808077;}
        .stroke5 {fill: #808076;}
        .stroke6 {fill: #808075;}
        .stroke7 {fill: #808074;}
        .stroke8 {fill: #808073;}
        .stroke9 {fill: #808072;}
        .stroke10 {fill: #808071;}
        .stroke11 {fill: #808070;}
        .stroke12 {fill: #808069;}
        .stroke13 {fill: #808068;}
        .stroke14 {fill: #808067;}
        .stroke15 {fill: #808066;}
        .stroke16 {fill: #808065;}
        .stroke17 {fill: #808064;}
        .stroke18 {fill: #808063;}
        .stroke19 {fill: #808062;}
        .stroke20 {fill: #808061;}
        text {
            font-family: Helvetica;
            font-size: 50px;
            fill: #808060;
            paint-order: stroke;
            stroke: #000000;
            stroke-width: 4px;
            stroke-linecap: butt;
            stroke-linejoin: miter;
            font-weight: 800;
        }
    </style>

    <path d="M 323 520 Q 345 529 371 536 Q 405 548 410 553 Q 417 562 412 569 Q 405 579 375 584 Q 348 587 325 575 L 277 554 Q 202 527 137 513 Q 103 503 130 490 Q 175 471 225 490 Q 250 497 276 506 L 323 520 Z" class="stroke1"/>
    <path d="M 274 343 Q 273 249 271 128 Q 270 104 257 96 Q 253 93 184 107 Q 153 119 155 109 Q 156 102 175 87 Q 236 38 251 10 Q 269 -23 284 -24 Q 297 -25 312 8 Q 330 51 329 122 Q 322 254 321 384 L 321 415 Q 321 469 323 520 L 325 575 Q 325 674 345 739 Q 361 767 308 789 Q 277 807 257 801 Q 241 794 256 772 Q 275 747 277 714 Q 278 696 277 554 L 276 506 Q 275 454 274 384 L 274 343 Z" class="stroke2"/>
    <path d="M 274 384 Q 82 254 74 249 Q 62 243 59 234 Q 58 227 72 214 Q 91 201 112 196 Q 127 193 135 205 Q 190 271 274 343 L 321 384 Q 337 400 354 412 Q 373 425 381 440 Q 387 453 377 452 Q 367 449 321 415 L 274 384 Z" class="stroke3"/>
    <path d="M 598 478 Q 619 484 762 511 Q 774 510 782 524 Q 783 537 758 546 Q 724 567 637 536 Q 621 533 606 527 L 553 513 Q 528 507 503 503 Q 469 497 431 490 Q 401 484 425 468 Q 459 447 500 455 Q 521 461 546 466 L 598 478 Z" class="stroke4"/>
    <path d="M 546 466 Q 545 462 545 457 Q 509 277 371 58 Q 365 52 364 46 Q 361 36 372 37 Q 399 41 483 161 Q 504 197 524 237 Q 567 336 598 478 L 606 527 Q 612 567 616 606 Q 625 699 633 721 Q 640 736 634 749 Q 618 765 588 779 Q 569 789 556 785 Q 544 778 551 765 Q 572 735 568 671 Q 556 539 553 513 L 546 466 Z" class="stroke5"/>
    <path d="M 973 90 Q 955 132 943 206 Q 940 222 933 226 Q 926 230 923 211 Q 910 120 897 103 Q 873 76 772 72 Q 717 73 694 81 Q 673 91 668 105 Q 658 133 659 209 Q 666 290 682 329 Q 695 357 676 374 Q 630 411 614 407 Q 599 401 607 385 Q 625 349 620 296 Q 611 104 636 71 Q 655 41 725 31 Q 776 24 856 26 Q 929 29 957 44 Q 985 60 973 90 Z" class="stroke6"/>
    <path d="M 736 683 Q 761 658 790 629 Q 802 616 817 616 Q 827 616 833 629 Q 837 642 831 671 Q 825 699 733 729 Q 718 733 712 731 Q 708 727 708 715 Q 711 705 736 683 Z" class="stroke7"/>
    
    
    
    
    
    
    </g>
</svg>