<svg version="1.1" viewBox="0 0 1024 1024" xmlns="http://www.w3.org/2000/svg">
  
  <g transform="scale(1, -1) translate(0, -900)">
    <style type="text/css">
        .stroke1 {fill: #808080;}
        .stroke2 {fill: #808079;}
        .stroke3 {fill: #808078;}
        .stroke4 {fill: #808077;}
        .stroke5 {fill: #808076;}
        .stroke6 {fill: #808075;}
        .stroke7 {fill: #808074;}
        .stroke8 {fill: #808073;}
        .stroke9 {fill: #808072;}
        .stroke10 {fill: #808071;}
        .stroke11 {fill: #808070;}
        .stroke12 {fill: #808069;}
        .stroke13 {fill: #808068;}
        .stroke14 {fill: #808067;}
        .stroke15 {fill: #808066;}
        .stroke16 {fill: #808065;}
        .stroke17 {fill: #808064;}
        .stroke18 {fill: #808063;}
        .stroke19 {fill: #808062;}
        .stroke20 {fill: #808061;}
        text {
            font-family: Helvetica;
            font-size: 50px;
            fill: #808060;
            paint-order: stroke;
            stroke: #000000;
            stroke-width: 4px;
            stroke-linecap: butt;
            stroke-linejoin: miter;
            font-weight: 800;
        }
    </style>

    <path d="M 334 551 Q 430 581 433 583 Q 442 592 436 600 Q 429 612 398 617 Q 367 621 337 607 Q 336 607 336 606 L 287 587 Q 169 559 151 555 Q 114 546 142 531 Q 184 510 245 528 Q 264 534 286 538 L 334 551 Z" class="stroke1"/>
    <path d="M 282 347 Q 281 271 279 177 Q 278 153 265 145 Q 258 139 197 148 Q 164 158 167 149 Q 168 142 189 127 Q 247 81 263 54 Q 281 23 295 21 Q 310 20 324 55 Q 342 101 339 174 Q 333 280 332 386 L 332 418 Q 331 485 334 551 L 336 606 Q 343 741 358 784 Q 374 815 320 837 Q 286 856 267 849 Q 249 843 265 820 Q 287 793 287 759 Q 288 741 287 587 L 286 538 Q 285 474 283 388 L 282 347 Z" class="stroke2"/>
    <path d="M 283 388 Q 189 333 107 278 Q 74 259 52 251 Q 40 245 38 237 Q 38 228 52 215 Q 71 202 93 194 Q 108 190 118 202 Q 181 271 282 347 L 332 386 Q 395 438 397 440 Q 403 453 392 452 Q 380 452 332 418 L 283 388 Z" class="stroke3"/>
    <path d="M 594 764 Q 639 692 618 414 Q 611 353 625 322 Q 626 319 628 315 Q 638 299 654 308 Q 664 317 666 387 Q 654 549 675 671 Q 679 696 695 726 Q 702 736 689 750 Q 629 795 602 784 Q 587 780 594 764 Z" class="stroke4"/>
    <path d="M 499 526 Q 481 462 453 404 Q 440 374 457 346 Q 464 331 482 344 Q 528 387 526 478 Q 527 506 519 528 Q 515 535 509 535 Q 502 534 499 526 Z" class="stroke5"/>
    <path d="M 789 569 Q 843 535 910 482 Q 928 466 943 464 Q 950 464 957 475 Q 966 488 947 528 Q 929 573 785 598 Q 775 602 775 590 Q 776 577 789 569 Z" class="stroke6"/>
    <path d="M 750 451 Q 751 276 568 108 Q 564 105 561 102 Q 510 51 385 -32 Q 376 -39 383 -44 Q 392 -48 404 -43 Q 588 18 686 154 Q 741 220 795 335 Q 813 369 835 401 Q 845 411 839 423 Q 833 436 800 458 Q 776 474 765 472 Q 750 469 750 451 Z" class="stroke7"/>
    
    
    
    
    
    
    </g>
</svg>