<svg version="1.1" viewBox="0 0 1024 1024" xmlns="http://www.w3.org/2000/svg">
  
  <g transform="scale(1, -1) translate(0, -900)">
    <style type="text/css">
        .stroke1 {fill: #808080;}
        .stroke2 {fill: #808079;}
        .stroke3 {fill: #808078;}
        .stroke4 {fill: #808077;}
        .stroke5 {fill: #808076;}
        .stroke6 {fill: #808075;}
        .stroke7 {fill: #808074;}
        .stroke8 {fill: #808073;}
        .stroke9 {fill: #808072;}
        .stroke10 {fill: #808071;}
        .stroke11 {fill: #808070;}
        .stroke12 {fill: #808069;}
        .stroke13 {fill: #808068;}
        .stroke14 {fill: #808067;}
        .stroke15 {fill: #808066;}
        .stroke16 {fill: #808065;}
        .stroke17 {fill: #808064;}
        .stroke18 {fill: #808063;}
        .stroke19 {fill: #808062;}
        .stroke20 {fill: #808061;}
        text {
            font-family: Helvetica;
            font-size: 50px;
            fill: #808060;
            paint-order: stroke;
            stroke: #000000;
            stroke-width: 4px;
            stroke-linecap: butt;
            stroke-linejoin: miter;
            font-weight: 800;
        }
    </style>

    <path d="M 342 541 Q 429 571 434 575 Q 441 584 436 592 Q 429 604 398 608 Q 370 611 344 599 L 291 576 Q 188 543 134 531 Q 97 521 126 507 Q 168 489 234 509 Q 259 518 290 525 L 342 541 Z" class="stroke1"/>
    <path d="M 287 334 Q 286 246 284 137 Q 283 113 271 104 Q 267 101 202 110 Q 168 123 171 112 Q 172 105 193 89 Q 253 38 268 9 Q 284 -24 300 -25 Q 316 -26 331 9 Q 350 57 349 133 Q 342 256 340 378 L 340 413 Q 340 477 342 541 L 344 599 Q 344 687 364 759 Q 382 790 324 813 Q 290 832 269 826 Q 251 819 267 795 Q 289 767 291 731 Q 292 715 291 576 L 290 525 Q 289 462 287 379 L 287 334 Z" class="stroke2"/>
    <path d="M 287 379 Q 76 246 65 239 Q 47 239 44 222 Q 44 213 59 199 Q 78 184 102 178 Q 118 174 129 187 Q 220 280 287 334 L 340 378 Q 362 397 384 413 Q 406 426 417 444 Q 423 457 412 456 Q 409 456 340 413 L 287 379 Z" class="stroke3"/>
    <path d="M 789 414 Q 817 526 857 558 Q 873 579 858 597 Q 768 658 725 626 Q 635 587 510 558 C 481 551 487 519 517 524 Q 530 525 548 532 Q 576 539 606 547 L 638 555 Q 678 567 723 578 Q 745 585 755 577 Q 767 567 764 543 Q 752 474 736 419 C 728 390 781 385 789 414 Z" class="stroke4"/>
    <path d="M 606 547 Q 610 537 610 386 C 610 356 646 366 650 396 Q 657 451 663 494 Q 669 525 665 531 Q 652 547 638 555 C 613 571 601 577 606 547 Z" class="stroke5"/>
    <path d="M 501 332 Q 508 331 519 333 Q 607 357 801 381 Q 811 382 812 391 Q 812 398 789 414 C 771 427 765 426 736 419 L 735 419 Q 690 407 650 396 L 610 386 Q 552 376 503 365 C 474 359 471 332 501 332 Z" class="stroke6"/>
    <path d="M 975 146 Q 962 176 944 265 Q 944 281 937 286 Q 931 289 927 272 Q 900 176 882 146 Q 864 122 811 107 Q 688 71 581 115 Q 538 134 526 161 Q 496 218 501 332 L 503 365 Q 504 440 517 524 C 521 551 521 551 510 558 Q 497 571 474 578 Q 461 582 453 577 Q 446 573 452 556 Q 465 517 464 480 Q 455 213 479 140 Q 486 109 515 83 Q 618 2 833 43 Q 849 47 866 52 Q 918 68 968 106 Q 987 121 975 146 Z" class="stroke7"/>
    
    
    
    
    
    
    </g>
</svg>