<svg version="1.1" viewBox="0 0 1024 1024" xmlns="http://www.w3.org/2000/svg">
  
  <g transform="scale(1, -1) translate(0, -900)">
    <style type="text/css">
        .stroke1 {fill: #808080;}
        .stroke2 {fill: #808079;}
        .stroke3 {fill: #808078;}
        .stroke4 {fill: #808077;}
        .stroke5 {fill: #808076;}
        .stroke6 {fill: #808075;}
        .stroke7 {fill: #808074;}
        .stroke8 {fill: #808073;}
        .stroke9 {fill: #808072;}
        .stroke10 {fill: #808071;}
        .stroke11 {fill: #808070;}
        .stroke12 {fill: #808069;}
        .stroke13 {fill: #808068;}
        .stroke14 {fill: #808067;}
        .stroke15 {fill: #808066;}
        .stroke16 {fill: #808065;}
        .stroke17 {fill: #808064;}
        .stroke18 {fill: #808063;}
        .stroke19 {fill: #808062;}
        .stroke20 {fill: #808061;}
        text {
            font-family: Helvetica;
            font-size: 50px;
            fill: #808060;
            paint-order: stroke;
            stroke: #000000;
            stroke-width: 4px;
            stroke-linecap: butt;
            stroke-linejoin: miter;
            font-weight: 800;
        }
    </style>

    <path d="M 334 553 Q 353 559 378 564 Q 415 574 420 579 Q 429 588 424 596 Q 417 608 386 614 Q 361 618 337 610 L 286 591 Q 214 570 132 558 Q 95 551 123 535 Q 163 514 247 533 Q 265 537 285 541 L 334 553 Z" class="stroke1"/>
    <path d="M 279 335 Q 278 241 275 123 Q 274 98 261 90 Q 255 87 193 95 Q 160 107 163 97 Q 164 90 184 75 Q 242 26 257 -1 Q 275 -32 289 -35 Q 304 -36 318 -1 Q 337 44 335 117 Q 329 247 329 376 L 330 411 Q 330 483 334 553 L 337 610 Q 337 691 358 760 Q 374 790 320 813 Q 287 832 267 826 Q 251 819 265 796 Q 286 769 287 735 Q 288 719 286 591 L 285 541 Q 284 474 280 379 L 279 335 Z" class="stroke2"/>
    <path d="M 280 379 Q 55 238 49 234 Q 34 227 32 218 Q 32 209 47 195 Q 66 180 91 174 Q 107 170 117 183 Q 180 252 279 335 L 329 376 Q 345 392 365 405 Q 387 420 397 436 Q 403 449 392 448 Q 382 447 330 411 L 280 379 Z" class="stroke3"/>
    <path d="M 503 637 Q 525 618 548 592 Q 560 580 574 581 Q 584 581 589 593 Q 593 606 586 633 Q 582 651 556 663 Q 495 687 480 683 Q 476 679 476 668 Q 479 658 503 637 Z" class="stroke4"/>
    <path d="M 713 718 Q 701 687 644 591 Q 637 572 654 579 Q 666 589 764 679 Q 780 698 804 713 Q 825 728 810 744 Q 794 760 764 770 Q 736 780 724 775 Q 711 771 718 758 Q 724 739 713 718 Z" class="stroke5"/>
    <path d="M 475 504 Q 436 498 464 479 Q 506 452 569 465 Q 665 483 765 502 Q 811 512 818 517 Q 828 526 823 535 Q 816 548 784 556 Q 757 562 648 531 Q 552 510 475 504 Z" class="stroke6"/>
    <path d="M 503 332 Q 463 325 492 307 Q 532 282 597 294 Q 670 307 746 321 Q 780 328 786 333 Q 796 342 791 351 Q 784 364 752 372 Q 728 378 622 349 Q 529 334 503 332 Z" class="stroke7"/>
    <path d="M 390 143 Q 368 142 384 123 Q 399 108 418 102 Q 440 95 457 100 Q 613 136 867 130 Q 885 130 903 129 Q 925 128 930 137 Q 937 150 919 165 Q 862 207 823 200 Q 688 176 390 143 Z" class="stroke8"/>
    
    
    
    
    
    
    
    </g>
</svg>