<svg version="1.1" viewBox="0 0 1024 1024" xmlns="http://www.w3.org/2000/svg">
  
  <g transform="scale(1, -1) translate(0, -900)">
    <style type="text/css">
        .stroke1 {fill: #808080;}
        .stroke2 {fill: #808079;}
        .stroke3 {fill: #808078;}
        .stroke4 {fill: #808077;}
        .stroke5 {fill: #808076;}
        .stroke6 {fill: #808075;}
        .stroke7 {fill: #808074;}
        .stroke8 {fill: #808073;}
        .stroke9 {fill: #808072;}
        .stroke10 {fill: #808071;}
        .stroke11 {fill: #808070;}
        .stroke12 {fill: #808069;}
        .stroke13 {fill: #808068;}
        .stroke14 {fill: #808067;}
        .stroke15 {fill: #808066;}
        .stroke16 {fill: #808065;}
        .stroke17 {fill: #808064;}
        .stroke18 {fill: #808063;}
        .stroke19 {fill: #808062;}
        .stroke20 {fill: #808061;}
        text {
            font-family: Helvetica;
            font-size: 50px;
            fill: #808060;
            paint-order: stroke;
            stroke: #000000;
            stroke-width: 4px;
            stroke-linecap: butt;
            stroke-linejoin: miter;
            font-weight: 800;
        }
    </style>

    <path d="M 326 535 Q 344 542 365 548 Q 398 560 402 565 Q 409 574 404 581 Q 397 591 367 595 Q 348 596 329 591 L 281 570 Q 200 539 137 525 Q 103 515 129 502 Q 172 483 224 503 Q 249 512 280 520 L 326 535 Z" class="stroke1"/>
    <path d="M 274 362 Q 271 265 268 137 Q 267 112 254 104 Q 251 101 180 115 Q 149 127 151 117 Q 152 110 171 95 Q 232 46 247 18 Q 265 -15 280 -16 Q 293 -17 309 16 Q 327 59 326 130 Q 320 266 322 403 L 322 432 Q 323 484 326 535 L 329 591 Q 335 717 352 766 Q 368 794 316 817 Q 285 836 266 829 Q 248 823 263 801 Q 284 776 284 742 Q 285 723 281 570 L 280 520 Q 279 468 275 400 L 274 362 Z" class="stroke2"/>
    <path d="M 275 400 Q 178 336 93 272 Q 63 251 43 244 Q 33 238 31 230 Q 30 223 44 210 Q 63 197 84 192 Q 99 189 107 201 Q 186 288 274 362 L 322 403 Q 379 454 381 456 Q 387 469 377 468 Q 365 465 322 432 L 275 400 Z" class="stroke3"/>
    <path d="M 657 516 Q 783 556 785 558 Q 792 565 788 573 Q 781 583 753 589 Q 729 592 649 559 L 608 544 Q 602 544 596 541 Q 536 522 466 511 Q 433 504 458 489 Q 500 468 547 486 Q 580 495 616 504 L 657 516 Z" class="stroke4"/>
    <path d="M 516 359 Q 541 368 574 375 Q 596 382 600 385 Q 607 392 603 399 Q 596 408 573 412 Q 548 416 525 404 Q 500 394 470 385 Q 439 376 401 371 Q 373 364 394 352 Q 421 339 483 350 L 516 359 Z" class="stroke5"/>
    <path d="M 529 236 Q 533 276 537 307 Q 537 314 538 318 Q 545 333 537 341 Q 527 353 516 359 C 490 375 477 379 483 350 Q 486 343 490 223 C 491 193 526 206 529 236 Z" class="stroke6"/>
    <path d="M 490 223 Q 388 196 361 197 Q 349 197 347 184 Q 346 172 357 165 Q 390 146 404 139 Q 420 132 440 145 Q 470 166 611 241 Q 627 248 633 255 Q 640 264 629 266 Q 620 266 529 236 L 490 223 Z" class="stroke7"/>
    <path d="M 616 504 Q 677 170 846 31 Q 904 -18 934 -18 Q 953 -14 947 15 Q 943 64 947 210 Q 947 234 939 235 Q 933 235 899 138 Q 884 93 857 108 Q 848 114 836 122 Q 707 251 659 507 Q 658 511 657 516 L 649 559 Q 631 661 639 750 Q 649 790 596 809 Q 562 822 543 815 Q 524 808 533 790 Q 579 751 580 719 Q 593 623 608 544 L 616 504 Z" class="stroke8"/>
    <path d="M 744 741 Q 771 722 800 698 Q 815 686 830 689 Q 840 690 845 704 Q 848 720 836 748 Q 829 767 798 777 Q 720 795 712 787 Q 708 783 710 770 Q 714 760 744 741 Z" class="stroke9"/>
    
    
    
    
    
    
    
    
    </g>
</svg>