<svg version="1.1" viewBox="0 0 1024 1024" xmlns="http://www.w3.org/2000/svg">
  
  <g transform="scale(1, -1) translate(0, -900)">
    <style type="text/css">
        .stroke1 {fill: #808080;}
        .stroke2 {fill: #808079;}
        .stroke3 {fill: #808078;}
        .stroke4 {fill: #808077;}
        .stroke5 {fill: #808076;}
        .stroke6 {fill: #808075;}
        .stroke7 {fill: #808074;}
        .stroke8 {fill: #808073;}
        .stroke9 {fill: #808072;}
        .stroke10 {fill: #808071;}
        .stroke11 {fill: #808070;}
        .stroke12 {fill: #808069;}
        .stroke13 {fill: #808068;}
        .stroke14 {fill: #808067;}
        .stroke15 {fill: #808066;}
        .stroke16 {fill: #808065;}
        .stroke17 {fill: #808064;}
        .stroke18 {fill: #808063;}
        .stroke19 {fill: #808062;}
        .stroke20 {fill: #808061;}
        text {
            font-family: Helvetica;
            font-size: 50px;
            fill: #808060;
            paint-order: stroke;
            stroke: #000000;
            stroke-width: 4px;
            stroke-linecap: butt;
            stroke-linejoin: miter;
            font-weight: 800;
        }
    </style>

    <path d="M 333 514 Q 343 518 356 521 Q 386 531 390 535 Q 397 544 392 552 Q 385 564 354 568 Q 344 569 335 568 L 285 552 Q 198 521 134 507 Q 97 497 126 483 Q 171 462 226 482 Q 254 491 284 499 L 333 514 Z" class="stroke1"/>
    <path d="M 279 339 Q 276 248 274 131 Q 273 107 260 99 Q 254 95 217 94 Q 184 107 187 97 Q 188 90 207 74 Q 253 28 263 4 Q 273 -24 287 -27 Q 300 -28 317 6 Q 336 52 336 125 Q 329 255 330 385 L 330 416 Q 331 465 333 514 L 335 568 Q 342 698 358 748 Q 374 778 320 801 Q 287 820 267 814 Q 249 807 265 784 Q 286 757 287 723 Q 288 705 285 552 L 284 499 Q 283 447 280 380 L 279 339 Z" class="stroke2"/>
    <path d="M 280 380 Q 58 223 55 220 Q 40 220 36 203 Q 36 194 51 182 Q 70 169 94 164 Q 110 161 118 174 Q 193 261 279 339 L 330 385 Q 337 394 348 401 Q 369 416 377 432 Q 383 445 372 444 Q 348 435 330 416 L 280 380 Z" class="stroke3"/>
    <path d="M 631 561 Q 692 576 758 588 Q 807 600 815 607 Q 824 614 819 624 Q 812 636 782 643 Q 751 650 721 637 Q 676 622 632 609 L 585 597 Q 525 585 458 578 Q 421 571 447 554 Q 486 533 559 547 Q 571 550 585 551 L 631 561 Z" class="stroke4"/>
    <path d="M 617 308 Q 620 336 631 561 L 632 609 Q 632 694 655 764 Q 662 779 651 790 Q 627 808 588 818 Q 563 825 553 817 Q 544 810 552 797 Q 576 761 580 713 Q 584 655 585 597 L 585 551 Q 585 296 527 199 Q 520 187 510 174 Q 467 120 373 67 Q 360 60 360 55 Q 361 51 373 51 Q 389 47 430 63 Q 562 108 606 257 Q 609 269 611 280 L 617 308 Z" class="stroke5"/>
    <path d="M 611 280 Q 690 162 793 38 Q 812 19 843 19 Q 948 23 981 30 Q 991 31 992 37 Q 993 41 979 50 Q 832 108 764 169 Q 704 220 617 308 C 596 329 594 305 611 280 Z" class="stroke6"/>
    <path d="M 472 386 Q 496 425 522 460 Q 529 470 519 481 Q 482 508 465 505 Q 456 504 458 491 Q 467 428 374 319 Q 373 319 373 318 Q 366 305 378 309 Q 403 312 461 372 L 472 386 Z" class="stroke7"/>
    <path d="M 461 372 Q 462 371 465 366 Q 504 314 525 310 Q 535 309 541 323 Q 542 333 536 349 Q 521 374 472 386 C 446 393 446 393 461 372 Z" class="stroke8"/>
    <path d="M 746 409 Q 764 425 780 444 Q 802 469 823 490 Q 833 500 822 514 Q 789 547 768 547 Q 758 546 759 533 Q 760 481 686 399 Q 674 393 654 370 Q 645 358 659 360 Q 672 360 727 393 L 746 409 Z" class="stroke9"/>
    <path d="M 727 393 Q 731 386 748 373 Q 781 348 814 315 Q 824 305 837 306 Q 846 306 849 317 Q 853 327 846 351 Q 842 372 810 387 Q 780 400 746 409 C 717 417 709 417 727 393 Z" class="stroke10"/>
    
    
    
    
    
    
    
    
    
    </g>
</svg>