<svg version="1.1" viewBox="0 0 1024 1024" xmlns="http://www.w3.org/2000/svg">
  
  <g transform="scale(1, -1) translate(0, -900)">
    <style type="text/css">
        .stroke1 {fill: #808080;}
        .stroke2 {fill: #808079;}
        .stroke3 {fill: #808078;}
        .stroke4 {fill: #808077;}
        .stroke5 {fill: #808076;}
        .stroke6 {fill: #808075;}
        .stroke7 {fill: #808074;}
        .stroke8 {fill: #808073;}
        .stroke9 {fill: #808072;}
        .stroke10 {fill: #808071;}
        .stroke11 {fill: #808070;}
        .stroke12 {fill: #808069;}
        .stroke13 {fill: #808068;}
        .stroke14 {fill: #808067;}
        .stroke15 {fill: #808066;}
        .stroke16 {fill: #808065;}
        .stroke17 {fill: #808064;}
        .stroke18 {fill: #808063;}
        .stroke19 {fill: #808062;}
        .stroke20 {fill: #808061;}
        text {
            font-family: Helvetica;
            font-size: 50px;
            fill: #808060;
            paint-order: stroke;
            stroke: #000000;
            stroke-width: 4px;
            stroke-linecap: butt;
            stroke-linejoin: miter;
            font-weight: 800;
        }
    </style>

    <path d="M 323 545 Q 347 554 372 559 Q 408 569 413 575 Q 422 584 416 592 Q 409 604 378 609 Q 350 613 324 601 L 275 581 Q 191 554 127 543 Q 90 534 118 519 Q 160 501 236 521 Q 254 527 274 530 L 323 545 Z" class="stroke1"/>
    <path d="M 271 349 Q 268 252 267 128 Q 266 103 252 94 Q 245 90 181 102 Q 148 115 151 105 Q 152 98 172 82 Q 233 33 248 4 Q 264 -29 280 -31 Q 295 -32 310 3 Q 328 48 327 122 Q 320 255 320 389 L 320 422 Q 320 483 323 545 L 324 601 Q 331 731 346 776 Q 362 807 308 829 Q 274 848 255 841 Q 237 835 253 812 Q 275 785 276 751 Q 277 732 275 581 L 274 530 Q 273 469 271 390 L 271 349 Z" class="stroke2"/>
    <path d="M 271 390 Q 63 258 58 255 Q 43 249 42 240 Q 41 231 56 219 Q 75 206 97 199 Q 113 195 122 208 Q 191 283 271 349 L 320 389 Q 335 404 352 415 Q 371 428 381 444 Q 387 457 376 456 Q 373 456 320 422 L 271 390 Z" class="stroke3"/>
    <path d="M 504 746 Q 495 750 478 753 Q 466 756 463 751 Q 456 745 464 730 Q 494 661 509 551 Q 510 518 529 495 Q 545 474 551 489 Q 552 496 554 505 L 554 537 Q 548 592 543 613 L 539 637 Q 529 701 529 719 C 528 737 528 737 504 746 Z" class="stroke4"/>
    <path d="M 675 521 Q 688 503 701 497 Q 711 490 726 510 Q 741 535 771 670 Q 780 700 802 723 Q 815 735 804 748 Q 789 764 749 789 Q 730 799 715 792 Q 693 786 663 780 Q 623 773 573 761 Q 534 752 504 746 C 475 740 500 711 529 719 Q 584 735 682 751 Q 704 755 711 748 Q 724 732 721 717 Q 696 572 677 557 C 663 535 663 535 675 521 Z" class="stroke5"/>
    <path d="M 543 613 Q 546 613 657 632 Q 679 638 669 649 Q 659 662 634 665 Q 604 666 539 637 C 512 625 513 609 543 613 Z" class="stroke6"/>
    <path d="M 554 505 Q 560 505 568 506 Q 602 513 675 521 C 705 524 704 545 677 557 Q 676 558 675 558 Q 660 565 632 557 Q 589 545 554 537 C 525 530 524 504 554 505 Z" class="stroke7"/>
    <path d="M 624 403 Q 703 416 826 421 Q 877 421 884 430 Q 888 440 874 452 Q 826 482 796 474 Q 643 438 390 396 Q 372 393 386 379 Q 399 367 414 364 Q 432 360 446 364 Q 507 385 578 395 L 624 403 Z" class="stroke8"/>
    <path d="M 635 151 Q 638 212 641 265 L 643 296 Q 646 383 647 383 Q 637 393 624 403 C 601 422 567 423 578 395 Q 587 383 590 281 Q 590 242 590 179 C 590 149 634 121 635 151 Z" class="stroke9"/>
    <path d="M 641 265 Q 662 262 721 272 Q 790 290 792 290 Q 799 297 795 305 Q 788 315 761 321 Q 733 325 707 312 Q 691 306 671 302 Q 658 299 643 296 C 614 290 611 268 641 265 Z" class="stroke10"/>
    <path d="M 496 247 Q 503 263 513 276 Q 520 289 507 301 Q 462 328 442 322 Q 432 319 435 306 Q 453 222 374 113 Q 368 107 340 67 Q 334 52 347 58 Q 399 73 465 186 Q 478 214 481 217 L 496 247 Z" class="stroke11"/>
    <path d="M 481 217 Q 574 130 770 8 Q 792 -2 848 7 Q 885 14 928 24 Q 964 34 972 46 Q 978 59 957 59 Q 891 69 850 71 Q 754 80 635 151 L 590 179 Q 544 210 496 247 C 472 265 459 237 481 217 Z" class="stroke12"/>
    
    
    
    
    
    
    
    
    
    
    
    </g>
</svg>