<svg version="1.1" viewBox="0 0 1024 1024" xmlns="http://www.w3.org/2000/svg">
  
  <g transform="scale(1, -1) translate(0, -900)">
    <style type="text/css">
        .stroke1 {fill: #808080;}
        .stroke2 {fill: #808079;}
        .stroke3 {fill: #808078;}
        .stroke4 {fill: #808077;}
        .stroke5 {fill: #808076;}
        .stroke6 {fill: #808075;}
        .stroke7 {fill: #808074;}
        .stroke8 {fill: #808073;}
        .stroke9 {fill: #808072;}
        .stroke10 {fill: #808071;}
        .stroke11 {fill: #808070;}
        .stroke12 {fill: #808069;}
        .stroke13 {fill: #808068;}
        .stroke14 {fill: #808067;}
        .stroke15 {fill: #808066;}
        .stroke16 {fill: #808065;}
        .stroke17 {fill: #808064;}
        .stroke18 {fill: #808063;}
        .stroke19 {fill: #808062;}
        .stroke20 {fill: #808061;}
        text {
            font-family: Helvetica;
            font-size: 50px;
            fill: #808060;
            paint-order: stroke;
            stroke: #000000;
            stroke-width: 4px;
            stroke-linecap: butt;
            stroke-linejoin: miter;
            font-weight: 800;
        }
    </style>

    <path d="M 324 523 Q 337 527 355 531 Q 388 540 392 545 Q 401 552 396 561 Q 389 571 360 577 Q 342 580 326 576 L 274 558 Q 186 534 131 524 Q 97 517 122 502 Q 162 484 228 499 Q 249 505 273 510 L 324 523 Z" class="stroke1"/>
    <path d="M 268 327 Q 267 243 264 138 Q 263 116 251 108 Q 242 105 185 121 Q 154 134 155 125 Q 156 118 174 101 Q 232 47 245 18 Q 261 -16 276 -19 Q 291 -20 306 14 Q 327 60 327 133 Q 320 253 321 372 L 321 403 Q 321 464 324 523 L 326 576 Q 326 654 346 720 Q 362 751 308 773 Q 274 792 255 786 Q 237 779 253 756 Q 275 729 275 695 Q 276 679 274 558 L 273 510 Q 272 450 269 369 L 268 327 Z" class="stroke2"/>
    <path d="M 269 369 Q 190 320 120 271 Q 89 250 67 242 Q 55 236 53 228 Q 53 219 67 207 Q 86 194 109 187 Q 125 183 134 196 Q 215 284 268 327 L 321 372 Q 369 415 373 420 Q 379 433 368 432 Q 358 429 336 413 Q 329 409 321 403 L 269 369 Z" class="stroke3"/>
    <path d="M 458 658 Q 500 598 522 594 Q 535 593 541 609 Q 544 621 536 640 Q 529 655 508 663 Q 477 679 464 683 Q 455 684 454 674 Q 453 667 458 658 Z" class="stroke4"/>
    <path d="M 720 717 Q 701 686 663 636 Q 659 629 663 623 Q 670 622 677 626 Q 753 678 789 699 Q 805 703 802 714 Q 796 729 778 746 Q 759 762 739 764 Q 724 763 726 745 Q 727 732 720 717 Z" class="stroke5"/>
    <path d="M 634 542 Q 646 545 800 570 Q 810 569 817 580 Q 818 590 798 600 Q 771 619 674 590 Q 656 586 638 581 Q 631 580 625 577 L 588 569 Q 551 563 517 558 Q 477 554 431 546 Q 406 542 426 527 Q 453 508 494 514 Q 518 520 548 525 L 634 542 Z" class="stroke6"/>
    <path d="M 625 577 Q 628 715 655 770 Q 661 780 650 793 Q 598 835 569 825 Q 556 821 562 806 Q 590 761 588 690 Q 589 623 588 569 L 586 503 Q 577 395 590 368 Q 591 367 593 362 Q 603 347 617 355 Q 627 364 628 432 Q 625 487 624 524 L 625 577 Z" class="stroke7"/>
    <path d="M 548 525 Q 536 453 381 342 Q 368 332 380 330 Q 389 329 419 343 Q 453 356 484 380 Q 512 402 542 438 Q 545 441 586 503 C 609 538 560 579 548 525 Z" class="stroke8"/>
    <path d="M 624 524 Q 682 452 749 385 Q 768 366 800 365 Q 858 362 919 374 Q 935 375 936 380 Q 937 386 925 390 Q 889 403 846 416 Q 798 431 762 453 Q 716 478 672 512 Q 648 533 634 542 C 609 559 605 547 624 524 Z" class="stroke9"/>
    <path d="M 629 79 Q 680 45 752 -21 Q 774 -42 791 -42 Q 812 -43 813 -24 Q 814 -5 789 40 Q 777 65 657 119 L 611 138 Q 580 151 555 159 Q 533 163 545 185 Q 557 210 566 227 L 583 262 Q 590 283 601 295 Q 610 302 607 311 Q 601 324 566 350 Q 556 359 545 354 Q 533 351 540 336 Q 550 315 542 293 Q 536 274 531 255 L 518 220 Q 509 198 500 183 Q 490 167 493 155 Q 496 145 512 142 Q 548 130 587 106 L 629 79 Z" class="stroke10"/>
    <path d="M 587 106 Q 529 45 388 9 Q 370 0 391 -3 Q 544 -16 629 79 L 657 119 Q 682 158 696 203 Q 703 227 709 241 C 720 269 723 277 718 282 Q 708 295 685 303 Q 666 313 647 310 Q 634 306 640 292 Q 644 283 647 271 L 647 237 Q 646 218 636 193 Q 626 163 611 138 L 587 106 Z" class="stroke11"/>
    <path d="M 709 241 Q 766 244 896 245 Q 914 245 919 253 Q 923 263 909 275 Q 857 314 810 299 Q 770 293 718 282 L 647 271 Q 593 265 583 262 L 531 255 Q 455 248 371 236 Q 352 235 366 219 Q 379 206 395 201 Q 414 197 428 201 Q 471 213 518 220 L 566 227 Q 590 233 647 237 L 709 241 Z" class="stroke12"/>
    
    
    
    
    
    
    
    
    
    
    
    </g>
</svg>