<svg version="1.1" viewBox="0 0 1024 1024" xmlns="http://www.w3.org/2000/svg">
  
  <g transform="scale(1, -1) translate(0, -900)">
    <style type="text/css">
        .stroke1 {fill: #808080;}
        .stroke2 {fill: #808079;}
        .stroke3 {fill: #808078;}
        .stroke4 {fill: #808077;}
        .stroke5 {fill: #808076;}
        .stroke6 {fill: #808075;}
        .stroke7 {fill: #808074;}
        .stroke8 {fill: #808073;}
        .stroke9 {fill: #808072;}
        .stroke10 {fill: #808071;}
        .stroke11 {fill: #808070;}
        .stroke12 {fill: #808069;}
        .stroke13 {fill: #808068;}
        .stroke14 {fill: #808067;}
        .stroke15 {fill: #808066;}
        .stroke16 {fill: #808065;}
        .stroke17 {fill: #808064;}
        .stroke18 {fill: #808063;}
        .stroke19 {fill: #808062;}
        .stroke20 {fill: #808061;}
        text {
            font-family: Helvetica;
            font-size: 50px;
            fill: #808060;
            paint-order: stroke;
            stroke: #000000;
            stroke-width: 4px;
            stroke-linecap: butt;
            stroke-linejoin: miter;
            font-weight: 800;
        }
    </style>

    <path d="M 309 545 Q 327 552 349 557 Q 377 567 382 571 Q 389 580 384 588 Q 377 600 346 604 Q 327 607 310 602 L 262 582 Q 178 555 134 547 Q 97 537 126 523 Q 169 504 226 521 Q 242 527 262 531 L 309 545 Z" class="stroke1"/>
    <path d="M 259 345 Q 258 257 257 145 Q 257 121 244 112 Q 237 109 172 126 Q 141 139 143 129 Q 144 122 162 107 Q 223 55 238 27 Q 254 -6 271 -8 Q 284 -9 299 24 Q 317 67 316 139 Q 309 266 307 393 L 307 428 Q 307 488 309 545 L 310 602 Q 325 744 329 755 Q 345 783 292 805 Q 261 823 241 816 Q 225 810 240 788 Q 259 763 262 730 Q 263 714 262 582 L 262 531 Q 261 471 260 392 L 259 345 Z" class="stroke2"/>
    <path d="M 260 392 Q 184 337 116 281 Q 85 259 64 249 Q 54 242 52 234 Q 52 225 67 214 Q 88 201 110 197 Q 126 194 134 207 Q 185 271 259 345 L 307 393 Q 325 411 343 426 Q 362 441 370 456 Q 374 469 364 467 Q 354 464 307 428 L 260 392 Z" class="stroke3"/>
    <path d="M 491 699 Q 479 703 450 707 Q 440 710 436 705 Q 432 699 439 685 Q 439 681 443 677 Q 458 646 472 598 L 481 565 Q 493 508 509 490 Q 525 471 530 485 L 532 499 L 531 522 Q 530 534 527 547 Q 523 562 521 575 L 514 605 Q 504 651 501 670 C 496 698 496 698 491 699 Z" class="stroke4"/>
    <path d="M 684 527 Q 699 505 713 498 Q 722 491 736 510 Q 746 528 767 611 L 779 653 Q 786 671 801 685 Q 811 695 802 709 Q 789 722 751 746 Q 738 752 661 735 Q 651 735 640 730 L 587 719 Q 578 719 491 699 C 462 692 472 662 501 670 Q 535 680 588 691 L 637 700 Q 700 715 719 704 Q 729 695 727 680 Q 723 659 719 640 L 713 607 Q 704 565 694 554 C 681 531 681 531 684 527 Z" class="stroke5"/>
    <path d="M 767 611 Q 806 615 854 616 Q 875 617 892 618 Q 908 618 911 625 Q 915 635 902 645 Q 853 678 783 654 Q 780 654 779 653 L 719 640 Q 655 633 635 625 L 591 618 Q 552 612 514 605 L 472 598 Q 444 595 417 590 Q 401 587 413 575 Q 425 565 439 560 Q 446 560 481 565 L 521 575 Q 552 584 591 590 L 635 597 Q 666 604 713 607 L 767 611 Z" class="stroke6"/>
    <path d="M 633 518 Q 658 524 684 527 C 714 531 723 545 694 554 Q 681 560 640 551 Q 636 551 634 549 L 592 538 Q 559 531 531 522 C 502 513 503 491 532 499 Q 532 500 592 510 L 633 518 Z" class="stroke7"/>
    <path d="M 457 432 Q 447 436 414 438 Q 404 439 401 434 Q 395 428 405 415 Q 427 384 448 330 Q 452 314 464 304 Q 483 288 485 302 Q 486 308 486 315 L 481 345 Q 471 384 468 402 C 463 430 463 430 457 432 Z" class="stroke8"/>
    <path d="M 790 376 Q 808 406 830 416 Q 846 432 834 450 Q 768 510 714 483 Q 671 470 631 458 L 590 450 Q 524 440 457 432 C 427 428 438 397 468 402 Q 477 403 489 406 Q 538 416 590 424 L 630 431 Q 667 438 705 446 Q 733 453 744 441 Q 748 437 747 426 Q 743 405 736 386 C 726 358 773 351 790 376 Z" class="stroke9"/>
    <path d="M 587 328 Q 666 340 796 348 Q 806 349 807 357 Q 807 364 790 376 C 769 392 766 391 736 386 Q 679 376 628 365 L 588 358 Q 531 351 481 345 C 451 341 456 319 486 315 Q 496 312 508 315 Q 527 319 552 323 L 587 328 Z" class="stroke10"/>
    <path d="M 631 458 Q 632 489 633 518 L 634 549 Q 634 574 635 597 L 635 625 L 637 699 L 637 700 L 640 730 Q 641 757 655 804 Q 658 814 638 829 Q 604 847 580 851 Q 564 854 556 845 Q 549 838 557 823 Q 585 783 585 756 Q 586 738 587 719 L 588 691 Q 589 657 591 618 L 591 590 Q 591 565 592 538 L 592 510 Q 591 482 590 450 L 590 424 Q 589 393 588 358 C 587 328 627 335 628 365 Q 629 399 630 431 L 631 458 Z" class="stroke11"/>
    <path d="M 591 248 Q 601 267 610 278 Q 620 285 617 294 Q 613 307 587 328 C 564 348 550 353 552 323 Q 559 298 537 240 L 521 204 Q 509 180 497 164 Q 488 148 490 135 Q 493 125 509 122 Q 551 112 596 89 L 597 89 L 644 63 Q 699 32 778 -29 Q 803 -48 820 -47 Q 839 -46 839 -27 Q 839 -8 810 34 Q 795 61 676 102 L 626 120 Q 583 135 551 142 Q 533 146 543 163 Q 559 193 571 212 L 591 248 Z" class="stroke12"/>
    <path d="M 738 271 Q 711 298 678 295 Q 665 292 670 276 Q 673 269 674 260 L 673 224 Q 667 175 626 120 L 597 89 Q 531 32 385 8 Q 366 1 387 -4 Q 546 -34 644 63 L 676 102 Q 701 138 719 180 Q 732 216 745 230 C 761 252 761 252 738 271 Z" class="stroke13"/>
    <path d="M 745 230 Q 805 234 879 235 Q 939 232 947 243 Q 951 253 937 267 Q 888 304 819 287 Q 782 281 738 271 L 674 260 Q 629 257 591 248 L 537 240 Q 452 230 359 217 Q 340 214 354 199 Q 367 186 384 181 Q 403 177 419 181 Q 465 194 521 204 L 571 212 Q 586 216 603 217 Q 634 221 673 224 L 745 230 Z" class="stroke14"/>
    
    
    
    
    
    
    
    
    
    
    
    
    
    </g>
</svg>