<svg version="1.1" viewBox="0 0 1024 1024" xmlns="http://www.w3.org/2000/svg">
  
  <g transform="scale(1, -1) translate(0, -900)">
    <style type="text/css">
        .stroke1 {fill: #808080;}
        .stroke2 {fill: #808079;}
        .stroke3 {fill: #808078;}
        .stroke4 {fill: #808077;}
        .stroke5 {fill: #808076;}
        .stroke6 {fill: #808075;}
        .stroke7 {fill: #808074;}
        .stroke8 {fill: #808073;}
        .stroke9 {fill: #808072;}
        .stroke10 {fill: #808071;}
        .stroke11 {fill: #808070;}
        .stroke12 {fill: #808069;}
        .stroke13 {fill: #808068;}
        .stroke14 {fill: #808067;}
        .stroke15 {fill: #808066;}
        .stroke16 {fill: #808065;}
        .stroke17 {fill: #808064;}
        .stroke18 {fill: #808063;}
        .stroke19 {fill: #808062;}
        .stroke20 {fill: #808061;}
        text {
            font-family: Helvetica;
            font-size: 50px;
            fill: #808060;
            paint-order: stroke;
            stroke: #000000;
            stroke-width: 4px;
            stroke-linecap: butt;
            stroke-linejoin: miter;
            font-weight: 800;
        }
    </style>

    <path d="M 301 508 Q 397 535 400 537 Q 407 544 403 553 Q 396 563 368 570 Q 335 576 302 559 L 255 543 Q 198 528 124 516 Q 88 509 115 494 Q 152 472 229 492 Q 241 495 254 497 L 301 508 Z" class="stroke1"/>
    <path d="M 252 339 Q 251 255 251 151 Q 251 129 238 119 Q 235 116 195 124 Q 165 139 166 129 Q 167 122 184 105 Q 229 56 238 30 Q 248 0 261 -3 Q 274 -4 291 28 Q 310 71 312 143 Q 305 263 301 381 L 301 411 Q 300 460 301 508 L 302 559 Q 308 716 321 763 Q 337 791 284 813 Q 251 831 233 824 Q 217 818 232 796 Q 253 771 254 737 Q 255 718 255 543 L 254 497 Q 253 445 252 381 L 252 339 Z" class="stroke2"/>
    <path d="M 252 381 Q 44 258 42 249 Q 41 240 56 227 Q 75 214 97 206 Q 109 205 127 221 Q 175 276 252 339 L 301 381 Q 311 391 323 399 Q 341 411 349 424 Q 355 437 344 436 Q 319 430 301 411 L 252 381 Z" class="stroke3"/>
    <path d="M 587 632 Q 618 674 651 733 Q 666 764 679 778 Q 688 790 682 803 Q 676 815 646 835 Q 618 850 600 848 Q 581 844 591 824 Q 612 791 556 671 Q 531 616 492 555 Q 483 545 481 538 Q 480 526 493 530 Q 517 540 571 610 L 587 632 Z" class="stroke4"/>
    <path d="M 571 610 Q 610 588 665 601 Q 734 616 806 632 Q 839 639 843 645 Q 852 652 847 661 Q 840 671 812 678 Q 782 684 754 672 Q 717 659 677 648 Q 635 638 587 632 C 557 628 544 624 571 610 Z" class="stroke5"/>
    <path d="M 812 439 Q 863 446 911 451 Q 920 450 928 460 Q 929 470 910 481 Q 882 502 825 484 L 770 471 Q 731 464 697 456 L 651 446 Q 618 442 587 436 L 544 429 Q 531 429 486 424 L 443 419 Q 415 418 384 414 Q 359 411 378 395 Q 402 374 452 380 L 490 388 Q 518 394 548 398 L 589 406 Q 617 412 651 417 L 693 423 Q 739 432 765 433 L 812 439 Z" class="stroke6"/>
    <path d="M 486 424 Q 483 472 473 477 Q 454 489 431 493 Q 419 496 413 490 Q 409 484 414 473 Q 433 448 443 419 L 452 380 Q 459 346 473 285 C 480 256 510 259 505 289 Q 495 347 490 388 L 486 424 Z" class="stroke7"/>
    <path d="M 587 436 Q 586 446 586 454 Q 586 464 585 472 Q 589 487 581 494 Q 562 510 543 516 Q 533 517 526 514 Q 520 510 523 502 Q 535 480 544 429 L 548 398 Q 552 361 561 297 C 565 267 598 272 596 302 Q 592 359 589 406 L 587 436 Z" class="stroke8"/>
    <path d="M 697 456 Q 697 478 711 514 Q 714 521 699 534 Q 674 549 656 553 Q 644 556 638 550 Q 632 544 638 533 Q 651 512 651 499 Q 651 474 651 446 L 651 417 Q 650 366 646 309 C 644 279 675 285 679 315 Q 686 372 693 423 L 697 456 Z" class="stroke9"/>
    <path d="M 783 332 Q 798 387 812 439 L 825 484 Q 829 497 834 507 Q 840 519 843 527 Q 847 534 834 550 Q 809 569 790 577 Q 777 581 770 576 Q 763 572 767 558 Q 779 534 776 519 Q 773 497 770 471 L 765 433 Q 758 382 746 326 C 740 297 775 303 783 332 Z" class="stroke10"/>
    <path d="M 473 285 Q 413 279 352 269 Q 331 268 347 251 Q 360 238 378 233 Q 397 227 414 232 Q 618 289 951 289 Q 970 289 975 298 Q 981 308 964 322 Q 909 364 848 345 Q 818 339 783 332 L 746 326 Q 712 322 679 315 L 646 309 Q 643 310 641 309 Q 619 306 596 302 L 561 297 Q 533 294 505 289 L 473 285 Z" class="stroke11"/>
    <path d="M 437 195 Q 416 146 387 101 Q 369 71 385 40 Q 392 24 412 35 Q 457 69 461 143 Q 465 173 459 195 Q 455 202 449 204 Q 442 203 437 195 Z" class="stroke12"/>
    <path d="M 532 172 Q 542 106 559 86 Q 568 77 580 83 Q 590 89 596 102 Q 603 135 558 193 Q 548 203 540 205 Q 536 206 531 197 Q 527 188 532 172 Z" class="stroke13"/>
    <path d="M 658 178 Q 680 118 705 93 Q 715 86 728 94 Q 737 103 740 117 Q 740 156 681 204 L 680 205 Q 668 215 659 214 Q 655 215 652 204 Q 651 194 658 178 Z" class="stroke14"/>
    <path d="M 796 201 Q 836 149 883 76 Q 895 55 909 49 Q 916 46 925 54 Q 938 64 934 108 Q 931 153 802 230 Q 795 236 790 225 Q 789 212 796 201 Z" class="stroke15"/>
    
    
    
    
    
    
    
    
    
    
    
    
    
    
    </g>
</svg>