<svg version="1.1" viewBox="0 0 1024 1024" xmlns="http://www.w3.org/2000/svg">
  
  <g transform="scale(1, -1) translate(0, -900)">
    <style type="text/css">
        .stroke1 {fill: #808080;}
        .stroke2 {fill: #808079;}
        .stroke3 {fill: #808078;}
        .stroke4 {fill: #808077;}
        .stroke5 {fill: #808076;}
        .stroke6 {fill: #808075;}
        .stroke7 {fill: #808074;}
        .stroke8 {fill: #808073;}
        .stroke9 {fill: #808072;}
        .stroke10 {fill: #808071;}
        .stroke11 {fill: #808070;}
        .stroke12 {fill: #808069;}
        .stroke13 {fill: #808068;}
        .stroke14 {fill: #808067;}
        .stroke15 {fill: #808066;}
        .stroke16 {fill: #808065;}
        .stroke17 {fill: #808064;}
        .stroke18 {fill: #808063;}
        .stroke19 {fill: #808062;}
        .stroke20 {fill: #808061;}
        text {
            font-family: Helvetica;
            font-size: 50px;
            fill: #808060;
            paint-order: stroke;
            stroke: #000000;
            stroke-width: 4px;
            stroke-linecap: butt;
            stroke-linejoin: miter;
            font-weight: 800;
        }
    </style>

    <path d="M 302 546 Q 368 567 372 569 Q 381 576 376 585 Q 369 595 340 601 Q 321 605 304 600 L 259 584 Q 183 560 111 548 Q 77 541 102 526 Q 147 505 197 520 Q 225 527 258 535 L 302 546 Z" class="stroke1"/>
    <path d="M 255 352 Q 254 255 252 130 Q 252 106 239 97 Q 230 91 171 104 Q 140 114 143 105 Q 144 98 163 85 Q 220 40 235 14 Q 251 -16 266 -17 Q 279 -18 292 14 Q 308 56 307 123 Q 300 256 299 390 L 299 421 Q 299 485 302 546 L 304 600 Q 304 694 323 761 Q 339 789 288 809 Q 257 827 239 820 Q 223 814 238 793 Q 257 768 258 737 Q 259 721 259 584 L 258 535 Q 257 474 255 393 L 255 352 Z" class="stroke2"/>
    <path d="M 255 393 Q 44 266 42 256 Q 41 247 55 235 Q 74 222 97 215 Q 107 212 127 230 Q 176 287 255 352 L 299 390 Q 309 400 323 410 Q 341 423 349 436 Q 355 449 344 448 Q 329 445 299 421 L 255 393 Z" class="stroke3"/>
    <path d="M 523 706 Q 548 713 578 719 Q 600 725 604 728 Q 610 734 606 740 Q 602 747 581 752 Q 551 758 527 742 L 485 729 Q 454 722 420 718 Q 395 714 414 702 Q 444 687 483 697 L 523 706 Z" class="stroke4"/>
    <path d="M 508 622 Q 539 631 595 642 Q 602 642 607 651 Q 607 658 592 664 Q 564 674 515 654 L 476 642 Q 455 638 437 632 Q 416 628 393 623 Q 374 619 390 609 Q 411 597 451 606 Q 458 609 467 610 L 508 622 Z" class="stroke5"/>
    <path d="M 502 602 L 508 622 L 515 654 Q 519 678 523 706 L 527 742 Q 527 743 528 746 Q 532 759 533 768 Q 537 781 524 789 Q 491 808 481 806 Q 468 805 477 789 Q 489 768 485 729 L 483 697 Q 482 684 480 664 Q 479 654 476 642 L 467 610 Q 437 538 390 498 Q 380 489 377 485 Q 376 481 384 480 Q 408 480 451 519 Q 478 544 497 588 L 502 602 Z" class="stroke6"/>
    <path d="M 497 588 Q 501 584 510 578 Q 558 539 566 537 Q 572 538 574 544 Q 575 551 572 567 Q 565 586 506 602 Q 503 603 502 602 C 483 600 483 600 497 588 Z" class="stroke7"/>
    <path d="M 754 727 Q 781 736 810 743 Q 832 749 836 752 Q 842 758 838 764 Q 834 771 813 776 Q 786 779 758 765 L 712 750 Q 684 743 652 738 Q 627 734 645 722 Q 670 710 711 717 L 754 727 Z" class="stroke8"/>
    <path d="M 733 635 Q 769 647 845 659 Q 852 658 859 668 Q 859 677 841 684 Q 817 699 745 673 L 701 661 L 669 655 Q 647 651 622 646 Q 600 642 618 630 Q 639 614 676 622 Q 680 623 687 624 L 733 635 Z" class="stroke9"/>
    <path d="M 687 624 Q 677 603 642 568 Q 632 558 628 554 Q 627 548 636 548 Q 661 548 697 583 Q 716 604 733 635 L 745 673 Q 745 674 746 677 Q 750 699 754 727 L 758 765 Q 758 766 759 769 Q 763 784 764 793 Q 768 808 754 816 Q 717 835 706 834 Q 691 831 702 814 Q 711 799 712 750 L 711 717 Q 711 698 701 661 L 687 624 Z" class="stroke10"/>
    <path d="M 752 589 Q 786 567 828 534 Q 841 524 851 522 Q 857 523 860 530 Q 867 540 853 567 Q 841 594 795 601 Q 765 607 749 609 Q 742 610 742 603 Q 743 594 752 589 Z" class="stroke11"/>
    <path d="M 645 456 Q 757 480 762 483 Q 769 489 766 495 Q 762 504 739 510 Q 721 514 652 494 L 592 480 Q 544 473 491 468 Q 463 464 482 451 Q 512 433 568 444 Q 580 447 596 448 L 645 456 Z" class="stroke12"/>
    <path d="M 482 379 Q 472 385 446 388 Q 436 391 432 386 Q 428 382 435 366 Q 460 314 476 229 Q 479 204 493 186 Q 509 167 514 181 Q 517 190 517 201 L 516 223 Q 503 292 496 351 C 493 374 493 374 482 379 Z" class="stroke13"/>
    <path d="M 719 223 Q 734 198 749 190 Q 758 183 772 201 Q 784 219 811 316 Q 818 343 840 364 Q 852 374 842 387 Q 829 402 792 426 Q 777 433 715 419 Q 691 418 641 407 L 595 399 Q 571 398 482 379 C 453 373 467 343 496 351 Q 536 363 595 372 L 640 379 Q 737 400 758 385 Q 768 378 765 362 Q 744 253 729 244 C 717 226 717 226 719 223 Z" class="stroke14"/>
    <path d="M 639 298 Q 667 304 693 308 Q 712 311 705 322 Q 696 334 675 337 Q 660 338 640 333 L 594 319 Q 566 312 541 303 Q 528 299 545 287 Q 548 286 594 290 L 639 298 Z" class="stroke15"/>
    <path d="M 638 214 Q 680 220 719 223 C 749 225 752 226 729 244 Q 710 263 653 251 Q 646 250 638 247 L 592 238 Q 552 231 516 223 C 487 217 487 199 517 201 Q 523 201 592 208 L 638 214 Z" class="stroke16"/>
    <path d="M 640 113 Q 689 119 906 118 Q 925 117 930 126 Q 936 136 920 150 Q 869 189 834 181 Q 761 168 638 149 L 591 143 Q 479 133 348 117 Q 329 116 343 99 Q 356 86 373 80 Q 394 74 409 78 Q 494 100 590 109 L 640 113 Z" class="stroke17"/>
    <path d="M 590 109 Q 587 -57 603 -77 Q 607 -84 614 -81 Q 621 -78 626 -65 Q 641 -14 640 113 L 638 149 Q 638 176 638 214 L 638 247 Q 638 271 639 298 L 640 333 Q 640 355 640 379 L 641 407 Q 641 419 645 456 L 652 494 Q 653 510 643 517 Q 615 536 601 538 Q 591 542 576 535 Q 569 528 574 519 Q 589 486 592 480 L 596 448 Q 596 426 595 399 L 595 372 Q 594 347 594 319 L 594 290 Q 593 265 592 238 L 592 208 Q 591 178 591 143 L 590 109 Z" class="stroke18"/>
    
    
    
    
    
    
    
    
    
    
    
    
    
    
    
    
    
    </g>
</svg>