<svg version="1.1" viewBox="0 0 1024 1024" xmlns="http://www.w3.org/2000/svg">
  
  <g transform="scale(1, -1) translate(0, -900)">
    <style type="text/css">
        .stroke1 {fill: #808080;}
        .stroke2 {fill: #808079;}
        .stroke3 {fill: #808078;}
        .stroke4 {fill: #808077;}
        .stroke5 {fill: #808076;}
        .stroke6 {fill: #808075;}
        .stroke7 {fill: #808074;}
        .stroke8 {fill: #808073;}
        .stroke9 {fill: #808072;}
        .stroke10 {fill: #808071;}
        .stroke11 {fill: #808070;}
        .stroke12 {fill: #808069;}
        .stroke13 {fill: #808068;}
        .stroke14 {fill: #808067;}
        .stroke15 {fill: #808066;}
        .stroke16 {fill: #808065;}
        .stroke17 {fill: #808064;}
        .stroke18 {fill: #808063;}
        .stroke19 {fill: #808062;}
        .stroke20 {fill: #808061;}
        text {
            font-family: Helvetica;
            font-size: 50px;
            fill: #808060;
            paint-order: stroke;
            stroke: #000000;
            stroke-width: 4px;
            stroke-linecap: butt;
            stroke-linejoin: miter;
            font-weight: 800;
        }
    </style>

    <path d="M 387 705 Q 451 762 484 769 Q 500 775 495 787 Q 492 800 441 828 Q 426 835 409 829 Q 369 813 306 796 Q 290 790 251 791 Q 232 792 239 776 Q 245 766 260 758 Q 284 745 309 759 Q 322 765 389 793 Q 399 797 409 792 Q 419 785 414 775 Q 396 747 376 714 C 360 688 364 685 387 705 Z" class="stroke1"/>
    <path d="M 376 714 Q 364 726 329 731 Q 322 732 322 724 Q 319 717 357 678 Q 361 674 367 671 C 393 657 395 656 396 678 Q 397 688 390 703 Q 389 704 387 705 L 376 714 Z" class="stroke2"/>
    <path d="M 367 671 Q 180 638 167 636 Q 146 635 162 616 Q 175 600 211 611 Q 260 624 313 634 L 374 647 Q 395 651 418 655 Q 443 659 446 649 Q 446 639 428 603 Q 422 593 427 589 Q 433 586 443 595 Q 498 629 520 636 Q 536 637 536 648 Q 536 658 479 688 Q 461 697 396 678 L 367 671 Z" class="stroke3"/>
    <path d="M 278 534 Q 326 500 352 471 Q 364 461 375 466 Q 390 475 399 512 Q 406 537 402 581 Q 401 612 393 625 Q 386 638 374 647 C 351 666 348 657 357 628 Q 369 595 362 552 Q 361 536 355 531 Q 352 530 285 540 C 266 543 266 543 278 534 Z" class="stroke4"/>
    <path d="M 313 634 Q 280 558 125 465 Q 112 456 123 454 Q 177 445 278 534 L 285 540 Q 288 544 294 549 Q 321 577 338 602 Q 350 621 357 628 C 380 655 351 713 313 634 Z" class="stroke5"/>
    <path d="M 607 722 Q 628 747 649 784 Q 658 800 666 810 Q 672 817 667 828 Q 663 837 641 851 Q 619 861 606 861 Q 593 858 600 842 Q 612 826 584 753 Q 571 720 550 683 Q 544 676 543 670 Q 542 663 551 665 Q 555 665 592 702 L 607 722 Z" class="stroke6"/>
    <path d="M 592 702 Q 628 687 680 699 Q 690 702 703 703 L 734 710 Q 831 734 835 737 Q 842 744 839 751 Q 832 760 809 766 Q 785 770 761 760 Q 727 747 689 738 Q 650 729 607 722 C 577 717 564 712 592 702 Z" class="stroke7"/>
    <path d="M 703 703 Q 709 663 663 596 L 641 570 Q 601 533 520 507 Q 508 503 517 498 Q 551 483 613 508 Q 622 511 669 542 L 697 570 Q 709 585 719 601 Q 746 646 759 658 Q 769 668 761 679 Q 743 703 734 710 C 712 731 701 733 703 703 Z" class="stroke8"/>
    <path d="M 663 596 Q 647 609 629 625 Q 596 653 569 651 Q 554 651 552 646 Q 551 642 564 633 Q 585 624 641 570 L 669 542 Q 673 539 677 534 Q 767 444 813 443 Q 874 447 924 458 Q 952 464 949 471 Q 948 475 921 483 Q 768 522 697 570 L 663 596 Z" class="stroke9"/>
    
    
    
    
    
    
    
    
    </g>
</svg>