<svg version="1.1" viewBox="0 0 1024 1024" xmlns="http://www.w3.org/2000/svg">
  
  <g transform="scale(1, -1) translate(0, -900)">
    <style type="text/css">
        .stroke1 {fill: #808080;}
        .stroke2 {fill: #808079;}
        .stroke3 {fill: #808078;}
        .stroke4 {fill: #808077;}
        .stroke5 {fill: #808076;}
        .stroke6 {fill: #808075;}
        .stroke7 {fill: #808074;}
        .stroke8 {fill: #808073;}
        .stroke9 {fill: #808072;}
        .stroke10 {fill: #808071;}
        .stroke11 {fill: #808070;}
        .stroke12 {fill: #808069;}
        .stroke13 {fill: #808068;}
        .stroke14 {fill: #808067;}
        .stroke15 {fill: #808066;}
        .stroke16 {fill: #808065;}
        .stroke17 {fill: #808064;}
        .stroke18 {fill: #808063;}
        .stroke19 {fill: #808062;}
        .stroke20 {fill: #808061;}
        text {
            font-family: Helvetica;
            font-size: 50px;
            fill: #808060;
            paint-order: stroke;
            stroke: #000000;
            stroke-width: 4px;
            stroke-linecap: butt;
            stroke-linejoin: miter;
            font-weight: 800;
        }
    </style>

    <path d="M 472 770 Q 506 739 544 700 Q 560 684 580 684 Q 593 684 600 701 Q 607 719 596 756 Q 584 798 467 830 Q 448 834 440 832 Q 433 828 435 811 Q 439 798 472 770 Z" class="stroke1"/>
    <path d="M 514 542 Q 643 563 895 562 Q 919 563 924 573 Q 931 586 911 603 Q 848 646 789 635 Q 576 592 151 534 Q 126 531 144 511 Q 162 495 182 489 Q 207 483 226 489 Q 341 520 470 537 Q 471 538 474 537 L 514 542 Z" class="stroke2"/>
    <path d="M 510 433 Q 528 415 615 398 Q 657 389 656 353 Q 653 343 650 324 Q 625 180 576 113 Q 566 101 551 96 Q 527 89 462 118 Q 422 133 418 126 Q 414 116 432 105 Q 492 69 520 19 Q 526 1 538 -5 Q 551 -9 586 14 Q 640 62 688 241 Q 709 334 734 348 Q 746 354 747 363 Q 748 373 725 399 Q 692 432 642 431 Q 584 435 528 459 C 500 470 484 449 510 433 Z" class="stroke3"/>
    <path d="M 528 459 Q 531 463 534 466 Q 549 476 547 492 Q 540 516 515 542 Q 514 543 514 542 C 493 564 475 567 474 537 Q 481 465 324 257 Q 311 242 298 228 Q 234 162 126 90 Q 119 86 114 81 Q 107 72 118 69 Q 139 63 245 122 Q 270 140 298 162 Q 397 246 493 406 Q 500 421 510 433 L 528 459 Z" class="stroke4"/>
    
    
    
    </g>
</svg>