<svg version="1.1" viewBox="0 0 1024 1024" xmlns="http://www.w3.org/2000/svg">
  
  <g transform="scale(1, -1) translate(0, -900)">
    <style type="text/css">
        .stroke1 {fill: #808080;}
        .stroke2 {fill: #808079;}
        .stroke3 {fill: #808078;}
        .stroke4 {fill: #808077;}
        .stroke5 {fill: #808076;}
        .stroke6 {fill: #808075;}
        .stroke7 {fill: #808074;}
        .stroke8 {fill: #808073;}
        .stroke9 {fill: #808072;}
        .stroke10 {fill: #808071;}
        .stroke11 {fill: #808070;}
        .stroke12 {fill: #808069;}
        .stroke13 {fill: #808068;}
        .stroke14 {fill: #808067;}
        .stroke15 {fill: #808066;}
        .stroke16 {fill: #808065;}
        .stroke17 {fill: #808064;}
        .stroke18 {fill: #808063;}
        .stroke19 {fill: #808062;}
        .stroke20 {fill: #808061;}
        text {
            font-family: Helvetica;
            font-size: 50px;
            fill: #808060;
            paint-order: stroke;
            stroke: #000000;
            stroke-width: 4px;
            stroke-linecap: butt;
            stroke-linejoin: miter;
            font-weight: 800;
        }
    </style>

    <path d="M 341 752 Q 319 764 295 768 Q 288 769 283 764 Q 276 757 286 747 Q 328 690 345 560 Q 354 490 395 471 Q 411 468 412 493 L 410 518 Q 406 540 389 602 L 384 628 Q 384 631 384 632 Q 375 678 371 716 C 369 738 368 739 341 752 Z" class="stroke1"/>
    <path d="M 610 518 Q 611 514 613 509 Q 619 491 632 493 Q 647 494 655 510 Q 670 531 696 628 Q 714 683 753 715 Q 774 733 756 749 Q 737 768 684 796 Q 671 805 595 791 Q 571 791 438 767 Q 380 757 341 752 C 311 748 343 706 371 716 Q 404 734 608 754 Q 636 755 647 750 Q 659 743 652 707 Q 627 580 616 548 C 608 522 608 522 610 518 Z" class="stroke2"/>
    <path d="M 389 602 Q 393 602 401 603 Q 501 622 575 633 Q 597 637 589 649 Q 579 662 555 667 Q 537 670 384 628 C 355 620 359 600 389 602 Z" class="stroke3"/>
    <path d="M 510 505 Q 562 514 610 518 C 640 521 645 539 616 548 Q 612 549 607 551 Q 591 554 410 518 C 381 512 382 493 412 493 Q 416 493 424 493 Q 439 496 455 497 L 510 505 Z" class="stroke4"/>
    <path d="M 538 341 Q 728 365 910 345 Q 934 342 939 351 Q 948 364 935 376 Q 907 404 863 424 Q 848 430 823 422 Q 750 407 674 397 Q 595 390 539 383 L 479 377 Q 352 367 288 359 Q 215 349 106 348 Q 93 349 91 337 Q 90 325 109 310 Q 125 297 156 285 Q 166 281 185 289 Q 203 295 280 307 Q 370 326 479 337 L 538 341 Z" class="stroke5"/>
    <path d="M 482 6 Q 486 -19 494 -29 Q 500 -36 507 -34 Q 534 -13 536 153 Q 535 196 538 341 L 539 383 Q 539 416 549 461 Q 552 480 538 489 Q 522 499 510 505 C 484 519 441 524 455 497 Q 456 496 458 491 Q 477 458 478 393 Q 478 386 479 377 L 479 337 Q 479 31 482 6 Z" class="stroke6"/>
    
    
    
    
    
    </g>
</svg>