<svg version="1.1" viewBox="0 0 1024 1024" xmlns="http://www.w3.org/2000/svg">
  
  <g transform="scale(1, -1) translate(0, -900)">
    <style type="text/css">
        .stroke1 {fill: #808080;}
        .stroke2 {fill: #808079;}
        .stroke3 {fill: #808078;}
        .stroke4 {fill: #808077;}
        .stroke5 {fill: #808076;}
        .stroke6 {fill: #808075;}
        .stroke7 {fill: #808074;}
        .stroke8 {fill: #808073;}
        .stroke9 {fill: #808072;}
        .stroke10 {fill: #808071;}
        .stroke11 {fill: #808070;}
        .stroke12 {fill: #808069;}
        .stroke13 {fill: #808068;}
        .stroke14 {fill: #808067;}
        .stroke15 {fill: #808066;}
        .stroke16 {fill: #808065;}
        .stroke17 {fill: #808064;}
        .stroke18 {fill: #808063;}
        .stroke19 {fill: #808062;}
        .stroke20 {fill: #808061;}
        text {
            font-family: Helvetica;
            font-size: 50px;
            fill: #808060;
            paint-order: stroke;
            stroke: #000000;
            stroke-width: 4px;
            stroke-linecap: butt;
            stroke-linejoin: miter;
            font-weight: 800;
        }
    </style>

    <path d="M 324 658 Q 300 671 276 677 Q 267 680 261 673 Q 252 666 264 652 Q 312 580 326 396 Q 330 324 377 288 L 379 287 Q 395 283 400 306 L 400 342 Q 397 370 387 403 Q 383 433 377 469 L 372 502 Q 365 563 363 614 Q 363 620 361 625 C 359 641 351 644 324 658 Z" class="stroke1"/>
    <path d="M 613 331 Q 637 300 657 291 Q 670 282 688 310 Q 709 352 740 576 Q 750 615 777 646 Q 793 661 778 678 Q 759 697 706 727 Q 681 737 662 729 Q 625 719 576 710 Q 510 697 428 680 Q 371 667 324 658 C 295 652 332 617 361 625 Q 454 652 608 676 Q 645 683 658 670 Q 680 646 677 621 Q 647 392 627 370 C 615 343 611 334 613 331 Z" class="stroke2"/>
    <path d="M 377 469 Q 386 469 591 498 Q 595 501 598 502 Q 607 509 603 517 Q 596 527 570 535 Q 542 541 515 531 Q 482 521 446 512 Q 412 506 372 502 C 342 499 347 466 377 469 Z" class="stroke3"/>
    <path d="M 400 306 Q 467 322 613 331 C 643 333 651 352 627 370 Q 627 371 626 372 Q 610 382 579 375 Q 482 353 400 342 C 370 338 371 299 400 306 Z" class="stroke4"/>
    <path d="M 541 101 Q 596 104 648 108 Q 790 120 932 103 Q 960 99 967 110 Q 976 125 962 139 Q 928 172 877 195 Q 861 202 830 193 Q 829 193 315 133 Q 245 123 140 124 Q 124 124 122 111 Q 121 96 143 79 Q 162 64 199 50 Q 212 46 232 54 Q 250 60 324 71 Q 421 92 541 101 Z" class="stroke5"/>
    
    
    
    
    </g>
</svg>