<svg version="1.1" viewBox="0 0 1024 1024" xmlns="http://www.w3.org/2000/svg">
  
  <g transform="scale(1, -1) translate(0, -900)">
    <style type="text/css">
        .stroke1 {fill: #808080;}
        .stroke2 {fill: #808079;}
        .stroke3 {fill: #808078;}
        .stroke4 {fill: #808077;}
        .stroke5 {fill: #808076;}
        .stroke6 {fill: #808075;}
        .stroke7 {fill: #808074;}
        .stroke8 {fill: #808073;}
        .stroke9 {fill: #808072;}
        .stroke10 {fill: #808071;}
        .stroke11 {fill: #808070;}
        .stroke12 {fill: #808069;}
        .stroke13 {fill: #808068;}
        .stroke14 {fill: #808067;}
        .stroke15 {fill: #808066;}
        .stroke16 {fill: #808065;}
        .stroke17 {fill: #808064;}
        .stroke18 {fill: #808063;}
        .stroke19 {fill: #808062;}
        .stroke20 {fill: #808061;}
        text {
            font-family: Helvetica;
            font-size: 50px;
            fill: #808060;
            paint-order: stroke;
            stroke: #000000;
            stroke-width: 4px;
            stroke-linecap: butt;
            stroke-linejoin: miter;
            font-weight: 800;
        }
    </style>

    <path d="M 203 640 Q 190 653 168 660 Q 158 664 147 661 Q 140 655 145 643 Q 148 630 153 618 Q 183 561 164 267 Q 160 225 147 176 Q 132 122 169 73 Q 179 60 191 73 Q 203 89 203 110 L 207 145 Q 208 170 208 203 Q 209 297 210 370 L 211 404 Q 214 581 216 596 Q 217 606 217 614 C 218 629 218 629 203 640 Z" class="stroke1"/>
    <path d="M 304 122 Q 346 53 357 56 Q 370 59 386 96 Q 402 139 396 191 Q 387 299 381 531 Q 380 592 396 623 Q 406 639 398 651 Q 391 661 342 676 Q 318 685 302 675 Q 248 651 203 640 C 174 632 188 607 217 614 Q 218 615 224 616 Q 251 622 283 631 Q 311 640 322 630 Q 338 614 338 553 Q 342 300 331 160 Q 332 150 329 143 C 326 113 288 147 304 122 Z" class="stroke2"/>
    <path d="M 210 370 L 309 389 Q 333 396 322 408 Q 309 421 282 424 Q 257 424 215 407 Q 212 406 211 404 C 188 384 181 364 210 370 Z" class="stroke3"/>
    <path d="M 203 110 Q 236 117 304 122 C 334 124 349 125 329 143 Q 301 171 217 148 Q 211 147 207 145 C 179 134 174 104 203 110 Z" class="stroke4"/>
    <path d="M 644 633 Q 714 649 790 663 Q 839 675 847 681 Q 857 690 851 699 Q 844 712 812 720 Q 782 726 678 692 Q 564 665 483 656 Q 443 649 471 631 Q 507 609 592 622 L 644 633 Z" class="stroke5"/>
    <path d="M 662 367 Q 803 403 808 407 Q 817 416 812 424 Q 805 436 774 443 Q 741 447 663 418 L 611 402 Q 557 390 497 382 Q 460 375 487 358 Q 533 339 597 353 Q 603 354 611 355 L 662 367 Z" class="stroke6"/>
    <path d="M 657 138 Q 658 261 662 367 L 663 418 Q 666 566 668 584 Q 677 609 644 633 C 621 652 578 649 592 622 Q 596 612 603 603 Q 610 579 611 541 Q 612 519 611 402 L 611 355 Q 610 267 609 132 C 609 102 657 108 657 138 Z" class="stroke7"/>
    <path d="M 609 132 Q 512 122 406 108 Q 384 105 400 87 Q 415 72 434 66 Q 456 60 474 65 Q 615 101 893 101 Q 909 101 924 100 Q 946 100 951 109 Q 957 122 939 137 Q 885 179 843 170 Q 773 157 657 138 L 609 132 Z" class="stroke8"/>
    
    
    
    
    
    
    
    </g>
</svg>