<svg version="1.1" viewBox="0 0 1024 1024" xmlns="http://www.w3.org/2000/svg">
  
  <g transform="scale(1, -1) translate(0, -900)">
    <style type="text/css">
        .stroke1 {fill: #808080;}
        .stroke2 {fill: #808079;}
        .stroke3 {fill: #808078;}
        .stroke4 {fill: #808077;}
        .stroke5 {fill: #808076;}
        .stroke6 {fill: #808075;}
        .stroke7 {fill: #808074;}
        .stroke8 {fill: #808073;}
        .stroke9 {fill: #808072;}
        .stroke10 {fill: #808071;}
        .stroke11 {fill: #808070;}
        .stroke12 {fill: #808069;}
        .stroke13 {fill: #808068;}
        .stroke14 {fill: #808067;}
        .stroke15 {fill: #808066;}
        .stroke16 {fill: #808065;}
        .stroke17 {fill: #808064;}
        .stroke18 {fill: #808063;}
        .stroke19 {fill: #808062;}
        .stroke20 {fill: #808061;}
        text {
            font-family: Helvetica;
            font-size: 50px;
            fill: #808060;
            paint-order: stroke;
            stroke: #000000;
            stroke-width: 4px;
            stroke-linecap: butt;
            stroke-linejoin: miter;
            font-weight: 800;
        }
    </style>

    <path d="M 323 773 Q 354 752 390 727 Q 406 717 422 719 Q 434 722 437 736 Q 438 752 425 782 Q 416 801 382 812 Q 301 830 287 819 Q 283 815 287 801 Q 291 791 323 773 Z" class="stroke1"/>
    <path d="M 411 443 Q 411 572 424 595 Q 437 614 424 625 Q 403 644 367 658 Q 349 665 333 658 Q 306 642 288 635 Q 263 625 206 616 Q 190 615 200 606 Q 209 596 224 590 Q 239 587 305 606 Q 342 618 349 609 Q 361 570 359 324 Q 356 120 340 97 Q 336 91 315 96 Q 285 103 255 111 Q 236 117 236 107 Q 297 58 332 21 Q 345 2 360 -3 Q 370 -7 378 3 Q 420 51 418 106 Q 411 226 411 403 L 411 443 Z" class="stroke2"/>
    <path d="M 97 433 Q 85 432 85 424 Q 84 418 98 412 Q 138 393 163 403 Q 229 428 235 428 Q 247 425 238 403 Q 196 295 157 243 Q 117 185 45 125 Q 32 113 41 111 Q 51 110 68 120 Q 132 153 185 211 Q 236 263 299 401 Q 309 422 318 432 Q 330 442 322 451 Q 313 461 280 472 Q 265 479 211 457 Q 168 444 97 433 Z" class="stroke3"/>
    <path d="M 438 424 Q 510 485 546 507 Q 562 513 557 522 Q 551 535 534 549 Q 518 564 498 564 Q 485 563 487 547 Q 490 529 426 435 C 409 410 415 405 438 424 Z" class="stroke4"/>
    <path d="M 426 435 Q 419 441 411 443 C 385 458 388 423 411 403 Q 430 388 447 368 Q 690 89 735 81 Q 819 81 904 102 Q 923 105 929 114 Q 933 123 921 125 Q 741 168 687 208 Q 587 275 438 424 L 426 435 Z" class="stroke5"/>
    <path d="M 639 623 Q 629 633 608 641 Q 599 645 589 641 Q 583 637 588 626 Q 589 620 593 614 Q 614 572 602 421 Q 587 337 605 312 Q 608 305 615 297 Q 625 285 634 296 Q 644 311 644 327 L 646 357 Q 646 406 646 457 L 647 482 Q 648 579 650 587 Q 650 591 650 594 C 651 613 651 613 639 623 Z" class="stroke6"/>
    <path d="M 755 343 Q 779 309 796 279 Q 803 263 813 264 Q 826 264 841 292 Q 857 323 856 363 Q 853 433 852 561 Q 851 588 866 606 Q 873 616 866 626 Q 850 642 806 664 Q 791 671 778 664 Q 735 643 639 623 C 610 617 620 590 650 594 Q 666 595 772 619 Q 788 623 796 617 Q 812 601 796 373 Q 795 372 795 368 Q 791 356 782 357 C 759 338 752 348 755 343 Z" class="stroke7"/>
    <path d="M 646 457 Q 650 457 656 457 Q 714 467 756 472 Q 778 476 769 489 Q 759 502 735 505 Q 684 508 647 482 C 622 465 616 457 646 457 Z" class="stroke8"/>
    <path d="M 644 327 Q 705 339 755 343 C 785 345 786 346 782 357 Q 782 358 781 361 Q 771 374 747 379 Q 711 383 646 357 C 618 346 615 321 644 327 Z" class="stroke9"/>
    
    
    
    
    
    
    
    
    </g>
</svg>