<svg version="1.1" viewBox="0 0 1024 1024" xmlns="http://www.w3.org/2000/svg">
  
  <g transform="scale(1, -1) translate(0, -900)">
    <style type="text/css">
        .stroke1 {fill: #808080;}
        .stroke2 {fill: #808079;}
        .stroke3 {fill: #808078;}
        .stroke4 {fill: #808077;}
        .stroke5 {fill: #808076;}
        .stroke6 {fill: #808075;}
        .stroke7 {fill: #808074;}
        .stroke8 {fill: #808073;}
        .stroke9 {fill: #808072;}
        .stroke10 {fill: #808071;}
        .stroke11 {fill: #808070;}
        .stroke12 {fill: #808069;}
        .stroke13 {fill: #808068;}
        .stroke14 {fill: #808067;}
        .stroke15 {fill: #808066;}
        .stroke16 {fill: #808065;}
        .stroke17 {fill: #808064;}
        .stroke18 {fill: #808063;}
        .stroke19 {fill: #808062;}
        .stroke20 {fill: #808061;}
        text {
            font-family: Helvetica;
            font-size: 50px;
            fill: #808060;
            paint-order: stroke;
            stroke: #000000;
            stroke-width: 4px;
            stroke-linecap: butt;
            stroke-linejoin: miter;
            font-weight: 800;
        }
    </style>

    <path d="M 330 752 Q 318 756 291 760 Q 278 763 275 758 Q 268 751 278 734 Q 315 662 337 543 Q 341 507 363 484 Q 382 462 387 478 Q 388 487 390 498 L 388 532 Q 387 544 384 556 Q 377 584 372 607 L 367 632 Q 354 692 351 716 C 347 746 346 747 330 752 Z" class="stroke1"/>
    <path d="M 600 521 Q 600 512 604 502 Q 610 483 625 485 Q 641 486 650 504 Q 666 523 695 618 Q 716 678 758 710 Q 780 728 763 746 Q 744 767 686 799 Q 671 809 602 795 Q 467 774 330 752 C 300 747 321 711 351 716 Q 358 716 364 717 Q 437 739 604 758 Q 634 759 644 754 Q 656 747 649 709 Q 619 573 606 544 L 600 521 Z" class="stroke2"/>
    <path d="M 372 607 L 550 634 Q 575 638 565 652 Q 553 667 527 671 Q 496 674 367 632 C 338 623 342 603 372 607 Z" class="stroke3"/>
    <path d="M 390 498 Q 400 497 411 499 Q 471 512 600 521 C 630 523 629 524 606 544 Q 576 574 495 551 Q 437 541 388 532 C 358 527 360 499 390 498 Z" class="stroke4"/>
    <path d="M 523 390 Q 524 403 522 424 Q 519 437 498 450 Q 447 475 432 471 Q 428 468 427 455 Q 428 445 452 421 Q 464 406 480 382 C 497 357 521 360 523 390 Z" class="stroke5"/>
    <path d="M 480 382 Q 446 378 294 363 Q 263 360 286 341 Q 322 311 352 317 Q 499 345 702 363 Q 712 362 723 375 Q 724 388 701 400 Q 662 424 591 405 Q 557 398 523 390 L 480 382 Z" class="stroke6"/>
    <path d="M 350 230 Q 369 170 394 149 Q 407 142 419 150 Q 429 160 433 176 Q 433 224 377 259 Q 376 260 375 261 Q 362 271 352 271 Q 345 272 344 260 Q 341 248 350 230 Z" class="stroke7"/>
    <path d="M 543 117 Q 564 135 617 212 Q 627 228 646 248 Q 664 260 655 273 Q 646 292 615 317 Q 600 330 580 324 Q 568 320 575 307 Q 584 271 529 153 Q 519 131 516 116 Q 515 116 515 115 C 505 87 521 96 543 117 Z" class="stroke8"/>
    <path d="M 515 115 Q 425 114 244 83 Q 187 77 139 80 Q 129 81 121 75 Q 112 68 119 57 Q 129 42 185 11 Q 198 4 221 13 Q 380 70 539 79 Q 663 91 902 43 Q 921 39 929 48 Q 936 60 917 77 Q 836 143 796 133 Q 772 127 717 123 Q 626 122 543 117 L 515 115 Z" class="stroke9"/>
    
    
    
    
    
    
    
    
    </g>
</svg>