<svg version="1.1" viewBox="0 0 1024 1024" xmlns="http://www.w3.org/2000/svg">
  
  <g transform="scale(1, -1) translate(0, -900)">
    <style type="text/css">
        .stroke1 {fill: #808080;}
        .stroke2 {fill: #808079;}
        .stroke3 {fill: #808078;}
        .stroke4 {fill: #808077;}
        .stroke5 {fill: #808076;}
        .stroke6 {fill: #808075;}
        .stroke7 {fill: #808074;}
        .stroke8 {fill: #808073;}
        .stroke9 {fill: #808072;}
        .stroke10 {fill: #808071;}
        .stroke11 {fill: #808070;}
        .stroke12 {fill: #808069;}
        .stroke13 {fill: #808068;}
        .stroke14 {fill: #808067;}
        .stroke15 {fill: #808066;}
        .stroke16 {fill: #808065;}
        .stroke17 {fill: #808064;}
        .stroke18 {fill: #808063;}
        .stroke19 {fill: #808062;}
        .stroke20 {fill: #808061;}
        text {
            font-family: Helvetica;
            font-size: 50px;
            fill: #808060;
            paint-order: stroke;
            stroke: #000000;
            stroke-width: 4px;
            stroke-linecap: butt;
            stroke-linejoin: miter;
            font-weight: 800;
        }
    </style>

    <path d="M 184 680 Q 172 692 149 700 Q 139 706 128 701 Q 121 697 127 684 Q 128 674 134 662 Q 159 611 141 339 Q 137 302 125 256 Q 112 201 146 157 Q 156 144 167 156 Q 180 172 179 194 L 183 227 Q 184 249 184 278 Q 185 372 187 442 L 188 471 Q 192 625 195 639 Q 196 648 196 654 C 197 670 197 670 184 680 Z" class="stroke1"/>
    <path d="M 293 214 Q 305 195 318 177 Q 334 153 341 156 Q 353 159 367 192 Q 377 220 373 338 Q 358 629 380 666 Q 390 684 382 695 Q 375 705 326 719 Q 302 728 285 718 Q 230 691 184 680 C 155 672 167 646 196 654 Q 295 681 305 675 L 306 674 Q 319 661 320 606 Q 324 383 315 260 Q 318 242 309 239 C 299 211 288 221 293 214 Z" class="stroke2"/>
    <path d="M 187 442 L 285 460 Q 307 466 298 477 Q 286 490 262 492 Q 220 495 188 471 C 164 453 157 437 187 442 Z" class="stroke3"/>
    <path d="M 179 194 Q 194 201 293 214 C 323 218 335 224 309 239 Q 302 243 293 249 Q 280 256 253 247 Q 216 235 183 227 C 154 220 151 184 179 194 Z" class="stroke4"/>
    <path d="M 604 648 Q 748 705 750 705 Q 757 714 752 721 Q 745 731 715 735 Q 685 738 658 722 Q 621 704 585 688 L 549 675 Q 494 656 429 641 Q 395 631 421 618 Q 458 602 532 625 Q 548 631 566 636 L 604 648 Z" class="stroke5"/>
    <path d="M 651 507 Q 747 383 858 364 Q 861 364 866 363 Q 888 366 881 394 Q 872 422 872 557 Q 871 567 866 569 Q 862 569 859 558 Q 849 525 838 493 Q 825 451 810 451 Q 768 448 685 534 L 659 565 Q 619 619 604 648 L 585 688 Q 563 742 570 787 Q 571 806 536 821 Q 500 834 490 830 Q 480 824 486 810 Q 510 789 522 750 Q 534 710 549 675 L 566 636 Q 587 587 629 536 L 651 507 Z" class="stroke6"/>
    <path d="M 685 534 Q 746 591 767 600 Q 777 606 776 617 Q 776 627 760 650 Q 745 669 731 673 Q 718 676 718 658 Q 721 633 707 617 Q 685 590 659 565 L 629 536 Q 521 454 480 425 Q 470 421 467 416 Q 463 409 473 407 Q 509 404 651 507 L 685 534 Z" class="stroke7"/>
    <path d="M 631 341 Q 656 348 742 358 Q 752 357 761 370 Q 762 382 739 391 Q 712 412 621 385 Q 606 382 592 378 Q 532 363 420 349 Q 392 345 414 328 Q 448 303 475 310 Q 527 322 593 334 L 631 341 Z" class="stroke8"/>
    <path d="M 474 273 Q 483 192 395 91 Q 394 91 392 88 Q 368 60 308 12 Q 301 5 307 3 Q 332 -6 406 48 Q 473 94 523 202 Q 532 220 543 237 Q 550 244 546 255 Q 540 264 513 280 Q 494 292 485 290 Q 473 287 474 273 Z" class="stroke9"/>
    <path d="M 593 334 Q 593 333 595 329 Q 613 293 608 240 Q 601 93 610 63 Q 617 32 640 15 Q 688 -19 847 -15 Q 920 -11 949 4 Q 977 19 966 49 Q 948 98 938 182 Q 937 198 929 202 Q 922 206 918 187 Q 905 84 889 64 Q 867 37 762 32 Q 707 32 682 41 Q 661 51 656 65 Q 635 125 658 231 Q 662 256 670 273 Q 686 309 631 341 C 606 358 582 362 593 334 Z" class="stroke10"/>
    
    
    
    
    
    
    
    
    
    </g>
</svg>