<svg version="1.1" viewBox="0 0 1024 1024" xmlns="http://www.w3.org/2000/svg">
  
  <g transform="scale(1, -1) translate(0, -900)">
    <style type="text/css">
        .stroke1 {fill: #808080;}
        .stroke2 {fill: #808079;}
        .stroke3 {fill: #808078;}
        .stroke4 {fill: #808077;}
        .stroke5 {fill: #808076;}
        .stroke6 {fill: #808075;}
        .stroke7 {fill: #808074;}
        .stroke8 {fill: #808073;}
        .stroke9 {fill: #808072;}
        .stroke10 {fill: #808071;}
        .stroke11 {fill: #808070;}
        .stroke12 {fill: #808069;}
        .stroke13 {fill: #808068;}
        .stroke14 {fill: #808067;}
        .stroke15 {fill: #808066;}
        .stroke16 {fill: #808065;}
        .stroke17 {fill: #808064;}
        .stroke18 {fill: #808063;}
        .stroke19 {fill: #808062;}
        .stroke20 {fill: #808061;}
        text {
            font-family: Helvetica;
            font-size: 50px;
            fill: #808060;
            paint-order: stroke;
            stroke: #000000;
            stroke-width: 4px;
            stroke-linecap: butt;
            stroke-linejoin: miter;
            font-weight: 800;
        }
    </style>

    <path d="M 372 835 Q 360 839 325 843 Q 313 844 311 839 Q 305 833 315 818 Q 346 769 369 686 Q 375 661 392 645 Q 411 626 414 642 Q 415 646 415 653 L 413 677 Q 412 687 409 697 Q 405 713 401 726 L 395 749 Q 386 783 383 801 C 378 831 377 834 372 835 Z" class="stroke1"/>
    <path d="M 590 871 Q 514 861 450 849 Q 405 842 372 835 C 343 829 354 794 383 801 Q 387 802 389 802 Q 459 823 617 840 Q 645 841 656 836 Q 663 832 657 808 Q 636 723 627 706 Q 626 706 626 705 C 619 688 619 688 623 679 Q 623 678 624 675 Q 628 660 639 661 Q 652 662 660 674 Q 669 684 690 733 Q 706 779 742 806 Q 760 819 745 835 Q 729 851 684 878 Q 668 888 650 881 Q 622 875 590 871 Z" class="stroke2"/>
    <path d="M 401 726 Q 407 725 419 726 Q 513 742 583 751 Q 604 754 597 765 Q 587 778 565 783 Q 544 786 507 777 Q 447 762 395 749 C 366 742 371 728 401 726 Z" class="stroke3"/>
    <path d="M 415 653 Q 422 652 431 653 Q 540 671 623 679 C 653 682 653 691 626 705 Q 620 709 611 711 Q 592 715 557 707 Q 479 691 413 677 C 384 671 385 655 415 653 Z" class="stroke4"/>
    <path d="M 240 578 Q 231 597 222 604 Q 203 619 201 593 Q 202 586 202 577 Q 201 558 190 543 Q 171 521 146 494 Q 136 482 138 462 Q 142 432 151 415 Q 164 388 186 415 Q 202 439 215 474 Q 231 517 243 543 L 243 544 L 240 578 Z" class="stroke5"/>
    <path d="M 509 587 Q 576 599 668 609 Q 753 619 775 616 Q 791 606 789 599 Q 790 595 784 582 Q 771 555 758 526 Q 751 513 757 509 Q 764 505 781 516 Q 835 552 879 564 Q 916 574 915 583 Q 914 593 843 645 Q 824 661 800 657 Q 718 645 618 630 Q 516 618 355 593 Q 297 584 240 578 C 210 575 214 550 243 544 Q 262 537 284 541 Q 359 563 438 578 Q 444 579 452 580 L 509 587 Z" class="stroke6"/>
    <path d="M 529 482 Q 557 489 592 496 Q 626 505 631 509 Q 638 516 634 523 Q 628 532 605 538 Q 581 542 557 532 Q 545 528 534 524 L 478 507 L 476 507 Q 430 497 374 490 Q 346 486 366 472 Q 379 465 397 461 Q 419 457 445 464 Q 460 468 479 471 L 529 482 Z" class="stroke7"/>
    <path d="M 334 390 Q 321 394 301 395 Q 289 396 287 391 Q 281 385 291 371 Q 319 325 343 247 Q 347 223 364 209 Q 383 190 386 206 Q 386 209 387 212 L 386 237 Q 385 247 382 257 Q 363 333 358 359 C 353 385 353 385 334 390 Z" class="stroke8"/>
    <path d="M 620 239 Q 624 224 635 225 Q 648 226 656 238 Q 666 248 687 300 Q 703 348 737 374 Q 756 389 741 403 Q 725 419 679 445 Q 663 455 645 448 Q 615 441 580 436 Q 552 432 526 427 L 479 418 Q 451 415 427 409 Q 372 397 334 390 C 305 384 329 350 358 359 Q 401 374 479 387 L 526 395 Q 563 402 609 407 Q 640 410 652 404 Q 659 400 654 375 Q 632 287 623 270 Q 622 269 620 265 C 612 249 612 249 620 239 Z" class="stroke9"/>
    <path d="M 418 315 Q 403 312 422 299 Q 429 295 444 296 Q 460 300 479 302 L 526 310 Q 550 314 572 318 Q 593 322 585 333 Q 575 346 553 349 Q 541 350 526 347 L 479 335 Q 446 325 418 315 Z" class="stroke10"/>
    <path d="M 526 228 Q 575 235 619 239 L 620 239 C 650 241 647 252 620 265 Q 613 269 602 272 Q 581 276 544 268 Q 534 267 526 264 L 477 254 Q 429 247 386 237 C 357 230 357 214 387 212 Q 397 211 410 212 Q 444 218 477 221 L 526 228 Z" class="stroke11"/>
    <path d="M 476 162 Q 322 146 146 127 Q 124 126 140 107 Q 155 92 174 86 Q 196 79 214 84 Q 326 112 453 124 Q 463 125 475 126 L 529 131 Q 646 141 813 138 Q 844 137 872 136 Q 893 136 898 145 Q 905 158 887 173 Q 857 195 834 205 Q 813 212 791 208 Q 692 189 527 168 L 476 162 Z" class="stroke12"/>
    <path d="M 475 126 Q 474 -3 479 -48 Q 483 -72 490 -81 Q 496 -88 503 -86 Q 510 -82 515 -68 Q 521 -53 523 -21 Q 530 55 529 131 L 527 168 Q 526 193 526 228 L 526 264 Q 526 286 526 310 L 526 347 L 526 395 L 526 427 L 528 463 Q 528 473 529 482 L 534 524 Q 535 537 539 549 Q 542 567 528 575 Q 518 582 509 587 C 484 603 437 606 452 580 Q 453 579 455 576 Q 459 566 466 557 Q 476 538 478 507 L 479 471 Q 479 446 479 418 L 479 387 Q 479 362 479 335 L 479 302 Q 478 280 477 254 L 477 221 Q 476 193 476 162 L 475 126 Z" class="stroke13"/>
    
    
    
    
    
    
    
    
    
    
    
    
    </g>
</svg>