<svg version="1.1" viewBox="0 0 1024 1024" xmlns="http://www.w3.org/2000/svg">
  
  <g transform="scale(1, -1) translate(0, -900)">
    <style type="text/css">
        .stroke1 {fill: #808080;}
        .stroke2 {fill: #808079;}
        .stroke3 {fill: #808078;}
        .stroke4 {fill: #808077;}
        .stroke5 {fill: #808076;}
        .stroke6 {fill: #808075;}
        .stroke7 {fill: #808074;}
        .stroke8 {fill: #808073;}
        .stroke9 {fill: #808072;}
        .stroke10 {fill: #808071;}
        .stroke11 {fill: #808070;}
        .stroke12 {fill: #808069;}
        .stroke13 {fill: #808068;}
        .stroke14 {fill: #808067;}
        .stroke15 {fill: #808066;}
        .stroke16 {fill: #808065;}
        .stroke17 {fill: #808064;}
        .stroke18 {fill: #808063;}
        .stroke19 {fill: #808062;}
        .stroke20 {fill: #808061;}
        text {
            font-family: Helvetica;
            font-size: 50px;
            fill: #808060;
            paint-order: stroke;
            stroke: #000000;
            stroke-width: 4px;
            stroke-linecap: butt;
            stroke-linejoin: miter;
            font-weight: 800;
        }
    </style>

    <path d="M 503 726 Q 576 742 655 757 Q 707 769 715 776 Q 725 785 720 794 Q 711 807 678 816 Q 650 822 546 789 Q 423 759 331 750 Q 291 743 320 724 Q 365 696 430 711 Q 431 712 434 711 L 503 726 Z" class="stroke1"/>
    <path d="M 305 583 Q 281 596 256 600 Q 249 601 244 597 Q 237 590 247 580 Q 286 532 303 401 Q 310 338 348 316 Q 349 316 351 315 Q 367 312 368 338 L 364 372 Q 360 391 353 410 Q 331 534 330 546 C 326 572 326 572 305 583 Z" class="stroke2"/>
    <path d="M 615 368 Q 634 335 652 324 Q 664 314 682 338 Q 700 365 742 511 Q 752 545 780 573 Q 796 586 783 603 Q 767 622 719 653 Q 698 665 614 643 Q 599 643 519 624 L 465 614 Q 449 613 432 608 Q 360 593 305 583 C 276 578 302 535 330 546 Q 339 555 467 580 L 518 590 Q 656 621 676 602 Q 689 584 686 568 Q 649 412 632 398 C 617 372 615 368 615 368 Z" class="stroke3"/>
    <path d="M 521 473 Q 561 480 598 486 Q 623 490 613 504 Q 603 519 575 524 Q 553 527 520 517 L 470 503 Q 424 490 383 478 Q 367 474 388 459 Q 398 452 419 455 Q 444 461 470 464 L 521 473 Z" class="stroke4"/>
    <path d="M 517 359 Q 560 365 615 368 C 645 370 658 382 632 398 Q 604 420 519 398 L 467 387 Q 412 378 364 372 C 334 368 338 337 368 338 Q 375 338 383 339 Q 416 346 465 352 L 517 359 Z" class="stroke5"/>
    <path d="M 476 177 Q 504 234 517 359 L 519 398 Q 520 435 521 473 L 520 517 Q 520 554 519 585 Q 518 588 518 590 L 519 624 Q 520 658 530 694 Q 534 706 525 713 Q 516 720 503 726 C 478 742 415 734 434 711 Q 459 686 463 658 Q 464 636 465 614 L 467 580 Q 468 541 470 503 L 470 464 Q 470 424 467 387 L 465 352 Q 453 253 429 211 L 405 176 Q 347 103 148 28 Q 135 25 131 21 Q 125 17 140 12 Q 162 11 238 30 Q 293 43 369 80 Q 417 105 447 137 L 476 177 Z" class="stroke6"/>
    <path d="M 447 137 Q 588 14 688 -37 Q 739 -55 932 -15 Q 945 -9 949 0 Q 953 10 929 12 Q 859 28 782 38 Q 643 62 476 177 L 429 211 Q 423 215 417 221 Q 309 311 245 305 Q 232 304 222 301 Q 212 295 217 286 Q 224 276 237 276 Q 276 273 405 176 L 447 137 Z" class="stroke7"/>
    
    
    
    
    
    
    </g>
</svg>