<svg version="1.1" viewBox="0 0 1024 1024" xmlns="http://www.w3.org/2000/svg">
  
  <g transform="scale(1, -1) translate(0, -900)">
    <style type="text/css">
        .stroke1 {fill: #808080;}
        .stroke2 {fill: #808079;}
        .stroke3 {fill: #808078;}
        .stroke4 {fill: #808077;}
        .stroke5 {fill: #808076;}
        .stroke6 {fill: #808075;}
        .stroke7 {fill: #808074;}
        .stroke8 {fill: #808073;}
        .stroke9 {fill: #808072;}
        .stroke10 {fill: #808071;}
        .stroke11 {fill: #808070;}
        .stroke12 {fill: #808069;}
        .stroke13 {fill: #808068;}
        .stroke14 {fill: #808067;}
        .stroke15 {fill: #808066;}
        .stroke16 {fill: #808065;}
        .stroke17 {fill: #808064;}
        .stroke18 {fill: #808063;}
        .stroke19 {fill: #808062;}
        .stroke20 {fill: #808061;}
        text {
            font-family: Helvetica;
            font-size: 50px;
            fill: #808060;
            paint-order: stroke;
            stroke: #000000;
            stroke-width: 4px;
            stroke-linecap: butt;
            stroke-linejoin: miter;
            font-weight: 800;
        }
    </style>

    <path d="M 528 610 Q 558 616 792 638 Q 804 637 815 650 Q 816 663 792 676 Q 750 701 677 682 Q 530 652 529 651 L 485 644 Q 410 634 344 628 Q 277 624 202 616 Q 169 613 194 593 Q 233 563 260 567 Q 362 586 486 604 L 528 610 Z" class="stroke1"/>
    <path d="M 526 436 Q 586 446 717 446 Q 736 447 740 455 Q 744 467 729 479 Q 672 516 611 496 Q 575 490 527 478 L 486 470 Q 393 455 287 437 Q 268 434 282 419 Q 295 406 313 402 Q 332 398 347 403 Q 402 419 466 427 L 526 436 Z" class="stroke2"/>
    <path d="M 525 430 Q 525 434 526 436 L 527 478 Q 527 544 528 610 L 529 651 Q 533 715 547 764 Q 556 780 553 793 Q 546 803 490 837 Q 466 853 445 838 Q 441 832 447 817 Q 483 765 484 710 Q 484 679 485 644 L 486 604 Q 486 574 488 542 Q 487 508 486 470 L 483 355 Q 479 169 474 137 Q 467 95 455 52 Q 443 10 471 -50 Q 478 -68 486 -71 Q 493 -78 500 -69 Q 507 -65 518 -44 Q 528 -19 526 13 Q 525 58 525 386 L 525 430 Z" class="stroke3"/>
    <path d="M 466 427 Q 376 255 124 79 Q 111 67 120 65 Q 145 53 244 116 Q 368 192 483 355 C 544 440 480 453 466 427 Z" class="stroke4"/>
    <path d="M 525 386 Q 619 253 739 111 Q 760 86 795 87 Q 916 87 955 93 Q 965 96 968 101 Q 969 107 952 115 Q 787 176 735 221 Q 638 306 525 430 C 505 452 508 410 525 386 Z" class="stroke5"/>
    
    
    
    
    </g>
</svg>