<svg version="1.1" viewBox="0 0 1024 1024" xmlns="http://www.w3.org/2000/svg">
  
  <g transform="scale(1, -1) translate(0, -900)">
    <style type="text/css">
        .stroke1 {fill: #808080;}
        .stroke2 {fill: #808079;}
        .stroke3 {fill: #808078;}
        .stroke4 {fill: #808077;}
        .stroke5 {fill: #808076;}
        .stroke6 {fill: #808075;}
        .stroke7 {fill: #808074;}
        .stroke8 {fill: #808073;}
        .stroke9 {fill: #808072;}
        .stroke10 {fill: #808071;}
        .stroke11 {fill: #808070;}
        .stroke12 {fill: #808069;}
        .stroke13 {fill: #808068;}
        .stroke14 {fill: #808067;}
        .stroke15 {fill: #808066;}
        .stroke16 {fill: #808065;}
        .stroke17 {fill: #808064;}
        .stroke18 {fill: #808063;}
        .stroke19 {fill: #808062;}
        .stroke20 {fill: #808061;}
        text {
            font-family: Helvetica;
            font-size: 50px;
            fill: #808060;
            paint-order: stroke;
            stroke: #000000;
            stroke-width: 4px;
            stroke-linecap: butt;
            stroke-linejoin: miter;
            font-weight: 800;
        }
    </style>

    <path d="M 431 654 Q 382 497 252 413 Q 236 403 220 392 Q 207 383 219 380 Q 277 376 359 445 Q 408 482 437 537 Q 476 615 485 648 Q 485 657 488 667 L 497 699 Q 509 756 525 782 Q 535 800 519 810 Q 473 847 447 839 Q 432 835 438 820 Q 457 783 439 687 L 431 654 Z" class="stroke1"/>
    <path d="M 488 667 Q 581 688 600 674 Q 609 668 605 652 Q 569 525 599 473 Q 602 469 607 462 Q 652 411 779 410 Q 849 411 887 426 Q 917 436 906 457 Q 881 511 869 590 Q 865 606 857 610 Q 850 614 848 600 Q 835 504 814 483 Q 807 473 771 467 Q 677 458 645 485 Q 630 504 629 536 Q 628 566 646 607 Q 662 646 684 658 Q 712 677 684 695 Q 666 708 648 722 Q 629 735 611 725 Q 586 721 497 699 L 439 687 Q 321 663 271 659 Q 255 658 252 645 Q 251 636 280 623 Q 307 610 346 627 Q 382 643 431 654 L 488 667 Z" class="stroke2"/>
    <path d="M 539 286 Q 605 295 800 305 Q 810 302 822 315 Q 823 328 801 341 Q 773 363 737 359 Q 643 341 547 327 Q 543 327 540 326 L 487 318 Q 442 315 179 299 Q 148 298 170 277 Q 203 244 235 250 Q 347 266 488 281 L 539 286 Z" class="stroke3"/>
    <path d="M 447 67 Q 402 74 358 84 Q 345 85 348 78 Q 349 71 360 65 Q 451 4 486 -35 Q 501 -51 515 -37 Q 551 -1 546 69 Q 543 99 539 286 L 540 326 Q 541 357 551 379 Q 560 398 543 411 Q 518 433 488 442 Q 469 449 461 441 Q 455 434 466 419 Q 485 386 487 318 L 488 281 Q 492 85 472 70 Q 462 63 447 67 Z" class="stroke4"/>
    <path d="M 311 202 Q 274 157 230 119 Q 202 100 209 59 Q 210 40 234 46 Q 259 55 280 80 Q 308 111 319 142 Q 332 170 333 196 Q 332 205 326 207 Q 317 208 311 202 Z" class="stroke5"/>
    <path d="M 649 184 Q 707 130 777 51 Q 793 30 808 26 Q 817 25 825 35 Q 838 48 826 93 Q 819 132 741 174 Q 690 199 651 216 Q 641 222 639 209 Q 638 196 649 184 Z" class="stroke6"/>
    
    
    
    
    
    </g>
</svg>