<svg version="1.1" viewBox="0 0 1024 1024" xmlns="http://www.w3.org/2000/svg">
  
  <g transform="scale(1, -1) translate(0, -900)">
    <style type="text/css">
        .stroke1 {fill: #808080;}
        .stroke2 {fill: #808079;}
        .stroke3 {fill: #808078;}
        .stroke4 {fill: #808077;}
        .stroke5 {fill: #808076;}
        .stroke6 {fill: #808075;}
        .stroke7 {fill: #808074;}
        .stroke8 {fill: #808073;}
        .stroke9 {fill: #808072;}
        .stroke10 {fill: #808071;}
        .stroke11 {fill: #808070;}
        .stroke12 {fill: #808069;}
        .stroke13 {fill: #808068;}
        .stroke14 {fill: #808067;}
        .stroke15 {fill: #808066;}
        .stroke16 {fill: #808065;}
        .stroke17 {fill: #808064;}
        .stroke18 {fill: #808063;}
        .stroke19 {fill: #808062;}
        .stroke20 {fill: #808061;}
        text {
            font-family: Helvetica;
            font-size: 50px;
            fill: #808060;
            paint-order: stroke;
            stroke: #000000;
            stroke-width: 4px;
            stroke-linecap: butt;
            stroke-linejoin: miter;
            font-weight: 800;
        }
    </style>

    <path d="M 531 604 Q 556 610 737 636 Q 747 635 757 648 Q 758 661 734 671 Q 698 692 635 672 Q 584 659 535 646 L 484 634 Q 451 628 248 598 Q 218 594 242 576 Q 275 548 306 557 Q 376 573 462 590 L 531 604 Z" class="stroke1"/>
    <path d="M 527 563 Q 528 584 531 604 L 535 646 Q 539 724 567 773 Q 574 785 561 801 Q 500 852 465 840 Q 449 834 456 817 Q 492 760 484 634 L 482 522 Q 478 398 466 350 Q 465 332 483 289 Q 495 270 512 280 Q 528 293 527 326 Q 523 467 526 527 L 527 563 Z" class="stroke2"/>
    <path d="M 462 590 Q 357 422 105 263 Q 90 253 100 249 Q 109 243 122 248 Q 278 290 472 511 Q 476 517 482 522 C 550 597 478 616 462 590 Z" class="stroke3"/>
    <path d="M 526 527 Q 629 415 759 296 Q 781 275 816 281 Q 933 297 969 308 Q 979 312 980 317 Q 980 323 963 329 Q 789 369 702 430 Q 620 487 527 563 C 504 582 506 549 526 527 Z" class="stroke4"/>
    <path d="M 336 229 Q 323 236 285 241 Q 272 244 267 238 Q 260 231 270 212 Q 306 143 328 29 Q 332 -5 353 -27 Q 375 -52 380 -34 Q 384 -21 384 -1 L 379 38 Q 358 155 351 193 C 346 223 345 225 336 229 Z" class="stroke5"/>
    <path d="M 673 64 Q 709 173 747 200 Q 766 222 751 242 Q 732 258 673 288 Q 652 298 628 289 Q 510 247 336 229 C 306 226 322 187 351 193 Q 361 194 375 198 Q 490 217 598 235 Q 626 241 638 229 Q 656 210 615 70 C 607 41 663 36 673 64 Z" class="stroke6"/>
    <path d="M 384 -1 Q 385 -1 389 -1 Q 483 15 688 22 Q 700 23 702 33 Q 703 42 673 64 C 656 77 645 75 615 70 Q 485 48 379 38 C 349 35 354 -4 384 -1 Z" class="stroke7"/>
    
    
    
    
    
    
    </g>
</svg>