<svg version="1.1" viewBox="0 0 1024 1024" xmlns="http://www.w3.org/2000/svg">
  
  <g transform="scale(1, -1) translate(0, -900)">
    <style type="text/css">
        .stroke1 {fill: #808080;}
        .stroke2 {fill: #808079;}
        .stroke3 {fill: #808078;}
        .stroke4 {fill: #808077;}
        .stroke5 {fill: #808076;}
        .stroke6 {fill: #808075;}
        .stroke7 {fill: #808074;}
        .stroke8 {fill: #808073;}
        .stroke9 {fill: #808072;}
        .stroke10 {fill: #808071;}
        .stroke11 {fill: #808070;}
        .stroke12 {fill: #808069;}
        .stroke13 {fill: #808068;}
        .stroke14 {fill: #808067;}
        .stroke15 {fill: #808066;}
        .stroke16 {fill: #808065;}
        .stroke17 {fill: #808064;}
        .stroke18 {fill: #808063;}
        .stroke19 {fill: #808062;}
        .stroke20 {fill: #808061;}
        text {
            font-family: Helvetica;
            font-size: 50px;
            fill: #808060;
            paint-order: stroke;
            stroke: #000000;
            stroke-width: 4px;
            stroke-linecap: butt;
            stroke-linejoin: miter;
            font-weight: 800;
        }
    </style>

    <path d="M 324 523 Q 352 532 381 538 Q 421 548 428 555 Q 437 564 432 572 Q 423 584 394 590 Q 358 596 325 579 L 279 563 Q 182 536 116 526 Q 79 519 107 503 Q 146 482 217 499 Q 236 505 259 507 L 324 523 Z" class="stroke1"/>
    <path d="M 321 435 Q 322 477 324 523 L 325 579 Q 325 678 346 751 Q 359 778 335 795 Q 319 807 290 825 Q 266 843 245 827 Q 241 823 246 806 Q 277 758 278 711 Q 278 641 279 563 L 275 432 Q 271 354 271 270 Q 267 194 245 125 Q 235 86 259 23 Q 266 4 274 1 Q 280 -6 288 3 Q 315 19 316 85 Q 315 125 321 402 L 321 435 Z" class="stroke2"/>
    <path d="M 259 507 Q 205 381 55 197 Q 49 187 60 186 Q 66 185 75 193 Q 201 293 275 432 C 328 530 271 534 259 507 Z" class="stroke3"/>
    <path d="M 321 402 Q 336 392 370 361 Q 383 351 396 352 Q 406 353 409 364 Q 413 377 403 403 Q 399 416 375 425 Q 324 438 321 435 C 291 431 296 419 321 402 Z" class="stroke4"/>
    <path d="M 560 589 Q 596 640 633 713 Q 649 749 664 767 Q 673 779 666 791 Q 660 804 630 823 Q 602 838 583 835 Q 565 831 576 811 Q 597 775 542 652 Q 494 556 459 499 Q 450 489 449 482 Q 448 470 460 474 Q 488 486 548 571 L 560 589 Z" class="stroke5"/>
    <path d="M 686 564 Q 851 604 855 607 Q 865 616 859 624 Q 852 636 822 643 Q 798 646 704 617 Q 574 592 565 590 Q 562 590 560 589 C 533 583 533 583 548 571 Q 570 549 629 552 L 686 564 Z" class="stroke6"/>
    <path d="M 708 367 Q 780 377 932 377 Q 951 377 956 386 Q 960 396 944 410 Q 890 447 833 433 Q 781 423 709 409 L 653 400 Q 559 387 448 370 Q 427 367 443 351 Q 456 338 474 333 Q 495 329 510 333 Q 577 352 653 360 L 708 367 Z" class="stroke7"/>
    <path d="M 654 -22 Q 658 -47 666 -57 Q 672 -64 679 -62 Q 694 -52 701 7 Q 708 79 708 150 Q 705 199 708 367 L 709 409 Q 709 455 721 521 Q 724 540 710 549 Q 697 559 686 564 C 660 579 617 579 629 552 Q 648 512 652 493 Q 652 448 653 400 L 653 360 Q 647 39 654 -22 Z" class="stroke8"/>
    
    
    
    
    
    
    
    </g>
</svg>