<svg version="1.1" viewBox="0 0 1024 1024" xmlns="http://www.w3.org/2000/svg">
  
  <g transform="scale(1, -1) translate(0, -900)">
    <style type="text/css">
        .stroke1 {fill: #808080;}
        .stroke2 {fill: #808079;}
        .stroke3 {fill: #808078;}
        .stroke4 {fill: #808077;}
        .stroke5 {fill: #808076;}
        .stroke6 {fill: #808075;}
        .stroke7 {fill: #808074;}
        .stroke8 {fill: #808073;}
        .stroke9 {fill: #808072;}
        .stroke10 {fill: #808071;}
        .stroke11 {fill: #808070;}
        .stroke12 {fill: #808069;}
        .stroke13 {fill: #808068;}
        .stroke14 {fill: #808067;}
        .stroke15 {fill: #808066;}
        .stroke16 {fill: #808065;}
        .stroke17 {fill: #808064;}
        .stroke18 {fill: #808063;}
        .stroke19 {fill: #808062;}
        .stroke20 {fill: #808061;}
        text {
            font-family: Helvetica;
            font-size: 50px;
            fill: #808060;
            paint-order: stroke;
            stroke: #000000;
            stroke-width: 4px;
            stroke-linecap: butt;
            stroke-linejoin: miter;
            font-weight: 800;
        }
    </style>

    <path d="M 520 680 Q 572 690 629 699 Q 675 709 682 715 Q 692 722 687 732 Q 680 744 650 752 Q 619 759 588 748 L 526 730 L 469 717 Q 411 707 343 701 Q 306 697 332 678 Q 366 654 444 668 Q 456 671 471 671 L 520 680 Z" class="stroke1"/>
    <path d="M 274 565 Q 237 571 233 563 Q 227 556 238 539 Q 275 476 306 371 Q 312 338 333 319 Q 355 297 359 315 Q 360 322 361 330 L 358 361 Q 357 373 353 385 Q 325 488 316 524 C 309 553 304 561 274 565 Z" class="stroke2"/>
    <path d="M 641 359 Q 641 353 644 346 Q 650 328 664 329 Q 680 330 689 347 Q 702 363 729 445 Q 748 503 790 535 Q 812 553 794 571 Q 775 590 719 621 Q 700 633 632 615 Q 581 612 517 598 L 472 591 Q 444 587 418 581 Q 307 562 274 565 C 244 565 286 519 316 524 Q 323 523 330 525 Q 382 543 473 556 L 517 563 Q 659 584 682 573 Q 692 567 685 533 Q 660 416 648 387 L 641 359 Z" class="stroke3"/>
    <path d="M 517 450 Q 557 457 594 460 Q 616 463 609 476 Q 599 491 573 496 Q 552 500 517 491 L 473 480 Q 430 470 392 461 Q 376 457 395 442 Q 404 435 425 438 Q 449 442 472 444 L 517 450 Z" class="stroke4"/>
    <path d="M 517 349 Q 571 355 641 359 C 671 361 672 369 648 387 Q 624 411 526 386 Q 522 386 517 384 L 470 376 Q 410 367 358 361 C 328 358 331 331 361 330 Q 370 329 380 331 Q 404 337 437 340 L 517 349 Z" class="stroke5"/>
    <path d="M 517 330 Q 517 340 517 349 L 517 384 Q 517 415 517 450 L 517 491 Q 517 525 517 563 L 517 598 Q 517 599 518 602 Q 518 644 520 680 L 526 730 Q 530 761 538 787 Q 547 803 544 818 Q 537 828 476 864 Q 451 883 429 865 Q 423 861 430 843 Q 469 786 469 717 L 471 671 Q 471 634 472 591 L 473 556 Q 473 519 473 480 L 472 444 Q 471 411 470 376 L 470 295 Q 470 147 444 52 Q 432 13 461 -57 Q 468 -76 477 -79 Q 484 -86 491 -77 Q 500 -73 511 -50 Q 521 -23 519 11 Q 518 51 517 291 L 517 330 Z" class="stroke6"/>
    <path d="M 437 340 Q 431 318 410 288 Q 352 206 286 150 Q 231 99 118 28 Q 102 16 117 14 Q 127 11 166 27 Q 227 48 284 89 Q 404 180 462 282 Q 466 289 470 295 C 506 353 453 384 437 340 Z" class="stroke7"/>
    <path d="M 517 291 Q 614 173 722 63 Q 747 38 790 34 Q 868 28 949 42 Q 970 43 972 49 Q 975 56 958 64 Q 751 148 721 167 Q 663 206 529 319 Q 522 326 517 330 C 495 350 498 314 517 291 Z" class="stroke8"/>
    
    
    
    
    
    
    
    </g>
</svg>