<svg version="1.1" viewBox="0 0 1024 1024" xmlns="http://www.w3.org/2000/svg">
  
  <g transform="scale(1, -1) translate(0, -900)">
    <style type="text/css">
        .stroke1 {fill: #808080;}
        .stroke2 {fill: #808079;}
        .stroke3 {fill: #808078;}
        .stroke4 {fill: #808077;}
        .stroke5 {fill: #808076;}
        .stroke6 {fill: #808075;}
        .stroke7 {fill: #808074;}
        .stroke8 {fill: #808073;}
        .stroke9 {fill: #808072;}
        .stroke10 {fill: #808071;}
        .stroke11 {fill: #808070;}
        .stroke12 {fill: #808069;}
        .stroke13 {fill: #808068;}
        .stroke14 {fill: #808067;}
        .stroke15 {fill: #808066;}
        .stroke16 {fill: #808065;}
        .stroke17 {fill: #808064;}
        .stroke18 {fill: #808063;}
        .stroke19 {fill: #808062;}
        .stroke20 {fill: #808061;}
        text {
            font-family: Helvetica;
            font-size: 50px;
            fill: #808060;
            paint-order: stroke;
            stroke: #000000;
            stroke-width: 4px;
            stroke-linecap: butt;
            stroke-linejoin: miter;
            font-weight: 800;
        }
    </style>

    <path d="M 527 574 Q 584 587 765 607 Q 777 606 788 621 Q 789 634 763 647 Q 721 672 652 651 Q 597 638 541 625 Q 537 624 532 623 L 480 612 Q 411 603 246 582 Q 212 578 237 557 Q 277 526 310 534 Q 371 547 445 560 L 527 574 Z" class="stroke1"/>
    <path d="M 526 565 Q 526 569 527 574 L 532 623 Q 535 713 567 773 Q 574 785 560 802 Q 532 824 497 839 Q 476 849 458 843 Q 440 837 449 819 Q 483 761 480 671 Q 480 641 480 612 L 477 507 Q 473 368 459 315 Q 458 300 478 249 Q 491 230 509 240 Q 524 252 524 317 Q 518 449 524 529 L 526 565 Z" class="stroke2"/>
    <path d="M 445 560 Q 439 541 422 519 Q 370 446 310 396 Q 261 351 159 288 Q 140 276 157 273 Q 194 270 289 322 Q 352 365 412 427 Q 452 469 477 507 C 523 575 463 604 445 560 Z" class="stroke3"/>
    <path d="M 524 529 Q 597 435 679 346 Q 703 321 744 318 Q 819 312 897 325 Q 916 326 919 333 Q 922 340 906 346 Q 858 365 803 383 Q 680 428 540 554 Q 531 561 526 565 C 502 584 506 553 524 529 Z" class="stroke4"/>
    <path d="M 179 196 Q 158 129 126 68 Q 105 31 130 -10 Q 140 -31 164 -14 Q 218 37 215 131 Q 218 170 207 198 Q 200 208 193 208 Q 183 205 179 196 Z" class="stroke5"/>
    <path d="M 345 150 Q 393 51 415 42 Q 428 38 441 54 Q 445 67 442 90 Q 438 114 412 133 Q 375 167 358 176 Q 348 180 344 169 Q 340 162 345 150 Z" class="stroke6"/>
    <path d="M 542 170 Q 602 61 627 53 Q 640 49 652 66 Q 656 79 652 102 Q 639 151 554 197 Q 544 201 541 189 Q 537 182 542 170 Z" class="stroke7"/>
    <path d="M 728 200 Q 783 139 850 50 Q 866 25 882 19 Q 892 16 901 27 Q 917 40 907 91 Q 901 140 824 184 Q 811 197 732 235 Q 723 242 719 228 Q 718 213 728 200 Z" class="stroke8"/>
    
    
    
    
    
    
    
    </g>
</svg>