<svg version="1.1" viewBox="0 0 1024 1024" xmlns="http://www.w3.org/2000/svg">
  
  <g transform="scale(1, -1) translate(0, -900)">
    <style type="text/css">
        .stroke1 {fill: #808080;}
        .stroke2 {fill: #808079;}
        .stroke3 {fill: #808078;}
        .stroke4 {fill: #808077;}
        .stroke5 {fill: #808076;}
        .stroke6 {fill: #808075;}
        .stroke7 {fill: #808074;}
        .stroke8 {fill: #808073;}
        .stroke9 {fill: #808072;}
        .stroke10 {fill: #808071;}
        .stroke11 {fill: #808070;}
        .stroke12 {fill: #808069;}
        .stroke13 {fill: #808068;}
        .stroke14 {fill: #808067;}
        .stroke15 {fill: #808066;}
        .stroke16 {fill: #808065;}
        .stroke17 {fill: #808064;}
        .stroke18 {fill: #808063;}
        .stroke19 {fill: #808062;}
        .stroke20 {fill: #808061;}
        text {
            font-family: Helvetica;
            font-size: 50px;
            fill: #808060;
            paint-order: stroke;
            stroke: #000000;
            stroke-width: 4px;
            stroke-linecap: butt;
            stroke-linejoin: miter;
            font-weight: 800;
        }
    </style>

    <path d="M 322 514 Q 413 541 416 543 Q 425 552 420 560 Q 413 572 382 578 Q 351 582 323 569 L 282 555 Q 198 528 128 518 Q 91 511 118 495 Q 163 471 222 489 Q 244 496 271 500 L 322 514 Z" class="stroke1"/>
    <path d="M 320 434 Q 320 473 322 514 L 323 569 Q 323 687 345 762 Q 360 787 330 807 Q 315 819 290 833 Q 268 849 247 835 Q 243 831 249 815 Q 282 766 282 716 Q 282 643 283 561 Q 282 560 282 555 L 276 396 Q 272 221 259 158 Q 238 74 252 31 Q 255 22 260 10 Q 267 -8 274 -11 Q 281 -18 288 -9 Q 295 -5 306 15 Q 316 40 315 70 Q 314 110 319 405 L 320 434 Z" class="stroke2"/>
    <path d="M 271 500 Q 244 427 206 361 Q 163 285 58 149 Q 52 139 64 138 Q 88 138 196 270 Q 238 322 276 396 C 345 528 282 528 271 500 Z" class="stroke3"/>
    <path d="M 319 405 Q 394 330 402 327 Q 402 328 404 327 Q 413 327 417 337 Q 421 347 417 371 Q 414 390 387 407 Q 333 434 320 434 C 290 438 298 426 319 405 Z" class="stroke4"/>
    <path d="M 632 577 Q 809 620 816 625 Q 825 635 820 643 Q 811 656 780 663 Q 758 667 651 633 Q 540 606 493 600 Q 454 593 483 575 Q 525 553 585 566 L 632 577 Z" class="stroke5"/>
    <path d="M 653 363 Q 695 373 739 381 Q 776 390 783 395 Q 792 402 787 412 Q 780 424 750 431 Q 713 440 654 413 L 602 399 Q 601 400 599 399 Q 547 387 486 382 Q 449 375 475 358 Q 514 337 587 351 Q 593 352 602 353 L 653 363 Z" class="stroke6"/>
    <path d="M 648 176 Q 649 276 653 363 L 654 413 Q 657 554 658 554 Q 657 557 656 557 Q 644 569 632 577 C 608 595 575 594 585 566 Q 598 542 602 420 Q 602 411 602 399 L 602 353 Q 602 281 602 170 C 602 140 648 146 648 176 Z" class="stroke7"/>
    <path d="M 602 170 Q 497 157 377 143 Q 355 142 371 123 Q 386 108 404 103 Q 426 97 443 102 Q 602 142 888 143 Q 904 143 921 142 Q 942 142 947 151 Q 953 163 936 177 Q 882 219 843 210 Q 770 194 648 176 L 602 170 Z" class="stroke8"/>
    
    
    
    
    
    
    
    </g>
</svg>