<svg version="1.1" viewBox="0 0 1024 1024" xmlns="http://www.w3.org/2000/svg">
  
  <g transform="scale(1, -1) translate(0, -900)">
    <style type="text/css">
        .stroke1 {fill: #808080;}
        .stroke2 {fill: #808079;}
        .stroke3 {fill: #808078;}
        .stroke4 {fill: #808077;}
        .stroke5 {fill: #808076;}
        .stroke6 {fill: #808075;}
        .stroke7 {fill: #808074;}
        .stroke8 {fill: #808073;}
        .stroke9 {fill: #808072;}
        .stroke10 {fill: #808071;}
        .stroke11 {fill: #808070;}
        .stroke12 {fill: #808069;}
        .stroke13 {fill: #808068;}
        .stroke14 {fill: #808067;}
        .stroke15 {fill: #808066;}
        .stroke16 {fill: #808065;}
        .stroke17 {fill: #808064;}
        .stroke18 {fill: #808063;}
        .stroke19 {fill: #808062;}
        .stroke20 {fill: #808061;}
        text {
            font-family: Helvetica;
            font-size: 50px;
            fill: #808060;
            paint-order: stroke;
            stroke: #000000;
            stroke-width: 4px;
            stroke-linecap: butt;
            stroke-linejoin: miter;
            font-weight: 800;
        }
    </style>

    <path d="M 336 534 Q 354 540 374 545 Q 411 555 417 561 Q 426 571 420 579 Q 411 592 380 598 Q 358 601 338 595 L 287 576 Q 199 545 116 533 Q 77 524 106 507 Q 151 489 233 508 Q 248 512 267 516 L 336 534 Z" class="stroke1"/>
    <path d="M 333 446 Q 334 489 336 534 L 338 595 Q 341 683 358 741 Q 368 757 365 771 Q 358 781 301 817 Q 276 836 255 819 Q 249 815 256 798 Q 287 750 287 703 Q 287 643 287 576 L 283 425 Q 279 346 279 262 Q 273 186 253 117 Q 241 75 267 11 Q 273 -7 281 -11 Q 288 -18 296 -9 Q 303 -5 315 17 Q 325 42 325 75 Q 324 115 332 415 L 333 446 Z" class="stroke2"/>
    <path d="M 267 516 Q 219 375 57 154 Q 53 144 64 143 Q 70 142 79 151 Q 208 269 283 425 C 342 546 277 544 267 516 Z" class="stroke3"/>
    <path d="M 332 415 Q 407 340 410 339 Q 411 339 415 339 Q 424 338 429 349 Q 433 361 429 385 Q 426 404 399 420 Q 348 445 333 446 C 303 450 311 436 332 415 Z" class="stroke4"/>
    <path d="M 519 718 Q 500 734 476 740 Q 467 741 461 734 Q 458 728 465 718 Q 507 625 473 422 Q 455 367 461 345 Q 470 312 481 300 Q 491 287 501 300 Q 528 327 529 502 Q 529 631 537 692 C 538 704 538 704 519 718 Z" class="stroke5"/>
    <path d="M 724 368 Q 717 344 731 322 Q 744 294 754 294 Q 769 295 785 328 Q 798 355 798 376 Q 785 473 787 622 Q 786 665 810 703 Q 820 719 813 728 Q 785 752 738 771 Q 723 777 700 768 Q 619 731 519 718 C 489 714 508 686 537 692 Q 622 708 709 725 Q 713 725 718 722 Q 730 695 734 624 Q 735 410 724 368 Z" class="stroke6"/>
    <path d="M 626 371 Q 632 422 640 532 Q 641 566 654 608 Q 658 618 651 625 Q 603 664 572 654 Q 556 647 569 633 Q 593 608 593 582 Q 596 449 580 363 Q 553 192 438 94 Q 405 67 358 34 Q 348 30 345 25 Q 341 21 355 19 Q 430 19 542 146 Q 552 162 564 179 Q 594 233 620 340 L 626 371 Z" class="stroke7"/>
    <path d="M 980 69 Q 962 115 951 197 Q 950 213 942 218 Q 933 222 930 203 Q 914 103 899 85 Q 872 60 784 59 Q 733 60 711 68 Q 692 78 687 91 Q 678 116 679 183 Q 683 256 698 291 Q 710 321 690 338 Q 639 375 626 371 C 608 376 610 368 620 340 Q 635 306 633 255 Q 630 87 655 53 Q 674 28 737 15 Q 786 6 864 7 Q 934 8 962 22 Q 992 38 980 69 Z" class="stroke8"/>
    
    
    
    
    
    
    
    </g>
</svg>