<svg version="1.1" viewBox="0 0 1024 1024" xmlns="http://www.w3.org/2000/svg">
  
  <g transform="scale(1, -1) translate(0, -900)">
    <style type="text/css">
        .stroke1 {fill: #808080;}
        .stroke2 {fill: #808079;}
        .stroke3 {fill: #808078;}
        .stroke4 {fill: #808077;}
        .stroke5 {fill: #808076;}
        .stroke6 {fill: #808075;}
        .stroke7 {fill: #808074;}
        .stroke8 {fill: #808073;}
        .stroke9 {fill: #808072;}
        .stroke10 {fill: #808071;}
        .stroke11 {fill: #808070;}
        .stroke12 {fill: #808069;}
        .stroke13 {fill: #808068;}
        .stroke14 {fill: #808067;}
        .stroke15 {fill: #808066;}
        .stroke16 {fill: #808065;}
        .stroke17 {fill: #808064;}
        .stroke18 {fill: #808063;}
        .stroke19 {fill: #808062;}
        .stroke20 {fill: #808061;}
        text {
            font-family: Helvetica;
            font-size: 50px;
            fill: #808060;
            paint-order: stroke;
            stroke: #000000;
            stroke-width: 4px;
            stroke-linecap: butt;
            stroke-linejoin: miter;
            font-weight: 800;
        }
    </style>

    <path d="M 326 497 Q 393 519 397 523 Q 406 532 400 540 Q 393 552 362 557 Q 344 560 327 555 L 287 541 Q 194 505 95 487 Q 58 478 86 463 Q 128 441 187 459 Q 224 471 267 481 L 326 497 Z" class="stroke1"/>
    <path d="M 323 370 Q 324 430 326 497 L 327 555 Q 327 657 349 734 Q 364 759 334 779 Q 319 791 294 805 Q 272 821 251 807 Q 247 803 253 787 Q 286 736 286 685 Q 286 618 287 541 L 283 391 Q 279 306 278 215 Q 274 136 251 61 Q 239 25 264 -38 Q 271 -56 278 -59 Q 285 -66 292 -57 Q 299 -53 310 -33 Q 320 -8 319 22 Q 318 62 323 346 L 323 370 Z" class="stroke2"/>
    <path d="M 267 481 Q 219 330 57 96 Q 53 86 64 86 Q 88 86 197 235 Q 243 299 283 391 C 337 513 276 509 267 481 Z" class="stroke3"/>
    <path d="M 323 346 Q 392 277 405 275 Q 412 275 417 285 Q 421 295 416 319 Q 409 346 337 369 Q 328 372 323 370 C 303 366 303 366 323 346 Z" class="stroke4"/>
    <path d="M 621 678 Q 634 702 648 715 Q 657 725 651 738 Q 647 751 618 771 Q 593 787 574 786 Q 556 785 565 763 Q 589 717 498 560 Q 456 490 397 410 Q 388 400 386 394 Q 383 382 397 386 Q 448 393 582 607 Q 594 629 608 653 Q 608 654 609 655 L 621 678 Z" class="stroke5"/>
    <path d="M 609 655 Q 691 549 797 436 Q 816 417 845 420 Q 945 427 978 434 Q 987 435 988 441 Q 988 445 974 452 Q 818 503 759 556 Q 693 608 621 678 C 599 699 591 679 609 655 Z" class="stroke6"/>
    <path d="M 610 358 Q 736 388 739 389 Q 748 396 743 405 Q 736 415 708 423 Q 687 427 599 401 Q 523 386 477 380 Q 441 374 467 358 Q 506 336 561 348 Q 562 349 566 348 L 610 358 Z" class="stroke7"/>
    <path d="M 624 201 Q 735 225 739 229 Q 748 236 743 245 Q 736 255 708 263 Q 674 270 626 250 L 576 236 Q 572 236 568 235 Q 520 225 465 220 Q 431 214 455 198 Q 491 177 562 190 Q 568 191 576 192 L 624 201 Z" class="stroke8"/>
    <path d="M 618 80 Q 621 144 624 201 L 626 250 Q 629 340 630 340 Q 620 350 610 358 C 587 377 557 377 566 348 Q 575 327 576 236 L 576 192 Q 576 144 576 75 C 576 45 617 50 618 80 Z" class="stroke9"/>
    <path d="M 576 75 Q 491 65 392 53 Q 373 52 387 35 Q 400 22 417 16 Q 438 10 453 15 Q 586 46 862 46 Q 881 45 887 54 Q 891 64 876 78 Q 819 120 772 105 Q 711 95 618 80 L 576 75 Z" class="stroke10"/>
    
    
    
    
    
    
    
    
    
    </g>
</svg>