<svg version="1.1" viewBox="0 0 1024 1024" xmlns="http://www.w3.org/2000/svg">
  
  <g transform="scale(1, -1) translate(0, -900)">
    <style type="text/css">
        .stroke1 {fill: #808080;}
        .stroke2 {fill: #808079;}
        .stroke3 {fill: #808078;}
        .stroke4 {fill: #808077;}
        .stroke5 {fill: #808076;}
        .stroke6 {fill: #808075;}
        .stroke7 {fill: #808074;}
        .stroke8 {fill: #808073;}
        .stroke9 {fill: #808072;}
        .stroke10 {fill: #808071;}
        .stroke11 {fill: #808070;}
        .stroke12 {fill: #808069;}
        .stroke13 {fill: #808068;}
        .stroke14 {fill: #808067;}
        .stroke15 {fill: #808066;}
        .stroke16 {fill: #808065;}
        .stroke17 {fill: #808064;}
        .stroke18 {fill: #808063;}
        .stroke19 {fill: #808062;}
        .stroke20 {fill: #808061;}
        text {
            font-family: Helvetica;
            font-size: 50px;
            fill: #808060;
            paint-order: stroke;
            stroke: #000000;
            stroke-width: 4px;
            stroke-linecap: butt;
            stroke-linejoin: miter;
            font-weight: 800;
        }
    </style>

    <path d="M 327 535 Q 408 565 409 565 Q 416 572 412 581 Q 405 591 375 597 Q 350 601 329 591 L 286 573 Q 177 537 106 525 Q 72 516 98 502 Q 144 481 193 498 Q 230 508 271 519 L 327 535 Z" class="stroke1"/>
    <path d="M 325 450 Q 325 490 327 535 L 329 591 Q 330 684 349 746 Q 358 761 355 774 Q 348 784 294 817 Q 272 833 251 819 Q 247 815 252 799 Q 285 750 285 701 Q 285 641 286 573 L 282 419 Q 278 337 277 250 Q 273 172 251 101 Q 239 58 265 2 Q 271 -16 279 -19 Q 285 -26 292 -17 Q 299 -13 310 7 Q 320 32 319 62 Q 318 104 324 418 L 325 450 Z" class="stroke2"/>
    <path d="M 271 519 Q 219 372 50 142 Q 44 132 56 131 Q 62 130 72 139 Q 201 254 282 419 C 347 549 281 547 271 519 Z" class="stroke3"/>
    <path d="M 324 418 Q 400 342 408 339 L 411 339 Q 420 338 425 349 Q 429 361 425 385 Q 422 404 394 422 Q 334 450 325 450 C 295 455 303 439 324 418 Z" class="stroke4"/>
    <path d="M 505 717 Q 526 695 548 670 Q 560 657 574 657 Q 584 657 589 669 Q 593 682 588 710 Q 581 737 504 761 Q 491 765 484 763 Q 480 759 480 748 Q 481 738 505 717 Z" class="stroke5"/>
    <path d="M 724 787 Q 700 742 650 673 Q 646 666 651 659 Q 658 658 666 663 Q 754 742 798 773 Q 814 780 810 790 Q 803 805 782 822 Q 761 838 739 838 Q 724 837 727 817 Q 731 804 724 787 Z" class="stroke6"/>
    <path d="M 637 553 Q 797 592 803 597 Q 812 604 807 613 Q 800 623 772 630 Q 745 636 656 604 Q 539 577 496 572 Q 462 565 487 550 Q 526 529 583 541 L 637 553 Z" class="stroke7"/>
    <path d="M 660 404 Q 690 413 772 423 Q 782 422 790 435 Q 791 445 769 455 Q 736 473 664 450 Q 663 450 661 449 L 607 435 Q 550 426 491 415 Q 464 411 486 395 Q 514 374 556 382 Q 578 388 607 393 L 660 404 Z" class="stroke8"/>
    <path d="M 657 258 Q 750 273 907 273 Q 928 274 932 283 Q 938 296 920 309 Q 860 351 799 331 Q 741 319 658 302 L 606 293 Q 507 277 396 259 Q 374 256 391 239 Q 422 212 473 224 Q 533 242 605 251 L 657 258 Z" class="stroke9"/>
    <path d="M 606 -31 Q 612 -56 618 -65 Q 624 -72 631 -70 Q 649 -58 652 -3 Q 656 45 657 258 L 658 302 Q 658 348 660 404 L 661 449 Q 664 483 672 511 Q 675 529 661 538 Q 648 548 637 553 C 611 568 572 569 583 541 Q 605 490 607 435 L 607 393 Q 607 347 606 293 L 605 251 Q 599 37 606 -31 Z" class="stroke10"/>
    
    
    
    
    
    
    
    
    
    </g>
</svg>