<svg version="1.1" viewBox="0 0 1024 1024" xmlns="http://www.w3.org/2000/svg">
  
  <g transform="scale(1, -1) translate(0, -900)">
    <style type="text/css">
        .stroke1 {fill: #808080;}
        .stroke2 {fill: #808079;}
        .stroke3 {fill: #808078;}
        .stroke4 {fill: #808077;}
        .stroke5 {fill: #808076;}
        .stroke6 {fill: #808075;}
        .stroke7 {fill: #808074;}
        .stroke8 {fill: #808073;}
        .stroke9 {fill: #808072;}
        .stroke10 {fill: #808071;}
        .stroke11 {fill: #808070;}
        .stroke12 {fill: #808069;}
        .stroke13 {fill: #808068;}
        .stroke14 {fill: #808067;}
        .stroke15 {fill: #808066;}
        .stroke16 {fill: #808065;}
        .stroke17 {fill: #808064;}
        .stroke18 {fill: #808063;}
        .stroke19 {fill: #808062;}
        .stroke20 {fill: #808061;}
        text {
            font-family: Helvetica;
            font-size: 50px;
            fill: #808060;
            paint-order: stroke;
            stroke: #000000;
            stroke-width: 4px;
            stroke-linecap: butt;
            stroke-linejoin: miter;
            font-weight: 800;
        }
    </style>

    <path d="M 303 714 Q 342 660 368 649 Q 381 645 391 657 Q 398 669 397 684 Q 393 706 377 719 Q 367 728 317 749 Q 302 753 294 751 Q 288 750 289 739 Q 290 729 303 714 Z" class="stroke1"/>
    <path d="M 642 774 Q 624 752 564 686 Q 552 670 570 672 Q 615 691 641 705 Q 713 744 726 748 Q 748 755 739 775 Q 727 794 702 810 Q 680 826 667 825 Q 654 824 656 810 Q 657 791 642 774 Z" class="stroke2"/>
    <path d="M 477 570 Q 550 583 629 596 Q 681 606 690 613 Q 699 620 694 628 Q 688 641 660 648 Q 632 655 602 645 Q 547 629 487 616 L 431 606 Q 379 599 323 595 Q 287 591 312 573 Q 351 549 408 560 Q 411 560 417 560 L 477 570 Z" class="stroke3"/>
    <path d="M 435 461 Q 451 467 573 476 L 608 477 Q 662 480 795 481 Q 814 481 819 490 Q 823 500 808 514 Q 759 553 722 544 Q 635 525 485 503 Q 469 502 452 498 L 390 490 Q 296 480 196 465 Q 175 464 191 447 Q 204 434 222 428 Q 241 424 258 428 Q 312 443 371 452 L 435 461 Z" class="stroke4"/>
    <path d="M 371 452 Q 293 317 120 214 Q 105 204 119 201 Q 171 198 272 266 L 287 277 Q 294 284 303 290 Q 372 344 428 448 Q 431 455 435 461 L 452 498 Q 465 532 477 570 L 487 616 Q 515 739 535 773 Q 547 792 529 803 Q 478 846 449 836 Q 433 832 440 815 Q 467 758 431 606 L 417 560 Q 402 512 390 490 L 371 452 Z" class="stroke5"/>
    <path d="M 573 476 Q 750 260 798 245 Q 876 235 969 250 Q 988 251 989 257 Q 992 264 977 270 Q 797 340 793 343 Q 694 401 608 477 C 585 497 554 499 573 476 Z" class="stroke6"/>
    <path d="M 272 266 Q 273 259 309 237 Q 322 230 346 236 Q 383 245 429 252 L 524 268 Q 543 272 684 289 Q 694 288 704 300 Q 705 313 682 324 Q 643 346 570 324 Q 548 320 525 313 L 473 301 Q 424 294 379 288 Q 336 284 289 278 Q 288 278 287 277 C 266 273 266 273 272 266 Z" class="stroke7"/>
    <path d="M 469 213 Q 462 84 453 64 Q 441 31 475 -24 L 477 -27 Q 487 -46 496 -51 Q 508 -52 513 -39 Q 526 -6 523 25 Q 522 149 524 251 Q 524 260 524 268 L 525 313 Q 526 347 531 363 Q 534 376 526 382 Q 504 403 483 412 Q 471 416 462 409 Q 456 405 463 395 Q 472 380 473 301 L 469 213 Z" class="stroke8"/>
    <path d="M 429 252 Q 425 240 414 227 Q 368 163 317 121 Q 274 84 187 28 Q 168 16 185 13 Q 222 10 312 60 Q 363 96 413 145 Q 447 181 469 213 C 506 266 454 306 429 252 Z" class="stroke9"/>
    <path d="M 574 191 Q 656 128 755 35 Q 771 16 786 13 Q 793 12 801 23 Q 811 36 797 77 Q 782 132 573 221 Q 564 225 563 213 Q 563 200 574 191 Z" class="stroke10"/>
    
    
    
    
    
    
    
    
    
    </g>
</svg>