<svg version="1.1" viewBox="0 0 1024 1024" xmlns="http://www.w3.org/2000/svg">
  
  <g transform="scale(1, -1) translate(0, -900)">
    <style type="text/css">
        .stroke1 {fill: #808080;}
        .stroke2 {fill: #808079;}
        .stroke3 {fill: #808078;}
        .stroke4 {fill: #808077;}
        .stroke5 {fill: #808076;}
        .stroke6 {fill: #808075;}
        .stroke7 {fill: #808074;}
        .stroke8 {fill: #808073;}
        .stroke9 {fill: #808072;}
        .stroke10 {fill: #808071;}
        .stroke11 {fill: #808070;}
        .stroke12 {fill: #808069;}
        .stroke13 {fill: #808068;}
        .stroke14 {fill: #808067;}
        .stroke15 {fill: #808066;}
        .stroke16 {fill: #808065;}
        .stroke17 {fill: #808064;}
        .stroke18 {fill: #808063;}
        .stroke19 {fill: #808062;}
        .stroke20 {fill: #808061;}
        text {
            font-family: Helvetica;
            font-size: 50px;
            fill: #808060;
            paint-order: stroke;
            stroke: #000000;
            stroke-width: 4px;
            stroke-linecap: butt;
            stroke-linejoin: miter;
            font-weight: 800;
        }
    </style>

    <path d="M 208 505 Q 248 568 292 649 Q 316 703 340 729 Q 349 741 343 755 Q 337 768 305 791 Q 275 809 255 807 Q 236 803 245 780 Q 263 749 252 718 Q 198 558 41 337 Q 31 325 29 319 Q 26 306 41 311 Q 80 321 176 459 Q 177 463 181 466 L 208 505 Z" class="stroke1"/>
    <path d="M 181 466 Q 215 432 193 216 Q 186 162 173 107 Q 158 58 195 10 Q 196 7 200 4 Q 219 -12 231 16 Q 246 58 246 106 Q 246 362 254 421 Q 261 449 251 460 Q 233 482 219 496 Q 215 502 208 505 C 185 524 165 491 181 466 Z" class="stroke2"/>
    <path d="M 326 544 Q 353 486 331 317 Q 322 287 349 254 Q 356 244 366 254 Q 382 285 383 374 Q 383 474 390 517 Q 396 538 378 547 Q 363 557 349 564 Q 339 568 330 563 Q 323 559 326 544 Z" class="stroke3"/>
    <path d="M 573 700 Q 603 763 622 793 Q 632 806 616 820 Q 568 850 546 843 Q 536 840 539 826 Q 557 723 463 606 Q 439 578 428 560 Q 421 544 436 550 Q 458 556 513 614 L 528 632 Q 544 654 560 677 L 573 700 Z" class="stroke4"/>
    <path d="M 706 679 Q 751 691 800 700 Q 834 707 839 713 Q 848 720 843 729 Q 836 739 808 747 Q 778 751 750 740 Q 711 727 669 716 Q 624 706 573 700 C 543 696 533 689 560 677 Q 602 656 655 669 Q 661 670 669 672 L 706 679 Z" class="stroke5"/>
    <path d="M 673 541 Q 721 613 734 630 Q 743 637 739 647 Q 735 657 710 677 Q 707 678 706 679 C 681 696 671 702 669 672 Q 668 624 632 566 L 609 533 Q 603 527 598 520 Q 547 457 422 384 Q 415 378 420 375 Q 426 371 437 374 Q 555 402 646 505 L 673 541 Z" class="stroke6"/>
    <path d="M 646 505 Q 781 400 806 397 Q 851 397 963 439 Q 972 443 972 449 Q 971 455 955 458 Q 802 470 714 519 Q 693 529 673 541 L 632 566 Q 583 597 528 632 C 503 648 490 634 513 614 Q 519 608 609 533 L 646 505 Z" class="stroke7"/>
    <path d="M 647 275 Q 654 276 785 296 Q 794 295 801 306 Q 802 316 783 324 Q 755 345 654 313 Q 650 313 648 312 L 597 299 Q 498 287 459 281 Q 435 277 454 263 Q 484 242 517 250 Q 554 259 599 266 L 647 275 Z" class="stroke8"/>
    <path d="M 599 266 Q 605 62 587 44 Q 581 41 518 51 Q 506 54 507 46 Q 508 40 517 32 Q 575 -26 593 -58 Q 606 -74 621 -61 Q 657 -28 655 39 Q 652 70 647 275 L 648 312 Q 649 336 658 354 Q 665 370 650 384 Q 625 403 597 413 Q 579 419 572 412 Q 566 405 576 391 Q 595 358 597 299 L 599 266 Z" class="stroke9"/>
    <path d="M 447 202 Q 423 160 392 125 Q 370 95 382 61 Q 388 43 409 53 Q 457 83 466 144 Q 473 175 470 199 Q 466 208 461 210 Q 452 209 447 202 Z" class="stroke10"/>
    <path d="M 721 188 Q 767 145 821 80 Q 837 59 852 54 Q 861 53 869 63 Q 882 76 870 121 Q 863 163 792 193 Q 747 212 723 220 Q 713 226 711 213 Q 710 200 721 188 Z" class="stroke11"/>
    
    
    
    
    
    
    
    
    
    
    </g>
</svg>