<svg version="1.1" viewBox="0 0 1024 1024" xmlns="http://www.w3.org/2000/svg">
  
  <g transform="scale(1, -1) translate(0, -900)">
    <style type="text/css">
        .stroke1 {fill: #808080;}
        .stroke2 {fill: #808079;}
        .stroke3 {fill: #808078;}
        .stroke4 {fill: #808077;}
        .stroke5 {fill: #808076;}
        .stroke6 {fill: #808075;}
        .stroke7 {fill: #808074;}
        .stroke8 {fill: #808073;}
        .stroke9 {fill: #808072;}
        .stroke10 {fill: #808071;}
        .stroke11 {fill: #808070;}
        .stroke12 {fill: #808069;}
        .stroke13 {fill: #808068;}
        .stroke14 {fill: #808067;}
        .stroke15 {fill: #808066;}
        .stroke16 {fill: #808065;}
        .stroke17 {fill: #808064;}
        .stroke18 {fill: #808063;}
        .stroke19 {fill: #808062;}
        .stroke20 {fill: #808061;}
        text {
            font-family: Helvetica;
            font-size: 50px;
            fill: #808060;
            paint-order: stroke;
            stroke: #000000;
            stroke-width: 4px;
            stroke-linecap: butt;
            stroke-linejoin: miter;
            font-weight: 800;
        }
    </style>

    <path d="M 325 523 Q 400 548 401 549 Q 408 556 404 565 Q 397 575 368 581 Q 346 584 326 577 L 283 561 Q 184 527 99 513 Q 65 504 90 490 Q 138 469 185 485 Q 221 495 261 505 L 325 523 Z" class="stroke1"/>
    <path d="M 321 420 Q 322 469 325 523 L 326 577 Q 326 578 327 579 Q 328 673 348 738 Q 357 753 355 766 Q 348 775 294 810 Q 272 826 251 812 Q 247 808 252 792 Q 283 743 283 696 Q 283 633 283 561 L 277 416 Q 265 199 264 195 Q 257 152 244 109 Q 231 67 257 10 Q 263 -6 271 -11 Q 277 -17 284 -9 Q 311 7 312 70 Q 311 109 320 388 L 321 420 Z" class="stroke2"/>
    <path d="M 261 505 Q 216 364 66 153 Q 60 143 72 142 Q 94 142 195 273 Q 238 331 277 416 C 333 536 270 533 261 505 Z" class="stroke3"/>
    <path d="M 320 388 Q 383 325 393 324 Q 400 323 406 333 Q 410 343 405 365 Q 402 383 377 398 Q 352 410 324 420 Q 323 421 321 420 C 291 423 299 409 320 388 Z" class="stroke4"/>
    <path d="M 580 750 Q 605 731 633 707 Q 649 694 665 697 Q 677 698 681 712 Q 684 728 672 759 Q 660 787 571 800 Q 555 803 548 799 Q 544 795 546 781 Q 550 771 580 750 Z" class="stroke5"/>
    <path d="M 593 585 Q 668 601 751 616 Q 799 626 806 633 Q 815 640 811 648 Q 804 660 776 668 Q 751 674 650 643 Q 554 619 462 612 Q 426 606 451 590 Q 487 566 547 577 L 593 585 Z" class="stroke6"/>
    <path d="M 708 455 Q 627 442 540 420 Q 531 416 528 419 Q 527 422 531 429 Q 606 525 622 540 Q 632 549 627 561 Q 623 570 593 585 C 567 599 547 607 547 577 Q 547 534 542 519 Q 541 518 540 515 Q 516 454 449 407 Q 424 389 467 353 Q 477 343 489 353 Q 528 386 717 431 Q 718 432 722 432 C 751 439 738 460 708 455 Z" class="stroke7"/>
    <path d="M 722 432 Q 755 381 769 377 Q 778 376 785 385 Q 792 397 792 423 Q 792 445 765 471 Q 699 522 684 519 Q 680 516 678 505 Q 678 501 708 455 L 722 432 Z" class="stroke8"/>
    <path d="M 436 281 Q 455 254 436 170 Q 412 98 336 45 Q 324 38 335 35 Q 375 31 424 74 Q 476 116 491 188 Q 504 242 510 250 Q 517 266 504 273 Q 465 304 442 297 Q 430 294 436 281 Z" class="stroke9"/>
    <path d="M 562 296 Q 586 242 570 107 Q 564 80 589 50 Q 598 40 606 50 Q 621 77 621 167 Q 621 236 626 270 Q 632 289 614 300 Q 601 309 585 316 Q 575 320 566 315 Q 559 309 562 296 Z" class="stroke10"/>
    <path d="M 957 93 Q 947 118 935 196 Q 935 209 929 213 Q 925 217 920 202 Q 895 121 879 96 Q 872 86 852 82 Q 801 73 763 94 Q 730 115 730 175 Q 731 233 744 312 Q 748 328 737 338 Q 724 351 703 358 Q 690 362 683 358 Q 676 354 681 337 Q 694 300 691 265 Q 685 132 696 96 Q 700 77 716 61 Q 780 4 895 30 Q 896 31 899 31 Q 926 38 951 59 Q 967 72 957 93 Z" class="stroke11"/>
    
    
    
    
    
    
    
    
    
    
    </g>
</svg>