<svg version="1.1" viewBox="0 0 1024 1024" xmlns="http://www.w3.org/2000/svg">
  
  <g transform="scale(1, -1) translate(0, -900)">
    <style type="text/css">
        .stroke1 {fill: #808080;}
        .stroke2 {fill: #808079;}
        .stroke3 {fill: #808078;}
        .stroke4 {fill: #808077;}
        .stroke5 {fill: #808076;}
        .stroke6 {fill: #808075;}
        .stroke7 {fill: #808074;}
        .stroke8 {fill: #808073;}
        .stroke9 {fill: #808072;}
        .stroke10 {fill: #808071;}
        .stroke11 {fill: #808070;}
        .stroke12 {fill: #808069;}
        .stroke13 {fill: #808068;}
        .stroke14 {fill: #808067;}
        .stroke15 {fill: #808066;}
        .stroke16 {fill: #808065;}
        .stroke17 {fill: #808064;}
        .stroke18 {fill: #808063;}
        .stroke19 {fill: #808062;}
        .stroke20 {fill: #808061;}
        text {
            font-family: Helvetica;
            font-size: 50px;
            fill: #808060;
            paint-order: stroke;
            stroke: #000000;
            stroke-width: 4px;
            stroke-linecap: butt;
            stroke-linejoin: miter;
            font-weight: 800;
        }
    </style>

    <path d="M 542 747 Q 665 780 667 780 Q 674 787 671 794 Q 664 804 639 810 Q 612 814 549 791 L 499 777 Q 447 767 391 760 Q 360 754 382 740 Q 416 722 477 735 Q 487 738 500 739 L 542 747 Z" class="stroke1"/>
    <path d="M 338 656 Q 328 660 293 662 Q 281 663 279 658 Q 273 652 283 638 Q 305 611 324 563 Q 328 550 339 541 Q 358 522 362 538 Q 363 544 349 627 C 344 654 344 654 338 656 Z" class="stroke2"/>
    <path d="M 536 667 Q 659 695 683 681 Q 687 678 685 665 Q 664 580 665 577 Q 669 564 679 565 Q 689 566 697 577 Q 701 578 714 590 Q 727 632 758 655 Q 774 668 761 681 Q 748 694 707 717 Q 695 726 612 707 Q 594 707 537 694 L 500 687 Q 470 683 443 676 Q 382 663 338 656 C 308 651 319 622 349 627 Q 355 627 360 628 Q 409 644 500 661 L 536 667 Z" class="stroke3"/>
    <path d="M 536 577 Q 536 581 536 586 Q 535 628 536 667 L 537 694 Q 538 722 542 747 L 549 791 Q 552 806 561 822 Q 567 829 557 842 Q 509 879 485 870 Q 473 866 479 853 Q 497 823 499 777 L 500 739 Q 500 712 500 687 L 500 661 Q 499 648 499 635 L 494 559 Q 490 537 506 497 Q 515 484 527 491 Q 540 501 538 526 Q 537 542 537 557 L 536 577 Z" class="stroke4"/>
    <path d="M 499 635 Q 421 524 253 432 Q 240 425 248 421 Q 266 412 336 442 Q 411 476 494 559 C 515 580 517 659 499 635 Z" class="stroke5"/>
    <path d="M 537 557 Q 612 524 702 471 Q 718 461 730 460 Q 737 461 740 470 Q 746 483 727 512 Q 703 555 565 573 Q 547 576 536 577 C 506 580 510 569 537 557 Z" class="stroke6"/>
    <path d="M 535 358 Q 572 365 615 370 Q 652 377 658 381 Q 665 388 662 394 Q 656 404 634 411 Q 615 417 540 397 L 487 386 Q 441 380 388 377 Q 358 374 379 359 Q 398 347 461 347 Q 473 350 488 350 L 535 358 Z" class="stroke7"/>
    <path d="M 318 277 Q 305 281 280 283 Q 267 284 265 280 Q 259 273 269 258 Q 291 225 310 169 Q 314 153 327 142 Q 346 123 350 138 Q 353 147 338 245 C 334 273 334 273 318 277 Z" class="stroke8"/>
    <path d="M 532 284 Q 661 305 684 294 Q 688 290 684 274 Q 665 214 658 202 Q 649 187 653 172 Q 656 156 667 156 Q 680 157 688 169 Q 694 170 711 188 Q 730 234 765 257 Q 783 270 770 285 Q 755 301 713 330 Q 698 340 626 325 Q 608 325 533 312 L 489 305 Q 459 301 432 295 Q 366 283 318 277 C 288 273 311 233 338 245 Q 350 257 489 277 L 532 284 Z" class="stroke9"/>
    <path d="M 531 198 Q 531 238 532 284 L 533 312 Q 533 337 535 358 L 540 397 Q 541 407 545 415 Q 552 427 550 438 Q 544 445 499 474 Q 480 487 463 474 Q 459 470 464 458 Q 486 427 487 386 L 488 350 Q 488 329 489 305 L 489 277 Q 488 252 488 225 L 488 144 Q 488 53 473 0 Q 466 -30 485 -82 Q 491 -97 497 -99 Q 503 -105 508 -98 Q 515 -94 523 -77 Q 530 -58 530 -31 Q 529 -6 530 165 L 531 198 Z" class="stroke10"/>
    <path d="M 488 225 Q 487 224 485 221 Q 395 83 169 -43 Q 156 -52 164 -55 Q 171 -61 184 -57 Q 313 -30 488 144 C 509 165 505 250 488 225 Z" class="stroke11"/>
    <path d="M 530 165 Q 624 69 726 -18 Q 751 -40 790 -39 Q 862 -38 935 -18 Q 954 -15 956 -10 Q 957 -3 942 2 Q 891 18 833 32 Q 710 65 537 194 Q 533 197 531 198 C 506 215 509 186 530 165 Z" class="stroke12"/>
    
    
    
    
    
    
    
    
    
    
    
    </g>
</svg>