<svg version="1.1" viewBox="0 0 1024 1024" xmlns="http://www.w3.org/2000/svg">
  
  <g transform="scale(1, -1) translate(0, -900)">
    <style type="text/css">
        .stroke1 {fill: #808080;}
        .stroke2 {fill: #808079;}
        .stroke3 {fill: #808078;}
        .stroke4 {fill: #808077;}
        .stroke5 {fill: #808076;}
        .stroke6 {fill: #808075;}
        .stroke7 {fill: #808074;}
        .stroke8 {fill: #808073;}
        .stroke9 {fill: #808072;}
        .stroke10 {fill: #808071;}
        .stroke11 {fill: #808070;}
        .stroke12 {fill: #808069;}
        .stroke13 {fill: #808068;}
        .stroke14 {fill: #808067;}
        .stroke15 {fill: #808066;}
        .stroke16 {fill: #808065;}
        .stroke17 {fill: #808064;}
        .stroke18 {fill: #808063;}
        .stroke19 {fill: #808062;}
        .stroke20 {fill: #808061;}
        text {
            font-family: Helvetica;
            font-size: 50px;
            fill: #808060;
            paint-order: stroke;
            stroke: #000000;
            stroke-width: 4px;
            stroke-linecap: butt;
            stroke-linejoin: miter;
            font-weight: 800;
        }
    </style>

    <path d="M 527 690 Q 576 700 629 707 Q 689 717 698 725 Q 705 732 702 738 Q 696 748 674 755 Q 649 762 625 753 Q 573 738 521 725 L 472 715 Q 393 702 304 697 Q 276 694 295 679 Q 325 663 396 670 Q 418 674 445 676 L 527 690 Z" class="stroke1"/>
    <path d="M 521 725 Q 531 785 542 802 Q 549 812 537 825 Q 486 867 457 857 Q 444 853 449 838 Q 471 804 472 715 L 471 625 Q 470 531 462 494 Q 461 482 477 443 Q 487 427 501 435 Q 516 448 512 542 Q 511 609 515 671 L 521 725 Z" class="stroke2"/>
    <path d="M 445 676 Q 406 588 246 483 Q 230 473 244 470 Q 254 469 291 482 Q 331 494 367 520 Q 398 544 435 582 Q 456 604 471 625 C 517 688 461 710 445 676 Z" class="stroke3"/>
    <path d="M 515 671 Q 588 596 666 527 Q 688 508 722 509 Q 783 510 847 528 Q 863 531 864 536 Q 865 542 852 546 Q 684 589 609 635 Q 591 645 527 690 C 502 707 494 692 515 671 Z" class="stroke4"/>
    <path d="M 342 307 Q 384 317 435 323 Q 448 324 449 331 Q 450 343 435 350 Q 408 362 344 345 L 297 335 Q 171 311 136 309 Q 126 308 122 301 Q 119 292 132 282 Q 169 258 201 270 Q 244 286 278 294 L 342 307 Z" class="stroke5"/>
    <path d="M 340 249 Q 341 283 342 307 L 344 345 Q 347 396 345 400 Q 339 421 302 433 Q 293 437 282 434 Q 275 430 280 417 Q 295 366 297 335 L 297 230 Q 291 106 279 60 Q 266 6 298 -35 Q 308 -48 318 -36 Q 333 -12 335 93 Q 335 165 339 217 L 340 249 Z" class="stroke6"/>
    <path d="M 278 294 Q 229 171 70 37 Q 60 27 68 25 Q 75 21 86 27 Q 186 70 282 208 Q 289 221 297 230 C 356 305 290 322 278 294 Z" class="stroke7"/>
    <path d="M 339 217 Q 367 199 399 176 Q 409 169 420 170 Q 427 171 430 180 Q 431 190 424 210 Q 412 237 340 249 C 310 254 314 233 339 217 Z" class="stroke8"/>
    <path d="M 671 340 Q 704 347 840 366 Q 849 365 857 376 Q 858 386 838 396 Q 811 417 711 387 Q 695 387 673 378 L 622 368 Q 595 364 571 360 Q 534 356 492 350 Q 467 346 486 331 Q 516 310 554 317 Q 581 323 613 329 L 671 340 Z" class="stroke9"/>
    <path d="M 670 309 Q 670 324 671 340 L 673 378 Q 674 403 681 423 Q 688 436 686 446 Q 680 453 635 481 Q 616 494 599 482 Q 595 478 600 465 Q 619 437 621 409 Q 621 390 622 368 L 625 255 Q 625 108 612 56 Q 605 29 625 -26 Q 631 -41 637 -43 Q 643 -49 648 -42 Q 655 -38 663 -21 Q 670 -2 670 25 Q 669 50 670 272 L 670 309 Z" class="stroke10"/>
    <path d="M 613 329 Q 564 206 414 73 Q 404 63 412 61 Q 430 55 495 102 Q 552 144 620 247 Q 621 251 625 255 C 682 345 624 357 613 329 Z" class="stroke11"/>
    <path d="M 670 272 Q 734 181 815 83 Q 833 65 860 67 Q 953 71 982 78 Q 991 81 992 85 Q 993 89 980 96 Q 859 145 790 199 Q 733 247 670 309 C 649 330 653 296 670 272 Z" class="stroke12"/>
    
    
    
    
    
    
    
    
    
    
    
    </g>
</svg>