<svg version="1.1" viewBox="0 0 1024 1024" xmlns="http://www.w3.org/2000/svg">
  
  <g transform="scale(1, -1) translate(0, -900)">
    <style type="text/css">
        .stroke1 {fill: #808080;}
        .stroke2 {fill: #808079;}
        .stroke3 {fill: #808078;}
        .stroke4 {fill: #808077;}
        .stroke5 {fill: #808076;}
        .stroke6 {fill: #808075;}
        .stroke7 {fill: #808074;}
        .stroke8 {fill: #808073;}
        .stroke9 {fill: #808072;}
        .stroke10 {fill: #808071;}
        .stroke11 {fill: #808070;}
        .stroke12 {fill: #808069;}
        .stroke13 {fill: #808068;}
        .stroke14 {fill: #808067;}
        .stroke15 {fill: #808066;}
        .stroke16 {fill: #808065;}
        .stroke17 {fill: #808064;}
        .stroke18 {fill: #808063;}
        .stroke19 {fill: #808062;}
        .stroke20 {fill: #808061;}
        text {
            font-family: Helvetica;
            font-size: 50px;
            fill: #808060;
            paint-order: stroke;
            stroke: #000000;
            stroke-width: 4px;
            stroke-linecap: butt;
            stroke-linejoin: miter;
            font-weight: 800;
        }
    </style>

    <path d="M 301 512 Q 322 519 346 524 Q 380 534 385 539 Q 392 548 388 556 Q 381 568 350 573 Q 325 577 302 569 L 257 551 Q 158 524 108 515 Q 71 506 98 491 Q 140 467 202 487 Q 218 493 241 496 L 301 512 Z" class="stroke1"/>
    <path d="M 299 424 Q 299 466 301 512 L 302 569 Q 302 678 322 752 Q 338 776 311 796 Q 295 808 266 825 Q 242 843 221 827 Q 217 821 222 806 Q 255 757 256 708 Q 257 635 258 553 Q 257 553 257 551 L 253 407 Q 244 197 241 173 Q 217 68 221 55 Q 221 45 239 2 Q 246 -16 254 -19 Q 261 -26 268 -17 Q 275 -13 286 8 Q 296 33 295 65 Q 294 105 299 396 L 299 424 Z" class="stroke2"/>
    <path d="M 241 496 Q 192 366 46 173 Q 40 163 52 162 Q 74 162 173 281 Q 215 333 253 407 C 313 522 252 524 241 496 Z" class="stroke3"/>
    <path d="M 299 396 Q 348 342 367 341 Q 379 340 384 356 Q 385 368 377 385 Q 367 400 346 407 Q 313 422 299 424 C 269 429 279 418 299 396 Z" class="stroke4"/>
    <path d="M 647 628 Q 677 637 797 650 Q 807 649 817 662 Q 818 674 795 684 Q 762 708 667 677 Q 655 676 643 671 L 598 662 Q 546 653 440 641 Q 412 637 434 620 Q 465 593 495 601 Q 526 608 565 614 L 647 628 Z" class="stroke5"/>
    <path d="M 643 671 Q 646 743 667 782 Q 673 792 662 805 Q 610 847 581 837 Q 568 833 574 818 Q 598 781 598 662 L 598 579 Q 597 500 589 466 Q 588 451 594 435 Q 600 426 605 414 Q 615 399 629 407 Q 639 416 640 493 Q 636 529 638 600 L 643 671 Z" class="stroke6"/>
    <path d="M 565 614 Q 541 533 393 423 Q 378 411 392 410 Q 419 407 499 462 Q 550 514 562 527 Q 583 555 598 579 C 629 627 580 658 565 614 Z" class="stroke7"/>
    <path d="M 638 600 Q 699 522 778 440 Q 794 425 817 428 Q 899 435 924 443 Q 931 444 932 449 Q 932 453 921 458 Q 806 497 736 552 Q 693 586 647 628 C 625 648 615 630 638 600 Z" class="stroke8"/>
    <path d="M 483 354 Q 473 358 458 361 Q 446 365 443 360 Q 436 354 444 339 Q 471 276 483 175 Q 484 144 501 123 Q 517 102 523 117 Q 526 127 527 140 L 526 172 Q 525 178 525 183 Q 521 213 518 236 L 514 260 Q 508 306 508 325 C 507 345 507 345 483 354 Z" class="stroke9"/>
    <path d="M 689 162 Q 705 137 721 130 Q 731 123 745 142 Q 758 164 783 284 Q 792 312 813 336 Q 825 348 814 361 Q 801 376 760 400 Q 745 407 675 392 Q 666 392 483 354 C 454 348 479 317 508 325 Q 574 343 691 360 Q 716 364 724 355 Q 736 342 734 328 Q 716 216 707 198 Q 703 189 695 185 C 682 172 682 172 689 162 Z" class="stroke10"/>
    <path d="M 518 236 Q 522 236 527 236 Q 605 249 663 257 Q 685 261 677 273 Q 667 286 643 291 Q 610 294 514 260 C 486 250 488 236 518 236 Z" class="stroke11"/>
    <path d="M 527 140 Q 533 140 540 141 Q 588 153 689 162 C 719 165 719 167 695 185 Q 665 210 580 184 Q 552 178 526 172 C 497 165 497 139 527 140 Z" class="stroke12"/>
    <path d="M 384 57 Q 365 56 379 39 Q 392 26 409 19 Q 430 15 445 18 Q 577 51 870 51 Q 886 51 902 50 Q 921 49 926 58 Q 932 68 916 82 Q 865 121 830 114 Q 715 92 384 57 Z" class="stroke13"/>
    
    
    
    
    
    
    
    
    
    
    
    
    </g>
</svg>