<svg version="1.1" viewBox="0 0 1024 1024" xmlns="http://www.w3.org/2000/svg">
  
  <g transform="scale(1, -1) translate(0, -900)">
    <style type="text/css">
        .stroke1 {fill: #808080;}
        .stroke2 {fill: #808079;}
        .stroke3 {fill: #808078;}
        .stroke4 {fill: #808077;}
        .stroke5 {fill: #808076;}
        .stroke6 {fill: #808075;}
        .stroke7 {fill: #808074;}
        .stroke8 {fill: #808073;}
        .stroke9 {fill: #808072;}
        .stroke10 {fill: #808071;}
        .stroke11 {fill: #808070;}
        .stroke12 {fill: #808069;}
        .stroke13 {fill: #808068;}
        .stroke14 {fill: #808067;}
        .stroke15 {fill: #808066;}
        .stroke16 {fill: #808065;}
        .stroke17 {fill: #808064;}
        .stroke18 {fill: #808063;}
        .stroke19 {fill: #808062;}
        .stroke20 {fill: #808061;}
        text {
            font-family: Helvetica;
            font-size: 50px;
            fill: #808060;
            paint-order: stroke;
            stroke: #000000;
            stroke-width: 4px;
            stroke-linecap: butt;
            stroke-linejoin: miter;
            font-weight: 800;
        }
    </style>

    <path d="M 324 523 Q 349 532 375 538 Q 412 550 417 555 Q 426 564 420 572 Q 413 584 382 589 Q 352 593 325 581 L 279 562 Q 257 555 235 547 Q 186 532 127 523 Q 90 514 118 499 Q 134 490 158 487 Q 188 484 219 495 Q 240 501 263 507 L 324 523 Z" class="stroke1"/>
    <path d="M 316 65 Q 315 104 320 375 L 321 402 Q 322 457 324 523 L 325 581 Q 325 582 326 585 Q 327 682 346 748 Q 355 763 352 776 Q 345 786 290 821 Q 266 839 245 823 Q 241 819 246 802 Q 279 753 279 705 Q 279 638 279 562 L 275 419 Q 274 340 271 254 Q 267 176 245 105 Q 236 71 243 50 Q 250 26 259 2 Q 266 -16 274 -19 Q 280 -26 288 -17 Q 295 -13 306 8 Q 316 33 316 65 Z" class="stroke2"/>
    <path d="M 263 507 Q 238 437 201 374 Q 159 301 58 169 Q 52 159 64 158 Q 70 158 79 166 Q 131 212 192 285 Q 235 340 275 419 C 334 533 273 535 263 507 Z" class="stroke3"/>
    <path d="M 320 375 Q 335 359 351 343 Q 364 330 377 330 Q 387 329 392 343 Q 393 353 386 369 Q 377 382 359 388 Q 334 398 321 402 C 292 411 299 397 320 375 Z" class="stroke4"/>
    <path d="M 606 664 Q 690 680 779 694 Q 834 704 842 711 Q 851 718 847 728 Q 840 740 810 749 Q 780 756 749 745 Q 686 726 620 712 Q 545 699 459 693 Q 422 689 448 670 Q 464 660 486 655 Q 514 648 547 655 Q 554 656 562 657 L 606 664 Z" class="stroke5"/>
    <path d="M 562 657 Q 563 644 556 618 Q 547 573 517 536 Q 507 524 510 517 Q 514 508 534 495 Q 543 489 556 497 Q 601 524 619 528 Q 635 531 642 525 Q 651 518 649 477 Q 637 303 621 242 Q 617 224 608 218 Q 604 212 583 215 Q 564 222 541 232 Q 519 239 536 219 Q 575 173 588 147 Q 594 134 601 136 Q 620 137 641 161 Q 663 186 668 211 Q 678 272 693 448 Q 696 491 717 518 Q 732 534 724 545 Q 714 558 685 568 Q 669 575 648 566 Q 626 556 598 548 Q 588 544 585 549 Q 582 552 585 559 Q 603 608 617 626 Q 626 633 621 644 Q 617 654 606 664 C 588 688 565 687 562 657 Z" class="stroke6"/>
    <path d="M 402 425 Q 421 382 433 309 Q 434 288 447 273 Q 460 257 465 268 Q 469 277 469 291 L 466 319 Q 456 389 455 411 C 454 431 454 431 448 434 Q 438 440 413 444 Q 403 447 400 443 Q 396 439 402 425 Z" class="stroke7"/>
    <path d="M 564 336 Q 579 394 597 412 Q 613 433 596 444 Q 580 453 560 466 Q 545 473 530 465 Q 514 453 490 446 Q 471 440 448 434 C 419 426 426 403 455 411 Q 459 412 466 414 Q 494 421 517 426 Q 533 429 536 423 Q 542 419 536 392 Q 530 367 524 339 C 518 310 556 307 564 336 Z" class="stroke8"/>
    <path d="M 469 291 Q 479 290 489 293 Q 517 300 576 309 Q 585 310 585 318 Q 585 325 564 336 L 524 339 Q 520 339 517 337 Q 489 327 466 319 C 438 309 439 293 469 291 Z" class="stroke9"/>
    <path d="M 766 337 Q 742 301 699 253 Q 690 243 701 243 Q 708 244 741 267 Q 760 280 782 304 Q 786 308 790 313 L 817 348 L 823 356 Q 844 387 866 425 Q 879 450 905 475 Q 915 485 911 492 Q 908 499 857 514 Q 841 520 827 508 Q 814 499 793 492 Q 759 482 726 475 Q 711 474 722 462 Q 740 449 771 456 Q 786 460 797 465 Q 816 472 823 464 Q 827 457 816 435 Q 803 402 784 367 L 766 337 Z" class="stroke10"/>
    <path d="M 790 313 Q 821 283 856 246 Q 869 230 880 227 Q 887 226 893 234 Q 902 244 892 278 Q 888 294 875 308 Q 857 326 817 348 L 784 367 Q 747 389 723 399 Q 716 403 714 394 Q 714 384 722 376 Q 743 358 766 337 L 790 313 Z" class="stroke11"/>
    <path d="M 378 99 Q 356 98 372 79 Q 385 63 405 57 Q 427 50 445 54 Q 523 70 609 75 Q 702 84 855 76 Q 876 75 894 73 Q 916 72 921 81 Q 928 94 911 109 Q 881 133 858 143 Q 839 150 816 146 Q 743 133 619 120 Q 510 110 378 99 Z" class="stroke12"/>
    
    
    
    
    
    
    
    
    
    
    
    </g>
</svg>