<svg version="1.1" viewBox="0 0 1024 1024" xmlns="http://www.w3.org/2000/svg">
  
  <g transform="scale(1, -1) translate(0, -900)">
    <style type="text/css">
        .stroke1 {fill: #808080;}
        .stroke2 {fill: #808079;}
        .stroke3 {fill: #808078;}
        .stroke4 {fill: #808077;}
        .stroke5 {fill: #808076;}
        .stroke6 {fill: #808075;}
        .stroke7 {fill: #808074;}
        .stroke8 {fill: #808073;}
        .stroke9 {fill: #808072;}
        .stroke10 {fill: #808071;}
        .stroke11 {fill: #808070;}
        .stroke12 {fill: #808069;}
        .stroke13 {fill: #808068;}
        .stroke14 {fill: #808067;}
        .stroke15 {fill: #808066;}
        .stroke16 {fill: #808065;}
        .stroke17 {fill: #808064;}
        .stroke18 {fill: #808063;}
        .stroke19 {fill: #808062;}
        .stroke20 {fill: #808061;}
        text {
            font-family: Helvetica;
            font-size: 50px;
            fill: #808060;
            paint-order: stroke;
            stroke: #000000;
            stroke-width: 4px;
            stroke-linecap: butt;
            stroke-linejoin: miter;
            font-weight: 800;
        }
    </style>

    <path d="M 303 540 Q 381 570 382 571 Q 391 581 385 588 Q 376 600 346 603 Q 324 606 305 598 L 260 579 Q 175 545 109 531 Q 73 521 102 507 Q 141 489 209 511 Q 221 517 240 520 L 303 540 Z" class="stroke1"/>
    <path d="M 299 428 Q 300 480 303 540 L 305 598 Q 309 674 325 726 Q 334 741 331 754 Q 324 764 270 797 Q 248 815 227 799 Q 223 795 228 779 Q 259 733 260 684 Q 260 635 260 579 L 255 416 Q 243 185 241 176 Q 217 62 219 56 Q 219 41 237 2 Q 243 -16 251 -19 Q 257 -25 264 -17 Q 271 -13 282 7 Q 292 32 291 62 Q 291 102 299 398 L 299 428 Z" class="stroke2"/>
    <path d="M 240 520 Q 201 390 49 170 Q 43 160 56 159 Q 63 158 72 168 Q 189 276 255 416 C 322 555 249 549 240 520 Z" class="stroke3"/>
    <path d="M 299 398 Q 351 341 378 343 Q 391 343 395 362 Q 396 375 385 393 Q 363 421 299 428 C 269 431 279 420 299 398 Z" class="stroke4"/>
    <path d="M 640 601 Q 647 652 675 787 Q 679 797 662 810 Q 632 829 611 833 Q 598 837 590 830 Q 583 823 589 810 Q 602 791 603 778 Q 607 693 602 593 C 601 563 636 571 640 601 Z" class="stroke5"/>
    <path d="M 770 621 Q 700 614 640 601 L 602 593 Q 551 583 507 569 Q 492 566 498 583 Q 514 661 508 673 Q 495 691 475 705 Q 465 711 455 710 Q 445 707 451 689 Q 478 605 430 555 Q 412 540 419 527 Q 429 512 444 502 Q 456 495 465 502 Q 495 533 672 574 Q 742 590 763 584 C 793 581 800 624 770 621 Z" class="stroke6"/>
    <path d="M 763 584 Q 766 560 773 542 Q 780 526 793 535 Q 818 556 832 638 Q 851 696 859 704 Q 869 717 860 732 Q 844 750 814 771 Q 802 778 790 775 Q 783 771 783 758 Q 792 743 789 678 Q 782 644 770 621 L 763 584 Z" class="stroke7"/>
    <path d="M 500 458 Q 463 451 490 435 Q 535 411 591 428 Q 663 446 737 465 Q 771 474 776 479 Q 785 488 780 496 Q 773 508 742 514 Q 712 518 623 485 Q 533 464 500 458 Z" class="stroke8"/>
    <path d="M 510 369 Q 500 375 465 380 Q 453 381 451 377 Q 445 371 454 356 Q 479 311 498 235 Q 502 213 516 198 Q 534 179 538 193 Q 541 203 540 218 L 535 252 Q 523 313 519 339 C 515 367 515 367 510 369 Z" class="stroke9"/>
    <path d="M 763 280 Q 784 334 811 353 Q 827 369 813 386 Q 798 399 750 422 Q 734 429 714 421 Q 635 388 510 369 C 480 364 490 332 519 339 Q 552 348 699 376 Q 715 379 725 372 Q 734 362 716 286 C 709 257 752 252 763 280 Z" class="stroke10"/>
    <path d="M 737 242 Q 755 245 775 246 Q 785 247 787 255 Q 787 264 763 280 L 716 286 Q 713 287 711 286 Q 614 262 535 252 C 505 248 510 217 540 218 Q 546 218 555 219 Q 604 229 697 239 L 737 242 Z" class="stroke11"/>
    <path d="M 472 145 Q 505 94 535 75 Q 547 71 556 81 Q 562 91 562 105 Q 556 141 487 175 Q 474 181 466 179 Q 460 178 461 168 Q 461 158 472 145 Z" class="stroke12"/>
    <path d="M 695 78 Q 701 84 741 145 Q 751 161 767 180 Q 783 192 775 204 Q 766 222 737 242 C 713 259 688 268 697 239 Q 697 238 699 233 Q 708 200 659 86 Q 655 79 652 71 C 641 43 676 55 695 78 Z" class="stroke13"/>
    <path d="M 652 71 Q 633 70 612 66 Q 509 53 385 38 Q 363 37 379 19 Q 392 6 411 -1 Q 432 -5 448 -2 Q 581 34 844 33 Q 857 33 874 32 Q 893 32 899 40 Q 905 52 888 66 Q 831 109 755 89 Q 727 85 695 78 L 652 71 Z" class="stroke14"/>
    
    
    
    
    
    
    
    
    
    
    
    
    
    </g>
</svg>