<svg version="1.1" viewBox="0 0 1024 1024" xmlns="http://www.w3.org/2000/svg">
  
  <g transform="scale(1, -1) translate(0, -900)">
    <style type="text/css">
        .stroke1 {fill: #808080;}
        .stroke2 {fill: #808079;}
        .stroke3 {fill: #808078;}
        .stroke4 {fill: #808077;}
        .stroke5 {fill: #808076;}
        .stroke6 {fill: #808075;}
        .stroke7 {fill: #808074;}
        .stroke8 {fill: #808073;}
        .stroke9 {fill: #808072;}
        .stroke10 {fill: #808071;}
        .stroke11 {fill: #808070;}
        .stroke12 {fill: #808069;}
        .stroke13 {fill: #808068;}
        .stroke14 {fill: #808067;}
        .stroke15 {fill: #808066;}
        .stroke16 {fill: #808065;}
        .stroke17 {fill: #808064;}
        .stroke18 {fill: #808063;}
        .stroke19 {fill: #808062;}
        .stroke20 {fill: #808061;}
        text {
            font-family: Helvetica;
            font-size: 50px;
            fill: #808060;
            paint-order: stroke;
            stroke: #000000;
            stroke-width: 4px;
            stroke-linecap: butt;
            stroke-linejoin: miter;
            font-weight: 800;
        }
    </style>

    <path d="M 286 535 Q 361 559 365 561 Q 372 568 368 577 Q 361 587 331 593 Q 307 597 286 588 L 244 572 Q 157 547 103 537 Q 69 528 94 514 Q 139 493 191 511 Q 204 515 224 519 L 286 535 Z" class="stroke1"/>
    <path d="M 284 413 Q 284 470 286 535 L 286 588 Q 286 702 306 770 Q 321 795 286 818 Q 271 828 250 841 Q 228 857 207 842 Q 203 838 209 822 Q 242 773 243 724 Q 243 654 244 572 L 241 433 Q 238 232 228 175 Q 209 79 209 74 Q 209 67 228 18 Q 235 0 243 -3 Q 249 -10 256 -1 Q 263 3 273 23 Q 283 48 282 78 Q 281 117 284 384 L 284 413 Z" class="stroke2"/>
    <path d="M 224 519 Q 181 384 37 177 Q 33 167 44 166 Q 65 166 164 296 Q 206 353 241 433 C 293 549 233 547 224 519 Z" class="stroke3"/>
    <path d="M 284 384 Q 285 383 289 380 Q 310 362 331 340 Q 340 331 351 332 Q 358 332 362 341 Q 365 351 360 371 Q 354 392 287 413 Q 286 414 284 413 C 254 415 261 403 284 384 Z" class="stroke4"/>
    <path d="M 565 728 Q 564 756 562 777 Q 563 795 546 800 Q 510 818 492 810 Q 476 803 489 785 Q 513 755 523 719 L 530 690 Q 539 647 552 630 Q 564 621 568 631 Q 571 644 567 703 L 565 728 Z" class="stroke5"/>
    <path d="M 567 703 Q 603 713 600 727 Q 599 731 587 733 Q 575 732 565 728 L 523 719 Q 483 712 434 701 Q 407 701 393 698 Q 383 698 383 694 Q 382 687 387 680 Q 400 670 423 661 Q 439 654 452 660 Q 489 675 530 690 L 567 703 Z" class="stroke6"/>
    <path d="M 685 733 Q 669 675 670 661 Q 671 649 685 656 Q 700 668 722 719 L 739 755 Q 748 782 768 812 Q 781 825 771 836 Q 761 852 728 868 Q 713 877 697 868 Q 687 864 694 852 Q 701 836 700 815 Q 696 785 688 746 L 685 733 Z" class="stroke7"/>
    <path d="M 688 746 Q 667 745 684 734 L 685 733 C 702 720 702 720 722 719 Q 738 718 760 722 Q 820 732 884 726 Q 896 725 899 732 Q 903 741 893 752 Q 856 785 767 761 Q 754 760 739 755 L 688 746 Z" class="stroke8"/>
    <path d="M 622 570 Q 668 583 718 593 Q 758 603 764 609 Q 771 616 767 623 Q 760 632 737 637 Q 713 641 689 631 Q 644 615 596 600 Q 541 587 478 578 Q 448 572 470 560 Q 503 542 551 554 Q 557 557 568 557 L 622 570 Z" class="stroke9"/>
    <path d="M 782 462 Q 831 466 890 468 Q 951 471 956 478 Q 960 488 946 500 Q 895 534 840 516 Q 822 513 804 508 L 747 495 Q 645 480 641 475 L 590 465 Q 544 461 495 450 L 454 444 Q 414 440 374 431 Q 356 430 370 415 Q 383 403 398 399 Q 416 395 430 400 Q 446 406 464 410 L 499 419 Q 539 431 590 438 L 639 446 Q 682 455 736 458 L 782 462 Z" class="stroke10"/>
    <path d="M 495 450 Q 491 472 490 490 Q 491 506 474 510 Q 441 525 423 517 Q 410 510 422 494 Q 443 472 454 444 L 464 410 Q 471 388 475 364 Q 481 348 492 337 Q 504 330 507 339 Q 511 357 499 419 L 495 450 Z" class="stroke11"/>
    <path d="M 733 359 Q 737 369 744 379 Q 763 416 782 462 L 804 508 Q 810 518 817 528 Q 830 540 821 549 Q 811 564 782 580 Q 769 589 753 582 Q 744 578 750 567 Q 756 545 747 495 L 736 458 Q 726 421 709 377 Q 703 364 702 351 C 698 321 721 332 733 359 Z" class="stroke12"/>
    <path d="M 637 302 Q 697 315 835 330 Q 845 329 853 340 Q 854 350 834 360 Q 807 381 736 360 Q 735 360 733 359 L 702 351 Q 677 347 654 341 Q 644 340 637 337 L 589 328 Q 534 322 408 306 Q 383 303 402 287 Q 430 263 457 269 Q 515 282 588 294 L 637 302 Z" class="stroke13"/>
    <path d="M 636 188 Q 724 200 859 201 Q 914 198 923 209 Q 927 219 913 231 Q 868 267 832 258 Q 759 242 636 221 L 586 214 Q 483 201 367 184 Q 348 183 362 167 Q 375 154 391 150 Q 410 146 424 150 Q 500 171 585 180 L 636 188 Z" class="stroke14"/>
    <path d="M 585 180 Q 585 -48 595 -67 Q 595 -70 598 -73 Q 604 -80 611 -78 Q 627 -68 631 -13 Q 640 75 636 188 L 636 221 Q 636 255 637 302 L 637 337 Q 637 386 639 446 L 641 475 Q 647 520 651 533 Q 654 549 640 559 Q 630 566 622 570 C 596 586 555 584 568 557 Q 589 521 590 465 L 590 438 Q 589 389 589 328 L 588 294 Q 587 257 586 214 L 585 180 Z" class="stroke15"/>
    
    
    
    
    
    
    
    
    
    
    
    
    
    
    </g>
</svg>