<svg version="1.1" viewBox="0 0 1024 1024" xmlns="http://www.w3.org/2000/svg">
  
  <g transform="scale(1, -1) translate(0, -900)">
    <style type="text/css">
        .stroke1 {fill: #808080;}
        .stroke2 {fill: #808079;}
        .stroke3 {fill: #808078;}
        .stroke4 {fill: #808077;}
        .stroke5 {fill: #808076;}
        .stroke6 {fill: #808075;}
        .stroke7 {fill: #808074;}
        .stroke8 {fill: #808073;}
        .stroke9 {fill: #808072;}
        .stroke10 {fill: #808071;}
        .stroke11 {fill: #808070;}
        .stroke12 {fill: #808069;}
        .stroke13 {fill: #808068;}
        .stroke14 {fill: #808067;}
        .stroke15 {fill: #808066;}
        .stroke16 {fill: #808065;}
        .stroke17 {fill: #808064;}
        .stroke18 {fill: #808063;}
        .stroke19 {fill: #808062;}
        .stroke20 {fill: #808061;}
        text {
            font-family: Helvetica;
            font-size: 50px;
            fill: #808060;
            paint-order: stroke;
            stroke: #000000;
            stroke-width: 4px;
            stroke-linecap: butt;
            stroke-linejoin: miter;
            font-weight: 800;
        }
    </style>

    <path d="M 301 518 Q 362 536 369 542 Q 376 549 372 557 Q 365 567 337 573 Q 318 574 303 570 L 258 553 Q 177 526 110 515 Q 77 508 102 493 Q 141 475 195 491 Q 214 498 240 503 L 301 518 Z" class="stroke1"/>
    <path d="M 299 458 Q 299 488 301 518 L 303 570 Q 306 661 324 722 Q 333 737 330 750 Q 324 759 270 794 Q 248 810 227 796 Q 223 792 228 776 Q 259 730 258 683 Q 258 622 258 553 L 252 422 Q 240 196 238 187 Q 214 73 215 71 Q 215 59 233 14 Q 239 -2 247 -7 Q 253 -13 260 -5 Q 287 11 288 74 Q 288 114 297 426 L 299 458 Z" class="stroke2"/>
    <path d="M 240 503 Q 195 374 62 195 Q 58 186 68 186 Q 72 185 81 193 Q 190 292 252 422 C 304 529 250 531 240 503 Z" class="stroke3"/>
    <path d="M 297 426 Q 339 384 355 385 Q 367 384 372 400 Q 373 412 363 429 Q 351 447 299 458 C 270 464 276 447 297 426 Z" class="stroke4"/>
    <path d="M 560 738 Q 581 772 605 789 Q 612 796 611 807 Q 608 817 588 836 Q 569 852 555 853 Q 540 853 545 836 Q 554 812 502 733 Q 477 699 443 659 Q 434 652 432 647 Q 429 640 440 640 Q 464 643 548 726 L 560 738 Z" class="stroke5"/>
    <path d="M 638 632 Q 695 690 745 716 Q 763 725 752 738 Q 740 750 706 772 Q 696 775 611 749 Q 575 740 560 738 C 537 734 537 734 548 726 Q 557 716 578 714 Q 587 713 647 725 Q 654 726 657 724 Q 660 723 655 715 Q 630 672 604 627 C 589 601 617 611 638 632 Z" class="stroke6"/>
    <path d="M 414 602 Q 393 608 388 601 Q 384 595 391 581 Q 415 539 432 469 Q 436 447 449 434 Q 465 415 470 429 Q 471 436 472 446 L 470 465 Q 469 469 469 475 Q 457 539 453 565 C 449 593 443 595 414 602 Z" class="stroke7"/>
    <path d="M 703 472 L 704 471 Q 708 456 719 456 Q 734 457 764 501 Q 782 547 816 571 Q 834 584 820 600 Q 805 616 761 643 Q 745 653 728 647 Q 700 640 667 636 Q 652 635 638 632 L 604 627 Q 562 623 527 613 Q 446 598 414 602 C 384 603 424 556 453 565 Q 493 578 566 590 L 605 596 Q 710 617 732 605 Q 738 601 733 583 Q 715 516 708 502 Q 707 502 707 501 C 698 480 698 480 703 472 Z" class="stroke8"/>
    <path d="M 574 455 Q 643 465 703 472 C 733 476 736 493 707 501 Q 686 511 590 486 L 542 477 Q 505 473 470 465 C 441 459 442 447 472 446 Q 481 445 527 448 L 574 455 Z" class="stroke9"/>
    <path d="M 553 420 Q 563 436 574 455 L 590 486 Q 597 505 606 525 Q 613 544 625 564 Q 631 571 626 579 Q 622 586 605 596 C 580 612 564 620 566 590 Q 570 553 557 513 Q 551 497 542 477 L 527 448 Q 526 448 526 446 Q 484 379 391 302 Q 387 296 391 294 Q 416 288 490 349 Q 518 371 539 398 L 553 420 Z" class="stroke10"/>
    <path d="M 659 298 Q 628 377 553 420 C 527 436 516 417 539 398 Q 551 389 563 376 L 598 333 Q 605 321 612 306 L 631 243 Q 640 176 616 92 Q 606 55 594 52 Q 584 48 520 59 Q 489 65 488 60 Q 487 53 498 41 Q 555 -5 578 -37 Q 591 -55 605 -51 Q 623 -48 640 -24 Q 685 55 681 186 Q 678 213 674 240 L 659 298 Z" class="stroke11"/>
    <path d="M 563 376 Q 562 375 561 370 Q 545 304 372 185 Q 356 175 375 176 Q 444 182 577 313 Q 587 325 598 333 C 621 352 572 405 563 376 Z" class="stroke12"/>
    <path d="M 612 306 Q 548 186 368 69 Q 355 59 364 57 Q 382 48 454 85 Q 527 122 631 243 C 651 266 627 332 612 306 Z" class="stroke13"/>
    <path d="M 672 283 Q 796 364 815 370 Q 834 377 826 394 Q 816 410 792 425 Q 771 438 759 436 Q 747 435 751 423 Q 752 396 701 342 Q 680 321 659 298 C 639 276 647 267 672 283 Z" class="stroke14"/>
    <path d="M 674 240 Q 725 177 780 117 Q 799 96 834 94 Q 895 90 960 100 Q 976 101 978 105 Q 979 111 967 117 Q 786 184 702 256 Q 693 265 672 283 C 649 303 621 305 674 240 Z" class="stroke15"/>
    
    
    
    
    
    
    
    
    
    
    
    
    
    
    </g>
</svg>