<svg version="1.1" viewBox="0 0 1024 1024" xmlns="http://www.w3.org/2000/svg">
  
  <g transform="scale(1, -1) translate(0, -900)">
    <style type="text/css">
        .stroke1 {fill: #808080;}
        .stroke2 {fill: #808079;}
        .stroke3 {fill: #808078;}
        .stroke4 {fill: #808077;}
        .stroke5 {fill: #808076;}
        .stroke6 {fill: #808075;}
        .stroke7 {fill: #808074;}
        .stroke8 {fill: #808073;}
        .stroke9 {fill: #808072;}
        .stroke10 {fill: #808071;}
        .stroke11 {fill: #808070;}
        .stroke12 {fill: #808069;}
        .stroke13 {fill: #808068;}
        .stroke14 {fill: #808067;}
        .stroke15 {fill: #808066;}
        .stroke16 {fill: #808065;}
        .stroke17 {fill: #808064;}
        .stroke18 {fill: #808063;}
        .stroke19 {fill: #808062;}
        .stroke20 {fill: #808061;}
        text {
            font-family: Helvetica;
            font-size: 50px;
            fill: #808060;
            paint-order: stroke;
            stroke: #000000;
            stroke-width: 4px;
            stroke-linecap: butt;
            stroke-linejoin: miter;
            font-weight: 800;
        }
    </style>

    <path d="M 290 542 Q 362 564 369 570 Q 376 577 372 586 Q 365 596 337 600 Q 313 603 292 594 L 250 576 Q 157 546 105 535 Q 72 526 98 513 Q 134 495 204 518 Q 217 522 232 524 L 290 542 Z" class="stroke1"/>
    <path d="M 246 433 Q 234 181 233 179 Q 209 59 210 58 Q 210 43 229 2 Q 235 -16 243 -19 Q 249 -26 256 -17 Q 263 -13 274 7 Q 284 32 283 62 Q 282 104 287 426 L 288 456 Q 288 498 290 542 L 292 594 Q 293 687 313 750 Q 322 765 319 778 Q 312 788 258 821 Q 236 837 215 823 Q 211 819 216 803 Q 249 754 249 705 Q 249 644 250 576 L 246 433 Z" class="stroke2"/>
    <path d="M 232 524 Q 210 454 179 389 Q 142 313 49 172 Q 45 162 55 162 Q 76 162 175 301 Q 212 356 246 433 C 301 556 241 553 232 524 Z" class="stroke3"/>
    <path d="M 287 426 Q 342 375 363 375 Q 376 376 379 393 Q 379 405 369 423 Q 357 438 335 443 Q 307 453 288 456 C 258 461 265 446 287 426 Z" class="stroke4"/>
    <path d="M 517 788 Q 504 792 473 794 Q 461 795 459 791 Q 453 784 463 770 Q 490 730 512 662 Q 518 641 532 629 Q 551 610 554 626 Q 555 633 555 643 L 550 672 Q 534 736 529 759 C 523 787 523 787 517 788 Z" class="stroke5"/>
    <path d="M 736 687 Q 767 744 791 753 Q 807 769 796 787 Q 781 800 734 827 Q 716 836 654 814 Q 582 798 517 788 C 487 783 500 752 529 759 Q 535 762 681 786 Q 699 790 706 782 Q 712 775 709 763 Q 699 726 686 697 C 674 669 721 661 736 687 Z" class="stroke6"/>
    <path d="M 555 643 Q 562 643 569 644 Q 623 654 741 662 Q 750 663 751 670 Q 751 676 736 687 C 716 702 716 702 686 697 L 685 697 Q 610 681 550 672 C 520 667 525 642 555 643 Z" class="stroke7"/>
    <path d="M 411 541 Q 402 545 380 546 Q 370 547 368 544 Q 364 538 371 527 Q 392 496 408 442 Q 412 426 423 416 Q 438 400 441 413 Q 442 417 442 423 L 439 449 Q 427 504 425 520 C 423 537 423 537 411 541 Z" class="stroke8"/>
    <path d="M 551 468 Q 564 507 579 519 Q 598 538 580 550 Q 565 560 544 574 Q 532 583 483 560 Q 449 550 411 541 C 382 534 397 510 425 520 Q 424 521 426 521 Q 463 530 493 536 Q 515 540 520 532 Q 521 531 509 469 C 503 440 541 440 551 468 Z" class="stroke9"/>
    <path d="M 442 423 Q 469 432 561 445 Q 568 446 569 453 Q 569 459 551 468 C 534 477 534 477 509 469 Q 470 457 439 449 C 410 441 413 414 442 423 Z" class="stroke10"/>
    <path d="M 643 582 Q 633 586 616 587 Q 606 588 604 585 Q 600 581 607 568 Q 626 535 641 480 Q 644 464 655 453 Q 670 437 673 449 Q 674 453 675 461 L 672 487 Q 662 541 661 558 C 659 576 659 576 643 582 Z" class="stroke11"/>
    <path d="M 807 498 Q 823 543 839 555 Q 860 577 840 590 Q 824 600 800 617 Q 782 629 739 604 Q 688 589 643 582 C 613 577 634 546 661 558 Q 667 564 742 574 Q 766 578 771 569 Q 775 566 770 545 Q 766 529 761 507 C 754 478 797 470 807 498 Z" class="stroke12"/>
    <path d="M 675 461 Q 681 460 690 462 Q 727 469 810 476 Q 819 477 820 484 Q 820 488 807 498 C 791 510 791 510 761 507 Q 760 508 758 507 Q 712 494 672 487 C 642 482 645 463 675 461 Z" class="stroke13"/>
    <path d="M 633 320 Q 721 333 859 334 Q 917 334 924 343 Q 928 353 913 367 Q 865 401 829 393 Q 757 377 636 356 L 583 347 Q 486 334 375 317 Q 356 314 370 299 Q 383 286 401 282 Q 420 278 435 282 Q 490 300 557 309 L 633 320 Z" class="stroke14"/>
    <path d="M 632 315 Q 632 318 633 320 L 636 356 Q 636 389 634 391 Q 612 410 593 420 Q 581 424 572 417 Q 566 413 573 404 Q 582 389 583 347 L 583 260 Q 582 241 582 216 Q 578 74 566 47 Q 554 14 589 -40 Q 599 -58 608 -62 Q 618 -63 624 -51 Q 636 -20 633 10 Q 633 55 632 273 L 632 315 Z" class="stroke15"/>
    <path d="M 557 309 Q 494 198 328 82 Q 315 72 324 69 Q 331 65 344 69 Q 441 100 554 224 Q 557 228 560 231 Q 575 250 583 260 C 629 318 576 341 557 309 Z" class="stroke16"/>
    <path d="M 632 273 Q 696 189 769 110 Q 791 85 830 83 Q 902 76 977 88 Q 996 89 998 95 Q 999 102 985 108 Q 817 175 797 188 Q 730 228 637 311 Q 634 314 632 315 C 609 334 614 297 632 273 Z" class="stroke17"/>
    
    
    
    
    
    
    
    
    
    
    
    
    
    
    
    
    </g>
</svg>