<svg version="1.1" viewBox="0 0 1024 1024" xmlns="http://www.w3.org/2000/svg">
  
  <g transform="scale(1, -1) translate(0, -900)">
    <style type="text/css">
        .stroke1 {fill: #808080;}
        .stroke2 {fill: #808079;}
        .stroke3 {fill: #808078;}
        .stroke4 {fill: #808077;}
        .stroke5 {fill: #808076;}
        .stroke6 {fill: #808075;}
        .stroke7 {fill: #808074;}
        .stroke8 {fill: #808073;}
        .stroke9 {fill: #808072;}
        .stroke10 {fill: #808071;}
        .stroke11 {fill: #808070;}
        .stroke12 {fill: #808069;}
        .stroke13 {fill: #808068;}
        .stroke14 {fill: #808067;}
        .stroke15 {fill: #808066;}
        .stroke16 {fill: #808065;}
        .stroke17 {fill: #808064;}
        .stroke18 {fill: #808063;}
        .stroke19 {fill: #808062;}
        .stroke20 {fill: #808061;}
        text {
            font-family: Helvetica;
            font-size: 50px;
            fill: #808060;
            paint-order: stroke;
            stroke: #000000;
            stroke-width: 4px;
            stroke-linecap: butt;
            stroke-linejoin: miter;
            font-weight: 800;
        }
    </style>

    <path d="M 251 592 Q 311 622 391 670 Q 412 683 437 692 Q 459 699 451 718 Q 439 737 415 755 Q 393 771 379 770 Q 366 770 369 756 Q 370 723 301 664 Q 271 639 240 609 C 218 588 224 578 251 592 Z" class="stroke1"/>
    <path d="M 239 487 Q 239 491 240 495 Q 244 543 251 592 C 252 601 252 601 240 609 Q 224 621 200 630 Q 181 640 169 634 Q 159 627 166 614 Q 184 593 184 534 Q 184 366 161 281 Q 136 194 81 94 Q 77 87 75 81 Q 74 71 83 74 Q 98 77 127 119 Q 218 233 238 459 L 239 487 Z" class="stroke2"/>
    <path d="M 369 469 Q 411 482 456 494 Q 484 503 489 507 Q 498 516 492 524 Q 485 536 454 541 Q 423 545 393 530 Q 360 517 325 505 Q 285 495 239 487 C 209 482 209 466 238 459 Q 287 446 337 461 L 369 469 Z" class="stroke3"/>
    <path d="M 337 461 Q 336 461 337 460 Q 361 415 335 176 Q 334 167 332 157 Q 331 135 327 123 Q 312 84 357 24 Q 361 17 368 14 Q 378 13 384 25 Q 397 56 394 86 Q 391 369 402 429 Q 405 441 398 447 Q 382 460 369 469 C 345 487 327 489 337 461 Z" class="stroke4"/>
    <path d="M 594 550 Q 625 607 655 685 Q 668 727 683 748 Q 690 761 682 773 Q 675 785 642 802 Q 611 814 593 810 Q 574 804 588 784 Q 604 762 600 739 Q 588 663 560 587 Q 533 514 492 432 Q 485 420 483 413 Q 482 401 496 407 Q 523 419 578 519 L 594 550 Z" class="stroke5"/>
    <path d="M 578 519 Q 596 506 617 514 Q 669 538 728 554 Q 759 564 769 561 Q 782 551 779 541 Q 779 538 747 468 Q 740 458 745 453 Q 749 447 760 459 Q 851 526 891 543 Q 901 544 901 553 Q 901 566 872 581 Q 850 593 827 606 Q 799 621 784 613 Q 712 579 594 550 C 565 543 551 533 578 519 Z" class="stroke6"/>
    <path d="M 653 332 Q 662 386 677 413 Q 687 431 671 439 Q 628 475 600 466 Q 587 462 593 447 Q 621 389 582 262 Q 548 163 453 95 Q 435 83 420 71 Q 407 62 419 60 Q 432 59 466 72 Q 509 90 543 120 Q 619 183 645 296 L 653 332 Z" class="stroke7"/>
    <path d="M 645 296 Q 714 163 803 59 Q 822 34 842 34 Q 899 41 947 46 Q 968 47 968 53 Q 969 59 946 73 Q 814 142 757 207 Q 709 255 653 332 C 635 356 631 323 645 296 Z" class="stroke8"/>
    
    
    
    
    
    
    
    </g>
</svg>