<svg version="1.1" viewBox="0 0 1024 1024" xmlns="http://www.w3.org/2000/svg">
  
  <g transform="scale(1, -1) translate(0, -900)">
    <style type="text/css">
        .stroke1 {fill: #808080;}
        .stroke2 {fill: #808079;}
        .stroke3 {fill: #808078;}
        .stroke4 {fill: #808077;}
        .stroke5 {fill: #808076;}
        .stroke6 {fill: #808075;}
        .stroke7 {fill: #808074;}
        .stroke8 {fill: #808073;}
        .stroke9 {fill: #808072;}
        .stroke10 {fill: #808071;}
        .stroke11 {fill: #808070;}
        .stroke12 {fill: #808069;}
        .stroke13 {fill: #808068;}
        .stroke14 {fill: #808067;}
        .stroke15 {fill: #808066;}
        .stroke16 {fill: #808065;}
        .stroke17 {fill: #808064;}
        .stroke18 {fill: #808063;}
        .stroke19 {fill: #808062;}
        .stroke20 {fill: #808061;}
        text {
            font-family: Helvetica;
            font-size: 50px;
            fill: #808060;
            paint-order: stroke;
            stroke: #000000;
            stroke-width: 4px;
            stroke-linecap: butt;
            stroke-linejoin: miter;
            font-weight: 800;
        }
    </style>

    <path d="M 542 520 Q 549 596 555 665 L 558 696 Q 562 735 567 754 Q 571 767 574 778 Q 578 788 558 804 Q 522 823 498 828 Q 482 831 474 822 Q 467 815 474 800 Q 493 775 493 758 Q 502 644 499 512 C 498 482 539 490 542 520 Z" class="stroke1"/>
    <path d="M 555 665 Q 600 650 648 664 Q 699 676 752 688 Q 777 694 780 697 Q 790 707 784 715 Q 775 728 744 734 Q 711 740 679 725 Q 652 716 623 708 Q 593 701 558 696 C 528 692 526 674 555 665 Z" class="stroke2"/>
    <path d="M 398 496 Q 389 620 392 649 Q 393 674 378 686 Q 353 704 323 712 Q 307 716 298 710 Q 291 703 298 687 Q 325 647 353 490 C 358 460 400 466 398 496 Z" class="stroke3"/>
    <path d="M 535 482 Q 590 489 909 506 Q 931 506 937 516 Q 943 529 924 544 Q 864 586 809 572 Q 704 550 542 520 L 499 512 Q 450 505 398 496 L 353 490 Q 247 475 129 457 Q 107 454 124 435 Q 140 420 160 415 Q 184 409 201 415 Q 360 464 488 476 L 535 482 Z" class="stroke4"/>
    <path d="M 488 476 Q 488 473 490 468 Q 515 405 494 235 Q 485 202 515 166 Q 525 154 535 166 Q 557 199 556 243 Q 552 342 566 435 Q 573 459 552 471 Q 543 477 535 482 C 510 498 480 505 488 476 Z" class="stroke5"/>
    <path d="M 352 398 Q 327 340 290 286 Q 268 247 287 210 Q 296 191 320 204 Q 375 247 380 333 Q 387 370 379 398 Q 373 408 366 409 Q 356 408 352 398 Z" class="stroke6"/>
    <path d="M 695 430 Q 676 238 451 71 Q 447 68 443 65 Q 380 16 232 -63 Q 220 -70 228 -75 Q 237 -79 251 -77 Q 348 -55 437 -4 Q 590 74 727 298 Q 751 334 779 367 Q 791 377 786 390 Q 780 403 748 431 Q 726 450 713 450 Q 697 449 695 430 Z" class="stroke7"/>
    
    
    
    
    
    
    </g>
</svg>