<svg version="1.1" viewBox="0 0 1024 1024" xmlns="http://www.w3.org/2000/svg">
  
  <g transform="scale(1, -1) translate(0, -900)">
    <style type="text/css">
        .stroke1 {fill: #808080;}
        .stroke2 {fill: #808079;}
        .stroke3 {fill: #808078;}
        .stroke4 {fill: #808077;}
        .stroke5 {fill: #808076;}
        .stroke6 {fill: #808075;}
        .stroke7 {fill: #808074;}
        .stroke8 {fill: #808073;}
        .stroke9 {fill: #808072;}
        .stroke10 {fill: #808071;}
        .stroke11 {fill: #808070;}
        .stroke12 {fill: #808069;}
        .stroke13 {fill: #808068;}
        .stroke14 {fill: #808067;}
        .stroke15 {fill: #808066;}
        .stroke16 {fill: #808065;}
        .stroke17 {fill: #808064;}
        .stroke18 {fill: #808063;}
        .stroke19 {fill: #808062;}
        .stroke20 {fill: #808061;}
        text {
            font-family: Helvetica;
            font-size: 50px;
            fill: #808060;
            paint-order: stroke;
            stroke: #000000;
            stroke-width: 4px;
            stroke-linecap: butt;
            stroke-linejoin: miter;
            font-weight: 800;
        }
    </style>

    <path d="M 505 667 Q 590 683 683 699 Q 744 712 754 720 Q 764 729 759 738 Q 752 751 719 761 Q 686 768 574 734 Q 421 701 321 693 Q 279 689 308 668 Q 354 641 431 655 Q 444 658 460 659 L 505 667 Z" class="stroke1"/>
    <path d="M 534 154 Q 537 298 539 420 L 540 457 Q 543 634 544 635 Q 543 638 542 638 Q 523 657 505 667 C 480 683 449 687 460 659 Q 484 596 485 591 Q 485 231 484 149 C 484 119 533 124 534 154 Z" class="stroke2"/>
    <path d="M 539 420 Q 578 411 616 422 Q 757 452 767 457 Q 777 466 772 475 Q 763 488 732 495 Q 699 501 667 487 Q 636 477 603 468 Q 573 462 540 457 C 510 452 510 426 539 420 Z" class="stroke3"/>
    <path d="M 346 135 Q 322 345 327 402 Q 328 427 312 441 Q 285 459 254 468 Q 238 472 228 465 Q 221 458 228 441 Q 253 399 266 354 Q 276 309 300 131 C 304 101 349 105 346 135 Z" class="stroke4"/>
    <path d="M 300 131 Q 203 124 100 114 Q 75 113 93 91 Q 109 73 131 66 Q 156 59 176 64 Q 467 131 884 110 Q 885 111 888 110 Q 912 109 918 119 Q 925 134 906 151 Q 839 203 784 190 Q 687 174 534 154 L 484 149 Q 417 143 346 135 L 300 131 Z" class="stroke5"/>
    
    
    
    
    </g>
</svg>