<svg version="1.1" viewBox="0 0 1024 1024" xmlns="http://www.w3.org/2000/svg">
  
  <g transform="scale(1, -1) translate(0, -900)">
    <style type="text/css">
        .stroke1 {fill: #808080;}
        .stroke2 {fill: #808079;}
        .stroke3 {fill: #808078;}
        .stroke4 {fill: #808077;}
        .stroke5 {fill: #808076;}
        .stroke6 {fill: #808075;}
        .stroke7 {fill: #808074;}
        .stroke8 {fill: #808073;}
        .stroke9 {fill: #808072;}
        .stroke10 {fill: #808071;}
        .stroke11 {fill: #808070;}
        .stroke12 {fill: #808069;}
        .stroke13 {fill: #808068;}
        .stroke14 {fill: #808067;}
        .stroke15 {fill: #808066;}
        .stroke16 {fill: #808065;}
        .stroke17 {fill: #808064;}
        .stroke18 {fill: #808063;}
        .stroke19 {fill: #808062;}
        .stroke20 {fill: #808061;}
        text {
            font-family: Helvetica;
            font-size: 50px;
            fill: #808060;
            paint-order: stroke;
            stroke: #000000;
            stroke-width: 4px;
            stroke-linecap: butt;
            stroke-linejoin: miter;
            font-weight: 800;
        }
    </style>

    <path d="M 497 706 Q 501 706 611 718 Q 746 730 851 720 Q 873 717 879 726 Q 886 739 874 750 Q 805 810 749 788 Q 742 788 333 730 Q 275 720 186 718 Q 173 718 171 707 Q 171 695 189 682 Q 205 670 235 659 Q 245 655 263 663 Q 327 684 449 700 L 497 706 Z" class="stroke1"/>
    <path d="M 446 511 Q 473 550 494 584 Q 516 621 530 638 Q 537 650 529 666 Q 513 694 497 706 C 475 726 445 730 449 700 Q 467 628 349 466 Q 298 397 231 330 Q 224 324 223 317 Q 223 311 230 312 Q 288 321 401 453 Q 402 457 406 459 Q 416 474 428 487 L 446 511 Z" class="stroke2"/>
    <path d="M 618 424 Q 552 172 264 -6 Q 240 -15 242 -24 Q 243 -30 252 -29 Q 394 -14 546 165 Q 561 186 578 208 Q 636 293 694 428 Q 713 462 743 483 Q 761 493 760 504 Q 759 520 725 538 Q 682 563 665 564 Q 652 563 639 553 Q 533 519 460 512 Q 453 513 446 511 C 416 508 400 498 428 487 Q 473 457 591 498 Q 619 508 632 501 Q 641 495 618 424 Z" class="stroke3"/>
    <path d="M 393 355 Q 415 325 438 290 Q 448 274 465 271 Q 477 270 485 281 Q 492 296 490 328 Q 487 361 399 405 Q 383 412 376 411 Q 370 408 369 395 Q 370 382 393 355 Z" class="stroke4"/>
    
    
    
    </g>
</svg>