<svg version="1.1" viewBox="0 0 1024 1024" xmlns="http://www.w3.org/2000/svg">
  
  <g transform="scale(1, -1) translate(0, -900)">
    <style type="text/css">
        .stroke1 {fill: #808080;}
        .stroke2 {fill: #808079;}
        .stroke3 {fill: #808078;}
        .stroke4 {fill: #808077;}
        .stroke5 {fill: #808076;}
        .stroke6 {fill: #808075;}
        .stroke7 {fill: #808074;}
        .stroke8 {fill: #808073;}
        .stroke9 {fill: #808072;}
        .stroke10 {fill: #808071;}
        .stroke11 {fill: #808070;}
        .stroke12 {fill: #808069;}
        .stroke13 {fill: #808068;}
        .stroke14 {fill: #808067;}
        .stroke15 {fill: #808066;}
        .stroke16 {fill: #808065;}
        .stroke17 {fill: #808064;}
        .stroke18 {fill: #808063;}
        .stroke19 {fill: #808062;}
        .stroke20 {fill: #808061;}
        text {
            font-family: Helvetica;
            font-size: 50px;
            fill: #808060;
            paint-order: stroke;
            stroke: #000000;
            stroke-width: 4px;
            stroke-linecap: butt;
            stroke-linejoin: miter;
            font-weight: 800;
        }
    </style>

    <path d="M 294 652 Q 462 700 464 700 Q 474 710 468 719 Q 459 732 426 738 Q 393 742 301 708 Q 235 690 181 683 Q 141 673 171 656 Q 204 641 253 643 L 294 652 Z" class="stroke1"/>
    <path d="M 189 396 Q 189 397 240 461 L 254 482 Q 273 510 294 544 Q 313 578 329 596 Q 336 606 333 617 Q 324 642 294 652 C 266 664 245 672 253 643 Q 262 624 251 581 Q 229 524 196 470 Q 159 410 109 343 Q 100 334 99 328 Q 96 318 108 321 Q 123 324 169 373 L 189 396 Z" class="stroke2"/>
    <path d="M 240 461 Q 250 452 282 461 Q 342 482 346 474 Q 353 459 338 400 Q 328 336 271 243 Q 217 146 120 46 Q 98 28 119 32 Q 149 38 197 76 Q 246 116 297 193 Q 358 286 400 404 Q 419 459 435 478 Q 447 490 439 501 Q 432 511 376 527 Q 363 531 341 517 Q 314 501 254 482 C 225 473 211 467 240 461 Z" class="stroke3"/>
    <path d="M 169 373 Q 170 370 175 365 Q 197 335 219 300 Q 226 288 239 286 Q 246 285 253 293 Q 260 303 259 327 Q 256 357 189 396 C 163 411 154 399 169 373 Z" class="stroke4"/>
    <path d="M 565 660 Q 541 682 520 692 Q 507 695 498 691 Q 489 687 493 675 Q 520 618 520 538 Q 520 442 518 111 C 518 81 564 86 564 116 Q 565 207 566 288 L 566 323 Q 567 390 568 453 L 568 489 Q 569 535 570 578 Q 570 605 571 624 C 572 654 572 654 565 660 Z" class="stroke5"/>
    <path d="M 776 140 Q 780 398 796 567 Q 800 609 819 636 Q 832 652 818 669 Q 808 681 755 710 Q 737 723 675 692 Q 584 665 565 660 C 536 652 541 619 571 624 Q 584 624 601 630 Q 721 669 733 659 Q 745 635 721 133 C 720 103 775 110 776 140 Z" class="stroke6"/>
    <path d="M 568 453 Q 569 456 683 474 Q 710 481 698 495 Q 685 511 654 513 Q 626 514 580 497 Q 573 493 568 489 C 544 471 540 442 568 453 Z" class="stroke7"/>
    <path d="M 566 288 Q 635 297 685 303 Q 713 309 702 323 Q 689 339 659 344 Q 610 350 566 323 C 540 308 536 284 566 288 Z" class="stroke8"/>
    <path d="M 518 111 Q 452 107 383 100 Q 359 99 376 79 Q 391 63 411 56 Q 433 49 452 54 Q 647 96 914 75 Q 936 74 942 84 Q 949 97 931 113 Q 867 161 796 144 Q 786 143 776 140 L 721 133 Q 679 129 630 123 Q 596 120 564 116 L 518 111 Z" class="stroke9"/>
    
    
    
    
    
    
    
    
    </g>
</svg>