<svg version="1.1" viewBox="0 0 1024 1024" xmlns="http://www.w3.org/2000/svg">
  
  <g transform="scale(1, -1) translate(0, -900)">
    <style type="text/css">
        .stroke1 {fill: #808080;}
        .stroke2 {fill: #808079;}
        .stroke3 {fill: #808078;}
        .stroke4 {fill: #808077;}
        .stroke5 {fill: #808076;}
        .stroke6 {fill: #808075;}
        .stroke7 {fill: #808074;}
        .stroke8 {fill: #808073;}
        .stroke9 {fill: #808072;}
        .stroke10 {fill: #808071;}
        .stroke11 {fill: #808070;}
        .stroke12 {fill: #808069;}
        .stroke13 {fill: #808068;}
        .stroke14 {fill: #808067;}
        .stroke15 {fill: #808066;}
        .stroke16 {fill: #808065;}
        .stroke17 {fill: #808064;}
        .stroke18 {fill: #808063;}
        .stroke19 {fill: #808062;}
        .stroke20 {fill: #808061;}
        text {
            font-family: Helvetica;
            font-size: 50px;
            fill: #808060;
            paint-order: stroke;
            stroke: #000000;
            stroke-width: 4px;
            stroke-linecap: butt;
            stroke-linejoin: miter;
            font-weight: 800;
        }
    </style>

    <path d="M 299 625 Q 359 644 425 662 Q 459 672 465 678 Q 472 685 468 693 Q 461 703 433 708 Q 409 711 314 673 Q 253 654 194 643 Q 161 634 186 621 Q 222 603 269 617 L 299 625 Z" class="stroke1"/>
    <path d="M 203 371 Q 254 434 263 445 L 276 463 Q 330 553 344 565 Q 351 575 348 586 Q 333 619 299 625 C 270 633 263 634 269 617 Q 281 590 266 547 Q 247 499 220 454 Q 187 399 141 338 Q 132 329 131 324 Q 128 314 140 317 Q 150 318 194 361 L 203 371 Z" class="stroke2"/>
    <path d="M 263 445 Q 273 435 303 441 Q 355 453 359 446 Q 365 431 346 375 Q 331 315 272 231 Q 215 141 116 53 Q 94 37 114 39 Q 219 54 355 272 Q 382 321 406 375 Q 428 427 444 443 Q 456 453 449 465 Q 445 475 392 495 Q 379 499 358 488 Q 333 475 276 463 C 247 456 236 454 263 445 Z" class="stroke3"/>
    <path d="M 194 361 Q 193 361 194 360 Q 197 339 244 299 Q 257 290 268 285 Q 280 282 288 293 Q 292 303 291 317 Q 287 336 272 347 Q 229 377 203 371 C 193 369 193 369 194 361 Z" class="stroke4"/>
    <path d="M 618 649 Q 697 680 704 686 Q 710 695 705 702 Q 696 712 669 713 Q 642 714 595 687 L 556 668 Q 553 668 552 667 Q 515 651 470 640 Q 439 628 465 617 Q 511 604 565 629 Q 571 632 579 634 L 618 649 Z" class="stroke5"/>
    <path d="M 681 516 Q 739 462 795 436 Q 877 402 902 409 Q 917 413 905 449 Q 898 471 892 528 Q 893 558 883 569 Q 876 578 872 563 Q 851 482 834 479 Q 815 470 763 500 Q 735 516 712 536 L 687 561 Q 653 595 618 649 L 595 687 Q 565 741 561 786 Q 561 817 520 824 Q 474 834 452 825 Q 446 821 446 813 Q 446 806 456 798 Q 483 788 544 687 Q 548 678 556 668 L 579 634 Q 616 580 659 536 L 681 516 Z" class="stroke6"/>
    <path d="M 659 536 Q 640 520 614 498 Q 607 494 615 491 Q 633 491 681 516 L 712 536 Q 758 569 822 642 Q 838 663 839 666 Q 835 690 801 705 Q 785 712 774 711 Q 767 710 767 699 Q 773 648 695 569 Q 694 568 692 566 Q 689 565 687 561 L 659 536 Z" class="stroke7"/>
    <path d="M 686 814 Q 714 796 744 773 Q 759 763 772 766 Q 782 767 785 780 Q 788 795 776 820 Q 766 844 675 857 Q 662 858 656 855 Q 652 851 654 839 Q 658 829 686 814 Z" class="stroke8"/>
    <path d="M 599 341 Q 629 354 663 366 Q 696 379 700 385 Q 707 394 701 401 Q 692 411 663 414 Q 633 414 584 386 L 539 364 Q 443 334 435 330 Q 401 318 429 306 Q 471 293 537 318 Q 546 322 557 325 L 599 341 Z" class="stroke9"/>
    <path d="M 643 173 Q 745 26 872 -27 Q 948 -54 964 -36 Q 980 -24 968 9 Q 958 36 941 139 Q 940 158 934 162 Q 930 163 927 144 Q 905 62 888 47 Q 879 41 847 54 Q 753 99 676 201 L 648 244 Q 618 295 599 341 L 584 386 Q 574 428 573 452 Q 576 477 531 489 Q 495 499 480 491 Q 464 484 479 463 Q 504 439 539 364 L 557 325 Q 585 268 618 213 L 643 173 Z" class="stroke10"/>
    <path d="M 618 213 Q 542 147 384 63 Q 374 60 384 55 Q 447 49 583 129 Q 613 153 643 173 L 676 201 Q 716 237 771 288 Q 799 313 800 318 Q 801 328 792 342 Q 768 376 734 381 Q 725 381 725 368 Q 721 317 648 244 L 618 213 Z" class="stroke11"/>
    <path d="M 654 456 Q 708 420 722 422 Q 732 423 734 439 Q 733 449 721 463 Q 711 472 693 474 Q 665 478 653 478 Q 646 477 647 468 Q 647 461 654 456 Z" class="stroke12"/>
    
    
    
    
    
    
    
    
    
    
    
    </g>
</svg>