<svg version="1.1" viewBox="0 0 1024 1024" xmlns="http://www.w3.org/2000/svg">
  
  <g transform="scale(1, -1) translate(0, -900)">
    <style type="text/css">
        .stroke1 {fill: #808080;}
        .stroke2 {fill: #808079;}
        .stroke3 {fill: #808078;}
        .stroke4 {fill: #808077;}
        .stroke5 {fill: #808076;}
        .stroke6 {fill: #808075;}
        .stroke7 {fill: #808074;}
        .stroke8 {fill: #808073;}
        .stroke9 {fill: #808072;}
        .stroke10 {fill: #808071;}
        .stroke11 {fill: #808070;}
        .stroke12 {fill: #808069;}
        .stroke13 {fill: #808068;}
        .stroke14 {fill: #808067;}
        .stroke15 {fill: #808066;}
        .stroke16 {fill: #808065;}
        .stroke17 {fill: #808064;}
        .stroke18 {fill: #808063;}
        .stroke19 {fill: #808062;}
        .stroke20 {fill: #808061;}
        text {
            font-family: Helvetica;
            font-size: 50px;
            fill: #808060;
            paint-order: stroke;
            stroke: #000000;
            stroke-width: 4px;
            stroke-linecap: butt;
            stroke-linejoin: miter;
            font-weight: 800;
        }
    </style>

    <path d="M 279 640 Q 426 679 428 679 Q 437 688 432 696 Q 425 708 394 714 Q 363 720 333 707 Q 296 694 256 683 Q 213 673 161 666 Q 124 659 151 643 Q 184 625 235 630 L 279 640 Z" class="stroke1"/>
    <path d="M 162 404 Q 222 476 227 481 L 241 500 Q 307 603 308 610 L 307 611 Q 303 621 280 640 L 279 640 C 255 658 229 659 235 630 Q 248 599 186 491 Q 155 442 113 385 Q 106 378 103 372 Q 100 362 112 365 Q 122 366 141 385 Q 142 386 146 389 L 162 404 Z" class="stroke2"/>
    <path d="M 227 481 Q 237 474 265 479 Q 305 489 309 485 Q 316 472 300 416 Q 288 356 235 272 Q 183 182 91 93 Q 72 77 90 80 Q 166 92 257 225 Q 315 310 356 418 Q 375 470 390 486 Q 400 496 395 507 Q 389 517 339 533 Q 327 537 307 525 Q 286 513 241 500 C 212 491 199 487 227 481 Z" class="stroke3"/>
    <path d="M 146 389 Q 150 382 164 369 Q 186 347 209 319 Q 218 309 229 308 Q 236 308 242 317 Q 246 327 242 349 Q 238 376 164 404 L 162 404 C 133 410 132 410 146 389 Z" class="stroke4"/>
    <path d="M 592 759 Q 620 737 651 708 Q 667 695 684 696 Q 696 697 701 712 Q 705 728 694 761 Q 687 782 653 795 Q 572 820 560 811 Q 554 807 557 793 Q 561 780 592 759 Z" class="stroke5"/>
    <path d="M 490 633 Q 477 660 464 668 Q 460 672 455 669 Q 449 666 448 655 Q 451 622 421 569 Q 411 553 411 535 Q 412 516 421 502 Q 428 490 434 498 Q 440 498 449 513 Q 453 519 463 543 Q 479 583 488 598 Q 488 599 489 600 C 498 617 498 617 490 633 Z" class="stroke6"/>
    <path d="M 489 600 Q 508 594 554 607 Q 666 641 775 651 Q 779 651 784 651 Q 797 644 797 638 Q 797 635 758 564 Q 751 554 757 549 Q 763 545 778 554 Q 832 588 876 600 Q 912 610 911 619 Q 910 628 846 678 Q 824 697 732 676 Q 708 675 550 643 Q 519 637 490 633 C 460 629 459 604 489 600 Z" class="stroke7"/>
    <path d="M 544 458 Q 554 464 571 471 Q 604 486 628 502 Q 661 524 690 536 Q 703 539 705 546 Q 706 555 695 562 Q 644 586 615 578 Q 611 574 611 565 Q 611 541 529 471 C 506 451 518 443 544 458 Z" class="stroke8"/>
    <path d="M 546 415 Q 546 454 544 458 C 544 460 544 460 529 471 Q 513 484 491 490 Q 478 494 470 489 Q 463 485 469 470 Q 487 439 495 406 Q 501 375 513 249 C 516 219 551 224 550 254 Q 547 315 546 385 L 546 415 Z" class="stroke9"/>
    <path d="M 706 412 Q 761 422 813 430 Q 826 431 826 438 Q 826 448 806 461 Q 773 482 715 456 Q 711 456 546 415 C 517 408 516 382 546 385 Q 555 385 666 404 L 706 412 Z" class="stroke10"/>
    <path d="M 705 276 Q 717 355 722 367 Q 731 385 706 412 C 686 434 665 434 666 404 Q 667 397 661 269 C 660 239 700 246 705 276 Z" class="stroke11"/>
    <path d="M 513 249 Q 446 243 376 233 Q 357 232 371 215 Q 384 202 402 196 Q 421 192 438 195 Q 600 237 911 237 Q 930 237 935 246 Q 939 256 924 270 Q 870 312 807 294 Q 762 287 705 276 L 661 269 Q 645 268 630 265 Q 591 261 550 254 L 513 249 Z" class="stroke12"/>
    <path d="M 502 162 Q 492 108 358 8 Q 336 -5 363 -4 Q 420 -4 526 85 Q 529 92 570 123 Q 582 133 580 144 Q 577 157 553 166 Q 525 178 514 176 Q 507 175 502 162 Z" class="stroke13"/>
    <path d="M 685 148 Q 740 97 805 23 Q 821 2 836 -2 Q 845 -3 853 7 Q 866 20 854 65 Q 844 122 687 180 Q 677 186 675 173 Q 674 160 685 148 Z" class="stroke14"/>
    
    
    
    
    
    
    
    
    
    
    
    
    
    </g>
</svg>