<svg version="1.1" viewBox="0 0 1024 1024" xmlns="http://www.w3.org/2000/svg">
  
  <g transform="scale(1, -1) translate(0, -900)">
    <style type="text/css">
        .stroke1 {fill: #808080;}
        .stroke2 {fill: #808079;}
        .stroke3 {fill: #808078;}
        .stroke4 {fill: #808077;}
        .stroke5 {fill: #808076;}
        .stroke6 {fill: #808075;}
        .stroke7 {fill: #808074;}
        .stroke8 {fill: #808073;}
        .stroke9 {fill: #808072;}
        .stroke10 {fill: #808071;}
        .stroke11 {fill: #808070;}
        .stroke12 {fill: #808069;}
        .stroke13 {fill: #808068;}
        .stroke14 {fill: #808067;}
        .stroke15 {fill: #808066;}
        .stroke16 {fill: #808065;}
        .stroke17 {fill: #808064;}
        .stroke18 {fill: #808063;}
        .stroke19 {fill: #808062;}
        .stroke20 {fill: #808061;}
        text {
            font-family: Helvetica;
            font-size: 50px;
            fill: #808060;
            paint-order: stroke;
            stroke: #000000;
            stroke-width: 4px;
            stroke-linecap: butt;
            stroke-linejoin: miter;
            font-weight: 800;
        }
    </style>

    <path d="M 205 636 Q 242 624 330 642 Q 385 654 442 667 Q 478 676 483 681 Q 492 688 487 697 Q 480 707 452 714 Q 427 720 333 688 Q 261 670 204 664 Q 197 663 195 661 C 167 652 176 643 205 636 Z" class="stroke1"/>
    <path d="M 390 378 Q 412 424 430 491 Q 437 515 448 538 Q 454 547 448 555 Q 441 564 413 575 Q 394 584 385 581 Q 375 577 377 563 Q 392 499 356 408 L 337 369 Q 298 300 210 207 Q 204 200 210 198 Q 217 197 226 202 Q 277 230 318 274 Q 346 302 367 333 L 390 378 Z" class="stroke2"/>
    <path d="M 367 333 Q 436 248 441 245 Q 447 244 453 250 Q 462 257 457 289 Q 454 316 390 378 L 356 408 Q 286 469 246 498 Q 240 502 238 494 Q 237 484 243 477 Q 288 429 337 369 L 367 333 Z" class="stroke3"/>
    <path d="M 195 661 Q 185 671 159 684 Q 140 694 131 687 Q 124 680 131 666 Q 149 632 149 570 Q 153 362 133 170 Q 132 133 111 97 Q 101 81 111 62 Q 120 41 129 33 Q 139 26 156 39 Q 228 100 457 126 Q 479 127 479 139 Q 478 152 449 169 Q 434 179 319 147 Q 280 143 200 117 Q 182 113 180 134 Q 190 320 197 554 Q 197 602 205 636 C 208 652 208 652 195 661 Z" class="stroke4"/>
    <path d="M 589 715 Q 577 725 559 731 Q 544 738 535 734 Q 526 728 532 718 Q 557 676 535 544 Q 534 541 533 536 Q 521 485 492 432 Q 488 428 487 423 Q 486 414 494 416 Q 518 422 557 497 Q 557 500 559 502 Q 577 547 593 676 L 593 679 C 596 709 596 710 589 715 Z" class="stroke5"/>
    <path d="M 922 489 Q 935 493 928 509 Q 913 527 896 537 Q 886 543 862 534 Q 825 516 780 518 Q 750 519 741 540 Q 729 562 741 626 Q 745 666 783 705 Q 799 720 783 733 Q 761 752 735 763 Q 725 769 708 758 Q 642 728 589 715 C 560 707 564 670 593 679 Q 596 679 676 708 Q 692 717 698 715 Q 705 712 705 700 Q 692 553 692 548 Q 692 512 726 487 Q 760 468 825 469 Q 889 470 922 489 Z" class="stroke6"/>
    <path d="M 696 159 Q 744 255 752 278 Q 767 345 788 363 Q 803 376 785 391 Q 766 406 734 418 Q 713 425 693 414 Q 636 386 556 374 Q 531 371 521 365 Q 514 359 530 350 Q 555 337 591 349 Q 639 359 686 371 Q 707 378 707 355 Q 707 276 659 193 L 635 157 Q 628 150 623 143 Q 574 94 448 53 Q 435 49 443 42 Q 450 36 477 41 Q 601 56 665 119 L 696 159 Z" class="stroke7"/>
    <path d="M 665 119 Q 702 74 759 19 Q 786 -5 827 2 Q 882 8 921 12 Q 934 13 946 18 Q 953 25 942 33 Q 929 42 816 82 Q 758 103 696 159 L 659 193 Q 619 235 575 290 Q 559 312 527 319 Q 517 322 507 316 Q 503 309 511 302 Q 517 296 524 292 Q 545 280 630 163 Q 631 160 635 157 L 665 119 Z" class="stroke8"/>
    
    
    
    
    
    
    
    </g>
</svg>