<svg version="1.1" viewBox="0 0 1024 1024" xmlns="http://www.w3.org/2000/svg">
  
  <g transform="scale(1, -1) translate(0, -900)">
    <style type="text/css">
        .stroke1 {fill: #808080;}
        .stroke2 {fill: #808079;}
        .stroke3 {fill: #808078;}
        .stroke4 {fill: #808077;}
        .stroke5 {fill: #808076;}
        .stroke6 {fill: #808075;}
        .stroke7 {fill: #808074;}
        .stroke8 {fill: #808073;}
        .stroke9 {fill: #808072;}
        .stroke10 {fill: #808071;}
        .stroke11 {fill: #808070;}
        .stroke12 {fill: #808069;}
        .stroke13 {fill: #808068;}
        .stroke14 {fill: #808067;}
        .stroke15 {fill: #808066;}
        .stroke16 {fill: #808065;}
        .stroke17 {fill: #808064;}
        .stroke18 {fill: #808063;}
        .stroke19 {fill: #808062;}
        .stroke20 {fill: #808061;}
        text {
            font-family: Helvetica;
            font-size: 50px;
            fill: #808060;
            paint-order: stroke;
            stroke: #000000;
            stroke-width: 4px;
            stroke-linecap: butt;
            stroke-linejoin: miter;
            font-weight: 800;
        }
    </style>

    <path d="M 484 690 Q 610 747 649 755 Q 668 756 671 764 Q 675 776 662 787 Q 640 803 592 822 Q 576 829 562 828 Q 553 824 553 812 Q 553 764 303 649 C 276 636 278 622 307 630 Q 364 645 436 673 L 484 690 Z" class="stroke1"/>
    <path d="M 303 649 Q 296 664 237 680 Q 218 683 212 677 Q 205 670 217 650 Q 245 610 252 512 Q 259 212 193 121 Q 186 112 179 103 Q 166 90 174 66 Q 184 35 200 21 Q 213 11 228 27 Q 280 90 437 220 Q 455 232 456 242 Q 459 249 451 248 Q 439 247 309 170 Q 297 164 294 168 Q 285 172 287 195 Q 300 583 307 625 Q 307 628 307 630 L 303 649 Z" class="stroke2"/>
    <path d="M 555 438 Q 619 457 693 476 Q 748 492 757 501 Q 766 511 760 519 Q 751 532 720 538 Q 687 542 656 527 Q 599 505 540 483 L 497 470 Q 430 454 356 441 Q 317 432 346 415 Q 394 396 471 416 Q 489 422 511 426 L 555 438 Z" class="stroke3"/>
    <path d="M 511 426 Q 574 237 699 101 Q 744 50 801 11 Q 862 -26 899 -33 Q 927 -30 922 6 Q 912 42 920 206 Q 920 219 914 221 Q 908 222 904 208 Q 888 171 875 133 Q 856 84 839 85 Q 814 86 761 131 Q 706 174 657 246 Q 585 351 555 438 L 540 483 Q 516 574 534 637 Q 540 659 496 684 Q 490 688 484 690 C 458 705 421 699 436 673 Q 458 645 467 596 Q 480 529 497 470 L 511 426 Z" class="stroke4"/>
    
    
    
    </g>
</svg>