<svg version="1.1" viewBox="0 0 1024 1024" xmlns="http://www.w3.org/2000/svg">
  
  <g transform="scale(1, -1) translate(0, -900)">
    <style type="text/css">
        .stroke1 {fill: #808080;}
        .stroke2 {fill: #808079;}
        .stroke3 {fill: #808078;}
        .stroke4 {fill: #808077;}
        .stroke5 {fill: #808076;}
        .stroke6 {fill: #808075;}
        .stroke7 {fill: #808074;}
        .stroke8 {fill: #808073;}
        .stroke9 {fill: #808072;}
        .stroke10 {fill: #808071;}
        .stroke11 {fill: #808070;}
        .stroke12 {fill: #808069;}
        .stroke13 {fill: #808068;}
        .stroke14 {fill: #808067;}
        .stroke15 {fill: #808066;}
        .stroke16 {fill: #808065;}
        .stroke17 {fill: #808064;}
        .stroke18 {fill: #808063;}
        .stroke19 {fill: #808062;}
        .stroke20 {fill: #808061;}
        text {
            font-family: Helvetica;
            font-size: 50px;
            fill: #808060;
            paint-order: stroke;
            stroke: #000000;
            stroke-width: 4px;
            stroke-linecap: butt;
            stroke-linejoin: miter;
            font-weight: 800;
        }
    </style>

    <path d="M 359 685 Q 431 787 431 794 Q 428 810 383 837 Q 368 844 353 843 Q 341 842 343 826 Q 349 717 220 586 Q 202 577 158 529 Q 148 513 165 517 Q 186 518 215 540 Q 294 595 346 666 L 359 685 Z" class="stroke1"/>
    <path d="M 346 666 Q 355 657 390 649 Q 412 645 550 672 Q 692 703 703 711 Q 712 718 707 728 Q 700 740 670 747 Q 643 753 544 720 Q 451 696 362 686 Q 359 686 359 685 C 329 680 326 679 346 666 Z" class="stroke2"/>
    <path d="M 319 558 Q 286 552 310 537 Q 349 519 411 533 Q 487 551 567 570 Q 606 580 612 586 Q 619 593 615 601 Q 608 611 581 618 Q 553 622 527 610 Q 484 594 435 580 Q 381 567 319 558 Z" class="stroke3"/>
    <path d="M 191 406 Q 176 405 182 390 Q 186 377 211 368 Q 235 358 259 365 Q 407 405 551 444 Q 593 454 601 449 Q 611 442 603 421 Q 573 205 633 105 Q 685 -4 840 -20 Q 909 -26 936 -13 Q 955 -4 946 21 Q 930 97 926 183 Q 925 216 917 224 Q 910 231 904 214 Q 876 84 849 55 Q 828 42 802 50 Q 757 57 717 90 Q 656 141 645 265 Q 636 380 692 450 Q 708 463 701 473 Q 692 486 635 508 Q 619 514 604 503 Q 540 466 381 432 Q 278 407 191 406 Z" class="stroke4"/>
    
    
    
    </g>
</svg>