<svg version="1.1" viewBox="0 0 1024 1024" xmlns="http://www.w3.org/2000/svg">
  
  <g transform="scale(1, -1) translate(0, -900)">
    <style type="text/css">
        .stroke1 {fill: #808080;}
        .stroke2 {fill: #808079;}
        .stroke3 {fill: #808078;}
        .stroke4 {fill: #808077;}
        .stroke5 {fill: #808076;}
        .stroke6 {fill: #808075;}
        .stroke7 {fill: #808074;}
        .stroke8 {fill: #808073;}
        .stroke9 {fill: #808072;}
        .stroke10 {fill: #808071;}
        .stroke11 {fill: #808070;}
        .stroke12 {fill: #808069;}
        .stroke13 {fill: #808068;}
        .stroke14 {fill: #808067;}
        .stroke15 {fill: #808066;}
        .stroke16 {fill: #808065;}
        .stroke17 {fill: #808064;}
        .stroke18 {fill: #808063;}
        .stroke19 {fill: #808062;}
        .stroke20 {fill: #808061;}
        text {
            font-family: Helvetica;
            font-size: 50px;
            fill: #808060;
            paint-order: stroke;
            stroke: #000000;
            stroke-width: 4px;
            stroke-linecap: butt;
            stroke-linejoin: miter;
            font-weight: 800;
        }
    </style>

    <path d="M 438 711 Q 478 680 523 641 Q 539 626 558 627 Q 571 628 576 644 Q 580 663 569 697 Q 562 724 519 743 Q 420 774 404 768 Q 398 762 400 747 Q 404 734 438 711 Z" class="stroke1"/>
    <path d="M 326 514 Q 402 442 444 427 Q 460 426 470 440 Q 477 455 472 474 Q 453 525 338 557 Q 319 561 309 557 Q 302 556 306 542 Q 307 529 326 514 Z" class="stroke2"/>
    <path d="M 362 145 Q 349 144 347 124 Q 350 39 384 13 Q 391 4 402 6 Q 411 6 416 33 Q 440 100 592 354 Q 602 370 602 377 Q 603 387 592 382 Q 579 376 424 197 Q 385 158 362 145 Z" class="stroke3"/>
    
    
    </g>
</svg>