<svg version="1.1" viewBox="0 0 1024 1024" xmlns="http://www.w3.org/2000/svg">
  
  <g transform="scale(1, -1) translate(0, -900)">
    <style type="text/css">
        .stroke1 {fill: #808080;}
        .stroke2 {fill: #808079;}
        .stroke3 {fill: #808078;}
        .stroke4 {fill: #808077;}
        .stroke5 {fill: #808076;}
        .stroke6 {fill: #808075;}
        .stroke7 {fill: #808074;}
        .stroke8 {fill: #808073;}
        .stroke9 {fill: #808072;}
        .stroke10 {fill: #808071;}
        .stroke11 {fill: #808070;}
        .stroke12 {fill: #808069;}
        .stroke13 {fill: #808068;}
        .stroke14 {fill: #808067;}
        .stroke15 {fill: #808066;}
        .stroke16 {fill: #808065;}
        .stroke17 {fill: #808064;}
        .stroke18 {fill: #808063;}
        .stroke19 {fill: #808062;}
        .stroke20 {fill: #808061;}
        text {
            font-family: Helvetica;
            font-size: 50px;
            fill: #808060;
            paint-order: stroke;
            stroke: #000000;
            stroke-width: 4px;
            stroke-linecap: butt;
            stroke-linejoin: miter;
            font-weight: 800;
        }
    </style>

    <path d="M 254 718 Q 285 693 319 662 Q 335 649 351 649 Q 363 650 368 664 Q 374 680 363 713 Q 356 735 321 751 Q 239 779 224 771 Q 218 767 220 753 Q 224 740 254 718 Z" class="stroke1"/>
    <path d="M 157 531 Q 211 477 245 464 Q 261 463 271 476 Q 277 491 273 508 Q 258 550 169 573 Q 151 577 141 573 Q 134 572 138 558 Q 139 545 157 531 Z" class="stroke2"/>
    <path d="M 146 166 Q 133 162 136 143 Q 154 62 190 44 Q 197 37 209 40 Q 216 41 217 69 Q 224 127 322 390 Q 329 408 327 414 Q 326 424 317 417 Q 304 410 187 211 Q 174 189 146 166 Z" class="stroke3"/>
    <path d="M 493 613 Q 559 613 567 615 Q 820 666 831 674 Q 841 684 836 694 Q 827 707 793 717 Q 769 723 638 685 Q 485 658 474 656 C 444 651 463 613 493 613 Z" class="stroke4"/>
    <path d="M 474 656 Q 464 663 446 672 Q 425 682 417 675 Q 410 668 417 653 Q 436 617 438 553 Q 445 366 431 194 Q 427 151 402 113 Q 392 97 401 75 Q 408 51 420 42 Q 430 33 450 47 Q 507 86 594 104 Q 694 123 887 123 Q 915 122 917 136 Q 916 154 883 177 Q 862 192 737 170 Q 565 151 512 139 Q 481 135 487 180 Q 490 343 490 546 Q 489 586 493 613 C 496 643 496 644 474 656 Z" class="stroke5"/>
    
    
    
    
    </g>
</svg>