<svg version="1.1" viewBox="0 0 1024 1024" xmlns="http://www.w3.org/2000/svg">
  
  <g transform="scale(1, -1) translate(0, -900)">
    <style type="text/css">
        .stroke1 {fill: #808080;}
        .stroke2 {fill: #808079;}
        .stroke3 {fill: #808078;}
        .stroke4 {fill: #808077;}
        .stroke5 {fill: #808076;}
        .stroke6 {fill: #808075;}
        .stroke7 {fill: #808074;}
        .stroke8 {fill: #808073;}
        .stroke9 {fill: #808072;}
        .stroke10 {fill: #808071;}
        .stroke11 {fill: #808070;}
        .stroke12 {fill: #808069;}
        .stroke13 {fill: #808068;}
        .stroke14 {fill: #808067;}
        .stroke15 {fill: #808066;}
        .stroke16 {fill: #808065;}
        .stroke17 {fill: #808064;}
        .stroke18 {fill: #808063;}
        .stroke19 {fill: #808062;}
        .stroke20 {fill: #808061;}
        text {
            font-family: Helvetica;
            font-size: 50px;
            fill: #808060;
            paint-order: stroke;
            stroke: #000000;
            stroke-width: 4px;
            stroke-linecap: butt;
            stroke-linejoin: miter;
            font-weight: 800;
        }
    </style>

    <path d="M 235 713 Q 263 691 293 664 Q 309 651 325 653 Q 335 654 341 668 Q 345 684 334 715 Q 322 746 227 763 Q 211 767 204 763 Q 198 759 201 745 Q 205 735 235 713 Z" class="stroke1"/>
    <path d="M 136 524 Q 182 472 222 454 Q 238 451 247 465 Q 253 478 250 495 Q 235 538 150 563 Q 149 564 148 564 Q 130 568 121 564 Q 115 563 118 550 Q 119 538 136 524 Z" class="stroke2"/>
    <path d="M 122 118 Q 109 114 112 96 Q 130 20 165 0 Q 172 -7 183 -3 Q 190 -2 191 24 Q 195 69 298 351 Q 305 367 303 374 Q 302 384 293 377 Q 278 368 164 165 Q 151 143 122 118 Z" class="stroke3"/>
    <path d="M 705 670 Q 792 691 799 697 Q 809 706 804 715 Q 795 728 764 735 Q 733 742 624 703 Q 495 675 442 668 Q 402 661 431 643 Q 471 622 551 637 Q 600 649 652 658 L 705 670 Z" class="stroke4"/>
    <path d="M 735 413 Q 793 416 931 417 Q 950 417 955 426 Q 961 436 944 450 Q 890 492 828 473 Q 786 467 735 456 L 684 447 Q 645 444 527 425 L 476 418 Q 410 411 340 401 Q 319 400 335 383 Q 348 370 366 364 Q 385 360 402 364 Q 436 374 474 381 L 524 390 Q 594 406 684 409 L 735 413 Z" class="stroke5"/>
    <path d="M 527 425 Q 531 471 534 526 Q 538 545 539 555 Q 545 574 525 584 Q 480 608 465 605 Q 446 602 461 581 Q 483 544 476 418 L 474 381 Q 473 377 473 369 Q 464 228 365 118 Q 361 115 358 111 Q 316 74 310 64 Q 309 57 320 57 Q 356 57 423 126 Q 495 204 515 330 Q 519 358 524 390 L 527 425 Z" class="stroke6"/>
    <path d="M 684 409 Q 684 -38 696 -67 Q 699 -71 702 -77 Q 708 -84 715 -82 Q 733 -70 736 -12 Q 743 76 740 165 Q 736 223 735 413 L 735 456 Q 735 579 746 626 Q 749 644 734 654 Q 718 664 705 670 C 678 684 640 686 652 658 Q 665 627 681 593 Q 684 572 684 447 L 684 409 Z" class="stroke7"/>
    
    
    
    
    
    
    </g>
</svg>