<svg version="1.1" viewBox="0 0 1024 1024" xmlns="http://www.w3.org/2000/svg">
  
  <g transform="scale(1, -1) translate(0, -900)">
    <style type="text/css">
        .stroke1 {fill: #808080;}
        .stroke2 {fill: #808079;}
        .stroke3 {fill: #808078;}
        .stroke4 {fill: #808077;}
        .stroke5 {fill: #808076;}
        .stroke6 {fill: #808075;}
        .stroke7 {fill: #808074;}
        .stroke8 {fill: #808073;}
        .stroke9 {fill: #808072;}
        .stroke10 {fill: #808071;}
        .stroke11 {fill: #808070;}
        .stroke12 {fill: #808069;}
        .stroke13 {fill: #808068;}
        .stroke14 {fill: #808067;}
        .stroke15 {fill: #808066;}
        .stroke16 {fill: #808065;}
        .stroke17 {fill: #808064;}
        .stroke18 {fill: #808063;}
        .stroke19 {fill: #808062;}
        .stroke20 {fill: #808061;}
        text {
            font-family: Helvetica;
            font-size: 50px;
            fill: #808060;
            paint-order: stroke;
            stroke: #000000;
            stroke-width: 4px;
            stroke-linecap: butt;
            stroke-linejoin: miter;
            font-weight: 800;
        }
    </style>

    <path d="M 263 720 Q 288 698 317 670 Q 333 655 351 656 Q 363 657 368 673 Q 374 689 363 723 Q 351 754 257 775 Q 239 779 232 775 Q 226 771 228 756 Q 232 743 263 720 Z" class="stroke1"/>
    <path d="M 165 523 Q 207 469 238 452 Q 253 448 263 461 Q 270 474 268 491 Q 264 516 246 530 Q 221 549 180 561 Q 164 568 154 564 Q 147 563 149 550 Q 150 538 165 523 Z" class="stroke2"/>
    <path d="M 144 179 Q 131 175 133 158 Q 145 85 179 63 Q 186 56 196 58 Q 203 59 206 85 Q 212 130 328 396 Q 335 412 335 418 Q 334 428 325 422 Q 310 413 188 223 Q 175 201 144 179 Z" class="stroke3"/>
    <path d="M 621 611 Q 693 627 773 644 Q 824 657 831 664 Q 841 673 836 683 Q 827 696 794 704 Q 761 710 647 670 Q 497 639 455 634 Q 413 627 443 608 Q 485 584 566 599 L 621 611 Z" class="stroke4"/>
    <path d="M 629 382 Q 794 418 799 423 Q 808 430 803 440 Q 796 452 766 460 Q 735 466 705 454 Q 668 442 630 431 L 580 418 Q 514 405 438 398 Q 401 392 427 374 Q 472 352 551 368 Q 564 371 580 373 L 629 382 Z" class="stroke5"/>
    <path d="M 624 177 Q 625 286 629 382 L 630 431 Q 633 597 634 598 Q 627 607 621 611 C 599 632 559 628 566 599 Q 576 563 580 474 Q 580 452 580 418 L 580 373 Q 579 294 578 172 C 578 142 624 147 624 177 Z" class="stroke6"/>
    <path d="M 578 172 Q 463 160 334 147 Q 312 146 328 127 Q 343 111 361 105 Q 383 99 401 103 Q 587 148 876 138 Q 898 138 919 137 Q 941 136 946 145 Q 953 158 935 173 Q 878 215 840 208 Q 759 195 624 177 L 578 172 Z" class="stroke7"/>
    
    
    
    
    
    
    </g>
</svg>