<svg version="1.1" viewBox="0 0 1024 1024" xmlns="http://www.w3.org/2000/svg">
  
  <g transform="scale(1, -1) translate(0, -900)">
    <style type="text/css">
        .stroke1 {fill: #808080;}
        .stroke2 {fill: #808079;}
        .stroke3 {fill: #808078;}
        .stroke4 {fill: #808077;}
        .stroke5 {fill: #808076;}
        .stroke6 {fill: #808075;}
        .stroke7 {fill: #808074;}
        .stroke8 {fill: #808073;}
        .stroke9 {fill: #808072;}
        .stroke10 {fill: #808071;}
        .stroke11 {fill: #808070;}
        .stroke12 {fill: #808069;}
        .stroke13 {fill: #808068;}
        .stroke14 {fill: #808067;}
        .stroke15 {fill: #808066;}
        .stroke16 {fill: #808065;}
        .stroke17 {fill: #808064;}
        .stroke18 {fill: #808063;}
        .stroke19 {fill: #808062;}
        .stroke20 {fill: #808061;}
        text {
            font-family: Helvetica;
            font-size: 50px;
            fill: #808060;
            paint-order: stroke;
            stroke: #000000;
            stroke-width: 4px;
            stroke-linecap: butt;
            stroke-linejoin: miter;
            font-weight: 800;
        }
    </style>

    <path d="M 223 715 Q 245 694 271 669 Q 287 656 304 657 Q 316 658 320 673 Q 324 689 315 721 Q 303 751 216 767 Q 200 771 192 767 Q 186 763 189 749 Q 193 736 223 715 Z" class="stroke1"/>
    <path d="M 109 527 Q 160 464 190 452 Q 205 448 215 461 Q 222 474 220 491 Q 211 533 124 566 Q 108 572 98 568 Q 91 567 93 554 Q 94 542 109 527 Z" class="stroke2"/>
    <path d="M 112 178 Q 99 175 101 157 Q 114 79 148 58 Q 155 51 166 54 Q 173 55 176 81 Q 183 126 308 415 Q 315 431 315 438 Q 314 448 305 442 Q 293 436 159 226 Q 144 202 112 178 Z" class="stroke3"/>
    <path d="M 447 642 Q 477 564 386 327 Q 376 305 366 284 Q 318 188 237 96 Q 233 90 229 85 Q 226 75 236 76 Q 266 76 346 173 Q 364 195 381 222 Q 415 280 444 351 L 451 372 Q 463 405 506 567 Q 510 583 516 598 Q 526 611 520 623 Q 508 639 485 654 C 461 672 439 671 447 642 Z" class="stroke4"/>
    <path d="M 595 186 Q 490 87 369 41 Q 342 34 344 29 Q 345 17 416 36 Q 530 67 629 144 L 668 182 Q 735 266 761 364 Q 773 416 801 440 Q 807 444 806 453 Q 803 475 747 502 Q 726 511 700 498 Q 690 491 656 479 Q 626 472 651 520 Q 729 667 753 682 Q 772 692 776 703 Q 780 716 736 741 Q 685 768 651 746 Q 459 683 381 676 Q 357 673 359 662 Q 360 652 393 642 Q 412 636 447 642 L 485 654 Q 495 660 644 700 Q 660 704 664 696 Q 671 678 612 543 Q 594 516 577 498 Q 561 482 569 465 Q 576 449 587 440 Q 596 433 604 434 Q 611 434 626 442 Q 635 448 665 454 Q 695 455 705 443 Q 715 431 703 391 Q 681 286 635 232 Q 631 226 626 220 L 595 186 Z" class="stroke5"/>
    <path d="M 629 144 Q 734 24 769 19 Q 931 19 942 20 Q 981 23 978 34 Q 975 40 796 103 Q 750 124 668 182 L 626 220 Q 575 269 523 330 Q 487 369 451 372 C 422 378 420 369 444 351 Q 495 318 595 186 L 629 144 Z" class="stroke6"/>
    
    
    
    
    
    </g>
</svg>