<svg version="1.1" viewBox="0 0 1024 1024" xmlns="http://www.w3.org/2000/svg">
  
  <g transform="scale(1, -1) translate(0, -900)">
    <style type="text/css">
        .stroke1 {fill: #808080;}
        .stroke2 {fill: #808079;}
        .stroke3 {fill: #808078;}
        .stroke4 {fill: #808077;}
        .stroke5 {fill: #808076;}
        .stroke6 {fill: #808075;}
        .stroke7 {fill: #808074;}
        .stroke8 {fill: #808073;}
        .stroke9 {fill: #808072;}
        .stroke10 {fill: #808071;}
        .stroke11 {fill: #808070;}
        .stroke12 {fill: #808069;}
        .stroke13 {fill: #808068;}
        .stroke14 {fill: #808067;}
        .stroke15 {fill: #808066;}
        .stroke16 {fill: #808065;}
        .stroke17 {fill: #808064;}
        .stroke18 {fill: #808063;}
        .stroke19 {fill: #808062;}
        .stroke20 {fill: #808061;}
        text {
            font-family: Helvetica;
            font-size: 50px;
            fill: #808060;
            paint-order: stroke;
            stroke: #000000;
            stroke-width: 4px;
            stroke-linecap: butt;
            stroke-linejoin: miter;
            font-weight: 800;
        }
    </style>

    <path d="M 275 668 Q 299 646 325 619 Q 341 604 358 605 Q 371 605 376 621 Q 382 637 372 671 Q 360 702 269 722 Q 251 726 244 723 Q 238 719 240 704 Q 244 691 275 668 Z" class="stroke1"/>
    <path d="M 170 466 Q 212 417 248 404 Q 264 401 275 417 Q 281 430 277 450 Q 268 475 248 489 Q 212 511 166 511 Q 157 512 153 509 Q 146 508 150 494 Q 151 481 170 466 Z" class="stroke2"/>
    <path d="M 144 118 Q 132 114 134 96 Q 152 18 185 -1 Q 192 -8 202 -5 Q 211 -4 211 23 Q 217 65 325 343 Q 332 359 331 366 Q 330 376 321 369 Q 311 363 187 164 Q 174 142 144 118 Z" class="stroke3"/>
    <path d="M 765 397 Q 795 481 829 506 Q 847 525 831 545 Q 749 608 693 576 Q 653 561 616 550 L 566 538 Q 499 525 431 515 Q 412 514 415 503 Q 418 494 438 488 Q 466 476 503 489 Q 531 496 562 501 L 612 512 Q 652 522 693 530 Q 718 536 727 526 Q 737 516 734 495 Q 722 434 707 385 C 699 356 755 369 765 397 Z" class="stroke4"/>
    <path d="M 590 327 Q 666 346 873 350 Q 933 350 940 360 Q 946 373 928 386 Q 865 428 805 406 Q 786 403 765 397 L 707 385 Q 614 372 595 365 L 542 357 Q 457 347 368 331 Q 347 328 363 311 Q 390 287 446 297 Q 485 307 534 317 L 590 327 Z" class="stroke5"/>
    <path d="M 616 550 Q 629 697 657 757 Q 666 772 654 785 Q 632 806 590 820 Q 563 829 554 822 Q 544 815 551 801 Q 573 761 574 710 Q 573 622 566 538 L 562 501 Q 555 417 542 357 L 534 317 Q 504 164 381 66 Q 312 18 312 15 Q 313 11 326 11 Q 342 7 381 21 Q 534 73 581 290 L 595 365 Q 599 390 602 418 Q 606 466 612 512 L 616 550 Z" class="stroke6"/>
    <path d="M 581 290 Q 758 -11 817 -12 Q 883 -3 939 4 Q 964 7 963 13 Q 964 20 937 36 Q 790 109 728 172 Q 641 259 590 327 L 588 327 C 567 348 566 316 581 290 Z" class="stroke7"/>
    
    
    
    
    
    
    </g>
</svg>