<svg version="1.1" viewBox="0 0 1024 1024" xmlns="http://www.w3.org/2000/svg">
  
  <g transform="scale(1, -1) translate(0, -900)">
    <style type="text/css">
        .stroke1 {fill: #808080;}
        .stroke2 {fill: #808079;}
        .stroke3 {fill: #808078;}
        .stroke4 {fill: #808077;}
        .stroke5 {fill: #808076;}
        .stroke6 {fill: #808075;}
        .stroke7 {fill: #808074;}
        .stroke8 {fill: #808073;}
        .stroke9 {fill: #808072;}
        .stroke10 {fill: #808071;}
        .stroke11 {fill: #808070;}
        .stroke12 {fill: #808069;}
        .stroke13 {fill: #808068;}
        .stroke14 {fill: #808067;}
        .stroke15 {fill: #808066;}
        .stroke16 {fill: #808065;}
        .stroke17 {fill: #808064;}
        .stroke18 {fill: #808063;}
        .stroke19 {fill: #808062;}
        .stroke20 {fill: #808061;}
        text {
            font-family: Helvetica;
            font-size: 50px;
            fill: #808060;
            paint-order: stroke;
            stroke: #000000;
            stroke-width: 4px;
            stroke-linecap: butt;
            stroke-linejoin: miter;
            font-weight: 800;
        }
    </style>

    <path d="M 223 699 Q 248 678 275 653 Q 291 640 308 641 Q 320 642 325 656 Q 329 672 318 705 Q 306 735 216 751 Q 198 755 192 751 Q 186 747 189 733 Q 193 720 223 699 Z" class="stroke1"/>
    <path d="M 133 497 Q 185 446 223 432 Q 239 431 247 444 Q 251 457 248 475 Q 241 499 221 510 Q 173 538 129 539 Q 122 539 117 536 Q 110 535 114 522 Q 117 510 133 497 Z" class="stroke2"/>
    <path d="M 142 130 Q 129 126 133 107 Q 155 28 189 14 Q 196 7 207 10 Q 216 13 215 39 Q 218 84 307 363 Q 313 379 312 386 Q 311 396 301 389 Q 285 376 182 177 Q 169 155 142 130 Z" class="stroke3"/>
    <path d="M 488 706 Q 516 752 541 790 Q 551 803 536 818 Q 488 851 465 847 Q 455 844 457 830 Q 470 731 367 608 Q 355 602 317 552 Q 310 536 324 542 Q 343 545 368 565 Q 435 620 476 685 L 488 706 Z" class="stroke4"/>
    <path d="M 476 685 Q 521 660 579 675 Q 768 720 776 727 Q 785 736 780 744 Q 773 756 742 762 Q 711 766 681 754 Q 641 738 596 726 Q 547 713 488 706 C 458 702 449 699 476 685 Z" class="stroke5"/>
    <path d="M 450 561 Q 416 552 442 538 Q 487 519 537 535 Q 598 553 664 571 Q 692 580 697 585 Q 704 592 700 601 Q 693 611 663 616 Q 635 620 606 606 Q 573 593 537 580 Q 497 568 450 561 Z" class="stroke6"/>
    <path d="M 370 410 Q 355 409 362 393 Q 366 381 391 373 Q 416 364 439 372 Q 658 447 665 444 Q 674 438 669 419 Q 584 -20 937 -22 Q 958 -21 971 -15 Q 990 -8 982 19 Q 966 77 961 143 Q 960 176 953 184 Q 946 191 939 175 Q 909 76 887 56 Q 866 44 842 54 Q 799 64 762 97 Q 707 146 703 269 Q 700 378 759 444 Q 775 456 767 466 Q 758 481 702 502 Q 686 509 671 497 Q 625 469 509 437 Q 433 415 370 410 Z" class="stroke7"/>
    
    
    
    
    
    
    </g>
</svg>