<svg version="1.1" viewBox="0 0 1024 1024" xmlns="http://www.w3.org/2000/svg">
  
  <g transform="scale(1, -1) translate(0, -900)">
    <style type="text/css">
        .stroke1 {fill: #808080;}
        .stroke2 {fill: #808079;}
        .stroke3 {fill: #808078;}
        .stroke4 {fill: #808077;}
        .stroke5 {fill: #808076;}
        .stroke6 {fill: #808075;}
        .stroke7 {fill: #808074;}
        .stroke8 {fill: #808073;}
        .stroke9 {fill: #808072;}
        .stroke10 {fill: #808071;}
        .stroke11 {fill: #808070;}
        .stroke12 {fill: #808069;}
        .stroke13 {fill: #808068;}
        .stroke14 {fill: #808067;}
        .stroke15 {fill: #808066;}
        .stroke16 {fill: #808065;}
        .stroke17 {fill: #808064;}
        .stroke18 {fill: #808063;}
        .stroke19 {fill: #808062;}
        .stroke20 {fill: #808061;}
        text {
            font-family: Helvetica;
            font-size: 50px;
            fill: #808060;
            paint-order: stroke;
            stroke: #000000;
            stroke-width: 4px;
            stroke-linecap: butt;
            stroke-linejoin: miter;
            font-weight: 800;
        }
    </style>

    <path d="M 249 697 Q 268 676 288 651 Q 304 633 324 633 Q 337 633 344 649 Q 351 667 343 704 Q 334 732 247 757 Q 228 763 220 760 Q 213 756 214 739 Q 218 726 249 697 Z" class="stroke1"/>
    <path d="M 131 516 Q 173 459 207 443 Q 223 439 234 453 Q 241 466 240 486 Q 234 513 215 528 Q 194 544 147 558 Q 128 565 118 561 Q 111 560 113 546 Q 114 533 131 516 Z" class="stroke2"/>
    <path d="M 137 165 Q 125 161 129 143 Q 151 64 185 50 Q 192 43 204 47 Q 211 48 211 75 Q 212 114 295 383 Q 301 399 300 406 Q 299 416 289 409 Q 279 400 268 383 Q 219 290 175 210 Q 165 188 137 165 Z" class="stroke3"/>
    <path d="M 414 575 Q 401 581 366 584 Q 353 585 349 580 Q 342 573 353 556 Q 390 489 418 375 Q 424 341 445 319 Q 467 297 471 314 Q 474 326 473 341 L 469 377 Q 444 480 431 541 Q 430 542 432 542 C 430 569 430 569 414 575 Z" class="stroke4"/>
    <path d="M 810 421 Q 823 457 835 490 Q 851 536 886 567 Q 908 592 878 612 Q 850 634 821 651 Q 803 664 779 653 Q 746 640 695 630 Q 667 626 638 619 L 577 608 Q 529 599 414 575 C 385 569 403 533 432 542 Q 531 572 577 577 L 637 587 Q 691 596 766 605 Q 782 608 787 599 Q 802 575 748 429 C 738 401 800 393 810 421 Z" class="stroke5"/>
    <path d="M 636 367 Q 714 379 819 388 Q 829 389 831 398 Q 831 405 810 421 C 789 438 777 435 748 429 Q 690 417 636 404 L 578 394 Q 520 384 469 377 C 439 373 443 339 473 341 Q 477 341 486 342 Q 523 351 578 359 L 636 367 Z" class="stroke6"/>
    <path d="M 578 359 Q 578 -25 592 -51 Q 592 -52 595 -56 Q 611 -72 621 -49 Q 634 -6 636 367 L 636 404 Q 636 510 637 587 L 638 619 Q 641 751 662 784 Q 669 802 647 818 Q 620 839 574 850 Q 553 856 539 841 Q 529 831 542 819 Q 573 794 576 756 Q 577 698 577 608 L 577 577 Q 578 501 579 403 Q 579 399 578 394 L 578 359 Z" class="stroke7"/>
    
    
    
    
    
    
    </g>
</svg>