<svg version="1.1" viewBox="0 0 1024 1024" xmlns="http://www.w3.org/2000/svg">
  
  <g transform="scale(1, -1) translate(0, -900)">
    <style type="text/css">
        .stroke1 {fill: #808080;}
        .stroke2 {fill: #808079;}
        .stroke3 {fill: #808078;}
        .stroke4 {fill: #808077;}
        .stroke5 {fill: #808076;}
        .stroke6 {fill: #808075;}
        .stroke7 {fill: #808074;}
        .stroke8 {fill: #808073;}
        .stroke9 {fill: #808072;}
        .stroke10 {fill: #808071;}
        .stroke11 {fill: #808070;}
        .stroke12 {fill: #808069;}
        .stroke13 {fill: #808068;}
        .stroke14 {fill: #808067;}
        .stroke15 {fill: #808066;}
        .stroke16 {fill: #808065;}
        .stroke17 {fill: #808064;}
        .stroke18 {fill: #808063;}
        .stroke19 {fill: #808062;}
        .stroke20 {fill: #808061;}
        text {
            font-family: Helvetica;
            font-size: 50px;
            fill: #808060;
            paint-order: stroke;
            stroke: #000000;
            stroke-width: 4px;
            stroke-linecap: butt;
            stroke-linejoin: miter;
            font-weight: 800;
        }
    </style>

    <path d="M 229 706 Q 263 678 299 643 Q 314 628 331 629 Q 343 630 349 645 Q 353 661 344 693 Q 332 729 224 758 Q 208 762 200 759 Q 194 755 196 741 Q 200 728 229 706 Z" class="stroke1"/>
    <path d="M 141 501 Q 198 441 232 428 Q 248 425 259 441 Q 265 454 261 474 Q 249 517 156 544 Q 155 545 154 545 Q 135 549 125 545 Q 118 544 122 530 Q 123 517 141 501 Z" class="stroke2"/>
    <path d="M 120 146 Q 108 142 111 124 Q 129 46 165 29 Q 172 22 183 25 Q 190 26 191 53 Q 195 96 218 160 Q 291 382 291 386 Q 290 396 281 389 Q 269 382 160 190 Q 148 168 120 146 Z" class="stroke3"/>
    <path d="M 592 688 Q 608 718 625 734 Q 635 746 629 759 Q 625 772 594 795 Q 564 813 545 812 Q 526 809 535 787 Q 551 754 540 725 Q 504 629 449 539 Q 397 452 322 356 Q 312 346 310 339 Q 306 327 321 330 Q 379 346 516 556 Q 544 602 576 657 Q 577 661 578 663 L 592 688 Z" class="stroke4"/>
    <path d="M 578 663 Q 662 543 772 417 Q 791 396 824 398 Q 933 402 968 409 Q 978 412 980 417 Q 980 423 966 430 Q 806 490 738 551 Q 668 611 592 688 C 571 709 561 688 578 663 Z" class="stroke5"/>
    <path d="M 492 358 Q 501 367 627 400 Q 636 401 642 398 Q 651 394 650 377 Q 646 340 627 272 Q 623 248 599 254 Q 569 261 546 267 Q 531 270 535 261 Q 536 252 559 232 Q 590 202 606 171 Q 613 161 622 164 Q 629 165 645 186 Q 669 214 676 249 Q 700 370 716 383 Q 726 392 722 403 Q 715 415 680 438 Q 668 447 610 432 Q 607 432 471 396 C 442 388 465 345 492 358 Z" class="stroke6"/>
    <path d="M 869 104 Q 854 134 833 226 Q 832 242 825 246 Q 819 249 815 231 Q 794 132 777 101 Q 738 56 611 62 Q 562 63 525 79 Q 491 95 483 115 Q 456 169 492 358 C 497 384 497 384 471 396 Q 462 403 450 407 Q 437 411 429 407 Q 422 403 427 385 Q 440 346 436 310 Q 423 144 436 97 Q 440 72 464 50 Q 554 -16 734 11 Q 752 15 771 19 Q 817 32 864 62 Q 883 78 869 104 Z" class="stroke7"/>
    
    
    
    
    
    
    </g>
</svg>