<svg version="1.1" viewBox="0 0 1024 1024" xmlns="http://www.w3.org/2000/svg">
  
  <g transform="scale(1, -1) translate(0, -900)">
    <style type="text/css">
        .stroke1 {fill: #808080;}
        .stroke2 {fill: #808079;}
        .stroke3 {fill: #808078;}
        .stroke4 {fill: #808077;}
        .stroke5 {fill: #808076;}
        .stroke6 {fill: #808075;}
        .stroke7 {fill: #808074;}
        .stroke8 {fill: #808073;}
        .stroke9 {fill: #808072;}
        .stroke10 {fill: #808071;}
        .stroke11 {fill: #808070;}
        .stroke12 {fill: #808069;}
        .stroke13 {fill: #808068;}
        .stroke14 {fill: #808067;}
        .stroke15 {fill: #808066;}
        .stroke16 {fill: #808065;}
        .stroke17 {fill: #808064;}
        .stroke18 {fill: #808063;}
        .stroke19 {fill: #808062;}
        .stroke20 {fill: #808061;}
        text {
            font-family: Helvetica;
            font-size: 50px;
            fill: #808060;
            paint-order: stroke;
            stroke: #000000;
            stroke-width: 4px;
            stroke-linecap: butt;
            stroke-linejoin: miter;
            font-weight: 800;
        }
    </style>

    <path d="M 234 675 Q 259 651 285 624 Q 300 608 318 609 Q 331 610 336 625 Q 342 641 332 676 Q 326 695 295 710 Q 217 740 204 731 Q 198 727 200 712 Q 204 699 234 675 Z" class="stroke1"/>
    <path d="M 137 471 Q 192 411 229 397 Q 245 394 255 409 Q 261 422 257 440 Q 250 465 231 479 Q 167 521 124 514 Q 121 514 121 513 Q 114 512 118 498 Q 119 485 137 471 Z" class="stroke2"/>
    <path d="M 137 118 Q 124 114 127 96 Q 149 15 181 1 Q 188 -6 199 -3 Q 206 -2 207 25 Q 211 67 234 130 Q 307 349 307 354 Q 306 364 297 357 Q 287 351 176 161 Q 164 139 137 118 Z" class="stroke3"/>
    <path d="M 388 469 Q 361 487 333 494 Q 326 497 320 491 Q 313 485 322 473 Q 371 392 382 191 Q 383 127 424 97 Q 425 97 427 95 Q 440 91 445 109 L 445 146 Q 444 170 435 196 Q 431 241 421 298 Q 412 368 409 427 C 407 457 407 457 388 469 Z" class="stroke4"/>
    <path d="M 570 488 Q 494 478 388 469 C 358 466 379 422 409 427 Q 416 427 425 429 Q 488 444 570 457 L 617 466 Q 677 478 746 489 Q 780 496 796 480 Q 823 423 772 186 Q 769 164 760 162 Q 759 161 755 162 C 736 138 715 157 721 142 Q 731 114 755 62 Q 764 43 775 44 Q 791 47 803 74 Q 842 147 848 245 Q 858 306 865 377 Q 871 429 896 462 Q 915 483 901 497 Q 877 521 827 543 Q 808 555 772 542 Q 697 515 618 497 L 570 488 Z" class="stroke5"/>
    <path d="M 614 295 Q 651 304 690 310 Q 721 317 727 322 Q 734 329 731 337 Q 724 347 698 355 Q 673 359 615 340 L 570 328 Q 569 329 567 328 Q 524 318 472 314 Q 439 308 463 293 Q 496 275 566 286 Q 567 286 569 286 L 614 295 Z" class="stroke6"/>
    <path d="M 618 497 Q 621 662 641 752 Q 645 765 622 781 Q 582 802 554 806 Q 535 810 526 800 Q 517 790 528 774 Q 564 722 564 686 Q 568 592 570 488 L 570 457 Q 571 394 570 328 L 569 286 Q 568 228 564 163 C 562 133 610 142 611 172 Q 612 235 614 295 L 615 340 Q 616 404 617 466 L 618 497 Z" class="stroke7"/>
    <path d="M 445 109 Q 451 109 458 110 Q 543 129 721 142 C 751 144 770 146 755 162 Q 748 171 728 185 Q 710 195 611 172 L 564 163 Q 500 153 445 146 C 415 142 415 107 445 109 Z" class="stroke8"/>
    
    
    
    
    
    
    
    </g>
</svg>