<svg version="1.1" viewBox="0 0 1024 1024" xmlns="http://www.w3.org/2000/svg">
  
  <g transform="scale(1, -1) translate(0, -900)">
    <style type="text/css">
        .stroke1 {fill: #808080;}
        .stroke2 {fill: #808079;}
        .stroke3 {fill: #808078;}
        .stroke4 {fill: #808077;}
        .stroke5 {fill: #808076;}
        .stroke6 {fill: #808075;}
        .stroke7 {fill: #808074;}
        .stroke8 {fill: #808073;}
        .stroke9 {fill: #808072;}
        .stroke10 {fill: #808071;}
        .stroke11 {fill: #808070;}
        .stroke12 {fill: #808069;}
        .stroke13 {fill: #808068;}
        .stroke14 {fill: #808067;}
        .stroke15 {fill: #808066;}
        .stroke16 {fill: #808065;}
        .stroke17 {fill: #808064;}
        .stroke18 {fill: #808063;}
        .stroke19 {fill: #808062;}
        .stroke20 {fill: #808061;}
        text {
            font-family: Helvetica;
            font-size: 50px;
            fill: #808060;
            paint-order: stroke;
            stroke: #000000;
            stroke-width: 4px;
            stroke-linecap: butt;
            stroke-linejoin: miter;
            font-weight: 800;
        }
    </style>

    <path d="M 265 695 Q 287 673 309 648 Q 324 633 342 633 Q 354 634 360 649 Q 366 665 357 700 Q 348 730 261 750 Q 243 754 236 751 Q 230 747 232 732 Q 236 719 265 695 Z" class="stroke1"/>
    <path d="M 154 494 Q 179 454 217 436 Q 235 432 246 449 Q 253 465 250 485 Q 243 513 221 529 Q 191 544 150 544 Q 143 545 138 542 Q 131 541 133 525 Q 134 512 154 494 Z" class="stroke2"/>
    <path d="M 156 169 Q 143 165 146 146 Q 167 61 203 44 Q 210 37 223 40 Q 230 41 231 69 Q 238 132 338 405 Q 345 423 344 429 Q 343 441 332 433 Q 317 421 200 217 Q 187 193 156 169 Z" class="stroke3"/>
    <path d="M 529 448 Q 530 455 531 463 L 529 499 Q 508 599 503 661 C 501 687 501 687 476 694 Q 463 698 442 701 Q 429 705 425 698 Q 418 691 428 674 Q 459 608 479 502 Q 482 468 511 439 C 526 423 526 423 529 448 Z" class="stroke4"/>
    <path d="M 762 526 Q 802 641 843 668 Q 864 690 846 712 Q 827 728 764 759 Q 742 769 717 759 Q 621 720 476 694 C 446 689 474 653 503 661 Q 521 667 697 706 Q 721 712 730 703 Q 748 679 697 539 C 687 511 752 498 762 526 Z" class="stroke5"/>
    <path d="M 531 463 Q 540 462 551 465 Q 618 481 764 499 Q 776 500 776 510 Q 776 516 762 526 L 697 539 Q 696 540 693 539 Q 602 514 529 499 C 500 493 501 463 531 463 Z" class="stroke6"/>
    <path d="M 511 439 Q 511 438 512 433 Q 524 360 410 213 Q 406 209 401 202 Q 365 160 277 80 Q 270 74 279 72 Q 355 87 466 211 Q 467 215 472 218 Q 514 267 577 369 Q 586 382 592 388 Q 599 394 597 404 Q 596 414 583 425 Q 562 443 529 448 C 509 452 509 452 511 439 Z" class="stroke7"/>
    <path d="M 645 341 Q 632 187 639 155 Q 646 127 664 108 Q 718 51 876 52 Q 946 56 974 71 Q 1005 86 995 118 Q 980 163 974 239 Q 973 255 966 262 Q 957 268 952 247 Q 927 156 912 141 Q 897 119 792 121 Q 737 124 714 133 Q 695 143 690 155 Q 681 185 687 257 Q 697 338 715 374 Q 730 405 710 423 Q 661 466 643 463 Q 627 457 634 439 Q 653 399 645 341 Z" class="stroke8"/>
    
    
    
    
    
    
    
    </g>
</svg>