<svg version="1.1" viewBox="0 0 1024 1024" xmlns="http://www.w3.org/2000/svg">
  
  <g transform="scale(1, -1) translate(0, -900)">
    <style type="text/css">
        .stroke1 {fill: #808080;}
        .stroke2 {fill: #808079;}
        .stroke3 {fill: #808078;}
        .stroke4 {fill: #808077;}
        .stroke5 {fill: #808076;}
        .stroke6 {fill: #808075;}
        .stroke7 {fill: #808074;}
        .stroke8 {fill: #808073;}
        .stroke9 {fill: #808072;}
        .stroke10 {fill: #808071;}
        .stroke11 {fill: #808070;}
        .stroke12 {fill: #808069;}
        .stroke13 {fill: #808068;}
        .stroke14 {fill: #808067;}
        .stroke15 {fill: #808066;}
        .stroke16 {fill: #808065;}
        .stroke17 {fill: #808064;}
        .stroke18 {fill: #808063;}
        .stroke19 {fill: #808062;}
        .stroke20 {fill: #808061;}
        text {
            font-family: Helvetica;
            font-size: 50px;
            fill: #808060;
            paint-order: stroke;
            stroke: #000000;
            stroke-width: 4px;
            stroke-linecap: butt;
            stroke-linejoin: miter;
            font-weight: 800;
        }
    </style>

    <path d="M 242 693 Q 270 668 298 636 Q 314 620 333 621 Q 346 621 352 637 Q 359 653 349 690 Q 339 721 238 750 Q 219 754 212 752 Q 206 748 207 732 Q 211 719 242 693 Z" class="stroke1"/>
    <path d="M 151 492 Q 193 435 227 419 Q 243 415 254 429 Q 261 442 260 462 Q 254 489 235 504 Q 214 520 167 534 Q 148 541 138 537 Q 131 536 133 522 Q 134 509 151 492 Z" class="stroke2"/>
    <path d="M 117 178 Q 104 177 105 157 Q 114 79 147 57 Q 154 50 165 51 Q 172 52 176 78 Q 183 123 287 339 Q 294 355 295 362 Q 295 372 285 366 Q 276 362 155 210 Q 142 194 117 178 Z" class="stroke3"/>
    <path d="M 629 757 Q 578 715 422 654 Q 415 644 422 640 Q 455 631 634 685 Q 671 704 748 714 Q 767 713 773 722 Q 777 735 765 749 Q 741 768 691 793 Q 673 803 658 802 Q 649 798 647 785 Q 646 769 629 757 Z" class="stroke4"/>
    <path d="M 515 578 Q 542 533 568 522 Q 581 518 591 529 Q 598 541 597 556 Q 593 578 578 591 Q 529 624 506 615 Q 500 614 501 603 Q 502 593 515 578 Z" class="stroke5"/>
    <path d="M 454 228 Q 458 231 466 234 Q 614 304 727 405 Q 761 438 812 463 Q 839 478 827 493 Q 815 512 749 542 Q 724 555 695 539 Q 620 508 535 481 Q 450 460 376 450 Q 349 447 357 432 Q 367 416 400 406 Q 434 394 472 412 Q 557 451 670 487 Q 692 491 683 471 Q 677 452 621 396 Q 569 338 419 237 C 394 220 427 215 454 228 Z" class="stroke6"/>
    <path d="M 419 237 Q 400 240 379 238 Q 352 232 327 239 Q 309 243 306 234 Q 302 222 318 208 Q 336 189 400 197 Q 433 203 498 168 Q 600 111 719 41 Q 758 17 815 39 Q 888 66 958 91 Q 980 98 980 110 Q 981 120 923 121 Q 874 122 799 124 Q 730 125 670 147 Q 576 181 458 227 Q 457 228 454 228 L 419 237 Z" class="stroke7"/>
    
    
    
    
    
    
    </g>
</svg>