<svg version="1.1" viewBox="0 0 1024 1024" xmlns="http://www.w3.org/2000/svg">
  
  <g transform="scale(1, -1) translate(0, -900)">
    <style type="text/css">
        .stroke1 {fill: #808080;}
        .stroke2 {fill: #808079;}
        .stroke3 {fill: #808078;}
        .stroke4 {fill: #808077;}
        .stroke5 {fill: #808076;}
        .stroke6 {fill: #808075;}
        .stroke7 {fill: #808074;}
        .stroke8 {fill: #808073;}
        .stroke9 {fill: #808072;}
        .stroke10 {fill: #808071;}
        .stroke11 {fill: #808070;}
        .stroke12 {fill: #808069;}
        .stroke13 {fill: #808068;}
        .stroke14 {fill: #808067;}
        .stroke15 {fill: #808066;}
        .stroke16 {fill: #808065;}
        .stroke17 {fill: #808064;}
        .stroke18 {fill: #808063;}
        .stroke19 {fill: #808062;}
        .stroke20 {fill: #808061;}
        text {
            font-family: Helvetica;
            font-size: 50px;
            fill: #808060;
            paint-order: stroke;
            stroke: #000000;
            stroke-width: 4px;
            stroke-linecap: butt;
            stroke-linejoin: miter;
            font-weight: 800;
        }
    </style>

    <path d="M 245 678 Q 272 653 301 621 Q 316 605 334 606 Q 346 606 352 621 Q 359 637 350 672 Q 341 705 241 733 Q 223 737 216 735 Q 210 731 211 716 Q 215 703 245 678 Z" class="stroke1"/>
    <path d="M 134 482 Q 183 428 220 415 Q 236 414 247 428 Q 253 443 249 462 Q 234 505 170 520 Q 128 529 117 525 Q 110 524 114 510 Q 115 497 134 482 Z" class="stroke2"/>
    <path d="M 131 126 Q 118 122 121 104 Q 139 25 173 8 Q 180 1 191 4 Q 198 5 199 32 Q 205 77 313 363 Q 320 379 319 386 Q 318 396 309 389 Q 297 382 175 174 Q 162 150 131 126 Z" class="stroke3"/>
    <path d="M 486 588 Q 616 642 656 666 Q 702 690 742 702 Q 760 705 763 714 Q 766 726 752 736 Q 728 751 679 764 Q 663 771 648 767 Q 641 763 641 751 Q 642 715 472 606 C 447 590 458 576 486 588 Z" class="stroke4"/>
    <path d="M 472 606 Q 453 624 427 633 Q 412 637 404 629 Q 400 623 409 606 Q 428 578 426 538 Q 427 433 392 380 Q 380 365 386 354 Q 393 335 411 320 Q 424 310 440 323 Q 485 357 606 375 L 656 382 Q 732 391 828 384 Q 850 381 860 388 Q 867 394 861 405 Q 855 418 817 439 Q 799 449 718 437 Q 700 437 655 428 L 605 421 Q 541 411 480 395 Q 467 391 465 395 Q 455 402 460 421 Q 472 539 485 573 Q 488 582 486 588 C 487 594 487 594 472 606 Z" class="stroke5"/>
    <path d="M 606 375 Q 609 111 589 94 Q 580 87 567 91 Q 528 101 490 111 Q 478 114 479 106 Q 480 99 490 92 Q 569 26 597 -13 Q 612 -29 627 -16 Q 660 14 660 114 Q 657 181 656 382 L 655 428 Q 656 471 667 499 Q 676 518 659 531 Q 634 553 603 562 Q 585 569 577 561 Q 571 554 582 539 Q 604 502 604 458 Q 604 440 605 421 L 606 375 Z" class="stroke6"/>
    <path d="M 457 272 Q 418 214 371 163 Q 344 133 355 95 Q 359 76 383 84 Q 408 96 430 126 Q 461 168 472 208 Q 484 239 481 267 Q 478 277 472 279 Q 463 279 457 272 Z" class="stroke7"/>
    <path d="M 733 270 Q 788 212 854 131 Q 870 109 887 102 Q 897 101 905 111 Q 920 124 909 173 Q 899 227 736 304 Q 726 310 723 296 Q 722 281 733 270 Z" class="stroke8"/>
    
    
    
    
    
    
    
    </g>
</svg>