<svg version="1.1" viewBox="0 0 1024 1024" xmlns="http://www.w3.org/2000/svg">
  
  <g transform="scale(1, -1) translate(0, -900)">
    <style type="text/css">
        .stroke1 {fill: #808080;}
        .stroke2 {fill: #808079;}
        .stroke3 {fill: #808078;}
        .stroke4 {fill: #808077;}
        .stroke5 {fill: #808076;}
        .stroke6 {fill: #808075;}
        .stroke7 {fill: #808074;}
        .stroke8 {fill: #808073;}
        .stroke9 {fill: #808072;}
        .stroke10 {fill: #808071;}
        .stroke11 {fill: #808070;}
        .stroke12 {fill: #808069;}
        .stroke13 {fill: #808068;}
        .stroke14 {fill: #808067;}
        .stroke15 {fill: #808066;}
        .stroke16 {fill: #808065;}
        .stroke17 {fill: #808064;}
        .stroke18 {fill: #808063;}
        .stroke19 {fill: #808062;}
        .stroke20 {fill: #808061;}
        text {
            font-family: Helvetica;
            font-size: 50px;
            fill: #808060;
            paint-order: stroke;
            stroke: #000000;
            stroke-width: 4px;
            stroke-linecap: butt;
            stroke-linejoin: miter;
            font-weight: 800;
        }
    </style>

    <path d="M 218 701 Q 246 677 277 649 Q 292 636 309 637 Q 319 638 325 652 Q 329 668 319 699 Q 307 730 211 751 Q 195 754 188 751 Q 182 747 185 733 Q 189 723 218 701 Z" class="stroke1"/>
    <path d="M 117 517 Q 160 459 196 440 Q 212 436 223 449 Q 230 462 229 480 Q 217 532 135 556 L 134 557 Q 116 564 106 560 Q 99 559 101 546 Q 102 533 117 517 Z" class="stroke2"/>
    <path d="M 126 174 Q 113 171 116 153 Q 128 75 164 55 Q 171 48 182 50 Q 189 51 192 78 Q 199 126 304 383 Q 311 399 311 406 Q 310 416 301 409 Q 286 400 168 216 Q 155 195 126 174 Z" class="stroke3"/>
    <path d="M 455 584 Q 501 665 503 666 Q 502 670 501 673 Q 497 683 472 699 Q 448 712 433 710 Q 418 707 426 690 Q 441 671 407 588 Q 391 551 367 510 Q 360 500 358 495 Q 357 486 368 489 Q 390 496 434 555 Q 438 562 444 568 L 455 584 Z" class="stroke4"/>
    <path d="M 622 566 Q 763 594 775 603 Q 784 610 779 620 Q 772 632 742 639 Q 718 645 623 615 L 575 603 Q 521 593 462 586 Q 458 586 455 584 C 430 578 430 578 444 568 Q 456 556 490 548 Q 494 548 576 556 L 622 566 Z" class="stroke5"/>
    <path d="M 622 408 Q 701 420 821 423 Q 881 427 885 434 Q 889 446 873 458 Q 822 492 758 478 Q 701 466 621 447 L 575 439 Q 472 423 355 402 Q 336 399 351 383 Q 364 370 382 366 Q 403 362 418 366 Q 479 387 552 397 L 622 408 Z" class="stroke6"/>
    <path d="M 621 447 Q 621 504 622 566 L 623 615 Q 624 699 640 758 Q 650 774 646 788 Q 639 798 581 833 Q 556 849 535 834 Q 529 828 536 812 Q 570 763 573 711 Q 574 660 575 603 L 576 556 Q 576 555 577 551 Q 576 496 575 439 L 574 334 Q 574 175 549 84 Q 539 42 566 -21 Q 573 -40 581 -43 Q 588 -50 595 -41 Q 604 -37 614 -15 Q 624 12 623 44 Q 622 84 621 366 L 621 447 Z" class="stroke7"/>
    <path d="M 552 397 Q 480 259 291 119 Q 279 107 288 105 Q 307 96 390 146 Q 480 203 574 334 C 629 409 567 425 552 397 Z" class="stroke8"/>
    <path d="M 621 366 Q 697 258 795 142 Q 814 121 844 122 Q 947 125 981 130 Q 991 131 992 137 Q 992 141 979 149 Q 832 206 763 268 Q 697 328 622 408 L 621 408 C 599 428 604 390 621 366 Z" class="stroke9"/>
    
    
    
    
    
    
    
    
    </g>
</svg>