<svg version="1.1" viewBox="0 0 1024 1024" xmlns="http://www.w3.org/2000/svg">
  
  <g transform="scale(1, -1) translate(0, -900)">
    <style type="text/css">
        .stroke1 {fill: #808080;}
        .stroke2 {fill: #808079;}
        .stroke3 {fill: #808078;}
        .stroke4 {fill: #808077;}
        .stroke5 {fill: #808076;}
        .stroke6 {fill: #808075;}
        .stroke7 {fill: #808074;}
        .stroke8 {fill: #808073;}
        .stroke9 {fill: #808072;}
        .stroke10 {fill: #808071;}
        .stroke11 {fill: #808070;}
        .stroke12 {fill: #808069;}
        .stroke13 {fill: #808068;}
        .stroke14 {fill: #808067;}
        .stroke15 {fill: #808066;}
        .stroke16 {fill: #808065;}
        .stroke17 {fill: #808064;}
        .stroke18 {fill: #808063;}
        .stroke19 {fill: #808062;}
        .stroke20 {fill: #808061;}
        text {
            font-family: Helvetica;
            font-size: 50px;
            fill: #808060;
            paint-order: stroke;
            stroke: #000000;
            stroke-width: 4px;
            stroke-linecap: butt;
            stroke-linejoin: miter;
            font-weight: 800;
        }
    </style>

    <path d="M 230 699 Q 261 671 293 637 Q 306 624 323 623 Q 335 623 341 637 Q 345 652 338 684 Q 329 720 227 749 Q 211 753 204 751 Q 198 747 200 734 Q 203 722 230 699 Z" class="stroke1"/>
    <path d="M 147 488 Q 192 431 227 414 Q 243 410 254 425 Q 261 438 260 458 Q 247 506 164 530 L 163 531 Q 144 537 134 533 Q 127 532 129 518 Q 130 505 147 488 Z" class="stroke2"/>
    <path d="M 135 130 Q 122 129 123 110 Q 126 35 163 8 Q 169 1 180 2 Q 189 3 192 29 Q 204 83 330 324 Q 339 339 338 345 Q 339 355 328 350 Q 309 337 188 179 Q 146 139 135 130 Z" class="stroke3"/>
    <path d="M 493 630 Q 517 627 660 653 Q 820 684 830 691 Q 840 698 835 708 Q 828 720 798 728 Q 773 734 657 700 Q 567 682 487 670 C 457 665 463 630 493 630 Z" class="stroke4"/>
    <path d="M 741 331 Q 778 419 818 444 Q 837 463 823 483 Q 807 499 752 528 Q 733 538 710 530 Q 628 499 484 476 C 454 471 453 437 483 441 Q 492 441 691 477 Q 713 481 721 473 Q 734 455 687 339 C 676 311 729 303 741 331 Z" class="stroke5"/>
    <path d="M 476 267 Q 491 263 505 265 Q 584 281 754 294 Q 766 295 767 305 Q 767 312 741 331 C 726 342 717 341 687 339 Q 684 340 681 339 Q 567 314 477 302 C 447 298 447 273 476 267 Z" class="stroke6"/>
    <path d="M 484 476 Q 487 552 493 630 C 495 660 496 666 487 670 Q 444 694 423 695 Q 410 696 402 689 Q 392 682 407 665 Q 443 619 427 278 Q 414 113 390 93 Q 371 74 383 57 Q 390 41 405 28 Q 421 15 439 30 Q 487 88 813 89 Q 861 90 887 87 Q 926 81 935 103 L 935 105 Q 934 120 898 141 Q 864 160 843 158 Q 812 155 575 117 Q 484 98 477 107 Q 467 117 473 166 Q 474 191 476 253 Q 476 259 476 267 L 477 302 Q 478 351 483 441 L 484 476 Z" class="stroke7"/>
    
    
    
    
    
    
    </g>
</svg>