<svg version="1.1" viewBox="0 0 1024 1024" xmlns="http://www.w3.org/2000/svg">
  
  <g transform="scale(1, -1) translate(0, -900)">
    <style type="text/css">
        .stroke1 {fill: #808080;}
        .stroke2 {fill: #808079;}
        .stroke3 {fill: #808078;}
        .stroke4 {fill: #808077;}
        .stroke5 {fill: #808076;}
        .stroke6 {fill: #808075;}
        .stroke7 {fill: #808074;}
        .stroke8 {fill: #808073;}
        .stroke9 {fill: #808072;}
        .stroke10 {fill: #808071;}
        .stroke11 {fill: #808070;}
        .stroke12 {fill: #808069;}
        .stroke13 {fill: #808068;}
        .stroke14 {fill: #808067;}
        .stroke15 {fill: #808066;}
        .stroke16 {fill: #808065;}
        .stroke17 {fill: #808064;}
        .stroke18 {fill: #808063;}
        .stroke19 {fill: #808062;}
        .stroke20 {fill: #808061;}
        text {
            font-family: Helvetica;
            font-size: 50px;
            fill: #808060;
            paint-order: stroke;
            stroke: #000000;
            stroke-width: 4px;
            stroke-linecap: butt;
            stroke-linejoin: miter;
            font-weight: 800;
        }
    </style>

    <path d="M 232 708 Q 254 686 279 658 Q 292 645 308 644 Q 318 644 325 657 Q 331 672 323 702 Q 319 721 290 735 Q 229 765 208 759 Q 202 755 204 742 Q 207 732 232 708 Z" class="stroke1"/>
    <path d="M 132 520 Q 177 471 211 457 Q 226 454 235 469 Q 241 482 238 499 Q 226 536 145 560 L 144 560 Q 126 564 117 560 Q 111 559 114 546 Q 115 534 132 520 Z" class="stroke2"/>
    <path d="M 131 166 Q 121 162 124 146 Q 145 80 178 64 Q 185 58 195 62 Q 202 63 200 87 Q 200 129 264 366 Q 268 382 267 387 Q 266 396 258 389 Q 249 382 163 207 Q 154 188 131 166 Z" class="stroke3"/>
    <path d="M 343 473 Q 330 433 311 396 Q 298 366 317 338 Q 326 323 342 337 Q 375 371 372 426 Q 372 454 363 476 Q 359 483 353 483 Q 346 480 343 473 Z" class="stroke4"/>
    <path d="M 400 648 Q 436 594 423 379 Q 416 322 392 256 Q 371 193 286 100 Q 273 87 269 80 Q 268 73 280 74 Q 322 77 386 155 Q 458 242 473 381 Q 483 466 481 594 Q 484 615 485 626 Q 489 647 468 656 Q 417 678 403 674 Q 382 670 400 648 Z" class="stroke5"/>
    <path d="M 504 459 Q 526 411 545 399 Q 555 395 564 401 Q 571 408 572 422 Q 572 452 520 484 Q 510 491 502 490 Q 498 490 497 481 Q 496 472 504 459 Z" class="stroke6"/>
    <path d="M 578 666 Q 624 549 582 272 Q 569 218 604 182 Q 613 172 622 182 Q 647 219 646 287 Q 642 296 641 504 Q 640 570 649 637 Q 655 659 635 669 Q 596 693 582 687 Q 575 680 578 666 Z" class="stroke7"/>
    <path d="M 687 470 Q 703 446 721 417 Q 728 404 742 401 Q 751 400 757 409 Q 764 419 763 445 Q 763 463 741 480 Q 690 517 676 514 Q 672 513 670 502 Q 671 492 687 470 Z" class="stroke8"/>
    <path d="M 778 72 Q 768 30 795 -30 Q 802 -48 810 -51 Q 817 -58 824 -50 Q 851 -28 849 33 Q 833 613 860 724 Q 869 740 866 753 Q 859 763 802 797 Q 778 813 757 797 Q 753 793 759 776 Q 795 727 795 669 Q 811 234 783 91 Q 780 82 778 72 Z" class="stroke9"/>
    
    
    
    
    
    
    
    
    </g>
</svg>