<svg version="1.1" viewBox="0 0 1024 1024" xmlns="http://www.w3.org/2000/svg">
  
  <g transform="scale(1, -1) translate(0, -900)">
    <style type="text/css">
        .stroke1 {fill: #808080;}
        .stroke2 {fill: #808079;}
        .stroke3 {fill: #808078;}
        .stroke4 {fill: #808077;}
        .stroke5 {fill: #808076;}
        .stroke6 {fill: #808075;}
        .stroke7 {fill: #808074;}
        .stroke8 {fill: #808073;}
        .stroke9 {fill: #808072;}
        .stroke10 {fill: #808071;}
        .stroke11 {fill: #808070;}
        .stroke12 {fill: #808069;}
        .stroke13 {fill: #808068;}
        .stroke14 {fill: #808067;}
        .stroke15 {fill: #808066;}
        .stroke16 {fill: #808065;}
        .stroke17 {fill: #808064;}
        .stroke18 {fill: #808063;}
        .stroke19 {fill: #808062;}
        .stroke20 {fill: #808061;}
        text {
            font-family: Helvetica;
            font-size: 50px;
            fill: #808060;
            paint-order: stroke;
            stroke: #000000;
            stroke-width: 4px;
            stroke-linecap: butt;
            stroke-linejoin: miter;
            font-weight: 800;
        }
    </style>

    <path d="M 257 711 Q 285 686 313 656 Q 328 641 346 641 Q 358 642 364 657 Q 370 673 361 708 Q 349 742 253 766 Q 235 770 228 767 Q 222 763 224 748 Q 228 735 257 711 Z" class="stroke1"/>
    <path d="M 133 549 Q 179 494 216 481 Q 232 477 242 493 Q 249 506 246 526 Q 239 553 218 566 Q 158 602 126 595 Q 120 596 117 593 Q 110 592 113 578 Q 116 565 133 549 Z" class="stroke2"/>
    <path d="M 143 205 Q 130 201 134 181 Q 156 102 195 86 Q 202 79 214 83 Q 221 86 220 112 Q 223 155 299 426 Q 306 444 304 450 Q 303 460 293 453 Q 283 444 180 250 Q 170 228 143 205 Z" class="stroke3"/>
    <path d="M 511 631 Q 562 700 615 769 Q 625 779 619 793 Q 615 806 586 827 Q 559 845 540 844 Q 522 843 531 820 Q 549 790 489 680 Q 461 631 422 575 Q 412 565 410 558 Q 407 548 421 550 Q 437 553 496 614 L 511 631 Z" class="stroke4"/>
    <path d="M 496 614 Q 538 595 569 604 Q 602 616 755 645 Q 777 648 787 637 Q 826 589 798 296 Q 771 164 758 124 Q 746 97 734 91 Q 730 88 657 118 Q 642 125 638 121 Q 634 114 648 98 Q 685 47 701 4 Q 722 -27 741 -22 Q 792 -7 834 128 Q 859 219 873 515 Q 876 591 896 617 Q 914 639 891 656 Q 816 704 771 689 Q 630 650 511 631 C 481 626 468 624 496 614 Z" class="stroke5"/>
    <path d="M 550 456 Q 599 532 600 536 Q 599 543 589 552 Q 565 573 538 568 Q 531 567 533 556 Q 540 532 512 475 L 493 442 Q 457 391 412 345 Q 406 341 414 339 Q 456 349 522 419 L 550 456 Z" class="stroke6"/>
    <path d="M 522 419 Q 583 373 586 371 Q 592 370 596 378 Q 603 388 592 417 Q 583 441 550 456 L 512 475 Q 464 496 437 504 Q 430 507 430 498 Q 430 492 493 442 L 522 419 Z" class="stroke7"/>
    <path d="M 652 308 Q 504 293 392 260 Q 374 256 379 277 Q 383 310 389 343 Q 393 365 385 378 Q 372 394 350 408 Q 340 414 330 412 Q 320 408 327 391 Q 345 346 336 304 Q 330 264 313 245 Q 295 229 302 217 Q 312 202 328 192 Q 340 185 349 192 Q 385 235 599 271 Q 623 275 639 274 C 669 274 682 311 652 308 Z" class="stroke8"/>
    <path d="M 639 274 Q 639 244 649 218 Q 656 202 669 211 Q 696 232 709 313 Q 731 395 743 408 Q 753 421 744 436 Q 728 452 698 475 Q 686 484 674 479 Q 667 476 667 463 Q 688 403 652 308 L 639 274 Z" class="stroke9"/>
    
    
    
    
    
    
    
    
    </g>
</svg>