<svg version="1.1" viewBox="0 0 1024 1024" xmlns="http://www.w3.org/2000/svg">
  
  <g transform="scale(1, -1) translate(0, -900)">
    <style type="text/css">
        .stroke1 {fill: #808080;}
        .stroke2 {fill: #808079;}
        .stroke3 {fill: #808078;}
        .stroke4 {fill: #808077;}
        .stroke5 {fill: #808076;}
        .stroke6 {fill: #808075;}
        .stroke7 {fill: #808074;}
        .stroke8 {fill: #808073;}
        .stroke9 {fill: #808072;}
        .stroke10 {fill: #808071;}
        .stroke11 {fill: #808070;}
        .stroke12 {fill: #808069;}
        .stroke13 {fill: #808068;}
        .stroke14 {fill: #808067;}
        .stroke15 {fill: #808066;}
        .stroke16 {fill: #808065;}
        .stroke17 {fill: #808064;}
        .stroke18 {fill: #808063;}
        .stroke19 {fill: #808062;}
        .stroke20 {fill: #808061;}
        text {
            font-family: Helvetica;
            font-size: 50px;
            fill: #808060;
            paint-order: stroke;
            stroke: #000000;
            stroke-width: 4px;
            stroke-linecap: butt;
            stroke-linejoin: miter;
            font-weight: 800;
        }
    </style>

    <path d="M 212 718 Q 216 709 230 695 Q 269 661 302 623 Q 318 608 335 608 Q 350 608 355 627 Q 359 645 351 674 Q 345 699 286 722 Q 240 740 220 738 Q 218 738 217 737 Q 211 734 212 718 Z" class="stroke1"/>
    <path d="M 134 484 Q 182 429 221 416 Q 245 416 251 439 Q 253 450 250 464 Q 235 507 171 521 Q 127 531 118 527 Q 111 526 114 512 Q 116 499 134 484 Z" class="stroke2"/>
    <path d="M 131 126 Q 119 122 122 104 Q 139 25 173 8 Q 180 1 192 4 Q 198 6 200 32 Q 206 76 314 365 Q 321 380 319 388 Q 319 398 310 390 Q 298 384 175 174 Q 163 151 131 126 Z" class="stroke3"/>
    <path d="M 375 572 Q 406 500 382 385 Q 364 368 386 329 Q 392 317 398 312 Q 406 301 414 312 Q 429 329 431 439 Q 431 531 433 551 Q 435 571 394 588 Q 388 590 383 591 Q 376 592 371 585 Q 370 581 375 572 Z" class="stroke4"/>
    <path d="M 474 668 Q 508 630 495 416 Q 494 415 494 408 Q 480 281 433 169 Q 411 118 377 57 Q 372 49 372 44 Q 371 35 377 37 L 379 37 Q 416 49 484 188 L 496 219 Q 547 368 547 585 Q 547 613 555 643 Q 557 653 551 661 Q 531 676 506 686 Q 487 692 478 688 Q 468 680 474 668 Z" class="stroke5"/>
    <path d="M 750 651 Q 904 697 907 702 Q 917 710 911 718 Q 905 730 873 735 Q 849 739 750 702 Q 628 671 617 669 Q 580 661 608 645 Q 637 631 690 635 L 750 651 Z" class="stroke6"/>
    <path d="M 624 502 Q 596 514 583 514 Q 572 510 577 501 Q 610 435 581 325 Q 566 300 580 270 Q 584 262 592 251 Q 600 241 608 246 Q 631 267 632 335 Q 633 452 636 472 C 638 496 638 496 624 502 Z" class="stroke7"/>
    <path d="M 758 499 Q 795 507 821 510 Q 847 510 849 493 Q 860 351 844 331 Q 837 327 795 336 Q 765 343 764 338 Q 760 334 770 324 Q 823 286 855 256 Q 868 244 881 258 Q 906 294 904 351 L 901 445 Q 901 474 904 501 Q 907 519 898 527 Q 866 555 855 558 Q 845 561 837 553 Q 833 545 758 525 L 710 517 L 624 502 C 594 497 607 465 636 472 L 710 490 L 758 499 Z" class="stroke8"/>
    <path d="M 710 490 Q 710 400 706 143 Q 704 37 710 -12 Q 715 -53 731 -51 Q 733 -51 733 -50 Q 759 -33 760 147 Q 760 167 760 182 Q 757 245 758 499 L 758 525 Q 758 527 759 527 Q 759 563 768 612 Q 772 632 765 639 L 750 651 C 727 670 677 662 690 635 Q 710 605 710 517 L 710 490 Z" class="stroke9"/>
    
    
    
    
    
    
    
    
    </g>
</svg>