<svg version="1.1" viewBox="0 0 1024 1024" xmlns="http://www.w3.org/2000/svg">
  
  <g transform="scale(1, -1) translate(0, -900)">
    <style type="text/css">
        .stroke1 {fill: #808080;}
        .stroke2 {fill: #808079;}
        .stroke3 {fill: #808078;}
        .stroke4 {fill: #808077;}
        .stroke5 {fill: #808076;}
        .stroke6 {fill: #808075;}
        .stroke7 {fill: #808074;}
        .stroke8 {fill: #808073;}
        .stroke9 {fill: #808072;}
        .stroke10 {fill: #808071;}
        .stroke11 {fill: #808070;}
        .stroke12 {fill: #808069;}
        .stroke13 {fill: #808068;}
        .stroke14 {fill: #808067;}
        .stroke15 {fill: #808066;}
        .stroke16 {fill: #808065;}
        .stroke17 {fill: #808064;}
        .stroke18 {fill: #808063;}
        .stroke19 {fill: #808062;}
        .stroke20 {fill: #808061;}
        text {
            font-family: Helvetica;
            font-size: 50px;
            fill: #808060;
            paint-order: stroke;
            stroke: #000000;
            stroke-width: 4px;
            stroke-linecap: butt;
            stroke-linejoin: miter;
            font-weight: 800;
        }
    </style>

    <path d="M 250 692 Q 280 664 311 630 Q 324 615 342 615 Q 354 614 361 629 Q 367 645 359 678 Q 350 712 248 745 Q 232 749 224 747 Q 218 743 219 729 Q 223 716 250 692 Z" class="stroke1"/>
    <path d="M 143 504 Q 200 446 234 430 Q 250 427 259 441 Q 265 454 262 471 Q 247 516 158 542 Q 157 543 156 543 Q 138 549 129 544 Q 123 543 126 530 Q 127 518 143 504 Z" class="stroke2"/>
    <path d="M 145 142 Q 132 139 134 121 Q 147 42 180 22 Q 187 15 198 17 Q 205 18 208 44 Q 217 96 328 347 Q 335 363 335 370 Q 334 380 325 374 Q 310 365 188 183 Q 175 162 145 142 Z" class="stroke3"/>
    <path d="M 612 584 Q 619 638 625 686 L 628 718 Q 629 725 630 731 Q 633 749 636 761 Q 640 771 642 778 Q 646 788 627 802 Q 596 820 574 824 Q 559 827 552 820 Q 545 813 552 799 Q 565 780 567 767 Q 574 679 573 574 C 573 544 608 554 612 584 Z" class="stroke4"/>
    <path d="M 625 686 Q 658 680 723 696 Q 804 717 809 721 Q 816 728 812 737 Q 805 747 775 753 Q 747 757 718 743 Q 696 734 672 728 Q 651 724 628 718 C 599 711 595 690 625 686 Z" class="stroke5"/>
    <path d="M 478 564 Q 457 582 432 588 Q 423 589 417 582 Q 414 576 422 566 Q 461 463 431 288 Q 418 222 420 213 Q 430 180 441 168 Q 451 155 461 168 Q 486 195 487 361 Q 487 491 493 534 C 495 551 495 551 478 564 Z" class="stroke6"/>
    <path d="M 724 248 Q 717 224 730 202 Q 745 174 754 174 Q 769 175 784 209 Q 799 234 797 256 Q 767 475 804 539 Q 817 572 805 573 Q 777 597 732 616 Q 716 622 692 613 Q 655 597 612 584 L 573 574 Q 521 567 478 564 C 448 562 463 529 493 534 Q 494 534 606 554 Q 693 573 713 561 Q 723 539 729 475 Q 733 285 724 248 Z" class="stroke7"/>
    <path d="M 573 396 Q 583 177 495 87 Q 485 80 475 70 Q 438 39 353 -3 Q 341 -7 338 -11 Q 334 -15 348 -18 Q 399 -22 501 37 Q 624 112 625 338 Q 625 387 638 427 Q 642 437 634 444 Q 616 459 583 471 Q 564 480 548 474 Q 530 467 545 451 Q 572 424 573 396 Z" class="stroke8"/>
    <path d="M 673 132 Q 719 77 773 0 Q 786 -22 800 -28 Q 809 -31 817 -22 Q 830 -10 824 34 Q 821 86 678 162 Q 671 169 667 157 Q 664 144 673 132 Z" class="stroke9"/>
    
    
    
    
    
    
    
    
    </g>
</svg>