<svg version="1.1" viewBox="0 0 1024 1024" xmlns="http://www.w3.org/2000/svg">
  
  <g transform="scale(1, -1) translate(0, -900)">
    <style type="text/css">
        .stroke1 {fill: #808080;}
        .stroke2 {fill: #808079;}
        .stroke3 {fill: #808078;}
        .stroke4 {fill: #808077;}
        .stroke5 {fill: #808076;}
        .stroke6 {fill: #808075;}
        .stroke7 {fill: #808074;}
        .stroke8 {fill: #808073;}
        .stroke9 {fill: #808072;}
        .stroke10 {fill: #808071;}
        .stroke11 {fill: #808070;}
        .stroke12 {fill: #808069;}
        .stroke13 {fill: #808068;}
        .stroke14 {fill: #808067;}
        .stroke15 {fill: #808066;}
        .stroke16 {fill: #808065;}
        .stroke17 {fill: #808064;}
        .stroke18 {fill: #808063;}
        .stroke19 {fill: #808062;}
        .stroke20 {fill: #808061;}
        text {
            font-family: Helvetica;
            font-size: 50px;
            fill: #808060;
            paint-order: stroke;
            stroke: #000000;
            stroke-width: 4px;
            stroke-linecap: butt;
            stroke-linejoin: miter;
            font-weight: 800;
        }
    </style>

    <path d="M 253 699 Q 281 674 309 644 Q 324 629 342 629 Q 354 630 360 645 Q 366 661 357 696 Q 345 730 249 754 Q 231 758 224 755 Q 218 751 220 736 Q 224 723 253 699 Z" class="stroke1"/>
    <path d="M 148 507 Q 199 443 237 420 Q 253 416 263 429 Q 270 442 269 459 Q 262 501 164 545 Q 148 551 138 548 Q 131 547 133 535 Q 134 522 148 507 Z" class="stroke2"/>
    <path d="M 137 133 Q 125 129 128 111 Q 150 32 185 18 Q 192 11 204 15 Q 211 16 210 43 Q 216 109 299 363 Q 305 379 304 386 Q 303 396 293 389 Q 281 380 176 180 Q 164 158 137 133 Z" class="stroke3"/>
    <path d="M 499 720 Q 459 713 487 695 Q 529 668 593 684 Q 671 700 752 716 Q 789 725 795 729 Q 805 738 799 747 Q 792 760 760 768 Q 727 774 695 761 Q 653 748 608 736 Q 557 726 499 720 Z" class="stroke4"/>
    <path d="M 446 559 Q 421 493 372 433 Q 362 421 365 408 Q 366 396 383 384 Q 420 350 453 311 Q 469 292 483 292 Q 496 293 501 316 Q 504 341 492 357 Q 485 372 432 389 Q 413 395 405 409 Q 399 419 414 433 Q 439 461 484 521 Q 503 546 521 557 Q 537 564 530 584 Q 517 621 493 636 Q 478 646 466 643 Q 454 642 459 622 Q 466 597 446 559 Z" class="stroke5"/>
    <path d="M 594 559 Q 579 510 547 464 Q 537 452 541 439 Q 542 429 560 416 Q 593 385 621 350 Q 637 332 652 332 Q 665 333 669 356 Q 672 381 659 397 Q 652 410 609 422 Q 588 428 580 442 Q 574 452 588 467 Q 604 485 634 524 Q 653 549 669 561 Q 684 571 676 589 Q 661 626 636 639 Q 621 648 609 645 Q 597 642 603 623 Q 612 598 594 559 Z" class="stroke6"/>
    <path d="M 782 598 Q 769 537 729 491 Q 719 481 717 471 Q 716 459 742 438 Q 770 413 807 367 Q 820 345 834 347 Q 850 348 857 368 Q 866 393 858 411 Q 849 435 772 460 Q 754 466 764 484 Q 770 494 804 529 Q 837 563 850 571 Q 862 575 864 584 Q 870 602 845 628 Q 826 653 805 658 Q 786 661 778 655 Q 775 651 780 640 Q 790 624 782 598 Z" class="stroke7"/>
    <path d="M 606 224 Q 666 237 731 250 Q 768 259 775 265 Q 784 272 779 281 Q 772 291 744 299 Q 719 305 620 273 Q 529 254 481 248 Q 445 242 471 226 Q 510 204 565 216 Q 566 217 568 216 L 606 224 Z" class="stroke8"/>
    <path d="M 621 70 Q 639 188 639 191 L 638 192 Q 622 211 606 224 C 583 243 562 245 568 216 Q 575 189 571 64 C 570 34 616 40 621 70 Z" class="stroke9"/>
    <path d="M 571 64 Q 451 54 314 39 Q 292 38 308 19 Q 323 3 341 -3 Q 363 -10 381 -5 Q 567 40 867 31 Q 889 31 911 29 Q 933 28 938 37 Q 945 50 927 65 Q 870 108 832 101 Q 753 88 621 70 L 571 64 Z" class="stroke10"/>
    
    
    
    
    
    
    
    
    
    </g>
</svg>