<svg version="1.1" viewBox="0 0 1024 1024" xmlns="http://www.w3.org/2000/svg">
  
  <g transform="scale(1, -1) translate(0, -900)">
    <style type="text/css">
        .stroke1 {fill: #808080;}
        .stroke2 {fill: #808079;}
        .stroke3 {fill: #808078;}
        .stroke4 {fill: #808077;}
        .stroke5 {fill: #808076;}
        .stroke6 {fill: #808075;}
        .stroke7 {fill: #808074;}
        .stroke8 {fill: #808073;}
        .stroke9 {fill: #808072;}
        .stroke10 {fill: #808071;}
        .stroke11 {fill: #808070;}
        .stroke12 {fill: #808069;}
        .stroke13 {fill: #808068;}
        .stroke14 {fill: #808067;}
        .stroke15 {fill: #808066;}
        .stroke16 {fill: #808065;}
        .stroke17 {fill: #808064;}
        .stroke18 {fill: #808063;}
        .stroke19 {fill: #808062;}
        .stroke20 {fill: #808061;}
        text {
            font-family: Helvetica;
            font-size: 50px;
            fill: #808060;
            paint-order: stroke;
            stroke: #000000;
            stroke-width: 4px;
            stroke-linecap: butt;
            stroke-linejoin: miter;
            font-weight: 800;
        }
    </style>

    <path d="M 222 707 Q 249 683 277 655 Q 293 640 310 641 Q 323 641 328 657 Q 334 673 324 707 Q 312 743 217 762 Q 199 766 192 763 Q 186 759 188 744 Q 192 731 222 707 Z" class="stroke1"/>
    <path d="M 128 501 Q 176 456 210 446 Q 226 445 235 460 Q 239 475 234 492 Q 224 517 204 528 Q 171 544 125 544 Q 115 545 108 541 Q 102 538 106 526 Q 110 513 128 501 Z" class="stroke2"/>
    <path d="M 124 150 Q 112 146 115 128 Q 133 50 169 33 Q 176 26 187 29 Q 194 30 195 57 Q 199 100 222 164 Q 295 386 295 390 Q 294 400 285 393 Q 273 386 164 194 Q 152 172 124 150 Z" class="stroke3"/>
    <path d="M 631 614 Q 749 713 778 722 Q 797 729 791 746 Q 788 762 722 798 Q 703 808 680 800 Q 613 776 510 748 Q 483 741 419 743 Q 395 744 403 724 Q 410 711 430 699 Q 461 683 495 702 Q 663 762 680 752 Q 693 743 686 730 Q 652 682 614 624 C 598 599 608 595 631 614 Z" class="stroke4"/>
    <path d="M 614 624 Q 608 630 547 637 Q 534 638 528 635 Q 524 631 526 619 Q 530 609 558 594 Q 582 578 608 557 Q 621 547 636 550 Q 646 551 649 564 Q 652 579 640 604 Q 636 611 631 614 L 614 624 Z" class="stroke5"/>
    <path d="M 425 491 Q 404 512 371 510 Q 356 506 362 493 Q 410 379 357 162 Q 350 137 339 118 Q 320 82 345 38 Q 348 34 353 27 Q 360 12 372 18 Q 409 43 419 176 Q 431 404 440 454 C 443 477 443 477 425 491 Z" class="stroke6"/>
    <path d="M 440 454 Q 447 454 456 456 Q 499 469 549 479 L 601 491 Q 739 524 755 510 Q 765 504 770 454 Q 783 286 775 96 Q 775 68 764 60 Q 751 50 677 62 Q 661 65 662 55 Q 663 48 677 42 Q 743 0 778 -34 Q 799 -53 812 -50 Q 824 -46 835 -18 Q 848 28 846 94 Q 830 338 829 427 Q 829 466 840 488 Q 852 510 841 521 Q 831 536 785 558 Q 763 568 704 548 Q 572 514 425 491 C 395 486 411 448 440 454 Z" class="stroke7"/>
    <path d="M 565 365 Q 532 359 498 354 Q 468 348 490 336 Q 520 321 565 328 L 617 340 Q 705 361 712 365 Q 719 372 715 379 Q 708 388 685 393 Q 666 396 619 381 L 565 365 Z" class="stroke8"/>
    <path d="M 564 250 Q 530 246 491 242 Q 463 238 483 223 Q 513 205 563 213 L 614 222 Q 647 229 685 235 Q 713 242 718 245 Q 725 252 722 258 Q 716 268 693 274 Q 672 280 615 262 L 564 250 Z" class="stroke9"/>
    <path d="M 549 479 Q 564 455 565 365 L 565 328 Q 564 292 564 250 L 563 213 Q 551 39 575 7 Q 579 0 587 2 Q 611 20 613 205 Q 613 214 614 222 L 615 262 Q 615 296 617 340 L 619 381 Q 619 409 629 455 Q 632 473 601 491 C 576 508 537 507 549 479 Z" class="stroke10"/>
    
    
    
    
    
    
    
    
    
    </g>
</svg>