<svg version="1.1" viewBox="0 0 1024 1024" xmlns="http://www.w3.org/2000/svg">
  
  <g transform="scale(1, -1) translate(0, -900)">
    <style type="text/css">
        .stroke1 {fill: #808080;}
        .stroke2 {fill: #808079;}
        .stroke3 {fill: #808078;}
        .stroke4 {fill: #808077;}
        .stroke5 {fill: #808076;}
        .stroke6 {fill: #808075;}
        .stroke7 {fill: #808074;}
        .stroke8 {fill: #808073;}
        .stroke9 {fill: #808072;}
        .stroke10 {fill: #808071;}
        .stroke11 {fill: #808070;}
        .stroke12 {fill: #808069;}
        .stroke13 {fill: #808068;}
        .stroke14 {fill: #808067;}
        .stroke15 {fill: #808066;}
        .stroke16 {fill: #808065;}
        .stroke17 {fill: #808064;}
        .stroke18 {fill: #808063;}
        .stroke19 {fill: #808062;}
        .stroke20 {fill: #808061;}
        text {
            font-family: Helvetica;
            font-size: 50px;
            fill: #808060;
            paint-order: stroke;
            stroke: #000000;
            stroke-width: 4px;
            stroke-linecap: butt;
            stroke-linejoin: miter;
            font-weight: 800;
        }
    </style>

    <path d="M 243 723 Q 271 698 301 668 Q 314 655 332 654 Q 342 655 349 669 Q 353 684 345 715 Q 339 737 307 752 Q 234 783 216 775 Q 210 771 212 758 Q 216 746 243 723 Z" class="stroke1"/>
    <path d="M 149 525 Q 197 474 235 460 Q 251 459 259 472 Q 265 485 261 503 Q 246 543 159 565 Q 143 569 133 564 Q 126 563 130 550 Q 131 538 149 525 Z" class="stroke2"/>
    <path d="M 136 166 Q 124 162 126 144 Q 144 66 177 47 Q 184 40 194 43 Q 203 44 203 71 Q 209 113 317 391 Q 324 407 323 414 Q 322 424 313 417 Q 303 411 179 212 Q 166 190 136 166 Z" class="stroke3"/>
    <path d="M 620 525 Q 633 702 648 785 Q 652 795 633 810 Q 599 828 577 831 Q 561 834 554 826 Q 547 819 555 805 Q 573 781 573 764 Q 582 649 581 515 C 581 485 618 495 620 525 Z" class="stroke4"/>
    <path d="M 418 663 Q 472 582 495 579 Q 510 576 518 595 Q 522 608 514 631 Q 505 650 480 662 Q 443 686 426 691 Q 416 694 414 681 Q 411 674 418 663 Z" class="stroke5"/>
    <path d="M 755 719 Q 728 679 675 618 Q 669 611 675 603 Q 682 602 691 606 Q 787 672 833 696 Q 852 700 848 712 Q 842 730 822 750 Q 801 769 777 772 Q 761 772 762 751 Q 765 736 755 719 Z" class="stroke6"/>
    <path d="M 477 256 Q 480 313 484 355 L 486 380 Q 489 449 495 475 C 499 497 499 497 488 505 Q 484 511 477 514 Q 446 530 427 530 Q 412 526 418 513 Q 466 404 411 167 Q 384 95 385 93 Q 385 56 405 31 Q 412 16 424 22 Q 472 55 473 194 Q 473 213 475 231 L 477 256 Z" class="stroke7"/>
    <path d="M 495 475 Q 591 491 688 510 Q 710 514 715 503 Q 736 449 730 136 Q 724 69 719 58 Q 713 52 694 57 Q 660 67 624 78 Q 603 85 604 75 Q 671 18 709 -23 Q 722 -44 739 -49 Q 749 -53 757 -42 Q 800 7 799 66 Q 769 441 797 491 Q 810 512 797 523 Q 775 542 735 558 Q 716 565 700 558 Q 651 536 620 525 L 581 515 Q 544 511 488 505 C 458 502 465 470 495 475 Z" class="stroke8"/>
    <path d="M 484 355 Q 512 343 593 356 Q 665 368 671 372 Q 678 379 674 386 Q 668 396 643 403 Q 618 407 592 398 Q 568 391 544 386 Q 516 382 486 380 C 456 378 456 365 484 355 Z" class="stroke9"/>
    <path d="M 475 231 Q 509 216 550 225 Q 602 234 655 244 Q 679 248 682 252 Q 689 259 686 266 Q 680 276 656 283 Q 635 287 558 267 Q 522 258 477 256 C 447 254 447 242 475 231 Z" class="stroke10"/>
    
    
    
    
    
    
    
    
    
    </g>
</svg>