<svg version="1.1" viewBox="0 0 1024 1024" xmlns="http://www.w3.org/2000/svg">
  
  <g transform="scale(1, -1) translate(0, -900)">
    <style type="text/css">
        .stroke1 {fill: #808080;}
        .stroke2 {fill: #808079;}
        .stroke3 {fill: #808078;}
        .stroke4 {fill: #808077;}
        .stroke5 {fill: #808076;}
        .stroke6 {fill: #808075;}
        .stroke7 {fill: #808074;}
        .stroke8 {fill: #808073;}
        .stroke9 {fill: #808072;}
        .stroke10 {fill: #808071;}
        .stroke11 {fill: #808070;}
        .stroke12 {fill: #808069;}
        .stroke13 {fill: #808068;}
        .stroke14 {fill: #808067;}
        .stroke15 {fill: #808066;}
        .stroke16 {fill: #808065;}
        .stroke17 {fill: #808064;}
        .stroke18 {fill: #808063;}
        .stroke19 {fill: #808062;}
        .stroke20 {fill: #808061;}
        text {
            font-family: Helvetica;
            font-size: 50px;
            fill: #808060;
            paint-order: stroke;
            stroke: #000000;
            stroke-width: 4px;
            stroke-linecap: butt;
            stroke-linejoin: miter;
            font-weight: 800;
        }
    </style>

    <path d="M 221 705 Q 254 680 289 648 Q 305 635 323 636 Q 336 637 340 652 Q 344 670 333 703 Q 326 725 289 741 Q 204 766 188 760 Q 182 754 185 740 Q 189 727 221 705 Z" class="stroke1"/>
    <path d="M 126 492 Q 183 437 222 423 Q 238 422 247 436 Q 251 451 248 468 Q 233 510 137 534 Q 118 538 109 533 Q 102 532 106 518 Q 109 505 126 492 Z" class="stroke2"/>
    <path d="M 117 122 Q 105 118 107 100 Q 119 25 156 3 Q 163 -4 174 -1 Q 181 0 183 26 Q 192 87 301 347 Q 308 363 307 370 Q 306 380 297 373 Q 282 364 161 168 Q 148 146 117 122 Z" class="stroke3"/>
    <path d="M 622 760 Q 571 715 429 653 Q 423 643 430 640 Q 463 633 623 693 Q 668 715 732 727 Q 750 727 754 736 Q 758 746 746 759 Q 724 777 677 795 Q 661 804 646 803 Q 639 799 637 787 Q 637 771 622 760 Z" class="stroke4"/>
    <path d="M 391 521 Q 416 497 444 469 Q 456 456 470 457 Q 480 457 485 469 Q 489 482 483 509 Q 479 528 449 544 Q 385 571 368 567 Q 364 563 364 552 Q 367 542 391 521 Z" class="stroke5"/>
    <path d="M 523 580 Q 554 529 579 512 Q 591 508 600 517 Q 607 527 607 541 Q 604 577 539 610 Q 526 616 518 614 Q 514 614 513 604 Q 513 594 523 580 Z" class="stroke6"/>
    <path d="M 758 615 Q 734 585 656 517 Q 644 502 661 504 Q 715 526 745 543 Q 811 582 835 587 Q 857 594 849 612 Q 839 630 816 646 Q 795 662 783 661 Q 771 661 773 648 Q 774 630 758 615 Z" class="stroke7"/>
    <path d="M 599 363 Q 651 385 717 393 Q 733 392 738 399 Q 742 409 732 421 Q 675 469 646 466 Q 639 463 637 453 Q 631 411 410 335 Q 404 328 409 324 Q 424 320 522 344 Q 538 348 555 351 L 599 363 Z" class="stroke8"/>
    <path d="M 619 219 Q 706 234 873 248 Q 885 245 895 259 Q 896 272 873 284 Q 831 309 757 287 Q 690 275 621 260 L 565 251 Q 517 245 475 241 Q 415 237 350 231 Q 319 228 342 209 Q 378 179 408 185 Q 478 198 565 211 L 619 219 Z" class="stroke9"/>
    <path d="M 612 93 Q 615 162 619 219 L 621 260 Q 622 276 623 291 Q 626 337 618 347 Q 608 357 599 363 C 575 381 547 380 555 351 Q 561 338 565 251 L 565 211 Q 565 162 566 86 C 566 56 611 63 612 93 Z" class="stroke10"/>
    <path d="M 566 86 Q 481 79 381 67 Q 359 66 375 47 Q 390 32 408 26 Q 430 20 447 24 Q 547 48 794 48 Q 807 48 820 46 Q 841 46 846 55 Q 853 67 835 81 Q 775 127 714 109 Q 671 103 612 93 L 566 86 Z" class="stroke11"/>
    
    
    
    
    
    
    
    
    
    
    </g>
</svg>