<svg version="1.1" viewBox="0 0 1024 1024" xmlns="http://www.w3.org/2000/svg">
  
  <g transform="scale(1, -1) translate(0, -900)">
    <style type="text/css">
        .stroke1 {fill: #808080;}
        .stroke2 {fill: #808079;}
        .stroke3 {fill: #808078;}
        .stroke4 {fill: #808077;}
        .stroke5 {fill: #808076;}
        .stroke6 {fill: #808075;}
        .stroke7 {fill: #808074;}
        .stroke8 {fill: #808073;}
        .stroke9 {fill: #808072;}
        .stroke10 {fill: #808071;}
        .stroke11 {fill: #808070;}
        .stroke12 {fill: #808069;}
        .stroke13 {fill: #808068;}
        .stroke14 {fill: #808067;}
        .stroke15 {fill: #808066;}
        .stroke16 {fill: #808065;}
        .stroke17 {fill: #808064;}
        .stroke18 {fill: #808063;}
        .stroke19 {fill: #808062;}
        .stroke20 {fill: #808061;}
        text {
            font-family: Helvetica;
            font-size: 50px;
            fill: #808060;
            paint-order: stroke;
            stroke: #000000;
            stroke-width: 4px;
            stroke-linecap: butt;
            stroke-linejoin: miter;
            font-weight: 800;
        }
    </style>

    <path d="M 226 699 Q 250 678 275 653 Q 291 638 310 639 Q 323 640 328 656 Q 332 675 321 709 Q 314 728 283 740 Q 211 764 192 756 Q 186 750 188 735 Q 192 722 226 699 Z" class="stroke1"/>
    <path d="M 130 505 Q 196 441 232 428 Q 248 425 258 440 Q 265 455 261 474 Q 245 522 144 548 Q 143 549 142 549 Q 123 553 113 549 Q 106 548 110 534 Q 111 521 130 505 Z" class="stroke2"/>
    <path d="M 125 182 Q 112 178 115 160 Q 127 85 164 63 Q 171 56 182 59 Q 191 60 191 87 Q 200 144 293 379 Q 300 395 299 402 Q 298 412 289 405 Q 279 399 164 222 Q 151 203 125 182 Z" class="stroke3"/>
    <path d="M 447 566 Q 496 624 551 711 Q 575 753 595 773 Q 605 783 600 798 Q 596 811 566 835 Q 538 854 518 854 Q 499 853 507 829 Q 520 801 510 778 Q 479 699 432 623 Q 386 551 323 472 Q 313 462 310 455 Q 306 443 321 446 Q 342 452 415 527 L 447 566 Z" class="stroke4"/>
    <path d="M 475 149 Q 479 414 491 481 Q 500 511 488 522 Q 469 544 455 559 Q 451 563 447 566 C 425 587 406 556 415 527 Q 439 451 442 440 Q 441 439 442 435 Q 436 221 413 111 Q 380 -3 427 -51 Q 446 -69 459 -39 Q 472 0 474 118 L 475 149 Z" class="stroke5"/>
    <path d="M 661 707 Q 683 685 709 657 Q 724 641 742 641 Q 754 642 760 657 Q 767 673 757 708 Q 748 738 657 762 Q 639 766 632 763 Q 626 759 627 744 Q 631 731 661 707 Z" class="stroke6"/>
    <path d="M 686 535 Q 750 550 819 562 Q 864 572 871 578 Q 878 585 875 593 Q 868 603 842 611 Q 815 617 723 586 Q 630 562 545 554 Q 511 548 535 533 Q 569 511 624 523 Q 628 524 635 524 L 686 535 Z" class="stroke7"/>
    <path d="M 707 409 Q 774 422 830 430 Q 855 434 845 448 Q 835 463 807 468 Q 774 471 708 450 L 649 435 Q 604 425 564 414 Q 546 410 568 394 Q 581 385 607 390 Q 628 394 649 397 L 707 409 Z" class="stroke8"/>
    <path d="M 702 288 Q 772 301 833 310 Q 858 314 849 328 Q 839 344 811 348 Q 795 351 703 330 L 649 316 Q 598 306 552 294 Q 534 290 556 274 Q 566 265 649 279 L 702 288 Z" class="stroke9"/>
    <path d="M 697 177 Q 698 235 702 288 L 703 330 Q 704 372 707 409 L 708 450 Q 708 451 709 453 Q 712 508 710 514 Q 698 526 686 535 C 663 554 624 552 635 524 Q 648 497 649 435 L 649 397 Q 649 366 649 316 L 649 279 Q 649 233 649 170 C 649 140 696 147 697 177 Z" class="stroke10"/>
    <path d="M 649 170 Q 567 163 475 149 C 445 145 445 125 474 118 Q 489 112 534 112 Q 648 139 891 139 Q 904 139 918 138 Q 937 137 942 146 Q 948 156 932 170 Q 877 212 813 195 Q 764 188 697 177 L 649 170 Z" class="stroke11"/>
    
    
    
    
    
    
    
    
    
    
    </g>
</svg>