<svg version="1.1" viewBox="0 0 1024 1024" xmlns="http://www.w3.org/2000/svg">
  
  <g transform="scale(1, -1) translate(0, -900)">
    <style type="text/css">
        .stroke1 {fill: #808080;}
        .stroke2 {fill: #808079;}
        .stroke3 {fill: #808078;}
        .stroke4 {fill: #808077;}
        .stroke5 {fill: #808076;}
        .stroke6 {fill: #808075;}
        .stroke7 {fill: #808074;}
        .stroke8 {fill: #808073;}
        .stroke9 {fill: #808072;}
        .stroke10 {fill: #808071;}
        .stroke11 {fill: #808070;}
        .stroke12 {fill: #808069;}
        .stroke13 {fill: #808068;}
        .stroke14 {fill: #808067;}
        .stroke15 {fill: #808066;}
        .stroke16 {fill: #808065;}
        .stroke17 {fill: #808064;}
        .stroke18 {fill: #808063;}
        .stroke19 {fill: #808062;}
        .stroke20 {fill: #808061;}
        text {
            font-family: Helvetica;
            font-size: 50px;
            fill: #808060;
            paint-order: stroke;
            stroke: #000000;
            stroke-width: 4px;
            stroke-linecap: butt;
            stroke-linejoin: miter;
            font-weight: 800;
        }
    </style>

    <path d="M 223 680 Q 248 658 277 630 Q 293 615 311 616 Q 323 617 328 633 Q 334 649 323 683 Q 311 714 217 735 Q 199 739 192 735 Q 186 731 188 716 Q 192 703 223 680 Z" class="stroke1"/>
    <path d="M 146 461 Q 197 413 235 399 Q 251 398 259 412 Q 263 425 260 443 Q 238 489 158 501 Q 157 502 155 502 Q 137 505 129 500 Q 122 499 126 486 Q 129 474 146 461 Z" class="stroke2"/>
    <path d="M 138 125 Q 125 121 128 102 Q 144 21 183 -1 Q 190 -8 202 -5 Q 211 -4 211 24 Q 217 69 242 135 Q 323 368 323 369 Q 322 381 312 373 Q 299 363 180 170 Q 167 148 138 125 Z" class="stroke3"/>
    <path d="M 580 633 Q 643 669 646 671 Q 652 680 646 686 Q 636 695 609 695 Q 573 695 552 672 L 516 649 Q 441 609 387 588 Q 356 575 383 565 Q 426 553 472 579 Q 506 597 543 614 L 580 633 Z" class="stroke4"/>
    <path d="M 649 510 Q 703 468 754 445 Q 842 412 869 420 Q 882 427 864 460 Q 854 479 839 533 Q 832 564 819 573 Q 809 580 809 564 Q 808 497 796 491 Q 775 481 718 510 Q 696 522 677 535 L 647 560 Q 598 609 580 633 L 552 672 Q 495 762 490 811 Q 489 842 445 849 Q 397 859 374 847 Q 368 843 368 834 Q 369 827 380 819 Q 419 803 467 718 Q 491 681 516 649 L 543 614 Q 588 560 622 533 L 649 510 Z" class="stroke5"/>
    <path d="M 622 533 Q 616 529 542 467 Q 533 454 547 456 Q 577 459 649 510 L 677 535 Q 702 559 726 587 Q 759 627 788 659 Q 798 669 787 685 Q 754 721 729 721 Q 719 720 719 706 Q 719 633 647 560 L 622 533 Z" class="stroke6"/>
    <path d="M 610 794 Q 641 776 675 754 Q 690 744 705 748 Q 715 751 717 764 Q 718 779 705 805 Q 689 833 596 838 Q 581 839 575 835 Q 571 831 575 819 Q 581 809 610 794 Z" class="stroke7"/>
    <path d="M 547 320 Q 571 332 598 342 Q 629 355 632 361 Q 639 371 633 377 Q 624 387 595 389 Q 564 389 528 365 L 482 341 Q 398 308 378 302 Q 344 289 372 278 Q 414 263 467 287 Q 483 294 503 302 L 547 320 Z" class="stroke8"/>
    <path d="M 596 156 Q 708 12 840 -36 Q 922 -57 937 -37 Q 953 -24 938 10 Q 925 35 895 135 Q 892 156 886 158 Q 882 158 880 139 Q 864 42 839 40 Q 722 74 631 186 L 601 226 Q 600 227 600 228 Q 569 276 547 320 L 528 365 Q 513 408 513 433 Q 514 460 467 469 Q 430 476 414 468 Q 398 461 415 439 Q 445 415 482 341 L 503 302 Q 534 247 569 194 L 596 156 Z" class="stroke9"/>
    <path d="M 569 194 Q 508 137 351 47 Q 342 44 352 39 Q 419 33 570 135 Q 594 154 596 156 L 631 186 Q 671 223 729 280 Q 756 307 757 311 Q 758 321 748 335 Q 721 371 690 371 Q 680 371 680 358 Q 680 313 601 226 L 569 194 Z" class="stroke10"/>
    <path d="M 609 441 Q 646 399 668 400 Q 680 400 683 416 Q 683 428 673 445 Q 655 466 610 465 Q 603 465 602 455 Q 602 448 609 441 Z" class="stroke11"/>
    
    
    
    
    
    
    
    
    
    
    </g>
</svg>