<svg version="1.1" viewBox="0 0 1024 1024" xmlns="http://www.w3.org/2000/svg">
  
  <g transform="scale(1, -1) translate(0, -900)">
    <style type="text/css">
        .stroke1 {fill: #808080;}
        .stroke2 {fill: #808079;}
        .stroke3 {fill: #808078;}
        .stroke4 {fill: #808077;}
        .stroke5 {fill: #808076;}
        .stroke6 {fill: #808075;}
        .stroke7 {fill: #808074;}
        .stroke8 {fill: #808073;}
        .stroke9 {fill: #808072;}
        .stroke10 {fill: #808071;}
        .stroke11 {fill: #808070;}
        .stroke12 {fill: #808069;}
        .stroke13 {fill: #808068;}
        .stroke14 {fill: #808067;}
        .stroke15 {fill: #808066;}
        .stroke16 {fill: #808065;}
        .stroke17 {fill: #808064;}
        .stroke18 {fill: #808063;}
        .stroke19 {fill: #808062;}
        .stroke20 {fill: #808061;}
        text {
            font-family: Helvetica;
            font-size: 50px;
            fill: #808060;
            paint-order: stroke;
            stroke: #000000;
            stroke-width: 4px;
            stroke-linecap: butt;
            stroke-linejoin: miter;
            font-weight: 800;
        }
    </style>

    <path d="M 175 704 Q 197 682 219 655 Q 232 640 248 640 Q 258 640 265 653 Q 271 668 264 698 Q 260 716 233 731 Q 167 758 152 755 Q 146 751 147 738 Q 150 728 175 704 Z" class="stroke1"/>
    <path d="M 96 519 Q 138 468 165 456 Q 178 453 187 465 Q 194 477 191 492 Q 187 514 170 526 Q 148 544 109 554 Q 94 558 85 555 Q 79 554 82 543 Q 83 533 96 519 Z" class="stroke2"/>
    <path d="M 75 178 Q 63 174 66 157 Q 90 82 119 70 Q 126 64 136 67 Q 143 70 142 94 Q 145 134 227 393 Q 233 409 231 414 Q 230 424 221 417 Q 215 413 111 222 Q 101 200 75 178 Z" class="stroke3"/>
    <path d="M 399 671 Q 504 738 519 744 Q 534 748 536 755 Q 537 765 524 772 Q 503 782 462 789 Q 447 793 436 789 Q 423 747 412 735 Q 300 636 283 623 Q 280 614 285 612 Q 306 619 370 654 L 399 671 Z" class="stroke4"/>
    <path d="M 434 515 Q 459 525 490 535 Q 518 545 523 550 Q 530 559 524 566 Q 517 576 489 578 Q 461 579 437 565 L 387 544 Q 386 544 386 543 Q 305 516 283 511 Q 252 501 277 489 Q 308 477 385 498 L 434 515 Z" class="stroke5"/>
    <path d="M 416 368 Q 465 386 532 403 Q 548 407 548 414 Q 547 427 529 433 Q 502 442 424 414 L 376 398 Q 289 373 240 361 Q 228 360 226 351 Q 225 341 240 332 Q 280 308 317 327 Q 344 340 368 350 L 416 368 Z" class="stroke6"/>
    <path d="M 368 350 Q 346 214 245 48 Q 241 42 239 36 Q 238 26 247 29 Q 280 35 352 166 Q 361 185 370 205 Q 395 272 416 368 L 424 414 Q 431 466 434 515 L 437 565 Q 438 575 439 586 Q 440 604 444 620 Q 451 633 444 645 Q 429 660 401 671 Q 400 672 399 671 C 371 682 358 681 370 654 Q 388 624 388 561 Q 387 554 387 544 L 385 498 Q 382 447 376 398 L 368 350 Z" class="stroke7"/>
    <path d="M 683 710 Q 824 749 829 753 Q 836 760 832 769 Q 825 779 795 785 Q 767 789 738 776 Q 704 763 667 751 Q 627 741 579 733 Q 545 724 570 710 Q 601 697 631 699 L 683 710 Z" class="stroke8"/>
    <path d="M 707 581 Q 818 608 820 608 Q 821 611 823 613 Q 823 623 803 631 Q 773 646 711 622 L 660 607 Q 609 595 574 589 Q 549 585 569 571 Q 596 553 640 564 Q 647 567 660 569 L 707 581 Z" class="stroke9"/>
    <path d="M 705 452 Q 714 455 819 475 Q 828 474 835 485 Q 835 495 815 503 Q 782 521 714 493 Q 710 493 706 491 L 659 478 Q 617 471 566 461 Q 542 457 562 443 Q 592 422 618 431 Q 634 437 658 441 L 705 452 Z" class="stroke10"/>
    <path d="M 704 319 Q 783 332 901 337 Q 955 337 961 347 Q 965 359 949 371 Q 895 408 829 386 Q 777 374 704 358 L 656 349 Q 565 333 459 313 Q 440 310 454 295 Q 467 283 485 279 Q 504 275 519 280 Q 582 299 655 311 L 704 319 Z" class="stroke11"/>
    <path d="M 654 -31 Q 660 -56 666 -65 Q 672 -72 679 -70 Q 697 -58 700 -3 Q 710 91 707 183 Q 704 223 704 319 L 704 358 Q 704 401 705 452 L 706 491 Q 706 536 707 581 L 711 622 Q 715 647 720 667 Q 723 685 709 694 Q 694 704 683 710 C 657 726 620 727 631 699 Q 658 632 659 627 Q 659 618 660 607 L 660 569 Q 660 527 659 478 L 658 441 Q 657 398 656 349 L 655 311 Q 648 26 654 -31 Z" class="stroke12"/>
    
    
    
    
    
    
    
    
    
    
    
    </g>
</svg>