<svg version="1.1" viewBox="0 0 1024 1024" xmlns="http://www.w3.org/2000/svg">
  
  <g transform="scale(1, -1) translate(0, -900)">
    <style type="text/css">
        .stroke1 {fill: #808080;}
        .stroke2 {fill: #808079;}
        .stroke3 {fill: #808078;}
        .stroke4 {fill: #808077;}
        .stroke5 {fill: #808076;}
        .stroke6 {fill: #808075;}
        .stroke7 {fill: #808074;}
        .stroke8 {fill: #808073;}
        .stroke9 {fill: #808072;}
        .stroke10 {fill: #808071;}
        .stroke11 {fill: #808070;}
        .stroke12 {fill: #808069;}
        .stroke13 {fill: #808068;}
        .stroke14 {fill: #808067;}
        .stroke15 {fill: #808066;}
        .stroke16 {fill: #808065;}
        .stroke17 {fill: #808064;}
        .stroke18 {fill: #808063;}
        .stroke19 {fill: #808062;}
        .stroke20 {fill: #808061;}
        text {
            font-family: Helvetica;
            font-size: 50px;
            fill: #808060;
            paint-order: stroke;
            stroke: #000000;
            stroke-width: 4px;
            stroke-linecap: butt;
            stroke-linejoin: miter;
            font-weight: 800;
        }
    </style>

    <path d="M 250 692 Q 280 664 311 630 Q 324 615 342 615 Q 354 614 361 629 Q 367 645 359 678 Q 350 712 248 745 Q 232 749 224 747 Q 218 743 219 729 Q 223 716 250 692 Z" class="stroke1"/>
    <path d="M 143 504 Q 200 446 234 430 Q 250 427 259 441 Q 265 454 262 471 Q 247 516 158 542 Q 157 543 156 543 Q 138 549 129 544 Q 123 543 126 530 Q 127 518 143 504 Z" class="stroke2"/>
    <path d="M 145 142 Q 132 139 134 121 Q 147 42 180 22 Q 187 15 198 17 Q 205 18 208 44 Q 217 96 328 347 Q 335 363 335 370 Q 334 380 325 374 Q 310 365 188 183 Q 175 162 145 142 Z" class="stroke3"/>
    <path d="M 613 588 Q 617 639 624 685 L 628 714 Q 628 729 636 761 Q 646 788 627 802 Q 596 820 574 824 Q 559 827 552 820 Q 545 813 552 799 Q 565 780 567 767 Q 574 682 573 579 C 573 549 611 558 613 588 Z" class="stroke4"/>
    <path d="M 624 685 Q 657 681 754 699 Q 763 702 775 703 Q 793 707 796 710 Q 803 717 799 725 Q 792 735 765 742 Q 737 746 711 734 Q 696 730 628 714 C 599 707 594 688 624 685 Z" class="stroke5"/>
    <path d="M 487 566 Q 478 579 451 589 Q 442 593 431 590 Q 425 586 430 574 Q 431 565 436 557 Q 461 506 440 291 Q 416 200 451 161 Q 460 149 470 160 Q 480 173 481 189 L 484 223 Q 484 233 485 302 L 486 327 Q 487 373 488 407 L 489 433 Q 489 523 493 533 C 497 557 497 557 487 566 Z" class="stroke6"/>
    <path d="M 711 208 Q 712 201 718 194 Q 733 166 742 166 Q 757 167 772 201 Q 787 228 785 248 Q 772 333 771 468 Q 770 507 791 540 Q 801 556 794 566 Q 766 591 716 612 Q 700 618 676 609 Q 648 597 613 588 L 573 579 Q 527 572 487 566 C 457 562 463 530 493 533 Q 500 533 510 534 Q 601 555 666 565 Q 688 569 697 557 Q 713 538 714 470 Q 720 304 713 252 L 711 208 Z" class="stroke7"/>
    <path d="M 488 407 Q 494 407 502 408 Q 590 426 656 437 Q 678 441 669 453 Q 659 466 635 470 Q 599 473 489 433 C 461 423 458 406 488 407 Z" class="stroke8"/>
    <path d="M 485 302 Q 489 301 502 302 Q 595 317 663 325 Q 685 329 677 341 Q 667 354 643 359 Q 619 363 486 327 C 457 319 455 304 485 302 Z" class="stroke9"/>
    <path d="M 481 189 Q 488 188 499 189 Q 568 202 711 208 C 741 209 742 243 713 252 Q 700 258 675 252 Q 569 231 484 223 C 454 220 451 191 481 189 Z" class="stroke10"/>
    <path d="M 498 142 Q 488 85 342 -24 Q 320 -37 347 -36 Q 405 -36 521 62 Q 524 71 567 103 Q 577 115 576 124 Q 575 137 549 146 Q 521 158 509 155 Q 502 154 498 142 Z" class="stroke11"/>
    <path d="M 673 132 Q 719 77 773 0 Q 786 -22 800 -28 Q 809 -31 817 -22 Q 830 -10 824 34 Q 821 86 678 162 Q 671 169 667 157 Q 664 144 673 132 Z" class="stroke12"/>
    
    
    
    
    
    
    
    
    
    
    
    </g>
</svg>