<svg version="1.1" viewBox="0 0 1024 1024" xmlns="http://www.w3.org/2000/svg">
  
  <g transform="scale(1, -1) translate(0, -900)">
    <style type="text/css">
        .stroke1 {fill: #808080;}
        .stroke2 {fill: #808079;}
        .stroke3 {fill: #808078;}
        .stroke4 {fill: #808077;}
        .stroke5 {fill: #808076;}
        .stroke6 {fill: #808075;}
        .stroke7 {fill: #808074;}
        .stroke8 {fill: #808073;}
        .stroke9 {fill: #808072;}
        .stroke10 {fill: #808071;}
        .stroke11 {fill: #808070;}
        .stroke12 {fill: #808069;}
        .stroke13 {fill: #808068;}
        .stroke14 {fill: #808067;}
        .stroke15 {fill: #808066;}
        .stroke16 {fill: #808065;}
        .stroke17 {fill: #808064;}
        .stroke18 {fill: #808063;}
        .stroke19 {fill: #808062;}
        .stroke20 {fill: #808061;}
        text {
            font-family: Helvetica;
            font-size: 50px;
            fill: #808060;
            paint-order: stroke;
            stroke: #000000;
            stroke-width: 4px;
            stroke-linecap: butt;
            stroke-linejoin: miter;
            font-weight: 800;
        }
    </style>

    <path d="M 245 702 Q 272 678 299 651 Q 314 636 331 637 Q 343 638 349 653 Q 353 669 344 701 Q 332 734 240 754 Q 224 758 216 755 Q 210 751 212 737 Q 216 724 245 702 Z" class="stroke1"/>
    <path d="M 132 496 Q 180 445 214 429 Q 230 428 239 441 Q 245 454 242 471 Q 230 511 144 536 Q 126 540 117 536 Q 111 535 114 522 Q 115 510 132 496 Z" class="stroke2"/>
    <path d="M 146 129 Q 133 125 136 105 Q 157 24 196 4 Q 203 -3 215 1 Q 224 2 223 31 Q 229 97 311 345 Q 317 363 316 370 Q 315 380 305 373 Q 286 360 190 184 Q 163 145 146 129 Z" class="stroke3"/>
    <path d="M 450 692 Q 440 696 414 699 Q 404 702 400 697 Q 396 691 403 677 Q 425 640 441 577 Q 445 558 457 546 Q 473 527 478 541 Q 479 548 480 556 L 477 584 Q 467 644 465 664 C 462 688 462 688 450 692 Z" class="stroke4"/>
    <path d="M 739 626 Q 767 677 788 686 Q 803 701 791 716 Q 778 728 734 751 Q 719 758 701 752 Q 659 736 620 724 L 568 711 Q 510 701 450 692 C 420 688 436 655 465 664 Q 477 670 569 687 L 619 697 Q 646 704 675 709 Q 700 716 711 705 Q 720 693 695 627 C 685 599 724 600 739 626 Z" class="stroke5"/>
    <path d="M 612 577 Q 670 587 753 594 Q 763 595 764 602 Q 764 609 739 626 C 728 634 724 633 695 627 Q 652 618 614 608 L 570 599 Q 521 592 477 584 C 447 579 450 556 480 556 Q 487 555 497 557 Q 525 564 570 571 L 612 577 Z" class="stroke6"/>
    <path d="M 607 515 Q 608 546 612 577 L 614 608 Q 615 654 619 697 L 620 724 Q 620 730 628 777 Q 637 811 625 823 Q 622 826 620 827 Q 589 843 566 847 Q 551 850 544 842 Q 537 835 545 822 Q 564 795 565 776 Q 566 745 568 711 L 569 687 Q 570 645 570 599 L 570 571 Q 570 541 569 509 C 568 479 606 485 607 515 Z" class="stroke7"/>
    <path d="M 569 509 Q 449 491 311 470 Q 292 467 307 451 Q 320 438 338 433 Q 359 429 374 434 Q 596 500 901 501 Q 902 501 904 501 Q 923 501 928 510 Q 932 520 917 534 Q 866 570 829 561 Q 747 542 607 515 L 569 509 Z" class="stroke8"/>
    <path d="M 488 399 Q 472 415 444 412 Q 434 408 438 398 Q 474 329 445 215 Q 424 185 451 143 Q 452 140 457 135 Q 464 123 472 129 Q 496 147 498 269 Q 498 351 500 371 C 501 388 501 388 488 399 Z" class="stroke9"/>
    <path d="M 675 201 Q 668 179 681 160 Q 694 133 702 134 Q 715 135 729 165 Q 742 189 742 208 Q 723 337 750 378 Q 765 402 714 429 Q 699 436 681 444 Q 669 450 574 415 Q 535 406 488 399 C 458 394 470 367 500 371 Q 512 371 584 388 Q 650 404 665 395 Q 672 380 676 341 Q 680 223 675 201 Z" class="stroke10"/>
    <path d="M 565 282 Q 568 126 515 63 Q 502 50 482 36 Q 452 14 385 -14 Q 373 -17 370 -19 Q 366 -23 379 -27 Q 448 -36 536 21 Q 548 30 557 40 Q 602 91 612 226 Q 616 280 626 308 Q 630 318 623 325 Q 575 365 544 355 Q 528 348 541 333 Q 565 308 565 282 Z" class="stroke11"/>
    <path d="M 632 84 Q 677 38 729 -27 Q 745 -49 760 -54 Q 769 -55 777 -45 Q 790 -32 780 13 Q 771 56 703 86 Q 660 107 635 115 Q 625 122 623 109 Q 622 96 632 84 Z" class="stroke12"/>
    
    
    
    
    
    
    
    
    
    
    
    </g>
</svg>