<svg version="1.1" viewBox="0 0 1024 1024" xmlns="http://www.w3.org/2000/svg">
  
  <g transform="scale(1, -1) translate(0, -900)">
    <style type="text/css">
        .stroke1 {fill: #808080;}
        .stroke2 {fill: #808079;}
        .stroke3 {fill: #808078;}
        .stroke4 {fill: #808077;}
        .stroke5 {fill: #808076;}
        .stroke6 {fill: #808075;}
        .stroke7 {fill: #808074;}
        .stroke8 {fill: #808073;}
        .stroke9 {fill: #808072;}
        .stroke10 {fill: #808071;}
        .stroke11 {fill: #808070;}
        .stroke12 {fill: #808069;}
        .stroke13 {fill: #808068;}
        .stroke14 {fill: #808067;}
        .stroke15 {fill: #808066;}
        .stroke16 {fill: #808065;}
        .stroke17 {fill: #808064;}
        .stroke18 {fill: #808063;}
        .stroke19 {fill: #808062;}
        .stroke20 {fill: #808061;}
        text {
            font-family: Helvetica;
            font-size: 50px;
            fill: #808060;
            paint-order: stroke;
            stroke: #000000;
            stroke-width: 4px;
            stroke-linecap: butt;
            stroke-linejoin: miter;
            font-weight: 800;
        }
    </style>

    <path d="M 223 743 Q 247 721 273 692 Q 286 679 304 679 Q 314 679 321 693 Q 325 708 318 740 Q 309 770 219 794 Q 203 798 196 795 Q 190 791 192 778 Q 195 766 223 743 Z" class="stroke1"/>
    <path d="M 126 524 Q 178 463 214 447 Q 229 443 239 457 Q 246 470 243 487 Q 233 527 140 562 Q 124 568 113 564 Q 107 563 109 550 Q 110 538 126 524 Z" class="stroke2"/>
    <path d="M 128 162 Q 116 158 119 140 Q 137 62 173 45 Q 180 38 191 41 Q 198 42 199 69 Q 203 117 290 371 Q 297 387 295 394 Q 294 404 285 397 Q 273 390 167 204 Q 155 183 128 162 Z" class="stroke3"/>
    <path d="M 714 714 Q 771 721 819 726 Q 828 725 836 736 Q 837 746 817 757 Q 798 776 764 768 Q 742 764 720 757 L 664 745 Q 657 745 652 743 Q 598 733 550 726 L 500 720 Q 467 719 432 714 Q 407 711 426 695 Q 445 679 487 678 Q 494 681 505 681 L 550 689 Q 601 699 662 707 L 714 714 Z" class="stroke4"/>
    <path d="M 701 614 Q 749 623 794 628 Q 816 631 809 644 Q 799 659 773 665 Q 751 669 708 658 Q 707 658 707 657 L 659 647 Q 604 637 551 624 L 510 616 Q 479 612 448 605 Q 432 601 451 586 Q 467 574 503 580 Q 507 581 513 581 L 552 588 Q 606 598 656 606 L 701 614 Z" class="stroke5"/>
    <path d="M 550 726 Q 551 757 553 767 Q 556 789 542 801 Q 520 817 494 826 Q 481 832 472 826 Q 465 819 471 805 Q 499 748 500 720 L 505 681 Q 506 656 510 616 L 513 581 Q 514 553 517 519 C 520 489 556 495 555 525 Q 554 559 552 588 L 551 624 Q 551 646 550 689 L 550 726 Z" class="stroke6"/>
    <path d="M 691 546 Q 695 580 701 614 L 707 657 Q 710 687 714 714 L 720 757 Q 720 760 721 761 Q 733 812 741 831 Q 745 841 727 856 Q 696 877 673 882 Q 658 886 650 879 Q 643 872 649 857 Q 667 829 665 809 Q 665 778 664 745 L 662 707 Q 661 679 659 647 L 656 606 Q 652 575 650 539 C 648 509 687 516 691 546 Z" class="stroke7"/>
    <path d="M 596 499 Q 695 515 853 516 Q 913 516 919 525 Q 923 535 909 547 Q 861 586 805 569 Q 756 559 691 546 L 650 539 Q 629 538 610 533 Q 582 530 555 525 L 517 519 Q 433 509 343 496 Q 324 495 338 479 Q 351 466 367 462 Q 386 458 400 462 Q 472 483 554 493 L 596 499 Z" class="stroke8"/>
    <path d="M 468 404 Q 447 425 418 422 Q 405 418 410 406 Q 440 334 423 205 L 416 167 Q 409 121 393 94 Q 384 76 390 56 Q 391 28 407 10 Q 414 -3 424 2 Q 454 21 468 176 L 470 210 Q 477 337 482 369 L 482 377 C 483 392 483 392 468 404 Z" class="stroke9"/>
    <path d="M 735 199 Q 735 126 731 60 Q 730 32 713 28 Q 704 25 654 41 Q 642 45 642 37 Q 642 28 657 18 Q 690 -15 715 -48 Q 728 -66 744 -65 Q 760 -61 782 -13 Q 807 36 804 87 Q 800 145 795 199 L 792 247 Q 783 362 801 398 Q 814 414 799 428 Q 781 444 741 459 Q 719 469 701 457 Q 677 448 633 436 Q 623 435 616 432 L 566 421 Q 502 411 468 404 C 439 398 453 371 482 377 Q 489 378 502 381 Q 535 388 567 394 L 615 402 Q 694 417 713 408 Q 726 402 727 374 Q 733 304 734 239 L 735 199 Z" class="stroke10"/>
    <path d="M 611 297 Q 645 304 676 309 Q 698 313 689 325 Q 679 338 655 342 Q 637 343 612 337 L 567 323 Q 537 314 510 304 Q 494 300 514 287 Q 517 284 568 289 L 611 297 Z" class="stroke11"/>
    <path d="M 616 432 Q 616 433 617 434 Q 620 477 616 483 Q 606 493 596 499 C 571 516 541 520 554 493 Q 566 475 566 421 L 567 394 Q 567 366 567 323 L 568 289 Q 568 259 568 220 C 568 190 608 193 609 223 Q 610 262 611 297 L 612 337 Q 613 371 615 402 L 616 432 Z" class="stroke12"/>
    <path d="M 468 176 Q 562 197 735 199 L 795 199 Q 843 200 897 199 Q 966 196 974 206 Q 980 216 964 231 Q 909 273 846 256 Q 821 253 792 247 L 734 239 Q 679 233 615 225 Q 612 225 609 223 L 568 220 Q 519 216 470 210 L 423 205 Q 359 201 293 193 Q 272 192 287 175 Q 300 162 317 155 Q 338 149 353 154 Q 383 161 416 167 L 468 176 Z" class="stroke13"/>
    
    
    
    
    
    
    
    
    
    
    
    
    </g>
</svg>