<svg version="1.1" viewBox="0 0 1024 1024" xmlns="http://www.w3.org/2000/svg">
  
  <g transform="scale(1, -1) translate(0, -900)">
    <style type="text/css">
        .stroke1 {fill: #808080;}
        .stroke2 {fill: #808079;}
        .stroke3 {fill: #808078;}
        .stroke4 {fill: #808077;}
        .stroke5 {fill: #808076;}
        .stroke6 {fill: #808075;}
        .stroke7 {fill: #808074;}
        .stroke8 {fill: #808073;}
        .stroke9 {fill: #808072;}
        .stroke10 {fill: #808071;}
        .stroke11 {fill: #808070;}
        .stroke12 {fill: #808069;}
        .stroke13 {fill: #808068;}
        .stroke14 {fill: #808067;}
        .stroke15 {fill: #808066;}
        .stroke16 {fill: #808065;}
        .stroke17 {fill: #808064;}
        .stroke18 {fill: #808063;}
        .stroke19 {fill: #808062;}
        .stroke20 {fill: #808061;}
        text {
            font-family: Helvetica;
            font-size: 50px;
            fill: #808060;
            paint-order: stroke;
            stroke: #000000;
            stroke-width: 4px;
            stroke-linecap: butt;
            stroke-linejoin: miter;
            font-weight: 800;
        }
    </style>

    <path d="M 209 641 Q 227 619 246 593 Q 256 580 270 579 Q 279 578 285 589 Q 291 601 287 628 Q 286 644 262 660 Q 202 690 192 687 Q 188 684 187 673 Q 188 663 209 641 Z" class="stroke1"/>
    <path d="M 365 655 Q 368 655 371 656 Q 443 693 478 707 Q 491 708 490 717 Q 487 730 474 745 Q 462 761 445 765 Q 435 766 433 752 Q 433 734 367 672 C 346 652 346 652 365 655 Z" class="stroke2"/>
    <path d="M 353 583 Q 362 632 365 655 L 367 672 Q 368 697 376 740 Q 382 758 364 766 Q 322 787 310 785 Q 292 782 306 763 Q 333 724 313 601 Q 307 576 296 544 Q 281 505 235 459 Q 222 449 219 443 Q 218 436 228 437 Q 258 437 300 481 Q 330 512 347 558 L 353 583 Z" class="stroke3"/>
    <path d="M 347 558 Q 407 498 427 500 Q 440 500 444 516 Q 444 528 434 545 Q 418 572 353 583 C 323 588 326 579 347 558 Z" class="stroke4"/>
    <path d="M 473 666 Q 513 611 533 607 Q 543 606 549 619 Q 550 629 545 645 Q 538 658 519 668 Q 491 684 478 686 Q 471 687 469 679 Q 468 673 473 666 Z" class="stroke5"/>
    <path d="M 625 643 Q 626 644 628 644 Q 721 690 764 706 Q 780 707 778 717 Q 775 732 762 750 Q 749 768 730 773 Q 718 774 716 758 Q 716 737 629 665 C 606 646 597 632 625 643 Z" class="stroke6"/>
    <path d="M 619 622 Q 622 634 625 643 L 629 665 Q 633 692 646 763 Q 653 781 635 790 Q 595 812 582 811 Q 564 808 577 789 Q 601 744 575 625 Q 569 609 562 590 Q 549 560 504 515 Q 491 505 488 499 Q 487 493 496 493 Q 524 490 566 530 Q 596 557 614 607 L 619 622 Z" class="stroke7"/>
    <path d="M 614 607 Q 618 600 636 587 Q 723 518 730 518 Q 737 519 742 528 Q 745 540 738 561 Q 729 594 632 622 Q 623 625 619 622 C 606 618 606 618 614 607 Z" class="stroke8"/>
    <path d="M 211 413 Q 202 440 190 449 Q 172 465 169 439 Q 175 399 110 338 Q 89 317 113 262 Q 129 237 146 262 Q 164 284 178 319 Q 196 362 209 387 Q 209 388 210 389 C 216 400 216 400 211 413 Z" class="stroke9"/>
    <path d="M 210 389 Q 238 371 279 379 Q 387 412 660 440 Q 747 450 769 445 Q 788 441 786 428 Q 786 425 754 358 Q 745 343 751 340 Q 758 336 776 347 Q 830 381 873 392 Q 909 401 908 410 Q 907 420 838 475 Q 819 491 794 490 Q 485 451 342 431 Q 279 421 216 415 Q 213 415 211 413 C 181 408 183 401 210 389 Z" class="stroke10"/>
    <path d="M 524 268 Q 528 322 539 352 Q 555 380 504 401 Q 473 419 456 412 Q 440 406 454 385 Q 473 360 474 329 Q 475 313 470 52 Q 469 42 463 37 Q 454 31 379 52 Q 348 62 351 53 Q 352 46 371 33 Q 437 -15 454 -43 Q 473 -77 490 -77 Q 503 -78 517 -46 Q 533 -1 527 107 Q 521 168 521 237 L 524 268 Z" class="stroke11"/>
    <path d="M 202 261 Q 192 261 190 254 Q 189 248 202 240 Q 242 218 266 227 Q 354 252 362 251 Q 371 247 359 230 Q 313 145 268 102 Q 225 56 143 7 Q 128 -2 137 -5 Q 146 -6 165 -1 Q 235 24 294 70 Q 349 110 420 219 Q 430 237 441 246 Q 454 255 448 264 Q 441 276 409 290 Q 393 300 344 283 Q 292 268 202 261 Z" class="stroke12"/>
    <path d="M 584 225 Q 678 277 723 295 Q 742 298 739 309 Q 735 325 718 346 Q 702 365 680 370 Q 665 371 664 353 Q 665 331 570 238 C 549 217 558 211 584 225 Z" class="stroke13"/>
    <path d="M 570 238 Q 539 269 528 269 Q 525 269 524 268 C 495 274 497 255 521 237 Q 540 224 554 206 Q 728 -4 761 -11 Q 815 -11 884 12 Q 897 15 901 22 Q 905 28 896 31 Q 749 82 667 152 Q 628 183 584 225 L 570 238 Z" class="stroke14"/>
    
    
    
    
    
    
    
    
    
    
    
    
    
    </g>
</svg>