<svg version="1.1" viewBox="0 0 1024 1024" xmlns="http://www.w3.org/2000/svg">
  
  <g transform="scale(1, -1) translate(0, -900)">
    <style type="text/css">
        .stroke1 {fill: #808080;}
        .stroke2 {fill: #808079;}
        .stroke3 {fill: #808078;}
        .stroke4 {fill: #808077;}
        .stroke5 {fill: #808076;}
        .stroke6 {fill: #808075;}
        .stroke7 {fill: #808074;}
        .stroke8 {fill: #808073;}
        .stroke9 {fill: #808072;}
        .stroke10 {fill: #808071;}
        .stroke11 {fill: #808070;}
        .stroke12 {fill: #808069;}
        .stroke13 {fill: #808068;}
        .stroke14 {fill: #808067;}
        .stroke15 {fill: #808066;}
        .stroke16 {fill: #808065;}
        .stroke17 {fill: #808064;}
        .stroke18 {fill: #808063;}
        .stroke19 {fill: #808062;}
        .stroke20 {fill: #808061;}
        text {
            font-family: Helvetica;
            font-size: 50px;
            fill: #808060;
            paint-order: stroke;
            stroke: #000000;
            stroke-width: 4px;
            stroke-linecap: butt;
            stroke-linejoin: miter;
            font-weight: 800;
        }
    </style>

    <path d="M 200 698 Q 222 674 245 647 Q 258 632 275 632 Q 285 631 293 645 Q 299 660 292 692 Q 288 711 259 726 Q 193 757 176 751 Q 170 747 171 734 Q 174 722 200 698 Z" class="stroke1"/>
    <path d="M 111 514 Q 162 463 200 446 Q 215 443 223 457 Q 229 469 225 485 Q 210 527 124 551 Q 123 552 122 552 Q 106 556 97 552 Q 91 551 94 539 Q 95 527 111 514 Z" class="stroke2"/>
    <path d="M 104 163 Q 92 160 94 143 Q 106 71 138 51 Q 144 44 154 47 Q 161 48 163 72 Q 169 111 272 357 Q 279 373 279 378 Q 278 388 269 382 Q 260 376 143 202 Q 131 183 104 163 Z" class="stroke3"/>
    <path d="M 517 799 Q 568 751 605 736 Q 620 735 627 748 Q 631 761 628 777 Q 616 814 526 837 Q 510 841 501 836 Q 495 835 498 823 Q 501 811 517 799 Z" class="stroke4"/>
    <path d="M 395 647 Q 377 671 370 676 Q 367 680 361 677 Q 355 673 354 662 Q 358 631 327 568 Q 317 552 317 532 Q 320 513 329 498 Q 336 486 342 494 Q 354 497 372 543 Q 388 588 398 603 Q 402 610 404 618 C 408 630 408 630 395 647 Z" class="stroke5"/>
    <path d="M 404 618 Q 426 608 448 615 Q 542 651 700 674 Q 730 678 740 677 Q 753 667 751 659 Q 751 655 724 582 Q 718 569 725 565 Q 732 561 747 574 Q 798 614 841 631 Q 875 646 875 654 Q 874 664 803 708 Q 782 723 695 703 Q 688 703 478 662 Q 438 653 398 648 Q 394 648 395 647 C 365 642 375 627 404 618 Z" class="stroke6"/>
    <path d="M 476 469 Q 549 500 594 529 Q 628 550 661 561 Q 674 565 677 571 Q 678 581 667 589 Q 648 599 608 608 Q 595 612 584 609 Q 578 605 579 596 Q 579 572 465 483 C 441 464 448 457 476 469 Z" class="stroke7"/>
    <path d="M 477 423 Q 476 445 478 452 Q 478 462 476 469 L 465 483 Q 444 499 419 506 Q 406 510 398 504 Q 391 498 398 484 Q 416 454 425 422 Q 432 391 448 267 C 452 237 489 240 486 270 Q 477 375 477 393 L 477 423 Z" class="stroke8"/>
    <path d="M 639 421 Q 697 434 754 442 Q 766 443 766 450 Q 766 460 746 473 Q 707 492 663 470 Q 627 458 477 423 C 448 416 447 390 477 393 Q 487 393 602 414 L 639 421 Z" class="stroke9"/>
    <path d="M 647 287 Q 659 362 663 368 Q 672 384 664 395 Q 652 411 639 421 C 616 440 590 442 602 414 Q 602 413 604 411 Q 605 401 601 282 C 600 252 642 257 647 287 Z" class="stroke10"/>
    <path d="M 448 267 Q 378 263 301 254 Q 280 253 295 235 Q 308 220 326 214 Q 348 208 364 212 Q 584 263 885 244 Q 904 244 910 252 Q 916 264 899 278 Q 844 323 802 310 Q 739 300 647 287 L 601 282 Q 591 282 582 280 Q 536 276 486 270 L 448 267 Z" class="stroke11"/>
    <path d="M 436 171 Q 414 111 290 20 Q 268 7 295 8 Q 349 5 461 92 Q 462 95 465 96 Q 493 118 506 129 Q 519 139 517 150 Q 516 163 489 174 Q 461 187 448 185 Q 441 184 436 171 Z" class="stroke12"/>
    <path d="M 618 152 Q 675 101 743 27 Q 759 6 776 1 Q 785 0 793 11 Q 806 24 792 71 Q 783 123 619 184 Q 609 190 607 177 Q 607 162 618 152 Z" class="stroke13"/>
    
    
    
    
    
    
    
    
    
    
    
    
    </g>
</svg>