<svg version="1.1" viewBox="0 0 1024 1024" xmlns="http://www.w3.org/2000/svg">
  
  <g transform="scale(1, -1) translate(0, -900)">
    <style type="text/css">
        .stroke1 {fill: #808080;}
        .stroke2 {fill: #808079;}
        .stroke3 {fill: #808078;}
        .stroke4 {fill: #808077;}
        .stroke5 {fill: #808076;}
        .stroke6 {fill: #808075;}
        .stroke7 {fill: #808074;}
        .stroke8 {fill: #808073;}
        .stroke9 {fill: #808072;}
        .stroke10 {fill: #808071;}
        .stroke11 {fill: #808070;}
        .stroke12 {fill: #808069;}
        .stroke13 {fill: #808068;}
        .stroke14 {fill: #808067;}
        .stroke15 {fill: #808066;}
        .stroke16 {fill: #808065;}
        .stroke17 {fill: #808064;}
        .stroke18 {fill: #808063;}
        .stroke19 {fill: #808062;}
        .stroke20 {fill: #808061;}
        text {
            font-family: Helvetica;
            font-size: 50px;
            fill: #808060;
            paint-order: stroke;
            stroke: #000000;
            stroke-width: 4px;
            stroke-linecap: butt;
            stroke-linejoin: miter;
            font-weight: 800;
        }
    </style>

    <path d="M 200 711 Q 228 689 259 660 Q 275 647 292 648 Q 304 649 309 664 Q 313 680 302 713 Q 295 734 261 747 Q 180 772 168 763 Q 162 759 165 745 Q 169 732 200 711 Z" class="stroke1"/>
    <path d="M 116 489 Q 173 432 211 417 Q 226 414 235 428 Q 241 441 237 459 Q 224 504 154 520 Q 112 533 101 528 Q 94 527 98 514 Q 99 502 116 489 Z" class="stroke2"/>
    <path d="M 102 139 Q 89 135 91 118 Q 103 43 139 24 Q 146 17 157 19 Q 164 20 165 46 Q 171 89 273 344 Q 280 360 279 366 Q 278 376 269 370 Q 262 366 142 180 Q 129 159 102 139 Z" class="stroke3"/>
    <path d="M 554 794 Q 585 775 617 750 Q 629 741 642 743 Q 651 744 653 756 Q 656 769 645 792 Q 633 819 545 832 Q 532 833 528 831 Q 524 827 526 817 Q 530 808 554 794 Z" class="stroke4"/>
    <path d="M 661 681 Q 692 690 725 695 Q 774 708 783 714 Q 790 721 787 729 Q 780 739 754 747 Q 730 753 636 721 Q 521 691 428 682 Q 395 676 419 661 Q 453 639 508 651 Q 571 664 638 677 L 661 681 Z" class="stroke5"/>
    <path d="M 643 580 Q 673 619 688 632 Q 695 636 693 646 Q 687 664 661 681 C 640 695 640 695 638 677 Q 635 638 597 591 L 568 562 Q 520 526 463 497 Q 456 493 460 490 Q 464 486 474 488 Q 552 497 608 546 L 643 580 Z" class="stroke6"/>
    <path d="M 608 546 Q 648 530 691 508 Q 706 501 716 501 Q 722 502 724 510 Q 728 520 710 545 Q 695 566 643 580 L 597 591 Q 573 603 480 614 Q 473 615 475 607 Q 476 600 486 595 Q 525 582 568 562 L 608 546 Z" class="stroke7"/>
    <path d="M 430 422 Q 467 407 508 414 Q 629 433 755 452 Q 813 462 821 470 Q 830 477 826 485 Q 820 497 794 504 Q 766 513 657 480 Q 480 453 454 450 Q 427 450 420 447 C 390 442 402 432 430 422 Z" class="stroke8"/>
    <path d="M 420 447 Q 408 459 389 468 Q 373 478 361 475 Q 351 469 355 457 Q 385 400 326 191 Q 320 176 315 161 Q 287 94 223 3 Q 219 -1 216 -8 Q 215 -17 223 -16 Q 253 -10 315 75 Q 325 91 336 109 Q 381 199 420 388 Q 420 394 430 422 C 434 435 434 435 420 447 Z" class="stroke9"/>
    <path d="M 493 284 Q 506 311 519 332 Q 526 342 514 351 Q 484 370 464 368 Q 457 365 459 355 Q 475 292 407 204 Q 403 198 400 193 Q 396 181 405 186 Q 436 190 482 264 L 493 284 Z" class="stroke10"/>
    <path d="M 653 269 Q 782 296 786 300 Q 793 307 790 314 Q 784 324 760 331 Q 735 337 708 327 Q 681 320 654 311 L 602 298 Q 550 289 493 284 C 463 281 454 276 482 264 L 483 264 Q 514 246 582 257 Q 591 258 602 259 L 653 269 Z" class="stroke11"/>
    <path d="M 649 151 Q 707 163 758 170 Q 782 174 773 188 Q 763 204 735 208 Q 699 214 650 195 L 603 183 Q 539 168 484 154 Q 466 150 488 134 Q 501 125 528 130 Q 567 137 603 143 L 649 151 Z" class="stroke12"/>
    <path d="M 646 60 Q 647 108 649 151 L 650 195 Q 651 234 653 269 L 654 311 Q 654 314 655 316 Q 656 332 657 344 Q 664 363 654 372 Q 632 394 610 405 Q 598 408 589 404 Q 582 400 584 390 Q 596 365 602 298 L 602 259 Q 602 229 603 183 L 603 143 Q 603 104 603 54 C 603 24 645 30 646 60 Z" class="stroke13"/>
    <path d="M 603 54 Q 498 44 376 29 Q 357 28 371 11 Q 384 -2 401 -8 Q 422 -14 437 -10 Q 602 29 838 23 Q 856 23 874 22 Q 893 21 898 30 Q 904 40 888 55 Q 831 95 767 79 Q 715 72 646 60 L 603 54 Z" class="stroke14"/>
    
    
    
    
    
    
    
    
    
    
    
    
    
    </g>
</svg>