<svg version="1.1" viewBox="0 0 1024 1024" xmlns="http://www.w3.org/2000/svg">
  
  <g transform="scale(1, -1) translate(0, -900)">
    <style type="text/css">
        .stroke1 {fill: #808080;}
        .stroke2 {fill: #808079;}
        .stroke3 {fill: #808078;}
        .stroke4 {fill: #808077;}
        .stroke5 {fill: #808076;}
        .stroke6 {fill: #808075;}
        .stroke7 {fill: #808074;}
        .stroke8 {fill: #808073;}
        .stroke9 {fill: #808072;}
        .stroke10 {fill: #808071;}
        .stroke11 {fill: #808070;}
        .stroke12 {fill: #808069;}
        .stroke13 {fill: #808068;}
        .stroke14 {fill: #808067;}
        .stroke15 {fill: #808066;}
        .stroke16 {fill: #808065;}
        .stroke17 {fill: #808064;}
        .stroke18 {fill: #808063;}
        .stroke19 {fill: #808062;}
        .stroke20 {fill: #808061;}
        text {
            font-family: Helvetica;
            font-size: 50px;
            fill: #808060;
            paint-order: stroke;
            stroke: #000000;
            stroke-width: 4px;
            stroke-linecap: butt;
            stroke-linejoin: miter;
            font-weight: 800;
        }
    </style>

    <path d="M 190 703 Q 212 681 237 653 Q 250 640 267 639 Q 279 639 285 653 Q 289 668 282 700 Q 278 719 248 733 Q 181 761 164 755 Q 158 751 160 738 Q 163 726 190 703 Z" class="stroke1"/>
    <path d="M 110 487 Q 150 436 182 419 Q 197 416 207 429 Q 214 442 212 459 Q 206 484 189 497 Q 164 515 124 526 Q 108 532 98 528 Q 91 527 93 514 Q 94 502 110 487 Z" class="stroke2"/>
    <path d="M 97 103 Q 85 99 87 82 Q 99 12 134 -8 Q 141 -14 151 -12 Q 158 -11 159 14 Q 165 62 281 345 Q 288 361 287 366 Q 286 376 277 370 Q 261 358 142 152 Q 129 127 97 103 Z" class="stroke3"/>
    <path d="M 425 661 Q 473 643 515 655 Q 627 677 742 700 Q 794 712 803 719 Q 812 726 807 736 Q 800 748 770 756 Q 743 762 643 729 Q 520 699 426 690 Q 422 690 420 688 C 391 682 397 671 425 661 Z" class="stroke4"/>
    <path d="M 546 592 Q 536 596 510 599 Q 500 602 496 597 Q 492 591 500 577 Q 525 532 543 458 Q 547 436 561 422 Q 577 403 582 417 Q 585 426 584 438 L 581 466 Q 565 542 561 566 C 557 588 557 588 546 592 Z" class="stroke5"/>
    <path d="M 729 494 Q 745 557 765 576 Q 787 601 764 615 Q 745 625 717 642 Q 693 654 656 626 Q 604 605 546 592 C 517 585 531 561 561 566 Q 571 567 584 571 Q 624 583 659 591 Q 683 597 689 588 Q 693 584 678 492 C 673 462 721 465 729 494 Z" class="stroke6"/>
    <path d="M 584 438 Q 591 437 601 439 Q 646 452 743 465 Q 752 466 753 474 Q 753 481 729 494 C 714 502 707 500 678 492 Q 624 477 581 466 C 552 459 554 440 584 438 Z" class="stroke7"/>
    <path d="M 464 315 Q 455 319 433 324 Q 423 327 420 323 Q 416 319 421 306 Q 442 260 453 184 Q 454 162 467 146 Q 480 128 485 140 Q 489 152 488 171 L 485 198 Q 475 270 475 292 C 475 311 475 311 464 315 Z" class="stroke8"/>
    <path d="M 593 222 Q 603 280 621 300 Q 639 322 618 333 Q 602 342 578 355 Q 562 362 547 352 Q 523 334 464 315 C 435 306 447 282 475 292 Q 508 304 537 309 Q 552 313 556 307 Q 562 303 558 276 Q 554 251 548 218 C 543 188 588 192 593 222 Z" class="stroke9"/>
    <path d="M 488 171 Q 494 171 502 173 Q 536 183 609 195 Q 616 196 617 204 Q 617 210 593 222 C 581 228 577 227 548 218 Q 514 208 485 198 C 457 188 458 169 488 171 Z" class="stroke10"/>
    <path d="M 691 360 Q 679 364 659 369 Q 649 372 645 368 Q 639 362 646 348 Q 668 299 679 219 Q 680 195 694 179 Q 709 158 714 173 Q 718 183 718 201 L 716 231 Q 706 312 706 334 C 705 355 705 355 691 360 Z" class="stroke11"/>
    <path d="M 850 255 Q 866 316 885 336 Q 907 361 884 375 Q 824 408 817 406 Q 810 406 803 401 Q 766 377 691 360 C 662 353 677 327 706 334 Q 713 335 721 338 Q 755 347 785 353 Q 806 357 810 350 Q 817 344 811 315 Q 805 287 799 254 C 794 224 842 226 850 255 Z" class="stroke12"/>
    <path d="M 718 201 Q 728 200 740 203 Q 780 213 866 223 Q 876 224 877 233 Q 877 240 850 255 C 834 264 828 262 799 254 Q 753 241 716 231 C 687 223 688 202 718 201 Z" class="stroke13"/>
    <path d="M 420 688 Q 419 689 419 690 Q 409 700 378 716 Q 357 728 349 720 Q 342 713 349 697 Q 368 661 369 597 Q 375 342 352 106 Q 349 66 325 29 Q 315 14 323 -7 Q 332 -29 342 -38 Q 352 -47 370 -34 Q 493 50 860 44 Q 885 43 886 56 Q 886 71 857 92 Q 841 105 807 98 Q 702 82 620 72 Q 535 68 434 48 Q 418 44 411 50 Q 404 51 403 71 Q 413 291 418 569 Q 418 627 425 661 C 428 682 428 682 420 688 Z" class="stroke14"/>
    
    
    
    
    
    
    
    
    
    
    
    
    
    </g>
</svg>