<svg version="1.1" viewBox="0 0 1024 1024" xmlns="http://www.w3.org/2000/svg">
  
  <g transform="scale(1, -1) translate(0, -900)">
    <style type="text/css">
        .stroke1 {fill: #808080;}
        .stroke2 {fill: #808079;}
        .stroke3 {fill: #808078;}
        .stroke4 {fill: #808077;}
        .stroke5 {fill: #808076;}
        .stroke6 {fill: #808075;}
        .stroke7 {fill: #808074;}
        .stroke8 {fill: #808073;}
        .stroke9 {fill: #808072;}
        .stroke10 {fill: #808071;}
        .stroke11 {fill: #808070;}
        .stroke12 {fill: #808069;}
        .stroke13 {fill: #808068;}
        .stroke14 {fill: #808067;}
        .stroke15 {fill: #808066;}
        .stroke16 {fill: #808065;}
        .stroke17 {fill: #808064;}
        .stroke18 {fill: #808063;}
        .stroke19 {fill: #808062;}
        .stroke20 {fill: #808061;}
        text {
            font-family: Helvetica;
            font-size: 50px;
            fill: #808060;
            paint-order: stroke;
            stroke: #000000;
            stroke-width: 4px;
            stroke-linecap: butt;
            stroke-linejoin: miter;
            font-weight: 800;
        }
    </style>

    <path d="M 228 705 Q 247 686 269 665 Q 285 650 303 652 Q 315 653 320 668 Q 324 686 314 719 Q 302 746 221 759 Q 203 763 196 760 Q 190 756 192 740 Q 196 727 228 705 Z" class="stroke1"/>
    <path d="M 128 498 Q 173 446 205 433 Q 221 430 231 445 Q 237 458 234 476 Q 227 501 208 515 Q 153 548 116 542 Q 113 542 113 541 Q 106 540 109 526 Q 110 513 128 498 Z" class="stroke2"/>
    <path d="M 127 146 Q 115 142 118 123 Q 140 45 173 29 Q 180 22 191 26 Q 198 27 199 54 Q 203 97 226 163 Q 298 391 299 394 Q 298 404 289 397 Q 279 391 167 192 Q 155 170 127 146 Z" class="stroke3"/>
    <path d="M 571 735 Q 683 771 717 775 Q 735 775 739 782 Q 743 792 732 804 Q 713 822 670 842 Q 655 851 642 850 Q 635 846 633 836 Q 627 794 426 720 Q 420 711 426 708 Q 435 705 528 726 L 571 735 Z" class="stroke4"/>
    <path d="M 396 638 Q 453 574 474 573 Q 487 572 493 590 Q 494 603 484 622 Q 474 638 451 646 Q 415 662 400 664 Q 391 665 390 654 Q 389 647 396 638 Z" class="stroke5"/>
    <path d="M 697 695 Q 681 670 648 632 Q 642 625 647 619 Q 654 618 661 621 Q 728 658 762 672 Q 778 676 775 686 Q 771 699 754 718 Q 738 734 718 738 Q 705 738 705 721 Q 706 708 697 695 Z" class="stroke6"/>
    <path d="M 612 531 Q 622 532 828 550 Q 844 551 848 558 Q 852 568 838 580 Q 790 613 722 592 Q 667 580 589 561 L 551 554 Q 454 536 342 516 Q 324 513 338 499 Q 368 477 398 485 Q 450 503 509 513 L 612 531 Z" class="stroke7"/>
    <path d="M 589 561 Q 592 648 615 691 Q 621 700 610 712 Q 592 727 571 735 C 544 747 515 753 528 726 Q 550 689 551 567 Q 551 561 551 554 L 549 486 Q 546 416 540 385 Q 539 375 554 338 Q 563 323 576 331 Q 583 337 584 499 Q 584 511 585 522 L 589 561 Z" class="stroke8"/>
    <path d="M 509 513 Q 457 411 321 315 Q 306 303 320 302 Q 330 301 366 316 Q 405 331 440 359 Q 471 384 505 424 Q 533 457 549 486 C 573 527 536 565 509 513 Z" class="stroke9"/>
    <path d="M 585 522 Q 670 438 761 362 Q 783 343 819 345 Q 885 346 951 366 Q 967 370 969 374 Q 970 381 956 385 Q 794 428 780 434 Q 714 464 612 531 C 580 552 564 543 585 522 Z" class="stroke10"/>
    <path d="M 408 274 Q 395 280 369 285 Q 356 289 353 284 Q 346 278 354 262 Q 385 183 399 56 Q 400 19 420 -8 Q 436 -30 443 -15 Q 447 -5 448 9 L 448 43 Q 447 55 446 68 Q 427 195 422 237 C 418 267 418 270 408 274 Z" class="stroke11"/>
    <path d="M 685 29 Q 695 4 721 -48 Q 728 -64 739 -64 Q 754 -61 763 -36 Q 787 12 803 185 Q 807 231 829 260 Q 845 279 834 292 Q 813 313 768 332 Q 750 342 719 331 Q 595 286 408 274 C 378 272 392 232 422 237 Q 426 237 432 238 Q 478 248 541 258 L 580 265 Q 721 293 738 276 Q 759 237 730 60 Q 729 44 722 42 Q 719 41 710 44 C 682 35 682 35 685 29 Z" class="stroke12"/>
    <path d="M 596 147 Q 635 154 670 157 Q 692 161 685 173 Q 675 186 651 192 Q 632 195 599 188 L 550 175 Q 507 165 467 156 Q 451 153 470 138 Q 480 131 500 134 Q 525 138 551 141 L 596 147 Z" class="stroke13"/>
    <path d="M 592 63 Q 593 109 596 147 L 599 188 Q 599 206 601 224 Q 607 242 580 265 C 558 285 532 287 541 258 Q 547 246 550 175 L 551 141 Q 551 107 553 57 C 554 27 591 33 592 63 Z" class="stroke14"/>
    <path d="M 448 9 Q 455 8 463 9 Q 533 22 685 29 C 715 30 720 31 710 44 Q 706 53 682 69 Q 667 78 592 63 L 553 57 Q 498 50 448 43 C 418 39 418 11 448 9 Z" class="stroke15"/>
    
    
    
    
    
    
    
    
    
    
    
    
    
    
    </g>
</svg>