<svg version="1.1" viewBox="0 0 1024 1024" xmlns="http://www.w3.org/2000/svg">
  
  <g transform="scale(1, -1) translate(0, -900)">
    <style type="text/css">
        .stroke1 {fill: #808080;}
        .stroke2 {fill: #808079;}
        .stroke3 {fill: #808078;}
        .stroke4 {fill: #808077;}
        .stroke5 {fill: #808076;}
        .stroke6 {fill: #808075;}
        .stroke7 {fill: #808074;}
        .stroke8 {fill: #808073;}
        .stroke9 {fill: #808072;}
        .stroke10 {fill: #808071;}
        .stroke11 {fill: #808070;}
        .stroke12 {fill: #808069;}
        .stroke13 {fill: #808068;}
        .stroke14 {fill: #808067;}
        .stroke15 {fill: #808066;}
        .stroke16 {fill: #808065;}
        .stroke17 {fill: #808064;}
        .stroke18 {fill: #808063;}
        .stroke19 {fill: #808062;}
        .stroke20 {fill: #808061;}
        text {
            font-family: Helvetica;
            font-size: 50px;
            fill: #808060;
            paint-order: stroke;
            stroke: #000000;
            stroke-width: 4px;
            stroke-linecap: butt;
            stroke-linejoin: miter;
            font-weight: 800;
        }
    </style>

    <path d="M 243 747 Q 264 728 285 704 Q 298 691 316 690 Q 326 691 333 705 Q 337 720 329 751 Q 325 769 297 781 Q 230 805 216 799 Q 210 795 212 782 Q 216 770 243 747 Z" class="stroke1"/>
    <path d="M 134 538 Q 171 483 205 458 Q 220 454 231 465 Q 238 478 239 495 Q 230 541 152 575 Q 136 582 126 580 Q 120 579 121 567 Q 121 554 134 538 Z" class="stroke2"/>
    <path d="M 129 175 Q 117 171 120 155 Q 132 83 166 64 Q 173 57 183 60 Q 190 61 191 86 Q 200 141 297 381 Q 304 397 303 402 Q 302 412 293 406 Q 284 400 169 217 Q 157 196 129 175 Z" class="stroke3"/>
    <path d="M 573 815 Q 594 799 615 777 Q 630 764 646 766 Q 656 767 661 780 Q 665 796 654 825 Q 648 841 622 851 Q 556 869 544 863 Q 540 859 541 846 Q 545 836 573 815 Z" class="stroke4"/>
    <path d="M 416 684 Q 407 705 397 715 Q 382 727 380 705 Q 384 672 335 617 Q 319 596 341 554 Q 356 535 368 555 Q 383 574 393 605 Q 405 641 415 661 C 421 673 421 673 416 684 Z" class="stroke5"/>
    <path d="M 415 661 Q 433 652 477 664 Q 571 701 726 723 Q 762 729 775 728 Q 782 724 781 718 Q 781 714 766 672 Q 757 659 763 656 Q 770 652 787 662 Q 830 683 866 687 Q 894 690 895 698 Q 892 707 831 753 Q 807 772 731 751 Q 722 751 497 702 Q 455 692 416 684 C 387 678 386 668 415 661 Z" class="stroke6"/>
    <path d="M 453 598 Q 434 561 409 528 Q 393 509 404 478 Q 408 465 425 473 Q 464 498 469 553 Q 475 578 471 596 Q 467 603 463 604 Q 456 603 453 598 Z" class="stroke7"/>
    <path d="M 511 565 Q 565 498 658 500 Q 692 500 729 511 Q 751 523 758 538 Q 765 551 744 555 Q 708 571 664 605 Q 661 606 659 605 Q 658 602 662 598 Q 692 558 688 548 Q 684 544 653 538 Q 589 529 517 576 Q 511 582 507 577 Q 504 573 511 565 Z" class="stroke8"/>
    <path d="M 557 620 Q 602 584 608 583 Q 615 584 618 593 Q 621 602 614 621 Q 607 637 554 650 Q 544 651 540 650 Q 536 649 538 639 Q 539 632 557 620 Z" class="stroke9"/>
    <path d="M 752 599 Q 774 580 797 556 Q 806 549 815 548 Q 822 548 826 557 Q 829 566 824 585 Q 817 609 750 629 Q 740 632 736 630 Q 732 629 733 620 Q 734 613 752 599 Z" class="stroke10"/>
    <path d="M 448 416 Q 438 420 411 423 Q 401 424 398 420 Q 394 416 399 405 Q 400 401 403 398 Q 422 370 439 318 Q 440 308 448 299 C 467 276 472 273 474 303 Q 475 313 473 324 Q 463 369 460 388 C 456 413 456 413 448 416 Z" class="stroke11"/>
    <path d="M 774 353 Q 792 402 813 414 Q 826 430 814 445 Q 801 457 755 477 Q 739 484 721 477 Q 610 434 448 416 C 418 413 431 379 460 388 Q 475 394 524 401 L 543 405 Q 579 412 616 419 L 647 425 Q 719 441 731 430 Q 740 421 726 344 C 721 314 763 325 774 353 Z" class="stroke12"/>
    <path d="M 567 317 Q 567 372 543 405 C 526 430 524 431 524 401 Q 524 355 544 314 C 557 287 567 287 567 317 Z" class="stroke13"/>
    <path d="M 630 327 Q 639 345 653 377 Q 657 384 663 396 Q 670 405 665 411 Q 659 418 647 425 C 621 441 604 447 616 419 Q 625 403 614 340 Q 611 333 611 324 C 610 294 617 300 630 327 Z" class="stroke14"/>
    <path d="M 448 299 Q 391 293 334 283 Q 316 280 330 267 Q 342 255 356 252 Q 374 248 387 252 Q 612 321 916 320 Q 917 320 919 320 Q 935 320 939 328 Q 943 337 930 348 Q 879 384 819 363 Q 797 360 774 353 L 726 344 Q 680 337 630 327 L 611 324 Q 589 321 567 317 L 544 314 Q 510 310 474 303 L 448 299 Z" class="stroke15"/>
    <path d="M 630 207 Q 711 220 813 221 Q 829 222 832 229 Q 836 239 822 249 Q 776 280 736 265 Q 619 235 425 202 Q 409 199 421 187 Q 433 177 447 173 Q 463 169 476 174 Q 528 190 587 200 L 630 207 Z" class="stroke16"/>
    <path d="M 587 200 Q 599 172 603 41 Q 602 8 591 -3 Q 585 -6 520 4 Q 508 7 509 0 Q 510 -7 519 -15 Q 571 -57 602 -90 Q 612 -97 625 -84 Q 661 -36 655 74 Q 655 78 655 81 Q 654 118 655 152 Q 661 177 656 186 Q 650 195 630 207 C 605 223 578 229 587 200 Z" class="stroke17"/>
    
    
    
    
    
    
    
    
    
    
    
    
    
    
    
    
    </g>
</svg>