<svg version="1.1" viewBox="0 0 1024 1024" xmlns="http://www.w3.org/2000/svg">
  
  <g transform="scale(1, -1) translate(0, -900)">
    <style type="text/css">
        .stroke1 {fill: #808080;}
        .stroke2 {fill: #808079;}
        .stroke3 {fill: #808078;}
        .stroke4 {fill: #808077;}
        .stroke5 {fill: #808076;}
        .stroke6 {fill: #808075;}
        .stroke7 {fill: #808074;}
        .stroke8 {fill: #808073;}
        .stroke9 {fill: #808072;}
        .stroke10 {fill: #808071;}
        .stroke11 {fill: #808070;}
        .stroke12 {fill: #808069;}
        .stroke13 {fill: #808068;}
        .stroke14 {fill: #808067;}
        .stroke15 {fill: #808066;}
        .stroke16 {fill: #808065;}
        .stroke17 {fill: #808064;}
        .stroke18 {fill: #808063;}
        .stroke19 {fill: #808062;}
        .stroke20 {fill: #808061;}
        text {
            font-family: Helvetica;
            font-size: 50px;
            fill: #808060;
            paint-order: stroke;
            stroke: #000000;
            stroke-width: 4px;
            stroke-linecap: butt;
            stroke-linejoin: miter;
            font-weight: 800;
        }
    </style>

    <path d="M 217 740 Q 239 721 261 698 Q 276 685 292 686 Q 304 686 309 700 Q 313 716 303 747 Q 297 765 270 776 Q 201 797 188 791 Q 182 787 184 773 Q 188 763 217 740 Z" class="stroke1"/>
    <path d="M 136 546 Q 181 492 209 480 Q 222 477 231 489 Q 238 501 236 516 Q 224 559 150 581 L 149 582 Q 134 586 125 583 Q 119 582 121 571 Q 122 561 136 546 Z" class="stroke2"/>
    <path d="M 126 162 Q 114 158 118 141 Q 134 71 171 55 Q 178 48 188 52 Q 195 53 194 78 Q 197 120 259 337 Q 265 353 263 359 Q 262 368 254 361 Q 245 355 157 197 Q 147 181 126 162 Z" class="stroke3"/>
    <path d="M 518 722 Q 517 756 517 784 Q 518 800 501 807 Q 468 825 447 820 Q 431 813 444 795 Q 465 767 477 714 L 483 682 Q 483 657 501 635 Q 511 625 516 635 Q 522 653 518 694 L 518 722 Z" class="stroke4"/>
    <path d="M 518 694 Q 528 698 542 702 Q 554 705 568 713 Q 574 717 572 723 Q 571 727 559 730 Q 540 727 518 722 L 477 714 Q 440 710 394 700 Q 366 700 350 698 Q 340 698 340 694 Q 339 687 344 680 Q 356 668 379 660 Q 394 653 408 658 Q 444 670 483 682 L 518 694 Z" class="stroke5"/>
    <path d="M 691 756 Q 695 778 717 815 Q 730 828 720 837 Q 708 852 677 867 Q 662 874 647 866 Q 637 860 645 851 Q 657 823 642 746 L 638 727 Q 620 661 622 645 Q 623 633 636 640 Q 643 647 676 716 L 691 756 Z" class="stroke6"/>
    <path d="M 676 716 Q 692 715 713 720 Q 767 733 840 727 Q 853 726 856 735 Q 860 744 849 755 Q 806 788 729 764 Q 711 761 691 756 C 662 749 657 748 642 746 Q 641 747 639 746 Q 615 742 632 730 Q 635 729 638 727 L 676 716 Z" class="stroke7"/>
    <path d="M 396 558 Q 384 588 363 599 Q 360 603 354 599 Q 350 596 348 585 Q 354 549 317 468 Q 307 452 309 434 Q 312 415 321 402 Q 328 390 334 398 Q 340 399 348 415 Q 354 422 363 455 Q 382 510 392 530 Q 392 531 393 532 C 401 547 401 547 396 558 Z" class="stroke8"/>
    <path d="M 393 532 Q 412 523 457 535 Q 565 571 706 592 Q 742 598 754 597 Q 770 590 767 579 L 748 513 Q 741 498 747 496 Q 754 495 769 506 Q 814 543 852 557 Q 883 569 882 577 Q 879 586 814 628 Q 790 644 711 623 Q 684 620 474 575 Q 434 566 396 558 C 367 552 364 538 393 532 Z" class="stroke9"/>
    <path d="M 457 498 Q 432 494 450 482 Q 477 467 545 481 Q 582 488 623 496 Q 647 500 651 504 Q 657 510 654 516 Q 650 523 629 529 Q 619 532 529 509 Q 496 502 457 498 Z" class="stroke10"/>
    <path d="M 524 395 Q 555 404 669 419 Q 678 418 686 429 Q 686 439 667 448 Q 640 469 551 439 Q 545 439 541 437 Q 507 430 395 413 Q 371 409 390 395 Q 420 374 446 380 Q 465 386 489 388 L 524 395 Z" class="stroke11"/>
    <path d="M 499 328 Q 503 340 531 351 Q 538 355 539 365 Q 539 374 524 395 C 507 420 501 416 489 388 Q 477 352 374 274 Q 365 270 363 266 Q 359 260 368 259 Q 380 258 475 311 C 496 323 496 323 499 328 Z" class="stroke12"/>
    <path d="M 607 255 Q 565 303 499 328 C 471 339 449 325 475 311 Q 476 310 480 308 Q 487 305 495 300 L 539 271 Q 548 264 557 255 L 590 214 Q 620 165 585 59 Q 575 28 563 21 Q 554 15 483 26 Q 470 30 468 24 Q 467 17 478 5 Q 527 -40 546 -69 Q 558 -87 572 -83 Q 617 -61 640 43 Q 658 134 641 197 C 624 270 628 233 607 255 Z" class="stroke13"/>
    <path d="M 495 300 Q 467 239 332 152 Q 316 143 335 144 Q 390 144 500 236 Q 503 243 539 271 C 563 290 509 327 495 300 Z" class="stroke14"/>
    <path d="M 557 255 Q 494 144 332 33 Q 319 23 328 21 Q 335 17 348 20 Q 447 48 552 167 Q 585 204 585 206 Q 588 210 590 214 C 606 240 572 281 557 255 Z" class="stroke15"/>
    <path d="M 622 247 Q 622 248 626 249 Q 723 310 770 332 Q 788 335 784 346 Q 780 362 762 382 Q 744 401 722 405 Q 709 405 708 386 Q 709 361 612 261 Q 609 260 607 255 C 589 231 596 233 622 247 Z" class="stroke16"/>
    <path d="M 641 197 Q 704 136 771 77 Q 796 58 833 60 Q 902 63 971 84 Q 989 88 989 93 Q 990 100 976 104 Q 811 143 794 151 Q 733 175 674 213 Q 640 237 622 247 C 596 262 619 218 641 197 Z" class="stroke17"/>
    
    
    
    
    
    
    
    
    
    
    
    
    
    
    
    
    </g>
</svg>