<svg version="1.1" viewBox="0 0 1024 1024" xmlns="http://www.w3.org/2000/svg">
  
  <g transform="scale(1, -1) translate(0, -900)">
    <style type="text/css">
        .stroke1 {fill: #808080;}
        .stroke2 {fill: #808079;}
        .stroke3 {fill: #808078;}
        .stroke4 {fill: #808077;}
        .stroke5 {fill: #808076;}
        .stroke6 {fill: #808075;}
        .stroke7 {fill: #808074;}
        .stroke8 {fill: #808073;}
        .stroke9 {fill: #808072;}
        .stroke10 {fill: #808071;}
        .stroke11 {fill: #808070;}
        .stroke12 {fill: #808069;}
        .stroke13 {fill: #808068;}
        .stroke14 {fill: #808067;}
        .stroke15 {fill: #808066;}
        .stroke16 {fill: #808065;}
        .stroke17 {fill: #808064;}
        .stroke18 {fill: #808063;}
        .stroke19 {fill: #808062;}
        .stroke20 {fill: #808061;}
        text {
            font-family: Helvetica;
            font-size: 50px;
            fill: #808060;
            paint-order: stroke;
            stroke: #000000;
            stroke-width: 4px;
            stroke-linecap: butt;
            stroke-linejoin: miter;
            font-weight: 800;
        }
    </style>

    <path d="M 247 691 Q 269 670 293 644 Q 306 631 324 631 Q 334 631 341 645 Q 345 660 337 691 Q 333 710 303 723 Q 233 750 220 743 Q 214 739 216 726 Q 220 713 247 691 Z" class="stroke1"/>
    <path d="M 147 498 Q 192 449 224 434 Q 239 431 247 445 Q 253 457 250 473 Q 238 512 158 535 Q 142 539 133 536 Q 127 535 130 523 Q 131 511 147 498 Z" class="stroke2"/>
    <path d="M 137 147 Q 127 143 128 126 Q 146 53 179 38 Q 186 31 195 34 Q 202 35 203 60 Q 207 108 290 345 Q 296 361 295 366 Q 294 376 285 369 Q 278 365 173 187 Q 163 168 137 147 Z" class="stroke3"/>
    <path d="M 632 742 Q 770 781 771 781 Q 778 788 775 795 Q 768 804 745 809 Q 721 813 637 782 L 581 766 Q 526 754 466 746 Q 438 740 458 727 Q 491 709 540 722 Q 559 728 584 731 L 632 742 Z" class="stroke4"/>
    <path d="M 623 673 Q 627 709 632 742 L 637 782 Q 637 785 638 787 Q 641 802 643 811 Q 646 820 648 826 Q 651 835 634 848 Q 606 864 584 868 Q 571 871 564 863 Q 557 857 564 844 Q 577 829 577 818 Q 578 793 581 766 L 584 731 Q 585 698 586 662 C 587 632 620 643 623 673 Z" class="stroke5"/>
    <path d="M 586 662 Q 564 658 547 654 Q 528 650 506 646 Q 484 642 502 630 Q 529 612 549 619 Q 604 634 705 654 Q 712 654 719 664 Q 719 673 701 680 Q 667 690 623 673 L 586 662 Z" class="stroke6"/>
    <path d="M 375 541 Q 350 537 370 516 Q 386 497 431 512 Q 602 555 757 586 Q 788 593 791 580 Q 792 568 772 523 Q 765 510 771 505 Q 778 501 790 513 Q 857 558 885 565 Q 906 569 905 581 Q 904 594 832 629 Q 807 641 721 613 Q 583 577 375 541 Z" class="stroke7"/>
    <path d="M 615 480 Q 621 483 686 496 Q 693 496 699 505 Q 699 514 683 520 Q 655 529 590 507 Q 587 507 586 506 Q 556 497 481 481 Q 462 477 478 466 Q 500 451 539 462 Q 552 466 568 468 L 615 480 Z" class="stroke8"/>
    <path d="M 618 417 L 615 480 C 614 510 567 498 568 468 L 571 406 C 572 376 619 387 618 417 Z" class="stroke9"/>
    <path d="M 571 406 Q 504 393 427 376 Q 414 373 424 363 Q 434 354 447 351 Q 462 350 472 353 Q 596 398 748 398 Q 761 399 764 406 Q 767 413 755 422 Q 713 449 656 428 Q 638 425 618 417 L 571 406 Z" class="stroke10"/>
    <path d="M 727 320 Q 794 327 878 330 Q 942 333 948 341 Q 952 351 937 363 Q 891 396 856 387 Q 714 351 322 288 Q 303 285 318 271 Q 331 259 347 255 Q 366 251 381 255 Q 520 301 692 317 L 727 320 Z" class="stroke11"/>
    <path d="M 383 205 Q 371 211 339 215 Q 329 216 326 212 Q 322 206 330 193 Q 352 159 370 101 Q 374 83 386 73 Q 402 55 405 69 Q 406 76 407 89 L 402 117 Q 390 169 388 186 C 385 204 385 204 383 205 Z" class="stroke12"/>
    <path d="M 521 135 Q 531 175 545 188 Q 561 209 544 220 Q 489 245 488 245 Q 482 245 477 241 Q 456 229 383 205 C 355 196 359 178 388 186 Q 424 196 456 204 Q 477 208 482 201 Q 486 197 478 142 C 474 112 513 106 521 135 Z" class="stroke13"/>
    <path d="M 407 89 Q 446 99 525 115 Q 532 116 533 124 Q 533 128 521 135 L 478 142 Q 472 142 470 140 Q 433 127 402 117 C 373 108 378 82 407 89 Z" class="stroke14"/>
    <path d="M 765 203 Q 795 207 839 210 Q 872 210 877 219 Q 880 228 867 237 Q 824 264 771 246 Q 770 246 769 245 L 719 231 Q 710 231 588 201 Q 572 198 585 187 Q 597 177 610 175 Q 626 172 638 176 Q 674 188 720 196 L 765 203 Z" class="stroke15"/>
    <path d="M 720 196 Q 724 39 707 24 Q 703 21 633 24 Q 621 25 624 19 Q 625 12 635 6 Q 699 -40 721 -70 Q 734 -85 748 -71 Q 779 -34 773 24 Q 766 144 765 203 L 769 245 Q 772 258 776 268 Q 783 284 769 296 Q 748 312 727 320 C 700 332 679 341 692 317 Q 693 313 699 304 Q 718 270 719 231 L 720 196 Z" class="stroke16"/>
    <path d="M 595 113 Q 610 97 625 76 Q 634 66 645 64 Q 652 64 658 73 Q 662 83 659 105 Q 655 127 596 148 Q 586 152 580 150 Q 576 149 576 138 Q 577 131 595 113 Z" class="stroke17"/>
    
    
    
    
    
    
    
    
    
    
    
    
    
    
    
    
    </g>
</svg>