<svg version="1.1" viewBox="0 0 1024 1024" xmlns="http://www.w3.org/2000/svg">
  
  <g transform="scale(1, -1) translate(0, -900)">
    <style type="text/css">
        .stroke1 {fill: #808080;}
        .stroke2 {fill: #808079;}
        .stroke3 {fill: #808078;}
        .stroke4 {fill: #808077;}
        .stroke5 {fill: #808076;}
        .stroke6 {fill: #808075;}
        .stroke7 {fill: #808074;}
        .stroke8 {fill: #808073;}
        .stroke9 {fill: #808072;}
        .stroke10 {fill: #808071;}
        .stroke11 {fill: #808070;}
        .stroke12 {fill: #808069;}
        .stroke13 {fill: #808068;}
        .stroke14 {fill: #808067;}
        .stroke15 {fill: #808066;}
        .stroke16 {fill: #808065;}
        .stroke17 {fill: #808064;}
        .stroke18 {fill: #808063;}
        .stroke19 {fill: #808062;}
        .stroke20 {fill: #808061;}
        text {
            font-family: Helvetica;
            font-size: 50px;
            fill: #808060;
            paint-order: stroke;
            stroke: #000000;
            stroke-width: 4px;
            stroke-linecap: butt;
            stroke-linejoin: miter;
            font-weight: 800;
        }
    </style>

    <path d="M 223 687 Q 245 666 271 641 Q 287 628 304 629 Q 316 630 320 645 Q 324 661 315 693 Q 303 723 216 739 Q 200 743 192 739 Q 186 735 189 721 Q 193 708 223 687 Z" class="stroke1"/>
    <path d="M 138 485 Q 183 440 223 424 Q 239 423 247 436 Q 251 449 248 467 Q 232 509 171 520 Q 131 529 121 524 Q 114 523 118 510 Q 121 498 138 485 Z" class="stroke2"/>
    <path d="M 111 158 Q 99 154 101 137 Q 117 65 152 44 Q 159 37 169 41 Q 176 42 177 67 Q 180 106 265 344 Q 272 360 271 366 Q 270 376 261 369 Q 252 363 147 196 Q 135 177 111 158 Z" class="stroke3"/>
    <path d="M 607 681 Q 611 712 616 739 L 619 765 Q 620 775 622 783 Q 625 796 627 805 Q 630 812 632 818 Q 635 827 618 840 Q 590 856 568 860 Q 555 863 548 856 Q 541 849 548 837 Q 566 816 570 674 C 571 644 603 651 607 681 Z" class="stroke4"/>
    <path d="M 616 739 Q 649 733 731 753 Q 744 757 761 760 Q 777 764 781 768 Q 788 775 783 782 Q 776 792 751 796 Q 739 799 660 774 Q 641 770 619 765 C 590 758 586 743 616 739 Z" class="stroke5"/>
    <path d="M 436 606 Q 443 606 452 608 Q 530 636 702 671 Q 742 678 756 677 Q 771 671 768 662 Q 758 623 747 584 Q 754 581 771 593 Q 817 624 856 634 Q 887 643 887 652 Q 884 661 818 707 Q 791 728 707 703 Q 644 691 607 681 L 570 674 Q 542 670 414 641 C 385 634 406 602 436 606 Z" class="stroke6"/>
    <path d="M 414 641 Q 377 668 356 661 Q 344 654 351 641 Q 370 605 367 557 Q 349 362 331 287 Q 322 256 313 227 Q 276 133 195 2 Q 189 -4 188 -10 Q 185 -20 196 -19 Q 227 -15 303 104 Q 319 131 335 163 Q 395 301 421 522 Q 424 571 436 606 C 441 624 439 625 414 641 Z" class="stroke7"/>
    <path d="M 592 535 Q 619 544 678 558 Q 687 557 692 568 Q 692 577 674 583 Q 637 592 596 572 L 557 558 Q 541 554 464 534 Q 443 530 461 518 Q 482 506 521 513 Q 536 519 556 524 L 592 535 Z" class="stroke8"/>
    <path d="M 556 524 Q 556 473 576 454 Q 619 418 712 440 Q 712 441 715 441 Q 736 448 755 463 Q 768 473 759 490 Q 752 503 738 543 Q 737 553 732 557 Q 728 560 725 548 Q 698 488 674 480 Q 641 471 611 482 Q 601 486 597 493 Q 591 505 592 535 L 596 572 Q 597 579 599 587 Q 603 600 593 609 Q 583 619 565 625 Q 555 628 549 624 Q 543 621 548 608 Q 557 583 557 558 L 556 524 Z" class="stroke9"/>
    <path d="M 482 379 Q 472 385 447 388 Q 435 391 433 386 Q 427 382 435 367 Q 460 313 475 226 Q 478 199 494 182 Q 510 163 514 177 Q 517 186 517 199 L 516 220 Q 503 286 496 350 C 493 374 493 374 482 379 Z" class="stroke10"/>
    <path d="M 677 220 Q 693 190 709 182 Q 718 175 733 193 Q 746 211 777 310 Q 787 338 809 360 Q 821 370 811 383 Q 798 399 760 424 Q 745 433 670 416 Q 652 416 482 379 C 453 373 467 342 496 350 Q 530 360 578 370 L 614 376 Q 710 397 725 385 Q 735 378 731 362 Q 707 257 692 242 C 678 219 676 221 677 220 Z" class="stroke11"/>
    <path d="M 626 296 Q 650 302 673 304 Q 692 307 685 318 Q 676 330 655 333 Q 645 334 629 331 L 583 319 Q 555 310 530 302 Q 517 299 533 287 Q 536 286 584 289 L 626 296 Z" class="stroke12"/>
    <path d="M 623 245 Q 624 273 626 296 L 629 331 Q 633 358 629 363 Q 622 370 614 376 C 590 394 574 400 578 370 Q 579 364 583 319 L 584 289 Q 584 267 586 235 C 588 205 622 215 623 245 Z" class="stroke13"/>
    <path d="M 517 199 Q 523 198 532 199 Q 611 212 677 220 C 707 224 717 225 692 242 Q 685 248 673 250 Q 655 253 623 245 L 586 235 Q 549 228 516 220 C 487 213 487 202 517 199 Z" class="stroke14"/>
    <path d="M 394 136 Q 375 94 349 58 Q 331 28 346 -1 Q 353 -16 371 -6 Q 411 25 416 85 Q 420 113 415 136 Q 411 143 405 144 Q 398 143 394 136 Z" class="stroke15"/>
    <path d="M 467 120 Q 488 33 554 -7 Q 644 -61 812 -34 Q 836 -28 856 -19 Q 877 -9 877 4 Q 881 13 847 36 Q 795 81 757 127 Q 745 143 741 136 Q 740 136 755 57 Q 767 21 725 13 Q 716 13 706 11 Q 589 7 541 51 Q 519 70 509 104 Q 502 126 490 131 Q 477 138 470 134 Q 464 133 467 120 Z" class="stroke16"/>
    <path d="M 606 121 Q 625 103 644 81 Q 656 69 670 69 Q 680 69 685 81 Q 689 94 683 121 Q 677 145 604 165 Q 591 169 584 167 Q 580 163 580 152 Q 583 142 606 121 Z" class="stroke17"/>
    <path d="M 819 169 Q 853 138 892 101 Q 904 88 918 89 Q 928 89 933 101 Q 937 114 931 141 Q 922 180 816 213 Q 803 217 796 215 Q 792 211 792 200 Q 795 190 819 169 Z" class="stroke18"/>
    
    
    
    
    
    
    
    
    
    
    
    
    
    
    
    
    
    </g>
</svg>