<svg version="1.1" viewBox="0 0 1024 1024" xmlns="http://www.w3.org/2000/svg">
  
  <g transform="scale(1, -1) translate(0, -900)">
    <style type="text/css">
        .stroke1 {fill: #808080;}
        .stroke2 {fill: #808079;}
        .stroke3 {fill: #808078;}
        .stroke4 {fill: #808077;}
        .stroke5 {fill: #808076;}
        .stroke6 {fill: #808075;}
        .stroke7 {fill: #808074;}
        .stroke8 {fill: #808073;}
        .stroke9 {fill: #808072;}
        .stroke10 {fill: #808071;}
        .stroke11 {fill: #808070;}
        .stroke12 {fill: #808069;}
        .stroke13 {fill: #808068;}
        .stroke14 {fill: #808067;}
        .stroke15 {fill: #808066;}
        .stroke16 {fill: #808065;}
        .stroke17 {fill: #808064;}
        .stroke18 {fill: #808063;}
        .stroke19 {fill: #808062;}
        .stroke20 {fill: #808061;}
        text {
            font-family: Helvetica;
            font-size: 50px;
            fill: #808060;
            paint-order: stroke;
            stroke: #000000;
            stroke-width: 4px;
            stroke-linecap: butt;
            stroke-linejoin: miter;
            font-weight: 800;
        }
    </style>

    <path d="M 156 545 Q 146 487 127 430 Q 115 393 141 362 Q 154 346 172 364 Q 190 386 196 422 Q 203 462 197 493 Q 194 527 180 551 Q 173 558 167 558 Q 158 554 156 545 Z" class="stroke1"/>
    <path d="M 315 494 Q 366 515 419 540 Q 438 552 462 557 Q 481 563 475 580 Q 466 598 445 614 Q 426 630 414 630 Q 402 630 404 618 Q 404 597 329 530 Q 323 526 317 519 C 297 497 287 483 315 494 Z" class="stroke2"/>
    <path d="M 300 303 Q 309 373 315 494 L 317 519 Q 318 642 344 706 Q 351 721 339 732 Q 317 751 275 763 Q 250 769 240 762 Q 230 755 238 742 Q 299 649 252 309 Q 228 186 150 104 Q 126 83 99 60 Q 87 51 88 47 Q 89 43 101 44 Q 114 40 146 56 Q 254 102 290 251 Q 293 264 295 278 L 300 303 Z" class="stroke3"/>
    <path d="M 295 278 Q 302 269 318 254 Q 349 223 382 187 Q 394 174 409 173 Q 419 173 425 185 Q 431 198 425 228 Q 418 264 317 300 Q 307 304 300 303 C 274 303 276 301 295 278 Z" class="stroke4"/>
    <path d="M 556 542 Q 592 602 628 687 Q 644 729 660 751 Q 667 763 661 776 Q 654 788 622 806 Q 592 819 573 817 Q 554 811 567 791 Q 612 724 450 432 Q 441 420 440 414 Q 439 402 452 407 Q 479 417 541 518 L 556 542 Z" class="stroke5"/>
    <path d="M 541 518 Q 560 502 581 510 Q 645 535 717 551 Q 754 561 767 558 Q 777 545 770 538 Q 770 535 739 468 Q 732 458 737 453 Q 741 447 752 459 Q 843 523 883 538 Q 892 539 893 548 Q 893 561 865 574 Q 795 611 781 604 Q 696 568 556 542 C 527 536 516 534 541 518 Z" class="stroke6"/>
    <path d="M 612 323 Q 627 398 639 417 Q 649 436 632 446 Q 581 483 556 474 Q 543 470 549 454 Q 579 394 538 259 Q 502 148 391 74 Q 379 65 368 56 Q 355 47 367 44 Q 427 44 498 108 Q 577 172 604 288 L 612 323 Z" class="stroke7"/>
    <path d="M 604 288 Q 674 170 765 43 Q 783 22 813 21 Q 919 18 953 22 Q 963 23 964 29 Q 965 33 952 43 Q 805 110 724 197 Q 670 251 612 323 C 593 346 589 314 604 288 Z" class="stroke8"/>
    
    
    
    
    
    
    
    </g>
</svg>