<svg version="1.1" viewBox="0 0 1024 1024" xmlns="http://www.w3.org/2000/svg">
  
  <g transform="scale(1, -1) translate(0, -900)">
    <style type="text/css">
        .stroke1 {fill: #808080;}
        .stroke2 {fill: #808079;}
        .stroke3 {fill: #808078;}
        .stroke4 {fill: #808077;}
        .stroke5 {fill: #808076;}
        .stroke6 {fill: #808075;}
        .stroke7 {fill: #808074;}
        .stroke8 {fill: #808073;}
        .stroke9 {fill: #808072;}
        .stroke10 {fill: #808071;}
        .stroke11 {fill: #808070;}
        .stroke12 {fill: #808069;}
        .stroke13 {fill: #808068;}
        .stroke14 {fill: #808067;}
        .stroke15 {fill: #808066;}
        .stroke16 {fill: #808065;}
        .stroke17 {fill: #808064;}
        .stroke18 {fill: #808063;}
        .stroke19 {fill: #808062;}
        .stroke20 {fill: #808061;}
        text {
            font-family: Helvetica;
            font-size: 50px;
            fill: #808060;
            paint-order: stroke;
            stroke: #000000;
            stroke-width: 4px;
            stroke-linecap: butt;
            stroke-linejoin: miter;
            font-weight: 800;
        }
    </style>

    <path d="M 146 573 Q 140 512 123 455 Q 111 422 138 393 Q 150 378 166 396 Q 205 447 185 527 Q 181 558 168 579 Q 161 586 156 585 Q 149 581 146 573 Z" class="stroke1"/>
    <path d="M 306 524 Q 343 545 365 559 Q 410 595 435 603 Q 453 610 444 625 Q 434 638 414 651 Q 395 663 385 661 Q 375 660 378 649 Q 379 624 338 580 Q 322 564 307 545 C 288 522 280 509 306 524 Z" class="stroke2"/>
    <path d="M 295 322 Q 301 388 306 524 L 307 545 Q 308 656 332 723 Q 339 736 328 747 Q 306 765 269 775 Q 245 781 237 774 Q 228 767 236 756 Q 293 668 246 303 Q 219 180 165 111 Q 140 83 106 51 Q 96 42 96 38 Q 97 34 108 36 Q 121 32 150 48 Q 268 105 291 296 L 295 322 Z" class="stroke3"/>
    <path d="M 291 296 Q 295 290 304 282 Q 332 252 363 216 Q 372 206 384 204 Q 391 203 397 213 Q 403 223 399 247 Q 396 269 368 288 Q 307 321 295 322 C 266 328 273 320 291 296 Z" class="stroke4"/>
    <path d="M 541 588 Q 598 675 619 712 Q 634 745 648 761 Q 657 773 651 786 Q 645 799 614 819 Q 586 835 566 832 Q 547 828 558 807 Q 579 774 520 644 Q 492 586 452 520 Q 442 508 441 502 Q 438 490 453 494 Q 471 501 519 558 L 541 588 Z" class="stroke5"/>
    <path d="M 519 558 Q 520 558 524 556 Q 549 541 569 549 Q 756 610 774 594 Q 787 576 781 529 Q 772 399 744 341 Q 731 311 705 314 Q 687 318 671 324 Q 647 334 663 308 Q 699 266 714 234 Q 738 212 757 234 Q 788 259 809 305 Q 833 357 839 516 Q 842 571 859 600 Q 872 613 864 624 Q 854 636 801 656 Q 779 663 760 649 Q 711 616 541 588 C 511 583 492 570 519 558 Z" class="stroke6"/>
    <path d="M 618 329 Q 637 390 657 408 Q 679 432 657 446 Q 639 456 614 473 Q 596 483 554 460 Q 515 445 472 437 C 443 431 458 402 487 410 Q 497 413 561 427 Q 580 431 586 423 Q 589 420 569 332 C 562 303 609 300 618 329 Z" class="stroke7"/>
    <path d="M 471 280 Q 484 274 500 279 Q 540 289 630 299 Q 640 300 641 309 Q 641 316 618 329 C 598 340 598 340 569 332 Q 517 317 473 307 C 444 300 443 290 471 280 Z" class="stroke8"/>
    <path d="M 958 105 Q 946 139 936 240 Q 936 256 929 262 Q 923 266 917 248 Q 883 142 861 110 Q 840 85 783 69 Q 651 35 539 72 Q 496 91 485 117 Q 458 171 471 280 L 473 307 Q 477 353 487 405 Q 487 408 487 410 C 490 428 490 428 472 437 Q 462 446 447 450 Q 435 454 428 449 Q 422 446 427 430 Q 439 394 436 361 Q 424 156 442 100 Q 446 69 477 43 Q 591 -39 824 8 Q 831 11 841 12 Q 896 28 950 65 Q 969 78 958 105 Z" class="stroke9"/>
    
    
    
    
    
    
    
    
    </g>
</svg>