<svg version="1.1" viewBox="0 0 1024 1024" xmlns="http://www.w3.org/2000/svg">
  
  <g transform="scale(1, -1) translate(0, -900)">
    <style type="text/css">
        .stroke1 {fill: #808080;}
        .stroke2 {fill: #808079;}
        .stroke3 {fill: #808078;}
        .stroke4 {fill: #808077;}
        .stroke5 {fill: #808076;}
        .stroke6 {fill: #808075;}
        .stroke7 {fill: #808074;}
        .stroke8 {fill: #808073;}
        .stroke9 {fill: #808072;}
        .stroke10 {fill: #808071;}
        .stroke11 {fill: #808070;}
        .stroke12 {fill: #808069;}
        .stroke13 {fill: #808068;}
        .stroke14 {fill: #808067;}
        .stroke15 {fill: #808066;}
        .stroke16 {fill: #808065;}
        .stroke17 {fill: #808064;}
        .stroke18 {fill: #808063;}
        .stroke19 {fill: #808062;}
        .stroke20 {fill: #808061;}
        text {
            font-family: Helvetica;
            font-size: 50px;
            fill: #808060;
            paint-order: stroke;
            stroke: #000000;
            stroke-width: 4px;
            stroke-linecap: butt;
            stroke-linejoin: miter;
            font-weight: 800;
        }
    </style>

    <path d="M 133 569 Q 126 511 107 455 Q 95 419 122 390 Q 134 374 151 392 Q 190 446 173 520 Q 170 553 156 575 Q 149 582 143 581 Q 136 578 133 569 Z" class="stroke1"/>
    <path d="M 302 508 Q 339 526 363 539 Q 420 573 449 583 Q 470 590 462 608 Q 452 626 428 642 Q 406 657 394 655 Q 382 655 385 642 Q 386 617 333 565 Q 318 552 303 536 C 282 514 275 495 302 508 Z" class="stroke2"/>
    <path d="M 287 329 Q 291 365 302 508 L 303 536 Q 307 692 330 757 Q 337 772 325 784 Q 300 803 258 814 Q 231 821 222 813 Q 212 806 221 792 Q 287 690 235 316 Q 196 199 193 193 Q 190 190 189 186 Q 155 123 79 61 Q 67 51 67 47 Q 70 43 82 44 Q 95 40 128 58 Q 243 112 281 293 L 287 329 Z" class="stroke3"/>
    <path d="M 281 293 Q 290 284 333 221 Q 342 208 354 205 Q 363 204 369 213 Q 376 223 375 249 Q 372 285 289 329 Q 288 330 287 329 C 258 337 261 315 281 293 Z" class="stroke4"/>
    <path d="M 631 575 Q 835 627 840 631 Q 849 640 844 648 Q 837 660 806 666 Q 775 672 744 658 Q 698 640 645 626 Q 588 611 521 602 Q 484 595 511 579 Q 542 563 579 565 L 631 575 Z" class="stroke5"/>
    <path d="M 457 407 Q 438 426 405 424 Q 392 420 398 409 Q 434 340 407 183 Q 392 128 392 125 Q 392 98 412 76 Q 419 63 428 69 Q 456 90 460 187 Q 461 331 465 371 C 467 399 467 399 457 407 Z" class="stroke6"/>
    <path d="M 648 407 Q 667 413 799 423 Q 809 423 814 418 Q 821 414 824 376 Q 837 222 821 133 Q 814 96 783 99 Q 750 103 721 107 Q 706 113 706 105 Q 705 98 717 85 Q 789 25 807 -6 Q 817 -19 827 -17 Q 840 -16 852 10 Q 885 70 892 255 Q 892 384 906 411 Q 922 433 909 438 Q 893 454 854 470 Q 833 482 776 466 Q 683 454 653 447 L 600 437 Q 572 433 550 427 Q 501 417 457 407 C 428 400 436 363 465 371 Q 472 372 480 375 Q 525 390 595 398 L 648 407 Z" class="stroke7"/>
    <path d="M 622 331 Q 622 335 638 369 Q 644 388 648 407 L 653 447 Q 653 448 654 451 Q 657 517 666 539 Q 673 557 657 563 Q 642 570 631 575 C 604 588 561 589 579 565 Q 607 537 600 437 L 595 398 Q 576 308 485 226 Q 475 216 486 215 Q 549 224 612 312 L 622 331 Z" class="stroke8"/>
    <path d="M 612 312 Q 613 311 617 307 Q 656 276 704 232 Q 719 216 732 214 Q 739 213 745 222 Q 754 235 740 270 Q 731 306 622 331 C 593 338 591 333 612 312 Z" class="stroke9"/>
    
    
    
    
    
    
    
    
    </g>
</svg>