<svg version="1.1" viewBox="0 0 1024 1024" xmlns="http://www.w3.org/2000/svg">
  
  <g transform="scale(1, -1) translate(0, -900)">
    <style type="text/css">
        .stroke1 {fill: #808080;}
        .stroke2 {fill: #808079;}
        .stroke3 {fill: #808078;}
        .stroke4 {fill: #808077;}
        .stroke5 {fill: #808076;}
        .stroke6 {fill: #808075;}
        .stroke7 {fill: #808074;}
        .stroke8 {fill: #808073;}
        .stroke9 {fill: #808072;}
        .stroke10 {fill: #808071;}
        .stroke11 {fill: #808070;}
        .stroke12 {fill: #808069;}
        .stroke13 {fill: #808068;}
        .stroke14 {fill: #808067;}
        .stroke15 {fill: #808066;}
        .stroke16 {fill: #808065;}
        .stroke17 {fill: #808064;}
        .stroke18 {fill: #808063;}
        .stroke19 {fill: #808062;}
        .stroke20 {fill: #808061;}
        text {
            font-family: Helvetica;
            font-size: 50px;
            fill: #808060;
            paint-order: stroke;
            stroke: #000000;
            stroke-width: 4px;
            stroke-linecap: butt;
            stroke-linejoin: miter;
            font-weight: 800;
        }
    </style>

    <path d="M 100 534 Q 113 479 119 423 Q 122 389 156 371 Q 172 362 181 384 Q 196 441 153 505 Q 138 533 118 548 Q 109 551 104 549 Q 98 542 100 534 Z" class="stroke1"/>
    <path d="M 292 525 Q 319 535 374 563 Q 393 575 415 581 Q 436 588 428 605 Q 418 621 397 638 Q 378 653 365 652 Q 353 652 356 640 Q 356 622 297 561 Q 294 560 293 556 C 275 532 264 514 292 525 Z" class="stroke2"/>
    <path d="M 275 275 Q 281 317 292 525 L 293 556 Q 296 653 317 706 Q 324 721 312 733 Q 288 752 247 762 Q 220 769 212 761 Q 202 754 211 741 Q 269 647 230 304 Q 209 193 162 130 Q 134 96 91 60 Q 79 51 80 47 Q 81 43 93 44 Q 106 40 135 56 Q 235 101 269 243 Q 269 244 269 246 L 275 275 Z" class="stroke3"/>
    <path d="M 269 246 Q 300 216 337 172 Q 350 156 363 151 Q 370 150 377 158 Q 387 168 378 206 Q 374 225 360 240 Q 347 249 316 261 Q 292 270 275 275 C 246 284 248 267 269 246 Z" class="stroke4"/>
    <path d="M 607 661 Q 709 703 745 711 Q 764 712 767 720 Q 771 732 758 743 Q 736 759 688 778 Q 672 785 658 784 Q 649 780 649 768 Q 649 726 449 629 Q 443 619 450 616 Q 471 616 555 644 Q 562 647 572 649 L 607 661 Z" class="stroke5"/>
    <path d="M 458 506 Q 492 455 520 438 Q 533 434 543 445 Q 550 455 550 472 Q 543 511 492 531 Q 461 546 450 543 Q 444 543 445 531 Q 445 521 458 506 Z" class="stroke6"/>
    <path d="M 745 589 Q 735 571 687 514 Q 677 498 694 500 Q 731 515 752 526 Q 822 565 827 566 Q 849 575 839 592 Q 827 610 803 625 Q 781 641 768 638 Q 755 637 758 624 Q 761 606 745 589 Z" class="stroke7"/>
    <path d="M 672 375 Q 751 385 918 385 Q 939 386 944 395 Q 950 407 932 421 Q 874 466 810 445 Q 750 435 667 418 L 621 410 Q 509 394 377 375 Q 355 372 371 355 Q 402 327 454 338 Q 569 369 620 370 Q 621 370 623 369 L 672 375 Z" class="stroke8"/>
    <path d="M 623 369 Q 623 368 624 366 Q 636 147 594 81 Q 591 74 583 70 Q 568 64 472 84 Q 465 84 462 81 Q 461 77 469 70 Q 536 19 574 -19 Q 586 -32 594 -29 Q 607 -28 633 -2 Q 687 52 685 158 Q 686 221 672 375 L 667 418 Q 655 518 650 547 Q 634 646 632 647 Q 629 650 607 661 C 581 675 558 676 572 649 Q 605 601 621 410 L 623 369 Z" class="stroke9"/>
    
    
    
    
    
    
    
    
    </g>
</svg>