<svg version="1.1" viewBox="0 0 1024 1024" xmlns="http://www.w3.org/2000/svg">
  
  <g transform="scale(1, -1) translate(0, -900)">
    <style type="text/css">
        .stroke1 {fill: #808080;}
        .stroke2 {fill: #808079;}
        .stroke3 {fill: #808078;}
        .stroke4 {fill: #808077;}
        .stroke5 {fill: #808076;}
        .stroke6 {fill: #808075;}
        .stroke7 {fill: #808074;}
        .stroke8 {fill: #808073;}
        .stroke9 {fill: #808072;}
        .stroke10 {fill: #808071;}
        .stroke11 {fill: #808070;}
        .stroke12 {fill: #808069;}
        .stroke13 {fill: #808068;}
        .stroke14 {fill: #808067;}
        .stroke15 {fill: #808066;}
        .stroke16 {fill: #808065;}
        .stroke17 {fill: #808064;}
        .stroke18 {fill: #808063;}
        .stroke19 {fill: #808062;}
        .stroke20 {fill: #808061;}
        text {
            font-family: Helvetica;
            font-size: 50px;
            fill: #808060;
            paint-order: stroke;
            stroke: #000000;
            stroke-width: 4px;
            stroke-linecap: butt;
            stroke-linejoin: miter;
            font-weight: 800;
        }
    </style>

    <path d="M 385 674 Q 437 711 468 737 Q 532 798 562 811 Q 584 824 572 841 Q 556 859 528 872 Q 503 885 489 881 Q 476 878 481 865 Q 487 835 429 759 Q 399 722 366 679 Q 365 678 364 676 C 346 652 361 657 385 674 Z" class="stroke1"/>
    <path d="M 372 429 Q 371 465 371 500 Q 370 503 370 504 L 370 535 Q 370 595 383 632 Q 383 635 384 636 C 391 659 389 660 364 676 Q 351 686 332 692 Q 311 698 303 688 Q 296 682 305 670 Q 332 616 322 358 Q 318 330 313 301 Q 307 279 324 263 Q 346 247 366 260 C 376 264 375 307 374 337 Q 373 368 372 398 L 372 429 Z" class="stroke2"/>
    <path d="M 630 569 Q 663 638 694 652 Q 713 671 698 691 Q 619 757 562 725 Q 484 698 385 674 C 356 667 323 621 384 636 Q 387 637 568 681 Q 590 687 598 678 Q 605 671 601 655 Q 588 613 575 579 C 564 551 617 542 630 569 Z" class="stroke3"/>
    <path d="M 370 504 Q 377 503 388 505 Q 464 524 633 544 Q 643 545 644 553 Q 644 559 630 569 L 575 579 Q 574 580 572 579 Q 460 551 370 535 C 340 530 340 505 370 504 Z" class="stroke4"/>
    <path d="M 372 398 Q 408 392 539 414 Q 626 430 630 434 Q 639 441 634 449 Q 628 459 602 467 Q 580 473 481 446 Q 388 431 372 429 C 342 425 342 401 372 398 Z" class="stroke5"/>
    <path d="M 366 260 Q 439 305 659 322 Q 783 334 803 316 Q 816 304 802 259 Q 795 201 784 139 Q 777 91 755 60 Q 746 50 670 64 Q 646 73 647 63 Q 646 57 656 48 Q 708 -6 724 -42 Q 734 -64 754 -53 Q 820 -20 831 47 Q 849 134 862 230 Q 869 270 890 303 Q 903 321 891 334 Q 872 356 833 378 Q 811 391 780 377 Q 716 353 657 349 Q 573 343 403 317 Q 375 313 374 337 C 353 359 339 247 366 260 Z" class="stroke6"/>
    <path d="M 178 221 Q 160 167 132 118 Q 114 84 135 48 Q 145 30 165 45 Q 213 87 210 163 Q 213 197 203 223 Q 197 230 191 232 Q 182 229 178 221 Z" class="stroke7"/>
    <path d="M 297 168 Q 312 114 336 90 Q 346 83 360 90 Q 370 99 373 114 Q 376 136 366 154 Q 329 205 300 206 Q 294 207 292 196 Q 289 186 297 168 Z" class="stroke8"/>
    <path d="M 426 198 Q 453 149 481 125 Q 493 121 504 130 Q 511 139 512 154 Q 511 176 499 190 Q 457 235 426 235 Q 423 236 422 235 Q 418 235 417 224 Q 416 214 426 198 Z" class="stroke9"/>
    <path d="M 576 209 Q 597 187 618 160 Q 630 147 644 145 Q 654 145 661 157 Q 667 170 662 200 Q 656 227 577 256 Q 562 260 556 259 Q 552 256 551 243 Q 552 233 576 209 Z" class="stroke10"/>
    
    
    
    
    
    
    
    
    
    </g>
</svg>