<svg version="1.1" viewBox="0 0 1024 1024" xmlns="http://www.w3.org/2000/svg">
  
  <g transform="scale(1, -1) translate(0, -900)">
    <style type="text/css">
        .stroke1 {fill: #808080;}
        .stroke2 {fill: #808079;}
        .stroke3 {fill: #808078;}
        .stroke4 {fill: #808077;}
        .stroke5 {fill: #808076;}
        .stroke6 {fill: #808075;}
        .stroke7 {fill: #808074;}
        .stroke8 {fill: #808073;}
        .stroke9 {fill: #808072;}
        .stroke10 {fill: #808071;}
        .stroke11 {fill: #808070;}
        .stroke12 {fill: #808069;}
        .stroke13 {fill: #808068;}
        .stroke14 {fill: #808067;}
        .stroke15 {fill: #808066;}
        .stroke16 {fill: #808065;}
        .stroke17 {fill: #808064;}
        .stroke18 {fill: #808063;}
        .stroke19 {fill: #808062;}
        .stroke20 {fill: #808061;}
        text {
            font-family: Helvetica;
            font-size: 50px;
            fill: #808060;
            paint-order: stroke;
            stroke: #000000;
            stroke-width: 4px;
            stroke-linecap: butt;
            stroke-linejoin: miter;
            font-weight: 800;
        }
    </style>

    <path d="M 111 520 Q 105 462 89 406 Q 80 370 106 345 Q 118 330 134 348 Q 167 400 151 475 Q 147 506 132 527 Q 125 534 120 533 Q 113 529 111 520 Z" class="stroke1"/>
    <path d="M 256 470 Q 283 486 301 499 Q 346 532 367 541 Q 383 548 376 562 Q 366 575 346 587 Q 328 597 319 595 Q 309 594 312 584 Q 312 565 257 498 C 238 475 230 455 256 470 Z" class="stroke2"/>
    <path d="M 244 258 Q 248 294 256 470 L 257 498 Q 258 639 280 700 Q 287 715 275 726 Q 253 744 212 754 Q 187 760 177 753 Q 168 746 176 733 Q 233 649 201 299 Q 186 167 103 79 Q 78 55 43 28 Q 31 19 32 15 Q 33 11 45 12 Q 58 8 91 25 Q 200 70 237 221 Q 238 225 239 231 L 244 258 Z" class="stroke3"/>
    <path d="M 239 231 Q 317 159 326 158 L 329 158 Q 336 158 341 169 Q 345 179 339 203 Q 335 222 307 236 Q 280 248 249 257 Q 248 258 244 258 C 214 262 217 251 239 231 Z" class="stroke4"/>
    <path d="M 574 574 Q 592 653 615 678 Q 634 703 612 715 Q 594 725 568 739 Q 550 749 534 737 Q 512 721 481 708 Q 460 699 435 691 C 406 682 415 655 443 665 Q 443 666 445 666 Q 484 679 516 689 Q 538 696 545 687 Q 549 683 528 579 C 522 550 567 545 574 574 Z" class="stroke5"/>
    <path d="M 437 519 Q 449 519 461 521 Q 492 531 560 543 Q 576 549 594 555 Q 593 556 594 557 Q 594 564 574 574 L 528 579 Q 522 579 520 577 Q 477 561 438 550 C 409 542 407 518 437 519 Z" class="stroke6"/>
    <path d="M 432 295 Q 433 349 434 393 L 435 426 Q 436 480 437 519 L 438 550 Q 439 638 442 650 Q 443 659 443 665 C 445 682 445 682 435 691 Q 420 710 391 719 Q 381 725 367 720 Q 360 714 365 701 Q 392 601 393 596 Q 393 256 378 171 Q 357 72 362 53 Q 362 35 388 2 Q 400 -13 411 1 Q 430 26 431 237 Q 431 252 432 264 L 432 295 Z" class="stroke7"/>
    <path d="M 434 393 Q 494 405 540 411 Q 562 415 553 428 Q 543 443 517 446 Q 472 449 435 426 C 409 411 405 387 434 393 Z" class="stroke8"/>
    <path d="M 432 264 Q 499 277 551 283 Q 575 287 565 300 Q 555 315 529 318 Q 484 324 432 295 C 406 281 403 258 432 264 Z" class="stroke9"/>
    <path d="M 811 610 Q 832 680 855 702 Q 876 727 854 740 Q 793 773 791 773 Q 782 773 774 767 Q 738 740 648 720 Q 638 720 639 714 Q 640 708 653 703 Q 671 694 701 704 Q 777 726 784 717 Q 788 711 761 610 C 753 581 802 581 811 610 Z" class="stroke10"/>
    <path d="M 761 610 Q 700 592 652 582 Q 633 579 646 564 Q 653 557 662 553 Q 672 552 684 555 Q 729 567 826 579 Q 836 580 837 589 Q 837 596 811 610 C 794 620 790 618 761 610 Z" class="stroke11"/>
    <path d="M 751 264 Q 785 331 819 435 Q 829 460 845 478 Q 861 494 848 505 Q 835 515 807 523 Q 786 527 763 514 Q 738 502 703 490 Q 669 477 610 467 Q 597 466 594 459 Q 590 453 607 447 Q 640 437 682 452 Q 737 476 749 476 Q 770 475 766 452 Q 748 364 718 300 L 698 264 Q 634 171 503 123 Q 491 117 502 112 Q 508 106 548 109 Q 644 121 726 224 L 751 264 Z" class="stroke12"/>
    <path d="M 726 224 Q 772 158 814 104 Q 827 86 852 85 Q 984 88 994 98 Q 998 104 988 108 Q 835 172 756 259 Q 753 262 751 264 L 718 300 Q 684 340 645 388 Q 636 404 620 407 Q 598 408 592 402 Q 589 398 596 392 Q 627 373 646 340 Q 671 300 698 264 L 726 224 Z" class="stroke13"/>
    
    
    
    
    
    
    
    
    
    
    
    
    </g>
</svg>