<svg version="1.1" viewBox="0 0 1024 1024" xmlns="http://www.w3.org/2000/svg">
  
  <g transform="scale(1, -1) translate(0, -900)">
    <style type="text/css">
        .stroke1 {fill: #808080;}
        .stroke2 {fill: #808079;}
        .stroke3 {fill: #808078;}
        .stroke4 {fill: #808077;}
        .stroke5 {fill: #808076;}
        .stroke6 {fill: #808075;}
        .stroke7 {fill: #808074;}
        .stroke8 {fill: #808073;}
        .stroke9 {fill: #808072;}
        .stroke10 {fill: #808071;}
        .stroke11 {fill: #808070;}
        .stroke12 {fill: #808069;}
        .stroke13 {fill: #808068;}
        .stroke14 {fill: #808067;}
        .stroke15 {fill: #808066;}
        .stroke16 {fill: #808065;}
        .stroke17 {fill: #808064;}
        .stroke18 {fill: #808063;}
        .stroke19 {fill: #808062;}
        .stroke20 {fill: #808061;}
        text {
            font-family: Helvetica;
            font-size: 50px;
            fill: #808060;
            paint-order: stroke;
            stroke: #000000;
            stroke-width: 4px;
            stroke-linecap: butt;
            stroke-linejoin: miter;
            font-weight: 800;
        }
    </style>

    <path d="M 108 530 Q 120 479 123 428 Q 126 391 160 376 Q 176 366 185 388 Q 200 445 161 501 Q 146 529 126 544 Q 117 547 112 545 Q 106 539 108 530 Z" class="stroke1"/>
    <path d="M 300 491 Q 301 492 305 494 Q 386 557 426 581 Q 442 585 437 595 Q 431 610 414 625 Q 396 641 376 642 Q 363 642 364 624 Q 368 605 300 516 C 282 492 274 475 300 491 Z" class="stroke2"/>
    <path d="M 293 293 Q 293 299 300 491 L 300 516 Q 301 669 322 727 Q 329 743 316 753 Q 292 772 251 782 Q 224 788 216 780 Q 206 773 215 760 Q 275 673 244 310 Q 229 168 158 78 Q 131 47 94 13 Q 84 3 83 -1 Q 86 -5 97 -4 Q 110 -7 142 11 Q 256 65 289 260 L 293 293 Z" class="stroke3"/>
    <path d="M 289 260 Q 376 173 378 172 Q 379 172 383 171 Q 392 170 397 181 Q 403 193 398 217 Q 394 250 298 292 Q 297 293 293 293 C 264 299 268 281 289 260 Z" class="stroke4"/>
    <path d="M 496 720 Q 486 727 454 733 Q 442 736 439 731 Q 432 725 440 710 Q 470 640 484 528 Q 487 494 505 471 Q 521 450 527 465 Q 528 472 530 482 L 531 509 Q 525 561 520 584 L 516 611 Q 509 663 506 687 C 502 717 502 717 496 720 Z" class="stroke5"/>
    <path d="M 676 502 Q 695 474 713 465 Q 723 458 739 479 Q 755 504 785 646 Q 794 677 817 703 Q 830 716 819 730 Q 803 746 759 773 Q 744 779 667 761 Q 636 761 496 720 C 467 712 477 678 506 687 Q 570 709 687 729 Q 712 735 721 726 Q 734 710 732 694 Q 705 541 685 527 C 672 508 672 508 676 502 Z" class="stroke6"/>
    <path d="M 520 584 Q 524 584 531 585 Q 607 601 664 611 Q 686 615 678 628 Q 666 643 641 645 Q 614 646 516 611 C 488 601 490 582 520 584 Z" class="stroke7"/>
    <path d="M 530 482 Q 611 494 676 502 C 706 506 710 510 685 527 Q 678 533 665 535 Q 643 538 531 509 C 502 502 500 478 530 482 Z" class="stroke8"/>
    <path d="M 580 461 Q 620 413 643 412 Q 656 412 660 428 Q 660 440 651 457 Q 636 478 583 484 Q 574 485 574 475 Q 573 468 580 461 Z" class="stroke9"/>
    <path d="M 469 358 Q 435 352 459 337 Q 495 313 548 326 Q 645 345 746 365 Q 792 375 799 382 Q 806 389 803 397 Q 796 407 770 415 Q 746 421 650 390 Q 557 366 469 358 Z" class="stroke10"/>
    <path d="M 483 252 Q 508 174 529 164 Q 541 158 553 172 Q 560 184 558 205 Q 554 224 537 239 Q 509 267 496 275 Q 489 279 484 270 Q 480 263 483 252 Z" class="stroke11"/>
    <path d="M 683 130 Q 695 149 732 219 Q 742 238 759 263 Q 774 276 765 286 Q 755 302 724 322 Q 711 332 693 325 Q 683 321 689 309 Q 701 278 655 150 Q 649 143 646 124 C 640 95 667 104 683 130 Z" class="stroke12"/>
    <path d="M 646 124 Q 642 124 382 99 Q 360 98 376 79 Q 391 63 409 57 Q 431 50 449 55 Q 660 101 912 81 Q 913 82 915 81 Q 937 80 942 89 Q 948 102 931 117 Q 873 165 802 147 Q 751 141 683 130 L 646 124 Z" class="stroke13"/>
    
    
    
    
    
    
    
    
    
    
    
    
    </g>
</svg>