<svg version="1.1" viewBox="0 0 1024 1024" xmlns="http://www.w3.org/2000/svg">
  
  <g transform="scale(1, -1) translate(0, -900)">
    <style type="text/css">
        .stroke1 {fill: #808080;}
        .stroke2 {fill: #808079;}
        .stroke3 {fill: #808078;}
        .stroke4 {fill: #808077;}
        .stroke5 {fill: #808076;}
        .stroke6 {fill: #808075;}
        .stroke7 {fill: #808074;}
        .stroke8 {fill: #808073;}
        .stroke9 {fill: #808072;}
        .stroke10 {fill: #808071;}
        .stroke11 {fill: #808070;}
        .stroke12 {fill: #808069;}
        .stroke13 {fill: #808068;}
        .stroke14 {fill: #808067;}
        .stroke15 {fill: #808066;}
        .stroke16 {fill: #808065;}
        .stroke17 {fill: #808064;}
        .stroke18 {fill: #808063;}
        .stroke19 {fill: #808062;}
        .stroke20 {fill: #808061;}
        text {
            font-family: Helvetica;
            font-size: 50px;
            fill: #808060;
            paint-order: stroke;
            stroke: #000000;
            stroke-width: 4px;
            stroke-linecap: butt;
            stroke-linejoin: miter;
            font-weight: 800;
        }
    </style>

    <path d="M 247 689 Q 238 704 210 713 Q 201 717 190 714 Q 183 710 188 697 Q 189 688 194 680 Q 215 641 199 423 Q 183 324 183 319 Q 183 298 206 269 Q 216 256 226 268 Q 236 281 238 297 L 241 329 Q 241 333 246 486 L 248 520 Q 251 655 255 662 C 257 678 257 678 247 689 Z" class="stroke1"/>
    <path d="M 342 315 Q 354 296 366 277 Q 382 253 389 256 Q 399 257 411 285 Q 424 315 421 354 Q 406 627 432 670 Q 442 688 434 698 Q 427 708 378 724 Q 354 733 338 723 Q 289 701 247 689 C 218 680 226 655 255 662 Q 259 663 264 664 Q 289 670 320 679 Q 348 688 357 678 Q 369 668 368 627 Q 372 455 364 360 Q 365 347 359 341 C 351 312 336 325 342 315 Z" class="stroke2"/>
    <path d="M 246 486 Q 295 498 333 504 Q 355 510 346 521 Q 334 534 310 536 Q 288 537 250 522 Q 249 521 248 520 C 225 501 217 479 246 486 Z" class="stroke3"/>
    <path d="M 238 297 Q 295 309 342 315 C 372 319 384 324 359 341 Q 350 348 335 350 Q 304 354 241 329 C 213 318 209 291 238 297 Z" class="stroke4"/>
    <path d="M 548 632 Q 549 636 553 639 Q 584 682 619 747 Q 632 777 646 792 Q 653 802 648 814 Q 644 824 615 843 Q 590 856 572 855 Q 556 851 565 832 Q 596 784 467 568 Q 460 558 458 552 Q 455 542 468 546 Q 487 552 533 611 L 548 632 Z" class="stroke5"/>
    <path d="M 533 611 Q 566 590 589 598 Q 745 646 752 629 Q 759 614 757 575 Q 747 433 720 357 Q 707 309 691 295 Q 679 283 655 291 Q 627 298 600 308 Q 578 315 592 293 Q 634 244 655 206 Q 664 185 684 190 Q 702 193 724 217 Q 787 281 813 533 Q 819 588 841 622 Q 857 643 848 652 Q 832 670 799 685 Q 775 697 710 669 Q 629 644 548 632 C 518 627 506 625 533 611 Z" class="stroke6"/>
    <path d="M 485 492 Q 476 496 457 500 Q 447 503 444 499 Q 440 495 445 482 Q 466 436 477 360 Q 478 338 491 322 Q 504 304 509 316 Q 513 328 512 349 L 508 381 Q 499 448 499 469 C 499 487 499 487 485 492 Z" class="stroke7"/>
    <path d="M 624 396 Q 640 454 659 471 Q 680 493 659 506 Q 643 516 618 531 Q 600 543 562 518 Q 508 499 485 492 C 456 483 470 460 499 469 Q 517 475 569 486 Q 588 490 593 483 Q 597 479 591 452 Q 585 430 578 402 C 571 373 616 367 624 396 Z" class="stroke8"/>
    <path d="M 512 349 Q 516 349 524 351 Q 558 358 634 367 Q 644 368 645 377 Q 645 384 624 396 L 578 402 Q 575 402 572 400 Q 536 388 508 381 C 479 374 482 346 512 349 Z" class="stroke9"/>
    <path d="M 206 188 Q 178 133 143 83 Q 121 53 137 14 Q 144 -5 166 7 Q 190 23 207 55 Q 226 92 229 127 Q 236 161 230 187 Q 226 196 219 197 Q 210 196 206 188 Z" class="stroke10"/>
    <path d="M 362 152 Q 389 83 415 57 Q 427 50 440 58 Q 449 67 452 83 Q 452 131 385 181 Q 373 191 363 190 Q 357 191 356 180 Q 353 170 362 152 Z" class="stroke11"/>
    <path d="M 542 156 Q 572 98 600 74 Q 612 68 624 78 Q 631 88 634 103 Q 631 146 563 187 L 562 188 Q 549 195 539 195 Q 533 195 532 184 Q 531 172 542 156 Z" class="stroke12"/>
    <path d="M 750 165 Q 799 116 856 47 Q 874 23 890 18 Q 900 17 909 27 Q 924 42 911 91 Q 904 137 827 170 Q 778 191 752 200 Q 742 207 739 192 Q 738 177 750 165 Z" class="stroke13"/>
    
    
    
    
    
    
    
    
    
    
    
    
    </g>
</svg>