<svg version="1.1" viewBox="0 0 1024 1024" xmlns="http://www.w3.org/2000/svg">
  
  <g transform="scale(1, -1) translate(0, -900)">
    <style type="text/css">
        .stroke1 {fill: #808080;}
        .stroke2 {fill: #808079;}
        .stroke3 {fill: #808078;}
        .stroke4 {fill: #808077;}
        .stroke5 {fill: #808076;}
        .stroke6 {fill: #808075;}
        .stroke7 {fill: #808074;}
        .stroke8 {fill: #808073;}
        .stroke9 {fill: #808072;}
        .stroke10 {fill: #808071;}
        .stroke11 {fill: #808070;}
        .stroke12 {fill: #808069;}
        .stroke13 {fill: #808068;}
        .stroke14 {fill: #808067;}
        .stroke15 {fill: #808066;}
        .stroke16 {fill: #808065;}
        .stroke17 {fill: #808064;}
        .stroke18 {fill: #808063;}
        .stroke19 {fill: #808062;}
        .stroke20 {fill: #808061;}
        text {
            font-family: Helvetica;
            font-size: 50px;
            fill: #808060;
            paint-order: stroke;
            stroke: #000000;
            stroke-width: 4px;
            stroke-linecap: butt;
            stroke-linejoin: miter;
            font-weight: 800;
        }
    </style>

    <path d="M 536 851 Q 478 802 330 743 Q 324 733 331 731 Q 363 725 534 786 Q 558 802 637 817 Q 649 817 655 821 Q 668 829 651 849 Q 594 893 559 890 Q 553 886 551 874 Q 549 858 536 851 Z" class="stroke1"/>
    <path d="M 295 624 Q 339 570 357 576 Q 362 577 367 587 Q 372 600 365 630 Q 361 649 318 664 Q 284 676 272 673 Q 269 668 269 657 Q 271 647 295 624 Z" class="stroke2"/>
    <path d="M 433 675 Q 454 641 470 623 Q 499 594 512 623 Q 515 637 509 657 Q 492 689 441 701 Q 437 702 435 700 Q 426 694 433 675 Z" class="stroke3"/>
    <path d="M 684 776 Q 685 763 676 749 Q 661 723 574 641 Q 563 625 580 626 Q 640 651 696 680 Q 737 704 756 709 Q 765 711 770 717 Q 784 735 733 774 Q 710 792 696 790 Q 682 790 684 776 Z" class="stroke4"/>
    
    
    
    </g>
</svg>