<svg version="1.1" viewBox="0 0 1024 1024" xmlns="http://www.w3.org/2000/svg">
  
  <g transform="scale(1, -1) translate(0, -900)">
    <style type="text/css">
        .stroke1 {fill: #808080;}
        .stroke2 {fill: #808079;}
        .stroke3 {fill: #808078;}
        .stroke4 {fill: #808077;}
        .stroke5 {fill: #808076;}
        .stroke6 {fill: #808075;}
        .stroke7 {fill: #808074;}
        .stroke8 {fill: #808073;}
        .stroke9 {fill: #808072;}
        .stroke10 {fill: #808071;}
        .stroke11 {fill: #808070;}
        .stroke12 {fill: #808069;}
        .stroke13 {fill: #808068;}
        .stroke14 {fill: #808067;}
        .stroke15 {fill: #808066;}
        .stroke16 {fill: #808065;}
        .stroke17 {fill: #808064;}
        .stroke18 {fill: #808063;}
        .stroke19 {fill: #808062;}
        .stroke20 {fill: #808061;}
        text {
            font-family: Helvetica;
            font-size: 50px;
            fill: #808060;
            paint-order: stroke;
            stroke: #000000;
            stroke-width: 4px;
            stroke-linecap: butt;
            stroke-linejoin: miter;
            font-weight: 800;
        }
    </style>

    <path d="M 219 520 Q 222 530 259 600 Q 266 613 252 625 Q 204 652 184 645 Q 174 641 177 628 Q 201 547 123 436 Q 104 411 96 396 Q 89 380 103 386 Q 152 401 209 500 L 219 520 Z" class="stroke1"/>
    <path d="M 368 512 Q 398 522 433 531 Q 461 540 465 545 Q 472 552 468 561 Q 461 571 431 576 Q 403 580 368 563 L 323 545 Q 313 544 307 540 Q 268 531 219 520 C 190 513 181 511 209 500 Q 212 500 214 498 Q 257 479 309 496 Q 315 497 323 499 L 368 512 Z" class="stroke2"/>
    <path d="M 366 371 Q 367 435 368 512 L 368 563 Q 368 675 387 744 Q 400 771 376 788 Q 360 800 330 817 Q 306 833 285 818 Q 281 814 287 797 Q 320 749 321 700 Q 322 628 324 547 Q 323 547 323 545 L 323 499 Q 322 426 320 347 L 320 300 Q 320 188 296 100 Q 284 61 311 -2 Q 318 -20 326 -23 Q 333 -30 340 -21 Q 347 -17 358 4 Q 368 29 366 61 Q 365 97 366 331 L 366 371 Z" class="stroke3"/>
    <path d="M 366 331 Q 373 337 381 341 Q 438 377 437 398 Q 428 404 366 371 L 320 347 Q 229 302 126 253 Q 105 243 69 237 Q 56 233 55 222 Q 55 206 67 199 Q 95 186 135 171 Q 147 170 159 181 Q 205 229 320 300 L 366 331 Z" class="stroke4"/>
    <path d="M 596 609 Q 597 610 602 612 Q 657 636 697 662 Q 740 687 780 700 Q 796 703 800 712 Q 801 724 788 733 Q 764 746 717 758 Q 701 764 687 760 Q 680 756 681 744 Q 682 702 499 584 Q 495 574 502 572 Q 535 582 565 595 L 596 609 Z" class="stroke5"/>
    <path d="M 627 442 Q 786 488 788 489 Q 797 496 792 505 Q 785 515 756 521 Q 726 525 698 513 Q 667 501 633 489 L 578 472 Q 535 463 487 456 Q 453 449 478 434 Q 523 413 573 428 Q 574 429 576 428 L 627 442 Z" class="stroke6"/>
    <path d="M 617 293 Q 626 305 867 326 Q 886 327 891 337 Q 895 349 877 361 Q 822 397 785 383 Q 725 364 621 338 Q 618 338 619 337 L 573 326 Q 497 310 418 291 Q 397 287 415 272 Q 430 259 449 255 Q 470 252 486 258 Q 526 273 573 284 L 617 293 Z" class="stroke7"/>
    <path d="M 965 96 Q 950 127 933 224 Q 932 240 925 246 Q 919 250 914 231 Q 886 128 867 96 Q 857 81 823 72 Q 750 51 679 79 Q 654 92 645 108 Q 618 165 617 293 L 619 337 Q 620 388 627 442 L 633 489 Q 636 522 642 556 Q 646 577 633 587 Q 620 600 596 609 C 569 623 557 624 565 595 Q 565 591 567 586 Q 583 541 578 472 L 576 428 Q 573 373 573 326 L 573 284 Q 573 83 619 42 Q 706 -27 875 12 Q 876 13 881 14 Q 921 26 958 53 Q 979 69 965 96 Z" class="stroke8"/>
    
    
    
    
    
    
    
    </g>
</svg>