<svg version="1.1" viewBox="0 0 1024 1024" xmlns="http://www.w3.org/2000/svg">
  
  <g transform="scale(1, -1) translate(0, -900)">
    <style type="text/css">
        .stroke1 {fill: #808080;}
        .stroke2 {fill: #808079;}
        .stroke3 {fill: #808078;}
        .stroke4 {fill: #808077;}
        .stroke5 {fill: #808076;}
        .stroke6 {fill: #808075;}
        .stroke7 {fill: #808074;}
        .stroke8 {fill: #808073;}
        .stroke9 {fill: #808072;}
        .stroke10 {fill: #808071;}
        .stroke11 {fill: #808070;}
        .stroke12 {fill: #808069;}
        .stroke13 {fill: #808068;}
        .stroke14 {fill: #808067;}
        .stroke15 {fill: #808066;}
        .stroke16 {fill: #808065;}
        .stroke17 {fill: #808064;}
        .stroke18 {fill: #808063;}
        .stroke19 {fill: #808062;}
        .stroke20 {fill: #808061;}
        text {
            font-family: Helvetica;
            font-size: 50px;
            fill: #808060;
            paint-order: stroke;
            stroke: #000000;
            stroke-width: 4px;
            stroke-linecap: butt;
            stroke-linejoin: miter;
            font-weight: 800;
        }
    </style>

    <path d="M 396 743 Q 439 762 494 767 Q 509 766 512 772 Q 516 781 507 791 Q 467 831 431 832 Q 425 829 423 820 Q 417 784 246 726 Q 240 719 245 716 Q 252 715 334 730 Q 344 731 355 733 L 396 743 Z" class="stroke1"/>
    <path d="M 413 631 Q 450 640 498 646 Q 513 647 514 655 Q 515 667 498 674 Q 471 686 417 671 L 373 661 Q 238 631 164 623 Q 152 622 150 614 Q 147 605 161 595 Q 198 571 233 583 Q 305 607 355 619 L 413 631 Z" class="stroke2"/>
    <path d="M 374 565 Q 374 513 370 490 Q 369 481 383 448 Q 390 436 402 443 Q 414 452 410 522 Q 409 579 413 631 L 417 671 Q 418 687 430 707 Q 434 714 426 725 Q 413 735 396 743 C 369 757 339 758 355 733 Q 373 709 373 661 L 374 565 Z" class="stroke3"/>
    <path d="M 355 619 Q 307 535 188 453 Q 176 443 184 441 Q 199 432 252 460 Q 285 476 374 565 C 431 622 370 645 355 619 Z" class="stroke4"/>
    <path d="M 431 575 Q 482 520 501 521 Q 511 520 516 535 Q 516 545 508 561 Q 499 574 479 581 Q 448 594 433 596 Q 426 597 426 588 Q 425 581 431 575 Z" class="stroke5"/>
    <path d="M 558 722 Q 579 670 568 581 Q 565 560 586 534 Q 593 525 601 535 Q 611 554 613 620 Q 613 678 617 699 Q 621 717 605 726 Q 592 733 578 740 Q 568 744 561 739 Q 554 733 558 722 Z" class="stroke6"/>
    <path d="M 673 511 Q 649 512 625 515 Q 615 516 615 511 Q 616 504 626 498 Q 684 449 706 419 Q 719 404 733 417 Q 766 450 761 513 Q 758 538 751 711 Q 750 754 760 784 Q 767 800 753 812 Q 729 831 702 840 Q 686 846 678 839 Q 674 832 683 819 Q 719 759 706 538 Q 703 522 695 514 Q 688 507 673 511 Z" class="stroke7"/>
    <path d="M 361 329 Q 383 356 403 376 Q 413 386 402 399 Q 369 432 349 429 Q 340 429 340 417 Q 341 347 263 277 Q 244 261 234 250 Q 227 238 238 241 Q 280 241 349 315 L 361 329 Z" class="stroke8"/>
    <path d="M 349 315 Q 385 279 452 295 Q 474 299 500 301 L 554 309 Q 695 333 701 337 Q 710 344 706 352 Q 700 365 672 373 Q 648 379 556 355 L 500 344 Q 436 334 367 331 Q 363 331 361 329 C 338 324 338 324 349 315 Z" class="stroke9"/>
    <path d="M 499 204 Q 339 191 151 176 Q 127 175 144 155 Q 159 139 179 132 Q 201 125 220 129 Q 322 153 498 167 L 550 170 Q 673 179 886 167 Q 908 167 914 176 Q 920 189 903 205 Q 843 250 804 243 Q 707 227 551 209 L 499 204 Z" class="stroke10"/>
    <path d="M 500 301 Q 499 258 499 204 L 498 167 Q 486 -29 510 -65 Q 516 -72 523 -70 Q 535 -63 544 -6 Q 548 42 550 170 L 551 209 Q 551 252 554 309 L 556 355 Q 556 356 557 356 Q 557 380 566 421 Q 569 437 556 447 Q 525 468 511 470 Q 499 474 484 467 Q 475 460 482 449 Q 503 413 500 344 L 500 301 Z" class="stroke11"/>
    
    
    
    
    
    
    
    
    
    
    </g>
</svg>