<svg version="1.1" viewBox="0 0 1024 1024" xmlns="http://www.w3.org/2000/svg">
  
  <g transform="scale(1, -1) translate(0, -900)">
    <style type="text/css">
        .stroke1 {fill: #808080;}
        .stroke2 {fill: #808079;}
        .stroke3 {fill: #808078;}
        .stroke4 {fill: #808077;}
        .stroke5 {fill: #808076;}
        .stroke6 {fill: #808075;}
        .stroke7 {fill: #808074;}
        .stroke8 {fill: #808073;}
        .stroke9 {fill: #808072;}
        .stroke10 {fill: #808071;}
        .stroke11 {fill: #808070;}
        .stroke12 {fill: #808069;}
        .stroke13 {fill: #808068;}
        .stroke14 {fill: #808067;}
        .stroke15 {fill: #808066;}
        .stroke16 {fill: #808065;}
        .stroke17 {fill: #808064;}
        .stroke18 {fill: #808063;}
        .stroke19 {fill: #808062;}
        .stroke20 {fill: #808061;}
        text {
            font-family: Helvetica;
            font-size: 50px;
            fill: #808060;
            paint-order: stroke;
            stroke: #000000;
            stroke-width: 4px;
            stroke-linecap: butt;
            stroke-linejoin: miter;
            font-weight: 800;
        }
    </style>

    <path d="M 301 553 Q 352 626 403 691 Q 415 704 400 722 Q 351 764 326 762 Q 313 761 315 743 Q 315 683 277 612 L 245 564 Q 242 563 242 560 Q 206 508 160 470 Q 121 437 102 417 Q 92 401 109 405 Q 160 408 266 513 L 301 553 Z" class="stroke1"/>
    <path d="M 290 339 Q 290 195 253 91 Q 247 78 240 77 Q 230 76 203 82 Q 175 94 170 88 Q 166 82 175 70 Q 202 36 218 7 Q 234 -20 243 -19 Q 250 -22 265 -7 Q 332 62 333 318 Q 333 414 319 485 Q 312 522 301 553 L 277 612 Q 261 645 236 671 Q 190 723 159 742 Q 147 752 141 741 Q 137 729 139 710 Q 145 691 161 684 Q 177 675 205 637 Q 227 607 245 564 L 266 513 Q 275 483 284 429 L 290 339 Z" class="stroke2"/>
    <path d="M 284 429 Q 217 305 48 139 Q 41 129 53 127 Q 72 124 184 217 Q 238 263 290 339 C 307 364 299 455 284 429 Z" class="stroke3"/>
    <path d="M 582 508 Q 606 695 614 717 Q 623 732 616 746 Q 598 765 566 779 Q 547 791 533 786 Q 520 779 527 764 Q 548 737 543 659 Q 542 646 541 629 Q 535 556 525 490 L 516 444 Q 477 255 336 44 Q 330 37 328 31 Q 325 19 336 21 Q 369 27 459 158 Q 477 188 496 224 Q 541 320 574 466 L 582 508 Z" class="stroke4"/>
    <path d="M 574 466 Q 623 485 669 498 Q 681 501 687 494 Q 693 487 687 462 Q 615 126 640 62 Q 676 -11 834 -12 Q 910 -11 966 10 Q 991 22 981 46 Q 960 85 948 179 Q 947 201 940 209 Q 933 215 929 196 Q 922 153 909 101 Q 902 64 864 54 Q 818 41 753 48 Q 708 55 695 73 Q 662 124 733 403 Q 743 446 776 477 Q 806 502 783 521 Q 768 537 732 555 Q 707 568 692 556 Q 671 541 584 509 Q 583 509 582 508 L 525 490 Q 464 474 401 460 Q 386 460 382 452 Q 376 445 390 437 Q 432 409 465 423 Q 490 435 516 444 L 574 466 Z" class="stroke5"/>
    
    
    
    
    </g>
</svg>