<svg version="1.1" viewBox="0 0 1024 1024" xmlns="http://www.w3.org/2000/svg">
  
  <g transform="scale(1, -1) translate(0, -900)">
    <style type="text/css">
        .stroke1 {fill: #808080;}
        .stroke2 {fill: #808079;}
        .stroke3 {fill: #808078;}
        .stroke4 {fill: #808077;}
        .stroke5 {fill: #808076;}
        .stroke6 {fill: #808075;}
        .stroke7 {fill: #808074;}
        .stroke8 {fill: #808073;}
        .stroke9 {fill: #808072;}
        .stroke10 {fill: #808071;}
        .stroke11 {fill: #808070;}
        .stroke12 {fill: #808069;}
        .stroke13 {fill: #808068;}
        .stroke14 {fill: #808067;}
        .stroke15 {fill: #808066;}
        .stroke16 {fill: #808065;}
        .stroke17 {fill: #808064;}
        .stroke18 {fill: #808063;}
        .stroke19 {fill: #808062;}
        .stroke20 {fill: #808061;}
        text {
            font-family: Helvetica;
            font-size: 50px;
            fill: #808060;
            paint-order: stroke;
            stroke: #000000;
            stroke-width: 4px;
            stroke-linecap: butt;
            stroke-linejoin: miter;
            font-weight: 800;
        }
    </style>

    <path d="M 309 582 Q 325 601 340 622 Q 377 673 412 714 Q 424 726 410 743 Q 368 785 342 782 Q 329 781 331 765 Q 332 699 279 624 L 247 582 Q 238 573 122 464 Q 112 449 129 453 Q 174 456 271 542 L 309 582 Z" class="stroke1"/>
    <path d="M 312 400 Q 322 219 288 113 Q 284 100 276 100 Q 258 94 206 100 Q 173 107 169 101 Q 166 94 178 82 Q 227 48 259 16 Q 275 -6 283 -6 Q 290 -7 305 7 Q 392 110 357 426 Q 351 462 344 491 Q 329 546 309 582 L 279 624 Q 234 681 171 709 Q 158 719 152 707 Q 148 692 154 672 Q 161 651 180 646 Q 211 633 247 582 L 271 542 Q 287 509 296 480 L 312 400 Z" class="stroke2"/>
    <path d="M 296 480 Q 233 347 64 167 Q 57 157 69 155 Q 88 151 201 256 Q 256 308 309 395 Q 310 398 312 400 C 328 426 309 507 296 480 Z" class="stroke3"/>
    <path d="M 721 407 Q 742 449 757 602 Q 767 657 802 693 Q 820 712 801 726 Q 780 742 725 763 Q 713 769 656 752 Q 611 742 545 721 Q 499 706 469 700 Q 451 699 449 693 Q 446 687 464 676 Q 501 660 523 670 Q 568 688 672 710 Q 691 713 698 710 Q 714 703 710 655 Q 694 477 682 441 Q 673 416 686 402 C 697 374 710 379 721 407 Z" class="stroke4"/>
    <path d="M 686 402 Q 635 395 559 379 Q 538 375 535 391 Q 553 539 565 564 Q 572 579 566 590 Q 551 608 528 620 Q 512 627 502 620 Q 496 616 503 604 Q 510 582 506 534 Q 502 497 496 450 Q 492 404 479 368 Q 472 347 486 332 Q 504 314 528 328 Q 591 367 776 379 Q 807 382 820 369 Q 832 357 818 314 Q 808 244 794 169 Q 784 111 757 74 Q 750 61 724 58 Q 687 70 653 78 Q 638 82 639 75 Q 639 71 648 63 Q 709 12 732 -23 Q 741 -42 758 -33 Q 822 0 836 73 Q 858 173 875 285 Q 884 324 903 355 Q 916 371 904 384 Q 886 405 849 427 Q 827 440 799 427 Q 759 411 721 407 L 686 402 Z" class="stroke5"/>
    <path d="M 386 200 Q 367 197 382 183 Q 395 171 412 167 Q 431 163 445 168 Q 553 204 721 204 L 723 204 Q 741 205 745 213 Q 749 223 734 235 Q 677 268 619 249 Q 604 246 386 200 Z" class="stroke6"/>
    
    
    
    
    
    </g>
</svg>