<svg version="1.1" viewBox="0 0 1024 1024" xmlns="http://www.w3.org/2000/svg">
  
  <g transform="scale(1, -1) translate(0, -900)">
    <style type="text/css">
        .stroke1 {fill: #808080;}
        .stroke2 {fill: #808079;}
        .stroke3 {fill: #808078;}
        .stroke4 {fill: #808077;}
        .stroke5 {fill: #808076;}
        .stroke6 {fill: #808075;}
        .stroke7 {fill: #808074;}
        .stroke8 {fill: #808073;}
        .stroke9 {fill: #808072;}
        .stroke10 {fill: #808071;}
        .stroke11 {fill: #808070;}
        .stroke12 {fill: #808069;}
        .stroke13 {fill: #808068;}
        .stroke14 {fill: #808067;}
        .stroke15 {fill: #808066;}
        .stroke16 {fill: #808065;}
        .stroke17 {fill: #808064;}
        .stroke18 {fill: #808063;}
        .stroke19 {fill: #808062;}
        .stroke20 {fill: #808061;}
        text {
            font-family: Helvetica;
            font-size: 50px;
            fill: #808060;
            paint-order: stroke;
            stroke: #000000;
            stroke-width: 4px;
            stroke-linecap: butt;
            stroke-linejoin: miter;
            font-weight: 800;
        }
    </style>

    <path d="M 308 604 Q 383 703 414 739 Q 427 751 413 767 Q 374 806 348 806 Q 336 805 337 790 Q 337 724 277 639 L 245 600 Q 209 557 164 521 Q 124 491 103 472 Q 93 457 108 460 Q 162 463 271 565 L 308 604 Z" class="stroke1"/>
    <path d="M 324 414 Q 336 219 301 111 Q 295 96 287 95 Q 268 92 218 105 Q 187 115 182 108 Q 178 102 189 89 Q 237 52 268 16 Q 286 -11 296 -10 Q 303 -11 320 5 Q 399 116 371 423 Q 364 471 352 511 Q 331 581 308 604 L 277 639 Q 238 685 166 715 Q 151 722 147 711 Q 143 696 151 676 Q 161 657 179 652 Q 215 640 245 600 L 271 565 Q 286 550 307 489 L 324 414 Z" class="stroke2"/>
    <path d="M 307 489 Q 241 362 56 175 Q 49 165 61 163 Q 85 160 204 266 Q 265 321 323 412 Q 323 413 324 414 C 340 440 321 515 307 489 Z" class="stroke3"/>
    <path d="M 629 777 Q 654 755 681 730 Q 696 717 712 718 Q 724 718 729 733 Q 733 749 723 779 Q 713 806 623 827 Q 607 830 600 827 Q 594 823 597 809 Q 601 799 629 777 Z" class="stroke4"/>
    <path d="M 503 608 Q 485 638 470 647 Q 466 651 460 647 Q 456 643 455 632 Q 459 599 431 531 Q 421 515 423 495 Q 427 476 437 462 Q 444 450 450 458 Q 457 459 465 476 Q 469 483 478 511 Q 497 574 504 581 C 512 593 512 593 503 608 Z" class="stroke5"/>
    <path d="M 504 581 Q 523 571 562 579 Q 634 610 763 629 Q 787 635 796 633 Q 811 623 809 615 Q 794 570 779 522 L 781 521 Q 788 517 802 530 Q 851 570 895 587 Q 929 603 928 611 Q 927 620 858 664 Q 837 679 746 657 Q 725 656 571 621 Q 537 614 503 608 C 473 603 475 590 504 581 Z" class="stroke6"/>
    <path d="M 678 412 Q 736 421 824 425 Q 869 425 877 435 Q 881 447 865 458 Q 808 494 765 477 Q 675 455 454 409 Q 435 406 450 391 Q 465 379 481 375 Q 500 371 516 377 Q 568 393 629 403 L 678 412 Z" class="stroke7"/>
    <path d="M 621 64 Q 590 73 558 82 Q 546 86 547 78 Q 547 72 557 64 Q 621 1 643 -37 Q 656 -53 671 -41 Q 708 -7 707 59 Q 704 89 699 289 Q 698 335 710 365 Q 717 383 702 395 Q 690 405 678 412 C 653 428 615 430 629 403 Q 650 367 649 326 Q 656 170 650 89 Q 649 73 640 66 Q 633 60 621 64 Z" class="stroke8"/>
    
    
    
    
    
    
    
    </g>
</svg>