<svg version="1.1" viewBox="0 0 1024 1024" xmlns="http://www.w3.org/2000/svg">
  
  <g transform="scale(1, -1) translate(0, -900)">
    <style type="text/css">
        .stroke1 {fill: #808080;}
        .stroke2 {fill: #808079;}
        .stroke3 {fill: #808078;}
        .stroke4 {fill: #808077;}
        .stroke5 {fill: #808076;}
        .stroke6 {fill: #808075;}
        .stroke7 {fill: #808074;}
        .stroke8 {fill: #808073;}
        .stroke9 {fill: #808072;}
        .stroke10 {fill: #808071;}
        .stroke11 {fill: #808070;}
        .stroke12 {fill: #808069;}
        .stroke13 {fill: #808068;}
        .stroke14 {fill: #808067;}
        .stroke15 {fill: #808066;}
        .stroke16 {fill: #808065;}
        .stroke17 {fill: #808064;}
        .stroke18 {fill: #808063;}
        .stroke19 {fill: #808062;}
        .stroke20 {fill: #808061;}
        text {
            font-family: Helvetica;
            font-size: 50px;
            fill: #808060;
            paint-order: stroke;
            stroke: #000000;
            stroke-width: 4px;
            stroke-linecap: butt;
            stroke-linejoin: miter;
            font-weight: 800;
        }
    </style>

    <path d="M 326 559 Q 374 622 422 673 Q 435 685 422 702 Q 380 744 355 744 Q 342 743 343 727 Q 342 675 301 610 L 265 564 Q 226 516 180 481 Q 143 454 123 436 Q 113 421 129 424 Q 180 427 287 519 L 326 559 Z" class="stroke1"/>
    <path d="M 309 377 Q 312 221 271 118 Q 264 103 256 102 Q 240 98 192 106 Q 158 116 154 109 Q 150 102 162 89 Q 205 52 234 17 Q 250 -8 261 -8 Q 268 -9 287 8 Q 365 89 361 357 Q 360 363 360 369 Q 356 492 326 559 L 301 610 Q 262 676 172 719 Q 168 722 163 723 Q 147 732 143 719 Q 139 704 147 683 Q 157 662 176 658 Q 215 645 258 577 Q 258 576 265 564 L 287 519 Q 291 504 300 462 L 309 377 Z" class="stroke2"/>
    <path d="M 300 462 Q 299 461 297 458 Q 240 344 76 179 Q 69 169 81 167 Q 99 164 205 252 Q 257 297 306 372 Q 307 375 309 377 C 325 402 316 488 300 462 Z" class="stroke3"/>
    <path d="M 638 509 Q 669 519 701 527 Q 746 540 753 547 Q 760 556 756 564 Q 749 576 718 581 Q 688 585 630 560 L 583 542 Q 468 512 415 503 Q 378 494 406 479 Q 448 457 506 474 Q 548 486 592 497 L 638 509 Z" class="stroke4"/>
    <path d="M 520 284 Q 557 294 596 302 Q 605 302 612 313 Q 612 323 591 330 Q 564 343 525 328 L 474 310 Q 449 304 427 298 Q 408 294 385 289 Q 361 283 381 271 Q 408 252 451 265 Q 460 268 472 270 L 520 284 Z" class="stroke5"/>
    <path d="M 472 270 Q 472 174 383 83 Q 370 73 367 67 Q 366 60 376 61 Q 404 61 450 106 Q 499 154 520 284 L 525 328 Q 528 352 532 376 Q 536 394 520 402 Q 478 424 466 421 Q 448 418 462 400 Q 472 382 474 310 L 472 270 Z" class="stroke6"/>
    <path d="M 687 192 Q 736 92 816 25 Q 880 -21 910 -19 Q 929 -13 921 15 Q 915 66 916 212 Q 915 234 907 234 Q 904 234 866 137 Q 850 91 821 106 Q 814 112 805 119 Q 759 167 720 234 L 696 289 Q 660 383 638 509 L 630 560 Q 621 635 628 704 Q 640 747 580 769 Q 543 785 521 776 Q 499 769 511 747 Q 562 704 563 669 Q 573 602 583 542 L 592 497 Q 619 352 665 242 L 687 192 Z" class="stroke7"/>
    <path d="M 665 242 Q 608 173 536 114 Q 529 107 535 103 Q 542 100 553 105 Q 631 136 687 192 L 720 234 Q 748 264 787 355 Q 797 377 810 398 Q 819 407 813 417 Q 806 427 777 445 Q 755 457 746 454 Q 733 451 734 436 Q 740 372 696 289 L 665 242 Z" class="stroke8"/>
    <path d="M 725 698 Q 755 677 786 651 Q 799 641 815 642 Q 825 643 829 656 Q 832 671 821 699 Q 809 727 717 744 Q 701 745 696 743 Q 692 739 694 727 Q 698 717 725 698 Z" class="stroke9"/>
    
    
    
    
    
    
    
    
    </g>
</svg>