<svg version="1.1" viewBox="0 0 1024 1024" xmlns="http://www.w3.org/2000/svg">
  
  <g transform="scale(1, -1) translate(0, -900)">
    <style type="text/css">
        .stroke1 {fill: #808080;}
        .stroke2 {fill: #808079;}
        .stroke3 {fill: #808078;}
        .stroke4 {fill: #808077;}
        .stroke5 {fill: #808076;}
        .stroke6 {fill: #808075;}
        .stroke7 {fill: #808074;}
        .stroke8 {fill: #808073;}
        .stroke9 {fill: #808072;}
        .stroke10 {fill: #808071;}
        .stroke11 {fill: #808070;}
        .stroke12 {fill: #808069;}
        .stroke13 {fill: #808068;}
        .stroke14 {fill: #808067;}
        .stroke15 {fill: #808066;}
        .stroke16 {fill: #808065;}
        .stroke17 {fill: #808064;}
        .stroke18 {fill: #808063;}
        .stroke19 {fill: #808062;}
        .stroke20 {fill: #808061;}
        text {
            font-family: Helvetica;
            font-size: 50px;
            fill: #808060;
            paint-order: stroke;
            stroke: #000000;
            stroke-width: 4px;
            stroke-linecap: butt;
            stroke-linejoin: miter;
            font-weight: 800;
        }
    </style>

    <path d="M 313 611 Q 337 650 400 727 Q 412 740 398 756 Q 359 795 331 792 Q 319 791 321 776 Q 321 722 284 655 L 255 613 Q 251 609 248 604 Q 214 556 170 520 Q 133 490 114 472 Q 104 457 120 461 Q 175 464 278 570 L 313 611 Z" class="stroke1"/>
    <path d="M 313 410 Q 325 250 282 126 Q 275 107 262 102 Q 244 102 198 122 Q 167 135 162 128 Q 158 122 168 109 Q 213 66 241 28 Q 262 -3 274 -3 Q 284 -3 306 21 Q 376 118 371 338 Q 368 387 361 438 Q 348 538 316 607 Q 315 610 313 611 L 284 655 Q 227 712 137 734 Q 121 738 120 726 Q 120 711 131 693 Q 144 675 164 676 Q 201 667 255 613 L 278 570 Q 293 533 302 489 L 313 410 Z" class="stroke2"/>
    <path d="M 302 489 Q 238 363 60 178 Q 53 168 65 166 Q 86 162 205 274 Q 260 326 313 410 C 329 435 316 516 302 489 Z" class="stroke3"/>
    <path d="M 572 762 Q 606 737 641 707 Q 657 695 673 697 Q 685 698 689 712 Q 693 728 681 759 Q 674 781 637 795 Q 553 820 540 811 Q 534 807 537 793 Q 541 783 572 762 Z" class="stroke4"/>
    <path d="M 404 588 Q 382 584 399 567 Q 433 539 481 553 Q 637 605 878 605 L 880 605 Q 901 606 905 615 Q 911 628 892 641 Q 832 680 780 663 Q 621 626 404 588 Z" class="stroke5"/>
    <path d="M 496 467 Q 477 463 500 446 Q 510 439 533 442 Q 642 461 721 473 Q 746 477 737 491 Q 725 507 697 513 Q 673 516 496 467 Z" class="stroke6"/>
    <path d="M 492 352 Q 473 348 497 330 Q 507 323 530 326 Q 636 345 716 355 Q 744 359 733 375 Q 721 391 691 397 Q 663 401 615 387 Q 551 368 492 352 Z" class="stroke7"/>
    <path d="M 444 248 Q 432 252 429 246 Q 422 240 431 224 Q 461 166 479 68 Q 483 38 500 19 Q 518 -3 523 13 Q 527 26 526 43 L 521 81 Q 503 172 501 205 C 499 235 473 242 444 248 Z" class="stroke8"/>
    <path d="M 758 100 Q 786 184 823 208 Q 841 227 826 247 Q 808 262 753 290 Q 734 299 710 290 Q 550 233 451 247 Q 447 248 444 248 C 414 252 471 200 501 205 Q 514 206 529 211 Q 611 224 692 238 Q 713 242 721 233 Q 731 223 727 204 Q 717 153 705 111 C 697 82 748 72 758 100 Z" class="stroke9"/>
    <path d="M 526 43 Q 535 43 545 44 Q 615 57 769 62 Q 781 63 783 73 Q 783 80 758 100 L 705 111 Q 698 111 697 110 Q 600 91 521 81 C 491 77 496 42 526 43 Z" class="stroke10"/>
    
    
    
    
    
    
    
    
    
    </g>
</svg>