<svg version="1.1" viewBox="0 0 1024 1024" xmlns="http://www.w3.org/2000/svg">
  
  <g transform="scale(1, -1) translate(0, -900)">
    <style type="text/css">
        .stroke1 {fill: #808080;}
        .stroke2 {fill: #808079;}
        .stroke3 {fill: #808078;}
        .stroke4 {fill: #808077;}
        .stroke5 {fill: #808076;}
        .stroke6 {fill: #808075;}
        .stroke7 {fill: #808074;}
        .stroke8 {fill: #808073;}
        .stroke9 {fill: #808072;}
        .stroke10 {fill: #808071;}
        .stroke11 {fill: #808070;}
        .stroke12 {fill: #808069;}
        .stroke13 {fill: #808068;}
        .stroke14 {fill: #808067;}
        .stroke15 {fill: #808066;}
        .stroke16 {fill: #808065;}
        .stroke17 {fill: #808064;}
        .stroke18 {fill: #808063;}
        .stroke19 {fill: #808062;}
        .stroke20 {fill: #808061;}
        text {
            font-family: Helvetica;
            font-size: 50px;
            fill: #808060;
            paint-order: stroke;
            stroke: #000000;
            stroke-width: 4px;
            stroke-linecap: butt;
            stroke-linejoin: miter;
            font-weight: 800;
        }
    </style>

    <path d="M 333 603 Q 348 619 362 636 Q 405 690 445 732 Q 458 744 445 762 Q 402 805 379 805 Q 367 804 367 789 Q 364 719 304 644 L 268 603 Q 228 558 180 524 Q 137 496 115 476 Q 105 463 121 464 Q 182 467 293 564 L 333 603 Z" class="stroke1"/>
    <path d="M 335 421 Q 348 232 312 121 Q 306 106 298 105 Q 282 101 236 107 Q 202 116 197 109 Q 194 102 206 89 Q 251 53 279 20 Q 298 -5 307 -5 Q 314 -6 331 10 Q 413 119 384 438 Q 377 487 365 528 Q 352 571 333 603 L 304 644 Q 259 701 179 735 Q 163 744 159 731 Q 155 716 163 695 Q 173 674 192 670 Q 231 654 268 603 L 293 564 Q 306 540 315 516 L 335 421 Z" class="stroke2"/>
    <path d="M 315 516 Q 311 513 309 505 Q 252 346 66 181 Q 53 166 64 165 Q 74 161 87 168 Q 195 214 297 362 Q 304 375 314 388 Q 327 409 335 421 C 351 446 329 543 315 516 Z" class="stroke3"/>
    <path d="M 537 693 Q 528 702 509 708 Q 499 712 488 708 Q 481 704 487 691 Q 509 622 510 499 Q 510 402 498 347 Q 486 293 521 249 Q 531 236 542 249 Q 549 259 552 270 L 556 306 Q 557 327 556 355 Q 555 383 555 410 L 555 438 Q 555 495 555 535 L 555 562 Q 555 613 558 663 C 559 678 559 678 537 693 Z" class="stroke4"/>
    <path d="M 763 293 Q 764 281 773 268 Q 788 237 798 238 Q 813 239 830 274 Q 846 302 843 324 Q 807 597 853 670 Q 863 686 856 696 Q 828 721 778 742 Q 762 748 738 739 Q 660 706 537 693 C 507 690 529 656 558 663 Q 652 685 723 697 Q 747 701 755 689 Q 774 665 774 586 Q 777 369 766 319 L 763 293 Z" class="stroke5"/>
    <path d="M 555 535 Q 561 535 569 536 Q 653 551 715 559 Q 737 563 729 576 Q 719 591 693 595 Q 662 598 555 562 C 527 552 525 534 555 535 Z" class="stroke6"/>
    <path d="M 555 410 Q 559 410 566 410 Q 656 423 722 432 Q 746 436 737 448 Q 727 463 701 468 Q 679 472 555 438 C 526 430 525 410 555 410 Z" class="stroke7"/>
    <path d="M 552 270 Q 592 283 763 293 C 793 295 788 299 766 319 Q 760 325 750 332 Q 734 342 703 334 Q 622 316 556 306 C 526 301 523 262 552 270 Z" class="stroke8"/>
    <path d="M 562 213 Q 552 153 405 40 Q 384 27 411 28 Q 486 35 589 137 Q 617 165 631 176 Q 643 186 640 196 Q 639 209 613 218 Q 585 228 573 227 Q 566 226 562 213 Z" class="stroke9"/>
    <path d="M 721 178 Q 773 111 835 15 Q 848 -9 863 -16 Q 872 -19 881 -10 Q 897 2 891 50 Q 887 114 727 210 Q 720 217 715 204 Q 711 191 721 178 Z" class="stroke10"/>
    
    
    
    
    
    
    
    
    
    </g>
</svg>