<svg version="1.1" viewBox="0 0 1024 1024" xmlns="http://www.w3.org/2000/svg">
  
  <g transform="scale(1, -1) translate(0, -900)">
    <style type="text/css">
        .stroke1 {fill: #808080;}
        .stroke2 {fill: #808079;}
        .stroke3 {fill: #808078;}
        .stroke4 {fill: #808077;}
        .stroke5 {fill: #808076;}
        .stroke6 {fill: #808075;}
        .stroke7 {fill: #808074;}
        .stroke8 {fill: #808073;}
        .stroke9 {fill: #808072;}
        .stroke10 {fill: #808071;}
        .stroke11 {fill: #808070;}
        .stroke12 {fill: #808069;}
        .stroke13 {fill: #808068;}
        .stroke14 {fill: #808067;}
        .stroke15 {fill: #808066;}
        .stroke16 {fill: #808065;}
        .stroke17 {fill: #808064;}
        .stroke18 {fill: #808063;}
        .stroke19 {fill: #808062;}
        .stroke20 {fill: #808061;}
        text {
            font-family: Helvetica;
            font-size: 50px;
            fill: #808060;
            paint-order: stroke;
            stroke: #000000;
            stroke-width: 4px;
            stroke-linecap: butt;
            stroke-linejoin: miter;
            font-weight: 800;
        }
    </style>

    <path d="M 275 601 Q 395 638 397 639 Q 406 648 400 656 Q 393 668 362 673 Q 331 677 301 663 Q 267 650 231 638 Q 191 626 143 619 Q 106 610 134 595 Q 171 576 229 589 L 275 601 Z" class="stroke1"/>
    <path d="M 297 398 Q 322 407 354 415 Q 385 425 389 430 Q 396 437 392 446 Q 385 456 357 460 Q 315 464 299 448 L 246 426 Q 236 425 230 421 Q 187 408 137 399 Q 104 390 130 377 Q 169 358 219 376 Q 231 380 246 383 L 297 398 Z" class="stroke2"/>
    <path d="M 292 205 Q 295 310 297 398 L 299 448 Q 299 514 303 551 Q 312 578 275 601 C 250 618 219 617 229 589 Q 242 565 246 446 Q 246 437 246 426 L 246 383 Q 246 307 246 188 C 246 158 291 175 292 205 Z" class="stroke3"/>
    <path d="M 246 188 Q 125 143 87 141 Q 74 138 72 128 Q 71 115 81 106 Q 106 91 141 74 Q 151 71 164 81 Q 203 114 371 202 Q 396 215 413 230 Q 426 239 426 249 Q 417 255 292 205 L 246 188 Z" class="stroke4"/>
    <path d="M 584 751 Q 617 727 653 698 Q 669 685 688 687 Q 700 688 704 704 Q 708 722 695 754 Q 680 790 573 805 Q 554 806 548 803 Q 542 799 545 784 Q 551 771 584 751 Z" class="stroke5"/>
    <path d="M 672 533 Q 847 581 856 589 Q 866 599 860 607 Q 851 620 820 626 Q 796 629 699 594 Q 588 557 472 537 Q 433 528 463 511 Q 506 487 568 506 Q 599 515 635 523 L 672 533 Z" class="stroke6"/>
    <path d="M 659 207 Q 711 291 722 432 Q 723 463 728 483 Q 732 498 723 505 Q 701 524 675 532 Q 674 533 672 533 C 644 544 626 551 635 523 Q 680 400 625 248 Q 624 248 623 245 L 599 207 Q 533 122 365 48 Q 355 45 351 41 Q 344 37 355 32 Q 362 31 376 33 Q 482 55 554 102 Q 600 130 630 165 L 659 207 Z" class="stroke7"/>
    <path d="M 630 165 Q 676 105 735 42 Q 751 20 782 17 Q 873 7 950 11 Q 989 12 987 23 Q 986 29 805 101 Q 726 141 662 205 Q 659 206 659 207 L 623 245 Q 577 294 532 354 Q 499 397 465 401 Q 447 402 444 398 Q 441 392 455 380 Q 506 341 599 207 L 630 165 Z" class="stroke8"/>
    
    
    
    
    
    
    
    </g>
</svg>