<svg version="1.1" viewBox="0 0 1024 1024" xmlns="http://www.w3.org/2000/svg">
  
  <g transform="scale(1, -1) translate(0, -900)">
    <style type="text/css">
        .stroke1 {fill: #808080;}
        .stroke2 {fill: #808079;}
        .stroke3 {fill: #808078;}
        .stroke4 {fill: #808077;}
        .stroke5 {fill: #808076;}
        .stroke6 {fill: #808075;}
        .stroke7 {fill: #808074;}
        .stroke8 {fill: #808073;}
        .stroke9 {fill: #808072;}
        .stroke10 {fill: #808071;}
        .stroke11 {fill: #808070;}
        .stroke12 {fill: #808069;}
        .stroke13 {fill: #808068;}
        .stroke14 {fill: #808067;}
        .stroke15 {fill: #808066;}
        .stroke16 {fill: #808065;}
        .stroke17 {fill: #808064;}
        .stroke18 {fill: #808063;}
        .stroke19 {fill: #808062;}
        .stroke20 {fill: #808061;}
        text {
            font-family: Helvetica;
            font-size: 50px;
            fill: #808060;
            paint-order: stroke;
            stroke: #000000;
            stroke-width: 4px;
            stroke-linecap: butt;
            stroke-linejoin: miter;
            font-weight: 800;
        }
    </style>

    <path d="M 270 629 Q 375 659 381 663 Q 390 672 384 680 Q 377 692 346 697 Q 315 701 285 687 Q 254 674 220 664 Q 183 654 139 647 Q 102 638 130 623 Q 167 604 225 617 L 270 629 Z" class="stroke1"/>
    <path d="M 287 438 Q 374 465 378 469 Q 385 476 380 485 Q 373 495 343 500 Q 315 503 289 490 L 240 470 Q 168 451 142 445 Q 108 436 134 422 Q 170 407 240 424 L 287 438 Z" class="stroke2"/>
    <path d="M 282 265 Q 285 358 287 438 L 289 490 Q 289 547 293 584 Q 300 606 270 629 C 247 649 215 645 225 617 Q 240 587 240 470 L 240 424 Q 240 355 240 247 C 240 217 281 235 282 265 Z" class="stroke3"/>
    <path d="M 240 247 Q 183 226 121 202 Q 103 195 73 193 Q 60 190 59 180 Q 58 165 69 158 Q 94 145 130 128 Q 140 125 152 136 Q 176 160 340 255 Q 362 268 377 282 Q 390 292 389 301 Q 382 307 282 265 L 240 247 Z" class="stroke4"/>
    <path d="M 486 728 Q 467 744 441 752 Q 434 753 427 746 Q 424 742 431 731 Q 474 635 441 438 Q 426 381 430 363 Q 439 332 449 320 Q 459 307 469 320 Q 493 350 494 511 Q 494 665 499 701 C 501 717 501 717 486 728 Z" class="stroke5"/>
    <path d="M 688 384 Q 681 360 695 338 Q 708 310 718 310 Q 733 311 749 344 Q 762 371 762 392 Q 749 489 751 641 Q 750 686 774 723 Q 784 739 776 748 Q 748 770 701 789 Q 685 793 663 785 Q 600 751 486 728 C 457 722 470 693 499 701 Q 502 702 507 703 Q 666 749 682 741 Q 694 714 698 642 Q 699 425 688 384 Z" class="stroke6"/>
    <path d="M 601 352 Q 608 416 616 511 Q 617 548 631 591 Q 635 601 628 608 Q 583 650 546 639 Q 528 632 543 617 Q 568 590 568 563 Q 569 427 552 336 Q 531 197 438 118 Q 398 81 308 33 Q 296 29 294 25 Q 290 21 304 18 Q 317 17 371 37 Q 410 50 466 89 Q 559 152 594 319 L 601 352 Z" class="stroke7"/>
    <path d="M 594 319 Q 604 285 602 253 Q 593 70 628 36 Q 647 17 693 2 Q 844 -35 961 42 Q 980 57 967 82 Q 954 113 936 209 Q 936 225 929 230 Q 923 233 919 216 Q 892 114 874 82 Q 862 69 829 59 Q 751 40 687 65 Q 662 77 655 92 Q 631 140 657 302 Q 663 330 614 351 Q 607 354 601 352 C 585 356 587 348 594 319 Z" class="stroke8"/>
    
    
    
    
    
    
    
    </g>
</svg>