<svg version="1.1" viewBox="0 0 1024 1024" xmlns="http://www.w3.org/2000/svg">
  
  <g transform="scale(1, -1) translate(0, -900)">
    <style type="text/css">
        .stroke1 {fill: #808080;}
        .stroke2 {fill: #808079;}
        .stroke3 {fill: #808078;}
        .stroke4 {fill: #808077;}
        .stroke5 {fill: #808076;}
        .stroke6 {fill: #808075;}
        .stroke7 {fill: #808074;}
        .stroke8 {fill: #808073;}
        .stroke9 {fill: #808072;}
        .stroke10 {fill: #808071;}
        .stroke11 {fill: #808070;}
        .stroke12 {fill: #808069;}
        .stroke13 {fill: #808068;}
        .stroke14 {fill: #808067;}
        .stroke15 {fill: #808066;}
        .stroke16 {fill: #808065;}
        .stroke17 {fill: #808064;}
        .stroke18 {fill: #808063;}
        .stroke19 {fill: #808062;}
        .stroke20 {fill: #808061;}
        text {
            font-family: Helvetica;
            font-size: 50px;
            fill: #808060;
            paint-order: stroke;
            stroke: #000000;
            stroke-width: 4px;
            stroke-linecap: butt;
            stroke-linejoin: miter;
            font-weight: 800;
        }
    </style>

    <path d="M 277 607 Q 400 646 401 647 Q 410 656 404 664 Q 397 676 366 681 Q 335 685 305 670 Q 271 655 233 643 Q 193 631 143 623 Q 106 613 134 599 Q 179 581 236 596 L 277 607 Z" class="stroke1"/>
    <path d="M 300 398 Q 384 428 386 429 Q 393 436 388 445 Q 381 455 351 460 Q 324 463 302 452 L 251 431 Q 182 410 138 401 Q 104 392 130 378 Q 172 360 225 377 Q 235 381 250 384 L 300 398 Z" class="stroke2"/>
    <path d="M 292 233 Q 296 321 300 398 L 302 452 Q 303 512 309 553 Q 318 577 279 606 Q 278 607 277 607 C 253 625 226 624 236 596 Q 251 560 251 461 Q 251 449 251 431 L 250 384 Q 249 317 247 219 C 246 189 291 203 292 233 Z" class="stroke3"/>
    <path d="M 247 219 Q 121 180 93 181 Q 80 180 78 168 Q 77 155 86 146 Q 110 130 145 112 Q 155 109 167 118 Q 192 139 348 219 Q 370 229 385 243 Q 398 250 398 260 Q 392 266 380 263 Q 337 250 292 233 L 247 219 Z" class="stroke4"/>
    <path d="M 643 557 Q 781 596 784 597 Q 793 607 788 615 Q 779 628 748 634 Q 714 640 646 612 L 589 593 Q 585 593 583 592 Q 525 577 457 568 Q 418 561 447 543 Q 492 519 554 537 Q 570 541 590 544 L 643 557 Z" class="stroke5"/>
    <path d="M 631 411 Q 637 487 643 557 L 646 612 Q 647 666 669 758 Q 673 770 651 786 Q 614 807 588 812 Q 570 816 562 806 Q 553 799 562 782 Q 584 749 585 726 Q 589 662 589 593 L 590 544 Q 589 477 586 404 C 585 374 629 381 631 411 Z" class="stroke6"/>
    <path d="M 600 368 Q 612 381 842 391 Q 851 392 863 392 Q 923 392 928 402 Q 932 414 917 426 Q 866 462 829 453 Q 756 435 631 411 L 586 404 Q 487 388 375 370 Q 356 367 371 351 Q 384 338 402 334 Q 423 330 438 334 Q 496 352 562 362 L 600 368 Z" class="stroke7"/>
    <path d="M 750 191 Q 635 166 514 139 Q 505 136 503 139 Q 502 143 508 151 Q 605 289 643 324 Q 659 339 648 349 Q 638 361 603 368 Q 602 369 600 368 C 571 374 561 376 562 362 Q 561 356 563 344 Q 576 275 461 158 Q 439 140 410 122 Q 368 104 388 62 Q 389 59 391 56 Q 404 34 418 29 Q 427 26 438 33 Q 499 78 759 170 Q 760 171 762 171 C 790 181 779 197 750 191 Z" class="stroke8"/>
    <path d="M 762 171 Q 828 41 838 34 Q 847 30 858 38 Q 874 48 874 96 Q 875 141 817 197 Q 789 225 732 272 Q 725 279 718 268 Q 714 255 721 241 Q 734 219 750 191 L 762 171 Z" class="stroke9"/>
    
    
    
    
    
    
    
    
    </g>
</svg>