<svg version="1.1" viewBox="0 0 1024 1024" xmlns="http://www.w3.org/2000/svg">
  
  <g transform="scale(1, -1) translate(0, -900)">
    <style type="text/css">
        .stroke1 {fill: #808080;}
        .stroke2 {fill: #808079;}
        .stroke3 {fill: #808078;}
        .stroke4 {fill: #808077;}
        .stroke5 {fill: #808076;}
        .stroke6 {fill: #808075;}
        .stroke7 {fill: #808074;}
        .stroke8 {fill: #808073;}
        .stroke9 {fill: #808072;}
        .stroke10 {fill: #808071;}
        .stroke11 {fill: #808070;}
        .stroke12 {fill: #808069;}
        .stroke13 {fill: #808068;}
        .stroke14 {fill: #808067;}
        .stroke15 {fill: #808066;}
        .stroke16 {fill: #808065;}
        .stroke17 {fill: #808064;}
        .stroke18 {fill: #808063;}
        .stroke19 {fill: #808062;}
        .stroke20 {fill: #808061;}
        text {
            font-family: Helvetica;
            font-size: 50px;
            fill: #808060;
            paint-order: stroke;
            stroke: #000000;
            stroke-width: 4px;
            stroke-linecap: butt;
            stroke-linejoin: miter;
            font-weight: 800;
        }
    </style>

    <path d="M 270 626 Q 384 665 386 667 Q 395 677 389 684 Q 380 696 349 699 Q 318 702 289 685 Q 264 675 236 664 Q 205 654 169 647 Q 132 637 161 623 Q 182 614 229 614 L 270 626 Z" class="stroke1"/>
    <path d="M 296 429 Q 323 439 352 447 Q 379 457 382 461 Q 389 470 384 477 Q 377 487 347 491 Q 322 494 298 483 L 246 460 Q 156 436 149 433 Q 115 423 141 410 Q 184 391 236 411 Q 240 412 247 414 L 296 429 Z" class="stroke2"/>
    <path d="M 292 268 Q 293 355 296 429 L 298 483 Q 298 538 302 574 Q 311 599 272 625 Q 271 626 270 626 C 245 643 219 642 229 614 Q 244 581 246 460 L 247 414 Q 247 347 247 245 C 247 215 292 238 292 268 Z" class="stroke3"/>
    <path d="M 247 245 Q 193 220 136 190 Q 118 181 89 177 Q 76 173 76 162 Q 76 149 87 142 Q 114 130 150 117 Q 162 116 172 127 Q 197 155 351 263 Q 372 278 386 294 Q 398 304 397 313 Q 388 319 292 268 L 247 245 Z" class="stroke4"/>
    <path d="M 563 798 Q 588 779 613 755 Q 629 743 645 745 Q 657 746 661 760 Q 665 776 653 807 Q 641 835 555 848 Q 539 851 532 847 Q 526 843 529 829 Q 533 819 563 798 Z" class="stroke5"/>
    <path d="M 653 412 Q 672 388 689 381 Q 701 374 715 396 Q 730 427 751 584 Q 758 615 781 643 Q 794 656 781 670 Q 765 686 719 710 Q 701 717 636 698 Q 621 698 504 662 C 475 653 489 620 518 629 Q 567 645 654 662 Q 675 666 682 660 Q 698 644 696 626 Q 680 478 670 456 Q 666 446 655 440 C 640 427 640 427 653 412 Z" class="stroke6"/>
    <path d="M 513 510 Q 517 510 523 511 Q 589 529 638 540 Q 660 546 650 557 Q 638 570 614 571 Q 574 571 512 535 C 486 520 483 508 513 510 Z" class="stroke7"/>
    <path d="M 529 392 Q 599 405 653 412 C 683 416 683 428 655 440 Q 619 458 516 416 C 488 405 487 392 517 392 L 529 392 Z" class="stroke8"/>
    <path d="M 504 662 Q 483 678 464 687 Q 445 694 436 687 Q 426 680 435 665 Q 495 545 461 120 Q 460 69 420 18 Q 408 2 416 -22 Q 428 -49 441 -60 Q 454 -69 467 -51 Q 480 -24 604 87 Q 623 100 628 110 Q 632 120 622 120 Q 607 120 523 74 Q 510 67 509 80 Q 516 230 516 356 L 517 392 L 516 416 Q 515 465 513 510 L 512 535 Q 511 587 518 629 C 521 650 521 650 504 662 Z" class="stroke9"/>
    <path d="M 688 237 Q 785 313 834 342 Q 853 348 848 359 Q 841 375 822 394 Q 803 413 779 414 Q 763 413 765 393 Q 768 366 670 251 C 651 228 664 219 688 237 Z" class="stroke10"/>
    <path d="M 516 356 Q 720 103 775 83 Q 845 70 941 82 Q 960 83 962 88 Q 965 95 950 102 Q 895 127 832 153 Q 760 184 708 224 Q 698 231 688 237 L 670 251 Q 669 252 517 392 C 495 412 497 379 516 356 Z" class="stroke11"/>
    
    
    
    
    
    
    
    
    
    
    </g>
</svg>