<svg version="1.1" viewBox="0 0 1024 1024" xmlns="http://www.w3.org/2000/svg">
  
  <g transform="scale(1, -1) translate(0, -900)">
    <style type="text/css">
        .stroke1 {fill: #808080;}
        .stroke2 {fill: #808079;}
        .stroke3 {fill: #808078;}
        .stroke4 {fill: #808077;}
        .stroke5 {fill: #808076;}
        .stroke6 {fill: #808075;}
        .stroke7 {fill: #808074;}
        .stroke8 {fill: #808073;}
        .stroke9 {fill: #808072;}
        .stroke10 {fill: #808071;}
        .stroke11 {fill: #808070;}
        .stroke12 {fill: #808069;}
        .stroke13 {fill: #808068;}
        .stroke14 {fill: #808067;}
        .stroke15 {fill: #808066;}
        .stroke16 {fill: #808065;}
        .stroke17 {fill: #808064;}
        .stroke18 {fill: #808063;}
        .stroke19 {fill: #808062;}
        .stroke20 {fill: #808061;}
        text {
            font-family: Helvetica;
            font-size: 50px;
            fill: #808060;
            paint-order: stroke;
            stroke: #000000;
            stroke-width: 4px;
            stroke-linecap: butt;
            stroke-linejoin: miter;
            font-weight: 800;
        }
    </style>

    <path d="M 343 624 Q 371 649 482 759 Q 500 778 523 793 Q 544 806 530 823 Q 514 839 484 850 Q 457 860 444 856 Q 431 853 437 839 Q 446 809 328 631 C 311 606 321 604 343 624 Z" class="stroke1"/>
    <path d="M 328 631 Q 283 650 270 647 Q 251 643 267 621 Q 303 564 291 360 Q 287 275 247 174 Q 220 99 122 0 Q 109 -13 105 -20 Q 104 -27 116 -26 Q 132 -26 152 -10 Q 204 27 234 63 Q 331 178 345 431 Q 348 492 348 576 C 348 606 348 619 348 619 Q 347 622 343 624 L 328 631 Z" class="stroke2"/>
    <path d="M 348 576 Q 357 576 369 578 Q 417 591 472 603 L 527 615 Q 597 631 680 644 Q 702 648 712 636 Q 727 629 733 562 Q 752 342 743 89 Q 743 52 730 42 Q 715 32 644 50 Q 625 54 626 43 Q 627 34 642 27 Q 706 -25 738 -64 Q 763 -86 777 -84 Q 790 -80 804 -48 Q 822 4 820 79 Q 798 416 798 542 Q 798 585 811 611 Q 824 635 812 647 Q 800 663 748 690 Q 724 702 666 682 Q 500 640 348 619 C 318 615 318 571 348 576 Z" class="stroke3"/>
    <path d="M 495 450 Q 453 440 407 433 Q 373 424 398 410 Q 446 389 495 405 L 547 418 Q 655 448 660 453 Q 669 460 664 469 Q 657 479 627 485 Q 600 489 548 467 L 495 450 Z" class="stroke4"/>
    <path d="M 493 284 Q 447 275 396 268 Q 362 261 387 246 Q 420 227 492 240 L 545 252 Q 680 288 684 289 Q 691 296 687 305 Q 680 315 652 322 Q 622 328 594 315 Q 569 306 545 298 L 493 284 Z" class="stroke5"/>
    <path d="M 472 603 Q 494 566 495 479 Q 495 466 495 450 L 495 405 Q 494 350 493 284 L 492 240 Q 492 15 501 -7 Q 502 -13 506 -17 Q 512 -24 519 -22 Q 537 -10 540 45 Q 544 93 545 252 L 545 298 Q 545 349 547 418 L 548 467 Q 548 530 560 575 Q 563 593 549 602 Q 537 609 527 615 C 501 630 459 630 472 603 Z" class="stroke6"/>
    
    
    
    
    
    </g>
</svg>