<svg version="1.1" viewBox="0 0 1024 1024" xmlns="http://www.w3.org/2000/svg">
  
  <g transform="scale(1, -1) translate(0, -900)">
    <style type="text/css">
        .stroke1 {fill: #808080;}
        .stroke2 {fill: #808079;}
        .stroke3 {fill: #808078;}
        .stroke4 {fill: #808077;}
        .stroke5 {fill: #808076;}
        .stroke6 {fill: #808075;}
        .stroke7 {fill: #808074;}
        .stroke8 {fill: #808073;}
        .stroke9 {fill: #808072;}
        .stroke10 {fill: #808071;}
        .stroke11 {fill: #808070;}
        .stroke12 {fill: #808069;}
        .stroke13 {fill: #808068;}
        .stroke14 {fill: #808067;}
        .stroke15 {fill: #808066;}
        .stroke16 {fill: #808065;}
        .stroke17 {fill: #808064;}
        .stroke18 {fill: #808063;}
        .stroke19 {fill: #808062;}
        .stroke20 {fill: #808061;}
        text {
            font-family: Helvetica;
            font-size: 50px;
            fill: #808060;
            paint-order: stroke;
            stroke: #000000;
            stroke-width: 4px;
            stroke-linecap: butt;
            stroke-linejoin: miter;
            font-weight: 800;
        }
    </style>

    <path d="M 231 512 Q 210 525 182 531 Q 174 535 168 527 Q 167 527 165 525 Q 160 520 170 507 Q 229 408 237 166 Q 238 99 280 57 Q 288 51 293 51 Q 310 47 312 83 L 312 87 L 311 127 Q 306 148 300 171 L 288 271 L 285 306 Q 272 429 270 461 C 268 491 257 498 231 512 Z" class="stroke1"/>
    <path d="M 466 527 Q 368 518 231 512 C 201 511 240 456 270 461 L 280 462 Q 344 474 466 490 L 519 499 Q 610 513 688 523 Q 716 525 735 518 Q 744 515 749 510 Q 760 500 760 473 L 760 469 Q 760 430 755 367 L 752 338 Q 742 257 723 176 Q 721 163 718 157 Q 711 143 692 153 L 672 166 Q 669 166 664 171 C 639 187 652 151 664 124 L 704 33 Q 713 12 727 12 Q 746 16 759 46 Q 802 128 811 239 L 831 390 Q 834 416 843 439 Q 850 462 870 494 Q 882 513 879 521 Q 878 526 872 532 Q 850 557 788 586 Q 780 590 770 592 Q 755 595 710 582 Q 606 552 521 536 L 466 527 Z" class="stroke2"/>
    <path d="M 521 536 Q 523 622 533 686 L 546 755 Q 549 772 539 782 L 527 793 Q 508 802 498 807 Q 445 830 422 815 Q 416 808 417 798 L 423 786 Q 461 730 462 692 Q 466 606 466 527 L 466 490 L 466 365 Q 466 345 466 334 C 466 304 517 314 517 344 Q 517 423 519 499 L 521 536 Z" class="stroke3"/>
    <path d="M 288 271 Q 302 267 310 267 L 325 270 Q 419 284 512 302 L 752 338 C 782 342 778 348 755 367 Q 735 400 574 359 L 535 349 L 521 345 Q 517 345 517 344 L 466 334 Q 455 329 334 313 L 285 306 C 255 302 259 278 288 271 Z" class="stroke4"/>
    <path d="M 312 87 Q 312 88 314 88 Q 429 113 664 124 C 694 125 694 166 664 171 Q 653 178 524 163 Q 365 145 311 127 C 282 118 283 79 312 87 Z" class="stroke5"/>
    
    
    
    
    </g>
</svg>