<svg version="1.1" viewBox="0 0 1024 1024" xmlns="http://www.w3.org/2000/svg">
  
  <g transform="scale(1, -1) translate(0, -900)">
    <style type="text/css">
        .stroke1 {fill: #808080;}
        .stroke2 {fill: #808079;}
        .stroke3 {fill: #808078;}
        .stroke4 {fill: #808077;}
        .stroke5 {fill: #808076;}
        .stroke6 {fill: #808075;}
        .stroke7 {fill: #808074;}
        .stroke8 {fill: #808073;}
        .stroke9 {fill: #808072;}
        .stroke10 {fill: #808071;}
        .stroke11 {fill: #808070;}
        .stroke12 {fill: #808069;}
        .stroke13 {fill: #808068;}
        .stroke14 {fill: #808067;}
        .stroke15 {fill: #808066;}
        .stroke16 {fill: #808065;}
        .stroke17 {fill: #808064;}
        .stroke18 {fill: #808063;}
        .stroke19 {fill: #808062;}
        .stroke20 {fill: #808061;}
        text {
            font-family: Helvetica;
            font-size: 50px;
            fill: #808060;
            paint-order: stroke;
            stroke: #000000;
            stroke-width: 4px;
            stroke-linecap: butt;
            stroke-linejoin: miter;
            font-weight: 800;
        }
    </style>

    <path d="M 259 724 Q 232 739 205 743 Q 198 746 191 739 Q 182 732 195 719 Q 247 646 268 454 Q 274 391 316 355 Q 319 354 323 351 Q 341 347 342 373 L 340 410 Q 336 435 327 464 Q 297 629 292 687 C 290 708 286 710 259 724 Z" class="stroke1"/>
    <path d="M 660 410 Q 681 377 700 367 Q 713 357 732 383 Q 756 423 803 634 Q 816 671 845 701 Q 861 716 848 734 Q 829 755 778 789 Q 756 801 669 782 Q 590 773 417 747 Q 329 732 259 724 C 229 720 263 680 292 687 Q 355 702 446 714 L 509 725 Q 704 759 729 733 Q 748 708 743 685 Q 703 489 685 460 Q 679 445 660 441 C 645 431 645 431 660 410 Z" class="stroke2"/>
    <path d="M 528 563 Q 585 573 642 584 Q 643 587 646 589 Q 647 599 627 608 Q 594 626 530 603 L 473 590 Q 392 580 383 577 Q 358 573 378 559 Q 405 541 444 547 Q 456 550 472 552 L 528 563 Z" class="stroke3"/>
    <path d="M 524 398 Q 584 405 660 410 C 690 412 685 425 660 441 Q 627 468 538 443 Q 531 443 525 440 L 470 430 Q 400 418 340 410 C 310 406 313 365 342 373 Q 372 383 469 393 L 524 398 Z" class="stroke4"/>
    <path d="M 464 -7 Q 470 -35 477 -45 Q 483 -52 491 -50 Q 506 -41 515 24 Q 525 115 524 206 Q 523 257 524 398 L 525 440 Q 526 495 528 563 L 530 603 Q 531 631 543 681 Q 547 700 531 711 Q 518 720 509 725 C 484 741 431 740 446 714 Q 452 702 459 691 Q 472 664 473 590 L 472 552 Q 471 497 470 430 L 469 393 Q 463 14 464 -7 Z" class="stroke5"/>
    
    
    
    
    </g>
</svg>