<svg version="1.1" viewBox="0 0 1024 1024" xmlns="http://www.w3.org/2000/svg">
  
  <g transform="scale(1, -1) translate(0, -900)">
    <style type="text/css">
        .stroke1 {fill: #808080;}
        .stroke2 {fill: #808079;}
        .stroke3 {fill: #808078;}
        .stroke4 {fill: #808077;}
        .stroke5 {fill: #808076;}
        .stroke6 {fill: #808075;}
        .stroke7 {fill: #808074;}
        .stroke8 {fill: #808073;}
        .stroke9 {fill: #808072;}
        .stroke10 {fill: #808071;}
        .stroke11 {fill: #808070;}
        .stroke12 {fill: #808069;}
        .stroke13 {fill: #808068;}
        .stroke14 {fill: #808067;}
        .stroke15 {fill: #808066;}
        .stroke16 {fill: #808065;}
        .stroke17 {fill: #808064;}
        .stroke18 {fill: #808063;}
        .stroke19 {fill: #808062;}
        .stroke20 {fill: #808061;}
        text {
            font-family: Helvetica;
            font-size: 50px;
            fill: #808060;
            paint-order: stroke;
            stroke: #000000;
            stroke-width: 4px;
            stroke-linecap: butt;
            stroke-linejoin: miter;
            font-weight: 800;
        }
    </style>

    <path d="M 323 726 Q 311 732 280 736 Q 268 740 265 734 Q 258 728 267 712 Q 303 636 323 510 Q 327 473 348 447 Q 366 425 371 441 Q 372 448 374 455 L 375 481 Q 374 500 369 524 Q 344 645 337 689 C 332 719 331 723 323 726 Z" class="stroke1"/>
    <path d="M 604 479 Q 626 445 645 437 Q 655 428 672 451 Q 690 481 723 641 Q 733 675 758 702 Q 773 715 760 731 Q 744 750 697 778 Q 679 787 587 768 Q 574 768 435 744 Q 374 734 323 726 C 293 721 308 682 337 689 Q 377 699 466 713 L 508 720 Q 553 727 607 733 Q 643 737 654 725 Q 670 707 667 689 Q 639 524 622 506 C 609 479 601 483 604 479 Z" class="stroke2"/>
    <path d="M 525 598 Q 562 605 594 610 Q 619 614 609 628 Q 597 643 571 647 Q 552 650 528 643 L 477 628 Q 440 618 407 606 Q 389 602 412 587 Q 418 581 478 590 L 525 598 Z" class="stroke3"/>
    <path d="M 520 504 Q 523 555 525 598 L 528 643 Q 528 667 530 677 Q 539 698 508 720 C 484 738 456 741 466 713 Q 473 698 477 628 L 478 590 Q 478 553 480 497 C 481 467 518 474 520 504 Z" class="stroke4"/>
    <path d="M 374 455 Q 380 454 393 455 Q 511 471 604 479 C 634 482 649 492 622 506 Q 616 510 608 512 Q 586 518 520 504 L 480 497 Q 425 490 375 481 C 345 476 344 457 374 455 Z" class="stroke5"/>
    <path d="M 629 359 Q 714 363 820 360 Q 899 357 907 368 Q 913 381 895 396 Q 828 447 781 429 Q 558 395 150 352 Q 128 351 144 331 Q 160 315 179 309 Q 203 302 220 307 Q 272 320 333 330 L 388 338 Q 484 354 585 357 L 629 359 Z" class="stroke6"/>
    <path d="M 333 330 Q 357 290 332 188 Q 308 103 207 31 Q 195 22 207 20 Q 249 17 313 70 Q 343 92 358 120 Q 389 193 405 258 Q 408 279 418 297 Q 427 315 411 323 Q 399 333 388 338 C 362 353 320 357 333 330 Z" class="stroke7"/>
    <path d="M 585 357 Q 586 357 587 355 Q 611 322 585 114 Q 579 42 600 4 Q 601 1 605 -3 Q 615 -22 624 -27 Q 636 -28 641 -15 Q 654 18 651 49 Q 645 263 655 323 Q 658 336 651 342 Q 639 352 629 359 C 605 377 570 383 585 357 Z" class="stroke8"/>
    
    
    
    
    
    
    
    </g>
</svg>