<svg version="1.1" viewBox="0 0 1024 1024" xmlns="http://www.w3.org/2000/svg">
  
  <g transform="scale(1, -1) translate(0, -900)">
    <style type="text/css">
        .stroke1 {fill: #808080;}
        .stroke2 {fill: #808079;}
        .stroke3 {fill: #808078;}
        .stroke4 {fill: #808077;}
        .stroke5 {fill: #808076;}
        .stroke6 {fill: #808075;}
        .stroke7 {fill: #808074;}
        .stroke8 {fill: #808073;}
        .stroke9 {fill: #808072;}
        .stroke10 {fill: #808071;}
        .stroke11 {fill: #808070;}
        .stroke12 {fill: #808069;}
        .stroke13 {fill: #808068;}
        .stroke14 {fill: #808067;}
        .stroke15 {fill: #808066;}
        .stroke16 {fill: #808065;}
        .stroke17 {fill: #808064;}
        .stroke18 {fill: #808063;}
        .stroke19 {fill: #808062;}
        .stroke20 {fill: #808061;}
        text {
            font-family: Helvetica;
            font-size: 50px;
            fill: #808060;
            paint-order: stroke;
            stroke: #000000;
            stroke-width: 4px;
            stroke-linecap: butt;
            stroke-linejoin: miter;
            font-weight: 800;
        }
    </style>

    <path d="M 98 578 Q 88 584 63 589 Q 53 593 49 588 Q 43 582 50 568 Q 86 471 98 315 Q 99 269 122 235 Q 137 214 142 228 Q 149 246 149 273 L 147 305 Q 146 318 143 331 Q 115 497 110 546 C 107 574 107 574 98 578 Z" class="stroke1"/>
    <path d="M 304 301 Q 322 279 337 273 Q 347 266 362 288 Q 378 325 402 516 Q 409 547 430 572 Q 442 585 430 598 Q 414 614 371 636 Q 352 643 336 637 Q 309 630 275 621 Q 229 611 170 596 Q 131 586 98 578 C 69 571 81 537 110 546 Q 110 547 112 547 Q 145 557 193 569 L 235 578 Q 322 602 336 589 Q 355 568 352 548 Q 328 347 309 331 C 297 308 297 308 304 301 Z" class="stroke2"/>
    <path d="M 249 439 Q 279 446 308 451 Q 330 455 322 468 Q 310 481 284 485 Q 269 486 251 481 L 203 465 Q 170 453 142 442 Q 126 438 147 423 Q 151 420 204 429 L 249 439 Z" class="stroke3"/>
    <path d="M 245 332 Q 246 390 249 439 L 251 481 Q 255 557 253 562 Q 244 571 235 578 C 212 597 186 598 193 569 Q 199 553 203 465 L 204 429 Q 204 386 204 320 C 204 290 244 302 245 332 Z" class="stroke4"/>
    <path d="M 149 273 Q 153 273 160 275 Q 206 288 304 301 C 334 305 334 314 309 331 Q 305 334 299 337 Q 283 344 245 332 L 204 320 Q 173 313 147 305 C 118 296 119 269 149 273 Z" class="stroke5"/>
    <path d="M 642 706 Q 655 739 668 750 Q 675 756 672 766 Q 669 776 656 786 Q 620 811 589 803 Q 580 800 584 788 Q 602 728 509 574 Q 506 573 505 569 Q 477 529 404 448 Q 397 442 407 440 Q 462 452 557 567 Q 563 577 572 587 Q 597 623 632 686 L 642 706 Z" class="stroke6"/>
    <path d="M 632 686 Q 631 686 632 685 Q 708 576 809 461 Q 825 443 854 444 Q 951 448 982 454 Q 991 457 992 461 Q 992 465 979 472 Q 862 515 786 570 Q 719 628 642 706 C 621 727 616 711 632 686 Z" class="stroke7"/>
    <path d="M 599 550 Q 611 502 533 404 Q 511 379 457 326 Q 450 322 459 319 Q 543 337 658 498 Q 665 507 668 510 Q 675 514 673 523 Q 672 532 661 542 Q 633 567 605 563 Q 598 562 599 550 Z" class="stroke8"/>
    <path d="M 643 429 Q 649 333 453 174 Q 446 170 455 167 Q 501 167 604 260 Q 605 263 609 265 Q 658 325 710 385 Q 717 389 716 398 Q 713 422 677 436 Q 659 443 650 442 Q 643 441 643 429 Z" class="stroke9"/>
    <path d="M 702 309 Q 705 228 564 89 Q 560 88 558 84 Q 516 45 415 -28 Q 405 -32 416 -36 Q 491 -36 629 82 Q 632 86 636 89 Q 685 135 765 231 Q 775 244 783 249 Q 792 253 791 265 Q 790 275 778 290 Q 747 329 711 324 Q 701 323 702 309 Z" class="stroke10"/>
    
    
    
    
    
    
    
    
    
    </g>
</svg>