<svg version="1.1" viewBox="0 0 1024 1024" xmlns="http://www.w3.org/2000/svg">
  
  <g transform="scale(1, -1) translate(0, -900)">
    <style type="text/css">
        .stroke1 {fill: #808080;}
        .stroke2 {fill: #808079;}
        .stroke3 {fill: #808078;}
        .stroke4 {fill: #808077;}
        .stroke5 {fill: #808076;}
        .stroke6 {fill: #808075;}
        .stroke7 {fill: #808074;}
        .stroke8 {fill: #808073;}
        .stroke9 {fill: #808072;}
        .stroke10 {fill: #808071;}
        .stroke11 {fill: #808070;}
        .stroke12 {fill: #808069;}
        .stroke13 {fill: #808068;}
        .stroke14 {fill: #808067;}
        .stroke15 {fill: #808066;}
        .stroke16 {fill: #808065;}
        .stroke17 {fill: #808064;}
        .stroke18 {fill: #808063;}
        .stroke19 {fill: #808062;}
        .stroke20 {fill: #808061;}
        text {
            font-family: Helvetica;
            font-size: 50px;
            fill: #808060;
            paint-order: stroke;
            stroke: #000000;
            stroke-width: 4px;
            stroke-linecap: butt;
            stroke-linejoin: miter;
            font-weight: 800;
        }
    </style>

    <path d="M 339 776 Q 326 780 298 784 Q 285 787 281 781 Q 274 774 285 757 Q 322 685 347 567 Q 351 531 374 508 Q 395 484 399 502 Q 400 509 402 520 L 401 552 Q 400 565 396 581 Q 368 702 361 741 C 355 770 355 772 339 776 Z" class="stroke1"/>
    <path d="M 615 553 Q 631 525 648 517 Q 658 507 677 530 Q 693 555 733 696 Q 743 729 770 755 Q 785 768 773 783 Q 757 802 712 832 Q 690 842 674 838 Q 640 828 588 820 Q 524 810 443 795 Q 386 785 339 776 C 310 770 332 734 361 741 Q 410 754 478 767 L 520 774 Q 646 798 670 783 Q 685 771 679 750 Q 645 597 624 584 C 609 562 609 562 615 553 Z" class="stroke2"/>
    <path d="M 535 654 Q 571 661 603 665 Q 625 669 617 681 Q 607 694 583 699 Q 564 702 536 694 L 489 680 Q 449 670 415 660 Q 399 656 418 643 Q 427 636 446 639 L 490 647 L 535 654 Z" class="stroke3"/>
    <path d="M 532 579 Q 533 619 535 654 L 536 694 Q 536 715 538 736 Q 545 758 520 774 C 496 791 466 794 478 767 Q 485 760 489 680 L 490 647 Q 490 616 492 570 C 493 540 531 549 532 579 Z" class="stroke4"/>
    <path d="M 402 520 Q 408 520 416 521 Q 480 537 615 553 C 645 557 648 565 624 584 Q 621 587 616 590 Q 594 602 532 579 L 492 570 Q 443 560 401 552 C 372 546 372 519 402 520 Z" class="stroke5"/>
    <path d="M 644 387 Q 711 394 768 399 Q 778 398 787 410 Q 788 422 767 433 Q 733 457 665 437 Q 662 437 662 436 L 588 421 Q 569 418 553 415 Q 483 402 419 394 L 362 389 Q 307 386 250 380 Q 222 379 242 360 Q 252 350 267 341 Q 280 332 302 338 Q 335 344 371 349 L 420 357 Q 495 370 584 380 L 644 387 Z" class="stroke6"/>
    <path d="M 419 394 Q 419 433 407 442 Q 385 458 358 465 Q 345 469 337 463 Q 330 456 337 442 Q 353 417 362 389 L 371 349 Q 378 312 390 241 C 395 211 433 215 430 245 Q 421 350 420 357 L 419 394 Z" class="stroke7"/>
    <path d="M 609 265 Q 627 329 644 387 L 662 436 Q 666 445 671 451 Q 675 461 660 478 Q 632 502 609 510 Q 596 516 586 509 Q 577 503 583 488 Q 593 466 592 451 Q 591 438 588 421 L 584 380 Q 575 325 564 260 C 559 230 601 236 609 265 Z" class="stroke8"/>
    <path d="M 390 241 Q 330 237 281 228 Q 181 213 106 214 Q 93 214 92 203 Q 91 191 109 178 Q 151 148 183 158 Q 297 203 653 232 Q 764 239 910 224 Q 932 221 938 229 Q 945 242 934 253 Q 906 280 864 299 Q 851 305 826 297 Q 783 284 721 277 Q 663 273 609 265 L 564 260 Q 492 254 430 245 L 390 241 Z" class="stroke9"/>
    <path d="M 387 155 Q 371 92 219 -19 Q 194 -34 224 -32 Q 281 -35 413 66 Q 414 72 464 109 Q 477 121 475 132 Q 474 147 445 158 Q 414 173 400 170 Q 391 169 387 155 Z" class="stroke10"/>
    <path d="M 594 129 Q 652 74 720 -6 Q 738 -30 755 -35 Q 765 -36 773 -25 Q 788 -10 775 39 Q 760 106 596 164 Q 586 171 583 156 Q 582 141 594 129 Z" class="stroke11"/>
    
    
    
    
    
    
    
    
    
    
    </g>
</svg>