<svg version="1.1" viewBox="0 0 1024 1024" xmlns="http://www.w3.org/2000/svg">
  
  <g transform="scale(1, -1) translate(0, -900)">
    <style type="text/css">
        .stroke1 {fill: #808080;}
        .stroke2 {fill: #808079;}
        .stroke3 {fill: #808078;}
        .stroke4 {fill: #808077;}
        .stroke5 {fill: #808076;}
        .stroke6 {fill: #808075;}
        .stroke7 {fill: #808074;}
        .stroke8 {fill: #808073;}
        .stroke9 {fill: #808072;}
        .stroke10 {fill: #808071;}
        .stroke11 {fill: #808070;}
        .stroke12 {fill: #808069;}
        .stroke13 {fill: #808068;}
        .stroke14 {fill: #808067;}
        .stroke15 {fill: #808066;}
        .stroke16 {fill: #808065;}
        .stroke17 {fill: #808064;}
        .stroke18 {fill: #808063;}
        .stroke19 {fill: #808062;}
        .stroke20 {fill: #808061;}
        text {
            font-family: Helvetica;
            font-size: 50px;
            fill: #808060;
            paint-order: stroke;
            stroke: #000000;
            stroke-width: 4px;
            stroke-linecap: butt;
            stroke-linejoin: miter;
            font-weight: 800;
        }
    </style>

    <path d="M 523 792 Q 548 770 577 742 Q 593 727 611 728 Q 623 729 628 745 Q 634 761 623 795 Q 611 826 517 847 Q 499 851 492 847 Q 486 843 488 828 Q 492 815 523 792 Z" class="stroke1"/>
    <path d="M 361 603 Q 401 597 479 607 Q 776 662 796 668 Q 802 671 806 673 Q 816 682 811 691 Q 804 704 773 713 Q 746 719 645 690 Q 488 651 354 639 C 324 636 331 606 361 603 Z" class="stroke2"/>
    <path d="M 270 359 Q 242 220 155 75 Q 113 6 112 2 Q 109 -8 120 -7 Q 150 -1 229 115 Q 245 142 261 173 Q 319 302 349 528 Q 352 570 361 603 C 367 629 367 629 354 639 Q 306 678 283 670 Q 270 663 277 648 Q 296 612 293 565 Q 292 550 291 530 Q 287 458 276 395 L 270 359 Z" class="stroke3"/>
    <path d="M 163 541 Q 182 517 202 490 Q 212 475 228 474 Q 238 473 245 485 Q 252 498 247 528 Q 244 546 220 562 Q 159 595 144 591 Q 140 588 139 575 Q 140 565 163 541 Z" class="stroke4"/>
    <path d="M 276 395 Q 98 311 66 309 Q 54 305 54 296 Q 54 283 64 277 Q 88 265 121 252 Q 131 251 142 260 Q 167 290 270 359 C 295 376 303 408 276 395 Z" class="stroke5"/>
    <path d="M 573 448 Q 613 461 784 468 Q 835 468 841 479 Q 847 492 829 505 Q 765 545 710 525 Q 559 491 392 460 Q 370 456 387 439 Q 415 415 473 426 Q 500 435 529 440 L 573 448 Z" class="stroke6"/>
    <path d="M 575 338 Q 593 328 655 319 Q 680 315 690 300 Q 703 269 646 142 Q 618 84 591 76 Q 579 72 537 89 Q 500 108 494 102 Q 487 93 505 80 Q 545 40 553 2 Q 557 -16 568 -23 Q 581 -30 618 -9 Q 676 30 725 180 Q 746 256 770 270 Q 782 276 784 285 Q 785 295 761 321 Q 731 352 671 353 Q 635 356 592 369 C 563 377 547 349 575 338 Z" class="stroke7"/>
    <path d="M 592 369 Q 602 390 611 399 Q 618 405 615 415 Q 608 436 573 448 C 545 459 522 468 529 440 Q 529 439 530 437 Q 549 370 451 222 Q 448 221 447 217 Q 419 177 344 95 Q 337 89 347 88 Q 410 104 503 221 Q 507 228 513 235 Q 538 272 575 338 L 592 369 Z" class="stroke8"/>
    
    
    
    
    
    
    
    </g>
</svg>