<svg version="1.1" viewBox="0 0 1024 1024" xmlns="http://www.w3.org/2000/svg">
  
  <g transform="scale(1, -1) translate(0, -900)">
    <style type="text/css">
        .stroke1 {fill: #808080;}
        .stroke2 {fill: #808079;}
        .stroke3 {fill: #808078;}
        .stroke4 {fill: #808077;}
        .stroke5 {fill: #808076;}
        .stroke6 {fill: #808075;}
        .stroke7 {fill: #808074;}
        .stroke8 {fill: #808073;}
        .stroke9 {fill: #808072;}
        .stroke10 {fill: #808071;}
        .stroke11 {fill: #808070;}
        .stroke12 {fill: #808069;}
        .stroke13 {fill: #808068;}
        .stroke14 {fill: #808067;}
        .stroke15 {fill: #808066;}
        .stroke16 {fill: #808065;}
        .stroke17 {fill: #808064;}
        .stroke18 {fill: #808063;}
        .stroke19 {fill: #808062;}
        .stroke20 {fill: #808061;}
        text {
            font-family: Helvetica;
            font-size: 50px;
            fill: #808060;
            paint-order: stroke;
            stroke: #000000;
            stroke-width: 4px;
            stroke-linecap: butt;
            stroke-linejoin: miter;
            font-weight: 800;
        }
    </style>

    <path d="M 529 788 Q 554 769 579 747 Q 595 734 612 736 Q 624 737 629 752 Q 633 768 620 801 Q 610 828 520 840 Q 502 843 496 839 Q 490 835 493 821 Q 499 808 529 788 Z" class="stroke1"/>
    <path d="M 384 627 Q 397 624 552 648 Q 780 693 796 701 Q 796 702 798 702 Q 807 709 802 717 Q 796 727 770 736 Q 740 742 664 716 Q 505 676 373 661 C 343 657 354 627 384 627 Z" class="stroke2"/>
    <path d="M 314 390 Q 314 282 229 135 Q 183 69 120 16 Q 105 3 102 -4 Q 101 -11 112 -10 Q 128 -10 149 4 Q 204 41 238 77 Q 331 179 357 344 Q 375 447 380 600 Q 383 616 384 627 C 388 653 388 653 373 661 Q 372 662 371 663 Q 322 688 307 685 Q 286 682 302 659 Q 323 625 323 577 Q 326 525 317 425 L 314 390 Z" class="stroke3"/>
    <path d="M 166 554 Q 197 503 233 478 Q 248 474 259 485 Q 266 498 267 515 Q 260 558 184 591 Q 168 598 158 596 Q 152 595 153 583 Q 153 570 166 554 Z" class="stroke4"/>
    <path d="M 317 425 Q 131 299 84 284 Q 72 280 73 269 Q 74 257 86 252 Q 111 243 146 235 Q 156 235 165 246 Q 183 273 310 387 Q 311 390 314 390 C 337 409 342 442 317 425 Z" class="stroke5"/>
    <path d="M 505 575 Q 480 587 466 580 Q 456 576 462 565 Q 481 535 473 463 Q 461 396 416 359 Q 406 349 394 339 Q 384 332 394 330 Q 457 339 499 411 Q 503 423 508 432 Q 518 459 525 516 Q 525 531 532 546 C 538 561 533 563 505 575 Z" class="stroke6"/>
    <path d="M 851 418 Q 864 424 856 438 Q 841 454 825 463 Q 813 469 792 459 Q 758 440 712 439 Q 682 438 673 459 Q 666 475 676 518 Q 680 545 709 570 Q 725 585 709 597 Q 687 616 663 626 Q 653 630 638 621 Q 586 596 505 575 C 476 567 506 532 532 546 Q 535 552 616 578 Q 623 582 628 580 Q 635 577 635 565 Q 626 463 630 448 Q 637 423 660 409 Q 694 391 757 395 Q 820 399 851 418 Z" class="stroke7"/>
    <path d="M 625 142 Q 664 194 690 271 Q 699 302 718 318 Q 733 331 717 346 Q 698 362 669 375 Q 650 382 629 373 Q 571 342 488 330 Q 463 327 453 321 Q 444 314 462 306 Q 487 293 523 306 Q 572 318 622 330 Q 638 337 639 319 Q 639 247 586 170 L 560 138 Q 551 131 543 121 Q 486 75 341 37 Q 326 34 335 26 Q 342 20 369 22 Q 463 31 519 54 Q 559 73 593 105 L 625 142 Z" class="stroke8"/>
    <path d="M 593 105 Q 719 -21 767 -23 Q 840 -23 929 -2 Q 966 5 962 16 Q 961 20 924 30 Q 894 37 862 43 Q 705 85 636 135 Q 630 139 625 142 L 586 170 Q 549 200 511 234 Q 471 271 436 268 Q 418 268 416 262 Q 415 255 431 246 Q 479 219 560 138 L 593 105 Z" class="stroke9"/>
    
    
    
    
    
    
    
    
    </g>
</svg>