<svg version="1.1" viewBox="0 0 1024 1024" xmlns="http://www.w3.org/2000/svg">
  
  <g transform="scale(1, -1) translate(0, -900)">
    <style type="text/css">
        .stroke1 {fill: #808080;}
        .stroke2 {fill: #808079;}
        .stroke3 {fill: #808078;}
        .stroke4 {fill: #808077;}
        .stroke5 {fill: #808076;}
        .stroke6 {fill: #808075;}
        .stroke7 {fill: #808074;}
        .stroke8 {fill: #808073;}
        .stroke9 {fill: #808072;}
        .stroke10 {fill: #808071;}
        .stroke11 {fill: #808070;}
        .stroke12 {fill: #808069;}
        .stroke13 {fill: #808068;}
        .stroke14 {fill: #808067;}
        .stroke15 {fill: #808066;}
        .stroke16 {fill: #808065;}
        .stroke17 {fill: #808064;}
        .stroke18 {fill: #808063;}
        .stroke19 {fill: #808062;}
        .stroke20 {fill: #808061;}
        text {
            font-family: Helvetica;
            font-size: 50px;
            fill: #808060;
            paint-order: stroke;
            stroke: #000000;
            stroke-width: 4px;
            stroke-linecap: butt;
            stroke-linejoin: miter;
            font-weight: 800;
        }
    </style>

    <path d="M 516 784 Q 544 762 573 733 Q 589 720 607 720 Q 619 721 624 736 Q 630 754 618 787 Q 606 818 509 839 Q 491 843 484 839 Q 478 835 480 820 Q 484 807 516 784 Z" class="stroke1"/>
    <path d="M 362 603 Q 411 594 441 598 Q 442 599 446 599 Q 788 653 809 668 Q 819 677 815 686 Q 808 699 775 710 Q 745 716 634 685 Q 501 652 353 641 C 323 639 332 608 362 603 Z" class="stroke2"/>
    <path d="M 277 365 Q 252 212 139 27 Q 133 20 132 14 Q 129 4 140 6 Q 174 12 255 144 Q 264 163 274 183 Q 332 327 353 539 Q 356 585 362 603 C 368 631 368 631 353 641 Q 304 677 282 668 Q 270 661 277 647 Q 295 628 295 554 Q 294 544 294 532 Q 291 462 283 400 L 277 365 Z" class="stroke3"/>
    <path d="M 146 544 Q 165 520 186 491 Q 196 476 212 474 Q 222 473 229 485 Q 236 498 232 528 Q 231 547 204 564 Q 140 597 128 595 Q 124 592 122 580 Q 123 568 146 544 Z" class="stroke4"/>
    <path d="M 283 400 Q 91 319 60 317 Q 48 314 47 304 Q 47 291 57 285 Q 79 272 113 258 Q 123 257 134 266 Q 165 299 277 365 C 303 380 311 412 283 400 Z" class="stroke5"/>
    <path d="M 715 486 Q 760 490 815 492 Q 870 492 877 503 Q 881 516 864 529 Q 806 569 742 550 Q 634 523 376 480 Q 354 476 371 459 Q 405 431 453 445 Q 544 473 658 482 L 715 486 Z" class="stroke6"/>
    <path d="M 442 346 Q 433 352 408 357 Q 398 360 394 356 Q 390 350 396 337 Q 415 294 425 225 Q 426 204 439 190 Q 452 171 458 184 Q 461 193 462 206 L 460 234 Q 453 303 452 323 C 451 341 451 341 442 346 Z" class="stroke7"/>
    <path d="M 583 253 Q 593 311 609 329 Q 628 351 607 362 Q 591 371 567 384 Q 551 393 536 382 Q 509 364 442 346 C 413 338 423 314 452 323 Q 458 326 521 340 Q 539 344 543 337 Q 549 331 539 256 C 535 226 578 223 583 253 Z" class="stroke8"/>
    <path d="M 462 206 Q 469 205 481 207 Q 517 217 595 225 Q 604 226 605 234 Q 605 241 583 253 L 539 256 Q 538 256 537 256 Q 495 243 460 234 C 431 226 432 208 462 206 Z" class="stroke9"/>
    <path d="M 631 56 Q 603 63 568 69 Q 556 70 557 64 Q 558 57 569 48 Q 644 -1 691 -40 Q 703 -49 716 -32 Q 753 20 746 101 Q 731 285 737 431 Q 741 459 736 469 Q 730 476 715 486 C 691 504 650 511 658 482 Q 673 437 677 351 Q 684 89 679 65 Q 676 61 674 56 Q 662 49 631 56 Z" class="stroke10"/>
    
    
    
    
    
    
    
    
    
    </g>
</svg>