<svg version="1.1" viewBox="0 0 1024 1024" xmlns="http://www.w3.org/2000/svg">
  
  <g transform="scale(1, -1) translate(0, -900)">
    <style type="text/css">
        .stroke1 {fill: #808080;}
        .stroke2 {fill: #808079;}
        .stroke3 {fill: #808078;}
        .stroke4 {fill: #808077;}
        .stroke5 {fill: #808076;}
        .stroke6 {fill: #808075;}
        .stroke7 {fill: #808074;}
        .stroke8 {fill: #808073;}
        .stroke9 {fill: #808072;}
        .stroke10 {fill: #808071;}
        .stroke11 {fill: #808070;}
        .stroke12 {fill: #808069;}
        .stroke13 {fill: #808068;}
        .stroke14 {fill: #808067;}
        .stroke15 {fill: #808066;}
        .stroke16 {fill: #808065;}
        .stroke17 {fill: #808064;}
        .stroke18 {fill: #808063;}
        .stroke19 {fill: #808062;}
        .stroke20 {fill: #808061;}
        text {
            font-family: Helvetica;
            font-size: 50px;
            fill: #808060;
            paint-order: stroke;
            stroke: #000000;
            stroke-width: 4px;
            stroke-linecap: butt;
            stroke-linejoin: miter;
            font-weight: 800;
        }
    </style>

    <path d="M 528 789 Q 558 770 590 748 Q 606 738 620 741 Q 630 742 633 756 Q 634 771 622 798 Q 613 816 582 825 Q 507 840 495 831 Q 491 827 495 815 Q 499 805 528 789 Z" class="stroke1"/>
    <path d="M 369 650 Q 408 635 473 644 Q 782 689 799 698 Q 799 699 801 699 Q 811 706 806 716 Q 800 729 771 738 Q 740 745 709 736 Q 556 691 368 681 Q 361 681 359 679 C 329 674 340 659 369 650 Z" class="stroke2"/>
    <path d="M 271 364 Q 238 223 127 39 Q 121 32 120 26 Q 117 16 128 17 Q 155 20 237 142 Q 253 170 269 202 Q 335 353 352 539 Q 358 630 369 650 C 374 667 374 667 359 679 Q 311 718 286 709 Q 274 702 281 688 Q 299 664 299 603 Q 283 423 280 408 L 271 364 Z" class="stroke3"/>
    <path d="M 152 552 Q 206 485 232 481 Q 245 480 253 499 Q 254 512 245 534 Q 224 567 157 580 Q 147 581 146 570 Q 145 561 152 552 Z" class="stroke4"/>
    <path d="M 280 408 Q 105 294 70 284 Q 58 280 59 268 Q 60 255 73 249 Q 101 240 139 232 Q 149 232 159 244 Q 175 269 271 364 C 292 385 305 424 280 408 Z" class="stroke5"/>
    <path d="M 529 495 Q 574 507 646 509 L 691 513 Q 754 520 825 516 Q 838 515 843 524 Q 847 534 836 547 Q 793 583 712 562 L 655 551 Q 594 541 526 531 L 483 525 Q 434 519 385 512 Q 358 508 377 495 Q 414 471 475 484 Q 482 487 494 487 L 529 495 Z" class="stroke6"/>
    <path d="M 494 487 Q 503 447 516 434 Q 528 425 531 435 Q 534 447 529 495 L 526 531 Q 523 553 522 572 Q 523 588 506 593 Q 472 608 454 601 Q 438 594 452 578 Q 473 553 483 525 L 494 487 Z" class="stroke7"/>
    <path d="M 646 509 Q 633 469 635 443 Q 636 430 651 440 Q 660 449 691 513 L 712 562 Q 718 575 729 592 Q 742 607 732 616 Q 720 632 688 647 Q 673 656 657 647 Q 647 643 655 631 Q 664 609 655 551 L 646 509 Z" class="stroke8"/>
    <path d="M 418 377 Q 406 402 393 413 Q 390 417 385 414 Q 379 411 378 401 Q 379 380 352 325 Q 342 312 341 294 Q 342 276 349 262 Q 356 250 361 258 Q 367 258 376 272 Q 380 276 389 297 Q 405 333 414 345 Q 417 349 419 353 C 425 363 425 363 418 377 Z" class="stroke9"/>
    <path d="M 419 353 Q 437 343 478 350 Q 571 383 741 399 Q 751 400 758 399 Q 774 386 771 377 Q 772 373 759 317 Q 755 304 761 301 Q 768 298 781 311 Q 823 345 859 360 Q 887 373 887 380 Q 886 389 819 429 Q 798 441 706 424 Q 625 414 498 390 Q 459 383 419 378 Q 418 378 418 377 C 389 372 390 362 419 353 Z" class="stroke10"/>
    <path d="M 575 207 Q 627 219 675 223 Q 699 226 703 219 Q 710 207 705 177 Q 695 95 675 59 Q 657 29 631 35 Q 603 47 579 59 Q 555 69 570 44 Q 613 -5 633 -43 Q 648 -62 665 -49 Q 719 -18 753 110 Q 771 195 788 215 Q 801 228 796 239 Q 787 251 734 277 Q 712 287 692 274 Q 668 261 585 243 L 531 232 Q 452 219 383 215 Q 364 215 361 206 Q 358 197 384 184 Q 409 166 431 174 Q 477 187 521 195 L 575 207 Z" class="stroke11"/>
    <path d="M 521 195 Q 485 90 366 -36 Q 359 -43 366 -46 Q 373 -47 382 -42 Q 434 -12 475 31 Q 536 91 575 207 L 585 243 Q 586 246 587 249 Q 594 273 605 297 Q 611 306 605 315 Q 598 324 569 335 Q 548 344 539 341 Q 529 337 531 323 Q 540 280 531 232 L 521 195 Z" class="stroke12"/>
    
    
    
    
    
    
    
    
    
    
    
    </g>
</svg>