<svg version="1.1" viewBox="0 0 1024 1024" xmlns="http://www.w3.org/2000/svg">
  
  <g transform="scale(1, -1) translate(0, -900)">
    <style type="text/css">
        .stroke1 {fill: #808080;}
        .stroke2 {fill: #808079;}
        .stroke3 {fill: #808078;}
        .stroke4 {fill: #808077;}
        .stroke5 {fill: #808076;}
        .stroke6 {fill: #808075;}
        .stroke7 {fill: #808074;}
        .stroke8 {fill: #808073;}
        .stroke9 {fill: #808072;}
        .stroke10 {fill: #808071;}
        .stroke11 {fill: #808070;}
        .stroke12 {fill: #808069;}
        .stroke13 {fill: #808068;}
        .stroke14 {fill: #808067;}
        .stroke15 {fill: #808066;}
        .stroke16 {fill: #808065;}
        .stroke17 {fill: #808064;}
        .stroke18 {fill: #808063;}
        .stroke19 {fill: #808062;}
        .stroke20 {fill: #808061;}
        text {
            font-family: Helvetica;
            font-size: 50px;
            fill: #808060;
            paint-order: stroke;
            stroke: #000000;
            stroke-width: 4px;
            stroke-linecap: butt;
            stroke-linejoin: miter;
            font-weight: 800;
        }
    </style>

    <path d="M 531 821 Q 553 803 577 780 Q 593 767 609 769 Q 619 770 625 784 Q 629 800 618 831 Q 606 859 523 871 Q 507 875 500 871 Q 494 867 497 853 Q 501 843 531 821 Z" class="stroke1"/>
    <path d="M 560 684 Q 630 696 704 706 Q 771 718 781 726 Q 790 733 786 741 Q 780 753 754 761 Q 729 768 637 742 Q 475 708 342 701 Q 341 701 340 700 C 310 696 327 673 357 668 Q 381 661 460 671 Q 488 675 521 679 L 560 684 Z" class="stroke2"/>
    <path d="M 340 700 Q 298 733 274 725 Q 262 718 269 704 Q 290 673 287 612 Q 274 447 267 412 L 261 383 Q 221 197 95 3 Q 91 -4 88 -10 Q 85 -20 96 -19 Q 132 -13 219 125 Q 232 152 247 180 Q 280 255 307 359 L 310 372 Q 319 414 346 619 Q 349 646 357 668 C 362 685 362 685 340 700 Z" class="stroke3"/>
    <path d="M 140 549 Q 192 485 208 482 Q 218 481 225 493 Q 231 506 226 536 Q 223 554 197 571 Q 137 604 120 599 Q 116 596 115 583 Q 116 573 140 549 Z" class="stroke4"/>
    <path d="M 267 412 Q 266 413 263 412 Q 98 319 59 313 Q 47 309 48 299 Q 48 286 59 280 Q 84 270 118 260 Q 128 259 137 270 Q 149 285 249 372 Q 256 378 261 383 C 283 404 296 420 267 412 Z" class="stroke5"/>
    <path d="M 446 459 Q 500 513 548 586 Q 561 608 572 621 C 584 637 584 637 584 638 Q 587 656 560 684 C 540 706 514 708 521 679 Q 522 678 524 674 Q 528 622 426 491 Q 423 490 421 485 Q 373 428 311 373 Q 310 373 310 372 C 292 356 292 356 307 359 Q 337 359 437 450 L 446 459 Z" class="stroke6"/>
    <path d="M 572 621 Q 767 426 789 416 Q 843 398 955 426 Q 973 429 974 434 Q 975 440 962 445 Q 799 497 772 511 Q 676 566 640 594 Q 603 625 584 638 C 560 656 551 642 572 621 Z" class="stroke7"/>
    <path d="M 545 535 Q 584 483 602 479 Q 612 478 617 490 Q 618 500 613 515 Q 606 528 588 536 Q 561 552 549 554 Q 542 555 541 548 Q 540 542 545 535 Z" class="stroke8"/>
    <path d="M 632 256 Q 642 243 653 238 Q 662 232 674 250 Q 686 269 709 377 Q 715 402 733 423 Q 743 433 734 444 Q 721 457 686 477 Q 670 484 658 479 Q 640 472 613 464 Q 580 454 538 442 Q 517 436 501 430 C 473 420 476 391 504 402 Q 550 421 632 441 Q 648 445 658 440 Q 668 433 666 416 Q 647 299 630 287 C 618 271 618 271 632 256 Z" class="stroke9"/>
    <path d="M 486 320 Q 504 326 609 342 Q 630 346 621 357 Q 611 370 589 373 Q 559 376 491 347 C 463 335 457 312 486 320 Z" class="stroke10"/>
    <path d="M 467 239 Q 474 236 493 237 Q 536 249 632 256 C 662 258 654 270 630 287 Q 629 288 626 290 Q 611 297 585 291 Q 524 275 474 265 C 445 259 438 247 467 239 Z" class="stroke11"/>
    <path d="M 443 171 Q 450 192 460 214 Q 463 227 467 239 L 474 265 Q 480 293 486 320 L 491 347 Q 495 363 498 378 Q 499 390 504 402 C 510 422 510 422 501 430 Q 489 442 470 452 Q 455 462 446 459 C 433 461 433 461 437 450 Q 437 447 439 442 Q 467 393 409 193 Q 364 97 311 17 Q 307 13 304 7 Q 303 0 311 0 Q 350 12 413 110 Q 416 120 430 142 L 443 171 Z" class="stroke12"/>
    <path d="M 479 161 Q 469 168 443 171 C 415 175 418 169 430 142 Q 454 90 467 7 Q 470 -20 486 -38 Q 502 -57 506 -43 Q 510 -30 509 -5 L 505 26 Q 492 102 488 130 C 484 158 484 158 479 161 Z" class="stroke13"/>
    <path d="M 724 44 Q 751 108 781 127 Q 799 145 785 163 Q 710 223 653 195 Q 568 173 479 161 C 449 157 458 126 488 130 Q 557 139 662 157 Q 681 161 689 152 Q 696 145 694 128 Q 684 86 673 52 C 664 23 712 17 724 44 Z" class="stroke14"/>
    <path d="M 509 -5 L 511 -6 Q 521 -9 535 -6 Q 598 4 734 10 Q 744 11 747 20 Q 747 27 724 44 L 673 52 L 671 52 Q 578 33 505 26 C 475 23 480 3 509 -5 Z" class="stroke15"/>
    
    
    
    
    
    
    
    
    
    
    
    
    
    
    </g>
</svg>