<svg version="1.1" viewBox="0 0 1024 1024" xmlns="http://www.w3.org/2000/svg">
  
  <g transform="scale(1, -1) translate(0, -900)">
    <style type="text/css">
        .stroke1 {fill: #808080;}
        .stroke2 {fill: #808079;}
        .stroke3 {fill: #808078;}
        .stroke4 {fill: #808077;}
        .stroke5 {fill: #808076;}
        .stroke6 {fill: #808075;}
        .stroke7 {fill: #808074;}
        .stroke8 {fill: #808073;}
        .stroke9 {fill: #808072;}
        .stroke10 {fill: #808071;}
        .stroke11 {fill: #808070;}
        .stroke12 {fill: #808069;}
        .stroke13 {fill: #808068;}
        .stroke14 {fill: #808067;}
        .stroke15 {fill: #808066;}
        .stroke16 {fill: #808065;}
        .stroke17 {fill: #808064;}
        .stroke18 {fill: #808063;}
        .stroke19 {fill: #808062;}
        .stroke20 {fill: #808061;}
        text {
            font-family: Helvetica;
            font-size: 50px;
            fill: #808060;
            paint-order: stroke;
            stroke: #000000;
            stroke-width: 4px;
            stroke-linecap: butt;
            stroke-linejoin: miter;
            font-weight: 800;
        }
    </style>

    <path d="M 519 798 Q 544 779 569 755 Q 585 743 601 745 Q 613 746 617 760 Q 621 776 609 807 Q 597 835 511 848 Q 495 851 488 847 Q 482 843 485 829 Q 489 819 519 798 Z" class="stroke1"/>
    <path d="M 358 655 Q 401 640 459 648 Q 772 691 795 704 Q 795 705 797 705 Q 806 712 802 720 Q 796 733 768 741 Q 741 748 607 713 Q 451 688 359 683 Q 352 683 350 681 C 320 676 329 664 358 655 Z" class="stroke2"/>
    <path d="M 262 342 Q 229 200 126 27 Q 122 20 119 14 Q 118 4 128 6 Q 161 12 241 145 Q 254 170 267 197 Q 325 341 346 579 Q 349 639 358 655 C 363 671 363 671 350 681 Q 334 696 307 707 Q 288 717 274 712 Q 262 705 269 690 Q 288 663 289 596 Q 288 583 288 568 Q 287 502 270 383 L 262 342 Z" class="stroke3"/>
    <path d="M 144 538 Q 165 513 186 488 Q 205 469 223 469 Q 238 468 245 487 Q 246 502 237 524 Q 227 540 203 549 Q 166 565 150 568 Q 140 569 138 557 Q 137 548 144 538 Z" class="stroke4"/>
    <path d="M 270 383 Q 99 301 65 297 Q 52 293 52 282 Q 52 269 63 262 Q 90 249 126 237 Q 138 236 148 246 Q 164 267 262 342 C 286 360 297 396 270 383 Z" class="stroke5"/>
    <path d="M 647 591 Q 647 592 649 592 Q 695 599 733 604 Q 742 603 749 614 Q 750 624 731 632 Q 704 653 602 620 Q 598 620 596 619 Q 548 609 431 593 Q 407 589 426 575 Q 456 554 478 559 Q 479 560 483 560 L 515 566 Q 555 576 603 583 L 647 591 Z" class="stroke6"/>
    <path d="M 416 488 Q 406 492 378 495 Q 368 498 364 493 Q 360 487 368 473 Q 393 430 411 357 Q 415 335 429 321 Q 445 303 450 317 Q 453 327 451 343 L 446 372 Q 434 433 430 457 C 425 485 425 485 416 488 Z" class="stroke7"/>
    <path d="M 714 372 Q 727 350 740 342 Q 750 335 765 353 Q 775 363 800 426 Q 810 454 832 476 Q 845 486 835 500 Q 822 516 783 543 Q 765 552 750 547 Q 713 538 666 530 Q 662 530 661 529 L 614 521 Q 581 517 547 510 L 504 502 Q 455 495 416 488 C 386 483 401 449 430 457 Q 464 467 508 476 L 546 483 Q 577 490 613 495 L 656 502 Q 675 506 698 509 Q 735 515 748 501 Q 754 494 753 485 Q 737 415 725 402 C 711 377 711 377 714 372 Z" class="stroke8"/>
    <path d="M 483 560 Q 495 548 504 502 L 508 476 Q 511 445 516 380 C 518 350 547 355 547 385 Q 547 421 546 483 L 547 510 Q 547 544 540 552 Q 528 561 515 566 C 487 578 465 584 483 560 Z" class="stroke9"/>
    <path d="M 661 529 Q 661 535 673 563 Q 676 570 662 582 Q 655 588 647 591 C 620 604 589 610 603 583 Q 613 565 614 553 Q 614 538 614 521 L 613 495 Q 612 449 607 395 C 604 365 636 372 640 402 Q 647 454 656 502 L 661 529 Z" class="stroke10"/>
    <path d="M 451 343 Q 458 342 468 344 Q 547 362 714 372 C 744 374 749 385 725 402 Q 721 405 718 407 Q 700 419 640 402 L 607 395 Q 576 391 547 385 L 516 380 Q 479 377 446 372 C 416 368 421 343 451 343 Z" class="stroke11"/>
    <path d="M 465 294 Q 431 288 455 273 Q 485 254 560 265 Q 612 274 669 284 Q 697 290 702 294 Q 711 301 707 309 Q 700 319 674 327 Q 646 333 619 323 Q 586 313 550 304 Q 511 297 465 294 Z" class="stroke12"/>
    <path d="M 601 183 Q 658 189 859 189 Q 878 189 883 198 Q 887 208 872 222 Q 823 261 786 252 Q 669 228 324 185 Q 305 184 319 167 Q 332 154 350 148 Q 369 144 386 147 Q 467 168 559 178 L 601 183 Z" class="stroke13"/>
    <path d="M 559 178 Q 568 144 565 46 Q 564 36 562 34 Q 558 21 533 24 Q 508 30 479 34 Q 469 35 467 29 Q 466 23 476 14 Q 537 -34 559 -63 Q 574 -76 584 -73 Q 594 -69 606 -38 Q 622 -7 620 51 Q 617 100 618 117 Q 627 156 610 175 Q 606 179 601 183 C 578 203 553 207 559 178 Z" class="stroke14"/>
    <path d="M 412 123 Q 385 83 352 49 Q 330 24 340 -11 Q 344 -27 365 -20 Q 414 7 427 67 Q 437 95 434 120 Q 431 127 425 130 Q 418 130 412 123 Z" class="stroke15"/>
    <path d="M 699 107 Q 736 67 782 11 Q 795 -8 810 -13 Q 817 -14 825 -6 Q 837 6 827 46 Q 821 85 760 111 Q 723 127 701 135 Q 694 141 691 129 Q 690 117 699 107 Z" class="stroke16"/>
    
    
    
    
    
    
    
    
    
    
    
    
    
    
    
    </g>
</svg>