<svg version="1.1" viewBox="0 0 1024 1024" xmlns="http://www.w3.org/2000/svg">
  
  <g transform="scale(1, -1) translate(0, -900)">
    <style type="text/css">
        .stroke1 {fill: #808080;}
        .stroke2 {fill: #808079;}
        .stroke3 {fill: #808078;}
        .stroke4 {fill: #808077;}
        .stroke5 {fill: #808076;}
        .stroke6 {fill: #808075;}
        .stroke7 {fill: #808074;}
        .stroke8 {fill: #808073;}
        .stroke9 {fill: #808072;}
        .stroke10 {fill: #808071;}
        .stroke11 {fill: #808070;}
        .stroke12 {fill: #808069;}
        .stroke13 {fill: #808068;}
        .stroke14 {fill: #808067;}
        .stroke15 {fill: #808066;}
        .stroke16 {fill: #808065;}
        .stroke17 {fill: #808064;}
        .stroke18 {fill: #808063;}
        .stroke19 {fill: #808062;}
        .stroke20 {fill: #808061;}
        text {
            font-family: Helvetica;
            font-size: 50px;
            fill: #808060;
            paint-order: stroke;
            stroke: #000000;
            stroke-width: 4px;
            stroke-linecap: butt;
            stroke-linejoin: miter;
            font-weight: 800;
        }
    </style>

    <path d="M 527 829 Q 552 810 578 785 Q 591 773 606 775 Q 616 776 621 788 Q 625 803 615 831 Q 609 849 581 860 Q 512 881 500 875 Q 496 871 497 859 Q 501 849 527 829 Z" class="stroke1"/>
    <path d="M 659 712 Q 677 718 704 721 Q 771 736 782 745 Q 791 752 787 760 Q 780 772 752 780 Q 731 786 631 757 Q 495 721 343 704 C 313 701 316 675 345 669 Q 349 669 356 667 Q 383 661 413 668 Q 525 689 645 710 L 659 712 Z" class="stroke2"/>
    <path d="M 343 704 Q 327 719 299 731 Q 280 741 266 737 Q 254 730 261 715 Q 279 688 280 632 Q 265 445 255 396 L 247 359 Q 208 209 103 43 Q 97 36 96 30 Q 93 20 104 21 Q 125 24 204 132 Q 226 169 248 213 Q 308 358 335 592 Q 338 646 345 669 C 351 698 351 698 343 704 Z" class="stroke3"/>
    <path d="M 146 553 Q 174 496 200 478 Q 212 472 224 482 Q 231 492 233 507 Q 230 546 166 584 Q 153 593 143 591 Q 137 591 136 580 Q 135 568 146 553 Z" class="stroke4"/>
    <path d="M 255 396 Q 182 366 96 333 Q 83 329 60 327 Q 48 324 48 315 Q 47 302 57 296 Q 79 284 111 270 Q 121 269 130 277 Q 160 308 247 359 C 273 374 283 407 255 396 Z" class="stroke5"/>
    <path d="M 528 582 Q 525 610 524 633 Q 525 649 509 653 Q 479 671 459 662 Q 444 655 457 640 Q 475 618 490 573 L 497 542 Q 501 515 517 497 Q 527 490 531 499 Q 535 512 530 555 L 528 582 Z" class="stroke6"/>
    <path d="M 530 555 Q 542 561 556 566 Q 568 569 581 577 Q 585 581 584 587 Q 583 591 571 592 Q 552 588 528 582 L 490 573 Q 456 566 418 556 Q 369 555 366 549 Q 365 542 371 536 Q 402 509 433 517 Q 464 530 497 542 L 530 555 Z" class="stroke7"/>
    <path d="M 688 621 Q 695 637 709 656 Q 722 668 713 677 Q 703 692 674 708 Q 667 712 659 712 L 645 710 Q 636 706 642 695 Q 652 671 637 613 L 632 591 Q 614 525 614 521 Q 615 509 628 516 Q 635 522 670 583 L 688 621 Z" class="stroke8"/>
    <path d="M 670 583 Q 682 583 696 585 Q 744 597 827 590 Q 840 589 843 596 Q 847 605 837 616 Q 800 650 719 627 Q 704 626 688 621 L 637 613 Q 631 613 626 612 Q 604 611 620 598 Q 626 594 632 591 L 670 583 Z" class="stroke9"/>
    <path d="M 425 446 Q 415 450 394 451 Q 384 452 380 448 Q 376 442 384 429 Q 409 384 430 310 Q 434 288 449 273 Q 465 255 470 269 Q 471 276 471 283 L 470 303 Q 469 310 467 318 Q 451 391 446 417 C 441 441 441 441 425 446 Z" class="stroke10"/>
    <path d="M 673 317 Q 689 290 705 282 Q 714 275 728 293 Q 738 309 763 396 Q 770 423 792 444 Q 802 454 793 467 Q 780 482 743 505 Q 728 512 663 495 Q 635 492 520 466 Q 468 454 425 446 C 396 440 418 407 446 417 Q 482 430 532 441 L 571 450 Q 691 480 711 464 Q 720 457 717 444 Q 699 351 686 337 C 674 315 672 319 673 317 Z" class="stroke11"/>
    <path d="M 591 378 Q 621 384 649 388 Q 668 391 661 402 Q 652 414 631 417 Q 615 418 595 413 L 545 398 Q 517 391 494 382 Q 479 379 497 367 Q 500 366 546 369 L 591 378 Z" class="stroke12"/>
    <path d="M 588 302 Q 633 312 673 317 C 703 321 711 322 686 337 Q 664 355 589 331 L 546 321 Q 506 312 470 303 C 441 296 441 284 471 283 Q 478 282 490 284 Q 518 290 546 295 L 588 302 Z" class="stroke13"/>
    <path d="M 362 204 Q 344 222 312 218 Q 302 212 307 203 Q 341 146 323 49 Q 302 31 332 -17 Q 335 -21 341 -27 Q 348 -37 356 -31 Q 374 -16 374 75 Q 370 136 370 162 C 370 192 370 198 362 204 Z" class="stroke14"/>
    <path d="M 586 213 Q 682 229 800 235 Q 819 234 825 222 Q 832 215 826 202 Q 811 48 798 27 Q 794 17 779 21 Q 755 25 730 30 Q 699 34 719 13 Q 776 -45 797 -84 Q 807 -99 820 -90 Q 847 -68 865 8 Q 887 170 908 194 Q 924 215 918 223 Q 911 236 860 271 Q 841 287 825 281 Q 795 271 741 263 Q 650 254 586 244 L 546 238 Q 485 231 451 221 Q 402 211 362 204 C 332 199 340 157 370 162 Q 383 161 396 166 Q 448 187 546 206 L 586 213 Z" class="stroke15"/>
    <path d="M 584 129 Q 585 172 586 213 L 586 244 Q 587 275 588 302 L 589 331 Q 590 356 591 378 L 595 413 Q 598 426 592 433 Q 582 443 571 450 C 546 467 516 466 532 441 Q 536 435 540 428 Q 544 416 545 398 L 546 369 Q 546 353 546 321 L 546 295 Q 546 270 546 238 L 546 206 Q 546 169 546 121 C 546 91 583 99 584 129 Z" class="stroke16"/>
    <path d="M 664 149 Q 625 140 584 129 L 546 121 Q 450 103 431 104 Q 421 103 419 95 Q 416 85 423 78 Q 441 65 465 48 Q 474 45 483 51 Q 504 64 648 121 Q 663 127 676 134 C 703 148 693 156 664 149 Z" class="stroke17"/>
    <path d="M 676 134 Q 721 71 729 70 Q 736 69 742 77 Q 746 86 746 107 Q 746 128 721 151 Q 661 199 648 194 Q 644 193 643 184 Q 643 181 664 149 L 676 134 Z" class="stroke18"/>
    
    
    
    
    
    
    
    
    
    
    
    
    
    
    
    
    
    </g>
</svg>