<svg version="1.1" viewBox="0 0 1024 1024" xmlns="http://www.w3.org/2000/svg">
  
  <g transform="scale(1, -1) translate(0, -900)">
    <style type="text/css">
        .stroke1 {fill: #808080;}
        .stroke2 {fill: #808079;}
        .stroke3 {fill: #808078;}
        .stroke4 {fill: #808077;}
        .stroke5 {fill: #808076;}
        .stroke6 {fill: #808075;}
        .stroke7 {fill: #808074;}
        .stroke8 {fill: #808073;}
        .stroke9 {fill: #808072;}
        .stroke10 {fill: #808071;}
        .stroke11 {fill: #808070;}
        .stroke12 {fill: #808069;}
        .stroke13 {fill: #808068;}
        .stroke14 {fill: #808067;}
        .stroke15 {fill: #808066;}
        .stroke16 {fill: #808065;}
        .stroke17 {fill: #808064;}
        .stroke18 {fill: #808063;}
        .stroke19 {fill: #808062;}
        .stroke20 {fill: #808061;}
        text {
            font-family: Helvetica;
            font-size: 50px;
            fill: #808060;
            paint-order: stroke;
            stroke: #000000;
            stroke-width: 4px;
            stroke-linecap: butt;
            stroke-linejoin: miter;
            font-weight: 800;
        }
    </style>

    <path d="M 493 809 Q 526 791 561 770 Q 576 761 590 765 Q 599 766 601 780 Q 602 793 589 819 Q 574 846 479 850 Q 464 851 459 847 Q 455 843 460 831 Q 464 822 493 809 Z" class="stroke1"/>
    <path d="M 519 700 Q 601 715 692 727 Q 756 737 765 746 Q 774 753 770 761 Q 764 773 738 780 Q 711 787 683 778 Q 610 757 531 741 Q 444 726 342 721 Q 341 721 341 720 C 311 716 318 700 347 692 Q 377 680 475 694 Q 481 695 489 696 L 519 700 Z" class="stroke2"/>
    <path d="M 341 720 Q 325 735 299 747 Q 280 759 266 754 Q 254 747 261 732 Q 283 702 276 620 Q 275 614 275 605 Q 271 536 251 419 L 242 383 Q 190 206 87 55 Q 83 48 80 42 Q 77 32 88 33 Q 118 39 197 153 Q 218 186 237 225 Q 309 381 332 607 Q 333 679 347 692 C 355 710 355 710 341 720 Z" class="stroke3"/>
    <path d="M 139 564 Q 176 513 202 501 Q 215 498 224 509 Q 230 519 228 535 Q 219 574 152 596 Q 139 602 130 599 Q 124 598 125 587 Q 126 577 139 564 Z" class="stroke4"/>
    <path d="M 251 419 Q 104 332 66 322 Q 54 318 55 309 Q 56 296 66 291 Q 91 282 124 274 Q 134 273 142 284 Q 151 296 242 383 C 264 404 277 434 251 419 Z" class="stroke5"/>
    <path d="M 480 611 Q 487 627 544 665 Q 557 674 548 684 Q 538 693 519 700 C 491 711 476 716 489 696 Q 490 695 491 693 Q 497 678 460 610 Q 459 610 459 609 C 442 584 465 585 480 611 Z" class="stroke6"/>
    <path d="M 445 608 Q 438 615 419 621 Q 412 625 403 621 Q 397 617 402 608 Q 423 529 413 470 Q 406 428 433 396 Q 440 386 449 396 Q 453 403 455 411 L 457 434 Q 458 443 458 454 Q 457 461 457 467 L 457 485 Q 456 512 456 530 L 456 539 Q 456 581 457 583 C 458 598 458 598 445 608 Z" class="stroke7"/>
    <path d="M 674 425 Q 686 398 694 399 Q 706 400 719 426 Q 728 441 729 491 Q 726 573 740 593 Q 749 606 743 614 Q 721 635 681 652 Q 669 656 650 650 Q 593 628 480 611 L 459 609 Q 452 609 445 608 C 415 606 427 581 457 583 Q 464 583 472 584 Q 566 606 634 617 Q 658 621 666 609 Q 681 591 673 461 Q 672 455 670 452 C 667 439 667 439 674 425 Z" class="stroke8"/>
    <path d="M 456 530 Q 465 521 482 524 Q 555 536 610 543 Q 626 544 621 555 Q 614 565 595 569 Q 579 570 457 540 Q 454 540 456 539 C 449 536 449 536 456 530 Z" class="stroke9"/>
    <path d="M 476 467 Q 558 477 617 483 Q 633 484 628 495 Q 621 505 603 510 Q 593 511 457 485 C 428 479 427 469 457 467 Q 464 466 476 467 Z" class="stroke10"/>
    <path d="M 544 417 Q 614 424 674 425 C 704 426 699 444 670 452 Q 661 461 467 435 Q 461 435 457 434 C 427 430 425 411 455 411 Q 462 411 475 411 Q 487 412 500 412 L 544 417 Z" class="stroke11"/>
    <path d="M 559 397 Q 556 404 544 417 C 524 440 507 441 500 412 Q 490 352 376 263 Q 373 263 371 260 Q 335 233 251 185 Q 244 182 251 178 Q 360 178 540 364 Q 549 373 555 376 C 567 385 567 385 559 397 Z" class="stroke12"/>
    <path d="M 555 376 Q 768 205 813 201 Q 868 201 945 230 Q 960 234 960 238 Q 961 244 948 247 Q 902 257 847 266 Q 730 288 574 388 Q 565 394 559 397 C 533 412 532 395 555 376 Z" class="stroke13"/>
    <path d="M 453 264 Q 425 258 446 247 Q 476 232 542 248 Q 572 255 605 263 Q 624 267 628 271 Q 635 277 631 283 Q 625 292 603 296 Q 581 300 558 290 Q 536 281 511 275 Q 484 268 453 264 Z" class="stroke14"/>
    <path d="M 367 174 Q 346 190 330 193 Q 326 194 322 190 Q 319 186 322 175 Q 346 136 338 34 Q 335 16 342 1 Q 352 -15 365 -23 Q 375 -30 377 -22 Q 389 -13 383 49 Q 379 116 379 141 C 379 165 379 165 367 174 Z" class="stroke15"/>
    <path d="M 577 188 Q 622 195 677 199 Q 693 198 700 188 Q 706 181 702 170 Q 701 55 693 39 Q 690 30 678 33 Q 656 36 630 39 Q 605 40 623 25 Q 678 -17 701 -48 Q 708 -58 718 -51 Q 743 -30 752 109 Q 753 149 767 170 Q 779 186 774 194 Q 767 204 725 231 Q 710 241 670 229 Q 447 193 367 174 C 338 167 350 133 379 141 Q 386 142 393 144 Q 412 151 441 160 L 464 166 Q 494 176 547 184 L 577 188 Z" class="stroke16"/>
    <path d="M 593 101 Q 626 108 657 113 Q 676 116 669 126 Q 660 138 641 141 Q 625 142 597 136 L 557 125 Q 518 116 486 107 L 453 99 Q 428 95 409 89 Q 396 86 412 75 Q 425 66 450 72 Q 451 73 454 72 L 485 79 Q 522 88 557 94 L 593 101 Z" class="stroke17"/>
    <path d="M 441 160 Q 447 154 453 99 L 454 72 Q 455 65 455 54 Q 454 35 462 22 Q 472 6 477 15 Q 484 27 485 79 L 486 107 Q 486 134 488 141 Q 489 151 486 155 Q 480 159 464 166 C 437 178 429 181 441 160 Z" class="stroke18"/>
    <path d="M 557 94 Q 558 84 558 69 Q 558 14 566 2 Q 569 -2 573 -1 Q 577 0 582 10 Q 585 22 593 101 L 597 136 Q 597 139 598 141 Q 598 147 602 160 Q 602 172 577 188 C 552 205 531 210 547 184 Q 547 183 550 179 Q 553 176 557 125 L 557 94 Z" class="stroke19"/>
    
    
    
    
    
    
    
    
    
    
    
    
    
    
    
    
    
    
    </g>
</svg>