<svg version="1.1" viewBox="0 0 1024 1024" xmlns="http://www.w3.org/2000/svg">
  
  <g transform="scale(1, -1) translate(0, -900)">
    <style type="text/css">
        .stroke1 {fill: #808080;}
        .stroke2 {fill: #808079;}
        .stroke3 {fill: #808078;}
        .stroke4 {fill: #808077;}
        .stroke5 {fill: #808076;}
        .stroke6 {fill: #808075;}
        .stroke7 {fill: #808074;}
        .stroke8 {fill: #808073;}
        .stroke9 {fill: #808072;}
        .stroke10 {fill: #808071;}
        .stroke11 {fill: #808070;}
        .stroke12 {fill: #808069;}
        .stroke13 {fill: #808068;}
        .stroke14 {fill: #808067;}
        .stroke15 {fill: #808066;}
        .stroke16 {fill: #808065;}
        .stroke17 {fill: #808064;}
        .stroke18 {fill: #808063;}
        .stroke19 {fill: #808062;}
        .stroke20 {fill: #808061;}
        text {
            font-family: Helvetica;
            font-size: 50px;
            fill: #808060;
            paint-order: stroke;
            stroke: #000000;
            stroke-width: 4px;
            stroke-linecap: butt;
            stroke-linejoin: miter;
            font-weight: 800;
        }
    </style>

    <path d="M 170 690 Q 155 705 132 712 Q 122 716 111 712 Q 104 708 109 694 Q 130 621 131 610 Q 131 604 132 597 Q 144 383 114 255 Q 101 198 137 153 Q 147 140 159 153 Q 172 169 172 192 Q 172 196 173 199 L 175 227 Q 175 294 175 363 L 175 395 Q 176 459 177 507 L 178 542 Q 179 636 181 648 Q 182 655 182 661 C 184 679 184 679 170 690 Z" class="stroke1"/>
    <path d="M 273 210 Q 286 188 301 166 Q 317 141 325 144 Q 338 145 353 181 Q 368 220 363 270 Q 342 621 369 673 Q 381 692 372 702 Q 365 714 313 729 Q 288 738 270 727 Q 216 702 170 690 C 141 682 153 652 182 661 Q 186 664 194 665 Q 221 672 253 682 Q 281 691 291 681 Q 306 668 306 611 Q 309 380 298 253 Q 299 246 298 241 C 297 211 257 236 273 210 Z" class="stroke2"/>
    <path d="M 177 507 Q 223 516 258 522 Q 280 529 270 541 Q 257 554 232 555 Q 210 555 178 542 C 150 531 148 501 177 507 Z" class="stroke3"/>
    <path d="M 175 363 L 262 378 Q 284 385 274 397 Q 261 410 236 411 Q 212 411 175 395 C 147 383 145 358 175 363 Z" class="stroke4"/>
    <path d="M 173 199 Q 228 206 273 210 C 303 213 325 228 298 241 Q 291 245 279 247 Q 245 253 175 227 C 147 217 143 195 173 199 Z" class="stroke5"/>
    <path d="M 650 603 Q 704 618 780 632 C 809 638 792 661 762 657 Q 660 644 551 617 Q 538 613 535 616 Q 534 620 539 629 Q 650 759 674 781 Q 687 791 681 804 Q 675 817 628 844 Q 612 853 602 849 Q 589 845 593 823 Q 608 759 498 647 Q 476 628 445 608 Q 430 598 434 585 Q 438 569 463 546 Q 473 534 488 545 Q 524 572 600 591 L 650 603 Z" class="stroke6"/>
    <path d="M 780 632 Q 816 587 827 583 Q 837 582 845 593 Q 852 606 850 636 Q 849 658 819 683 Q 788 702 753 722 Q 740 728 732 727 Q 728 724 726 712 Q 726 708 762 657 L 780 632 Z" class="stroke7"/>
    <path d="M 521 437 Q 522 438 523 439 Q 535 454 545 461 Q 552 468 549 477 Q 548 487 529 504 Q 511 519 498 520 Q 485 520 489 504 Q 496 483 454 419 Q 435 389 406 357 Q 399 351 397 347 Q 393 340 404 340 Q 437 347 508 422 L 521 437 Z" class="stroke8"/>
    <path d="M 682 422 Q 722 432 767 440 Q 804 449 811 454 Q 818 461 815 469 Q 808 479 782 487 Q 755 491 682 467 L 627 452 Q 579 443 524 438 Q 521 438 521 437 C 495 433 495 433 508 422 Q 538 392 607 408 Q 614 411 628 411 L 682 422 Z" class="stroke9"/>
    <path d="M 680 275 Q 768 285 896 288 Q 959 288 964 298 Q 968 308 953 322 Q 902 358 865 349 Q 795 333 680 311 L 626 303 Q 512 285 383 266 Q 364 263 379 247 Q 392 234 410 229 Q 431 225 446 229 Q 530 253 626 267 L 680 275 Z" class="stroke10"/>
    <path d="M 629 -26 Q 635 -51 642 -61 Q 648 -68 655 -66 Q 670 -57 676 4 Q 679 37 680 275 L 680 311 Q 680 360 682 422 L 682 467 Q 682 471 683 474 Q 683 498 693 558 Q 697 576 682 585 Q 663 597 650 603 C 623 617 584 616 600 591 Q 627 564 627 452 L 628 411 Q 627 362 626 303 L 626 267 Q 620 63 629 -26 Z" class="stroke11"/>
    
    
    
    
    
    
    
    
    
    
    </g>
</svg>