<svg version="1.1" viewBox="0 0 1024 1024" xmlns="http://www.w3.org/2000/svg">
  
  <g transform="scale(1, -1) translate(0, -900)">
    <style type="text/css">
        .stroke1 {fill: #808080;}
        .stroke2 {fill: #808079;}
        .stroke3 {fill: #808078;}
        .stroke4 {fill: #808077;}
        .stroke5 {fill: #808076;}
        .stroke6 {fill: #808075;}
        .stroke7 {fill: #808074;}
        .stroke8 {fill: #808073;}
        .stroke9 {fill: #808072;}
        .stroke10 {fill: #808071;}
        .stroke11 {fill: #808070;}
        .stroke12 {fill: #808069;}
        .stroke13 {fill: #808068;}
        .stroke14 {fill: #808067;}
        .stroke15 {fill: #808066;}
        .stroke16 {fill: #808065;}
        .stroke17 {fill: #808064;}
        .stroke18 {fill: #808063;}
        .stroke19 {fill: #808062;}
        .stroke20 {fill: #808061;}
        text {
            font-family: Helvetica;
            font-size: 50px;
            fill: #808060;
            paint-order: stroke;
            stroke: #000000;
            stroke-width: 4px;
            stroke-linecap: butt;
            stroke-linejoin: miter;
            font-weight: 800;
        }
    </style>

    <path d="M 319 601 Q 427 691 467 702 Q 486 709 480 724 Q 477 740 413 775 Q 395 785 373 776 Q 318 754 231 728 Q 209 721 154 722 Q 132 722 140 703 Q 147 690 166 680 Q 196 664 227 684 Q 248 691 350 732 Q 362 738 373 731 Q 383 725 380 713 Q 344 667 304 610 C 287 585 296 582 319 601 Z" class="stroke1"/>
    <path d="M 304 610 Q 277 620 246 627 Q 233 628 228 627 Q 224 623 225 613 L 300 546 Q 312 536 325 537 Q 334 537 337 548 Q 341 561 332 585 Q 329 594 319 601 L 304 610 Z" class="stroke2"/>
    <path d="M 500 466 Q 499 475 438 521 Q 414 539 325 513 Q 309 513 142 471 Q 106 462 70 456 Q 42 452 60 437 Q 91 415 120 425 Q 183 452 264 468 L 292 474 Q 352 495 379 491 Q 397 490 398 482 Q 398 479 374 427 Q 367 417 373 413 Q 379 409 392 418 Q 435 445 471 452 Q 489 456 496 461 C 502 464 502 464 500 466 Z" class="stroke3"/>
    <path d="M 291 401 Q 318 296 295 187 Q 288 142 274 133 Q 271 133 204 148 Q 194 152 188 149 Q 184 148 197 134 Q 237 86 259 47 Q 275 28 292 36 Q 314 46 335 97 Q 357 167 354 287 Q 354 372 335 409 Q 325 433 305 448 C 283 468 284 430 291 401 Z" class="stroke4"/>
    <path d="M 264 468 Q 221 342 66 199 Q 56 186 64 185 Q 73 181 85 188 Q 179 231 273 372 Q 283 391 291 401 C 308 425 310 428 305 448 Q 305 460 292 474 C 274 496 274 496 264 468 Z" class="stroke5"/>
    <path d="M 655 662 Q 683 743 698 766 Q 705 773 701 783 Q 689 808 643 816 Q 621 817 609 814 Q 600 810 605 797 Q 639 710 534 519 Q 528 513 525 505 Q 515 489 500 466 L 496 461 Q 463 413 407 337 Q 400 330 411 329 Q 453 341 551 463 Q 602 541 643 634 L 655 662 Z" class="stroke6"/>
    <path d="M 643 634 Q 707 526 796 409 Q 812 390 841 389 Q 938 388 969 391 Q 979 392 980 397 Q 981 401 968 409 Q 823 481 766 541 Q 712 593 655 662 C 636 685 628 660 643 634 Z" class="stroke7"/>
    <path d="M 599 424 Q 641 381 673 366 Q 688 365 695 376 Q 701 389 697 404 Q 690 426 673 437 Q 658 446 609 460 Q 593 464 585 460 Q 579 459 582 447 Q 583 437 599 424 Z" class="stroke8"/>
    <path d="M 504 278 Q 473 278 474 272 Q 468 256 494 242 Q 522 220 538 223 Q 551 223 571 234 Q 697 289 713 271 Q 720 259 707 240 Q 698 227 680 180 Q 647 110 632 97 Q 602 67 615 21 Q 619 0 628 -4 Q 637 -8 650 2 Q 678 23 746 195 Q 764 243 795 264 Q 804 271 805 281 Q 806 294 772 314 Q 738 335 722 337 Q 715 336 706 330 Q 625 291 504 278 Z" class="stroke9"/>
    
    
    
    
    
    
    
    
    </g>
</svg>