<svg version="1.1" viewBox="0 0 1024 1024" xmlns="http://www.w3.org/2000/svg">
  
  <g transform="scale(1, -1) translate(0, -900)">
    <style type="text/css">
        .stroke1 {fill: #808080;}
        .stroke2 {fill: #808079;}
        .stroke3 {fill: #808078;}
        .stroke4 {fill: #808077;}
        .stroke5 {fill: #808076;}
        .stroke6 {fill: #808075;}
        .stroke7 {fill: #808074;}
        .stroke8 {fill: #808073;}
        .stroke9 {fill: #808072;}
        .stroke10 {fill: #808071;}
        .stroke11 {fill: #808070;}
        .stroke12 {fill: #808069;}
        .stroke13 {fill: #808068;}
        .stroke14 {fill: #808067;}
        .stroke15 {fill: #808066;}
        .stroke16 {fill: #808065;}
        .stroke17 {fill: #808064;}
        .stroke18 {fill: #808063;}
        .stroke19 {fill: #808062;}
        .stroke20 {fill: #808061;}
        text {
            font-family: Helvetica;
            font-size: 50px;
            fill: #808060;
            paint-order: stroke;
            stroke: #000000;
            stroke-width: 4px;
            stroke-linecap: butt;
            stroke-linejoin: miter;
            font-weight: 800;
        }
    </style>

    <path d="M 374 602 Q 461 734 462 738 Q 461 742 460 745 Q 456 758 426 779 Q 399 797 380 796 Q 362 793 371 772 Q 398 714 246 495 Q 236 485 234 478 Q 231 468 245 470 Q 270 474 355 578 L 374 602 Z" class="stroke1"/>
    <path d="M 493 573 Q 721 621 727 627 Q 736 634 731 644 Q 724 656 694 664 Q 667 670 547 632 Q 391 605 374 602 C 344 597 328 591 355 578 Q 397 556 447 565 L 493 573 Z" class="stroke2"/>
    <path d="M 518 357 Q 623 369 848 370 Q 870 370 876 380 Q 882 393 863 408 Q 805 450 764 442 Q 670 423 518 398 L 459 390 Q 326 374 170 353 Q 146 350 164 331 Q 198 300 241 309 Q 340 337 451 349 L 518 357 Z" class="stroke3"/>
    <path d="M 518 398 Q 542 527 544 527 Q 551 534 546 546 Q 525 567 493 573 C 464 581 437 589 447 565 Q 448 561 452 554 Q 473 499 459 390 L 451 349 Q 448 342 447 334 Q 405 181 262 95 Q 223 73 168 44 Q 141 29 174 29 Q 196 28 240 43 Q 295 58 344 88 Q 389 113 424 162 Q 469 222 503 334 L 518 398 Z" class="stroke4"/>
    <path d="M 503 334 Q 585 198 697 52 Q 716 28 750 27 Q 865 23 903 26 Q 913 27 916 33 Q 917 39 902 48 Q 749 115 701 160 Q 616 242 518 357 C 498 380 487 361 503 334 Z" class="stroke5"/>
    
    
    
    
    </g>
</svg>