<svg version="1.1" viewBox="0 0 1024 1024" xmlns="http://www.w3.org/2000/svg">
  
  <g transform="scale(1, -1) translate(0, -900)">
    <style type="text/css">
        .stroke1 {fill: #808080;}
        .stroke2 {fill: #808079;}
        .stroke3 {fill: #808078;}
        .stroke4 {fill: #808077;}
        .stroke5 {fill: #808076;}
        .stroke6 {fill: #808075;}
        .stroke7 {fill: #808074;}
        .stroke8 {fill: #808073;}
        .stroke9 {fill: #808072;}
        .stroke10 {fill: #808071;}
        .stroke11 {fill: #808070;}
        .stroke12 {fill: #808069;}
        .stroke13 {fill: #808068;}
        .stroke14 {fill: #808067;}
        .stroke15 {fill: #808066;}
        .stroke16 {fill: #808065;}
        .stroke17 {fill: #808064;}
        .stroke18 {fill: #808063;}
        .stroke19 {fill: #808062;}
        .stroke20 {fill: #808061;}
        text {
            font-family: Helvetica;
            font-size: 50px;
            fill: #808060;
            paint-order: stroke;
            stroke: #000000;
            stroke-width: 4px;
            stroke-linecap: butt;
            stroke-linejoin: miter;
            font-weight: 800;
        }
    </style>

    <path d="M 545 666 Q 573 672 773 694 Q 785 691 795 706 Q 796 719 772 732 Q 733 756 645 733 Q 600 724 554 714 Q 550 713 547 712 L 492 702 Q 434 693 382 688 Q 325 684 262 676 Q 229 673 254 653 Q 291 623 320 628 Q 401 644 495 658 L 545 666 Z" class="stroke1"/>
    <path d="M 541 565 Q 610 578 668 587 Q 696 591 685 607 Q 673 623 643 629 Q 598 636 543 613 L 496 601 Q 415 582 345 564 Q 326 560 349 542 Q 365 532 397 537 Q 448 547 496 556 L 541 565 Z" class="stroke2"/>
    <path d="M 537 458 Q 618 470 737 472 Q 794 472 800 482 Q 804 494 789 506 Q 740 542 675 527 Q 620 515 538 498 L 496 491 Q 390 473 267 454 Q 248 451 263 435 Q 276 422 294 418 Q 315 414 330 418 Q 406 440 492 452 Q 493 453 495 452 L 537 458 Z" class="stroke3"/>
    <path d="M 538 498 Q 539 532 541 565 L 543 613 Q 543 640 545 666 L 547 712 Q 550 746 554 765 Q 563 784 550 796 Q 534 809 506 822 Q 484 831 462 821 Q 450 814 465 797 Q 484 764 492 702 L 495 658 Q 496 631 496 601 L 496 556 Q 499 550 496 491 L 495 452 Q 491 409 503 375 Q 509 363 518 370 Q 533 382 537 458 L 538 498 Z" class="stroke4"/>
    <path d="M 450 302 Q 561 323 776 344 Q 788 343 799 357 Q 800 370 774 384 Q 732 408 649 386 Q 427 346 292 330 Q 252 327 210 322 Q 176 318 202 297 Q 241 267 267 270 Q 279 276 403 295 L 450 302 Z" class="stroke5"/>
    <path d="M 410 195 Q 449 235 467 248 Q 474 251 476 261 Q 476 280 450 302 C 428 323 413 323 403 295 Q 379 214 255 120 Q 251 119 249 116 Q 207 85 107 30 Q 100 27 108 23 Q 124 20 212 52 Q 213 53 217 54 Q 275 81 368 157 L 410 195 Z" class="stroke6"/>
    <path d="M 416 192 Q 415 193 410 195 C 385 211 358 185 368 157 Q 387 105 398 28 Q 399 0 416 -20 Q 432 -42 439 -27 Q 445 -12 444 13 L 440 48 Q 430 129 426 158 C 422 188 422 190 416 192 Z" class="stroke7"/>
    <path d="M 694 74 Q 724 152 752 169 Q 770 188 754 208 Q 738 221 682 248 Q 663 257 640 248 Q 547 209 416 192 C 386 188 397 152 426 158 Q 436 159 450 164 Q 538 180 621 197 Q 643 203 652 193 Q 664 181 639 79 C 632 50 683 46 694 74 Z" class="stroke8"/>
    <path d="M 444 13 Q 453 12 466 13 Q 542 28 710 36 Q 720 37 723 46 Q 723 55 694 74 C 676 86 668 85 639 79 Q 527 57 440 48 C 410 45 414 15 444 13 Z" class="stroke9"/>
    
    
    
    
    
    
    
    
    </g>
</svg>