<svg version="1.1" viewBox="0 0 1024 1024" xmlns="http://www.w3.org/2000/svg">
  
  <g transform="scale(1, -1) translate(0, -900)">
    <style type="text/css">
        .stroke1 {fill: #808080;}
        .stroke2 {fill: #808079;}
        .stroke3 {fill: #808078;}
        .stroke4 {fill: #808077;}
        .stroke5 {fill: #808076;}
        .stroke6 {fill: #808075;}
        .stroke7 {fill: #808074;}
        .stroke8 {fill: #808073;}
        .stroke9 {fill: #808072;}
        .stroke10 {fill: #808071;}
        .stroke11 {fill: #808070;}
        .stroke12 {fill: #808069;}
        .stroke13 {fill: #808068;}
        .stroke14 {fill: #808067;}
        .stroke15 {fill: #808066;}
        .stroke16 {fill: #808065;}
        .stroke17 {fill: #808064;}
        .stroke18 {fill: #808063;}
        .stroke19 {fill: #808062;}
        .stroke20 {fill: #808061;}
        text {
            font-family: Helvetica;
            font-size: 50px;
            fill: #808060;
            paint-order: stroke;
            stroke: #000000;
            stroke-width: 4px;
            stroke-linecap: butt;
            stroke-linejoin: miter;
            font-weight: 800;
        }
    </style>

    <path d="M 264 608 Q 417 651 421 654 Q 428 661 424 669 Q 417 679 389 685 Q 361 688 335 675 Q 254 645 174 631 Q 141 624 166 609 Q 193 597 230 599 L 264 608 Z" class="stroke1"/>
    <path d="M 239 431 Q 264 477 295 544 Q 301 559 306 565 Q 312 571 309 579 Q 308 586 295 596 Q 280 605 264 608 C 235 616 223 619 230 599 Q 237 592 236 555 Q 224 486 191 427 L 175 396 Q 162 377 150 356 Q 120 311 44 222 Q 37 218 46 216 Q 97 225 189 348 L 239 431 Z" class="stroke2"/>
    <path d="M 191 427 Q 187 428 183 429 Q 173 432 169 427 Q 163 423 170 408 Q 171 402 175 396 L 189 348 Q 201 305 208 248 Q 209 220 226 199 Q 241 178 246 193 Q 253 212 248 251 L 245 278 Q 230 377 230 398 Q 230 399 229 400 L 191 427 Z" class="stroke3"/>
    <path d="M 377 303 Q 387 385 407 410 Q 426 435 403 447 Q 384 456 358 471 Q 339 480 322 467 Q 303 454 239 431 C 198 416 200 393 229 400 Q 236 401 307 420 Q 326 424 331 417 Q 338 413 336 378 Q 333 345 329 306 C 326 276 373 273 377 303 Z" class="stroke4"/>
    <path d="M 248 251 Q 255 250 265 253 Q 304 263 388 277 Q 397 278 397 286 Q 397 293 377 303 C 354 315 354 315 329 306 Q 283 290 245 278 C 216 269 218 252 248 251 Z" class="stroke5"/>
    <path d="M 503 696 Q 481 712 457 720 Q 447 723 440 714 Q 436 707 444 696 Q 469 636 468 567 Q 474 308 430 174 Q 421 146 426 124 Q 435 87 447 73 Q 460 58 470 73 Q 506 110 507 270 Q 507 556 523 655 C 527 681 527 681 503 696 Z" class="stroke6"/>
    <path d="M 523 655 Q 529 655 536 656 Q 786 716 808 690 Q 821 683 827 619 Q 842 406 830 165 Q 830 129 816 120 Q 800 110 722 130 Q 706 133 706 123 Q 707 116 721 109 Q 790 60 826 22 Q 848 1 862 4 Q 875 8 886 37 Q 902 85 901 154 Q 885 482 886 602 Q 886 644 899 668 Q 912 690 901 703 Q 889 719 840 744 Q 821 754 760 738 Q 603 708 503 696 C 473 692 493 650 523 655 Z" class="stroke7"/>
    <path d="M 578 567 Q 545 560 570 545 Q 604 529 671 544 Q 707 553 746 562 Q 765 566 768 570 Q 775 577 771 585 Q 764 595 737 601 Q 718 604 639 578 Q 612 571 578 567 Z" class="stroke8"/>
    <path d="M 578 445 Q 569 449 552 452 Q 542 455 538 451 Q 534 447 540 432 Q 562 383 575 302 Q 576 278 591 262 Q 604 243 610 256 Q 614 269 613 290 L 609 319 Q 597 401 597 421 C 596 438 596 438 578 445 Z" class="stroke9"/>
    <path d="M 738 338 Q 751 399 770 417 Q 789 439 770 453 Q 752 463 728 479 Q 715 486 669 466 Q 639 456 578 445 C 548 440 568 414 597 421 Q 610 425 673 435 Q 694 438 699 430 Q 705 426 701 397 Q 697 370 692 340 C 687 310 731 309 738 338 Z" class="stroke10"/>
    <path d="M 613 290 Q 617 290 625 291 Q 665 301 750 309 Q 760 310 760 318 Q 760 325 738 338 C 722 348 721 348 692 340 Q 644 327 609 319 C 580 312 583 288 613 290 Z" class="stroke11"/>
    
    
    
    
    
    
    
    
    
    
    </g>
</svg>