<svg version="1.1" viewBox="0 0 1024 1024" xmlns="http://www.w3.org/2000/svg">
  
  <g transform="scale(1, -1) translate(0, -900)">
    <style type="text/css">
        .stroke1 {fill: #808080;}
        .stroke2 {fill: #808079;}
        .stroke3 {fill: #808078;}
        .stroke4 {fill: #808077;}
        .stroke5 {fill: #808076;}
        .stroke6 {fill: #808075;}
        .stroke7 {fill: #808074;}
        .stroke8 {fill: #808073;}
        .stroke9 {fill: #808072;}
        .stroke10 {fill: #808071;}
        .stroke11 {fill: #808070;}
        .stroke12 {fill: #808069;}
        .stroke13 {fill: #808068;}
        .stroke14 {fill: #808067;}
        .stroke15 {fill: #808066;}
        .stroke16 {fill: #808065;}
        .stroke17 {fill: #808064;}
        .stroke18 {fill: #808063;}
        .stroke19 {fill: #808062;}
        .stroke20 {fill: #808061;}
        text {
            font-family: Helvetica;
            font-size: 50px;
            fill: #808060;
            paint-order: stroke;
            stroke: #000000;
            stroke-width: 4px;
            stroke-linecap: butt;
            stroke-linejoin: miter;
            font-weight: 800;
        }
    </style>

    <path d="M 240 583 Q 294 602 353 619 Q 386 629 390 635 Q 397 645 393 652 Q 384 664 354 668 Q 323 671 293 655 Q 257 639 218 624 Q 175 609 122 599 Q 85 589 114 575 Q 153 557 203 571 L 240 583 Z" class="stroke1"/>
    <path d="M 207 387 Q 234 439 269 521 Q 282 552 282 556 Q 275 575 240 583 C 211 591 196 596 203 571 Q 224 523 166 393 L 146 354 Q 83 261 27 190 Q 21 186 30 184 Q 84 203 159 306 L 207 387 Z" class="stroke2"/>
    <path d="M 166 393 Q 160 396 151 397 Q 141 400 137 396 Q 131 390 138 376 Q 142 366 146 354 L 159 306 Q 169 263 176 208 Q 177 177 194 155 Q 209 134 214 148 Q 221 169 218 207 L 213 238 Q 200 329 198 358 L 166 393 Z" class="stroke3"/>
    <path d="M 346 270 Q 358 349 379 374 Q 398 398 376 409 Q 319 437 311 435 Q 305 435 300 430 Q 278 414 207 387 C 171 373 170 348 198 358 Q 198 359 279 384 Q 304 391 310 382 Q 317 376 312 342 Q 308 308 300 268 C 294 239 341 240 346 270 Z" class="stroke4"/>
    <path d="M 218 207 Q 225 207 233 209 Q 273 222 364 239 Q 374 240 374 249 Q 374 256 346 270 C 328 279 328 279 300 268 Q 251 249 213 238 C 184 230 188 205 218 207 Z" class="stroke5"/>
    <path d="M 455 549 Q 434 562 409 569 Q 396 572 389 566 Q 383 560 390 547 Q 412 511 425 472 Q 435 433 459 282 C 464 252 500 256 495 286 Q 474 409 467 511 C 465 541 465 543 455 549 Z" class="stroke6"/>
    <path d="M 820 330 Q 853 493 889 557 Q 899 569 895 580 Q 888 596 827 622 Q 811 629 722 605 L 676 595 Q 628 585 580 573 L 542 565 Q 499 558 455 549 C 426 543 439 501 467 511 Q 474 512 484 517 Q 512 526 544 533 L 581 542 Q 626 555 674 564 L 719 574 Q 771 593 797 579 Q 807 573 805 548 Q 792 454 762 320 C 756 291 814 301 820 330 Z" class="stroke7"/>
    <path d="M 704 426 Q 723 430 743 433 Q 765 437 757 449 Q 747 462 723 467 Q 716 468 708 467 L 666 460 Q 663 460 662 459 Q 620 449 584 438 L 549 429 Q 528 425 511 420 Q 495 416 514 403 Q 526 394 550 399 L 585 405 Q 624 412 662 419 L 704 426 Z" class="stroke8"/>
    <path d="M 580 573 Q 580 649 584 671 Q 587 693 573 705 Q 552 721 526 731 Q 513 735 504 730 Q 497 724 503 709 Q 536 642 542 565 L 544 533 Q 545 493 549 429 L 550 399 Q 551 353 554 293 C 555 263 593 268 591 298 Q 587 356 585 405 L 584 438 Q 581 496 581 542 L 580 573 Z" class="stroke9"/>
    <path d="M 722 605 Q 722 650 756 780 Q 760 790 741 807 Q 707 828 682 833 Q 666 837 658 830 Q 649 823 657 807 Q 684 761 682 731 Q 681 665 676 595 L 674 564 Q 670 515 666 460 L 662 419 Q 656 364 649 305 C 645 275 688 280 691 310 Q 697 370 704 426 L 708 467 Q 712 522 719 574 L 722 605 Z" class="stroke10"/>
    <path d="M 459 282 Q 429 281 400 276 Q 381 275 394 259 Q 407 246 424 241 Q 443 235 459 239 Q 627 284 928 284 Q 944 284 963 283 Q 982 283 986 291 Q 992 301 976 315 Q 927 352 866 339 Q 844 336 820 330 L 762 320 Q 728 317 691 310 L 649 305 Q 621 302 591 298 L 554 293 Q 524 292 495 286 L 459 282 Z" class="stroke11"/>
    <path d="M 504 198 Q 491 129 341 5 Q 319 -11 347 -7 Q 422 0 535 118 Q 563 149 578 163 Q 588 175 587 185 Q 583 198 557 206 Q 527 216 515 213 Q 508 212 504 198 Z" class="stroke12"/>
    <path d="M 691 174 Q 752 107 825 12 Q 840 -10 855 -17 Q 864 -18 873 -9 Q 888 3 879 51 Q 867 120 695 207 Q 686 214 683 200 Q 682 187 691 174 Z" class="stroke13"/>
    
    
    
    
    
    
    
    
    
    
    
    
    </g>
</svg>