<svg version="1.1" viewBox="0 0 1024 1024" xmlns="http://www.w3.org/2000/svg">
  
  <g transform="scale(1, -1) translate(0, -900)">
    <style type="text/css">
        .stroke1 {fill: #808080;}
        .stroke2 {fill: #808079;}
        .stroke3 {fill: #808078;}
        .stroke4 {fill: #808077;}
        .stroke5 {fill: #808076;}
        .stroke6 {fill: #808075;}
        .stroke7 {fill: #808074;}
        .stroke8 {fill: #808073;}
        .stroke9 {fill: #808072;}
        .stroke10 {fill: #808071;}
        .stroke11 {fill: #808070;}
        .stroke12 {fill: #808069;}
        .stroke13 {fill: #808068;}
        .stroke14 {fill: #808067;}
        .stroke15 {fill: #808066;}
        .stroke16 {fill: #808065;}
        .stroke17 {fill: #808064;}
        .stroke18 {fill: #808063;}
        .stroke19 {fill: #808062;}
        .stroke20 {fill: #808061;}
        text {
            font-family: Helvetica;
            font-size: 50px;
            fill: #808060;
            paint-order: stroke;
            stroke: #000000;
            stroke-width: 4px;
            stroke-linecap: butt;
            stroke-linejoin: miter;
            font-weight: 800;
        }
    </style>

    <path d="M 335 604 Q 347 608 361 612 Q 389 621 393 625 Q 400 632 395 639 Q 388 648 365 652 Q 352 653 338 650 L 304 637 Q 235 612 168 599 Q 140 592 161 580 Q 191 564 256 584 Q 268 588 282 590 L 335 604 Z" class="stroke1"/>
    <path d="M 332 560 Q 333 582 335 604 L 338 650 Q 347 729 363 755 Q 367 762 359 775 Q 311 811 290 803 Q 280 799 284 787 Q 309 742 304 637 L 301 535 Q 297 471 290 441 Q 289 432 303 397 Q 310 384 323 391 Q 330 397 331 530 L 332 560 Z" class="stroke2"/>
    <path d="M 282 590 Q 252 509 150 416 Q 140 406 148 405 Q 163 399 208 431 Q 251 464 293 523 Q 297 530 301 535 C 350 604 293 618 282 590 Z" class="stroke3"/>
    <path d="M 331 530 Q 383 481 391 480 Q 398 480 402 489 Q 405 498 401 517 Q 395 539 332 560 C 304 570 309 551 331 530 Z" class="stroke4"/>
    <path d="M 512 682 Q 539 725 559 745 Q 565 752 562 761 Q 559 768 541 784 Q 525 796 512 796 Q 500 795 505 781 Q 514 763 480 700 L 466 676 Q 465 675 465 674 Q 441 637 408 596 Q 402 589 400 586 Q 399 579 407 580 Q 428 584 477 641 Q 483 648 490 655 L 512 682 Z" class="stroke5"/>
    <path d="M 490 655 Q 538 610 544 609 Q 548 608 552 614 Q 558 621 550 642 Q 546 660 512 682 L 480 700 Q 438 725 415 735 Q 411 736 409 731 Q 409 724 415 719 Q 439 700 466 676 L 490 655 Z" class="stroke6"/>
    <path d="M 498 511 Q 538 565 538 569 Q 535 582 511 593 Q 499 597 493 595 Q 487 594 489 587 Q 492 569 470 525 L 457 505 Q 450 498 444 488 Q 429 470 392 435 Q 388 432 394 430 Q 436 445 479 488 L 498 511 Z" class="stroke7"/>
    <path d="M 479 488 Q 533 443 537 441 Q 541 440 544 446 Q 548 452 542 472 Q 533 493 498 511 L 470 525 Q 440 541 422 547 Q 418 548 417 543 Q 417 539 457 505 L 479 488 Z" class="stroke8"/>
    <path d="M 712 639 Q 749 649 790 658 Q 818 665 824 669 Q 831 676 827 683 Q 820 692 797 697 Q 773 701 716 679 L 672 667 Q 635 660 594 654 Q 564 648 586 636 Q 613 621 653 626 L 712 639 Z" class="stroke9"/>
    <path d="M 708 571 Q 708 607 712 639 L 716 679 Q 719 739 740 776 Q 746 785 735 798 Q 684 838 658 830 Q 645 826 651 812 Q 670 779 672 667 L 669 588 Q 668 512 659 480 Q 658 470 674 430 Q 683 415 697 423 Q 706 432 708 549 L 708 571 Z" class="stroke10"/>
    <path d="M 653 626 Q 620 566 545 485 Q 541 478 548 477 Q 552 476 560 481 Q 623 523 669 588 C 703 636 668 652 653 626 Z" class="stroke11"/>
    <path d="M 708 549 Q 760 519 822 474 Q 835 464 846 462 Q 853 462 856 470 Q 863 480 848 509 Q 829 548 708 571 C 679 577 682 564 708 549 Z" class="stroke12"/>
    <path d="M 588 342 Q 627 345 768 345 Q 786 345 791 353 Q 795 363 781 375 Q 733 411 701 403 Q 617 387 472 366 Q 456 365 441 361 L 359 351 Q 277 342 191 332 Q 172 331 186 315 Q 199 302 215 297 Q 234 293 248 296 Q 290 308 338 316 L 409 327 Q 461 339 553 341 L 588 342 Z" class="stroke13"/>
    <path d="M 441 361 Q 445 365 446 373 Q 442 398 409 413 Q 393 420 382 421 Q 375 420 375 409 Q 376 388 359 351 L 338 316 Q 275 226 135 123 Q 117 113 98 98 Q 91 94 99 91 Q 159 91 283 191 Q 361 269 409 327 L 441 361 Z" class="stroke14"/>
    <path d="M 553 341 L 559 335 Q 722 145 766 132 Q 835 122 928 140 Q 946 141 948 147 Q 949 154 935 159 Q 890 175 837 191 Q 720 228 598 334 Q 592 338 588 342 C 565 361 532 363 553 341 Z" class="stroke15"/>
    <path d="M 426 209 Q 432 212 558 230 Q 586 236 590 239 Q 597 245 594 251 Q 590 261 567 267 Q 552 270 457 248 Q 420 241 375 239 Q 347 236 367 223 Q 377 216 395 211 L 396 210 C 409 205 409 205 426 209 Z" class="stroke16"/>
    <path d="M 400 127 Q 431 158 447 171 Q 456 180 454 187 Q 453 196 426 209 C 402 222 402 222 396 210 Q 393 209 392 203 Q 383 176 348 134 L 330 114 Q 273 57 152 -22 Q 136 -32 157 -32 Q 221 -26 350 78 L 400 127 Z" class="stroke17"/>
    <path d="M 348 134 Q 345 135 342 135 Q 332 136 328 132 Q 324 128 330 114 L 350 78 Q 363 48 375 6 Q 379 -15 393 -27 Q 409 -45 414 -31 Q 415 -25 416 -18 L 412 13 Q 399 73 395 97 L 348 134 Z" class="stroke18"/>
    <path d="M 618 27 Q 648 79 671 89 Q 687 104 676 121 Q 663 134 618 161 Q 602 168 583 163 Q 504 139 400 127 C 363 123 365 93 395 97 Q 398 97 566 121 Q 582 124 590 116 Q 596 106 572 36 C 562 8 603 1 618 27 Z" class="stroke19"/>
    <path d="M 416 -18 Q 425 -19 435 -18 Q 496 -8 627 -4 Q 637 -3 639 5 Q 639 12 618 27 L 572 36 Q 571 37 569 36 Q 481 20 412 13 C 382 10 386 -16 416 -18 Z" class="stroke20"/>
    
    
    
    
    
    
    
    
    
    
    
    
    
    
    
    
    
    
    
    </g>
</svg>