<svg version="1.1" viewBox="0 0 1024 1024" xmlns="http://www.w3.org/2000/svg">
  
  <g transform="scale(1, -1) translate(0, -900)">
    <style type="text/css">
        .stroke1 {fill: #808080;}
        .stroke2 {fill: #808079;}
        .stroke3 {fill: #808078;}
        .stroke4 {fill: #808077;}
        .stroke5 {fill: #808076;}
        .stroke6 {fill: #808075;}
        .stroke7 {fill: #808074;}
        .stroke8 {fill: #808073;}
        .stroke9 {fill: #808072;}
        .stroke10 {fill: #808071;}
        .stroke11 {fill: #808070;}
        .stroke12 {fill: #808069;}
        .stroke13 {fill: #808068;}
        .stroke14 {fill: #808067;}
        .stroke15 {fill: #808066;}
        .stroke16 {fill: #808065;}
        .stroke17 {fill: #808064;}
        .stroke18 {fill: #808063;}
        .stroke19 {fill: #808062;}
        .stroke20 {fill: #808061;}
        text {
            font-family: Helvetica;
            font-size: 50px;
            fill: #808060;
            paint-order: stroke;
            stroke: #000000;
            stroke-width: 4px;
            stroke-linecap: butt;
            stroke-linejoin: miter;
            font-weight: 800;
        }
    </style>

    <path d="M 311 753 Q 342 731 375 705 Q 391 692 409 695 Q 421 696 425 712 Q 428 728 415 760 Q 400 793 300 805 Q 282 806 276 803 Q 270 799 274 785 Q 278 773 311 753 Z" class="stroke1"/>
    <path d="M 283 360 Q 316 403 352 457 Q 388 512 436 548 Q 452 560 439 575 Q 420 591 391 601 Q 369 610 351 599 Q 266 538 114 530 Q 101 531 99 524 Q 96 514 111 503 Q 151 476 186 485 Q 324 546 332 535 Q 338 526 324 503 Q 243 349 68 187 Q 53 177 56 173 Q 59 170 72 175 Q 166 220 257 329 L 283 360 Z" class="stroke2"/>
    <path d="M 257 329 Q 285 269 255 106 Q 230 34 270 -12 L 271 -13 Q 287 -28 298 -3 Q 311 34 311 75 Q 315 247 322 286 Q 329 311 320 320 Q 290 356 283 360 C 261 380 246 357 257 329 Z" class="stroke3"/>
    <path d="M 357 373 Q 402 303 425 299 Q 438 296 446 313 Q 449 326 442 346 Q 427 379 364 398 Q 355 401 353 390 Q 352 383 357 373 Z" class="stroke4"/>
    <path d="M 699 202 Q 703 332 706 455 L 707 487 Q 710 628 729 708 Q 733 721 710 737 Q 670 758 642 762 Q 623 766 614 756 Q 605 746 616 730 Q 647 684 648 652 Q 661 441 652 196 C 651 166 698 172 699 202 Z" class="stroke5"/>
    <path d="M 706 455 Q 748 449 883 482 Q 883 483 885 483 Q 892 492 888 500 Q 881 512 850 517 Q 829 520 753 497 Q 750 497 707 487 C 678 480 676 458 706 455 Z" class="stroke6"/>
    <path d="M 563 184 Q 557 391 564 430 Q 568 455 552 468 Q 527 487 498 498 Q 483 504 474 497 Q 465 490 472 474 Q 493 435 501 393 Q 508 350 520 179 C 522 149 564 154 563 184 Z" class="stroke7"/>
    <path d="M 520 179 Q 468 175 413 167 Q 391 166 407 147 Q 422 132 440 127 Q 462 121 479 126 Q 624 162 901 163 Q 917 163 933 162 Q 954 162 959 171 Q 965 183 948 197 Q 894 239 829 225 Q 774 215 699 202 L 652 196 Q 609 192 563 184 L 520 179 Z" class="stroke8"/>
    
    
    
    
    
    
    
    </g>
</svg>