<svg version="1.1" viewBox="0 0 1024 1024" xmlns="http://www.w3.org/2000/svg">
  
  <g transform="scale(1, -1) translate(0, -900)">
    <style type="text/css">
        .stroke1 {fill: #808080;}
        .stroke2 {fill: #808079;}
        .stroke3 {fill: #808078;}
        .stroke4 {fill: #808077;}
        .stroke5 {fill: #808076;}
        .stroke6 {fill: #808075;}
        .stroke7 {fill: #808074;}
        .stroke8 {fill: #808073;}
        .stroke9 {fill: #808072;}
        .stroke10 {fill: #808071;}
        .stroke11 {fill: #808070;}
        .stroke12 {fill: #808069;}
        .stroke13 {fill: #808068;}
        .stroke14 {fill: #808067;}
        .stroke15 {fill: #808066;}
        .stroke16 {fill: #808065;}
        .stroke17 {fill: #808064;}
        .stroke18 {fill: #808063;}
        .stroke19 {fill: #808062;}
        .stroke20 {fill: #808061;}
        text {
            font-family: Helvetica;
            font-size: 50px;
            fill: #808060;
            paint-order: stroke;
            stroke: #000000;
            stroke-width: 4px;
            stroke-linecap: butt;
            stroke-linejoin: miter;
            font-weight: 800;
        }
    </style>

    <path d="M 322 668 Q 424 722 461 732 Q 479 735 482 743 Q 485 753 472 765 Q 403 804 372 797 Q 365 793 365 781 Q 366 735 136 608 Q 132 598 138 596 Q 150 596 295 656 L 322 668 Z" class="stroke1"/>
    <path d="M 354 475 Q 399 485 454 495 Q 470 498 470 505 Q 471 518 453 526 Q 417 538 355 518 L 314 507 Q 167 473 100 463 Q 87 462 84 453 Q 81 443 97 432 Q 136 407 177 420 Q 241 445 291 458 L 354 475 Z" class="stroke2"/>
    <path d="M 353 391 Q 353 433 354 475 L 355 518 Q 356 588 364 623 Q 365 636 359 642 Q 338 660 322 668 C 296 684 285 684 295 656 Q 310 634 314 507 L 312 399 Q 312 201 289 100 Q 271 87 302 23 Q 311 -4 332 -18 Q 344 -19 349 -6 Q 361 25 358 57 Q 354 223 353 365 L 353 391 Z" class="stroke3"/>
    <path d="M 291 458 Q 234 328 79 140 Q 73 131 84 130 Q 90 129 99 137 Q 232 245 312 399 C 355 479 304 487 291 458 Z" class="stroke4"/>
    <path d="M 353 365 Q 411 299 431 298 Q 443 297 449 312 Q 450 324 442 341 Q 424 371 360 390 Q 357 390 353 391 C 325 396 333 387 353 365 Z" class="stroke5"/>
    <path d="M 562 677 Q 550 684 516 688 Q 504 692 501 686 Q 494 680 503 664 Q 533 603 551 502 Q 554 471 572 451 Q 590 429 595 445 Q 598 454 598 466 L 596 501 Q 587 526 572 646 C 568 674 568 674 562 677 Z" class="stroke6"/>
    <path d="M 808 523 Q 838 619 876 645 Q 894 664 879 683 Q 863 698 808 725 Q 790 734 711 707 Q 630 688 562 677 C 532 672 543 638 572 646 Q 587 652 748 680 Q 767 684 776 676 Q 786 666 782 645 Q 767 579 749 528 C 739 500 799 494 808 523 Z" class="stroke7"/>
    <path d="M 598 466 Q 602 466 607 467 Q 674 480 819 490 Q 829 491 831 499 Q 831 506 808 523 C 790 537 778 534 749 528 Q 664 510 596 501 C 566 497 568 463 598 466 Z" class="stroke8"/>
    <path d="M 541 323 Q 529 329 503 333 Q 490 337 487 331 Q 480 325 489 308 Q 523 232 540 107 Q 543 70 563 44 Q 582 22 587 37 Q 593 53 592 78 L 588 119 Q 566 252 561 290 C 557 317 557 317 541 323 Z" class="stroke9"/>
    <path d="M 852 141 Q 880 255 922 287 Q 941 309 925 329 Q 906 345 847 374 Q 826 384 801 374 Q 692 337 541 323 C 511 320 532 284 561 290 Q 567 291 574 293 Q 677 309 775 325 Q 800 331 811 320 Q 832 298 791 151 C 783 122 845 112 852 141 Z" class="stroke10"/>
    <path d="M 592 78 Q 602 78 612 79 Q 691 94 864 100 Q 877 101 878 111 Q 879 120 852 141 C 833 157 821 155 791 151 Q 790 152 788 151 Q 677 129 588 119 C 558 116 562 77 592 78 Z" class="stroke11"/>
    
    
    
    
    
    
    
    
    
    
    </g>
</svg>