<svg version="1.1" viewBox="0 0 1024 1024" xmlns="http://www.w3.org/2000/svg">
  
  <g transform="scale(1, -1) translate(0, -900)">
    <style type="text/css">
        .stroke1 {fill: #808080;}
        .stroke2 {fill: #808079;}
        .stroke3 {fill: #808078;}
        .stroke4 {fill: #808077;}
        .stroke5 {fill: #808076;}
        .stroke6 {fill: #808075;}
        .stroke7 {fill: #808074;}
        .stroke8 {fill: #808073;}
        .stroke9 {fill: #808072;}
        .stroke10 {fill: #808071;}
        .stroke11 {fill: #808070;}
        .stroke12 {fill: #808069;}
        .stroke13 {fill: #808068;}
        .stroke14 {fill: #808067;}
        .stroke15 {fill: #808066;}
        .stroke16 {fill: #808065;}
        .stroke17 {fill: #808064;}
        .stroke18 {fill: #808063;}
        .stroke19 {fill: #808062;}
        .stroke20 {fill: #808061;}
        text {
            font-family: Helvetica;
            font-size: 50px;
            fill: #808060;
            paint-order: stroke;
            stroke: #000000;
            stroke-width: 4px;
            stroke-linecap: butt;
            stroke-linejoin: miter;
            font-weight: 800;
        }
    </style>

    <path d="M 306 700 Q 396 737 437 744 Q 453 745 457 752 Q 461 762 449 773 Q 430 789 387 806 Q 372 813 360 812 Q 353 808 352 798 Q 352 761 153 671 Q 149 664 153 660 Q 168 660 277 691 L 306 700 Z" class="stroke1"/>
    <path d="M 336 540 Q 376 553 427 565 Q 443 569 444 576 Q 444 589 424 597 Q 391 609 339 588 L 295 574 Q 148 531 82 517 Q 69 514 66 506 Q 65 494 81 484 Q 127 460 165 477 Q 231 507 277 522 L 336 540 Z" class="stroke2"/>
    <path d="M 333 455 Q 333 477 336 540 L 339 588 Q 342 631 347 655 Q 350 668 342 674 Q 323 690 306 700 C 281 717 265 719 277 691 Q 277 690 279 687 Q 294 663 295 574 L 292 446 Q 277 161 261 124 Q 249 91 283 36 L 285 33 Q 295 14 304 9 Q 316 8 321 21 Q 334 54 331 85 Q 330 275 333 434 L 333 455 Z" class="stroke3"/>
    <path d="M 277 522 Q 246 450 204 387 Q 158 317 51 193 Q 45 183 56 182 Q 62 181 72 189 Q 204 289 292 446 C 348 545 289 549 277 522 Z" class="stroke4"/>
    <path d="M 333 434 Q 340 427 355 415 Q 374 399 396 378 Q 408 368 421 369 Q 430 369 433 380 Q 437 393 429 417 Q 420 441 350 454 Q 337 457 333 455 C 315 452 315 452 333 434 Z" class="stroke5"/>
    <path d="M 545 758 Q 533 764 504 769 Q 492 772 489 767 Q 482 760 491 744 Q 522 680 539 576 Q 542 545 560 523 Q 578 501 583 517 Q 584 524 586 532 L 586 561 Q 585 573 583 586 Q 579 611 575 631 L 571 653 Q 562 705 560 726 C 557 753 557 753 545 758 Z" class="stroke6"/>
    <path d="M 737 549 Q 756 521 773 513 Q 783 506 799 527 Q 812 551 839 678 Q 848 709 871 736 Q 884 749 872 763 Q 856 779 813 806 Q 795 813 725 796 Q 698 796 545 758 C 516 751 531 718 560 726 Q 624 745 739 762 Q 763 765 773 758 Q 786 748 784 729 Q 766 608 757 589 Q 753 576 738 573 C 725 566 725 566 737 549 Z" class="stroke7"/>
    <path d="M 575 631 Q 581 630 589 631 Q 664 643 719 649 Q 741 653 733 665 Q 723 678 699 683 Q 669 687 571 653 C 543 643 545 634 575 631 Z" class="stroke8"/>
    <path d="M 586 532 Q 592 531 601 533 Q 644 543 737 549 C 764 551 761 553 738 573 Q 734 577 726 582 Q 711 589 685 583 Q 631 570 586 561 C 557 555 556 534 586 532 Z" class="stroke9"/>
    <path d="M 673 427 Q 694 433 792 446 Q 802 445 809 456 Q 810 466 790 476 Q 757 492 683 471 Q 673 470 664 466 Q 625 457 523 442 Q 498 438 518 423 Q 548 402 595 412 Q 607 415 623 417 L 673 427 Z" class="stroke10"/>
    <path d="M 700 287 Q 778 297 940 297 Q 959 297 963 306 Q 969 316 952 330 Q 894 373 848 355 Q 788 343 702 327 L 645 318 Q 539 303 416 286 Q 395 283 411 267 Q 424 254 442 249 Q 463 245 478 248 Q 556 270 645 280 L 700 287 Z" class="stroke11"/>
    <path d="M 645 280 Q 645 -45 653 -63 Q 654 -69 658 -73 Q 664 -80 671 -78 Q 698 -60 698 97 Q 697 139 700 287 L 702 327 Q 703 345 705 356 Q 708 372 710 385 Q 714 401 700 411 Q 684 421 673 427 C 647 442 612 445 623 417 Q 633 390 645 361 Q 645 340 645 318 L 645 280 Z" class="stroke12"/>
    
    
    
    
    
    
    
    
    
    
    
    </g>
</svg>