<svg version="1.1" viewBox="0 0 1024 1024" xmlns="http://www.w3.org/2000/svg">
  
  <g transform="scale(1, -1) translate(0, -900)">
    <style type="text/css">
        .stroke1 {fill: #808080;}
        .stroke2 {fill: #808079;}
        .stroke3 {fill: #808078;}
        .stroke4 {fill: #808077;}
        .stroke5 {fill: #808076;}
        .stroke6 {fill: #808075;}
        .stroke7 {fill: #808074;}
        .stroke8 {fill: #808073;}
        .stroke9 {fill: #808072;}
        .stroke10 {fill: #808071;}
        .stroke11 {fill: #808070;}
        .stroke12 {fill: #808069;}
        .stroke13 {fill: #808068;}
        .stroke14 {fill: #808067;}
        .stroke15 {fill: #808066;}
        .stroke16 {fill: #808065;}
        .stroke17 {fill: #808064;}
        .stroke18 {fill: #808063;}
        .stroke19 {fill: #808062;}
        .stroke20 {fill: #808061;}
        text {
            font-family: Helvetica;
            font-size: 50px;
            fill: #808060;
            paint-order: stroke;
            stroke: #000000;
            stroke-width: 4px;
            stroke-linecap: butt;
            stroke-linejoin: miter;
            font-weight: 800;
        }
    </style>

    <path d="M 316 681 Q 397 726 427 734 Q 443 735 445 744 Q 446 754 435 763 Q 414 775 372 786 Q 357 792 345 789 Q 339 785 340 775 Q 341 741 188 643 Q 184 634 189 632 Q 201 632 273 663 Q 279 666 285 668 L 316 681 Z" class="stroke1"/>
    <path d="M 341 521 Q 377 531 423 540 Q 439 543 439 550 Q 439 563 421 569 Q 394 581 343 563 L 299 550 Q 134 505 78 497 Q 66 496 64 487 Q 61 477 76 467 Q 116 443 153 459 Q 225 486 277 503 L 341 521 Z" class="stroke2"/>
    <path d="M 338 419 Q 338 458 341 521 L 343 563 Q 344 612 351 639 Q 354 652 347 658 Q 331 673 316 681 C 291 698 275 696 285 668 Q 298 647 299 550 L 297 437 Q 281 139 268 107 Q 259 68 292 17 Q 304 -2 312 -6 Q 324 -7 329 6 Q 342 37 338 69 Q 335 246 337 397 L 338 419 Z" class="stroke3"/>
    <path d="M 277 503 Q 222 367 54 157 Q 50 147 60 146 Q 66 145 75 154 Q 214 268 297 437 C 342 527 289 532 277 503 Z" class="stroke4"/>
    <path d="M 337 397 Q 344 390 361 378 Q 386 357 414 333 Q 427 323 440 324 Q 449 325 453 336 Q 457 349 448 375 Q 435 403 355 419 Q 342 420 338 419 C 316 417 316 417 337 397 Z" class="stroke5"/>
    <path d="M 698 716 Q 741 729 787 739 Q 830 751 836 757 Q 843 764 839 771 Q 832 780 809 785 Q 784 789 761 778 Q 731 768 701 756 L 648 741 Q 596 728 534 718 Q 504 712 526 700 Q 559 682 608 695 Q 627 701 649 705 L 698 716 Z" class="stroke6"/>
    <path d="M 691 619 Q 728 629 768 637 Q 799 644 804 649 Q 811 656 807 663 Q 800 672 777 677 Q 755 681 694 659 L 650 645 Q 610 636 562 630 Q 532 624 554 612 Q 593 593 648 609 L 650 609 L 691 619 Z" class="stroke7"/>
    <path d="M 687 552 Q 688 586 691 619 L 694 659 Q 695 689 698 716 L 701 756 Q 704 786 714 817 Q 717 827 699 839 Q 668 855 647 859 Q 634 862 626 855 Q 619 848 627 835 Q 643 811 648 741 L 649 705 Q 650 677 650 645 L 650 609 Q 650 579 650 546 C 650 516 686 522 687 552 Z" class="stroke8"/>
    <path d="M 650 546 Q 548 530 433 511 Q 417 508 430 495 Q 457 471 487 480 Q 688 543 949 544 Q 950 544 952 544 Q 968 545 972 552 Q 976 562 962 572 Q 917 602 887 594 Q 812 578 687 552 L 650 546 Z" class="stroke9"/>
    <path d="M 562 441 Q 546 451 529 456 Q 522 457 517 451 Q 514 447 520 438 Q 553 354 529 233 Q 520 206 525 187 Q 534 160 543 150 Q 553 140 560 151 Q 564 158 568 167 L 576 199 Q 577 212 578 259 L 578 282 Q 578 309 578 338 L 578 363 Q 578 402 581 415 C 583 429 583 429 562 441 Z" class="stroke10"/>
    <path d="M 762 187 Q 762 172 772 157 Q 785 129 794 130 Q 807 131 823 163 Q 833 184 835 217 Q 813 370 844 421 Q 854 436 847 444 Q 822 466 778 485 Q 765 491 743 483 Q 692 462 562 441 C 532 436 552 407 581 415 Q 581 416 582 416 Q 667 435 728 446 Q 749 450 756 439 Q 768 424 769 373 Q 772 249 766 210 L 762 187 Z" class="stroke11"/>
    <path d="M 578 338 Q 647 338 723 363 Q 723 364 724 364 Q 730 370 726 376 Q 722 383 701 389 Q 679 392 659 383 Q 650 380 578 363 C 549 356 548 338 578 338 Z" class="stroke12"/>
    <path d="M 578 259 Q 593 256 697 272 Q 701 273 707 274 Q 725 278 727 280 Q 733 286 730 292 Q 726 299 705 305 Q 684 309 663 301 Q 644 294 621 289 Q 600 285 578 282 C 548 278 548 262 578 259 Z" class="stroke13"/>
    <path d="M 568 167 Q 574 166 584 168 Q 639 180 762 187 C 792 189 789 191 766 210 Q 759 216 748 223 Q 732 232 704 225 Q 634 209 576 199 C 546 194 538 168 568 167 Z" class="stroke14"/>
    <path d="M 565 124 Q 550 67 394 -41 Q 372 -53 398 -52 Q 450 -55 580 43 Q 583 50 628 85 Q 638 95 638 104 Q 637 117 613 126 Q 588 138 576 136 Q 569 136 565 124 Z" class="stroke15"/>
    <path d="M 713 91 Q 755 39 804 -35 Q 817 -57 831 -64 Q 840 -67 849 -58 Q 864 -46 858 0 Q 855 54 719 122 Q 710 129 707 116 Q 704 103 713 91 Z" class="stroke16"/>
    
    
    
    
    
    
    
    
    
    
    
    
    
    
    
    </g>
</svg>