<svg version="1.1" viewBox="0 0 1024 1024" xmlns="http://www.w3.org/2000/svg">
  
  <g transform="scale(1, -1) translate(0, -900)">
    <style type="text/css">
        .stroke1 {fill: #808080;}
        .stroke2 {fill: #808079;}
        .stroke3 {fill: #808078;}
        .stroke4 {fill: #808077;}
        .stroke5 {fill: #808076;}
        .stroke6 {fill: #808075;}
        .stroke7 {fill: #808074;}
        .stroke8 {fill: #808073;}
        .stroke9 {fill: #808072;}
        .stroke10 {fill: #808071;}
        .stroke11 {fill: #808070;}
        .stroke12 {fill: #808069;}
        .stroke13 {fill: #808068;}
        .stroke14 {fill: #808067;}
        .stroke15 {fill: #808066;}
        .stroke16 {fill: #808065;}
        .stroke17 {fill: #808064;}
        .stroke18 {fill: #808063;}
        .stroke19 {fill: #808062;}
        .stroke20 {fill: #808061;}
        text {
            font-family: Helvetica;
            font-size: 50px;
            fill: #808060;
            paint-order: stroke;
            stroke: #000000;
            stroke-width: 4px;
            stroke-linecap: butt;
            stroke-linejoin: miter;
            font-weight: 800;
        }
    </style>

    <path d="M 311 678 Q 377 714 424 724 Q 439 725 442 732 Q 445 742 434 751 Q 385 785 349 781 Q 343 778 343 768 Q 346 732 180 647 Q 176 638 181 636 Q 196 636 268 663 Q 274 664 281 667 L 311 678 Z" class="stroke1"/>
    <path d="M 338 517 Q 381 527 434 536 Q 450 539 450 546 Q 451 558 434 566 Q 400 579 339 558 L 298 547 Q 145 511 75 501 Q 63 500 61 492 Q 58 482 73 471 Q 112 447 149 460 Q 225 488 278 503 Q 279 504 283 504 L 338 517 Z" class="stroke2"/>
    <path d="M 336 442 Q 336 482 338 517 L 339 558 Q 340 610 347 637 Q 348 650 342 655 Q 326 670 311 678 C 286 694 271 695 281 667 Q 293 649 298 547 L 297 432 Q 296 413 296 391 Q 289 187 273 142 Q 264 108 297 56 Q 307 37 316 34 Q 326 33 332 45 Q 344 76 340 106 Q 336 272 336 414 L 336 442 Z" class="stroke3"/>
    <path d="M 283 504 Q 228 384 71 209 Q 65 199 76 198 Q 95 195 203 303 Q 252 354 297 432 C 350 523 296 531 283 504 Z" class="stroke4"/>
    <path d="M 336 414 Q 400 354 410 350 Q 410 351 413 350 Q 420 351 425 361 Q 429 371 424 395 Q 417 422 345 441 Q 339 442 336 442 C 306 444 314 435 336 414 Z" class="stroke5"/>
    <path d="M 584 695 Q 659 786 677 798 Q 693 811 680 825 Q 664 837 638 844 Q 614 851 604 845 Q 594 841 599 830 Q 608 806 568 724 Q 559 708 550 687 C 538 660 565 672 584 695 Z" class="stroke6"/>
    <path d="M 474 679 Q 464 680 460 676 Q 456 670 464 656 Q 492 611 513 534 Q 517 512 533 497 Q 551 479 554 493 Q 555 499 555 506 L 553 527 Q 552 534 550 544 Q 546 562 542 576 L 537 597 Q 528 634 526 649 C 521 679 504 679 474 679 Z" class="stroke7"/>
    <path d="M 735 529 Q 735 528 736 527 Q 740 512 751 513 Q 764 514 771 527 Q 781 537 802 593 Q 817 639 850 665 Q 866 678 853 693 Q 837 708 793 732 Q 781 741 714 724 Q 681 724 584 695 L 550 687 Q 496 678 474 679 C 444 678 498 639 526 649 Q 587 671 730 698 Q 755 701 765 697 Q 772 691 767 667 Q 749 577 736 555 C 729 539 729 539 735 529 Z" class="stroke8"/>
    <path d="M 542 576 Q 546 576 554 577 Q 633 593 694 605 Q 712 609 705 618 Q 696 628 677 632 Q 659 633 537 597 C 508 589 512 574 542 576 Z" class="stroke9"/>
    <path d="M 622 514 Q 683 524 735 529 C 765 532 765 546 736 555 Q 732 556 727 558 Q 705 562 553 527 C 524 520 525 505 555 506 Q 567 506 588 509 L 622 514 Z" class="stroke10"/>
    <path d="M 637 362 Q 640 371 644 444 Q 645 460 648 479 Q 652 497 637 506 Q 630 510 622 514 C 595 528 585 533 588 509 Q 588 506 589 502 Q 601 478 598 386 Q 595 370 614 342 C 628 320 631 333 637 362 Z" class="stroke11"/>
    <path d="M 493 459 Q 480 423 461 391 Q 448 364 463 341 Q 470 328 484 339 Q 520 369 516 417 Q 517 442 511 460 Q 507 467 502 467 Q 496 466 493 459 Z" class="stroke12"/>
    <path d="M 803 448 Q 840 421 880 389 Q 893 377 907 379 Q 917 380 921 392 Q 925 405 915 433 Q 908 455 872 471 Q 787 498 776 491 Q 772 487 773 475 Q 777 465 803 448 Z" class="stroke13"/>
    <path d="M 614 342 Q 566 302 455 248 Q 448 247 455 242 Q 507 236 611 296 Q 615 300 622 303 Q 662 328 729 386 Q 738 393 743 396 Q 750 399 751 406 Q 752 413 745 425 Q 730 452 702 457 Q 695 457 694 448 Q 694 420 637 362 L 614 342 Z" class="stroke14"/>
    <path d="M 729 348 Q 723 288 591 197 Q 588 197 586 194 Q 549 170 459 129 Q 452 128 459 122 Q 565 110 764 283 Q 774 290 780 294 Q 787 297 787 305 Q 788 312 781 325 Q 766 353 737 358 Q 730 358 729 348 Z" class="stroke15"/>
    <path d="M 749 231 Q 742 147 572 38 Q 569 37 566 34 Q 517 4 404 -49 Q 395 -52 404 -57 Q 534 -69 792 149 Q 805 159 813 164 Q 820 167 822 177 Q 823 187 815 202 Q 791 238 759 243 Q 750 243 749 231 Z" class="stroke16"/>
    
    
    
    
    
    
    
    
    
    
    
    
    
    
    
    </g>
</svg>