<svg version="1.1" viewBox="0 0 1024 1024" xmlns="http://www.w3.org/2000/svg">
  
  <g transform="scale(1, -1) translate(0, -900)">
    <style type="text/css">
        .stroke1 {fill: #808080;}
        .stroke2 {fill: #808079;}
        .stroke3 {fill: #808078;}
        .stroke4 {fill: #808077;}
        .stroke5 {fill: #808076;}
        .stroke6 {fill: #808075;}
        .stroke7 {fill: #808074;}
        .stroke8 {fill: #808073;}
        .stroke9 {fill: #808072;}
        .stroke10 {fill: #808071;}
        .stroke11 {fill: #808070;}
        .stroke12 {fill: #808069;}
        .stroke13 {fill: #808068;}
        .stroke14 {fill: #808067;}
        .stroke15 {fill: #808066;}
        .stroke16 {fill: #808065;}
        .stroke17 {fill: #808064;}
        .stroke18 {fill: #808063;}
        .stroke19 {fill: #808062;}
        .stroke20 {fill: #808061;}
        text {
            font-family: Helvetica;
            font-size: 50px;
            fill: #808060;
            paint-order: stroke;
            stroke: #000000;
            stroke-width: 4px;
            stroke-linecap: butt;
            stroke-linejoin: miter;
            font-weight: 800;
        }
    </style>

    <path d="M 327 657 Q 349 700 372 733 Q 381 746 367 759 Q 325 790 300 785 Q 290 782 293 768 Q 306 671 209 555 Q 184 528 172 512 Q 165 496 180 502 Q 196 505 219 524 Q 280 576 317 640 L 327 657 Z" class="stroke1"/>
    <path d="M 317 640 Q 326 631 357 626 Q 369 625 481 647 Q 529 659 532 662 Q 539 669 535 677 Q 528 687 501 693 Q 473 697 447 686 Q 422 677 395 670 Q 367 663 331 658 Q 328 658 327 657 C 301 652 301 652 317 640 Z" class="stroke2"/>
    <path d="M 374 546 Q 404 524 434 498 Q 446 488 458 489 Q 465 490 469 500 Q 473 512 464 535 Q 455 562 369 583 Q 356 584 352 583 Q 348 579 350 569 Q 353 562 374 546 Z" class="stroke3"/>
    <path d="M 660 683 Q 666 705 704 770 Q 711 783 696 796 Q 648 826 626 818 Q 616 814 619 800 Q 643 722 562 598 Q 556 595 524 544 Q 517 528 532 534 Q 548 538 568 559 Q 617 605 646 657 L 660 683 Z" class="stroke4"/>
    <path d="M 646 657 Q 685 642 749 651 Q 801 660 857 668 Q 885 672 890 677 Q 899 684 895 692 Q 888 704 860 712 Q 832 719 802 708 Q 769 699 734 692 Q 700 686 660 683 C 630 681 618 667 646 657 Z" class="stroke5"/>
    <path d="M 685 550 Q 716 526 750 497 Q 763 487 776 488 Q 785 489 789 500 Q 793 513 784 539 Q 772 570 679 591 Q 666 592 660 591 Q 656 587 657 576 Q 661 566 685 550 Z" class="stroke6"/>
    <path d="M 356 315 Q 390 322 424 325 Q 446 326 451 320 Q 461 304 453 261 Q 434 143 404 93 Q 388 68 365 72 Q 340 82 318 95 Q 296 105 309 82 Q 351 36 368 0 Q 387 -22 407 -4 Q 438 18 459 57 Q 484 102 504 244 Q 511 293 529 318 Q 541 330 535 340 Q 528 350 479 374 Q 460 383 441 371 Q 422 361 365 348 L 312 337 Q 218 318 139 316 Q 123 316 119 308 Q 118 301 140 288 Q 162 272 182 279 Q 246 295 302 305 L 356 315 Z" class="stroke7"/>
    <path d="M 302 305 Q 254 167 101 5 Q 95 -2 102 -5 Q 109 -6 120 -1 Q 186 39 237 98 Q 289 152 318 216 Q 337 258 356 315 L 365 348 Q 377 405 396 450 Q 403 460 396 470 Q 389 479 356 492 Q 334 501 324 497 Q 311 491 315 477 Q 328 420 316 355 Q 315 348 312 337 L 302 305 Z" class="stroke8"/>
    <path d="M 620 346 Q 607 352 581 357 Q 568 361 565 356 Q 558 350 566 334 Q 597 255 611 128 Q 612 91 632 64 Q 648 42 655 57 Q 662 78 660 113 L 656 149 Q 637 279 634 316 C 632 341 632 341 620 346 Z" class="stroke9"/>
    <path d="M 840 174 Q 864 285 895 318 Q 920 346 896 362 Q 875 375 846 394 Q 827 407 805 395 Q 745 362 620 346 C 590 342 604 311 634 316 Q 643 317 768 343 Q 802 350 810 336 Q 820 327 809 282 Q 799 231 783 172 C 775 143 833 145 840 174 Z" class="stroke10"/>
    <path d="M 660 113 Q 666 113 674 114 Q 734 124 862 132 Q 874 133 875 142 Q 876 151 844 173 Q 843 174 840 174 L 783 172 Q 713 159 656 149 C 626 144 630 112 660 113 Z" class="stroke11"/>
    
    
    
    
    
    
    
    
    
    
    </g>
</svg>