<svg version="1.1" viewBox="0 0 1024 1024" xmlns="http://www.w3.org/2000/svg">
  
  <g transform="scale(1, -1) translate(0, -900)">
    <style type="text/css">
        .stroke1 {fill: #808080;}
        .stroke2 {fill: #808079;}
        .stroke3 {fill: #808078;}
        .stroke4 {fill: #808077;}
        .stroke5 {fill: #808076;}
        .stroke6 {fill: #808075;}
        .stroke7 {fill: #808074;}
        .stroke8 {fill: #808073;}
        .stroke9 {fill: #808072;}
        .stroke10 {fill: #808071;}
        .stroke11 {fill: #808070;}
        .stroke12 {fill: #808069;}
        .stroke13 {fill: #808068;}
        .stroke14 {fill: #808067;}
        .stroke15 {fill: #808066;}
        .stroke16 {fill: #808065;}
        .stroke17 {fill: #808064;}
        .stroke18 {fill: #808063;}
        .stroke19 {fill: #808062;}
        .stroke20 {fill: #808061;}
        text {
            font-family: Helvetica;
            font-size: 50px;
            fill: #808060;
            paint-order: stroke;
            stroke: #000000;
            stroke-width: 4px;
            stroke-linecap: butt;
            stroke-linejoin: miter;
            font-weight: 800;
        }
    </style>

    <path d="M 343 725 Q 358 753 373 776 Q 383 789 368 803 Q 323 834 299 829 Q 287 826 291 812 Q 307 725 216 604 Q 209 601 176 556 Q 169 540 184 546 Q 200 550 223 568 Q 292 626 328 698 L 343 725 Z" class="stroke1"/>
    <path d="M 328 698 Q 362 694 417 700 Q 453 709 494 716 Q 516 720 519 724 Q 526 731 523 738 Q 516 748 491 754 Q 490 754 343 725 C 314 719 298 701 328 698 Z" class="stroke2"/>
    <path d="M 350 609 Q 366 596 382 578 Q 392 568 405 569 Q 414 570 417 581 Q 421 591 413 615 Q 409 628 388 636 Q 337 651 328 647 Q 324 643 325 633 Q 329 626 350 609 Z" class="stroke3"/>
    <path d="M 650 761 Q 665 788 680 810 Q 690 822 675 835 Q 636 865 608 861 Q 598 858 601 844 Q 616 766 523 648 Q 513 636 508 628 Q 501 612 516 618 Q 568 630 633 730 L 650 761 Z" class="stroke4"/>
    <path d="M 633 730 Q 673 726 745 741 Q 844 765 852 770 Q 859 777 855 785 Q 848 795 821 801 Q 793 805 767 793 Q 737 783 705 773 Q 680 767 650 761 C 621 755 603 732 633 730 Z" class="stroke5"/>
    <path d="M 657 648 Q 679 632 701 613 Q 711 604 723 606 Q 730 607 734 616 Q 735 628 728 649 Q 724 662 700 672 Q 643 687 636 682 Q 632 679 634 670 Q 637 663 657 648 Z" class="stroke6"/>
    <path d="M 305 349 Q 374 431 389 442 Q 399 451 396 464 Q 395 477 371 501 Q 349 520 331 523 Q 313 524 318 503 Q 327 475 313 452 Q 271 379 214 314 Q 159 251 86 184 Q 76 175 73 170 Q 69 160 81 161 Q 126 161 283 324 L 305 349 Z" class="stroke7"/>
    <path d="M 283 324 Q 284 318 289 312 Q 317 254 285 99 Q 264 41 303 -5 L 304 -6 Q 320 -19 330 4 Q 343 38 342 79 Q 343 238 349 273 Q 356 297 347 306 Q 331 324 320 336 Q 313 343 305 349 C 282 368 271 351 283 324 Z" class="stroke8"/>
    <path d="M 577 373 Q 715 424 718 426 Q 725 435 720 442 Q 713 452 685 455 Q 657 456 631 443 Q 598 427 566 413 L 522 396 Q 467 377 404 363 Q 371 353 397 341 Q 442 326 518 353 Q 525 356 535 358 L 577 373 Z" class="stroke9"/>
    <path d="M 616 178 Q 692 43 810 -27 Q 885 -64 904 -48 Q 922 -38 914 -3 Q 907 33 910 158 Q 911 179 906 182 Q 902 183 896 165 Q 851 48 826 47 Q 738 69 652 205 L 627 250 Q 600 304 577 373 L 566 413 Q 551 467 558 514 Q 564 539 519 557 Q 483 572 467 566 Q 449 562 462 537 Q 490 503 502 461 Q 511 428 522 396 L 535 358 Q 563 271 593 220 L 616 178 Z" class="stroke10"/>
    <path d="M 593 220 Q 527 171 404 107 Q 395 104 404 99 Q 464 89 607 172 Q 610 175 614 177 Q 614 178 616 178 L 652 205 Q 692 236 747 283 Q 774 307 775 310 Q 776 320 767 334 Q 742 373 711 374 Q 702 375 701 362 Q 697 317 627 250 L 593 220 Z" class="stroke11"/>
    <path d="M 705 508 Q 732 493 761 474 Q 776 465 790 469 Q 799 470 801 484 Q 802 497 789 523 Q 780 539 751 546 Q 682 558 671 547 Q 667 543 671 531 Q 677 522 705 508 Z" class="stroke12"/>
    
    
    
    
    
    
    
    
    
    
    
    </g>
</svg>