<svg version="1.1" viewBox="0 0 1024 1024" xmlns="http://www.w3.org/2000/svg">
  
  <g transform="scale(1, -1) translate(0, -900)">
    <style type="text/css">
        .stroke1 {fill: #808080;}
        .stroke2 {fill: #808079;}
        .stroke3 {fill: #808078;}
        .stroke4 {fill: #808077;}
        .stroke5 {fill: #808076;}
        .stroke6 {fill: #808075;}
        .stroke7 {fill: #808074;}
        .stroke8 {fill: #808073;}
        .stroke9 {fill: #808072;}
        .stroke10 {fill: #808071;}
        .stroke11 {fill: #808070;}
        .stroke12 {fill: #808069;}
        .stroke13 {fill: #808068;}
        .stroke14 {fill: #808067;}
        .stroke15 {fill: #808066;}
        .stroke16 {fill: #808065;}
        .stroke17 {fill: #808064;}
        .stroke18 {fill: #808063;}
        .stroke19 {fill: #808062;}
        .stroke20 {fill: #808061;}
        text {
            font-family: Helvetica;
            font-size: 50px;
            fill: #808060;
            paint-order: stroke;
            stroke: #000000;
            stroke-width: 4px;
            stroke-linecap: butt;
            stroke-linejoin: miter;
            font-weight: 800;
        }
    </style>

    <path d="M 342 685 Q 360 716 379 739 Q 389 751 375 766 Q 332 799 307 796 Q 297 793 298 779 Q 310 691 211 577 Q 202 573 169 532 Q 162 517 176 521 Q 192 524 216 541 Q 285 593 325 658 L 342 685 Z" class="stroke1"/>
    <path d="M 325 658 Q 373 643 413 656 Q 453 663 494 673 Q 513 677 516 681 Q 525 688 519 697 Q 512 707 484 714 Q 454 718 425 705 Q 413 701 342 685 C 313 678 296 666 325 658 Z" class="stroke2"/>
    <path d="M 353 562 Q 393 517 408 518 Q 417 518 421 529 Q 425 541 419 565 Q 415 578 394 588 Q 343 606 332 603 Q 328 599 329 589 Q 330 579 353 562 Z" class="stroke3"/>
    <path d="M 649 709 Q 671 749 693 780 Q 703 793 687 807 Q 645 838 619 833 Q 607 830 611 816 Q 629 732 535 614 Q 523 608 497 568 Q 490 552 504 558 Q 520 561 542 579 Q 600 628 635 684 L 649 709 Z" class="stroke4"/>
    <path d="M 635 684 Q 674 663 725 678 Q 776 688 828 699 Q 852 705 856 709 Q 863 716 859 725 Q 852 735 824 742 Q 794 748 766 735 Q 739 726 710 719 Q 682 713 649 709 C 619 705 608 697 635 684 Z" class="stroke5"/>
    <path d="M 677 587 Q 695 572 714 555 Q 727 545 743 546 Q 753 547 757 560 Q 760 575 749 602 Q 743 617 719 624 Q 656 636 648 631 Q 644 627 646 615 Q 650 605 677 587 Z" class="stroke6"/>
    <path d="M 523 432 Q 685 459 693 465 Q 702 472 698 480 Q 692 493 664 501 Q 634 508 535 480 Q 409 459 335 455 Q 299 451 324 433 Q 363 408 469 425 L 523 432 Z" class="stroke7"/>
    <path d="M 469 425 Q 481 401 484 291 Q 484 219 485 81 C 485 51 531 54 532 84 Q 539 363 543 387 Q 550 409 523 432 C 501 453 459 453 469 425 Z" class="stroke8"/>
    <path d="M 298 359 Q 310 269 206 164 Q 190 148 181 135 Q 174 122 187 125 Q 203 128 224 143 Q 279 186 316 237 L 330 260 Q 352 294 373 322 Q 383 332 369 347 Q 332 377 307 375 Q 297 374 298 359 Z" class="stroke9"/>
    <path d="M 316 237 Q 320 231 330 223 Q 364 193 398 158 Q 408 148 421 147 Q 428 147 433 157 Q 437 167 432 191 Q 428 213 397 232 Q 366 248 330 260 C 302 270 297 261 316 237 Z" class="stroke10"/>
    <path d="M 665 404 Q 680 301 593 212 Q 572 190 564 176 Q 557 160 572 166 Q 614 175 670 250 L 685 271 Q 694 286 703 300 Q 724 339 744 370 Q 754 382 739 395 Q 700 425 672 421 Q 662 418 665 404 Z" class="stroke11"/>
    <path d="M 670 250 Q 677 243 692 232 Q 731 205 772 173 Q 784 163 797 164 Q 806 165 809 176 Q 812 189 803 213 Q 796 235 761 251 Q 725 263 685 271 C 656 277 648 271 670 250 Z" class="stroke12"/>
    <path d="M 485 81 Q 419 80 250 51 Q 196 45 147 48 Q 137 49 129 43 Q 120 36 127 25 Q 137 10 193 -21 Q 208 -27 229 -19 Q 379 36 541 46 Q 665 58 898 11 Q 917 7 925 16 Q 932 28 913 45 Q 832 111 792 101 Q 768 95 714 91 Q 623 90 539 85 Q 535 85 532 84 L 485 81 Z" class="stroke13"/>
    
    
    
    
    
    
    
    
    
    
    
    
    </g>
</svg>