<svg version="1.1" viewBox="0 0 1024 1024" xmlns="http://www.w3.org/2000/svg">
  
  <g transform="scale(1, -1) translate(0, -900)">
    <style type="text/css">
        .stroke1 {fill: #808080;}
        .stroke2 {fill: #808079;}
        .stroke3 {fill: #808078;}
        .stroke4 {fill: #808077;}
        .stroke5 {fill: #808076;}
        .stroke6 {fill: #808075;}
        .stroke7 {fill: #808074;}
        .stroke8 {fill: #808073;}
        .stroke9 {fill: #808072;}
        .stroke10 {fill: #808071;}
        .stroke11 {fill: #808070;}
        .stroke12 {fill: #808069;}
        .stroke13 {fill: #808068;}
        .stroke14 {fill: #808067;}
        .stroke15 {fill: #808066;}
        .stroke16 {fill: #808065;}
        .stroke17 {fill: #808064;}
        .stroke18 {fill: #808063;}
        .stroke19 {fill: #808062;}
        .stroke20 {fill: #808061;}
        text {
            font-family: Helvetica;
            font-size: 50px;
            fill: #808060;
            paint-order: stroke;
            stroke: #000000;
            stroke-width: 4px;
            stroke-linecap: butt;
            stroke-linejoin: miter;
            font-weight: 800;
        }
    </style>

    <path d="M 336 730 Q 348 752 361 769 Q 368 781 356 792 Q 323 819 298 816 Q 288 815 290 801 Q 303 726 226 630 Q 213 621 189 586 Q 182 573 195 578 Q 208 579 228 596 Q 289 644 321 704 Q 322 708 324 710 L 336 730 Z" class="stroke1"/>
    <path d="M 324 710 Q 360 695 439 713 Q 496 725 504 729 Q 511 736 507 743 Q 500 752 477 757 Q 465 760 385 738 Q 361 734 336 730 C 306 725 296 720 324 710 Z" class="stroke2"/>
    <path d="M 340 643 Q 391 600 405 600 Q 415 600 419 615 Q 419 625 410 640 Q 386 664 341 664 Q 334 665 334 656 Q 334 649 340 643 Z" class="stroke3"/>
    <path d="M 600 750 Q 613 781 628 808 Q 635 820 622 830 Q 582 855 561 847 Q 551 844 555 832 Q 573 763 503 656 Q 497 649 495 642 Q 491 629 503 634 Q 545 650 590 731 L 600 750 Z" class="stroke4"/>
    <path d="M 590 731 Q 626 712 669 723 Q 727 735 787 747 Q 815 754 819 757 Q 826 764 822 771 Q 816 780 793 786 Q 769 790 745 781 Q 714 771 680 762 Q 643 755 600 750 C 570 746 563 744 590 731 Z" class="stroke5"/>
    <path d="M 636 647 Q 670 626 707 599 Q 719 590 730 592 Q 739 593 741 604 Q 744 616 734 638 Q 722 668 628 684 Q 616 685 612 683 Q 608 679 610 669 Q 614 662 636 647 Z" class="stroke6"/>
    <path d="M 487 518 Q 661 548 670 554 Q 677 561 674 569 Q 668 581 642 588 Q 615 595 587 585 Q 547 573 504 563 L 441 550 Q 381 541 314 537 Q 280 533 303 517 Q 339 493 395 504 Q 411 508 431 508 L 487 518 Z" class="stroke7"/>
    <path d="M 452 419 Q 522 434 651 446 Q 660 445 669 456 Q 670 466 650 477 Q 623 498 542 475 Q 494 466 466 459 L 412 450 Q 394 449 378 446 Q 339 443 296 438 Q 271 435 290 419 Q 315 398 362 404 Q 378 407 398 410 L 452 419 Z" class="stroke8"/>
    <path d="M 614 340 Q 642 341 814 342 Q 833 341 839 350 Q 843 360 828 374 Q 774 414 716 400 Q 626 384 486 365 Q 458 362 427 357 L 376 351 Q 279 341 172 329 Q 153 328 167 311 Q 180 298 197 292 Q 218 286 233 291 Q 293 307 359 317 L 412 324 Q 470 334 573 339 L 614 340 Z" class="stroke9"/>
    <path d="M 427 357 Q 439 387 452 419 L 466 459 Q 476 487 487 518 L 504 563 Q 507 569 509 572 Q 519 590 503 604 Q 466 638 451 640 Q 432 641 441 618 Q 448 587 441 550 L 431 508 Q 424 483 412 450 L 398 410 Q 379 359 376 351 L 359 317 Q 281 170 152 104 Q 110 88 98 74 Q 94 67 105 65 Q 144 55 240 112 Q 345 178 412 324 L 427 357 Z" class="stroke10"/>
    <path d="M 650 230 Q 665 234 793 245 Q 803 244 812 255 Q 813 265 792 277 Q 762 299 677 277 Q 667 276 656 272 L 600 261 Q 549 255 389 239 Q 362 236 382 219 Q 412 195 440 199 Q 510 212 602 224 L 650 230 Z" class="stroke11"/>
    <path d="M 568 51 Q 538 55 510 59 Q 498 62 499 54 Q 500 48 510 41 Q 576 -14 600 -48 Q 613 -63 629 -50 Q 662 -14 657 77 Q 651 171 650 230 L 656 272 Q 657 279 661 285 Q 670 303 654 315 Q 635 331 614 340 C 587 353 562 366 573 339 Q 573 335 580 323 Q 596 295 600 261 L 602 224 Q 608 68 590 53 Q 581 46 568 51 Z" class="stroke12"/>
    <path d="M 406 146 Q 434 122 465 92 Q 474 83 486 83 Q 493 83 497 93 Q 501 103 495 125 Q 491 144 463 159 Q 403 187 388 182 Q 384 179 385 170 Q 386 163 406 146 Z" class="stroke13"/>
    
    
    
    
    
    
    
    
    
    
    
    
    </g>
</svg>