<svg version="1.1" viewBox="0 0 1024 1024" xmlns="http://www.w3.org/2000/svg">
  
  <g transform="scale(1, -1) translate(0, -900)">
    <style type="text/css">
        .stroke1 {fill: #808080;}
        .stroke2 {fill: #808079;}
        .stroke3 {fill: #808078;}
        .stroke4 {fill: #808077;}
        .stroke5 {fill: #808076;}
        .stroke6 {fill: #808075;}
        .stroke7 {fill: #808074;}
        .stroke8 {fill: #808073;}
        .stroke9 {fill: #808072;}
        .stroke10 {fill: #808071;}
        .stroke11 {fill: #808070;}
        .stroke12 {fill: #808069;}
        .stroke13 {fill: #808068;}
        .stroke14 {fill: #808067;}
        .stroke15 {fill: #808066;}
        .stroke16 {fill: #808065;}
        .stroke17 {fill: #808064;}
        .stroke18 {fill: #808063;}
        .stroke19 {fill: #808062;}
        .stroke20 {fill: #808061;}
        text {
            font-family: Helvetica;
            font-size: 50px;
            fill: #808060;
            paint-order: stroke;
            stroke: #000000;
            stroke-width: 4px;
            stroke-linecap: butt;
            stroke-linejoin: miter;
            font-weight: 800;
        }
    </style>

    <path d="M 364 769 Q 374 785 385 798 Q 395 808 381 823 Q 344 853 319 851 Q 309 850 310 835 Q 322 745 218 640 Q 202 624 193 611 Q 186 598 199 601 Q 251 610 323 706 Q 344 742 347 744 L 364 769 Z" class="stroke1"/>
    <path d="M 347 744 Q 372 735 437 744 Q 467 750 499 757 Q 517 761 520 764 Q 527 771 523 778 Q 516 788 491 794 Q 466 798 440 787 Q 419 781 364 769 C 335 763 318 753 347 744 Z" class="stroke2"/>
    <path d="M 374 670 Q 411 633 422 631 Q 429 631 434 641 Q 437 651 432 673 Q 425 692 372 705 Q 360 708 356 706 Q 352 705 353 694 Q 354 687 374 670 Z" class="stroke3"/>
    <path d="M 635 792 Q 650 814 665 834 Q 675 846 661 859 Q 624 889 599 887 Q 589 884 590 871 Q 599 799 526 712 Q 508 696 501 683 Q 494 670 507 673 Q 552 679 619 768 L 635 792 Z" class="stroke4"/>
    <path d="M 619 768 Q 658 747 709 762 Q 754 771 799 781 Q 821 785 824 789 Q 831 796 827 805 Q 820 815 792 822 Q 762 826 688 802 Q 661 798 635 792 C 606 785 592 781 619 768 Z" class="stroke5"/>
    <path d="M 673 693 Q 716 650 729 650 Q 738 650 741 661 Q 745 671 738 695 Q 734 708 713 718 Q 665 736 652 731 Q 648 727 649 717 Q 652 710 673 693 Z" class="stroke6"/>
    <path d="M 550 665 Q 484 620 298 562 Q 292 555 297 552 Q 328 543 537 605 Q 573 623 637 629 Q 652 628 656 634 Q 660 644 651 654 Q 635 670 597 690 Q 584 697 572 698 Q 565 695 564 686 Q 563 673 550 665 Z" class="stroke7"/>
    <path d="M 322 498 Q 355 452 368 449 Q 375 448 381 457 Q 387 467 384 491 Q 383 504 364 516 Q 319 541 308 538 Q 304 537 303 526 Q 304 517 322 498 Z" class="stroke8"/>
    <path d="M 449 545 Q 479 494 501 491 Q 514 488 522 505 Q 525 518 517 538 Q 510 550 493 556 Q 468 569 456 571 Q 447 572 446 562 Q 443 555 449 545 Z" class="stroke9"/>
    <path d="M 608 484 Q 624 497 636 507 Q 687 552 696 558 Q 712 570 701 583 Q 688 596 663 605 Q 641 614 630 610 Q 620 606 625 596 Q 631 569 580 481 Q 579 477 578 474 C 572 455 585 465 608 484 Z" class="stroke10"/>
    <path d="M 696 274 Q 706 314 718 340 L 742 387 Q 755 409 773 422 Q 791 441 775 461 Q 757 476 701 503 Q 682 512 659 503 Q 632 493 608 484 L 578 474 Q 451 441 303 427 Q 285 426 287 415 Q 290 406 310 400 Q 337 387 375 400 Q 424 410 474 419 L 518 427 Q 653 460 671 443 Q 683 431 679 406 Q 675 391 672 375 L 662 336 Q 655 311 647 285 C 638 256 688 245 696 274 Z" class="stroke11"/>
    <path d="M 496 347 Q 315 323 105 296 Q 83 293 100 275 Q 115 260 134 255 Q 156 249 174 254 Q 354 308 500 319 L 555 327 Q 604 333 662 336 L 718 340 Q 799 346 899 347 Q 990 347 996 357 Q 1002 370 984 385 Q 924 428 853 409 Q 804 400 742 387 L 672 375 Q 615 368 552 356 L 496 347 Z" class="stroke12"/>
    <path d="M 507 255 Q 387 233 289 222 Q 267 221 280 200 Q 287 190 299 186 Q 311 182 326 186 Q 393 202 510 216 L 563 223 Q 627 230 706 238 Q 718 239 719 249 Q 719 256 696 274 L 647 285 Q 640 285 633 283 Q 594 274 560 266 L 507 255 Z" class="stroke13"/>
    <path d="M 474 419 Q 492 392 496 347 L 500 319 Q 504 289 507 255 L 510 216 Q 516 69 489 24 Q 488 18 481 16 Q 468 13 393 31 Q 384 32 382 29 Q 381 25 389 16 Q 444 -41 474 -82 Q 484 -95 491 -95 Q 501 -94 521 -76 Q 567 -36 568 110 Q 564 216 563 223 L 560 266 Q 557 309 555 327 L 552 356 Q 551 374 551 388 Q 551 409 538 416 Q 528 423 518 427 C 492 441 460 445 474 419 Z" class="stroke14"/>
    
    
    
    
    
    
    
    
    
    
    
    
    
    </g>
</svg>