<svg version="1.1" viewBox="0 0 1024 1024" xmlns="http://www.w3.org/2000/svg">
  
  <g transform="scale(1, -1) translate(0, -900)">
    <style type="text/css">
        .stroke1 {fill: #808080;}
        .stroke2 {fill: #808079;}
        .stroke3 {fill: #808078;}
        .stroke4 {fill: #808077;}
        .stroke5 {fill: #808076;}
        .stroke6 {fill: #808075;}
        .stroke7 {fill: #808074;}
        .stroke8 {fill: #808073;}
        .stroke9 {fill: #808072;}
        .stroke10 {fill: #808071;}
        .stroke11 {fill: #808070;}
        .stroke12 {fill: #808069;}
        .stroke13 {fill: #808068;}
        .stroke14 {fill: #808067;}
        .stroke15 {fill: #808066;}
        .stroke16 {fill: #808065;}
        .stroke17 {fill: #808064;}
        .stroke18 {fill: #808063;}
        .stroke19 {fill: #808062;}
        .stroke20 {fill: #808061;}
        text {
            font-family: Helvetica;
            font-size: 50px;
            fill: #808060;
            paint-order: stroke;
            stroke: #000000;
            stroke-width: 4px;
            stroke-linecap: butt;
            stroke-linejoin: miter;
            font-weight: 800;
        }
    </style>

    <path d="M 343 753 Q 356 772 370 790 Q 380 803 366 817 Q 327 853 300 849 Q 288 848 290 832 Q 299 739 194 626 Q 182 620 149 580 Q 142 565 156 569 Q 213 578 298 687 Q 310 705 323 724 L 343 753 Z" class="stroke1"/>
    <path d="M 323 724 Q 359 714 463 726 Q 479 727 482 730 Q 489 737 486 745 Q 480 757 454 764 Q 427 771 365 755 Q 353 755 343 753 C 313 748 294 731 323 724 Z" class="stroke2"/>
    <path d="M 348 636 Q 366 623 384 605 Q 396 595 409 596 Q 418 597 421 608 Q 424 621 415 645 Q 411 658 388 666 Q 337 679 324 675 Q 320 671 322 661 Q 325 652 348 636 Z" class="stroke3"/>
    <path d="M 641 772 Q 657 797 675 815 Q 685 827 673 841 Q 634 877 610 874 Q 600 873 600 859 Q 607 784 513 682 Q 504 682 474 643 Q 465 630 480 633 Q 495 634 517 648 Q 586 691 626 751 Q 626 752 627 753 L 641 772 Z" class="stroke4"/>
    <path d="M 627 753 Q 654 726 740 743 Q 789 752 840 763 Q 867 769 871 773 Q 880 780 875 789 Q 868 799 840 807 Q 810 813 781 801 Q 751 791 719 783 Q 683 776 641 772 C 611 769 608 769 627 753 Z" class="stroke5"/>
    <path d="M 644 651 Q 663 632 686 608 Q 698 595 713 596 Q 723 596 729 609 Q 733 622 726 651 Q 722 667 696 681 Q 635 702 620 699 Q 616 695 616 683 Q 619 673 644 651 Z" class="stroke6"/>
    <path d="M 385 310 Q 386 306 388 302 Q 395 287 408 289 Q 421 293 427 308 Q 440 329 453 422 Q 463 473 496 505 Q 512 521 496 535 Q 477 550 427 570 Q 412 577 357 555 Q 273 528 233 506 C 206 492 230 472 257 485 Q 294 504 373 530 Q 389 534 396 533 Q 408 529 405 493 Q 395 363 386 337 Q 385 337 385 336 C 380 320 380 320 385 310 Z" class="stroke7"/>
    <path d="M 254 386 Q 254 387 255 387 Q 313 402 355 411 Q 374 415 365 426 Q 355 436 334 438 Q 300 441 255 413 C 229 397 227 373 254 386 Z" class="stroke8"/>
    <path d="M 251 276 Q 258 275 269 279 Q 305 294 385 310 C 411 315 409 317 385 336 Q 381 340 373 343 Q 358 347 333 337 Q 288 318 252 306 C 224 296 221 277 251 276 Z" class="stroke9"/>
    <path d="M 387 215 Q 350 199 271 158 Q 259 154 256 157 Q 252 160 251 276 L 252 306 Q 252 354 254 386 L 255 413 Q 256 485 257 485 C 258 497 258 497 233 506 Q 220 512 197 518 Q 181 521 176 515 Q 169 509 180 492 Q 210 450 211 331 Q 211 226 195 175 Q 188 142 153 104 Q 141 94 148 72 Q 155 45 169 33 Q 179 24 193 38 Q 245 93 398 198 C 423 215 414 227 387 215 Z" class="stroke10"/>
    <path d="M 398 198 Q 443 135 454 133 Q 463 132 469 141 Q 476 151 475 177 Q 472 213 389 257 Q 379 264 372 262 Q 368 261 366 250 Q 367 235 387 215 L 398 198 Z" class="stroke11"/>
    <path d="M 639 440 Q 703 459 751 468 Q 763 469 765 466 Q 775 456 776 422 Q 780 331 765 288 Q 752 258 727 260 Q 706 264 688 272 Q 663 282 680 256 Q 720 210 739 175 Q 760 157 775 175 Q 823 218 835 331 Q 839 451 855 478 Q 865 491 858 501 Q 848 511 797 527 Q 778 534 760 519 Q 738 503 625 472 C 596 464 610 432 639 440 Z" class="stroke12"/>
    <path d="M 625 472 Q 597 493 582 494 Q 569 498 554 490 Q 545 483 552 472 Q 573 436 573 361 Q 573 -35 579 -53 Q 582 -63 586 -69 Q 592 -76 599 -74 Q 617 -62 620 -7 Q 627 56 627 118 Q 624 170 630 375 Q 631 414 639 440 C 644 459 644 459 625 472 Z" class="stroke13"/>
    
    
    
    
    
    
    
    
    
    
    
    
    </g>
</svg>