<svg version="1.1" viewBox="0 0 1024 1024" xmlns="http://www.w3.org/2000/svg">
  
  <g transform="scale(1, -1) translate(0, -900)">
    <style type="text/css">
        .stroke1 {fill: #808080;}
        .stroke2 {fill: #808079;}
        .stroke3 {fill: #808078;}
        .stroke4 {fill: #808077;}
        .stroke5 {fill: #808076;}
        .stroke6 {fill: #808075;}
        .stroke7 {fill: #808074;}
        .stroke8 {fill: #808073;}
        .stroke9 {fill: #808072;}
        .stroke10 {fill: #808071;}
        .stroke11 {fill: #808070;}
        .stroke12 {fill: #808069;}
        .stroke13 {fill: #808068;}
        .stroke14 {fill: #808067;}
        .stroke15 {fill: #808066;}
        .stroke16 {fill: #808065;}
        .stroke17 {fill: #808064;}
        .stroke18 {fill: #808063;}
        .stroke19 {fill: #808062;}
        .stroke20 {fill: #808061;}
        text {
            font-family: Helvetica;
            font-size: 50px;
            fill: #808060;
            paint-order: stroke;
            stroke: #000000;
            stroke-width: 4px;
            stroke-linecap: butt;
            stroke-linejoin: miter;
            font-weight: 800;
        }
    </style>

    <path d="M 343 766 Q 352 779 362 792 Q 372 802 360 815 Q 326 845 303 843 Q 293 842 294 829 Q 303 741 202 643 Q 177 621 165 606 Q 158 593 171 597 Q 217 601 298 700 Q 311 718 331 749 L 343 766 Z" class="stroke1"/>
    <path d="M 331 749 Q 364 733 426 744 Q 498 759 500 761 Q 507 768 503 775 Q 496 784 473 789 Q 464 790 388 773 Q 367 769 343 766 C 313 762 304 761 331 749 Z" class="stroke2"/>
    <path d="M 353 659 Q 386 632 398 632 Q 407 633 409 644 Q 412 656 402 678 Q 398 688 380 692 Q 341 699 328 695 Q 324 691 326 681 Q 330 674 353 659 Z" class="stroke3"/>
    <path d="M 652 810 L 654 812 Q 664 822 652 835 Q 618 865 595 863 Q 585 862 586 849 Q 595 782 523 707 Q 507 689 497 678 Q 490 665 503 669 Q 551 675 612 756 Q 615 765 636 790 L 652 810 Z" class="stroke4"/>
    <path d="M 636 790 Q 664 777 730 786 Q 815 801 823 805 Q 830 812 826 819 Q 820 828 797 834 Q 773 838 749 829 Q 727 822 702 817 Q 678 813 652 810 C 622 806 608 801 636 790 Z" class="stroke5"/>
    <path d="M 649 717 Q 706 672 727 677 Q 740 678 741 697 Q 740 710 726 727 Q 701 748 647 743 Q 637 742 640 731 Q 640 724 649 717 Z" class="stroke6"/>
    <path d="M 341 598 Q 331 602 306 602 Q 296 603 292 599 Q 288 592 297 579 Q 325 536 348 464 Q 354 442 368 429 Q 387 411 389 426 Q 389 429 390 432 L 388 459 Q 381 495 360 566 C 352 595 351 595 341 598 Z" class="stroke7"/>
    <path d="M 612 457 Q 616 444 627 444 Q 639 445 646 458 Q 646 459 647 460 L 654 471 Q 696 564 722 585 Q 738 598 725 613 Q 710 628 667 651 Q 655 660 599 646 Q 533 640 429 615 Q 378 605 341 598 C 312 592 332 555 360 566 Q 360 567 362 567 Q 395 580 450 590 L 507 600 Q 622 621 642 613 Q 649 609 643 586 Q 627 519 618 495 C 608 467 607 463 612 457 Z" class="stroke8"/>
    <path d="M 521 524 Q 555 531 585 536 Q 604 539 597 550 Q 588 562 567 565 Q 551 566 528 560 L 470 543 Q 440 536 414 526 Q 401 523 417 511 Q 420 510 473 514 L 521 524 Z" class="stroke9"/>
    <path d="M 518 449 Q 558 453 612 457 L 647 460 Q 654 461 655 468 Q 655 469 654 471 C 657 494 648 494 618 495 Q 606 498 518 478 L 473 470 Q 427 464 388 459 C 358 455 360 431 390 432 Q 393 432 397 432 Q 428 439 473 444 L 518 449 Z" class="stroke10"/>
    <path d="M 688 341 Q 703 341 921 342 Q 942 342 946 351 Q 953 363 935 377 Q 877 422 811 405 Q 765 399 711 388 L 650 379 Q 586 372 517 362 L 472 357 Q 417 353 362 345 L 316 340 Q 217 331 113 319 Q 91 318 107 299 Q 122 284 140 278 Q 162 272 179 277 Q 249 296 329 308 L 367 314 Q 445 326 471 326 L 517 331 Q 572 338 642 340 L 688 341 Z" class="stroke11"/>
    <path d="M 362 345 Q 359 364 357 378 Q 357 394 339 398 Q 300 410 286 403 Q 271 394 286 379 Q 305 363 316 340 L 329 308 Q 351 253 360 245 Q 372 238 375 248 Q 378 261 367 314 L 362 345 Z" class="stroke12"/>
    <path d="M 656 267 Q 674 306 688 341 L 711 388 Q 712 389 714 392 Q 727 405 718 414 Q 708 429 678 443 Q 665 452 649 444 Q 640 440 647 429 Q 656 408 650 379 L 642 340 Q 627 282 621 260 C 613 231 643 240 656 267 Z" class="stroke13"/>
    <path d="M 518 203 Q 539 207 701 221 Q 711 220 720 231 Q 721 241 700 253 Q 678 269 656 267 L 621 260 Q 530 247 517 241 L 470 233 Q 430 229 392 226 Q 347 223 297 219 Q 270 218 290 199 Q 317 175 362 182 Q 410 191 469 197 L 518 203 Z" class="stroke14"/>
    <path d="M 520 105 Q 568 111 826 110 Q 845 109 850 118 Q 856 128 840 143 Q 786 182 754 174 Q 666 158 520 138 L 468 132 Q 345 119 204 105 Q 185 104 199 87 Q 212 74 229 67 Q 250 63 265 66 Q 359 90 468 99 L 520 105 Z" class="stroke15"/>
    <path d="M 468 99 Q 465 -46 483 -69 Q 487 -76 495 -74 Q 514 -62 520 105 L 520 138 Q 520 171 518 203 L 517 241 Q 516 280 517 331 L 517 362 Q 516 402 518 449 L 518 478 Q 518 479 519 480 Q 519 508 521 524 L 528 560 Q 529 564 530 567 Q 533 583 520 592 Q 513 596 507 600 C 482 617 434 616 450 590 Q 454 583 460 574 Q 467 561 470 543 L 473 514 Q 473 493 473 470 L 473 444 Q 472 404 472 357 L 471 326 Q 470 283 470 233 L 469 197 Q 469 166 468 132 L 468 99 Z" class="stroke16"/>
    
    
    
    
    
    
    
    
    
    
    
    
    
    
    
    </g>
</svg>