<svg version="1.1" viewBox="0 0 1024 1024" xmlns="http://www.w3.org/2000/svg">
  
  <g transform="scale(1, -1) translate(0, -900)">
    <style type="text/css">
        .stroke1 {fill: #808080;}
        .stroke2 {fill: #808079;}
        .stroke3 {fill: #808078;}
        .stroke4 {fill: #808077;}
        .stroke5 {fill: #808076;}
        .stroke6 {fill: #808075;}
        .stroke7 {fill: #808074;}
        .stroke8 {fill: #808073;}
        .stroke9 {fill: #808072;}
        .stroke10 {fill: #808071;}
        .stroke11 {fill: #808070;}
        .stroke12 {fill: #808069;}
        .stroke13 {fill: #808068;}
        .stroke14 {fill: #808067;}
        .stroke15 {fill: #808066;}
        .stroke16 {fill: #808065;}
        .stroke17 {fill: #808064;}
        .stroke18 {fill: #808063;}
        .stroke19 {fill: #808062;}
        .stroke20 {fill: #808061;}
        text {
            font-family: Helvetica;
            font-size: 50px;
            fill: #808060;
            paint-order: stroke;
            stroke: #000000;
            stroke-width: 4px;
            stroke-linecap: butt;
            stroke-linejoin: miter;
            font-weight: 800;
        }
    </style>

    <path d="M 357 751 Q 369 770 381 786 Q 391 798 377 811 Q 338 844 315 838 Q 305 837 306 823 Q 318 745 225 631 Q 210 625 185 587 Q 178 574 191 577 Q 237 586 313 680 Q 329 707 347 734 L 357 751 Z" class="stroke1"/>
    <path d="M 347 734 Q 348 734 351 732 Q 381 716 450 726 Q 532 742 535 744 Q 542 751 539 758 Q 532 768 507 774 Q 495 777 416 759 Q 389 755 359 752 Q 358 752 357 751 C 328 744 327 744 347 734 Z" class="stroke2"/>
    <path d="M 387 649 Q 406 634 427 615 Q 437 606 447 607 Q 454 607 458 616 Q 461 626 454 647 Q 450 660 428 670 Q 380 686 368 682 Q 364 679 366 671 Q 367 664 387 649 Z" class="stroke3"/>
    <path d="M 660 781 Q 673 800 688 817 Q 698 829 685 842 Q 646 875 623 872 Q 613 871 614 857 Q 623 778 540 692 Q 519 671 509 659 Q 502 646 515 649 Q 528 650 549 664 Q 610 704 645 758 L 660 781 Z" class="stroke4"/>
    <path d="M 645 758 Q 672 740 748 749 Q 787 755 827 760 Q 849 763 854 766 Q 861 773 858 781 Q 852 793 826 800 Q 799 807 771 798 Q 746 791 717 786 Q 690 783 660 781 C 630 779 619 773 645 758 Z" class="stroke5"/>
    <path d="M 670 673 Q 689 657 710 638 Q 722 628 734 629 Q 741 630 745 640 Q 749 652 741 675 Q 737 688 713 698 Q 661 716 648 711 Q 644 707 646 697 Q 649 690 670 673 Z" class="stroke6"/>
    <path d="M 300 485 Q 303 492 343 546 Q 350 555 341 565 Q 308 592 293 589 Q 286 588 286 577 Q 292 511 213 430 Q 200 418 193 409 Q 187 399 198 401 Q 235 405 289 471 L 300 485 Z" class="stroke7"/>
    <path d="M 289 471 Q 311 446 335 425 Q 348 413 359 414 Q 368 413 372 426 Q 373 435 366 448 Q 354 466 300 485 C 272 495 269 493 289 471 Z" class="stroke8"/>
    <path d="M 471 516 Q 486 543 498 561 Q 504 571 493 580 Q 457 599 446 596 Q 439 595 441 584 Q 450 533 405 469 Q 393 453 388 444 Q 384 434 393 438 Q 418 441 461 500 L 471 516 Z" class="stroke9"/>
    <path d="M 461 500 Q 510 451 528 449 Q 537 449 540 461 Q 540 470 533 482 Q 521 500 471 516 C 442 525 440 521 461 500 Z" class="stroke10"/>
    <path d="M 641 412 Q 683 419 730 424 Q 743 425 745 431 Q 746 443 731 451 Q 707 463 634 445 L 594 436 Q 290 373 145 361 Q 133 360 131 353 Q 128 344 140 334 Q 173 310 209 320 Q 257 335 303 346 L 334 354 Q 373 366 409 373 L 440 379 Q 449 388 600 407 L 641 412 Z" class="stroke11"/>
    <path d="M 303 346 Q 315 325 318 293 L 320 261 Q 320 245 321 219 L 322 186 Q 322 170 322 149 L 323 117 Q 324 95 325 67 C 326 37 361 46 361 76 Q 361 334 359 336 Q 346 348 334 354 C 308 369 289 373 303 346 Z" class="stroke12"/>
    <path d="M 318 293 Q 297 294 210 266 Q 197 263 213 251 Q 214 251 320 261 C 350 264 348 293 318 293 Z" class="stroke13"/>
    <path d="M 321 219 Q 299 223 218 198 Q 205 195 221 182 L 322 186 C 352 187 351 216 321 219 Z" class="stroke14"/>
    <path d="M 322 149 L 321 150 Q 300 154 263 144 Q 229 132 198 123 Q 183 120 202 107 Q 208 101 222 103 Q 279 112 323 117 C 353 120 350 139 322 149 Z" class="stroke15"/>
    <path d="M 458 102 Q 459 133 460 163 L 460 186 Q 461 213 462 237 L 463 260 Q 464 284 465 304 L 467 331 Q 467 335 468 337 Q 472 352 466 360 Q 453 373 440 379 C 414 393 397 400 409 373 Q 422 346 423 321 Q 424 297 423 92 C 423 62 457 72 458 102 Z" class="stroke16"/>
    <path d="M 465 304 Q 517 313 557 316 Q 576 319 569 330 Q 560 342 539 346 Q 497 349 467 331 C 441 316 435 299 465 304 Z" class="stroke17"/>
    <path d="M 462 237 Q 465 237 553 248 Q 572 251 565 262 Q 556 274 535 277 Q 496 280 463 260 C 437 245 432 234 462 237 Z" class="stroke18"/>
    <path d="M 460 163 Q 461 163 465 163 Q 520 169 560 172 Q 579 175 573 186 Q 564 198 543 202 Q 509 211 460 186 C 433 173 430 163 460 163 Z" class="stroke19"/>
    <path d="M 325 67 Q 274 57 225 43 Q 203 37 168 40 Q 156 39 154 30 Q 151 17 159 9 Q 180 -7 210 -27 Q 220 -31 232 -23 Q 274 5 485 79 Q 515 89 537 104 Q 549 111 550 119 Q 546 125 533 123 Q 497 113 458 102 L 423 92 Q 392 85 361 76 L 325 67 Z" class="stroke20"/>
    <path d="M 712 139 Q 832 -44 943 -67 Q 971 -66 966 -29 Q 954 2 949 151 Q 948 164 942 165 Q 936 165 933 152 Q 923 118 915 87 Q 903 44 889 44 Q 864 47 819 92 Q 779 129 745 181 L 719 225 Q 662 324 641 412 L 634 445 Q 619 526 640 586 Q 647 607 608 632 Q 569 657 557 654 Q 544 650 548 632 Q 570 602 575 553 Q 582 492 594 436 L 600 407 Q 628 293 688 182 L 712 139 Z" class="stroke21"/>
    <path d="M 688 182 Q 627 110 536 41 Q 529 34 535 31 Q 542 28 552 32 Q 637 65 712 139 L 745 181 Q 746 181 747 182 Q 784 231 818 314 Q 830 339 845 363 Q 852 372 847 382 Q 841 392 813 409 Q 794 421 784 419 Q 771 415 772 401 Q 778 323 719 225 L 688 182 Z" class="stroke22"/>
    <path d="M 752 534 Q 777 513 806 489 Q 819 477 834 478 Q 844 479 849 492 Q 853 507 843 535 Q 831 562 745 579 Q 729 582 724 579 Q 720 575 721 563 Q 725 553 752 534 Z" class="stroke23"/>
    
    
    
    
    
    
    
    
    
    
    
    
    
    
    
    
    
    
    
    
    
    
    </g>
</svg>