<svg version="1.1" viewBox="0 0 1024 1024" xmlns="http://www.w3.org/2000/svg">
  
  <g transform="scale(1, -1) translate(0, -900)">
    <style type="text/css">
        .stroke1 {fill: #808080;}
        .stroke2 {fill: #808079;}
        .stroke3 {fill: #808078;}
        .stroke4 {fill: #808077;}
        .stroke5 {fill: #808076;}
        .stroke6 {fill: #808075;}
        .stroke7 {fill: #808074;}
        .stroke8 {fill: #808073;}
        .stroke9 {fill: #808072;}
        .stroke10 {fill: #808071;}
        .stroke11 {fill: #808070;}
        .stroke12 {fill: #808069;}
        .stroke13 {fill: #808068;}
        .stroke14 {fill: #808067;}
        .stroke15 {fill: #808066;}
        .stroke16 {fill: #808065;}
        .stroke17 {fill: #808064;}
        .stroke18 {fill: #808063;}
        .stroke19 {fill: #808062;}
        .stroke20 {fill: #808061;}
        text {
            font-family: Helvetica;
            font-size: 50px;
            fill: #808060;
            paint-order: stroke;
            stroke: #000000;
            stroke-width: 4px;
            stroke-linecap: butt;
            stroke-linejoin: miter;
            font-weight: 800;
        }
    </style>

    <path d="M 300 490 Q 255 493 220 494 Q 183 494 203 517 Q 273 629 340 714 Q 355 732 352 740 Q 351 755 310 788 Q 294 801 274 798 Q 262 795 269 779 Q 276 761 270 735 Q 257 684 195 576 Q 176 539 136 505 Q 117 490 117 478 Q 121 459 135 440 Q 145 428 159 435 Q 186 453 282 464 C 312 468 330 488 300 490 Z" class="stroke1"/>
    <path d="M 360 366 Q 309 354 248 332 Q 226 322 240 342 Q 280 400 376 518 Q 406 558 432 582 Q 445 592 438 603 Q 426 624 391 643 Q 373 653 363 650 Q 353 646 355 629 Q 358 587 300 490 L 282 464 Q 180 323 158 310 Q 145 300 148 285 Q 149 272 179 252 Q 191 239 206 253 Q 275 317 365 347 Q 368 348 371 350 C 399 361 389 373 360 366 Z" class="stroke2"/>
    <path d="M 371 350 Q 383 326 405 320 Q 418 317 427 333 Q 430 346 424 366 Q 409 396 356 414 Q 349 417 345 406 Q 342 402 360 366 L 371 350 Z" class="stroke3"/>
    <path d="M 110 135 Q 135 99 163 58 Q 172 43 187 40 Q 197 39 205 49 Q 212 62 211 92 Q 211 114 182 140 Q 112 191 96 187 Q 92 184 89 172 Q 90 160 110 135 Z" class="stroke4"/>
    <path d="M 248 165 Q 278 119 294 116 Q 303 115 309 125 Q 316 137 312 164 Q 311 177 291 189 Q 240 213 232 211 Q 228 208 227 197 Q 228 187 248 165 Z" class="stroke5"/>
    <path d="M 351 222 Q 384 180 398 178 Q 408 178 413 189 Q 419 201 413 228 Q 410 240 391 250 Q 340 269 332 267 Q 328 264 328 252 Q 329 242 351 222 Z" class="stroke6"/>
    <path d="M 515 541 L 513 543 Q 483 558 466 557 Q 453 553 458 540 Q 512 429 464 221 Q 445 160 445 157 Q 445 127 466 101 Q 473 88 484 94 Q 523 118 523 266 L 523 275 Q 526 456 530 502 C 532 532 532 532 515 541 Z" class="stroke7"/>
    <path d="M 689 542 Q 738 555 796 564 Q 812 568 822 558 Q 832 552 835 504 Q 845 344 835 162 Q 834 135 824 128 Q 809 118 739 137 Q 721 141 722 131 Q 723 122 737 115 Q 800 64 831 26 Q 853 4 868 6 Q 881 9 894 40 Q 910 83 911 190 Q 893 487 915 529 Q 928 551 917 564 Q 907 580 859 605 Q 840 615 819 610 Q 779 597 695 574 L 641 562 Q 578 550 515 541 C 485 537 502 492 530 502 Q 534 508 636 530 L 689 542 Z" class="stroke8"/>
    <path d="M 663 453 Q 682 519 689 542 L 695 574 Q 704 700 719 739 Q 725 749 716 758 Q 697 774 662 788 Q 641 798 625 792 Q 606 785 621 767 Q 648 740 649 697 Q 649 603 641 562 L 636 530 Q 627 485 616 447 Q 592 368 532 284 Q 526 280 523 275 C 513 264 513 264 523 266 Q 523 265 533 266 Q 576 278 642 400 Q 642 401 655 431 L 663 453 Z" class="stroke9"/>
    <path d="M 655 431 Q 697 386 746 326 Q 758 308 771 304 Q 778 303 785 310 Q 795 320 788 358 Q 779 406 663 453 C 635 464 635 453 655 431 Z" class="stroke10"/>
    
    
    
    
    
    
    
    
    
    </g>
</svg>