<svg version="1.1" viewBox="0 0 1024 1024" xmlns="http://www.w3.org/2000/svg">
  
  <g transform="scale(1, -1) translate(0, -900)">
    <style type="text/css">
        .stroke1 {fill: #808080;}
        .stroke2 {fill: #808079;}
        .stroke3 {fill: #808078;}
        .stroke4 {fill: #808077;}
        .stroke5 {fill: #808076;}
        .stroke6 {fill: #808075;}
        .stroke7 {fill: #808074;}
        .stroke8 {fill: #808073;}
        .stroke9 {fill: #808072;}
        .stroke10 {fill: #808071;}
        .stroke11 {fill: #808070;}
        .stroke12 {fill: #808069;}
        .stroke13 {fill: #808068;}
        .stroke14 {fill: #808067;}
        .stroke15 {fill: #808066;}
        .stroke16 {fill: #808065;}
        .stroke17 {fill: #808064;}
        .stroke18 {fill: #808063;}
        .stroke19 {fill: #808062;}
        .stroke20 {fill: #808061;}
        text {
            font-family: Helvetica;
            font-size: 50px;
            fill: #808060;
            paint-order: stroke;
            stroke: #000000;
            stroke-width: 4px;
            stroke-linecap: butt;
            stroke-linejoin: miter;
            font-weight: 800;
        }
    </style>

    <path d="M 314 532 Q 263 533 223 532 Q 190 532 207 552 Q 277 661 343 742 Q 359 760 356 768 Q 355 783 314 816 Q 298 831 279 827 Q 267 824 273 808 Q 289 766 199 610 Q 180 574 140 541 Q 121 526 122 514 Q 126 495 141 475 Q 151 465 165 471 Q 207 495 296 507 C 326 511 344 531 314 532 Z" class="stroke1"/>
    <path d="M 380 414 Q 326 401 260 376 Q 241 367 252 385 Q 294 443 390 558 Q 421 598 447 622 Q 460 632 454 643 Q 442 664 407 684 Q 389 694 380 690 Q 370 687 371 670 Q 374 627 314 532 L 296 507 Q 190 366 171 354 Q 158 344 161 330 Q 162 315 191 296 Q 203 284 218 297 Q 297 366 388 396 C 416 406 409 421 380 414 Z" class="stroke2"/>
    <path d="M 388 396 Q 397 377 411 371 Q 421 367 432 379 Q 438 389 435 409 Q 431 436 379 468 Q 372 472 368 462 Q 364 456 368 447 Q 372 431 380 414 L 388 396 Z" class="stroke3"/>
    <path d="M 134 164 Q 150 130 165 92 Q 172 73 188 67 Q 198 63 209 74 Q 219 86 224 118 Q 227 151 150 213 Q 137 223 129 223 Q 122 222 118 208 Q 117 196 134 164 Z" class="stroke4"/>
    <path d="M 266 215 Q 288 170 301 166 Q 310 165 317 173 Q 324 183 325 211 Q 325 223 309 236 Q 267 263 256 263 Q 252 260 249 249 Q 249 239 266 215 Z" class="stroke5"/>
    <path d="M 366 280 Q 394 229 407 226 Q 414 225 421 233 Q 428 243 428 267 Q 425 291 372 317 Q 362 323 356 322 Q 352 321 350 311 Q 351 301 366 280 Z" class="stroke6"/>
    <path d="M 579 595 Q 621 647 666 727 Q 685 764 702 782 Q 712 794 706 808 Q 700 821 670 843 Q 640 861 621 859 Q 602 856 611 833 Q 624 811 617 788 Q 580 670 469 509 Q 459 497 457 491 Q 454 479 469 482 Q 494 488 561 571 L 579 595 Z" class="stroke7"/>
    <path d="M 561 571 Q 562 572 564 571 Q 594 565 743 597 Q 807 612 816 602 Q 843 560 837 313 Q 828 187 798 116 Q 785 80 761 71 Q 751 67 698 78 Q 688 82 687 76 Q 686 72 699 61 Q 733 18 749 -11 Q 758 -30 769 -30 Q 791 -26 813 -1 Q 846 32 866 84 Q 905 187 903 521 Q 902 560 921 587 Q 934 603 933 611 Q 930 620 910 633 Q 880 652 841 661 Q 817 667 748 641 Q 739 640 731 636 Q 695 626 579 595 C 550 587 531 571 561 571 Z" class="stroke8"/>
    <path d="M 499 434 Q 484 444 467 449 Q 460 450 456 443 Q 455 439 460 432 Q 493 359 470 227 Q 460 218 468 191 Q 475 166 484 158 Q 493 148 500 159 Q 501 162 513 204 L 515 235 Q 515 271 514 306 L 513 340 Q 512 389 514 408 C 515 424 515 424 499 434 Z" class="stroke9"/>
    <path d="M 604 215 Q 628 182 645 151 Q 652 135 661 136 Q 674 136 689 164 Q 702 192 704 249 Q 692 396 713 425 Q 720 435 713 443 Q 697 459 655 479 Q 642 485 587 460 Q 557 453 499 434 C 470 425 485 402 514 408 Q 529 409 623 438 Q 636 442 645 437 Q 658 424 649 288 Q 648 251 644 240 Q 640 228 630 229 C 605 213 603 217 604 215 Z" class="stroke10"/>
    <path d="M 514 306 Q 562 318 598 324 Q 619 330 610 341 Q 598 354 574 355 Q 552 356 514 341 Q 513 341 513 340 C 487 325 485 299 514 306 Z" class="stroke11"/>
    <path d="M 513 204 Q 562 211 604 215 C 633 218 633 218 630 229 Q 630 230 629 233 Q 619 246 595 251 Q 552 257 515 235 C 489 220 483 200 513 204 Z" class="stroke12"/>
    
    
    
    
    
    
    
    
    
    
    
    </g>
</svg>