<svg version="1.1" viewBox="0 0 1024 1024" xmlns="http://www.w3.org/2000/svg">
  
  <g transform="scale(1, -1) translate(0, -900)">
    <style type="text/css">
        .stroke1 {fill: #808080;}
        .stroke2 {fill: #808079;}
        .stroke3 {fill: #808078;}
        .stroke4 {fill: #808077;}
        .stroke5 {fill: #808076;}
        .stroke6 {fill: #808075;}
        .stroke7 {fill: #808074;}
        .stroke8 {fill: #808073;}
        .stroke9 {fill: #808072;}
        .stroke10 {fill: #808071;}
        .stroke11 {fill: #808070;}
        .stroke12 {fill: #808069;}
        .stroke13 {fill: #808068;}
        .stroke14 {fill: #808067;}
        .stroke15 {fill: #808066;}
        .stroke16 {fill: #808065;}
        .stroke17 {fill: #808064;}
        .stroke18 {fill: #808063;}
        .stroke19 {fill: #808062;}
        .stroke20 {fill: #808061;}
        text {
            font-family: Helvetica;
            font-size: 50px;
            fill: #808060;
            paint-order: stroke;
            stroke: #000000;
            stroke-width: 4px;
            stroke-linecap: butt;
            stroke-linejoin: miter;
            font-weight: 800;
        }
    </style>

    <path d="M 322 516 Q 276 515 238 514 Q 207 513 223 533 Q 287 635 348 710 Q 363 728 360 736 Q 359 751 318 784 Q 302 797 282 794 Q 270 791 277 775 Q 295 733 210 586 Q 192 552 155 521 Q 136 505 138 493 Q 142 474 158 455 Q 168 443 182 451 Q 221 478 305 489 C 335 493 352 517 322 516 Z" class="stroke1"/>
    <path d="M 355 366 Q 309 356 255 336 Q 233 326 247 346 Q 287 407 384 530 Q 411 567 435 590 Q 447 600 440 610 Q 430 628 396 646 Q 380 655 371 652 Q 361 648 364 633 Q 367 597 322 516 L 305 489 Q 194 330 172 316 Q 159 307 162 293 Q 163 280 191 263 Q 201 251 216 264 Q 276 315 364 348 C 392 359 384 373 355 366 Z" class="stroke2"/>
    <path d="M 364 348 Q 376 318 395 310 Q 405 306 416 319 Q 420 329 418 349 Q 409 388 351 420 Q 344 424 340 414 Q 336 408 340 399 Q 347 383 355 366 L 364 348 Z" class="stroke3"/>
    <path d="M 97 138 Q 116 104 136 63 Q 143 47 158 42 Q 168 39 177 49 Q 186 61 188 91 Q 189 124 108 183 Q 95 190 89 191 Q 83 190 80 177 Q 80 165 97 138 Z" class="stroke4"/>
    <path d="M 228 172 Q 256 118 273 113 Q 282 112 289 121 Q 296 133 296 159 Q 293 186 234 213 Q 222 219 216 219 Q 212 216 210 205 Q 210 195 228 172 Z" class="stroke5"/>
    <path d="M 339 201 Q 372 162 384 162 Q 393 162 397 173 Q 401 185 396 209 Q 393 221 375 229 Q 332 247 320 243 Q 316 240 316 229 Q 319 219 339 201 Z" class="stroke6"/>
    <path d="M 689 500 Q 828 543 833 547 Q 842 556 836 564 Q 829 576 798 581 Q 767 585 680 547 L 635 532 Q 628 531 623 528 Q 557 509 479 495 Q 442 486 470 471 Q 512 449 579 470 Q 609 479 644 487 L 689 500 Z" class="stroke7"/>
    <path d="M 561 279 Q 589 289 621 298 Q 646 305 650 310 Q 657 319 652 326 Q 645 336 617 340 Q 589 341 565 328 L 518 309 Q 509 308 504 305 Q 470 295 429 287 Q 396 278 421 265 Q 460 247 514 266 L 561 279 Z" class="stroke8"/>
    <path d="M 514 266 Q 493 181 456 131 Q 449 124 441 114 Q 417 92 401 76 Q 392 67 402 66 Q 447 72 498 131 Q 546 182 561 279 L 565 328 Q 566 337 567 344 Q 567 366 575 388 Q 579 404 566 409 Q 523 433 504 423 Q 494 419 500 406 Q 518 388 518 309 L 514 266 Z" class="stroke9"/>
    <path d="M 733 205 Q 788 88 872 18 Q 941 -30 972 -27 Q 994 -20 983 10 Q 973 52 955 175 Q 951 199 942 198 Q 936 197 932 175 Q 902 99 890 98 Q 877 102 858 119 Q 807 171 768 241 L 747 289 Q 711 380 689 500 L 680 547 Q 659 667 671 759 Q 684 802 624 825 Q 587 841 565 833 Q 543 826 554 804 Q 605 761 605 725 Q 618 619 635 532 L 644 487 Q 668 361 714 246 L 733 205 Z" class="stroke10"/>
    <path d="M 714 246 Q 683 207 647 177 Q 610 147 590 128 Q 580 113 596 117 Q 639 120 733 205 L 768 241 Q 790 266 809 293 Q 846 345 880 387 Q 892 400 878 416 Q 839 455 811 453 Q 799 452 801 436 Q 802 369 747 289 L 714 246 Z" class="stroke11"/>
    <path d="M 741 701 Q 769 685 798 663 Q 814 653 828 656 Q 838 659 841 672 Q 842 687 830 713 Q 821 731 791 739 Q 716 751 707 743 Q 703 739 707 726 Q 711 716 741 701 Z" class="stroke12"/>
    
    
    
    
    
    
    
    
    
    
    
    </g>
</svg>