<svg version="1.1" viewBox="0 0 1024 1024" xmlns="http://www.w3.org/2000/svg">
  
  <g transform="scale(1, -1) translate(0, -900)">
    <style type="text/css">
        .stroke1 {fill: #808080;}
        .stroke2 {fill: #808079;}
        .stroke3 {fill: #808078;}
        .stroke4 {fill: #808077;}
        .stroke5 {fill: #808076;}
        .stroke6 {fill: #808075;}
        .stroke7 {fill: #808074;}
        .stroke8 {fill: #808073;}
        .stroke9 {fill: #808072;}
        .stroke10 {fill: #808071;}
        .stroke11 {fill: #808070;}
        .stroke12 {fill: #808069;}
        .stroke13 {fill: #808068;}
        .stroke14 {fill: #808067;}
        .stroke15 {fill: #808066;}
        .stroke16 {fill: #808065;}
        .stroke17 {fill: #808064;}
        .stroke18 {fill: #808063;}
        .stroke19 {fill: #808062;}
        .stroke20 {fill: #808061;}
        text {
            font-family: Helvetica;
            font-size: 50px;
            fill: #808060;
            paint-order: stroke;
            stroke: #000000;
            stroke-width: 4px;
            stroke-linecap: butt;
            stroke-linejoin: miter;
            font-weight: 800;
        }
    </style>

    <path d="M 270 539 Q 224 536 187 533 Q 160 532 173 549 Q 236 657 296 737 Q 309 753 306 760 Q 305 773 268 802 Q 253 814 236 810 Q 226 807 232 793 Q 247 753 168 604 Q 150 570 114 537 Q 98 522 99 512 Q 103 494 117 478 Q 127 468 139 476 Q 184 506 254 515 C 284 519 300 541 270 539 Z" class="stroke1"/>
    <path d="M 339 420 Q 290 411 230 392 Q 202 380 219 405 Q 255 460 339 570 Q 364 607 387 628 Q 397 638 392 647 Q 382 665 349 681 Q 333 688 325 686 Q 315 682 318 668 Q 321 626 270 539 L 254 515 Q 166 386 148 376 Q 135 366 138 353 Q 139 340 165 324 Q 175 312 190 325 Q 244 367 345 405 L 347 405 C 375 415 368 426 339 420 Z" class="stroke2"/>
    <path d="M 347 405 Q 354 381 376 374 Q 386 370 395 383 Q 399 393 396 411 Q 392 429 373 444 Q 345 469 331 476 Q 324 480 320 471 Q 316 462 339 420 L 347 405 Z" class="stroke3"/>
    <path d="M 106 186 Q 127 152 148 110 Q 155 94 170 90 Q 180 87 189 97 Q 198 110 199 139 Q 200 161 175 187 Q 112 239 97 239 Q 91 238 88 225 Q 88 213 106 186 Z" class="stroke4"/>
    <path d="M 224 249 Q 260 195 271 193 Q 280 192 285 201 Q 292 211 290 235 Q 287 259 229 286 Q 217 290 212 290 Q 208 289 207 278 Q 208 269 224 249 Z" class="stroke5"/>
    <path d="M 316 302 Q 334 281 351 257 Q 358 247 369 245 Q 376 245 382 253 Q 386 262 384 283 Q 381 305 319 335 Q 309 339 304 338 Q 300 337 300 327 Q 301 320 316 302 Z" class="stroke6"/>
    <path d="M 502 728 Q 457 752 441 745 Q 431 738 438 725 Q 456 701 462 643 Q 462 412 435 311 Q 407 215 336 78 Q 332 71 331 65 Q 330 55 339 58 Q 354 61 387 111 Q 513 285 515 600 Q 515 654 521 690 C 525 717 525 717 502 728 Z" class="stroke7"/>
    <path d="M 521 690 Q 522 691 528 692 Q 631 722 756 744 Q 775 748 784 738 Q 800 729 805 660 Q 821 429 810 167 Q 809 128 795 117 Q 783 110 727 124 Q 709 128 710 119 Q 711 112 723 104 Q 774 55 799 20 Q 821 -1 834 2 Q 847 5 859 34 Q 877 80 877 150 Q 859 516 862 651 Q 862 690 874 713 Q 886 735 876 747 Q 866 762 818 786 Q 797 798 734 776 Q 551 736 502 728 C 472 723 492 682 521 690 Z" class="stroke8"/>
    <path d="M 665 561 Q 696 570 730 577 Q 755 583 759 587 Q 766 593 762 599 Q 758 608 735 613 Q 710 619 668 600 L 624 587 Q 591 580 553 576 Q 526 572 546 559 Q 574 541 619 552 Q 620 553 625 553 L 665 561 Z" class="stroke9"/>
    <path d="M 658 484 Q 661 524 665 561 L 668 600 Q 668 609 680 663 Q 683 670 668 682 Q 643 697 624 700 Q 612 701 606 696 Q 600 690 606 679 Q 619 661 624 587 L 625 553 Q 625 516 625 476 C 625 446 656 454 658 484 Z" class="stroke10"/>
    <path d="M 625 476 Q 600 473 550 465 Q 531 461 546 450 Q 567 435 602 440 Q 662 455 741 465 Q 748 464 754 473 Q 755 482 738 489 Q 702 499 658 484 L 625 476 Z" class="stroke11"/>
    <path d="M 572 367 Q 562 371 540 376 Q 530 379 526 375 Q 522 371 528 356 Q 549 313 560 242 Q 561 220 575 206 Q 588 187 594 200 Q 597 210 597 224 L 594 254 Q 585 323 585 343 C 584 363 584 363 572 367 Z" class="stroke12"/>
    <path d="M 726 270 Q 745 328 766 346 Q 787 368 767 381 Q 751 391 727 408 Q 712 417 665 393 Q 610 375 572 367 C 543 361 557 332 585 343 Q 588 347 669 364 Q 694 370 700 360 Q 706 354 697 327 Q 690 303 680 275 C 670 247 716 242 726 270 Z" class="stroke13"/>
    <path d="M 597 224 Q 606 223 616 225 Q 655 234 737 239 Q 747 240 748 249 Q 748 256 726 270 L 680 275 Q 679 276 676 275 Q 630 262 594 254 C 565 247 567 226 597 224 Z" class="stroke14"/>
    
    
    
    
    
    
    
    
    
    
    
    
    
    </g>
</svg>