<svg version="1.1" viewBox="0 0 1024 1024" xmlns="http://www.w3.org/2000/svg">
  
  <g transform="scale(1, -1) translate(0, -900)">
    <style type="text/css">
        .stroke1 {fill: #808080;}
        .stroke2 {fill: #808079;}
        .stroke3 {fill: #808078;}
        .stroke4 {fill: #808077;}
        .stroke5 {fill: #808076;}
        .stroke6 {fill: #808075;}
        .stroke7 {fill: #808074;}
        .stroke8 {fill: #808073;}
        .stroke9 {fill: #808072;}
        .stroke10 {fill: #808071;}
        .stroke11 {fill: #808070;}
        .stroke12 {fill: #808069;}
        .stroke13 {fill: #808068;}
        .stroke14 {fill: #808067;}
        .stroke15 {fill: #808066;}
        .stroke16 {fill: #808065;}
        .stroke17 {fill: #808064;}
        .stroke18 {fill: #808063;}
        .stroke19 {fill: #808062;}
        .stroke20 {fill: #808061;}
        text {
            font-family: Helvetica;
            font-size: 50px;
            fill: #808060;
            paint-order: stroke;
            stroke: #000000;
            stroke-width: 4px;
            stroke-linecap: butt;
            stroke-linejoin: miter;
            font-weight: 800;
        }
    </style>

    <path d="M 312 524 Q 264 523 226 522 Q 192 521 209 543 Q 275 661 339 751 Q 352 770 350 777 Q 347 792 305 823 Q 289 836 269 832 Q 259 828 265 813 Q 286 762 185 578 Q 167 554 142 528 Q 123 512 125 500 Q 131 481 146 462 Q 156 452 170 459 Q 207 484 295 497 C 325 502 342 525 312 524 Z" class="stroke1"/>
    <path d="M 365 389 Q 310 376 251 352 Q 229 342 242 362 Q 282 422 376 542 Q 403 579 427 602 Q 439 612 432 622 Q 422 640 388 658 Q 372 667 363 663 Q 353 660 356 645 Q 359 609 312 524 L 295 497 Q 195 349 168 332 Q 155 322 158 309 Q 161 296 187 279 Q 197 267 212 280 Q 275 332 374 372 C 402 384 394 396 365 389 Z" class="stroke2"/>
    <path d="M 374 372 Q 386 348 403 342 Q 413 338 424 352 Q 428 362 424 382 Q 420 397 402 409 Q 375 431 363 436 Q 356 440 352 430 Q 349 426 365 389 L 374 372 Z" class="stroke3"/>
    <path d="M 120 145 Q 136 109 153 67 Q 160 51 174 44 Q 184 40 193 50 Q 203 60 208 90 Q 211 112 189 140 Q 164 165 135 189 Q 123 199 117 199 Q 111 198 107 185 Q 106 175 120 145 Z" class="stroke4"/>
    <path d="M 242 214 Q 282 141 302 133 Q 314 129 323 144 Q 327 156 323 176 Q 311 210 252 237 Q 245 241 241 230 Q 237 223 242 214 Z" class="stroke5"/>
    <path d="M 362 248 Q 377 226 392 198 Q 399 185 411 182 Q 418 181 425 189 Q 432 199 432 223 Q 432 239 412 256 Q 364 293 352 290 Q 348 289 346 279 Q 346 269 362 248 Z" class="stroke6"/>
    <path d="M 515 557 Q 596 692 606 713 Q 622 753 640 772 Q 647 784 642 796 Q 636 808 606 827 Q 579 840 561 839 Q 543 835 553 815 Q 565 794 558 759 Q 521 630 423 478 Q 414 468 413 461 Q 412 451 424 454 Q 439 460 487 517 L 515 557 Z" class="stroke7"/>
    <path d="M 557 137 Q 554 405 563 469 Q 572 499 560 510 Q 541 532 527 547 Q 521 554 515 557 C 492 577 472 543 487 517 Q 488 513 493 507 Q 514 468 514 353 Q 514 212 483 83 Q 470 37 505 -15 Q 506 -19 511 -23 Q 530 -41 543 -11 Q 555 25 557 110 L 557 137 Z" class="stroke8"/>
    <path d="M 697 700 Q 722 678 750 651 Q 763 639 778 639 Q 788 640 793 653 Q 797 666 789 695 Q 780 725 693 746 Q 678 750 672 747 Q 668 743 668 731 Q 672 721 697 700 Z" class="stroke9"/>
    <path d="M 738 544 Q 871 578 876 582 Q 883 589 879 597 Q 872 607 845 614 Q 817 618 791 606 Q 751 591 706 578 Q 657 565 599 558 Q 566 551 590 537 Q 623 521 696 534 L 738 544 Z" class="stroke10"/>
    <path d="M 761 408 Q 791 417 824 424 Q 852 431 856 436 Q 863 443 859 450 Q 852 460 827 465 Q 791 471 762 452 L 712 436 Q 672 427 626 420 Q 595 414 618 400 Q 649 382 712 397 L 761 408 Z" class="stroke11"/>
    <path d="M 757 285 Q 845 306 852 310 Q 859 317 855 325 Q 848 335 821 342 Q 790 346 758 331 L 712 317 Q 685 310 627 302 Q 594 296 618 281 Q 657 262 708 274 Q 709 275 712 274 L 757 285 Z" class="stroke12"/>
    <path d="M 754 168 Q 755 229 757 285 L 758 331 Q 759 371 761 408 L 762 452 Q 762 468 765 496 Q 774 521 738 544 C 714 561 686 562 696 534 Q 706 512 712 436 L 712 397 Q 712 366 712 317 L 712 274 Q 712 225 712 161 C 712 131 753 138 754 168 Z" class="stroke13"/>
    <path d="M 712 161 Q 639 151 557 137 C 527 132 529 120 557 110 Q 581 98 626 106 Q 744 134 911 135 Q 927 134 941 135 Q 959 135 964 143 Q 968 153 953 167 Q 899 206 843 187 Q 804 180 754 168 L 712 161 Z" class="stroke14"/>
    
    
    
    
    
    
    
    
    
    
    
    
    
    </g>
</svg>