<svg version="1.1" viewBox="0 0 1024 1024" xmlns="http://www.w3.org/2000/svg">
  
  <g transform="scale(1, -1) translate(0, -900)">
    <style type="text/css">
        .stroke1 {fill: #808080;}
        .stroke2 {fill: #808079;}
        .stroke3 {fill: #808078;}
        .stroke4 {fill: #808077;}
        .stroke5 {fill: #808076;}
        .stroke6 {fill: #808075;}
        .stroke7 {fill: #808074;}
        .stroke8 {fill: #808073;}
        .stroke9 {fill: #808072;}
        .stroke10 {fill: #808071;}
        .stroke11 {fill: #808070;}
        .stroke12 {fill: #808069;}
        .stroke13 {fill: #808068;}
        .stroke14 {fill: #808067;}
        .stroke15 {fill: #808066;}
        .stroke16 {fill: #808065;}
        .stroke17 {fill: #808064;}
        .stroke18 {fill: #808063;}
        .stroke19 {fill: #808062;}
        .stroke20 {fill: #808061;}
        text {
            font-family: Helvetica;
            font-size: 50px;
            fill: #808060;
            paint-order: stroke;
            stroke: #000000;
            stroke-width: 4px;
            stroke-linecap: butt;
            stroke-linejoin: miter;
            font-weight: 800;
        }
    </style>

    <path d="M 296 535 Q 256 534 223 532 Q 192 529 206 550 Q 261 653 315 730 Q 328 748 326 755 Q 322 768 282 798 Q 266 811 247 806 Q 237 802 243 787 Q 264 736 176 574 Q 161 555 142 534 Q 126 518 127 507 Q 133 488 148 471 Q 158 461 171 469 Q 213 499 279 508 C 309 513 326 536 296 535 Z" class="stroke1"/>
    <path d="M 342 412 Q 296 400 243 377 Q 227 370 237 384 Q 273 438 359 546 Q 387 585 412 608 Q 424 618 417 629 Q 407 648 371 666 Q 355 676 345 672 Q 335 668 338 653 Q 339 622 296 535 L 279 508 Q 185 369 160 353 Q 147 343 151 329 Q 152 316 181 298 Q 193 286 206 300 Q 254 348 349 395 C 376 409 371 420 342 412 Z" class="stroke2"/>
    <path d="M 349 395 Q 370 359 380 355 Q 390 351 400 363 Q 404 373 403 391 Q 394 424 343 456 Q 336 460 332 451 Q 328 445 332 436 Q 336 424 342 412 L 349 395 Z" class="stroke3"/>
    <path d="M 106 189 Q 119 149 132 103 Q 136 87 149 79 Q 159 75 169 82 Q 181 92 188 120 Q 195 142 175 174 Q 121 243 109 242 Q 103 242 98 230 Q 95 220 106 189 Z" class="stroke4"/>
    <path d="M 229 218 Q 241 202 253 180 Q 262 167 274 165 Q 283 164 289 173 Q 296 183 294 209 Q 291 230 234 258 Q 222 264 216 263 Q 212 260 210 250 Q 211 240 229 218 Z" class="stroke5"/>
    <path d="M 321 273 Q 334 255 350 233 Q 360 220 374 219 Q 383 218 389 229 Q 395 241 391 268 Q 390 281 368 295 Q 314 322 304 319 Q 300 316 299 305 Q 300 295 321 273 Z" class="stroke6"/>
    <path d="M 577 788 Q 604 766 633 738 Q 648 725 664 726 Q 676 726 681 741 Q 685 756 675 787 Q 669 806 637 821 Q 562 846 548 839 Q 542 835 545 821 Q 549 811 577 788 Z" class="stroke7"/>
    <path d="M 491 627 Q 490 628 490 631 Q 480 650 469 657 Q 453 667 452 646 Q 458 625 446 604 Q 436 585 418 565 Q 405 547 429 502 Q 445 483 456 505 Q 466 524 475 553 Q 482 584 488 602 C 494 619 494 619 491 627 Z" class="stroke8"/>
    <path d="M 488 602 Q 516 589 540 597 Q 615 633 762 662 Q 769 663 775 663 Q 791 654 786 645 Q 776 602 765 557 L 767 556 Q 776 553 791 567 Q 840 607 881 622 Q 915 635 914 644 Q 910 654 838 697 Q 813 715 704 682 Q 701 682 556 644 Q 523 634 491 627 C 462 620 460 612 488 602 Z" class="stroke9"/>
    <path d="M 641 461 Q 690 474 744 485 Q 775 494 780 498 Q 787 505 783 513 Q 776 523 749 530 Q 724 534 635 503 Q 535 484 527 482 Q 494 476 518 461 Q 551 445 601 452 L 641 461 Z" class="stroke10"/>
    <path d="M 653 211 Q 657 280 661 336 L 663 369 Q 669 435 665 441 Q 653 453 641 461 C 617 478 594 481 601 452 Q 610 422 611 234 C 611 204 651 181 653 211 Z" class="stroke11"/>
    <path d="M 661 336 Q 682 333 776 349 Q 786 350 788 353 Q 797 360 792 369 Q 785 379 756 385 Q 720 391 675 371 Q 669 371 663 369 C 634 361 631 339 661 336 Z" class="stroke12"/>
    <path d="M 532 284 Q 542 303 551 313 Q 558 323 549 338 Q 533 365 516 375 Q 503 387 487 386 Q 471 386 477 366 Q 492 306 405 171 Q 366 113 314 56 Q 307 50 307 44 Q 308 40 313 39 Q 358 48 450 160 Q 451 163 454 165 Q 493 217 519 261 L 532 284 Z" class="stroke13"/>
    <path d="M 519 261 Q 750 63 807 56 Q 877 56 978 90 Q 997 96 998 101 Q 999 108 983 112 Q 926 125 862 136 Q 769 154 653 211 L 611 234 Q 589 250 532 284 C 506 299 496 280 519 261 Z" class="stroke14"/>
    
    
    
    
    
    
    
    
    
    
    
    
    
    </g>
</svg>