<svg version="1.1" viewBox="0 0 1024 1024" xmlns="http://www.w3.org/2000/svg">
  
  <g transform="scale(1, -1) translate(0, -900)">
    <style type="text/css">
        .stroke1 {fill: #808080;}
        .stroke2 {fill: #808079;}
        .stroke3 {fill: #808078;}
        .stroke4 {fill: #808077;}
        .stroke5 {fill: #808076;}
        .stroke6 {fill: #808075;}
        .stroke7 {fill: #808074;}
        .stroke8 {fill: #808073;}
        .stroke9 {fill: #808072;}
        .stroke10 {fill: #808071;}
        .stroke11 {fill: #808070;}
        .stroke12 {fill: #808069;}
        .stroke13 {fill: #808068;}
        .stroke14 {fill: #808067;}
        .stroke15 {fill: #808066;}
        .stroke16 {fill: #808065;}
        .stroke17 {fill: #808064;}
        .stroke18 {fill: #808063;}
        .stroke19 {fill: #808062;}
        .stroke20 {fill: #808061;}
        text {
            font-family: Helvetica;
            font-size: 50px;
            fill: #808060;
            paint-order: stroke;
            stroke: #000000;
            stroke-width: 4px;
            stroke-linecap: butt;
            stroke-linejoin: miter;
            font-weight: 800;
        }
    </style>

    <path d="M 299 515 Q 251 512 214 509 Q 184 508 198 527 Q 256 626 313 699 Q 326 715 323 723 Q 322 736 283 766 Q 267 779 250 775 Q 240 772 245 757 Q 261 718 187 577 Q 171 546 136 514 Q 120 499 121 488 Q 125 470 140 453 Q 150 443 162 450 Q 193 471 284 489 C 313 495 329 517 299 515 Z" class="stroke1"/>
    <path d="M 332 374 Q 286 365 228 342 Q 212 335 222 350 Q 259 404 350 512 Q 377 546 401 567 Q 413 577 407 586 Q 397 604 365 622 Q 350 631 341 628 Q 332 625 334 610 Q 335 586 299 515 L 284 489 Q 185 342 150 324 Q 137 315 141 302 Q 142 290 167 273 Q 177 261 191 274 Q 258 334 336 359 Q 337 360 340 360 C 369 369 361 380 332 374 Z" class="stroke2"/>
    <path d="M 340 360 Q 353 329 369 323 Q 376 322 382 329 Q 388 338 388 359 Q 388 380 334 413 Q 325 419 320 418 Q 316 417 315 408 Q 315 401 328 381 Q 329 378 332 374 L 340 360 Z" class="stroke3"/>
    <path d="M 96 169 Q 112 129 127 82 Q 131 64 146 58 Q 155 54 165 62 Q 175 72 183 101 Q 189 140 115 211 Q 103 221 97 222 Q 91 221 86 210 Q 85 200 96 169 Z" class="stroke4"/>
    <path d="M 220 225 Q 238 180 260 163 Q 270 159 280 166 Q 287 173 289 187 Q 289 220 237 251 Q 227 258 218 258 Q 214 258 213 248 Q 212 239 220 225 Z" class="stroke5"/>
    <path d="M 305 273 Q 321 237 339 226 Q 349 222 357 229 Q 363 236 363 248 Q 362 264 353 276 Q 343 285 330 291 Q 308 303 302 301 Q 298 301 297 293 Q 297 286 305 273 Z" class="stroke6"/>
    <path d="M 635 769 Q 666 751 700 728 Q 718 718 735 722 Q 745 725 749 740 Q 750 756 734 787 Q 724 806 690 814 Q 656 818 619 819 Q 601 820 595 815 Q 591 811 595 796 Q 602 786 635 769 Z" class="stroke7"/>
    <path d="M 755 513 Q 779 577 810 596 Q 826 614 812 631 Q 796 644 744 668 Q 725 677 658 645 Q 601 626 523 607 C 494 600 506 569 535 576 L 715 618 Q 716 618 720 615 Q 727 608 724 593 Q 714 550 702 515 C 693 487 744 485 755 513 Z" class="stroke8"/>
    <path d="M 503 450 Q 519 438 540 442 Q 610 461 766 483 Q 776 484 776 493 Q 776 500 755 513 C 737 525 731 523 702 515 Q 596 484 509 470 Q 508 470 508 469 C 483 462 483 462 503 450 Z" class="stroke9"/>
    <path d="M 466 318 Q 466 319 467 319 Q 489 383 503 450 L 508 469 Q 508 475 510 479 Q 523 566 535 576 C 543 591 543 591 523 607 Q 513 617 498 625 Q 482 635 471 632 Q 461 628 465 615 Q 477 584 473 546 Q 437 323 365 192 Q 341 153 315 118 Q 293 84 268 54 Q 264 50 261 44 Q 258 35 267 36 Q 285 36 362 122 Q 384 152 407 187 Q 432 233 454 287 L 466 318 Z" class="stroke10"/>
    <path d="M 472 316 L 466 318 C 440 330 445 316 454 287 Q 484 197 451 99 Q 435 84 454 44 Q 457 37 463 30 Q 469 20 477 24 Q 501 43 501 123 Q 501 255 506 287 C 510 317 502 320 472 316 Z" class="stroke11"/>
    <path d="M 706 333 Q 805 355 824 342 Q 843 335 845 303 Q 848 227 827 90 Q 827 69 807 69 Q 783 72 764 75 Q 748 79 750 69 Q 751 59 779 34 Q 810 1 827 -32 Q 840 -44 854 -37 Q 864 -31 880 6 Q 901 51 902 138 Q 895 316 909 338 Q 919 350 912 361 Q 902 373 860 391 Q 845 397 798 382 Q 639 352 589 338 Q 520 323 472 316 C 442 311 477 278 506 287 Q 527 294 560 302 L 587 309 Q 621 318 668 326 L 706 333 Z" class="stroke12"/>
    <path d="M 722 217 Q 756 223 790 226 Q 812 229 805 241 Q 795 254 771 260 Q 753 264 726 257 L 678 248 Q 642 241 609 232 L 574 225 Q 547 221 523 216 Q 507 213 526 198 Q 530 195 575 194 L 609 199 Q 643 206 677 210 L 722 217 Z" class="stroke13"/>
    <path d="M 560 302 Q 566 296 574 225 L 575 194 Q 581 125 585 118 Q 595 100 601 111 Q 607 123 609 199 L 609 232 Q 608 272 610 284 Q 611 294 608 298 Q 602 302 587 309 C 560 322 548 327 560 302 Z" class="stroke14"/>
    <path d="M 677 210 Q 670 74 685 47 Q 689 41 694 43 Q 706 49 712 92 Q 715 116 722 217 L 726 257 Q 726 260 734 300 Q 737 313 727 320 Q 715 329 706 333 C 679 347 659 355 668 326 L 669 324 Q 679 288 678 248 L 677 210 Z" class="stroke15"/>
    
    
    
    
    
    
    
    
    
    
    
    
    
    
    </g>
</svg>