<svg version="1.1" viewBox="0 0 1024 1024" xmlns="http://www.w3.org/2000/svg">
  
  <g transform="scale(1, -1) translate(0, -900)">
    <style type="text/css">
        .stroke1 {fill: #808080;}
        .stroke2 {fill: #808079;}
        .stroke3 {fill: #808078;}
        .stroke4 {fill: #808077;}
        .stroke5 {fill: #808076;}
        .stroke6 {fill: #808075;}
        .stroke7 {fill: #808074;}
        .stroke8 {fill: #808073;}
        .stroke9 {fill: #808072;}
        .stroke10 {fill: #808071;}
        .stroke11 {fill: #808070;}
        .stroke12 {fill: #808069;}
        .stroke13 {fill: #808068;}
        .stroke14 {fill: #808067;}
        .stroke15 {fill: #808066;}
        .stroke16 {fill: #808065;}
        .stroke17 {fill: #808064;}
        .stroke18 {fill: #808063;}
        .stroke19 {fill: #808062;}
        .stroke20 {fill: #808061;}
        text {
            font-family: Helvetica;
            font-size: 50px;
            fill: #808060;
            paint-order: stroke;
            stroke: #000000;
            stroke-width: 4px;
            stroke-linecap: butt;
            stroke-linejoin: miter;
            font-weight: 800;
        }
    </style>

    <path d="M 297 542 Q 254 538 218 534 Q 191 531 204 548 Q 265 657 326 737 Q 339 755 337 762 Q 334 777 294 806 Q 278 819 260 815 Q 248 812 255 797 Q 273 758 193 603 Q 177 569 139 535 Q 121 519 124 507 Q 130 488 145 471 Q 157 461 169 469 Q 188 485 262 510 Q 269 511 281 514 C 310 521 327 545 297 542 Z" class="stroke1"/>
    <path d="M 347 402 Q 293 389 228 363 Q 210 356 221 371 Q 258 426 348 539 Q 375 575 398 595 Q 408 605 403 614 Q 393 632 361 649 Q 346 658 337 655 Q 327 652 330 637 Q 331 610 297 542 L 281 514 Q 278 511 276 505 Q 177 358 149 344 Q 137 334 140 322 Q 143 309 167 292 Q 177 282 191 294 Q 248 345 354 387 L 355 387 C 383 398 376 409 347 402 Z" class="stroke2"/>
    <path d="M 355 387 Q 373 359 381 355 Q 391 351 400 362 Q 404 372 402 389 Q 399 408 380 425 Q 352 455 338 464 Q 331 468 328 459 Q 324 453 328 445 Q 337 423 347 402 L 355 387 Z" class="stroke3"/>
    <path d="M 104 175 Q 119 135 133 89 Q 137 73 151 66 Q 158 62 169 70 Q 179 80 186 107 Q 193 140 122 216 Q 112 226 105 226 Q 99 226 94 215 Q 93 205 104 175 Z" class="stroke4"/>
    <path d="M 214 221 Q 248 158 256 156 Q 263 155 270 161 Q 276 170 277 191 Q 278 206 261 223 Q 219 257 208 258 Q 204 257 202 248 Q 202 241 214 221 Z" class="stroke5"/>
    <path d="M 302 256 Q 326 210 339 206 Q 346 205 353 213 Q 360 223 360 247 Q 357 266 308 293 Q 298 299 292 298 Q 288 297 286 287 Q 286 277 302 256 Z" class="stroke6"/>
    <path d="M 519 697 Q 509 701 487 703 Q 477 706 474 701 Q 470 697 477 683 Q 492 652 504 609 L 512 579 Q 531 513 538 505 Q 554 487 558 501 Q 559 507 560 514 L 559 534 Q 556 556 549 587 L 544 615 Q 537 652 535 668 Q 535 669 536 670 C 537 691 537 691 519 697 Z" class="stroke7"/>
    <path d="M 735 537 Q 748 518 761 510 Q 770 503 784 521 Q 794 537 818 621 L 835 663 Q 841 673 851 683 Q 863 693 853 705 Q 840 720 804 743 Q 788 752 775 747 Q 748 740 710 733 Q 694 732 678 727 L 627 718 Q 614 717 602 713 Q 556 703 519 697 C 489 692 507 661 536 670 Q 573 682 628 691 L 675 700 Q 753 718 771 705 Q 781 698 778 683 Q 774 667 771 651 L 763 618 Q 753 570 739 564 C 725 549 725 549 735 537 Z" class="stroke8"/>
    <path d="M 818 621 Q 858 625 905 625 Q 962 625 967 633 Q 971 642 958 653 Q 910 687 850 667 Q 841 666 835 663 L 771 651 Q 675 636 674 634 L 629 628 Q 587 622 544 615 L 504 609 Q 462 605 421 598 Q 405 597 417 583 Q 429 573 443 568 Q 459 564 472 568 Q 491 574 512 579 L 549 587 Q 586 597 630 602 L 673 608 Q 713 615 763 618 L 818 621 Z" class="stroke9"/>
    <path d="M 670 528 Q 703 534 735 537 C 765 540 765 549 739 564 Q 730 573 688 562 Q 679 561 671 558 L 630 549 Q 591 542 559 534 C 530 527 530 516 560 514 Q 566 513 578 514 Q 603 518 629 521 L 670 528 Z" class="stroke10"/>
    <path d="M 470 437 Q 455 443 450 435 Q 446 429 454 417 Q 476 386 494 331 Q 498 315 509 304 Q 525 288 529 301 Q 530 307 530 315 L 526 342 Q 516 385 513 404 C 510 424 498 427 470 437 Z" class="stroke11"/>
    <path d="M 820 368 Q 839 404 859 414 Q 877 433 854 448 Q 833 466 812 479 Q 800 488 744 472 Q 717 471 667 460 L 627 454 Q 503 438 470 437 C 440 435 484 396 513 404 Q 592 425 626 426 L 666 431 Q 709 437 769 441 Q 781 442 785 436 Q 789 430 773 373 C 765 344 805 342 820 368 Z" class="stroke12"/>
    <path d="M 625 326 Q 704 336 829 341 Q 836 341 839 348 Q 839 354 820 368 L 773 373 Q 715 364 663 355 L 624 350 Q 572 346 526 342 C 496 339 500 315 530 315 Q 534 314 541 315 Q 563 319 594 323 L 625 326 Z" class="stroke13"/>
    <path d="M 667 460 Q 668 494 670 528 L 671 558 Q 671 583 673 608 L 674 634 Q 674 668 675 700 L 678 727 Q 681 752 685 772 Q 691 794 694 812 Q 698 822 678 837 Q 644 855 620 859 Q 604 862 596 853 Q 589 846 597 831 Q 625 791 625 763 Q 626 741 627 718 L 628 691 Q 628 660 629 628 L 630 602 Q 630 577 630 549 L 629 521 Q 628 490 627 454 L 626 426 Q 625 389 624 350 C 623 320 661 325 663 355 L 663 356 Q 666 393 666 431 L 667 460 Z" class="stroke14"/>
    <path d="M 634 256 Q 640 268 648 276 Q 658 282 655 290 Q 651 303 625 326 C 603 347 590 353 594 323 L 595 321 Q 601 299 580 249 L 566 219 Q 553 192 539 175 Q 529 159 532 148 Q 533 138 549 135 Q 591 125 638 101 L 677 80 Q 729 49 805 -8 Q 829 -26 844 -24 Q 863 -23 863 -6 Q 862 13 835 53 Q 822 75 711 115 L 665 131 Q 622 147 589 154 Q 573 158 582 173 Q 603 206 615 225 L 634 256 Z" class="stroke15"/>
    <path d="M 784 279 Q 759 304 746 304 Q 734 304 735 290 Q 736 281 735 271 L 725 237 Q 715 182 665 131 L 638 101 Q 575 50 473 20 Q 460 16 469 11 Q 514 -5 592 25 Q 625 37 677 80 L 711 115 Q 727 134 740 158 Q 779 221 799 241 C 811 254 806 258 784 279 Z" class="stroke16"/>
    <path d="M 799 241 Q 847 242 908 243 Q 966 240 974 250 Q 978 260 965 272 Q 916 308 857 292 Q 824 286 784 279 L 735 271 Q 660 262 634 256 L 580 249 Q 489 239 391 227 Q 372 226 386 211 Q 398 199 413 194 Q 432 190 445 193 Q 502 209 566 219 L 615 225 Q 622 228 630 228 Q 672 235 725 237 L 799 241 Z" class="stroke17"/>
    
    
    
    
    
    
    
    
    
    
    
    
    
    
    
    
    </g>
</svg>