<svg version="1.1" viewBox="0 0 1024 1024" xmlns="http://www.w3.org/2000/svg">
  
  <g transform="scale(1, -1) translate(0, -900)">
    <style type="text/css">
        .stroke1 {fill: #808080;}
        .stroke2 {fill: #808079;}
        .stroke3 {fill: #808078;}
        .stroke4 {fill: #808077;}
        .stroke5 {fill: #808076;}
        .stroke6 {fill: #808075;}
        .stroke7 {fill: #808074;}
        .stroke8 {fill: #808073;}
        .stroke9 {fill: #808072;}
        .stroke10 {fill: #808071;}
        .stroke11 {fill: #808070;}
        .stroke12 {fill: #808069;}
        .stroke13 {fill: #808068;}
        .stroke14 {fill: #808067;}
        .stroke15 {fill: #808066;}
        .stroke16 {fill: #808065;}
        .stroke17 {fill: #808064;}
        .stroke18 {fill: #808063;}
        .stroke19 {fill: #808062;}
        .stroke20 {fill: #808061;}
        text {
            font-family: Helvetica;
            font-size: 50px;
            fill: #808060;
            paint-order: stroke;
            stroke: #000000;
            stroke-width: 4px;
            stroke-linecap: butt;
            stroke-linejoin: miter;
            font-weight: 800;
        }
    </style>

    <path d="M 312 497 Q 308 498 305 497 Q 259 497 219 497 Q 185 496 202 517 Q 272 638 341 727 Q 356 745 353 752 Q 350 768 310 799 Q 294 814 274 809 Q 262 806 269 790 Q 287 750 196 580 Q 177 541 135 504 Q 116 489 118 477 Q 122 458 137 439 Q 146 430 177 443 Q 207 455 295 473 C 324 479 342 497 312 497 Z" class="stroke1"/>
    <path d="M 295 473 Q 199 346 175 334 Q 162 325 164 311 Q 165 298 191 278 Q 201 266 217 278 Q 275 320 382 352 Q 401 356 403 365 Q 406 375 386 372 Q 331 365 263 346 Q 232 336 252 360 Q 292 417 389 531 Q 417 568 441 589 Q 454 599 448 609 Q 438 628 405 646 Q 389 656 380 653 Q 370 650 372 634 Q 375 592 313 498 Q 312 498 312 497 L 295 473 Z" class="stroke2"/>
    <path d="M 124 149 Q 111 146 110 135 Q 109 122 120 114 Q 145 101 182 85 Q 192 84 204 94 Q 231 121 382 215 Q 403 228 418 242 Q 430 252 429 261 Q 423 265 411 262 Q 174 153 124 149 Z" class="stroke3"/>
    <path d="M 500 561 Q 479 574 457 579 Q 450 580 446 576 Q 439 570 447 560 Q 483 503 495 349 Q 496 294 531 265 Q 532 265 535 263 Q 551 259 553 287 Q 553 290 553 292 L 551 318 Q 527 462 525 527 C 524 547 524 547 500 561 Z" class="stroke4"/>
    <path d="M 773 320 Q 792 293 809 285 Q 819 278 835 300 Q 851 330 880 491 Q 889 524 912 551 Q 925 564 913 579 Q 897 595 850 622 Q 834 631 742 609 Q 736 609 694 600 L 645 590 Q 626 589 606 583 Q 546 570 500 561 C 471 555 497 518 525 527 Q 543 536 645 554 L 693 562 Q 727 569 768 574 Q 802 580 812 568 Q 828 552 825 533 Q 801 368 784 350 C 771 323 771 323 773 320 Z" class="stroke5"/>
    <path d="M 693 439 Q 726 446 755 449 Q 777 453 769 465 Q 759 478 735 483 Q 719 484 693 478 L 645 465 Q 605 455 571 444 Q 555 440 574 427 Q 580 423 645 431 L 693 439 Z" class="stroke6"/>
    <path d="M 694 309 Q 734 316 773 320 C 803 323 811 336 784 350 Q 754 368 693 348 L 644 337 Q 595 327 551 318 C 522 312 523 289 553 292 Q 559 292 644 303 L 694 309 Z" class="stroke7"/>
    <path d="M 644 303 Q 638 -42 656 -73 Q 671 -88 679 -67 Q 700 -21 694 309 L 693 348 Q 693 397 693 439 L 693 478 Q 693 524 693 562 L 694 600 Q 695 675 699 721 Q 700 757 719 787 Q 726 803 706 817 Q 682 836 641 847 Q 622 851 610 838 Q 600 831 612 818 Q 643 793 645 754 Q 645 691 645 590 L 645 554 Q 645 514 645 465 L 645 431 Q 645 385 644 337 L 644 303 Z" class="stroke8"/>
    
    
    
    
    
    
    
    </g>
</svg>