<svg version="1.1" viewBox="0 0 1024 1024" xmlns="http://www.w3.org/2000/svg">
  
  <g transform="scale(1, -1) translate(0, -900)">
    <style type="text/css">
        .stroke1 {fill: #808080;}
        .stroke2 {fill: #808079;}
        .stroke3 {fill: #808078;}
        .stroke4 {fill: #808077;}
        .stroke5 {fill: #808076;}
        .stroke6 {fill: #808075;}
        .stroke7 {fill: #808074;}
        .stroke8 {fill: #808073;}
        .stroke9 {fill: #808072;}
        .stroke10 {fill: #808071;}
        .stroke11 {fill: #808070;}
        .stroke12 {fill: #808069;}
        .stroke13 {fill: #808068;}
        .stroke14 {fill: #808067;}
        .stroke15 {fill: #808066;}
        .stroke16 {fill: #808065;}
        .stroke17 {fill: #808064;}
        .stroke18 {fill: #808063;}
        .stroke19 {fill: #808062;}
        .stroke20 {fill: #808061;}
        text {
            font-family: Helvetica;
            font-size: 50px;
            fill: #808060;
            paint-order: stroke;
            stroke: #000000;
            stroke-width: 4px;
            stroke-linecap: butt;
            stroke-linejoin: miter;
            font-weight: 800;
        }
    </style>

    <path d="M 332 465 Q 283 465 241 465 Q 204 464 223 488 Q 290 606 355 693 Q 370 712 366 720 Q 363 735 321 768 Q 303 781 283 777 Q 271 774 279 757 Q 297 712 212 548 Q 193 511 153 473 Q 134 457 136 445 Q 140 424 156 406 Q 165 397 193 408 Q 244 432 315 439 C 345 442 362 465 332 465 Z" class="stroke1"/>
    <path d="M 315 439 Q 221 303 194 290 Q 181 280 184 266 Q 185 253 212 233 Q 224 220 239 234 Q 308 283 409 318 Q 428 324 431 333 Q 434 343 413 339 Q 355 329 284 306 Q 256 296 273 319 Q 396 491 451 540 Q 464 550 457 560 Q 447 579 412 599 Q 396 608 385 605 Q 375 601 378 585 Q 381 548 332 465 L 315 439 Z" class="stroke2"/>
    <path d="M 129 113 Q 116 110 115 99 Q 114 86 124 78 Q 149 65 186 48 Q 196 47 208 56 Q 238 86 396 178 Q 418 191 433 206 Q 446 216 445 225 Q 439 229 427 226 Q 180 117 129 113 Z" class="stroke3"/>
    <path d="M 621 597 Q 681 696 698 712 Q 707 722 702 735 Q 698 747 671 767 Q 646 783 627 783 Q 611 780 618 760 Q 630 736 603 670 Q 563 583 485 477 Q 476 467 474 461 Q 471 451 485 454 Q 513 458 606 577 L 621 597 Z" class="stroke4"/>
    <path d="M 683 396 Q 705 423 745 480 Q 787 543 831 579 Q 850 591 836 604 Q 821 617 781 638 Q 763 644 748 633 Q 739 629 663 606 Q 644 600 621 597 C 591 592 578 587 606 577 Q 624 564 715 580 Q 722 583 726 580 Q 730 576 725 562 Q 686 457 660 407 Q 656 397 652 389 C 639 362 664 373 683 396 Z" class="stroke5"/>
    <path d="M 811 130 Q 838 296 891 348 Q 909 369 892 388 Q 808 445 761 421 Q 719 406 683 396 L 652 389 Q 586 377 516 370 Q 498 369 500 359 Q 503 350 522 343 Q 547 331 585 343 Q 672 358 755 373 Q 777 377 785 369 Q 803 353 799 318 Q 783 215 760 132 C 752 103 806 100 811 130 Z" class="stroke6"/>
    <path d="M 519 223 Q 492 219 513 203 Q 547 182 569 186 Q 683 211 748 219 Q 758 218 766 231 Q 767 241 745 251 Q 714 269 639 246 Q 635 246 631 244 Q 597 235 565 230 Q 543 227 519 223 Z" class="stroke7"/>
    <path d="M 760 132 Q 757 133 755 132 Q 614 99 502 87 Q 478 86 492 64 Q 501 54 512 49 Q 525 45 541 49 Q 632 68 833 84 Q 846 85 847 95 Q 848 105 812 130 L 811 130 L 760 132 Z" class="stroke8"/>
    
    
    
    
    
    
    
    </g>
</svg>