<svg version="1.1" viewBox="0 0 1024 1024" xmlns="http://www.w3.org/2000/svg">
  
  <g transform="scale(1, -1) translate(0, -900)">
    <style type="text/css">
        .stroke1 {fill: #808080;}
        .stroke2 {fill: #808079;}
        .stroke3 {fill: #808078;}
        .stroke4 {fill: #808077;}
        .stroke5 {fill: #808076;}
        .stroke6 {fill: #808075;}
        .stroke7 {fill: #808074;}
        .stroke8 {fill: #808073;}
        .stroke9 {fill: #808072;}
        .stroke10 {fill: #808071;}
        .stroke11 {fill: #808070;}
        .stroke12 {fill: #808069;}
        .stroke13 {fill: #808068;}
        .stroke14 {fill: #808067;}
        .stroke15 {fill: #808066;}
        .stroke16 {fill: #808065;}
        .stroke17 {fill: #808064;}
        .stroke18 {fill: #808063;}
        .stroke19 {fill: #808062;}
        .stroke20 {fill: #808061;}
        text {
            font-family: Helvetica;
            font-size: 50px;
            fill: #808060;
            paint-order: stroke;
            stroke: #000000;
            stroke-width: 4px;
            stroke-linecap: butt;
            stroke-linejoin: miter;
            font-weight: 800;
        }
    </style>

    <path d="M 313 526 Q 261 526 220 528 Q 184 529 203 550 Q 269 658 331 739 Q 346 755 343 763 Q 340 776 303 806 Q 288 819 270 816 Q 260 813 265 798 Q 283 759 197 606 Q 179 572 141 538 Q 123 525 125 514 Q 128 495 141 478 Q 151 468 163 474 Q 196 492 297 503 C 327 506 343 526 313 526 Z" class="stroke1"/>
    <path d="M 297 503 Q 204 371 175 358 Q 162 348 164 335 Q 165 322 191 302 Q 201 290 217 302 Q 271 342 378 376 Q 397 380 399 389 Q 402 399 382 396 Q 328 389 263 370 Q 232 360 252 384 Q 291 439 381 547 Q 409 584 434 605 Q 446 615 440 625 Q 430 644 397 662 Q 381 672 372 669 Q 362 665 364 650 Q 365 616 313 526 L 297 503 Z" class="stroke2"/>
    <path d="M 117 183 Q 104 180 104 170 Q 103 157 113 150 Q 137 137 171 120 Q 181 119 193 128 Q 217 152 377 244 Q 399 257 414 271 Q 426 280 425 289 Q 419 293 407 290 Q 299 244 164 192 Q 146 185 117 183 Z" class="stroke3"/>
    <path d="M 666 696 Q 804 730 807 732 Q 814 739 811 746 Q 804 756 779 762 Q 754 768 728 757 Q 698 747 669 738 L 611 722 Q 553 712 488 704 Q 457 700 479 684 Q 516 665 584 680 Q 596 683 612 685 L 666 696 Z" class="stroke4"/>
    <path d="M 658 600 Q 755 624 759 627 Q 766 633 762 639 Q 758 648 735 653 Q 708 659 661 638 L 612 624 Q 566 614 514 608 Q 486 604 506 591 Q 536 573 590 586 Q 600 589 612 589 L 658 600 Z" class="stroke5"/>
    <path d="M 653 533 Q 656 567 658 600 L 661 638 Q 662 668 666 696 L 669 738 Q 669 763 685 819 Q 689 829 669 845 Q 635 864 612 867 Q 596 871 588 863 Q 581 856 589 841 Q 608 813 608 795 Q 609 761 611 722 L 612 685 Q 612 657 612 624 L 612 589 Q 612 559 612 526 C 612 496 650 503 653 533 Z" class="stroke6"/>
    <path d="M 612 526 Q 521 513 418 496 Q 400 495 414 479 Q 427 467 443 463 Q 462 459 476 463 Q 648 515 910 516 Q 928 517 932 525 Q 936 535 921 547 Q 873 580 840 572 Q 771 556 653 533 L 612 526 Z" class="stroke7"/>
    <path d="M 538 421 Q 520 434 500 441 Q 493 442 487 435 Q 484 431 490 421 Q 517 364 498 235 Q 486 184 489 170 Q 496 142 507 131 Q 517 119 525 131 Q 546 155 546 236 Q 546 353 552 395 C 554 410 554 410 538 421 Z" class="stroke8"/>
    <path d="M 739 193 Q 732 171 745 152 Q 758 125 766 126 Q 779 127 793 157 Q 806 181 805 200 Q 786 359 814 402 Q 827 426 780 450 Q 765 459 749 465 Q 736 469 714 463 Q 635 426 538 421 C 508 419 522 390 552 395 Q 558 395 642 413 Q 714 429 730 419 Q 737 403 742 357 Q 746 219 739 193 Z" class="stroke9"/>
    <path d="M 614 296 Q 617 131 562 66 Q 549 53 530 38 Q 526 35 418 -19 Q 414 -23 426 -27 Q 492 -33 583 26 Q 595 36 604 46 Q 652 104 659 237 Q 663 297 673 322 Q 677 331 670 337 Q 655 350 625 363 Q 607 370 594 366 Q 578 360 591 345 Q 613 321 614 296 Z" class="stroke10"/>
    <path d="M 699 83 Q 741 40 790 -21 Q 803 -40 818 -45 Q 825 -46 833 -38 Q 845 -26 835 14 Q 831 50 765 83 Q 725 102 701 111 Q 694 117 691 105 Q 690 93 699 83 Z" class="stroke11"/>
    
    
    
    
    
    
    
    
    
    
    </g>
</svg>