<svg version="1.1" viewBox="0 0 1024 1024" xmlns="http://www.w3.org/2000/svg">
  
  <g transform="scale(1, -1) translate(0, -900)">
    <style type="text/css">
        .stroke1 {fill: #808080;}
        .stroke2 {fill: #808079;}
        .stroke3 {fill: #808078;}
        .stroke4 {fill: #808077;}
        .stroke5 {fill: #808076;}
        .stroke6 {fill: #808075;}
        .stroke7 {fill: #808074;}
        .stroke8 {fill: #808073;}
        .stroke9 {fill: #808072;}
        .stroke10 {fill: #808071;}
        .stroke11 {fill: #808070;}
        .stroke12 {fill: #808069;}
        .stroke13 {fill: #808068;}
        .stroke14 {fill: #808067;}
        .stroke15 {fill: #808066;}
        .stroke16 {fill: #808065;}
        .stroke17 {fill: #808064;}
        .stroke18 {fill: #808063;}
        .stroke19 {fill: #808062;}
        .stroke20 {fill: #808061;}
        text {
            font-family: Helvetica;
            font-size: 50px;
            fill: #808060;
            paint-order: stroke;
            stroke: #000000;
            stroke-width: 4px;
            stroke-linecap: butt;
            stroke-linejoin: miter;
            font-weight: 800;
        }
    </style>

    <path d="M 297 470 Q 254 471 220 471 Q 180 470 201 495 Q 265 612 327 699 Q 340 718 338 725 Q 335 740 293 771 Q 277 784 257 780 Q 245 776 253 760 Q 274 709 176 529 Q 158 505 134 480 Q 115 464 117 452 Q 121 433 136 415 Q 146 403 160 411 Q 182 424 256 441 Q 266 442 277 443 C 307 446 327 469 297 470 Z" class="stroke1"/>
    <path d="M 277 443 Q 192 322 169 310 Q 156 300 158 286 Q 159 273 187 252 Q 199 240 214 253 Q 263 289 353 323 Q 372 327 375 337 Q 378 347 357 344 Q 314 338 261 324 Q 227 312 249 340 Q 285 392 370 498 Q 398 537 424 560 Q 436 570 429 581 Q 419 600 383 619 Q 367 628 357 625 Q 347 621 349 605 Q 355 565 297 471 Q 296 471 297 470 L 277 443 Z" class="stroke2"/>
    <path d="M 105 139 Q 92 136 91 126 Q 91 113 101 105 Q 125 92 159 76 Q 169 75 181 84 Q 199 105 315 177 Q 331 187 342 199 Q 354 208 353 217 Q 347 221 335 218 Q 250 184 142 145 Q 129 141 105 139 Z" class="stroke3"/>
    <path d="M 544 257 Q 544 185 525 112 Q 515 76 538 20 Q 545 4 552 1 Q 558 -5 564 2 Q 588 17 589 77 Q 588 117 593 490 Q 593 566 608 619 Q 615 632 613 645 Q 607 654 556 685 Q 535 701 516 686 Q 512 682 517 668 Q 544 629 544 590 Q 544 565 545 537 L 546 501 Q 546 459 546 415 L 545 377 Q 544 332 544 284 L 544 257 Z" class="stroke4"/>
    <path d="M 545 537 Q 536 538 466 521 Q 445 517 422 514 Q 392 508 414 496 Q 447 478 496 491 Q 518 497 546 501 C 576 505 575 538 545 537 Z" class="stroke5"/>
    <path d="M 546 415 Q 540 415 467 393 Q 446 387 420 383 Q 392 376 413 364 Q 443 352 502 365 Q 521 371 545 377 C 574 384 576 420 546 415 Z" class="stroke6"/>
    <path d="M 544 284 Q 406 242 386 240 Q 376 239 374 229 Q 373 219 381 211 Q 402 199 432 185 Q 441 182 451 191 Q 457 198 544 257 C 569 274 573 293 544 284 Z" class="stroke7"/>
    <path d="M 740 248 Q 739 306 739 382 L 739 406 Q 738 464 738 529 L 738 559 Q 738 670 752 725 Q 761 740 758 754 Q 751 763 694 796 Q 669 812 649 797 Q 645 791 651 776 Q 684 728 686 673 Q 689 571 694 304 Q 687 163 680 127 Q 662 73 673 44 Q 692 -17 706 -23 Q 713 -30 720 -22 Q 747 2 743 98 Q 742 138 741 215 L 740 248 Z" class="stroke8"/>
    <path d="M 738 529 Q 780 526 844 540 Q 904 558 906 559 Q 913 568 908 576 Q 901 588 870 592 Q 839 595 809 579 Q 782 570 738 559 C 709 552 708 531 738 529 Z" class="stroke9"/>
    <path d="M 739 382 Q 784 367 824 381 Q 852 387 881 393 Q 894 396 896 398 Q 903 405 899 413 Q 892 423 865 429 Q 850 432 780 412 Q 764 408 742 407 Q 739 407 739 406 C 710 400 710 391 739 382 Z" class="stroke10"/>
    <path d="M 741 215 Q 762 215 936 233 Q 949 234 949 240 Q 950 252 930 266 Q 890 290 842 268 Q 818 262 740 248 C 710 243 711 214 741 215 Z" class="stroke11"/>
    
    
    
    
    
    
    
    
    
    
    </g>
</svg>