<svg version="1.1" viewBox="0 0 1024 1024" xmlns="http://www.w3.org/2000/svg">
  
  <g transform="scale(1, -1) translate(0, -900)">
    <style type="text/css">
        .stroke1 {fill: #808080;}
        .stroke2 {fill: #808079;}
        .stroke3 {fill: #808078;}
        .stroke4 {fill: #808077;}
        .stroke5 {fill: #808076;}
        .stroke6 {fill: #808075;}
        .stroke7 {fill: #808074;}
        .stroke8 {fill: #808073;}
        .stroke9 {fill: #808072;}
        .stroke10 {fill: #808071;}
        .stroke11 {fill: #808070;}
        .stroke12 {fill: #808069;}
        .stroke13 {fill: #808068;}
        .stroke14 {fill: #808067;}
        .stroke15 {fill: #808066;}
        .stroke16 {fill: #808065;}
        .stroke17 {fill: #808064;}
        .stroke18 {fill: #808063;}
        .stroke19 {fill: #808062;}
        .stroke20 {fill: #808061;}
        text {
            font-family: Helvetica;
            font-size: 50px;
            fill: #808060;
            paint-order: stroke;
            stroke: #000000;
            stroke-width: 4px;
            stroke-linecap: butt;
            stroke-linejoin: miter;
            font-weight: 800;
        }
    </style>

    <path d="M 201 576 Q 235 625 271 693 Q 287 729 302 746 Q 309 756 304 769 Q 300 781 271 799 Q 244 814 227 811 Q 209 808 219 788 Q 232 767 226 747 Q 207 680 175 616 Q 144 555 99 485 Q 92 475 89 469 Q 88 459 100 462 Q 124 469 184 552 L 201 576 Z" class="stroke1"/>
    <path d="M 284 553 Q 333 568 389 582 Q 417 589 421 594 Q 428 601 424 609 Q 417 619 389 624 Q 362 628 297 601 Q 254 588 201 576 C 172 569 156 563 184 552 Q 211 540 243 543 L 284 553 Z" class="stroke2"/>
    <path d="M 306 413 Q 360 426 426 436 Q 442 439 442 446 Q 443 458 425 466 Q 392 479 308 452 L 256 439 Q 142 412 56 401 Q 43 400 41 392 Q 38 382 53 371 Q 92 347 129 360 Q 204 388 256 401 L 306 413 Z" class="stroke3"/>
    <path d="M 298 247 Q 302 338 306 413 L 308 452 L 310 478 Q 311 493 312 504 Q 319 522 310 532 Q 297 545 284 553 C 259 570 234 571 243 543 Q 252 524 256 439 L 256 401 Q 256 340 256 233 C 256 203 297 217 298 247 Z" class="stroke4"/>
    <path d="M 370 266 Q 331 259 298 247 L 256 233 Q 202 217 157 196 Q 150 196 153 204 Q 174 276 166 290 Q 156 306 136 321 Q 127 327 118 326 Q 108 323 113 306 Q 125 266 114 229 Q 105 195 88 180 Q 72 164 79 152 Q 89 139 104 130 Q 116 124 124 131 Q 148 161 274 205 Q 346 235 368 230 C 398 229 399 272 370 266 Z" class="stroke5"/>
    <path d="M 368 230 Q 372 212 378 198 Q 385 185 395 194 Q 416 215 419 282 Q 428 315 436 326 Q 443 339 434 350 Q 419 363 393 378 Q 383 384 373 379 Q 367 376 369 365 Q 390 322 370 266 C 364 248 364 248 368 230 Z" class="stroke6"/>
    <path d="M 660 530 Q 699 540 842 562 Q 852 561 861 574 Q 862 586 839 595 Q 809 619 729 590 Q 669 575 660 572 L 620 562 Q 509 547 456 537 Q 428 533 450 516 Q 483 492 521 501 Q 554 510 595 516 L 660 530 Z" class="stroke7"/>
    <path d="M 660 459 Q 660 493 660 530 L 660 572 Q 660 698 679 772 Q 694 797 668 816 Q 652 828 622 845 Q 598 861 577 846 Q 573 840 579 825 Q 615 773 616 720 Q 617 647 620 562 L 618 445 Q 615 214 613 194 L 608 151 Q 587 31 587 25 Q 587 10 607 -34 Q 614 -52 622 -55 Q 629 -62 636 -53 Q 643 -49 654 -28 Q 663 -3 662 29 Q 661 54 660 160 L 660 206 Q 660 294 660 424 L 660 459 Z" class="stroke8"/>
    <path d="M 595 516 Q 544 329 344 109 Q 337 97 344 97 Q 368 93 448 173 Q 526 249 603 412 Q 610 431 618 445 C 667 540 605 549 595 516 Z" class="stroke9"/>
    <path d="M 660 424 Q 727 315 816 197 Q 832 178 859 177 Q 955 176 986 179 Q 995 180 996 185 Q 997 189 984 197 Q 854 255 773 336 Q 724 387 670 450 Q 666 457 660 459 C 638 479 644 450 660 424 Z" class="stroke10"/>
    <path d="M 613 194 Q 555 179 504 167 Q 485 163 508 146 Q 520 137 544 141 Q 577 147 608 151 L 660 160 Q 706 167 749 173 Q 774 177 765 191 Q 753 207 725 213 Q 701 217 660 206 L 613 194 Z" class="stroke11"/>
    
    
    
    
    
    
    
    
    
    
    </g>
</svg>