<svg version="1.1" viewBox="0 0 1024 1024" xmlns="http://www.w3.org/2000/svg">
  
  <g transform="scale(1, -1) translate(0, -900)">
    <style type="text/css">
        .stroke1 {fill: #808080;}
        .stroke2 {fill: #808079;}
        .stroke3 {fill: #808078;}
        .stroke4 {fill: #808077;}
        .stroke5 {fill: #808076;}
        .stroke6 {fill: #808075;}
        .stroke7 {fill: #808074;}
        .stroke8 {fill: #808073;}
        .stroke9 {fill: #808072;}
        .stroke10 {fill: #808071;}
        .stroke11 {fill: #808070;}
        .stroke12 {fill: #808069;}
        .stroke13 {fill: #808068;}
        .stroke14 {fill: #808067;}
        .stroke15 {fill: #808066;}
        .stroke16 {fill: #808065;}
        .stroke17 {fill: #808064;}
        .stroke18 {fill: #808063;}
        .stroke19 {fill: #808062;}
        .stroke20 {fill: #808061;}
        text {
            font-family: Helvetica;
            font-size: 50px;
            fill: #808060;
            paint-order: stroke;
            stroke: #000000;
            stroke-width: 4px;
            stroke-linecap: butt;
            stroke-linejoin: miter;
            font-weight: 800;
        }
    </style>

    <path d="M 274 776 Q 267 780 255 786 Q 248 789 239 785 Q 233 781 238 772 Q 239 766 242 760 Q 270 705 251 543 Q 239 531 249 498 Q 256 477 269 464 Q 276 454 285 464 Q 291 474 292 484 L 294 507 Q 295 520 294 540 Q 293 556 293 569 L 292 591 Q 292 630 292 658 L 292 683 Q 291 735 292 740 Q 292 747 292 753 C 292 766 292 766 274 776 Z" class="stroke1"/>
    <path d="M 414 503 Q 415 494 421 484 Q 431 462 438 463 Q 448 464 461 488 Q 470 503 470 542 Q 451 710 482 759 Q 491 772 484 779 Q 462 798 426 813 Q 413 817 395 810 Q 352 789 274 776 C 244 771 262 750 292 753 Q 299 753 306 754 Q 405 784 412 773 Q 425 757 424 703 Q 424 573 419 530 L 414 503 Z" class="stroke2"/>
    <path d="M 292 658 Q 293 658 296 658 Q 344 668 379 675 Q 398 679 389 690 Q 379 700 358 703 Q 316 706 292 683 C 270 663 265 658 292 658 Z" class="stroke3"/>
    <path d="M 293 569 Q 296 569 385 580 Q 404 583 397 594 Q 388 606 367 609 Q 334 612 292 591 C 265 578 263 566 293 569 Z" class="stroke4"/>
    <path d="M 292 484 Q 295 484 299 484 Q 363 496 414 503 C 444 507 448 522 419 530 Q 415 531 409 533 Q 387 534 294 507 C 265 499 262 484 292 484 Z" class="stroke5"/>
    <path d="M 270 438 Q 264 398 156 313 Q 140 303 160 304 Q 202 304 288 378 Q 288 381 291 381 Q 313 400 322 410 Q 331 417 329 425 Q 328 435 308 442 Q 287 451 278 448 Q 274 448 270 438 Z" class="stroke6"/>
    <path d="M 395 427 Q 431 387 442 384 Q 449 384 454 393 Q 458 403 454 423 Q 451 436 433 445 Q 391 466 380 462 Q 376 461 376 451 Q 377 444 395 427 Z" class="stroke7"/>
    <path d="M 580 801 Q 568 813 551 818 Q 544 822 536 818 Q 532 815 535 806 Q 536 800 539 794 Q 557 761 547 600 Q 531 531 557 500 Q 564 490 573 500 Q 577 507 580 517 L 582 546 Q 582 555 583 602 L 583 624 Q 583 655 583 678 L 583 699 Q 584 768 586 774 C 588 794 588 794 580 801 Z" class="stroke8"/>
    <path d="M 711 535 Q 712 528 718 519 Q 730 494 738 495 Q 751 496 764 523 Q 773 539 774 582 Q 759 744 787 788 Q 796 801 789 809 Q 720 863 673 831 Q 628 816 580 801 C 551 792 557 767 586 774 Q 592 775 597 776 Q 649 795 689 806 Q 702 810 709 804 Q 721 788 720 736 Q 721 586 713 557 Q 712 557 712 556 C 708 541 708 541 711 535 Z" class="stroke9"/>
    <path d="M 583 678 Q 584 678 675 693 Q 693 697 685 706 Q 676 716 656 719 Q 623 722 583 699 C 557 684 553 674 583 678 Z" class="stroke10"/>
    <path d="M 583 602 Q 586 605 675 620 Q 693 624 685 634 Q 676 644 656 647 Q 628 650 583 624 C 557 609 555 591 583 602 Z" class="stroke11"/>
    <path d="M 580 517 Q 584 517 590 518 Q 627 528 711 535 C 734 537 734 537 712 556 Q 708 560 700 565 Q 687 572 662 565 Q 617 553 582 546 C 553 540 550 515 580 517 Z" class="stroke12"/>
    <path d="M 574 470 Q 568 436 488 369 Q 472 359 492 360 Q 543 360 626 442 Q 635 449 633 457 Q 632 467 612 474 Q 593 483 583 480 Q 577 479 574 470 Z" class="stroke13"/>
    <path d="M 714 434 Q 741 404 770 369 Q 780 356 794 355 Q 803 354 809 365 Q 815 377 811 404 Q 808 425 779 445 Q 710 482 696 479 Q 692 476 691 465 Q 692 455 714 434 Z" class="stroke14"/>
    <path d="M 379 303 Q 392 322 408 338 Q 417 348 406 360 Q 373 390 354 387 Q 345 386 346 374 Q 349 313 262 223 Q 259 220 257 217 Q 250 207 262 209 Q 274 209 289 219 Q 335 247 366 287 L 379 303 Z" class="stroke15"/>
    <path d="M 500 281 Q 566 294 637 305 Q 680 314 686 320 Q 693 327 690 334 Q 684 344 660 351 Q 636 357 535 327 Q 441 309 380 304 Q 379 304 379 303 C 351 298 351 298 366 287 Q 375 278 403 271 Q 428 267 454 273 Q 455 274 461 274 L 500 281 Z" class="stroke16"/>
    <path d="M 526 167 Q 646 180 820 181 Q 901 181 907 191 Q 913 203 896 217 Q 836 262 773 242 Q 676 224 528 200 L 475 193 Q 309 171 117 147 Q 95 146 111 127 Q 144 97 183 107 Q 342 150 475 161 L 526 167 Z" class="stroke17"/>
    <path d="M 518 49 Q 522 113 526 167 L 528 200 Q 528 215 530 230 Q 539 254 500 281 C 476 299 450 302 461 274 Q 470 256 475 193 L 475 161 Q 475 116 475 40 C 475 10 516 19 518 49 Z" class="stroke18"/>
    <path d="M 668 72 Q 589 63 518 49 L 475 40 Q 400 27 338 6 Q 325 5 329 20 Q 344 66 336 84 Q 324 103 303 118 Q 293 125 282 125 Q 272 121 277 103 Q 287 69 278 36 Q 271 5 256 -7 Q 238 -23 244 -36 Q 254 -52 270 -63 Q 283 -72 293 -64 Q 311 -43 445 -6 Q 622 48 677 36 Q 680 36 682 35 C 712 30 698 76 668 72 Z" class="stroke19"/>
    <path d="M 682 35 Q 724 -73 727 -76 Q 734 -80 746 -74 Q 762 -67 768 -23 Q 775 19 724 77 Q 694 111 662 146 Q 656 155 649 144 Q 643 134 668 72 L 682 35 Z" class="stroke20"/>
    
    
    
    
    
    
    
    
    
    
    
    
    
    
    
    
    
    
    
    </g>
</svg>