<svg version="1.1" viewBox="0 0 1024 1024" xmlns="http://www.w3.org/2000/svg">
  
  <g transform="scale(1, -1) translate(0, -900)">
    <style type="text/css">
        .stroke1 {fill: #808080;}
        .stroke2 {fill: #808079;}
        .stroke3 {fill: #808078;}
        .stroke4 {fill: #808077;}
        .stroke5 {fill: #808076;}
        .stroke6 {fill: #808075;}
        .stroke7 {fill: #808074;}
        .stroke8 {fill: #808073;}
        .stroke9 {fill: #808072;}
        .stroke10 {fill: #808071;}
        .stroke11 {fill: #808070;}
        .stroke12 {fill: #808069;}
        .stroke13 {fill: #808068;}
        .stroke14 {fill: #808067;}
        .stroke15 {fill: #808066;}
        .stroke16 {fill: #808065;}
        .stroke17 {fill: #808064;}
        .stroke18 {fill: #808063;}
        .stroke19 {fill: #808062;}
        .stroke20 {fill: #808061;}
        text {
            font-family: Helvetica;
            font-size: 50px;
            fill: #808060;
            paint-order: stroke;
            stroke: #000000;
            stroke-width: 4px;
            stroke-linecap: butt;
            stroke-linejoin: miter;
            font-weight: 800;
        }
    </style>

    <path d="M 301 741 Q 291 748 251 751 Q 238 754 235 748 Q 229 741 239 725 Q 270 673 292 586 Q 298 559 314 543 Q 335 521 339 538 Q 340 544 341 551 L 338 582 Q 337 589 336 596 Q 318 675 313 707 C 308 737 308 738 301 741 Z" class="stroke1"/>
    <path d="M 679 580 Q 692 561 705 554 Q 714 547 729 565 Q 741 581 770 674 Q 780 704 803 727 Q 816 739 805 753 Q 792 769 750 796 Q 734 805 664 790 Q 576 781 434 760 Q 361 750 301 741 C 271 737 284 701 313 707 Q 359 717 419 727 L 444 732 Q 496 742 563 749 L 603 753 Q 625 757 653 759 Q 701 765 715 748 Q 724 738 722 726 Q 703 636 689 615 C 676 588 675 585 679 580 Z" class="stroke2"/>
    <path d="M 474 596 Q 474 597 475 600 Q 479 634 457 704 Q 453 722 444 732 C 425 755 415 757 419 727 Q 423 697 424 677 Q 427 620 449 593 C 467 569 468 568 474 596 Z" class="stroke3"/>
    <path d="M 578 613 Q 591 637 610 683 Q 614 696 626 714 Q 636 726 628 733 Q 621 743 603 753 C 577 768 552 777 563 749 Q 575 730 551 608 C 545 579 564 586 578 613 Z" class="stroke4"/>
    <path d="M 341 551 L 343 550 Q 353 547 367 549 Q 467 570 679 580 C 709 581 712 596 689 615 Q 686 618 682 621 Q 664 633 578 613 L 551 608 Q 511 604 474 596 L 449 593 Q 388 587 338 582 C 308 579 312 558 341 551 Z" class="stroke5"/>
    <path d="M 536 405 Q 689 429 697 437 Q 706 444 702 452 Q 696 465 668 473 Q 640 480 610 471 Q 574 461 540 452 L 483 439 Q 479 440 477 439 Q 401 426 311 423 Q 275 419 300 401 Q 339 376 393 385 Q 436 392 485 398 L 536 405 Z" class="stroke6"/>
    <path d="M 525 294 Q 529 352 536 405 L 540 452 Q 540 458 548 494 Q 558 524 540 538 Q 509 556 486 560 Q 471 563 464 555 Q 457 548 464 535 Q 479 514 483 439 L 485 398 Q 485 347 485 289 C 485 259 523 264 525 294 Z" class="stroke7"/>
    <path d="M 498 258 Q 621 271 892 272 Q 914 272 919 281 Q 925 294 907 309 Q 847 355 781 336 Q 679 318 525 294 L 485 289 Q 320 270 130 248 Q 108 245 124 227 Q 139 212 158 206 Q 180 200 198 205 Q 316 236 450 251 L 498 258 Z" class="stroke8"/>
    <path d="M 686 101 Q 547 86 402 69 Q 390 66 387 70 Q 386 73 392 80 Q 486 189 521 218 Q 537 230 528 240 Q 521 250 498 258 C 471 270 450 280 450 251 Q 449 248 450 242 Q 457 175 337 82 Q 271 46 270 43 Q 267 27 275 3 Q 284 -18 296 -24 Q 303 -28 315 -24 Q 409 24 701 79 C 730 85 716 104 686 101 Z" class="stroke9"/>
    <path d="M 701 79 Q 758 -12 768 -19 Q 775 -22 785 -14 Q 800 -4 796 39 Q 793 96 638 209 Q 631 216 626 205 Q 623 192 631 181 Q 656 145 686 101 L 701 79 Z" class="stroke10"/>
    
    
    
    
    
    
    
    
    
    </g>
</svg>