<svg version="1.1" viewBox="0 0 1024 1024" xmlns="http://www.w3.org/2000/svg">
  
  <g transform="scale(1, -1) translate(0, -900)">
    <style type="text/css">
        .stroke1 {fill: #808080;}
        .stroke2 {fill: #808079;}
        .stroke3 {fill: #808078;}
        .stroke4 {fill: #808077;}
        .stroke5 {fill: #808076;}
        .stroke6 {fill: #808075;}
        .stroke7 {fill: #808074;}
        .stroke8 {fill: #808073;}
        .stroke9 {fill: #808072;}
        .stroke10 {fill: #808071;}
        .stroke11 {fill: #808070;}
        .stroke12 {fill: #808069;}
        .stroke13 {fill: #808068;}
        .stroke14 {fill: #808067;}
        .stroke15 {fill: #808066;}
        .stroke16 {fill: #808065;}
        .stroke17 {fill: #808064;}
        .stroke18 {fill: #808063;}
        .stroke19 {fill: #808062;}
        .stroke20 {fill: #808061;}
        text {
            font-family: Helvetica;
            font-size: 50px;
            fill: #808060;
            paint-order: stroke;
            stroke: #000000;
            stroke-width: 4px;
            stroke-linecap: butt;
            stroke-linejoin: miter;
            font-weight: 800;
        }
    </style>

    <path d="M 187 683 Q 206 661 228 633 Q 238 620 253 618 Q 263 617 269 629 Q 275 642 271 670 Q 264 700 188 727 Q 175 733 168 731 Q 164 728 163 716 Q 164 706 187 683 Z" class="stroke1"/>
    <path d="M 387 758 Q 366 712 321 637 Q 317 628 323 623 Q 330 623 337 629 Q 419 716 461 751 Q 477 758 472 768 Q 463 783 442 797 Q 420 812 398 810 Q 385 807 388 788 Q 392 775 387 758 Z" class="stroke2"/>
    <path d="M 283 538 Q 421 575 424 578 Q 431 585 427 593 Q 420 603 393 609 Q 365 613 339 601 Q 305 588 266 576 Q 224 566 175 558 Q 141 551 166 537 Q 202 519 253 530 L 283 538 Z" class="stroke3"/>
    <path d="M 332 414 Q 351 421 377 426 Q 408 435 412 440 Q 419 447 415 454 Q 408 464 383 469 Q 358 472 335 462 L 277 440 Q 267 439 260 435 Q 218 425 170 417 Q 139 410 162 396 Q 192 381 268 398 Q 272 399 277 399 L 332 414 Z" class="stroke4"/>
    <path d="M 319 289 Q 439 337 442 351 Q 438 357 425 355 Q 376 342 324 326 L 272 312 Q 203 296 130 276 Q 109 270 76 272 Q 63 271 61 262 Q 58 249 67 241 Q 88 225 119 206 Q 129 202 140 210 Q 188 240 266 269 L 319 289 Z" class="stroke5"/>
    <path d="M 266 269 Q 236 145 146 54 Q 130 44 122 28 Q 121 21 132 21 Q 202 28 276 146 Q 282 158 288 169 Q 318 241 319 289 L 324 326 Q 328 366 332 414 L 335 462 Q 339 480 341 490 Q 347 509 326 520 Q 301 533 283 538 C 255 548 242 552 253 530 Q 253 526 260 516 Q 267 504 277 440 L 277 399 Q 276 365 273 317 Q 272 316 272 312 L 266 269 Z" class="stroke6"/>
    <path d="M 508 691 Q 471 682 498 667 Q 543 643 599 661 Q 672 680 749 700 Q 783 710 788 715 Q 797 724 792 732 Q 785 744 754 750 Q 723 754 693 740 Q 653 724 611 712 Q 563 699 508 691 Z" class="stroke7"/>
    <path d="M 489 549 Q 480 482 441 427 Q 432 418 431 409 Q 430 399 452 382 Q 479 358 513 313 Q 525 294 536 295 Q 549 295 557 312 Q 564 334 559 349 Q 553 370 480 400 Q 468 407 469 412 Q 466 425 508 481 Q 538 521 550 533 Q 560 537 561 545 Q 565 561 541 581 Q 522 600 504 603 Q 486 604 481 598 Q 478 594 484 585 Q 494 573 489 549 Z" class="stroke8"/>
    <path d="M 617 570 Q 608 519 574 474 Q 555 461 599 415 Q 620 391 647 354 Q 657 335 668 337 Q 681 336 689 352 Q 698 373 692 387 Q 686 408 611 445 Q 587 458 636 512 Q 664 543 674 550 Q 684 554 686 561 Q 690 576 668 597 Q 652 616 634 620 Q 618 623 612 617 Q 611 613 615 604 Q 622 592 617 570 Z" class="stroke9"/>
    <path d="M 750 578 Q 735 533 705 491 Q 695 481 698 469 Q 699 459 714 447 Q 757 407 792 362 Q 805 344 819 343 Q 832 344 836 365 Q 840 387 830 403 Q 821 422 759 450 Q 740 456 733 470 Q 729 480 742 493 Q 758 509 786 545 Q 802 567 818 578 Q 833 587 826 603 Q 813 637 790 650 Q 777 657 765 656 Q 755 655 760 636 Q 767 612 750 578 Z" class="stroke10"/>
    <path d="M 636 235 Q 663 241 786 262 Q 796 261 806 274 Q 806 286 783 295 Q 756 316 675 290 Q 659 287 643 282 Q 586 267 483 253 Q 455 249 477 232 Q 513 210 550 218 Q 572 224 599 228 L 636 235 Z" class="stroke11"/>
    <path d="M 644 85 Q 656 175 661 185 Q 668 201 661 211 Q 648 226 636 235 C 612 254 588 256 599 228 Q 600 227 601 225 Q 602 213 600 79 C 600 49 640 55 644 85 Z" class="stroke12"/>
    <path d="M 600 79 Q 503 69 393 55 Q 371 54 387 35 Q 402 20 420 15 Q 442 8 459 13 Q 615 55 861 47 Q 879 47 897 46 Q 918 46 923 55 Q 929 67 912 81 Q 852 127 800 110 Q 737 100 644 85 L 600 79 Z" class="stroke13"/>
    
    
    
    
    
    
    
    
    
    
    
    
    </g>
</svg>