<svg version="1.1" viewBox="0 0 1024 1024" xmlns="http://www.w3.org/2000/svg">
  
  <g transform="scale(1, -1) translate(0, -900)">
    <style type="text/css">
        .stroke1 {fill: #808080;}
        .stroke2 {fill: #808079;}
        .stroke3 {fill: #808078;}
        .stroke4 {fill: #808077;}
        .stroke5 {fill: #808076;}
        .stroke6 {fill: #808075;}
        .stroke7 {fill: #808074;}
        .stroke8 {fill: #808073;}
        .stroke9 {fill: #808072;}
        .stroke10 {fill: #808071;}
        .stroke11 {fill: #808070;}
        .stroke12 {fill: #808069;}
        .stroke13 {fill: #808068;}
        .stroke14 {fill: #808067;}
        .stroke15 {fill: #808066;}
        .stroke16 {fill: #808065;}
        .stroke17 {fill: #808064;}
        .stroke18 {fill: #808063;}
        .stroke19 {fill: #808062;}
        .stroke20 {fill: #808061;}
        text {
            font-family: Helvetica;
            font-size: 50px;
            fill: #808060;
            paint-order: stroke;
            stroke: #000000;
            stroke-width: 4px;
            stroke-linecap: butt;
            stroke-linejoin: miter;
            font-weight: 800;
        }
    </style>

    <path d="M 378 780 Q 397 762 418 740 Q 430 728 443 729 Q 453 729 457 741 Q 461 754 454 779 Q 448 801 375 822 Q 362 825 356 823 Q 352 819 353 808 Q 356 798 378 780 Z" class="stroke1"/>
    <path d="M 579 824 Q 560 790 510 733 Q 501 718 516 721 Q 558 743 581 761 Q 627 797 653 808 Q 672 817 662 832 Q 652 847 628 859 Q 607 872 596 869 Q 586 868 589 856 Q 592 840 579 824 Z" class="stroke2"/>
    <path d="M 505 656 Q 566 669 633 682 Q 690 695 698 702 Q 707 709 703 717 Q 696 727 670 735 Q 646 741 535 706 Q 417 676 309 666 Q 275 662 299 645 Q 332 624 417 640 Q 438 644 461 647 L 505 656 Z" class="stroke3"/>
    <path d="M 515 560 Q 539 567 627 579 Q 636 578 642 588 Q 643 597 625 604 Q 601 622 517 593 L 466 581 Q 438 577 413 571 Q 383 567 351 562 Q 329 558 346 546 Q 359 534 397 534 Q 428 543 467 550 L 515 560 Z" class="stroke4"/>
    <path d="M 509 503 Q 512 534 515 560 L 517 593 Q 526 635 508 653 Q 507 654 505 656 C 484 677 458 677 461 647 Q 462 641 466 581 L 467 550 Q 467 528 468 496 C 469 466 506 473 509 503 Z" class="stroke5"/>
    <path d="M 468 496 Q 368 480 254 460 Q 235 457 250 443 Q 263 431 279 427 Q 298 423 313 427 Q 500 484 740 484 L 742 484 Q 760 485 764 493 Q 768 503 753 515 Q 702 551 645 532 Q 588 520 509 503 L 468 496 Z" class="stroke6"/>
    <path d="M 257 350 Q 282 329 310 305 Q 323 295 336 296 Q 345 297 349 308 Q 353 321 344 347 Q 331 375 251 391 Q 238 392 232 391 Q 228 387 229 376 Q 233 366 257 350 Z" class="stroke7"/>
    <path d="M 166 251 Q 205 206 237 191 Q 250 188 259 201 Q 265 213 262 228 Q 253 265 177 287 Q 161 291 153 287 Q 147 286 150 275 Q 151 265 166 251 Z" class="stroke8"/>
    <path d="M 184 55 Q 172 54 172 37 Q 175 -33 203 -56 Q 207 -63 218 -62 Q 225 -61 230 -39 Q 237 -6 333 171 Q 342 184 342 190 Q 342 200 333 195 Q 327 192 217 78 Q 205 65 184 55 Z" class="stroke9"/>
    <path d="M 519 345 Q 538 381 555 409 Q 564 421 550 433 Q 508 460 487 455 Q 477 452 481 439 Q 499 363 420 260 Q 401 238 392 223 Q 386 210 399 214 Q 412 217 431 233 Q 480 276 509 326 L 519 345 Z" class="stroke10"/>
    <path d="M 509 326 L 510 325 Q 532 306 555 315 Q 613 340 679 357 Q 713 367 724 364 Q 737 354 733 344 Q 734 340 731 335 Q 722 307 710 280 Q 704 270 709 265 Q 713 261 723 272 Q 805 335 841 350 Q 850 351 850 360 Q 851 373 822 385 Q 753 422 738 414 Q 657 377 519 345 C 492 339 492 339 509 326 Z" class="stroke11"/>
    <path d="M 594 174 Q 609 213 621 228 Q 633 243 619 253 Q 582 293 556 289 Q 543 288 546 272 Q 564 226 517 120 Q 466 27 358 -22 Q 345 -29 356 -33 Q 405 -37 472 2 Q 508 21 528 49 Q 537 61 546 72 Q 570 105 584 146 L 594 174 Z" class="stroke12"/>
    <path d="M 584 146 Q 641 61 715 -31 Q 731 -47 756 -46 Q 844 -42 871 -37 Q 878 -36 880 -31 Q 881 -27 869 -20 Q 740 34 663 107 Q 630 138 594 174 C 573 195 567 171 584 146 Z" class="stroke13"/>
    
    
    
    
    
    
    
    
    
    
    
    
    </g>
</svg>