<svg version="1.1" viewBox="0 0 1024 1024" xmlns="http://www.w3.org/2000/svg">
  
  <g transform="scale(1, -1) translate(0, -900)">
    <style type="text/css">
        .stroke1 {fill: #808080;}
        .stroke2 {fill: #808079;}
        .stroke3 {fill: #808078;}
        .stroke4 {fill: #808077;}
        .stroke5 {fill: #808076;}
        .stroke6 {fill: #808075;}
        .stroke7 {fill: #808074;}
        .stroke8 {fill: #808073;}
        .stroke9 {fill: #808072;}
        .stroke10 {fill: #808071;}
        .stroke11 {fill: #808070;}
        .stroke12 {fill: #808069;}
        .stroke13 {fill: #808068;}
        .stroke14 {fill: #808067;}
        .stroke15 {fill: #808066;}
        .stroke16 {fill: #808065;}
        .stroke17 {fill: #808064;}
        .stroke18 {fill: #808063;}
        .stroke19 {fill: #808062;}
        .stroke20 {fill: #808061;}
        text {
            font-family: Helvetica;
            font-size: 50px;
            fill: #808060;
            paint-order: stroke;
            stroke: #000000;
            stroke-width: 4px;
            stroke-linecap: butt;
            stroke-linejoin: miter;
            font-weight: 800;
        }
    </style>

    <path d="M 311 648 Q 503 696 507 699 Q 517 708 511 716 Q 504 728 474 735 Q 446 739 334 702 Q 265 684 189 674 Q 152 667 179 650 Q 218 629 272 639 L 311 648 Z" class="stroke1"/>
    <path d="M 269 478 Q 284 505 310 566 Q 317 584 332 608 Q 344 618 336 628 Q 329 638 311 648 C 285 663 266 668 272 639 Q 281 606 244 490 Q 241 480 240 472 C 235 442 255 452 269 478 Z" class="stroke2"/>
    <path d="M 133 451 Q 118 466 88 463 Q 78 459 82 449 Q 119 383 97 265 Q 78 211 109 178 Q 116 168 124 173 Q 149 191 147 271 Q 144 383 144 416 C 144 443 144 443 133 451 Z" class="stroke3"/>
    <path d="M 347 462 Q 428 481 448 467 Q 461 463 465 442 Q 469 393 463 300 Q 463 279 443 279 Q 412 283 385 288 Q 372 289 375 281 Q 376 272 403 255 Q 440 227 465 196 Q 475 187 485 193 Q 492 197 504 225 Q 519 258 520 331 Q 513 454 526 471 Q 536 484 527 494 Q 517 504 475 519 Q 457 525 443 516 Q 424 509 368 499 Q 314 489 269 478 L 240 472 Q 233 472 229 470 Q 174 458 133 451 C 103 446 116 406 144 416 Q 154 416 166 424 Q 182 430 204 434 L 234 441 Q 267 450 312 456 L 347 462 Z" class="stroke4"/>
    <path d="M 204 434 Q 204 433 206 428 Q 221 376 222 294 Q 221 270 232 252 Q 244 231 250 243 Q 260 259 259 295 Q 259 392 261 412 Q 262 424 259 429 Q 252 435 234 441 C 206 451 197 454 204 434 Z" class="stroke5"/>
    <path d="M 326 246 Q 329 230 333 222 Q 337 218 342 219 Q 354 228 365 370 Q 365 410 372 432 Q 375 444 366 450 Q 356 457 347 462 C 321 477 303 485 312 456 Q 318 441 323 394 Q 323 277 326 246 Z" class="stroke6"/>
    <path d="M 786 516 Q 835 523 906 525 Q 951 525 957 535 Q 961 547 945 559 Q 885 595 819 571 Q 803 568 787 562 L 737 551 Q 727 550 721 548 Q 643 532 550 513 Q 531 510 546 495 Q 559 483 577 479 Q 596 475 612 481 Q 705 508 738 509 L 786 516 Z" class="stroke7"/>
    <path d="M 738 509 Q 739 361 740 103 Q 740 78 727 69 Q 721 66 649 79 Q 616 91 619 81 Q 620 74 640 59 Q 706 10 723 -20 Q 742 -54 758 -55 Q 773 -55 787 -20 Q 803 25 801 99 Q 785 307 786 516 L 787 562 Q 787 676 803 737 Q 819 768 764 789 Q 730 808 711 800 Q 693 793 710 771 Q 732 744 734 710 Q 735 692 737 551 L 738 509 Z" class="stroke8"/>
    <path d="M 575 333 Q 620 273 636 270 Q 646 269 653 281 Q 660 294 655 324 Q 651 351 577 379 Q 562 385 556 383 Q 552 380 551 367 Q 552 357 575 333 Z" class="stroke9"/>
    
    
    
    
    
    
    
    
    </g>
</svg>