<svg version="1.1" viewBox="0 0 1024 1024" xmlns="http://www.w3.org/2000/svg">
  
  <g transform="scale(1, -1) translate(0, -900)">
    <style type="text/css">
        .stroke1 {fill: #808080;}
        .stroke2 {fill: #808079;}
        .stroke3 {fill: #808078;}
        .stroke4 {fill: #808077;}
        .stroke5 {fill: #808076;}
        .stroke6 {fill: #808075;}
        .stroke7 {fill: #808074;}
        .stroke8 {fill: #808073;}
        .stroke9 {fill: #808072;}
        .stroke10 {fill: #808071;}
        .stroke11 {fill: #808070;}
        .stroke12 {fill: #808069;}
        .stroke13 {fill: #808068;}
        .stroke14 {fill: #808067;}
        .stroke15 {fill: #808066;}
        .stroke16 {fill: #808065;}
        .stroke17 {fill: #808064;}
        .stroke18 {fill: #808063;}
        .stroke19 {fill: #808062;}
        .stroke20 {fill: #808061;}
        text {
            font-family: Helvetica;
            font-size: 50px;
            fill: #808060;
            paint-order: stroke;
            stroke: #000000;
            stroke-width: 4px;
            stroke-linecap: butt;
            stroke-linejoin: miter;
            font-weight: 800;
        }
    </style>

    <path d="M 326 614 Q 435 653 438 654 Q 445 663 440 670 Q 433 680 405 683 Q 384 686 329 662 L 279 642 Q 273 641 269 639 Q 221 623 165 611 Q 132 602 157 589 Q 190 574 266 595 Q 272 598 281 599 L 326 614 Z" class="stroke1"/>
    <path d="M 325 491 Q 353 501 385 510 Q 410 517 414 522 Q 421 531 416 538 Q 409 548 381 552 Q 353 553 327 540 Q 326 540 325 539 L 282 521 Q 275 520 268 517 Q 234 507 193 499 Q 160 490 185 477 Q 222 461 282 479 L 325 491 Z" class="stroke2"/>
    <path d="M 324 374 Q 375 387 438 396 Q 454 399 454 406 Q 455 418 438 426 Q 413 436 390 431 Q 353 422 324 414 L 280 403 Q 162 376 80 365 Q 67 364 65 356 Q 62 346 77 335 Q 116 311 153 324 Q 217 348 270 360 L 324 374 Z" class="stroke3"/>
    <path d="M 324 298 Q 324 334 324 374 L 324 414 Q 324 451 325 491 L 325 539 Q 325 599 326 614 L 329 662 Q 333 704 343 736 Q 352 752 349 765 Q 342 775 286 809 Q 262 825 241 810 Q 237 804 243 789 Q 277 740 278 689 Q 278 667 279 642 L 281 599 Q 281 560 282 521 L 282 479 Q 281 442 280 403 L 279 287 Q 279 164 255 72 Q 243 30 271 -30 Q 278 -48 286 -51 Q 293 -58 300 -49 Q 307 -45 318 -24 Q 327 1 326 33 Q 325 67 324 277 L 324 298 Z" class="stroke4"/>
    <path d="M 270 360 Q 210 240 35 110 Q 23 100 32 97 Q 39 93 52 97 Q 166 139 275 282 Q 276 285 279 287 C 344 370 284 387 270 360 Z" class="stroke5"/>
    <path d="M 324 277 Q 328 270 340 259 Q 365 234 391 203 Q 400 193 412 192 Q 421 191 425 201 Q 429 211 426 235 Q 422 263 341 296 Q 329 300 324 298 C 311 296 311 296 324 277 Z" class="stroke6"/>
    <path d="M 756 559 Q 775 566 800 570 Q 849 583 856 591 Q 865 600 860 608 Q 853 620 822 626 Q 792 630 767 619 L 712 598 Q 676 588 604 566 L 555 555 Q 528 551 500 546 Q 463 539 491 523 Q 521 507 560 509 L 606 519 Q 652 532 705 545 L 756 559 Z" class="stroke7"/>
    <path d="M 604 566 Q 604 678 598 685 Q 595 688 592 690 Q 568 709 540 717 Q 525 723 516 716 Q 509 709 515 694 Q 545 640 555 555 L 560 509 Q 564 464 571 401 C 574 371 615 378 613 408 Q 609 471 606 519 L 604 566 Z" class="stroke8"/>
    <path d="M 730 430 Q 743 496 756 559 L 767 619 Q 776 682 808 765 Q 812 775 795 793 Q 762 817 738 824 Q 723 830 714 822 Q 705 815 711 800 Q 730 764 727 742 Q 723 673 712 598 L 705 545 Q 695 487 685 422 C 680 392 724 401 730 430 Z" class="stroke9"/>
    <path d="M 571 401 Q 507 391 439 378 Q 420 375 435 359 Q 448 346 466 342 Q 487 338 502 343 Q 688 404 939 404 L 941 404 Q 960 405 965 414 Q 969 426 953 438 Q 893 478 835 455 Q 790 446 730 430 L 685 422 Q 678 422 674 420 Q 644 416 613 408 L 571 401 Z" class="stroke10"/>
    <path d="M 561 280 Q 534 298 509 295 Q 497 291 503 279 Q 548 194 517 56 Q 493 14 529 -31 L 531 -33 Q 538 -45 548 -39 Q 557 -30 566 1 L 572 36 Q 575 75 572 132 L 571 160 Q 570 229 571 249 C 572 274 572 274 561 280 Z" class="stroke11"/>
    <path d="M 752 17 Q 771 -11 786 -44 Q 798 -66 808 -68 Q 820 -68 829 -43 Q 845 2 840 123 Q 836 234 845 261 Q 855 283 841 293 Q 834 305 795 323 Q 776 333 736 318 Q 693 305 646 295 Q 609 288 561 280 C 531 275 542 243 571 249 Q 709 276 735 279 Q 760 282 768 272 Q 778 262 775 115 Q 776 63 771 52 Q 768 48 761 45 C 745 27 745 27 752 17 Z" class="stroke12"/>
    <path d="M 572 132 Q 573 132 702 150 Q 727 154 717 168 Q 705 183 679 187 Q 646 190 571 160 C 543 149 542 128 572 132 Z" class="stroke13"/>
    <path d="M 566 1 Q 570 1 575 2 Q 632 12 752 17 C 782 18 783 25 761 45 Q 755 51 746 57 Q 730 66 699 60 Q 629 45 572 36 C 542 31 536 -2 566 1 Z" class="stroke14"/>
    
    
    
    
    
    
    
    
    
    
    
    
    
    </g>
</svg>