<svg version="1.1" viewBox="0 0 1024 1024" xmlns="http://www.w3.org/2000/svg">
  
  <g transform="scale(1, -1) translate(0, -900)">
    <style type="text/css">
        .stroke1 {fill: #808080;}
        .stroke2 {fill: #808079;}
        .stroke3 {fill: #808078;}
        .stroke4 {fill: #808077;}
        .stroke5 {fill: #808076;}
        .stroke6 {fill: #808075;}
        .stroke7 {fill: #808074;}
        .stroke8 {fill: #808073;}
        .stroke9 {fill: #808072;}
        .stroke10 {fill: #808071;}
        .stroke11 {fill: #808070;}
        .stroke12 {fill: #808069;}
        .stroke13 {fill: #808068;}
        .stroke14 {fill: #808067;}
        .stroke15 {fill: #808066;}
        .stroke16 {fill: #808065;}
        .stroke17 {fill: #808064;}
        .stroke18 {fill: #808063;}
        .stroke19 {fill: #808062;}
        .stroke20 {fill: #808061;}
        text {
            font-family: Helvetica;
            font-size: 50px;
            fill: #808060;
            paint-order: stroke;
            stroke: #000000;
            stroke-width: 4px;
            stroke-linecap: butt;
            stroke-linejoin: miter;
            font-weight: 800;
        }
    </style>

    <path d="M 215 370 Q 219 386 229 485 L 231 516 Q 232 538 232 561 Q 235 666 240 670 C 243 689 243 689 226 699 Q 175 730 156 721 Q 146 714 152 700 Q 168 679 176 627 Q 176 386 150 288 Q 126 198 52 55 Q 48 48 47 42 Q 46 32 55 34 Q 73 37 104 88 Q 170 175 209 340 L 215 370 Z" class="stroke1"/>
    <path d="M 240 670 Q 267 676 320 693 Q 338 699 343 690 Q 367 626 354 238 Q 351 138 341 124 L 273 133 Q 252 140 252 132 Q 304 86 333 51 Q 345 33 360 28 Q 369 24 377 34 Q 416 85 414 132 Q 405 310 404 599 Q 403 654 416 678 Q 426 697 415 706 Q 396 724 360 737 Q 344 744 328 737 Q 300 719 282 713 Q 261 706 226 699 C 197 693 211 663 240 670 Z" class="stroke2"/>
    <path d="M 229 485 Q 281 495 321 502 Q 342 506 333 517 Q 323 530 300 532 Q 260 535 231 516 C 206 500 200 479 229 485 Z" class="stroke3"/>
    <path d="M 209 340 Q 212 340 217 340 Q 275 350 319 355 Q 343 359 333 372 Q 323 387 297 390 Q 252 393 215 370 C 189 355 179 340 209 340 Z" class="stroke4"/>
    <path d="M 604 516 Q 525 503 479 502 Q 458 505 458 493 Q 457 483 480 468 Q 508 449 534 458 Q 564 467 596 473 L 654 485 Q 703 497 754 501 Q 769 502 772 494 Q 779 478 777 435 Q 770 275 741 191 Q 728 137 710 121 Q 697 106 669 114 Q 635 121 605 130 Q 580 136 598 114 Q 647 65 673 26 Q 683 5 705 12 Q 724 15 748 43 Q 817 116 837 391 Q 841 452 864 489 Q 882 511 872 523 Q 854 542 816 559 Q 788 572 760 559 Q 717 543 662 528 L 604 516 Z" class="stroke5"/>
    <path d="M 596 473 Q 595 469 595 464 Q 558 278 416 72 Q 410 65 408 59 Q 405 47 416 49 Q 450 55 538 181 Q 556 211 574 245 Q 628 359 654 485 L 662 528 Q 695 747 696 748 Q 695 749 695 750 Q 679 768 646 784 Q 627 796 613 791 Q 600 784 607 769 Q 626 742 622 666 Q 607 537 604 516 L 596 473 Z" class="stroke6"/>
    
    
    
    
    
    </g>
</svg>