<svg version="1.1" viewBox="0 0 1024 1024" xmlns="http://www.w3.org/2000/svg">
  
  <g transform="scale(1, -1) translate(0, -900)">
    <style type="text/css">
        .stroke1 {fill: #808080;}
        .stroke2 {fill: #808079;}
        .stroke3 {fill: #808078;}
        .stroke4 {fill: #808077;}
        .stroke5 {fill: #808076;}
        .stroke6 {fill: #808075;}
        .stroke7 {fill: #808074;}
        .stroke8 {fill: #808073;}
        .stroke9 {fill: #808072;}
        .stroke10 {fill: #808071;}
        .stroke11 {fill: #808070;}
        .stroke12 {fill: #808069;}
        .stroke13 {fill: #808068;}
        .stroke14 {fill: #808067;}
        .stroke15 {fill: #808066;}
        .stroke16 {fill: #808065;}
        .stroke17 {fill: #808064;}
        .stroke18 {fill: #808063;}
        .stroke19 {fill: #808062;}
        .stroke20 {fill: #808061;}
        text {
            font-family: Helvetica;
            font-size: 50px;
            fill: #808060;
            paint-order: stroke;
            stroke: #000000;
            stroke-width: 4px;
            stroke-linecap: butt;
            stroke-linejoin: miter;
            font-weight: 800;
        }
    </style>

    <path d="M 231 384 Q 238 442 242 498 L 243 532 Q 244 553 245 633 Q 248 672 251 678 C 254 696 254 696 231 708 Q 186 733 169 725 Q 159 716 166 704 Q 184 683 191 625 Q 191 417 177 337 Q 171 310 166 284 Q 139 185 68 46 Q 64 39 62 33 Q 61 23 71 26 Q 89 29 119 81 Q 194 180 225 349 L 231 384 Z" class="stroke1"/>
    <path d="M 251 678 Q 251 679 324 700 Q 343 706 349 696 Q 377 621 364 219 Q 360 143 351 126 Q 345 122 263 136 Q 244 140 245 131 Q 309 85 345 50 Q 360 32 375 27 Q 385 24 392 34 Q 431 83 429 139 Q 417 314 415 601 Q 412 659 426 685 Q 438 704 426 714 Q 404 733 367 747 Q 348 756 302 730 Q 271 718 231 708 C 202 700 222 669 251 678 Z" class="stroke2"/>
    <path d="M 242 498 Q 242 497 249 498 Q 292 505 324 509 Q 349 516 338 528 Q 325 541 298 544 Q 276 545 243 532 C 215 521 212 501 242 498 Z" class="stroke3"/>
    <path d="M 225 349 Q 228 348 235 349 Q 286 356 323 361 Q 348 367 338 380 Q 325 395 298 397 Q 273 398 231 384 C 202 375 195 353 225 349 Z" class="stroke4"/>
    <path d="M 556 720 Q 525 735 515 732 Q 499 729 512 711 Q 536 672 520 561 Q 516 540 507 516 Q 495 480 454 438 Q 442 428 440 422 Q 439 416 448 417 Q 472 417 514 457 Q 566 514 575 664 Q 578 679 579 687 C 582 708 582 708 556 720 Z" class="stroke5"/>
    <path d="M 579 687 Q 586 688 594 692 Q 678 723 681 723 Q 688 722 689 708 Q 683 659 677 617 Q 667 568 676 533 Q 682 508 703 493 Q 734 474 797 473 Q 858 473 889 489 Q 904 493 896 509 Q 883 527 865 537 Q 853 544 831 535 Q 797 520 756 523 Q 729 524 722 544 Q 709 566 722 632 Q 726 672 766 712 Q 784 727 767 741 Q 745 760 719 771 Q 712 775 632 740 Q 614 734 556 720 C 527 713 551 677 579 687 Z" class="stroke6"/>
    <path d="M 668 188 Q 668 189 669 189 Q 706 249 739 344 Q 751 374 770 393 Q 789 409 775 423 Q 762 435 729 445 Q 704 452 677 436 Q 649 424 612 412 Q 575 400 511 391 Q 496 390 492 382 Q 488 375 507 367 Q 544 354 596 370 Q 648 392 659 392 Q 684 392 680 365 Q 665 293 631 224 L 607 189 Q 543 117 439 84 Q 426 78 438 71 Q 444 67 482 69 Q 566 76 637 151 L 668 188 Z" class="stroke7"/>
    <path d="M 637 151 Q 686 94 767 21 Q 797 -3 842 6 Q 900 15 943 22 Q 956 23 969 30 Q 976 37 965 46 Q 949 53 826 92 Q 760 111 668 188 L 631 224 Q 592 261 553 307 Q 534 331 499 336 Q 489 337 479 331 Q 475 324 483 318 Q 490 312 499 307 Q 518 298 607 189 L 637 151 Z" class="stroke8"/>
    
    
    
    
    
    
    
    </g>
</svg>