<svg version="1.1" viewBox="0 0 1024 1024" xmlns="http://www.w3.org/2000/svg">
  
  <g transform="scale(1, -1) translate(0, -900)">
    <style type="text/css">
        .stroke1 {fill: #808080;}
        .stroke2 {fill: #808079;}
        .stroke3 {fill: #808078;}
        .stroke4 {fill: #808077;}
        .stroke5 {fill: #808076;}
        .stroke6 {fill: #808075;}
        .stroke7 {fill: #808074;}
        .stroke8 {fill: #808073;}
        .stroke9 {fill: #808072;}
        .stroke10 {fill: #808071;}
        .stroke11 {fill: #808070;}
        .stroke12 {fill: #808069;}
        .stroke13 {fill: #808068;}
        .stroke14 {fill: #808067;}
        .stroke15 {fill: #808066;}
        .stroke16 {fill: #808065;}
        .stroke17 {fill: #808064;}
        .stroke18 {fill: #808063;}
        .stroke19 {fill: #808062;}
        .stroke20 {fill: #808061;}
        text {
            font-family: Helvetica;
            font-size: 50px;
            fill: #808060;
            paint-order: stroke;
            stroke: #000000;
            stroke-width: 4px;
            stroke-linecap: butt;
            stroke-linejoin: miter;
            font-weight: 800;
        }
    </style>

    <path d="M 370 754 L 368 756 Q 355 763 314 768 Q 301 771 297 765 Q 290 758 301 741 Q 332 681 355 581 Q 359 551 378 532 Q 399 508 403 526 Q 407 538 406 554 L 402 589 Q 384 685 378 720 C 373 750 372 753 370 754 Z" class="stroke1"/>
    <path d="M 690 605 Q 732 692 769 711 Q 790 730 775 751 Q 759 767 703 801 Q 684 811 659 805 Q 550 769 370 754 C 340 751 348 716 378 720 Q 384 720 630 754 Q 658 760 668 748 Q 680 730 633 620 C 621 592 677 578 690 605 Z" class="stroke2"/>
    <path d="M 406 554 Q 407 554 410 553 Q 422 549 437 551 Q 519 564 696 570 Q 708 571 710 581 Q 711 588 690 605 C 667 624 663 624 633 620 Q 627 620 625 619 Q 501 595 402 589 C 372 587 377 562 406 554 Z" class="stroke3"/>
    <path d="M 388 220 Q 392 272 399 311 L 402 339 Q 408 397 413 419 Q 413 422 413 424 L 407 452 Q 386 479 347 480 Q 332 476 337 463 Q 383 343 319 145 Q 292 79 292 77 Q 292 38 310 12 Q 317 -3 328 2 Q 370 32 385 188 L 388 220 Z" class="stroke4"/>
    <path d="M 413 424 Q 426 424 445 428 Q 626 464 654 451 Q 667 444 667 412 Q 677 225 664 78 Q 663 48 645 43 Q 632 42 567 65 Q 554 69 554 61 Q 554 51 570 40 Q 610 0 640 -39 Q 656 -60 676 -59 Q 694 -55 718 -4 Q 746 48 744 103 Q 737 233 731 351 Q 728 399 749 436 Q 762 452 747 468 Q 728 487 686 503 Q 667 513 616 493 Q 513 469 407 452 C 377 447 383 421 413 424 Z" class="stroke5"/>
    <path d="M 399 311 Q 405 310 572 328 Q 599 332 589 347 Q 577 363 547 370 Q 508 376 402 339 C 374 329 369 310 399 311 Z" class="stroke6"/>
    <path d="M 385 188 Q 389 187 402 188 Q 511 201 591 208 Q 619 212 609 227 Q 597 245 568 251 Q 534 257 388 220 C 359 213 355 190 385 188 Z" class="stroke7"/>
    
    
    
    
    
    
    </g>
</svg>