<svg version="1.1" viewBox="0 0 1024 1024" xmlns="http://www.w3.org/2000/svg">
  
  <g transform="scale(1, -1) translate(0, -900)">
    <style type="text/css">
        .stroke1 {fill: #808080;}
        .stroke2 {fill: #808079;}
        .stroke3 {fill: #808078;}
        .stroke4 {fill: #808077;}
        .stroke5 {fill: #808076;}
        .stroke6 {fill: #808075;}
        .stroke7 {fill: #808074;}
        .stroke8 {fill: #808073;}
        .stroke9 {fill: #808072;}
        .stroke10 {fill: #808071;}
        .stroke11 {fill: #808070;}
        .stroke12 {fill: #808069;}
        .stroke13 {fill: #808068;}
        .stroke14 {fill: #808067;}
        .stroke15 {fill: #808066;}
        .stroke16 {fill: #808065;}
        .stroke17 {fill: #808064;}
        .stroke18 {fill: #808063;}
        .stroke19 {fill: #808062;}
        .stroke20 {fill: #808061;}
        text {
            font-family: Helvetica;
            font-size: 50px;
            fill: #808060;
            paint-order: stroke;
            stroke: #000000;
            stroke-width: 4px;
            stroke-linecap: butt;
            stroke-linejoin: miter;
            font-weight: 800;
        }
    </style>

    <path d="M 462 803 Q 490 785 520 763 Q 536 753 551 756 Q 561 757 565 772 Q 566 788 553 816 Q 546 832 514 842 Q 439 857 427 847 Q 423 843 427 830 Q 431 820 462 803 Z" class="stroke1"/>
    <path d="M 491 666 Q 615 682 805 683 Q 880 683 887 692 Q 893 704 876 718 Q 819 760 757 742 Q 544 702 152 654 Q 131 653 147 635 Q 160 622 179 616 Q 201 610 216 615 Q 318 643 431 658 L 491 666 Z" class="stroke2"/>
    <path d="M 636 566 Q 516 544 392 521 Q 382 520 379 522 Q 378 525 384 530 Q 465 615 495 637 Q 508 647 502 657 Q 498 661 491 666 C 470 688 436 688 431 658 Q 431 616 361 551 Q 340 532 303 516 Q 278 506 277 497 Q 274 481 283 462 Q 290 443 303 438 Q 310 435 320 440 Q 416 498 647 548 Q 650 549 653 549 C 682 555 666 571 636 566 Z" class="stroke3"/>
    <path d="M 653 549 Q 723 474 733 470 Q 742 469 749 478 Q 761 491 749 533 Q 742 572 673 601 Q 630 620 605 628 Q 598 632 595 621 Q 594 608 604 598 Q 619 585 636 566 L 653 549 Z" class="stroke4"/>
    <path d="M 393 172 Q 396 224 400 262 L 402 286 Q 406 344 409 365 Q 409 368 409 369 C 411 388 411 388 401 396 Q 377 420 346 418 Q 333 414 337 402 Q 382 303 332 107 Q 310 55 313 42 Q 313 12 331 -10 Q 338 -23 348 -18 Q 390 7 391 136 Q 391 139 392 141 L 393 172 Z" class="stroke5"/>
    <path d="M 409 369 Q 416 372 427 374 Q 572 404 595 393 Q 608 387 610 357 Q 632 191 627 59 Q 627 32 612 27 Q 602 23 546 34 Q 533 37 534 28 Q 535 21 551 11 Q 588 -19 615 -50 Q 631 -66 647 -65 Q 663 -61 681 -13 Q 705 36 698 85 Q 685 200 672 307 Q 668 349 683 384 Q 695 400 681 414 Q 662 430 623 443 Q 601 453 584 441 Q 565 432 527 422 Q 445 404 401 396 C 372 390 380 361 409 369 Z" class="stroke6"/>
    <path d="M 400 262 Q 431 255 528 273 Q 538 276 550 278 Q 569 282 572 285 Q 579 292 575 299 Q 568 308 545 313 Q 533 316 453 294 Q 428 290 402 286 C 372 281 370 267 400 262 Z" class="stroke7"/>
    <path d="M 392 141 Q 396 141 399 140 Q 427 137 576 165 Q 580 166 582 168 Q 589 175 586 182 Q 580 192 556 199 Q 535 203 458 183 Q 451 182 393 172 C 363 167 362 145 392 141 Z" class="stroke8"/>
    
    
    
    
    
    
    
    </g>
</svg>