<svg version="1.1" viewBox="0 0 1024 1024" xmlns="http://www.w3.org/2000/svg">
  
  <g transform="scale(1, -1) translate(0, -900)">
    <style type="text/css">
        .stroke1 {fill: #808080;}
        .stroke2 {fill: #808079;}
        .stroke3 {fill: #808078;}
        .stroke4 {fill: #808077;}
        .stroke5 {fill: #808076;}
        .stroke6 {fill: #808075;}
        .stroke7 {fill: #808074;}
        .stroke8 {fill: #808073;}
        .stroke9 {fill: #808072;}
        .stroke10 {fill: #808071;}
        .stroke11 {fill: #808070;}
        .stroke12 {fill: #808069;}
        .stroke13 {fill: #808068;}
        .stroke14 {fill: #808067;}
        .stroke15 {fill: #808066;}
        .stroke16 {fill: #808065;}
        .stroke17 {fill: #808064;}
        .stroke18 {fill: #808063;}
        .stroke19 {fill: #808062;}
        .stroke20 {fill: #808061;}
        text {
            font-family: Helvetica;
            font-size: 50px;
            fill: #808060;
            paint-order: stroke;
            stroke: #000000;
            stroke-width: 4px;
            stroke-linecap: butt;
            stroke-linejoin: miter;
            font-weight: 800;
        }
    </style>

    <path d="M 321 613 Q 343 644 368 683 Q 386 717 402 732 Q 411 742 406 755 Q 402 767 375 787 Q 350 803 332 803 Q 314 802 322 781 Q 343 742 268 616 Q 234 558 185 493 Q 176 483 174 477 Q 171 467 185 470 Q 218 476 312 600 L 321 613 Z" class="stroke1"/>
    <path d="M 312 600 Q 322 588 353 592 Q 423 605 428 595 Q 434 582 416 530 Q 401 473 344 396 Q 290 314 196 232 Q 174 217 194 219 Q 221 222 267 253 Q 315 284 365 348 Q 426 427 472 528 Q 494 577 509 591 Q 521 601 515 612 Q 511 622 461 642 Q 449 646 429 636 Q 398 623 321 613 C 293 609 293 609 312 600 Z" class="stroke2"/>
    <path d="M 287 519 Q 338 468 353 469 Q 363 468 368 483 Q 368 493 360 509 Q 342 534 289 540 Q 282 541 282 532 Q 281 525 287 519 Z" class="stroke3"/>
    <path d="M 233 425 Q 275 371 283 369 Q 292 368 297 377 Q 303 387 301 411 Q 298 433 237 462 Q 225 468 220 466 Q 216 465 215 454 Q 216 445 233 425 Z" class="stroke4"/>
    <path d="M 648 501 Q 723 519 793 529 Q 803 528 810 540 Q 811 550 790 559 Q 763 578 695 554 Q 680 553 652 542 L 606 530 Q 587 530 511 514 Q 486 510 506 495 Q 531 477 574 484 Q 584 487 601 490 L 648 501 Z" class="stroke5"/>
    <path d="M 641 457 Q 644 479 648 501 L 652 542 Q 667 720 688 768 Q 695 781 684 793 Q 662 812 624 823 Q 600 830 591 824 Q 582 817 589 805 Q 611 768 613 722 Q 614 623 606 530 L 601 490 Q 588 384 523 318 Q 483 285 407 249 Q 394 243 393 239 Q 394 235 405 234 Q 420 230 456 240 Q 588 273 633 422 L 641 457 Z" class="stroke6"/>
    <path d="M 633 422 Q 688 335 761 243 Q 777 225 803 226 Q 894 227 922 231 Q 931 232 932 237 Q 933 241 921 248 Q 786 311 736 361 Q 690 404 641 457 C 621 479 617 447 633 422 Z" class="stroke7"/>
    <path d="M 759 673 Q 781 654 806 630 Q 819 618 834 619 Q 844 620 849 632 Q 853 647 844 675 Q 834 702 753 719 Q 738 722 732 719 Q 728 715 729 703 Q 733 693 759 673 Z" class="stroke8"/>
    
    
    
    
    
    
    
    </g>
</svg>