<svg version="1.1" viewBox="0 0 1024 1024" xmlns="http://www.w3.org/2000/svg">
  
  <g transform="scale(1, -1) translate(0, -900)">
    <style type="text/css">
        .stroke1 {fill: #808080;}
        .stroke2 {fill: #808079;}
        .stroke3 {fill: #808078;}
        .stroke4 {fill: #808077;}
        .stroke5 {fill: #808076;}
        .stroke6 {fill: #808075;}
        .stroke7 {fill: #808074;}
        .stroke8 {fill: #808073;}
        .stroke9 {fill: #808072;}
        .stroke10 {fill: #808071;}
        .stroke11 {fill: #808070;}
        .stroke12 {fill: #808069;}
        .stroke13 {fill: #808068;}
        .stroke14 {fill: #808067;}
        .stroke15 {fill: #808066;}
        .stroke16 {fill: #808065;}
        .stroke17 {fill: #808064;}
        .stroke18 {fill: #808063;}
        .stroke19 {fill: #808062;}
        .stroke20 {fill: #808061;}
        text {
            font-family: Helvetica;
            font-size: 50px;
            fill: #808060;
            paint-order: stroke;
            stroke: #000000;
            stroke-width: 4px;
            stroke-linecap: butt;
            stroke-linejoin: miter;
            font-weight: 800;
        }
    </style>

    <path d="M 224 719 Q 208 729 184 737 Q 165 746 153 739 Q 143 732 151 719 Q 172 695 177 631 Q 177 619 179 604 Q 189 445 161 309 Q 136 198 71 74 Q 67 67 66 61 Q 65 51 75 54 Q 103 63 166 186 Q 178 216 190 248 Q 206 303 218 365 L 224 404 Q 230 459 232 514 L 232 552 Q 232 666 235 690 C 237 712 237 712 224 719 Z" class="stroke1"/>
    <path d="M 402 137 Q 392 344 392 646 Q 392 680 403 698 Q 415 717 403 726 Q 382 742 348 757 Q 329 766 286 739 Q 253 727 224 719 C 195 710 206 682 235 690 Q 251 693 308 712 Q 326 719 331 709 Q 346 670 346 382 Q 343 150 328 128 Q 324 122 303 127 Q 275 131 247 136 Q 228 140 229 131 Q 289 88 323 56 Q 336 38 351 34 Q 360 31 368 40 Q 404 88 402 133 L 402 137 Z" class="stroke2"/>
    <path d="M 232 514 Q 272 521 304 525 Q 329 532 318 544 Q 305 559 278 561 Q 259 562 232 552 C 204 542 202 509 232 514 Z" class="stroke3"/>
    <path d="M 218 365 Q 267 374 303 377 Q 328 383 318 396 Q 305 411 278 413 Q 256 414 224 404 C 195 395 188 360 218 365 Z" class="stroke4"/>
    <path d="M 545 542 Q 518 541 447 525 Q 419 519 441 504 Q 477 480 520 493 Q 529 496 540 498 L 592 510 Q 631 522 776 549 Q 786 548 794 562 Q 795 574 772 582 Q 741 601 677 578 Q 605 559 598 555 L 545 542 Z" class="stroke5"/>
    <path d="M 598 555 Q 613 741 616 751 Q 623 766 616 778 Q 600 794 568 806 Q 549 816 536 811 Q 524 804 532 790 Q 568 738 545 542 L 540 498 Q 510 312 409 151 Q 405 144 403 138 Q 402 138 402 137 C 400 133 400 133 402 133 Q 403 129 411 130 Q 424 133 462 182 Q 558 296 592 510 L 598 555 Z" class="stroke6"/>
    <path d="M 610 182 Q 611 86 647 59 Q 690 22 851 27 Q 924 28 953 44 Q 981 59 970 89 Q 952 135 942 218 Q 941 234 933 238 Q 926 242 922 223 Q 907 123 893 104 Q 871 80 768 75 Q 713 76 689 85 Q 668 95 664 109 Q 652 140 651 213 L 654 266 Q 660 330 675 365 Q 687 393 669 410 Q 620 447 606 443 Q 591 437 599 421 Q 618 385 613 332 Q 610 271 610 224 L 610 182 Z" class="stroke7"/>
    <path d="M 610 224 Q 535 161 534 157 Q 528 148 541 148 Q 550 148 610 182 L 651 213 Q 655 217 661 221 Q 712 258 771 320 Q 796 348 817 361 Q 827 368 825 381 Q 824 393 803 417 Q 784 438 767 441 Q 751 442 754 422 Q 764 379 659 271 Q 656 270 654 266 L 610 224 Z" class="stroke8"/>
    <path d="M 721 699 Q 752 674 787 645 Q 802 632 818 634 Q 828 635 833 648 Q 837 664 826 693 Q 814 727 714 747 Q 698 750 692 747 Q 688 743 689 730 Q 693 720 721 699 Z" class="stroke9"/>
    
    
    
    
    
    
    
    
    </g>
</svg>