<svg version="1.1" viewBox="0 0 1024 1024" xmlns="http://www.w3.org/2000/svg">
  
  <g transform="scale(1, -1) translate(0, -900)">
    <style type="text/css">
        .stroke1 {fill: #808080;}
        .stroke2 {fill: #808079;}
        .stroke3 {fill: #808078;}
        .stroke4 {fill: #808077;}
        .stroke5 {fill: #808076;}
        .stroke6 {fill: #808075;}
        .stroke7 {fill: #808074;}
        .stroke8 {fill: #808073;}
        .stroke9 {fill: #808072;}
        .stroke10 {fill: #808071;}
        .stroke11 {fill: #808070;}
        .stroke12 {fill: #808069;}
        .stroke13 {fill: #808068;}
        .stroke14 {fill: #808067;}
        .stroke15 {fill: #808066;}
        .stroke16 {fill: #808065;}
        .stroke17 {fill: #808064;}
        .stroke18 {fill: #808063;}
        .stroke19 {fill: #808062;}
        .stroke20 {fill: #808061;}
        text {
            font-family: Helvetica;
            font-size: 50px;
            fill: #808060;
            paint-order: stroke;
            stroke: #000000;
            stroke-width: 4px;
            stroke-linecap: butt;
            stroke-linejoin: miter;
            font-weight: 800;
        }
    </style>

    <path d="M 197 365 Q 197 372 199 377 Q 206 432 208 485 L 210 521 Q 210 540 210 560 Q 206 662 215 671 C 219 688 219 688 195 700 Q 183 707 165 714 Q 146 721 135 716 Q 125 709 132 696 Q 153 672 158 610 Q 158 597 159 579 Q 166 411 137 281 Q 110 172 44 45 Q 40 38 38 33 Q 37 23 47 26 Q 62 29 93 80 Q 162 173 191 330 L 197 365 Z" class="stroke1"/>
    <path d="M 215 671 Q 242 680 276 692 Q 291 696 299 690 Q 311 678 310 640 Q 317 333 303 149 Q 302 128 296 119 Q 292 115 277 117 Q 256 124 234 132 Q 216 142 216 132 Q 259 80 282 44 Q 292 25 307 20 Q 316 16 324 25 Q 366 73 367 119 Q 358 302 360 599 Q 359 654 371 677 Q 381 696 371 706 Q 350 722 316 737 Q 298 744 285 737 Q 260 721 242 713 Q 226 707 195 700 C 166 693 187 661 215 671 Z" class="stroke2"/>
    <path d="M 208 485 Q 247 494 278 500 Q 300 506 290 517 Q 278 530 254 531 Q 235 531 210 521 C 182 510 179 478 208 485 Z" class="stroke3"/>
    <path d="M 191 330 Q 239 340 277 344 Q 299 348 289 361 Q 279 374 254 377 Q 232 378 197 365 C 169 355 162 324 191 330 Z" class="stroke4"/>
    <path d="M 523 658 Q 556 676 677 747 Q 699 762 725 770 Q 749 777 739 797 Q 727 816 702 835 Q 678 851 665 851 Q 652 850 654 836 Q 655 803 580 736 Q 546 708 508 674 C 486 654 497 643 523 658 Z" class="stroke5"/>
    <path d="M 508 674 Q 495 683 473 689 Q 455 696 445 691 Q 435 684 442 672 Q 463 651 468 591 Q 468 581 470 567 Q 482 429 460 299 Q 439 202 383 84 Q 379 78 378 72 Q 377 62 386 66 Q 399 69 427 117 Q 535 273 521 550 Q 518 611 521 643 Q 524 650 523 658 C 524 666 524 666 508 674 Z" class="stroke6"/>
    <path d="M 627 523 Q 699 559 730 581 Q 764 605 795 618 Q 808 622 811 629 Q 812 638 800 645 Q 781 655 740 661 Q 727 665 716 661 Q 710 657 712 647 Q 712 623 618 540 C 596 520 600 510 627 523 Z" class="stroke7"/>
    <path d="M 619 427 Q 622 475 627 523 C 628 531 628 531 618 540 Q 599 561 578 570 Q 562 577 553 572 Q 543 566 551 551 Q 599 452 562 139 Q 561 93 526 44 Q 516 29 524 8 Q 534 -17 548 -27 Q 561 -34 571 -17 Q 584 14 718 155 Q 734 170 737 179 Q 738 188 730 187 Q 711 183 608 102 Q 607 98 604 101 Q 619 264 619 395 L 619 427 Z" class="stroke8"/>
    <path d="M 697 353 Q 740 384 766 405 Q 829 459 849 469 Q 868 479 857 496 Q 844 511 819 523 Q 795 535 784 532 Q 771 529 776 517 Q 782 490 683 365 C 664 341 673 335 697 353 Z" class="stroke9"/>
    <path d="M 683 365 Q 652 395 619 427 C 597 448 601 419 619 395 Q 703 283 809 164 Q 828 145 858 146 Q 964 150 997 158 Q 1007 159 1008 165 Q 1008 171 994 177 Q 844 228 769 290 Q 733 320 697 353 L 683 365 Z" class="stroke10"/>
    
    
    
    
    
    
    
    
    
    </g>
</svg>