<svg version="1.1" viewBox="0 0 1024 1024" xmlns="http://www.w3.org/2000/svg">
  
  <g transform="scale(1, -1) translate(0, -900)">
    <style type="text/css">
        .stroke1 {fill: #808080;}
        .stroke2 {fill: #808079;}
        .stroke3 {fill: #808078;}
        .stroke4 {fill: #808077;}
        .stroke5 {fill: #808076;}
        .stroke6 {fill: #808075;}
        .stroke7 {fill: #808074;}
        .stroke8 {fill: #808073;}
        .stroke9 {fill: #808072;}
        .stroke10 {fill: #808071;}
        .stroke11 {fill: #808070;}
        .stroke12 {fill: #808069;}
        .stroke13 {fill: #808068;}
        .stroke14 {fill: #808067;}
        .stroke15 {fill: #808066;}
        .stroke16 {fill: #808065;}
        .stroke17 {fill: #808064;}
        .stroke18 {fill: #808063;}
        .stroke19 {fill: #808062;}
        .stroke20 {fill: #808061;}
        text {
            font-family: Helvetica;
            font-size: 50px;
            fill: #808060;
            paint-order: stroke;
            stroke: #000000;
            stroke-width: 4px;
            stroke-linecap: butt;
            stroke-linejoin: miter;
            font-weight: 800;
        }
    </style>

    <path d="M 364 755 Q 406 740 444 748 Q 685 790 698 798 Q 707 805 702 813 Q 696 823 670 832 Q 642 838 615 828 Q 561 812 504 799 Q 440 786 365 781 Q 364 781 364 780 C 334 775 335 764 364 755 Z" class="stroke1"/>
    <path d="M 321 589 Q 336 637 348 697 Q 354 727 364 755 C 371 776 371 776 364 780 Q 354 789 324 799 Q 302 806 292 803 Q 279 797 284 783 Q 323 650 215 470 Q 209 464 206 457 Q 176 405 93 309 Q 86 300 93 299 Q 100 298 111 304 Q 249 398 307 550 Q 308 557 312 563 L 321 589 Z" class="stroke2"/>
    <path d="M 406 694 Q 378 690 398 676 Q 432 658 477 669 Q 535 681 596 695 Q 623 702 627 705 Q 634 712 631 719 Q 624 728 601 733 Q 577 737 553 728 Q 486 704 406 694 Z" class="stroke3"/>
    <path d="M 473 586 Q 494 593 591 605 Q 643 611 710 614 Q 759 614 764 624 Q 768 634 754 644 Q 708 675 643 656 Q 468 619 321 589 C 292 583 284 574 312 563 Q 321 557 345 554 L 378 563 Q 408 573 443 580 L 473 586 Z" class="stroke4"/>
    <path d="M 345 554 Q 364 508 350 460 Q 343 436 330 423 Q 317 407 322 387 Q 328 359 341 347 Q 348 340 361 354 Q 392 382 490 447 Q 506 456 509 462 Q 512 474 493 467 Q 399 439 394 441 Q 387 447 390 466 Q 397 508 402 518 Q 408 534 397 545 Q 387 557 378 563 C 355 582 335 582 345 554 Z" class="stroke5"/>
    <path d="M 607 500 Q 670 528 701 538 Q 717 539 715 549 Q 712 564 698 582 Q 685 600 666 604 Q 654 605 652 590 Q 652 572 589 511 C 567 490 580 488 607 500 Z" class="stroke6"/>
    <path d="M 589 511 Q 571 521 473 586 C 448 603 420 600 443 580 Q 563 475 688 383 Q 736 344 878 393 Q 894 397 896 402 Q 897 408 883 412 Q 702 458 693 462 Q 674 469 607 500 L 589 511 Z" class="stroke7"/>
    <path d="M 379 119 Q 380 164 383 195 L 385 220 Q 386 269 391 285 Q 391 289 391 291 C 393 309 393 309 381 317 Q 378 321 373 323 Q 343 338 326 337 Q 313 333 318 321 Q 358 228 320 82 Q 302 27 303 20 Q 303 -11 323 -34 Q 330 -47 340 -42 Q 377 -18 378 92 L 379 119 Z" class="stroke8"/>
    <path d="M 391 291 Q 398 292 406 295 Q 578 335 605 323 Q 618 316 620 287 Q 633 152 629 46 Q 628 25 616 21 Q 603 17 538 37 Q 525 41 526 33 Q 527 24 543 13 Q 583 -21 615 -59 Q 631 -77 650 -75 Q 665 -72 682 -32 Q 704 10 700 52 Q 693 154 685 246 Q 681 283 697 313 Q 710 329 694 344 Q 675 360 634 374 Q 616 383 559 360 Q 499 344 381 317 C 352 310 362 284 391 291 Z" class="stroke9"/>
    <path d="M 383 195 Q 392 194 405 195 Q 489 208 550 216 Q 574 220 565 232 Q 555 247 529 252 Q 505 255 464 244 Q 422 231 385 220 C 356 211 353 197 383 195 Z" class="stroke10"/>
    <path d="M 378 92 Q 385 91 396 92 Q 493 102 565 109 Q 589 110 580 124 Q 571 140 546 146 Q 521 150 379 119 C 350 113 348 94 378 92 Z" class="stroke11"/>
    
    
    
    
    
    
    
    
    
    
    </g>
</svg>