<svg version="1.1" viewBox="0 0 1024 1024" xmlns="http://www.w3.org/2000/svg">
  
  <g transform="scale(1, -1) translate(0, -900)">
    <style type="text/css">
        .stroke1 {fill: #808080;}
        .stroke2 {fill: #808079;}
        .stroke3 {fill: #808078;}
        .stroke4 {fill: #808077;}
        .stroke5 {fill: #808076;}
        .stroke6 {fill: #808075;}
        .stroke7 {fill: #808074;}
        .stroke8 {fill: #808073;}
        .stroke9 {fill: #808072;}
        .stroke10 {fill: #808071;}
        .stroke11 {fill: #808070;}
        .stroke12 {fill: #808069;}
        .stroke13 {fill: #808068;}
        .stroke14 {fill: #808067;}
        .stroke15 {fill: #808066;}
        .stroke16 {fill: #808065;}
        .stroke17 {fill: #808064;}
        .stroke18 {fill: #808063;}
        .stroke19 {fill: #808062;}
        .stroke20 {fill: #808061;}
        text {
            font-family: Helvetica;
            font-size: 50px;
            fill: #808060;
            paint-order: stroke;
            stroke: #000000;
            stroke-width: 4px;
            stroke-linecap: butt;
            stroke-linejoin: miter;
            font-weight: 800;
        }
    </style>

    <path d="M 198 362 Q 207 416 209 486 L 210 520 Q 211 592 215 666 C 216 683 216 683 192 694 Q 180 701 165 706 Q 146 713 135 708 Q 125 701 132 688 Q 151 664 158 606 Q 158 593 159 576 Q 166 414 140 289 Q 115 184 51 61 Q 47 54 46 49 Q 45 39 55 42 Q 68 45 99 95 Q 165 186 191 326 L 198 362 Z" class="stroke1"/>
    <path d="M 215 666 Q 222 670 228 671 Q 252 678 276 688 Q 294 695 299 685 Q 314 646 314 358 Q 311 130 297 106 Q 294 103 223 115 Q 204 121 205 111 Q 259 68 290 34 Q 303 15 317 11 Q 326 8 334 17 Q 371 66 370 116 Q 360 320 360 622 Q 360 656 371 674 Q 383 692 371 702 Q 350 718 316 733 Q 298 739 246 711 Q 225 704 192 694 C 163 685 187 656 215 666 Z" class="stroke2"/>
    <path d="M 209 486 Q 243 493 270 497 Q 291 503 282 513 Q 272 525 248 527 Q 232 528 210 520 C 182 510 180 480 209 486 Z" class="stroke3"/>
    <path d="M 191 326 Q 234 335 269 340 Q 291 346 282 357 Q 270 370 246 372 Q 227 373 198 362 C 170 352 162 320 191 326 Z" class="stroke4"/>
    <path d="M 471 550 Q 452 563 428 568 Q 415 572 407 566 Q 400 559 408 546 Q 444 492 475 292 C 480 262 516 266 512 296 Q 488 470 488 514 C 487 540 487 540 471 550 Z" class="stroke5"/>
    <path d="M 821 335 Q 831 386 841 435 Q 853 496 890 539 Q 911 563 881 580 Q 854 599 827 613 Q 811 625 787 614 Q 759 604 716 595 Q 715 595 714 594 L 668 586 Q 629 582 589 571 L 551 563 Q 505 556 471 550 C 441 545 459 506 488 514 Q 494 515 500 517 Q 528 526 554 531 L 590 539 Q 608 545 666 550 L 711 556 Q 741 562 777 565 Q 790 566 795 560 Q 816 532 765 326 C 758 297 815 306 821 335 Z" class="stroke6"/>
    <path d="M 701 428 Q 729 435 756 436 Q 775 439 769 450 Q 760 462 739 466 Q 726 469 704 464 L 660 455 Q 626 448 596 440 L 561 433 Q 542 430 526 426 Q 513 423 529 411 Q 539 402 563 406 L 599 411 Q 627 417 658 421 L 701 428 Z" class="stroke7"/>
    <path d="M 589 571 Q 588 655 590 676 Q 591 698 578 709 Q 556 725 530 734 Q 517 738 508 733 Q 501 726 507 712 Q 546 639 551 563 L 554 531 Q 557 492 561 433 L 563 406 Q 564 360 569 302 C 571 272 609 276 607 306 Q 603 363 599 411 L 596 440 Q 592 495 590 539 L 589 571 Z" class="stroke8"/>
    <path d="M 714 594 Q 714 669 745 776 Q 749 788 729 803 Q 695 824 670 829 Q 654 833 646 824 Q 639 817 646 802 Q 671 759 671 730 Q 671 660 668 586 L 666 550 Q 663 504 660 455 L 658 421 Q 652 369 647 311 C 644 281 688 286 690 316 Q 694 373 701 428 L 704 464 Q 707 510 711 556 L 714 594 Z" class="stroke9"/>
    <path d="M 475 292 Q 430 289 384 284 Q 365 283 378 266 Q 408 239 440 247 Q 614 292 898 286 Q 919 286 940 285 Q 958 285 962 292 Q 966 302 953 316 Q 901 356 832 337 Q 826 337 821 335 L 765 326 Q 729 323 690 316 L 647 311 Q 628 310 607 306 L 569 302 Q 541 301 512 296 L 475 292 Z" class="stroke10"/>
    <path d="M 519 205 Q 513 154 396 44 Q 377 29 403 33 Q 469 40 555 137 Q 579 162 590 173 Q 600 185 598 194 Q 594 207 569 214 Q 541 224 529 220 Q 522 219 519 205 Z" class="stroke11"/>
    <path d="M 706 183 Q 757 125 815 40 Q 828 18 844 12 Q 853 9 861 18 Q 876 30 868 76 Q 864 137 711 214 Q 702 221 699 208 Q 696 195 706 183 Z" class="stroke12"/>
    
    
    
    
    
    
    
    
    
    
    
    </g>
</svg>