<svg version="1.1" viewBox="0 0 1024 1024" xmlns="http://www.w3.org/2000/svg">
  
  <g transform="scale(1, -1) translate(0, -900)">
    <style type="text/css">
        .stroke1 {fill: #808080;}
        .stroke2 {fill: #808079;}
        .stroke3 {fill: #808078;}
        .stroke4 {fill: #808077;}
        .stroke5 {fill: #808076;}
        .stroke6 {fill: #808075;}
        .stroke7 {fill: #808074;}
        .stroke8 {fill: #808073;}
        .stroke9 {fill: #808072;}
        .stroke10 {fill: #808071;}
        .stroke11 {fill: #808070;}
        .stroke12 {fill: #808069;}
        .stroke13 {fill: #808068;}
        .stroke14 {fill: #808067;}
        .stroke15 {fill: #808066;}
        .stroke16 {fill: #808065;}
        .stroke17 {fill: #808064;}
        .stroke18 {fill: #808063;}
        .stroke19 {fill: #808062;}
        .stroke20 {fill: #808061;}
        text {
            font-family: Helvetica;
            font-size: 50px;
            fill: #808060;
            paint-order: stroke;
            stroke: #000000;
            stroke-width: 4px;
            stroke-linecap: butt;
            stroke-linejoin: miter;
            font-weight: 800;
        }
    </style>

    <path d="M 369 792 Q 403 802 441 811 Q 475 821 480 825 Q 487 832 483 839 Q 476 848 453 853 Q 428 857 405 846 Q 368 831 326 819 Q 280 807 229 798 C 199 793 212 770 242 771 Q 275 771 337 784 L 369 792 Z" class="stroke1"/>
    <path d="M 369 715 Q 376 731 383 746 Q 389 758 392 761 Q 396 767 386 779 Q 376 786 369 792 C 346 811 329 813 337 784 Q 341 777 334 701 C 331 671 357 688 369 715 Z" class="stroke2"/>
    <path d="M 437 619 Q 458 659 480 670 Q 493 685 482 699 Q 469 709 428 729 Q 412 738 369 715 L 334 701 Q 330 700 327 699 Q 284 684 237 674 C 208 668 206 656 236 655 Q 248 652 320 669 Q 401 693 410 688 Q 416 681 394 623 C 384 595 423 593 437 619 Z" class="stroke3"/>
    <path d="M 376 580 Q 406 587 447 593 Q 457 594 457 602 Q 457 609 437 619 L 394 623 Q 390 623 389 622 Q 304 594 234 577 C 205 570 203 556 233 551 Q 234 551 237 550 Q 246 549 257 552 Q 290 562 347 574 L 376 580 Z" class="stroke4"/>
    <path d="M 382 504 Q 395 555 394 558 Q 385 571 376 580 C 355 602 342 604 347 574 Q 348 570 348 563 Q 348 556 342 495 C 339 465 375 475 382 504 Z" class="stroke5"/>
    <path d="M 229 798 Q 219 805 201 814 Q 182 824 175 818 Q 169 811 176 798 Q 212 729 184 500 Q 180 479 167 457 Q 160 444 167 426 Q 174 408 184 401 Q 193 394 207 406 Q 273 464 477 479 Q 496 480 497 490 Q 496 502 471 516 Q 459 525 382 504 L 342 495 Q 341 496 339 495 Q 297 488 247 473 Q 240 470 236 473 Q 232 474 232 483 Q 232 516 233 551 L 234 577 Q 234 614 236 655 L 237 674 Q 237 749 242 771 C 244 789 244 789 229 798 Z" class="stroke6"/>
    <path d="M 703 622 Q 703 623 704 623 Q 737 675 765 758 Q 775 783 791 801 Q 807 816 795 827 Q 783 837 755 846 Q 733 850 710 838 Q 688 826 655 814 Q 624 802 569 791 Q 557 790 554 783 Q 550 776 567 771 Q 600 761 642 777 Q 688 799 697 799 Q 716 798 713 777 Q 700 707 673 658 Q 670 654 668 650 L 646 619 Q 589 559 503 531 Q 491 527 502 520 Q 506 516 540 518 Q 610 525 674 588 L 703 622 Z" class="stroke7"/>
    <path d="M 674 588 Q 783 479 818 475 Q 890 475 964 491 Q 997 497 993 505 Q 990 515 840 551 Q 789 566 703 622 L 668 650 Q 641 672 615 696 Q 581 730 549 728 Q 533 728 530 723 Q 529 716 543 708 Q 574 690 646 619 L 674 588 Z" class="stroke8"/>
    <path d="M 379 203 Q 380 249 385 282 L 387 309 Q 390 349 393 364 Q 394 371 393 377 C 393 393 393 393 377 402 Q 349 418 330 418 Q 317 414 321 402 Q 360 317 317 127 Q 296 69 296 63 Q 296 32 315 6 Q 322 -7 332 -2 Q 363 16 377 177 L 379 203 Z" class="stroke9"/>
    <path d="M 393 377 Q 406 377 426 382 Q 591 419 617 407 Q 630 400 630 371 Q 643 199 634 65 Q 633 38 617 33 Q 605 30 547 49 Q 534 53 534 45 Q 535 36 550 25 Q 587 -11 616 -46 Q 632 -65 649 -64 Q 665 -60 687 -12 Q 712 37 709 87 Q 700 207 693 317 Q 689 360 707 395 Q 720 411 705 426 Q 687 442 646 458 Q 625 467 580 447 Q 471 417 377 402 C 347 397 363 373 393 377 Z" class="stroke10"/>
    <path d="M 385 282 Q 389 282 396 282 Q 492 297 562 305 Q 584 309 577 321 Q 567 334 543 340 Q 513 343 387 309 C 358 301 355 282 385 282 Z" class="stroke11"/>
    <path d="M 377 177 Q 384 176 397 176 Q 496 186 569 193 Q 593 194 584 208 Q 575 224 550 230 Q 526 234 379 203 C 350 197 347 180 377 177 Z" class="stroke12"/>
    
    
    
    
    
    
    
    
    
    
    
    </g>
</svg>