<svg version="1.1" viewBox="0 0 1024 1024" xmlns="http://www.w3.org/2000/svg">
  
  <g transform="scale(1, -1) translate(0, -900)">
    <style type="text/css">
        .stroke1 {fill: #808080;}
        .stroke2 {fill: #808079;}
        .stroke3 {fill: #808078;}
        .stroke4 {fill: #808077;}
        .stroke5 {fill: #808076;}
        .stroke6 {fill: #808075;}
        .stroke7 {fill: #808074;}
        .stroke8 {fill: #808073;}
        .stroke9 {fill: #808072;}
        .stroke10 {fill: #808071;}
        .stroke11 {fill: #808070;}
        .stroke12 {fill: #808069;}
        .stroke13 {fill: #808068;}
        .stroke14 {fill: #808067;}
        .stroke15 {fill: #808066;}
        .stroke16 {fill: #808065;}
        .stroke17 {fill: #808064;}
        .stroke18 {fill: #808063;}
        .stroke19 {fill: #808062;}
        .stroke20 {fill: #808061;}
        text {
            font-family: Helvetica;
            font-size: 50px;
            fill: #808060;
            paint-order: stroke;
            stroke: #000000;
            stroke-width: 4px;
            stroke-linecap: butt;
            stroke-linejoin: miter;
            font-weight: 800;
        }
    </style>

    <path d="M 562 732 Q 566 766 570 798 L 573 819 Q 573 829 580 845 Q 583 854 566 865 Q 538 880 518 883 Q 505 884 498 878 Q 492 871 499 860 Q 514 844 526 726 C 529 696 558 702 562 732 Z" class="stroke1"/>
    <path d="M 570 798 Q 598 786 682 805 Q 694 808 708 811 Q 721 815 724 817 Q 731 824 727 831 Q 720 840 697 844 Q 687 845 617 827 Q 596 823 573 819 C 543 814 542 808 570 798 Z" class="stroke2"/>
    <path d="M 537 698 Q 735 737 777 730 Q 792 729 791 720 Q 791 717 759 657 Q 749 644 755 640 Q 762 636 779 646 Q 831 674 874 680 Q 908 684 908 695 Q 907 705 842 758 Q 820 779 740 763 Q 704 759 562 732 L 526 726 Q 472 719 412 707 Q 366 697 320 691 C 290 687 308 647 338 652 Q 345 652 354 654 Q 462 691 503 692 L 537 698 Z" class="stroke3"/>
    <path d="M 320 691 Q 275 725 251 718 Q 238 711 245 695 Q 266 664 263 603 Q 244 378 211 270 Q 207 257 202 243 Q 157 128 72 -3 Q 66 -10 64 -17 Q 61 -29 73 -26 Q 106 -20 191 107 Q 209 138 226 172 Q 298 332 322 565 Q 325 640 338 652 C 347 673 345 674 320 691 Z" class="stroke4"/>
    <path d="M 554 607 Q 575 613 692 637 Q 699 636 707 647 Q 707 656 688 663 Q 661 681 575 648 Q 566 647 558 643 L 519 631 Q 491 625 464 620 Q 433 614 398 607 Q 376 603 394 590 Q 418 572 463 584 Q 488 591 521 599 L 554 607 Z" class="stroke5"/>
    <path d="M 521 599 Q 522 548 547 529 Q 586 498 687 511 Q 732 518 747 531 Q 766 541 757 562 Q 747 583 736 620 Q 735 630 729 634 Q 723 637 721 623 Q 706 566 680 558 Q 617 543 576 550 Q 563 554 559 561 Q 556 573 554 607 L 558 643 Q 559 650 562 656 Q 568 678 554 688 Q 544 694 537 698 C 511 713 489 719 503 692 Q 518 668 519 631 L 521 599 Z" class="stroke6"/>
    <path d="M 416 452 Q 406 456 379 458 Q 369 459 366 456 Q 362 452 367 442 Q 400 373 418 317 Q 422 295 438 280 Q 454 264 457 277 Q 458 284 458 296 L 455 319 Q 446 344 429 423 C 423 450 423 450 416 452 Z" class="stroke7"/>
    <path d="M 684 324 Q 696 302 708 294 Q 717 285 733 304 Q 743 314 772 377 Q 782 405 806 426 Q 819 436 810 450 Q 797 466 760 494 Q 742 504 676 490 Q 594 484 416 452 C 386 447 400 416 429 423 Q 477 436 546 446 L 580 451 Q 701 472 724 455 Q 731 449 728 438 Q 707 362 689 352 C 676 338 676 338 684 324 Z" class="stroke8"/>
    <path d="M 594 382 Q 625 389 657 393 Q 676 396 669 406 Q 660 418 641 421 Q 625 422 597 416 L 552 403 Q 509 391 469 381 Q 456 378 472 367 Q 482 360 500 364 Q 525 370 553 374 L 594 382 Z" class="stroke9"/>
    <path d="M 590 343 Q 591 364 594 382 L 597 416 Q 603 429 596 437 Q 589 444 580 451 C 557 470 537 475 546 446 Q 549 439 552 403 L 553 374 Q 553 358 554 336 C 555 306 588 313 590 343 Z" class="stroke10"/>
    <path d="M 458 296 Q 467 296 479 297 Q 594 313 684 324 C 714 328 717 342 689 352 Q 686 353 681 355 Q 659 358 590 343 L 554 336 Q 502 329 455 319 C 426 313 428 295 458 296 Z" class="stroke11"/>
    <path d="M 463 78 Q 466 109 470 131 L 473 156 Q 476 193 480 206 Q 480 209 480 210 L 474 235 Q 461 256 426 255 Q 414 252 419 241 Q 449 165 405 39 Q 375 -6 406 -51 Q 410 -63 421 -59 Q 458 -32 460 53 L 463 78 Z" class="stroke12"/>
    <path d="M 480 210 Q 492 211 508 215 Q 644 243 665 235 Q 678 229 678 201 Q 690 102 687 24 Q 686 8 677 5 Q 668 1 617 10 Q 605 11 606 4 Q 607 -3 623 -12 Q 656 -40 681 -69 Q 694 -84 709 -82 Q 721 -81 735 -47 Q 750 -14 746 72 Q 734 201 748 225 Q 760 240 746 254 Q 728 269 691 281 Q 670 291 654 279 Q 635 272 601 262 Q 514 243 474 235 C 445 229 450 205 480 210 Z" class="stroke13"/>
    <path d="M 470 131 Q 474 131 479 131 Q 561 144 623 151 Q 644 154 637 165 Q 627 178 605 183 Q 575 187 473 156 C 444 147 440 131 470 131 Z" class="stroke14"/>
    <path d="M 460 53 Q 467 53 477 53 Q 568 65 635 71 Q 656 74 648 85 Q 639 98 617 104 Q 593 110 463 78 C 434 71 430 53 460 53 Z" class="stroke15"/>
    
    
    
    
    
    
    
    
    
    
    
    
    
    
    </g>
</svg>