<svg version="1.1" viewBox="0 0 1024 1024" xmlns="http://www.w3.org/2000/svg">
  
  <g transform="scale(1, -1) translate(0, -900)">
    <style type="text/css">
        .stroke1 {fill: #808080;}
        .stroke2 {fill: #808079;}
        .stroke3 {fill: #808078;}
        .stroke4 {fill: #808077;}
        .stroke5 {fill: #808076;}
        .stroke6 {fill: #808075;}
        .stroke7 {fill: #808074;}
        .stroke8 {fill: #808073;}
        .stroke9 {fill: #808072;}
        .stroke10 {fill: #808071;}
        .stroke11 {fill: #808070;}
        .stroke12 {fill: #808069;}
        .stroke13 {fill: #808068;}
        .stroke14 {fill: #808067;}
        .stroke15 {fill: #808066;}
        .stroke16 {fill: #808065;}
        .stroke17 {fill: #808064;}
        .stroke18 {fill: #808063;}
        .stroke19 {fill: #808062;}
        .stroke20 {fill: #808061;}
        text {
            font-family: Helvetica;
            font-size: 50px;
            fill: #808060;
            paint-order: stroke;
            stroke: #000000;
            stroke-width: 4px;
            stroke-linecap: butt;
            stroke-linejoin: miter;
            font-weight: 800;
        }
    </style>

    <path d="M 219 437 Q 219 438 220 440 Q 227 495 228 549 L 229 582 Q 229 703 231 726 C 232 750 232 750 224 755 Q 209 767 185 774 Q 167 781 157 776 Q 147 769 154 757 Q 175 733 180 671 Q 180 658 181 640 Q 190 469 160 344 Q 133 235 67 108 Q 63 102 62 96 Q 61 86 70 90 Q 85 93 115 143 Q 184 237 213 401 L 219 437 Z" class="stroke1"/>
    <path d="M 231 726 Q 234 727 240 729 Q 264 736 287 743 Q 302 747 309 739 Q 319 729 319 694 Q 323 415 308 248 Q 307 227 301 218 Q 297 214 282 217 Q 263 223 241 229 Q 225 236 224 228 Q 267 180 288 148 Q 300 130 313 125 Q 320 121 329 130 Q 368 175 369 220 Q 362 385 366 652 Q 365 704 378 727 Q 388 745 378 754 Q 359 770 326 784 Q 310 791 297 785 Q 273 772 224 755 C 196 745 202 717 231 726 Z" class="stroke2"/>
    <path d="M 228 549 Q 267 556 297 558 Q 318 562 309 573 Q 299 586 277 589 Q 258 590 229 582 C 200 574 198 544 228 549 Z" class="stroke3"/>
    <path d="M 213 401 Q 258 408 292 412 Q 314 416 305 429 Q 295 442 271 445 Q 250 446 219 437 C 190 429 183 396 213 401 Z" class="stroke4"/>
    <path d="M 617 791 Q 630 812 643 829 Q 652 839 640 852 Q 604 880 582 878 Q 572 877 574 863 Q 583 800 512 709 Q 508 709 481 674 Q 474 661 487 665 Q 500 666 517 680 Q 569 720 602 768 L 617 791 Z" class="stroke5"/>
    <path d="M 685 656 Q 784 749 812 764 Q 831 773 819 787 Q 806 800 771 823 Q 755 830 740 821 Q 730 817 652 797 Q 636 794 617 791 C 587 786 572 771 602 768 Q 627 764 706 775 Q 716 776 718 773 Q 722 770 716 761 Q 677 689 654 656 Q 650 652 649 648 C 633 623 663 635 685 656 Z" class="stroke6"/>
    <path d="M 751 630 Q 893 658 902 664 Q 909 670 906 678 Q 900 688 876 696 Q 851 702 824 693 Q 755 672 685 656 L 649 648 Q 576 638 495 631 C 465 628 481 597 511 598 Q 518 598 587 603 L 623 609 Q 669 618 717 624 L 751 630 Z" class="stroke7"/>
    <path d="M 495 631 Q 455 658 435 651 Q 425 644 431 632 Q 449 607 450 550 Q 449 534 449 514 Q 446 348 406 223 Q 370 115 297 -3 Q 293 -10 291 -15 Q 290 -25 299 -23 Q 329 -16 400 101 Q 415 129 429 161 Q 490 314 503 558 Q 504 592 511 598 C 517 618 517 618 495 631 Z" class="stroke8"/>
    <path d="M 587 603 Q 587 567 525 500 Q 519 497 526 495 Q 557 495 639 575 Q 645 579 644 585 Q 641 600 623 609 C 597 624 588 628 587 603 Z" class="stroke9"/>
    <path d="M 717 624 Q 724 608 722 582 Q 722 542 747 526 Q 787 505 868 520 Q 895 524 903 532 Q 912 541 905 548 Q 896 557 870 567 Q 857 571 845 561 Q 808 531 764 549 Q 760 553 760 564 Q 761 583 770 594 Q 777 607 767 618 Q 760 625 751 630 C 726 646 707 652 717 624 Z" class="stroke10"/>
    <path d="M 653 490 Q 693 445 708 446 Q 717 446 721 457 Q 725 469 719 493 Q 715 506 694 516 Q 643 534 632 531 Q 628 527 629 517 Q 630 507 653 490 Z" class="stroke11"/>
    <path d="M 514 407 Q 496 404 510 391 Q 522 379 536 375 Q 554 371 567 375 Q 703 415 927 416 Q 943 416 947 424 Q 951 433 938 444 Q 884 480 830 460 Q 602 421 514 407 Z" class="stroke12"/>
    <path d="M 560 329 Q 544 326 563 310 Q 573 303 595 305 Q 703 320 781 328 Q 805 331 797 344 Q 787 359 762 365 Q 738 369 696 360 Q 623 342 560 329 Z" class="stroke13"/>
    <path d="M 568 245 Q 552 242 571 226 Q 581 217 603 219 Q 709 231 789 237 Q 811 238 804 252 Q 795 268 770 274 Q 746 278 705 271 Q 632 255 568 245 Z" class="stroke14"/>
    <path d="M 537 174 Q 530 175 524 176 Q 512 179 509 174 Q 502 167 511 152 Q 536 104 554 26 Q 557 2 572 -13 Q 590 -35 595 -19 Q 596 -12 597 -3 L 596 31 Q 584 112 580 137 C 575 167 567 170 537 174 Z" class="stroke15"/>
    <path d="M 803 45 Q 830 111 856 129 Q 872 147 859 164 Q 787 224 736 198 Q 604 162 537 174 C 507 178 550 133 580 137 L 737 160 Q 756 163 763 155 Q 775 143 754 57 C 747 28 791 17 803 45 Z" class="stroke16"/>
    <path d="M 597 -3 Q 601 -3 607 -3 Q 671 9 810 14 Q 820 15 823 24 Q 823 31 803 45 C 781 61 781 61 754 57 Q 750 57 747 56 Q 665 40 596 31 C 566 27 567 -3 597 -3 Z" class="stroke17"/>
    
    
    
    
    
    
    
    
    
    
    
    
    
    
    
    
    </g>
</svg>