<svg version="1.1" viewBox="0 0 1024 1024" xmlns="http://www.w3.org/2000/svg">
  
  <g transform="scale(1, -1) translate(0, -900)">
    <style type="text/css">
        .stroke1 {fill: #808080;}
        .stroke2 {fill: #808079;}
        .stroke3 {fill: #808078;}
        .stroke4 {fill: #808077;}
        .stroke5 {fill: #808076;}
        .stroke6 {fill: #808075;}
        .stroke7 {fill: #808074;}
        .stroke8 {fill: #808073;}
        .stroke9 {fill: #808072;}
        .stroke10 {fill: #808071;}
        .stroke11 {fill: #808070;}
        .stroke12 {fill: #808069;}
        .stroke13 {fill: #808068;}
        .stroke14 {fill: #808067;}
        .stroke15 {fill: #808066;}
        .stroke16 {fill: #808065;}
        .stroke17 {fill: #808064;}
        .stroke18 {fill: #808063;}
        .stroke19 {fill: #808062;}
        .stroke20 {fill: #808061;}
        text {
            font-family: Helvetica;
            font-size: 50px;
            fill: #808060;
            paint-order: stroke;
            stroke: #000000;
            stroke-width: 4px;
            stroke-linecap: butt;
            stroke-linejoin: miter;
            font-weight: 800;
        }
    </style>

    <path d="M 190 691 Q 177 700 157 706 Q 139 713 129 707 Q 119 700 126 688 Q 148 661 154 592 Q 154 582 155 569 Q 165 398 136 263 Q 112 163 43 20 Q 39 14 38 8 Q 37 -2 46 2 Q 61 5 91 57 Q 164 160 192 336 L 196 372 Q 200 420 203 465 L 204 499 Q 200 605 204 659 Q 205 662 205 663 C 207 682 207 682 190 691 Z" class="stroke1"/>
    <path d="M 338 422 Q 338 642 348 664 Q 360 685 350 694 Q 331 710 297 724 Q 281 730 268 724 Q 238 703 190 691 C 161 683 177 653 205 663 Q 211 666 259 682 Q 274 686 281 679 Q 293 667 292 628 Q 299 321 283 136 Q 282 114 275 103 Q 269 99 214 110 Q 195 117 197 108 Q 242 65 266 33 Q 278 17 292 11 Q 299 8 307 16 Q 346 61 344 109 Q 338 236 338 417 L 338 422 Z" class="stroke2"/>
    <path d="M 203 465 Q 237 472 266 477 Q 287 483 278 493 Q 268 505 244 507 Q 228 507 204 499 C 175 490 174 459 203 465 Z" class="stroke3"/>
    <path d="M 192 336 Q 232 343 264 345 Q 286 349 277 361 Q 267 374 243 378 Q 224 379 196 372 C 167 365 162 331 192 336 Z" class="stroke4"/>
    <path d="M 612 741 Q 615 750 629 769 Q 636 775 633 785 Q 630 795 616 806 Q 580 833 547 823 Q 538 819 542 807 Q 566 732 457 567 Q 454 564 453 561 Q 423 516 338 422 C 333 416 333 416 338 417 Q 339 417 343 416 Q 395 426 492 539 Q 537 599 601 719 L 612 741 Z" class="stroke5"/>
    <path d="M 601 719 Q 686 617 782 522 Q 804 500 841 498 Q 908 494 980 506 Q 999 507 1000 513 Q 1001 519 988 525 Q 778 604 694 672 Q 678 685 664 697 Q 630 728 612 741 C 588 759 582 742 601 719 Z" class="stroke6"/>
    <path d="M 505 523 Q 472 514 497 501 Q 530 486 607 507 Q 671 525 682 530 Q 689 539 684 546 Q 677 556 649 560 Q 622 561 558 535 Q 534 528 505 523 Z" class="stroke7"/>
    <path d="M 408 381 Q 399 385 379 388 Q 369 389 366 386 Q 362 380 369 367 Q 388 330 403 268 Q 407 249 418 237 Q 434 219 438 233 Q 439 240 440 249 L 437 278 Q 427 339 426 358 C 425 375 425 375 408 381 Z" class="stroke8"/>
    <path d="M 546 288 Q 561 339 578 354 Q 597 375 578 387 Q 562 397 540 412 Q 524 421 508 412 Q 489 400 464 393 Q 442 387 408 381 C 378 376 398 348 426 358 Q 429 361 492 371 Q 510 374 513 366 Q 516 363 503 295 C 497 266 537 259 546 288 Z" class="stroke9"/>
    <path d="M 494 256 Q 518 260 554 262 Q 563 263 564 270 Q 564 276 546 288 L 503 295 Q 499 295 497 294 Q 463 284 437 278 C 408 271 410 246 440 249 Q 450 250 463 252 L 494 256 Z" class="stroke10"/>
    <path d="M 639 419 Q 629 423 602 428 Q 592 429 588 425 Q 584 421 591 406 Q 613 366 629 299 Q 633 278 645 266 Q 661 247 666 261 Q 667 265 668 273 L 666 301 Q 666 302 666 305 Q 654 372 652 394 C 650 415 650 415 639 419 Z" class="stroke11"/>
    <path d="M 792 318 Q 808 376 828 395 Q 847 417 828 430 Q 774 463 767 461 Q 760 461 754 457 Q 721 436 639 419 C 610 413 622 389 652 394 Q 659 395 667 397 Q 703 406 734 412 Q 755 416 760 408 Q 766 404 759 376 Q 753 351 746 322 C 739 293 784 289 792 318 Z" class="stroke12"/>
    <path d="M 711 278 Q 745 285 802 290 Q 811 291 812 298 Q 812 305 792 318 L 746 322 L 745 322 Q 702 309 666 301 C 637 294 638 275 668 273 Q 675 272 685 274 L 711 278 Z" class="stroke13"/>
    <path d="M 487 145 Q 512 187 530 202 Q 537 209 533 221 Q 527 242 494 256 C 467 269 458 273 463 252 Q 463 249 465 243 Q 487 195 369 44 Q 362 37 360 31 Q 357 22 368 25 Q 401 29 477 131 L 487 145 Z" class="stroke14"/>
    <path d="M 477 131 Q 480 124 492 110 Q 513 85 535 54 Q 542 44 553 42 Q 560 41 566 49 Q 570 58 569 79 Q 566 104 495 143 L 487 145 C 467 150 467 150 477 131 Z" class="stroke15"/>
    <path d="M 722 177 Q 735 205 750 222 Q 756 232 748 243 Q 727 279 711 278 C 682 285 681 285 685 274 Q 685 273 690 260 Q 699 190 593 57 Q 589 53 588 47 Q 588 43 593 43 Q 633 50 710 158 L 722 177 Z" class="stroke16"/>
    <path d="M 710 158 Q 711 154 716 149 Q 771 97 835 20 Q 850 -1 865 -6 Q 872 -7 881 3 Q 894 15 883 59 Q 870 122 722 177 C 694 188 695 184 710 158 Z" class="stroke17"/>
    
    
    
    
    
    
    
    
    
    
    
    
    
    
    
    
    </g>
</svg>