<svg version="1.1" viewBox="0 0 1024 1024" xmlns="http://www.w3.org/2000/svg">
  
  <g transform="scale(1, -1) translate(0, -900)">
    <style type="text/css">
        .stroke1 {fill: #808080;}
        .stroke2 {fill: #808079;}
        .stroke3 {fill: #808078;}
        .stroke4 {fill: #808077;}
        .stroke5 {fill: #808076;}
        .stroke6 {fill: #808075;}
        .stroke7 {fill: #808074;}
        .stroke8 {fill: #808073;}
        .stroke9 {fill: #808072;}
        .stroke10 {fill: #808071;}
        .stroke11 {fill: #808070;}
        .stroke12 {fill: #808069;}
        .stroke13 {fill: #808068;}
        .stroke14 {fill: #808067;}
        .stroke15 {fill: #808066;}
        .stroke16 {fill: #808065;}
        .stroke17 {fill: #808064;}
        .stroke18 {fill: #808063;}
        .stroke19 {fill: #808062;}
        .stroke20 {fill: #808061;}
        text {
            font-family: Helvetica;
            font-size: 50px;
            fill: #808060;
            paint-order: stroke;
            stroke: #000000;
            stroke-width: 4px;
            stroke-linecap: butt;
            stroke-linejoin: miter;
            font-weight: 800;
        }
    </style>

    <path d="M 184 409 Q 191 473 192 535 L 192 570 Q 195 628 198 688 C 199 704 199 704 177 714 Q 165 721 149 726 Q 131 733 121 728 Q 111 721 118 709 Q 136 687 143 632 Q 143 614 144 592 Q 151 426 122 295 Q 94 189 27 60 Q 23 54 22 48 Q 21 38 30 42 Q 45 45 76 95 Q 149 198 179 372 L 184 409 Z" class="stroke1"/>
    <path d="M 198 688 Q 202 689 209 691 Q 231 700 256 708 Q 269 714 277 707 Q 289 695 288 656 Q 292 346 276 160 Q 275 135 267 124 Q 266 124 210 127 Q 191 133 193 124 Q 236 84 259 55 Q 271 39 285 34 Q 292 30 301 39 Q 338 88 337 132 Q 330 319 334 620 Q 333 672 345 695 Q 355 711 344 721 Q 325 737 293 750 Q 272 759 238 735 Q 202 722 177 714 C 149 705 170 678 198 688 Z" class="stroke2"/>
    <path d="M 192 535 Q 226 541 253 544 Q 275 550 266 561 Q 254 574 230 576 Q 214 577 192 570 C 163 561 162 530 192 535 Z" class="stroke3"/>
    <path d="M 179 372 Q 219 378 251 379 Q 275 383 265 396 Q 255 411 229 414 Q 210 417 184 409 C 155 400 149 368 179 372 Z" class="stroke4"/>
    <path d="M 586 831 Q 608 815 634 794 Q 649 784 663 785 Q 673 786 677 800 Q 680 815 668 842 Q 656 867 577 876 Q 561 877 556 875 Q 552 871 554 859 Q 558 849 586 831 Z" class="stroke5"/>
    <path d="M 406 715 Q 388 714 402 699 Q 415 687 430 683 Q 448 679 462 684 Q 633 735 853 734 L 855 734 Q 871 735 876 742 Q 880 752 866 764 Q 815 797 761 780 Q 635 756 406 715 Z" class="stroke6"/>
    <path d="M 511 648 Q 535 615 553 604 Q 562 601 569 609 Q 573 616 573 627 Q 570 643 560 652 Q 526 679 505 673 Q 501 673 502 665 Q 502 658 511 648 Z" class="stroke7"/>
    <path d="M 616 560 Q 644 587 661 605 Q 694 647 714 660 Q 727 670 717 680 Q 707 690 686 695 Q 668 702 660 698 Q 653 695 657 687 Q 663 666 606 567 C 591 541 594 539 616 560 Z" class="stroke8"/>
    <path d="M 606 567 Q 597 573 588 577 Q 581 580 574 576 Q 568 572 571 562 Q 589 520 577 414 Q 574 396 591 370 Q 598 363 604 371 Q 614 392 616 468 Q 616 522 620 542 Q 621 552 616 560 L 606 567 Z" class="stroke9"/>
    <path d="M 425 539 Q 455 549 481 555 Q 488 556 491 554 Q 498 545 497 520 Q 496 451 482 419 Q 473 400 456 400 Q 444 401 434 405 Q 418 409 429 394 Q 454 369 465 348 Q 478 335 489 348 Q 531 384 536 511 Q 537 542 547 560 Q 554 570 550 576 Q 543 583 507 596 Q 492 600 480 591 Q 447 569 361 552 Q 349 551 347 545 Q 347 539 364 532 Q 382 523 395 529 Q 396 530 401 531 L 425 539 Z" class="stroke10"/>
    <path d="M 401 531 Q 405 527 404 510 Q 394 446 340 369 Q 336 365 337 361 Q 337 358 340 359 Q 370 366 437 477 Q 444 495 450 503 Q 453 510 447 518 Q 435 534 425 539 C 400 555 389 559 401 531 Z" class="stroke11"/>
    <path d="M 767 585 Q 767 586 768 586 Q 825 619 836 623 Q 852 629 845 642 Q 838 655 819 668 Q 803 678 794 678 Q 784 678 787 668 Q 787 653 717 581 Q 711 575 704 567 C 684 545 688 542 714 557 Q 735 569 752 577 C 763 582 763 582 767 585 Z" class="stroke12"/>
    <path d="M 704 567 Q 691 579 681 580 Q 672 581 668 579 Q 662 575 669 566 Q 684 539 679 457 Q 676 436 667 424 Q 658 411 664 395 Q 671 374 683 366 Q 690 362 698 374 Q 714 399 774 461 Q 784 471 786 476 Q 786 485 773 477 Q 721 446 713 447 Q 709 450 708 462 Q 714 555 714 557 C 714 559 714 559 704 567 Z" class="stroke13"/>
    <path d="M 752 577 Q 759 553 867 419 Q 892 397 989 416 Q 995 417 996 421 Q 996 424 988 429 Q 889 472 824 530 Q 796 555 767 585 C 746 606 740 604 752 577 Z" class="stroke14"/>
    <path d="M 429 305 Q 453 266 428 133 Q 421 111 410 83 Q 391 38 344 -1 Q 331 -11 328 -17 Q 327 -23 336 -23 Q 361 -24 411 18 Q 462 69 483 185 Q 486 212 498 279 Q 505 297 487 306 Q 447 328 434 326 Q 416 325 429 305 Z" class="stroke15"/>
    <path d="M 725 333 Q 764 255 741 23 Q 734 -16 766 -59 Q 776 -71 787 -58 Q 814 -13 807 38 Q 795 206 806 302 Q 813 327 790 339 Q 772 349 753 359 Q 740 363 730 357 Q 720 350 725 333 Z" class="stroke16"/>
    <path d="M 523 276 Q 507 272 526 259 Q 533 253 550 256 Q 626 269 683 277 Q 705 281 697 293 Q 687 306 663 310 Q 641 313 602 302 Q 559 287 523 276 Z" class="stroke17"/>
    <path d="M 512 186 Q 494 182 515 166 Q 525 159 544 162 Q 637 175 705 183 Q 730 186 721 200 Q 711 216 683 221 Q 665 224 512 186 Z" class="stroke18"/>
    
    
    
    
    
    
    
    
    
    
    
    
    
    
    
    
    
    </g>
</svg>