<svg version="1.1" viewBox="0 0 1024 1024" xmlns="http://www.w3.org/2000/svg">
  
  <g transform="scale(1, -1) translate(0, -900)">
    <style type="text/css">
        .stroke1 {fill: #808080;}
        .stroke2 {fill: #808079;}
        .stroke3 {fill: #808078;}
        .stroke4 {fill: #808077;}
        .stroke5 {fill: #808076;}
        .stroke6 {fill: #808075;}
        .stroke7 {fill: #808074;}
        .stroke8 {fill: #808073;}
        .stroke9 {fill: #808072;}
        .stroke10 {fill: #808071;}
        .stroke11 {fill: #808070;}
        .stroke12 {fill: #808069;}
        .stroke13 {fill: #808068;}
        .stroke14 {fill: #808067;}
        .stroke15 {fill: #808066;}
        .stroke16 {fill: #808065;}
        .stroke17 {fill: #808064;}
        .stroke18 {fill: #808063;}
        .stroke19 {fill: #808062;}
        .stroke20 {fill: #808061;}
        text {
            font-family: Helvetica;
            font-size: 50px;
            fill: #808060;
            paint-order: stroke;
            stroke: #000000;
            stroke-width: 4px;
            stroke-linecap: butt;
            stroke-linejoin: miter;
            font-weight: 800;
        }
    </style>

    <path d="M 483 718 Q 601 740 738 751 Q 750 750 760 763 Q 761 776 737 788 Q 698 813 611 787 Q 479 762 282 739 Q 251 736 274 717 Q 310 686 340 694 Q 382 703 429 709 L 483 718 Z" class="stroke1"/>
    <path d="M 656 528 Q 610 527 529 515 Q 417 500 369 487 Q 345 483 359 501 Q 375 520 423 568 Q 496 640 511 647 Q 521 654 528 662 Q 534 677 513 696 Q 497 709 483 718 C 458 735 420 738 429 709 Q 435 699 436 680 Q 429 628 303 501 Q 249 471 254 431 Q 254 428 256 424 Q 263 400 277 399 Q 283 400 300 410 Q 390 467 614 497 Q 651 503 676 503 C 706 504 686 529 656 528 Z" class="stroke2"/>
    <path d="M 676 503 Q 715 452 728 447 Q 737 446 745 455 Q 758 467 750 513 Q 744 555 674 592 Q 628 616 603 627 Q 594 633 591 621 Q 590 608 599 595 Q 626 567 656 528 L 676 503 Z" class="stroke3"/>
    <path d="M 530 265 Q 587 275 648 284 Q 705 294 713 301 Q 723 310 719 319 Q 712 332 681 342 Q 648 349 616 339 Q 576 327 534 316 L 474 303 Q 398 291 313 287 Q 273 283 300 263 Q 346 235 404 246 Q 438 252 475 257 L 530 265 Z" class="stroke4"/>
    <path d="M 518 122 Q 524 197 530 265 L 534 316 Q 534 334 551 394 Q 554 404 534 420 Q 498 439 474 443 Q 458 447 450 438 Q 443 431 451 416 Q 470 389 470 370 Q 471 339 474 303 L 475 257 Q 476 191 475 118 C 475 88 516 92 518 122 Z" class="stroke5"/>
    <path d="M 475 118 Q 321 105 144 89 Q 119 88 136 67 Q 172 31 217 40 Q 481 103 884 80 Q 885 81 888 80 Q 912 79 918 89 Q 925 102 906 120 Q 843 169 786 158 Q 683 142 518 122 L 475 118 Z" class="stroke6"/>
    
    
    
    
    
    </g>
</svg>