<svg version="1.1" viewBox="0 0 1024 1024" xmlns="http://www.w3.org/2000/svg">
  
  <g transform="scale(1, -1) translate(0, -900)">
    <style type="text/css">
        .stroke1 {fill: #808080;}
        .stroke2 {fill: #808079;}
        .stroke3 {fill: #808078;}
        .stroke4 {fill: #808077;}
        .stroke5 {fill: #808076;}
        .stroke6 {fill: #808075;}
        .stroke7 {fill: #808074;}
        .stroke8 {fill: #808073;}
        .stroke9 {fill: #808072;}
        .stroke10 {fill: #808071;}
        .stroke11 {fill: #808070;}
        .stroke12 {fill: #808069;}
        .stroke13 {fill: #808068;}
        .stroke14 {fill: #808067;}
        .stroke15 {fill: #808066;}
        .stroke16 {fill: #808065;}
        .stroke17 {fill: #808064;}
        .stroke18 {fill: #808063;}
        .stroke19 {fill: #808062;}
        .stroke20 {fill: #808061;}
        text {
            font-family: Helvetica;
            font-size: 50px;
            fill: #808060;
            paint-order: stroke;
            stroke: #000000;
            stroke-width: 4px;
            stroke-linecap: butt;
            stroke-linejoin: miter;
            font-weight: 800;
        }
    </style>

    <path d="M 540 741 Q 597 751 656 757 Q 716 767 725 774 Q 734 781 730 789 Q 724 801 698 809 Q 671 816 643 808 Q 595 795 546 784 L 488 774 Q 410 764 323 761 Q 289 758 312 741 Q 346 714 400 724 Q 445 730 491 735 L 540 741 Z" class="stroke1"/>
    <path d="M 533 692 Q 536 717 540 741 L 546 784 Q 549 797 551 805 Q 554 812 556 818 Q 559 827 542 840 Q 514 856 492 860 Q 479 863 472 856 Q 465 849 472 837 Q 484 822 488 774 L 491 735 Q 492 711 494 684 C 496 654 529 662 533 692 Z" class="stroke2"/>
    <path d="M 494 684 Q 433 674 380 664 Q 364 661 382 646 Q 395 636 422 640 Q 554 659 650 670 Q 672 671 665 685 Q 655 698 632 705 Q 602 711 533 692 L 494 684 Z" class="stroke3"/>
    <path d="M 380 591 Q 368 595 334 598 Q 324 599 321 594 Q 317 590 321 582 Q 320 582 321 580 Q 321 577 327 572 Q 348 544 368 493 Q 372 477 384 468 Q 403 452 405 466 Q 406 472 406 479 L 400 509 Q 391 546 388 564 C 383 590 383 590 380 591 Z" class="stroke4"/>
    <path d="M 669 528 Q 690 555 711 562 Q 727 577 717 594 Q 654 657 600 630 Q 510 605 380 591 C 350 588 359 558 388 564 Q 388 565 390 565 Q 496 581 597 597 Q 624 603 634 591 Q 638 587 634 576 Q 627 557 619 540 C 607 513 650 505 669 528 Z" class="stroke5"/>
    <path d="M 406 479 Q 415 476 428 478 Q 506 493 675 500 Q 685 501 687 509 Q 687 516 669 528 L 619 540 Q 618 541 616 540 Q 495 515 400 509 C 370 507 377 485 406 479 Z" class="stroke6"/>
    <path d="M 227 419 Q 215 440 205 447 Q 186 462 184 434 Q 190 389 135 329 Q 116 305 145 250 Q 164 226 179 253 Q 195 278 206 314 Q 219 359 230 385 C 237 402 237 402 227 419 Z" class="stroke7"/>
    <path d="M 230 385 Q 251 375 288 382 Q 451 425 737 443 Q 782 446 797 442 Q 810 435 807 427 Q 786 382 766 337 L 767 336 Q 776 332 796 342 Q 857 373 904 381 Q 944 387 944 398 Q 941 408 870 469 Q 851 488 823 487 Q 526 454 227 419 C 197 416 201 392 230 385 Z" class="stroke8"/>
    <path d="M 486 328 Q 562 343 659 350 Q 668 349 676 360 Q 677 370 658 381 Q 631 402 551 380 Q 413 359 340 350 Q 315 347 334 331 Q 359 310 406 316 Q 422 319 444 322 L 486 328 Z" class="stroke9"/>
    <path d="M 504 202 Q 546 215 623 231 C 652 237 638 251 608 247 Q 517 234 424 220 Q 417 219 415 221 Q 414 222 418 226 Q 478 283 500 296 Q 513 306 507 314 Q 501 321 486 328 C 460 342 447 349 444 322 Q 444 282 388 238 Q 373 226 346 217 Q 324 210 322 201 Q 321 188 327 170 Q 334 154 344 148 Q 350 145 360 149 Q 415 182 464 191 L 504 202 Z" class="stroke10"/>
    <path d="M 623 231 Q 663 183 676 180 Q 683 179 689 189 Q 695 199 691 223 Q 690 244 662 264 Q 596 303 584 298 Q 580 297 579 286 L 608 247 L 623 231 Z" class="stroke11"/>
    <path d="M 527 75 Q 663 99 669 102 Q 678 109 674 117 Q 668 129 642 136 Q 618 142 529 119 L 474 108 Q 417 101 354 97 Q 320 93 344 77 Q 377 53 435 62 Q 454 66 476 68 L 527 75 Z" class="stroke12"/>
    <path d="M 523 6 Q 524 43 527 75 L 529 119 Q 530 128 531 136 Q 531 145 532 152 Q 539 170 530 180 Q 517 193 504 202 C 480 220 455 220 464 191 Q 470 176 474 108 L 476 68 Q 476 41 478 3 C 480 -27 522 -24 523 6 Z" class="stroke13"/>
    <path d="M 478 3 Q 345 -7 191 -17 Q 169 -18 184 -37 Q 197 -53 217 -60 Q 239 -67 257 -63 Q 470 -15 846 -39 Q 867 -40 873 -31 Q 880 -18 863 -3 Q 806 42 768 35 Q 677 22 523 6 L 478 3 Z" class="stroke14"/>
    
    
    
    
    
    
    
    
    
    
    
    
    
    </g>
</svg>