<svg version="1.1" viewBox="0 0 1024 1024" xmlns="http://www.w3.org/2000/svg">
  
  <g transform="scale(1, -1) translate(0, -900)">
    <style type="text/css">
        .stroke1 {fill: #808080;}
        .stroke2 {fill: #808079;}
        .stroke3 {fill: #808078;}
        .stroke4 {fill: #808077;}
        .stroke5 {fill: #808076;}
        .stroke6 {fill: #808075;}
        .stroke7 {fill: #808074;}
        .stroke8 {fill: #808073;}
        .stroke9 {fill: #808072;}
        .stroke10 {fill: #808071;}
        .stroke11 {fill: #808070;}
        .stroke12 {fill: #808069;}
        .stroke13 {fill: #808068;}
        .stroke14 {fill: #808067;}
        .stroke15 {fill: #808066;}
        .stroke16 {fill: #808065;}
        .stroke17 {fill: #808064;}
        .stroke18 {fill: #808063;}
        .stroke19 {fill: #808062;}
        .stroke20 {fill: #808061;}
        text {
            font-family: Helvetica;
            font-size: 50px;
            fill: #808060;
            paint-order: stroke;
            stroke: #000000;
            stroke-width: 4px;
            stroke-linecap: butt;
            stroke-linejoin: miter;
            font-weight: 800;
        }
    </style>

    <path d="M 293 713 Q 315 725 330 734 Q 375 767 396 774 Q 414 781 405 797 Q 395 810 373 823 Q 354 835 343 833 Q 333 832 335 821 Q 336 800 277 725 C 259 701 267 699 293 713 Z" class="stroke1"/>
    <path d="M 356 483 Q 346 520 335 555 L 329 577 Q 322 605 314 629 L 306 656 Q 297 689 295 698 Q 295 708 293 713 C 292 717 292 717 277 725 Q 255 737 234 739 Q 222 738 215 732 Q 209 725 215 717 Q 236 696 266 615 Q 282 567 314 479 C 324 451 364 454 356 483 Z" class="stroke2"/>
    <path d="M 314 629 Q 362 642 399 649 Q 418 655 410 665 Q 400 677 376 678 Q 339 681 306 656 C 282 638 285 621 314 629 Z" class="stroke3"/>
    <path d="M 335 555 Q 339 555 423 573 Q 442 579 434 589 Q 422 601 400 602 Q 355 602 329 577 C 307 557 305 551 335 555 Z" class="stroke4"/>
    <path d="M 497 790 Q 525 781 606 795 Q 618 796 619 799 Q 626 805 622 811 Q 618 820 595 825 Q 573 829 550 821 Q 538 818 505 812 C 475 807 468 798 497 790 Z" class="stroke5"/>
    <path d="M 558 504 Q 567 520 577 581 Q 592 668 600 678 Q 609 688 610 694 Q 610 701 592 713 Q 573 726 562 727 Q 555 730 508 718 Q 486 711 480 716 Q 477 719 484 751 Q 491 775 497 790 L 505 812 Q 508 822 511 824 Q 517 831 517 840 Q 516 852 496 864 Q 474 877 456 880 Q 443 881 439 876 Q 438 872 443 865 Q 458 844 441 731 Q 440 727 438 723 Q 432 716 433 710 Q 432 700 438 687 Q 442 677 449 674 Q 456 673 466 680 Q 482 690 512 693 Q 540 697 547 691 Q 554 685 549 663 Q 534 566 527 557 Q 512 539 526 501 C 535 472 547 476 558 504 Z" class="stroke6"/>
    <path d="M 452 650 Q 462 616 443 543 Q 437 531 451 504 Q 457 497 464 502 Q 474 517 490 592 Q 493 608 498 623 Q 505 638 492 647 Q 482 656 472 663 Q 465 667 457 664 Q 451 661 452 650 Z" class="stroke7"/>
    <path d="M 732 529 Q 781 721 813 743 Q 831 756 822 769 Q 810 788 776 810 Q 760 823 731 815 Q 685 802 648 802 Q 635 803 633 792 Q 634 785 649 776 Q 661 767 712 772 Q 724 772 728 768 Q 734 762 725 709 L 720 680 Q 714 652 707 620 L 701 592 Q 694 558 684 521 C 676 492 725 500 732 529 Z" class="stroke8"/>
    <path d="M 725 709 Q 697 730 632 702 Q 616 701 633 686 Q 637 682 647 681 Q 687 681 720 680 C 750 679 750 692 725 709 Z" class="stroke9"/>
    <path d="M 707 620 Q 694 633 636 627 Q 629 623 620 618 Q 605 617 621 601 Q 625 597 634 597 Q 671 596 701 592 C 731 588 730 601 707 620 Z" class="stroke10"/>
    <path d="M 599 471 Q 734 477 876 470 Q 897 470 902 479 Q 908 491 891 506 Q 831 554 769 535 Q 751 534 732 529 L 684 521 Q 626 514 558 504 L 526 501 Q 454 494 356 483 L 314 479 Q 226 472 134 463 Q 112 462 127 443 Q 142 428 160 422 Q 182 415 199 420 Q 263 436 335 446 L 380 452 Q 446 464 567 470 L 599 471 Z" class="stroke11"/>
    <path d="M 335 446 Q 335 373 214 256 Q 205 250 198 242 Q 158 206 62 139 Q 55 135 63 131 Q 126 131 255 238 Q 330 313 388 384 Q 398 397 405 401 Q 412 405 412 415 Q 408 440 380 452 C 354 467 337 476 335 446 Z" class="stroke12"/>
    <path d="M 567 470 Q 568 466 574 461 Q 667 343 769 235 Q 809 189 977 211 Q 996 212 998 218 Q 1001 225 985 231 Q 936 253 877 275 Q 741 329 599 471 C 578 492 549 494 567 470 Z" class="stroke13"/>
    <path d="M 527 287 Q 555 294 587 298 Q 618 304 622 308 Q 629 315 626 322 Q 620 332 596 339 Q 566 346 528 331 C 500 321 499 320 476 318 Q 475 319 473 318 Q 433 311 384 307 Q 353 303 375 288 Q 408 270 476 279 L 527 287 Z" class="stroke14"/>
    <path d="M 526 173 Q 568 176 708 177 Q 726 177 731 185 Q 735 195 721 207 Q 669 246 622 231 Q 580 224 526 213 L 476 206 Q 385 193 275 180 Q 256 179 270 163 Q 283 150 299 145 Q 318 141 332 145 Q 452 175 476 168 L 526 173 Z" class="stroke15"/>
    <path d="M 476 168 Q 476 -54 491 -73 Q 495 -80 503 -78 Q 518 -69 522 -16 Q 529 42 527 99 Q 526 121 526 173 L 526 213 Q 526 247 527 287 L 528 331 Q 528 334 529 336 Q 530 369 538 399 Q 541 415 528 424 Q 498 443 484 446 Q 472 450 458 442 Q 451 435 456 425 Q 474 395 475 332 Q 475 326 476 318 L 476 279 Q 476 245 476 206 L 476 168 Z" class="stroke16"/>
    
    
    
    
    
    
    
    
    
    
    
    
    
    
    
    </g>
</svg>