<svg version="1.1" viewBox="0 0 1024 1024" xmlns="http://www.w3.org/2000/svg">
  
  <g transform="scale(1, -1) translate(0, -900)">
    <style type="text/css">
        .stroke1 {fill: #808080;}
        .stroke2 {fill: #808079;}
        .stroke3 {fill: #808078;}
        .stroke4 {fill: #808077;}
        .stroke5 {fill: #808076;}
        .stroke6 {fill: #808075;}
        .stroke7 {fill: #808074;}
        .stroke8 {fill: #808073;}
        .stroke9 {fill: #808072;}
        .stroke10 {fill: #808071;}
        .stroke11 {fill: #808070;}
        .stroke12 {fill: #808069;}
        .stroke13 {fill: #808068;}
        .stroke14 {fill: #808067;}
        .stroke15 {fill: #808066;}
        .stroke16 {fill: #808065;}
        .stroke17 {fill: #808064;}
        .stroke18 {fill: #808063;}
        .stroke19 {fill: #808062;}
        .stroke20 {fill: #808061;}
        text {
            font-family: Helvetica;
            font-size: 50px;
            fill: #808060;
            paint-order: stroke;
            stroke: #000000;
            stroke-width: 4px;
            stroke-linecap: butt;
            stroke-linejoin: miter;
            font-weight: 800;
        }
    </style>

    <path d="M 617 651 Q 698 663 825 661 Q 843 660 848 671 Q 854 684 838 700 Q 775 745 686 718 Q 664 714 640 708 L 584 697 Q 496 682 402 665 L 354 657 Q 263 645 165 630 Q 131 626 156 609 Q 199 581 282 596 Q 324 609 366 616 L 408 625 Q 423 634 569 647 L 617 651 Z" class="stroke1"/>
    <path d="M 402 665 Q 396 705 394 736 Q 395 757 374 762 Q 334 780 309 771 Q 291 761 308 742 Q 344 705 354 657 L 366 616 Q 375 586 390 572 Q 405 562 409 574 Q 415 595 409 618 Q 408 622 408 625 L 402 665 Z" class="stroke2"/>
    <path d="M 640 708 Q 653 745 677 786 Q 693 802 682 812 Q 669 830 634 848 Q 616 858 598 849 Q 588 843 596 831 Q 606 806 602 776 Q 595 742 584 697 L 569 647 Q 548 592 550 568 Q 551 553 568 565 Q 577 572 617 651 L 640 708 Z" class="stroke3"/>
    <path d="M 474 446 Q 478 470 491 491 Q 501 510 485 520 Q 466 536 451 542 Q 427 558 407 551 Q 391 547 398 530 Q 410 505 407 430 Q 406 429 406 426 L 402 389 Q 366 170 192 67 Q 176 57 160 45 Q 145 35 159 33 Q 174 32 212 45 Q 269 69 313 108 Q 415 190 451 348 Q 451 363 465 407 L 474 446 Z" class="stroke4"/>
    <path d="M 937 25 Q 971 35 958 58 Q 930 115 915 199 Q 911 218 902 223 Q 893 227 891 210 Q 876 111 850 86 Q 843 71 795 63 Q 672 39 627 80 Q 596 114 588 171 Q 581 226 606 305 Q 630 381 667 407 Q 698 431 666 449 Q 644 464 623 478 Q 598 491 579 479 Q 557 472 474 446 L 406 426 Q 271 389 213 380 Q 194 377 192 362 Q 192 352 226 339 Q 259 326 302 349 Q 342 371 402 389 L 465 407 Q 550 435 571 422 Q 587 412 579 382 Q 540 249 540 205 Q 531 112 585 52 Q 612 24 659 7 Q 710 -6 803 -2 Q 891 5 937 25 Z" class="stroke5"/>
    
    
    
    
    </g>
</svg>