<svg version="1.1" viewBox="0 0 1024 1024" xmlns="http://www.w3.org/2000/svg">
  
  <g transform="scale(1, -1) translate(0, -900)">
    <style type="text/css">
        .stroke1 {fill: #808080;}
        .stroke2 {fill: #808079;}
        .stroke3 {fill: #808078;}
        .stroke4 {fill: #808077;}
        .stroke5 {fill: #808076;}
        .stroke6 {fill: #808075;}
        .stroke7 {fill: #808074;}
        .stroke8 {fill: #808073;}
        .stroke9 {fill: #808072;}
        .stroke10 {fill: #808071;}
        .stroke11 {fill: #808070;}
        .stroke12 {fill: #808069;}
        .stroke13 {fill: #808068;}
        .stroke14 {fill: #808067;}
        .stroke15 {fill: #808066;}
        .stroke16 {fill: #808065;}
        .stroke17 {fill: #808064;}
        .stroke18 {fill: #808063;}
        .stroke19 {fill: #808062;}
        .stroke20 {fill: #808061;}
        text {
            font-family: Helvetica;
            font-size: 50px;
            fill: #808060;
            paint-order: stroke;
            stroke: #000000;
            stroke-width: 4px;
            stroke-linecap: butt;
            stroke-linejoin: miter;
            font-weight: 800;
        }
    </style>

    <path d="M 614 654 Q 722 663 809 657 Q 825 656 831 666 Q 835 678 822 693 Q 768 738 670 713 Q 652 710 636 706 L 580 697 Q 499 687 410 673 L 361 666 Q 279 657 188 647 Q 157 644 179 628 Q 225 598 284 609 Q 329 622 372 628 L 415 636 Q 445 643 566 651 L 614 654 Z" class="stroke1"/>
    <path d="M 410 673 Q 404 710 402 740 Q 403 761 382 766 Q 342 784 317 775 Q 299 765 316 746 Q 343 718 361 666 L 372 628 Q 376 598 398 576 Q 413 566 417 578 Q 423 599 417 622 Q 416 629 415 636 L 410 673 Z" class="stroke2"/>
    <path d="M 636 706 Q 645 739 677 790 Q 692 805 681 816 Q 669 834 634 852 Q 618 862 599 854 Q 589 847 596 836 Q 609 803 580 697 L 566 651 Q 547 600 546 572 Q 547 557 564 568 Q 574 577 614 654 L 636 706 Z" class="stroke3"/>
    <path d="M 463 433 Q 469 452 479 471 Q 489 490 473 500 Q 454 516 439 522 Q 415 538 395 531 Q 379 527 386 510 Q 401 480 394 413 L 390 374 Q 384 331 359 256 L 345 226 Q 287 118 169 39 Q 157 30 144 21 Q 129 11 143 8 Q 158 8 196 21 Q 254 45 298 84 Q 349 124 374 170 Q 380 183 387 196 L 409 236 Q 416 254 454 394 L 463 433 Z" class="stroke4"/>
    <path d="M 945 17 Q 979 27 966 50 Q 938 107 923 191 Q 919 210 910 215 Q 901 219 899 202 Q 886 106 859 79 Q 850 64 802 56 Q 676 35 632 76 Q 601 110 593 166 Q 587 221 613 298 Q 637 373 675 398 Q 706 422 673 440 Q 652 456 631 469 Q 606 484 587 471 Q 562 464 463 433 L 394 413 Q 274 382 221 372 Q 202 369 200 354 Q 200 344 234 331 Q 267 318 310 341 Q 344 359 390 374 L 454 394 Q 556 428 578 414 Q 594 405 587 375 Q 542 242 546 168 Q 550 92 589 48 Q 646 -15 809 -9 Q 897 -3 945 17 Z" class="stroke5"/>
    <path d="M 359 256 Q 325 269 302 277 Q 295 280 295 270 Q 295 261 345 226 L 387 196 Q 480 127 485 126 Q 492 126 496 134 Q 503 146 490 177 Q 475 208 409 236 L 359 256 Z" class="stroke6"/>
    
    
    
    
    
    </g>
</svg>