<svg version="1.1" viewBox="0 0 1024 1024" xmlns="http://www.w3.org/2000/svg">
  
  <g transform="scale(1, -1) translate(0, -900)">
    <style type="text/css">
        .stroke1 {fill: #808080;}
        .stroke2 {fill: #808079;}
        .stroke3 {fill: #808078;}
        .stroke4 {fill: #808077;}
        .stroke5 {fill: #808076;}
        .stroke6 {fill: #808075;}
        .stroke7 {fill: #808074;}
        .stroke8 {fill: #808073;}
        .stroke9 {fill: #808072;}
        .stroke10 {fill: #808071;}
        .stroke11 {fill: #808070;}
        .stroke12 {fill: #808069;}
        .stroke13 {fill: #808068;}
        .stroke14 {fill: #808067;}
        .stroke15 {fill: #808066;}
        .stroke16 {fill: #808065;}
        .stroke17 {fill: #808064;}
        .stroke18 {fill: #808063;}
        .stroke19 {fill: #808062;}
        .stroke20 {fill: #808061;}
        text {
            font-family: Helvetica;
            font-size: 50px;
            fill: #808060;
            paint-order: stroke;
            stroke: #000000;
            stroke-width: 4px;
            stroke-linecap: butt;
            stroke-linejoin: miter;
            font-weight: 800;
        }
    </style>

    <path d="M 644 674 Q 735 686 834 679 Q 850 678 855 687 Q 859 699 847 714 Q 793 754 699 731 Q 683 728 666 724 L 602 713 Q 517 700 424 686 L 377 680 Q 290 670 195 659 Q 165 655 186 639 Q 232 612 287 623 Q 336 636 385 645 L 426 652 Q 439 661 590 670 L 644 674 Z" class="stroke1"/>
    <path d="M 424 686 Q 423 720 422 748 Q 423 767 404 773 Q 365 794 343 786 Q 324 777 339 758 Q 358 734 377 680 L 385 645 Q 389 606 408 588 Q 421 578 425 589 Q 431 607 426 652 L 424 686 Z" class="stroke2"/>
    <path d="M 666 724 Q 676 746 693 772 Q 709 788 698 799 Q 685 817 649 837 Q 631 847 613 839 Q 601 832 609 820 Q 621 795 602 713 L 590 670 Q 566 589 566 576 Q 567 561 585 573 Q 604 588 644 674 L 666 724 Z" class="stroke3"/>
    <path d="M 388 455 Q 413 491 427 506 Q 436 519 433 528 Q 429 541 401 546 Q 370 553 358 549 Q 351 546 349 533 Q 343 464 204 317 Q 185 299 211 306 Q 274 318 372 431 L 388 455 Z" class="stroke4"/>
    <path d="M 576 46 Q 558 42 473 59 Q 463 62 464 56 Q 463 52 475 43 Q 524 0 547 -32 Q 560 -51 573 -50 Q 592 -51 611 -34 Q 680 15 706 149 Q 725 240 741 380 Q 742 411 765 434 Q 778 447 778 457 Q 777 466 757 480 Q 729 502 692 514 Q 668 523 602 501 Q 587 498 570 493 Q 546 487 388 455 C 359 449 342 432 372 431 Q 402 424 554 450 Q 653 474 667 457 Q 677 427 663 265 Q 648 145 609 77 Q 594 47 576 46 Z" class="stroke5"/>
    <path d="M 368 287 Q 396 257 424 221 Q 436 206 451 205 Q 461 204 469 217 Q 476 230 471 262 Q 464 298 370 335 Q 355 341 348 339 Q 342 336 342 323 Q 345 311 368 287 Z" class="stroke6"/>
    
    
    
    
    
    </g>
</svg>