<svg version="1.1" viewBox="0 0 1024 1024" xmlns="http://www.w3.org/2000/svg">
  
  <g transform="scale(1, -1) translate(0, -900)">
    <style type="text/css">
        .stroke1 {fill: #808080;}
        .stroke2 {fill: #808079;}
        .stroke3 {fill: #808078;}
        .stroke4 {fill: #808077;}
        .stroke5 {fill: #808076;}
        .stroke6 {fill: #808075;}
        .stroke7 {fill: #808074;}
        .stroke8 {fill: #808073;}
        .stroke9 {fill: #808072;}
        .stroke10 {fill: #808071;}
        .stroke11 {fill: #808070;}
        .stroke12 {fill: #808069;}
        .stroke13 {fill: #808068;}
        .stroke14 {fill: #808067;}
        .stroke15 {fill: #808066;}
        .stroke16 {fill: #808065;}
        .stroke17 {fill: #808064;}
        .stroke18 {fill: #808063;}
        .stroke19 {fill: #808062;}
        .stroke20 {fill: #808061;}
        text {
            font-family: Helvetica;
            font-size: 50px;
            fill: #808060;
            paint-order: stroke;
            stroke: #000000;
            stroke-width: 4px;
            stroke-linecap: butt;
            stroke-linejoin: miter;
            font-weight: 800;
        }
    </style>

    <path d="M 625 657 Q 748 666 832 659 Q 848 658 855 668 Q 859 681 846 697 Q 794 742 696 720 Q 671 717 647 711 L 589 701 Q 507 691 414 677 L 365 671 Q 275 662 181 652 Q 150 649 171 632 Q 217 601 280 612 Q 328 625 374 632 L 417 640 Q 453 649 578 654 L 625 657 Z" class="stroke1"/>
    <path d="M 414 677 Q 410 719 408 751 Q 409 770 389 777 Q 347 796 325 789 Q 306 779 322 760 Q 343 735 365 671 L 374 632 Q 384 587 399 572 Q 412 562 417 573 Q 423 592 417 640 L 414 677 Z" class="stroke2"/>
    <path d="M 647 711 Q 653 735 675 771 Q 690 787 679 797 Q 666 813 629 831 Q 613 841 594 831 Q 584 824 592 813 Q 602 792 600 767 Q 597 739 589 701 L 578 654 Q 563 606 566 584 Q 567 569 584 581 Q 593 590 625 657 L 647 711 Z" class="stroke3"/>
    <path d="M 644 391 Q 674 460 706 480 Q 725 499 710 519 Q 692 534 637 563 Q 618 572 595 563 Q 489 523 336 507 Q 317 506 319 495 Q 322 486 342 480 Q 369 467 407 479 Q 494 494 576 508 Q 598 512 606 504 Q 615 495 611 478 Q 601 432 588 395 C 578 367 632 364 644 391 Z" class="stroke4"/>
    <path d="M 354 312 Q 453 333 661 350 Q 674 351 675 361 Q 675 370 644 391 C 627 403 617 401 588 395 Q 458 367 350 353 C 320 349 325 306 354 312 Z" class="stroke5"/>
    <path d="M 854 82 Q 833 143 824 248 Q 821 264 814 270 Q 805 276 801 254 Q 788 124 770 99 Q 722 45 531 45 Q 426 48 381 65 Q 341 86 333 112 Q 326 137 329 202 Q 336 274 352 306 Q 353 310 354 312 C 364 340 365 341 350 353 Q 349 354 347 356 Q 295 398 279 393 Q 263 387 270 370 Q 289 330 283 272 Q 274 115 295 79 Q 328 15 455 -2 Q 539 -12 670 -3 Q 788 6 835 32 Q 866 48 854 82 Z" class="stroke6"/>
    
    
    
    
    
    </g>
</svg>