<svg version="1.1" viewBox="0 0 1024 1024" xmlns="http://www.w3.org/2000/svg">
  
  <g transform="scale(1, -1) translate(0, -900)">
    <style type="text/css">
        .stroke1 {fill: #808080;}
        .stroke2 {fill: #808079;}
        .stroke3 {fill: #808078;}
        .stroke4 {fill: #808077;}
        .stroke5 {fill: #808076;}
        .stroke6 {fill: #808075;}
        .stroke7 {fill: #808074;}
        .stroke8 {fill: #808073;}
        .stroke9 {fill: #808072;}
        .stroke10 {fill: #808071;}
        .stroke11 {fill: #808070;}
        .stroke12 {fill: #808069;}
        .stroke13 {fill: #808068;}
        .stroke14 {fill: #808067;}
        .stroke15 {fill: #808066;}
        .stroke16 {fill: #808065;}
        .stroke17 {fill: #808064;}
        .stroke18 {fill: #808063;}
        .stroke19 {fill: #808062;}
        .stroke20 {fill: #808061;}
        text {
            font-family: Helvetica;
            font-size: 50px;
            fill: #808060;
            paint-order: stroke;
            stroke: #000000;
            stroke-width: 4px;
            stroke-linecap: butt;
            stroke-linejoin: miter;
            font-weight: 800;
        }
    </style>

    <path d="M 642 661 Q 666 673 800 661 Q 816 660 822 670 Q 828 682 814 697 Q 760 743 676 721 Q 670 721 664 719 L 602 709 Q 511 697 409 683 L 357 678 Q 284 671 201 663 Q 170 660 191 643 Q 237 613 295 624 Q 332 633 370 639 L 414 646 Q 442 655 593 661 L 642 661 Z" class="stroke1"/>
    <path d="M 409 683 Q 405 708 404 730 Q 405 749 385 754 Q 346 772 323 763 Q 305 754 321 735 Q 345 710 357 678 L 370 639 Q 388 566 403 551 Q 416 541 420 553 Q 423 565 414 646 L 409 683 Z" class="stroke2"/>
    <path d="M 664 719 Q 671 738 684 759 Q 697 775 687 785 Q 674 803 637 819 Q 621 829 602 819 Q 592 812 600 801 Q 612 777 602 709 L 593 661 Q 578 583 578 576 Q 579 561 596 573 Q 614 591 642 661 L 664 719 Z" class="stroke3"/>
    <path d="M 519 441 Q 565 451 615 457 Q 663 467 670 473 Q 679 480 674 488 Q 668 500 640 508 Q 612 515 582 505 Q 554 498 526 489 L 464 475 Q 398 465 326 459 Q 292 455 316 438 Q 349 414 426 426 Q 442 429 461 431 L 519 441 Z" class="stroke4"/>
    <path d="M 513 299 Q 579 305 809 306 Q 830 306 835 315 Q 841 327 824 341 Q 770 383 731 374 Q 646 356 500 335 L 445 328 Q 324 315 185 299 Q 163 298 179 279 Q 194 264 212 259 Q 234 253 251 257 Q 338 279 435 290 L 513 299 Z" class="stroke5"/>
    <path d="M 435 290 Q 392 158 292 81 Q 255 54 198 19 Q 174 3 205 6 Q 224 3 264 21 Q 315 37 358 69 Q 436 123 488 287 L 500 335 Q 510 381 519 441 L 526 489 Q 526 516 538 546 Q 545 553 539 564 Q 533 571 503 583 Q 469 599 454 594 Q 441 588 452 571 Q 462 523 464 475 L 461 431 Q 457 379 447 333 Q 446 332 445 328 L 435 290 Z" class="stroke6"/>
    <path d="M 488 287 Q 566 161 669 26 Q 688 4 720 3 Q 829 2 864 6 Q 874 7 876 13 Q 877 19 863 27 Q 704 96 634 171 Q 576 228 513 299 C 492 323 472 312 488 287 Z" class="stroke7"/>
    
    
    
    
    
    
    </g>
</svg>