<svg version="1.1" viewBox="0 0 1024 1024" xmlns="http://www.w3.org/2000/svg">
  
  <g transform="scale(1, -1) translate(0, -900)">
    <style type="text/css">
        .stroke1 {fill: #808080;}
        .stroke2 {fill: #808079;}
        .stroke3 {fill: #808078;}
        .stroke4 {fill: #808077;}
        .stroke5 {fill: #808076;}
        .stroke6 {fill: #808075;}
        .stroke7 {fill: #808074;}
        .stroke8 {fill: #808073;}
        .stroke9 {fill: #808072;}
        .stroke10 {fill: #808071;}
        .stroke11 {fill: #808070;}
        .stroke12 {fill: #808069;}
        .stroke13 {fill: #808068;}
        .stroke14 {fill: #808067;}
        .stroke15 {fill: #808066;}
        .stroke16 {fill: #808065;}
        .stroke17 {fill: #808064;}
        .stroke18 {fill: #808063;}
        .stroke19 {fill: #808062;}
        .stroke20 {fill: #808061;}
        text {
            font-family: Helvetica;
            font-size: 50px;
            fill: #808060;
            paint-order: stroke;
            stroke: #000000;
            stroke-width: 4px;
            stroke-linecap: butt;
            stroke-linejoin: miter;
            font-weight: 800;
        }
    </style>

    <path d="M 640 613 Q 718 626 830 619 Q 846 618 851 627 Q 855 639 843 654 Q 788 696 686 669 Q 671 668 657 663 L 597 653 Q 500 638 391 622 L 340 615 Q 256 606 167 595 Q 137 591 158 575 Q 204 548 259 559 Q 302 571 348 580 L 394 589 Q 442 602 588 610 L 640 613 Z" class="stroke1"/>
    <path d="M 391 622 Q 387 671 383 711 Q 384 733 362 739 Q 320 760 294 752 Q 273 742 291 721 Q 339 661 340 615 L 348 580 Q 358 511 378 489 Q 393 477 398 490 Q 404 508 394 589 L 391 622 Z" class="stroke2"/>
    <path d="M 657 663 Q 669 711 695 758 Q 711 776 698 786 Q 683 805 643 823 Q 624 833 604 821 Q 594 814 602 802 Q 615 774 612 741 Q 608 702 597 653 L 588 610 Q 567 531 569 509 Q 570 493 589 506 Q 604 519 640 613 L 657 663 Z" class="stroke3"/>
    <path d="M 205 338 Q 178 266 140 202 Q 119 165 139 130 Q 148 111 171 125 Q 229 173 234 276 Q 238 312 231 338 Q 225 348 219 349 Q 209 348 205 338 Z" class="stroke4"/>
    <path d="M 854 71 Q 851 84 832 105 Q 801 136 721 241 Q 715 248 709 250 Q 706 249 707 241 Q 720 190 731 134 Q 735 110 721 98 Q 705 85 658 83 Q 591 79 524 94 Q 413 121 378 212 Q 359 270 350 331 Q 347 359 328 371 Q 312 383 305 376 Q 304 376 326 261 Q 341 147 405 86 Q 516 -7 731 18 Q 746 21 764 25 Q 798 34 840 57 Q 856 64 854 71 Z" class="stroke5"/>
    <path d="M 466 369 Q 497 338 529 300 Q 542 284 561 283 Q 573 282 580 297 Q 587 313 580 348 Q 576 373 541 393 Q 454 432 440 427 Q 434 423 434 409 Q 438 396 466 369 Z" class="stroke6"/>
    <path d="M 690 400 Q 759 351 841 278 Q 862 259 880 255 Q 890 255 897 267 Q 909 283 889 331 Q 874 376 788 405 Q 722 426 688 435 Q 676 439 676 425 Q 677 409 690 400 Z" class="stroke7"/>
    
    
    
    
    
    
    </g>
</svg>