<svg version="1.1" viewBox="0 0 1024 1024" xmlns="http://www.w3.org/2000/svg">
  
  <g transform="scale(1, -1) translate(0, -900)">
    <style type="text/css">
        .stroke1 {fill: #808080;}
        .stroke2 {fill: #808079;}
        .stroke3 {fill: #808078;}
        .stroke4 {fill: #808077;}
        .stroke5 {fill: #808076;}
        .stroke6 {fill: #808075;}
        .stroke7 {fill: #808074;}
        .stroke8 {fill: #808073;}
        .stroke9 {fill: #808072;}
        .stroke10 {fill: #808071;}
        .stroke11 {fill: #808070;}
        .stroke12 {fill: #808069;}
        .stroke13 {fill: #808068;}
        .stroke14 {fill: #808067;}
        .stroke15 {fill: #808066;}
        .stroke16 {fill: #808065;}
        .stroke17 {fill: #808064;}
        .stroke18 {fill: #808063;}
        .stroke19 {fill: #808062;}
        .stroke20 {fill: #808061;}
        text {
            font-family: Helvetica;
            font-size: 50px;
            fill: #808060;
            paint-order: stroke;
            stroke: #000000;
            stroke-width: 4px;
            stroke-linecap: butt;
            stroke-linejoin: miter;
            font-weight: 800;
        }
    </style>

    <path d="M 431 709 Q 428 740 427 764 Q 428 783 408 789 Q 371 810 347 801 Q 329 792 344 773 Q 371 740 382 702 L 390 668 Q 405 598 419 584 Q 432 574 437 585 Q 441 600 433 680 L 431 709 Z" class="stroke1"/>
    <path d="M 433 680 Q 446 683 463 691 Q 470 695 468 703 Q 467 710 453 712 Q 443 711 431 709 L 382 702 Q 319 695 235 681 Q 198 682 177 681 Q 167 682 164 677 Q 161 670 169 660 Q 182 644 211 633 Q 229 623 246 629 Q 315 648 390 668 L 433 680 Z" class="stroke2"/>
    <path d="M 647 738 Q 656 757 670 780 Q 686 796 674 807 Q 661 826 625 844 Q 607 854 588 845 Q 578 838 586 827 Q 596 800 583 729 L 577 699 Q 553 606 553 594 Q 556 581 570 589 Q 583 601 628 692 L 647 738 Z" class="stroke3"/>
    <path d="M 628 692 Q 712 714 824 700 Q 837 699 843 708 Q 847 718 836 731 Q 791 767 710 749 Q 680 745 647 738 L 583 729 Q 574 729 565 727 Q 540 724 557 710 Q 567 704 577 699 C 603 686 603 686 628 692 Z" class="stroke4"/>
    <path d="M 374 489 Q 386 507 399 521 Q 411 534 396 551 Q 350 590 323 588 Q 311 587 313 570 Q 320 476 206 359 Q 182 337 170 321 Q 160 305 177 309 Q 226 313 309 404 Q 315 413 361 472 L 374 489 Z" class="stroke5"/>
    <path d="M 507 458 Q 603 477 704 495 Q 758 507 766 513 Q 776 522 771 531 Q 764 544 732 553 Q 701 560 592 526 Q 471 499 380 491 Q 376 491 374 489 C 345 483 340 482 361 472 Q 406 450 443 449 Q 455 449 470 450 L 507 458 Z" class="stroke6"/>
    <path d="M 535 201 Q 534 250 535 293 Q 535 300 535 306 L 535 339 Q 536 393 541 417 Q 544 430 536 437 Q 521 450 507 458 C 482 474 460 478 470 450 Q 492 414 475 154 Q 472 135 470 117 Q 469 92 465 79 Q 453 22 509 -36 Q 509 -37 512 -39 Q 525 -40 530 -26 Q 543 8 539 40 Q 536 107 535 167 L 535 201 Z" class="stroke7"/>
    <path d="M 535 306 Q 577 300 670 319 Q 745 338 748 339 Q 757 348 752 356 Q 745 368 714 374 Q 683 380 652 366 Q 625 357 596 349 Q 566 343 535 339 C 505 335 505 309 535 306 Z" class="stroke8"/>
    <path d="M 535 167 Q 577 160 646 170 Q 772 191 778 195 Q 787 202 783 212 Q 776 224 746 232 Q 724 238 638 216 Q 587 210 535 201 C 505 196 505 171 535 167 Z" class="stroke9"/>
    
    
    
    
    
    
    
    
    </g>
</svg>