<svg version="1.1" viewBox="0 0 1024 1024" xmlns="http://www.w3.org/2000/svg">
  
  <g transform="scale(1, -1) translate(0, -900)">
    <style type="text/css">
        .stroke1 {fill: #808080;}
        .stroke2 {fill: #808079;}
        .stroke3 {fill: #808078;}
        .stroke4 {fill: #808077;}
        .stroke5 {fill: #808076;}
        .stroke6 {fill: #808075;}
        .stroke7 {fill: #808074;}
        .stroke8 {fill: #808073;}
        .stroke9 {fill: #808072;}
        .stroke10 {fill: #808071;}
        .stroke11 {fill: #808070;}
        .stroke12 {fill: #808069;}
        .stroke13 {fill: #808068;}
        .stroke14 {fill: #808067;}
        .stroke15 {fill: #808066;}
        .stroke16 {fill: #808065;}
        .stroke17 {fill: #808064;}
        .stroke18 {fill: #808063;}
        .stroke19 {fill: #808062;}
        .stroke20 {fill: #808061;}
        text {
            font-family: Helvetica;
            font-size: 50px;
            fill: #808060;
            paint-order: stroke;
            stroke: #000000;
            stroke-width: 4px;
            stroke-linecap: butt;
            stroke-linejoin: miter;
            font-weight: 800;
        }
    </style>

    <path d="M 649 650 Q 707 659 828 649 Q 844 648 850 658 Q 856 670 842 685 Q 785 734 677 704 Q 671 704 667 702 L 611 694 Q 526 684 433 671 L 381 665 Q 293 658 197 647 Q 166 644 187 627 Q 233 597 318 615 Q 354 624 391 627 L 437 634 Q 437 635 438 635 Q 514 645 600 648 L 649 650 Z" class="stroke1"/>
    <path d="M 433 671 Q 432 708 429 737 Q 430 758 409 764 Q 367 785 343 777 Q 324 767 340 747 Q 371 710 381 665 L 391 627 Q 403 569 419 552 Q 432 542 438 554 Q 442 567 437 634 L 433 671 Z" class="stroke2"/>
    <path d="M 667 702 Q 668 703 669 706 Q 679 736 700 775 Q 713 791 703 801 Q 690 817 653 835 Q 637 845 618 835 Q 608 828 616 817 Q 628 792 624 760 Q 620 730 611 694 L 600 648 Q 578 552 578 544 Q 579 529 596 541 Q 609 556 649 650 L 667 702 Z" class="stroke3"/>
    <path d="M 275 498 Q 306 476 337 448 Q 353 435 369 437 Q 379 438 385 452 Q 389 468 377 499 Q 365 532 267 548 Q 251 551 244 547 Q 238 543 241 529 Q 245 519 275 498 Z" class="stroke4"/>
    <path d="M 180 370 Q 226 325 264 309 Q 279 308 287 320 Q 291 333 289 349 Q 271 395 193 408 L 190 409 Q 174 412 165 408 Q 159 407 162 394 Q 165 384 180 370 Z" class="stroke5"/>
    <path d="M 175 107 Q 163 106 164 88 Q 167 15 201 -7 Q 207 -14 217 -13 Q 224 -12 228 12 Q 235 48 342 262 Q 351 275 350 282 Q 350 292 341 286 Q 335 283 213 138 Q 200 122 175 107 Z" class="stroke6"/>
    <path d="M 615 399 Q 673 412 737 423 Q 780 433 786 438 Q 796 448 792 458 Q 783 471 749 481 Q 721 487 604 453 Q 495 432 448 428 Q 405 421 436 401 Q 493 371 553 387 Q 559 388 568 390 L 615 399 Z" class="stroke7"/>
    <path d="M 615 133 Q 628 239 638 321 Q 642 369 643 370 Q 628 388 615 399 C 593 419 561 419 568 390 Q 577 362 573 281 Q 570 227 565 128 C 563 98 611 103 615 133 Z" class="stroke8"/>
    <path d="M 565 128 Q 468 119 359 108 Q 335 107 352 87 Q 367 71 387 64 Q 409 57 428 62 Q 626 107 890 87 Q 912 86 918 96 Q 925 109 907 124 Q 850 170 808 162 Q 736 149 615 133 L 565 128 Z" class="stroke9"/>
    
    
    
    
    
    
    
    
    </g>
</svg>