<svg version="1.1" viewBox="0 0 1024 1024" xmlns="http://www.w3.org/2000/svg">
  
  <g transform="scale(1, -1) translate(0, -900)">
    <style type="text/css">
        .stroke1 {fill: #808080;}
        .stroke2 {fill: #808079;}
        .stroke3 {fill: #808078;}
        .stroke4 {fill: #808077;}
        .stroke5 {fill: #808076;}
        .stroke6 {fill: #808075;}
        .stroke7 {fill: #808074;}
        .stroke8 {fill: #808073;}
        .stroke9 {fill: #808072;}
        .stroke10 {fill: #808071;}
        .stroke11 {fill: #808070;}
        .stroke12 {fill: #808069;}
        .stroke13 {fill: #808068;}
        .stroke14 {fill: #808067;}
        .stroke15 {fill: #808066;}
        .stroke16 {fill: #808065;}
        .stroke17 {fill: #808064;}
        .stroke18 {fill: #808063;}
        .stroke19 {fill: #808062;}
        .stroke20 {fill: #808061;}
        text {
            font-family: Helvetica;
            font-size: 50px;
            fill: #808060;
            paint-order: stroke;
            stroke: #000000;
            stroke-width: 4px;
            stroke-linecap: butt;
            stroke-linejoin: miter;
            font-weight: 800;
        }
    </style>

    <path d="M 456 708 Q 452 745 449 776 Q 450 795 429 801 Q 387 820 365 811 Q 347 801 363 782 Q 396 746 408 700 L 417 666 Q 429 609 447 592 Q 460 582 465 594 Q 469 612 460 678 L 456 708 Z" class="stroke1"/>
    <path d="M 460 678 Q 467 682 480 684 Q 495 687 512 696 Q 518 700 516 707 Q 515 713 502 716 Q 481 713 456 708 L 408 700 Q 344 691 258 677 Q 215 678 193 675 Q 183 676 180 672 Q 179 665 185 655 Q 198 640 225 629 Q 243 620 259 626 Q 335 645 417 666 L 460 678 Z" class="stroke2"/>
    <path d="M 671 729 Q 672 730 673 733 Q 686 761 710 799 Q 726 814 716 826 Q 704 845 669 866 Q 653 876 633 869 Q 621 863 629 851 Q 639 815 611 722 L 604 701 Q 562 590 561 575 Q 562 562 578 568 Q 599 581 615 616 Q 633 650 652 688 L 671 729 Z" class="stroke3"/>
    <path d="M 652 688 Q 665 688 681 690 Q 778 711 882 699 Q 897 698 903 705 Q 907 715 896 727 Q 851 763 788 747 Q 736 738 671 729 L 611 722 Q 608 723 605 722 Q 580 721 597 706 Q 601 705 604 701 C 623 687 623 687 652 688 Z" class="stroke4"/>
    <path d="M 387 428 Q 264 395 261 396 Q 257 399 258 411 Q 268 484 271 492 Q 275 501 268 509 Q 258 522 231 538 Q 215 547 207 543 Q 197 539 204 525 Q 238 464 207 386 Q 200 365 207 345 Q 222 324 237 334 Q 285 358 388 402 C 416 414 416 436 387 428 Z" class="stroke5"/>
    <path d="M 387 258 Q 387 116 370 48 Q 361 12 383 -41 Q 389 -57 396 -59 Q 402 -65 408 -58 Q 415 -54 424 -35 Q 427 -23 431 73 Q 431 457 447 514 Q 454 527 452 539 Q 446 548 397 577 Q 376 592 358 578 Q 354 574 360 560 Q 384 526 385 489 Q 386 461 387 428 L 388 402 Q 388 323 387 293 L 387 258 Z" class="stroke6"/>
    <path d="M 264 227 Q 285 240 387 258 C 417 263 417 288 387 293 Q 368 297 353 293 Q 209 251 114 235 Q 102 234 100 226 Q 99 216 112 207 Q 145 186 191 201 Q 209 210 231 215 L 264 227 Z" class="stroke7"/>
    <path d="M 231 215 Q 237 209 233 184 Q 209 88 117 -26 Q 113 -30 112 -37 Q 112 -41 117 -41 Q 180 -28 275 131 Q 284 152 299 171 Q 305 181 297 193 Q 282 217 264 227 C 239 244 221 243 231 215 Z" class="stroke8"/>
    <path d="M 705 306 Q 795 319 901 320 Q 920 321 925 330 Q 929 342 913 354 Q 856 391 798 372 Q 759 363 707 350 L 649 338 Q 567 323 475 306 Q 456 303 471 287 Q 484 274 502 270 Q 523 266 538 271 Q 590 289 650 298 L 705 306 Z" class="stroke9"/>
    <path d="M 700 114 Q 703 216 705 306 L 707 350 Q 710 471 719 495 Q 729 514 717 527 Q 681 554 653 561 Q 640 564 625 553 Q 621 546 626 535 Q 645 504 647 438 Q 647 390 649 338 L 650 298 Q 651 207 655 107 C 656 77 699 84 700 114 Z" class="stroke10"/>
    <path d="M 655 107 Q 580 97 496 85 Q 477 84 491 67 Q 504 54 522 48 Q 541 44 558 47 Q 648 69 860 70 Q 863 70 867 69 Q 886 69 891 78 Q 895 88 880 102 Q 828 144 772 128 Q 739 124 700 114 L 655 107 Z" class="stroke11"/>
    
    
    
    
    
    
    
    
    
    
    </g>
</svg>