<svg version="1.1" viewBox="0 0 1024 1024" xmlns="http://www.w3.org/2000/svg">
  
  <g transform="scale(1, -1) translate(0, -900)">
    <style type="text/css">
        .stroke1 {fill: #808080;}
        .stroke2 {fill: #808079;}
        .stroke3 {fill: #808078;}
        .stroke4 {fill: #808077;}
        .stroke5 {fill: #808076;}
        .stroke6 {fill: #808075;}
        .stroke7 {fill: #808074;}
        .stroke8 {fill: #808073;}
        .stroke9 {fill: #808072;}
        .stroke10 {fill: #808071;}
        .stroke11 {fill: #808070;}
        .stroke12 {fill: #808069;}
        .stroke13 {fill: #808068;}
        .stroke14 {fill: #808067;}
        .stroke15 {fill: #808066;}
        .stroke16 {fill: #808065;}
        .stroke17 {fill: #808064;}
        .stroke18 {fill: #808063;}
        .stroke19 {fill: #808062;}
        .stroke20 {fill: #808061;}
        text {
            font-family: Helvetica;
            font-size: 50px;
            fill: #808060;
            paint-order: stroke;
            stroke: #000000;
            stroke-width: 4px;
            stroke-linecap: butt;
            stroke-linejoin: miter;
            font-weight: 800;
        }
    </style>

    <path d="M 638 687 Q 680 696 789 687 Q 805 686 811 695 Q 815 707 802 722 Q 754 765 666 743 Q 662 743 660 742 L 607 733 Q 525 723 431 709 L 382 703 Q 318 699 248 690 Q 218 687 239 671 Q 282 646 356 657 Q 372 661 393 664 L 433 671 Q 466 683 595 685 L 638 687 Z" class="stroke1"/>
    <path d="M 431 709 Q 430 734 429 754 Q 430 773 411 778 Q 369 796 352 790 Q 336 781 349 763 Q 373 736 382 703 L 393 664 Q 397 625 416 607 Q 429 597 433 608 Q 439 627 433 671 L 431 709 Z" class="stroke2"/>
    <path d="M 660 742 Q 660 743 661 743 Q 668 765 685 792 Q 698 807 688 816 Q 676 832 644 847 Q 628 856 613 847 Q 603 841 611 831 Q 620 806 607 733 L 595 685 Q 580 639 583 619 Q 584 606 599 616 Q 608 625 638 687 L 660 742 Z" class="stroke3"/>
    <path d="M 487 593 Q 503 577 520 557 Q 532 544 546 545 Q 556 545 561 557 Q 565 570 559 597 Q 555 612 532 623 Q 475 641 464 639 Q 460 635 460 624 Q 463 614 487 593 Z" class="stroke4"/>
    <path d="M 275 486 Q 265 508 254 515 Q 235 528 233 503 Q 239 476 206 431 Q 157 391 191 327 Q 206 302 226 328 Q 242 352 252 387 Q 265 429 276 453 C 283 469 283 469 275 486 Z" class="stroke5"/>
    <path d="M 276 453 Q 292 447 345 457 Q 448 490 658 516 Q 704 522 719 519 Q 734 509 732 501 Q 732 492 709 435 Q 702 422 709 417 Q 716 413 733 425 Q 785 459 828 470 Q 862 480 862 489 Q 861 499 788 550 Q 764 569 666 548 Q 603 542 371 501 Q 322 492 275 486 C 245 482 246 456 276 453 Z" class="stroke6"/>
    <path d="M 388 402 Q 355 396 379 381 Q 418 360 468 371 Q 528 383 590 396 Q 618 402 623 406 Q 630 413 627 421 Q 620 431 594 439 Q 566 443 539 433 Q 506 423 472 414 Q 433 407 388 402 Z" class="stroke7"/>
    <path d="M 561 280 Q 582 286 692 295 Q 702 294 712 306 Q 713 318 691 328 Q 661 352 577 328 Q 450 304 285 284 Q 257 281 278 264 Q 305 237 342 244 Q 361 248 387 251 L 427 259 Q 466 266 511 273 L 561 280 Z" class="stroke8"/>
    <path d="M 387 251 Q 387 173 284 70 Q 281 70 280 67 Q 252 40 182 -3 Q 173 -10 180 -13 Q 186 -17 197 -14 Q 323 16 412 144 Q 434 183 456 208 Q 465 217 460 227 Q 456 237 430 257 Q 429 258 427 259 C 403 277 389 281 387 251 Z" class="stroke9"/>
    <path d="M 945 59 Q 930 90 913 180 Q 912 196 905 202 Q 899 206 894 187 Q 866 90 847 60 Q 834 42 791 31 Q 692 9 614 38 Q 583 53 575 72 Q 556 108 577 246 Q 581 267 561 280 C 541 303 502 302 511 273 L 512 272 Q 525 233 522 197 Q 516 49 549 12 Q 562 -9 628 -31 Q 793 -76 927 9 Q 931 13 938 17 Q 959 33 945 59 Z" class="stroke10"/>
    
    
    
    
    
    
    
    
    
    </g>
</svg>