<svg version="1.1" viewBox="0 0 1024 1024" xmlns="http://www.w3.org/2000/svg">
  
  <g transform="scale(1, -1) translate(0, -900)">
    <style type="text/css">
        .stroke1 {fill: #808080;}
        .stroke2 {fill: #808079;}
        .stroke3 {fill: #808078;}
        .stroke4 {fill: #808077;}
        .stroke5 {fill: #808076;}
        .stroke6 {fill: #808075;}
        .stroke7 {fill: #808074;}
        .stroke8 {fill: #808073;}
        .stroke9 {fill: #808072;}
        .stroke10 {fill: #808071;}
        .stroke11 {fill: #808070;}
        .stroke12 {fill: #808069;}
        .stroke13 {fill: #808068;}
        .stroke14 {fill: #808067;}
        .stroke15 {fill: #808066;}
        .stroke16 {fill: #808065;}
        .stroke17 {fill: #808064;}
        .stroke18 {fill: #808063;}
        .stroke19 {fill: #808062;}
        .stroke20 {fill: #808061;}
        text {
            font-family: Helvetica;
            font-size: 50px;
            fill: #808060;
            paint-order: stroke;
            stroke: #000000;
            stroke-width: 4px;
            stroke-linecap: butt;
            stroke-linejoin: miter;
            font-weight: 800;
        }
    </style>

    <path d="M 630 672 Q 726 681 823 675 Q 838 674 843 682 Q 847 692 835 707 Q 787 746 719 728 Q 683 724 647 715 L 589 706 Q 513 696 427 684 L 378 678 Q 291 671 198 660 Q 170 657 190 643 Q 229 616 282 626 Q 334 639 384 647 L 429 655 Q 429 656 430 656 Q 500 665 580 669 L 630 672 Z" class="stroke1"/>
    <path d="M 427 684 Q 426 723 426 753 Q 427 772 408 780 Q 368 802 345 795 Q 326 788 340 766 Q 370 727 378 678 L 384 647 Q 391 586 408 568 Q 421 556 426 569 Q 433 588 431 612 Q 430 634 429 655 L 427 684 Z" class="stroke2"/>
    <path d="M 647 715 Q 653 736 678 778 Q 693 794 682 805 Q 669 821 634 840 Q 616 850 598 840 Q 588 834 596 822 Q 608 794 589 706 L 580 669 Q 559 609 562 584 Q 563 569 580 581 Q 595 593 630 672 L 647 715 Z" class="stroke3"/>
    <path d="M 270 508 Q 269 509 268 510 Q 238 531 221 525 Q 214 521 219 507 Q 237 444 238 421 Q 238 184 215 96 Q 200 36 237 -10 Q 247 -25 259 -11 Q 269 2 272 21 L 277 60 Q 278 82 279 110 Q 289 459 293 465 C 296 490 295 491 270 508 Z" class="stroke4"/>
    <path d="M 698 42 Q 725 8 741 -25 Q 751 -47 765 -46 Q 778 -45 785 -25 Q 810 17 797 160 Q 779 458 803 487 Q 815 502 815 512 Q 814 524 782 545 Q 730 579 717 577 Q 707 577 700 573 Q 684 566 632 557 Q 493 541 325 512 Q 297 508 270 508 C 240 507 264 456 293 465 Q 342 486 570 513 Q 631 520 686 525 Q 710 526 715 515 Q 730 500 734 281 Q 735 151 737 120 Q 740 86 732 72 Q 728 60 723 60 Q 720 60 719 60 C 702 36 694 48 698 42 Z" class="stroke5"/>
    <path d="M 499 422 Q 571 444 602 446 Q 615 446 619 451 Q 623 458 614 469 Q 572 508 546 507 Q 540 504 539 496 Q 533 463 354 405 Q 350 399 353 396 Q 362 393 444 410 Q 459 413 473 415 L 499 422 Z" class="stroke6"/>
    <path d="M 522 319 Q 573 328 669 327 Q 684 328 687 335 Q 691 344 678 353 Q 635 383 580 366 Q 555 362 523 354 L 480 345 Q 411 335 333 321 Q 317 320 329 306 Q 339 296 354 293 Q 370 289 381 293 Q 415 303 456 310 L 522 319 Z" class="stroke7"/>
    <path d="M 477 264 Q 471 189 468 180 Q 459 152 488 109 Q 497 93 503 90 Q 512 89 516 100 Q 522 116 523 196 Q 523 217 522 319 L 523 354 Q 524 402 523 404 Q 510 416 499 422 C 474 438 465 443 473 415 Q 479 402 480 345 L 477 264 Z" class="stroke8"/>
    <path d="M 456 310 Q 417 235 318 148 Q 308 138 316 137 Q 323 133 333 138 Q 396 159 472 258 Q 473 261 477 264 C 521 317 471 338 456 310 Z" class="stroke9"/>
    <path d="M 548 255 Q 596 225 654 179 Q 667 167 678 166 Q 684 166 688 174 Q 695 184 682 213 Q 661 253 545 277 Q 538 278 538 271 Q 539 261 548 255 Z" class="stroke10"/>
    <path d="M 272 21 Q 276 21 284 21 Q 416 40 698 42 C 728 42 734 42 719 60 Q 713 70 691 88 Q 673 100 638 95 Q 439 67 277 60 C 247 59 242 20 272 21 Z" class="stroke11"/>
    
    
    
    
    
    
    
    
    
    
    </g>
</svg>