<svg version="1.1" viewBox="0 0 1024 1024" xmlns="http://www.w3.org/2000/svg">
  
  <g transform="scale(1, -1) translate(0, -900)">
    <style type="text/css">
        .stroke1 {fill: #808080;}
        .stroke2 {fill: #808079;}
        .stroke3 {fill: #808078;}
        .stroke4 {fill: #808077;}
        .stroke5 {fill: #808076;}
        .stroke6 {fill: #808075;}
        .stroke7 {fill: #808074;}
        .stroke8 {fill: #808073;}
        .stroke9 {fill: #808072;}
        .stroke10 {fill: #808071;}
        .stroke11 {fill: #808070;}
        .stroke12 {fill: #808069;}
        .stroke13 {fill: #808068;}
        .stroke14 {fill: #808067;}
        .stroke15 {fill: #808066;}
        .stroke16 {fill: #808065;}
        .stroke17 {fill: #808064;}
        .stroke18 {fill: #808063;}
        .stroke19 {fill: #808062;}
        .stroke20 {fill: #808061;}
        text {
            font-family: Helvetica;
            font-size: 50px;
            fill: #808060;
            paint-order: stroke;
            stroke: #000000;
            stroke-width: 4px;
            stroke-linecap: butt;
            stroke-linejoin: miter;
            font-weight: 800;
        }
    </style>

    <path d="M 613 689 Q 725 696 816 688 Q 832 685 838 695 Q 842 707 830 722 Q 782 767 694 746 Q 664 743 634 737 L 582 730 Q 503 721 416 712 L 370 707 Q 291 701 204 694 Q 174 691 195 675 Q 232 650 317 659 Q 347 666 379 671 L 418 676 Q 445 685 572 688 L 613 689 Z" class="stroke1"/>
    <path d="M 416 712 Q 413 745 413 770 Q 414 789 395 794 Q 353 812 336 806 Q 320 797 333 779 Q 352 757 370 707 L 379 671 Q 385 638 400 623 Q 413 613 417 624 Q 417 627 418 676 L 416 712 Z" class="stroke2"/>
    <path d="M 634 737 Q 637 749 659 784 Q 672 797 663 807 Q 653 823 620 840 Q 605 849 589 841 Q 579 835 586 825 Q 596 801 582 730 L 572 688 Q 560 661 563 639 Q 564 626 579 636 Q 582 639 613 689 L 634 737 Z" class="stroke3"/>
    <path d="M 477 621 Q 498 606 521 587 Q 533 578 546 580 Q 553 581 557 592 Q 560 605 550 628 Q 544 643 520 651 Q 468 664 452 659 Q 448 655 450 645 Q 454 636 477 621 Z" class="stroke4"/>
    <path d="M 280 530 Q 262 566 259 569 Q 243 584 239 559 Q 239 526 198 480 Q 153 444 179 383 Q 192 356 213 382 Q 231 404 245 440 Q 261 479 274 503 C 284 522 284 522 280 530 Z" class="stroke5"/>
    <path d="M 274 503 Q 299 485 327 492 Q 471 534 667 551 Q 704 555 719 553 Q 735 546 734 538 Q 735 535 730 525 Q 703 471 709 464 Q 716 460 732 470 Q 783 495 822 502 Q 855 508 855 515 Q 854 525 787 580 Q 765 599 678 584 Q 615 578 378 542 Q 329 535 280 530 C 250 527 248 517 274 503 Z" class="stroke6"/>
    <path d="M 290 297 Q 368 393 382 402 Q 391 409 388 422 Q 385 434 363 457 Q 341 475 325 477 Q 309 477 314 457 Q 321 432 311 413 Q 277 349 229 291 Q 183 236 121 174 Q 111 167 108 161 Q 104 152 117 153 Q 147 153 266 271 L 290 297 Z" class="stroke7"/>
    <path d="M 266 271 Q 266 270 268 267 Q 292 207 263 76 Q 247 46 275 -4 Q 278 -13 284 -18 Q 300 -31 310 -8 Q 323 26 322 67 Q 323 197 329 225 Q 336 249 327 258 Q 311 276 300 288 Q 296 294 290 297 C 266 316 254 299 266 271 Z" class="stroke8"/>
    <path d="M 563 398 Q 563 399 564 399 Q 630 408 735 408 Q 751 408 755 416 Q 759 426 746 436 Q 698 470 646 453 Q 516 428 414 411 Q 396 408 410 395 Q 437 371 467 380 Q 495 389 528 393 L 563 398 Z" class="stroke9"/>
    <path d="M 526 302 Q 551 332 576 352 Q 589 359 584 369 Q 580 382 563 398 C 541 419 530 423 528 393 Q 528 369 494 307 Q 490 303 488 296 C 478 268 507 279 526 302 Z" class="stroke10"/>
    <path d="M 449 293 Q 442 297 432 300 Q 425 301 419 295 Q 416 291 423 281 Q 451 188 427 80 Q 418 71 423 40 L 424 38 Q 433 10 443 -1 Q 453 -13 460 -1 Q 470 11 474 33 L 479 66 Q 480 78 481 89 Q 481 123 482 159 L 482 180 Q 483 240 486 256 Q 486 260 485 264 C 484 276 476 280 449 293 Z" class="stroke11"/>
    <path d="M 639 44 Q 670 4 693 -32 Q 702 -50 713 -49 Q 728 -48 743 -16 Q 759 21 756 65 Q 750 120 742 226 Q 741 254 757 276 Q 766 288 757 297 Q 741 316 691 339 Q 673 348 659 339 Q 619 321 554 308 Q 539 307 526 302 L 488 296 Q 464 295 453 294 Q 450 295 449 293 C 419 290 455 261 485 264 Q 521 267 644 291 Q 666 295 677 286 Q 687 276 689 77 Q 688 73 688 67 Q 685 58 678 55 C 662 30 622 67 639 44 Z" class="stroke12"/>
    <path d="M 482 159 Q 510 147 590 158 Q 647 167 654 169 Q 661 176 658 182 Q 652 192 629 199 Q 611 203 541 187 Q 514 183 484 181 Q 483 181 482 180 C 453 173 454 169 482 159 Z" class="stroke13"/>
    <path d="M 474 33 Q 478 33 483 33 Q 535 42 639 44 C 669 45 682 45 678 55 Q 677 64 652 81 Q 637 90 609 85 Q 537 72 479 66 C 449 63 444 33 474 33 Z" class="stroke14"/>
    
    
    
    
    
    
    
    
    
    
    
    
    
    </g>
</svg>