<svg version="1.1" viewBox="0 0 1024 1024" xmlns="http://www.w3.org/2000/svg">
  
  <g transform="scale(1, -1) translate(0, -900)">
    <style type="text/css">
        .stroke1 {fill: #808080;}
        .stroke2 {fill: #808079;}
        .stroke3 {fill: #808078;}
        .stroke4 {fill: #808077;}
        .stroke5 {fill: #808076;}
        .stroke6 {fill: #808075;}
        .stroke7 {fill: #808074;}
        .stroke8 {fill: #808073;}
        .stroke9 {fill: #808072;}
        .stroke10 {fill: #808071;}
        .stroke11 {fill: #808070;}
        .stroke12 {fill: #808069;}
        .stroke13 {fill: #808068;}
        .stroke14 {fill: #808067;}
        .stroke15 {fill: #808066;}
        .stroke16 {fill: #808065;}
        .stroke17 {fill: #808064;}
        .stroke18 {fill: #808063;}
        .stroke19 {fill: #808062;}
        .stroke20 {fill: #808061;}
        text {
            font-family: Helvetica;
            font-size: 50px;
            fill: #808060;
            paint-order: stroke;
            stroke: #000000;
            stroke-width: 4px;
            stroke-linecap: butt;
            stroke-linejoin: miter;
            font-weight: 800;
        }
    </style>

    <path d="M 620 713 Q 662 723 787 715 Q 802 714 807 722 Q 811 732 799 746 Q 756 786 645 760 Q 642 760 640 759 L 585 750 Q 506 740 420 726 L 374 720 Q 284 711 186 700 Q 158 697 178 683 Q 212 659 285 670 Q 331 683 381 690 L 422 695 Q 492 707 575 710 L 620 713 Z" class="stroke1"/>
    <path d="M 420 726 Q 417 759 417 785 Q 418 804 399 810 Q 357 828 340 822 Q 324 815 337 795 Q 355 774 374 720 L 381 690 Q 384 653 404 631 Q 417 621 421 632 Q 427 650 422 695 L 420 726 Z" class="stroke2"/>
    <path d="M 640 759 Q 647 778 663 800 Q 676 813 667 823 Q 657 839 624 856 Q 609 865 593 857 Q 583 853 590 841 Q 599 817 585 750 L 575 710 Q 557 661 559 639 Q 560 626 575 636 Q 588 648 620 713 L 640 759 Z" class="stroke3"/>
    <path d="M 201 424 Q 234 451 261 476 L 275 489 Q 299 516 326 545 L 340 561 Q 347 571 355 575 Q 362 581 361 592 Q 360 602 340 621 Q 324 637 309 638 Q 296 639 299 622 Q 308 591 238 502 Q 204 462 160 418 Q 151 411 149 407 Q 145 400 156 400 Q 163 400 183 413 L 201 424 Z" class="stroke4"/>
    <path d="M 326 545 Q 335 536 362 539 Q 396 545 398 540 Q 402 524 374 470 Q 350 412 278 335 Q 206 253 93 178 Q 71 166 89 166 Q 203 166 365 373 Q 396 416 426 464 Q 454 513 473 528 Q 485 535 480 546 Q 476 556 431 580 Q 421 584 401 577 Q 382 570 340 561 C 311 554 304 553 326 545 Z" class="stroke5"/>
    <path d="M 261 476 Q 279 455 299 439 Q 312 429 323 429 Q 332 429 336 442 Q 336 451 328 464 Q 319 477 275 489 C 246 497 242 498 261 476 Z" class="stroke6"/>
    <path d="M 183 413 Q 186 406 200 395 Q 219 377 241 356 Q 250 349 260 348 Q 266 348 270 357 Q 273 366 268 385 Q 259 412 201 424 C 173 430 173 430 183 413 Z" class="stroke7"/>
    <path d="M 636 462 Q 739 543 786 562 Q 796 565 797 574 Q 798 586 775 599 Q 757 609 740 622 Q 718 635 705 630 Q 650 608 557 593 Q 539 593 551 577 Q 567 558 589 564 Q 673 597 689 589 Q 699 579 694 571 Q 694 565 625 473 C 607 449 612 444 636 462 Z" class="stroke8"/>
    <path d="M 625 473 Q 601 501 576 531 Q 558 553 527 559 Q 517 562 507 555 Q 503 549 511 542 Q 562 500 633 401 Q 664 356 773 248 Q 800 233 897 247 Q 951 256 957 258 Q 964 265 953 273 Q 940 282 823 324 Q 742 354 636 462 L 625 473 Z" class="stroke9"/>
    <path d="M 390 366 Q 353 360 379 342 Q 425 318 479 331 Q 527 338 576 347 Q 598 351 603 355 Q 612 362 607 372 Q 600 384 570 392 Q 539 398 508 386 Q 448 370 390 366 Z" class="stroke10"/>
    <path d="M 504 240 Q 568 247 666 247 Q 711 244 719 254 Q 723 264 709 276 Q 661 310 608 297 Q 500 276 290 247 Q 272 246 286 231 Q 298 219 313 214 Q 332 210 345 214 Q 400 229 461 235 L 504 240 Z" class="stroke11"/>
    <path d="M 461 235 Q 470 211 470 59 Q 469 52 467 47 Q 463 34 440 39 Q 421 43 400 46 Q 388 47 387 40 Q 386 34 395 25 Q 449 -27 466 -57 Q 478 -70 488 -69 Q 500 -65 513 -32 Q 531 2 530 66 Q 527 138 529 164 Q 538 206 519 227 Q 512 234 504 240 C 481 259 454 264 461 235 Z" class="stroke12"/>
    <path d="M 315 161 Q 282 118 242 80 Q 215 53 224 18 Q 227 0 250 7 Q 307 32 326 101 Q 339 131 337 156 Q 336 165 329 167 Q 322 168 315 161 Z" class="stroke13"/>
    <path d="M 629 141 Q 681 93 742 23 Q 758 2 773 -2 Q 782 -3 789 7 Q 802 20 789 63 Q 780 114 630 172 Q 621 176 619 165 Q 618 152 629 141 Z" class="stroke14"/>
    
    
    
    
    
    
    
    
    
    
    
    
    
    </g>
</svg>