<svg version="1.1" viewBox="0 0 1024 1024" xmlns="http://www.w3.org/2000/svg">
  
  <g transform="scale(1, -1) translate(0, -900)">
    <style type="text/css">
        .stroke1 {fill: #808080;}
        .stroke2 {fill: #808079;}
        .stroke3 {fill: #808078;}
        .stroke4 {fill: #808077;}
        .stroke5 {fill: #808076;}
        .stroke6 {fill: #808075;}
        .stroke7 {fill: #808074;}
        .stroke8 {fill: #808073;}
        .stroke9 {fill: #808072;}
        .stroke10 {fill: #808071;}
        .stroke11 {fill: #808070;}
        .stroke12 {fill: #808069;}
        .stroke13 {fill: #808068;}
        .stroke14 {fill: #808067;}
        .stroke15 {fill: #808066;}
        .stroke16 {fill: #808065;}
        .stroke17 {fill: #808064;}
        .stroke18 {fill: #808063;}
        .stroke19 {fill: #808062;}
        .stroke20 {fill: #808061;}
        text {
            font-family: Helvetica;
            font-size: 50px;
            fill: #808060;
            paint-order: stroke;
            stroke: #000000;
            stroke-width: 4px;
            stroke-linecap: butt;
            stroke-linejoin: miter;
            font-weight: 800;
        }
    </style>

    <path d="M 410 750 Q 409 771 408 787 Q 409 806 391 811 Q 352 829 334 822 Q 318 815 331 796 Q 353 771 362 742 L 372 707 Q 390 653 396 647 Q 409 637 412 648 Q 418 663 412 718 L 410 750 Z" class="stroke1"/>
    <path d="M 412 718 Q 428 724 448 728 Q 463 731 480 740 Q 486 744 484 751 Q 483 757 470 760 Q 442 756 410 750 L 362 742 Q 308 735 242 724 Q 202 725 181 723 Q 171 724 168 720 Q 167 713 173 703 Q 186 688 213 677 Q 231 668 247 674 Q 307 690 372 707 L 412 718 Z" class="stroke2"/>
    <path d="M 650 767 Q 650 768 651 768 Q 658 786 674 808 Q 687 821 678 831 Q 668 847 636 865 Q 621 874 605 867 Q 595 861 602 851 Q 611 829 595 760 L 586 728 Q 568 677 570 661 Q 571 649 585 656 Q 595 665 629 724 L 650 767 Z" class="stroke3"/>
    <path d="M 629 724 Q 725 743 821 731 Q 834 730 839 737 Q 843 747 832 759 Q 786 798 706 776 Q 679 773 650 767 L 595 760 Q 582 760 569 758 Q 544 757 561 742 Q 574 735 586 728 C 602 719 602 719 629 724 Z" class="stroke4"/>
    <path d="M 310 418 Q 412 502 517 622 Q 524 631 530 636 C 545 652 545 652 545 652 Q 546 655 546 657 Q 546 667 536 680 Q 508 716 478 712 Q 469 712 470 700 Q 470 607 286 450 Q 282 449 279 445 Q 225 403 99 327 Q 90 323 100 319 Q 158 319 285 400 L 310 418 Z" class="stroke5"/>
    <path d="M 530 636 Q 761 417 814 409 Q 892 409 971 431 Q 989 435 990 439 Q 991 446 977 450 Q 770 513 766 515 Q 700 545 548 650 Q 545 651 545 652 C 520 669 508 657 530 636 Z" class="stroke6"/>
    <path d="M 427 508 Q 396 502 418 488 Q 445 473 517 484 Q 547 490 579 497 Q 597 501 600 504 Q 607 511 603 518 Q 596 528 571 534 Q 546 538 520 527 Q 478 512 427 508 Z" class="stroke7"/>
    <path d="M 339 410 Q 330 414 310 418 C 281 424 268 425 285 400 Q 286 400 287 398 Q 309 352 325 276 Q 328 254 341 238 Q 357 219 362 233 Q 365 240 365 251 L 363 279 Q 351 351 348 380 C 345 408 345 408 339 410 Z" class="stroke8"/>
    <path d="M 631 276 Q 644 257 657 250 Q 666 243 680 261 Q 689 274 712 348 Q 719 375 741 396 Q 753 406 743 420 Q 730 435 692 458 Q 679 465 610 451 Q 592 451 444 426 Q 386 416 339 410 C 309 406 320 370 348 380 Q 367 390 476 406 L 507 410 Q 634 434 658 417 Q 667 411 664 399 Q 651 318 640 307 C 627 281 627 281 631 276 Z" class="stroke9"/>
    <path d="M 519 300 Q 523 360 528 371 Q 535 389 507 410 C 483 428 465 434 476 406 Q 476 405 478 401 Q 481 392 483 294 C 484 264 517 270 519 300 Z" class="stroke10"/>
    <path d="M 388 351 Q 421 302 438 299 Q 448 298 453 310 Q 454 320 450 335 Q 443 347 428 354 Q 404 367 393 370 Q 386 371 385 364 Q 384 358 388 351 Z" class="stroke11"/>
    <path d="M 578 375 Q 569 356 550 324 Q 547 320 551 316 Q 555 315 560 318 Q 603 354 625 367 Q 635 371 632 378 Q 628 387 614 397 Q 601 407 587 407 Q 578 406 580 394 Q 583 385 578 375 Z" class="stroke12"/>
    <path d="M 365 251 Q 371 250 380 251 Q 461 267 631 276 C 661 278 664 289 640 307 Q 637 310 634 312 Q 618 321 519 300 L 483 294 Q 417 285 363 279 C 333 276 335 252 365 251 Z" class="stroke13"/>
    <path d="M 386 200 Q 380 206 362 214 Q 355 218 345 214 Q 339 210 344 200 Q 368 116 350 39 Q 340 -3 368 -40 Q 377 -50 385 -40 Q 394 -28 394 -13 L 396 17 Q 396 18 397 82 L 398 104 Q 399 159 400 164 Q 400 171 400 175 C 400 189 400 189 386 200 Z" class="stroke14"/>
    <path d="M 591 -1 Q 612 -28 628 -54 Q 635 -69 645 -68 Q 658 -67 672 -39 Q 687 -6 684 33 Q 678 73 671 150 Q 670 175 684 195 Q 691 205 684 214 Q 668 230 625 250 Q 609 257 597 250 Q 513 214 386 200 C 356 196 370 171 400 175 Q 416 175 576 208 Q 601 212 613 204 Q 625 192 625 77 Q 626 46 623 35 Q 619 22 607 24 C 581 12 581 12 591 -1 Z" class="stroke15"/>
    <path d="M 397 82 Q 404 81 416 82 Q 503 92 567 99 Q 588 102 581 113 Q 571 126 549 132 Q 531 135 398 104 C 369 97 367 84 397 82 Z" class="stroke16"/>
    <path d="M 394 -13 Q 403 -16 415 -14 Q 472 -4 591 -1 C 621 0 629 4 607 24 Q 601 30 592 36 Q 577 46 549 40 Q 464 24 396 17 C 366 14 365 -7 394 -13 Z" class="stroke17"/>
    
    
    
    
    
    
    
    
    
    
    
    
    
    
    
    
    </g>
</svg>