<svg version="1.1" viewBox="0 0 1024 1024" xmlns="http://www.w3.org/2000/svg">
  
  <g transform="scale(1, -1) translate(0, -900)">
    <style type="text/css">
        .stroke1 {fill: #808080;}
        .stroke2 {fill: #808079;}
        .stroke3 {fill: #808078;}
        .stroke4 {fill: #808077;}
        .stroke5 {fill: #808076;}
        .stroke6 {fill: #808075;}
        .stroke7 {fill: #808074;}
        .stroke8 {fill: #808073;}
        .stroke9 {fill: #808072;}
        .stroke10 {fill: #808071;}
        .stroke11 {fill: #808070;}
        .stroke12 {fill: #808069;}
        .stroke13 {fill: #808068;}
        .stroke14 {fill: #808067;}
        .stroke15 {fill: #808066;}
        .stroke16 {fill: #808065;}
        .stroke17 {fill: #808064;}
        .stroke18 {fill: #808063;}
        .stroke19 {fill: #808062;}
        .stroke20 {fill: #808061;}
        text {
            font-family: Helvetica;
            font-size: 50px;
            fill: #808060;
            paint-order: stroke;
            stroke: #000000;
            stroke-width: 4px;
            stroke-linecap: butt;
            stroke-linejoin: miter;
            font-weight: 800;
        }
    </style>

    <path d="M 416 729 Q 409 766 404 795 Q 404 814 385 817 Q 342 829 327 821 Q 311 811 327 795 Q 363 762 373 723 L 384 692 Q 397 656 411 646 Q 424 637 427 649 Q 430 667 422 702 L 416 729 Z" class="stroke1"/>
    <path d="M 422 702 Q 437 706 455 711 Q 468 712 484 720 Q 490 724 488 731 Q 487 735 475 739 Q 448 736 416 729 L 373 723 Q 316 716 246 704 Q 206 705 184 703 Q 174 704 173 700 Q 170 693 177 685 Q 189 672 213 662 Q 229 653 243 658 Q 312 674 384 692 L 422 702 Z" class="stroke2"/>
    <path d="M 640 756 Q 643 771 668 812 Q 681 825 671 836 Q 661 852 628 868 Q 613 877 597 868 Q 587 862 594 852 Q 604 831 588 748 L 581 717 Q 565 663 566 649 Q 567 637 580 644 Q 593 656 621 714 L 640 756 Z" class="stroke3"/>
    <path d="M 621 714 Q 708 735 826 728 Q 839 727 843 735 Q 847 744 836 756 Q 797 789 721 770 Q 684 764 640 756 L 588 748 Q 575 747 563 745 Q 539 742 556 730 Q 569 723 581 717 C 598 709 598 709 621 714 Z" class="stroke4"/>
    <path d="M 375 599 Q 347 596 367 583 Q 397 562 439 572 Q 518 585 599 599 Q 636 606 642 611 Q 649 617 646 623 Q 642 632 619 638 Q 597 644 574 636 Q 531 623 485 613 Q 434 603 375 599 Z" class="stroke5"/>
    <path d="M 330 521 Q 320 525 292 527 Q 279 528 277 524 Q 271 517 281 502 Q 309 457 331 383 Q 335 361 351 346 Q 370 327 374 342 L 376 356 L 374 382 Q 367 403 350 493 C 346 516 346 516 330 521 Z" class="stroke6"/>
    <path d="M 612 379 Q 625 354 640 346 Q 650 339 665 357 Q 675 370 705 454 Q 715 482 737 503 Q 750 513 740 527 Q 727 543 689 569 Q 674 578 606 563 Q 594 563 330 521 C 300 516 321 486 350 493 Q 399 506 469 518 L 500 522 Q 624 550 652 530 Q 662 523 658 510 Q 639 428 632 415 Q 628 405 615 402 C 603 394 603 394 612 379 Z" class="stroke7"/>
    <path d="M 519 444 Q 555 450 589 454 Q 607 455 600 466 Q 593 478 573 482 Q 555 485 523 477 Q 520 477 520 476 L 479 466 Q 437 457 402 449 Q 389 448 404 435 Q 410 431 481 438 L 519 444 Z" class="stroke8"/>
    <path d="M 516 402 Q 517 424 519 444 C 522 474 516 460 520 476 Q 520 477 521 477 Q 521 505 520 507 Q 510 517 500 522 C 474 537 452 543 469 518 Q 470 515 474 512 Q 477 500 479 466 L 481 438 Q 481 422 483 396 C 485 366 515 372 516 402 Z" class="stroke9"/>
    <path d="M 376 356 Q 380 355 389 356 Q 459 371 612 379 C 640 380 638 382 615 402 Q 611 406 604 411 Q 588 420 516 402 L 483 396 Q 425 389 374 382 C 344 378 346 358 376 356 Z" class="stroke10"/>
    <path d="M 88 297 Q 75 297 74 287 Q 73 277 90 262 Q 129 232 159 241 Q 292 284 651 302 Q 768 308 919 286 Q 941 282 946 290 Q 953 302 943 313 Q 918 340 878 359 Q 865 365 841 359 Q 795 346 732 341 Q 446 322 271 305 Q 165 293 88 297 Z" class="stroke11"/>
    <path d="M 304 236 Q 294 239 282 240 Q 272 243 268 238 Q 264 232 271 218 Q 298 166 314 78 Q 318 51 333 34 Q 349 15 354 29 L 356 43 L 355 70 Q 339 154 333 204 C 330 229 330 229 304 236 Z" class="stroke12"/>
    <path d="M 611 64 Q 626 42 641 34 Q 651 27 665 46 Q 675 62 702 159 Q 711 187 732 210 Q 745 220 735 234 Q 722 250 682 275 Q 667 282 591 268 Q 576 268 425 248 Q 316 233 304 236 C 274 236 304 197 333 204 Q 385 217 463 227 L 498 231 Q 622 252 644 232 Q 654 225 652 210 Q 633 99 615 89 C 604 73 604 73 611 64 Z" class="stroke13"/>
    <path d="M 511 141 Q 550 148 584 150 Q 603 151 596 162 Q 589 174 569 179 Q 551 182 519 175 Q 515 174 512 173 L 472 165 Q 426 158 386 149 Q 373 148 388 134 Q 394 130 474 137 L 511 141 Z" class="stroke14"/>
    <path d="M 508 87 Q 509 117 511 141 L 512 173 Q 512 192 514 199 Q 518 214 498 231 C 476 251 450 254 463 227 Q 469 221 472 165 L 474 137 Q 474 115 476 83 C 478 53 507 57 508 87 Z" class="stroke15"/>
    <path d="M 356 43 Q 360 42 369 43 Q 445 58 611 64 C 636 65 635 67 615 89 Q 614 93 608 96 Q 593 105 508 87 L 476 83 Q 410 76 355 70 C 325 67 326 44 356 43 Z" class="stroke16"/>
    <path d="M 170 -19 Q 148 -20 163 -38 Q 176 -51 194 -59 Q 215 -66 231 -62 Q 447 -16 823 -39 Q 842 -40 849 -32 Q 855 -20 839 -6 Q 785 39 724 26 Q 514 2 170 -19 Z" class="stroke17"/>
    
    
    
    
    
    
    
    
    
    
    
    
    
    
    
    
    </g>
</svg>