<svg version="1.1" viewBox="0 0 1024 1024" xmlns="http://www.w3.org/2000/svg">
  
  <g transform="scale(1, -1) translate(0, -900)">
    <style type="text/css">
        .stroke1 {fill: #808080;}
        .stroke2 {fill: #808079;}
        .stroke3 {fill: #808078;}
        .stroke4 {fill: #808077;}
        .stroke5 {fill: #808076;}
        .stroke6 {fill: #808075;}
        .stroke7 {fill: #808074;}
        .stroke8 {fill: #808073;}
        .stroke9 {fill: #808072;}
        .stroke10 {fill: #808071;}
        .stroke11 {fill: #808070;}
        .stroke12 {fill: #808069;}
        .stroke13 {fill: #808068;}
        .stroke14 {fill: #808067;}
        .stroke15 {fill: #808066;}
        .stroke16 {fill: #808065;}
        .stroke17 {fill: #808064;}
        .stroke18 {fill: #808063;}
        .stroke19 {fill: #808062;}
        .stroke20 {fill: #808061;}
        text {
            font-family: Helvetica;
            font-size: 50px;
            fill: #808060;
            paint-order: stroke;
            stroke: #000000;
            stroke-width: 4px;
            stroke-linecap: butt;
            stroke-linejoin: miter;
            font-weight: 800;
        }
    </style>

    <path d="M 552 574 Q 556 628 562 678 L 564 704 Q 565 711 566 719 Q 569 737 572 748 Q 575 758 577 766 Q 580 776 561 790 Q 527 806 505 811 Q 489 814 482 806 Q 475 799 483 784 Q 498 766 499 753 Q 509 668 512 567 C 513 537 550 544 552 574 Z" class="stroke1"/>
    <path d="M 562 678 Q 601 666 661 677 Q 697 686 736 693 Q 757 697 760 701 Q 767 708 763 717 Q 756 727 728 734 Q 710 737 626 714 Q 596 708 564 704 C 534 700 533 686 562 678 Z" class="stroke2"/>
    <path d="M 328 488 Q 469 539 684 565 Q 730 572 747 570 Q 766 564 763 553 Q 763 552 733 478 Q 724 463 731 460 Q 740 457 755 469 Q 807 508 851 522 Q 888 532 886 543 Q 883 553 814 602 Q 790 623 691 600 Q 607 588 552 574 L 512 567 Q 437 557 332 533 C 303 526 300 478 328 488 Z" class="stroke3"/>
    <path d="M 332 533 Q 316 549 283 563 Q 264 573 250 568 Q 238 561 246 546 Q 264 519 264 456 Q 263 450 263 440 Q 263 296 227 174 Q 196 80 130 -33 Q 126 -40 123 -46 Q 122 -56 132 -54 Q 165 -48 233 69 Q 243 90 255 114 Q 313 258 326 472 Q 326 481 328 488 C 331 518 333 532 332 533 Z" class="stroke4"/>
    <path d="M 540 309 Q 604 325 749 350 Q 761 349 770 363 Q 771 376 745 386 Q 709 410 641 383 Q 554 361 545 356 L 493 343 Q 415 330 335 315 Q 304 311 329 292 Q 369 265 397 275 Q 440 287 491 298 L 540 309 Z" class="stroke5"/>
    <path d="M 491 298 Q 487 124 505 69 Q 511 44 535 22 Q 619 -41 794 -12 Q 810 -8 828 -3 Q 871 10 914 42 Q 935 58 920 85 Q 907 109 885 185 Q 884 201 877 206 Q 870 209 866 191 Q 839 109 822 82 Q 809 66 769 53 Q 676 29 596 58 Q 565 71 556 91 Q 529 143 540 309 L 545 356 Q 548 384 553 415 Q 557 434 544 444 Q 531 457 505 467 Q 492 471 482 466 Q 475 462 481 442 Q 491 409 493 343 L 491 298 Z" class="stroke6"/>
    
    
    
    
    
    </g>
</svg>