<svg version="1.1" viewBox="0 0 1024 1024" xmlns="http://www.w3.org/2000/svg">
  
  <g transform="scale(1, -1) translate(0, -900)">
    <style type="text/css">
        .stroke1 {fill: #808080;}
        .stroke2 {fill: #808079;}
        .stroke3 {fill: #808078;}
        .stroke4 {fill: #808077;}
        .stroke5 {fill: #808076;}
        .stroke6 {fill: #808075;}
        .stroke7 {fill: #808074;}
        .stroke8 {fill: #808073;}
        .stroke9 {fill: #808072;}
        .stroke10 {fill: #808071;}
        .stroke11 {fill: #808070;}
        .stroke12 {fill: #808069;}
        .stroke13 {fill: #808068;}
        .stroke14 {fill: #808067;}
        .stroke15 {fill: #808066;}
        .stroke16 {fill: #808065;}
        .stroke17 {fill: #808064;}
        .stroke18 {fill: #808063;}
        .stroke19 {fill: #808062;}
        .stroke20 {fill: #808061;}
        text {
            font-family: Helvetica;
            font-size: 50px;
            fill: #808060;
            paint-order: stroke;
            stroke: #000000;
            stroke-width: 4px;
            stroke-linecap: butt;
            stroke-linejoin: miter;
            font-weight: 800;
        }
    </style>

    <path d="M 155 505 Q 142 509 124 513 Q 112 516 109 511 Q 102 504 111 489 Q 136 435 153 347 Q 157 322 172 304 Q 190 282 195 297 Q 198 307 199 320 L 196 350 Q 196 351 196 354 Q 181 448 179 475 C 177 499 177 499 155 505 Z" class="stroke1"/>
    <path d="M 440 386 Q 467 467 501 494 Q 517 513 503 529 Q 431 587 375 556 Q 350 549 328 540 L 277 527 Q 219 514 155 505 C 125 501 150 466 179 475 Q 191 481 277 496 L 327 507 Q 352 513 378 518 Q 400 524 410 514 Q 419 505 417 486 Q 407 437 394 396 C 385 367 430 358 440 386 Z" class="stroke2"/>
    <path d="M 321 342 Q 372 351 445 359 Q 455 360 456 369 Q 456 375 440 386 L 394 396 Q 388 396 384 394 Q 350 385 322 377 L 276 366 Q 233 357 196 350 C 167 344 169 320 199 320 Q 208 319 220 322 Q 242 329 275 334 L 321 342 Z" class="stroke3"/>
    <path d="M 315 211 Q 318 278 321 342 L 322 377 Q 323 444 327 507 L 328 540 Q 331 636 351 721 Q 355 734 333 750 Q 293 771 267 775 Q 249 779 240 769 Q 231 760 241 744 Q 272 696 273 665 Q 276 598 277 527 L 277 496 Q 277 433 276 366 L 275 334 Q 274 268 269 197 C 267 167 314 181 315 211 Z" class="stroke4"/>
    <path d="M 410 240 Q 364 227 315 211 L 269 197 Q 211 184 149 165 Q 130 159 99 161 Q 86 160 83 149 Q 82 136 90 126 Q 114 110 148 90 Q 158 86 171 95 Q 207 122 382 199 Q 404 209 420 220 C 445 236 439 248 410 240 Z" class="stroke5"/>
    <path d="M 420 220 Q 457 148 468 144 Q 477 140 485 149 Q 494 159 497 186 Q 500 226 414 294 Q 402 303 397 302 Q 391 301 388 290 Q 388 278 410 240 L 420 220 Z" class="stroke6"/>
    <path d="M 964 99 Q 985 117 963 153 Q 939 217 932 300 Q 931 310 923 320 Q 911 326 909 301 Q 902 270 892 218 Q 885 169 872 149 Q 866 134 839 129 Q 796 116 738 121 Q 695 121 668 133 Q 632 148 614 195 Q 593 255 606 482 Q 615 701 641 734 Q 654 773 585 800 Q 573 806 560 808 Q 539 812 531 803 Q 522 793 530 783 Q 551 765 555 707 Q 555 662 553 571 Q 544 282 565 183 Q 574 129 622 96 Q 698 42 872 61 Q 885 64 898 66 Q 944 79 964 99 Z" class="stroke7"/>
    
    
    
    
    
    
    </g>
</svg>