<svg version="1.1" viewBox="0 0 1024 1024" xmlns="http://www.w3.org/2000/svg">
  
  <g transform="scale(1, -1) translate(0, -900)">
    <style type="text/css">
        .stroke1 {fill: #808080;}
        .stroke2 {fill: #808079;}
        .stroke3 {fill: #808078;}
        .stroke4 {fill: #808077;}
        .stroke5 {fill: #808076;}
        .stroke6 {fill: #808075;}
        .stroke7 {fill: #808074;}
        .stroke8 {fill: #808073;}
        .stroke9 {fill: #808072;}
        .stroke10 {fill: #808071;}
        .stroke11 {fill: #808070;}
        .stroke12 {fill: #808069;}
        .stroke13 {fill: #808068;}
        .stroke14 {fill: #808067;}
        .stroke15 {fill: #808066;}
        .stroke16 {fill: #808065;}
        .stroke17 {fill: #808064;}
        .stroke18 {fill: #808063;}
        .stroke19 {fill: #808062;}
        .stroke20 {fill: #808061;}
        text {
            font-family: Helvetica;
            font-size: 50px;
            fill: #808060;
            paint-order: stroke;
            stroke: #000000;
            stroke-width: 4px;
            stroke-linecap: butt;
            stroke-linejoin: miter;
            font-weight: 800;
        }
    </style>

    <path d="M 139 508 Q 127 512 100 516 Q 88 519 85 513 Q 79 506 88 491 Q 118 437 138 347 Q 142 320 159 303 Q 178 281 183 298 Q 186 308 185 324 L 181 356 Q 163 450 157 479 C 152 504 152 504 139 508 Z" class="stroke1"/>
    <path d="M 414 394 Q 439 473 472 497 Q 488 516 474 533 Q 458 546 406 570 Q 388 577 367 569 Q 333 556 299 544 L 247 530 Q 193 518 139 508 C 110 502 127 475 157 479 Q 170 480 187 485 Q 215 492 248 498 L 298 508 Q 323 515 350 520 Q 369 526 379 517 Q 386 510 385 492 Q 378 443 365 403 C 356 374 405 366 414 394 Z" class="stroke2"/>
    <path d="M 295 345 Q 347 355 421 365 Q 431 366 433 376 Q 433 383 414 394 L 365 403 Q 358 403 355 401 Q 324 392 296 384 L 249 371 Q 212 364 181 356 C 152 349 155 325 185 324 Q 195 323 208 326 Q 224 330 249 336 L 295 345 Z" class="stroke3"/>
    <path d="M 291 201 Q 292 274 295 345 L 296 384 Q 297 448 298 508 L 299 544 Q 299 619 320 710 Q 324 723 301 738 Q 261 757 235 762 Q 217 766 208 756 Q 201 747 209 731 Q 242 685 242 653 Q 245 593 247 530 L 248 498 Q 249 437 249 371 L 249 336 Q 248 266 245 189 C 244 159 291 171 291 201 Z" class="stroke4"/>
    <path d="M 393 231 Q 342 218 291 201 L 245 189 Q 191 176 133 160 Q 112 154 80 156 Q 67 155 64 145 Q 61 132 71 122 Q 93 106 127 85 Q 137 81 151 90 Q 188 117 378 194 Q 393 201 407 208 C 434 221 422 239 393 231 Z" class="stroke5"/>
    <path d="M 407 208 Q 443 139 458 134 Q 468 131 477 141 Q 486 153 488 183 Q 489 208 462 239 Q 431 266 396 291 Q 383 298 377 299 Q 371 298 368 285 Q 368 273 393 231 L 407 208 Z" class="stroke6"/>
    <path d="M 704 601 Q 783 616 908 620 Q 962 620 969 631 Q 975 644 957 657 Q 894 696 844 679 Q 673 639 476 604 Q 454 600 471 583 Q 505 555 552 569 Q 606 587 672 596 L 704 601 Z" class="stroke7"/>
    <path d="M 672 596 Q 671 589 679 573 Q 691 546 692 115 Q 689 97 682 87 Q 672 80 645 88 Q 615 100 577 112 Q 564 116 565 108 Q 565 101 575 91 Q 648 33 694 -14 Q 706 -23 719 -7 Q 758 50 755 124 Q 743 385 752 531 Q 758 558 752 568 Q 742 581 704 601 C 678 616 664 623 672 596 Z" class="stroke8"/>
    
    
    
    
    
    
    
    </g>
</svg>