<svg version="1.1" viewBox="0 0 1024 1024" xmlns="http://www.w3.org/2000/svg">
  
  <g transform="scale(1, -1) translate(0, -900)">
    <style type="text/css">
        .stroke1 {fill: #808080;}
        .stroke2 {fill: #808079;}
        .stroke3 {fill: #808078;}
        .stroke4 {fill: #808077;}
        .stroke5 {fill: #808076;}
        .stroke6 {fill: #808075;}
        .stroke7 {fill: #808074;}
        .stroke8 {fill: #808073;}
        .stroke9 {fill: #808072;}
        .stroke10 {fill: #808071;}
        .stroke11 {fill: #808070;}
        .stroke12 {fill: #808069;}
        .stroke13 {fill: #808068;}
        .stroke14 {fill: #808067;}
        .stroke15 {fill: #808066;}
        .stroke16 {fill: #808065;}
        .stroke17 {fill: #808064;}
        .stroke18 {fill: #808063;}
        .stroke19 {fill: #808062;}
        .stroke20 {fill: #808061;}
        text {
            font-family: Helvetica;
            font-size: 50px;
            fill: #808060;
            paint-order: stroke;
            stroke: #000000;
            stroke-width: 4px;
            stroke-linecap: butt;
            stroke-linejoin: miter;
            font-weight: 800;
        }
    </style>

    <path d="M 102 554 Q 92 558 75 560 Q 63 564 61 559 Q 55 553 62 539 Q 84 493 98 420 Q 101 398 114 382 Q 130 363 134 377 Q 138 387 138 402 L 135 431 Q 123 507 123 528 C 122 547 122 547 102 554 Z" class="stroke1"/>
    <path d="M 316 464 Q 335 524 362 543 Q 375 559 363 573 Q 350 583 307 603 Q 294 609 233 585 L 190 572 Q 144 562 102 554 C 73 548 94 520 123 528 Q 153 537 191 544 L 232 553 Q 247 557 263 560 Q 279 564 286 557 Q 295 548 277 469 C 270 440 307 436 316 464 Z" class="stroke2"/>
    <path d="M 228 420 Q 268 429 327 437 Q 336 438 337 446 Q 337 452 316 464 L 277 469 Q 271 469 229 455 L 190 444 Q 160 437 135 431 C 106 424 109 396 138 402 L 190 412 L 228 420 Z" class="stroke3"/>
    <path d="M 224 306 Q 225 364 228 420 L 229 455 Q 230 504 232 553 L 233 585 Q 237 688 253 742 Q 256 752 237 766 Q 203 782 181 787 Q 165 790 158 782 Q 151 775 159 760 Q 187 720 187 692 Q 190 634 190 572 L 191 544 Q 191 496 190 444 L 190 412 Q 189 355 185 294 C 183 264 223 276 224 306 Z" class="stroke4"/>
    <path d="M 291 327 Q 257 318 224 306 L 185 294 Q 145 285 104 272 Q 89 268 65 268 Q 52 267 51 257 Q 50 244 58 237 Q 80 222 112 205 Q 122 202 133 210 Q 157 231 286 296 Q 295 300 303 306 C 328 323 320 335 291 327 Z" class="stroke5"/>
    <path d="M 303 306 Q 309 288 325 283 Q 332 282 338 289 Q 344 298 344 319 Q 344 343 286 377 Q 277 383 272 382 Q 268 381 267 372 Q 267 371 291 327 L 303 306 Z" class="stroke6"/>
    <path d="M 477 661 Q 541 700 583 712 Q 598 713 600 721 Q 603 731 591 740 Q 530 770 505 764 Q 498 760 499 751 Q 500 717 352 623 Q 348 614 353 612 Q 365 612 435 643 Q 442 647 452 650 L 477 661 Z" class="stroke7"/>
    <path d="M 500 493 Q 527 503 557 510 Q 585 520 589 524 Q 596 531 592 538 Q 585 548 559 552 Q 534 555 500 538 L 458 522 Q 448 521 441 517 Q 402 505 357 497 Q 326 490 350 476 Q 390 458 434 475 Q 437 476 444 477 L 500 493 Z" class="stroke8"/>
    <path d="M 497 342 Q 498 418 500 493 L 500 538 Q 500 616 504 630 Q 507 640 499 647 Q 492 654 477 661 C 451 676 447 678 452 650 Q 458 635 458 522 L 455 358 Q 443 73 449 61 Q 452 52 461 42 Q 471 29 480 44 Q 498 75 498 147 Q 498 159 497 321 L 497 342 Z" class="stroke9"/>
    <path d="M 444 477 Q 411 327 260 139 Q 250 126 260 125 Q 284 122 347 189 Q 407 249 455 358 C 525 515 451 506 444 477 Z" class="stroke10"/>
    <path d="M 497 321 Q 501 315 515 304 Q 569 255 577 254 Q 584 255 589 265 Q 593 275 587 299 Q 581 321 513 341 Q 501 344 497 342 C 483 339 483 339 497 321 Z" class="stroke11"/>
    <path d="M 640 621 Q 659 605 678 584 Q 688 574 701 574 Q 710 574 713 585 Q 717 595 710 619 Q 703 641 637 658 Q 625 661 620 658 Q 616 655 617 645 Q 620 638 640 621 Z" class="stroke12"/>
    <path d="M 623 492 Q 644 473 666 449 Q 676 439 689 438 Q 696 439 701 449 Q 705 459 700 483 Q 693 510 621 529 Q 609 532 604 530 Q 600 527 601 518 Q 602 509 623 492 Z" class="stroke13"/>
    <path d="M 805 384 Q 854 391 923 394 Q 968 398 973 405 Q 977 415 962 427 Q 905 461 848 440 Q 827 436 805 429 L 755 417 Q 748 417 744 415 Q 668 399 578 381 Q 559 377 574 363 Q 604 339 637 349 Q 689 367 751 376 Q 752 377 756 376 L 805 384 Z" class="stroke14"/>
    <path d="M 756 376 Q 756 -5 769 -32 Q 770 -33 772 -37 Q 787 -52 795 -31 Q 813 20 806 345 Q 805 364 805 384 L 805 429 Q 805 610 810 694 Q 811 728 827 755 Q 834 771 814 786 Q 790 805 748 814 Q 730 820 718 806 Q 708 797 721 786 Q 749 762 752 727 Q 753 624 755 417 L 756 376 Z" class="stroke15"/>
    
    
    
    
    
    
    
    
    
    
    
    
    
    
    </g>
</svg>