<svg version="1.1" viewBox="0 0 1024 1024" xmlns="http://www.w3.org/2000/svg">
  
  <g transform="scale(1, -1) translate(0, -900)">
    <style type="text/css">
        .stroke1 {fill: #808080;}
        .stroke2 {fill: #808079;}
        .stroke3 {fill: #808078;}
        .stroke4 {fill: #808077;}
        .stroke5 {fill: #808076;}
        .stroke6 {fill: #808075;}
        .stroke7 {fill: #808074;}
        .stroke8 {fill: #808073;}
        .stroke9 {fill: #808072;}
        .stroke10 {fill: #808071;}
        .stroke11 {fill: #808070;}
        .stroke12 {fill: #808069;}
        .stroke13 {fill: #808068;}
        .stroke14 {fill: #808067;}
        .stroke15 {fill: #808066;}
        .stroke16 {fill: #808065;}
        .stroke17 {fill: #808064;}
        .stroke18 {fill: #808063;}
        .stroke19 {fill: #808062;}
        .stroke20 {fill: #808061;}
        text {
            font-family: Helvetica;
            font-size: 50px;
            fill: #808060;
            paint-order: stroke;
            stroke: #000000;
            stroke-width: 4px;
            stroke-linecap: butt;
            stroke-linejoin: miter;
            font-weight: 800;
        }
    </style>

    <path d="M 133 524 Q 123 528 97 532 Q 87 535 83 530 Q 77 524 85 509 Q 112 457 130 373 Q 133 348 148 331 Q 166 310 170 325 Q 174 337 173 356 L 168 388 Q 152 470 150 495 C 148 519 148 519 133 524 Z" class="stroke1"/>
    <path d="M 387 419 Q 408 491 438 516 Q 453 532 439 549 Q 372 597 322 572 Q 304 566 286 558 L 237 544 Q 186 534 133 524 C 104 518 120 490 150 495 Q 162 496 176 501 Q 206 508 238 514 L 285 524 Q 345 539 353 531 Q 362 522 345 429 C 340 399 378 390 387 419 Z" class="stroke2"/>
    <path d="M 281 376 Q 329 385 393 391 Q 403 392 404 401 Q 404 408 387 419 C 366 433 366 433 345 429 Q 315 423 282 412 L 238 402 Q 201 395 168 388 C 139 382 143 354 173 356 Q 177 356 184 357 Q 206 364 238 369 L 281 376 Z" class="stroke3"/>
    <path d="M 277 246 Q 278 313 281 376 L 282 412 Q 283 469 285 524 L 286 558 Q 286 612 305 725 Q 309 737 287 752 Q 250 771 225 774 Q 209 778 200 768 Q 193 761 201 745 Q 232 702 232 671 Q 235 610 237 544 L 238 514 Q 239 460 238 402 L 238 369 Q 237 305 234 234 C 233 204 276 216 277 246 Z" class="stroke4"/>
    <path d="M 359 268 Q 319 258 277 246 L 234 234 Q 179 222 120 206 Q 101 200 71 202 Q 58 201 56 191 Q 55 178 63 170 Q 85 154 117 133 Q 127 130 140 138 Q 174 163 343 233 Q 356 239 368 245 C 395 258 388 275 359 268 Z" class="stroke5"/>
    <path d="M 368 245 Q 383 200 396 194 Q 403 191 410 197 Q 417 204 421 226 Q 427 247 407 277 Q 356 337 345 338 Q 341 337 337 329 Q 336 322 359 268 L 368 245 Z" class="stroke6"/>
    <path d="M 519 717 Q 482 713 508 694 Q 550 667 607 680 Q 682 690 760 704 Q 796 711 802 715 Q 811 722 807 732 Q 800 744 770 753 Q 740 760 709 749 Q 669 737 624 728 Q 576 721 519 717 Z" class="stroke7"/>
    <path d="M 529 578 Q 519 582 502 584 Q 492 587 488 582 Q 484 576 491 562 Q 513 519 529 449 Q 532 428 545 414 Q 561 395 566 409 Q 569 419 569 434 L 565 466 Q 553 530 552 551 C 551 571 551 571 529 578 Z" class="stroke8"/>
    <path d="M 765 493 Q 784 541 810 555 Q 826 573 812 589 Q 796 602 747 625 Q 731 632 710 625 Q 635 595 529 578 C 499 573 522 547 552 551 Q 576 554 699 579 Q 714 582 721 576 Q 731 566 713 491 C 706 462 753 465 765 493 Z" class="stroke9"/>
    <path d="M 569 434 Q 573 434 580 435 Q 644 448 784 456 Q 794 457 795 465 Q 796 472 768 492 Q 767 493 765 493 L 713 491 Q 631 475 565 466 C 535 462 539 432 569 434 Z" class="stroke10"/>
    <path d="M 465 346 Q 446 358 426 364 Q 420 365 415 361 Q 408 357 417 346 Q 457 271 462 110 Q 465 44 499 26 Q 515 22 517 50 Q 517 57 516 65 L 512 98 Q 494 191 490 308 C 489 332 489 332 465 346 Z" class="stroke11"/>
    <path d="M 765 88 Q 775 63 800 9 Q 809 -9 819 -8 Q 835 -5 845 21 Q 875 78 890 247 Q 896 296 919 326 Q 937 345 925 359 Q 903 381 856 403 Q 837 413 804 402 Q 675 359 465 346 C 435 344 460 305 490 308 Q 497 308 507 309 Q 552 318 608 326 L 652 333 Q 710 343 781 353 Q 811 357 823 344 Q 847 301 812 123 Q 811 107 803 104 Q 800 103 793 105 C 767 89 765 88 765 88 Z" class="stroke12"/>
    <path d="M 665 208 Q 770 229 775 233 Q 782 240 778 247 Q 772 256 749 262 Q 724 266 667 246 L 618 235 Q 584 231 547 226 Q 517 222 538 207 Q 574 189 618 199 L 665 208 Z" class="stroke13"/>
    <path d="M 661 120 Q 662 168 665 208 L 667 246 Q 673 318 659 327 Q 656 330 652 333 C 629 352 597 354 608 326 Q 614 320 618 235 L 618 199 Q 618 165 620 113 C 621 83 660 90 661 120 Z" class="stroke14"/>
    <path d="M 516 65 Q 523 65 531 66 Q 606 81 765 88 C 795 89 806 90 793 105 Q 787 114 766 129 Q 750 139 661 120 L 620 113 Q 560 106 512 98 C 482 93 486 64 516 65 Z" class="stroke15"/>
    
    
    
    
    
    
    
    
    
    
    
    
    
    
    </g>
</svg>