<svg version="1.1" viewBox="0 0 1024 1024" xmlns="http://www.w3.org/2000/svg">
  
  <g transform="scale(1, -1) translate(0, -900)">
    <style type="text/css">
        .stroke1 {fill: #808080;}
        .stroke2 {fill: #808079;}
        .stroke3 {fill: #808078;}
        .stroke4 {fill: #808077;}
        .stroke5 {fill: #808076;}
        .stroke6 {fill: #808075;}
        .stroke7 {fill: #808074;}
        .stroke8 {fill: #808073;}
        .stroke9 {fill: #808072;}
        .stroke10 {fill: #808071;}
        .stroke11 {fill: #808070;}
        .stroke12 {fill: #808069;}
        .stroke13 {fill: #808068;}
        .stroke14 {fill: #808067;}
        .stroke15 {fill: #808066;}
        .stroke16 {fill: #808065;}
        .stroke17 {fill: #808064;}
        .stroke18 {fill: #808063;}
        .stroke19 {fill: #808062;}
        .stroke20 {fill: #808061;}
        text {
            font-family: Helvetica;
            font-size: 50px;
            fill: #808060;
            paint-order: stroke;
            stroke: #000000;
            stroke-width: 4px;
            stroke-linecap: butt;
            stroke-linejoin: miter;
            font-weight: 800;
        }
    </style>

    <path d="M 163 552 Q 163 553 162 554 Q 152 558 118 563 Q 108 566 104 561 Q 103 560 111 533 Q 133 488 151 416 Q 155 394 169 378 Q 185 359 190 373 Q 193 383 192 399 L 187 429 Q 174 496 170 523 L 163 552 Z" class="stroke1"/>
    <path d="M 412 481 Q 433 542 461 563 Q 474 579 462 594 Q 447 606 401 625 Q 385 631 367 623 Q 333 607 302 593 L 251 576 Q 206 563 163 552 C 134 544 142 514 170 523 Q 224 541 252 548 L 301 563 Q 325 570 350 578 Q 372 585 381 577 Q 388 570 386 554 Q 379 517 369 486 C 360 457 402 453 412 481 Z" class="stroke2"/>
    <path d="M 297 429 Q 348 442 420 457 Q 429 458 430 466 Q 429 473 412 481 L 369 486 Q 363 486 361 484 Q 328 474 298 462 L 253 447 Q 217 437 187 429 C 158 421 164 390 192 399 Q 228 411 253 417 L 297 429 Z" class="stroke3"/>
    <path d="M 293 315 Q 294 373 297 429 L 298 462 Q 299 514 301 563 L 302 593 Q 302 623 320 723 Q 323 733 303 748 Q 267 767 242 771 Q 226 774 218 765 Q 211 758 219 742 Q 246 705 246 679 Q 249 630 251 576 L 252 548 Q 253 499 253 447 L 253 417 Q 253 360 251 298 C 250 268 292 285 293 315 Z" class="stroke4"/>
    <path d="M 380 352 Q 337 336 293 315 L 251 298 Q 190 276 129 252 Q 111 245 82 243 Q 70 240 69 231 Q 68 218 77 212 Q 99 199 130 185 Q 140 184 150 191 Q 177 216 346 309 Q 370 321 388 338 C 411 358 408 363 380 352 Z" class="stroke5"/>
    <path d="M 409 242 Q 393 197 368 156 Q 352 128 369 95 Q 376 79 395 92 Q 438 129 436 191 Q 439 221 431 243 Q 427 250 421 252 Q 414 251 409 242 Z" class="stroke6"/>
    <path d="M 694 742 Q 734 754 780 764 Q 814 773 820 778 Q 827 785 823 793 Q 816 803 789 809 Q 761 813 735 802 Q 696 786 653 774 Q 607 762 551 754 Q 550 754 550 753 C 521 746 532 727 562 725 Q 583 722 651 731 L 694 742 Z" class="stroke7"/>
    <path d="M 550 753 Q 523 780 494 782 Q 482 782 480 772 Q 477 763 486 756 Q 499 734 502 718 Q 515 591 492 400 Q 483 363 484 360 Q 485 351 498 343 Q 510 333 550 344 C 551 344 546 371 542 401 Q 530 482 547 651 Q 550 702 562 725 C 567 738 567 738 550 753 Z" class="stroke8"/>
    <path d="M 708 606 Q 780 630 786 633 Q 792 640 788 647 Q 781 656 757 659 Q 732 660 710 648 L 660 628 Q 635 621 607 615 Q 579 606 601 596 Q 622 587 660 590 L 708 606 Z" class="stroke9"/>
    <path d="M 701 489 Q 729 498 762 505 Q 781 511 784 513 Q 791 520 787 527 Q 780 536 757 540 Q 720 546 703 530 L 658 515 Q 633 511 605 506 Q 577 500 598 488 Q 622 476 657 478 L 701 489 Z" class="stroke10"/>
    <path d="M 703 530 Q 704 570 708 606 L 710 648 Q 711 660 712 670 Q 715 722 704 734 Q 698 738 694 742 C 671 761 644 760 651 731 Q 661 695 660 628 L 660 590 Q 659 559 658 515 L 657 478 Q 656 445 656 406 C 656 376 697 384 698 414 Q 699 453 701 489 L 703 530 Z" class="stroke11"/>
    <path d="M 550 344 Q 646 386 817 404 Q 856 401 851 367 Q 855 352 847 213 Q 840 131 824 98 Q 815 79 794 80 Q 772 83 749 84 Q 731 90 728 85 Q 725 79 741 69 Q 798 5 802 -14 Q 806 -23 817 -23 Q 833 -24 862 9 Q 889 43 897 123 Q 915 367 937 385 Q 944 392 944 399 Q 944 406 913 427 Q 882 445 875 445 Q 865 446 842 439 Q 826 435 803 433 Q 763 429 701 415 Q 698 415 698 414 L 656 406 Q 604 397 571 386 Q 544 382 542 401 C 519 420 522 333 550 344 Z" class="stroke12"/>
    <path d="M 388 338 Q 401 305 424 297 Q 434 293 443 307 Q 447 317 443 335 Q 434 365 379 393 Q 372 396 368 387 Q 367 384 380 352 L 388 338 Z" class="stroke13"/>
    <path d="M 505 239 Q 512 188 531 161 Q 540 154 552 159 Q 562 165 567 178 Q 576 209 542 248 Q 524 270 512 273 Q 508 274 504 265 Q 500 256 505 239 Z" class="stroke14"/>
    <path d="M 608 271 Q 626 220 646 194 Q 656 187 668 194 Q 677 201 680 215 Q 683 236 674 251 Q 646 297 617 305 Q 614 306 611 306 Q 607 307 604 297 Q 601 287 608 271 Z" class="stroke15"/>
    <path d="M 724 296 Q 757 232 770 227 Q 779 226 785 233 Q 792 243 794 267 Q 794 291 732 332 Q 722 339 716 338 Q 712 337 710 327 Q 710 318 724 296 Z" class="stroke16"/>
    
    
    
    
    
    
    
    
    
    
    
    
    
    
    
    </g>
</svg>