<svg version="1.1" viewBox="0 0 1024 1024" xmlns="http://www.w3.org/2000/svg">
  
  <g transform="scale(1, -1) translate(0, -900)">
    <style type="text/css">
        .stroke1 {fill: #808080;}
        .stroke2 {fill: #808079;}
        .stroke3 {fill: #808078;}
        .stroke4 {fill: #808077;}
        .stroke5 {fill: #808076;}
        .stroke6 {fill: #808075;}
        .stroke7 {fill: #808074;}
        .stroke8 {fill: #808073;}
        .stroke9 {fill: #808072;}
        .stroke10 {fill: #808071;}
        .stroke11 {fill: #808070;}
        .stroke12 {fill: #808069;}
        .stroke13 {fill: #808068;}
        .stroke14 {fill: #808067;}
        .stroke15 {fill: #808066;}
        .stroke16 {fill: #808065;}
        .stroke17 {fill: #808064;}
        .stroke18 {fill: #808063;}
        .stroke19 {fill: #808062;}
        .stroke20 {fill: #808061;}
        text {
            font-family: Helvetica;
            font-size: 50px;
            fill: #808060;
            paint-order: stroke;
            stroke: #000000;
            stroke-width: 4px;
            stroke-linecap: butt;
            stroke-linejoin: miter;
            font-weight: 800;
        }
    </style>

    <path d="M 138 540 Q 128 544 102 547 Q 92 550 88 545 Q 84 539 91 525 Q 116 479 135 403 Q 139 381 153 366 Q 169 347 174 361 Q 175 370 176 381 L 173 411 Q 157 486 153 512 C 149 536 149 536 138 540 Z" class="stroke1"/>
    <path d="M 374 446 Q 401 521 427 536 Q 440 552 428 567 Q 415 579 370 599 Q 355 605 280 575 L 235 561 Q 186 551 138 540 C 109 533 124 505 153 512 Q 160 513 170 517 Q 201 526 235 532 L 279 543 Q 300 549 321 554 Q 340 558 348 551 Q 355 544 353 529 Q 344 489 334 455 C 326 426 364 418 374 446 Z" class="stroke2"/>
    <path d="M 276 401 Q 319 411 382 419 Q 392 420 393 429 Q 393 436 374 446 C 354 458 354 458 334 455 Q 322 455 277 438 L 236 426 Q 202 419 173 411 C 144 403 146 376 176 381 Q 177 381 235 392 L 276 401 Z" class="stroke3"/>
    <path d="M 272 286 Q 273 344 276 401 L 277 438 Q 278 492 279 543 L 280 575 Q 280 662 299 732 Q 302 742 282 757 Q 248 775 224 779 Q 208 782 200 773 Q 193 766 201 751 Q 229 711 230 682 Q 233 624 235 561 L 235 532 Q 236 481 236 426 L 235 392 Q 235 334 232 271 C 231 241 271 256 272 286 Z" class="stroke4"/>
    <path d="M 333 309 Q 302 299 272 286 L 232 271 Q 177 252 117 231 Q 101 225 75 225 Q 62 222 61 213 Q 60 200 69 193 Q 91 180 124 163 Q 134 162 145 170 Q 175 197 315 272 Q 331 282 345 291 C 370 307 361 318 333 309 Z" class="stroke5"/>
    <path d="M 345 291 Q 369 248 381 243 Q 388 242 394 249 Q 400 258 400 279 Q 400 303 342 337 Q 333 343 328 342 Q 324 341 323 332 Q 323 325 333 309 L 345 291 Z" class="stroke6"/>
    <path d="M 679 676 Q 769 703 773 706 Q 780 713 776 722 Q 769 732 741 736 Q 713 740 687 726 Q 686 726 685 725 L 633 706 Q 626 705 621 702 Q 584 690 537 683 Q 504 674 530 661 Q 573 640 632 663 L 634 663 L 679 676 Z" class="stroke7"/>
    <path d="M 673 616 Q 676 647 679 676 L 685 725 Q 685 743 701 816 Q 704 826 687 839 Q 656 855 635 860 Q 622 863 614 856 Q 607 849 614 836 Q 629 815 629 801 Q 632 756 633 706 L 634 663 Q 634 636 634 605 C 634 575 670 586 673 616 Z" class="stroke8"/>
    <path d="M 634 605 Q 570 589 514 572 Q 498 568 518 555 Q 533 546 560 552 Q 693 585 792 605 Q 814 609 805 621 Q 795 634 771 638 Q 740 641 673 616 L 634 605 Z" class="stroke9"/>
    <path d="M 546 430 Q 615 454 617 457 Q 623 463 619 468 Q 613 475 592 478 Q 571 479 551 469 Q 550 469 549 468 L 507 449 Q 503 449 502 448 Q 472 438 438 431 Q 413 424 433 414 Q 455 405 509 417 L 546 430 Z" class="stroke10"/>
    <path d="M 541 375 Q 542 403 546 430 L 549 468 Q 549 480 557 500 Q 558 507 546 517 Q 524 529 508 532 Q 498 533 492 528 Q 488 524 493 513 Q 502 501 507 449 L 509 417 Q 510 392 511 364 C 512 334 540 345 541 375 Z" class="stroke11"/>
    <path d="M 511 364 Q 489 358 472 350 Q 447 340 429 337 Q 420 334 418 329 Q 417 322 425 311 Q 437 298 452 291 Q 456 290 485 304 Q 507 326 596 379 Q 606 383 613 391 Q 617 398 611 400 Q 605 400 541 375 L 511 364 Z" class="stroke12"/>
    <path d="M 788 485 Q 816 494 845 501 Q 872 508 876 512 Q 882 518 878 524 Q 874 531 852 536 Q 828 539 792 522 L 744 505 Q 708 498 668 490 Q 643 486 661 474 Q 694 459 744 474 L 746 474 L 788 485 Z" class="stroke13"/>
    <path d="M 782 423 Q 785 456 788 485 L 792 522 Q 792 529 800 549 Q 801 556 788 567 Q 763 580 745 583 Q 733 586 728 580 Q 722 574 729 563 Q 739 550 744 505 L 746 474 Q 747 446 749 413 C 751 383 779 393 782 423 Z" class="stroke14"/>
    <path d="M 749 413 Q 700 400 658 388 Q 643 384 662 371 Q 672 364 694 368 Q 796 387 871 401 Q 893 405 885 417 Q 875 430 851 434 Q 814 438 782 423 L 749 413 Z" class="stroke15"/>
    <path d="M 679 273 Q 688 276 809 297 Q 819 296 826 308 Q 827 318 806 327 Q 779 348 693 316 Q 672 312 653 305 Q 619 296 459 266 Q 434 262 454 247 Q 488 223 523 236 L 525 236 L 559 244 Q 599 256 645 266 L 679 273 Z" class="stroke16"/>
    <path d="M 525 236 Q 507 103 283 -13 Q 276 -17 280 -22 Q 307 -35 395 11 Q 474 47 554 162 Q 567 180 582 197 Q 591 203 588 212 Q 585 218 559 244 C 538 265 530 266 525 236 Z" class="stroke17"/>
    <path d="M 645 266 Q 645 263 647 258 Q 657 224 655 189 Q 648 66 658 32 Q 662 11 681 -7 Q 760 -67 911 -34 Q 912 -33 916 -33 Q 952 -23 986 1 Q 1007 19 991 46 Q 976 74 954 161 Q 953 177 945 182 Q 938 185 935 167 Q 911 71 894 42 Q 867 12 785 15 Q 754 16 728 26 Q 706 36 701 49 Q 680 91 706 233 Q 712 257 679 273 C 654 289 638 295 645 266 Z" class="stroke18"/>
    
    
    
    
    
    
    
    
    
    
    
    
    
    
    
    
    
    </g>
</svg>