<svg version="1.1" viewBox="0 0 1024 1024" xmlns="http://www.w3.org/2000/svg">
  
  <g transform="scale(1, -1) translate(0, -900)">
    <style type="text/css">
        .stroke1 {fill: #808080;}
        .stroke2 {fill: #808079;}
        .stroke3 {fill: #808078;}
        .stroke4 {fill: #808077;}
        .stroke5 {fill: #808076;}
        .stroke6 {fill: #808075;}
        .stroke7 {fill: #808074;}
        .stroke8 {fill: #808073;}
        .stroke9 {fill: #808072;}
        .stroke10 {fill: #808071;}
        .stroke11 {fill: #808070;}
        .stroke12 {fill: #808069;}
        .stroke13 {fill: #808068;}
        .stroke14 {fill: #808067;}
        .stroke15 {fill: #808066;}
        .stroke16 {fill: #808065;}
        .stroke17 {fill: #808064;}
        .stroke18 {fill: #808063;}
        .stroke19 {fill: #808062;}
        .stroke20 {fill: #808061;}
        text {
            font-family: Helvetica;
            font-size: 50px;
            fill: #808060;
            paint-order: stroke;
            stroke: #000000;
            stroke-width: 4px;
            stroke-linecap: butt;
            stroke-linejoin: miter;
            font-weight: 800;
        }
    </style>

    <path d="M 97 494 Q 88 498 70 500 Q 60 501 56 497 Q 52 491 59 478 Q 84 429 103 349 Q 107 325 121 310 Q 137 291 142 305 L 144 317 L 143 346 Q 137 368 120 467 C 117 487 117 487 97 494 Z" class="stroke1"/>
    <path d="M 337 374 Q 361 447 392 474 Q 408 490 394 508 Q 379 521 330 544 Q 314 551 293 544 Q 268 534 243 525 L 192 511 Q 146 504 97 494 C 68 488 91 460 120 467 Q 127 468 138 472 Q 165 478 193 482 L 242 492 Q 293 505 303 497 Q 312 488 309 470 Q 300 421 288 381 C 280 352 327 346 337 374 Z" class="stroke2"/>
    <path d="M 238 334 Q 281 343 342 349 Q 352 350 352 358 Q 352 364 337 374 L 288 381 Q 287 382 285 381 Q 261 375 239 368 L 194 357 Q 166 351 143 346 C 114 340 114 316 144 317 Q 150 317 157 318 Q 170 322 193 326 L 238 334 Z" class="stroke3"/>
    <path d="M 234 196 Q 235 266 238 334 L 239 368 Q 240 431 242 492 L 243 525 Q 243 597 263 684 Q 266 696 244 711 Q 207 730 180 734 Q 162 738 154 728 Q 147 721 155 704 Q 186 659 187 629 Q 190 572 192 511 L 193 482 Q 194 421 194 357 L 193 326 Q 193 256 190 179 C 189 149 234 166 234 196 Z" class="stroke4"/>
    <path d="M 309 226 Q 272 213 234 196 L 190 179 Q 76 140 50 137 Q 37 134 37 125 Q 36 112 45 105 Q 67 92 101 76 Q 111 75 121 83 L 319 202 C 345 217 337 236 309 226 Z" class="stroke5"/>
    <path d="M 319 202 Q 335 154 352 148 Q 361 145 369 154 Q 379 164 382 190 Q 383 223 318 274 Q 306 281 301 282 Q 295 281 292 270 Q 291 260 305 234 Q 306 230 309 226 L 319 202 Z" class="stroke6"/>
    <path d="M 518 578 Q 543 615 572 664 Q 588 697 603 712 Q 610 722 606 734 Q 602 744 575 763 Q 551 778 534 777 Q 518 774 526 755 Q 559 703 404 475 Q 397 466 394 460 Q 393 450 404 453 Q 429 460 492 543 L 518 578 Z" class="stroke7"/>
    <path d="M 538 278 Q 538 453 549 513 Q 555 537 529 565 Q 523 572 520 576 L 518 578 C 499 601 483 572 492 543 Q 519 468 480 299 Q 459 272 491 216 Q 494 207 500 202 Q 516 189 526 212 Q 533 231 536 253 L 538 278 Z" class="stroke8"/>
    <path d="M 681 746 Q 732 688 749 685 Q 759 685 765 697 Q 771 710 765 740 Q 758 767 681 792 Q 666 796 660 795 Q 656 791 655 779 Q 658 769 681 746 Z" class="stroke9"/>
    <path d="M 716 576 Q 768 589 823 600 Q 859 609 864 614 Q 871 621 867 629 Q 860 639 833 646 Q 809 650 719 619 Q 650 603 591 594 Q 558 588 582 573 Q 624 552 672 566 L 716 576 Z" class="stroke10"/>
    <path d="M 731 472 Q 777 485 820 492 Q 842 496 833 509 Q 823 522 799 525 Q 777 526 738 514 Q 735 513 733 512 L 680 494 Q 634 482 594 469 Q 578 465 598 451 Q 610 444 632 449 Q 654 455 680 460 L 731 472 Z" class="stroke11"/>
    <path d="M 725 372 Q 777 382 823 389 Q 845 393 837 405 Q 827 418 803 423 Q 770 427 727 410 L 680 398 Q 635 388 595 376 Q 579 372 598 359 Q 610 353 680 364 L 725 372 Z" class="stroke12"/>
    <path d="M 722 303 Q 723 339 725 372 L 727 410 Q 728 443 731 472 L 733 512 Q 736 555 734 560 Q 725 569 716 576 C 693 595 661 594 672 566 Q 679 559 680 494 L 680 460 Q 680 435 680 398 L 680 364 Q 680 334 680 297 C 680 267 721 273 722 303 Z" class="stroke13"/>
    <path d="M 680 297 Q 613 290 538 278 C 508 273 507 259 536 253 Q 548 249 590 248 Q 698 272 903 273 Q 906 273 910 272 Q 926 273 930 279 Q 934 289 921 300 Q 878 336 813 319 Q 774 313 722 303 L 680 297 Z" class="stroke14"/>
    <path d="M 456 140 Q 434 91 402 48 Q 380 18 397 -15 Q 404 -33 425 -21 Q 447 -6 461 23 Q 477 56 479 84 Q 485 115 479 139 Q 475 148 468 149 Q 461 148 456 140 Z" class="stroke15"/>
    <path d="M 570 94 Q 577 69 584 38 Q 588 22 600 15 Q 607 11 618 18 Q 628 27 635 52 Q 639 68 625 91 Q 585 139 573 142 Q 567 142 563 131 Q 560 121 570 94 Z" class="stroke16"/>
    <path d="M 693 107 Q 720 49 736 42 Q 746 41 753 49 Q 762 59 762 87 Q 762 111 702 148 Q 690 155 685 155 Q 679 154 677 142 Q 677 132 693 107 Z" class="stroke17"/>
    <path d="M 830 149 Q 867 106 910 46 Q 923 25 937 20 Q 944 17 953 26 Q 966 38 959 80 Q 953 122 893 150 Q 856 169 834 178 Q 825 185 823 173 Q 820 160 830 149 Z" class="stroke18"/>
    
    
    
    
    
    
    
    
    
    
    
    
    
    
    
    
    
    </g>
</svg>