<svg version="1.1" viewBox="0 0 1024 1024" xmlns="http://www.w3.org/2000/svg">
  
  <g transform="scale(1, -1) translate(0, -900)">
    <style type="text/css">
        .stroke1 {fill: #808080;}
        .stroke2 {fill: #808079;}
        .stroke3 {fill: #808078;}
        .stroke4 {fill: #808077;}
        .stroke5 {fill: #808076;}
        .stroke6 {fill: #808075;}
        .stroke7 {fill: #808074;}
        .stroke8 {fill: #808073;}
        .stroke9 {fill: #808072;}
        .stroke10 {fill: #808071;}
        .stroke11 {fill: #808070;}
        .stroke12 {fill: #808069;}
        .stroke13 {fill: #808068;}
        .stroke14 {fill: #808067;}
        .stroke15 {fill: #808066;}
        .stroke16 {fill: #808065;}
        .stroke17 {fill: #808064;}
        .stroke18 {fill: #808063;}
        .stroke19 {fill: #808062;}
        .stroke20 {fill: #808061;}
        text {
            font-family: Helvetica;
            font-size: 50px;
            fill: #808060;
            paint-order: stroke;
            stroke: #000000;
            stroke-width: 4px;
            stroke-linecap: butt;
            stroke-linejoin: miter;
            font-weight: 800;
        }
    </style>

    <path d="M 276 833 Q 288 806 235 718 Q 210 678 174 634 Q 165 625 164 620 Q 160 611 172 613 Q 218 619 319 753 Q 332 775 345 784 Q 354 793 350 805 Q 347 815 323 836 Q 301 852 285 853 Q 269 852 276 833 Z" class="stroke1"/>
    <path d="M 230 443 Q 261 480 297 528 Q 321 565 341 583 Q 351 592 347 605 Q 344 618 319 640 Q 294 659 277 660 Q 259 659 266 638 Q 291 563 72 320 Q 62 311 60 306 Q 56 296 69 297 Q 100 301 190 398 Q 196 405 203 412 L 230 443 Z" class="stroke2"/>
    <path d="M 203 412 Q 218 379 220 308 Q 220 209 198 123 Q 186 74 221 33 L 222 31 Q 238 16 250 41 Q 263 80 263 123 Q 264 322 271 367 Q 278 392 269 402 Q 239 436 230 443 C 208 463 192 440 203 412 Z" class="stroke3"/>
    <path d="M 460 641 Q 456 607 452 567 C 449 537 483 545 488 575 Q 495 615 502 653 L 508 684 Q 514 741 535 789 Q 539 798 524 811 Q 497 829 478 835 Q 465 839 458 832 Q 451 828 456 814 Q 469 792 468 778 Q 467 727 462 671 L 460 641 Z" class="stroke4"/>
    <path d="M 617 605 Q 630 641 645 653 Q 664 675 644 688 Q 626 698 602 714 Q 586 724 568 713 Q 543 697 509 685 Q 508 685 508 684 L 462 671 Q 437 667 408 661 Q 396 661 398 655 Q 399 649 413 643 Q 429 634 460 641 L 502 653 Q 524 659 545 664 Q 570 670 577 660 Q 578 659 566 592 C 561 562 606 577 617 605 Z" class="stroke5"/>
    <path d="M 452 567 Q 404 560 352 548 Q 337 547 349 535 Q 359 525 372 522 Q 388 519 399 524 Q 531 569 693 569 L 695 569 Q 708 570 712 576 Q 715 585 703 594 Q 658 622 617 605 L 566 592 Q 521 586 488 575 L 452 567 Z" class="stroke6"/>
    <path d="M 409 473 Q 402 477 376 478 Q 366 479 364 475 Q 360 471 368 458 Q 386 434 401 392 Q 405 379 414 372 Q 430 356 433 369 Q 433 372 434 376 L 431 402 Q 424 435 423 448 C 421 468 421 468 409 473 Z" class="stroke7"/>
    <path d="M 596 422 Q 612 446 630 453 Q 643 466 633 480 Q 623 490 584 512 Q 571 518 555 513 Q 516 497 481 488 Q 447 481 409 473 C 380 467 394 439 423 448 Q 427 451 544 474 Q 557 477 564 471 Q 565 468 555 428 C 548 399 579 398 596 422 Z" class="stroke8"/>
    <path d="M 509 386 Q 548 393 606 396 Q 615 397 615 404 Q 615 410 596 422 C 579 433 579 433 555 428 Q 485 412 431 402 C 402 396 404 375 434 376 Q 440 376 445 377 Q 454 380 469 381 L 509 386 Z" class="stroke9"/>
    <path d="M 539 287 Q 564 293 592 297 Q 619 301 622 305 Q 629 312 626 318 Q 620 328 597 334 Q 558 343 544 329 L 488 315 Q 452 308 411 306 Q 383 302 403 287 Q 434 268 481 277 Q 482 278 489 278 L 539 287 Z" class="stroke10"/>
    <path d="M 536 171 Q 590 177 670 175 Q 688 175 695 185 Q 699 192 683 202 Q 635 236 573 214 Q 555 214 537 206 L 489 197 Q 447 190 411 179 Q 389 172 394 193 Q 403 212 409 220 Q 416 229 412 237 Q 408 246 379 259 Q 364 266 356 262 Q 347 255 355 243 Q 377 210 337 168 Q 330 159 331 149 Q 332 139 347 128 Q 357 121 368 131 Q 413 155 489 164 L 536 171 Z" class="stroke11"/>
    <path d="M 489 164 Q 489 -1 503 -26 Q 507 -32 514 -29 Q 521 -26 525 -14 Q 535 11 536 171 L 537 206 Q 537 240 539 287 L 544 329 Q 545 339 547 347 Q 550 362 538 370 Q 522 380 509 386 C 482 399 458 409 469 381 Q 468 377 479 360 Q 488 345 488 315 L 489 278 Q 489 241 489 197 L 489 164 Z" class="stroke12"/>
    <path d="M 721 671 Q 681 661 711 644 Q 759 620 822 638 Q 865 648 912 659 Q 934 665 937 668 Q 946 678 940 687 Q 931 700 898 706 Q 874 709 792 684 Q 750 675 721 671 Z" class="stroke13"/>
    <path d="M 807 476 Q 829 488 955 494 Q 992 494 997 504 Q 1001 514 986 524 Q 938 554 881 534 Q 826 519 669 483 Q 651 480 665 467 Q 692 446 749 464 Q 758 467 768 468 L 807 476 Z" class="stroke14"/>
    <path d="M 768 468 Q 769 462 775 453 Q 785 429 786 389 Q 789 307 790 118 Q 789 87 779 74 Q 767 67 740 75 Q 719 82 693 88 Q 680 91 681 84 Q 681 77 692 67 Q 753 15 790 -26 Q 802 -35 816 -19 Q 856 32 852 112 Q 842 283 848 411 Q 854 438 848 448 Q 839 461 807 476 C 780 490 755 495 768 468 Z" class="stroke15"/>
    
    
    
    
    
    
    
    
    
    
    
    
    
    
    </g>
</svg>