<svg version="1.1" viewBox="0 0 1024 1024" xmlns="http://www.w3.org/2000/svg">
  
  <g transform="scale(1, -1) translate(0, -900)">
    <style type="text/css">
        .stroke1 {fill: #808080;}
        .stroke2 {fill: #808079;}
        .stroke3 {fill: #808078;}
        .stroke4 {fill: #808077;}
        .stroke5 {fill: #808076;}
        .stroke6 {fill: #808075;}
        .stroke7 {fill: #808074;}
        .stroke8 {fill: #808073;}
        .stroke9 {fill: #808072;}
        .stroke10 {fill: #808071;}
        .stroke11 {fill: #808070;}
        .stroke12 {fill: #808069;}
        .stroke13 {fill: #808068;}
        .stroke14 {fill: #808067;}
        .stroke15 {fill: #808066;}
        .stroke16 {fill: #808065;}
        .stroke17 {fill: #808064;}
        .stroke18 {fill: #808063;}
        .stroke19 {fill: #808062;}
        .stroke20 {fill: #808061;}
        text {
            font-family: Helvetica;
            font-size: 50px;
            fill: #808060;
            paint-order: stroke;
            stroke: #000000;
            stroke-width: 4px;
            stroke-linecap: butt;
            stroke-linejoin: miter;
            font-weight: 800;
        }
    </style>

    <path d="M 291 769 Q 325 744 361 712 Q 377 699 393 701 Q 403 702 409 716 Q 413 732 402 763 Q 395 785 358 800 Q 273 828 260 819 Q 254 815 257 801 Q 261 791 291 769 Z" class="stroke1"/>
    <path d="M 258 383 Q 286 423 317 471 Q 350 526 396 561 Q 412 573 399 588 Q 380 603 351 612 Q 329 621 312 609 Q 228 548 82 541 Q 70 542 68 535 Q 65 525 79 515 Q 115 491 147 496 Q 159 500 273 548 Q 289 555 294 547 Q 300 538 287 515 Q 212 365 47 203 Q 34 193 36 189 Q 39 186 52 192 Q 133 234 235 353 L 258 383 Z" class="stroke2"/>
    <path d="M 235 353 Q 250 320 251 253 Q 251 175 232 100 Q 222 58 251 16 Q 252 13 255 11 Q 271 -4 282 21 Q 295 58 295 99 Q 296 268 302 306 Q 309 331 300 340 Q 270 376 258 383 C 234 402 224 381 235 353 Z" class="stroke3"/>
    <path d="M 382 382 Q 428 424 452 441 Q 465 445 461 454 Q 454 466 438 477 Q 422 489 405 488 Q 395 487 397 472 Q 400 457 363 390 C 349 364 360 362 382 382 Z" class="stroke4"/>
    <path d="M 363 390 Q 339 405 328 402 Q 324 401 324 391 L 399 307 Q 406 297 418 297 Q 425 296 430 305 Q 434 315 430 335 Q 427 359 382 382 L 363 390 Z" class="stroke5"/>
    <path d="M 654 567 Q 844 607 855 615 Q 864 622 859 632 Q 852 644 822 652 Q 791 658 761 646 Q 709 630 655 614 L 613 603 Q 543 590 462 582 Q 425 576 451 558 Q 497 534 551 547 Q 581 553 613 559 L 654 567 Z" class="stroke6"/>
    <path d="M 652 410 Q 704 419 783 422 Q 825 426 829 433 Q 833 443 818 455 Q 763 489 706 467 Q 681 461 652 453 L 611 443 Q 547 430 470 413 Q 451 409 466 395 Q 496 373 546 388 Q 562 394 584 396 L 652 410 Z" class="stroke7"/>
    <path d="M 652 453 Q 653 507 654 567 L 655 614 Q 658 690 674 746 Q 683 761 679 774 Q 673 784 618 817 Q 596 833 575 818 Q 571 814 577 798 Q 610 749 611 699 Q 612 653 613 603 L 613 559 Q 613 510 611 443 L 608 339 Q 604 177 592 124 Q 574 46 587 10 Q 590 0 596 -14 Q 603 -32 611 -35 Q 617 -42 624 -33 Q 631 -29 641 -9 Q 651 16 650 46 Q 649 86 651 352 L 652 453 Z" class="stroke8"/>
    <path d="M 651 396 Q 651 403 652 410 C 654 440 596 423 584 396 Q 527 264 354 110 Q 344 98 352 97 Q 361 93 371 99 Q 488 153 595 319 Q 602 331 608 339 C 625 364 651 390 651 396 Z" class="stroke9"/>
    <path d="M 651 352 Q 714 246 795 130 Q 811 109 840 108 Q 940 101 973 103 Q 982 104 984 109 Q 985 113 972 122 Q 837 182 773 254 Q 715 317 651 396 C 632 419 636 378 651 352 Z" class="stroke10"/>
    
    
    
    
    
    
    
    
    
    </g>
</svg>