<svg version="1.1" viewBox="0 0 1024 1024" xmlns="http://www.w3.org/2000/svg">
  
  <g transform="scale(1, -1) translate(0, -900)">
    <style type="text/css">
        .stroke1 {fill: #808080;}
        .stroke2 {fill: #808079;}
        .stroke3 {fill: #808078;}
        .stroke4 {fill: #808077;}
        .stroke5 {fill: #808076;}
        .stroke6 {fill: #808075;}
        .stroke7 {fill: #808074;}
        .stroke8 {fill: #808073;}
        .stroke9 {fill: #808072;}
        .stroke10 {fill: #808071;}
        .stroke11 {fill: #808070;}
        .stroke12 {fill: #808069;}
        .stroke13 {fill: #808068;}
        .stroke14 {fill: #808067;}
        .stroke15 {fill: #808066;}
        .stroke16 {fill: #808065;}
        .stroke17 {fill: #808064;}
        .stroke18 {fill: #808063;}
        .stroke19 {fill: #808062;}
        .stroke20 {fill: #808061;}
        text {
            font-family: Helvetica;
            font-size: 50px;
            fill: #808060;
            paint-order: stroke;
            stroke: #000000;
            stroke-width: 4px;
            stroke-linecap: butt;
            stroke-linejoin: miter;
            font-weight: 800;
        }
    </style>

    <path d="M 293 764 Q 321 739 353 710 Q 368 697 384 698 Q 396 698 401 712 Q 405 728 396 759 Q 384 790 287 815 Q 271 818 264 815 Q 258 811 260 797 Q 264 787 293 764 Z" class="stroke1"/>
    <path d="M 264 370 Q 295 409 329 458 Q 360 506 402 536 Q 417 546 405 562 Q 386 577 357 587 Q 335 596 318 584 Q 240 530 111 523 Q 99 524 97 518 Q 94 508 108 499 Q 144 474 159 477 Q 169 480 287 527 Q 302 533 306 526 Q 310 519 299 499 Q 230 373 80 232 Q 65 222 68 217 Q 71 214 84 219 Q 156 253 240 342 L 264 370 Z" class="stroke2"/>
    <path d="M 240 342 Q 276 261 240 96 Q 230 54 259 12 Q 260 9 263 7 Q 279 -8 290 17 Q 303 54 303 95 Q 302 258 306 294 Q 313 319 304 328 Q 277 361 264 370 C 241 389 229 370 240 342 Z" class="stroke3"/>
    <path d="M 371 369 Q 407 403 427 417 Q 439 423 435 429 Q 429 439 414 449 Q 399 459 385 458 Q 375 457 378 443 Q 381 431 354 377 C 341 350 349 348 371 369 Z" class="stroke4"/>
    <path d="M 354 377 Q 327 393 316 390 Q 312 389 312 380 L 385 299 Q 392 290 403 289 Q 410 289 414 297 Q 418 306 414 325 Q 410 353 371 369 L 354 377 Z" class="stroke5"/>
    <path d="M 549 534 Q 562 565 574 589 Q 581 602 566 611 Q 526 633 504 625 Q 495 621 500 610 Q 519 547 473 463 Q 460 442 455 430 Q 451 417 462 423 Q 495 432 538 511 L 549 534 Z" class="stroke6"/>
    <path d="M 668 511 Q 809 545 811 546 Q 818 553 815 561 Q 808 571 782 579 Q 757 583 671 556 L 626 545 Q 589 539 549 534 C 519 530 510 522 538 511 Q 574 496 623 502 L 668 511 Z" class="stroke7"/>
    <path d="M 654 354 Q 730 369 852 371 Q 901 371 908 381 Q 912 391 897 403 Q 846 439 799 423 Q 742 410 658 392 L 611 384 Q 533 371 446 356 Q 427 353 442 339 Q 455 327 471 323 Q 490 319 505 323 Q 553 338 606 346 L 654 354 Z" class="stroke8"/>
    <path d="M 651 334 Q 652 344 654 354 L 658 392 Q 658 396 659 400 Q 663 457 668 511 L 671 556 Q 677 649 703 724 Q 710 737 700 749 Q 678 768 640 780 Q 616 787 607 780 Q 598 773 605 761 Q 627 724 628 678 Q 629 611 626 545 L 623 502 Q 619 444 611 384 L 606 346 Q 582 192 482 115 Q 446 90 397 62 Q 385 55 385 51 Q 386 47 397 46 Q 413 42 452 56 Q 581 95 631 241 Q 638 271 646 304 L 651 334 Z" class="stroke9"/>
    <path d="M 646 304 Q 712 184 802 56 Q 818 34 848 33 Q 951 29 985 31 Q 994 32 996 37 Q 997 41 984 50 Q 834 125 761 208 Q 710 262 651 334 C 632 357 631 330 646 304 Z" class="stroke10"/>
    
    
    
    
    
    
    
    
    
    </g>
</svg>