<svg version="1.1" viewBox="0 0 1024 1024" xmlns="http://www.w3.org/2000/svg">
  
  <g transform="scale(1, -1) translate(0, -900)">
    <style type="text/css">
        .stroke1 {fill: #808080;}
        .stroke2 {fill: #808079;}
        .stroke3 {fill: #808078;}
        .stroke4 {fill: #808077;}
        .stroke5 {fill: #808076;}
        .stroke6 {fill: #808075;}
        .stroke7 {fill: #808074;}
        .stroke8 {fill: #808073;}
        .stroke9 {fill: #808072;}
        .stroke10 {fill: #808071;}
        .stroke11 {fill: #808070;}
        .stroke12 {fill: #808069;}
        .stroke13 {fill: #808068;}
        .stroke14 {fill: #808067;}
        .stroke15 {fill: #808066;}
        .stroke16 {fill: #808065;}
        .stroke17 {fill: #808064;}
        .stroke18 {fill: #808063;}
        .stroke19 {fill: #808062;}
        .stroke20 {fill: #808061;}
        text {
            font-family: Helvetica;
            font-size: 50px;
            fill: #808060;
            paint-order: stroke;
            stroke: #000000;
            stroke-width: 4px;
            stroke-linecap: butt;
            stroke-linejoin: miter;
            font-weight: 800;
        }
    </style>

    <path d="M 374 749 Q 399 768 417 782 Q 453 818 479 834 Q 495 844 485 859 Q 472 872 447 881 Q 425 891 415 887 Q 405 884 409 873 Q 413 852 376 787 Q 367 774 358 756 C 344 729 350 731 374 749 Z" class="stroke1"/>
    <path d="M 357 528 Q 357 553 359 577 L 360 604 Q 360 605 361 607 Q 360 629 361 648 L 363 669 Q 366 696 374 714 C 391 760 383 739 358 756 Q 345 766 330 771 Q 311 778 303 769 Q 297 765 305 752 Q 323 710 311 504 Q 307 471 300 441 Q 296 422 311 406 Q 330 390 350 404 C 357 407 357 442 357 472 Q 357 491 357 512 L 357 528 Z" class="stroke2"/>
    <path d="M 574 609 Q 574 605 576 599 Q 580 584 591 584 Q 604 585 612 598 Q 621 607 641 653 Q 657 699 692 724 Q 710 737 696 753 Q 680 769 636 794 Q 621 803 558 787 Q 534 787 431 762 Q 397 755 374 749 C 345 742 345 705 374 714 Q 443 738 579 758 Q 600 761 608 757 Q 615 753 610 730 Q 589 646 578 627 C 573 615 573 615 574 609 Z" class="stroke3"/>
    <path d="M 361 648 Q 368 647 381 649 Q 474 668 542 681 Q 560 685 553 694 Q 544 706 525 708 Q 513 709 363 669 C 334 661 331 650 361 648 Z" class="stroke4"/>
    <path d="M 359 577 Q 369 577 381 578 Q 442 594 574 609 C 594 611 594 611 578 627 Q 572 634 558 642 Q 543 649 517 642 Q 430 617 360 604 C 331 598 329 576 359 577 Z" class="stroke5"/>
    <path d="M 357 512 Q 390 499 422 506 Q 489 519 558 533 Q 589 540 595 544 Q 601 550 598 556 Q 594 563 573 569 Q 552 573 531 566 Q 495 553 456 544 Q 413 534 361 530 Q 358 530 357 528 C 333 521 333 521 357 512 Z" class="stroke6"/>
    <path d="M 350 404 Q 422 452 639 474 Q 735 486 748 474 Q 758 467 750 431 Q 738 386 728 375 Q 721 360 694 358 Q 669 362 647 366 Q 634 369 635 363 Q 635 359 643 353 Q 686 316 703 289 Q 710 273 724 280 Q 758 299 778 338 Q 805 432 823 462 Q 835 477 824 488 Q 809 507 776 526 Q 757 538 732 527 Q 674 502 618 496 Q 539 487 381 457 Q 359 453 357 472 C 337 494 324 389 350 404 Z" class="stroke7"/>
    <path d="M 470 341 Q 473 368 456 384 Q 416 408 408 406 Q 404 405 403 395 Q 403 386 418 367 Q 433 340 437 332 C 451 305 467 311 470 341 Z" class="stroke8"/>
    <path d="M 431 294 Q 608 331 614 337 Q 621 344 618 350 Q 612 360 589 367 Q 565 371 541 363 Q 505 353 470 341 L 437 332 Q 311 307 220 298 Q 190 294 211 279 Q 239 263 306 272 Q 340 278 376 285 L 431 294 Z" class="stroke9"/>
    <path d="M 445 272 Q 442 282 431 294 C 412 318 385 314 376 285 Q 364 228 242 128 Q 152 70 83 30 Q 76 27 83 23 Q 143 17 286 113 Q 289 116 293 118 Q 312 133 335 154 L 367 183 Q 427 244 434 248 C 450 262 450 262 445 272 Z" class="stroke10"/>
    <path d="M 335 154 Q 362 66 326 -5 Q 304 -41 340 -83 Q 343 -86 349 -90 Q 359 -97 371 -79 Q 402 -36 506 72 Q 522 87 523 94 Q 523 107 504 95 Q 461 67 414 36 Q 398 26 390 28 Q 384 32 383 48 Q 387 121 392 139 Q 396 158 384 169 Q 375 178 367 183 C 343 201 327 183 335 154 Z" class="stroke11"/>
    <path d="M 583 182 Q 613 201 643 222 Q 658 235 677 244 Q 693 251 685 266 Q 675 279 653 291 Q 634 301 624 299 Q 614 298 617 287 Q 620 266 564 194 C 546 170 558 166 583 182 Z" class="stroke12"/>
    <path d="M 564 194 Q 524 224 477 259 Q 461 274 445 272 C 415 277 407 260 434 248 Q 468 235 493 209 Q 632 85 741 0 Q 760 -16 787 -11 Q 881 14 917 28 Q 933 32 937 41 Q 940 50 929 51 Q 769 75 668 129 Q 628 151 583 182 L 564 194 Z" class="stroke13"/>
    
    
    
    
    
    
    
    
    
    
    
    
    </g>
</svg>