<svg version="1.1" viewBox="0 0 1024 1024" xmlns="http://www.w3.org/2000/svg">
  
  <g transform="scale(1, -1) translate(0, -900)">
    <style type="text/css">
        .stroke1 {fill: #808080;}
        .stroke2 {fill: #808079;}
        .stroke3 {fill: #808078;}
        .stroke4 {fill: #808077;}
        .stroke5 {fill: #808076;}
        .stroke6 {fill: #808075;}
        .stroke7 {fill: #808074;}
        .stroke8 {fill: #808073;}
        .stroke9 {fill: #808072;}
        .stroke10 {fill: #808071;}
        .stroke11 {fill: #808070;}
        .stroke12 {fill: #808069;}
        .stroke13 {fill: #808068;}
        .stroke14 {fill: #808067;}
        .stroke15 {fill: #808066;}
        .stroke16 {fill: #808065;}
        .stroke17 {fill: #808064;}
        .stroke18 {fill: #808063;}
        .stroke19 {fill: #808062;}
        .stroke20 {fill: #808061;}
        text {
            font-family: Helvetica;
            font-size: 50px;
            fill: #808060;
            paint-order: stroke;
            stroke: #000000;
            stroke-width: 4px;
            stroke-linecap: butt;
            stroke-linejoin: miter;
            font-weight: 800;
        }
    </style>

    <path d="M 335 770 Q 360 749 389 724 Q 405 711 421 713 Q 431 714 437 728 Q 441 744 429 775 Q 417 805 327 820 Q 311 823 304 819 Q 298 815 301 801 Q 305 791 335 770 Z" class="stroke1"/>
    <path d="M 300 390 Q 325 426 351 469 Q 382 524 429 561 Q 445 574 431 590 Q 409 605 377 614 Q 352 621 334 608 Q 294 574 269 563 Q 241 550 190 537 Q 138 524 99 519 Q 86 520 84 511 Q 81 501 98 491 Q 140 466 158 471 Q 167 474 303 543 Q 321 552 326 544 Q 332 535 320 512 Q 251 370 84 197 Q 68 184 72 181 Q 75 178 89 184 Q 177 230 273 352 L 300 390 Z" class="stroke2"/>
    <path d="M 273 352 Q 292 303 268 147 Q 244 39 279 3 Q 295 -12 306 13 Q 319 50 319 91 Q 323 283 330 326 Q 337 351 328 360 Q 312 379 300 390 C 279 411 264 381 273 352 Z" class="stroke3"/>
    <path d="M 391 376 Q 431 413 453 429 Q 466 435 461 443 Q 455 453 438 465 Q 422 475 404 475 Q 394 472 397 458 Q 400 445 373 384 C 361 357 369 356 391 376 Z" class="stroke4"/>
    <path d="M 373 384 Q 352 393 344 390 Q 340 389 341 379 Q 342 372 360 356 Q 382 335 407 309 Q 416 300 426 300 Q 433 300 438 309 Q 442 319 437 339 Q 433 355 410 369 Q 400 373 391 376 L 373 384 Z" class="stroke5"/>
    <path d="M 696 581 Q 774 596 855 608 Q 919 621 929 629 Q 939 636 934 644 Q 928 656 900 665 Q 872 672 842 662 Q 772 641 698 624 L 645 614 Q 575 604 495 599 Q 459 595 484 577 Q 523 550 577 563 Q 611 569 645 574 L 696 581 Z" class="stroke6"/>
    <path d="M 525 463 Q 497 476 479 477 Q 466 473 472 461 Q 520 359 473 177 Q 446 102 475 65 Q 482 52 492 58 Q 526 79 530 194 Q 536 386 542 430 C 545 454 545 454 525 463 Z" class="stroke7"/>
    <path d="M 693 465 Q 733 475 784 482 Q 800 483 806 474 Q 816 470 820 425 Q 833 277 829 108 Q 829 83 819 76 Q 812 70 770 82 Q 754 89 754 79 Q 753 72 765 63 Q 802 17 818 -15 Q 837 -36 850 -33 Q 863 -32 875 -4 Q 893 41 895 105 Q 882 313 880 391 Q 881 428 892 449 Q 904 470 894 481 Q 885 494 841 518 Q 823 527 805 523 Q 769 510 694 492 L 644 482 Q 586 472 525 463 C 495 459 513 421 542 430 Q 552 436 644 455 L 693 465 Z" class="stroke8"/>
    <path d="M 692 333 Q 768 354 772 357 Q 779 364 775 371 Q 768 380 745 384 Q 709 390 692 374 L 642 357 Q 614 351 585 347 Q 557 340 578 328 Q 603 315 641 320 L 692 333 Z" class="stroke9"/>
    <path d="M 690 231 Q 766 252 768 253 Q 775 260 771 267 Q 764 276 741 280 Q 716 284 693 273 Q 692 273 691 272 L 639 254 Q 615 250 589 246 Q 561 240 582 228 Q 606 216 638 218 L 690 231 Z" class="stroke10"/>
    <path d="M 638 218 Q 635 83 653 55 Q 666 42 675 60 Q 687 91 690 231 L 691 272 Q 691 300 692 333 L 692 374 Q 692 383 693 465 L 694 492 Q 694 541 696 581 L 698 624 Q 701 736 720 769 Q 727 784 708 798 Q 686 817 645 827 Q 627 831 616 819 Q 606 812 618 800 Q 643 778 646 746 Q 646 695 645 614 L 645 574 Q 644 532 644 482 L 644 455 Q 644 413 642 357 L 641 320 Q 640 283 639 254 L 638 218 Z" class="stroke11"/>
    <path d="M 797 768 Q 848 717 866 715 Q 876 716 881 729 Q 885 742 877 771 Q 873 787 847 799 Q 784 821 772 815 Q 768 811 768 799 Q 772 789 797 768 Z" class="stroke12"/>
    
    
    
    
    
    
    
    
    
    
    
    </g>
</svg>