<svg version="1.1" viewBox="0 0 1024 1024" xmlns="http://www.w3.org/2000/svg">
  
  <g transform="scale(1, -1) translate(0, -900)">
    <style type="text/css">
        .stroke1 {fill: #808080;}
        .stroke2 {fill: #808079;}
        .stroke3 {fill: #808078;}
        .stroke4 {fill: #808077;}
        .stroke5 {fill: #808076;}
        .stroke6 {fill: #808075;}
        .stroke7 {fill: #808074;}
        .stroke8 {fill: #808073;}
        .stroke9 {fill: #808072;}
        .stroke10 {fill: #808071;}
        .stroke11 {fill: #808070;}
        .stroke12 {fill: #808069;}
        .stroke13 {fill: #808068;}
        .stroke14 {fill: #808067;}
        .stroke15 {fill: #808066;}
        .stroke16 {fill: #808065;}
        .stroke17 {fill: #808064;}
        .stroke18 {fill: #808063;}
        .stroke19 {fill: #808062;}
        .stroke20 {fill: #808061;}
        text {
            font-family: Helvetica;
            font-size: 50px;
            fill: #808060;
            paint-order: stroke;
            stroke: #000000;
            stroke-width: 4px;
            stroke-linecap: butt;
            stroke-linejoin: miter;
            font-weight: 800;
        }
    </style>

    <path d="M 275 747 Q 323 708 339 709 Q 349 710 353 724 Q 356 739 344 766 Q 332 790 264 793 Q 249 794 244 791 Q 240 787 242 775 Q 246 765 275 747 Z" class="stroke1"/>
    <path d="M 195 626 Q 232 590 263 577 Q 276 576 284 588 Q 288 600 284 614 Q 277 635 260 644 Q 247 653 203 660 Q 188 664 180 659 Q 176 658 178 647 Q 181 637 195 626 Z" class="stroke2"/>
    <path d="M 210 455 Q 200 455 198 440 Q 194 379 218 356 Q 222 349 231 350 Q 238 349 243 369 Q 256 405 348 542 Q 357 554 357 559 Q 358 566 350 563 Q 335 557 240 472 Q 230 462 210 455 Z" class="stroke3"/>
    <path d="M 521 829 Q 548 789 538 657 Q 534 647 551 605 Q 558 592 571 599 Q 580 608 581 667 Q 581 770 600 800 Q 604 809 596 820 Q 551 854 527 846 Q 515 842 521 829 Z" class="stroke4"/>
    <path d="M 443 701 Q 422 661 396 626 Q 378 601 391 571 Q 397 556 415 565 Q 457 595 462 652 Q 466 679 463 700 Q 459 707 454 708 Q 447 708 443 701 Z" class="stroke5"/>
    <path d="M 700 722 Q 745 694 799 653 Q 817 637 831 636 Q 840 636 844 647 Q 853 660 834 698 Q 827 717 808 729 Q 775 744 696 750 Q 687 754 687 742 Q 688 730 700 722 Z" class="stroke6"/>
    <path d="M 656 671 Q 656 626 577 552 Q 556 533 495 490 Q 488 486 495 483 Q 567 474 706 611 Q 713 617 717 620 Q 724 623 724 632 Q 724 641 715 653 Q 691 683 663 683 Q 656 682 656 671 Z" class="stroke7"/>
    <path d="M 513 405 Q 514 417 507 438 Q 495 465 416 476 Q 404 477 400 475 Q 396 471 398 461 Q 402 454 424 439 Q 469 409 482 396 C 504 375 512 375 513 405 Z" class="stroke8"/>
    <path d="M 451 353 Q 532 371 616 387 Q 671 400 679 408 Q 686 415 683 422 Q 676 432 651 438 Q 626 444 600 434 Q 557 419 513 405 L 482 396 Q 475 396 470 394 Q 395 378 308 368 Q 277 364 299 348 Q 329 332 397 342 Q 398 342 400 342 L 451 353 Z" class="stroke9"/>
    <path d="M 471 329 Q 462 347 451 353 C 428 373 406 371 400 342 Q 382 222 114 46 Q 107 42 115 39 Q 164 39 278 116 Q 329 158 376 206 L 408 242 Q 453 294 459 300 C 477 319 477 319 471 329 Z" class="stroke10"/>
    <path d="M 376 206 Q 403 112 363 33 Q 336 -9 380 -55 Q 383 -58 387 -61 Q 399 -68 412 -48 Q 445 -2 556 113 Q 574 129 575 138 Q 576 151 555 139 Q 510 109 459 78 Q 443 65 434 69 Q 427 73 427 90 Q 433 171 439 190 Q 443 215 408 242 C 385 261 368 235 376 206 Z" class="stroke11"/>
    <path d="M 601 218 Q 652 245 705 278 Q 724 291 747 300 Q 768 307 759 325 Q 747 341 723 357 Q 702 372 690 370 Q 677 369 681 356 Q 681 331 586 229 C 566 207 575 204 601 218 Z" class="stroke12"/>
    <path d="M 586 229 Q 475 326 471 329 C 448 348 436 319 459 300 Q 522 251 602 164 Q 734 29 777 28 Q 853 28 934 44 Q 968 50 966 60 Q 965 64 929 73 Q 901 80 868 86 Q 721 123 623 201 Q 611 210 601 218 L 586 229 Z" class="stroke13"/>
    
    
    
    
    
    
    
    
    
    
    
    
    </g>
</svg>