<svg version="1.1" viewBox="0 0 1024 1024" xmlns="http://www.w3.org/2000/svg">
  
  <g transform="scale(1, -1) translate(0, -900)">
    <style type="text/css">
        .stroke1 {fill: #808080;}
        .stroke2 {fill: #808079;}
        .stroke3 {fill: #808078;}
        .stroke4 {fill: #808077;}
        .stroke5 {fill: #808076;}
        .stroke6 {fill: #808075;}
        .stroke7 {fill: #808074;}
        .stroke8 {fill: #808073;}
        .stroke9 {fill: #808072;}
        .stroke10 {fill: #808071;}
        .stroke11 {fill: #808070;}
        .stroke12 {fill: #808069;}
        .stroke13 {fill: #808068;}
        .stroke14 {fill: #808067;}
        .stroke15 {fill: #808066;}
        .stroke16 {fill: #808065;}
        .stroke17 {fill: #808064;}
        .stroke18 {fill: #808063;}
        .stroke19 {fill: #808062;}
        .stroke20 {fill: #808061;}
        text {
            font-family: Helvetica;
            font-size: 50px;
            fill: #808060;
            paint-order: stroke;
            stroke: #000000;
            stroke-width: 4px;
            stroke-linecap: butt;
            stroke-linejoin: miter;
            font-weight: 800;
        }
    </style>

    <path d="M 300 746 Q 328 725 357 699 Q 373 687 389 689 Q 401 690 405 704 Q 409 720 397 751 Q 390 770 357 782 Q 281 803 268 795 Q 262 791 265 777 Q 269 767 300 746 Z" class="stroke1"/>
    <path d="M 262 376 Q 290 415 322 461 Q 356 512 400 544 Q 415 556 403 571 Q 384 586 355 596 Q 333 605 316 593 Q 232 532 86 525 Q 74 526 72 519 Q 69 509 83 499 Q 120 474 137 477 Q 158 481 177 490 Q 225 509 280 533 Q 298 540 302 533 Q 306 524 295 503 Q 219 361 60 215 Q 45 205 48 201 Q 51 198 64 203 Q 139 239 237 346 L 262 376 Z" class="stroke2"/>
    <path d="M 237 346 Q 268 315 241 133 Q 219 40 255 3 Q 271 -12 282 13 Q 295 50 295 91 Q 296 263 302 302 Q 309 327 300 336 Q 272 369 262 376 C 239 396 220 371 237 346 Z" class="stroke3"/>
    <path d="M 360 377 Q 397 410 417 423 Q 427 427 425 434 Q 419 443 406 453 Q 393 463 379 462 Q 370 461 372 449 Q 375 440 344 383 C 330 357 338 357 360 377 Z" class="stroke4"/>
    <path d="M 344 383 Q 320 398 308 394 Q 304 393 305 384 Q 305 383 381 306 Q 388 297 399 297 Q 406 296 410 305 Q 414 314 409 333 Q 403 358 360 377 L 344 383 Z" class="stroke5"/>
    <path d="M 488 673 Q 506 655 524 634 Q 534 622 548 622 Q 557 622 561 633 Q 565 645 560 669 Q 553 693 486 713 Q 473 717 468 715 Q 464 712 464 701 Q 467 691 488 673 Z" class="stroke6"/>
    <path d="M 725 728 Q 707 703 672 664 Q 666 657 671 651 Q 678 650 685 653 Q 755 690 789 704 Q 805 707 802 717 Q 798 732 782 750 Q 766 766 746 771 Q 733 771 733 754 Q 734 741 725 728 Z" class="stroke7"/>
    <path d="M 643 562 Q 695 574 813 586 Q 823 585 833 598 Q 834 610 811 620 Q 781 641 697 617 Q 663 611 640 603 L 603 596 Q 545 587 448 577 Q 420 573 442 556 Q 469 531 516 539 Q 541 545 573 549 L 643 562 Z" class="stroke8"/>
    <path d="M 640 603 Q 643 724 668 775 Q 674 785 662 798 Q 640 814 612 826 Q 596 833 581 828 Q 568 824 574 809 Q 602 764 601 693 Q 602 641 603 596 L 602 508 Q 601 444 593 414 Q 592 399 598 383 Q 604 374 609 362 Q 619 347 633 356 Q 642 363 643 422 Q 640 494 639 532 L 640 603 Z" class="stroke9"/>
    <path d="M 573 549 Q 519 461 443 398 Q 436 394 429 387 Q 414 375 428 374 Q 485 370 575 473 Q 576 476 579 477 Q 592 493 602 508 C 639 562 595 585 573 549 Z" class="stroke10"/>
    <path d="M 639 532 Q 691 466 750 403 Q 768 384 800 382 Q 858 378 919 388 Q 935 389 936 393 Q 939 399 926 404 Q 776 461 704 511 Q 673 536 643 562 C 620 582 613 564 639 532 Z" class="stroke11"/>
    <path d="M 636 85 Q 694 49 779 -21 Q 804 -42 821 -41 Q 842 -41 842 -21 Q 843 -2 814 45 Q 799 72 663 126 L 616 144 Q 580 157 553 165 Q 531 169 542 191 Q 558 225 568 249 L 586 288 Q 593 309 603 322 Q 613 329 609 339 Q 603 352 564 378 Q 554 387 543 382 Q 530 379 538 363 Q 547 342 532 282 L 519 242 Q 507 209 494 188 Q 485 170 488 158 Q 491 148 508 145 Q 548 135 591 110 L 636 85 Z" class="stroke12"/>
    <path d="M 591 110 Q 531 47 388 9 Q 370 0 391 -2 Q 548 -20 636 85 L 663 126 Q 687 163 701 207 Q 711 244 720 259 C 733 286 733 290 706 304 Q 673 323 649 318 Q 636 314 642 299 Q 643 298 644 295 L 651 256 Q 652 231 638 196 Q 629 168 616 144 L 591 110 Z" class="stroke13"/>
    <path d="M 720 259 Q 775 260 842 259 Q 863 258 882 258 Q 901 257 906 266 Q 912 276 896 291 Q 839 331 786 318 Q 750 314 706 304 L 644 295 Q 617 295 586 288 L 532 282 Q 456 275 372 265 Q 353 264 367 247 Q 380 234 397 227 Q 418 223 433 226 Q 473 236 519 242 L 568 249 Q 605 253 651 256 L 720 259 Z" class="stroke14"/>
    
    
    
    
    
    
    
    
    
    
    
    
    
    </g>
</svg>