<svg version="1.1" viewBox="0 0 1024 1024" xmlns="http://www.w3.org/2000/svg">
  
  <g transform="scale(1, -1) translate(0, -900)">
    <style type="text/css">
        .stroke1 {fill: #808080;}
        .stroke2 {fill: #808079;}
        .stroke3 {fill: #808078;}
        .stroke4 {fill: #808077;}
        .stroke5 {fill: #808076;}
        .stroke6 {fill: #808075;}
        .stroke7 {fill: #808074;}
        .stroke8 {fill: #808073;}
        .stroke9 {fill: #808072;}
        .stroke10 {fill: #808071;}
        .stroke11 {fill: #808070;}
        .stroke12 {fill: #808069;}
        .stroke13 {fill: #808068;}
        .stroke14 {fill: #808067;}
        .stroke15 {fill: #808066;}
        .stroke16 {fill: #808065;}
        .stroke17 {fill: #808064;}
        .stroke18 {fill: #808063;}
        .stroke19 {fill: #808062;}
        .stroke20 {fill: #808061;}
        text {
            font-family: Helvetica;
            font-size: 50px;
            fill: #808060;
            paint-order: stroke;
            stroke: #000000;
            stroke-width: 4px;
            stroke-linecap: butt;
            stroke-linejoin: miter;
            font-weight: 800;
        }
    </style>

    <path d="M 301 752 Q 323 733 345 710 Q 360 697 376 698 Q 388 698 393 712 Q 397 728 387 759 Q 381 777 354 788 Q 285 809 272 803 Q 266 799 268 785 Q 272 775 301 752 Z" class="stroke1"/>
    <path d="M 258 391 Q 319 511 363 550 Q 376 562 364 575 Q 345 588 317 595 Q 295 601 280 589 Q 205 529 68 511 Q 58 512 55 504 Q 54 494 67 486 Q 104 464 120 468 Q 121 468 247 527 Q 262 534 266 528 Q 272 519 262 497 Q 207 353 58 179 Q 45 167 48 164 Q 52 163 63 168 Q 154 225 237 356 L 258 391 Z" class="stroke2"/>
    <path d="M 237 356 Q 255 338 251 247 Q 250 166 228 84 Q 224 66 231 36 Q 241 5 251 -5 Q 267 -20 278 5 Q 291 42 291 83 Q 295 272 302 314 Q 309 339 300 348 Q 270 384 258 391 C 234 410 221 382 237 356 Z" class="stroke3"/>
    <path d="M 357 386 Q 396 431 416 449 Q 428 456 422 463 Q 415 472 398 481 Q 382 490 366 486 Q 356 483 360 470 Q 366 455 343 392 C 333 364 337 363 357 386 Z" class="stroke4"/>
    <path d="M 343 392 Q 322 405 312 402 Q 308 401 309 392 L 377 315 Q 384 306 395 305 Q 402 305 406 313 Q 410 322 406 341 Q 402 366 357 386 L 343 392 Z" class="stroke5"/>
    <path d="M 507 677 Q 497 681 474 683 Q 464 686 460 681 Q 456 675 463 661 Q 481 627 495 578 L 503 548 Q 518 494 529 482 Q 545 463 550 477 Q 550 480 551 483 L 552 504 Q 549 535 542 558 L 537 585 Q 528 628 525 647 C 521 673 521 673 507 677 Z" class="stroke6"/>
    <path d="M 738 513 Q 738 512 739 510 Q 743 497 755 497 Q 768 498 775 511 Q 785 524 807 593 Q 808 597 809 600 L 833 645 Q 842 658 855 667 Q 871 682 857 696 Q 841 711 795 735 Q 782 744 721 726 Q 712 726 672 716 L 622 704 Q 604 701 590 696 Q 541 684 507 677 C 478 671 495 644 525 647 Q 534 646 543 649 Q 571 661 623 672 L 669 682 Q 753 703 769 695 Q 776 691 772 663 Q 768 645 764 629 L 756 595 Q 746 555 741 541 Q 740 540 739 538 C 733 522 733 522 738 513 Z" class="stroke7"/>
    <path d="M 809 600 Q 849 604 898 607 Q 920 608 941 609 Q 957 610 960 617 Q 964 627 950 637 Q 902 670 836 646 Q 835 646 833 645 L 764 629 Q 721 622 669 609 L 625 601 Q 582 594 537 585 L 495 578 Q 450 571 405 562 Q 389 559 401 547 Q 413 537 427 533 Q 443 530 456 534 Q 478 541 503 548 L 542 558 Q 581 570 626 576 L 668 584 Q 705 591 756 595 L 809 600 Z" class="stroke8"/>
    <path d="M 667 502 Q 704 509 738 513 C 768 517 767 527 739 538 Q 715 550 668 531 L 626 521 Q 586 514 552 504 C 523 496 521 484 551 483 Q 557 482 567 484 Q 597 490 626 495 L 667 502 Z" class="stroke9"/>
    <path d="M 494 426 Q 488 432 452 433 Q 442 434 440 430 Q 436 424 445 413 Q 470 379 492 319 Q 496 301 510 291 Q 526 276 529 289 Q 530 296 529 307 L 521 337 Q 508 377 503 398 C 496 425 496 425 494 426 Z" class="stroke10"/>
    <path d="M 806 368 Q 830 405 852 411 Q 867 424 857 441 Q 799 499 749 475 Q 706 462 666 451 L 625 443 Q 561 433 494 426 C 464 423 473 394 503 398 Q 515 399 526 402 Q 575 412 625 419 L 665 426 Q 701 433 740 440 Q 768 446 778 434 Q 782 430 779 419 Q 772 398 763 379 C 751 352 789 343 806 368 Z" class="stroke11"/>
    <path d="M 612 318 Q 690 331 812 340 Q 822 341 823 349 Q 823 356 806 368 C 786 383 786 383 763 379 Q 760 379 664 359 L 624 352 Q 569 343 521 337 C 491 333 499 308 529 307 Q 533 306 544 307 Q 562 311 585 315 L 612 318 Z" class="stroke12"/>
    <path d="M 666 451 Q 666 476 667 502 L 668 531 Q 668 558 668 584 L 669 609 Q 669 646 669 682 L 672 716 Q 672 725 687 805 Q 690 815 670 829 Q 636 847 612 850 Q 596 853 588 845 Q 581 838 590 823 Q 618 783 619 755 Q 620 730 622 704 L 623 672 Q 624 638 625 601 L 626 576 Q 626 549 626 521 L 626 495 Q 626 470 625 443 L 625 419 Q 625 388 624 352 C 623 322 664 329 664 359 Q 664 393 665 426 L 666 451 Z" class="stroke13"/>
    <path d="M 556 208 Q 541 181 527 164 Q 517 148 520 136 Q 521 126 537 123 Q 579 114 629 88 L 671 67 Q 729 36 813 -28 Q 837 -46 852 -44 Q 871 -43 871 -26 Q 870 -7 843 33 Q 828 58 701 103 L 655 119 Q 609 135 577 142 Q 561 146 570 160 L 625 245 Q 632 257 639 264 Q 649 270 647 278 Q 643 291 612 318 C 590 338 585 343 585 315 Q 585 275 584 271 Q 577 253 570 238 L 556 208 Z" class="stroke14"/>
    <path d="M 629 88 Q 563 21 453 -11 Q 440 -15 449 -21 Q 495 -37 577 0 Q 620 16 648 44 Q 658 56 671 67 L 701 103 Q 714 122 727 145 Q 775 227 778 229 C 790 247 790 247 775 266 Q 751 299 728 299 Q 715 298 716 284 Q 719 271 717 257 L 707 225 Q 695 182 655 119 L 629 88 Z" class="stroke15"/>
    <path d="M 778 229 Q 817 230 953 231 Q 969 231 974 238 Q 978 248 965 260 Q 919 294 861 282 Q 822 276 775 266 L 717 257 Q 669 256 625 245 L 570 238 Q 471 228 363 215 Q 345 214 358 198 Q 370 186 385 182 Q 403 178 417 181 Q 483 199 556 208 L 623 218 Q 660 224 707 225 L 778 229 Z" class="stroke16"/>
    
    
    
    
    
    
    
    
    
    
    
    
    
    
    
    </g>
</svg>