<svg version="1.1" viewBox="0 0 1024 1024" xmlns="http://www.w3.org/2000/svg">
  
  <g transform="scale(1, -1) translate(0, -900)">
    <style type="text/css">
        .stroke1 {fill: #808080;}
        .stroke2 {fill: #808079;}
        .stroke3 {fill: #808078;}
        .stroke4 {fill: #808077;}
        .stroke5 {fill: #808076;}
        .stroke6 {fill: #808075;}
        .stroke7 {fill: #808074;}
        .stroke8 {fill: #808073;}
        .stroke9 {fill: #808072;}
        .stroke10 {fill: #808071;}
        .stroke11 {fill: #808070;}
        .stroke12 {fill: #808069;}
        .stroke13 {fill: #808068;}
        .stroke14 {fill: #808067;}
        .stroke15 {fill: #808066;}
        .stroke16 {fill: #808065;}
        .stroke17 {fill: #808064;}
        .stroke18 {fill: #808063;}
        .stroke19 {fill: #808062;}
        .stroke20 {fill: #808061;}
        text {
            font-family: Helvetica;
            font-size: 50px;
            fill: #808060;
            paint-order: stroke;
            stroke: #000000;
            stroke-width: 4px;
            stroke-linecap: butt;
            stroke-linejoin: miter;
            font-weight: 800;
        }
    </style>

    <path d="M 329 753 Q 351 734 377 709 Q 393 694 411 696 Q 423 697 428 712 Q 432 730 421 763 Q 414 782 384 793 Q 309 815 296 807 Q 290 803 293 788 Q 297 775 329 753 Z" class="stroke1"/>
    <path d="M 305 365 Q 330 402 356 445 Q 390 503 438 543 Q 454 553 441 569 Q 422 584 394 594 Q 372 601 355 591 Q 258 525 102 518 Q 89 519 87 512 Q 84 502 99 491 Q 138 466 155 468 Q 176 472 196 481 Q 248 502 310 526 Q 329 533 333 525 Q 340 515 327 491 Q 251 332 75 155 Q 62 145 64 141 Q 67 138 79 144 Q 178 195 279 329 L 305 365 Z" class="stroke2"/>
    <path d="M 279 329 Q 300 281 277 129 Q 255 36 291 -1 Q 307 -16 318 9 Q 331 46 331 87 Q 332 259 338 298 Q 345 323 336 332 Q 321 350 305 365 C 283 386 269 357 279 329 Z" class="stroke3"/>
    <path d="M 373 348 Q 388 330 404 308 Q 414 296 427 295 Q 436 295 441 305 Q 447 317 443 341 Q 439 363 374 388 Q 361 392 356 391 Q 352 388 351 377 Q 352 368 373 348 Z" class="stroke4"/>
    <path d="M 536 725 Q 527 734 507 741 Q 498 745 488 741 Q 481 737 486 725 Q 511 649 502 472 Q 487 381 504 357 Q 508 350 515 341 Q 525 328 534 340 Q 540 350 543 359 L 546 391 Q 546 403 547 475 L 547 503 Q 547 548 548 580 L 548 606 Q 549 676 551 684 Q 552 691 552 697 C 553 712 553 712 536 725 Z" class="stroke5"/>
    <path d="M 721 393 Q 722 380 731 367 Q 744 337 754 338 Q 769 339 785 372 Q 800 399 798 420 Q 770 652 810 715 Q 820 731 812 740 Q 784 762 737 781 Q 721 787 699 777 Q 645 747 536 725 C 507 719 523 690 552 697 Q 558 698 563 699 Q 636 724 692 737 Q 711 743 718 733 Q 734 714 733 645 Q 734 449 724 412 Q 723 411 723 410 L 721 393 Z" class="stroke6"/>
    <path d="M 548 580 Q 554 579 564 581 Q 631 594 680 603 Q 702 607 694 620 Q 682 635 656 637 Q 620 640 548 606 C 521 593 518 582 548 580 Z" class="stroke7"/>
    <path d="M 547 475 L 686 494 Q 711 498 701 512 Q 689 527 663 531 Q 624 535 547 503 C 519 492 517 471 547 475 Z" class="stroke8"/>
    <path d="M 668 385 Q 689 388 721 393 C 739 396 739 396 723 410 Q 716 417 701 425 Q 688 432 661 424 Q 600 405 546 391 C 517 383 514 350 543 359 Q 573 369 626 378 L 668 385 Z" class="stroke9"/>
    <path d="M 544 314 Q 544 203 370 91 Q 363 87 367 82 Q 391 73 463 114 Q 526 147 585 243 Q 595 258 606 272 Q 615 279 611 289 Q 607 299 582 317 Q 564 330 556 329 Q 544 328 544 314 Z" class="stroke10"/>
    <path d="M 626 378 Q 650 354 645 279 Q 642 119 665 82 Q 719 12 889 26 Q 958 33 983 51 Q 1013 67 999 98 Q 981 141 967 217 Q 966 233 957 238 Q 950 242 946 222 Q 933 129 919 113 Q 906 89 802 85 Q 747 85 725 93 Q 704 103 699 115 Q 678 176 699 275 Q 702 300 710 315 Q 725 354 668 385 C 643 401 610 404 626 378 Z" class="stroke11"/>
    
    
    
    
    
    
    
    
    
    
    </g>
</svg>