<svg version="1.1" viewBox="0 0 1024 1024" xmlns="http://www.w3.org/2000/svg">
  
  <g transform="scale(1, -1) translate(0, -900)">
    <style type="text/css">
        .stroke1 {fill: #808080;}
        .stroke2 {fill: #808079;}
        .stroke3 {fill: #808078;}
        .stroke4 {fill: #808077;}
        .stroke5 {fill: #808076;}
        .stroke6 {fill: #808075;}
        .stroke7 {fill: #808074;}
        .stroke8 {fill: #808073;}
        .stroke9 {fill: #808072;}
        .stroke10 {fill: #808071;}
        .stroke11 {fill: #808070;}
        .stroke12 {fill: #808069;}
        .stroke13 {fill: #808068;}
        .stroke14 {fill: #808067;}
        .stroke15 {fill: #808066;}
        .stroke16 {fill: #808065;}
        .stroke17 {fill: #808064;}
        .stroke18 {fill: #808063;}
        .stroke19 {fill: #808062;}
        .stroke20 {fill: #808061;}
        text {
            font-family: Helvetica;
            font-size: 50px;
            fill: #808060;
            paint-order: stroke;
            stroke: #000000;
            stroke-width: 4px;
            stroke-linecap: butt;
            stroke-linejoin: miter;
            font-weight: 800;
        }
    </style>

    <path d="M 296 721 Q 314 733 326 742 Q 374 778 378 780 Q 393 789 384 801 Q 374 813 354 821 Q 336 830 327 827 Q 318 826 322 816 Q 325 800 283 733 C 267 708 271 704 296 721 Z" class="stroke1"/>
    <path d="M 334 500 Q 327 536 321 566 L 317 590 Q 308 645 307 646 L 303 674 Q 297 719 296 721 C 295 726 295 726 283 733 Q 264 745 242 748 Q 230 751 224 744 Q 218 738 225 727 Q 247 697 260 663 Q 270 630 301 496 C 308 467 340 471 334 500 Z" class="stroke2"/>
    <path d="M 307 646 Q 347 658 380 664 Q 396 668 389 678 Q 380 688 360 690 Q 351 690 303 674 C 275 665 278 637 307 646 Z" class="stroke3"/>
    <path d="M 321 566 Q 363 576 395 580 Q 413 584 405 594 Q 396 604 376 607 Q 346 610 317 590 C 292 573 292 559 321 566 Z" class="stroke4"/>
    <path d="M 534 755 Q 558 785 572 791 Q 579 797 577 805 Q 576 812 562 829 Q 549 842 537 844 Q 527 845 528 831 Q 534 818 497 766 L 478 743 Q 460 724 439 701 Q 432 697 430 693 Q 427 687 435 687 Q 450 687 499 725 Q 500 726 503 728 L 534 755 Z" class="stroke5"/>
    <path d="M 503 728 Q 558 695 561 695 Q 565 695 568 702 Q 572 711 561 732 Q 552 750 534 755 L 497 766 L 496 767 Q 459 777 439 780 Q 433 781 434 775 Q 434 771 478 743 L 503 728 Z" class="stroke6"/>
    <path d="M 533 610 Q 543 628 560 635 Q 566 639 564 647 Q 563 654 550 669 Q 538 681 528 682 Q 518 683 520 671 Q 524 659 500 622 L 484 601 Q 465 577 438 552 Q 432 548 430 544 Q 427 540 435 539 Q 448 539 507 585 L 533 610 Z" class="stroke7"/>
    <path d="M 507 585 Q 526 573 547 557 Q 557 550 565 548 Q 569 548 572 554 Q 576 561 567 582 Q 560 598 533 610 L 500 622 Q 466 635 446 640 Q 442 641 442 635 Q 442 634 484 601 L 507 585 Z" class="stroke8"/>
    <path d="M 736 546 Q 779 735 806 755 Q 819 767 812 778 Q 802 794 771 812 Q 756 822 732 814 Q 674 795 626 791 Q 614 791 614 782 Q 615 775 629 769 Q 639 763 704 776 Q 723 780 732 773 Q 738 769 735 750 Q 732 731 729 710 L 725 686 Q 721 658 714 625 L 708 597 Q 702 570 696 540 C 690 511 729 517 736 546 Z" class="stroke9"/>
    <path d="M 729 710 Q 708 725 621 697 Q 620 697 618 696 Q 605 695 620 683 Q 624 679 636 679 Q 685 685 725 686 C 755 687 755 695 729 710 Z" class="stroke10"/>
    <path d="M 714 625 Q 696 628 602 608 Q 589 607 604 595 Q 608 591 622 591 Q 668 595 708 597 C 738 599 744 622 714 625 Z" class="stroke11"/>
    <path d="M 217 488 Q 208 513 189 526 Q 170 539 170 513 Q 179 477 121 397 Q 103 375 132 324 L 133 322 Q 152 300 165 326 Q 178 350 211 456 C 219 482 219 482 217 488 Z" class="stroke12"/>
    <path d="M 211 456 Q 230 447 252 452 Q 427 500 744 518 Q 790 521 808 517 Q 820 508 815 501 Q 815 498 779 427 Q 769 412 775 408 Q 784 404 802 415 Q 860 449 906 460 Q 945 467 944 479 Q 943 489 875 542 Q 856 558 831 557 Q 786 553 736 546 L 696 540 Q 639 540 338 502 Q 335 502 334 500 L 301 496 Q 258 492 217 488 C 187 485 182 463 211 456 Z" class="stroke13"/>
    <path d="M 383 426 Q 367 439 346 445 Q 339 446 334 439 Q 333 435 338 427 Q 339 424 341 420 Q 341 419 342 417 Q 367 332 344 232 Q 335 189 360 162 Q 364 156 370 158 L 371 156 C 381 152 383 162 388 192 Q 388 195 389 197 Q 392 218 393 251 L 393 273 Q 393 300 393 328 L 393 350 Q 393 384 395 399 C 397 416 397 416 383 426 Z" class="stroke14"/>
    <path d="M 601 190 Q 602 186 607 179 Q 617 154 626 154 Q 639 155 652 183 Q 662 201 663 238 Q 648 367 675 408 Q 684 421 678 430 Q 654 451 613 469 Q 600 473 579 467 Q 513 440 383 426 C 353 423 366 392 395 399 Q 395 400 398 400 Q 494 422 563 433 Q 588 437 596 424 Q 606 411 606 367 Q 607 241 602 217 Q 601 217 601 216 C 598 197 598 197 601 190 Z" class="stroke15"/>
    <path d="M 393 328 Q 471 340 530 351 Q 546 354 541 363 Q 534 373 515 376 Q 493 380 393 350 C 364 341 363 323 393 328 Z" class="stroke16"/>
    <path d="M 393 251 Q 396 251 400 251 Q 476 263 533 270 Q 551 271 545 282 Q 536 294 517 298 Q 496 301 393 273 C 364 265 363 251 393 251 Z" class="stroke17"/>
    <path d="M 550 185 Q 575 189 601 190 C 631 191 630 207 601 216 L 595 218 Q 579 222 548 217 Q 463 204 388 192 C 333 183 356 161 401 168 Q 456 177 508 181 L 550 185 Z" class="stroke18"/>
    <path d="M 371 156 Q 371 93 185 -47 Q 173 -50 170 -60 Q 169 -64 174 -65 Q 240 -74 390 73 Q 409 94 421 103 Q 428 110 425 125 Q 418 152 401 168 C 381 190 374 186 371 156 Z" class="stroke19"/>
    <path d="M 508 181 Q 517 172 518 110 Q 518 109 518 106 Q 509 4 538 -27 Q 541 -28 544 -32 Q 632 -101 811 -67 Q 812 -66 817 -65 Q 857 -53 899 -26 Q 918 -10 903 15 Q 890 37 869 111 Q 868 126 861 130 Q 855 133 852 116 Q 830 37 815 12 Q 784 -25 671 -19 Q 628 -16 596 -3 Q 568 10 562 29 Q 547 54 569 149 Q 573 170 550 185 C 528 206 498 209 508 181 Z" class="stroke20"/>
    
    
    
    
    
    
    
    
    
    
    
    
    
    
    
    
    
    
    
    </g>
</svg>