<svg version="1.1" viewBox="0 0 1024 1024" xmlns="http://www.w3.org/2000/svg">
  
  <g transform="scale(1, -1) translate(0, -900)">
    <style type="text/css">
        .stroke1 {fill: #808080;}
        .stroke2 {fill: #808079;}
        .stroke3 {fill: #808078;}
        .stroke4 {fill: #808077;}
        .stroke5 {fill: #808076;}
        .stroke6 {fill: #808075;}
        .stroke7 {fill: #808074;}
        .stroke8 {fill: #808073;}
        .stroke9 {fill: #808072;}
        .stroke10 {fill: #808071;}
        .stroke11 {fill: #808070;}
        .stroke12 {fill: #808069;}
        .stroke13 {fill: #808068;}
        .stroke14 {fill: #808067;}
        .stroke15 {fill: #808066;}
        .stroke16 {fill: #808065;}
        .stroke17 {fill: #808064;}
        .stroke18 {fill: #808063;}
        .stroke19 {fill: #808062;}
        .stroke20 {fill: #808061;}
        text {
            font-family: Helvetica;
            font-size: 50px;
            fill: #808060;
            paint-order: stroke;
            stroke: #000000;
            stroke-width: 4px;
            stroke-linecap: butt;
            stroke-linejoin: miter;
            font-weight: 800;
        }
    </style>

    <path d="M 335 578 Q 363 588 392 594 Q 425 604 429 609 Q 436 616 432 625 Q 425 635 395 641 Q 367 644 338 630 Q 337 630 336 629 L 288 611 Q 222 590 166 581 Q 132 572 158 558 Q 203 540 269 560 Q 278 563 289 565 L 335 578 Z" class="stroke1"/>
    <path d="M 329 423 Q 372 438 424 450 Q 440 454 440 461 Q 440 474 421 481 Q 390 490 330 468 L 285 453 Q 146 411 85 399 Q 72 396 70 388 Q 69 378 84 368 Q 129 344 165 362 Q 234 392 282 409 L 329 423 Z" class="stroke2"/>
    <path d="M 320 331 Q 326 374 329 423 L 330 468 Q 331 523 335 578 L 336 629 Q 343 704 358 746 Q 365 759 353 770 Q 331 788 292 798 Q 267 804 259 797 Q 250 790 258 778 Q 288 733 288 611 L 289 565 Q 289 510 285 453 L 282 409 Q 270 253 198 157 Q 158 111 88 63 Q 76 56 76 51 Q 77 47 89 47 Q 105 43 142 60 Q 274 114 315 297 L 320 331 Z" class="stroke3"/>
    <path d="M 315 297 Q 397 215 408 211 L 411 211 Q 420 210 425 221 Q 429 233 425 257 Q 419 294 320 331 C 292 342 294 318 315 297 Z" class="stroke4"/>
    <path d="M 519 730 Q 500 746 476 752 Q 467 753 461 746 Q 458 740 466 730 Q 509 597 473 432 Q 458 390 464 369 Q 474 336 485 324 Q 495 311 505 324 Q 530 351 531 520 Q 531 652 538 702 C 540 715 540 715 519 730 Z" class="stroke5"/>
    <path d="M 724 388 Q 717 364 731 342 Q 744 314 754 314 Q 769 315 785 348 Q 798 375 798 396 Q 786 487 788 630 Q 788 672 810 707 Q 820 723 813 732 Q 786 756 740 777 Q 724 781 701 774 Q 634 744 519 730 C 489 726 509 696 538 702 Q 539 703 542 703 Q 588 713 625 720 Q 701 736 717 726 Q 729 701 733 633 Q 736 428 724 388 Z" class="stroke6"/>
    <path d="M 623 371 Q 630 428 639 537 Q 640 574 654 616 Q 658 626 651 633 Q 603 673 572 663 Q 556 656 569 641 Q 593 616 593 590 Q 594 451 576 359 Q 549 197 442 99 Q 409 71 358 35 Q 348 29 345 25 Q 341 19 355 19 Q 368 19 414 42 Q 448 58 497 101 Q 534 134 560 176 Q 590 231 616 336 L 623 371 Z" class="stroke7"/>
    <path d="M 977 82 Q 958 131 947 214 Q 944 230 937 234 Q 930 238 927 219 Q 915 114 900 95 Q 875 67 779 63 Q 724 62 701 70 Q 680 80 676 93 Q 666 118 667 186 Q 673 258 687 293 Q 699 321 681 338 Q 641 368 623 371 C 603 379 607 365 616 336 Q 629 305 625 260 Q 619 86 648 54 Q 672 30 732 20 Q 783 13 862 17 Q 934 21 962 37 Q 990 52 977 82 Z" class="stroke8"/>
    
    
    
    
    
    
    
    </g>
</svg>