<svg version="1.1" viewBox="0 0 1024 1024" xmlns="http://www.w3.org/2000/svg">
  
  <g transform="scale(1, -1) translate(0, -900)">
    <style type="text/css">
        .stroke1 {fill: #808080;}
        .stroke2 {fill: #808079;}
        .stroke3 {fill: #808078;}
        .stroke4 {fill: #808077;}
        .stroke5 {fill: #808076;}
        .stroke6 {fill: #808075;}
        .stroke7 {fill: #808074;}
        .stroke8 {fill: #808073;}
        .stroke9 {fill: #808072;}
        .stroke10 {fill: #808071;}
        .stroke11 {fill: #808070;}
        .stroke12 {fill: #808069;}
        .stroke13 {fill: #808068;}
        .stroke14 {fill: #808067;}
        .stroke15 {fill: #808066;}
        .stroke16 {fill: #808065;}
        .stroke17 {fill: #808064;}
        .stroke18 {fill: #808063;}
        .stroke19 {fill: #808062;}
        .stroke20 {fill: #808061;}
        text {
            font-family: Helvetica;
            font-size: 50px;
            fill: #808060;
            paint-order: stroke;
            stroke: #000000;
            stroke-width: 4px;
            stroke-linecap: butt;
            stroke-linejoin: miter;
            font-weight: 800;
        }
    </style>

    <path d="M 281 706 Q 306 743 330 772 Q 340 784 328 798 Q 289 832 268 830 Q 258 829 258 815 Q 264 718 152 614 Q 139 608 106 571 Q 97 558 111 561 Q 129 562 153 579 Q 219 624 262 679 L 281 706 Z" class="stroke1"/>
    <path d="M 314 550 Q 423 668 446 683 Q 462 693 452 705 Q 439 717 405 737 Q 398 740 306 713 Q 291 709 281 706 C 252 698 232 678 262 679 Q 289 679 346 689 Q 355 690 357 688 Q 361 685 355 675 Q 315 593 290 555 Q 286 548 282 542 C 266 517 294 528 314 550 Z" class="stroke2"/>
    <path d="M 192 525 Q 158 549 137 541 Q 127 534 133 522 Q 175 480 144 260 Q 140 241 136 222 Q 118 159 68 52 Q 64 46 63 40 Q 62 30 70 33 Q 103 45 158 159 Q 159 166 164 174 Q 200 273 205 415 Q 208 478 210 491 C 212 512 212 512 192 525 Z" class="stroke3"/>
    <path d="M 456 103 Q 457 119 457 136 Q 442 473 457 506 Q 467 525 459 534 Q 449 547 410 567 Q 394 574 377 571 Q 355 562 314 550 L 282 542 Q 237 535 192 525 C 163 519 181 482 210 491 Q 217 494 262 506 L 296 515 Q 323 522 356 530 Q 375 534 385 525 Q 395 519 398 473 Q 408 319 398 142 Q 397 117 387 109 Q 377 100 323 109 Q 308 112 310 103 Q 311 97 322 92 Q 371 56 397 29 Q 415 13 425 14 Q 435 17 445 41 Q 449 57 453 77 L 456 103 Z" class="stroke4"/>
    <path d="M 279 401 Q 248 392 221 383 Q 208 379 225 367 Q 226 367 278 370 L 316 378 Q 347 384 373 388 Q 392 391 385 402 Q 376 414 355 417 Q 339 418 317 412 L 279 401 Z" class="stroke5"/>
    <path d="M 276 298 Q 240 288 210 279 Q 195 276 214 263 Q 217 262 275 265 L 314 272 Q 345 279 376 282 Q 397 286 389 297 Q 379 310 357 314 Q 341 317 314 310 L 276 298 Z" class="stroke6"/>
    <path d="M 262 506 Q 277 473 279 409 Q 279 406 279 401 L 278 370 Q 277 337 276 298 L 275 265 Q 275 103 285 86 Q 289 82 294 83 Q 313 98 314 272 L 314 310 Q 314 340 316 378 L 317 412 Q 317 419 326 482 Q 329 495 319 502 Q 306 511 296 515 C 269 528 251 534 262 506 Z" class="stroke7"/>
    <path d="M 681 451 Q 705 724 718 765 Q 722 777 702 792 Q 666 811 642 816 Q 626 820 618 811 Q 611 804 618 788 Q 639 758 639 738 Q 646 602 639 441 C 638 411 678 421 681 451 Z" class="stroke8"/>
    <path d="M 516 552 Q 532 528 550 501 Q 560 486 575 483 Q 585 482 593 493 Q 600 506 598 536 Q 595 560 521 598 Q 508 604 500 603 Q 496 600 494 588 Q 495 576 516 552 Z" class="stroke9"/>
    <path d="M 798 631 Q 789 612 725 522 Q 718 506 733 510 Q 751 522 842 591 Q 858 607 882 619 Q 901 631 890 647 Q 877 663 850 675 Q 825 687 813 683 Q 801 682 806 668 Q 810 650 798 631 Z" class="stroke10"/>
    <path d="M 707 416 Q 767 426 856 430 Q 904 434 909 441 Q 913 451 898 463 Q 847 494 794 479 Q 748 467 681 451 L 639 441 Q 563 428 474 409 Q 455 405 470 391 Q 497 369 552 383 Q 556 384 563 386 L 597 395 Q 654 413 669 409 L 707 416 Z" class="stroke11"/>
    <path d="M 563 386 Q 563 385 565 381 Q 589 290 456 103 C 439 78 428 63 453 77 Q 531 116 615 290 Q 622 314 639 338 Q 643 348 635 361 Q 608 394 597 395 C 570 408 554 415 563 386 Z" class="stroke12"/>
    <path d="M 976 93 Q 963 123 944 210 Q 944 226 937 230 Q 931 233 927 216 Q 905 122 888 92 Q 867 70 795 72 Q 768 73 747 82 Q 728 92 724 103 Q 694 164 736 373 Q 742 400 707 416 C 682 432 661 438 669 409 Q 669 406 671 402 Q 683 362 679 326 Q 661 139 676 85 Q 679 67 695 52 Q 764 -2 902 25 Q 903 26 907 26 Q 938 35 971 55 Q 987 70 976 93 Z" class="stroke13"/>
    
    
    
    
    
    
    
    
    
    
    
    
    </g>
</svg>