<svg version="1.1" viewBox="0 0 1024 1024" xmlns="http://www.w3.org/2000/svg">
  
  <g transform="scale(1, -1) translate(0, -900)">
    <style type="text/css">
        .stroke1 {fill: #808080;}
        .stroke2 {fill: #808079;}
        .stroke3 {fill: #808078;}
        .stroke4 {fill: #808077;}
        .stroke5 {fill: #808076;}
        .stroke6 {fill: #808075;}
        .stroke7 {fill: #808074;}
        .stroke8 {fill: #808073;}
        .stroke9 {fill: #808072;}
        .stroke10 {fill: #808071;}
        .stroke11 {fill: #808070;}
        .stroke12 {fill: #808069;}
        .stroke13 {fill: #808068;}
        .stroke14 {fill: #808067;}
        .stroke15 {fill: #808066;}
        .stroke16 {fill: #808065;}
        .stroke17 {fill: #808064;}
        .stroke18 {fill: #808063;}
        .stroke19 {fill: #808062;}
        .stroke20 {fill: #808061;}
        text {
            font-family: Helvetica;
            font-size: 50px;
            fill: #808060;
            paint-order: stroke;
            stroke: #000000;
            stroke-width: 4px;
            stroke-linecap: butt;
            stroke-linejoin: miter;
            font-weight: 800;
        }
    </style>

    <path d="M 361 776 Q 388 754 417 726 Q 432 713 448 714 Q 460 714 465 729 Q 469 744 459 775 Q 453 794 421 809 Q 346 834 332 827 Q 326 823 329 809 Q 333 799 361 776 Z" class="stroke1"/>
    <path d="M 97 592 Q 84 591 80 582 Q 77 572 93 560 Q 135 532 177 547 Q 313 595 457 618 Q 473 621 474 628 Q 475 641 456 650 Q 428 662 405 656 Q 203 607 97 592 Z" class="stroke2"/>
    <path d="M 256 499 Q 223 489 249 477 Q 291 464 357 484 Q 381 491 408 499 Q 424 503 426 506 Q 433 515 428 522 Q 421 532 393 535 Q 381 535 306 511 Q 282 504 256 499 Z" class="stroke3"/>
    <path d="M 249 385 Q 215 375 241 362 Q 284 343 336 363 Q 373 373 410 385 Q 428 389 430 393 Q 437 402 432 409 Q 425 419 395 423 Q 374 426 299 396 Q 277 390 249 385 Z" class="stroke4"/>
    <path d="M 221 262 Q 209 268 176 272 Q 164 273 161 269 Q 155 262 164 247 Q 194 195 214 109 Q 218 84 235 67 Q 254 45 259 62 Q 263 75 260 98 L 254 130 Q 238 206 234 232 C 230 259 230 259 221 262 Z" class="stroke5"/>
    <path d="M 412 160 Q 431 224 453 244 Q 475 269 452 285 Q 433 297 405 315 Q 386 325 366 314 Q 320 284 221 262 C 192 255 206 221 234 232 Q 252 241 337 262 Q 367 269 375 258 Q 379 254 357 161 C 350 132 403 131 412 160 Z" class="stroke6"/>
    <path d="M 260 98 Q 266 98 273 100 Q 319 115 423 131 Q 433 132 433 141 Q 433 148 412 160 C 391 172 386 170 357 161 Q 299 142 254 130 C 225 122 230 96 260 98 Z" class="stroke7"/>
    <path d="M 783 510 Q 843 520 924 524 Q 975 524 982 535 Q 986 547 970 558 Q 916 594 848 571 Q 818 564 783 553 L 728 540 Q 617 518 506 493 Q 487 490 502 475 Q 517 463 533 460 Q 554 456 568 462 Q 682 501 729 501 L 783 510 Z" class="stroke8"/>
    <path d="M 729 501 Q 730 356 734 116 Q 734 91 721 82 Q 715 78 641 81 Q 604 91 607 80 Q 610 71 633 57 Q 703 8 722 -21 Q 743 -55 760 -55 Q 776 -55 790 -16 Q 808 36 802 117 Q 786 313 783 510 L 783 553 Q 783 703 801 771 Q 819 805 756 830 Q 719 849 697 841 Q 678 834 695 808 Q 720 778 722 740 Q 725 721 728 540 L 729 501 Z" class="stroke9"/>
    <path d="M 558 315 Q 574 294 590 268 Q 600 252 618 250 Q 628 249 637 261 Q 644 276 641 308 Q 640 324 615 341 Q 554 374 540 371 Q 534 368 533 354 Q 534 342 558 315 Z" class="stroke10"/>
    
    
    
    
    
    
    
    
    
    </g>
</svg>