<svg version="1.1" viewBox="0 0 1024 1024" xmlns="http://www.w3.org/2000/svg">
  
  <g transform="scale(1, -1) translate(0, -900)">
    <style type="text/css">
        .stroke1 {fill: #808080;}
        .stroke2 {fill: #808079;}
        .stroke3 {fill: #808078;}
        .stroke4 {fill: #808077;}
        .stroke5 {fill: #808076;}
        .stroke6 {fill: #808075;}
        .stroke7 {fill: #808074;}
        .stroke8 {fill: #808073;}
        .stroke9 {fill: #808072;}
        .stroke10 {fill: #808071;}
        .stroke11 {fill: #808070;}
        .stroke12 {fill: #808069;}
        .stroke13 {fill: #808068;}
        .stroke14 {fill: #808067;}
        .stroke15 {fill: #808066;}
        .stroke16 {fill: #808065;}
        .stroke17 {fill: #808064;}
        .stroke18 {fill: #808063;}
        .stroke19 {fill: #808062;}
        .stroke20 {fill: #808061;}
        text {
            font-family: Helvetica;
            font-size: 50px;
            fill: #808060;
            paint-order: stroke;
            stroke: #000000;
            stroke-width: 4px;
            stroke-linecap: butt;
            stroke-linejoin: miter;
            font-weight: 800;
        }
    </style>

    <path d="M 345 769 Q 394 720 415 720 Q 427 721 432 736 Q 436 754 426 787 Q 416 811 337 823 Q 319 827 312 823 Q 306 819 309 804 Q 313 791 345 769 Z" class="stroke1"/>
    <path d="M 84 573 Q 71 572 69 564 Q 66 554 81 543 Q 120 519 157 532 Q 298 583 442 604 Q 458 607 458 614 Q 459 626 442 634 Q 417 644 394 639 Q 190 588 84 573 Z" class="stroke2"/>
    <path d="M 248 483 Q 217 474 241 461 Q 283 448 340 465 Q 370 474 403 482 Q 419 488 422 490 Q 429 499 424 506 Q 417 516 389 519 Q 364 522 300 495 Q 276 488 248 483 Z" class="stroke3"/>
    <path d="M 251 375 Q 220 365 245 353 Q 281 340 343 359 Q 367 368 395 375 Q 408 379 411 382 Q 418 391 412 398 Q 405 408 377 410 Q 349 411 323 397 Q 298 385 251 375 Z" class="stroke4"/>
    <path d="M 211 264 Q 198 268 168 271 Q 155 274 153 268 Q 147 261 157 246 Q 187 197 209 112 Q 215 87 231 70 Q 250 49 254 66 Q 260 82 253 114 L 245 144 Q 229 214 226 237 C 222 261 222 261 211 264 Z" class="stroke5"/>
    <path d="M 397 168 Q 416 232 436 251 Q 458 276 435 290 Q 372 323 369 323 Q 360 323 352 317 Q 310 289 211 264 C 182 257 199 224 226 237 Q 232 243 324 266 Q 354 275 361 263 Q 367 259 361 230 Q 355 205 348 175 C 341 146 388 139 397 168 Z" class="stroke6"/>
    <path d="M 253 114 Q 262 123 404 145 Q 413 146 413 154 Q 413 160 397 168 C 371 182 370 182 348 175 Q 347 175 345 174 Q 290 155 245 144 C 216 137 227 100 253 114 Z" class="stroke7"/>
    <path d="M 514 585 Q 551 527 538 341 Q 532 290 511 230 Q 492 170 418 87 Q 405 74 401 67 Q 400 60 412 61 Q 448 64 510 136 Q 585 233 593 427 Q 593 542 596 564 Q 600 585 580 593 Q 531 614 516 610 Q 497 606 514 585 Z" class="stroke8"/>
    <path d="M 658 635 Q 703 532 664 264 Q 652 219 687 173 Q 697 163 707 174 Q 737 222 730 281 Q 718 471 735 604 Q 742 628 721 639 Q 703 651 686 659 Q 673 663 663 658 Q 654 651 658 635 Z" class="stroke9"/>
    <path d="M 795 807 Q 831 755 833 695 Q 849 224 827 112 Q 808 28 831 -24 Q 837 -54 853 -59 Q 860 -66 867 -57 Q 876 -53 886 -30 Q 896 -2 894 31 Q 876 649 903 752 Q 912 768 908 783 Q 901 793 840 828 Q 815 846 793 829 Q 787 823 795 807 Z" class="stroke10"/>
    
    
    
    
    
    
    
    
    
    </g>
</svg>