<svg version="1.1" viewBox="0 0 1024 1024" xmlns="http://www.w3.org/2000/svg">
  
  <g transform="scale(1, -1) translate(0, -900)">
    <style type="text/css">
        .stroke1 {fill: #808080;}
        .stroke2 {fill: #808079;}
        .stroke3 {fill: #808078;}
        .stroke4 {fill: #808077;}
        .stroke5 {fill: #808076;}
        .stroke6 {fill: #808075;}
        .stroke7 {fill: #808074;}
        .stroke8 {fill: #808073;}
        .stroke9 {fill: #808072;}
        .stroke10 {fill: #808071;}
        .stroke11 {fill: #808070;}
        .stroke12 {fill: #808069;}
        .stroke13 {fill: #808068;}
        .stroke14 {fill: #808067;}
        .stroke15 {fill: #808066;}
        .stroke16 {fill: #808065;}
        .stroke17 {fill: #808064;}
        .stroke18 {fill: #808063;}
        .stroke19 {fill: #808062;}
        .stroke20 {fill: #808061;}
        text {
            font-family: Helvetica;
            font-size: 50px;
            fill: #808060;
            paint-order: stroke;
            stroke: #000000;
            stroke-width: 4px;
            stroke-linecap: butt;
            stroke-linejoin: miter;
            font-weight: 800;
        }
    </style>

    <path d="M 317 767 Q 339 745 361 720 Q 376 705 394 705 Q 406 706 412 721 Q 418 737 409 772 Q 400 802 313 822 Q 295 826 288 823 Q 282 819 284 804 Q 288 791 317 767 Z" class="stroke1"/>
    <path d="M 60 564 Q 47 563 44 554 Q 41 544 57 532 Q 97 505 141 520 Q 288 572 433 597 Q 449 601 450 608 Q 451 621 432 630 Q 404 642 380 635 Q 155 577 60 564 Z" class="stroke2"/>
    <path d="M 198 455 Q 180 449 204 436 Q 211 432 227 434 Q 302 453 356 465 Q 381 472 370 484 Q 357 497 330 500 Q 302 501 198 455 Z" class="stroke3"/>
    <path d="M 197 353 Q 182 349 202 336 Q 211 332 226 335 Q 302 354 358 368 Q 379 374 370 385 Q 358 398 334 399 Q 312 400 274 385 Q 234 367 197 353 Z" class="stroke4"/>
    <path d="M 180 253 Q 170 257 149 261 Q 136 265 133 259 Q 126 253 135 237 Q 160 182 174 90 Q 177 62 192 44 Q 210 22 215 37 Q 222 56 218 94 L 213 128 Q 203 209 202 228 Q 202 229 201 230 L 180 253 Z" class="stroke5"/>
    <path d="M 352 155 Q 368 216 390 237 Q 411 261 389 274 Q 371 284 346 301 Q 327 313 285 285 Q 237 267 180 253 C 151 246 173 220 201 230 Q 204 233 287 253 Q 312 260 319 249 Q 326 243 317 212 Q 311 187 304 158 C 297 129 344 126 352 155 Z" class="stroke6"/>
    <path d="M 218 94 Q 242 106 340 123 Q 341 124 344 123 Q 353 126 364 127 Q 373 128 374 137 Q 374 144 352 155 L 304 158 Q 301 158 300 157 Q 252 139 213 128 C 184 120 191 82 218 94 Z" class="stroke7"/>
    <path d="M 483 499 Q 492 514 503 529 Q 548 592 594 685 Q 613 728 632 750 Q 639 762 634 775 Q 628 787 598 807 Q 570 822 551 820 Q 533 816 543 796 Q 582 730 399 438 Q 395 434 392 427 Q 383 417 381 410 Q 380 398 393 402 Q 417 412 459 468 L 483 499 Z" class="stroke8"/>
    <path d="M 459 468 Q 477 429 485 367 Q 485 213 460 107 Q 448 56 482 17 Q 483 14 486 12 Q 502 -4 514 22 Q 529 62 528 107 Q 525 359 532 415 Q 539 442 530 452 Q 490 495 483 499 C 460 519 447 496 459 468 Z" class="stroke9"/>
    <path d="M 674 376 Q 764 448 838 529 Q 866 563 888 578 Q 898 587 896 601 Q 895 614 870 641 Q 848 663 828 666 Q 809 667 814 645 Q 821 617 809 598 Q 769 529 679 432 L 633 387 Q 584 345 577 335 Q 571 325 586 325 Q 598 325 625 342 Q 628 343 632 346 L 674 376 Z" class="stroke10"/>
    <path d="M 632 346 Q 631 210 643 170 Q 650 143 669 126 Q 723 72 883 82 Q 953 89 980 105 Q 1011 123 997 156 Q 976 202 960 285 Q 957 301 950 306 Q 940 310 938 290 Q 928 188 913 169 Q 900 145 797 141 Q 742 141 719 150 Q 698 159 693 172 Q 674 223 673 356 Q 673 366 674 376 L 679 432 Q 689 523 709 571 Q 722 602 703 620 Q 651 662 635 657 Q 619 651 626 633 Q 645 593 640 536 Q 636 454 633 387 L 632 346 Z" class="stroke11"/>
    
    
    
    
    
    
    
    
    
    
    </g>
</svg>