<svg version="1.1" viewBox="0 0 1024 1024" xmlns="http://www.w3.org/2000/svg">
  
  <g transform="scale(1, -1) translate(0, -900)">
    <style type="text/css">
        .stroke1 {fill: #808080;}
        .stroke2 {fill: #808079;}
        .stroke3 {fill: #808078;}
        .stroke4 {fill: #808077;}
        .stroke5 {fill: #808076;}
        .stroke6 {fill: #808075;}
        .stroke7 {fill: #808074;}
        .stroke8 {fill: #808073;}
        .stroke9 {fill: #808072;}
        .stroke10 {fill: #808071;}
        .stroke11 {fill: #808070;}
        .stroke12 {fill: #808069;}
        .stroke13 {fill: #808068;}
        .stroke14 {fill: #808067;}
        .stroke15 {fill: #808066;}
        .stroke16 {fill: #808065;}
        .stroke17 {fill: #808064;}
        .stroke18 {fill: #808063;}
        .stroke19 {fill: #808062;}
        .stroke20 {fill: #808061;}
        text {
            font-family: Helvetica;
            font-size: 50px;
            fill: #808060;
            paint-order: stroke;
            stroke: #000000;
            stroke-width: 4px;
            stroke-linecap: butt;
            stroke-linejoin: miter;
            font-weight: 800;
        }
    </style>

    <path d="M 299 750 Q 330 728 361 700 Q 377 687 393 689 Q 403 690 409 704 Q 413 720 401 751 Q 389 784 291 800 Q 275 803 268 799 Q 262 795 265 781 Q 269 771 299 750 Z" class="stroke1"/>
    <path d="M 81 549 Q 68 548 66 540 Q 63 530 77 519 Q 114 492 153 505 Q 279 547 433 569 Q 449 570 449 578 Q 450 590 434 598 Q 409 610 387 605 Q 153 554 81 549 Z" class="stroke2"/>
    <path d="M 206 459 Q 173 452 198 437 Q 237 419 288 433 Q 373 454 381 458 Q 388 465 383 473 Q 376 483 349 489 Q 328 492 258 468 Q 234 464 206 459 Z" class="stroke3"/>
    <path d="M 210 358 Q 177 351 202 337 Q 233 322 306 335 Q 333 341 362 348 Q 378 352 380 354 Q 387 361 383 369 Q 376 379 349 385 Q 321 389 295 377 Q 277 371 257 366 Q 236 362 210 358 Z" class="stroke4"/>
    <path d="M 205 244 Q 192 248 170 253 Q 158 256 155 251 Q 149 245 157 230 Q 181 178 196 93 Q 197 68 213 51 Q 229 30 234 45 Q 240 60 237 85 L 233 115 Q 223 196 221 218 C 219 240 219 240 205 244 Z" class="stroke5"/>
    <path d="M 367 136 Q 380 203 400 223 Q 421 248 399 261 Q 380 271 354 286 Q 336 296 294 271 Q 242 253 205 244 C 176 237 192 212 221 218 Q 228 219 237 222 Q 271 231 301 237 Q 322 241 326 234 Q 333 230 328 200 Q 324 173 319 141 C 314 111 361 107 367 136 Z" class="stroke6"/>
    <path d="M 237 85 Q 247 84 256 87 Q 295 97 378 107 Q 388 108 389 117 Q 389 124 367 136 C 344 149 344 149 319 141 Q 318 141 316 140 Q 270 125 233 115 C 204 107 207 86 237 85 Z" class="stroke7"/>
    <path d="M 582 620 Q 678 645 727 670 Q 773 692 815 702 Q 834 703 837 713 Q 841 725 827 736 Q 803 751 756 767 Q 740 774 725 773 Q 718 769 717 756 Q 718 723 572 638 C 546 623 553 612 582 620 Z" class="stroke8"/>
    <path d="M 576 499 Q 579 605 581 613 Q 582 617 582 620 C 583 633 583 633 572 638 Q 521 663 505 659 Q 486 655 502 635 Q 539 581 521 370 Q 514 307 486 235 Q 459 163 374 78 Q 361 65 358 59 Q 357 52 368 53 Q 408 57 475 134 Q 568 245 575 468 L 576 499 Z" class="stroke9"/>
    <path d="M 732 492 Q 789 505 890 510 Q 933 514 937 521 Q 941 531 926 543 Q 869 579 817 556 Q 775 547 717 531 Q 651 516 576 499 C 547 492 545 473 575 468 Q 603 462 621 466 Q 654 478 691 484 L 732 492 Z" class="stroke10"/>
    <path d="M 691 484 Q 690 481 703 457 Q 713 438 715 281 Q 715 -14 727 -36 Q 727 -39 730 -41 Q 736 -48 743 -46 Q 770 -27 772 139 Q 765 349 785 441 Q 788 460 774 469 Q 747 487 732 492 C 705 504 680 512 691 484 Z" class="stroke11"/>
    
    
    
    
    
    
    
    
    
    
    </g>
</svg>