<svg version="1.1" viewBox="0 0 1024 1024" xmlns="http://www.w3.org/2000/svg">
  
  <g transform="scale(1, -1) translate(0, -900)">
    <style type="text/css">
        .stroke1 {fill: #808080;}
        .stroke2 {fill: #808079;}
        .stroke3 {fill: #808078;}
        .stroke4 {fill: #808077;}
        .stroke5 {fill: #808076;}
        .stroke6 {fill: #808075;}
        .stroke7 {fill: #808074;}
        .stroke8 {fill: #808073;}
        .stroke9 {fill: #808072;}
        .stroke10 {fill: #808071;}
        .stroke11 {fill: #808070;}
        .stroke12 {fill: #808069;}
        .stroke13 {fill: #808068;}
        .stroke14 {fill: #808067;}
        .stroke15 {fill: #808066;}
        .stroke16 {fill: #808065;}
        .stroke17 {fill: #808064;}
        .stroke18 {fill: #808063;}
        .stroke19 {fill: #808062;}
        .stroke20 {fill: #808061;}
        text {
            font-family: Helvetica;
            font-size: 50px;
            fill: #808060;
            paint-order: stroke;
            stroke: #000000;
            stroke-width: 4px;
            stroke-linecap: butt;
            stroke-linejoin: miter;
            font-weight: 800;
        }
    </style>

    <path d="M 277 784 Q 308 759 341 726 Q 356 713 372 714 Q 384 715 389 729 Q 393 744 384 775 Q 377 797 343 813 Q 265 843 248 835 Q 242 831 244 817 Q 248 807 277 784 Z" class="stroke1"/>
    <path d="M 59 581 Q 46 578 43 570 Q 40 560 57 548 Q 100 521 141 539 Q 249 584 374 609 Q 390 613 391 620 Q 391 633 372 642 Q 344 652 320 645 Q 140 594 59 581 Z" class="stroke2"/>
    <path d="M 201 484 Q 170 471 196 461 Q 241 449 285 472 Q 313 482 342 495 Q 355 501 357 503 Q 363 512 357 518 Q 348 528 321 528 Q 300 528 239 496 Q 221 489 201 484 Z" class="stroke3"/>
    <path d="M 185 380 Q 154 367 180 357 Q 225 345 269 368 Q 300 381 332 394 Q 347 400 349 403 Q 355 412 349 418 Q 340 428 313 428 Q 286 428 229 395 Q 208 388 185 380 Z" class="stroke4"/>
    <path d="M 170 276 Q 158 280 128 283 Q 116 284 113 280 Q 107 273 117 258 Q 145 212 167 136 Q 171 112 187 98 Q 206 79 210 94 Q 214 107 211 130 L 204 160 Q 188 233 185 252 C 181 273 181 273 170 276 Z" class="stroke5"/>
    <path d="M 332 183 Q 350 247 370 265 Q 389 290 368 302 Q 350 312 325 327 Q 303 340 268 311 Q 199 284 170 276 C 141 268 155 247 185 252 Q 195 253 205 257 Q 242 269 273 278 Q 295 284 300 276 Q 303 273 284 186 C 278 157 324 154 332 183 Z" class="stroke6"/>
    <path d="M 211 130 Q 221 129 233 133 Q 267 143 344 155 Q 353 156 354 165 Q 354 172 332 183 L 284 186 Q 281 186 280 185 Q 237 169 204 160 C 175 152 181 131 211 130 Z" class="stroke7"/>
    <path d="M 642 654 Q 793 703 797 706 Q 804 713 800 721 Q 793 731 765 736 Q 737 740 711 727 Q 653 702 589 680 Q 588 680 587 679 L 528 662 Q 482 652 434 643 Q 401 636 426 621 Q 462 603 510 616 L 568 633 Q 592 640 617 647 L 642 654 Z" class="stroke8"/>
    <path d="M 587 679 Q 605 725 626 784 Q 632 802 637 809 Q 644 816 640 826 Q 628 851 585 855 Q 563 856 553 852 Q 544 848 550 837 Q 571 780 528 662 L 510 616 Q 474 532 359 372 Q 352 365 363 365 Q 414 380 514 527 Q 551 596 568 633 L 587 679 Z" class="stroke9"/>
    <path d="M 617 647 Q 755 464 815 450 Q 821 450 829 449 Q 896 445 968 459 Q 987 460 988 466 Q 989 473 975 478 Q 813 535 793 547 Q 747 571 642 654 C 618 673 599 671 617 647 Z" class="stroke10"/>
    <path d="M 519 488 Q 486 476 513 465 Q 555 450 602 470 Q 635 482 670 494 Q 685 500 687 502 Q 694 511 689 518 Q 680 528 653 530 Q 638 530 567 501 Q 543 494 519 488 Z" class="stroke11"/>
    <path d="M 553 350 Q 601 371 768 390 Q 784 393 787 400 Q 790 410 775 420 Q 723 447 672 425 Q 525 379 412 348 Q 396 344 409 331 Q 422 322 438 319 Q 444 319 512 339 L 553 350 Z" class="stroke12"/>
    <path d="M 512 339 Q 519 324 510 297 Q 494 261 462 239 Q 444 226 447 213 Q 448 198 464 183 Q 476 173 490 180 Q 530 211 605 238 Q 648 254 671 242 Q 693 229 690 194 Q 683 118 645 58 Q 629 34 615 29 Q 596 25 532 45 Q 516 54 514 46 Q 514 40 525 28 Q 561 -12 583 -49 Q 593 -62 603 -61 Q 619 -62 639 -50 Q 708 13 743 172 Q 747 208 760 224 Q 770 234 761 249 Q 700 306 640 276 Q 604 264 553 249 Q 537 246 545 262 Q 567 298 577 305 Q 590 318 580 333 Q 570 343 553 350 C 527 365 509 369 512 339 Z" class="stroke13"/>
    
    
    
    
    
    
    
    
    
    
    
    
    </g>
</svg>