<svg version="1.1" viewBox="0 0 1024 1024" xmlns="http://www.w3.org/2000/svg">
  
  <g transform="scale(1, -1) translate(0, -900)">
    <style type="text/css">
        .stroke1 {fill: #808080;}
        .stroke2 {fill: #808079;}
        .stroke3 {fill: #808078;}
        .stroke4 {fill: #808077;}
        .stroke5 {fill: #808076;}
        .stroke6 {fill: #808075;}
        .stroke7 {fill: #808074;}
        .stroke8 {fill: #808073;}
        .stroke9 {fill: #808072;}
        .stroke10 {fill: #808071;}
        .stroke11 {fill: #808070;}
        .stroke12 {fill: #808069;}
        .stroke13 {fill: #808068;}
        .stroke14 {fill: #808067;}
        .stroke15 {fill: #808066;}
        .stroke16 {fill: #808065;}
        .stroke17 {fill: #808064;}
        .stroke18 {fill: #808063;}
        .stroke19 {fill: #808062;}
        .stroke20 {fill: #808061;}
        text {
            font-family: Helvetica;
            font-size: 50px;
            fill: #808060;
            paint-order: stroke;
            stroke: #000000;
            stroke-width: 4px;
            stroke-linecap: butt;
            stroke-linejoin: miter;
            font-weight: 800;
        }
    </style>

    <path d="M 306 779 Q 328 757 353 732 Q 368 716 386 717 Q 399 718 404 733 Q 410 749 400 784 Q 394 803 364 816 Q 289 843 276 835 Q 270 831 272 816 Q 276 803 306 779 Z" class="stroke1"/>
    <path d="M 70 594 Q 57 593 53 584 Q 49 572 66 560 Q 111 530 153 544 Q 288 587 431 605 Q 449 606 450 615 Q 451 628 432 639 Q 402 652 378 646 Q 146 598 70 594 Z" class="stroke2"/>
    <path d="M 205 483 Q 172 474 197 461 Q 236 445 296 463 Q 324 472 355 479 Q 371 483 374 486 Q 381 495 376 502 Q 369 512 341 516 Q 328 517 254 493 Q 230 487 205 483 Z" class="stroke3"/>
    <path d="M 214 395 Q 181 388 206 373 Q 248 352 295 370 Q 325 377 357 384 Q 370 388 373 390 Q 380 397 376 405 Q 369 415 341 420 Q 313 424 256 402 Q 237 398 214 395 Z" class="stroke4"/>
    <path d="M 181 268 Q 169 272 144 276 Q 132 280 129 274 Q 122 268 131 252 Q 161 191 179 93 Q 183 63 200 43 Q 218 21 223 37 Q 230 59 223 102 Q 222 105 222 106 L 216 139 Q 200 218 199 241 C 197 263 197 263 181 268 Z" class="stroke5"/>
    <path d="M 361 161 Q 379 228 400 247 Q 422 272 399 287 Q 380 299 352 316 Q 333 326 314 315 Q 277 291 181 268 C 152 261 170 233 199 241 Q 199 242 202 242 Q 248 254 289 263 Q 316 270 322 259 Q 329 255 323 225 Q 317 200 311 168 C 305 139 353 132 361 161 Z" class="stroke6"/>
    <path d="M 222 106 Q 228 106 236 108 Q 278 120 370 133 Q 380 134 381 144 Q 381 151 361 161 L 311 168 Q 307 168 302 166 Q 253 150 216 139 C 187 130 192 104 222 106 Z" class="stroke7"/>
    <path d="M 646 691 Q 836 734 847 741 Q 857 750 852 759 Q 843 772 812 779 Q 782 785 689 752 Q 574 727 526 720 Q 486 713 515 695 Q 551 676 599 681 L 646 691 Z" class="stroke8"/>
    <path d="M 650 568 Q 651 578 671 619 Q 687 650 679 664 Q 676 667 675 669 Q 659 682 646 691 C 622 708 590 710 599 681 Q 609 653 606 636 Q 599 596 590 552 L 582 516 Q 567 453 550 385 C 543 356 584 361 593 390 Q 615 462 638 528 L 650 568 Z" class="stroke9"/>
    <path d="M 763 413 Q 790 494 826 520 Q 842 539 828 556 Q 812 569 759 595 Q 741 602 720 594 Q 683 579 650 568 L 590 552 Q 544 543 499 536 Q 483 535 485 525 Q 488 518 506 511 Q 531 501 566 513 Q 573 514 582 516 L 638 528 Q 723 547 732 540 Q 741 531 738 512 Q 725 452 708 405 C 698 377 753 385 763 413 Z" class="stroke10"/>
    <path d="M 550 385 Q 480 379 404 369 Q 385 368 399 351 Q 412 338 429 332 Q 450 326 465 331 Q 627 373 970 374 Q 989 373 994 382 Q 1000 392 984 406 Q 927 449 867 431 Q 821 424 763 413 L 708 405 Q 692 404 676 401 Q 636 397 593 390 L 550 385 Z" class="stroke11"/>
    <path d="M 539 257 Q 526 264 496 269 Q 483 273 479 267 Q 472 261 481 244 Q 511 180 527 73 Q 530 42 547 20 Q 566 -2 571 13 Q 577 28 576 51 L 571 92 Q 556 188 553 221 C 550 251 550 252 539 257 Z" class="stroke12"/>
    <path d="M 800 112 Q 830 193 867 217 Q 886 236 871 257 Q 853 272 793 304 Q 775 313 751 305 Q 675 277 539 257 C 509 253 523 217 553 221 Q 566 222 579 226 Q 658 238 735 249 Q 754 253 762 245 Q 771 235 768 216 Q 756 164 742 121 C 733 92 789 84 800 112 Z" class="stroke13"/>
    <path d="M 576 51 Q 586 51 597 52 Q 664 65 812 72 Q 825 73 827 83 Q 827 92 800 112 L 742 121 Q 739 122 736 121 Q 645 102 571 92 C 541 88 546 50 576 51 Z" class="stroke14"/>
    
    
    
    
    
    
    
    
    
    
    
    
    
    </g>
</svg>