<svg version="1.1" viewBox="0 0 1024 1024" xmlns="http://www.w3.org/2000/svg">
  
  <g transform="scale(1, -1) translate(0, -900)">
    <style type="text/css">
        .stroke1 {fill: #808080;}
        .stroke2 {fill: #808079;}
        .stroke3 {fill: #808078;}
        .stroke4 {fill: #808077;}
        .stroke5 {fill: #808076;}
        .stroke6 {fill: #808075;}
        .stroke7 {fill: #808074;}
        .stroke8 {fill: #808073;}
        .stroke9 {fill: #808072;}
        .stroke10 {fill: #808071;}
        .stroke11 {fill: #808070;}
        .stroke12 {fill: #808069;}
        .stroke13 {fill: #808068;}
        .stroke14 {fill: #808067;}
        .stroke15 {fill: #808066;}
        .stroke16 {fill: #808065;}
        .stroke17 {fill: #808064;}
        .stroke18 {fill: #808063;}
        .stroke19 {fill: #808062;}
        .stroke20 {fill: #808061;}
        text {
            font-family: Helvetica;
            font-size: 50px;
            fill: #808060;
            paint-order: stroke;
            stroke: #000000;
            stroke-width: 4px;
            stroke-linecap: butt;
            stroke-linejoin: miter;
            font-weight: 800;
        }
    </style>

    <path d="M 287 803 Q 312 778 341 749 Q 354 734 372 735 Q 382 735 389 749 Q 393 764 386 796 Q 376 829 283 853 Q 267 857 260 855 Q 254 851 256 838 Q 259 825 287 803 Z" class="stroke1"/>
    <path d="M 47 609 Q 34 606 31 598 Q 28 588 45 576 Q 84 554 138 570 Q 237 610 386 641 Q 402 645 403 652 Q 403 665 384 674 Q 356 684 332 677 Q 130 622 47 609 Z" class="stroke2"/>
    <path d="M 198 520 Q 167 508 193 497 Q 230 488 290 506 Q 312 515 340 523 Q 353 527 355 530 Q 362 539 357 546 Q 348 556 321 557 Q 300 558 239 531 Q 220 525 198 520 Z" class="stroke3"/>
    <path d="M 187 413 Q 157 404 181 393 Q 212 378 274 397 Q 302 406 336 416 Q 352 420 354 424 Q 361 431 356 438 Q 349 448 323 451 Q 296 452 238 426 Q 214 419 187 413 Z" class="stroke4"/>
    <path d="M 153 290 Q 140 294 121 296 Q 109 299 107 294 Q 101 287 109 273 Q 137 216 156 124 Q 160 96 176 79 Q 194 58 198 73 Q 205 92 197 134 L 196 135 C 192 148 196 141 190 170 Q 174 248 174 266 C 173 285 173 285 153 290 Z" class="stroke5"/>
    <path d="M 328 197 Q 344 258 362 277 Q 383 302 360 315 Q 341 325 314 341 Q 296 351 278 339 Q 239 311 153 290 C 124 283 146 257 174 266 Q 219 281 256 291 Q 281 298 287 288 Q 294 284 288 256 Q 284 231 279 202 C 274 172 320 168 328 197 Z" class="stroke6"/>
    <path d="M 196 135 Q 295 160 340 168 Q 350 171 350 180 Q 350 187 328 197 C 302 209 302 209 279 202 Q 275 201 270 199 Q 227 183 190 170 C 162 160 167 128 196 135 Z" class="stroke7"/>
    <path d="M 474 720 Q 464 724 442 729 Q 430 732 427 727 Q 420 721 428 706 Q 458 636 472 524 Q 475 490 493 467 Q 509 446 515 461 Q 516 468 518 479 L 518 511 L 516 535 Q 497 653 493 688 Q 492 689 494 689 C 494 713 494 713 474 720 Z" class="stroke8"/>
    <path d="M 717 506 Q 733 481 748 473 Q 758 464 775 486 Q 791 511 826 649 Q 836 680 860 705 Q 873 717 862 732 Q 847 748 804 776 Q 783 788 722 769 Q 719 769 569 740 Q 517 728 474 720 C 445 714 465 681 494 689 Q 528 699 578 710 L 622 719 Q 748 744 765 731 Q 778 721 774 699 Q 747 558 727 538 C 712 513 712 513 717 506 Z" class="stroke9"/>
    <path d="M 637 606 Q 671 615 705 620 Q 727 626 717 637 Q 707 650 682 653 Q 666 654 640 646 L 592 628 Q 562 618 538 609 Q 522 605 542 591 L 594 596 L 637 606 Z" class="stroke10"/>
    <path d="M 632 497 Q 668 501 717 506 C 747 509 752 522 727 538 Q 712 553 633 534 L 595 525 Q 555 518 518 511 C 489 505 488 477 518 479 Q 522 479 528 480 Q 553 487 595 492 L 632 497 Z" class="stroke11"/>
    <path d="M 631 361 Q 718 376 854 378 Q 909 378 916 387 Q 920 399 905 411 Q 857 445 821 437 Q 751 421 631 398 L 592 391 Q 498 378 391 361 Q 372 358 386 343 Q 399 330 417 326 Q 436 322 451 326 Q 502 342 558 350 L 631 361 Z" class="stroke12"/>
    <path d="M 631 398 Q 631 447 632 497 L 633 534 Q 634 574 637 606 L 640 646 Q 643 700 641 704 Q 631 711 622 719 C 598 738 568 738 578 710 Q 590 686 592 645 Q 592 638 592 628 L 594 596 Q 595 563 595 525 L 595 492 Q 594 446 592 391 L 588 306 Q 575 90 561 52 Q 552 10 588 -42 Q 600 -61 608 -67 Q 621 -68 626 -54 Q 639 -20 635 12 Q 631 178 630 325 L 631 398 Z" class="stroke13"/>
    <path d="M 558 350 Q 525 245 325 95 Q 310 83 325 82 Q 355 79 443 139 Q 477 163 540 235 Q 570 272 588 306 C 621 366 573 393 558 350 Z" class="stroke14"/>
    <path d="M 630 325 Q 694 241 767 164 Q 791 139 832 137 Q 907 133 985 148 Q 1004 149 1006 155 Q 1009 162 993 169 Q 810 229 743 275 Q 713 294 686 316 Q 647 347 630 360 Q 630 361 631 361 L 630 361 C 608 381 612 349 630 325 Z" class="stroke15"/>
    
    
    
    
    
    
    
    
    
    
    
    
    
    
    </g>
</svg>