<svg version="1.1" viewBox="0 0 1024 1024" xmlns="http://www.w3.org/2000/svg">
  
  <g transform="scale(1, -1) translate(0, -900)">
    <style type="text/css">
        .stroke1 {fill: #808080;}
        .stroke2 {fill: #808079;}
        .stroke3 {fill: #808078;}
        .stroke4 {fill: #808077;}
        .stroke5 {fill: #808076;}
        .stroke6 {fill: #808075;}
        .stroke7 {fill: #808074;}
        .stroke8 {fill: #808073;}
        .stroke9 {fill: #808072;}
        .stroke10 {fill: #808071;}
        .stroke11 {fill: #808070;}
        .stroke12 {fill: #808069;}
        .stroke13 {fill: #808068;}
        .stroke14 {fill: #808067;}
        .stroke15 {fill: #808066;}
        .stroke16 {fill: #808065;}
        .stroke17 {fill: #808064;}
        .stroke18 {fill: #808063;}
        .stroke19 {fill: #808062;}
        .stroke20 {fill: #808061;}
        text {
            font-family: Helvetica;
            font-size: 50px;
            fill: #808060;
            paint-order: stroke;
            stroke: #000000;
            stroke-width: 4px;
            stroke-linecap: butt;
            stroke-linejoin: miter;
            font-weight: 800;
        }
    </style>

    <path d="M 266 773 Q 293 751 321 725 Q 336 712 353 713 Q 363 714 369 728 Q 373 744 362 775 Q 350 808 259 823 Q 243 826 236 823 Q 230 819 233 805 Q 237 795 266 773 Z" class="stroke1"/>
    <path d="M 56 559 Q 43 558 40 549 Q 37 539 53 528 Q 92 503 133 516 Q 235 555 370 579 Q 386 582 386 589 Q 387 602 369 610 Q 341 620 319 615 Q 130 567 56 559 Z" class="stroke2"/>
    <path d="M 187 463 Q 159 454 181 444 Q 218 429 260 445 Q 296 457 334 469 Q 352 475 354 477 Q 360 484 356 491 Q 349 500 325 503 Q 310 503 238 476 Q 214 469 187 463 Z" class="stroke3"/>
    <path d="M 183 357 Q 152 347 177 337 Q 208 325 269 343 Q 296 352 325 360 Q 340 366 342 368 Q 349 375 344 382 Q 337 392 311 394 Q 287 395 228 369 Q 207 363 183 357 Z" class="stroke4"/>
    <path d="M 155 244 Q 145 250 110 256 Q 100 257 96 253 Q 92 249 99 234 Q 127 179 145 87 Q 149 60 165 42 Q 181 23 186 37 Q 192 56 185 92 L 179 121 Q 164 194 161 219 C 158 243 158 243 155 244 Z" class="stroke5"/>
    <path d="M 302 144 Q 315 213 334 234 Q 353 258 332 269 Q 277 296 267 294 Q 261 293 256 289 Q 219 262 155 244 C 126 236 134 206 161 219 Q 164 223 238 243 Q 260 250 266 241 Q 273 237 267 206 Q 263 181 257 149 C 252 120 296 115 302 144 Z" class="stroke6"/>
    <path d="M 185 92 Q 191 92 197 94 Q 231 106 309 121 Q 318 122 318 131 Q 318 135 302 144 L 257 149 Q 251 149 249 147 Q 209 131 179 121 C 151 111 155 90 185 92 Z" class="stroke7"/>
    <path d="M 471 637 Q 455 650 429 658 Q 411 665 401 660 Q 391 653 398 641 Q 416 623 422 539 Q 421 535 422 530 Q 429 373 399 248 Q 372 152 308 24 Q 304 18 303 12 Q 302 2 310 6 Q 322 7 355 57 Q 469 216 471 525 Q 471 576 474 607 C 476 634 476 634 471 637 Z" class="stroke8"/>
    <path d="M 474 607 Q 480 608 490 612 Q 623 640 757 670 Q 770 674 779 665 Q 785 655 783 638 Q 723 122 895 -2 Q 907 -11 923 -20 Q 960 -36 978 -26 Q 990 -20 986 0 Q 973 79 973 163 Q 974 173 969 181 Q 962 188 959 172 Q 943 109 929 82 Q 914 57 898 77 Q 847 119 822 244 Q 797 374 826 577 Q 830 617 869 656 Q 884 669 867 683 Q 855 696 805 721 Q 790 730 754 709 Q 681 678 471 637 C 442 631 445 600 474 607 Z" class="stroke9"/>
    <path d="M 601 481 Q 700 514 713 516 Q 726 516 730 522 Q 734 531 724 540 Q 678 579 649 574 Q 643 571 642 562 Q 642 529 501 470 Q 497 463 501 460 Q 516 460 564 471 L 601 481 Z" class="stroke10"/>
    <path d="M 512 363 Q 505 367 483 372 Q 474 373 472 371 Q 468 367 473 355 Q 491 316 501 252 Q 502 233 513 220 Q 525 205 529 216 Q 530 222 531 231 L 530 251 Q 530 257 519 340 C 516 361 516 361 512 363 Z" class="stroke11"/>
    <path d="M 708 287 Q 726 342 750 359 Q 762 372 751 385 Q 738 395 701 412 Q 692 415 619 389 L 578 377 Q 544 370 512 363 C 483 357 489 335 519 340 Q 528 341 538 344 Q 556 348 578 353 L 619 363 Q 673 379 683 372 Q 690 363 672 288 C 665 259 698 259 708 287 Z" class="stroke12"/>
    <path d="M 617 244 Q 669 254 717 261 Q 736 264 729 274 Q 722 284 708 287 L 672 288 Q 650 285 617 274 L 579 264 Q 554 258 530 251 C 501 243 501 232 531 231 Q 538 230 550 232 Q 563 235 579 237 L 617 244 Z" class="stroke13"/>
    <path d="M 615 135 Q 616 193 617 244 L 617 274 Q 617 320 619 363 L 619 389 Q 619 416 621 443 Q 627 462 601 481 C 578 500 555 500 564 471 Q 573 450 578 377 L 578 353 Q 578 319 579 264 L 579 237 Q 579 189 579 126 C 579 96 614 105 615 135 Z" class="stroke14"/>
    <path d="M 685 154 Q 651 147 615 135 L 579 126 Q 533 116 487 104 Q 471 100 446 102 Q 436 101 434 93 Q 431 83 439 75 Q 458 62 484 44 Q 493 41 503 48 Q 521 61 675 127 Q 685 131 694 136 C 721 150 714 160 685 154 Z" class="stroke15"/>
    <path d="M 694 136 Q 736 46 745 42 Q 752 39 758 45 Q 765 52 768 72 Q 772 97 749 133 Q 721 164 689 195 Q 682 202 676 202 Q 672 201 670 193 L 685 154 L 694 136 Z" class="stroke16"/>
    
    
    
    
    
    
    
    
    
    
    
    
    
    
    
    </g>
</svg>