<svg version="1.1" viewBox="0 0 1024 1024" xmlns="http://www.w3.org/2000/svg">
  
  <g transform="scale(1, -1) translate(0, -900)">
    <style type="text/css">
        .stroke1 {fill: #808080;}
        .stroke2 {fill: #808079;}
        .stroke3 {fill: #808078;}
        .stroke4 {fill: #808077;}
        .stroke5 {fill: #808076;}
        .stroke6 {fill: #808075;}
        .stroke7 {fill: #808074;}
        .stroke8 {fill: #808073;}
        .stroke9 {fill: #808072;}
        .stroke10 {fill: #808071;}
        .stroke11 {fill: #808070;}
        .stroke12 {fill: #808069;}
        .stroke13 {fill: #808068;}
        .stroke14 {fill: #808067;}
        .stroke15 {fill: #808066;}
        .stroke16 {fill: #808065;}
        .stroke17 {fill: #808064;}
        .stroke18 {fill: #808063;}
        .stroke19 {fill: #808062;}
        .stroke20 {fill: #808061;}
        text {
            font-family: Helvetica;
            font-size: 50px;
            fill: #808060;
            paint-order: stroke;
            stroke: #000000;
            stroke-width: 4px;
            stroke-linecap: butt;
            stroke-linejoin: miter;
            font-weight: 800;
        }
    </style>

    <path d="M 281 759 Q 315 735 354 706 Q 370 693 386 696 Q 396 697 401 712 Q 404 728 391 758 Q 378 792 271 809 Q 255 810 248 807 Q 244 803 246 789 Q 250 779 281 759 Z" class="stroke1"/>
    <path d="M 48 568 Q 35 567 32 558 Q 29 548 45 536 Q 85 509 129 524 Q 261 572 393 593 Q 409 597 410 604 Q 411 617 392 626 Q 364 638 341 631 Q 146 583 48 568 Z" class="stroke2"/>
    <path d="M 196 479 Q 165 470 189 457 Q 231 444 288 461 Q 318 470 351 478 Q 367 484 370 486 Q 377 495 372 502 Q 365 512 337 515 Q 312 518 248 491 Q 224 484 196 479 Z" class="stroke3"/>
    <path d="M 183 365 Q 153 356 177 345 Q 207 330 278 352 Q 312 362 347 374 Q 366 381 370 384 Q 377 391 372 398 Q 365 408 339 411 Q 318 412 245 381 Q 215 372 183 365 Z" class="stroke4"/>
    <path d="M 167 251 Q 154 255 124 260 Q 112 261 109 257 Q 103 250 112 235 Q 143 177 165 82 Q 169 54 187 35 Q 206 13 211 30 Q 217 51 208 91 L 201 121 Q 183 203 180 226 C 177 248 177 248 167 251 Z" class="stroke5"/>
    <path d="M 330 148 Q 348 215 370 237 Q 391 261 369 274 Q 311 305 307 305 Q 298 305 290 299 Q 251 272 167 251 C 138 244 151 218 180 226 L 267 251 Q 292 258 299 249 Q 306 243 298 212 Q 291 182 281 148 C 273 119 322 119 330 148 Z" class="stroke6"/>
    <path d="M 208 91 Q 215 90 225 93 Q 262 105 344 119 Q 354 120 354 129 Q 354 136 330 148 L 281 148 L 280 148 Q 235 132 201 121 C 172 112 178 92 208 91 Z" class="stroke7"/>
    <path d="M 616 757 Q 635 781 663 797 Q 673 803 671 815 Q 670 825 652 849 Q 634 868 619 872 Q 603 873 606 855 Q 612 828 541 748 Q 507 714 463 675 Q 453 669 450 665 Q 446 656 457 656 Q 472 655 545 701 L 553 706 Q 571 721 594 738 L 616 757 Z" class="stroke8"/>
    <path d="M 546 488 Q 550 492 559 496 Q 671 566 789 686 Q 811 710 845 732 Q 860 739 856 749 Q 855 758 802 787 Q 786 797 767 788 Q 743 778 708 770 Q 660 763 616 757 C 586 753 565 746 594 738 Q 618 723 726 740 Q 741 741 745 735 Q 746 729 736 716 Q 646 586 391 436 Q 376 427 389 424 Q 416 424 509 468 L 546 488 Z" class="stroke9"/>
    <path d="M 545 701 Q 545 700 546 696 Q 546 681 589 637 Q 601 628 610 623 Q 620 620 628 629 Q 634 638 633 650 Q 626 680 568 704 Q 559 707 553 706 C 544 705 544 705 545 701 Z" class="stroke10"/>
    <path d="M 478 602 Q 499 563 520 549 Q 530 545 540 553 Q 547 562 547 575 Q 544 605 507 624 Q 480 636 474 634 Q 470 634 469 624 Q 469 615 478 602 Z" class="stroke11"/>
    <path d="M 552 426 Q 561 441 570 446 Q 576 450 574 458 Q 571 476 546 488 C 520 502 512 498 509 468 Q 509 419 397 309 Q 390 305 399 303 Q 450 303 538 408 L 552 426 Z" class="stroke12"/>
    <path d="M 640 398 Q 791 431 799 438 Q 808 445 803 453 Q 796 463 769 470 Q 751 473 657 445 Q 570 429 552 426 C 522 421 522 421 538 408 Q 553 393 591 392 L 640 398 Z" class="stroke13"/>
    <path d="M 657 265 Q 775 287 919 288 Q 940 288 945 298 Q 949 310 933 322 Q 881 358 845 347 Q 776 329 660 304 L 603 294 Q 518 279 423 262 Q 404 259 419 243 Q 432 230 450 226 Q 471 222 486 227 Q 540 245 603 256 L 657 265 Z" class="stroke14"/>
    <path d="M 647 116 Q 651 198 657 265 L 660 304 Q 660 325 664 349 Q 673 373 640 398 C 617 417 578 419 591 392 Q 603 377 603 294 L 603 256 Q 603 201 603 108 C 603 78 646 86 647 116 Z" class="stroke15"/>
    <path d="M 798 140 Q 717 131 647 116 L 603 108 Q 539 96 482 78 Q 469 77 473 92 Q 491 152 484 168 Q 472 187 451 203 Q 441 210 431 209 Q 419 206 425 187 Q 435 148 425 113 Q 418 79 401 66 Q 382 50 388 36 Q 398 20 414 9 Q 427 2 436 8 Q 457 29 586 65 Q 766 119 812 103 C 841 97 828 143 798 140 Z" class="stroke16"/>
    <path d="M 812 103 Q 824 72 837 35 Q 841 20 853 15 Q 860 11 870 18 Q 879 25 885 51 Q 898 88 867 143 Q 789 254 773 254 Q 767 253 763 244 Q 762 235 798 140 L 812 103 Z" class="stroke17"/>
    
    
    
    
    
    
    
    
    
    
    
    
    
    
    
    
    </g>
</svg>