<svg version="1.1" viewBox="0 0 1024 1024" xmlns="http://www.w3.org/2000/svg">
  
  <g transform="scale(1, -1) translate(0, -900)">
    <style type="text/css">
        .stroke1 {fill: #808080;}
        .stroke2 {fill: #808079;}
        .stroke3 {fill: #808078;}
        .stroke4 {fill: #808077;}
        .stroke5 {fill: #808076;}
        .stroke6 {fill: #808075;}
        .stroke7 {fill: #808074;}
        .stroke8 {fill: #808073;}
        .stroke9 {fill: #808072;}
        .stroke10 {fill: #808071;}
        .stroke11 {fill: #808070;}
        .stroke12 {fill: #808069;}
        .stroke13 {fill: #808068;}
        .stroke14 {fill: #808067;}
        .stroke15 {fill: #808066;}
        .stroke16 {fill: #808065;}
        .stroke17 {fill: #808064;}
        .stroke18 {fill: #808063;}
        .stroke19 {fill: #808062;}
        .stroke20 {fill: #808061;}
        text {
            font-family: Helvetica;
            font-size: 50px;
            fill: #808060;
            paint-order: stroke;
            stroke: #000000;
            stroke-width: 4px;
            stroke-linecap: butt;
            stroke-linejoin: miter;
            font-weight: 800;
        }
    </style>

    <path d="M 288 784 Q 312 762 337 735 Q 352 722 368 722 Q 378 723 385 737 Q 389 752 381 783 Q 375 802 345 816 Q 275 843 260 835 Q 254 831 256 818 Q 260 806 288 784 Z" class="stroke1"/>
    <path d="M 47 587 Q 34 586 32 577 Q 29 567 45 556 Q 81 534 134 550 Q 230 587 378 619 Q 394 622 395 629 Q 395 642 377 650 Q 349 660 327 654 Q 134 600 47 587 Z" class="stroke2"/>
    <path d="M 160 479 Q 127 469 153 457 Q 195 442 243 459 Q 283 472 325 485 Q 344 491 346 494 Q 353 503 348 510 Q 341 520 313 523 Q 289 524 218 494 Q 191 487 160 479 Z" class="stroke3"/>
    <path d="M 179 373 Q 148 364 173 352 Q 215 339 257 355 Q 293 367 331 379 Q 347 385 350 388 Q 357 395 352 402 Q 345 412 319 414 Q 300 415 232 387 Q 208 380 179 373 Z" class="stroke4"/>
    <path d="M 162 249 Q 152 255 117 260 Q 105 263 103 257 Q 97 251 106 236 Q 136 179 155 85 Q 159 57 176 38 Q 194 19 198 33 Q 205 54 196 94 L 189 127 Q 176 196 171 221 C 166 247 166 247 162 249 Z" class="stroke5"/>
    <path d="M 318 152 Q 337 219 355 238 Q 376 263 353 276 Q 334 286 307 301 Q 289 310 248 284 Q 220 269 162 249 C 134 239 142 212 171 221 Q 211 234 254 248 Q 276 255 283 246 Q 289 240 272 154 C 266 125 310 123 318 152 Z" class="stroke6"/>
    <path d="M 196 94 Q 241 109 331 123 Q 341 124 342 133 Q 341 140 318 152 L 272 154 Q 269 154 268 153 Q 223 137 189 127 C 160 118 167 85 196 94 Z" class="stroke7"/>
    <path d="M 428 739 Q 416 736 415 732 Q 414 728 426 723 Q 450 717 476 729 Q 518 754 529 750 Q 539 746 539 713 Q 535 593 527 568 Q 523 552 530 539 Q 537 527 547 529 Q 557 533 563 546 Q 573 567 581 659 Q 588 704 614 732 Q 627 748 612 758 Q 596 770 551 785 Q 536 792 430 740 Q 429 740 428 739 Z" class="stroke8"/>
    <path d="M 438 655 Q 466 622 488 613 Q 498 612 504 621 Q 508 628 506 641 Q 502 657 490 665 Q 475 675 446 681 Q 436 685 429 682 Q 425 681 426 672 Q 427 665 438 655 Z" class="stroke9"/>
    <path d="M 382 518 Q 373 517 374 506 Q 375 497 385 495 Q 413 488 425 486 Q 438 485 449 497 Q 456 510 499 558 Q 509 567 512 573 Q 515 580 506 580 Q 502 579 494 574 Q 406 525 382 518 Z" class="stroke10"/>
    <path d="M 653 802 Q 640 801 637 795 Q 636 791 650 783 Q 677 774 709 786 Q 769 808 779 804 Q 792 798 790 762 Q 781 624 773 596 Q 769 577 776 562 Q 783 546 796 549 Q 809 553 815 569 Q 828 591 839 695 Q 849 747 882 780 Q 898 798 882 811 Q 863 826 811 846 Q 796 853 752 837 Q 721 828 695 817 Q 670 807 653 802 Z" class="stroke11"/>
    <path d="M 674 709 Q 692 685 710 681 Q 720 680 725 688 Q 728 697 726 707 Q 720 722 709 729 Q 690 739 666 734 Q 665 734 664 733 Q 660 732 663 725 Q 664 718 674 709 Z" class="stroke12"/>
    <path d="M 637 591 Q 630 590 629 580 Q 630 568 648 559 Q 664 547 673 547 Q 680 548 685 561 Q 709 589 766 645 Q 770 649 768 653 Q 767 656 761 653 Q 664 592 637 591 Z" class="stroke13"/>
    <path d="M 640 520 Q 647 530 646 538 Q 642 548 620 554 Q 596 561 586 558 Q 580 557 578 545 Q 562 460 376 299 Q 358 286 381 289 Q 471 310 587 455 L 627 504 L 640 520 Z" class="stroke14"/>
    <path d="M 627 504 Q 795 333 841 326 Q 881 319 983 344 Q 999 348 1000 352 Q 1001 358 988 362 Q 945 375 895 386 Q 787 413 642 519 Q 641 520 640 520 C 615 537 606 525 627 504 Z" class="stroke15"/>
    <path d="M 603 434 Q 607 385 534 309 Q 513 287 461 245 Q 455 241 463 239 Q 494 239 577 304 Q 578 307 581 308 Q 608 333 650 386 Q 656 393 659 395 Q 665 399 664 407 Q 664 414 655 423 Q 630 448 609 444 Q 602 443 603 434 Z" class="stroke16"/>
    <path d="M 639 335 Q 643 287 561 203 Q 539 181 481 137 Q 475 133 483 131 Q 558 131 684 285 Q 691 292 695 295 Q 701 299 700 306 Q 696 327 668 340 Q 653 346 645 345 Q 638 344 639 335 Z" class="stroke17"/>
    <path d="M 690 242 Q 693 164 555 36 Q 549 33 544 27 Q 504 -10 402 -77 Q 395 -81 404 -85 Q 464 -85 589 10 Q 667 80 743 170 Q 753 183 760 187 Q 767 191 768 201 Q 764 229 727 246 Q 708 256 698 255 Q 689 254 690 242 Z" class="stroke18"/>
    
    
    
    
    
    
    
    
    
    
    
    
    
    
    
    
    
    </g>
</svg>