<svg version="1.1" viewBox="0 0 1024 1024" xmlns="http://www.w3.org/2000/svg">
  
  <g transform="scale(1, -1) translate(0, -900)">
    <style type="text/css">
        .stroke1 {fill: #808080;}
        .stroke2 {fill: #808079;}
        .stroke3 {fill: #808078;}
        .stroke4 {fill: #808077;}
        .stroke5 {fill: #808076;}
        .stroke6 {fill: #808075;}
        .stroke7 {fill: #808074;}
        .stroke8 {fill: #808073;}
        .stroke9 {fill: #808072;}
        .stroke10 {fill: #808071;}
        .stroke11 {fill: #808070;}
        .stroke12 {fill: #808069;}
        .stroke13 {fill: #808068;}
        .stroke14 {fill: #808067;}
        .stroke15 {fill: #808066;}
        .stroke16 {fill: #808065;}
        .stroke17 {fill: #808064;}
        .stroke18 {fill: #808063;}
        .stroke19 {fill: #808062;}
        .stroke20 {fill: #808061;}
        text {
            font-family: Helvetica;
            font-size: 50px;
            fill: #808060;
            paint-order: stroke;
            stroke: #000000;
            stroke-width: 4px;
            stroke-linecap: butt;
            stroke-linejoin: miter;
            font-weight: 800;
        }
    </style>

    <path d="M 254 788 Q 282 764 314 735 Q 327 722 342 723 Q 352 724 357 737 Q 361 750 353 779 Q 341 815 249 834 Q 234 838 228 835 Q 224 831 225 819 Q 228 809 254 788 Z" class="stroke1"/>
    <path d="M 63 601 Q 51 600 48 592 Q 47 582 61 571 Q 97 547 160 570 Q 229 597 354 620 Q 370 623 370 630 Q 371 642 354 650 Q 327 660 306 654 Q 140 611 63 601 Z" class="stroke2"/>
    <path d="M 184 499 Q 156 492 177 480 Q 204 465 278 483 Q 299 489 323 495 Q 339 499 341 501 Q 348 508 343 515 Q 336 524 313 528 Q 298 529 232 508 Q 211 504 184 499 Z" class="stroke3"/>
    <path d="M 191 399 Q 163 390 185 380 Q 215 368 283 387 Q 301 393 322 399 Q 335 403 338 405 Q 344 412 340 419 Q 333 428 309 431 Q 284 432 261 420 Q 240 411 191 399 Z" class="stroke4"/>
    <path d="M 162 288 Q 150 292 126 296 Q 116 299 112 294 Q 108 288 115 274 Q 140 225 156 143 Q 159 118 173 102 Q 189 83 194 97 Q 198 113 195 139 L 190 167 Q 177 240 176 263 C 175 284 175 284 162 288 Z" class="stroke5"/>
    <path d="M 329 195 Q 345 256 363 274 Q 384 299 361 311 Q 343 321 317 337 Q 301 346 253 317 Q 222 305 162 288 C 133 280 147 257 176 263 Q 183 264 197 268 Q 234 278 265 287 Q 286 293 292 284 Q 298 280 292 251 Q 288 226 281 197 C 274 168 321 166 329 195 Z" class="stroke6"/>
    <path d="M 195 139 Q 202 138 213 141 Q 253 154 340 169 Q 349 170 349 178 Q 349 185 329 195 C 307 207 307 207 281 197 Q 230 178 190 167 C 161 159 165 140 195 139 Z" class="stroke7"/>
    <path d="M 453 679 Q 453 680 454 681 Q 457 688 451 695 Q 441 710 429 715 Q 420 719 411 719 Q 402 718 407 706 L 409 704 Q 418 661 371 584 Q 368 580 369 577 Q 369 573 372 574 Q 405 586 443 661 L 453 679 Z" class="stroke8"/>
    <path d="M 525 663 Q 549 672 575 678 Q 591 682 593 684 Q 599 691 595 696 Q 589 703 568 707 Q 547 710 527 700 L 489 687 Q 470 683 453 679 C 424 672 417 671 443 661 Q 456 655 489 655 L 525 663 Z" class="stroke9"/>
    <path d="M 521 596 Q 522 630 525 663 L 527 700 Q 528 757 541 815 Q 544 824 528 835 Q 503 848 484 851 Q 472 854 466 847 Q 460 841 467 830 Q 483 809 483 794 Q 487 743 489 687 L 489 655 Q 489 622 489 585 C 489 555 520 566 521 596 Z" class="stroke10"/>
    <path d="M 495 556 Q 529 571 576 584 Q 586 587 587 591 Q 586 601 573 604 Q 548 611 521 596 L 489 585 Q 357 543 357 540 L 357 539 Q 356 532 367 526 Q 395 511 422 524 Q 434 530 445 535 L 495 556 Z" class="stroke11"/>
    <path d="M 445 535 Q 435 484 357 392 Q 347 382 362 386 Q 401 398 468 491 Q 468 495 491 528 C 514 561 462 609 445 535 Z" class="stroke12"/>
    <path d="M 491 528 Q 501 489 483 462 Q 467 438 498 414 L 499 413 Q 505 409 512 420 Q 527 445 580 507 Q 589 517 590 521 Q 590 528 579 521 Q 557 506 534 489 Q 527 483 523 485 Q 519 486 518 494 Q 524 533 519 539 Q 506 554 495 556 C 484 560 484 557 491 528 Z" class="stroke13"/>
    <path d="M 662 700 Q 666 715 676 727 Q 680 734 676 740 Q 672 746 655 755 Q 639 762 629 759 Q 619 756 626 746 Q 638 730 608 641 Q 604 634 603 631 Q 603 625 610 628 Q 622 632 654 685 L 662 700 Z" class="stroke14"/>
    <path d="M 752 686 Q 783 696 821 705 Q 842 712 845 715 Q 851 722 847 727 Q 841 736 819 740 Q 794 743 755 724 L 714 711 Q 690 707 664 701 Q 663 701 662 700 C 638 692 638 692 654 685 Q 678 673 714 676 L 752 686 Z" class="stroke15"/>
    <path d="M 746 629 Q 747 659 752 686 L 755 724 Q 755 751 773 837 Q 776 846 761 857 Q 733 873 715 876 Q 702 879 696 872 Q 690 866 696 855 Q 711 834 711 820 Q 714 768 714 711 L 714 676 Q 713 649 713 620 C 713 590 745 599 746 629 Z" class="stroke16"/>
    <path d="M 761 604 Q 797 611 850 616 L 870 618 Q 882 619 884 625 Q 887 632 876 639 Q 837 660 785 640 Q 767 636 746 629 L 713 620 Q 664 608 610 594 Q 597 593 608 582 Q 617 575 628 573 Q 638 573 659 578 L 676 583 Q 700 592 730 598 Q 731 599 735 599 L 761 604 Z" class="stroke17"/>
    <path d="M 659 578 Q 658 578 659 577 Q 662 559 618 494 Q 617 494 616 492 Q 603 477 569 447 Q 565 444 570 442 Q 597 442 648 485 Q 649 488 651 488 Q 670 504 699 540 Q 703 544 706 546 Q 710 549 710 555 Q 706 571 682 582 Q 679 583 676 583 C 659 586 659 586 659 578 Z" class="stroke18"/>
    <path d="M 735 599 Q 735 598 736 594 Q 746 569 744 545 Q 741 478 764 459 Q 815 419 917 446 Q 939 453 961 471 Q 974 481 965 499 Q 958 515 946 566 Q 946 578 941 581 Q 937 584 932 571 Q 910 516 896 500 Q 889 493 871 487 Q 829 475 794 485 Q 781 489 778 497 Q 771 515 779 577 Q 782 595 761 604 C 735 620 727 624 735 599 Z" class="stroke19"/>
    <path d="M 521 386 Q 515 392 499 399 Q 492 402 484 399 Q 478 395 483 386 Q 507 290 486 208 Q 476 166 501 136 Q 508 126 517 136 Q 518 140 521 143 C 527 153 527 153 527 173 Q 527 179 528 217 L 528 236 Q 529 264 530 286 L 530 304 Q 531 349 533 354 Q 533 358 533 360 C 534 376 534 376 521 386 Z" class="stroke20"/>
    <path d="M 728 165 Q 729 158 735 151 Q 745 126 754 126 Q 767 127 780 155 Q 790 173 791 210 Q 776 333 803 372 Q 812 385 805 394 Q 781 415 740 432 Q 727 436 706 430 Q 637 399 521 386 C 491 382 503 359 533 360 Q 540 359 550 361 Q 712 404 724 388 Q 734 375 734 333 Q 735 216 730 190 L 728 165 Z" class="stroke21"/>
    <path d="M 530 286 L 669 307 Q 688 311 681 322 Q 671 334 651 336 Q 627 337 530 304 C 502 294 500 282 530 286 Z" class="stroke22"/>
    <path d="M 528 217 Q 531 217 669 236 Q 688 239 681 250 Q 672 262 651 265 Q 627 268 528 236 C 499 227 498 214 528 217 Z" class="stroke23"/>
    <path d="M 521 143 Q 528 143 537 144 Q 597 157 728 165 C 758 167 753 171 730 190 Q 726 194 718 199 Q 705 206 677 201 Q 595 182 527 173 C 497 169 491 142 521 143 Z" class="stroke24"/>
    <path d="M 535 114 Q 519 59 358 -38 Q 337 -48 362 -49 Q 425 -53 543 36 Q 544 39 548 40 Q 579 64 593 74 Q 603 83 603 91 Q 602 104 581 114 Q 557 127 546 126 Q 539 125 535 114 Z" class="stroke25"/>
    <path d="M 685 93 Q 730 38 783 -40 Q 795 -62 809 -68 Q 816 -69 825 -62 Q 838 -52 833 -8 Q 829 49 690 122 Q 683 128 678 117 Q 677 104 685 93 Z" class="stroke26"/>
    
    
    
    
    
    
    
    
    
    
    
    
    
    
    
    
    
    
    
    
    
    
    
    
    
    </g>
</svg>