<svg version="1.1" viewBox="0 0 1024 1024" xmlns="http://www.w3.org/2000/svg">
  
  <g transform="scale(1, -1) translate(0, -900)">
    <style type="text/css">
        .stroke1 {fill: #808080;}
        .stroke2 {fill: #808079;}
        .stroke3 {fill: #808078;}
        .stroke4 {fill: #808077;}
        .stroke5 {fill: #808076;}
        .stroke6 {fill: #808075;}
        .stroke7 {fill: #808074;}
        .stroke8 {fill: #808073;}
        .stroke9 {fill: #808072;}
        .stroke10 {fill: #808071;}
        .stroke11 {fill: #808070;}
        .stroke12 {fill: #808069;}
        .stroke13 {fill: #808068;}
        .stroke14 {fill: #808067;}
        .stroke15 {fill: #808066;}
        .stroke16 {fill: #808065;}
        .stroke17 {fill: #808064;}
        .stroke18 {fill: #808063;}
        .stroke19 {fill: #808062;}
        .stroke20 {fill: #808061;}
        text {
            font-family: Helvetica;
            font-size: 50px;
            fill: #808060;
            paint-order: stroke;
            stroke: #000000;
            stroke-width: 4px;
            stroke-linecap: butt;
            stroke-linejoin: miter;
            font-weight: 800;
        }
    </style>

    <path d="M 329 762 Q 363 731 401 693 Q 416 677 434 678 Q 446 678 452 693 Q 459 709 449 744 Q 443 769 406 789 Q 319 826 300 819 Q 294 815 295 800 Q 299 787 329 762 Z" class="stroke1"/>
    <path d="M 193 512 Q 139 496 110 494 Q 94 495 92 487 Q 88 478 99 470 Q 144 443 177 457 Q 286 505 289 504 Q 293 505 298 501 Q 307 495 299 385 Q 296 270 264 167 Q 245 131 289 78 Q 299 65 311 71 Q 320 78 333 104 Q 379 153 474 239 Q 487 249 486 258 Q 485 268 472 258 Q 427 234 383 206 Q 322 160 336 232 Q 335 296 359 456 Q 363 481 388 507 Q 401 517 391 531 Q 379 549 339 568 Q 326 575 307 563 Q 234 524 193 512 Z" class="stroke2"/>
    <path d="M 720 584 Q 789 599 925 609 Q 937 608 948 622 Q 949 635 924 648 Q 884 672 815 652 Q 631 615 486 601 Q 453 597 478 577 Q 517 547 547 554 Q 602 564 669 575 L 720 584 Z" class="stroke3"/>
    <path d="M 669 575 Q 687 521 687 493 Q 696 142 682 110 Q 679 109 679 106 Q 666 97 635 107 Q 610 114 578 120 Q 565 124 565 116 Q 565 107 577 97 Q 647 42 694 -4 Q 707 -14 722 4 Q 767 64 760 150 Q 745 342 755 517 Q 762 547 755 558 Q 746 570 720 584 C 694 599 660 604 669 575 Z" class="stroke4"/>
    
    
    
    </g>
</svg>