<svg version="1.1" viewBox="0 0 1024 1024" xmlns="http://www.w3.org/2000/svg">
  
  <g transform="scale(1, -1) translate(0, -900)">
    <style type="text/css">
        .stroke1 {fill: #808080;}
        .stroke2 {fill: #808079;}
        .stroke3 {fill: #808078;}
        .stroke4 {fill: #808077;}
        .stroke5 {fill: #808076;}
        .stroke6 {fill: #808075;}
        .stroke7 {fill: #808074;}
        .stroke8 {fill: #808073;}
        .stroke9 {fill: #808072;}
        .stroke10 {fill: #808071;}
        .stroke11 {fill: #808070;}
        .stroke12 {fill: #808069;}
        .stroke13 {fill: #808068;}
        .stroke14 {fill: #808067;}
        .stroke15 {fill: #808066;}
        .stroke16 {fill: #808065;}
        .stroke17 {fill: #808064;}
        .stroke18 {fill: #808063;}
        .stroke19 {fill: #808062;}
        .stroke20 {fill: #808061;}
        text {
            font-family: Helvetica;
            font-size: 50px;
            fill: #808060;
            paint-order: stroke;
            stroke: #000000;
            stroke-width: 4px;
            stroke-linecap: butt;
            stroke-linejoin: miter;
            font-weight: 800;
        }
    </style>

    <path d="M 282 734 Q 319 707 357 675 Q 373 662 391 663 Q 404 664 408 680 Q 412 698 400 731 Q 387 767 273 788 Q 255 791 248 787 Q 242 783 245 768 Q 249 755 282 734 Z" class="stroke1"/>
    <path d="M 141 462 Q 90 447 62 445 Q 47 445 44 438 Q 40 429 52 421 Q 74 406 91 404 Q 107 400 218 452 Q 245 465 254 457 Q 261 453 254 343 Q 250 226 214 122 Q 196 88 241 38 Q 251 25 262 32 Q 269 39 281 63 Q 323 118 408 211 Q 421 223 418 230 Q 417 239 405 229 Q 362 199 319 166 Q 277 130 284 183 Q 285 250 313 415 Q 317 440 341 463 Q 354 473 344 486 Q 334 502 294 521 Q 282 528 264 517 Q 186 477 141 462 Z" class="stroke2"/>
    <path d="M 643 175 Q 647 299 652 416 L 653 448 Q 656 578 677 668 Q 681 681 657 697 Q 617 718 590 722 Q 571 726 562 716 Q 553 707 563 690 Q 594 647 595 615 Q 607 408 596 168 C 595 138 642 145 643 175 Z" class="stroke3"/>
    <path d="M 652 416 Q 700 412 766 428 Q 854 453 857 455 Q 866 464 860 472 Q 853 484 822 489 Q 791 493 761 478 Q 736 468 709 460 Q 682 454 653 448 C 624 442 622 418 652 416 Z" class="stroke4"/>
    <path d="M 596 168 Q 509 156 413 143 Q 391 142 407 123 Q 438 95 489 106 Q 621 142 906 142 Q 927 142 931 151 Q 937 163 920 177 Q 868 216 826 208 Q 759 193 643 175 L 596 168 Z" class="stroke5"/>
    
    
    
    
    </g>
</svg>