<svg version="1.1" viewBox="0 0 1024 1024" xmlns="http://www.w3.org/2000/svg">
  
  <g transform="scale(1, -1) translate(0, -900)">
    <style type="text/css">
        .stroke1 {fill: #808080;}
        .stroke2 {fill: #808079;}
        .stroke3 {fill: #808078;}
        .stroke4 {fill: #808077;}
        .stroke5 {fill: #808076;}
        .stroke6 {fill: #808075;}
        .stroke7 {fill: #808074;}
        .stroke8 {fill: #808073;}
        .stroke9 {fill: #808072;}
        .stroke10 {fill: #808071;}
        .stroke11 {fill: #808070;}
        .stroke12 {fill: #808069;}
        .stroke13 {fill: #808068;}
        .stroke14 {fill: #808067;}
        .stroke15 {fill: #808066;}
        .stroke16 {fill: #808065;}
        .stroke17 {fill: #808064;}
        .stroke18 {fill: #808063;}
        .stroke19 {fill: #808062;}
        .stroke20 {fill: #808061;}
        text {
            font-family: Helvetica;
            font-size: 50px;
            fill: #808060;
            paint-order: stroke;
            stroke: #000000;
            stroke-width: 4px;
            stroke-linecap: butt;
            stroke-linejoin: miter;
            font-weight: 800;
        }
    </style>

    <path d="M 310 766 Q 344 739 379 706 Q 394 693 411 693 Q 423 694 428 708 Q 434 724 423 757 Q 411 796 304 819 Q 288 823 280 819 Q 274 815 276 801 Q 280 788 310 766 Z" class="stroke1"/>
    <path d="M 138 516 Q 86 497 56 494 Q 40 494 38 486 Q 34 476 46 469 Q 89 444 119 457 Q 168 481 213 507 Q 240 522 250 514 Q 260 507 256 479 Q 257 433 255 387 Q 256 255 223 134 Q 207 100 254 47 Q 266 34 276 42 Q 283 49 295 75 Q 337 133 424 234 Q 437 247 434 254 Q 431 263 420 252 Q 375 219 332 183 Q 286 143 293 201 Q 290 279 313 473 Q 317 498 340 524 Q 353 536 342 549 Q 330 565 288 583 Q 275 589 257 577 Q 181 532 138 516 Z" class="stroke2"/>
    <path d="M 562 612 Q 626 631 696 650 Q 709 654 720 645 Q 727 633 727 615 Q 687 98 891 -2 Q 931 -21 950 -10 Q 963 -3 958 18 Q 948 114 953 213 Q 954 225 949 232 Q 942 242 938 223 Q 916 144 899 109 Q 881 76 859 102 Q 811 138 786 245 Q 756 351 776 551 Q 780 594 820 640 Q 835 656 817 669 Q 802 682 746 708 Q 725 720 705 702 Q 660 666 453 620 Q 438 617 447 608 Q 454 601 469 597 Q 493 593 531 604 L 562 612 Z" class="stroke3"/>
    <path d="M 574 370 Q 673 401 678 406 Q 685 415 680 422 Q 673 432 645 435 Q 611 438 580 418 L 540 402 Q 536 402 535 401 Q 504 391 464 383 Q 433 374 457 361 Q 494 349 536 358 L 574 370 Z" class="stroke4"/>
    <path d="M 580 418 Q 593 527 603 561 Q 607 579 593 589 Q 580 602 562 612 C 537 628 516 630 531 604 Q 552 583 548 482 Q 547 481 547 477 Q 544 437 540 402 L 536 358 Q 515 199 478 116 Q 457 65 486 26 Q 496 11 506 24 Q 537 54 559 232 Q 563 283 570 332 Q 571 351 574 370 L 580 418 Z" class="stroke5"/>
    
    
    
    
    </g>
</svg>