<svg version="1.1" viewBox="0 0 1024 1024" xmlns="http://www.w3.org/2000/svg">
  
  <g transform="scale(1, -1) translate(0, -900)">
    <style type="text/css">
        .stroke1 {fill: #808080;}
        .stroke2 {fill: #808079;}
        .stroke3 {fill: #808078;}
        .stroke4 {fill: #808077;}
        .stroke5 {fill: #808076;}
        .stroke6 {fill: #808075;}
        .stroke7 {fill: #808074;}
        .stroke8 {fill: #808073;}
        .stroke9 {fill: #808072;}
        .stroke10 {fill: #808071;}
        .stroke11 {fill: #808070;}
        .stroke12 {fill: #808069;}
        .stroke13 {fill: #808068;}
        .stroke14 {fill: #808067;}
        .stroke15 {fill: #808066;}
        .stroke16 {fill: #808065;}
        .stroke17 {fill: #808064;}
        .stroke18 {fill: #808063;}
        .stroke19 {fill: #808062;}
        .stroke20 {fill: #808061;}
        text {
            font-family: Helvetica;
            font-size: 50px;
            fill: #808060;
            paint-order: stroke;
            stroke: #000000;
            stroke-width: 4px;
            stroke-linecap: butt;
            stroke-linejoin: miter;
            font-weight: 800;
        }
    </style>

    <path d="M 290 725 Q 327 698 365 665 Q 381 652 397 653 Q 407 654 413 668 Q 417 684 406 715 Q 399 739 361 754 Q 274 785 260 775 Q 254 771 257 757 Q 261 747 290 725 Z" class="stroke1"/>
    <path d="M 160 475 Q 109 459 81 457 Q 66 457 64 449 Q 60 440 71 433 Q 107 411 147 422 Q 252 477 263 469 Q 272 463 265 351 Q 264 230 230 121 Q 211 88 256 37 Q 266 24 277 31 Q 286 38 297 63 Q 340 118 432 211 Q 445 223 442 230 Q 441 239 429 229 Q 383 198 337 164 Q 289 125 298 184 Q 297 254 323 427 Q 327 452 350 476 Q 362 486 352 499 Q 342 515 302 533 Q 289 540 272 529 Q 202 489 160 475 Z" class="stroke2"/>
    <path d="M 541 608 Q 596 538 624 537 Q 637 536 645 555 Q 646 568 636 590 Q 626 606 601 616 Q 562 634 545 636 Q 535 637 534 626 Q 533 617 541 608 Z" class="stroke3"/>
    <path d="M 686 239 Q 740 387 766 529 Q 773 569 795 617 Q 802 627 794 637 Q 778 656 743 675 Q 724 687 705 683 Q 684 679 698 658 Q 723 625 719 594 Q 698 408 649 283 L 625 234 Q 615 221 606 206 Q 578 166 533 135 Q 490 102 400 65 Q 387 61 383 58 Q 377 52 393 48 Q 469 41 593 118 Q 617 136 635 157 Q 645 170 657 186 L 686 239 Z" class="stroke4"/>
    <path d="M 657 186 Q 736 69 756 57 Q 819 39 941 39 Q 962 38 970 46 Q 974 53 963 59 Q 795 126 753 169 Q 729 190 686 239 L 649 283 Q 592 356 524 460 Q 512 484 492 488 Q 462 492 453 483 Q 449 477 458 470 Q 498 442 521 399 Q 575 311 625 234 L 657 186 Z" class="stroke5"/>
    
    
    
    
    </g>
</svg>