<svg version="1.1" viewBox="0 0 1024 1024" xmlns="http://www.w3.org/2000/svg">
  
  <g transform="scale(1, -1) translate(0, -900)">
    <style type="text/css">
        .stroke1 {fill: #808080;}
        .stroke2 {fill: #808079;}
        .stroke3 {fill: #808078;}
        .stroke4 {fill: #808077;}
        .stroke5 {fill: #808076;}
        .stroke6 {fill: #808075;}
        .stroke7 {fill: #808074;}
        .stroke8 {fill: #808073;}
        .stroke9 {fill: #808072;}
        .stroke10 {fill: #808071;}
        .stroke11 {fill: #808070;}
        .stroke12 {fill: #808069;}
        .stroke13 {fill: #808068;}
        .stroke14 {fill: #808067;}
        .stroke15 {fill: #808066;}
        .stroke16 {fill: #808065;}
        .stroke17 {fill: #808064;}
        .stroke18 {fill: #808063;}
        .stroke19 {fill: #808062;}
        .stroke20 {fill: #808061;}
        text {
            font-family: Helvetica;
            font-size: 50px;
            fill: #808060;
            paint-order: stroke;
            stroke: #000000;
            stroke-width: 4px;
            stroke-linecap: butt;
            stroke-linejoin: miter;
            font-weight: 800;
        }
    </style>

    <path d="M 266 754 Q 296 729 327 698 Q 342 685 359 685 Q 371 686 376 701 Q 382 717 371 749 Q 359 783 260 807 Q 244 811 236 807 Q 230 803 232 789 Q 236 776 266 754 Z" class="stroke1"/>
    <path d="M 152 532 Q 101 516 73 513 Q 58 513 56 505 Q 52 496 63 489 Q 105 464 133 476 Q 176 497 215 518 Q 240 531 249 524 Q 259 517 254 492 Q 247 315 211 206 Q 192 173 235 121 Q 245 108 256 115 Q 265 122 276 146 Q 315 194 396 275 Q 409 287 406 294 Q 405 303 393 293 Q 356 271 319 246 Q 270 209 281 267 Q 282 328 309 483 Q 313 507 336 531 Q 349 541 339 554 Q 329 570 289 589 Q 277 596 260 584 Q 191 545 152 532 Z" class="stroke2"/>
    <path d="M 494 641 Q 478 654 452 662 Q 433 671 421 665 Q 411 658 418 644 Q 433 629 440 575 Q 440 559 442 539 Q 449 395 421 273 Q 397 179 336 62 Q 332 55 331 49 Q 330 39 339 42 Q 352 45 384 92 Q 495 243 496 530 Q 496 572 500 608 C 503 635 503 635 494 641 Z" class="stroke3"/>
    <path d="M 500 608 Q 507 611 731 671 Q 744 675 754 666 Q 761 656 759 638 Q 717 137 906 34 Q 907 33 911 31 Q 948 12 967 21 Q 979 27 976 48 Q 969 130 976 217 Q 977 229 973 236 Q 966 246 962 228 Q 940 165 923 138 Q 904 104 882 131 Q 834 167 810 284 Q 786 390 806 576 Q 809 618 849 661 Q 862 674 846 688 Q 833 701 779 726 Q 758 736 740 720 Q 695 687 494 641 C 465 634 471 600 500 608 Z" class="stroke4"/>
    <path d="M 652 350 Q 667 383 692 495 Q 698 511 701 520 Q 708 536 693 548 Q 656 575 642 575 Q 626 575 635 554 Q 647 521 621 397 Q 620 394 619 390 L 603 344 Q 564 263 483 201 Q 468 192 465 188 Q 462 182 473 181 Q 504 178 562 219 Q 595 244 616 275 Q 622 285 629 297 L 652 350 Z" class="stroke5"/>
    <path d="M 629 297 Q 698 171 703 167 Q 709 164 717 170 Q 729 177 729 212 Q 732 251 652 350 L 619 390 Q 571 447 543 476 Q 537 482 533 473 Q 530 463 536 454 Q 567 403 603 344 L 629 297 Z" class="stroke6"/>
    
    
    
    
    
    </g>
</svg>