<svg version="1.1" viewBox="0 0 1024 1024" xmlns="http://www.w3.org/2000/svg">
  
  <g transform="scale(1, -1) translate(0, -900)">
    <style type="text/css">
        .stroke1 {fill: #808080;}
        .stroke2 {fill: #808079;}
        .stroke3 {fill: #808078;}
        .stroke4 {fill: #808077;}
        .stroke5 {fill: #808076;}
        .stroke6 {fill: #808075;}
        .stroke7 {fill: #808074;}
        .stroke8 {fill: #808073;}
        .stroke9 {fill: #808072;}
        .stroke10 {fill: #808071;}
        .stroke11 {fill: #808070;}
        .stroke12 {fill: #808069;}
        .stroke13 {fill: #808068;}
        .stroke14 {fill: #808067;}
        .stroke15 {fill: #808066;}
        .stroke16 {fill: #808065;}
        .stroke17 {fill: #808064;}
        .stroke18 {fill: #808063;}
        .stroke19 {fill: #808062;}
        .stroke20 {fill: #808061;}
        text {
            font-family: Helvetica;
            font-size: 50px;
            fill: #808060;
            paint-order: stroke;
            stroke: #000000;
            stroke-width: 4px;
            stroke-linecap: butt;
            stroke-linejoin: miter;
            font-weight: 800;
        }
    </style>

    <path d="M 292 765 Q 323 737 355 704 Q 370 689 387 690 Q 399 690 405 705 Q 409 721 401 754 Q 392 788 288 818 Q 272 822 264 819 Q 258 815 260 801 Q 264 788 292 765 Z" class="stroke1"/>
    <path d="M 141 511 Q 89 495 62 493 Q 46 493 44 485 Q 40 478 52 469 Q 74 454 91 452 Q 110 446 214 499 Q 242 514 252 505 Q 262 498 256 470 Q 256 430 254 388 Q 253 270 221 161 Q 203 128 249 77 Q 259 64 270 71 Q 277 78 289 103 Q 328 155 408 243 Q 421 255 418 262 Q 417 271 405 261 Q 366 236 327 205 Q 281 168 289 224 Q 288 293 311 463 Q 315 488 338 512 Q 351 522 341 536 Q 329 552 290 570 Q 277 576 260 565 Q 184 525 141 511 Z" class="stroke2"/>
    <path d="M 592 627 Q 619 658 650 698 Q 671 729 689 743 Q 698 752 695 765 Q 691 778 667 800 Q 643 819 625 820 Q 607 819 614 799 Q 623 778 602 734 Q 551 640 452 528 Q 442 519 440 514 Q 436 504 449 505 Q 473 508 577 611 Q 577 612 578 612 L 592 627 Z" class="stroke3"/>
    <path d="M 654 445 Q 673 467 718 525 Q 758 579 797 610 Q 815 620 803 633 Q 790 645 753 664 Q 744 667 648 638 Q 615 631 592 627 C 562 622 558 621 578 612 Q 594 599 664 608 Q 697 617 703 612 Q 707 608 702 597 Q 665 506 640 462 Q 633 449 630 439 C 619 411 635 422 654 445 Z" class="stroke4"/>
    <path d="M 778 156 Q 805 339 858 395 Q 876 416 859 435 Q 840 450 781 475 Q 762 484 738 473 Q 695 457 654 445 L 630 439 Q 626 439 624 438 Q 551 422 472 414 Q 454 413 456 402 Q 459 395 478 387 Q 503 377 540 388 Q 631 404 718 421 Q 740 425 749 417 Q 768 401 764 364 Q 748 246 722 155 C 714 126 773 126 778 156 Z" class="stroke5"/>
    <path d="M 451 261 Q 426 257 446 243 Q 476 222 499 229 Q 583 250 694 267 Q 703 266 710 277 Q 711 287 691 296 Q 658 312 597 290 Q 587 289 576 285 Q 546 278 451 261 Z" class="stroke6"/>
    <path d="M 722 155 Q 578 127 466 117 Q 444 116 456 96 Q 463 86 474 81 Q 487 77 501 80 Q 595 99 801 110 Q 813 111 815 121 Q 816 130 782 154 Q 781 155 778 156 L 722 155 Z" class="stroke7"/>
    
    
    
    
    
    
    </g>
</svg>