<svg version="1.1" viewBox="0 0 1024 1024" xmlns="http://www.w3.org/2000/svg">
  
  <g transform="scale(1, -1) translate(0, -900)">
    <style type="text/css">
        .stroke1 {fill: #808080;}
        .stroke2 {fill: #808079;}
        .stroke3 {fill: #808078;}
        .stroke4 {fill: #808077;}
        .stroke5 {fill: #808076;}
        .stroke6 {fill: #808075;}
        .stroke7 {fill: #808074;}
        .stroke8 {fill: #808073;}
        .stroke9 {fill: #808072;}
        .stroke10 {fill: #808071;}
        .stroke11 {fill: #808070;}
        .stroke12 {fill: #808069;}
        .stroke13 {fill: #808068;}
        .stroke14 {fill: #808067;}
        .stroke15 {fill: #808066;}
        .stroke16 {fill: #808065;}
        .stroke17 {fill: #808064;}
        .stroke18 {fill: #808063;}
        .stroke19 {fill: #808062;}
        .stroke20 {fill: #808061;}
        text {
            font-family: Helvetica;
            font-size: 50px;
            fill: #808060;
            paint-order: stroke;
            stroke: #000000;
            stroke-width: 4px;
            stroke-linecap: butt;
            stroke-linejoin: miter;
            font-weight: 800;
        }
    </style>

    <path d="M 318 757 Q 351 732 385 701 Q 400 688 417 689 Q 427 690 433 704 Q 437 720 426 751 Q 419 773 384 788 Q 300 813 288 807 Q 282 803 285 789 Q 289 779 318 757 Z" class="stroke1"/>
    <path d="M 152 475 Q 103 459 77 455 Q 62 455 61 448 Q 57 439 68 432 Q 90 419 106 417 Q 127 414 247 475 Q 271 488 280 481 Q 290 475 284 450 Q 284 279 244 152 Q 226 124 268 71 Q 278 58 288 65 Q 295 72 307 95 Q 355 152 452 248 Q 465 258 462 266 Q 461 275 450 265 Q 398 231 347 192 Q 301 155 310 211 Q 310 278 337 442 Q 341 466 363 488 Q 375 498 365 511 Q 355 527 317 543 Q 305 549 289 539 Q 201 491 152 475 Z" class="stroke2"/>
    <path d="M 570 639 Q 554 652 537 660 Q 525 663 516 658 Q 507 654 511 643 Q 518 627 527 613 Q 536 591 537 552 Q 540 509 542 148 C 542 118 587 124 587 154 Q 587 235 587 308 L 587 338 Q 587 393 587 445 L 587 477 Q 587 540 589 605 C 590 625 590 625 570 639 Z" class="stroke3"/>
    <path d="M 799 186 Q 799 409 809 558 Q 812 595 829 621 Q 842 637 827 654 Q 817 666 764 694 Q 749 703 672 669 Q 576 642 570 639 C 541 630 560 596 589 605 Q 692 639 723 645 Q 738 649 742 644 Q 754 620 745 177 C 744 147 799 156 799 186 Z" class="stroke4"/>
    <path d="M 587 445 Q 651 458 700 467 Q 722 471 714 484 Q 702 497 676 501 Q 640 504 587 477 C 560 464 558 439 587 445 Z" class="stroke5"/>
    <path d="M 587 308 Q 653 318 700 327 Q 722 331 713 344 Q 703 359 677 362 Q 634 365 587 338 C 561 323 557 303 587 308 Z" class="stroke6"/>
    <path d="M 542 148 Q 487 142 429 134 Q 407 133 423 115 Q 436 102 455 96 Q 476 90 492 95 Q 633 132 926 132 Q 945 132 951 140 Q 957 152 940 166 Q 882 209 810 189 Q 804 188 799 186 L 745 177 Q 706 173 661 164 Q 624 160 587 154 L 542 148 Z" class="stroke7"/>
    
    
    
    
    
    
    </g>
</svg>