<svg version="1.1" viewBox="0 0 1024 1024" xmlns="http://www.w3.org/2000/svg">
  
  <g transform="scale(1, -1) translate(0, -900)">
    <style type="text/css">
        .stroke1 {fill: #808080;}
        .stroke2 {fill: #808079;}
        .stroke3 {fill: #808078;}
        .stroke4 {fill: #808077;}
        .stroke5 {fill: #808076;}
        .stroke6 {fill: #808075;}
        .stroke7 {fill: #808074;}
        .stroke8 {fill: #808073;}
        .stroke9 {fill: #808072;}
        .stroke10 {fill: #808071;}
        .stroke11 {fill: #808070;}
        .stroke12 {fill: #808069;}
        .stroke13 {fill: #808068;}
        .stroke14 {fill: #808067;}
        .stroke15 {fill: #808066;}
        .stroke16 {fill: #808065;}
        .stroke17 {fill: #808064;}
        .stroke18 {fill: #808063;}
        .stroke19 {fill: #808062;}
        .stroke20 {fill: #808061;}
        text {
            font-family: Helvetica;
            font-size: 50px;
            fill: #808060;
            paint-order: stroke;
            stroke: #000000;
            stroke-width: 4px;
            stroke-linecap: butt;
            stroke-linejoin: miter;
            font-weight: 800;
        }
    </style>

    <path d="M 257 736 Q 294 706 333 670 Q 348 657 364 658 Q 376 658 381 672 Q 385 688 376 719 Q 364 758 251 787 Q 235 790 228 787 Q 222 783 224 769 Q 228 759 257 736 Z" class="stroke1"/>
    <path d="M 145 482 Q 96 466 70 463 Q 55 464 53 456 Q 49 447 60 440 Q 82 427 98 425 Q 119 419 226 476 Q 251 488 259 481 Q 269 475 264 450 Q 257 270 220 164 Q 202 133 246 84 Q 256 72 266 79 Q 273 86 284 109 Q 321 161 401 251 Q 413 263 410 270 Q 409 277 398 268 Q 358 240 318 207 Q 281 176 287 222 Q 288 286 316 442 Q 320 464 342 488 Q 355 498 345 510 Q 335 526 297 543 Q 287 550 269 539 Q 190 496 145 482 Z" class="stroke2"/>
    <path d="M 502 553 Q 538 619 538 622 Q 537 625 537 626 Q 533 636 508 651 Q 486 663 471 661 Q 456 658 464 642 Q 479 620 442 533 Q 424 493 399 449 Q 392 440 390 435 Q 389 426 399 429 Q 423 438 491 535 L 502 553 Z" class="stroke3"/>
    <path d="M 643 539 Q 770 578 773 579 Q 782 588 776 596 Q 769 608 738 613 Q 698 619 646 590 L 597 573 Q 554 563 507 555 Q 503 555 502 553 C 473 544 471 544 491 535 Q 539 513 596 525 L 643 539 Z" class="stroke4"/>
    <path d="M 634 417 Q 638 480 643 539 L 646 590 Q 650 690 670 774 Q 674 784 654 800 Q 618 819 594 824 Q 578 827 570 819 Q 563 812 570 796 Q 594 762 594 739 Q 597 660 597 573 L 596 525 Q 595 470 591 407 C 589 377 632 387 634 417 Z" class="stroke5"/>
    <path d="M 591 407 Q 501 388 398 366 Q 379 363 395 347 Q 422 323 463 333 Q 527 357 600 369 L 636 375 Q 676 384 859 400 Q 878 401 882 410 Q 886 422 869 434 Q 812 470 749 447 Q 701 435 634 417 L 591 407 Z" class="stroke6"/>
    <path d="M 500 312 Q 509 201 381 79 Q 324 31 331 26 Q 359 22 431 77 Q 500 128 547 242 Q 556 261 567 279 Q 574 286 569 296 Q 565 305 538 320 Q 519 330 510 329 Q 498 325 500 312 Z" class="stroke7"/>
    <path d="M 600 369 Q 621 327 615 273 Q 605 101 626 67 Q 644 36 715 22 Q 877 -2 945 32 Q 973 48 961 79 Q 942 125 927 207 Q 924 222 917 226 Q 910 230 907 211 Q 898 109 884 91 Q 860 64 762 63 Q 708 64 685 73 Q 666 83 660 97 Q 642 151 661 247 Q 667 284 677 304 Q 695 343 636 375 C 611 391 589 397 600 369 Z" class="stroke8"/>
    
    
    
    
    
    
    
    </g>
</svg>