<svg version="1.1" viewBox="0 0 1024 1024" xmlns="http://www.w3.org/2000/svg">
  
  <g transform="scale(1, -1) translate(0, -900)">
    <style type="text/css">
        .stroke1 {fill: #808080;}
        .stroke2 {fill: #808079;}
        .stroke3 {fill: #808078;}
        .stroke4 {fill: #808077;}
        .stroke5 {fill: #808076;}
        .stroke6 {fill: #808075;}
        .stroke7 {fill: #808074;}
        .stroke8 {fill: #808073;}
        .stroke9 {fill: #808072;}
        .stroke10 {fill: #808071;}
        .stroke11 {fill: #808070;}
        .stroke12 {fill: #808069;}
        .stroke13 {fill: #808068;}
        .stroke14 {fill: #808067;}
        .stroke15 {fill: #808066;}
        .stroke16 {fill: #808065;}
        .stroke17 {fill: #808064;}
        .stroke18 {fill: #808063;}
        .stroke19 {fill: #808062;}
        .stroke20 {fill: #808061;}
        text {
            font-family: Helvetica;
            font-size: 50px;
            fill: #808060;
            paint-order: stroke;
            stroke: #000000;
            stroke-width: 4px;
            stroke-linecap: butt;
            stroke-linejoin: miter;
            font-weight: 800;
        }
    </style>

    <path d="M 278 746 Q 306 722 335 694 Q 350 681 367 681 Q 379 682 384 696 Q 390 712 379 745 Q 367 779 272 799 Q 256 803 248 799 Q 242 795 244 781 Q 248 768 278 746 Z" class="stroke1"/>
    <path d="M 147 487 Q 98 474 71 472 Q 56 472 54 465 Q 50 458 60 449 Q 100 422 132 437 Q 243 483 249 482 Q 250 482 253 479 Q 260 475 253 368 Q 252 256 219 155 Q 203 127 245 75 Q 255 63 265 70 Q 272 77 284 100 Q 323 151 405 240 Q 417 250 414 258 Q 413 265 402 257 Q 360 229 320 198 Q 278 162 285 215 Q 285 279 310 438 Q 314 462 336 484 Q 349 494 339 507 Q 329 523 291 540 Q 279 547 262 536 Q 189 499 147 487 Z" class="stroke2"/>
    <path d="M 490 720 Q 526 663 555 647 Q 568 643 579 653 Q 586 665 587 681 Q 580 724 507 755 Q 492 762 482 759 Q 476 759 477 747 Q 477 735 490 720 Z" class="stroke3"/>
    <path d="M 723 790 Q 708 763 634 663 Q 624 645 642 650 Q 699 690 768 748 Q 787 766 810 777 Q 831 789 819 806 Q 804 822 777 836 Q 752 848 739 844 Q 726 843 732 828 Q 736 810 723 790 Z" class="stroke4"/>
    <path d="M 484 566 Q 472 570 452 572 Q 440 575 437 570 Q 430 564 439 548 Q 467 494 484 407 Q 488 380 504 363 Q 522 341 527 357 Q 528 364 530 375 L 528 409 Q 521 424 508 535 C 505 560 505 560 484 566 Z" class="stroke5"/>
    <path d="M 738 437 Q 766 524 800 545 Q 816 564 802 582 Q 786 597 731 622 Q 713 629 691 621 Q 618 588 484 566 C 454 561 479 527 508 535 Q 523 541 676 572 Q 695 576 703 570 Q 716 554 684 443 C 676 414 728 409 738 437 Z" class="stroke6"/>
    <path d="M 651 393 Q 691 400 748 405 Q 758 406 760 415 Q 760 422 738 437 L 684 443 L 683 443 Q 598 421 528 409 C 498 404 500 376 530 375 Q 537 374 547 376 Q 572 383 611 388 L 651 393 Z" class="stroke7"/>
    <path d="M 490 303 Q 500 204 416 112 Q 394 84 335 32 Q 328 25 335 23 Q 342 20 351 25 Q 450 65 512 169 Q 527 197 543 234 Q 550 252 561 270 Q 568 279 563 288 Q 557 297 529 312 Q 510 322 501 321 Q 488 317 490 303 Z" class="stroke8"/>
    <path d="M 973 108 Q 960 136 941 224 Q 940 240 933 246 Q 927 250 922 231 Q 894 137 875 108 Q 865 95 834 88 Q 764 73 705 95 Q 683 107 676 121 Q 649 172 682 347 Q 686 372 651 393 C 627 411 603 417 611 388 Q 611 384 614 376 Q 627 336 624 297 Q 614 144 627 101 Q 631 79 651 60 Q 726 -4 882 26 Q 888 29 894 29 Q 931 39 966 65 Q 987 81 973 108 Z" class="stroke9"/>
    
    
    
    
    
    
    
    
    </g>
</svg>