<svg version="1.1" viewBox="0 0 1024 1024" xmlns="http://www.w3.org/2000/svg">
  
  <g transform="scale(1, -1) translate(0, -900)">
    <style type="text/css">
        .stroke1 {fill: #808080;}
        .stroke2 {fill: #808079;}
        .stroke3 {fill: #808078;}
        .stroke4 {fill: #808077;}
        .stroke5 {fill: #808076;}
        .stroke6 {fill: #808075;}
        .stroke7 {fill: #808074;}
        .stroke8 {fill: #808073;}
        .stroke9 {fill: #808072;}
        .stroke10 {fill: #808071;}
        .stroke11 {fill: #808070;}
        .stroke12 {fill: #808069;}
        .stroke13 {fill: #808068;}
        .stroke14 {fill: #808067;}
        .stroke15 {fill: #808066;}
        .stroke16 {fill: #808065;}
        .stroke17 {fill: #808064;}
        .stroke18 {fill: #808063;}
        .stroke19 {fill: #808062;}
        .stroke20 {fill: #808061;}
        text {
            font-family: Helvetica;
            font-size: 50px;
            fill: #808060;
            paint-order: stroke;
            stroke: #000000;
            stroke-width: 4px;
            stroke-linecap: butt;
            stroke-linejoin: miter;
            font-weight: 800;
        }
    </style>

    <path d="M 246 767 Q 312 689 340 688 Q 356 687 365 709 Q 366 725 354 751 Q 342 770 314 779 Q 271 798 252 801 Q 240 802 239 788 Q 238 778 246 767 Z" class="stroke1"/>
    <path d="M 138 510 Q 86 494 58 493 Q 43 494 41 486 Q 37 477 48 469 Q 87 442 116 454 Q 156 473 194 492 Q 222 505 232 498 Q 242 491 236 462 Q 236 422 234 381 Q 233 263 201 157 Q 183 124 229 73 Q 239 60 250 67 Q 257 74 269 99 Q 306 148 384 235 Q 397 247 394 254 Q 393 263 381 253 Q 344 228 308 201 Q 262 162 269 220 Q 268 287 291 455 Q 295 480 318 504 Q 331 514 321 528 Q 311 544 270 562 Q 258 569 240 557 Q 176 523 138 510 Z" class="stroke2"/>
    <path d="M 458 520 Q 465 532 475 543 Q 524 606 576 700 Q 597 743 617 765 Q 626 777 620 790 Q 616 802 586 823 Q 558 839 540 838 Q 521 835 531 814 Q 544 787 536 762 Q 508 680 462 601 Q 419 526 357 443 Q 347 433 346 426 Q 343 414 357 418 Q 373 422 438 494 L 458 520 Z" class="stroke3"/>
    <path d="M 508 150 Q 508 373 517 428 Q 524 455 515 466 Q 496 487 483 501 Q 473 514 458 520 C 432 535 429 523 438 494 Q 442 476 451 464 Q 484 392 461 194 Q 454 136 438 75 Q 428 30 462 -21 Q 463 -21 465 -24 Q 483 -40 495 -13 Q 507 23 508 126 L 508 150 Z" class="stroke4"/>
    <path d="M 666 694 Q 685 675 707 652 Q 720 639 737 639 Q 747 639 753 653 Q 757 668 749 697 Q 745 713 718 726 Q 651 748 640 743 Q 636 739 636 726 Q 640 716 666 694 Z" class="stroke5"/>
    <path d="M 700 529 Q 847 574 848 574 Q 855 581 851 589 Q 844 599 817 605 Q 789 609 763 596 Q 723 580 678 566 Q 629 551 570 543 Q 537 536 562 521 Q 604 500 654 518 L 656 518 L 700 529 Z" class="stroke6"/>
    <path d="M 717 389 Q 772 399 819 407 Q 841 411 833 424 Q 823 439 797 443 Q 788 444 718 430 L 670 416 Q 627 404 587 393 Q 571 389 591 375 Q 597 371 670 379 L 717 389 Z" class="stroke7"/>
    <path d="M 714 277 Q 778 290 835 300 Q 857 304 849 316 Q 839 331 813 335 Q 777 339 715 317 L 670 305 Q 619 293 575 281 Q 559 277 579 263 Q 592 254 618 259 Q 643 265 671 269 L 714 277 Z" class="stroke8"/>
    <path d="M 713 189 Q 713 235 714 277 L 715 317 Q 715 354 717 389 L 718 430 Q 718 458 720 487 Q 727 506 700 529 C 678 550 646 546 656 518 Q 665 502 670 416 L 670 379 Q 670 348 670 305 L 671 269 Q 671 230 671 181 C 671 151 713 159 713 189 Z" class="stroke9"/>
    <path d="M 671 181 Q 596 166 508 150 C 478 145 481 140 508 126 Q 539 107 570 115 Q 711 155 901 156 Q 920 157 925 166 Q 929 178 913 190 Q 856 229 793 207 Q 759 201 713 189 L 671 181 Z" class="stroke10"/>
    
    
    
    
    
    
    
    
    
    </g>
</svg>