<svg version="1.1" viewBox="0 0 1024 1024" xmlns="http://www.w3.org/2000/svg">
  
  <g transform="scale(1, -1) translate(0, -900)">
    <style type="text/css">
        .stroke1 {fill: #808080;}
        .stroke2 {fill: #808079;}
        .stroke3 {fill: #808078;}
        .stroke4 {fill: #808077;}
        .stroke5 {fill: #808076;}
        .stroke6 {fill: #808075;}
        .stroke7 {fill: #808074;}
        .stroke8 {fill: #808073;}
        .stroke9 {fill: #808072;}
        .stroke10 {fill: #808071;}
        .stroke11 {fill: #808070;}
        .stroke12 {fill: #808069;}
        .stroke13 {fill: #808068;}
        .stroke14 {fill: #808067;}
        .stroke15 {fill: #808066;}
        .stroke16 {fill: #808065;}
        .stroke17 {fill: #808064;}
        .stroke18 {fill: #808063;}
        .stroke19 {fill: #808062;}
        .stroke20 {fill: #808061;}
        text {
            font-family: Helvetica;
            font-size: 50px;
            fill: #808060;
            paint-order: stroke;
            stroke: #000000;
            stroke-width: 4px;
            stroke-linecap: butt;
            stroke-linejoin: miter;
            font-weight: 800;
        }
    </style>

    <path d="M 272 743 Q 306 715 343 682 Q 358 669 373 670 Q 383 671 389 684 Q 393 700 384 729 Q 372 762 266 791 Q 250 794 244 791 Q 240 787 241 774 Q 245 764 272 743 Z" class="stroke1"/>
    <path d="M 160 467 Q 111 451 85 447 Q 70 447 69 440 Q 65 431 76 424 Q 98 411 114 409 Q 132 406 231 458 Q 255 471 264 465 Q 271 459 265 356 Q 264 244 231 143 Q 216 109 259 64 Q 269 52 279 59 Q 286 66 297 90 Q 334 144 414 239 Q 424 251 422 258 Q 421 265 410 256 Q 368 225 328 189 Q 292 158 297 203 Q 297 267 322 426 Q 325 450 347 473 Q 359 483 349 495 Q 339 511 301 527 Q 289 533 272 523 Q 202 481 160 467 Z" class="stroke2"/>
    <path d="M 568 782 Q 610 737 648 721 Q 663 720 671 732 Q 677 745 673 761 Q 660 801 600 815 Q 563 825 553 820 Q 547 819 550 807 Q 551 795 568 782 Z" class="stroke3"/>
    <path d="M 720 647 Q 808 674 812 677 Q 821 684 815 693 Q 808 703 780 710 Q 756 713 648 675 Q 572 653 491 640 Q 457 633 482 618 Q 530 597 577 612 Q 628 625 682 638 L 720 647 Z" class="stroke4"/>
    <path d="M 494 546 Q 534 473 554 465 Q 566 461 575 476 Q 579 488 575 508 Q 563 542 504 569 Q 497 573 493 562 Q 489 555 494 546 Z" class="stroke5"/>
    <path d="M 677 458 Q 701 492 730 554 Q 737 570 753 593 Q 766 606 757 616 Q 747 632 720 647 C 694 662 670 666 682 638 Q 691 620 688 598 Q 681 550 658 483 Q 651 467 651 453 C 649 423 660 433 677 458 Z" class="stroke6"/>
    <path d="M 651 453 Q 641 453 632 450 Q 521 431 391 409 Q 372 406 386 391 Q 399 379 417 374 Q 436 370 451 375 Q 649 435 899 434 L 901 434 Q 920 435 924 443 Q 928 455 913 467 Q 855 504 812 488 Q 755 475 677 458 L 651 453 Z" class="stroke7"/>
    <path d="M 531 316 Q 512 335 481 333 Q 468 329 474 318 Q 510 249 477 112 Q 453 55 484 16 Q 491 4 500 9 Q 509 16 517 36 L 526 66 Q 526 75 534 172 L 535 199 Q 538 265 541 287 C 543 306 543 306 531 316 Z" class="stroke8"/>
    <path d="M 691 56 Q 719 22 738 -9 Q 747 -25 757 -25 Q 772 -24 785 7 Q 801 41 797 83 Q 773 284 794 314 Q 801 324 794 334 Q 776 350 730 371 Q 714 378 700 370 Q 661 349 599 333 Q 556 323 531 316 C 502 308 512 280 541 287 Q 554 290 571 295 Q 634 311 687 325 Q 708 329 719 322 Q 746 288 732 87 L 732 85 Q 728 72 715 73 C 689 59 689 59 691 56 Z" class="stroke9"/>
    <path d="M 534 172 Q 537 172 542 173 Q 618 188 676 197 Q 698 201 689 213 Q 679 226 655 230 Q 621 233 535 199 C 507 188 504 169 534 172 Z" class="stroke10"/>
    <path d="M 517 36 Q 526 35 537 37 Q 586 49 691 56 C 721 58 727 58 715 73 Q 711 80 694 91 Q 679 98 653 92 Q 583 76 526 66 C 496 61 487 38 517 36 Z" class="stroke11"/>
    
    
    
    
    
    
    
    
    
    
    </g>
</svg>