<svg version="1.1" viewBox="0 0 1024 1024" xmlns="http://www.w3.org/2000/svg">
  
  <g transform="scale(1, -1) translate(0, -900)">
    <style type="text/css">
        .stroke1 {fill: #808080;}
        .stroke2 {fill: #808079;}
        .stroke3 {fill: #808078;}
        .stroke4 {fill: #808077;}
        .stroke5 {fill: #808076;}
        .stroke6 {fill: #808075;}
        .stroke7 {fill: #808074;}
        .stroke8 {fill: #808073;}
        .stroke9 {fill: #808072;}
        .stroke10 {fill: #808071;}
        .stroke11 {fill: #808070;}
        .stroke12 {fill: #808069;}
        .stroke13 {fill: #808068;}
        .stroke14 {fill: #808067;}
        .stroke15 {fill: #808066;}
        .stroke16 {fill: #808065;}
        .stroke17 {fill: #808064;}
        .stroke18 {fill: #808063;}
        .stroke19 {fill: #808062;}
        .stroke20 {fill: #808061;}
        text {
            font-family: Helvetica;
            font-size: 50px;
            fill: #808060;
            paint-order: stroke;
            stroke: #000000;
            stroke-width: 4px;
            stroke-linecap: butt;
            stroke-linejoin: miter;
            font-weight: 800;
        }
    </style>

    <path d="M 232 693 Q 260 665 291 633 Q 304 620 320 620 Q 330 620 337 633 Q 341 648 335 678 Q 331 699 298 716 Q 220 749 208 743 Q 202 739 204 726 Q 207 716 232 693 Z" class="stroke1"/>
    <path d="M 140 467 Q 91 451 65 447 Q 50 447 48 440 Q 45 431 56 424 Q 78 411 94 409 Q 112 406 187 450 Q 212 463 221 457 Q 231 450 226 425 Q 226 389 224 353 Q 223 250 195 155 Q 180 125 223 75 Q 233 63 243 70 Q 250 77 261 101 Q 298 155 378 247 Q 388 259 386 266 Q 385 273 374 264 Q 334 234 293 200 Q 254 166 260 215 Q 259 273 279 419 Q 282 441 303 465 Q 316 475 306 488 Q 294 504 257 519 Q 245 526 228 514 Q 173 480 140 467 Z" class="stroke2"/>
    <path d="M 699 670 Q 762 680 851 678 Q 864 677 868 685 Q 872 695 860 707 Q 815 743 736 718 Q 724 717 715 713 L 663 703 Q 608 694 549 683 L 508 676 Q 450 669 392 659 Q 367 655 385 643 Q 424 619 487 637 Q 499 641 514 643 L 552 651 Q 574 657 656 666 L 699 670 Z" class="stroke3"/>
    <path d="M 549 683 Q 548 716 546 741 Q 547 757 530 763 Q 493 781 476 775 Q 460 768 473 750 Q 500 716 508 676 L 514 643 Q 521 597 536 578 Q 548 568 552 579 Q 556 594 552 651 L 549 683 Z" class="stroke4"/>
    <path d="M 715 713 Q 718 734 744 783 Q 757 799 746 808 Q 733 824 699 838 Q 683 847 666 837 Q 657 830 665 820 Q 678 793 663 703 L 656 666 Q 644 624 646 599 Q 647 586 663 597 Q 672 606 699 670 L 715 713 Z" class="stroke5"/>
    <path d="M 484 526 Q 474 532 441 536 Q 429 539 427 534 Q 421 527 429 513 Q 457 458 476 367 Q 480 340 496 322 Q 514 303 518 317 Q 521 324 521 335 L 520 356 Q 516 387 508 420 L 504 442 Q 497 479 495 496 C 491 523 491 523 484 526 Z" class="stroke6"/>
    <path d="M 673 356 Q 689 329 705 322 Q 715 315 728 334 Q 740 353 765 464 Q 772 492 793 513 Q 805 525 794 537 Q 781 550 743 574 Q 728 580 662 565 Q 658 565 654 563 Q 573 548 484 526 C 455 519 467 486 495 496 Q 519 508 678 536 Q 703 540 711 532 Q 721 519 719 507 Q 700 393 687 379 C 674 354 672 358 673 356 Z" class="stroke7"/>
    <path d="M 508 420 Q 512 419 519 420 Q 600 433 660 442 Q 681 446 673 457 Q 663 470 641 474 Q 616 477 504 442 C 475 433 478 423 508 420 Z" class="stroke8"/>
    <path d="M 587 343 Q 632 352 673 356 C 703 359 714 366 687 379 Q 680 383 669 386 Q 650 389 520 356 C 491 349 491 333 521 335 Q 537 336 555 338 L 587 343 Z" class="stroke9"/>
    <path d="M 630 226 Q 709 236 835 237 Q 886 234 895 245 Q 899 255 885 267 Q 840 303 804 294 Q 737 279 621 260 L 567 252 Q 482 242 387 228 Q 368 227 382 211 Q 395 198 411 194 Q 430 190 444 193 Q 499 209 561 217 L 630 226 Z" class="stroke10"/>
    <path d="M 621 260 Q 625 291 633 305 Q 640 311 634 320 Q 625 335 587 343 C 558 350 550 352 555 338 Q 554 334 559 326 Q 571 299 567 252 L 561 217 Q 531 121 450 69 Q 414 50 353 24 Q 331 14 356 12 Q 419 9 513 63 Q 528 75 543 90 Q 580 129 609 210 L 621 260 Z" class="stroke11"/>
    <path d="M 609 210 Q 679 113 772 10 Q 790 -6 818 -5 Q 912 2 942 10 Q 951 13 952 17 Q 952 21 940 28 Q 805 77 727 140 Q 681 179 630 226 C 608 246 591 234 609 210 Z" class="stroke12"/>
    
    
    
    
    
    
    
    
    
    
    
    </g>
</svg>