<svg version="1.1" viewBox="0 0 1024 1024" xmlns="http://www.w3.org/2000/svg">
  
  <g transform="scale(1, -1) translate(0, -900)">
    <style type="text/css">
        .stroke1 {fill: #808080;}
        .stroke2 {fill: #808079;}
        .stroke3 {fill: #808078;}
        .stroke4 {fill: #808077;}
        .stroke5 {fill: #808076;}
        .stroke6 {fill: #808075;}
        .stroke7 {fill: #808074;}
        .stroke8 {fill: #808073;}
        .stroke9 {fill: #808072;}
        .stroke10 {fill: #808071;}
        .stroke11 {fill: #808070;}
        .stroke12 {fill: #808069;}
        .stroke13 {fill: #808068;}
        .stroke14 {fill: #808067;}
        .stroke15 {fill: #808066;}
        .stroke16 {fill: #808065;}
        .stroke17 {fill: #808064;}
        .stroke18 {fill: #808063;}
        .stroke19 {fill: #808062;}
        .stroke20 {fill: #808061;}
        text {
            font-family: Helvetica;
            font-size: 50px;
            fill: #808060;
            paint-order: stroke;
            stroke: #000000;
            stroke-width: 4px;
            stroke-linecap: butt;
            stroke-linejoin: miter;
            font-weight: 800;
        }
    </style>

    <path d="M 362 750 Q 350 683 201 557 Q 179 541 208 545 Q 283 552 396 669 Q 424 700 439 713 Q 451 726 448 736 Q 445 749 417 758 Q 386 770 373 766 Q 366 765 362 750 Z" class="stroke1"/>
    <path d="M 572 749 Q 630 704 701 639 Q 720 620 737 616 Q 746 615 753 627 Q 765 642 747 687 Q 735 727 658 755 Q 640 764 571 782 Q 561 786 560 773 Q 560 760 572 749 Z" class="stroke2"/>
    <path d="M 310 299 Q 398 377 520 530 L 538 551 Q 539 554 543 555 Q 550 559 551 570 Q 550 580 538 595 Q 508 631 472 627 Q 462 626 464 613 Q 467 514 295 346 Q 283 337 273 327 Q 218 278 87 188 Q 77 184 88 180 Q 100 180 131 194 Q 183 213 232 243 Q 263 262 297 288 L 310 299 Z" class="stroke3"/>
    <path d="M 520 530 Q 620 406 749 275 Q 771 253 805 256 Q 923 263 960 272 Q 970 276 972 281 Q 972 287 956 294 Q 791 339 711 400 Q 630 464 538 551 C 516 572 501 553 520 530 Z" class="stroke4"/>
    <path d="M 371 280 L 371 281 Q 359 288 319 298 Q 315 299 310 299 C 294 301 294 301 297 288 Q 297 282 302 272 Q 330 202 343 91 Q 344 57 363 34 Q 381 9 388 25 Q 394 41 394 65 L 391 101 Q 378 207 377 245 L 371 280 Z" class="stroke5"/>
    <path d="M 636 121 Q 670 214 707 241 Q 728 262 711 283 Q 638 346 593 332 Q 589 332 586 330 Q 504 299 371 280 C 341 276 347 241 377 245 Q 386 245 569 277 Q 588 281 597 273 Q 607 263 603 243 Q 590 179 574 129 C 565 100 625 93 636 121 Z" class="stroke6"/>
    <path d="M 394 65 Q 407 61 421 64 Q 494 77 648 82 Q 661 83 663 93 Q 663 102 636 121 C 615 136 604 134 574 129 Q 471 110 391 101 C 361 98 365 71 394 65 Z" class="stroke7"/>
    
    
    
    
    
    
    </g>
</svg>