<svg version="1.1" viewBox="0 0 1024 1024" xmlns="http://www.w3.org/2000/svg">
  
  <g transform="scale(1, -1) translate(0, -900)">
    <style type="text/css">
        .stroke1 {fill: #808080;}
        .stroke2 {fill: #808079;}
        .stroke3 {fill: #808078;}
        .stroke4 {fill: #808077;}
        .stroke5 {fill: #808076;}
        .stroke6 {fill: #808075;}
        .stroke7 {fill: #808074;}
        .stroke8 {fill: #808073;}
        .stroke9 {fill: #808072;}
        .stroke10 {fill: #808071;}
        .stroke11 {fill: #808070;}
        .stroke12 {fill: #808069;}
        .stroke13 {fill: #808068;}
        .stroke14 {fill: #808067;}
        .stroke15 {fill: #808066;}
        .stroke16 {fill: #808065;}
        .stroke17 {fill: #808064;}
        .stroke18 {fill: #808063;}
        .stroke19 {fill: #808062;}
        .stroke20 {fill: #808061;}
        text {
            font-family: Helvetica;
            font-size: 50px;
            fill: #808060;
            paint-order: stroke;
            stroke: #000000;
            stroke-width: 4px;
            stroke-linecap: butt;
            stroke-linejoin: miter;
            font-weight: 800;
        }
    </style>

    <path d="M 285 678 Q 272 684 239 688 Q 226 691 223 685 Q 216 678 226 662 Q 262 592 285 477 Q 289 443 311 419 Q 330 397 335 414 Q 338 424 338 439 L 335 471 Q 334 481 332 490 Q 307 602 300 642 C 295 672 294 675 285 678 Z" class="stroke1"/>
    <path d="M 549 722 Q 500 715 447 705 L 396 695 Q 335 686 285 678 C 255 673 270 637 300 642 Q 304 642 310 643 Q 349 653 401 664 L 447 673 Q 492 683 547 690 L 595 697 Q 667 715 694 693 Q 707 683 704 664 Q 680 523 662 511 C 648 488 648 488 654 480 Q 672 453 688 445 Q 700 436 716 459 Q 731 481 762 609 Q 772 643 797 670 Q 812 683 799 698 Q 783 717 736 745 Q 714 755 698 750 Q 658 740 600 729 L 549 722 Z" class="stroke2"/>
    <path d="M 542 622 Q 491 612 449 599 L 408 589 Q 383 585 360 578 Q 342 574 364 558 Q 377 548 405 554 Q 408 555 411 554 L 451 562 Q 494 572 538 578 L 579 585 Q 607 591 637 594 Q 662 598 653 612 Q 643 628 615 632 Q 602 633 586 631 L 542 622 Z" class="stroke3"/>
    <path d="M 447 705 Q 447 727 449 736 Q 452 758 438 769 Q 416 785 390 794 Q 377 798 368 793 Q 361 787 367 773 Q 386 736 396 695 L 401 664 Q 404 636 408 589 L 411 554 Q 412 523 417 482 C 420 452 457 459 455 489 Q 452 529 451 562 L 449 599 L 447 673 L 447 705 Z" class="stroke4"/>
    <path d="M 600 729 Q 612 777 622 802 Q 626 811 609 826 Q 581 845 559 850 Q 546 854 538 848 Q 531 841 537 828 Q 553 797 552 777 Q 551 750 549 722 L 547 690 Q 544 657 542 622 L 538 578 Q 534 542 529 504 C 525 474 565 483 568 513 Q 572 550 579 585 L 586 631 Q 590 665 595 697 L 600 729 Z" class="stroke5"/>
    <path d="M 338 439 Q 350 436 363 439 Q 454 461 654 480 C 684 483 686 493 662 511 Q 643 530 603 521 Q 585 517 568 513 L 529 504 Q 490 497 455 489 L 417 482 Q 374 478 335 471 C 305 466 308 443 338 439 Z" class="stroke6"/>
    <path d="M 304 375 Q 277 372 298 355 Q 332 331 356 337 Q 494 368 678 392 Q 688 391 697 403 Q 698 413 676 424 Q 649 445 556 418 Q 424 393 304 375 Z" class="stroke7"/>
    <path d="M 357 301 Q 347 305 321 307 Q 309 310 307 304 Q 301 298 310 284 Q 332 247 351 184 Q 355 165 368 154 Q 386 135 390 149 Q 391 158 392 170 L 388 201 Q 378 250 376 270 C 373 296 373 296 357 301 Z" class="stroke8"/>
    <path d="M 652 229 Q 677 272 699 281 Q 715 297 703 315 Q 688 328 641 354 Q 625 363 604 356 Q 505 319 357 301 C 327 297 347 264 376 270 Q 598 315 613 305 L 614 304 Q 620 295 603 238 C 595 209 636 203 652 229 Z" class="stroke9"/>
    <path d="M 625 197 Q 641 198 660 200 Q 670 201 671 209 Q 671 216 652 229 L 603 238 Q 602 239 600 238 Q 483 213 388 201 C 358 197 362 169 392 170 Q 399 170 408 171 Q 471 184 593 194 L 625 197 Z" class="stroke10"/>
    <path d="M 325 107 Q 347 86 370 61 Q 380 49 395 49 Q 404 49 409 61 Q 413 74 407 99 Q 403 117 378 130 Q 317 155 304 151 Q 300 147 300 136 Q 303 126 325 107 Z" class="stroke11"/>
    <path d="M 586 57 Q 631 114 654 132 Q 670 142 663 153 Q 659 163 625 197 C 604 218 585 223 593 194 Q 593 193 595 187 Q 602 163 562 78 Q 552 65 549 53 C 540 24 567 33 586 57 Z" class="stroke12"/>
    <path d="M 549 53 Q 524 52 498 48 Q 353 35 183 20 Q 159 19 176 -1 Q 191 -17 211 -24 Q 233 -31 252 -26 Q 492 28 838 7 Q 860 6 866 16 Q 873 29 855 45 Q 794 91 728 77 Q 668 68 586 57 L 549 53 Z" class="stroke13"/>
    
    
    
    
    
    
    
    
    
    
    
    
    </g>
</svg>