<svg version="1.1" viewBox="0 0 1024 1024" xmlns="http://www.w3.org/2000/svg">
  
  <g transform="scale(1, -1) translate(0, -900)">
    <style type="text/css">
        .stroke1 {fill: #808080;}
        .stroke2 {fill: #808079;}
        .stroke3 {fill: #808078;}
        .stroke4 {fill: #808077;}
        .stroke5 {fill: #808076;}
        .stroke6 {fill: #808075;}
        .stroke7 {fill: #808074;}
        .stroke8 {fill: #808073;}
        .stroke9 {fill: #808072;}
        .stroke10 {fill: #808071;}
        .stroke11 {fill: #808070;}
        .stroke12 {fill: #808069;}
        .stroke13 {fill: #808068;}
        .stroke14 {fill: #808067;}
        .stroke15 {fill: #808066;}
        .stroke16 {fill: #808065;}
        .stroke17 {fill: #808064;}
        .stroke18 {fill: #808063;}
        .stroke19 {fill: #808062;}
        .stroke20 {fill: #808061;}
        text {
            font-family: Helvetica;
            font-size: 50px;
            fill: #808060;
            paint-order: stroke;
            stroke: #000000;
            stroke-width: 4px;
            stroke-linecap: butt;
            stroke-linejoin: miter;
            font-weight: 800;
        }
    </style>

    <path d="M 357 744 Q 309 735 344 714 Q 401 683 471 702 Q 559 720 651 739 Q 693 749 699 755 Q 711 765 704 777 Q 694 792 657 801 Q 623 807 534 778 Q 444 753 357 744 Z" class="stroke1"/>
    <path d="M 330 555 Q 314 558 294 558 Q 281 561 277 554 Q 271 547 282 530 Q 315 484 341 402 Q 348 377 365 363 Q 387 341 391 359 Q 392 365 392 373 L 387 412 Q 366 488 360 518 C 354 547 353 551 330 555 Z" class="stroke2"/>
    <path d="M 673 442 Q 709 511 741 528 Q 762 547 746 569 Q 728 585 671 616 Q 650 628 557 594 Q 388 557 330 555 C 300 553 330 513 360 518 Q 366 518 603 564 Q 628 570 639 559 Q 646 550 642 534 Q 629 491 615 456 C 604 428 659 416 673 442 Z" class="stroke3"/>
    <path d="M 392 373 Q 393 374 398 374 Q 486 393 678 410 Q 690 411 691 421 Q 691 428 673 442 L 615 456 Q 609 457 604 455 Q 486 427 387 412 C 357 407 362 368 392 373 Z" class="stroke4"/>
    <path d="M 346 238 Q 362 211 379 181 Q 389 163 405 160 Q 415 157 425 169 Q 434 182 433 215 Q 432 234 409 255 Q 384 271 354 288 Q 341 295 333 295 Q 326 292 324 279 Q 325 266 346 238 Z" class="stroke5"/>
    <path d="M 562 122 Q 644 239 689 287 Q 708 300 699 311 Q 686 327 657 341 Q 629 354 602 349 Q 586 343 593 321 Q 600 306 596 285 Q 577 221 532 118 C 520 90 545 97 562 122 Z" class="stroke6"/>
    <path d="M 532 118 Q 528 119 523 118 Q 339 99 123 78 Q 98 77 116 55 Q 152 19 198 29 Q 513 108 937 87 Q 961 87 967 97 Q 974 110 954 127 Q 882 182 834 163 Q 728 147 562 122 L 532 118 Z" class="stroke7"/>
    
    
    
    
    
    
    </g>
</svg>