<svg version="1.1" viewBox="0 0 1024 1024" xmlns="http://www.w3.org/2000/svg">
  
  <g transform="scale(1, -1) translate(0, -900)">
    <style type="text/css">
        .stroke1 {fill: #808080;}
        .stroke2 {fill: #808079;}
        .stroke3 {fill: #808078;}
        .stroke4 {fill: #808077;}
        .stroke5 {fill: #808076;}
        .stroke6 {fill: #808075;}
        .stroke7 {fill: #808074;}
        .stroke8 {fill: #808073;}
        .stroke9 {fill: #808072;}
        .stroke10 {fill: #808071;}
        .stroke11 {fill: #808070;}
        .stroke12 {fill: #808069;}
        .stroke13 {fill: #808068;}
        .stroke14 {fill: #808067;}
        .stroke15 {fill: #808066;}
        .stroke16 {fill: #808065;}
        .stroke17 {fill: #808064;}
        .stroke18 {fill: #808063;}
        .stroke19 {fill: #808062;}
        .stroke20 {fill: #808061;}
        text {
            font-family: Helvetica;
            font-size: 50px;
            fill: #808060;
            paint-order: stroke;
            stroke: #000000;
            stroke-width: 4px;
            stroke-linecap: butt;
            stroke-linejoin: miter;
            font-weight: 800;
        }
    </style>

    <path d="M 488 798 Q 446 753 300 675 Q 296 666 302 664 Q 341 664 492 736 Q 529 761 588 776 Q 604 777 608 785 Q 611 795 599 806 Q 539 842 507 838 Q 500 834 500 823 Q 501 810 488 798 Z" class="stroke1"/>
    <path d="M 283 589 Q 308 568 334 543 Q 346 533 360 532 Q 369 533 373 545 Q 377 558 369 583 Q 365 601 337 613 Q 274 635 260 631 Q 256 627 257 616 Q 260 606 283 589 Z" class="stroke2"/>
    <path d="M 423 659 Q 466 604 486 602 Q 499 601 505 617 Q 506 629 498 648 Q 489 661 470 668 Q 440 681 428 683 Q 419 684 418 675 Q 417 668 423 659 Z" class="stroke3"/>
    <path d="M 480 516 Q 492 525 507 533 Q 670 633 704 660 Q 729 679 750 683 Q 766 686 768 695 Q 769 702 759 711 Q 732 736 707 747 Q 691 754 681 739 Q 660 697 512 587 Q 338 476 224 424 Q 217 421 217 417 Q 218 414 226 414 Q 281 418 311 431 Q 377 459 447 497 L 480 516 Z" class="stroke4"/>
    <path d="M 599 333 Q 629 255 586 130 Q 571 88 557 82 Q 545 76 469 94 Q 433 104 432 96 Q 431 89 443 75 Q 510 21 538 -16 Q 551 -35 566 -31 Q 588 -25 609 3 Q 661 93 662 237 Q 652 330 631 367 Q 577 463 480 516 C 454 531 422 513 447 497 Q 466 485 485 471 L 534 428 Q 550 410 566 390 L 599 333 Z" class="stroke5"/>
    <path d="M 485 471 Q 472 423 375 350 Q 335 319 217 254 Q 198 244 221 243 Q 308 243 473 376 Q 476 385 534 428 C 558 446 495 499 485 471 Z" class="stroke6"/>
    <path d="M 566 390 L 566 389 Q 455 215 194 64 Q 178 52 189 49 Q 198 43 212 47 Q 362 83 520 243 Q 527 253 538 262 Q 592 317 591 321 Q 595 327 599 333 C 615 358 582 416 566 390 Z" class="stroke7"/>
    
    
    
    
    
    
    </g>
</svg>