<svg version="1.1" viewBox="0 0 1024 1024" xmlns="http://www.w3.org/2000/svg">
  
  <g transform="scale(1, -1) translate(0, -900)">
    <style type="text/css">
        .stroke1 {fill: #808080;}
        .stroke2 {fill: #808079;}
        .stroke3 {fill: #808078;}
        .stroke4 {fill: #808077;}
        .stroke5 {fill: #808076;}
        .stroke6 {fill: #808075;}
        .stroke7 {fill: #808074;}
        .stroke8 {fill: #808073;}
        .stroke9 {fill: #808072;}
        .stroke10 {fill: #808071;}
        .stroke11 {fill: #808070;}
        .stroke12 {fill: #808069;}
        .stroke13 {fill: #808068;}
        .stroke14 {fill: #808067;}
        .stroke15 {fill: #808066;}
        .stroke16 {fill: #808065;}
        .stroke17 {fill: #808064;}
        .stroke18 {fill: #808063;}
        .stroke19 {fill: #808062;}
        .stroke20 {fill: #808061;}
        text {
            font-family: Helvetica;
            font-size: 50px;
            fill: #808060;
            paint-order: stroke;
            stroke: #000000;
            stroke-width: 4px;
            stroke-linecap: butt;
            stroke-linejoin: miter;
            font-weight: 800;
        }
    </style>

    <path d="M 538 623 Q 544 677 550 726 L 553 757 Q 554 764 555 769 Q 558 788 561 800 Q 565 810 567 818 Q 570 828 550 844 Q 514 863 490 867 Q 474 871 466 862 Q 459 855 467 839 Q 491 809 494 613 C 495 583 535 593 538 623 Z" class="stroke1"/>
    <path d="M 550 726 Q 584 720 677 740 Q 734 755 736 757 Q 745 764 740 773 Q 733 783 704 789 Q 682 792 601 767 Q 577 763 553 757 C 524 750 520 730 550 726 Z" class="stroke2"/>
    <path d="M 367 595 Q 357 605 336 612 Q 326 616 315 612 Q 308 606 313 594 Q 329 546 334 450 Q 328 303 322 275 Q 307 221 345 173 Q 355 160 367 173 Q 376 186 378 202 L 381 241 Q 381 250 382 332 L 382 362 Q 382 411 383 447 L 383 473 Q 384 540 385 548 Q 386 555 386 561 C 387 580 387 580 367 595 Z" class="stroke3"/>
    <path d="M 685 222 Q 686 209 696 193 Q 712 160 722 162 Q 738 163 755 200 Q 771 228 770 252 Q 734 513 780 584 Q 792 603 782 613 Q 751 641 695 663 Q 677 670 651 659 Q 602 638 538 623 L 494 613 Q 427 601 367 595 C 337 592 356 558 386 561 Q 399 561 409 563 Q 538 597 632 613 Q 665 620 676 603 Q 694 581 694 504 Q 698 314 690 257 L 685 222 Z" class="stroke4"/>
    <path d="M 383 447 Q 393 446 410 447 Q 521 469 602 482 Q 627 486 617 500 Q 605 515 579 520 Q 558 523 383 473 C 354 465 353 449 383 447 Z" class="stroke5"/>
    <path d="M 382 332 Q 389 332 401 333 Q 522 352 613 363 Q 638 366 629 380 Q 619 396 592 401 Q 567 405 523 395 Q 447 376 382 362 C 353 356 352 331 382 332 Z" class="stroke6"/>
    <path d="M 378 202 Q 385 201 393 202 Q 486 218 685 222 C 715 223 713 237 690 257 Q 686 261 678 267 Q 660 279 625 272 Q 490 250 381 241 C 351 238 348 203 378 202 Z" class="stroke7"/>
    <path d="M 422 149 Q 389 68 195 -52 Q 170 -65 200 -65 Q 281 -68 430 51 Q 445 66 493 102 Q 506 112 505 124 Q 504 137 477 150 Q 449 165 435 163 Q 426 163 422 149 Z" class="stroke8"/>
    <path d="M 607 134 Q 668 65 741 -32 Q 756 -54 771 -61 Q 780 -62 789 -53 Q 804 -41 795 7 Q 786 71 611 167 Q 602 174 599 160 Q 598 147 607 134 Z" class="stroke9"/>
    
    
    
    
    
    
    
    
    </g>
</svg>