<svg version="1.1" viewBox="0 0 1024 1024" xmlns="http://www.w3.org/2000/svg">
  
  <g transform="scale(1, -1) translate(0, -900)">
    <style type="text/css">
        .stroke1 {fill: #808080;}
        .stroke2 {fill: #808079;}
        .stroke3 {fill: #808078;}
        .stroke4 {fill: #808077;}
        .stroke5 {fill: #808076;}
        .stroke6 {fill: #808075;}
        .stroke7 {fill: #808074;}
        .stroke8 {fill: #808073;}
        .stroke9 {fill: #808072;}
        .stroke10 {fill: #808071;}
        .stroke11 {fill: #808070;}
        .stroke12 {fill: #808069;}
        .stroke13 {fill: #808068;}
        .stroke14 {fill: #808067;}
        .stroke15 {fill: #808066;}
        .stroke16 {fill: #808065;}
        .stroke17 {fill: #808064;}
        .stroke18 {fill: #808063;}
        .stroke19 {fill: #808062;}
        .stroke20 {fill: #808061;}
        text {
            font-family: Helvetica;
            font-size: 50px;
            fill: #808060;
            paint-order: stroke;
            stroke: #000000;
            stroke-width: 4px;
            stroke-linecap: butt;
            stroke-linejoin: miter;
            font-weight: 800;
        }
    </style>

    <path d="M 194 689 Q 185 698 166 705 Q 157 709 146 705 Q 139 701 144 689 Q 145 685 147 678 Q 147 677 149 674 Q 179 613 156 392 Q 137 298 153 269 Q 159 259 166 249 Q 176 236 186 248 Q 193 258 196 268 L 200 302 Q 201 329 202 405 L 203 437 Q 204 488 205 525 L 206 554 Q 207 636 210 645 Q 211 657 211 664 C 212 676 212 676 194 689 Z" class="stroke1"/>
    <path d="M 339 286 Q 352 267 365 246 Q 381 221 389 224 Q 399 225 413 256 Q 422 278 422 358 Q 404 631 430 681 Q 440 700 432 711 Q 425 721 373 737 Q 348 746 330 735 Q 257 702 194 689 C 165 682 182 656 211 664 Q 250 674 297 689 Q 337 702 352 689 Q 364 677 364 631 Q 368 438 362 333 Q 365 314 351 312 C 335 291 335 291 339 286 Z" class="stroke2"/>
    <path d="M 205 525 Q 209 531 313 548 Q 335 554 326 565 Q 314 578 290 580 Q 256 583 206 554 C 180 539 179 510 205 525 Z" class="stroke3"/>
    <path d="M 202 405 Q 202 406 203 406 Q 266 419 312 427 Q 334 433 326 444 Q 314 457 288 461 Q 243 464 203 437 C 178 421 174 394 202 405 Z" class="stroke4"/>
    <path d="M 196 268 Q 199 268 204 269 Q 247 279 339 286 C 369 288 376 295 351 312 Q 345 316 336 323 Q 320 330 292 323 Q 241 310 200 302 C 171 296 166 265 196 268 Z" class="stroke5"/>
    <path d="M 202 208 Q 196 148 68 24 Q 49 8 74 13 Q 140 28 231 133 Q 237 146 271 180 Q 280 192 277 200 Q 273 213 248 218 Q 221 225 210 222 Q 203 221 202 208 Z" class="stroke6"/>
    <path d="M 343 145 Q 371 112 398 75 Q 408 62 422 60 Q 431 59 437 69 Q 444 81 441 108 Q 438 141 347 186 Q 334 192 328 191 Q 324 188 323 177 Q 324 167 343 145 Z" class="stroke7"/>
    <path d="M 691 315 Q 698 427 702 531 L 704 563 Q 707 686 728 760 Q 732 773 709 789 Q 669 811 642 815 Q 623 819 614 809 Q 605 800 615 783 Q 643 743 644 714 Q 654 524 644 305 C 643 275 689 285 691 315 Z" class="stroke8"/>
    <path d="M 702 531 Q 751 516 801 535 Q 843 547 887 559 Q 906 565 910 568 Q 919 578 913 587 Q 903 600 870 604 Q 846 607 760 576 Q 733 570 704 563 C 675 556 673 539 702 531 Z" class="stroke9"/>
    <path d="M 551 292 Q 538 299 502 305 Q 489 309 485 303 Q 478 296 487 279 Q 521 206 539 88 Q 542 52 562 29 Q 581 4 588 22 Q 592 32 592 48 L 590 86 Q 575 165 563 258 C 559 288 559 289 551 292 Z" class="stroke10"/>
    <path d="M 827 113 Q 861 230 903 261 Q 922 282 907 302 Q 823 368 760 336 Q 724 324 691 315 L 644 305 Q 598 299 551 292 C 521 288 533 254 563 258 Q 569 258 766 293 Q 788 297 797 289 Q 816 267 769 116 C 760 87 818 84 827 113 Z" class="stroke11"/>
    <path d="M 592 48 Q 601 47 613 48 Q 686 61 845 70 Q 857 71 859 81 Q 859 90 827 113 C 811 125 798 122 769 116 Q 669 95 590 86 C 560 83 562 50 592 48 Z" class="stroke12"/>
    
    
    
    
    
    
    
    
    
    
    
    </g>
</svg>