<svg version="1.1" viewBox="0 0 1024 1024" xmlns="http://www.w3.org/2000/svg">
  
  <g transform="scale(1, -1) translate(0, -900)">
    <style type="text/css">
        .stroke1 {fill: #808080;}
        .stroke2 {fill: #808079;}
        .stroke3 {fill: #808078;}
        .stroke4 {fill: #808077;}
        .stroke5 {fill: #808076;}
        .stroke6 {fill: #808075;}
        .stroke7 {fill: #808074;}
        .stroke8 {fill: #808073;}
        .stroke9 {fill: #808072;}
        .stroke10 {fill: #808071;}
        .stroke11 {fill: #808070;}
        .stroke12 {fill: #808069;}
        .stroke13 {fill: #808068;}
        .stroke14 {fill: #808067;}
        .stroke15 {fill: #808066;}
        .stroke16 {fill: #808065;}
        .stroke17 {fill: #808064;}
        .stroke18 {fill: #808063;}
        .stroke19 {fill: #808062;}
        .stroke20 {fill: #808061;}
        text {
            font-family: Helvetica;
            font-size: 50px;
            fill: #808060;
            paint-order: stroke;
            stroke: #000000;
            stroke-width: 4px;
            stroke-linecap: butt;
            stroke-linejoin: miter;
            font-weight: 800;
        }
    </style>

    <path d="M 168 684 Q 159 693 138 700 Q 129 704 118 701 Q 111 697 117 684 Q 118 675 123 667 Q 135 643 136 416 Q 121 314 122 306 Q 122 288 146 257 Q 156 244 166 256 Q 176 271 177 289 L 180 324 Q 180 372 180 421 L 180 452 Q 180 501 181 538 L 182 568 Q 182 613 185 658 C 186 671 186 671 168 684 Z" class="stroke1"/>
    <path d="M 299 305 Q 314 281 329 258 Q 345 233 353 236 Q 363 237 376 266 Q 385 287 385 363 Q 376 633 397 669 Q 409 687 400 698 Q 393 710 342 726 Q 317 735 299 725 Q 229 695 168 684 C 139 678 156 651 185 658 Q 186 659 190 659 Q 226 668 268 680 Q 307 690 319 678 Q 331 666 331 623 Q 335 445 327 345 Q 330 326 316 324 C 300 303 298 307 299 305 Z" class="stroke2"/>
    <path d="M 181 538 Q 236 547 277 556 Q 299 562 290 573 Q 278 586 254 588 Q 232 589 194 575 Q 187 572 182 568 C 158 550 151 533 181 538 Z" class="stroke3"/>
    <path d="M 180 421 Q 237 430 280 435 Q 302 439 293 452 Q 283 467 257 470 Q 202 473 180 452 C 157 432 150 416 180 421 Z" class="stroke4"/>
    <path d="M 177 289 Q 177 290 180 290 Q 217 299 299 305 C 329 307 332 307 316 324 Q 310 331 292 342 Q 280 348 180 324 C 151 317 148 280 177 289 Z" class="stroke5"/>
    <path d="M 174 236 Q 168 176 40 52 Q 21 36 46 41 Q 112 56 203 161 Q 209 174 243 208 Q 252 220 249 228 Q 245 241 220 246 Q 193 253 182 250 Q 175 249 174 236 Z" class="stroke6"/>
    <path d="M 312 161 Q 333 136 354 106 Q 364 93 378 91 Q 387 90 393 101 Q 400 113 396 140 Q 393 165 315 203 Q 302 207 296 207 Q 292 204 291 193 Q 292 183 312 161 Z" class="stroke7"/>
    <path d="M 652 655 Q 731 679 916 680 Q 937 680 941 690 Q 945 702 929 714 Q 872 751 814 732 Q 754 717 668 698 Q 665 698 664 697 L 604 685 Q 531 673 455 658 Q 434 655 451 639 Q 464 626 482 622 Q 503 618 518 624 Q 554 636 593 643 L 652 655 Z" class="stroke8"/>
    <path d="M 584 480 Q 626 564 652 655 L 664 697 Q 670 730 702 786 Q 709 796 703 805 Q 688 826 656 848 Q 637 863 619 860 Q 597 857 610 836 Q 631 802 625 771 Q 615 726 604 685 L 593 643 Q 520 424 403 270 Q 391 263 389 258 Q 385 251 402 252 Q 447 268 524 377 Q 525 380 527 382 Q 540 401 555 427 L 584 480 Z" class="stroke9"/>
    <path d="M 594 239 Q 595 290 599 327 L 602 358 Q 605 418 609 441 C 612 463 612 463 597 472 Q 597 473 584 480 C 558 495 550 457 555 427 Q 570 357 551 222 Q 550 222 551 220 Q 548 213 548 202 Q 538 144 518 110 Q 509 94 515 74 Q 516 47 532 29 Q 538 16 548 22 Q 590 50 591 196 Q 591 200 592 204 L 594 239 Z" class="stroke10"/>
    <path d="M 609 441 Q 624 442 733 474 Q 749 480 759 471 Q 768 464 768 438 Q 781 233 776 109 Q 775 84 767 71 Q 763 65 743 70 Q 718 76 692 82 Q 671 89 672 79 Q 727 27 756 -11 Q 769 -30 786 -36 Q 796 -40 805 -30 Q 844 16 846 93 Q 816 411 839 459 Q 851 480 838 490 Q 816 509 777 524 Q 758 531 743 524 Q 683 488 597 472 C 568 466 580 435 609 441 Z" class="stroke11"/>
    <path d="M 599 327 Q 662 342 710 352 Q 731 358 722 369 Q 710 382 686 384 Q 647 384 602 358 C 576 343 570 320 599 327 Z" class="stroke12"/>
    <path d="M 592 204 Q 662 219 715 226 Q 739 230 729 244 Q 717 259 691 263 Q 648 266 594 239 C 567 226 563 198 592 204 Z" class="stroke13"/>
    
    
    
    
    
    
    
    
    
    
    
    
    </g>
</svg>