<svg version="1.1" viewBox="0 0 1024 1024" xmlns="http://www.w3.org/2000/svg">
  
  <g transform="scale(1, -1) translate(0, -900)">
    <style type="text/css">
        .stroke1 {fill: #808080;}
        .stroke2 {fill: #808079;}
        .stroke3 {fill: #808078;}
        .stroke4 {fill: #808077;}
        .stroke5 {fill: #808076;}
        .stroke6 {fill: #808075;}
        .stroke7 {fill: #808074;}
        .stroke8 {fill: #808073;}
        .stroke9 {fill: #808072;}
        .stroke10 {fill: #808071;}
        .stroke11 {fill: #808070;}
        .stroke12 {fill: #808069;}
        .stroke13 {fill: #808068;}
        .stroke14 {fill: #808067;}
        .stroke15 {fill: #808066;}
        .stroke16 {fill: #808065;}
        .stroke17 {fill: #808064;}
        .stroke18 {fill: #808063;}
        .stroke19 {fill: #808062;}
        .stroke20 {fill: #808061;}
        text {
            font-family: Helvetica;
            font-size: 50px;
            fill: #808060;
            paint-order: stroke;
            stroke: #000000;
            stroke-width: 4px;
            stroke-linecap: butt;
            stroke-linejoin: miter;
            font-weight: 800;
        }
    </style>

    <path d="M 534 741 Q 649 771 652 773 Q 659 780 655 789 Q 648 799 620 806 Q 587 812 540 791 L 484 774 Q 444 767 396 760 Q 362 753 387 738 Q 427 714 481 730 Q 482 731 484 730 C 509 735 509 735 534 741 Z" class="stroke1"/>
    <path d="M 520 616 Q 527 682 534 741 L 540 791 Q 543 812 553 840 Q 556 850 539 863 Q 508 879 487 884 Q 474 888 466 880 Q 459 874 466 860 Q 481 838 482 823 Q 483 799 484 774 L 484 730 Q 484 673 482 610 C 481 580 517 586 520 616 Z" class="stroke2"/>
    <path d="M 648 595 Q 745 604 867 605 Q 904 605 937 606 Q 959 606 964 616 Q 970 629 951 644 Q 888 690 810 668 Q 750 656 677 642 L 619 632 Q 570 625 520 616 L 482 610 Q 433 604 381 596 L 334 590 Q 214 577 86 557 Q 62 554 80 535 Q 113 505 157 514 Q 247 541 346 557 L 387 565 Q 484 583 603 592 L 648 595 Z" class="stroke3"/>
    <path d="M 381 596 Q 375 633 371 660 Q 371 679 350 683 Q 311 701 288 689 Q 270 679 288 661 Q 319 631 334 590 L 346 557 Q 356 523 374 507 Q 389 497 392 510 Q 395 528 387 565 L 381 596 Z" class="stroke4"/>
    <path d="M 589 509 Q 626 561 648 595 L 677 642 Q 692 675 719 697 Q 735 713 719 726 Q 701 738 673 742 Q 646 746 635 740 Q 625 734 632 723 Q 642 707 634 686 Q 627 658 619 632 L 603 592 Q 585 550 565 500 C 554 472 572 485 589 509 Z" class="stroke5"/>
    <path d="M 358 464 Q 342 476 323 480 Q 314 481 309 474 Q 306 468 313 459 Q 343 402 326 241 Q 314 193 318 176 Q 328 146 338 135 Q 348 123 357 136 Q 361 143 366 153 L 374 188 Q 377 203 377 259 L 377 276 Q 377 310 376 345 L 376 364 Q 376 418 380 434 C 382 448 382 448 358 464 Z" class="stroke6"/>
    <path d="M 639 177 Q 640 165 649 151 Q 664 120 674 122 Q 689 123 705 159 Q 720 186 715 238 Q 700 403 725 446 Q 737 462 728 473 Q 700 498 649 520 Q 628 527 589 509 L 565 500 Q 466 473 358 464 C 328 461 350 429 380 434 Q 384 434 390 435 Q 505 462 588 474 Q 618 480 627 464 Q 645 443 645 263 Q 645 211 639 192 L 639 177 Z" class="stroke7"/>
    <path d="M 376 345 Q 386 341 405 343 Q 502 362 575 373 Q 597 377 589 389 Q 579 402 555 407 Q 528 410 376 364 C 347 355 347 353 376 345 Z" class="stroke8"/>
    <path d="M 377 259 L 378 259 Q 388 252 409 255 Q 506 274 579 285 Q 601 289 593 301 Q 583 314 559 319 Q 544 322 377 276 C 353 269 353 269 377 259 Z" class="stroke9"/>
    <path d="M 366 153 Q 372 152 379 153 Q 458 168 630 174 Q 634 175 639 177 C 650 181 650 181 639 192 Q 632 201 614 213 Q 598 223 567 217 Q 461 196 374 188 C 344 185 336 154 366 153 Z" class="stroke10"/>
    <path d="M 390 112 Q 375 52 211 -63 Q 186 -76 216 -77 Q 286 -77 410 24 L 463 67 Q 475 77 474 88 Q 473 103 445 114 Q 415 127 402 126 Q 395 125 390 112 Z" class="stroke11"/>
    <path d="M 581 78 Q 630 27 690 -46 Q 706 -68 723 -74 Q 733 -75 741 -65 Q 756 -52 744 -3 Q 734 54 584 112 Q 574 118 571 104 Q 570 89 581 78 Z" class="stroke12"/>
    
    
    
    
    
    
    
    
    
    
    
    </g>
</svg>