<svg version="1.1" viewBox="0 0 1024 1024" xmlns="http://www.w3.org/2000/svg">
  
  <g transform="scale(1, -1) translate(0, -900)">
    <style type="text/css">
        .stroke1 {fill: #808080;}
        .stroke2 {fill: #808079;}
        .stroke3 {fill: #808078;}
        .stroke4 {fill: #808077;}
        .stroke5 {fill: #808076;}
        .stroke6 {fill: #808075;}
        .stroke7 {fill: #808074;}
        .stroke8 {fill: #808073;}
        .stroke9 {fill: #808072;}
        .stroke10 {fill: #808071;}
        .stroke11 {fill: #808070;}
        .stroke12 {fill: #808069;}
        .stroke13 {fill: #808068;}
        .stroke14 {fill: #808067;}
        .stroke15 {fill: #808066;}
        .stroke16 {fill: #808065;}
        .stroke17 {fill: #808064;}
        .stroke18 {fill: #808063;}
        .stroke19 {fill: #808062;}
        .stroke20 {fill: #808061;}
        text {
            font-family: Helvetica;
            font-size: 50px;
            fill: #808060;
            paint-order: stroke;
            stroke: #000000;
            stroke-width: 4px;
            stroke-linecap: butt;
            stroke-linejoin: miter;
            font-weight: 800;
        }
    </style>

    <path d="M 373 732 Q 446 759 450 761 Q 457 768 452 775 Q 445 784 421 786 Q 399 787 379 778 L 331 756 Q 285 741 259 735 Q 231 726 253 716 Q 289 701 332 718 L 373 732 Z" class="stroke1"/>
    <path d="M 367 691 Q 370 713 373 732 L 379 778 Q 382 806 388 819 Q 391 826 393 833 Q 396 840 380 853 Q 353 869 335 872 Q 322 876 316 869 Q 310 863 316 851 Q 326 836 328 826 Q 329 793 331 756 L 332 718 Q 332 700 332 680 C 332 650 363 661 367 691 Z" class="stroke2"/>
    <path d="M 407 671 Q 441 681 482 689 Q 494 692 494 697 Q 494 707 480 713 Q 459 720 442 715 Q 400 702 367 691 L 332 680 Q 185 638 105 622 Q 95 621 93 614 Q 92 607 103 598 Q 133 583 172 595 Q 211 613 249 624 L 273 633 Q 306 648 373 663 L 407 671 Z" class="stroke3"/>
    <path d="M 249 624 Q 252 617 260 605 Q 281 563 293 559 Q 300 558 306 565 Q 312 574 312 595 Q 312 605 298 618 Q 286 625 273 633 C 247 649 236 651 249 624 Z" class="stroke4"/>
    <path d="M 391 594 Q 400 607 410 624 Q 425 651 426 653 Q 420 663 407 671 C 382 687 373 693 373 663 Q 374 654 361 580 C 356 550 374 569 391 594 Z" class="stroke5"/>
    <path d="M 369 547 Q 394 557 422 565 Q 450 575 454 581 Q 458 587 455 592 Q 449 599 428 602 Q 407 603 391 594 L 361 580 Q 339 573 322 563 Q 283 550 238 539 Q 213 532 233 522 Q 263 510 301 524 Q 311 528 322 530 L 369 547 Z" class="stroke6"/>
    <path d="M 369 478 Q 481 521 485 534 Q 481 538 471 537 Q 422 522 369 506 L 319 493 Q 258 478 194 460 Q 175 454 142 456 Q 132 455 130 447 Q 129 437 135 430 Q 153 417 178 401 Q 185 398 195 404 Q 253 443 318 459 L 369 478 Z" class="stroke7"/>
    <path d="M 356 389 Q 365 416 369 478 L 369 506 Q 369 527 369 547 C 369 577 324 560 322 530 Q 321 512 319 493 L 318 459 Q 318 387 341 363 C 346 357 347 360 356 389 Z" class="stroke8"/>
    <path d="M 610 585 Q 629 639 638 694 L 642 727 Q 645 778 657 803 Q 661 813 655 820 Q 609 862 576 852 Q 560 845 572 830 Q 596 805 595 778 Q 596 742 594 712 L 590 678 Q 589 675 589 671 Q 583 632 572 599 L 559 563 Q 532 500 465 439 Q 455 433 453 429 Q 449 423 463 424 Q 500 424 576 514 Q 577 521 590 539 L 610 585 Z" class="stroke9"/>
    <path d="M 638 694 Q 698 724 712 719 Q 728 715 725 688 Q 698 529 758 475 Q 782 450 862 416 Q 907 395 935 398 Q 959 402 961 414 Q 961 417 929 557 Q 926 570 917 574 Q 913 577 910 565 Q 900 495 892 478 Q 886 465 861 469 Q 830 473 795 498 Q 765 520 756 551 Q 738 611 777 675 Q 784 691 800 707 Q 824 729 770 762 Q 745 780 710 757 Q 682 744 642 727 L 594 712 Q 515 697 511 692 Q 507 688 516 679 Q 532 664 590 678 L 638 694 Z" class="stroke10"/>
    <path d="M 590 539 Q 638 503 647 503 Q 654 503 658 513 Q 661 523 654 543 Q 647 567 612 585 L 610 585 L 572 599 Q 527 612 520 610 Q 516 607 518 599 Q 521 590 559 563 L 590 539 Z" class="stroke11"/>
    <path d="M 370 382 Q 364 386 356 389 C 329 401 330 391 341 363 Q 363 317 349 172 Q 325 127 367 72 Q 377 62 386 72 Q 390 79 394 89 L 397 123 Q 397 154 397 187 L 397 209 Q 397 243 397 267 L 397 290 Q 397 330 398 335 Q 399 350 398 356 C 397 367 396 368 370 382 Z" class="stroke12"/>
    <path d="M 626 110 Q 629 103 634 94 Q 649 66 658 66 Q 673 67 688 101 Q 700 122 701 157 Q 679 320 711 371 Q 721 387 713 396 Q 685 420 638 439 Q 623 445 600 436 Q 516 399 370 382 C 340 378 368 351 398 356 Q 404 356 410 357 Q 510 384 583 397 Q 608 403 618 390 Q 630 374 631 321 Q 635 170 628 140 Q 627 137 626 133 C 623 117 623 117 626 110 Z" class="stroke13"/>
    <path d="M 397 267 Q 401 266 413 268 Q 504 284 573 296 Q 592 299 585 310 Q 576 322 555 326 Q 531 327 397 290 C 368 282 367 268 397 267 Z" class="stroke14"/>
    <path d="M 397 187 Q 403 186 415 187 Q 509 205 581 216 Q 600 219 593 230 Q 584 242 563 246 Q 542 247 397 209 C 368 201 367 189 397 187 Z" class="stroke15"/>
    <path d="M 394 89 Q 401 89 411 90 Q 478 103 623 110 Q 624 111 626 110 C 650 111 648 113 626 133 Q 619 140 606 149 Q 590 158 559 151 Q 471 132 397 123 C 367 119 364 88 394 89 Z" class="stroke16"/>
    <path d="M 410 65 Q 391 11 262 -73 Q 240 -85 267 -85 Q 325 -89 435 -8 Q 463 14 475 22 Q 488 32 486 42 Q 485 55 461 66 Q 434 79 422 78 Q 415 78 410 65 Z" class="stroke17"/>
    <path d="M 589 40 Q 635 -3 689 -68 Q 705 -89 720 -94 Q 729 -95 737 -85 Q 750 -72 738 -27 Q 731 15 660 45 Q 615 64 591 72 Q 581 78 579 65 Q 578 52 589 40 Z" class="stroke18"/>
    
    
    
    
    
    
    
    
    
    
    
    
    
    
    
    
    
    </g>
</svg>