<svg version="1.1" viewBox="0 0 1024 1024" xmlns="http://www.w3.org/2000/svg">
  
  <g transform="scale(1, -1) translate(0, -900)">
    <style type="text/css">
        .stroke1 {fill: #808080;}
        .stroke2 {fill: #808079;}
        .stroke3 {fill: #808078;}
        .stroke4 {fill: #808077;}
        .stroke5 {fill: #808076;}
        .stroke6 {fill: #808075;}
        .stroke7 {fill: #808074;}
        .stroke8 {fill: #808073;}
        .stroke9 {fill: #808072;}
        .stroke10 {fill: #808071;}
        .stroke11 {fill: #808070;}
        .stroke12 {fill: #808069;}
        .stroke13 {fill: #808068;}
        .stroke14 {fill: #808067;}
        .stroke15 {fill: #808066;}
        .stroke16 {fill: #808065;}
        .stroke17 {fill: #808064;}
        .stroke18 {fill: #808063;}
        .stroke19 {fill: #808062;}
        .stroke20 {fill: #808061;}
        text {
            font-family: Helvetica;
            font-size: 50px;
            fill: #808060;
            paint-order: stroke;
            stroke: #000000;
            stroke-width: 4px;
            stroke-linecap: butt;
            stroke-linejoin: miter;
            font-weight: 800;
        }
    </style>

    <path d="M 192 686 Q 173 702 149 709 Q 142 710 135 702 Q 132 698 139 687 Q 182 585 148 379 Q 132 307 134 295 Q 143 264 154 252 Q 164 239 173 252 Q 200 285 200 460 Q 200 613 208 660 C 210 673 210 673 192 686 Z" class="stroke1"/>
    <path d="M 359 337 Q 352 316 365 296 Q 378 269 386 270 Q 399 271 414 301 Q 427 325 426 344 Q 413 438 415 587 Q 414 630 438 666 Q 454 696 371 730 Q 356 734 288 707 Q 221 691 192 686 C 163 680 178 656 208 660 Q 224 660 283 676 Q 341 691 354 683 Q 364 658 370 587 Q 371 377 359 337 Z" class="stroke2"/>
    <path d="M 266 537 Q 281 219 189 120 Q 164 90 109 50 Q 99 44 97 41 Q 93 37 106 36 Q 140 36 215 95 Q 308 177 309 460 Q 309 520 321 565 Q 325 574 318 580 Q 272 613 243 604 Q 227 597 241 584 Q 265 562 266 537 Z" class="stroke3"/>
    <path d="M 345 167 Q 373 133 404 94 Q 414 81 429 79 Q 439 78 445 89 Q 452 102 448 130 Q 447 152 415 175 Q 343 218 328 215 Q 324 212 323 200 Q 324 190 345 167 Z" class="stroke4"/>
    <path d="M 623 719 Q 651 694 681 664 Q 694 651 712 650 Q 722 651 729 665 Q 733 680 725 711 Q 719 733 687 748 Q 614 779 596 771 Q 590 767 592 754 Q 596 742 623 719 Z" class="stroke5"/>
    <path d="M 523 555 Q 505 583 491 589 Q 487 593 482 589 Q 476 585 477 575 Q 483 545 457 476 Q 448 460 451 441 Q 455 422 465 409 Q 472 399 478 407 Q 484 408 491 424 Q 495 431 502 459 Q 520 523 525 528 C 532 541 532 541 523 555 Z" class="stroke6"/>
    <path d="M 525 528 Q 546 518 591 529 Q 663 559 784 573 Q 797 576 804 574 Q 814 565 813 560 Q 813 554 766 470 Q 759 457 765 453 Q 772 449 789 460 Q 849 503 899 518 Q 939 533 939 542 Q 938 552 868 602 Q 846 620 763 601 Q 672 586 589 567 Q 556 560 523 556 Q 522 556 523 555 C 494 549 496 536 525 528 Z" class="stroke7"/>
    <path d="M 490 220 Q 457 217 482 197 Q 518 170 541 170 Q 572 182 868 210 Q 880 209 891 222 Q 892 235 868 248 Q 826 272 765 256 Q 633 235 490 220 Z" class="stroke8"/>
    
    
    
    
    
    
    
    </g>
</svg>