<svg version="1.1" viewBox="0 0 1024 1024" xmlns="http://www.w3.org/2000/svg">
  
  <g transform="scale(1, -1) translate(0, -900)">
    <style type="text/css">
        .stroke1 {fill: #808080;}
        .stroke2 {fill: #808079;}
        .stroke3 {fill: #808078;}
        .stroke4 {fill: #808077;}
        .stroke5 {fill: #808076;}
        .stroke6 {fill: #808075;}
        .stroke7 {fill: #808074;}
        .stroke8 {fill: #808073;}
        .stroke9 {fill: #808072;}
        .stroke10 {fill: #808071;}
        .stroke11 {fill: #808070;}
        .stroke12 {fill: #808069;}
        .stroke13 {fill: #808068;}
        .stroke14 {fill: #808067;}
        .stroke15 {fill: #808066;}
        .stroke16 {fill: #808065;}
        .stroke17 {fill: #808064;}
        .stroke18 {fill: #808063;}
        .stroke19 {fill: #808062;}
        .stroke20 {fill: #808061;}
        text {
            font-family: Helvetica;
            font-size: 50px;
            fill: #808060;
            paint-order: stroke;
            stroke: #000000;
            stroke-width: 4px;
            stroke-linecap: butt;
            stroke-linejoin: miter;
            font-weight: 800;
        }
    </style>

    <path d="M 186 682 Q 177 694 149 704 Q 139 708 128 705 Q 121 701 127 688 Q 128 678 133 670 Q 157 621 143 407 Q 125 302 139 273 Q 145 261 154 249 Q 164 236 175 249 Q 191 273 190 353 Q 194 624 196 643 Q 197 650 197 656 C 198 671 198 671 186 682 Z" class="stroke1"/>
    <path d="M 339 337 Q 332 316 345 296 Q 358 269 366 270 Q 379 271 394 301 Q 407 325 406 344 Q 393 438 395 584 Q 394 626 418 662 Q 427 677 420 685 Q 395 707 353 724 Q 338 728 318 721 Q 270 697 186 682 C 157 676 168 648 197 656 Q 197 657 265 672 Q 320 687 334 679 Q 346 654 350 584 Q 351 376 339 337 Z" class="stroke2"/>
    <path d="M 249 525 Q 264 231 170 131 Q 143 101 85 61 Q 75 57 73 53 Q 69 49 82 47 Q 121 47 195 106 Q 291 185 293 461 Q 293 506 305 552 Q 309 562 301 567 Q 286 580 258 590 Q 240 597 227 592 Q 211 585 225 572 Q 247 550 249 525 Z" class="stroke3"/>
    <path d="M 319 165 Q 370 99 382 96 Q 391 95 397 105 Q 404 117 401 144 Q 400 162 375 179 Q 318 215 304 211 Q 300 208 298 197 Q 299 187 319 165 Z" class="stroke4"/>
    <path d="M 656 736 Q 617 691 472 612 Q 468 602 474 600 Q 519 600 674 677 Q 719 701 764 712 Q 782 713 785 723 Q 788 733 775 745 Q 709 785 676 778 Q 669 774 669 762 Q 670 747 656 736 Z" class="stroke5"/>
    <path d="M 573 550 Q 597 531 622 509 Q 635 499 648 500 Q 658 501 661 512 Q 665 525 655 551 Q 649 567 623 578 Q 560 596 548 591 Q 544 587 546 576 Q 549 566 573 550 Z" class="stroke6"/>
    <path d="M 510 224 Q 669 303 763 386 Q 793 414 837 437 Q 861 450 850 462 Q 840 480 782 506 Q 758 516 700 490 Q 547 439 465 429 Q 441 428 449 413 Q 456 400 486 390 Q 517 380 549 396 Q 619 427 712 458 Q 731 461 724 443 Q 699 374 483 232 Q 482 232 482 231 C 457 214 483 210 510 224 Z" class="stroke7"/>
    <path d="M 482 231 Q 469 234 453 232 Q 428 226 405 232 Q 389 236 386 228 Q 382 218 397 204 Q 416 185 441 191 Q 505 198 527 183 Q 621 125 733 52 Q 767 30 820 49 Q 887 71 951 94 Q 973 100 972 110 Q 972 120 920 121 Q 877 124 813 126 Q 755 127 702 149 Q 621 180 520 221 Q 516 224 510 224 L 482 231 Z" class="stroke8"/>
    
    
    
    
    
    
    
    </g>
</svg>