<svg version="1.1" viewBox="0 0 1024 1024" xmlns="http://www.w3.org/2000/svg">
  
  <g transform="scale(1, -1) translate(0, -900)">
    <style type="text/css">
        .stroke1 {fill: #808080;}
        .stroke2 {fill: #808079;}
        .stroke3 {fill: #808078;}
        .stroke4 {fill: #808077;}
        .stroke5 {fill: #808076;}
        .stroke6 {fill: #808075;}
        .stroke7 {fill: #808074;}
        .stroke8 {fill: #808073;}
        .stroke9 {fill: #808072;}
        .stroke10 {fill: #808071;}
        .stroke11 {fill: #808070;}
        .stroke12 {fill: #808069;}
        .stroke13 {fill: #808068;}
        .stroke14 {fill: #808067;}
        .stroke15 {fill: #808066;}
        .stroke16 {fill: #808065;}
        .stroke17 {fill: #808064;}
        .stroke18 {fill: #808063;}
        .stroke19 {fill: #808062;}
        .stroke20 {fill: #808061;}
        text {
            font-family: Helvetica;
            font-size: 50px;
            fill: #808060;
            paint-order: stroke;
            stroke: #000000;
            stroke-width: 4px;
            stroke-linecap: butt;
            stroke-linejoin: miter;
            font-weight: 800;
        }
    </style>

    <path d="M 200 686 Q 181 699 161 704 Q 154 705 147 698 Q 144 692 151 683 Q 199 590 165 375 Q 149 317 153 298 Q 163 267 173 255 Q 183 243 193 256 Q 217 283 217 462 Q 218 561 221 659 C 221 673 221 673 200 686 Z" class="stroke1"/>
    <path d="M 383 345 Q 376 324 389 304 Q 402 277 410 278 Q 423 279 438 309 Q 451 333 450 352 Q 437 445 439 589 Q 439 631 462 666 Q 472 682 464 690 Q 439 712 393 732 Q 378 736 357 729 Q 291 699 200 686 C 170 681 191 654 221 659 Q 225 659 302 675 Q 363 691 377 683 Q 389 658 393 589 Q 394 384 383 345 Z" class="stroke2"/>
    <path d="M 279 525 Q 285 261 223 170 Q 187 122 111 70 Q 101 66 97 61 Q 93 57 107 55 Q 159 55 248 132 Q 260 147 271 162 Q 325 244 325 429 Q 329 525 339 553 Q 343 563 336 570 Q 320 583 289 595 Q 270 602 256 597 Q 240 590 253 575 Q 278 551 279 525 Z" class="stroke3"/>
    <path d="M 363 181 Q 388 150 414 115 Q 424 102 438 100 Q 447 99 453 109 Q 460 121 457 148 Q 456 169 428 189 Q 362 231 348 227 Q 344 224 343 213 Q 344 203 363 181 Z" class="stroke4"/>
    <path d="M 690 318 Q 696 427 701 531 L 702 561 Q 705 688 726 763 Q 730 775 708 791 Q 671 810 644 815 Q 626 819 618 809 Q 611 802 619 785 Q 647 743 647 715 Q 657 528 646 309 C 645 279 688 288 690 318 Z" class="stroke5"/>
    <path d="M 701 531 Q 746 516 796 534 Q 839 547 886 560 Q 907 566 910 569 Q 919 579 913 588 Q 903 600 872 604 Q 848 607 763 575 Q 733 568 702 561 C 673 554 672 540 701 531 Z" class="stroke6"/>
    <path d="M 551 292 Q 538 299 502 305 Q 489 309 485 303 Q 478 296 487 279 Q 521 206 539 88 Q 542 52 562 29 Q 581 4 588 22 Q 592 35 592 57 L 589 92 Q 580 120 563 258 C 559 288 559 289 551 292 Z" class="stroke7"/>
    <path d="M 816 123 Q 846 234 885 266 Q 903 287 887 305 Q 869 320 812 347 Q 793 354 770 346 Q 728 330 690 318 L 646 309 Q 598 300 551 292 C 521 287 533 253 563 258 Q 773 294 774 293 Q 777 293 781 289 Q 793 277 790 252 Q 778 182 762 125 C 754 96 808 94 816 123 Z" class="stroke8"/>
    <path d="M 592 57 Q 602 56 614 58 Q 684 73 834 84 Q 846 85 847 94 Q 848 103 816 123 C 800 133 791 132 762 125 Q 665 103 589 92 C 559 88 562 58 592 57 Z" class="stroke9"/>
    
    
    
    
    
    
    
    
    </g>
</svg>