<svg version="1.1" viewBox="0 0 1024 1024" xmlns="http://www.w3.org/2000/svg">
  
  <g transform="scale(1, -1) translate(0, -900)">
    <style type="text/css">
        .stroke1 {fill: #808080;}
        .stroke2 {fill: #808079;}
        .stroke3 {fill: #808078;}
        .stroke4 {fill: #808077;}
        .stroke5 {fill: #808076;}
        .stroke6 {fill: #808075;}
        .stroke7 {fill: #808074;}
        .stroke8 {fill: #808073;}
        .stroke9 {fill: #808072;}
        .stroke10 {fill: #808071;}
        .stroke11 {fill: #808070;}
        .stroke12 {fill: #808069;}
        .stroke13 {fill: #808068;}
        .stroke14 {fill: #808067;}
        .stroke15 {fill: #808066;}
        .stroke16 {fill: #808065;}
        .stroke17 {fill: #808064;}
        .stroke18 {fill: #808063;}
        .stroke19 {fill: #808062;}
        .stroke20 {fill: #808061;}
        text {
            font-family: Helvetica;
            font-size: 50px;
            fill: #808060;
            paint-order: stroke;
            stroke: #000000;
            stroke-width: 4px;
            stroke-linecap: butt;
            stroke-linejoin: miter;
            font-weight: 800;
        }
    </style>

    <path d="M 195 685 Q 176 701 151 709 Q 142 710 137 703 Q 134 699 141 688 Q 180 567 146 387 Q 130 345 136 321 Q 143 291 154 279 Q 164 267 173 280 Q 197 310 198 421 Q 198 613 207 661 C 209 675 209 675 195 685 Z" class="stroke1"/>
    <path d="M 349 353 Q 342 334 354 314 Q 366 289 374 290 Q 387 291 400 320 Q 413 342 411 360 Q 398 451 398 592 Q 397 632 420 668 Q 427 681 422 690 Q 398 709 357 727 Q 344 731 325 724 Q 277 700 195 685 C 166 679 178 655 207 661 Q 208 662 212 662 Q 246 669 273 676 Q 328 692 340 684 Q 352 659 356 592 Q 360 391 349 353 Z" class="stroke2"/>
    <path d="M 285 282 Q 300 360 300 438 Q 304 534 314 563 Q 318 570 311 577 Q 269 610 243 600 Q 228 594 241 581 Q 262 562 263 539 Q 267 400 252 308 Q 239 188 133 97 Q 90 67 89 65 Q 86 61 98 60 Q 131 60 204 118 Q 259 163 280 257 Q 281 261 281 267 L 285 282 Z" class="stroke3"/>
    <path d="M 281 267 Q 285 260 296 249 Q 320 224 345 192 Q 352 183 363 182 Q 369 181 374 189 Q 378 198 375 217 Q 374 235 350 252 Q 293 285 285 282 C 271 282 271 282 281 267 Z" class="stroke4"/>
    <path d="M 620 765 Q 651 744 684 718 Q 699 706 714 709 Q 724 710 729 724 Q 732 740 720 768 Q 705 801 610 813 Q 594 814 588 811 Q 584 807 586 794 Q 590 784 620 765 Z" class="stroke5"/>
    <path d="M 528 571 Q 541 564 563 572 Q 699 606 855 633 Q 865 632 874 646 Q 875 658 851 667 Q 812 686 760 665 Q 661 641 516 609 C 487 603 499 579 528 571 Z" class="stroke6"/>
    <path d="M 516 609 Q 504 619 485 627 Q 467 636 455 631 Q 445 624 451 612 Q 469 585 469 520 Q 468 513 468 503 Q 465 343 427 231 Q 393 128 325 21 Q 321 14 319 9 Q 318 -1 327 1 Q 357 7 428 126 Q 438 148 450 172 Q 507 313 518 479 Q 521 551 528 571 C 534 597 534 597 516 609 Z" class="stroke7"/>
    <path d="M 713 310 Q 759 323 811 334 Q 850 344 856 350 Q 863 357 859 365 Q 852 375 825 382 Q 801 385 715 354 L 667 341 Q 618 331 563 322 Q 530 316 554 301 Q 584 286 659 298 Q 662 299 668 299 L 713 310 Z" class="stroke8"/>
    <path d="M 715 354 Q 715 408 733 490 Q 736 500 717 514 Q 683 532 661 535 Q 645 538 638 530 Q 631 523 639 509 Q 663 475 663 451 Q 666 399 667 341 L 668 299 Q 668 217 666 127 C 665 97 704 104 705 134 Q 709 225 713 310 L 715 354 Z" class="stroke9"/>
    <path d="M 666 127 Q 581 114 483 97 Q 464 94 478 79 Q 491 66 509 62 Q 528 58 543 62 Q 684 105 917 106 Q 936 107 940 115 Q 944 127 929 139 Q 875 175 805 155 Q 762 146 705 134 L 666 127 Z" class="stroke10"/>
    
    
    
    
    
    
    
    
    
    </g>
</svg>