<svg version="1.1" viewBox="0 0 1024 1024" xmlns="http://www.w3.org/2000/svg">
  
  <g transform="scale(1, -1) translate(0, -900)">
    <style type="text/css">
        .stroke1 {fill: #808080;}
        .stroke2 {fill: #808079;}
        .stroke3 {fill: #808078;}
        .stroke4 {fill: #808077;}
        .stroke5 {fill: #808076;}
        .stroke6 {fill: #808075;}
        .stroke7 {fill: #808074;}
        .stroke8 {fill: #808073;}
        .stroke9 {fill: #808072;}
        .stroke10 {fill: #808071;}
        .stroke11 {fill: #808070;}
        .stroke12 {fill: #808069;}
        .stroke13 {fill: #808068;}
        .stroke14 {fill: #808067;}
        .stroke15 {fill: #808066;}
        .stroke16 {fill: #808065;}
        .stroke17 {fill: #808064;}
        .stroke18 {fill: #808063;}
        .stroke19 {fill: #808062;}
        .stroke20 {fill: #808061;}
        text {
            font-family: Helvetica;
            font-size: 50px;
            fill: #808060;
            paint-order: stroke;
            stroke: #000000;
            stroke-width: 4px;
            stroke-linecap: butt;
            stroke-linejoin: miter;
            font-weight: 800;
        }
    </style>

    <path d="M 166 688 Q 165 689 164 690 Q 157 696 143 701 Q 134 705 123 702 Q 117 698 122 686 Q 123 677 128 668 Q 155 623 133 392 Q 109 301 143 261 Q 152 249 162 260 Q 177 279 178 361 Q 182 626 185 644 Q 186 657 186 665 C 186 674 186 674 166 688 Z" class="stroke1"/>
    <path d="M 320 309 Q 313 288 325 268 Q 338 241 346 242 Q 359 243 374 273 Q 387 297 386 315 Q 350 597 402 674 Q 411 687 403 696 Q 379 717 338 734 Q 326 738 257 710 Q 209 695 166 688 C 136 683 157 658 186 665 Q 187 665 256 682 Q 307 698 319 691 Q 331 663 335 585 Q 334 353 320 309 Z" class="stroke2"/>
    <path d="M 235 553 Q 253 274 159 154 Q 135 126 95 87 Q 86 80 85 77 Q 82 71 94 73 Q 124 73 194 145 Q 279 244 280 484 Q 280 545 290 581 Q 293 591 286 596 Q 238 630 211 619 Q 195 612 209 599 Q 233 577 235 553 Z" class="stroke3"/>
    <path d="M 297 185 Q 324 154 351 115 Q 358 103 371 101 Q 380 100 385 109 Q 392 119 389 143 Q 386 177 301 222 Q 289 228 284 226 Q 280 225 279 214 Q 280 205 297 185 Z" class="stroke4"/>
    <path d="M 756 593 Q 783 668 811 685 Q 827 704 813 721 Q 797 734 745 757 Q 727 764 706 756 Q 652 732 528 702 C 499 695 520 664 549 672 Q 556 673 567 678 Q 711 711 719 705 Q 726 698 725 681 Q 715 633 704 594 C 696 565 746 565 756 593 Z" class="stroke5"/>
    <path d="M 640 540 Q 694 550 772 557 Q 782 558 784 567 Q 784 576 756 593 C 740 603 733 601 704 594 Q 613 572 540 558 C 511 552 507 522 537 523 Q 543 523 551 524 Q 570 530 598 534 L 640 540 Z" class="stroke6"/>
    <path d="M 528 702 Q 516 709 501 714 Q 482 723 471 717 Q 461 710 468 698 Q 483 674 487 613 Q 486 612 487 609 Q 496 401 400 217 Q 397 214 391 197 Q 390 187 399 190 Q 430 197 484 304 Q 490 319 497 335 Q 527 419 537 523 L 540 558 Q 541 573 542 586 Q 545 628 549 672 C 551 691 551 691 528 702 Z" class="stroke7"/>
    <path d="M 598 534 Q 625 515 641 486 Q 800 237 831 228 Q 870 219 965 230 Q 980 231 986 238 Q 990 244 981 248 Q 852 311 811 346 Q 741 407 643 536 Q 642 539 640 540 C 622 564 574 553 598 534 Z" class="stroke8"/>
    <path d="M 570 342 Q 634 278 657 279 Q 670 279 676 298 Q 676 311 664 331 Q 640 362 572 369 Q 562 370 563 358 Q 562 351 570 342 Z" class="stroke9"/>
    <path d="M 560 198 Q 605 143 657 63 Q 667 42 681 37 Q 688 34 697 42 Q 710 52 705 94 Q 702 145 565 226 Q 558 232 554 221 Q 553 209 560 198 Z" class="stroke10"/>
    
    
    
    
    
    
    
    
    
    </g>
</svg>