<svg version="1.1" viewBox="0 0 1024 1024" xmlns="http://www.w3.org/2000/svg">
  
  <g transform="scale(1, -1) translate(0, -900)">
    <style type="text/css">
        .stroke1 {fill: #808080;}
        .stroke2 {fill: #808079;}
        .stroke3 {fill: #808078;}
        .stroke4 {fill: #808077;}
        .stroke5 {fill: #808076;}
        .stroke6 {fill: #808075;}
        .stroke7 {fill: #808074;}
        .stroke8 {fill: #808073;}
        .stroke9 {fill: #808072;}
        .stroke10 {fill: #808071;}
        .stroke11 {fill: #808070;}
        .stroke12 {fill: #808069;}
        .stroke13 {fill: #808068;}
        .stroke14 {fill: #808067;}
        .stroke15 {fill: #808066;}
        .stroke16 {fill: #808065;}
        .stroke17 {fill: #808064;}
        .stroke18 {fill: #808063;}
        .stroke19 {fill: #808062;}
        .stroke20 {fill: #808061;}
        text {
            font-family: Helvetica;
            font-size: 50px;
            fill: #808060;
            paint-order: stroke;
            stroke: #000000;
            stroke-width: 4px;
            stroke-linecap: butt;
            stroke-linejoin: miter;
            font-weight: 800;
        }
    </style>

    <path d="M 198 679 Q 183 694 151 705 Q 142 706 137 699 Q 134 693 141 684 Q 180 567 151 390 Q 135 333 139 316 Q 148 286 158 275 Q 168 263 177 276 Q 201 304 201 479 Q 201 611 206 652 C 208 671 208 671 198 679 Z" class="stroke1"/>
    <path d="M 348 365 Q 341 344 353 324 Q 366 297 374 298 Q 387 299 402 329 Q 415 351 415 371 Q 388 590 426 654 Q 436 675 432 681 Q 407 703 363 722 Q 348 726 276 698 Q 228 686 198 679 C 169 672 177 646 206 652 Q 209 652 277 668 Q 332 683 345 675 Q 355 653 359 589 Q 359 402 348 365 Z" class="stroke2"/>
    <path d="M 256 533 Q 271 212 165 105 Q 141 81 102 51 Q 92 45 89 41 Q 85 37 99 36 Q 136 36 208 95 Q 301 173 303 440 Q 303 515 316 562 Q 320 572 312 578 Q 296 591 264 603 Q 246 610 232 604 Q 216 597 229 583 Q 254 558 256 533 Z" class="stroke3"/>
    <path d="M 333 185 Q 352 161 374 133 Q 384 120 398 119 Q 407 118 413 129 Q 419 141 415 168 Q 414 186 388 202 Q 328 233 316 231 Q 312 228 311 217 Q 312 207 333 185 Z" class="stroke4"/>
    <path d="M 594 650 Q 645 743 656 753 Q 665 763 659 776 Q 655 788 627 807 Q 600 823 583 821 Q 565 818 575 798 Q 596 756 523 622 Q 489 559 440 489 Q 431 479 430 473 Q 427 463 440 466 Q 449 469 502 521 L 514 535 Q 569 613 580 628 L 594 650 Z" class="stroke5"/>
    <path d="M 652 445 Q 698 502 746 569 Q 767 597 802 625 Q 818 635 812 646 Q 811 656 748 681 Q 729 691 709 678 Q 693 669 665 663 Q 628 656 594 650 C 564 645 552 639 580 628 Q 607 610 666 628 Q 688 632 697 623 Q 704 605 615 476 L 594 449 Q 584 439 575 425 Q 517 358 406 266 Q 391 254 406 253 Q 485 265 627 417 L 652 445 Z" class="stroke6"/>
    <path d="M 627 417 Q 642 404 658 385 Q 775 268 816 267 Q 897 270 962 284 Q 996 291 992 299 Q 991 303 958 313 Q 775 353 697 412 Q 675 427 652 445 L 615 476 Q 599 491 583 505 Q 549 538 517 536 Q 516 536 514 535 C 484 535 475 534 502 521 Q 521 517 594 449 L 627 417 Z" class="stroke7"/>
    <path d="M 509 223 Q 497 230 461 237 Q 448 241 445 235 Q 438 229 447 213 Q 474 152 489 51 Q 490 20 508 0 Q 526 -22 531 -7 Q 535 8 535 32 L 531 68 Q 518 156 515 190 C 512 220 512 222 509 223 Z" class="stroke8"/>
    <path d="M 747 90 Q 774 171 805 190 Q 821 209 807 227 Q 791 242 737 268 Q 718 275 696 268 Q 618 238 509 223 C 479 219 486 184 515 190 Q 695 226 706 216 Q 715 207 713 189 Q 704 135 692 92 C 684 63 737 62 747 90 Z" class="stroke9"/>
    <path d="M 535 32 Q 539 31 550 32 Q 617 44 765 48 Q 777 49 778 58 Q 779 67 748 90 L 747 90 L 692 92 Q 602 76 531 68 C 501 65 505 34 535 32 Z" class="stroke10"/>
    
    
    
    
    
    
    
    
    
    </g>
</svg>