<svg version="1.1" viewBox="0 0 1024 1024" xmlns="http://www.w3.org/2000/svg">
  
  <g transform="scale(1, -1) translate(0, -900)">
    <style type="text/css">
        .stroke1 {fill: #808080;}
        .stroke2 {fill: #808079;}
        .stroke3 {fill: #808078;}
        .stroke4 {fill: #808077;}
        .stroke5 {fill: #808076;}
        .stroke6 {fill: #808075;}
        .stroke7 {fill: #808074;}
        .stroke8 {fill: #808073;}
        .stroke9 {fill: #808072;}
        .stroke10 {fill: #808071;}
        .stroke11 {fill: #808070;}
        .stroke12 {fill: #808069;}
        .stroke13 {fill: #808068;}
        .stroke14 {fill: #808067;}
        .stroke15 {fill: #808066;}
        .stroke16 {fill: #808065;}
        .stroke17 {fill: #808064;}
        .stroke18 {fill: #808063;}
        .stroke19 {fill: #808062;}
        .stroke20 {fill: #808061;}
        text {
            font-family: Helvetica;
            font-size: 50px;
            fill: #808060;
            paint-order: stroke;
            stroke: #000000;
            stroke-width: 4px;
            stroke-linecap: butt;
            stroke-linejoin: miter;
            font-weight: 800;
        }
    </style>

    <path d="M 185 658 Q 166 674 143 681 Q 134 682 129 675 Q 126 669 133 660 Q 179 537 137 357 Q 128 318 131 304 Q 140 274 150 263 Q 160 251 169 264 Q 193 292 193 461 Q 193 602 199 633 C 201 646 201 646 185 658 Z" class="stroke1"/>
    <path d="M 401 372 Q 394 456 395 570 Q 395 610 418 646 Q 427 661 419 669 Q 394 690 351 707 Q 338 711 317 703 Q 286 687 248 673 Q 214 663 185 658 C 156 652 170 626 199 633 Q 328 666 330 665 Q 331 665 334 663 Q 346 638 350 570 Q 351 368 340 329 Q 333 308 345 288 Q 358 261 366 262 Q 379 263 394 293 Q 407 317 406 336 Q 405 346 403 355 L 401 372 Z" class="stroke2"/>
    <path d="M 251 520 Q 263 243 193 143 Q 183 131 169 117 Q 142 89 81 52 Q 71 48 69 45 Q 66 41 78 39 Q 142 39 227 122 Q 234 132 243 143 Q 291 227 292 465 Q 292 502 304 546 Q 308 555 300 560 Q 287 572 258 582 Q 242 589 229 583 Q 214 577 227 564 Q 249 543 251 520 Z" class="stroke3"/>
    <path d="M 327 174 Q 349 143 373 105 Q 380 92 394 90 Q 403 89 409 97 Q 416 107 415 133 Q 415 154 390 176 Q 330 221 316 218 Q 312 217 310 206 Q 311 196 327 174 Z" class="stroke4"/>
    <path d="M 600 766 Q 634 741 669 711 Q 685 699 701 701 Q 713 702 717 716 Q 721 732 709 763 Q 702 785 665 799 Q 581 824 568 815 Q 562 811 565 797 Q 569 787 600 766 Z" class="stroke5"/>
    <path d="M 741 615 Q 754 619 770 621 Q 815 631 822 637 Q 831 644 827 652 Q 820 664 792 672 Q 764 678 734 667 Q 682 651 625 638 Q 564 625 490 620 Q 454 614 479 598 Q 516 573 573 585 Q 636 597 704 606 L 741 615 Z" class="stroke6"/>
    <path d="M 504 520 Q 540 435 561 427 Q 574 421 585 437 Q 589 447 587 470 Q 583 489 562 506 Q 531 536 516 544 Q 509 548 504 538 Q 500 531 504 520 Z" class="stroke7"/>
    <path d="M 686 417 Q 708 453 743 517 Q 753 536 771 561 Q 784 573 776 583 Q 766 598 741 615 C 716 632 699 636 704 606 Q 713 572 664 439 Q 657 423 656 412 C 651 382 670 391 686 417 Z" class="stroke8"/>
    <path d="M 656 412 Q 401 373 401 372 C 385 369 385 369 403 355 Q 416 342 434 337 Q 455 333 470 337 Q 650 392 933 393 Q 934 393 936 393 Q 955 393 960 402 Q 964 412 949 426 Q 892 465 842 449 Q 779 436 686 417 L 656 412 Z" class="stroke9"/>
    <path d="M 517 248 Q 505 252 479 256 Q 466 260 463 254 Q 456 247 466 231 Q 494 173 514 76 Q 518 48 535 28 Q 554 6 559 22 Q 562 32 562 47 L 559 82 Q 541 184 538 215 C 535 243 535 243 517 248 Z" class="stroke10"/>
    <path d="M 773 120 Q 800 204 831 228 Q 847 247 832 266 Q 816 279 761 304 Q 742 311 720 303 Q 642 270 517 248 C 487 243 510 204 538 215 Q 545 218 554 221 Q 630 236 705 252 Q 724 256 732 249 Q 742 240 740 222 Q 731 164 719 118 C 712 89 764 92 773 120 Z" class="stroke11"/>
    <path d="M 562 47 Q 571 46 583 48 Q 650 64 796 79 Q 806 80 808 90 Q 809 99 776 119 Q 775 120 773 120 L 719 118 Q 628 96 559 82 C 530 76 532 48 562 47 Z" class="stroke12"/>
    
    
    
    
    
    
    
    
    
    
    
    </g>
</svg>