<svg version="1.1" viewBox="0 0 1024 1024" xmlns="http://www.w3.org/2000/svg">
  
  <g transform="scale(1, -1) translate(0, -900)">
    <style type="text/css">
        .stroke1 {fill: #808080;}
        .stroke2 {fill: #808079;}
        .stroke3 {fill: #808078;}
        .stroke4 {fill: #808077;}
        .stroke5 {fill: #808076;}
        .stroke6 {fill: #808075;}
        .stroke7 {fill: #808074;}
        .stroke8 {fill: #808073;}
        .stroke9 {fill: #808072;}
        .stroke10 {fill: #808071;}
        .stroke11 {fill: #808070;}
        .stroke12 {fill: #808069;}
        .stroke13 {fill: #808068;}
        .stroke14 {fill: #808067;}
        .stroke15 {fill: #808066;}
        .stroke16 {fill: #808065;}
        .stroke17 {fill: #808064;}
        .stroke18 {fill: #808063;}
        .stroke19 {fill: #808062;}
        .stroke20 {fill: #808061;}
        text {
            font-family: Helvetica;
            font-size: 50px;
            fill: #808060;
            paint-order: stroke;
            stroke: #000000;
            stroke-width: 4px;
            stroke-linecap: butt;
            stroke-linejoin: miter;
            font-weight: 800;
        }
    </style>

    <path d="M 552 608 Q 591 615 691 627 Q 703 626 713 639 Q 714 652 689 663 Q 647 690 559 659 Q 556 659 555 658 L 499 646 Q 454 640 361 627 Q 330 623 353 604 Q 389 576 421 584 Q 457 591 500 599 L 552 608 Z" class="stroke1"/>
    <path d="M 543 494 Q 547 552 552 608 L 555 658 Q 556 727 576 800 Q 580 812 559 827 Q 522 846 497 851 Q 481 855 472 846 Q 465 839 473 822 Q 494 794 494 773 Q 498 712 499 646 L 500 599 Q 500 547 498 487 C 497 457 541 464 543 494 Z" class="stroke2"/>
    <path d="M 623 459 Q 717 466 838 465 Q 919 462 927 474 Q 934 487 915 504 Q 846 553 784 533 Q 687 515 543 494 L 498 487 Q 335 468 143 445 Q 118 444 136 423 Q 152 407 173 401 Q 197 394 215 400 Q 294 422 384 434 L 440 442 Q 503 451 562 456 L 623 459 Z" class="stroke3"/>
    <path d="M 384 434 Q 421 377 387 235 Q 354 123 259 47 Q 244 35 230 23 Q 218 13 230 12 Q 243 12 276 27 Q 321 49 354 84 Q 432 157 449 285 Q 449 337 465 382 Q 466 392 472 403 Q 481 421 464 429 Q 451 438 440 442 C 413 455 370 461 384 434 Z" class="stroke4"/>
    <path d="M 553 80 Q 528 87 503 97 Q 491 101 491 94 Q 490 87 499 78 Q 548 11 564 -28 Q 577 -47 594 -34 Q 636 2 637 101 Q 625 359 646 415 Q 656 433 639 447 Q 632 454 623 459 C 599 477 549 483 562 456 Q 584 417 583 374 Q 587 194 578 102 Q 577 87 569 81 Q 563 77 553 80 Z" class="stroke5"/>
    <path d="M 282 317 Q 255 268 221 223 Q 197 190 213 154 Q 220 135 243 146 Q 295 182 304 255 Q 311 289 306 315 Q 302 324 296 326 Q 286 325 282 317 Z" class="stroke6"/>
    <path d="M 695 304 Q 756 255 830 181 Q 848 160 864 157 Q 874 156 881 167 Q 894 182 878 227 Q 857 288 695 337 Q 685 341 684 329 Q 683 314 695 304 Z" class="stroke7"/>
    
    
    
    
    
    
    </g>
</svg>