<svg version="1.1" viewBox="0 0 1024 1024" xmlns="http://www.w3.org/2000/svg">
  
  <g transform="scale(1, -1) translate(0, -900)">
    <style type="text/css">
        .stroke1 {fill: #808080;}
        .stroke2 {fill: #808079;}
        .stroke3 {fill: #808078;}
        .stroke4 {fill: #808077;}
        .stroke5 {fill: #808076;}
        .stroke6 {fill: #808075;}
        .stroke7 {fill: #808074;}
        .stroke8 {fill: #808073;}
        .stroke9 {fill: #808072;}
        .stroke10 {fill: #808071;}
        .stroke11 {fill: #808070;}
        .stroke12 {fill: #808069;}
        .stroke13 {fill: #808068;}
        .stroke14 {fill: #808067;}
        .stroke15 {fill: #808066;}
        .stroke16 {fill: #808065;}
        .stroke17 {fill: #808064;}
        .stroke18 {fill: #808063;}
        .stroke19 {fill: #808062;}
        .stroke20 {fill: #808061;}
        text {
            font-family: Helvetica;
            font-size: 50px;
            fill: #808060;
            paint-order: stroke;
            stroke: #000000;
            stroke-width: 4px;
            stroke-linecap: butt;
            stroke-linejoin: miter;
            font-weight: 800;
        }
    </style>

    <path d="M 379 600 Q 469 627 473 630 Q 480 637 475 645 Q 468 655 441 661 Q 399 667 382 650 L 334 632 Q 274 614 210 603 Q 177 596 202 581 Q 241 563 294 578 Q 310 584 334 588 L 379 600 Z" class="stroke1"/>
    <path d="M 373 489 Q 376 546 379 600 L 382 650 Q 382 716 401 794 Q 404 804 385 818 Q 351 836 329 839 Q 313 842 306 834 Q 299 827 307 813 Q 328 783 328 763 Q 332 700 334 632 L 334 588 Q 334 536 333 480 C 332 450 371 459 373 489 Z" class="stroke2"/>
    <path d="M 353 447 Q 410 460 481 469 Q 497 470 498 478 Q 499 490 482 498 Q 454 511 373 489 L 333 480 Q 153 444 88 437 Q 76 436 73 428 Q 70 418 85 407 Q 121 380 161 394 Q 297 439 317 439 L 353 447 Z" class="stroke3"/>
    <path d="M 369 185 Q 373 258 379 317 L 382 355 Q 382 374 386 394 Q 395 416 353 447 C 329 465 305 467 317 439 Q 329 418 329 336 Q 329 291 328 207 C 328 177 367 155 369 185 Z" class="stroke4"/>
    <path d="M 379 317 Q 430 330 470 338 Q 492 345 482 357 Q 469 370 444 371 Q 420 371 382 355 C 354 344 350 310 379 317 Z" class="stroke5"/>
    <path d="M 230 264 Q 246 292 264 315 Q 274 328 259 342 Q 217 373 191 371 Q 181 368 182 354 Q 198 267 95 143 Q 83 137 53 96 Q 46 81 60 86 Q 78 89 101 107 Q 174 165 214 237 Q 214 238 215 240 L 230 264 Z" class="stroke6"/>
    <path d="M 215 240 Q 257 198 493 69 Q 589 21 687 -23 Q 724 -39 769 -26 Q 847 -2 929 28 Q 957 40 965 50 Q 968 62 950 60 Q 851 63 792 59 Q 633 56 446 148 Q 407 166 369 185 L 328 207 Q 279 235 230 264 C 204 279 192 259 215 240 Z" class="stroke7"/>
    <path d="M 511 575 Q 568 530 581 531 Q 590 532 593 544 Q 596 557 586 582 Q 577 603 503 616 Q 490 617 484 615 Q 480 611 482 600 Q 486 590 511 575 Z" class="stroke8"/>
    <path d="M 461 277 Q 452 276 452 262 Q 455 205 478 188 Q 482 182 490 183 Q 496 183 499 202 Q 511 239 607 408 Q 614 418 613 423 Q 614 430 606 427 Q 602 426 495 303 Q 483 290 461 277 Z" class="stroke9"/>
    <path d="M 679 577 Q 700 619 719 674 Q 728 704 738 720 Q 744 730 737 740 Q 731 750 704 762 Q 679 771 664 767 Q 651 763 661 746 Q 683 719 647 601 Q 631 547 603 486 Q 597 476 597 470 Q 596 461 607 466 Q 625 475 667 553 L 679 577 Z" class="stroke10"/>
    <path d="M 667 553 Q 683 538 728 553 Q 812 581 827 576 Q 837 567 833 561 Q 833 558 796 499 Q 789 490 793 484 Q 796 480 808 489 Q 896 540 936 550 Q 945 551 946 558 Q 947 570 922 586 Q 862 628 835 619 Q 774 597 679 577 C 650 571 641 568 667 553 Z" class="stroke11"/>
    <path d="M 727 332 Q 736 366 744 414 Q 747 432 751 440 Q 757 446 752 454 Q 748 460 724 469 Q 697 482 684 477 Q 675 473 683 460 Q 704 352 654 272 Q 626 223 539 175 Q 520 163 543 164 Q 579 161 638 197 Q 686 222 719 306 L 727 332 Z" class="stroke12"/>
    <path d="M 719 306 Q 777 248 846 162 Q 858 144 871 140 Q 878 139 885 146 Q 895 156 888 194 Q 879 248 727 332 C 701 347 698 327 719 306 Z" class="stroke13"/>
    
    
    
    
    
    
    
    
    
    
    
    
    </g>
</svg>