<svg version="1.1" viewBox="0 0 1024 1024" xmlns="http://www.w3.org/2000/svg">
  
  <g transform="scale(1, -1) translate(0, -900)">
    <style type="text/css">
        .stroke1 {fill: #808080;}
        .stroke2 {fill: #808079;}
        .stroke3 {fill: #808078;}
        .stroke4 {fill: #808077;}
        .stroke5 {fill: #808076;}
        .stroke6 {fill: #808075;}
        .stroke7 {fill: #808074;}
        .stroke8 {fill: #808073;}
        .stroke9 {fill: #808072;}
        .stroke10 {fill: #808071;}
        .stroke11 {fill: #808070;}
        .stroke12 {fill: #808069;}
        .stroke13 {fill: #808068;}
        .stroke14 {fill: #808067;}
        .stroke15 {fill: #808066;}
        .stroke16 {fill: #808065;}
        .stroke17 {fill: #808064;}
        .stroke18 {fill: #808063;}
        .stroke19 {fill: #808062;}
        .stroke20 {fill: #808061;}
        text {
            font-family: Helvetica;
            font-size: 50px;
            fill: #808060;
            paint-order: stroke;
            stroke: #000000;
            stroke-width: 4px;
            stroke-linecap: butt;
            stroke-linejoin: miter;
            font-weight: 800;
        }
    </style>

    <path d="M 201 692 Q 198 694 192 696 Q 157 706 148 703 Q 139 700 147 680 Q 153 669 159 657 Q 172 627 186 560 Q 196 511 210 496 Q 221 481 227 486 Q 229 486 229 487 L 233 508 L 231 542 Q 227 547 210 665 C 206 689 206 689 201 692 Z" class="stroke1"/>
    <path d="M 359 566 Q 374 651 398 677 Q 416 702 396 714 L 351 739 Q 331 751 292 723 Q 221 698 201 692 C 172 683 182 654 210 665 Q 213 668 295 690 Q 319 696 324 688 Q 329 682 326 647 L 312 566 C 307 536 354 536 359 566 Z" class="stroke2"/>
    <path d="M 233 508 Q 243 511 247 511 L 283 519 Q 302 525 319 529 L 372 537 Q 382 539 382 547 Q 382 555 359 566 L 312 566 L 310 566 Q 267 553 231 542 C 202 533 204 500 233 508 Z" class="stroke3"/>
    <path d="M 247 511 Q 259 492 263 388 L 263 221 C 263 191 301 203 301 233 Q 302 314 306 370 L 308 404 L 308 424 L 312 481 Q 312 494 302 505 L 291 514 L 283 519 C 258 535 235 539 247 511 Z" class="stroke4"/>
    <path d="M 306 370 Q 359 384 388 390 Q 405 396 402 404 Q 393 417 365 419 Q 344 419 308 404 C 280 393 277 362 306 370 Z" class="stroke5"/>
    <path d="M 212 205 Q 196 320 198 353 Q 200 376 186 386 Q 151 408 129 407 Q 110 406 122 385 Q 137 361 143 347 Q 153 319 175 194 C 180 164 216 175 212 205 Z" class="stroke6"/>
    <path d="M 263 221 Q 236 214 212 205 L 175 194 Q 161 191 145 186 Q 122 177 93 177 Q 80 176 79 166 Q 78 163 79 159 Q 79 153 86 145 Q 103 133 141 114 Q 152 110 162 120 Q 190 142 277 184 Q 354 221 370 237 Q 383 244 383 253 Q 376 257 345 247 L 301 233 L 263 221 Z" class="stroke7"/>
    <path d="M 734 502 Q 788 516 878 533 Q 888 531 899 545 Q 899 559 874 567 Q 841 586 766 563 Q 746 555 739 551 L 693 539 L 641 527 Q 611 523 576 515 Q 549 510 571 494 Q 602 474 646 482 L 687 492 L 734 502 Z" class="stroke8"/>
    <path d="M 726 455 Q 731 485 734 502 L 739 551 Q 746 694 757 738 Q 759 747 760 755 Q 765 764 759 771 Q 710 810 678 800 Q 662 794 676 779 Q 700 755 700 727 Q 702 623 693 539 L 687 492 Q 668 355 582 259 Q 544 228 543 225 Q 539 220 549 220 L 553 220 Q 584 220 645 274 Q 706 329 719 428 L 726 455 Z" class="stroke9"/>
    <path d="M 719 428 Q 778 346 847 231 Q 857 212 866 206 Q 872 204 880 210 Q 892 218 890 255 Q 890 315 726 455 C 703 475 702 452 719 428 Z" class="stroke10"/>
    <path d="M 447 624 Q 494 566 510 566 Q 514 566 517 568 Q 535 578 525 622 Q 520 642 478 660 Q 441 674 424 673 Q 420 669 419 657 Q 421 647 447 624 Z" class="stroke11"/>
    <path d="M 488 200 Q 515 223 496 276 L 478 319 Q 474 339 501 381 Q 509 394 533 417 Q 549 433 545 443 Q 543 451 522 463 Q 488 484 472 478 Q 467 475 451 461 Q 417 431 408 431 Q 402 431 400 427 Q 400 425 402 423 Q 421 410 447 423 Q 462 429 465 429 Q 470 427 474 419 Q 482 403 466 388 Q 454 378 447 368 Q 431 349 442 318 Q 451 289 451 285 Q 467 249 467 225 Q 467 211 463 203 C 455 174 468 178 488 200 Z" class="stroke12"/>
    <path d="M 463 203 Q 454 204 441 203 Q 419 200 402 203 Q 386 206 382 204 Q 373 198 380 185 Q 382 183 382 182 Q 392 169 435 166 Q 472 172 504 163 Q 525 158 546 143 Q 612 98 741 39 Q 775 20 823 39 L 943 86 Q 962 94 962 104 Q 962 118 921 112 Q 918 112 913 112 L 803 112 Q 735 112 688 129 L 512 194 Q 503 197 488 200 L 463 203 Z" class="stroke13"/>
    
    
    
    
    
    
    
    
    
    
    
    
    </g>
</svg>