<svg version="1.1" viewBox="0 0 1024 1024" xmlns="http://www.w3.org/2000/svg">
  
  <g transform="scale(1, -1) translate(0, -900)">
    <style type="text/css">
        .stroke1 {fill: #808080;}
        .stroke2 {fill: #808079;}
        .stroke3 {fill: #808078;}
        .stroke4 {fill: #808077;}
        .stroke5 {fill: #808076;}
        .stroke6 {fill: #808075;}
        .stroke7 {fill: #808074;}
        .stroke8 {fill: #808073;}
        .stroke9 {fill: #808072;}
        .stroke10 {fill: #808071;}
        .stroke11 {fill: #808070;}
        .stroke12 {fill: #808069;}
        .stroke13 {fill: #808068;}
        .stroke14 {fill: #808067;}
        .stroke15 {fill: #808066;}
        .stroke16 {fill: #808065;}
        .stroke17 {fill: #808064;}
        .stroke18 {fill: #808063;}
        .stroke19 {fill: #808062;}
        .stroke20 {fill: #808061;}
        text {
            font-family: Helvetica;
            font-size: 50px;
            fill: #808060;
            paint-order: stroke;
            stroke: #000000;
            stroke-width: 4px;
            stroke-linecap: butt;
            stroke-linejoin: miter;
            font-weight: 800;
        }
    </style>

    <path d="M 189 649 Q 179 653 156 656 Q 144 659 141 654 Q 134 648 143 632 Q 171 578 188 491 Q 192 464 208 447 Q 226 425 231 441 Q 235 453 234 470 L 230 500 Q 212 603 212 624 C 211 642 211 642 189 649 Z" class="stroke1"/>
    <path d="M 374 531 Q 393 604 416 627 Q 438 652 416 666 Q 356 703 343 699 Q 337 699 333 695 Q 291 670 189 649 C 160 643 183 616 212 624 Q 212 625 305 646 Q 333 653 340 641 Q 347 635 339 603 Q 332 569 322 528 C 315 499 366 502 374 531 Z" class="stroke2"/>
    <path d="M 289 481 Q 329 491 391 499 Q 401 500 401 509 Q 401 516 374 531 C 359 540 351 537 322 528 Q 271 512 230 500 C 201 492 204 471 234 470 Q 241 469 253 472 Q 254 473 257 472 C 264 472 260 474 289 481 Z" class="stroke3"/>
    <path d="M 325 352 Q 329 448 327 453 L 326 454 Q 307 472 289 481 C 263 496 247 500 257 472 Q 272 430 274 417 Q 275 392 279 185 C 280 155 321 169 321 199 Q 322 263 324 318 L 325 352 Z" class="stroke4"/>
    <path d="M 324 318 Q 379 331 421 338 Q 443 345 434 357 Q 421 370 396 372 Q 345 372 325 352 C 303 332 295 311 324 318 Z" class="stroke5"/>
    <path d="M 222 167 Q 207 287 211 317 Q 212 338 199 348 Q 177 363 151 369 Q 138 373 131 367 Q 124 360 131 347 Q 158 305 185 156 C 190 126 226 137 222 167 Z" class="stroke6"/>
    <path d="M 279 185 Q 251 178 222 167 L 185 156 Q 106 135 85 135 Q 72 134 70 123 Q 69 110 78 102 Q 100 86 134 68 Q 144 65 156 74 Q 192 102 353 179 Q 377 189 393 203 Q 406 210 406 220 Q 400 226 388 223 Q 355 213 321 199 L 279 185 Z" class="stroke7"/>
    <path d="M 611 765 Q 633 747 657 724 Q 673 711 689 713 Q 699 714 705 728 Q 709 744 698 775 Q 686 803 603 815 Q 587 819 580 815 Q 574 811 577 797 Q 581 787 611 765 Z" class="stroke8"/>
    <path d="M 754 638 Q 844 660 846 662 Q 855 669 851 677 Q 844 687 818 695 Q 791 701 710 674 Q 586 646 505 638 Q 471 634 495 617 Q 531 593 584 606 Q 648 619 717 630 L 754 638 Z" class="stroke9"/>
    <path d="M 526 547 Q 562 478 583 473 Q 593 469 603 484 Q 607 494 602 514 Q 596 530 577 542 Q 549 564 535 569 Q 528 572 525 562 Q 522 556 526 547 Z" class="stroke10"/>
    <path d="M 713 460 Q 714 464 718 469 Q 737 503 757 545 Q 767 564 783 587 Q 796 599 788 608 Q 778 623 754 638 C 729 654 707 658 717 630 L 718 629 Q 730 593 683 469 Q 679 462 677 453 C 669 424 700 433 713 460 Z" class="stroke11"/>
    <path d="M 601 398 Q 673 413 853 435 Q 863 434 872 446 Q 873 458 851 468 Q 815 493 718 461 Q 715 461 713 460 L 677 453 Q 656 450 465 424 Q 437 421 458 404 Q 468 394 484 386 Q 497 377 519 384 Q 541 388 568 393 L 601 398 Z" class="stroke12"/>
    <path d="M 603 282 Q 640 360 640 362 Q 634 375 601 398 C 577 416 560 422 568 393 Q 568 392 570 388 Q 582 363 553 274 L 540 237 Q 507 167 509 158 Q 512 148 529 145 Q 601 127 635 101 L 674 79 Q 735 42 823 -26 Q 848 -45 866 -45 Q 887 -45 887 -25 Q 887 -6 858 40 Q 843 67 708 119 L 665 135 Q 611 156 573 165 Q 551 169 562 191 Q 575 222 587 246 L 603 282 Z" class="stroke13"/>
    <path d="M 781 312 Q 782 316 784 319 Q 788 329 782 337 Q 746 380 717 376 Q 708 372 710 362 Q 716 335 715 300 L 712 264 Q 706 201 665 135 L 635 101 Q 569 44 425 4 Q 416 3 412 0 Q 406 -4 414 -9 Q 420 -10 432 -10 Q 523 -6 590 24 Q 641 45 674 79 L 708 119 Q 744 173 770 270 L 781 312 Z" class="stroke14"/>
    <path d="M 770 270 Q 851 276 945 276 Q 963 277 967 285 Q 971 295 957 307 Q 908 346 847 327 Q 817 321 781 312 L 715 300 Q 679 297 603 282 L 553 274 Q 490 267 423 256 Q 404 255 418 239 Q 431 227 447 222 Q 466 218 480 222 Q 508 231 540 237 L 587 246 Q 615 253 649 257 Q 677 261 712 264 L 770 270 Z" class="stroke15"/>
    
    
    
    
    
    
    
    
    
    
    
    
    
    
    </g>
</svg>