<svg version="1.1" viewBox="0 0 1024 1024" xmlns="http://www.w3.org/2000/svg">
  
  <g transform="scale(1, -1) translate(0, -900)">
    <style type="text/css">
        .stroke1 {fill: #808080;}
        .stroke2 {fill: #808079;}
        .stroke3 {fill: #808078;}
        .stroke4 {fill: #808077;}
        .stroke5 {fill: #808076;}
        .stroke6 {fill: #808075;}
        .stroke7 {fill: #808074;}
        .stroke8 {fill: #808073;}
        .stroke9 {fill: #808072;}
        .stroke10 {fill: #808071;}
        .stroke11 {fill: #808070;}
        .stroke12 {fill: #808069;}
        .stroke13 {fill: #808068;}
        .stroke14 {fill: #808067;}
        .stroke15 {fill: #808066;}
        .stroke16 {fill: #808065;}
        .stroke17 {fill: #808064;}
        .stroke18 {fill: #808063;}
        .stroke19 {fill: #808062;}
        .stroke20 {fill: #808061;}
        text {
            font-family: Helvetica;
            font-size: 50px;
            fill: #808060;
            paint-order: stroke;
            stroke: #000000;
            stroke-width: 4px;
            stroke-linecap: butt;
            stroke-linejoin: miter;
            font-weight: 800;
        }
    </style>

    <path d="M 202 710 Q 190 716 161 720 Q 151 723 147 718 Q 141 712 149 697 Q 174 648 191 567 Q 194 542 209 527 Q 225 506 230 521 Q 231 528 233 538 L 231 568 Q 231 571 231 574 Q 218 656 214 682 C 210 707 210 707 202 710 Z" class="stroke1"/>
    <path d="M 368 592 Q 387 658 410 678 Q 434 702 411 717 Q 353 753 350 753 Q 340 754 330 748 Q 291 726 202 710 C 172 705 185 676 214 682 L 303 700 Q 328 704 335 694 Q 342 688 333 657 Q 326 626 316 592 C 308 563 359 563 368 592 Z" class="stroke2"/>
    <path d="M 293 549 Q 327 558 379 565 Q 389 566 389 574 Q 389 581 368 592 C 351 601 345 600 316 592 Q 268 579 231 568 C 202 559 203 536 233 538 Q 240 538 249 540 Q 250 541 252 540 C 261 541 264 542 293 549 Z" class="stroke3"/>
    <path d="M 306 263 Q 309 330 312 390 L 314 426 Q 317 528 318 528 L 317 529 Q 305 541 293 549 C 269 567 240 567 252 540 Q 264 516 264 491 Q 265 466 264 250 C 264 220 305 233 306 263 Z" class="stroke4"/>
    <path d="M 312 390 Q 358 400 393 404 Q 415 410 405 421 Q 395 434 370 437 Q 348 438 314 426 C 286 416 283 384 312 390 Z" class="stroke5"/>
    <path d="M 198 231 Q 192 348 195 377 Q 196 399 183 409 Q 161 425 134 434 Q 121 438 112 432 Q 105 426 112 412 Q 128 385 137 356 Q 144 328 159 220 C 163 190 200 201 198 231 Z" class="stroke6"/>
    <path d="M 159 220 Q 141 217 124 211 Q 106 205 78 206 Q 65 205 63 195 Q 62 182 70 174 Q 92 158 126 139 Q 136 136 148 145 Q 175 166 335 241 Q 357 251 373 263 Q 386 270 386 280 Q 380 286 368 283 Q 337 273 306 263 L 264 250 Q 230 241 198 231 L 159 220 Z" class="stroke7"/>
    <path d="M 780 643 Q 804 695 827 708 Q 843 726 829 743 Q 757 803 708 774 Q 635 749 544 733 C 514 728 525 698 555 703 Q 643 718 734 735 Q 735 734 737 732 Q 747 720 726 644 C 718 615 767 616 780 643 Z" class="stroke8"/>
    <path d="M 533 577 Q 552 571 564 573 Q 637 592 793 611 Q 803 612 804 621 Q 804 628 780 643 C 763 654 755 652 726 644 Q 620 616 536 602 C 506 597 504 585 533 577 Z" class="stroke9"/>
    <path d="M 544 733 Q 529 746 508 756 Q 489 766 476 762 Q 464 755 470 742 Q 513 667 444 370 Q 432 325 416 284 Q 368 169 279 38 Q 275 31 272 26 Q 269 16 280 17 Q 310 21 399 149 Q 417 180 435 215 Q 510 369 533 577 L 536 602 Q 539 630 543 657 Q 547 696 555 703 C 562 720 562 720 544 733 Z" class="stroke10"/>
    <path d="M 697 389 Q 754 408 934 408 Q 952 409 956 417 Q 960 427 945 439 Q 893 476 848 459 Q 796 446 711 429 Q 707 429 703 427 L 648 417 Q 588 410 522 396 Q 503 393 518 379 Q 531 367 547 363 Q 566 359 581 364 Q 611 374 647 380 L 697 389 Z" class="stroke11"/>
    <path d="M 678 266 Q 688 330 697 389 L 703 427 Q 706 469 724 504 Q 728 514 710 529 Q 679 548 658 554 Q 643 558 636 551 Q 629 544 635 530 Q 650 505 649 489 Q 649 455 648 417 L 647 380 Q 644 322 639 256 C 637 226 673 236 678 266 Z" class="stroke12"/>
    <path d="M 560 243 Q 547 249 520 254 Q 507 258 503 252 Q 496 246 505 229 Q 529 175 542 88 Q 545 63 559 45 Q 578 21 583 37 Q 587 47 588 62 L 586 96 Q 576 187 576 213 C 575 237 575 237 560 243 Z" class="stroke13"/>
    <path d="M 810 123 Q 837 195 870 216 Q 888 235 873 253 Q 857 266 804 294 Q 785 303 763 294 Q 718 278 678 266 L 639 256 Q 599 249 560 243 C 530 238 547 205 576 213 Q 580 214 587 216 Q 669 231 746 246 Q 765 250 774 243 Q 787 228 754 124 C 745 95 799 95 810 123 Z" class="stroke14"/>
    <path d="M 588 62 Q 595 61 607 62 Q 677 77 827 86 Q 837 87 839 96 Q 840 103 810 123 C 796 132 783 130 754 124 Q 660 105 586 96 C 556 92 558 64 588 62 Z" class="stroke15"/>
    
    
    
    
    
    
    
    
    
    
    
    
    
    
    </g>
</svg>