<svg version="1.1" viewBox="0 0 1024 1024" xmlns="http://www.w3.org/2000/svg">
  
  <g transform="scale(1, -1) translate(0, -900)">
    <style type="text/css">
        .stroke1 {fill: #808080;}
        .stroke2 {fill: #808079;}
        .stroke3 {fill: #808078;}
        .stroke4 {fill: #808077;}
        .stroke5 {fill: #808076;}
        .stroke6 {fill: #808075;}
        .stroke7 {fill: #808074;}
        .stroke8 {fill: #808073;}
        .stroke9 {fill: #808072;}
        .stroke10 {fill: #808071;}
        .stroke11 {fill: #808070;}
        .stroke12 {fill: #808069;}
        .stroke13 {fill: #808068;}
        .stroke14 {fill: #808067;}
        .stroke15 {fill: #808066;}
        .stroke16 {fill: #808065;}
        .stroke17 {fill: #808064;}
        .stroke18 {fill: #808063;}
        .stroke19 {fill: #808062;}
        .stroke20 {fill: #808061;}
        text {
            font-family: Helvetica;
            font-size: 50px;
            fill: #808060;
            paint-order: stroke;
            stroke: #000000;
            stroke-width: 4px;
            stroke-linecap: butt;
            stroke-linejoin: miter;
            font-weight: 800;
        }
    </style>

    <path d="M 311 662 Q 398 773 426 793 Q 442 806 429 820 Q 413 833 385 840 Q 360 847 350 841 Q 338 837 345 825 Q 355 800 294 673 Q 290 667 287 658 C 276 630 292 638 311 662 Z" class="stroke1"/>
    <path d="M 271 656 Q 252 672 234 681 Q 224 684 215 680 Q 208 676 210 666 Q 223 642 228 564 Q 228 501 231 344 C 232 314 273 324 273 354 Q 273 396 274 433 L 275 459 Q 275 496 277 529 L 278 556 Q 278 625 282 629 C 285 645 285 645 271 656 Z" class="stroke2"/>
    <path d="M 426 309 Q 417 87 407 71 Q 367 72 325 74 Q 324 74 325 72 Q 373 32 400 3 Q 412 -15 426 -19 Q 435 -22 442 -13 Q 478 35 477 80 Q 470 264 474 564 Q 473 616 486 639 Q 496 657 486 666 Q 467 682 434 696 Q 418 703 404 696 Q 364 675 311 662 L 287 658 Q 280 658 271 656 C 241 652 253 622 282 629 Q 334 642 395 655 Q 413 659 417 651 Q 430 612 428 397 L 426 309 Z" class="stroke3"/>
    <path d="M 277 529 Q 337 539 381 546 Q 400 550 393 561 Q 383 574 361 577 Q 319 580 278 556 C 252 541 247 524 277 529 Z" class="stroke4"/>
    <path d="M 274 433 Q 280 436 381 454 Q 402 458 393 469 Q 383 482 360 484 Q 320 487 275 459 C 249 443 245 424 274 433 Z" class="stroke5"/>
    <path d="M 231 344 Q 194 337 158 327 Q 137 323 104 324 Q 91 323 89 314 Q 88 301 95 293 Q 116 277 147 257 Q 157 254 168 261 Q 219 295 395 356 C 423 366 457 405 428 397 Q 355 378 273 354 L 231 344 Z" class="stroke6"/>
    <path d="M 395 356 Q 341 230 106 83 Q 90 73 105 70 Q 115 67 154 82 Q 211 100 262 136 Q 367 218 425 307 Q 425 308 426 309 C 493 413 426 423 395 356 Z" class="stroke7"/>
    <path d="M 783 540 Q 813 618 845 639 Q 861 657 848 675 Q 793 720 758 716 Q 749 716 742 712 Q 679 682 587 667 Q 571 666 573 656 Q 577 649 594 643 Q 609 637 692 654 Q 749 666 755 661 Q 767 648 733 544 C 724 515 772 512 783 540 Z" class="stroke8"/>
    <path d="M 633 481 Q 642 491 794 511 Q 804 512 805 521 Q 805 528 783 540 C 760 553 760 553 733 544 Q 669 523 619 512 C 590 505 607 466 633 481 Z" class="stroke9"/>
    <path d="M 757 355 Q 776 356 786 347 Q 798 331 793 291 Q 784 192 758 125 Q 742 82 727 65 Q 717 55 689 65 Q 649 77 617 85 Q 599 91 603 80 Q 607 67 622 54 Q 671 17 700 -19 Q 716 -40 737 -25 Q 768 -1 793 30 Q 815 51 822 103 Q 835 173 852 280 Q 853 307 869 332 Q 879 351 869 361 Q 856 379 824 394 Q 799 406 783 397 Q 752 388 636 361 Q 617 357 612 364 Q 608 367 611 379 Q 632 478 633 481 C 637 500 637 500 619 512 Q 609 522 586 532 Q 573 541 564 534 Q 554 527 565 513 Q 584 482 574 431 Q 561 364 535 339 Q 522 324 528 311 Q 535 298 546 290 Q 558 281 576 299 Q 612 327 651 339 Q 721 358 757 355 Z" class="stroke10"/>
    
    
    
    
    
    
    
    
    
    </g>
</svg>