<svg version="1.1" viewBox="0 0 1024 1024" xmlns="http://www.w3.org/2000/svg">
  
  <g transform="scale(1, -1) translate(0, -900)">
    <style type="text/css">
        .stroke1 {fill: #808080;}
        .stroke2 {fill: #808079;}
        .stroke3 {fill: #808078;}
        .stroke4 {fill: #808077;}
        .stroke5 {fill: #808076;}
        .stroke6 {fill: #808075;}
        .stroke7 {fill: #808074;}
        .stroke8 {fill: #808073;}
        .stroke9 {fill: #808072;}
        .stroke10 {fill: #808071;}
        .stroke11 {fill: #808070;}
        .stroke12 {fill: #808069;}
        .stroke13 {fill: #808068;}
        .stroke14 {fill: #808067;}
        .stroke15 {fill: #808066;}
        .stroke16 {fill: #808065;}
        .stroke17 {fill: #808064;}
        .stroke18 {fill: #808063;}
        .stroke19 {fill: #808062;}
        .stroke20 {fill: #808061;}
        text {
            font-family: Helvetica;
            font-size: 50px;
            fill: #808060;
            paint-order: stroke;
            stroke: #000000;
            stroke-width: 4px;
            stroke-linecap: butt;
            stroke-linejoin: miter;
            font-weight: 800;
        }
    </style>

    <path d="M 184 703 Q 175 707 142 711 Q 132 712 128 708 Q 124 702 132 688 Q 160 642 181 563 Q 185 541 201 525 Q 217 507 222 521 Q 223 528 223 540 L 219 568 Q 218 571 218 573 Q 200 649 194 676 C 188 702 188 702 184 703 Z" class="stroke1"/>
    <path d="M 341 592 Q 357 668 379 690 Q 400 715 377 727 Q 358 737 333 753 Q 315 762 298 751 Q 265 724 184 703 C 155 695 167 664 194 676 Q 203 682 279 702 Q 301 709 308 700 Q 315 696 308 666 Q 301 635 294 596 C 289 566 335 563 341 592 Z" class="stroke2"/>
    <path d="M 278 555 Q 303 562 346 571 Q 353 572 354 580 Q 354 584 341 592 L 294 596 Q 291 596 290 595 Q 250 579 219 568 C 191 558 194 532 223 540 Q 227 541 234 543 Q 235 544 241 545 L 278 555 Z" class="stroke3"/>
    <path d="M 296 245 Q 297 339 299 416 L 300 450 Q 300 480 302 512 Q 308 533 278 555 C 255 574 231 573 241 545 Q 253 521 256 387 Q 256 327 258 231 C 259 201 296 215 296 245 Z" class="stroke4"/>
    <path d="M 299 416 Q 338 428 365 436 Q 384 445 375 454 Q 362 464 340 463 Q 324 462 300 450 C 273 437 270 407 299 416 Z" class="stroke5"/>
    <path d="M 206 213 Q 191 345 195 380 Q 196 401 182 411 Q 160 427 135 433 Q 122 437 115 431 Q 108 425 115 412 Q 133 384 142 354 Q 149 323 169 201 C 174 171 209 183 206 213 Z" class="stroke6"/>
    <path d="M 169 201 Q 99 180 79 179 Q 67 178 66 167 Q 65 155 74 148 Q 95 135 126 119 Q 136 118 146 125 Q 186 158 335 231 Q 357 243 374 256 Q 384 263 385 272 Q 381 276 369 273 Q 333 260 296 245 L 258 231 Q 230 224 206 213 L 169 201 Z" class="stroke7"/>
    <path d="M 583 733 Q 580 761 579 782 Q 580 798 562 804 Q 529 822 508 814 Q 492 805 506 789 Q 530 761 539 727 L 548 695 Q 561 641 572 630 Q 584 621 588 632 Q 589 639 585 707 L 583 733 Z" class="stroke8"/>
    <path d="M 585 707 Q 622 719 620 731 Q 619 735 607 738 Q 595 737 583 733 L 539 727 Q 461 718 407 712 Q 397 712 396 708 Q 393 701 400 693 Q 413 680 437 671 Q 453 664 468 669 Q 505 682 548 695 L 585 707 Z" class="stroke9"/>
    <path d="M 760 753 Q 778 790 792 811 Q 805 824 797 833 Q 787 848 758 865 Q 745 874 729 867 Q 720 863 726 852 Q 739 816 690 681 Q 683 662 682 649 Q 683 637 696 644 Q 706 651 745 721 L 760 753 Z" class="stroke10"/>
    <path d="M 745 721 Q 757 715 796 721 Q 838 730 907 722 Q 920 721 923 728 Q 927 737 917 748 Q 880 782 801 760 Q 782 759 760 753 C 731 745 717 730 745 721 Z" class="stroke11"/>
    <path d="M 447 187 Q 447 343 449 389 L 449 414 Q 449 439 451 459 L 452 486 Q 455 520 458 537 Q 458 540 458 542 C 459 551 459 551 444 562 Q 425 578 403 585 Q 394 586 389 579 Q 386 575 392 565 Q 443 442 405 176 Q 398 134 383 89 Q 376 67 380 49 Q 387 19 398 8 Q 408 -5 417 8 Q 445 39 447 181 L 447 187 Z" class="stroke12"/>
    <path d="M 539 403 Q 540 402 543 397 Q 559 372 577 393 Q 587 405 594 450 Q 600 513 619 539 Q 629 552 619 565 Q 604 578 580 591 Q 568 597 555 591 Q 503 572 444 562 C 414 557 429 535 458 542 Q 542 564 555 556 Q 561 553 559 534 Q 550 432 547 426 C 542 399 536 407 539 403 Z" class="stroke13"/>
    <path d="M 451 459 Q 451 460 453 460 Q 493 470 524 476 Q 542 482 534 490 Q 524 500 504 501 Q 486 501 452 486 C 424 474 424 447 451 459 Z" class="stroke14"/>
    <path d="M 449 389 Q 500 399 539 403 C 569 406 574 412 547 426 Q 540 430 529 432 Q 496 435 449 414 C 422 402 420 383 449 389 Z" class="stroke15"/>
    <path d="M 701 607 Q 692 611 673 617 Q 663 621 660 617 Q 656 613 660 600 Q 679 545 684 459 Q 684 434 696 414 Q 708 396 714 408 Q 715 412 718 419 L 720 442 Q 720 464 717 498 L 715 522 Q 712 565 712 581 C 712 603 712 603 701 607 Z" class="stroke16"/>
    <path d="M 842 432 Q 854 39 833 7 Q 829 1 810 6 Q 785 10 758 16 Q 739 20 741 12 Q 798 -31 828 -62 Q 841 -78 855 -83 Q 862 -86 871 -77 Q 904 -32 903 18 Q 890 205 885 509 Q 884 561 896 585 Q 906 603 896 612 Q 877 628 843 642 Q 827 648 813 642 Q 770 618 701 607 C 672 601 683 576 712 581 Q 718 581 803 600 Q 819 603 826 594 Q 838 582 838 543 Q 839 501 841 461 L 842 432 Z" class="stroke17"/>
    <path d="M 717 498 Q 765 508 802 513 Q 820 517 813 526 Q 804 536 784 540 Q 750 543 715 522 C 689 507 688 492 717 498 Z" class="stroke18"/>
    <path d="M 718 419 Q 788 428 842 432 C 872 434 870 454 841 461 Q 840 462 837 462 Q 819 466 720 442 C 691 435 688 415 718 419 Z" class="stroke19"/>
    <path d="M 531 245 L 589 326 Q 596 336 592 343 Q 588 352 568 354 Q 546 357 537 353 Q 533 352 532 341 Q 532 293 449 188 Q 448 188 447 187 C 440 180 440 180 447 181 Q 446 180 456 182 Q 480 189 512 223 L 531 245 Z" class="stroke20"/>
    <path d="M 562 46 Q 562 169 564 186 Q 568 207 542 235 Q 538 241 531 245 C 507 263 495 248 512 223 Q 531 204 522 94 Q 504 13 532 -16 Q 545 -26 552 -8 Q 556 5 559 19 L 562 46 Z" class="stroke21"/>
    <path d="M 637 379 Q 652 366 669 348 Q 678 339 688 340 Q 695 340 698 349 Q 701 358 695 377 Q 692 389 673 398 Q 627 413 620 410 Q 616 409 617 399 Q 620 392 637 379 Z" class="stroke22"/>
    <path d="M 685 279 Q 715 288 750 296 Q 769 302 772 304 Q 778 311 774 316 Q 770 323 749 328 Q 730 331 664 307 Q 637 300 604 294 Q 579 290 597 278 Q 616 269 651 271 L 685 279 Z" class="stroke23"/>
    <path d="M 699 197 Q 729 204 757 208 Q 776 211 769 222 Q 760 234 739 237 Q 723 238 701 233 L 658 220 Q 625 211 598 202 Q 585 199 601 187 Q 608 181 625 184 Q 641 188 659 190 L 699 197 Z" class="stroke24"/>
    <path d="M 695 129 Q 726 136 757 140 Q 776 143 769 154 Q 760 166 739 169 Q 723 170 697 164 L 659 152 Q 628 143 602 134 Q 587 131 605 119 Q 606 119 659 122 L 695 129 Z" class="stroke25"/>
    <path d="M 693 72 Q 694 102 695 129 L 697 164 Q 697 182 699 197 L 701 233 Q 705 260 701 265 Q 694 272 685 279 C 662 298 639 298 651 271 Q 657 265 658 220 L 659 190 Q 659 174 659 152 L 659 122 Q 659 97 659 64 C 659 34 692 42 693 72 Z" class="stroke26"/>
    <path d="M 659 64 Q 655 64 652 63 Q 609 56 562 46 C 533 40 529 23 559 19 Q 574 16 585 20 Q 654 41 773 44 Q 783 44 791 45 Q 804 45 807 51 Q 810 58 799 67 Q 763 92 697 73 Q 694 73 693 72 L 659 64 Z" class="stroke27"/>
    
    
    
    
    
    
    
    
    
    
    
    
    
    
    
    
    
    
    
    
    
    
    
    
    
    
    </g>
</svg>