<svg version="1.1" viewBox="0 0 1024 1024" xmlns="http://www.w3.org/2000/svg">
  
  <g transform="scale(1, -1) translate(0, -900)">
    <style type="text/css">
        .stroke1 {fill: #808080;}
        .stroke2 {fill: #808079;}
        .stroke3 {fill: #808078;}
        .stroke4 {fill: #808077;}
        .stroke5 {fill: #808076;}
        .stroke6 {fill: #808075;}
        .stroke7 {fill: #808074;}
        .stroke8 {fill: #808073;}
        .stroke9 {fill: #808072;}
        .stroke10 {fill: #808071;}
        .stroke11 {fill: #808070;}
        .stroke12 {fill: #808069;}
        .stroke13 {fill: #808068;}
        .stroke14 {fill: #808067;}
        .stroke15 {fill: #808066;}
        .stroke16 {fill: #808065;}
        .stroke17 {fill: #808064;}
        .stroke18 {fill: #808063;}
        .stroke19 {fill: #808062;}
        .stroke20 {fill: #808061;}
        text {
            font-family: Helvetica;
            font-size: 50px;
            fill: #808060;
            paint-order: stroke;
            stroke: #000000;
            stroke-width: 4px;
            stroke-linecap: butt;
            stroke-linejoin: miter;
            font-weight: 800;
        }
    </style>

    <path d="M 278 635 Q 344 725 388 762 Q 389 764 398 772 Q 414 784 410 794 Q 405 808 375 817 Q 343 829 328 826 Q 319 823 316 821 Q 310 817 316 808 Q 323 790 298 727 L 253 630 C 240 603 260 611 278 635 Z" class="stroke1"/>
    <path d="M 239 627 Q 224 639 209 647 Q 200 651 194 647 Q 184 643 186 635 Q 190 625 192 621 Q 203 594 205 555 L 210 329 C 211 299 249 308 249 338 L 249 416 L 249 437 Q 249 445 250 496 L 250 517 Q 250 596 253 600 C 255 615 255 615 239 627 Z" class="stroke2"/>
    <path d="M 378 272 Q 372 82 361 61 Q 357 55 340 61 L 295 74 Q 284 78 279 76 Q 276 74 276 73 Q 323 22 349 -14 Q 351 -20 355 -24 Q 371 -43 384 -38 Q 390 -33 396 -27 Q 433 12 433 78 Q 428 186 428 333 L 429 400 Q 429 587 443 612 Q 452 623 449 631 Q 449 634 446 637 Q 431 655 390 670 L 378 674 Q 367 676 349 665 Q 312 645 278 635 L 253 630 Q 246 629 239 627 C 210 621 224 593 253 600 Q 263 600 349 626 Q 356 629 360 629 Q 382 631 382 575 Q 384 466 382 372 L 378 272 Z" class="stroke3"/>
    <path d="M 250 496 Q 256 496 351 515 Q 353 515 354 515 Q 368 520 365 527 Q 360 538 341 543 Q 298 554 250 517 C 226 499 220 493 250 496 Z" class="stroke4"/>
    <path d="M 249 416 L 351 431 Q 367 435 365 441 Q 361 453 344 459 Q 306 472 249 437 C 223 421 219 412 249 416 Z" class="stroke5"/>
    <path d="M 80 307 Q 73 307 69 308 Q 64 307 60 304 Q 45 296 59 276 L 108 242 Q 118 239 129 246 Q 145 256 213 283 Q 335 333 368 342 C 397 351 411 379 382 372 L 249 338 L 210 329 Q 195 326 127 312 Q 106 306 80 307 Z" class="stroke6"/>
    <path d="M 368 342 Q 315 249 204 151 L 88 59 Q 76 51 81 49 Q 85 48 94 49 Q 196 67 372 265 Q 372 269 378 272 L 428 333 Q 462 374 461 381 Q 459 386 451 392 Q 439 400 429 400 L 368 342 Z" class="stroke7"/>
    <path d="M 483 710 Q 446 723 437 715 Q 433 711 440 698 Q 465 646 476 592 Q 483 566 497 555 Q 507 547 510 550 Q 514 552 515 577 L 510 604 Q 497 673 497 690 C 496 705 496 705 483 710 Z" class="stroke8"/>
    <path d="M 618 621 Q 635 673 652 690 Q 669 709 652 721 Q 645 725 637 731 Q 615 745 610 747 Q 594 751 559 731 Q 494 713 483 710 C 454 702 469 680 497 690 Q 497 692 566 706 Q 586 710 592 703 Q 594 701 587 668 L 578 625 C 572 596 608 593 618 621 Z" class="stroke9"/>
    <path d="M 515 577 Q 521 577 525 579 Q 550 586 572 590 L 625 597 Q 637 599 637 606 Q 637 611 618 621 L 578 625 Q 574 625 573 624 Q 549 615 510 604 C 481 596 485 575 515 577 Z" class="stroke10"/>
    <path d="M 707 744 Q 686 751 676 751 Q 661 751 670 731 Q 684 703 696 650 Q 705 608 715 595 Q 721 588 725 586 Q 736 583 736 612 L 734 639 Q 725 690 723 720 C 722 739 722 739 707 744 Z" class="stroke11"/>
    <path d="M 855 651 Q 872 704 890 716 Q 906 731 900 742 Q 898 747 894 749 Q 868 766 853 778 L 851 778 Q 843 783 817 774 Q 753 753 707 744 C 678 738 695 709 723 720 Q 729 723 745 727 Q 809 743 821 737 Q 829 733 826 719 Q 825 714 808 657 C 799 628 846 623 855 651 Z" class="stroke12"/>
    <path d="M 872 632 Q 872 639 855 651 C 842 661 838 660 808 657 Q 808 659 806 657 L 734 639 C 705 632 706 612 736 612 L 753 612 Q 771 615 790 617 L 850 622 Q 871 624 872 632 Z" class="stroke13"/>
    <path d="M 512 499 Q 508 502 494 506 Q 459 515 454 509 Q 453 508 452 506 Q 449 502 455 488 Q 486 425 504 318 Q 506 285 524 265 Q 536 249 542 253 Q 546 255 549 280 L 549 310 Q 523 449 521 466 C 517 496 516 497 512 499 Z" class="stroke14"/>
    <path d="M 757 306 Q 762 298 768 292 Q 791 265 805 276 Q 813 284 823 306 Q 833 331 856 428 Q 858 436 860 443 Q 868 461 886 480 Q 896 492 894 501 Q 892 514 832 552 Q 812 562 798 555 Q 786 552 776 549 L 600 515 L 512 499 C 482 494 493 455 521 466 Q 528 474 608 486 L 651 494 Q 752 514 784 508 Q 789 508 793 506 Q 807 498 805 480 Q 780 342 760 332 C 748 317 748 317 757 306 Z" class="stroke15"/>
    <path d="M 680 390 L 749 402 Q 765 404 762 413 Q 758 421 749 426 Q 731 435 684 425 L 631 412 Q 603 406 573 396 Q 564 393 568 388 Q 571 384 574 382 Q 578 378 604 380 Q 614 380 631 381 L 680 390 Z" class="stroke16"/>
    <path d="M 678 298 Q 710 304 757 306 C 787 307 783 313 760 332 Q 751 340 742 343 Q 724 348 678 334 L 631 324 Q 576 316 549 310 C 520 304 519 278 549 280 L 566 281 Q 566 282 568 282 Q 592 288 631 293 L 678 298 Z" class="stroke17"/>
    <path d="M 631 221 Q 515 208 461 194 Q 445 194 449 184 L 455 175 Q 483 151 515 154 Q 523 155 535 160 Q 572 174 631 182 L 678 188 Q 742 195 927 196 Q 949 197 952 205 Q 956 213 951 221 Q 943 231 925 241 Q 874 272 823 255 Q 781 248 678 229 L 631 221 Z" class="stroke18"/>
    <path d="M 631 293 L 631 221 L 631 182 Q 631 -65 647 -90 Q 651 -97 659 -93 Q 670 -87 675 -45 Q 679 -10 680 139 Q 678 176 678 188 L 678 229 Q 678 284 678 298 L 678 334 Q 678 337 680 381 L 680 390 L 684 425 Q 684 433 686 442 Q 690 463 688 467 Q 684 480 651 494 C 624 507 595 513 608 486 Q 608 485 611 480 Q 631 437 631 412 L 631 381 L 631 324 L 631 293 Z" class="stroke19"/>
    
    
    
    
    
    
    
    
    
    
    
    
    
    
    
    
    
    
    </g>
</svg>