<svg version="1.1" viewBox="0 0 1024 1024" xmlns="http://www.w3.org/2000/svg">
  
  <g transform="scale(1, -1) translate(0, -900)">
    <style type="text/css">
        .stroke1 {fill: #808080;}
        .stroke2 {fill: #808079;}
        .stroke3 {fill: #808078;}
        .stroke4 {fill: #808077;}
        .stroke5 {fill: #808076;}
        .stroke6 {fill: #808075;}
        .stroke7 {fill: #808074;}
        .stroke8 {fill: #808073;}
        .stroke9 {fill: #808072;}
        .stroke10 {fill: #808071;}
        .stroke11 {fill: #808070;}
        .stroke12 {fill: #808069;}
        .stroke13 {fill: #808068;}
        .stroke14 {fill: #808067;}
        .stroke15 {fill: #808066;}
        .stroke16 {fill: #808065;}
        .stroke17 {fill: #808064;}
        .stroke18 {fill: #808063;}
        .stroke19 {fill: #808062;}
        .stroke20 {fill: #808061;}
        text {
            font-family: Helvetica;
            font-size: 50px;
            fill: #808060;
            paint-order: stroke;
            stroke: #000000;
            stroke-width: 4px;
            stroke-linecap: butt;
            stroke-linejoin: miter;
            font-weight: 800;
        }
    </style>

    <path d="M 277 633 Q 343 723 386 760 Q 390 766 399 771 Q 417 786 402 800 Q 386 813 357 820 Q 332 827 319 821 Q 307 817 315 805 Q 325 780 272 670 Q 262 651 252 628 C 240 601 259 609 277 633 Z" class="stroke1"/>
    <path d="M 238 625 Q 222 638 208 645 Q 198 648 190 644 Q 183 640 186 631 Q 201 595 203 574 Q 204 549 209 328 C 210 298 248 307 248 337 Q 248 377 248 414 L 248 435 Q 248 466 249 494 L 249 516 Q 249 594 252 598 C 254 612 254 612 238 625 Z" class="stroke2"/>
    <path d="M 377 271 Q 371 81 360 60 Q 356 56 339 60 Q 317 66 294 73 Q 276 80 276 72 Q 322 21 347 -14 Q 357 -33 373 -38 Q 380 -42 389 -33 Q 431 9 431 78 Q 427 186 427 332 L 428 399 Q 428 585 442 609 Q 454 627 442 637 Q 423 655 388 668 Q 370 675 357 669 Q 321 645 277 633 L 252 628 Q 245 627 238 625 C 209 619 223 591 252 598 Q 261 598 348 624 Q 363 630 371 622 Q 381 612 381 573 Q 382 465 381 371 L 377 271 Z" class="stroke3"/>
    <path d="M 249 494 Q 255 494 350 513 Q 371 519 362 529 Q 352 541 328 543 Q 291 546 249 516 C 224 499 219 491 249 494 Z" class="stroke4"/>
    <path d="M 248 414 L 350 430 Q 369 434 361 445 Q 351 458 328 460 Q 295 463 248 435 C 222 420 218 409 248 414 Z" class="stroke5"/>
    <path d="M 209 328 Q 163 319 119 308 Q 100 304 68 306 Q 56 305 54 296 Q 51 284 59 276 Q 80 260 108 241 Q 118 238 129 245 Q 165 267 333 328 Q 342 334 367 341 C 396 350 410 378 381 371 Q 317 355 248 337 L 209 328 Z" class="stroke6"/>
    <path d="M 367 341 Q 313 248 203 151 Q 157 114 88 59 Q 69 46 94 49 Q 196 67 371 263 Q 372 267 377 271 L 427 332 Q 460 374 459 380 Q 455 392 432 398 Q 431 399 428 399 L 367 341 Z" class="stroke7"/>
    <path d="M 555 662 Q 592 652 679 667 Q 740 679 808 690 Q 848 699 854 705 Q 863 712 859 720 Q 852 732 824 740 Q 799 746 709 717 Q 622 699 550 692 Q 547 692 545 691 C 515 687 526 668 555 662 Z" class="stroke8"/>
    <path d="M 649 560 Q 649 561 648 562 Q 638 566 607 571 Q 597 574 594 569 Q 590 565 597 551 Q 619 511 634 446 Q 638 427 650 413 Q 666 395 670 409 Q 671 418 672 430 L 667 458 Q 657 510 655 532 L 649 560 Z" class="stroke9"/>
    <path d="M 803 475 Q 821 527 845 543 Q 858 559 846 572 Q 833 582 790 601 Q 775 605 758 599 Q 730 584 701 575 Q 674 568 649 560 C 620 551 626 526 655 532 Q 665 533 679 539 Q 766 558 771 555 Q 777 551 776 537 Q 770 509 764 483 C 757 454 793 447 803 475 Z" class="stroke10"/>
    <path d="M 672 430 Q 678 430 685 431 Q 725 441 810 449 Q 820 450 820 458 Q 820 464 803 475 L 764 483 Q 758 483 753 481 Q 705 468 667 458 C 638 450 642 429 672 430 Z" class="stroke11"/>
    <path d="M 604 329 Q 597 333 570 339 Q 563 342 560 338 Q 556 334 561 323 Q 582 280 594 208 Q 597 186 609 172 Q 621 157 624 168 Q 627 178 626 195 L 623 221 Q 611 284 609 307 C 607 328 607 328 604 329 Z" class="stroke12"/>
    <path d="M 706 226 Q 722 287 740 304 Q 758 323 740 335 Q 689 362 686 362 Q 680 362 674 358 Q 655 346 604 329 C 576 319 580 300 609 307 Q 634 313 664 318 Q 677 319 680 315 Q 686 311 680 285 Q 674 263 668 237 C 661 208 698 197 706 226 Z" class="stroke13"/>
    <path d="M 626 195 Q 633 195 642 197 Q 663 201 709 207 Q 716 208 717 216 Q 717 220 706 226 L 668 237 Q 661 236 654 233 Q 636 226 623 221 C 595 210 596 194 626 195 Z" class="stroke14"/>
    <path d="M 796 357 Q 789 361 762 368 Q 753 371 750 367 Q 746 363 751 351 Q 767 311 777 246 Q 778 227 788 213 Q 801 197 805 208 Q 806 214 808 221 L 808 248 Q 802 311 800 334 C 798 356 798 356 796 357 Z" class="stroke15"/>
    <path d="M 909 260 Q 925 315 943 331 Q 962 350 944 363 Q 929 372 908 386 Q 893 395 879 387 Q 860 375 837 368 Q 819 364 796 357 C 767 348 771 326 800 334 Q 807 337 863 347 Q 879 351 884 344 Q 888 340 869 262 C 862 233 900 231 909 260 Z" class="stroke16"/>
    <path d="M 808 221 Q 814 220 822 222 Q 853 228 922 232 Q 931 233 932 240 Q 932 246 909 260 C 897 268 897 268 869 262 Q 835 255 808 248 C 779 241 778 223 808 221 Z" class="stroke17"/>
    <path d="M 545 691 Q 535 700 512 710 Q 493 720 485 713 Q 479 707 486 693 Q 526 615 502 171 Q 495 101 475 69 Q 465 56 474 35 Q 481 14 491 6 Q 501 -1 517 10 Q 631 83 952 76 Q 977 75 978 87 Q 978 103 949 124 Q 931 139 819 120 Q 630 102 576 91 Q 563 88 557 93 Q 550 94 549 112 Q 553 317 551 576 Q 550 630 555 662 C 557 684 557 684 545 691 Z" class="stroke18"/>
    
    
    
    
    
    
    
    
    
    
    
    
    
    
    
    
    
    </g>
</svg>