<svg version="1.1" viewBox="0 0 1024 1024" xmlns="http://www.w3.org/2000/svg">
  
  <g transform="scale(1, -1) translate(0, -900)">
    <style type="text/css">
        .stroke1 {fill: #808080;}
        .stroke2 {fill: #808079;}
        .stroke3 {fill: #808078;}
        .stroke4 {fill: #808077;}
        .stroke5 {fill: #808076;}
        .stroke6 {fill: #808075;}
        .stroke7 {fill: #808074;}
        .stroke8 {fill: #808073;}
        .stroke9 {fill: #808072;}
        .stroke10 {fill: #808071;}
        .stroke11 {fill: #808070;}
        .stroke12 {fill: #808069;}
        .stroke13 {fill: #808068;}
        .stroke14 {fill: #808067;}
        .stroke15 {fill: #808066;}
        .stroke16 {fill: #808065;}
        .stroke17 {fill: #808064;}
        .stroke18 {fill: #808063;}
        .stroke19 {fill: #808062;}
        .stroke20 {fill: #808061;}
        text {
            font-family: Helvetica;
            font-size: 50px;
            fill: #808060;
            paint-order: stroke;
            stroke: #000000;
            stroke-width: 4px;
            stroke-linecap: butt;
            stroke-linejoin: miter;
            font-weight: 800;
        }
    </style>

    <path d="M 344 650 Q 378 660 415 668 Q 448 678 452 682 Q 459 689 455 697 Q 448 707 421 713 Q 390 719 349 698 L 298 680 Q 294 680 291 678 Q 246 666 194 659 Q 161 652 186 637 Q 222 619 299 638 L 344 650 Z" class="stroke1"/>
    <path d="M 176 533 Q 164 537 145 540 Q 135 543 131 538 Q 125 532 133 517 Q 161 460 177 366 Q 180 338 197 319 Q 213 298 218 313 Q 219 317 220 323 L 222 350 Q 221 362 219 375 Q 200 478 197 506 C 194 528 194 528 176 533 Z" class="stroke2"/>
    <path d="M 394 361 Q 410 337 425 330 Q 435 323 449 342 Q 462 366 490 491 Q 497 519 518 544 Q 530 556 519 568 Q 504 583 464 606 Q 445 613 386 593 Q 367 592 342 581 L 300 569 Q 284 566 176 533 C 147 524 169 495 197 506 Q 237 522 300 539 L 342 551 Q 414 573 433 563 Q 446 553 443 534 Q 419 405 404 388 C 392 364 392 364 394 361 Z" class="stroke3"/>
    <path d="M 341 446 Q 360 452 378 454 Q 397 458 389 469 Q 379 482 356 484 Q 349 485 341 483 L 299 472 Q 271 459 245 448 Q 230 444 250 432 L 298 436 L 341 446 Z" class="stroke4"/>
    <path d="M 339 350 Q 367 357 394 361 C 424 366 431 376 404 388 Q 383 400 340 385 L 296 372 Q 256 362 222 350 C 194 340 192 314 220 323 Q 236 329 296 340 L 339 350 Z" class="stroke5"/>
    <path d="M 338 225 Q 398 240 473 251 Q 489 254 490 261 Q 491 274 473 282 Q 446 294 424 288 Q 376 276 338 266 L 295 255 Q 123 218 60 210 Q 47 209 45 201 Q 42 191 57 179 Q 96 154 137 167 Q 228 198 289 214 Q 290 215 293 214 L 338 225 Z" class="stroke6"/>
    <path d="M 293 214 Q 286 145 268 80 Q 256 38 283 -22 Q 290 -40 298 -43 Q 305 -50 312 -41 Q 319 -37 330 -16 Q 340 9 339 41 Q 338 72 338 225 L 338 266 Q 338 305 339 350 L 340 385 Q 340 415 341 446 L 341 483 Q 341 517 342 551 L 342 581 Q 342 618 344 650 L 349 698 Q 353 740 363 772 Q 372 787 369 801 Q 362 811 306 845 Q 282 861 261 846 Q 257 842 262 826 Q 298 775 298 680 L 299 638 Q 299 605 300 569 L 300 539 Q 299 508 299 472 L 298 436 Q 297 405 296 372 L 296 340 Q 295 300 295 255 L 293 214 Z" class="stroke7"/>
    <path d="M 716 618 Q 860 657 869 663 Q 876 672 872 680 Q 865 692 834 697 Q 804 701 705 663 Q 647 645 580 635 Q 543 626 570 611 Q 606 592 662 602 L 716 618 Z" class="stroke8"/>
    <path d="M 746 421 Q 818 433 923 438 Q 942 439 958 440 Q 977 441 981 450 Q 985 462 969 474 Q 909 513 843 487 Q 801 477 747 463 L 688 451 Q 601 435 503 414 Q 482 411 499 395 Q 529 370 574 383 Q 625 401 688 411 L 746 421 Z" class="stroke9"/>
    <path d="M 688 411 Q 688 296 685 142 Q 681 -59 701 -89 Q 707 -96 715 -94 Q 724 -90 729 -73 Q 744 -37 745 175 Q 742 248 746 421 L 747 463 Q 747 491 759 570 Q 763 589 747 599 Q 729 612 716 618 C 690 633 651 630 662 602 Q 684 548 687 535 Q 687 493 688 451 L 688 411 Z" class="stroke10"/>
    
    
    
    
    
    
    
    
    
    </g>
</svg>