<svg version="1.1" viewBox="0 0 1024 1024" xmlns="http://www.w3.org/2000/svg">
  
  <g transform="scale(1, -1) translate(0, -900)">
    <style type="text/css">
        .stroke1 {fill: #808080;}
        .stroke2 {fill: #808079;}
        .stroke3 {fill: #808078;}
        .stroke4 {fill: #808077;}
        .stroke5 {fill: #808076;}
        .stroke6 {fill: #808075;}
        .stroke7 {fill: #808074;}
        .stroke8 {fill: #808073;}
        .stroke9 {fill: #808072;}
        .stroke10 {fill: #808071;}
        .stroke11 {fill: #808070;}
        .stroke12 {fill: #808069;}
        .stroke13 {fill: #808068;}
        .stroke14 {fill: #808067;}
        .stroke15 {fill: #808066;}
        .stroke16 {fill: #808065;}
        .stroke17 {fill: #808064;}
        .stroke18 {fill: #808063;}
        .stroke19 {fill: #808062;}
        .stroke20 {fill: #808061;}
        text {
            font-family: Helvetica;
            font-size: 50px;
            fill: #808060;
            paint-order: stroke;
            stroke: #000000;
            stroke-width: 4px;
            stroke-linecap: butt;
            stroke-linejoin: miter;
            font-weight: 800;
        }
    </style>

    <path d="M 337 641 Q 451 680 454 682 Q 461 691 456 698 Q 449 708 421 711 Q 385 714 340 687 L 292 669 Q 250 657 205 647 Q 172 638 197 625 Q 237 607 287 625 Q 290 626 294 626 L 337 641 Z" class="stroke1"/>
    <path d="M 185 540 Q 173 544 145 547 Q 133 550 131 544 Q 125 538 134 524 Q 167 466 189 369 Q 193 341 212 322 Q 230 303 234 317 Q 235 326 236 338 L 233 368 Q 232 375 230 381 Q 206 480 200 511 C 195 537 195 537 185 540 Z" class="stroke2"/>
    <path d="M 391 355 Q 424 309 445 339 Q 457 361 481 480 Q 488 508 509 532 Q 521 544 510 556 Q 495 571 456 594 Q 437 601 372 582 Q 357 582 336 574 L 295 565 Q 280 564 185 540 C 156 533 172 502 200 511 Q 237 524 295 536 L 336 544 Q 405 562 421 551 Q 434 542 431 524 Q 412 394 396 381 C 385 362 385 362 391 355 Z" class="stroke3"/>
    <path d="M 336 442 Q 361 449 385 452 Q 407 458 397 469 Q 387 482 362 485 Q 350 486 336 482 L 294 469 Q 266 459 242 449 Q 226 445 246 431 Q 249 431 294 434 L 336 442 Z" class="stroke4"/>
    <path d="M 336 357 Q 384 366 391 355 C 414 336 418 361 396 381 Q 389 388 373 397 Q 360 404 336 396 L 293 383 Q 260 376 233 368 C 204 360 206 337 236 338 Q 242 338 249 339 Q 265 345 292 349 L 336 357 Z" class="stroke5"/>
    <path d="M 336 238 Q 384 250 445 259 Q 461 262 462 269 Q 463 282 445 290 Q 418 302 396 296 Q 365 289 336 280 L 292 269 Q 130 233 52 223 Q 39 222 37 213 Q 34 203 49 192 Q 85 165 129 179 Q 252 222 291 228 L 336 238 Z" class="stroke6"/>
    <path d="M 291 228 Q 287 155 267 84 Q 255 42 283 -18 Q 290 -36 298 -39 Q 305 -46 312 -37 Q 319 -33 330 -12 Q 339 13 338 45 Q 337 76 336 238 L 336 280 Q 336 316 336 357 L 336 396 Q 336 418 336 442 L 336 482 L 336 544 L 336 574 Q 336 607 337 641 L 340 687 Q 344 738 355 776 Q 365 792 361 805 Q 354 815 298 849 Q 274 865 253 850 Q 249 844 255 829 Q 289 777 291 725 Q 292 698 292 669 L 294 626 Q 294 598 295 565 L 295 536 Q 294 505 294 469 L 294 434 Q 293 409 293 383 L 292 349 Q 292 312 292 269 L 291 228 Z" class="stroke7"/>
    <path d="M 668 776 Q 720 724 739 724 Q 751 725 756 741 Q 762 757 751 791 Q 739 819 661 831 Q 643 835 636 831 Q 630 827 632 812 Q 636 799 668 776 Z" class="stroke8"/>
    <path d="M 581 647 Q 580 663 575 676 Q 571 683 566 683 Q 559 682 557 674 Q 544 628 522 586 Q 510 558 526 533 Q 533 520 549 532 Q 582 562 582 625 L 581 647 Z" class="stroke9"/>
    <path d="M 706 644 Q 838 680 871 676 Q 884 672 883 663 Q 865 621 847 576 Q 854 573 868 583 Q 914 620 954 633 Q 987 645 986 654 Q 983 661 925 703 Q 906 719 833 701 Q 806 698 649 662 Q 616 655 582 648 Q 581 648 581 647 C 552 639 554 636 582 625 Q 604 613 626 620 Q 647 629 671 635 L 706 644 Z" class="stroke10"/>
    <path d="M 738 496 Q 769 505 803 512 Q 834 521 840 525 Q 847 532 843 539 Q 836 548 813 553 Q 792 556 740 537 L 688 520 Q 642 510 594 502 Q 564 496 586 484 Q 616 468 675 481 Q 681 482 688 483 L 738 496 Z" class="stroke11"/>
    <path d="M 733 393 Q 766 403 802 410 Q 830 417 836 421 Q 843 428 839 435 Q 832 444 809 449 Q 791 452 735 434 L 688 419 Q 649 412 606 406 Q 576 400 598 388 Q 628 373 688 383 L 733 393 Z" class="stroke12"/>
    <path d="M 688 324 Q 597 311 490 292 Q 471 289 486 275 Q 499 263 515 259 Q 534 255 549 259 Q 711 311 960 312 L 962 312 Q 980 313 984 321 Q 988 331 973 343 Q 919 380 875 363 Q 817 350 730 332 L 688 324 Z" class="stroke13"/>
    <path d="M 730 332 Q 731 363 733 393 L 735 434 Q 736 467 738 496 L 740 537 Q 741 550 742 562 Q 743 577 744 588 Q 751 606 742 616 Q 724 634 706 644 C 680 660 661 663 671 635 Q 686 596 688 520 L 688 483 Q 688 456 688 419 L 688 383 Q 688 358 688 324 C 688 294 729 302 730 332 Z" class="stroke14"/>
    <path d="M 545 207 Q 542 207 540 207 Q 528 210 525 204 Q 519 198 528 182 Q 556 133 579 51 Q 583 26 599 10 Q 618 -11 623 6 Q 626 16 625 30 L 619 63 Q 601 144 598 170 C 594 200 575 205 545 207 Z" class="stroke15"/>
    <path d="M 829 82 Q 862 154 890 168 Q 909 186 894 205 Q 878 220 826 248 Q 807 257 785 249 Q 641 198 545 207 C 515 209 568 165 598 170 Q 608 171 618 174 Q 694 187 768 199 Q 787 203 795 195 Q 802 186 800 170 Q 790 127 776 91 C 766 63 816 55 829 82 Z" class="stroke16"/>
    <path d="M 625 30 Q 635 29 647 30 Q 708 43 839 50 Q 849 51 851 60 Q 851 67 829 82 C 808 97 805 97 776 91 L 775 91 Q 688 72 619 63 C 589 59 595 32 625 30 Z" class="stroke17"/>
    
    
    
    
    
    
    
    
    
    
    
    
    
    
    
    
    </g>
</svg>