<svg version="1.1" viewBox="0 0 1024 1024" xmlns="http://www.w3.org/2000/svg">
  
  <g transform="scale(1, -1) translate(0, -900)">
    <style type="text/css">
        .stroke1 {fill: #808080;}
        .stroke2 {fill: #808079;}
        .stroke3 {fill: #808078;}
        .stroke4 {fill: #808077;}
        .stroke5 {fill: #808076;}
        .stroke6 {fill: #808075;}
        .stroke7 {fill: #808074;}
        .stroke8 {fill: #808073;}
        .stroke9 {fill: #808072;}
        .stroke10 {fill: #808071;}
        .stroke11 {fill: #808070;}
        .stroke12 {fill: #808069;}
        .stroke13 {fill: #808068;}
        .stroke14 {fill: #808067;}
        .stroke15 {fill: #808066;}
        .stroke16 {fill: #808065;}
        .stroke17 {fill: #808064;}
        .stroke18 {fill: #808063;}
        .stroke19 {fill: #808062;}
        .stroke20 {fill: #808061;}
        text {
            font-family: Helvetica;
            font-size: 50px;
            fill: #808060;
            paint-order: stroke;
            stroke: #000000;
            stroke-width: 4px;
            stroke-linecap: butt;
            stroke-linejoin: miter;
            font-weight: 800;
        }
    </style>

    <path d="M 277 596 Q 427 636 432 641 Q 441 648 436 657 Q 429 667 400 674 Q 370 678 342 665 Q 320 658 299 649 L 250 634 Q 204 624 155 616 Q 121 609 146 594 Q 189 575 236 586 L 277 596 Z" class="stroke1"/>
    <path d="M 339 383 Q 367 390 397 393 Q 424 397 415 409 Q 406 421 391 427 Q 375 433 341 418 L 298 405 Q 262 398 220 387 Q 207 384 205 387 Q 204 388 205 399 Q 233 489 277 596 L 299 649 Q 320 691 342 735 Q 354 747 338 765 Q 313 789 294 800 Q 281 807 272 804 Q 265 800 270 780 Q 279 750 250 634 L 236 586 Q 191 433 141 383 Q 128 368 132 354 Q 139 335 150 326 Q 159 319 169 323 Q 223 357 297 372 L 339 383 Z" class="stroke2"/>
    <path d="M 289 234 Q 277 107 269 79 Q 260 45 290 -4 Q 300 -22 307 -26 Q 317 -27 323 -16 Q 336 14 333 42 Q 333 157 335 256 L 335 289 Q 335 322 339 383 L 341 418 Q 342 455 348 475 Q 351 487 345 492 Q 323 511 306 521 Q 294 525 286 518 Q 280 514 287 505 Q 296 489 298 405 L 297 372 Q 296 332 293 280 Q 292 277 292 273 L 289 234 Z" class="stroke3"/>
    <path d="M 335 256 Q 392 290 393 291 Q 406 298 405 308 Q 401 312 388 310 Q 361 300 335 289 L 292 273 Q 213 246 125 216 Q 106 209 76 209 Q 63 208 62 197 Q 61 184 70 177 Q 92 162 124 146 Q 134 143 145 152 Q 187 188 289 234 L 335 256 Z" class="stroke4"/>
    <path d="M 626 704 Q 642 735 659 750 Q 666 760 662 772 Q 658 784 631 803 Q 606 819 589 818 Q 573 815 580 796 Q 604 751 519 608 Q 479 541 425 468 Q 416 458 414 453 Q 411 443 424 446 Q 475 453 609 673 Q 612 679 615 683 L 626 704 Z" class="stroke5"/>
    <path d="M 615 683 Q 687 596 766 516 Q 788 494 823 493 Q 887 489 956 502 Q 972 503 975 509 Q 976 515 963 521 Q 920 537 870 552 Q 759 588 635 698 Q 629 702 626 704 C 601 721 596 706 615 683 Z" class="stroke6"/>
    <path d="M 529 491 Q 496 482 522 469 Q 552 454 622 471 Q 655 480 692 490 Q 711 496 713 498 Q 720 505 716 514 Q 709 524 681 528 Q 659 531 587 503 Q 560 496 529 491 Z" class="stroke7"/>
    <path d="M 469 187 Q 470 218 473 243 L 476 270 Q 479 321 483 340 L 476 361 Q 475 364 470 366 Q 448 378 435 378 Q 425 375 429 366 Q 462 287 423 137 Q 405 88 406 80 Q 407 58 420 43 Q 424 33 433 37 Q 466 61 467 163 L 469 187 Z" class="stroke8"/>
    <path d="M 483 340 Q 492 340 554 359 Q 567 365 572 358 Q 578 337 579 207 Q 576 87 567 76 Q 561 72 507 83 Q 492 87 493 81 Q 536 47 561 19 Q 571 6 583 1 Q 590 -2 596 6 Q 626 42 625 83 Q 612 320 627 347 Q 636 362 627 369 Q 611 382 584 394 Q 572 398 527 376 Q 508 369 476 361 C 447 353 454 334 483 340 Z" class="stroke9"/>
    <path d="M 473 243 Q 476 243 480 244 Q 517 254 545 260 Q 561 266 554 274 Q 544 284 524 284 Q 505 284 476 270 C 449 257 443 241 473 243 Z" class="stroke10"/>
    <path d="M 467 163 Q 468 163 473 163 Q 513 170 543 176 Q 561 180 553 190 Q 544 200 524 202 Q 503 203 469 187 C 442 174 437 163 467 163 Z" class="stroke11"/>
    <path d="M 661 356 Q 679 325 671 214 Q 668 193 687 170 Q 694 163 701 171 Q 710 190 711 278 Q 711 314 714 336 Q 718 352 704 360 Q 692 367 680 373 Q 671 376 664 372 Q 658 368 661 356 Z" class="stroke12"/>
    <path d="M 743 46 Q 722 53 695 59 Q 685 62 685 56 Q 686 49 694 42 Q 749 -3 786 -39 Q 796 -46 807 -33 Q 834 6 835 85 Q 820 250 828 412 Q 832 436 828 444 Q 819 454 787 471 Q 772 478 764 472 Q 755 465 767 447 Q 782 414 783 69 Q 777 39 752 44 Q 748 45 743 46 Z" class="stroke13"/>
    
    
    
    
    
    
    
    
    
    
    
    
    </g>
</svg>