<svg version="1.1" viewBox="0 0 1024 1024" xmlns="http://www.w3.org/2000/svg">
  
  <g transform="scale(1, -1) translate(0, -900)">
    <style type="text/css">
        .stroke1 {fill: #808080;}
        .stroke2 {fill: #808079;}
        .stroke3 {fill: #808078;}
        .stroke4 {fill: #808077;}
        .stroke5 {fill: #808076;}
        .stroke6 {fill: #808075;}
        .stroke7 {fill: #808074;}
        .stroke8 {fill: #808073;}
        .stroke9 {fill: #808072;}
        .stroke10 {fill: #808071;}
        .stroke11 {fill: #808070;}
        .stroke12 {fill: #808069;}
        .stroke13 {fill: #808068;}
        .stroke14 {fill: #808067;}
        .stroke15 {fill: #808066;}
        .stroke16 {fill: #808065;}
        .stroke17 {fill: #808064;}
        .stroke18 {fill: #808063;}
        .stroke19 {fill: #808062;}
        .stroke20 {fill: #808061;}
        text {
            font-family: Helvetica;
            font-size: 50px;
            fill: #808060;
            paint-order: stroke;
            stroke: #000000;
            stroke-width: 4px;
            stroke-linecap: butt;
            stroke-linejoin: miter;
            font-weight: 800;
        }
    </style>

    <path d="M 666 657 Q 813 687 818 691 Q 828 698 823 708 Q 816 720 786 728 Q 759 734 657 703 Q 585 688 514 682 Q 477 676 503 658 Q 548 634 605 646 Q 611 647 618 648 L 666 657 Z" class="stroke1"/>
    <path d="M 685 459 Q 760 468 900 467 Q 919 467 923 475 Q 927 485 913 499 Q 865 535 805 521 Q 756 512 685 498 L 633 489 Q 537 476 427 461 Q 408 458 422 443 Q 435 430 452 425 Q 471 421 487 425 Q 556 444 634 452 L 685 459 Z" class="stroke2"/>
    <path d="M 587 223 Q 562 230 528 240 Q 516 243 517 236 Q 518 229 528 220 Q 595 168 636 128 Q 648 119 661 135 Q 691 183 693 282 Q 686 369 685 459 L 685 498 Q 685 552 690 602 Q 697 638 666 657 C 643 676 607 676 618 648 Q 633 633 633 489 L 634 452 Q 635 374 635 265 Q 634 234 624 222 Q 614 215 587 223 Z" class="stroke3"/>
    <path d="M 272 723 Q 303 701 337 673 Q 353 660 372 663 Q 384 664 388 680 Q 392 698 378 730 Q 369 752 334 763 Q 253 784 236 776 Q 230 770 234 756 Q 238 743 272 723 Z" class="stroke4"/>
    <path d="M 322 186 Q 338 196 344 215 Q 356 257 312 329 Q 282 381 349 472 Q 355 481 362 488 Q 384 506 364 522 Q 345 538 309 552 Q 287 565 269 547 Q 235 525 192 509 Q 134 487 116 490 Q 109 490 106 485 Q 105 481 113 476 Q 155 455 259 494 Q 269 497 278 485 Q 300 463 278 432 Q 227 375 272 315 Q 305 257 304 223 Q 304 202 297 188 C 288 159 300 166 322 186 Z" class="stroke5"/>
    <path d="M 297 188 Q 254 191 212 177 Q 175 164 121 162 Q 114 162 110 153 Q 106 146 115 136 Q 131 117 155 105 Q 167 98 186 112 Q 258 161 328 145 Q 389 129 513 71 Q 729 -35 808 -9 Q 871 10 924 48 Q 948 63 924 63 Q 695 63 558 107 Q 486 129 401 164 Q 361 183 322 186 L 297 188 Z" class="stroke6"/>
    
    
    
    
    
    </g>
</svg>