<svg version="1.1" viewBox="0 0 1024 1024" xmlns="http://www.w3.org/2000/svg">
  
  <g transform="scale(1, -1) translate(0, -900)">
    <style type="text/css">
        .stroke1 {fill: #808080;}
        .stroke2 {fill: #808079;}
        .stroke3 {fill: #808078;}
        .stroke4 {fill: #808077;}
        .stroke5 {fill: #808076;}
        .stroke6 {fill: #808075;}
        .stroke7 {fill: #808074;}
        .stroke8 {fill: #808073;}
        .stroke9 {fill: #808072;}
        .stroke10 {fill: #808071;}
        .stroke11 {fill: #808070;}
        .stroke12 {fill: #808069;}
        .stroke13 {fill: #808068;}
        .stroke14 {fill: #808067;}
        .stroke15 {fill: #808066;}
        .stroke16 {fill: #808065;}
        .stroke17 {fill: #808064;}
        .stroke18 {fill: #808063;}
        .stroke19 {fill: #808062;}
        .stroke20 {fill: #808061;}
        text {
            font-family: Helvetica;
            font-size: 50px;
            fill: #808060;
            paint-order: stroke;
            stroke: #000000;
            stroke-width: 4px;
            stroke-linecap: butt;
            stroke-linejoin: miter;
            font-weight: 800;
        }
    </style>

    <path d="M 443 672 Q 427 684 408 689 Q 399 690 393 682 Q 390 678 397 667 Q 436 580 405 380 Q 386 307 389 289 Q 398 256 409 244 Q 419 231 429 244 Q 457 274 458 390 Q 458 576 468 633 C 471 654 468 656 443 672 Z" class="stroke1"/>
    <path d="M 468 633 Q 467 634 470 634 Q 594 665 744 686 Q 766 690 779 678 Q 789 672 793 623 Q 806 460 799 272 Q 799 244 789 236 Q 776 226 705 238 Q 689 241 690 231 Q 691 224 705 218 Q 768 176 801 143 Q 823 124 835 126 Q 848 130 858 158 Q 873 204 870 270 Q 854 508 853 596 Q 853 635 865 658 Q 877 680 866 691 Q 856 706 808 730 Q 789 739 715 719 Q 585 689 443 672 C 413 668 439 625 468 633 Z" class="stroke2"/>
    <path d="M 559 531 Q 550 538 520 545 Q 510 549 507 544 Q 501 540 507 525 Q 528 474 537 392 Q 538 367 551 351 Q 564 332 570 344 Q 574 357 575 379 L 572 410 Q 565 482 564 506 C 563 529 563 529 559 531 Z" class="stroke3"/>
    <path d="M 697 419 Q 713 482 732 500 Q 753 522 733 535 Q 715 545 692 562 Q 680 571 632 549 Q 581 536 559 531 C 530 524 534 502 564 506 Q 571 507 579 508 Q 612 514 640 518 Q 659 521 663 513 Q 669 509 663 482 Q 659 457 652 426 C 645 397 689 390 697 419 Z" class="stroke4"/>
    <path d="M 575 379 Q 582 378 592 379 Q 629 386 708 388 Q 718 389 719 397 Q 719 404 697 419 C 685 427 682 427 652 426 Q 651 427 648 426 Q 605 416 572 410 C 542 405 545 382 575 379 Z" class="stroke5"/>
    <path d="M 233 746 Q 261 721 291 691 Q 306 678 323 677 Q 335 678 340 693 Q 346 709 336 741 Q 330 763 297 778 Q 221 805 204 799 Q 198 795 200 781 Q 204 768 233 746 Z" class="stroke6"/>
    <path d="M 282 210 Q 295 219 299 236 Q 306 278 264 349 Q 234 410 317 502 Q 339 520 320 536 Q 301 552 266 567 Q 244 580 225 563 Q 194 542 155 528 Q 101 506 84 510 Q 77 510 75 505 Q 74 501 81 496 Q 121 477 215 510 Q 225 513 233 502 Q 255 478 232 450 Q 181 399 218 345 Q 267 252 258 214 Q 257 213 256 211 C 250 182 262 188 282 210 Z" class="stroke7"/>
    <path d="M 256 211 Q 213 212 168 198 Q 138 185 93 181 Q 86 180 83 172 Q 80 165 90 155 Q 108 137 133 127 Q 145 121 162 136 Q 219 184 284 172 Q 353 154 493 87 Q 718 -30 816 -10 Q 817 -9 820 -9 Q 883 10 937 46 Q 961 61 937 62 Q 715 62 547 116 Q 462 146 357 190 Q 320 206 282 210 L 256 211 Z" class="stroke8"/>
    
    
    
    
    
    
    
    </g>
</svg>