<svg version="1.1" viewBox="0 0 1024 1024" xmlns="http://www.w3.org/2000/svg">
  
  <g transform="scale(1, -1) translate(0, -900)">
    <style type="text/css">
        .stroke1 {fill: #808080;}
        .stroke2 {fill: #808079;}
        .stroke3 {fill: #808078;}
        .stroke4 {fill: #808077;}
        .stroke5 {fill: #808076;}
        .stroke6 {fill: #808075;}
        .stroke7 {fill: #808074;}
        .stroke8 {fill: #808073;}
        .stroke9 {fill: #808072;}
        .stroke10 {fill: #808071;}
        .stroke11 {fill: #808070;}
        .stroke12 {fill: #808069;}
        .stroke13 {fill: #808068;}
        .stroke14 {fill: #808067;}
        .stroke15 {fill: #808066;}
        .stroke16 {fill: #808065;}
        .stroke17 {fill: #808064;}
        .stroke18 {fill: #808063;}
        .stroke19 {fill: #808062;}
        .stroke20 {fill: #808061;}
        text {
            font-family: Helvetica;
            font-size: 50px;
            fill: #808060;
            paint-order: stroke;
            stroke: #000000;
            stroke-width: 4px;
            stroke-linecap: butt;
            stroke-linejoin: miter;
            font-weight: 800;
        }
    </style>

    <path d="M 492 741 Q 531 666 557 660 Q 570 657 579 673 Q 583 686 577 706 Q 570 724 548 737 Q 515 759 500 766 Q 493 769 489 758 Q 486 751 492 741 Z" class="stroke1"/>
    <path d="M 704 780 Q 695 761 629 658 Q 622 642 637 646 Q 643 650 750 741 Q 766 760 788 772 Q 807 784 795 800 Q 780 815 754 826 Q 729 836 717 833 Q 704 830 710 817 Q 716 799 704 780 Z" class="stroke2"/>
    <path d="M 608 559 Q 792 604 799 609 Q 808 616 803 625 Q 796 635 768 642 Q 744 646 649 615 Q 556 590 476 580 Q 442 573 467 558 Q 506 534 563 550 Q 566 551 573 551 L 608 559 Z" class="stroke3"/>
    <path d="M 632 334 Q 687 352 735 350 C 765 350 778 388 748 385 Q 690 379 637 369 L 592 360 Q 538 351 492 336 Q 473 332 479 353 Q 483 390 490 428 Q 494 450 485 463 Q 472 479 450 492 Q 440 498 430 496 Q 420 492 427 474 Q 446 428 437 383 Q 431 340 413 321 Q 395 305 402 292 Q 412 279 428 268 Q 441 261 450 268 Q 466 290 588 323 L 632 334 Z" class="stroke4"/>
    <path d="M 735 350 Q 735 326 746 301 Q 753 285 764 295 Q 788 314 799 389 Q 820 473 830 486 Q 839 499 830 512 Q 814 528 787 547 Q 777 554 765 550 Q 758 547 759 535 Q 780 502 750 390 Q 749 389 748 385 L 735 350 Z" class="stroke5"/>
    <path d="M 489 105 Q 565 165 594 209 Q 621 266 632 334 L 637 369 Q 643 424 645 494 Q 648 510 649 521 Q 653 539 636 547 Q 620 554 608 559 C 580 571 562 579 573 551 Q 595 503 596 426 Q 595 401 593 366 Q 592 365 592 360 L 588 323 Q 566 212 467 112 C 446 90 466 86 489 105 Z" class="stroke6"/>
    <path d="M 238 714 Q 269 687 303 655 Q 318 640 335 641 Q 347 642 353 657 Q 357 673 348 705 Q 336 742 232 766 Q 216 770 208 767 Q 202 763 204 749 Q 208 736 238 714 Z" class="stroke7"/>
    <path d="M 288 169 Q 298 176 304 193 Q 310 229 272 301 Q 242 358 324 447 Q 327 453 332 456 Q 354 474 335 490 Q 316 506 280 521 Q 261 533 219 503 Q 129 455 103 457 Q 96 458 94 453 Q 93 447 101 443 Q 140 427 232 464 Q 239 468 248 459 Q 270 434 244 405 Q 192 357 236 278 Q 270 206 266 174 Q 265 173 264 170 C 260 140 268 146 288 169 Z" class="stroke8"/>
    <path d="M 264 170 Q 221 171 176 156 Q 142 143 90 137 Q 83 137 80 128 Q 77 121 86 111 Q 104 93 128 82 Q 140 76 158 91 Q 221 142 292 129 Q 359 114 497 54 Q 725 -51 812 -27 Q 813 -26 816 -26 Q 879 -4 932 33 Q 954 49 931 48 Q 682 48 559 84 Q 525 93 489 105 L 467 112 Q 323 166 288 169 L 264 170 Z" class="stroke9"/>
    
    
    
    
    
    
    
    
    </g>
</svg>