<svg version="1.1" viewBox="0 0 1024 1024" xmlns="http://www.w3.org/2000/svg">
  
  <g transform="scale(1, -1) translate(0, -900)">
    <style type="text/css">
        .stroke1 {fill: #808080;}
        .stroke2 {fill: #808079;}
        .stroke3 {fill: #808078;}
        .stroke4 {fill: #808077;}
        .stroke5 {fill: #808076;}
        .stroke6 {fill: #808075;}
        .stroke7 {fill: #808074;}
        .stroke8 {fill: #808073;}
        .stroke9 {fill: #808072;}
        .stroke10 {fill: #808071;}
        .stroke11 {fill: #808070;}
        .stroke12 {fill: #808069;}
        .stroke13 {fill: #808068;}
        .stroke14 {fill: #808067;}
        .stroke15 {fill: #808066;}
        .stroke16 {fill: #808065;}
        .stroke17 {fill: #808064;}
        .stroke18 {fill: #808063;}
        .stroke19 {fill: #808062;}
        .stroke20 {fill: #808061;}
        text {
            font-family: Helvetica;
            font-size: 50px;
            fill: #808060;
            paint-order: stroke;
            stroke: #000000;
            stroke-width: 4px;
            stroke-linecap: butt;
            stroke-linejoin: miter;
            font-weight: 800;
        }
    </style>

    <path d="M 507 756 Q 495 760 468 764 Q 456 765 453 761 Q 447 754 456 739 Q 486 687 506 601 Q 510 576 527 559 Q 546 537 551 554 Q 552 563 553 576 L 549 607 Q 531 697 526 726 C 521 752 521 752 507 756 Z" class="stroke1"/>
    <path d="M 754 631 Q 781 712 812 729 Q 828 747 814 764 Q 798 777 749 802 Q 733 808 652 782 Q 571 766 507 756 C 477 751 497 720 526 726 Q 709 762 719 754 L 720 753 Q 729 744 726 728 Q 717 679 706 640 C 698 611 744 603 754 631 Z" class="stroke2"/>
    <path d="M 553 576 Q 560 576 568 577 Q 629 590 761 604 Q 771 605 772 613 Q 772 620 754 631 L 706 640 Q 700 640 700 639 Q 618 617 549 607 C 519 603 523 575 553 576 Z" class="stroke3"/>
    <path d="M 629 465 Q 774 495 778 498 Q 787 505 783 513 Q 776 523 750 531 Q 726 537 627 507 Q 555 492 485 486 Q 451 482 475 465 Q 512 441 575 456 Q 581 457 589 458 L 629 465 Z" class="stroke4"/>
    <path d="M 651 345 Q 666 351 764 362 Q 774 361 781 372 Q 782 382 762 392 Q 734 413 660 388 Q 656 388 653 386 L 600 373 Q 551 366 468 354 Q 443 350 462 335 Q 495 311 517 319 Q 554 328 601 336 L 651 345 Z" class="stroke5"/>
    <path d="M 646 245 Q 647 299 651 345 L 653 386 Q 653 402 655 419 Q 664 443 629 465 C 604 482 582 487 589 458 Q 596 434 600 373 L 601 336 Q 601 297 603 238 C 604 208 645 215 646 245 Z" class="stroke6"/>
    <path d="M 603 238 Q 525 228 435 216 Q 416 215 430 199 Q 443 186 459 182 Q 478 178 492 181 Q 594 208 821 209 Q 839 209 843 217 Q 847 227 833 239 Q 785 276 722 260 Q 689 254 646 245 L 603 238 Z" class="stroke7"/>
    <path d="M 248 709 Q 279 684 313 653 Q 329 638 347 640 Q 359 641 364 656 Q 368 674 358 707 Q 351 729 315 744 Q 233 772 216 763 Q 210 759 213 744 Q 217 731 248 709 Z" class="stroke8"/>
    <path d="M 316 194 Q 328 201 333 219 Q 340 258 300 325 Q 267 382 348 476 Q 349 480 353 482 Q 375 501 356 516 Q 335 532 301 547 Q 279 560 261 542 Q 230 520 190 505 Q 138 483 120 486 Q 113 486 110 481 Q 109 477 117 472 Q 159 451 251 489 Q 261 492 269 482 Q 291 458 268 428 Q 217 376 264 303 Q 297 227 294 198 Q 293 197 293 196 C 292 169 295 172 316 194 Z" class="stroke9"/>
    <path d="M 293 196 Q 250 200 204 187 Q 164 172 101 170 Q 94 170 91 162 Q 87 155 95 144 Q 111 125 135 112 Q 145 105 165 119 Q 246 170 320 152 Q 384 136 511 74 Q 719 -32 812 -14 Q 813 -13 816 -13 Q 879 6 933 43 Q 957 58 933 58 Q 699 58 521 121 Q 461 142 393 171 Q 356 189 316 194 L 293 196 Z" class="stroke10"/>
    
    
    
    
    
    
    
    
    
    </g>
</svg>