<svg version="1.1" viewBox="0 0 1024 1024" xmlns="http://www.w3.org/2000/svg">
  
  <g transform="scale(1, -1) translate(0, -900)">
    <style type="text/css">
        .stroke1 {fill: #808080;}
        .stroke2 {fill: #808079;}
        .stroke3 {fill: #808078;}
        .stroke4 {fill: #808077;}
        .stroke5 {fill: #808076;}
        .stroke6 {fill: #808075;}
        .stroke7 {fill: #808074;}
        .stroke8 {fill: #808073;}
        .stroke9 {fill: #808072;}
        .stroke10 {fill: #808071;}
        .stroke11 {fill: #808070;}
        .stroke12 {fill: #808069;}
        .stroke13 {fill: #808068;}
        .stroke14 {fill: #808067;}
        .stroke15 {fill: #808066;}
        .stroke16 {fill: #808065;}
        .stroke17 {fill: #808064;}
        .stroke18 {fill: #808063;}
        .stroke19 {fill: #808062;}
        .stroke20 {fill: #808061;}
        text {
            font-family: Helvetica;
            font-size: 50px;
            fill: #808060;
            paint-order: stroke;
            stroke: #000000;
            stroke-width: 4px;
            stroke-linecap: butt;
            stroke-linejoin: miter;
            font-weight: 800;
        }
    </style>

    <path d="M 416 736 Q 409 739 398 739 Q 388 740 384 736 Q 380 730 388 716 Q 416 670 437 591 Q 441 569 457 553 Q 473 535 478 549 Q 479 556 479 563 L 476 593 Q 463 632 450 705 C 446 727 445 727 416 736 Z" class="stroke1"/>
    <path d="M 748 593 Q 752 581 763 581 Q 775 582 782 594 Q 791 604 809 652 Q 824 697 856 722 Q 872 735 859 750 Q 843 765 800 788 Q 787 797 733 784 Q 670 780 538 754 Q 466 741 416 736 C 386 733 421 698 450 705 Q 454 705 458 706 Q 486 715 526 721 L 547 726 Q 589 735 646 742 L 666 744 Q 751 762 773 748 Q 780 744 776 722 Q 758 640 750 623 Q 749 623 749 622 C 740 600 740 600 748 593 Z" class="stroke2"/>
    <path d="M 576 606 Q 576 607 577 609 Q 578 648 561 694 Q 558 700 556 707 Q 553 719 547 726 C 529 750 522 751 526 721 Q 538 630 543 621 L 556 602 C 570 582 570 582 576 606 Z" class="stroke3"/>
    <path d="M 657 620 Q 667 638 687 679 Q 691 689 700 702 Q 710 712 702 719 Q 687 743 666 744 L 646 742 Q 640 739 645 731 Q 655 712 639 637 Q 635 625 635 616 C 633 586 643 594 657 620 Z" class="stroke4"/>
    <path d="M 570 576 Q 642 588 748 593 C 778 594 773 605 749 622 Q 745 625 742 627 Q 726 639 657 620 L 635 616 Q 604 612 576 606 L 556 602 Q 513 599 476 593 C 446 588 449 563 479 563 Q 483 563 488 563 Q 510 569 542 573 L 570 576 Z" class="stroke5"/>
    <path d="M 559 462 Q 580 496 601 517 Q 607 526 601 538 Q 586 568 570 576 C 545 593 543 595 542 573 Q 542 471 391 329 Q 385 325 385 319 Q 384 315 389 315 Q 422 315 483 376 L 494 386 Q 501 396 512 405 Q 531 426 546 445 L 559 462 Z" class="stroke6"/>
    <path d="M 546 445 Q 565 426 607 431 Q 635 435 658 440 Q 683 446 691 435 Q 695 425 679 399 Q 622 279 477 146 Q 464 133 478 133 Q 584 148 740 381 Q 761 409 796 439 Q 812 449 806 460 Q 805 469 741 494 Q 722 504 702 490 Q 660 469 559 462 C 529 460 524 459 546 445 Z" class="stroke7"/>
    <path d="M 483 376 Q 483 367 501 348 Q 526 320 553 285 Q 560 275 573 273 Q 580 272 586 281 Q 590 291 588 313 Q 587 332 561 352 Q 506 385 494 386 C 480 389 480 389 483 376 Z" class="stroke8"/>
    <path d="M 239 691 Q 266 669 295 641 Q 311 628 328 629 Q 340 630 345 644 Q 349 660 338 693 Q 326 723 232 743 Q 214 747 208 743 Q 202 739 205 725 Q 209 712 239 691 Z" class="stroke9"/>
    <path d="M 304 176 Q 314 185 320 200 Q 329 237 288 309 Q 255 366 336 460 Q 337 464 341 466 Q 363 485 344 500 Q 325 516 290 531 Q 269 544 224 511 Q 140 469 112 474 Q 105 474 103 469 Q 102 465 109 460 Q 146 442 239 474 Q 249 477 257 466 Q 279 442 256 412 Q 205 360 242 305 Q 279 239 280 208 Q 281 189 278 178 C 274 148 285 153 304 176 Z" class="stroke10"/>
    <path d="M 278 178 Q 232 179 188 163 Q 151 147 94 141 Q 87 141 84 132 Q 81 125 90 115 Q 108 97 132 86 Q 144 80 162 95 Q 231 150 305 137 Q 369 124 498 66 Q 721 -39 804 -10 Q 867 12 920 49 Q 942 65 919 65 Q 694 56 540 103 Q 465 124 377 158 Q 340 173 304 176 L 278 178 Z" class="stroke11"/>
    
    
    
    
    
    
    
    
    
    
    </g>
</svg>