<svg version="1.1" viewBox="0 0 1024 1024" xmlns="http://www.w3.org/2000/svg">
  
  <g transform="scale(1, -1) translate(0, -900)">
    <style type="text/css">
        .stroke1 {fill: #808080;}
        .stroke2 {fill: #808079;}
        .stroke3 {fill: #808078;}
        .stroke4 {fill: #808077;}
        .stroke5 {fill: #808076;}
        .stroke6 {fill: #808075;}
        .stroke7 {fill: #808074;}
        .stroke8 {fill: #808073;}
        .stroke9 {fill: #808072;}
        .stroke10 {fill: #808071;}
        .stroke11 {fill: #808070;}
        .stroke12 {fill: #808069;}
        .stroke13 {fill: #808068;}
        .stroke14 {fill: #808067;}
        .stroke15 {fill: #808066;}
        .stroke16 {fill: #808065;}
        .stroke17 {fill: #808064;}
        .stroke18 {fill: #808063;}
        .stroke19 {fill: #808062;}
        .stroke20 {fill: #808061;}
        text {
            font-family: Helvetica;
            font-size: 50px;
            fill: #808060;
            paint-order: stroke;
            stroke: #000000;
            stroke-width: 4px;
            stroke-linecap: butt;
            stroke-linejoin: miter;
            font-weight: 800;
        }
    </style>

    <path d="M 476 722 Q 469 725 447 727 Q 437 728 434 724 Q 430 718 438 706 Q 460 670 478 610 Q 482 592 494 581 Q 510 563 513 577 Q 514 584 515 597 L 511 622 Q 499 674 496 694 C 492 717 492 717 476 722 Z" class="stroke1"/>
    <path d="M 743 649 Q 764 694 788 705 Q 803 721 790 737 Q 729 792 670 763 Q 651 757 633 751 L 582 739 Q 530 729 476 722 C 446 718 467 688 496 694 Q 577 710 583 711 L 632 720 Q 696 735 707 726 Q 711 722 710 710 Q 706 680 698 655 C 689 626 730 622 743 649 Z" class="stroke2"/>
    <path d="M 626 611 Q 677 618 750 624 Q 757 625 759 632 Q 759 638 743 649 C 727 661 727 661 698 655 Q 661 648 628 640 L 585 632 Q 545 628 511 622 C 481 617 485 594 515 597 Q 518 597 586 606 L 626 611 Z" class="stroke3"/>
    <path d="M 623 557 Q 624 585 626 611 L 628 640 Q 629 680 632 720 L 633 751 Q 633 761 640 797 Q 649 828 636 841 Q 633 842 632 844 Q 601 860 579 863 Q 566 866 558 858 Q 551 851 559 838 Q 577 814 582 739 L 583 711 Q 584 674 585 632 L 586 606 Q 586 581 586 552 C 586 522 622 527 623 557 Z" class="stroke4"/>
    <path d="M 586 552 Q 480 539 363 523 Q 344 522 358 507 Q 370 495 385 490 Q 404 486 417 490 Q 594 538 894 539 Q 895 539 897 539 Q 915 539 919 546 Q 923 556 909 568 Q 864 601 832 594 Q 756 578 623 557 L 586 552 Z" class="stroke5"/>
    <path d="M 501 457 Q 489 466 475 469 Q 468 470 464 464 Q 463 460 468 452 Q 498 373 473 276 Q 464 240 488 210 Q 497 200 504 211 Q 519 230 520 344 Q 519 413 521 431 C 522 443 522 443 501 457 Z" class="stroke6"/>
    <path d="M 690 278 Q 683 259 695 239 Q 705 214 714 215 Q 727 216 740 243 Q 753 265 753 283 Q 741 404 763 435 Q 772 448 766 458 Q 742 479 700 497 Q 687 501 667 495 Q 595 462 501 457 C 471 455 491 430 521 431 Q 528 430 538 432 Q 670 462 684 452 Q 690 439 693 404 Q 694 298 690 278 Z" class="stroke7"/>
    <path d="M 584 337 Q 587 213 526 166 Q 514 157 442 121 Q 438 117 450 113 Q 513 106 576 154 Q 579 157 582 160 Q 613 196 633 323 Q 634 341 644 360 Q 648 370 641 376 Q 626 391 597 404 Q 581 411 566 408 Q 550 402 562 387 Q 584 362 584 337 Z" class="stroke8"/>
    <path d="M 655 197 Q 700 157 753 96 Q 766 80 779 75 Q 786 74 793 82 Q 803 92 793 130 Q 781 181 656 223 Q 649 227 646 218 Q 646 206 655 197 Z" class="stroke9"/>
    <path d="M 235 702 Q 259 677 285 647 Q 300 631 317 630 Q 330 630 336 645 Q 343 661 335 696 Q 331 717 299 733 Q 224 766 208 759 Q 202 755 203 740 Q 206 727 235 702 Z" class="stroke10"/>
    <path d="M 306 142 Q 325 154 332 175 Q 344 223 296 297 Q 263 354 328 435 Q 332 444 339 450 Q 360 469 340 484 Q 319 499 284 512 Q 262 524 244 505 Q 211 481 170 464 Q 113 439 95 441 Q 88 442 86 437 Q 85 431 93 427 Q 135 409 236 451 Q 246 455 255 443 Q 277 424 257 395 Q 215 346 250 293 Q 292 227 291 184 Q 291 160 281 144 C 269 116 283 123 306 142 Z" class="stroke11"/>
    <path d="M 281 144 Q 233 148 184 131 Q 153 121 104 118 Q 97 117 93 109 Q 90 102 99 92 Q 115 73 140 61 Q 150 55 170 69 Q 231 115 300 103 Q 367 90 503 35 Q 738 -64 819 -34 Q 877 -12 927 25 Q 949 40 926 39 Q 701 30 553 67 Q 471 89 368 125 Q 338 138 306 142 L 281 144 Z" class="stroke12"/>
    
    
    
    
    
    
    
    
    
    
    
    </g>
</svg>