<svg version="1.1" viewBox="0 0 1024 1024" xmlns="http://www.w3.org/2000/svg">
  
  <g transform="scale(1, -1) translate(0, -900)">
    <style type="text/css">
        .stroke1 {fill: #808080;}
        .stroke2 {fill: #808079;}
        .stroke3 {fill: #808078;}
        .stroke4 {fill: #808077;}
        .stroke5 {fill: #808076;}
        .stroke6 {fill: #808075;}
        .stroke7 {fill: #808074;}
        .stroke8 {fill: #808073;}
        .stroke9 {fill: #808072;}
        .stroke10 {fill: #808071;}
        .stroke11 {fill: #808070;}
        .stroke12 {fill: #808069;}
        .stroke13 {fill: #808068;}
        .stroke14 {fill: #808067;}
        .stroke15 {fill: #808066;}
        .stroke16 {fill: #808065;}
        .stroke17 {fill: #808064;}
        .stroke18 {fill: #808063;}
        .stroke19 {fill: #808062;}
        .stroke20 {fill: #808061;}
        text {
            font-family: Helvetica;
            font-size: 50px;
            fill: #808060;
            paint-order: stroke;
            stroke: #000000;
            stroke-width: 4px;
            stroke-linecap: butt;
            stroke-linejoin: miter;
            font-weight: 800;
        }
    </style>

    <path d="M 600 803 Q 619 785 638 764 Q 650 751 665 752 Q 675 752 681 765 Q 685 778 678 807 Q 672 829 597 850 Q 582 854 576 851 Q 572 847 572 835 Q 576 825 600 803 Z" class="stroke1"/>
    <path d="M 705 690 Q 844 726 847 728 Q 854 735 850 742 Q 844 752 819 759 Q 789 765 719 738 Q 568 693 432 680 Q 401 676 423 660 Q 462 639 506 650 Q 588 666 675 684 L 705 690 Z" class="stroke2"/>
    <path d="M 514 621 Q 539 564 561 561 Q 571 558 579 571 Q 582 581 578 597 Q 568 621 522 641 Q 515 644 513 635 Q 510 629 514 621 Z" class="stroke3"/>
    <path d="M 665 557 Q 674 576 729 631 Q 729 632 731 632 Q 746 641 739 651 Q 732 667 708 688 Q 707 689 705 690 C 681 708 666 713 675 684 L 676 682 Q 682 658 649 583 Q 640 568 636 550 C 629 521 650 531 665 557 Z" class="stroke4"/>
    <path d="M 466 522 Q 445 543 413 540 Q 400 536 406 525 Q 446 443 418 276 Q 412 254 403 237 Q 388 203 418 162 L 420 160 Q 427 147 436 153 Q 466 174 469 280 Q 469 490 480 490 C 486 505 486 505 466 522 Z" class="stroke5"/>
    <path d="M 599 517 Q 662 532 736 542 Q 752 545 760 536 Q 769 532 771 494 Q 780 368 773 226 Q 773 205 765 199 Q 755 192 701 201 Q 685 204 686 195 Q 687 188 699 182 Q 748 142 772 110 Q 791 91 804 94 Q 816 97 827 123 Q 842 166 842 229 Q 824 475 839 506 Q 848 536 844 542 Q 834 555 792 578 Q 774 587 757 583 Q 724 573 665 557 L 636 550 Q 630 550 624 548 Q 545 532 466 522 C 436 518 451 482 480 490 Q 519 502 564 510 L 599 517 Z" class="stroke6"/>
    <path d="M 619 415 Q 647 424 677 431 Q 701 437 704 440 Q 710 446 706 452 Q 702 459 681 464 Q 654 467 626 453 L 577 437 Q 549 431 516 426 Q 491 422 509 410 Q 534 398 577 405 L 619 415 Z" class="stroke7"/>
    <path d="M 608 351 Q 612 385 619 415 L 626 453 Q 629 463 631 470 Q 635 477 637 483 Q 640 490 626 502 Q 611 512 599 517 C 572 529 553 538 564 510 Q 576 483 577 437 L 577 405 Q 576 377 574 342 C 572 312 604 321 608 351 Z" class="stroke8"/>
    <path d="M 540 337 Q 530 341 512 344 Q 503 345 500 342 Q 496 338 502 324 Q 521 290 534 230 Q 535 212 547 201 Q 560 185 565 196 Q 566 202 567 210 L 565 236 Q 556 300 556 316 C 555 332 555 332 540 337 Z" class="stroke9"/>
    <path d="M 685 252 Q 698 298 713 313 Q 731 332 713 344 Q 698 354 677 368 Q 662 375 647 368 Q 629 358 608 351 L 574 342 Q 559 341 540 337 C 511 331 527 310 556 316 Q 592 323 624 329 Q 646 333 651 325 Q 655 321 644 257 C 639 227 677 223 685 252 Z" class="stroke10"/>
    <path d="M 567 210 Q 573 217 692 230 Q 699 231 700 237 Q 700 241 685 252 L 644 257 L 643 257 Q 600 244 565 236 C 536 229 540 196 567 210 Z" class="stroke11"/>
    <path d="M 204 699 Q 231 671 259 636 Q 272 620 290 620 Q 302 619 309 633 Q 316 649 309 682 Q 303 715 204 752 Q 188 758 180 755 Q 174 751 174 737 Q 177 724 204 699 Z" class="stroke12"/>
    <path d="M 269 160 Q 293 176 302 201 Q 314 249 264 309 Q 234 351 299 426 Q 311 441 323 451 Q 345 470 326 485 Q 307 501 271 516 Q 250 528 215 499 Q 143 451 119 453 Q 112 453 110 448 Q 109 444 117 439 Q 156 423 225 458 Q 231 462 240 456 Q 259 434 237 403 Q 218 382 207 352 Q 200 331 218 305 Q 272 212 248 161 C 240 137 246 141 269 160 Z" class="stroke13"/>
    <path d="M 248 161 Q 197 161 152 149 Q 116 137 92 135 Q 77 135 80 123 Q 83 113 125 90 Q 144 81 173 102 Q 203 138 263 127 Q 317 123 507 37 Q 538 24 568 8 Q 695 -56 748 -50 Q 841 -29 947 30 Q 953 31 952 38 Q 951 42 934 43 Q 624 37 384 123 Q 327 151 269 160 L 248 161 Z" class="stroke14"/>
    
    
    
    
    
    
    
    
    
    
    
    
    
    </g>
</svg>