<svg version="1.1" viewBox="0 0 1024 1024" xmlns="http://www.w3.org/2000/svg">
  
  <g transform="scale(1, -1) translate(0, -900)">
    <style type="text/css">
        .stroke1 {fill: #808080;}
        .stroke2 {fill: #808079;}
        .stroke3 {fill: #808078;}
        .stroke4 {fill: #808077;}
        .stroke5 {fill: #808076;}
        .stroke6 {fill: #808075;}
        .stroke7 {fill: #808074;}
        .stroke8 {fill: #808073;}
        .stroke9 {fill: #808072;}
        .stroke10 {fill: #808071;}
        .stroke11 {fill: #808070;}
        .stroke12 {fill: #808069;}
        .stroke13 {fill: #808068;}
        .stroke14 {fill: #808067;}
        .stroke15 {fill: #808066;}
        .stroke16 {fill: #808065;}
        .stroke17 {fill: #808064;}
        .stroke18 {fill: #808063;}
        .stroke19 {fill: #808062;}
        .stroke20 {fill: #808061;}
        text {
            font-family: Helvetica;
            font-size: 50px;
            fill: #808060;
            paint-order: stroke;
            stroke: #000000;
            stroke-width: 4px;
            stroke-linecap: butt;
            stroke-linejoin: miter;
            font-weight: 800;
        }
    </style>

    <path d="M 383 720 Q 519 753 527 757 Q 536 764 531 773 Q 524 783 496 791 Q 472 795 360 761 Q 234 737 197 732 Q 161 726 187 710 Q 226 686 284 700 Q 306 706 334 709 L 383 720 Z" class="stroke1"/>
    <path d="M 352 596 Q 388 660 405 676 Q 412 680 411 690 Q 408 705 383 720 C 358 737 335 739 334 709 Q 337 625 217 479 Q 118 380 57 327 Q 50 323 59 320 Q 114 327 220 426 Q 275 486 331 565 L 352 596 Z" class="stroke2"/>
    <path d="M 331 565 Q 334 475 317 385 Q 308 355 335 310 Q 345 294 351 290 Q 361 289 365 300 Q 371 313 376 429 Q 376 520 382 559 Q 385 569 379 575 Q 364 588 352 596 C 330 612 330 595 331 565 Z" class="stroke3"/>
    <path d="M 446 509 Q 473 482 500 451 Q 510 439 523 439 Q 532 438 537 449 Q 541 461 537 485 Q 534 504 506 522 Q 437 555 428 551 Q 424 548 424 537 Q 425 527 446 509 Z" class="stroke4"/>
    <path d="M 155 217 Q 142 214 139 206 Q 138 196 153 184 Q 195 157 237 173 Q 369 224 505 249 Q 523 253 523 260 Q 523 273 504 282 Q 476 292 452 286 Q 245 229 155 217 Z" class="stroke5"/>
    <path d="M 657 645 Q 658 648 753 684 Q 757 687 768 682 Q 778 675 772 654 Q 724 513 725 512 Q 725 500 746 494 Q 789 463 823 413 Q 851 371 853 332 Q 853 311 840 299 Q 827 289 800 293 Q 760 300 726 303 Q 719 304 719 297 Q 722 290 736 280 Q 814 243 830 215 Q 837 202 850 201 Q 860 200 875 212 Q 912 261 913 319 Q 914 409 789 504 Q 747 523 818 620 Q 834 653 862 668 Q 890 687 863 704 Q 824 732 800 742 Q 782 746 768 736 Q 744 714 722 706 Q 683 690 641 672 C 613 660 630 632 657 645 Z" class="stroke6"/>
    <path d="M 593 -14 Q 599 -39 606 -49 Q 612 -56 619 -54 Q 634 -45 640 16 Q 649 103 647 189 Q 647 205 646 570 L 657 645 C 659 661 659 661 641 672 Q 610 691 597 694 Q 584 698 568 689 Q 559 682 567 671 Q 591 616 593 597 Q 593 311 590 189 Q 587 38 593 -14 Z" class="stroke7"/>
    
    
    
    
    
    
    </g>
</svg>