<svg version="1.1" viewBox="0 0 1024 1024" xmlns="http://www.w3.org/2000/svg">
  
  <g transform="scale(1, -1) translate(0, -900)">
    <style type="text/css">
        .stroke1 {fill: #808080;}
        .stroke2 {fill: #808079;}
        .stroke3 {fill: #808078;}
        .stroke4 {fill: #808077;}
        .stroke5 {fill: #808076;}
        .stroke6 {fill: #808075;}
        .stroke7 {fill: #808074;}
        .stroke8 {fill: #808073;}
        .stroke9 {fill: #808072;}
        .stroke10 {fill: #808071;}
        .stroke11 {fill: #808070;}
        .stroke12 {fill: #808069;}
        .stroke13 {fill: #808068;}
        .stroke14 {fill: #808067;}
        .stroke15 {fill: #808066;}
        .stroke16 {fill: #808065;}
        .stroke17 {fill: #808064;}
        .stroke18 {fill: #808063;}
        .stroke19 {fill: #808062;}
        .stroke20 {fill: #808061;}
        text {
            font-family: Helvetica;
            font-size: 50px;
            fill: #808060;
            paint-order: stroke;
            stroke: #000000;
            stroke-width: 4px;
            stroke-linecap: butt;
            stroke-linejoin: miter;
            font-weight: 800;
        }
    </style>

    <path d="M 317 668 Q 377 746 388 754 Q 397 763 394 775 Q 390 787 367 808 Q 345 826 328 827 Q 312 826 318 807 Q 337 743 168 555 Q 158 546 156 541 Q 152 531 165 533 Q 196 537 301 650 L 317 668 Z" class="stroke1"/>
    <path d="M 378 499 Q 397 524 434 573 Q 471 628 511 659 Q 527 669 515 681 Q 502 691 467 709 Q 451 713 438 705 Q 429 701 356 677 Q 338 673 317 668 C 288 661 272 657 301 650 Q 319 640 409 659 Q 419 660 421 658 Q 425 655 420 643 Q 384 552 360 509 Q 353 497 351 489 C 340 461 360 475 378 499 Z" class="stroke2"/>
    <path d="M 459 225 Q 483 390 533 443 Q 549 464 534 481 Q 449 539 391 504 Q 384 503 378 499 L 351 489 Q 221 459 183 454 Q 165 453 168 442 Q 171 433 190 427 Q 217 417 252 429 Q 330 445 403 462 Q 422 466 430 459 Q 446 444 444 411 Q 431 311 410 230 C 403 201 454 195 459 225 Z" class="stroke3"/>
    <path d="M 154 318 Q 129 314 149 299 Q 182 278 206 286 Q 261 301 362 321 Q 372 320 379 332 Q 379 342 358 350 Q 331 369 256 341 Q 237 337 154 318 Z" class="stroke4"/>
    <path d="M 410 230 Q 404 230 399 228 Q 275 191 173 176 Q 148 173 164 153 Q 173 143 185 138 Q 198 135 213 139 Q 297 161 478 183 Q 491 184 492 195 Q 492 205 459 225 L 410 230 Z" class="stroke5"/>
    <path d="M 651 617 Q 672 629 759 659 Q 762 660 773 655 Q 783 648 776 626 Q 725 478 725 476 Q 725 464 746 458 Q 840 388 845 304 Q 845 280 832 267 Q 819 257 793 261 Q 753 268 718 271 Q 711 272 711 265 Q 714 258 728 248 Q 806 211 822 183 Q 829 170 841 169 Q 851 169 866 180 Q 905 226 906 283 Q 907 373 789 468 Q 750 486 808 569 Q 829 618 866 640 Q 894 658 868 676 Q 829 706 805 715 Q 789 721 773 710 Q 749 689 727 681 Q 688 668 645 651 C 617 640 624 604 651 617 Z" class="stroke6"/>
    <path d="M 589 -22 Q 595 -47 602 -57 Q 608 -64 615 -62 Q 630 -53 636 7 Q 645 94 643 179 Q 643 195 642 540 Q 642 567 651 617 C 656 644 656 644 645 651 Q 644 652 642 653 Q 608 675 593 678 Q 580 682 564 673 Q 555 666 563 655 Q 567 645 575 634 Q 588 609 589 572 Q 592 418 586 178 Q 583 28 589 -22 Z" class="stroke7"/>
    
    
    
    
    
    
    </g>
</svg>