<svg version="1.1" viewBox="0 0 1024 1024" xmlns="http://www.w3.org/2000/svg">
  
  <g transform="scale(1, -1) translate(0, -900)">
    <style type="text/css">
        .stroke1 {fill: #808080;}
        .stroke2 {fill: #808079;}
        .stroke3 {fill: #808078;}
        .stroke4 {fill: #808077;}
        .stroke5 {fill: #808076;}
        .stroke6 {fill: #808075;}
        .stroke7 {fill: #808074;}
        .stroke8 {fill: #808073;}
        .stroke9 {fill: #808072;}
        .stroke10 {fill: #808071;}
        .stroke11 {fill: #808070;}
        .stroke12 {fill: #808069;}
        .stroke13 {fill: #808068;}
        .stroke14 {fill: #808067;}
        .stroke15 {fill: #808066;}
        .stroke16 {fill: #808065;}
        .stroke17 {fill: #808064;}
        .stroke18 {fill: #808063;}
        .stroke19 {fill: #808062;}
        .stroke20 {fill: #808061;}
        text {
            font-family: Helvetica;
            font-size: 50px;
            fill: #808060;
            paint-order: stroke;
            stroke: #000000;
            stroke-width: 4px;
            stroke-linecap: butt;
            stroke-linejoin: miter;
            font-weight: 800;
        }
    </style>

    <path d="M 391 688 Q 520 715 526 719 Q 536 726 531 736 Q 524 748 494 756 Q 467 762 351 728 Q 221 706 179 701 Q 142 697 168 678 Q 195 662 234 661 L 273 666 Q 306 672 349 678 L 391 688 Z" class="stroke1"/>
    <path d="M 178 507 Q 177 508 176 509 Q 167 516 154 521 Q 145 525 134 522 Q 127 518 132 506 Q 133 496 138 488 Q 156 451 141 221 Q 137 194 128 160 Q 113 112 146 65 Q 156 52 166 64 Q 178 79 179 101 L 183 135 Q 184 150 184 168 Q 194 442 197 461 Q 198 474 198 481 C 198 493 198 493 178 507 Z" class="stroke2"/>
    <path d="M 427 121 Q 445 93 460 62 Q 470 43 480 40 Q 490 40 499 62 Q 512 101 509 250 Q 503 469 513 500 Q 522 521 510 529 Q 503 539 468 557 Q 458 563 381 542 L 351 535 Q 300 526 295 523 L 257 517 Q 220 513 178 507 C 148 503 169 474 198 481 Q 241 491 257 495 L 293 503 Q 318 510 349 513 L 378 517 Q 388 520 401 520 Q 434 523 443 511 Q 455 499 455 372 L 455 349 Q 455 157 443 144 C 435 115 420 132 427 121 Z" class="stroke3"/>
    <path d="M 234 661 Q 256 639 258 522 Q 258 521 257 517 L 257 495 Q 254 459 210 326 Q 210 319 217 321 Q 229 324 244 352 Q 292 424 293 503 L 295 523 Q 295 619 298 634 Q 302 644 296 653 Q 286 660 273 666 C 246 679 217 686 234 661 Z" class="stroke4"/>
    <path d="M 381 542 Q 387 599 407 663 Q 411 673 404 681 Q 400 685 391 688 C 364 702 335 705 349 678 Q 361 662 359 625 Q 356 583 351 535 L 349 513 Q 330 386 371 349 Q 381 339 426 341 Q 445 342 455 349 C 482 361 485 367 455 372 Q 451 373 443 374 Q 400 377 395 381 Q 368 403 378 517 L 381 542 Z" class="stroke5"/>
    <path d="M 231 253 Q 215 249 235 235 Q 242 229 259 231 Q 337 244 395 252 Q 417 256 409 268 Q 399 283 373 287 Q 349 290 308 278 Q 268 265 231 253 Z" class="stroke6"/>
    <path d="M 179 101 Q 188 100 199 101 Q 272 114 427 121 C 457 122 465 124 443 144 Q 436 151 422 161 Q 406 171 375 164 Q 267 143 183 135 C 153 132 149 103 179 101 Z" class="stroke7"/>
    <path d="M 789 496 Q 816 575 843 599 Q 868 626 844 642 Q 825 655 796 675 Q 778 687 722 658 Q 661 634 575 620 Q 563 620 565 613 Q 566 606 580 599 Q 599 590 668 607 Q 756 629 764 617 Q 771 610 759 574 Q 747 538 732 497 C 722 469 779 468 789 496 Z" class="stroke8"/>
    <path d="M 624 428 Q 679 444 802 465 Q 812 466 813 476 Q 813 483 789 496 C 767 508 761 506 732 497 Q 668 476 617 462 C 588 454 595 420 624 428 Z" class="stroke9"/>
    <path d="M 965 164 Q 952 189 933 268 Q 932 284 925 290 Q 919 294 914 275 Q 886 190 867 164 Q 855 148 818 138 Q 730 119 659 148 Q 631 161 623 180 Q 592 240 624 428 C 628 454 628 454 617 462 Q 604 475 582 483 Q 569 487 561 482 Q 554 478 560 460 Q 573 423 570 385 Q 560 210 575 161 Q 581 136 604 113 Q 691 44 859 74 Q 868 77 878 79 Q 918 92 958 121 Q 979 137 965 164 Z" class="stroke10"/>
    
    
    
    
    
    
    
    
    
    </g>
</svg>