<svg version="1.1" viewBox="0 0 1024 1024" xmlns="http://www.w3.org/2000/svg">
  
  <g transform="scale(1, -1) translate(0, -900)">
    <style type="text/css">
        .stroke1 {fill: #808080;}
        .stroke2 {fill: #808079;}
        .stroke3 {fill: #808078;}
        .stroke4 {fill: #808077;}
        .stroke5 {fill: #808076;}
        .stroke6 {fill: #808075;}
        .stroke7 {fill: #808074;}
        .stroke8 {fill: #808073;}
        .stroke9 {fill: #808072;}
        .stroke10 {fill: #808071;}
        .stroke11 {fill: #808070;}
        .stroke12 {fill: #808069;}
        .stroke13 {fill: #808068;}
        .stroke14 {fill: #808067;}
        .stroke15 {fill: #808066;}
        .stroke16 {fill: #808065;}
        .stroke17 {fill: #808064;}
        .stroke18 {fill: #808063;}
        .stroke19 {fill: #808062;}
        .stroke20 {fill: #808061;}
        text {
            font-family: Helvetica;
            font-size: 50px;
            fill: #808060;
            paint-order: stroke;
            stroke: #000000;
            stroke-width: 4px;
            stroke-linecap: butt;
            stroke-linejoin: miter;
            font-weight: 800;
        }
    </style>

    <path d="M 395 731 Q 404 743 413 750 Q 423 760 418 775 Q 414 788 386 812 Q 359 831 340 831 Q 321 830 328 807 Q 343 773 329 744 Q 287 650 225 561 Q 165 476 83 383 Q 73 373 71 367 Q 67 355 81 358 Q 133 367 287 569 Q 321 617 358 675 Q 368 694 380 710 L 395 731 Z" class="stroke1"/>
    <path d="M 380 710 Q 386 704 400 695 Q 443 668 491 635 Q 503 626 514 628 Q 523 629 525 640 Q 528 652 518 674 Q 511 698 472 713 Q 436 723 395 731 C 366 737 358 730 380 710 Z" class="stroke2"/>
    <path d="M 364 488 Q 463 519 466 522 Q 473 531 468 538 Q 461 548 433 551 Q 405 554 379 540 Q 354 530 327 519 Q 296 510 260 503 Q 229 494 253 481 Q 280 472 321 474 L 364 488 Z" class="stroke3"/>
    <path d="M 380 369 Q 402 376 429 382 Q 460 391 464 396 Q 471 403 467 410 Q 460 420 435 425 Q 411 428 381 416 L 331 397 Q 277 382 222 373 Q 191 366 214 352 Q 244 336 331 356 L 380 369 Z" class="stroke4"/>
    <path d="M 373 179 Q 376 284 380 369 L 381 416 Q 381 419 382 420 Q 385 468 373 481 Q 367 485 364 488 C 340 507 313 503 321 474 Q 325 470 331 397 L 331 356 Q 331 292 331 168 C 331 138 372 149 373 179 Z" class="stroke5"/>
    <path d="M 182 262 Q 212 217 236 202 Q 249 198 259 209 Q 266 219 266 236 Q 259 272 198 296 Q 183 302 174 299 Q 168 299 169 287 Q 169 277 182 262 Z" class="stroke6"/>
    <path d="M 459 320 Q 446 289 414 238 Q 410 232 415 227 Q 421 227 426 231 Q 487 289 516 313 Q 529 319 525 326 Q 518 338 502 349 Q 486 361 469 360 Q 457 359 460 343 Q 464 333 459 320 Z" class="stroke7"/>
    <path d="M 331 168 Q 267 153 200 136 Q 178 130 141 132 Q 128 131 125 121 Q 122 108 131 98 Q 153 80 187 60 Q 197 56 210 64 Q 258 95 460 169 Q 491 184 524 199 Q 537 206 539 216 Q 533 222 520 220 Q 450 201 373 179 L 331 168 Z" class="stroke8"/>
    <path d="M 738 565 Q 799 572 947 573 Q 966 573 971 582 Q 977 592 960 606 Q 902 648 849 629 Q 597 587 528 578 Q 507 575 523 559 Q 536 546 554 541 Q 575 535 590 540 Q 635 552 686 559 L 738 565 Z" class="stroke9"/>
    <path d="M 686 559 Q 687 552 695 543 Q 707 516 707 472 Q 711 361 714 109 Q 713 73 702 60 Q 690 53 661 61 Q 640 67 614 72 Q 601 76 601 68 Q 601 59 612 49 Q 676 -8 716 -51 Q 729 -61 744 -43 Q 789 14 783 102 Q 767 334 775 497 Q 782 527 775 538 Q 766 550 738 565 C 712 580 672 585 686 559 Z" class="stroke10"/>
    
    
    
    
    
    
    
    
    
    </g>
</svg>