<svg version="1.1" viewBox="0 0 1024 1024" xmlns="http://www.w3.org/2000/svg">
  
  <g transform="scale(1, -1) translate(0, -900)">
    <style type="text/css">
        .stroke1 {fill: #808080;}
        .stroke2 {fill: #808079;}
        .stroke3 {fill: #808078;}
        .stroke4 {fill: #808077;}
        .stroke5 {fill: #808076;}
        .stroke6 {fill: #808075;}
        .stroke7 {fill: #808074;}
        .stroke8 {fill: #808073;}
        .stroke9 {fill: #808072;}
        .stroke10 {fill: #808071;}
        .stroke11 {fill: #808070;}
        .stroke12 {fill: #808069;}
        .stroke13 {fill: #808068;}
        .stroke14 {fill: #808067;}
        .stroke15 {fill: #808066;}
        .stroke16 {fill: #808065;}
        .stroke17 {fill: #808064;}
        .stroke18 {fill: #808063;}
        .stroke19 {fill: #808062;}
        .stroke20 {fill: #808061;}
        text {
            font-family: Helvetica;
            font-size: 50px;
            fill: #808060;
            paint-order: stroke;
            stroke: #000000;
            stroke-width: 4px;
            stroke-linecap: butt;
            stroke-linejoin: miter;
            font-weight: 800;
        }
    </style>

    <path d="M 307 728 Q 292 707 192 607 Q 180 591 198 592 Q 226 607 348 678 Q 369 693 395 702 Q 417 711 408 730 Q 396 749 370 766 Q 346 782 332 781 Q 319 780 322 766 Q 323 747 307 728 Z" class="stroke1"/>
    <path d="M 586 773 Q 647 736 723 681 Q 742 665 758 663 Q 767 664 772 675 Q 782 690 761 730 Q 737 778 581 803 Q 571 806 572 794 Q 573 781 586 773 Z" class="stroke2"/>
    <path d="M 529 569 Q 563 608 594 627 Q 603 630 604 640 Q 605 650 596 666 Q 569 702 537 707 Q 528 707 527 694 Q 524 661 480 602 L 457 575 Q 342 463 212 393 Q 160 366 88 331 Q 78 328 88 323 Q 167 316 344 419 Q 449 498 501 544 L 529 569 Z" class="stroke3"/>
    <path d="M 501 544 Q 621 439 752 373 Q 794 358 967 402 Q 977 408 981 416 Q 982 425 962 425 Q 902 435 836 440 Q 701 455 529 569 L 480 602 Q 401 654 345 640 Q 335 636 340 626 Q 347 619 358 618 Q 388 617 457 575 L 501 544 Z" class="stroke4"/>
    <path d="M 484 381 Q 530 391 582 399 Q 616 406 622 410 Q 631 417 626 425 Q 620 435 594 443 Q 572 449 473 422 Q 389 409 353 405 Q 319 401 343 385 Q 380 361 432 373 Q 435 374 439 373 L 484 381 Z" class="stroke5"/>
    <path d="M 509 247 Q 539 253 669 265 Q 679 264 688 275 Q 689 285 668 297 Q 638 321 558 297 Q 534 294 511 287 L 456 277 Q 420 274 285 259 Q 257 256 278 239 Q 308 215 351 222 Q 397 231 456 239 L 509 247 Z" class="stroke6"/>
    <path d="M 503 71 Q 506 168 509 247 L 511 287 Q 511 308 514 330 Q 523 354 484 381 C 460 399 427 401 439 373 Q 451 352 456 277 L 456 239 Q 456 178 458 67 C 459 37 502 41 503 71 Z" class="stroke7"/>
    <path d="M 298 158 Q 328 110 356 94 Q 369 90 379 101 Q 386 111 386 128 Q 376 176 318 190 Q 315 191 314 192 Q 299 198 290 195 Q 284 195 285 183 Q 285 173 298 158 Z" class="stroke8"/>
    <path d="M 594 189 Q 591 179 560 120 Q 554 105 568 110 Q 595 126 611 139 Q 638 167 666 183 Q 682 193 672 208 Q 659 220 636 229 Q 615 238 605 234 Q 595 231 599 221 Q 603 206 594 189 Z" class="stroke9"/>
    <path d="M 458 67 Q 328 58 178 46 Q 156 45 171 27 Q 186 11 204 5 Q 225 -2 242 2 Q 456 50 795 27 Q 816 26 821 35 Q 828 47 811 62 Q 756 105 720 98 Q 638 85 503 71 L 458 67 Z" class="stroke10"/>
    
    
    
    
    
    
    
    
    
    </g>
</svg>