<svg version="1.1" viewBox="0 0 1024 1024" xmlns="http://www.w3.org/2000/svg">
  
  <g transform="scale(1, -1) translate(0, -900)">
    <style type="text/css">
        .stroke1 {fill: #808080;}
        .stroke2 {fill: #808079;}
        .stroke3 {fill: #808078;}
        .stroke4 {fill: #808077;}
        .stroke5 {fill: #808076;}
        .stroke6 {fill: #808075;}
        .stroke7 {fill: #808074;}
        .stroke8 {fill: #808073;}
        .stroke9 {fill: #808072;}
        .stroke10 {fill: #808071;}
        .stroke11 {fill: #808070;}
        .stroke12 {fill: #808069;}
        .stroke13 {fill: #808068;}
        .stroke14 {fill: #808067;}
        .stroke15 {fill: #808066;}
        .stroke16 {fill: #808065;}
        .stroke17 {fill: #808064;}
        .stroke18 {fill: #808063;}
        .stroke19 {fill: #808062;}
        .stroke20 {fill: #808061;}
        text {
            font-family: Helvetica;
            font-size: 50px;
            fill: #808060;
            paint-order: stroke;
            stroke: #000000;
            stroke-width: 4px;
            stroke-linecap: butt;
            stroke-linejoin: miter;
            font-weight: 800;
        }
    </style>

    <path d="M 355 677 Q 361 688 376 705 Q 386 715 384 725 Q 378 745 358 761 Q 329 785 306 785 Q 290 784 293 766 Q 311 731 297 701 Q 229 541 67 347 Q 47 325 58 323 Q 106 316 285 566 Q 329 643 340 657 L 355 677 Z" class="stroke1"/>
    <path d="M 340 657 Q 349 649 361 641 L 391 619 L 439 584 Q 446 579 460 579 Q 462 580 464 580 Q 476 588 469 611 Q 466 626 455 638 Q 431 662 355 677 C 326 683 317 677 340 657 Z" class="stroke2"/>
    <path d="M 331 428 Q 359 437 404 447 Q 416 450 419 451 Q 436 457 433 468 Q 431 480 398 486 Q 391 488 385 488 Q 367 489 341 479 Q 292 460 227 452 Q 194 444 219 431 Q 228 425 237 423 Q 252 418 285 418 L 331 428 Z" class="stroke3"/>
    <path d="M 347 301 Q 422 319 429 325 Q 435 331 433 336 Q 433 339 423 346 Q 392 366 349 347 L 347 347 L 296 329 Q 294 329 291 328 Q 241 316 199 310 Q 176 305 182 296 Q 184 294 187 291 Q 216 272 285 287 L 297 289 L 347 301 Z" class="stroke4"/>
    <path d="M 342 132 Q 345 248 347 301 L 347 347 L 351 402 Q 349 418 331 428 C 306 445 276 447 285 418 Q 294 396 296 329 L 297 289 Q 298 228 300 120 C 301 90 341 102 342 132 Z" class="stroke5"/>
    <path d="M 174 196 L 218 145 Q 227 135 237 133 Q 255 131 253 165 L 251 177 Q 249 191 227 207 Q 172 237 161 235 Q 157 234 157 223 Q 158 215 174 196 Z" class="stroke6"/>
    <path d="M 380 180 Q 386 180 390 184 Q 435 229 461 246 Q 482 256 447 278 Q 433 288 423 288 Q 410 288 412 276 Q 412 273 412 272 Q 414 265 411 252 Q 406 241 401 231 L 380 192 Q 376 186 380 180 Z" class="stroke7"/>
    <path d="M 123 78 L 120 78 Q 114 78 110 74 Q 98 66 106 52 Q 109 48 121 39 L 167 10 L 169 10 Q 180 8 188 16 Q 231 46 413 122 Q 416 123 422 127 Q 472 149 472 165 Q 466 171 454 168 L 342 132 L 300 120 Q 257 110 181 86 Q 153 77 123 78 Z" class="stroke8"/>
    <path d="M 570 580 Q 608 645 639 716 Q 647 741 662 765 Q 671 782 670 790 Q 667 804 643 818 Q 609 839 583 835 Q 582 835 580 833 Q 566 827 576 809 Q 616 759 484 502 Q 472 486 470 474 Q 470 466 476 466 Q 480 466 485 469 Q 504 481 555 557 L 570 580 Z" class="stroke9"/>
    <path d="M 555 557 Q 564 555 580 555 Q 607 556 706 573 Q 794 588 805 579 Q 826 540 811 318 Q 807 247 788 180 Q 760 79 725 74 Q 706 74 624 129 Q 617 132 615 131 Q 613 126 617 122 L 623 114 Q 675 54 698 10 Q 711 -17 727 -16 Q 751 -18 770 6 Q 845 69 860 227 Q 874 331 878 497 Q 878 502 878 508 Q 881 537 902 564 Q 913 578 911 585 Q 907 598 875 615 Q 825 644 796 639 L 786 635 Q 740 619 692 608 L 570 580 C 541 573 525 558 555 557 Z" class="stroke10"/>
    <path d="M 686 321 Q 632 316 572 303 L 564 303 Q 563 306 565 310 Q 566 314 578 332 Q 637 424 657 447 Q 664 456 662 465 L 661 466 Q 655 478 608 497 Q 598 501 590 500 Q 570 498 580 474 Q 604 422 523 321 L 484 286 Q 473 275 476 267 Q 480 257 490 245 Q 510 225 521 229 Q 523 230 526 233 Q 549 253 698 302 C 726 311 716 324 686 321 Z" class="stroke11"/>
    <path d="M 698 302 Q 731 251 741 247 Q 762 245 764 290 Q 764 323 684 373 Q 679 376 676 378 Q 664 384 661 368 Q 661 364 686 321 L 698 302 Z" class="stroke12"/>
    
    
    
    
    
    
    
    
    
    
    
    </g>
</svg>