<svg version="1.1" viewBox="0 0 1024 1024" xmlns="http://www.w3.org/2000/svg">
  
  <g transform="scale(1, -1) translate(0, -900)">
    <style type="text/css">
        .stroke1 {fill: #808080;}
        .stroke2 {fill: #808079;}
        .stroke3 {fill: #808078;}
        .stroke4 {fill: #808077;}
        .stroke5 {fill: #808076;}
        .stroke6 {fill: #808075;}
        .stroke7 {fill: #808074;}
        .stroke8 {fill: #808073;}
        .stroke9 {fill: #808072;}
        .stroke10 {fill: #808071;}
        .stroke11 {fill: #808070;}
        .stroke12 {fill: #808069;}
        .stroke13 {fill: #808068;}
        .stroke14 {fill: #808067;}
        .stroke15 {fill: #808066;}
        .stroke16 {fill: #808065;}
        .stroke17 {fill: #808064;}
        .stroke18 {fill: #808063;}
        .stroke19 {fill: #808062;}
        .stroke20 {fill: #808061;}
        text {
            font-family: Helvetica;
            font-size: 50px;
            fill: #808060;
            paint-order: stroke;
            stroke: #000000;
            stroke-width: 4px;
            stroke-linecap: butt;
            stroke-linejoin: miter;
            font-weight: 800;
        }
    </style>

    <path d="M 223 514 Q 295 628 335 707 L 346 728 Q 349 743 365 760 Q 372 767 369 777 Q 366 787 352 798 Q 336 810 316 814 Q 294 818 283 815 Q 274 812 278 799 Q 303 709 173 520 Q 170 517 168 513 Q 129 461 32 356 Q 25 350 35 348 Q 107 369 210 497 L 223 514 Z" class="stroke1"/>
    <path d="M 335 707 Q 342 700 361 686 Q 395 662 430 633 Q 443 623 456 624 Q 466 625 469 636 Q 473 649 463 675 Q 451 708 355 727 Q 349 728 346 728 C 316 731 313 727 335 707 Z" class="stroke2"/>
    <path d="M 317 497 Q 413 528 414 530 Q 421 539 416 546 Q 409 556 381 559 Q 356 560 285 530 Q 255 523 224 515 Q 223 515 223 514 C 199 505 199 505 210 497 Q 222 485 278 485 L 317 497 Z" class="stroke3"/>
    <path d="M 340 381 Q 364 390 391 397 Q 418 406 422 410 Q 429 419 424 426 Q 417 436 389 439 Q 364 442 342 431 L 290 409 Q 209 387 193 383 Q 160 374 185 361 Q 222 346 283 364 Q 286 365 291 366 L 340 381 Z" class="stroke4"/>
    <path d="M 333 207 Q 336 304 340 381 L 342 431 Q 346 470 341 477 Q 329 489 317 497 C 293 515 268 513 278 485 Q 284 476 290 409 L 291 366 Q 291 306 291 194 C 291 164 332 177 333 207 Z" class="stroke5"/>
    <path d="M 175 271 Q 191 250 209 226 Q 218 213 231 212 Q 238 211 245 221 Q 251 231 248 257 Q 247 273 225 288 Q 168 318 160 315 Q 156 312 155 301 Q 156 292 175 271 Z" class="stroke6"/>
    <path d="M 388 319 Q 381 297 362 262 Q 358 256 363 251 Q 369 251 374 256 Q 422 296 445 313 Q 458 319 453 327 Q 447 337 430 349 Q 414 361 396 359 Q 386 358 389 342 Q 392 332 388 319 Z" class="stroke7"/>
    <path d="M 291 194 Q 222 176 148 155 Q 129 149 95 150 Q 82 149 80 139 Q 77 126 87 118 Q 109 102 141 82 Q 151 79 164 87 Q 209 120 394 194 Q 421 204 441 219 Q 454 226 454 236 Q 450 240 437 239 Q 388 224 333 207 L 291 194 Z" class="stroke8"/>
    <path d="M 644 679 Q 659 728 680 757 Q 687 769 680 781 Q 674 793 642 810 Q 614 823 595 820 Q 577 814 589 794 Q 607 769 600 743 Q 570 599 461 403 Q 454 391 452 385 Q 451 373 464 379 Q 524 406 634 655 L 644 679 Z" class="stroke9"/>
    <path d="M 634 655 Q 635 654 637 651 Q 787 429 831 416 Q 876 407 978 426 Q 987 429 988 433 Q 989 437 976 445 Q 829 505 746 581 Q 704 618 644 679 C 623 700 617 680 634 655 Z" class="stroke10"/>
    <path d="M 611 429 Q 632 411 654 390 Q 667 377 682 379 Q 692 380 697 392 Q 701 407 692 435 Q 686 451 660 462 Q 594 480 584 475 Q 580 471 581 459 Q 585 449 611 429 Z" class="stroke11"/>
    <path d="M 662 137 Q 779 255 812 269 Q 831 276 824 293 Q 820 309 751 342 Q 732 351 710 341 Q 659 319 582 292 Q 563 285 513 283 Q 489 283 499 263 Q 506 250 527 240 Q 558 224 591 246 Q 607 253 687 294 Q 700 300 713 292 Q 726 285 720 270 Q 684 215 645 147 C 630 121 641 116 662 137 Z" class="stroke12"/>
    <path d="M 645 147 Q 614 168 594 178 Q 587 185 582 172 Q 581 159 588 148 Q 628 97 674 25 Q 686 3 700 -4 Q 707 -5 717 2 Q 732 12 726 58 Q 723 100 662 137 L 645 147 Z" class="stroke13"/>
    
    
    
    
    
    
    
    
    
    
    
    
    </g>
</svg>