<svg version="1.1" viewBox="0 0 1024 1024" xmlns="http://www.w3.org/2000/svg">
  
  <g transform="scale(1, -1) translate(0, -900)">
    <style type="text/css">
        .stroke1 {fill: #808080;}
        .stroke2 {fill: #808079;}
        .stroke3 {fill: #808078;}
        .stroke4 {fill: #808077;}
        .stroke5 {fill: #808076;}
        .stroke6 {fill: #808075;}
        .stroke7 {fill: #808074;}
        .stroke8 {fill: #808073;}
        .stroke9 {fill: #808072;}
        .stroke10 {fill: #808071;}
        .stroke11 {fill: #808070;}
        .stroke12 {fill: #808069;}
        .stroke13 {fill: #808068;}
        .stroke14 {fill: #808067;}
        .stroke15 {fill: #808066;}
        .stroke16 {fill: #808065;}
        .stroke17 {fill: #808064;}
        .stroke18 {fill: #808063;}
        .stroke19 {fill: #808062;}
        .stroke20 {fill: #808061;}
        text {
            font-family: Helvetica;
            font-size: 50px;
            fill: #808060;
            paint-order: stroke;
            stroke: #000000;
            stroke-width: 4px;
            stroke-linecap: butt;
            stroke-linejoin: miter;
            font-weight: 800;
        }
    </style>

    <path d="M 211 491 Q 274 569 338 692 L 351 718 Q 360 745 377 765 Q 384 771 381 781 Q 378 791 364 802 Q 328 829 295 819 Q 286 816 290 803 Q 315 722 202 551 Q 195 542 188 531 Q 152 480 60 380 Q 53 374 63 372 Q 106 385 193 471 L 211 491 Z" class="stroke1"/>
    <path d="M 338 692 Q 344 688 352 683 Q 388 661 427 631 Q 437 622 450 624 Q 459 625 461 636 Q 464 648 455 670 Q 448 691 414 704 Q 384 713 351 718 C 321 723 313 708 338 692 Z" class="stroke2"/>
    <path d="M 309 477 Q 417 513 418 514 Q 425 523 420 530 Q 413 540 385 543 Q 357 546 331 531 Q 304 519 275 509 Q 245 499 211 491 C 182 484 169 481 193 471 Q 194 471 197 469 Q 233 457 270 464 L 309 477 Z" class="stroke3"/>
    <path d="M 328 351 Q 406 378 409 380 Q 416 387 412 394 Q 405 404 379 408 Q 354 411 331 399 L 280 379 Q 225 361 181 353 Q 150 346 173 332 Q 206 320 280 337 L 328 351 Z" class="stroke4"/>
    <path d="M 318 178 Q 322 272 328 351 L 331 399 Q 331 402 332 404 Q 335 452 333 456 Q 321 468 309 477 C 285 496 263 493 270 464 Q 279 431 280 379 L 280 337 Q 279 276 276 167 C 275 137 317 148 318 178 Z" class="stroke5"/>
    <path d="M 156 252 Q 198 186 216 184 Q 226 181 234 195 Q 237 205 231 224 Q 224 239 205 250 Q 177 269 163 274 Q 156 275 153 267 Q 152 260 156 252 Z" class="stroke6"/>
    <path d="M 395 301 Q 382 276 355 237 Q 351 233 355 227 Q 361 226 366 230 Q 421 273 449 290 Q 461 294 458 302 Q 454 312 438 325 Q 425 338 408 338 Q 398 337 399 323 Q 400 313 395 301 Z" class="stroke7"/>
    <path d="M 276 167 Q 219 154 161 138 Q 142 132 108 134 Q 95 133 93 123 Q 90 110 99 102 Q 121 86 153 65 Q 163 61 175 70 Q 220 100 406 171 Q 433 181 452 196 Q 465 203 466 212 Q 462 218 449 215 Q 388 197 318 178 L 276 167 Z" class="stroke8"/>
    <path d="M 659 679 Q 677 719 695 738 Q 704 750 698 763 Q 692 775 662 795 Q 634 811 616 808 Q 597 805 607 784 Q 623 757 614 732 Q 589 648 547 569 Q 507 493 448 407 Q 439 397 437 390 Q 436 378 449 382 Q 506 398 637 635 Q 643 647 649 658 L 659 679 Z" class="stroke9"/>
    <path d="M 649 658 Q 716 568 789 485 Q 808 463 842 460 Q 903 453 968 461 Q 984 462 986 466 Q 989 472 976 478 Q 936 496 888 514 Q 834 536 796 564 Q 747 597 700 641 Q 675 666 659 679 C 636 698 631 682 649 658 Z" class="stroke10"/>
    <path d="M 650 384 Q 774 414 779 418 Q 788 425 783 433 Q 776 443 749 450 Q 731 453 628 422 Q 573 410 519 402 Q 486 396 510 381 Q 550 362 600 373 Q 601 374 607 374 L 650 384 Z" class="stroke11"/>
    <path d="M 667 243 Q 704 253 745 262 Q 776 269 780 274 Q 787 281 783 289 Q 776 299 749 305 Q 719 309 671 289 L 617 273 Q 578 264 535 258 Q 501 251 526 237 Q 568 216 616 231 L 667 243 Z" class="stroke12"/>
    <path d="M 659 119 Q 663 186 667 243 L 671 289 Q 671 308 675 336 Q 684 360 650 384 C 626 402 600 403 607 374 Q 616 341 617 273 L 616 231 Q 615 185 615 113 C 615 83 657 89 659 119 Z" class="stroke13"/>
    <path d="M 615 113 Q 516 101 405 86 Q 383 85 399 67 Q 412 54 431 48 Q 452 42 468 47 Q 630 87 922 88 Q 941 88 947 96 Q 953 108 936 122 Q 884 161 846 152 Q 776 139 659 119 L 615 113 Z" class="stroke14"/>
    
    
    
    
    
    
    
    
    
    
    
    
    
    </g>
</svg>