<svg version="1.1" viewBox="0 0 1024 1024" xmlns="http://www.w3.org/2000/svg">
  
  <g transform="scale(1, -1) translate(0, -900)">
    <style type="text/css">
        .stroke1 {fill: #808080;}
        .stroke2 {fill: #808079;}
        .stroke3 {fill: #808078;}
        .stroke4 {fill: #808077;}
        .stroke5 {fill: #808076;}
        .stroke6 {fill: #808075;}
        .stroke7 {fill: #808074;}
        .stroke8 {fill: #808073;}
        .stroke9 {fill: #808072;}
        .stroke10 {fill: #808071;}
        .stroke11 {fill: #808070;}
        .stroke12 {fill: #808069;}
        .stroke13 {fill: #808068;}
        .stroke14 {fill: #808067;}
        .stroke15 {fill: #808066;}
        .stroke16 {fill: #808065;}
        .stroke17 {fill: #808064;}
        .stroke18 {fill: #808063;}
        .stroke19 {fill: #808062;}
        .stroke20 {fill: #808061;}
        text {
            font-family: Helvetica;
            font-size: 50px;
            fill: #808060;
            paint-order: stroke;
            stroke: #000000;
            stroke-width: 4px;
            stroke-linecap: butt;
            stroke-linejoin: miter;
            font-weight: 800;
        }
    </style>

    <path d="M 218 485 Q 237 516 262 549 Q 296 607 344 712 L 355 735 Q 358 753 374 771 Q 381 777 377 787 Q 374 797 360 806 Q 323 833 293 821 Q 284 817 288 806 Q 316 728 206 543 Q 197 528 187 514 Q 150 460 56 352 Q 49 345 59 344 Q 116 359 207 472 L 218 485 Z" class="stroke1"/>
    <path d="M 344 712 Q 351 706 363 698 Q 394 676 427 649 Q 437 640 450 641 Q 457 642 461 652 Q 464 664 456 687 Q 446 714 357 735 L 355 735 C 325 739 321 731 344 712 Z" class="stroke2"/>
    <path d="M 331 475 Q 434 511 438 514 Q 445 523 440 530 Q 433 540 405 543 Q 381 544 318 516 Q 260 495 224 487 Q 220 487 218 485 C 200 479 200 479 207 472 Q 211 462 253 457 Q 272 457 293 462 L 331 475 Z" class="stroke3"/>
    <path d="M 354 352 Q 447 383 449 384 Q 456 391 451 398 Q 444 408 419 412 Q 391 415 356 398 L 306 378 Q 299 378 293 375 Q 250 362 197 353 Q 166 346 190 332 Q 223 319 284 333 Q 294 336 306 338 L 354 352 Z" class="stroke4"/>
    <path d="M 346 157 Q 350 265 354 352 C 355 382 356 397 356 398 Q 356 399 357 399 Q 358 415 359 427 Q 366 443 357 453 Q 344 466 331 475 C 307 493 283 490 293 462 Q 302 444 306 378 L 306 338 Q 305 272 304 143 C 304 113 345 127 346 157 Z" class="stroke5"/>
    <path d="M 183 233 Q 202 214 224 190 Q 234 178 248 178 Q 257 178 261 189 Q 265 201 260 225 Q 253 253 182 273 Q 169 277 164 275 Q 160 272 160 261 Q 163 251 183 233 Z" class="stroke6"/>
    <path d="M 423 302 Q 414 281 385 238 Q 379 226 390 229 Q 468 287 482 294 Q 495 301 488 314 Q 478 324 459 333 Q 443 340 433 338 Q 424 337 428 328 Q 432 315 423 302 Z" class="stroke7"/>
    <path d="M 304 143 Q 250 127 195 108 Q 176 101 144 101 Q 131 100 129 88 Q 128 75 138 66 Q 162 50 197 32 Q 207 29 220 39 Q 257 69 427 152 Q 452 164 469 179 Q 482 186 482 196 Q 476 202 463 199 Q 408 180 346 157 L 304 143 Z" class="stroke8"/>
    <path d="M 705 520 Q 720 769 732 807 Q 735 817 715 832 Q 679 851 654 855 Q 638 858 630 849 Q 623 842 631 826 Q 650 801 652 782 Q 662 658 663 512 C 663 482 703 490 705 520 Z" class="stroke9"/>
    <path d="M 515 638 Q 548 587 576 574 Q 589 570 599 581 Q 606 591 605 608 Q 601 630 586 644 Q 547 677 513 676 Q 509 677 506 675 Q 500 675 501 663 Q 502 653 515 638 Z" class="stroke10"/>
    <path d="M 835 720 Q 819 693 750 607 Q 740 589 758 593 Q 809 623 837 643 Q 912 698 924 703 Q 946 713 935 732 Q 920 750 893 765 Q 868 778 854 775 Q 841 774 845 760 Q 849 741 835 720 Z" class="stroke11"/>
    <path d="M 597 283 Q 598 332 601 367 L 602 388 Q 605 446 608 467 L 608 475 C 609 497 609 497 591 505 Q 558 521 540 521 Q 527 517 532 504 Q 587 381 535 166 Q 528 141 517 121 Q 499 85 530 39 Q 531 38 534 34 Q 541 21 552 26 Q 585 48 595 176 Q 594 180 597 260 L 597 283 Z" class="stroke12"/>
    <path d="M 608 475 Q 713 493 768 503 Q 787 506 795 495 Q 804 488 805 460 Q 820 244 815 113 Q 814 86 806 75 Q 802 69 782 73 Q 760 77 736 82 Q 715 89 716 79 Q 768 28 797 -7 Q 810 -26 827 -32 Q 837 -36 845 -26 Q 887 22 886 83 Q 850 437 878 484 Q 891 505 878 516 Q 856 535 816 551 Q 797 558 781 552 Q 735 530 705 520 L 663 512 Q 632 509 591 505 C 561 502 578 470 608 475 Z" class="stroke13"/>
    <path d="M 601 367 Q 626 358 697 369 Q 760 381 763 383 Q 770 389 766 395 Q 762 404 739 410 Q 733 411 653 394 Q 629 390 602 388 C 572 386 572 375 601 367 Z" class="stroke14"/>
    <path d="M 597 260 Q 633 248 705 259 Q 729 263 753 266 Q 772 269 774 272 Q 781 279 778 286 Q 772 296 748 303 Q 730 307 656 290 Q 629 286 600 284 Q 597 284 597 283 C 568 277 568 269 597 260 Z" class="stroke15"/>
    
    
    
    
    
    
    
    
    
    
    
    
    
    
    </g>
</svg>