<svg version="1.1" viewBox="0 0 1024 1024" xmlns="http://www.w3.org/2000/svg">
  
  <g transform="scale(1, -1) translate(0, -900)">
    <style type="text/css">
        .stroke1 {fill: #808080;}
        .stroke2 {fill: #808079;}
        .stroke3 {fill: #808078;}
        .stroke4 {fill: #808077;}
        .stroke5 {fill: #808076;}
        .stroke6 {fill: #808075;}
        .stroke7 {fill: #808074;}
        .stroke8 {fill: #808073;}
        .stroke9 {fill: #808072;}
        .stroke10 {fill: #808071;}
        .stroke11 {fill: #808070;}
        .stroke12 {fill: #808069;}
        .stroke13 {fill: #808068;}
        .stroke14 {fill: #808067;}
        .stroke15 {fill: #808066;}
        .stroke16 {fill: #808065;}
        .stroke17 {fill: #808064;}
        .stroke18 {fill: #808063;}
        .stroke19 {fill: #808062;}
        .stroke20 {fill: #808061;}
        text {
            font-family: Helvetica;
            font-size: 50px;
            fill: #808060;
            paint-order: stroke;
            stroke: #000000;
            stroke-width: 4px;
            stroke-linecap: butt;
            stroke-linejoin: miter;
            font-weight: 800;
        }
    </style>

    <path d="M 182 559 Q 125 472 55 384 Q 33 363 45 359 Q 59 355 90 384 Q 141 432 203 513 Q 279 613 314 682 L 327 705 Q 328 706 329 708 Q 337 723 355 741 Q 365 751 363 760 Q 357 783 327 802 Q 298 821 280 819 Q 265 819 268 804 Q 269 801 270 794 Q 280 770 277 753 Q 276 737 253 690 Q 218 614 182 559 Z" class="stroke1"/>
    <path d="M 314 682 Q 322 674 337 663 L 339 662 L 415 599 Q 426 590 437 590 Q 457 594 451 625 Q 447 655 417 674 Q 394 689 332 705 L 327 705 C 297 706 292 703 314 682 Z" class="stroke2"/>
    <path d="M 296 464 L 379 494 Q 388 496 394 499 Q 412 506 408 515 Q 402 530 370 531 Q 353 533 337 527 L 267 499 Q 258 496 248 492 L 195 478 Q 182 474 187 468 Q 189 466 192 465 Q 208 453 233 452 Q 245 452 258 453 L 296 464 Z" class="stroke3"/>
    <path d="M 270 370 L 264 368 Q 229 355 164 338 Q 131 333 159 319 Q 180 308 210 312 Q 223 314 272 328 L 321 345 Q 338 353 369 363 Q 382 367 389 369 Q 410 378 408 388 Q 402 402 374 404 Q 343 406 323 392 L 270 370 Z" class="stroke4"/>
    <path d="M 270 402 L 270 370 L 272 328 L 272 151 C 272 121 315 136 316 166 Q 318 267 321 345 L 323 392 L 325 416 Q 329 427 327 435 Q 322 447 296 464 C 271 481 243 479 258 453 Q 259 450 262 446 Q 270 431 270 402 Z" class="stroke5"/>
    <path d="M 196 175 Q 207 166 220 164 Q 223 163 225 165 Q 239 170 237 198 Q 235 208 234 212 Q 229 229 207 242 Q 157 268 143 269 Q 132 269 132 254 Q 133 246 143 235 Q 174 204 196 175 Z" class="stroke6"/>
    <path d="M 347 228 Q 347 225 349 223 Q 355 223 359 227 Q 370 237 382 245 L 437 282 Q 443 286 441 292 Q 438 296 433 302 Q 412 326 388 326 Q 378 325 380 314 Q 384 294 361 257 Q 345 233 347 228 Z" class="stroke7"/>
    <path d="M 272 151 L 162 119 Q 147 113 121 114 L 118 114 Q 104 112 102 100 Q 102 87 110 78 Q 138 61 170 44 Q 178 41 198 55 Q 243 86 260 96 L 370 151 Q 390 162 406 175 Q 419 182 419 192 Q 416 196 411 196 Q 398 196 316 166 L 272 151 Z" class="stroke8"/>
    <path d="M 666 733 L 725 747 Q 743 751 751 755 Q 764 760 759 772 Q 753 782 733 788 Q 706 795 684 790 Q 676 788 662 782 Q 613 764 527 752 Q 521 752 517 751 Q 503 749 508 741 Q 510 737 515 733 Q 545 710 600 719 L 666 733 Z" class="stroke9"/>
    <path d="M 673 580 L 672 588 Q 672 668 684 686 Q 688 690 690 694 Q 700 715 666 733 C 640 748 583 743 600 719 Q 606 712 610 700 Q 625 655 621 570 C 620 540 677 550 673 580 Z" class="stroke10"/>
    <path d="M 682 541 Q 747 554 847 557 L 878 559 Q 898 561 900 569 Q 904 576 897 584 Q 886 594 871 602 Q 832 624 803 614 L 673 580 L 621 570 Q 510 554 467 538 Q 454 536 459 528 Q 459 527 461 525 Q 474 509 495 505 Q 507 502 519 504 L 615 529 L 682 541 Z" class="stroke11"/>
    <path d="M 690 269 Q 690 292 690 295 L 690 343 Q 687 474 701 493 Q 704 498 706 501 Q 715 522 682 541 C 658 559 601 555 615 529 Q 633 508 636 431 L 639 292 Q 639 149 635 129 Q 631 106 617 108 Q 546 125 541 123 Q 531 120 553 100 Q 570 85 583 73 Q 617 39 635 10 Q 639 2 647 -1 Q 658 -5 662 -1 Q 678 16 686 49 Q 692 74 692 127 L 692 128 L 690 269 Z" class="stroke12"/>
    <path d="M 443 406 Q 439 406 435 404 Q 423 397 443 385 Q 453 380 461 377 Q 494 365 519 380 Q 535 388 539 388 Q 549 388 546 372 Q 544 359 529 324 Q 502 263 480 231 Q 451 188 402 143 Q 385 127 387 125 Q 392 122 406 127 L 416 132 Q 468 160 510 207 Q 512 208 513 210 Q 546 247 586 330 Q 612 382 619 390 Q 625 395 626 400 Q 629 415 584 428 Q 564 437 548 429 Q 519 414 443 406 Z" class="stroke13"/>
    <path d="M 698 329 Q 741 348 782 368 L 832 394 Q 837 398 843 401 L 879 415 Q 898 421 894 435 Q 887 455 862 474 Q 838 492 825 492 Q 813 492 813 478 Q 814 460 798 445 Q 776 416 752 398 L 690 343 C 668 323 671 317 698 329 Z" class="stroke14"/>
    <path d="M 690 295 Q 751 210 826 119 Q 842 102 868 102 L 903 104 Q 992 106 996 117 Q 996 121 984 127 Q 953 139 935 148 Q 864 177 822 211 Q 785 239 698 329 C 677 351 651 350 690 295 Z" class="stroke15"/>
    
    
    
    
    
    
    
    
    
    
    
    
    
    
    </g>
</svg>