<svg version="1.1" viewBox="0 0 1024 1024" xmlns="http://www.w3.org/2000/svg">
  
  <g transform="scale(1, -1) translate(0, -900)">
    <style type="text/css">
        .stroke1 {fill: #808080;}
        .stroke2 {fill: #808079;}
        .stroke3 {fill: #808078;}
        .stroke4 {fill: #808077;}
        .stroke5 {fill: #808076;}
        .stroke6 {fill: #808075;}
        .stroke7 {fill: #808074;}
        .stroke8 {fill: #808073;}
        .stroke9 {fill: #808072;}
        .stroke10 {fill: #808071;}
        .stroke11 {fill: #808070;}
        .stroke12 {fill: #808069;}
        .stroke13 {fill: #808068;}
        .stroke14 {fill: #808067;}
        .stroke15 {fill: #808066;}
        .stroke16 {fill: #808065;}
        .stroke17 {fill: #808064;}
        .stroke18 {fill: #808063;}
        .stroke19 {fill: #808062;}
        .stroke20 {fill: #808061;}
        text {
            font-family: Helvetica;
            font-size: 50px;
            fill: #808060;
            paint-order: stroke;
            stroke: #000000;
            stroke-width: 4px;
            stroke-linecap: butt;
            stroke-linejoin: miter;
            font-weight: 800;
        }
    </style>

    <path d="M 224 490 Q 287 577 348 689 L 358 707 Q 364 726 381 747 Q 388 753 386 764 Q 383 774 369 785 Q 330 816 297 804 Q 288 801 292 788 Q 316 701 192 522 Q 186 516 182 509 Q 145 458 48 357 Q 41 350 51 348 Q 115 369 214 477 L 224 490 Z" class="stroke1"/>
    <path d="M 348 689 Q 354 682 371 670 Q 399 651 431 625 Q 441 615 454 617 Q 461 618 465 628 Q 468 640 460 662 Q 448 692 365 707 Q 361 708 358 707 C 333 705 333 705 348 689 Z" class="stroke2"/>
    <path d="M 330 477 Q 364 489 402 498 Q 426 505 429 509 Q 436 516 431 523 Q 424 532 401 536 Q 376 539 353 527 Q 326 517 298 506 Q 267 497 228 491 Q 227 491 224 490 C 204 486 204 486 214 477 Q 235 456 289 466 L 330 477 Z" class="stroke3"/>
    <path d="M 354 366 Q 445 396 448 397 Q 455 404 451 411 Q 444 420 421 424 Q 390 430 355 409 L 303 390 Q 297 389 295 388 Q 250 375 197 367 Q 169 360 190 348 Q 221 333 299 352 Q 300 353 304 353 L 354 366 Z" class="stroke4"/>
    <path d="M 349 189 Q 352 288 354 366 L 355 409 Q 358 452 354 458 Q 341 470 330 477 C 305 494 278 494 289 466 Q 298 447 303 390 L 304 353 Q 304 293 307 177 C 308 147 348 159 349 189 Z" class="stroke5"/>
    <path d="M 179 246 Q 195 227 214 204 Q 224 191 238 190 Q 248 190 253 201 Q 259 213 254 240 Q 247 264 179 288 Q 166 292 160 291 Q 156 288 155 276 Q 158 266 179 246 Z" class="stroke6"/>
    <path d="M 421 320 Q 406 293 375 250 Q 371 244 375 239 Q 381 238 387 242 Q 448 290 477 308 Q 490 312 487 320 Q 469 356 434 359 Q 422 358 424 343 Q 427 333 421 320 Z" class="stroke7"/>
    <path d="M 307 177 Q 244 158 176 138 Q 155 132 122 133 Q 109 132 107 120 Q 104 107 114 98 Q 138 82 172 62 Q 182 59 195 68 Q 237 99 282 119 Q 352 149 422 180 Q 449 192 468 207 Q 481 214 482 224 Q 476 230 464 227 Q 409 209 349 189 L 307 177 Z" class="stroke8"/>
    <path d="M 550 629 Q 525 644 500 649 Q 493 652 488 646 Q 481 640 491 629 Q 533 569 546 422 Q 550 362 588 336 Q 589 336 591 335 Q 607 331 607 356 L 605 387 Q 605 388 584 501 Q 575 555 572 600 C 571 617 571 617 550 629 Z" class="stroke9"/>
    <path d="M 778 380 Q 796 353 812 345 Q 824 336 841 358 Q 857 386 896 540 Q 906 573 932 598 Q 945 611 934 626 Q 918 644 875 673 Q 853 685 796 669 Q 780 668 762 664 Q 587 637 550 629 C 521 623 543 594 572 600 Q 603 607 643 614 L 692 621 Q 812 642 831 627 Q 847 614 842 592 Q 812 447 799 425 Q 795 415 781 409 C 765 397 765 397 778 380 Z" class="stroke10"/>
    <path d="M 717 492 Q 747 498 775 501 Q 797 505 789 517 Q 779 530 755 535 Q 739 536 718 532 L 665 517 Q 637 510 611 500 Q 595 496 614 483 Q 621 477 639 480 Q 652 483 666 483 L 717 492 Z" class="stroke11"/>
    <path d="M 715 374 Q 743 378 778 380 C 808 382 805 390 781 409 Q 778 412 774 414 Q 753 424 715 410 L 666 399 Q 635 392 605 387 C 575 382 579 346 607 356 Q 606 357 609 357 Q 631 363 666 367 L 715 374 Z" class="stroke12"/>
    <path d="M 712 133 Q 712 178 712 220 L 713 264 Q 713 322 715 374 L 715 410 Q 716 453 717 492 L 718 532 Q 719 554 720 571 Q 727 590 717 601 Q 704 613 692 621 C 668 639 630 641 643 614 Q 650 599 657 588 Q 664 564 665 517 L 666 483 Q 666 452 666 399 L 666 367 Q 666 318 666 252 L 666 210 Q 666 171 666 126 C 666 96 712 103 712 133 Z" class="stroke13"/>
    <path d="M 712 220 Q 752 229 795 235 Q 826 242 831 246 Q 838 253 835 261 Q 828 271 802 279 Q 783 283 713 264 L 666 252 Q 626 245 581 242 Q 547 236 571 221 Q 607 197 660 210 Q 661 211 666 210 L 712 220 Z" class="stroke14"/>
    <path d="M 666 126 Q 567 116 453 102 Q 431 101 447 83 Q 460 70 479 63 Q 500 57 516 62 Q 651 92 905 93 Q 918 93 933 92 Q 954 92 958 100 Q 964 112 948 126 Q 888 169 825 152 Q 777 145 712 133 L 666 126 Z" class="stroke15"/>
    
    
    
    
    
    
    
    
    
    
    
    
    
    
    </g>
</svg>