<svg version="1.1" viewBox="0 0 1024 1024" xmlns="http://www.w3.org/2000/svg">
  
  <g transform="scale(1, -1) translate(0, -900)">
    <style type="text/css">
        .stroke1 {fill: #808080;}
        .stroke2 {fill: #808079;}
        .stroke3 {fill: #808078;}
        .stroke4 {fill: #808077;}
        .stroke5 {fill: #808076;}
        .stroke6 {fill: #808075;}
        .stroke7 {fill: #808074;}
        .stroke8 {fill: #808073;}
        .stroke9 {fill: #808072;}
        .stroke10 {fill: #808071;}
        .stroke11 {fill: #808070;}
        .stroke12 {fill: #808069;}
        .stroke13 {fill: #808068;}
        .stroke14 {fill: #808067;}
        .stroke15 {fill: #808066;}
        .stroke16 {fill: #808065;}
        .stroke17 {fill: #808064;}
        .stroke18 {fill: #808063;}
        .stroke19 {fill: #808062;}
        .stroke20 {fill: #808061;}
        text {
            font-family: Helvetica;
            font-size: 50px;
            fill: #808060;
            paint-order: stroke;
            stroke: #000000;
            stroke-width: 4px;
            stroke-linecap: butt;
            stroke-linejoin: miter;
            font-weight: 800;
        }
    </style>

    <path d="M 228 492 Q 246 517 267 544 Q 307 604 363 715 L 371 731 Q 381 752 389 760 Q 396 767 393 777 Q 390 787 376 798 Q 360 810 340 814 Q 318 818 307 815 Q 298 812 302 800 Q 327 710 199 527 Q 193 521 189 513 Q 152 461 52 356 Q 45 350 55 348 Q 110 366 217 478 L 228 492 Z" class="stroke1"/>
    <path d="M 363 715 Q 367 708 387 694 Q 414 675 443 652 Q 453 643 466 645 Q 473 646 477 656 Q 480 668 471 690 Q 465 706 438 718 Q 381 734 371 731 C 352 729 352 729 363 715 Z" class="stroke2"/>
    <path d="M 330 476 Q 421 506 425 508 Q 432 515 428 522 Q 421 532 395 536 Q 371 537 298 508 Q 268 499 232 493 Q 231 493 228 492 C 206 487 206 487 217 478 Q 235 460 290 465 L 330 476 Z" class="stroke3"/>
    <path d="M 353 348 Q 443 378 445 380 Q 452 387 448 394 Q 441 404 415 408 Q 382 411 354 393 L 304 374 Q 298 373 294 371 Q 254 358 205 349 Q 174 342 197 328 Q 240 312 282 327 Q 292 331 305 334 L 353 348 Z" class="stroke4"/>
    <path d="M 349 161 Q 352 264 353 348 L 354 393 Q 354 411 356 431 Q 363 449 354 458 Q 341 470 330 476 C 305 492 281 493 290 465 Q 299 444 304 374 L 305 334 Q 305 270 307 150 C 307 120 348 131 349 161 Z" class="stroke5"/>
    <path d="M 196 225 Q 214 207 232 186 Q 242 174 256 174 Q 265 174 269 185 Q 273 197 268 221 Q 261 245 194 265 Q 181 269 176 267 Q 172 264 172 253 Q 175 243 196 225 Z" class="stroke6"/>
    <path d="M 420 286 Q 408 264 383 230 Q 379 224 383 219 Q 389 218 395 222 Q 449 258 476 271 Q 489 275 486 284 Q 482 296 466 309 Q 451 322 434 324 Q 424 323 424 309 Q 425 299 420 286 Z" class="stroke7"/>
    <path d="M 307 150 Q 246 134 178 115 Q 159 109 127 110 Q 114 109 112 99 Q 109 86 119 78 Q 141 62 173 42 Q 183 39 196 47 Q 328 110 461 175 Q 474 182 474 192 Q 470 198 456 195 Q 405 179 349 161 L 307 150 Z" class="stroke8"/>
    <path d="M 540 561 Q 603 657 631 708 Q 649 747 665 765 Q 672 775 668 788 Q 664 800 635 819 Q 608 834 591 832 Q 573 829 583 809 Q 607 767 530 622 Q 494 555 444 481 Q 435 471 434 465 Q 431 455 444 458 Q 459 462 512 523 L 540 561 Z" class="stroke9"/>
    <path d="M 577 141 Q 576 412 586 477 Q 593 505 583 516 Q 565 538 551 552 Q 547 558 540 561 C 517 581 500 551 512 523 Q 539 466 539 385 Q 539 217 505 79 Q 490 30 527 -18 Q 528 -21 532 -24 Q 551 -40 563 -12 Q 575 27 577 128 L 577 141 Z" class="stroke10"/>
    <path d="M 718 686 Q 760 650 795 639 Q 808 638 815 652 Q 819 665 814 679 Q 799 710 726 723 L 724 723 Q 708 724 700 720 Q 694 717 699 707 Q 702 697 718 686 Z" class="stroke11"/>
    <path d="M 738 525 Q 796 541 860 556 Q 894 565 900 570 Q 907 577 903 585 Q 896 595 869 601 Q 841 605 815 594 Q 776 578 733 566 Q 687 554 631 546 Q 598 539 622 525 Q 656 509 701 516 L 738 525 Z" class="stroke12"/>
    <path d="M 769 392 Q 815 405 856 412 Q 878 416 869 429 Q 859 442 835 445 Q 813 446 774 434 Q 770 433 770 432 L 719 416 Q 680 404 646 393 Q 630 389 650 375 Q 654 372 719 381 L 769 392 Z" class="stroke13"/>
    <path d="M 765 280 Q 811 292 852 299 Q 874 303 865 316 Q 855 331 829 334 Q 805 335 766 322 L 719 307 Q 677 294 638 281 Q 622 277 643 263 Q 650 257 719 271 L 765 280 Z" class="stroke14"/>
    <path d="M 762 174 Q 763 229 765 280 L 766 322 Q 767 359 769 392 L 770 432 Q 770 447 773 472 Q 780 491 770 500 Q 754 516 738 525 C 713 541 691 544 701 516 Q 714 483 719 416 L 719 381 Q 719 351 719 307 L 719 271 Q 719 226 719 166 C 719 136 761 144 762 174 Z" class="stroke15"/>
    <path d="M 719 166 Q 655 156 582 143 Q 578 143 577 141 C 565 138 565 138 577 128 Q 590 116 606 111 Q 624 107 638 112 Q 752 146 939 146 Q 955 147 960 154 Q 964 164 950 176 Q 896 212 848 193 Q 811 186 762 174 L 719 166 Z" class="stroke16"/>
    
    
    
    
    
    
    
    
    
    
    
    
    
    
    
    </g>
</svg>