<svg version="1.1" viewBox="0 0 1024 1024" xmlns="http://www.w3.org/2000/svg">
  
  <g transform="scale(1, -1) translate(0, -900)">
    <style type="text/css">
        .stroke1 {fill: #808080;}
        .stroke2 {fill: #808079;}
        .stroke3 {fill: #808078;}
        .stroke4 {fill: #808077;}
        .stroke5 {fill: #808076;}
        .stroke6 {fill: #808075;}
        .stroke7 {fill: #808074;}
        .stroke8 {fill: #808073;}
        .stroke9 {fill: #808072;}
        .stroke10 {fill: #808071;}
        .stroke11 {fill: #808070;}
        .stroke12 {fill: #808069;}
        .stroke13 {fill: #808068;}
        .stroke14 {fill: #808067;}
        .stroke15 {fill: #808066;}
        .stroke16 {fill: #808065;}
        .stroke17 {fill: #808064;}
        .stroke18 {fill: #808063;}
        .stroke19 {fill: #808062;}
        .stroke20 {fill: #808061;}
        text {
            font-family: Helvetica;
            font-size: 50px;
            fill: #808060;
            paint-order: stroke;
            stroke: #000000;
            stroke-width: 4px;
            stroke-linecap: butt;
            stroke-linejoin: miter;
            font-weight: 800;
        }
    </style>

    <path d="M 208 479 Q 269 566 328 677 L 337 695 Q 346 719 357 730 Q 364 737 361 746 Q 358 756 344 766 Q 305 794 277 782 Q 268 779 272 767 Q 299 691 187 523 Q 183 517 178 510 Q 145 462 60 368 Q 53 361 63 360 Q 105 367 196 466 L 208 479 Z" class="stroke1"/>
    <path d="M 328 677 Q 332 670 349 657 Q 379 632 410 603 Q 420 593 433 594 Q 442 594 445 605 Q 449 615 442 639 Q 438 658 408 673 Q 345 698 337 695 C 315 694 315 694 328 677 Z" class="stroke2"/>
    <path d="M 310 471 Q 344 484 382 496 Q 404 505 407 508 Q 413 515 408 522 Q 401 532 375 534 Q 360 534 275 500 Q 245 490 211 481 Q 207 480 208 479 C 190 471 190 471 196 466 Q 214 448 271 457 L 310 471 Z" class="stroke3"/>
    <path d="M 329 355 Q 354 365 386 374 Q 417 384 421 389 Q 428 396 423 403 Q 416 412 393 415 Q 360 416 329 398 L 281 378 Q 275 377 272 375 Q 230 362 180 351 Q 152 344 173 332 Q 212 316 252 332 Q 265 336 282 341 L 329 355 Z" class="stroke4"/>
    <path d="M 325 175 Q 326 275 329 355 L 329 398 Q 329 402 330 404 Q 333 450 329 455 Q 319 465 310 471 C 286 489 261 485 271 457 Q 277 451 281 378 L 282 341 Q 282 280 284 162 C 285 132 325 145 325 175 Z" class="stroke5"/>
    <path d="M 170 231 Q 188 212 206 190 Q 216 180 228 179 Q 237 179 241 189 Q 245 199 241 223 Q 234 250 169 268 Q 157 272 152 271 Q 148 268 148 258 Q 149 249 170 231 Z" class="stroke6"/>
    <path d="M 379 292 Q 372 273 358 241 Q 354 235 359 231 Q 365 231 370 236 Q 412 273 433 287 Q 445 293 440 300 Q 434 310 418 321 Q 402 331 386 330 Q 376 329 379 314 Q 383 305 379 292 Z" class="stroke7"/>
    <path d="M 284 162 Q 119 108 85 108 Q 72 107 71 97 Q 70 84 78 77 Q 100 62 132 45 Q 142 42 153 50 Q 196 83 244 104 Q 317 135 389 168 Q 417 180 437 196 Q 450 203 450 212 Q 444 216 433 214 Q 381 195 325 175 L 284 162 Z" class="stroke8"/>
    <path d="M 637 616 Q 658 628 681 639 Q 703 651 706 655 Q 712 665 706 671 Q 696 678 669 678 Q 642 678 615 656 L 579 633 Q 572 630 566 626 Q 535 610 498 596 Q 468 581 495 573 Q 535 563 583 589 Q 590 593 602 598 L 637 616 Z" class="stroke9"/>
    <path d="M 680 503 Q 735 449 788 420 Q 866 381 891 387 Q 907 391 893 431 Q 884 455 876 517 Q 875 547 863 557 Q 854 564 853 550 Q 844 468 828 460 Q 809 453 758 485 Q 731 501 710 523 L 686 549 L 686 550 Q 661 578 637 616 L 615 656 Q 578 726 575 779 Q 576 809 536 819 Q 490 832 468 823 Q 461 820 461 812 Q 461 805 471 796 Q 499 784 555 674 Q 565 655 579 633 L 602 598 Q 629 561 659 525 L 680 503 Z" class="stroke10"/>
    <path d="M 659 525 Q 596 477 595 476 Q 591 469 601 467 Q 616 466 680 503 L 710 523 Q 746 548 791 587 Q 813 608 829 616 Q 838 622 837 633 Q 836 643 820 666 Q 804 685 790 688 Q 777 691 778 673 Q 782 640 698 560 Q 692 556 686 549 L 659 525 Z" class="stroke11"/>
    <path d="M 681 797 Q 708 778 736 756 Q 749 746 761 748 Q 770 749 773 760 Q 776 773 766 796 Q 754 824 674 836 Q 661 837 656 835 Q 652 831 654 821 Q 658 812 681 797 Z" class="stroke12"/>
    <path d="M 600 315 Q 613 324 628 331 Q 644 341 647 345 Q 651 354 646 360 Q 636 367 611 365 Q 598 364 586 357 L 547 331 Q 501 304 472 290 Q 444 275 471 269 Q 514 262 553 288 Q 557 291 564 294 L 600 315 Z" class="stroke13"/>
    <path d="M 645 150 Q 744 6 870 -50 Q 940 -78 957 -62 Q 973 -52 962 -20 Q 955 7 947 103 Q 947 122 942 126 Q 938 127 933 110 Q 897 22 874 20 Q 780 32 676 177 L 651 215 Q 636 230 600 315 L 586 357 Q 576 400 576 425 Q 577 450 535 461 Q 501 471 486 464 Q 470 457 485 436 Q 516 408 530 371 Q 537 352 547 331 L 564 294 Q 591 239 621 187 L 645 150 Z" class="stroke14"/>
    <path d="M 621 187 Q 554 130 399 46 Q 392 43 400 39 Q 451 33 568 98 Q 596 116 629 138 Q 636 144 645 150 L 676 177 Q 716 211 771 264 Q 798 291 799 293 Q 800 302 791 315 Q 769 351 737 351 Q 730 351 728 339 Q 728 294 651 215 L 621 187 Z" class="stroke15"/>
    <path d="M 628 420 Q 673 378 690 380 Q 700 380 703 394 Q 703 404 694 418 Q 676 439 629 440 Q 622 441 622 432 Q 622 426 628 420 Z" class="stroke16"/>
    
    
    
    
    
    
    
    
    
    
    
    
    
    
    
    </g>
</svg>