<svg version="1.1" viewBox="0 0 1024 1024" xmlns="http://www.w3.org/2000/svg">
  
  <g transform="scale(1, -1) translate(0, -900)">
    <style type="text/css">
        .stroke1 {fill: #808080;}
        .stroke2 {fill: #808079;}
        .stroke3 {fill: #808078;}
        .stroke4 {fill: #808077;}
        .stroke5 {fill: #808076;}
        .stroke6 {fill: #808075;}
        .stroke7 {fill: #808074;}
        .stroke8 {fill: #808073;}
        .stroke9 {fill: #808072;}
        .stroke10 {fill: #808071;}
        .stroke11 {fill: #808070;}
        .stroke12 {fill: #808069;}
        .stroke13 {fill: #808068;}
        .stroke14 {fill: #808067;}
        .stroke15 {fill: #808066;}
        .stroke16 {fill: #808065;}
        .stroke17 {fill: #808064;}
        .stroke18 {fill: #808063;}
        .stroke19 {fill: #808062;}
        .stroke20 {fill: #808061;}
        text {
            font-family: Helvetica;
            font-size: 50px;
            fill: #808060;
            paint-order: stroke;
            stroke: #000000;
            stroke-width: 4px;
            stroke-linecap: butt;
            stroke-linejoin: miter;
            font-weight: 800;
        }
    </style>

    <path d="M 308 703 Q 318 722 331 732 Q 338 742 334 755 Q 330 767 303 787 Q 278 803 259 803 Q 243 800 250 780 Q 260 761 250 715 Q 189 565 61 401 Q 52 391 50 385 Q 47 375 60 378 Q 111 385 251 604 Q 267 632 287 665 Q 291 677 298 686 L 308 703 Z" class="stroke1"/>
    <path d="M 298 686 Q 302 680 317 671 Q 353 649 391 620 Q 401 613 412 614 Q 419 615 422 624 Q 423 634 416 654 Q 404 687 310 703 L 308 703 C 281 706 281 706 298 686 Z" class="stroke2"/>
    <path d="M 284 477 Q 374 504 378 508 Q 385 515 380 522 Q 373 532 347 535 Q 326 536 258 510 Q 234 503 204 497 Q 173 488 197 476 Q 216 469 245 468 L 284 477 Z" class="stroke3"/>
    <path d="M 301 373 Q 385 397 389 401 Q 396 408 391 415 Q 384 424 361 428 Q 345 429 303 416 L 255 398 Q 251 397 249 396 Q 212 386 169 379 Q 139 372 162 360 Q 198 341 253 361 L 255 361 L 301 373 Z" class="stroke4"/>
    <path d="M 293 208 Q 296 299 301 373 L 303 416 Q 306 456 294 469 Q 288 473 284 477 C 261 496 238 497 245 468 Q 254 435 255 398 L 255 361 Q 255 306 254 195 C 254 165 292 178 293 208 Z" class="stroke5"/>
    <path d="M 143 273 Q 162 252 181 228 Q 190 218 201 216 Q 208 216 213 225 Q 217 235 215 257 Q 212 278 144 308 Q 134 312 128 310 Q 124 309 124 298 Q 125 291 143 273 Z" class="stroke6"/>
    <path d="M 352 320 Q 345 301 326 269 Q 323 263 327 260 Q 333 259 337 263 Q 380 299 402 313 Q 414 317 410 325 Q 404 335 390 345 Q 377 355 361 355 Q 351 354 354 341 Q 355 331 352 320 Z" class="stroke7"/>
    <path d="M 254 195 Q 206 182 157 166 Q 141 160 112 161 Q 100 160 99 149 Q 98 136 106 129 Q 128 114 160 97 Q 170 94 181 103 Q 214 128 250 147 Q 305 172 361 201 Q 382 211 397 224 Q 410 231 409 240 Q 405 244 393 242 Q 345 226 293 208 L 254 195 Z" class="stroke8"/>
    <path d="M 615 781 Q 640 762 666 737 Q 679 725 694 727 Q 704 728 709 740 Q 713 755 703 783 Q 697 801 669 812 Q 600 833 588 827 Q 584 823 585 811 Q 589 801 615 781 Z" class="stroke9"/>
    <path d="M 506 637 Q 491 665 478 675 Q 475 679 470 676 Q 466 673 464 663 Q 465 633 437 574 Q 427 559 427 544 Q 430 526 437 514 Q 444 504 449 510 Q 459 513 476 555 Q 492 598 501 612 Q 501 613 502 614 C 510 629 510 629 506 637 Z" class="stroke10"/>
    <path d="M 502 614 Q 524 601 548 608 Q 650 647 776 661 L 784 661 Q 797 657 795 650 Q 795 649 766 588 Q 757 575 763 572 Q 770 569 786 578 Q 834 608 873 616 Q 904 623 905 632 Q 902 641 842 687 Q 820 705 761 690 Q 647 674 506 637 C 477 629 475 626 502 614 Z" class="stroke11"/>
    <path d="M 539 536 Q 545 485 453 396 Q 447 392 454 391 Q 505 391 585 496 Q 589 500 592 503 Q 596 507 596 514 Q 592 532 565 542 Q 552 546 543 546 Q 537 545 539 536 Z" class="stroke12"/>
    <path d="M 672 521 Q 721 487 779 434 Q 792 421 805 418 Q 812 418 816 426 Q 825 438 812 470 Q 802 501 670 545 Q 663 548 662 538 Q 663 528 672 521 Z" class="stroke13"/>
    <path d="M 495 211 Q 564 280 597 325 Q 624 362 642 384 L 656 402 Q 659 409 658 414 Q 654 424 632 430 Q 608 437 598 434 Q 592 433 590 421 Q 572 316 343 123 Q 327 110 349 113 Q 400 122 478 194 L 495 211 Z" class="stroke14"/>
    <path d="M 642 384 Q 792 210 832 199 Q 931 199 967 205 Q 983 206 984 211 Q 985 215 974 221 Q 818 281 798 295 Q 792 299 787 302 Q 775 309 656 402 C 632 420 622 407 642 384 Z" class="stroke15"/>
    <path d="M 526 203 Q 517 207 495 211 C 466 217 462 217 478 194 Q 479 194 480 192 Q 504 143 518 65 Q 521 41 534 26 Q 550 7 554 21 Q 557 31 556 47 L 552 79 Q 542 149 538 174 C 534 200 534 200 526 203 Z" class="stroke16"/>
    <path d="M 734 104 Q 752 158 780 177 Q 795 193 782 210 Q 713 265 674 240 Q 616 221 526 203 C 497 197 509 168 538 174 Q 547 175 558 179 Q 616 189 674 200 Q 689 204 695 197 Q 704 188 686 105 C 680 76 724 76 734 104 Z" class="stroke17"/>
    <path d="M 556 47 Q 566 44 579 47 Q 634 57 751 66 Q 761 67 763 76 Q 764 83 734 104 C 721 113 715 112 686 105 Q 610 87 552 79 C 522 75 527 53 556 47 Z" class="stroke18"/>
    
    
    
    
    
    
    
    
    
    
    
    
    
    
    
    
    
    </g>
</svg>