<svg version="1.1" viewBox="0 0 1024 1024" xmlns="http://www.w3.org/2000/svg">
  
  <g transform="scale(1, -1) translate(0, -900)">
    <style type="text/css">
        .stroke1 {fill: #808080;}
        .stroke2 {fill: #808079;}
        .stroke3 {fill: #808078;}
        .stroke4 {fill: #808077;}
        .stroke5 {fill: #808076;}
        .stroke6 {fill: #808075;}
        .stroke7 {fill: #808074;}
        .stroke8 {fill: #808073;}
        .stroke9 {fill: #808072;}
        .stroke10 {fill: #808071;}
        .stroke11 {fill: #808070;}
        .stroke12 {fill: #808069;}
        .stroke13 {fill: #808068;}
        .stroke14 {fill: #808067;}
        .stroke15 {fill: #808066;}
        .stroke16 {fill: #808065;}
        .stroke17 {fill: #808064;}
        .stroke18 {fill: #808063;}
        .stroke19 {fill: #808062;}
        .stroke20 {fill: #808061;}
        text {
            font-family: Helvetica;
            font-size: 50px;
            fill: #808060;
            paint-order: stroke;
            stroke: #000000;
            stroke-width: 4px;
            stroke-linecap: butt;
            stroke-linejoin: miter;
            font-weight: 800;
        }
    </style>

    <path d="M 345 654 Q 384 723 413 750 Q 423 760 418 775 Q 414 788 386 812 Q 359 831 340 831 Q 321 830 328 807 Q 343 773 329 744 Q 287 650 225 561 Q 165 476 83 383 Q 73 373 71 367 Q 67 355 81 358 Q 141 367 307 598 Q 316 614 328 629 L 345 654 Z" class="stroke1"/>
    <path d="M 328 629 Q 358 614 431 631 Q 462 640 497 649 Q 515 653 517 657 Q 524 664 520 673 Q 513 683 483 688 Q 458 691 388 664 Q 367 660 345 654 C 316 646 300 641 328 629 Z" class="stroke2"/>
    <path d="M 349 475 Q 461 511 466 514 Q 473 523 468 530 Q 461 540 433 543 Q 405 546 379 532 Q 354 522 327 511 Q 296 502 260 495 Q 229 486 253 473 Q 274 466 307 465 L 349 475 Z" class="stroke3"/>
    <path d="M 384 323 Q 424 336 468 346 Q 511 359 516 365 Q 525 372 520 381 Q 513 391 484 397 Q 451 401 384 371 L 336 355 Q 245 333 199 325 Q 165 318 190 302 Q 238 281 288 298 Q 310 305 338 311 L 384 323 Z" class="stroke4"/>
    <path d="M 338 311 Q 338 167 306 114 Q 264 68 310 20 L 312 19 Q 325 12 336 28 Q 351 56 490 180 Q 508 193 512 202 Q 516 212 506 212 Q 493 212 388 149 Q 378 142 377 152 Q 384 246 384 323 L 384 371 Q 384 402 388 427 Q 392 440 383 451 Q 367 466 349 475 C 323 490 295 493 307 465 Q 331 414 336 355 L 338 311 Z" class="stroke5"/>
    <path d="M 741 566 Q 802 572 947 573 Q 966 573 971 582 Q 977 592 960 606 Q 902 648 849 629 Q 597 587 528 578 Q 507 575 523 559 Q 536 546 554 541 Q 575 535 590 540 Q 635 552 686 559 L 741 566 Z" class="stroke6"/>
    <path d="M 661 79 Q 630 91 589 104 Q 576 108 577 100 Q 577 93 588 82 Q 664 21 713 -28 Q 725 -38 739 -21 Q 775 27 776 125 Q 761 329 770 504 Q 776 532 769 543 Q 762 553 741 566 C 717 583 672 585 686 559 Q 687 555 693 548 Q 705 523 705 480 Q 709 372 712 124 Q 711 90 700 78 Q 690 71 661 79 Z" class="stroke7"/>
    
    
    
    
    
    
    </g>
</svg>