<svg version="1.1" viewBox="0 0 1024 1024" xmlns="http://www.w3.org/2000/svg">
  
  <g transform="scale(1, -1) translate(0, -900)">
    <style type="text/css">
        .stroke1 {fill: #808080;}
        .stroke2 {fill: #808079;}
        .stroke3 {fill: #808078;}
        .stroke4 {fill: #808077;}
        .stroke5 {fill: #808076;}
        .stroke6 {fill: #808075;}
        .stroke7 {fill: #808074;}
        .stroke8 {fill: #808073;}
        .stroke9 {fill: #808072;}
        .stroke10 {fill: #808071;}
        .stroke11 {fill: #808070;}
        .stroke12 {fill: #808069;}
        .stroke13 {fill: #808068;}
        .stroke14 {fill: #808067;}
        .stroke15 {fill: #808066;}
        .stroke16 {fill: #808065;}
        .stroke17 {fill: #808064;}
        .stroke18 {fill: #808063;}
        .stroke19 {fill: #808062;}
        .stroke20 {fill: #808061;}
        text {
            font-family: Helvetica;
            font-size: 50px;
            fill: #808060;
            paint-order: stroke;
            stroke: #000000;
            stroke-width: 4px;
            stroke-linecap: butt;
            stroke-linejoin: miter;
            font-weight: 800;
        }
    </style>

    <path d="M 292 633 Q 355 741 368 753 Q 377 763 371 777 Q 367 790 338 811 Q 311 829 292 828 Q 274 825 283 804 Q 298 773 286 745 Q 229 592 74 395 Q 64 385 62 378 Q 59 368 73 370 Q 121 376 273 602 Q 274 606 278 610 L 292 633 Z" class="stroke1"/>
    <path d="M 278 610 Q 321 591 373 608 Q 407 617 443 626 Q 459 630 461 633 Q 468 640 464 649 Q 457 659 427 664 Q 399 668 370 654 Q 349 647 292 633 C 263 626 250 621 278 610 Z" class="stroke2"/>
    <path d="M 292 461 Q 355 482 421 504 Q 428 511 424 518 Q 417 528 391 531 Q 364 534 340 521 Q 315 511 287 501 Q 256 491 220 485 Q 189 476 213 464 Q 228 458 248 456 L 292 461 Z" class="stroke3"/>
    <path d="M 323 324 Q 435 360 442 366 Q 449 375 444 382 Q 437 392 409 396 Q 382 397 322 370 L 276 352 Q 272 352 271 351 Q 222 335 165 323 Q 132 314 157 301 Q 187 288 257 304 Q 264 307 278 310 L 323 324 Z" class="stroke4"/>
    <path d="M 278 310 Q 278 178 247 129 Q 205 81 252 39 Q 265 32 275 47 Q 290 75 426 189 Q 444 202 448 210 Q 452 220 442 220 Q 432 220 327 161 Q 317 155 315 165 Q 322 253 323 324 L 322 370 Q 322 395 326 416 Q 330 429 322 440 Q 306 453 292 461 C 267 477 231 481 248 456 Q 270 434 276 352 L 278 310 Z" class="stroke5"/>
    <path d="M 611 726 Q 642 704 673 676 Q 689 663 705 665 Q 715 666 721 680 Q 725 696 713 727 Q 701 760 603 776 Q 587 779 580 775 Q 574 771 577 757 Q 581 747 611 726 Z" class="stroke6"/>
    <path d="M 489 556 Q 450 549 479 531 Q 524 507 584 524 Q 684 548 786 574 Q 832 587 840 593 Q 849 603 844 611 Q 835 624 804 630 Q 773 636 667 596 Q 577 569 489 556 Z" class="stroke7"/>
    <path d="M 565 414 Q 531 432 520 430 Q 502 427 516 408 Q 543 354 516 220 Q 509 190 494 155 Q 473 107 420 60 Q 407 48 403 43 Q 402 37 412 37 Q 443 37 493 85 Q 565 154 582 354 Q 588 382 589 392 C 590 401 590 401 565 414 Z" class="stroke8"/>
    <path d="M 961 33 Q 992 43 980 75 Q 961 120 956 192 Q 955 211 949 216 Q 942 220 937 206 Q 909 106 890 91 Q 845 67 784 99 Q 724 138 726 233 Q 729 369 788 418 Q 815 439 785 451 Q 769 458 736 470 Q 714 479 691 463 Q 642 427 565 414 C 536 408 560 386 589 392 Q 613 396 676 412 Q 689 416 694 410 Q 700 401 687 297 Q 660 47 845 18 Q 858 17 874 16 Q 917 17 961 33 Z" class="stroke9"/>
    
    
    
    
    
    
    
    
    </g>
</svg>