<svg version="1.1" viewBox="0 0 1024 1024" xmlns="http://www.w3.org/2000/svg">
  
  <g transform="scale(1, -1) translate(0, -900)">
    <style type="text/css">
        .stroke1 {fill: #808080;}
        .stroke2 {fill: #808079;}
        .stroke3 {fill: #808078;}
        .stroke4 {fill: #808077;}
        .stroke5 {fill: #808076;}
        .stroke6 {fill: #808075;}
        .stroke7 {fill: #808074;}
        .stroke8 {fill: #808073;}
        .stroke9 {fill: #808072;}
        .stroke10 {fill: #808071;}
        .stroke11 {fill: #808070;}
        .stroke12 {fill: #808069;}
        .stroke13 {fill: #808068;}
        .stroke14 {fill: #808067;}
        .stroke15 {fill: #808066;}
        .stroke16 {fill: #808065;}
        .stroke17 {fill: #808064;}
        .stroke18 {fill: #808063;}
        .stroke19 {fill: #808062;}
        .stroke20 {fill: #808061;}
        text {
            font-family: Helvetica;
            font-size: 50px;
            fill: #808060;
            paint-order: stroke;
            stroke: #000000;
            stroke-width: 4px;
            stroke-linecap: butt;
            stroke-linejoin: miter;
            font-weight: 800;
        }
    </style>

    <path d="M 323 626 Q 387 731 413 754 Q 423 764 418 779 Q 414 792 386 816 Q 359 835 340 835 Q 321 834 328 811 Q 344 774 328 745 Q 253 576 64 363 Q 54 353 51 347 Q 47 335 61 338 Q 124 347 307 601 L 323 626 Z" class="stroke1"/>
    <path d="M 307 601 Q 341 586 411 603 Q 442 612 477 621 Q 495 625 497 629 Q 504 636 500 645 Q 493 655 463 660 Q 438 663 368 636 Q 344 632 323 626 C 294 618 279 612 307 601 Z" class="stroke2"/>
    <path d="M 317 446 Q 317 447 320 448 Q 435 485 438 489 Q 445 498 440 505 Q 433 515 403 519 Q 376 520 299 487 Q 269 477 232 469 Q 198 459 225 446 Q 241 439 271 438 C 298 437 298 437 317 446 Z" class="stroke3"/>
    <path d="M 339 297 Q 468 340 469 341 Q 476 348 472 357 Q 465 367 435 372 Q 416 375 340 346 C 312 335 297 329 294 328 Q 291 329 290 328 Q 238 312 178 301 Q 144 292 170 278 Q 213 259 265 276 Q 278 280 294 284 L 339 297 Z" class="stroke4"/>
    <path d="M 294 284 Q 290 173 266 130 Q 236 85 236 76 Q 236 49 260 28 Q 272 21 284 36 Q 300 61 441 167 Q 459 177 464 186 Q 468 196 459 196 Q 446 196 342 146 Q 329 140 329 153 Q 336 232 339 297 L 340 346 Q 341 350 341 355 Q 341 382 346 404 Q 350 417 341 427 Q 329 439 317 446 C 293 463 259 466 271 438 Q 293 392 294 328 L 294 284 Z" class="stroke5"/>
    <path d="M 820 177 Q 845 441 894 546 Q 904 556 899 569 Q 892 584 831 608 Q 815 615 801 610 Q 692 582 557 560 Q 535 559 545 545 Q 557 533 576 529 Q 598 522 616 531 Q 626 534 638 536 L 675 545 Q 780 575 800 565 Q 816 555 816 517 Q 810 453 800 377 L 797 350 Q 784 268 768 168 C 763 138 817 147 820 177 Z" class="stroke6"/>
    <path d="M 638 536 Q 648 500 634 386 Q 633 377 631 364 L 625 324 Q 615 252 598 143 C 593 113 636 118 641 148 Q 657 247 671 332 L 678 374 Q 693 467 699 492 Q 709 513 675 545 C 654 566 632 565 638 536 Z" class="stroke7"/>
    <path d="M 631 364 Q 606 360 583 357 Q 555 354 524 350 Q 499 346 518 331 Q 551 310 576 315 Q 595 321 625 324 L 671 332 Q 677 332 797 350 C 827 354 826 362 800 377 Q 797 378 794 380 Q 766 401 682 375 Q 679 375 678 374 L 631 364 Z" class="stroke8"/>
    <path d="M 598 143 Q 531 136 456 125 Q 437 124 451 107 Q 464 94 482 88 Q 501 84 518 87 Q 659 126 947 125 Q 966 125 971 134 Q 975 144 960 158 Q 905 201 835 180 Q 828 180 820 177 L 768 168 Q 729 162 686 155 Q 664 154 641 148 L 598 143 Z" class="stroke9"/>
    
    
    
    
    
    
    
    
    </g>
</svg>