<svg version="1.1" viewBox="0 0 1024 1024" xmlns="http://www.w3.org/2000/svg">
  
  <g transform="scale(1, -1) translate(0, -900)">
    <style type="text/css">
        .stroke1 {fill: #808080;}
        .stroke2 {fill: #808079;}
        .stroke3 {fill: #808078;}
        .stroke4 {fill: #808077;}
        .stroke5 {fill: #808076;}
        .stroke6 {fill: #808075;}
        .stroke7 {fill: #808074;}
        .stroke8 {fill: #808073;}
        .stroke9 {fill: #808072;}
        .stroke10 {fill: #808071;}
        .stroke11 {fill: #808070;}
        .stroke12 {fill: #808069;}
        .stroke13 {fill: #808068;}
        .stroke14 {fill: #808067;}
        .stroke15 {fill: #808066;}
        .stroke16 {fill: #808065;}
        .stroke17 {fill: #808064;}
        .stroke18 {fill: #808063;}
        .stroke19 {fill: #808062;}
        .stroke20 {fill: #808061;}
        text {
            font-family: Helvetica;
            font-size: 50px;
            fill: #808060;
            paint-order: stroke;
            stroke: #000000;
            stroke-width: 4px;
            stroke-linecap: butt;
            stroke-linejoin: miter;
            font-weight: 800;
        }
    </style>

    <path d="M 313 644 Q 352 717 382 744 Q 391 754 386 768 Q 382 781 354 804 Q 327 822 309 822 Q 290 821 298 798 Q 313 767 300 739 Q 237 586 75 394 Q 65 384 62 378 Q 59 368 73 370 Q 118 376 287 604 Q 290 610 293 613 L 313 644 Z" class="stroke1"/>
    <path d="M 293 613 Q 330 606 399 621 Q 477 642 481 645 Q 488 652 484 661 Q 477 671 447 677 Q 423 680 349 653 Q 331 649 313 644 C 284 636 263 618 293 613 Z" class="stroke2"/>
    <path d="M 297 452 Q 297 453 406 487 Q 431 496 434 500 Q 441 507 436 514 Q 429 524 403 527 Q 376 528 352 516 Q 325 503 296 492 Q 263 482 224 473 Q 193 464 217 452 Q 233 446 256 445 L 297 452 Z" class="stroke3"/>
    <path d="M 329 315 Q 453 352 456 354 Q 463 361 459 369 Q 452 379 425 385 Q 395 389 329 359 L 282 343 Q 228 328 166 319 Q 133 312 158 297 Q 192 281 259 296 Q 269 299 284 302 L 329 315 Z" class="stroke4"/>
    <path d="M 284 302 Q 284 161 252 109 Q 215 57 257 18 Q 270 11 281 27 Q 296 55 435 177 Q 451 190 456 198 Q 460 208 450 208 Q 437 208 330 142 Q 321 136 320 145 Q 327 239 329 315 L 329 359 Q 329 384 334 404 Q 338 417 330 427 Q 314 443 297 452 C 272 468 243 472 256 445 Q 256 444 259 439 Q 280 396 282 343 L 284 302 Z" class="stroke5"/>
    <path d="M 664 567 Q 724 583 788 597 Q 830 607 836 613 Q 845 623 840 631 Q 831 644 800 651 Q 778 655 671 621 Q 560 594 513 588 Q 474 581 503 563 Q 549 538 608 555 Q 609 556 614 556 L 664 567 Z" class="stroke6"/>
    <path d="M 678 344 Q 724 356 774 365 Q 814 375 819 381 Q 828 388 823 397 Q 816 407 788 415 Q 758 419 730 408 Q 705 399 679 391 L 630 378 Q 578 368 521 360 Q 485 354 511 338 Q 553 314 608 330 Q 615 333 630 334 L 678 344 Z" class="stroke7"/>
    <path d="M 675 150 Q 676 255 678 344 L 679 391 Q 679 487 683 526 Q 689 550 664 567 C 641 586 604 584 614 556 Q 626 537 630 413 Q 629 398 630 378 L 630 334 Q 630 258 630 144 C 630 114 675 120 675 150 Z" class="stroke8"/>
    <path d="M 630 144 Q 545 134 445 123 Q 423 122 439 103 Q 454 88 472 83 Q 494 76 511 81 Q 640 111 893 111 Q 906 111 921 110 Q 942 110 947 119 Q 953 131 936 145 Q 878 190 834 176 Q 773 166 675 150 L 630 144 Z" class="stroke9"/>
    <path d="M 815 291 Q 840 272 868 246 Q 880 236 893 237 Q 902 237 905 248 Q 909 261 901 285 Q 891 313 810 330 Q 797 333 792 331 Q 788 327 789 317 Q 793 308 815 291 Z" class="stroke10"/>
    
    
    
    
    
    
    
    
    
    </g>
</svg>