<svg version="1.1" viewBox="0 0 1024 1024" xmlns="http://www.w3.org/2000/svg">
  
  <g transform="scale(1, -1) translate(0, -900)">
    <style type="text/css">
        .stroke1 {fill: #808080;}
        .stroke2 {fill: #808079;}
        .stroke3 {fill: #808078;}
        .stroke4 {fill: #808077;}
        .stroke5 {fill: #808076;}
        .stroke6 {fill: #808075;}
        .stroke7 {fill: #808074;}
        .stroke8 {fill: #808073;}
        .stroke9 {fill: #808072;}
        .stroke10 {fill: #808071;}
        .stroke11 {fill: #808070;}
        .stroke12 {fill: #808069;}
        .stroke13 {fill: #808068;}
        .stroke14 {fill: #808067;}
        .stroke15 {fill: #808066;}
        .stroke16 {fill: #808065;}
        .stroke17 {fill: #808064;}
        .stroke18 {fill: #808063;}
        .stroke19 {fill: #808062;}
        .stroke20 {fill: #808061;}
        text {
            font-family: Helvetica;
            font-size: 50px;
            fill: #808060;
            paint-order: stroke;
            stroke: #000000;
            stroke-width: 4px;
            stroke-linecap: butt;
            stroke-linejoin: miter;
            font-weight: 800;
        }
    </style>

    <path d="M 314 633 Q 362 717 389 740 Q 398 750 394 764 Q 390 777 362 800 Q 337 819 317 818 Q 298 817 306 795 Q 319 762 307 735 Q 240 582 71 386 Q 61 376 59 370 Q 55 360 69 362 Q 124 369 290 598 Q 293 604 296 607 L 314 633 Z" class="stroke1"/>
    <path d="M 296 607 Q 338 598 403 615 Q 467 633 478 638 Q 485 647 480 654 Q 473 664 445 668 Q 418 669 354 643 Q 333 639 314 633 C 285 624 267 613 296 607 Z" class="stroke2"/>
    <path d="M 295 453 Q 364 477 434 502 Q 441 511 436 518 Q 429 528 401 531 Q 373 532 347 519 Q 322 507 293 497 Q 262 487 224 479 Q 191 469 217 457 Q 232 451 254 449 L 295 453 Z" class="stroke3"/>
    <path d="M 325 312 Q 365 325 410 337 Q 447 349 453 354 Q 460 361 456 369 Q 449 379 421 384 Q 394 388 325 357 C 298 345 296 344 281 341 Q 280 342 278 341 Q 226 325 166 315 Q 133 306 158 293 Q 197 275 263 295 Q 270 298 282 300 L 325 312 Z" class="stroke4"/>
    <path d="M 282 300 Q 282 186 249 138 Q 216 96 258 58 Q 270 51 280 66 Q 293 93 424 203 Q 440 215 444 223 Q 448 232 439 231 Q 427 231 329 175 Q 319 169 318 178 Q 324 251 325 312 L 325 357 Q 325 393 329 410 Q 333 423 324 432 Q 309 445 295 453 C 270 469 241 476 254 449 Q 255 448 257 443 Q 279 400 281 348 Q 281 345 281 341 L 282 300 Z" class="stroke5"/>
    <path d="M 673 321 Q 677 427 679 526 L 680 559 Q 681 667 700 763 Q 703 773 683 789 Q 647 807 622 810 Q 606 814 598 805 Q 591 798 599 782 Q 627 742 628 715 Q 638 529 631 313 C 630 283 672 291 673 321 Z" class="stroke6"/>
    <path d="M 679 526 Q 706 523 765 536 Q 805 548 848 559 Q 870 565 873 569 Q 880 576 876 585 Q 869 595 839 600 Q 818 603 734 572 Q 707 565 680 559 C 651 552 649 528 679 526 Z" class="stroke7"/>
    <path d="M 538 299 Q 526 306 493 313 Q 480 317 477 312 Q 470 306 478 290 Q 509 217 523 99 Q 524 65 544 40 Q 560 18 567 33 Q 574 52 571 84 L 567 120 Q 551 229 547 266 C 544 296 544 296 538 299 Z" class="stroke8"/>
    <path d="M 822 144 Q 846 249 882 280 Q 898 299 884 317 Q 866 330 813 354 Q 794 361 773 353 Q 721 334 673 321 L 631 313 Q 585 306 538 299 C 508 295 517 262 547 266 Q 575 269 752 303 Q 774 307 783 298 Q 795 288 793 267 Q 786 204 774 153 C 767 124 815 115 822 144 Z" class="stroke9"/>
    <path d="M 571 84 Q 581 84 590 85 Q 666 100 834 108 Q 844 109 847 118 Q 847 125 822 144 L 774 153 Q 770 153 766 152 Q 655 130 567 120 C 537 117 541 83 571 84 Z" class="stroke10"/>
    
    
    
    
    
    
    
    
    
    </g>
</svg>