<svg version="1.1" viewBox="0 0 1024 1024" xmlns="http://www.w3.org/2000/svg">
  
  <g transform="scale(1, -1) translate(0, -900)">
    <style type="text/css">
        .stroke1 {fill: #808080;}
        .stroke2 {fill: #808079;}
        .stroke3 {fill: #808078;}
        .stroke4 {fill: #808077;}
        .stroke5 {fill: #808076;}
        .stroke6 {fill: #808075;}
        .stroke7 {fill: #808074;}
        .stroke8 {fill: #808073;}
        .stroke9 {fill: #808072;}
        .stroke10 {fill: #808071;}
        .stroke11 {fill: #808070;}
        .stroke12 {fill: #808069;}
        .stroke13 {fill: #808068;}
        .stroke14 {fill: #808067;}
        .stroke15 {fill: #808066;}
        .stroke16 {fill: #808065;}
        .stroke17 {fill: #808064;}
        .stroke18 {fill: #808063;}
        .stroke19 {fill: #808062;}
        .stroke20 {fill: #808061;}
        text {
            font-family: Helvetica;
            font-size: 50px;
            fill: #808060;
            paint-order: stroke;
            stroke: #000000;
            stroke-width: 4px;
            stroke-linecap: butt;
            stroke-linejoin: miter;
            font-weight: 800;
        }
    </style>

    <path d="M 324 622 Q 369 709 403 741 Q 413 751 408 766 Q 404 779 374 803 Q 346 822 326 822 Q 307 821 315 797 Q 331 761 317 732 Q 275 630 212 537 Q 151 447 67 348 Q 57 338 54 331 Q 50 319 65 322 Q 77 323 103 347 Q 152 390 213 468 Q 256 520 305 592 L 324 622 Z" class="stroke1"/>
    <path d="M 305 592 Q 368 586 463 617 Q 464 618 465 618 Q 472 625 468 634 Q 461 644 433 648 Q 406 651 349 628 Q 346 628 324 622 C 295 614 275 594 305 592 Z" class="stroke2"/>
    <path d="M 339 455 Q 448 491 450 493 Q 457 502 452 509 Q 445 519 415 524 Q 385 525 358 511 Q 333 501 303 490 Q 272 480 233 473 Q 199 463 226 450 Q 244 441 289 441 L 339 455 Z" class="stroke3"/>
    <path d="M 358 305 Q 386 315 420 323 Q 456 333 461 339 Q 470 348 464 356 Q 457 368 426 373 Q 395 377 365 362 Q 361 361 359 359 L 310 340 Q 208 313 175 307 Q 138 298 166 283 Q 208 265 284 285 Q 296 289 311 292 L 358 305 Z" class="stroke4"/>
    <path d="M 311 292 Q 307 174 281 129 Q 233 68 283 27 Q 296 20 307 36 Q 323 66 469 188 Q 488 201 492 210 Q 496 220 486 220 Q 476 220 361 156 Q 351 149 350 160 Q 357 239 358 305 L 359 359 Q 359 389 364 414 Q 368 429 339 455 C 318 476 278 469 289 441 Q 310 396 310 340 L 311 292 Z" class="stroke5"/>
    <path d="M 560 636 Q 547 643 516 650 Q 503 654 499 648 Q 492 642 500 625 Q 534 538 548 399 Q 549 359 572 329 Q 588 305 595 321 Q 599 331 601 345 L 602 371 Q 601 390 598 412 Q 576 560 572 604 C 569 632 569 632 560 636 Z" class="stroke6"/>
    <path d="M 792 369 Q 811 338 829 329 Q 839 320 855 343 Q 874 377 912 562 Q 922 593 945 618 Q 958 631 947 645 Q 932 663 889 689 Q 871 698 780 677 Q 756 677 560 636 C 531 630 543 596 572 604 Q 605 614 647 621 L 692 630 Q 831 660 849 643 Q 865 621 862 601 Q 826 414 808 395 C 794 368 791 371 792 369 Z" class="stroke7"/>
    <path d="M 730 485 Q 764 492 796 497 Q 818 501 809 513 Q 799 526 775 530 Q 757 533 732 526 L 675 509 Q 638 499 606 488 Q 590 484 610 471 Q 616 468 675 475 L 730 485 Z" class="stroke8"/>
    <path d="M 728 361 Q 761 367 792 369 C 822 371 832 377 808 395 Q 792 411 732 399 Q 729 399 729 398 C 701 391 701 391 675 386 Q 636 379 602 371 C 573 364 571 342 601 345 Q 605 345 675 354 L 728 361 Z" class="stroke9"/>
    <path d="M 677 -14 Q 683 -39 690 -49 Q 696 -56 703 -54 Q 718 -45 724 16 Q 733 95 730 173 Q 727 219 728 361 L 729 398 Q 729 438 730 485 L 732 526 Q 732 529 741 582 Q 745 600 730 609 Q 708 624 692 630 C 665 643 634 648 647 621 Q 646 618 662 592 Q 674 570 675 509 L 675 475 Q 675 435 675 386 L 675 354 Q 669 63 677 -14 Z" class="stroke10"/>
    
    
    
    
    
    
    
    
    
    </g>
</svg>