<svg version="1.1" viewBox="0 0 1024 1024" xmlns="http://www.w3.org/2000/svg">
  
  <g transform="scale(1, -1) translate(0, -900)">
    <style type="text/css">
        .stroke1 {fill: #808080;}
        .stroke2 {fill: #808079;}
        .stroke3 {fill: #808078;}
        .stroke4 {fill: #808077;}
        .stroke5 {fill: #808076;}
        .stroke6 {fill: #808075;}
        .stroke7 {fill: #808074;}
        .stroke8 {fill: #808073;}
        .stroke9 {fill: #808072;}
        .stroke10 {fill: #808071;}
        .stroke11 {fill: #808070;}
        .stroke12 {fill: #808069;}
        .stroke13 {fill: #808068;}
        .stroke14 {fill: #808067;}
        .stroke15 {fill: #808066;}
        .stroke16 {fill: #808065;}
        .stroke17 {fill: #808064;}
        .stroke18 {fill: #808063;}
        .stroke19 {fill: #808062;}
        .stroke20 {fill: #808061;}
        text {
            font-family: Helvetica;
            font-size: 50px;
            fill: #808060;
            paint-order: stroke;
            stroke: #000000;
            stroke-width: 4px;
            stroke-linecap: butt;
            stroke-linejoin: miter;
            font-weight: 800;
        }
    </style>

    <path d="M 428 767 Q 446 764 517 774 Q 682 813 687 817 Q 696 824 691 833 Q 684 843 656 850 Q 626 856 597 843 Q 558 830 515 818 Q 469 806 413 800 C 383 797 398 769 428 767 Z" class="stroke1"/>
    <path d="M 424 412 Q 423 475 422 527 L 421 554 Q 421 599 421 645 L 421 669 Q 424 739 428 759 L 428 767 C 430 788 430 788 413 800 Q 389 819 361 830 Q 345 837 335 830 Q 326 823 333 806 Q 358 751 368 694 Q 374 636 379 403 C 380 373 424 382 424 412 Z" class="stroke2"/>
    <path d="M 421 645 Q 463 632 504 641 Q 558 653 614 664 Q 639 671 643 674 Q 652 681 647 689 Q 640 699 614 706 Q 586 710 559 700 Q 531 690 499 682 Q 465 675 424 670 Q 421 670 421 669 C 392 663 392 653 421 645 Z" class="stroke3"/>
    <path d="M 422 527 Q 464 515 500 524 Q 558 536 619 548 Q 647 554 651 558 Q 658 565 655 573 Q 648 583 622 590 Q 594 596 567 585 Q 536 575 502 566 Q 465 559 421 554 C 391 551 393 535 422 527 Z" class="stroke4"/>
    <path d="M 454 379 Q 535 394 827 411 Q 848 412 853 421 Q 859 434 840 448 Q 779 491 714 470 Q 609 448 424 412 L 379 403 Q 264 385 137 364 Q 115 361 131 343 Q 168 313 207 325 Q 244 337 287 347 L 345 360 Q 369 367 399 371 L 454 379 Z" class="stroke5"/>
    <path d="M 287 347 Q 314 307 314 197 Q 314 130 300 88 Q 293 52 257 10 Q 245 -2 253 -23 Q 262 -51 276 -64 Q 289 -74 302 -59 Q 354 5 511 134 Q 527 144 528 154 Q 529 160 524 159 Q 511 158 376 72 Q 366 66 361 70 Q 357 73 357 85 Q 363 301 367 324 Q 371 342 359 351 Q 355 355 345 360 C 320 377 273 374 287 347 Z" class="stroke6"/>
    <path d="M 621 241 Q 715 319 730 325 Q 749 337 738 352 Q 725 368 698 379 Q 674 389 663 386 Q 651 383 656 371 Q 662 344 600 257 C 583 233 598 222 621 241 Z" class="stroke7"/>
    <path d="M 600 257 Q 537 308 454 379 C 431 398 372 383 399 371 Q 442 355 472 318 Q 623 162 744 56 Q 766 35 797 40 Q 909 59 952 72 Q 971 76 977 86 Q 981 95 968 97 Q 782 131 672 205 Q 648 221 621 241 L 600 257 Z" class="stroke8"/>
    
    
    
    
    
    
    
    </g>
</svg>