<svg version="1.1" viewBox="0 0 1024 1024" xmlns="http://www.w3.org/2000/svg">
  
  <g transform="scale(1, -1) translate(0, -900)">
    <style type="text/css">
        .stroke1 {fill: #808080;}
        .stroke2 {fill: #808079;}
        .stroke3 {fill: #808078;}
        .stroke4 {fill: #808077;}
        .stroke5 {fill: #808076;}
        .stroke6 {fill: #808075;}
        .stroke7 {fill: #808074;}
        .stroke8 {fill: #808073;}
        .stroke9 {fill: #808072;}
        .stroke10 {fill: #808071;}
        .stroke11 {fill: #808070;}
        .stroke12 {fill: #808069;}
        .stroke13 {fill: #808068;}
        .stroke14 {fill: #808067;}
        .stroke15 {fill: #808066;}
        .stroke16 {fill: #808065;}
        .stroke17 {fill: #808064;}
        .stroke18 {fill: #808063;}
        .stroke19 {fill: #808062;}
        .stroke20 {fill: #808061;}
        text {
            font-family: Helvetica;
            font-size: 50px;
            fill: #808060;
            paint-order: stroke;
            stroke: #000000;
            stroke-width: 4px;
            stroke-linecap: butt;
            stroke-linejoin: miter;
            font-weight: 800;
        }
    </style>

    <path d="M 251 738 Q 226 759 197 768 Q 187 771 180 761 Q 176 755 184 743 Q 226 644 209 358 Q 208 352 208 345 Q 202 257 173 169 Q 164 141 169 120 Q 179 83 191 69 Q 204 54 214 69 Q 250 111 251 329 Q 251 411 253 494 L 254 526 Q 254 569 256 601 L 258 636 Q 261 687 265 712 Q 264 713 266 713 C 268 725 268 725 251 738 Z" class="stroke1"/>
    <path d="M 359 509 Q 360 508 362 505 Q 384 474 405 500 Q 415 513 426 581 Q 430 677 456 713 Q 468 731 454 745 Q 436 761 406 777 Q 390 783 375 776 Q 317 754 251 738 C 222 731 237 705 266 713 Q 359 741 376 732 Q 385 728 382 700 Q 373 550 365 537 C 358 511 358 511 359 509 Z" class="stroke2"/>
    <path d="M 256 601 Q 302 613 338 620 Q 360 626 350 637 Q 338 650 314 651 Q 292 651 258 636 C 230 624 227 593 256 601 Z" class="stroke3"/>
    <path d="M 253 494 Q 260 493 268 495 Q 298 504 359 509 C 389 512 390 521 365 537 Q 359 541 351 545 Q 335 552 308 543 Q 278 533 254 526 C 225 518 223 496 253 494 Z" class="stroke4"/>
    <path d="M 642 787 Q 620 806 595 815 Q 588 818 583 813 Q 574 809 583 797 Q 607 748 605 620 Q 599 563 633 529 Q 634 529 636 527 Q 652 520 657 550 Q 657 551 657 554 L 658 587 Q 655 620 655 653 L 655 680 Q 656 722 659 755 C 660 772 660 772 642 787 Z" class="stroke5"/>
    <path d="M 817 567 Q 826 113 802 72 Q 796 65 776 70 Q 751 74 724 79 Q 703 85 704 75 Q 762 26 794 -9 Q 809 -28 825 -34 Q 835 -38 843 -27 Q 885 21 883 82 Q 870 308 868 675 Q 867 736 881 764 Q 894 783 881 795 Q 859 814 819 830 Q 800 837 784 831 Q 733 801 642 787 C 612 782 630 749 659 755 Q 666 756 677 759 Q 726 769 772 781 Q 791 785 799 775 Q 814 762 813 714 Q 814 653 816 595 L 817 567 Z" class="stroke6"/>
    <path d="M 655 653 Q 656 653 660 653 Q 718 663 760 668 Q 782 672 773 685 Q 763 698 739 701 Q 697 704 655 680 C 629 665 625 653 655 653 Z" class="stroke7"/>
    <path d="M 657 554 Q 661 554 668 555 Q 714 564 817 567 C 847 568 839 575 816 595 Q 812 599 804 604 Q 789 613 760 606 Q 703 593 658 587 C 628 583 627 552 657 554 Z" class="stroke8"/>
    <path d="M 565 435 Q 565 436 566 436 Q 609 443 643 449 Q 652 448 658 459 Q 659 468 640 476 Q 616 492 546 469 Q 531 466 516 461 Q 491 455 366 431 Q 344 427 362 414 Q 386 398 403 398 L 436 406 Q 476 418 527 427 L 565 435 Z" class="stroke9"/>
    <path d="M 594 311 Q 642 318 703 319 Q 749 319 756 328 Q 760 338 746 348 Q 695 382 638 362 Q 617 358 595 351 L 545 340 Q 535 340 464 325 L 420 317 Q 368 310 313 299 Q 297 296 310 283 Q 334 262 377 272 Q 396 278 419 283 L 462 292 Q 492 299 545 306 L 594 311 Z" class="stroke10"/>
    <path d="M 403 398 Q 419 382 420 317 L 419 283 Q 416 199 357 140 Q 347 130 344 125 Q 343 121 352 120 Q 403 126 440 197 Q 440 198 441 200 Q 456 239 462 292 L 464 325 Q 467 364 470 374 Q 474 390 458 397 Q 446 403 436 406 C 408 416 386 423 403 398 Z" class="stroke11"/>
    <path d="M 545 306 Q 546 254 546 185 Q 547 74 560 58 Q 564 54 570 55 Q 576 58 581 70 Q 594 107 592 189 Q 591 217 594 311 L 595 351 Q 595 352 596 353 Q 596 362 602 397 Q 605 410 593 419 Q 577 429 565 435 C 539 449 515 454 527 427 Q 527 424 530 420 Q 539 405 545 349 Q 544 345 545 340 L 545 306 Z" class="stroke12"/>
    
    
    
    
    
    
    
    
    
    
    
    </g>
</svg>