<svg version="1.1" viewBox="0 0 1024 1024" xmlns="http://www.w3.org/2000/svg">
  
  <g transform="scale(1, -1) translate(0, -900)">
    <style type="text/css">
        .stroke1 {fill: #808080;}
        .stroke2 {fill: #808079;}
        .stroke3 {fill: #808078;}
        .stroke4 {fill: #808077;}
        .stroke5 {fill: #808076;}
        .stroke6 {fill: #808075;}
        .stroke7 {fill: #808074;}
        .stroke8 {fill: #808073;}
        .stroke9 {fill: #808072;}
        .stroke10 {fill: #808071;}
        .stroke11 {fill: #808070;}
        .stroke12 {fill: #808069;}
        .stroke13 {fill: #808068;}
        .stroke14 {fill: #808067;}
        .stroke15 {fill: #808066;}
        .stroke16 {fill: #808065;}
        .stroke17 {fill: #808064;}
        .stroke18 {fill: #808063;}
        .stroke19 {fill: #808062;}
        .stroke20 {fill: #808061;}
        text {
            font-family: Helvetica;
            font-size: 50px;
            fill: #808060;
            paint-order: stroke;
            stroke: #000000;
            stroke-width: 4px;
            stroke-linecap: butt;
            stroke-linejoin: miter;
            font-weight: 800;
        }
    </style>

    <path d="M 209 732 Q 187 748 161 755 Q 151 758 144 748 Q 140 742 149 730 Q 200 616 184 319 Q 183 313 183 306 Q 179 210 150 117 Q 143 89 148 67 Q 158 30 171 17 Q 184 2 194 17 Q 230 62 227 215 Q 224 410 224 470 L 223 501 Q 223 549 224 585 L 225 621 Q 226 675 230 698 Q 230 704 229 709 C 229 720 229 720 209 732 Z" class="stroke1"/>
    <path d="M 315 483 Q 316 482 318 479 Q 340 451 359 476 Q 368 488 375 538 Q 375 670 399 716 Q 409 734 397 747 Q 378 760 349 775 Q 334 779 320 773 Q 268 748 209 732 C 180 724 202 696 229 709 Q 277 733 311 733 Q 317 734 322 731 Q 332 727 332 694 Q 326 522 320 510 C 315 483 315 483 315 483 Z" class="stroke2"/>
    <path d="M 224 585 Q 263 594 294 600 Q 316 606 306 617 Q 294 630 270 631 Q 251 631 225 621 C 197 610 195 578 224 585 Z" class="stroke3"/>
    <path d="M 224 470 Q 228 470 233 471 Q 260 478 315 483 C 345 486 343 490 320 510 Q 316 514 309 517 Q 297 523 223 501 C 194 492 194 468 224 470 Z" class="stroke4"/>
    <path d="M 595 795 Q 576 811 554 819 Q 548 822 543 818 Q 536 814 543 802 Q 568 745 563 625 Q 560 562 591 539 L 592 538 Q 607 532 611 560 L 611 562 L 612 594 Q 609 624 609 664 L 609 693 Q 610 732 613 763 C 614 780 614 780 595 795 Z" class="stroke5"/>
    <path d="M 778 575 Q 790 77 766 36 Q 762 30 743 34 Q 721 40 697 45 Q 675 54 676 43 Q 727 -12 753 -50 Q 768 -72 784 -77 Q 794 -81 804 -71 Q 850 -14 849 41 Q 834 284 830 678 Q 829 742 843 770 Q 856 792 843 803 Q 818 824 778 840 Q 754 849 710 824 Q 668 806 595 795 C 565 790 584 757 613 763 Q 620 763 729 789 Q 748 793 757 782 Q 773 767 773 716 Q 774 658 777 602 L 778 575 Z" class="stroke6"/>
    <path d="M 609 664 Q 610 664 707 675 Q 731 679 721 692 Q 711 707 685 710 Q 633 716 609 693 C 587 673 579 661 609 664 Z" class="stroke7"/>
    <path d="M 611 562 Q 617 562 624 563 Q 672 572 778 575 C 807 576 800 582 777 602 Q 773 606 764 612 Q 749 621 720 614 Q 662 601 612 594 C 582 590 581 561 611 562 Z" class="stroke8"/>
    <path d="M 381 350 Q 432 416 471 477 L 482 495 Q 486 504 491 507 Q 497 511 495 521 Q 494 530 482 539 Q 451 563 424 556 Q 417 555 420 543 Q 432 489 354 376 Q 353 375 351 372 Q 329 341 268 278 Q 261 274 271 272 Q 302 281 370 339 L 381 350 Z" class="stroke9"/>
    <path d="M 471 477 Q 523 416 582 358 Q 600 340 631 340 Q 686 339 743 351 Q 758 352 759 357 Q 760 361 748 367 Q 601 412 546 450 Q 528 462 513 473 Q 494 488 482 495 C 457 511 451 500 471 477 Z" class="stroke10"/>
    <path d="M 370 339 Q 374 329 409 322 Q 460 322 538 348 Q 539 349 540 349 Q 547 356 543 363 Q 536 372 513 376 Q 488 380 465 369 Q 449 363 429 358 Q 410 354 385 351 Q 382 351 381 350 C 364 346 364 346 370 339 Z" class="stroke11"/>
    <path d="M 370 264 Q 360 268 334 271 Q 324 274 320 269 Q 316 263 324 249 Q 346 209 364 142 Q 368 123 381 110 Q 397 91 402 105 Q 403 112 404 122 L 400 155 Q 388 215 385 236 C 381 260 381 260 370 264 Z" class="stroke12"/>
    <path d="M 570 170 Q 592 218 620 234 Q 636 250 624 266 Q 609 279 564 303 Q 548 310 529 304 Q 478 286 370 264 C 341 258 356 228 385 236 Q 389 239 517 261 Q 533 264 539 257 Q 545 248 524 179 C 515 150 557 143 570 170 Z" class="stroke13"/>
    <path d="M 404 122 Q 411 122 419 123 Q 470 133 579 138 Q 589 139 591 148 Q 591 155 570 170 L 524 179 Q 520 180 515 178 Q 451 163 400 155 C 370 150 374 121 404 122 Z" class="stroke14"/>
    
    
    
    
    
    
    
    
    
    
    
    
    
    </g>
</svg>