<svg version="1.1" viewBox="0 0 1024 1024" xmlns="http://www.w3.org/2000/svg">
  
  <g transform="scale(1, -1) translate(0, -900)">
    <style type="text/css">
        .stroke1 {fill: #808080;}
        .stroke2 {fill: #808079;}
        .stroke3 {fill: #808078;}
        .stroke4 {fill: #808077;}
        .stroke5 {fill: #808076;}
        .stroke6 {fill: #808075;}
        .stroke7 {fill: #808074;}
        .stroke8 {fill: #808073;}
        .stroke9 {fill: #808072;}
        .stroke10 {fill: #808071;}
        .stroke11 {fill: #808070;}
        .stroke12 {fill: #808069;}
        .stroke13 {fill: #808068;}
        .stroke14 {fill: #808067;}
        .stroke15 {fill: #808066;}
        .stroke16 {fill: #808065;}
        .stroke17 {fill: #808064;}
        .stroke18 {fill: #808063;}
        .stroke19 {fill: #808062;}
        .stroke20 {fill: #808061;}
        text {
            font-family: Helvetica;
            font-size: 50px;
            fill: #808060;
            paint-order: stroke;
            stroke: #000000;
            stroke-width: 4px;
            stroke-linecap: butt;
            stroke-linejoin: miter;
            font-weight: 800;
        }
    </style>

    <path d="M 266 725 Q 241 750 205 760 Q 195 761 188 753 Q 184 746 193 735 Q 250 590 212 283 Q 203 232 188 181 Q 179 153 184 132 Q 194 95 207 81 Q 220 66 230 81 Q 263 124 264 323 Q 264 413 265 505 L 265 534 Q 265 570 266 598 L 267 626 Q 268 678 273 700 Q 272 701 274 701 C 277 716 277 716 266 725 Z" class="stroke1"/>
    <path d="M 375 519 L 376 518 Q 395 490 414 515 Q 426 531 431 593 Q 431 668 454 706 Q 464 722 452 735 Q 434 748 407 762 Q 392 766 379 761 Q 327 739 266 725 C 237 718 245 692 274 701 Q 364 728 380 721 Q 387 717 387 692 Q 386 623 382 565 Q 381 549 372 543 C 364 532 364 532 375 519 Z" class="stroke2"/>
    <path d="M 266 598 Q 315 607 353 612 Q 372 616 365 626 Q 356 638 335 641 Q 302 644 267 626 C 240 613 236 593 266 598 Z" class="stroke3"/>
    <path d="M 265 505 Q 269 505 274 506 Q 305 513 375 519 C 397 521 395 523 372 543 Q 369 546 364 549 Q 351 556 326 549 Q 293 540 265 534 C 236 528 235 503 265 505 Z" class="stroke4"/>
    <path d="M 622 781 Q 604 796 585 803 Q 579 806 574 802 Q 567 798 574 788 Q 595 745 593 634 Q 590 571 620 554 Q 633 548 637 574 Q 637 575 637 578 L 638 601 Q 638 632 636 665 L 636 686 Q 636 723 639 752 C 640 767 640 767 622 781 Z" class="stroke5"/>
    <path d="M 794 593 Q 807 104 781 62 Q 778 59 700 67 Q 678 73 681 63 Q 742 15 775 -19 Q 790 -38 806 -43 Q 816 -47 825 -36 Q 864 19 863 74 Q 848 302 845 671 Q 842 732 857 760 Q 870 781 856 791 Q 834 810 795 826 Q 771 835 724 807 Q 681 792 622 781 C 593 775 610 747 639 752 Q 651 752 749 777 Q 767 781 775 771 Q 790 758 790 709 Q 791 663 793 616 L 794 593 Z" class="stroke6"/>
    <path d="M 636 665 Q 639 665 643 665 Q 701 675 746 681 Q 764 685 757 694 Q 748 706 729 708 Q 704 711 636 686 C 608 676 606 665 636 665 Z" class="stroke7"/>
    <path d="M 637 578 Q 641 578 646 578 Q 730 588 791 593 Q 792 594 794 593 C 824 594 820 603 793 616 Q 786 620 775 623 Q 751 629 638 601 C 609 594 607 578 637 578 Z" class="stroke8"/>
    <path d="M 388 440 Q 427 401 434 400 Q 441 400 446 409 Q 450 419 445 439 Q 441 457 387 473 Q 377 476 372 474 Q 368 473 369 463 Q 370 456 388 440 Z" class="stroke9"/>
    <path d="M 546 509 Q 531 478 498 426 Q 494 420 499 415 Q 505 415 510 419 Q 573 477 604 501 Q 617 505 612 514 Q 606 524 590 537 Q 574 549 557 548 Q 547 547 548 532 Q 552 522 546 509 Z" class="stroke10"/>
    <path d="M 390 378 Q 380 382 365 383 Q 356 384 354 380 Q 350 376 357 364 Q 376 330 393 272 Q 396 254 410 241 C 436 215 432 238 422 281 Q 409 338 407 356 C 405 373 405 373 390 378 Z" class="stroke11"/>
    <path d="M 572 298 Q 591 350 615 365 Q 628 378 617 391 Q 560 434 514 409 Q 460 391 390 378 C 361 372 377 351 407 356 Q 416 357 426 360 Q 541 384 547 380 Q 553 371 535 303 C 527 274 561 270 572 298 Z" class="stroke12"/>
    <path d="M 530 269 Q 529 270 533 270 Q 584 276 590 283 Q 591 290 575 297 Q 574 298 572 298 L 535 303 Q 513 299 492 293 Q 488 293 422 281 C 392 276 405 243 434 252 Q 440 255 498 263 C 517 266 517 266 530 269 Z" class="stroke13"/>
    <path d="M 410 241 Q 386 180 296 109 Q 292 106 290 102 Q 289 99 293 98 Q 344 98 430 183 Q 443 196 450 202 Q 456 208 453 219 Q 444 241 434 252 C 421 268 421 268 410 241 Z" class="stroke14"/>
    <path d="M 498 263 Q 508 235 507 209 Q 504 119 546 97 Q 553 94 567 88 Q 663 61 730 113 Q 745 126 734 146 Q 724 165 707 221 Q 706 234 701 238 Q 697 239 693 226 Q 674 163 660 144 Q 654 137 636 132 Q 591 122 560 136 Q 547 142 543 151 Q 534 173 545 243 Q 548 256 530 269 C 508 289 489 292 498 263 Z" class="stroke15"/>
    
    
    
    
    
    
    
    
    
    
    
    
    
    
    </g>
</svg>