<svg version="1.1" viewBox="0 0 1024 1024" xmlns="http://www.w3.org/2000/svg">
  
  <g transform="scale(1, -1) translate(0, -900)">
    <style type="text/css">
        .stroke1 {fill: #808080;}
        .stroke2 {fill: #808079;}
        .stroke3 {fill: #808078;}
        .stroke4 {fill: #808077;}
        .stroke5 {fill: #808076;}
        .stroke6 {fill: #808075;}
        .stroke7 {fill: #808074;}
        .stroke8 {fill: #808073;}
        .stroke9 {fill: #808072;}
        .stroke10 {fill: #808071;}
        .stroke11 {fill: #808070;}
        .stroke12 {fill: #808069;}
        .stroke13 {fill: #808068;}
        .stroke14 {fill: #808067;}
        .stroke15 {fill: #808066;}
        .stroke16 {fill: #808065;}
        .stroke17 {fill: #808064;}
        .stroke18 {fill: #808063;}
        .stroke19 {fill: #808062;}
        .stroke20 {fill: #808061;}
        text {
            font-family: Helvetica;
            font-size: 50px;
            fill: #808060;
            paint-order: stroke;
            stroke: #000000;
            stroke-width: 4px;
            stroke-linecap: butt;
            stroke-linejoin: miter;
            font-weight: 800;
        }
    </style>

    <path d="M 236 718 Q 211 743 177 752 Q 167 755 160 746 Q 156 739 164 728 Q 212 614 185 323 Q 184 317 184 310 Q 177 216 146 126 Q 137 98 142 76 Q 151 39 163 25 Q 176 10 186 25 Q 220 61 225 219 Q 228 444 230 474 L 231 504 Q 232 544 234 575 L 235 605 Q 238 666 243 691 C 246 710 246 710 236 718 Z" class="stroke1"/>
    <path d="M 330 487 Q 331 484 335 480 Q 356 450 376 475 Q 386 490 394 539 Q 403 660 425 694 Q 437 712 424 725 Q 408 740 378 755 Q 363 761 349 754 Q 297 732 236 718 C 207 711 215 681 243 691 Q 244 692 248 693 Q 281 703 304 710 Q 337 720 350 713 Q 359 709 357 679 Q 342 517 339 512 C 334 482 326 492 330 487 Z" class="stroke2"/>
    <path d="M 234 575 Q 282 585 318 593 Q 339 599 330 609 Q 320 621 296 623 Q 253 623 235 605 C 213 585 205 569 234 575 Z" class="stroke3"/>
    <path d="M 230 474 Q 236 473 245 475 Q 272 482 330 487 C 360 490 364 495 339 512 Q 317 530 240 507 Q 236 506 231 504 C 203 493 200 476 230 474 Z" class="stroke4"/>
    <path d="M 593 775 Q 583 781 561 787 Q 549 791 545 787 Q 538 781 545 764 Q 569 692 574 580 Q 573 546 589 521 Q 605 497 611 512 Q 615 521 617 532 L 620 562 Q 620 565 615 633 L 614 657 Q 611 720 611 742 C 611 766 611 766 593 775 Z" class="stroke5"/>
    <path d="M 777 553 Q 789 97 765 56 Q 759 49 738 54 Q 713 58 689 62 Q 667 69 668 59 Q 725 7 755 -30 Q 771 -51 787 -56 Q 797 -60 807 -49 Q 850 5 849 65 Q 834 288 830 649 Q 829 715 844 743 Q 857 765 844 776 Q 820 797 780 814 Q 759 821 743 815 Q 685 784 593 775 C 563 771 581 737 611 742 Q 620 742 729 763 Q 748 766 757 754 Q 772 741 772 693 Q 773 635 776 579 L 777 553 Z" class="stroke6"/>
    <path d="M 615 633 Q 616 633 620 633 Q 681 643 725 650 Q 744 654 737 665 Q 727 678 705 681 Q 663 684 614 657 C 588 643 585 633 615 633 Z" class="stroke7"/>
    <path d="M 617 532 Q 624 532 633 533 Q 678 545 777 553 C 804 555 799 560 776 579 Q 772 583 766 586 Q 751 593 725 587 Q 667 571 620 562 C 591 556 587 531 617 532 Z" class="stroke8"/>
    <path d="M 408 434 Q 401 438 377 438 Q 368 439 366 435 Q 362 431 370 419 Q 389 391 408 339 Q 412 324 423 315 Q 438 302 440 313 Q 441 317 441 325 L 436 351 Q 426 393 422 409 C 417 431 417 431 408 434 Z" class="stroke9"/>
    <path d="M 564 364 Q 579 397 593 405 Q 612 424 595 438 Q 544 471 542 471 Q 533 471 527 467 Q 490 448 408 434 C 378 429 395 396 422 409 Q 426 415 502 424 Q 526 428 530 418 Q 534 415 529 398 Q 525 385 521 370 C 513 341 551 337 564 364 Z" class="stroke10"/>
    <path d="M 441 325 Q 445 324 454 326 Q 491 333 570 340 Q 579 341 580 348 Q 580 352 564 364 C 552 373 551 373 521 370 Q 520 371 518 370 Q 473 358 436 351 C 407 345 411 327 441 325 Z" class="stroke11"/>
    <path d="M 333 252 Q 326 256 301 259 Q 292 260 290 257 Q 286 253 292 241 Q 311 207 326 149 Q 329 131 340 120 Q 353 104 357 116 Q 358 122 358 130 L 355 156 Q 345 211 343 230 C 341 249 341 249 333 252 Z" class="stroke12"/>
    <path d="M 453 169 Q 468 215 483 228 Q 501 246 484 257 Q 471 266 451 279 Q 439 286 398 268 Q 367 259 333 252 C 304 246 314 222 343 230 Q 346 231 350 232 Q 380 236 406 241 Q 422 244 427 237 Q 428 236 417 174 C 412 144 443 141 453 169 Z" class="stroke13"/>
    <path d="M 358 130 Q 365 129 374 131 Q 402 138 463 143 Q 472 144 472 152 Q 472 158 453 169 L 417 174 Q 413 174 410 172 Q 379 162 355 156 C 326 149 328 132 358 130 Z" class="stroke14"/>
    <path d="M 536 281 Q 526 285 508 287 Q 499 290 496 285 Q 492 281 498 268 Q 517 237 530 183 Q 533 167 543 157 Q 558 141 561 152 Q 562 159 563 168 L 560 196 Q 553 242 552 258 C 551 276 551 276 536 281 Z" class="stroke15"/>
    <path d="M 674 204 Q 687 243 702 254 Q 721 275 702 287 Q 686 297 664 312 Q 648 321 632 312 Q 614 300 590 293 Q 568 287 536 281 C 507 275 523 251 552 258 Q 556 259 564 261 Q 592 265 617 270 Q 633 273 637 266 Q 641 263 638 243 Q 635 230 631 213 C 624 184 664 176 674 204 Z" class="stroke16"/>
    <path d="M 563 168 Q 572 167 581 169 Q 612 175 681 178 Q 691 179 692 186 Q 692 192 674 204 L 631 213 Q 627 213 625 212 Q 589 203 560 196 C 531 189 533 170 563 168 Z" class="stroke17"/>
    
    
    
    
    
    
    
    
    
    
    
    
    
    
    
    
    </g>
</svg>