<svg version="1.1" viewBox="0 0 1024 1024" xmlns="http://www.w3.org/2000/svg">
  
  <g transform="scale(1, -1) translate(0, -900)">
    <style type="text/css">
        .stroke1 {fill: #808080;}
        .stroke2 {fill: #808079;}
        .stroke3 {fill: #808078;}
        .stroke4 {fill: #808077;}
        .stroke5 {fill: #808076;}
        .stroke6 {fill: #808075;}
        .stroke7 {fill: #808074;}
        .stroke8 {fill: #808073;}
        .stroke9 {fill: #808072;}
        .stroke10 {fill: #808071;}
        .stroke11 {fill: #808070;}
        .stroke12 {fill: #808069;}
        .stroke13 {fill: #808068;}
        .stroke14 {fill: #808067;}
        .stroke15 {fill: #808066;}
        .stroke16 {fill: #808065;}
        .stroke17 {fill: #808064;}
        .stroke18 {fill: #808063;}
        .stroke19 {fill: #808062;}
        .stroke20 {fill: #808061;}
        text {
            font-family: Helvetica;
            font-size: 50px;
            fill: #808060;
            paint-order: stroke;
            stroke: #000000;
            stroke-width: 4px;
            stroke-linecap: butt;
            stroke-linejoin: miter;
            font-weight: 800;
        }
    </style>

    <path d="M 299 746 Q 359 655 388 651 Q 404 647 415 669 Q 419 685 409 711 Q 399 733 371 747 Q 328 774 308 779 Q 296 783 294 768 Q 291 758 299 746 Z" class="stroke1"/>
    <path d="M 180 682 Q 205 622 204 550 Q 205 277 161 146 Q 139 83 178 38 Q 191 22 203 38 Q 242 80 244 243 Q 250 564 267 644 Q 270 665 251 676 Q 226 698 194 708 Q 184 711 176 701 Q 172 694 180 682 Z" class="stroke2"/>
    <path d="M 519 749 Q 500 750 505 738 Q 512 725 537 712 Q 553 702 618 719 Q 732 755 754 717 Q 761 698 765 648 Q 783 405 769 128 Q 768 88 753 76 Q 738 66 666 85 Q 650 89 650 79 Q 651 72 664 64 Q 728 16 762 -21 Q 784 -42 797 -39 Q 810 -36 822 -6 Q 838 40 837 110 Q 819 498 822 642 Q 822 685 835 709 Q 848 733 836 745 Q 826 761 775 787 Q 754 797 689 779 Q 598 758 519 749 Z" class="stroke3"/>
    
    
    </g>
</svg>