<svg version="1.1" viewBox="0 0 1024 1024" xmlns="http://www.w3.org/2000/svg">
  
  <g transform="scale(1, -1) translate(0, -900)">
    <style type="text/css">
        .stroke1 {fill: #808080;}
        .stroke2 {fill: #808079;}
        .stroke3 {fill: #808078;}
        .stroke4 {fill: #808077;}
        .stroke5 {fill: #808076;}
        .stroke6 {fill: #808075;}
        .stroke7 {fill: #808074;}
        .stroke8 {fill: #808073;}
        .stroke9 {fill: #808072;}
        .stroke10 {fill: #808071;}
        .stroke11 {fill: #808070;}
        .stroke12 {fill: #808069;}
        .stroke13 {fill: #808068;}
        .stroke14 {fill: #808067;}
        .stroke15 {fill: #808066;}
        .stroke16 {fill: #808065;}
        .stroke17 {fill: #808064;}
        .stroke18 {fill: #808063;}
        .stroke19 {fill: #808062;}
        .stroke20 {fill: #808061;}
        text {
            font-family: Helvetica;
            font-size: 50px;
            fill: #808060;
            paint-order: stroke;
            stroke: #000000;
            stroke-width: 4px;
            stroke-linecap: butt;
            stroke-linejoin: miter;
            font-weight: 800;
        }
    </style>

    <path d="M 302 757 Q 368 661 394 659 Q 409 655 419 676 Q 422 691 414 715 Q 404 737 375 753 Q 330 781 311 787 Q 301 790 298 777 Q 295 767 302 757 Z" class="stroke1"/>
    <path d="M 176 680 Q 231 533 186 219 Q 156 96 157 86 Q 157 55 179 29 Q 192 14 202 29 Q 239 68 240 234 Q 240 561 257 645 Q 258 664 242 675 Q 217 696 189 704 Q 179 707 172 698 Q 168 691 176 680 Z" class="stroke2"/>
    <path d="M 503 754 Q 487 755 491 744 Q 498 731 520 721 Q 532 712 567 719 Q 739 764 758 738 Q 774 729 780 655 Q 798 406 784 123 Q 783 81 767 70 Q 746 60 657 93 Q 641 97 642 87 Q 643 80 655 73 Q 734 19 774 -23 Q 795 -42 808 -40 Q 821 -37 832 -9 Q 848 36 847 101 Q 829 506 832 655 Q 833 695 845 718 Q 858 739 847 751 Q 837 767 790 791 Q 771 801 751 796 Q 720 786 651 772 Q 579 760 503 754 Z" class="stroke3"/>
    <path d="M 390 508 Q 354 502 379 486 Q 412 465 490 476 Q 544 485 600 495 Q 630 501 634 505 Q 643 512 639 520 Q 632 532 604 540 Q 576 546 546 535 Q 512 525 476 518 Q 436 511 390 508 Z" class="stroke4"/>
    <path d="M 378 389 Q 344 385 368 369 Q 401 344 456 354 Q 525 363 596 373 Q 627 377 633 382 Q 642 389 638 397 Q 632 409 606 416 Q 581 422 506 403 Q 439 391 378 389 Z" class="stroke5"/>
    <path d="M 300 252 Q 281 251 294 235 Q 307 222 324 216 Q 343 212 359 215 Q 455 240 689 240 Q 698 240 707 239 Q 726 239 730 247 Q 736 257 720 271 Q 669 310 613 296 Q 496 277 300 252 Z" class="stroke6"/>
    
    
    
    
    
    </g>
</svg>