<svg version="1.1" viewBox="0 0 1024 1024" xmlns="http://www.w3.org/2000/svg">
  
  <g transform="scale(1, -1) translate(0, -900)">
    <style type="text/css">
        .stroke1 {fill: #808080;}
        .stroke2 {fill: #808079;}
        .stroke3 {fill: #808078;}
        .stroke4 {fill: #808077;}
        .stroke5 {fill: #808076;}
        .stroke6 {fill: #808075;}
        .stroke7 {fill: #808074;}
        .stroke8 {fill: #808073;}
        .stroke9 {fill: #808072;}
        .stroke10 {fill: #808071;}
        .stroke11 {fill: #808070;}
        .stroke12 {fill: #808069;}
        .stroke13 {fill: #808068;}
        .stroke14 {fill: #808067;}
        .stroke15 {fill: #808066;}
        .stroke16 {fill: #808065;}
        .stroke17 {fill: #808064;}
        .stroke18 {fill: #808063;}
        .stroke19 {fill: #808062;}
        .stroke20 {fill: #808061;}
        text {
            font-family: Helvetica;
            font-size: 50px;
            fill: #808060;
            paint-order: stroke;
            stroke: #000000;
            stroke-width: 4px;
            stroke-linecap: butt;
            stroke-linejoin: miter;
            font-weight: 800;
        }
    </style>

    <path d="M 300 752 Q 361 668 393 665 Q 409 664 418 685 Q 419 701 410 725 Q 398 746 370 757 Q 327 779 307 784 Q 297 787 294 773 Q 293 763 300 752 Z" class="stroke1"/>
    <path d="M 174 687 Q 201 620 200 552 Q 206 282 160 142 Q 141 78 179 38 Q 191 22 202 37 Q 239 82 241 243 Q 241 552 258 651 Q 261 670 243 682 Q 218 703 188 712 Q 178 715 170 705 Q 166 698 174 687 Z" class="stroke2"/>
    <path d="M 503 755 Q 485 756 490 745 Q 497 732 521 720 Q 536 711 570 718 Q 735 763 754 737 Q 770 728 776 653 Q 792 401 778 115 Q 777 73 761 62 Q 745 49 659 67 Q 640 70 642 59 Q 643 52 658 45 Q 734 -3 775 -41 Q 799 -62 812 -59 Q 825 -55 838 -24 Q 854 25 851 98 Q 832 498 835 646 Q 836 688 849 713 Q 862 735 852 749 Q 840 765 790 792 Q 769 802 749 798 Q 718 788 650 774 Q 580 761 503 755 Z" class="stroke3"/>
    <path d="M 308 393 Q 289 390 302 375 Q 315 362 332 357 Q 351 353 367 356 Q 469 383 700 383 Q 719 383 723 391 Q 727 401 713 415 Q 661 454 598 436 Q 418 408 308 393 Z" class="stroke4"/>
    
    
    
    </g>
</svg>