<svg version="1.1" viewBox="0 0 1024 1024" xmlns="http://www.w3.org/2000/svg">
  
  <g transform="scale(1, -1) translate(0, -900)">
    <style type="text/css">
        .stroke1 {fill: #808080;}
        .stroke2 {fill: #808079;}
        .stroke3 {fill: #808078;}
        .stroke4 {fill: #808077;}
        .stroke5 {fill: #808076;}
        .stroke6 {fill: #808075;}
        .stroke7 {fill: #808074;}
        .stroke8 {fill: #808073;}
        .stroke9 {fill: #808072;}
        .stroke10 {fill: #808071;}
        .stroke11 {fill: #808070;}
        .stroke12 {fill: #808069;}
        .stroke13 {fill: #808068;}
        .stroke14 {fill: #808067;}
        .stroke15 {fill: #808066;}
        .stroke16 {fill: #808065;}
        .stroke17 {fill: #808064;}
        .stroke18 {fill: #808063;}
        .stroke19 {fill: #808062;}
        .stroke20 {fill: #808061;}
        text {
            font-family: Helvetica;
            font-size: 50px;
            fill: #808060;
            paint-order: stroke;
            stroke: #000000;
            stroke-width: 4px;
            stroke-linecap: butt;
            stroke-linejoin: miter;
            font-weight: 800;
        }
    </style>

    <path d="M 316 753 Q 379 672 406 669 Q 422 668 430 688 Q 431 703 422 727 Q 410 746 383 758 Q 341 780 323 784 Q 313 785 310 773 Q 309 763 316 753 Z" class="stroke1"/>
    <path d="M 190 655 Q 245 514 194 218 Q 167 110 167 107 Q 167 68 191 42 Q 203 26 215 41 Q 252 86 253 237 Q 259 546 273 618 Q 276 639 258 649 Q 233 671 204 680 Q 194 683 186 674 Q 182 667 190 655 Z" class="stroke2"/>
    <path d="M 499 734 Q 483 735 487 724 Q 494 711 516 701 Q 528 692 564 700 Q 730 742 752 725 Q 792 725 787 229 Q 784 177 783 120 Q 782 78 767 67 Q 745 52 637 79 Q 621 80 622 71 Q 623 64 637 59 Q 731 13 783 -27 Q 805 -46 817 -42 Q 830 -39 840 -10 Q 853 36 850 102 Q 819 654 841 702 Q 854 724 843 736 Q 833 751 785 775 Q 764 784 696 765 Q 582 744 499 734 Z" class="stroke3"/>
    <path d="M 531 448 Q 588 458 686 468 Q 696 467 705 479 Q 706 489 684 500 Q 657 521 571 497 Q 552 493 533 488 L 486 478 Q 446 474 410 468 Q 371 464 328 459 Q 301 456 322 439 Q 332 430 347 422 Q 359 415 380 421 Q 417 428 464 436 L 531 448 Z" class="stroke4"/>
    <path d="M 484 370 Q 484 232 470 180 Q 463 150 482 98 Q 486 85 493 81 Q 499 75 504 82 Q 525 95 527 148 Q 526 179 531 448 L 533 488 Q 534 527 544 555 Q 551 567 549 578 Q 545 585 499 614 Q 480 627 463 615 Q 459 611 464 598 Q 483 570 484 540 Q 485 512 486 478 L 484 370 Z" class="stroke5"/>
    <path d="M 464 436 Q 422 327 293 198 Q 283 185 292 185 Q 311 179 370 227 Q 425 272 482 366 Q 483 369 484 370 C 532 455 475 464 464 436 Z" class="stroke6"/>
    <path d="M 558 330 Q 603 297 658 248 Q 674 232 687 229 Q 694 229 701 238 Q 710 251 695 288 Q 677 333 556 357 Q 547 361 547 350 Q 548 338 558 330 Z" class="stroke7"/>
    
    
    
    
    
    
    </g>
</svg>