<svg version="1.1" viewBox="0 0 1024 1024" xmlns="http://www.w3.org/2000/svg">
  
  <g transform="scale(1, -1) translate(0, -900)">
    <style type="text/css">
        .stroke1 {fill: #808080;}
        .stroke2 {fill: #808079;}
        .stroke3 {fill: #808078;}
        .stroke4 {fill: #808077;}
        .stroke5 {fill: #808076;}
        .stroke6 {fill: #808075;}
        .stroke7 {fill: #808074;}
        .stroke8 {fill: #808073;}
        .stroke9 {fill: #808072;}
        .stroke10 {fill: #808071;}
        .stroke11 {fill: #808070;}
        .stroke12 {fill: #808069;}
        .stroke13 {fill: #808068;}
        .stroke14 {fill: #808067;}
        .stroke15 {fill: #808066;}
        .stroke16 {fill: #808065;}
        .stroke17 {fill: #808064;}
        .stroke18 {fill: #808063;}
        .stroke19 {fill: #808062;}
        .stroke20 {fill: #808061;}
        text {
            font-family: Helvetica;
            font-size: 50px;
            fill: #808060;
            paint-order: stroke;
            stroke: #000000;
            stroke-width: 4px;
            stroke-linecap: butt;
            stroke-linejoin: miter;
            font-weight: 800;
        }
    </style>

    <path d="M 284 754 Q 347 673 375 669 Q 390 668 397 687 Q 400 702 390 725 Q 380 744 351 757 Q 308 779 290 784 Q 280 785 278 773 Q 277 764 284 754 Z" class="stroke1"/>
    <path d="M 182 683 Q 209 620 207 551 Q 214 283 168 150 Q 149 86 187 46 Q 199 30 210 46 Q 247 82 248 248 Q 248 546 266 646 Q 269 667 251 678 Q 226 699 196 708 Q 186 711 178 701 Q 174 694 182 683 Z" class="stroke2"/>
    <path d="M 482 747 Q 466 748 470 737 Q 477 724 501 713 Q 513 704 561 715 Q 729 761 750 732 Q 780 686 774 282 Q 773 212 769 137 Q 769 95 753 85 Q 734 75 646 105 Q 630 109 630 99 Q 631 92 644 84 Q 720 29 761 -13 Q 783 -34 796 -31 Q 809 -28 821 2 Q 837 48 837 118 Q 819 506 822 650 Q 822 692 834 716 Q 847 738 836 751 Q 826 767 776 792 Q 754 804 691 783 Q 493 750 482 747 Z" class="stroke3"/>
    <path d="M 414 526 Q 393 547 364 544 Q 352 540 358 530 Q 397 451 365 317 Q 347 256 374 227 Q 380 215 388 221 Q 398 228 406 254 Q 407 258 408 261 L 413 288 Q 416 307 416 380 L 416 404 Q 416 477 419 499 C 421 520 421 520 414 526 Z" class="stroke4"/>
    <path d="M 552 275 Q 579 241 599 207 Q 606 191 617 192 Q 632 193 646 222 Q 656 244 657 315 Q 639 489 662 515 Q 669 525 662 535 Q 646 551 601 573 Q 585 580 572 573 Q 550 564 414 526 C 385 518 389 494 419 499 Q 432 500 454 506 Q 577 536 587 527 Q 611 496 595 301 Q 594 297 591 294 C 583 265 534 299 552 275 Z" class="stroke5"/>
    <path d="M 416 380 Q 422 379 430 380 Q 493 390 540 397 Q 562 401 553 413 Q 543 426 519 430 Q 489 433 416 404 C 388 393 386 383 416 380 Z" class="stroke6"/>
    <path d="M 408 261 Q 412 261 421 261 Q 494 270 552 275 C 582 278 603 279 591 294 Q 582 307 560 312 Q 535 318 413 288 C 384 281 378 261 408 261 Z" class="stroke7"/>
    
    
    
    
    
    
    </g>
</svg>