<svg version="1.1" viewBox="0 0 1024 1024" xmlns="http://www.w3.org/2000/svg">
  
  <g transform="scale(1, -1) translate(0, -900)">
    <style type="text/css">
        .stroke1 {fill: #808080;}
        .stroke2 {fill: #808079;}
        .stroke3 {fill: #808078;}
        .stroke4 {fill: #808077;}
        .stroke5 {fill: #808076;}
        .stroke6 {fill: #808075;}
        .stroke7 {fill: #808074;}
        .stroke8 {fill: #808073;}
        .stroke9 {fill: #808072;}
        .stroke10 {fill: #808071;}
        .stroke11 {fill: #808070;}
        .stroke12 {fill: #808069;}
        .stroke13 {fill: #808068;}
        .stroke14 {fill: #808067;}
        .stroke15 {fill: #808066;}
        .stroke16 {fill: #808065;}
        .stroke17 {fill: #808064;}
        .stroke18 {fill: #808063;}
        .stroke19 {fill: #808062;}
        .stroke20 {fill: #808061;}
        text {
            font-family: Helvetica;
            font-size: 50px;
            fill: #808060;
            paint-order: stroke;
            stroke: #000000;
            stroke-width: 4px;
            stroke-linecap: butt;
            stroke-linejoin: miter;
            font-weight: 800;
        }
    </style>

    <path d="M 304 745 Q 361 669 390 665 Q 406 664 414 684 Q 415 699 406 723 Q 396 742 369 752 Q 329 773 311 776 Q 301 777 298 765 Q 297 755 304 745 Z" class="stroke1"/>
    <path d="M 176 688 Q 231 541 186 227 Q 156 104 157 94 Q 157 63 179 37 Q 192 22 202 37 Q 239 76 240 242 Q 240 569 257 653 Q 258 672 242 683 Q 217 704 189 712 Q 179 715 172 706 Q 168 699 176 688 Z" class="stroke2"/>
    <path d="M 523 750 Q 507 751 511 740 Q 518 727 540 717 Q 552 708 587 716 Q 743 764 765 728 Q 795 662 790 235 Q 789 181 787 124 Q 786 82 771 71 Q 755 59 670 78 Q 652 81 654 71 Q 655 64 669 58 Q 744 10 784 -27 Q 806 -46 820 -44 Q 833 -40 844 -11 Q 859 37 856 106 Q 834 503 835 651 Q 835 691 847 715 Q 860 737 849 750 Q 839 765 790 790 Q 769 802 710 783 Q 569 756 523 750 Z" class="stroke3"/>
    <path d="M 318 426 Q 302 371 275 321 Q 260 294 277 262 Q 284 247 303 260 Q 348 302 345 378 Q 346 406 339 428 Q 335 435 329 435 Q 322 434 318 426 Z" class="stroke4"/>
    <path d="M 735 217 Q 734 227 718 246 Q 694 273 635 361 Q 631 368 625 369 Q 622 369 623 362 Q 630 322 635 275 Q 638 256 624 247 Q 599 228 519 247 Q 458 265 438 326 Q 428 366 424 410 Q 423 434 407 447 Q 394 459 387 453 Q 383 450 386 433 Q 390 414 396 363 Q 403 237 492 199 Q 597 151 723 207 Q 736 211 735 217 Z" class="stroke5"/>
    <path d="M 454 513 Q 487 465 515 450 Q 527 447 536 457 Q 542 467 541 481 Q 532 517 469 543 Q 468 544 467 544 Q 454 548 446 547 Q 440 546 441 536 Q 442 526 454 513 Z" class="stroke6"/>
    <path d="M 626 481 Q 663 447 705 396 Q 718 380 731 375 Q 738 374 745 382 Q 755 392 746 430 Q 737 473 628 507 Q 621 511 618 501 Q 618 491 626 481 Z" class="stroke7"/>
    
    
    
    
    
    
    </g>
</svg>