<svg version="1.1" viewBox="0 0 1024 1024" xmlns="http://www.w3.org/2000/svg">
  
  <g transform="scale(1, -1) translate(0, -900)">
    <style type="text/css">
        .stroke1 {fill: #808080;}
        .stroke2 {fill: #808079;}
        .stroke3 {fill: #808078;}
        .stroke4 {fill: #808077;}
        .stroke5 {fill: #808076;}
        .stroke6 {fill: #808075;}
        .stroke7 {fill: #808074;}
        .stroke8 {fill: #808073;}
        .stroke9 {fill: #808072;}
        .stroke10 {fill: #808071;}
        .stroke11 {fill: #808070;}
        .stroke12 {fill: #808069;}
        .stroke13 {fill: #808068;}
        .stroke14 {fill: #808067;}
        .stroke15 {fill: #808066;}
        .stroke16 {fill: #808065;}
        .stroke17 {fill: #808064;}
        .stroke18 {fill: #808063;}
        .stroke19 {fill: #808062;}
        .stroke20 {fill: #808061;}
        text {
            font-family: Helvetica;
            font-size: 50px;
            fill: #808060;
            paint-order: stroke;
            stroke: #000000;
            stroke-width: 4px;
            stroke-linecap: butt;
            stroke-linejoin: miter;
            font-weight: 800;
        }
    </style>

    <path d="M 298 749 Q 367 668 393 668 Q 409 667 417 689 Q 418 705 407 729 Q 394 748 366 758 Q 323 777 303 781 Q 291 782 291 769 Q 290 759 298 749 Z" class="stroke1"/>
    <path d="M 176 688 Q 231 541 186 227 Q 156 104 157 94 Q 157 63 179 37 Q 192 22 202 37 Q 239 76 240 242 Q 240 569 257 653 Q 258 672 242 683 Q 217 704 189 712 Q 179 715 172 706 Q 168 699 176 688 Z" class="stroke2"/>
    <path d="M 495 746 Q 479 747 483 736 Q 490 723 512 713 Q 524 704 560 712 Q 741 758 758 727 Q 789 678 784 271 Q 783 199 779 124 Q 778 82 763 71 Q 748 61 674 74 Q 656 77 658 67 Q 659 60 673 53 Q 740 8 776 -27 Q 798 -46 811 -44 Q 824 -41 836 -11 Q 851 37 849 106 Q 819 661 841 708 Q 856 732 845 745 Q 835 761 786 786 Q 767 796 695 777 Q 584 756 495 746 Z" class="stroke3"/>
    <path d="M 403 563 Q 393 567 366 572 Q 356 575 352 570 Q 348 564 355 550 Q 376 511 390 446 Q 394 427 405 414 Q 421 395 426 409 Q 427 416 429 426 L 426 452 Q 416 518 416 538 C 415 559 415 559 403 563 Z" class="stroke4"/>
    <path d="M 595 476 Q 614 525 631 539 Q 653 561 633 576 Q 615 588 591 605 Q 575 615 556 607 Q 513 580 403 563 C 373 558 386 534 416 538 Q 423 539 429 540 Q 481 552 524 561 Q 554 568 561 556 Q 565 552 559 527 Q 553 506 545 481 C 536 452 584 448 595 476 Z" class="stroke5"/>
    <path d="M 429 426 Q 430 426 433 425 Q 442 424 453 426 Q 499 438 602 449 Q 612 450 612 458 Q 612 464 595 476 C 576 490 574 489 545 481 Q 478 462 426 452 C 397 446 400 432 429 426 Z" class="stroke6"/>
    <path d="M 390 328 Q 378 335 344 341 Q 332 344 329 339 Q 322 332 331 317 Q 356 263 373 175 Q 377 150 392 132 Q 410 110 415 125 Q 419 138 418 162 L 413 196 Q 401 272 399 298 C 397 325 397 325 390 328 Z" class="stroke7"/>
    <path d="M 637 216 Q 659 279 686 300 Q 702 316 689 334 Q 673 347 624 371 Q 608 378 587 371 Q 530 350 390 328 C 360 323 369 293 399 298 Q 405 299 569 326 Q 588 330 596 321 Q 608 309 589 228 C 582 199 627 188 637 216 Z" class="stroke8"/>
    <path d="M 418 162 Q 424 162 431 163 Q 498 176 643 186 Q 653 187 655 195 Q 655 202 637 216 C 617 232 617 232 589 228 Q 583 228 579 226 Q 488 205 413 196 C 383 192 388 160 418 162 Z" class="stroke9"/>
    
    
    
    
    
    
    
    
    </g>
</svg>