<svg version="1.1" viewBox="0 0 1024 1024" xmlns="http://www.w3.org/2000/svg">
  
  <g transform="scale(1, -1) translate(0, -900)">
    <style type="text/css">
        .stroke1 {fill: #808080;}
        .stroke2 {fill: #808079;}
        .stroke3 {fill: #808078;}
        .stroke4 {fill: #808077;}
        .stroke5 {fill: #808076;}
        .stroke6 {fill: #808075;}
        .stroke7 {fill: #808074;}
        .stroke8 {fill: #808073;}
        .stroke9 {fill: #808072;}
        .stroke10 {fill: #808071;}
        .stroke11 {fill: #808070;}
        .stroke12 {fill: #808069;}
        .stroke13 {fill: #808068;}
        .stroke14 {fill: #808067;}
        .stroke15 {fill: #808066;}
        .stroke16 {fill: #808065;}
        .stroke17 {fill: #808064;}
        .stroke18 {fill: #808063;}
        .stroke19 {fill: #808062;}
        .stroke20 {fill: #808061;}
        text {
            font-family: Helvetica;
            font-size: 50px;
            fill: #808060;
            paint-order: stroke;
            stroke: #000000;
            stroke-width: 4px;
            stroke-linecap: butt;
            stroke-linejoin: miter;
            font-weight: 800;
        }
    </style>

    <path d="M 309 591 Q 358 661 383 678 Q 402 690 393 703 Q 380 721 344 740 Q 325 747 311 737 Q 275 709 244 696 Q 220 689 194 683 C 165 676 180 648 209 655 Q 243 662 281 681 Q 299 691 310 681 Q 314 674 306 658 Q 288 622 273 587 Q 260 565 272 546 Q 294 503 300 478 Q 303 465 297 458 Q 293 451 275 454 Q 254 458 232 458 Q 210 461 233 445 Q 273 417 307 384 Q 317 372 330 381 Q 343 388 351 409 Q 358 428 350 464 Q 340 504 314 538 Q 304 556 302 564 Q 298 577 309 591 Z" class="stroke1"/>
    <path d="M 194 683 Q 170 704 141 712 Q 131 713 124 705 Q 120 698 128 687 Q 143 653 149 622 Q 156 594 157 547 Q 161 384 154 292 Q 148 204 120 117 Q 113 89 117 68 Q 127 31 139 17 Q 152 2 162 17 Q 175 33 182 65 Q 197 132 198 204 Q 198 294 199 382 Q 200 599 209 653 L 209 655 C 211 670 211 670 194 683 Z" class="stroke2"/>
    <path d="M 447 617 Q 490 647 515 667 Q 537 686 558 703 Q 574 719 598 731 Q 617 743 606 759 Q 593 775 566 787 Q 541 799 529 795 Q 517 794 522 780 Q 526 762 514 743 Q 498 712 480 689 Q 458 661 434 628 C 416 604 422 600 447 617 Z" class="stroke3"/>
    <path d="M 385 613 Q 419 540 437 419 Q 441 383 461 359 Q 477 338 482 353 Q 485 363 486 376 L 485 405 Q 484 418 481 432 Q 474 463 469 490 L 464 518 Q 451 588 449 606 Q 449 613 447 617 C 445 625 445 625 434 628 Q 421 632 397 636 Q 387 639 383 634 Q 377 628 385 613 Z" class="stroke4"/>
    <path d="M 469 490 L 470 490 Q 521 500 558 508 Q 579 514 570 525 Q 558 538 534 539 Q 512 540 474 525 Q 468 522 464 518 C 441 498 439 486 469 490 Z" class="stroke5"/>
    <path d="M 716 399 Q 715 389 718 376 Q 722 360 736 361 Q 749 362 758 377 Q 777 402 808 527 Q 824 579 862 608 Q 881 624 865 640 Q 847 656 798 684 Q 780 694 760 687 Q 747 683 729 679 Q 690 672 658 662 Q 624 653 603 649 Q 587 649 585 643 Q 581 639 597 628 Q 630 612 649 620 Q 679 630 749 643 Q 761 644 765 643 Q 778 634 769 594 Q 763 569 758 546 L 749 512 Q 734 451 724 423 L 716 399 Z" class="stroke6"/>
    <path d="M 758 546 Q 739 552 700 546 Q 670 539 644 534 Q 629 533 645 517 Q 651 513 664 512 Q 710 513 749 512 C 779 511 787 538 758 546 Z" class="stroke7"/>
    <path d="M 486 376 Q 496 373 508 375 Q 524 379 547 382 L 592 387 Q 643 394 716 399 C 746 401 746 403 724 423 Q 718 429 708 436 Q 693 443 664 438 Q 565 416 485 405 C 455 401 457 382 486 376 Z" class="stroke8"/>
    <path d="M 558 246 Q 512 239 458 235 Q 422 231 447 214 Q 462 204 484 199 Q 511 193 541 200 Q 548 201 557 202 L 608 211 Q 654 221 703 228 Q 740 235 746 241 Q 755 248 751 256 Q 744 268 716 276 Q 688 283 658 272 Q 636 266 611 259 L 558 246 Z" class="stroke9"/>
    <path d="M 547 382 Q 551 375 554 369 Q 558 356 558 334 Q 559 321 558 246 L 557 202 Q 556 157 555 96 C 555 66 597 71 599 101 Q 603 159 608 211 L 611 259 Q 612 287 616 314 Q 617 327 619 337 Q 626 355 617 365 Q 604 378 592 387 C 569 406 533 408 547 382 Z" class="stroke10"/>
    <path d="M 555 96 Q 432 87 290 74 Q 268 73 283 55 Q 298 40 316 33 Q 338 27 354 31 Q 445 50 548 58 Q 657 68 837 61 Q 862 60 883 59 Q 904 58 909 67 Q 916 79 899 94 Q 871 116 848 126 Q 829 133 807 129 Q 729 116 599 101 L 555 96 Z" class="stroke11"/>
    
    
    
    
    
    
    
    
    
    
    </g>
</svg>