<svg version="1.1" viewBox="0 0 1024 1024" xmlns="http://www.w3.org/2000/svg">
  
  <g transform="scale(1, -1) translate(0, -900)">
    <style type="text/css">
        .stroke1 {fill: #808080;}
        .stroke2 {fill: #808079;}
        .stroke3 {fill: #808078;}
        .stroke4 {fill: #808077;}
        .stroke5 {fill: #808076;}
        .stroke6 {fill: #808075;}
        .stroke7 {fill: #808074;}
        .stroke8 {fill: #808073;}
        .stroke9 {fill: #808072;}
        .stroke10 {fill: #808071;}
        .stroke11 {fill: #808070;}
        .stroke12 {fill: #808069;}
        .stroke13 {fill: #808068;}
        .stroke14 {fill: #808067;}
        .stroke15 {fill: #808066;}
        .stroke16 {fill: #808065;}
        .stroke17 {fill: #808064;}
        .stroke18 {fill: #808063;}
        .stroke19 {fill: #808062;}
        .stroke20 {fill: #808061;}
        text {
            font-family: Helvetica;
            font-size: 50px;
            fill: #808060;
            paint-order: stroke;
            stroke: #000000;
            stroke-width: 4px;
            stroke-linecap: butt;
            stroke-linejoin: miter;
            font-weight: 800;
        }
    </style>

    <path d="M 225 665 Q 256 674 291 690 Q 309 700 320 690 Q 326 684 319 666 Q 286 567 292 551 Q 293 548 297 544 Q 348 463 333 446 Q 329 439 310 440 Q 288 444 264 443 Q 240 444 267 429 Q 310 402 351 369 Q 364 357 376 369 Q 389 378 397 401 Q 409 449 355 524 Q 310 578 338 605 Q 375 675 400 691 Q 419 704 409 718 Q 396 736 356 754 Q 334 761 321 750 Q 270 708 204 693 C 175 685 196 656 225 665 Z" class="stroke1"/>
    <path d="M 204 693 Q 165 718 146 711 Q 137 705 144 691 Q 171 601 173 577 Q 172 574 173 569 Q 191 302 153 139 Q 138 76 179 26 Q 192 10 204 25 Q 222 53 221 177 Q 222 612 224 640 Q 225 656 225 665 C 226 681 226 681 204 693 Z" class="stroke2"/>
    <path d="M 550 761 Q 537 767 501 771 Q 489 772 487 767 Q 481 761 491 747 Q 516 708 537 642 Q 541 621 556 609 Q 575 590 578 606 Q 579 612 580 620 L 576 649 Q 564 709 558 733 C 551 760 551 760 550 761 Z" class="stroke3"/>
    <path d="M 777 669 Q 804 726 831 741 Q 847 757 834 774 Q 819 787 773 811 Q 757 818 737 811 Q 662 781 550 761 C 520 756 529 724 558 733 Q 561 734 566 736 Q 645 752 720 768 Q 739 772 747 765 Q 756 755 730 679 C 720 651 764 642 777 669 Z" class="stroke4"/>
    <path d="M 580 620 Q 587 619 597 621 Q 655 634 781 646 Q 791 647 792 654 Q 792 660 777 669 L 730 679 Q 727 680 725 679 Q 643 660 576 649 C 546 644 550 621 580 620 Z" class="stroke5"/>
    <path d="M 524 543 Q 515 555 488 565 Q 479 569 469 565 Q 463 561 468 550 Q 469 543 473 536 Q 494 494 483 328 Q 470 243 484 216 Q 488 209 495 201 Q 505 189 514 200 Q 520 209 522 218 L 525 250 Q 526 271 527 325 L 527 356 Q 527 393 527 419 L 528 445 Q 528 505 530 514 C 532 535 532 535 524 543 Z" class="stroke6"/>
    <path d="M 759 240 Q 760 231 768 221 Q 781 193 790 194 Q 803 195 819 227 Q 832 252 831 272 Q 804 467 840 525 Q 850 540 843 550 Q 770 610 714 582 Q 627 558 524 543 C 494 539 500 510 530 514 Q 536 514 542 515 Q 644 540 717 551 Q 742 555 751 542 Q 764 526 766 466 Q 770 297 761 264 Q 760 264 760 263 L 759 240 Z" class="stroke7"/>
    <path d="M 527 419 Q 531 418 540 419 Q 637 438 707 449 Q 729 453 721 465 Q 711 478 687 482 Q 660 485 528 445 C 499 436 497 421 527 419 Z" class="stroke8"/>
    <path d="M 527 325 Q 527 326 531 326 Q 634 342 710 352 Q 734 355 725 368 Q 715 383 689 388 Q 662 394 527 356 C 498 348 498 319 527 325 Z" class="stroke9"/>
    <path d="M 522 218 Q 528 217 536 218 Q 606 231 759 240 C 784 241 782 243 760 263 Q 754 269 744 276 Q 729 285 700 279 Q 603 260 525 250 C 495 246 492 220 522 218 Z" class="stroke10"/>
    <path d="M 542 176 Q 524 113 366 7 Q 344 -5 371 -4 Q 434 -7 558 93 Q 561 102 609 135 Q 621 145 619 154 Q 618 167 593 178 Q 566 191 554 189 Q 547 188 542 176 Z" class="stroke11"/>
    <path d="M 702 155 Q 754 97 815 12 Q 828 -10 844 -17 Q 853 -18 861 -10 Q 876 3 868 48 Q 859 114 707 186 Q 698 193 695 180 Q 692 167 702 155 Z" class="stroke12"/>
    
    
    
    
    
    
    
    
    
    
    
    </g>
</svg>