<svg version="1.1" viewBox="0 0 1024 1024" xmlns="http://www.w3.org/2000/svg">
  
  <g transform="scale(1, -1) translate(0, -900)">
    <style type="text/css">
        .stroke1 {fill: #808080;}
        .stroke2 {fill: #808079;}
        .stroke3 {fill: #808078;}
        .stroke4 {fill: #808077;}
        .stroke5 {fill: #808076;}
        .stroke6 {fill: #808075;}
        .stroke7 {fill: #808074;}
        .stroke8 {fill: #808073;}
        .stroke9 {fill: #808072;}
        .stroke10 {fill: #808071;}
        .stroke11 {fill: #808070;}
        .stroke12 {fill: #808069;}
        .stroke13 {fill: #808068;}
        .stroke14 {fill: #808067;}
        .stroke15 {fill: #808066;}
        .stroke16 {fill: #808065;}
        .stroke17 {fill: #808064;}
        .stroke18 {fill: #808063;}
        .stroke19 {fill: #808062;}
        .stroke20 {fill: #808061;}
        text {
            font-family: Helvetica;
            font-size: 50px;
            fill: #808060;
            paint-order: stroke;
            stroke: #000000;
            stroke-width: 4px;
            stroke-linecap: butt;
            stroke-linejoin: miter;
            font-weight: 800;
        }
    </style>

    <path d="M 222 685 Q 259 692 298 710 Q 314 720 325 709 Q 331 702 321 683 Q 302 643 285 603 Q 272 579 286 560 Q 349 470 333 452 Q 329 445 312 448 Q 293 452 272 454 Q 250 457 273 441 Q 316 413 353 379 Q 368 367 380 381 Q 393 391 398 416 Q 408 473 337 549 Q 298 588 341 639 Q 377 693 399 706 Q 418 718 409 731 Q 396 749 361 768 Q 342 777 328 766 Q 274 724 200 713 C 170 708 193 678 222 685 Z" class="stroke1"/>
    <path d="M 200 713 Q 178 729 153 735 Q 143 738 136 728 Q 132 722 141 710 Q 190 601 178 308 Q 177 295 176 280 Q 172 183 142 89 Q 135 61 140 39 Q 150 2 163 -11 Q 176 -26 186 -11 Q 222 34 219 189 Q 213 604 222 678 Q 222 682 222 685 C 223 699 223 699 200 713 Z" class="stroke2"/>
    <path d="M 658 804 Q 618 768 481 714 Q 477 707 481 704 Q 529 704 661 751 Q 682 766 744 774 Q 759 774 762 781 Q 766 790 756 800 Q 704 839 678 836 Q 672 833 671 824 Q 670 812 658 804 Z" class="stroke3"/>
    <path d="M 448 652 Q 482 595 504 591 Q 514 590 522 603 Q 523 613 518 632 Q 512 645 494 654 Q 466 670 454 674 Q 447 677 445 667 Q 444 660 448 652 Z" class="stroke4"/>
    <path d="M 571 687 Q 604 632 622 628 Q 631 625 638 638 Q 639 648 636 663 Q 627 684 577 706 Q 570 707 569 700 Q 568 694 571 687 Z" class="stroke5"/>
    <path d="M 754 719 Q 735 694 696 655 Q 692 649 695 643 Q 701 642 707 645 Q 777 682 811 697 Q 826 698 824 708 Q 820 721 806 738 Q 793 754 775 757 Q 763 758 762 742 Q 763 732 754 719 Z" class="stroke6"/>
    <path d="M 643 571 Q 697 584 746 593 Q 764 597 757 606 Q 748 616 729 620 Q 710 621 679 613 Q 576 585 485 562 Q 472 558 488 547 Q 501 538 528 545 Q 562 554 596 560 L 643 571 Z" class="stroke7"/>
    <path d="M 643 514 L 643 571 C 643 601 596 590 596 560 L 596 503 C 596 473 643 484 643 514 Z" class="stroke8"/>
    <path d="M 596 503 Q 530 488 455 472 Q 442 469 452 459 Q 462 450 475 448 Q 490 445 500 449 Q 644 501 794 502 L 796 502 Q 809 503 812 510 Q 815 517 803 526 Q 767 551 707 532 Q 677 525 643 514 L 596 503 Z" class="stroke9"/>
    <path d="M 751 283 Q 778 371 809 395 Q 824 411 811 427 Q 796 439 751 460 Q 735 467 717 459 Q 617 417 477 401 Q 462 400 464 391 Q 467 384 482 379 Q 504 370 534 380 Q 618 398 698 415 Q 719 421 727 412 Q 736 403 733 386 Q 723 335 710 294 C 701 265 742 254 751 283 Z" class="stroke10"/>
    <path d="M 466 322 Q 453 319 469 307 Q 479 300 503 303 Q 612 324 692 336 Q 711 339 705 350 Q 696 362 675 366 Q 656 369 621 360 Q 539 338 466 322 Z" class="stroke11"/>
    <path d="M 710 294 Q 703 295 696 292 Q 570 261 470 249 Q 451 248 462 231 Q 477 216 511 223 Q 592 241 756 256 Q 766 257 768 265 Q 768 272 751 283 L 710 294 Z" class="stroke12"/>
    <path d="M 382 165 Q 358 114 327 70 Q 309 40 322 12 Q 329 -4 347 6 Q 393 39 402 113 Q 408 141 403 164 Q 399 171 393 172 Q 386 172 382 165 Z" class="stroke13"/>
    <path d="M 464 148 Q 485 55 558 10 Q 675 -56 856 -17 Q 871 -11 887 -5 Q 909 5 910 20 Q 914 29 881 49 Q 830 89 793 132 Q 781 148 777 140 Q 790 43 789 36 Q 777 29 748 25 Q 604 18 545 70 Q 517 92 504 134 Q 497 155 485 159 Q 473 166 466 162 Q 462 161 464 148 Z" class="stroke14"/>
    <path d="M 601 165 Q 623 147 646 126 Q 659 116 672 116 Q 681 117 685 128 Q 689 141 680 167 Q 671 191 595 207 Q 582 208 576 207 Q 572 203 573 192 Q 577 182 601 165 Z" class="stroke15"/>
    <path d="M 841 191 Q 872 169 904 140 Q 917 128 934 130 Q 944 131 949 144 Q 953 160 942 189 Q 929 223 834 239 Q 818 242 812 239 Q 808 235 809 222 Q 813 212 841 191 Z" class="stroke16"/>
    
    
    
    
    
    
    
    
    
    
    
    
    
    
    
    </g>
</svg>