<svg version="1.1" viewBox="0 0 1024 1024" xmlns="http://www.w3.org/2000/svg">
  
  <g transform="scale(1, -1) translate(0, -900)">
    <style type="text/css">
        .stroke1 {fill: #808080;}
        .stroke2 {fill: #808079;}
        .stroke3 {fill: #808078;}
        .stroke4 {fill: #808077;}
        .stroke5 {fill: #808076;}
        .stroke6 {fill: #808075;}
        .stroke7 {fill: #808074;}
        .stroke8 {fill: #808073;}
        .stroke9 {fill: #808072;}
        .stroke10 {fill: #808071;}
        .stroke11 {fill: #808070;}
        .stroke12 {fill: #808069;}
        .stroke13 {fill: #808068;}
        .stroke14 {fill: #808067;}
        .stroke15 {fill: #808066;}
        .stroke16 {fill: #808065;}
        .stroke17 {fill: #808064;}
        .stroke18 {fill: #808063;}
        .stroke19 {fill: #808062;}
        .stroke20 {fill: #808061;}
        text {
            font-family: Helvetica;
            font-size: 50px;
            fill: #808060;
            paint-order: stroke;
            stroke: #000000;
            stroke-width: 4px;
            stroke-linecap: butt;
            stroke-linejoin: miter;
            font-weight: 800;
        }
    </style>

    <path d="M 423 681 Q 435 687 523 684 Q 536 683 540 691 Q 544 700 533 712 Q 490 743 442 728 L 395 719 Q 347 710 294 700 L 257 694 Q 203 687 143 678 Q 119 674 136 662 Q 175 640 236 656 Q 249 660 265 662 L 297 668 Q 297 669 300 669 Q 340 675 384 678 L 423 681 Z" class="stroke1"/>
    <path d="M 294 700 Q 293 725 291 746 Q 292 762 276 766 Q 246 781 229 775 Q 216 768 227 753 Q 248 728 257 694 L 265 662 Q 274 620 285 609 Q 295 602 299 610 Q 302 622 297 668 L 294 700 Z" class="stroke2"/>
    <path d="M 442 728 Q 449 750 466 778 Q 478 791 469 799 Q 459 812 431 827 Q 418 834 403 828 Q 394 822 401 813 Q 411 786 395 719 L 384 678 Q 366 618 367 605 Q 368 593 381 603 Q 396 618 423 681 L 442 728 Z" class="stroke3"/>
    <path d="M 177 555 Q 170 559 145 563 Q 136 566 134 562 Q 130 558 136 545 Q 154 512 167 456 Q 170 440 180 428 Q 193 412 197 424 Q 200 433 199 447 L 195 469 Q 188 518 186 535 C 184 552 184 552 177 555 Z" class="stroke4"/>
    <path d="M 302 486 Q 312 525 324 536 Q 340 555 323 565 Q 310 574 289 586 Q 276 592 233 571 Q 206 564 177 555 C 148 546 157 528 186 535 Q 189 536 246 548 Q 262 551 266 545 Q 270 542 268 523 Q 265 507 263 487 C 260 457 294 457 302 486 Z" class="stroke5"/>
    <path d="M 199 447 Q 208 447 218 448 Q 248 455 312 462 Q 319 463 320 469 Q 320 475 302 486 C 288 495 288 495 263 487 Q 223 475 195 469 C 166 463 169 447 199 447 Z" class="stroke6"/>
    <path d="M 375 581 Q 368 585 350 588 Q 341 591 338 587 Q 334 583 339 571 Q 355 537 365 481 Q 366 465 376 453 Q 389 437 393 448 Q 396 455 396 469 L 394 494 Q 390 548 389 561 C 388 575 388 575 375 581 Z" class="stroke7"/>
    <path d="M 497 506 Q 507 549 521 564 Q 537 583 519 594 Q 504 601 484 614 Q 471 621 456 612 Q 440 600 417 593 Q 399 587 375 581 C 346 574 360 552 389 561 Q 389 562 391 562 Q 419 569 443 575 Q 459 579 463 572 Q 467 569 464 548 Q 461 530 459 509 C 456 479 490 477 497 506 Z" class="stroke8"/>
    <path d="M 396 469 Q 400 469 406 470 Q 437 477 507 482 Q 514 483 516 489 Q 516 495 497 506 C 482 515 482 515 459 509 Q 422 500 394 494 C 365 488 366 467 396 469 Z" class="stroke9"/>
    <path d="M 198 280 Q 262 359 263 366 L 262 369 Q 261 378 240 396 Q 222 411 208 412 Q 195 412 199 395 Q 211 365 144 271 Q 113 228 70 182 Q 63 175 60 171 Q 57 164 68 164 Q 101 170 177 256 L 198 280 Z" class="stroke10"/>
    <path d="M 228 68 Q 229 186 234 216 Q 240 240 209 269 Q 205 275 198 280 C 175 300 166 284 177 256 Q 210 184 174 44 Q 164 11 194 -30 L 195 -31 Q 208 -43 217 -23 Q 227 8 227 43 L 228 68 Z" class="stroke11"/>
    <path d="M 331 413 Q 373 374 383 375 Q 390 375 394 385 Q 397 395 390 415 Q 383 434 327 446 Q 317 447 312 446 Q 308 443 309 435 Q 312 428 331 413 Z" class="stroke12"/>
    <path d="M 373 310 Q 407 319 443 326 Q 468 332 471 335 Q 478 341 474 347 Q 470 356 447 361 Q 425 365 402 357 Q 374 347 343 339 Q 309 332 270 328 Q 242 324 262 311 Q 292 293 336 303 L 373 310 Z" class="stroke13"/>
    <path d="M 388 227 Q 407 234 428 238 Q 449 242 452 246 Q 456 252 454 257 Q 450 264 430 268 Q 411 271 392 263 Q 391 263 390 262 L 345 247 Q 317 241 284 236 Q 260 232 277 221 Q 307 209 340 217 Q 341 218 346 218 L 388 227 Z" class="stroke14"/>
    <path d="M 385 148 Q 407 154 432 158 Q 456 162 459 166 Q 465 170 462 177 Q 458 184 439 189 Q 415 195 386 180 L 346 170 Q 315 164 277 160 Q 253 156 270 145 Q 294 130 335 139 Q 339 140 346 140 L 385 148 Z" class="stroke15"/>
    <path d="M 382 90 Q 383 121 385 148 L 386 180 Q 386 205 388 227 L 390 262 Q 394 290 390 296 Q 381 303 373 310 C 350 329 327 332 336 303 Q 345 276 345 247 L 346 218 Q 346 199 346 170 L 346 140 Q 346 115 346 83 C 346 53 381 60 382 90 Z" class="stroke16"/>
    <path d="M 346 83 Q 310 77 279 73 Q 254 72 228 68 C 198 64 200 56 227 43 Q 243 31 303 39 Q 409 57 476 60 Q 485 59 493 70 Q 494 80 475 89 Q 453 107 382 90 L 346 83 Z" class="stroke17"/>
    
    
    
    
    
    
    
    
    
    
    
    
    
    
    
    
    </g>
</svg>