<svg version="1.1" viewBox="0 0 1024 1024" xmlns="http://www.w3.org/2000/svg">
  
  <g transform="scale(1, -1) translate(0, -900)">
    <style type="text/css">
        .stroke1 {fill: #808080;}
        .stroke2 {fill: #808079;}
        .stroke3 {fill: #808078;}
        .stroke4 {fill: #808077;}
        .stroke5 {fill: #808076;}
        .stroke6 {fill: #808075;}
        .stroke7 {fill: #808074;}
        .stroke8 {fill: #808073;}
        .stroke9 {fill: #808072;}
        .stroke10 {fill: #808071;}
        .stroke11 {fill: #808070;}
        .stroke12 {fill: #808069;}
        .stroke13 {fill: #808068;}
        .stroke14 {fill: #808067;}
        .stroke15 {fill: #808066;}
        .stroke16 {fill: #808065;}
        .stroke17 {fill: #808064;}
        .stroke18 {fill: #808063;}
        .stroke19 {fill: #808062;}
        .stroke20 {fill: #808061;}
        text {
            font-family: Helvetica;
            font-size: 50px;
            fill: #808060;
            paint-order: stroke;
            stroke: #000000;
            stroke-width: 4px;
            stroke-linecap: butt;
            stroke-linejoin: miter;
            font-weight: 800;
        }
    </style>

    <path d="M 514 770 Q 682 803 690 807 Q 699 814 695 824 Q 688 836 658 844 Q 631 850 521 820 Q 427 802 363 797 Q 326 793 352 774 Q 385 752 470 763 L 514 770 Z" class="stroke1"/>
    <path d="M 254 640 Q 241 665 227 675 Q 205 691 204 662 Q 210 631 178 581 Q 129 529 165 466 Q 187 441 202 470 Q 218 495 229 534 Q 242 577 252 604 C 261 628 261 628 254 640 Z" class="stroke2"/>
    <path d="M 538 652 Q 749 688 791 680 Q 803 673 799 665 Q 799 662 760 585 Q 747 569 755 564 Q 765 560 786 571 Q 852 608 904 617 Q 947 624 947 636 Q 944 648 867 710 Q 845 729 816 727 Q 734 714 633 698 Q 590 694 539 684 L 487 676 Q 370 658 254 640 C 224 635 222 608 252 604 Q 273 595 340 613 Q 439 640 488 644 L 538 652 Z" class="stroke3"/>
    <path d="M 488 644 Q 488 590 475 501 Q 466 464 495 430 Q 505 420 515 430 Q 537 463 536 511 Q 535 545 538 643 Q 538 647 538 652 L 539 684 Q 540 706 545 726 Q 552 748 532 760 Q 523 766 514 770 C 487 784 454 788 470 763 Q 486 747 487 676 L 488 644 Z" class="stroke4"/>
    <path d="M 325 544 Q 379 514 401 525 Q 414 529 411 549 Q 407 561 389 574 Q 359 587 317 569 Q 308 568 313 556 Q 314 549 325 544 Z" class="stroke5"/>
    <path d="M 322 440 Q 341 430 361 415 Q 374 408 387 410 Q 396 413 397 424 Q 398 437 386 459 Q 374 477 309 478 Q 296 478 291 475 Q 288 471 292 461 Q 296 452 322 440 Z" class="stroke6"/>
    <path d="M 602 594 Q 659 554 683 560 Q 696 563 697 581 Q 694 594 679 609 Q 657 627 598 620 Q 589 619 592 607 Q 593 600 602 594 Z" class="stroke7"/>
    <path d="M 593 497 Q 650 452 675 457 Q 688 458 689 477 Q 688 490 674 507 Q 646 529 591 523 Q 581 522 584 511 Q 584 504 593 497 Z" class="stroke8"/>
    <path d="M 333 358 Q 320 364 286 368 Q 273 372 269 366 Q 262 359 272 341 Q 303 283 324 188 Q 328 160 346 140 Q 367 116 371 134 Q 372 141 374 150 L 373 184 Q 361 248 349 326 C 345 354 345 354 333 358 Z" class="stroke9"/>
    <path d="M 613 177 Q 631 147 648 137 Q 658 127 677 150 Q 690 169 725 276 Q 735 307 761 332 Q 776 345 765 360 Q 749 379 706 408 Q 688 418 609 401 Q 570 398 333 358 C 303 353 320 318 349 326 Q 394 339 458 349 L 504 356 Q 640 381 663 364 Q 675 355 670 338 Q 643 215 623 203 C 609 184 609 184 613 177 Z" class="stroke10"/>
    <path d="M 517 262 Q 554 269 587 273 Q 609 277 601 289 Q 591 302 567 307 Q 548 308 522 302 L 470 287 Q 434 277 403 268 Q 387 264 406 251 Q 415 244 434 247 Q 450 251 469 253 L 517 262 Z" class="stroke11"/>
    <path d="M 509 167 Q 554 174 613 177 C 643 179 647 186 623 203 Q 586 233 514 208 Q 513 208 511 207 L 466 199 Q 417 190 373 184 C 343 180 344 151 374 150 Q 380 149 391 151 Q 421 158 466 163 L 509 167 Z" class="stroke12"/>
    <path d="M 466 163 Q 463 54 504 20 Q 582 -40 757 -13 Q 773 -10 791 -5 Q 834 8 876 37 Q 895 49 886 74 Q 876 99 866 170 Q 867 188 861 194 Q 855 198 848 180 Q 791 86 757 67 Q 700 46 636 44 Q 593 44 559 55 Q 531 67 523 84 Q 508 112 509 167 L 511 207 Q 512 234 517 262 L 522 302 Q 523 309 525 318 Q 529 336 518 345 Q 512 351 504 356 C 481 375 449 378 458 349 Q 459 348 460 344 Q 469 316 470 287 L 469 253 Q 468 225 466 199 L 466 163 Z" class="stroke13"/>
    
    
    
    
    
    
    
    
    
    
    
    
    </g>
</svg>