<svg version="1.1" viewBox="0 0 1024 1024" xmlns="http://www.w3.org/2000/svg">
  
  <g transform="scale(1, -1) translate(0, -900)">
    <style type="text/css">
        .stroke1 {fill: #808080;}
        .stroke2 {fill: #808079;}
        .stroke3 {fill: #808078;}
        .stroke4 {fill: #808077;}
        .stroke5 {fill: #808076;}
        .stroke6 {fill: #808075;}
        .stroke7 {fill: #808074;}
        .stroke8 {fill: #808073;}
        .stroke9 {fill: #808072;}
        .stroke10 {fill: #808071;}
        .stroke11 {fill: #808070;}
        .stroke12 {fill: #808069;}
        .stroke13 {fill: #808068;}
        .stroke14 {fill: #808067;}
        .stroke15 {fill: #808066;}
        .stroke16 {fill: #808065;}
        .stroke17 {fill: #808064;}
        .stroke18 {fill: #808063;}
        .stroke19 {fill: #808062;}
        .stroke20 {fill: #808061;}
        text {
            font-family: Helvetica;
            font-size: 50px;
            fill: #808060;
            paint-order: stroke;
            stroke: #000000;
            stroke-width: 4px;
            stroke-linecap: butt;
            stroke-linejoin: miter;
            font-weight: 800;
        }
    </style>

    <path d="M 351 656 Q 385 665 424 670 Q 458 677 463 682 Q 470 689 467 697 Q 460 707 434 715 Q 401 721 353 701 L 295 686 Q 252 679 201 674 Q 167 668 191 653 Q 224 632 282 643 Q 288 644 296 645 L 351 656 Z" class="stroke1"/>
    <path d="M 343 555 Q 427 576 432 580 Q 439 587 435 594 Q 428 604 403 609 Q 378 613 352 602 Q 349 601 347 600 L 296 583 Q 265 577 230 572 Q 199 566 222 552 Q 252 536 296 544 L 343 555 Z" class="stroke2"/>
    <path d="M 338 488 Q 339 522 343 555 L 347 600 Q 348 628 351 656 L 353 701 Q 354 710 355 718 Q 359 751 371 794 Q 374 804 354 820 Q 318 839 294 843 Q 278 847 270 838 Q 263 831 271 815 Q 290 787 292 766 Q 293 727 295 686 L 296 645 Q 296 615 296 583 L 296 544 Q 295 513 295 478 C 295 448 337 458 338 488 Z" class="stroke3"/>
    <path d="M 295 478 Q 148 447 76 438 Q 63 437 61 429 Q 58 419 73 407 Q 115 380 153 395 Q 315 450 481 475 Q 497 478 498 485 Q 499 498 481 506 Q 454 518 432 512 Q 380 499 338 488 L 295 478 Z" class="stroke4"/>
    <path d="M 238 181 Q 239 215 243 240 L 245 271 Q 248 314 251 329 L 251 337 C 252 351 252 351 240 361 Q 221 380 193 378 Q 180 374 185 363 Q 224 281 182 111 Q 163 54 163 51 Q 163 24 181 1 Q 187 -12 196 -7 Q 233 17 235 143 Q 235 147 236 151 L 238 181 Z" class="stroke5"/>
    <path d="M 251 337 Q 263 338 279 345 Q 349 364 361 359 Q 370 355 369 333 Q 379 197 369 90 Q 368 68 355 64 Q 348 63 305 76 Q 295 80 294 73 Q 294 66 307 55 Q 335 25 357 -4 Q 369 -20 383 -20 Q 396 -17 414 22 Q 436 62 433 102 Q 429 199 423 290 Q 420 326 436 354 Q 446 367 433 380 Q 417 393 380 405 Q 361 414 345 402 Q 335 396 313 387 Q 264 369 240 361 C 212 351 222 330 251 337 Z" class="stroke6"/>
    <path d="M 243 240 Q 292 247 328 250 Q 349 254 341 265 Q 331 278 309 282 Q 288 285 251 274 Q 247 273 245 271 C 220 255 213 236 243 240 Z" class="stroke7"/>
    <path d="M 236 151 Q 291 160 335 163 Q 356 166 349 177 Q 339 190 317 195 Q 278 201 238 181 C 211 168 206 146 236 151 Z" class="stroke8"/>
    <path d="M 563 685 Q 554 694 534 701 Q 525 705 514 701 Q 507 697 513 685 Q 514 678 518 669 Q 539 627 526 438 Q 507 348 527 314 Q 531 305 538 297 Q 548 284 558 296 Q 565 305 568 315 L 572 351 Q 572 361 573 436 L 573 467 Q 574 510 575 541 L 576 571 Q 577 634 579 641 Q 580 651 580 657 C 581 672 581 672 563 685 Z" class="stroke9"/>
    <path d="M 738 336 Q 739 329 746 320 Q 759 289 770 290 Q 785 291 802 326 Q 818 353 817 375 Q 790 606 832 669 Q 842 685 835 694 Q 807 719 758 738 Q 742 742 719 734 Q 674 710 563 685 C 534 678 551 651 580 657 Q 584 657 591 658 Q 726 703 736 689 Q 752 670 750 600 Q 751 405 740 368 Q 739 367 738 364 L 738 336 Z" class="stroke10"/>
    <path d="M 575 541 Q 579 541 584 542 Q 651 555 700 565 Q 724 572 714 584 Q 701 599 674 601 Q 635 604 576 571 C 550 557 545 539 575 541 Z" class="stroke11"/>
    <path d="M 573 436 Q 574 436 578 436 Q 650 449 703 458 Q 727 462 717 476 Q 705 491 679 494 Q 646 497 573 467 C 545 456 543 436 573 436 Z" class="stroke12"/>
    <path d="M 693 332 Q 712 335 738 336 C 768 337 761 345 738 364 Q 731 370 722 375 Q 706 384 675 375 Q 617 360 572 351 C 543 345 538 313 568 315 Q 572 315 579 316 Q 609 323 661 328 L 693 332 Z" class="stroke13"/>
    <path d="M 564 274 Q 580 163 427 20 Q 420 13 426 10 Q 453 6 516 59 Q 576 104 616 210 Q 623 228 633 244 Q 640 253 634 261 Q 628 270 601 284 Q 582 294 574 291 Q 562 288 564 274 Z" class="stroke14"/>
    <path d="M 661 328 Q 660 324 663 314 Q 675 274 670 238 Q 657 97 668 58 Q 671 36 690 19 Q 754 -45 912 -16 Q 913 -15 917 -15 Q 951 -6 986 16 Q 1007 34 991 61 Q 976 91 954 181 Q 953 197 945 202 Q 938 205 935 187 Q 911 90 894 59 Q 867 32 793 38 Q 765 41 741 51 Q 722 61 716 75 Q 695 126 727 285 Q 736 312 693 332 C 667 347 656 354 661 328 Z" class="stroke15"/>
    
    
    
    
    
    
    
    
    
    
    
    
    
    
    </g>
</svg>