<svg version="1.1" viewBox="0 0 1024 1024" xmlns="http://www.w3.org/2000/svg">
  
  <g transform="scale(1, -1) translate(0, -900)">
    <style type="text/css">
        .stroke1 {fill: #808080;}
        .stroke2 {fill: #808079;}
        .stroke3 {fill: #808078;}
        .stroke4 {fill: #808077;}
        .stroke5 {fill: #808076;}
        .stroke6 {fill: #808075;}
        .stroke7 {fill: #808074;}
        .stroke8 {fill: #808073;}
        .stroke9 {fill: #808072;}
        .stroke10 {fill: #808071;}
        .stroke11 {fill: #808070;}
        .stroke12 {fill: #808069;}
        .stroke13 {fill: #808068;}
        .stroke14 {fill: #808067;}
        .stroke15 {fill: #808066;}
        .stroke16 {fill: #808065;}
        .stroke17 {fill: #808064;}
        .stroke18 {fill: #808063;}
        .stroke19 {fill: #808062;}
        .stroke20 {fill: #808061;}
        text {
            font-family: Helvetica;
            font-size: 50px;
            fill: #808060;
            paint-order: stroke;
            stroke: #000000;
            stroke-width: 4px;
            stroke-linecap: butt;
            stroke-linejoin: miter;
            font-weight: 800;
        }
    </style>

    <path d="M 342 633 Q 394 642 438 649 Q 447 648 454 659 Q 455 668 436 676 Q 411 692 351 673 L 307 660 Q 297 659 289 656 Q 253 647 221 639 L 177 632 Q 137 626 95 619 Q 71 616 90 602 Q 117 584 143 589 Q 162 595 184 599 L 223 608 Q 257 617 302 625 L 342 633 Z" class="stroke1"/>
    <path d="M 221 639 L 221 647 Q 220 677 221 690 Q 225 706 214 714 Q 201 723 177 729 Q 159 733 143 723 Q 136 716 148 705 Q 166 687 177 632 L 184 599 Q 203 500 210 488 Q 216 479 222 486 Q 223 489 225 493 L 229 528 Q 229 547 226 563 Q 225 587 223 608 L 221 639 Z" class="stroke2"/>
    <path d="M 324 551 Q 333 594 342 633 L 351 673 Q 354 694 380 770 Q 384 777 370 791 Q 345 810 327 816 Q 315 820 308 814 Q 301 810 306 797 Q 318 773 316 759 Q 313 713 307 660 L 302 625 Q 296 589 291 549 C 287 519 318 522 324 551 Z" class="stroke3"/>
    <path d="M 244 504 Q 277 514 341 525 Q 348 526 349 533 Q 349 539 325 551 L 324 551 L 291 549 Q 254 536 229 528 C 182 513 215 495 244 504 Z" class="stroke4"/>
    <path d="M 144 408 Q 134 412 108 415 Q 98 416 96 412 Q 92 408 99 395 Q 121 359 139 298 Q 143 279 155 268 Q 170 252 173 265 Q 174 272 174 283 L 170 307 Q 157 364 154 384 C 150 406 150 406 144 408 Z" class="stroke5"/>
    <path d="M 368 349 Q 384 397 406 411 Q 418 424 407 437 Q 394 447 357 463 Q 345 469 280 442 L 238 429 Q 190 416 144 408 C 114 403 125 376 154 384 Q 160 385 170 389 Q 203 398 238 406 L 277 416 Q 331 429 339 423 Q 345 419 343 407 Q 339 377 332 352 C 324 323 358 321 368 349 Z" class="stroke6"/>
    <path d="M 272 303 Q 315 313 380 323 Q 387 324 389 332 Q 389 338 368 349 L 332 352 Q 328 352 326 351 Q 298 342 273 334 L 237 323 Q 200 314 170 307 C 141 300 144 282 174 283 Q 183 283 194 284 Q 210 290 235 295 L 272 303 Z" class="stroke7"/>
    <path d="M 270 202 Q 307 215 353 226 Q 366 230 367 236 Q 367 246 351 253 Q 321 262 270 241 L 231 227 Q 92 185 56 178 Q 46 175 43 169 Q 42 159 56 151 Q 86 136 134 150 Q 189 175 228 189 L 270 202 Z" class="stroke8"/>
    <path d="M 270 241 Q 270 272 272 303 L 273 334 Q 274 383 277 416 L 280 442 Q 283 475 279 479 Q 260 497 244 504 C 218 519 213 520 225 493 Q 237 475 238 429 L 238 406 Q 238 369 237 323 L 235 295 Q 234 282 234 266 Q 233 247 231 227 L 228 189 Q 219 84 212 65 Q 203 37 231 -10 Q 241 -26 247 -30 Q 257 -31 261 -20 Q 271 7 270 32 Q 269 122 270 202 L 270 241 Z" class="stroke9"/>
    <path d="M 520 573 Q 568 600 613 611 Q 626 612 629 620 Q 632 629 622 637 Q 568 667 544 663 Q 538 659 538 651 Q 541 621 400 542 Q 396 535 401 532 Q 402 532 493 562 L 520 573 Z" class="stroke10"/>
    <path d="M 539 445 Q 605 467 610 473 Q 614 479 611 484 Q 605 491 584 494 Q 563 495 544 484 Q 541 483 541 482 C 525 472 525 472 504 466 Q 498 465 494 462 Q 464 452 429 443 Q 405 436 425 426 Q 452 416 491 428 L 539 445 Z" class="stroke11"/>
    <path d="M 535 322 Q 536 353 537 383 Q 537 417 539 445 L 541 482 Q 542 519 547 539 Q 550 549 543 555 Q 530 567 520 573 C 496 591 485 591 493 562 Q 502 543 504 466 L 502 346 Q 502 183 480 101 Q 464 86 496 28 Q 496 25 499 22 Q 509 6 515 2 Q 525 1 529 12 Q 539 39 537 65 Q 534 192 535 302 L 535 322 Z" class="stroke12"/>
    <path d="M 491 428 Q 473 364 446 304 Q 415 235 334 109 Q 330 102 339 101 Q 360 101 443 228 Q 474 277 502 346 C 548 458 499 457 491 428 Z" class="stroke13"/>
    <path d="M 535 302 Q 592 245 600 245 Q 606 245 610 253 Q 613 260 609 279 Q 605 301 545 321 Q 538 322 535 322 C 514 323 514 323 535 302 Z" class="stroke14"/>
    <path d="M 592 414 Q 632 351 653 347 Q 663 346 670 359 Q 671 369 666 385 Q 656 415 598 434 Q 591 435 589 427 Q 588 421 592 414 Z" class="stroke15"/>
    <path d="M 749 427 Q 752 428 757 430 Q 854 506 901 535 Q 917 539 914 550 Q 908 565 890 582 Q 871 598 851 600 Q 838 600 838 581 Q 839 568 832 553 Q 804 513 750 449 C 731 426 724 418 749 427 Z" class="stroke16"/>
    <path d="M 742 347 Q 746 384 749 427 L 750 449 Q 750 456 751 464 Q 757 674 771 707 Q 777 720 767 730 Q 746 746 710 754 Q 688 758 680 753 Q 673 746 680 735 Q 737 654 701 347 Q 698 337 697 323 Q 673 191 565 90 Q 555 81 556 78 Q 557 74 568 76 Q 580 72 608 90 Q 705 139 735 295 L 737 307 L 742 347 Z" class="stroke17"/>
    <path d="M 737 307 Q 839 87 877 82 Q 925 83 966 85 Q 984 85 984 89 Q 987 93 968 108 Q 839 192 742 347 C 726 372 724 334 737 307 Z" class="stroke18"/>
    
    
    
    
    
    
    
    
    
    
    
    
    
    
    
    
    
    </g>
</svg>