<svg version="1.1" viewBox="0 0 1024 1024" xmlns="http://www.w3.org/2000/svg">
  
  <g transform="scale(1, -1) translate(0, -900)">
    <style type="text/css">
        .stroke1 {fill: #808080;}
        .stroke2 {fill: #808079;}
        .stroke3 {fill: #808078;}
        .stroke4 {fill: #808077;}
        .stroke5 {fill: #808076;}
        .stroke6 {fill: #808075;}
        .stroke7 {fill: #808074;}
        .stroke8 {fill: #808073;}
        .stroke9 {fill: #808072;}
        .stroke10 {fill: #808071;}
        .stroke11 {fill: #808070;}
        .stroke12 {fill: #808069;}
        .stroke13 {fill: #808068;}
        .stroke14 {fill: #808067;}
        .stroke15 {fill: #808066;}
        .stroke16 {fill: #808065;}
        .stroke17 {fill: #808064;}
        .stroke18 {fill: #808063;}
        .stroke19 {fill: #808062;}
        .stroke20 {fill: #808061;}
        text {
            font-family: Helvetica;
            font-size: 50px;
            fill: #808060;
            paint-order: stroke;
            stroke: #000000;
            stroke-width: 4px;
            stroke-linecap: butt;
            stroke-linejoin: miter;
            font-weight: 800;
        }
    </style>

    <path d="M 412 635 Q 443 642 474 647 Q 483 646 490 657 Q 491 667 471 675 Q 450 690 423 682 L 373 667 Q 279 640 272 638 L 230 627 Q 209 624 189 620 Q 149 613 102 605 Q 78 601 98 587 Q 125 569 161 576 Q 194 585 234 595 L 272 604 Q 315 616 367 627 L 412 635 Z" class="stroke1"/>
    <path d="M 272 638 Q 272 687 274 708 Q 280 724 269 732 Q 256 742 233 750 Q 215 754 199 746 Q 190 739 202 728 Q 220 704 230 627 L 234 595 Q 244 504 250 493 Q 256 484 262 490 Q 265 494 267 503 L 271 530 Q 271 542 272 604 L 272 638 Z" class="stroke2"/>
    <path d="M 392 555 L 412 635 L 423 682 Q 438 749 453 773 Q 457 782 443 797 Q 416 818 397 824 Q 384 830 376 823 Q 369 819 373 804 Q 386 780 384 764 Q 380 718 373 667 L 367 627 Q 361 593 354 554 C 349 524 385 526 392 555 Z" class="stroke3"/>
    <path d="M 306 508 Q 343 518 408 527 Q 415 528 417 536 Q 417 542 392 555 C 379 562 379 562 354 554 Q 309 539 271 530 C 242 523 238 510 267 503 L 275 501 L 306 508 Z" class="stroke4"/>
    <path d="M 192 420 Q 180 424 155 427 Q 145 428 142 425 Q 138 419 145 406 Q 167 370 183 310 Q 186 292 198 281 Q 214 263 217 277 Q 218 284 219 295 L 215 322 Q 205 376 203 395 C 200 418 200 418 192 420 Z" class="stroke5"/>
    <path d="M 436 370 Q 455 424 476 433 Q 488 448 476 461 Q 463 471 423 487 Q 410 493 393 486 Q 362 471 335 459 L 286 443 Q 238 430 192 420 C 163 414 175 383 203 395 Q 212 401 287 420 L 332 433 Q 351 440 375 446 Q 396 453 405 445 Q 412 438 399 377 C 393 348 426 342 436 370 Z" class="stroke6"/>
    <path d="M 327 320 Q 376 333 444 345 Q 453 346 453 354 Q 453 361 436 370 C 417 381 417 381 399 377 Q 380 374 328 353 L 286 341 Q 249 331 215 322 C 186 314 190 289 219 295 Q 220 295 285 310 L 327 320 Z" class="stroke7"/>
    <path d="M 326 231 Q 374 244 432 257 Q 447 260 447 267 Q 447 279 430 285 Q 400 295 326 269 L 282 256 Q 162 220 61 199 Q 51 198 48 190 Q 47 180 60 171 Q 97 147 133 164 Q 245 210 280 217 L 326 231 Z" class="stroke8"/>
    <path d="M 326 269 Q 326 296 327 320 L 328 353 Q 329 402 332 433 L 335 459 Q 336 466 337 471 Q 340 483 333 488 Q 318 501 306 508 C 281 525 265 529 275 501 Q 284 485 286 443 L 287 420 Q 287 386 286 341 L 285 310 Q 284 297 284 280 L 282 256 L 280 217 Q 271 103 264 82 Q 255 46 286 -1 Q 296 -19 303 -22 Q 313 -23 319 -11 Q 331 19 328 47 Q 327 144 326 231 L 326 269 Z" class="stroke9"/>
    <path d="M 591 734 Q 558 727 582 713 Q 624 692 672 707 Q 730 720 792 735 Q 820 742 824 746 Q 831 753 827 761 Q 820 771 793 778 Q 766 782 739 770 Q 708 758 673 749 Q 636 739 591 734 Z" class="stroke10"/>
    <path d="M 543 622 Q 531 626 515 627 Q 505 628 502 624 Q 498 620 505 606 Q 532 558 551 480 Q 555 456 570 441 Q 586 423 589 437 Q 590 444 591 453 L 589 479 Q 577 516 564 592 C 560 617 560 617 543 622 Z" class="stroke11"/>
    <path d="M 761 477 Q 771 458 785 450 Q 794 443 808 461 Q 818 476 848 563 Q 857 590 877 611 Q 889 621 880 634 Q 867 649 831 673 Q 816 680 746 664 Q 740 664 736 662 Q 682 650 543 622 C 514 616 536 581 564 592 Q 564 593 566 594 Q 603 606 656 617 L 692 624 Q 780 645 798 634 Q 808 627 804 613 Q 785 528 777 516 Q 774 507 758 503 C 747 498 747 498 761 477 Z" class="stroke12"/>
    <path d="M 701 552 Q 720 558 743 561 Q 761 565 753 574 Q 744 584 724 587 Q 715 588 704 585 L 660 572 Q 635 562 613 554 Q 600 550 616 540 Q 617 540 661 543 L 701 552 Z" class="stroke13"/>
    <path d="M 698 500 Q 699 528 701 552 L 704 585 Q 705 589 705 592 Q 711 605 704 613 Q 698 620 692 624 C 668 642 655 647 656 617 Q 656 611 660 572 L 661 543 Q 661 522 663 492 C 665 462 697 470 698 500 Z" class="stroke14"/>
    <path d="M 591 453 Q 645 466 761 477 C 791 480 783 486 758 503 Q 757 504 754 506 Q 739 513 698 500 L 663 492 Q 623 486 589 479 C 560 473 562 446 591 453 Z" class="stroke15"/>
    <path d="M 497 381 Q 481 380 493 366 Q 503 356 517 353 Q 533 349 545 353 Q 692 398 921 399 Q 936 400 939 406 Q 943 416 930 425 Q 885 455 845 442 Q 701 412 497 381 Z" class="stroke16"/>
    <path d="M 532 302 Q 522 306 507 308 Q 497 309 494 306 Q 490 300 497 287 Q 521 239 537 161 Q 540 137 554 121 Q 570 103 574 117 L 576 129 L 575 156 Q 571 174 554 273 C 550 296 550 296 532 302 Z" class="stroke17"/>
    <path d="M 753 154 Q 768 133 781 126 Q 790 120 802 138 Q 812 154 833 249 Q 840 276 859 297 Q 869 307 860 320 Q 847 333 810 354 Q 797 360 723 343 Q 720 343 718 342 Q 610 318 532 302 C 503 296 525 264 554 273 Q 590 285 643 296 L 676 303 Q 761 324 780 312 Q 790 305 788 290 Q 773 190 764 180 C 753 154 753 154 753 154 Z" class="stroke18"/>
    <path d="M 688 225 Q 713 231 738 235 Q 754 238 749 247 Q 742 257 723 260 Q 710 261 691 257 L 646 243 Q 618 236 593 229 Q 581 225 596 215 Q 597 215 647 218 L 688 225 Z" class="stroke19"/>
    <path d="M 683 177 Q 686 202 688 225 L 691 257 Q 695 284 691 289 Q 684 296 676 303 C 654 323 636 325 643 296 Q 646 290 646 243 L 647 218 Q 647 199 647 169 C 647 139 679 147 683 177 Z" class="stroke20"/>
    <path d="M 576 129 Q 580 128 590 130 Q 642 143 753 154 C 783 157 788 162 764 180 L 756 186 Q 743 193 683 177 L 647 169 Q 608 163 575 156 C 546 150 546 130 576 129 Z" class="stroke21"/>
    <path d="M 416 53 Q 397 52 411 35 Q 424 22 441 16 Q 462 10 477 14 Q 622 50 899 51 Q 915 51 930 50 Q 949 50 954 58 Q 960 68 944 82 Q 893 121 858 113 Q 750 92 416 53 Z" class="stroke22"/>
    
    
    
    
    
    
    
    
    
    
    
    
    
    
    
    
    
    
    
    
    
    </g>
</svg>