<svg version="1.1" viewBox="0 0 1024 1024" xmlns="http://www.w3.org/2000/svg">
  
  <g transform="scale(1, -1) translate(0, -900)">
    <style type="text/css">
        .stroke1 {fill: #808080;}
        .stroke2 {fill: #808079;}
        .stroke3 {fill: #808078;}
        .stroke4 {fill: #808077;}
        .stroke5 {fill: #808076;}
        .stroke6 {fill: #808075;}
        .stroke7 {fill: #808074;}
        .stroke8 {fill: #808073;}
        .stroke9 {fill: #808072;}
        .stroke10 {fill: #808071;}
        .stroke11 {fill: #808070;}
        .stroke12 {fill: #808069;}
        .stroke13 {fill: #808068;}
        .stroke14 {fill: #808067;}
        .stroke15 {fill: #808066;}
        .stroke16 {fill: #808065;}
        .stroke17 {fill: #808064;}
        .stroke18 {fill: #808063;}
        .stroke19 {fill: #808062;}
        .stroke20 {fill: #808061;}
        text {
            font-family: Helvetica;
            font-size: 50px;
            fill: #808060;
            paint-order: stroke;
            stroke: #000000;
            stroke-width: 4px;
            stroke-linecap: butt;
            stroke-linejoin: miter;
            font-weight: 800;
        }
    </style>

    <path d="M 319 657 Q 335 685 353 700 Q 362 710 357 722 Q 353 735 327 756 Q 302 772 284 773 Q 266 772 274 750 Q 289 717 276 690 Q 206 527 42 337 Q 33 327 31 321 Q 27 311 41 313 Q 101 331 259 558 Q 278 589 301 625 Q 302 631 307 636 L 319 657 Z" class="stroke1"/>
    <path d="M 307 636 Q 365 599 438 544 Q 453 531 465 530 Q 472 530 476 538 Q 483 550 469 581 Q 450 624 319 657 C 290 664 282 652 307 636 Z" class="stroke2"/>
    <path d="M 230 453 Q 196 444 222 430 Q 267 411 317 427 Q 357 437 399 448 Q 418 454 421 457 Q 428 464 424 473 Q 417 483 387 489 Q 363 492 289 465 Q 262 458 230 453 Z" class="stroke3"/>
    <path d="M 224 325 Q 212 331 177 336 Q 165 339 163 333 Q 157 327 165 313 Q 196 253 215 155 Q 219 125 236 106 Q 254 87 258 101 Q 264 119 260 148 L 253 182 Q 237 261 232 292 C 227 322 227 324 224 325 Z" class="stroke4"/>
    <path d="M 418 207 Q 440 273 470 295 Q 486 314 472 330 Q 456 343 405 367 Q 387 374 367 366 Q 313 342 224 325 C 195 319 203 286 232 292 Q 322 310 359 317 Q 372 320 378 314 Q 388 305 385 287 Q 378 247 369 211 C 362 182 408 179 418 207 Z" class="stroke5"/>
    <path d="M 260 148 Q 329 169 401 170 L 404 169 L 407 169 Q 419 173 433 173 Q 443 174 444 184 Q 444 191 418 207 L 369 211 L 367 211 Q 303 193 253 182 C 224 175 231 139 260 148 Z" class="stroke6"/>
    <path d="M 677 697 Q 723 712 892 719 Q 938 719 944 729 Q 948 739 933 751 Q 888 782 828 768 Q 753 752 514 704 Q 495 701 510 687 Q 523 675 540 671 Q 559 667 573 672 Q 604 682 639 689 L 677 697 Z" class="stroke7"/>
    <path d="M 647 569 Q 686 629 701 647 Q 714 657 707 668 Q 700 681 677 697 C 653 714 634 719 639 689 Q 645 665 621 585 Q 615 575 612 564 C 603 535 631 544 647 569 Z" class="stroke8"/>
    <path d="M 580 559 Q 571 568 549 577 Q 540 581 531 577 Q 525 573 530 563 Q 531 556 534 550 Q 553 511 543 345 Q 527 267 554 234 L 556 232 Q 565 222 573 232 Q 577 239 581 248 L 585 278 Q 585 287 586 355 L 586 376 Q 586 416 586 444 L 587 465 Q 587 498 589 530 C 590 551 590 551 580 559 Z" class="stroke9"/>
    <path d="M 786 267 Q 787 254 796 241 Q 809 213 818 214 Q 831 215 847 247 Q 860 272 859 292 Q 849 365 851 476 Q 850 509 868 537 Q 878 552 871 562 Q 795 625 744 595 Q 710 583 668 574 Q 658 573 647 569 L 612 564 Q 596 563 580 559 C 551 553 559 526 589 530 Q 595 530 602 531 Q 687 552 750 562 Q 772 566 779 554 Q 792 538 793 480 Q 797 330 790 290 L 786 267 Z" class="stroke10"/>
    <path d="M 586 444 Q 593 443 604 444 Q 677 456 732 462 Q 753 466 745 477 Q 735 490 713 494 Q 686 497 587 465 C 558 456 556 447 586 444 Z" class="stroke11"/>
    <path d="M 586 355 L 739 371 Q 760 374 753 385 Q 743 398 721 403 Q 697 409 586 376 C 557 367 556 352 586 355 Z" class="stroke12"/>
    <path d="M 581 248 Q 591 245 604 247 Q 661 260 786 267 C 816 269 813 271 790 290 Q 783 296 772 303 Q 756 312 728 305 Q 647 287 585 278 C 555 274 552 254 581 248 Z" class="stroke13"/>
    <path d="M 602 190 Q 586 127 426 8 Q 404 -5 431 -4 Q 492 -4 620 106 L 670 151 Q 682 161 680 172 Q 677 185 653 194 Q 625 206 613 204 Q 606 203 602 190 Z" class="stroke14"/>
    <path d="M 753 163 Q 802 105 859 21 Q 872 -1 888 -8 Q 895 -11 905 -2 Q 920 10 913 56 Q 909 114 763 192 Q 760 193 759 194 Q 750 201 747 188 Q 744 175 753 163 Z" class="stroke15"/>
    
    
    
    
    
    
    
    
    
    
    
    
    
    
    </g>
</svg>