<svg version="1.1" viewBox="0 0 1024 1024" xmlns="http://www.w3.org/2000/svg">
  
  <g transform="scale(1, -1) translate(0, -900)">
    <style type="text/css">
        .stroke1 {fill: #808080;}
        .stroke2 {fill: #808079;}
        .stroke3 {fill: #808078;}
        .stroke4 {fill: #808077;}
        .stroke5 {fill: #808076;}
        .stroke6 {fill: #808075;}
        .stroke7 {fill: #808074;}
        .stroke8 {fill: #808073;}
        .stroke9 {fill: #808072;}
        .stroke10 {fill: #808071;}
        .stroke11 {fill: #808070;}
        .stroke12 {fill: #808069;}
        .stroke13 {fill: #808068;}
        .stroke14 {fill: #808067;}
        .stroke15 {fill: #808066;}
        .stroke16 {fill: #808065;}
        .stroke17 {fill: #808064;}
        .stroke18 {fill: #808063;}
        .stroke19 {fill: #808062;}
        .stroke20 {fill: #808061;}
        text {
            font-family: Helvetica;
            font-size: 50px;
            fill: #808060;
            paint-order: stroke;
            stroke: #000000;
            stroke-width: 4px;
            stroke-linecap: butt;
            stroke-linejoin: miter;
            font-weight: 800;
        }
    </style>

    <path d="M 341 716 Q 353 737 366 750 Q 376 762 370 776 Q 364 789 334 811 Q 304 829 285 827 Q 266 824 275 801 Q 293 767 281 736 Q 245 633 187 537 Q 132 443 53 341 Q 43 329 41 323 Q 38 311 53 314 Q 107 329 254 557 Q 284 608 316 667 Q 323 683 330 696 L 341 716 Z" class="stroke1"/>
    <path d="M 330 696 Q 331 695 335 692 Q 389 661 455 612 Q 471 597 484 597 Q 491 597 496 606 Q 505 619 487 653 Q 471 692 341 716 C 312 722 307 715 330 696 Z" class="stroke2"/>
    <path d="M 309 555 Q 352 512 376 503 Q 389 502 396 512 Q 400 522 397 537 Q 391 556 376 566 Q 352 581 318 587 Q 305 591 297 587 Q 291 586 294 575 Q 295 566 309 555 Z" class="stroke3"/>
    <path d="M 251 380 Q 330 413 367 421 Q 379 424 381 420 Q 385 417 379 404 Q 357 355 344 339 Q 329 323 333 290 Q 337 265 362 283 Q 378 298 418 373 Q 437 412 458 425 Q 474 432 464 444 Q 455 456 422 467 Q 404 474 385 461 Q 366 449 269 419 Q 226 409 195 407 Q 185 406 185 399 Q 184 389 203 380 Q 230 371 251 380 Z" class="stroke4"/>
    <path d="M 223 223 Q 211 229 180 231 Q 168 234 165 228 Q 159 221 169 206 Q 197 158 219 78 Q 223 53 239 38 Q 258 17 262 34 Q 266 50 262 77 L 255 108 Q 239 178 237 199 C 235 219 235 219 223 223 Z" class="stroke5"/>
    <path d="M 423 130 Q 444 190 471 208 Q 484 224 472 239 Q 457 251 412 272 Q 396 279 378 271 Q 314 243 223 223 C 194 216 209 188 237 199 Q 237 200 240 201 Q 379 237 389 230 Q 396 223 393 208 Q 386 171 376 139 C 367 110 413 102 423 130 Z" class="stroke6"/>
    <path d="M 262 77 Q 266 77 272 78 Q 321 91 430 103 Q 440 104 440 113 Q 440 119 423 130 L 376 139 Q 372 139 368 137 Q 305 119 255 108 C 226 101 232 75 262 77 Z" class="stroke7"/>
    <path d="M 668 680 Q 878 723 887 730 Q 894 737 891 745 Q 884 755 858 763 Q 831 769 739 738 Q 646 714 561 706 Q 527 700 551 685 Q 575 669 623 671 L 668 680 Z" class="stroke8"/>
    <path d="M 620 543 Q 644 576 662 606 Q 669 619 684 634 Q 697 646 690 655 Q 684 668 668 680 C 644 699 622 701 623 671 Q 626 641 593 557 Q 587 547 585 537 C 578 508 602 519 620 543 Z" class="stroke9"/>
    <path d="M 568 535 Q 559 544 536 553 Q 527 557 517 553 Q 511 549 516 538 Q 517 531 521 524 Q 545 485 533 316 Q 518 232 538 201 Q 541 195 547 188 Q 557 178 566 188 Q 573 198 575 210 L 577 241 Q 578 256 578 274 Q 577 298 577 319 L 577 339 Q 577 384 577 415 L 577 436 Q 577 502 579 507 C 581 525 581 525 568 535 Z" class="stroke10"/>
    <path d="M 778 228 Q 777 213 787 199 Q 800 169 810 170 Q 825 171 841 204 Q 856 231 854 252 Q 844 330 847 450 Q 847 484 866 515 Q 876 531 869 540 Q 842 564 795 584 Q 779 590 757 581 Q 732 569 620 543 L 585 537 Q 576 537 568 535 C 538 531 549 504 579 507 Q 586 507 594 508 Q 762 551 773 534 Q 788 516 787 454 Q 788 286 781 247 L 778 228 Z" class="stroke11"/>
    <path d="M 577 415 Q 607 408 690 426 Q 700 429 713 432 Q 729 436 732 439 Q 739 445 735 451 Q 729 460 707 464 Q 685 468 662 457 Q 644 450 624 445 Q 602 439 577 436 C 547 432 548 420 577 415 Z" class="stroke12"/>
    <path d="M 577 319 Q 602 310 673 321 Q 736 333 739 335 Q 746 341 742 347 Q 738 356 715 362 Q 709 363 629 346 Q 605 342 578 340 Q 577 340 577 339 C 548 331 548 327 577 319 Z" class="stroke13"/>
    <path d="M 575 210 Q 584 209 596 211 Q 653 220 778 228 C 800 229 800 229 781 247 Q 774 254 760 264 Q 745 273 716 266 Q 640 250 577 241 C 547 237 545 211 575 210 Z" class="stroke14"/>
    <path d="M 574 149 Q 556 79 397 -40 Q 376 -53 403 -52 Q 485 -45 643 112 Q 653 122 652 132 Q 651 145 625 154 Q 597 166 585 163 Q 578 162 574 149 Z" class="stroke15"/>
    <path d="M 742 123 Q 782 65 827 -16 Q 837 -38 852 -47 Q 859 -50 869 -42 Q 885 -32 882 13 Q 882 53 822 100 Q 810 112 750 153 Q 743 160 738 148 Q 734 135 742 123 Z" class="stroke16"/>
    
    
    
    
    
    
    
    
    
    
    
    
    
    
    
    </g>
</svg>