<svg version="1.1" viewBox="0 0 1024 1024" xmlns="http://www.w3.org/2000/svg">
  
  <g transform="scale(1, -1) translate(0, -900)">
    <style type="text/css">
        .stroke1 {fill: #808080;}
        .stroke2 {fill: #808079;}
        .stroke3 {fill: #808078;}
        .stroke4 {fill: #808077;}
        .stroke5 {fill: #808076;}
        .stroke6 {fill: #808075;}
        .stroke7 {fill: #808074;}
        .stroke8 {fill: #808073;}
        .stroke9 {fill: #808072;}
        .stroke10 {fill: #808071;}
        .stroke11 {fill: #808070;}
        .stroke12 {fill: #808069;}
        .stroke13 {fill: #808068;}
        .stroke14 {fill: #808067;}
        .stroke15 {fill: #808066;}
        .stroke16 {fill: #808065;}
        .stroke17 {fill: #808064;}
        .stroke18 {fill: #808063;}
        .stroke19 {fill: #808062;}
        .stroke20 {fill: #808061;}
        text {
            font-family: Helvetica;
            font-size: 50px;
            fill: #808060;
            paint-order: stroke;
            stroke: #000000;
            stroke-width: 4px;
            stroke-linecap: butt;
            stroke-linejoin: miter;
            font-weight: 800;
        }
    </style>

    <path d="M 254 741 Q 220 732 246 718 Q 291 699 341 715 Q 399 731 461 748 Q 489 757 493 761 Q 500 768 496 777 Q 489 787 459 793 Q 441 794 359 766 Q 269 745 254 741 Z" class="stroke1"/>
    <path d="M 191 616 Q 176 544 142 502 Q 133 493 133 485 Q 133 475 155 459 Q 174 443 204 409 Q 216 391 226 394 Q 239 395 245 412 Q 251 434 244 448 Q 234 469 177 480 Q 165 484 171 501 Q 175 513 206 551 Q 236 588 248 599 Q 258 603 259 610 Q 263 625 241 645 Q 222 664 206 667 Q 190 668 184 663 Q 181 659 187 651 Q 194 638 191 616 Z" class="stroke2"/>
    <path d="M 304 626 Q 300 572 269 525 Q 262 516 261 508 Q 261 498 283 483 Q 302 470 328 440 Q 341 422 351 426 Q 364 427 369 444 Q 373 466 367 480 Q 358 498 305 507 Q 290 510 298 524 Q 302 534 328 569 Q 352 603 362 612 Q 372 616 373 623 Q 376 639 353 657 Q 334 675 317 678 Q 301 679 295 672 Q 294 668 298 660 Q 308 648 304 626 Z" class="stroke3"/>
    <path d="M 428 620 Q 421 580 399 542 Q 392 529 396 518 Q 399 508 415 499 Q 445 477 471 451 Q 487 436 501 437 Q 513 440 514 461 Q 514 483 501 497 Q 494 506 459 510 Q 440 513 432 524 Q 425 533 436 547 Q 448 560 467 591 Q 483 616 496 628 Q 509 638 501 654 Q 485 685 460 696 Q 447 703 435 699 Q 425 696 432 679 Q 442 657 428 620 Z" class="stroke4"/>
    <path d="M 328 322 Q 434 356 437 358 Q 444 365 440 374 Q 433 384 405 388 Q 377 391 351 377 Q 318 364 283 351 Q 244 339 197 331 Q 164 322 190 309 Q 226 291 287 310 L 328 322 Z" class="stroke5"/>
    <path d="M 340 216 Q 349 300 348 303 Q 338 313 328 322 C 306 342 286 340 287 310 Q 287 306 294 204 C 296 174 337 186 340 216 Z" class="stroke6"/>
    <path d="M 294 204 Q 221 185 142 165 Q 120 158 80 160 Q 67 159 65 149 Q 62 136 71 126 Q 93 108 127 88 Q 137 84 150 93 Q 201 127 413 204 Q 446 219 480 235 Q 493 242 495 252 Q 489 258 476 256 Q 410 237 340 216 L 294 204 Z" class="stroke7"/>
    <path d="M 693 720 Q 775 736 861 751 Q 918 763 926 770 Q 935 777 930 785 Q 924 795 898 804 Q 873 810 773 779 Q 653 752 541 741 Q 508 737 531 721 Q 567 697 643 712 L 645 712 L 693 720 Z" class="stroke8"/>
    <path d="M 652 597 Q 655 603 659 608 Q 672 627 687 653 Q 694 665 706 679 Q 719 691 711 700 Q 705 710 693 720 C 670 740 642 742 645 712 Q 649 688 624 609 Q 620 600 617 591 C 607 563 637 571 652 597 Z" class="stroke9"/>
    <path d="M 576 586 Q 569 593 556 597 Q 547 601 537 597 Q 531 593 536 582 Q 537 575 542 567 Q 566 522 552 336 Q 549 312 543 283 Q 531 235 563 197 Q 573 185 582 196 Q 586 203 589 211 L 593 243 Q 594 268 595 346 L 595 370 Q 595 418 595 451 L 596 476 Q 596 537 598 543 Q 599 555 598 561 C 598 571 598 571 576 586 Z" class="stroke10"/>
    <path d="M 785 233 Q 786 220 795 207 Q 808 177 818 178 Q 833 179 849 212 Q 864 239 862 260 Q 850 351 852 491 Q 852 531 874 567 Q 884 582 877 591 Q 805 654 753 623 Q 696 605 652 597 L 617 591 Q 596 590 576 586 C 546 581 569 554 598 561 Q 686 583 752 594 Q 774 598 782 587 Q 798 565 798 494 Q 799 299 788 255 L 785 233 Z" class="stroke11"/>
    <path d="M 595 451 Q 622 447 682 456 Q 743 468 751 471 Q 758 477 754 483 Q 750 492 727 498 Q 717 501 642 483 Q 621 480 596 476 C 566 471 565 455 595 451 Z" class="stroke12"/>
    <path d="M 595 346 Q 649 334 759 361 Q 766 368 762 375 Q 756 384 733 390 Q 721 393 645 375 Q 623 371 595 370 C 565 369 566 352 595 346 Z" class="stroke13"/>
    <path d="M 589 211 Q 599 223 785 233 C 806 234 806 234 788 255 Q 784 261 774 267 Q 761 274 733 269 Q 657 251 593 243 C 563 239 563 197 589 211 Z" class="stroke14"/>
    <path d="M 594 175 Q 570 109 387 7 Q 363 -3 391 -5 Q 463 -8 594 83 Q 610 101 658 130 Q 670 139 669 149 Q 668 162 645 174 Q 620 189 607 188 Q 600 188 594 175 Z" class="stroke15"/>
    <path d="M 729 150 Q 781 83 843 -13 Q 856 -37 871 -44 Q 880 -47 889 -38 Q 905 -26 899 22 Q 895 86 735 182 Q 728 189 723 176 Q 719 163 729 150 Z" class="stroke16"/>
    
    
    
    
    
    
    
    
    
    
    
    
    
    
    
    </g>
</svg>