<svg version="1.1" viewBox="0 0 1024 1024" xmlns="http://www.w3.org/2000/svg">
  
  <g transform="scale(1, -1) translate(0, -900)">
    <style type="text/css">
        .stroke1 {fill: #808080;}
        .stroke2 {fill: #808079;}
        .stroke3 {fill: #808078;}
        .stroke4 {fill: #808077;}
        .stroke5 {fill: #808076;}
        .stroke6 {fill: #808075;}
        .stroke7 {fill: #808074;}
        .stroke8 {fill: #808073;}
        .stroke9 {fill: #808072;}
        .stroke10 {fill: #808071;}
        .stroke11 {fill: #808070;}
        .stroke12 {fill: #808069;}
        .stroke13 {fill: #808068;}
        .stroke14 {fill: #808067;}
        .stroke15 {fill: #808066;}
        .stroke16 {fill: #808065;}
        .stroke17 {fill: #808064;}
        .stroke18 {fill: #808063;}
        .stroke19 {fill: #808062;}
        .stroke20 {fill: #808061;}
        text {
            font-family: Helvetica;
            font-size: 50px;
            fill: #808060;
            paint-order: stroke;
            stroke: #000000;
            stroke-width: 4px;
            stroke-linecap: butt;
            stroke-linejoin: miter;
            font-weight: 800;
        }
    </style>

    <path d="M 336 734 Q 387 764 437 778 Q 453 779 456 787 Q 457 797 446 807 Q 427 820 384 832 Q 369 838 358 836 Q 351 832 351 822 Q 352 785 180 687 Q 176 678 181 676 Q 202 676 273 708 Q 286 714 301 719 L 336 734 Z" class="stroke1"/>
    <path d="M 358 599 Q 401 611 448 621 Q 463 624 463 631 Q 463 643 446 649 Q 413 661 363 638 L 318 624 Q 155 573 61 555 Q 51 554 48 546 Q 47 536 60 527 Q 94 506 133 520 Q 205 551 259 569 L 358 599 Z" class="stroke2"/>
    <path d="M 353 535 Q 354 568 358 599 L 363 638 Q 363 641 364 643 Q 364 664 379 691 Q 383 700 375 711 Q 356 724 336 734 C 309 748 287 746 301 719 Q 317 694 318 624 L 317 581 Q 317 487 310 453 Q 309 444 323 409 Q 330 396 343 403 Q 352 412 353 518 L 353 535 Z" class="stroke3"/>
    <path d="M 259 569 Q 205 464 69 355 Q 54 343 68 343 Q 78 342 110 358 Q 150 374 187 406 Q 218 434 252 478 Q 280 514 296 545 Q 309 572 317 581 C 335 605 299 644 259 569 Z" class="stroke4"/>
    <path d="M 353 518 Q 359 511 378 501 Q 406 485 435 465 Q 447 458 459 460 Q 466 461 469 472 Q 470 484 460 506 Q 448 528 368 537 Q 356 538 353 535 C 341 530 341 530 353 518 Z" class="stroke5"/>
    <path d="M 192 311 Q 208 280 188 160 Q 181 136 168 109 Q 158 88 105 34 Q 92 24 88 19 Q 87 13 96 13 Q 121 12 169 48 Q 229 103 260 282 Q 267 298 250 309 Q 211 334 198 332 Q 180 331 192 311 Z" class="stroke6"/>
    <path d="M 378 321 Q 382 339 370 349 Q 348 373 331 376 Q 321 379 315 374 Q 305 368 315 356 Q 331 323 330 295 Q 330 195 322 163 Q 321 135 310 119 Q 300 100 310 80 Q 323 52 339 43 Q 349 36 359 55 Q 383 103 468 228 Q 480 244 480 251 Q 479 264 462 249 Q 423 212 380 169 Q 373 162 370 163 Q 366 164 364 171 Q 371 291 378 321 Z" class="stroke7"/>
    <path d="M 658 695 Q 878 740 886 746 Q 895 753 891 761 Q 884 771 858 779 Q 830 786 729 753 Q 606 726 521 718 Q 487 714 511 697 Q 542 676 616 688 Q 617 688 619 688 L 658 695 Z" class="stroke8"/>
    <path d="M 625 562 Q 626 568 631 572 Q 646 593 662 620 Q 669 632 681 647 Q 694 657 687 668 Q 680 681 658 695 C 633 712 614 718 619 688 Q 625 663 596 573 Q 592 564 589 555 C 579 527 615 534 625 562 Z" class="stroke9"/>
    <path d="M 539 548 Q 523 558 509 553 Q 503 549 509 538 Q 510 531 513 525 Q 534 486 524 317 Q 508 241 537 202 L 539 200 Q 549 190 558 200 Q 562 207 565 215 L 569 246 Q 570 262 570 284 Q 569 312 569 336 L 569 352 Q 569 404 569 438 L 569 458 Q 569 495 570 499 Q 571 514 570 520 C 570 533 566 535 539 548 Z" class="stroke10"/>
    <path d="M 772 238 Q 773 225 782 210 Q 797 182 806 182 Q 821 183 836 217 Q 851 244 849 264 Q 818 475 855 536 Q 865 552 857 561 Q 829 585 782 603 Q 766 609 744 599 Q 702 580 646 567 Q 634 566 625 562 L 589 555 Q 561 552 539 548 C 509 543 542 509 570 520 Q 577 529 731 560 Q 753 564 762 553 Q 777 534 778 471 Q 784 290 775 255 Q 774 255 774 254 C 771 240 771 240 772 238 Z" class="stroke11"/>
    <path d="M 569 438 Q 594 432 664 442 Q 736 460 739 460 Q 746 466 742 472 Q 738 479 717 485 Q 708 486 628 467 Q 601 461 569 458 C 539 455 540 444 569 438 Z" class="stroke12"/>
    <path d="M 569 336 Q 599 324 691 341 Q 704 344 720 346 Q 739 350 743 352 Q 749 358 746 364 Q 742 371 721 377 Q 708 380 632 361 Q 605 357 573 354 Q 570 354 569 352 C 547 343 547 343 569 336 Z" class="stroke13"/>
    <path d="M 565 215 Q 571 215 577 216 Q 638 229 769 238 Q 770 239 772 238 C 789 239 789 239 774 254 Q 768 261 754 271 Q 741 278 713 273 Q 634 254 569 246 C 539 242 535 214 565 215 Z" class="stroke14"/>
    <path d="M 578 177 Q 560 107 401 -12 Q 380 -25 407 -24 Q 489 -17 647 140 Q 657 150 656 160 Q 655 173 629 182 Q 601 194 589 191 Q 582 190 578 177 Z" class="stroke15"/>
    <path d="M 728 151 Q 783 82 844 -14 Q 857 -36 871 -44 Q 880 -47 889 -38 Q 904 -26 899 20 Q 896 77 735 182 Q 726 189 722 176 Q 719 163 728 151 Z" class="stroke16"/>
    
    
    
    
    
    
    
    
    
    
    
    
    
    
    
    </g>
</svg>