<svg version="1.1" viewBox="0 0 1024 1024" xmlns="http://www.w3.org/2000/svg">
  
  <g transform="scale(1, -1) translate(0, -900)">
    <style type="text/css">
        .stroke1 {fill: #808080;}
        .stroke2 {fill: #808079;}
        .stroke3 {fill: #808078;}
        .stroke4 {fill: #808077;}
        .stroke5 {fill: #808076;}
        .stroke6 {fill: #808075;}
        .stroke7 {fill: #808074;}
        .stroke8 {fill: #808073;}
        .stroke9 {fill: #808072;}
        .stroke10 {fill: #808071;}
        .stroke11 {fill: #808070;}
        .stroke12 {fill: #808069;}
        .stroke13 {fill: #808068;}
        .stroke14 {fill: #808067;}
        .stroke15 {fill: #808066;}
        .stroke16 {fill: #808065;}
        .stroke17 {fill: #808064;}
        .stroke18 {fill: #808063;}
        .stroke19 {fill: #808062;}
        .stroke20 {fill: #808061;}
        text {
            font-family: Helvetica;
            font-size: 50px;
            fill: #808060;
            paint-order: stroke;
            stroke: #000000;
            stroke-width: 4px;
            stroke-linecap: butt;
            stroke-linejoin: miter;
            font-weight: 800;
        }
    </style>

    <path d="M 343 812 Q 368 793 396 768 Q 409 758 423 759 Q 433 760 437 772 Q 441 785 431 813 Q 418 843 336 855 Q 321 858 316 855 Q 312 851 314 839 Q 318 829 343 812 Z" class="stroke1"/>
    <path d="M 413 674 Q 462 684 502 691 Q 512 690 518 701 Q 519 711 499 719 Q 469 734 413 714 Q 317 689 182 661 Q 158 657 178 643 Q 205 625 240 632 Q 301 650 381 667 L 413 674 Z" class="stroke2"/>
    <path d="M 390 584 Q 405 603 424 631 Q 428 638 432 641 Q 436 645 436 651 Q 433 666 413 674 C 386 687 383 688 381 667 Q 382 652 353 591 L 333 562 Q 327 556 322 549 Q 303 527 257 484 Q 251 480 258 479 Q 297 479 362 551 L 390 584 Z" class="stroke3"/>
    <path d="M 362 551 Q 437 523 441 522 Q 445 523 448 530 Q 451 540 435 560 Q 420 578 390 584 L 353 591 Q 331 598 262 602 Q 256 603 258 595 Q 258 592 333 562 L 362 551 Z" class="stroke4"/>
    <path d="M 244 407 Q 245 408 247 407 Q 262 407 413 449 Q 477 468 485 475 Q 491 482 487 487 Q 481 496 459 500 Q 440 501 347 465 Q 292 447 239 435 C 210 428 214 405 244 407 Z" class="stroke5"/>
    <path d="M 239 435 Q 227 447 210 457 Q 195 467 185 464 Q 175 460 178 448 Q 208 390 135 189 Q 132 185 130 178 Q 102 121 40 37 Q 36 33 33 27 Q 30 20 39 20 Q 66 20 135 111 Q 141 121 147 130 Q 196 217 235 382 Q 238 394 244 407 C 251 424 251 424 239 435 Z" class="stroke6"/>
    <path d="M 351 402 Q 347 356 239 254 Q 224 241 244 245 Q 298 252 376 345 Q 395 369 406 379 Q 413 389 411 395 Q 408 405 388 410 Q 367 416 358 413 Q 352 412 351 402 Z" class="stroke7"/>
    <path d="M 366 286 Q 354 241 244 153 Q 228 143 248 144 Q 311 153 386 227 Q 408 249 419 258 Q 426 265 425 273 Q 424 283 404 290 Q 383 299 374 296 Q 370 295 366 286 Z" class="stroke8"/>
    <path d="M 365 158 Q 355 89 188 -48 Q 169 -63 194 -59 Q 261 -53 384 74 Q 388 83 432 127 Q 442 137 440 147 Q 437 159 413 166 Q 386 176 375 172 Q 368 171 365 158 Z" class="stroke9"/>
    <path d="M 678 676 Q 705 688 854 701 Q 893 707 898 712 Q 901 722 887 732 Q 836 763 777 739 Q 708 721 536 679 Q 520 676 533 663 Q 560 642 595 653 Q 617 662 646 668 L 678 676 Z" class="stroke10"/>
    <path d="M 639 566 Q 690 618 696 622 Q 709 629 704 640 Q 700 656 678 676 C 656 696 645 698 646 668 Q 649 649 611 576 Q 604 567 600 558 C 587 531 618 545 639 566 Z" class="stroke11"/>
    <path d="M 559 553 Q 558 554 556 555 Q 549 561 537 566 Q 528 570 519 566 Q 513 562 518 551 Q 519 544 523 536 Q 547 491 531 312 Q 519 216 519 215 Q 526 191 540 177 Q 549 165 557 176 Q 563 185 566 194 L 569 226 Q 570 247 571 318 L 571 340 Q 572 386 573 419 L 573 444 Q 573 516 577 523 C 580 538 580 538 559 553 Z" class="stroke12"/>
    <path d="M 773 214 Q 774 210 779 203 Q 792 173 802 174 Q 817 175 833 208 Q 848 235 846 256 Q 819 467 858 531 Q 868 547 861 557 Q 833 581 785 602 Q 769 606 746 598 Q 706 580 652 569 Q 645 568 639 566 L 600 558 Q 578 557 559 553 C 529 548 547 518 577 523 Q 581 523 588 524 Q 751 567 765 550 Q 780 531 780 466 Q 781 295 774 253 L 773 214 Z" class="stroke13"/>
    <path d="M 573 419 Q 594 413 712 436 Q 731 440 735 443 Q 742 449 738 455 Q 734 464 711 469 Q 693 472 623 453 Q 599 449 573 444 C 544 438 543 424 573 419 Z" class="stroke14"/>
    <path d="M 571 318 Q 598 309 676 320 Q 698 324 723 328 Q 744 332 747 335 Q 753 341 750 347 Q 746 356 723 362 Q 701 366 678 358 Q 656 351 630 346 Q 602 342 571 340 C 541 338 542 326 571 318 Z" class="stroke15"/>
    <path d="M 566 194 Q 573 193 584 195 Q 645 208 773 214 C 803 215 802 243 774 253 Q 759 260 732 254 Q 642 235 569 226 C 539 222 536 195 566 194 Z" class="stroke16"/>
    <path d="M 566 139 Q 553 85 418 -12 Q 396 -25 423 -24 Q 481 -28 593 65 Q 621 89 634 99 Q 644 109 643 119 Q 642 132 617 142 Q 590 155 578 153 Q 571 152 566 139 Z" class="stroke17"/>
    <path d="M 725 128 Q 774 70 833 -12 Q 846 -34 860 -40 Q 869 -43 877 -34 Q 890 -22 884 22 Q 880 83 730 158 Q 723 165 719 153 Q 716 140 725 128 Z" class="stroke18"/>
    
    
    
    
    
    
    
    
    
    
    
    
    
    
    
    
    
    </g>
</svg>