<svg version="1.1" viewBox="0 0 1024 1024" xmlns="http://www.w3.org/2000/svg">
  
  <g transform="scale(1, -1) translate(0, -900)">
    <style type="text/css">
        .stroke1 {fill: #808080;}
        .stroke2 {fill: #808079;}
        .stroke3 {fill: #808078;}
        .stroke4 {fill: #808077;}
        .stroke5 {fill: #808076;}
        .stroke6 {fill: #808075;}
        .stroke7 {fill: #808074;}
        .stroke8 {fill: #808073;}
        .stroke9 {fill: #808072;}
        .stroke10 {fill: #808071;}
        .stroke11 {fill: #808070;}
        .stroke12 {fill: #808069;}
        .stroke13 {fill: #808068;}
        .stroke14 {fill: #808067;}
        .stroke15 {fill: #808066;}
        .stroke16 {fill: #808065;}
        .stroke17 {fill: #808064;}
        .stroke18 {fill: #808063;}
        .stroke19 {fill: #808062;}
        .stroke20 {fill: #808061;}
        text {
            font-family: Helvetica;
            font-size: 50px;
            fill: #808060;
            paint-order: stroke;
            stroke: #000000;
            stroke-width: 4px;
            stroke-linecap: butt;
            stroke-linejoin: miter;
            font-weight: 800;
        }
    </style>

    <path d="M 414 673 Q 433 695 454 721 Q 469 745 497 769 Q 509 779 504 786 Q 503 793 451 811 Q 435 818 420 807 Q 401 795 372 785 Q 324 769 278 760 Q 262 757 274 746 Q 293 733 367 754 Q 403 763 408 759 Q 411 750 372 687 L 350 659 Q 325 629 277 589 Q 265 579 277 578 Q 313 585 380 639 L 414 673 Z" class="stroke1"/>
    <path d="M 380 639 Q 447 600 451 598 Q 457 598 460 606 Q 466 616 451 642 Q 442 660 414 673 L 372 687 Q 326 700 300 705 Q 294 706 294 699 Q 294 690 350 659 L 380 639 Z" class="stroke2"/>
    <path d="M 273 435 Q 292 462 316 499 Q 325 515 333 523 Q 343 530 338 538 Q 331 548 304 558 Q 289 567 242 547 Q 161 532 142 529 Q 132 529 132 522 Q 131 518 142 512 Q 176 494 197 502 Q 260 524 266 523 Q 273 520 265 505 Q 249 474 235 451 L 214 422 Q 163 373 137 354 Q 125 347 133 344 Q 166 338 237 397 Q 238 398 242 401 L 273 435 Z" class="stroke3"/>
    <path d="M 242 401 Q 254 394 266 383 Q 276 373 287 371 Q 293 371 296 378 Q 303 387 291 413 Q 285 426 273 435 L 235 451 Q 228 458 168 472 Q 162 475 162 467 Q 163 458 170 453 Q 191 440 214 422 L 242 401 Z" class="stroke4"/>
    <path d="M 482 471 Q 498 495 520 529 Q 527 545 536 552 Q 546 559 540 567 Q 534 576 508 585 Q 492 594 479 586 Q 466 579 441 571 Q 413 565 371 560 Q 361 559 361 553 Q 360 549 371 543 Q 404 527 422 535 Q 468 553 473 552 Q 480 549 472 535 Q 459 507 446 485 L 428 459 Q 427 459 427 458 Q 405 430 365 402 Q 355 393 361 392 Q 389 388 452 439 Q 452 440 453 440 L 482 471 Z" class="stroke5"/>
    <path d="M 453 440 Q 475 425 498 407 Q 510 397 519 395 Q 525 395 528 402 Q 535 411 522 437 Q 516 456 482 471 L 446 485 Q 404 501 380 508 Q 374 511 374 503 Q 374 497 428 459 L 453 440 Z" class="stroke6"/>
    <path d="M 367 296 Q 428 306 501 314 Q 516 315 517 323 Q 518 335 502 343 Q 478 353 458 350 Q 410 340 370 331 L 318 321 Q 144 291 77 287 Q 65 286 63 279 Q 59 269 73 259 Q 109 232 145 244 Q 221 268 279 280 L 367 296 Z" class="stroke7"/>
    <path d="M 316 246 Q 315 230 315 212 Q 308 94 297 71 Q 285 26 330 -30 Q 331 -31 335 -34 Q 345 -35 351 -24 Q 364 6 361 34 Q 361 206 367 296 L 370 331 L 372 339 Q 375 349 368 356 Q 347 375 329 385 Q 319 389 310 382 Q 304 379 311 369 Q 317 360 318 321 L 316 246 Z" class="stroke8"/>
    <path d="M 279 280 Q 275 265 261 247 Q 221 189 175 149 Q 138 115 58 63 Q 42 53 56 50 Q 66 49 103 62 Q 146 75 186 105 Q 220 130 260 173 Q 299 215 316 246 C 345 295 298 331 279 280 Z" class="stroke9"/>
    <path d="M 414 187 Q 442 168 474 142 Q 489 132 503 134 Q 513 135 517 148 Q 520 163 508 190 Q 501 209 470 220 Q 395 238 384 231 Q 380 227 382 215 Q 386 205 414 187 Z" class="stroke10"/>
    <path d="M 707 708 Q 782 724 930 724 Q 948 725 952 733 Q 956 743 941 755 Q 890 791 830 773 Q 770 761 550 720 Q 532 719 546 703 Q 559 691 575 687 Q 594 683 608 687 Q 635 694 667 701 L 707 708 Z" class="stroke11"/>
    <path d="M 664 583 Q 722 656 725 658 Q 740 668 733 679 Q 726 692 707 708 C 684 728 665 731 667 701 Q 670 680 643 605 Q 636 592 632 579 C 623 551 645 560 664 583 Z" class="stroke12"/>
    <path d="M 612 577 Q 603 586 583 593 Q 574 597 564 593 Q 557 589 562 577 Q 592 492 576 327 Q 557 249 591 209 Q 601 196 610 208 Q 617 218 620 230 L 622 261 Q 622 271 623 342 L 623 367 Q 623 410 624 442 L 624 462 Q 625 529 627 536 L 627 544 C 628 565 628 565 612 577 Z" class="stroke13"/>
    <path d="M 824 243 Q 825 233 832 221 Q 845 193 854 194 Q 867 195 883 227 Q 898 252 896 272 Q 869 482 908 544 Q 918 560 911 570 Q 884 595 836 617 Q 820 623 797 615 Q 760 602 664 583 L 632 579 Q 622 579 612 577 C 582 574 598 535 627 544 Q 648 554 788 571 Q 810 575 818 563 Q 833 544 833 480 Q 834 321 828 275 L 824 243 Z" class="stroke14"/>
    <path d="M 624 442 Q 631 438 648 440 Q 727 455 787 463 Q 809 467 801 480 Q 791 495 765 499 Q 735 500 624 462 C 596 452 596 452 624 442 Z" class="stroke15"/>
    <path d="M 623 342 Q 629 341 637 342 Q 725 355 790 361 Q 812 365 805 377 Q 795 390 771 396 Q 750 400 623 367 C 594 359 593 344 623 342 Z" class="stroke16"/>
    <path d="M 620 230 Q 629 229 639 230 Q 699 240 824 243 C 854 244 852 257 828 275 L 820 281 Q 805 290 777 284 Q 690 268 622 261 C 592 258 590 232 620 230 Z" class="stroke17"/>
    <path d="M 609 156 Q 603 108 509 13 Q 487 -3 515 1 Q 566 7 665 106 Q 677 118 684 124 Q 694 137 691 146 Q 687 159 661 166 Q 631 176 619 172 Q 612 171 609 156 Z" class="stroke18"/>
    <path d="M 768 149 Q 813 89 863 4 Q 876 -20 891 -27 Q 900 -31 909 -22 Q 925 -10 921 38 Q 917 98 776 181 Q 767 188 763 176 Q 759 163 768 149 Z" class="stroke19"/>
    
    
    
    
    
    
    
    
    
    
    
    
    
    
    
    
    
    
    </g>
</svg>