<svg version="1.1" viewBox="0 0 1024 1024" xmlns="http://www.w3.org/2000/svg">
  
  <g transform="scale(1, -1) translate(0, -900)">
    <style type="text/css">
        .stroke1 {fill: #808080;}
        .stroke2 {fill: #808079;}
        .stroke3 {fill: #808078;}
        .stroke4 {fill: #808077;}
        .stroke5 {fill: #808076;}
        .stroke6 {fill: #808075;}
        .stroke7 {fill: #808074;}
        .stroke8 {fill: #808073;}
        .stroke9 {fill: #808072;}
        .stroke10 {fill: #808071;}
        .stroke11 {fill: #808070;}
        .stroke12 {fill: #808069;}
        .stroke13 {fill: #808068;}
        .stroke14 {fill: #808067;}
        .stroke15 {fill: #808066;}
        .stroke16 {fill: #808065;}
        .stroke17 {fill: #808064;}
        .stroke18 {fill: #808063;}
        .stroke19 {fill: #808062;}
        .stroke20 {fill: #808061;}
        text {
            font-family: Helvetica;
            font-size: 50px;
            fill: #808060;
            paint-order: stroke;
            stroke: #000000;
            stroke-width: 4px;
            stroke-linecap: butt;
            stroke-linejoin: miter;
            font-weight: 800;
        }
    </style>

    <path d="M 287 628 Q 419 668 421 669 Q 428 676 424 685 Q 417 695 387 701 Q 369 704 271 670 Q 208 655 175 649 Q 139 640 166 626 Q 205 608 253 619 L 287 628 Z" class="stroke1"/>
    <path d="M 307 401 Q 316 558 321 574 Q 328 590 320 601 Q 304 617 287 628 C 262 645 240 646 253 619 Q 265 601 265 518 Q 264 472 264 386 C 264 356 305 371 307 401 Z" class="stroke2"/>
    <path d="M 264 386 Q 209 370 152 351 Q 133 345 101 345 Q 88 344 86 332 Q 85 319 94 310 Q 118 294 153 276 Q 163 273 175 283 Q 209 310 386 396 Q 411 408 429 423 Q 442 430 442 440 Q 436 446 424 443 Q 369 424 307 401 L 264 386 Z" class="stroke3"/>
    <path d="M 624 715 Q 688 733 855 739 Q 903 739 908 749 Q 912 759 897 771 Q 852 802 792 788 Q 693 767 470 724 Q 451 721 466 707 Q 479 695 496 691 Q 515 687 529 692 Q 557 701 588 707 L 624 715 Z" class="stroke4"/>
    <path d="M 575 568 Q 594 589 625 637 Q 632 649 646 664 Q 659 674 653 684 Q 646 699 624 715 C 600 733 584 737 588 707 Q 594 679 558 591 Q 551 576 549 564 C 543 535 555 545 575 568 Z" class="stroke5"/>
    <path d="M 528 562 Q 509 578 485 584 Q 478 585 471 578 Q 468 574 475 563 Q 514 469 484 302 Q 471 244 474 230 Q 483 199 494 188 Q 504 175 513 188 Q 537 216 538 369 Q 538 496 544 535 C 546 549 546 549 528 562 Z" class="stroke6"/>
    <path d="M 748 268 Q 741 244 754 222 Q 769 194 778 194 Q 793 195 808 229 Q 823 254 821 276 Q 793 489 831 547 Q 841 565 821 582 Q 796 600 759 616 Q 743 620 720 612 Q 669 590 575 568 L 549 564 Q 539 564 528 562 C 498 559 515 528 544 535 Q 598 547 637 556 Q 719 578 738 566 Q 748 544 753 483 Q 757 302 748 268 Z" class="stroke7"/>
    <path d="M 612 396 Q 613 192 563 115 Q 544 84 508 58 Q 474 33 397 0 Q 385 -4 382 -7 Q 378 -11 391 -15 Q 469 -21 569 49 Q 582 61 593 73 Q 647 142 658 313 Q 661 386 675 423 Q 679 433 672 440 Q 627 482 590 471 Q 572 464 587 449 Q 612 422 612 396 Z" class="stroke8"/>
    <path d="M 703 139 Q 758 78 822 -9 Q 837 -31 852 -37 Q 861 -38 869 -30 Q 882 -17 875 28 Q 869 85 707 171 Q 698 177 695 165 Q 694 152 703 139 Z" class="stroke9"/>
    
    
    
    
    
    
    
    
    </g>
</svg>