<svg version="1.1" viewBox="0 0 1024 1024" xmlns="http://www.w3.org/2000/svg">
  
  <g transform="scale(1, -1) translate(0, -900)">
    <style type="text/css">
        .stroke1 {fill: #808080;}
        .stroke2 {fill: #808079;}
        .stroke3 {fill: #808078;}
        .stroke4 {fill: #808077;}
        .stroke5 {fill: #808076;}
        .stroke6 {fill: #808075;}
        .stroke7 {fill: #808074;}
        .stroke8 {fill: #808073;}
        .stroke9 {fill: #808072;}
        .stroke10 {fill: #808071;}
        .stroke11 {fill: #808070;}
        .stroke12 {fill: #808069;}
        .stroke13 {fill: #808068;}
        .stroke14 {fill: #808067;}
        .stroke15 {fill: #808066;}
        .stroke16 {fill: #808065;}
        .stroke17 {fill: #808064;}
        .stroke18 {fill: #808063;}
        .stroke19 {fill: #808062;}
        .stroke20 {fill: #808061;}
        text {
            font-family: Helvetica;
            font-size: 50px;
            fill: #808060;
            paint-order: stroke;
            stroke: #000000;
            stroke-width: 4px;
            stroke-linecap: butt;
            stroke-linejoin: miter;
            font-weight: 800;
        }
    </style>

    <path d="M 364 713 Q 377 740 389 754 Q 396 767 387 783 Q 368 811 349 824 Q 333 836 316 835 Q 298 835 305 813 Q 336 662 49 338 Q 31 320 31 313 Q 31 307 37 308 Q 71 314 153 397 Q 154 400 157 402 Q 269 522 348 681 Q 349 687 353 691 L 364 713 Z" class="stroke1"/>
    <path d="M 353 691 Q 396 660 448 611 Q 463 596 476 594 Q 483 593 489 602 Q 498 615 484 650 Q 472 683 412 701 Q 384 710 364 713 C 334 718 329 709 353 691 Z" class="stroke2"/>
    <path d="M 304 530 Q 361 466 382 465 Q 395 464 401 482 Q 402 495 392 514 Q 382 530 359 538 Q 323 554 308 556 Q 299 557 298 546 Q 297 539 304 530 Z" class="stroke3"/>
    <path d="M 353 206 Q 443 329 481 352 Q 499 361 491 375 Q 487 391 420 418 Q 405 424 339 398 Q 252 365 197 362 Q 175 361 184 342 Q 191 330 210 320 Q 240 305 274 326 Q 364 381 387 367 Q 400 357 394 342 Q 367 284 338 215 C 326 187 335 182 353 206 Z" class="stroke4"/>
    <path d="M 338 215 Q 316 230 245 260 Q 238 264 235 253 Q 234 241 243 231 Q 292 185 350 118 Q 363 99 378 95 Q 385 94 393 102 Q 405 114 394 154 Q 388 187 353 206 L 338 215 Z" class="stroke5"/>
    <path d="M 660 730 Q 703 746 859 753 Q 902 753 909 763 Q 913 775 897 786 Q 840 823 783 801 Q 653 771 510 741 Q 491 738 506 723 Q 521 711 537 707 Q 556 703 572 709 Q 596 716 624 723 L 660 730 Z" class="stroke6"/>
    <path d="M 610 571 Q 628 590 664 645 Q 673 658 687 674 Q 700 684 694 695 Q 685 711 660 730 C 636 748 615 752 624 723 L 625 722 Q 632 694 594 597 Q 587 579 585 567 C 579 538 590 549 610 571 Z" class="stroke7"/>
    <path d="M 561 564 Q 560 565 559 566 Q 538 582 515 588 Q 506 589 501 582 Q 498 578 505 568 Q 541 487 516 324 Q 504 270 507 256 Q 516 226 526 215 Q 536 203 545 216 Q 566 246 567 410 Q 567 501 570 534 C 572 556 572 556 561 564 Z" class="stroke8"/>
    <path d="M 768 280 Q 761 256 774 234 Q 789 206 798 206 Q 813 207 828 241 Q 843 266 841 288 Q 814 489 851 543 Q 861 559 853 570 Q 825 595 775 615 Q 759 621 735 612 Q 716 603 610 571 L 585 567 Q 572 566 561 564 C 531 560 541 529 570 534 Q 573 534 665 553 Q 740 572 757 561 Q 767 540 771 484 Q 777 313 768 280 Z" class="stroke9"/>
    <path d="M 639 405 Q 643 186 569 95 Q 557 85 544 72 Q 513 44 441 5 Q 429 1 426 -3 Q 422 -7 436 -10 Q 479 -14 570 39 Q 678 111 689 332 Q 689 387 705 434 Q 709 444 702 451 Q 684 467 652 480 Q 633 489 616 483 Q 598 476 613 460 Q 638 433 639 405 Z" class="stroke10"/>
    <path d="M 716 151 Q 771 94 836 14 Q 852 -8 867 -14 Q 877 -15 885 -5 Q 898 8 888 55 Q 884 80 867 98 Q 848 117 801 142 Q 749 170 719 183 Q 710 190 707 177 Q 706 162 716 151 Z" class="stroke11"/>
    
    
    
    
    
    
    
    
    
    
    </g>
</svg>