<svg version="1.1" viewBox="0 0 1024 1024" xmlns="http://www.w3.org/2000/svg">
  
  <g transform="scale(1, -1) translate(0, -900)">
    <style type="text/css">
        .stroke1 {fill: #808080;}
        .stroke2 {fill: #808079;}
        .stroke3 {fill: #808078;}
        .stroke4 {fill: #808077;}
        .stroke5 {fill: #808076;}
        .stroke6 {fill: #808075;}
        .stroke7 {fill: #808074;}
        .stroke8 {fill: #808073;}
        .stroke9 {fill: #808072;}
        .stroke10 {fill: #808071;}
        .stroke11 {fill: #808070;}
        .stroke12 {fill: #808069;}
        .stroke13 {fill: #808068;}
        .stroke14 {fill: #808067;}
        .stroke15 {fill: #808066;}
        .stroke16 {fill: #808065;}
        .stroke17 {fill: #808064;}
        .stroke18 {fill: #808063;}
        .stroke19 {fill: #808062;}
        .stroke20 {fill: #808061;}
        text {
            font-family: Helvetica;
            font-size: 50px;
            fill: #808060;
            paint-order: stroke;
            stroke: #000000;
            stroke-width: 4px;
            stroke-linecap: butt;
            stroke-linejoin: miter;
            font-weight: 800;
        }
    </style>

    <path d="M 236 696 Q 261 674 289 647 Q 304 634 320 634 Q 332 635 337 649 Q 341 664 332 695 Q 326 714 295 728 Q 222 753 208 747 Q 202 743 204 729 Q 208 719 236 696 Z" class="stroke1"/>
    <path d="M 125 511 Q 92 502 117 489 Q 159 471 207 488 Q 274 509 345 531 Q 376 541 382 546 Q 389 555 384 562 Q 377 572 349 576 Q 321 579 295 565 Q 259 549 220 535 Q 177 522 125 511 Z" class="stroke2"/>
    <path d="M 147 349 Q 166 298 188 280 Q 198 274 208 282 Q 215 289 218 303 Q 219 333 180 364 Q 150 382 147 382 Q 143 382 141 373 Q 140 363 147 349 Z" class="stroke3"/>
    <path d="M 296 253 Q 297 259 301 265 Q 319 308 337 362 Q 344 386 361 417 Q 373 430 363 439 Q 353 452 322 466 Q 307 473 293 466 Q 284 460 291 451 Q 309 409 266 261 Q 262 251 261 242 C 256 212 287 225 296 253 Z" class="stroke4"/>
    <path d="M 261 242 Q 188 220 107 196 Q 88 190 58 191 Q 45 190 43 179 Q 42 166 50 158 Q 72 142 106 124 Q 116 120 128 129 Q 165 157 207 177 Q 271 205 335 235 Q 359 245 377 259 Q 390 266 390 276 Q 384 282 372 279 Q 335 267 296 253 L 261 242 Z" class="stroke5"/>
    <path d="M 460 394 Q 464 457 466 617 Q 466 633 468 650 C 470 676 470 676 462 681 Q 446 694 421 702 Q 402 709 391 704 Q 381 697 388 684 Q 409 660 414 596 Q 414 584 416 569 Q 423 406 397 277 Q 372 169 307 45 Q 303 38 302 33 Q 301 23 311 26 Q 324 29 356 80 Q 434 191 458 371 Q 458 377 459 381 L 460 394 Z" class="stroke6"/>
    <path d="M 468 650 Q 739 704 745 702 Q 749 701 754 696 Q 761 684 760 666 Q 714 119 921 6 Q 924 6 927 3 Q 967 -13 986 -1 Q 998 6 992 27 Q 974 96 966 170 Q 966 182 961 189 Q 954 196 951 179 Q 938 130 928 109 Q 915 84 897 103 Q 869 125 843 187 Q 777 320 806 604 Q 810 647 853 690 Q 868 705 850 718 Q 837 733 782 759 Q 766 769 719 740 Q 622 709 462 681 C 432 676 439 644 468 650 Z" class="stroke7"/>
    <path d="M 588 512 Q 639 540 679 553 Q 692 556 694 562 Q 695 569 686 578 Q 640 605 611 600 Q 605 596 606 588 Q 607 561 496 489 Q 492 482 497 480 Q 498 480 554 499 L 588 512 Z" class="stroke8"/>
    <path d="M 509 386 Q 502 390 472 396 Q 463 397 460 394 C 451 391 451 391 459 381 Q 475 365 496 267 Q 499 246 511 233 Q 524 217 529 228 Q 530 232 531 238 L 530 268 Q 530 271 530 273 Q 520 336 517 360 C 514 384 514 384 509 386 Z" class="stroke9"/>
    <path d="M 694 298 Q 709 362 732 382 Q 744 397 732 409 Q 719 418 679 433 Q 664 437 612 414 L 569 400 Q 541 393 509 386 C 480 380 487 355 517 360 Q 527 361 569 373 L 612 383 Q 625 387 642 391 Q 655 395 661 389 Q 668 383 668 369 Q 665 333 659 302 C 654 272 687 269 694 298 Z" class="stroke10"/>
    <path d="M 609 254 Q 648 261 707 269 Q 716 270 717 278 Q 717 285 694 298 L 659 302 Q 649 302 610 288 L 570 277 Q 548 273 530 268 C 501 260 501 236 531 238 Q 535 238 541 239 Q 553 243 570 246 L 609 254 Z" class="stroke11"/>
    <path d="M 608 160 Q 609 209 609 254 L 610 288 Q 610 337 612 383 L 612 414 Q 612 441 614 468 Q 620 489 588 512 C 564 531 545 528 554 499 Q 564 471 569 400 L 569 373 Q 569 336 570 277 L 570 246 Q 570 203 570 150 C 570 120 607 130 608 160 Z" class="stroke12"/>
    <path d="M 676 179 Q 642 172 608 160 L 570 150 Q 524 140 474 126 Q 458 122 434 124 Q 424 123 421 114 Q 420 104 427 96 Q 446 81 474 64 Q 484 61 494 68 Q 521 89 656 146 Q 672 153 685 162 C 710 178 705 185 676 179 Z" class="stroke13"/>
    <path d="M 685 162 Q 722 74 729 68 Q 733 65 741 69 Q 751 75 754 104 Q 755 150 673 219 Q 669 225 665 218 Q 662 215 676 179 L 685 162 Z" class="stroke14"/>
    
    
    
    
    
    
    
    
    
    
    
    
    
    </g>
</svg>