<svg version="1.1" viewBox="0 0 1024 1024" xmlns="http://www.w3.org/2000/svg">
  
  <g transform="scale(1, -1) translate(0, -900)">
    <style type="text/css">
        .stroke1 {fill: #808080;}
        .stroke2 {fill: #808079;}
        .stroke3 {fill: #808078;}
        .stroke4 {fill: #808077;}
        .stroke5 {fill: #808076;}
        .stroke6 {fill: #808075;}
        .stroke7 {fill: #808074;}
        .stroke8 {fill: #808073;}
        .stroke9 {fill: #808072;}
        .stroke10 {fill: #808071;}
        .stroke11 {fill: #808070;}
        .stroke12 {fill: #808069;}
        .stroke13 {fill: #808068;}
        .stroke14 {fill: #808067;}
        .stroke15 {fill: #808066;}
        .stroke16 {fill: #808065;}
        .stroke17 {fill: #808064;}
        .stroke18 {fill: #808063;}
        .stroke19 {fill: #808062;}
        .stroke20 {fill: #808061;}
        text {
            font-family: Helvetica;
            font-size: 50px;
            fill: #808060;
            paint-order: stroke;
            stroke: #000000;
            stroke-width: 4px;
            stroke-linecap: butt;
            stroke-linejoin: miter;
            font-weight: 800;
        }
    </style>

    <path d="M 258 725 Q 270 740 282 752 Q 292 761 282 774 Q 251 805 230 806 Q 220 805 221 793 Q 221 720 126 635 Q 120 634 86 602 Q 77 590 90 592 Q 114 595 149 619 L 154 622 Q 182 644 209 669 L 217 678 Q 232 696 242 706 L 258 725 Z" class="stroke1"/>
    <path d="M 209 481 Q 293 547 385 661 Q 403 683 433 706 Q 446 713 442 722 Q 441 729 390 753 Q 375 762 359 752 Q 343 743 319 737 Q 288 730 258 725 C 228 720 214 716 242 706 Q 266 691 323 708 Q 339 711 344 704 Q 345 698 335 683 Q 295 613 226 543 Q 168 486 57 408 Q 45 399 57 397 Q 102 406 185 463 L 209 481 Z" class="stroke2"/>
    <path d="M 209 669 Q 209 666 240 627 Q 252 615 263 614 Q 272 613 277 626 Q 278 635 272 649 Q 257 668 217 678 C 203 682 203 682 209 669 Z" class="stroke3"/>
    <path d="M 149 619 Q 149 604 177 566 Q 187 553 198 552 Q 208 551 213 562 Q 216 571 211 585 Q 205 597 190 604 Q 168 619 157 622 Q 154 623 154 622 C 149 622 149 622 149 619 Z" class="stroke4"/>
    <path d="M 237 450 Q 237 462 218 476 Q 214 479 209 481 C 187 491 187 491 185 463 Q 185 433 129 355 Q 122 349 121 345 Q 118 338 127 340 Q 160 346 218 421 Q 219 425 222 427 C 238 446 238 446 237 450 Z" class="stroke5"/>
    <path d="M 290 422 Q 297 423 306 427 Q 408 457 413 460 Q 420 467 416 474 Q 409 484 383 488 Q 356 491 289 462 Q 262 456 237 450 C 208 443 193 435 222 427 Q 232 424 246 421 L 290 422 Z" class="stroke6"/>
    <path d="M 309 312 Q 366 328 435 341 Q 450 344 450 351 Q 451 363 434 370 Q 409 379 389 373 Q 346 361 311 350 L 260 336 Q 145 306 58 291 Q 48 290 44 282 Q 43 272 56 263 Q 92 241 129 254 Q 205 285 261 300 L 309 312 Z" class="stroke7"/>
    <path d="M 301 184 Q 305 254 309 312 L 311 350 Q 311 363 313 377 Q 322 398 290 422 C 267 441 234 449 246 421 Q 259 394 260 336 L 261 300 Q 261 252 261 171 C 261 141 299 154 301 184 Z" class="stroke8"/>
    <path d="M 360 202 Q 327 195 301 184 L 261 171 Q 210 155 171 135 Q 162 134 165 143 Q 177 194 170 207 Q 160 223 140 235 Q 131 241 123 239 Q 114 236 119 220 Q 131 189 123 158 Q 119 130 105 117 Q 92 102 97 91 Q 107 79 121 71 Q 128 68 147 79 Q 184 119 333 164 Q 360 174 369 171 C 399 171 389 209 360 202 Z" class="stroke9"/>
    <path d="M 369 171 Q 372 164 376 158 Q 383 151 393 154 Q 402 158 407 169 Q 417 205 377 257 Q 370 267 363 268 Q 359 269 356 262 Q 350 255 360 202 L 369 171 Z" class="stroke10"/>
    <path d="M 528 640 Q 515 650 493 658 Q 475 665 465 661 Q 455 654 461 642 Q 482 621 482 583 Q 482 406 468 314 Q 462 292 457 267 Q 433 180 368 56 Q 364 50 363 44 Q 362 34 370 37 Q 385 40 415 86 Q 508 206 524 392 L 526 411 Q 532 465 533 516 Q 533 609 540 616 C 543 631 543 631 528 640 Z" class="stroke11"/>
    <path d="M 776 376 Q 794 102 937 29 Q 971 13 989 24 Q 999 31 995 49 Q 982 128 981 212 Q 982 222 977 229 Q 970 236 967 220 Q 952 156 940 126 Q 927 101 909 120 Q 860 160 835 266 Q 805 375 825 579 Q 829 616 865 656 Q 878 669 862 681 Q 849 694 801 716 Q 786 723 750 702 Q 677 671 528 640 C 499 634 511 610 540 616 Q 547 616 756 666 Q 769 670 777 661 Q 784 651 783 635 Q 773 514 774 420 L 776 376 Z" class="stroke12"/>
    <path d="M 649 521 Q 676 537 733 546 Q 746 546 749 552 Q 753 559 744 569 Q 704 602 672 602 Q 666 599 666 590 Q 660 563 545 509 Q 541 502 545 500 Q 563 500 608 512 Q 611 513 615 512 C 633 512 633 512 649 521 Z" class="stroke13"/>
    <path d="M 524 392 Q 543 358 558 298 Q 561 279 572 268 Q 585 252 589 264 Q 590 271 591 282 L 587 307 Q 577 355 575 376 L 569 402 L 569 403 Q 560 407 533 411 Q 527 412 526 411 C 514 410 514 410 524 392 Z" class="stroke14"/>
    <path d="M 742 322 Q 760 364 776 376 C 798 396 800 405 774 420 Q 720 453 683 432 Q 676 431 669 426 L 629 415 Q 599 408 569 402 C 540 396 546 369 575 376 Q 614 385 629 388 L 668 395 Q 681 399 697 401 Q 710 405 716 399 Q 723 390 705 332 C 696 303 730 295 742 322 Z" class="stroke15"/>
    <path d="M 665 291 Q 696 297 746 300 Q 755 301 756 308 Q 756 312 742 322 C 727 333 727 333 705 332 Q 693 332 666 323 L 628 314 Q 606 310 587 307 C 557 302 561 280 591 282 Q 594 282 628 285 L 665 291 Z" class="stroke16"/>
    <path d="M 662 201 Q 663 249 665 291 L 666 323 Q 667 360 668 395 L 669 426 Q 669 441 670 454 Q 673 499 670 504 Q 660 514 649 521 C 625 538 603 539 615 512 Q 628 490 629 415 L 629 388 Q 629 358 628 314 L 628 285 Q 627 245 627 193 C 627 163 661 171 662 201 Z" class="stroke17"/>
    <path d="M 722 216 Q 691 210 662 201 L 627 193 Q 525 175 511 176 Q 501 175 499 167 Q 496 157 503 150 Q 521 137 545 120 Q 554 117 563 123 Q 587 141 731 197 C 759 208 751 222 722 216 Z" class="stroke18"/>
    <path d="M 731 197 Q 750 154 761 149 Q 768 148 774 153 Q 781 160 782 180 Q 785 196 767 219 Q 725 261 712 262 Q 708 261 706 253 Q 706 249 722 216 L 731 197 Z" class="stroke19"/>
    
    
    
    
    
    
    
    
    
    
    
    
    
    
    
    
    
    
    </g>
</svg>