<svg version="1.1" viewBox="0 0 1024 1024" xmlns="http://www.w3.org/2000/svg">
  
  <g transform="scale(1, -1) translate(0, -900)">
    <style type="text/css">
        .stroke1 {fill: #808080;}
        .stroke2 {fill: #808079;}
        .stroke3 {fill: #808078;}
        .stroke4 {fill: #808077;}
        .stroke5 {fill: #808076;}
        .stroke6 {fill: #808075;}
        .stroke7 {fill: #808074;}
        .stroke8 {fill: #808073;}
        .stroke9 {fill: #808072;}
        .stroke10 {fill: #808071;}
        .stroke11 {fill: #808070;}
        .stroke12 {fill: #808069;}
        .stroke13 {fill: #808068;}
        .stroke14 {fill: #808067;}
        .stroke15 {fill: #808066;}
        .stroke16 {fill: #808065;}
        .stroke17 {fill: #808064;}
        .stroke18 {fill: #808063;}
        .stroke19 {fill: #808062;}
        .stroke20 {fill: #808061;}
        text {
            font-family: Helvetica;
            font-size: 50px;
            fill: #808060;
            paint-order: stroke;
            stroke: #000000;
            stroke-width: 4px;
            stroke-linecap: butt;
            stroke-linejoin: miter;
            font-weight: 800;
        }
    </style>

    <path d="M 196 459 Q 272 559 345 702 L 358 728 Q 373 759 373 761 Q 370 771 356 782 Q 340 794 320 798 Q 298 802 287 799 Q 278 796 282 783 Q 306 696 184 513 Q 178 507 174 500 Q 137 448 40 344 Q 33 338 43 336 Q 88 349 168 429 Q 169 432 173 433 L 196 459 Z" class="stroke1"/>
    <path d="M 345 702 Q 351 698 363 690 Q 400 668 441 641 Q 454 632 466 635 Q 475 636 477 648 Q 478 661 468 684 Q 453 717 358 728 C 328 732 320 719 345 702 Z" class="stroke2"/>
    <path d="M 307 558 Q 371 516 396 523 Q 409 526 408 545 Q 405 558 390 573 Q 377 583 353 584 Q 316 587 302 584 Q 293 583 296 572 Q 297 563 307 558 Z" class="stroke3"/>
    <path d="M 358 270 Q 361 266 365 259 Q 387 225 411 253 Q 426 271 434 320 Q 434 384 464 431 Q 477 450 462 466 Q 443 482 411 500 Q 395 507 377 500 Q 316 469 240 449 Q 236 448 233 446 C 205 436 222 412 251 421 Q 252 421 336 448 Q 367 461 380 455 Q 387 451 386 429 Q 377 309 369 295 C 360 266 356 274 358 270 Z" class="stroke4"/>
    <path d="M 248 339 Q 294 349 330 356 Q 352 362 342 373 Q 330 386 306 387 Q 284 387 248 372 C 220 361 219 333 248 339 Z" class="stroke5"/>
    <path d="M 247 247 Q 254 246 265 250 Q 295 259 358 270 C 388 275 395 281 369 295 Q 338 314 276 286 Q 260 282 247 276 C 220 264 217 248 247 247 Z" class="stroke6"/>
    <path d="M 352 177 Q 322 158 268 116 Q 258 110 255 113 Q 249 116 249 131 Q 248 197 247 247 L 247 276 Q 247 313 248 339 L 248 372 Q 249 406 251 416 Q 251 419 251 421 C 252 437 252 437 233 446 Q 223 453 196 459 C 167 467 156 457 173 433 Q 192 411 199 378 Q 206 351 209 253 Q 210 172 197 127 Q 193 93 161 51 Q 151 39 159 19 Q 169 -6 183 -18 Q 195 -27 207 -12 Q 246 45 364 161 C 385 182 377 194 352 177 Z" class="stroke7"/>
    <path d="M 364 161 Q 379 142 394 117 Q 404 102 419 100 Q 429 99 437 109 Q 444 122 442 152 Q 441 171 415 192 Q 352 234 336 231 Q 332 228 330 216 Q 330 204 352 177 L 364 161 Z" class="stroke8"/>
    <path d="M 805 480 Q 705 459 598 428 Q 588 422 583 426 Q 579 430 587 446 Q 717 663 747 700 Q 760 712 752 726 Q 745 739 688 762 Q 669 769 658 765 Q 643 758 652 734 Q 680 661 542 460 Q 518 433 483 405 Q 468 390 473 378 Q 480 359 511 338 Q 524 326 538 340 Q 587 383 821 451 Q 822 452 824 452 C 853 461 834 486 805 480 Z" class="stroke9"/>
    <path d="M 824 452 Q 869 395 872 392 Q 881 391 889 398 Q 904 410 898 454 Q 895 493 831 534 Q 789 559 766 570 Q 759 577 754 565 Q 753 552 761 540 Q 782 513 805 480 L 824 452 Z" class="stroke10"/>
    <path d="M 551 255 Q 538 261 511 265 Q 498 269 493 263 Q 486 257 495 239 Q 523 181 539 88 Q 542 60 558 41 Q 577 16 584 34 Q 588 44 588 60 L 585 100 Q 572 194 570 222 C 568 249 568 249 551 255 Z" class="stroke11"/>
    <path d="M 818 126 Q 848 202 886 228 Q 905 247 890 267 Q 874 282 818 311 Q 799 320 776 312 Q 695 279 551 255 C 521 250 541 215 570 222 Q 579 225 758 261 Q 779 265 788 257 Q 797 247 792 227 Q 777 175 761 132 C 751 104 807 98 818 126 Z" class="stroke12"/>
    <path d="M 588 60 Q 624 72 833 86 Q 846 87 847 97 Q 847 106 818 126 C 798 140 790 139 761 132 Q 664 110 585 100 C 555 96 559 52 588 60 Z" class="stroke13"/>
    
    
    
    
    
    
    
    
    
    
    
    
    </g>
</svg>