<svg version="1.1" viewBox="0 0 1024 1024" xmlns="http://www.w3.org/2000/svg">
  
  <g transform="scale(1, -1) translate(0, -900)">
    <style type="text/css">
        .stroke1 {fill: #808080;}
        .stroke2 {fill: #808079;}
        .stroke3 {fill: #808078;}
        .stroke4 {fill: #808077;}
        .stroke5 {fill: #808076;}
        .stroke6 {fill: #808075;}
        .stroke7 {fill: #808074;}
        .stroke8 {fill: #808073;}
        .stroke9 {fill: #808072;}
        .stroke10 {fill: #808071;}
        .stroke11 {fill: #808070;}
        .stroke12 {fill: #808069;}
        .stroke13 {fill: #808068;}
        .stroke14 {fill: #808067;}
        .stroke15 {fill: #808066;}
        .stroke16 {fill: #808065;}
        .stroke17 {fill: #808064;}
        .stroke18 {fill: #808063;}
        .stroke19 {fill: #808062;}
        .stroke20 {fill: #808061;}
        text {
            font-family: Helvetica;
            font-size: 50px;
            fill: #808060;
            paint-order: stroke;
            stroke: #000000;
            stroke-width: 4px;
            stroke-linecap: butt;
            stroke-linejoin: miter;
            font-weight: 800;
        }
    </style>

    <path d="M 312 734 Q 321 747 682 787 Q 745 793 751 799 Q 751 800 752 800 Q 753 810 733 821 Q 711 843 634 823 Q 486 796 294 775 C 264 772 284 723 312 734 Z" class="stroke1"/>
    <path d="M 294 775 Q 249 805 230 796 Q 218 789 225 775 Q 246 741 247 682 Q 228 409 188 292 Q 146 177 54 27 Q 50 20 47 14 Q 46 4 56 6 Q 86 12 169 139 Q 190 176 210 220 Q 279 389 300 653 Q 303 701 311 732 Q 311 733 312 734 C 318 761 318 761 294 775 Z" class="stroke2"/>
    <path d="M 356 710 Q 349 714 335 716 Q 326 717 324 714 Q 320 710 325 699 Q 343 662 353 602 Q 354 584 365 572 Q 377 557 381 568 Q 382 575 383 585 L 382 603 Q 382 604 382 607 Q 379 625 377 638 L 375 654 Q 371 679 371 688 C 370 703 370 703 356 710 Z" class="stroke3"/>
    <path d="M 480 601 Q 487 592 494 588 Q 500 584 510 596 Q 517 606 534 664 Q 538 683 553 699 Q 562 706 554 716 Q 544 726 517 743 Q 505 749 462 736 Q 432 730 398 720 Q 376 716 356 710 C 327 702 343 679 371 688 Q 408 701 476 713 Q 489 716 496 711 Q 502 707 501 698 Q 491 643 486 634 Q 483 627 474 625 Q 470 625 468 622 C 463 620 463 620 480 601 Z" class="stroke4"/>
    <path d="M 377 638 Q 425 644 460 649 Q 473 652 468 660 Q 462 667 447 671 Q 431 672 375 654 C 346 645 347 634 377 638 Z" class="stroke5"/>
    <path d="M 383 585 Q 387 591 480 601 C 510 604 496 611 468 622 L 467 623 Q 445 626 382 603 C 354 593 357 569 383 585 Z" class="stroke6"/>
    <path d="M 350 437 Q 351 456 351 469 L 352 487 Q 353 506 355 515 C 359 535 359 535 346 540 Q 328 547 317 549 Q 310 546 312 539 Q 336 488 312 419 Q 293 404 316 369 Q 316 368 319 364 Q 323 357 329 360 Q 344 369 349 417 L 350 437 Z" class="stroke7"/>
    <path d="M 355 515 Q 358 515 364 517 Q 389 527 459 544 Q 465 545 469 542 Q 478 539 479 526 Q 483 493 478 432 Q 478 416 463 416 Q 447 416 434 415 Q 424 416 427 411 Q 430 405 447 396 Q 466 381 479 365 Q 486 361 492 363 Q 511 376 516 432 Q 516 535 518 539 Q 518 540 519 540 Q 525 547 521 554 Q 515 561 491 573 Q 484 577 346 540 C 317 532 326 508 355 515 Z" class="stroke8"/>
    <path d="M 351 469 Q 354 469 439 480 Q 454 483 449 491 Q 442 501 425 504 Q 407 505 352 487 C 323 478 321 466 351 469 Z" class="stroke9"/>
    <path d="M 349 417 Q 350 417 355 417 Q 406 426 442 430 Q 458 434 453 443 Q 446 453 427 456 Q 399 459 350 437 C 323 425 319 417 349 417 Z" class="stroke10"/>
    <path d="M 689 592 Q 798 620 804 625 Q 811 632 807 639 Q 800 648 777 653 Q 750 657 695 633 L 649 619 Q 615 612 577 606 Q 549 600 570 588 Q 597 573 643 581 L 689 592 Z" class="stroke11"/>
    <path d="M 676 555 Q 679 564 683 572 L 689 592 L 695 633 Q 695 634 696 636 Q 699 694 705 706 Q 711 721 697 726 Q 654 747 638 739 Q 628 735 634 723 Q 659 698 649 619 L 643 581 Q 631 529 562 459 Q 552 452 562 450 Q 625 459 668 537 L 676 555 Z" class="stroke12"/>
    <path d="M 668 537 Q 669 536 672 534 Q 730 497 800 440 Q 813 427 826 426 Q 832 426 836 434 Q 843 444 830 475 Q 815 514 676 555 C 647 564 644 555 668 537 Z" class="stroke13"/>
    <path d="M 763 717 Q 817 678 825 679 Q 831 680 834 688 Q 835 698 829 716 Q 820 735 757 747 Q 747 748 744 746 Q 741 743 742 735 Q 745 728 763 717 Z" class="stroke14"/>
    <path d="M 435 244 Q 484 284 525 325 Q 553 356 573 375 L 589 390 Q 589 391 590 391 Q 600 400 598 407 Q 597 417 576 426 Q 554 436 545 434 Q 539 433 536 423 Q 500 318 236 150 Q 220 140 241 140 Q 304 143 411 226 L 435 244 Z" class="stroke15"/>
    <path d="M 573 375 Q 667 299 767 233 Q 789 217 821 221 Q 879 228 937 250 Q 952 254 952 259 Q 953 265 940 268 Q 762 298 673 343 Q 649 355 627 367 Q 605 380 589 390 C 563 406 550 394 573 375 Z" class="stroke16"/>
    <path d="M 551 318 Q 584 285 600 285 Q 609 285 611 297 Q 611 306 604 318 Q 586 336 551 336 Q 545 336 546 329 Q 545 323 551 318 Z" class="stroke17"/>
    <path d="M 601 118 Q 616 93 629 87 Q 638 81 649 97 Q 656 110 675 178 Q 682 202 699 222 Q 709 232 700 242 Q 688 255 654 274 Q 650 277 461 233 C 432 226 441 194 469 206 Q 476 213 602 239 Q 618 242 627 237 Q 634 233 633 221 Q 623 155 614 137 C 605 112 597 124 601 118 Z" class="stroke18"/>
    <path d="M 466 149 Q 465 150 469 150 Q 536 165 587 174 Q 603 178 597 187 Q 590 197 570 199 Q 549 200 467 172 C 439 162 437 140 466 149 Z" class="stroke19"/>
    <path d="M 465 96 Q 469 96 475 97 Q 544 110 601 118 C 631 122 640 123 614 137 Q 592 153 470 116 Q 467 116 465 115 C 436 109 435 94 465 96 Z" class="stroke20"/>
    <path d="M 461 233 Q 454 239 435 244 C 406 253 397 252 411 226 Q 445 172 424 52 Q 421 42 419 32 Q 412 7 382 -21 Q 373 -28 377 -46 Q 381 -67 391 -77 Q 398 -84 410 -75 Q 450 -41 568 23 Q 581 27 584 34 Q 585 38 581 39 Q 574 40 478 13 Q 471 12 469 14 Q 466 17 465 96 L 465 115 Q 465 134 466 149 L 467 172 Q 467 197 469 206 C 471 227 471 227 461 233 Z" class="stroke21"/>
    <path d="M 673 50 Q 733 95 764 111 Q 777 115 774 124 Q 770 136 754 149 Q 739 162 722 164 Q 712 164 712 149 Q 713 131 654 54 C 636 30 649 32 673 50 Z" class="stroke22"/>
    <path d="M 654 54 Q 593 72 557 78 Q 550 79 551 71 Q 552 61 563 57 Q 651 17 764 -45 Q 779 -55 791 -55 Q 797 -54 800 -46 Q 806 -34 787 -6 Q 772 24 673 50 L 654 54 Z" class="stroke23"/>
    
    
    
    
    
    
    
    
    
    
    
    
    
    
    
    
    
    
    
    
    
    
    </g>
</svg>