<svg version="1.1" viewBox="0 0 1024 1024" xmlns="http://www.w3.org/2000/svg">
  
  <g transform="scale(1, -1) translate(0, -900)">
    <style type="text/css">
        .stroke1 {fill: #808080;}
        .stroke2 {fill: #808079;}
        .stroke3 {fill: #808078;}
        .stroke4 {fill: #808077;}
        .stroke5 {fill: #808076;}
        .stroke6 {fill: #808075;}
        .stroke7 {fill: #808074;}
        .stroke8 {fill: #808073;}
        .stroke9 {fill: #808072;}
        .stroke10 {fill: #808071;}
        .stroke11 {fill: #808070;}
        .stroke12 {fill: #808069;}
        .stroke13 {fill: #808068;}
        .stroke14 {fill: #808067;}
        .stroke15 {fill: #808066;}
        .stroke16 {fill: #808065;}
        .stroke17 {fill: #808064;}
        .stroke18 {fill: #808063;}
        .stroke19 {fill: #808062;}
        .stroke20 {fill: #808061;}
        text {
            font-family: Helvetica;
            font-size: 50px;
            fill: #808060;
            paint-order: stroke;
            stroke: #000000;
            stroke-width: 4px;
            stroke-linecap: butt;
            stroke-linejoin: miter;
            font-weight: 800;
        }
    </style>

    <path d="M 282 589 Q 310 646 350 728 Q 357 744 363 752 Q 370 759 367 769 Q 364 779 349 790 Q 333 802 311 805 Q 289 809 277 805 Q 268 802 273 789 Q 300 702 180 511 Q 177 508 175 504 Q 139 450 48 345 Q 41 338 51 337 Q 108 346 228 500 Q 249 534 271 570 L 282 589 Z" class="stroke1"/>
    <path d="M 271 570 Q 289 561 374 581 Q 404 591 409 587 Q 412 586 409 576 Q 385 510 369 479 Q 363 467 362 461 Q 361 451 373 456 Q 385 462 440 526 Q 474 566 508 589 Q 526 601 512 614 Q 497 626 457 645 Q 444 649 405 630 Q 315 597 282 589 C 253 581 242 577 271 570 Z" class="stroke2"/>
    <path d="M 338 405 Q 344 418 334 430 Q 312 452 290 463 Q 272 470 263 466 Q 253 460 261 444 Q 297 359 272 196 Q 268 148 228 100 Q 216 84 223 62 Q 233 35 246 24 Q 258 17 270 32 Q 286 62 437 184 Q 456 197 460 206 Q 464 216 454 216 Q 439 215 326 151 Q 317 147 316 154 Q 329 269 332 356 Q 333 383 338 405 Z" class="stroke3"/>
    <path d="M 661 566 Q 700 584 732 603 Q 780 628 821 640 Q 840 643 843 652 Q 847 665 832 675 Q 807 691 757 705 Q 739 712 725 709 Q 718 703 718 692 Q 721 644 504 521 Q 500 511 506 508 Q 524 508 622 550 L 661 566 Z" class="stroke4"/>
    <path d="M 694 358 Q 767 368 877 369 Q 928 366 936 378 Q 940 388 925 402 Q 871 441 814 424 Q 765 415 695 400 L 640 390 Q 555 377 456 362 Q 435 359 451 343 Q 464 330 482 325 Q 503 321 518 325 Q 575 341 641 351 L 694 358 Z" class="stroke5"/>
    <path d="M 689 163 Q 692 269 694 358 L 695 400 Q 698 535 699 536 Q 698 539 697 539 Q 678 557 661 566 C 635 582 611 578 622 550 Q 640 514 640 390 L 641 351 Q 641 275 641 155 C 641 125 688 133 689 163 Z" class="stroke6"/>
    <path d="M 641 155 Q 571 145 492 133 Q 471 132 487 115 Q 500 102 518 97 Q 537 91 554 96 Q 650 121 859 121 Q 878 121 883 130 Q 889 140 872 154 Q 815 196 758 177 Q 728 171 689 163 L 641 155 Z" class="stroke7"/>
    
    
    
    
    
    
    </g>
</svg>