<svg version="1.1" viewBox="0 0 1024 1024" xmlns="http://www.w3.org/2000/svg">
  
  <g transform="scale(1, -1) translate(0, -900)">
    <style type="text/css">
        .stroke1 {fill: #808080;}
        .stroke2 {fill: #808079;}
        .stroke3 {fill: #808078;}
        .stroke4 {fill: #808077;}
        .stroke5 {fill: #808076;}
        .stroke6 {fill: #808075;}
        .stroke7 {fill: #808074;}
        .stroke8 {fill: #808073;}
        .stroke9 {fill: #808072;}
        .stroke10 {fill: #808071;}
        .stroke11 {fill: #808070;}
        .stroke12 {fill: #808069;}
        .stroke13 {fill: #808068;}
        .stroke14 {fill: #808067;}
        .stroke15 {fill: #808066;}
        .stroke16 {fill: #808065;}
        .stroke17 {fill: #808064;}
        .stroke18 {fill: #808063;}
        .stroke19 {fill: #808062;}
        .stroke20 {fill: #808061;}
        text {
            font-family: Helvetica;
            font-size: 50px;
            fill: #808060;
            paint-order: stroke;
            stroke: #000000;
            stroke-width: 4px;
            stroke-linecap: butt;
            stroke-linejoin: miter;
            font-weight: 800;
        }
    </style>

    <path d="M 259 579 Q 341 729 351 738 Q 360 750 354 764 Q 350 777 318 799 Q 288 815 269 815 Q 250 811 259 789 Q 277 756 265 727 Q 205 553 53 349 Q 43 337 41 331 Q 38 318 53 322 Q 119 349 250 565 L 259 579 Z" class="stroke1"/>
    <path d="M 250 565 Q 265 555 340 570 Q 376 585 381 577 Q 385 574 381 566 Q 356 499 337 467 Q 331 454 330 448 Q 329 438 340 444 Q 352 450 405 514 Q 438 554 470 578 Q 486 588 475 600 Q 462 610 426 629 Q 410 633 397 623 Q 387 619 310 591 Q 288 584 259 579 C 229 574 225 573 250 565 Z" class="stroke2"/>
    <path d="M 302 405 Q 308 418 298 429 Q 276 451 254 463 Q 236 470 227 466 Q 217 460 225 445 Q 258 369 237 208 Q 233 160 192 112 Q 180 97 187 75 Q 196 48 208 37 Q 221 28 233 45 Q 249 72 389 185 Q 407 197 412 206 Q 416 216 406 216 Q 390 215 291 163 Q 281 157 280 166 Q 293 275 296 359 Q 297 384 302 405 Z" class="stroke3"/>
    <path d="M 593 603 Q 686 634 736 662 Q 779 684 817 694 Q 833 695 837 704 Q 840 714 827 725 Q 767 761 731 757 Q 724 753 724 741 Q 725 710 578 619 C 553 603 565 593 593 603 Z" class="stroke4"/>
    <path d="M 575 424 Q 588 569 592 589 Q 593 596 593 603 C 594 611 594 611 578 619 Q 532 644 516 642 Q 497 638 512 616 Q 528 586 529 547 Q 533 493 521 383 Q 514 308 475 220 Q 439 141 356 71 Q 341 58 338 52 Q 337 45 348 45 Q 387 45 460 120 Q 544 210 572 405 L 575 424 Z" class="stroke5"/>
    <path d="M 736 193 Q 773 244 818 385 Q 828 413 847 433 Q 865 451 851 463 Q 838 475 805 484 Q 787 488 717 458 Q 633 434 582 426 Q 578 426 575 424 C 546 418 543 413 572 405 Q 576 405 579 403 Q 616 390 663 407 Q 727 432 738 432 Q 763 431 758 403 Q 743 319 699 230 L 676 196 Q 610 118 503 80 Q 490 74 502 68 Q 508 62 548 65 Q 629 74 707 156 L 736 193 Z" class="stroke6"/>
    <path d="M 707 156 Q 761 87 809 32 Q 824 14 847 15 Q 974 27 982 38 Q 986 44 976 47 Q 823 111 736 193 L 699 230 Q 671 261 637 300 Q 627 313 612 315 Q 587 316 579 308 Q 576 302 585 297 Q 615 281 676 196 L 707 156 Z" class="stroke7"/>
    
    
    
    
    
    
    </g>
</svg>