<svg version="1.1" viewBox="0 0 1024 1024" xmlns="http://www.w3.org/2000/svg">
  
  <g transform="scale(1, -1) translate(0, -900)">
    <style type="text/css">
        .stroke1 {fill: #808080;}
        .stroke2 {fill: #808079;}
        .stroke3 {fill: #808078;}
        .stroke4 {fill: #808077;}
        .stroke5 {fill: #808076;}
        .stroke6 {fill: #808075;}
        .stroke7 {fill: #808074;}
        .stroke8 {fill: #808073;}
        .stroke9 {fill: #808072;}
        .stroke10 {fill: #808071;}
        .stroke11 {fill: #808070;}
        .stroke12 {fill: #808069;}
        .stroke13 {fill: #808068;}
        .stroke14 {fill: #808067;}
        .stroke15 {fill: #808066;}
        .stroke16 {fill: #808065;}
        .stroke17 {fill: #808064;}
        .stroke18 {fill: #808063;}
        .stroke19 {fill: #808062;}
        .stroke20 {fill: #808061;}
        text {
            font-family: Helvetica;
            font-size: 50px;
            fill: #808060;
            paint-order: stroke;
            stroke: #000000;
            stroke-width: 4px;
            stroke-linecap: butt;
            stroke-linejoin: miter;
            font-weight: 800;
        }
    </style>

    <path d="M 277 581 Q 305 641 343 731 Q 358 768 358 772 Q 355 782 341 791 Q 302 815 273 803 Q 264 799 269 787 Q 300 708 190 513 Q 186 507 181 499 Q 147 445 59 336 Q 52 329 63 329 Q 117 344 221 482 Q 260 549 266 560 L 277 581 Z" class="stroke1"/>
    <path d="M 266 560 Q 284 554 380 577 Q 390 580 393 577 Q 397 574 393 565 Q 365 498 346 467 Q 339 454 338 448 Q 337 438 348 444 Q 360 450 415 513 Q 449 553 482 577 Q 498 587 487 599 Q 474 611 438 628 Q 422 634 409 623 Q 399 619 320 591 Q 301 585 277 581 C 247 576 236 563 266 560 Z" class="stroke2"/>
    <path d="M 315 386 Q 319 399 311 410 Q 287 432 266 443 Q 247 450 239 445 Q 229 439 237 423 Q 273 342 254 188 Q 253 139 213 90 Q 201 75 209 53 Q 219 26 232 15 Q 245 8 256 24 Q 271 52 410 176 Q 428 189 432 198 Q 436 208 426 208 Q 413 208 308 145 Q 301 139 298 147 Q 310 256 310 339 Q 310 364 315 386 Z" class="stroke3"/>
    <path d="M 629 775 Q 659 754 690 729 Q 706 717 722 720 Q 732 721 737 736 Q 740 752 727 782 Q 720 801 687 813 Q 606 831 596 823 Q 592 819 594 805 Q 598 795 629 775 Z" class="stroke4"/>
    <path d="M 521 622 Q 484 615 511 599 Q 557 575 611 591 Q 704 613 801 637 Q 846 649 852 655 Q 861 664 856 672 Q 849 684 818 690 Q 793 694 681 656 Q 603 634 521 622 Z" class="stroke5"/>
    <path d="M 523 488 Q 511 466 450 392 Q 443 379 456 381 Q 508 412 558 452 Q 574 465 593 474 Q 611 483 602 497 Q 590 510 569 523 Q 548 533 538 531 Q 528 530 531 519 Q 534 503 523 488 Z" class="stroke6"/>
    <path d="M 725 503 Q 755 487 787 465 Q 803 455 819 458 Q 831 461 833 476 Q 834 492 819 521 Q 804 546 710 551 Q 694 551 687 547 Q 683 543 687 529 Q 694 519 725 503 Z" class="stroke7"/>
    <path d="M 673 210 Q 674 214 677 217 Q 710 271 725 334 Q 734 373 743 384 Q 752 396 744 404 Q 734 416 710 423 Q 692 430 676 427 Q 666 423 671 410 Q 690 380 672 322 Q 660 279 640 244 L 615 207 Q 551 129 390 72 Q 375 63 394 62 Q 551 58 644 166 L 673 210 Z" class="stroke8"/>
    <path d="M 644 166 Q 687 111 760 40 Q 788 16 832 23 Q 943 38 957 42 Q 964 49 953 58 Q 938 67 820 112 Q 756 137 673 210 L 640 244 Q 606 281 570 326 Q 551 348 520 355 Q 508 358 498 351 Q 494 344 502 336 Q 539 308 606 219 Q 609 215 615 207 L 644 166 Z" class="stroke9"/>
    
    
    
    
    
    
    
    
    </g>
</svg>