<svg version="1.1" viewBox="0 0 1024 1024" xmlns="http://www.w3.org/2000/svg">
  
  <g transform="scale(1, -1) translate(0, -900)">
    <style type="text/css">
        .stroke1 {fill: #808080;}
        .stroke2 {fill: #808079;}
        .stroke3 {fill: #808078;}
        .stroke4 {fill: #808077;}
        .stroke5 {fill: #808076;}
        .stroke6 {fill: #808075;}
        .stroke7 {fill: #808074;}
        .stroke8 {fill: #808073;}
        .stroke9 {fill: #808072;}
        .stroke10 {fill: #808071;}
        .stroke11 {fill: #808070;}
        .stroke12 {fill: #808069;}
        .stroke13 {fill: #808068;}
        .stroke14 {fill: #808067;}
        .stroke15 {fill: #808066;}
        .stroke16 {fill: #808065;}
        .stroke17 {fill: #808064;}
        .stroke18 {fill: #808063;}
        .stroke19 {fill: #808062;}
        .stroke20 {fill: #808061;}
        text {
            font-family: Helvetica;
            font-size: 50px;
            fill: #808060;
            paint-order: stroke;
            stroke: #000000;
            stroke-width: 4px;
            stroke-linecap: butt;
            stroke-linejoin: miter;
            font-weight: 800;
        }
    </style>

    <path d="M 360 727 Q 477 757 479 758 Q 488 765 483 773 Q 476 783 449 790 Q 431 793 337 765 Q 250 749 234 746 C 205 741 215 722 244 716 Q 275 709 312 717 Q 313 718 318 717 L 360 727 Z" class="stroke1"/>
    <path d="M 234 746 Q 219 759 198 767 Q 179 773 171 764 Q 165 760 173 747 Q 189 713 188 641 Q 187 584 186 512 Q 187 442 172 385 Q 168 364 182 350 Q 200 335 222 348 C 230 351 229 386 229 416 Q 226 656 243 714 Q 243 715 244 716 C 249 735 249 735 234 746 Z" class="stroke2"/>
    <path d="M 377 607 Q 405 617 436 625 Q 455 631 457 633 Q 464 640 459 647 Q 452 656 429 659 Q 404 662 381 650 Q 380 650 379 649 L 327 631 Q 305 627 284 623 Q 256 616 277 604 Q 301 594 327 596 L 377 607 Z" class="stroke3"/>
    <path d="M 370 504 Q 401 514 436 522 Q 457 528 460 531 Q 467 537 463 543 Q 457 552 435 556 Q 419 559 373 543 L 325 528 Q 303 524 280 520 Q 253 514 274 503 Q 292 494 325 494 L 370 504 Z" class="stroke4"/>
    <path d="M 373 543 Q 374 577 377 607 L 379 649 Q 379 661 382 682 Q 391 704 360 727 C 337 746 311 746 318 717 Q 328 681 327 631 L 327 596 Q 326 568 325 528 L 325 494 Q 324 460 324 416 C 324 386 365 394 366 424 Q 367 466 370 504 L 373 543 Z" class="stroke5"/>
    <path d="M 222 348 Q 253 376 380 392 Q 410 395 422 383 Q 434 373 422 332 Q 415 271 404 209 Q 397 160 374 128 Q 368 119 319 124 Q 298 130 299 123 Q 298 119 306 111 Q 337 68 348 42 Q 355 23 372 31 Q 394 41 414 57 Q 438 87 444 124 Q 462 209 475 306 Q 482 342 500 371 Q 512 387 501 399 Q 485 418 449 438 Q 428 450 402 437 Q 383 428 366 424 L 324 416 Q 296 410 254 399 Q 229 395 229 416 C 212 441 197 332 222 348 Z" class="stroke6"/>
    <path d="M 80 274 Q 74 226 61 180 Q 52 149 75 124 Q 87 111 101 127 Q 132 175 116 232 Q 112 260 100 280 Q 94 286 89 285 Q 82 281 80 274 Z" class="stroke7"/>
    <path d="M 163 265 Q 173 228 181 185 Q 182 175 190 169 Q 194 165 202 170 Q 209 174 216 192 Q 223 208 212 237 Q 179 292 169 298 Q 165 298 161 291 Q 160 284 163 265 Z" class="stroke8"/>
    <path d="M 244 277 Q 254 252 263 222 Q 266 212 274 207 Q 280 204 286 209 Q 293 216 297 233 Q 301 248 287 267 Q 259 306 244 310 Q 240 309 238 302 Q 237 295 244 277 Z" class="stroke9"/>
    <path d="M 317 300 Q 348 240 356 236 Q 363 235 370 241 Q 377 250 378 270 Q 379 285 363 302 Q 327 338 312 338 Q 308 337 306 328 Q 305 321 317 300 Z" class="stroke10"/>
    <path d="M 740 644 Q 765 680 796 728 Q 814 758 814 760 Q 813 770 799 781 Q 765 811 734 803 Q 725 800 728 788 Q 737 746 690 665 Q 689 665 689 663 L 666 625 Q 623 562 537 480 Q 530 474 539 472 Q 606 484 700 592 Q 700 595 707 601 L 740 644 Z" class="stroke11"/>
    <path d="M 707 601 Q 812 541 817 540 Q 824 541 828 550 Q 835 563 816 595 Q 801 623 740 644 L 689 663 Q 610 688 566 698 Q 559 701 559 691 Q 560 681 572 674 Q 615 653 666 625 L 707 601 Z" class="stroke12"/>
    <path d="M 716 273 Q 755 343 772 425 Q 776 444 781 452 Q 788 459 782 469 Q 776 476 747 488 Q 716 504 699 498 Q 689 492 697 476 Q 725 401 678 310 L 652 272 Q 607 221 489 173 Q 464 163 493 160 Q 575 156 668 220 Q 674 227 682 233 L 716 273 Z" class="stroke13"/>
    <path d="M 682 233 Q 724 181 791 116 Q 819 92 862 99 Q 917 106 959 111 Q 972 112 985 118 Q 992 125 981 134 Q 968 143 850 185 Q 781 212 716 273 L 678 310 Q 642 349 603 398 Q 584 420 553 427 Q 540 430 530 423 Q 524 416 534 407 Q 577 374 652 272 L 682 233 Z" class="stroke14"/>
    
    
    
    
    
    
    
    
    
    
    
    
    
    </g>
</svg>