<svg version="1.1" viewBox="0 0 1024 1024" xmlns="http://www.w3.org/2000/svg">
  
  <g transform="scale(1, -1) translate(0, -900)">
    <style type="text/css">
        .stroke1 {fill: #808080;}
        .stroke2 {fill: #808079;}
        .stroke3 {fill: #808078;}
        .stroke4 {fill: #808077;}
        .stroke5 {fill: #808076;}
        .stroke6 {fill: #808075;}
        .stroke7 {fill: #808074;}
        .stroke8 {fill: #808073;}
        .stroke9 {fill: #808072;}
        .stroke10 {fill: #808071;}
        .stroke11 {fill: #808070;}
        .stroke12 {fill: #808069;}
        .stroke13 {fill: #808068;}
        .stroke14 {fill: #808067;}
        .stroke15 {fill: #808066;}
        .stroke16 {fill: #808065;}
        .stroke17 {fill: #808064;}
        .stroke18 {fill: #808063;}
        .stroke19 {fill: #808062;}
        .stroke20 {fill: #808061;}
        text {
            font-family: Helvetica;
            font-size: 50px;
            fill: #808060;
            paint-order: stroke;
            stroke: #000000;
            stroke-width: 4px;
            stroke-linecap: butt;
            stroke-linejoin: miter;
            font-weight: 800;
        }
    </style>

    <path d="M 321 729 Q 444 768 445 768 Q 452 775 447 782 Q 440 792 415 796 Q 390 800 364 787 Q 333 774 297 763 Q 260 753 213 745 Q 207 744 205 742 C 177 731 188 728 217 720 Q 245 711 285 719 L 321 729 Z" class="stroke1"/>
    <path d="M 205 742 Q 192 755 170 763 Q 151 769 143 760 Q 137 756 145 743 Q 161 709 160 637 Q 159 580 158 508 Q 159 438 144 381 Q 140 360 156 347 Q 177 332 197 349 C 202 352 201 382 201 412 Q 197 652 215 708 Q 216 715 217 720 C 219 730 219 730 205 742 Z" class="stroke2"/>
    <path d="M 345 615 Q 364 622 389 630 Q 407 636 410 639 Q 416 646 411 652 Q 405 659 383 662 Q 364 663 348 657 L 298 636 Q 297 636 296 635 Q 271 628 242 621 Q 217 614 237 603 Q 264 594 298 599 L 345 615 Z" class="stroke3"/>
    <path d="M 339 510 Q 358 517 378 524 Q 393 528 394 531 Q 400 538 396 544 Q 389 551 366 554 Q 351 555 341 550 L 297 530 Q 293 530 291 528 Q 272 522 250 517 Q 223 508 245 499 Q 266 493 297 495 L 339 510 Z" class="stroke4"/>
    <path d="M 341 550 Q 342 584 345 615 L 348 657 Q 351 702 348 707 Q 335 720 321 729 C 296 746 273 746 285 719 Q 297 698 298 636 L 298 599 Q 298 571 297 530 L 297 495 Q 297 462 297 421 C 297 391 335 404 336 434 Q 337 474 339 510 L 341 550 Z" class="stroke5"/>
    <path d="M 197 349 Q 236 379 344 401 Q 371 405 383 396 Q 393 387 369 207 Q 362 150 337 113 Q 328 106 284 111 Q 247 115 247 111 Q 247 107 255 99 Q 298 54 312 25 Q 321 6 337 17 Q 397 50 408 122 Q 426 219 437 327 Q 441 361 457 389 Q 467 405 456 415 Q 440 433 405 449 Q 383 461 336 434 L 297 421 Q 269 414 222 398 Q 201 394 201 412 C 181 434 172 333 197 349 Z" class="stroke6"/>
    <path d="M 56 290 Q 49 241 34 193 Q 25 160 47 136 Q 57 123 73 139 Q 107 185 91 248 Q 88 276 76 296 Q 70 302 65 301 Q 58 298 56 290 Z" class="stroke7"/>
    <path d="M 136 279 Q 145 225 157 209 Q 164 202 173 206 Q 180 210 185 220 Q 191 247 156 294 Q 149 303 143 304 Q 139 305 136 298 Q 133 291 136 279 Z" class="stroke8"/>
    <path d="M 214 295 Q 227 261 244 244 Q 253 240 261 245 Q 267 252 269 262 Q 269 278 261 289 Q 246 311 217 321 Q 216 321 214 321 Q 210 321 209 313 Q 208 306 214 295 Z" class="stroke9"/>
    <path d="M 295 333 Q 313 272 333 263 Q 343 259 352 270 Q 356 279 356 297 Q 353 310 338 323 Q 316 345 306 351 Q 299 355 296 347 Q 292 341 295 333 Z" class="stroke10"/>
    <path d="M 617 697 Q 647 752 659 764 Q 666 774 662 786 Q 658 796 631 815 Q 606 830 590 828 Q 574 825 582 807 Q 615 753 464 531 Q 457 522 454 516 Q 453 506 464 509 Q 485 515 537 580 L 551 599 Q 552 602 555 604 Q 577 632 600 668 L 617 697 Z" class="stroke11"/>
    <path d="M 623 496 Q 545 388 449 294 Q 436 281 450 282 Q 460 283 502 311 Q 542 336 588 382 Q 621 416 654 459 L 678 492 Q 718 549 760 617 Q 779 647 813 677 Q 829 689 822 699 Q 821 708 756 730 Q 743 737 693 715 Q 662 706 617 697 C 588 691 571 675 600 668 Q 630 656 674 673 Q 699 680 709 670 Q 715 655 642 526 L 623 496 Z" class="stroke12"/>
    <path d="M 537 580 Q 570 558 617 504 Q 618 501 623 496 L 654 459 Q 655 458 659 453 Q 707 395 797 318 Q 825 296 866 305 Q 918 315 958 322 Q 971 323 982 330 Q 989 337 978 344 Q 963 351 849 385 Q 777 404 678 492 L 642 526 Q 620 548 596 575 Q 578 594 551 599 C 522 607 513 598 537 580 Z" class="stroke13"/>
    <path d="M 525 253 Q 512 257 492 260 Q 480 264 477 258 Q 470 252 479 236 Q 507 181 524 89 Q 528 61 544 43 Q 562 21 567 37 Q 571 47 570 65 L 566 98 Q 550 195 547 223 C 544 248 544 248 525 253 Z" class="stroke14"/>
    <path d="M 772 119 Q 802 198 833 219 Q 852 238 837 257 Q 759 321 697 290 Q 612 268 525 253 C 495 248 518 214 547 223 Q 551 224 559 227 Q 635 239 707 252 Q 726 256 734 248 Q 747 233 714 122 C 706 93 761 91 772 119 Z" class="stroke15"/>
    <path d="M 570 65 Q 576 64 587 66 Q 650 76 786 82 Q 796 83 799 92 Q 799 99 772 119 C 757 130 743 128 714 122 Q 632 106 566 98 C 536 94 540 66 570 65 Z" class="stroke16"/>
    
    
    
    
    
    
    
    
    
    
    
    
    
    
    
    </g>
</svg>