<svg version="1.1" viewBox="0 0 1024 1024" xmlns="http://www.w3.org/2000/svg">
  
  <g transform="scale(1, -1) translate(0, -900)">
    <style type="text/css">
        .stroke1 {fill: #808080;}
        .stroke2 {fill: #808079;}
        .stroke3 {fill: #808078;}
        .stroke4 {fill: #808077;}
        .stroke5 {fill: #808076;}
        .stroke6 {fill: #808075;}
        .stroke7 {fill: #808074;}
        .stroke8 {fill: #808073;}
        .stroke9 {fill: #808072;}
        .stroke10 {fill: #808071;}
        .stroke11 {fill: #808070;}
        .stroke12 {fill: #808069;}
        .stroke13 {fill: #808068;}
        .stroke14 {fill: #808067;}
        .stroke15 {fill: #808066;}
        .stroke16 {fill: #808065;}
        .stroke17 {fill: #808064;}
        .stroke18 {fill: #808063;}
        .stroke19 {fill: #808062;}
        .stroke20 {fill: #808061;}
        text {
            font-family: Helvetica;
            font-size: 50px;
            fill: #808060;
            paint-order: stroke;
            stroke: #000000;
            stroke-width: 4px;
            stroke-linecap: butt;
            stroke-linejoin: miter;
            font-weight: 800;
        }
    </style>

    <path d="M 348 717 Q 463 748 468 752 Q 475 759 471 766 Q 464 776 439 781 Q 414 785 388 774 Q 351 759 311 748 Q 269 738 222 728 C 193 722 216 698 246 698 Q 267 697 290 703 Q 300 706 311 708 L 348 717 Z" class="stroke1"/>
    <path d="M 222 728 Q 195 747 180 749 Q 170 748 167 740 Q 164 730 172 724 Q 205 672 181 418 Q 172 376 173 375 Q 174 366 186 358 Q 199 348 205 346 C 231 331 231 385 228 415 Q 224 440 227 570 Q 233 660 246 698 C 249 710 247 711 222 728 Z" class="stroke2"/>
    <path d="M 376 599 Q 428 618 430 619 Q 436 626 431 632 Q 425 639 402 643 Q 389 644 377 640 L 325 618 Q 321 618 320 617 Q 298 610 271 605 Q 244 598 265 587 Q 292 578 326 583 L 376 599 Z" class="stroke3"/>
    <path d="M 371 493 Q 392 500 417 507 Q 435 511 437 515 Q 443 522 439 528 Q 433 535 411 539 Q 392 542 373 534 L 326 516 Q 304 509 275 505 Q 248 498 269 487 Q 291 478 326 480 L 371 493 Z" class="stroke4"/>
    <path d="M 373 534 Q 374 568 376 599 L 377 640 Q 377 641 378 642 Q 381 687 377 693 Q 362 708 348 717 C 323 734 300 736 311 708 Q 324 681 325 618 L 326 583 Q 326 556 326 516 L 326 480 Q 326 452 327 415 C 328 385 368 392 369 422 Q 370 459 371 493 L 373 534 Z" class="stroke5"/>
    <path d="M 205 346 Q 364 403 406 385 Q 419 376 418 359 Q 421 346 410 227 Q 400 157 386 129 Q 379 113 360 114 Q 332 123 302 132 Q 287 136 284 133 Q 281 129 295 118 Q 358 54 363 33 Q 367 26 375 25 Q 388 24 416 51 Q 441 79 446 114 Q 473 358 493 377 Q 500 384 500 390 Q 500 397 469 417 Q 430 439 371 422 Q 370 423 369 422 L 327 415 Q 323 415 320 414 Q 284 407 264 400 Q 233 393 228 415 C 208 438 177 336 205 346 Z" class="stroke6"/>
    <path d="M 85 287 Q 79 233 63 182 Q 54 152 76 128 Q 86 115 100 130 Q 133 175 119 246 Q 115 274 104 292 Q 98 298 93 297 Q 86 294 85 287 Z" class="stroke7"/>
    <path d="M 174 271 Q 175 220 186 203 Q 192 196 201 198 Q 210 202 215 211 Q 225 236 204 271 Q 191 293 183 295 Q 180 296 176 290 Q 172 284 174 271 Z" class="stroke8"/>
    <path d="M 245 294 Q 255 246 269 228 Q 276 222 285 226 Q 292 230 296 241 Q 300 256 295 268 Q 276 313 251 320 Q 247 321 244 314 Q 243 307 245 294 Z" class="stroke9"/>
    <path d="M 327 322 Q 336 286 353 263 Q 360 257 369 262 Q 376 266 379 278 Q 382 293 376 305 Q 372 314 345 340 Q 338 347 331 348 Q 327 349 325 342 Q 322 335 327 322 Z" class="stroke10"/>
    <path d="M 698 677 Q 747 689 800 698 Q 840 708 847 713 Q 854 720 850 727 Q 844 736 821 742 Q 800 745 706 716 L 656 704 Q 608 695 555 690 Q 525 686 546 671 Q 582 653 645 667 L 647 667 L 698 677 Z" class="stroke11"/>
    <path d="M 647 667 Q 623 589 560 542 Q 547 532 535 521 Q 525 512 535 511 Q 547 511 575 524 Q 609 540 633 565 Q 678 610 698 677 L 706 716 Q 706 717 707 719 Q 714 779 725 800 Q 732 816 718 823 Q 673 851 654 842 Q 642 838 649 825 Q 670 792 656 704 L 647 667 Z" class="stroke12"/>
    <path d="M 719 605 Q 746 584 775 559 Q 785 550 795 551 Q 802 551 806 560 Q 809 570 802 591 Q 798 607 771 621 Q 714 642 700 638 Q 696 635 698 627 Q 699 620 719 605 Z" class="stroke13"/>
    <path d="M 808 498 Q 857 504 919 506 Q 938 507 956 508 Q 972 508 976 516 Q 980 526 966 536 Q 917 569 863 551 Q 725 518 489 479 Q 473 476 486 463 Q 513 441 552 452 Q 640 480 764 494 L 808 498 Z" class="stroke14"/>
    <path d="M 570 383 Q 561 387 537 391 Q 528 394 526 390 Q 522 386 528 373 Q 547 334 561 269 Q 564 250 576 236 Q 589 220 593 232 Q 596 242 595 257 L 591 284 Q 581 338 579 358 C 576 381 576 381 570 383 Z" class="stroke15"/>
    <path d="M 698 302 Q 711 345 727 359 Q 746 380 727 392 Q 712 401 690 415 Q 675 424 638 403 Q 617 396 570 383 C 541 375 550 349 579 358 Q 600 365 644 373 Q 662 377 666 370 Q 670 366 655 301 C 648 272 689 273 698 302 Z" class="stroke16"/>
    <path d="M 595 257 Q 602 256 613 258 Q 644 265 714 270 Q 723 271 724 278 Q 725 285 698 302 C 687 309 684 308 655 301 Q 618 292 591 284 C 562 276 565 259 595 257 Z" class="stroke17"/>
    <path d="M 764 494 Q 779 433 780 424 Q 780 90 764 68 Q 751 61 720 69 Q 704 70 684 72 Q 672 75 673 68 Q 674 61 685 51 Q 743 8 778 -28 Q 790 -37 804 -21 Q 843 43 838 111 Q 832 312 842 434 Q 849 461 843 471 Q 836 483 808 498 C 782 513 757 523 764 494 Z" class="stroke18"/>
    
    
    
    
    
    
    
    
    
    
    
    
    
    
    
    
    
    </g>
</svg>