<svg version="1.1" viewBox="0 0 1024 1024" xmlns="http://www.w3.org/2000/svg">
  
  <g transform="scale(1, -1) translate(0, -900)">
    <style type="text/css">
        .stroke1 {fill: #808080;}
        .stroke2 {fill: #808079;}
        .stroke3 {fill: #808078;}
        .stroke4 {fill: #808077;}
        .stroke5 {fill: #808076;}
        .stroke6 {fill: #808075;}
        .stroke7 {fill: #808074;}
        .stroke8 {fill: #808073;}
        .stroke9 {fill: #808072;}
        .stroke10 {fill: #808071;}
        .stroke11 {fill: #808070;}
        .stroke12 {fill: #808069;}
        .stroke13 {fill: #808068;}
        .stroke14 {fill: #808067;}
        .stroke15 {fill: #808066;}
        .stroke16 {fill: #808065;}
        .stroke17 {fill: #808064;}
        .stroke18 {fill: #808063;}
        .stroke19 {fill: #808062;}
        .stroke20 {fill: #808061;}
        text {
            font-family: Helvetica;
            font-size: 50px;
            fill: #808060;
            paint-order: stroke;
            stroke: #000000;
            stroke-width: 4px;
            stroke-linecap: butt;
            stroke-linejoin: miter;
            font-weight: 800;
        }
    </style>

    <path d="M 377 422 Q 377 423 378 423 Q 396 457 411 608 Q 421 660 454 694 Q 470 712 453 726 Q 434 741 381 761 Q 363 768 314 749 Q 298 749 228 724 Q 189 712 165 707 Q 149 706 146 699 Q 143 695 161 684 Q 186 674 226 682 Q 332 722 356 711 Q 371 704 367 658 Q 351 486 339 450 Q 333 423 347 408 C 360 384 365 395 377 422 Z" class="stroke1"/>
    <path d="M 347 408 Q 269 387 247 379 Q 228 378 228 394 Q 235 529 252 566 Q 259 582 252 594 Q 236 613 211 624 Q 193 631 184 624 Q 177 620 185 607 Q 191 592 186 475 Q 171 376 169 367 Q 163 348 178 333 Q 196 318 219 331 Q 243 355 348 374 Q 378 377 390 365 Q 399 358 379 199 Q 375 153 355 123 Q 348 116 330 119 Q 297 131 269 141 Q 256 145 255 139 Q 254 135 262 126 Q 313 72 329 37 Q 336 16 355 26 Q 415 56 423 119 Q 436 201 444 291 Q 450 325 466 356 Q 478 372 466 383 Q 450 402 413 420 Q 397 429 377 422 L 347 408 Z" class="stroke2"/>
    <path d="M 47 195 Q 34 194 33 182 Q 32 169 41 162 Q 65 147 99 130 Q 109 127 120 137 Q 144 158 288 236 Q 307 246 321 259 Q 334 266 334 276 Q 328 282 316 278 Q 94 197 47 195 Z" class="stroke3"/>
    <path d="M 552 687 Q 582 633 606 616 Q 619 610 631 622 Q 640 632 640 649 Q 637 688 571 721 Q 556 728 547 727 Q 540 727 540 715 Q 540 703 552 687 Z" class="stroke4"/>
    <path d="M 754 763 Q 745 739 692 635 Q 685 616 702 623 Q 717 635 807 726 Q 823 747 846 762 Q 865 777 851 793 Q 833 808 804 817 Q 776 826 764 821 Q 751 817 758 803 Q 765 785 754 763 Z" class="stroke5"/>
    <path d="M 756 547 Q 804 554 845 558 Q 855 557 865 570 Q 866 582 843 592 Q 813 613 728 589 Q 620 567 508 553 Q 480 549 502 532 Q 533 505 563 513 Q 698 541 704 529 C 727 522 726 543 756 547 Z" class="stroke6"/>
    <path d="M 777 343 Q 811 344 929 345 Q 947 345 951 353 Q 955 363 941 375 Q 890 414 831 396 Q 807 392 778 386 L 723 377 Q 711 377 618 361 L 569 354 Q 526 350 483 344 Q 464 343 478 327 Q 491 314 507 310 Q 526 306 540 309 Q 550 313 566 315 L 614 325 Q 653 334 723 339 L 777 343 Z" class="stroke7"/>
    <path d="M 618 361 Q 618 376 628 440 Q 632 458 615 466 Q 575 488 562 485 Q 544 484 558 464 Q 573 434 569 354 L 566 315 Q 560 195 467 115 Q 454 105 451 99 Q 450 92 460 93 Q 493 93 539 142 Q 588 193 614 325 L 618 361 Z" class="stroke8"/>
    <path d="M 726 5 Q 732 -20 738 -29 Q 744 -36 751 -34 Q 769 -22 772 33 Q 772 48 777 343 L 778 386 Q 778 456 788 507 Q 791 525 777 534 Q 765 541 756 547 C 731 563 696 558 704 529 Q 717 484 723 448 Q 723 417 723 377 L 723 339 Q 719 75 726 5 Z" class="stroke9"/>
    
    
    
    
    
    
    
    
    </g>
</svg>