<svg version="1.1" viewBox="0 0 1024 1024" xmlns="http://www.w3.org/2000/svg">
  
  <g transform="scale(1, -1) translate(0, -900)">
    <style type="text/css">
        .stroke1 {fill: #808080;}
        .stroke2 {fill: #808079;}
        .stroke3 {fill: #808078;}
        .stroke4 {fill: #808077;}
        .stroke5 {fill: #808076;}
        .stroke6 {fill: #808075;}
        .stroke7 {fill: #808074;}
        .stroke8 {fill: #808073;}
        .stroke9 {fill: #808072;}
        .stroke10 {fill: #808071;}
        .stroke11 {fill: #808070;}
        .stroke12 {fill: #808069;}
        .stroke13 {fill: #808068;}
        .stroke14 {fill: #808067;}
        .stroke15 {fill: #808066;}
        .stroke16 {fill: #808065;}
        .stroke17 {fill: #808064;}
        .stroke18 {fill: #808063;}
        .stroke19 {fill: #808062;}
        .stroke20 {fill: #808061;}
        text {
            font-family: Helvetica;
            font-size: 50px;
            fill: #808060;
            paint-order: stroke;
            stroke: #000000;
            stroke-width: 4px;
            stroke-linecap: butt;
            stroke-linejoin: miter;
            font-weight: 800;
        }
    </style>

    <path d="M 320 760 Q 369 760 514 796 Q 514 797 516 797 Q 523 804 519 811 Q 512 820 489 825 Q 464 829 441 818 Q 413 808 383 800 Q 349 791 311 786 C 281 782 290 759 320 760 Z" class="stroke1"/>
    <path d="M 328 564 Q 327 586 325 604 L 323 630 Q 320 657 320 677 L 319 698 Q 319 746 320 760 C 321 778 321 778 311 786 Q 310 787 309 788 Q 288 803 264 810 Q 252 814 244 809 Q 238 803 244 790 Q 263 759 272 724 Q 279 690 293 556 C 296 526 330 534 328 564 Z" class="stroke2"/>
    <path d="M 320 677 Q 329 676 341 678 Q 414 694 469 706 Q 490 710 481 721 Q 471 734 448 736 Q 421 737 319 698 C 291 687 290 679 320 677 Z" class="stroke3"/>
    <path d="M 325 604 Q 329 610 469 634 Q 490 638 481 649 Q 471 662 449 665 Q 428 666 323 630 C 295 620 298 591 325 604 Z" class="stroke4"/>
    <path d="M 349 530 Q 424 548 525 561 Q 541 562 541 570 Q 542 582 526 591 Q 501 601 479 597 Q 388 578 328 564 L 293 556 Q 112 528 111 526 Q 110 526 110 524 Q 107 514 121 503 Q 157 478 205 492 Q 256 510 301 519 L 349 530 Z" class="stroke5"/>
    <path d="M 457 456 Q 292 417 291 417 Q 290 418 294 422 Q 342 486 361 503 Q 371 513 365 521 Q 361 527 349 530 C 321 542 298 549 301 519 L 302 517 Q 308 484 260 428 Q 247 415 223 402 Q 201 392 200 382 Q 199 369 209 351 Q 218 335 229 331 Q 236 328 245 334 Q 273 358 468 443 C 495 455 486 463 457 456 Z" class="stroke6"/>
    <path d="M 468 443 Q 490 412 503 409 Q 512 408 517 417 Q 523 427 521 451 Q 520 470 495 489 Q 438 526 424 522 Q 420 521 419 510 Q 419 504 457 456 L 468 443 Z" class="stroke7"/>
    <path d="M 719 810 Q 722 791 662 725 Q 629 692 561 644 Q 554 637 568 635 Q 670 671 771 764 Q 783 777 800 785 Q 810 792 807 801 Q 803 808 785 815 Q 748 827 726 823 Q 717 822 719 810 Z" class="stroke8"/>
    <path d="M 728 681 Q 731 662 670 602 Q 637 571 570 527 Q 563 520 576 519 Q 669 543 777 634 Q 787 646 805 654 Q 815 661 813 669 Q 809 675 793 683 Q 756 696 736 693 Q 727 692 728 681 Z" class="stroke9"/>
    <path d="M 785 586 Q 778 528 672 460 Q 669 459 668 457 Q 637 438 564 401 Q 555 400 564 394 Q 603 385 705 435 Q 766 472 825 518 Q 834 525 839 527 Q 846 528 848 538 Q 849 547 842 560 Q 821 596 794 596 Q 787 597 785 586 Z" class="stroke10"/>
    <path d="M 584 306 Q 596 309 777 329 Q 789 328 800 342 Q 801 355 776 368 Q 736 392 668 372 Q 479 333 300 313 Q 279 312 258 308 Q 225 305 250 285 Q 287 255 316 260 Q 349 267 386 273 L 427 280 Q 476 290 531 298 L 584 306 Z" class="stroke11"/>
    <path d="M 386 273 Q 399 228 357 137 Q 315 59 239 25 Q 223 18 207 10 Q 194 4 204 -1 Q 249 -10 315 27 Q 385 63 423 154 Q 441 203 459 227 Q 471 242 458 253 Q 445 269 432 276 Q 429 279 427 280 C 402 297 380 302 386 273 Z" class="stroke12"/>
    <path d="M 916 69 Q 895 109 876 183 Q 873 198 865 202 Q 858 206 856 186 Q 852 95 839 77 Q 815 47 705 43 Q 645 43 619 52 Q 597 62 591 77 Q 570 140 595 229 Q 605 286 606 286 Q 602 298 584 306 C 560 324 522 327 531 298 Q 544 265 542 220 Q 538 99 545 74 Q 554 43 578 25 Q 624 -11 795 -1 Q 871 3 902 20 Q 930 39 916 69 Z" class="stroke13"/>
    
    
    
    
    
    
    
    
    
    
    
    
    </g>
</svg>