<svg version="1.1" viewBox="0 0 1024 1024" xmlns="http://www.w3.org/2000/svg">
  
  <g transform="scale(1, -1) translate(0, -900)">
    <style type="text/css">
        .stroke1 {fill: #808080;}
        .stroke2 {fill: #808079;}
        .stroke3 {fill: #808078;}
        .stroke4 {fill: #808077;}
        .stroke5 {fill: #808076;}
        .stroke6 {fill: #808075;}
        .stroke7 {fill: #808074;}
        .stroke8 {fill: #808073;}
        .stroke9 {fill: #808072;}
        .stroke10 {fill: #808071;}
        .stroke11 {fill: #808070;}
        .stroke12 {fill: #808069;}
        .stroke13 {fill: #808068;}
        .stroke14 {fill: #808067;}
        .stroke15 {fill: #808066;}
        .stroke16 {fill: #808065;}
        .stroke17 {fill: #808064;}
        .stroke18 {fill: #808063;}
        .stroke19 {fill: #808062;}
        .stroke20 {fill: #808061;}
        text {
            font-family: Helvetica;
            font-size: 50px;
            fill: #808060;
            paint-order: stroke;
            stroke: #000000;
            stroke-width: 4px;
            stroke-linecap: butt;
            stroke-linejoin: miter;
            font-weight: 800;
        }
    </style>

    <path d="M 554 621 Q 593 667 644 739 Q 653 752 660 758 Q 667 762 666 772 Q 665 782 653 793 Q 623 823 594 818 Q 585 817 587 805 Q 593 756 515 643 L 489 609 Q 432 548 322 459 Q 313 455 323 451 Q 401 463 515 577 Q 516 580 521 583 L 554 621 Z" class="stroke1"/>
    <path d="M 521 583 Q 570 546 625 501 Q 638 488 649 486 Q 656 486 660 494 Q 667 504 655 535 Q 643 569 554 621 L 515 643 Q 491 667 350 728 Q 343 732 342 722 Q 343 712 352 706 Q 416 663 489 609 L 521 583 Z" class="stroke2"/>
    <path d="M 447 767 Q 472 748 500 722 Q 512 712 525 713 Q 534 713 537 724 Q 541 737 533 761 Q 523 789 442 806 Q 429 809 424 807 Q 420 803 421 793 Q 425 784 447 767 Z" class="stroke3"/>
    <path d="M 305 605 Q 366 560 377 560 Q 386 561 389 572 Q 392 585 383 608 Q 371 635 298 643 Q 285 644 280 643 Q 276 639 278 629 Q 282 620 305 605 Z" class="stroke4"/>
    <path d="M 646 627 Q 667 609 688 587 Q 700 577 712 577 Q 721 578 725 589 Q 729 601 722 625 Q 718 641 693 651 Q 638 672 624 667 Q 620 663 621 653 Q 624 643 646 627 Z" class="stroke5"/>
    <path d="M 477 493 Q 510 439 532 435 Q 542 434 550 448 Q 551 458 545 476 Q 538 489 521 497 Q 494 512 482 514 Q 475 517 473 507 Q 472 500 477 493 Z" class="stroke6"/>
    <path d="M 752 437 Q 487 419 287 371 Q 260 365 267 397 Q 271 443 277 490 Q 281 517 269 532 Q 253 551 225 566 Q 212 573 201 570 Q 189 564 198 544 Q 223 487 216 432 Q 210 378 189 354 Q 168 335 176 319 Q 188 303 206 290 Q 222 280 233 289 Q 273 335 560 381 Q 714 406 747 392 C 776 386 782 439 752 437 Z" class="stroke7"/>
    <path d="M 747 392 Q 754 367 763 349 Q 772 333 784 344 Q 808 369 812 455 Q 830 569 837 581 Q 844 596 834 610 Q 815 626 781 645 Q 768 652 756 646 Q 749 642 751 628 Q 778 592 757 453 Q 754 446 752 437 L 747 392 Z" class="stroke8"/>
    <path d="M 405 159 Q 654 249 670 250 Q 695 253 690 274 Q 683 296 660 318 Q 641 340 627 341 Q 614 342 614 329 Q 608 292 503 236 Q 457 211 408 183 C 382 168 377 149 405 159 Z" class="stroke9"/>
    <path d="M 781 56 Q 769 93 764 160 Q 764 176 758 182 Q 751 188 744 168 Q 716 92 700 80 Q 688 64 652 52 Q 607 39 545 35 Q 475 32 445 42 Q 418 54 411 71 Q 405 89 405 159 L 408 183 Q 411 223 422 243 Q 434 274 414 290 Q 363 327 348 323 Q 332 316 341 299 Q 360 262 358 207 Q 355 66 379 34 Q 403 -3 489 -13 Q 550 -20 645 -12 Q 730 -5 763 15 Q 791 28 781 56 Z" class="stroke10"/>
    
    
    
    
    
    
    
    
    
    </g>
</svg>