<svg version="1.1" viewBox="0 0 1024 1024" xmlns="http://www.w3.org/2000/svg">
  
  <g transform="scale(1, -1) translate(0, -900)">
    <style type="text/css">
        .stroke1 {fill: #808080;}
        .stroke2 {fill: #808079;}
        .stroke3 {fill: #808078;}
        .stroke4 {fill: #808077;}
        .stroke5 {fill: #808076;}
        .stroke6 {fill: #808075;}
        .stroke7 {fill: #808074;}
        .stroke8 {fill: #808073;}
        .stroke9 {fill: #808072;}
        .stroke10 {fill: #808071;}
        .stroke11 {fill: #808070;}
        .stroke12 {fill: #808069;}
        .stroke13 {fill: #808068;}
        .stroke14 {fill: #808067;}
        .stroke15 {fill: #808066;}
        .stroke16 {fill: #808065;}
        .stroke17 {fill: #808064;}
        .stroke18 {fill: #808063;}
        .stroke19 {fill: #808062;}
        .stroke20 {fill: #808061;}
        text {
            font-family: Helvetica;
            font-size: 50px;
            fill: #808060;
            paint-order: stroke;
            stroke: #000000;
            stroke-width: 4px;
            stroke-linecap: butt;
            stroke-linejoin: miter;
            font-weight: 800;
        }
    </style>

    <path d="M 239 648 Q 273 688 323 755 Q 336 776 356 792 Q 374 807 358 821 Q 342 833 313 839 Q 286 846 275 839 Q 263 835 271 823 Q 281 801 236 695 Q 223 670 211 641 C 199 613 220 625 239 648 Z" class="stroke1"/>
    <path d="M 165 633 Q 155 637 135 640 Q 123 643 121 639 Q 115 633 122 619 Q 153 552 169 442 Q 169 412 190 386 Q 206 367 210 381 Q 211 388 213 397 L 213 425 Q 212 438 210 453 Q 188 568 183 603 C 179 628 179 628 165 633 Z" class="stroke2"/>
    <path d="M 394 423 Q 400 407 412 409 Q 425 410 432 425 Q 445 444 466 535 Q 481 584 514 612 Q 532 628 516 642 Q 500 658 452 682 Q 439 691 371 674 Q 349 674 239 648 L 211 641 Q 186 637 165 633 C 135 628 155 592 183 603 Q 182 604 184 604 Q 215 616 271 626 L 307 632 Q 400 653 419 643 Q 429 637 425 604 Q 406 480 395 455 Q 394 454 393 450 C 387 432 387 432 394 423 Z" class="stroke3"/>
    <path d="M 326 520 Q 351 527 378 531 Q 397 535 389 546 Q 379 558 358 560 Q 348 561 333 557 L 281 541 Q 247 529 217 519 Q 204 515 221 503 Q 225 500 276 509 L 326 520 Z" class="stroke4"/>
    <path d="M 304 413 Q 343 420 394 423 C 424 425 419 435 393 450 Q 381 462 311 445 L 263 434 Q 235 430 213 425 C 184 419 184 388 213 397 Q 231 403 257 406 L 304 413 Z" class="stroke5"/>
    <path d="M 257 406 Q 211 223 80 50 Q 76 46 73 40 Q 70 31 79 32 Q 104 35 180 128 Q 199 155 219 187 Q 273 286 304 413 L 311 445 Q 315 466 320 486 Q 323 504 326 520 L 333 557 Q 343 602 344 603 Q 331 619 307 632 C 282 648 261 654 271 626 Q 272 625 273 622 Q 285 597 281 541 L 276 509 Q 270 472 263 434 L 257 406 Z" class="stroke6"/>
    <path d="M 950 83 Q 934 129 926 206 Q 925 221 917 226 Q 910 230 906 212 Q 888 118 874 101 Q 817 41 596 41 Q 475 45 423 67 Q 377 91 368 121 Q 359 146 361 212 Q 368 282 382 317 Q 395 345 377 362 Q 329 399 314 395 Q 299 389 307 373 Q 325 337 320 284 Q 313 115 343 74 Q 379 13 513 -3 Q 606 -13 751 -2 Q 881 10 932 39 Q 960 54 950 83 Z" class="stroke7"/>
    <path d="M 510 228 Q 479 224 446 216 Q 442 215 441 215 Q 440 216 442 223 Q 493 305 504 319 Q 511 326 507 335 Q 501 344 466 356 Q 454 360 447 357 Q 440 351 445 338 Q 466 284 384 204 Q 381 203 380 200 Q 370 191 374 183 Q 378 173 398 159 Q 407 152 415 161 Q 434 182 518 208 C 547 217 540 232 510 228 Z" class="stroke8"/>
    <path d="M 530 253 Q 520 265 513 267 Q 507 271 504 263 Q 500 259 503 250 Q 506 240 510 228 L 518 208 Q 519 207 520 204 Q 527 188 538 183 Q 547 179 556 189 Q 560 198 560 214 Q 557 226 534 249 L 530 253 Z" class="stroke9"/>
    <path d="M 710 568 Q 743 577 778 584 Q 803 591 808 594 Q 815 601 811 609 Q 804 619 777 626 Q 740 632 711 613 L 673 601 Q 667 601 663 599 Q 629 592 587 586 Q 554 579 578 565 Q 617 546 668 558 Q 669 559 673 558 L 710 568 Z" class="stroke10"/>
    <path d="M 715 442 Q 727 446 848 460 Q 857 459 865 470 Q 866 480 847 489 Q 813 507 732 483 Q 720 480 709 477 L 671 469 Q 595 460 536 452 Q 511 449 530 435 Q 558 414 595 421 Q 620 427 651 431 L 715 442 Z" class="stroke11"/>
    <path d="M 709 477 Q 709 520 710 568 L 711 613 Q 711 695 726 748 Q 733 761 731 773 Q 725 780 678 809 Q 659 824 641 810 Q 637 806 642 793 Q 670 753 671 711 Q 671 660 673 601 L 673 558 Q 672 515 671 469 L 671 386 Q 671 281 651 208 Q 642 178 664 122 Q 670 107 677 105 Q 681 99 688 106 Q 695 110 703 128 Q 712 149 711 175 Q 710 206 709 404 L 709 477 Z" class="stroke12"/>
    <path d="M 651 431 Q 608 350 532 258 Q 531 257 530 253 C 528 248 528 248 534 249 Q 573 249 664 375 Q 667 381 671 386 C 710 441 665 457 651 431 Z" class="stroke13"/>
    <path d="M 709 404 Q 743 343 789 275 Q 799 262 820 261 Q 887 258 908 261 Q 915 262 916 265 Q 917 268 909 274 Q 810 325 733 420 Q 724 430 715 442 C 697 466 684 449 709 404 Z" class="stroke14"/>
    
    
    
    
    
    
    
    
    
    
    
    
    
    </g>
</svg>