<svg version="1.1" viewBox="0 0 1024 1024" xmlns="http://www.w3.org/2000/svg">
  
  <g transform="scale(1, -1) translate(0, -900)">
    <style type="text/css">
        .stroke1 {fill: #808080;}
        .stroke2 {fill: #808079;}
        .stroke3 {fill: #808078;}
        .stroke4 {fill: #808077;}
        .stroke5 {fill: #808076;}
        .stroke6 {fill: #808075;}
        .stroke7 {fill: #808074;}
        .stroke8 {fill: #808073;}
        .stroke9 {fill: #808072;}
        .stroke10 {fill: #808071;}
        .stroke11 {fill: #808070;}
        .stroke12 {fill: #808069;}
        .stroke13 {fill: #808068;}
        .stroke14 {fill: #808067;}
        .stroke15 {fill: #808066;}
        .stroke16 {fill: #808065;}
        .stroke17 {fill: #808064;}
        .stroke18 {fill: #808063;}
        .stroke19 {fill: #808062;}
        .stroke20 {fill: #808061;}
        text {
            font-family: Helvetica;
            font-size: 50px;
            fill: #808060;
            paint-order: stroke;
            stroke: #000000;
            stroke-width: 4px;
            stroke-linecap: butt;
            stroke-linejoin: miter;
            font-weight: 800;
        }
    </style>

    <path d="M 482 740 Q 509 771 534 795 Q 547 807 534 825 Q 494 868 466 869 Q 453 868 453 852 Q 453 755 324 647 Q 320 646 271 605 Q 259 590 277 592 Q 296 592 324 607 Q 406 650 459 713 L 482 740 Z" class="stroke1"/>
    <path d="M 528 560 Q 555 582 601 623 Q 658 675 711 702 Q 733 712 720 728 Q 707 744 666 773 Q 647 782 629 772 Q 617 768 519 747 Q 501 743 482 740 C 452 735 429 716 459 713 Q 490 707 588 720 Q 600 721 603 718 Q 607 712 598 701 Q 534 610 497 567 Q 490 560 485 552 C 467 528 505 541 528 560 Z" class="stroke2"/>
    <path d="M 323 521 Q 307 527 285 528 Q 272 532 267 525 Q 260 518 271 500 Q 308 427 334 305 Q 338 268 361 245 Q 383 220 388 238 Q 389 242 390 247 L 391 276 Q 390 295 385 319 Q 357 449 350 487 C 345 514 345 514 323 521 Z" class="stroke3"/>
    <path d="M 627 279 Q 646 246 664 236 Q 676 226 695 250 Q 716 280 762 446 Q 774 480 802 508 Q 818 521 805 538 Q 789 559 741 591 Q 720 603 661 586 Q 598 577 528 560 L 485 552 Q 463 549 442 544 Q 378 531 323 521 C 293 516 321 479 350 487 Q 402 503 477 519 L 525 529 Q 667 562 695 543 Q 711 528 705 504 Q 663 329 642 312 C 626 287 624 283 627 279 Z" class="stroke4"/>
    <path d="M 540 404 Q 622 428 624 429 Q 631 436 627 443 Q 620 452 597 457 Q 558 461 542 446 L 486 428 Q 452 421 413 414 Q 385 408 406 396 Q 439 378 487 391 L 540 404 Z" class="stroke5"/>
    <path d="M 536 304 Q 537 359 540 404 L 542 446 Q 549 506 543 514 Q 534 523 525 529 C 501 547 470 548 477 519 Q 483 501 486 428 L 487 391 Q 487 352 490 295 C 492 265 535 274 536 304 Z" class="stroke6"/>
    <path d="M 390 247 Q 397 247 409 248 Q 530 267 627 279 C 657 283 669 299 642 312 Q 639 315 632 316 Q 602 322 536 304 L 490 295 Q 438 286 391 276 C 362 270 360 246 390 247 Z" class="stroke7"/>
    <path d="M 143 186 Q 133 126 112 70 Q 100 24 130 -12 Q 146 -31 167 -9 Q 212 51 193 124 Q 189 166 172 194 Q 163 201 156 202 Q 146 198 143 186 Z" class="stroke8"/>
    <path d="M 340 140 Q 367 83 399 60 Q 414 54 427 66 Q 436 78 437 96 Q 436 123 420 140 Q 384 176 344 184 Q 338 185 335 184 Q 328 184 328 171 Q 327 158 340 140 Z" class="stroke9"/>
    <path d="M 541 157 Q 584 99 620 80 Q 636 76 647 89 Q 654 102 653 120 Q 641 172 559 196 L 558 197 Q 540 204 530 200 Q 523 199 525 186 Q 526 173 541 157 Z" class="stroke10"/>
    <path d="M 746 179 Q 801 124 865 45 Q 883 20 901 13 Q 911 12 921 23 Q 937 38 924 92 Q 920 120 900 140 Q 881 158 832 180 Q 780 205 749 216 Q 739 223 736 208 Q 735 192 746 179 Z" class="stroke11"/>
    
    
    
    
    
    
    
    
    
    
    </g>
</svg>