<svg version="1.1" viewBox="0 0 1024 1024" xmlns="http://www.w3.org/2000/svg">
  
  <g transform="scale(1, -1) translate(0, -900)">
    <style type="text/css">
        .stroke1 {fill: #808080;}
        .stroke2 {fill: #808079;}
        .stroke3 {fill: #808078;}
        .stroke4 {fill: #808077;}
        .stroke5 {fill: #808076;}
        .stroke6 {fill: #808075;}
        .stroke7 {fill: #808074;}
        .stroke8 {fill: #808073;}
        .stroke9 {fill: #808072;}
        .stroke10 {fill: #808071;}
        .stroke11 {fill: #808070;}
        .stroke12 {fill: #808069;}
        .stroke13 {fill: #808068;}
        .stroke14 {fill: #808067;}
        .stroke15 {fill: #808066;}
        .stroke16 {fill: #808065;}
        .stroke17 {fill: #808064;}
        .stroke18 {fill: #808063;}
        .stroke19 {fill: #808062;}
        .stroke20 {fill: #808061;}
        text {
            font-family: Helvetica;
            font-size: 50px;
            fill: #808060;
            paint-order: stroke;
            stroke: #000000;
            stroke-width: 4px;
            stroke-linecap: butt;
            stroke-linejoin: miter;
            font-weight: 800;
        }
    </style>

    <path d="M 249 689 Q 321 792 321 793 Q 320 795 320 796 Q 317 806 296 824 Q 277 839 262 839 Q 247 838 253 821 Q 266 791 207 698 Q 180 655 141 607 Q 134 600 132 595 Q 129 586 140 588 Q 164 592 222 658 Q 229 668 240 678 L 249 689 Z" class="stroke1"/>
    <path d="M 281 538 Q 299 557 333 605 Q 367 651 401 679 Q 416 689 405 699 Q 395 709 363 724 Q 354 727 282 698 Q 267 694 249 689 C 228 683 228 683 240 678 Q 255 666 315 680 Q 319 681 322 680 Q 326 676 321 666 Q 288 587 267 549 Q 261 539 259 532 C 248 504 261 516 281 538 Z" class="stroke2"/>
    <path d="M 150 503 Q 140 507 115 512 Q 105 515 102 510 Q 98 506 104 492 Q 132 434 147 338 Q 150 310 166 290 Q 182 271 186 285 Q 189 295 189 311 L 187 335 Q 175 381 162 475 C 158 500 158 500 150 503 Z" class="stroke3"/>
    <path d="M 322 335 Q 337 316 350 310 Q 359 304 370 323 Q 380 342 400 454 Q 406 479 424 502 Q 434 512 424 524 Q 411 537 374 556 Q 362 562 298 543 Q 289 543 281 538 L 259 532 Q 235 529 150 503 C 121 494 134 465 162 475 Q 162 476 164 476 Q 192 486 233 496 L 260 504 Q 329 525 345 515 Q 357 508 355 491 Q 339 367 324 357 C 315 343 315 343 322 335 Z" class="stroke4"/>
    <path d="M 278 410 Q 296 414 314 417 Q 332 421 325 430 Q 310 448 279 443 L 242 434 Q 217 427 197 418 Q 184 414 200 403 Q 203 402 243 405 L 278 410 Z" class="stroke5"/>
    <path d="M 275 360 Q 276 387 278 410 L 279 443 Q 279 455 281 469 Q 285 487 260 504 C 236 522 220 523 233 496 Q 239 490 242 434 L 243 405 Q 243 383 245 350 C 247 320 274 330 275 360 Z" class="stroke6"/>
    <path d="M 189 311 Q 196 311 207 313 Q 243 325 322 335 C 347 338 347 338 324 357 Q 320 361 313 364 Q 301 370 279 362 Q 276 361 275 360 L 245 350 Q 211 343 187 335 C 158 326 159 310 189 311 Z" class="stroke7"/>
    <path d="M 98 211 Q 71 105 83 81 Q 89 69 101 61 Q 110 54 120 58 Q 135 70 127 191 Q 123 219 116 227 Q 112 231 107 229 Q 103 226 98 211 Z" class="stroke8"/>
    <path d="M 180 209 Q 187 181 192 149 Q 193 139 202 133 Q 206 129 214 133 Q 221 139 228 156 Q 234 169 223 192 Q 193 237 185 242 Q 181 241 177 235 Q 176 228 180 209 Z" class="stroke9"/>
    <path d="M 258 225 Q 285 165 290 162 Q 296 159 302 165 Q 309 172 311 190 Q 314 203 300 221 Q 267 258 256 258 Q 252 257 250 250 Q 249 243 258 225 Z" class="stroke10"/>
    <path d="M 327 263 Q 345 208 363 199 Q 370 195 380 205 Q 384 212 382 228 Q 379 252 337 280 Q 331 283 328 276 Q 325 272 327 263 Z" class="stroke11"/>
    <path d="M 585 449 Q 586 448 589 443 Q 608 415 627 438 Q 637 451 645 492 Q 654 606 677 643 Q 687 659 676 672 Q 660 685 633 700 Q 620 704 606 699 Q 551 674 487 656 C 458 648 474 621 501 633 Q 588 672 608 662 Q 617 658 614 630 Q 607 554 598 489 Q 598 471 582 467 C 575 463 575 463 585 449 Z" class="stroke12"/>
    <path d="M 496 531 Q 542 540 576 548 Q 592 552 585 562 Q 576 572 556 574 Q 516 574 496 555 C 474 535 467 525 496 531 Z" class="stroke13"/>
    <path d="M 497 435 Q 515 441 585 449 C 600 451 600 451 582 467 Q 578 471 569 476 Q 557 482 497 461 C 469 451 468 426 497 435 Z" class="stroke14"/>
    <path d="M 594 327 Q 587 324 498 263 Q 494 259 491 264 Q 495 355 497 435 L 497 461 Q 496 498 496 531 L 496 555 Q 496 628 501 633 C 503 644 503 644 487 656 Q 471 669 456 676 Q 440 682 432 677 Q 423 671 431 659 Q 476 574 452 298 Q 452 256 420 212 Q 411 199 419 180 Q 429 158 440 148 Q 452 142 461 157 Q 470 179 603 311 C 624 332 619 343 594 327 Z" class="stroke15"/>
    <path d="M 603 311 Q 630 260 640 256 Q 647 255 654 261 Q 661 270 662 291 Q 663 325 590 380 Q 581 386 576 386 Q 572 385 570 376 Q 570 370 594 327 L 603 311 Z" class="stroke16"/>
    <path d="M 769 546 Q 829 571 871 582 Q 881 583 883 581 Q 893 568 890 531 Q 886 429 865 384 Q 853 357 830 359 Q 815 362 801 365 Q 779 372 795 351 Q 826 318 841 292 Q 860 274 875 292 Q 924 337 938 458 Q 942 566 957 588 Q 966 598 960 607 Q 951 614 908 629 Q 892 635 876 622 Q 855 604 760 576 C 731 567 741 535 769 546 Z" class="stroke17"/>
    <path d="M 760 576 Q 730 595 716 598 Q 704 602 690 594 Q 683 587 688 578 Q 710 526 712 504 Q 713 368 706 153 Q 702 -34 719 -57 Q 723 -64 731 -62 Q 746 -53 750 0 Q 750 9 756 264 Q 756 492 768 545 Q 767 546 769 546 C 774 568 774 568 760 576 Z" class="stroke18"/>
    
    
    
    
    
    
    
    
    
    
    
    
    
    
    
    
    
    </g>
</svg>