<svg version="1.1" viewBox="0 0 1024 1024" xmlns="http://www.w3.org/2000/svg">
  
  <g transform="scale(1, -1) translate(0, -900)">
    <style type="text/css">
        .stroke1 {fill: #808080;}
        .stroke2 {fill: #808079;}
        .stroke3 {fill: #808078;}
        .stroke4 {fill: #808077;}
        .stroke5 {fill: #808076;}
        .stroke6 {fill: #808075;}
        .stroke7 {fill: #808074;}
        .stroke8 {fill: #808073;}
        .stroke9 {fill: #808072;}
        .stroke10 {fill: #808071;}
        .stroke11 {fill: #808070;}
        .stroke12 {fill: #808069;}
        .stroke13 {fill: #808068;}
        .stroke14 {fill: #808067;}
        .stroke15 {fill: #808066;}
        .stroke16 {fill: #808065;}
        .stroke17 {fill: #808064;}
        .stroke18 {fill: #808063;}
        .stroke19 {fill: #808062;}
        .stroke20 {fill: #808061;}
        text {
            font-family: Helvetica;
            font-size: 50px;
            fill: #808060;
            paint-order: stroke;
            stroke: #000000;
            stroke-width: 4px;
            stroke-linecap: butt;
            stroke-linejoin: miter;
            font-weight: 800;
        }
    </style>

    <path d="M 273 712 Q 325 785 341 798 Q 348 807 345 818 Q 342 828 320 848 Q 298 864 283 864 Q 267 863 273 845 Q 282 827 275 811 Q 253 759 221 711 Q 190 665 146 613 Q 139 606 136 600 Q 132 591 144 593 Q 183 599 257 693 L 273 712 Z" class="stroke1"/>
    <path d="M 302 548 Q 404 659 441 682 Q 459 691 448 704 Q 435 717 400 739 Q 384 746 370 737 Q 363 734 302 717 Q 289 714 273 712 C 243 708 230 706 257 693 Q 270 681 338 691 Q 345 692 346 691 Q 350 687 344 676 Q 299 589 268 541 C 252 516 282 526 302 548 Z" class="stroke2"/>
    <path d="M 155 515 Q 145 519 118 524 Q 108 527 104 522 Q 100 516 107 502 Q 138 439 156 337 Q 160 306 177 286 Q 193 267 198 281 L 200 293 L 200 323 Q 199 335 196 348 Q 172 457 168 489 C 165 512 165 512 155 515 Z" class="stroke3"/>
    <path d="M 346 315 Q 359 293 373 286 Q 382 280 394 297 Q 410 324 439 465 Q 446 490 465 511 Q 475 521 466 533 Q 453 546 418 568 Q 400 577 302 548 L 268 541 Q 252 538 235 534 Q 190 524 155 515 C 126 508 139 483 168 489 Q 172 489 180 491 Q 208 501 253 510 L 287 518 Q 372 539 389 529 Q 402 517 399 497 Q 371 353 357 339 C 345 316 345 316 346 315 Z" class="stroke4"/>
    <path d="M 299 418 Q 323 424 346 427 Q 365 431 357 442 Q 347 454 326 456 Q 316 457 300 454 L 261 442 Q 231 432 205 423 Q 192 419 209 407 L 262 411 L 299 418 Z" class="stroke5"/>
    <path d="M 296 347 Q 297 386 299 418 L 300 454 Q 300 470 302 487 Q 306 502 287 518 C 265 538 245 539 253 510 Q 257 501 261 442 L 262 411 Q 262 383 264 338 C 265 308 295 317 296 347 Z" class="stroke6"/>
    <path d="M 200 293 Q 206 293 213 294 Q 256 306 346 315 C 376 318 380 320 357 339 Q 353 343 342 350 Q 327 357 301 349 Q 297 348 296 347 L 264 338 Q 228 331 200 323 C 171 315 170 292 200 293 Z" class="stroke7"/>
    <path d="M 84 210 Q 54 96 66 71 Q 72 58 85 49 Q 94 42 104 46 Q 111 50 115 61 Q 118 74 115 189 Q 112 217 104 227 Q 100 231 94 229 Q 90 226 84 210 Z" class="stroke8"/>
    <path d="M 169 192 Q 205 126 212 124 Q 219 123 226 129 Q 233 138 234 159 Q 235 174 218 192 Q 176 231 164 230 Q 160 229 158 220 Q 158 213 169 192 Z" class="stroke9"/>
    <path d="M 267 206 Q 300 161 309 158 Q 316 157 322 165 Q 326 174 325 195 Q 322 216 271 239 Q 261 243 256 242 Q 252 241 251 231 Q 252 224 267 206 Z" class="stroke10"/>
    <path d="M 356 243 Q 395 186 414 183 Q 424 182 429 194 Q 430 204 426 219 Q 408 250 361 262 Q 354 263 353 256 Q 352 250 356 243 Z" class="stroke11"/>
    <path d="M 529 701 Q 516 705 498 708 Q 488 711 484 706 Q 480 700 487 686 Q 514 634 531 549 Q 534 524 549 506 Q 565 487 570 501 Q 571 508 573 517 L 571 543 Q 553 631 549 672 Q 549 673 550 673 C 551 695 551 695 529 701 Z" class="stroke12"/>
    <path d="M 781 546 Q 793 527 804 518 Q 813 511 828 528 Q 841 544 874 638 Q 883 665 905 685 Q 917 695 907 708 Q 895 724 859 749 Q 844 758 783 743 Q 762 742 629 718 Q 575 708 529 701 C 499 696 521 665 550 673 Q 574 680 606 686 L 627 690 Q 660 699 708 704 L 747 711 Q 804 726 826 711 Q 836 702 832 688 Q 802 580 787 573 C 774 556 774 556 781 546 Z" class="stroke13"/>
    <path d="M 652 557 Q 652 558 653 559 Q 656 595 633 676 Q 632 685 627 690 C 609 714 603 716 606 686 Q 615 577 633 554 C 646 535 646 535 652 557 Z" class="stroke14"/>
    <path d="M 727 575 Q 739 603 751 640 Q 755 656 767 677 Q 776 687 768 695 Q 761 704 747 711 C 721 725 696 731 708 704 Q 723 677 697 571 Q 696 570 696 567 C 689 538 715 547 727 575 Z" class="stroke15"/>
    <path d="M 573 517 Q 579 516 590 518 Q 650 534 781 546 C 811 549 811 555 787 573 Q 783 576 780 578 Q 770 584 727 575 L 696 567 Q 674 563 652 557 L 633 554 Q 599 550 571 543 C 542 536 543 518 573 517 Z" class="stroke16"/>
    <path d="M 631 479 Q 659 436 633 149 Q 618 41 626 17 Q 638 -31 664 -46 Q 676 -47 681 -35 Q 694 -2 690 29 Q 687 369 699 447 Q 702 460 695 466 Q 671 487 652 496 Q 639 500 630 493 Q 624 489 631 479 Z" class="stroke17"/>
    <path d="M 521 415 Q 521 378 439 282 Q 423 269 444 274 Q 483 278 581 395 Q 588 405 585 412 Q 581 422 560 426 Q 538 430 528 428 Q 522 427 521 415 Z" class="stroke18"/>
    <path d="M 539 286 Q 533 214 383 59 Q 367 44 389 50 Q 468 72 564 212 Q 589 249 602 265 Q 609 275 607 284 Q 603 294 580 298 Q 555 304 546 300 Q 539 299 539 286 Z" class="stroke19"/>
    <path d="M 789 386 Q 820 362 854 333 Q 867 323 880 324 Q 889 325 893 336 Q 897 349 888 375 Q 876 406 783 427 Q 770 428 764 427 Q 760 423 761 412 Q 765 402 789 386 Z" class="stroke20"/>
    <path d="M 767 251 Q 818 200 878 127 Q 891 108 906 103 Q 913 102 921 110 Q 933 122 923 162 Q 911 216 769 279 Q 762 285 759 273 Q 758 261 767 251 Z" class="stroke21"/>
    
    
    
    
    
    
    
    
    
    
    
    
    
    
    
    
    
    
    
    
    </g>
</svg>