<svg version="1.1" viewBox="0 0 1024 1024" xmlns="http://www.w3.org/2000/svg">
  
  <g transform="scale(1, -1) translate(0, -900)">
    <style type="text/css">
        .stroke1 {fill: #808080;}
        .stroke2 {fill: #808079;}
        .stroke3 {fill: #808078;}
        .stroke4 {fill: #808077;}
        .stroke5 {fill: #808076;}
        .stroke6 {fill: #808075;}
        .stroke7 {fill: #808074;}
        .stroke8 {fill: #808073;}
        .stroke9 {fill: #808072;}
        .stroke10 {fill: #808071;}
        .stroke11 {fill: #808070;}
        .stroke12 {fill: #808069;}
        .stroke13 {fill: #808068;}
        .stroke14 {fill: #808067;}
        .stroke15 {fill: #808066;}
        .stroke16 {fill: #808065;}
        .stroke17 {fill: #808064;}
        .stroke18 {fill: #808063;}
        .stroke19 {fill: #808062;}
        .stroke20 {fill: #808061;}
        text {
            font-family: Helvetica;
            font-size: 50px;
            fill: #808060;
            paint-order: stroke;
            stroke: #000000;
            stroke-width: 4px;
            stroke-linecap: butt;
            stroke-linejoin: miter;
            font-weight: 800;
        }
    </style>

    <path d="M 267 674 Q 331 789 333 791 L 331 799 Q 327 809 299 827 Q 274 840 258 839 Q 242 836 251 817 Q 269 784 215 671 Q 190 619 151 559 Q 144 549 142 544 Q 141 534 152 538 Q 182 541 258 660 L 267 674 Z" class="stroke1"/>
    <path d="M 288 505 Q 307 521 355 579 Q 394 625 431 652 Q 447 661 437 672 Q 427 684 394 703 Q 381 707 367 700 Q 360 697 303 680 Q 287 676 267 674 C 237 671 236 670 258 660 Q 274 647 339 659 Q 346 660 347 658 Q 351 654 346 644 Q 306 565 281 526 Q 272 511 271 504 Q 270 503 270 500 C 266 485 266 485 288 505 Z" class="stroke2"/>
    <path d="M 167 471 Q 166 472 166 473 Q 156 479 122 484 Q 112 487 108 482 Q 104 476 111 462 Q 142 393 160 282 Q 163 248 181 226 Q 197 207 202 221 Q 206 234 206 252 L 204 276 Q 203 285 201 294 Q 179 400 173 439 L 167 471 Z" class="stroke3"/>
    <path d="M 362 286 Q 378 264 393 258 Q 403 251 415 271 Q 428 296 446 426 Q 452 454 471 477 Q 481 489 471 500 Q 456 513 417 534 Q 405 540 340 520 Q 331 520 288 505 L 270 500 Q 248 496 228 489 Q 194 479 167 471 C 138 462 146 427 173 439 Q 172 440 174 440 Q 205 453 251 465 L 285 474 Q 367 504 387 490 Q 402 480 399 462 Q 384 320 367 309 C 357 292 357 292 362 286 Z" class="stroke4"/>
    <path d="M 300 369 Q 328 376 353 379 Q 372 383 365 394 Q 355 406 335 408 Q 320 409 301 404 L 260 391 Q 232 384 209 375 Q 196 371 213 359 Q 214 359 261 362 L 300 369 Z" class="stroke5"/>
    <path d="M 297 307 Q 298 340 300 369 L 301 404 Q 301 422 303 440 Q 309 459 285 474 C 260 491 240 493 251 465 Q 257 456 260 391 L 261 362 Q 261 335 263 295 C 264 265 296 277 297 307 Z" class="stroke6"/>
    <path d="M 206 252 Q 239 264 362 286 C 392 291 392 293 367 309 Q 360 315 346 316 Q 327 317 297 307 L 263 295 Q 232 286 204 276 C 176 266 178 242 206 252 Z" class="stroke7"/>
    <path d="M 117 176 Q 110 124 91 76 Q 82 46 101 24 Q 110 12 124 25 Q 157 65 147 136 Q 146 161 136 180 Q 130 186 126 186 Q 119 183 117 176 Z" class="stroke8"/>
    <path d="M 195 158 Q 201 83 218 70 Q 225 63 238 73 Q 245 80 248 98 Q 249 114 237 132 Q 219 163 209 173 Q 205 177 198 171 Q 194 167 195 158 Z" class="stroke9"/>
    <path d="M 279 181 Q 304 106 321 99 Q 331 95 340 106 Q 344 115 344 132 Q 343 150 326 165 Q 302 192 290 199 Q 283 203 280 195 Q 276 189 279 181 Z" class="stroke10"/>
    <path d="M 393 180 Q 406 158 420 131 Q 427 118 439 115 Q 446 114 454 121 Q 461 131 461 155 Q 461 179 400 216 Q 390 223 384 222 Q 380 221 378 211 Q 378 201 393 180 Z" class="stroke11"/>
    <path d="M 712 702 Q 745 711 781 717 Q 814 724 819 729 Q 826 736 822 743 Q 816 752 793 758 Q 768 762 715 742 L 664 729 Q 618 719 567 714 Q 537 710 558 695 Q 591 677 646 690 Q 655 693 666 693 L 712 702 Z" class="stroke12"/>
    <path d="M 555 607 Q 545 611 518 616 Q 508 619 504 614 Q 500 608 507 594 Q 534 542 550 454 Q 554 427 569 410 Q 585 391 590 405 Q 593 414 593 426 L 591 449 Q 584 488 569 578 C 565 604 565 604 555 607 Z" class="stroke13"/>
    <path d="M 817 424 Q 835 443 861 517 Q 877 563 910 588 Q 928 603 914 617 Q 898 633 854 657 Q 839 666 774 650 Q 756 650 710 639 L 667 630 Q 657 630 555 607 C 526 600 540 571 569 578 Q 575 578 580 580 Q 611 592 667 602 L 709 610 Q 802 631 825 621 Q 832 615 827 588 Q 809 509 799 478 L 790 454 Q 789 444 792 434 Q 795 422 802 421 C 809 412 809 412 817 424 Z" class="stroke14"/>
    <path d="M 707 522 Q 740 529 769 532 Q 788 535 781 546 Q 772 558 751 562 Q 735 563 708 557 L 668 546 Q 640 539 614 530 Q 601 527 617 515 Q 621 512 668 516 L 707 522 Z" class="stroke15"/>
    <path d="M 593 426 Q 600 425 610 426 Q 638 432 666 435 L 705 442 Q 750 449 790 454 C 820 458 824 462 799 478 Q 781 493 725 481 Q 713 480 706 476 L 667 467 Q 627 458 591 449 C 562 442 563 428 593 426 Z" class="stroke16"/>
    <path d="M 710 639 Q 711 670 712 702 L 715 742 Q 716 761 720 775 Q 726 797 729 814 Q 732 824 713 838 Q 679 854 657 859 Q 641 862 634 853 Q 627 846 635 832 Q 663 792 664 729 L 666 693 Q 666 662 667 630 L 667 602 Q 668 575 668 546 L 668 516 Q 667 492 667 467 L 666 435 Q 665 404 665 367 C 665 337 702 345 703 375 L 703 376 Q 704 410 705 442 L 706 476 Q 706 500 707 522 L 708 557 Q 708 584 709 610 L 710 639 Z" class="stroke17"/>
    <path d="M 743 357 Q 762 364 784 370 Q 799 374 814 381 C 842 393 836 405 807 399 Q 758 389 703 375 L 665 367 Q 533 342 512 343 Q 502 343 500 335 Q 497 325 504 318 Q 520 305 545 287 Q 552 284 563 290 Q 611 318 710 347 L 743 357 Z" class="stroke18"/>
    <path d="M 814 381 Q 830 339 846 331 Q 855 327 864 337 Q 868 346 867 362 Q 864 393 817 424 C 803 433 803 433 802 421 Q 801 417 803 410 Q 804 406 807 399 L 814 381 Z" class="stroke19"/>
    <path d="M 777 246 Q 832 253 904 255 Q 925 255 943 256 Q 961 257 964 265 Q 968 275 953 287 Q 901 324 838 302 Q 810 296 779 288 L 725 276 Q 716 276 454 228 Q 435 225 450 211 Q 463 199 479 195 Q 498 191 513 196 Q 624 230 725 240 L 777 246 Z" class="stroke20"/>
    <path d="M 725 240 Q 725 173 725 52 Q 724 21 715 8 Q 705 1 677 9 Q 658 13 635 16 Q 625 19 625 12 Q 626 5 636 -3 Q 691 -45 728 -78 Q 738 -87 750 -72 Q 786 -24 780 46 Q 774 181 777 246 L 779 288 Q 779 292 780 297 Q 786 321 780 330 Q 773 340 743 357 C 717 372 701 376 710 347 Q 725 302 725 276 L 725 240 Z" class="stroke21"/>
    <path d="M 580 135 Q 601 114 622 90 Q 632 78 647 78 Q 656 78 661 89 Q 665 102 660 127 Q 653 154 579 177 Q 566 181 560 179 Q 556 175 556 164 Q 559 154 580 135 Z" class="stroke22"/>
    
    
    
    
    
    
    
    
    
    
    
    
    
    
    
    
    
    
    
    
    
    </g>
</svg>