<svg version="1.1" viewBox="0 0 1024 1024" xmlns="http://www.w3.org/2000/svg">
  
  <g transform="scale(1, -1) translate(0, -900)">
    <style type="text/css">
        .stroke1 {fill: #808080;}
        .stroke2 {fill: #808079;}
        .stroke3 {fill: #808078;}
        .stroke4 {fill: #808077;}
        .stroke5 {fill: #808076;}
        .stroke6 {fill: #808075;}
        .stroke7 {fill: #808074;}
        .stroke8 {fill: #808073;}
        .stroke9 {fill: #808072;}
        .stroke10 {fill: #808071;}
        .stroke11 {fill: #808070;}
        .stroke12 {fill: #808069;}
        .stroke13 {fill: #808068;}
        .stroke14 {fill: #808067;}
        .stroke15 {fill: #808066;}
        .stroke16 {fill: #808065;}
        .stroke17 {fill: #808064;}
        .stroke18 {fill: #808063;}
        .stroke19 {fill: #808062;}
        .stroke20 {fill: #808061;}
        text {
            font-family: Helvetica;
            font-size: 50px;
            fill: #808060;
            paint-order: stroke;
            stroke: #000000;
            stroke-width: 4px;
            stroke-linecap: butt;
            stroke-linejoin: miter;
            font-weight: 800;
        }
    </style>

    <path d="M 289 661 Q 302 677 316 696 Q 334 721 348 734 Q 355 741 353 754 Q 350 764 328 784 Q 306 800 291 801 Q 275 800 281 782 Q 290 758 252 688 Q 210 622 151 553 Q 142 546 140 540 Q 136 531 148 533 Q 176 536 272 640 L 289 661 Z" class="stroke1"/>
    <path d="M 325 510 Q 407 615 443 642 Q 459 652 448 664 Q 435 674 401 694 Q 394 697 310 667 Q 300 664 289 661 C 260 653 243 648 272 640 Q 284 633 335 642 Q 347 649 353 644 Q 357 641 352 631 Q 321 549 299 511 Q 296 507 294 502 C 280 476 306 486 325 510 Z" class="stroke2"/>
    <path d="M 183 475 Q 173 479 146 484 Q 136 487 132 482 Q 128 476 135 462 Q 166 395 184 285 Q 187 252 205 230 Q 221 211 226 225 Q 230 238 230 256 L 227 280 Q 226 289 224 297 Q 202 414 196 448 C 192 472 192 472 183 475 Z" class="stroke3"/>
    <path d="M 366 280 Q 379 261 393 254 Q 403 248 414 266 Q 427 291 450 426 Q 457 451 475 473 Q 485 483 475 495 Q 462 508 426 528 Q 414 534 345 515 Q 338 515 325 510 L 294 502 Q 282 501 183 475 C 154 467 167 439 196 448 Q 227 458 274 469 L 302 476 Q 386 498 397 488 Q 410 473 408 458 Q 387 313 370 303 C 360 288 360 288 366 280 Z" class="stroke4"/>
    <path d="M 321 376 Q 340 382 359 385 Q 377 389 369 398 Q 360 408 340 411 Q 333 412 323 409 L 283 397 Q 255 387 233 378 Q 220 374 236 364 L 284 368 L 321 376 Z" class="stroke5"/>
    <path d="M 317 305 Q 318 344 321 376 L 323 409 Q 323 428 325 439 Q 329 452 324 459 Q 314 469 302 476 C 277 492 267 498 274 469 Q 280 448 283 397 L 284 368 Q 284 340 284 296 C 284 266 316 275 317 305 Z" class="stroke6"/>
    <path d="M 230 256 Q 305 272 366 280 C 396 284 397 290 370 303 Q 363 307 353 309 Q 337 310 317 305 L 284 296 Q 253 289 227 280 C 199 270 201 250 230 256 Z" class="stroke7"/>
    <path d="M 111 140 Q 99 139 97 130 Q 96 120 103 111 Q 122 98 150 80 Q 160 77 170 84 Q 194 100 356 169 Q 378 176 393 189 Q 405 195 405 203 Q 401 207 390 206 Q 161 139 111 140 Z" class="stroke8"/>
    <path d="M 613 460 Q 790 511 797 517 Q 804 524 800 533 Q 793 543 763 549 Q 735 553 706 539 Q 664 523 620 506 L 568 493 Q 535 487 503 481 Q 467 472 494 458 Q 524 445 561 447 L 613 460 Z" class="stroke9"/>
    <path d="M 561 447 Q 509 216 406 107 Q 381 82 350 53 Q 340 46 337 42 Q 333 35 349 37 Q 359 37 402 64 Q 433 83 479 132 Q 575 234 613 460 L 620 506 Q 624 549 628 591 Q 631 694 653 756 Q 659 766 650 774 Q 634 790 599 804 Q 580 814 563 808 Q 544 801 559 785 Q 584 757 585 727 Q 582 594 568 493 L 561 447 Z" class="stroke10"/>
    <path d="M 973 117 Q 957 147 934 238 Q 933 254 925 258 Q 919 261 916 243 Q 897 143 880 112 Q 856 85 773 88 Q 742 89 718 100 Q 697 110 692 123 Q 665 181 704 377 Q 711 407 662 427 Q 649 431 641 427 Q 634 423 639 406 Q 651 366 647 330 Q 626 105 665 69 Q 735 18 887 40 Q 891 43 898 43 Q 932 52 969 74 Q 988 90 973 117 Z" class="stroke11"/>
    <path d="M 742 651 Q 770 632 802 606 Q 817 596 831 598 Q 841 599 845 612 Q 848 627 836 654 Q 829 673 798 684 Q 723 702 712 695 Q 708 691 710 679 Q 714 669 742 651 Z" class="stroke12"/>
    
    
    
    
    
    
    
    
    
    
    
    </g>
</svg>