<svg version="1.1" viewBox="0 0 1024 1024" xmlns="http://www.w3.org/2000/svg">
  
  <g transform="scale(1, -1) translate(0, -900)">
    <style type="text/css">
        .stroke1 {fill: #808080;}
        .stroke2 {fill: #808079;}
        .stroke3 {fill: #808078;}
        .stroke4 {fill: #808077;}
        .stroke5 {fill: #808076;}
        .stroke6 {fill: #808075;}
        .stroke7 {fill: #808074;}
        .stroke8 {fill: #808073;}
        .stroke9 {fill: #808072;}
        .stroke10 {fill: #808071;}
        .stroke11 {fill: #808070;}
        .stroke12 {fill: #808069;}
        .stroke13 {fill: #808068;}
        .stroke14 {fill: #808067;}
        .stroke15 {fill: #808066;}
        .stroke16 {fill: #808065;}
        .stroke17 {fill: #808064;}
        .stroke18 {fill: #808063;}
        .stroke19 {fill: #808062;}
        .stroke20 {fill: #808061;}
        text {
            font-family: Helvetica;
            font-size: 50px;
            fill: #808060;
            paint-order: stroke;
            stroke: #000000;
            stroke-width: 4px;
            stroke-linecap: butt;
            stroke-linejoin: miter;
            font-weight: 800;
        }
    </style>

    <path d="M 430 712 Q 476 766 498 778 Q 508 785 507 799 Q 506 812 483 837 Q 461 859 444 862 Q 426 863 430 841 Q 440 801 344 693 Q 299 644 239 591 Q 229 584 225 578 Q 221 568 234 568 Q 274 568 419 700 L 430 712 Z" class="stroke1"/>
    <path d="M 528 543 Q 550 565 597 617 Q 643 669 686 697 Q 705 709 692 723 Q 677 736 637 760 Q 628 763 580 748 Q 450 715 430 712 C 409 708 409 708 419 700 Q 429 687 456 685 Q 469 684 566 703 Q 579 706 582 702 Q 586 698 580 687 Q 537 599 510 558 Q 503 546 499 538 C 485 512 507 522 528 543 Z" class="stroke2"/>
    <path d="M 298 506 Q 285 512 250 516 Q 237 519 233 513 Q 226 506 237 489 Q 280 401 307 259 Q 313 216 338 188 Q 359 164 363 182 Q 366 192 367 205 L 366 235 Q 363 254 358 277 Q 324 419 314 467 C 308 496 306 503 298 506 Z" class="stroke3"/>
    <path d="M 630 232 Q 649 202 668 192 Q 681 183 698 207 Q 717 241 755 424 Q 765 460 792 488 Q 808 501 794 518 Q 778 537 728 567 Q 706 579 687 571 Q 644 561 588 552 Q 558 548 528 543 L 499 538 Q 459 534 418 526 Q 352 514 298 506 C 268 501 285 459 314 467 Q 377 485 466 498 L 507 505 Q 663 536 684 513 Q 702 492 698 472 Q 662 283 645 265 C 632 238 630 233 630 232 Z" class="stroke4"/>
    <path d="M 525 360 Q 574 367 617 372 Q 641 375 633 388 Q 623 404 598 409 Q 574 413 532 403 Q 529 403 527 401 L 479 390 Q 427 380 380 369 Q 364 366 383 350 Q 393 341 418 345 Q 449 349 479 353 L 525 360 Z" class="stroke5"/>
    <path d="M 520 258 Q 521 313 525 360 L 527 401 Q 527 431 530 461 Q 539 482 507 505 C 483 523 455 526 466 498 Q 475 483 479 390 L 479 353 Q 479 313 480 252 C 480 222 519 228 520 258 Z" class="stroke6"/>
    <path d="M 367 205 Q 376 205 388 206 Q 524 222 630 232 C 660 235 673 253 645 265 Q 639 268 632 270 Q 608 274 520 258 L 480 252 Q 419 245 366 235 C 337 230 337 204 367 205 Z" class="stroke7"/>
    <path d="M 497 66 Q 552 67 605 72 Q 752 84 890 64 Q 915 60 922 70 Q 931 83 918 97 Q 848 167 778 145 Q 630 124 468 112 Q 180 90 116 88 Q 109 88 102 88 Q 87 89 85 76 Q 84 63 104 47 Q 122 34 155 19 Q 167 15 186 23 Q 204 27 279 39 Q 376 58 497 66 Z" class="stroke8"/>
    
    
    
    
    
    
    
    </g>
</svg>