<svg version="1.1" viewBox="0 0 1024 1024" xmlns="http://www.w3.org/2000/svg">
  
  <g transform="scale(1, -1) translate(0, -900)">
    <style type="text/css">
        .stroke1 {fill: #808080;}
        .stroke2 {fill: #808079;}
        .stroke3 {fill: #808078;}
        .stroke4 {fill: #808077;}
        .stroke5 {fill: #808076;}
        .stroke6 {fill: #808075;}
        .stroke7 {fill: #808074;}
        .stroke8 {fill: #808073;}
        .stroke9 {fill: #808072;}
        .stroke10 {fill: #808071;}
        .stroke11 {fill: #808070;}
        .stroke12 {fill: #808069;}
        .stroke13 {fill: #808068;}
        .stroke14 {fill: #808067;}
        .stroke15 {fill: #808066;}
        .stroke16 {fill: #808065;}
        .stroke17 {fill: #808064;}
        .stroke18 {fill: #808063;}
        .stroke19 {fill: #808062;}
        .stroke20 {fill: #808061;}
        text {
            font-family: Helvetica;
            font-size: 50px;
            fill: #808060;
            paint-order: stroke;
            stroke: #000000;
            stroke-width: 4px;
            stroke-linecap: butt;
            stroke-linejoin: miter;
            font-weight: 800;
        }
    </style>

    <path d="M 319 552 Q 352 562 387 570 Q 436 583 444 590 Q 451 597 447 605 Q 440 615 413 622 Q 377 628 326 602 L 275 585 Q 146 554 95 546 Q 62 539 86 525 Q 125 506 176 518 Q 222 530 272 541 L 319 552 Z" class="stroke1"/>
    <path d="M 302 433 Q 309 494 319 552 L 326 602 Q 335 696 358 757 Q 362 767 344 783 Q 311 804 288 810 Q 272 814 264 806 Q 255 799 263 784 Q 282 753 281 731 Q 280 661 275 585 L 272 541 Q 268 483 260 420 C 256 390 298 403 302 433 Z" class="stroke2"/>
    <path d="M 180 404 Q 170 408 145 412 Q 135 416 131 411 Q 124 404 133 390 Q 163 326 180 220 Q 183 189 201 167 Q 217 146 222 161 Q 231 183 222 230 L 216 260 Q 200 353 197 378 C 194 399 194 399 180 404 Z" class="stroke3"/>
    <path d="M 380 285 Q 399 358 422 381 Q 444 406 422 421 Q 403 433 375 451 Q 356 463 337 451 Q 321 441 302 433 L 260 420 Q 226 413 180 404 C 151 398 168 371 197 378 Q 248 390 307 403 Q 337 410 343 398 Q 352 389 327 292 C 320 263 372 256 380 285 Z" class="stroke4"/>
    <path d="M 222 230 Q 229 230 236 231 Q 284 244 386 259 Q 396 260 397 269 Q 397 275 380 285 C 355 301 354 301 327 292 Q 326 292 324 291 Q 263 272 216 260 C 187 253 192 229 222 230 Z" class="stroke5"/>
    <path d="M 600 692 Q 706 806 723 817 Q 742 830 729 846 Q 713 859 685 869 Q 660 878 648 873 Q 636 869 642 857 Q 654 830 604 751 Q 583 720 561 682 C 546 656 580 670 600 692 Z" class="stroke6"/>
    <path d="M 552 403 Q 552 439 553 474 L 553 501 Q 553 507 554 512 Q 553 536 554 557 L 555 579 Q 558 621 570 650 C 577 669 577 669 561 682 Q 548 695 527 703 Q 509 709 501 700 Q 495 696 503 684 Q 515 657 516 534 Q 510 359 498 313 Q 492 294 507 279 Q 525 264 547 277 C 552 279 552 312 552 342 Q 552 364 552 387 L 552 403 Z" class="stroke7"/>
    <path d="M 702 498 Q 718 474 733 466 Q 743 459 757 478 Q 770 500 801 619 Q 808 647 829 669 Q 841 681 831 693 Q 818 709 778 732 Q 763 739 705 722 Q 701 722 614 697 Q 605 696 600 692 C 547 673 527 633 570 650 Q 570 651 574 652 Q 626 671 718 693 Q 737 697 745 692 Q 758 682 754 664 Q 729 538 712 524 C 698 503 698 503 702 498 Z" class="stroke8"/>
    <path d="M 554 557 L 673 576 Q 692 580 685 590 Q 676 602 655 605 Q 628 608 555 579 C 527 568 524 552 554 557 Z" class="stroke9"/>
    <path d="M 553 474 Q 559 473 566 475 Q 609 487 702 498 C 732 502 738 510 712 524 Q 691 539 610 514 Q 579 507 553 501 C 524 494 523 476 553 474 Z" class="stroke10"/>
    <path d="M 552 387 Q 561 381 669 395 Q 703 399 735 403 Q 756 406 749 417 Q 739 430 717 435 Q 696 439 659 430 Q 601 414 552 403 C 523 396 523 394 552 387 Z" class="stroke11"/>
    <path d="M 547 277 Q 589 304 716 319 Q 842 337 861 315 Q 871 303 856 264 Q 846 200 831 134 Q 821 82 795 50 Q 788 40 767 44 Q 742 53 718 60 Q 703 66 702 59 Q 702 53 710 45 Q 750 -9 762 -42 Q 769 -64 788 -55 Q 854 -28 871 41 Q 893 132 913 233 Q 922 270 941 300 Q 954 316 943 329 Q 927 350 891 372 Q 870 385 842 374 Q 797 356 756 353 Q 698 347 578 327 Q 554 320 552 342 C 530 363 520 264 547 277 Z" class="stroke12"/>
    <path d="M 410 213 Q 394 162 369 116 Q 356 86 372 55 Q 381 39 399 52 Q 441 91 438 163 Q 439 194 431 215 Q 427 222 420 223 Q 413 222 410 213 Z" class="stroke13"/>
    <path d="M 507 195 Q 525 125 547 116 Q 557 110 569 123 Q 575 133 573 153 Q 567 184 519 215 Q 512 219 508 210 Q 504 204 507 195 Z" class="stroke14"/>
    <path d="M 599 219 Q 626 146 643 139 Q 653 135 665 147 Q 669 157 668 177 Q 665 193 648 208 Q 623 233 611 239 Q 604 243 600 234 Q 596 228 599 219 Z" class="stroke15"/>
    <path d="M 707 242 Q 755 166 774 160 Q 786 157 795 173 Q 798 183 793 204 Q 786 223 764 236 Q 731 260 716 266 Q 707 269 705 258 Q 702 251 707 242 Z" class="stroke16"/>
    
    
    
    
    
    
    
    
    
    
    
    
    
    
    
    </g>
</svg>