<svg version="1.1" viewBox="0 0 1024 1024" xmlns="http://www.w3.org/2000/svg">
  
  <g transform="scale(1, -1) translate(0, -900)">
    <style type="text/css">
        .stroke1 {fill: #808080;}
        .stroke2 {fill: #808079;}
        .stroke3 {fill: #808078;}
        .stroke4 {fill: #808077;}
        .stroke5 {fill: #808076;}
        .stroke6 {fill: #808075;}
        .stroke7 {fill: #808074;}
        .stroke8 {fill: #808073;}
        .stroke9 {fill: #808072;}
        .stroke10 {fill: #808071;}
        .stroke11 {fill: #808070;}
        .stroke12 {fill: #808069;}
        .stroke13 {fill: #808068;}
        .stroke14 {fill: #808067;}
        .stroke15 {fill: #808066;}
        .stroke16 {fill: #808065;}
        .stroke17 {fill: #808064;}
        .stroke18 {fill: #808063;}
        .stroke19 {fill: #808062;}
        .stroke20 {fill: #808061;}
        text {
            font-family: Helvetica;
            font-size: 50px;
            fill: #808060;
            paint-order: stroke;
            stroke: #000000;
            stroke-width: 4px;
            stroke-linecap: butt;
            stroke-linejoin: miter;
            font-weight: 800;
        }
    </style>

    <path d="M 230 726 Q 255 702 281 673 Q 294 660 311 659 Q 323 659 329 673 Q 335 688 326 720 Q 322 739 291 755 Q 222 786 204 779 Q 198 775 199 762 Q 203 749 230 726 Z" class="stroke1"/>
    <path d="M 136 536 Q 181 487 215 473 Q 230 470 239 485 Q 245 498 242 515 Q 230 552 149 576 L 148 576 Q 130 580 121 576 Q 115 575 118 562 Q 119 550 136 536 Z" class="stroke2"/>
    <path d="M 125 182 Q 115 178 117 162 Q 139 93 170 79 Q 177 73 186 77 Q 193 78 192 102 Q 192 141 252 354 Q 256 370 255 375 Q 254 384 246 377 Q 236 371 154 217 Q 145 201 125 182 Z" class="stroke3"/>
    <path d="M 409 562 Q 508 595 509 596 Q 516 603 511 610 Q 504 620 479 624 Q 461 627 372 593 Q 339 583 301 577 Q 270 570 294 556 Q 330 541 373 553 L 409 562 Z" class="stroke4"/>
    <path d="M 418 425 Q 424 471 428 508 Q 434 544 411 560 L 409 562 C 386 582 371 583 373 553 Q 374 549 377 411 C 378 381 414 395 418 425 Z" class="stroke5"/>
    <path d="M 377 411 Q 346 402 315 391 Q 302 387 279 386 Q 269 385 267 376 Q 266 366 274 359 Q 293 346 321 332 Q 330 331 339 338 Q 363 359 482 421 Q 498 430 510 441 Q 520 448 521 455 Q 517 459 506 457 Q 464 442 418 425 L 377 411 Z" class="stroke6"/>
    <path d="M 582 702 Q 621 730 645 750 Q 694 796 724 811 Q 743 821 732 836 Q 719 851 695 863 Q 673 873 662 871 Q 650 870 655 857 Q 659 836 594 747 Q 579 731 566 711 C 549 686 558 684 582 702 Z" class="stroke7"/>
    <path d="M 582 398 Q 582 435 582 470 L 582 499 Q 582 532 581 564 L 582 590 Q 585 633 595 663 C 602 686 602 686 590 695 Q 586 699 582 702 L 566 711 Q 559 715 550 719 Q 531 725 523 716 Q 517 710 525 699 Q 544 662 543 584 Q 543 521 542 443 Q 543 367 528 304 Q 524 285 538 270 Q 557 254 576 267 C 587 272 585 307 584 337 L 582 379 L 582 398 Z" class="stroke8"/>
    <path d="M 725 489 Q 725 486 727 482 Q 731 469 743 469 Q 756 470 763 484 Q 776 503 798 593 Q 813 639 845 667 Q 861 682 847 695 Q 831 711 786 734 Q 774 740 717 727 Q 653 715 590 695 C 561 686 568 650 595 663 Q 604 673 734 696 Q 750 699 757 696 Q 767 689 761 657 Q 739 537 728 513 L 726 507 L 725 489 Z" class="stroke9"/>
    <path d="M 581 564 Q 584 564 591 565 Q 658 577 708 585 Q 730 589 721 601 Q 711 614 687 618 Q 648 621 582 590 C 555 577 551 562 581 564 Z" class="stroke10"/>
    <path d="M 582 470 Q 588 469 597 471 Q 637 481 722 489 Q 723 490 725 489 C 747 490 747 490 726 507 Q 719 513 706 521 Q 691 528 665 521 Q 619 508 582 499 C 553 492 552 472 582 470 Z" class="stroke11"/>
    <path d="M 582 379 Q 585 376 653 381 Q 726 394 786 402 Q 811 406 801 420 Q 791 436 763 440 Q 738 443 694 431 Q 633 412 582 398 C 553 390 552 383 582 379 Z" class="stroke12"/>
    <path d="M 576 267 Q 615 294 748 309 Q 871 327 894 306 Q 904 294 891 254 Q 881 194 868 131 Q 858 82 835 51 Q 828 44 811 47 Q 784 57 761 67 Q 748 74 746 67 Q 745 63 753 53 Q 792 -1 803 -35 Q 809 -57 828 -48 Q 892 -24 907 43 Q 929 128 945 225 Q 954 262 972 291 Q 985 307 974 319 Q 958 340 922 361 Q 903 374 874 362 Q 829 346 788 342 Q 730 338 610 318 Q 585 314 584 337 C 566 361 549 253 576 267 Z" class="stroke13"/>
    <path d="M 384 212 Q 368 154 341 102 Q 326 63 347 35 Q 357 19 376 34 Q 422 82 416 158 Q 417 191 407 215 Q 401 222 395 223 Q 388 222 384 212 Z" class="stroke14"/>
    <path d="M 482 181 Q 494 127 512 104 Q 521 97 532 102 Q 542 109 546 121 Q 552 155 507 201 L 505 203 Q 495 212 487 213 Q 483 214 480 205 Q 477 196 482 181 Z" class="stroke15"/>
    <path d="M 581 195 Q 611 143 630 130 Q 640 126 648 133 Q 655 142 656 154 Q 653 185 596 220 Q 586 227 578 226 Q 574 226 573 217 Q 572 208 581 195 Z" class="stroke16"/>
    <path d="M 701 213 Q 719 191 738 165 Q 748 152 762 151 Q 771 150 777 161 Q 783 173 779 200 Q 778 216 754 232 Q 694 262 684 259 Q 680 256 679 245 Q 680 235 701 213 Z" class="stroke17"/>
    
    
    
    
    
    
    
    
    
    
    
    
    
    
    
    
    </g>
</svg>