<svg version="1.1" viewBox="0 0 1024 1024" xmlns="http://www.w3.org/2000/svg">
  
  <g transform="scale(1, -1) translate(0, -900)">
    <style type="text/css">
        .stroke1 {fill: #808080;}
        .stroke2 {fill: #808079;}
        .stroke3 {fill: #808078;}
        .stroke4 {fill: #808077;}
        .stroke5 {fill: #808076;}
        .stroke6 {fill: #808075;}
        .stroke7 {fill: #808074;}
        .stroke8 {fill: #808073;}
        .stroke9 {fill: #808072;}
        .stroke10 {fill: #808071;}
        .stroke11 {fill: #808070;}
        .stroke12 {fill: #808069;}
        .stroke13 {fill: #808068;}
        .stroke14 {fill: #808067;}
        .stroke15 {fill: #808066;}
        .stroke16 {fill: #808065;}
        .stroke17 {fill: #808064;}
        .stroke18 {fill: #808063;}
        .stroke19 {fill: #808062;}
        .stroke20 {fill: #808061;}
        text {
            font-family: Helvetica;
            font-size: 50px;
            fill: #808060;
            paint-order: stroke;
            stroke: #000000;
            stroke-width: 4px;
            stroke-linecap: butt;
            stroke-linejoin: miter;
            font-weight: 800;
        }
    </style>

    <path d="M 225 592 Q 256 641 290 701 Q 312 747 332 769 Q 339 779 335 792 Q 331 804 303 823 Q 276 839 259 838 Q 243 835 251 815 Q 264 787 256 762 Q 213 632 73 437 Q 63 427 62 421 Q 59 411 72 414 Q 103 418 189 540 Q 196 550 203 559 L 225 592 Z" class="stroke1"/>
    <path d="M 248 294 Q 248 483 255 532 Q 261 556 228 590 Q 227 591 225 592 C 203 612 192 587 203 559 Q 230 499 200 332 Q 176 260 214 222 Q 227 209 237 230 Q 246 255 247 284 L 248 294 Z" class="stroke2"/>
    <path d="M 404 778 Q 422 759 442 735 Q 452 722 466 722 Q 476 722 481 733 Q 485 745 481 771 Q 472 801 403 820 Q 390 824 384 823 Q 380 819 380 808 Q 381 798 404 778 Z" class="stroke3"/>
    <path d="M 403 607 Q 437 617 474 626 Q 501 633 504 637 Q 511 644 507 651 Q 500 660 477 664 Q 452 668 429 657 Q 399 644 367 635 Q 331 625 289 619 Q 261 612 282 600 Q 312 585 363 596 L 403 607 Z" class="stroke4"/>
    <path d="M 416 497 Q 441 504 470 510 Q 492 516 496 519 Q 502 525 498 531 Q 494 540 471 545 Q 446 551 418 536 L 371 522 Q 341 516 309 512 Q 282 508 302 495 Q 329 480 371 487 L 416 497 Z" class="stroke5"/>
    <path d="M 411 399 Q 498 423 500 423 Q 506 429 502 435 Q 498 444 475 449 Q 454 453 413 437 L 370 424 Q 345 420 317 416 Q 290 412 310 399 Q 331 387 370 389 L 411 399 Z" class="stroke6"/>
    <path d="M 408 330 Q 409 367 411 399 L 413 437 Q 414 468 416 497 L 418 536 Q 418 546 421 568 Q 427 587 403 607 C 381 627 352 624 363 596 Q 370 589 371 522 L 371 487 Q 371 462 370 424 L 370 389 Q 370 359 370 320 C 370 290 407 300 408 330 Z" class="stroke7"/>
    <path d="M 370 320 Q 367 321 365 320 Q 313 310 252 296 Q 248 296 248 294 C 238 290 238 290 247 284 Q 268 266 309 275 Q 387 297 495 300 Q 505 300 515 301 Q 528 302 532 308 Q 535 317 523 326 Q 478 356 415 332 Q 411 332 408 330 C 379 321 377 321 370 320 Z" class="stroke8"/>
    <path d="M 146 195 Q 136 143 114 94 Q 101 63 124 34 Q 134 19 150 34 Q 189 80 179 148 Q 178 179 168 199 Q 161 206 156 206 Q 149 203 146 195 Z" class="stroke9"/>
    <path d="M 233 173 Q 245 113 261 105 Q 270 99 281 109 Q 287 118 287 135 Q 284 165 246 190 Q 240 194 235 187 Q 231 183 233 173 Z" class="stroke10"/>
    <path d="M 319 201 Q 338 141 353 135 Q 363 131 372 142 Q 376 151 376 168 Q 373 181 360 193 Q 341 214 330 219 Q 323 223 320 215 Q 316 209 319 201 Z" class="stroke11"/>
    <path d="M 407 223 Q 420 184 441 164 Q 451 160 460 166 Q 467 173 470 185 Q 471 203 461 216 Q 455 223 424 247 Q 414 254 406 253 Q 402 254 401 245 Q 400 236 407 223 Z" class="stroke12"/>
    <path d="M 595 690 Q 632 720 656 741 Q 705 792 732 806 Q 751 818 738 833 Q 725 848 698 858 Q 674 868 663 864 Q 651 861 656 849 Q 662 827 615 752 Q 596 725 577 695 C 561 670 572 671 595 690 Z" class="stroke13"/>
    <path d="M 596 414 Q 595 445 595 476 L 595 500 Q 595 504 595 509 Q 594 540 594 565 L 596 590 Q 597 624 607 651 Q 608 657 608 662 C 615 705 604 682 577 695 Q 570 699 562 702 Q 546 708 537 699 Q 531 695 540 683 Q 567 629 556 372 Q 552 338 546 304 Q 540 283 555 268 Q 573 253 596 266 C 602 268 600 305 599 335 Q 598 363 596 390 L 596 414 Z" class="stroke14"/>
    <path d="M 718 494 Q 730 478 740 470 Q 750 463 765 481 Q 780 502 816 618 Q 825 646 847 667 Q 859 677 849 691 Q 836 707 799 731 Q 775 746 595 690 C 566 681 580 652 608 662 Q 740 707 765 694 Q 777 684 772 666 Q 744 555 733 539 Q 727 530 713 526 C 698 519 699 517 718 494 Z" class="stroke15"/>
    <path d="M 594 565 Q 604 571 714 591 Q 733 595 725 606 Q 715 616 694 619 Q 669 620 596 590 C 568 579 566 553 594 565 Z" class="stroke16"/>
    <path d="M 595 476 Q 664 488 718 494 C 748 497 743 524 713 526 Q 689 529 595 500 C 566 491 565 471 595 476 Z" class="stroke17"/>
    <path d="M 596 390 Q 629 381 696 393 Q 727 399 761 405 Q 783 409 787 413 Q 794 420 790 427 Q 784 436 761 442 Q 737 446 713 437 Q 688 430 660 423 Q 630 416 596 414 C 566 412 567 397 596 390 Z" class="stroke18"/>
    <path d="M 596 266 Q 650 302 805 314 Q 883 341 869 255 Q 863 191 853 125 Q 846 73 824 40 Q 818 33 803 34 Q 775 46 748 56 Q 735 62 735 55 Q 734 51 741 42 Q 784 -10 798 -44 Q 805 -63 822 -55 Q 847 -45 866 -30 Q 890 1 895 41 Q 911 131 922 231 Q 928 268 945 300 Q 958 316 945 329 Q 927 348 889 368 Q 868 378 840 366 Q 806 350 772 346 Q 726 340 631 321 Q 604 311 599 335 C 579 357 570 252 596 266 Z" class="stroke19"/>
    <path d="M 510 203 Q 504 166 492 131 Q 483 101 505 79 Q 514 67 528 82 Q 555 115 542 165 Q 539 190 528 208 Q 522 214 518 213 Q 511 210 510 203 Z" class="stroke20"/>
    <path d="M 576 205 Q 586 136 602 126 Q 609 119 622 129 Q 628 136 630 154 Q 630 181 590 222 Q 584 226 579 219 Q 575 215 576 205 Z" class="stroke21"/>
    <path d="M 642 225 Q 660 164 677 156 Q 686 150 696 162 Q 702 171 701 188 Q 695 219 654 243 Q 648 247 644 239 Q 640 233 642 225 Z" class="stroke22"/>
    <path d="M 735 227 Q 754 205 773 178 Q 782 165 795 164 Q 802 163 809 173 Q 815 183 812 209 Q 809 233 738 267 Q 725 271 720 271 Q 716 268 715 257 Q 716 248 735 227 Z" class="stroke23"/>
    
    
    
    
    
    
    
    
    
    
    
    
    
    
    
    
    
    
    
    
    
    
    </g>
</svg>