<svg version="1.1" viewBox="0 0 1024 1024" xmlns="http://www.w3.org/2000/svg">
  
  <g transform="scale(1, -1) translate(0, -900)">
    <style type="text/css">
        .stroke1 {fill: #808080;}
        .stroke2 {fill: #808079;}
        .stroke3 {fill: #808078;}
        .stroke4 {fill: #808077;}
        .stroke5 {fill: #808076;}
        .stroke6 {fill: #808075;}
        .stroke7 {fill: #808074;}
        .stroke8 {fill: #808073;}
        .stroke9 {fill: #808072;}
        .stroke10 {fill: #808071;}
        .stroke11 {fill: #808070;}
        .stroke12 {fill: #808069;}
        .stroke13 {fill: #808068;}
        .stroke14 {fill: #808067;}
        .stroke15 {fill: #808066;}
        .stroke16 {fill: #808065;}
        .stroke17 {fill: #808064;}
        .stroke18 {fill: #808063;}
        .stroke19 {fill: #808062;}
        .stroke20 {fill: #808061;}
        text {
            font-family: Helvetica;
            font-size: 50px;
            fill: #808060;
            paint-order: stroke;
            stroke: #000000;
            stroke-width: 4px;
            stroke-linecap: butt;
            stroke-linejoin: miter;
            font-weight: 800;
        }
    </style>

    <path d="M 531 678 Q 550 685 573 689 Q 628 704 635 711 Q 645 720 639 728 Q 632 740 602 747 Q 563 753 500 723 L 459 710 Q 314 674 249 666 Q 212 659 239 643 Q 284 619 339 634 Q 412 652 489 669 L 531 678 Z" class="stroke1"/>
    <path d="M 489 669 Q 631 492 776 458 Q 843 443 856 460 Q 869 472 854 499 Q 844 523 825 614 Q 824 632 818 634 Q 814 634 812 618 Q 788 522 762 521 Q 651 542 531 678 L 500 723 Q 470 771 466 804 Q 463 826 423 829 Q 390 832 378 823 Q 365 814 382 798 Q 403 786 459 710 L 489 669 Z" class="stroke2"/>
    <path d="M 627 779 Q 654 761 682 739 Q 695 729 709 731 Q 718 732 721 744 Q 724 757 713 782 Q 701 809 618 820 Q 605 821 600 819 Q 596 815 598 804 Q 602 794 627 779 Z" class="stroke3"/>
    <path d="M 366 467 Q 426 507 458 532 Q 474 545 493 554 Q 511 563 502 577 Q 490 590 469 603 Q 448 613 438 611 Q 428 610 431 599 Q 434 572 393 525 Q 374 501 353 476 C 334 453 341 450 366 467 Z" class="stroke4"/>
    <path d="M 382 426 Q 424 447 567 475 Q 576 476 583 472 Q 590 468 590 456 Q 589 426 577 374 Q 573 349 550 354 Q 522 357 500 360 Q 487 361 491 354 Q 492 347 516 331 Q 544 309 562 284 Q 568 277 576 278 Q 582 279 594 298 Q 610 320 628 398 Q 637 458 649 468 Q 656 478 651 487 Q 642 497 607 512 Q 598 516 549 503 Q 528 503 378 457 C 349 448 354 414 382 426 Z" class="stroke5"/>
    <path d="M 418 399 Q 454 356 470 354 Q 480 353 484 366 Q 485 376 479 391 Q 464 412 421 419 Q 414 420 413 412 Q 412 406 418 399 Z" class="stroke6"/>
    <path d="M 365 196 Q 396 215 453 225 Q 576 250 704 252 Q 737 256 751 243 Q 764 231 751 186 Q 745 149 737 108 Q 731 77 717 58 Q 707 45 681 49 Q 645 58 614 66 Q 598 70 599 63 Q 599 57 608 49 Q 666 -5 687 -42 Q 697 -63 715 -52 Q 773 -21 783 27 Q 822 205 823 207 Q 827 219 835 229 Q 848 245 837 259 Q 818 281 780 302 Q 758 315 729 302 Q 674 283 622 279 Q 550 275 401 250 Q 376 246 373 268 Q 373 395 382 426 C 386 451 386 451 378 457 Q 374 464 366 467 L 353 476 Q 346 480 338 483 Q 319 489 311 480 Q 305 476 313 464 Q 329 421 322 267 Q 319 252 316 237 Q 310 216 325 200 Q 346 184 365 196 Z" class="stroke7"/>
    <path d="M 425 116 Q 456 117 488 121 Q 558 130 658 121 Q 679 120 683 127 Q 690 139 679 149 Q 616 203 562 182 Q 271 137 171 134 Q 158 134 158 124 Q 157 114 174 101 Q 189 91 216 81 Q 226 77 241 85 Q 277 100 425 116 Z" class="stroke8"/>
    
    
    
    
    
    
    
    </g>
</svg>