<svg version="1.1" viewBox="0 0 1024 1024" xmlns="http://www.w3.org/2000/svg">
  
  <g transform="scale(1, -1) translate(0, -900)">
    <style type="text/css">
        .stroke1 {fill: #808080;}
        .stroke2 {fill: #808079;}
        .stroke3 {fill: #808078;}
        .stroke4 {fill: #808077;}
        .stroke5 {fill: #808076;}
        .stroke6 {fill: #808075;}
        .stroke7 {fill: #808074;}
        .stroke8 {fill: #808073;}
        .stroke9 {fill: #808072;}
        .stroke10 {fill: #808071;}
        .stroke11 {fill: #808070;}
        .stroke12 {fill: #808069;}
        .stroke13 {fill: #808068;}
        .stroke14 {fill: #808067;}
        .stroke15 {fill: #808066;}
        .stroke16 {fill: #808065;}
        .stroke17 {fill: #808064;}
        .stroke18 {fill: #808063;}
        .stroke19 {fill: #808062;}
        .stroke20 {fill: #808061;}
        text {
            font-family: Helvetica;
            font-size: 50px;
            fill: #808060;
            paint-order: stroke;
            stroke: #000000;
            stroke-width: 4px;
            stroke-linecap: butt;
            stroke-linejoin: miter;
            font-weight: 800;
        }
    </style>

    <path d="M 221 568 Q 221 569 222 569 Q 256 618 290 691 Q 303 725 318 742 Q 325 752 320 763 Q 314 773 287 791 Q 262 804 246 801 Q 230 797 239 779 Q 263 745 203 614 Q 175 554 134 488 Q 127 478 125 472 Q 124 462 136 466 Q 155 472 203 540 L 221 568 Z" class="stroke1"/>
    <path d="M 203 540 L 204 540 Q 226 527 246 534 Q 355 564 363 551 Q 370 535 370 492 Q 366 333 341 249 Q 328 195 312 178 Q 302 165 275 169 Q 245 173 218 179 Q 196 182 214 164 Q 257 125 282 94 Q 292 76 311 83 Q 329 87 351 114 Q 412 192 421 453 Q 422 513 443 549 Q 458 568 449 577 Q 434 593 402 606 Q 380 616 355 605 Q 328 592 221 568 C 192 561 175 550 203 540 Z" class="stroke2"/>
    <path d="M 149 440 Q 139 444 121 449 Q 111 452 108 448 Q 104 444 109 430 Q 128 382 138 305 Q 139 283 152 266 Q 165 248 169 260 Q 175 273 173 299 L 171 324 Q 162 400 162 419 C 162 435 162 435 149 440 Z" class="stroke3"/>
    <path d="M 274 343 Q 286 403 303 422 Q 319 443 301 454 Q 285 461 264 475 Q 248 482 234 473 Q 218 461 195 454 Q 176 447 149 440 C 120 432 133 412 162 419 Q 177 423 222 433 Q 237 437 241 430 Q 247 426 243 399 Q 239 374 234 343 C 229 313 268 314 274 343 Z" class="stroke4"/>
    <path d="M 173 299 Q 180 298 190 300 Q 221 307 288 315 Q 295 316 297 324 Q 297 330 274 343 C 260 351 260 351 234 343 Q 200 333 171 324 C 142 315 143 301 173 299 Z" class="stroke5"/>
    <path d="M 552 655 Q 586 688 604 709 Q 653 769 668 778 Q 684 791 672 804 Q 656 817 630 824 Q 606 831 596 826 Q 586 822 591 811 Q 601 787 569 723 Q 554 695 538 664 C 524 637 531 634 552 655 Z" class="stroke6"/>
    <path d="M 558 615 Q 564 615 571 617 Q 610 633 710 653 Q 719 654 725 650 Q 735 646 735 628 Q 734 588 716 513 Q 712 491 691 494 Q 663 498 641 503 Q 628 506 631 498 Q 632 489 656 472 Q 684 445 702 417 Q 709 408 719 411 Q 726 412 740 435 Q 758 463 772 542 Q 784 629 795 639 Q 805 648 800 658 Q 793 668 760 689 Q 747 698 691 683 Q 681 683 556 652 C 527 645 529 609 558 615 Z" class="stroke7"/>
    <path d="M 574 569 Q 613 523 631 522 Q 640 521 644 534 Q 645 543 638 557 Q 622 581 576 587 Q 570 588 569 580 Q 568 574 574 569 Z" class="stroke8"/>
    <path d="M 537 285 Q 592 324 768 333 Q 799 336 813 324 Q 825 312 813 269 Q 806 211 794 149 Q 787 101 765 71 Q 756 59 732 63 Q 698 73 666 82 Q 650 86 651 79 Q 651 73 659 66 Q 717 14 737 -23 Q 746 -44 764 -33 Q 822 -3 837 63 Q 855 148 868 242 Q 875 279 894 310 Q 907 326 896 339 Q 878 360 841 381 Q 820 393 792 380 Q 755 365 720 362 Q 672 358 572 338 Q 547 334 544 354 Q 544 567 558 615 C 563 645 564 647 556 652 Q 555 653 552 655 L 538 664 Q 529 671 519 675 Q 501 681 493 673 Q 487 667 495 657 Q 507 630 504 458 Q 504 380 490 325 Q 484 306 498 290 Q 517 274 537 285 Z" class="stroke9"/>
    <path d="M 594 179 Q 615 180 634 184 Q 695 193 741 189 Q 760 188 765 196 Q 769 208 759 217 Q 732 236 694 249 Q 682 253 662 244 Q 478 205 408 195 Q 398 194 397 185 Q 397 175 414 164 Q 429 155 456 148 Q 465 147 479 154 Q 515 169 594 179 Z" class="stroke10"/>
    
    
    
    
    
    
    
    
    
    </g>
</svg>