<svg version="1.1" viewBox="0 0 1024 1024" xmlns="http://www.w3.org/2000/svg">
  
  <g transform="scale(1, -1) translate(0, -900)">
    <style type="text/css">
        .stroke1 {fill: #808080;}
        .stroke2 {fill: #808079;}
        .stroke3 {fill: #808078;}
        .stroke4 {fill: #808077;}
        .stroke5 {fill: #808076;}
        .stroke6 {fill: #808075;}
        .stroke7 {fill: #808074;}
        .stroke8 {fill: #808073;}
        .stroke9 {fill: #808072;}
        .stroke10 {fill: #808071;}
        .stroke11 {fill: #808070;}
        .stroke12 {fill: #808069;}
        .stroke13 {fill: #808068;}
        .stroke14 {fill: #808067;}
        .stroke15 {fill: #808066;}
        .stroke16 {fill: #808065;}
        .stroke17 {fill: #808064;}
        .stroke18 {fill: #808063;}
        .stroke19 {fill: #808062;}
        .stroke20 {fill: #808061;}
        text {
            font-family: Helvetica;
            font-size: 50px;
            fill: #808060;
            paint-order: stroke;
            stroke: #000000;
            stroke-width: 4px;
            stroke-linecap: butt;
            stroke-linejoin: miter;
            font-weight: 800;
        }
    </style>

    <path d="M 271 652 Q 296 680 326 717 L 337 732 Q 353 757 366 767 Q 373 774 371 785 Q 368 795 348 812 Q 329 827 316 827 Q 303 827 307 810 Q 319 780 252 682 Q 221 639 178 590 Q 171 583 168 579 Q 165 572 176 572 Q 198 576 256 636 L 271 652 Z" class="stroke1"/>
    <path d="M 326 717 Q 335 710 360 713 Q 405 720 408 715 Q 412 703 393 662 Q 377 616 325 556 Q 274 490 192 430 Q 171 418 189 419 Q 250 419 341 514 Q 398 575 444 656 Q 466 695 480 706 Q 490 713 486 724 Q 482 734 439 754 Q 429 758 410 750 Q 388 740 337 732 C 307 727 298 725 326 717 Z" class="stroke2"/>
    <path d="M 256 636 Q 259 632 268 625 Q 287 610 307 591 Q 316 584 325 584 Q 331 585 334 593 Q 337 600 331 619 Q 325 640 271 652 C 242 659 236 659 256 636 Z" class="stroke3"/>
    <path d="M 599 742 Q 600 743 603 744 Q 664 763 707 772 Q 717 773 720 771 Q 724 765 724 749 Q 723 703 715 682 Q 702 658 683 662 Q 659 669 639 677 Q 621 683 634 665 Q 671 634 689 607 Q 699 595 710 604 Q 743 625 764 723 Q 764 753 781 772 Q 788 782 785 789 Q 778 796 741 812 Q 726 818 713 808 Q 683 790 590 771 C 561 765 571 732 599 742 Z" class="stroke4"/>
    <path d="M 884 604 Q 874 620 856 677 Q 855 690 849 694 Q 843 695 840 681 Q 819 620 805 601 Q 795 588 762 579 Q 690 558 628 579 Q 604 589 598 603 Q 582 639 599 742 C 602 763 602 763 590 771 Q 580 780 564 786 Q 554 789 547 785 Q 541 781 546 767 Q 556 736 555 705 Q 549 581 583 551 Q 647 503 790 529 Q 800 532 812 535 Q 846 545 880 569 Q 896 582 884 604 Z" class="stroke5"/>
    <path d="M 399 459 Q 445 496 475 525 Q 488 541 507 552 Q 523 562 512 576 Q 499 588 476 597 Q 454 606 445 602 Q 435 599 439 588 Q 445 567 397 487 Q 391 478 385 467 C 370 441 376 440 399 459 Z" class="stroke6"/>
    <path d="M 403 424 Q 407 424 414 425 Q 597 476 607 462 Q 613 455 611 436 Q 610 384 598 359 Q 582 331 557 334 Q 539 335 524 339 Q 503 343 520 325 Q 551 297 566 276 Q 576 263 589 272 Q 634 300 658 417 Q 665 447 676 461 Q 686 471 682 480 Q 675 490 631 509 Q 615 516 598 506 Q 544 478 399 459 C 369 455 373 420 403 424 Z" class="stroke7"/>
    <path d="M 426 387 Q 462 344 478 342 Q 488 341 492 354 Q 493 364 487 379 Q 472 400 429 407 Q 422 408 421 400 Q 420 394 426 387 Z" class="stroke8"/>
    <path d="M 390 177 Q 418 196 476 208 Q 594 236 720 242 Q 750 246 763 235 Q 776 225 765 183 Q 744 74 724 48 Q 714 35 688 39 Q 661 45 638 49 Q 622 53 623 47 Q 623 41 631 34 Q 677 -15 693 -47 Q 700 -68 719 -57 Q 774 -29 788 20 Q 804 83 819 153 Q 826 190 846 222 Q 859 238 847 251 Q 831 270 793 292 Q 772 305 744 292 Q 690 271 640 266 Q 570 259 426 233 Q 401 223 394 244 Q 394 295 395 346 Q 394 395 403 424 C 412 472 409 457 385 467 Q 375 474 363 478 Q 347 484 339 475 Q 335 471 341 460 Q 360 423 350 260 Q 347 238 343 216 Q 337 197 352 181 Q 371 165 390 177 Z" class="stroke9"/>
    <path d="M 422 90 Q 453 93 484 97 Q 553 106 647 102 Q 668 101 673 108 Q 679 120 668 130 Q 608 178 545 159 Q 233 105 173 102 Q 161 101 161 91 Q 161 81 178 69 Q 193 59 221 50 Q 231 47 246 55 Q 285 73 422 90 Z" class="stroke10"/>
    
    
    
    
    
    
    
    
    
    </g>
</svg>