<svg version="1.1" viewBox="0 0 1024 1024" xmlns="http://www.w3.org/2000/svg">
  
  <g transform="scale(1, -1) translate(0, -900)">
    <style type="text/css">
        .stroke1 {fill: #808080;}
        .stroke2 {fill: #808079;}
        .stroke3 {fill: #808078;}
        .stroke4 {fill: #808077;}
        .stroke5 {fill: #808076;}
        .stroke6 {fill: #808075;}
        .stroke7 {fill: #808074;}
        .stroke8 {fill: #808073;}
        .stroke9 {fill: #808072;}
        .stroke10 {fill: #808071;}
        .stroke11 {fill: #808070;}
        .stroke12 {fill: #808069;}
        .stroke13 {fill: #808068;}
        .stroke14 {fill: #808067;}
        .stroke15 {fill: #808066;}
        .stroke16 {fill: #808065;}
        .stroke17 {fill: #808064;}
        .stroke18 {fill: #808063;}
        .stroke19 {fill: #808062;}
        .stroke20 {fill: #808061;}
        text {
            font-family: Helvetica;
            font-size: 50px;
            fill: #808060;
            paint-order: stroke;
            stroke: #000000;
            stroke-width: 4px;
            stroke-linecap: butt;
            stroke-linejoin: miter;
            font-weight: 800;
        }
    </style>

    <path d="M 360 706 Q 396 716 434 725 Q 464 732 468 737 Q 475 744 471 751 Q 464 760 441 765 Q 426 768 348 742 Q 269 723 237 718 C 207 713 216 695 246 693 Q 270 690 326 698 L 360 706 Z" class="stroke1"/>
    <path d="M 364 615 Q 373 690 374 692 L 360 706 C 339 727 326 728 326 698 Q 326 697 327 601 C 327 571 360 585 364 615 Z" class="stroke2"/>
    <path d="M 422 513 Q 446 561 466 573 Q 479 586 468 599 Q 456 609 418 627 Q 403 634 364 615 L 327 601 Q 323 601 321 600 Q 281 588 239 580 C 210 574 208 557 238 557 Q 256 554 382 587 Q 395 591 401 585 Q 407 578 385 513 C 376 485 408 486 422 513 Z" class="stroke3"/>
    <path d="M 363 470 Q 396 477 438 481 Q 448 482 448 490 Q 449 497 422 513 C 416 517 415 517 385 513 Q 384 514 381 513 Q 299 489 235 477 C 206 471 205 460 234 452 Q 244 448 261 451 Q 286 458 329 465 L 363 470 Z" class="stroke4"/>
    <path d="M 364 378 Q 370 424 376 434 Q 383 447 377 455 Q 370 464 363 470 C 341 490 324 495 329 465 Q 330 461 330 455 Q 330 446 328 370 C 327 340 360 348 364 378 Z" class="stroke5"/>
    <path d="M 237 718 Q 227 727 205 738 Q 187 748 180 742 Q 173 735 180 722 Q 217 652 184 376 Q 180 355 168 334 Q 161 321 169 304 Q 176 286 185 279 Q 194 273 208 284 Q 265 335 454 357 Q 473 358 472 368 Q 471 378 448 391 Q 430 403 364 378 L 328 370 Q 291 363 246 348 Q 239 347 235 348 Q 231 349 231 360 Q 232 405 234 452 L 235 477 Q 236 517 238 557 L 239 580 Q 239 662 246 693 C 249 710 249 710 237 718 Z" class="stroke6"/>
    <path d="M 595 765 Q 604 783 619 796 Q 625 805 621 814 Q 618 824 597 840 Q 576 852 563 852 Q 550 849 555 834 Q 576 798 488 667 Q 481 660 479 655 Q 478 646 487 649 Q 511 653 585 750 L 595 765 Z" class="stroke7"/>
    <path d="M 585 750 Q 591 744 621 736 Q 658 733 805 768 Q 805 769 807 769 Q 814 776 810 783 Q 804 792 781 798 Q 757 802 733 793 Q 705 784 673 776 Q 639 769 599 766 Q 596 766 595 765 C 569 760 569 760 585 750 Z" class="stroke8"/>
    <path d="M 654 612 Q 661 642 666 667 L 674 695 Q 675 702 665 709 Q 643 722 629 725 Q 619 726 614 722 Q 610 718 614 708 Q 624 698 628 606 C 629 576 647 583 654 612 Z" class="stroke9"/>
    <path d="M 666 667 Q 696 667 784 696 L 785 696 Q 791 703 787 708 Q 781 715 760 719 Q 730 722 680 697 Q 677 697 674 695 C 647 683 636 666 666 667 Z" class="stroke10"/>
    <path d="M 543 595 Q 540 607 511 619 Q 504 622 496 619 Q 495 619 499 593 Q 517 560 505 390 Q 502 374 498 355 Q 486 315 513 284 Q 520 274 529 283 Q 533 289 535 295 L 539 319 Q 540 335 540 360 Q 540 415 541 457 L 541 470 Q 542 558 544 572 L 543 595 Z" class="stroke11"/>
    <path d="M 767 317 Q 768 310 774 302 Q 786 277 794 279 Q 807 280 820 308 Q 833 330 831 348 Q 807 537 840 584 Q 847 597 842 605 Q 820 624 780 642 Q 767 646 748 639 Q 706 623 654 612 L 628 606 Q 582 599 543 595 C 513 592 514 570 544 572 Q 553 572 562 573 Q 622 589 672 597 L 695 602 Q 711 606 728 608 Q 753 612 761 600 Q 774 584 774 529 Q 775 379 769 344 L 767 317 Z" class="stroke12"/>
    <path d="M 672 597 Q 681 576 648 485 Q 647 484 646 480 L 636 458 Q 602 398 555 350 Q 551 347 549 344 Q 546 338 553 338 Q 578 338 628 397 L 637 409 Q 649 425 659 443 L 673 469 Q 683 494 693 517 L 698 530 Q 702 540 706 551 Q 715 578 716 579 Q 709 591 695 602 C 672 622 666 626 672 597 Z" class="stroke13"/>
    <path d="M 646 480 Q 598 502 570 512 Q 566 513 565 507 Q 565 504 636 458 L 659 443 Q 693 421 733 393 Q 742 386 749 384 Q 753 384 756 390 Q 760 397 751 416 Q 742 438 673 469 L 646 480 Z" class="stroke14"/>
    <path d="M 587 551 Q 617 514 629 511 Q 636 510 641 520 Q 642 527 637 538 Q 633 548 619 553 Q 600 563 591 566 Q 585 567 585 561 Q 584 557 587 551 Z" class="stroke15"/>
    <path d="M 541 457 Q 577 421 590 422 Q 597 422 599 431 Q 600 438 594 448 Q 581 464 542 471 Q 539 471 541 470 C 536 462 536 462 541 457 Z" class="stroke16"/>
    <path d="M 693 517 Q 730 480 746 478 Q 753 478 756 487 Q 756 494 750 504 Q 735 525 698 530 C 677 533 677 533 693 517 Z" class="stroke17"/>
    <path d="M 628 397 Q 641 379 656 364 Q 666 354 676 354 Q 685 354 688 365 Q 689 372 683 384 Q 674 399 637 409 C 615 415 615 415 628 397 Z" class="stroke18"/>
    <path d="M 535 295 Q 545 294 558 295 Q 676 311 767 317 C 797 319 797 332 769 344 Q 766 345 762 347 Q 747 350 539 319 C 509 315 505 297 535 295 Z" class="stroke19"/>
    <path d="M 301 201 Q 286 208 269 212 Q 256 215 249 208 Q 243 202 251 190 Q 279 151 310 27 C 317 -2 353 -1 348 29 Q 327 149 330 166 Q 329 167 329 169 C 327 190 327 190 301 201 Z" class="stroke20"/>
    <path d="M 714 66 Q 742 150 767 183 Q 777 193 774 205 Q 768 221 710 250 Q 694 259 680 255 Q 508 224 301 201 C 271 198 300 163 329 169 Q 366 176 405 183 L 428 187 Q 477 197 530 204 L 572 210 Q 656 225 678 212 Q 684 208 683 191 Q 673 136 653 59 C 646 30 704 38 714 66 Z" class="stroke21"/>
    <path d="M 456 39 Q 465 63 436 168 Q 435 178 428 187 C 411 212 403 213 405 183 Q 414 60 438 37 C 451 22 451 22 456 39 Z" class="stroke22"/>
    <path d="M 546 47 Q 559 75 582 131 Q 588 146 600 167 Q 610 179 602 187 Q 592 199 572 210 C 546 225 513 228 530 204 Q 551 183 522 64 Q 518 54 517 44 C 513 14 533 20 546 47 Z" class="stroke23"/>
    <path d="M 310 27 Q 225 23 138 14 Q 116 13 131 -5 Q 146 -21 164 -27 Q 186 -34 202 -29 Q 472 32 887 11 Q 908 10 913 19 Q 920 31 903 46 Q 846 91 781 77 Q 750 73 714 66 L 653 59 Q 602 55 546 47 L 517 44 Q 513 45 509 44 Q 482 43 456 39 L 438 37 Q 393 34 348 29 L 310 27 Z" class="stroke24"/>
    
    
    
    
    
    
    
    
    
    
    
    
    
    
    
    
    
    
    
    
    
    
    
    </g>
</svg>