<svg version="1.1" viewBox="0 0 1024 1024" xmlns="http://www.w3.org/2000/svg">
  
  <g transform="scale(1, -1) translate(0, -900)">
    <style type="text/css">
        .stroke1 {fill: #808080;}
        .stroke2 {fill: #808079;}
        .stroke3 {fill: #808078;}
        .stroke4 {fill: #808077;}
        .stroke5 {fill: #808076;}
        .stroke6 {fill: #808075;}
        .stroke7 {fill: #808074;}
        .stroke8 {fill: #808073;}
        .stroke9 {fill: #808072;}
        .stroke10 {fill: #808071;}
        .stroke11 {fill: #808070;}
        .stroke12 {fill: #808069;}
        .stroke13 {fill: #808068;}
        .stroke14 {fill: #808067;}
        .stroke15 {fill: #808066;}
        .stroke16 {fill: #808065;}
        .stroke17 {fill: #808064;}
        .stroke18 {fill: #808063;}
        .stroke19 {fill: #808062;}
        .stroke20 {fill: #808061;}
        text {
            font-family: Helvetica;
            font-size: 50px;
            fill: #808060;
            paint-order: stroke;
            stroke: #000000;
            stroke-width: 4px;
            stroke-linecap: butt;
            stroke-linejoin: miter;
            font-weight: 800;
        }
    </style>

    <path d="M 468 816 Q 519 771 562 754 Q 578 753 587 768 Q 591 783 587 800 Q 569 843 502 854 Q 462 863 448 857 Q 442 854 446 842 Q 450 829 468 816 Z" class="stroke1"/>
    <path d="M 320 654 Q 360 632 417 643 Q 556 667 701 692 Q 768 705 777 713 Q 787 722 783 731 Q 776 744 745 753 Q 706 762 628 734 Q 469 695 324 683 Q 314 682 312 680 C 283 673 293 667 320 654 Z" class="stroke2"/>
    <path d="M 312 680 Q 297 695 271 707 Q 252 719 239 714 Q 226 707 233 693 Q 254 654 247 580 Q 247 427 190 271 Q 151 171 67 43 Q 63 36 60 30 Q 57 20 68 21 Q 101 27 180 145 Q 196 173 212 205 Q 279 355 304 570 Q 305 627 320 654 C 326 669 326 669 312 680 Z" class="stroke3"/>
    <path d="M 449 413 Q 465 419 539 431 Q 548 430 555 441 Q 555 451 535 459 Q 505 474 451 454 L 408 441 Q 407 441 407 440 Q 403 440 402 439 Q 375 435 355 430 Q 331 426 306 421 Q 282 417 302 403 Q 329 385 365 393 Q 375 396 389 399 L 449 413 Z" class="stroke4"/>
    <path d="M 447 355 Q 448 383 449 413 L 451 454 Q 454 500 464 535 Q 471 547 469 558 Q 463 565 419 594 Q 400 607 383 595 Q 379 591 384 579 Q 406 545 407 511 Q 407 478 408 441 L 405 319 Q 402 166 397 140 Q 382 53 389 33 Q 392 23 398 10 Q 402 -3 409 -7 Q 415 -13 420 -6 Q 441 7 443 60 Q 442 91 447 332 L 447 355 Z" class="stroke5"/>
    <path d="M 389 399 Q 347 273 210 68 Q 206 58 216 58 Q 237 58 334 191 Q 371 245 405 319 C 455 426 399 427 389 399 Z" class="stroke6"/>
    <path d="M 447 332 Q 501 278 513 278 Q 523 277 528 291 Q 529 301 522 317 Q 513 330 494 338 Q 463 353 450 355 Q 447 356 447 355 C 424 355 426 353 447 332 Z" class="stroke7"/>
    <path d="M 710 464 Q 725 468 830 489 Q 840 488 847 500 Q 847 510 826 519 Q 792 537 715 507 Q 712 507 711 506 L 662 492 Q 641 488 622 484 Q 597 480 566 474 Q 541 470 561 455 Q 592 437 628 444 Q 637 447 651 449 L 710 464 Z" class="stroke8"/>
    <path d="M 709 416 Q 709 440 710 464 L 711 506 Q 715 549 724 580 Q 731 593 729 606 Q 723 615 672 645 Q 651 661 632 646 Q 628 642 633 627 Q 661 588 662 492 L 663 352 Q 660 163 655 133 Q 639 40 650 8 Q 653 -1 658 -12 Q 665 -28 672 -31 Q 678 -37 684 -30 Q 691 -26 700 -6 Q 709 16 708 45 Q 707 79 709 356 L 709 416 Z" class="stroke9"/>
    <path d="M 651 449 Q 615 331 481 132 Q 477 122 488 122 Q 507 122 599 242 Q 633 288 663 352 C 723 478 660 478 651 449 Z" class="stroke10"/>
    <path d="M 709 356 Q 769 227 817 153 Q 833 126 854 124 Q 912 121 962 118 Q 984 117 984 121 Q 987 127 964 143 Q 849 216 815 259 Q 751 343 709 416 C 694 442 696 383 709 356 Z" class="stroke11"/>
    
    
    
    
    
    
    
    
    
    
    </g>
</svg>