<svg version="1.1" viewBox="0 0 1024 1024" xmlns="http://www.w3.org/2000/svg">
  
  <g transform="scale(1, -1) translate(0, -900)">
    <style type="text/css">
        .stroke1 {fill: #808080;}
        .stroke2 {fill: #808079;}
        .stroke3 {fill: #808078;}
        .stroke4 {fill: #808077;}
        .stroke5 {fill: #808076;}
        .stroke6 {fill: #808075;}
        .stroke7 {fill: #808074;}
        .stroke8 {fill: #808073;}
        .stroke9 {fill: #808072;}
        .stroke10 {fill: #808071;}
        .stroke11 {fill: #808070;}
        .stroke12 {fill: #808069;}
        .stroke13 {fill: #808068;}
        .stroke14 {fill: #808067;}
        .stroke15 {fill: #808066;}
        .stroke16 {fill: #808065;}
        .stroke17 {fill: #808064;}
        .stroke18 {fill: #808063;}
        .stroke19 {fill: #808062;}
        .stroke20 {fill: #808061;}
        text {
            font-family: Helvetica;
            font-size: 50px;
            fill: #808060;
            paint-order: stroke;
            stroke: #000000;
            stroke-width: 4px;
            stroke-linecap: butt;
            stroke-linejoin: miter;
            font-weight: 800;
        }
    </style>

    <path d="M 261 744 Q 246 750 220 751 Q 208 754 205 748 Q 199 741 209 726 Q 243 666 267 567 Q 271 537 291 518 Q 310 499 314 514 Q 315 521 316 530 L 314 558 Q 313 568 310 580 Q 288 674 279 709 C 272 738 271 741 261 744 Z" class="stroke1"/>
    <path d="M 425 737 Q 431 740 517 748 L 574 753 Q 626 760 689 763 Q 708 764 714 754 Q 723 736 676 608 C 666 580 713 573 725 601 Q 767 703 800 728 Q 821 749 795 767 Q 771 788 746 804 Q 731 817 709 808 Q 669 795 610 788 Q 504 778 383 759 Q 313 749 261 744 C 231 741 251 700 279 709 Q 298 719 395 732 L 425 737 Z" class="stroke2"/>
    <path d="M 316 530 Q 337 537 407 545 C 437 548 437 589 408 581 Q 407 581 407 580 Q 397 581 382 577 Q 345 567 314 558 C 285 550 287 521 316 530 Z" class="stroke3"/>
    <path d="M 582 555 Q 592 554 603 556 Q 645 563 736 570 Q 746 571 748 580 Q 748 587 725 601 L 676 608 Q 673 609 671 608 Q 622 595 582 588 C 552 583 552 557 582 555 Z" class="stroke4"/>
    <path d="M 517 748 Q 539 694 542 678 Q 542 515 532 301 Q 525 72 554 78 Q 572 90 579 199 L 580 229 Q 581 265 581 300 Q 580 306 580 312 L 579 338 Q 578 372 579 423 L 579 452 Q 579 498 582 555 L 582 588 Q 583 610 584 633 Q 585 679 596 721 Q 599 737 587 745 Q 580 749 574 753 C 549 770 506 776 517 748 Z" class="stroke5"/>
    <path d="M 398 190 Q 398 112 418 70 Q 442 21 489 1 Q 553 -27 649 -26 Q 760 -25 830 -3 Q 905 25 928 40 Q 952 50 939 89 Q 923 135 921 195 Q 921 216 915 217 Q 909 218 904 200 Q 888 145 869 114 Q 859 86 817 65 Q 768 41 678 39 Q 576 38 526 54 Q 480 76 463 113 Q 447 153 447 314 Q 450 533 462 643 Q 466 691 451 708 Q 438 724 425 737 C 405 759 390 762 395 732 Q 395 728 397 722 Q 410 658 408 581 L 407 545 Q 404 479 403 435 L 403 402 Q 403 401 403 398 Q 400 364 399 331 L 398 300 Q 397 260 398 221 L 398 190 Z" class="stroke6"/>
    <path d="M 403 435 L 401 437 Q 388 444 361 436 Q 297 417 249 407 C 220 401 234 363 260 378 Q 267 387 403 402 C 433 405 428 418 403 435 Z" class="stroke7"/>
    <path d="M 249 407 Q 236 419 212 430 Q 193 440 184 436 Q 172 430 182 414 Q 216 359 212 279 Q 211 216 193 184 Q 183 163 193 142 Q 209 117 226 129 C 254 140 266 170 254 198 Q 248 202 251 219 Q 255 357 260 378 C 263 396 263 396 249 407 Z" class="stroke8"/>
    <path d="M 393 333 Q 372 334 282 303 Q 267 299 286 287 Q 292 283 305 285 Q 357 295 398 300 C 428 304 427 322 399 331 L 393 333 Z" class="stroke9"/>
    <path d="M 226 129 Q 281 153 398 190 C 427 199 427 227 398 221 Q 260 193 254 198 C 224 202 198 117 226 129 Z" class="stroke10"/>
    <path d="M 700 216 Q 701 212 707 203 Q 726 169 751 196 Q 766 214 776 273 Q 785 376 815 417 Q 830 435 816 451 Q 798 467 767 487 Q 751 494 735 487 Q 662 463 579 452 C 549 448 549 420 579 423 Q 588 423 604 426 Q 712 453 733 442 Q 742 436 738 407 Q 717 248 714 240 C 708 211 693 229 700 216 Z" class="stroke11"/>
    <path d="M 580 312 Q 581 312 584 312 Q 644 319 687 325 Q 709 329 701 341 Q 691 354 667 358 Q 630 364 579 338 C 552 325 550 312 580 312 Z" class="stroke12"/>
    <path d="M 579 199 Q 646 212 700 216 C 730 218 738 222 714 240 Q 690 261 626 244 Q 601 237 580 229 C 552 218 550 193 579 199 Z" class="stroke13"/>
    
    
    
    
    
    
    
    
    
    
    
    
    </g>
</svg>