<svg version="1.1" viewBox="0 0 1024 1024" xmlns="http://www.w3.org/2000/svg">
  
  <g transform="scale(1, -1) translate(0, -900)">
    <style type="text/css">
        .stroke1 {fill: #808080;}
        .stroke2 {fill: #808079;}
        .stroke3 {fill: #808078;}
        .stroke4 {fill: #808077;}
        .stroke5 {fill: #808076;}
        .stroke6 {fill: #808075;}
        .stroke7 {fill: #808074;}
        .stroke8 {fill: #808073;}
        .stroke9 {fill: #808072;}
        .stroke10 {fill: #808071;}
        .stroke11 {fill: #808070;}
        .stroke12 {fill: #808069;}
        .stroke13 {fill: #808068;}
        .stroke14 {fill: #808067;}
        .stroke15 {fill: #808066;}
        .stroke16 {fill: #808065;}
        .stroke17 {fill: #808064;}
        .stroke18 {fill: #808063;}
        .stroke19 {fill: #808062;}
        .stroke20 {fill: #808061;}
        text {
            font-family: Helvetica;
            font-size: 50px;
            fill: #808060;
            paint-order: stroke;
            stroke: #000000;
            stroke-width: 4px;
            stroke-linecap: butt;
            stroke-linejoin: miter;
            font-weight: 800;
        }
    </style>

    <path d="M 342 737 Q 330 744 296 748 Q 284 752 281 746 Q 274 740 283 724 Q 308 673 325 589 Q 329 564 344 547 Q 362 525 367 541 Q 370 551 370 566 L 367 600 Q 354 678 352 706 C 350 734 350 734 342 737 Z" class="stroke1"/>
    <path d="M 637 624 Q 662 688 694 707 Q 710 725 697 743 Q 625 801 568 777 Q 466 747 342 737 C 312 734 322 702 352 706 Q 472 721 593 738 Q 597 737 601 733 Q 608 726 606 710 Q 597 670 587 636 C 579 607 626 596 637 624 Z" class="stroke2"/>
    <path d="M 493 581 Q 556 590 643 594 Q 653 595 655 603 Q 655 610 637 624 C 617 640 617 640 587 636 Q 583 636 579 635 Q 461 610 367 600 C 337 597 340 568 370 566 Q 376 565 387 566 Q 415 573 459 576 L 493 581 Z" class="stroke3"/>
    <path d="M 278 465 Q 266 472 232 476 Q 220 480 217 474 Q 210 468 219 452 Q 255 376 275 250 Q 279 213 300 187 Q 318 165 323 181 Q 324 187 326 193 L 327 223 Q 326 242 321 264 Q 296 385 289 429 C 284 459 283 463 278 465 Z" class="stroke4"/>
    <path d="M 645 228 Q 661 201 676 193 Q 686 184 703 206 Q 722 234 764 392 Q 774 425 800 450 Q 813 463 803 478 Q 787 496 743 525 Q 727 534 648 518 Q 621 518 526 501 L 469 492 Q 447 491 425 487 Q 344 474 278 465 C 248 461 259 424 289 429 Q 295 428 306 431 Q 370 447 468 462 L 523 470 Q 683 497 704 475 Q 717 456 714 439 Q 675 274 656 259 C 641 234 641 234 645 228 Z" class="stroke5"/>
    <path d="M 516 340 Q 568 347 613 352 Q 637 355 629 368 Q 619 384 594 389 Q 561 395 517 381 L 467 370 Q 410 360 360 349 Q 344 346 363 330 Q 375 321 400 324 Q 433 328 465 332 L 516 340 Z" class="stroke6"/>
    <path d="M 514 213 Q 583 223 645 228 C 675 231 684 248 656 259 Q 625 277 513 251 L 462 243 Q 392 233 327 223 C 297 218 296 194 326 193 Q 339 192 359 193 Q 411 200 462 206 L 514 213 Z" class="stroke7"/>
    <path d="M 462 206 Q 462 134 477 102 Q 496 59 538 39 Q 592 14 676 11 Q 773 10 834 26 Q 900 47 922 61 Q 946 73 930 112 Q 911 160 903 221 Q 902 240 896 241 Q 889 241 887 223 Q 880 166 867 132 Q 857 108 822 92 Q 780 73 704 74 Q 617 75 575 91 Q 536 110 523 143 Q 516 161 514 213 L 513 251 Q 513 263 514 275 Q 514 309 516 340 L 517 381 Q 518 433 523 470 L 526 501 Q 527 541 515 556 Q 503 569 493 581 C 473 604 453 605 459 576 Q 465 570 469 492 L 468 462 Q 467 407 467 370 L 465 332 Q 464 284 462 243 L 462 206 Z" class="stroke8"/>
    
    
    
    
    
    
    
    </g>
</svg>