<svg version="1.1" viewBox="0 0 1024 1024" xmlns="http://www.w3.org/2000/svg">
  
  <g transform="scale(1, -1) translate(0, -900)">
    <style type="text/css">
        .stroke1 {fill: #808080;}
        .stroke2 {fill: #808079;}
        .stroke3 {fill: #808078;}
        .stroke4 {fill: #808077;}
        .stroke5 {fill: #808076;}
        .stroke6 {fill: #808075;}
        .stroke7 {fill: #808074;}
        .stroke8 {fill: #808073;}
        .stroke9 {fill: #808072;}
        .stroke10 {fill: #808071;}
        .stroke11 {fill: #808070;}
        .stroke12 {fill: #808069;}
        .stroke13 {fill: #808068;}
        .stroke14 {fill: #808067;}
        .stroke15 {fill: #808066;}
        .stroke16 {fill: #808065;}
        .stroke17 {fill: #808064;}
        .stroke18 {fill: #808063;}
        .stroke19 {fill: #808062;}
        .stroke20 {fill: #808061;}
        text {
            font-family: Helvetica;
            font-size: 50px;
            fill: #808060;
            paint-order: stroke;
            stroke: #000000;
            stroke-width: 4px;
            stroke-linecap: butt;
            stroke-linejoin: miter;
            font-weight: 800;
        }
    </style>

    <path d="M 491 826 Q 512 808 533 788 Q 549 775 565 777 Q 575 778 581 792 Q 585 808 573 839 Q 561 863 483 876 Q 467 879 460 875 Q 454 871 457 857 Q 461 847 491 826 Z" class="stroke1"/>
    <path d="M 228 709 Q 207 708 223 691 Q 236 678 254 672 Q 273 668 290 672 Q 471 726 815 725 Q 834 725 839 734 Q 845 744 828 758 Q 780 795 741 787 Q 596 757 228 709 Z" class="stroke2"/>
    <path d="M 409 654 Q 445 603 465 599 Q 475 598 481 611 Q 482 621 477 637 Q 464 661 414 675 Q 407 676 405 667 Q 404 661 409 654 Z" class="stroke3"/>
    <path d="M 519 556 Q 586 629 621 657 Q 634 663 629 671 Q 623 681 606 693 Q 590 705 572 703 Q 562 702 565 687 Q 571 666 506 563 C 490 538 499 534 519 556 Z" class="stroke4"/>
    <path d="M 506 563 Q 499 569 491 573 Q 481 577 474 572 Q 468 568 471 556 Q 489 520 476 416 Q 470 398 490 370 Q 497 363 505 371 Q 517 389 519 440 Q 519 498 526 533 Q 530 549 519 556 L 506 563 Z" class="stroke5"/>
    <path d="M 281 544 Q 315 554 345 559 Q 357 560 360 557 Q 366 548 363 524 Q 359 457 345 428 Q 330 401 308 405 L 276 413 Q 257 420 271 400 Q 301 369 315 343 Q 328 328 341 340 Q 389 370 411 507 Q 415 541 429 558 Q 439 568 434 577 Q 427 586 384 603 Q 368 610 352 599 Q 339 590 283 576 Q 228 560 182 555 Q 167 554 166 547 Q 165 541 184 532 Q 203 520 219 526 Q 232 530 247 534 L 281 544 Z" class="stroke6"/>
    <path d="M 247 534 Q 254 462 125 315 Q 121 311 121 306 Q 121 302 125 303 Q 186 316 290 488 Q 294 498 300 503 Q 304 510 299 522 Q 289 535 281 544 C 261 567 246 564 247 534 Z" class="stroke7"/>
    <path d="M 684 592 Q 693 598 703 602 Q 725 612 745 623 Q 761 633 782 639 Q 800 643 794 659 Q 785 675 767 689 Q 749 702 739 702 Q 729 702 731 691 Q 731 670 624 579 C 601 560 604 558 632 569 Q 650 576 666 584 L 684 592 Z" class="stroke8"/>
    <path d="M 624 579 Q 608 595 595 597 Q 586 598 582 595 Q 575 591 583 580 Q 622 514 585 452 Q 584 451 583 449 Q 573 434 579 419 Q 586 395 598 387 Q 605 381 615 395 Q 634 417 699 477 Q 712 487 713 492 Q 714 501 700 494 Q 637 469 633 470 Q 627 474 628 490 Q 631 568 632 569 C 632 571 632 571 624 579 Z" class="stroke9"/>
    <path d="M 666 584 Q 672 565 802 423 Q 836 386 971 408 Q 987 409 988 413 Q 991 419 978 424 Q 815 482 730 552 Q 726 555 724 557 Q 699 581 684 592 C 660 610 651 610 666 584 Z" class="stroke10"/>
    <path d="M 277 297 Q 304 249 265 106 Q 256 84 245 59 Q 226 22 169 -28 Q 156 -38 152 -44 Q 149 -51 160 -51 Q 190 -54 243 -10 Q 315 56 342 238 Q 348 256 350 266 Q 357 285 339 295 Q 297 322 283 321 Q 264 320 277 297 Z" class="stroke11"/>
    <path d="M 665 374 Q 713 304 693 42 Q 681 -25 701 -65 Q 704 -69 708 -76 Q 720 -92 732 -79 Q 757 -46 751 44 Q 748 281 755 307 Q 756 319 762 331 Q 769 349 757 362 Q 733 378 696 395 Q 681 401 669 393 Q 660 389 665 374 Z" class="stroke12"/>
    <path d="M 419 326 Q 386 320 410 305 Q 443 290 517 301 Q 550 308 585 315 Q 604 319 607 322 Q 616 329 611 337 Q 604 347 577 354 Q 562 357 477 334 Q 450 330 419 326 Z" class="stroke13"/>
    <path d="M 506 218 Q 552 228 605 237 Q 641 244 646 249 Q 653 256 650 262 Q 644 272 621 278 Q 603 282 518 259 Q 433 243 383 238 Q 355 234 375 219 Q 405 201 455 209 Q 465 213 480 213 L 506 218 Z" class="stroke14"/>
    <path d="M 480 213 Q 486 195 478 90 Q 469 15 500 -8 L 502 -9 Q 509 -10 514 -2 Q 518 13 519 118 Q 519 157 523 196 Q 524 203 520 208 Q 513 215 506 218 C 480 233 476 235 480 213 Z" class="stroke15"/>
    <path d="M 396 169 Q 377 135 353 103 Q 334 81 348 51 Q 352 36 370 45 Q 409 70 413 123 Q 419 148 415 168 Q 411 175 406 176 Q 399 176 396 169 Z" class="stroke16"/>
    <path d="M 575 139 Q 597 114 621 82 Q 630 69 643 68 Q 652 67 657 77 Q 663 87 660 113 Q 659 132 633 150 Q 575 187 560 183 Q 556 180 555 169 Q 556 160 575 139 Z" class="stroke17"/>
    
    
    
    
    
    
    
    
    
    
    
    
    
    
    
    
    </g>
</svg>