<svg version="1.1" viewBox="0 0 1024 1024" xmlns="http://www.w3.org/2000/svg">
  
  <g transform="scale(1, -1) translate(0, -900)">
    <style type="text/css">
        .stroke1 {fill: #808080;}
        .stroke2 {fill: #808079;}
        .stroke3 {fill: #808078;}
        .stroke4 {fill: #808077;}
        .stroke5 {fill: #808076;}
        .stroke6 {fill: #808075;}
        .stroke7 {fill: #808074;}
        .stroke8 {fill: #808073;}
        .stroke9 {fill: #808072;}
        .stroke10 {fill: #808071;}
        .stroke11 {fill: #808070;}
        .stroke12 {fill: #808069;}
        .stroke13 {fill: #808068;}
        .stroke14 {fill: #808067;}
        .stroke15 {fill: #808066;}
        .stroke16 {fill: #808065;}
        .stroke17 {fill: #808064;}
        .stroke18 {fill: #808063;}
        .stroke19 {fill: #808062;}
        .stroke20 {fill: #808061;}
        text {
            font-family: Helvetica;
            font-size: 50px;
            fill: #808060;
            paint-order: stroke;
            stroke: #000000;
            stroke-width: 4px;
            stroke-linecap: butt;
            stroke-linejoin: miter;
            font-weight: 800;
        }
    </style>

    <path d="M 362 567 Q 366 616 371 661 L 373 689 Q 373 708 387 772 Q 390 781 374 793 Q 346 808 326 812 Q 313 813 306 807 Q 300 801 307 789 Q 320 770 321 756 Q 328 665 328 558 C 328 528 360 537 362 567 Z" class="stroke1"/>
    <path d="M 371 661 Q 419 661 504 689 L 505 689 Q 512 696 507 703 Q 500 712 477 715 Q 467 716 399 696 Q 386 693 373 689 C 344 680 341 661 371 661 Z" class="stroke2"/>
    <path d="M 266 542 Q 257 608 257 631 Q 257 649 245 657 Q 226 669 203 673 Q 191 676 185 670 Q 181 664 186 653 Q 204 629 233 535 C 242 506 270 512 266 542 Z" class="stroke3"/>
    <path d="M 402 541 Q 442 551 491 558 Q 506 559 506 567 Q 507 579 490 586 Q 465 596 445 590 Q 399 578 362 567 L 328 558 Q 294 551 266 542 L 233 535 Q 116 511 63 503 Q 51 502 49 494 Q 46 484 60 475 Q 90 456 144 468 Q 177 481 209 490 L 236 499 Q 302 521 372 534 L 402 541 Z" class="stroke4"/>
    <path d="M 209 490 Q 218 472 185 411 Q 169 383 147 350 Q 141 344 140 341 Q 139 334 147 336 Q 165 339 224 412 L 235 428 Q 262 470 263 473 Q 262 474 262 475 Q 256 488 236 499 C 210 514 201 519 209 490 Z" class="stroke5"/>
    <path d="M 224 412 Q 239 403 266 375 Q 273 368 282 369 Q 286 369 290 377 Q 293 384 288 401 Q 279 419 235 428 C 206 434 199 428 224 412 Z" class="stroke6"/>
    <path d="M 393 456 Q 411 489 425 506 Q 431 513 427 520 Q 424 527 406 539 Q 405 540 402 541 C 376 555 358 560 372 534 Q 378 525 377 515 Q 364 467 326 399 Q 322 392 320 388 Q 319 381 326 384 Q 348 390 382 440 L 393 456 Z" class="stroke7"/>
    <path d="M 382 440 Q 386 439 428 403 Q 435 397 443 397 Q 447 398 450 405 Q 451 412 447 427 Q 441 443 393 456 C 364 464 356 454 382 440 Z" class="stroke8"/>
    <path d="M 364 324 Q 368 327 375 328 Q 403 335 408 340 Q 414 347 410 352 Q 406 359 385 364 Q 363 367 343 357 Q 310 344 275 333 Q 235 321 188 314 Q 163 310 181 298 Q 196 291 221 290 L 247 294 Q 292 306 341 319 L 364 324 Z" class="stroke9"/>
    <path d="M 221 290 Q 236 260 168 157 Q 165 154 164 151 Q 163 147 170 147 Q 183 150 217 192 Q 218 196 223 199 L 234 214 Q 253 250 266 262 Q 270 268 268 275 Q 267 281 251 292 Q 250 293 247 294 C 221 308 213 312 221 290 Z" class="stroke10"/>
    <path d="M 223 199 Q 265 157 268 155 L 270 155 Q 274 154 278 161 Q 281 168 279 183 Q 278 193 262 202 Q 249 209 234 214 C 206 224 202 220 223 199 Z" class="stroke11"/>
    <path d="M 358 241 Q 385 292 391 298 Q 397 305 387 313 Q 377 320 364 324 C 337 333 337 333 341 319 L 342 317 Q 352 266 311 213 Q 301 200 296 191 Q 292 182 300 186 Q 316 189 347 226 L 358 241 Z" class="stroke12"/>
    <path d="M 347 226 Q 356 222 404 188 Q 411 184 419 184 Q 425 185 426 192 Q 427 199 421 214 Q 417 227 395 234 Q 376 238 358 241 C 328 246 320 240 347 226 Z" class="stroke13"/>
    <path d="M 440 161 Q 278 139 159 101 Q 137 94 140 121 Q 140 182 140 247 Q 141 269 131 281 Q 115 294 92 305 Q 82 309 72 306 Q 62 302 72 285 Q 105 227 101 166 Q 100 108 79 80 Q 63 64 71 51 Q 81 38 98 29 Q 107 25 129 39 Q 175 81 369 119 Q 409 126 429 125 C 459 126 470 165 440 161 Z" class="stroke14"/>
    <path d="M 429 125 Q 429 100 441 72 Q 448 57 460 67 Q 484 88 489 163 Q 508 290 521 312 Q 528 325 520 337 Q 504 352 475 370 Q 465 377 453 372 Q 446 369 448 357 Q 467 317 441 163 Q 440 163 440 161 L 429 125 Z" class="stroke15"/>
    <path d="M 611 656 Q 601 662 566 668 Q 556 671 552 666 Q 548 660 555 646 Q 582 594 599 509 Q 602 484 617 466 Q 633 447 638 461 L 640 473 L 639 502 Q 629 553 618 625 C 613 655 613 655 611 656 Z" class="stroke16"/>
    <path d="M 821 532 Q 843 611 868 636 Q 893 663 868 679 Q 847 691 819 710 Q 798 722 751 695 Q 697 674 611 656 C 582 650 588 621 618 625 Q 628 626 643 629 Q 698 644 746 654 Q 777 661 786 648 Q 793 642 785 607 Q 778 573 766 531 C 758 502 813 503 821 532 Z" class="stroke17"/>
    <path d="M 716 486 Q 764 495 834 502 Q 843 503 844 510 Q 844 517 821 532 C 808 541 795 538 766 531 Q 696 515 639 502 C 610 495 610 470 640 473 Q 644 473 649 474 Q 659 477 675 479 L 716 486 Z" class="stroke18"/>
    <path d="M 729 178 Q 733 268 737 343 L 739 374 Q 739 410 743 439 Q 752 463 716 486 C 691 503 663 507 675 479 Q 688 457 689 356 Q 689 301 688 199 C 688 169 728 148 729 178 Z" class="stroke19"/>
    <path d="M 737 343 Q 738 344 741 343 Q 783 343 871 372 Q 872 373 873 373 Q 880 380 875 387 Q 868 396 845 400 Q 830 401 764 380 Q 749 379 739 374 C 711 362 707 343 737 343 Z" class="stroke20"/>
    <path d="M 607 245 Q 620 281 632 308 Q 638 318 625 328 Q 583 347 568 341 Q 559 337 564 326 Q 588 257 526 155 Q 513 136 507 122 Q 503 109 514 115 Q 556 130 597 221 L 607 245 Z" class="stroke21"/>
    <path d="M 597 221 Q 694 137 813 52 Q 835 39 862 48 Q 956 78 984 92 Q 991 96 992 101 Q 991 105 977 109 Q 826 127 733 176 Q 730 177 729 178 L 688 199 Q 649 221 607 245 C 581 260 574 241 597 221 Z" class="stroke22"/>
    
    
    
    
    
    
    
    
    
    
    
    
    
    
    
    
    
    
    
    
    
    </g>
</svg>