<svg version="1.1" viewBox="0 0 1024 1024" xmlns="http://www.w3.org/2000/svg">
  
  <g transform="scale(1, -1) translate(0, -900)">
    <style type="text/css">
        .stroke1 {fill: #808080;}
        .stroke2 {fill: #808079;}
        .stroke3 {fill: #808078;}
        .stroke4 {fill: #808077;}
        .stroke5 {fill: #808076;}
        .stroke6 {fill: #808075;}
        .stroke7 {fill: #808074;}
        .stroke8 {fill: #808073;}
        .stroke9 {fill: #808072;}
        .stroke10 {fill: #808071;}
        .stroke11 {fill: #808070;}
        .stroke12 {fill: #808069;}
        .stroke13 {fill: #808068;}
        .stroke14 {fill: #808067;}
        .stroke15 {fill: #808066;}
        .stroke16 {fill: #808065;}
        .stroke17 {fill: #808064;}
        .stroke18 {fill: #808063;}
        .stroke19 {fill: #808062;}
        .stroke20 {fill: #808061;}
        text {
            font-family: Helvetica;
            font-size: 50px;
            fill: #808060;
            paint-order: stroke;
            stroke: #000000;
            stroke-width: 4px;
            stroke-linecap: butt;
            stroke-linejoin: miter;
            font-weight: 800;
        }
    </style>

    <path d="M 529 505 Q 536 575 542 639 L 545 669 Q 548 703 555 738 Q 565 771 549 786 Q 546 787 546 788 Q 510 807 486 812 Q 470 815 462 806 Q 455 799 462 784 Q 480 759 481 742 Q 490 630 487 499 C 486 469 526 475 529 505 Z" class="stroke1"/>
    <path d="M 542 639 Q 576 630 647 645 Q 681 652 718 660 Q 740 666 744 669 Q 751 676 747 685 Q 740 695 712 702 Q 693 705 612 682 Q 585 676 545 669 C 515 664 513 645 542 639 Z" class="stroke2"/>
    <path d="M 369 484 Q 365 617 363 621 Q 360 625 356 628 Q 332 644 305 653 Q 292 657 282 652 Q 275 645 282 630 Q 303 599 327 478 C 333 449 370 454 369 484 Z" class="stroke3"/>
    <path d="M 327 478 Q 236 469 141 456 Q 119 453 136 435 Q 151 420 170 414 Q 192 408 210 414 Q 454 480 861 480 Q 882 480 887 489 Q 893 502 875 517 Q 821 557 779 549 Q 683 530 529 505 L 487 499 Q 429 492 369 484 L 327 478 Z" class="stroke4"/>
    <path d="M 519 312 Q 541 349 564 380 Q 574 393 560 409 Q 515 443 488 441 Q 476 438 478 423 Q 491 318 377 196 Q 367 192 329 145 Q 320 129 336 134 Q 355 137 382 156 Q 461 217 508 294 L 519 312 Z" class="stroke5"/>
    <path d="M 508 294 Q 509 293 512 290 Q 573 241 648 169 Q 663 153 675 150 Q 682 149 689 158 Q 699 170 686 206 Q 670 257 519 312 C 491 322 486 315 508 294 Z" class="stroke6"/>
    <path d="M 233 4 Q 251 -12 261 -14 Q 270 -14 278 -7 Q 303 27 524 63 Q 575 73 741 88 C 771 91 778 123 748 123 Q 616 123 375 90 Q 305 81 304 80 Q 297 87 314 266 Q 317 308 262 327 Q 256 328 252 329 Q 239 330 233 326 Q 229 320 242 299 Q 288 209 233 95 Q 199 50 199 49 Q 199 46 200 43 Q 204 28 233 4 Z" class="stroke7"/>
    <path d="M 741 88 Q 726 46 756 -11 Q 766 -29 780 -15 Q 807 15 808 111 Q 817 297 830 322 Q 830 325 832 326 Q 841 344 828 359 Q 806 375 767 396 Q 752 403 739 396 Q 730 392 734 376 Q 768 319 748 123 L 741 88 Z" class="stroke8"/>
    
    
    
    
    
    
    
    </g>
</svg>