<svg version="1.1" viewBox="0 0 1024 1024" xmlns="http://www.w3.org/2000/svg">
  
  <g transform="scale(1, -1) translate(0, -900)">
    <style type="text/css">
        .stroke1 {fill: #808080;}
        .stroke2 {fill: #808079;}
        .stroke3 {fill: #808078;}
        .stroke4 {fill: #808077;}
        .stroke5 {fill: #808076;}
        .stroke6 {fill: #808075;}
        .stroke7 {fill: #808074;}
        .stroke8 {fill: #808073;}
        .stroke9 {fill: #808072;}
        .stroke10 {fill: #808071;}
        .stroke11 {fill: #808070;}
        .stroke12 {fill: #808069;}
        .stroke13 {fill: #808068;}
        .stroke14 {fill: #808067;}
        .stroke15 {fill: #808066;}
        .stroke16 {fill: #808065;}
        .stroke17 {fill: #808064;}
        .stroke18 {fill: #808063;}
        .stroke19 {fill: #808062;}
        .stroke20 {fill: #808061;}
        text {
            font-family: Helvetica;
            font-size: 50px;
            fill: #808060;
            paint-order: stroke;
            stroke: #000000;
            stroke-width: 4px;
            stroke-linecap: butt;
            stroke-linejoin: miter;
            font-weight: 800;
        }
    </style>

    <path d="M 323 688 Q 362 637 390 625 Q 403 622 412 633 Q 418 643 416 659 Q 407 696 356 714 Q 326 727 313 723 Q 309 722 310 711 Q 310 701 323 688 Z" class="stroke1"/>
    <path d="M 632 749 Q 619 728 567 663 Q 557 645 574 649 Q 631 676 673 703 Q 692 719 717 728 Q 739 738 729 756 Q 716 774 690 789 Q 666 804 653 801 Q 640 800 644 786 Q 647 767 632 749 Z" class="stroke2"/>
    <path d="M 497 542 Q 558 555 626 566 Q 678 578 686 585 Q 695 592 691 600 Q 684 612 656 620 Q 628 627 598 616 Q 553 603 506 588 L 449 576 Q 386 566 318 559 Q 282 555 307 538 Q 340 517 417 528 Q 426 529 437 531 L 497 542 Z" class="stroke3"/>
    <path d="M 454 422 Q 469 429 566 437 L 596 440 Q 666 447 759 450 Q 825 450 832 460 Q 838 472 820 486 Q 765 523 730 513 Q 642 492 492 465 Q 482 464 471 461 L 409 451 Q 309 438 200 419 Q 179 416 195 399 Q 228 371 273 384 Q 327 402 389 411 L 454 422 Z" class="stroke4"/>
    <path d="M 389 411 Q 311 261 163 173 Q 145 160 127 147 Q 112 137 127 133 Q 143 133 183 148 Q 262 184 322 240 Q 347 262 369 285 L 398 323 Q 413 347 453 420 Q 453 421 454 422 L 471 461 Q 486 501 497 542 L 506 588 Q 506 633 533 723 Q 539 756 555 784 Q 565 805 547 815 Q 493 857 462 846 Q 446 842 454 824 Q 485 761 451 583 Q 450 580 449 576 L 437 531 Q 422 482 409 451 L 389 411 Z" class="stroke5"/>
    <path d="M 566 437 Q 605 379 752 224 Q 774 200 814 198 Q 886 194 961 206 Q 980 207 981 213 Q 984 220 969 226 Q 801 289 769 309 Q 720 339 598 438 Q 597 439 596 440 C 573 459 549 462 566 437 Z" class="stroke6"/>
    
    
    
    
    
    </g>
</svg>